<svg width="22" height="22" xmlns="http://www.w3.org/2000/svg"><defs><style id="current-color-scheme" type="text/css">.ColorScheme-Text{color:#8b9cbe}</style></defs><path class="ColorScheme-Text" d="M10.5 4.967a4.5 4.5 0 0 0-4.5 4.5 4.5 4.5 0 0 0 .053.656A3 3 0 0 0 4 12.967a3 3 0 0 0 3 3h7.5a3.5 3.5 0 0 0 3.5-3.5 3.5 3.5 0 0 0-3.03-3.465 4.5 4.5 0 0 0-4.47-4.035zm0 1a3.5 3.5 0 0 1 3.5 3.5 3.5 3.5 0 0 1-.05.564 2.5 2.5 0 0 1 .55-.064 2.5 2.5 0 0 1 2.5 2.5 2.5 2.5 0 0 1-2.5 2.5H7a2 2 0 0 1-2-2 2 2 0 0 1 2-2 2 2 0 0 1 .357.033A3.5 3.5 0 0 1 7 9.467a3.5 3.5 0 0 1 3.5-3.5z" fill="currentColor"/><path class="ColorScheme-Text" d="M10.491 5.89a3.56 3.56 0 0 1 3.56 3.56 2.867 2.867 0 0 1-.047.515c.183-.042.371-.045.56-.046 1.404 0 2.539 1.178 2.539 2.582s-1.139 2.543-2.543 2.543H6.93a2.034 2.034 0 0 1-2.034-2.034c0-1.124.949-2.074 2.073-2.074.121 0 .213.009.333.03a3.39 3.39 0 0 1-.371-1.516 3.56 3.56 0 0 1 3.56-3.56z" fill="currentColor" opacity=".25"/></svg>