<svg width="22" height="22" xmlns="http://www.w3.org/2000/svg"><defs><style id="current-color-scheme" type="text/css">.ColorScheme-Text{color:#8b9cbe}</style></defs><path class="ColorScheme-Text" d="M9 4v2h9V4zm7 10a2 1.5 0 0 0-2 1.5 2 1.5 0 0 0 2 1.5 2 1.5 0 0 0 2-1.5 2 1.5 0 0 0-2-1.5zM6 15a2 1.5 0 0 0-2 1.5A2 1.5 0 0 0 6 18a2 1.5 0 0 0 2-1.5A2 1.5 0 0 0 6 15z" fill="currentColor" opacity=".25"/><path class="ColorScheme-Text" d="M8 3v11.648A3.33 3.33 0 0 0 6 14c-1.657 0-3 1.12-3 2.5S4.343 19 6 19s3-1.12 3-2.5c0-.048-.014-.093-.018-.14H9V7h9v6.648A3.33 3.33 0 0 0 16 13c-1.657 0-3 1.12-3 2.5s1.343 2.5 3 2.5 3-1.12 3-2.5c0-.034-.01-.066-.012-.1H19V3h-1zm1 1h9v2H9zm7 10c1.105 0 2 .672 2 1.5s-.895 1.5-2 1.5-2-.672-2-1.5.895-1.5 2-1.5zM6 15c1.105 0 2 .672 2 1.5S7.105 18 6 18s-2-.672-2-1.5.895-1.5 2-1.5z" fill="currentColor"/></svg>