<svg xmlns="http://www.w3.org/2000/svg" width="16" height="16" viewBox="0 0 4.233 4.233">
    <path style="fill:#35454d;fill-opacity:1;fill-rule:evenodd;stroke:none;stroke-width:.26458335;color:#122036" d="M-.792 292.502a.265.265 0 0 0-.253.181l-.53 1.588a.265.265 0 0 0 .083.286l1.587 1.323c.098.082.24.082.34 0l1.587-1.323a.265.265 0 0 0 .081-.286l-.529-1.588a.265.265 0 0 0-.488-.035l-.456.913H-.1l-.456-.913" transform="translate(1.852 -291.973)"/>
    <path d="m-1.323 294.354 1.588 1.323 1.587-1.323-.53-1.587-.528 1.058H-.265l-.529-1.058z" style="fill:#607c8a;fill-opacity:1;stroke:none;stroke-width:.26458335px;stroke-linecap:butt;stroke-linejoin:miter;stroke-opacity:1" transform="translate(1.852 -291.973)"/>
</svg>
