<svg height="32" viewBox="0 0 32 32" width="32" xmlns="http://www.w3.org/2000/svg"><g transform="translate(54 -284.54285)"><path d="m-52 285.54285c-1.090679 0-2 .90931-2 2v26c0 1.09069.909309 2 2 2h28c1.090691 0 2-.90931 2-2v-22c0-1.09069-.909321-2-2-2h-14c-.166667 0-.219367-.025-.419922-.26563-.200555-.24067-.435547-.68163-.685547-1.18164-.25-.5-.515008-1.05903-.939453-1.56836" fill="#dd4d25"/><path d="m-52 286.54286c-.55401 0-1 .44598-1 .99999v26.00001c0 .554.44599.99999 1 .99999h28.000001c.554009 0 .999999-.44599.999999-.99999v-22.00001c0-.55401-.445991-.99999-.999999-.99999l-14.000001-.00001c-2 0-2-4-4-4z" fill="#fa7750" stroke-width="2"/><path d="m-38 289.54285c-.833333 0-1.554289.54936-1.894531 1.09375-.340243.54439-.491342 1.08889-.666016 1.55469-.174673.46579-.360335.83439-.552734 1.03515-.1924.20077-.358941.31641-.886719.31641h-10c-1.090679 0-2 .90931-2 2v18c0 1.09069.909309 2 2 2h28c1.090691 0 2-.90931 2-2v-22c0-1.09069-.909321-2-2-2z" fill="#dd4d25"/><path d="m-52 294.54286c-.55401 0-1 .44598-1 .99999v18.00001c0 .554.44599.99999 1 .99999h28.000001c.554009 0 .999999-.44599.999999-.99999v-22.00001c0-.55401-.445991-.99999-.999999-.99999l-14.000001-.00001c-2 0-1 4-4 4z" fill="#ff8f64"/><path d="m-42 298.54285c-.554001 0-1 .44599-1 1v10c0 .55401.445999 1 1 1h1v-2h2v-2h2v-2h2v-2h2v-1l-3-3zm7 6v2h2v-2zm0 2h-2v2h2zm0 2v2h1c.554 0 1-.44599 1-1v-1zm-2 0h-2v2h2z" fill="#ffe9e0"/></g></svg>