<svg xmlns="http://www.w3.org/2000/svg" xmlns:xlink="http://www.w3.org/1999/xlink" width="16" height="16" viewBox="0 0 4.233 4.233">
    <defs>
        <linearGradient id="a">
            <stop offset="0" style="stop-color:#b742ea;stop-opacity:1"/>
            <stop offset="1" style="stop-color:#e43ac6;stop-opacity:1"/>
        </linearGradient>
        <linearGradient id="b">
            <stop offset="0" style="stop-color:#d697e8;stop-opacity:1"/>
            <stop offset="1" style="stop-color:#e671ce;stop-opacity:1"/>
        </linearGradient>
        <linearGradient xlink:href="#a" id="c" x1="-.265" y1="295.942" x2="-.265" y2="292.502" gradientUnits="userSpaceOnUse"/>
        <linearGradient xlink:href="#b" id="d" x1="7" y1="13" x2="7" y2="3" gradientUnits="userSpaceOnUse"/>
    </defs>
    <path class="ColorScheme-Text" style="color:#122036;fill:url(#c);fill-opacity:1;stroke:none;stroke-width:.26458335" d="M1.323 292.502H0v1.679a.921.921 0 0 0-1.323.835c0 .513.413.926.926.926a.924.924 0 0 0 .926-.926v-1.72h.794Z" transform="translate(2.117 -291.973)"/>
    <path style="opacity:1;fill:url(#d);fill-opacity:1;stroke:none;stroke-width:2;stroke-linecap:round;stroke-linejoin:round;stroke-miterlimit:4;stroke-dasharray:none;stroke-opacity:1;paint-order:fill markers stroke" d="M9 3v1h3V3H9zM6.5 9A2.495 2.495 0 0 0 4 11.5C4 12.885 5.115 14 6.5 14S9 12.885 9 11.5 7.885 9 6.5 9z" transform="scale(.26458)"/>
</svg>
