<svg height="64" viewBox="0 0 16.933 16.933" width="64" xmlns="http://www.w3.org/2000/svg" xmlns:xlink="http://www.w3.org/1999/xlink"><linearGradient id="a"><stop offset="0"/><stop offset="1" stop-opacity="0"/></linearGradient><linearGradient id="b" gradientTransform="matrix(1.6035 -1.6035 1.6035 1.6035 3.8025 -613.72)" gradientUnits="userSpaceOnUse" x1="-197.1" x2="-196.91" xlink:href="#a" y1="217.68" y2="219.36"/><linearGradient id="c" gradientTransform="matrix(1.6035 -1.6035 1.6035 1.6035 22.8 -628.73)" gradientUnits="userSpaceOnUse" x1="-197.1" x2="-196.91" xlink:href="#a" y1="217.68" y2="219.36"/><path d="m3.07 7.09c-.177 0-.237.162-.318.318h-.477a.317.317 0 0 0 -.317.317v3.175c0 .176.142.318.317.318h7.62a.317.317 0 0 0 .318-.318v-3.175a.317.317 0 0 0 -.318-.317h-4.285c-.093-.15-.141-.318-.317-.318z" fill="#6aa0e2"/><rect fill="#f2f2f2" height="3.016" ry=".159" width="7.303" x="2.434" y="7.884"/><rect fill="#82b2ea" height="5.715" ry=".317" width="9.525" x="1.323" y="8.837"/><path d="m6.085 8.202h4.445c.176 0 .318.141.318.317v2.381a.317.317 0 0 1 -.318.318h-5.834c-.176 0-.406-.166-.317-.318l1.389-2.38c.089-.153.142-.318.317-.318z" fill="#82b2ea"/><rect height=".317" opacity=".25" ry=".159" width="1.905" x="3.228" y="7.249"/><path d="m41.002 47.799-7.2012 7.2012h6.002c.6646 0 1.1992-.53657 1.1992-1.2012z" fill="url(#b)" opacity=".1" stroke-width="2.2678" transform="scale(.26458)"/><path d="m8.096 3.122c-.176 0-.236.161-.317.317h-.477a.317.317 0 0 0 -.317.318v3.175c0 .176.142.317.317.317h7.62a.317.317 0 0 0 .318-.317v-3.175a.317.317 0 0 0 -.318-.318h-4.286c-.093-.149-.141-.317-.317-.317z" fill="#5294e2"/><path d="m8.096 3.122c-.176 0-.236.161-.317.317h-.477a.317.317 0 0 0 -.317.318v3.175c0 .176.142.317.317.317h7.62a.317.317 0 0 0 .318-.317v-3.175a.317.317 0 0 0 -.318-.318h-4.286c-.093-.149-.141-.317-.317-.317z" opacity=".18"/><rect fill="#fff" height="3.016" ry=".159" width="7.303" x="7.461" y="3.915"/><rect fill="#5294e2" height="5.715" ry=".317" width="9.525" x="6.35" y="4.868"/><path d="m11.113 4.233h4.444c.176 0 .318.142.318.317v2.383a.317.317 0 0 1 -.318.317h-5.834c-.175 0-.406-.165-.317-.317l1.389-2.382c.089-.151.142-.317.318-.317z" fill="#5294e2"/><rect height=".317" opacity=".25" ry=".159" width="1.905" x="8.255" y="3.28"/><path d="m60 32.797-7.2012 7.2012h6.002c.6646 0 1.1992-.53657 1.1992-1.2012z" fill="url(#c)" opacity=".1" stroke-width="2.2678" transform="scale(.26458)"/></svg>