<svg xmlns:osb="http://www.openswatchbook.org/uri/2009/osb" xmlns="http://www.w3.org/2000/svg" xmlns:xlink="http://www.w3.org/1999/xlink" height="16" viewBox="0 0 16 16" width="16"><title>Template icons dark</title><defs><linearGradient id="f" osb:paint="solid"><stop offset="0"/></linearGradient><linearGradient id="c" osb:paint="solid"><stop offset="0" stop-opacity=".018"/></linearGradient><linearGradient id="e"><stop offset="0" stop-opacity=".128"/><stop offset="1" stop-opacity=".392"/></linearGradient><linearGradient id="a"><stop offset="0" stop-color="#fe44a3"/><stop offset="1" stop-color="#ff2594"/></linearGradient><linearGradient id="b" osb:paint="solid"><stop offset="0" stop-color="#43528d"/></linearGradient><linearGradient id="d"><stop offset="0" stop-opacity="0"/><stop offset=".25" stop-opacity=".091"/><stop offset="1" stop-opacity="0"/></linearGradient><linearGradient xlink:href="#f" id="k" gradientUnits="userSpaceOnUse" gradientTransform="matrix(.66667 0 0 .66667 -21.152 -8)" x1="-153.424" y1="-84" x2="-129.424" y2="-84"/><linearGradient id="j" osb:paint="solid"><stop offset="0" stop-color="#d71f7f"/></linearGradient><linearGradient id="g"><stop offset="0" stop-color="#404552" stop-opacity="0"/><stop offset="1" stop-color="#404552" stop-opacity=".839"/></linearGradient><linearGradient id="h"><stop offset="0" stop-color="#404552" stop-opacity=".036"/><stop offset="1" stop-color="#404552" stop-opacity=".979"/></linearGradient><linearGradient id="i"><stop offset="0" stop-color="#828282"/><stop offset=".253" stop-color="#fff"/><stop offset=".522" stop-color="#717171"/><stop offset=".785" stop-color="#717171"/><stop offset="1" stop-color="#4c4c4c"/></linearGradient></defs><g color="#000" fill="url(#k)" transform="translate(-40 72)"><path style="isolation:auto;mix-blend-mode:normal;marker:none" d="M48-70a6 6 0 0 0-2.568.584l2.533 1.967-5.65 1.547A6 6 0 0 0 42-64a6 6 0 0 0 6 6 6 6 0 0 0 6-6 6 6 0 0 0-6-6z" display="block" overflow="visible" opacity=".1" paint-order="fill markers stroke"/><path style="line-height:normal;-inkscape-font-specification:Sans;text-indent:0;text-align:start;text-decoration-line:none;text-transform:none;marker:none" d="M48-72c-1.822 0-3.492.62-4.836 1.648l-2.066-1.603-.084 4.998 4.824-1.318-1.86-1.8b9cbeA6.941 6.941 0 0 1 48-71a7 7 0 1 1-7 7h-1a8 8 0 1 0 8-8zm-1 4v5h5v-1h-4v-4z" font-weight="400" font-family="Sans" overflow="visible" opacity=".64" paint-order="fill markers stroke"/></g></svg>