<svg height="64" width="64" xmlns="http://www.w3.org/2000/svg" xmlns:xlink="http://www.w3.org/1999/xlink"><linearGradient id="a" gradientTransform="matrix(2.6726 -2.6726 2.6726 2.6726 .000004 -1058.5)" gradientUnits="userSpaceOnUse" x1="-197.1" x2="-196.91" y1="217.68" y2="219.37"><stop offset="0"/><stop offset="1" stop-opacity="0"/></linearGradient><g transform="matrix(3.7796 0 0 3.7796 0 -1058.5)"><path d="m3.44 282.45c-.294 0-.395.269-.53.53h-.793a.528.528 0 0 0 -.53.528v5.292c0 .293.237.53.53.53h12.7c.293 0 .529-.237.529-.53v-5.292a.528.528 0 0 0 -.53-.529h-7.142c-.155-.249-.236-.53-.53-.53z" fill="#5294e2"/><path d="m3.44 282.45c-.294 0-.395.269-.53.53h-.793a.528.528 0 0 0 -.53.528v5.292c0 .293.237.53.53.53h12.7c.293 0 .529-.237.529-.53v-5.292a.528.528 0 0 0 -.53-.529h-7.142c-.155-.249-.236-.53-.53-.53z" opacity=".18"/><rect fill="#fff" height="5.027" ry=".265" width="12.171" x="2.381" y="283.77"/><rect fill="#5294e2" height="9.525" ry=".529" width="15.875" x=".529" y="285.36"/><path d="m8.467 284.3h7.408c.293 0 .53.236.53.53v3.968c0 .293-.237.529-.53.529h-9.723c-.294 0-.677-.276-.53-.53l2.316-3.968c.147-.253.236-.529.529-.529z" fill="#5294e2"/><rect height=".529" opacity=".25" ry=".265" width="3.175" x="3.704" y="282.71"/></g><path d="m28.143 30-1.2857 1.2857h-1.2857c-2.5714 0-2.5714 2.5714-2.5714 2.5714v8.5714c0 2.5714 2.5714 2.5714 2.5714 2.5714h12.857c2.5714 0 2.5714-2.5714 2.5714-2.5714v-8.5714c0-2.5714-2.5714-2.5714-2.5714-2.5714h-1.2857l-1.2857-1.2857zm3.8571 3.8571c5.1452-.0023 5.1452 7.7119 0 7.7143-5.1405-.0023-5.1405-7.7166 0-7.7143z" fill="#fff"/><path d="m62 43.998-11.998 12h10c1.1077 0 1.998-.89037 1.998-1.998z" fill="url(#a)" opacity=".1" stroke-width="3.7796"/></svg>