<svg xmlns="http://www.w3.org/2000/svg" width="16" height="16" viewBox="0 0 4.233 4.233">
    <path d="M.794 294.883H2.91c.147 0 .265.118.265.265v.264a.264.264 0 0 1-.265.265H.794a.264.264 0 0 1-.265-.265v-.264c0-.147.118-.265.265-.265z" style="opacity:1;fill:#36404d;fill-opacity:1;stroke:none;stroke-width:.5291667;stroke-linecap:round;stroke-linejoin:round;stroke-miterlimit:4;stroke-dasharray:none;stroke-opacity:1;paint-order:fill markers stroke" transform="translate(.265 -294.09)"/>
    <path d="M.265 295.412H3.44c.146 0 .264.118.264.265v1.852a.264.264 0 0 1-.264.265H.265a.264.264 0 0 1-.265-.265v-1.852c0-.147.118-.265.265-.265z" style="opacity:1;fill:#36404d;fill-opacity:1;stroke:none;stroke-width:.5291667;stroke-linecap:round;stroke-linejoin:round;stroke-miterlimit:4;stroke-dasharray:none;stroke-opacity:1;paint-order:fill markers stroke" transform="translate(.265 -294.09)"/>
    <path d="M.265 295.677H3.44v1.852H.265Zm.529-.529H2.91v.264H.794Z" style="opacity:1;fill:#4b6477;fill-opacity:1;stroke:none;stroke-width:.5291667;stroke-linecap:round;stroke-linejoin:round;stroke-miterlimit:4;stroke-dasharray:none;stroke-opacity:1;paint-order:fill markers stroke" transform="translate(.265 -294.09)"/>
    <path d="M.794 296.735H2.91v.53H.794Zm-.529-.529H3.44v.265H.265Z" style="opacity:1;fill:#36404d;fill-opacity:1;stroke:none;stroke-width:.5291667;stroke-linecap:round;stroke-linejoin:round;stroke-miterlimit:4;stroke-dasharray:none;stroke-opacity:1;paint-order:fill markers stroke" transform="translate(.265 -294.09)"/>
    <path d="M1.058 297h1.588v1.058H1.058z" style="opacity:1;fill:#a1b5ca;fill-opacity:1;stroke:none;stroke-width:.5291667;stroke-linecap:round;stroke-linejoin:round;stroke-miterlimit:4;stroke-dasharray:none;stroke-opacity:1;paint-order:fill markers stroke" transform="translate(.265 -294.09)"/>
    <path d="M1.323 297H2.38v.794H1.323Z" style="opacity:1;fill:#f1f1f1;fill-opacity:1;stroke:none;stroke-width:.5291667;stroke-linecap:round;stroke-linejoin:round;stroke-miterlimit:4;stroke-dasharray:none;stroke-opacity:1;paint-order:fill markers stroke" transform="translate(.265 -294.09)"/>
    <path d="M1.058 295.412h1.588v-.793H1.058Z" style="opacity:1;fill:#a1b5ca;fill-opacity:1;stroke:none;stroke-width:.5291667;stroke-linecap:round;stroke-linejoin:round;stroke-miterlimit:4;stroke-dasharray:none;stroke-opacity:1;paint-order:fill markers stroke" transform="translate(.265 -294.09)"/>
    <path d="M1.323 295.412H2.38v-.529H1.323Z" style="opacity:1;fill:#f1f1f1;fill-opacity:1;stroke:none;stroke-width:.5291667;stroke-linecap:round;stroke-linejoin:round;stroke-miterlimit:4;stroke-dasharray:none;stroke-opacity:1;paint-order:fill markers stroke" transform="translate(.265 -294.09)"/>
</svg>
