<svg xmlns="http://www.w3.org/2000/svg" height="16" width="16"><circle style="fill:#ffc129" cx="8" r="8" cy="8"/><path d="M1 5v9h1V3z" style="fill:#f13c3c"/><path style="fill:#17191e" d="M4 6v1l3 1V7zm8 0L9 7v1l3-1zM5.5 8A1.5 1.5 0 0 0 4 9.5 1.5 1.5 0 0 0 5.5 11 1.5 1.5 0 0 0 7 9.5 1.5 1.5 0 0 0 5.5 8zm5 0A1.5 1.5 0 0 0 9 9.5a1.5 1.5 0 0 0 1.5 1.5A1.5 1.5 0 0 0 12 9.5 1.5 1.5 0 0 0 10.5 8z"/><path style="fill:#f13c3c" d="M2.723 2A8 8 0 0 0 .59 5h14.822a8 8 0 0 0-2.13-3z"/><circle style="fill:#c03630" cx="11.5" r="4.5" cy="11.5"/><path style="fill-rule:evenodd;fill:#f4f4f7" d="M11.5 9s-.354-.007-.724.178c-.369.184-.776.655-.776 1.322h1c0-.5.5-.5.5-.5s.5 0 .5.5a.82.82 0 0 1-.203.578c-.133.167-.347.334-.597.522s-.536.395-.778.697A1.924 1.924 0 0 0 10 13.5v.5h3v-1h-1.824c.015-.022.01-.056.027-.078.133-.167.347-.334.597-.522s.536-.395.778-.697c.242-.302.422-.717.422-1.203 0-.667-.407-1.138-.776-1.322C11.854 8.993 11.5 9 11.5 9z"/></svg>