<svg xmlns="http://www.w3.org/2000/svg" width="16" height="16" version="1"><path style="fill:#956b5f" d="M6.193 0C5.095 1.384 4.765 2.066 5.162 2.947c.359.799 1.287 1.206.82 3.053.766-.9 1.375-2.043.773-2.965-.612-.938-.947-1.507-.562-3.035zm3 0C8.095 1.384 7.765 2.066 8.162 2.947c.359.799 1.287 1.206.82 3.053.766-.9 1.375-2.043.773-2.965-.612-.938-.947-1.507-.562-3.035zm3 0c-1.098 1.384-1.428 2.066-1.031 2.947.359.799 1.287 1.206.82 3.053.766-.9 1.375-2.043.773-2.965-.612-.938-.947-1.507-.562-3.035z"/><path style="fill:#b2bfd9" d="M15 10c0 3-2 5-5 5H8c-3 0-4.76-1.566-4.959-4H2.5C1 11 1 9.5 1 9.5v-1C1 7 2.5 7 2.5 7H15zM2.5 8c-.5-.032-.516.531-.516.531v1c0 .469.516.469.516.469H3l-.01-1.984z"/></svg>