<svg xmlns="http://www.w3.org/2000/svg" width="16" height="16"><circle style="fill:#2fbd8c" cx="8" cy="8" r="8"/><path style="opacity:.3;fill:#f4f4f7;fill-rule:evenodd" d="M13.6 13.2 6.213 9.426l3.313-2.813z"/><path style="opacity:.3;fill-rule:evenodd" d="m2.4 2.8 7.123 3.833-3.339 2.774z"/><path style="fill:#f4f4f7;fill-rule:evenodd" d="M4.328 11.4c-.173-.806-.32-1.607-.328-2.36C4 6 5.596 5.227 7.38 5.033c2.238-.243 4.736.9 6.42 1.981.26.154.23.337.116.515-.716.966-1.773 2.239-2.679 2.754-2.07 1.169-3.728.447-5.716.8-.201.037-.992.258-1.193.317z"/><circle style="fill:#f7785b" cx="7" cy="8" r="2"/><circle style="fill:#17191e" cx="7" cy="8" r="1"/></svg>