<svg xmlns="http://www.w3.org/2000/svg" width="16" height="16" version="1"><circle fill="#61aac5" cx="8" cy="8" r="8"/><path fill="#f5c839" d="M5.538 4a1.539 1.539 0 0 0 0 3.077c.275 0 .527-.086.75-.212L7.5 8 6.29 9.135a1.522 1.522 0 0 0-.75-.212 1.539 1.539 0 1 0 1.538 1.538c0-.14-.022-.274-.057-.403l1.308-1.27 2.75 2.597H12v-.616L7.02 5.942c.035-.13.058-.263.058-.404 0-.85-.69-1.539-1.54-1.539zm0 .923a.615.615 0 1 1 0 1.23.615.615 0 0 1 0-1.23zm5.538-.308L8.653 6.904l.808.788L12 5.231v-.616zM5.538 9.846a.615.615 0 1 1 0 1.231.615.615 0 0 1 0-1.23z"/></svg>