<svg xmlns="http://www.w3.org/2000/svg" width="16" height="16"><path style="fill:#502e02" class="cls-1" d="M12 4.993a4 4.005 0 0 0-5.75-3.59 4.03 4.034 0 0 1 .46-.029 3.978 3.983 0 0 1 1.843.455A4 4.005 0 1 0 12 5.794c0-.135 0-.27-.022-.404-.022-.135.022-.263.022-.397z"/><circle style="fill:#d9af4f" class="cls-4" cx="8" cy="7" r="3"/><path style="fill:#385ca9" class="cls-9" d="M15 2.571v7.625c-1.7.671-4.563 2.476-5.47 3.804L8 10.687l2.21-3.458s.597-.664-.293-1.1A16.807 17.435 0 0 1 15 2.572zM1 2.571v7.625c1.7.671 4.563 2.476 5.47 3.804L8 10.687 5.79 7.23s-.597-.664.293-1.1A16.807 17.435 0 0 0 1 2.572z"/><path style="fill:#2a457e" class="cls-9" d="M8 7.762c-1.85 0-3-1.012-3-1.012l1.334 7.354s.25.896 1.601.896 1.6-.893 1.6-.893L11 6.75S9.85 7.762 8 7.762z"/><path style="fill:#b2bfd9" d="M3.313 2.047c-.626-.027-1.27.155-1.92.682 1.616.78 3.162 1.903 4.468 3.146A3 1.25 0 0 0 5 6.75 3 1.25 0 0 0 8 8a3 1.25 0 0 0 3-1.25 3 1.25 0 0 0-.86-.875c1.292-1.224 2.82-2.331 4.413-3.105-.625-.513-1.247-.725-1.85-.723-1.641.004-3.152 1.64-4.283 3.467A3 1.25 0 0 0 8 5.5a3 1.25 0 0 0-.494.018C6.398 3.725 4.92 2.116 3.312 2.047z"/><path style="fill:#d9af4f" class="cls-14" d="M0 6.481C0 8.425.596 9 .993 9c.993 0 1.592-1.532-.199-1.641 1.576-.168 1.64-1.625 0-1.68C2.434 5.524 2.12 4 .994 4 .535 3.992 0 4.537 0 6.481zM16 6.481C16 8.425 15.404 9 15.007 9c-.993 0-1.592-1.532.199-1.641-1.576-.168-1.64-1.625 0-1.68C13.566 5.524 13.88 4 15.006 4c.458-.008.994.537.994 2.481z"/></svg>