<svg xmlns="http://www.w3.org/2000/svg" width="16" height="16" version="1"><path style="fill:#b2bfd9" d="M8 7c-4.432 0-8 2.007-8 4.5S3.568 16 8 16s8-2.007 8-4.5S12.432 7 8 7z"/><path style="opacity:.1" d="M8 8.5c-2.77 0-5 1.226-5 2.75S5.23 14 8 14s5-1.226 5-2.75S10.77 8.5 8 8.5z"/><path style="fill:#1b7b34" d="M10.442.002c-.176-.01-.788.029-.788.029S9 .09 9 .784v9.512l1.99 1.204V3.595c.86-.036 2.574.717 2.038 3.597 2.716-4.228-1.43-4.383-1.941-6.674-.064-.306-.278-.4-.49-.487a.49.49 0 0 0-.155-.03z"/><ellipse style="fill:#529c0a" cx="8" cy="11.5" rx="3" ry="1.5"/></svg>