<svg xmlns="http://www.w3.org/2000/svg" width="16" height="16" version="1"><path style="fill:#3c79ff" d="M15 15.2V.8c0-.443-.362-.8-.813-.8H2.813A.805.805 0 0 0 2 .8v14.4c0 .443.362.8.813.8h11.374c.45 0 .813-.357.813-.8z"/><path style="fill:#f4f4f7" d="M8.52 3.991a3.52 3.52 0 0 1 3.52 3.52 3.52 3.52 0 0 1-.609 1.978l2.175 2.175a.66.66 0 1 1-.933.933l-2.178-2.177a3.52 3.52 0 0 1-1.975.61A3.52 3.52 0 0 1 5 7.51a3.52 3.52 0 0 1 3.52-3.519zm0 1.32a2.2 2.2 0 0 0-2.2 2.2 2.2 2.2 0 0 0 2.2 2.2 2.2 2.2 0 0 0 2.2-2.2 2.2 2.2 0 0 0-2.2-2.2z"/></svg>