<svg xmlns="http://www.w3.org/2000/svg" width="16" height="16"><path style="fill:#4f4f4f" d="M1 0h7.033l6.05.664c.55.06.81.739.905 1.285L16 7.746v1.423l-.57 5.04c-.061.55.153 1.039-.398 1.095L8.222 16H1c-.554 0-1-.446-1-1V1c0-.554.446-1 1-1z"/><path style="fill:#edd20c" d="M1 1v14h4s2 0 2-2V3c0-2-2-2-2-2H1zm2 3h2v8H3V4z"/><path style="fill:#b2bfd9" d="M8 0v16h7c.554 0 1-.446 1-1V1c0-.554-.446-1-1-1H8zm2 1h4l1 14h-2l-.2-2h-1.6l-.2 2H9l1-14zm2 4-.6 6h1.2L12 5z"/><path style="fill:#4f4f4f" d="M0 8h16v1H0z"/></svg>