<svg xmlns="http://www.w3.org/2000/svg" width="16" height="16" version="1"><circle style="fill:#ff9800" cx="8" cy="8" r="8"/><path style="fill:#f4f4f7" d="M8.033 3a1.001 1.007 0 1 0-.01 2.014 3 3 0 0 1 2.989 2.98 1.001 1.007 0 0 0 0 .006H9.514l1.25 1.5 1.25 1.5 1.25-1.5 1.25-1.5h-1.5a1.001 1.007 0 0 0 0-.035c-.038-2.732-2.265-4.95-4.98-4.965zM4 5 2.75 6.5 1.5 8H3a1.001 1.007 0 0 0 0 .035c.038 2.732 2.265 4.95 4.98 4.965a1.001 1.007 0 1 0 .01-2.014 3 3 0 0 1-2.988-2.98 1.001 1.007 0 0 0 0-.006H6.5L5.25 6.5 4 5z"/></svg>