<svg xmlns="http://www.w3.org/2000/svg" width="22" height="22" version="1"><path style="opacity:.2" d="M6.315 1.811a2.387 2.409 10.872 0 0-.925.91L1.322 9.813a2.387 2.409 10.872 0 0-.004 2.408L5.362 19.3a2.387 2.409 10.872 0 0 2.066 1.2l8.113-.014a2.387 2.409 10.872 0 0 2.07-1.207l4.067-7.092a2.387 2.409 10.872 0 0 .004-2.408l-4.044-7.078A2.387 2.409 10.872 0 0 15.572 1.5l-8.113.014a2.387 2.409 10.872 0 0-1.144.297z"/><path style="fill:#ff4141" d="M6.315 1.311a2.387 2.409 10.872 0 0-.925.91L1.322 9.313a2.387 2.409 10.872 0 0-.004 2.408L5.362 18.8A2.387 2.409 10.872 0 0 7.428 20l8.113-.014a2.387 2.409 10.872 0 0 2.07-1.207l4.067-7.092a2.387 2.409 10.872 0 0 .004-2.408l-4.044-7.078A2.387 2.409 10.872 0 0 15.572 1l-8.113.014a2.387 2.409 10.872 0 0-1.144.297z"/><path style="opacity:.2" d="M6.679 1.15a2.387 2.409 10.872 0 0-.365.162 2.387 2.409 10.872 0 0-.924.91L1.322 9.313a2.387 2.409 10.872 0 0-.004 2.408L5.362 18.8A2.387 2.409 10.872 0 0 7.428 20l8.112-.014a2.387 2.409 10.872 0 0 1.635-.657L6.679 1.15z"/><path style="opacity:.2" d="M16.478 1.183 6 19.329l-.082.126a2.387 2.409 10.872 0 0 1.51.545l8.112-.014a2.387 2.409 10.872 0 0 2.07-1.207l4.068-7.092a2.387 2.409 10.872 0 0 .004-2.408L17.638 2.2a2.387 2.409 10.872 0 0-1.16-1.017z"/><path style="opacity:.2" d="M1.05 11a2.387 2.409 10.872 0 0 .268.72L5.363 18.8a2.387 2.409 10.872 0 0 .01.015c.1.172.22.329.356.467a2.387 2.409 10.872 0 0 .03.032c.14.136.293.257.46.355a2.387 2.409 10.872 0 0 .04.023c.166.094.342.168.526.22a2.387 2.409 10.872 0 0 .033.009c.197.052.401.08.61.08l8.113-.014c.203 0 .402-.03.594-.08a2.387 2.409 10.872 0 0 .053-.013c.186-.054.365-.129.533-.225a2.387 2.409 10.872 0 0 .031-.02 2.4 2.4 0 0 0 .455-.35 2.387 2.409 10.872 0 0 .03-.026c.139-.142.262-.304.365-.48a2.387 2.409 10.872 0 0 .007-.013l4.069-7.091A2.387 2.409 10.872 0 0 21.94 11H1.051z"/><path style="opacity:.2" d="M11.5 6.5C7.281 6.5 4 10 4 11.082 4 12.5 7.281 15.5 11.5 15.5c4.219 0 7.5-3.5 7.5-4.418C19 10 15.719 6.5 11.5 6.5z"/><path style="fill:#f4f4f7" d="M11.5 6C7.281 6 4 9.5 4 10.582 4 12 7.281 15 11.5 15c4.219 0 7.5-3.5 7.5-4.418C19 9.5 15.719 6 11.5 6z"/><circle style="fill:#1b87e6" cx="11.5" cy="10.5" r="3.5"/><circle style="fill:#17191e" cx="11.5" cy="10.5" r="1.5"/><path style="opacity:.2;fill:#f4f4f7" d="m15.572 1-8.113.014a2.387 2.409 10.872 0 0-1.145.297 2.387 2.409 10.872 0 0-.923.91L1.322 9.312a2.387 2.409 10.872 0 0-.306 1.461 2.387 2.409 10.872 0 1 .306-.96L5.391 2.72a2.387 2.409 10.872 0 1 .923-.91 2.387 2.409 10.872 0 1 1.145-.297l8.113-.014a2.387 2.409 10.872 0 1 2.065 1.201l4.045 7.078a2.387 2.409 10.872 0 1 .302.948 2.387 2.409 10.872 0 0-.302-1.448l-4.045-7.078A2.387 2.409 10.872 0 0 15.572 1z"/></svg>