<svg xmlns="http://www.w3.org/2000/svg" width="22" height="22"><g transform="translate(-1 -1)"><rect style="opacity:.2" width="18" height="20" x="3" y="2.5" rx="1" ry="1"/><rect style="fill:#c2352a" width="18" height="20" x="3" y="2" rx="1" ry="1"/><path style="opacity:.2" d="M4 2c-.554 0-1 .446-1 1v18c0 .554.446 1 1 1h2V2z"/><path style="opacity:.2;fill:#f4f4f7" d="M4 2c-.554 0-1 .446-1 1v.5c0-.554.446-1 1-1h16c.554 0 1 .446 1 1V3c0-.554-.446-1-1-1z"/><rect style="opacity:.2" width="9" height="2" x="13" y="11.5" rx=".5" ry=".5"/><path style="opacity:.2" d="M13 10.5c-2 0-2 2-2 2v2h-.5c-.5 0-.5.5-.5.5v3c0 .5.5.5.5.5h5c.5 0 .5-.5.5-.5v-3c0-.5-.5-.5-.5-.5H15v-2s0-2-2-2zm0 1c1 0 1 1 1 1v2h-2v-2s0-1 1-1z"/><path style="fill:#fec006" d="M13 10c-2 0-2 2-2 2v2h-.5c-.5 0-.5.5-.5.5v3c0 .5.5.5.5.5h5c.5 0 .5-.5.5-.5v-3c0-.5-.5-.5-.5-.5H15v-2s0-2-2-2zm0 1c1 0 1 1 1 1v2h-2v-2s0-1 1-1z"/><rect style="fill:#d8d8d8" width="9" height="2" x="13" y="11" rx=".5" ry=".5"/></g></svg>