<svg xmlns="http://www.w3.org/2000/svg" width="22" height="22" version="1"><path fill="#2aa2ee" d="M9.11 20.99c-2.26-.229-3.834-.87-4.997-2.035a5.366 5.366 0 0 1-1.054-1.43c-.562-1.114-.738-2.367-.463-3.293.273-.922.895-1.938 1.77-2.893C5.199 10.545 6 10 6.02 9.001c-.022-.47-.4-1.068-.66-1.282-.247-.202-.491-.243-1.253-.207-.744.035-1.109-.01-1.464-.18-.276-.132-.373-.281-.288-.44A6.946 6.946 0 0 1 4 6c-.864-.58-1.73-1.292-2-2.134 0-.19.02-.251.11-.335.098-.093.139-.1.39-.078.154.014.433.086.619.16.453.18 1.021.255 1.48.193.19-.026.392-.076.447-.112.055-.036.205-.25.333-.475.501-.878 1.031-1.444 1.625-1.736.685-.337 1.653-.517 2.572-.478 1.105.046 2.044.425 2.81 1.135.527.487.876.61 1.377.481.353-.09.36-.09.36.02 0 .144-.115.331-.293.474l-.164.131.165.097c.228.135.2.243-.07.281-.226.032-.395.107-.395.174 0 .023.032.228.072.454.097.556.062 1.632-.07 2.163-.204.824-.514 1.404-1.044 1.954-.323.34-1.268 1.082-1.323 1.131.051 0 .121.014.42.04 1.092.096 1.868.31 2.965.817 1.036.479 1.476.53 2.05.24.365-.185.76-.3 1.152-.823.334-.447.602-.774.913-.774.304 0 .561.073.792.422.326.495.526.83.653 1.691.09.616.065 2.06-.047 2.674-.67 3.666-3.03 6.135-6.63 6.938-.972.217-1.364.256-2.71.27a32.79 32.79 0 0 1-1.449-.005z"/><path opacity=".2" d="M14.076 3.057c-.035-.002-.133.022-.238.048-.004.003-.005.007-.008.01l-.164.131.164.098a.332.332 0 0 1 .135.123c.091-.111.158-.228.158-.326 0-.055 0-.082-.047-.084zm-.236.548c-.026.007-.045.015-.078.02-.226.032-.397.107-.397.174 0 .023.033.22.07.437a.746.746 0 0 1 .327-.111c.27-.039.296-.147.068-.281l-.164-.098.164-.13.01-.01zm-11.756.463c-.06.07-.084.135-.084.297.225.702.867 1.308 1.574 1.828.145-.066.302-.149.426-.193-.794-.533-1.583-1.178-1.916-1.932zm11.402 1.3c-.014.396-.053.788-.118 1.048-.204.824-.515 1.402-1.044 1.953C12 8.709 11.054 9.451 11 9.5c.05 0 .121.015.42.041.044.004.081.011.124.016.29-.239.613-.513.78-.688.53-.55.84-1.13 1.045-1.953.092-.372.132-1.008.117-1.549zM2.555 7.265c-.063.043-.145.084-.2.127-.085.158.012.307.288.439.355.17.72.215 1.464.18.762-.036 1.006.004 1.252.207.227.187.53.666.621 1.097.02-.1.037-.204.04-.314-.023-.47-.4-1.067-.66-1.281-.247-.203-.49-.243-1.253-.207-.743.035-1.11-.012-1.464-.182-.044-.02-.054-.045-.088-.066zm17.429 5.359c-.014.445-.037.895-.086 1.162-.67 3.667-3.03 6.136-6.631 6.94-.972.217-1.362.255-2.71.27-.698.006-1.35.003-1.448-.007-2.26-.229-3.833-.87-4.996-2.035-.47-.47-.79-.903-1.055-1.43a5.346 5.346 0 0 1-.566-2.16c-.069.823.124 1.782.566 2.66.266.527.585.96 1.055 1.43 1.163 1.165 2.737 1.806 4.996 2.035.098.01.75.013 1.45.006 1.346-.014 1.736-.054 2.708-.271 3.601-.804 5.96-3.271 6.631-6.938.07-.381.09-1.037.086-1.662z"/><path fill="#fff" opacity=".2" d="M9.576 1.004c-.919-.039-1.888.142-2.572.478-.594.292-1.124.86-1.625 1.737-.129.225-.279.438-.334.474-.055.036-.256.088-.447.114a3.125 3.125 0 0 1-1.479-.194 2.718 2.718 0 0 0-.619-.16c-.25-.023-.292-.014-.39.078-.09.084-.11.145-.11.334.022.069.054.136.084.203.01-.011.012-.024.025-.037.099-.092.14-.1.391-.078.154.014.433.086.62.16.453.18 1.02.255 1.478.194.19-.026.392-.078.447-.114.055-.036.205-.25.334-.474.5-.878 1.03-1.445 1.625-1.737.684-.336 1.653-.515 2.572-.476 1.105.046 2.044.425 2.811 1.135.527.487.876.608 1.377.48.042-.01.041-.007.074-.016.172-.141.285-.323.285-.464 0-.11-.007-.11-.359-.02-.501.128-.85.005-1.377-.482-.767-.71-1.706-1.089-2.81-1.135zm4.389 2.463c-.039.047-.073.095-.123.137.112-.03.154-.077.123-.137zm-.529.771c-.029.02-.071.04-.071.06 0 .024.033.227.073.454.029.166.042.384.048.615.015-.413.001-.832-.048-1.115l-.002-.014zM3.574 6.193c-.425.195-.887.443-1.219.7-.071.133.015.257.2.373C2.995 6.96 3.574 6.653 4 6.5c-.144-.097-.284-.203-.426-.307zM18.5 9c-.31 0-.579.326-.914.773-.39.524-.787.64-1.152.825-.574.29-1.013.238-2.049-.241-1.052-.486-1.815-.7-2.838-.802-.276.227-.52.421-.547.445.051 0 .122.015.42.041 1.092.096 1.868.309 2.965.816 1.036.479 1.475.531 2.05.241.364-.185.76-.299 1.151-.823.335-.447.603-.775.914-.775.305 0 .56.073.791.422.326.494.528.83.654 1.691.035.233.037.632.04 1.012.017-.578.011-1.164-.04-1.512-.126-.861-.328-1.197-.654-1.691-.23-.35-.486-.422-.79-.422zm-12.52.316c-.164.806-.875 1.318-1.615 2.024-.875.955-1.496 1.971-1.77 2.892-.1.34-.12.729-.103 1.133.018-.22.045-.437.103-.633.274-.921.895-1.937 1.77-2.892.833-.794 1.635-1.34 1.654-2.338-.003-.06-.026-.124-.039-.186z"/></svg>