<svg xmlns="http://www.w3.org/2000/svg" width="22" height="22" version="1"><rect fill="#17191e" width="20" height="20" x="1" y="1" rx="1" ry="1"/><path fill="#fff" opacity=".1" d="M2 1c-.554 0-1 .446-1 1v.5c0-.554.446-1 1-1h18c.554 0 1 .446 1 1V2c0-.554-.446-1-1-1H2z"/><path opacity=".2" d="M2 21.5c-.554 0-1-.446-1-1V20c0 .554.446 1 1 1h18c.554 0 1-.446 1-1v.5c0 .554-.446 1-1 1H2z"/><rect opacity=".2" width="4" height="4" x="3" y="15.5" rx=".927" ry=".87"/><rect opacity=".2" width="4" height="4" x="3" y="9.5" rx=".927" ry=".87"/><rect opacity=".2" width="4" height="4" x="9" y="15.5" rx=".927" ry=".87"/><rect opacity=".2" width="4" height="4" x="9" y="9.5" rx=".927" ry=".87"/><g fill="#f44336"><rect width="4" height="4" x="3" y="15" rx=".927" ry=".87"/><rect width="4" height="4" x="3" y="9" rx=".927" ry=".87"/><rect width="4" height="4" x="9" y="15" rx=".927" ry=".87"/><rect width="4" height="4" x="9" y="9" rx=".927" ry=".87"/></g></svg>