<svg xmlns="http://www.w3.org/2000/svg" width="22" height="22" version="1"><path style="opacity:.2" d="M11 1.5c-5.54 0-10 4.46-10 10s4.46 10 10 10 10-4.46 10-10-4.46-10-10-10z"/><path style="fill:#f4f4f7" d="M11 1C5.46 1 1 5.46 1 11s4.46 10 10 10 10-4.46 10-10S16.54 1 11 1z"/><path style="opacity:.2;fill:#f4f4f7" d="M11 1C5.46 1 1 5.46 1 11v.25A9.98 9.98 0 0 1 11 1.5a9.98 9.98 0 0 1 10 9.75V11c0-5.54-4.46-10-10-10z"/><path style="opacity:.1" d="m7.646 6-.678.392-.216.125-.75.432L6 6.951l.003.002V16L7.503 17 9 16v-5.915L11 11.549l1.999-1.464V16l1.499 1 1.5-1V6.953L16 6.951l-.003-.002-.749-.432-.216-.125L14.354 6l-.6.347L11 8.122 8.246 6.347z"/><path style="fill:#8b8b8b" d="m7.646 5.5-.678.392-.216.125-.75.432L6 6.451l.003.002V15.5l1.5 1.001L9 15.5V9.585L11 11.049l1.999-1.464V15.5l1.499 1 1.5-1V6.453L16 6.451l-.003-.002-.749-.432-.216-.125-.678-.392-.6.347L11 7.622 8.246 5.847z"/><path style="opacity:.2" d="m7.646 5.5-.678.392-.216.125-.75.432L6 6.451l.003.002V15.5l1.5 1.001L9 15.5V9.585L11 11.049V7.622L8.246 5.847z"/></svg>