<svg xmlns="http://www.w3.org/2000/svg" width="22" height="22" version="1"><path fill="#c2352a" d="m10.5 2-4.75 9.5L1 21h3v-3h1v3h1v-4h1v4h1v-5h1v5h1v-4h1v4h1v-3h1v3h1v-2h1v2h1v-1h1v1h3l-4.75-9.5L10.5 2z"/><path fill="#fff" opacity=".2" d="m10.5 2-4.75 9.5L1 21h.25l4.5-9 4.75-9.5 4.75 9.5 4.5 9H20l-4.75-9.5L10.5 2z"/><path opacity=".2" d="M8 16v.5h1V16H8zm-2 1v.5h1V17H6zm4 0v.5h1V17h-1zm-6 1v.5h1V18H4zm8 0v.5h1V18h-1zm2 1v.5h1V19h-1zm2 1v.5h1V20h-1zM1.25 21l-.25.5h3V21H1.25zM5 21v.5h1V21H5zm2 0v.5h1V21H7zm2 0v.5h1V21H9zm2 0v.5h1V21h-1zm2 0v.5h1V21h-1zm2 0v.5h1V21h-1zm2 0v.5h3l-.25-.5H17z"/></svg>