<svg xmlns="http://www.w3.org/2000/svg" width="22" height="22"><rect style="opacity:.2" width="16" height="20" x="2" y=".5" rx="1" ry="1"/><rect style="fill:#3d65c2" width="16" height="20" x="2" rx="1" ry="1"/><path style="opacity:.2" d="M3 0h2v20H3c-.554 0-1-.446-1-1V1c0-.554.446-1 1-1zM10 3.5v3H7v3h3v8h3v-8h3v-3h-3v-3z"/><path style="fill:#ffd972" d="M10 3v3H7v3h3v8h3V9h3V6h-3V3z"/><circle style="fill:#ff982d" cx="16.5" cy="16.5" r="5.5"/><path style="fill:#f4f4f7" d="M16.5 13a3.5 3.5 0 1 0 0 7 3.5 3.5 0 0 0 0-7zm0 1a2.5 2.5 0 1 1 0 5 2.5 2.5 0 0 1 0-5zm-.5.5V17h2.5v-1H17v-1.5z"/><path style="opacity:.1;fill:#f4f4f7" d="M3 0c-.554 0-1 .446-1 1v.5c0-.554.446-1 1-1h14c.554 0 1 .446 1 1V1c0-.554-.446-1-1-1z"/></svg>