<svg xmlns="http://www.w3.org/2000/svg" height="22" width="22"><circle style="opacity:.2" cx="11" r="10" cy="11.5"/><circle style="fill:#ffc129" cx="11" r="10" cy="11"/><path style="opacity:.2;fill:#f4f4f7" d="M11 1A10 10 0 0 0 1 11a10 10 0 0 0 .01.293A10 10 0 0 1 11 1.5a10 10 0 0 1 9.99 9.707A10 10 0 0 0 21 11 10 10 0 0 0 11 1z"/><path style="opacity:.2" d="M3.908 4.5a10 10 0 0 0-2.408 4h.537v12h2v-12h16.527a10 10 0 0 0-2.388-4z"/><path style="fill:#f13c3c" d="M3.871 4a10 10 0 0 0-2.408 4H2v12h2V8h16.527a10 10 0 0 0-2.388-4z"/><path style="opacity:.2;fill:#f4f4f7" d="M3.871 4a10 10 0 0 0-2.408 4h.215a10 10 0 0 1 2.23-3.5h14.268A10 10 0 0 1 20.38 8h.146a10 10 0 0 0-2.388-4zM2 8.5V20h.037V8.5z"/><path style="opacity:.1" d="M6 9.5v1l4 1v-1zm10 0-4 1v1l4-1zm-8 2a2 2 0 0 0-2 2 2 2 0 0 0 2 2 2 2 0 0 0 2-2 2 2 0 0 0-2-2zm6 0a2 2 0 0 0-2 2 2 2 0 0 0 2 2 2 2 0 0 0 2-2 2 2 0 0 0-2-2z"/><path style="fill:#17191e" d="M6 9v1l4 1v-1zm10 0-4 1v1l4-1zm-8 2a2 2 0 0 0-2 2 2 2 0 0 0 2 2 2 2 0 0 0 2-2 2 2 0 0 0-2-2zm6 0a2 2 0 0 0-2 2 2 2 0 0 0 2 2 2 2 0 0 0 2-2 2 2 0 0 0-2-2z"/><circle style="fill:#c03630" cx="16.5" r="5.5" cy="16.5"/><path style="fill-rule:evenodd;fill:#f4f4f7" d="M16.5 14s-.354-.007-.724.178c-.369.184-.776.655-.776 1.322h1c0-.5.5-.5.5-.5s.5 0 .5.5a.82.82 0 0 1-.203.578c-.133.167-.347.334-.597.522s-.536.395-.778.697A1.924 1.924 0 0 0 15 18.5v.5h3v-1h-1.824c.015-.022.01-.056.027-.078.133-.167.347-.334.597-.522s.536-.395.778-.697c.242-.302.422-.717.422-1.203 0-.667-.407-1.138-.776-1.322-.37-.185-.724-.178-.724-.178z"/></svg>