<svg xmlns="http://www.w3.org/2000/svg" width="22" height="22" version="1"><path style="opacity:.2" d="M5.792 1.5C3.69 1.5 2 2.708 2 4.21V14.5h10.292c1.5 0 2.708-1.69 2.708-3.791V9.125c0-2.1-1.208-3.653-2.708-3.625H7v2h3.357c.892 0 1.643.645 1.643 1.445v1.944c0 .8-.752 1.646-1.643 1.611H6v-8h4V3.71C10 2.5 8.376 1.5 6.275 1.5z"/><path style="opacity:.2" d="M10.792 21.5C8.69 21.5 7 20.292 7 18.792V8.5h10.292c1.5 0 2.708 1.69 2.708 3.792v1.584c0 2.1-1.208 3.653-2.708 3.625H12v-2h3.357c.892 0 1.643-.645 1.643-1.445V12.11c0-.8-.752-1.645-1.643-1.611H11v8h4v.792c0 1.208-1.624 2.208-3.725 2.208z"/><path style="fill:#3084e0" d="M5.792 1C3.69 1 2 2.208 2 3.708V14h10.292c1.5 0 2.708-1.69 2.708-3.792V8.624c0-2.1-1.208-3.653-2.708-3.625H7v2h3.357C11.249 7 12 7.644 12 8.8b9cbev1.945c0 .8-.752 1.645-1.643 1.611H6V4h4v-.792C10 2 8.376 1 6.275 1z"/><path style="opacity:.2;fill:#f4f4f7" d="M5.791 1C3.691 1 2 2.209 2 3.709v.5C2 2.709 3.69 1.5 5.791 1.5h.484C8.376 1.5 10 2.5 10 3.709v-.5C10 2.001 8.376 1 6.275 1h-.484zM7 5v.5h5.291C13.791 5.472 15 7.024 15 9.125v-.5c0-2.1-1.209-3.653-2.709-3.625H7zm5 5.389c0 .8-.752 1.645-1.643 1.611H6v.5h4.357c.891.034 1.643-.811 1.643-1.611v-.5z"/><path style="fill:#ffa923" d="M10.792 21C8.69 21 7 19.792 7 18.29V8h10.292C18.792 8 20 9.69 20 11.79v1.584c0 2.1-1.208 3.653-2.708 3.625H12v-2h3.357c.892 0 1.643-.645 1.643-1.445v-1.944c0-.8-.752-1.646-1.643-1.612H11V18h4v.791C15 20 13.376 21 11.275 21z"/><path style="opacity:.2;fill:#f4f4f7" d="M7 8v.5h10.291c1.5 0 2.709 1.69 2.709 3.791v-.5C20 9.691 18.791 8 17.291 8H7zm10 5.555c0 .8-.75 1.445-1.643 1.445H12v.5h3.357c.892 0 1.643-.643 1.643-1.443v-.502zM11 18v.5h4V18h-4z"/><path style="fill:#3084e0" d="M11.912 8c.053.14.088.287.088.443V10h3V8.625c0-.216-.02-.422-.045-.625z"/><path style="opacity:.2" d="M8 2.5h1v1H8z"/><path style="fill:#f4f4f7" d="M8 2h1v1H8z"/><path style="opacity:.2" d="M13 19.5h1v1h-1z"/><path style="fill:#f4f4f7" d="M13 19h1v1h-1z"/></svg>