<svg xmlns="http://www.w3.org/2000/svg" width="22" height="22" version="1"><path style="opacity:.2" d="M14.977 1.5s-1.797.006-3.088 1.508c-1.149 1.335-.856 2.478-.856 2.478s1.558.237 2.928-1.215c1.283-1.36 1.016-2.771 1.016-2.771zm-.122 5c-1.633 0-2.886.918-3.562.918-.788 0-1.964-.863-3.479-.863C5.484 6.555 3 8.615 3 12.543 3 16.535 5.935 21.5 8.258 21.5c.81 0 2.056-1 3.31-1 1.232 0 2.14.97 3.309.97 2.544 0 4.428-5.234 4.428-5.234s-2.805-1.03-2.805-4.02c0-2.649 2.273-3.741 2.273-3.741S17.667 6.5 14.855 6.5z"/><path style="fill:#999" d="M11.89 2.509C13.18 1.007 14.976 1 14.976 1s.267 1.412-1.016 2.771c-1.37 1.452-2.928 1.215-2.928 1.215s-.292-1.142.856-2.477zM11.292 6.918c.676 0 1.93-.918 3.564-.918 2.811 0 3.917 1.975 3.917 1.975S16.5 9.067 16.5 11.717c0 2.989 2.805 4.02 2.805 4.02s-1.884 5.234-4.428 5.234c-1.169 0-2.077-.971-3.308-.971-1.255 0-2.5 1-3.31 1C5.934 21 3 16.034 3 12.042c0-3.927 2.484-5.987 4.814-5.987 1.515 0 2.69.863 3.478.863z"/><path style="opacity:.1" d="M11 8.5v1h-1v1h1v1h-.436c-.277 0-.623.252-.5.5l.5 1c.08.158.153.311.264.406 0 .032-.008.062-.01.094H10v.5h.768a6.209 6.209 0 0 1-1.098 2.86c-.06.093-.122.204-.139.244-.03.072-.044.352-.017.384.007.01.904.014 1.986.01 1.082.004 1.977 0 1.984-.01.027-.032.016-.312-.015-.384a2.691 2.691 0 0 0-.14-.245A6.206 6.206 0 0 1 12.231 14H13v-.5h-.818l-.002-.027c.188-.063.28-.265.384-.473l.5-1c.124-.248-.223-.5-.5-.5H12v-1h1v-1h-1v-1zm-1.584 9c-.23 0-.416.15-.416.334v.332c0 .185.185.334.416.334h4.168c.23 0 .416-.15.416-.334v-.332c0-.185-.185-.334-.416-.334z"/><path style="fill:#17191e" d="M10.828 12.9a6.189 6.189 0 0 1-1.157 3.46c-.06.094-.123.203-.14.243-.03.073-.043.353-.016.385.007.01.903.014 1.985.01 1.082.004 1.978 0 1.985-.01.027-.032.015-.312-.016-.385-.017-.04-.08-.149-.14-.243a6.189 6.189 0 0 1-1.157-3.46H11.5z"/><rect style="fill:#17191e" width="5" height="1" x="9" y="17" rx=".417" ry=".333"/><path style="fill:#17191e" d="M10.564 11h2c.277 0 .624.252.5.5l-.5 1c-.124.248-.223.5-.5.5h-1c-.277 0-.376-.252-.5-.5l-.5-1c-.124-.248.223-.5.5-.5zM11 8h1v3h-1z"/><path style="fill:#17191e" transform="rotate(90)" d="M9-13h1v3H9z"/><path style="fill:#17191e" d="M10 13h3v.5h-3z"/><path style="opacity:.1;fill:#f4f4f7" d="M14.977 1s-1.797.006-3.088 1.508c-1.036 1.204-.904 2.206-.868 2.4.038-.46.208-1.133.868-1.9C13.18 1.506 14.977 1.5 14.977 1.5v.01c.014-.292 0-.51 0-.51zm-.122 5c-1.633 0-2.886.918-3.562.918-.788 0-1.964-.863-3.479-.863C5.484 6.055 3 8.115 3 12.043c0 .08.007.162.01.242.108-3.756 2.527-5.73 4.804-5.73 1.515 0 2.691.863 3.479.863.676 0 1.93-.918 3.562-.918 2.064 0 3.203 1.06 3.666 1.625l.252-.15S17.667 6 14.855 6zm1.659 5.955c-.005.087-.014.171-.014.262 0 2.696 2.186 3.75 2.633 3.94.06-.151.172-.42.172-.42s-2.644-.98-2.791-3.782z"/></svg>