<svg xmlns="http://www.w3.org/2000/svg" width="22" height="22" version="1"><path fill="#3e50b4" d="M2.821 1A1.77 1.57 0 0 0 1 2.57v16.86a1.77 1.57 0 0 0 2.654 1.36l8.23-4.217 8.23-4.214a1.77 1.57 0 0 0 0-2.719l-8.23-4.213-8.23-4.216A1.77 1.57 0 0 0 2.821 1z"/><path opacity=".2" d="M10.271 7.5a.708.628 0 0 1 .729.628v6.744a.708.628 0 0 1-1.062.544L6.646 13.73l-3.292-1.685a.708.628 0 0 1 0-1.087L6.646 9.27l3.292-1.686a.708.628 0 0 1 .333-.084z"/><path fill="#fff" d="M10.271 7a.708.628 0 0 1 .729.628v6.744a.708.628 0 0 1-1.062.544L6.646 13.23l-3.292-1.685a.708.628 0 0 1 0-1.087L6.646 8.77l3.292-1.686A.708.628 0 0 1 10.271 7z"/><path fill="#fff" opacity=".2" d="M2.821 1.001A1.77 1.57 0 0 0 1 2.569v.5A1.77 1.57 0 0 1 2.821 1.5a1.77 1.57 0 0 1 .833.209l8.23 4.216 8.231 4.215a1.77 1.57 0 0 1 .862 1.107 1.77 1.57 0 0 0-.862-1.607l-8.23-4.216-8.23-4.215A1.77 1.57 0 0 0 2.822 1z"/><path opacity=".2" d="M20.977 11.248a1.77 1.57 0 0 1-.861 1.111l-8.232 4.214-8.23 4.216A1.77 1.57 0 0 1 1 19.431v.5a1.77 1.57 0 0 0 2.654 1.358l8.23-4.215 8.231-4.214a1.77 1.57 0 0 0 .861-1.612z"/></svg>