<svg xmlns="http://www.w3.org/2000/svg" width="22" height="22"><path style="opacity:.2" d="m4.033 1041.863-2.767 2.765a.91.91 0 0 0-.266.643v5.682a.91.91 0 0 0 .91.91h5.68a.908.908 0 0 0 .644-.266L11 1048.83l6.967-6.967 2.767-2.766a.91.91 0 0 0 .266-.644v-5.682a.91.91 0 0 0-.91-.909h-5.68a.91.91 0 0 0-.644.266L11 1034.895z" transform="translate(0 -1030.362)"/><path style="fill:#005aeb" d="m4.033 1041.363-2.767 2.765a.91.91 0 0 0-.266.643v5.682a.91.91 0 0 0 .91.91h5.68a.908.908 0 0 0 .644-.266L11 1048.33l6.967-6.967 2.767-2.766a.91.91 0 0 0 .266-.644v-5.682a.91.91 0 0 0-.91-.909h-5.68a.91.91 0 0 0-.644.266L11 1034.395z" transform="translate(0 -1030.362)"/><path style="opacity:.1;fill:#f4f4f7" d="M14.41 1031.362a.908.908 0 0 0-.643.267L11 1034.394l-6.968 6.97-2.765 2.765a.909.909 0 0 0-.267.642v.5c0-.24.096-.472.267-.642l2.765-2.766 6.968-6.969 2.767-2.765a.909.909 0 0 1 .642-.267h5.682a.91.91 0 0 1 .909.91v-.5a.91.91 0 0 0-.91-.91z" transform="translate(0 -1030.362)"/><path style="opacity:.2" d="m17.967 1041.863 2.767 2.765a.91.91 0 0 1 .266.643v5.682a.91.91 0 0 1-.91.91h-5.68a.908.908 0 0 1-.644-.266L11 1048.83l-6.967-6.967-2.767-2.766a.91.91 0 0 1-.266-.644v-5.682a.91.91 0 0 1 .91-.909h5.68a.91.91 0 0 1 .644.266l2.766 2.767z" transform="translate(0 -1030.362)"/><path style="fill:#00d5e6" d="m17.967 1041.363 2.767 2.765a.91.91 0 0 1 .266.643v5.682a.91.91 0 0 1-.91.91h-5.68a.908.908 0 0 1-.644-.266L11 1048.33l-6.967-6.967-2.767-2.766a.91.91 0 0 1-.266-.644v-5.682a.91.91 0 0 1 .91-.909h5.68a.91.91 0 0 1 .644.266l2.766 2.767z" transform="translate(0 -1030.362)"/><path style="opacity:.2;fill-rule:evenodd" d="M15.359 1034.362a.155.155 0 0 0-.106.045l-.42.42a.155.155 0 0 0-.045.11v2.405h-2.406a.155.155 0 0 0-.11.046l-1.551 1.552a.155.155 0 0 0 0 .219l2.573 2.574-.377.377-1.678-1.68a1.423 1.423 0 0 0-2.009 0 1.423 1.423 0 0 0 0 2.009l1.679 1.679-.662.662-1.318-.14c.41-.555.427-1.322-.076-1.825a1.422 1.422 0 0 0-2.007 0l-2.684 2.684a2.266 2.266 0 0 0 0 3.201 2.266 2.266 0 0 0 3.2 0c.43-.43.599-.992.61-1.556l.364.364a.155.155 0 0 0 .22 0l.297-.299a.155.155 0 0 0 0-.22l-1.49-1.49a.155.155 0 0 0-.22 0l-.894.895a.155.155 0 0 0 0 .22l.298.297a.155.155 0 0 0 .22 0l.363-.363c.217.55.162 1.188-.284 1.634-.6.6-1.567.6-2.166 0-.6-.599-.6-1.566 0-2.165l2.683-2.683c.27-.27.703-.27.973 0s.27.703 0 .973l-.597.596a.155.155 0 0 0 0 .22l1.491 1.49a.155.155 0 0 0 .22 0l.298-.298a.155.155 0 0 0 0-.22l-.706-.705 1.404.145a.155.155 0 0 0 .126-.045l1.263-1.262a.155.155 0 0 0 0-.22l-1.083-1.082.973-.973 1.083 1.083a.155.155 0 0 0 .22 0l1.192-1.193a.155.155 0 0 0 0-.22l-1.083-1.083.785-.784a.155.155 0 0 0 0-.22l-.298-.298a.155.155 0 0 0-.22 0l-.784.785-.974-.973.977-.977h2.165v2.826a.155.155 0 0 0 .266.11l.42-.42a.155.155 0 0 0 .045-.109v-2.407h2.406a.155.155 0 0 0 .11-.044l.419-.42a.155.155 0 0 0-.11-.265h-2.825v-2.826a.155.155 0 0 0-.16-.155zm-5.124 6.385c.175 0 .35.068.486.202l.486.486-.973.974-.486-.487a.686.686 0 0 1 0-.973.687.687 0 0 1 .487-.202z" transform="translate(0 -1030.362)"/><path style="fill:#f4f4f7;fill-rule:evenodd" d="M15.629 1033.581a.156.156 0 0 0-.09.045l-.422.422a.156.156 0 0 0-.047.111v2.422h-2.422a.156.156 0 0 0-.11.045l-1.561 1.563a.156.156 0 0 0 0 .22l2.59 2.59-.38.38-1.689-1.69a1.432 1.432 0 0 0-2.021 0 1.432 1.432 0 0 0 0 2.021l1.689 1.69-.666.666-1.326-.141c.413-.559.43-1.33-.076-1.836a1.432 1.432 0 0 0-2.022 0l-2.701 2.703a2.28 2.28 0 0 0 0 3.22 2.282 2.282 0 0 0 3.223 0c.445-.8b9cbe.544-1.05.543-1.634l.435.435a.156.156 0 0 0 .22 0l.302-.3a.156.156 0 0 0 0-.221l-1.5-1.5a.156.156 0 0 0-.223 0l-.898.898a.156.156 0 0 0 0 .223l.298.299a.156.156 0 0 0 .221 0l.365-.365c.22.553.164 1.195-.285 1.644a1.539 1.539 0 0 1-2.18 0 1.539 1.539 0 0 1 0-2.18l2.702-2.699a.69.69 0 0 1 .978 0 .69.69 0 0 1 0 .979l-.6.6a.156.156 0 0 0 0 .22l1.5 1.502a.156.156 0 0 0 .221 0l.301-.3a.156.156 0 0 0 0-.221l-.713-.711 1.416.146a.156.156 0 0 0 .127-.045l1.27-1.27a.156.156 0 0 0 0-.222l-1.09-1.09.978-.979 1.09 1.09a.156.156 0 0 0 .223 0l1.199-1.199a.156.156 0 0 0 0-.223l-1.09-1.09.79-.788a.156.156 0 0 0 0-.221l-.3-.3a.156.156 0 0 0-.22 0l-.791.79-.98-.978.984-.985h2.18v2.844a.156.156 0 0 0 .267.111l.422-.422a.156.156 0 0 0 .045-.11v-2.423h2.424a.156.156 0 0 0 .109-.045l.422-.424a.156.156 0 0 0-.11-.267h-2.845v-2.842a.156.156 0 0 0-.176-.158zm-5.14 6.426c.176 0 .352.069.488.205l.49.488-.98.98-.489-.49a.69.69 0 0 1 0-.978.694.694 0 0 1 .49-.205z" transform="translate(0 -1030.362)"/><path style="fill:#f4f4f7;fill-rule:evenodd" d="m7.486 1045.123 1.28 1.277-.079.08-.49-.49a.156.156 0 0 0-.265.133c.02.137-.12.249-.13.387.021-.361-.028-.73-.218-1.051a.156.156 0 0 0-.246-.031l-.451.451-.08-.078z" transform="translate(0 -1030.362)"/><path style="opacity:.2;fill:#f4f4f7" d="M1.91 1031.362a.91.91 0 0 0-.91.91v.5a.91.91 0 0 1 .91-.91h5.68c.242 0 .473.096.643.267l2.767 2.765 6.968 6.97 2.765 2.765c.17.17.267.401.267.642v-.5a.909.909 0 0 0-.267-.642l-2.765-2.766-6.968-6.969-2.767-2.765a.909.909 0 0 0-.642-.267z" transform="translate(0 -1030.362)"/><path style="opacity:.2;fill-rule:evenodd" d="M14.865 1043.862a1.86 1.86 0 0 0-1.32.545 1.87 1.87 0 0 0 0 2.64l.197.198.771-.77-.198-.198a.773.773 0 0 1 0-1.1.773.773 0 0 1 1.315.445v3.51l.73.73.274-.274.672-.672 1.694-1.694-.77-.77-1.514 1.513c-.001-.809.003-1.619 0-2.432v-.016l-.001-.017a1.86 1.86 0 0 0-1.85-1.638z" transform="translate(0 -1030.362)"/><path style="fill:#f4f4f7;fill-rule:evenodd" d="M14.865 1043.362a1.86 1.86 0 0 0-1.32.545 1.87 1.87 0 0 0 0 2.64l.197.198.771-.77-.198-.198a.773.773 0 0 1 0-1.1.773.773 0 0 1 1.315.445v3.51l.73.73.274-.274.672-.672 1.694-1.694-.77-.77-1.514 1.513c-.001-.809.003-1.619 0-2.432v-.016l-.001-.017a1.86 1.86 0 0 0-1.85-1.638z" transform="translate(0 -1030.362)"/></svg>