<svg xmlns="http://www.w3.org/2000/svg" width="22" height="22" version="1"><path d="M38.058 4.103 17.826 8.317C14.286 8.743 14 12 14 11.995v14.271A7.994 7.994 0 0 0 12 26a8 8 0 1 0 0 16 8 8 0 0 0 7.93-7s.07-.727.07-1V13.93l16-3.458v11.794A7.994 7.994 0 0 0 34 22a8 8 0 1 0 0 16 8 8 0 0 0 7.93-7l.07-1V7.297s.027-3.902-3.942-3.194z" transform="matrix(.5 0 0 .5 -1 .5)" style="opacity:.2"/><path style="fill:#4f4f4f" d="M38.058 4.103 17.826 8.317C14.286 8.743 14 12 14 11.995v14.271A7.994 7.994 0 0 0 12 26a8 8 0 1 0 0 16 8 8 0 0 0 7.93-7s.07-.727.07-1V13.93l16-3.458v11.794A7.994 7.994 0 0 0 34 22a8 8 0 1 0 0 16 8 8 0 0 0 7.93-7l.07-1V7.297s.027-3.902-3.942-3.194z" transform="matrix(.5 0 0 .5 -1 0)"/><g style="opacity:.1;fill:#f4f4f7"><path style="fill:#f4f4f7" transform="translate(-1 -1)" d="M19.684 3.02a2.357 2.357 0 0 0-.655.033L8.914 5.158C7.144 5.371 7 7 7 6.998v.5c0 .002.144-1.627 1.914-1.84L19.03 3.551C21.014 3.196 21 5.148 21 5.148v-.5s.01-1.492-1.316-1.628zM17 12a4 4 0 0 0-4 4c0 .086.02.166.025.25.132-2.09 1.851-3.75 3.975-3.75.338.002.673.046 1 .133v-.5A3.997 3.997 0 0 0 17 12zM6 14a4 4 0 0 0-4 4c0 .086.02.166.025.25C2.157 16.16 3.876 14.5 6 14.5c.338.002.673.046 1 .133v-.5A3.997 3.997 0 0 0 6 14z"/></g></svg>