<svg xmlns="http://www.w3.org/2000/svg" width="22" height="22" version="1"><g transform="translate(-1 -1)"><rect style="opacity:.2" width="20" height="20" x="2" y="2.5" rx="1" ry="1"/><rect style="fill:#4d525a" width="20" height="20" x="2" y="2" rx="1" ry="1"/><path style="opacity:.1;fill:#f4f4f7" d="M3 2c-.554 0-1 .446-1 1v.5c0-.554.446-1 1-1h18c.554 0 1 .446 1 1V3c0-.554-.446-1-1-1z"/><path style="opacity:.2" d="M4 4.5v16h4v-6h8v6h4v-16h-4v6H8v-6z"/><path style="fill:#ccc" d="M4 4v16h4v-6h8v6h4V4h-4v6H8V4z"/><path style="opacity:.1" d="M5 6.5v2h2v-2zm12 0v2h2v-2zm-12 5v2h2v-2zm12 0v2h2v-2zm-12 5v2h2v-2zm12 0v2h2v-2z"/><path style="fill:#4d525a" d="M5 6v2h2V6zm12 0v2h2V6zM5 11v2h2v-2zm12 0v2h2v-2zM5 16v2h2v-2zm12 0v2h2v-2z"/></g></svg>