<svg xmlns="http://www.w3.org/2000/svg" width="22" height="22" version="1"><rect style="fill:#bfbfbf" width="20" height="20" x="1" y="1" rx="1" ry="1"/><path style="opacity:.2;fill:#f4f4f7" d="M1 2.5V2c0-.554.446-1 1-1h18c.554 0 1 .446 1 1v.5c0-.554-.446-1-1-1H2c-.554 0-1 .446-1 1z"/><path style="opacity:.2" d="M1 20v.5c0 .554.446 1 1 1h18c.554 0 1-.446 1-1V20c0 .554-.446 1-1 1H2c-.554 0-1-.446-1-1z"/><path style="opacity:.1" d="m13 7.652-4 2.5v1.696l4 2.5 1.06-1.696L11.416 11l2.644-1.652zm5 0-4 2.5v1.696l4 2.5 1.06-1.696L16.416 11l2.644-1.652zM3 8.5v2h5v-2zm0 3v2h5v-2z"/><path style="fill:none;stroke:#d5498f;stroke-width:2;stroke-linejoin:bevel" d="m18.53 8-4 2.5 4 2.5"/><path style="fill:none;stroke:#a659ca;stroke-width:2;stroke-linejoin:bevel" d="m13.53 8-4 2.5 4 2.5"/><path style="fill:#2f8ce3" d="M3 8h5v2H3zM3 11h5v2H3z"/></svg>