<svg xmlns="http://www.w3.org/2000/svg" width="22" height="22" version="1"><rect style="fill:#f58800" width="20" height="20" x="1" y="1" rx="1" ry="1"/><path style="fill:none;stroke:#17191e" d="m6 14.5 5-8 5 8"/><path style="opacity:.2;fill:#f4f4f7" d="M1 2.5V2c0-.554.446-1 1-1h18c.554 0 1 .446 1 1v.5c0-.554-.446-1-1-1H2c-.554 0-1 .446-1 1z"/><path style="opacity:.2" d="M1 20v.5c0 .554.446 1 1 1h18c.554 0 1-.446 1-1V20c0 .554-.446 1-1 1H2c-.554 0-1-.446-1-1zM9 4.5c-.554 0-1 .446-1 1v3c0 .554.446 1 1 1h4c.554 0 1-.446 1-1v-3c0-.554-.446-1-1-1zm-5 8c-.554 0-1 .446-1 1v3c0 .554.446 1 1 1h4c.554 0 1-.446 1-1v-3c0-.554-.446-1-1-1zm10 0c-.554 0-1 .446-1 1v3c0 .554.446 1 1 1h4c.554 0 1-.446 1-1v-3c0-.554-.446-1-1-1z"/><path style="fill:#f4f4f7" d="M9 4c-.554 0-1 .446-1 1v3c0 .554.446 1 1 1h4c.554 0 1-.446 1-1V5c0-.554-.446-1-1-1zm-5 8c-.554 0-1 .446-1 1v3c0 .554.446 1 1 1h4c.554 0 1-.446 1-1v-3c0-.554-.446-1-1-1zm10 0c-.554 0-1 .446-1 1v3c0 .554.446 1 1 1h4c.554 0 1-.446 1-1v-3c0-.554-.446-1-1-1z"/></svg>