<svg xmlns="http://www.w3.org/2000/svg" width="22" height="22" version="1"><path style="fill:#b7b7b7" d="M4 2h14v7H4z"/><path style="opacity:.2;fill:#f4f4f7" d="M4 2v.5h14V2z"/><rect style="fill:#4f4f4f" width="20" height="12" x="1" y="8" rx="1" ry="1"/><g style="opacity:.4"><path d="M5 10h12v2H5zM6 13h10v2H6zM7 16h8v2H7z"/></g><path style="opacity:.2" d="M1 19v.5c0 .554.446 1 1 1h18c.554 0 1-.446 1-1V19c0 .554-.446 1-1 1H2c-.554 0-1-.446-1-1z"/><circle style="fill:#3c92d2" cx="16" cy="16" r="6"/><path style="opacity:.5" d="M5 4h4v2H5zM13 4h4v2h-4z"/><path style="fill:#f4f4f7" d="M13 16a2.998 2.998 0 0 0 5.997.05A.5.5 0 0 0 19 16a.5.5 0 0 0-.5-.5.5.5 0 0 0-.5.5 2 2 0 1 1-2-2v1l2-1.5-2-1.5v1a3 3 0 0 0-3 3z"/></svg>