<svg xmlns="http://www.w3.org/2000/svg" width="22" height="22" version="1"><circle style="opacity:.2" cx="11" cy="11.5" r="10"/><circle style="fill:#4caf50" cx="11" cy="11" r="10"/><path style="opacity:.2;fill:#f4f4f7" d="M11 1A10 10 0 0 0 1 11a10 10 0 0 0 .01.291A10 10 0 0 1 11 1.5a10 10 0 0 1 9.99 9.709A10 10 0 0 0 21 11 10 10 0 0 0 11 1z"/><path style="opacity:.2" d="M10.818 4.503a6.995 6.995 0 0 0-5.057 2.35 7.01 7.01 0 0 0 .033 9.33 7.028 7.028 0 0 0 9.284 1.02c1.09-.775-.075-2.407-1.163-1.63a5 5 0 0 1-6.632-.727A4.988 4.988 0 0 1 7.26 8.18a5 5 0 0 1 6.627-.775c1.098.801 2.278-.875 1.152-1.637a6.992 6.992 0 0 0-4.22-1.266zM15 8v2.5h-3a1 1 0 0 0 0 2h3V15l4.5-3.5z"/><path style="fill:#f4f4f7" d="M10.818 4.003a6.995 6.995 0 0 0-5.057 2.35 7.01 7.01 0 0 0 .033 9.33 7.028 7.028 0 0 0 9.284 1.02c1.09-.775-.075-2.407-1.163-1.63a5 5 0 0 1-6.632-.727A4.988 4.988 0 0 1 7.26 7.68a5 5 0 0 1 6.627-.774c1.098.801 2.278-.875 1.152-1.637a6.992 6.992 0 0 0-4.22-1.266zM15 7.5V10h-3a1 1 0 0 0 0 2h3v2.5l4.5-3.5z"/></svg>