<svg xmlns="http://www.w3.org/2000/svg" width="22" height="22" version="1"><path style="opacity:.2" d="M11.5.5c-.55 0-1.1.205-1.512.616L1.616 9.49C1.205 9.901 1 10.45 1 11c0 .55.206 1.099.617 1.51l8.372 8.373a2.16 2.16 0 0 0 3.023 0l8.37-8.372c.206-.206.36-.446.464-.703A2.18 2.18 0 0 0 22 11c0-.55-.206-1.1-.617-1.51l-8.371-8.374A2.132 2.132 0 0 0 11.5.5z"/><path style="fill:#1c71d8" d="M11.5.25c-.488 0-.973.181-1.335.543L1.793 9.166A1.876 1.876 0 0 0 1.25 10.5c0 .487.182.971.544 1.333L8.2 18.24l-.19.162 1.98 1.98a2.16 2.16 0 0 0 3.022.002l4.23-4.23-.17-.185 4.134-4.135c.181-.181.316-.392.407-.62a1.93 1.93 0 0 0 .137-.714 1.88 1.88 0 0 0-.544-1.334L12.835.793A1.881 1.881 0 0 0 11.5.25z"/><path style="fill:#f5c211" d="M11.5 0c-.55 0-1.1.205-1.512.616L5.802 4.803 8.65 7.65l5.699-5.698-1.34-1.339C12.6.204 12.05 0 11.5 0z"/><path style="fill:#2ec27e" d="m14.348 1.954 2.85 2.848L5.801 16.197l-2.848-2.849z"/><path style="fill:#ff7800" d="M17.197 4.803 11.5 10.5l2.85 2.848 5.696-5.697z"/><path style="fill:#c061cb" d="m8.65 13.35-2.847 2.847 2.848 2.849z"/><path style="fill:#e01b24" d="M20.046 7.651 17.197 10.5l2.849 2.849 1.337-1.338c.205-.206.36-.446.463-.703A2.18 2.18 0 0 0 22 10.5c0-.55-.206-1.1-.617-1.51z"/><path style="fill:#813d9c" d="m5.802 10.5-2.849 2.849 2.85 2.848L8.65 13.35z"/><path style="opacity:.2;fill:#f4f4f7" d="M14.349 1.953 11.5 4.803l2.849 2.848 2.848-2.848z"/><path style="fill:#e01b24" d="M17.197 4.803V10.5l2.849 2.849 1.337-1.338c.205-.206.36-.446.463-.703A2.18 2.18 0 0 0 22 10.5c0-.55-.206-1.1-.617-1.51L20.046 7.65z"/><path style="fill:#e5a50a" d="M5.802 4.803 8.65 7.65 11.5 4.803z"/><path style="fill:#ffa348" d="m17.197 10.5-2.85 2.85 2.85 2.847z"/><path style="fill:#f66151" d="M17.197 10.5v5.696l2.849-2.847z"/><path style="fill:#26a269" d="M11.5 4.803 8.65 7.65 11.5 10.5z"/><path style="fill:#1a5fb4" d="M8.65 7.651 5.802 10.5H11.5z"/><path style="fill:#3584e4" d="m5.802 10.5 2.848 2.85 2.85-2.85z"/><path style="fill:#613583" d="M5.802 4.803 1.616 8.989C1.205 9.401 1 9.95 1 10.5c0 .55.206 1.099.617 1.51l1.337 1.338L8.65 7.65z"/><path style="fill:#98c1f1" d="m11.5 10.5-2.85 2.85.001 5.696 5.699-5.698z"/><path style="opacity:.1;fill:#f4f4f7" d="M11.5 0c-.55 0-1.1.204-1.512.615l-8.37 8.373A2.13 2.13 0 0 0 1 10.5c0 .084.014.167.023.25.053-.463.245-.913.594-1.262l8.371-8.373A2.13 2.13 0 0 1 11.5.5c.55 0 1.1.204 1.512.615l8.37 8.373c.35.349.541.799.595 1.262.01-.083.023-.166.023-.25 0-.55-.206-1.1-.617-1.512L13.012.615A2.13 2.13 0 0 0 11.5 0z"/></svg>