<svg xmlns="http://www.w3.org/2000/svg" width="24" height="24"><g transform="translate(-1 -1)"><circle style="opacity:.2" cx="12" cy="12.5" r="10"/><circle style="fill:#0094f0" cx="12" cy="12" r="10"/><path style="opacity:.2;fill:#f4f4f7" d="M12 2A10 10 0 0 0 2 12a10 10 0 0 0 .01.293A10 10 0 0 1 12 2.5a10 10 0 0 1 9.99 9.707A10 10 0 0 0 22 12 10 10 0 0 0 12 2z"/><g style="fill:none;stroke:#000;stroke-width:3;stroke-linecap:round;opacity:.2" transform="matrix(.5 0 0 .5 0 .5)"><circle cx="24" cy="24" r="4.5"/><path d="M16.929 16.929a10 10 0 0 1 10.898-2.168A10 10 0 0 1 34 24a10 10 0 0 1-6.173 9.239 10 10 0 0 1-10.898-2.168M14.311 26.475a10 10 0 0 1 0-4.95M9.161 28.48a15.5 15.5 0 0 1 0-8.96M27.52 8.905a15.5 15.5 0 0 1 7.963 4.684M35.494 34.399a15.5 15.5 0 0 1-7.968 4.695"/></g><g style="fill:none;stroke:#f4f4f7;stroke-width:3;stroke-linecap:round" transform="scale(.5)"><circle cx="24" cy="24" r="4.5"/><path d="M16.929 16.929a10 10 0 0 1 10.898-2.168A10 10 0 0 1 34 24a10 10 0 0 1-6.173 9.239 10 10 0 0 1-10.898-2.168M14.311 26.475a10 10 0 0 1 0-4.95M9.161 28.48a15.5 15.5 0 0 1 0-8.96M27.52 8.905a15.5 15.5 0 0 1 7.963 4.684M35.494 34.399a15.5 15.5 0 0 1-7.968 4.695"/></g></g></svg>