<svg xmlns="http://www.w3.org/2000/svg" width="22" height="22"><rect style="opacity:.2" width="20" height="20" x="1" y="1.5" rx="1.5" ry="1.5"/><rect style="fill:#413d58" width="20" height="20" x="1" y="1" rx="1.5" ry="1.5"/><path style="opacity:.2" d="M13 9.5s.094 1.75-1.406 2.75-5.36 1.62-7.25 2.656C2.961 15.665 2 17 2 17s2-1 3-1 2.5.5 2.5.5 1-1 2.5-1 4 1 4 1l-.5-6z"/><path style="opacity:.1;fill:#f4f4f7" d="M2.5 1C1.669 1 1 1.669 1 2.5V3c0-.831.669-1.5 1.5-1.5h17c.831 0 1.5.669 1.5 1.5v-.5c0-.831-.669-1.5-1.5-1.5z"/><path style="fill:#00d6cc" d="M12.5 7.5s0 3-1.5 4S6.5 13 4.5 14 2 16.5 2 16.5s2-1.527 3-1.527 2.5-.473 2.5-.473 1.205-.32 2.705-.32S13 14 13 14l.5-4z"/><path style="fill:#365d78" d="M13 9s.094 1.75-1.406 2.75-5.36 1.619-7.25 2.656C2.961 15.164 2 16.5 2 16.5s2-1 3-1 2.5.5 2.5.5 1-1 2.5-1 4 1 4 1l-.5-6z"/><path style="opacity:.2" d="M11.291 4.51c-.263.056-1.223 1.081-1.647 1.488-.485.465-.524.25-1.086.56-.563.31-.908.821-1.121 1.209-.214.387-.753.525-1.314 1.086-.56.56-1.122.882-1.122 1.909.023.02-.074.153.158.192.233.039.355-.05.49-.263.136-.213 1.477-.84 2.33-1.208.854-.368 1.395-.56 1.647-.928.252-.369.337-.332.84-.526.505-.194 1.507.034 2.244 1.139.737 1.105.81 1.975.79 4.185-.02 2.209-.739 3.395-1.63 4.868-.507.835-2.617 2.35-4.074 3.279h5.92c.147-.26.323-.561.413-.74.222-.437 1.928-5.106 2.347-8.09.074-.529.893-.656.652-1.288-.183-.48-1.43-1.544-1.458-1.602-.112-.232.552-.466.321-.822-.328-.506-1.316-1.098-1.453-1.212-.233-.194.111-.342.344-.574-.284-.575-.802-.836-1.556-.933-.388 0-.103-.608.11-.84-.384-.396-1.104-.268-1.76-.136-.306-.033.166-.86-.385-.753z"/><path style="fill:#167ddd" d="M11.291 4.01c-.263.056-1.223 1.081-1.647 1.488-.485.465-.524.25-1.086.56-.563.31-.908.821-1.121 1.209-.214.387-.753.525-1.314 1.086-.56.56-1.122.882-1.122 1.909.023.02-.074.153.158.192.233.039.355-.05.49-.263.136-.213 1.477-.84 2.33-1.208.854-.368 1.395-.56 1.647-.928.252-.369.337-.332.84-.526.505-.194 1.507.034 2.244 1.139.737 1.105.81 1.975.79 4.185-.02 2.209-.739 3.395-1.63 4.868-.507.835-2.617 2.35-4.074 3.279h5.92c.147-.26.323-.561.413-.74.222-.437 1.928-5.106 2.347-8.09.074-.529.893-.656.652-1.288-.183-.48-1.43-1.544-1.458-1.602-.112-.232.552-.466.321-.822-.328-.506-1.316-1.098-1.453-1.212-.233-.194.111-.342.344-.574-.284-.575-.802-.836-1.556-.933-.388 0-.103-.608.11-.84-.384-.396-1.104-.268-1.76-.136-.306-.033.166-.86-.385-.753z"/><path style="opacity:.2;fill:#f4f4f7" d="M11.291 4.01c-.263.056-1.223 1.081-1.647 1.488-.485.465-.524.25-1.086.56-.563.31-.908.821-1.121 1.209-.214.387-.753.525-1.314 1.086-.56.56-1.122.882-1.122 1.909.016.013-.019.08.028.133.12-.747.607-1.055 1.094-1.542.56-.56 1.1-.699 1.314-1.086.213-.388.558-.898 1.12-1.208.563-.31.602-.096 1.087-.561.424-.407 1.384-1.432 1.647-1.488.55-.108.079.72.385.753.55-.11 1.142-.215 1.547-.014.06-.135.137-.267.214-.35-.385-.396-1.105-.268-1.761-.136-.306-.033.166-.86-.385-.753zm1.945 1.709c-.12.25-.17.52.09.52.597.077 1.044.259 1.346.615.072-.058.14-.112.21-.182-.284-.575-.802-.836-1.556-.933a.218.218 0 0 1-.09-.02zm1.446 1.628c-.17.138-.31.261-.144.4.128.106 1.002.635 1.38 1.118.102-.119.175-.251.073-.407-.292-.45-1.038-.923-1.31-1.111zm1.164 2.101c-.114.119-.227.226-.176.332.027.056 1.198 1.059 1.433 1.556a.498.498 0 0 0 .025-.454c-.16-.417-1.015-1.178-1.282-1.434zm-2.35 3.475c-.035 2.162-.745 3.341-1.627 4.798-.506.835-2.616 2.35-4.073 3.279h.749c1.352-.911 2.899-2.077 3.324-2.78.892-1.472 1.612-2.658 1.631-4.867.001-.166-.004-.279-.004-.43z"/><path style="opacity:.1" d="M18.5 7c-.5 0-.5 1.5-2 3s-2 1.5-2 1.5 1.5 1 1.5 3c1.5 1 1.5 3 1.5 3l2-5.5-.5-4z"/><path style="fill:#365d78" d="M18.5 6.5c-.5 0-.5 1.5-2 3s-2 1.5-2 1.5 1.5 1 1.5 3c1.5 1 1.5 3 1.5 3l2-5.5-.5-4z"/><path style="fill:#f4f4f7" d="M8 6.969c.044-.172.214-.33.49-.42.274-.09.479-.05.507.06.03.116-.156.28-.437.354-.279.073-.492.018-.56.006z"/><path style="fill:#2e3436" d="M8.428 6.572c-.026.01-.045.029-.069.042a.401.401 0 0 0 .017.197.65.65 0 0 0 .073.172c.041-.008.073-.007.117-.02a.521.521 0 0 0-.031-.194.482.482 0 0 0-.107-.197z"/><path style="opacity:.2" d="M18.5 7c.5 0 1.9 3 1.4 7.5S17 20 17 20s-3.5-.5-4.5-.5-1.5.5-1.5.5-1.5-1-3.5-1S3 21 3 21s.5-2 3.5-3 7.9-.08 9.5-2c5-6 2-9 2.5-9"/><path style="fill:#00d6cc" d="M18.5 6.5c.5 0 1.9 3 1.4 7.5S17 19.5 17 19.5s-3.5-.5-4.5-.5-1.5.5-1.5.5-1.5-1-3.5-1-4.5 2-4.5 2 .5-2 3.5-3 7.9-.08 9.5-2c5-6 2-9 2.5-9"/><path style="opacity:.2;fill:#f4f4f7" d="M18.5 6.5c-.12 0-.034.183.09.53.464.254 1.38 2.305 1.411 5.426.076-3.628-1.06-5.956-1.501-5.956zm.433 2.7c-.051 1.487-.668 3.582-2.933 6.3-1.6 1.92-6.5 1-9.5 2s-3.5 3-3.5 3 .16-.125.388-.287C3.823 19.542 4.712 18.596 6.5 18c3-1 7.9-.08 9.5-2 2.53-3.035 3.01-5.3 2.933-6.8z"/></svg>