<svg xmlns="http://www.w3.org/2000/svg" width="22" height="22"><path style="opacity:.2" d="M6.91 9.5C5.851 9.5 5 10.39 5 11.497v.01c0 1.106.852 1.997 1.91 1.997h8.18c1.058 0 1.91-.89 1.91-1.997v-.01c0-1.106-.852-1.997-1.91-1.997zM7 10a1.5 1.5 0 1 1 0 3 1.5 1.5 0 0 1 0-3zm8 0a1.5 1.5 0 1 1 0 3 1.5 1.5 0 0 1 0-3zM1 17.335v.5c0 .922.696 1.665 1.56 1.665h16.88c.864 0 1.56-.743 1.56-1.665v-.5c0 .922-.696 1.665-1.56 1.665H2.56C1.697 19 1 18.257 1 17.335z"/><path style="fill:#17191e" d="M2.56 3C1.697 3 1 3.742 1 4.664v12.672C1 18.258 1.696 19 2.56 19h16.88c.864 0 1.56-.742 1.56-1.664V4.664C21 3.742 20.304 3 19.44 3zM6.5 9.25a1.75 1.75 0 0 1 1.057.357A1.5 1.5 0 0 1 8.5 11a1.5 1.5 0 0 1-.938 1.389 1.75 1.75 0 0 1-1.062.361A1.75 1.75 0 0 1 4.75 11 1.75 1.75 0 0 1 6.5 9.25zm9 0A1.75 1.75 0 0 1 17.25 11a1.75 1.75 0 0 1-1.75 1.75 1.75 1.75 0 0 1-1.057-.357A1.5 1.5 0 0 1 13.5 11a1.5 1.5 0 0 1 .938-1.389A1.75 1.75 0 0 1 15.5 9.25z"/><path style="fill:#1eb5c5" d="M3.803 5C3.358 5 3 5.43 3 5.967v8.123c0 .504.358.91.803.91h14.394c.445 0 .803-.406.803-.91V5.967C19 5.43 18.642 5 18.197 5zM7 9.5A1.5 1.5 0 0 1 8.5 11 1.5 1.5 0 0 1 7 12.5 1.5 1.5 0 0 1 5.5 11 1.5 1.5 0 0 1 7 9.5zm8 0a1.5 1.5 0 0 1 1.5 1.5 1.5 1.5 0 0 1-1.5 1.5 1.5 1.5 0 0 1-1.5-1.5A1.5 1.5 0 0 1 15 9.5z"/><path style="opacity:.2" d="M3 14.09v.5c0 .504.358.91.803.91h14.394c.445 0 .803-.406.803-.91v-.5c0 .504-.358.91-.803.91H3.803C3.358 15 3 14.594 3 14.09z"/><path style="fill:#4f4f4f" d="m2.5 19 2-3.5h13l2 3.5z"/><circle style="opacity:.4" cx="6" cy="17" r="1"/><circle style="opacity:.4" cx="16" cy="17" r="1"/><path style="fill:#17191e" d="M6.91 9C5.851 9 5 9.89 5 10.997v.01c0 1.106.852 1.997 1.91 1.997h8.18c1.058 0 1.91-.89 1.91-1.997v-.01C17 9.891 16.148 9 15.09 9zm.09.5a1.5 1.5 0 1 1 0 3 1.5 1.5 0 0 1 0-3zm8 0a1.5 1.5 0 1 1 0 3 1.5 1.5 0 0 1 0-3z"/><path style="fill:#ccc" d="M9 10h4v2H9z"/><path style="fill:#874f29" d="M9 10v2h1.826A3 3 0 0 0 11 11a3 3 0 0 0-.174-1z"/><path style="opacity:.1;fill:#f4f4f7" d="M2.56 3C1.697 3 1 3.743 1 4.665v.5C1 4.243 1.696 3.5 2.56 3.5h16.88c.864 0 1.56.743 1.56 1.665v-.5C21 3.743 20.304 3 19.44 3zM4.5 15.5l-2 3.5h.285L4.5 16h13l1.715 3h.285l-2-3.5z"/><path style="opacity:.2" d="M9 10h4v.5H9z"/><path style="opacity:.2;fill:#f4f4f7" d="M3.803 5C3.358 5 3 5.43 3 5.967v.5c0-.536.358-.967.803-.967h14.394c.445 0 .803.43.803.967v-.5C19 5.43 18.642 5 18.197 5z"/></svg>