<svg xmlns="http://www.w3.org/2000/svg" width="22" height="22" version="1"><path fill="#ffc567" d="M11 1C5.46 1 1 5.46 1 11c0 .685.068 1.354.198 2h19.604c.13-.646.198-1.315.198-2 0-5.54-4.46-10-10-10zM1.2 13.004c.01.052.026.101.037.152-.01-.051-.027-.1-.038-.152zm19.601 0c-.01.052-.027.101-.038.152.011-.051.028-.1.038-.152zm-19.369.91c.031.103.07.202.104.304-.035-.102-.073-.201-.104-.304zm19.137 0c-.03.103-.069.202-.103.304.034-.102.072-.201.103-.304zm-18.825.877c.046.111.096.22.145.328-.05-.109-.1-.217-.145-.328zm18.512 0c-.045.11-.095.22-.144.328.049-.109.099-.217.144-.328zm-18.127.828zm17.742 0zm-17.275.803zm16.81 0zm-16.272.753c.07.09.14.181.213.269-.073-.088-.142-.18-.213-.27zm15.732 0c-.07.09-.14.181-.213.269.074-.088.143-.179.213-.269zm-15.084.748c.058.06.113.124.173.184-.06-.06-.115-.123-.173-.184zm14.436 0c-.058.06-.113.124-.173.184.06-.06.115-.123.173-.184zM5.35 19.259c.09.061.184.115.276.174-.092-.059-.186-.113-.276-.174zm11.301 0c-.09.061-.184.115-.275.174.091-.059.186-.113.275-.174zm-10.527.476c.105.059.213.112.32.167-.107-.054-.215-.108-.32-.167zm9.752 0c-.105.059-.213.112-.32.167.107-.055.215-.108.32-.167zm-8.92.412zm8.09 0zm-7.228.331a9.914 9.914 0 0 0 0 .001zm6.365 0zm-5.466.252c.147.034.293.071.442.099-.15-.028-.295-.065-.442-.099zm4.566 0c-.147.034-.292.071-.442.099.15-.028.295-.065.442-.099zm-3.99.122zm3.415 0zm-2.543.111zM11 21z"/><path fill="#4a78c9" d="M1.198 13c.922 4.575 4.947 8 9.802 8s8.88-3.425 9.802-8H1.198z"/><path fill="#fff" opacity=".2" d="M11 1C5.46 1 1 5.46 1 11c0 .084.004.166.006.25A9.976 9.976 0 0 1 11 1.5a9.976 9.976 0 0 1 9.994 9.75c.002-.083.006-.166.006-.25 0-5.54-4.46-10-10-10z"/><path opacity=".2" d="M1.006 11.25c-.002.084-.006.166-.006.25 0 5.54 4.46 10 10 10s10-4.46 10-10c0-.084-.004-.167-.006-.25C20.862 16.673 16.456 21 11 21s-9.862-4.327-9.994-9.75z"/><circle opacity=".2" cx="15" cy="7.5" r="3"/><circle fill="#ff7e30" cx="15" cy="7" r="3"/></svg>