<svg xmlns="http://www.w3.org/2000/svg" width="22" height="22" version="1"><path style="opacity:.2" d="M10 2.5a8.98 8.98 0 0 0-9 9c0 4.986 4.014 9 9 9s9-4.014 9-9-4.014-9-9-9z"/><path style="fill:#fead38" d="M10 2a8.98 8.98 0 0 0-9 9c0 4.986 4.014 9 9 9s9-4.014 9-9-4.014-9-9-9z"/><path style="fill:#17191e" d="M10.14 2.004A13.502 13.51 0 0 0 1.476 13.88a8.967 8.967 0 0 0 2.687 3.973 13.502 13.51 0 0 1-.013-.54A13.502 13.51 0 0 1 15.62 3.966a8.963 8.963 0 0 0-5.48-1.963z"/><path style="fill:#17191e" d="M16.634 4.921A13.502 13.51 0 0 0 5.5 18.211a13.502 13.51 0 0 0 .031.602 8.931 8.931 0 0 0 2.724 1.018 13.502 13.51 0 0 1 10.16-12.01 8.954 8.954 0 0 0-1.78-2.9z"/><circle style="opacity:.2" cx="13" cy="11.5" r="4"/><circle style="opacity:.2" cx="18" cy="8.5" r="3"/><circle style="fill:#f4f4f7" cx="13" cy="11" r="4"/><circle style="fill:#17191e" cx="12" cy="12" r="2"/><circle style="fill:#f4f4f7" cx="18" cy="8" r="3"/><path style="opacity:.2;fill:#f4f4f7" d="M10 2a8.98 8.98 0 0 0-9 9c0 .085.012.166.014.25A8.973 8.973 0 0 1 10 2.5a8.973 8.973 0 0 1 8.987 8.75c.002-.084.013-.165.013-.25 0-4.986-4.014-9-9-9z"/><circle style="fill:#17191e" cx="17.5" cy="8.5" r="1.5"/><path style="opacity:.2" d="M16 17.5s-1.343 1-3 1-3-1.895-3-3c0 0 1.59 1.159 2.5 1.5 1.72.645 3.5.5 3.5.5z"/><path style="fill:#17191e" d="M16 17s-1.343 1-3 1-3-1.895-3-3c0 0 1.59 1.159 2.5 1.5 1.72.645 3.5.5 3.5.5z"/><path style="opacity:.2" d="M4.517 13.939c1.76-.883 3.314-.392 3.47 1.097.157 1.489-1.143 3.412-2.903 4.295-1.76.882-4.921-1.9-5.078-3.39-.156-1.488 2.75-1.12 4.51-2.002z"/><path style="fill:#f4f4f7" d="M4.517 13.439c1.76-.883 3.314-.392 3.47 1.097.157 1.489-1.143 3.412-2.903 4.295-1.76.882-4.921-1.9-5.078-3.39-.156-1.488 2.75-1.12 4.51-2.002z"/><path style="opacity:.2;fill:#f4f4f7" d="M6.348 13.006c-.54-.036-1.17.102-1.83.433-1.76.883-4.669.514-4.512 2.002.005.05.022.103.033.155.317-1.084 2.873-.85 4.479-1.657 1.75-.878 3.294-.396 3.465 1.075.014-.163.02-.324.004-.479-.098-.93-.74-1.47-1.64-1.53z"/></svg>