<svg xmlns="http://www.w3.org/2000/svg" width="22" height="22" version="1"><path style="fill:#4f4f4f" d="M11 1a9.976 9.976 0 0 1 8.629 4.929c.872 1.485.366 3.419.366 5.272 0 5.54-3.556 9.146-9.096 9.146-3 0-5.584-.656-7.414-2.735A9.968 9.968 0 0 1 1 11C1 5.46 5.46 1 11 1z"/><path style="opacity:.2" d="M1.006 11.25c-.002.084-.006.166-.006.25a9.971 9.971 0 0 0 7.258 9.613 10 10 0 0 1-4.947-3.232c.162.008.322.028.482.049a9.956 9.956 0 0 1-2.787-6.68zm19.988 0-.002.03c.002.073.008.146.008.22 0-.084-.004-.166-.006-.25zm.006.25a10 10 0 0 1-3.783 7.834A9.966 9.966 0 0 0 21 11.5zm-3.783 7.834a10 10 0 0 1-.815.58c.282-.18.554-.373.815-.58zm-.815.58a10 10 0 0 1-.861.494c.296-.15.583-.315.861-.494zm-.886.506a10 10 0 0 1-.86.387c.295-.116.58-.246.86-.387zm-.96.422a10 10 0 0 1-.822.273c.28-.079.554-.171.823-.273zm-6.296.271c.254.072.51.14.773.192a10 10 0 0 1-.039-.01 10 10 0 0 1-.734-.182zm.773.192c.326.064.657.114.994.146a10 10 0 0 1-.039-.004 10 10 0 0 1-.955-.142zm4.477-.133a10 10 0 0 1-.676.154c.229-.042.453-.097.676-.154zm-1.117.22a10 10 0 0 1-.538.065c.182-.015.36-.04.538-.064z"/><path style="opacity:.2" d="M14.236 2.508c-.382.012-.749.064-1.086.168-1.336.42-2.586 1.512-3.347 2.506l-.414.539s-.609-.24-.928-.235c-.496.01-.787.23-1.098.563-.216.232-.364.5-.457.826-.4 1.401-1.086 2.352-3.176 2.945-.848.241-1.37.748-1.613 1.563-.156.527-.158 1.378-.004 1.748.168.402.622 1.042.703.992.038-.023.095-.22.127-.435a3.49 3.49 0 0 1 .176-.678l.12-.283.32.314c.238.232.465.353.884.469.31.086.592.156.627.156.123 0 .062-.17-.183-.51-.246-.338-.316-.564-.176-.564.04 0 .214.06.387.133.232.097.436.116.775.074.253-.032.488-.077.525-.1.037-.022-.084-.172-.271-.332-.187-.16-.316-.315-.287-.344.029-.028.286-.05.574-.05.611 0 .867-.173 1.123-.764.084-.193.185-.352.227-.352.04 0 .092.18.113.4.022.229.17.664.342 1.013.274.554.302.675.299 1.273-.003.363-.034.916-.069 1.228-.089.801-.131.823-1.394.756a10.32 10.32 0 0 1-1.393-.203s1.537 1.533 1.961 1.787c.244.146.693.333.998.412.544.143.56.14.785-.023.295-.214.77-1.192 1.604-3.297.36-.909.69-1.735.732-1.836a.454.454 0 0 1 .307-.23c.648-.134 1.4-.28 1.762-.637.793-.688.65-1.09.601-1.672 0 0 .598-.432 1.447-.127.894.314 1.37.724 1.662 1.867.6 1.94.016 4.536-1.312 5.9-.713.734-1.978 1.451-3.203 1.815-.6.179-.933.221-1.924.246-1.213.031-1.815-.039-2.853-.33-1.69-.397-3.205-1.234-4.918-1.318a10 10 0 0 0 5.683 3.414 10 10 0 0 0 .04.01 10 10 0 0 0 .954.142 10 10 0 0 0 .04.004A10 10 0 0 0 11 21.5c.285 0 .565-.018.844-.041a10 10 0 0 0 .568-.068c.14-.02.28-.04.418-.065a10 10 0 0 0 .682-.154c.074-.02.149-.036.222-.057a10 10 0 0 0 .823-.273c.03-.012.063-.021.093-.033a10 10 0 0 0 .866-.39l.02-.007a10 10 0 0 0 .005-.004 10 10 0 0 0 .861-.494 10 10 0 0 0 .815-.58A10 10 0 0 0 21 11.5a10.1 10.1 0 0 0-.03-.736 10 10 0 0 0-.103-.868l-.039-.216a10 10 0 0 0-1.69-3.967 67.382 67.382 0 0 1-.447-.068s.175-.108.28-.17a10 10 0 0 0-1.412-1.514c-1.285-.046-2.645.085-4.235 1.098.813-1.447 1.931-1.837 3.182-1.899a10 10 0 0 0-.926-.539 7.395 7.395 0 0 0-.957-.113 5.791 5.791 0 0 0-.387 0zM8.486 6.5 8.5 7.63 7.5 8c.422-.399.753-.896.986-1.5zM4 10.5v.5c-.333-.178-.667-.172-1-.084z"/><path style="fill:#f04339" d="M14.236 2.008c-.382.012-.749.064-1.086.168-1.336.42-2.586 1.512-3.347 2.506l-.414.539s-.609-.24-.928-.235c-.496.01-.787.23-1.098.563-.216.232-.364.5-.457.826-.4 1.401-1.086 2.352-3.176 2.945-.848.241-1.37.748-1.613 1.563-.156.527-.158 1.378-.004 1.748.168.402.622 1.042.703.992.038-.023.095-.22.127-.435a3.49 3.49 0 0 1 .176-.678l.12-.283.32.314c.238.232.465.353.884.469.31.086.592.156.627.156.123 0 .062-.17-.183-.51-.246-.338-.316-.564-.176-.564.04 0 .214.06.387.133.232.097.436.116.775.074.253-.032.488-.077.525-.1.037-.022-.084-.172-.271-.332-.187-.16-.316-.315-.287-.344.029-.028.286-.05.574-.05.611 0 .867-.173 1.123-.764.084-.193.185-.352.227-.352.04 0 .092.18.113.4.022.229.17.664.342 1.013.274.554.302.675.299 1.273-.003.363-.034.916-.069 1.228-.089.801-.131.823-1.394.756a10.32 10.32 0 0 1-1.393-.203s1.537 1.533 1.961 1.787c.244.146.693.333.998.412.544.143.56.14.785-.023.295-.214.77-1.192 1.604-3.297.36-.909.69-1.735.732-1.836a.454.454 0 0 1 .307-.23c.648-.134 1.4-.28 1.762-.637.793-.688.65-1.09.601-1.672 0 0 .598-.432 1.447-.127.894.314 1.37.724 1.662 1.867.6 1.94.016 4.536-1.312 5.9-.713.734-1.978 1.451-3.203 1.815-.6.179-.933.221-1.924.246-1.213.031-1.815-.039-2.853-.33-1.69-.397-3.205-1.234-4.918-1.318a10 10 0 0 0 5.683 3.414 10 10 0 0 0 .04.01 10 10 0 0 0 .954.142 10 10 0 0 0 .04.004A10 10 0 0 0 11 21c.285 0 .565-.018.844-.041a10 10 0 0 0 .568-.068c.14-.02.28-.04.418-.065a10 10 0 0 0 .682-.154c.074-.02.149-.036.222-.057a10 10 0 0 0 .823-.273c.03-.012.063-.021.093-.033a10 10 0 0 0 .866-.39l.02-.007a10 10 0 0 0 .005-.004 10 10 0 0 0 .861-.494 10 10 0 0 0 .815-.58A10 10 0 0 0 21 11a10.1 10.1 0 0 0-.03-.736 10 10 0 0 0-.103-.868l-.039-.216a10 10 0 0 0-1.69-3.967 67.382 67.382 0 0 1-.447-.068s.175-.108.28-.17a10 10 0 0 0-1.412-1.514c-1.285-.046-2.645.085-4.235 1.098.813-1.447 1.931-1.837 3.182-1.899a10 10 0 0 0-.926-.539 7.395 7.395 0 0 0-.957-.113 5.791 5.791 0 0 0-.387 0zM8.486 6 8.5 7.13l-1 .37c.422-.399.753-.896.986-1.5zM4 10v.5c-.333-.178-.667-.172-1-.084z"/><path style="fill:#ff9e18" d="M16.652 9.597c.41.299.68.73.87 1.472.6 1.94.016 4.536-1.312 5.9-.713.734-1.98 1.45-3.204 1.814-.6.179-.933.221-1.924.246-1.213.031-1.815-.038-2.853-.329-1.698-.399-3.218-1.243-4.94-1.321 0 0 1.956 1.234 3.356 1.682 4.03 1.416 7.52 1.38 9.813-.71 3.208-3.194 2.063-8.197.194-8.754z"/><path style="opacity:.73999999;fill:#fe7e40" d="M14.236 2.008c-.382.012-.749.064-1.086.168-1.336.42-2.586 1.512-3.347 2.506l-.414.539c2.158-1.69 4.301-2.886 6.904-2.692a10 10 0 0 0-.713-.408 7.395 7.395 0 0 0-.957-.113 5.791 5.791 0 0 0-.387 0zm2.787 1.435c-1.128.017-2.33.244-3.699 1.116 1.429-.444 3.19-.59 4.854-.522a10 10 0 0 0-.592-.55c-.411.009-.807.017-.563-.044zm-2.847 3.78c-.034 1.7-.62 3.545-2.26 4.441-.016.015-.034.043-.05.059a.479.479 0 0 1 .183-.086c.3-.062.623-.128.92-.215-.002 0-.003-.003-.004-.004.17-.05.334-.108.478-.176a1.67 1.67 0 0 0 .19-.103l.012-.008h.002c.06-.04.116-.084.164-.131.793-.688.65-1.09.601-1.672l.004-.002zm-2.33 4.52C10.825 12.747 9.36 16.1 8.85 16.08c-.607-.025-3.188-1.256-3.188-1.256s1.537 1.533 1.961 1.787c.244.146.693.333.998.412.544.143.56.143.785-.021.295-.214.77-1.194 1.604-3.299.36-.909.69-1.735.732-1.836a.365.365 0 0 1 .104-.125z"/><path style="opacity:.1;fill:#f4f4f7" d="M11 1C5.46 1 1 5.46 1 11v.25A9.98 9.98 0 0 1 11 1.5a9.98 9.98 0 0 1 10 9.75V11c0-5.54-4.46-10-10-10z"/></svg>