<svg xmlns="http://www.w3.org/2000/svg" width="22" height="22" version="1"><path style="opacity:.2" d="M2 2.5c-.554 0-1 .446-1 1v16c0 .554.446 1 1 1h18c.554 0 1-.446 1-1v-16c0-.554-.446-1-1-1z"/><path style="fill:#4f4f4f" d="M2 2c-.554 0-1 .446-1 1v16c0 .554.446 1 1 1h18c.554 0 1-.446 1-1V3c0-.554-.446-1-1-1z"/><path style="opacity:.2;stroke:#000;stroke-width:0;stroke-linejoin:round" d="M1 8h20v1H1zM1 4h20v1H1zM1 10h20v1H1zM1 6h20v1H1z"/><path style="fill:#47da72" d="M4.5 5c3.5 0 2.333 5.964 6 6 2.28.022 4.147-2 6.5-2 2.353 0 4 3.5 4 3.5V19c0 .554-.446 1-1 1H2c-.554 0-1-.446-1-1V9.5S1.74 5 4.5 5z"/><path style="opacity:.1;fill:#f4f4f7" d="M2 2c-.554 0-1 .446-1 1v.5c0-.554.446-1 1-1h18c.554 0 1 .446 1 1V3c0-.554-.446-1-1-1z"/><path style="opacity:.2;fill:#f4f4f7" d="M4.5 5c3.5 0 2.333 5.964 6 6 2.28.022 4.147-2 6.5-2 2.353 0 4 3.5 4 3.5v.5s-1.647-3.5-4-3.5c-2.353 0-4.22 2.022-6.5 2-3.667-.036-2.5-6-6-6C1.74 5.5 1 10 1 10v-.5S1.74 5 4.5 5z"/></svg>