<svg xmlns="http://www.w3.org/2000/svg" width="22" height="22" version="1"><path style="opacity:.2" d="M11.059 2.5a9.01 9.01 0 0 0-3.51.695 8.973 8.973 0 0 0-4.854 11.756 8.973 8.973 0 0 0 11.756 4.854 8.973 8.973 0 0 0 4.854-11.756 8.973 8.973 0 0 0-8.246-5.55zM11 6.5a5 5 0 0 1 5 5 5 5 0 0 1-5 5 5 5 0 0 1-5-5 5 5 0 0 1 5-5z"/><path style="fill:#f4f4f7" d="M11.059 2a9.01 9.01 0 0 0-3.51.695 8.973 8.973 0 0 0-4.854 11.756 8.973 8.973 0 0 0 11.756 4.854 8.973 8.973 0 0 0 4.854-11.756A8.973 8.973 0 0 0 11.059 2zM11 6a5 5 0 0 1 5 5 5 5 0 0 1-5 5 5 5 0 0 1-5-5 5 5 0 0 1 5-5z"/><path style="opacity:.2;fill:#f4f4f7" d="M11.059 2a9.01 9.01 0 0 0-3.51.695 8.966 8.966 0 0 0-5.537 8.52 8.966 8.966 0 0 1 5.537-8.02A8.973 8.973 0 0 1 19.305 8.05a9 9 0 0 1 .683 3.236 8.988 8.988 0 0 0-.683-3.736A8.973 8.973 0 0 0 11.059 2zm4.931 9.197A5 5 0 0 1 11 16a5 5 0 0 1-4.99-4.697A5 5 0 0 0 6 11.5a5 5 0 0 0 5 5 5 5 0 0 0 5-5 5 5 0 0 0-.01-.303z"/><path style="opacity:.2" d="M11.06 1.5c-1.165-.006-2.35.19-3.495.598a.878.818 0 0 0-.508 1.054l1.56 3.817a.878.818 0 0 0 1.133.474 3.739 3.739 0 0 1 1.248-.215c.426.002.848.075 1.246.217a.878.818 0 0 0 1.135-.472l1.564-3.82a.878.818 0 0 0-.51-1.057 10.236 10.236 0 0 0-3.372-.596zm-8.702 6a.818.878 0 0 0-.76.564A10.285 10.285 0 0 0 1 11.56c.006 1.17.218 2.309.596 3.373a.818.878 0 0 0 1.056.51l3.82-1.562a.818.878 0 0 0 .473-1.137 3.736 3.736 0 0 1-.218-1.246c0-.427.075-.85.216-1.248a.818.878 0 0 0-.474-1.133l-3.817-1.56a.818.878 0 0 0-.294-.057zm17.285 0a.818.878 0 0 0-.295.057l-3.817 1.56a.818.878 0 0 0-.474 1.133c.142.398.214.821.215 1.248a3.734 3.734 0 0 1-.217 1.246.818.878 0 0 0 .472 1.137l3.82 1.562a.818.878 0 0 0 1.057-.51c.378-1.064.59-2.204.596-3.373.006-1.165-.19-2.35-.598-3.496a.818.878 0 0 0-.76-.564zm-7.053 8a.878.818 0 0 0-.346.055c-.398.142-.82.217-1.246.218a3.74 3.74 0 0 1-1.248-.216.878.818 0 0 0-1.133.474l-1.56 3.817a.878.818 0 0 0 .508 1.054c1.146.408 2.33.603 3.496.598a10.237 10.237 0 0 0 3.373-.596.878.818 0 0 0 .51-1.056l-1.565-3.82a.878.818 0 0 0-.789-.528z"/><path style="fill:#e74c3c" d="M11.06 1c-1.165-.006-2.35.19-3.495.598a.878.818 0 0 0-.508 1.054l1.56 3.817a.878.818 0 0 0 1.133.474 3.739 3.739 0 0 1 1.248-.214c.426.001.848.074 1.246.216a.878.818 0 0 0 1.135-.472l1.564-3.82a.878.818 0 0 0-.51-1.057A10.236 10.236 0 0 0 11.062 1zM2.359 7a.818.878 0 0 0-.76.564A10.285 10.285 0 0 0 1 11.061c.006 1.168.218 2.308.596 3.373a.818.878 0 0 0 1.056.51l3.82-1.563a.818.878 0 0 0 .473-1.137 3.736 3.736 0 0 1-.218-1.246c0-.427.075-.85.216-1.248a.818.878 0 0 0-.474-1.133l-3.817-1.56A.818.878 0 0 0 2.358 7zm17.285 0a.818.878 0 0 0-.295.057l-3.817 1.56a.818.878 0 0 0-.474 1.133c.142.399.214.821.215 1.248a3.734 3.734 0 0 1-.217 1.246.818.878 0 0 0 .472 1.137l3.82 1.562a.818.878 0 0 0 1.057-.51c.378-1.064.59-2.204.596-3.372.006-1.166-.19-2.35-.598-3.497a.818.878 0 0 0-.76-.564zm-7.053 8a.878.818 0 0 0-.346.055c-.398.142-.82.217-1.246.218a3.74 3.74 0 0 1-1.248-.216.878.818 0 0 0-1.133.474l-1.56 3.817a.878.818 0 0 0 .508 1.054c1.146.408 2.33.604 3.496.598a10.237 10.237 0 0 0 3.373-.596.878.818 0 0 0 .51-1.056l-1.565-3.82A.878.818 0 0 0 12.59 15z"/></svg>