<svg xmlns="http://www.w3.org/2000/svg" width="22" height="22" version="1"><rect style="opacity:.2" width="16" height="18" x="3" y="3.5" rx="1.586" ry="1.602"/><path style="fill:#989898" d="M11 0a2 2 0 0 0-2 2 2 2 0 0 0 2 2 2 2 0 0 0 2-2 2 2 0 0 0-2-2zm0 1a1 1 0 0 1 1 1 1 1 0 0 1-1 1 1 1 0 0 1-1-1 1 1 0 0 1 1-1z"/><rect style="fill:#c48f61" width="16" height="18" x="3" y="3" rx="1.586" ry="1.602"/><path style="opacity:.1;fill:#f4f4f7" d="M4.586 3C3.707 3 3 3.695 3 4.558v.5C3 4.195 3.707 3.5 4.586 3.5h12.828c.879 0 1.586.695 1.586 1.558v-.5C19 3.695 18.293 3 17.414 3z"/><path style="fill:#f4f4f7" d="M5 4h12v15H5z"/><path style="fill:#989898" d="M7.667 2C7.297 2 7 2.318 7 2.714V5h8V2.714c0-.396-.298-.714-.667-.714H12a1 1 0 1 1-2 0z"/><path style="fill:none;stroke:#5f5f5f;stroke-width:1.5;stroke-linecap:round" d="m6.71 11.75 1.053.754 1.487-1.756"/><path style="fill:none;stroke:#c8c8c8;stroke-width:1.5;stroke-linecap:round" d="M11.75 7.25h3.95"/><path style="fill:none;stroke:#5f5f5f;stroke-width:1.5;stroke-linecap:round" d="m6.71 7.25 1.053.754L9.25 6.248M6.71 16.25l1.053.754 1.487-1.756"/><path style="fill:none;stroke:#c8c8c8;stroke-width:1.5;stroke-linecap:round" d="M11.75 11.75h3.95M11.75 16.25h3.95"/><path style="opacity:.2" d="M5 19h12v.5H5z"/><path style="opacity:.1;fill:#f4f4f7" d="M11 0a2 2 0 0 0-2 2H7.667C7.297 2 7 2.318 7 2.714v.5c0-.396.298-.714.667-.714H9a2 2 0 0 1 2-2 2 2 0 0 1 2 2h1.333c.37 0 .667.318.667.714v-.5c0-.396-.298-.714-.667-.714H13a2 2 0 0 0-2-2zm.968 2.248A1 1 0 0 1 11 3a1 1 0 0 1-.968-.748A1 1 0 0 0 10 2.5a1 1 0 0 0 1 1 1 1 0 0 0 1-1 1 1 0 0 0-.032-.252z"/></svg>