<svg xmlns="http://www.w3.org/2000/svg" width="22" height="22"><circle fill="#4f4f4f" cx="11" cy="11" r="10"/><circle opacity=".2" cx="11" cy="11.5" r="8"/><circle fill="#cb8b9cbe4" cx="11" cy="11" r="8"/><path opacity=".2" d="M10 4.5v5h2v-5h-2zm-.11 1.107zm2.579.08zm-3.17.063zm3.783.127zm-4.262.039A6 6 0 0 0 5 11.5a6 6 0 0 0 12 0 6.001 6.001 0 0 0-3.641-5.51l-.775 1.838A4 4 0 0 1 15 11.5a4 4 0 0 1-4 4 4 4 0 0 1-4-4 4 4 0 0 1 2.465-3.69L8.82 5.916z"/><path fill="#fff" d="M10 4v5h2V4h-2zm-.11 1.107zm2.579.08zm-3.17.063zm3.783.127zm-4.262.039A6 6 0 0 0 5 11a6 6 0 1 0 12 0 6.001 6.001 0 0 0-3.641-5.51l-.775 1.838A4 4 0 0 1 15 11a4 4 0 0 1-4 4 4 4 0 0 1-4-4 4 4 0 0 1 2.465-3.69L8.82 5.416z"/><path fill="#fff" opacity=".1" d="M11 1a10 10 0 0 0-9.93 8.926A10 9.5 0 0 1 11 1.5a10 9.5 0 0 1 9.961 8.724A10 10 0 0 0 11 1zm9.96 9.224A10 10 0 0 1 21 11a10 9.5 0 0 0-.04-.776zM1.07 9.925a10 9.5 0 0 0-.025.197 10 10 0 0 1 .025-.197zm-.025.197A10 10 0 0 0 1 11a10 9.5 0 0 1 .045-.878z"/><path opacity=".2" d="M11 21.5a10 10 0 0 1-9.93-8.926A10 9.5 0 0 0 11 21a10 9.5 0 0 0 9.961-8.724A10 10 0 0 1 11 21.5zm9.96-9.224A10 10 0 0 0 21 11.5a10 9.5 0 0 1-.04.776zm-19.89.298a10 9.5 0 0 1-.025-.196 10 10 0 0 0 .025.196zm-.025-.196A10 10 0 0 1 1 11.5a10 9.5 0 0 0 .045.878z"/></svg>