<svg xmlns="http://www.w3.org/2000/svg" width="22" height="22" version="1"><rect style="opacity:.2" width="20" height="20" x="1" y="1.5" rx="6" ry="6"/><path style="fill:#f746b3" d="M7 1h8c3.324 0 6 2.676 6 6v4H1V7c0-3.324 2.676-6 6-6z"/><path style="opacity:.2;fill:#f4f4f7" d="M7 1C3.676 1 1 3.676 1 7v.5c0-3.324 2.676-6 6-6h8c3.324 0 6 2.676 6 6V7c0-3.324-2.676-6-6-6z"/><path style="fill:#fbb54c" d="M7 21h8c3.324 0 6-2.676 6-6v-4H1v4c0 3.324 2.676 6 6 6z"/><path style="opacity:.1" d="M7 3.5h8c2.25 0 4 1.75 4 4v8c0 2.25-1.75 4-4 4H7c-2.25 0-4-1.75-4-4v-8c0-2.25 1.75-4 4-4z"/><path style="fill:#17191e" d="M7 3h8c2.25 0 4 1.75 4 4v8c0 2.25-1.75 4-4 4H7c-2.25 0-4-1.75-4-4V7c0-2.25 1.75-4 4-4z"/><path style="opacity:.2" d="M7.625 5.5 5 8.22l1.125.71-.75 2.57L8 8.78l-1.125-.71zM9 10.5v1h3v-1z"/><path style="fill:#f4f4f7" d="M7.625 5 5 7.72l1.125.71-.75 2.57L8 8.28l-1.125-.71zM9 10v1h3v-1z"/></svg>