<svg xmlns="http://www.w3.org/2000/svg" width="22" height="22"><rect style="opacity:.2" width="20" height="20" x="1" y="1.5" rx="10"/><rect style="fill:#17191e" width="20" height="20" x="1" y="1" rx="10"/><path style="opacity:.2" d="M9.863 4.504a2 2 0 0 0-1.51 3.127l.92 1.353a.98.98 0 0 0 1.762-.068l.766-1.547h-.002a1.998 1.998 0 0 0-1.934-2.865zM15.076 6.5a2.454 2.454 0 0 0-2.016 1l-1.283 1.664-.043.055-.006.007h.002c-.235.33-.303.77-.142 1.176a1.21 1.21 0 0 0 1.016.764l2.093.314-.002-.004a2.42 2.42 0 0 0 1.258-.156c1.263-.514 1.876-1.969 1.367-3.25a2.47 2.47 0 0 0-2.244-1.57zM7.11 8.502a2.02 2.02 0 0 0-2.046 1.511 1.996 1.996 0 0 0 1.464 2.426c.355.088.71.078 1.037-.013l1.63-.47a.987.987 0 0 0 .777-.724.97.97 0 0 0-.301-.969L8.422 9.056v.002a2.015 2.015 0 0 0-1.313-.556zM9.791 12.5c-.22 0-.436.057-.625.166l-1.867.928.004.002c-.367.185-.69.462-.926.82-.722 1.094-.374 2.537.78 3.224 1.152.688 2.671.36 3.394-.734.246-.374.37-.788.377-1.2l.062-1.905a1.13 1.13 0 0 0-.556-1.125c-.2-.12-.423-.176-.643-.176zm3.188.004a1.035 1.035 0 0 0-.561.213c-.328.252-.471.662-.4 1.046l.216 1.844.002-.002c.046.364.181.72.414 1.033a2.118 2.118 0 0 0 2.998.422 2.197 2.197 0 0 0 .42-3.045 2.128 2.128 0 0 0-.92-.71l-1.601-.678a1.034 1.034 0 0 0-.568-.123z"/><path style="fill:#39e11e" d="M9.863 4.004a2 2 0 0 0-1.51 3.127l.92 1.353a.98.98 0 0 0 1.762-.068l.766-1.547h-.002a1.998 1.998 0 0 0-1.934-2.865zM15.076 6a2.454 2.454 0 0 0-2.016 1l-1.283 1.664-.043.055-.006.008h.002c-.235.329-.303.77-.142 1.175a1.21 1.21 0 0 0 1.016.764l2.093.314-.002-.003a2.42 2.42 0 0 0 1.258-.157c1.263-.513 1.876-1.968 1.367-3.25A2.47 2.47 0 0 0 15.076 6zM7.11 8.002a2.02 2.02 0 0 0-2.046 1.512 1.996 1.996 0 0 0 1.464 2.425c.355.089.71.078 1.037-.013l1.63-.469a.987.987 0 0 0 .777-.725.97.97 0 0 0-.301-.968L8.422 8.557v.002a2.015 2.015 0 0 0-1.313-.557zM9.791 12c-.22 0-.436.057-.625.166l-1.867.928.004.002c-.367.185-.69.462-.926.82-.722 1.094-.374 2.537.78 3.225 1.152.687 2.671.36 3.394-.735.246-.373.37-.788.377-1.199l.062-1.906a1.13 1.13 0 0 0-.556-1.125A1.25 1.25 0 0 0 9.79 12zm3.188.004a1.035 1.035 0 0 0-.561.213c-.328.252-.471.662-.4 1.047l.216 1.843.002-.002c.046.364.181.72.414 1.034a2.118 2.118 0 0 0 2.998.421 2.197 2.197 0 0 0 .42-3.044 2.128 2.128 0 0 0-.92-.711l-1.601-.678a1.034 1.034 0 0 0-.568-.123z"/><path style="opacity:.1;fill:#f4f4f7" d="M11 1C5.46 1 1 5.46 1 11c0 .084.004.167.006.25A9.976 9.976 0 0 1 11 1.5a9.976 9.976 0 0 1 9.994 9.75c.002-.083.006-.166.006-.25 0-5.54-4.46-10-10-10z"/><path style="opacity:.2;fill:#f4f4f7" d="M9.863 4.004a2 2 0 0 0-1.86 2.129c.003.029.015.053.018.082a1.998 1.998 0 0 1 1.842-1.711h.002a1.991 1.991 0 0 1 2.106 1.723c.014-.12.032-.24.023-.366a1.998 1.998 0 0 0-2.129-1.857zM15.076 6a2.454 2.454 0 0 0-2.016 1l-1.283 1.664-.043.055-.006.008h.002a1.232 1.232 0 0 0-.195.964c.035-.166.097-.326.195-.464h-.002l.006-.008c.014-.02.028-.037.043-.055L13.061 7.5a2.454 2.454 0 0 1 2.015-1 2.47 2.47 0 0 1 2.244 1.57c.09.224.132.453.155.682A2.47 2.47 0 0 0 15.077 6zM7.11 8.002a2.02 2.02 0 0 0-2.046 1.512c-.066.259-.077.518-.042.767.01-.089.019-.178.042-.267a2.02 2.02 0 0 1 2.45-1.453c.355.088.664.263.909.498v-.002l1.248 1.207c.146.128.244.3.293.486.002-.006.006-.011.008-.018a.97.97 0 0 0-.301-.968L8.422 8.557v.002a2.015 2.015 0 0 0-1.313-.557zM9.791 12c-.22 0-.436.057-.625.166l-1.867.928.004.002c-.367.185-.69.462-.926.82-.303.46-.408.98-.354 1.48.04-.337.151-.673.354-.98.237-.358.559-.635.926-.82l-.004-.002 1.867-.928a1.257 1.257 0 0 1 1.268.01c.308.184.498.478.55.795l.006-.17a1.13 1.13 0 0 0-.556-1.125c-.2-.12-.423-.176-.643-.176zm3.188.004a1.035 1.035 0 0 0-.561.213c-.328.252-.471.662-.4 1.047l.011.1a1.035 1.035 0 0 1 1.518-.736l1.601.677c.354.14.675.38.92.71.242.325.372.697.412 1.075a2.184 2.184 0 0 0-.412-1.574 2.128 2.128 0 0 0-.92-.711l-1.601-.678a1.034 1.034 0 0 0-.568-.123z"/></svg>