<svg xmlns="http://www.w3.org/2000/svg" width="22" height="22" version="1"><rect style="fill:#3968c2" width="20" height="20" x="1" y="1" rx="1" ry="1"/><path style="opacity:.2" d="M11 5.5a1 1 0 1 0 0 2 1 1 0 0 0 0-2zm-3 4v2h2v4H8v2h6v-2h-2v-6h-2z"/><path style="fill:#f4f4f7" d="M11 5a1 1 0 1 0 0 2 1 1 0 0 0 0-2zM8 9v2h2v4H8v2h6v-2h-2V9h-2z"/><path style="opacity:.1;fill:#f4f4f7" d="M2 1c-.554 0-1 .446-1 1v.5c0-.554.446-1 1-1h18c.554 0 1 .446 1 1V2c0-.554-.446-1-1-1z"/><path style="opacity:.2" d="M2 21.5c-.554 0-1-.446-1-1V20c0 .554.446 1 1 1h18c.554 0 1-.446 1-1v.5c0 .554-.446 1-1 1z"/></svg>