<svg xmlns="http://www.w3.org/2000/svg" width="22" height="22" version="1"><path style="opacity:.2" d="M11.054 1.5a2.283 2.274 0 0 0-1.195.304L3.142 5.667A2.283 2.274 0 0 0 2 7.637v7.726a2.283 2.274 0 0 0 1.141 1.97l6.718 3.862a2.283 2.274 0 0 0 2.282 0l6.717-3.863A2.283 2.274 0 0 0 20 15.362V7.637a2.283 2.274 0 0 0-1.142-1.97l-6.717-3.862a2.283 2.274 0 0 0-1.087-.304z"/><path style="fill:#e43e54" d="M11.054 1v.001a2.283 2.274 0 0 0-1.196.303L3.142 5.167A2.283 2.274 0 0 0 2 7.137v7.726a2.283 2.274 0 0 0 1.142 1.969l6.716 3.863a2.283 2.274 0 0 0 2.284 0l6.716-3.863A2.283 2.274 0 0 0 20 14.863V7.137a2.283 2.274 0 0 0-1.142-1.97l-6.716-3.863A2.283 2.274 0 0 0 11.054 1z"/><path style="fill:#343b45" d="M11.006 3a.29.29 0 0 0-.152.038L4.14 6.9A.265.265 0 0 0 4 7.137v7.726c0 .099.048.183.139.236l6.716 3.863c.091.052.199.052.29 0l6.716-3.863a.264.264 0 0 0 .139-.236V7.136a.264.264 0 0 0-.139-.236l-6.715-3.862A.29.29 0 0 0 11.008 3z"/><path transform="matrix(.3077 0 0 .3077 3.615 4.808)" d="M18.5 12c-4.143 0-7.5 3.823-7.5 8.537C11 27.89 22.556 33.667 24 38c1.8b9cbe-4.333 13-10.111 13-17.463C37 15.823 33.64 12 29.498 12c-2.173 0-4.128 1.32-5.498 3-1.37-1.68-3.327-3-5.5-3z" style="opacity:.2"/><g style="fill:#ef334c"><path style="fill:#e43e54" transform="matrix(.3077 0 0 .3077 3.615 4.308)" d="M18.5 12c-4.143 0-7.5 3.823-7.5 8.537C11 27.89 22.556 33.667 24 38c1.8b9cbe-4.333 13-10.111 13-17.463C37 15.823 33.64 12 29.498 12c-2.173 0-4.128 1.32-5.498 3-1.37-1.68-3.327-3-5.5-3z"/></g><path style="opacity:.2;fill:#f4f4f7" d="M11.053 1.001a2.283 2.274 0 0 0-1.195.303L3.141 5.167A2.283 2.274 0 0 0 2 7.137v.5a2.283 2.274 0 0 1 1.142-1.97l6.716-3.863a2.283 2.274 0 0 1 1.196-.303 2.283 2.274 0 0 1 1.088.303l6.717 3.863A2.283 2.274 0 0 1 20 7.637v-.5a2.283 2.274 0 0 0-1.141-1.97l-6.717-3.863A2.283 2.274 0 0 0 11.054 1z"/><path style="opacity:.2" d="M11.006 3a.29.29 0 0 0-.152.038L4.14 6.9A.265.265 0 0 0 4 7.137v.5c0-.099.048-.184.139-.237l6.715-3.862a.29.29 0 0 1 .152-.038h.002a.29.29 0 0 1 .137.038L17.861 7.4c.091.053.139.137.139.236v-.5a.264.264 0 0 0-.139-.236l-6.715-3.862A.29.29 0 0 0 11.008 3z"/><path style="opacity:.2;fill:#f4f4f7" d="M4 14.863v.5c0 .099.048.183.139.236l6.716 3.863c.091.052.199.052.29 0l6.716-3.863a.264.264 0 0 0 .139-.236v-.5a.264.264 0 0 1-.139.236l-6.716 3.863a.286.286 0 0 1-.29 0L4.14 15.099A.264.264 0 0 1 4 14.863z"/><g style="opacity:.2;fill:#f4f4f7"><path style="fill:#f4f4f7" transform="translate(-1 -1)" d="M10.309 9C9.034 9 8 10.176 8 11.627c0 .08.015.158.023.236.118-1.325 1.09-2.363 2.286-2.363.668 0 1.27.407 1.691.924.422-.517 1.023-.924 1.691-.924 1.196 0 2.168 1.038 2.286 2.363.008-.078.023-.156.023-.236C16 10.177 14.966 9 13.691 9c-.668 0-1.27.407-1.691.924C11.578 9.407 10.977 9 10.309 9z"/></g></svg>