<svg width="22" height="22" xmlns="http://www.w3.org/2000/svg"><path d="M15 5.5c-.554 0-1 .446-1 1v3.977a.975.975 0 0 0-.977-.977H9.977a.975.975 0 0 0-.977.977v3a.975.975 0 0 0-.977-.977H4.977a.975.975 0 0 0-.977.977v7.046c0 .54.436.977.977.977h3.046c.54 0 .977-.436.977-.977 0 .54.436.977.977.977h3.046c.54 0 .977-.436.977-.977V20.5c0 .554.446 1 1 1h3c.554 0 1-.446 1-1v-14c0-.554-.446-1-1-1z" style="opacity:.2"/><rect x="4" y="12" width="5" height="9" ry=".976" style="fill:#d96808"/><rect x="9" y="9" width="5" height="12" ry=".976" style="fill:#f69a0d"/><rect x="14" y="5" width="5" height="16" ry="1" style="fill:#f8c538"/><path d="M15 5c-.554 0-1 .446-1 1v.5c0-.554.446-1 1-1h3c.554 0 1 .446 1 1V6c0-.554-.446-1-1-1zM9.977 9A.975.975 0 0 0 9 9.977v.5c0-.54.436-.977.977-.977h3.046c.54 0 .977.436.977.977v-.5A.975.975 0 0 0 13.023 9zm-5 3a.975.975 0 0 0-.977.977v.5c0-.54.436-.977.977-.977h3.046c.54 0 .977.436.977.977v-.5A.975.975 0 0 0 8.023 12z" style="fill:#f4f4f7;opacity:.2"/><path d="M4.49 1.5a.5.5 0 0 0-.47.362l-2 7a.5.5 0 0 0 .342.619l7 2a.5.5 0 0 0 .618-.343l2-7a.5.5 0 0 0-.342-.618l-7-2a.5.5 0 0 0-.149-.02z" style="opacity:.2"/><path d="M4.49 1a.5.5 0 0 0-.47.362l-2 7a.5.5 0 0 0 .342.619l7 2a.5.5 0 0 0 .618-.343l2-7a.5.5 0 0 0-.342-.618l-7-2A.5.5 0 0 0 4.489 1z" style="fill:#d7e50b"/><path d="M4.49 1a.502.502 0 0 0-.47.363l-2 7a.493.493 0 0 0 .039.366l1.96-6.866a.502.502 0 0 1 .62-.343l7 2c.138.04.242.135.302.253l.04-.134a.5.5 0 0 0-.342-.62l-7-2A.5.5 0 0 0 4.49 1z" style="fill:#f4f4f7;opacity:.2"/></svg>