<svg xmlns="http://www.w3.org/2000/svg" width="22" height="22"><path style="opacity:.2" d="M2.015 3.366v15.527s-.144.839.468 1.015L8 21.5l6-1.75 5.148 1.506c.911.318.846-.633.846-.633V4.972c.085-.813-.82-.981-.82-.981L14 2.5 8 4.25 2.797 2.726s-.782-.218-.782.64z"/><path style="fill:#ffc107" d="M2.015 2.866v15.527s-.144.839.468 1.015L8 21l6-1.75 5.148 1.506c.911.318.846-.633.846-.633V4.472c.085-.813-.82-.981-.82-.981L14 2 8 3.75 2.797 2.226s-.782-.218-.782.64z"/><path style="fill:#0c7bd4" d="m13.343 2.191-2.222.649c-.623.64-.978 1.277-.978 2.398 0 1.404.565 1.7.75 2.375.35 1.282.484 2.186.903 3.24.576 1.45.09 3.739.704 5.181.35.823.536.972 1.5 1.404.214.215.535.647.643.863.236.477.174.88.345 1.238l4.16 1.217c.911.317.846-.633.846-.633v-.242c-.443-4.065-3.216-4.694-4.371-5.666-1.301-1.095-.47-2.143-.98-3.687-.122-.367-.429-1.619-.643-1.835-.964-.647-1.5-1.295-1.821-2.375-.654-2.195 1.339-3.365 1.164-4.127zm-7.2 15.88a1.096 1.096 0 0 0-.286.014c-.894.165-.857 1.188-1.714.972-.438-.11-1.035.051-1.416.422L8 21l3.309-.965C10.643 19.02 8.5 17.502 8 18.41c-.656.284-1.204-.289-1.856-.339z"/><path style="fill:#4caf50" d="M2.55 2.202c-.23.012-.535.128-.535.664V7.73c.205-.095.483-.223.628-.223.465 0 .75.107 1.224.046.293-.038.493-.317.766-.386.257-.065.595-.045.842-.169.337-.17.81-.678 1.07-1.773.076-.317-.09-.664-.09-.988 0-.261.073-.638.26-.862L2.798 2.226s-.11-.03-.247-.024z"/><path style="fill:#81c784" d="m10.893 9.017-.214-.864-1.179.972.214.864z"/><path style="fill:#4d7687" d="m5 16.466 3-.216 1.393-.864v-2.05L8 14.198l-3 .324z"/><path style="fill:#df5050" d="m9.179 11.608-.322-1.598-.857.626-1.286.324-.535-2.699-2.25.54.857 4.588L8 12.58z"/><path style="fill:#ff8a65" d="M17.429 5.239v1.943l1.821.54V5.778z"/><path style="fill:#00bcd4" d="m8 4.59 2.679-.863v.864l-.643.216v.287L8 5.778l-.321-.108V4.483z"/><path style="fill:#b89b00" d="m16.036 11.824 1.821 1.187.643-.863-1.821-1.188zM18.393 8.585l-.643.864 1.821 1.188.423-.569v-.44zM16.893 10.636l1.821 1.188.643-.864-1.821-1.187z"/><path style="fill:#646464" d="m3.564 9.168-.32.108.728 4.21-.1 3.512.364-.056.1-3.477zm.672 7.774-.007.258-.365.022.007-.224-.05.008-1.806 1.273v.114s-.038.24.017.49l1.897-1.337.214-.066L8 17.222l1.929-1.188-.108-.54L8 16.682l-3.75.258z"/><ellipse style="fill:#222;stroke:#f4f4f7;stroke-width:.17207669;stroke-linecap:round;stroke-linejoin:round" cx="4.047" cy="17.233" rx=".289" ry=".291"/><ellipse style="fill:#222;stroke:#f4f4f7;stroke-width:.17207669;stroke-linecap:round;stroke-linejoin:round" cx="9.929" cy="15.721" rx=".289" ry=".291"/><ellipse style="fill:#222;stroke:#f4f4f7;stroke-width:.17207669;stroke-linecap:round;stroke-linejoin:round" cx="3.393" cy="9.244" rx=".289" ry=".291"/><ellipse style="fill:#222;stroke:#f4f4f7;stroke-width:.17207669;stroke-linecap:round;stroke-linejoin:round" cx="4.143" cy="13.476" rx=".289" ry=".291"/><path style="opacity:.3;fill:#f4f4f7" d="M2.015 2.866v15.527s-.144.839.468 1.015L8 21V3.75L2.797 2.226s-.782-.218-.782.64zM14 19.25l5.148 1.506c.911.318.846-.633.846-.633V4.472c.085-.813-.82-.981-.82-.981L14 2z"/><path style="opacity:.2;fill:#f4f4f7" d="M14 2 8 3.75 2.797 2.226s-.782-.217-.782.64v.5c0-.857.782-.64.782-.64L8 4.25l6-1.75 5.175 1.491s.903.167.82.98v-.5c.083-.813-.82-.98-.82-.98zM2.015 18.393s-.019.164 0 .355z"/><path style="opacity:.1" d="M37.182 3.002c-1.645.05-3.105 1.568-3.664 2.557l-11.084 19.98-.319 5.473L22 33l1.582-1.143 4.352-3.144.14-.102L39.396 8.465c1.276-2.137.34-4.635-1.054-5.24-.39-.17-.78-.235-1.16-.223z" transform="matrix(.5 0 0 .5 -1 -.5)"/><path style="fill:#b1a390" d="m22.434 24.54-.319 5.472 1.467.845 4.352-3.144z" transform="matrix(.5 0 0 .5 -1 -.5)"/><path style="fill:#505050" d="M22.115 30.012 22 32l1.582-1.143z" transform="matrix(.5 0 0 .5 -1 -.5)"/><path style="fill:#a15f34" d="M37.182 2.002c-1.645.05-3.105 1.568-3.664 2.557l-11.084 19.98 5.5 3.174.14-.102L39.396 7.465c1.276-2.137.34-4.635-1.054-5.24-.39-.17-.78-.235-1.16-.223z" transform="matrix(.5 0 0 .5 -1 -.5)"/></svg>