<svg xmlns="http://www.w3.org/2000/svg" width="22" height="22" version="1"><path fill="#fecd38" d="M11 1C5.46 1 1 5.46 1 11s4.46 10 10 10a9.975 9.975 0 0 0 8.207-4.27L11 11l9.447-3.297A9.98 9.98 0 0 0 11 1z"/><circle fill="#17191e" cx="11.5" cy="5.5" r="1.5"/><path fill="#fff" opacity=".2" d="M11 1C5.46 1 1 5.46 1 11c0 .084.004.167.006.25A9.976 9.976 0 0 1 11 1.5c4.216 0 7.8 2.586 9.275 6.261l.172-.06A9.978 9.978 0 0 0 11 1zm.477 10.333L11 11.5l7.962 5.559c.083-.11.167-.217.245-.33l-7.73-5.396z"/><path opacity=".2" d="M20.275 7.761 11 11l.477.333 8.97-3.13c-.053-.15-.114-.295-.173-.441zM1.006 11.25c-.002.084-.006.166-.006.25 0 5.54 4.46 10 10 10a9.974 9.974 0 0 0 8.207-4.27l-.245-.171A9.968 9.968 0 0 1 11 21a9.976 9.976 0 0 1-9.994-9.75z"/></svg>