<svg xmlns="http://www.w3.org/2000/svg" width="22" height="22" version="1"><path fill="#f3c72f" d="M11 1C5.445 1 1 5.445 1 11s4.445 10 10 10c.889 0 1.667-.778 1.667-1.667 0-.444-.112-.777-.445-1.11-.222-.334-.444-.668-.444-1.112 0-.89.778-1.667 1.667-1.667h2C18.555 15.445 21 13.001 21 9.89c0-4.889-4.444-8.889-10-8.889z"/><path fill="#da8015" d="M4.5 11C3.7 11 3 10.3 3 9.5S3.7 8 4.5 8 6 8.7 6 9.5 5.3 11 4.5 11z"/><path fill="#327cc4" d="M7.5 7C6.7 7 6 6.3 6 5.5S6.7 4 7.5 4 9 4.7 9 5.5 8.3 7 7.5 7z"/><path fill="#4c9511" d="M13.5 7c-.8 0-1.5-.7-1.5-1.5S12.7 4 13.5 4s1.5.7 1.5 1.5S14.3 7 13.5 7z"/><path fill="#d94d4d" d="M17.5 11c-.8 0-1.5-.7-1.5-1.5S16.7 8 17.5 8s1.5.7 1.5 1.5-.7 1.5-1.5 1.5z"/><path fill="#fff" opacity=".2" d="M11 1C5.445 1 1 5.445 1 11c0 .084.004.167.006.25A9.955 9.955 0 0 1 11 1.5c5.433 0 9.802 3.827 9.99 8.57.003-.06.01-.12.01-.181C21 5 16.555 1 11 1zm.806 16.343a1.543 1.543 0 0 0-.029.269c0 .444.223.778.445 1.11.254.255.378.509.423.811.01-.066.022-.132.022-.2 0-.444-.111-.777-.445-1.11-.18-.272-.355-.548-.416-.88z"/><path opacity=".2" d="M20.991 10.07c-.093 3.023-2.497 5.375-5.546 5.375h-2c-.89 0-1.667.778-1.667 1.667 0 .081.015.156.029.231.137-.77.84-1.398 1.638-1.398h2c3.11 0 5.555-2.445 5.555-5.556 0-.107-.004-.213-.009-.319zM1.006 11.25c-.002.084-.006.166-.006.25 0 5.555 4.445 10 10 10 .889 0 1.667-.778 1.667-1.667 0-.107-.008-.205-.022-.3C12.54 20.335 11.821 21 11 21a9.954 9.954 0 0 1-9.994-9.75z"/></svg>