<svg xmlns="http://www.w3.org/2000/svg" width="22" height="22"><path style="opacity:.2" d="M11 1.5a10 10 0 0 0-10 10v9c0 .554.446 1 1 1h9a10 10 0 0 0 10-10v-9c0-.554-.446-1-1-1z"/><path style="fill:#00acc1" d="M11 1A10 10 0 0 0 1 11v9c0 .554.446 1 1 1h9a10 10 0 0 0 10-10V2c0-.554-.446-1-1-1z"/><path style="opacity:.2" d="M12.016 3.475 9 4v10.387L12 14l-.016-4.682 3.54 5.182L19 14l-4-5.363 4.014-4.5-3.52-.649-3.51 4.5zM5.674 6.127a.124.124 0 0 0-.078.037L4.56 7.211a.136.136 0 0 0-.018.17l1.25 1.92a5.28 5.28 0 0 0-.53 1.357l-2.158.53a.138.138 0 0 0-.105.13v1.364c0 .062.046.116.105.13l2.159.53c.115.48.293.939.529 1.357l-1.25 1.92a.136.136 0 0 0 .018.17l1.035 1.047a.133.133 0 0 0 .164.016l1.959-1.202c.384.224.985.404 1.424.524l.459 2.217a.13.13 0 0 0 .127.109h1.542a.13.13 0 0 0 .127-.11l.46-2.216c.438-.12 1.039-.3 1.423-.524l1.96 1.202c.052.032.12.028.163-.016l1.035-1.047a.136.136 0 0 0 .018-.17l-1.041-1.6-.129.02-.73-1.07A4.5 4.5 0 0 1 10.5 16.53a4.5 4.5 0 0 1-4.5-4.5 4.5 4.5 0 0 1 2.5-4.027V7.02a4.344 4.344 0 0 0-.781.329l-1.96-1.202a.145.145 0 0 0-.085-.021z"/><path style="fill:#f4f4f7" d="M12.016 2.975 9 3.5v10.387l3-.387-.016-4.682L15.524 14 19 13.5l-4-5.363 4.014-4.5-3.52-.649-3.51 4.5zM5.674 5.627a.124.124 0 0 0-.078.037L4.56 6.711a.136.136 0 0 0-.018.17l1.25 1.92a5.28 5.28 0 0 0-.53 1.357l-2.158.53a.138.138 0 0 0-.105.13v1.364c0 .062.046.116.105.13l2.159.53c.115.48.293.939.529 1.357l-1.25 1.92a.136.136 0 0 0 .018.17l1.035 1.047a.133.133 0 0 0 .164.016l1.959-1.202c.384.224.985.404 1.424.524l.459 2.217a.13.13 0 0 0 .127.109h1.542a.13.13 0 0 0 .127-.11l.46-2.216c.438-.12 1.039-.3 1.423-.524l1.96 1.202c.052.032.12.028.163-.016l1.035-1.047a.136.136 0 0 0 .018-.17l-1.041-1.6-.129.02-.73-1.07A4.5 4.5 0 0 1 10.5 16.03a4.5 4.5 0 0 1-4.5-4.5 4.5 4.5 0 0 1 2.5-4.027V6.52a4.344 4.344 0 0 0-.781.329l-1.96-1.202a.145.145 0 0 0-.085-.021z"/><path style="opacity:.2;fill:#f4f4f7" d="M11 1A10 10 0 0 0 1 11v.5a10 10 0 0 1 10-10h9c.554 0 1 .446 1 1V2c0-.554-.446-1-1-1z"/></svg>