<svg xmlns="http://www.w3.org/2000/svg" width="22" height="22" version="1"><rect fill="#dcdcbe" width="20" height="20" x="1" y="1" rx="1" ry="1"/><path d="M2 1c-.37 0-.69.202-.862.5H2v2H1V4h1v2H1v.5h1v2H1V9h1v2H1v.5h1v2H1v.5h1v2H1v.5h1v2H1v.5h1v2h.5v-2h2v2H5v-2h2v2h.5v-2h2v2h.5v-2h2v2h.5v-2h2v2h.5v-2h2v2h.5v-2h2v2h.5v-2h1v-.5h-1v-2h1V16h-1v-2h1v-.5h-1v-2h1V11h-1V9h1v-.5h-1v-2h1V6h-1V4h1v-.5h-1v-2h.863A.995.995 0 0 0 20 1H2zm.5.5h2v2h-2v-2zm2.5 0h2v2H5v-2zm2.5 0h2v2h-2v-2zm2.5 0h2v2h-2v-2zm2.5 0h2v2h-2v-2zm2.5 0h2v2h-2v-2zm2.5 0h2v2h-2v-2zM2.5 4h2v2h-2V4zM5 4h2v2H5V4zm2.5 0h2v2h-2V4zM10 4h2v2h-2V4zm2.5 0h2v2h-2V4zM15 4h2v2h-2V4zm2.5 0h2v2h-2V4zm-15 2.5h2v2h-2v-2zm2.5 0h2v2H5v-2zm2.5 0h2v2h-2v-2zm2.5 0h2v2h-2v-2zm2.5 0h2v2h-2v-2zm2.5 0h2v2h-2v-2zm2.5 0h2v2h-2v-2zM2.5 9h2v2h-2V9zM5 9h2v2H5V9zm2.5 0h2v2h-2V9zM10 9h2v2h-2V9zm2.5 0h2v2h-2V9zM15 9h2v2h-2V9zm2.5 0h2v2h-2V9zm-15 2.5h2v2h-2v-2zm2.5 0h2v2H5v-2zm2.5 0h2v2h-2v-2zm2.5 0h2v2h-2v-2zm2.5 0h2v2h-2v-2zm2.5 0h2v2h-2v-2zm2.5 0h2v2h-2v-2zM2.5 14h2v2h-2v-2zM5 14h2v2H5v-2zm2.5 0h2v2h-2v-2zm2.5 0h2v2h-2v-2zm2.5 0h2v2h-2v-2zm2.5 0h2v2h-2v-2zm2.5 0h2v2h-2v-2zm-15 2.5h2v2h-2v-2zm2.5 0h2v2H5v-2zm2.5 0h2v2h-2v-2zm2.5 0h2v2h-2v-2zm2.5 0h2v2h-2v-2zm2.5 0h2v2h-2v-2zm2.5 0h2v2h-2v-2z" fill="#00008b" opacity=".1"/><path fill="#fff" opacity=".2" d="M2 1c-.554 0-1 .446-1 1v.5c0-.554.446-1 1-1h18c.554 0 1 .446 1 1V2c0-.554-.446-1-1-1H2z"/><path opacity=".2" d="M2 21.5c-.554 0-1-.446-1-1V20c0 .554.446 1 1 1h18c.554 0 1-.446 1-1v.5c0 .554-.446 1-1 1H2z"/><g fill="#ff2f2f"><path d="M1 11h2v.5H1zM4 11h2v.5H4zM7 11h2v.5H7zM10 11h2v.5h-2zM13 11h2v.5h-2zM16 11h2v.5h-2zM19 11h2v.5h-2z"/></g><path fill="none" stroke="#2e2e2e" stroke-linecap="round" stroke-linejoin="round" d="M3 14s5.397 3.507 7.5 2c4.073-2.919-3.75-10.906 1-12.5C14.636 2.448 18 10 18 10"/></svg>