<svg xmlns="http://www.w3.org/2000/svg" width="22" height="22"><path style="opacity:.2;fill-rule:evenodd" d="M11.024.5a.6.6 0 0 0-.543.297L8.687 3.874 5.43 2.442a.6.6 0 0 0-.837.609l.354 3.545-3.476.76a.6.6 0 0 0-.32.985l2.368 2.66-2.367 2.66a.6.6 0 0 0 .32.986l3.476.758-.353 3.545a.6.6 0 0 0 .837.61l3.257-1.433 1.795 3.076a.6.6 0 0 0 1.034 0l1.795-3.077 3.257 1.432a.6.6 0 0 0 .837-.61l-.354-3.544 3.476-.76a.6.6 0 0 0 .32-.985l-2.368-2.66 2.367-2.66a.6.6 0 0 0-.32-.986l-3.476-.758.353-3.545a.6.6 0 0 0-.837-.61l-3.257 1.434L11.516.797a.6.6 0 0 0-.492-.296z"/><path style="fill:#d6342a;fill-rule:evenodd" d="M11.024 0a.6.6 0 0 0-.543.297L8.687 3.374 5.43 1.942a.6.6 0 0 0-.837.609l.354 3.545-3.476.76a.6.6 0 0 0-.32.985l2.368 2.66-2.367 2.66a.6.6 0 0 0 .32.986l3.476.758-.353 3.545a.6.6 0 0 0 .837.61l3.257-1.433 1.795 3.076a.6.6 0 0 0 1.034 0l1.795-3.077 3.257 1.432a.6.6 0 0 0 .837-.61l-.354-3.544 3.476-.76a.6.6 0 0 0 .32-.985l-2.368-2.66 2.367-2.66a.6.6 0 0 0-.32-.986l-3.476-.758.353-3.545a.6.6 0 0 0-.837-.61l-3.257 1.434L11.516.297a.6.6 0 0 0-.492-.296z"/><path style="opacity:.2;fill-rule:evenodd" d="M6.672 4.5s.806 2.675.314 4.39C6.495 10.607 4 12.538 4 12.538s3.26.184 4.498 1c1.238.817 2.498 3.963 2.498 3.963s1.674-3.467 2.373-3.963c.7-.496 4.631-1.004 4.631-1.004s-2.873-2.791-3.117-3.57c-.245-.779.445-4.461.445-4.461S12.741 6.5 10.924 6.5c-1.817 0-4.252-2-4.252-2zM14 6.52c-.06.455-.12.924-.148 1.351-.034.495-.093.853.076 1.39.177.567.44.82.77 1.221.328.402.723.837 1.107 1.245.058.061.056.055.113.115-.075.013-.069.01-.145.023-.549.097-1.122.209-1.628.336-.507.127-.884.187-1.354.52-.47.333-.65.671-.928 1.101-.278.43-.56.927-.82 1.405l-.012.021c-.484-.913-1.038-1.922-1.982-2.545-.842-.555-1.879-.722-2.828-.873.684-.715 1.415-1.578 1.726-2.664.259-.902.14-1.784.043-2.611.84.476 1.82.945 2.934.945 1.15 0 2.19-.492 3.076-.98z"/><path style="fill:#f4f4f7;fill-rule:evenodd" d="M6.672 4s.806 2.675.314 4.39C6.495 10.107 4 12.038 4 12.038s3.26.184 4.498 1C9.736 13.854 10.996 17 10.996 17s1.674-3.467 2.373-3.963c.7-.496 4.631-1.004 4.631-1.004s-2.873-2.791-3.117-3.57c-.245-.779.445-4.461.445-4.461S12.741 6 10.924 6C9.107 6 6.672 4 6.672 4zM14 6.02c-.06.455-.12.924-.148 1.351-.034.495-.093.853.076 1.39.177.567.44.82.77 1.221.328.402.723.837 1.107 1.245.058.061.056.055.113.115-.075.013-.069.01-.145.023-.549.097-1.122.209-1.628.336-.507.127-.884.187-1.354.52-.47.333-.65.671-.928 1.101-.278.43-.56.927-.82 1.405l-.012.021c-.484-.913-1.038-1.922-1.982-2.545-.842-.555-1.879-.722-2.828-.873.684-.715 1.415-1.578 1.726-2.664.259-.902.14-1.784.043-2.611.84.476 1.82.945 2.934.945 1.15 0 2.19-.492 3.076-.98z"/><path style="opacity:.2;fill:#f4f4f7;fill-rule:evenodd" d="M11.023 0a.6.6 0 0 0-.54.297L8.686 3.373 5.43 1.941a.6.6 0 0 0-.836.61l.025.256a.6.6 0 0 1 .81-.366l3.258 1.432L10.482.797A.6.6 0 0 1 11.023.5a.6.6 0 0 1 .493.297l1.795 3.076 3.257-1.432a.6.6 0 0 1 .81.366l.026-.258a.6.6 0 0 0-.836-.608l-3.257 1.432L11.516.297A.6.6 0 0 0 11.023 0zM4.898 6.105l-3.427.75a.6.6 0 0 0-.416.836.6.6 0 0 1 .416-.336l3.476-.76zm12.202 0-.05.49 3.477.759a.6.6 0 0 1 .418.335.6.6 0 0 0-.418-.835zm1.603 4.645-.223.25 2.368 2.658a.6.6 0 0 1 .097.15.6.6 0 0 0-.097-.65zm-15.406.002-2.145 2.41a.6.6 0 0 0-.097.649.6.6 0 0 1 .097-.149l2.368-2.66zm1.601 4.643-.302 3.056a.6.6 0 0 0 .025.242l.326-3.289zm12.204 0-.05.01.329 3.285a.6.6 0 0 0 .025-.24z"/></svg>