<svg xmlns="http://www.w3.org/2000/svg" width="22" height="22" version="1"><path style="fill:#35454c" d="M4 5c-.554 0-1 .446-1 1v12c0 .554.446 1 1 1h9l2 2 2-2h3c.554 0 1-.446 1-1V6c0-.554-.446-1-1-1z"/><path style="opacity:.1;fill:#f4f4f7" d="M4 5c-.554 0-1 .446-1 1v.5c0-.554.446-1 1-1h16c.554 0 1 .446 1 1V6c0-.554-.446-1-1-1z"/><path style="opacity:.2" d="M3 18v.5c0 .554.446 1 1 1h9l2 2 2-2h3c.554 0 1-.446 1-1V18c0 .554-.446 1-1 1h-3l-2 2-2-2H4c-.554 0-1-.446-1-1zM1.574 1.5A.573.573 0 0 0 1 2.074v9.852c0 .318.256.574.574.574H4v-8h4v-3zM9 1.5v11h2.426a.573.573 0 0 0 .574-.574V2.074a.573.573 0 0 0-.574-.574zm-4 4v7h3v-7z"/><path style="fill:#16a085" d="M1.574 1A.573.573 0 0 0 1 1.574v9.852c0 .318.256.574.574.574H4V4h4V1zM9 1v11h2.426a.573.573 0 0 0 .574-.574V1.574A.573.573 0 0 0 11.426 1zM5 5v7h3V5z"/><path style="opacity:.2;fill:#f4f4f7" d="M1.574 1A.573.573 0 0 0 1 1.574v.5c0-.318.256-.574.574-.574H8V1zM9 1v.5h2.426c.318 0 .574.256.574.574v-.5A.573.573 0 0 0 11.426 1zM5 5v.5h3V5z"/></svg>