<svg xmlns="http://www.w3.org/2000/svg" width="22" height="22" version="1"><path fill="#4f4f4f" d="M21 11a10 10 0 0 1-10 10A10 10 0 0 1 1 11 10 10 0 0 1 11 1a10 10 0 0 1 10 10z"/><path fill="#fff" opacity=".1" d="M11 1A10 10 0 0 0 1 11a10 10 0 0 0 .01.291A10 10 0 0 1 11 1.5a10 10 0 0 1 9.989 9.709 10 10 0 0 0 .01-.209A10 10 0 0 0 11 1z"/><path opacity=".2" d="M20.99 11.209A10 10 0 0 1 11 21a10 10 0 0 1-9.989-9.709A10 10 0 0 0 1 11.5a10 10 0 0 0 10 10 10 10 0 0 0 10-10 10 10 0 0 0-.01-.291z"/><path opacity=".2" d="M11 4.5a7 7 0 0 0-7 7 7 7 0 0 0 7 7 7 7 0 0 0 7-7 7 7 0 0 0-7-7zm0 3a4 4 0 0 1 4 4 4 4 0 0 1-4 4 4 4 0 0 1-4-4 4 4 0 0 1 4-4z"/><path fill="#fff" d="M11 4a7 7 0 0 0-7 7 7 7 0 0 0 7 7 7 7 0 0 0 7-7 7 7 0 0 0-7-7zm0 3a4 4 0 0 1 4 4 4 4 0 0 1-4 4 4 4 0 0 1-4-4 4 4 0 0 1 4-4z"/></svg>