<svg xmlns="http://www.w3.org/2000/svg" width="22" height="22" version="1"><rect style="opacity:.2" width="20" height="20" x="1" y="1.5" rx="6" ry="6"/><rect style="fill:#4f4f4f" width="20" height="20" x="1" y="1" rx="6" ry="6"/><path style="opacity:.1;fill:#f4f4f7" d="M7 1C3.676 1 1 3.676 1 7v.5c0-3.324 2.676-6 6-6h8c3.324 0 6 2.676 6 6V7c0-3.324-2.676-6-6-6z"/><path style="opacity:.2;fill-rule:evenodd" d="M11 4.5c-3.86 0-7 3.14-7 7s3.14 7 7 7 7-3.14 7-7-3.14-7-7-7zm0 1c3.319 0 6 2.681 6 6s-2.681 6-6 6-6-2.681-6-6 2.681-6 6-6zm-3 3v2h1v-2zm5 0v2h1v-2zm-4.32 4.832-.707.707.353.354a3.782 3.782 0 0 0 5.348 0l.353-.354-.707-.707-.353.354a2.78 2.78 0 0 1-3.934 0z"/><path style="fill:#d4d4d4;fill-rule:evenodd" d="M11 4c-3.86 0-7 3.14-7 7s3.14 7 7 7 7-3.14 7-7-3.14-7-7-7zm0 1c3.319 0 6 2.681 6 6s-2.681 6-6 6-6-2.681-6-6 2.681-6 6-6z"/><path style="fill:none;stroke:#d4d4d4;stroke-linecap:square" d="M13.32 13.539A3.281 3.281 0 0 1 11 14.5a3.281 3.281 0 0 1-2.32-.961"/><path style="fill:#d4d4d4" d="M8 8h1v2H8zM13 8h1v2h-1z"/><path style="opacity:.2;fill:#f4f4f7;fill-rule:evenodd" d="M11 4c-3.86 0-7 3.14-7 7 0 .084.01.166.014.25C4.147 7.506 7.224 4.5 11 4.5s6.853 3.006 6.986 6.75c.003-.084.014-.166.014-.25 0-3.86-3.14-7-7-7zM8 8v.5h1V8zm5 0v.5h1V8zm-7.986 3.25c-.004.083-.014.166-.014.25 0 3.319 2.681 6 6 6s6-2.681 6-6c0-.084-.01-.167-.014-.25A5.987 5.987 0 0 1 11 17a5.987 5.987 0 0 1-5.986-5.75zm3.666 1.582-.707.707.25.25.457-.457.353.354a2.78 2.78 0 0 0 3.934 0l.353-.354.457.457.25-.25-.707-.707-.353.354a2.78 2.78 0 0 1-3.934 0z"/></svg>