<svg xmlns="http://www.w3.org/2000/svg" width="22" height="22" version="1"><path style="fill:#b7b7b7" d="M4 2h14v7H4z"/><path style="opacity:.2;fill:#f4f4f7" d="M4 2v.5h14V2z"/><rect fill="#4f4f4f" width="20" height="12" x="1" y="8" rx="1" ry="1"/><path style="opacity:.4" d="M5 10h12v2H5zM6 13h10v2H6zM7 16h8v2H7z"/><path opacity=".2" d="M1 19v.5c0 .554.446 1 1 1h18c.554 0 1-.446 1-1V19c0 .554-.446 1-1 1H2c-.554 0-1-.446-1-1z"/><circle fill="#3cd240" cx="16" cy="16" r="6"/><path style="fill:#f4f4f7" d="m13 16 3 4 3-4h-2v-4h-2v4z"/><path style="opacity:.5" d="M5 4h4v2H5zM13 4h4v2h-4z"/></svg>