<svg xmlns="http://www.w3.org/2000/svg" width="22" height="22"><path style="opacity:.2" d="M2.428 4.5c-1.11 0-2.03.764-2.323 1.807-.008.027-.024.05-.03.078-.007.024-.005.051-.01.076-.008.034-.02.065-.026.1.005-.011.013-.019.018-.03A2.551 2.551 0 0 0 0 7v9c0 1.385 1.082 2.5 2.428 2.5h12.144C15.918 18.5 17 17.385 17 16v-2.414l4.28 1.8c.431.219.713.115.72-.261V7.867c.004-.381-.398-.46-.72-.263L17 9.762V7c0-1.385-1.082-2.5-2.428-2.5z"/><path style="fill:#6f7a9c" d="m2.847 4.503 11.76-.072c1.345-.008 1.894.793 1.835 2.177l-.384 8.892c-.06 1.384-.874 1.83-2.22 1.818L2.604 17.21C1.258 17.197 0 16.885 0 15.5v-9c0-.213.026-.42.074-.616.265-1.085 1.635-1.374 2.773-1.381zM21.28 7.104 16.984 9.27c-.399.27-.72 1.331-.72 1.748.018.35.247 1.74.72 2.062l4.294 1.808c.432.218.714.112.72-.264V7.367c.005-.381-.397-.46-.72-.263z"/><path style="fill:#565f7c" d="M2.429 4c-1.2 0-2.188.887-2.39 2.06a1.519 1.519 0 0 1 1.395-.942c.253.002.532.072.825.219l11.217 5.614 1.434-.84c1.093-.548 1.976-1.958 2.09-3.261V6.5C17 5.115 15.917 4 14.571 4z"/><path style="opacity:.1;fill:#f4f4f7" d="M21.53 7.008a.723.723 0 0 0-.25.096L16.985 9.27c-.399.27-.722 1.33-.722 1.748.003.053.02.164.033.257.076-.49.349-1.275.69-1.505l4.292-2.166c.323-.197.725-.118.721.263v-.5c.003-.286-.222-.402-.47-.36z"/><path style="fill:#434a61" d="M17 6.85c-.114 1.303-.997 2.713-2.09 3.261l-1.566.785-11.085 5.56a2.04 2.04 0 0 1-.62.203h-.002a.902.902 0 0 1-.022.003h-.002a1.545 1.545 0 0 1-.067.007h-.002l-.022.002a1.283 1.283 0 0 1-.529-.072 1.158 1.158 0 0 1-.398-.258c-.22-.22-.489-.544-.595-.952v.111C0 16.885 1.083 18 2.429 18H14.57C15.917 18 17 16.885 17 15.5z"/><path style="opacity:.2" d="M5 7.21v8.37l8.344-4.184.011-.005z"/><path style="fill:#f4f4f7" d="M5 6.71v8.37l8.344-4.184.011-.005z"/><path style="opacity:.1;fill:#f4f4f7" d="M2.428 4C1.228 4 .24 4.888.039 6.06c.113-.267.296-.475.506-.632A2.386 2.386 0 0 1 2.428 4.5h12.144c1.315 0 2.37 1.066 2.418 2.406.002-.019.008-.038.01-.056V6.5C17 5.115 15.918 4 14.572 4z"/></svg>