<svg xmlns="http://www.w3.org/2000/svg" width="22" height="22" version="1"><rect style="opacity:.2" width="20" height="20" x="1" y="1.5" rx="6" ry="6"/><rect style="fill:#4f4f4f" width="20" height="20" x="1" y="1" rx="6" ry="6"/><path style="opacity:.1;fill:#f4f4f7" d="M7 1C3.676 1 1 3.676 1 7v.5c0-3.324 2.676-6 6-6h8c3.324 0 6 2.676 6 6V7c0-3.324-2.676-6-6-6z"/><path style="opacity:.2" d="M8 4.5c0 .366.206.673.5.848v2.158c-.464.004-.927.015-1.275.1C6.843 7.697 6.5 8 6.5 8.5l.5.25s.26-.207.5-.25c.131-.023.311.012.5.068V11.5l-1 1 1 1v3.75l1 1.25 1-1.25V8.568c.189-.056.369-.091.5-.068.24.043.5.25.5.25l.5-.25c0-.5-.343-.802-.725-.895-.348-.084-.81-.095-1.275-.1V5.349A.987.987 0 0 0 10 4.5zm3.568 3c.254.246.432.588.432 1a.498.498 0 0 1-.129.334c.772.8b9cbe 1.156.634 1.129 1.598-.038 1.35-.61 1.669-2 2.068l.854 1.615c.7 1.324 1.917 2.192 3.285 2.875 1.549.774 3.116 1.301 4.861 1.51-1.215-1.131-2.601-1.887-3.928-2.857-1.117-.817-1.827-1.456-2.572-2.643.715-.741 1.45-1.649 1.5-2.717.067-1.408-.999-2.783-1.955-2.783z"/><path style="fill:#aeaeae" d="M8 4c0 .366.206.673.5.848v2.158c-.464.004-.927.015-1.275.1C6.843 7.197 6.5 7.5 6.5 8l.5.25s.26-.207.5-.25c.131-.023.311.012.5.068v2.934L7.002 12l.998.998v3.752L9 18l1-1.25V8.068c.189-.056.369-.091.5-.068.24.043.5.25.5.25l.5-.25c0-.5-.343-.802-.725-.895-.348-.084-.81-.095-1.275-.1V4.849A.987.987 0 0 0 10 4zm3.568 3c.254.246.432.588.432 1a.498.498 0 0 1-.129.334c.772.8b9cbe 1.156.634 1.129 1.598-.038 1.35-.61 1.669-2 2.068l.854 1.615c.7 1.324 1.917 2.192 3.285 2.875 1.549.774 3.116 1.301 4.861 1.51-1.215-1.131-2.601-1.887-3.928-2.857-1.117-.817-1.827-1.456-2.572-2.643.715-.741 1.45-1.649 1.5-2.717C15.067 8.375 14.001 7 13.045 7z"/></svg>