<svg xmlns="http://www.w3.org/2000/svg" width="22" height="22" version="1"><path style="opacity:.2" d="M21 11.5a10 10 0 0 1-10 10 10 10 0 0 1-10-10 10 10 0 0 1 10-10 10 10 0 0 1 10 10z"/><path style="fill:#4f4f4f" d="M21 11a10 10 0 0 1-10 10A10 10 0 0 1 1 11 10 10 0 0 1 11 1a10 10 0 0 1 10 10z"/><path style="opacity:.1;fill:#f4f4f7" d="M11 1A10 10 0 0 0 1 11a10 10 0 0 0 .01.291A10 10 0 0 1 11 1.5a10 10 0 0 1 9.99 9.709A10 10 0 0 0 21 11 10 10 0 0 0 11 1z"/><path style="opacity:.2" d="M11 6.5a2 2 0 0 0-2 2 2 2 0 0 0 2 2 2 2 0 0 0 2-2 2 2 0 0 0-2-2zm0 5.5a3 3 0 0 0-3 3v6.037a10 10 0 0 0 2 .412v-3.625A3 3 0 0 0 11 18a3 3 0 0 0 3-3 3 3 0 0 0-3-3z"/><path style="fill:#f99c32" d="M8 14.5v6.037a10 10 0 0 0 2 .412V14.5z"/><circle style="fill:#e4701d" cx="11" cy="8" r="2"/><circle style="fill:#f99c32" cx="11" cy="14.5" r="3"/><path style="opacity:.2;fill:#f4f4f7" d="M11 6a2 2 0 0 0-2 2 2 2 0 0 0 .018.256A2 2 0 0 1 11 6.5a2 2 0 0 1 1.982 1.744A2 2 0 0 0 13 8a2 2 0 0 0-2-2zm0 5.5a3 3 0 0 0-3 3v.5a3 3 0 0 1 3-3 3 3 0 0 1 2.986 2.756A3 3 0 0 0 14 14.5a3 3 0 0 0-3-3z"/></svg>