<svg xmlns="http://www.w3.org/2000/svg" width="22" height="22" version="1"><rect style="fill:#c2352a" width="20" height="20" x="1" y="1" rx="1" ry="1"/><path style="opacity:.2;fill:#f4f4f7" d="M2 1c-.554 0-1 .446-1 1v.5c0-.554.446-1 1-1h18c.554 0 1 .446 1 1V2c0-.554-.446-1-1-1z"/><path style="opacity:.2" d="M2 21.5c-.554 0-1-.446-1-1V20c0 .554.446 1 1 1h18c.554 0 1-.446 1-1v.5c0 .554-.446 1-1 1zM4 7.5c-.022.205.102.835.433 1.546.931 1.367 2.26 1.48 3.567 2.273.14.156.194.232-.874.685-1.67.707-2.72 1.31-3.04 2.2-.095.263-.138.959-.072 1.134.086.227.439.225 2.052-.068 1.62-.294 1.697-.311 1.832-.434.247-.25.194-.572.291-1.144.097-.325.342-.664.609-.844 1.01-.681 3.213-.142 4.243.904.388.393.632.611.826 1.222.112.352.226.505.403.539 1.423-.457 1.907-.443 3.62-1.013.146-.108.146-.465.001-.902-.248-.751-.677-1.098-1.474-1.676-.394-.285-.892-.556-1.734-.942-.802-.367-.777-.516-.683-.58.691-.613 2.944-.81 2.987-1.814 0-.455-.09-.822-.23-.941-.185-.159-.383-.164-1.161-.029-2.497.432-2.48.415-2.596.595.16.6.15.718-.189.993-.248.223-1.208.313-1.785.313-.697 0-1.423-.23-1.946-.762-.377-.385-.57-.909-.827-1.594-.226-.601-.257-.665-.489-.66-1.217.296-2.52.664-3.764.999z"/><path style="fill:#f4f4f7" d="M4 7c-.022.205.102.835.433 1.546.931 1.367 2.26 1.48 3.567 2.273.14.156.194.232-.874.684-1.67.708-2.72 1.31-3.04 2.2-.095.264-.138.96-.072 1.135.086.227.439.225 2.052-.068 1.62-.294 1.697-.311 1.832-.434.247-.25.194-.572.291-1.144.097-.325.342-.664.609-.844 1.01-.681 3.213-.142 4.243.903.388.394.632.612.826 1.223.112.352.226.505.403.539 1.423-.457 1.907-.443 3.62-1.013.146-.108.146-.465.001-.902-.248-.751-.677-1.098-1.474-1.676-.394-.285-.892-.556-1.734-.942-.802-.367-.777-.516-.683-.58.691-.613 2.944-.81 2.987-1.814 0-.455-.09-.822-.23-.941-.185-.159-.383-.164-1.161-.029-2.497.432-2.48.415-2.596.595.16.599.15.718-.189.993-.248.223-1.208.313-1.785.313-.697 0-1.423-.23-1.946-.762-.377-.385-.57-.909-.827-1.594-.226-.601-.257-.665-.489-.661-1.217.297-2.52.665-3.764 1z"/></svg>