<svg xmlns="http://www.w3.org/2000/svg" width="22" height="22" version="1"><path style="opacity:.2" d="M12.941.5a2 2 0 0 0-1.355.585L8.172 4.498H6a2 2 0 0 0-2 2v10a2 2 0 0 0 2 1.999h1v1c0 1.78 2.154 2.673 3.414 1.414l3.414-3.414H16a2 2 0 0 0 2-2V5.498a2 2 0 0 0-2-2h-1v-1A2 2 0 0 0 12.941.502z"/><path style="fill:#4f4f4f" d="M12.941 0a2 2 0 0 0-1.355.585L8.172 3.998H6a2 2 0 0 0-2 2v10a2 2 0 0 0 2 1.999h1v1c0 1.78 2.154 2.673 3.414 1.414l3.414-3.414H16a2 2 0 0 0 2-2V4.998a2 2 0 0 0-2-2h-1v-1A2 2 0 0 0 12.941.002z"/><path style="opacity:.3" d="M13 2 9 6H6v10h3v3l4-4h3V5h-3z"/><path style="opacity:.2" d="M7 7.5v6h2v-3l4 4h2v-6h-2v3l-4-4z"/><path style="fill:#f4f4f7" d="M7 7v6h2v-3l4 4h2V8h-2v3L9 7z"/><path style="opacity:.1;fill:#f4f4f7" d="M12.941 0a2 2 0 0 0-1.355.584L8.172 3.998H6a2 2 0 0 0-2 2v.5a2 2 0 0 1 2-2h2.172l3.414-3.414A2 2 0 0 1 15 2.498v-.5A2 2 0 0 0 12.941 0zM15 2.998v.5h1a2 2 0 0 1 2 2v-.5a2 2 0 0 0-2-2z"/></svg>