<svg xmlns="http://www.w3.org/2000/svg" width="22" height="22"><path style="opacity:.2" d="M3.375 10.5c-.76 0-1.375.68-1.375 1.517v7.966c0 .838.616 1.517 1.375 1.517h8.25c.76 0 1.375-.68 1.375-1.517V12.017c0-.838-.616-1.517-1.375-1.517z"/><path style="fill:#ffeb3b" d="M3.375 10C2.615 10 2 10.68 2 11.517v7.966C2 20.32 2.616 21 3.375 21h8.25c.76 0 1.375-.68 1.375-1.517V11.517C13 10.68 12.384 10 11.625 10z"/><path style="opacity:.1" d="M5.474 5.5C4.66 5.5 4 6.197 4 7.056V17.944c0 .86.66 1.556 1.474 1.556h11.052c.814 0 1.474-.697 1.474-1.556V7.056c0-.86-.66-1.556-1.474-1.556z"/><path style="opacity:.2;fill:#f4f4f7" d="M3.375 10C2.615 10 2 10.68 2 11.518v.5c0-.838.616-1.518 1.375-1.518h8.25c.76 0 1.375.68 1.375 1.518v-.5C13 10.68 12.384 10 11.625 10z"/><path style="fill:#ff9800" d="M5.474 5C4.66 5 4 5.697 4 6.556V17.444C4 18.304 4.66 19 5.474 19h11.052C17.34 19 18 18.303 18 17.444V6.556C18 5.696 17.34 5 16.526 5z"/><path style="opacity:.2;fill:#f4f4f7" d="M5.475 5C4.66 5 4 5.696 4 6.555v.5c0-.86.66-1.555 1.475-1.555h11.05C17.34 5.5 18 6.196 18 7.055v-.5C18 5.695 17.34 5 16.525 5z"/><path style="opacity:.1" d="M7.429 2.5C6.639 2.5 6 3.14 6 3.929V16.07c0 .79.64 1.429 1.429 1.429H19.57c.79 0 1.429-.64 1.429-1.429V3.93c0-.79-.64-1.429-1.429-1.429z"/><path style="fill:#d546e6" d="M7.429 2C6.639 2 6 2.64 6 3.429V15.57C6 16.361 6.64 17 7.429 17H19.57c.79 0 1.429-.64 1.429-1.429V3.43C21 2.639 20.36 2 19.571 2z"/><path style="opacity:.2" d="M13.6 5.505c.146.01.29.025.433.048 1.216.168 2.314.8 3.053 1.756 1.524 1.98 1.095 4.816-.936 6.301-2.033 1.485-4.943 1.066-6.466-.914a.74.74 0 0 1-.145-.444v-.75h.77c.245 0 .476.114.625.304 1.025 1.332 2.936 1.585 4.302.585a2.928 2.928 0 0 0 .602-4.191c-1.027-1.333-2.938-1.585-4.305-.587-.33.243-.992 1.046-1.193 1.387h1.406c.425 0 .746.34.754.754v.75H8V5.5h.77c.424 0 .73.341.73.756V7.52c.892-1.325 2.476-2.092 4.1-2.015z"/><path style="fill:#ffc9ff" d="M13.6 5.005c.146.01.29.025.433.048 1.216.168 2.314.8 3.053 1.756 1.524 1.98 1.095 4.816-.936 6.301-2.033 1.485-4.943 1.066-6.466-.914a.74.74 0 0 1-.145-.444v-.75h.77c.245 0 .476.114.625.304 1.025 1.332 2.936 1.585 4.302.585a2.928 2.928 0 0 0 .602-4.191c-1.027-1.333-2.938-1.585-4.305-.587-.33.243-.992 1.046-1.193 1.387h1.406c.425 0 .746.34.754.754v.75H8V5h.77c.424 0 .73.341.73.756V7.02c.892-1.325 2.476-2.092 4.1-2.015z"/><path style="opacity:.2;fill:#f4f4f7" d="M7.429 2C6.639 2 6 2.64 6 3.429v.5c0-.79.64-1.429 1.429-1.429H19.57c.79 0 1.429.64 1.429 1.429v-.5C21 2.639 20.36 2 19.571 2zM8 5v.5h.77c.425 0 .73.342.73.756v-.5C9.5 5.342 9.195 5 8.77 5zm5.602.006c-1.625-.077-3.21.688-4.102 2.014v.5c.892-1.326 2.477-2.091 4.102-2.014.145.009.288.024.431.047 1.216.168 2.314.8 3.053 1.756.543.705.827 1.52.89 2.341a4.354 4.354 0 0 0-.89-2.841 4.664 4.664 0 0 0-3.053-1.756 4.468 4.468 0 0 0-.431-.047zM10.715 8.5c-.145.184-.306.383-.375.5h1.406c.425 0 .746.34.754.754v-.5a.755.755 0 0 0-.754-.754zm5.726 1.244a2.93 2.93 0 0 1-1.205 2.147c-1.366.999-3.278.748-4.302-.584a.797.797 0 0 0-.625-.305h-.77v.5h.77c.245 0 .476.114.625.305 1.024 1.332 2.936 1.583 4.302.584a2.922 2.922 0 0 0 1.205-2.647z"/></svg>