<svg xmlns="http://www.w3.org/2000/svg" width="22" height="22" viewBox="0 0 44 44"><g transform="translate(0 -1008.4)"><circle fill="#fa4b8c" cx="22" cy="1030.4" r="20"/><path opacity=".2" d="M18.199 1011.8c-.513.094-1.021.21-1.525.344a20 20 0 0 0-3.717 1.443 20.004 20.004 0 0 0-4.856 3.473l-.183.195c.399 2.737 2.433 6.07 4.576 8.63a11 11 0 0 0-1.493 5.5 11 11 0 0 0 .049.962c-3.132-1.615-6.422-4.289-7.9-7.457-.074.192-.146.385-.213.58a19.943 19.943 0 0 0-.791 3.908c-.067.663-.1 1.326-.1 1.992 0 .178.013.356.017.533a20 20 0 0 0 .956 4.704c2.564.91 6.29.817 9.462.263a11 11 0 0 0 4.899 4.485c-2.722 1.75-6.282 3.15-9.543 3.134a20 20 0 0 0 9.818 5.403c1.81-1.843 3.356-4.782 4.354-7.506a11 11 0 0 0 6.332-2.027c.15 3.094-.35 6.708-1.834 9.488a20 20 0 0 0 9.44-5.127c-.627-2.576-2.47-5.534-4.417-7.858a11 11 0 0 0 1.47-5.6 11 11 0 0 0-.054-1.007c3.016 1.548 6.168 4.086 7.73 7.1a20 20 0 0 0 1.295-6.505c-.006-.338-.011-.677-.035-1.015a19.944 19.944 0 0 0-.24-1.98 19.983 19.983 0 0 0-.395-1.757c-3.122-1.112-6.894-.863-9.797-.347a11 11 0 0 0-4.892-4.461c2.967-1.917 6.947-3.445 10.445-3.14-.232-.28-.471-.55-.717-.815-.464-.478-.95-.933-1.46-1.362a19.98 19.98 0 0 0-1.589-1.207 19.987 19.987 0 0 0-1.701-1.045 20 20 0 0 0-3.674-1.552 19.16 19.16 0 0 0-.719-.184c-2.17 1.715-4.038 5.143-5.183 8.277a11 11 0 0 0-.014 0 11 11 0 0 0-6.31 2.006c-.173-3.526.497-7.731 2.51-10.606z"/><path fill="#fff" d="M18.199 1010.8c-.513.094-1.021.21-1.525.344a20 20 0 0 0-3.717 1.443 20.004 20.004 0 0 0-4.856 3.473l-.183.195c.399 2.737 2.433 6.07 4.576 8.63a11 11 0 0 0-1.493 5.5 11 11 0 0 0 .049.962c-3.132-1.615-6.422-4.289-7.9-7.457-.074.192-.146.385-.213.58a19.943 19.943 0 0 0-.791 3.908 19.938 19.938 0 0 0 .19 5.387c.106.588.237 1.171.394 1.748 2.567 1.023 6.463.931 9.752.357a11 11 0 0 0 4.898 4.485c-2.963 1.904-6.924 3.418-10.406 3.115.231.278.47.549.717.814a19.991 19.991 0 0 0 6.549 4.48c.613.26 1.238.49 1.875.686.24.066.481.127.724.184 2.162-1.71 4.025-5.122 5.17-8.248a11 11 0 0 0 6.332-2.027c.17 3.525-.5 7.726-2.51 10.598.513-.094 1.024-.21 1.528-.344a19.982 19.982 0 0 0 5.447-2.438 19.93 19.93 0 0 0 3.123-2.478l.183-.195c-.399-2.74-2.436-6.078-4.582-8.64a11 11 0 0 0 1.471-5.5 11 11 0 0 0-.054-1.007c3.143 1.613 6.45 4.294 7.935 7.475.074-.193.145-.386.213-.58a19.967 19.967 0 0 0 .602-9.295 19.983 19.983 0 0 0-.395-1.756c-3.122-1.113-6.894-.864-9.797-.348a11 11 0 0 0-4.892-4.46c2.967-1.917 6.947-3.445 10.445-3.141-.232-.279-.471-.55-.717-.815a19.98 19.98 0 0 0-3.049-2.568 19.987 19.987 0 0 0-1.701-1.045 20 20 0 0 0-3.674-1.553 19.16 19.16 0 0 0-.719-.183c-2.17 1.715-4.038 5.143-5.183 8.277a11 11 0 0 0-.014 0 11 11 0 0 0-6.31 2.006c-.172-3.527.497-7.732 2.51-10.606z"/><path fill="#fa4b8c" d="M18.634 1024.4c-.348-.01-.634.287-.634.655v10.689c0 .504.516.819.93.567l4.38-2.672 4.38-2.673a.674.674 0 0 0 0-1.134l-4.38-2.672-4.38-2.673a.599.599 0 0 0-.296-.088z"/><path fill="#fff" opacity=".2" d="M22 1010.4a20 20 0 0 0-20 20 20 20 0 0 0 .021.582 20 20 0 0 1 19.98-19.582 20 20 0 0 1 19.978 19.418 20 20 0 0 0 .022-.418 20 20 0 0 0-20-20z"/><path opacity=".2" d="M41.979 1030.8A20 20 0 0 1 22 1050.4a20 20 0 0 1-19.978-19.5 20 20 0 0 0-.022.5 20 20 0 0 0 20 20 20 20 0 0 0 20-20 20 20 0 0 0-.021-.582z"/></g></svg>