<svg xmlns="http://www.w3.org/2000/svg" width="22" height="22" version="1"><path style="opacity:.2" d="M20 20.5v-18c0-.554-.474-1-1.063-1H4.063C3.474 1.5 3 1.946 3 2.5v18c0 .554.474 1 1.063 1h14.875c.588 0 1.062-.446 1.062-1z"/><path style="fill:#f4f4f7" d="M20 20V2c0-.554-.474-1-1.063-1H4.063C3.474 1 3 1.446 3 2v18c0 .554.474 1 1.063 1h14.875c.588 0 1.062-.446 1.062-1z"/><path style="opacity:.1" d="M6 3c-.554 0-1 .446-1 1v4c0 .554.446 1 1 1h4c.554 0 1-.446 1-1V4c0-.554-.446-1-1-1zm6 0v1h6V3zm0 3v1h6V6zm0 3v1h6V9zm-7 3v1h13v-1zm0 3v1h13v-1zm0 3v1h13v-1z"/><path style="opacity:.1" d="M13.644 1.503c-1.372.01-1.585-.011-3.1 0-1.266 1.156-2.338 2.69-3.215 4.435-1.354 2.695-1.676 4.97-.955 6.836.722 1.865 2.377 3.035 4.96 3.513 2.713.502 5.23.119 7.549-1.16.355-.195.78-.412 1.113-.642-.007-.933.012-1.601 0-2.984a12.595 12.595 0 0 1-2.833 2.713c-1.74 1.22-3.54 1.655-5.404 1.31-1.773-.328-2.814-1.299-3.12-2.914-.294-1.622.186-3.678 1.441-6.176 1.03-2.048 2.216-3.735 3.564-4.93z"/><path style="fill:#218ed4" d="M13.644 1.003c-1.372.01-1.585-.011-3.1 0-1.266 1.156-2.338 2.69-3.215 4.435-1.354 2.695-1.676 4.97-.955 6.836.722 1.865 2.377 3.035 4.96 3.513 2.713.502 5.23.119 7.549-1.16.355-.195.78-.412 1.113-.642-.007-.933.012-1.601 0-2.984a12.595 12.595 0 0 1-2.833 2.713c-1.74 1.22-3.54 1.655-5.404 1.31-1.773-.328-2.814-1.299-3.12-2.914-.294-1.622.186-3.678 1.441-6.176 1.03-2.048 2.216-3.735 3.564-4.93z"/><path style="opacity:.2;fill:#f4f4f7" d="M4.063 1C3.473 1 3 1.446 3 2v.5c0-.554.474-1 1.063-1h14.875c.588 0 1.062.446 1.062 1V2c0-.554-.474-1-1.063-1z"/></svg>