<svg xmlns="http://www.w3.org/2000/svg" width="22" height="22" version="1"><path opacity=".2" d="M1 19v.5c0 .554.446 1 1 1h18c.554 0 1-.446 1-1V19c0 .554-.446 1-1 1H2c-.554 0-1-.446-1-1z"/><path fill="#fff" opacity=".05" d="M4 24v14c0 1.108.892 2 2 2h36c1.108 0 2-.892 2-2V24z"/><rect fill="#4f4f4f" width="18" height="20" x="-20" y="-21" rx="1" ry="1" transform="matrix(0 -1 -1 0 0 0)"/><path fill="#fff" opacity=".2" d="M1 4V3c0-.554.446-1 1-1h18c.554 0 1 .446 1 1v1c0-.554-.446-1-1-1H2c-.554 0-1 .446-1 1z"/><path opacity=".2" d="M2 2c-.554 0-1 .446-1 1v3h20V3c0-.554-.446-1-1-1z"/><path opacity=".2" d="M2 2c-.554 0-1 .446-1 1v1h20V3c0-.554-.446-1-1-1z"/><path fill="#fff" opacity=".2" d="M2 2c-.554 0-1 .446-1 1v3h5V4L4 2z"/><path fill="#fff" fill-rule="evenodd" opacity=".2" d="m8.5 4-2-2H9l2 2zM8.5 4l-2 2H9l2-2zM13.5 4l-2-2H14l2 2zM13.5 4l-2 2H14l2-2zM18.5 4l-2-2H19l2 2zM18.5 4l-2 2H19l2-2z"/><path opacity=".2" d="M6 8.5h6c1 0 1 1 1 1v6c0 1-1 1-1 1H6s-1 0-1-1v-6s0-1 1-1zm11 1v6l-4-3z"/><path fill="#bababa" d="M6 8h6c1 0 1 1 1 1v6c0 1-1 1-1 1H6s-1 0-1-1V9s0-1 1-1zm11 1v6l-4-3z"/></svg>