<svg xmlns="http://www.w3.org/2000/svg" width="22" height="22" version="1"><path style="opacity:.2" d="m7 20.5-2-2H2.5c-.831 0-1.5-.669-1.5-1.5V5c0-.831.669-1.5 1.5-1.5h17c.831 0 1.5.669 1.5 1.5v12c0 .831-.669 1.5-1.5 1.5H17l-2 2z"/><path style="fill:#2c80c2" d="m7 20-2-2H2.5c-.831 0-1.5-.669-1.5-1.5v-12C1 3.669 1.669 3 2.5 3h17c.831 0 1.5.669 1.5 1.5v12c0 .831-.669 1.5-1.5 1.5H17l-2 2z"/><path style="opacity:.5" d="m9 17-2.25-2H4V6h14v9h-3l-2 2z"/><g style="fill:#f8c44e"><path d="M7 8h1V6H7zM9 8h1V6H9zM11 8h1V6h-1zM13 8h1V6h-1zM15 8h1V6h-1z"/></g><path style="opacity:.2;fill:#f4f4f7" d="M2.5 3C1.669 3 1 3.669 1 4.5V5c0-.831.669-1.5 1.5-1.5h17c.831 0 1.5.669 1.5 1.5v-.5c0-.831-.669-1.5-1.5-1.5zM4 15v.5h2.75l2.25 2h4l2-2h3V15h-3l-2 2H9l-2.25-2z"/></svg>