<svg xmlns="http://www.w3.org/2000/svg" width="22" height="22" version="1"><path fill="#ec6295" d="M11 3C8.152 3 5.728 4.844 4.684 7.454 2.033 7.871 0 10.262 0 13.182 0 16.395 2.462 19 5.5 19h11.688C19.846 19 22 16.721 22 13.909c0-2.613-1.858-4.754-4.254-5.046C17.121 5.528 14.337 3 11 3z"/><path opacity=".2" d="m15 7.5-6 2v4.27a2 2 0 0 0-1-.27 2 2 0 0 0-2 2 2 2 0 0 0 2 2 2 2 0 0 0 2-2v-5.334l4-1.332v2.935a2 2 0 1 0 1 1.73v-6z"/><path fill="#fff" d="M15 7 9 9v4.27A2 2 0 0 0 8 13a2 2 0 0 0-2 2 2 2 0 0 0 2 2 2 2 0 0 0 2-2V9.666l4-1.332v2.935a2 2 0 1 0 1 1.73v-6z"/><path fill="#fff" opacity=".2" d="M11 3C8.152 3 5.728 4.845 4.684 7.455 2.033 7.872 0 10.262 0 13.182c0 .107.01.212.016.318.084-2.835 2.073-5.137 4.668-5.545C5.728 5.345 8.153 3.5 11 3.5c3.337 0 6.121 2.528 6.746 5.863 2.34.285 4.155 2.34 4.238 4.87.007-.108.016-.214.016-.323 0-2.613-1.857-4.755-4.254-5.046C17.121 5.528 14.337 3 11 3z"/><path opacity=".2" d="M.016 13.5c-.002.062-.016.119-.016.182C0 16.895 2.462 19.5 5.5 19.5h11.688c2.658 0 4.812-2.279 4.812-5.09 0-.061-.014-.117-.016-.178-.158 2.66-2.242 4.768-4.796 4.768H5.5C2.564 19 .173 16.565.016 13.5z"/></svg>