<svg xmlns="http://www.w3.org/2000/svg" width="22" height="22" version="1"><path style="fill:#ffa923" d="M16 6v2.5c0 1.385-1.115 2.5-2.5 2.5h-5S6 11 6 13.5v4.375C6 19.606 7.951 21 10.375 21h1.25C14.049 21 16 19.606 16 17.875V17h-5v-1h6.875C19.606 16 21 14.049 21 11.625v-1.25C21 7.951 19.606 6 17.875 6z"/><path style="opacity:.2" d="M13.5 19.5a.5.5 0 0 1 .5.5.5.5 0 0 1-.5.5.5.5 0 0 1-.5-.5.5.5 0 0 1 .5-.5z"/><path style="fill:#f4f4f7" d="M13.5 19a.5.5 0 0 1 .5.5.5.5 0 0 1-.5.5.5.5 0 0 1-.5-.5.5.5 0 0 1 .5-.5z"/><path style="opacity:.2" d="M10.375 1.5C7.951 1.5 6 2.894 6 4.625V5.5h5v1H4.125C2.394 6.5 1 8.451 1 10.875v1.25C1 14.549 2.394 16.5 4.125 16.5H6V14c0-1.385 1.115-2.5 2.5-2.5h5S16 11.5 16 9V4.625C16 2.894 14.049 1.5 11.625 1.5z"/><path style="fill:#3084e0" d="M10.375 1C7.951 1 6 2.394 6 4.125V5h5v1H4.125C2.394 6 1 7.951 1 10.375v1.25C1 14.049 2.394 16 4.125 16H6v-2.5C6 12.115 7.115 11 8.5 11h5S16 11 16 8.5V4.125C16 2.394 14.049 1 11.625 1z"/><path style="opacity:.2" d="M8.5 2.5A.5.5 0 0 1 9 3a.5.5 0 0 1-.5.5A.5.5 0 0 1 8 3a.5.5 0 0 1 .5-.5z"/><path style="fill:#f4f4f7" d="M8.5 2a.5.5 0 0 1 .5.5.5.5 0 0 1-.5.5.5.5 0 0 1-.5-.5.5.5 0 0 1 .5-.5z"/><path style="opacity:.2;fill:#f4f4f7" d="M10.375 1C7.951 1 6 2.394 6 4.125v.5C6 2.894 7.951 1.5 10.375 1.5h1.25C14.049 1.5 16 2.894 16 4.625v-.5C16 2.394 14.049 1 11.625 1zm-6.25 5C2.394 6 1 7.951 1 10.375v.5C1 8.451 2.394 6.5 4.125 6.5H11V6H6zM16 6v.5h1.875C19.606 6.5 21 8.451 21 10.875v-.5C21 7.951 19.606 6 17.875 6zm-5 11v.5h5V17z"/><path style="opacity:.2" d="M21 11.625C21 14.049 19.606 16 17.875 16H11v.5h6.875c1.731 0 3.125-1.951 3.125-4.375zm-15 6.25v.5c0 1.731 1.951 3.125 4.375 3.125h1.25c2.424 0 4.375-1.394 4.375-3.125v-.5C16 19.606 14.049 21 11.625 21h-1.25C7.951 21 6 19.606 6 17.875z"/></svg>