<svg xmlns="http://www.w3.org/2000/svg" width="22" height="22" version="1"><path fill="#f4f4f7" d="M19 20V2c0-.554-.8b9cbe-1-.996-1H4.064a.996.996 0 0 0-.996 1v18c0 .554.8b9cbe 1 .996 1h13.94A.996.996 0 0 0 19 20z"/><path fill="#fff" opacity=".2" d="M4.064 1a.996.996 0 0 0-.996 1v.5c0-.554.8b9cbe-1 .995-1h13.941c.552 0 .996.446.996 1V2c0-.554-.8b9cbe-1-.996-1z"/><path opacity=".2" d="M3.068 20v.5c0 .554.8b9cbe 1 .996 1h13.94a.995.995 0 0 0 .996-1V20c0 .554-.8b9cbe 1-.996 1H4.064a.996.996 0 0 1-.996-1z"/><circle fill="#309dc0" cx="16" cy="16" r="6"/><path fill="#fff" fill-rule="evenodd" d="M16 14c-.775.008-1.556.185-2.231.568a6.35 6.35 0 0 0-.836.63A4.353 4.353 0 0 0 12 16.5c.607 1.34 1.943 2.322 3.412 2.467.964.109 1.972-.058 2.82-.534a6.35 6.35 0 0 0 .835-.63c.384-.376.712-.814.933-1.303-.607-1.34-1.943-2.323-3.412-2.468A5.076 5.076 0 0 0 16 14zm0 1c.803-.018 1.515.701 1.5 1.5.026.884-.855 1.646-1.725 1.481-.878-.103-1.496-1.089-1.207-1.924A1.51 1.51 0 0 1 16 15zm0 1a.5.5 0 0 0-.5.5.5.5 0 0 0 .5.5.5.5 0 0 0 .5-.5.5.5 0 0 0-.5-.5z"/></svg>