<svg xmlns="http://www.w3.org/2000/svg" width="22" height="22" version="1"><rect style="opacity:.2" width="20" height="20" x="1" y="1.5" rx="1" ry="1"/><path style="fill:#cf4f8c" d="M11 1H2c-.554 0-1 .446-1 1v9h10z"/><path style="fill:#6655e4" d="M11 1h9c.554 0 1 .446 1 1v9H11z"/><path style="fill:#ff8c2a" d="M11 21H2c-.554 0-1-.446-1-1v-9h10z"/><path style="fill:#cf4f8c" d="M11 21h9c.554 0 1-.446 1-1v-9H11z"/><path style="fill:#17191e" d="M4 4h14v14H4z"/><path style="opacity:.2;fill:none;stroke:#000;stroke-linecap:round" d="M6.5 15h4"/><path style="fill:none;stroke:#f4f4f7;stroke-linecap:round" d="M6.5 14.5h4"/><path style="opacity:.2;fill:none;stroke:#000;stroke-linecap:round;stroke-linejoin:bevel" d="M10.5 11s2.022.175 2-2c-.022-2.175-2-2-2-2m0 4V7"/><path style="fill:none;stroke:#f4f4f7;stroke-linecap:round;stroke-linejoin:bevel" d="M10.5 10.5s2.022.175 2-2c-.022-2.175-2-2-2-2m0 4v-4"/><path style="opacity:.2;fill:none;stroke:#000;stroke-linecap:round" d="m8.5 11-1-1.5m-1-.5s2 .232 2-1-2-1-2-1m0 4V7"/><path style="fill:none;stroke:#f4f4f7;stroke-linecap:round" d="M8.5 10.5 7.5 9m-1-.5s2 .232 2-1-2-1-2-1m0 4v-4"/><path style="opacity:.2;fill:#f4f4f7" d="M2 1c-.554 0-1 .446-1 1v.5c0-.554.446-1 1-1h18c.554 0 1 .446 1 1V2c0-.554-.446-1-1-1z"/></svg>