<svg xmlns="http://www.w3.org/2000/svg" width="22" height="22"><path style="opacity:.2" d="M3.05 5.2 1.542 7.8C.537 9.53 17.945 19.53 18.95 17.799l1.508-2.598C21.463 13.47 4.055 3.47 3.05 5.201"/><path style="fill:#009688" d="M3.05 4.7 1.542 7.3C.537 9.03 17.945 19.03 18.95 17.299l1.508-2.598C21.463 12.97 4.055 2.97 3.05 4.701"/><path style="opacity:.1;fill:#f4f4f7" d="M3.736 4.507c-.354-.028-.592.032-.686.194L1.542 7.3c-.066.113-.049.264.033.442l1.475-2.54c.94-1.619 16.202 7.008 17.375 9.558l.033-.058c.91-1.57-13.3-9.93-16.722-10.194z"/><path style="opacity:.2" d="M18.95 5.2 20.458 7.8c1.005 1.732-16.403 11.732-17.408 10l-1.508-2.598C.537 13.47 17.945 3.47 18.95 5.201"/><path style="fill:#601ab8" d="M18.95 4.7 20.458 7.3c1.005 1.732-16.403 11.732-17.408 10l-1.508-2.598C.537 12.97 17.945 2.97 18.95 4.701"/><path style="opacity:.1;fill:#f4f4f7" d="M18.264 4.507C14.843 4.77.63 13.13 1.542 14.7l.033.058C2.748 12.209 18.011 3.582 18.95 5.2l1.475 2.54c.082-.178.099-.329.033-.442L18.95 4.7c-.094-.162-.332-.222-.686-.194z"/><path style="opacity:.2" d="m12.478 1.507-3-.007c-2-.004-1.956 19.989.044 19.993l3 .007c2 .004 1.956-19.99-.044-19.993"/><path style="fill:#2176f3" d="m12.478 1.007-3-.007c-2-.004-1.956 19.989.044 19.993l3 .007c2 .004 1.956-19.99-.044-19.993"/><path style="opacity:.2;fill:#f4f4f7" d="M9.479 1C8.465.998 7.978 6.134 8.003 11.201c.008-4.898.495-9.703 1.476-9.701l3 .007c.986.002 1.494 4.864 1.518 9.792.009-5.094-.499-10.29-1.518-10.292z"/></svg>