<svg xmlns="http://www.w3.org/2000/svg" width="22" height="22"><path style="opacity:.2" d="M11 1.5c-5.518 0-10 4.482-10 10s4.482 10 10 10 10-4.482 10-10-4.482-10-10-10z"/><path style="fill:#4f4f4f" d="M11 1C5.482 1 1 5.482 1 11s4.482 10 10 10 10-4.482 10-10S16.518 1 11 1z"/><path style="opacity:.1;fill:#f4f4f7" d="M11 1C5.482 1 1 5.482 1 11c0 .084.004.167.006.25C1.139 5.848 5.566 1.5 11 1.5s9.86 4.348 9.994 9.75c.002-.083.006-.166.006-.25 0-5.518-4.482-10-10-10z"/><path style="opacity:.2" d="M11 3.5c-4.414 0-8 3.586-8 8s3.586 8 8 8 8-3.586 8-8-3.586-8-8-8z"/><path style="fill:#6e6eee" d="M11 3c-4.414 0-8 3.586-8 8s3.586 8 8 8 8-3.586 8-8-3.586-8-8-8z"/><path style="fill:#994a8a" d="M11 3c-4.414 0-8 3.586-8 8h8z"/><path style="opacity:.1;fill:#f4f4f7" d="M11 3c-4.414 0-8 3.586-8 8 0 .084.01.166.013.25C3.146 6.952 6.67 3.5 11 3.5s7.854 3.452 7.987 7.75c.003-.084.013-.166.013-.25 0-4.414-3.586-8-8-8z"/><path style="opacity:.1" d="M11 9.5c-1.104 0-2 .896-2 2s.896 2 2 2 2-.896 2-2-.896-2-2-2z"/><path style="fill:none;stroke:#f4f4f7;stroke-width:2;stroke-linecap:round;stroke-linejoin:round" d="M11 1v10"/><path style="fill:#4f4f4f" d="M11 9c-1.104 0-2 .896-2 2s.896 2 2 2 2-.896 2-2-.896-2-2-2z"/></svg>