<svg xmlns="http://www.w3.org/2000/svg" width="22" height="22" version="1"><rect fill="#4f4f4f" width="20" height="20" x="1" y="1" rx="1" ry="1"/><path fill="#fff" opacity=".1" d="M2 1c-.554 0-1 .446-1 1v.5c0-.554.446-1 1-1h18c.554 0 1 .446 1 1V2c0-.554-.446-1-1-1H2z"/><path opacity=".2" d="M2 21.5c-.554 0-1-.446-1-1V20c0 .554.446 1 1 1h18c.554 0 1-.446 1-1v.5c0 .554-.446 1-1 1H2z"/><path fill="none" stroke="#000" stroke-linecap="round" stroke-linejoin="round" stroke-width="2.5" opacity=".2" d="M14.75 7.75v-1.5h-7.5v2.5l7.5 5.5v2.5h-7.5v-1.5"/><path fill="none" stroke="#ff5151" stroke-linecap="round" stroke-linejoin="round" stroke-width="2.5" d="M14.75 7.25v-1.5h-7.5v2.5l7.5 5.5v2.5h-7.5v-1.5"/></svg>