<svg xmlns="http://www.w3.org/2000/svg" width="22" height="22" version="1"><rect fill="#5450e3" width="20" height="19.998" x="-21" y="-21" rx="10" ry="9.999" transform="matrix(0 -1 -1 0 0 0)"/><path fill="#fff" opacity=".2" d="M11 1a9.978 9.978 0 0 0-9.999 10c0 .084-.002.167 0 .25C1.133 5.827 5.544 1.5 11 1.5s9.867 4.327 9.999 9.75c.002-.083 0-.166 0-.25 0-5.54-4.459-10-9.999-10z"/><path opacity=".2" d="M1.006 11.25c-.002.084-.006.166-.006.25 0 5.54 4.46 10 10 10s10-4.46 10-10c0-.084-.004-.167-.006-.25C20.862 16.673 16.456 21 11 21s-9.862-4.327-9.994-9.75z"/><g opacity=".2"><path d="m5 14 6 2 6-2v2l-6 2-6-2z"/><path d="m5 10.5 6 2 6-2v2l-6 2-6-2z"/><path d="M11 5 5 7v2l6 2 6-2V7z"/></g><g fill="#b49eff"><path d="m5 13.5 6 2 6-2v2l-6 2-6-2z"/><path d="m5 10 6 2 6-2v2l-6 2-6-2z"/><path d="m11 4.5-6 2v2l6 2 6-2v-2z"/></g></svg>