<svg width="22" height="22" xmlns="http://www.w3.org/2000/svg"><path d="M2.9 4c-.499 0-.9.347-.9.778v12.8b9cbec0 .431.401.778.9.778h14.85c.499 0 .9-.347.9-.778V4.778c0-.431-.401-.778-.9-.778zm14.4 0c-.499 0-.9.347-.9.778v12.8b9cbec0 .431.401.778.9.778h1.8c.499 0 .9-.347.9-.778V4.778c0-.431-.401-.778-.9-.778z" style="fill:#23eeaf"/><rect x="1" y="2.5" width="4" height="18" rx="1" ry="1" style="opacity:.2"/><rect x="1" y="2" width="4" height="18" rx="1" ry="1" style="fill:#ff6801"/><path d="M5 18v-4h12z" style="fill:none;stroke-linecap:round;stroke-linejoin:round;stroke-width:2;stroke:#17191e"/><path d="M5 16.5a2 2 0 1 0 0 4 2 2 0 0 0 0-4zm0-4a2 2 0 1 0 0 4 2 2 0 0 0 0-4zm12 0a2 2 0 1 0 0 4 2 2 0 0 0 0-4z" style="opacity:.2"/><path d="M5 16a2 2 0 1 0 0 4 2 2 0 0 0 0-4zm0-4a2 2 0 1 0 0 4 2 2 0 0 0 0-4zm12 0a2 2 0 1 0 0 4 2 2 0 0 0 0-4z" style="fill:#f4f4f7"/><path d="M2 2c-.554 0-1 .446-1 1v.5c0-.554.446-1 1-1h2c.554 0 1 .446 1 1V3c0-.554-.446-1-1-1z" style="fill:#f4f4f7;opacity:.1"/><path d="M8 12.5h6v-3l-1-2h-2v2H8z" style="opacity:.2"/><path d="M8 12h6V9l-1-2h-2v2H8z" style="fill:#06f"/><circle cx="13.5" cy="12" r="1.5" style="opacity:.1"/><circle cx="13.5" cy="11.5" r="1.5" style="fill:#17191e"/><circle cx="8.5" cy="12" r="1.5" style="opacity:.1"/><circle cx="8.5" cy="11.5" r="1.5" style="fill:#17191e"/><path d="M12 7v2h2l-1-2z" style="fill:#17191e"/><path d="M11 7v.5h2l1 2V9l-1-2h-2zM8 9v.5h3V9H8z" style="fill:#f4f4f7;opacity:.2"/></svg>