<svg xmlns="http://www.w3.org/2000/svg" width="22" height="22" version="1"><path fill="#a57959" d="M10.999 9.73c-.303.176-.648.269-.999.27v4.258l-1.183-1.183A1 1 0 0 1 8 13.5a1 1 0 0 1-.014.158L10 15.672v3.02C8.826 19.07 8 19.96 8 21h6.5c0-1.04-.826-1.93-2-2.308v-.985l2.018-2.018a1 1 0 0 1-.018-.188 1 1 0 0 1 .135-.501 1 1 0 0 1-.005-.01 1 1 0 0 1-.13.01 1 1 0 0 1-.545-.161L12.5 16.293V9.936a1.988 1.988 0 0 1-.5.066c-.352-.001-.697-.094-1-.271z"/><path fill="#fff" opacity=".2" d="M10.999 9.73c-.303.176-.648.269-.999.27v.5c.351-.001.696-.094.999-.27A2 2 0 0 0 12 10.5c.171 0 .339-.024.5-.066v-.5a1.966 1.966 0 0 1-1.501-.204zm-2.182 3.345A1 1 0 0 1 8 13.5a1 1 0 0 1-.013.158l.298.299a1 1 0 0 0 .532-.382L10 14.758v-.5l-1.183-1.183zm5.138 1.763L12.5 16.293v.5l1.455-1.455a1 1 0 0 0 .545.162 1 1 0 0 1 .135-.501 1 1 0 0 1-.005-.009 1 1 0 0 1-.13.01 1 1 0 0 1-.545-.162zM10 18.692C8.826 19.07 8 19.96 8 21h.073c.218-.818.948-1.493 1.927-1.808v-.5zm2.5 0v.5c.98.315 1.71.99 1.927 1.808h.073c0-1.04-.826-1.93-2-2.308z"/><path opacity=".2" d="M8.285 13.957A1 1 0 0 1 8 14a1 1 0 0 1-.013.158L10 16.172v-.5l-1.715-1.715zm6.345 1.533a1 1 0 0 1-.13.01 1 1 0 0 0 .018.189L12.5 17.706v.5l2.019-2.018a1 1 0 0 1-.018-.188 1 1 0 0 1 .135-.501 1 1 0 0 1-.005-.009zM8.073 21a1.943 1.943 0 0 0-.073.5h6.5c0-.172-.03-.338-.073-.5H8.073z"/><path fill="#1c8d43" d="M10.736 2c-.558 0-1.094.212-1.488.588a2.207 2.207 0 0 0-.617-.088c-1.163 0-2.106.895-2.106 2 0 .471.178.927.498 1.287A1.983 1.983 0 0 0 6 7.5c.001.932.679 1.74 1.635 1.947.22.908 1.069 1.551 2.049 1.553.37-.001.733-.093 1.052-.27.32.177.683.27 1.053.27.759 0 1.46-.388 1.832-1.016 1.057-.121 1.853-.973 1.854-1.984a1.98 1.98 0 0 0-.01-.172c.344-.365.534-.838.535-1.328-.001-.932-.679-1.74-1.635-1.947-.199-.821-.919-1.436-1.799-1.537C12.193 2.389 11.494 2 10.736 2zM8 12a1 1 0 0 0-1 1 1 1 0 0 0 .135.5A1 1 0 0 0 7 14a1 1 0 0 0 1 1 1 1 0 0 0 1-1 1 1 0 0 0 1-1 1 1 0 0 0-1-1 1 1 0 0 0-.5.135A1 1 0 0 0 8 12zm6 1.5a1 1 0 0 0-1 1 1 1 0 0 0 1 1 1 1 0 0 0 .13-.01 1 1 0 0 0 .005.008A1 1 0 0 0 14 16a1 1 0 0 0 1 1 1 1 0 0 0 1-1 1 1 0 0 0-.135-.5A1 1 0 0 0 16 15a1 1 0 0 0-1-1 1 1 0 0 0-.131.01 1 1 0 0 0-.87-.51z"/><path fill="#fff" opacity=".2" d="M10.736 2c-.558 0-1.094.212-1.488.588A2.211 2.211 0 0 0 8.63 2.5c-1.163 0-2.106.895-2.106 2 0 .09.013.178.025.266C6.675 3.773 7.553 3 8.63 3c.21 0 .418.03.618.088.394-.376.93-.587 1.488-.588.758.001 1.457.389 1.83 1.016.88.101 1.6.716 1.799 1.537.866.188 1.498.87 1.611 1.69.011-.081.024-.161.024-.243 0-.932-.679-1.74-1.635-1.947-.199-.821-.919-1.436-1.799-1.537C12.193 2.389 11.494 2 10.736 2zM6.791 5.96c-.488.377-.79.933-.791 1.54 0 .102.012.2.027.299a1.982 1.982 0 0 1 .996-1.512 2.01 2.01 0 0 1-.232-.326zM8 12a1 1 0 0 0-1 1 1 1 0 0 0 .033.25A1 1 0 0 1 8 12.5a1 1 0 0 1 .5.135A1 1 0 0 1 9 12.5a1 1 0 0 1 .967.75A1 1 0 0 0 10 13a1 1 0 0 0-1-1 1 1 0 0 0-.5.135A1 1 0 0 0 8 12zm6 1.5a1 1 0 0 0-1 1 1 1 0 0 0 .033.25A1 1 0 0 1 14 14a1 1 0 0 1 .87.51 1 1 0 0 1 .13-.01 1 1 0 0 1 .967.75A1 1 0 0 0 16 15a1 1 0 0 0-1-1 1 1 0 0 0-.13.01 1 1 0 0 0-.87-.51zm-6.967.25A1 1 0 0 0 7 14a1 1 0 0 0 .033.25 1 1 0 0 1 .102-.25 1 1 0 0 1-.102-.25zm8.934 2a1 1 0 0 1-.102.25 1 1 0 0 1 .102.25A1 1 0 0 0 16 16a1 1 0 0 0-.033-.25zm-1.836.24A1 1 0 0 1 14 16a1 1 0 0 0 .033.25 1 1 0 0 1 .102-.252 1 1 0 0 1-.004-.008z"/><path opacity=".2" d="M6.55 4.766c-.009.078-.025.154-.025.234 0 .339.095.668.266.96.077-.058.146-.124.232-.173a1.95 1.95 0 0 1-.472-1.021zm9.427 1.976a1.944 1.944 0 0 1-.512 1.086c.006.057.01.115.01.172-.001 1.011-.797 1.863-1.854 1.984-.374.628-1.074 1.016-1.833 1.016-.37 0-.733-.093-1.053-.27a2.184 2.184 0 0 1-1.052.27c-.98-.002-1.83-.645-2.049-1.553C6.783 9.262 6.155 8.6 6.026 7.8 6.02 7.866 6 7.93 6 8c.001.932.68 1.74 1.635 1.947.22.908 1.069 1.551 2.049 1.553.37-.001.733-.093 1.052-.27.32.177.683.27 1.053.27.76 0 1.46-.388 1.832-1.016 1.057-.12 1.853-.973 1.854-1.984a1.98 1.98 0 0 0-.01-.172c.344-.365.534-.837.535-1.328 0-.088-.012-.172-.023-.257zM7.033 13.25A1 1 0 0 0 7 13.5a1 1 0 0 0 .033.25 1 1 0 0 1 .101-.25 1 1 0 0 1-.101-.25zm2.933 0A1 1 0 0 1 9 14a1 1 0 0 1-1 1 1 1 0 0 1-.967-.75A1 1 0 0 0 7 14.5a1 1 0 0 0 1 1 1 1 0 0 0 1-1 1 1 0 0 0 1-1 1 1 0 0 0-.034-.25zm3.067 1.5A1 1 0 0 0 13 15a1 1 0 0 0 1 1 1 1 0 0 1 .135-.502 1 1 0 0 1-.004-.008 1 1 0 0 1-.131.01 1 1 0 0 1-.967-.75zm2.933.5a1 1 0 0 1-.102.25 1 1 0 0 1 .102.25A1 1 0 0 0 16 15.5a1 1 0 0 0-.033-.25zm-1.933 1a1 1 0 0 0-.033.25 1 1 0 0 0 1 1 1 1 0 0 0 1-1 1 1 0 0 0-.033-.25A1 1 0 0 1 15 17a1 1 0 0 1-.967-.75z"/></svg>