<svg xmlns="http://www.w3.org/2000/svg" width="22" height="22"><rect style="opacity:.2" width="20" height="20" x="1" y="1.5" rx="1" ry="1"/><rect style="fill:#55448e" width="20" height="20" x="1" y="1" rx="1" ry="1"/><path style="opacity:.1;fill:#f4f4f7" d="M2 1c-.554 0-1 .446-1 1v.5c0-.554.446-1 1-1h18c.554 0 1 .446 1 1V2c0-.554-.446-1-1-1z"/><path style="opacity:.2" d="M4.633 18.47c-.01-.016.187-.256.438-.534 1.708-1.893 1.955-2.212 2.15-2.77.06-.177.126-.326.145-.333.02-.006.127.11.239.26.112.149.4.505.64.791.241.29.421.534.404.55-.017.016-.15.069-.295.117s-.41.171-.587.272c-.356.204-.84.621-.797.69.02.031.869.041 3.638.041 3.213 0 3.621-.006 3.69-.054.043-.03.078-.082.078-.115s-.123-.233-.274-.8b9cbel-1.407-1.977A2911.973 2911.973 0 0 0 6.52 6.318C5.671 5.13 5.507 4.92 5.303 4.756c-.13-.104-.236-.204-.236-.223 0-.019.148-.033.343-.033.313 0 .35.007.415.079.04.043 1.966 2.748 4.282 6.01l4.887 6.885c.372.523.677.968.677.988 0 .045-11.01.053-11.038.008zm11.212-.26c-1.309-1.802-9.75-13.664-9.74-13.684.009-.014 2.4-.026 5.316-.026 4.557 0 5.3.007 5.3.05 0 .027-.248.282-.551.567-1.41 1.323-2.02 2.008-2.32 2.606-.077.152-.16.276-.183.275-.065-.002-1.092-1.396-1.055-1.432a2.84 2.84 0 0 1 .277-.161c.351-.19.751-.476.92-.66.16-.173.175-.212.092-.244-.03-.012-1.265-.021-2.742-.021-2.608 0-2.689.002-2.748.067-.033.037-.055.09-.049.116.007.026.272.42.59.877.615.884.671.964 1.294 1.847a331.49 331.49 0 0 1 1.068 1.52c.371.53.65.936 1.263 1.843.217.32.471.69.565.822.194.272 1.533 2.222 2.493 3.632l.876 1.285c.262.384.425.571.693.795.1.083.173.166.162.183-.01.018-.31.032-.665.032h-.647z"/><path style="fill:#f4f4f7" d="M4.633 17.97c-.01-.016.187-.256.438-.533 1.708-1.894 1.955-2.213 2.15-2.771.06-.177.126-.326.145-.333.02-.006.127.11.239.26.112.149.4.505.64.791.241.29.421.534.404.55-.017.016-.15.069-.295.117s-.41.171-.587.272c-.356.204-.84.621-.797.69.02.031.869.041 3.638.041 3.213 0 3.621-.006 3.69-.054.043-.03.078-.082.078-.115s-.123-.233-.274-.8b9cbel-1.407-1.977A2911.973 2911.973 0 0 0 6.52 5.818C5.671 4.63 5.507 4.42 5.303 4.256c-.13-.104-.236-.204-.236-.222 0-.02.148-.034.343-.034.313 0 .35.007.415.079.04.043 1.966 2.748 4.282 6.01l4.887 6.885c.372.523.677.968.677.988 0 .045-11.01.053-11.038.008zm11.212-.26c-1.309-1.802-9.75-13.664-9.74-13.684.009-.014 2.4-.026 5.316-.026 4.557 0 5.3.007 5.3.05 0 .027-.248.282-.551.567-1.41 1.323-2.02 2.008-2.32 2.606-.077.152-.16.276-.183.275-.065-.002-1.092-1.396-1.055-1.432a2.84 2.84 0 0 1 .277-.161c.351-.19.751-.476.92-.66.16-.173.175-.212.092-.244-.03-.012-1.265-.021-2.742-.021-2.608 0-2.689.002-2.748.067-.033.037-.055.09-.049.116.007.026.272.42.59.877.615.884.671.964 1.294 1.847a331.49 331.49 0 0 1 1.068 1.52c.371.53.65.936 1.263 1.843.217.32.471.69.565.822.194.272 1.533 2.222 2.493 3.632l.876 1.285c.262.384.425.571.693.795.1.083.173.166.162.183-.01.018-.31.032-.665.032h-.647z"/></svg>