<svg xmlns="http://www.w3.org/2000/svg" width="22" height="22"><path style="fill:#48aeff" d="M11 1A10 10 0 0 0 1 11a10 10 0 0 0 10 10 10 10 0 0 0 10-10A10 10 0 0 0 11 1z"/><path style="opacity:.2" d="M1.01 11.209A10 10 0 0 0 1 11.5a10 10 0 0 0 10 10 10 10 0 0 0 10-10 10 10 0 0 0-.01-.209A10 10 0 0 1 11 21a10 10 0 0 1-9.989-9.791z"/><path style="opacity:.2;fill:#f4f4f7" d="M11 1A10 10 0 0 0 1 11a10 10 0 0 0 .01.209A10 10 0 0 1 11 1.5a10 10 0 0 1 9.99 9.791A10 10 0 0 0 21 11 10 10 0 0 0 11 1z"/><path style="opacity:.2" d="M14 6.5c-.554 0-1 .446-1 1v5h-1.335a.665.495 0 0 0-.576.743l2.335 3.009a.665.495 0 0 0 .54.247.665.495 0 0 0 .612-.247l2.335-3.009a.665.495 0 0 0-.576-.743H15v-5c0-.554-.446-1-1-1zm-6.036.001a.665.495 0 0 0-.54.247L5.089 9.757a.665.495 0 0 0 .576.743H7v5c0 .554.446 1 1 1s1-.446 1-1v-5h1.335a.665.495 0 0 0 .576-.743L8.576 6.748a.665.495 0 0 0-.612-.247z"/><g transform="matrix(.5 0 0 .5 -1 -2)"><rect style="fill:#f4f4f7" width="4" height="18" x="16" y="18" ry="2"/><path style="fill:#f4f4f7" d="M17.929 16.001a1.33.99 0 0 0-1.081.494l-4.67 6.02A1.33.99 0 0 0 13.331 24h9.338a1.33.99 0 0 0 1.153-1.486l-4.67-6.019a1.33.99 0 0 0-1.223-.494z"/></g><g transform="matrix(.5 0 0 -.5 5 24)"><rect style="fill:#f4f4f7" width="4" height="18" x="16" y="18" ry="2"/><path style="fill:#f4f4f7" d="M17.929 16.001a1.33.99 0 0 0-1.081.494l-4.67 6.02A1.33.99 0 0 0 13.331 24h9.338a1.33.99 0 0 0 1.153-1.486l-4.67-6.019a1.33.99 0 0 0-1.223-.494z"/></g></svg>