<svg xmlns="http://www.w3.org/2000/svg" width="22" height="22"><path style="opacity:.2" d="M12 7.5a7 7 0 0 0-7 7 7 7 0 0 0 7 7 7 7 0 0 0 7-7 7 7 0 0 0-7-7z"/><path style="fill:#ba122b" d="M12 7a7 7 0 0 0-7 7 7 7 0 0 0 7 7 7 7 0 0 0 7-7 7 7 0 0 0-7-7z"/><path style="opacity:.2" d="M12 1.5a6 6 0 0 0-6 6 6 6 0 0 0 6 6 6 6 0 0 0 6-6 6 6 0 0 0-6-6z"/><path style="fill:#e9314e" d="M12 1a6 6 0 0 0-6 6 6 6 0 0 0 6 6 6 6 0 0 0 6-6 6 6 0 0 0-6-6z"/><path style="opacity:.2;fill:#f4f4f7" d="M12 1a6 6 0 0 0-6 6 6 6 0 0 0 .01.203A6 6 0 0 1 12 1.5a6 6 0 0 1 5.99 5.797A6 6 0 0 0 18 7a6 6 0 0 0-6-6z"/><path style="opacity:.2" d="M7.5 5.5A4.5 4.5 0 0 0 3 10a4.5 4.5 0 0 0 4.5 4.5A4.5 4.5 0 0 0 12 10a4.5 4.5 0 0 0-4.5-4.5z"/><path style="fill:#ef6e82" d="M7.5 5A4.5 4.5 0 0 0 3 9.5 4.5 4.5 0 0 0 7.5 14 4.5 4.5 0 0 0 12 9.5 4.5 4.5 0 0 0 7.5 5z"/><g style="opacity:.2"><path d="M7.5 6.5A3.5 3.5 0 0 0 4 10a3.5 3.5 0 0 0 3.5 3.5A3.5 3.5 0 0 0 11 10a3.5 3.5 0 0 0-3.5-3.5zm0 1A2.5 2.5 0 0 1 10 10a2.5 2.5 0 0 1-2.5 2.5A2.5 2.5 0 0 1 5 10a2.5 2.5 0 0 1 2.5-2.5z"/><path d="M12 8.5a6 6 0 0 0-6 6 6 6 0 0 0 6 6 6 6 0 0 0 6-6 6 6 0 0 0-6-6zm0 1a5 5 0 0 1 5 5 5 5 0 0 1-5 5 5 5 0 0 1-5-5 5 5 0 0 1 5-5z"/><path d="M12 2.5a5 5 0 0 0-5 5 5 5 0 0 0 5 5 5 5 0 0 0 5-5 5 5 0 0 0-5-5zm0 1a4 4 0 0 1 4 4 4 4 0 0 1-4 4 4 4 0 0 1-4-4 4 4 0 0 1 4-4z"/></g><path style="fill:#f4f4f7" d="M8.5 7A3.5 3.5 0 0 0 5 10.5 3.5 3.5 0 0 0 8.5 14a3.5 3.5 0 0 0 3.5-3.5A3.5 3.5 0 0 0 8.5 7zm0 1a2.5 2.5 0 0 1 2.5 2.5A2.5 2.5 0 0 1 8.5 13 2.5 2.5 0 0 1 6 10.5 2.5 2.5 0 0 1 8.5 8z" transform="translate(-1 -1)"/><path style="fill:#f4f4f7" d="M13 9a6 6 0 0 0-6 6 6 6 0 0 0 6 6 6 6 0 0 0 6-6 6 6 0 0 0-6-6zm0 1a5 5 0 0 1 5 5 5 5 0 0 1-5 5 5 5 0 0 1-5-5 5 5 0 0 1 5-5z" transform="translate(-1 -1)"/><path style="fill:#f4f4f7" d="M13 3a5 5 0 0 0-5 5 5 5 0 0 0 5 5 5 5 0 0 0 5-5 5 5 0 0 0-5-5zm0 1a4 4 0 0 1 4 4 4 4 0 0 1-4 4 4 4 0 0 1-4-4 4 4 0 0 1 4-4z" transform="translate(-1 -1)"/><path style="opacity:.1;fill:#f4f4f7" d="M7.5 5A4.5 4.5 0 0 0 3 9.5a4.5 4.5 0 0 0 .01.212A4.5 4.5 0 0 1 7.5 5.5a4.5 4.5 0 0 1 4.49 4.288A4.5 4.5 0 0 0 12 9.5 4.5 4.5 0 0 0 7.5 5z"/></svg>