<svg xmlns="http://www.w3.org/2000/svg" width="22" height="22"><circle style="fill:#222c62" cx="6" cy="11.5" r="5"/><circle style="fill:#222c62" cx="16" cy="11.5" r="5"/><circle style="fill:#222c62" cx="11" cy="14" r="5"/><circle style="fill:#222c62" cx="8.5" cy="7" r="5"/><circle style="fill:#222c62" cx="14.5" cy="8" r="5"/><path style="opacity:.2" d="M7.49 8.498a.5.5 0 0 0-.176.967L8.652 10l-1.338.535a.5.5 0 1 0 .372.93l2.5-1a.5.5 0 0 0 0-.93l-2.5-1a.5.5 0 0 0-.196-.037zm3.016 3.496a.5.5 0 0 0-.36.856s.195.192.504.347c.31.156.767.303 1.356.303.588 0 1.044-.147 1.353-.303.31-.155.504-.347.504-.347a.5.5 0 1 0-.717-.7s-.048.058-.236.153c-.187.094-.48.197-.904.197-.424 0-.719-.103-.906-.197-.188-.095-.237-.153-.237-.153a.5.5 0 0 0-.357-.156z"/><path style="fill:none;stroke:#f4f4f7;stroke-linecap:round;stroke-linejoin:round" d="m7.5 8.5 2.5 1-2.5 1M10.505 12s.488.5 1.5.5 1.5-.5 1.5-.5"/><path style="opacity:.2;fill:none;stroke:#000;stroke-width:2;stroke-linecap:round;stroke-linejoin:round" d="M8.5 2.5a5 5 0 0 0-5 5 5 5 0 0 0 .006.174A5 5 0 0 0 1 12a5 5 0 0 0 5 5 5 5 0 0 0 .65-.048A5 5 0 0 0 11 19.5a5 5 0 0 0 4.354-2.548A5 5 0 0 0 16 17a5 5 0 0 0 5-5 5 5 0 0 0-1.502-3.566A5 5 0 0 0 14.5 3.5a5 5 0 0 0-2.349.59A5 5 0 0 0 8.5 2.5z"/><path style="fill:none;stroke:#f4f4f7;stroke-width:2;stroke-linecap:round;stroke-linejoin:round" d="M8.5 2a5 5 0 0 0-5 5 5 5 0 0 0 .006.174A5 5 0 0 0 1 11.5a5 5 0 0 0 5 5 5 5 0 0 0 .65-.048A5 5 0 0 0 11 19a5 5 0 0 0 4.354-2.548A5 5 0 0 0 16 16.5a5 5 0 0 0 5-5 5 5 0 0 0-1.502-3.566A5 5 0 0 0 14.5 3a5 5 0 0 0-2.349.59A5 5 0 0 0 8.5 2z"/><path style="opacity:.2;fill:#f4f4f7" d="M8.5 1C5.326 1 2.77 3.513 2.573 6.64.993 7.755.003 9.542 0 11.498a1 1 0 0 0 0 .002c0 .094.01.185.015.278C.089 9.91 1.053 8.212 2.573 7.14 2.771 4.013 5.326 1.5 8.5 1.5a1 1 0 0 0 .001 0c1.425.002 2.777.536 3.854 1.447.686-.266 1.403-.446 2.143-.447a1 1 0 0 1 .002 0c3.136.001 5.67 2.458 5.916 5.541.924 1.033 1.506 2.325 1.571 3.709.004-.084.013-.166.013-.25a1 1 0 0 0 0-.001c-.002-1.478-.604-2.863-1.584-3.958-.247-3.083-2.78-5.54-5.916-5.541a1 1 0 0 0-.002 0c-.74.001-1.457.181-2.144.447C11.278 1.536 9.926 1.001 8.501 1A1 1 0 0 0 8.5 1zm11.487 10.754a3.98 3.98 0 0 1-3.985 3.746 4.005 4.005 0 0 1-.51-.038 1 1 0 0 0-1.01.5A3.997 3.997 0 0 1 11.001 18a3.996 3.996 0 0 1-3.48-2.038 1 1 0 0 0-1.01-.5 4 4 0 0 1-.513.038 3.98 3.98 0 0 1-3.983-3.71c-.004.07-.015.14-.015.211v.001A3.985 3.985 0 0 0 5.998 16c.172-.002.343-.014.513-.038a1 1 0 0 1 1.01.5A3.996 3.996 0 0 0 11 18.5a3.997 3.997 0 0 0 3.481-2.038 1 1 0 0 1 1.01-.5c.17.024.34.036.51.038A3.985 3.985 0 0 0 20 12.001c0-.083-.008-.165-.013-.247z"/></svg>