<svg xmlns="http://www.w3.org/2000/svg" width="22" height="22" version="1"><circle style="opacity:.2" cx="11" cy="11.5" r="10"/><circle style="fill:#a43b84" cx="11" cy="11" r="10"/><path style="opacity:.2" d="M7 6.5v6s0 4 3 4h5v-10h-2v8h-2.5c-1.5 0-1.5-2-1.5-2v-6z"/><path style="fill:#f4f4f7" d="M7 6v6s0 4 3 4h5V6h-2v8h-2.5C9 14 9 12 9 12V6z"/><path style="opacity:.1;fill:#f4f4f7" d="M11 1A10 10 0 0 0 1 11a10 10 0 0 0 0 .293A10 10 0 0 1 11 1.5a10 10 0 0 1 10 9.707A10 10 0 0 0 21 11 10 10 0 0 0 11 1z"/><circle fill="#42a1cd" cx="17" cy="17" r="5"/><path fill="#fff" d="m16.244 14-.067.79a2.378 2.357 0 0 0-.695.399l-.724-.339-.757 1.3.658.452a2.378 2.357 0 0 0-.037.398 2.378 2.357 0 0 0 .035.4l-.657.45.757 1.3.723-.337a2.378 2.357 0 0 0 .697.395l.066.792h1.514l.066-.79a2.378 2.357 0 0 0 .696-.398l.724.338.757-1.3-.658-.452a2.378 2.357 0 0 0 .036-.398 2.378 2.357 0 0 0-.034-.399l.656-.45-.757-1.3-.723.338a2.378 2.357 0 0 0-.696-.396L17.757 14h-1.513zm.757 2.143a.865.857 0 0 1 .864.857.865.857 0 0 1-.865.857.865.857 0 0 1-.865-.857.865.857 0 0 1 .865-.857z"/></svg>