<svg xmlns="http://www.w3.org/2000/svg" width="22" height="22" version="1"><path style="fill:#4f4f4f" d="M324.48 51.943 177.99.285a4.994 4.994 0 0 0-3.326 0L28.174 51.943a5 5 0 0 0-3.337 4.715c0 52.278 13.834 112.71 37.956 165.8 19.566 43.069 54.751 100.52 111.25 129.62a5 5 0 0 0 4.58 0c56.496-29.106 91.68-86.556 111.25-129.62 24.121-53.094 37.955-113.53 37.955-165.8a5 5 0 0 0-3.337-4.715z" transform="matrix(.0561 0 0 .05671 .607 1)"/><path d="M324.48 51.943 177.99.285a4.994 4.994 0 0 0-3.326 0L28.174 51.943a5 5 0 0 0-3.337 4.715c0 52.278 13.834 112.71 37.956 165.8 19.566 43.069 54.751 100.52 111.25 129.62a5 5 0 0 0 4.58 0c56.496-29.106 91.68-86.556 111.25-129.62 24.121-53.094 37.955-113.53 37.955-165.8a5 5 0 0 0-3.337-4.715z" transform="matrix(.0297 0 0 .0312 5.262 5.5)" style="opacity:.2"/><path style="fill:#067bff" d="M324.48 51.943 177.99.285a4.994 4.994 0 0 0-3.326 0L28.174 51.943a5 5 0 0 0-3.337 4.715c0 52.278 13.834 112.71 37.956 165.8 19.566 43.069 54.751 100.52 111.25 129.62a5 5 0 0 0 4.58 0c56.496-29.106 91.68-86.556 111.25-129.62 24.121-53.094 37.955-113.53 37.955-165.8a5 5 0 0 0-3.337-4.715z" transform="matrix(.0297 0 0 .0312 5.262 5)"/><path style="opacity:.1;fill:#f4f4f7" d="M10.5 1a.279.279 0 0 0-.093.017l-8.22 2.93A.282.282 0 0 0 2 4.212c0 .135.01.276.014.413a.28.28 0 0 1 .174-.18l8.22-2.93a.279.279 0 0 1 .186 0l8.219 2.93c.084.03.147.097.174.18.003-.137.013-.278.013-.413a.283.283 0 0 0-.187-.267l-8.219-2.93A.284.284 0 0 0 10.5 1z"/><path transform="matrix(.50001 0 0 .5 -1.5 -.5)" d="M7.027 10.258a.571.571 0 0 0-.027.168c0 5.93 1.553 12.786 4.26 18.808 2.195 4.886 6.142 11.402 12.482 14.704a.573.573 0 0 0 .516 0c6.34-3.302 10.286-9.818 12.482-14.704C39.447 23.212 41 16.356 41 10.426a.585.585 0 0 0-.027-.168c-.136 5.735-1.65 12.231-4.233 17.976-2.196 4.886-6.142 11.402-12.482 14.704a.573.573 0 0 1-.516 0c-6.34-3.302-10.287-9.818-12.482-14.704-2.583-5.745-4.097-12.241-4.233-17.976z" style="opacity:.2"/><path style="opacity:.2" d="m6.56 6.058 1.723-.995 7.96 13.786.381 2.651-2.105-1.657z"/><path style="fill:#f4f4f7" d="m6.56 5.558 1.723-.995 7.96 13.786.381 2.651-2.105-1.657z"/><path style="opacity:.2" d="M5.31.503a.484.484 0 0 0-.181.063l-.887.51a.482.482 0 0 0-.177.66l1.5 2.597-1.306.754a.482.482 0 0 0-.176.66l.512.887c.133.232.428.31.66.177l4.333-2.502a.482.482 0 0 0 .176-.66l-.512-.887a.482.482 0 0 0-.66-.177l-1.304.753-1.5-2.597a.482.482 0 0 0-.477-.238z"/><path style="fill:#17191e" d="M5.31.004a.484.484 0 0 0-.181.062l-.887.511a.482.482 0 0 0-.177.66l1.5 2.597-1.306.754a.482.482 0 0 0-.176.66l.512.886c.133.232.428.311.66.177L9.587 3.81a.482.482 0 0 0 .176-.66l-.512-.886a.482.482 0 0 0-.66-.177l-1.304.753-1.5-2.597a.482.482 0 0 0-.477-.238z"/><path style="opacity:.2" d="m14.464 6.058-1.723-.995-7.959 13.786L4.4 21.5l2.105-1.657z"/><path style="fill:#f4f4f7" d="m14.464 5.558-1.723-.995-7.959 13.786L4.4 21l2.105-1.657z"/><path style="opacity:.2" d="M15.713.503a.484.484 0 0 1 .182.063l.887.51c.232.134.31.429.177.66l-1.5 2.597 1.306.754c.231.134.31.428.176.66l-.512.887a.482.482 0 0 1-.66.177l-4.333-2.502a.482.482 0 0 1-.176-.66l.512-.887a.482.482 0 0 1 .66-.177l1.304.753 1.5-2.597a.482.482 0 0 1 .477-.238z"/><path style="fill:#17191e" d="M15.713.004a.484.484 0 0 1 .182.062l.887.511c.232.134.31.428.177.66l-1.5 2.597 1.306.754c.231.133.31.428.176.66l-.512.886a.482.482 0 0 1-.66.177L11.437 3.81a.482.482 0 0 1-.176-.66l.512-.886a.482.482 0 0 1 .66-.177l1.304.753 1.5-2.597a.482.482 0 0 1 .477-.238z"/></svg>