<svg xmlns="http://www.w3.org/2000/svg" width="22" height="22"><path style="fill:#50bcff" d="M10.997 0a10 9.5 0 0 0-.853.04 10.64 10.64 0 0 0-.61.071 10 9.5 0 0 0-.32.046c-.288.049-.57.11-.849.18a10 9.5 0 0 0-.055.014C4.09 1.451 1 5.063 1 9.35l.003.093A10 9.5 0 0 0 1 9.5a10 9.5 0 0 0 3.901 7.514V20l2.751-1.56A10 9.5 0 0 0 11 19a10 9.5 0 0 0 9.975-9.016c.008-.11.014-.221.018-.333A10 9.5 0 0 0 21 9.5a10 9.5 0 0 0-.002-.062L21 9.35C21 4.507 17.062.516 11.998.047a10 9.5 0 0 0-.832-.04c-.056 0-.111-.008-.167-.008h-.002z"/><path style="opacity:.2;fill:#f4f4f7" d="M10.997 0a10 9.5 0 0 0-.853.04 10.64 10.64 0 0 0-.61.071 10 9.5 0 0 0-.32.046c-.288.049-.57.11-.849.18a10 9.5 0 0 0-.055.014C4.09 1.451 1 5.063 1 9.35l.003.093A10 9.5 0 0 0 1 9.5a10 9.5 0 0 0 .009.159C1.099 5.456 4.152 1.934 8.31.85a10 9.5 0 0 1 .054-.013c.279-.071.561-.133.849-.181a10 9.5 0 0 1 .32-.046c.202-.028.404-.054.61-.07A10 9.5 0 0 1 10.997.5h.002c.056 0 .11.007.167.007a10 9.5 0 0 1 .832.04c5.002.463 8.898 4.365 8.993 9.126l.001-.021A10 9.5 0 0 0 21 9.5a10 9.5 0 0 0-.002-.062L21 9.35C21 4.507 17.062.517 11.998.048a10 9.5 0 0 0-.832-.04C11.11.007 11.056 0 11 0h-.002z"/><path style="opacity:.2" d="M1.009 9.659c-.002.064-.009.127-.009.19 0 .032.003.063.003.094A10 9.5 0 0 0 1 10a10 9.5 0 0 0 3.901 7.514v-.5A10 9.5 0 0 1 1.01 9.659zm19.982.014a8.91 8.91 0 0 1-.017.312A10 9.5 0 0 1 11 18.999a10 9.5 0 0 1-3.348-.561l-2.75 1.561v.5l2.75-1.56a10 9.5 0 0 0 3.348.56 10 9.5 0 0 0 9.975-9.016c.008-.11.014-.22.018-.333A10 9.5 0 0 0 21 9.998a10 9.5 0 0 0-.002-.062L21 9.848c0-.06-.008-.117-.01-.176z"/><circle style="fill:#17191e" cx="16" cy="7" r="2"/><circle style="opacity:.1" cx="6" cy="7.5" r="2"/><circle style="fill:#17191e" cx="6" cy="7" r="2"/><path style="opacity:.2" d="M13.963 5.5c3.902 0 7.147 2.595 7.853 6.027A8 7.5 0 0 1 22 13.104a8 7.5 0 0 1-3.037 5.873V21.5l-1.777-1.52a8 7.5 0 0 1-3.186.624 8 7.5 0 0 1-7.855-6.108 6.949 6.949 0 0 1-.182-1.568c0-4.103 3.582-7.428 8-7.428z"/><path style="fill:#f4f4f7" d="M13.963 5c3.902 0 7.147 2.595 7.853 6.027A8 7.5 0 0 1 22 12.604a8 7.5 0 0 1-3.037 5.873V21l-1.777-1.52a8 7.5 0 0 1-3.186.624 8 7.5 0 0 1-7.855-6.108 6.949 6.949 0 0 1-.182-1.568c0-4.103 3.582-7.428 8-7.428z"/><path style="opacity:.2;fill:#f4f4f7" d="M13.963 5c-4.418 0-8 3.325-8 7.428 0 .08.01.16.014.24C6.125 8.687 9.639 5.5 13.963 5.5c3.902 0 7.147 2.595 7.854 6.027a8 7.5 0 0 1 .17 1.309 8 7.5 0 0 0 .013-.232 8 7.5 0 0 0-.183-1.577C21.11 7.595 17.865 5 13.963 5z"/><circle style="opacity:.1" cx="10" cy="11.5" r="2"/><circle style="fill:#17191e" cx="10" cy="11" r="2"/><circle style="opacity:.1" cx="18" cy="11.5" r="2"/><circle style="fill:#17191e" cx="18" cy="11" r="2"/></svg>