<svg xmlns="http://www.w3.org/2000/svg" width="22" height="22" version="1"><path style="fill:#ccc" d="M21 20V2c0-.554-.446-1-1-1H5.83L3.84 3.014c-.39.394-1.18.23-1.482.694L1 5.793V20c0 .554.446 1 1 1h18c.554 0 1-.446 1-1z"/><path style="fill:#f4f4f7" d="M3.97 3.67c-.306.462-1.665-.192-1.92.3L1 6h20V2c0-.554-.446-1-1-1H5.743z"/><path style="fill:#f4f4f7" d="M3.839 2.62c-.443.332-1.286.524-1.57 1L1 5.75V20c0 .554.446 1 1 1h4V1zM18 6v15h2c.554 0 1-.446 1-1V6z"/><path style="fill:#d32626" d="M2 1c-.554 0-1 .446-1 1v4h5V1z"/><path style="opacity:.2;fill:#f4f4f7" d="M1 2.5V2c0-.554.446-1 1-1h18c.554 0 1 .446 1 1v.5c0-.554-.446-1-1-1H2c-.554 0-1 .446-1 1z"/><path style="opacity:.2" d="M1 20v.5c0 .554.446 1 1 1h18c.554 0 1-.446 1-1V20c0 .554-.446 1-1 1H2c-.554 0-1-.446-1-1z"/><path style="fill:#ffd000" d="M6 17h8v4H6z"/><path style="fill:#0fa925" d="M14 17h4v4h-4z"/><path style="fill:#1268c9" d="M18 6h3v3h-3z"/><path style="opacity:.2" d="M6 17h12v.5H6z"/><path style="opacity:.2;fill:#f4f4f7" d="M18 9h3v.5h-3z"/><path style="opacity:.2" d="M1 6h20v.5H1z"/></svg>