<svg width="22" height="22" xmlns="http://www.w3.org/2000/svg"><path d="M13 7.5H9s1 3 1 6c0 1-2 2-3 2-2 0-2-2-2-4 0-4 3-7 3-7l-6 1s-1 2-1 6 2 8 5 8 5-3 5-3 1 3 4 3c4 0 6-4 6-7 0-4-1-6-1-6l-5-1s2 3 2 7c0 1 0 3-3 3-1 0-2-1-2-2 0-3 1-6 1-6z" style="opacity:.2"/><path d="M13 7H9s1 3 1 6c0 1-2 2-3 2-2 0-2-2-2-4 0-4 3-7 3-7L2 5s-1 2-1 6 2 8 5 8 5-3 5-3 1 3 4 3c4 0 6-4 6-7 0-4-1-6-1-6l-5-1s2 3 2 7c0 1 0 3-3 3-1 0-2-1-2-2 0-3 1-6 1-6z" style="fill:#afafb1"/><path d="M21 12s-3 6-6 6c-2 0-4-3-4-3s-3 3-5 3c-1.93 0-4.732-5.479-4.93-5.87C1.405 15.72 3.284 19 6 19c3 0 5-3 5-3s1 3 4 3c4 0 6-4 6-7z" style="opacity:.2"/><path d="M8 4 2 5l1 1 5-2zm7 1 4 2 1-1-5-1zM9 7l2 1 2-1H9z" style="fill:#f4f4f7;opacity:.2"/><path d="M8 4 2 5s-1 2-1 6c0 .056.009.11.01.166C1.066 7.4 2 5.5 2 5.5l5.49-.914C7.792 4.213 8 4 8 4zm7 1s.134.204.33.566L20 6.5s.928 1.89.988 5.637c.001-.045.012-.093.012-.137 0-4-1-6-1-6l-5-1zM9 7s.063.19.152.5h3.696C12.937 7.19 13 7 13 7H9zm-3.992 4.34c-.001.054-.008.106-.008.16 0 2 0 4 2 4 1 0 3-1 3-2 0-.144-.011-.286-.016-.43C9.894 14.046 7.977 15 7 15c-1.884 0-1.986-1.782-1.992-3.66zm11.978.926C16.971 13.314 16.776 15 14 15c-.96 0-1.91-.921-1.986-1.879-.004.127-.014.252-.014.379 0 1 1 2 2 2 3 0 3-2 3-3 0-.08-.012-.154-.014-.234z" style="fill:#f4f4f7;opacity:.2"/></svg>