<svg xmlns="http://www.w3.org/2000/svg" width="22" height="22" version="1"><rect fill="#f58411" width="20" height="20" x="1" y="1" rx="1" ry="1"/><path fill="#fff" opacity=".2" d="M1 2.5V2c0-.554.446-1 1-1h18c.554 0 1 .446 1 1v.5c0-.554-.446-1-1-1H2c-.554 0-1 .446-1 1z"/><path opacity=".2" d="M1 20v.5c0 .554.446 1 1 1h18c.554 0 1-.446 1-1V20c0 .554-.446 1-1 1H2c-.554 0-1-.446-1-1z"/><path fill-rule="evenodd" opacity=".2" style="image-rendering:optimizeQuality;shape-rendering:geometricPrecision" d="M13.702 5.5 11.35 8.342c-1.293 1.562-2.352 2.873-2.352 2.91s1.107 1.46 2.459 3.159l2.459 3.089h2.575c2.05 0 2.562-.019 2.506-.092-.14-.185-4.688-5.912-4.79-6.032-.096-.112.11-.386 2.168-2.871a693.689 693.689 0 0 0 2.374-2.876c.095-.122-.035-.13-2.473-.13h-2.573zm-10.298.166c-.019.019.987 1.267 2.235 2.773s2.279 2.761 2.288 2.79c.01.027-.997 1.325-2.238 2.884a2073.518 2073.518 0 0 0-2.474 3.11L3 17.5h5.158l1.206-1.512c.837-1.05 1.186-1.54 1.14-1.601-.037-.049-.612-.776-1.278-1.614l-1.21-1.525 1.267-1.529c.697-.84 1.26-1.534 1.253-1.542-.06-.057-7.105-2.538-7.132-2.511z"/><path fill="#fff" fill-rule="evenodd" style="image-rendering:optimizeQuality;shape-rendering:geometricPrecision" d="M13.702 5 11.35 7.842c-1.292 1.563-2.352 2.873-2.352 2.911s1.107 1.459 2.46 3.158L13.914 17h2.575c2.05 0 2.562-.018 2.506-.092-.14-.184-4.687-5.912-4.79-6.032-.095-.112.11-.386 2.168-2.871a693.689 693.689 0 0 0 2.374-2.876c.095-.122-.035-.13-2.472-.13h-2.574zm-10.298.166c-.019.019.987 1.267 2.235 2.773s2.279 2.761 2.288 2.79c.01.027-.997 1.325-2.238 2.884a2073.518 2073.518 0 0 0-2.474 3.11L3 17h5.158l1.206-1.513c.837-1.05 1.186-1.539 1.14-1.6-.037-.05-.612-.776-1.278-1.615l-1.21-1.525L9.282 9.22c.697-.84 1.26-1.534 1.253-1.542-.06-.057-7.105-2.539-7.132-2.512z"/></svg>