<svg xmlns="http://www.w3.org/2000/svg" width="22" height="22"><path style="opacity:.2" d="M11 1.5A9 8.5 0 0 0 2 10a9 8.5 0 0 0 8.883 8.494c.09.004.12.03.119.125-.005.874-.002 1.898-.002 2.772 0 .034.003.067.005.109l.066-.026c1.722-.771 3.302-1.745 4.711-2.966.28-.243.549-.498.807-.763l.33-.342c.172-.174.32-.369.481-.552a9.13 9.13 0 0 0 .519-.663c.364-.501.69-1.023.964-1.575.138-.279.27-.56.387-.847.003-.006.009-.01.011-.016a9.883 9.883 0 0 0 .63-2.44c.018-.14.026-.281.038-.422a9 8.5 0 0 0 .01-.117c.009-.112.024-.225.03-.337.007-.135.009-.27.01-.405A9 8.5 0 0 0 20 10a9 8.5 0 0 0-.001-.015c0-.165-.006-.33-.018-.495v-.008a9 8.5 0 0 0-.025-.249 7.764 7.764 0 0 0-.053-.412A9 8.5 0 0 0 11 1.5z"/><path style="fill:#16a05d" d="M11 1a9 8.5 0 0 0-9 8.5 9 8.5 0 0 0 8.883 8.494c.09.004.12.03.119.125-.005.874-.002 1.898-.002 2.772 0 .034.003.067.005.109l.066-.026c1.722-.771 3.302-1.745 4.711-2.966.28-.243.549-.498.807-.763l.33-.342c.172-.174.32-.369.481-.552a9.13 9.13 0 0 0 .519-.663c.364-.501.69-1.023.964-1.575.138-.279.27-.56.387-.847.003-.006.009-.01.011-.016a9.883 9.883 0 0 0 .63-2.44c.018-.14.026-.281.038-.422a9 8.5 0 0 0 .01-.117c.009-.112.024-.225.03-.337.007-.135.009-.27.01-.405A9 8.5 0 0 0 20 9.5a9 8.5 0 0 0-.001-.015c0-.165-.006-.33-.018-.495v-.008a9 8.5 0 0 0-.025-.249 7.76 7.76 0 0 0-.053-.412A9 8.5 0 0 0 11 1z"/><path style="opacity:.2;fill:#f4f4f7" d="M11 1a9 8.5 0 0 0-9 8.5 9 8.5 0 0 0 .01.204A9 8.5 0 0 1 11 1.5a9 8.5 0 0 1 8.903 7.321c.022.137.039.275.053.412a9 8.5 0 0 1 .024.25l.001.007c.007.102.008.203.011.305.003-.089.006-.177.006-.266A9 8.5 0 0 0 20 9.5a9 8.5 0 0 0-.001-.015c0-.165-.006-.33-.018-.495v-.008a9 8.5 0 0 0-.025-.249 7.76 7.76 0 0 0-.053-.412A9 8.5 0 0 0 11 1z"/><path style="opacity:.2" d="M6.834 5.5 10 11.258V15.5h2v-4.244L15.158 5.5h-2.281L11 8.922 9.117 5.5z"/><path style="fill:#f4f4f7" d="M6.834 5 10 10.758V15h2v-4.244L15.158 5h-2.281L11 8.422 9.117 5z"/></svg>