<svg xmlns="http://www.w3.org/2000/svg" width="22" height="22"><path style="fill:#9aca3c" d="M11 1A10 10 0 0 0 1 11a10 10 0 0 0 10 10 10 10 0 0 0 10-10A10 10 0 0 0 11 1z"/><path style="opacity:.2" d="M1.01 11.209A10 10 0 0 0 1 11.5a10 10 0 0 0 10 10 10 10 0 0 0 10-10 10 10 0 0 0-.01-.209A10 10 0 0 1 11 21a10 10 0 0 1-9.989-9.791z"/><path style="opacity:.2;stroke-linejoin:round;stroke:#000;stroke-linecap:round;stroke-width:2;fill:none" d="m8 16.5 7-9"/><path style="opacity:.2;fill:#f4f4f7" d="M11 1A10 10 0 0 0 1 11a10 10 0 0 0 .01.209A10 10 0 0 1 11 1.5a10 10 0 0 1 9.99 9.791A10 10 0 0 0 21 11 10 10 0 0 0 11 1z"/><path style="opacity:.2;stroke-linejoin:round;stroke:#000;stroke-linecap:round;stroke-width:2;fill:none" d="m7 7.5 4 5"/><path style="stroke-linejoin:round;stroke:#f4f4f7;stroke-width:2;stroke-linecap:round;fill:none" d="m8 16 7-9M7 7l4 5"/><g transform="translate(-1 -1)"><circle style="fill:#9739d9" cx="17.5" cy="17.5" r="5.5"/><path style="stroke-linejoin:round;stroke:#f4f4f7;stroke-linecap:round;fill:none" d="M15.5 19.5v-4l4 4v-4"/></g></svg>