<svg viewBox="0 0 512 512" xmlns="http://www.w3.org/2000/svg">
    <path d="M233.302 56c-8.477 0-14.448 6.165-15.32 13.696l-4.887 42.31c-9.861 2.935-19.28 6.875-28.175 11.667l-33.373-26.464c-5.94-4.706-14.52-4.847-20.517 1.145L99.154 130.23c-5.994 5.995-5.68 14.448-1.145 20.518L123.632 185c-9.474 21.752-11.647 27.872-11.622 27.782L69.7 217.67c-7.529.872-13.696 6.845-13.696 15.32v45.087c0 8.477 6.192 14.191 13.695 15.28l42.487 6.163c2.941 9.738 6.869 19.033 11.623 27.826l-26.24 33.111c-4.706 5.94-4.848 14.52 1.145 20.517l31.876 31.877c5.994 5.994 14.4 5.68 20.473 1.144l34.122-25.492c8.824 4.729 18.147 8.629 27.914 11.535l4.887 42.266c.872 7.528 6.843 13.696 15.32 13.696h45.086c8.478 0 14.192-6.193 15.28-13.696l6.164-42.527A149.485 149.485 0 0 0 327 388.465l34.471 25.76c6.071 4.536 14.52 4.848 20.517-1.145l31.876-31.876c5.995-5.994 5.851-14.577 1.145-20.517l-26.64-33.593c4.692-8.717 8.58-17.919 11.492-27.56l42.439-6.165c7.5-1.085 13.695-6.844 13.695-15.32v-45.086c0-8.478-6.164-14.408-13.695-15.28l-42.399-4.931a149.466 149.466 0 0 0-11.311-27.432l25.932-34.781c4.536-6.071 4.848-14.52-1.145-20.517l-31.876-31.877c-5.994-5.994-14.536-5.85-20.473-1.144l-33.767 26.769c-8.676-4.684-17.834-8.571-27.432-11.491l-6.164-42.575c-1.085-7.5-6.8-13.696-15.28-13.696zm22.718 136.973c34.818 0 63.047 28.231 63.047 63.047 0 34.818-28.232 63.046-63.047 63.046-34.818 0-63.047-28.231-63.047-63.046 0-34.819 28.232-63.047 63.047-63.047" fill="#dbdbdb"/>
</svg>
