<svg viewBox="0 0 512 512" xmlns="http://www.w3.org/2000/svg">
    <path d="M214.497 80.718 61.145 112.9l37.659 34.92s-6.682 8.172-8.895 10.955C31.811 231.55 39.61 338.35 107.72 401.728c13.035 12.137 27.932 21.908 43.136 29.444l56.149-60.925c-17-3.9-32.905-12.618-46.554-25.325-38.25-35.643-43.508-93.61-12.333-135.563 3.9-5.236 6.857-8.894 6.857-8.894l37.659 34.92L214.54 80.718m34.92 0v23.288h26.027v21.228c0 1.359 1.183 2.06 2.738 2.06h8.215c-6.09 8.478-9.595 19.278-9.595 32.86 0 30.737 50.738 55.668 60.245 86.952-7.777 25.631-60.245 56.499-60.245 87.63 0 24.908 11.129 41.054 28.764 49.97h-21.228c-6.463 0-11.633 4.579-11.633 10.275v13.013H249.46v23.288H461v-23.288h-26.705v-13.013c0-5.696-5.17-10.275-11.633-10.275h-29.444c17.636-8.916 29.444-25.062 29.444-49.97 0-31.131-52.359-59.436-60.925-87.63 9.399-30.912 60.925-56.237 60.925-86.951 0-13.583-3.505-24.383-9.596-32.861h18.49c1.534 0 2.739-.701 2.739-2.06v-21.228H461V80.718H249.461" fill="#dbdbdb"/>
</svg>
