<svg viewBox="0 0 512 512" xmlns="http://www.w3.org/2000/svg">
    <path d="M262.99 109.006c-24.27 0-37.235 3.26-57.52 15.88L49.39 235.353c-23.203 13.4-23.006 25.573-.708 39.527l159.253 112.586c22.027 12.714 34.568 15.527 55.054 15.527h155.986c33.97 0 61.052-27.084 61.052-61.052v-171.52c0-33.97-27.084-61.4-61.052-61.4M280.63 159.834l53.994 54 53.995-54 40.943 40.943-54 53.995 54 53.994-40.943 40.938-53.995-53.995-53.994 53.995-40.938-40.938 53.995-53.994-53.995-53.995" fill="#dbdbdb" fill-rule="evenodd"/>
</svg>
