<svg viewBox="0 0 512 512" xmlns="http://www.w3.org/2000/svg">
    <path d="M204.577 403.032c-6.656-.952-15.5-3.232-20.098-5.183-12.118-5.14-14.781-7.505-66.241-58.816-27.168-27.088-51.036-51.356-53.04-53.929-5.062-6.496-9.1-14.215-11.829-22.611-2.083-6.411-2.324-8.375-2.368-19.312-.055-14.06 1.39-20.629 6.987-31.761 4.215-8.383 8.055-13.216 21.133-26.594l10.671-10.915-5.007-5.457c-11.823-12.886-17.625-27.675-17.625-44.921 0-9.621 1.561-17.354 5.063-25.078 14.89-32.84 56.824-53.146 119.137-57.693 11.516-.84 26.73-.725 30.694.233.838.202 20.107 18.942 42.821 41.644l41.299 41.276 10.749 4.212c29.62 11.606 61.272 31.177 84.708 52.377 33.75 30.53 53.052 65.13 58.187 104.303 2.778 21.19.428 66.479-4.637 89.358-4.211 19.026-9.681 27.995-15.465 25.36-5.038-2.295-7.784-13.492-8.896-36.276-1.03-21.099-2.504-31.78-5.762-41.75-8.657-26.492-25.537-41.48-50.502-44.839l-6.869-.924-55.946 55.792c-30.77 30.686-57.877 57.171-60.238 58.857-5.973 4.265-15.534 8.645-23.044 10.56-6.402 1.63-19.229 2.752-23.882 2.087zm17.389-34.34c2.175-.623 5.764-2.165 7.976-3.426 2.625-1.496 27.072-25.29 70.354-68.476l66.331-66.183-71.577-71.587-71.577-71.586-29.32 29.31-29.319 29.31-10.778-2.627c-8.744-2.132-22.815-6.892-24.589-8.317-.21-.17 13.392-14.11 30.227-30.978l30.61-30.67-3.779.46C149.21 78.46 126.747 86.05 112.14 99.053c-8.708 7.752-12.178 14.751-12.186 24.577-.01 11.541 4.82 20.191 15.887 28.458 19.938 14.892 54.887 23.888 105.913 27.263l12.977.859 2.976-2.81c11.408-10.773 28.165-10.477 39.017.689 12.437 12.797 8.655 34.556-7.494 43.11-3.683 1.952-5.178 2.226-12.175 2.237-9.237.015-13.485-1.567-19.258-7.169l-3.4-3.3-13.375-.849c-41.037-2.605-72.179-8.481-96.521-18.213l-5.35-2.139-12.578 12.483c-6.919 6.865-14.024 14.277-15.791 16.47-6.091 7.56-8.905 19.873-6.689 29.27 2.66 11.283 2.315 10.884 55.701 64.304 45.62 45.648 50.115 49.909 55.128 52.246 9.057 4.222 17.487 4.893 27.044 2.152z" fill="#dbdbdb"/>
</svg>
