<svg xmlns="http://www.w3.org/2000/svg" width="48" height="48">
    <path d="m31.41 2-25.036.029V46h36.15V13.344L31.41 2zm-1.317 3.667 9.052 9.453v.344c-.714-1.293-1.852-2.23-3.782-2.55l-3.953 3.953c-1.602-4.396-5.823-7.534-10.77-7.534-5.054 0-9.335 3.278-10.857 7.82V5.696l20.31-.028zm-9.454 6.617a8.404 8.404 0 0 1 8.308 7.047l-9.683 9.682a8.404 8.404 0 0 1-7.046-8.307c0-2.046.718-3.9 1.919-5.357a8.38 8.38 0 0 1 6.503-3.065zm18.506 5.9v17.733c-.024-.026-.033-.061-.058-.086l-7.161-7.133c-.642-.642-1.639-.848-2.464-.573.25-.305.47-.617.688-.945l8.995-8.995zM9.754 24.402a11.498 11.498 0 0 0 6.961 7.162l-3.38 3.38-2.607 6.474 7.133-1.948 9.166-9.167c.329-.218.641-.438.946-.687-.275.825-.069 1.821.573 2.463l7.133 7.162c.916.916 2.492.916 3.408 0 .026-.026.034-.06.058-.086v3.18H9.754V24.4z" fill="#dbdbdb"/>
</svg>
