<svg viewBox="0 0 512 512" xmlns="http://www.w3.org/2000/svg">
    <path d="m99.88 81.09 177.217 155.758L455.073 81.09H99.88zM80.695 97.968v123.518c18.363-10.974 39.307-17.636 62.138-17.636 22.217 0 42.602 6.444 60.621 16.878l7.681-9.197zm392.805 0L343.85 211.531 473.5 357.3zM142.833 222.244c-57.52 0-104.333 46.813-104.333 104.333 0 57.52 46.813 104.333 104.333 104.333 57.52 0 104.332-46.813 104.332-104.333 0-57.52-46.813-104.333-104.332-104.333zm86.696 5.374-6.131 6.922c25.654 22.537 42.195 55.41 42.195 92.037 0 17.504-4.07 34.02-10.747 49.117H457.38L324.665 227.65l-47.535 42.195zM121.34 272.12v32.997c48.756 0 86.513 10.265 108.19 64.446-32.503-27.103-64.835-32.32-108.19-21.493v32.997l-65.203-54.49z" fill="#f4f4f7"/>
</svg>
