<svg viewBox="0 0 512 512" xmlns="http://www.w3.org/2000/svg">
    <path d="m99.88 81.09 177.217 155.725L455.073 81.09zm373.587 16.812v.066c.012-.01.02-.022.033-.033l-.033-.033zm0 .066c-88.958 79.533-99.83 83.887-196.37 171.811l-47.568-42.194-6.164 6.89c25.654 22.536 42.228 55.441 42.228 92.07 0 17.503-4.102 33.985-10.78 49.083h218.654zm-392.772-.033v123.518c18.363-10.973 39.307-17.669 62.138-17.669 22.217 0 42.578 6.477 60.621 16.911l7.681-9.23-130.44-113.53zm62.138 124.31c-57.52 0-104.333 46.813-104.333 104.332 0 57.52 46.813 104.333 104.333 104.333 57.519 0 104.332-46.814 104.332-104.333 0-57.52-46.813-104.333-104.332-104.333zm-21.493 49.842v32.997c48.755 0 86.512 10.265 108.19 64.446-32.504-27.103-64.836-32.32-108.19-21.493v32.997l-65.204-54.457z" fill="#dbdbdb" fill-rule="evenodd"/>
</svg>
