<svg viewBox="0 0 512 512" xmlns="http://www.w3.org/2000/svg">
    <path d="M92.46 63.5v106.817l-47.464 35.605v204.709l129.8-124.604-58.62-45.997V87.216h166.138v71.21h71.211v71.212c4.225-.45 8.272-.765 12.591-.765 21.48 0 41.176 6.266 58.62 16.353v-39.304l-47.495-35.605V134.71L306.06 63.5zm0 136.461v21.517l-14.09-11.125 14.09-10.392zm284.78 0 14.122 10.392-14.121 11.125V199.96zm-11.124 46.795c-55.608 0-100.856 45.248-100.856 100.856S310.508 448.5 366.116 448.5s100.888-45.28 100.888-100.888c0-55.608-45.28-100.856-100.888-100.856zm-131.266 14.79L44.996 443.24h251.439c-29.43-21.645-48.994-56.539-48.994-95.628 0-21.48 6.266-41.176 16.353-58.62l-28.944-27.414v-.032zm105.319 8.224h51.926v51.926h51.926v51.927h-51.926v51.926H340.17v-51.926h-51.926v-51.927h51.926z" fill="#f4f4f7"/>
</svg>
