<svg viewBox="0 0 512 512" xmlns="http://www.w3.org/2000/svg">
    <path d="M118.104 62.281V169.09l-47.492 35.635v40.033c17.761-10.614 38.003-17.052 60.082-17.052 3.825 0 7.39.371 11.124.733V86.027h166.156v71.205h71.206v81.597l-58.584 45.993 129.79 124.625V204.724l-47.46-35.603V133.52L331.72 62.313l-213.616-.032zm-.032 136.514v21.515l-14.088-11.156zm284.854 0 14.088 10.36-14.088 11.155zm-272.328 46.727c-55.621 0-100.88 45.261-100.88 100.88 0 55.621 45.262 100.88 100.88 100.88 55.608 0 100.88-45.262 100.88-100.88 0-55.608-45.261-100.88-100.88-100.88zm129.885 14.821-27.443 26.71c10.294 17.562 16.319 37.626 16.319 59.349 0 39.125-19.522 74.034-48.958 95.684h249.984zm-150.666 33.372v31.905c47.149 0 83.62 9.928 104.577 62.313-31.432-26.19-62.664-31.263-104.577-20.782v31.906L46.77 346.402z" fill="#f4f4f7"/>
</svg>
