<svg viewBox="0 0 512 512" xmlns="http://www.w3.org/2000/svg">
    <path d="m99.852 81.06 177.23 155.77L455.104 81.06zM80.698 97.94v123.527C99.068 210.488 120 203.83 142.84 203.83c22.21 0 42.566 6.45 60.593 16.879l7.681-9.231zm392.802 0L343.84 211.477l129.66 145.78zM142.84 222.257c-57.626 0-104.34 46.713-104.34 104.34 0 57.628 46.713 104.341 104.34 104.341s104.341-46.712 104.341-104.34c0-57.627-46.712-104.34-104.34-104.34zm86.704 5.34-6.165 6.924c25.654 22.534 42.198 55.416 42.198 92.044 0 17.5-4.044 34.017-10.714 49.12h202.55L324.686 227.6l-47.605 42.198zm-86.703 14.836c46.4 0 84.132 37.764 84.132 84.165 0 46.4-37.732 84.132-84.132 84.132-46.401 0-84.165-37.731-84.165-84.132 0-23.2 9.422-44.236 24.66-59.473a85.6 85.6 0 0 1 1.977-1.912c.494-.459 1.013-.903 1.517-1.351.437-.39.874-.773 1.318-1.154.51-.437 1.03-.861 1.55-1.286.873-.713 1.735-1.431 2.637-2.11.076-.057.155-.108.23-.165 14.034-10.482 31.451-16.714 50.276-16.714zm-1.45 8.67V402.06c41.686 0 75.494-33.77 75.494-75.461 0-41.687-33.803-75.495-75.495-75.495zm-25.254 5.934-5.835 3.396 8.967 15.363 5.802-3.363zm-29.835 27.264-3.362 5.835 15.428 8.934 3.363-5.835zm107.275 24.429c4.626-.005 7.863 1.625 9.725 4.879 1.863 3.253 2.802 7.891 2.802 13.879 0 5.995-.94 10.61-2.802 13.846-1.862 3.237-5.099 4.846-9.725 4.846-4.626 0-7.863-1.61-9.725-4.846-1.863-3.237-2.803-7.851-2.803-13.846 0-5.99.94-10.627 2.803-13.88 1.862-3.253 5.099-4.878 9.725-4.878zm-28.912.066c3.467 0 6.28.907 8.406 2.703 2.127 1.79 3.165 4.197 3.165 7.22 0 2.138-.609 3.934-1.879 5.406a7.994 7.994 0 0 1-1.154 1.088c-.686.539-.599.899.165 1.418.384.264.808.621 1.286 1.055 1.819 1.686 2.736 3.973 2.736 6.89 0 3.077-1.077 5.785-3.198 8.11-2.126 2.323-5.258 3.494-9.428 3.494-5.137 0-8.716-1.686-10.715-5.044-.61-1.038-1.054-2.241-1.351-3.66-.384-1.818 1.11-3.329 2.967-3.329h.264c1.856 0 3.346.808 3.527 1.813.115.66.313 1.27.56 1.78.868 1.753 2.429 2.638 4.715 2.638 1.39 0 2.62-.495 3.66-1.45 1.043-.963 1.582-2.347 1.582-4.154 0-2.39-.973-3.985-2.902-4.78-.642-.265-1.506-.451-2.571-.561-1.45-.148-2.637-1.264-2.637-2.67 0-1.407 1.087-2.529 2.44-2.67 1.049-.11 1.857-.308 2.406-.561 1.577-.698 2.373-2.112 2.373-4.253 0-1.384-.412-2.495-1.22-3.363-.807-.867-1.928-1.318-3.395-1.318-1.686 0-2.933.549-3.725 1.615a5.44 5.44 0 0 0-.923 2.044c-.286 1.214-1.687 2.242-3.528 2.242s-3.318-1.181-3.066-2.605c.16-.867.38-1.72.66-2.538.582-1.42 1.488-2.72 2.736-3.923.934-.851 2.05-1.494 3.33-1.945 1.29-.45 2.846-.692 4.714-.692zm28.912 5.802c-2.127 0-3.506 1.06-4.187 3.165-.68 2.098-1.022 5.357-1.022 9.725 0 4.176.341 7.35 1.022 9.56.68 2.214 2.066 3.33 4.187 3.33 2.121 0 3.527-1.116 4.187-3.33.654-2.208.989-5.384.989-9.56 0-4.368-.335-7.627-.99-9.725-.659-2.105-2.065-3.165-4.186-3.165zm-119.604 3.56v16.846h23.57V318.16zm24.395 35.967-15.428 8.901 3.362 5.836 15.429-8.902zm20.901 23.242-8.967 15.396 5.835 3.362 8.934-15.362z" fill="#dbdbdb"/>
</svg>
