<svg viewBox="0 0 512 512" xmlns="http://www.w3.org/2000/svg">
    <path d="M309.491 56c-62.647 0-115.821 39.5-136.858 94.797a174.168 174.168 0 0 1 19.738-1.108c28.936 0 56.289 7.374 80.161 20.141 9.036-10.155 22.24-16.482 36.959-16.482 27.324 0 49.379 22.057 49.379 49.413 0 14.715-6.282 27.917-16.448 36.958 12.765 23.866 20.107 51.197 20.107 80.128 0 6.636-.335 13.332-1.074 19.772 55.29-21.04 94.763-74.264 94.763-136.892C456.218 121.76 390.442 56 309.491 56zM199.454 168.588c-79.32 0-143.672 64.402-143.672 143.706 0 79.29 64.354 143.706 143.672 143.706 79.29 0 143.706-64.417 143.706-143.706 0-79.316-64.417-143.706-143.706-143.706zm0 95.2c26.764 0 48.54 21.713 48.54 48.506 0 26.776-21.774 48.506-48.54 48.506-26.793 0-48.506-21.73-48.506-48.506 0-26.793 21.713-48.506 48.506-48.506zm0 34.105c-7.932 0-14.367 6.462-14.367 14.401 0 7.932 6.434 14.367 14.367 14.367 7.946 0 14.367-6.434 14.367-14.367 0-7.946-6.428-14.4-14.367-14.4z" fill="#f4f4f7"/>
</svg>
