<svg viewBox="0 0 512 512" xmlns="http://www.w3.org/2000/svg">
    <path d="M255.907 71.304C142.917 71.83 51 164.192 51 277.172c0 34.313 8.594 68.125 24.862 98.083V320.85c0-10.032 3.568-19.334 9.826-27.311a172.37 172.37 0 0 1-.775-16.368c0-94.372 76.778-171.513 170.994-171.954 94.377.436 171.148 77.582 171.148 171.954 0 6.066-.325 12.106-.96 18.104 5.44 7.579 8.524 16.269 8.524 25.575v57.163C451.873 347.366 461 312.507 461 277.14c0-112.984-91.95-205.317-205.093-205.837zM150.261 277.885c-30.43 0-55.82 14.656-61.783 34.162a30.084 30.084 0 0 0-1.302 8.804v76.878c0 23.725 28.227 42.935 63.085 42.935h26.597V277.885zm183.33 0v162.81h26.598c34.858 0 63.116-19.241 63.116-42.966v-76.878c0-1.852-.193-3.666-.527-5.456-3.946-21.145-30.454-37.51-62.589-37.51z" fill="#f4f4f7"/>
</svg>
