<svg viewBox="0 0 512 512" xmlns="http://www.w3.org/2000/svg">
    <path d="M135.874 87.88c-16.468 0-26.202 14.65-29.358 31.996L51 421.594c84.43 1.588 170.231.293 259.927 0l-28.74-28.067-11.087-11.114 11.086-11.087 30.705-30.705-30.705-30.705L271.1 298.83l11.086-11.115 42.465-41.791 11.087-11.087 11.086 11.087 30.06 30.705 29.386-29.386-24.166-127.34c-3.302-17.303-13.591-31.995-30.06-31.995h-216.17v-.028zm199.611 169.074-42.016 41.988-.196-.084 41.763 41.735-41.763 41.764 41.763 41.763 41.736-41.763 41.763 41.763L461 382.357l-42.016-42.017L461 298.942l-42.016-41.988-41.735 41.735-41.764-41.735zm41.37 147.772-16.98 16.98c11.39.042 23.07.541 34.607.646z" fill="#dbdbdb"/>
</svg>
