<svg viewBox="0 0 512 512" xmlns="http://www.w3.org/2000/svg">
    <path d="M117.89 51v383.904h131.129v-50.985h-80.88v-97.64h80.88v-51.015h-80.88v-76.963h80.88v-50.985h-80.88V51zm223.438 31.427c-27.826 0-50.396 22.535-50.396 50.367 0 27.826 22.57 50.396 50.396 50.396 27.832 0 50.367-22.57 50.367-50.396 0-27.832-22.535-50.367-50.367-50.367zm1.178 126.77c-28.492 0-51.574 23.081-51.574 51.575 0 28.492 23.081 51.603 51.574 51.603 28.492 0 51.604-23.11 51.604-51.603 0-28.492-23.11-51.574-51.604-51.574zm0 148.626c-28.492 0-51.574 23.11-51.574 51.603 0 28.492 23.081 51.574 51.574 51.574 28.492 0 51.604-23.08 51.604-51.574 0-28.492-23.11-51.603-51.604-51.603z" fill="#f4f4f7"/>
</svg>
