<svg viewBox="0 0 512 512" xmlns="http://www.w3.org/2000/svg">
    <path d="M168.984 56v400h36.813V56zm78.22 3.688v30h217v-30zM87.796 66.124c-22.092 0-40 17.909-40 40s17.908 40 40 40c22.091 0 40-17.909 40-40s-17.909-40-40-40zm159.406 56.438v30h162.75v-30zm0 82.124v30h217v-30zm-159.406 6.438c-22.092 0-40 17.909-40 40s17.908 40 40 40c22.091 0 40-17.909 40-40s-17.909-40-40-40zm159.406 56.438v30h162.75v-30zm0 82.125v30h217v-30zm-159.406 6.437c-22.092 0-40 17.909-40 40s17.908 40 40 40c22.091 0 40-17.909 40-40s-17.909-40-40-40zm159.406 56.438v30h162.75v-30z" fill="#dbdbdb"/>
</svg>
