<svg viewBox="0 0 512 512" xmlns="http://www.w3.org/2000/svg">
    <path d="M106.921 75.857C76.041 75.857 51 100.876 51 131.745c0 30.88 25.046 55.922 55.921 55.922s55.888-25.046 55.888-55.922c0-30.875-25.018-55.888-55.888-55.888zm149.079 0c-30.88 0-55.921 25.019-55.921 55.888 0 30.88 25.046 55.922 55.921 55.922 30.88 0 55.921-25.046 55.921-55.922 0-30.875-25.046-55.888-55.921-55.888zm149.079 0c-30.875 0-55.888 25.019-55.888 55.888 0 30.88 25.018 55.922 55.888 55.922 30.88 0 55.921-25.046 55.921-55.922 0-30.875-25.046-55.888-55.921-55.888zM82.064 231.142v49.682h347.872v-49.682zm24.857 93.191c-30.88 0-55.921 25.013-55.921 55.888 0 30.875 25.046 55.921 55.921 55.921s55.888-25.051 55.888-55.92c0-30.88-25.018-55.889-55.888-55.889zm149.079 0c-30.88 0-55.888 25.013-55.888 55.888 0 30.875 25.013 55.921 55.888 55.921 30.88 0 55.921-25.051 55.921-55.92 0-30.88-25.046-55.889-55.921-55.889zm149.112 0c-30.875 0-55.921 25.013-55.921 55.888 0 30.875 25.052 55.921 55.921 55.921 30.88 0 55.888-25.051 55.888-55.92 0-30.88-25.013-55.889-55.888-55.889z" fill="#f4f4f7"/>
</svg>
