<svg height="22" width="22" xmlns="http://www.w3.org/2000/svg"><g fill="#eeeeec" transform="translate(3 3)"><path d="m8.8418 0c-.1143 0-.2288.045144-.3164.13281l-.0293.0293c-.4002.40013-.624.93109-.627 1.49409-.0028.5225.184 1.0158.5274 1.4004l-1.1699 1.17 4.5464 4.5468 1.17-1.1718c.385.3432.878.5301 1.401.5273.563-.003 1.094-.2248 1.494-.625l.029-.0293c.088-.0875.132-.2022.133-.3164s-.042-.2297-.129-.3164l-6.7128-6.71289c-.0867-.086748-.2021-.12891-.3164-.12891zm-5.8516 5.9902c-.3072.1036-.5918.2696-.8281.5059l-.0293.0293c-.1753.1752-.1774.4594-.0039.6328l2.5899 2.5879-4.32622 4.3279-.39258 1.926 1.9258-.393 4.3281-4.326 2.5879 2.59c.0867.087.2022.13.3164.129s.2289-.045.3164-.133l.0293-.029c.2363-.236.4023-.521.5061-.828z" opacity=".3"/><path d="m0 0v1.5l14.5 14.5h1.5v-1.5l-14.5-14.5z"/></g></svg>