<svg height="64" width="64" xmlns="http://www.w3.org/2000/svg">
    <filter id="a" color-interpolation-filters="sRGB" height="1.067" width="1.078" x="-.039" y="-.033">
        <feGaussianBlur stdDeviation=".206"/>
    </filter>
    <path d="M3.44 1.354a1.32 1.32 0 0 0-1.323 1.323v12.171c0 .733.59 1.323 1.323 1.323h10.053a1.32 1.32 0 0 0 1.323-1.323V4.53l-3.175-3.175z" fill-rule="evenodd" filter="url(#a)" opacity=".15" transform="scale(3.7796)"/>
    <g fill-rule="evenodd">
        <path d="M13 4c-2.77 0-5 2.23-5 5v46c0 2.77 2.23 5 5 5h38c2.77 0 5-2.23 5-5V16L44 4z" fill="#f4f4f4"/>
        <path d="m55.999 16-12-12v7c0 2.77 2.23 5 5 5z" fill="#bbb"/>
    </g>
    <path d="M19 16h6v32h-6z" fill="#68b723"/>
    <path d="M29 32h6v16h-6z" fill="#c6262e"/>
    <path d="M39 24h6v24h-6z" fill="#3689e6"/>
    <path d="M43.998 11v.584c0 3 2.23 5.416 5 5.416h7v-1h-7c-2.77 0-5-2.23-5-5z" fill-rule="evenodd" opacity=".1"/>
</svg>
