<svg xmlns="http://www.w3.org/2000/svg" width="48" height="48"><path style="opacity:.2" d="M10 5c-1.108 0-2 .892-2 2v36c0 1.108.892 2 2 2h28c1.108 0 2-.892 2-2V17L28 5z"/><path style="fill:#f4f4f7" d="M10 4c-1.108 0-2 .892-2 2v36c0 1.108.892 2 2 2h28c1.108 0 2-.892 2-2V16l-10-2-2-10z"/><path style="opacity:.2" d="M40 17 28 5v10c0 1.108.892 2 2 2z"/><path style="fill:#fafafa" d="M40 16 28 4v10c0 1.108.892 2 2 2z"/><path style="opacity:.2;fill:#f4f4f7" d="M10 4c-1.108 0-2 .892-2 2v1c0-1.108.892-2 2-2h18V4H10z"/><path style="opacity:.1" d="M26.032 28.305c.073.082.267.265.582.548 4.422 4.385 6.548 6.341 6.377 6.867-.123.387-.477.714-1.063.983-.585.254-1.112.369-1.58.345-.372-.019-2.135-1.367-5.29-5.045-.636-.77-1.01-1.206-1.121-1.306-.462.48-1.153 1.466-2.073 2.96-1.183 2.383-2.74 4.582-3.633 7.1-.272.881-.965 1.294-2.08 1.238-.585-.03-.945-.22-1.08-.573-.134-.352-.079-.9.165-1.641.468-1.485 2.72-5.087 6.753-10.808-.022-.252-.6-1.169-1.734-2.75-1.133-1.58-2.032-2.778-2.699-3.393-.721-.665-1.022-1.175-.9-1.53.272-.882 1.13-1.287 2.577-1.214.703.036 1.957 1.518 3.761 4.248.77 1.123 1.275 1.808 1.514 2.056.416-.372 1.01-1.057 1.78-2.055.77-1.014 1.303-1.836 1.599-2.465.292-.582.753-1.046 1.383-1.391.63-.346 1.229-.504 1.795-.476.88.044 1.198.43.955 1.156-.273.882-1.858 2.82-4.756 5.817-.756.78-1.167 1.222-1.232 1.329"/><path style="fill:#f60" d="M26.032 27.305c.073.082.267.265.582.548 4.422 4.385 6.548 6.341 6.377 6.867-.123.387-.477.714-1.063.983-.585.254-1.112.369-1.58.345-.372-.019-2.135-1.367-5.29-5.045-.636-.77-1.01-1.206-1.121-1.306-.462.48-1.153 1.466-2.073 2.96-1.183 2.383-2.74 4.582-3.633 7.1-.272.881-.965 1.294-2.08 1.238-.585-.03-.945-.22-1.08-.573-.134-.352-.079-.9.165-1.641.468-1.485 2.72-5.087 6.753-10.808-.022-.252-.6-1.169-1.734-2.75-1.133-1.58-2.032-2.778-2.699-3.393-.721-.665-1.022-1.175-.9-1.53.272-.882 1.13-1.287 2.577-1.214.703.036 1.957 1.518 3.761 4.248.77 1.123 1.275 1.808 1.514 2.056.416-.372 1.01-1.057 1.78-2.055.77-1.014 1.303-1.836 1.599-2.465.292-.582.753-1.046 1.383-1.391.63-.346 1.229-.504 1.795-.476.88.044 1.198.43.955 1.156-.273.882-1.858 2.82-4.756 5.817-.756.78-1.167 1.222-1.232 1.329"/></svg>