<svg xmlns="http://www.w3.org/2000/svg" width="48" height="48"><path style="opacity:.2" d="M10 5c-1.108 0-2 .892-2 2v36c0 1.108.892 2 2 2h28c1.108 0 2-.892 2-2V17L28 5z"/><path style="fill:#83bc3d" d="M10 4c-1.108 0-2 .892-2 2v36c0 1.108.892 2 2 2h28c1.108 0 2-.892 2-2V16l-10-2-2-10z"/><path style="opacity:.2" d="M40 17 28 5v10c0 1.108.892 2 2 2z"/><path style="fill:#b2d885" d="M40 16 28 4v10c0 1.108.892 2 2 2z"/><path style="opacity:.2;fill:#f4f4f7" d="M10 4c-1.108 0-2 .892-2 2v1c0-1.108.892-2 2-2h18V4H10z"/><path style="opacity:.2" d="M14.938 22.988a1 1 0 0 0-.795 1.526l2.027 3.379c-2.305 1.966-3.863 4.774-4.168 7.953C11.947 37 13.166 37 13.166 37h21.639s1.254 0 1.193-1.213c-.318-3.156-1.873-5.944-4.166-7.898l2.025-3.375a1 1 0 0 0-.824-1.526 1 1 0 0 0-.89.498l-1.938 3.23A12.037 12.037 0 0 0 24.002 25c-2.272 0-4.391.632-6.205 1.719l-1.94-3.233a1 1 0 0 0-.82-.498 1 1 0 0 0-.1 0zM18.5 31a1.5 1.5 0 0 1 1.5 1.5 1.5 1.5 0 0 1-1.5 1.5 1.5 1.5 0 0 1-1.5-1.5 1.5 1.5 0 0 1 1.5-1.5zm11 0a1.5 1.5 0 0 1 1.5 1.5 1.5 1.5 0 0 1-1.5 1.5 1.5 1.5 0 0 1-1.5-1.5 1.5 1.5 0 0 1 1.5-1.5z"/><path style="fill:none;stroke:#f4f4f7;stroke-width:2;stroke-linecap:round" d="M17.4 27 15 23M30.6 27l2.4-4"/><path style="fill:#f4f4f7" d="M24.002 24c-6.267 0-11.416 4.76-12 10.846C11.947 36 13.166 36 13.166 36h21.639s1.254 0 1.193-1.213C35.388 28.73 30.249 24 24.002 24zM18.5 30a1.5 1.5 0 0 1 1.5 1.5 1.5 1.5 0 0 1-1.5 1.5 1.5 1.5 0 0 1-1.5-1.5 1.5 1.5 0 0 1 1.5-1.5zm11 0a1.5 1.5 0 0 1 1.5 1.5 1.5 1.5 0 0 1-1.5 1.5 1.5 1.5 0 0 1-1.5-1.5 1.5 1.5 0 0 1 1.5-1.5z"/></svg>