<svg xmlns="http://www.w3.org/2000/svg" width="48" height="48" version="1"><path style="fill:#f4f4f7" d="M4 15.9V40c0 1.108.892 2 2 2h36c1.108 0 2-.892 2-2V15.9z"/><path style="opacity:.2" d="M44 17V9c0-1.108-.892-2-2-2H6c-1.108 0-2 .892-2 2v8z"/><path style="fill:#f54b3e" d="M44 16V8c0-1.108-.892-2-2-2H6c-1.108 0-2 .892-2 2v8z"/><path fill="#fff" style="opacity:.2" d="M6 6c-1.108 0-2 .892-2 2v1c0-1.108.892-2 2-2h36c1.108 0 2 .892 2 2V8c0-1.108-.892-2-2-2H6z"/><path opacity=".2" d="M4 40v1c0 1.108.892 2 2 2h36c1.108 0 2-.892 2-2v-1c0 1.108-.892 2-2 2H6c-1.108 0-2-.892-2-2z"/><path style="opacity:.2" d="M33 26h6v6h-6zM17 26h6v6h-6zM9 26h6v6H9zM25 34h6v6h-6zM33 34h6v6h-6zM17 34h6v6h-6zM9 34h6v6H9zM25 18h6v6h-6zM33 18h6v6h-6zM17 18h6v6h-6zM9 18h6v6H9z"/><circle style="opacity:.2" cx="28" cy="30" r="3"/><circle style="fill:#f54b3e" cx="28" cy="29" r="3"/><circle style="opacity:.2" cx="12" cy="12" r="2"/><circle style="fill:#f4f4f7" cx="12" cy="11" r="2"/><circle style="opacity:.2" cx="36" cy="12" r="2"/><circle style="fill:#f4f4f7" cx="36" cy="11" r="2"/></svg>