<svg height="64" viewBox="0 0 16.933 16.933" width="64" xmlns="http://www.w3.org/2000/svg">
    <filter id="a" color-interpolation-filters="sRGB" height="1.067" width="1.078" x="-.039" y="-.033">
        <feGaussianBlur stdDeviation=".206"/>
    </filter>
    <path d="M3.44 1.354a1.32 1.32 0 0 0-1.323 1.323v12.171c0 .733.59 1.323 1.323 1.323h10.053a1.32 1.32 0 0 0 1.323-1.323V4.53l-3.175-3.175z" fill-rule="evenodd" filter="url(#a)" opacity=".15"/>
    <g fill-rule="evenodd">
        <path d="M3.44 1.058a1.32 1.32 0 0 0-1.323 1.323v12.17c0 .734.59 1.324 1.323 1.324h10.054a1.32 1.32 0 0 0 1.322-1.323V4.233l-3.174-3.175z" fill="#f4f4f4"/>
        <path d="m14.816 4.233-3.175-3.175V2.91c0 .733.59 1.323 1.323 1.323z" fill="#bbb"/>
    </g>
    <path d="M4.431 4.685 8.806 9.06V6.262zm5.037 1.597 3.034 1.364-.668-1.364zm-.394.1v2.542L10.9 7.21zM7.771 8.433l-2.022 3.815 2.932-2.933z" fill="#c8c4b7"/>
    <path d="M11.641 2.91v.155c0 .794.59 1.433 1.323 1.433h1.852v-.265h-1.852A1.32 1.32 0 0 1 11.64 2.91z" fill-rule="evenodd" opacity=".1"/>
</svg>
