<svg height="48" width="48" xmlns="http://www.w3.org/2000/svg"><path d="m10 5c-1.108 0-2 .892-2 2v36c0 1.108.892 2 2 2h28c1.108 0 2-.892 2-2v-26l-11-1-1-11z" opacity=".2"/><path d="m10 4c-1.108 0-2 .892-2 2v36c0 1.108.892 2 2 2h28c1.108 0 2-.892 2-2v-26l-11-1-1-11z" fill="#e67d4a"/><path d="m10 4c-1.108 0-2 .892-2 2v1c0-1.108.892-2 2-2h18l11 11h1l-12-12z" fill="#fff" opacity=".2"/><path d="m28 5v10a2 2 0 0 0 2 2h10z" opacity=".2"/><path d="m28 4v10a2 2 0 0 0 2 2h10z" fill="#e0c0b1"/><g fill-rule="evenodd"><path d="m19.064 22.482a1 1 0 0 0 -.096.002 1 1 0 0 0 -.263.055s-.627.206-1.352.588c-.725.381-1.607.916-2.174 1.834-.63 1.02-.391 2.113-.195 2.767s.304.94.123 1.377c-.089.214-.631.682-1.225.973-.594.29-1.133.443-1.133.443a1 1 0 0 0 -.715 1.229 1 1 0 0 0 .715 1.2s.54.153 1.133.8" opacity=".2"/><path d="m19.064 21.482a1 1 0 0 0 -.096.002 1 1 0 0 0 -.263.055s-.627.206-1.352.588c-.725.381-1.607.916-2.174 1.834-.63 1.02-.391 2.113-.195 2.767s.304.94.123 1.377c-.089.214-.631.682-1.225.973-.594.29-1.133.443-1.133.443a1 1 0 0 0 -.715 1.229 1 1 0 0 0 .715 1.2s.54.153 1.133.8" fill="#fff"/></g></svg>