<svg xmlns="http://www.w3.org/2000/svg" width="48" height="48" version="1"><path style="opacity:.2" d="M10 5c-1.108 0-2 .892-2 2v36c0 1.108.892 2 2 2h28c1.108 0 2-.892 2-2V17l-11-1-1-11z"/><path fill="#ce5068" d="M10 4c-1.108 0-2 .892-2 2v36c0 1.108.892 2 2 2h28c1.108 0 2-.892 2-2V16l-11-1-1-11z"/><path style="opacity:.2" d="M24 21c-5.54 0-10 4.46-10 10s4.46 10 10 10 10-4.46 10-10-4.46-10-10-10zm0 6a4 4 0 0 1 4 4 4 4 0 0 1-4 4 4 4 0 0 1-4-4 4 4 0 0 1 4-4z"/><path fill="#fff" style="opacity:.2" d="M10 4c-1.108 0-2 .892-2 2v1c0-1.108.892-2 2-2h18l11 11h1L28 4z"/><path style="opacity:.2" d="M28 5v10a2 2 0 0 0 2 2h10z"/><path fill="#ef8b9d" d="M28 4v10a2 2 0 0 0 2 2h10L28 4z"/><path style="fill:#f4f4f7" d="M24 20c-5.54 0-10 4.46-10 10s4.46 10 10 10 10-4.46 10-10-4.46-10-10-10zm0 6a4 4 0 0 1 4 4 4 4 0 0 1-4 4 4 4 0 0 1-4-4 4 4 0 0 1 4-4z"/><path style="opacity:.5;fill:#f4f4f7" d="M24 25a5 5 0 0 0-5 5 5 5 0 0 0 5 5 5 5 0 0 0 5-5 5 5 0 0 0-5-5zm0 3a2 2 0 1 1 0 4 2 2 0 0 1 0-4z"/></svg>