<svg xmlns="http://www.w3.org/2000/svg" width="48" height="48" version="1"><path style="opacity:.2" d="M10 5c-1.108 0-2 .892-2 2v36c0 1.108.892 2 2 2h28c1.108 0 2-.892 2-2V17l-11-1-1-11z"/><path style="fill:#636e73" d="M10 4c-1.108 0-2 .892-2 2v36c0 1.108.892 2 2 2h28c1.108 0 2-.892 2-2V16l-11-1-1-11z"/><path style="opacity:.1;fill:#f4f4f7" d="M10 4c-1.108 0-2 .892-2 2v1c0-1.108.892-2 2-2h18l11 11h1L28 4z"/><path style="opacity:.2" d="M28 5v10a2 2 0 0 0 2 2h10z"/><path style="fill:#909b9f" d="M28 4v10a2 2 0 0 0 2 2h10z"/><path transform="matrix(.99998 0 0 .99999 49.64 2.525)" d="m-25.725 21.475-3.115 10.939-2.307-5.795h-4.494v2.014h3.182l3.12 7.842h1.38l3.699-12.986h6.398v-2.014h-7.863zm1.498 6 3.258 4.291-3.56 4.709h1.775l2.668-3.535 2.668 3.535h1.777l-3.488-4.62 3.316-4.38h-1.777l-2.43 3.207-2.432-3.207h-1.775z" style="opacity:.2"/><path transform="matrix(.99998 0 0 .99999 49.64 1.525)" d="m-25.725 21.475-3.115 10.939-2.307-5.795h-4.494v2.014h3.182l3.12 7.842h1.38l3.699-12.986h6.398v-2.014h-7.863zm1.498 6 3.258 4.291-3.56 4.709h1.775l2.668-3.535 2.668 3.535h1.777l-3.488-4.62 3.316-4.38h-1.777l-2.43 3.207-2.432-3.207h-1.775z" style="fill:#f4f4f7"/></svg>