<svg height="48" width="48" xmlns="http://www.w3.org/2000/svg"><path d="m10 5c-1.108 0-2 .892-2 2v36c0 1.108.892 2 2 2h28c1.108 0 2-.892 2-2v-26l-12-12z" opacity=".2"/><path d="m10 4c-1.108 0-2 .892-2 2v36c0 1.108.892 2 2 2h28c1.108 0 2-.892 2-2v-26l-10-2-2-10z" fill="#e32037"/><path d="m40 17-12-12v10c0 1.108.892 2 2 2z" opacity=".2"/><path d="m40 16-12-12v10c0 1.108.892 2 2 2z" fill="#ff6565"/><g fill="#f4f4f7"><path d="m10 4c-1.108 0-2 .892-2 2v1c0-1.108.892-2 2-2h18v-1z" opacity=".1"/><g><circle cx="17.5" cy="24.5" r="1.5"/><circle cx="21.5" cy="24.5" r="1.5"/><circle cx="25.5" cy="24.5" r="1.5"/><circle cx="29.5" cy="24.5" r="1.5"/><circle cx="13.5" cy="28.5" r="1.5"/><circle cx="17.5" cy="28.5" r="1.5"/><circle cx="21.5" cy="28.5" r="1.5"/><circle cx="25.5" cy="28.5" r="1.5"/><circle cx="29.5" cy="28.5" r="1.5"/><circle cx="33.5" cy="28.5" r="1.5"/><circle cx="13.5" cy="32.5" r="1.5"/><circle cx="17.5" cy="32.5" r="1.5"/><circle cx="29.5" cy="32.5" r="1.5"/><circle cx="33.5" cy="32.5" r="1.5"/></g></g></svg>