<svg height="48" width="48" xmlns="http://www.w3.org/2000/svg"><path d="m11 12v.002l-6.475 12.996c-.225.48-.525 1.312-.525 1.844 0 1.149.505 2.323 1.316 3.158l6.832 6.832.01.01.002.004 1.152 1.156h.008l6.996 6.998h16.686v-7.002h6.998v-16.42l-8.42-8.42c-1.18-1.187-2.234-1.158-3.685-1.158z" opacity=".2"/><path d="m12.158 35.842-6.841-6.842c-.812-.834-1.317-2.01-1.317-3.159 0-.532.3-1.363.526-1.842l6.474-12.999z" fill="#01579b"/><path d="m35.58 12.158-6.84-6.841c-.598-.6-1.844-1.317-2.896-1.317-.905 0-1.793.182-2.369.526l-12.475 6.474z" fill="#40c4ff"/><path d="m25.844 4c-.905 0-1.793.182-2.37.525l-12.474 6.475 1.766.084 10.709-5.559c.575-.343 1.464-.525 2.369-.525 1.052 0 2.298.717 2.894 1.316l5.793 5.793 1.05.05-6.843-6.843c-.596-.6-1.842-1.316-2.894-1.316z" fill="#f4f4f7" opacity=".2"/><path d="m71.73 99.09-38.5 13.43 24.17 24.18h56.776v-24.18z" fill="#40c4ff" transform="matrix(.29388 0 0 .29388 3.448 3.827)"/><path d="m11 32.16c0 2.11.109 2.63 1.161 3.685l1.152 1.155h23.688l-11.683-13.26-14.318-12.74z" fill="#0ba8ef"/><path d="m31.895 11h-20.895l25.999 25.999h7.001v-16.421l-8.42-8.42c-1.18-1.187-2.233-1.158-3.685-1.158z" fill="#01579b"/><path d="m11 11 1 1h20.895c1.451 0 2.504-.03 3.685 1.158l-1-1c-1.18-1.187-2.234-1.158-3.685-1.158z" opacity=".2"/><path d="m11 11.002v1l.018.016 24.984 24.984h1l-.004-.004-25.98-25.98z" fill="#f4f4f7" opacity=".2"/></svg>