<svg height="64" viewBox="0 0 16.933 16.933" width="64" xmlns="http://www.w3.org/2000/svg" xmlns:xlink="http://www.w3.org/1999/xlink"><filter id="a" color-interpolation-filters="sRGB" height="1.0669" width="1.078" x="-.039001" y="-.033428"><feGaussianBlur stdDeviation=".20637525"/></filter><path d="m3.4395 1.3543c-.73289 0-1.3229.59001-1.3229 1.3229v12.171c0 .73289.59001 1.3229 1.3229 1.3229h10.054c.73289 0 1.3229-.59001 1.3229-1.3229v-10.319l-3.175-3.175z" fill-rule="evenodd" filter="url(#a)" opacity=".15" stroke-width=".26458"/><g fill-rule="evenodd"><path d="m13 4c-2.77 0-5 2.23-5 5v46c0 2.77 2.23 5 5 5h38c2.77 0 5-2.23 5-5v-39l-12-12z" fill="#666" transform="scale(.26458)"/><path d="m14.816 4.2332-3.1749-3.1749v1.852c0 .73288.59001 1.3229 1.3229 1.3229z" fill="#fff" opacity=".35"/></g><path d="m0 .0002888h16.93312v16.93312h-16.93312z" fill="none" opacity=".75" stroke-width=".26458"/><path d="m12.7 8.4665a4.2223 4.2223 0 0 0 -4.2332-4.2332 4.2223 4.2223 0 0 0 -4.2332 4.2332 4.2223 4.2223 0 0 0 4.2332 4.2332 4.2223 4.2223 0 0 0 4.2332-4.2332zm-2.6848 0c0 .85305-.679 1.5492-1.5484 1.5492a1.5414 1.5414 0 0 1 -1.55-1.5492c0-.85227.62827-1.5484 1.5492-1.5484s1.5484.71334 1.5484 1.5484z" fill="#fff" opacity=".75"/><path d="m8.4664 6.349a2.1175 2.1175 0 1 0 .001 4.235 2.1175 2.1175 0 0 0 -.001-4.235zm0 1.058a1.059 1.059 0 1 1 -.001 2.118 1.059 1.059 0 0 1 0-2.118z" fill="#fff" opacity=".35"/><path d="m8.4664 6.4815a1.985 1.985 0 1 0 .001 3.97 1.985 1.985 0 0 0 -.001-3.97zm0 .992a.993.993 0 1 1 -.001 1.985.993.993 0 0 1 0-1.985z" fill="none"/><path d="m11.641 2.9104v.15451c0 .79397.59 1.433 1.3229 1.433h1.852l.000142-.26463-1.8522.00005c-.73289.0000198-1.3229-.59001-1.3229-1.3229z" fill-rule="evenodd" opacity=".1" stroke-width="1.0408"/></svg>