<svg height="64" width="64" xmlns="http://www.w3.org/2000/svg">
    <filter id="a" color-interpolation-filters="sRGB" height="1.067" width="1.078" x="-.039" y="-.033">
        <feGaussianBlur stdDeviation=".206"/>
    </filter>
    <path d="M3.44 1.354a1.32 1.32 0 0 0-1.323 1.323v12.171c0 .733.59 1.323 1.323 1.323h10.053a1.32 1.32 0 0 0 1.323-1.323V4.53l-3.175-3.175z" fill-rule="evenodd" filter="url(#a)" opacity=".15" transform="scale(3.7796)"/>
    <g fill-rule="evenodd">
        <path d="M13 4c-2.77 0-5 2.23-5 5v46c0 2.77 2.23 5 5 5h38c2.77 0 5-2.23 5-5V16L44 4z" fill="#87d07d"/>
        <path d="m55.999 16-12-12v7c0 2.77 2.23 5 5 5z" fill="#fff" opacity=".35"/>
    </g>
    <g fill="#fff" opacity=".75">
        <path d="M30.003 31v6.5c0 .277.223.5.5.5h3c.277 0 .5-.223.5-.5V31zm1 4h2v2h-2zM32.002 4v2h2V4zm0 2h-2v2h2zm0 2v2h2V8zm0 2h-2v2h2zm0 2v2h2v-2zm0 2h-2v2h2zm0 2v2h2v-2zm0 2h-2v2h2zm0 2v2h2v-2zm0 2h-2v2h2zm0 2v2h2v-2zm0 2h-2v2h2zm0 2v2h2v-2z"/>
    </g>
    <path d="M43.998 11v.584c0 3 2.23 5.416 5 5.416h7v-1h-7c-2.77 0-5-2.23-5-5z" fill-rule="evenodd" opacity=".1"/>
</svg>
