<svg height="48" width="48" xmlns="http://www.w3.org/2000/svg">
    <path d="M10 5c-1.108 0-2 .892-2 2v36c0 1.108.892 2 2 2h28c1.108 0 2-.892 2-2V17L28 5z" opacity=".2"/>
    <path d="M10 4c-1.108 0-2 .892-2 2v36c0 1.108.892 2 2 2h28c1.108 0 2-.892 2-2V16l-10-2-2-10z" fill="#fec006"/>
    <path d="M40 17 28 5v10c0 1.108.892 2 2 2z" opacity=".2"/>
    <path d="M40 16 28 4v10c0 1.108.892 2 2 2z" fill="#fed861"/>
    <path d="M10 4c-1.108 0-2 .892-2 2v1c0-1.108.892-2 2-2h18V4z" fill="#f4f4f7" opacity=".2"/>
    <path d="M18 24c-1.108 0-2 .892-2 2v10c0 1.108.892 2 2 2h12c1.108 0 2-.892 2-2V26c0-1.108-.892-2-2-2zm0 3h12v8H18z" opacity=".2"/>
    <path d="M18 23c-1.108 0-2 .892-2 2v10c0 1.108.892 2 2 2h12c1.108 0 2-.892 2-2V25c0-1.108-.892-2-2-2zm0 3h12v8H18z" fill="#f4f4f7"/>
</svg>
