<svg height="64" viewBox="0 0 16.933 16.933" width="64" xmlns="http://www.w3.org/2000/svg" xmlns:xlink="http://www.w3.org/1999/xlink"><filter id="a" color-interpolation-filters="sRGB" height="1.0669" width="1.078" x="-.039001" y="-.033428"><feGaussianBlur stdDeviation=".20637525"/></filter><path d="m3.4395 1.3543c-.73289 0-1.3229.59001-1.3229 1.3229v12.171c0 .73289.59001 1.3229 1.3229 1.3229h10.054c.73289 0 1.3229-.59001 1.3229-1.3229v-10.319l-3.175-3.175z" fill-rule="evenodd" filter="url(#a)" opacity=".15" stroke-width=".26458"/><g fill-rule="evenodd"><path d="m13 4c-2.77 0-5 2.23-5 5v46c0 2.77 2.23 5 5 5h38c2.77 0 5-2.23 5-5v-39l-12-12z" fill="#f4f4f4" transform="scale(.26458)"/><path d="m14.816 4.2332-3.1749-3.1749v1.852c0 .73288.59001 1.3229 1.3229 1.3229z" fill="#bbb"/></g><path d="m9.7894 4.7624-.0408.48782a1.4552 1.4552 0 0 0 -.42532.24597l-.44337-.20879-.463.80204.40257.27953a1.4552 1.4552 0 0 0 -.022255.24547 1.4552 1.4552 0 0 0 .021199.24647l-.40152.27853.463.80204.44236-.20824a1.4552 1.4552 0 0 0 .42628.28" fill="#a8a8a8" stroke-width=".49999"/><path d="m6.2176 8.2019-.058279.69689a2.0788 2.0788 0 0 0 -.60761.35139l-.63338-.29828-.66144 1.1458.5751.39933a2.0788 2.0788 0 0 0 -.031793.35068 2.0788 2.0788 0 0 0 .030284.3521l-.57359.39789.66144 1.1458.63194-.29749a2.0788 2.0788 0 0 0 .60897.34917l.058357.69833h1.3228l.058271-.69689a2.0788 2.0788 0 0 0 .60761-.35139l.63337.29828.66144-1.1458-.57509-.39933a2.0788 2.0788 0 0 0 .0318-.35067 2.0788 2.0788 0 0 0 -.030286-.35211l.57359-.3979-.66144-1.1458-.63194.29749a2.0788 2.0788 0 0 0 -.60897-.34916l-.058357-.69833h-1.3228zm.66144 1.7638a.88192.88192 0 0 1 .88192.88192.88192.88192 0 0 1 -.88192.88192.88192.88192 0 0 1 -.88192-.88192.88192.88192 0 0 1 .88192-.88192z" fill="#a8a8a8" stroke-width=".71428"/><path d="m11.641 2.9104v.15451c0 .79397.59 1.433 1.3229 1.433h1.852l.000142-.26463-1.8522.00005c-.73289.0000198-1.3229-.59001-1.3229-1.3229z" fill-rule="evenodd" opacity=".1" stroke-width="1.0408"/></svg>