<svg height="48" width="48" xmlns="http://www.w3.org/2000/svg"><path d="m10 5c-1.108 0-2 .892-2 2v36c0 1.108.892 2 2 2h28c1.108 0 2-.892 2-2v-26l-11-1-1-11z" opacity=".2"/><path d="m10 4c-1.108 0-2 .892-2 2v36c0 1.108.892 2 2 2h28c1.108 0 2-.892 2-2v-26l-11-1-1-11z" fill="#dc682a"/><path d="m10 4c-1.108 0-2 .892-2 2v1c0-1.108.892-2 2-2h18l11 11h1l-12-12z" fill="#fff" opacity=".2"/><path d="m28 5v10a2 2 0 0 0 2 2h10z" opacity=".2"/><path d="m28 4v10a2 2 0 0 0 2 2h10z" fill="#e58c5c"/><path d="m23 19-5 16-3.078-10h-6.922v3h5.062l4.938 14 5-16 3 10 4-11 3 11h7v-3h-5l-5-13-4 8z" opacity=".2"/><path d="m23 18-5 16-3.078-10h-6.922v3h5.062l4.938 14 5-16 3 10 4-11 3 11h7v-3h-5l-5-13-4 8z" fill="#f4f4f7"/></svg>