<svg height="64" width="64" xmlns="http://www.w3.org/2000/svg">
    <filter id="a" color-interpolation-filters="sRGB" height="1.067" width="1.078" x="-.039" y="-.033">
        <feGaussianBlur stdDeviation=".206"/>
    </filter>
    <g fill-rule="evenodd">
        <path d="M3.44 1.354a1.32 1.32 0 0 0-1.323 1.323v12.171c0 .733.59 1.323 1.323 1.323h10.053a1.32 1.32 0 0 0 1.323-1.323V4.53l-3.175-3.175z" filter="url(#a)" opacity=".15" transform="scale(3.7796)"/>
        <path d="M13 4.002c-2.77 0-5 2.23-5 5v46.001c0 2.77 2.23 5 5 5h38c2.77 0 5-2.23 5-5V16.002l-12-12z" fill="#56cc56"/>
        <path d="m55.999 16-12-12v7c0 2.77 2.23 5 5 5z" fill="#fff" opacity=".35"/>
    </g>
    <path d="M43.998 11v.584c0 3 2.23 5.416 5 5.416h7v-1h-7c-2.77 0-5-2.23-5-5z" fill-rule="evenodd" opacity=".1"/>
    <path d="M35 21c-.554 0-1 .446-1 1v2H22c-.554 0-1 .446-1 1v17c0 .554.446 1 1 1h17c.554 0 1-.446 1-1v-4h2c.554 0 1-.446 1-1V22c0-.554-.446-1-1-1h-2zm0 1h7v15h-2V25c0-.554-.446-1-1-1-1.556-.611-4.061-.985-4-2zm-12 5h15v4H23zm0 6h7v1h-7zm8 0h7v1h-7zm-8 3h7v1h-7zm8 0h7v1h-7zm-8 3h7v1h-7zm8 0h7v1h-7z" fill="#fff" opacity=".9"/>
</svg>
