<svg height="64" width="64" xmlns="http://www.w3.org/2000/svg">
    <filter id="a" color-interpolation-filters="sRGB" height="1.067" width="1.078" x="-.039" y="-.033">
        <feGaussianBlur stdDeviation=".206"/>
    </filter>
    <g fill-rule="evenodd">
        <path d="M3.44 1.354a1.32 1.32 0 0 0-1.323 1.323v12.171c0 .733.59 1.323 1.323 1.323h10.053a1.32 1.32 0 0 0 1.323-1.323V4.53l-3.175-3.175z" filter="url(#a)" opacity=".15" transform="scale(3.7796)"/>
        <path d="M13 4c-2.77 0-5 2.23-5 5v46c0 2.77 2.23 5 5 5h38c2.77 0 5-2.23 5-5V16L44 4z" fill="#f4f4f4"/>
        <path d="m55.999 16-12-12v7c0 2.77 2.23 5 5 5z" fill="#bbb"/>
        <path d="m30.662 18.545-1.291 1.666-2.05-.467-.557 2.03-2.075.355.264 2.088-1.781 1.123 1.045 1.828L23 28.887l1.662 1.289-.463 2.053 2.03.554.355 2.074.812-.103v10.404l4.594-3.342 4.594 3.342v-9.832l.098.023.556-2.029 2.075-.357-.266-2.088 1.781-1.121-1.043-1.83L41 26.207l-1.662-1.291.465-2.051-2.03-.557-.355-2.072-2.088.264-1.123-1.782-1.828 1.043zM32 22.852a5 5 0 0 1 5 5 5 5 0 0 1-5 5 5 5 0 0 1-5-5 5 5 0 0 1 5-5z" fill="#f55"/>
        <path d="M43.998 11v.584c0 3 2.23 5.416 5 5.416h7v-1h-7c-2.77 0-5-2.23-5-5z" opacity=".1"/>
    </g>
</svg>
