<svg height="48" width="48" xmlns="http://www.w3.org/2000/svg"><path d="m10 5c-1.108 0-2 .892-2 2v36c0 1.108.892 2 2 2h28c1.108 0 2-.892 2-2v-26l-12-12z" opacity=".2"/><path d="m10 4c-1.108 0-2 .892-2 2v36c0 1.108.892 2 2 2h28c1.108 0 2-.892 2-2v-26l-10-2-2-10z" fill="#4f4f4f"/><path d="m40 17-12-12v10c0 1.108.892 2 2 2z" opacity=".2"/><path d="m40 16-12-12v10c0 1.108.892 2 2 2z" fill="#696969"/><path d="m10 4c-1.108 0-2 .892-2 2v1c0-1.108.892-2 2-2h18v-1z" fill="#f4f4f7" opacity=".1"/><path d="m17 22c-1.108 0-2 .892-2 2v6.5l10-8.5zm12 0-7.992 6.85 11.385 10.586c.374-.363.607-.871.607-1.436v-14c0-1.108-.892-2-2-2zm-9.994 8.566-4.006 3.434v4c0 1.108.892 2 2 2h12z" opacity=".2"/><path d="m17 21c-1.108 0-2 .892-2 2v6.5l10-8.5zm12 0-7.992 6.85 11.385 10.586c.374-.363.607-.871.607-1.436v-14c0-1.108-.892-2-2-2zm-9.994 8.566-4.006 3.434v4c0 1.108.892 2 2 2h12z" fill="#f4f4f7"/></svg>