<svg xmlns="http://www.w3.org/2000/svg" width="48" height="48"><path style="opacity:.2" d="M10 5c-1.108 0-2 .892-2 2v36c0 1.108.892 2 2 2h28c1.108 0 2-.892 2-2V17l-11-1-1-11z"/><path fill="#555e70" d="M10 4c-1.108 0-2 .892-2 2v36c0 1.108.892 2 2 2h28c1.108 0 2-.892 2-2V16l-11-1-1-11z"/><path fill="#fff" style="opacity:.1" d="M10 4c-1.108 0-2 .892-2 2v1c0-1.108.892-2 2-2h18l11 11h1L28 4z"/><path style="opacity:.2" d="M28 5v10a2 2 0 0 0 2 2h10z"/><path fill="#7f99a6" d="M28 4v10a2 2 0 0 0 2 2h10L28 4z"/><path style="opacity:.2" d="M15 26v-2h13v2zm4 4v-2h13v2zm4 8v-2h9v2zm0-4v-2h9v2z"/><path style="fill:#f4f4f7" d="M15 25v-2h13v2zm4 4v-2h13v2zm4 8v-2h9v2zm0-4v-2h9v2z"/></svg>