<svg height="48" width="48" xmlns="http://www.w3.org/2000/svg"><path d="m10 5c-1.108 0-2 .892-2 2v36c0 1.108.892 2 2 2h28c1.108 0 2-.892 2-2v-26l-11-1-1-11z" opacity=".2"/><path d="m10 4c-1.108 0-2 .892-2 2v36c0 1.108.892 2 2 2h28c1.108 0 2-.892 2-2v-26l-11-1-1-11z" fill="#fe9700"/><path d="m10 4c-1.108 0-2 .892-2 2v1c0-1.108.892-2 2-2h18l11 11h1l-12-12z" fill="#f4f4f7" opacity=".2"/><path d="m28 5v10a2 2 0 0 0 2 2h10z" opacity=".2"/><path d="m28 4v10a2 2 0 0 0 2 2h10z" fill="#ffbd63"/><path d="m16.783 27-3.113 8h1.016l.845-2.057h3.364l.855 2.057h1.04l-3.102-8zm7.582 0-3.113 8h1.016l.845-2.057h3.364l.855 2.057h1.04l-3.102-8zm8.373 0c-.799 0-1.477.17-2.037.512-.56.334-.985.803-1.275 1.406-.284.596-.426 1.286-.426 2.07 0 .814.131 1.524.393 2.127a3.05 3.05 0 0 0 1.199 1.395c.53.327 1.19.49 1.982.49.429 0 .797-.025 1.102-.076.312-.051.613-.131.904-.24v-.85c-.298.087-.599.16-.904.219a5.118 5.118 0 0 1 -.96.086c-.893 0-1.564-.28-2.015-.84-.443-.567-.666-1.333-.666-2.299 0-.974.24-1.74.719-2.299.48-.56 1.137-.84 1.973-.84.348 0 .67.044.96.131.298.087.567.184.807.293l.39-.828c-.61-.305-1.325-.457-2.146-.457zm-15.52 1.037c.03.09.067.22.112.39a36.987 36.987 0 0 0 .268.805l.996 2.819h-2.727l1.006-2.819c.045-.126.097-.298.156-.513.067-.223.13-.451.19-.682zm7.583 0c.03.09.066.22.111.39a36.987 36.987 0 0 0 .268.805l.996 2.819h-2.727l1.006-2.819c.045-.126.097-.298.156-.513.067-.223.13-.451.19-.682z" opacity=".2"/><path d="m19.75 34-.856-2.057h-3.362l-.847 2.057h-1.015l3.113-8h.904l3.102 8zm-1.157-2.95-.996-2.818a36.865 36.865 0 0 1 -.268-.803 6.553 6.553 0 0 0 -.11-.391c-.06.23-.124.457-.19.68-.06.216-.112.387-.157.514l-1.006 2.819zm14.135-4.189q-1.254 0-1.973.84-.72.839-.72 2.299 0 1.45.665 2.3.676.839 2.017.839.501 0 .959-.087.458-.087.904-.218v.85q-.436.163-.904.24-.458.076-1.101.076-1.188 0-1.984-.49-.795-.49-1.199-1.396-.392-.904-.392-2.124 0-1.177.425-2.07.436-.905 1.275-1.407.84-.512 2.038-.512 1.232 0 2.148.458l-.393.828q-.36-.163-.806-.294-.436-.131-.96-.131zm-5.395 7.139-.857-2.057h-3.362l-.847 2.057h-1.015l3.113-8h.904l3.102 8zm-1.158-2.95-.996-2.818a36.865 36.865 0 0 1 -.268-.803 6.553 6.553 0 0 0 -.11-.391c-.06.23-.124.457-.19.68-.06.216-.112.387-.157.514l-1.006 2.819z" fill="#f4f4f7"/></svg>