<svg height="48" width="48" xmlns="http://www.w3.org/2000/svg">
    <path d="M10 5c-1.108 0-2 .892-2 2v36c0 1.108.892 2 2 2h28c1.108 0 2-.892 2-2V17l-11-1-1-11z" opacity=".2"/>
    <path d="M10 4c-1.108 0-2 .892-2 2v36c0 1.108.892 2 2 2h28c1.108 0 2-.892 2-2V16l-11-1-1-11z" fill="#ff5722"/>
    <path d="M18 26a4 4 0 1 0 4 4h-4zm7 0v2h9v-2zm0 5v2h9v-2zm-11 5v2h16v-2z" opacity=".2"/>
    <path d="M18 25a4 4 0 1 0 4 4h-4zm7 0v2h9v-2zm0 5v2h9v-2zm-11 5v2h16v-2z" fill="#fff"/>
    <path d="M10 4c-1.108 0-2 .892-2 2v1c0-1.108.892-2 2-2h18l11 11h1L28 4z" fill="#fff" opacity=".1"/>
    <path d="M28 5v10a2 2 0 0 0 2 2h10z" opacity=".2"/>
    <path d="M28 4v10a2 2 0 0 0 2 2h10z" fill="#ff8660"/>
</svg>
