<svg height="48" width="48" xmlns="http://www.w3.org/2000/svg">
    <rect fill="#f4f4f7" height="40" rx="2" transform="matrix(0 -1 -1 0 0 0)" width="40" x="-44" y="-44"/>
    <path d="M6 4c-1.108 0-2 .892-2 2v1c0-1.108.892-2 2-2h36c1.108 0 2 .892 2 2V6c0-1.108-.892-2-2-2z" fill="#f4f4f7" opacity=".2"/>
    <g fill-rule="evenodd">
        <path d="m6 44 18-18 18 18z" fill="#707070"/>
        <path d="M44 42 26 24 44 6z" fill="#9f9f9f"/>
        <g fill="#f4f4f7">
            <path d="m25.768 22.2-3.535 3.537 18.23 18.23H42c1.108 0 2-.892 2-2v-1.535z"/>
            <path d="M40.465 4 4 40.4v1.535c0 1.108.892 2 2 2h1.537L44 7.535V5.998c0-1.108-.892-2-2-2h-1.535z"/>
        </g>
    </g>
    <path d="M6 45c-1.108 0-2-.892-2-2v-1c0 1.108.892 2 2 2h36c1.108 0 2-.892 2-2v1c0 1.108-.892 2-2 2z" opacity=".2"/>
</svg>
