<svg xmlns="http://www.w3.org/2000/svg" width="48" height="48"><path style="opacity:.2" d="M10 5c-1.108 0-2 .892-2 2v36c0 1.108.892 2 2 2h28c1.108 0 2-.892 2-2V17L28 5z"/><path style="fill:#4f4f4f" d="M10 4c-1.108 0-2 .892-2 2v36c0 1.108.892 2 2 2h28c1.108 0 2-.892 2-2V16L28 4z"/><path style="opacity:.2" d="M40 17 28 5v10c0 1.108.892 2 2 2z"/><path style="fill:#696969" d="M40 16 28 4v10c0 1.108.892 2 2 2z"/><path style="opacity:.1;fill:#f4f4f7" d="M10 4c-1.108 0-2 .892-2 2v1c0-1.108.892-2 2-2h18V4H10z"/><path style="opacity:.2" d="M24.096 22.55s-.92.728-1.858 1.45c-.964-.03-2.856.184-3.88.557-.945-.598-1.774-1.258-1.774-1.258s-.71 1.22-1.156 1.935c-.661.352-1.325.747-1.916 1.27A106.21 106.21 0 0 1 12 25.887c.911 1.838 1.525 3.679 3.191 4.785 2.654-4.19 14.982-3.804 17.69-.024 1.75-.912 2.43-2.876 3.119-4.689-.075.025-1.012.337-1.62.568-.362-.394-1.217-1-1.702-1.293-.46-.843-1.131-1.982-1.131-1.982s-.793.59-1.713 1.234c-1.243-.23-2.747-.508-4.012-.44-.86-.707-1.726-1.495-1.726-1.495zm11.127 7.214c-1.086 1.608-2.852 2.718-3.94 3.316-.773.424-2.558.68-2.558.68l-4.684-2.428-4.71 2.379s-1.76-.284-2.558-.656c-1.608-.859-2.691-1.873-3.832-3.262l2.19 5.3c3.801 5.016 13.508 5.365 17.74.098 1.001-2.256 2.352-5.427 2.352-5.427z"/><path style="fill:#ffa700" d="M24.095 21.55s-.92.727-1.857 1.45c-.964-.032-2.856.184-3.88.557-.945-.598-1.775-1.258-1.775-1.258s-.709 1.22-1.154 1.935c-.662.352-1.325.747-1.917 1.27-.688-.273-1.486-.606-1.512-.617.911 1.838 1.524 3.679 3.19 4.785 2.654-4.19 14.983-3.804 17.691-.024 1.75-.913 2.43-2.877 3.119-4.69a49.97 49.97 0 0 0-1.619.57c-.363-.394-1.217-1.001-1.702-1.294-.461-.843-1.131-1.983-1.131-1.983s-.794.59-1.715 1.235c-1.243-.23-2.747-.508-4.012-.44-.86-.707-1.726-1.495-1.726-1.495z"/><path style="fill:#ffc504" d="m12.942 28.793 2.189 5.301c3.801 5.015 13.508 5.364 17.74.097 1.001-2.257 2.352-5.428 2.352-5.428-1.086 1.608-2.852 2.718-3.94 3.316-.774.424-2.558.68-2.558.68l-4.684-2.427-4.71 2.379s-1.761-.283-2.558-.656c-1.608-.858-2.69-1.873-3.83-3.262z"/></svg>