<svg height="64" width="64" xmlns="http://www.w3.org/2000/svg" xmlns:xlink="http://www.w3.org/1999/xlink"><filter id="a" color-interpolation-filters="sRGB" height="1.0669" width="1.078" x="-.039001" y="-.033428"><feGaussianBlur stdDeviation=".20637525"/></filter><g fill-rule="evenodd"><path d="m3.4395 1.3543c-.73289 0-1.3229.59001-1.3229 1.3229v12.171c0 .73289.59001 1.3229 1.3229 1.3229h10.054c.73289 0 1.3229-.59001 1.3229-1.3229v-10.319l-3.175-3.175z" filter="url(#a)" opacity=".15" stroke-width=".26458" transform="scale(3.7796)"/><g transform="scale(3.7796)"><path d="m13 4c-2.77 0-5 2.23-5 5v46c0 2.77 2.23 5 5 5h38c2.77 0 5-2.23 5-5v-39l-12-12z" fill="#f4f4f4" transform="scale(.26458)"/><path d="m14.816 4.2332-3.1749-3.1749v1.852c0 .73288.59001 1.3229 1.3229 1.3229z" fill="#bbb"/></g><path d="m43.998 11v.58398c0 3.0009 2.23 5.416 5 5.416h7l.000537-1.0002-7.0005.000189c-2.77.000075-5-2.23-5-5z" opacity=".1" stroke-width="3.934"/></g><g opacity=".75" stroke-width=".96313" transform="matrix(2.0346 0 0 2.035 14.777 14.777)"><path d="m13.323 3.603c-.048.049 2.02 4.86 2.02 4.86l-2.02 4.858s-4.86-2.568-4.86-4.859c0-2.29 4.86-4.859 4.86-4.859z" fill="#46a926"/><path d="m3.604 13.321c.049-.049-2.02-4.859-2.02-4.859l2.02-4.859s4.86 2.569 4.86 4.86c0 2.29-4.86 4.858-4.86 4.858z" fill="#f22c42"/><path d="m13.323 3.603c-.048.049-4.86-2.019-4.86-2.019l-4.86 2.019 4.86 4.86z" fill="#ffda64"/><path d="m3.604 13.321 4.86 2.013s4.81-2.062 4.86-2.013l-4.86-4.859z" fill="#2f5fdd"/><path d="m8.464 1.587c-.001 1.758.672 3.516 2.019 4.862l2.845-2.844a6.88 6.88 0 0 0 -4.861-2.018z" fill="#a6d74f"/><path d="m13.328 3.605-2.845 2.844a6.84 6.84 0 0 0 4.863 2.012 6.88 6.88 0 0 0 -2.018-4.856z" fill="#76c22b"/><path d="m10.476 10.481a6.85 6.85 0 0 0 -2.019 4.862h.069a6.88 6.88 0 0 0 4.8-2.013z" fill="#1463a5"/><path d="m15.346 8.469a6.84 6.84 0 0 0 -4.87 2.012l2.85 2.85a6.88 6.88 0 0 0 2.02-4.862z" fill="#2b898f"/><path d="m1.587 8.463a6.88 6.88 0 0 0 0 .003 6.88 6.88 0 0 0 2.014 4.857l2.85-2.848a6.839 6.839 0 0 0 -4.864-2.011z" fill="#9b33ae"/><path d="m6.45 10.475-2.85 2.848a6.88 6.88 0 0 0 4.826 2.02h.043a6.85 6.85 0 0 0 -2.019-4.868z" fill="#7839b7"/><path d="m8.467 1.587a6.88 6.88 0 0 0 -4.858 2.015l2.848 2.847a6.85 6.85 0 0 0 2.019-4.861 6.88 6.88 0 0 0 -.01 0z" fill="#fdc92b"/><path d="m3.609 3.602a6.88 6.88 0 0 0 -2.021 4.859 6.84 6.84 0 0 0 4.869-2.012z" fill="#f34f17"/></g><circle cx="32" cy="32" fill="#fff" opacity=".35" r="10" stroke-width="1.8898"/></svg>