<svg height="64" width="64" xmlns="http://www.w3.org/2000/svg" xmlns:xlink="http://www.w3.org/1999/xlink"><filter id="a" color-interpolation-filters="sRGB" height="1.0669" width="1.078" x="-.039001" y="-.033428"><feGaussianBlur stdDeviation=".20637525"/></filter><path d="m3.4395 1.3543c-.73289 0-1.3229.59001-1.3229 1.3229v12.171c0 .73289.59001 1.3229 1.3229 1.3229h10.054c.73289 0 1.3229-.59001 1.3229-1.3229v-10.319l-3.175-3.175z" filter="url(#a)" opacity=".15" stroke-width=".26458" transform="scale(3.7796)"/><g fill-rule="evenodd"><path d="m13 4c-2.77 0-5 2.2299-5 5v46.002c0 2.7698 2.23 5 5 5h38c2.77 0 5-2.2299 5-5v-39.002l-12-11.999z" fill="#90d344" stroke-width="3.7795"/><g fill="#fff"><path d="m55.999 16-12-12v6.9998c0 2.77 2.23 5 5 5z" opacity=".35" stroke-width="3.7796"/><path d="m18 21c-.554 0-1 .446-1 1v20c0 .554.446 1 1 1h28c.554 0 1-.446 1-1v-20c0-.554-.446-1-1-1zm20 1a1 1 0 0 1 1 1 1 1 0 0 1 -1 1 1 1 0 0 1 -1-1 1 1 0 0 1 1-1zm3 0a1 1 0 0 1 1 1 1 1 0 0 1 -1 1 1 1 0 0 1 -1-1 1 1 0 0 1 1-1zm3 0a1 1 0 0 1 1 1 1 1 0 0 1 -1 1 1 1 0 0 1 -1-1 1 1 0 0 1 1-1zm-26 3h6v17h-6zm7 0h21v17h-21z"/></g></g><path d="m43.998 11v.58399c0 3.0009 2.23 5.4162 5 5.4162h6.9998l.000537-1.0002-7.0006.000189c-2.77.000075-5-2.23-5-5z" opacity=".1" stroke-width="3.9338"/></svg>