<svg height="64" viewBox="0 0 16.933 16.933" width="64" xmlns="http://www.w3.org/2000/svg" xmlns:xlink="http://www.w3.org/1999/xlink"><filter id="a" color-interpolation-filters="sRGB" height="1.0669" width="1.078" x="-.039001" y="-.033428"><feGaussianBlur stdDeviation=".20637525"/></filter><path d="m3.4395 1.3543c-.73289 0-1.3229.59001-1.3229 1.3229v12.171c0 .73289.59001 1.3229 1.3229 1.3229h10.054c.73289 0 1.3229-.59001 1.3229-1.3229v-10.319l-3.175-3.175z" filter="url(#a)" opacity=".15" stroke-width=".26458"/><g fill-rule="evenodd"><path d="m13 4c-2.77 0-5 2.23-5 5v46c0 2.77 2.23 5 5 5h38c2.77 0 5-2.23 5-5v-39l-12-12z" fill="#f4f4f4" transform="scale(.26458)"/><path d="m14.816 4.2332-3.1749-3.1749v1.852c0 .73288.59001 1.3229 1.3229 1.3229z" fill="#bbb"/></g><g fill="#5884f4" transform="translate(-16.547 -1.6323)"><path d="m21.4 10.099 2.1358.87841-.15643.46327-2.5991-1.101v-.48132l2.5991-1.101.15643.46327z"/><path d="m24.284 13.011h-.57156l2.0396-5.824h.55953z"/><path d="m26.491 9.2204.15643-.46327 2.5991 1.101v.48132l-2.5991 1.101-.15643-.46327 2.1358-.87841z"/></g><path d="m11.641 2.9104v.15451c0 .79397.59 1.433 1.3229 1.433h1.852l.000142-.26463-1.8522.00005c-.73289.0000198-1.3229-.59001-1.3229-1.3229z" opacity=".1" stroke-width="1.0408"/></svg>