<svg height="64" viewBox="0 0 16.933 16.933" width="64" xmlns="http://www.w3.org/2000/svg" xmlns:xlink="http://www.w3.org/1999/xlink"><filter id="a" color-interpolation-filters="sRGB" height="1.0669" width="1.078" x="-.039001" y="-.033428"><feGaussianBlur stdDeviation=".20637525"/></filter><path d="m3.4395 1.3543c-.73289 0-1.3229.59001-1.3229 1.3229v12.171c0 .73289.59001 1.3229 1.3229 1.3229h10.054c.73289 0 1.3229-.59001 1.3229-1.3229v-10.319l-3.175-3.175z" filter="url(#a)" opacity=".15" stroke-width=".26458"/><g fill-rule="evenodd"><path d="m13 4c-2.77 0-5 2.23-5 5v46c0 2.77 2.23 5 5 5h38c2.77 0 5-2.23 5-5v-39l-12-12z" fill="#f4f4f4" transform="scale(.26458)"/><path d="m14.816 4.2332-3.1749-3.1749v1.852c0 .73288.59001 1.3229 1.3229 1.3229z" fill="#bbb"/></g><path d="m11.641 2.9104v.15451c0 .79397.59 1.433 1.3229 1.433h1.852l.000142-.26463-1.8522.00005c-.73289.0000198-1.3229-.59001-1.3229-1.3229z" opacity=".1" stroke-width="1.0408"/><path d="m10.96 6.0704c.26821.06705.47273.18607.66048.38053.09723.10393.24139.29336.25313.33862.0034.01341-.45596.32186-.73424.49452-.01006.0067-.05029-.03688-.09555-.10393-.13578-.19781-.27827-.2833-.4962-.29839-.32018-.02179-.52637.14584-.52469.42579 0 .08214.01174.13076.04526.19781.07041.14584.20116.23301.61186.4107.75603.32521 1.0796.53978 1.2807.84487.22463.3403.27492.88343.12237 1.2874-.16763.4392-.58337.73759-1.1684.83649-.18104.03185-.61019.02682-.80464-.0084-.42411-.07544-.82643-.28498-1.0745-.5599-.09723-.10729-.28665-.38723-.27492-.40735.005-.0067.04861-.03353.09723-.06202.04694-.02682.22463-.12908.39226-.2263l.30342-.17602.0637.09388c.08885.13578.2833.32186.40064.38388.33694.17769.79961.15255 1.0276-.05197.09723-.08885.13746-.18104.13746-.31683 0-.12237-.01509-.17602-.07879-.26822-.08214-.11734-.24978-.21625-.72585-.42244-.54481-.23469-.7795-.38053-.99407-.61186-.12405-.13411-.24139-.34868-.29001-.52805-.04023-.14919-.05029-.52302-.01844-.67389.11231-.52637.50961-.89349 1.0829-1.0024.18607-.0352.61857-.02179.80129.02347zm-2.4793.44088.0034.4325h-1.3746v3.9059h-.97232v-3.9059h-1.3746v-.42411c0-.23469.005-.43082.01173-.43585.005-.0067.84152-.01006 1.8557-.0084l1.8456.005z" fill="#1a7fd4" stroke-width=".006614"/></svg>