<svg height="64" viewBox="0 0 16.933 16.933" width="64" xmlns="http://www.w3.org/2000/svg" xmlns:xlink="http://www.w3.org/1999/xlink"><filter id="a" color-interpolation-filters="sRGB" height="1.0669" width="1.078" x="-.039001" y="-.033428"><feGaussianBlur stdDeviation=".20637525"/></filter><path d="m3.4395 1.3543c-.73289 0-1.3229.59001-1.3229 1.3229v12.171c0 .73289.59001 1.3229 1.3229 1.3229h10.054c.73289 0 1.3229-.59001 1.3229-1.3229v-10.319l-3.175-3.175z" filter="url(#a)" opacity=".15" stroke-width=".26458"/><g fill-rule="evenodd"><path d="m13 4c-2.77 0-5 2.23-5 5v46c0 2.77 2.23 5 5 5h38c2.77 0 5-2.23 5-5v-39l-12-12z" fill="#f4f4f4" transform="scale(.26458)"/><path d="m14.816 4.2332-3.1749-3.1749v1.852c0 .73288.59001 1.3229 1.3229 1.3229z" fill="#bbb"/></g><g fill="#999" transform="translate(-7.9617 -24.175)"><path d="m16.958 29.467v.26458h3.1749v-.26458zm0 .79373v.26458h3.1749v-.26458zm0 .79374v.26458h3.1749v-.26458zm0 .79373v.26458h3.1749v-.26458zm0 .79373v.26458h3.1749v-.26458zm-4.2332.79373v.26458h7.4082v-.26458zm0 .79374v.26458h7.4082v-.26458zm0 .79373v.26458h7.4082v-.26458zm0 .79374v.26458h7.4082v-.26458zm0 .79373v.26458h4.2332v-.26458z"/><path d="m14.35 29.202-1.3053 3.4395h-.32064v.26458h.92601v-.26458h-.29647l.30928-.79429h1.5347l.30891.79429h-.40052v.26458h1.3283v-.26458h-.36644l-1.3056-3.4395zm.08025.59547.67572 1.7863h-1.3401z" stroke-width=".066145"/></g><path d="m11.641 2.9104v.15451c0 .79397.59 1.433 1.3229 1.433h1.852l.000142-.26463-1.8522.00005c-.73289.0000198-1.3229-.59001-1.3229-1.3229z" opacity=".1" stroke-width="1.0408"/></svg>