<svg xmlns="http://www.w3.org/2000/svg" width="64" height="64"><path style="opacity:.2" d="M12.75 5C11.226 5 10 6.249 10 7.8v50.4c0 1.55 1.226 2.8 2.75 2.8h38.5c1.522 0 2.75-1.25 2.75-2.8V23l-14-4-4-14z"/><path style="fill:#4caf50" d="M12.75 4C11.226 4 10 5.249 10 6.8v50.4c0 1.55 1.226 2.8 2.75 2.8h38.5c1.522 0 2.75-1.25 2.75-2.8V22l-14-4-4-14z"/><path style="opacity:.2" d="M54 23 36 5v15.188A2.806 2.806 0 0 0 38.813 23z"/><path style="fill:#88cc8b" d="M54 22 36 4v15.188A2.806 2.806 0 0 0 38.813 22z"/><path style="opacity:.2;fill:#fff" d="M12.75 4C11.226 4 10 5.25 10 6.8v1C10 6.25 11.226 5 12.75 5H36V4H12.75z"/><path style="opacity:.2" d="m32 28-12 7v5.5l17.585 5.276L32 49l-7-4v-1l-5-1.5V48l12 7 12-7v-5.5l-17.585-5.275L32 34l7 4v1l5 1.5V35z"/><path style="fill:#fff" d="m32 27-12 7v5.5l17.585 5.276L32 48l-7-4v-1l-5-1.5V47l12 7 12-7v-5.5l-17.585-5.275L32 33l7 4v1l5 1.5V34z"/></svg>