<svg width="64" height="64" xmlns="http://www.w3.org/2000/svg"><path d="M12.75 5C11.226 5 10 6.249 10 7.8v50.4c0 1.55 1.226 2.8 2.75 2.8h38.5c1.522 0 2.75-1.25 2.75-2.8V23l-14-4-4-14z" style="opacity:.2"/><path d="M12.75 4C11.226 4 10 5.249 10 6.8v50.4c0 1.55 1.226 2.8 2.75 2.8h38.5c1.522 0 2.75-1.25 2.75-2.8V22l-14-4-4-14z" style="fill:#6657ac"/><path d="M54 23 36 5v15.188A2.806 2.806 0 0 0 38.813 23z" style="opacity:.2"/><path d="M54 22 36 4v15.188A2.806 2.806 0 0 0 38.813 22z" style="fill:#877cbe"/><path d="M12.75 4C11.226 4 10 5.25 10 6.8v1C10 6.25 11.226 5 12.75 5H36V4H12.75z" style="fill:#fff;opacity:.1"/><path d="M24.434 28.585a2.818 1.08 48.256 0 0-.317.125 2.818 1.08 48.256 0 0 1.098 2.834 2.818 1.08 48.256 0 0 2.67 1.358 2.818 1.08 48.256 0 0-1.096-2.836 2.818 1.08 48.256 0 0-2.355-1.48zm14.115.393a1.03 2.683 45.54 0 0-2.252 1.305 1.03 2.683 45.54 0 0-1.162 2.601 1.03 2.683 45.54 0 0 2.65-1.175 1.03 2.683 45.54 0 0 1.162-2.602 1.03 2.683 45.54 0 0-.398-.129zm7.603 4.033a1.033 2.762 64.498 0 0-2.129.596 1.033 2.762 64.498 0 0-2.003 2.117 1.033 2.762 64.498 0 0 2.966-.289 1.033 2.762 64.498 0 0 2.006-2.117 1.033 2.762 64.498 0 0-.84-.307zM32.24 34.066c-5.051.077-12.133 3.72-12.24 8.598-.12 5.52 8.075 7.259 12.86 7.326 4.059.056 8.604-2.181 10.144-5.338.335-.686-.102-2.084-.149-2.85-.033-.557.227-1.112.17-1.668-.406-3.967-6.995-6.126-10.785-6.068zm-16.23.484a2.801 1.086 31.888 0 0-.729.27 2.801 1.086 31.888 0 0 1.83 2.406 2.801 1.086 31.888 0 0 2.938.537 2.801 1.086 31.888 0 0-1.83-2.406 2.801 1.086 31.888 0 0-2.21-.807zm15.66 4.428 2.533.055s-.333.751-.2 1.097c.207.532.81.885 1.354 1.018.393.096 1.038.177 1.194-.203.125-.305-.617-.49-.557-.815.07-.384.592-.779.953-.65 1.16.206 3.46.719 3.428 1.7-.123 3.814-4.815 5.338-7.727 5.282-2.933-.056-7.476-1.206-7.347-3.709.096-1.871 2.33-3.575 3.303-3.56.722.011.108 1.768 1.376 1.818.65.026 1.89-.03 1.832-.691-.046-.535-1.42.234-1.552-.285-.163-.644 1.41-1.057 1.41-1.057zm15.707 1.977a2.785 1.092 4.01 0 0-2.377.914 2.785 1.092 4.01 0 0 2.705 1.283 2.785 1.092 4.01 0 0 2.852-.897 2.785 1.092 4.01 0 0-2.705-1.283 2.785 1.092 4.01 0 0-.475-.017zm-18.734 2.078c-.267-.011-.447.048-.483.222-.197.969 2.406 1.577 3.637 1.668 2.937.218 5.219.164 5.176-.918-.032-.784-.65-.306-5.065-.289-.876.004-2.465-.65-3.265-.683zm-13.202.93a1.092 2.785 87.257 0 0-.279.007 1.092 2.785 87.257 0 0-2.732 1.223 1.092 2.785 87.257 0 0 2.832.959 1.092 2.785 87.257 0 0 2.732-1.223 1.092 2.785 87.257 0 0-2.553-.967zm28.366 4.972a2.802 1.086 32.06 0 0-.73.27 2.802 1.086 32.06 0 0 1.823 2.412 2.802 1.086 32.06 0 0 2.936.545 2.802 1.086 32.06 0 0-1.824-2.41 2.802 1.086 32.06 0 0-2.205-.817zm-22.41 1.115a1.083 2.807 51.967 0 0-2.329 1.06 1.083 2.807 51.967 0 0-1.572 2.59 1.083 2.807 51.967 0 0 2.865-.85 1.083 2.807 51.967 0 0 1.57-2.593 1.083 2.807 51.967 0 0-.535-.207zm15.11.957a2.838 1.072 69.658 0 0-.103.026 2.838 1.072 69.658 0 0-.006 3.047 2.838 1.072 69.658 0 0 1.99 2.27 2.838 1.072 69.658 0 0 .007-3.048 2.838 1.072 69.658 0 0-1.887-2.295zm-7.01.024a1.074 2.833 26.155 0 0-2.03 2.094 1.074 2.833 26.155 0 0-.303 3.03 1.074 2.833 26.155 0 0 2.211-2.046 1.074 2.833 26.155 0 0 .303-3.031 1.074 2.833 26.155 0 0-.182-.047z" style="opacity:.2"/><path d="M24.434 27.586a2.818 1.08 48.256 0 0-.317.125 2.818 1.08 48.256 0 0 1.098 2.834 2.818 1.08 48.256 0 0 2.67 1.357 2.818 1.08 48.256 0 0-1.096-2.836 2.818 1.08 48.256 0 0-2.355-1.48zm14.115.393a1.03 2.683 45.54 0 0-2.252 1.304 1.03 2.683 45.54 0 0-1.162 2.602 1.03 2.683 45.54 0 0 2.65-1.176 1.03 2.683 45.54 0 0 1.162-2.602 1.03 2.683 45.54 0 0-.398-.128zm7.603 4.033a1.033 2.762 64.498 0 0-2.129.595 1.033 2.762 64.498 0 0-2.003 2.118 1.033 2.762 64.498 0 0 2.966-.29 1.033 2.762 64.498 0 0 2.006-2.117 1.033 2.762 64.498 0 0-.84-.306zM32.24 33.066c-5.051.078-12.133 3.72-12.24 8.598-.12 5.521 8.075 7.26 12.86 7.326 4.059.057 8.604-2.18 10.144-5.338.335-.686-.102-2.084-.149-2.85-.033-.557.227-1.112.17-1.667-.406-3.967-6.995-6.127-10.785-6.069zm-16.23.485a2.801 1.086 31.888 0 0-.729.27 2.801 1.086 31.888 0 0 1.83 2.406 2.801 1.086 31.888 0 0 2.938.537 2.801 1.086 31.888 0 0-1.83-2.407 2.801 1.086 31.888 0 0-2.21-.806zm15.66 4.428 2.533.054s-.333.752-.2 1.098c.207.531.81.885 1.354 1.017.393.096 1.038.177 1.194-.203.125-.305-.617-.49-.557-.814.07-.384.592-.78.953-.65 1.16.206 3.46.718 3.428 1.699-.123 3.814-4.815 5.339-7.727 5.283-2.933-.056-7.476-1.207-7.347-3.71.096-1.871 2.33-3.575 3.303-3.56.722.012.108 1.769 1.376 1.819.65.025 1.89-.03 1.832-.692-.046-.534-1.42.235-1.552-.285-.163-.643 1.41-1.056 1.41-1.056zm15.707 1.976A2.785 1.092 4.01 0 0 45 40.87a2.785 1.092 4.01 0 0 2.705 1.283 2.785 1.092 4.01 0 0 2.852-.896 2.785 1.092 4.01 0 0-2.705-1.283 2.785 1.092 4.01 0 0-.475-.018zm-18.734 2.078c-.267-.01-.447.048-.483.223-.197.968 2.406 1.577 3.637 1.668 2.937.217 5.219.164 5.176-.918-.032-.785-.65-.306-5.065-.29-.876.004-2.465-.65-3.265-.683zm-13.202.93a1.092 2.785 87.257 0 0-.279.008 1.092 2.785 87.257 0 0-2.732 1.222 1.092 2.785 87.257 0 0 2.832.96 1.092 2.785 87.257 0 0 2.732-1.223 1.092 2.785 87.257 0 0-2.553-.967zm28.366 4.973a2.802 1.086 32.06 0 0-.73.27 2.802 1.086 32.06 0 0 1.823 2.411 2.802 1.086 32.06 0 0 2.936.545 2.802 1.086 32.06 0 0-1.824-2.41 2.802 1.086 32.06 0 0-2.205-.816zm-22.41 1.115a1.083 2.807 51.967 0 0-2.329 1.06 1.083 2.807 51.967 0 0-1.572 2.59 1.083 2.807 51.967 0 0 2.865-.851 1.083 2.807 51.967 0 0 1.57-2.592 1.083 2.807 51.967 0 0-.535-.207zm15.11.957a2.838 1.072 69.658 0 0-.103.025 2.838 1.072 69.658 0 0-.006 3.047 2.838 1.072 69.658 0 0 1.99 2.27 2.838 1.072 69.658 0 0 .007-3.047 2.838 1.072 69.658 0 0-1.887-2.295zm-7.01.023a1.074 2.833 26.155 0 0-2.03 2.094 1.074 2.833 26.155 0 0-.303 3.031 1.074 2.833 26.155 0 0 2.211-2.047 1.074 2.833 26.155 0 0 .303-3.03 1.074 2.833 26.155 0 0-.182-.048z" style="fill:#efd211"/></svg>