<svg xmlns="http://www.w3.org/2000/svg" width="64" height="64"><path style="opacity:.2" d="M12.75 5C11.226 5 10 6.249 10 7.8v50.4c0 1.551 1.226 2.8 2.75 2.8h38.5c1.523 0 2.75-1.249 2.75-2.8V21l-13.75-2L38 5z"/><path style="fill:#e4e4e4" d="M12.75 4C11.226 4 10 5.249 10 6.8v50.4c0 1.551 1.226 2.8 2.75 2.8h38.5c1.523 0 2.75-1.249 2.75-2.8V20l-13.75-2L38 4z"/><path style="opacity:.2" d="M54 21 38 5v13.333A2.66 2.66 0 0 0 40.667 21z"/><path style="fill:#fafafa" d="M54 20 38 4v13.333A2.66 2.66 0 0 0 40.667 20z"/><path style="opacity:.2;fill:#fff" d="M12.75 4C11.226 4 10 5.25 10 6.8v1C10 6.25 11.226 5 12.75 5H38V4H12.75z"/><path style="fill:#3f3f3f" d="M32 25c-8.284 0-15 6.716-15 15 0 8.284 6.716 15 15 15 8.284 0 15-6.716 15-15 0-8.284-6.716-15-15-15zm0 1.5c7.456 0 13.5 6.044 13.5 13.5 0 6.291-4.31 11.563-10.134 13.06-.07-.017-.12-.017-.208-.04-2.143-.56-3.893-1.968-4.878-3.92-1.171-2.322-1.051-5.015.325-7.275.319-.522.448-.688 1.1-1.4.863-.945 1.305-1.564 1.678-2.35.981-2.067.935-4.589-.123-6.665-1.083-2.125-3.028-3.59-5.394-4.06-.098-.02-.281-.021-.413-.036A13.423 13.423 0 0 1 32 26.5zm2.804 4.5c.861 1.116 1.871 3.249 2.056 3.888.253.872.267 1.91.038 2.976-.214 1.004-1.015 3.183-1.72 4.679-.42.893-1.44 2.839-1.801 3.457h2.517c.36-.602.98-1.685 1.406-2.525.486-.96.92-1.915 1.219-2.678l.369-.94c.077-.198.162-.36.19-.36.078 0 .443.811.932 2.076.372.963 1.13 3.088 1.33 3.724l.22.703h2.335c-.06-.197-.094-.326-.214-.703-.764-2.393-1.75-5.002-2.573-6.809-1-2.2-1.803-3.8-2.484-4.954-.404-.684-1.106-2.083-1.353-2.534zm-15.331 3h2.35c.06.176.095.248.175.513.149.49.387 1.24.53 1.667.575 1.71 1.631 4.464 1.752 4.561.076.061.128.02.161-.129.016-.069.11-.335.208-.591.587-1.52 2.04-4.403 3.018-5.995l.018-.026h2.548c-.057.114-.064.148-.152.302a72.32 72.32 0 0 0-1.878 3.62c-.428.92-.85 1.96-1.178 2.913-.516 1.504-.644 2.11-.644 3.032 0 1.116.262 1.973.926 3.003.143.223.285.45.313.504.09.168.884 1.312 1.084 1.562.032.039.01.034.032.064h-2.505c-.07-.065-.142-.152-.732-1.06-1.088-1.675-2.017-3.479-3.185-6.168a66.743 66.743 0 0 1-2.677-7.212 14.516 14.516 0 0 1-.164-.56z"/></svg>