<svg xmlns="http://www.w3.org/2000/svg" width="64" height="64"><path style="opacity:.2" d="M12.75 5C11.226 5 10 6.249 10 7.8v50.4c0 1.55 1.226 2.8 2.75 2.8h38.5c1.522 0 2.75-1.25 2.75-2.8V23l-14-4-4-14z"/><path style="fill:#e4e4e4" d="M12.75 4C11.226 4 10 5.249 10 6.8v50.4c0 1.55 1.226 2.8 2.75 2.8h38.5c1.522 0 2.75-1.25 2.75-2.8V22l-14-4-4-14z"/><path style="opacity:.2" d="M54 23 36 5v15.188A2.806 2.806 0 0 0 38.813 23z"/><path style="fill:#fafafa" d="M54 22 36 4v15.188A2.806 2.806 0 0 0 38.813 22z"/><path style="opacity:.2;fill:#fff" d="M12.75 4C11.226 4 10 5.25 10 6.8v1C10 6.25 11.226 5 12.75 5H36V4H12.75z"/><path style="fill:#1e62b2;fill-rule:evenodd" d="M37.79 42.8s.756-.022 1.51.372c.263.136.716.41 1.043.77.32.351.476.707.476.707L46 54h-9.579c-1.604-3.14-2.967-6.732-5.011-9.528-.407-.34-.745-.49-1.147-.472H28l.002 9.995H20V26h14.815c1.606 0 8.948 1.4 9.185 8.4-.238 7-6.211 8.4-6.211 8.4zM28 30.998V39h5.684S35 38.6 35 34.827c0-3.227-1.316-3.825-1.316-3.825z"/></svg>