<svg xmlns="http://www.w3.org/2000/svg" width="16" height="16">
    <path style="fill:#e73144" d="M2.75 1a.746.746 0 0 0-.75.75v13.5c0 .417.333.75.75.75h10.5c.418 0 .75-.332.75-.75V6l-4.125-.875L9 1z"/>
    <path style="fill:#f0828d" d="M9 1v4.167c0 .458.375.833.833.833H14z"/>
    <path style="opacity:.1;fill:#f4f4f7" d="M2.75 1a.746.746 0 0 0-.75.75v.6c0-.417.333-.75.75-.75H9V1z"/>
    <circle style="opacity:.8;fill:#f4f4f7" cx="7" cy="9" r="3"/>
    <path style="opacity:.6;fill:#f4f4f7" d="M7 9h5v5H7z"/>
</svg>
