<svg height="16" width="16" xmlns="http://www.w3.org/2000/svg"><rect fill="#d7ccc8" height="16" rx="1" width="16"/><path d="m1 16c-.554 0-1-.446-1-1v-1c0 .554.446 1 1 1h14c.554 0 1-.446 1-1v1c0 .554-.446 1-1 1z" opacity=".2"/><g fill-rule="evenodd"><path d="m.8 16 7.2-7.2 7.2 7.2z" fill="#2196f3"/><path d="m16 15.2-7.2-7.2 7.2-7.2z" fill="#4caf50"/><path d="m8.707 7.293-1.414 1.414 7.293 7.293h.414c.554 0 1-.446 1-1v-.414z" fill="#feea3a"/><path d="m14.586 0-14.586 14.586v.414c0 .554.446 1 1 1h.414l14.586-14.586v-.414c0-.554-.446-1-1-1z" fill="#fff"/></g><path d="m12 0a4 4 0 0 0 -4 4c0 .138.011.266.025.4.01.134.029.269.05.4.458 2.812 2.325 4.803 3.925 6.403 1.6-1.6 3.467-3.591 3.925-6.403.021-.131.04-.266.05-.4.014-.134.025-.262.025-.4a4 4 0 0 0 -4-4z" fill="#f44336"/><path d="m12 2a2 2 0 1 1 0 4 2 2 0 0 1 0-4z" fill="#fff"/></svg>