<svg height="16" width="16" xmlns="http://www.w3.org/2000/svg"><path d="m2.813 0a.805.805 0 0 0 -.813.8v14.4c0 .443.362.8.813.8h11.374c.45 0 .813-.357.813-.8v-10.2l-4.063-1-.937-4z" fill="#794ec6"/><path d="m15 5-5-5v4.167c0 .461.372.833.833.833z" fill="#926fd2"/><path d="m8 6a1 1 0 1 0 0 2 1 1 0 0 0 0-2zm-2.4.2v.4h-1.6v.4h1.6v.4l.4-.3.4-.3-.4-.3zm4.4.4v.4h1.6v1h-.4l.3.4.3.4.3-.4.3-.4h-.4v-1.4zm2 2.4a1 1 0 1 0 0 2 1 1 0 0 0 0-2zm-.4 3v1.6h-1.2v-.4l-.4.3-.4.3.4.3.4.3v-.4h1.6v-2zm-3.6 1a1 1 0 1 0 0 2 1 1 0 0 0 0-2zm-3.6.2-.4.3-.4.3.4.3.4.3v-.4h1.6v-.4h-1.6z" fill="#f4f4f7"/></svg>