<svg height="24" width="24" xmlns="http://www.w3.org/2000/svg"><path d="m22 12.5a10 10 0 0 1 -10 10 10 10 0 0 1 -10-10 10 10 0 0 1 10-10 10 10 0 0 1 10 10z" opacity=".2"/><path d="m12 12v10a10.007 10 0 0 0 8.6-4.91 10.007 10 0 0 0 .055-.096z" fill="#3591ac"/><path d="m12 12v10a10.007 10 0 0 1 -8.6-4.91 10.007 10 0 0 1 -.055-.096z" fill="#2cba66"/><path d="m12 12v-10a10.007 10 0 0 1 8.6 4.91 10.007 10 0 0 1 .055.096z" fill="#ff482e"/><path d="m12 12v-10a10.007 10 0 0 0 -8.6 4.91 10.007 10 0 0 0 -.055.096z" fill="#ff8201"/><path d="m12 12-8.666 5a10.007 10 0 0 1 -.046-9.897 10.007 10 0 0 1 .056-.097z" fill="#ffc825"/><path d="m12 12 8.666-5a10.007 10 0 0 1 .045 9.897 10.007 10 0 0 1 -.055.097z" fill="#9e56d6"/><circle cx="12" cy="12.5" opacity=".2" r="8"/><circle cx="12" cy="12" fill="#f4f4f7" r="8"/><path d="m26.5 19.33-3.75 2.165-3.75 2.165v-8.66l3.75 2.165z" opacity=".1" transform="matrix(.86667 0 0 1.03923 -6.467 -7.588)"/><path d="m26.5 19.33-3.75 2.165-3.75 2.165v-8.66l3.75 2.165z" fill="#33c0e8" transform="matrix(.86667 0 0 1.03923 -6.467 -8.088)"/><path d="m12 2a10 10 0 0 0 -10 10 10 10 0 0 0 .01.291 10 10 0 0 1 9.99-9.791 10 10 0 0 1 9.99 9.709 10 10 0 0 0 .01-.209 10 10 0 0 0 -10-10z" fill="#f4f4f7" opacity=".2"/></svg>