<svg height="24" width="24" xmlns="http://www.w3.org/2000/svg"><g transform="translate(1 1)"><path d="m1 20v.5c0 .554.446 1 1 1h18c.554 0 1-.446 1-1v-.5c0 .554-.446 1-1 1h-18c-.554 0-1-.446-1-1z" opacity=".2"/><rect fill="#5052c1" height="20" rx="1" width="20" x="1" y="1"/><path d="m5 6.5v10h6v-2h-4v-2h4v-2h-4v-2h4v-2h-4z" opacity=".2"/><path d="m2 1c-.554 0-1 .446-1 1v.5c0-.554.446-1 1-1h18c.554 0 1 .446 1 1v-.5c0-.554-.446-1-1-1z" fill="#f4f4f7" opacity=".1"/><path d="m5 6v10h6v-2h-4v-2h4v-2h-4v-2h4v-2h-4z" fill="#aabbfd"/><path d="m17 16.5v-5s0-2-2-2c-3 0-3 1-3 1v6h1.461v-5l.045-1c1.494 0 1.494 1 1.494 1v5z" opacity=".2"/><path d="m17 16v-5s0-2-2-2c-3 0-3 1-3 1v6h1.461v-5l.045-1c1.494 0 1.494 1 1.494 1v5z" fill="#aabbfd"/></g></svg>