<svg height="24" width="24" xmlns="http://www.w3.org/2000/svg"><g transform="translate(1 1)"><path d="m1 20v.5c0 .554.446 1 1 1h18c.554 0 1-.446 1-1v-.5c0 .554-.446 1-1 1h-18c-.554 0-1-.446-1-1z" opacity=".2"/><rect fill="#a34100" height="20" rx="1" width="20" x="1" y="1"/><path d="m2 1c-.554 0-1 .446-1 1v.5c0-.554.446-1 1-1h18c.554 0 1 .446 1 1v-.5c0-.554-.446-1-1-1z" fill="#f4f4f7" opacity=".1"/><path d="m5 6.5v10h2v-3h4v-2h-4v-3h4v-2h-4z" opacity=".2"/><path d="m5 6v10h2v-3h4v-2h-4v-3h4v-2h-4z" fill="#ff7d25"/><path d="m14 6.5v3s4-.5 4 3-2 4-3 4-3 0-3-1v-9zm1 5h-1v3h1s1 0 1-1.5-1-1.5-1-1.5z" opacity=".2"/><path d="m14 6v3s4-.5 4 3-2 4-3 4-3 0-3-1v-9zm1 5h-1v3h1s1 0 1-1.5-1-1.5-1-1.5z" fill="#ff7d25"/></g></svg>