<svg width="24" height="24" xmlns="http://www.w3.org/2000/svg"><g transform="translate(1 1)"><rect x="1" y="1.004" width="20" height="20" rx="1" ry="1" style="fill:#21847c"/><path d="M2 1.004c-.554 0-1 .446-1 1v.5c0-.554.446-1 1-1h18c.554 0 1 .446 1 1v-.5c0-.554-.446-1-1-1z" style="fill:#f4f4f7;opacity:.1"/><path d="M1 20.004v.5c0 .554.446 1 1 1h18c.554 0 1-.446 1-1v-.5c0 .554-.446 1-1 1H2c-.554 0-1-.446-1-1zM5 6.5v10h6v-2H7v-8zm7 2.045v8h2v-5c1-1.44 3-1 3-1v-2s-2 0-3 1v-1z" style="opacity:.2"/><path d="M5 6v10h6v-2H7V6zm7 2.045v8h2v-5c1-1.44 3-1 3-1v-2s-2 0-3 1v-1z" style="fill:#d8fbfd"/></g></svg>