<svg height="24" width="24" xmlns="http://www.w3.org/2000/svg">
    <g transform="translate(1 1)">
        <rect fill="#c2352a" height="20" rx="1" width="20" x="1" y="1"/>
        <path d="M2 1c-.554 0-1 .446-1 1v.5c0-.554.446-1 1-1h18c.554 0 1 .446 1 1V2c0-.554-.446-1-1-1z" fill="#f4f4f7" opacity=".2"/>
        <path d="M2 21.5c-.554 0-1-.446-1-1V20c0 .554.446 1 1 1h18c.554 0 1-.446 1-1v.5c0 .554-.446 1-1 1zm11-17c-3 0-3 4-4 5-2 2-5 2-5 3s0 2 1 3 3.667 0 5 0c2 0 3.056 3 5 3 3 0 3-2 3-3s-2.466-2-2.86-3.906C14.794 9.907 16 7.5 16 6.5s-1-2-3-2zm-1.5 5A2.5 2.5 0 0 1 14 12a2.5 2.5 0 0 1-2.5 2.5A2.5 2.5 0 0 1 9 12a2.5 2.5 0 0 1 2.5-2.5z" opacity=".2"/>
        <path d="M13 4c-3 0-3 4-4 5-2 2-5 2-5 3s0 2 1 3 3.667 0 5 0c2 0 3.056 3 5 3 3 0 3-2 3-3s-2.466-2-2.86-3.906C14.794 9.407 16 7 16 6s-1-2-3-2zm-1.5 5a2.5 2.5 0 0 1 2.5 2.5 2.5 2.5 0 0 1-2.5 2.5A2.5 2.5 0 0 1 9 11.5 2.5 2.5 0 0 1 11.5 9z" fill="#f4f4f7"/>
    </g>
</svg>
