<svg height="24" width="24" xmlns="http://www.w3.org/2000/svg"><g transform="translate(1 1.041)"><rect fill="#97719d" height="20" rx="1" width="20" x="1" y=".959"/><path d="m2 .959c-.554 0-1 .446-1 1v.5c0-.554.446-1 1-1h18c.554 0 1 .446 1 1v-.5c0-.554-.446-1-1-1z" fill="#f4f4f7" opacity=".1"/><path d="m1 19.959v.5c0 .554.446 1 1 1h18c.554 0 1-.446 1-1v-.5c0 .554-.446 1-1 1h-18c-.554 0-1-.446-1-1zm6.553-13.5c-1.153 0-2.553.041-2.553.041v9.959h2v-2.99s.199-.003.553-.02c1.6.01 3.447-.49 3.447-3.49s-1.847-3.5-3.447-3.5zm-.553 2s.268-.016.652 0c.964.04 1.348.575 1.348 1.5 0 1.029-.492 1.49-1.496 1.504-.302.004-.3.014-.504-.008zm5 .041v8h2v-5c1-1.44 3-1 3-1v-2s-2 0-3 1v-1z" opacity=".2"/><path d="m7.553 5.959c-1.153 0-2.553.041-2.553.041v9.959h2v-2.99s.199-.003.553-.02c1.6.01 3.447-.49 3.447-3.49s-1.847-3.5-3.447-3.5zm-.553 2s.268-.016.652 0c.964.04 1.348.575 1.348 1.5 0 1.029-.492 1.49-1.496 1.504-.302.004-.3.014-.504-.008zm5 .041v8h2v-5c1-1.44 3-1 3-1v-2s-2 0-3 1v-1z" fill="#dccdde"/></g></svg>