<svg width="24" height="24" xmlns="http://www.w3.org/2000/svg"><g transform="translate(1 1)"><rect x="1" y="1.5" width="20" height="20" ry="4" style="opacity:.2"/><rect x="1" y="1" width="20" height="20" ry="4" style="fill:#f4881f"/><path d="M4 3.5v16h4v-12h3v12h7v-4h-3v-12z" style="opacity:.1"/><path d="M4 3v16h4V7h3v12h7v-4h-3V3z" style="fill:#17191e"/><path d="M5 1C2.784 1 1 2.784 1 5v.5c0-2.216 1.784-4 4-4h12c2.216 0 4 1.784 4 4V5c0-2.216-1.784-4-4-4z" style="fill:#f4f4f7;opacity:.2"/></g></svg>