<svg xmlns="http://www.w3.org/2000/svg" width="24" height="24" version="1">
    <path fill="#f4f4f7" d="M12 2C6.46 2 2 6.46 2 12s4.46 10 10 10 10-4.46 10-10S17.54 2 12 2z"/>
    <path fill="#f4f4f7" opacity=".2" d="M12 2a9.974 9.974 0 0 1 9.991 10c0 .084-.004.167-.006.25C21.853 6.827 17.451 2.5 12 2.5s-9.853 4.327-9.985 9.75c-.002-.083-.006-.166-.006-.25A9.974 9.974 0 0 1 12 2z"/>
    <path opacity=".2" d="M2.006 12.25c-.002.084-.006.166-.006.25 0 5.54 4.46 10 10 10s10-4.46 10-10c0-.084-.004-.167-.006-.25C21.862 17.673 17.456 22 12 22s-9.862-4.327-9.994-9.75z"/>
    <path fill="none" stroke="#313131" d="M7.5 8v6s0 2.5 3 2.5 3-2.5 3-2.5V9.5s0-1-1-1-1 1-1 1V14s0 2.5 3 2.5 3-2.5 3-2.5V8"/>
</svg>
