<svg xmlns="http://www.w3.org/2000/svg" width="24" height="24" version="1"><path style="opacity:.2" d="M12 2.5c-5.54 0-10 4.46-10 10s4.46 10 10 10 10-4.46 10-10-4.46-10-10-10z"/><path style="fill:#f4f4f7" d="M12 2C6.46 2 2 6.46 2 12s4.46 10 10 10 10-4.46 10-10S17.54 2 12 2z"/><path style="opacity:.2;fill:#f4f4f7" d="M12 2C6.46 2 2 6.46 2 12v.25A9.98 9.98 0 0 1 12 2.5a9.98 9.98 0 0 1 10 9.75V12c0-5.54-4.46-10-10-10z"/><path style="opacity:.1" d="m8.646 7-.678.392-.216.125-.75.432L7 7.951l.003.002V17L8.503 18 10 17v-5.915L12 12.549l1.999-1.464V17l1.499 1 1.5-1V7.953L17 7.951l-.003-.002-.749-.432-.216-.125L15.354 7l-.6.347L12 9.122 9.246 7.347z"/><path style="fill:#8b8b8b" d="m8.646 6.5-.678.392-.216.125-.75.432L7 7.451l.003.002V16.5l1.5 1.001 1.498-1v-5.915L12 12.049l1.999-1.464V16.5l1.499 1 1.5-1V7.453L17 7.451l-.003-.002-.749-.432-.216-.125-.678-.392-.6.347L12 8.622 9.246 6.847z"/><path style="opacity:.2" d="m8.646 6.5-.678.392-.216.125-.75.432L7 7.451l.003.002V16.5l1.5 1.001 1.498-1v-5.915L12 12.049V8.622L9.246 6.847z"/></svg>