<svg height="64" viewBox="0 0 16.933 16.933" width="64" xmlns="http://www.w3.org/2000/svg">
    <filter id="a" color-interpolation-filters="sRGB" height="1.054" width="1.054" x="-.027" y="-.027">
        <feGaussianBlur stdDeviation=".619"/>
    </filter>
    <linearGradient id="b" gradientUnits="userSpaceOnUse" x1="1.795" x2="16.347" y1="16.864" y2="2.312">
        <stop offset="0" stop-color="#32d7ff"/>
        <stop offset="1" stop-color="#329bff"/>
    </linearGradient>
    <g transform="translate(-.605 -1.125)">
        <rect fill="#141414" filter="url(#a)" height="55" opacity=".3" ry="15" transform="translate(.605 1.125) scale(.26458)" width="55" x="4.5" y="4.5"/>
        <rect fill="url(#b)" height="14.552" ry="3.969" width="14.552" x="1.795" y="2.315"/>
        <path d="M9.07 4.208a3.75 3.75 0 0 0-1.688.401 3.8 3.8 0 0 0-1.698 1.71 3.792 3.792 0 0 0-.237 2.73 3.78 3.78 0 0 0 1.995 2.344l.046-.08a3.682 3.682 0 0 1-.99-.692l.482-.481a2.994 2.994 0 0 0 2.046.847v.681a3.668 3.668 0 0 1-1.537-.355l-.046.08c.502.24 1.055.367 1.628.367a3.757 3.757 0 0 0 2.67-1.106c.303-.303.547-.648.73-1.023h-.001a3.759 3.759 0 0 0 .376-1.647 3.768 3.768 0 0 0-2.364-3.504 3.77 3.77 0 0 0-1.411-.272zm-.045.093v.68a2.983 2.983 0 0 0-2.044.85l-.483-.484a3.665 3.665 0 0 1 2.527-1.046zm.091 0a3.674 3.674 0 0 1 2.527 1.046l-.405.406c-.015.004-.03.008-.042.003-.027-.012.011-.04.011-.04v-.03l-.023-.023s-.064.008-.068-.004c-.004-.012-.015-.062-.015-.062l-.004-.066-.027-.011-.003-.023-.042.003v-.046l-.023-.008-.023-.011-.004-.047-.083-.003-.027-.04-.03-.046-.096-.007-.023-.024-.038-.007-.027-.012-.011.02-.072.004-.004.023c-.024.012-.084.011-.133.011a2.998 2.998 0 0 0-1.315-.326zm.638.162-.036.022-.024-.014-.012.02.03.018.006.004.007-.004.041-.027zm.174.093-.03.025-.019-.02-.016.016.026.027.008.008.007-.007.039-.03zm-3.672.019c-.379.148-.785.298-1.031.687-.144.227-.165.497-.278.732.21-.197.454-.343.632-.578.213-.282.399-.597.677-.841zm5.63 0c.28.244.465.559.678.841.178.235.422.38.632.578-.113-.235-.134-.505-.278-.732-.246-.389-.652-.54-1.031-.687zm-2.232.047c-.016.002-.032.009-.034.016-.004.016-.027.02-.027.02l-.088.007c-.008.024-.053.039-.057.024-.008-.034-.057.042-.008.057.05.016.1 0 .1 0l.011-.022.19.003c.016-.015.023-.038.023-.038s.046-.016.065-.008c.02.008.004-.054-.015-.046-.02.008-.057.003-.057.003h-.069c-.002-.013-.018-.017-.034-.016zm-.328.078-.05.02-.053.035-.057.007-.03.035.122.011.022.04.088.007.057.058c.05.015.061-.008.031-.035l-.05-.05v-.042l-.015-.016-.015-.054zm-.3.373v.616a2.28 2.28 0 0 0-1.545.64l-.437-.436a2.91 2.91 0 0 1 1.982-.82zm.09 0a2.906 2.906 0 0 1 1.235.297c-.004.011-.008.022-.016.022-.019 0-.011.05-.011.05s.05 0 .065.004.015.043.015.043c.057-.004.08.073.072.093-.008.019.023.019.023.019s0 .062-.008.077c-.007.016.05.027.065.05.015.024-.008.1-.019.105-.011.004.03.016.027.035-.004.02.011 0 .015.03l.011.097.053.004c.008-.05.106-.052.122-.046.065.023.115.123.115.146 0 .024-.042.028-.042.028l.001.025-.135.135c-.013-.007-.026-.014-.033-.01-.02.012-.012-.081-.012-.081s.034-.023.05-.011c.015.011-.13-.194-.16-.175-.03.02-.099-.018-.095-.053.004-.035-.138-.151-.138-.151s-.045-.031-.053-.008c-.007.023-.023.039 0 .05.023.012.019-.02.046.008.026.027.076.062.057.085-.02.023-.042.031-.042.031l.027.03h.042l.007.066s.046.024.057.051c.008.018.009.03.006.041a2.285 2.285 0 0 0-.268-.175c0-.007.005-.015.004-.02-.008-.028.03-.04.049-.008l.038-.004.008-.035-.054-.042H10.2s-.004.03-.03.019c-.028-.012-.013-.008-.036-.012-.02-.004-.015.04-.011.06a2.277 2.277 0 0 0-1.006-.253v-.344c.022 0 .036-.006.039-.016.003-.015.007-.019.03-.023s-.003-.05-.026-.046a.042.042 0 0 1-.043-.018zm-3.881.018c-.194.05-.356.174-.5.334-.303.336-.277.831-.237 1.273.013.137.006.253-.01.392.092-.187.242-.366.419-.5.394-.297.824-.681.83-1.187-.13.364-.527.514-.79.763-.14.132-.246.29-.309.454l-.01-.007c.033-.146.095-.278.137-.419.115-.385.095-.846.47-1.103zm7.674 0c.375.257.355.718.47 1.103.041.141.103.273.136.419l-.01.007a1.236 1.236 0 0 0-.309-.454c-.263-.249-.66-.4-.79-.763.006.506.436.89.83 1.187.177.134.327.313.419.5a1.857 1.857 0 0 1-.01-.392c.04-.442.067-.937-.236-1.273-.145-.16-.307-.285-.5-.334zm-2.068.076c-.03 0-.076.02-.071.044.003.019.019.038.05.046l.056.02s.072.084.069.042c-.008-.116-.061-.12-.08-.143-.005-.006-.014-.009-.024-.009zm-1.194.047-.015.034.02.01.016-.035zm.072.039c0-.01-.028.033-.045.032l.048.026c.03 0 .05.023.05.035 0 .011.042.008.042.008l.004-.027-.03-.039-.028-.02s-.041-.004-.041-.015zm-.045.032c-.013-.007-.022-.01-.005.003.001.001.004-.003.005-.003zm-.122-.009L9.55 5.3l.033.003.023.038.02-.012-.027-.043-.003-.004H9.59zm-.88.097c-.021.001-.04.005-.039.012.004.019.034.042.034.042s.058.004.061.016c.004.011.043.015.046.003.004-.011.02-.034-.015-.034-.034 0-.027-.02-.038-.031-.006-.006-.029-.008-.05-.008zm.966.039v.034l.042.004-.011-.03zm2.07 0a3.672 3.672 0 0 1 1.047 2.527h-.681a2.998 2.998 0 0 0-.212-1.066c-.019-.046-.042-.091-.062-.137.005-.022.015-.05.043-.041.039.011.012-.085.012-.085s-.054-.04-.05-.059c.004-.019-.053-.057-.05-.073.004-.015-.049-.046-.045-.061.004-.016-.027-.059-.027-.059l-.057-.054-.007-.035-.046-.003-.091-.112.003-.031-.026-.004v-.043l-.027-.015-.042-.004-.084-.093-.007-.042h-.042l.006-.066zm-5.274 0 .483.482a2.982 2.982 0 0 0-.848 2.044h-.681a3.665 3.665 0 0 1 1.046-2.526zm3.406.18c-.01 0-.022 0-.022.005 0 .012.015.012.022.035.008.023.004.062.039.07.034.007.041.015.045.03.004.016.046.02.046.02l.03.015.092.078v-.031s-.004-.031-.023-.031c-.02 0-.054-.024-.046-.04.008-.015-.065-.03-.065-.03s-.064-.062-.042-.054c.023.008.012-.027.012-.027s-.046.008-.057.004c-.011-.004-.008-.039-.008-.039l-.023-.004zm-2.109.028-.016.017.023.023.016-.016zm-3.297.16c-.01-.002-.015.006-.023.01-.261.333-.435.697-.435 1.145 0 .553.318.939.357 1.458.082-.542.537-.926.772-1.403.092-.186.15-.396.175-.6a.655.655 0 0 1-.16.236c-.306.29-.666.577-.736.988-.01.058-.015.118-.032.175-.013.006-.013-.01-.019-.013l.039-.51c.037-.496-.226-1.049.062-1.486zm9.275 0c.288.437.026.99.063 1.486l.038.51c-.006.003-.006.019-.02.013-.016-.057-.022-.117-.031-.176-.07-.41-.43-.697-.736-.987a.655.655 0 0 1-.16-.237c.025.205.083.415.175.6.235.477.69.862.772 1.404.04-.519.357-.905.357-1.458 0-.448-.174-.812-.435-1.146-.008-.004-.013-.011-.023-.01zm-4.683 0v.68a1.514 1.514 0 0 0-1 .416l-.481-.483a2.205 2.205 0 0 1 1.48-.613zm.09 0a2.2 2.2 0 0 1 .992.259l.003.001c.11.06.217.129.317.207.004.026.033.038.033.038l.014.002.04.034v.03c.027-.007.067.027.072.054l-.47.47a1.523 1.523 0 0 0-1-.414zm-2.136.178.437.436a2.307 2.307 0 0 0-.64 1.545H6.16a2.898 2.898 0 0 1 .82-1.981zm3.888.293c.054.031.095.101.088.115-.007.015.046.012.046.012.007-.07.072-.047.076-.023l.015.073.02.035.026.027.042-.004.011.023.05.008s.042.046.045.058c.004.011.061.008.076.012.016.004.038.015.042.034.004.02.027.05.027.05s.046.012.05.028c.004.015.022.05.022.05l.039.03.003.036.042.004.012.046.068-.004.039-.027.028-.02c.014.032.03.063.043.095.129.324.2.671.205 1.03h-.617a2.303 2.303 0 0 0-.03-.32c.005-.017.007-.033.001-.04-.011-.01.011-.065.011-.065s.016-.03 0-.062c-.015-.03.004-.065.016-.08l-.03-.016-.031-.004-.024.004-.023-.072v-.002l.02.004v-.023l-.03-.008-.014-.044-.006-.083-.026-.02.008-.03-.03-.012.014-.05-.026-.055h-.04c-.018-.036-.039-.07-.059-.106a.044.044 0 0 1 .019-.01c.042-.011.03-.003.03-.003l-.004-.043-.034-.023-.011-.046s-.042.008-.038.03c0 .006-.003.01-.008.013-.026-.041-.055-.081-.083-.121 0-.004.001-.008.003-.011.015-.027.008-.043-.019-.05-.027-.008-.027-.008-.035-.039a.056.056 0 0 0-.037-.039l-.012-.046-.03.019-.045-.05.014-.047a.034.034 0 0 1-.026-.02zm-2.444.09-.015.019.023.019.014-.018zm-.088.017.004.043h.057c.023 0-.019-.027-.019-.027s-.046.004-.042-.016zm2.533.007-.023.003.004.035.023-.003zm-3.388.093.481.482c-.1.105-.179.227-.245.358-.02-.001-.038.001-.043.015-.012.031-.061.023-.061.023l-.008.016-.038.008-.007.023-.046.008.114-.004c.03-.004-.012.065-.03.062l-.054.003-.02.02h-.049l-.022.03L7.38 7.5s-.041.035-.037.046c.003.012-.008.047-.02.047-.011 0-.034.034-.026.046.007.011-.023.05-.023.05l-.008.039-.023.007v.105l-.045.03v.047l-.02.023h-.31a2.194 2.194 0 0 1 .612-1.481zm3.172.009c.01.011.018.021.037.034.004.004.008.001.013.003l.043.05-.007.01c0 .042.02.032.04.028l.02.023c.002.025.004.06.042.056.058.08.111.162.158.247a.14.14 0 0 1-.012.012l-.061.008V7l-.03.011.003.04.042-.004s0 .046.012.026c.011-.019.106.004.098.05-.003.02.096.07.085.132.008.002.012.005.017.008.018.053.035.107.05.161l-.007.013.013.014c.012.048.023.095.031.143-.003.042-.012.082-.033.094-.045.027.004.012.004.012l-.007.085c.011.038.03.019.042 0 .005-.01.012-.015.018-.021.006.058.01.116.012.175h-.463c.002-.004.01-.011.01-.011l.019-.054.065-.02.007-.05-.034-.003s.038-.07.057-.07.145 0 .156-.008a.216.216 0 0 0 .034-.081c0-.012.031-.016.043-.02a.145.145 0 0 0 .045-.05c.008-.015-.019-.112-.034-.097a.124.124 0 0 1-.05.024l-.011.042-.02.016s.005.011 0 .038c-.003.027-.037.043-.037.043l-.015.02s-.092.004-.103 0c-.034-.016-.012-.063.011-.059.023.004-.003-.066-.003-.066l.03-.003s.004-.07.015-.07-.004-.023-.02-.035c-.014-.011-.033-.05-.049-.046-.015.004-.076 0-.076 0l-.011.023-.042.008s.004.03-.003.039c-.023.027-.111.084-.073-.012l.011-.024V7.38l-.068-.004s-.034-.012-.034-.027c0-.016-.004-.035-.004-.035l-.08-.089-.096-.011-.007-.02-.057-.007c-.008-.005-.016-.005-.023-.007a1.521 1.521 0 0 0-.089-.127l-.002-.01c-.004-.013-.044-.068-.067-.071-.01-.01-.018-.022-.027-.032zm.376.046c-.005 0-.008.004-.008.012 0 .015.019.023.011.043-.007.019.008.034.023.034.016 0 .027.008.042.016.016.007.027.019.039.034l.037-.011s.004-.039-.011-.027c-.015.011-.027-.028-.042-.024-.015.004-.023-.015-.038-.034-.016-.02-.012-.023-.03-.035-.01-.006-.018-.009-.023-.008zm-2.003.039v.618a.807.807 0 0 0-.224.047h-.009l-.004-.043.02-.012-.03-.011-.024.031-.007.035-.039.007v.02h-.026v.025a.817.817 0 0 0-.156.107L8.09 6.94a1.43 1.43 0 0 1 .936-.387zm.09 0a1.427 1.427 0 0 1 .936.388l-.026.026c-.01-.013-.052-.021-.052-.035 0-.016-.039-.035-.035-.012.004.023-.026.035-.034.027-.007-.008-.03.023-.03.023 0 .012-.008.027.015.031s.065-.015.068.008l.006.02-.15.15h-.042c-.012.035-.065-.004-.05-.027s.016-.039.016-.039l-.02-.003-.022.042c-.053 0-.069.03-.058.05.012.02-.015-.004-.022.023-.008.027.004.028.027.04.022.01-.012.01.003.03.01.013.032.01.039.013l-.02.02c-.028.013-.065.01-.065.01 0 .008-.006.014-.013.018a.811.811 0 0 0-.198-.122c.012-.008.03-.01.04-.035a.61.61 0 0 0 .023-.113s-.06-.003-.065.016c-.003.02-.042.03-.042.03s-.03.012-.019.028c.012.015-.022.023-.022.023l-.003.022a.813.813 0 0 0-.184-.034zm2.027.131-.046.004c.012.015.034.027.034.042 0 .016-.007.027.016.031s.038-.004.045.016c.008.02.008.05.004.065-.003.016.004.04.023.04.02 0 .023.003.023.015 0 .011.023-.043.023-.043-.02-.015-.034-.05-.034-.05s-.02-.054-.02-.062-.026-.016-.038-.02c-.011-.003-.03-.038-.03-.038zm-.363.015-.038.004.002.023.038-.003zm.024.028v.02h.023v-.02zm-.03.038s-.023.031-.069.016c0 0-.008.073-.03.089h-.054s.012.02.023.03c.012.012.038.036.011.051-.026.015.004.011.004.011s-.003.082-.038.07c-.034-.011-.046.043-.046.058 0 .015.136.021.115 0-.012-.012.015-.039.015-.039s.092.008.11.008c.02 0 .035-.004.023-.023-.011-.02-.046-.015-.046-.015s-.045.011-.087-.012c-.042-.023.007-.031.015-.031s.042-.027.027-.047c-.015-.019 0-.053 0-.038 0 .016.042.023.05.011.007-.011 0-.046-.02-.057-.019-.012.035-.02.02-.04a.168.168 0 0 1-.024-.042zm.076.116v.028h.022V6.88zm.05.014-.01.023.02.01.012-.022zm.376.033c-.019-.012.004.042-.008.05-.011.008-.019.023-.03.035-.012.012.023.027.023.039 0 .011.007.069.007.069s.027.012.03.027c.005.016 0 .047.012.05.011.004.035.02.027.035-.008.016-.008.047-.008.047l.016.034.03.02s.011-.093-.008-.097c-.019-.004-.011-.058-.011-.058s.02-.074-.011-.074c-.03 0-.008-.038-.027-.05-.02-.011-.008-.065-.015-.08-.008-.016-.008-.036-.027-.047zm-.93.073-.038.004.002.022.039-.003zM9.77 7c-.012 0-.024.003-.024.003l-.06.008-.005.027.042.004s.02.015.02.027c0 .011.026.023.041.023.015 0 .057-.03.057-.03s.02-.055.004-.051c-.015.004-.046.027-.05.004C9.794 7.004 9.782 7 9.77 7zm-1.743.002.373.374-.036-.002c-.015.035-.054-.004-.054-.004-.007-.023-.06 0-.06 0 0 .043-.072-.019-.072-.019l-.134-.097c-.076-.07-.19.02-.194.04.002.026-.02.029-.042.025.06-.113.13-.221.22-.317zm1.498.01-.022.005.008.035.022-.005zm.125.007-.083.003.001.024.083-.005zm-.715.007v.023h.03v-.023zm.197.004-.004.023.027.004.003-.023zm.049.012-.004.023.027.004.003-.023zm-.309.008-.003.022.026.004.003-.023zm.627 0-.011.004.007.022.011-.004zm.922.01-.011.027.02.01.013-.028zm-.282.005.043.013c.017.02.034.042.05.064l-.048-.007-.03-.004-.058-.004c-.057.038-.068.085-.068.085-.027.052-.085-.008-.077-.043l.1-.1.015.003a.703.703 0 0 0 .073-.007zm-.907.007v.024h.03v-.024zm-.385.005-.006.023.03.008.006-.023zm-.011.032-.023.004.004.023.023-.004zm.452 0-.023.001.001.027h.024zm1.2.01a.222.222 0 0 0-.04.004c-.02.004-.016.019 0 .038l.045-.007s.034-.016.027-.027c-.004-.006-.018-.008-.033-.008zm-.256.024c.015.02.03.04.043.062a.057.057 0 0 0-.004.034c.012.058.031.081-.007.081s-.046-.031-.046-.031-.03-.011-.03.004c0 .016-.012.046 0 .062.011.015-.015.039-.027.027-.01-.012-.042-.046-.034-.058.007-.011-.053-.085.008-.096.06-.012-.004-.047.019-.055l.03-.015h.03zm-6.355.014c-.06.129-.086.274-.118.414-.068.361 0 .745.098 1.078.123.416.53.713.737 1.094l.028.022c-.03-.206-.045-.429.013-.626.09-.316.201-.623.26-.95.046-.255.098-.54.068-.787-.034.133-.069.264-.142.377-.277.43-.562.932-.368 1.477-.004.006-.01.013-.018.01-.078-.18-.095-.385-.146-.578-.134-.512-.527-.94-.412-1.53zm10.391 0c.115.592-.278 1.02-.412 1.53-.051.194-.068.398-.146.578-.007.004-.014-.003-.018-.01.194-.544-.09-1.047-.368-1.476a1.256 1.256 0 0 1-.142-.377c-.03.246.022.532.068.786.059.328.17.635.26.95.058.198.043.42.013.627l.028-.022c.207-.38.614-.678.737-1.094.098-.333.166-.717.098-1.078-.032-.14-.057-.285-.118-.414zm-5.203.1.007.093-.042-.014h-.027l-.011-.024-.023-.004v.085l.023.02.019.02.038.003.008.046.095.004.011.02.058.003.11.112-.007.035-.02.012c.008.027-.05.011-.05.011v.023l.027.005.027.015.038-.066c.042-.027.061.012.065.035.004.023-.02.02-.02.02v.053l.024.008c.038.047-.015.074-.015.074l-.012.038c-.011.035-.053.027-.053.027l-.016.023-.045.012.09.012c.009-.031.032-.039.043-.024.012.016.012.043.012.043l.022.004-.003.042.023.008v.124l.026.03c.046-.019.046.013.023.028-.023.015-.008.085-.008.085l-.019.019v.03l-.022.016v.043c-.039-.02-.085-.012-.096 0-.034-.023-.107-.015-.107.004.023.03-.026.039-.026.039l-.027.03c.02.04-.019.043-.019.043v.073l-.045.043.002.064c-.024.003-.047.008-.071.008a.72.72 0 0 1-.48-.185c.003-.001.006 0 .008-.003.019-.03.05-.035.05-.035l.01-.027.103.004c.008-.042.058-.027.058-.008 0 .02.038.004.038.004l.026-.042h.042l.004-.047.019-.011v-.07c.06-.02.053-.077.053-.077l.016-.02-.008-.026c-.03-.012-.015-.04.004-.031.02.007-.027-.035-.027-.035-.023.02-.042-.023-.042-.023h-.057v-.055l-.007-.05-.058-.027-.041.039-.008.054v.034l-.038.008-.008.105-.03.012.003.038-.083.023-.008.05-.03.02-.015.046-.02.108a.722.722 0 0 1-.129-.19.367.367 0 0 0 .007-.05c-.034-.015-.014-.07.024-.023.038.047-.024-.092-.024-.092l-.03-.027-.037-.004a.734.734 0 0 1-.011-.114c0-.017.003-.033.005-.05.01-.006.02-.003.02-.003l.023.02.035.027L8.43 8l-.023.011-.003.031.011.043h.03c.012-.062.092-.062.115-.023l.023-.054c-.054-.027-.001-.07.014-.05.015.019.05-.05.05-.05s.027.034 0-.012c-.026-.047.02-.07.02-.07-.008-.046.049-.038.049-.038l.004-.062-.054-.004c-.011.054-.057.007-.034-.004.023-.012.046-.035.046-.035v-.038l.023-.008.004-.039h.056l.05-.023.011-.02.054-.004.076-.069-.008-.03c-.045 0 0-.035 0-.035l.008-.058h-.042l-.007-.08a.724.724 0 0 1 .16-.022zm2.319.224-.004.031.023.003.004-.03zm-.014.105-.011.023.02.01.011-.023zm-3.94.153c.03.002.05.018.05.018l.054-.004c.015.01.02.023.026.035-.004.031-.005.063-.007.094-.005.008-.012.026-.012.026-.004.006-.003.019-.005.03h-.148v-.004l-.041-.003c-.046-.027-.023-.128-.023-.128.036-.054.075-.066.105-.064zm1.31.072-.007.02h-.019l-.004.03h.023l.004.023-.015.016-.008.019-.03.008-.069.065-.004.031-.019.027-.022.059-.08.003-.016.07.011.058.07.027.007-.039.023-.011.004-.04.015-.026.022-.027.008-.03.038-.024.046-.008.019-.023.008-.047.002-.034.017-.024.045-.019v-.073h-.022l-.004-.027zm2.39.023-.003.023.041.008.005-.023zm-.095.034-.011.006-.029.016-.024-.015-.012.02.03.018.006.004.006-.003.023-.013.003.007.021-.009-.008-.019zm-5.647.16h.681c.005.286.048.564.13.83l.087-.022a2.92 2.92 0 0 1-.126-.808h.616c.002.092.013.181.025.27-.044.005-.086.02-.086.02l-.02.06c-.041.009-.068.078-.068.078-.034.012-.061.054-.05.066.012.012-.019.015-.019.015v.086l-.018.027.003.092c.023 0 .02.043.02.043-.039.004-.031.054-.031.054l-.08.027-.015.023-.1-.004-.024.025c-.008-.025-.019-.048-.027-.073l-.088.022.01.026h-.114l-.008-.019-.038-.008-.004-.042-.057.004-.011.023-.061.004c.004.038-.061.096-.069.08-.008-.015-.05-.057-.03-.065a.465.465 0 0 1 .068-.015V8.82l-.14-.005-.016.024-.057.004v.061l-.026.008c-.02.012.003.054.003.054.027.027-.003.07-.003.07-.023.023.019.066.019.066.03.007-.02.03-.02.03.008.04.031.05.031.05-.023.04.015.059.015.059l.004.065.027.016v.042l.015.028h.061l-.004-.097c-.053-.062.046-.077.05-.054.003.023.045.034.045.034.008.058.073.093.092.036.019-.058.034-.024.046.003.01.027.083.093.083.093h.057l.008.054c.065-.004.084.004.11.093a.168.168 0 0 0 .1.112l.053-.004c0-.046.053.008.053.031s.103.112.103.112l.103.023.03.025c.06.076.122.15.19.221l-.48.482a3.664 3.664 0 0 1-1.048-2.528zm1.48 0h.267l.003.023-.058.061.008.062-.035.012-.007.027-.015.081.038.004c.019-.008.015.05 0 .058-.015.007-.057.023-.034.038.023.016-.061.012-.061-.011s-.046-.043-.058-.035c-.006.004-.014-.006-.02-.016-.016-.1-.026-.201-.028-.303zm.4 0h.008a.106.106 0 0 1 .021.007l.053.004.006-.01h.181l.016.099-.05.042c-.042.023-.042.077.004.089.03.004.019.078-.027.027-.068 0 .038.062.008.046.069.035.053-.03.053-.03l.035-.029a1.516 1.516 0 0 0 .386.755l-.48.482c-.033-.034-.06-.07-.09-.104a.23.23 0 0 1 .02-.045c.049-.031-.012-.081-.012-.081.008-.047-.026-.101-.026-.101-.069-.047-.05-.135-.05-.135v-.062c-.057-.054.023-.062.023-.062.026-.046-.02-.081-.02-.081l-.003-.05-.06-.008-.009-.182-.137-.197c-.026-.008-.007-.054-.007-.054.034-.02-.008-.066-.008-.066L7.098 8.2l.08-.008.019-.031h.038l-.003-.101c.008-.023.022-.029.035-.03zm3.476 0h.532a2.19 2.19 0 0 1-.611 1.477c-.007-.078-.024-.163-.024-.163l-.03-.016.007-.093h-.042l-.069.089-.007.024-.04-.038.021-.02-.004-.047.027-.023V9.18l.023-.007.003-.086.02-.003v-.186l-.058-.054c-.003.02-.064.02-.064.02s-.016.026-.027.026.015.035.008.058c-.008.023-.039.024-.039.024l-.057.015-.015.02h-.06l-.007-.036.018-.02.05-.015.037-.019.019-.038c.004-.039.05-.035.05-.035s.087-.073.091-.108c.004-.035.035-.132.088-.132h.099c.038-.015.026-.065.026-.065l.05-.008.007.027s.07.008.077-.004c.007-.012.023-.038.042-.027.019.012.08-.027.08-.027.004-.027.098-.016.098-.016l.012-.034s-.065-.09-.076-.09c-.012 0-.073-.053-.08-.034-.061-.015-.057-.1-.057-.1l-.023-.054c0-.031-.057-.097-.069-.09-.024-.017-.028-.036-.026-.052zm.623 0h.616a2.893 2.893 0 0 1-.82 1.98l-.018-.016-.005-.098-.02-.019-.003-.097c.015-.05-.072-.124-.08-.108-.008.015-.057.004-.057.02 0 .015-.03.092-.015.119v.002l-.238-.237a2.291 2.291 0 0 0 .64-1.546zm.708 0h.68a3.66 3.66 0 0 1-1.048 2.526l-.48-.48a2.99 2.99 0 0 0 .847-2.045zm-3.861.001h.043c.001.027.007.053.011.08l-.026.007-.008-.015-.011.042h-.069l-.004-.046.042-.012.016-.023zm1.128.053c-.006-.001-.013.003-.018.019v.05s.053.085.072.097c.019.011.05-.014.03-.027-.057-.039-.053-.09-.068-.124-.004-.008-.01-.014-.016-.015zm-1.991.034.004.027h.019c.03.054.003.186.003.186s-.045.003-.053-.02c-.007-.023-.026.05-.011.062.015.012.068 0 .072.043.004.042.034-.027.034-.027v-.263zm1.831.077-.068.051c.034.004.038.038.042.054.008.033.008-.054.023-.05.015.003.003-.055.003-.055zm-1.521.033a.155.155 0 0 1 .067.072c0 .011.152.003.152.003.042.027.057.097.057.097.042-.054.13-.004.065.027.061.04.06.074.06.074.05-.016.05.023.05.034 0 .012.016-.057.016-.057-.057-.043.075-.059.037.019l-.022.035.038.03.004.09c.083-.008.06-.113.06-.113l.039-.007c0-.035.026-.016.026-.016-.022-.107.025-.135.046-.144.03.056.064.11.108.157l-.437.437a1.429 1.429 0 0 1-.366-.738zm3.456.09c-.032-.007-.081.02-.069.036.023.03.062.015.077.02.015.003.03.01.015-.035a.03.03 0 0 0-.023-.02zm-3.633.054a.016.016 0 0 0-.013.016.016.016 0 0 0 .016.016.016.016 0 0 0 .017-.016.016.016 0 0 0-.017-.016.016.016 0 0 0-.003 0zm-.038.051-.057.039-.039-.023v.093l.061.08.023-.053.008-.035-.027-.011.004-.059.023-.003zm1.409.097-.034.004.003.054.023.02.042.01s.057-.014.06-.06l-.086-.005zm.472.03c.042-.013.032.077.03.102-.021.01-.045.015-.068.022v-.08zm-.799.044c.133.12.298.19.476.204l-.001.003s-.014.034.003.04c.017.006.012.009.02.017l-.008.02c-.015-.019-.023.015-.015.024.009.009-.02.003-.02.014 0 .012-.008.018 0 .024.009.005-.003.008-.014.017-.012.009.049.011.049.011s-.012-.023.003-.023l.006.001v.037c-.006-.001-.01 0-.016-.003v.027l-.03.004.026.03.02.003v.068c0 .05-.127.015-.138.003l-.004.07-.023.004.004.046-.004.066.042-.008v.027l.103.004.02-.021v.07l-.001.005-.068.008-.03.016-.012-.024h-.03l-.017.024a1.433 1.433 0 0 1-.266-.061 1.427 1.427 0 0 1-.512-.31zm-3.63.038c.051.336-.082.634-.113.954-.026.263.02.519.123.74.03.065.085.125.1.192-.099-.09-.169-.203-.237-.313-.318-.515-.985-.85-1.03-1.477-.023.279 0 .574.093.822.13.344.378.608.664.834.296.233.65.415.919.62-.053-.134-.14-.258-.174-.4-.159-.64-.07-1.38-.345-1.972zm8.349 0c-.275.592-.186 1.332-.345 1.973-.035.141-.121.265-.174.399.27-.205.622-.387.918-.62.286-.226.535-.49.664-.834.093-.248.117-.544.094-.822-.045.627-.712.962-1.03 1.477-.069.11-.139.224-.237.313.015-.067.07-.127.1-.192.102-.221.148-.477.123-.74-.031-.32-.165-.618-.113-.955zm-3.33.014c.014-.003.029 0 .023.017-.012.035 0 .05 0 .05.05-.046.092.004.088.016-.004.011.026.023.045.012.02-.012.042.034.035.057-.008.024-.076.02-.08-.004-.004-.023-.015-.015-.023-.003-.007.01-.035.016-.055.008l-.013-.013c.001-.004.006-.008 0-.015-.005-.005-.013-.004-.02-.005l-.03-.03c-.003-.025.002-.058 0-.069-.002-.008.014-.018.03-.021zm-2.467.013-.027.004-.004.031.03.004zm4.774.036c-.017-.007-.045.005-.06.015l.013.019c.014-.01.034-.015.038-.013h-.001l.022-.004a.021.021 0 0 0-.012-.017zm-4.764.037a.016.016 0 0 0-.016.016c0 .01.007.016.016.016s.016-.007.016-.016a.017.017 0 0 0-.016-.016zm1.9.017c0 .01.005.023.005.023l.019.007-.034.027-.03.035-.039-.012-.045-.004-.015-.027-.027-.004-.004.054-.02.024-.045.046c.049 0 .016.024-.007.034V8.8a.82.82 0 0 0 .143-.021.285.285 0 0 0 .009.007h.034l.002-.022.054-.016zm-1.873.064a.016.016 0 0 0-.017.016.016.016 0 0 0 .017.017.016.016 0 0 0 .016-.017.016.016 0 0 0-.016-.016zm1.431.015c-.016.012-.029.058-.035.071 0 0 .009.032.026.03.017-.004.029-.012.043-.015.014-.003.02-.027.026-.05.005-.023-.006-.035-.006-.035s-.015.024-.037 0c-.006-.005-.012-.005-.017-.001zm-1.503.028-.032.004v.027l.032-.003zm2.293 0h.026l.004.02.117.01.005.001c.045.027.023.062.007.07-.015.008-.041.007-.041.007l-.008.016-.099.008-.008.038c-.05-.008-.068.047-.056.074.011.027 0 .05 0 .05l.041.02.054-.016c.007-.039.041-.047.072-.07.03-.023.08.043.065.074l-.004.008a1.427 1.427 0 0 1-.504.218l-.003-.002-.042-.012-.003-.057c-.008-.04-.08-.04-.076-.012.003.027-.136.012-.137.012v-.107l.037-.04.088-.02c.008-.039.046.008.046.008.038-.004.046.023.046.023l.049.008c.042.012.016.016.019.03.004.024.023.016.023.016l.007-.05.023.004-.023-.027-.041-.02-.046-.019c-.03-.042.007-.035.038-.03h.05s.057.077.057.096c0 .02.026.023.026.023l.035-.004.011.027h.034l.012.023h.068l.004-.034-.065-.012-.003-.039-.046-.011c-.016-.066.011-.085.03-.054l.023.003-.008-.057.027-.008-.008-.081-.022-.008v-.027l.095.004c-.008-.05.004-.074.004-.074zm2.756.177-.02.01c.002.005.003.01.003.016 0 .007.001.015.008.02.004.003.009.003.015.002l-.004-.022c.002 0 .004.002.004.003v-.005a.063.063 0 0 0-.006-.024zm-.023.043-.021.006a.526.526 0 0 0 .014.047l.021-.008-.014-.045zm-4.414.019c.154.146.335.256.53.326.054.02.11.032.166.045-.012.01-.02.018-.017.024.007.02-.03.04-.03.04l-.035.01-.023.035-.045.016-.008.08-.023.016v.035l-.026.008v.02l-.039.003.023.058.031.016c.053.007.03.073.03.073l.03.004.016.042.03.062c.012.047.046.035.062.031.015-.004.03.047.03.047l.152.003s-.008.016.02.023a.82.82 0 0 0 .126.01v.068a2.198 2.198 0 0 1-.808-.17 2.197 2.197 0 0 1-.615-.393l-.057-.052zm2.627.003v.073h.027v-.073zm-.823.02-.03.018.012.02.03-.02zm2.483.052c-.002.019.002.041.02.045l.005-.023c-.002-.001-.003-.01-.002-.02zm-3.052.042v.046zm3.039.001c-.007 0-.016.008-.024.013-.023.015-.015.073 0 .058.014-.014.03 0 .034-.043.001-.022-.003-.028-.01-.028zm-2.368.03.09.046c.012.016.061.012.061.012l.016.02s.03-.005.05.018c.019.024.117.005.117.005l.027.023.042.015.07.002.044.044a.412.412 0 0 1-.217.012.671.671 0 0 0-.091-.046s-.061-.05-.073-.035-.064-.02-.064-.008-.05-.027-.05-.027l-.076-.027.057-.012-.01-.038.007-.004zm-.549.011-.027.02.012.011.011.02.027-.043zm-3.588.217v.038h.03v.05h.024l-.004-.057-.03-.012v-.02zm5.564.02-.003.034.037.003.003-.032zm-.031.081-.007.022.007.004.005.02a.067.067 0 0 1-.006.007l.017.015c.013-.013.017-.026.014-.04-.005-.019-.028-.027-.03-.028zm-.666.069.167.167c-.008.028-.033.045-.048.034-.016-.012.019.02.026.035.008.015.03.015.038 0 .005-.01.007-.028.008-.045l.076.076c-.01.02-.02.04-.015.054l.035.015.003.066c.027.027.081.024.128.016l.017.017a2.91 2.91 0 0 1-.461.362v-.036c.068-.05.072-.139.007-.146-.049-.006-.026-.058.02-.066l.026-.012v-.034l.087-.082V10l-.19-.158c-.04-.015-.04-.064-.025-.111.034-.03.068-.059.1-.09zm-4.676.007.027.07.015.035.03.043.042.038.016-.027-.027-.058-.027-.02-.02-.053zm-.745.057c.232.463.132 1.059.432 1.495.094.136.225.266.346.376l-.006.006a1.464 1.464 0 0 1-.308-.21c-.525-.437-1.315-.493-1.63-1.205.086.523.5.986.948 1.279.426.279.972.248 1.445.404-.437-.353-.504-.882-.698-1.346-.122-.288-.318-.547-.529-.799zm7.66 0c-.21.252-.407.511-.528.8-.195.463-.261.992-.698 1.345.472-.156 1.018-.125 1.444-.404.448-.293.862-.756.948-1.279-.315.712-1.105.768-1.63 1.204-.1.083-.198.16-.308.21l-.006-.005c.121-.11.253-.24.346-.376.3-.436.2-1.032.432-1.495zm-5.227.1a2.289 2.289 0 0 0 1.352.476v.616a2.911 2.911 0 0 1-1.981-.821l.088-.089a.091.091 0 0 1 .01.032c.008.059.035.047.035.047l.217-.004.076-.066.195-.003c.099-.004.038-.14.019-.14-.012-.008-.013-.027-.011-.048zm-.756.068c.034-.007.087.037.092.054.003.008.016.018.028.027l-.058.058c-.035-.035-.064-.075-.097-.112h.01c.004-.016.013-.024.025-.027zm2.24.213a.14.14 0 0 1 .088.019c.042.03.099.012.099.012l.041.05a2.193 2.193 0 0 1-.27.023v-.087c.009-.009.022-.015.042-.017zm2.004.055.48.48a3.699 3.699 0 0 1-2.525 1.048v-.68c.275-.005.543-.05.8-.126l.075.023.02.062.03-.004.022-.02.092-.004.046-.042.05-.008.358-.305c.197-.118.383-.26.552-.424zm-1.731.11.009.02.065.02.045.01.016.067.034.003.011.043c.042.03-.011.096-.011.096v.086l.03.015-.003.031.05.05.056.004.093.1a2.891 2.891 0 0 1-.71.101v-.616c.107-.002.211-.014.315-.03zm-.92.065-.023.02-.011.009.012.009.027.019.013-.019-.014-.01.01-.01zm.272.277-.01.02.023.013-.008.008.016.016.02-.02.01-.01-.014-.008zm-1.929.196.03.046.004.035.038.011.016.024.026-.016-.019-.05-.049-.042zm-.857.043c.285.384.367.943.889 1.14.092.035.198.04.278.09-.1.016-.188-.015-.282-.035-.673-.143-1.495.041-1.999-.532.191.375.586.67.964.796.586.193 1.198-.023 1.749-.16.08-.02.176-.013.25-.04-.308-.062-.604-.155-.841-.372-.341-.312-.643-.645-1.008-.887zm6.148 0c-.365.242-.667.575-1.008.887-.237.217-.533.31-.84.372.074.027.17.02.25.04.55.137 1.162.353 1.748.16.379-.125.773-.421.964-.796-.504.573-1.326.389-1.999.532-.094.02-.182.051-.282.036.08-.05.186-.056.279-.091.521-.197.603-.756.888-1.14zm-3.628 1.244c-.517 0-.978.25-1.43.438-.41.17-.954.137-1.317-.114.18.226.42.364.668.459.461.184 1 .042 1.392-.209.283-.18.525-.436.862-.436.06 0 .12.01.181.022-.473.19-.904.52-1.24.84.062.07.142.137.218.198.374-.387.797-.803 1.22-.976.423.173.847.59 1.22.976.076-.061.156-.127.218-.198-.336-.32-.767-.65-1.24-.84a.88.88 0 0 1 .181-.022c.337 0 .58.256.862.436.393.251.931.393 1.393.209.248-.095.488-.233.668-.459-.363.25-.907.284-1.317.114-.453-.188-.914-.438-1.43-.438-.188 0-.374.032-.555.087a1.917 1.917 0 0 0-.554-.087zm.448.758c-.023 0-.038.011-.043.034-.01.04-.022.115-.035.224a.69.69 0 0 0-.11.046l-.165-.129a.051.051 0 0 0-.031-.012c-.018 0-.056.029-.114.086s-.098.1-.119.13a.05.05 0 0 0-.01.026c0 .01.004.02.012.03.053.064.096.12.128.165a.598.598 0 0 0-.047.111l-.223.034a.036.036 0 0 0-.023.015.046.046 0 0 0-.01.028v.267c0 .01.003.02.01.028a.038.038 0 0 0 .025.015l.22.033c.012.04.028.079.05.119l-.066.085a2.491 2.491 0 0 0-.06.08.046.046 0 0 0-.01.027c0 .01.002.02.008.028.031.043.097.11.198.202.009.009.02.013.03.013a.043.043 0 0 0 .03-.01l.17-.13a.743.743 0 0 0 .108.045l.034.222c0 .01.005.019.014.025.008.007.018.01.03.01h.266c.024 0 .038-.01.044-.033.01-.04.022-.115.034-.224a.69.69 0 0 0 .11-.046l.166.13a.06.06 0 0 0 .031.011c.018 0 .055-.028.113-.085.058-.057.098-.1.12-.13a.04.04 0 0 0 .01-.028c0-.01-.004-.02-.012-.03-.058-.07-.1-.126-.129-.166a.772.772 0 0 0 .047-.11l.223-.033a.036.036 0 0 0 .024-.015.047.047 0 0 0 .01-.028v-.267c0-.01-.004-.02-.01-.028a.038.038 0 0 0-.026-.015l-.22-.034a.724.724 0 0 0-.049-.118 2.61 2.61 0 0 1 .065-.085c.03-.036.05-.063.061-.08a.047.047 0 0 0 .01-.028.038.038 0 0 0-.008-.026 1.649 1.649 0 0 0-.199-.204.048.048 0 0 0-.03-.012.038.038 0 0 0-.029.01l-.17.13a.74.74 0 0 0-.109-.045l-.033-.221a.036.036 0 0 0-.014-.026.046.046 0 0 0-.03-.01zm.134.616c.085 0 .157.03.218.09.06.06.09.133.09.218s-.03.158-.09.218a.296.296 0 0 1-.218.09.297.297 0 0 1-.218-.09c-.06-.06-.09-.133-.09-.218s.03-.158.09-.218.133-.09.218-.09zm-1.898.01c-.019 0-.03.009-.035.027a1.59 1.59 0 0 0-.029.183.56.56 0 0 0-.09.038l-.136-.106a.04.04 0 0 0-.025-.01c-.014 0-.046.024-.093.07s-.08.084-.098.107a.041.041 0 0 0-.008.023c0 .008.003.015.01.023.044.053.079.1.105.137a.483.483 0 0 0-.038.09l-.184.028a.03.03 0 0 0-.019.013.038.038 0 0 0-.008.023v.218c0 .009.003.017.008.023a.032.032 0 0 0 .021.013l.18.027c.01.032.023.064.041.097l-.053.07-.05.065a.039.039 0 0 0-.009.023.04.04 0 0 0 .008.023c.025.035.08.09.162.166.008.007.016.01.025.01.01 0 .018-.002.024-.008l.14-.106a.612.612 0 0 0 .088.036l.028.182a.03.03 0 0 0 .012.021.037.037 0 0 0 .023.009h.22c.019 0 .03-.01.035-.028.009-.033.018-.094.029-.184a.569.569 0 0 0 .09-.037l.136.107c.01.006.017.008.025.008.015 0 .046-.023.093-.07a1 1 0 0 0 .098-.106.033.033 0 0 0 .009-.023.038.038 0 0 0-.01-.025 2.54 2.54 0 0 1-.106-.136.633.633 0 0 0 .039-.09l.182-.027a.03.03 0 0 0 .02-.013.038.038 0 0 0 .008-.023v-.219a.037.037 0 0 0-.008-.023.03.03 0 0 0-.02-.012l-.181-.028a.593.593 0 0 0-.04-.096c.011-.017.029-.04.053-.07l.05-.065a.038.038 0 0 0 .008-.023.032.032 0 0 0-.007-.022 1.345 1.345 0 0 0-.163-.168.038.038 0 0 0-.025-.01.032.032 0 0 0-.024.01l-.14.105a.611.611 0 0 0-.088-.036l-.028-.182a.03.03 0 0 0-.011-.022.037.037 0 0 0-.024-.008zm3.584 0c-.02 0-.03.009-.036.027a1.602 1.602 0 0 0-.028.183.56.56 0 0 0-.09.038l-.136-.106a.04.04 0 0 0-.026-.01c-.014 0-.045.024-.093.07a.975.975 0 0 0-.097.107.042.042 0 0 0-.01.023c0 .008.004.015.01.023.045.053.08.1.106.137a.483.483 0 0 0-.038.09l-.184.028a.03.03 0 0 0-.018.013.038.038 0 0 0-.008.023v.218c0 .009.003.017.008.023s.012.012.02.013l.18.027c.01.032.023.065.041.097l-.053.07-.05.065a.038.038 0 0 0-.008.023c0 .009.002.016.007.023.025.035.08.09.162.166.008.007.016.01.025.01.01 0 .018-.002.025-.008l.14-.106a.605.605 0 0 0 .087.036l.028.182a.03.03 0 0 0 .012.021.038.038 0 0 0 .024.009h.219c.019 0 .03-.01.035-.028.009-.033.018-.094.029-.184a.57.57 0 0 0 .09-.037l.136.107c.01.006.017.008.025.008.015 0 .046-.023.093-.07a1 1 0 0 0 .098-.106.033.033 0 0 0 .009-.023.038.038 0 0 0-.01-.025 2.54 2.54 0 0 1-.106-.136.634.634 0 0 0 .039-.09l.182-.027a.03.03 0 0 0 .02-.013.038.038 0 0 0 .008-.023v-.219a.037.037 0 0 0-.008-.023.03.03 0 0 0-.02-.012l-.181-.028a.596.596 0 0 0-.04-.096c.011-.017.03-.04.053-.07l.05-.065a.038.038 0 0 0 .008-.023.032.032 0 0 0-.007-.022 1.345 1.345 0 0 0-.163-.168.038.038 0 0 0-.025-.01.032.032 0 0 0-.023.01l-.14.105a.61.61 0 0 0-.09-.036l-.027-.182a.03.03 0 0 0-.011-.022.037.037 0 0 0-.024-.008zm-3.474.505c.07 0 .13.024.179.073.049.05.074.109.074.179s-.025.13-.074.178a.244.244 0 0 1-.18.074.243.243 0 0 1-.177-.074c-.05-.049-.074-.109-.074-.178s.024-.13.074-.179a.243.243 0 0 1 .178-.073zm3.583 0c.07 0 .13.024.179.073.05.05.074.109.074.179s-.025.13-.074.178c-.05.05-.11.074-.179.074s-.129-.024-.178-.074c-.05-.049-.074-.109-.074-.178s.024-.13.074-.179a.243.243 0 0 1 .178-.073z" fill="#f4f4f7"/>
    </g>
</svg>
