<svg xmlns="http://www.w3.org/2000/svg" width="24" height="24"><path style="opacity:.2" d="M2 3.5v14c0 2 2 2 2 2h18zm4 8.322 4.598 3.678H6z"/><path style="fill:#009688" d="M2 3v14c0 2 2 2 2 2h18zm4 8.322L10.598 15H6z"/><path style="opacity:.2;fill:#f4f4f7" d="M2 3v.5L21.375 19H22L2 3zm4 12v.5h3.348l.625.5h.625l-1.25-1H6z"/><path style="opacity:.2;fill-rule:evenodd" d="M12.037 9.5a1 1 0 0 1 .838.514l5 9L18 21.5l-1.875-1.514L12 12.561V9.504c.013 0 .024-.004.037-.004z"/><path style="fill:#a2a2a2;fill-rule:evenodd" d="M12.037 9a1 1 0 0 1 .838.514l5 9L18 21l-1.875-1.514L12 12.061V9.004c.013 0 .024-.004.037-.004z"/><path style="opacity:.2" d="M11.963 9.5a1 1 0 0 0-.838.514l-5 9L6 21.5l1.875-1.514.703-1.263A8 8 0 0 0 12 19.5a8 8 0 0 0 8-8h-2a6 6 0 0 1-6 6 6 6 0 0 1-2.447-.533L12 12.56V9.504c-.013 0-.024-.004-.037-.004z"/><path style="fill:#f4f4f7" d="M11.963 9a1 1 0 0 0-.838.514l-5 9L6 21l1.875-1.514.703-1.263A8 8 0 0 0 12 19a8 8 0 0 0 8-8h-2a6 6 0 0 1-6 6 6 6 0 0 1-2.447-.533L12 12.06V9.004c-.013 0-.024-.004-.037-.004z"/><path style="opacity:.2" d="M11 5.5v2h-1c-.554 0-1 .446-1 1v4l2 1.7c.531.43 1.507.5 2 0l2-1.7v-4c0-.554-.446-1-1-1h-1v-2z"/><path style="opacity:.1;fill:#f4f4f7" d="M11.963 9a1 1 0 0 0-.838.514l-5 9L6 21l.025-.021.1-1.965 5-9a1 1 0 0 1 .838-.514c.013 0 .024.004.037.004v-.5c-.013 0-.024-.004-.037-.004zM18 11a6 6 0 0 1-6 6 6 6 0 0 1-2.22-.441l-.227.408A6 6 0 0 0 12 17.5a6 6 0 0 0 6-6h1.982A8 8 0 0 0 20 11h-2z"/><path style="fill:#6a6a6a" d="M11 5v2h-1c-.554 0-1 .446-1 1v4l2 1.7c.531.43 1.507.5 2 0l2-1.7V8c0-.554-.446-1-1-1h-1V5z"/><circle style="fill:#f4f4f7" cx="12" cy="10" r="1"/><path style="opacity:.1;fill:#f4f4f7" d="M11 5v.5h2V5h-2zm-1 2c-.554 0-1 .446-1 1v.5c0-.554.446-1 1-1h1V7h-1zm3 0v.5h1c.554 0 1 .446 1 1V8c0-.554-.446-1-1-1h-1z"/></svg>