<svg height="24" width="24" xmlns="http://www.w3.org/2000/svg"><rect fill="#dd2525" height="20" rx="1" width="20" x="2" y="2"/><path d="m3 2c-.554 0-1 .446-1 1v.5c0-.554.446-1 1-1h18c.554 0 1 .446 1 1v-.5c0-.554-.446-1-1-1z" fill="#f4f4f7" opacity=".2"/><path d="m3 22.5c-.554 0-1-.446-1-1v-.5c0 .554.446 1 1 1h18c.554 0 1-.446 1-1v.5c0 .554-.446 1-1 1z" opacity=".2"/><path d="m3 3v15h1v-14h16v16h-14v1h15v-18zm0 16v2h2v-2z" fill="#f4f4f7" opacity=".5"/><path d="m17 6.5v2h-4v10h-2v-10h-4v-2z" opacity=".2"/><path d="m17 6v2h-4v10h-2v-10h-4v-2z" fill="#f4f4f7"/></svg>