<svg height="24" width="24" xmlns="http://www.w3.org/2000/svg">
    <rect height="20" opacity=".2" rx="1" width="20" x="2" y="2.5"/>
    <rect fill="#555e70" height="20" rx="1" width="20" x="2" y="2"/>
    <path d="M11 6.5v4H8.5l3.5 4 3.5-4H13v-4zm-5 7v4h12v-4h-2v2H8v-2z" opacity=".2"/>
    <g fill="#f4f4f7">
        <path d="M11 6v4H8.5l3.5 4 3.5-4H13V6zm-5 7v4h12v-4h-2v2H8v-2z"/>
        <path d="M3 2c-.554 0-1 .446-1 1v.5c0-.554.446-1 1-1h18c.554 0 1 .446 1 1V3c0-.554-.446-1-1-1z" opacity=".1"/>
    </g>
</svg>
