<svg height="24" width="24" xmlns="http://www.w3.org/2000/svg"><g transform="translate(1 1)"><rect height="20" opacity=".2" rx="2" width="20" x="1" y="1.5"/><rect fill="#f4f4f7" height="20" rx="2" width="20" x="1" y="1"/><path d="m3 1c-1.108 0-2 .892-2 2v.5c0-1.108.892-2 2-2h16c1.108 0 2 .892 2 2v-.5c0-1.108-.892-2-2-2z" fill="#f4f4f7" opacity=".2"/><path d="m3 13h3v8h-3zm13 0h3v8h-3z" fill="#3ca2e4"/><path d="m4.5 12.5a1.5 1.5 0 0 0 -1.5 1.5 1.5 1.5 0 0 0 1.5 1.5 1.5 1.5 0 0 0 1.5-1.5 1.5 1.5 0 0 0 -1.5-1.5zm13 0a1.5 1.5 0 0 0 -1.5 1.5 1.5 1.5 0 0 0 1.5 1.5 1.5 1.5 0 0 0 1.5-1.5 1.5 1.5 0 0 0 -1.5-1.5zm-16.5 4v1h20v-1z" opacity=".2"/><g fill="#4f4f4f"><circle cx="4.5" cy="13.5" r="1.5"/><path d="m1 16v1h20v-1z"/><circle cx="17.5" cy="13.5" r="1.5"/></g></g></svg>