<svg height="24" width="24" xmlns="http://www.w3.org/2000/svg"><g transform="translate(1 1)"><circle cx="11" cy="11.5" opacity=".2" r="9"/><circle cx="11" cy="11" fill="#3fafff" r="9"/><path d="m11 2a9 9 0 0 0 -9 9 9 9 0 0 0 .01.287 9 9 0 0 1 8.99-8.787 9 9 0 0 1 8.99 8.713 9 9 0 0 0 .01-.213 9 9 0 0 0 -9-9z" fill="#f4f4f7" opacity=".1"/><path d="m8 10h6l-1-5s0-1-2-1-2 1-2 1v3z" fill="#f0f0f0"/><circle cx="10.5" cy="6" opacity=".1"/><path d="m11 4c-2 0-2 1-2 1v.5s0-1 2-1 2 1 2 1l.9 4.5h.1l-1-5s0-1-2-1zm-2 4-1 2h.25l.75-1.5z" fill="#f4f4f7" opacity=".2"/><path d="m2 10.5h18c1 0 1 1 1 1l-6 3h3c1 0 1 1 1 1l-7 4h-2l-7-4s0-1 1-1h3l-6-3s0-1 1-1z" opacity=".2"/><path d="m2 10h18c1 0 1 1 1 1l-6 3h3c1 0 1 1 1 1l-7 4h-2l-7-4s0-1 1-1h3l-6-3s0-1 1-1z" fill="#6fbfff"/><path d="m2 10c-1 0-1 1-1 1l.107.055c.115-.269.353-.555.893-.555h18c.54 0 .778.286.893.555l.107-.055s0-1-1-1zm2 4c-1 0-1 1-1 1l.105.06c.114-.27.35-.56.895-.56h3l-1-.5zm12 0-1 .5h3c.544 0 .781.29.895.56l.105-.06s0-1-1-1z" fill="#f4f4f7" opacity=".2"/><path d="m9 5.5-3 1 1 2 1-1 2 1z" opacity=".1"/><path d="m9 5-3 1 1 2 1-1 2 1z" fill="#f2d12d"/><circle cx="10.5" cy="5.5" fill="#4f4f4f"/><path d="m7 10.5h8l-1 1h2l-4 8h-2l-4-8h2z" opacity=".1"/><path d="m7 10h8l-1 1h2l-4 8h-2l-4-8h2z" fill="#4f4f4f"/><path d="m9 10 1 9h2l1-9z" fill="#f4f4f7"/><path d="m11 10-1 4 1 1 1-1z" fill="#4f4f4f"/><path d="m9 5-3 1 .215.428 2.785-.928.8 2.4.2.1z" fill="#f4f4f7" opacity=".2"/></g><circle cx="11.5" cy="7" opacity=".1"/><g fill="#4f4f4f"><circle cx="11.5" cy="6.5"/><path d="m12 6.5a.5.5 0 0 1 -.5.5.5.5 0 0 1 -.5-.5.5.5 0 0 1 .5-.5.5.5 0 0 1 .5.5z"/></g></svg>