<svg height="24" width="24" xmlns="http://www.w3.org/2000/svg"><path d="m14.999 15v6h5.1c.499 0 .9-.401.9-.9v-5.1z" fill="#278e33"/><path d="m9 15h6v6h-6z" fill="#1e4f77"/><path d="m3 15v5.1c0 .499.401.9.9.9h5.1v-6z" fill="#278e33"/><path d="m3 9.5h6v6h-6z" opacity=".2"/><path d="m3 9h6v6h-6z" fill="#20c931"/><path d="m9 9.5h6v6h-6z" opacity=".2"/><path d="m9 9h6v6h-6z" fill="#3182c6"/><path d="m15 9.5h6v6h-6z" opacity=".2"/><path d="m15 9h6v6h-6z" fill="#20c931"/><path d="m15 3.5v6h6v-5.1c0-.499-.401-.9-.9-.9z" opacity=".2"/><path d="m15 3v6h6v-5.1c0-.499-.401-.9-.9-.9z" fill="#66fe76"/><path d="m9 3.5h6v6h-6z" opacity=".2"/><path d="m9 3h6v6h-6z" fill="#4799e2"/><path d="m3.9 3.5c-.499 0-.9.401-.9.9v5.1h6v-6z" opacity=".2"/><path d="m3.9 3c-.499 0-.9.401-.9.9v5.1h6v-6z" fill="#66b7fe"/><path d="m3.9 3c-.498 0-.9.402-.9.9v.5c0-.498.402-.9.9-.9h16.2c.498 0 .9.402.9.9v-.5c0-.498-.402-.9-.9-.9z" fill="#fff" opacity=".2"/><path d="m3 20.1v.5c0 .499.402.9.9.9h16.2c.498 0 .9-.402.9-.9v-.5c0 .498-.402.9-.9.9h-16.2a.899.899 0 0 1 -.9-.9z" opacity=".2"/></svg>