<svg height="24" width="24" xmlns="http://www.w3.org/2000/svg"><rect height="16" opacity=".2" rx="1.882" width="16" x="3" y="4.5"/><path d="m19 8 3-2.5v14l-3-2.5z" opacity=".2"/><rect fill="#1c6bdd" height="16" rx="1.882" width="16" x="3" y="4"/><path d="m7 7.5v10h5c1.657 0 3-1.292 3-2.95 0-.784-.308-1.504-.8-2.05.492-.546.8-1.266.8-2.05 0-1.658-1.343-2.922-3-2.95zm2 2h3c.576 0 1 .373 1 .95 0 .575-.424 1.05-1 1.05h-3zm0 4h3c.576 0 1 .475 1 1.05 0 .577-.424.95-1 .95h-3z" opacity=".2"/><path d="m7 7v6h5c1.657 0 3-1.393 3-3.05s-1.343-2.95-3-2.95zm2 2h3c.576 0 1 .374 1 .95s-.424 1.05-1 1.05h-3z" fill="#f4f4f7"/><path d="m5 3.5h16v16h-16z" fill="none"/><path d="m19 7.5 3-2.5v14l-3-2.5z" fill="#1f56a8"/><g fill="#f4f4f7"><path d="m7 11v6h5c1.657 0 3-1.293 3-2.95s-1.343-3.05-3-3.05zm2 2h3c.576 0 1 .474 1 1.05s-.424.95-1 .95h-3z"/><path d="m4.883 4c-1.043 0-1.883.84-1.883 1.883v.5c0-1.043.84-1.883 1.883-1.883h12.234c1.043 0 1.883.84 1.883 1.883v-.5c0-1.043-.84-1.883-1.883-1.883zm17.117 1-3 2.5v.5l3-2.5z" opacity=".1"/></g></svg>