<svg height="24" width="24" xmlns="http://www.w3.org/2000/svg"><path d="m6.792 2.5c-2.102 0-3.792 1.208-3.792 2.71v10.29h10.292c1.5 0 2.708-1.69 2.708-3.791v-1.584c0-2.1-1.208-3.653-2.708-3.625h-5.292v2h3.357c.892 0 1.643.645 1.643 1.445v1.944c0 .8-.752 1.646-1.643 1.611h-4.357v-8h4v-.79c0-1.21-1.624-2.21-3.725-2.21z" opacity=".2"/><path d="m11.792 22.5c-2.102 0-3.792-1.208-3.792-2.708v-10.292h10.292c1.5 0 2.708 1.69 2.708 3.792v1.584c0 2.1-1.208 3.653-2.708 3.625h-5.292v-2h3.357c.892 0 1.643-.645 1.643-1.445v-1.946c0-.8-.752-1.645-1.643-1.611h-4.357v8h4v.792c0 1.208-1.624 2.208-3.725 2.208z" opacity=".2"/><path d="m6.792 2c-2.102 0-3.792 1.208-3.792 2.708v10.292h10.292c1.5 0 2.708-1.69 2.708-3.792v-1.584c0-2.1-1.208-3.653-2.708-3.625h-5.292v2h3.357c.892.001 1.643.645 1.643 1.801" fill="#3084e0"/><path d="m6.791 2c-2.1 0-3.791 1.209-3.791 2.709v.5c0-1.5 1.69-2.709 3.791-2.709h.484c2.101 0 3.725 1 3.725 2.209v-.5c0-1.208-1.624-2.209-3.725-2.209zm1.209 4v.5h5.291c1.5-.028 2.709 1.524 2.709 3.625v-.5c0-2.1-1.209-3.653-2.709-3.625zm5 5.389c0 .8-.752 1.645-1.643 1.611h-4.357v.5h4.357c.891.034 1.643-.811 1.643-1.611z" fill="#f4f4f7" opacity=".2"/><path d="m11.792 22c-2.102 0-3.792-1.208-3.792-2.71v-10.29h10.292c1.5 0 2.708 1.69 2.708 3.79v1.584c0 2.1-1.208 3.653-2.708 3.625h-5.292v-2h3.357c.892 0 1.643-.645 1.643-1.445v-1.944c0-.8-.752-1.646-1.643-1.612h-4.357v8.002h4v.791c0 1.209-1.624 2.209-3.725 2.209z" fill="#ffa923"/><path d="m8 9v.5h10.291c1.5 0 2.709 1.69 2.709 3.791v-.5c0-2.1-1.209-3.791-2.709-3.791zm10 5.555c0 .8-.75 1.445-1.643 1.445h-3.357v.5h3.357c.892 0 1.643-.643 1.643-1.443zm-6 4.445v.5h4v-.5z" fill="#f4f4f7" opacity=".2"/><path d="m12.912 9c.053.14.088.287.088.443v1.557h3v-1.375c0-.216-.02-.422-.045-.625z" fill="#3084e0"/><path d="m9 3.5h1v1h-1z" opacity=".2"/><path d="m9 3h1v1h-1z" fill="#f4f4f7"/><path d="m14 20.5h1v1h-1z" opacity=".2"/><path d="m14 20h1v1h-1z" fill="#f4f4f7"/></svg>