<svg height="24" width="24" xmlns="http://www.w3.org/2000/svg">
    <rect height="20" opacity=".2" rx="1" width="18" x="3" y="2.5"/>
    <rect fill="#4f4f4f" height="20" rx="1" width="18" x="3" y="2"/>
    <path d="M5.37 4.5c-.205 0-.37.17-.37.38v15.192c0 .238.165.428.37.428h13.26c.205 0 .37-.19.37-.428V4.881a.375.375 0 0 0-.37-.381H7.579z" opacity=".2"/>
    <path d="M5.368 4A.374.374 0 0 0 5 4.381V8h14V4.381A.374.374 0 0 0 18.632 4H7.579z" fill="#68c7ff"/>
    <path d="M5 8v3h14V8H7.579z" fill="#ab70ff"/>
    <path d="M5 11v3h14v-3H7.579z" fill="#ff639c"/>
    <path d="M5 14v3h14v-3H7.579z" fill="#ffdb49"/>
    <path d="M5 17v2.571c0 .238.164.429.368.429h13.264c.204 0 .368-.191.368-.429V17H5.368z" fill="#c9c9c9"/>
    <path d="M4 2c-.554 0-1 .446-1 1v.5c0-.554.446-1 1-1h16c.554 0 1 .446 1 1V3c0-.554-.446-1-1-1z" fill="#f4f4f7" opacity=".1"/>
    <path d="M5.37 4c-.205 0-.37.17-.37.38v.5c0-.21.165-.38.37-.38h13.26c.204 0 .369.17.369.38v-.5a.375.375 0 0 0-.37-.38z" fill="#f4f4f7" opacity=".2"/>
    <path d="M5 8h14v.5H5zm0 3h14v.5H5zm0 3h14v.5H5zm0 3h14v.5H5z" opacity=".1"/>
</svg>
