<svg height="24" width="24" xmlns="http://www.w3.org/2000/svg">
    <path d="M11.985 2.5a.91.905 0 0 0-.166.017L2.735 4.278A.91.905 0 0 0 2 5.167v13.68a.91.905 0 0 0 .737.89l9.083 1.746a.91.905 0 0 0 .18.017.84.84 0 0 0 .165-.017l9.098-1.747a.906.906 0 0 0 .737-.888V5.167a.906.906 0 0 0-.735-.889l-9.098-1.761A.913.913 0 0 0 12 2.5a.91.905 0 0 0-.015-.001z" opacity=".2"/>
    <path d="M12 2.001V21a.84.84 0 0 0 .165-.017l9.098-1.747a.906.906 0 0 0 .737-.888V4.667a.906.906 0 0 0-.735-.889l-9.098-1.761A.913.913 0 0 0 12 2z" fill="#f63"/>
    <path d="M17.5 5v2.5L14.65 11h2.85v2H20l-2.5 3.5v2" fill="none" opacity=".2" stroke="#000"/>
    <path d="M17.5 5v2l-2.85 3.5h2.85v2H20L17.5 16v2" fill="none" stroke="#f4f4f7"/>
    <path d="M11.985 2a.91.905 0 0 0-.166.017L2.735 3.778A.91.905 0 0 0 2 4.667v13.68a.91.905 0 0 0 .737.89l9.083 1.746A.91.905 0 0 0 12 21V2.001A.91.905 0 0 0 11.985 2z" fill="#404041"/>
    <g fill="#f4f4f7">
        <path d="M12 2.001v.5c.056 0 .112.005.167.016l9.098 1.761a.906.906 0 0 1 .735.889v-.5a.906.906 0 0 0-.735-.889l-9.098-1.761A.913.913 0 0 0 12 2z" opacity=".2"/>
        <path d="M11.985 2a.91.905 0 0 0-.166.017L2.735 3.778A.91.905 0 0 0 2 4.667v.5a.91.905 0 0 1 .735-.889l9.084-1.761a.91.905 0 0 1 .166-.017.91.905 0 0 1 .015.001v-.5A.91.905 0 0 0 11.985 2z" opacity=".1"/>
    </g>
</svg>
