<svg xmlns="http://www.w3.org/2000/svg" width="24" height="24" version="1"><path style="opacity:.2" transform="matrix(0 -1 -1 0 0 0)" d="M-19.952-19.523-16.747-22H-3.5c.554 0 1 .446 1 1v18c0 .554-.446 1-1 1h-18c-.554 0-1-.446-1-1v-13.807l1.327-.876c.462-.305.783-1.501 1.221-1.84z"/><path style="fill:#752828" transform="matrix(0 -1 -1 0 0 0)" d="M-19.939-20.364-16.923-22H-3c.554 0 1 .446 1 1v18c0 .554-.446 1-1 1h-18c-.554 0-1-.446-1-1v-13.674l.442-3.132c.078-.548 1.133-.293 1.62-.558z"/><path style="opacity:.2;fill:none;stroke:#000" d="M7.5 5.5c3.658 0 5.342 7 9 7"/><path style="opacity:.1;fill:#f4f4f7" d="M2 3.5V3c0-.554.446-1 1-1h18c.554 0 1 .446 1 1v.5c0-.554-.446-1-1-1H3c-.554 0-1 .446-1 1z"/><path style="fill:none;stroke:#6c7f94" d="M7.5 5c3.658 0 5.342 7 9 7"/><path style="opacity:.2;fill:none;stroke:#000" d="M7.5 12.5c3.658 0 5.342 7 9 7"/><path style="opacity:.2;fill-rule:evenodd" d="m6.008 4.5-.016.018L5 5.5l1.008 1H8v-2z"/><path style="fill:#4c66cc;fill-rule:evenodd" d="m6.008 4-.016.018L5 5l1.008 1H8V4z"/><path style="opacity:.2;fill-rule:evenodd" d="M16 11.5v2h2.011l.989-1-.989-1h-.022z"/><path style="fill:#4c66cc;fill-rule:evenodd" d="M16 11v2h2.011L19 12l-.989-1h-.022z"/><path style="fill:none;stroke:#6c7f94" d="M7.5 12c3.658 0 5.342 7 9 7"/><path style="opacity:.2;fill-rule:evenodd" d="m6.008 11.5-.016.018L5 12.5l1.008 1H8v-2z"/><path style="fill:#4c66cc;fill-rule:evenodd" d="m6.008 11-.016.018L5 12l1.008 1H8v-2z"/><path style="opacity:.2;fill-rule:evenodd" d="M16 18.5v2h2.011l.989-1-.989-1h-.022z"/><path style="fill:#4c66cc;fill-rule:evenodd" d="M16 18v2h2.011L19 19l-.989-1h-.022z"/><circle style="fill:#17191e" cx="17" cy="17" r="6"/><path style="fill:#f4f4f7" d="M15.962 19.712c0-.145.02-.268.063-.369.041-.1.1-.18.173-.243a.69.69 0 0 1 .262-.134 1.208 1.208 0 0 1 .63 0 .643.643 0 0 1 .433.378.93.93 0 0 1 .066.368c0 .14-.022.258-.065.357a.693.693 0 0 1-.176.246.697.697 0 0 1-.257.141 1.144 1.144 0 0 1-.63 0 .665.665 0 0 1-.436-.387.894.894 0 0 1-.063-.357m.153-1.585v-.343c0-.158.016-.3.048-.429.033-.128.082-.25.149-.366a1.75 1.75 0 0 1 .257-.338 3.78 3.78 0 0 1 .38-.341c.13-.102.24-.193.329-.274.09-.08.162-.16.218-.239a.815.815 0 0 0 .12-.247c.025-.087.038-.188.038-.302a.579.579 0 0 0-.179-.435c-.119-.115-.3-.172-.545-.172-.213 0-.442.045-.688.134-.245.09-.5.2-.763.33l-.472-1.025a4.855 4.855 0 0 1 .92-.406c.169-.053.34-.096.512-.127.174-.031.343-.046.51-.046.316 0 .6.038.853.113.254.076.469.186.645.332.176.145.311.321.405.528.095.207.142.443.142.71 0 .194-.022.368-.065.52a1.57 1.57 0 0 1-.192.427 2.12 2.12 0 0 1-.32.38 6.9 6.9 0 0 1-.448.387c-.13.102-.235.192-.318.267a1.302 1.302 0 0 0-.192.215.633.633 0 0 0-.095.212 1.144 1.144 0 0 0-.025.257v.278h-1.224z"/></svg>