<svg height="24" width="24" xmlns="http://www.w3.org/2000/svg">
    <g transform="translate(1 1)">
        <rect fill="#c2352a" height="20" rx="1" transform="matrix(0 -1 -1 0 0 0)" width="20" x="-21" y="-21"/>
        <path d="M2 1c-.554 0-1 .446-1 1v.5c0-.554.446-1 1-1h18c.554 0 1 .446 1 1V2c0-.554-.446-1-1-1z" fill="#f4f4f7" opacity=".2"/>
        <path d="M2 21.5c-.554 0-1-.446-1-1V20c0 .554.446 1 1 1h18c.554 0 1-.446 1-1v.5c0 .554-.446 1-1 1zm3-16 4 3.992 4.055.008.015.008-.015 3.977L17 17.468V5.5zm4 3.922L5 12.5v5h5l3-4-4 .016z" opacity=".2"/>
        <path d="m5 5 4 3.992L13.055 9l.016.008-.016 3.976L17 16.97V5zm4 3.922L5 12v5h5l3-4-4 .016z" fill="#f4f4f7"/>
    </g>
</svg>
