<svg xmlns="http://www.w3.org/2000/svg" width="24" height="24" version="1"><rect fill="#8b9cbe" width="20" height="20" x="2" y="2" rx="1" ry="1"/><path fill="#fff" opacity=".1" d="M3 2c-.554 0-1 .446-1 1v.5c0-.554.446-1 1-1h18c.554 0 1 .446 1 1V3c0-.554-.446-1-1-1H3z"/><path opacity=".2" d="M3 22.5c-.554 0-1-.446-1-1V21c0 .554.446 1 1 1h18c.554 0 1-.446 1-1v.5c0 .554-.446 1-1 1H3z"/><g opacity=".2" transform="translate(1 1.5)"><rect width="7" height="4" x="3" y="3" rx=".875" ry=".8"/><rect width="7" height="4" x="12" y="3" rx=".875" ry=".8"/><rect width="7" height="4" x="7" y="9" rx=".875" ry=".8"/><rect width="3" height="4" x="16" y="9" rx=".8" ry=".8"/><rect width="7" height="4" x="3" y="15" rx=".875" ry=".8"/><rect width="7" height="4" x="12" y="15" rx=".875" ry=".8"/></g><g fill="#ff6363" transform="translate(1 1)"><rect width="7" height="4" x="3" y="3" rx=".875" ry=".8"/><rect width="7" height="4" x="12" y="3" rx=".875" ry=".8"/><rect width="7" height="4" x="7" y="9" rx=".875" ry=".8"/><rect width="3" height="4" x="16" y="9" rx=".8" ry=".8"/><rect width="7" height="4" x="3" y="15" rx=".875" ry=".8"/><rect width="7" height="4" x="12" y="15" rx=".875" ry=".8"/></g></svg>