<svg xmlns="http://www.w3.org/2000/svg" width="24" height="24" version="1"><g transform="matrix(.5 0 0 .5 -.5 0)"><path style="opacity:.2" d="M16.637 19a1.636 1.734 0 0 0-1.58 2.184l5.726 22.533A1.636 1.734 0 0 0 22.363 45h3.273a1.636 1.734 0 0 0 1.58-1.283l5.728-22.533A1.636 1.734 0 0 0 31.364 19z"/><path style="fill:#975a34" d="M22.217 4.004c.117-.068 1.655.837 3.238 1.903 2.317 1.56 3.789 2.94 5.08 4.769.318.452.581.922.819 1.399.137.197.268.4.39.606 2.505 4.324 1.145 9.78-3.037 12.186-4.182 2.407-9.603.853-12.107-3.471a8.91 8.91 0 0 1-.324-.61c-.12-.194-.254-.383-.358-.583-1.419-2.758-1.13-5.71.434-8.223.828-1.33 2.488-2.686 3.683-3.377 1.491-.862 1.994-2.606 2.089-4.123.015-.242.058-.456.093-.476z"/><path style="fill:#f1b65c" d="M16.637 18a1.636 1.734 0 0 0-1.58 2.184l5.726 22.533A1.636 1.734 0 0 0 22.363 44h3.273a1.636 1.734 0 0 0 1.58-1.283l5.728-22.533A1.636 1.734 0 0 0 31.364 18z"/><path style="opacity:.1;fill:#f4f4f7" d="M22.217 4.004c-.035.02-.079.234-.094.476-.094 1.517-.597 3.261-2.088 4.124-1.195.69-2.855 2.046-3.683 3.376-.964 1.547-1.437 3.26-1.332 4.993.094-1.388.555-2.745 1.332-3.993.828-1.33 2.488-2.685 3.683-3.376 1.491-.863 1.994-2.607 2.088-4.124.015-.242.059-.456.094-.476.116-.067 1.655.838 3.238 1.904 2.317 1.56 3.788 2.94 5.078 4.768.319.452.583.921.82 1.398.138.197.269.4.391.608a9.24 9.24 0 0 1 1.238 4.154 9.205 9.205 0 0 0-1.238-5.154 9.449 9.449 0 0 0-.39-.608 10.546 10.546 0 0 0-.82-1.398c-1.291-1.828-2.762-3.207-5.079-4.768-1.583-1.066-3.122-1.971-3.238-1.904z"/><rect style="opacity:.2" width="22" height="2" x="13" y="19" rx="1" ry="1"/><rect style="fill:#ffcf88" width="22" height="2" x="13" y="18" rx="1" ry="1"/></g></svg>