<svg height="24" width="24" xmlns="http://www.w3.org/2000/svg">
    <circle cx="12" cy="12.5" opacity=".2" r="10"/>
    <circle cx="12" cy="12" fill="#17191e" r="10"/>
    <path d="M13 5.5v9a2 2 0 1 1-2-2v-2a4 4 0 1 0 4 4V9.904c.858.589 1.88 1.096 3 1.096V8.616a3.05 3.05 0 0 1-1.63-.473v.002A3.12 3.12 0 0 1 15 6.268l-.15-.768z" opacity=".2"/>
    <g fill="#f4f4f7">
        <path d="M13 5v9a2 2 0 1 1-2-2v-2a4 4 0 1 0 4 4V9.404c.858.589 1.88 1.096 3 1.096V8.116a3.05 3.05 0 0 1-1.63-.473v.002A3.12 3.12 0 0 1 15 5.768L14.85 5z"/>
        <path d="M12 2A10 10 0 0 0 2 12a10 10 0 0 0 .01.291A10 10 0 0 1 12 2.5a10 10 0 0 1 9.99 9.709A10 10 0 0 0 22 12 10 10 0 0 0 12 2z" opacity=".1"/>
    </g>
</svg>
