<svg height="24" width="24" xmlns="http://www.w3.org/2000/svg">
    <linearGradient id="a" gradientTransform="matrix(.29954 0 0 .29984 -35.936 -65.962)" gradientUnits="userSpaceOnUse" x1="168" x2="160" y1="266" y2="270">
        <stop offset="0"/>
        <stop offset="1" stop-opacity="0"/>
    </linearGradient>
    <rect fill="#325f78" height="20" rx="1" transform="matrix(0 -1 -1 0 0 0)" width="16" x="-20" y="-22"/>
    <path d="M20 18V6H4v12z" opacity=".2"/>
    <path d="M3 4c-.554 0-1 .446-1 1v.5c0-.554.446-1 1-1h18c.554 0 1 .446 1 1V5c0-.554-.446-1-1-1z" fill="#f4f4f7" opacity=".1"/>
    <path d="M2 19v.5c0 .554.446 1 1 1h18c.554 0 1-.446 1-1V19c0 .554-.446 1-1 1H3c-.554 0-1-.446-1-1z" opacity=".2"/>
    <path d="M11.991 6a5.971 5.971 0 0 0-5.008 2.708c-.038 2.443 1.514 3.294 2.64 4.573a2.685 2.685 0 0 1-.328-1.284c0-1.495 1.211-1.933 2.696-2.099l5.354-.6A5.97 5.97 0 0 0 11.99 6z" fill="#dd4d3e"/>
    <path d="M6.809 15.013A5.97 5.97 0 0 0 11.656 18c2.074-1.144 3.173-2.599 2.636-4.575a2.662 2.662 0 0 1-.947.926c-.642.371-1.237-.019-1.899-.193-.67-.176-1.407-.143-1.783-.795L6.985 8.721a5.984 5.984 0 0 0-.176 6.291z" fill="#109f5b"/>
    <path d="M17.196 14.996a5.983 5.983 0 0 0 .161-5.695l-5.276.002c.435.012.87.124 1.275.358.691.4.626 1.189.779 1.91.133.629.555 1.173.208 1.776l-2.678 4.642a5.97 5.97 0 0 0 5.531-2.993z" fill="#ffce41"/>
    <path d="m14.325 13.346-2.335-1.35-.35 6z" fill="url(#a)" opacity=".2"/>
    <g transform="matrix(0 -1 -1 0 0 0)">
        <rect height="5.392" opacity=".2" rx="2.699" ry="2.696" width="5.397" x="-14.99" y="-14.69"/>
        <rect fill="#f4f4f7" height="6" rx="3" width="6" x="-15" y="-15"/>
        <rect fill="#4587f3" height="4" rx="2" width="4" x="-14" y="-14"/>
    </g>
</svg>
