<svg height="24" width="24" xmlns="http://www.w3.org/2000/svg"><path d="m3 4.5a2 2 0 0 0 -2 2v12a2 2 0 0 0 2 2h6a2 2 0 0 0 2-2v-5h-4v3h-2v-8h2v3h4v-5a2 2 0 0 0 -2-2zm12 0a2 2 0 0 0 -2 2v6a2 2 0 0 0 2 2h4v2h-2v-1h-4v3a2 2 0 0 0 2 2h6a2 2 0 0 0 2-2v-6a2 2 0 0 0 -2-2h-4v-2h2v1h4v-3a2 2 0 0 0 -2-2z" opacity=".2"/><path d="m9 11v-5h-6v12h6v-5m12-4v-3h-6v6h6v6h-6v-3" fill="none" stroke="#43c3ff" stroke-linejoin="round" stroke-width="4"/><path d="m8 14v4.5h-.5v-.5l-.68.016-.32.228v.756h-.5v-2h-1v1h-.5l-.5.275v-2.257l-.582-.664-.418.664v3.916c.163.042.331.065.5.066h5.5a2 2 0 0 0 2-2v-1.5l-.5-.5-.5.5v-.5h-1v-2zm14.5.5-.5.5v4.73a2 2 0 0 0 .992-1.57c.001-.055.008-.104.008-.16v-3zm-21.5.5v3c0 .174.025.346.068.51a2 2 0 0 0 .006.025c.045.162.11.317.194.461l.007.014a1.995 1.995 0 0 0 .73.722l.045-4.732zm12 1v2a2.002 2.002 0 0 0 .146.746 2 2 0 0 0 .026.063c.044.1.097.196.156.287a2 2 0 0 0 .022.031 2 2 0 0 0 0 .002 2 2 0 0 0 .224.271l.018.02c.08.08.169.15.262.215a2 2 0 0 0 .042.031c.09.059.184.11.282.154a2 2 0 0 0 .076.034c.102.04.21.073.32.097a2 2 0 0 0 .041.01c.125.024.253.039.385.039h5v-1l-.637-.418-.363-.082v-1.5h-1v2.5l-1-.5v-.5l-.258-.5h-.742v1h-1v-2h-1v-1z" fill="#4572ab"/><path d="m20 17v3h1v-3z" fill="#4572ab"/><path d="m3 4a2 2 0 0 0 -2 2v.5a2 2 0 0 1 2-2h6a2 2 0 0 1 2 2v-.5a2 2 0 0 0 -2-2zm12 0a2 2 0 0 0 -2 2v.5a2 2 0 0 1 2-2h6a2 2 0 0 1 2 2v-.5a2 2 0 0 0 -2-2zm2 6v.5h4a2 2 0 0 1 2 2v-.5a2 2 0 0 0 -2-2zm-10 3v.5h4v-.5zm6 2v.5h4v-.5zm-8 1v.5h2v-.5zm12 0v.5h2v-.5z" fill="#f4f4f7" opacity=".2"/></svg>