<svg xmlns="http://www.w3.org/2000/svg" width="24" height="24"><path style="opacity:.2" d="M6.5 2.5a2.493 2.493 0 0 0-2.308 3.452L10.1 20.697a2.493 2.493 0 0 1 .101-1.668l2.3-5.74L8.818 4.1A2.493 2.493 0 0 0 6.501 2.5zm8.406 18.184-.08.199a2.493 2.493 0 0 1-1.992 1.593 2.493 2.493 0 0 0 2.072-1.792zm-2.709 1.795a2.493 2.493 0 0 0 .05.006 2.493 2.493 0 0 1-.05-.006zm.59.002a2.493 2.493 0 0 1-.169.013 2.493 2.493 0 0 0 .169-.013zm-.382.014a2.493 2.493 0 0 0 .118.003 2.493 2.493 0 0 1-.118-.003z"/><path style="fill:#ffa000" d="M6.501 2a2.493 2.493 0 0 0-2.309 3.453l5.982 14.93a2.493 2.493 0 1 0 4.626-1.854L8.818 3.6A2.493 2.493 0 0 0 6.501 2z"/><path style="opacity:.2;fill:#f4f4f7" d="M6.5 2a2.493 2.493 0 0 0-2.485 2.744A2.493 2.493 0 0 1 6.5 2.5 2.493 2.493 0 0 1 8.818 4.1l5.982 14.93a2.493 2.493 0 0 1 .185.729 2.493 2.493 0 0 0-.185-1.229L8.818 3.6A2.493 2.493 0 0 0 6.501 2z"/><path style="opacity:.2" d="M18.423 2.502a2.493 2.493 0 0 0-2.242 1.597L10.2 19.029a2.493 2.493 0 1 0 4.626 1.854l5.982-14.93a2.493 2.493 0 0 0-2.385-3.451z"/><path style="fill:#ffca28" d="M18.423 2.002a2.493 2.493 0 0 0-2.242 1.597L10.2 18.529a2.493 2.493 0 1 0 4.626 1.854l5.982-14.93a2.493 2.493 0 0 0-2.385-3.451z"/><path style="opacity:.2;fill:#f4f4f7" d="M18.423 2.001A2.493 2.493 0 0 0 16.18 3.6l-5.98 14.93a2.493 2.493 0 0 0-.187 1.229 2.493 2.493 0 0 1 .186-.729L16.181 4.1a2.493 2.493 0 0 1 2.242-1.598 2.493 2.493 0 0 1 2.563 2.24A2.493 2.493 0 0 0 18.423 2z"/></svg>