<svg height="24" width="24" xmlns="http://www.w3.org/2000/svg"><rect height="13" opacity=".2" rx="1" width="13" x="9" y="8.5"/><rect fill="#1190e6" height="13" rx="1" width="13" x="9" y="8"/><path d="m10 8c-.554 0-1 .446-1 1v.5c0-.554.446-1 1-1h11c.554 0 1 .446 1 1v-.5c0-.554-.446-1-1-1z" fill="#f4f4f7" opacity=".2"/><rect height="13" opacity=".2" rx="1" width="13" x="6" y="5.5"/><rect fill="#6eca60" height="13" rx="1" width="13" x="6" y="5"/><path d="m7 5c-.554 0-1 .446-1 1v.5c0-.554.446-1 1-1h11c.554 0 1 .446 1 1v-.5c0-.554-.446-1-1-1z" fill="#f4f4f7" opacity=".2"/><rect height="13" opacity=".2" rx="1" width="13" x="3" y="2.5"/><rect fill="#ffd748" height="13" rx="1" width="13" x="3" y="2"/><path d="m4 2c-.554 0-1 .446-1 1v.5c0-.554.446-1 1-1h11c.554 0 1 .446 1 1v-.5c0-.554-.446-1-1-1z" fill="#f4f4f7" opacity=".2"/></svg>