<svg xmlns="http://www.w3.org/2000/svg" width="24" height="24" version="1"><g transform="translate(1 1)"><rect fill="#4f4f4f" width="20" height="20" x="-21" y="-21" rx="10" ry="10" transform="matrix(0 -1 -1 0 0 0)"/><g opacity=".2" transform="translate(-1 -.5)"><path d="M17.396 9.201a9 9 0 0 1 .004.1 9 9 0 0 1-.496 2.916A2 2 0 0 1 18 14a2 2 0 0 1-2 2 2 2 0 0 1-1.19-.395 9 9 0 0 1-2.42 1.756l-.033.055A5 5 0 0 0 16 19a5 5 0 0 0 5-5 5 5 0 0 0-3.604-4.799zM6.61 9.201A5 5 0 0 0 3 14a5 5 0 0 0 5 5 5 5 0 0 0 3.609-1.545 9 9 0 0 1-2.482-1.805A2 2 0 0 1 8 16a2 2 0 0 1-2-2 2 2 0 0 1 1.068-1.77A9 9 0 0 1 6.6 9.4a9 9 0 0 1 .01-.199zM12 3a5 5 0 0 0-5 5 5 5 0 0 0 .094.959 9 9 0 0 1 2.926-1.227A2 2 0 0 1 12 6a2 2 0 0 1 1.979 1.728A9 9 0 0 1 16.9 8.962 5 5 0 0 0 17 8a5 5 0 0 0-5-5z"/><circle cx="8" cy="14" r="1"/><circle cx="12" cy="8" r="1"/><circle cx="16" cy="14" r="1"/></g><path fill="#fff" opacity=".1" d="M11.001 1c-5.54 0-10 4.46-10 10 0 .084-.002.167 0 .25.132-5.423 4.544-9.75 10-9.75s9.868 4.327 10 9.75c.002-.084 0-.166 0-.25 0-5.54-4.46-10-10-10z"/><path opacity=".2" d="M1.007 11.25c-.002.084-.006.166-.006.25 0 5.54 4.46 10 10 10s10-4.46 10-10c0-.084-.004-.167-.006-.25C20.863 16.673 16.457 21 11 21s-9.862-4.327-9.994-9.75z"/><path fill="#3facd2" d="M16.397 8.201a9 9 0 0 1 .004.1 9 9 0 0 1-.496 2.916A2 2 0 0 1 17 13a2 2 0 0 1-2 2 2 2 0 0 1-1.19-.395 9 9 0 0 1-2.42 1.756l-.033.055A5 5 0 0 0 15 18a5 5 0 0 0 5-5 5 5 0 0 0-3.603-4.799z"/><path fill="#e16262" d="M5.61 8.201A5 5 0 0 0 2 13a5 5 0 0 0 5 5 5 5 0 0 0 3.61-1.545 9 9 0 0 1-2.482-1.805A2 2 0 0 1 7 15a2 2 0 0 1-2-2 2 2 0 0 1 1.068-1.77 9 9 0 0 1-.468-2.83 9 9 0 0 1 .01-.199z"/><path fill="#69db3e" d="M11.001 2a5 5 0 0 0-5 5 5 5 0 0 0 .094.959A9 9 0 0 1 9.02 6.732 2 2 0 0 1 11.001 5a2 2 0 0 1 1.978 1.728 9 9 0 0 1 2.922 1.233 5 5 0 0 0 .1-.961 5 5 0 0 0-5-5z"/><circle fill="#eb9595" cx="7.001" cy="13" r="1"/><circle fill="#a5e98c" cx="11.001" cy="7" r="1"/><circle fill="#8ccde4" cx="15.001" cy="13" r="1"/></g></svg>