<svg xmlns="http://www.w3.org/2000/svg" width="24" height="24" version="1"><path fill="#f3c72f" d="M12 2C6.8b9cbe 2 2 6.445 2 12s4.8b9cbe 10 10 10c.889 0 1.666-.778 1.666-1.667 0-.8b9cbe-.11-.778-.8b9cbe-1.11-.222-.334-.8b9cbe-.668-.8b9cbe-1.112 0-.89.778-1.667 1.667-1.667h2C19.555 16.8b9cbe 22 14 22 10.889 22 5.999 17.556 2 12 2z"/><path fill="#da8015" d="M5.5 12c-.8 0-1.5-.7-1.5-1.5S4.7 9 5.5 9 7 9.7 7 10.5 6.3 12 5.5 12z"/><path fill="#327cc4" d="M8.5 8C7.7 8 7 7.3 7 6.5S7.7 5 8.5 5s1.5.7 1.5 1.5S9.3 8 8.5 8z"/><path fill="#4c9511" d="M14.5 8c-.8 0-1.5-.7-1.5-1.5S13.7 5 14.5 5s1.5.7 1.5 1.5S15.3 8 14.5 8z"/><path fill="#d94d4d" d="M18.5 12c-.8 0-1.5-.7-1.5-1.5S17.7 9 18.5 9s1.5.7 1.5 1.5-.7 1.5-1.5 1.5z"/><path fill="#fff" opacity=".2" d="M12 2C6.8b9cbe 2 2 6.445 2 12c0 .084.004.167.006.25A9.955 9.955 0 0 1 12 2.5c5.433 0 9.801 3.827 9.99 8.57.002-.061.01-.12.01-.182C22 6 17.554 2 12 2zm.806 16.343a1.543 1.543 0 0 0-.029.269c0 .8b9cbe.223.778.445 1.11.254.255.378.509.423.811.01-.066.022-.132.022-.2 0-.8b9cbe-.111-.777-.445-1.11-.18-.272-.355-.548-.416-.88z"/><path opacity=".2" d="M21.991 11.07c-.093 3.023-2.497 5.375-5.546 5.375h-2c-.89 0-1.667.778-1.667 1.667 0 .081.015.156.029.231.137-.77.84-1.398 1.638-1.398h2c3.11 0 5.555-2.445 5.555-5.556 0-.107-.004-.213-.009-.319zM2.006 12.25c-.002.084-.006.166-.006.25 0 5.555 4.445 10 10 10 .889 0 1.667-.778 1.667-1.667 0-.107-.008-.205-.022-.3C13.54 21.335 12.821 22 12 22a9.954 9.954 0 0 1-9.994-9.75z"/></svg>