<svg height="24" width="24" xmlns="http://www.w3.org/2000/svg"><path d="m3.538 2.5h16.924c.85 0 1.538.68 1.538 1.52v15.96c0 .84-.689 1.52-1.538 1.52h-16.924a1.53 1.53 0 0 1 -1.538-1.52v-15.96c0-.84.689-1.52 1.538-1.52zm0 0" opacity=".2"/><path d="m3.538 2h16.924c.85 0 1.538.68 1.538 1.52v15.96c0 .84-.689 1.52-1.538 1.52h-16.924a1.53 1.53 0 0 1 -1.538-1.52v-15.96c0-.84.689-1.52 1.538-1.52zm0 0" fill="#ff7800"/><path d="m11.257 6.614-2.25 6.658a.194.194 0 0 0 .02.155c.03.034.058.075.138.083l1.577-.008c.054 0 .101.025.121.076a.267.267 0 0 1 0 .152l-1.367 4.556c-.01.04-.024.133.07.196.06.037.18.017.254-.059l5.15-6.487a.252.252 0 0 0 .017-.197.19.19 0 0 0 -.163-.117l-2.404-.093c-.07-.014-.093-.048-.113-.075a.171.171 0 0 1 -.007-.163l1.969-4.599c.026-.058.026-.099.01-.13-.014-.027-.057-.062-.133-.062h-2.686c-.037 0-.164.014-.204.114z" opacity=".2"/><g fill="#f4f4f7"><path d="m11.257 6.114-2.25 6.658a.194.194 0 0 0 .02.155c.03.034.058.075.138.083l1.577-.008c.054 0 .101.025.121.076a.267.267 0 0 1 0 .152l-1.367 4.556c-.01.04-.024.133.07.196.06.037.18.017.254-.059l5.15-6.487a.252.252 0 0 0 .017-.196.19.19 0 0 0 -.163-.118l-2.404-.093c-.07-.014-.093-.048-.113-.075a.171.171 0 0 1 -.007-.163l1.969-4.599c.026-.058.026-.099.01-.13-.014-.027-.057-.062-.133-.062h-2.686c-.037 0-.164.014-.204.114z"/><path d="m3.538 2c-.85 0-1.538.68-1.538 1.52v.5c0-.84.688-1.52 1.538-1.52h16.924c.85 0 1.538.68 1.538 1.52v-.5c0-.84-.688-1.52-1.538-1.52z" opacity=".2"/></g></svg>