<svg height="24" width="24" xmlns="http://www.w3.org/2000/svg"><path d="m12 2.5v9.5h-9.975a10 10 0 0 0 -.025.5 10 10 0 0 0 10 10 10 10 0 0 0 10-10 10 10 0 0 0 -10-10z" opacity=".2"/><path d="m11.5 2a1.5 1.5 0 0 0 0 3c.216 0 .342-.01.5-.014v7.014h-7.014c.005-.158.014-.284.014-.5a1.5 1.5 0 0 0 -3 0c0 .216.01.342.014.5h-.014a10 10 0 0 0 10 10 10 10 0 0 0 10-10 10 10 0 0 0 -10-10v.014c-.158-.005-.284-.014-.5-.014z" fill="#4c91d9"/><circle cx="12" cy="12.5" opacity=".2" r="7"/><g fill="#f4f4f7"><circle cx="12" cy="12" r="7"/><path d="m11.5 2a1.5 1.5 0 0 0 -1.5 1.5c0 .086.012.168.025.25.12-.709.732-1.25 1.475-1.25.216 0 .342.01.5.014v-.014a10 10 0 0 1 9.99 9.793 10 10 0 0 0 .01-.293c0-5.523-4.477-10-10-10v.014c-.158-.005-.284-.014-.5-.014zm-8 8a1.5 1.5 0 0 0 -1.5 1.5c0 .17.007.276.012.395a1.494 1.494 0 0 1 1.488-1.395c.792 0 1.433.616 1.488 1.395.005-.119.012-.224.012-.395a1.5 1.5 0 0 0 -1.5-1.5zm1.5 2c0 .216-.01.342-.014.5z" opacity=".2"/></g></svg>