<svg xmlns="http://www.w3.org/2000/svg" width="24" height="24" version="1"><rect style="opacity:.2" width="20" height="20" x="2" y="2.5" rx="1" ry="1"/><rect style="fill:#44bb23" width="20" height="20" x="2" y="2" rx="1" ry="1"/><path style="opacity:.2" d="M15 2v20h6c.554 0 1-.446 1-1V3c0-.554-.446-1-1-1z"/><path style="opacity:.1" d="M9 2h6v20H9z"/><path style="opacity:.2" d="M22 15H2v6c0 .554.446 1 1 1h18c.554 0 1-.446 1-1z"/><path style="opacity:.1" transform="rotate(90)" d="M9-22h6v20H9z"/><path style="opacity:.1" d="M6 4.5a2 2 0 0 0-2 2 2 2 0 0 0 2 2 2 2 0 0 0 2-2 2 2 0 0 0-2-2zm6 0a2 2 0 0 0-2 2 2 2 0 0 0 2 2 2 2 0 0 0 2-2 2 2 0 0 0-2-2zm6 0a2 2 0 0 0-2 2 2 2 0 0 0 2 2 2 2 0 0 0 2-2 2 2 0 0 0-2-2zm-12 6a2 2 0 0 0-2 2 2 2 0 0 0 2 2 2 2 0 0 0 2-2 2 2 0 0 0-2-2zm6 0a2 2 0 0 0-2 2 2 2 0 0 0 2 2 2 2 0 0 0 2-2 2 2 0 0 0-2-2zm6 0a2 2 0 0 0-2 2 2 2 0 0 0 2 2 2 2 0 0 0 2-2 2 2 0 0 0-2-2zm-12 6a2 2 0 0 0-2 2 2 2 0 0 0 2 2 2 2 0 0 0 2-2 2 2 0 0 0-2-2zm6 0a2 2 0 0 0-2 2 2 2 0 0 0 2 2 2 2 0 0 0 2-2 2 2 0 0 0-2-2zm6 0a2 2 0 0 0-2 2 2 2 0 0 0 2 2 2 2 0 0 0 2-2 2 2 0 0 0-2-2z"/><circle style="fill:#f4f4f7" cx="12" cy="12" r="2"/><circle style="fill:#f4f4f7" cx="6" cy="12" r="2"/><circle style="fill:#17191e" cx="18" cy="12" r="2"/><circle style="fill:#f4f4f7" cx="12" cy="6" r="2"/><circle style="fill:#f4f4f7" cx="6" cy="6" r="2"/><circle style="fill:#f4f4f7" cx="18" cy="6" r="2"/><circle style="fill:#17191e" cx="12" cy="18" r="2"/><circle style="fill:#17191e" cx="6" cy="18" r="2"/><circle style="fill:#f4f4f7" cx="18" cy="18" r="2"/><path style="fill:#f4f4f7;opacity:.2" d="M3 2c-.554 0-1 .446-1 1v.5c0-.554.446-1 1-1h18c.554 0 1 .446 1 1V3c0-.554-.446-1-1-1H3z"/><path style="opacity:.1" d="M2 9h20v.5H2zM2 15h20v.5H2z"/></svg>