<svg xmlns="http://www.w3.org/2000/svg" width="24" height="24"><path style="fill:#936aff" d="M4 2h16c.554 0 1 .446 1 1v18c0 .554-.446 1-1 1H4c-.554 0-1-.446-1-1V3c0-.554.446-1 1-1z"/><path style="opacity:.2" d="M4 2c-.554 0-1 .446-1 1v18c0 .963 1 1 1 1h2V2z"/><path style="opacity:.2;fill:#f4f4f7" d="M4 2c-.554 0-1 .446-1 1v.5c0-.554.446-1 1-1h16c.554 0 1 .446 1 1V3c0-.554-.446-1-1-1z"/><path style="opacity:.2" d="M3 21v.5c0 .554.446 1 1 1h16c.554 0 1-.446 1-1V21c0 .554-.446 1-1 1H4c-.554 0-1-.446-1-1zM11.993 7.493a4 4 0 0 1 4 4 4 4 0 0 1-.559 2.027l2.266 2.265a1 1 0 1 1-1.414 1.415l-2.266-2.266a4 4 0 0 1-2.027.559 4 4 0 0 1-4-4 4 4 0 0 1 4-4zm0 2c-1.113 0-2 .888-2 2 0 1.111.887 2 2 2s2-.889 2-2c0-1.112-.887-2-2-2z"/><path style="fill:#f4f4f7" d="M11.993 6.993a4 4 0 0 1 4 4 4 4 0 0 1-.559 2.027l2.266 2.266a1 1 0 1 1-1.414 1.414l-2.266-2.266a4 4 0 0 1-2.027.559 4 4 0 0 1-4-4 4 4 0 0 1 4-4zm0 2c-1.113 0-2 .888-2 2 0 1.111.887 2 2 2s2-.889 2-2c0-1.112-.887-2-2-2z"/></svg>