<svg height="24" width="24" xmlns="http://www.w3.org/2000/svg">
    <rect height="20" opacity=".2" rx="1" width="20" x="2" y="2.5"/>
    <rect fill="#783535" height="20" rx="1" width="20" x="2" y="2"/>
    <path d="M6.509 6c-.068.8.278 2.3.25 2.567.02.365.353.462.353.462l.41.01c.12-.567.293-.844.618-1.04H10v11.038l-.998-.025-.032-1-.687-.015L8 20h5.787l.703-.68c-.473-.157-1.29-.298-1.49-1.226V7h3.155c.107.111-.486.683-.38.783.47.447.82.756 1.225.745V6z" opacity=".2"/>
    <path d="M6.509 5c-.068.8.278 2.3.25 2.567.02.365.353.462.353.462l.41.01c.12-.567.293-.844.618-1.04H10v11.038l-.998-.025-.032-1-.687-.015L8 19h5.787l.703-.68c-.473-.157-1.29-.298-1.49-1.226V6h3.155c.107.111-.486.683-.38.783.47.447.82.756 1.225.745V5z" fill="#f1e9de"/>
    <path d="M3 2c-.554 0-1 .446-1 1v.5c0-.554.446-1 1-1h18c.554 0 1 .446 1 1V3c0-.554-.446-1-1-1z" fill="#f4f4f7" opacity=".1"/>
</svg>
