<svg height="24" width="24" xmlns="http://www.w3.org/2000/svg">
    <rect fill="#642c68" height="20" rx="1" width="20" x="2" y="2"/>
    <path d="M3 2c-.554 0-1 .446-1 1v.5c0-.554.446-1 1-1h18c.554 0 1 .446 1 1V3c0-.554-.446-1-1-1z" fill="#f4f4f7" opacity=".1"/>
    <path d="M3 22.5c-.554 0-1-.446-1-1V21c0 .554.446 1 1 1h18c.554 0 1-.446 1-1v.5c0 .554-.446 1-1 1z" opacity=".2"/>
    <path d="M3 3.5v2h2v-2zm16 0v2h2v-2zm-16 4v2h2v-2zm16 0v2h2v-2zm-16 4v2h2v-2zm16 0v2h2v-2zm-16 4v2h2v-2zm16 0v2h2v-2zm-16 4v2h2v-2zm16 0v2h2v-2z" opacity=".2"/>
    <path d="M3 3v2h2V3zm16 0v2h2V3zM3 7v2h2V7zm16 0v2h2V7zM3 11v2h2v-2zm16 0v2h2v-2zM3 15v2h2v-2zm16 0v2h2v-2zM3 19v2h2v-2zm16 0v2h2v-2z" fill="#f4f4f7"/>
    <path d="M7 4.5h10v7H7z" opacity=".2"/>
    <path d="M7 4h10v7H7z" fill="#f4f4f7"/>
    <path d="M7 13.5h10v7H7z" opacity=".2"/>
    <path d="M7 13h10v7H7z" fill="#f4f4f7"/>
    <circle cx="18" cy="17.5" opacity=".2" r="6"/>
    <circle cx="18" cy="17" fill="#96be4e" r="6"/>
    <path d="M16.154 14a1.154 1.154 0 0 0 0 2.308c.206 0 .395-.065.563-.159l.908.851-.908.851a1.142 1.142 0 0 0-.563-.159 1.154 1.154 0 1 0 1.11.851l.981-.952 2.063 1.947H21v-.462l-3.735-3.62A1.154 1.154 0 0 0 16.155 14zm0 .692a.462.462 0 1 1 0 .923.462.462 0 0 1 0-.923zm4.154-.23-1.818 1.716.606.591L21 14.923v-.461zm-4.154 3.923a.462.462 0 1 1 0 .923.462.462 0 0 1 0-.923z" fill="#f4f4f7"/>
</svg>
