<svg xmlns="http://www.w3.org/2000/svg" width="24" height="24" version="1"><rect style="fill:#8e8e8e" width="20" height="20" x="2" y="2" rx="1" ry="1"/><path style="opacity:.2;fill:none;stroke:#000;stroke-width:2;stroke-linecap:round;stroke-linejoin:round" d="m5.01 6.5 3.5 4 3.5-4"/><path style="opacity:.2;fill:#f4f4f7" d="M3 2c-.554 0-1 .446-1 1v.5c0-.554.446-1 1-1h18c.554 0 1 .446 1 1V3c0-.554-.446-1-1-1H3z"/><path style="opacity:.2" d="M3 22.5c-.554 0-1-.446-1-1V21c0 .554.446 1 1 1h18c.554 0 1-.446 1-1v.5c0 .554-.446 1-1 1H3z"/><path style="fill:none;stroke:#17191e;stroke-width:2;stroke-linecap:round;stroke-linejoin:round" d="m5.01 6 3.5 4 3.5-4"/><path style="opacity:.2;fill:none;stroke:#000;stroke-width:2;stroke-linecap:round;stroke-linejoin:round" d="m19.01 10.5-3.5-4.01-3.5 4.01"/><path style="fill:none;stroke:#17191e;stroke-width:2;stroke-linecap:round;stroke-linejoin:round" d="m19.01 10-3.5-4.01-3.5 4.01"/><path style="opacity:.2;fill:none;stroke:#000;stroke-width:2;stroke-linecap:round;stroke-linejoin:round" d="M19.01 18.49 15.5 14.5l-3.49 3.99"/><path style="fill:none;stroke:#17191e;stroke-width:2;stroke-linecap:round;stroke-linejoin:round" d="M19.01 17.99 15.5 14l-3.49 3.99"/><path style="opacity:.2;fill:none;stroke:#000;stroke-width:2;stroke-linecap:round;stroke-linejoin:round" d="M5 13.5v5h4.5"/><path style="fill:none;stroke:#17191e;stroke-width:2;stroke-linecap:round;stroke-linejoin:round" d="M5 13v5h4.5"/></svg>