<svg height="24" width="24" xmlns="http://www.w3.org/2000/svg">
    <g transform="translate(1 1)">
        <rect height="20" opacity=".2" ry="1" width="20" x="1" y="1.5"/>
        <rect fill="#4f4f4f" height="20" ry="1" width="20" x="1" y="1"/>
        <path d="M3 6.5v10l3-3h3v3l-3 3h10l-3-3v-3h3l3 3v-10l-3 3h-3v-3l3-3H6l3 3v3H6z" opacity=".2"/>
        <path d="M3 6v10l3-3h3v3l-3 3h10l-3-3v-3h3l3 3V6l-3 3h-3V6l3-3H6l3 3v3H6z" fill="#fae214"/>
        <g fill="#f4f4f7">
            <path d="M2 1c-.554 0-1 .446-1 1v.5c0-.554.446-1 1-1h18c.554 0 1 .446 1 1V2c0-.554-.446-1-1-1z" opacity=".1"/>
            <path d="m6 3 .5.5h9L16 3zM3 6v.5l3 3h3V9H6zm16 0-3 3h-3v.5h3l3-3zM9 16l-3 3h.5L9 16.5zm4 0v.5l2.5 2.5h.5z" opacity=".2"/>
        </g>
    </g>
</svg>
