<svg height="24" width="24" xmlns="http://www.w3.org/2000/svg">
    <path d="M22 12a10 10 0 0 1-10 10A10 10 0 0 1 2 12 10 10 0 0 1 12 2a10 10 0 0 1 10 10z" fill="#4f4f4f"/>
    <path d="M12 2A10 10 0 0 0 2 12a10 10 0 0 0 .01.291A10 10 0 0 1 12 2.5a10 10 0 0 1 9.989 9.709 10 10 0 0 0 .01-.209A10 10 0 0 0 12 2z" fill="#f4f4f7" opacity=".1"/>
    <path d="M21.99 12.209A10 10 0 0 1 12 22a10 10 0 0 1-9.989-9.709A10 10 0 0 0 2 12.5a10 10 0 0 0 10 10 10 10 0 0 0 10-10 10 10 0 0 0-.01-.291z" opacity=".2"/>
    <path d="M12 5c-3.86 0-7 3.14-7 7s3.14 7 7 7 7-3.14 7-7-3.14-7-7-7zm0 1.074A5.917 5.917 0 0 1 17.926 12 5.917 5.917 0 0 1 12 17.926 5.917 5.917 0 0 1 6.074 12a5.917 5.917 0 0 1 3.664-5.479c-.123.11-.25.235-.38.377-.231.25-.446.512-.563.73a3.972 3.972 0 0 0-.418 1.692" fill="#f4f4f7"/>
</svg>
