<svg height="24" width="24" xmlns="http://www.w3.org/2000/svg"><rect fill="#70ae39" height="20" rx="1" width="20" x="2" y="2"/><path d="m6.781 8.5-1.781 6h.736l1.764-6zm.719 0 1.764 6h.736l-1.781-6zm6.781 0-1.781 6h.736l1.764-6zm3.977 1c-.012.02-.024.22-.035.426a9.145 9.145 0 0 0 -.018.435h-.01a1.441 1.441 0 0 0 -.568-.623 1.627 1.627 0 0 0 -.863-.222c-.594 0-1.038.191-1.33.574-.29.38-.434.97-.434 1.771 0 .79.135 1.722.404 2.09.272.369.698.551 1.274.551.344 0 .644-.072.902-.217a1.54 1.54 0 0 0 .608-.658h.01v.73c0 .88-.39 1.569-1.169 1.569-.29 0-.525-.056-.705-.17a.767.767 0 0 1 -.342-.483l-.787.11c.087.357.284.631.588.824.304.195.712.293 1.225.293 1.311 0 1.992-.887 1.992-2.16v-4.84zm-1.297.445c.201 0 .38.075.537.223.16.145.284.356.371.635.087.275.131.605.131.988 0 .374-.044 1.044-.13 1.316-.088.27-.212.476-.372.622a.793.793 0 0 1 -.549.216c-.346 0-.591-.14-.734-.422-.143-.281-.215-1.088-.215-1.732 0-.65.076-1.12.229-1.41.152-.29.397-.436.732-.436zm-5.961 3.555v1h1v-1z" opacity=".2"/><path d="m3 2c-.554 0-1 .446-1 1v.5c0-.554.446-1 1-1h18c.554 0 1 .446 1 1v-.5c0-.554-.446-1-1-1z" fill="#f4f4f7" opacity=".2"/><path d="m3 22.5c-.554 0-1-.446-1-1v-.5c0 .554.446 1 1 1h18c.554 0 1-.446 1-1v.5c0 .554-.446 1-1 1z" opacity=".2"/><path d="m6.78 8-1.78 6h.736l1.764-6z" fill="#17191e"/><path d="m11 14v-1h1v1z" fill="#f4f4f7"/><path d="m14.28 8-1.78 6h.736l1.764-6zm3.978 1c-.012.02-.024.22-.035.427a9.145 9.145 0 0 0 -.018.435h-.009" fill="#17191e"/><path d="m8.22 8 1.78 6h-.736l-1.764-6z" fill="#f4f4f7"/></svg>