<svg height="24" width="24" xmlns="http://www.w3.org/2000/svg"><circle cx="12" cy="12.5" opacity=".2" r="10"/><circle cx="12" cy="12" fill="#b864e6" r="10"/><path d="m12 2a10 10 0 0 0 -10 10 10 10 0 0 0 .01.293 10 10 0 0 1 9.99-9.793 10 10 0 0 1 9.99 9.707 10 10 0 0 0 .01-.207 10 10 0 0 0 -10-10z" fill="#f4f4f7" opacity=".2"/><path d="m7.691 4.1a9 9 0 0 0 -4.691 7.9h5a4 4 0 0 1 2.086-3.508zm8.309 7.9a4 4 0 0 1 -2.086 3.508l2.396 4.392a9 9 0 0 0 4.69-7.9z" fill="#d69def"/><circle cx="12" cy="12.5" opacity=".1" r="3"/><circle cx="12" cy="12" fill="#4f4f4f" r="3"/><circle cx="12" cy="12" fill="#f4f4f7" r="1"/></svg>