<svg height="24" width="24" xmlns="http://www.w3.org/2000/svg">
    <rect height="20" opacity=".2" rx="1.477" ry="1.451" width="16" x="4" y="2.5"/>
    <rect fill="#f4f4f7" height="20" rx="1.477" ry="1.451" width="16" x="4" y="2"/>
    <path d="M6 4v9h12V4zm0 10v4h4v-1h8v-3z" opacity=".15"/>
    <path d="M7 5.5v1h9v-1zm4 2v1h6v-1zm-4 2v1h3v-1z" opacity=".1"/>
    <path d="M7 5h9v1H7zm0 4h3v1H7zm4-2h6v1h-6z" fill="#8ff0a4"/>
    <path d="m9.955 9.446-.505 1.515.505.505.505 2.525.505.506 3.536 3.535 2.258 2.258c.28.28.73.28 1.01 0l2.02-2.02c.28-.28.28-.73 0-1.01l-2.258-2.258-3.535-3.536-.505-.505-2.526-.505z" opacity=".1"/>
    <path d="m13.49 10.461-.503.504-.002.001-2.02 2.02-.001.002-.504.504.505.505 3.536 3.535 2.258 2.258c.28.28.73.28 1.01 0l2.02-2.02c.28-.28.28-.73 0-1.01l-2.258-2.258-3.535-3.536zM9.955 8.946l1.01 1.01-1.01 1.01-.505-.505z" fill="#33d17a"/>
    <path d="m9.955 10.966.505 2.525 3.03-3.03-2.525-.505z" fill="#3d3846"/>
    <path d="M5.478 2C4.659 2 4 2.647 4 3.451v.5C4 3.147 4.66 2.5 5.478 2.5h13.044c.819 0 1.478.647 1.478 1.451v-.5C20 2.647 19.34 2 18.522 2z" fill="#f4f4f7" opacity=".2"/>
</svg>
