<svg fill="none" height="24" width="24" xmlns="http://www.w3.org/2000/svg">
    <path d="M12.5 5.5C6.671 5.5 2.272 10.633 2 16.777a.7.692 0 0 0 .7.723h19.6a.7.692 0 0 0 .7-.723C22.727 10.633 18.328 5.5 12.5 5.5z" opacity=".2"/>
    <path d="M12.5 5C6.671 5 2.272 10.133 2 16.277a.7.692 0 0 0 .7.723h19.6a.7.692 0 0 0 .7-.723C22.727 10.133 18.328 5 12.5 5z" fill="#5d6d79"/>
    <path d="m12.88 17.82-1.185-1.347L17 13z" opacity=".2"/>
    <path d="m12.88 17.32-1.185-1.347L17 12.5z" fill="#e2900d"/>
    <path d="m17 12.5-5.306 3.474.28.317 4.055-2.655z" fill="#f4f4f7" opacity=".1"/>
    <circle cx="12.5" cy="17" opacity=".2" r="1.5"/>
    <circle cx="12.5" cy="16.5" fill="#ed274c" r="1.5"/>
    <path d="M12.5 5C6.671 5 2.272 10.133 2.001 16.277a.7.692 0 0 0 .024.215C2.42 10.476 6.762 5.5 12.5 5.5s10.081 4.976 10.475 10.992a.7.692 0 0 0 .024-.215C22.728 10.133 18.329 5 12.5 5z" fill="#f4f4f7" opacity=".1"/>
    <path d="M12.5 15a1.5 1.5 0 0 0-1.5 1.5 1.5 1.5 0 0 0 .021.257A1.5 1.5 0 0 1 12.5 15.5a1.5 1.5 0 0 1 1.479 1.243A1.5 1.5 0 0 0 14 16.5a1.5 1.5 0 0 0-1.5-1.5z" fill="#f4f4f7" opacity=".2"/>
    <g stroke-linecap="round">
        <path d="M12.5 6.993v1m9 8h-1m-16 0h-1m2.072-4-.866-.5m14.722.5.866-.5M16.5 9.065l.5-.866m-8.5.866L8 8.199" opacity=".2" stroke="#000"/>
        <path d="M12.5 6.493v1m9 8h-1m-16 0h-1m2.072-4-.866-.5m14.722.5.866-.5M16.5 8.565l.5-.866m-8.5.866L8 7.699" stroke="#f4f4f7"/>
    </g>
</svg>
