<svg xmlns="http://www.w3.org/2000/svg" width="24" height="24" version="1"><rect style="fill:#8e8e8e" width="16" height="12" x="-21" y="-18" rx="1" ry="1" transform="matrix(0 -1 -1 0 0 0)"/><rect style="fill:#8b9cbe" width="16" height="20" x="-19" y="-22" rx="1" ry="1" transform="matrix(0 -1 -1 0 0 0)"/><rect style="fill:#dc4f47" width="12" height="16" x="-17" y="-20" rx="0" ry="0" transform="matrix(0 -1 -1 0 0 0)"/><path style="opacity:.1;fill:#f4f4f7" d="M3 3c-.554 0-1 .446-1 1v.5c0-.554.446-1 1-1h18c.554 0 1 .446 1 1V4c0-.554-.446-1-1-1z"/><path style="opacity:.2" d="M6 20v.5c0 .554.446 1 1 1h10c.554 0 1-.446 1-1V20c0 .554-.446 1-1 1H7c-.554 0-1-.446-1-1zM2 18v.5c0 .554.446 1 1 1h18c.554 0 1-.446 1-1V18c0 .554-.446 1-1 1H3c-.554 0-1-.446-1-1z"/><circle style="opacity:.2" cx="12" cy="11.5" r="2"/><circle style="fill:#f4f4f7" cx="12" cy="11" r="2"/><path style="opacity:.2" d="M7 6.5c-1.108 0-2 .892-2 2h1c0-.571.429-1 1-1zm2 0v1h2v-1zm4 0v1h2v-1zm4 0v1c.571 0 1 .429 1 1h1c0-1.108-.892-2-2-2zm-12 4v2h1v-2zm13 0v2h1v-2zm-13 4c0 1.108.892 2 2 2v-1c-.571 0-1-.429-1-1zm13 0c0 .571-.429 1-1 1v1c1.108 0 2-.892 2-2zm-9 1v1h2v-1zm4 0v1h2v-1z"/><path style="fill:#f4f4f7" d="M7 6c-1.108 0-2 .892-2 2h1c0-.571.429-1 1-1V6zm2 0v1h2V6H9zm4 0v1h2V6h-2zm4 0v1c.571 0 1 .429 1 1h1c0-1.108-.892-2-2-2zM5 10v2h1v-2H5zm13 0v2h1v-2h-1zM5 14c0 1.108.892 2 2 2v-1c-.571 0-1-.429-1-1H5zm13 0c0 .571-.429 1-1 1v1c1.108 0 2-.892 2-2h-1zm-9 1v1h2v-1H9zm4 0v1h2v-1h-2z"/></svg>