<svg height="24" width="24" xmlns="http://www.w3.org/2000/svg">
    <rect height="20" opacity=".2" rx="6" width="20" x="2" y="2.5"/>
    <rect fill="#1e3d47" height="20" rx="6" width="20" x="2" y="2"/>
    <path d="M8 2C4.676 2 2 4.676 2 8v.5c0-3.324 2.676-6 6-6h8c3.324 0 6 2.676 6 6V8c0-3.324-2.676-6-6-6z" fill="#f4f4f7" opacity=".1"/>
    <path d="M12 7.5a5 5 0 0 0-5 5 5 5 0 0 0 5 5 5 5 0 0 0 4.253-2.383l-4.003-2.572 4.01-2.655A5 5 0 0 0 12 7.5z" opacity=".2"/>
    <path d="M12 7a5 5 0 0 0-5 5 5 5 0 0 0 5 5 5 5 0 0 0 4.253-2.383l-4.003-2.572 4.01-2.655A5 5 0 0 0 12 7z" fill="#ffcc2c"/>
    <circle cx="17" cy="12.5" opacity=".2" r="1"/>
    <circle cx="17" cy="12" fill="#f26522" r="1"/>
    <path d="M12 7a5 5 0 0 0-5 5 5 5 0 0 0 .01.207A5 5 0 0 1 12 7.5a5 5 0 0 1 4.024 2.045l.236-.155A5 5 0 0 0 12 7zm.633 5.291-.383.254 3.764 2.418a5 5 0 0 0 .239-.346zM17 11a1 1 0 0 0-1 1 1 1 0 0 0 .032.252A1 1 0 0 1 17 11.5a1 1 0 0 1 .968.748A1 1 0 0 0 18 12a1 1 0 0 0-1-1z" fill="#f4f4f7" opacity=".2"/>
</svg>
