<svg height="24" width="24" xmlns="http://www.w3.org/2000/svg">
    <path d="m8 17.5 3 1 1 4 1-4 3-1v-1h-3v-14h-2v14H8z" opacity=".2"/>
    <path d="m8 17 3 1 1 4 1-4 3-1v-1h-3V2h-2v14H8z" fill="#b2b2b2"/>
    <path d="M8 17h8V6H8z" fill="#d33e33"/>
    <path d="M10.5 2.5a.5.5 0 1 0 0 1h3a.5.5 0 1 0 0-1z" opacity=".2"/>
    <path d="M10.5 2a.5.5 0 1 0 0 1h3a.5.5 0 1 0 0-1z" fill="#f4f4f7"/>
    <path d="M10 15.5h1l1-1 1 1h1l-2-2z" opacity=".1"/>
    <path d="M10 15h1l1-1 1 1h1l-2-2z" fill="#17191e"/>
    <path d="M13 9.5h1v3h-1z" opacity=".1"/>
    <path d="M13 9h1v3h-1z" fill="#17191e"/>
    <path d="M7.5 6.5a.5.5 0 1 0 0 1h9a.5.5 0 1 0 0-1z" opacity=".2"/>
    <g fill="#f4f4f7">
        <path d="M7.5 6a.5.5 0 1 0 0 1h9a.5.5 0 1 0 0-1z"/>
        <path d="M10.5 2a.5.5 0 0 0-.44.75.5.5 0 0 1 .44-.25h3a.5.5 0 0 1 .44.25.5.5 0 0 0-.44-.75zm-3 4a.5.5 0 0 0-.44.75.5.5 0 0 1 .44-.25h9a.5.5 0 0 1 .44.25.5.5 0 0 0-.44-.75z" opacity=".2"/>
    </g>
</svg>
