<svg xmlns="http://www.w3.org/2000/svg" width="24" height="24" xml:space="preserve"><circle style="opacity:.2" cx="12" cy="12.5" r="10"/><circle style="fill:#f4f4f7" cx="12" cy="12" r="10"/><path style="opacity:.1" d="M15.97 10.004c.047.425-.035.868.013 1.3.05.47-.015.964-.1 1.427-.01-.376-.02-.756-.04-1.124-.02-.387-.174-.785-.279-1.163.112.795.162 1.6.182 2.398.015.617.017 1.258-.085 1.86-.1.586-.406 1.175-.597 1.72-.284.804-.195 1.88-.262 2.765 0 0-.067.154-.182-.596a19.09 19.09 0 0 1-.22-3.157v-.024l-.002-.035s-.033.094-.038.122a.35.35 0 0 0-.007.044v.003a.943.943 0 0 0-.008.044c-.002.01-.002.018-.005.028l-.01.06a14.93 14.93 0 0 1-.065.338c-.121.583-.86.847-.942 1.436-.003.013-1.123.104-.005.035-.067.407-.104.548-.355.834-.267.303-.098-.186-.46.028.346.09.016-.01 0 0-.482.328.99-.297.485-.023-.035.02.253-.281-.025-.005.919-.403-.567.837-.55.817.13-.14-.084.156 0 0 .7-.971-.002.005 0 0 .28-.567-.16-.205.09-.789 0 0-.069.105-.156.229a9.1 9.1 0 0 1-.314.415c-.473.571-.807 1.402-1.302 1.946-.18.196-.486.27-.688.462-.189.179-.46.296-.707.338-.398.067-.822.31-1.228.46 0 0 .24-.286.414-.512.363-.477.7-.98 1.006-1.499a1.378 1.378 0 0 0-.349.465c-.234.514-.819.9-1.225 1.297-.299.294-.72.465-1.125.552a10.31 10.31 0 0 1-2.047-.266c-.553-.14-1.562-.46-1.763-.84-.028-.055-.04-.273.074-.482.2-.363.6-.664.844-1.017.459-.668 1.114-1.682 1.774-2.077.366-.219.856-.35 1.284-.525.197-.067.292-.101.486-.174-.483.107-.949.289-1.41.463 0 0 .003.005.25-.323.274-.363.635-.664.953-.982.56-.56 1.925-1.464 1.925-1.464s-.724.433-1.103.438c-.229.002-.453.136-.642.256.234-.264.485-.52.727-.773.488-.517 1.158-.888 1.755-1.275-.296.062-.625.032-.921-.013a9.424 9.424 0 0 0 1.581-1.213c1.158-1.135 1.729-2.8 2.625-4.115.41-.602.979-1.126 1.524-1.618 0 0 .364.055.418.263.135.52.364 1.037.54 1.554.185.53.205 1.13.267 1.687z"/><path style="opacity:.2;fill:#f4f4f7" d="M12 2A10 10 0 0 0 2 12a10 10 0 0 0 .01.291A10 10 0 0 1 12 2.5a10 10 0 0 1 9.99 9.709A10 10 0 0 0 22 12 10 10 0 0 0 12 2z"/><path style="fill:#17191e" d="M15.97 9.504c.047.425-.035.868.013 1.3.05.47-.015.964-.1 1.427-.01-.376-.02-.756-.04-1.124-.02-.387-.174-.785-.279-1.163.112.795.162 1.6.182 2.398.015.617.017 1.258-.085 1.86-.1.586-.406 1.175-.597 1.72-.284.804-.195 1.88-.262 2.765 0 0-.067.154-.182-.596a19.09 19.09 0 0 1-.22-3.157v-.024l-.002-.035s-.033.094-.038.122a.35.35 0 0 0-.007.044v.003a.943.943 0 0 0-.008.044c-.002.01-.002.018-.005.028l-.01.06a14.93 14.93 0 0 1-.065.338c-.121.583-.86.847-.942 1.436-.003.013-1.123.104-.005.035-.067.407-.104.548-.355.834-.267.303-.098-.186-.46.028.346.09.016-.01 0 0-.482.328.99-.297.485-.023-.035.02.253-.281-.025-.005.919-.403-.567.837-.55.817.13-.14-.084.156 0 0 .7-.971-.002.005 0 0 .28-.567-.16-.205.09-.789 0 0-.069.105-.156.229a9.1 9.1 0 0 1-.314.415c-.473.571-.807 1.402-1.302 1.946-.18.196-.486.27-.688.462-.189.179-.46.296-.707.338-.398.067-.822.31-1.228.46 0 0 .24-.286.414-.512.363-.477.7-.98 1.006-1.499a1.378 1.378 0 0 0-.349.465c-.234.514-.819.9-1.225 1.297-.299.294-.72.465-1.125.552a10.31 10.31 0 0 1-2.047-.266c-.553-.14-1.562-.46-1.763-.84-.028-.055-.04-.273.074-.482.2-.363.6-.664.844-1.017.459-.668 1.114-1.682 1.774-2.077.366-.219.856-.35 1.284-.525.197-.067.292-.101.486-.174-.483.107-.949.289-1.41.463 0 0 .003.005.25-.323.274-.363.635-.664.953-.982.56-.56 1.925-1.464 1.925-1.464s-.724.433-1.103.438c-.229.002-.453.136-.642.256.234-.264.485-.52.727-.773.488-.517 1.158-.888 1.755-1.275-.296.062-.625.032-.921-.013a9.424 9.424 0 0 0 1.581-1.213c1.158-1.135 1.729-2.8 2.625-4.115.41-.602.979-1.126 1.524-1.618 0 0 .364.055.418.263.135.52.364 1.037.54 1.554.185.53.205 1.13.267 1.687z"/><path style="opacity:.1" d="M13.993 12.277c-.068.025.307 1.406.427 2.032.058.3.1.61.07.915 0 0-.033.095-.038.122a.324.324 0 0 0-.008.045v.003l-.008.044c-.002.01-.002.018-.005.028-.003.017-.008.04-.01.06a25.662 25.662 0 0 0-.373 2.11c-.003.012-.003.022-.005.034-.07.41-.204.584-.467.87-.279.305-.615.686-.993.9-.01.008-.026.016-.041.026-.506.329-.975.745-1.504 1.02-.037.02-.05.02-.026-.005l.055-.058a2.31 2.31 0 0 0 .354-.451l.008-.015c.292-.569.555-1.165.818-1.75.013-.023.018-.036.029-.058a.652.652 0 0 0 .057-.165c.151-.755.313-1.633.138-2.388-.156-.671-.167-.507-.167-.507-.039.325-.101.651-.195.963-.073.237-.206.8b9cbe-.224.566-.05.322.086.65.094.67a1.172 1.172 0 0 1-.151-.483c-.03-.307.164-.638.234-.92.115-.456-.115-1.115-.013-1.446.263-.876 1.295-2.227 1.715-3.44.219.65.388 1.355.623 1.958.02.055.028.073.007.048-.11-.242-.401-.728-.401-.728z"/><path style="fill:#41d8b9cbe" d="M13.993 11.777c-.068.025.307 1.406.427 2.032.058.3.1.61.07.915 0 0-.033.095-.038.122a.324.324 0 0 0-.008.045v.003l-.008.045c-.002.01-.002.017-.005.027-.003.018-.008.04-.01.06a25.662 25.662 0 0 0-.373 2.11c-.003.012-.003.022-.005.034-.07.41-.204.584-.467.87-.279.305-.615.686-.993.9-.01.008-.026.016-.041.026-.506.329-.975.745-1.504 1.02-.037.02-.05.02-.026-.005l.055-.058a2.31 2.31 0 0 0 .354-.451l.008-.015c.292-.569.555-1.164.818-1.75.013-.023.018-.035.029-.058a.652.652 0 0 0 .057-.164c.151-.756.313-1.634.138-2.39-.156-.67-.167-.505-.167-.505-.039.324-.101.65-.195.962-.073.237-.206.8b9cbe-.224.566-.05.322.086.65.094.67a1.172 1.172 0 0 1-.151-.483c-.03-.307.164-.638.234-.92.115-.456-.115-1.115-.013-1.446.263-.876 1.295-2.227 1.715-3.439.219.648.388 1.354.623 1.957.02.055.028.073.007.048-.11-.242-.401-.728-.401-.728z"/><path style="opacity:.2" d="M14.685 2c.396 1.464.404 2.968.336 4.461-.076 1.625-.69 3.331-1.219 4.866-.558 1.617-1.451 2.985-2.291 4.45-.772 1.346-1.996 2.481-3.2 3.438a12.432 12.432 0 0 1-3.46 1.928c-.388.141-.822.191-1.234.204-.302.008-.52-.01-.53-.01.894-.187 1.8-.457 2.592-.913 2.198-1.27 4.267-3.006 5.557-5.221.82-1.406 1.594-2.786 2.134-4.33.498-1.429 1.04-2.925 1.189-4.434.114-1.154.109-2.334-.098-3.48.07-.24.1-.361.154-.6.03-.147.045-.218.07-.359z"/><path style="fill:#666" d="M14.685 1.5c.396 1.464.404 2.968.336 4.461-.076 1.626-.69 3.331-1.219 4.866-.558 1.617-1.451 2.985-2.291 4.45-.772 1.346-1.996 2.481-3.2 3.438a12.432 12.432 0 0 1-3.46 1.928c-.388.141-.822.192-1.234.204-.302.008-.52-.01-.53-.01.894-.187 1.8-.457 2.592-.913 2.198-1.27 4.267-3.006 5.557-5.221.82-1.406 1.594-2.786 2.134-4.33.498-1.429 1.04-2.925 1.189-4.434.114-1.153.109-2.334-.098-3.48.07-.24.1-.36.154-.6.03-.147.045-.218.07-.359z"/></svg>