<svg xmlns="http://www.w3.org/2000/svg" width="24" height="24"><circle style="opacity:.2" cx="12" cy="12.5" r="10"/><circle style="fill:#ffeb3b" cx="12" cy="12" r="10"/><path style="opacity:.2;fill:#f4f4f7" d="M12 2A10 10 0 0 0 2 12a10 10 0 0 0 .01.291A10 10 0 0 1 12 2.5a10 10 0 0 1 9.99 9.709A10 10 0 0 0 22 12 10 10 0 0 0 12 2z"/><path style="opacity:.1" d="M12 4.5a8 8 0 0 0-8 8 8 8 0 0 0 8 8 8 8 0 0 0 5.654-2.346l-.707-.707A7 7 0 0 1 12 19.5a7 7 0 0 1-7-7 7 7 0 0 1 7-7 7 7 0 0 1 4.947 2.053l.707-.707A8 8 0 0 0 12 4.5zm0 2a6 6 0 0 0-6 6 6 6 0 0 0 6 6 6 6 0 0 0 4.24-1.76l-.707-.707A5 5 0 0 1 12 17.5a5 5 0 0 1-5-5 5 5 0 0 1 5-5 5 5 0 0 1 3.533 1.467l.707-.707A6 6 0 0 0 12 6.5zm0 2a4 4 0 0 0-4 4 4 4 0 0 0 4 4 4 4 0 0 0 2.826-1.174l-.707-.707A3 3 0 0 1 12 15.5a3 3 0 0 1-3-3 3 3 0 0 1 3-3 3 3 0 0 1 2.12.88l.706-.706A4 4 0 0 0 12 8.5z"/><path style="fill:#424242" d="M12 4a8 8 0 0 0-8 8 8 8 0 0 0 8 8 8 8 0 0 0 5.654-2.346l-.707-.707A7 7 0 0 1 12 19a7 7 0 0 1-7-7 7 7 0 0 1 7-7 7 7 0 0 1 4.947 2.053l.707-.707A8 8 0 0 0 12 4zm0 2a6 6 0 0 0-6 6 6 6 0 0 0 6 6 6 6 0 0 0 4.24-1.76l-.707-.707A5 5 0 0 1 12 17a5 5 0 0 1-5-5 5 5 0 0 1 5-5 5 5 0 0 1 3.533 1.467l.707-.707A6 6 0 0 0 12 6zm0 2a4 4 0 0 0-4 4 4 4 0 0 0 4 4 4 4 0 0 0 2.826-1.174l-.707-.707A3 3 0 0 1 12 15a3 3 0 0 1-3-3 3 3 0 0 1 3-3 3 3 0 0 1 2.12.88l.706-.706A4 4 0 0 0 12 8z"/></svg>