<svg height="24" width="24" xmlns="http://www.w3.org/2000/svg"><rect height="15" opacity=".2" rx="1.5" width="20" x="2" y="7.5"/><rect fill="#807975" height="15" rx="1.5" width="20" x="2" y="7"/><path d="m3.454 7c-.806 0-1.454.637-1.454 1.429v.5c0-.792.648-1.429 1.454-1.429h17.092c.806 0 1.454.637 1.454 1.429v-.5c0-.792-.648-1.429-1.454-1.429z" fill="#f4f4f7" opacity=".1"/><path d="m4 9h16v11h-16z" fill="#fca526"/><path d="m4 9h11v.5h-11z" opacity=".1"/><rect fill="#f4f4f7" height="7" opacity=".6" rx=".789" ry=".7" width="7.5" x="10" y="10"/><rect fill="#f4f4f7" height="6" opacity=".6" rx=".7" ry=".75" width="7" x="5" y="13"/><rect fill="#f4f4f7" height="20" rx="1.5" width="9" x="13" y="2"/><path d="m16 12.5a1 1 0 0 0 -1 1 1 1 0 0 0 1 1 1 1 0 0 0 1-1 1 1 0 0 0 -1-1zm3 0a1 1 0 0 0 -1 1 1 1 0 0 0 1 1 1 1 0 0 0 1-1 1 1 0 0 0 -1-1zm-3 3a1 1 0 0 0 -1 1 1 1 0 0 0 1 1 1 1 0 0 0 1-1 1 1 0 0 0 -1-1zm3 0a1 1 0 0 0 -1 1 1 1 0 0 0 1 1 1 1 0 0 0 1-1 1 1 0 0 0 -1-1zm-3 3a1 1 0 0 0 -1 1 1 1 0 0 0 1 1 1 1 0 0 0 1-1 1 1 0 0 0 -1-1zm3 0a1 1 0 0 0 -1 1 1 1 0 0 0 1 1 1 1 0 0 0 1-1 1 1 0 0 0 -1-1z" opacity=".1"/><circle cx="17.5" cy="7" fill="#a9a8a4" r="3"/><circle cx="-7.5" cy="-17.5" opacity=".2" r="1.5" transform="matrix(0 -1 -1 0 0 0)"/><circle cx="-7" cy="-17.5" fill="#f9f8f7" r="1.5" transform="matrix(0 -1 -1 0 0 0)"/><circle cx="16" cy="13" fill="#f66151" r="1"/><g fill="#a9a8a4"><circle cx="19" cy="13" r="1"/><circle cx="16" cy="16" r="1"/><circle cx="19" cy="16" r="1"/><circle cx="16" cy="19" r="1"/><circle cx="19" cy="19" r="1"/></g><path d="m17.5 4a3 3 0 0 0 -3 3 3 3 0 0 0 .013.249 3 3 0 0 1 2.987-2.749 3 3 0 0 1 2.987 2.751 3 3 0 0 0 .013-.251 3 3 0 0 0 -3-3z" opacity=".1"/><path d="m14.5 2c-.831 0-1.5.669-1.5 1.5v.5c0-.831.669-1.5 1.5-1.5h6c.831 0 1.5.669 1.5 1.5v-.5c0-.831-.669-1.5-1.5-1.5z" fill="#f4f4f7" opacity=".2"/></svg>