<svg xmlns="http://www.w3.org/2000/svg" width="24" height="24" version="1">
    <rect style="opacity:.2" width="17.149" height="17.149" x="-8.93" y="8.75" rx="5.145" ry="5.145" transform="rotate(-45)"/>
    <rect style="fill:#4f4f4f" width="17.149" height="17.149" x="-8.57" y="8.4" rx="5.145" ry="5.145" transform="rotate(-45)"/>
    <path style="opacity:.2;fill-rule:evenodd" d="M9 6.5v6l3.375-2.25 3.375 2.25L9 17v1.5l9-6-4.5-3z"/>
    <path style="fill:#79ce24;fill-rule:evenodd" d="M9 6v6l3.375-2.25L15.75 12 9 16.5V18l9-6-4.5-3z"/>
    <path style="opacity:.1;fill:#f4f4f7" d="M12 2c-1.315 0-2.63.504-3.638 1.512l-4.85 4.85a5.123 5.123 0 0 0-1.5 3.888 5.122 5.122 0 0 1 1.5-3.388l4.85-4.85a5.133 5.133 0 0 1 7.276 0l4.85 4.85a5.122 5.122 0 0 1 1.5 3.388 5.123 5.123 0 0 0-1.5-3.888l-4.85-4.85A5.128 5.128 0 0 0 12 2z"/>
    <path style="opacity:.2;fill:#f4f4f7;fill-rule:evenodd" d="M9 6v.5l4.5 3 4.125 2.75L18 12l-4.5-3zm6.375 6.25L9 16.5v.5l6.75-4.5z"/>
</svg>
