<svg xmlns="http://www.w3.org/2000/svg" width="24" height="24"><circle style="opacity:.2" cx="12" cy="12.5" r="10"/><circle style="fill:#03e9f8" cx="12" cy="12" r="10"/><path style="opacity:.2" d="M11.507 5.5a3.61 3.61 0 0 0-.277.04c-1.881.299-3.242 1.596-3.647 3.476a5.394 5.394 0 0 0-.06 1.42c.039.314.138.755.173.776.013.008.139.033.278.057.613.103 1.293.323 1.647.532.094.055.269.196.387.312.668.657.945 1.29.915 2.087-.015.391-.08.78-.264.963-.204.205-.508.306-.909.345l-.2.02-.024.124c-.033.175-.002.683.051.975.064.35.195.726.338.97.297.505.867 1.065 1.296 1.342.425.274.968.473 1.492.545.254.034.943.011 1.188-.04 1.472-.312 2.428-1.41 2.59-2.976.019-.175.024-.443.013-.626-.087-1.448-.67-2.483-1.874-3.321-.717-.5-1.134-.808-1.299-.96-.304-.28-.462-.582-.532-1.016a1.563 1.563 0 0 0-.04-.201.863.863 0 0 0-.173.088c-.403.235-1.042.241-1.431.013-.436-.254-.84-.856-1.021-1.522-.085-.312-.104-.894-.04-1.2.13-.62.553-1.3 1.187-1.903a2.65 2.65 0 0 0 .288-.298c0-.016-.007-.024-.052-.022zm2.926 4c-.04 0-.165.18-.236.343-.109.25-.175.57-.192.932-.02.4.01.558.163.876.187.39.498.685.853.807a.733.733 0 0 0 .976-.754.87.87 0 0 0-.287-.558c-.143-.137-.207-.17-.543-.276-.46-.146-.666-.467-.7-1.095-.009-.151-.024-.275-.034-.275zm-1.415 4.002c.02-.018.038.066.09.423.1.7.26 1.346.387 1.568.147.257.513.425 1.201.551.158.03.293.058.3.065.02.017-.032.029-.37.079-.515.076-.874.197-1.066.36-.228.193-.399.683-.512 1.472-.057.392-.087.522-.108.468a7.8 7.8 0 0 1-.077-.514c-.1-.767-.213-1.192-.369-1.378-.125-.15-.659-.349-1.238-.461-.276-.054-.321-.081-.17-.104.732-.109 1.236-.275 1.429-.472.156-.16.292-.668.418-1.553.038-.27.077-.497.085-.504z"/><path style="fill:#f4f4f7" d="M11.507 5a3.612 3.612 0 0 0-.277.04c-1.881.299-3.242 1.596-3.647 3.476a5.394 5.394 0 0 0-.06 1.42c.039.314.138.754.173.776.013.008.139.033.278.057.613.103 1.293.323 1.647.532.094.055.269.196.387.312.668.657.945 1.29.915 2.087-.015.391-.08.779-.264.963-.204.205-.508.306-.91.345l-.198.02-.025.124c-.034.175-.003.683.05.975.065.35.195.726.339.97.297.505.867 1.065 1.296 1.341.425.275.968.474 1.492.545.254.035.943.012 1.188-.04 1.472-.31 2.428-1.409 2.59-2.975.019-.175.024-.443.013-.626-.087-1.448-.67-2.483-1.874-3.321-.717-.5-1.134-.808-1.299-.96-.304-.28-.462-.582-.532-1.016a1.563 1.563 0 0 0-.04-.201.864.864 0 0 0-.173.088c-.403.235-1.042.241-1.431.013-.436-.254-.84-.856-1.021-1.522-.085-.312-.104-.895-.04-1.2.13-.62.553-1.3 1.187-1.903a2.65 2.65 0 0 0 .288-.299c0-.016-.007-.023-.052-.021zm1.51 8.002c.021-.019.04.066.09.423.101.7.26 1.346.388 1.568.147.257.513.425 1.201.55.158.03.293.059.3.065.02.018-.032.03-.37.08-.515.076-.874.197-1.066.36-.228.193-.399.683-.512 1.472-.057.392-.087.522-.108.468a7.8 7.8 0 0 1-.077-.514c-.1-.767-.213-1.192-.369-1.378-.125-.15-.659-.349-1.238-.461-.276-.054-.321-.081-.17-.104.732-.109 1.236-.275 1.429-.472.156-.16.292-.668.418-1.553.038-.27.077-.497.085-.504z"/><path style="fill:#f4f4f7" d="M15.02 11.958c-.354-.122-.665-.416-.852-.807-.153-.318-.182-.475-.163-.875.018-.363.084-.683.193-.933.07-.163.194-.343.234-.343.011 0 .027.124.035.275.035.628.24.95.7 1.095.336.106.4.139.543.275a.87.87 0 0 1 .287.559.733.733 0 0 1-.976.754z"/><path style="opacity:.2;fill:#f4f4f7" d="M12 2A10 10 0 0 0 2 12a10 10 0 0 0 .01.291A10 10 0 0 1 12 2.5a10 10 0 0 1 9.99 9.709A10 10 0 0 0 22 12 10 10 0 0 0 12 2z"/></svg>