<svg height="24" width="24" xmlns="http://www.w3.org/2000/svg">
    <circle cx="11.5" cy="12" opacity=".2" r="10.5"/>
    <circle cx="11.5" cy="11.5" fill="#249eff" r="10.5"/>
    <g fill="#f4f4f7">
        <rect height="4" rx="1" width="4" x="12" y="7"/>
        <rect height="4" rx="1" width="4" x="7" y="12"/>
        <rect height="4" opacity=".6" rx="1" width="4" x="7" y="7"/>
        <rect height="4" opacity=".6" rx="1" width="4" x="12" y="12"/>
        <path d="M11.5 1A10.5 10.5 0 0 0 1 11.5a10.5 10.5 0 0 0 .01.297A10.5 10.5 0 0 1 11.5 1.5a10.5 10.5 0 0 1 10.49 10.203A10.5 10.5 0 0 0 22 11.5 10.5 10.5 0 0 0 11.5 1z" opacity=".2"/>
    </g>
    <path d="M7 10v.5c0 .554.446 1 1 1h2c.554 0 1-.446 1-1V10c0 .554-.446 1-1 1H8c-.554 0-1-.446-1-1zm5 0v.5c0 .554.446 1 1 1h2c.554 0 1-.446 1-1V10c0 .554-.446 1-1 1h-2c-.554 0-1-.446-1-1zm-5 5v.5c0 .554.446 1 1 1h2c.554 0 1-.446 1-1V15c0 .554-.446 1-1 1H8c-.554 0-1-.446-1-1zm5 0v.5c0 .554.446 1 1 1h2c.554 0 1-.446 1-1V15c0 .554-.446 1-1 1h-2c-.554 0-1-.446-1-1z" opacity=".2"/>
</svg>
