<svg xmlns="http://www.w3.org/2000/svg" width="24" height="24" version="1"><path style="opacity:.2" d="M12 22.5c-5.556 0-10-4.445-10-10 0-5.556 4.844-10 10.4-10 .888 0 1.666.778 1.666 1.667 0 .444-.11.777-.444 1.11-.222.334-.444 1.167-.444 1.612 0 .889.778 1.666 1.666 1.666h1.6C19.557 8.555 22 10.5 22 13.611c0 4.89-4.444 8.889-10 8.889z"/><path style="fill:#f4f4f7" d="M12 22C6.444 22 2 17.555 2 12 2 6.444 6.844 2 12.4 2c.888 0 1.666.778 1.666 1.667 0 .444-.11.777-.444 1.11-.222.334-.444 1.167-.444 1.612 0 .889.778 1.666 1.666 1.666h1.6C19.557 8.055 22 10 22 13.111 22 18.001 17.556 22 12 22z"/><path style="fill:#f4f4f7;opacity:.2" d="M12.4 2C6.845 2 2 6.445 2 12c0 .09.011.175.014.264C2.15 6.82 6.924 2.5 12.4 2.5c.82 0 1.536.662 1.645 1.46.014-.092.021-.19.021-.294C14.066 2.777 13.29 2 12.4 2zm.803 4.629c-.011.09-.025.186-.025.26 0 .889.777 1.666 1.666 1.666h1.601c3.02 0 5.403 1.835 5.541 4.787.003-.077.014-.153.014-.23 0-3.112-2.444-5.057-5.555-5.057h-1.601c-.807 0-1.516-.643-1.64-1.426z"/><path style="fill:#ff9008" d="M5.5 12c-.8 0-1.5.7-1.5 1.5S4.7 15 5.5 15 7 14.3 7 13.5 6.3 12 5.5 12z"/><path style="fill:#3d81db" d="M14.5 17c-.8 0-1.5.7-1.5 1.5s.7 1.5 1.5 1.5 1.5-.7 1.5-1.5-.7-1.5-1.5-1.5z"/><path style="fill:#ef5454" d="M18 12c-.8 0-1.5.7-1.5 1.5S17.2 15 18 15s1.5-.7 1.5-1.5S18.8 12 18 12z"/><path style="opacity:.1;fill-rule:evenodd" d="M10.96 11.555c-.914.086-2.177.95-2.647 2.262-.83 2.311.613 5.312-2.013 5.229.168.086.337.155.505.215l.016.01c.034.012.068.02.102.031a4.07 4.07 0 0 0 .353.099c.048.01.097.022.145.03a3.92 3.92 0 0 0 .543.063l.149.006c.064 0 .127-.002.19-.004h.004l.007.003c.013 0 .025-.003.038-.004l.094-.005c.072-.005.144-.013.215-.022.04-.005.079-.009.118-.015l.07-.012.094-.018c.16-.03.318-.067.473-.114l.02-.007.011-.004a.08.08 0 0 0 .003 0l.039-.014c.118-.038.234-.084.35-.131.061-.025.123-.049.183-.076.07-.031.136-.067.204-.101l.024-.012c.058-.03.117-.056.174-.088.054-.03.107-.062.16-.093.066-.04.13-.08.195-.122.064-.041.13-.08.193-.123l.056-.042.08-.06c.066-.049.13-.097.195-.148.064-.051.128-.102.19-.155.043-.037.083-.075.125-.112l.004-.004c.052-.047.105-.093.156-.141l.044-.04v.002l.01-.011c.046-.044.087-.09.131-.136.049-.049.097-.098.143-.149.038-.04.078-.08.115-.122l.028-.033c.042-.047.079-.096.119-.145l.044-.053c.039-.048.078-.095.115-.144.026-.033.054-.065.079-.098l.03-.045c.037-.05.07-.102.105-.153a6.94 6.94 0 0 0 .064-.094c.03-.044.062-.085.09-.129l.04-.066.044-.071c.03-.051.057-.103.086-.154.043-.076.087-.151.126-.227.01-.019.017-.037.026-.056.002-.002.002-.004.003-.007.015-.028.03-.056.043-.084.02-.042.036-.083.054-.125.036-.08.071-.16.102-.24l.04-.101.022-.061.028-.092c.024-.073.044-.145.063-.216 0 .002.003.004.004.006.01-.036.016-.07.024-.107l.016-.063.009-.04.006-.032.017-.088.003-.025c.016-.098.027-.194.033-.288.001-.013.004-.026.004-.04l.001-.01v-.032l.001-.073c0-.031.002-.064.001-.095a2.787 2.787 0 0 0-.518-1.51l-1.986-.964-.138-.067-.013-.006-.004-.002v-.001z"/><path style="opacity:.1;fill:none;stroke:#000;stroke-width:2;stroke-linecap:round" d="M10.569 15.193 16.5 3.5"/><path style="fill:none;stroke:#806121;stroke-width:2;stroke-linecap:round" d="M10.569 14.693 16.5 3"/><path style="fill:#4f4f4f;fill-rule:evenodd" d="M10.96 11.055c-.914.086-2.177.95-2.647 2.262-.83 2.311.613 5.312-2.013 5.229.168.086.337.155.505.215l.016.01c.034.012.068.02.102.031a4.07 4.07 0 0 0 .353.099c.048.01.097.022.145.03a3.92 3.92 0 0 0 .543.063l.149.006c.064 0 .127-.002.19-.004h.004l.007.003c.013 0 .025-.003.038-.004l.094-.005a4.24 4.24 0 0 0 .215-.022c.04-.005.079-.009.118-.015l.07-.012.094-.018c.16-.03.318-.067.473-.114l.02-.007.011-.004a.08.08 0 0 0 .003 0c.013-.005.026-.01.039-.013.118-.039.234-.085.35-.132.061-.025.123-.049.183-.076.07-.031.136-.067.204-.101l.024-.012c.058-.03.117-.056.174-.088.054-.03.107-.062.16-.093.066-.04.13-.08.195-.122.064-.041.13-.08.193-.123l.056-.042c.028-.019.053-.04.08-.06.066-.049.13-.097.195-.148.064-.051.128-.102.19-.155.043-.036.083-.075.125-.112l.004-.004c.052-.047.105-.093.156-.141l.044-.04v.002l.01-.011c.046-.044.087-.09.131-.135.049-.05.097-.099.143-.15.038-.04.078-.08.115-.122l.028-.032c.042-.048.079-.097.119-.146l.044-.053c.039-.048.078-.095.115-.143.026-.034.054-.066.079-.099l.03-.045c.037-.05.07-.102.105-.153a6.94 6.94 0 0 0 .064-.094c.03-.043.062-.085.09-.129l.04-.066.044-.071c.03-.051.057-.103.086-.154.043-.076.087-.151.126-.227.01-.019.017-.037.026-.056.002-.002.002-.004.003-.007.015-.028.03-.056.043-.084.02-.042.036-.083.054-.125.036-.08.071-.16.102-.24l.04-.101.022-.061.028-.092c.024-.073.044-.145.063-.216l.004.007c.01-.037.016-.072.024-.108l.016-.063.009-.04.006-.032.017-.088c.002-.008.002-.017.003-.025.016-.098.027-.193.033-.288.001-.013.004-.026.004-.04l.001-.01v-.032l.001-.072c0-.032.002-.065.001-.096a2.787 2.787 0 0 0-.518-1.51l-1.986-.964-.138-.067-.013-.006-.004-.002z"/><path style="opacity:.1;fill-rule:evenodd" d="M12.074 9.759a.503.503 0 0 0-.444.166l-.839.949a.498.498 0 0 0 .149.775l2.257 1.143a.5.5 0 0 0 .718-.345l.256-1.253a.497.497 0 0 0-.266-.543l-1.672-.842a.506.506 0 0 0-.16-.05z"/><path style="fill:gray;fill-rule:evenodd" d="M12.074 9.26a.503.503 0 0 0-.444.165l-.839.949a.498.498 0 0 0 .149.775l2.257 1.143a.5.5 0 0 0 .718-.345l.256-1.253a.497.497 0 0 0-.266-.543l-1.672-.842a.506.506 0 0 0-.16-.05z"/></svg>