<svg xmlns="http://www.w3.org/2000/svg" width="24" height="24"><path style="opacity:.2" d="M11.703 2.5c-1.346.028-2.7.232-3.875.594C6.625 3.465 5.52 4 4.464 4.721c-.432.295-.765.646-.932.983-.148.298-.366 1.596-.46 2.73-.297 3.55.343 7.158 1.668 9.406.164.28.806 1.247 1.052 1.584.963 1.32 2.253 2.247 3.766 2.707.62.19 1.204.293 2.043.366.068.006.242.002.399 0 .291-.005.624-.018.809-.04 1.349-.152 2.496-.542 3.48-1.189.298-.195.576-.421.844-.664.265-.24.521-.493.76-.78.235-.282.382-.487.828-1.15.588-.871.833-1.315 1.145-2.074 1.113-2.705 1.435-6.507.84-9.906-.149-.846-.194-.984-.446-1.307-.252-.324-.5-.526-1.134-.93-1.775-1.127-3.773-1.76-6.087-1.923-.343-.024-.69-.032-1.04-.031-.098 0-.196-.004-.296-.002z"/><path style="fill:#f4f4f7" d="M11.702 2c-1.346.028-2.698.232-3.873.595-1.203.37-2.309.905-3.365 1.626-.432.295-.765.646-.931.983-.148.298-.367 1.594-.462 2.729-.296 3.55.344 7.159 1.668 9.408.165.28.808 1.244 1.054 1.582.963 1.32 2.253 2.247 3.766 2.708.62.189 1.202.293 2.042.366.068.006.242.002.4-.001V2.002c-.1 0-.2-.003-.299-.001zm.298.002zm0 19.994zm8.414-16.888c.126.215.18.451.292 1.086-.112-.635-.166-.871-.292-1.086zm.473 2.377zm-3.754 12.618z"/><path style="fill:#9c9c9c" d="M12 2.002v19.994c.291-.005.623-.017.808-.038 2.159-.245 3.803-1.096 5.084-2.635.235-.282.383-.487.83-1.15.587-.871.832-1.315 1.144-2.074 1.113-2.705 1.435-6.506.84-9.905-.149-.846-.196-.985-.447-1.308-.253-.324-.5-.526-1.134-.93-1.775-1.127-3.771-1.758-6.086-1.922A14.71 14.71 0 0 0 12 2.002z"/><path style="opacity:.1" d="M11.675 19.476a2.79 2.79 0 0 1-.985-.354c-.174-.1-.21-.15-.18-.243.017-.054.031-.06.118-.06.055 0 .31.026.568.06.96.123 1.366.073 2.446-.301.284-.099.334-.102.357-.021.024.083-.435.49-.78.69-.357.207-.989.301-1.544.229z"/><path style="fill:#17191e" d="M11.675 18.976a2.79 2.79 0 0 1-.985-.354c-.174-.1-.21-.15-.18-.243.017-.054.031-.06.118-.06.055 0 .31.026.568.06.96.123 1.366.073 2.446-.301.284-.099.334-.102.357-.021.024.083-.435.49-.78.69-.357.207-.989.301-1.544.229z"/><path style="opacity:.1" d="M11.612 15.503c-.018-.008-.03 0-.052.019-.157.134-.519.783-.552.99-.035.221.044.5.183.644.068.07.477.278.626.318A.731.731 0 0 0 12 17.5a.73.73 0 0 0 .183-.026c.149-.04.558-.248.626-.318.14-.144.218-.423.183-.644-.033-.207-.395-.856-.552-.99-.022-.018-.034-.027-.052-.02a.394.394 0 0 0-.091.078c-.097.095-.18.13-.297.123-.117.006-.2-.028-.297-.123a.394.394 0 0 0-.09-.077z"/><path style="fill:#17191e" d="M11.612 15.003c-.018-.008-.03 0-.052.019-.157.134-.519.783-.552.99-.035.221.044.5.183.644.068.07.477.278.626.318A.731.731 0 0 0 12 17a.73.73 0 0 0 .183-.026c.149-.04.558-.248.626-.318.14-.144.218-.423.183-.644-.033-.207-.395-.856-.552-.99-.022-.018-.034-.027-.052-.02a.393.393 0 0 0-.091.078c-.097.095-.18.13-.297.123-.117.006-.2-.028-.297-.123a.395.395 0 0 0-.09-.077zM7.209 10.001c-.38.01-.678.083-.867.242-.122.103-.208.28-.287.589-.096.378-.069.661.102 1.044.263.588.856 1.008 1.563 1.108.02.003.052.012.073.016h3.075c.073-.023.105-.058.124-.121.032-.109-.027-.309-.195-.66a4.97 4.97 0 0 0-.733-1.145c-.503-.597-.904-.848-1.51-.949-.508-.083-.966-.134-1.345-.124z"/><path style="opacity:.3" d="M13.5 9.4v4.1h.5V9.4zm1 0v4.1h.5V9.4zm1 0v4.1h.5V9.4zm1 0v4.1h.5V9.4z"/><rect style="fill:#17191e" width="5" height="3" x="13" y="10" rx=".833" ry=".9"/><path style="fill:#f4f4f7" d="M14.667 10.6v1.8h1.666v-1.8zm.277.3h1.112v1.2h-1.112zM13.72 10.72h.556v.3h-.556z"/><path style="fill:#f4f4f7" d="M14.11 11.02h.389v.3h-.389zM13.72 11.92h.556v.3h-.556zM14.11 11.62h.389v.3h-.389z"/><path style="fill:#f4f4f7" transform="scale(-1 1)" d="M-17.28 10.72h.556v.3h-.556z"/><path style="fill:#f4f4f7" transform="scale(-1 1)" d="M-16.89 11.02h.389v.3h-.389zM-17.28 11.92h.556v.3h-.556zM-16.89 11.62h.389v.3h-.389z"/><path style="fill:#f4f4f7" d="M15.11 11.05h.778v.3h-.778zM15.11 11.65h.778v.3h-.778z"/><path style="fill:#f4f4f7" transform="rotate(90)" d="M11.17-15.64h.6v.278h-.6z"/><path style="fill:#f4f4f7;opacity:.2" d="M11.703 2c-1.346.027-2.7.232-3.875.594-1.203.37-2.307.905-3.363 1.627-.432.295-.765.646-.932.982-.148.299-.366 1.596-.46 2.73A20.631 20.631 0 0 0 3.01 9.66c.01-.408.028-.817.062-1.226.095-1.135.313-2.432.461-2.73.167-.337.5-.688.932-.983a12.325 12.325 0 0 1 3.363-1.627c1.176-.362 2.53-.567 3.875-.594.1-.002.198.002.297.002.348 0 .696.007 1.04.031 2.313.164 4.31.796 6.085 1.924.635.404.882.605 1.135.93.251.323.297.46.445 1.306.2 1.136.287 2.316.285 3.487a20.333 20.333 0 0 0-.285-3.987c-.148-.846-.194-.983-.445-1.306-.253-.325-.5-.526-1.135-.93-1.774-1.128-3.772-1.76-6.086-1.924-.343-.024-.69-.031-1.039-.031-.1 0-.197-.004-.297-.002z"/></svg>