<svg xmlns="http://www.w3.org/2000/svg" width="24" height="24"><rect style="opacity:.2" width="21" height="21" x="2" y="2" rx="3.15" ry="3.15"/><rect style="fill:#f4f4f7" width="21" height="21" x="2" y="1" rx="3.15" ry="3.15"/><path style="opacity:.1" d="M6 7v2h1v7H6v2h4v-2H9V9h1V7zm5 0c.124 0 0 .15 0 0zm0 0v2c0-.15.124 0 0 0h5c-.124 0 0-.15 0 0V7c0 .15-.124 0 0 0zm4 3c.12 0 0 .15 0 0zm0 0v2c0-.15.12 0 0 0h4c-.12 0 0-.15 0 0v-2c0 .15-.12 0 0 0zm0 3c.12 0 0 .15 0 0zm0 0v2c0-.15.12 0 0 0h4c-.12 0 0-.15 0 0v-2c0 .15-.12 0 0 0zm-4 3c.124 0 0 .15 0 0zm0 0v2c0-.15.124 0 0 0h5c-.124 0 0-.15 0 0v-2c0 .15-.124 0 0 0z"/><path style="fill:#6153c1" d="M6 6v2h1v7H6v2h4v-2H9V8h1V6zm5 0c.124 0 0 .15 0 0zm0 0v2c0-.15.124 0 0 0h5c-.124 0 0-.15 0 0V6c0 .15-.124 0 0 0zm4 3c.12 0 0 .15 0 0zm0 0v2c0-.15.12 0 0 0h4c-.12 0 0-.15 0 0V9c0 .15-.12 0 0 0zm0 3c.12 0 0 .15 0 0zm0 0v2c0-.15.12 0 0 0h4c-.12 0 0-.15 0 0v-2c0 .15-.12 0 0 0zm-4 3c.124 0 0 .15 0 0zm0 0v2c0-.15.124 0 0 0h5c-.124 0 0-.15 0 0v-2c0 .15-.124 0 0 0z"/><path style="fill:#f4f4f7;opacity:.2" d="M5.15 1A3.144 3.144 0 0 0 2 4.15v1A3.144 3.144 0 0 1 5.15 2h14.7A3.144 3.144 0 0 1 23 5.15v-1A3.144 3.144 0 0 0 19.85 1H5.15z"/></svg>