<svg height="64" viewBox="0 0 16.933 16.933" width="64" xmlns="http://www.w3.org/2000/svg">
    <filter id="a" color-interpolation-filters="sRGB" height="1.054" width="1.054" x="-.027" y="-.027">
        <feGaussianBlur stdDeviation=".619"/>
    </filter>
    <linearGradient id="b" gradientUnits="userSpaceOnUse" x1="1.191" x2="15.742" y1="15.74" y2="1.188">
        <stop offset="0" stop-color="#32d7ff"/>
        <stop offset="1" stop-color="#329bff"/>
    </linearGradient>
    <rect fill="#141414" filter="url(#a)" height="55" opacity=".3" ry="15" transform="scale(.26458)" width="55" x="4.5" y="4.5"/>
    <rect fill="url(#b)" height="14.552" ry="3.969" width="14.552" x="1.191" y="1.191"/>
    <path d="M11.417 3.836c-1.829 0-2.171 2.778-1.143 2.778 1.028 0 2.971-2.778 1.143-2.778zm-2.903.315c-1.046.148-.678 2.118-.12 2.155.555.036 1.167-2.301.12-2.155zm-1.892.613a.64.64 0 0 0-.172.044c-.979.371-.149 1.905.4 1.802.515-.097.574-1.924-.227-1.845zM5.336 5.998a.52.52 0 0 0-.284.08c-.804.475.272 1.621.744 1.444.416-.156.151-1.507-.46-1.526zm3.753.926c-1.44-.026-3.34.73-3.665 2.248-.35 1.644 1.445 3.925 3.32 3.925.922 0 1.985-.872 2.184-1.976.152-.84-1.912-.503-1.842.053.057.455-.182.691-.51.7-.448-.055-.667-.314-.727-.706-.08-1.025 3.154-1.758 2.898-3.35-.094-.582-.793-.879-1.658-.894z" fill="#f4f4f7"/>
</svg>
