<svg xmlns="http://www.w3.org/2000/svg" width="24" height="24">
    <circle style="opacity:.2" cx="12" cy="12.5" r="10"/>
    <circle style="fill:#17191e" cx="12" cy="12" r="10"/>
    <path style="opacity:.1;fill:#f4f4f7" d="M12 2A10 10 0 0 0 2 12a10 10 0 0 0 .01.291A10 10 0 0 1 12 2.5a10 10 0 0 1 9.99 9.709A10 10 0 0 0 22 12 10 10 0 0 0 12 2z"/>
    <path style="opacity:.2" d="M6.588 4.09a10 10 0 0 0-.797.572l2.15 6.462-5.658 3.69a10 10 0 0 0 .183.667l6.937.034 1.951 6.953A10 10 0 0 0 12 22.5a10 10 0 0 0 .484-.018l2.069-6.982h6.984a10 10 0 0 0 .208-.797l-5.617-3.65 2.22-6.273a10 10 0 0 0-.846-.622l-5.415 3.946zm.634 1.701 4.016 2.932-2.447 1.783zm9.697.03-1.635 4.616-2.348-1.714zm-4.833 3.52 2.85 2.08-1.09 3.079H10.12l-.998-2.999zm3.693 2.696 3.976 2.463h-4.848zm-7.506.083.792 2.38H8v.007l-3.531-.016zm2.18 3.38h3.017l-1.556 5.485-.044-.127z"/>
    <path style="fill:#f14c21" d="M6.588 3.59a10 10 0 0 0-.797.572l2.15 6.462-5.658 3.69a10 10 0 0 0 .183.667l6.937.034 1.951 6.953A10 10 0 0 0 12 22a10 10 0 0 0 .484-.018L14.553 15h6.984a10 10 0 0 0 .208-.797l-5.617-3.65 2.22-6.273a10 10 0 0 0-.846-.622l-5.415 3.946zm.634 1.701 4.016 2.932-2.447 1.783zm9.697.03-1.635 4.616-2.348-1.714zm-4.833 3.52 2.85 2.08L13.846 14H10.12l-.998-2.999zm3.693 2.696L19.755 14h-4.848zm-7.506.083L9.065 14H8v.007l-3.531-.016zm2.18 3.38h3.017l-1.556 5.485-.044-.127z"/>
    <path style="opacity:.2;fill:#f4f4f7" d="M6.588 3.59a10 10 0 0 0-.797.572l.135.403a10 10 0 0 1 .662-.474l5.499 4.013 5.415-3.946a10 10 0 0 1 .706.519l.14-.397a10 10 0 0 0-.846-.622l-5.415 3.946zm.634 2.201 1.569 4.715 2.447-1.783-.342-.25-2.105 1.533-1.35-4.055zm9.697.03-.238.173-1.397 3.943-2.006-1.464-.342.25 2.348 1.714zm-.648 4.825-.143.407 5.506 3.578a10 10 0 0 0 .111-.428zm-8.466.067-5.522 3.601a10 10 0 0 0 .116.424l5.542-3.614zm6.99.605L13.845 14H10.12l-.864-2.597-.134.098.998 2.999h3.726l1.09-3.08zm-9.53 2.677-.796.496L8 14.507V14.5h1.065L8.9 14H8v.007zm9.819.005-.177.5h4.848l-.807-.5H16zm-4.63 1.5 1.416 5.358.044.127L13.47 15.5h-.142l-1.414 4.985-.044-.127-1.285-4.858z"/>
</svg>
