<svg width="24" height="24" xmlns="http://www.w3.org/2000/svg"><circle cx="12" cy="12.5" r="10" style="opacity:.2"/><circle cx="12" cy="12" r="10" style="fill:#8b9cbe"/><path d="M12 2A10 10 0 0 0 2 12a10 10 0 0 0 .01.293A10 10 0 0 1 12 2.5a10 10 0 0 1 9.99 9.707A10 10 0 0 0 22 12 10 10 0 0 0 12 2z" style="fill:#f4f4f7;opacity:.1"/><path d="M10 5.5c-2.978 1.068-4.997 3.837-5 7a7.5 7.5 0 0 0 7.5 7.5c2.106-.004 4.113-.992 5.531-2.549-.218.08-.446.138-.67.207-.083-.086-.263-.15-.283-.246a3.47 3.47 0 0 1 .033-1.56c.097-.386.431-.64.432-1.038 0-.58-.043-1.09-.043-1.09s.387-.142.57-.245c.187-.106.416-.34.414-.608 0-.155-.262-.271-.359-.432-.08-.133-.083-.31-.18-.431-.082-.104-.388-.26-.388-.26s-.163-.688-.467-.664c-.124.01-.09.646-.09.646s-.661.275-.701.899c-.017.266-.224.44-.45.63s-.47.397-.718.468c-1.812.516-2.029 1.556-2.074 2.576-.015.316.261.933.261.933s-.947-.8-.98-1.375c-.034-.58.597-.915.531-1.49-.039-.337-.582-1.063-.82-.81-.174.184.454.552.478.9.017.235-.607.732-.53 1.437.052.497.379 1.112.612 1.522A7.499 7.499 0 0 1 8 10.5c.003-1.87.737-3.62 2-5zm6.275 11.246c.09.01.175.06.188.15.047.325.129.856.146.973a5.985 5.985 0 0 1-.668.1c-.008-.2-.024-.798.125-1.145.027-.061.12-.089.21-.078z" style="opacity:.2"/><path d="M10 5c-2.978 1.068-4.997 3.837-5 7a7.5 7.5 0 0 0 7.5 7.5c2.106-.004 4.113-.992 5.531-2.549-.218.08-.446.138-.67.207-.083-.086-.263-.15-.283-.246a3.47 3.47 0 0 1 .033-1.56c.097-.386.431-.64.432-1.038 0-.58-.043-1.09-.043-1.09s.387-.142.57-.245c.187-.106.416-.34.414-.608 0-.155-.262-.271-.359-.432-.08-.133-.083-.31-.18-.431-.082-.104-.388-.26-.388-.26s-.163-.688-.467-.664c-.124.01-.09.646-.09.646s-.661.275-.701.899c-.017.266-.224.44-.45.63s-.47.397-.718.468c-1.812.516-2.029 1.556-2.074 2.576-.015.316.261.933.261.933s-.947-.8-.98-1.375c-.034-.58.597-.915.531-1.49-.039-.337-.582-1.063-.82-.81-.174.184.454.552.478.9.017.235-.607.732-.53 1.437.052.497.379 1.112.612 1.522A7.499 7.499 0 0 1 8 10c.003-1.87.737-3.62 2-5zm6.275 11.246c.09.01.175.06.188.15.047.325.129.856.146.973a5.985 5.985 0 0 1-.668.1c-.008-.2-.024-.798.125-1.145.027-.061.12-.089.21-.078z" style="fill:#f4f4f7"/></svg>