<svg height="64" viewBox="0 0 16.933 16.933" width="64" xmlns="http://www.w3.org/2000/svg">
    <linearGradient id="c" gradientUnits="userSpaceOnUse" x1="7.903" x2="7.903" y1="16.297" y2=".422">
        <stop offset="0" stop-color="#3889e9"/>
        <stop offset="1" stop-color="#5ea5fb"/>
    </linearGradient>
    <filter id="a" color-interpolation-filters="sRGB" height="1.054" width="1.054" x="-.027" y="-.027">
        <feGaussianBlur stdDeviation=".619"/>
    </filter>
    <linearGradient id="b" gradientUnits="userSpaceOnUse" x1="1.191" x2="15.742" y1="15.74" y2="1.188">
        <stop offset="0" stop-color="#1d2123"/>
        <stop offset="1" stop-color="#33393e" stop-opacity=".996"/>
    </linearGradient>
    <rect fill="#141414" filter="url(#a)" height="55" opacity=".3" ry="15" transform="scale(.26458)" width="55" x="4.5" y="4.5"/>
    <rect fill="url(#b)" height="14.552" ry="3.969" width="14.552" x="1.191" y="1.191"/>
    <circle cx="8.469" cy="8.346" fill="none" r="7.938"/>
    <path d="M8.468 3.836a4.63 4.63 0 1 0 0 9.26 4.63 4.63 0 0 0 0-9.26zm0 .386a4.246 4.246 0 0 1 4.085 3.091 7.364 7.364 0 0 1-1.8 2.346c-.36.312-.753.59-1.187.787a2.993 2.993 0 0 1-1.39.278 2.403 2.403 0 0 1-1.023-.293 7.723 7.723 0 0 0 2.192-1.767c.402-.47.755-1.006.89-1.611a2.187 2.187 0 0 0 .016-.922 1.704 1.704 0 0 0-.416-.818 1.669 1.669 0 0 0-.771-.457 2.028 2.028 0 0 0-.9-.033c-.596.11-1.127.455-1.553.885-.753.757-1.217 1.826-1.132 2.89.044.53.22 1.054.527 1.491.068.097.142.19.223.279a6.943 6.943 0 0 1-1.372.328 4.243 4.243 0 0 1 3.61-6.475zm.026.858c.299 0 .6.09.837.27.215.162.374.394.464.645.09.254.113.53.083.797-.063.533-.332 1.023-.657 1.45a6.26 6.26 0 0 1-2.46 1.915 2.192 2.192 0 0 1-.465-.57c-.253-.448-.336-.981-.287-1.493.048-.512.224-1.006.46-1.463.274-.53.648-1.033 1.17-1.32.261-.145.558-.232.855-.231zm4.18 2.818a4.243 4.243 0 0 1-7.478 3.273c.48-.11.951-.266 1.4-.466.197.15.416.273.646.362.667.256 1.422.218 2.096-.016.674-.233 1.272-.651 1.794-1.138a7.717 7.717 0 0 0 1.542-2.015z" fill="#f4f4f7"/>
</svg>
