<svg xmlns="http://www.w3.org/2000/svg" width="24" height="24"><circle style="opacity:.2" cx="12" cy="12.5" r="10"/><circle style="fill:#5df" cx="12" cy="12" r="10"/><path style="fill:#f4f4f7;opacity:.2" d="M12 2A10 10 0 0 0 2 12a10 10 0 0 0 .01.293A10 10 0 0 1 12 2.5a10 10 0 0 1 9.99 9.707A10 10 0 0 0 22 12 10 10 0 0 0 12 2z"/><path style="opacity:.1" d="m9 4.5-3 2 2 3v-2h2l2 5h2v9l2-7 1 4.25V12.5l2.5 2.5-1.5-2.5-4-6h-2z"/><path style="fill:#17191e" d="M9 4 6 6l2 3V7h2l2 5h2v9l2-7 1 4.25V12l2.5 2.5L18 12l-4-6h-2z"/></svg>