<svg xmlns="http://www.w3.org/2000/svg" width="24" height="24"><circle style="opacity:.2" cx="12" cy="12.5" r="10"/><circle style="fill:#2d4a5e" cx="12" cy="12" r="9.75"/><path style="fill:#bcdced" d="M14.342 10.96c0 5.523 2.515 1.169-3.008 1.169s-8.67 5.228-8.67-.295c0-.353-.646-.536-.61-.88a10.007 10.007 0 0 1 7.838-8.731c.68-.146 1.385.308 2.108.308 5.523 0 2.342 2.906 2.342 8.429z"/><path style="fill:#65a3cf" d="M12 2a10 10 0 0 0-1.795.176l2.904 5.04 4.843-3.225A10 10 0 0 0 12 2z"/><path style="fill:#6d8da4" d="m13.932 16.541-2.005 5.455-.06-.003v.001A10 10 0 0 0 12 22a10 10 0 0 0 7.213-3.09z"/><path style="fill:#426f8e" d="m10.365 18.745-2.118 2.516a10 10 0 0 0 3.104.71v-.003l-.078-.004z"/><path style="opacity:.7;fill:red" d="M19.213 18.91a10 10 0 0 0 .187-.201 10 10 0 0 1-.187.2zM7.693 21.01a10 10 0 0 0 .536.244 10 10 0 0 1-.536-.243z"/><path style="opacity:.7;fill:#1b5e99" d="M17.96 3.985 2.306 14.412a10 10 0 0 0 .17.602l18.797.71A10 10 0 0 0 22 12a10 10 0 0 0-4.04-8.015z"/><path style="fill:#81bde3" d="M6.738 3.504a10 10 0 0 0-.54.367L8.58 12.36l.72-6.804z"/><path style="fill:#316f9f;fill-opacity:0" d="m17.92 3.956-4.804 3.272 2.588 4.49 2.714-7.385a10 10 0 0 0-.497-.377z"/><path style="fill:#4f96cb" d="M10.2 2.168a10 10 0 0 0-.555.125L9.3 5.555l2.882 2.308.934-.635z"/><path style="fill:#5687a5" d="m15.704 11.718-1.772 4.823 5.282 2.368a10 10 0 0 0 .391-.42z"/><path style="opacity:.7;fill:#3885c0" d="m8.58 12.36-.915 8.638a10 10 0 0 0 .581.264l2.123-2.522z"/><path style="fill:#224c6d" d="m20.497 6.74-3.218.69-2.364 6.434 5.89-6.586a10 10 0 0 0-.308-.539z"/><path style="fill:#29628f" d="m8.373 14.02-.789 6.938a10 10 0 0 0 .701.318l2.124-2.375-1.285-4.556z"/><path style="fill:#438ec5" d="M9.3 5.555 8.91 9.227l1.741-.374 1.51-1.005z"/><path style="fill:#2f6c9f" d="m13.116 7.228-.934.635-.02-.015-1.51 1.005 3.027-.65z"/><path style="fill:#316e9e" d="m13.679 8.203 3.65-.783 1.12-3.052a10 10 0 0 0-.497-.377L13.14 7.268z"/><path style="fill:#4c7da1" d="m18.405 4.349-1.133 3.083 3.21-.69a10 10 0 0 0-2.077-2.393z"/><path style="opacity:.7;fill:#f0f" d="M20.797 7.267s.007.013 0 0z"/><path style="fill:#4c7798" d="M2.073 11.29a10 10 0 0 0-.036.727 10 10 0 0 0 .3 2.375l2.718-1.81-2.85-1.236z"/><path style="fill:#71848e" d="m17.94 15.598 1.665 2.89a10 10 0 0 0 1.668-2.764z"/><path style="fill:#35576f" d="m20.803 7.28-5.898 6.592-.584 1.589 6.952.263A10 10 0 0 0 22 12a10 10 0 0 0-1.197-4.72z"/><path style="fill:#285477" d="m5.064 12.574-2.758 1.838a10 10 0 0 0 .17.602l5.757.217.141-1.234z"/><path style="fill:#265679" d="m16.146 12.485-1.229 1.373-.589 1.603 3.611.137z"/><path style="fill:#4f82a6" d="m2.368 14.633-.012.009a9.998 9.998 0 0 0 5.228 6.313l.653-5.74h-.002l-.002.016-5.756-.217c-.04-.126-.074-.254-.109-.381zm5.26 6.345.037.02v-.003c-.012-.006-.025-.011-.037-.018z"/><path style="fill:#20476a" d="m8.373 14.02-.136 1.19 1.143.043-.256-.908z"/><path style="fill:#1d4568" d="m15.704 11.718-.789 2.146 1.231-1.377z"/><path style="fill:#204a6c" d="m15.994 10.929-1.079 2.935 1.98-2.213z"/><path style="fill:#2c5774" d="m16.893 11.65-.747.835 1.793 3.113.864.032 2.454.093.095-.223c.026-.07.049-.143.074-.214z"/><path style="fill:#2e639c" d="m12.157 7.85-1.505 1.003 2.172-.466z"/><path style="fill:#1d4568" d="m15.704 11.718-.789 2.145 1.232-1.377z"/><path style="opacity:.2;fill:#f4f4f7" d="M12 2A10 10 0 0 0 2 12a10 10 0 0 0 .01.291A10 10 0 0 1 12 2.5a10 10 0 0 1 9.99 9.709A10 10 0 0 0 22 12 10 10 0 0 0 12 2z"/><path style="fill:#343f4b" d="M17.28 7.43 2.167 10.675l-.071.015a10 10 0 0 0-.06.582l7.087 3.073 2.15 7.619.653.032z"/><path style="opacity:.2" d="M10.285 13.85 5.62 11.607l9.67-1.985-3.518 9.325z"/><path style="fill:#f4f4f7" d="M10.285 13.35 5.62 11.107l9.67-1.985-3.518 9.325z"/></svg>