<svg height="24" width="24" xmlns="http://www.w3.org/2000/svg"><rect height="20" opacity=".2" rx="2" width="20" x="2" y="2.5"/><rect fill="#24b8eb" height="20" rx="2" width="20" x="2" y="2"/><path d="m4 2c-1.108 0-2 .892-2 2v.5c0-1.108.892-2 2-2h16c1.108 0 2 .892 2 2v-.5c0-1.108-.892-2-2-2z" fill="#f4f4f7" opacity=".2"/><path d="m5 4.5c-.554 0-1 .446-1 1v7c0 .554.446 1 1 1h13v5h-5v-4h-2v5c0 .554.446 1 1 1h7c.554 0 1-.446 1-1v-7c0-.554-.446-1-1-1h-13v-5h5v4h2v-5c0-.554-.446-1-1-1z" opacity=".2"/><path d="m5 4c-.554 0-1 .446-1 1v7c0 .554.446 1 1 1h13v5h-5v-4h-2v5c0 .554.446 1 1 1h7c.554 0 1-.446 1-1v-7c0-.554-.446-1-1-1h-13v-5h5v4h2v-5c0-.554-.446-1-1-1z" fill="#17191e"/></svg>