<svg xmlns="http://www.w3.org/2000/svg" width="24" height="24" version="1"><path style="opacity:.2" d="M10.75 16.334C7.123 17.452 4.538 19.569 2 21.5h9V21h2v-2.268l1.053-.38-.033-.922-1.295-.62s-.755.067-1.125.05c-.343-.28-.442-.377-.85-.526z"/><path style="fill:#f4f4f7" d="M8.836 15h6.003L17 17.5H7z"/><path style="fill:#d59f5b" d="m14.02 16.93-1.296-.62s-.754.067-1.125.05c-.343-.28-.44-.378-.848-.527C7.124 16.951 4.538 19.07 2 21h11.511l.005-2.768.536-.38z"/><path style="opacity:.2" d="m10 17.83 1.555-1.02s.755.067 1.125.05c.343-.28.441-.378.849-.527C17.155 17.451 19.462 19.57 22 21.5H11v-2.368l-1-.38z"/><path style="fill:#febd6a" d="m10 17.33 1.555-1.02s.755.067 1.125.05c.343-.28.441-.378.849-.527C17.155 16.951 19.462 19.07 22 21H11v-2.368l-1-.38z"/><path style="opacity:.1" d="m8.5 6 3.375-1.1L15 6l2 2.5.5 3.201c.044 2.677-3.359 4.638-5.604 4.699-1.855.005-3.712-1.504-4.527-2.53-.888-.973-.802-1.41-.82-2.66L7 8z"/><path style="fill:#17191e" d="m8.5 5.5 3.375-1.1L15 5.5 17 8l.5 3.201c.044 2.677-3.359 4.638-5.604 4.699-1.855.005-3.712-1.504-4.527-2.53-.888-.973-.802-1.41-.82-2.66L7 7.5z"/><path style="opacity:.1" d="M8 9.77 9.331 8.5h.673l.496 1.046v1.416L8.841 12 8 11.5z"/><path style="fill:#bddff5" d="M8 9.27 9.331 8h.673l.496 1.046v1.416L8.841 11.5 8 11z"/><path style="fill:#17191e" d="M8.126 16.886a20.5 20.5 0 0 0-1.214.653L6.312 21h1.101zM15.735 16.701 17.257 21h1.15l-1.253-3.536c-.451-.27-.924-.525-1.419-.763z"/><path style="opacity:.2;fill:#f4f4f7" d="M10.751 15.833C7.124 16.951 4.538 19.069 2 21h.658"/><circle style="fill:#ec503a" cx="11.5" cy="17.5" r=".5"/><path style="opacity:.2" d="M7.06 7.4c.615-1.562 2.62-2.747 4.103-3.6l.48-1.3h.99l.555 1.205c1.488.879 3.255 2.246 3.878 3.685.54 1.245 1.168 2.194.846 3.508L17.642 12c-.286-.344-.46-1.027-.623-1.973-.411-2.753-2.59-3.557-4.805-3.527-2.514.194-4.06 1.133-5.015 3.329-.21.492-.35 1.024-.564 1.808l-.341-.467c-.845-1.032.36-2.645.766-3.77z"/><path style="fill:#ed5e4a" d="M7.06 6.9c.615-1.562 2.62-2.747 4.103-3.6l.48-1.3h.99l.555 1.205c1.488.879 3.255 2.246 3.878 3.685.54 1.245 1.168 2.194.846 3.508l-.27 1.102c-.286-.344-.46-1.027-.623-1.973-.411-2.753-2.59-3.557-4.805-3.527-2.514.194-4.06 1.133-5.015 3.329-.21.492-.35 1.024-.564 1.808l-.341-.467c-.845-1.032.36-2.645.766-3.77z"/><path style="opacity:.1" d="M16 9.77 14.669 8.5h-.673L13.5 9.546v1.416L15.159 12l.841-.5z"/><path style="fill:#bddff5" d="M16 9.27 14.669 8h-.673L13.5 9.046v1.416l1.659 1.038L16 11z"/><path style="opacity:.1" d="m11 12.5-1 .93v2.012l1 1.058h2l1-1.058V13.43l-1-.93h-1zm.393 1h1.214l.393.365v1.18l-.43.455h-1.14l-.43-.455v-1.18z"/><path style="fill:#bddff5" d="m11 12-1 .93v2.012L11 16h2l1-1.058V12.93L13 12h-1zm.393 1h1.214l.393.365v1.18l-.43.455h-1.14l-.43-.455v-1.18z"/><path style="opacity:.1;fill:#f4f4f7" d="m11.643 2-.48 1.3C9.68 4.154 7.675 5.339 7.06 6.9c-.332.918-1.194 2.16-1.041 3.148.114-.883.763-1.88 1.04-2.648.616-1.562 2.62-2.747 4.104-3.6l.48-1.3h.99l.555 1.205c1.488.878 3.254 2.246 3.877 3.685.4.922.848 1.683.922 2.548.096-1.086-.446-1.953-.922-3.048-.623-1.439-2.39-2.807-3.878-3.685L12.634 2z"/></svg>