<svg height="24" width="24" xmlns="http://www.w3.org/2000/svg"><rect height="20" opacity=".2" rx="1" width="20" x="2" y="2.5"/><rect fill="#44d4d6" height="20" rx="1" width="20" x="2" y="2"/><rect fill="#4d4d4d" height="18" rx=".9" width="18" x="3" y="3"/><path d="m5 7.5v1h1v8h-1v1h5v-1h1v-1h1v-6h-1v-1h-1v-1zm3 1h1v1h1v6h-1v1h-1zm4-1v1h1v8h-1v1h6v-1h1v-4h-1v-1h1v-3h-1v-1zm3 1h2v3h-2zm0 4h2v4h-2z" opacity=".2"/><path d="m5 7v1h1v8h-1v1h5v-1h1v-1h1v-6h-1v-1h-1v-1zm3 1h1v1h1v6h-1v1h-1zm4-1v1h1v8h-1v1h6v-1h1v-4h-1v-1h1v-3h-1v-1zm3 1h2v3h-2zm0 4h2v4h-2z" fill="#ffb52e"/><path d="m3 2c-.554 0-1 .446-1 1v.5c0-.554.446-1 1-1h18c.554 0 1 .446 1 1v-.5c0-.554-.446-1-1-1z" fill="#f4f4f7" opacity=".2"/></svg>