<svg xmlns="http://www.w3.org/2000/svg" width="24" height="24" version="1"><path style="opacity:.2" d="M22 12.5a10 10 0 0 1-10 10 10 10 0 0 1-10-10 10 10 0 0 1 10-10 10 10 0 0 1 10 10z"/><path style="fill:#4f4f4f" d="M22 12a10 10 0 0 1-10 10A10 10 0 0 1 2 12 10 10 0 0 1 12 2a10 10 0 0 1 10 10z"/><path style="opacity:.1;fill:#f4f4f7" d="M12 2A10 10 0 0 0 2 12a10 10 0 0 0 .01.291A10 10 0 0 1 12 2.5a10 10 0 0 1 9.99 9.709A10 10 0 0 0 22 12 10 10 0 0 0 12 2z"/><path style="opacity:.2" d="M12 7.5a2 2 0 0 0-2 2 2 2 0 0 0 2 2 2 2 0 0 0 2-2 2 2 0 0 0-2-2zm0 5.5a3 3 0 0 0-3 3v6.037a10 10 0 0 0 2 .412v-3.625A3 3 0 0 0 12 19a3 3 0 0 0 3-3 3 3 0 0 0-3-3z"/><path style="fill:#f99c32" d="M9 15.5v6.037a10 10 0 0 0 2 .412V15.5H9z"/><circle style="fill:#e4701d" cx="12" cy="9" r="2"/><circle style="fill:#f99c32" cx="12" cy="15.5" r="3"/><path style="opacity:.2;fill:#f4f4f7" d="M12 7a2 2 0 0 0-2 2 2 2 0 0 0 .018.256A2 2 0 0 1 12 7.5a2 2 0 0 1 1.982 1.744A2 2 0 0 0 14 9a2 2 0 0 0-2-2zm0 5.5a3 3 0 0 0-3 3v.5a3 3 0 0 1 3-3 3 3 0 0 1 2.986 2.756A3 3 0 0 0 15 15.5a3 3 0 0 0-3-3z"/></svg>