<svg xmlns="http://www.w3.org/2000/svg" width="24" height="24" version="1"><path style="opacity:.2" d="M17.98 16.974c-.28 3.04-2.9 5.526-6.48 5.526-3.578 0-6.173-2.488-6.479-5.526-.307-3.052 2.803-14.428 6.48-14.474 3.702-.046 6.771 11.31 6.48 14.474z"/><path style="fill:#f2ad32" d="M17.98 16.474C17.7 19.514 15.08 22 11.5 22c-3.578 0-6.173-2.488-6.479-5.526C4.714 13.422 7.824 2.046 11.501 2c3.702-.046 6.771 11.31 6.48 14.474z"/><path style="opacity:.1" d="M8.646 16.505a1.48 1.48 0 0 0-1.32.602c-.213.285-.384.883-.308 1.084.059.157.128.134.285-.09.076-.109.287-.284.468-.39a1.485 1.485 0 0 1 1.823.265c.114.12.207.242.207.272 0 .029.043.052.095.052.164 0 .126-.601-.062-.978a1.454 1.454 0 0 0-1.188-.817zm5.708 0c-.482.042-.94.318-1.188.817-.188.377-.226.978-.062.978.052 0 .095-.023.095-.052 0-.03.093-.152.207-.272.478-.5 1.232-.61 1.823-.266.181.107.392.282.468.391.157.224.226.247.285.09.076-.2-.095-.8-.308-1.084a1.48 1.48 0 0 0-1.32-.602zm-1.637 2.569c-.134-.018-.243.08-.377.322-.199.357-.461.52-.84.52-.362 0-.634-.161-.832-.493-.198-.331-.336-.408-.53-.293-.16.096-.181.262-.062.522.178.387.618.708 1.12.818.64.14 1.466-.25 1.726-.816.121-.264.102-.426-.06-.524a.392.392 0 0 0-.145-.056z"/><path style="fill:#c67427" d="M13.11 3.504c-.02.003.017.108.193.63a29.74 29.74 0 0 1 1.072 4.142c.164.941.236 1.932.264 3.628.015.898.043 1.633.063 1.633.043 0 .106-.289.2-.92.356-2.368.076-4.787-.83-7.19-.219-.58-.835-1.851-.923-1.903-.017-.01-.031-.02-.038-.02zM10.47 4c-.028-.006-.084.15-.17.465-.186.687-.262 1.283-.291 2.27-.031 1.071.012 1.647.24 3.183.34 2.294.53 3.9.53 4.487 0 .163.014.364.031.446l.032.15.037-.134c.02-.072.062-.6.091-1.17.081-1.574.017-2.494-.427-6.1-.105-.849-.14-2.425-.071-3.204.022-.256.022-.387-.002-.393zM7.812 8.159c-.058-.014-.733 1.395-.886 1.85-.033.096-.09.49-.128.876a19.567 19.567 0 0 1-.196 1.38c-.097.521-.118.809-.091 1.228.033.51.068.676.23 1.11.045.121.09.163.167.153.088-.012.106-.079.117-.43.02-.621.107-1.021.561-2.586L8 10.315l-.008-.855c-.009-.874-.064-1.274-.18-1.301zM16.341 8.316c.037.137.068.27.092.399.093.491.164 1.24.164 1.742 0 .633.1.517.161-.186.024-.27.043-.43.062-.507-.148-.485-.308-.97-.479-1.448zM12.828 10.907c-.026 0-.034.044-.02.099.114.436.187 1.28.186 2.15-.001.526.015.925.036.89.12-.207.172-1.477.085-2.106-.06-.435-.227-1.033-.287-1.033zM17.423 14.933c-.006 0-.013.003-.02.01a6.11 6.11 0 0 0-.117.576c-.316 1.792-1.02 3.597-1.929 4.945-.283.42-.431.619-.602.755a6.23 6.23 0 0 0 1.824-1.451c.025-.06.054-.127.089-.199.532-1.102.81-2.392.812-3.764 0-.642-.012-.866-.057-.872zM6.814 17.084c-.021.006-.046.063-.071.176-.063.278.013 1.408.114 1.717.037.11.13.283.206.384.077.1.16.182.182.182.052 0 .052.01-.007-.176-.204-.644-.363-1.474-.364-1.903 0-.256-.025-.39-.06-.38z"/><path style="fill:#453f3d" d="M11.196 19.971c-.502-.11-.941-.432-1.12-.82-.119-.26-.1-.424.062-.52.193-.115.332-.039.53.293.199.332.47.492.832.492.379 0 .642-.162.84-.52.18-.322.313-.39.521-.266.163.097.182.261.06.525-.26.566-1.085.957-1.725.816zM7.018 17.69c-.075-.2.094-.797.308-1.082a1.467 1.467 0 0 1 2.508.215c.188.377.226.977.063.977-.053 0-.096-.024-.096-.053 0-.029-.094-.15-.208-.27-.478-.501-1.23-.61-1.82-.266-.182.106-.393.282-.47.391-.156.225-.226.246-.285.089z"/><path style="opacity:.2;fill:#f4f4f7" d="M11.5 2c-3.57.044-6.596 10.749-6.487 14.165C5.178 12.304 8.093 2.542 11.5 2.5c3.435-.042 6.322 9.725 6.487 13.661.1-3.512-2.891-14.205-6.487-14.16z"/><path style="fill:#453f3d" d="M15.982 17.69c.075-.2-.094-.797-.308-1.082a1.467 1.467 0 0 0-2.508.215c-.188.377-.226.977-.063.977.053 0 .096-.024.096-.053 0-.029.094-.15.208-.27.478-.501 1.23-.61 1.82-.266.182.106.393.282.47.391.156.225.226.246.285.089z"/></svg>