<svg xmlns="http://www.w3.org/2000/svg" width="24" height="24" version="1"><g transform="translate(1 1)"><rect fill="#d53068" width="20" height="20" x="-21" y="-21" rx="10" ry="10" transform="matrix(0 -1 -1 0 0 0)"/><path opacity=".2" d="M12.906 6.574a2 2 0 0 0-1.638.998 2 2 0 0 0-.193 1.534l-2.648 1.529A2 2 0 0 0 7 10.036a2 2 0 0 0-2 2 2 2 0 0 0 2 2 2 2 0 0 0 1.426-.6l2.647 1.53a2 2 0 0 0 .194 1.534 2 2 0 0 0 2.733.732 2 2 0 0 0 .732-2.732A2 2 0 0 0 12 13.768a2 2 0 0 0-.427.331l-2.648-1.528A2 2 0 0 0 9 12.036a2 2 0 0 0-.073-.535l2.647-1.529a2 2 0 0 0 .426.331 2 2 0 0 0 2.732-.731A2 2 0 0 0 14 6.839a2 2 0 0 0-1.095-.265z"/><path fill="#fff" d="M12.906 6.074a2 2 0 0 0-1.638.998 2 2 0 0 0-.193 1.534l-2.648 1.529A2 2 0 0 0 7 9.535a2 2 0 0 0-2 2 2 2 0 0 0 2 2 2 2 0 0 0 1.426-.599l2.647 1.53A2 2 0 0 0 11.267 16a2 2 0 0 0 2.733.732A2 2 0 0 0 14.732 14 2 2 0 0 0 12 13.268a2 2 0 0 0-.427.331l-2.648-1.528A2 2 0 0 0 9 11.536 2 2 0 0 0 8.927 11l2.647-1.529a2 2 0 0 0 .426.331 2 2 0 0 0 2.732-.731A2 2 0 0 0 14 6.339a2 2 0 0 0-1.095-.265z"/><path fill="#fff" opacity=".2" d="M11 1C5.46 1 1 5.46 1 11c0 .084.004.166.006.25A9.976 9.976 0 0 1 11 1.5a9.976 9.976 0 0 1 9.994 9.75c.002-.083.006-.166.006-.25 0-5.54-4.46-10-10-10z"/><path opacity=".2" d="M1.006 11.25c-.002.084-.006.166-.006.25 0 5.54 4.46 10 10 10s10-4.46 10-10c0-.084-.004-.167-.006-.25C20.862 16.673 16.456 21 11 21s-9.862-4.327-9.994-9.75z"/></g></svg>