<svg height="24" width="24" xmlns="http://www.w3.org/2000/svg">
    <g transform="translate(1 1)">
        <rect fill="#81dbf9" height="20" rx="1" transform="matrix(0 -1 -1 0 0 0)" width="20" x="-21" y="-21"/>
        <path d="M2 1c-.554 0-1 .446-1 1v.5c0-.554.446-1 1-1h18c.554 0 1 .446 1 1V2c0-.554-.446-1-1-1z" fill="#f4f4f7" opacity=".2"/>
        <path d="M2 21.5c-.554 0-1-.446-1-1V20c0 .554.446 1 1 1h18c.554 0 1-.446 1-1v.5c0 .554-.446 1-1 1z" opacity=".2"/>
        <g fill="#2a6c87">
            <circle cx="4" cy="10" r="2"/>
            <circle cx="16" cy="10" r="2"/>
            <path d="M13 13.394C13 14.281 11.433 15 9.5 15S6 14.281 6 13.394s1.567 0 3.5 0 3.5-.887 3.5 0z"/>
        </g>
        <g fill="#f4f4f7">
            <circle cx="4.5" cy="9.5"/>
            <circle cx="16.5" cy="9.5"/>
        </g>
    </g>
</svg>
