<svg height="24" width="24" xmlns="http://www.w3.org/2000/svg">
    <g transform="translate(1 1)">
        <path d="M1 4.5V19c0 .554.446 1 1 1h18c.554 0 1-.446 1-1V4.5z" fill="#c7c7c7"/>
        <path d="M2 2c-.554 0-1 .446-1 1v2h20V3c0-.554-.445-1-1-1z" fill="#00caff"/>
        <path d="M2 2c-.554 0-1 .446-1 1v.5c0-.554.446-1 1-1h18c.554 0 1 .446 1 1V3c0-.554-.446-1-1-1z" fill="#f4f4f7" opacity=".1"/>
        <path d="M1 19v.5c0 .554.446 1 1 1h18.001a.997.997 0 0 0 .999-1V19c0 .554-.445 1-.999 1H2c-.554 0-1-.446-1-1z" opacity=".2"/>
        <path d="M6 8.5h7v10H6z" opacity=".1"/>
        <path d="M6 8h7v10H6z" fill="#f4b801"/>
        <path d="M8 7.5v5c0 3 3 4 3 4h7s-3-1-3-4v-5z" opacity=".2"/>
        <path d="M8 7v5c0 3 3 4 3 4h7s-3-1-3-4V7z" fill="#fecd38"/>
        <circle cx="16.5" cy="16.5" fill="#333" r="5.5"/>
        <path d="M16.5 14s-.354-.007-.724.178c-.369.184-.776.655-.776 1.322h1c0-.5.5-.5.5-.5s.5 0 .5.5a.82.82 0 0 1-.203.578c-.133.167-.347.334-.597.522s-.536.395-.778.697A1.924 1.924 0 0 0 15 18.5v.5h3v-1h-1.824c.015-.022.01-.056.027-.078.133-.167.347-.334.597-.522s.536-.395.778-.697S18 15.986 18 15.5c0-.667-.407-1.138-.776-1.322-.37-.185-.724-.178-.724-.178z" fill="#f4f4f7" fill-rule="evenodd"/>
    </g>
</svg>
