<svg height="24" width="24" xmlns="http://www.w3.org/2000/svg">
    <rect fill="#124aa0" height="20" rx="10" width="20" x="2" y="2"/>
    <path d="M12 2C6.46 2 2 6.46 2 12v.25A9.98 9.98 0 0 1 12 2.5a9.98 9.98 0 0 1 10 9.75V12c0-5.54-4.46-10-10-10z" fill="#f4f4f7" opacity=".1"/>
    <path d="M2.006 12.25c-.002.084-.006.166-.006.25 0 5.54 4.46 10 10 10s10-4.46 10-10c0-.084-.004-.167-.006-.25A9.976 9.976 0 0 1 12 22a9.976 9.976 0 0 1-9.994-9.75z" opacity=".2"/>
    <path d="M8.013 7.5c-1.104 0-2.178.908-1.992 2l1.196 7c.186 1.092.889 2 1.993 2h5.58c1.104 0 1.807-.908 1.993-2l1.196-7c.186-1.092-.888-2-1.992-2zm3.987 3a2 2 0 0 1 1 3.73V16c0 .277-.223.5-.5.5h-1a.499.499 0 0 1-.5-.5v-1.77a2 2 0 0 1 1-3.73z" opacity=".2"/>
    <path d="M8.013 7c-1.104 0-2.178.908-1.992 2l1.196 7c.186 1.092.889 2 1.993 2h5.58c1.104 0 1.807-.908 1.993-2l1.196-7c.186-1.092-.888-2-1.992-2zM12 10a2 2 0 0 1 1 3.73v1.77c0 .277-.223.5-.5.5h-1a.499.499 0 0 1-.5-.5v-1.77A2 2 0 0 1 12 10z" fill="#f4f4f7"/>
</svg>
