<svg height="24" width="24" xmlns="http://www.w3.org/2000/svg"><circle cx="10.5" cy="20" opacity=".2" r="2.5"/><circle cx="6.5" cy="14.5" fill="#ff6bf4" r="2.5"/><circle cx="10.5" cy="19.5" fill="#ff6bf4" r="2.5"/><circle cx="8" cy="18.5" opacity=".2" r="4"/><circle cx="8" cy="18" fill="#cc4e38" r="4"/><circle cx="14.5" cy="16" opacity=".2" r="4.5"/><circle cx="14.5" cy="15.5" fill="#f26666" r="4.5"/><circle cx="12.5" cy="11" opacity=".2" r="6.5"/><circle cx="12.5" cy="10.5" fill="#fdcc58" r="6.5"/><path d="m11.717 11.397c-.708 2.673-2.403 4.673-5.045 3.956-2.642-.716-4.21-3.464-3.502-6.137.708-2.674 3.423-4.26 6.065-3.544s3.19 3.051 2.482 5.725z" fill-rule="evenodd" opacity=".2"/><circle cx="6" cy="19.5" opacity=".2" r="3"/><circle cx="6" cy="19" fill="#ff6bf4" r="3"/><path d="m11.717 10.897c-.708 2.673-2.403 4.673-5.045 3.956-2.642-.716-4.21-3.464-3.502-6.137.708-2.674 3.423-4.26 6.065-3.544s3.19 3.051 2.482 5.725z" fill="#f26666" fill-rule="evenodd"/><path d="m7.755 5.004a4.967 4.967 0 0 0 -4.585 3.712 5.055 5.055 0 0 0 -.161 1.548c.017-.348.068-.699.16-1.048.709-2.674 3.424-4.26 6.066-3.544 1.865.506 2.683 1.82 2.756 3.488.078-1.903-.708-3.433-2.756-3.988a4.897 4.897 0 0 0 -1.48-.168z" fill="#f4f4f7" fill-rule="evenodd" opacity=".2"/><circle cx="18" cy="5.5" opacity=".2" r="3"/><circle cx="18" cy="5" fill="#98ecef" r="3"/><circle cx="17" cy="10.5" opacity=".2" r="3"/><circle cx="17" cy="10" fill="#98ecef" r="3"/><circle cx="16" cy="7.5" opacity=".2" r="4"/><path d="m18 2a3 3 0 0 0 -3 3 3 3 0 0 0 .013.249 3 3 0 0 1 2.987-2.749 3 3 0 0 1 2.987 2.751 3 3 0 0 0 .013-.251 3 3 0 0 0 -3-3z" fill="#f4f4f7" fill-rule="evenodd" opacity=".2"/><circle cx="16" cy="7" fill="#4e59b3" r="4"/><g fill-rule="evenodd"><path d="m15 7.5c0 1.657-.766 3-2.273 3-1.506 0-2.727-1.343-2.727-3s1.221-3 2.727-3c1.507 0 2.273 1.343 2.273 3z" opacity=".2"/><path d="m15 7c0 1.657-.766 3-2.273 3-1.506 0-2.727-1.343-2.727-3s1.221-3 2.727-3c1.507 0 2.273 1.343 2.273 3z" fill="#98ecef"/><path d="m12.727 4c-1.507 0-2.727 1.343-2.727 3 0 .086.017.166.023.25.118-1.538 1.275-2.75 2.704-2.75 1.428 0 2.184 1.212 2.26 2.75.003-.084.013-.165.013-.25 0-1.657-.767-3-2.273-3z" fill="#f4f4f7" opacity=".1"/></g></svg>