<svg xmlns="http://www.w3.org/2000/svg" width="24" height="24"><g transform="translate(0 -1034.976)"><rect style="opacity:.2" width="20" height="20" x="-1057.48" y="-22" rx="1" ry="1" transform="matrix(0 -1 -1 0 0 0)"/><path style="fill:#17191e" d="M2 1053.926v1.979c0 .594.446 1.071 1 1.071h18c.554 0 1-.477 1-1.071V1053.926z"/><path style="fill:#009072" d="M3 1055.98h3v1H3zM8 1055.98h3v1H8zM13 1055.98h3v1h-3zM18 1055.98h3v1h-3z"/><path style="fill:#4551ff" d="M3 1036.976c-.554 0-1 .446-1 1v16h20v-16c0-.554-.446-1-1-1z"/><path style="opacity:.2" d="M4 1039.476v2h6v-2zm10 0v2h6v-2zm-10 4v2h6v-2zm10 0v2h6v-2zm-10 4v2h6v-2zm10 0v2h6v-2zm-10 4v2h6v-2zm10 0v2h6v-2z"/><path style="fill:#07e9ff" d="M11 1036.98h2v17h-2z"/><path style="fill:#ff0" d="M4 1038.98h6v2H4z"/><path style="opacity:.1;fill:#f4f4f7" d="M3 1036.976c-.554 0-1 .446-1 1v.5c0-.554.446-1 1-1h18c.554 0 1 .446 1 1v-.5c0-.554-.446-1-1-1z"/><path style="fill:#07e9ff" transform="rotate(90)" d="M1042.98-10h2v6h-2zM1046.98-10h2v6h-2zM1050.98-10h2v6h-2z"/><path style="fill:#ff0" d="M14 1038.98h6v2h-6z"/><path style="fill:#07e9ff" transform="rotate(90)" d="M1042.98-20h2v6h-2zM1046.98-20h2v6h-2z"/><path style="opacity:.2" d="M2 1053.98h20v.5H2z"/><path style="fill:#07e9ff" transform="rotate(90)" d="M1050.98-20h2v6h-2z"/><path style="fill:#f4f4f7;opacity:.2" transform="translate(0 1034.976)" d="M4 4v.5h6V4H4zm10 0v.5h6V4h-6zM4 8v.5h6V8H4zm10 0v.5h6V8h-6zM4 12v.5h6V12H4zm10 0v.5h6V12h-6zM4 16v.5h6V16H4zm10 0v.5h6V16h-6z"/></g></svg>