<svg height="24" width="24" xmlns="http://www.w3.org/2000/svg"><rect fill="#c2352a" height="20" rx="1" width="20" x="2" y="2"/><path d="m6.629 4.137-2.829 2.828 1.414 1.414 2.829-2.829zm10.707 0-3.536 3.535 2.828 2.828 3.535-3.535zm-8.586 2.12-2.828 2.83 1.414 1.413 2.828-2.828zm3.25 2.243c-1.648 0-3 1.354-3 3.002a3.01 3.01 0 0 0 3 2.998c1.648 0 3-1.35 3-2.998a3.013 3.013 0 0 0 -3-3.002zm0 2" opacity=".2"/><path d="m6.629 3.637-2.829 2.828 1.414 1.414 2.829-2.829zm10.707 0-3.536 3.535 2.829 2.828 3.535-3.535zm-8.586 2.12-2.828 2.83 1.414 1.413 2.828-2.828-1.414-1.414zm3.25 2.243c-1.648 0-3 1.354-3 3.002a3.01 3.01 0 0 0 3 2.998c1.648 0 3-1.35 3-2.998a3.013 3.013 0 0 0 -3-3.002zm0 2" fill="#ffc75e"/><path d="m3 2c-.554 0-1 .446-1 1v.5c0-.554.446-1 1-1h18c.554 0 1 .446 1 1v-.5c0-.554-.446-1-1-1z" fill="#f4f4f7" opacity=".2"/><path d="m3 22.5c-.554 0-1-.446-1-1v-.5c0 .554.446 1 1 1h18c.554 0 1-.446 1-1v.5c0 .554-.446 1-1 1z" opacity=".2"/></svg>