<svg height="24" width="24" xmlns="http://www.w3.org/2000/svg"><rect height="20" opacity=".2" rx="6" width="20" x="2" y="2.5"/><rect fill="#424652" height="20" rx="6" width="20" x="2" y="2"/><path d="m8 2c-3.324 0-6 2.676-6 6v.5c0-3.324 2.676-6 6-6h8c3.324 0 6 2.676 6 6v-.5c0-3.324-2.676-6-6-6z" fill="#f4f4f7" opacity=".1"/><path d="m9.5 15.5a2.5 2.5 0 0 0 -2.5 2.5 2.5 2.5 0 0 0 2.5 2.5 2.5 2.5 0 0 0 2.5-2.5v-2.5z" opacity=".2"/><path d="m9.5 15a2.5 2.5 0 0 0 -2.5 2.5 2.5 2.5 0 0 0 2.5 2.5 2.5 2.5 0 0 0 2.5-2.5v-2.5z" fill="#09c37b"/><path d="m9.5 10.5h2.5v5h-2.5a2.495 2.495 0 0 1 -2.5-2.5c0-1.385 1.115-2.5 2.5-2.5z" opacity=".2"/><circle cx="14.5" cy="13" opacity=".2" r="2.5"/><path d="m9.5 10h2.5v5h-2.5a2.495 2.495 0 0 1 -2.5-2.5c0-1.385 1.115-2.5 2.5-2.5z" fill="#9154dd"/><circle cx="14.5" cy="12.5" fill="#01b1f8" r="2.5"/><path d="m9.5 5.5a2.495 2.495 0 0 0 -2.5 2.5c0 1.385 1.115 2.5 2.5 2.5h2.5v-5z" opacity=".2"/><path d="m9.5 5a2.495 2.495 0 0 0 -2.5 2.5c0 1.385 1.115 2.5 2.5 2.5h2.5v-5z" fill="#f24e1e"/><path d="m12 5.5h2.5c1.385 0 2.5 1.115 2.5 2.5s-1.115 2.5-2.5 2.5h-2.5z" opacity=".2"/><path d="m12 5h2.5c1.385 0 2.5 1.115 2.5 2.5s-1.115 2.5-2.5 2.5h-2.5z" fill="#ff7262"/><path d="m9.5 5a2.495 2.495 0 0 0 -2.487 2.75 2.494 2.494 0 0 1 2.487-2.25h5c1.3 0 2.362.984 2.487 2.25a2.495 2.495 0 0 0 -2.487-2.75h-2.5z" fill="#f4f4f7" opacity=".2"/></svg>