<svg height="24" width="24" xmlns="http://www.w3.org/2000/svg"><path d="m38.058 4.103-20.232 4.214c-3.54.426-3.826 3.683-3.826 3.678v14.271a7.994 7.994 0 0 0 -2-.266 8 8 0 1 0 0 16 8 8 0 0 0 7.93-7s.07-.727.07-1v-20.07l16-3.458v11.794a7.994 7.994 0 0 0 -2-.266 8 8 0 1 0 0 16 8 8 0 0 0 7.93-7l.07-1v-22.703s.027-3.902-3.942-3.194z" opacity=".2" transform="matrix(.5 0 0 .5 0 1.5)"/><path d="m38.058 4.103-20.232 4.214c-3.54.426-3.826 3.683-3.826 3.678v14.271a7.994 7.994 0 0 0 -2-.266 8 8 0 1 0 0 16 8 8 0 0 0 7.93-7s.07-.727.07-1v-20.07l16-3.458v11.794a7.994 7.994 0 0 0 -2-.266 8 8 0 1 0 0 16 8 8 0 0 0 7.93-7l.07-1v-22.703s.027-3.902-3.942-3.194z" fill="#f5c839" transform="matrix(.5 0 0 .5 0 1)"/><path d="m19.684 3.02a2.357 2.357 0 0 0 -.655.033l-10.115 2.105c-1.77.213-1.914 1.842-1.914 1.84v.5c0 .002.144-1.627 1.914-1.84l10.116-2.107c1.984-.355 1.97 1.597 1.97 1.597v-.5s.01-1.492-1.316-1.628zm-2.684 8.98a4 4 0 0 0 -4 4c0 .086.02.166.025.25.132-2.09 1.851-3.75 3.975-3.75.338.002.673.046 1 .133v-.5a3.997 3.997 0 0 0 -1-.133zm-11 2a4 4 0 0 0 -4 4c0 .086.02.166.025.25.132-2.09 1.851-3.75 3.975-3.75.338.002.673.046 1 .133v-.5a3.997 3.997 0 0 0 -1-.133z" fill="#f4f4f7" opacity=".2"/><circle cx="17" cy="17" fill="#61aac5" r="6"/><path d="m15.154 14a1.154 1.154 0 0 0 0 2.308c.206 0 .395-.065.563-.159l.908.851-.908.851a1.142 1.142 0 0 0 -.563-.159 1.154 1.154 0 1 0 1.11.851l.981-.952 2.063 1.947h.692v-.462l-3.735-3.62a1.154 1.154 0 0 0 -1.11-1.456zm0 .692a.462.462 0 1 1 0 .923.462.462 0 0 1 0-.923zm4.154-.23-1.818 1.716.606.591 1.904-1.846v-.461zm-4.154 3.923a.462.462 0 1 1 0 .923.462.462 0 0 1 0-.923z" fill="#f4f4f7"/></svg>