<svg xmlns="http://www.w3.org/2000/svg" width="24" height="24">
    <path style="opacity:.2" d="M2.742 2.5A.742.742 0 0 0 2 3.246V12.5c0 .835.253 1.608.688 2.248 1.04 1.547 2.531 3.475 4.21 5.025.511.513 1.084.974 1.686 1.368.037.025.073.053.11.078l.175.11c.4.256.803.482 1.21.663.57.315 1.22.508 1.921.508h9.258a.728.728 0 0 0 .472-.182c.005-.002.01-.001.014-.004l.002-.002c.003-.002.003-.007.006-.01a.733.733 0 0 0 .143-.185c.012-.021.029-.038.039-.06a.736.736 0 0 0 .066-.301V12.5c0-.246-.028-.485-.07-.719-.015-.082-.037-.161-.057-.242a3.959 3.959 0 0 0-.143-.459c-.027-.074-.053-.147-.085-.219a3.98 3.98 0 0 0-.305-.562c-.008-.013-.013-.027-.022-.04l-.006-.007a17.226 17.226 0 0 0-1.39-1.902c-.878-1.127-1.888-2.288-2.99-3.282-1.008-.884-2.06-1.628-3.073-2.084-.62-.269-1.242-.445-1.859-.484H6z"/>
    <path style="fill:#125072" d="M2.743 2A.742.742 0 0 0 2 2.745V12c0 .835.253 1.608.688 2.248C4.72 17.272 8.465 21.778 12 22h3.236l.464-.1h5.757a.55.55 0 0 0 .287-.086h.002a.74.74 0 0 0 .254-.56V12a3.99 3.99 0 0 0-.688-2.248c-1.075-1.6-2.631-3.608-4.38-5.184-1.007-.884-2.06-1.628-3.073-2.084C13.24 2.215 12.617 2.04 12 2H6z"/>
    <path style="fill:#f4f4f7" d="M5.743 5A.742.742 0 0 0 5 5.745V15.95c.461 3.013 4.428 5.818 7 6.05h2.743l.157-.05h6.357c.412 0 .736-.41.743-.823V12a3.99 3.99 0 0 0-.688-2.248C19.796 7.36 17.735 5.12 15 5H9z"/>
    <path style="fill:#00cae5" d="M8.743 8A.742.742 0 0 0 8 8.745V13h5v-3l6.5 4.5L13 18v-2H8v2c0 2.216 1.784 4 4 4h9.257a.742.742 0 0 0 .743-.745V12c0-2.216-1.784-4-4-4h-6z"/>
    <path style="opacity:.1;fill:#f4f4f7" d="M2.743 2A.742.742 0 0 0 2 2.745v.5c0-.413.331-.745.743-.745H12c.617.039 1.24.215 1.86.484 1.011.456 2.065 1.2 3.073 2.084 1.748 1.576 3.304 3.585 4.38 5.184A3.99 3.99 0 0 1 22 12.5V12a3.99 3.99 0 0 0-.688-2.248c-1.075-1.6-2.631-3.608-4.38-5.184-1.007-.884-2.06-1.628-3.073-2.084C13.24 2.215 12.617 2.04 12 2H6z"/>
    <path style="opacity:.2" d="M19.094 14.719 13 18v.5l6.5-3.5zM8 16v.5h5V16z"/>
</svg>
