<svg height="64" viewBox="0 0 16.933 16.933" width="64" xmlns="http://www.w3.org/2000/svg" xmlns:xlink="http://www.w3.org/1999/xlink"><filter id="a" color-interpolation-filters="sRGB" height="1.054" width="1.054" x="-.027" y="-.027"><feGaussianBlur stdDeviation=".61875"/></filter><linearGradient id="b" gradientUnits="userSpaceOnUse" x1="1.19060276" x2="15.74239936" y1="15.7397532" y2="1.1879566"><stop offset="0" stop-color="#ff7d50"/><stop offset=".50594032" stop-color="#ff4b5a"/><stop offset="1" stop-color="#ff509b"/></linearGradient><rect fill="#141414" filter="url(#a)" height="55" opacity=".3" ry="15" stroke-linecap="round" stroke-width="2.74436" transform="scale(.26457812)" width="55" x="4.5" y="4.5"/><rect fill="url(#b)" height="14.551796" ry="3.968672" stroke-linecap="round" stroke-width=".726098" width="14.551796" x="1.190602" y="1.190602"/><path d="m10.898 4.8621v1.018q-.59427-.28421-1.1214-.42374-.52709-.13952-1.018-.13952-.85264 0-1.3177.33072-.45991.33072-.45991.94049 0 .51159.30488.77513.31005.25838 1.1679.41857l.63044.12919q1.1679.2222 1.7208.78547.55809.55809.55809 1.4986 0 1.1214-.75446 1.7001-.74929.57876-2.2014.57876-.54776 0-1.1679-.12402-.61494-.12402-1.2764-.3669v-1.0748q.63561.35656 1.2454.53742t1.1989.18086q.89398 0 1.3797-.35139.48575-.35139.48575-1.0025 0-.56843-.35139-.88882-.34623-.32039-1.142-.48058l-.63561-.12402q-1.1679-.23254-1.6898-.72862t-.52192-1.3797q0-1.0232.71829-1.6123.72346-.5891 1.9895-.5891.54259 0 1.1059.098183.56326.098183 1.1524.29455z" fill="#fff" stroke-width=".26458" transform="translate(-.18104 -.005135)"/><g fill="#5e4aa6"><circle cx="-320.15414" cy="-342.76096" r="0" stroke-width=".264578"/><circle cx="-291.50034" cy="-358.66208" r="0" stroke-width=".264578"/><g stroke-width=".26458"><circle cx="-329.384464" cy="-336.124304" r="0"/><circle cx="-300.714454" cy="-352.044284" r="0"/><circle cx="-258.014474" cy="-355.874304" r="0"/><circle cx="32.881536" cy="-21.056294" fill-rule="evenodd" r="0"/><circle cx="-256.294474" cy="-358.264284" r="0"/><circle cx="34.606536" cy="-23.440294" fill-rule="evenodd" r="0"/></g><g stroke-width=".26457812"><circle cx="-374.398081444" cy="-328.500193792" r="0"/><circle cx="-345.717813236" cy="-344.427796616" r="0"/><circle cx="-350.427303772" cy="-329.66433752" r="0"/></g><circle cx="-350.21564" cy="-335.40567" r="0" stroke-width=".264578"/><circle cx="-59.300358" cy="-.577547" fill-rule="evenodd" r="0" stroke-width=".264578"/></g></svg>