<svg xmlns="http://www.w3.org/2000/svg" height="24" width="24"><g transform="translate(1 1)"><circle style="opacity:.2" cx="11" r="10" cy="11.5"/><circle style="fill:#ff4f4f" cx="11" r="10" cy="11"/><path style="opacity:.2" d="m11 1.5-1 5h2zm-6 9-4 1 4 1zm12 0v2l4-1zm-7 6 1 5 1-5z"/><path style="fill:#f7df67" d="m11 1-1 5h2zm-6 9-4 1 4 1zm12 0v2l4-1zm-7 6 1 5 1-5z"/><path style="opacity:.2;fill:#f4f4f7" d="M11 1A10 10 0 0 0 1 11a10 10 0 0 0 .01.293A10 10 0 0 1 11 1.5a10 10 0 0 1 9.99 9.707A10 10 0 0 0 21 11 10 10 0 0 0 11 1z"/><path style="opacity:.2" d="M7.5 9.5a1.5 2 0 0 0-1.5 2 1.5 2 0 0 0 1.5 2 1.5 2 0 0 0 1.5-2 1.5 2 0 0 0-1.5-2zm4 0a1.5 2 0 0 0-1.5 2 1.5 2 0 0 0 1.5 2 1.5 2 0 0 0 1.5-2 1.5 2 0 0 0-1.5-2zm3.5 0-1 1h1v3h1v-4zm-7.5 1a.5 1 0 0 1 .5 1 .5 1 0 0 1-.5 1 .5 1 0 0 1-.5-1 .5 1 0 0 1 .5-1zm4 0a.5 1 0 0 1 .5 1 .5 1 0 0 1-.5 1 .5 1 0 0 1-.5-1 .5 1 0 0 1 .5-1z"/><path d="M15 13h1V9h-1l-1 1h1zM7.5 9A1.5 2 0 0 0 6 11a1.5 2 0 0 0 1.5 2A1.5 2 0 0 0 9 11a1.5 2 0 0 0-1.5-2zm0 1a.5 1 0 0 1 .5 1 .5 1 0 0 1-.5 1 .5 1 0 0 1-.5-1 .5 1 0 0 1 .5-1zM11.5 9a1.5 2 0 0 0-1.5 2 1.5 2 0 0 0 1.5 2 1.5 2 0 0 0 1.5-2 1.5 2 0 0 0-1.5-2zm0 1a.5 1 0 0 1 .5 1 .5 1 0 0 1-.5 1 .5 1 0 0 1-.5-1 .5 1 0 0 1 .5-1z" style="fill:#f4f4f7"/><path style="opacity:.2" d="M11 5.5a7 6 0 0 0-1.05.076L8 8.5h9.053A7 6 0 0 0 11 5.5zm-1.08.08A7 6 0 0 0 4.945 8.5H7zM4.947 14.5a7 6 0 0 0 4.979 2.926L7 14.5zM8 14.5l1.953 2.93A7 6 0 0 0 11 17.5a7 6 0 0 0 6.055-3z"/><path style="fill:#f4f4f7" d="M11 5a7 6 0 0 0-1.05.076L8 8h9.053A7 6 0 0 0 11 5zm-1.08.08A7 6 0 0 0 4.945 8H7zM4.947 14a7 6 0 0 0 4.979 2.926L7 14zM8 14l1.953 2.93A7 6 0 0 0 11 17a7 6 0 0 0 6.055-3z"/></g></svg>