<svg xmlns="http://www.w3.org/2000/svg" width="24" height="24"><path style="opacity:.2" d="M3 2.5c-1.108 0-2 .892-2 2v15c0 1.108.892 2 2 2h10.5C23 21.5 23 18 23 12V4.5c0-1.108-.892-2-2-2h-7.5z"/><path style="fill:#f4f4f7" d="M3 2c-1.108 0-2 .892-2 2v15c0 1.108.892 2 2 2h10.5c9.5 0 9.5-3.5 9.5-9.5V4c0-1.108-.892-2-2-2h-7.5z"/><path style="opacity:.2;fill:#f4f4f7" d="M3 2c-1.108 0-2 .892-2 2v.5c0-1.108.892-2 2-2h18c1.108 0 2 .892 2 2V4c0-1.108-.892-2-2-2z"/><path style="opacity:.3" d="M5 7c-.554 0-1 .446-1 1v9c0 .554.446 1 1 1h9.5c5.5 0 5.5-2.5 5.5-5.5V8c0-.554-.446-1-1-1h-4.5z"/><rect style="fill:#b8dd16" width="8" height="7" x="8" y="9" rx=".9" ry=".948"/><circle style="opacity:.1" cx="5.75" cy="11.25" r=".75"/><circle style="fill:#e2527d" cx="5.75" cy="10.75" r=".75"/><path style="opacity:.15" d="M4 2v2H1v1h22V4h-3V2h-1v2H5V2z"/><path style="opacity:.1" d="M8.9 9c-.498 0-.9.424-.9.95v.5c0-.526.402-.95.9-.95h6.2c.498 0 .9.424.9.95v-.5c0-.526-.402-.95-.9-.95H8.9z"/></svg>