<svg height="24" width="24" xmlns="http://www.w3.org/2000/svg">
    <path d="M10.499 2.5C5.835 2.5 2 6.336 2 11.001c0 4.666 3.835 8.501 8.499 8.501h.004c.93-.001 1.836-.193 2.708-.49l2.26 2.26c1.378 1.38 3.85 1.806 5.48.177 1.627-1.628 1.2-4.102-.178-5.48l-2.26-2.262c.294-.872.484-1.775.484-2.705 0-4.666-3.834-8.502-8.498-8.502z" opacity=".2"/>
    <path d="M10.499 2C5.835 2 2 5.836 2 10.501c0 4.666 3.835 8.501 8.499 8.501h.004c.93-.001 1.836-.193 2.708-.49l2.26 2.26c1.378 1.38 3.85 1.806 5.48.177 1.627-1.628 1.2-4.102-.178-5.48l-2.26-2.262c.294-.872.484-1.775.484-2.705C18.997 5.835 15.163 2 10.5 2z" fill="#5bbc41"/>
    <path d="M13.455 13.4c-.898 0-.455.622-.455 1l.027.44 4.266 4.267c.942.982 2.396-.471 1.414-1.414l-5-5c-.188-.194.018.707-.252.707z" opacity=".2"/>
    <path d="M13.455 13c-.898 0-.455.622-.455 1l.027.44 4.266 4.267c.942.982 2.396-.472 1.414-1.414l-5-5c-.188-.194.018.707-.252.707z" fill="#565656"/>
    <path d="M10.5 5.4A5.5 5.5 0 0 0 5 10.9a5.5 5.5 0 0 0 5.5 5.5 5.5 5.5 0 0 0 5.5-5.5 5.5 5.5 0 0 0-5.5-5.5zm0 2a3.5 3.5 0 0 1 3.5 3.5 3.5 3.5 0 0 1-3.5 3.5A3.5 3.5 0 0 1 7 10.9a3.5 3.5 0 0 1 3.5-3.5z" opacity=".2"/>
    <g fill="#f4f4f7">
        <path d="M10.5 5A5.5 5.5 0 0 0 5 10.5a5.5 5.5 0 0 0 5.5 5.5 5.5 5.5 0 0 0 5.5-5.5A5.5 5.5 0 0 0 10.5 5zm0 2a3.5 3.5 0 0 1 3.5 3.5 3.5 3.5 0 0 1-3.5 3.5A3.5 3.5 0 0 1 7 10.5 3.5 3.5 0 0 1 10.5 7z"/>
        <path d="M10.499 2C5.835 2 2 5.836 2 10.501c0 .085.01.166.013.25.135-4.55 3.906-8.25 8.486-8.25s8.352 3.701 8.486 8.253c.003-.084.013-.167.013-.252 0-4.666-3.835-8.502-8.5-8.502zm8.13 11.323c-.039.128-.074.258-.117.384l2.261 2.262a4.255 4.255 0 0 1 1.216 2.661c.068-1.17-.409-2.353-1.216-3.161z" opacity=".1"/>
    </g>
</svg>
