<svg height="24" width="24" xmlns="http://www.w3.org/2000/svg">
    <path d="M5 22.5c-.554 0-1-.446-1-1v-18c0-.554.446-1 1-1h14c.554 0 1 .446 1 1v13l-6 6z" opacity=".2"/>
    <path d="M5 22c-.554 0-1-.446-1-1V3c0-.554.446-1 1-1h14c.554 0 1 .446 1 1v13l-6 6z" fill="#f4f4f7"/>
    <path d="M5 2c-.554 0-1 .446-1 1v.5c0-.554.446-1 1-1h14c.554 0 1 .446 1 1V3c0-.554-.446-1-1-1z" fill="#f4f4f7" opacity=".2"/>
    <path d="M14 22v-5a1 1 0 0 1 1-1h5z" fill="#fafafa"/>
    <path d="M21.051 2.504a1.096 1.096 0 0 0-.606.287L10 13.236V16.5h3.264L23.711 6.055s.653-.654 0-1.307l-1.959-1.957c-.245-.245-.491-.306-.701-.287z" opacity=".1"/>
    <path d="M10 16v-3.264L13.264 16z" fill="#f3d491"/>
    <path d="M10 16v-1.306L11.306 16z" fill="#545454"/>
    <path d="M20.446 2.29 10 12.736 13.264 16 23.71 5.554s.653-.652 0-1.305L21.751 2.29c-.653-.653-1.305 0-1.305 0z" fill="#ffbb29"/>
</svg>
