<svg xmlns="http://www.w3.org/2000/svg" width="24" height="24"><circle style="opacity:.2" cx="12" cy="12.5" r="10"/><circle style="fill:#4f4f4f" cx="12" cy="12" r="10"/><path style="opacity:.2;fill:none;stroke:#000;stroke-width:2;stroke-linejoin:round" d="M5.004 16.276c.531-2.418.94-6.038 2.762-7.776.788 1.4.079 5.826 1.028 8l1.34-4 1.06 2 1.889-1.5 1.555.75 2.195-.5 1.46.25 1.373-.168"/><path style="fill:none;stroke:#f4f4f7;stroke-width:2;stroke-linejoin:round" d="M5.004 15.776c.531-2.418.94-6.038 2.762-7.776.788 1.4.079 5.825 1.028 8l1.34-4 1.06 2 1.889-1.5 1.555.75 2.195-.5 1.46.25 1.373-.168"/><path style="opacity:.15;fill:#f4f4f7" d="M12 2a10 10 0 0 0-9.84 8.276A10 10 0 0 1 8.5 8a10 10 0 0 1 10 10 10 10 0 0 1-.16 1.724A10 10 0 0 0 22 12 10 10 0 0 0 12 2z"/><path style="opacity:.1;fill:#f4f4f7" d="M12 2A10 10 0 0 0 2 12a10 10 0 0 0 .01.291A10 10 0 0 1 12 2.5a10 10 0 0 1 9.99 9.709A10 10 0 0 0 22 12 10 10 0 0 0 12 2z"/></svg>