<svg xmlns="http://www.w3.org/2000/svg" width="24" height="24" version="1"><path style="fill:#0091cf" d="M21 12.488c0 2.54-.997 4.848-2.621 6.552-1.73 1.816-4.607.003-7.313.003-2.748 0-4.79 1.778-6.524-.087A9.467 9.467 0 0 1 2 12.488a9.5 9.5 0 0 1 19 0z"/><path style="opacity:.1;fill:#f4f4f7" d="M11.5 2.988a9.5 9.5 0 0 0-9.5 9.5c0 .086.01.17.012.254.131-5.132 4.324-9.254 9.488-9.254 5.163 0 9.356 4.121 9.488 9.252.002-.084.012-.167.012-.252a9.5 9.5 0 0 0-9.5-9.5z"/><path style="opacity:.2" d="m16 2.5-2 2h-3v3l-2 2 2 2v3h3l2 2 2-2h3v-3l2-2-2-2v-3h-3z"/><path style="fill:#ff8a47" d="m16 2-2 2h-3v3L9 9l2 2v3h3l2 2 2-2h3v-3l2-2-2-2V4h-3z"/><circle style="opacity:.2" cx="16" cy="9.5" r="4"/><circle style="fill:#ffcc42" cx="16" cy="9" r="4"/><path style="opacity:.2;fill:#f4f4f7" d="m16 2-2 2h-3v.5h3l2-2 2 2h3V4h-3zm-5 5L9 9l.25.25L11 7.5zm10 0v.5l1.75 1.75L23 9zM16 5a4 4 0 0 0-4 4 4 4 0 0 0 .01.288A4 4 0 0 1 16 5.5a4 4 0 0 1 3.99 3.712A4 4 0 0 0 20 9a4 4 0 0 0-4-4z"/><circle style="opacity:.2" cx="11.5" cy="15.5" r="4"/><path style="opacity:.2" d="M11.5 10.5A4.5 4.5 0 0 0 7 15a4.5 4.5 0 0 0 .059.697A3 3 0 0 0 6 15.5a3 3 0 0 0-3 3 3 3 0 0 0 3 3h11a3 3 0 0 0 3-3 3 3 0 0 0-3-3 3 3 0 0 0-1.06.193A4.5 4.5 0 0 0 16 15a4.5 4.5 0 0 0-4.5-4.5z"/><circle style="fill:#f4f4f7" cx="6" cy="18" r="3"/><circle style="fill:#f4f4f7" cx="11.5" cy="14.5" r="4.5"/><circle style="fill:#f4f4f7" cx="17" cy="18" r="3"/><path style="fill:#f4f4f7" d="M6 17h11v4H6z"/></svg>