<svg height="64" viewBox="0 0 64 64" width="64" xmlns="http://www.w3.org/2000/svg" xmlns:xlink="http://www.w3.org/1999/xlink"><filter id="a" color-interpolation-filters="sRGB" height="1.054" width="1.054" x="-.027" y="-.027"><feGaussianBlur stdDeviation=".61875"/></filter><linearGradient id="b" gradientUnits="userSpaceOnUse" x1="4.5" x2="59.5" y1="59.49" y2="4.49"><stop offset="0" stop-color="#dee0e2"/><stop offset="1" stop-color="#f1f3f5" stop-opacity=".99608"/></linearGradient><linearGradient id="c" gradientUnits="userSpaceOnUse" x1="25.144969" x2="25.144969" y1="-14.104313" y2="-10.2756"><stop offset="0" stop-color="#ff5032"/><stop offset="1" stop-color="#e63214"/></linearGradient><linearGradient id="d" gradientUnits="userSpaceOnUse" x1="13.583092" x2="13.583092" y1="10.27742" y2="14.106133"><stop offset="0" stop-color="#ff8214"/><stop offset="1" stop-color="#ffbe14"/></linearGradient><linearGradient id="e" gradientUnits="userSpaceOnUse" x1="19.36403" x2="19.36403" y1="-14.104313" y2="-10.2756"><stop offset="0" stop-color="#3cd23c"/><stop offset="1" stop-color="#1eaa1e"/></linearGradient><linearGradient id="f" gradientTransform="matrix(.90909087 0 0 .7272727 122.45454 13.25611)" gradientUnits="userSpaceOnUse" x1="-127" x2="-72" y1="60" y2="5"><stop offset="0" stop-color="#32d7ff"/><stop offset="1" stop-color="#329bff"/></linearGradient><g fill="#5e4aa6"><circle cx="-1325.581" cy="-1264.626" r="0"/><circle cx="-1217.181" cy="-1324.826" r="0"/><circle cx="-1055.83101" cy="-1339.326" r="0"/><circle cx="43.639" cy="-73.831" fill-rule="evenodd" r="0"/><circle cx="-1049.33101" cy="-1348.326" r="0"/><circle cx="50.159" cy="-82.842002" fill-rule="evenodd" r="0"/></g><circle cx="-1248.7" cy="-1241.6" fill="#5e4aa6" r="0"/><circle cx="-149.14999" cy="23.855" fill="#5e4aa6" fill-rule="evenodd" r="0"/><rect fill="#141414" filter="url(#a)" height="55" opacity=".3" ry="15" stroke-linecap="round" stroke-width="2.7444" width="55" x="4.5" y="4.5"/><rect fill="url(#b)" height="55" ry="15" stroke-linecap="round" stroke-width="2.7444" width="55" x="4.5" y="4.5"/><g stroke-linecap="round" stroke-linejoin="round" stroke-width="2.43968" transform="translate(3.407027 -.625591)"><circle cx="25.111494" cy="-12.190866" fill="url(#c)" r="2" transform="scale(1 -1)"/><circle cx="13.549615" cy="12.190866" fill="url(#d)" r="2"/><circle cx="19.330555" cy="-12.190866" fill="url(#e)" r="2" transform="scale(1 -1)"/></g><g fill="#5e4aa6"><circle cx="-1043.3097" cy="-1279.3" r="0"/><circle cx="-924.85559" cy="-1318.599" r="0" stroke-width="1.00001"/><circle cx="174.68216" cy="-53.108505" fill-rule="evenodd" r="0" stroke-width="1.00001"/><circle cx="-846.35333" cy="-1390.1091" r="0" stroke-width="1.00001"/><circle cx="253.18143" cy="-124.58187" fill-rule="evenodd" r="0" stroke-width="1.00001"/></g><path d="m19.551122 16.89975h24.897756c6.953322 0 12.551122 5.5978 12.551122 12.551121v14.897757c0 6.953321-5.5978 12.551122-12.551122 12.551122h-24.897756c-6.953322 0-12.551122-5.597801-12.551122-12.551122v-14.897757c0-6.953321 5.5978-12.551121 12.551122-12.551121z" fill="url(#f)"/><path d="m39.273242 25.39975c-4.67222 0-5.5487 6.826334-2.919951 6.826334 2.627681 0 7.592746-6.826334 2.919951-6.826334zm-7.19669 1.050246c-.07359-.000259-.153607.0067-.236433.01477-2.647715.321555-1.715849 4.630184-.306362 4.710533 1.3648.07835 2.857966-4.717417.541876-4.724909zm-4.591011 1.59066c-.161984-.0099-.341304.01969-.540942.09825-2.128123.84027-.322923 4.308888.868462 4.075717 1.081342-.211293 1.236367-4.076443-.32752-4.174155zm-3.473607 2.835805c-.184971-.0049-.384542.05632-.59798.209183-1.703517 1.222433.573157 4.175682 1.575485 3.717802.876755-.401088.317399-3.881854-.977731-3.926985zm10.061271 2.819327c-3.69096-.06082-8.560013 1.740079-9.390587 5.357747-.898825 3.914636 3.702582 9.346215 8.503177 9.346215 2.361594 0 5.08542-2.075225 5.595473-4.703365.389164-2.003829-4.580273-1.20078-4.40197.125022.214358 1.589477-1.198561 2.375187-2.582124 1.350706-4.404088-3.261962 7.292357-4.889686 6.520873-9.346231-.240121-1.387293-2.030321-2.09374-4.244842-2.130193z" fill="#fff" fill-opacity=".852041" stroke-width=".834363"/></svg>