<svg xmlns="http://www.w3.org/2000/svg" width="24" height="24" version="1">
    <path style="opacity:.2" d="M4.5 3.5A2.503 2.503 0 0 0 2 6c0 1.378 1.122 2.5 2.5 2.5S7 7.378 7 6 5.878 3.5 4.5 3.5zm16.045.002c-.49.02-.988.194-1.461.473A.228.228 0 0 0 19 4.28l.777 1.399-2.588 1.568a.406.406 0 0 0-.142.533l.29.53a.369.369 0 0 0 .513.136l2.591-1.572.838 1.508a.228.228 0 0 0 .287.1c.732-.31 1.231-.855 1.432-1.504.201-.65.105-1.394-.291-2.098-.442-.786-1.032-1.223-1.676-1.344a2.163 2.163 0 0 0-.486-.035zM9.5 4.484c-.818 0-1.5.677-1.5 1.508S8.682 7.5 9.5 7.5 11 6.823 11 5.992c0-.83-.682-1.508-1.5-1.508zm5 0c-.818 0-1.5.677-1.5 1.508S13.682 7.5 14.5 7.5 16 6.823 16 5.992c0-.83-.682-1.508-1.5-1.508zM4.5 9.5A2.503 2.503 0 0 0 2 12c0 1.378 1.122 2.5 2.5 2.5S7 13.378 7 12 5.878 9.5 4.5 9.5zM7 12c0 1.378 1.122 2.5 2.5 2.5S12 13.378 12 12s-1.122-2.5-2.5-2.5A2.503 2.503 0 0 0 7 12zm5 0c0 1.378 1.122 2.5 2.5 2.5S17 13.378 17 12s-1.122-2.5-2.5-2.5A2.503 2.503 0 0 0 12 12zm5 0c0 1.378 1.122 2.5 2.5 2.5S22 13.378 22 12s-1.122-2.5-2.5-2.5A2.503 2.503 0 0 0 17 12zM4.5 15.5A2.503 2.503 0 0 0 2 18c0 1.378 1.122 2.5 2.5 2.5S7 19.378 7 18s-1.122-2.5-2.5-2.5zM7 18c0 1.378 1.122 2.5 2.5 2.5S12 19.378 12 18s-1.122-2.5-2.5-2.5A2.503 2.503 0 0 0 7 18zm5 0c0 1.378 1.122 2.5 2.5 2.5S17 19.378 17 18s-1.122-2.5-2.5-2.5A2.503 2.503 0 0 0 12 18zm5 0c0 1.378 1.122 2.5 2.5 2.5S22 19.378 22 18s-1.122-2.5-2.5-2.5A2.503 2.503 0 0 0 17 18z"/>
    <path style="fill:#ab47bc" d="M21.473 4.6a.367.367 0 0 0-.512-.138l-3.77 2.286a.408.408 0 0 0-.144.534l.29.528c.1.182.334.245.513.137l3.77-2.286a.407.407 0 0 0 .143-.534z"/>
    <path style="fill:#ab47bc" d="M21.032 3.036c-.644-.12-1.317.068-1.948.44a.228.228 0 0 0-.083.306l2.278 4.1a.228.228 0 0 0 .288.1c.732-.31 1.23-.855 1.43-1.504.202-.65.107-1.393-.29-2.097-.441-.786-1.03-1.224-1.675-1.345z"/>
    <path style="fill:#6d6f69" d="M9.5 3.984c-.818 0-1.5.677-1.5 1.508S8.682 7 9.5 7 11 6.323 11 5.492c0-.83-.682-1.508-1.5-1.508z"/>
    <path style="fill:#3f51b5" d="M4.5 9A2.503 2.503 0 0 0 2 11.5C2 12.878 3.122 14 4.5 14S7 12.878 7 11.5 5.878 9 4.5 9z"/>
    <path style="fill:#ab47bc" d="M9.5 9A2.503 2.503 0 0 0 7 11.5C7 12.878 8.122 14 9.5 14s2.5-1.122 2.5-2.5S10.878 9 9.5 9z"/>
    <path style="fill:#795548" d="M14.5 15a2.503 2.503 0 0 0-2.5 2.5c0 1.378 1.122 2.5 2.5 2.5s2.5-1.122 2.5-2.5-1.122-2.5-2.5-2.5z"/>
    <path style="fill:#ffc107" d="M19.5 9a2.503 2.503 0 0 0-2.5 2.5c0 1.378 1.122 2.5 2.5 2.5s2.5-1.122 2.5-2.5S20.878 9 19.5 9z"/>
    <path style="fill:#795548" d="M4.5 15A2.503 2.503 0 0 0 2 17.5C2 18.878 3.122 20 4.5 20S7 18.878 7 17.5 5.878 15 4.5 15z"/>
    <path style="fill:#f44336" d="M14.5 9a2.503 2.503 0 0 0-2.5 2.5c0 1.378 1.122 2.5 2.5 2.5s2.5-1.122 2.5-2.5S15.878 9 14.5 9z"/>
    <path style="fill:#4caf50" d="M19.5 15a2.503 2.503 0 0 0-2.5 2.5c0 1.378 1.122 2.5 2.5 2.5s2.5-1.122 2.5-2.5-1.122-2.5-2.5-2.5z"/>
    <path style="fill:#3f51b5" d="M9.5 15A2.503 2.503 0 0 0 7 17.5C7 18.878 8.122 20 9.5 20s2.5-1.122 2.5-2.5S10.878 15 9.5 15z"/>
    <path style="fill:#4caf50" d="M4.5 3A2.503 2.503 0 0 0 2 5.5C2 6.878 3.122 8 4.5 8S7 6.878 7 5.5 5.878 3 4.5 3z"/>
    <path style="fill:#6d6f69" d="M14.5 3.984c-.818 0-1.5.677-1.5 1.508S13.682 7 14.5 7 16 6.323 16 5.492c0-.83-.682-1.508-1.5-1.508z"/>
    <path style="opacity:.1;fill:#f4f4f7" d="M4.5 3A2.503 2.503 0 0 0 2 5.5c0 .085.017.167.025.25A2.495 2.495 0 0 1 4.5 3.5c1.293 0 2.347.99 2.475 2.25.008-.083.025-.165.025-.25C7 4.122 5.878 3 4.5 3zm16.045.002c-.49.02-.988.194-1.461.473A.228.228 0 0 0 19 3.78l.104.186c.467-.272.957-.446 1.44-.465.164-.007.326.005.487.035.644.121 1.234.558 1.676 1.344.217.385.336.782.373 1.17.059-.538-.061-1.116-.373-1.67-.442-.786-1.032-1.223-1.676-1.344a2.163 2.163 0 0 0-.486-.035zM9.5 3.984c-.818 0-1.5.677-1.5 1.508 0 .086.011.168.025.25A1.51 1.51 0 0 1 9.5 4.484a1.51 1.51 0 0 1 1.475 1.258 1.48 1.48 0 0 0 .025-.25c0-.83-.682-1.508-1.5-1.508zm5 0c-.818 0-1.5.677-1.5 1.508 0 .086.011.168.025.25A1.51 1.51 0 0 1 14.5 4.484a1.51 1.51 0 0 1 1.475 1.258 1.48 1.48 0 0 0 .025-.25c0-.83-.682-1.508-1.5-1.508zm5.07 1.323-2.38 1.441a.406.406 0 0 0-.143.533l.037.067a.381.381 0 0 1 .105-.1l2.588-1.568-.207-.373zM4.5 9A2.503 2.503 0 0 0 2 11.5c0 .085.017.167.025.25A2.495 2.495 0 0 1 4.5 9.5c1.293 0 2.347.99 2.475 2.25.008-.083.025-.165.025-.25C7 10.122 5.878 9 4.5 9zM7 11.5c0 .085.017.167.025.25A2.495 2.495 0 0 1 9.5 9.5c1.293 0 2.347.99 2.475 2.25.008-.083.025-.165.025-.25C12 10.122 10.878 9 9.5 9A2.503 2.503 0 0 0 7 11.5zm5 0c0 .085.017.167.025.25A2.495 2.495 0 0 1 14.5 9.5c1.293 0 2.347.99 2.475 2.25.008-.083.025-.165.025-.25 0-1.378-1.122-2.5-2.5-2.5a2.503 2.503 0 0 0-2.5 2.5zm5 0c0 .085.017.167.025.25A2.495 2.495 0 0 1 19.5 9.5c1.293 0 2.347.99 2.475 2.25.008-.083.025-.165.025-.25 0-1.378-1.122-2.5-2.5-2.5a2.503 2.503 0 0 0-2.5 2.5zM4.5 15A2.503 2.503 0 0 0 2 17.5c0 .085.017.167.025.25A2.495 2.495 0 0 1 4.5 15.5c1.293 0 2.347.99 2.475 2.25.008-.083.025-.165.025-.25C7 16.122 5.878 15 4.5 15zM7 17.5c0 .085.017.167.025.25A2.495 2.495 0 0 1 9.5 15.5c1.293 0 2.347.99 2.475 2.25.008-.083.025-.165.025-.25 0-1.378-1.122-2.5-2.5-2.5A2.503 2.503 0 0 0 7 17.5zm5 0c0 .085.017.167.025.25A2.495 2.495 0 0 1 14.5 15.5c1.293 0 2.347.99 2.475 2.25.008-.083.025-.165.025-.25 0-1.378-1.122-2.5-2.5-2.5a2.503 2.503 0 0 0-2.5 2.5zm5 0c0 .085.017.167.025.25A2.495 2.495 0 0 1 19.5 15.5c1.293 0 2.347.99 2.475 2.25.008-.083.025-.165.025-.25 0-1.378-1.122-2.5-2.5-2.5a2.503 2.503 0 0 0-2.5 2.5z"/>
</svg>
