<svg xmlns="http://www.w3.org/2000/svg" width="24" height="24" version="1"><rect style="opacity:.2" width="16" height="18" x="4" y="4.5" rx="1.586" ry="1.602"/><path style="fill:#989898" d="M12 1a2 2 0 0 0-2 2 2 2 0 0 0 2 2 2 2 0 0 0 2-2 2 2 0 0 0-2-2zm0 1a1 1 0 0 1 1 1 1 1 0 0 1-1 1 1 1 0 0 1-1-1 1 1 0 0 1 1-1z"/><rect style="fill:#c48f61" width="16" height="18" x="4" y="4" rx="1.586" ry="1.602"/><path style="opacity:.1;fill:#f4f4f7" d="M5.586 4C4.707 4 4 4.695 4 5.558v.5C4 5.195 4.707 4.5 5.586 4.5h12.828c.879 0 1.586.695 1.586 1.558v-.5C20 4.695 19.293 4 18.414 4z"/><path style="fill:#f4f4f7" d="M6 5h12v15H6z"/><path style="fill:#989898" d="M8.667 3C8.297 3 8 3.318 8 3.714V6h8V3.714c0-.396-.298-.714-.667-.714H13a1 1 0 1 1-2 0z"/><path style="fill:none;stroke:#5f5f5f;stroke-width:1.5;stroke-linecap:round" d="m7.71 12.75 1.053.754 1.487-1.756"/><path style="fill:none;stroke:#c8c8c8;stroke-width:1.5;stroke-linecap:round" d="M12.75 8.25h3.95"/><path style="fill:none;stroke:#5f5f5f;stroke-width:1.5;stroke-linecap:round" d="m7.71 8.25 1.053.754 1.487-1.756M7.71 17.25l1.053.754 1.487-1.756"/><path style="fill:none;stroke:#c8c8c8;stroke-width:1.5;stroke-linecap:round" d="M12.75 12.75h3.95M12.75 17.25h3.95"/><path style="opacity:.2" d="M6 20h12v.5H6z"/><path style="opacity:.1;fill:#f4f4f7" d="M12 1a2 2 0 0 0-2 2H8.667C8.297 3 8 3.318 8 3.714v.5c0-.396.298-.714.667-.714H10a2 2 0 0 1 2-2 2 2 0 0 1 2 2h1.333c.37 0 .667.318.667.714v-.5c0-.396-.298-.714-.667-.714H14a2 2 0 0 0-2-2zm.968 2.248A1 1 0 0 1 12 4a1 1 0 0 1-.968-.748A1 1 0 0 0 11 3.5a1 1 0 0 0 1 1 1 1 0 0 0 1-1 1 1 0 0 0-.032-.252z"/></svg>