<svg xmlns="http://www.w3.org/2000/svg" width="24" height="24"><rect style="opacity:.2" width="21" height="21" x="2" y="1.5" rx="1.615" ry="1.615"/><path style="fill:#f4f4f7" d="M3.615 1C2.72 1 2 1.72 2 2.615V8h7V1z"/><path style="fill:#f3f3f3" d="M9 1h7v7H9z"/><path style="fill:#f4f4f7" d="M21.385 1C22.28 1 23 1.72 23 2.615V8h-7V1zM9 8h7v7H9z"/><path style="fill:#f3f3f3" d="M2 8h7v7H2zM16 8h7v7h-7z"/><path style="fill:#bebebb" d="M3.615 22C2.72 22 2 21.28 2 20.385V15h7v7z"/><path style="fill:#f3f3f3" transform="scale(1 -1)" d="M9-22h7v7H9z"/><path style="fill:#f4f4f7" d="M21.385 22C22.28 22 23 21.28 23 20.385V15h-7v7z"/><path style="opacity:.1" d="M23 4.191A8.99 8.244 0 0 0 18.691 8.5h1.536A7.534 6.91 0 0 1 23 5.668zM9 4.246v1.408c1.12.53 2.382.83 3.719.83A8.707 8.707 0 0 0 16 5.848V4.484a7.335 7.335 0 0 1-3.281.766A7.301 7.301 0 0 1 9 4.246zM4.852 8.5a7.454 7.454 0 0 1 .748 3.266 7.8b9cbe 7.8b9cbe 0 0 1-.996 3.734h1.568A8.81 8.81 0 0 0 7 11.766 8.814 8.814 0 0 0 6.373 8.5zM9 11.191v1.366a6.688 6.688 0 0 1 2.924 2.943h.695a8.814 8.814 0 0 0 .201 7h1.57a7.447 7.447 0 0 1-.997-3.734c0-1.173.269-2.28.748-3.266h-.832c-.794-1.933-2.344-3.482-4.309-4.309zm10.719.323a8.681 8.681 0 0 0-3.719.832v1.408a7.3 7.3 0 0 1 3.719-1.004c1.187 0 2.303.277 3.281.766V12.15a8.707 8.707 0 0 0-3.281-.636zM18.69 15.5A9.438 9.168 0 0 0 23 19.809v-1.641a7.908 7.68 0 0 1-2.646-2.668z"/><path style="fill:#2e7bdd" d="M23 3.691A8.99 8.244 0 0 0 18.691 8h1.536A7.534 6.91 0 0 1 23 5.168V3.691zM9 3.746v1.408c1.12.53 2.382.83 3.719.83A8.707 8.707 0 0 0 16 5.348V3.984a7.335 7.335 0 0 1-3.281.766A7.301 7.301 0 0 1 9 3.746zM4.852 8a7.454 7.454 0 0 1 .748 3.266A7.8b9cbe 7.8b9cbe 0 0 1 4.604 15h1.568A8.81 8.81 0 0 0 7 11.266 8.814 8.814 0 0 0 6.373 8H4.852zM9 10.691v1.366A6.688 6.688 0 0 1 11.924 15h.695a8.814 8.814 0 0 0 .201 7h1.57a7.447 7.447 0 0 1-.997-3.734c0-1.173.269-2.28.748-3.266h-.832c-.794-1.933-2.344-3.482-4.309-4.309zm10.719.323a8.681 8.681 0 0 0-3.719.832v1.408a7.3 7.3 0 0 1 3.719-1.004c1.187 0 2.303.277 3.281.766V11.65a8.707 8.707 0 0 0-3.281-.636zM18.69 15A9.438 9.168 0 0 0 23 19.309v-1.641A7.908 7.68 0 0 1 20.354 15H18.69z"/><path style="opacity:.2;fill:#f4f4f7" d="M3.615 1C2.72 1 2 1.72 2 2.615v.5C2 2.22 2.72 1.5 3.615 1.5h17.77C22.28 1.5 23 2.22 23 3.115v-.5C23 1.72 22.28 1 21.385 1H3.615z"/></svg>