<svg height="24" width="24" xmlns="http://www.w3.org/2000/svg"><path d="m18.48 18.028c-4.266 4.85-7.984 4.713-10.538 2.488-3.832-3.339-7.376-15.471-5.355-17.768 2.02-2.297 14.741 1.198 17.469 3.74 2.728 2.543 2.915 6.435-1.576 11.54z" fill="#4f4f4f"/><path d="m5.232 2.001c-1.249.02-2.203.245-2.645.747-.434.494-.61 1.443-.582 2.658.027-.975.21-1.734.582-2.158 2.02-2.297 14.74 1.198 17.469 3.74 1.158 1.08 1.852 2.407 1.93 3.963.06-1.774-.65-3.269-1.93-4.462-2.131-1.987-10.361-4.555-14.823-4.489z" fill="#f4f4f7" opacity=".1"/><path d="m2.005 5.407c-.12 4.315 2.812 12.885 5.937 15.609 2.554 2.225 6.272 2.362 10.538-2.488 2.583-2.937 3.612-5.47 3.506-7.577-.068 2.005-1.124 4.368-3.506 7.077-4.267 4.85-7.984 4.713-10.538 2.488-3.008-2.623-5.838-10.663-5.937-15.11z" opacity=".2"/><path d="m9.998 8.5c-2 0-4 1-3.998 4-.001 3 1.998 4 3.998 4s3.002-.977 3.002-.977v-3.023h-3v1h1.996v1.594s-.998.406-1.998.406c-2 0-3-1-2.998-3-.001-2 .998-3 2.998-3.035 2 .035 3 1.11 3 1.11v-1.25s-1-.825-3-.825zm4.002 0v8h1v-3h.766c1.014-.01 1.931-.205 2.449-.643.521-.437.781-.884.781-1.74 0-.848-.26-1.492-.781-1.93-.518-.441-1.434-.687-2.45-.687zm1 1.002h.852c.684-.018 1.213.138 1.587.416s.561.668.561 1.178c0 .514-.187.71-.56.988-.375.278-.904.416-1.588.416h-.852z" opacity=".2"/><path d="m9.998 8c-2 0-4 1-3.998 4-.001 3 1.998 4 3.998 4s3.002-.977 3.002-.977v-3.023h-3v1h1.996v1.594s-.998.406-1.998.406c-2 0-3-1-2.998-3-.001-2 .998-3 2.998-3.035 2 .035 3 1.11 3 1.11v-1.25s-1-.825-3-.825z" fill="#f4f4f7"/><path d="m14 8v8h1v-3h.766c1.014-.01 1.931-.205 2.449-.643.521-.437.781-.884.781-1.74 0-.848-.26-1.492-.781-1.93-.518-.441-1.435-.687-2.45-.687zm1 1.002h.852c.684-.018 1.213.138 1.587.416s.561.668.561 1.178c0 .514-.187.71-.56.988-.375.278-.904.416-1.588.416h-.852z" fill="#f14649"/></svg>