<svg height="24" width="24" xmlns="http://www.w3.org/2000/svg"><path d="m12 2a10 10 0 0 0 -10 10 10 10 0 0 0 10 10 10 10 0 0 0 10-10 10 10 0 0 0 -10-10z" fill="#6ea23d"/><path d="m2.01 12.209a10 10 0 0 0 -.01.291 10 10 0 0 0 10 10 10 10 0 0 0 10-10 10 10 0 0 0 -.01-.209 10 10 0 0 1 -9.99 9.709 10 10 0 0 1 -9.989-9.791z" opacity=".2"/><path d="m12 2a10 10 0 0 0 -10 10 10 10 0 0 0 .01.209 10 10 0 0 1 9.99-9.709 10 10 0 0 1 9.99 9.791 10 10 0 0 0 .01-.291 10 10 0 0 0 -10-10z" fill="#f4f4f7" opacity=".2"/><path d="m9.885 6.5-.694 3h-2.576l-.46 2h2.575l-.46 2h-2.81l-.46 2h2.807l-.692 3h2l.692-3h3l-.692 3h2l.692-3h2.543l.46-2h-2.54l.46-2h2.774l.46-2h-2.773l.694-3h-2l-.694 3h-3l.694-3zm.845 5h3l-.46 2h-3z" opacity=".2"/><g fill="#f4f4f7"><path d="m9.885 6-2.77 12h2l2.77-12zm5 0-2.77 12h2l2.77-12z"/><path d="m6.615 9-.46 2h12.349l.46-2zm-1.153 4-.462 2h12.35l.462-2z"/></g></svg>