<svg xmlns="http://www.w3.org/2000/svg" width="24" height="24" version="1"><rect style="fill:#00695c" width="20" height="20" x="2" y="2" rx="1" ry="1"/><path style="opacity:.1;fill:#f4f4f7" d="M3 2c-.554 0-1 .446-1 1v.5c0-.554.446-1 1-1h18c.554 0 1 .446 1 1V3c0-.554-.446-1-1-1z"/><path style="opacity:.2" d="M3 22.5c-.554 0-1-.446-1-1V21c0 .554.446 1 1 1h18c.554 0 1-.446 1-1v.5c0 .554-.446 1-1 1zM7 6c-.554 0-1 .446-1 1v10c0 .554.446 1 1 1s1-.446 1-1V7c0-.554-.446-1-1-1zM12 6c-.554 0-1 .446-1 1v10c0 .554.446 1 1 1s1-.446 1-1V7c0-.554-.446-1-1-1zM17 6c-.554 0-1 .446-1 1v10c0 .554.446 1 1 1s1-.446 1-1V7c0-.554-.446-1-1-1z"/><path style="fill:#7cb342" d="M6 10.5V18c0 .554.446 1 1 1s1-.446 1-1v-7.5zM16 10.5V18c0 .554.446 1 1 1s1-.446 1-1v-7.5zM11 14.5V18c0 .554.446 1 1 1s1-.446 1-1v-3.5z"/><rect style="opacity:.1" width="4" height="3" x="5" y="9.5" rx="1" ry="1"/><rect style="fill:#b5b5b5" width="4" height="3" x="5" y="9" rx="1" ry="1"/><rect style="opacity:.1" width="4" height="3" x="10" y="13.5" rx="1" ry="1"/><rect style="fill:#b5b5b5" width="4" height="3" x="10" y="13" rx="1" ry="1"/><rect style="opacity:.1" width="4" height="3" x="15" y="9.5" rx="1" ry="1"/><rect style="fill:#b5b5b5" width="4" height="3" x="15" y="9" rx="1" ry="1"/></svg>