<svg height="24" width="24" xmlns="http://www.w3.org/2000/svg"><circle cx="12" cy="12.5" opacity=".2" r="10"/><circle cx="12" cy="12" fill="#00c1e2" r="10"/><path d="m12 2a10 10 0 0 0 -10 10 10 10 0 0 0 .01.291 10 10 0 0 1 9.99-9.791 10 10 0 0 1 9.99 9.709 10 10 0 0 0 .01-.209 10 10 0 0 0 -10-10z" fill="#f4f4f7" opacity=".2"/><g fill="none" stroke-linecap="round" stroke-linejoin="round"><path d="m1.5 13h2.027s.26 1 .573 1c.42 0 .27-2.023.775-2.022.504 0 .168 2.61.943 2.522.774-.088.603-8.5 1.381-8.5.779 0 .543 13.008 1.516 13s.265-12 1.146-12c.88 0 .658 11.007 1.583 11s.44-10 1.213-10c.772 0 .315 8.984 1.381 9s.433-7 1.348-7 .373 5.989 1.314 6c.94.011.37-4.956 1.01-5s.467 2.97 1.078 3c.612.03.508-2 .809-2 .3 0 .496 1.75.809 1.75.372 0 .809-.75.809-.75h1.285" opacity=".2" stroke="#000"/><path d="m1.5 12.5h2.027s.26 1 .573 1c.42 0 .27-2.023.775-2.022.504 0 .168 2.61.943 2.522.774-.088.603-8.5 1.381-8.5.779 0 .543 13.008 1.516 13s.265-12 1.146-12c.88 0 .658 11.007 1.583 11s.44-10 1.213-10c.772 0 .315 8.984 1.381 9s.433-7 1.348-7 .373 5.989 1.314 6c.94.011.37-4.956 1.01-5s.467 2.97 1.078 3c.612.03.508-2 .809-2 .3 0 .496 1.75.809 1.75.372 0 .809-.75.809-.75h1.285" stroke="#f4f4f7"/></g></svg>