<svg xmlns="http://www.w3.org/2000/svg" width="24" height="24" version="1"><path fill="#ffa923" d="M17 7v2.5c0 1.385-1.115 2.5-2.5 2.5h-5S7 12 7 14.5v4.375C7 20.606 8.951 22 11.375 22h1.25C15.049 22 17 20.606 17 18.875V18h-5v-1h6.875C20.606 17 22 15.049 22 12.625v-1.25C22 8.951 20.606 7 18.875 7H17z"/><path opacity=".2" d="M14.5 20.5a.5.5 0 0 1 .5.5.5.5 0 0 1-.5.5.5.5 0 0 1-.5-.5.5.5 0 0 1 .5-.5z"/><path fill="#fff" d="M14.5 20a.5.5 0 0 1 .5.5.5.5 0 0 1-.5.5.5.5 0 0 1-.5-.5.5.5 0 0 1 .5-.5z"/><path style="opacity:.2" d="M11.375 2.5C8.951 2.5 7 3.894 7 5.625V6.5h5v1H5.125C3.394 7.5 2 9.451 2 11.875v1.25C2 15.549 3.394 17.5 5.125 17.5H7V15c0-1.385 1.115-2.5 2.5-2.5h5s2.5 0 2.5-2.5V5.625C17 3.894 15.049 2.5 12.625 2.5z"/><path fill="#3084e0" d="M11.375 2C8.951 2 7 3.394 7 5.125V6h5v1H5.125C3.394 7 2 8.951 2 11.375v1.25C2 15.049 3.394 17 5.125 17H7v-2.5C7 13.115 8.115 12 9.5 12h5S17 12 17 9.5V5.125C17 3.394 15.049 2 12.625 2h-1.25z"/><path opacity=".2" d="M9.5 3.5a.5.5 0 0 1 .5.5.5.5 0 0 1-.5.5A.5.5 0 0 1 9 4a.5.5 0 0 1 .5-.5z"/><path fill="#fff" d="M9.5 3a.5.5 0 0 1 .5.5.5.5 0 0 1-.5.5.5.5 0 0 1-.5-.5.5.5 0 0 1 .5-.5z"/><path fill="#fff" style="opacity:.2" d="M11.375 2C8.951 2 7 3.394 7 5.125v.5C7 3.894 8.951 2.5 11.375 2.5h1.25C15.049 2.5 17 3.894 17 5.625v-.5C17 3.394 15.049 2 12.625 2zm-6.25 5C3.394 7 2 8.951 2 11.375v.5C2 9.451 3.394 7.5 5.125 7.5H12V7H7z"/><path style="fill:#f4f4f7;opacity:.2" d="M17 7v.5h1.875C20.606 7.5 22 9.451 22 11.875v-.5C22 8.951 20.606 7 18.875 7zm-5 11v.5h5V18z"/><path opacity=".2" d="M22 12.625C22 15.049 20.606 17 18.875 17H12v.5h6.875c1.731 0 3.125-1.951 3.125-4.375zm-15 6.25v.5c0 1.731 1.951 3.125 4.375 3.125h1.25c2.424 0 4.375-1.394 4.375-3.125v-.5C17 20.606 15.049 22 12.625 22h-1.25C8.951 22 7 20.606 7 18.875z"/></svg>