<svg height="24" width="24" xmlns="http://www.w3.org/2000/svg">
    <rect height="20" opacity=".2" rx="1" width="16" x="4" y="2.5"/>
    <rect fill="#3d65c2" height="20" rx="1" width="16" x="4" y="2"/>
    <path d="M5 2h2v20H5c-.554 0-1-.446-1-1V3c0-.554.446-1 1-1zm7 3.5v3H9v3h3v8h3v-8h3v-3h-3v-3z" opacity=".2"/>
    <path d="M12 5v3H9v3h3v8h3v-8h3V8h-3V5z" fill="#ffd972"/>
    <circle cx="18.5" cy="18.5" fill="#ff982d" r="5.5"/>
    <g fill="#f4f4f7">
        <path d="M18.5 15a3.5 3.5 0 1 0 0 7 3.5 3.5 0 0 0 0-7zm0 1a2.5 2.5 0 1 1 0 5 2.5 2.5 0 0 1 0-5zm-.5.5V19h2.5v-1H19v-1.5z"/>
        <path d="M5 2c-.554 0-1 .446-1 1v.5c0-.554.446-1 1-1h14c.554 0 1 .446 1 1V3c0-.554-.446-1-1-1z" opacity=".1"/>
    </g>
</svg>
