<svg xmlns="http://www.w3.org/2000/svg" width="24" height="24"><path style="opacity:.2" d="M12 2.5a10 10 0 0 0-10 10 10 10 0 0 0 10 10 10 10 0 0 0 10-10 10 10 0 0 0-10-10z"/><path style="fill:#f4f4f7" d="M12 2A10 10 0 0 0 2 12a10 10 0 0 0 10 10 10 10 0 0 0 10-10A10 10 0 0 0 12 2z"/><path style="opacity:.2;fill:#f4f4f7" d="M12 2a10 10 0 0 0-9.93 8.926A10 9.5 0 0 1 12 2.5a10 9.5 0 0 1 9.961 8.723A10 10 0 0 0 12 2zm9.961 9.223A10 10 0 0 1 22 12a10 9.5 0 0 0-.039-.777zm-19.89-.297a10 9.5 0 0 0-.025.196 10 10 0 0 1 .025-.196zm-.025.196A10 10 0 0 0 2 12a10 9.5 0 0 1 .046-.878z"/><path style="opacity:.1" d="M12 4.5a8 8 0 0 0-1.504.148A4.5 4.5 0 0 1 12 8a4.5 4.5 0 0 1-4.5 4.5 4.5 4.5 0 0 1-3.354-1.506A8 8 0 0 0 4 12.5a8 8 0 0 0 8 8 8 8 0 0 0 8-8 8 8 0 0 0-8-8z"/><path style="fill:#6153c1" d="M12 4a8 8 0 0 0-1.504.148A4.5 4.5 0 0 1 12 7.5 4.5 4.5 0 0 1 7.5 12a4.5 4.5 0 0 1-3.354-1.506A8 8 0 0 0 4 12a8 8 0 0 0 8 8 8 8 0 0 0 8-8 8 8 0 0 0-8-8z"/></svg>