<svg xmlns="http://www.w3.org/2000/svg" width="24" height="24" version="1">
    <g transform="translate(1 1)">
        <circle fill="#f4f4f7" cx="11" cy="11" r="10"/>
        <circle fill="#6d4c41" cx="5" cy="10" r="3"/>
        <circle fill="#6d4c41" cx="17" cy="10" r="3"/>
        <path fill="#a1887f" d="M11 6.066c-4.86 0-8 3.941-8 8.801v2.117A10 10 0 0 0 11 21a10 10 0 0 0 8-4.02v-2.113c0-4.86-3.14-8.8-8-8.8z"/>
        <path fill="#f4f4f7" d="M9 17h2v3H9z"/>
        <path fill="#f2f2f2" d="M11 16.7h2V20h-2z"/>
        <path fill="#6d4c41" d="M8.682 15C7.578 14.973 7 16.476 7 17.374S7.895 19 9 19c1.018 0 1.986-.723 1.986-.723h.029S11.982 19 13 19c1.105 0 2-.728 2-1.626 0-.898-.542-2.231-1.646-2.259z"/>
        <path fill="#3e2723" d="M12.979 14.763C13.18 15.815 11.867 17 11.021 17s-2.202-1.173-2-2.237c.153-.815 1.154-.762 2-.762.846 0 1.806-.037 1.958.763z"/>
        <g transform="translate(-53 -263)">
            <circle fill="#fefefe" cx="60" cy="275" r="2"/>
            <circle fill="#333" cx="-59.5" cy="274.5" r="1" transform="scale(-1 1)"/>
        </g>
        <path fill="#f4f4f7" opacity=".2" d="M11 1A10 10 0 0 0 1 11a10 10 0 0 0 .01.293A10 10 0 0 1 11 1.5a10 10 0 0 1 9.99 9.707A10 10 0 0 0 21 11 10 10 0 0 0 11 1z"/>
        <path opacity=".2" d="M20.99 11.207A10 10 0 0 1 11 21a10 10 0 0 1-9.99-9.707A10 10 0 0 0 1 11.5a10 10 0 0 0 10 10 10 10 0 0 0 10-10 10 10 0 0 0-.01-.293z"/>
        <g transform="translate(-45 -263)">
            <circle fill="#fefefe" cx="60" cy="275" r="2"/>
            <circle fill="#333" cx="-59.5" cy="274.5" r="1" transform="scale(-1 1)"/>
        </g>
    </g>
</svg>
