<svg height="24" width="24" xmlns="http://www.w3.org/2000/svg"><rect height="20" opacity=".2" rx="1" width="20" x="2" y="2.5"/><path d="m21.707 21.707-9.707-9.707-9.707 9.707c.18.18.43.293.707.293h18a.996.996 0 0 0 .707-.293z" fill="#248afd"/><path d="m2.293 2.293 9.707 9.707 9.707-9.707a.996.996 0 0 0 -.707-.293h-18a.996.996 0 0 0 -.707.293z" fill="#c2352a"/><path d="m2.293 21.707 9.707-9.707-9.707-9.707a.996.996 0 0 0 -.293.707v18c0 .277.112.526.293.707z" fill="#4bae4f"/><path d="m21.707 2.293-9.707 9.707 9.707 9.707c.18-.18.293-.43.293-.707v-18a.996.996 0 0 0 -.293-.707z" fill="#fecd38"/><rect fill="#f4f4f7" height="18" rx=".9" width="18" x="3" y="3"/><path d="m5 7.5v1h1v8h-1v1h5v-1h1v-1h1v-6h-1v-1h-1v-1zm3 1h1v1h1v6h-1v1h-1zm4-1v1h1v8h-1v1h6v-1h1v-4h-1v-1h1v-3h-1v-1zm3 1h2v3h-2zm0 4h2v4h-2z" opacity=".1"/><path d="m5 7v1h1v8h-1v1h5v-1h1v-1h1v-6h-1v-1h-1v-1zm3 1h1v1h1v6h-1v1h-1zm4-1v1h1v8h-1v1h6v-1h1v-4h-1v-1h1v-3h-1v-1zm3 1h2v3h-2zm0 4h2v4h-2z" fill="#4d4d4d"/><path d="m3 2c-.554 0-1 .446-1 1v.5c0-.554.446-1 1-1h18c.554 0 1 .446 1 1v-.5c0-.554-.446-1-1-1z" fill="#f4f4f7" opacity=".2"/></svg>