<svg xmlns="http://www.w3.org/2000/svg" width="24" height="24" version="1"><path style="fill:#424b6d" d="M22 21V3c0-.554-.446-1-1-1H3c-.554 0-1 .446-1 1v18c0 .554.446 1 1 1h18c.554 0 1-.446 1-1z"/><path style="opacity:.1" d="m8.191 19.5 9.14-1.227-1.612-2.16z"/><path style="opacity:.1;fill:#f4f4f7" d="M2 3.5V3c0-.554.446-1 1-1h18c.554 0 1 .446 1 1v.5c0-.554-.446-1-1-1H3c-.554 0-1 .446-1 1z"/><path style="opacity:.2" d="M2 21v.5c0 .554.446 1 1 1h18c.554 0 1-.446 1-1V21c0 .554-.446 1-1 1H3c-.554 0-1-.446-1-1z"/><path style="fill:#d62f19" d="M10.54 5.25 8.962 6.449l-3.57 8.42-.143 2.898 3.077.983 8.813-1.184 1.191-1.67.419-2.528-1.368-2.568-3.883-4.729z"/><path style="fill:#d62f19" d="m8.85 6.243 3.703 5.09-7.405 3.642z"/><path style="fill:#e84d34" d="M5.148 14.975 5 17.98 8.191 19l7.528-3.386.517-3.237-3.683-1.043z"/><path style="fill:#962111" d="m8.191 19 9.14-1.227-1.612-2.16z"/><path style="opacity:.1" d="m15.72 16.114.516-3.237 1.345-1.621L19 13.919l-.435 2.622-1.235 1.732z"/><path style="fill:#a92513" d="m15.72 15.614.516-3.237 1.345-1.621L19 13.419l-.435 2.622-1.235 1.732z"/><path style="fill:#c22a16" d="m16.236 12.377-3.683-1.043-3.702-5.091L10.486 5l3.068.851 4.027 4.905z"/><path style="opacity:.1" d="m16.16 12.855-.44 2.76L8.19 19l-3.167-1.012L5 18.48l3.191 1.02 7.529-3.386.515-3.237z"/><path style="opacity:.1;fill:#f4f4f7" d="m12.553 11.334-7.405 3.642L5 17.98l.024.008.124-2.512 7.405-3.642 3.606 1.021.076-.478z"/><path style="opacity:.1" d="m17.375 11.005-1.14 1.372-.076.478.076.022 1.346-1.621z"/><path style="opacity:.1;fill:#f4f4f7" d="m8.85 6.243-3.702 8.733.268-.132 3.435-8.1 3.434 4.722.268-.132zM10.485 5 8.851 6.243l.234.322 1.4-1.065 3.07.852 3.82 4.653.206-.25-4.026-4.903z"/></svg>