<svg xmlns="http://www.w3.org/2000/svg" width="24" height="24"><path style="opacity:.2" d="M2 4.5v16h2v-1h1.073v1H20v-1h1v1h2v-16h-2v1h-1v-1H5.073v1H4v-1zm2 3h1.073v1H4zm16 0h1v1h-1zm-16 3h1.073v1H4zm16 0h1v1h-1zm-16 3h1.073v1H4zm16 0h1v1h-1zm-16 3h1.073v1H4zm16 0h1v1h-1z"/><path style="fill:#ed5b36" d="M2 4v16h2v-1h1.073v1H20v-1h1v1h2V4h-2v1h-1V4H5.073v1H4V4zm2 3h1.073v1H4zm16 0h1v1h-1zM4 10h1.073v1H4zm16 0h1v1h-1zM4 13h1.073v1H4zm16 0h1v1h-1zM4 16h1.073v1H4zm16 0h1v1h-1z"/><path style="opacity:.2" d="M12.5 18.655 8.274 14.5h8.452z"/><path style="fill:#f4f4f7" d="M12.5 18.155 8.274 14h8.452z"/><path style="fill:#f4f4f7" d="M9.995 11.8h5V15h-5z"/><path style="fill:#f4f4f7;fill-opacity:.68000034" d="M9.995 11.8h1.667v-1.6H9.995z"/><path style="fill:#f4f4f7" d="M11.662 11.8h1.666v-1.6h-1.666z"/><path style="fill:#f4f4f7;fill-opacity:.87999998" d="M13.328 11.8h1.667v-1.6h-1.667z"/><path style="fill:#f4f4f7;fill-opacity:.68000034" d="M14.995 10.2h-1.667V8.6h1.667z"/><path style="fill:#f4f4f7;fill-opacity:.54000005" d="M13.328 10.2h-1.666V8.6h1.666z"/><path style="fill:#f4f4f7;fill-opacity:.87999998" d="M11.662 10.2H9.995V8.6h1.667z"/><path style="fill:#f4f4f7;fill-opacity:.18999999" d="M14.995 8.6h-1.667V7h1.667z"/><path style="fill:#f4f4f7;fill-opacity:.34000017" d="M13.328 8.6h-1.666V7h1.666z"/><path style="fill:#f4f4f7;fill-opacity:.06000001" d="M11.662 8.6H9.995V7h1.667z"/><path style="fill:#f4f4f7;opacity:.2" d="M2 4v.5h2V4H2zm3.072 0v.5H20V4H5.072zM21 4v.5h2V4h-2zM4 5v.5h1.072V5H4zm16 0v.5h1V5h-1zM4 8v.5h1.072V8H4zm16 0v.5h1V8h-1zM4 11v.5h1.072V11H4zm16 0v.5h1V11h-1zM4 14v.5h1.072V14H4zm16 0v.5h1V14h-1zM4 17v.5h1.072V17H4zm16 0v.5h1V17h-1z"/></svg>