<svg xmlns="http://www.w3.org/2000/svg" width="24" height="24" version="1"><path style="opacity:.2" d="M22 12.5a10 10 0 0 1-10 10 10 10 0 0 1-10-10 10 10 0 0 1 10-10 10 10 0 0 1 10 10z"/><path style="fill:#f4473a" d="M22 12a10 10 0 0 1-10 10A10 10 0 0 1 2 12 10 10 0 0 1 12 2a10 10 0 0 1 10 10z"/><path style="opacity:.2;fill:#f4f4f7" d="M12 2A10 10 0 0 0 2 12a10 10 0 0 0 .01.291A10 10 0 0 1 12 2.5a10 10 0 0 1 9.99 9.709A10 10 0 0 0 22 12 10 10 0 0 0 12 2z"/><path style="opacity:.2" d="M17.007 13.023V9l1.493.25-1.708-1.74-2.598.431-1.188 2.877L6.5 7.5l2 3.5-4-1s5.18 4.773 5.314 4.855l-.33.383.143.505L6.556 17.5h3.993z"/><path style="fill:#f4f4f7" d="M17.007 12.523V8.5l1.493.25-1.708-1.74-2.598.431-1.188 2.877L6.5 7l2 3.5-4-1s5.18 4.773 5.314 4.855l-.33.383.143.505L6.556 17h3.993z"/></svg>