<svg xmlns="http://www.w3.org/2000/svg" width="24" height="24" version="1"><defs><linearGradient id="a" x1="24.756" x2="24.102" y1="26.512" y2="5.924" gradientTransform="matrix(.34375 0 0 .33334 3.75 2.5)" gradientUnits="userSpaceOnUse"><stop offset="0" stop-color="#fff"/><stop offset="1" stop-color="#fff" stop-opacity="0"/></linearGradient></defs><rect fill="#f4f4f7" width="16" height="20" x="-20" y="2" rx="1" ry="1" transform="scale(-1 1)"/><rect fill="url(#a)" opacity=".15" width="11" height="7" x="6.5" y="4.5" rx=".206" ry=".2"/><rect style="fill:#333" width="10" height="6" x="7" y="5" rx="0" ry="0"/><path fill="#fff" opacity=".2" d="M5 2c-.554 0-1 .446-1 1v.5c0-.554.446-1 1-1h14c.554 0 1 .446 1 1V3c0-.554-.446-1-1-1H5z"/><path opacity=".2" d="M4 21v.5c0 .554.446 1 1 1h14c.554 0 1-.446 1-1V21c0 .554-.446 1-1 1H5c-.554 0-1-.446-1-1z"/><path fill="#fff" opacity=".2" d="M7.4 13.5c-.332 0-.372.269-.4.6v1.4H5.6c-.332 0-.6.068-.6.4v1.2c0 .332.268.376.6.4H7v1.4c0 .332.068.6.4.6h1.2c.332 0 .4-.268.4-.6v-1.4h1.4c.332 0 .6-.068.6-.4v-1.2c0-.332-.268-.4-.6-.4H9v-1.4c0-.332-.068-.6-.4-.6z"/><path fill="#4f4f4f" d="M7.4 13c-.332 0-.372.269-.4.6V15H5.6c-.332 0-.6.068-.6.4v1.2c0 .332.268.376.6.4H7v1.4c0 .332.068.6.4.6h1.2c.332 0 .4-.268.4-.6V17h1.4c.332 0 .6-.068.6-.4v-1.2c0-.332-.268-.4-.6-.4H9v-1.4c0-.332-.068-.6-.4-.6z"/><circle fill="#fff" opacity=".2" cx="17" cy="15.5" r="1"/><circle fill="#fff" opacity=".2" cx="14" cy="15.5" r="1"/><circle fill="#fff" opacity=".2" cx="17" cy="18.5" r="1"/><circle fill="#fff" opacity=".2" cx="14" cy="18.5" r="1"/><circle fill="#ef5646" cx="17" cy="15" r="1"/><circle fill="#ef5646" cx="14" cy="15" r="1"/><circle fill="#eb9200" cx="17" cy="18" r="1"/><circle fill="#eb9200" cx="14" cy="18" r="1"/></svg>