<svg height="24" width="24" xmlns="http://www.w3.org/2000/svg"><g transform="translate(1 1)"><path d="m9.499 1.5c-4.664 0-8.499 3.836-8.499 8.501 0 4.666 3.835 8.501 8.499 8.501h.004c.93-.001 1.836-.193 2.708-.49l2.26 2.26c1.378 1.38 3.85 1.806 5.48.177 1.627-1.628 1.2-4.102-.178-5.48l-2.26-2.262c.294-.872.484-1.775.484-2.705 0-4.666-3.834-8.502-8.498-8.502z" opacity=".2"/><path d="m9.499 1c-4.664 0-8.499 3.836-8.499 8.501 0 4.666 3.835 8.501 8.499 8.501h.004c.93-.001 1.836-.193 2.708-.49l2.26 2.26c1.378 1.38 3.85 1.806 5.48.177 1.627-1.628 1.2-4.102-.178-5.48l-2.26-2.262c.294-.872.484-1.775.484-2.705 0-4.667-3.834-8.502-8.497-8.502z" fill="#018787"/><path d="m9.5 4.5a5.5 5.5 0 0 0 -5.5 5.5 5.5 5.5 0 0 0 5.5 5.5 5.5 5.5 0 0 0 3.117-.969l3.676 3.676c.942.982 2.396-.471 1.414-1.414l-3.68-3.68a5.5 5.5 0 0 0 .973-3.113 5.5 5.5 0 0 0 -5.5-5.5zm0 2a3.5 3.5 0 0 1 3.5 3.5 3.5 3.5 0 0 1 -3.5 3.5 3.5 3.5 0 0 1 -3.5-3.5 3.5 3.5 0 0 1 3.5-3.5z" opacity=".2"/><g fill="#f4f4f7"><path d="m9.5 4a5.5 5.5 0 0 0 -5.5 5.5 5.5 5.5 0 0 0 5.5 5.5 5.5 5.5 0 0 0 3.117-.969l3.676 3.676c.942.982 2.396-.472 1.414-1.414l-3.68-3.68a5.5 5.5 0 0 0 .973-3.113 5.5 5.5 0 0 0 -5.5-5.5zm0 2a3.5 3.5 0 0 1 3.5 3.5 3.5 3.5 0 0 1 -3.5 3.5 3.5 3.5 0 0 1 -3.5-3.5 3.5 3.5 0 0 1 3.5-3.5z"/><path d="m9.499 1c-4.664 0-8.499 3.836-8.499 8.501 0 .085.01.166.013.25.135-4.55 3.906-8.25 8.486-8.25s8.352 3.701 8.486 8.253c.003-.084.013-.167.013-.252 0-4.666-3.835-8.502-8.5-8.502zm8.13 11.323c-.039.128-.074.258-.117.384l2.261 2.262a4.255 4.255 0 0 1 1.216 2.661c.068-1.17-.409-2.353-1.216-3.161z" opacity=".1"/></g></g></svg>