<svg height="24" width="24" xmlns="http://www.w3.org/2000/svg">
    <path d="M8 5.5a2 2 0 0 0-1.896 1.367l-4 12A2 2 0 0 0 4 21.5h12.001a2 2 0 0 0 1.897-1.367l4-12A2 2 0 0 0 20.002 5.5z" opacity=".2"/>
    <path d="M8 5a2 2 0 0 0-1.896 1.367l-4 12A2 2 0 0 0 4 21h12.001a2 2 0 0 0 1.897-1.367l4-12A2 2 0 0 0 20.002 5z" fill="#447490"/>
    <path d="M8 5a2 2 0 0 0-1.896 1.367l-4 12c-.102.304-.12.608-.08.899a1.99 1.99 0 0 1 .08-.399l4-12A2 2 0 0 1 8 5.5h12.002c1.045 0 1.848.786 1.977 1.734A1.995 1.995 0 0 0 20.002 5z" fill="#f4f4f7" opacity=".2"/>
    <path d="M2 2.5v6l5 3s-1 1 1 3c8 5 9 8 9 8l5-4s-3.75-1-6.25-2.25c0 0 1.25.25.25-1.75 0 0-3-5-4-6s-2.5.25-2.5.25L6 5.5v1zm3 0 5 5h2l-5-5z" opacity=".2"/>
    <path d="M2 2v6l5 3s-1 1 1 3c8 5 9 8 9 8l5-4s-3.75-1-6.25-2.25c0 0 1.25.25.25-1.75 0 0-3-5-4-6s-2.5.25-2.5.25L6 5v1zm3 0 5 5h2L7 2z" fill="#f4f4f7"/>
    <path d="m13 12 2 3s-1 0-2-1 0-2 0-2z" fill="#447490"/>
</svg>
