<svg xmlns="http://www.w3.org/2000/svg" width="24" height="24" version="1"><path fill="#0286c2" d="m22 3-2 2v9c0 .554-.446 1-1 1H9c-.554 0-1-.446-1-1V4c0-.554.446-1 1-1h13z"/><path opacity=".2" d="M10 6v1h8V6h-8zm0 2v1h8V8h-8zm0 2v1h6v-1h-6z"/><path fill="#0286c2" d="m22 3-2 2v9c0 .554-.446 1-1 1H9c-.554 0-1-.446-1-1V4c0-.554.446-1 1-1h13z"/><path opacity=".2" d="M21.5 3.5 20 5v.5l2-2h-.5zM8 14v.5c0 .554.446 1 1 1h10c.554 0 1-.446 1-1V14c0 .554-.446 1-1 1H9c-.554 0-1-.446-1-1z"/><path fill="#35b9f5" d="m2 9 2 2v9c0 .554.446 1 1 1h10c.554 0 1-.446 1-1V10c0-.554-.446-1-1-1H2z"/><path opacity=".2" d="M6 13.5v1h8v-1H6zm0 2v1h8v-1H6zm0 2v1h6v-1H6z"/><path fill="#aee3fb" d="M6 13v1h8v-1H6zm0 2v1h8v-1H6zm0 2v1h6v-1H6z"/><path opacity=".2" d="m2 9.5 2 2V11L2.5 9.5H2zM4 20v.5c0 .554.446 1 1 1h10c.554 0 1-.446 1-1V20c0 .554-.446 1-1 1H5c-.554 0-1-.446-1-1z"/><path fill="#fff" opacity=".2" d="m2 9 .5.5H15c.554 0 1 .446 1 1V10c0-.554-.446-1-1-1H2zM9 3c-.554 0-1 .446-1 1v.5c0-.554.446-1 1-1h12.5L22 3H9z"/></svg>