<svg height="24" width="24" xmlns="http://www.w3.org/2000/svg"><rect height="20" opacity=".2" rx="2" width="20" x="2" y="2.5"/><rect fill="#f4f4f7" height="20" rx="2" width="20" x="2" y="2"/><path d="m8.408 6.5c-3.56.05-6.273 3.85-2.795 7.273l.925 2.35c.155.537-.368 1.719-.136 2.049.266-.507.334-1.232.685-1.317.62.422 1.533.565 2.051 1.108.193-.526-.59-.795-1.246-1.096.614.099 1.037-.222 1.492.293.067-.26-.018-.46-.195-.62l-.278-.366c.514.262 1.791.26 2.084.72.114-.87-.96-.573-1.466-.833.328.039.655-.118.98-.075-.087-.244-.237-.35-.459-.332-1.744.4-1.866-2.437-1.842-3.242.567-.231 1.127-.408 1.676-.412 1.719-.012 3.336.774 4.764-.475.616-.886 3.311 1.43 4.095 3.391 1.172-.477-2.322-3.592-3.293-4.436.417-1.064-.838-2.45-2.289-2.48-.316-.006-.643.028-.962.178-1.256-1.149-2.504-1.696-3.791-1.678zm7.091 7a2.5 2.5 0 0 0 -2.499 2.5 2.5 2.5 0 0 0 2.5 2.5 2.5 2.5 0 0 0 2.5-2.5 2.5 2.5 0 0 0 -2.5-2.5zm-8.037.041c.171-.003.309.085.336.27l.377 1.742c-.204.056-.292.252-.252.607.087-.098.121-.267.32-.213l.471.582c-1.595.12-1.717-.748-1.994-2.183.083-.533.458-.8.742-.805z" opacity=".1"/><circle cx="15.5" cy="15.5" fill="#343434" r="2.5"/><path d="m8.408 6c-3.56.05-6.273 3.85-2.795 7.273l.926 2.35c.154.536-.368 1.718-.136 2.048.266-.507.333-1.23.685-1.315.619.422 1.534.564 2.051 1.107.194-.526-.59-.795-1.247-1.096.614.098 1.038-.222 1.493.293.067-.26-.017-.46-.195-.621l-.277-.366c.513.263 1.79.261 2.084.721.113-.87-.961-.573-1.468-.833.329.04.656-.118.981-.075-.087-.244-.237-.35-.458-.332-1.744.4-1.867-2.436-1.843-3.241.567-.232 1.126-.41 1.675-.413 1.719-.012 3.336.774 4.764-.475.616-.886 3.311 1.43 4.095 3.392 1.172-.478-2.32-3.593-3.291-4.437.416-1.065-.84-2.45-2.29-2.48-.317-.006-.643.028-.963.177-1.256-1.147-2.504-1.695-3.791-1.677zm-.945 7.04c.17-.003.308.086.335.27l.379 1.742c-.204.057-.293.253-.253.608.087-.098.122-.267.321-.212l.47.58c-1.596.12-1.718-.747-1.995-2.182.083-.532.458-.8.743-.806z" fill="#343434"/><path d="m14.5 9.75a.758.742 0 0 1 -.75.75.758.742 0 0 1 -.75-.75.75.75 0 1 1 1.5 0z" opacity=".2"/><path d="m14.5 9.25a.758.742 0 0 1 -.75.75.758.742 0 0 1 -.75-.75.75.75 0 1 1 1.5 0z" fill="#f4f4f7"/><path d="m14.5 9.5a.505.494 0 0 1 -.5.5.505.494 0 0 1 -.5-.5.5.5 0 1 1 1 0z" fill="#343434"/><path d="m4 2c-1.108 0-2 .892-2 2v.5c0-1.108.892-2 2-2h16c1.108 0 2 .892 2 2v-.5c0-1.108-.892-2-2-2z" fill="#f4f4f7" opacity=".2"/></svg>