<svg height="24" width="24" xmlns="http://www.w3.org/2000/svg">
    <path d="M12 2C6.46 2 2 6.46 2 12s4.46 10 10 10 10-4.46 10-10S17.54 2 12 2z" fill="#ffc947"/>
    <path d="M12 4.5c4.456 0 8 3.544 8 8s-3.544 8-8 8-8-3.544-8-8 3.544-8 8-8z" opacity=".2"/>
    <path d="M12 4c4.456 0 8 3.544 8 8s-3.544 8-8 8-8-3.544-8-8 3.544-8 8-8z" fill="#b38d32"/>
    <path d="M12 2C6.46 2 2 6.46 2 12c0 .084.004.167.006.25C2.138 6.827 6.544 2.5 12 2.5s9.862 4.327 9.994 9.75c.002-.083.006-.166.006-.25 0-5.54-4.46-10-10-10z" fill="#f4f4f7" opacity=".2"/>
    <path d="M2.006 12.25c-.002.084-.006.166-.006.25 0 5.54 4.46 10 10 10s10-4.46 10-10c0-.084-.004-.167-.006-.25C21.862 17.673 17.456 22 12 22s-9.862-4.327-9.994-9.75z" opacity=".2"/>
    <path d="M10 6.5c-.554 0-1 .446-1 1v10c0 .554.446 1 1 1s1-.446 1-1v-2.816l.102-.177 2.016 3.492a.997.997 0 0 0 1.365.366A.998.998 0 0 0 14.85 17l-2.594-4.491 2.594-4.492a.998.998 0 0 0-.367-1.367.997.997 0 0 0-1.365.367l-2.016 3.492-.102-.176V7.5c0-.554-.446-1-1-1z" opacity=".2"/>
    <path d="M10 6c-.554 0-1 .446-1 1v10c0 .554.446 1 1 1s1-.446 1-1v-2.816l.102-.177 2.016 3.492a.997.997 0 0 0 1.365.366.998.998 0 0 0 .367-1.366l-2.594-4.491 2.594-4.492a.998.998 0 0 0-.367-1.367.997.997 0 0 0-1.365.367l-2.016 3.492L11 9.832V7c0-.554-.446-1-1-1z" fill="#ffc947"/>
</svg>
