<svg height="24" width="24" xmlns="http://www.w3.org/2000/svg"><rect height="20" opacity=".2" rx="1" width="20" x="2" y="2.5"/><rect fill="#4f4f4f" height="20" rx="1" width="20" x="2" y="2"/><path d="m3 2c-.554 0-1 .446-1 1v.5c0-.554.446-1 1-1h18c.554 0 1 .446 1 1v-.5c0-.554-.446-1-1-1z" fill="#fff" opacity=".1"/><path d="m6 5.5c-.554 0-1 .446-1 1v5.5l8-6.5zm10 0-6.334 5.182 9.031 8.53a.992.992 0 0 0 .303-.712v-12c0-.554-.446-1-1-1zm-8 6.5-3 2.5v4c0 .554.446 1 1 1h10z" opacity=".2"/><path d="m6 5c-.554 0-1 .446-1 1v5.5l8-6.5zm10 0-6.334 5.182 9.031 8.53a.992.992 0 0 0 .303-.712v-12c0-.554-.446-1-1-1zm-8 6.5-3 2.5v4c0 .554.446 1 1 1h10z" fill="#fff"/></svg>