<svg height="24" width="24" xmlns="http://www.w3.org/2000/svg">
    <rect fill="#ef5a30" height="20" rx="1" width="20" x="2" y="2"/>
    <path d="M6 5.5v14h3v-2.7l1.5 2.7H14L11.5 15l2.5-4.5h-3.5L9 13.2V5.5zm9 5L12.5 15l2.5 4.5h3.5L16 15l2.5-4.5z" opacity=".2"/>
    <path d="M3 2c-.554 0-1 .446-1 1v.5c0-.554.446-1 1-1h18c.554 0 1 .446 1 1V3c0-.554-.446-1-1-1z" fill="#f4f4f7" opacity=".2"/>
    <path d="M3 22.5c-.554 0-1-.446-1-1V21c0 .554.446 1 1 1h18c.554 0 1-.446 1-1v.5c0 .554-.446 1-1 1z" opacity=".2"/>
    <g fill="#f4f4f7">
        <path d="M9 5H6v14h3z"/>
        <path d="M10.5 10 8 14.5l2.5 4.5H14l-2.5-4.5L14 10z"/>
        <path d="m15 10-2.5 4.5L15 19h3.5L16 14.5l2.5-4.5z"/>
    </g>
</svg>
