<svg xmlns="http://www.w3.org/2000/svg" width="24" height="24" version="1"><rect style="fill:#bc494d" width="14" height="17" x="-19" y="-20" rx="1" ry=".944" transform="matrix(0 -1 -1 0 0 0)"/><path style="opacity:.2" d="M5 9.5v6h1v-2h3v-1H6v-2h3v-1H6z"/><path style="fill:#f4f4f7" d="M5 9v6h1v-2h3v-1H6v-2h3V9H6z"/><path style="opacity:.2" d="M10 9.5v1h1v5h1v-5h1v-1z"/><path style="fill:#f4f4f7" d="M10 9v1h1v5h1v-5h1V9z"/><path style="opacity:.2" d="M14 9.5v6h1v-2h3v-4h-3zm1 1h2v2h-2z"/><path style="fill:#f4f4f7" d="M14 9v6h1v-2h3V9h-3zm1 1h2v2h-2z"/><path style="opacity:.2" d="M17.73 3.5a.714.772 0 0 0-.73.771V5.5H4c-.554 0-1 .446-1 1s.446 1 1 1h13v1.228a.714.772 0 0 0 1.072.668l1.785-1.113 1.786-1.115a.714.772 0 0 0 0-1.336l-1.786-1.116-1.785-1.113a.714.772 0 0 0-.342-.103zm-12.46 12a.714.772 0 0 0-.342.103l-1.785 1.113-1.786 1.116a.714.772 0 0 0 0 1.336l1.786 1.115 1.785 1.113A.714.772 0 0 0 6 20.728V19.5h13c.554 0 1-.446 1-1s-.446-1-1-1H6V16.27a.714.772 0 0 0-.73-.771z"/><rect style="fill:#3f92f7" width="18" height="2" x="3" y="5" rx="1" ry="1"/><path style="fill:#3f92f7" d="M17.731 3a.714.772 0 0 0-.731.772v4.456a.714.772 0 0 0 1.071.668l1.786-1.114 1.786-1.114a.714.772 0 0 0 0-1.337l-1.786-1.114-1.786-1.114a.714.772 0 0 0-.34-.103z"/><rect style="fill:#3f92f7" width="18" height="2" x="-20" y="17" rx="1" ry="1" transform="scale(-1 1)"/><path style="fill:#3f92f7" d="M5.269 15a.714.772 0 0 1 .731.772v4.456a.714.772 0 0 1-1.071.669l-1.786-1.114-1.786-1.114a.714.772 0 0 1 0-1.337l3.572-2.229a.714.772 0 0 1 .34-.103z"/><path style="fill:#f4f4f7;opacity:.2" d="M17.73 3a.714.772 0 0 0-.73.771v.5a.714.772 0 0 1 .73-.771.714.772 0 0 1 .342.104l1.785 1.113 1.786 1.115a.714.772 0 0 1 .318.418.714.772 0 0 0-.318-.918l-1.786-1.115-1.785-1.113A.714.772 0 0 0 17.73 3zM4 5c-.554 0-1 .446-1 1 0 .089.03.168.05.25A.983.983 0 0 1 4 5.5h13V5H4zm1.27 10a.714.772 0 0 0-.342.104l-1.785 1.113-1.786 1.115a.714.772 0 0 0-.318.918.714.772 0 0 1 .318-.418l1.786-1.115 1.785-1.113a.714.772 0 0 1 .342-.104.714.772 0 0 1 .73.771v-.5A.714.772 0 0 0 5.27 15zM6 17v.5h13c.465 0 .837.321.95.75.02-.082.05-.161.05-.25 0-.554-.446-1-1-1H6z"/></svg>