<svg height="24" width="24" xmlns="http://www.w3.org/2000/svg"><path d="m20 21v-18c0-.554-.446-1-1-1h-14c-.554 0-1 .446-1 1v18c0 .554.446 1 1 1h14c.554 0 1-.446 1-1z" fill="#6b5733"/><path d="m6.462 4.5c-.462 0-.462.47-.462.47v15.06s0 .47.462.47h11.106s.432 0 .432-.47v-9.412l-5.648-6.118zm7.792 0 3.746 4.059v-3.589c0-.471-.462-.471-.462-.471z" opacity=".2"/><path d="m5 2c-.554 0-1 .446-1 1v.5c0-.554.446-1 1-1h14c.554 0 1 .446 1 1v-.5c0-.554-.446-1-1-1z" fill="#f4f4f7" opacity=".1"/><path d="m6.462 4c-.462 0-.462.47-.462.47v15.06s0 .47.462.47h11.105s.433 0 .433-.47v-9.412l-5.646-6.118zm7.792 0 3.746 4.059v-3.589c0-.47-.462-.47-.462-.47z" fill="#f5f5f5"/><path d="m4 21v.5c0 .554.446 1 1 1h14c.554 0 1-.446 1-1v-.5c0 .554-.446 1-1 1h-14c-.554 0-1-.446-1-1z" opacity=".2"/><path d="m8 13h2v5h-2zm3-2h2v7h-2zm3 4h2v3h-2z" opacity=".5"/></svg>