<svg height="24" width="24" xmlns="http://www.w3.org/2000/svg">
    <rect fill="#568156" height="20" rx="1" width="20" x="2" y="2"/>
    <path d="M3 2c-.554 0-1 .446-1 1v.5c0-.554.446-1 1-1h18c.554 0 1 .446 1 1V3c0-.554-.446-1-1-1z" fill="#f4f4f7" opacity=".2"/>
    <path d="M2 21v.5c0 .554.446 1 1 1h18c.554 0 1-.446 1-1V21c0 .554-.446 1-1 1H3c-.554 0-1-.446-1-1z" opacity=".2"/>
    <g fill-rule="evenodd">
        <path d="M4 10.5v2h2v-2z" opacity=".2"/>
        <path d="M4 10v2h2v-2z" fill="#17191e"/>
        <path d="M18 10.5v2h2v-2z" opacity=".2"/>
        <path d="M18 10v2h2v-2z" fill="#17191e"/>
        <path d="M9 14.5v1h6v-1zm6 1v1h1v1H8v-1h1v-1H7v2H6v2h1v-1h9v2h1v-5h-1z" opacity=".2"/>
        <path d="M9 14v1h6v-1zm6 1v1h1v1H8v-1h1v-1H7v2H6v2h1v-1h9v2h1v-5h-1z" fill="#17191e"/>
        <path d="M9 15.5v1H8v1h8v-1h-1v-1z" opacity=".2"/>
        <path d="M9 15v1H8v1h8v-1h-1v-1z" fill="#c03c3c"/>
        <path d="M9 15v.5h6V15zm-1 1v.5h1V16zm7 0v.5h1V16z" fill="#f4f4f7" opacity=".1"/>
    </g>
</svg>
