<svg height="24" width="24" xmlns="http://www.w3.org/2000/svg">
    <path d="M9 3.5v1H7v1H5v1H4v1H3v1H2v6h1v1h1v1h1v4h1v1h2v-2h1v2h2v-2h2v2h2v-2h1v-2h1v-1h2v-1h1v-1h1v-2h1v-4h-1v-2h-1v-1h-1v-1h-3v-1z" opacity=".2"/>
    <path d="M9 3v1H7v1H5v1H4v1H3v1H2v6h1v1h1v1h1v4h1v1h2v-2h1v2h2v-2h2v2h2v-2h1v-2h1v-1h2v-1h1v-1h1v-2h1V8h-1V6h-1V5h-1V4h-3V3z" fill="#f4f4f7"/>
    <path d="M4 8v5h1v1h2v-1H6v-3h1V9H6V8zm8 0v1h-1v5h4v-1h1V9h-1V8z" fill="#17191e"/>
    <path d="M6 10h1v3H6zm6 0h2v3h-2z" fill="#ea01f5"/>
    <path d="M8 15v1H7v1h4v-1h-1v-1z" fill="#17191e"/>
    <path d="M12 13h2v.5h-2zM4 8v.5h2V8zm8 0v.5h3V8zM6 9v.5h1V9zm5 0v.5h1V9zm4 0v.5h1V9zm-9 4v.5h1V13zm2 2v.5h2V15zm-1 1v.5h1V16zm3 0v.5h1V16z" opacity=".2"/>
    <path d="M9 3v.5h7V3zM7 4v.5h2V4zm9 0v.5h3V4zM5 5v.5h2V5zm14 0v.5h1V5zM4 6v.5h1V6zm16 0v.5h1V6zM3 7v.5h1V7zM2 8v.5h1V8zm19 0v.5h1V8zm-9 2h2v.5h-2zm-6 0h1v.5H6z" fill="#f4f4f7" opacity=".2"/>
</svg>
