<svg height="24" width="24" xmlns="http://www.w3.org/2000/svg"><circle cx="12" cy="12.5" opacity=".2" r="10"/><circle cx="12" cy="12" fill="#b5b5b5" r="10"/><path d="m12 5.5a1 1 0 0 0 -1 1 1 1 0 0 0 .545.889l-1.399 2.732-3.15.287a1 1 0 0 0 -.996-.908 1 1 0 0 0 -1 1 1 1 0 0 0 1 1 1 1 0 0 0 .705-.291l2.295 2.31-.756 3.012a1 1 0 0 0 -.244-.031 1 1 0 0 0 -1 1 1 1 0 0 0 1 1 1 1 0 0 0 1-1 1 1 0 0 0 -.096-.424l3.096-1.455 3.096 1.455a1 1 0 0 0 -.096.424 1 1 0 0 0 1 1 1 1 0 0 0 1-1 1 1 0 0 0 -1-1 1 1 0 0 0 -.244.031l-.756-3.011 2.295-2.311a1 1 0 0 0 .705.291 1 1 0 0 0 1-1 1 1 0 0 0 -1-1 1 1 0 0 0 -.994.908l-3.152-.287-1.399-2.732a1 1 0 0 0 .545-.889 1 1 0 0 0 -1-1z" opacity=".2"/><circle cx="12" cy="12" opacity=".4" r="8"/><path d="m12 2a10 10 0 0 0 -10 10 10 10 0 0 0 .01.291 10 10 0 0 1 9.99-9.791 10 10 0 0 1 9.99 9.709 10 10 0 0 0 .01-.209 10 10 0 0 0 -10-10z" fill="#f4f4f7" opacity=".2"/><g fill="#e5e5e5"><path d="m23.308 11.154 3.709 7.514 8.291.786-6 6.267 2 8.258-8-3.899-8 3.9 2-8.26-6-6.266 8.292-.786z" transform="matrix(.5 0 0 .48192 .346 .625)"/><circle cx="12" cy="6" r="1"/><circle cx="6" cy="10" r="1"/><circle cx="18" cy="10" r="1"/><circle cx="8" cy="17" r="1"/><circle cx="16" cy="17" r="1"/></g><path d="m19.99 12.207a8 8 0 0 1 -7.99 7.793 8 8 0 0 1 -7.99-7.707 8 8 0 0 0 -.01.207 8 8 0 0 0 8 8 8 8 0 0 0 8-8 8 8 0 0 0 -.01-.293z" fill="#f4f4f7" opacity=".2"/><path d="m12 4a8 8 0 0 0 -8 8 8 8 0 0 0 .01.293 8 8 0 0 1 7.99-7.793 8 8 0 0 1 7.99 7.707 8 8 0 0 0 .01-.207 8 8 0 0 0 -8-8z" opacity=".2"/></svg>