<svg height="24" width="24" xmlns="http://www.w3.org/2000/svg">
    <path d="M12.01 2.043c-5.54 0-10 4.46-10 10s4.46 10 10 10 10-4.46 10-10-4.46-10-10-10z" fill="#8a0112"/>
    <path d="M12.01 2.043c-5.54 0-10 4.46-10 10 0 .084-.002.166 0 .25.132-5.423 4.544-9.75 10-9.75s9.868 4.327 10 9.75c.002-.084 0-.166 0-.25 0-5.54-4.46-10-10-10z" fill="#f4f4f7" opacity=".1"/>
    <path d="M2.016 12.293c-.002.084-.006.166-.006.25 0 5.54 4.46 10 10 10s10-4.46 10-10c0-.084-.004-.167-.006-.25-.132 5.423-4.538 9.75-9.994 9.75s-9.862-4.327-9.994-9.75z" opacity=".2"/>
    <path d="M10.56 9.325 7.714 4.998s-2.172.481-3.433 2.654c-1.261 2.172-.598 4.29-.598 4.29l5.19.286a3.557 3.538 0 0 1 .476-1.662 3.556 3.537 0 0 1 1.209-1.242zm9.77 2.683-5.19.286a3.551 3.551 0 0 0-1.686-2.904L16.3 5.064s2.176.487 3.437 2.66c1.26 2.172.594 4.283.594 4.283zm-8.38 3.168c.61 0 1.183-.152 1.685-.42l2.346 4.614S14.469 21 11.947 21 7.92 19.37 7.92 19.37l2.345-4.614c.502.268 1.076.42 1.685.42zm0-1.117c-1.016 0-1.84-.82-1.84-1.83 0-1.011.824-1.83 1.84-1.83s1.84.819 1.84 1.83c0 1.01-.824 1.83-1.84 1.83z" fill="#efc008"/>
</svg>
