<svg height="24" width="24" xmlns="http://www.w3.org/2000/svg"><path d="m7 2.5a1 1 0 0 0 -.949.683l-3 9a1 1 0 0 0 .201.981l8.001 9a1 1 0 0 0 1.496 0l7.999-9a1 1 0 0 0 .201-.981l-3-9a1 1 0 0 0 -.949-.683z" opacity=".2"/><path d="m7 2a1 1 0 0 0 -.949.684l-3 9a.999.999 0 0 0 .201.98l8.001 9a1 1 0 0 0 1.496 0l7.999-9a.998.998 0 0 0 .201-.98l-3-9a1 1 0 0 0 -.949-.684z" fill="#02c0f3"/><path d="m12.001 10a11 6.5 0 0 0 -8.79 2.604c.015.019.025.042.042.06l8 9a1 1 0 0 0 1.496 0l7.999-9c.017-.019.026-.043.041-.062a11 6.5 0 0 0 -8.788-2.602z" fill="#2dd1fd"/><path d="m7 2a1 1 0 0 0 -.949.684l-3 9a.993.993 0 0 0 -.013.57c.006-.024.006-.047.013-.07l3-9a1 1 0 0 1 .95-.684h9.999a1 1 0 0 1 .949.684l3 9c.008.023.008.046.014.07a.99.99 0 0 0 -.014-.57l-3-9a1 1 0 0 0 -.949-.684z" fill="#f4f4f7" opacity=".2"/><path d="m12.001 4.5s-.911-.018-1.861.8" opacity=".1"/><path d="m12.001 4s-.911-.018-1.861.8" fill="#333"/></svg>