<svg width="24" height="24" xmlns="http://www.w3.org/2000/svg"><path d="M4.059 2.5C3.474 2.5 3 2.948 3 3.5v15c0 .409.264.777.666.929l7.941 3c.252.095.534.095.786 0l7.941-3c.402-.152.666-.52.666-.93v-15c0-.551-.474-1-1.059-1z" style="opacity:.2"/><path d="M4.059 2C3.474 2 3 2.448 3 3v15c0 .41.264.777.666.929l7.941 3c.252.095.534.095.786 0l7.941-3c.402-.152.666-.52.666-.929V3c0-.552-.474-1-1.059-1z" style="fill:#4f4f4f"/><path d="M6 5.5v7h2v-1H7v-2h1v-1H7v-2h1v-1zm3 0v7h1v-3h.5c.831 0 1.5-.669 1.5-1.5V7c0-.831-.669-1.5-1.5-1.5H10zm4 0v7h1v-7zm3 0c-.554 0-1 .446-1 1v5c0 .554.446 1 1 1h1.05c.555 0 .95-.446.95-1v-1h-1v.45c0 .276-.226.55-.45.55h-.25c-.276 0-.3-.223-.3-.5V7c0-.277.096-.5.3-.5h.25c.278 0 .45.223.45.5v.5h1v-1c0-.554-.395-1-.95-1zm-6 1h.5c.277 0 .5.223.5.5v1c0 .277-.223.5-.5.5H10zm7.875 7.998c-.473.003-.967.313-.98 1.07-.014.77 1.465.661 1.47 1.053.002.136-.194.213-.324.229-.299.036-.844-.33-.844-.33l-.416.52s.507.442 1.229.446c.478.003 1.1-.24 1.095-.966-.005-.873-1.457-.835-1.478-1.133-.01-.15.138-.242.293-.237.278.01.725.286.725.286l.347-.551s-.45-.391-1.117-.387zm-11.318.025c-.703-.014-1.46.526-1.483 1.5-.016.692.585 1.465 1.397 1.477.712.01 1.228-.463 1.228-.463V15.78H6.514v.522l.486.008.021.375s-.16.17-.445.175c-.502.01-.745-.419-.762-.793-.017-.401.257-.881.772-.879.343.002.562.327.562.327l.467-.594s-.8b9cbe-.384-1.058-.397zm2.425.014L7.73 17.502l.85-.002.194-.535h1.092l.19.535h.793l-1.166-2.963zm1.956 0V17.5h.695v-1.645l.724 1.124.704-1.168.046 1.689h.674v-2.963h-.72l-.704 1.182-.705-1.182zm3.412 0V17.5h2.103v-.592h-1.535v-.594l1.422.014v-.605h-1.422v-.592h1.535v-.594zm-5.026.906.305.86h-.615zM9 19.5l3 1 3-1z" style="opacity:.2"/><path d="M6 5v7h2v-1H7V9h1V8H7V6h1V5zm3 0v7h1V9h.5c.831 0 1.5-.669 1.5-1.5v-1c0-.831-.669-1.5-1.5-1.5H10zm4 0v7h1V5zm3 0c-.554 0-1 .446-1 1v5c0 .554.446 1 1 1h1.05c.555 0 .95-.446.95-1v-1h-1v.45c0 .276-.226.55-.45.55h-.25c-.276 0-.3-.223-.3-.5v-4c0-.277.096-.5.3-.5h.25c.278 0 .45.223.45.5V7h1V6c0-.554-.395-1-.95-1zm-6 1h.5c.277 0 .5.223.5.5v1c0 .277-.223.5-.5.5H10zm7.875 7.998c-.473.003-.967.313-.98 1.07-.014.77 1.465.661 1.47 1.053.002.136-.194.213-.324.229-.299.036-.844-.33-.844-.33l-.416.52s.507.442 1.229.446c.478.003 1.1-.24 1.095-.966-.005-.873-1.457-.835-1.478-1.133-.01-.15.138-.242.293-.237.278.01.725.286.725.286l.347-.551s-.45-.391-1.117-.387zm-11.318.025c-.703-.014-1.46.526-1.483 1.5-.016.692.585 1.465 1.397 1.477.712.01 1.228-.463 1.228-.463V15.28H6.514v.522l.486.008.021.375s-.16.17-.445.175c-.502.01-.745-.419-.762-.793-.017-.401.257-.881.772-.879.343.002.562.327.562.327l.467-.594s-.8b9cbe-.384-1.058-.397zm2.425.014L7.73 17.002l.85-.002.194-.535h1.092l.19.535h.793l-1.166-2.963zm1.956 0V17h.695v-1.645l.724 1.124.704-1.168.046 1.689h.674v-2.963h-.72l-.704 1.182-.705-1.182zm3.412 0V17h2.103v-.592h-1.535v-.594l1.422.014v-.605h-1.422v-.592h1.535v-.594zm-5.026.906.305.86h-.615zM9 19l3 1 3-1z" style="fill:#f4f4f7"/><path d="M4.059 2C3.474 2 3 2.448 3 3v.5c0-.552.474-1 1.059-1H19.94c.585 0 1.059.448 1.059 1V3c0-.552-.474-1-1.059-1H4.06z" style="fill:#f4f4f7;opacity:.1"/></svg>