<svg height="24" width="24" xmlns="http://www.w3.org/2000/svg"><g transform="translate(1 1)"><path d="m1 21.5 2-9h4l2 9z" opacity=".2"/><path d="m1 21 2-9h4l2 9z" fill="#5c5c5c"/><path d="m13 21.5 2-9h4l2 9z" opacity=".2"/><path d="m13 21 2-9h4l2 9z" fill="#5c5c5c"/><rect height="9" opacity=".2" ry="1" width="8" x="1" y="5.5"/><rect fill="#5c5c5c" height="5" ry="1" width="4" x="4" y="1"/><rect height="9" opacity=".2" ry="1" width="8" x="13" y="5.5"/><rect fill="#838181" height="9" ry="1" width="8" x="1" y="5"/><rect height="7" opacity=".2" ry="1" width="2" x="10" y="6.5"/><rect fill="#5c5c5c" height="5" ry="1" width="4" x="14" y="1"/><rect height="5" opacity=".2" ry="1" width="12" x="5" y="7.5"/><rect fill="#838181" height="9" ry="1" width="8" x="13" y="5"/><rect fill="#674f4f" height="7" ry="1" width="2" x="10" y="6"/><path d="m11 6c-.554 0-1 .446-1 1v.5c0-.554.446-1 1-1s1 .446 1 1v-.5c0-.554-.446-1-1-1z" fill="#f4f4f7" opacity=".1"/><rect fill="#6f6d6d" height="5" ry="1" width="12" x="5" y="7"/><circle cx="16" cy="16" fill="#07b3ff" r="6"/><g fill="#f4f4f7"><path d="m14 13v4a1 1 0 0 0 -1 1 1 1 0 0 0 1 1 1 1 0 0 0 1-1v-3h3v2a1 1 0 0 0 -1 1 1 1 0 0 0 1 1 1 1 0 0 0 1-1v-5h-4z"/><path d="m5 1c-.554 0-1 .446-1 1v.5c0-.554.446-1 1-1h2c.554 0 1 .446 1 1v-.5c0-.554-.446-1-1-1z" opacity=".1"/><path d="m2 5c-.554 0-1 .446-1 1v.5c0-.554.446-1 1-1h6c.554 0 1 .446 1 1v-.5c0-.554-.446-1-1-1z" opacity=".2"/><path d="m15 1c-.554 0-1 .446-1 1v.5c0-.554.446-1 1-1h2c.554 0 1 .446 1 1v-.5c0-.554-.446-1-1-1z" opacity=".1"/><path d="m14 5c-.554 0-1 .446-1 1v.5c0-.554.446-1 1-1h6c.554 0 1 .446 1 1v-.5c0-.554-.446-1-1-1zm-8 2c-.554 0-1 .446-1 1v.5c0-.554.446-1 1-1h10c.554 0 1 .446 1 1v-.5c0-.554-.446-1-1-1z" opacity=".2"/></g></g></svg>