<svg height="24" width="24" xmlns="http://www.w3.org/2000/svg">
    <path d="M20 21.5v-18c0-.554-.418-1-.938-1H5.938c-.519 0-.937.446-.937 1v18c0 .554.418 1 .938 1h13.125c.519 0 .937-.446.937-1z" opacity=".2"/>
    <path d="M20 21V3c0-.554-.418-1-.938-1H5.938C5.418 2 5 2.446 5 3v18c0 .554.418 1 .938 1h13.125c.519 0 .937-.446.937-1z" fill="#f4f4f7"/>
    <path d="M8.053 16.191 6 11.233l1.653-.809.04-.054 1.333 3.37 1.6-.849.72 1.601m-3.292 1.7" opacity=".1"/>
    <path d="M8.053 15.691 6 10.733l1.653-.809.04-.054 1.333 3.37 1.6-.849.72 1.601m-3.292 1.7" fill="#4587cf"/>
    <path d="m14.034 9.5 1.805.362.389 1.22.793-.941 1.98.435-1.773 2.065 1 3.073-2.13-.217-.378-1.668-.963 1.371-1.659-.537 1.665-2.456M14.028 9.5" opacity=".1"/>
    <path d="m14.034 9 1.805.362.389 1.22.793-.941 1.98.435-1.773 2.065 1 3.073-2.13-.217-.378-1.667-.963 1.37-1.659-.537 1.665-2.456M14.028 9" fill="#de5328"/>
    <path d="m9.477 11.192 2.067.29.613 1.339.772-1.157 2.08.278-1.906 2.841-.467 2.717-1.932-.32.332-2.438m-1.56-3.55" opacity=".1"/>
    <path d="m9.477 10.692 2.067.29.613 1.339.772-1.157 2.08.278-1.906 2.841L12.636 17l-1.932-.32.332-2.438m-1.56-3.55" fill="#dfa722"/>
    <path d="M5.938 2C5.418 2 5 2.446 5 3v.5c0-.554.418-1 .938-1h13.125c.519 0 .937.446.937 1V3c0-.554-.418-1-.938-1z" fill="#f4f4f7" opacity=".2"/>
</svg>
