<svg xmlns="http://www.w3.org/2000/svg" width="24" height="24" version="1"><circle style="opacity:.2" cx="12" cy="12.5" r="10"/><circle style="fill:#8b9cbe" cx="12" cy="12" r="10"/><path style="opacity:.1;fill:#f4f4f7" d="M12 2A10 10 0 0 0 2 12a10 10 0 0 0 .01.291A10 10 0 0 1 12 2.5a10 10 0 0 1 9.99 9.709A10 10 0 0 0 22 12 10 10 0 0 0 12 2z"/><path style="opacity:.2" d="M12 5.5a1 1 0 1 0 0 2 1 1 0 0 0 0-2zm-7 1L9 10l2 11v-8.5h2V21l2-11 4-3.5-6 2.054V11h-2V8.554z"/><path style="fill:#f68220" d="M12 5a1 1 0 1 0 0 2 1 1 0 0 0 0-2zM5 6l4 3.5 2 11V12h2v8.5l2-11L19 6l-6 2.054V10.5h-2V8.054z"/><path style="opacity:.2;fill:#f4f4f7" d="M12 5a1 1 0 0 0-1 1c0 .089.029.168.05.25A.986.986 0 0 1 12 5.5c.463 0 .836.322.95.75.021-.082.05-.161.05-.25a1 1 0 0 0-1-1zM5 6l.94.822L11 8.555v-.5zm14 0-6 2.055v.5l5.06-1.733zm-8 4.5v.5h2v-.5z"/></svg>