<svg xmlns="http://www.w3.org/2000/svg" width="24" height="24" version="1"><g transform="translate(1 1)"><circle fill="#578cff" cx="11" cy="11" r="10"/><path fill="#fff" opacity=".2" d="M11 1a9.978 9.978 0 0 0-9.999 10c0 .084-.002.167 0 .25C1.133 5.827 5.544 1.5 11 1.5s9.867 4.327 9.999 9.75c.002-.083 0-.166 0-.25 0-5.54-4.459-10-9.999-10z"/><path opacity=".2" d="M20.99 11.209A10 10 0 0 1 11 21a10 10 0 0 1-9.989-9.709A10 10 0 0 0 1 11.5a10 10 0 0 0 10 10 10 10 0 0 0 10-10 10 10 0 0 0-.01-.291z"/><path opacity=".2" d="M11 5.5a6 6 0 0 0-5.65 4H3.5l-.5 1h2.086a6 6 0 0 0-.086 1h-.5l-.5 1h1.09a6 6 0 0 0 5.91 5 6 6 0 0 0 4.463-2H13.99a5 5 0 0 1-2.99 1 5 5 0 0 1-4.894-4H11.5l.5-1H6a5 5 0 0 1 .102-1H11.5l.5-1H6.42a5 5 0 0 1 4.58-3 5 5 0 0 1 2.99 1h1.475A6 6 0 0 0 11 5.5z"/><path fill="#ffff70" d="M11 5a6 6 0 0 0-5.65 4H3.5L3 10h2.086A6 6 0 0 0 5 11h-.5L4 12h1.09A6 6 0 0 0 11 17a6 6 0 0 0 4.463-2H13.99A5 5 0 0 1 11 16a5 5 0 0 1-4.894-4H11.5l.5-1H6a5 5 0 0 1 .102-1H11.5l.5-1H6.42A5 5 0 0 1 11 6a5 5 0 0 1 2.99 1h1.475A6 6 0 0 0 11 5z"/></g></svg>