<svg height="24" width="24" xmlns="http://www.w3.org/2000/svg"><path d="m7.223 11.234-5.223 10.265c1.651-.055 3.658.28 5.763-1.027zm14.777-8.734c-.736 6.706-2.67 13.28-4.679 19h4.679zm-4.679 19c-.048-5.791-.954-8.965-1.321-10.326v9.33z" opacity=".2"/><path d="m15.828 10.574 6.172-8.574-.871 13.873-3.807 5.099c-.668-5.714-1.146-9.035-1.494-10.398zm-8.605.16-5.223 10.265c1.651-.055 3.658.28 5.763-1.027z" fill="#197279"/><path d="m2 3.077h4.747l1.457 8.002-6.204 10.421z" opacity=".2"/><path d="m22 2c-.736 6.706-2.67 13.279-4.679 19h4.679zm-4.679 19c-.048-5.791-.954-8.966-1.321-10.326v9.33z" fill="#029a9b"/><path d="m22 2c-.736 6.706-2.67 13.28-4.678 19h.166c1.947-5.606 3.797-11.983 4.512-18.5zm-4.678 19c-.048-5.791-.955-8.966-1.322-10.326v.5c.355 1.318 1.211 4.362 1.309 9.816z" fill="#f4f4f7" opacity=".2"/><path d="m2 2.576h4.747l1.457 8.003-6.204 10.42z" fill="#029a9b"/><path d="m8.07 2.5-6.07.576 7.922 14.424h4.185l7.893-15h-6.07l-3.92 9.787z" opacity=".2"/><path d="m22 2h-6.07l-6.007 15h4.185z" fill="#28c4c6"/><path d="m15.93 2-6.008 15h.201l5.807-14.5h5.806l.264-.5z" fill="#f4f4f7" opacity=".2"/><path d="m2 2.576 6.07-.576 6.038 15h-4.185z" fill="#92dbdc"/><path d="m8.07 2-6.07.576.262.475 5.808-.551 5.836 14.5h.201z" fill="#f4f4f7" opacity=".2"/></svg>