<svg height="64" viewBox="0 0 64 64" width="64" xmlns="http://www.w3.org/2000/svg" xmlns:xlink="http://www.w3.org/1999/xlink"><filter id="a" color-interpolation-filters="sRGB" height="1.12" width="1.08" x="-.04" y="-.06"><feGaussianBlur stdDeviation=".4"/></filter><linearGradient id="b" gradientUnits="userSpaceOnUse" x1="-20.04751162186" x2="-20.04751162186" y1="191.816117072" y2="147.402920272"><stop offset="0" stop-color="#d3d3d3"/><stop offset="1" stop-color="#fcf9f9"/></linearGradient><linearGradient id="c" gradientUnits="userSpaceOnUse" x1="-73.87092922193" x2="-73.87092922193" y1="214.674130098" y2="168.804728898"><stop offset="0" stop-color="#8d3aff"/><stop offset="1" stop-color="#ff3680"/></linearGradient><filter id="d" color-interpolation-filters="sRGB" height="1.054" width="1.054" x="-.027" y="-.027"><feGaussianBlur stdDeviation=".61875"/></filter><linearGradient id="e" gradientUnits="userSpaceOnUse" x1="4.5" x2="59.5" y1="59.490003" y2="4.490003"><stop offset="0" stop-color="#df2a2a"/><stop offset="1" stop-color="#f83f3f"/></linearGradient><g fill="#5e4aa6" stroke-width="1.00000709716"><circle cx="-1331.11538949602" cy="-1237.75559176" r="0"/><circle cx="-1262.17537342398" cy="-1229.7050395" r="0"/><circle cx="-1239.15759724398" cy="-1255.48196293602" r="0"/><circle cx="-1249.81611268" cy="-1228.79797281602" r="0"/></g><circle cx="-19.784706" cy="169.91579" fill="url(#b)" image-rendering="optimizeSpeed" r="0" stroke-width="1.00001"/><circle cx="-73.57373" cy="192.07182" fill="none" image-rendering="optimizeSpeed" r="0" stroke="url(#c)" stroke-width="2.12969"/><g fill="#5e4aa6" stroke-width="1.00000709716"><circle cx="-1331.11538949602" cy="-1237.75559176" r="0"/><circle cx="-1262.17537342398" cy="-1229.7050395" r="0"/><circle cx="-1239.15759724398" cy="-1255.48196293602" r="0"/><circle cx="-1249.81611268" cy="-1228.79797281602" r="0"/></g><circle cx="-19.784706" cy="169.91579" fill="url(#b)" image-rendering="optimizeSpeed" r="0" stroke-width="1.00001"/><circle cx="-73.57373" cy="192.07182" fill="none" image-rendering="optimizeSpeed" r="0" stroke="url(#c)" stroke-width="2.12969"/><g fill="#5e4aa6"><g stroke-width="1.00000709716"><g><circle cx="-1326.73499049602" cy="-1241.14570576" r="0"/><circle cx="-1326.73499049602" cy="-1241.10790974" r="0"/><circle cx="-1326.73499049602" cy="-1241.10790974" r="0"/><circle cx="-1410.94448526" cy="-1273.08330486398" r="0"/></g><g><circle cx="-1203.27429116602" cy="-1282.641956118" r="0"/><circle cx="-1134.33427509398" cy="-1274.591403858" r="0"/><circle cx="-1111.31649891398" cy="-1300.36832729402" r="0"/><circle cx="-1121.97501435" cy="-1273.68433717402" r="0"/></g><circle cx="-1409.25286013167" cy="-1237.80876696664" r="0"/><circle cx="-1340.35237113734" cy="-1229.70870947964" r="0"/><circle cx="-1317.35220790266" cy="-1255.50889258637" r="0"/><circle cx="-1327.95228313256" cy="-1228.8087030922" r="0"/><g><circle cx="-1409.25504096202" cy="-1237.75457125356" r="0"/><circle cx="-1340.31502488998" cy="-1229.70401899356" r="0"/><circle cx="-1317.29724870998" cy="-1255.48094242958" r="0"/><circle cx="-1327.955764146" cy="-1228.79695230958" r="0"/></g></g><circle cx="-1157.2764" cy="-1267.6785" r="0" stroke-width="1.00001"/><circle cx="-57.7561" cy="-2.18272" fill-rule="evenodd" r="0" stroke-width="1.00001"/><g><circle cx="-1248.7" cy="-1241.6" r="0"/><circle cx="-1140.3" cy="-1301.8" r="0"/><circle cx="-1158.1" cy="-1246" r="0"/></g><circle cx="-1157.3" cy="-1267.7" r="0"/><circle cx="-57.756001" cy="-2.1829" fill-rule="evenodd" r="0"/></g><rect fill="#141414" filter="url(#d)" height="55" opacity=".3" ry="15" stroke-linecap="round" stroke-width="2.74436" width="55" x="4.5" y="4.5"/><rect fill="url(#e)" height="54.999996" ry="14.999999" stroke-linecap="round" stroke-width="2.74436" width="54.999996" x="4.500002" y="4.500002"/><g filter="url(#a)" transform="matrix(1.3043 0 0 1.3043 .266702 .69565)"><g opacity=".1" transform="translate(1 1)"><path d="m12 32v-16h4v16"/><path d="m32 32v-16h4v16"/><path d="m15 16h1l8 8 8-8h1v4l-8 7h-2l-8-7"/></g></g><g fill="#f9f9f9" transform="matrix(1.3043 0 0 1.3043 .266702 .69565)"><path d="m12 32v-16h4v16"/><path d="m32 32v-16h4v16"/><path d="m15 16h1l8 8 8-8h1v4l-8 7h-2l-8-7"/></g></svg>