<svg xmlns="http://www.w3.org/2000/svg" width="24" height="24"><path style="opacity:.2" d="M3.923 1.5h16.154c.511 0 .923.412.923.926v16.202c0 .514-.412.867-.923.872H9.5l-2 3-2-3H3.923c-.511 0-.923-.358-.923-.872V2.426c0-.514.412-.926.923-.926z"/><path style="fill:#f4f4f7" d="M3.923 1h16.154c.511 0 .923.412.923.926v16.202c0 .514-.412.867-.923.872H9.5l-2 3-2-3H3.923C3.412 19 3 18.642 3 18.128V1.926C3 1.412 3.412 1 3.923 1z"/><path style="opacity:.1" d="M6.365 4.5A.372.372 0 0 0 6 4.867v1.268a.37.37 0 0 0 .365.365h1.27A.37.37 0 0 0 8 6.135V4.867a.372.372 0 0 0-.365-.367zM11 4.5a1 1 0 1 0 0 2h6a1 1 0 1 0 0-2zm-4.635 5A.372.372 0 0 0 6 9.867v1.268a.37.37 0 0 0 .365.365h1.27A.37.37 0 0 0 8 11.135V9.867a.372.372 0 0 0-.365-.367zM11 9.5a1 1 0 1 0 0 2h6a1 1 0 1 0 0-2zm-5.41 4a.596.596 0 0 0-.59.59v2.822c0 .321.269.588.59.588h2.82c.321 0 .59-.267.59-.588V14.09c0-.321-.269-.59-.59-.59zm5.41 1a1 1 0 1 0 0 2h6a1 1 0 1 0 0-2z"/><path style="fill:#188eee" d="M5.59 13a.596.596 0 0 0-.59.59v2.821c0 .321.269.589.59.589h2.82c.321 0 .59-.268.59-.589V13.59c0-.321-.269-.59-.59-.59z"/><path style="fill:#898989" d="M6.365 9A.37.37 0 0 0 6 9.366v1.269a.37.37 0 0 0 .365.365h1.27A.37.37 0 0 0 8 10.635V9.366A.37.37 0 0 0 7.635 9zM6.365 4A.37.37 0 0 0 6 4.366v1.269A.37.37 0 0 0 6.365 6h1.27A.37.37 0 0 0 8 5.635V4.366A.37.37 0 0 0 7.635 4z"/><path style="fill:none;stroke:#898989;stroke-width:2;stroke-linecap:round" d="M11 10h6M11 5h6"/><path style="fill:none;stroke:#188eee;stroke-width:2;stroke-linecap:round" d="M11 15h6"/><path style="fill:#f4f4f7;opacity:.2" d="M3.924 1A.922.922 0 0 0 3 1.926v.5c0-.514.412-.926.924-.926h16.152c.512 0 .924.412.924.926v-.5A.922.922 0 0 0 20.076 1H3.924z"/></svg>