<svg height="24" width="24" xmlns="http://www.w3.org/2000/svg"><path d="m20 21.5v-14h-16v14c0 .554.446 1 1 1h14c.554 0 1-.446 1-1z" opacity=".2"/><path d="m20 21v-14h-16v14c0 .554.446 1 1 1h14c.554 0 1-.446 1-1z" fill="#f4f4f7"/><path d="m7 4h10l3 3h-16z" fill="#b8b8b8"/><path d="m7 2h10v2h-10zm10 2 3 3h-7z" fill="#a3a3a3"/><path d="m13 7v15h6c.554 0 1-.446 1-1v-14z" fill="#b8b8b8"/><g fill="none" stroke-linecap="round"><path d="m10.5 17v-5m-3.995 0 1.995 3 2-3m-3.995 5v-5" opacity=".2" stroke="#000" stroke-linejoin="round"/><path d="m10.5 16.5v-5m-3.995 0 1.995 3 2-3m-3.995 5v-5" stroke="#3a86c5" stroke-linejoin="round"/><path d="m14.5 12h4m-2 5v-5" opacity=".2" stroke="#000"/><path d="m14.5 11.5h4m-2 5v-5" stroke="#3a86c5"/></g><path d="m7 2v.5h10v-.5z" fill="#f4f4f7" opacity=".1"/></svg>