<svg height="64" viewBox="0 0 16.933 16.933" width="64" xmlns="http://www.w3.org/2000/svg" xmlns:xlink="http://www.w3.org/1999/xlink"><filter id="a" color-interpolation-filters="sRGB" height="1.2304" width="1.2033" x="-.10166" y="-.11518"><feGaussianBlur stdDeviation=".4034675"/></filter><filter id="b" color-interpolation-filters="sRGB" height="1.3486" width="1.3486" x="-.17428" y="-.17428"><feGaussianBlur stdDeviation=".4034675"/></filter><linearGradient id="c" gradientUnits="userSpaceOnUse" x1="-5.3041361967" x2="-5.3041361967" y1="50.7503454" y2="38.9995854"><stop offset="0" stop-color="#d3d3d3"/><stop offset="1" stop-color="#fcf9f9"/></linearGradient><linearGradient id="d" gradientUnits="userSpaceOnUse" x1="-19.5446323343" x2="-19.5446323343" y1="56.7980766" y2="44.6620366"><stop offset="0" stop-color="#8d3aff"/><stop offset="1" stop-color="#ff3680"/></linearGradient><filter id="e" color-interpolation-filters="sRGB" height="1.054" width="1.054" x="-.027" y="-.027"><feGaussianBlur stdDeviation=".61875"/></filter><linearGradient id="f" gradientUnits="userSpaceOnUse" x1="1.19060176" x2="15.74239836" y1="15.7397522" y2="1.1879556"><stop offset="0" stop-color="#02db96"/><stop offset="1" stop-color="#13d39b"/></linearGradient><linearGradient id="g" gradientUnits="userSpaceOnUse" x1="7.9373" x2="7.9373" y1="4.2333" y2="12.7"><stop offset="0" stop-color="#fff"/><stop offset="1" stop-color="#b8ffe1"/></linearGradient><g fill="#5e4aa6" stroke-width=".26458"><circle cx="-352.18401" cy="-327.48305" r="0"/><circle cx="-333.94399" cy="-325.35305" r="0"/><circle cx="-327.85399" cy="-332.17306" r="0"/><circle cx="-330.674" cy="-325.11306" r="0"/></g><circle cx="-5.234601" cy="44.956001" fill="url(#c)" image-rendering="optimizeSpeed" r="0" stroke-width=".264581"/><circle cx="-19.466" cy="50.818001" fill="none" image-rendering="optimizeSpeed" r="0" stroke="url(#d)" stroke-width=".563469"/><g fill="#5e4aa6" stroke-width=".26458"><circle cx="-352.18401" cy="-327.48305" r="0"/><circle cx="-333.94399" cy="-325.35305" r="0"/><circle cx="-327.85399" cy="-332.17306" r="0"/><circle cx="-330.674" cy="-325.11306" r="0"/></g><circle cx="-5.234601" cy="44.956001" fill="url(#c)" image-rendering="optimizeSpeed" r="0" stroke-width=".264581"/><circle cx="-19.466" cy="50.818001" fill="none" image-rendering="optimizeSpeed" r="0" stroke="url(#d)" stroke-width=".563469"/><g fill="#5e4aa6" stroke-width=".26458"><g><circle cx="-351.025052" cy="-328.38" r="0"/><circle cx="-351.025052" cy="-328.37" r="0"/><circle cx="-351.025052" cy="-328.37" r="0"/><circle cx="-373.305042" cy="-336.82999" r="0"/></g><g><circle cx="-318.360052" cy="-339.359" r="0"/><circle cx="-300.120032" cy="-337.229" r="0"/><circle cx="-294.030032" cy="-344.04901" r="0"/><circle cx="-296.850042" cy="-336.98901" r="0"/></g><circle cx="-372.857475" cy="-327.497119" r="0"/><circle cx="-354.627913" cy="-325.354021" r="0"/><circle cx="-348.542573" cy="-332.180185" r="0"/><circle cx="-351.347121" cy="-325.115899" r="0"/><g><circle cx="-372.858052" cy="-327.48278" r="0"/><circle cx="-354.618032" cy="-325.35278" r="0"/><circle cx="-348.528032" cy="-332.17279" r="0"/><circle cx="-351.348042" cy="-325.11279" r="0"/></g></g><g fill="#5e4aa6" stroke-width=".26458"><circle cx="-352.18401" cy="-327.48305" r="0"/><circle cx="-333.94399" cy="-325.35305" r="0"/><circle cx="-327.85399" cy="-332.17306" r="0"/><circle cx="-330.674" cy="-325.11306" r="0"/></g><circle cx="-5.234601" cy="44.956001" fill="url(#c)" image-rendering="optimizeSpeed" r="0" stroke-width=".264581"/><circle cx="-19.466" cy="50.818001" fill="none" image-rendering="optimizeSpeed" r="0" stroke="url(#d)" stroke-width=".563469"/><g fill="#5e4aa6" stroke-width=".26458"><circle cx="-352.18401" cy="-327.48305" r="0"/><circle cx="-333.94399" cy="-325.35305" r="0"/><circle cx="-327.85399" cy="-332.17306" r="0"/><circle cx="-330.674" cy="-325.11306" r="0"/></g><circle cx="-5.234601" cy="44.956001" fill="url(#c)" image-rendering="optimizeSpeed" r="0" stroke-width=".264581"/><circle cx="-19.466" cy="50.818001" fill="none" image-rendering="optimizeSpeed" r="0" stroke="url(#d)" stroke-width=".563469"/><g fill="#5e4aa6" stroke-width=".26458"><g><circle cx="-351.025052" cy="-328.38" r="0"/><circle cx="-351.025052" cy="-328.37" r="0"/><circle cx="-351.025052" cy="-328.37" r="0"/><circle cx="-373.305042" cy="-336.82999" r="0"/></g><g><circle cx="-318.360052" cy="-339.359" r="0"/><circle cx="-300.120032" cy="-337.229" r="0"/><circle cx="-294.030032" cy="-344.04901" r="0"/><circle cx="-296.850042" cy="-336.98901" r="0"/></g><circle cx="-372.857475" cy="-327.497119" r="0"/><circle cx="-354.627913" cy="-325.354021" r="0"/><circle cx="-348.542573" cy="-332.180185" r="0"/><circle cx="-351.347121" cy="-325.115899" r="0"/><g><circle cx="-372.858052" cy="-327.48278" r="0"/><circle cx="-354.618032" cy="-325.35278" r="0"/><circle cx="-348.528032" cy="-332.17279" r="0"/><circle cx="-351.348042" cy="-325.11279" r="0"/></g></g><g fill="#5e4aa6"><g stroke-width=".26457812"><circle cx="-330.378698444" cy="-328.500193792" r="0"/><circle cx="-39.46182395222" cy="6.3115110526" fill-rule="evenodd" r="0"/><circle cx="-330.378698444" cy="-328.500193792" r="0"/><circle cx="-39.46182395222" cy="6.3115110526" fill-rule="evenodd" r="0"/><circle cx="-304.502958308" cy="-332.468865592" r="0"/><circle cx="-13.58000116524" cy="2.34797206813" fill-rule="evenodd" r="0"/></g><g stroke-width=".26457985775"><circle cx="-285.96494915015" cy="-327.15361831744" r="0"/><circle cx="-267.72493895686" cy="-325.02361946263" r="0"/><circle cx="-261.63494223114" cy="-331.84362579587" r="0"/><circle cx="-264.45495071497" cy="-324.78362959166" r="0"/><circle cx="-285.96494915015" cy="-327.15361831744" r="0"/><circle cx="-267.72493895686" cy="-325.02361946263" r="0"/><circle cx="-261.63494223114" cy="-331.84362579587" r="0"/><circle cx="-264.45495071497" cy="-324.78362959166" r="0"/><circle cx="-285.96479915023" cy="-327.15366831742" r="0"/><circle cx="-267.72478895694" cy="-325.02366946261" r="0"/><circle cx="-261.63479223122" cy="-331.84367579584" r="0"/><circle cx="-264.45480071505" cy="-324.78367959164" r="0"/></g></g><rect fill="#141414" filter="url(#e)" height="55" opacity=".3" ry="15" stroke-linecap="round" stroke-width="2.74436" transform="scale(.26457812)" width="55" x="4.5" y="4.5"/><rect fill="url(#f)" height="14.551796" ry="3.968672" stroke-linecap="round" stroke-width=".726098" width="14.551796" x="1.190602" y="1.190602"/><g clip-rule="evenodd" fill-rule="evenodd" stroke-width=".13229" transform="translate(.00002)"><path d="m11.012 5.9209c.30998.30997.30998.81253 0 1.1225l-3.9687 3.9687c-.30997.30998-.81253.30998-1.1225 0-.30998-.30997-.30998-.81253 0-1.1225l3.9687-3.9687c.30997-.30998.81253-.30998 1.1225 0z" fill="#fff" opacity=".4"/><path d="m11.012 6.1213c.30998.30997.30998.81253 0 1.1225l-3.9687 3.9687c-.30997.30998-.81253.30998-1.1225 0-.30998-.30997-.30998-.81253 0-1.1225l3.9687-3.9687c.30997-.30998.81253-.30998 1.1225 0z" filter="url(#b)" opacity=".05"/><path d="m5.2916 6.6145v4.1049l.62935-.62934c.30997-.30998.81253-.30998 1.1225 0 .30998.30997.30998.81253 0 1.1225l-1.3068 1.3068c-.75004.75008-2.0325.21894-2.0325-.84183v-6.0211c0-1.0607 1.2824-1.5919 2.0325-.84189l5.9049 5.9049v-4.1049l-.62935.62935c-.30997.30997-.81253.30997-1.1225 0-.30998-.30998-.30998-.81255 0-1.1225l1.3068-1.3068c.75004-.75004 2.0325-.21883 2.0325.84189v6.0211c0 1.0608-1.2824 1.5919-2.0325.84183z" filter="url(#a)" opacity=".15"/><path d="m5.2916 6.4141v4.1049l.62935-.62934c.30997-.30998.81253-.30998 1.1225 0 .30998.30997.30998.81253 0 1.1225l-1.3068 1.3068c-.75004.75008-2.0325.21894-2.0325-.84183v-6.0211c0-1.0607 1.2824-1.5919 2.0325-.84189l5.9049 5.9049v-4.1049l-.62935.62935c-.30997.30997-.81253.30997-1.1225 0-.30998-.30998-.30998-.81255 0-1.1225l1.3068-1.3068c.75004-.75004 2.0325-.21883 2.0325.84189v6.0211c0 1.0608-1.2824 1.5919-2.0325.84183z" fill="url(#g)"/></g></svg>