<svg height="24" width="24" xmlns="http://www.w3.org/2000/svg">
    <path d="M12 2A10 10 0 0 0 2 12a10 10 0 0 0 10 10 10 10 0 0 0 10-10A10 10 0 0 0 12 2z" fill="#78ba26"/>
    <path d="M2.01 12.209A10 10 0 0 0 2 12.5a10 10 0 0 0 10 10 10 10 0 0 0 10-10 10 10 0 0 0-.01-.209A10 10 0 0 1 12 22a10 10 0 0 1-9.989-9.791z" opacity=".2"/>
    <path d="M12 2A10 10 0 0 0 2 12a10 10 0 0 0 .01.209A10 10 0 0 1 12 2.5a10 10 0 0 1 9.99 9.791A10 10 0 0 0 22 12 10 10 0 0 0 12 2z" fill="#f4f4f7" opacity=".2"/>
    <rect fill="#f4f4f7" height="8" opacity=".7" rx=".5" width="6" x="9" y="6"/>
    <path d="M7.186 12.5a.686.565 0 0 0-.594.848l4.814 6.87a.686.565 0 0 0 1.188 0l4.814-6.87a.686.565 0 0 0-.594-.848z" opacity=".2"/>
    <path d="M7.186 12a.686.565 0 0 0-.594.848l4.814 6.87a.686.565 0 0 0 1.188 0l4.814-6.87a.686.565 0 0 0-.594-.848z" fill="#f4f4f7"/>
</svg>
