<svg xmlns="http://www.w3.org/2000/svg" width="24" height="24" version="1">
    <path fill="#4f4f4f" d="M22 12a10 10 0 0 1-10 10A10 10 0 0 1 2 12 10 10 0 0 1 12 2a10 10 0 0 1 10 10z"/>
    <path fill="#f4f4f7" opacity=".1" d="M12 2A10 10 0 0 0 2 12a10 10 0 0 0 .01.291A10 10 0 0 1 12 2.5a10 10 0 0 1 9.989 9.709 10 10 0 0 0 .01-.209A10 10 0 0 0 12 2z"/>
    <path opacity=".2" d="M21.99 12.209A10 10 0 0 1 12 22a10 10 0 0 1-9.989-9.709A10 10 0 0 0 2 12.5a10 10 0 0 0 10 10 10 10 0 0 0 10-10 10 10 0 0 0-.01-.291z"/>
    <path opacity=".2" d="M12 5.5a7 7 0 0 0-7 7 7 7 0 0 0 7 7 7 7 0 0 0 7-7 7 7 0 0 0-7-7zm0 3a4 4 0 0 1 4 4 4 4 0 0 1-4 4 4 4 0 0 1-4-4 4 4 0 0 1 4-4z"/>
    <path fill="#f4f4f7" d="M12 5a7 7 0 0 0-7 7 7 7 0 0 0 7 7 7 7 0 0 0 7-7 7 7 0 0 0-7-7zm0 3a4 4 0 0 1 4 4 4 4 0 0 1-4 4 4 4 0 0 1-4-4 4 4 0 0 1 4-4z"/>
</svg>
