<svg height="24" width="24" xmlns="http://www.w3.org/2000/svg">
    <path d="M12 2H3c-.554 0-1 .446-1 1v9h10z" fill="#f7c73c"/>
    <path d="M12 2h9c.554 0 1 .446 1 1v9H12zm0 20H3c-.554 0-1-.446-1-1v-9h10z" fill="#21d789"/>
    <path d="M12 22h9c.554 0 1-.446 1-1v-9H12z" fill="#2086e7"/>
    <path d="M3 2c-.554 0-1 .446-1 1v.5c0-.554.446-1 1-1h18c.554 0 1 .446 1 1V3c0-.554-.446-1-1-1z" fill="#f4f4f7" opacity=".2"/>
    <path d="M3 22.5c-.554 0-1-.446-1-1V21c0 .554.446 1 1 1h18c.554 0 1-.446 1-1v.5c0 .554-.446 1-1 1z" opacity=".2"/>
    <path d="M5 5h14v14H5z" fill="#17191e"/>
    <g fill="none" stroke-linecap="round">
        <path d="M7.504 16h4" opacity=".2" stroke="#000"/>
        <path d="M7.504 15.5h4" stroke="#f4f4f7"/>
        <path d="M9.504 12V8m-3 0 1.5 2 1.5-2m-3 4V8" opacity=".2" stroke="#000" stroke-linejoin="round"/>
        <path d="M9.504 11.5v-4m-3 0 1.5 2 1.5-2m-3 4v-4" stroke="#f4f4f7" stroke-linejoin="round"/>
        <path d="M11.507 10s2 .232 2-1-2-1-2-1m0 4V8" opacity=".2" stroke="#000" stroke-linejoin="bevel"/>
        <path d="M11.507 9.5s2 .232 2-1-2-1-2-1m0 4v-4" stroke="#f4f4f7" stroke-linejoin="bevel"/>
        <g stroke-linejoin="round">
            <path d="M15.503 11.5s.252.5 1 .5 1-.5 1-1c0-2.107-2 .106-1.994-1.995C15.503 8.5 15.745 8 16.503 8s1 .5 1 .5" opacity=".2" stroke="#000"/>
            <path d="M15.503 11s.252.5 1 .5 1-.5 1-1c0-2.107-2 .106-1.994-1.995-.006-.505.236-1.005.994-1.005s1 .5 1 .5" stroke="#f4f4f7"/>
        </g>
    </g>
</svg>
