<svg height="24" width="24" xmlns="http://www.w3.org/2000/svg"><path d="m9 2.5c-3.324 0-6 2.627-6 5.89v3.22l.002.019c.004 2.16.209 6.95 1.902 8.879 1.53 1.742 5.096 1.992 6.537 1.992 2.561 0 4.559-1.002 4.559-1.002v-1.506s-2.402.54-4.227.508c-1.252-.022-2.068-.35-2.607-1.162-.228-.344-.15-1.281-.266-1.838v-.006c.034 0 .066.006.1.006h6c3.324 0 6-2.627 6-5.89v-3.22c0-3.263-2.676-5.89-6-5.89z" opacity=".2"/><rect fill="#3088d4" height="15" rx="6" ry="5.891" width="18" x="3" y="2"/><path d="m3.016 10h5.284s.025 4.243.6 7c.116.557.038 1.494.266 1.838.539.811 1.355 1.14 2.608 1.162 1.824.032 4.226-.507 4.226-.507v1.504s-1.998 1.003-4.559 1.003c-1.441 0-5.008-.25-6.538-1.993-2.21-2.516-1.887-10.007-1.887-10.007z" fill="#3088d4"/><circle cx="8" cy="8.5" opacity=".2" r="1"/><g fill="#f4f4f7"><circle cx="8" cy="8" r="1"/><path d="m9 2c-3.324 0-6 2.627-6 5.89v.5c0-3.262 2.676-5.89 6-5.89h6c3.324 0 6 2.627 6 5.89v-.5c0-3.262-2.676-5.89-6-5.89zm-.1 15.494v.006c.116.557.038 1.494.266 1.838.539.812 1.355 1.14 2.607 1.162 1.825.032 4.227-.508 4.227-.508v-.5s-2.402.54-4.227.508c-1.252-.022-2.068-.35-2.607-1.162-.171-.258-.183-.826-.22-1.342a.664.664 0 0 0 -.046-.002z" opacity=".2"/></g></svg>