<svg height="64" width="64" xmlns="http://www.w3.org/2000/svg">
    <filter id="b" color-interpolation-filters="sRGB" height="1.054" width="1.054" x="-.027" y="-.027">
        <feGaussianBlur stdDeviation=".619"/>
    </filter>
    <linearGradient id="c" gradientUnits="userSpaceOnUse" x1="4.5" x2="59.5" y1="59.49" y2="4.49">
        <stop offset="0" stop-color="#dee0e2"/>
        <stop offset="1" stop-color="#f1f3f5" stop-opacity=".996"/>
    </linearGradient>
    <linearGradient id="d" gradientUnits="userSpaceOnUse" x1="9" x2="31" y1="31" y2="12">
        <stop offset="0" stop-color="#ff8228"/>
        <stop offset=".495" stop-color="#ff5a1e"/>
        <stop offset="1" stop-color="#ff8c55"/>
    </linearGradient>
    <linearGradient id="e" gradientUnits="userSpaceOnUse" x1="9" x2="31" y1="52" y2="33">
        <stop offset="0" stop-color="#00dc96"/>
        <stop offset="1" stop-color="#14d29b"/>
    </linearGradient>
    <linearGradient id="f" gradientUnits="userSpaceOnUse" x1="33" x2="55" y1="52" y2="33">
        <stop offset="0" stop-color="#32dcff"/>
        <stop offset="1" stop-color="#3296ff"/>
    </linearGradient>
    <linearGradient id="g" gradientUnits="userSpaceOnUse" x1="33" x2="55" y1="31" y2="12">
        <stop offset="0" stop-color="#ffc841"/>
        <stop offset=".495" stop-color="#ffbe37"/>
        <stop offset="1" stop-color="#ffc841"/>
    </linearGradient>
    <linearGradient id="a" gradientUnits="userSpaceOnUse" x1="399.571" x2="399.571" y1="545.798" y2="517.798">
        <stop offset="0" stop-color="#3889e9"/>
        <stop offset="1" stop-color="#5ea5fb"/>
    </linearGradient>
    <rect fill="#141414" filter="url(#b)" height="55" opacity=".3" ry="15" width="55" x="4.5" y="4.5"/>
    <rect fill="url(#c)" height="55" ry="15" width="55" x="4.5" y="4.5"/>
    <rect fill="url(#d)" height="19" ry="3" width="22" x="9" y="12"/>
    <rect fill="url(#e)" height="19" ry="3" width="22" x="9" y="33"/>
    <rect fill="url(#f)" height="19" ry="3" width="22" x="33" y="33"/>
    <rect fill="url(#g)" height="19" ry="3" width="22" x="33" y="12"/>
    <g fill="#f4f4f7">
        <path d="M20.776 28.223c-2.053-.738-3.273-1.645-4.61-3.667a6.684 6.684 0 0 1-.908-3.425c-.053-1.618.765-3.483 2.29-4.478 1.475-1.05 3.377-1.066 4.508-.651 1.168.433 1.64 1.155 1.654 1.12-.035.01.626.565.92 1.776.329 1.163-.005 3.091-1.61 3.88-.737.396-1.696.468-2.448.185a2.533 2.533 0 0 1-1.478-1.664c-.396-1.535.768-2.386 1.282-2.473 2.091-.698 3.15 2.574.705 2.852 1.114.373 2.263-.771 2.045-1.936-.044-1.166-1.455-2.322-3.011-1.848a2.848 2.848 0 0 0-1.503 1.039c-.494.637-.718 1.637-.462 2.608a3.506 3.506 0 0 0 2.072 2.332c1.07.395 2.263.282 3.248-.23 2.102-1.04 2.523-3.574 2.105-4.968-.369-1.499-1.183-2.185-1.14-2.195-.016.04-.601-.85-2.048-1.39-1.415-.516-3.621-.48-5.387.759-1.808 1.16-2.787 3.437-2.716 5.273a7.61 7.61 0 0 0 1.05 3.926c1.528 2.33 3.279 3.059 5.442 3.175" fill-opacity=".85"/>
        <path d="M43.999 15c-.579 1.419-.928 2.347-1.572 3.723.395.419.88.906 1.667 1.457-.846-.348-1.424-.698-1.855-1.06-.824 1.72-2.116 4.17-4.737 8.88 2.06-1.19 3.657-1.923 5.145-2.202a3.773 3.773 0 0 1-.098-.883l.002-.066c.033-1.32.72-2.335 1.533-2.266.813.069 1.446 1.195 1.413 2.515a3.72 3.72 0 0 1-.083.71c1.472.287 3.052 1.019 5.084 2.192-.4-.738-.758-1.403-1.1-2.036-.538-.417-1.099-.96-2.244-1.548.787.205 1.35.44 1.79.704-3.473-6.466-3.754-7.325-4.945-10.12z" fill-opacity=".85" fill-rule="evenodd"/>
        <path d="M20 36.105a6.395 6.395 0 1 0 0 12.79 6.395 6.395 0 0 0 0-12.79zm0 .533a5.865 5.865 0 0 1 5.643 4.269 10.17 10.17 0 0 1-2.485 3.24c-.498.431-1.041.816-1.641 1.086-.6.27-1.26.424-1.918.387a3.318 3.318 0 0 1-1.414-.406 10.666 10.666 0 0 0 3.027-2.44c.555-.652 1.042-1.391 1.229-2.226.093-.418.11-.855.022-1.274a2.353 2.353 0 0 0-.575-1.13c-.286-.304-.662-.52-1.065-.631s-.831-.12-1.243-.045c-.822.15-1.556.628-2.145 1.222-1.038 1.046-1.68 2.522-1.562 3.99.058.735.305 1.457.726 2.06.095.136.198.264.309.386a9.59 9.59 0 0 1-1.896.454A5.862 5.862 0 0 1 20 36.638zm.037 1.184c.412 0 .827.126 1.156.374.296.224.516.542.64.892.125.35.157.73.114 1.099-.085.737-.457 1.414-.907 2.005-.796 1.046-1.854 1.883-3.03 2.47-.12.06-.243.117-.366.171a3.027 3.027 0 0 1-.643-.786c-.35-.618-.465-1.354-.397-2.061.068-.708.31-1.39.637-2.021.378-.733.894-1.426 1.615-1.824a2.46 2.46 0 0 1 1.181-.319zm5.772 3.893a5.862 5.862 0 0 1-10.328 4.52c.664-.15 1.313-.367 1.935-.643.272.207.573.377.892.5.92.352 1.964.301 2.895-.02.93-.323 1.756-.902 2.476-1.574a10.658 10.658 0 0 0 2.13-2.783z" opacity=".85" stroke="#f4f4f7" stroke-width=".21"/>
        <path d="M48.528 35.503a1.28 1.28 0 0 0-1.21.647 1.289 1.289 0 0 0 .476 1.761c.618.356 1.406.15 1.762-.471a1.3 1.3 0 0 0-.466-1.774c-.174-.1-.37-.151-.562-.163zm-3.394 1.37c-.895 0-1.73.212-2.48.584l.898 1.622a3.716 3.716 0 0 1 1.582-.36 3.79 3.79 0 0 1 3.777 3.447l1.834-.023a5.614 5.614 0 0 0-1.671-3.648 1.794 1.794 0 0 1-1.544-.129 1.81 1.81 0 0 1-.886-1.28 5.729 5.729 0 0 0-1.51-.213zm-3.115.948a5.628 5.628 0 0 0-2.317 3.272c.41.334.657.832.657 1.403 0 .567-.246 1.084-.657 1.42a5.618 5.618 0 0 0 2.317 3.266l.948-1.594a3.77 3.77 0 0 1-1.605-3.092c0-1.28.633-2.409 1.605-3.092zm-3.474 3.385c-.715 0-1.29.575-1.29 1.29a1.294 1.294 0 0 0 2.588 0c0-.715-.582-1.29-1.298-1.29zm10.366 1.633a3.792 3.792 0 0 1-3.777 3.446 3.707 3.707 0 0 1-1.582-.354l-.899 1.61c.75.374 1.586.578 2.48.578.52 0 1.032-.07 1.51-.202a1.81 1.81 0 0 1 .887-1.279 1.789 1.789 0 0 1 1.543-.124 5.615 5.615 0 0 0 1.672-3.648zm-.567 4.08a1.33 1.33 0 0 0-.55.179 1.282 1.282 0 0 0-.477 1.756 1.3 1.3 0 0 0 1.773.472c.62-.357.823-1.144.466-1.763a1.287 1.287 0 0 0-1.212-.644z" fill-opacity=".85"/>
    </g>
</svg>
