<svg height="24" width="24" xmlns="http://www.w3.org/2000/svg"><rect height="20" opacity=".2" rx="1" width="20" x="2" y="2.5"/><rect fill="#17191e" height="20" rx="1" width="20" x="2" y="2"/><path d="m18.484 7.5a.5.5 0 0 0 -.142.026l-6 2a.5.5 0 0 0 -.342.474v5.641a1.45 2.53 79.26 0 0 -1.71-.076 1.45 2.53 79.26 0 0 -2.28 1.873 1.45 2.53 79.26 0 0 2.7.998 1.45 2.53 79.26 0 0 2.278-1.635h.012v-6.44l5-1.667v4.947a1.45 2.53 79.26 0 0 -1.71-.076 1.45 2.53 79.26 0 0 -2.28 1.873 1.45 2.53 79.26 0 0 2.7.998 1.45 2.53 79.26 0 0 2.278-1.635h.012v-6.801a.5.5 0 0 0 -.516-.5zm-14.244 1.998a.25.25 0 0 0 -.123.463l3.17 1.994-3.174 2.086a.25.25 0 1 0 .274.418l3.5-2.3a.25.25 0 0 0 -.004-.42l-3.5-2.2a.25.25 0 0 0 -.143-.04z" opacity=".2"/><path d="m3 2c-.554 0-1 .446-1 1v.5c0-.554.446-1 1-1h18c.554 0 1 .446 1 1v-.5c0-.554-.446-1-1-1z" fill="#f4f4f7" opacity=".1"/><ellipse cx="7.995" cy="18.074" fill="#dadf18" rx="2.529" ry="1.45" transform="matrix(.98494 -.1729 .14528 .98939 0 0)"/><ellipse cx="14.224" cy="17.141" fill="#dadf18" rx="2.529" ry="1.45" transform="matrix(.98494 -.1729 .14528 .98939 0 0)"/><g fill="none" stroke-linejoin="round"><path d="m12.5 16.3v-6.8l6-2v6.8" stroke="#dadf18"/><path d="m4.25 9.25 3.5 2.2-3.5 2.3" stroke="#eecc7b" stroke-linecap="round" stroke-width=".5"/></g></svg>