<svg height="24" width="24" xmlns="http://www.w3.org/2000/svg"><g transform="translate(1 1)"><rect fill="#8e8e8e" height="16" rx="1" transform="matrix(0 -1 -1 0 0 0)" width="20" x="-21" y="-19"/><path d="m3 20v.5c0 .554.446 1 1 1h14c.554 0 1-.446 1-1v-.5c0 .554-.446 1-1 1h-14c-.554 0-1-.446-1-1z" opacity=".2"/><rect height="17" opacity=".2" ry="1" width="16" x="3" y="1.5"/><rect fill="#f49c35" height="17" ry="1" width="16" x="3" y="1"/><path d="m4 1c-.554 0-1 .446-1 1v.5c0-.554.446-1 1-1h14c.554 0 1 .446 1 1v-.5c0-.554-.446-1-1-1z" fill="#f4f4f7" opacity=".2"/><path d="m14.5 19.5a.5.5 0 0 0 -.5.5.5.5 0 0 0 .5.5.5.5 0 0 0 .5-.5.5.5 0 0 0 -.5-.5zm2 0a.5.5 0 0 0 -.5.5.5.5 0 0 0 .5.5.5.5 0 0 0 .5-.5.5.5 0 0 0 -.5-.5z" opacity=".2"/><circle cx="16.5" cy="19.5" fill="#b7b7b7" r=".5"/><circle cx="14.5" cy="19.5" fill="#b7b7b7" r=".5"/><rect fill="#f4f4f7" height="1" opacity=".2" ry=".5" width="7" x="5" y="19.5"/><rect fill="#3b3a36" height="1" ry=".5" width="7" x="5" y="19"/><circle cx="11" cy="9.5" opacity=".2" r="6"/><circle cx="11" cy="9" fill="#252a35" r="6"/><path d="m9.964 5-.088 1.054a3.143 3.143 0 0 0 -.918.53l-.958-.449-1 1.731.87.604a3.143 3.143 0 0 0 -.05.53 3.143 3.143 0 0 0 .046.532l-.866.602 1 1.732.955-.45a3.143 3.143 0 0 0 .921.528l.088 1.056h2l.089-1.054a3.143 3.143 0 0 0 .918-.53l.958.45 1-1.732-.87-.604a3.143 3.143 0 0 0 .048-.53 3.143 3.143 0 0 0 -.045-.532l.867-.602-1-1.732-.956.45a3.143 3.143 0 0 0 -.92-.528l-.09-1.056h-2zm1 2.857a1.143 1.143 0 0 1 1.143 1.143 1.143 1.143 0 0 1 -1.143 1.143 1.143 1.143 0 0 1 -1.143-1.143 1.143 1.143 0 0 1 1.143-1.143z" fill="#f4f4f7"/></g></svg>