<svg height="24" width="24" xmlns="http://www.w3.org/2000/svg">
    <g transform="translate(1 1)">
        <path d="M20 19V3.5c0-.554-.446-1-1-1H2c-.554 0-1 .446-1 1V19c0 .554.446 1 1 1h17c.554 0 1-.446 1-1z" fill="#3040c0"/>
        <path d="M20 7.5v-4c0-.554-.446-1-1-1H2c-.554 0-1 .446-1 1v4z" opacity=".2"/>
        <path d="M20 7V3c0-.554-.446-1-1-1H2c-.554 0-1 .446-1 1v4z" fill="#c03040"/>
        <path d="M2 2c-.554 0-1 .446-1 1v.5c0-.554.446-1 1-1h17c.554 0 1 .446 1 1V3c0-.554-.446-1-1-1z" fill="#f4f4f7" opacity=".2"/>
        <path d="M1 19v.5c0 .554.446 1 1 1h17c.554 0 1-.446 1-1V19c0 .554-.446 1-1 1H2c-.554 0-1-.446-1-1z" opacity=".2"/>
        <path d="M15 12h3v3h-3zm-8 0h3v3H7zm-4 0h3v3H3zm8 4h3v3h-3zm4 0h3v3h-3zm-8 0h3v3H7zm-4 0h3v3H3zm8-8h3v3h-3zm4 0h3v3h-3zM7 8h3v3H7zM3 8h3v3H3zm8 4h3v3h-3z" fill="#f4f4f7" opacity=".2"/>
        <circle cx="5" cy="4.5" opacity=".2" r="1"/>
        <circle cx="5" cy="4" fill="#f4f4f7" r="1"/>
        <circle cx="16" cy="4.5" opacity=".2" r="1"/>
        <circle cx="16" cy="4" fill="#f4f4f7" r="1"/>
        <circle cx="16.5" cy="16.5" fill="#218543" r="5.5"/>
        <path d="M16.5 13a3.5 3.5 0 1 0 0 7 3.5 3.5 0 0 0 0-7zm0 1a2.5 2.5 0 1 1 0 5 2.5 2.5 0 0 1 0-5zm-.5.5V17h2.5v-1H17v-1.5z" fill="#f4f4f7"/>
    </g>
</svg>
