<svg height="24" width="24" xmlns="http://www.w3.org/2000/svg"><rect height="20" opacity=".2" rx="1" width="20" x="2" y="2.5"/><rect fill="#318e9e" height="20" rx="1" width="20" x="2" y="2"/><path d="m8 5.5c-.295 0-.587.045-.87.13l1.87 1.87v2h-2l-1.87-1.87a3 3 0 0 0 2.87 3.87 2.994 2.994 0 0 0 1.363-.332l1.44 1.57-1.23 1.477-.573-.715-5 6h16l-4-4-.391.391-2.935-3.202 2.658-3.189h1.668v1l1 1 2-2-1-1h-1v-1s-1.129-1.64-2-2h-3s1.764.293 2 1c0 1-1 2-1 2l.182.182-2.467 2.961-1.281-1.397c.366-.508.564-1.12.566-1.746a3 3 0 0 0 -3-3zm3.762 8.285 2.847 3.106-1.609 1.609-2.531-3.164z" opacity=".2"/><g fill="#f4f4f7"><path d="m8 5c-.295 0-.587.045-.87.13l1.87 1.87v2h-2l-1.87-1.87a3 3 0 0 0 2.87 3.87 2.994 2.994 0 0 0 1.363-.332l1.44 1.57-1.23 1.477-.573-.715-5 6h16l-4-4-.391.391-2.935-3.202 2.658-3.189h1.668v1l1 1 2-2-1-1h-1v-1s-1.129-1.64-2-2h-3s1.764.293 2 1c0 1-1 2-1 2l.182.182-2.467 2.961-1.281-1.397c.366-.508.564-1.12.566-1.746a3 3 0 0 0 -3-3zm3.762 8.285 2.847 3.106-1.609 1.609-2.531-3.164z"/><path d="m3 2c-.554 0-1 .446-1 1v.5c0-.554.446-1 1-1h18c.554 0 1 .446 1 1v-.5c0-.554-.446-1-1-1z" opacity=".1"/></g></svg>