<svg xmlns="http://www.w3.org/2000/svg" width="24" height="24" version="1"><rect style="fill:#aedeec" width="20" height="20" x="2" y="2" rx="1" ry="1"/><path style="opacity:.2;fill:#f4f4f7" d="M3 2c-.554 0-1 .446-1 1v.5c0-.554.446-1 1-1h18c.554 0 1 .446 1 1V3c0-.554-.446-1-1-1H3z"/><path style="opacity:.2" d="M3 22.5c-.554 0-1-.446-1-1V21c0 .554.446 1 1 1h18c.554 0 1-.446 1-1v.5c0 .554-.446 1-1 1H3zM5 7.5v1h.004L7.3 12.475 5 16.457V17.5h8v-2h-1v1H6.131l2.02-3.5.303-.524v-.001l-.302-.525L6.159 8.5H11V9h1V7.5H5z"/><path style="fill:#e37739" d="M5 7v1h.004L7.3 11.975 5 15.957V17h8v-2h-1v1H6.131l2.02-3.5.303-.524v-.001l-.302-.525L6.159 8H11v.5h1V7H5z"/><path style="fill:#f4f4f7" d="M16 2h1v20h-1z"/></svg>