<svg xmlns="http://www.w3.org/2000/svg" width="24" height="24" version="1"><path style="opacity:.2" d="M7 7.5v14c0 .554.446 1 1 1h8c.554 0 1-.446 1-1v-14H8z"/><rect style="fill:#64b515" width="4" height="4" x="10" y="1" rx="1.007" ry="1.193"/><path style="fill:#f4f4f7" d="M17 7c0 2.761-2.239 6.5-5 6.5S7 9.761 7 7c0-2 2.239-3 5-3s5 1 5 3z"/><path style="opacity:.2;fill:#f4f4f7" d="M12 4C9.239 4 7 5 7 7c0 .069.017.143.02.213C7.226 5.406 9.375 4.5 12 4.5c2.625 0 4.774.906 4.98 2.713.003-.07.02-.144.02-.213 0-2-2.239-3-5-3z"/><path style="fill:#64b515" d="M7 7v14c0 .554.446 1 1 1h8c.554 0 1-.446 1-1V7H8z"/><path style="fill:#17191e;fill-rule:evenodd;stroke:#17191e;stroke-width:.47594941px" d="M9.5 13.762h5"/><path style="fill:#17191e;fill-rule:evenodd;stroke:#17191e;stroke-width:.5px" d="m9.25 16.75 5.5-5.5"/><path style="fill:#17191e;fill-rule:evenodd;stroke:#17191e;stroke-width:.50000006px" d="m14.75 16.75-5.5-5.5"/><ellipse style="fill:#17191e" cx="12" cy="12.5" rx="1" ry="1.5"/><ellipse style="fill:#17191e" cx="12" cy="15.25" rx="1.5" ry="1.75"/><path style="opacity:.2" d="M7 7h10v.5H7z"/><path style="opacity:.1;fill:#f4f4f7" d="M11.007 1C10.449 1 10 1.532 10 2.192v.5c0-.66.449-1.192 1.007-1.192h1.986c.558 0 1.007.532 1.007 1.192v-.5C14 1.532 13.551 1 12.993 1z"/><path style="opacity:.4" d="M10 2h1v1h-1z"/></svg>