<svg height="24" width="24" xmlns="http://www.w3.org/2000/svg"><rect height="20" opacity=".2" rx="6" width="20" x="2" y="2.5"/><rect fill="#176fd0" height="20" rx="6" width="20" x="2" y="2"/><path d="m11 7.5v-2h7v2h-1.5s-.5 0-.5.5v8c0 1-.5 3.5-4.5 3.5-3.5 0-5.4-2.772-5.4-5.25 0-5 5.9-3.5 5.9-3.5v2.75s-.5-.5-1.5-.5c-.6 0-1.5.5-1.5 1.5 0 1.302 1.3 2 2.3 2 1.5 0 1.7-1 1.7-1.5v-7c0-.5-.5-.5-.5-.5z" opacity=".2"/><g fill="#f4f4f7"><path d="m11 7v-2h7v2h-1.5s-.5 0-.5.5v8c0 1-.5 3.5-4.5 3.5-3.5 0-5.4-2.772-5.4-5.25 0-5 5.9-3.5 5.9-3.5v2.75s-.5-.5-1.5-.5c-.6 0-1.5.5-1.5 1.5 0 1.302 1.3 2 2.3 2 1.5 0 1.7-1 1.7-1.5v-7c0-.5-.5-.5-.5-.5z"/><path d="m8 2c-3.324 0-6 2.676-6 6v.5c0-3.324 2.676-6 6-6h8c3.324 0 6 2.676 6 6v-.5c0-3.324-2.676-6-6-6z" opacity=".1"/></g></svg>