<svg height="24" width="24" xmlns="http://www.w3.org/2000/svg">
    <g transform="translate(1 1)">
        <rect height="20" opacity=".2" rx="3" width="20" x="1" y="1.5"/>
        <rect fill="#f4f4f7" height="20" rx="3" width="20" x="1" y="1"/>
        <path d="M2 8.5v2h1v5h2v-5h2v5h2v-5h1v-2z" opacity=".1"/>
        <path d="M2 8v2h1v5h2v-5h2v5h2v-5h1V8z" fill="#f9548f"/>
        <path d="M15 2.5s4 5 4 9-4 8-4 8 5-3 5-8-5-9-5-9zm-2 3s3 3 3 6-3 6-3 6 4-2 4-6-4-6-4-6zm-2 2s2 2 2 4-2 4-2 4 3-1.5 3-4-3-4-3-4z" opacity=".1"/>
        <path d="M15 2s4 5 4 9-4 8-4 8 5-3 5-8-5-9-5-9zm-2 3s3 3 3 6-3 6-3 6 4-2 4-6-4-6-4-6zm-2 2s2 2 2 4-2 4-2 4 3-1.5 3-4-3-4-3-4z" fill="#333"/>
        <path d="M4 1C2.338 1 1 2.338 1 4v.5c0-1.662 1.338-3 3-3h14c1.662 0 3 1.338 3 3V4c0-1.662-1.338-3-3-3z" fill="#f4f4f7" opacity=".2"/>
    </g>
</svg>
