<svg height="24" width="24" xmlns="http://www.w3.org/2000/svg">
    <g transform="translate(1 1)">
        <circle cx="11" cy="11.5" opacity=".2" r="10"/>
        <circle cx="11" cy="11" fill="#4f4f4f" r="10"/>
        <path d="M11 1A10 10 0 0 0 1 11a10 10 0 0 0 .01.293A10 10 0 0 1 11 1.5a10 10 0 0 1 9.99 9.707A10 10 0 0 0 21 11 10 10 0 0 0 11 1z" fill="#f4f4f7" opacity=".1"/>
        <path d="M11.044 3.888a2.795 2.795 0 0 0-.6.056c-.483.1-1.129.406-1.448.686-.377.331-.316.542.09.31.184-.105 1.13-.13 1.435-.036.256.078.065.125-.632.156-.53.023-.634.05-.884.227-.424.3-.455.385-.239.642.1.12.2.3.222.4.074.343.3.833.384.833.03 0 .056.05.056.112 0 .21-.26-.1-.403-.48-.114-.306-.525-.863-.637-.863-.022 0-.057.046-.078.103-.061.158.166.581.312.581.192 0 .412.728.347 1.145-.02.123-.014.392.012.598l.046.376h.332c.183 0 .373.04.423.088.05.049.213.143.364.21l.41.183c.075.034.229.07.341.08.297.029.255.146-.153.42-.35.237-.373.24-.855.2-.317-.025-.56-.084-.676-.165-.206-.144-.35-.159-.542-.056-.176.094-.185.473-.012.48.276.013.394.067.576.262a.612.612 0 0 1 .193.49c0 .27-.009.284-.176.252-.153-.03-.173-.016-.14.11.022.08.042.279.042.442.002.385.112.351.364-.112.106-.195.221-.354.256-.354.036 0 .065.161.066.358l.003.36.168-.194c.21-.237.209-.258-.002-.456-.198-.186-.251-.684-.073-.684.054 0 .119.033.144.074.024.04.084.057.131.039.06-.023.084.043.079.212-.012.393.14.339.454-.164l.29-.466.022.366c.027.463-.01.555-.22.555-.232 0-.289.123-.129.283.087.086.268.148.515.173.45.047.476.202.044.271-.146.023-.266.07-.266.103 0 .032-.088.058-.195.058a.48.48 0 0 0-.323.144c-.11.122-.18.137-.456.1-.315-.041-.325-.038-.325.132 0 .195.17.301.29.18a.33.33 0 0 1 .203-.077.592.592 0 0 0 .26-.086c.108-.068.165-.067.28.005.079.05.286.084.461.078.433-.014.47-.006.352.071a.735.735 0 0 1-.32.068c-.12.001-.238.031-.261.069-.023.037-.165.068-.315.068-.268 0-.275.005-.254.222.021.222.024.222.361.2.282-.018.539-.098.874-.27.029-.015.052.02.052.075 0 .116-.584.526-.747.525-.434-.001-.86-.297-.777-.537.031-.089.022-.095-.049-.03-.061.058-.127.062-.215.015-.15-.08-.4.029-.4.176 0 .16.556.854.71.889.08.017.298.041.486.051.288.015.342.04.342.151 0 .098-.096.171-.359.274-.29.113-.407.207-.6.495-.283.423-.627.78-.977 1.011-.313.208-.987.443-1.27.445a.733.733 0 0 0-.314.065c-.086.055-.074.096.073.257.096.105.229.275.293.378.221.357-.045.224-1.213-.605-.232-.164-1.116-1.266-1.448-1.804-.232-.376-.275-.41-.496-.41-.133 0-.296-.05-.364-.11-.122-.111-.332-.09-.332.034 0 .113.817 1.106 1.431 1.74.616.637 1.38 1.26 1.997 1.624.377.223 1.152.54 1.318.54.19 0 .167-.218-.056-.567-.295-.463-.538-.941-.498-.981.059-.059.525.4.525.515 0 .11.55.913.838 1.22.18.194.578.212.651.032.027-.066.178-.29.335-.495.157-.206.367-.59.469-.852l.246-.638c.073-.19.351-.183.388.01.013.069-.176.47-.42.891-.243.422-.453.843-.466.935l-.024.169.718-.008c1.938-.02 3.915-.856 5.427-2.297.457-.436.519-.527.517-.737-.002-.336-.205-.749-.495-1.004-.304-.266-1.162-.774-1.309-.774-.14 0-.134.057.025.318.128.21.127.216-.005.434l-.135.22-.586-.049-.583-.049-.259.254c-.287.28-.547.29-.547.017 0-.08-.067-.215-.149-.302-.189-.202-.106-.296.098-.113.256.23.31.238.488.059.095-.095.238-.173.318-.173.079 0 .2-.03.268-.066.091-.049.147-.04.208.034.097.117.428.132.62.03.13-.07.13-.076-.005-.34-.102-.2-.25-.329-.584-.515a3.806 3.806 0 0 1-.756-.579c-.4-.423-.664-.542-.843-.38-.172.155-.216.357-.1.453.053.044.095.155.095.245s.04.223.086.297c.07.114.057.187-.086.455" opacity=".2"/>
        <path d="M11.044 3.488a2.795 2.795 0 0 0-.6.056c-.483.1-1.129.405-1.448.686-.377.33-.316.542.09.31.184-.105 1.13-.13 1.435-.037.256.078.065.126-.632.157-.53.023-.634.05-.884.227-.424.3-.455.385-.239.642.1.12.2.3.222.4.074.343.3.833.384.833.03 0 .056.05.056.112 0 .21-.26-.1-.403-.48-.114-.306-.525-.863-.637-.863-.022 0-.057.046-.078.103-.061.158.166.58.312.58.192 0 .412.729.347 1.146a2.67 2.67 0 0 0 .012.598l.046.376h.332c.183 0 .373.04.423.088s.213.143.364.21l.41.183c.075.034.229.07.341.08.297.029.255.146-.153.42-.35.236-.373.24-.855.2-.317-.025-.56-.084-.676-.165-.206-.144-.35-.159-.542-.057-.176.094-.185.474-.012.481.276.012.394.067.576.262a.612.612 0 0 1 .193.49c0 .27-.009.284-.176.252-.153-.03-.173-.016-.14.11.022.08.042.279.042.442.002.385.112.351.364-.113.106-.195.221-.354.256-.354.036 0 .065.162.066.36l.003.358.168-.193c.21-.237.209-.258-.002-.456-.198-.186-.251-.684-.073-.684.054 0 .119.033.144.073.024.04.084.057.131.04.06-.024.084.043.079.212-.012.393.14.338.454-.164l.29-.466.022.366c.027.463-.01.554-.22.554-.232 0-.289.123-.129.283.087.087.268.148.515.174.45.046.476.202.044.27-.146.024-.266.07-.266.103s-.088.059-.195.059a.48.48 0 0 0-.323.144c-.11.122-.18.137-.456.1-.315-.042-.325-.038-.325.132 0 .194.17.3.29.18a.33.33 0 0 1 .203-.078.592.592 0 0 0 .26-.085c.108-.068.165-.067.28.005.079.05.286.084.461.078.433-.015.47-.006.352.07a.735.735 0 0 1-.32.07c-.12 0-.238.03-.261.068-.023.037-.165.068-.315.068-.268 0-.275.005-.254.222.021.221.024.222.361.2.282-.018.539-.098.874-.27.029-.015.052.019.052.075 0 .116-.584.525-.747.525-.434-.002-.86-.297-.777-.537.031-.09.022-.095-.049-.03-.061.058-.127.062-.215.015-.15-.08-.4.028-.4.176 0 .159.556.854.71.889.08.017.298.041.486.05.288.016.342.04.342.152 0 .098-.096.171-.359.274-.29.113-.407.207-.6.495-.283.422-.627.78-.977 1.011-.313.207-.987.443-1.27.8" fill="#f4f4f7"/>
    </g>
</svg>
