<svg height="24" width="24" xmlns="http://www.w3.org/2000/svg"><rect fill="#5362ca" height="20" rx="1" width="20" x="2" y="2"/><path d="m6 6.5-1 1v8l1 1h6.5v-1h-6.5v-8h12v1.5h.207l.793.793v-2.293l-1-1zm8 3-1 1v7l1 1h4l1-1v-7l-1-1zm0 1h4v4h-4zm0 5h4v2h-4zm1 1v.5h2v-.5zm-11.5 1 1 1h8.793l-.793-.793v-.207zm16 0v.207l-.793.793h.793l1-1z" opacity=".2"/><path d="m5.56 10.451 13.44 2.549v1.868l-.642.132h-4.358v1h-7l-1.5-.5z" fill="#61d3e0"/><path d="m5.56 10.451-.06 5.049.006.009.055-4.558 13.439 2.549v-.5z" fill="#f4f4f7" opacity=".2"/><path d="m3 2c-.554 0-1 .446-1 1v.5c0-.554.446-1 1-1h18c.554 0 1 .446 1 1v-.5c0-.554-.446-1-1-1z" fill="#f4f4f7" opacity=".1"/><path d="m3 22.5c-.554 0-1-.446-1-1v-.5c0 .554.446 1 1 1h18c.554 0 1-.446 1-1v.5c0 .554-.446 1-1 1z" opacity=".2"/><g fill="#fccf42"><path d="m6 6-1 1v8l1 1h6.5v-1h-6.5v-8h12v1.5h.207l.793.793v-2.293l-1-1zm-2.5 11 1 1h8.793l-.793-.793v-.207zm16 0v.207l-.793.793h.793l1-1z"/><path d="m14 9-1 1v7l1 1h4l1-1v-7l-1-1zm0 1h4v4h-4zm0 5h4v2h-4zm1 1v.5h2v-.5z"/></g></svg>