<svg xmlns="http://www.w3.org/2000/svg" width="24" height="24" version="1"><rect style="fill:#5362ca" width="20" height="20" x="2" y="2" rx="1" ry="1"/><path style="opacity:.2" d="m6 6.5-1 1v8l1 1h6.5v-1H6v-8h12V9h.207l.793.793V7.5l-1-1zm8 3-1 1v7l1 1h4l1-1v-7l-1-1zm0 1h4v4h-4zm0 5h4v2h-4zm1 1v.5h2v-.5zm-11.5 1 1 1h8.793l-.793-.793V17.5zm16 0v.207l-.793.793h.793l1-1z"/><path style="fill:#61d3e0" d="M5.56 10.451 19 13v1.868l-.642.132H14v1H7l-1.5-.5z"/><path style="opacity:.2;fill:#f4f4f7" d="M5.56 10.451 5.5 15.5l.006.009.055-4.558L19 13.5V13z"/><path style="opacity:.1;fill:#f4f4f7" d="M3 2c-.554 0-1 .446-1 1v.5c0-.554.446-1 1-1h18c.554 0 1 .446 1 1V3c0-.554-.446-1-1-1z"/><path style="opacity:.2" d="M3 22.5c-.554 0-1-.446-1-1V21c0 .554.446 1 1 1h18c.554 0 1-.446 1-1v.5c0 .554-.446 1-1 1z"/><path style="fill:#fccf42" d="M6 6 5 7v8l1 1h6.5v-1H6V7h12v1.5h.207l.793.793V7l-1-1zM3.5 17l1 1h8.793l-.793-.793V17zm16 0v.207l-.793.793h.793l1-1z"/><path style="fill:#fccf42" d="m14 9-1 1v7l1 1h4l1-1v-7l-1-1zm0 1h4v4h-4zm0 5h4v2h-4zm1 1v.5h2V16z"/></svg>