<svg height="24" width="24" xmlns="http://www.w3.org/2000/svg">
    <rect height="20" opacity=".2" rx="1" width="20" x="2" y="2.5"/>
    <rect fill="#f4f4f7" height="20" rx="1" width="20" x="2" y="2"/>
    <path d="M3 2c-.554 0-1 .446-1 1v.5c0-.554.446-1 1-1h18c.554 0 1 .446 1 1V3c0-.554-.446-1-1-1z" fill="#f4f4f7" opacity=".2"/>
    <path d="M4.5 6.5H6v12c-1.5 0-1.5 1-1.5 1h5s0-1-1.5-1v-8.384l5.934 8.419c.44.98.638.965 1.641.965H17s1 0 1-1.5V6.5h1.5s0-1-1.5-1h-2c-1.5 0-1.5 1-1.5 1H16v8.384l-5.886-8.335C9.602 5.352 9.214 5.5 8 5.5H6c-1.5 0-1.5 1-1.5 1z" opacity=".1"/>
    <path d="M4.5 6H6v12c-1.5 0-1.5 1-1.5 1h5s0-1-1.5-1V9.616l5.934 8.419c.44.98.638.965 1.641.965H17s1 0 1-1.5V6h1.5s0-1-1.5-1h-2c-1.5 0-1.5 1-1.5 1H16v8.384l-5.886-8.335C9.602 4.852 9.214 5 8 5H6C4.5 5 4.5 6 4.5 6z" fill="#17191e"/>
</svg>
