<svg height="24" width="24" xmlns="http://www.w3.org/2000/svg">
    <rect height="16" opacity=".2" rx="8" transform="matrix(0 -1 -1 0 0 0)" width="16" x="-20.5" y="-20"/>
    <rect fill="#4ca341" height="16" rx="8" transform="matrix(0 -1 -1 0 0 0)" width="16" x="-20" y="-20"/>
    <path d="M12 4c-4.432 0-8 3.568-8 8 0 .084.01.166.012.25A7.977 7.977 0 0 1 12 4.5a7.977 7.977 0 0 1 7.988 7.75c.003-.084.012-.166.012-.25 0-4.432-3.568-8-8-8z" fill="#f4f4f7" opacity=".2"/>
    <path d="M12 2.5a10 10 0 0 0-4.996 1.354A10 10 0 0 1 12 12.5a10 10 0 0 1-5.004 8.646A10 10 0 0 0 12 22.5a10 10 0 0 0 10-10 10 10 0 0 0-10-10z" opacity=".2"/>
    <g fill="#f4f4f7">
        <path d="M12 2a10 10 0 0 0-4.996 1.354A10 10 0 0 1 12 12a10 10 0 0 1-5.004 8.646A10 10 0 0 0 12 22a10 10 0 0 0 10-10A10 10 0 0 0 12 2z"/>
        <path d="M12 2a10 10 0 0 0-4.996 1.354 10 10 0 0 1 .428.277A10 10 0 0 1 12 2.5a10 10 0 0 1 9.99 9.793A10 10 0 0 0 22 12 10 10 0 0 0 12 2zm-.008 10.168a10 10 0 0 1-4.996 8.478 10 10 0 0 0 .441.229A10 10 0 0 0 12 12.5a10 10 0 0 0-.008-.332z" opacity=".2"/>
    </g>
</svg>
