<svg xmlns="http://www.w3.org/2000/svg" width="24" height="24" version="1"><circle style="opacity:.2" cx="12" cy="12.5" r="10"/><circle style="fill:#3e50b4" cx="12" cy="12" r="10"/><path style="opacity:.1;fill:#f4f4f7" d="M12 2A10 10 0 0 0 2 12a10 10 0 0 0 .01.291A10 10 0 0 1 12 2.5a10 10 0 0 1 9.99 9.709A10 10 0 0 0 22 12 10 10 0 0 0 12 2z"/><path style="opacity:.2" d="M8 16.5v-1h5v1zm0-2v-1h8v1zm0-2v-1h8v1zm0-2v-1h8v1z"/><path style="fill:#f4f4f7" d="M8 16v-1h5v1zm0-2v-1h8v1zm0-2v-1h8v1zm0-2V9h8v1z"/></svg>