<svg height="24" width="24" xmlns="http://www.w3.org/2000/svg">
    <circle cx="11.5" cy="13" opacity=".2" r="9.5"/>
    <circle cx="11.5" cy="12.5" fill="#4bae4f" r="9.5"/>
    <path d="M7 16.5h9v-7H7zm1-6h3v1H8zm4 0h3v1h-3zm-4 2h3v1H8zm4 0h3v1h-3zm-4 2h3v1H8zm4 0h3v1h-3z" opacity=".2"/>
    <g fill="#f4f4f7">
        <path d="M7 16h9V9H7zm1-6h3v1H8zm4 0h3v1h-3zm-4 2h3v1H8zm4 0h3v1h-3zm-4 2h3v1H8zm4 0h3v1h-3z"/>
        <path d="M11.5 3A9.5 9.5 0 0 0 2 12.5a9.5 9.5 0 0 0 .01.293A9.5 9.5 0 0 1 11.5 3.5a9.5 9.5 0 0 1 9.49 9.207A9.5 9.5 0 0 0 21 12.5 9.5 9.5 0 0 0 11.5 3z" opacity=".2"/>
    </g>
</svg>
