<svg height="24" width="24" xmlns="http://www.w3.org/2000/svg">
    <circle cx="12" cy="12.5" opacity=".2" r="10"/>
    <circle cx="12" cy="12" fill="#2a4986" r="10"/>
    <path d="M7.274 3.696a10 10 0 0 0-2.455 1.86l13.875 8.418-14.87-7.22a10 10 0 0 0-1.382 2.808l16.702 5.516-17.015-4.096A10 10 0 0 0 2 12.5a10 10 0 0 0 .14 1.65l15.658 1.552-15.275-.049a10 10 0 0 0 1.315 2.603l14.252-1.29-13.37 2.38a10 10 0 0 0 2.508 1.94l13.687-4.28a10 10 0 0 0 .727-1.894z" opacity=".2"/>
    <g fill="#f4f4f7">
        <path d="M7.274 3.196a10 10 0 0 0-2.455 1.86l13.875 8.419-14.87-7.221a10 10 0 0 0-1.382 2.809l16.702 5.515-17.015-4.096A10 10 0 0 0 2 12a10 10 0 0 0 .14 1.65l15.658 1.552-15.275-.049a10 10 0 0 0 1.315 2.603l14.252-1.29-13.37 2.38a10 10 0 0 0 2.508 1.94l13.687-4.28a10 10 0 0 0 .727-1.894z"/>
        <path d="M12 2A10 10 0 0 0 2 12a10 10 0 0 0 .01.291A10 10 0 0 1 12 2.5a10 10 0 0 1 9.99 9.709A10 10 0 0 0 22 12 10 10 0 0 0 12 2z" opacity=".1"/>
    </g>
</svg>
