<svg xmlns="http://www.w3.org/2000/svg" width="24" height="24" version="1"><circle style="opacity:.2" cx="12" cy="12.5" r="10"/><circle style="fill:#8e8e8e" cx="12" cy="12" r="10"/><path style="opacity:.2" d="m11.96 9.5-1.556 4.969-1.156-2.895H7v1.002h1.594l1.554 3.92h.692l1.851-5.988h3.198V9.5zm.749 3 1.627 1.906-1.78 2.094h.89l1.333-1.57 1.334 1.57h.889l-1.744-2.055 1.658-1.945h-.889l-1.215 1.424-1.214-1.424z"/><path style="fill:#f4f4f7" d="m11.96 9-1.556 4.969-1.156-2.895H7v1.002h1.594l1.554 3.92h.692l1.851-5.988h3.198V9H11.96zm.749 3 1.627 1.906L12.556 16h.89l1.333-1.57L16.113 16h.889l-1.744-2.055L16.916 12h-.889l-1.215 1.424L13.598 12h-.889z"/><path style="opacity:.2;fill:#f4f4f7" d="M12 2A10 10 0 0 0 2 12a10 10 0 0 0 .01.291A10 10 0 0 1 12 2.5a10 10 0 0 1 9.99 9.709A10 10 0 0 0 22 12 10 10 0 0 0 12 2z"/></svg>