<svg width="24" height="24" version="1" xmlns="http://www.w3.org/2000/svg"><rect x="2" y="2" width="20" height="20" rx="1" ry="1" style="fill:#c2352a"/><path d="M3 2c-.554 0-1 .446-1 1v.5c0-.554.446-1 1-1h18c.554 0 1 .446 1 1V3c0-.554-.446-1-1-1z" style="fill:#f4f4f7;opacity:.2"/><path d="M3 22.5c-.554 0-1-.446-1-1V21c0 .554.446 1 1 1h18c.554 0 1-.446 1-1v.5c0 .554-.446 1-1 1zM20.492 8.486a.5.5 0 0 0-.492.506v5.883L16.947 8.77a.5.5 0 0 0-.947.222v8a.5.5 0 1 0 1 0v-5.88l3.053 6.105a.5.5 0 0 0 .947-.225v-8a.5.5 0 0 0-.508-.506zm-9.355.002c-.399-.011-.66.006-.66.006a.5.5 0 0 0-.47.498v3.918a.5.5 0 0 0 0 .168v3.914a.5.5 0 1 0 1 0v-3.54c.346.008.79.05 1.606-.128.544-.119 1.11-.31 1.576-.676.467-.364.819-.945.819-1.656 0-.71-.352-1.29-.819-1.654-.466-.365-1.032-.559-1.576-.678a8.184 8.184 0 0 0-1.476-.172zM6.512 8.5c-.637 0-1.163.147-1.56.443-.398.297-.633.722-.763 1.166-.259.89-.177 1.912-.177 2.891 0 .98-.082 2.001.177 2.89.13.445.365.87.762 1.167.398.296.924.443 1.56.443.637 0 1.166-.147 1.563-.443.398-.297.632-.722.762-1.166.26-.89.176-1.912.176-2.891s.083-2.001-.176-2.89c-.13-.445-.364-.87-.762-1.167-.397-.296-.926-.443-1.562-.443zm0 1c.488 0 .774.103.963.244.188.14.313.341.402.647.178.61.135 1.588.135 2.609s.043 1.999-.135 2.61c-.09.305-.214.505-.402.646-.189.14-.475.244-.963.244-.489 0-.773-.103-.961-.244-.189-.14-.313-.341-.403-.647C4.97 15 5.012 14.021 5.012 13c0-1.02-.042-1.999.136-2.61.09-.305.214-.505.403-.646.188-.14.472-.244.96-.244zm5.052.025c.224.01.495.037.836.112.457.1.891.267 1.174.488s.434.453.434.867c0 .415-.15.648-.434.87s-.717.386-1.174.486c-.682.149-1.081.115-1.392.109V9.529c.155-.003.333-.013.556-.004z" style="opacity:.2"/><path d="M20.492 7.986a.5.5 0 0 0-.492.506v5.883L16.947 8.27a.5.5 0 0 0-.947.222v8a.5.5 0 1 0 1 0v-5.88l3.053 6.105a.5.5 0 0 0 .947-.225v-8a.5.5 0 0 0-.508-.506zm-9.355.002c-.399-.011-.66.006-.66.006a.5.5 0 0 0-.47.498v3.918a.5.5 0 0 0 0 .168v3.914a.5.5 0 1 0 1 0v-3.54c.346.008.79.051 1.606-.128.544-.119 1.11-.31 1.576-.676.467-.364.819-.945.819-1.656 0-.71-.352-1.29-.819-1.654-.466-.365-1.032-.559-1.576-.678a8.184 8.184 0 0 0-1.476-.172zM6.512 8c-.637 0-1.163.147-1.56.443-.398.297-.633.722-.763 1.166-.259.89-.177 1.912-.177 2.891s-.082 2.001.177 2.89c.13.445.365.87.762 1.167.398.296.924.443 1.56.443.637 0 1.166-.147 1.563-.443.398-.297.632-.722.762-1.166.26-.89.176-1.912.176-2.891s.083-2.001-.176-2.89c-.13-.445-.364-.87-.762-1.167C7.677 8.147 7.148 8 6.512 8zm0 1c.488 0 .774.103.963.244s.313.341.402.647c.178.61.135 1.588.135 2.609 0 1.02.043 1.999-.135 2.61-.09.305-.214.505-.402.646-.189.14-.475.244-.963.244-.489 0-.773-.103-.961-.244-.189-.14-.313-.341-.403-.647-.178-.61-.136-1.588-.136-2.609s-.042-1.999.136-2.61c.09-.305.214-.505.403-.646.188-.14.472-.244.96-.244zm5.052.025c.224.01.495.037.836.112.457.1.891.267 1.174.488s.434.453.434.867c0 .415-.15.648-.434.87s-.717.386-1.174.486c-.682.149-1.081.115-1.392.109V9.029c.155-.003.333-.013.556-.004z" style="fill:#f5b0b0"/></svg>