<svg height="24" width="24" xmlns="http://www.w3.org/2000/svg"><g transform="translate(1 1)"><rect fill="#e83838" height="20" rx="1" transform="matrix(0 -1 -1 0 0 0)" width="20" x="-21" y="-21"/><path d="m2 1c-.554 0-1 .446-1 1v.5c0-.554.446-1 1-1h18c.554 0 1 .446 1 1v-.5c0-.554-.446-1-1-1z" fill="#fff" opacity=".2"/><path d="m2 21.5c-.554 0-1-.446-1-1v-.5c0 .554.446 1 1 1h18c.554 0 1-.446 1-1v.5c0 .554-.446 1-1 1zm2-4.812h2.141l1.244-5.13h5.844l-5.474 4.8 1.427 1.642.731-.377c1.382-.71 1.962-.295 3.01-.004 1.02.283 1.98.586 3.969-.56l-.395-2.025c-2.172 1.544-2.859.167-4.405.112l4.427-3.646.48-2h-9.274l.597-3h6.079l.417-2h-8.018z" opacity=".2"/><path d="m4 16.188h2.141l1.244-5.13h5.844l-5.473 4.798 1.427 1.644.73-.376c1.382-.71 1.962-.295 3.01-.004 1.02.283 1.98.586 3.969-.56l-.395-2.025c-2.171 1.544-2.858.166-4.405.112l4.428-3.647.48-2h-9.273l.597-3h6.076l.417-2h-8.017z" fill="#fff"/></g></svg>