<svg height="24" width="24" xmlns="http://www.w3.org/2000/svg"><path d="m5 22.5c-.554 0-1-.446-1-1v-18c0-.554.446-1 1-1h14c.554 0 1 .446 1 1v13l-6 6z" opacity=".2"/><path d="m5 22c-.554 0-1-.446-1-1v-18c0-.554.446-1 1-1h14c.554 0 1 .446 1 1v13l-6 6z" fill="#f4f4f7"/><path d="m5 2c-.554 0-1 .446-1 1v.5c0-.554.446-1 1-1h14c.554 0 1 .446 1 1v-.5c0-.554-.446-1-1-1z" fill="#f4f4f7" opacity=".2"/><path d="m14 22v-5a1 1 0 0 1 1-1h5z" fill="#fafafa"/><path d="m21.051 2.504c-.351.032-.606.287-.606.287l-10.445 10.445v3.264h3.264l10.447-10.445s.653-.654 0-1.307l-1.959-1.957c-.245-.245-.491-.306-.701-.287z" opacity=".1"/><path d="m10 16v-3.264l3.264 3.264z" fill="#f3d491"/><path d="m10 16v-1.306l1.306 1.306z" fill="#545454"/><path d="m20.446 2.29-10.446 10.446 3.264 3.264 10.446-10.446s.653-.652 0-1.305l-1.959-1.959c-.653-.653-1.305 0-1.305 0z" fill="#ffbb29"/></svg>