<svg xmlns="http://www.w3.org/2000/svg" width="24" height="24"><rect style="opacity:.2" width="20" height="20" x="2" y="2.5" rx="1" ry="1"/><rect style="fill:#f63db6" width="20" height="20" x="2" y="2" rx="1" ry="1"/><path style="opacity:.1;fill:#f4f4f7" d="M3 2c-.554 0-1 .446-1 1v.5c0-.554.446-1 1-1h18c.554 0 1 .446 1 1V3c0-.554-.446-1-1-1z"/><path style="opacity:.2" d="M9.961 18.187a466.022 466.022 0 0 1-3.775-1.326c-.008-.008-.01-.019-.005-.024.006-.006 2.21.188 4.286.43 2.863.334 3.52.434 3.533.414.023-.035.023-9.818 0-9.853-.025-.038-4.93 1.085-4.971 1.138-.023.03-.029.736-.029 3.359 0 2.631-.006 3.326-.028 3.343-.044.033-2.915 1.113-2.948 1.113-.022 0-.027-.858-.022-4.25l.005-4.25 2.956-1.059 3.883-1.39.928-.332 2.084.647c1.147.356 2.098.655 2.113.665.023.014.029 1.185.029 5.733 0 5.421-.002 5.717-.04 5.737-.07.036-4.14 1.22-4.19 1.218-.027 0-1.741-.591-3.81-1.313z"/><path style="fill:#f4f4f7" d="M9.961 17.687a466.022 466.022 0 0 1-3.775-1.326c-.008-.008-.01-.019-.005-.024.006-.006 2.21.188 4.286.43 2.863.334 3.52.434 3.533.414.023-.035.023-9.818 0-9.853-.025-.038-4.93 1.085-4.971 1.138-.023.03-.029.736-.029 3.359 0 2.631-.006 3.326-.028 3.343-.044.033-2.915 1.113-2.948 1.113-.022 0-.027-.858-.022-4.25l.005-4.25 2.956-1.059 3.883-1.39.928-.332 2.084.647c1.147.356 2.098.655 2.113.665.023.014.029 1.185.029 5.733 0 5.421-.002 5.717-.04 5.737-.07.036-4.14 1.22-4.19 1.218-.027 0-1.741-.591-3.81-1.313z"/></svg>