<svg height="24" width="24" xmlns="http://www.w3.org/2000/svg"><rect fill="#f7941e" height="19.998" rx="10" ry="9.999" transform="matrix(0 -1 -1 0 0 0)" width="20" x="-22" y="-21"/><path d="m11 2c-5.54 0-9.999 4.46-9.999 10 0 .084-.002.167 0 .25a9.98 9.98 0 0 1 10-9.75 9.98 9.98 0 0 1 9.998 9.75c.002-.083 0-.166 0-.25.001-5.54-4.459-10-9.999-10z" fill="#f4f4f7" opacity=".1"/><path d="m1.006 12.25c-.002.083-.006.166-.006.25 0 5.54 4.46 10 10 10 5.539 0 9.998-4.46 9.998-10 0-.084-.004-.167-.006-.25a9.975 9.975 0 0 1 -9.992 9.75 9.975 9.975 0 0 1 -9.993-9.75z" opacity=".2"/><rect fill="#4c3a91" height="19.998" rx="10" ry="9.999" transform="matrix(0 -1 -1 0 0 0)" width="20" x="-22" y="-23"/><path d="m6.463 15a7 7 0 0 0 6.537 4.5 7 7 0 0 0 6.53-4.5h-13.068z" opacity=".2"/><path d="m6.684 15a7 7 0 0 0 6.316 4 7 7 0 0 0 6.314-4z" fill="#6e5dae"/><path d="m13 2c-5.54 0-10 4.46-10 10v.25a9.98 9.98 0 0 1 10-9.75 9.98 9.98 0 0 1 10 9.75v-.25c0-5.54-4.46-10-10-10z" fill="#f4f4f7" opacity=".1"/><path d="m13 22.5a9.977 9.977 0 0 1 -10-10v-.25a9.98 9.98 0 0 0 10 9.75 9.98 9.98 0 0 0 9.997-9.75c.002.083 0 .166 0 .25 0 5.54-4.459 10-9.998 10z" opacity=".2"/><path d="m3.832 8.5a9.94 9.94 0 0 0 -.633 2h19.6a9.94 9.94 0 0 0 -.633-2zm-.783 3a10.205 10.205 0 0 0 0 2h19.846c.019 0 .035-.01.054-.012a10.2 10.2 0 0 0 0-1.976c-.019-.002-.035-.012-.054-.012zm.15 3a9.94 9.94 0 0 0 .633 2h18.334a9.94 9.94 0 0 0 .633-2z" opacity=".2"/><path d="m3.832 8a9.94 9.94 0 0 0 -.633 2h19.6a9.94 9.94 0 0 0 -.633-2zm-.783 3a10.205 10.205 0 0 0 0 2h19.846c.019 0 .035-.01.054-.012a10.201 10.201 0 0 0 0-1.976c-.019-.002-.035-.012-.054-.012zm.15 3a9.94 9.94 0 0 0 .633 2h18.334a9.94 9.94 0 0 0 .633-2z" fill="#f4f4f7"/></svg>