<svg height="24" width="24" xmlns="http://www.w3.org/2000/svg"><path d="m3.429 4.5c-.792 0-1.429.672-1.429 1.508v11.984c0 .836.637 1.508 1.429 1.508h17.141c.792 0 1.429-.672 1.429-1.508v-11.984c0-.836-.637-1.509-1.429-1.508h-8.57z" opacity=".2"/><path d="m3.429 4c-.792 0-1.429.672-1.429 1.508v11.984c0 .836.637 1.508 1.429 1.508h8.621v-15z" fill="#f4f4f7"/><path d="m3.429 4c-.792 0-1.429.672-1.429 1.508v.5c0-.836.637-1.508 1.429-1.508h8.62v-.5z" fill="#f4f4f7" opacity=".2"/><path d="m12 4v15h8.571c.792 0 1.429-.673 1.429-1.508v-11.984c0-.835-.637-1.508-1.429-1.508z" fill="#51495d"/><circle cx="18.5" cy="12" opacity=".2" r="4.5"/><circle cx="18.5" cy="11.5" fill="#f4f4f7" r="4.5"/><circle cx="18.5" cy="11.5" fill="#3ea5e6" r="2.5"/><path d="m12 4v.5h8.571c.792 0 1.429.672 1.429 1.508v-.5c0-.836-.637-1.509-1.429-1.508z" fill="#f4f4f7" opacity=".1"/><path d="m18.5 9a2.5 2.5 0 0 0 -2.5 2.5 2.5 2.5 0 0 0 .014.238 2.5 2.5 0 0 1 2.486-2.238 2.5 2.5 0 0 1 2.486 2.262 2.5 2.5 0 0 0 .014-.262 2.5 2.5 0 0 0 -2.5-2.5z" opacity=".2"/></svg>