<svg height="24" width="24" xmlns="http://www.w3.org/2000/svg"><g transform="translate(1 1)"><rect fill="#5db43e" height="20" rx="10" transform="matrix(0 -1 -1 0 0 0)" width="20" x="-21" y="-21"/><path d="m10 6.5v1h1v3h1v-4zm-2 5v1h6v-1zm1 2v3h2v1h1v-4h-1v2h-1v-2z" opacity=".2"/><path d="m11 1c-5.54 0-10 4.46-10 10 0 .084-.002.166 0 .25.132-5.423 4.544-9.75 10-9.75s9.868 4.327 10 9.75c.002-.084 0-.166 0-.25 0-5.54-4.46-10-10-10z" fill="#fff" opacity=".2"/><path d="m1.006 11.25c-.002.084-.006.166-.006.25 0 5.54 4.46 10 10 10s10-4.46 10-10c0-.084-.004-.167-.006-.25-.132 5.423-4.538 9.75-9.994 9.75s-9.862-4.327-9.994-9.75z" opacity=".2"/><path d="m10 6v1h1v3h1v-4zm-2 5v1h6v-1zm1 2v3h2v1h1v-4h-1v2h-1v-2z" fill="#fff"/></g></svg>