<svg xmlns="http://www.w3.org/2000/svg" width="24" height="24" version="1"><rect style="opacity:.2" width="20" height="13" x="2" y="8.5" rx="1" ry="1"/><path style="fill:#dd772f" d="M2 17c0 .554.446 1 1 1h18c.554 0 1-.446 1-1V6c0-.554-.446-1-1-1h-9c-1.5 0-2-2-3.5-2H3c-.554 0-1 .446-1 1"/><path style="opacity:.1;fill:#f4f4f7" d="M3 3c-.554 0-1 .446-1 1v.5c0-.554.446-1 1-1h5.5c1.5 0 2 2 3.5 2h9c.554 0 1 .446 1 1V6c0-.554-.446-1-1-1h-9c-1.5 0-2-2-3.5-2z"/><rect style="opacity:.2" width="20" height="13" x="2" y="7.5" rx="1" ry="1"/><rect style="fill:#dcdcdc" width="18" height="8" x="3" y="6" rx="1" ry="1"/><rect style="fill:#ee923a" width="20" height="13" x="2" y="8" rx="1" ry="1"/><path style="opacity:.2" d="M12.036 9.51a1.007 1.007 0 0 0-.987.667l-.759 2.301-2.31.046c-.956.019-1.35 1.215-.588 1.784l1.841 1.376-.67 2.031c-.277.902.757 1.641 1.54 1.103L12 17.516l1.896 1.302c.784.538 1.818-.201 1.54-1.103l-.67-2.03 1.842-1.377c.762-.569.368-1.765-.587-1.784l-2.311-.046-.759-2.301a1.006 1.006 0 0 0-.915-.667zm-.036.992.99 2.955 3.01.06-2.4 1.793.872 2.692L12 16.307l-2.472 1.695.872-2.692L8 13.516l3.01-.06z"/><path style="fill:#f4f4f7" d="M12.036 9.008a1.007 1.007 0 0 0-.987.667l-.759 2.301-2.31.046c-.956.019-1.35 1.215-.588 1.784l1.841 1.376-.67 2.03c-.277.902.757 1.642 1.54 1.103L12 17.014l1.896 1.301c.784.54 1.818-.2 1.54-1.102l-.67-2.031 1.842-1.376c.762-.569.368-1.765-.587-1.784l-2.311-.046-.759-2.301a1.006 1.006 0 0 0-.915-.667zM12 10l.99 2.954 3.01.06-2.4 1.794.872 2.692L12 15.805 9.528 17.5l.872-2.692L8 13.014l3.01-.06z"/></svg>