<svg xmlns="http://www.w3.org/2000/svg" width="24" height="24" version="1"><rect style="opacity:.2" width="20" height="20" x="2" y="2.5" rx="6" ry="6"/><rect style="fill:#f4f4f7" width="20" height="20" x="2" y="2" rx="6" ry="6"/><rect style="opacity:.1" width="14" height="14" x="-19.5" y="-19" rx="7" ry="7" transform="matrix(0 -1 -1 0 0 0)"/><rect style="fill:#e74c3c" width="14" height="14" x="-19" y="-19" rx="7" ry="7" transform="matrix(0 -1 -1 0 0 0)"/><path style="fill:#f4f4f7;opacity:.2" d="M8 2C4.676 2 2 4.676 2 8v.5c0-3.324 2.676-6 6-6h8c3.324 0 6 2.676 6 6V8c0-3.324-2.676-6-6-6H8z"/></svg>