<svg height="24" width="24" xmlns="http://www.w3.org/2000/svg"><circle cx="12" cy="12.5" opacity=".2" r="10"/><circle cx="12" cy="12" fill="#f17d1e" r="10"/><path d="m12 2a10 10 0 0 0 -10 10 10 10 0 0 0 .01.291 10 10 0 0 1 9.99-9.791 10 10 0 0 1 9.99 9.709 10 10 0 0 0 .01-.209 10 10 0 0 0 -10-10z" fill="#f4f4f7" opacity=".2"/><path d="m10.394 6.5c-.21 0-.38.155-.38.347v1.387c0 .788-.716 1.888-1.408 2.929-.731 1.1-1.442 2.237-1.585 3.295a2.598 2.598 0 0 0 -.02.379c4.56.145 8.601-2.308 8.644-2.335l.348-.214c-.229-.376-.746-.753-.994-1.125-.692-1.041-1.018-2.141-1.018-2.929v-1.387c0-.192-.17-.347-.38-.347zm6.023 6.388-.276.169c-2.288 1.399-5.791 2.508-9.051 2.447.462 1.61 2.3 2.696 2.394 2.749.061.034.493.247 2.473.247s2.479-.213 2.54-.247c.114-.064 2.779-1.623 2.48-3.818-.07-.502-.28-1.021-.56-1.547z" opacity=".2"/><path d="m10.394 6c-.21 0-.38.155-.38.347v1.387c0 .788-.716 1.888-1.408 2.929-.731 1.1-1.442 2.237-1.585 3.295a2.598 2.598 0 0 0 -.02.379c4.56.145 8.601-2.308 8.644-2.335l.348-.214c-.229-.376-.746-.753-.994-1.125-.692-1.041-1.018-2.141-1.018-2.929v-1.387c0-.192-.17-.347-.38-.347zm6.023 6.388-.276.169c-2.288 1.399-5.791 2.508-9.051 2.447.462 1.61 2.3 2.696 2.394 2.749.061.034.493.247 2.473.247s2.479-.213 2.54-.247c.114-.064 2.779-1.623 2.48-3.818-.07-.502-.28-1.021-.56-1.547z" fill="#f4f4f7"/></svg>