<svg height="64" width="64" xmlns="http://www.w3.org/2000/svg">
    <filter id="a" color-interpolation-filters="sRGB" height="1.054" width="1.054" x="-.027" y="-.027">
        <feGaussianBlur stdDeviation=".619"/>
    </filter>
    <linearGradient id="b" gradientUnits="userSpaceOnUse" x1="4.5" x2="59.5" y1="59.49" y2="4.49">
        <stop offset="0" stop-color="#dee0e2"/>
        <stop offset="1" stop-color="#f1f3f5" stop-opacity=".996"/>
    </linearGradient>
    <linearGradient id="c" gradientUnits="userSpaceOnUse" x1="25.145" x2="25.145" y1="-14.104" y2="-10.276">
        <stop offset="0" stop-color="#ff5032"/>
        <stop offset="1" stop-color="#e63214"/>
    </linearGradient>
    <linearGradient id="d" gradientUnits="userSpaceOnUse" x1="13.583" x2="13.583" y1="10.277" y2="14.106">
        <stop offset="0" stop-color="#ff8214"/>
        <stop offset="1" stop-color="#ffbe14"/>
    </linearGradient>
    <linearGradient id="e" gradientUnits="userSpaceOnUse" x1="19.364" x2="19.364" y1="-14.104" y2="-10.276">
        <stop offset="0" stop-color="#3cd23c"/>
        <stop offset="1" stop-color="#1eaa1e"/>
    </linearGradient>
    <linearGradient id="f" gradientTransform="matrix(.9091 0 0 .72727 122.455 13.256)" gradientUnits="userSpaceOnUse" x1="-127" x2="-72" y1="60" y2="5">
        <stop offset="0" stop-color="#32d7ff"/>
        <stop offset="1" stop-color="#329bff"/>
    </linearGradient>
    <g stroke-linecap="round">
        <rect fill="#141414" filter="url(#a)" height="55" opacity=".3" ry="15" width="55" x="4.5" y="4.5"/>
        <rect fill="url(#b)" height="55" ry="15" width="55" x="4.5" y="4.5"/>
        <g stroke-linejoin="round" stroke-width="2.44" transform="translate(3.407 -.626)">
            <circle cx="25.111" cy="-12.191" fill="url(#c)" r="2" transform="scale(1 -1)"/>
            <circle cx="13.55" cy="12.191" fill="url(#d)" r="2"/>
            <circle cx="19.331" cy="-12.191" fill="url(#e)" r="2" transform="scale(1 -1)"/>
        </g>
    </g>
    <path d="M19.551 16.9H44.45A12.524 12.524 0 0 1 57 29.45V44.35a12.524 12.524 0 0 1-12.551 12.55H19.55A12.524 12.524 0 0 1 7 44.35V29.45A12.524 12.524 0 0 1 19.551 16.9z" fill="url(#f)"/>
</svg>
