<svg xmlns="http://www.w3.org/2000/svg" width="24" height="24"><path style="opacity:.2" d="M2.01 12.21a10 10 0 0 0-.01.29 10 10 0 0 0 10 10 10 10 0 0 0 10-10 10 10 0 0 0-.01-.209A10 10 0 0 1 12 22a10 10 0 0 1-9.989-9.79z"/><circle style="fill:#3cb054" cx="12" cy="12" r="10"/><path style="fill-rule:evenodd;opacity:.2" d="M8 7.5c7.256.249 10.054 4.28 8.649 7.88-.398 1.001-.82 1.549-1.71 2.12.036-.144.073-.29.102-.437.526-2.808-.165-6.197-5.041-8.063 3.88 2.138 4.852 6 3.33 8.408-3.08.448-5.33-1.987-5.33-4.792z"/><path style="fill:#f4f4f7;fill-rule:evenodd" d="M8 7c7.256.249 10.054 4.28 8.649 7.88-.398 1.001-.82 1.549-1.71 2.12.036-.144.073-.29.102-.437.526-2.808-.165-6.197-5.041-8.063 3.88 2.138 4.852 6 3.33 8.408-3.08.448-5.33-1.987-5.33-4.792z"/><path style="opacity:.2;fill:#f4f4f7" d="M12 2A10 10 0 0 0 2 12a10 10 0 0 0 .01.21A10 10 0 0 1 12 2.5a10 10 0 0 1 9.99 9.791 10 10 0 0 0 .01-.29A10 10 0 0 0 12 2z"/></svg>