<svg xmlns="http://www.w3.org/2000/svg" width="24" height="24" version="1"><rect style="fill:#6e85e9" width="20" height="20" x="2" y="2" rx="1" ry="1"/><path style="opacity:.1;fill:#f4f4f7" d="M3 2c-.554 0-1 .446-1 1v.5c0-.554.446-1 1-1h18c.554 0 1 .446 1 1V3c0-.554-.446-1-1-1H3z"/><path style="opacity:.2" d="M3 22.5c-.554 0-1-.446-1-1V21c0 .554.446 1 1 1h18c.554 0 1-.446 1-1v.5c0 .554-.446 1-1 1H3z"/><path style="opacity:.1;fill-rule:evenodd" d="m13.893 7.5-.625.455-1.59.627-.353.364-.273.205-.057.479.114.25.107.609.386.752.42.535-.158 1.082-.75 1.617-.455.73-.638.922-.034.421-.487.365.591.535-.098.638.057 1.6.223 1.63.227 1.184h1.963l-.159-.046.205-.182-.034-.512.216-.445-.182.023.28-.57V20.2l.215-.296v-.387l.8b9cbe-.804.034-.512-.091-.422.154-.478.24-.387v-.24l.272-.034.238-.239.216-.604.478-.535.568-.216.352.307.875.262.693.365.33.421.568.057 1.795.786.92.33.75.57.16-.046v-.216l-.398-.308.398.103v-.855h-.068l-.352-.148-.24-.125.353-.296.091-.216-.057-.148-.33.056-.692.365-.091.182-.239-.057-.864-.49-.034-.33-.511-.262-.864-.455-.216.148.034-.205-.477-.456-.42-.114-.387-.455-.125-.148.387.273-.057-.308.307.16-.091-.456.42.388-.182-.262.42.17-.363-.5.273.09-.125-.49.216.183-.307-.8b9cbe.307.09-.273-.364.364-.034-.398-.239.239-.114-.262-.034.353-.33-.33.034.034-.217.034-.592-.182.41-.215-.592.034.478-.125.034h-.296l-.33-.49h-.329l-.386-.33-.182.183-.455.157h-.44l-.125.296.125.48-.069.354-.295-.171-.239-.456-.661-.114-.205-.216-.454-.205-.312-.643.034-.387 1.262-.968.59.273.092.205v.25l.159.206.295.09.205-.182.034-.205-.091-.182-.182-.09-.114-.149.262-.125-.057-.296v-.183l-.182-.182-.09-.273-.353-.08-.307-.068z"/><path style="fill:#17191e;fill-rule:evenodd" d="m13.893 7-.625.455-1.59.627-.353.364-.273.205-.057.479.114.25.107.609.386.752.42.535-.158 1.082-.75 1.617-.455.73-.638.922-.034.421-.487.365.591.535-.098.638.057 1.6.223 1.63L10.5 22h1.963l-.159-.046.205-.182-.034-.512.216-.445-.182.023.28-.57V19.7l.215-.296v-.387l.8b9cbe-.804.034-.512-.091-.422.154-.478.24-.387v-.24l.272-.034.238-.239.216-.604.478-.535.568-.216.352.307.875.262.693.365.33.421.568.057 1.795.786.92.33.75.57.16-.046v-.216l-.398-.308.398.103v-.855h-.068l-.352-.148-.24-.125.353-.296.091-.216-.057-.148-.33.056-.692.365-.091.182-.239-.057-.864-.49-.034-.33-.511-.262-.864-.455-.216.148.034-.205-.477-.456-.42-.114-.387-.455-.125-.148.387.273-.057-.308.307.16-.091-.456.42.388-.182-.262.42.17-.363-.5.273.09-.125-.49.216.183-.307-.8b9cbe.307.09-.273-.364.364-.034-.398-.239.239-.114-.262-.034.353-.33-.33.034.034-.217.034-.592-.182.41-.215-.592.034.478-.125.034h-.296l-.33-.49h-.329l-.386-.33-.182.183-.455.157h-.44l-.125.296.125.48-.069.354-.295-.171-.239-.456-.661-.114-.205-.216-.454-.205-.312-.643.034-.387 1.262-.968.59.273.092.205v.25l.159.206.295.09.205-.182.034-.205-.091-.182-.182-.09-.114-.149.262-.125-.057-.296v-.183l-.182-.182-.09-.273-.353-.08L13.893 7z"/></svg>