<svg height="24" width="24" xmlns="http://www.w3.org/2000/svg">
    <path d="M22 12.556a10 10 0 1 0-20 0 10 10 0 0 0 20 0" opacity=".2"/>
    <path d="M22 12.056a10 10 0 1 0-20 0 10 10 0 0 0 20 0" fill="#4f4f4f"/>
    <path d="M5 12.5c0 3.86 3.14 7 7 7s7-3.14 7-7-3.14-7-7-7-7 3.14-7 7z" opacity=".2"/>
    <path d="M5 12c0 3.86 3.14 7 7 7s7-3.14 7-7-3.14-7-7-7-7 3.14-7 7z" fill="#f4f4f7"/>
    <path d="M12 6.524v5.736c-.48-.17-.964-.26-1.5-.26C8.567 12 7 13.12 7 14.5S8.567 17 10.5 17s3.5-1.12 3.5-2.5v-6s2.585 1.199 1.406 2.28c-.323.185-.43.472-.373.722.087.38.548.675 1.19.402C17.186 11.4 17.5 10.5 17.5 9.75c0-2.25-3-3.75-5-3.75-.5 0-.5.524-.5.524z" fill="#366adb"/>
    <path d="M11.764 2.003A10 10 0 0 0 2 12.056a10 10 0 0 0 .008.134 10 10 0 0 1 19.984.185 10 10 0 0 0 .008-.32A10 10 0 0 0 11.764 2.004z" fill="#f4f4f7" opacity=".1"/>
</svg>
