<svg xmlns="http://www.w3.org/2000/svg" width="24" height="24"><path style="opacity:.2" d="m13 6.5-1 1H3c-.554 0-1 .446-1 1v10c0 .554.446 1 1 1h18c.554 0 1-.446 1-1v-10c0-.554-.446-1-1-1h-1l-1-1z"/><path style="fill:#ff6c3a" d="m12 5-1 1H3c-.554 0-1 .446-1 1v11c0 .554.446 1 1 1h18c.554 0 1-.446 1-1V7c0-.554-.446-1-1-1h-2l-1-1z"/><path style="opacity:.2" d="M12 6.5h6v1h-6z"/><path style="fill:#f4f4f7" d="M12 6h6v1h-6z"/><circle style="opacity:.2" cx="8.5" cy="13" r="4.5"/><circle style="fill:#f4f4f7" cx="8.5" cy="12.5" r="4.5"/><circle style="opacity:.2" cx="8.5" cy="13" r="3.5"/><circle style="fill:#8b9cbe" cx="8.5" cy="12.5" r="3.5"/><path style="opacity:.2;fill:#f4f4f7" d="m12 5-1 1H3c-.554 0-1 .446-1 1v.5c0-.554.446-1 1-1h8l1-1h6l1 1h2c.554 0 1 .446 1 1V7c0-.554-.446-1-1-1h-2l-1-1z"/></svg>