<svg height="24" width="24" xmlns="http://www.w3.org/2000/svg">
    <rect fill="#17191e" height="20" rx="1" width="20" x="2" y="2"/>
    <path d="M3 2c-.554 0-1 .446-1 1v.5c0-.554.446-1 1-1h18c.554 0 1 .446 1 1V3c0-.554-.446-1-1-1z" fill="#f4f4f7" opacity=".1"/>
    <path d="M3 22.5c-.554 0-1-.446-1-1V21c0 .554.446 1 1 1h18c.554 0 1-.446 1-1v.5c0 .554-.446 1-1 1z" opacity=".2"/>
    <g fill="none" stroke-width=".5">
        <path d="M5 12.25h7.3l-3.529-5h1.252l3.828 5.25-3.866 5.25h1.276l3.792-5.25-3.754-5.25h1.239l3.716 5.25-3.716 5.25h1.2l3.592-5H19" opacity=".2" stroke="#000"/>
        <path d="M5 11.75h7.3l-3.529-5h1.252L13.85 12l-3.866 5.25h1.276L15.053 12l-3.754-5.25h1.239L16.254 12l-3.716 5.25h1.2l3.592-5H19" stroke="#ffb81b"/>
    </g>
</svg>
