<svg height="24" width="24" xmlns="http://www.w3.org/2000/svg"><path d="m3.001 6.5c.005 3.72-.01 7.44.007 11.16.075 2.396 2.179 4.54 4.703 4.794 1.627.085 3.261.021 4.891.041 1.274-.023 2.554.055 3.823-.059 2.518-.314 4.563-2.51 4.573-4.907.004-3.676 0-7.353.002-11.029h-18z" opacity=".2"/><path d="m12 2.5a5 5 0 0 0 -5 5 5 5 0 0 0 5 5 5 5 0 0 0 5-5 5 5 0 0 0 -5-5zm0 2a3 3 0 0 1 3 3 3 3 0 0 1 -3 3 3 3 0 0 1 -3-3 3 3 0 0 1 3-3z" opacity=".2"/><path d="m12 2a5 5 0 0 0 -5 5 5 5 0 0 0 5 5 5 5 0 0 0 5-5 5 5 0 0 0 -5-5zm0 2a3 3 0 0 1 3 3 3 3 0 0 1 -3 3 3 3 0 0 1 -3-3 3 3 0 0 1 3-3z" fill="#ec770b"/><path d="m12 2a5 5 0 0 0 -5 5 5 5 0 0 0 .01.207 5 5 0 0 1 4.99-4.707 5 5 0 0 1 4.99 4.793 5 5 0 0 0 .01-.293 5 5 0 0 0 -5-5zm-2.987 5.249a3 3 0 0 0 -.013.251 3 3 0 0 0 3 3 3 3 0 0 0 3-3 3 3 0 0 0 -.013-.249 3 3 0 0 1 -2.987 2.749 3 3 0 0 1 -2.987-2.751z" fill="#f4f4f7" opacity=".2"/><path d="m3.001 6c.005 3.72-.01 7.44.007 11.16.075 2.396 2.179 4.54 4.703 4.794 1.627.085 3.261.021 4.891.041 1.274-.023 2.554.055 3.823-.059 2.518-.314 4.563-2.51 4.573-4.907.004-3.676 0-7.353.002-11.029h-18z" fill="#ffa123"/><path d="m11.752 9.501c-.213.006-.429.033-.645.082-.701.157-1.414.338-2.047.498-.577.119-1.147.747-1.049 1.26l1.911 8.454c.118.522.711.819 1.33.664.62-.155 1.024-.7.906-1.222l-.705-3.112c.328-.09.695-.173 1.008-.232 1.752-.438 2.852-2.203 2.46-3.942a3.147 3.147 0 0 0 -3.169-2.45zm-.02 2a1.167 1.42 78.331 0 1 1.241.857 1.167 1.42 78.331 0 1 -1.108 1.455 1.167 1.42 78.331 0 1 -.024.004l-.788.183-.553-2.268.812-.187a1.167 1.42 78.331 0 1 .42-.044z" opacity=".2"/><g fill="#f4f4f7"><path d="m11.752 9.001c-.213.006-.429.033-.645.082-.701.157-1.414.338-2.047.498-.577.119-1.147.747-1.049 1.26l1.911 8.454c.118.522.711.819 1.33.664.62-.155 1.024-.7.906-1.222l-.705-3.112c.328-.09.695-.173 1.008-.232 1.752-.438 2.852-2.203 2.46-3.942a3.147 3.147 0 0 0 -3.169-2.45zm-.02 2a1.167 1.42 78.331 0 1 1.241.857 1.167 1.42 78.331 0 1 -1.108 1.455 1.167 1.42 78.331 0 1 -.024.004l-.788.183-.553-2.268.812-.187a1.167 1.42 78.331 0 1 .42-.044z"/><path d="m3 6v.5h18v-.5z" opacity=".2"/></g></svg>