<svg height="24" width="24" xmlns="http://www.w3.org/2000/svg">
    <circle cx="12" cy="12.5" opacity=".2" r="10"/>
    <circle cx="12" cy="12" fill="#17191e" r="10"/>
    <path d="M12 2A10 10 0 0 0 2 12a10 10 0 0 0 .01.291A10 10 0 0 1 12 2.5a10 10 0 0 1 9.99 9.709A10 10 0 0 0 22 12 10 10 0 0 0 12 2z" fill="#f4f4f7" opacity=".1"/>
    <path d="M13.252 7.5c-.296 0-.612.004-.952.013-2.582.064-3.68.396-5.014 1.338-.954.673-1.577 1.303-1.147 1.58 2.525.069 2.088-1.401 3.428-1.396.511 0 .562.138.435 1.161-.277 2.224-.903 4.678-1.702 6.672-.231.576-.42 1.158-.42 1.291 0 .406.355.45 1 .127.667-.334.939-.71 1.468-2.034.263-.66.478-1.236.478-1.28 0-.209.39-.369 1.152-.472 2.617-.355 4.868-1.722 5.696-3.461.572-1.2.389-2.168-.53-2.794-.79-.538-1.823-.747-3.892-.745zm-.557 1.805a2.99 2.99 0 0 1 .525.018c1.246.127 2.19.49 2.578.99.263.34.27 1.15.016 1.64-.49.946-1.3 1.289-3.709 1.568-.431.05-.559.036-.6-.066-.029-.072.075-.742.231-1.49.156-.749.314-1.6.35-1.89.066-.533.191-.738.61-.77z" opacity=".2"/>
    <path d="M13.252 7c-.296 0-.612.004-.952.013-2.582.064-3.68.396-5.014 1.338-.954.673-1.577 1.303-1.147 1.58C8.664 10 8.227 8.53 9.567 8.534c.511 0 .562.138.435 1.161-.277 2.225-.903 4.678-1.702 6.672-.231.576-.42 1.158-.42 1.291 0 .406.355.45 1 .127.667-.334.939-.71 1.468-2.034.263-.66.478-1.235.478-1.28 0-.209.39-.369 1.152-.472 2.617-.355 4.868-1.722 5.696-3.46.572-1.202.389-2.169-.53-2.795-.79-.538-1.823-.747-3.892-.745zm-.557 1.805a2.99 2.99 0 0 1 .525.018c1.246.127 2.19.49 2.578.99.263.34.27 1.15.016 1.641-.49.945-1.3 1.288-3.709 1.567-.431.05-.559.036-.6-.066-.029-.071.075-.742.231-1.49.156-.749.314-1.6.35-1.89.066-.532.191-.738.61-.77z" fill="#f4f4f7"/>
</svg>
