<svg xmlns="http://www.w3.org/2000/svg" width="24" height="24" version="1"><path style="opacity:.2" d="M7.895 2.5A.91.91 0 0 0 7 3.41l.1 2.09H4.827c-.634 0-1.074.67-.85 1.265l1.072 3.726-2.824 3.227a.91.91 0 0 0 .347 1.443L4 15.84v1.757c0 .502.43.9.932.9h1.613v2.136a.909.909 0 0 0 1.397.766l4.597-2.425 8.197 3.451c.744.313 1.496-.426 1.197-1.175l-2.435-6.438 2.404-5.09c.302-.604-.138-1.224-.814-1.224h-3.09V6.59a.9.9 0 0 0-.173-.545L15.68 3.868a.909.909 0 0 0-1.347-.12l-2.766 2.033L8.55 2.766a.909.909 0 0 0-.656-.266z"/><path style="fill:#932b2d" d="M7.895 2A.91.91 0 0 0 7 2.91L7.1 5H4.827c-.634 0-1.074.67-.85 1.265L5.048 9.99l-2.824 3.227a.91.91 0 0 0 .347 1.443L4 15.34v1.757c0 .502.43.9.932.9h1.613v2.136a.909.909 0 0 0 1.397.766l4.597-2.425 8.197 3.451c.744.313 1.496-.426 1.197-1.175l-2.435-6.438 2.404-5.09C22.204 8.62 21.764 8 21.088 8h-3.09V6.09a.9.9 0 0 0-.173-.545L15.68 3.368a.909.909 0 0 0-1.347-.12l-2.766 2.033L8.55 2.266A.909.909 0 0 0 7.895 2z"/><path style="opacity:.2" d="M11.9 9.5c-.498 0-.9.361-.9.809V11.5H9.809c-.448 0-.809.402-.809.9v1.2c0 .498.361.9.809.9H11v1.191c0 .448.402.809.9.809h1.2c.498 0 .9-.361.9-.809V14.5h1.191c.448 0 .809-.402.809-.9v-1.2c0-.498-.361-.9-.809-.9H14v-1.191c0-.448-.402-.809-.9-.809z"/><rect style="fill:#e9af00" width="3" height="7" x="11" y="9" rx=".9" ry=".808"/><rect style="fill:#e9af00" width="3" height="7" x="11" y="-16" rx=".9" ry=".808" transform="rotate(90)"/><path style="opacity:.1;fill:#f4f4f7" d="M7.895 2A.907.907 0 0 0 7 2.908l.02.405a.898.898 0 0 1 1.53-.547l3.016 3.015 2.766-2.033a.91.91 0 0 1 1.348.12l2.144 2.177a.901.901 0 0 1 .174.545v-.5a.901.901 0 0 0-.174-.545L15.68 3.367a.91.91 0 0 0-1.348-.119l-2.766 2.033-3.015-3.015A.909.909 0 0 0 7.895 2zM4.828 5c-.609 0-1.031.615-.869 1.19.107-.382.44-.69.87-.69h2.27L7.077 5H4.828zm13.17 3v.5h3.09c.422 0 .753.241.867.57.164-.551-.249-1.07-.867-1.07h-3.09zM4.941 10.113 2.225 13.22a.895.895 0 0 0-.184.842.892.892 0 0 1 .184-.342l2.824-3.229-.108-.377zm14.663 4.477-.106.223 2.436 6.439c.012.032.012.064.021.096a.88.88 0 0 0-.021-.596l-2.33-6.162z"/><path style="opacity:.2;fill:#f4f4f7" d="M11.9 9c-.498 0-.9.361-.9.809v.5c0-.448.402-.809.9-.809h1.2c.498 0 .9.361.9.809v-.5C14 9.36 13.598 9 13.1 9h-1.2zM9.81 11c-.448 0-.809.402-.809.9v.5c0-.498.361-.9.809-.9H11V11H9.809zM14 11v.5h1.191c.448 0 .809.402.809.9v-.5c0-.498-.361-.9-.809-.9H14z"/></svg>