<svg height="24" width="24" xmlns="http://www.w3.org/2000/svg">
    <circle cx="12" cy="12.5" opacity=".2" r="10"/>
    <circle cx="12" cy="12" fill="#454564" r="10"/>
    <path d="M6 10.5a2 2 0 0 0-2 2 2 2 0 0 0 2 2 2 2 0 0 0 2-2 2 2 0 0 0-2-2zm6 0a2 2 0 0 0-2 2 2 2 0 0 0 2 2 2 2 0 0 0 2-2 2 2 0 0 0-2-2zm6 0a2 2 0 0 0-2 2 2 2 0 0 0 2 2 2 2 0 0 0 2-2 2 2 0 0 0-2-2z" opacity=".2"/>
    <path d="M12 2A10 10 0 0 0 2 12a10 10 0 0 0 .01.291A10 10 0 0 1 12 2.5a10 10 0 0 1 9.99 9.709A10 10 0 0 0 22 12 10 10 0 0 0 12 2z" fill="#f4f4f7" opacity=".1"/>
    <g fill="#2196f3">
        <circle cx="12" cy="12" r="2"/>
        <circle cx="18" cy="12" r="2"/>
        <circle cx="6" cy="12" r="2"/>
    </g>
    <path d="M6 10a2 2 0 0 0-2 2 2 2 0 0 0 .018.253A2 2 0 0 1 6 10.5a2 2 0 0 1 1.982 1.747A2 2 0 0 0 8 12a2 2 0 0 0-2-2zm6 0a2 2 0 0 0-2 2 2 2 0 0 0 .018.253A2 2 0 0 1 12 10.5a2 2 0 0 1 1.982 1.747A2 2 0 0 0 14 12a2 2 0 0 0-2-2zm6 0a2 2 0 0 0-2 2 2 2 0 0 0 .018.253A2 2 0 0 1 18 10.5a2 2 0 0 1 1.982 1.747A2 2 0 0 0 20 12a2 2 0 0 0-2-2z" fill="#f4f4f7" opacity=".2"/>
</svg>
