<svg height="64" width="64" xmlns="http://www.w3.org/2000/svg">
    <filter id="a" color-interpolation-filters="sRGB" height="1.054" width="1.054" x="-.027" y="-.027">
        <feGaussianBlur stdDeviation=".619"/>
    </filter>
    <linearGradient id="b" gradientUnits="userSpaceOnUse" x1="4.5" x2="59.5" y1="59.49" y2="4.49">
        <stop offset="0" stop-color="#32d7ff"/>
        <stop offset="1" stop-color="#329bff"/>
    </linearGradient>
    <linearGradient id="c" gradientTransform="matrix(2.6667 0 0 6 -9.222 -30.284)" gradientUnits="userSpaceOnUse" x1="15" x2="9" y1="9" y2="9">
        <stop offset="0" stop-color="#a1daff"/>
        <stop offset="1" stop-color="#abebf9" stop-opacity="0"/>
    </linearGradient>
    <filter id="d" color-interpolation-filters="sRGB" height="1.093" width="1.099" x="-.049" y="-.047">
        <feGaussianBlur stdDeviation=".35"/>
    </filter>
    <rect fill="#141414" filter="url(#a)" height="55" opacity=".3" ry="15" width="55" x="4.5" y="4.5"/>
    <rect fill="url(#b)" height="55" ry="15" width="55" x="4.5" y="4.5"/>
    <rect fill="#f4f4f7" height="10.692" opacity=".35" ry="3.131" width="35" x="14.5" y="43.925"/>
    <g fill="#f9f9f9" stroke-width="2.148">
        <rect height="5.682" rx="1.136" width="5.682" x="17.42" y="46.43"/>
        <rect height="5.682" rx="1.136" width="5.682" x="25.246" y="46.43"/>
        <rect height="5.682" rx="1.136" width="5.682" x="33.072" y="46.43"/>
        <rect height="5.682" rx="1.136" width="5.682" x="40.898" y="46.43"/>
    </g>
    <path d="M14.778 17.716h16v6h-16z" fill="url(#c)" fill-rule="evenodd"/>
    <path d="m31.877 37.226 8.236-.053.933-9.323c.195-1.89-2.148-2.677-2.797-.932.008-2.096-2.147-2.358-2.798-.933.082-1.731-2.118-2.401-2.797-.933v-3.728c0-2.797-2.796-2.797-2.796 0v8.39c-4.662-4.662-5.805-1.311-5.805-1.311 3.168 2.138 5.104 8.841 7.824 8.823z" fill="#32a2ff" filter="url(#d)" opacity=".49"/>
    <path d="m31.322 35.716 8.237-.052.932-9.324c.195-1.89-2.148-2.677-2.797-.932.008-2.096-2.147-2.358-2.798-.933.083-1.731-2.117-2.4-2.796-.932v-3.73c0-2.796-2.797-2.796-2.797 0v8.392c-4.662-4.662-5.805-1.312-5.805-1.312 3.168 2.139 5.104 8.841 7.824 8.823z" fill="#f4f4f7"/>
</svg>
