<svg width="24" height="24" xmlns="http://www.w3.org/2000/svg"><path d="M12 7.5s-10 0-10 13c0 2 2 2 2 2h16s2 0 2-2c0-13-10-13-10-13z" style="opacity:.2"/><path d="M12 7S2 7 2 20c0 2 2 2 2 2h16s2 0 2-2C22 7 12 7 12 7z" style="fill:#f7941d"/><path d="M12 7S2 7 2 20c0 .049.006.09.009.137C2.197 7.508 12 7.5 12 7.5s9.803.008 9.991 12.637c.003-.047.009-.088.009-.137C22 7 12 7 12 7z" style="fill:#f9f9f9;opacity:.2"/><path style="fill:#f4f4f7;opacity:.3" d="M11 7h2v15h-2z"/><circle cx="12" cy="8" r="4" style="opacity:.2"/><circle cx="12" cy="7.5" r="4" style="fill:#dfb189"/><path d="M15 8.5s.5 0 1 .5V4.5c0-1.5-2.51-2-4-2s-4 .5-4 2V9c.5-.5 1-.5 1-.5v-2s1 1 3 1 3-1 3-1z" style="opacity:.1"/><path d="M15 8s.5 0 1 .5V4c0-1.5-2.51-2-4-2s-4 .5-4 2v4.5C8.5 8 9 8 9 8V6s1 1 3 1 3-1 3-1z" style="fill:#674b42"/><path d="M12 2c-1.49 0-4 .5-4 2v.5c0-1.5 2.51-2 4-2s4 .5 4 2V4c0-1.5-2.51-2-4-2z" style="fill:#f9f9f9;opacity:.1"/><path d="M10.5 8.5a.5.5 0 0 0-.5.5.5.5 0 0 0 .5.5.5.5 0 0 0 .5-.5.5.5 0 0 0-.5-.5zm3 0a.5.5 0 0 0-.5.5.5.5 0 0 0 .5.5.5.5 0 0 0 .5-.5.5.5 0 0 0-.5-.5z" style="opacity:.1"/><path d="M10.5 8a.5.5 0 0 0-.5.5.5.5 0 0 0 .5.5.5.5 0 0 0 .5-.5.5.5 0 0 0-.5-.5zm3 0a.5.5 0 0 0-.5.5.5.5 0 0 0 .5.5.5.5 0 0 0 .5-.5.5.5 0 0 0-.5-.5z" style="fill:#17191e"/></svg>