<svg height="24" width="24" xmlns="http://www.w3.org/2000/svg"><g transform="translate(1 1)"><rect fill="#8e8e8e" height="16" rx="1" transform="matrix(0 -1 -1 0 0 0)" width="20" x="-21" y="-19"/><path d="m3 20v.5c0 .554.446 1 1 1h14c.554 0 1-.446 1-1v-.5c0 .554-.446 1-1 1h-14c-.554 0-1-.446-1-1z" opacity=".2"/><path d="m11 4a5 5 0 0 1 0 10h-5v-5a5 5 0 0 1 5-5zm0 2.5a2.5 2.5 0 1 0 0 5 2.5 2.5 0 0 0 0-5z" opacity=".5"/><path d="m4 1c-.554 0-1 .446-1 1v.5c0-.554.446-1 1-1h14c.554 0 1 .446 1 1v-.5c0-.554-.446-1-1-1z" fill="#f4f4f7" opacity=".2"/><circle cx="16" cy="16" fill="#86ff7b" r="6"/><path d="m16 12a4 4 0 0 0 -4 4 4 4 0 0 0 4 4 4 4 0 0 0 4-4 4 4 0 0 0 -4-4zm0 3a1 1 0 0 1 1 1 1 1 0 0 1 -1 1 1 1 0 0 1 -1-1 1 1 0 0 1 1-1z" fill="#f4f4f7"/></g></svg>