<svg height="24" width="24" xmlns="http://www.w3.org/2000/svg">
    <rect fill="#8e8e8e" height="16" rx="1" transform="matrix(0 -1 -1 0 0 0)" width="20" x="-22" y="-20"/>
    <path d="M4 21v.5c0 .554.446 1 1 1h14c.554 0 1-.446 1-1V21c0 .554-.446 1-1 1H5c-.554 0-1-.446-1-1z" opacity=".2"/>
    <path d="M12 5a5 5 0 0 1 0 10H7v-5a5 5 0 0 1 5-5zm0 2.5a2.5 2.5 0 1 0 0 5 2.5 2.5 0 0 0 0-5z" opacity=".5"/>
    <path d="M5 2c-.554 0-1 .446-1 1v.5c0-.554.446-1 1-1h14c.554 0 1 .446 1 1V3c0-.554-.446-1-1-1z" fill="#f4f4f7" opacity=".2"/>
    <circle cx="18" cy="18" fill="#4daaf5" r="5"/>
    <path d="M17 17h2v4h-2zm0-3h2v2h-2z" fill="#f4f4f7"/>
</svg>
