<svg xmlns="http://www.w3.org/2000/svg" width="24" height="24" version="1"><path opacity=".2" d="M9 11.5h5c.554 0 1 .446 1 1v10c0 .554-.446 1-1 1H9c-.554 0-1-.446-1-1v-10c0-.554.446-1 1-1z"/><path fill="#b7b7b7" d="M10 5h3v7h-3z"/><path fill="#8b9cbe" d="M9 11h5c.554 0 1 .446 1 1v10c0 .554-.446 1-1 1H9c-.554 0-1-.446-1-1V12c0-.554.446-1 1-1z"/><path fill="#b7b7b7" d="M11.5 2 13 3l-.573 2h-1.854L10 3z"/><path fill="#8b9cbe" d="M10 9h3v.5h-3zM10 7.5h3V8h-3z"/><path fill="#fff" opacity=".2" d="M11.5 2 10 3l.12.42 1.38-.92 1.38.92L13 3l-1.5-1zM10 5v.5h3V5h-3z"/></svg>