<svg height="24" width="24" xmlns="http://www.w3.org/2000/svg"><rect height="20" opacity=".2" rx="6" width="20" x="2" y="2.5"/><rect fill="#ff811f" height="20" rx="6" width="20" x="2" y="2"/><path d="m12 5.5a7 7 0 0 0 0 14 7 7 0 0 0 3.614-1.015c.489.546.927 1.122 1.275 1.687l1.702-1.05a13.96 13.96 0 0 0 -1.427-1.907 7 7 0 0 0 1.836-4.715 7 7 0 0 0 -7-7zm0 2.5c2.21 0 4 2.015 4 4.5a4.864 4.864 0 0 1 -.878 2.807l-.088-.07c-1.407-1.054-2.464-1.815-4.06-1.691l.155 1.993c.731-.057 1.331.346 2.426 1.103a3.621 3.621 0 0 1 -1.555.358c-2.21 0-4-2.015-4-4.5s1.79-4.5 4-4.5z" opacity=".1"/><path d="m12 5a7 7 0 0 0 -7 7 7 7 0 0 0 7 7 7 7 0 0 0 7-7 7 7 0 0 0 -7-7zm0 2.5a4 4.5 0 0 1 4 4.5 4 4.5 0 0 1 -4 4.5 4 4.5 0 0 1 -4-4.5 4 4.5 0 0 1 4-4.5z" fill="#5a3608"/><path d="m8 2c-3.324 0-6 2.676-6 6v.5c0-3.324 2.676-6 6-6h8c3.324 0 6 2.676 6 6v-.5c0-3.324-2.676-6-6-6z" fill="#f4f4f7" opacity=".2"/><path d="m11.052 14.042c2.391-.186 5.066 2.473 6.688 5.105" fill="none" stroke="#5a3608" stroke-width="2"/></svg>