<svg xmlns="http://www.w3.org/2000/svg" width="24" height="24"><path style="opacity:.2" d="M12.5 6.5c1.295 0 9.5 0 9.5 5.644v4.712c0 5.644-.432 5.644-9.5 5.644-1.727 0-9.5 0-9.5-5.644v-4.712C3 6.5 11.205 6.5 12.5 6.5z"/><path style="fill:none;stroke:#37474f;stroke-width:.75" d="m10 3 2.25 3M14.5 3l-1.75 3"/><ellipse style="fill:#37474f" cx="12.5" cy="6.25" rx="3.5" ry="1.25"/><circle style="opacity:.2" cx="10" cy="3.5" r="1"/><circle style="fill:#455a64" cx="10" cy="3" r="1"/><path style="fill:#455a64" d="M12.5 6c1.295 0 9.5 0 9.5 5.644v4.712C22 22 21.568 22 12.5 22 10.773 22 3 22 3 16.356v-4.712C3 6 11.205 6 12.5 6z"/><circle style="opacity:.2" cx="20" cy="19.5" r="1"/><circle style="fill:#f4f4f7" cx="20" cy="19" r="1"/><path style="opacity:.3" d="M12 8c.955 0 7 0 7 4.233v3.534C19 20 13.273 20 12 20c-1.273 0-7 0-7-4.233v-3.534C5 8 11.045 8 12 8z"/><path style="opacity:.5;fill:none;stroke:#26a69a;stroke-width:1.5;stroke-linecap:round" d="m12 10.75-2.25 6.5M16.75 10.75l-2 6.5"/><path style="opacity:.2;fill:none;stroke:#000;stroke-width:1.5;stroke-linecap:round" d="m7.25 11.25 2.5 6.5"/><path style="fill:none;stroke:#26a69a;stroke-width:1.5;stroke-linecap:round" d="m7.25 10.75 2.5 6.5"/><path style="opacity:.2;fill:none;stroke:#000;stroke-width:1.5;stroke-linecap:round" d="m12 11.25 2.75 6.5"/><path style="fill:none;stroke:#26a69a;stroke-width:1.5;stroke-linecap:round" d="m12 10.75 2.75 6.5"/><circle style="opacity:.2" cx="15" cy="3.5" r="1"/><circle style="fill:#455a64" cx="15" cy="3" r="1"/><path style="opacity:.1;fill:#f4f4f7" d="M10 2a1 1 0 0 0-1 1 1 1 0 0 0 .032.252A1 1 0 0 1 10 2.5a1 1 0 0 1 .968.748A1 1 0 0 0 11 3a1 1 0 0 0-1-1zM12.5 6C11.205 6 3 6 3 11.645v.5C3 6.5 11.205 6.5 12.5 6.5s9.5 0 9.5 5.645v-.5C22 6 13.795 6 12.5 6zM15 2a1 1 0 0 0-1 1 1 1 0 0 0 .032.252A1 1 0 0 1 15 2.5a1 1 0 0 1 .968.748A1 1 0 0 0 16 3a1 1 0 0 0-1-1z"/></svg>