<svg xmlns="http://www.w3.org/2000/svg" width="24" height="24"><circle style="opacity:.2" cx="12" cy="12.5" r="10"/><circle style="fill:#86c14d" cx="12" cy="12" r="10"/><path style="opacity:.1" d="M9.5 7.055A6 6 0 0 0 6 12.5a6 6 0 0 0 6 6 6 6 0 0 0 6-6 6 6 0 0 0-3.5-5.441v.117A5 5 0 0 1 17 11.5a5 5 0 0 1-5 5 5 5 0 0 1-5-5 5 5 0 0 1 2.5-4.322z"/><path style="fill:#17191e" d="M9.5 6.555A6 6 0 0 0 6 12a6 6 0 0 0 6 6 6 6 0 0 0 6-6 6 6 0 0 0-3.5-5.441v.117A5 5 0 0 1 17 11a5 5 0 0 1-5 5 5 5 0 0 1-5-5 5 5 0 0 1 2.5-4.322z"/><path style="opacity:.2" d="M11 15.5v5l1 3 1-3v-5l-1-3z"/><path style="fill:#17191e" d="M11 15v5l1 3 1-3v-5l-1-3z"/><path style="opacity:.1;fill:#f4f4f7" d="M12 2A10 10 0 0 0 2 12a10 10 0 0 0 .01.291A10 10 0 0 1 12 2.5a10 10 0 0 1 9.99 9.709A10 10 0 0 0 22 12 10 10 0 0 0 12 2z"/></svg>