<svg height="24" width="24" xmlns="http://www.w3.org/2000/svg">
    <rect height="20" opacity=".2" rx="6" width="20" x="2" y="2.5"/>
    <path d="M9.049 2.787 15 2h1c3.324 0 6 2.676 6 6v8c0 3.324-2.676 6-6 6h-1l-4.417-.656c-3.288-.487-7.865-2.37-7.884-5.694l-.043-7.606c-.02-3.324 3.09-4.883 6.393-5.257z" fill="#e53fa9"/>
    <path d="M8 2C4.676 2 2 4.676 2 8v4h.45a13.751 13.751 0 0 0 13.21-9.977C15.508 2.012 15.355 2 15.2 2z" fill="#7e53cb"/>
    <path d="M2 12v4c0 3.324 2.676 6 6 6h7.1c.157 0 .312-.012.466-.023A13.75 13.75 0 0 0 2.35 12z" fill="#f97b49"/>
    <path d="M8.871 5.5A3.874 3.874 0 0 0 5 9.371v6.258A3.874 3.874 0 0 0 8.871 19.5h6.258A3.874 3.874 0 0 0 19 15.629V9.37a3.874 3.874 0 0 0-3.871-3.87zm0 1h6.258A2.854 2.854 0 0 1 18 9.371v6.258a2.854 2.854 0 0 1-2.871 2.871H8.87A2.854 2.854 0 0 1 6 15.629V9.37A2.854 2.854 0 0 1 8.871 6.5zM16 7.5a1 1 0 0 0-1 1 1 1 0 0 0 1 1 1 1 0 0 0 1-1 1 1 0 0 0-1-1zm-4 1c-2.203 0-4 1.797-4 4s1.797 4 4 4 4-1.797 4-4-1.797-4-4-4zm0 1c1.663 0 3 1.337 3 3s-1.337 3-3 3-3-1.337-3-3 1.337-3 3-3z" opacity=".2"/>
    <rect fill="none" height="13" rx="3.37" stroke="#f4f4f7" stroke-linecap="round" stroke-linejoin="round" width="13" x="5.5" y="5.5"/>
    <circle cx="12" cy="12" fill="none" r="3.5" stroke="#f4f4f7" stroke-linecap="round" stroke-linejoin="round"/>
    <g fill="#f4f4f7">
        <circle cx="16" cy="8" r="1"/>
        <path d="M8 2C4.676 2 2 4.676 2 8v.5c0-3.324 2.676-6 6-6h8c3.324 0 6 2.676 6 6V8c0-3.324-2.676-6-6-6z" opacity=".1"/>
    </g>
</svg>
