<svg height="24" width="24" xmlns="http://www.w3.org/2000/svg">
    <ellipse cx="12" cy="12.5" opacity=".2" rx="10" ry="4"/>
    <ellipse cx="12" cy="12" fill="#c22c2d" rx="10" ry="4"/>
    <path d="M12 8a10 4 0 0 0-10 4 10 4 0 0 0 .027.29A10 4 0 0 1 12 8.5a10 4 0 0 1 9.973 3.71A10 4 0 0 0 22 12a10 4 0 0 0-10-4z" fill="#f4f4f7" opacity=".1"/>
    <ellipse cx="16.876" cy="-4.333" opacity=".2" rx="10.061" ry="3.972" transform="matrix(.4902 .8716 -.86026 .50986 0 0)"/>
    <ellipse cx="16.446" cy="-4.578" fill="#ed5633" rx="10.061" ry="3.972" transform="matrix(.4902 .8716 -.86026 .50986 0 0)"/>
    <path d="M7.846 3.004a10.061 3.97 60.886 0 0-.778.226A10.061 3.97 60.886 0 0 6.01 6.154 10.061 3.97 60.886 0 1 7.068 3.73a10.061 3.97 60.886 0 1 8.348 6.745 10.061 3.97 60.886 0 1 2.574 7.87 10.061 3.97 60.886 0 0-2.574-8.37 10.061 3.97 60.886 0 0-7.57-6.971z" fill="#f4f4f7" opacity=".2"/>
    <ellipse cx="4.636" cy="16.591" opacity=".2" rx="10.061" ry="3.972" transform="matrix(-.4902 .8716 .86026 .50986 0 0)"/>
    <ellipse cx="4.206" cy="16.346" fill="#ff9c31" rx="10.061" ry="3.972" transform="matrix(-.4902 .8716 .86026 .50986 0 0)"/>
    <path d="M16.154 3.004a3.97 10.061 29.114 0 0-7.57 6.97 3.97 10.061 29.114 0 0-2.574 8.372 3.97 10.061 29.114 0 1 2.574-7.871 3.97 10.061 29.114 0 1 8.348-6.745 3.97 10.061 29.114 0 1 1.058 2.424 3.97 10.061 29.114 0 0-1.058-2.924 3.97 10.061 29.114 0 0-.778-.226z" fill="#f4f4f7" opacity=".2"/>
    <path d="M9.7 8.5h4.6l2.2 4-2.2 4H9.7l-2.2-4z" opacity=".2"/>
    <path d="M9.7 8h4.6l2.2 4-2.2 4H9.7l-2.2-4z" fill="#f4f4f7"/>
    <circle cx="12" cy="12" fill="#c22c2d" r="2"/>
</svg>
