<svg height="24" width="24" xmlns="http://www.w3.org/2000/svg"><rect fill="#4f4f4f" height="20" rx="1" width="20" x="2" y="2"/><path d="m16 4.5c-3.027 0-5.318 1.475-6.8 3.45-1.484 1.973-2.2 4.434-2.2 6.55v6h5v-6c0-.917.242-2.224.863-3.24.621-1.017 1.554-1.76 3.137-1.76zm-1 1.063v1.029c-3.353.556-6 3.85-6 7.908v5h-1v-5c0-1.885.666-4.174 2-5.95 1.163-1.548 2.803-2.714 5-2.988zm0 2.042v1.005c-1.38.283-2.374 1.127-2.988 2.131-.754 1.233-1.012 2.676-1.012 3.759v5h-1v-5c0-3.557 2.247-6.342 5-6.895z" opacity=".2"/><path d="m3 2c-.554 0-1 .446-1 1v.5c0-.554.446-1 1-1h18c.554 0 1 .446 1 1v-.5c0-.554-.446-1-1-1z" fill="#f4f4f7" opacity=".1"/><path d="m3 22.5c-.554 0-1-.446-1-1v-.5c0 .554.446 1 1 1h18c.554 0 1-.446 1-1v.5c0 .554-.446 1-1 1z" opacity=".2"/><path d="m7 19h5v1h-5z" fill="#ffba40"/><path d="m5-16h4v1h-4z" fill="#ffba40" transform="rotate(90)"/><g fill="none" stroke="#ffba40"><path d="m7.5 20v-6c0-4 2.765-9.5 8.5-9.5"/><path d="m9.5 20v-6c0-4.218 3-7.5 6.5-7.5"/><path d="m11.5 20v-6c0-2 1-5.5 4.5-5.5"/></g></svg>