<svg xmlns="http://www.w3.org/2000/svg" width="24" height="24"><path style="opacity:.2" d="M12 2.5c-5.518 0-10 4.482-10 10s4.482 10 10 10 10-4.482 10-10-4.482-10-10-10z"/><path style="fill:#4f4f4f" d="M12 2C6.482 2 2 6.482 2 12s4.482 10 10 10 10-4.482 10-10S17.518 2 12 2z"/><path style="opacity:.1;fill:#f4f4f7" d="M12 2C6.482 2 2 6.482 2 12c0 .084.004.167.006.25C2.139 6.848 6.566 2.5 12 2.5s9.86 4.348 9.994 9.75c.002-.083.006-.166.006-.25 0-5.518-4.482-10-10-10z"/><path style="opacity:.2" d="M12 4.5c-4.414 0-8 3.586-8 8s3.586 8 8 8 8-3.586 8-8-3.586-8-8-8z"/><path style="fill:#6e6eee" d="M12 4c-4.414 0-8 3.586-8 8s3.586 8 8 8 8-3.586 8-8-3.586-8-8-8z"/><path style="fill:#994a8a" d="M12 4c-4.414 0-8 3.586-8 8h8z"/><path style="opacity:.1;fill:#f4f4f7" d="M12 4c-4.414 0-8 3.586-8 8 0 .084.01.166.013.25C4.146 7.952 7.67 4.5 12 4.5s7.854 3.452 7.987 7.75c.003-.084.013-.166.013-.25 0-4.414-3.586-8-8-8z"/><path style="opacity:.1" d="M12 10.5c-1.104 0-2 .896-2 2s.896 2 2 2 2-.896 2-2-.896-2-2-2z"/><path style="fill:none;stroke:#f4f4f7;stroke-width:2;stroke-linecap:round;stroke-linejoin:round" d="M12 2v10"/><path style="fill:#4f4f4f" d="M12 10c-1.104 0-2 .896-2 2s.896 2 2 2 2-.896 2-2-.896-2-2-2z"/></svg>