<svg height="24" width="24" xmlns="http://www.w3.org/2000/svg">
    <g transform="scale(.5)">
        <rect fill="#f1d27a" height="40" rx="2" transform="matrix(0 -1 -1 0 0 0)" width="40" x="-44" y="-44"/>
        <path d="M14 23c0-9 6-8 20-8" style="opacity:.2;fill:none;stroke:#000;stroke-width:8;stroke-linecap:round;stroke-linejoin:round"/>
        <path d="M4 7V6c0-1.108.892-2 2-2h36c1.108 0 2 .892 2 2v1c0-1.108-.892-2-2-2H6c-1.108 0-2 .892-2 2z" fill="#f4f4f7" opacity=".2"/>
        <path d="M4 42v1c0 1.108.892 2 2 2h36c1.108 0 2-.892 2-2v-1c0 1.108-.892 2-2 2H6c-1.108 0-2-.892-2-2z" opacity=".2"/>
        <g fill="none" stroke-linecap="round" stroke-linejoin="round" stroke-width="8">
            <path d="M14 22c0-9 6-8 20-8" stroke="#454545"/>
            <path d="M34.057 27c0 9-6 8-20 8" opacity=".2" stroke="#000"/>
            <path d="M34.057 26c0 9-6 8-20 8" stroke="#454545"/>
        </g>
    </g>
</svg>
