<svg height="24" width="24" xmlns="http://www.w3.org/2000/svg"><path d="m12 2h-9c-.554 0-1 .446-1 1v9h10z" fill="#8e8e8e"/><path d="m12 2h9c.554 0 1 .446 1 1v9h-10z" fill="#f4f4f7"/><path d="m12 22h-9c-.554 0-1-.446-1-1v-9h10z" fill="#45792a"/><path d="m12 22h9c.554 0 1-.446 1-1v-9h-10z" fill="#8e8e8e"/><path d="m3 2c-.554 0-1 .446-1 1v.5c0-.554.446-1 1-1h18c.554 0 1 .446 1 1v-.5c0-.554-.446-1-1-1z" fill="#f4f4f7" opacity=".2"/><path d="m3 22.5c-.554 0-1-.446-1-1v-.5c0 .554.446 1 1 1h18c.554 0 1-.446 1-1v.5c0 .554-.446 1-1 1z" opacity=".2"/><circle cx="7" cy="7.5" opacity=".1" r="3"/><circle cx="7" cy="7" fill="#f4f4f7" r="3"/><path d="m14.07 26.76 4.02 6.96 4.018 6.96h-16.075l4.019-6.96z" opacity=".1" transform="matrix(.37324 0 0 .49729 1.748 .27)"/><path d="m14.07 26.76 4.02 6.96 4.018 6.96h-16.075l4.019-6.96z" fill="#ffdd4c" transform="matrix(.37324 0 0 .49729 1.748 -.307)"/><path d="m16 4.5v2h-2v2h2v2h2v-2h2v-2h-2v-2z" opacity=".1"/><path d="m16 4v2h-2v2h2v2h2v-2h2v-2h-2v-2z" fill="#17191e"/><path d="m20 13.5-2 1.3v5.7h2z" opacity=".1"/><path d="m20 13-2 1.3v5.7h2z" fill="#17191e"/><path d="m14.07 26.76 4.02 6.96 4.018 6.96h-16.075l4.019-6.96z" opacity=".1" transform="matrix(0 .31103 .43098 0 2.467 11.624)"/><path d="m14.07 26.76 4.02 6.96 4.018 6.96h-16.075l4.019-6.96z" fill="#e33939" transform="matrix(0 .31103 .43098 0 2.467 11.124)"/></svg>