<svg height="24" width="24" xmlns="http://www.w3.org/2000/svg">
    <rect fill="#848484" height="19.998" rx="10" ry="9.999" transform="matrix(0 -1 -1 0 0 0)" width="20" x="-22" y="-22"/>
    <path d="M12 2C6.46 2 2 6.46 2 12v.25A9.98 9.98 0 0 1 12 2.5a9.98 9.98 0 0 1 10 9.75V12c0-5.54-4.46-10-10-10z" fill="#f4f4f7" opacity=".1"/>
    <path d="M17.999 6s-1.8-.05-3.598.85c-.55.25-1.15.65-1.649 1.15-.808.807-2.063 2.295-3.051 3.497H7.506l-1 1.5 1.695.458c.005.06.021.146.068.261l-.263.58s-.1.2.65.999c.799.8 1.049.7 1.049.7l.62-.283a.731.731 0 0 0 .208.04l.47 1.741 1.5-1v-2.261c1.21-.98 2.696-2.21 3.497-2.985.5-.5.9-1.1 1.2-1.65C18.047 7.8 17.998 6 17.998 6zM14.5 10.498c-.55 0-1-.45-1-1s.45-.999 1-.999 1 .45 1 1-.451.999-1 .999zm-5.247 5.996c.1.05.15.1.25.15-.1.1-.2.25-.3.35-1.15 1.15-3.198 1-3.198 1s-.15-2.05 1-3.198c.1-.1.25-.2.35-.3.05.1.099.15.15.25-.75.948-.65 2.398-.65 2.398s1.448.1 2.398-.65z" fill="#17191e"/>
    <path d="M2.007 12.25c-.002.084-.006.166-.006.25 0 5.54 4.46 10 9.999 10 5.54 0 10-4.46 10-10 0-.084-.005-.167-.007-.25A9.975 9.975 0 0 1 12 22a9.975 9.975 0 0 1-9.993-9.75z" opacity=".2"/>
</svg>
