<svg height="24" width="24" xmlns="http://www.w3.org/2000/svg"><path d="m-21-18.6 4.589-3.4h13.411c.554 0 1 .446 1 1v18c0 .554-.446 1-1 1h-18c-.554 0-1-.446-1-1v-14.6c0-.554.555-.67 1-1z" fill="#f4f4f7" transform="matrix(0 -1 -1 0 0 0)"/><path d="m11 5.5c-2.067 2.72-6 2-6 4.75 0 3.334 4.79 3.297 4 7.25-.5 2.5-3.5 2-5 2" style="opacity:.2;fill:none;stroke:#000;stroke-width:2;stroke-linecap:round;stroke-linejoin:round"/><path d="m3 2c-.554 0-1 .446-1 1v.5c0-.554.446-1 1-1h18c.554 0 1 .446 1 1v-.5c0-.554-.446-1-1-1z" fill="#f4f4f7" opacity=".2"/><path d="m3 22.5c-.554 0-1-.446-1-1v-.5c0 .554.446 1 1 1h14.6c.554 0 1-.446 1-1v.5c0 .554-.446 1-1 1z" opacity=".2"/><g fill="none" stroke-linecap="round" stroke-linejoin="round" stroke-width="2"><path d="m11 5c-2.067 2.72-6 2-6 4.75 0 3.334 4.79 3.297 4 7.25-.5 2.5-3.5 2-5 2" stroke="#4f4f4f"/><path d="m13 19.5v-11c.546-1.792 1.251-3 3-3 2 0 3 1 3 3s-4 3.5-4 4.75 4 5.25 5 6.25" opacity=".2" stroke="#000"/><path d="m13 19v-11c.546-1.792 1.251-3 3-3 2 0 3 1 3 3s-4 3.5-4 4.75 4 5.25 5 6.25" stroke="#85722f"/></g><circle cx="17" cy="17" fill="#61b12f" r="6"/><path d="m16.244 14-.067.79a2.378 2.357 0 0 0 -.695.398l-.724-.338-.757 1.3.658.452a2.378 2.357 0 0 0 -.037.398 2.378 2.357 0 0 0 .035.399l-.657.451.757 1.3.723-.338a2.378 2.357 0 0 0 .697.396l.066.792h1.514l.066-.79a2.378 2.357 0 0 0 .696-.399l.724.339.757-1.3-.658-.452a2.378 2.357 0 0 0 .036-.398 2.378 2.357 0 0 0 -.034-.4l.656-.45-.757-1.299-.723.337a2.378 2.357 0 0 0 -.696-.396l-.067-.791h-1.513zm.757 2.142a.865.857 0 0 1 .864.857.865.857 0 0 1 -.865.857.865.857 0 0 1 -.865-.857.865.857 0 0 1 .865-.857z" fill="#f4f4f7"/></svg>