<svg height="24" width="24" xmlns="http://www.w3.org/2000/svg">
    <path d="M11.897 2.502a2.999 2.999 0 0 0-2.653 1.815l-.935 2.18H5.004c-2.698 0-4.023 3.284-2.08 5.157L5.17 13.82l-1.923 4.487c-1.12 2.613 1.686 5.173 4.185 3.818L12 19.65l4.568 2.475c2.5 1.355 5.306-1.205 4.185-3.818L18.83 13.82l2.247-2.166c1.942-1.873.617-5.156-2.081-5.157H15.69l-.935-2.18a2.999 2.999 0 0 0-2.86-1.815z" opacity=".2"/>
    <path d="M11.897 2.002a2.999 2.999 0 0 0-2.653 1.815l-.935 2.18H5.004c-2.698 0-4.023 3.284-2.08 5.157L5.17 13.32l-1.923 4.487c-1.12 2.613 1.686 5.173 4.185 3.818L12 19.15l4.568 2.475c2.5 1.355 5.306-1.205 4.185-3.818L18.83 13.32l2.247-2.166c1.942-1.873.617-5.156-2.081-5.157H15.69l-.935-2.18a2.999 2.999 0 0 0-2.86-1.815z" fill="#353535"/>
    <path d="m12 5.498-1.714 3.997H5.004L8.742 13.1l-2.738 6.388L12 16.24l5.996 3.248-2.738-6.388 3.738-3.605h-5.282z" opacity=".2"/>
    <path d="m12 4.998-1.714 3.997H5.004L8.742 12.6l-2.738 6.388L12 15.74l5.996 3.248-2.738-6.388 3.738-3.605h-5.282z" fill="#e1dc1f"/>
    <g fill="#f4f4f7">
        <path d="M11.896 2.002a2.997 2.997 0 0 0-2.652 1.814L8.31 5.998H5.004c-1.904 0-3.117 1.635-2.988 3.256.127-1.44 1.28-2.756 2.988-2.756h3.305l.935-2.182a2.997 2.997 0 0 1 5.512 0l.935 2.182h3.305c1.708 0 2.861 1.315 2.988 2.756.13-1.62-1.084-3.256-2.988-3.256h-3.305l-.935-2.182a2.998 2.998 0 0 0-2.86-1.814zM5.018 13.674l-1.77 4.133a3 3 0 0 0-.242 1.449c.027-.31.105-.63.242-.95L5.17 13.82zm13.964 0-.152.146 1.922 4.487c.137.319.215.638.242.949a3 3 0 0 0-.242-1.45z" opacity=".1"/>
        <path d="m12 4.998-1.713 3.996H5.004l.517.5h4.766L12 5.498l1.713 3.996h4.766l.517-.5h-5.283zm-3.41 7.955-2.586 6.035.28-.15L8.741 13.1zm6.82 0-.152.147 2.459 5.738.28.15z" opacity=".2"/>
    </g>
</svg>
