<svg height="24" width="24" xmlns="http://www.w3.org/2000/svg"><path d="m22 21.5s0-19-10-19-10 19-10 19c0 .554.446 1 1 1h18c.554 0 1-.446 1-1z" opacity=".2"/><path d="m22 21s0-19-10-19-10 19-10 19c0 .554.446 1 1 1h18c.554 0 1-.446 1-1z" fill="#b49"/><path d="m12 2c-10 0-10 19-10 19 0 .033.007.064.01.096.036-2.07.609-18.596 9.99-18.596s9.954 16.526 9.99 18.596c.003-.032.01-.063.01-.096 0 0 0-19-10-19z" fill="#f4f4f7" opacity=".2"/><path d="m18 12.5a6 6 0 1 1 -8.694-5.363c.81-.407 1.692.601 2.66.601 1 0 1.976-.994 2.805-.561a6 6 0 0 1 3.229 5.323z" opacity=".2"/><path d="m18 12a6 6 0 1 1 -8.996-5.2c.882-.509 1.838.873 2.93.873 1.13 0 2.255-1.36 3.158-.816a5.997 5.997 0 0 1 2.908 5.143z" fill="#69e27d"/><circle cx="12" cy="12" fill="#00a200" r="4"/><g fill="none" stroke-linecap="round" stroke-linejoin="round" stroke-width="2"><path d="m4 8s2.23-1.508 3.5-1.5c1.641.01 2.859 2 4.5 2s2.859-1.99 4.5-2c1.27-.008 3.5 1.5 3.5 1.5" opacity=".2" stroke="#000"/><path d="m4 7.5s2.23-1.508 3.5-1.5c1.641.01 2.859 2 4.5 2s2.859-1.99 4.5-2c1.27-.008 3.5 1.5 3.5 1.5" stroke="#17191e"/></g></svg>