<svg width="24" height="24" xmlns="http://www.w3.org/2000/svg"><g transform="translate(1 1)"><circle cx="11" cy="11.5" r="10" style="opacity:.2"/><circle cx="11" cy="11" r="10" style="fill:#4f4f4f"/><path d="M11 1A10 10 0 0 0 1 11a10 10 0 0 0 .01.293A10 10 0 0 1 11 1.5a10 10 0 0 1 9.99 9.707A10 10 0 0 0 21 11 10 10 0 0 0 11 1z" style="fill:#f4f4f7;opacity:.1"/><path d="M11.044 3.888a2.795 2.795 0 0 0-.6.056c-.483.1-1.129.406-1.448.686-.377.331-.316.542.09.31.184-.105 1.13-.13 1.435-.036.256.078.065.125-.632.156-.53.023-.634.05-.884.227-.424.3-.455.385-.239.642.1.12.2.3.222.4.074.343.3.833.384.833.03 0 .056.05.056.112 0 .21-.26-.1-.403-.48-.114-.306-.525-.863-.637-.863-.022 0-.057.046-.078.103-.061.158.166.581.312.581.192 0 .412.728.347 1.145-.02.123-.014.392.012.598l.046.376h.332c.183 0 .373.04.423.088.05.049.213.143.364.21l.41.183c.075.034.229.07.341.08.297.029.255.146-.153.42-.35.237-.373.24-.855.2-.317-.025-.56-.084-.676-.165-.206-.144-.35-.159-.542-.056-.176.094-.185.473-.012.48.276.013.394.067.576.262a.612.612 0 0 1 .193.49c0 .27-.009.284-.176.252-.153-.03-.173-.016-.14.11.022.08.042.279.042.442.002.385.112.351.364-.112.106-.195.221-.354.256-.354.036 0 .065.161.066.358l.003.36.168-.194c.21-.237.209-.258-.002-.456-.198-.186-.251-.684-.073-.684.054 0 .119.033.144.074.024.04.084.057.131.039.06-.023.084.043.079.212-.012.393.14.339.454-.164l.29-.466.022.366c.027.463-.01.555-.22.555-.232 0-.289.123-.129.283.087.086.268.148.515.173.45.047.476.202.044.271-.146.023-.266.07-.266.103 0 .032-.088.058-.195.058a.48.48 0 0 0-.323.144c-.11.122-.18.137-.456.1-.315-.041-.325-.038-.325.132 0 .195.17.301.29.18a.33.33 0 0 1 .203-.077.592.592 0 0 0 .26-.086c.108-.068.165-.067.28.005.079.05.286.084.461.078.433-.014.47-.006.352.071a.735.735 0 0 1-.32.068c-.12.001-.238.031-.261.069-.023.037-.165.068-.315.068-.268 0-.275.005-.254.222.021.222.024.222.361.2.282-.018.539-.098.874-.27.029-.015.052.02.052.075 0 .116-.584.526-.747.525-.434-.001-.86-.297-.777-.537.031-.089.022-.095-.049-.03-.061.058-.127.062-.215.015-.15-.08-.4.029-.4.176 0 .16.556.854.71.889.08.017.298.041.486.051.288.015.342.04.342.151 0 .098-.096.171-.359.274-.29.113-.407.207-.6.495-.283.423-.627.78-.977 1.011-.313.208-.987.443-1.27.445-.116 0-.259.03-.314.065-.086.055-.074.096.073.257.096.105.229.275.293.378.221.357-.045.224-1.213-.605-.232-.164-1.116-1.266-1.448-1.804-.232-.376-.275-.41-.496-.41-.133 0-.296-.05-.364-.11-.122-.111-.332-.09-.332.034 0 .113.817 1.106 1.431 1.74.616.637 1.38 1.26 1.997 1.624.377.223 1.152.54 1.318.54.19 0 .167-.218-.056-.567-.295-.463-.538-.941-.498-.981.059-.059.525.4.525.515 0 .11.55.913.838 1.22.18.194.578.212.651.032.027-.066.178-.29.335-.495.157-.206.367-.59.469-.852l.246-.638c.073-.19.351-.183.388.01.013.069-.176.47-.42.891-.243.422-.453.843-.466.935l-.024.169.718-.008c1.938-.02 3.915-.856 5.427-2.297.457-.436.519-.527.517-.737-.002-.336-.205-.749-.495-1.004-.304-.266-1.162-.774-1.309-.774-.14 0-.134.057.025.318.128.21.127.216-.005.434l-.135.22-.586-.049-.583-.049-.259.254c-.287.28-.547.29-.547.017 0-.08-.067-.215-.149-.302-.189-.202-.106-.296.098-.113.256.23.31.238.488.059.095-.095.238-.173.318-.173.079 0 .2-.03.268-.066.091-.049.147-.04.208.034.097.117.428.132.62.03.13-.07.13-.076-.005-.34-.102-.2-.25-.329-.584-.515a3.806 3.806 0 0 1-.756-.579c-.4-.423-.664-.542-.843-.38-.172.155-.216.357-.1.453.053.044.095.155.095.245s.04.223.086.297c.07.114.057.187-.086.455a1.805 1.805 0 0 1-.444.515c-.46.333-.49.37-.537.659-.025.153-.101.317-.17.366-.07.05-.18.19-.243.313-.095.185-.153.222-.349.222-.129 0-.376.048-.549.107-.173.059-.382.097-.464.086-.187-.027-.196-.217-.012-.247.075-.012.254-.068.395-.122.142-.054.33-.098.418-.098.23 0 .485-.226.657-.58.081-.17.177-.308.212-.308s.115-.108.178-.24c.063-.131.137-.239.166-.239.089 0 .537-.705.537-.845 0-.07-.062-.231-.139-.356-.128-.207-.132-.246-.041-.42.055-.105.196-.28.312-.39.116-.111.21-.246.21-.298 0-.053.06-.17.132-.262.072-.091.168-.39.215-.661.098-.568.209-.821.461-1.055.166-.154.18-.216.205-.847.023-.573.01-.696-.083-.764-.09-.067-.116-.264-.146-1.04-.042-1.1-.045-1.111-.33-1.587-.265-.443-.416-.462-.75-.093-.18.2-.23.309-.202.427.031.129.02.143-.051.076-.155-.145-.096-.45.166-.86.336-.523.317-.696-.112-.983a3.323 3.323 0 0 0-1.785-.562zm1.667 5.386c.296-.002.587.022.635.07.07.07-.435.416-.605.416-.075 0-.1.054-.086.185.034.317-.188.276-.566-.102-.186-.186-.337-.39-.337-.457 0-.1.018-.107.102-.037.082.068.125.067.206 0 .059-.048.356-.074.651-.075zm-.507 1.27c.083.028.211.202.317.446.133.307.133.307.237.154.111-.165.356-.21.368-.068.022.241-.035.433-.15.515-.072.05-.13.144-.13.21 0 .113-.397.556-.498.556-.027 0-.05-.045-.05-.1 0-.055.062-.133.138-.173.14-.075.19-.274.068-.274-.038 0-.068.031-.068.069s-.062.068-.137.068c-.183 0-.174-.112.017-.212.317-.167.339-.353.039-.323-.13.014-.227-.012-.244-.063-.016-.047.02-.085.08-.085.136 0 .138-.199.008-.45-.055-.105-.082-.216-.061-.249.015-.025.038-.031.066-.022z" style="opacity:.2"/><path d="M11.044 3.488a2.795 2.795 0 0 0-.6.056c-.483.1-1.129.405-1.448.686-.377.33-.316.542.09.31.184-.105 1.13-.13 1.435-.037.256.078.065.126-.632.157-.53.023-.634.05-.884.227-.424.3-.455.385-.239.642.1.12.2.3.222.4.074.343.3.833.384.833.03 0 .056.05.056.112 0 .21-.26-.1-.403-.48-.114-.306-.525-.863-.637-.863-.022 0-.057.046-.078.103-.061.158.166.58.312.58.192 0 .412.729.347 1.146-.02.122-.014.391.012.598l.046.376h.332c.183 0 .373.04.423.088.05.048.213.143.364.21l.41.183c.075.034.229.07.341.08.297.029.255.146-.153.42-.35.236-.373.24-.855.2-.317-.025-.56-.084-.676-.165-.206-.144-.35-.159-.542-.057-.176.094-.185.474-.012.481.276.012.394.067.576.262a.612.612 0 0 1 .193.49c0 .27-.009.284-.176.252-.153-.03-.173-.016-.14.11.022.08.042.279.042.442.002.385.112.351.364-.113.106-.195.221-.354.256-.354.036 0 .065.162.066.36l.003.358.168-.193c.21-.237.209-.258-.002-.456-.198-.186-.251-.684-.073-.684.054 0 .119.033.144.073.024.04.084.057.131.04.06-.024.084.043.079.212-.012.393.14.338.454-.164l.29-.466.022.366c.027.463-.01.554-.22.554-.232 0-.289.123-.129.283.087.087.268.148.515.174.45.046.476.202.044.27-.146.024-.266.07-.266.103 0 .033-.088.059-.195.059a.48.48 0 0 0-.323.144c-.11.122-.18.137-.456.1-.315-.042-.325-.038-.325.132 0 .194.17.3.29.18a.33.33 0 0 1 .203-.078.592.592 0 0 0 .26-.085c.108-.068.165-.067.28.005.079.05.286.084.461.078.433-.015.47-.006.352.07a.735.735 0 0 1-.32.07c-.12 0-.238.03-.261.068-.023.037-.165.068-.315.068-.268 0-.275.005-.254.222.021.221.024.222.361.2.282-.018.539-.098.874-.27.029-.015.052.019.052.075 0 .116-.584.525-.747.525-.434-.002-.86-.297-.777-.537.031-.09.022-.095-.049-.03-.061.058-.127.062-.215.015-.15-.08-.4.028-.4.176 0 .159.556.854.71.889.08.017.298.041.486.05.288.016.342.04.342.152 0 .098-.096.171-.359.274-.29.113-.407.207-.6.495-.283.422-.627.78-.977 1.011-.313.207-.987.443-1.27.444-.116 0-.259.031-.314.066-.086.054-.074.095.073.257.096.105.229.275.293.378.221.357-.045.224-1.213-.605-.232-.164-1.116-1.266-1.448-1.805-.232-.375-.275-.41-.496-.41-.133 0-.296-.049-.364-.11-.122-.11-.332-.09-.332.034 0 .114.817 1.107 1.431 1.741.616.636 1.38 1.26 1.997 1.624.377.223 1.152.54 1.318.54.19 0 .167-.218-.056-.567-.295-.463-.538-.941-.498-.982.059-.058.525.4.525.516 0 .11.55.913.838 1.22.18.193.578.212.651.032.027-.066.178-.29.335-.496.157-.206.367-.588.469-.852l.246-.637c.073-.19.351-.184.388.01.013.069-.176.47-.42.891-.243.421-.453.842-.466.935l-.024.169.718-.008c1.938-.02 3.915-.857 5.427-2.297.457-.436.519-.528.517-.737-.002-.336-.205-.749-.495-1.004-.304-.266-1.162-.774-1.309-.774-.14 0-.134.057.025.318.128.21.127.216-.005.434l-.135.22-.586-.049-.583-.049-.259.254c-.287.28-.547.289-.547.017 0-.08-.067-.216-.149-.303-.189-.2-.106-.296.098-.112.256.23.31.238.488.059.095-.095.238-.174.318-.174.079 0 .2-.029.268-.065.091-.05.147-.04.208.034.097.117.428.132.62.029.13-.07.13-.075-.005-.34-.102-.199-.25-.328-.584-.514a3.806 3.806 0 0 1-.756-.58c-.4-.422-.664-.542-.843-.38-.172.156-.216.357-.1.454.053.044.095.154.095.244s.04.224.086.298c.07.114.057.187-.086.454a1.805 1.805 0 0 1-.444.515c-.46.334-.49.371-.537.66-.025.153-.101.317-.17.366-.07.049-.18.19-.243.312-.095.186-.153.222-.349.222-.129 0-.376.05-.549.108-.173.059-.382.097-.464.085-.187-.026-.196-.216-.012-.246.075-.012.254-.068.395-.122.142-.054.33-.098.418-.098.23 0 .485-.226.657-.581.081-.17.177-.308.212-.308s.115-.107.178-.239c.063-.131.137-.24.166-.24.089 0 .537-.704.537-.844 0-.071-.062-.232-.139-.356-.128-.207-.132-.246-.041-.42.055-.105.196-.28.312-.39.116-.111.21-.246.21-.299 0-.053.06-.17.132-.261.072-.091.168-.39.215-.662.098-.568.209-.82.461-1.054.166-.154.18-.216.205-.847.023-.573.01-.696-.083-.765-.09-.066-.116-.264-.146-1.04-.042-1.1-.045-1.11-.33-1.587-.265-.443-.416-.461-.75-.092-.18.2-.23.308-.202.427.031.128.02.143-.051.076-.155-.145-.096-.45.166-.86.336-.523.317-.697-.112-.984a3.323 3.323 0 0 0-1.785-.561zm1.667 5.386c.296-.002.587.022.635.07.07.07-.435.415-.605.415-.075 0-.1.055-.086.186.034.316-.188.276-.566-.103-.186-.185-.337-.39-.337-.456 0-.1.018-.107.102-.037.082.068.125.067.206 0 .059-.049.356-.074.651-.075zm-.507 1.27c.083.028.211.202.317.446.133.307.133.307.237.154.111-.165.356-.21.368-.069.022.242-.035.434-.15.515-.072.05-.13.145-.13.21 0 .114-.397.557-.498.557-.027 0-.05-.045-.05-.1 0-.055.062-.133.138-.173.14-.076.19-.274.068-.274-.038 0-.068.03-.068.069s-.062.068-.137.068c-.183 0-.174-.112.017-.213.317-.166.339-.353.039-.322-.13.014-.227-.012-.244-.063-.016-.047.02-.086.08-.086.136 0 .138-.198.008-.449-.055-.105-.082-.216-.061-.249.015-.025.038-.032.066-.022z" style="fill:#f4f4f7"/></g></svg>