<svg xmlns="http://www.w3.org/2000/svg" width="24" height="24" version="1"><rect fill="#c2352a" width="20" height="20" x="2" y="2" rx="1" ry="1"/><path fill="#fff" opacity=".2" d="M3 2c-.554 0-1 .446-1 1v.5c0-.554.446-1 1-1h18c.554 0 1 .446 1 1V3c0-.554-.446-1-1-1H3z"/><path opacity=".2" d="M3 22.5c-.554 0-1-.446-1-1V21c0 .554.446 1 1 1h18c.554 0 1-.446 1-1v.5c0 .554-.446 1-1 1H3z"/><g opacity=".2"><path d="m12.253 12.001.75.75-.75.75-.75-.75zM14.5 5.5l-1 4H11l-1-4zM11 10h2.5v1H11zM5 15l4-1v-2.5l-4-1zM9.5 11.5V14h1v-2.5zM15.682 19.5l-2.121-3.536 1.767-1.767 3.536 2.121zM14.979 13.843l-1.768 1.768-.707-.707 1.767-1.768z"/></g><g fill="#fff"><path d="m12.253 11.501.75.75-.75.75-.75-.75zM14.5 5l-1 4H11l-1-4zM11 9.5h2.5v1H11zM5 14.5l4-1V11l-4-1zM9.5 11v2.5h1V11zM15.682 19l-2.121-3.536 1.767-1.767 3.536 2.121zM14.979 13.343l-1.768 1.768-.707-.707 1.767-1.768z"/></g></svg>