<svg height="24" width="24" xmlns="http://www.w3.org/2000/svg"><circle cx="12" cy="12.5" opacity=".2" r="10"/><circle cx="12" cy="12" fill="#fecd38" r="10"/><path d="m12 2a10 10 0 0 0 -10 10 10 10 0 0 0 .01.291 10 10 0 0 1 9.99-9.791 10 10 0 0 1 9.99 9.709 10 10 0 0 0 .01-.209 10 10 0 0 0 -10-10z" fill="#f4f4f7" opacity=".2"/><path d="m12 3.5a9 9 0 0 0 -9 9 9 9 0 0 0 9 9 9 9 0 0 0 9-9 9 9 0 0 0 -9-9zm0 1a8 8 0 0 1 8 8 8 8 0 0 1 -8 8 8 8 0 0 1 -8-8 8 8 0 0 1 8-8zm-3.5 5c-2.5 0-3.5 1-3.5 1v1.5s.5 0 .5.5.5 2 2.5 2 2.5-.5 3-2c.224-.67.5-1 1-1s.776.33 1 1c.5 1.5 1 2 3 2s2.5-1.5 2.5-2 .5-.5.5-.5v-1.5s-.619-.8-2.066-.934l-.434.534.5.4-2 2 .572-1.46-.572-.54.5-1c-1.5 0-2.5 1-3.5 1s-2-1-3.5-1zm6.584 5.723s-.227.338-.563.673c-.335.336-.771.604-1.021.604h-1.5v1h1.5c.75 0 1.314-.482 1.729-.896.414-.415.687-.827.687-.827z" opacity=".1"/><path d="m12 3a9 9 0 0 0 -9 9 9 9 0 0 0 9 9 9 9 0 0 0 9-9 9 9 0 0 0 -9-9zm0 1a8 8 0 0 1 8 8 8 8 0 0 1 -8 8 8 8 0 0 1 -8-8 8 8 0 0 1 8-8zm-3.5 5c-2.5 0-3.5 1-3.5 1v1.5s.5 0 .5.5.5 2 2.5 2 2.5-.5 3-2c.224-.67.5-1 1-1s.776.33 1 1c.5 1.5 1 2 3 2s2.5-1.5 2.5-2 .5-.5.5-.5v-1.5s-.619-.8-2.066-.934l-.434.534.5.4-2 2 .572-1.46-.572-.54.5-1c-1.5 0-2.5 1-3.5 1s-2-1-3.5-1zm6.584 5.723s-.227.338-.563.673c-.335.336-.771.604-1.021.604h-1.5v1h1.5c.75 0 1.314-.482 1.729-.896.414-.415.687-.827.687-.827z" fill="#4f4f4f"/></svg>