<svg height="24" width="24" xmlns="http://www.w3.org/2000/svg">
    <path d="M12 2.5c-3.111.363-4.308 1.185-4.752 5.125A2.488 2.488 0 0 0 6.5 7.5 2.495 2.495 0 0 0 4 10v7.5a2.495 2.495 0 0 0 3.574 2.252C7.794 20.772 8 21.5 8 21.5s0 1 2 1c2.5 0 3-1 3-1v-1.1c0-.9.186-.9.422-.9.5 0 .578 1 .578 1s.5.95 2 .95c2 0 3-.95 3-.95v-3.275c0-2.233-.223-4.372-.621-6.565.382-.433.621-.997.621-1.623a2.455 2.455 0 0 0-1.488-2.262l-.012-.05C16.813 4.2 16.5 2.5 12 2.5z" opacity=".2"/>
    <rect fill="#a20109" height="12.5" ry="2.5" width="5" x="4" y="7"/>
    <path d="M6.5 7A2.495 2.495 0 0 0 4 9.5v.5c0-1.385 1.115-2.5 2.5-2.5S9 8.615 9 10v-.5C9 8.115 7.885 7 6.5 7z" fill="#f4f4f7" opacity=".1"/>
    <path d="M7 14.5C7 17.65 8 21 8 21s0 1 2 1c2.5 0 3-1 3-1v-1.1c0-.9.187-.9.423-.9.5 0 .577 1 .577 1s.5.95 2 .95c2 0 3-.95 3-.95v-3.275c0-3.54-.5-6.825-1.5-10.5C16.813 3.701 16.5 2 12 2c-4.5.525-5 2-5 12.5z" fill="#d6000a"/>
    <path d="M12 2c-4.5.525-5 2-5 12.5 0 .032.004.065.004.098C7.019 4.499 7.564 3.018 12 2.5c4.5 0 4.813 1.7 5.5 4.225 1 3.675 1.5 6.96 1.5 10.5v-.5c0-3.54-.5-6.825-1.5-10.5C16.813 3.7 16.5 2 12 2z" fill="#f4f4f7" opacity=".2"/>
    <path d="M12.463 6.574A2.458 2.458 0 0 0 10 9.037a2.458 2.458 0 0 0 2.463 2.463h4.074c.78 0 1.466-.367 1.916-.93a44.852 44.852 0 0 0-.8-3.718 2.446 2.446 0 0 0-1.116-.278z" opacity=".2"/>
    <rect fill="#84ddd1" height="4.925" ry="2.463" width="9" x="10" y="6.075"/>
    <path d="M12.463 6.074A2.458 2.458 0 0 0 10 8.537c0 .086.017.167.025.25a2.448 2.448 0 0 1 2.438-2.213h4.074c1.279 0 2.312.969 2.438 2.213.008-.083.025-.164.025-.25a2.458 2.458 0 0 0-2.463-2.463z" fill="#f4f4f7" opacity=".2"/>
</svg>
