<svg height="24" width="24" xmlns="http://www.w3.org/2000/svg">
    <path d="M10 2.5v19.404c-.028.569-.058.584.488.584h3.054c.567.061.458-.112.458-.62V2.5zm4 .014c0 5.003.034 8.857 1.001 12.154.913 3.113 2.731 5.65 5.58 7.575.422.277.55.434.813-.17l1.431-2.45c.283-.483.232-.484-.225-.773-4.128-3.011-5.719-9.326-5.792-15.857-.003-.403.036-.54-.455-.48zm-4 0H7.647c-.49-.06-.452.076-.455.48C7.12 9.523 5.528 15.838 1.4 18.85c-.457.29-.508.29-.225.773l1.431 2.45c.262.604.39.447.813.17 2.849-1.925 4.667-4.462 5.58-7.575C9.966 11.371 10 7.518 10 2.514z" opacity=".2"/>
    <path d="M10 2v19.403c-.029.57-.058.585.488.585h3.054c.567.061.458-.113.458-.621V2zm4 .014c0 5.003.034 8.857 1.001 12.154.913 3.113 2.731 5.65 5.58 7.576.422.276.55.433.813-.17l1.431-2.451c.283-.484.233-.484-.225-.773-4.128-3.011-5.719-9.326-5.792-15.857-.003-.403.036-.54-.455-.48zm-4 0H7.647c-.491-.06-.452.076-.455.479C7.12 9.023 5.528 15.339 1.4 18.35c-.458.29-.508.29-.225.773l1.431 2.45c.262.604.39.447.813.17 2.849-1.925 4.667-4.462 5.58-7.575.967-3.297 1-7.15 1-12.154z" fill="#ffa726"/>
    <path d="M10 2v.5h4V2zm4 .014c0 .176.003.326.003.5h2.35c.491-.06.452.076.455.48.073 6.53 1.664 12.844 5.792 15.856.118.075.209.13.274.18.209-.376.146-.415-.274-.68-4.128-3.012-5.719-9.326-5.792-15.857-.003-.403.036-.54-.455-.48zm-4 0H7.647c-.49-.06-.452.076-.455.48C7.12 9.023 5.528 15.337 1.4 18.35c-.42.265-.482.304-.274.68.065-.05.156-.105.274-.18 4.128-3.012 5.72-9.326 5.792-15.857.003-.403-.036-.54.455-.48h2.35c0-.173.003-.323.003-.5zm4 19.353v.385c.004-.099 0-.217 0-.385zm-4 .036c-.01.219-.021.355 0 .44z" fill="#f4f4f7" opacity=".2"/>
</svg>
