<svg height="24" width="24" xmlns="http://www.w3.org/2000/svg">
    <path d="M19.029 3.551 8.913 5.659C7.143 5.872 7 7.5 7 7.498v7.135a3.997 3.997 0 0 0-1-.133 4 4 0 1 0 0 8A4 4 0 0 0 9.965 19s.035-.363.035-.5V8.465l8-1.729v5.897a3.997 3.997 0 0 0-1-.133 4 4 0 1 0 0 8 4 4 0 0 0 3.965-3.5l.035-.5V5.149s.013-1.951-1.971-1.597z" opacity=".2"/>
    <path d="M19.029 3.051 8.913 5.159C7.143 5.372 7 7 7 6.998v7.135A3.997 3.997 0 0 0 6 14a4 4 0 1 0 0 8 4 4 0 0 0 3.965-3.5S10 18.137 10 18V7.965l8-1.729v5.897A3.997 3.997 0 0 0 17 12a4 4 0 1 0 0 8 4 4 0 0 0 3.965-3.5L21 16V4.649s.013-1.951-1.971-1.597z" fill="#3c8cf8"/>
    <path d="M19.684 3.02a2.357 2.357 0 0 0-.655.033L8.914 5.158C7.144 5.371 7 7 7 6.998v.5c0 .002.144-1.627 1.914-1.84L19.03 3.551C21.014 3.196 21 5.148 21 5.148v-.5s.01-1.492-1.316-1.628zM17 12a4 4 0 0 0-4 4c0 .086.02.166.025.25.132-2.09 1.851-3.75 3.975-3.75.338.002.673.046 1 .133v-.5A3.997 3.997 0 0 0 17 12zM6 14a4 4 0 0 0-4 4c0 .086.02.166.025.25C2.157 16.16 3.876 14.5 6 14.5c.338.002.673.046 1 .133v-.5A3.997 3.997 0 0 0 6 14z" fill="#f4f4f7" opacity=".2"/>
    <circle cx="17" cy="17" fill="#f5c839" r="6"/>
    <g fill="#f4f4f7">
        <path d="M15 13h1v8h-1zm3 0h1v8h-1z"/>
        <path d="M21 15v1h-8v-1zm0 3v1h-8v-1z"/>
    </g>
</svg>
