<svg xmlns="http://www.w3.org/2000/svg" width="24" height="24" version="1">
    <g transform="translate(1 1)">
        <path opacity=".2" d="M19.889 2.5c.616 0 1.111.635 1.111 1.25v12.5c0 .616-.495 1.243-1.111 1.25H10.5l-2.5 3-2.5-3H2.111c-.615 0-1.11-.634-1.11-1.25V3.75c0-.615.495-1.25 1.11-1.25z"/>
        <path fill="#3a8268" d="M19.889 2C20.505 2 21 2.635 21 3.25v12.5c0 .616-.495 1.243-1.111 1.25H10.5L8 20l-2.5-3H2.111c-.615 0-1.11-.634-1.11-1.25V3.25C1 2.635 1.495 2 2.11 2z"/>
        <path fill="#f4f4f7" opacity=".1" d="M19.889 2C20.505 2 21 2.635 21 3.25v.5c0-.615-.495-1.25-1.111-1.25H2.112C1.496 2.5 1 3.135 1 3.75v-.5C1 2.635 1.496 2 2.112 2h17.777z"/>
        <path opacity=".2" d="M7 13.5v-1h6v1zm0-2v-1h9v1zm0-2v-1h9v1zm0-2v-1h9v1z"/>
        <path fill="#9dc1b4" d="M7 13v-1h6v1zm0-2v-1h9v1zm0-2V8h9v1zm0-2V6h9v1z"/>
        <circle fill="#772bbe" cx="16.5" cy="16.5" r="5.5"/>
        <path fill="#f4f4f7" d="M14 17.582V19h1.418L19 15.418 17.582 14z"/>
    </g>
</svg>
