<svg height="24" width="24" xmlns="http://www.w3.org/2000/svg">
    <circle cx="12" cy="12.5" opacity=".2" r="10"/>
    <circle cx="12" cy="12" fill="#1ca4d4" r="10"/>
    <path d="M12 5.5a7 7 0 0 0-7 7 7 7 0 0 0 7 7 7 7 0 0 0 7-7 7 7 0 0 0-7-7zm0 1a6 6 0 0 1 5.367 3.321l-4.046 2.698-7.246.905A6 6 0 0 1 6 12.5a6 6 0 0 1 6-6zm5.741 4.273A6 6 0 0 1 18 12.5a6 6 0 0 1-1.381 3.825l-2.402-3.203zm-4.468 2.759 2.634 3.512A6 6 0 0 1 12 18.5a6 6 0 0 1-5.682-4.099l6.956-.869z" opacity=".2"/>
    <path d="M12 5a7 7 0 0 0-7 7 7 7 0 0 0 7 7 7 7 0 0 0 7-7 7 7 0 0 0-7-7zm0 1a6 6 0 0 1 6 6 6 6 0 0 1-6 6 6 6 0 0 1-6-6 6 6 0 0 1 6-6z" fill="#f4f4f7"/>
    <path d="m5.5 13.5 8-1 4.5-3m-1.5 7-3-4" fill="none" stroke="#f4f4f7"/>
    <g opacity=".2" stroke-width=".5">
        <circle cx="5.5" cy="14" r="1.5"/>
        <circle cx="16.5" cy="17" r="1.5"/>
        <circle cx="18" cy="10" r="1.5"/>
        <circle cx="13.5" cy="13" r="1.5"/>
    </g>
    <g fill="#f4f4f7">
        <circle cx="16.5" cy="16.5" r="1.5"/>
        <circle cx="18" cy="9.5" r="1.5"/>
        <circle cx="13.5" cy="12.5" r="1.5"/>
        <circle cx="5.5" cy="13.5" r="1.5"/>
        <path d="M12 2A10 10 0 0 0 2 12a10 10 0 0 0 .01.293A10 10 0 0 1 12 2.5a10 10 0 0 1 9.99 9.707A10 10 0 0 0 22 12 10 10 0 0 0 12 2z" opacity=".2"/>
    </g>
</svg>
