<svg height="64" width="64" xmlns="http://www.w3.org/2000/svg">
    <filter id="a" color-interpolation-filters="sRGB" height="1.054" width="1.054" x="-.027" y="-.027">
        <feGaussianBlur stdDeviation=".619"/>
    </filter>
    <linearGradient id="b" gradientUnits="userSpaceOnUse" x1="60.86" x2="115.861" y1="82.551" y2="27.553">
        <stop offset="0" stop-color="#ff8228"/>
        <stop offset=".492" stop-color="#ff7346"/>
        <stop offset="1" stop-color="#ff8c55"/>
    </linearGradient>
    <filter id="c" color-interpolation-filters="sRGB" height="1.172" width="1.397" x="-.199" y="-.086">
        <feGaussianBlur stdDeviation=".182"/>
    </filter>
    <g transform="translate(-56.357 -23.053)">
        <rect fill="#141414" filter="url(#a)" height="55" opacity=".3" ry="15" width="55" x="60.857" y="27.553"/>
        <rect fill="url(#b)" height="55" ry="14.895" width="55" x="60.857" y="27.553"/>
        <path d="M100.85 33.826a12.5 12.5 0 0 1 .01.5 12.5 12.5 0 0 1-12.5 12.5 12.5 12.5 0 0 1-12.5-12.5 12.5 12.5 0 0 1 .01-.5" fill="none" stroke="#f4f4f7" stroke-dashoffset=".421" stroke-width="2"/>
        <rect fill="#fafafa" height="10.923" ry=".982" transform="rotate(-135)" width="1.964" x="-101.82" y="14.171"/>
        <path d="M8.467 7.856a.26.26 0 0 0-.26.26v4.554c0 .014.003.027.004.04l.001.01c.003.015.008.029.013.043l.002.005a.26.26 0 0 0 .143.143l.006.002a.247.247 0 0 0 .141.012c.013-.002.024-.006.036-.01l.013-.004a.255.255 0 0 0 .04-.021l.005-.003a.26.26 0 0 0 .04-.033l1.676-1.676a.26.26 0 1 0-.367-.368l-1.233 1.233V8.115a.26.26 0 0 0-.26-.26z" fill="#ff6446" filter="url(#c)" transform="matrix(4.0049 0 0 -3.7796 54.012 102.14)"/>
        <path d="M88.357 72.454a.98.98 0 0 1-.981-.983V54.256c0-.05.007-.1.014-.148.002-.012.001-.025.004-.037a.968.968 0 0 1 .049-.164l.006-.02a.98.98 0 0 1 .539-.54l.025-.008a.934.934 0 0 1 .345-.064c.064 0 .127.006.187.018h.001c.047.01.09.025.134.04.017.006.034.008.05.014.054.022.104.05.153.081l.016.01a.982.982 0 0 1 .153.125l6.335 6.335a.98.98 0 0 1 0 1.389.98.98 0 0 1-1.389 0l-4.658-4.659v14.844a.98.98 0 0 1-.983.983z" fill="#fafafa"/>
    </g>
</svg>
