<svg height="22" width="22" xmlns="http://www.w3.org/2000/svg">
    <path d="M11 1c5.54 0 10 4.46 10 10s-4.46 10-10 10S1 16.54 1 11 5.46 1 11 1z" fill="#6e7cd4"/>
    <path d="M11 2c4.986 0 9 4.014 9 9s-4.014 9-9 9-9-4.014-9-9 4.014-9 9-9z" fill="#93a0e6"/>
    <path d="M10.167 6A4.74 5.022 0 0 0 6 10.978 4.74 5.022 0 0 0 10.74 16 4.74 5.022 0 0 0 15 13.167a4.74 5.022 0 0 1-.238.03 4.74 5.022 0 0 1-.335.013 4.74 5.022 0 0 1-.473-.025 4.74 5.022 0 0 1-.468-.075 4.74 5.022 0 0 1-.46-.124 4.74 5.022 0 0 1-.444-.173 4.74 5.022 0 0 1-.427-.218 4.74 5.022 0 0 1-.405-.262 4.74 5.022 0 0 1-.377-.304 4.74 5.022 0 0 1-.347-.342 4.74 5.022 0 0 1-.313-.378 4.74 5.022 0 0 1-.274-.407 4.74 5.022 0 0 1-.237-.436 4.74 5.022 0 0 1-.193-.458 4.74 5.022 0 0 1-.15-.476 4.74 5.022 0 0 1-.103-.49 4.74 5.022 0 0 1-.057-.498 4.74 5.022 0 0 1-.012-.356 4.74 5.022 0 0 1 .024-.501 4.74 5.022 0 0 1 .07-.496 4.74 5.022 0 0 1 .118-.487 4.74 5.022 0 0 1 .162-.47A4.74 5.022 0 0 1 10.167 6z" fill="#ebecf4"/>
</svg>
