<svg height="24" width="24" xmlns="http://www.w3.org/2000/svg">
    <path d="M20 21V3c0-.554-.446-1-1-1H5c-.554 0-1 .446-1 1v18c0 .554.446 1 1 1h14c.554 0 1-.446 1-1z" fill="#c46c6c"/>
    <path d="M6.112 3v.5h1.5V3zm2 0v.5h1.5V3zm2 0v.5H11.5V3zM12 3v.5h1.25V3zm1.75 0v.5h1.5V3zm2 0v.5h1.5V3zm2 0v.5h.484l.167.016.142.045.127.069.11.09.091.11.016.02.1-.082.324-.176-.011-.02-.012-.022-.016-.019-.122-.148-.014-.019-.02-.014-.147-.122-.02-.016-.02-.012-.17-.092-.022-.011-.023-.007-.19-.059-.023-.007-.025-.002L18.275 3h-.526zm-12.163.015-.063.006-.026.003-.023.007-.189.059-.023.007-.022.011-.17.092-.021.012-.019.016-.148.122-.018.014-.015.019-.097.117h.883zm13.905 1.141-.498.05.006.06V5.68h.5V4.237l-.001-.012zM19 6.18v1.5h.5v-1.5zm0 2v1.5h.5v-1.5zm0 2v1.5h.5v-1.5zm0 2v1.5h.5v-1.5zm0 2v1.5h.5v-1.5zm0 2v1.5h.5v-1.5zm0 2v1.5h.5v-1.5zm0 2v.054l-.016.167-.045.142-.069.127-.09.11-.11.09-.127.07-.14.043-.04.004.05.498.064-.007.025-.003.023-.007.189-.058.023-.007.022-.012.17-.091.021-.012.019-.016.148-.122.019-.015.014-.018.122-.149.016-.018.012-.022.092-.17.011-.021.007-.023.059-.189.006-.023.003-.026.02-.2.002-.014v-.082zM4.753 21l.097.117.014.019.019.014.148.122.019.016.021.012.17.092.022.011.023.007.189.059.023.006.026.003.2.02.013.002h.513V21zm1.997 0v.5h1.5V21zm2 0v.5h1.5V21zm2 0v.5H12V21zm1.75 0v.5h1.389V21zm1.889 0v.5h1.5V21zm2 0v.5h1.5V21z" fill="#f4f4f7"/>
    <path d="M17 9.5h4v6h-4c-.554 0-1-.446-1-1v-4c0-.554.446-1 1-1z" opacity=".1"/>
    <path d="M5 2c-.554 0-1 .446-1 1v.5c0-.554.446-1 1-1h14c.554 0 1 .446 1 1V3c0-.554-.446-1-1-1z" fill="#f4f4f7" opacity=".2"/>
    <path d="M17 9h4v6h-4c-.554 0-1-.446-1-1v-4c0-.554.446-1 1-1z" fill="#9b3e3e"/>
    <path d="M20 12a1 1 0 0 1-1 1 1 1 0 0 1-1-1 1 1 0 0 1 1-1 1 1 0 0 1 1 1z" fill="#c8c8c8"/>
    <path d="M19.75 11.625a.75.625 0 0 1-.75.625.75.625 0 0 1-.75-.625A.75.625 0 0 1 19 11a.75.625 0 0 1 .75.625zM17.63 9.789v.106l-.012-.105-.044.004.025.21.03-.004h.467v-.21h-.466zm.7 0V10h.466v-.211zm.699 0V10h.466v-.211zm.7 0V10h.466v-.211zm.699 0V10h.303v-.211zm-3.104.054-.02.006-.012.004-.01.004-.127.066-.01.005-.01.006-.11.086-.007.006-.008.009-.09.103-.007.009-.006.009-.003.005.133.062.065.046.086-.097.09-.07.107-.055.01-.003v-.002h.002l-.005-.007-.067-.192zm-.52.53-.017.053-.004.01v.01l-.015.142-.001.005v.229H17v-.225l.014-.122.013-.042zm-.037.66v.421H17v-.421zm0 .632v.422H17v-.422zm0 .633v.422H17v-.422zm0 .633v.422H17v-.422zm.247.602-.224.06.04.122.003.01.006.008.068.12.006.009.006.008.091.104.008.008.008.007.022.017.152-.16-.012-.01-.079-.089-.059-.103zm.358.422-.114.183.024.013.01.005.011.003.14.041.012.003.011.001.152.014.006.001h.146v-.211h-.14l-.129-.013-.117-.035-.012-.006zm.631.053v.211h.466v-.21zm.7 0v.211h.466v-.21zm.7 0v.211h.466v-.21zm.699 0v.211h.466v-.21z" fill="#f4f4f7"/>
    <path d="M4 21v.5c0 .554.446 1 1 1h14c.554 0 1-.446 1-1V21c0 .554-.446 1-1 1H5c-.554 0-1-.446-1-1z" opacity=".2"/>
</svg>
