<svg height="24" width="24" xmlns="http://www.w3.org/2000/svg">
    <rect height="20" opacity=".2" rx="1" width="20" x="2" y="2.5"/>
    <path d="m3 2 15.655 2.345c.554 0 1 .446 1 1L22 21c0 .554-.446 1-1 1H3c-.554 0-1-.446-1-1V3c0-.554.446-1 1-1z" fill="#00a1f1"/>
    <path d="M3 2a.997.997 0 0 0-.708.292l19.416 19.416A.997.997 0 0 0 22 21V3c0-.554-.446-1-1-1z" fill="#008aee"/>
    <path d="M3 2c-.554 0-1 .446-1 1v.5c0-.554.446-1 1-1h18c.554 0 1 .446 1 1V3c0-.554-.446-1-1-1z" fill="#f4f4f7" opacity=".1"/>
    <path d="m12.564 5.5-.648.516-.666-.493-.492.666-.772-.3-.3.77-.825-.095-.091.825-.819.123.123.818-.76.332.334.76L7 9.937l.516.647-.493.666.666.492-.3.772.77.3-.093.825.823.091.123.819.82-.123.33.758.76-.332.515.648.647-.516.666.493.492-.666.772.302.3-.771.825.092.091-.823.819-.123-.123-.818.758-.332-.332-.758.648-.516-.516-.648.493-.666-.666-.492.3-.772-.77-.3.095-.825-.825-.091-.123-.819-.818.123-.332-.76-.758.334zM12 8.5a2 2 0 0 1 2 2 2 2 0 0 1-2 2 2 2 0 0 1-2-2 2 2 0 0 1 2-2zm2.64 6.38-.343.882-.881-.346-.56.76-.76-.56-.739.587-.587-.74-.866.379-.377-.865-.527.08V20l3-2 3 2v-5.078z" opacity=".2"/>
    <path d="m12.564 5-.648.516-.666-.493-.492.666-.772-.3-.3.77-.825-.095-.091.825-.819.123.123.818-.76.332.334.76L7 9.437l.516.647-.493.666.666.492-.3.772.77.3-.093.825.823.091.123.819.82-.123.33.758.76-.332.515.648.647-.516.666.493.492-.666.772.302.3-.771.825.092.091-.823.819-.123-.123-.818.758-.332-.332-.758.648-.516-.516-.648.493-.666-.666-.492.3-.772-.77-.3.095-.825-.825-.091-.123-.819-.818.123-.332-.76-.758.334zM12 8a2 2 0 0 1 2 2 2 2 0 0 1-2 2 2 2 0 0 1-2-2 2 2 0 0 1 2-2zm2.64 6.38-.343.882-.881-.346-.56.76-.76-.56-.739.587-.587-.74-.866.379-.377-.865-.527.08V19.5l3-2 3 2v-5.078l-.36-.041z" fill="#f4f4f7"/>
</svg>
