<svg height="64" viewBox="0 0 16.933 16.933" width="64" xmlns="http://www.w3.org/2000/svg">
    <filter id="c" color-interpolation-filters="sRGB" height="1.124" width="1.116" x="-.058" y="-.062">
        <feGaussianBlur stdDeviation=".246"/>
    </filter>
    <filter id="a" color-interpolation-filters="sRGB" height="1.054" width="1.054" x="-.027" y="-.027">
        <feGaussianBlur stdDeviation=".619"/>
    </filter>
    <linearGradient id="b" gradientUnits="userSpaceOnUse" x1="1.191" x2="15.742" y1="15.74" y2="1.188">
        <stop offset="0" stop-color="#dee0e2"/>
        <stop offset="1" stop-color="#f1f3f5" stop-opacity=".996"/>
    </linearGradient>
    <linearGradient id="d" gradientUnits="userSpaceOnUse" x1="-81.49" x2="-76.144" y1="-33.072" y2="-23.812">
        <stop offset="0" stop-color="#f89f39"/>
        <stop offset="1" stop-color="#ff5f1c"/>
    </linearGradient>
    <rect fill="#141414" filter="url(#a)" height="55" opacity=".3" ry="15" transform="scale(.26458)" width="55" x="4.5" y="4.5"/>
    <rect fill="url(#b)" height="14.552" ry="3.969" width="14.552" x="1.191" y="1.191"/>
    <path d="M3.704-10.848a.926.926 0 0 0-.066.002.926.926 0 0 0-.092.011.926.926 0 0 0-.09.02.926.926 0 0 0-.087.03.926.926 0 0 0-.085.038.926.926 0 0 0-.08.046.926.926 0 0 0-.076.054.926.926 0 0 0-.069.061.926.926 0 0 0-.063.068.926.926 0 0 0-.056.073.926.926 0 0 0-.049.08.926.926 0 0 0-.04.082.926.926 0 0 0-.032.087.926.926 0 0 0-.022.09.926.926 0 0 0-.014.092.926.926 0 0 0-.005.092v6.615a.926.926 0 0 0 .002.065.926.926 0 0 0 .011.092.926.926 0 0 0 .02.09.926.926 0 0 0 .03.088.926.926 0 0 0 .038.085.926.926 0 0 0 .046.08.926.926 0 0 0 .054.075.926.926 0 0 0 .061.07.926.926 0 0 0 .068.063.926.926 0 0 0 .073.056.926.926 0 0 0 .08.048.926.926 0 0 0 .082.04.926.926 0 0 0 .087.032.926.926 0 0 0 .09.023.926.926 0 0 0 .092.014.926.926 0 0 0 .092.005h4.498a.926.926 0 0 0 .065-.002.926.926 0 0 0 .092-.012.926.926 0 0 0 .09-.02.926.926 0 0 0 .088-.03.926.926 0 0 0 .085-.037.926.926 0 0 0 .08-.046.926.926 0 0 0 .076-.054.926.926 0 0 0 .07-.06.926.926 0 0 0 .062-.07.926.926 0 0 0 .056-.072.926.926 0 0 0 .049-.08.926.926 0 0 0 .04-.083.926.926 0 0 0 .032-.087.926.926 0 0 0 .022-.09.926.926 0 0 0 .014-.09.926.926 0 0 0 .005-.093v-6.615a.926.926 0 0 0-.002-.066.926.926 0 0 0-.012-.092.926.926 0 0 0-.02-.09.926.926 0 0 0-.03-.087.926.926 0 0 0-.037-.085.926.926 0 0 0-.046-.08.926.926 0 0 0-.054-.076.926.926 0 0 0-.06-.069.926.926 0 0 0-.069-.063.926.926 0 0 0-.073-.056.926.926 0 0 0-.08-.049.926.926 0 0 0-.082-.04.926.926 0 0 0-.087-.032.926.926 0 0 0-.09-.022.926.926 0 0 0-.092-.014.926.926 0 0 0-.092-.005z" fill="#fafafa"/>
    <g fill="#f4f4f7" filter="url(#c)" transform="translate(69.955 33.758) scale(1.0922)">
        <path d="M-54.399-24.221a1.462 1.462 0 0 0-1.461 1.461 1.462 1.462 0 0 0 1.461 1.462 1.462 1.462 0 0 0 1.461-1.462 1.462 1.462 0 0 0-1.461-1.461zm.782.72.247.247-1.235 1.235-.823-.823.247-.247.576.576zM-60.174-26.034h3.952v.491h-3.952zM-60.174-24.716h3.952v.491h-3.952zM-60.174-23.399h3.952v.491h-3.952zM-60.174-22.081h3.952v.491h-3.952z"/>
    </g>
    <path d="M8.085 4.276a1.011 1.011 0 0 0-.072.002 1.011 1.011 0 0 0-.1.013 1.011 1.011 0 0 0-.098.022 1.011 1.011 0 0 0-.096.032 1.011 1.011 0 0 0-.093.041 1.011 1.011 0 0 0-.087.05 1.011 1.011 0 0 0-.083.059 1.011 1.011 0 0 0-.075.067 1.011 1.011 0 0 0-.07.074 1.011 1.011 0 0 0-.06.08 1.011 1.011 0 0 0-.054.087 1.011 1.011 0 0 0-.044.09 1.011 1.011 0 0 0-.034.095 1.011 1.011 0 0 0-.025.099 1.011 1.011 0 0 0-.015.1 1.011 1.011 0 0 0-.005.1v7.225a1.011 1.011 0 0 0 .002.071 1.011 1.011 0 0 0 .012.1 1.011 1.011 0 0 0 .022.1 1.011 1.011 0 0 0 .033.095 1.011 1.011 0 0 0 .04.093 1.011 1.011 0 0 0 .051.087 1.011 1.011 0 0 0 .059.083 1.011 1.011 0 0 0 .067.075 1.011 1.011 0 0 0 .074.07 1.011 1.011 0 0 0 .08.06 1.011 1.011 0 0 0 .086.054 1.011 1.011 0 0 0 .091.044 1.011 1.011 0 0 0 .095.034 1.011 1.011 0 0 0 .098.025 1.011 1.011 0 0 0 .1.015 1.011 1.011 0 0 0 .101.005h4.913a1.011 1.011 0 0 0 .071-.002 1.011 1.011 0 0 0 .1-.012 1.011 1.011 0 0 0 .099-.022 1.011 1.011 0 0 0 .096-.033 1.011 1.011 0 0 0 .092-.04 1.011 1.011 0 0 0 .088-.051 1.011 1.011 0 0 0 .082-.059 1.011 1.011 0 0 0 .077-.066 1.011 1.011 0 0 0 .068-.075 1.011 1.011 0 0 0 .061-.08 1.011 1.011 0 0 0 .053-.086 1.011 1.011 0 0 0 .044-.091 1.011 1.011 0 0 0 .035-.095 1.011 1.011 0 0 0 .025-.098 1.011 1.011 0 0 0 .015-.1 1.011 1.011 0 0 0 .005-.101V5.287a1.011 1.011 0 0 0-.002-.071 1.011 1.011 0 0 0-.013-.1 1.011 1.011 0 0 0-.022-.099 1.011 1.011 0 0 0-.032-.096 1.011 1.011 0 0 0-.041-.092 1.011 1.011 0 0 0-.05-.088 1.011 1.011 0 0 0-.059-.082 1.011 1.011 0 0 0-.067-.076 1.011 1.011 0 0 0-.074-.07 1.011 1.011 0 0 0-.08-.06 1.011 1.011 0 0 0-.087-.053 1.011 1.011 0 0 0-.09-.044 1.011 1.011 0 0 0-.095-.035 1.011 1.011 0 0 0-.098-.025 1.011 1.011 0 0 0-.1-.015 1.011 1.011 0 0 0-.101-.005z" fill="#fcc105"/>
    <path d="M10.54 7.304A1.596 1.596 0 0 0 8.944 8.9a1.596 1.596 0 0 0 1.596 1.596A1.596 1.596 0 0 0 12.137 8.9a1.596 1.596 0 0 0-1.597-1.596zm.854.786.27.27-1.348 1.349-.9-.9.27-.269.63.63z" fill="#f4f4f7"/>
    <path d="M-81.49-32.808a.926.926 0 0 0-.066.002.926.926 0 0 0-.092.011.926.926 0 0 0-.09.02.926.926 0 0 0-.087.03.926.926 0 0 0-.085.038.926.926 0 0 0-.08.046.926.926 0 0 0-.076.054.926.926 0 0 0-.069.061.926.926 0 0 0-.063.068.926.926 0 0 0-.056.073.926.926 0 0 0-.049.08.926.926 0 0 0-.04.082.926.926 0 0 0-.032.087.926.926 0 0 0-.022.09.926.926 0 0 0-.014.092.926.926 0 0 0-.005.092v6.615a.926.926 0 0 0 .002.065.926.926 0 0 0 .011.092.926.926 0 0 0 .02.09.926.926 0 0 0 .03.088.926.926 0 0 0 .038.085.926.926 0 0 0 .046.08.926.926 0 0 0 .053.075.926.926 0 0 0 .062.07.926.926 0 0 0 .068.063.926.926 0 0 0 .073.056.926.926 0 0 0 .08.048.926.926 0 0 0 .082.04.926.926 0 0 0 .087.032.926.926 0 0 0 .09.023.926.926 0 0 0 .091.014.926.926 0 0 0 .093.005h4.498a.926.926 0 0 0 .065-.002.926.926 0 0 0 .092-.012.926.926 0 0 0 .09-.02.926.926 0 0 0 .088-.03.926.926 0 0 0 .085-.037.926.926 0 0 0 .08-.046.926.926 0 0 0 .075-.054.926.926 0 0 0 .07-.06.926.926 0 0 0 .063-.07.926.926 0 0 0 .056-.072.926.926 0 0 0 .049-.08.926.926 0 0 0 .04-.083.926.926 0 0 0 .031-.087.926.926 0 0 0 .023-.09.926.926 0 0 0 .014-.09.926.926 0 0 0 .005-.093v-6.615a.926.926 0 0 0-.002-.066.926.926 0 0 0-.012-.092.926.926 0 0 0-.02-.09.926.926 0 0 0-.03-.087.926.926 0 0 0-.037-.085.926.926 0 0 0-.046-.08.926.926 0 0 0-.054-.076.926.926 0 0 0-.06-.069.926.926 0 0 0-.069-.063.926.926 0 0 0-.073-.056.926.926 0 0 0-.08-.049.926.926 0 0 0-.083-.04.926.926 0 0 0-.086-.032.926.926 0 0 0-.09-.022.926.926 0 0 0-.092-.014.926.926 0 0 0-.092-.005z" fill="url(#d)" transform="translate(92.938 38.96) scale(1.0922)"/>
    <g fill="#f4f4f7">
        <path d="M4.233 5.324H8.55v.536H4.233zM4.233 6.763H8.55V7.3H4.233zM4.233 8.202H8.55v.536H4.233zM4.233 9.641H8.55v.536H4.233z"/>
    </g>
</svg>
