<svg height="24" width="24" xmlns="http://www.w3.org/2000/svg"><rect height="20" opacity=".2" rx="1" width="20" x="2" y="2.5"/><rect fill="#57a534" height="20" rx="1" width="20" x="2" y="2"/><path d="m3 2c-.554 0-1 .446-1 1v.5c0-.554.446-1 1-1h18c.554 0 1 .446 1 1v-.5c0-.554-.446-1-1-1z" fill="#f4f4f7" opacity=".2"/><path d="m3.05 9.5v1h5.95v-1zm6.95 0v1h10v4h1v-5zm-7 2v1h2v2h1v-3zm4 0v3h1v-2h1v-1zm3 0v3h1v-3zm2 0v3h1v-2h1v2h1v-3zm4 0v3h1v-2h1v2h1v-3z" opacity=".2"/><path d="m3.05 9v1h5.95v-1zm6.95 0v1h10v4h1v-5zm-7 2v1h2v2h1v-3zm4 0v3h1v-2h1v-1zm3 0v3h1v-3zm2 0v3h1v-2h1v2h1v-3zm4 0v3h1v-2h1v2h1v-3z" fill="#f4f4f7"/></svg>