<svg xmlns="http://www.w3.org/2000/svg" width="24" height="24" version="1"><path style="opacity:.2" d="M11.906 2.5c-.048 0-.17.063-.272.14-.244.184-1.413.909-1.82 1.128l-.32.172-.302-.06a3.88 3.88 0 0 0-.36-.059c-.032 0-.18.099-.331.22-.319.257-.653.514-.818.514a.55.55 0 0 1-.236-.074.504.504 0 0 0-.206-.073c-.114 0-1.4.64-1.764.877-.28.183-.561.404-.998.784-.244.212-.343.395-.462.85-.148.57-.062 1.09.25 1.315.178.128.451.426.571.621.097.157.12.166.42.167h.266l.472-.414c.46-.447 1.016-.625 1.624-.593.76.039.831.364.885.888-.027.322-.1.51-.288.727-.119.138-.125.139-.544.19-.233.029-1.396.186-2.34.348-.944.162-1.75.295-1.79.295-.05 0-.136-.096-.28-.31-.227-.342-.325-.403-.483-.3-.236.155-.57.748-.706 1.252-.107.4-.096 1.475.019 2.013.152.71.44 1.532.815 2.325.17.358.249.444.314.34.013-.022.038-.38.056-.799.045-1.034.13-1.77.237-2.025.155-.372.154-.406-.029-.781-.19-.392-.233-.535-.165-.559.026-.009.519-.033 1.096-.054 1.24-.044 1.703-.084 2.31-.205.533-.106.611-.109.693-.027.065.064.064.108-.004.818-.032.333.058.588.385 1.095s.522.924.687 1.467c.147.48.154.568.053.668-.24.239-.106-.063-1.011-1.25-.703-.922-.901-1.136-1.053-1.136-.248 0-.63.361-1.028.973-.242.371-.346.58-.693 1.383-.37.86-.444 1.093-.605 1.938-.124.652-.135.77-.133 1.321.003.619.054 1.294.237 2.586.067.472.121.742.153.763.094.061.316-.255.634-.9.605-1.231.887-2.167.964-2.834.094-.814.28-1.467.554-1.955.13-.231.328-.486.379-.486.015 0 .107.128.206.284.226.358.245.698.434.784.104.046.195.06.32.044l.173-.02.046.15c.04.132.034.196-.044.51-.118.48-.117 1.044 0 1.799.097.619.123.704.224.704.144 0 .531-.474.768-.94.041-.082.184-.514.317-.959.272-.912.562-1.623.612-1.674.021-.021.185.037.43.152.391.185.204.188.889.27.53.065.7.097.723.141.017.032.083.322.148.645.407 2.04.887 3.873 1.145 4.234.122.17.2.138.342-.143.166-.33.656-1.477 1.179-2.762.234-.575.447-1.187.473-1.237.041-.078.084-.096.286-.119.756-.085.404-.11.568-.171.248-.094.443-.257.667-.557.104-.14.201-.254.217-.254.033 0 .28.554.441.991.189.51.33 1.055.388 1.504.03.233.081.505.114.606.194.594.734 1.404 1.573 2.358.182.207.352.376.377.376.053 0 .095-.139.309-.991.137-.549.18-.657.444-1.163l.292-.559v-.709c0-1.458-.187-2.861-.517-3.884-.228-.702-.68-1.468-1.104-1.939-.316-.35-.483-.385-.66-.137-.095.132-.21.442-.245.66-.014.085-.048.163-.077.174-.032.013-.13.048-.244-.063-.39-.38-.732-.513-.85-.33-.028.045-.103.214-.165.375-.146.377-.311.512-.429.588-.138.09.132.05-.19-.098-.24-.11-.27-.137-.386-.344-.187-.332-.217-.525-.167-1.059.023-.246.045-.537.05-.77l.006-.421-.156-.28a11.393 11.393 0 0 0-.488-.753c-.182-.259-.331-.486-.331-.504 0-.018.18-.021.415-.007.23.014.525.008.665-.012l.25-.036.453-.47c.882-.918 1.12-1.235 1.153-1.535a.365.365 0 0 0-.073-.303c-.147-.22-.348-.404-.467-.43-.172-.038-1.646.395-2.073.609-.395.198-.766.125-1.176-.23-.3-.26-1.038-.84-1.994-1.522-.733-.523-.934-.708-.875-.803.024-.038.184-.103.404-.164.706-.197 1.075-.327 1.149-.407.087-.093.339-.963.339-1.17 0-.112-.031-.174-.155-.314-.55-.617-.992-.999-1.156-.999z"/><path style="fill:#4f4f4f" d="M11.906 2c-.048 0-.17.063-.272.14-.244.184-1.413.909-1.82 1.128l-.32.172-.302-.06a3.88 3.88 0 0 0-.36-.059c-.032 0-.18.099-.331.22-.319.257-.653.514-.818.514a.55.55 0 0 1-.236-.074.504.504 0 0 0-.206-.073c-.114 0-1.4.64-1.764.877-.28.183-.561.404-.998.784-.244.212-.343.395-.462.85-.148.57-.062 1.09.25 1.315.178.128.451.426.571.621.097.157.12.166.42.167h.266l.472-.414c.46-.447 1.016-.625 1.624-.593.76.039.831.364.885.888-.027.322-.1.51-.288.727-.119.138-.125.139-.544.19-.233.029-1.396.186-2.34.348-.944.162-1.75.295-1.79.295-.05 0-.136-.096-.28-.31-.227-.342-.325-.403-.483-.3-.236.155-.57.748-.706 1.252-.107.4-.096 1.475.019 2.013.152.71.44 1.532.815 2.325.17.358.249.444.314.34.013-.022.038-.38.056-.799.045-1.034.13-1.77.237-2.025.155-.372.154-.406-.029-.781-.19-.392-.233-.535-.165-.559.026-.009.519-.033 1.096-.054 1.24-.044 1.703-.084 2.31-.205.533-.106.611-.109.693-.027.065.064.064.108-.004.818-.032.333.058.588.385 1.095s.522.924.687 1.467c.147.48.154.568.053.668-.24.239-.106-.063-1.011-1.25-.703-.922-.901-1.136-1.053-1.136-.248 0-.63.361-1.028.973-.242.371-.346.58-.693 1.383-.37.86-.444 1.093-.605 1.938-.124.652-.135.77-.133 1.321.003.619.054 1.294.237 2.586.067.472.121.742.153.763.094.061.316-.255.634-.9.605-1.231.887-2.167.964-2.834.094-.814.28-1.467.554-1.955.13-.231.328-.486.379-.486.015 0 .107.128.206.284.226.358.245.698.434.784.104.046.195.06.32.044l.173-.02.046.15c.04.132.034.196-.044.51-.118.48-.117 1.044 0 1.799.097.619.123.704.224.704.144 0 .531-.474.768-.94.041-.082.184-.514.317-.959.272-.912.562-1.623.612-1.674.021-.021.185.037.43.152.391.185.204.188.889.27.53.065.7.097.723.141.017.032.083.322.148.645.407 2.04.887 3.873 1.145 4.234.122.17.2.138.342-.143.166-.33.656-1.477 1.179-2.762.234-.575.447-1.187.473-1.237.041-.078.084-.096.286-.119.756-.085.404-.11.568-.171.248-.094.443-.257.667-.557.104-.14.201-.254.217-.254.033 0 .28.554.441.991.189.51.33 1.055.388 1.504.03.233.081.505.114.606.194.594.734 1.404 1.573 2.358.182.207.352.376.377.376.053 0 .095-.139.309-.991.137-.549.18-.657.444-1.163l.292-.559v-.709c0-1.458-.187-2.861-.517-3.884-.228-.702-.68-1.468-1.104-1.939-.316-.35-.483-.385-.66-.137-.095.132-.21.442-.245.66-.014.085-.048.163-.077.174-.032.013-.13.048-.244-.063-.39-.38-.732-.513-.85-.33-.028.045-.103.214-.165.375-.146.377-.311.512-.429.588-.138.09.132.05-.19-.098-.24-.11-.27-.137-.386-.344-.187-.332-.217-.525-.167-1.059.023-.246.045-.537.05-.77l.006-.421-.156-.28a11.393 11.393 0 0 0-.488-.753c-.182-.259-.331-.486-.331-.504 0-.018.18-.021.415-.007.23.013.525.008.665-.012l.25-.036.453-.47c.882-.918 1.12-1.235 1.153-1.535a.365.365 0 0 0-.073-.303c-.147-.22-.348-.404-.467-.43-.172-.038-1.646.395-2.073.609-.395.198-.766.125-1.176-.23-.3-.26-1.038-.84-1.994-1.522-.733-.523-.934-.708-.875-.803.024-.038.184-.103.404-.164.706-.197 1.075-.327 1.149-.407.087-.093.339-.963.339-1.17 0-.112-.031-.174-.155-.314-.55-.617-.992-.999-1.156-.999z"/><path style="opacity:.2" d="M4.5 6.5c.878.407.537 1.02-.355 1.594.038.05.073.104.123.14.169.123.417.396.545.59.409-.34 1.044-.745 1.156-1.266.143-.664.11-1.078-1.469-1.058z"/><path style="fill:#f4f4f7" d="M4.5 6c.878.407.537 1.021-.355 1.594.038.05.073.104.123.14.169.123.417.396.545.59.409-.34 1.044-.745 1.156-1.265C6.112 6.394 6.079 5.98 4.5 6z"/><path style="fill:#f4f4f7;opacity:.1" d="M11.906 2c-.048 0-.17.064-.271.14-.244.185-1.415.909-1.82 1.128l-.32.173-.302-.06a3.75 3.75 0 0 0-.361-.059c-.032 0-.18.098-.33.219-.319.257-.653.514-.818.514a.547.547 0 0 1-.237-.073.511.511 0 0 0-.207-.074c-.114 0-1.4.64-1.763.877-.28.183-.561.405-.998.785-.244.212-.343.394-.461.85a1.84 1.84 0 0 0-.047.789c.011-.095.02-.19.047-.29.118-.455.217-.637.46-.849.438-.38.719-.602.999-.785.364-.238 1.65-.877 1.763-.877.048 0 .141.034.207.074.067.04.173.073.237.073.165 0 .5-.257.818-.514.15-.121.298-.219.33-.219.032 0 .196.026.361.059l.301.06.32-.173c.406-.22 1.577-.943 1.82-1.127.102-.077.224-.141.272-.141.164 0 .607.381 1.156.998.045.05.065.083.088.12.024-.108.067-.255.067-.305 0-.113-.03-.175-.155-.315C12.514 2.381 12.07 2 11.906 2zm-.27 3.426c-.145.047-.291.097-.31.127-.06.095.142.281.875.804.956.682 1.693 1.262 1.992 1.522.41.355.782.428 1.176.23.427-.214 1.902-.647 2.074-.609.12.026.32.21.467.43l.01.017a.751.751 0 0 0 .062-.215c.016-.134.003-.19-.072-.302-.147-.22-.347-.404-.467-.43-.172-.038-1.647.395-2.074.61-.394.197-.766.124-1.176-.231-.299-.26-1.036-.84-1.992-1.522a9.132 9.132 0 0 1-.564-.431zm-3.175 3.19a1.082 1.082 0 0 1-.244.515c-.119.137-.125.138-.545.19-.233.028-1.394.185-2.338.347-.944.162-1.751.295-1.791.295-.05 0-.136-.096-.28-.31-.227-.342-.324-.403-.482-.3-.236.155-.572.748-.707 1.252-.062.234-.081.697-.066 1.15.008-.263.028-.505.066-.65.135-.504.471-1.097.707-1.251.158-.104.255-.043.483.298.143.215.23.31.279.31.04 0 .847-.132 1.791-.294a63.615 63.615 0 0 1 2.338-.348c.42-.051.426-.052.545-.19.188-.217.26-.404.287-.726-.011-.106-.025-.2-.043-.289zm6.91 1.671c-.16-.005-.324-.009-.324.006 0 .018.148.245.33.504.182.259.402.598.488.752l.147.264c0-.02.003-.043.004-.061l.005-.422-.156-.281a11.395 11.395 0 0 0-.488-.752l-.006-.01zm-7.934 1.104c-.008.094-.007.118-.021.26-.01.105-.002.206.016.306.032-.357.034-.513.005-.566zm-3.978.222c-.017.002-.134.005-.137.006-.068.024-.027.167.164.559.04.08.038.114.06.17.095-.248.097-.349-.06-.67-.014-.03-.014-.037-.027-.065zm15.537.848c-.103-.022-.189.032-.277.156-.095.133-.21.444-.244.662-.014.085-.05.163-.079.174-.031.012-.127.047-.242-.064-.39-.38-.732-.513-.85-.33a3.21 3.21 0 0 0-.165.375c-.146.377-.313.513-.43.59-.138.09.132.048-.19-.1-.24-.11-.27-.137-.386-.344a1.302 1.302 0 0 1-.168-.445c-.031.43-.001.644.168.945.116.207.146.233.387.344.321.148.05.19.189.1.117-.077.284-.213.43-.59a3.21 3.21 0 0 1 .166-.375c.117-.183.459-.05.85.33.114.11.21.076.241.064.03-.011.065-.09.079-.174.035-.218.149-.529.244-.662.177-.248.344-.212.66.139.423.47.876 1.237 1.103 1.94.331 1.022.518 2.424.518 3.882v-.5c0-1.458-.187-2.86-.518-3.883-.227-.702-.68-1.468-1.103-1.94-.158-.175-.28-.273-.383-.294zm-12.52.033c-.247 0-.628.361-1.027.973-.242.371-.347.58-.693 1.383-.371.86-.445 1.094-.606 1.94-.124.651-.135.768-.132 1.32 0 .057.008.135.01.195.007-.3.029-.524.122-1.016.161-.845.235-1.08.606-1.94.346-.803.451-1.011.693-1.382.4-.612.78-.973 1.028-.973.151 0 .35.215 1.052 1.137.905 1.187.772 1.489 1.012 1.25.082-.082.07-.207-.01-.494-.222.214-.114-.092-1.002-1.256-.703-.922-.9-1.137-1.052-1.137zm1.618 4.45c-.008.035-.009.046-.02.091-.075.307-.083.673-.062 1.076.012-.2.02-.402.062-.576.078-.314.085-.378.045-.51l-.025-.082z"/></svg>