<svg width="24" height="24" xmlns="http://www.w3.org/2000/svg"><path style="fill:#4d4d4d" d="M7 6h10v6H7z"/><path style="fill:#25257e" d="M7.5 11h9v9.5h-9z"/><path style="fill:#3455b3" d="M7 6h1v14.5H7z"/><rect x="11" y="2" width="2" height="3" ry="1" style="fill:#f6e036"/><path style="fill:#3455b3" d="M16 6h1v15h-1zM7 5.5v-1s.5 0 .5-.5h9c0 .5.5.5.5.5v1z"/><path d="M6.5 5.5c-.277 0-.5.223-.5.5v1c0 .277.223.5.5.5h11c.277 0 .5-.223.5-.5V6c0-.277-.223-.5-.5-.5h-11zm0 15c-.277 0-.5.223-.5.5v1c0 .277.223.5.5.5h11c.277 0 .5-.223.5-.5v-1c0-.277-.223-.5-.5-.5h-11z" style="opacity:.2"/><rect x="6" y="5" width="12" height="2" ry=".5" style="fill:#01a7f1"/><rect x="6" y="20" width="12" height="2" ry=".5" style="fill:#01a7f1"/><path d="M9 8.5v2h6v-2H9zm.5 3c-.277 0-.5.223-.5.5v1c0 .277.223.5.5.5h1c.277 0 .5-.223.5-.5v-1c0-.277-.223-.5-.5-.5h-1zm4 0c-.277 0-.5.223-.5.5v1c0 .277.223.5.5.5h1c.277 0 .5-.223.5-.5v-1c0-.277-.223-.5-.5-.5h-1zm-4 3c-.277 0-.5.223-.5.5v1c0 .277.223.5.5.5h1c.277 0 .5-.223.5-.5v-1c0-.277-.223-.5-.5-.5h-1zm4 0c-.277 0-.5.223-.5.5v1c0 .277.223.5.5.5h1c.277 0 .5-.223.5-.5v-1c0-.277-.223-.5-.5-.5h-1zm-4 3c-.277 0-.5.223-.5.5v1c0 .277.223.5.5.5h1c.277 0 .5-.223.5-.5v-1c0-.277-.223-.5-.5-.5h-1zm4 0c-.277 0-.5.223-.5.5v1c0 .277.223.5.5.5h1c.277 0 .5-.223.5-.5v-1c0-.277-.223-.5-.5-.5h-1z" style="opacity:.2"/><rect x="9" y="11" width="2" height="2" ry=".5" style="fill:#f4f4f7"/><rect x="9" y="14" width="2" height="2" ry=".5" style="fill:#01a7f1"/><rect x="9" y="17" width="2" height="2" ry=".5" style="fill:#01a7f1"/><rect x="13" y="11" width="2" height="2" ry=".5" style="fill:#01a7f1"/><rect x="13" y="14" width="2" height="2" ry=".5" style="fill:#01a7f1"/><rect x="13" y="17" width="2" height="2" ry=".5" style="fill:#01a7f1"/><path style="fill:#f6e036" d="M9 8h6v2H9z"/><path d="M6.5 5c-.277 0-.5.223-.5.5V6c0-.277.223-.5.5-.5h11c.277 0 .5.223.5.5v-.5c0-.277-.223-.5-.5-.5h-11zm0 15c-.277 0-.5.223-.5.5v.5c0-.277.223-.5.5-.5h11c.277 0 .5.223.5.5v-.5c0-.277-.223-.5-.5-.5h-11zM12 2c-.554 0-1 .446-1 1v.5c0-.554.446-1 1-1s1 .446 1 1V3c0-.554-.446-1-1-1z" style="fill:#f4f4f7;opacity:.2"/><path d="M7.5 4c0 .5-.5.5-.5.5V5s.5 0 .5-.5h9c0 .5.5.5.5.5v-.5s-.5 0-.5-.5h-9z" style="fill:#f4f4f7;opacity:.1"/></svg>