<svg xmlns="http://www.w3.org/2000/svg" width="24" height="24" version="1"><rect style="opacity:.2" width="18" height="18" x="-21.5" y="-20.5" rx="9" ry="9" transform="matrix(0 -1 -1 0 0 0)"/><rect style="fill:#d83b2f" width="18" height="18" x="-21" y="-20.5" rx="9" ry="9" transform="matrix(0 -1 -1 0 0 0)"/><circle style="opacity:.2" cx="11.5" cy="12.5" r="5"/><path style="opacity:.1;fill:#f4f4f7" d="M11.5 3a8.98 8.98 0 0 0-9 9c0 .084.01.166.013.25A8.973 8.973 0 0 1 11.5 3.5a8.973 8.973 0 0 1 8.987 8.75c.003-.084.013-.166.013-.25 0-4.986-4.014-9-9-9z"/><circle style="fill:#f4f4f7" cx="11.5" cy="12" r="5"/><rect style="opacity:.2" width="21" height="4" x="1" y="10.5" rx="1" ry="1"/><rect style="fill:#3a72e1" width="21" height="4" x="1" y="10" rx="1" ry="1"/></svg>