<svg height="24" width="24" xmlns="http://www.w3.org/2000/svg">
    <circle cx="12" cy="12.5" opacity=".2" r="10"/>
    <circle cx="12" cy="12" fill="#a43b84" r="10"/>
    <path d="M8 7.5v6s0 4 3 4h5v-10h-2v8h-2.5c-1.5 0-1.5-2-1.5-2v-6z" opacity=".2"/>
    <path d="M8 7v6s0 4 3 4h5V7h-2v8h-2.5C10 15 10 13 10 13V7z" fill="#f4f4f7"/>
    <path d="M12 2A10 10 0 0 0 2 12a10 10 0 0 0 0 .293A10 10 0 0 1 12 2.5a10 10 0 0 1 10 9.707A10 10 0 0 0 22 12 10 10 0 0 0 12 2z" fill="#f4f4f7" opacity=".1"/>
    <circle cx="18" cy="18" fill="#42a1cd" r="5"/>
    <path d="m17.244 15-.067.79a2.378 2.357 0 0 0-.695.399l-.724-.339-.757 1.3.658.452a2.378 2.357 0 0 0-.037.398 2.378 2.357 0 0 0 .035.399l-.657.452.757 1.299.723-.337a2.378 2.357 0 0 0 .697.395l.066.792h1.514l.066-.79a2.378 2.357 0 0 0 .696-.398l.724.338.757-1.299-.658-.453a2.378 2.357 0 0 0 .036-.398 2.378 2.357 0 0 0-.034-.399l.656-.45-.757-1.3-.723.338a2.378 2.357 0 0 0-.696-.396l-.067-.792h-1.513zm.757 2.143a.865.857 0 0 1 .864.857.865.857 0 0 1-.865.857.865.857 0 0 1-.865-.857.865.857 0 0 1 .865-.857z" fill="#f4f4f7"/>
</svg>
