<svg height="24" width="24" xmlns="http://www.w3.org/2000/svg"><path d="m3 3c-.554 0-1 .446-1 1v12h20v-12c0-.554-.446-1-1-1z" fill="#ff766a"/><path d="m16 7.5a3 3 0 1 1 0 6 3 3 0 0 1 0-6z" fill-rule="evenodd" opacity=".2"/><path d="m16 7a3 3 0 1 1 0 6 3 3 0 0 1 0-6z" fill="#fffee4" fill-rule="evenodd"/><path d="m3 3c-.553 0-1 .446-1 1v.5c0-.554.447-1 1-1h18c.553 0 1 .446 1 1v-.5c0-.554-.447-1-1-1z" fill="#fff" opacity=".2"/><path d="m2 16v4c0 .554.446 1 1 1h18c.553 0 1-.446 1-1v-4z" fill="#d22f7a"/><path d="m2 20v.5c0 .554.446 1 1 1h18c.553 0 1-.446 1-1v-.5c0 .554-.447 1-1 1h-18c-.554 0-1-.446-1-1z" opacity=".2"/><path d="m2 16v-.571s1.443-.953 1.848-1.036c.406-.083.885-.015 1.377.078.492.092 1.226.217 1.456.225.229.008.644-.02 1.126-.049s1.28-.055 1.53-.052c.248 0 .87.034 1.533.075.662.04 1.572.108 1.779.127.206.019.449.054.724.092.276.037.753.094.921.11.17.015.56.07 1.014.111.454.042 1.18.056 1.39.04.21-.015.649-.17 1.139-.313s1.03-.274 1.44-.242c.412.032 2.723.833 2.723.833v.571h-17.57z"/><circle cx="19" cy="17.5" opacity=".2" r="5"/><circle cx="19" cy="17" fill="#7bbe4d" opacity=".97" r="5"/><g fill="#fff" transform="translate(2)"><rect height="6" rx=".296" ry=".388" width="2" x="16" y="15"/><path d="m17 13 1.5 2 1.5 2h-6l1.5-2z"/></g></svg>