<svg height="24" width="24" xmlns="http://www.w3.org/2000/svg"><path d="m2 5.9v14.1c0 .554.446 1 1 1h18c.555 0 1-.445 1-1v-14.1z" fill="#17191e"/><path d="m12 5.5v15.5h9.001a.997.997 0 0 0 .999-1v-14.5z" fill="#4f4f4f"/><path d="m3 3c-.554 0-1 .446-1 1v2h20v-2c0-.554-.445-1-1-1z" fill="#c8c8c8"/><path d="m3 3c-.554 0-1 .446-1 1v.5c0-.554.446-1 1-1h18c.554 0 1 .446 1 1v-.5c0-.554-.445-1-1-1z" fill="#f4f4f7" opacity=".2"/><path d="m2 20v.5c0 .554.446 1 1 1h18.001a.997.997 0 0 0 .999-1v-.5c0 .554-.445 1-.999 1h-18.001c-.554 0-1-.445-1-1zm0-14h20v.5h-20zm11.674 3.5-2.71 5.928-2.494-4.928h-1.68l3.541 6.996 1.352-.027 3.641-7.969zm2.326 2v1h1v-1zm0 2v4h1v-4z" opacity=".2"/><path d="m13.674 9-2.71 5.928-2.494-4.928h-1.68l3.541 6.996 1.352-.027 3.641-7.969zm2.326 2v1h1v-1zm0 2v4h1v-4z" fill="#1b6cff"/></svg>