<svg height="64" viewBox="0 0 16.933 16.933" width="64" xmlns="http://www.w3.org/2000/svg">
    <filter id="a" color-interpolation-filters="sRGB" height="1.054" width="1.054" x="-.027" y="-.027">
        <feGaussianBlur stdDeviation=".619"/>
    </filter>
    <linearGradient id="b" gradientUnits="userSpaceOnUse" x1="3.684" x2="18.236" y1="22.201" y2="7.649">
        <stop offset="0" stop-color="#02db96"/>
        <stop offset="1" stop-color="#13d39b"/>
    </linearGradient>
    <filter id="c" color-interpolation-filters="sRGB" height="1.136" width="1.107" x="-.054" y="-.068">
        <feGaussianBlur stdDeviation=".815"/>
    </filter>
    <linearGradient id="d" gradientUnits="userSpaceOnUse" x1="10.961" x2="10.961" y1="11.131" y2="18.724">
        <stop offset="0" stop-color="#fbfbfb"/>
        <stop offset="1" stop-color="#c4e4de"/>
    </linearGradient>
    <g transform="translate(-2.494 -6.461)">
        <rect fill="#141414" filter="url(#a)" height="55" opacity=".3" ry="15" transform="translate(2.494 6.461) scale(.26458)" width="55" x="4.5" y="4.5"/>
        <rect fill="url(#b)" height="14.552" ry="3.969" width="14.552" x="3.684" y="7.652"/>
        <path d="m10.961 10.096 4.832 4.832-4.832 4.831-4.832-4.832z" opacity=".25"/>
        <path d="m14.392 17.652-.652.652v1.304l.652.653h1.956v25.435l.653.652h1.956l28.696-26.74v-1.303l-.652-.653H35.262l-.652.653v1.304l.652.652h1.957v1.304L22.87 34.608V20.26h1.956l.652-.652v-1.304l-.652-.652zm20.08 15.652-.925.652-.438 1.304.49.653h1.41l.925-.653.436-1.304-.487-.652m-4.795 3.913-.392 1.304h1.174l-2.479 6.522h3.913l.482-1.304h-1.134l2.479-6.522m1.563 0-.456 1.304h.978l-2.478 6.522h3.327l.457-1.304h-.719l1.371-3.913h2.772l-1.86 5.217h3.26l.522-1.304h-.716l1.369-3.913h2.608l-1.826 5.217h3.419l.599-1.304h-.912l1.852-5.217-1.045-1.305h-1.564l-1.304 1.305h-1.109l-1.11-1.305h-1.238l-1.239 1.305h-1.304l-1.174-1.305" filter="url(#c)" opacity=".25" transform="translate(2.494 6.461) scale(.26458)"/>
        <path d="m6.302 11.131-.173.173v.345l.173.172h.517v6.73l.173.172h.517l7.593-7.074v-.345l-.173-.173h-3.106l-.172.173v.345l.172.172h.518v.345l-3.796 3.451v-3.796h.517l.173-.173v-.345l-.173-.172zm5.312 4.141-.244.173-.116.345.13.172h.372l.245-.172.115-.345-.128-.173m-1.269 1.036-.104.345h.31l-.655 1.725h1.035l.128-.345h-.3l.656-1.726m.413 0-.12.346h.258l-.655 1.725h.88l.12-.345h-.19l.363-1.035h.734l-.492 1.38h.862l.138-.345h-.19l.363-1.035h.69l-.483 1.38h.905l.158-.345h-.241l.49-1.38-.277-.345h-.413l-.346.345h-.293l-.294-.345h-.327l-.328.345h-.345l-.31-.345" fill="url(#d)"/>
    </g>
</svg>
