<svg xmlns="http://www.w3.org/2000/svg" width="24" height="24" version="1">
    <g transform="translate(1 1)">
        <rect fill="#4899d7" width="20" height="19.998" x="-21" y="-21" rx="10" ry="9.999" transform="matrix(0 -1 -1 0 0 0)"/>
        <path fill="#f4f4f7" opacity=".2" d="M11 1C5.46 1 1 5.46 1 11v.25C1.134 5.827 5.545 1.5 11 1.5s9.867 4.327 10 9.75V11c0-5.54-4.46-10-10-10z"/>
        <path opacity=".2" d="M16.999 5.5s-1.8-.05-3.598.85c-.55.25-1.149.65-1.649 1.15-.807.807-2.063 2.295-3.051 3.497H6.506l-1 1.5 1.696.458c.005.06.02.146.068.261l-.264.58s-.1.199.65.999c.8.8 1.05.7 1.05.7l.62-.283a.731.731 0 0 0 .207.04l.471 1.741 1.5-1v-2.261c1.21-.98 2.695-2.21 3.497-2.985.5-.5.9-1.1 1.199-1.65C17.049 7.3 17 5.5 17 5.5zm-3.498 4.498c-.55 0-.999-.45-.999-1s.45-.999 1-.999c.549 0 .999.45.999 1s-.45.999-1 .999zm-5.246 5.996c.1.05.15.1.25.15-.1.1-.2.25-.3.35-1.15 1.149-3.198 1-3.198 1s-.15-2.05 1-3.198c.1-.1.25-.2.35-.3.05.1.099.15.15.25-.75.948-.65 2.398-.65 2.398s1.448.1 2.398-.65z"/>
        <path fill="#ffca68" d="M16.998 5s-1.797-.05-3.596.85A5.82 5.82 0 0 0 11.752 7c-.808.808-2.062 2.296-3.05 3.498H6.505l-1 1.498 1.695.459a.89.89 0 0 0 .069.262l-.264.578s-.099.2.65 1c.8.8 1.05.7 1.05.7l.62-.282a.738.738 0 0 0 .207.039l.471 1.742 1.5-1v-2.262c1.211-.979 2.695-2.21 3.496-2.986.5-.5.9-1.098 1.2-1.648C17.047 6.8 16.997 5 16.997 5zM6.356 13.496c-.1.1-.25.2-.35.3-1.149 1.15-.998 3.198-.998 3.198s2.048.15 3.198-1c.1-.1.199-.25.298-.35-.1-.05-.15-.1-.25-.15-.95.75-2.396.65-2.396.65s-.101-1.449.648-2.398c-.05-.1-.1-.15-.15-.25z"/>
        <path opacity=".2" d="M13.501 9.998c-.55 0-1-.45-1-1s.45-.999 1-.999 1 .45 1 1-.45.999-1 .999z"/>
        <path fill="#f4f4f7" d="M13.501 9.498c-.55 0-1-.45-1-1s.45-.999 1-.999 1 .45 1 1-.45.999-1 .999z"/>
        <path opacity=".2" d="M1.007 11.25c-.002.084-.006.166-.006.25 0 5.54 4.46 10 9.999 10s10-4.46 10-10c0-.084-.005-.167-.007-.25A9.975 9.975 0 0 1 11 21a9.975 9.975 0 0 1-9.993-9.75z"/>
    </g>
</svg>
