<svg xmlns="http://www.w3.org/2000/svg" width="24" height="24"><path style="opacity:.2" d="M6.52 2.5A4.51 4.51 0 0 0 2 7.02v10.96a4.51 4.51 0 0 0 4.52 4.52h10.96A4.51 4.51 0 0 0 22 17.98V7.02a4.51 4.51 0 0 0-4.52-4.52z"/><path style="fill:#515e6f" d="M6.52 2A4.51 4.51 0 0 0 2 6.52v10.96a4.5 4.5 0 0 0 1.204 3.07h17.592A4.5 4.5 0 0 0 22 17.48V6.52A4.51 4.51 0 0 0 17.48 2z"/><path style="opacity:.2" d="M12.75 8.5a3.25 3.25 0 0 0-2.587 1.29A2.5 2.5 0 0 0 9 9.5 2.5 2.5 0 0 0 6.5 12a2.5 2.5 0 0 0 .056.513A1.75 1.75 0 0 0 5 14.25 1.75 1.75 0 0 0 6.75 16a1.75 1.75 0 0 0 .972-.296 2.216 2.216 0 0 1-.222-.954c0-1.182.933-2.134 2.095-2.219C9.829 11.111 11.015 10 12.5 10a.5.5 0 0 0 .001 0c.91.001 1.711.471 2.275 1.167.238-.074.473-.166.723-.167a.5.5 0 0 0 .001 0c.143 0 .283.015.419.04A3.25 3.25 0 0 0 12.75 8.5zm-.25 2A2.5 2.5 0 0 0 10 13a2.5 2.5 0 0 0 .001.02A1.75 1.75 0 0 0 9.75 13 1.75 1.75 0 0 0 8 14.75a1.75 1.75 0 0 0 1.75 1.75h7.75A1.5 1.5 0 0 0 19 15a1.5 1.5 0 0 0-1.5-1.5 2 2 0 0 0-2-2 2 2 0 0 0-.867.2 2.5 2.5 0 0 0-2.133-1.2z"/><path style="fill:#f4f4f7" d="M12.75 8a3.25 3.25 0 0 0-2.587 1.29A2.5 2.5 0 0 0 9 9a2.5 2.5 0 0 0-2.5 2.5 2.5 2.5 0 0 0 .056.513A1.75 1.75 0 0 0 5 13.75a1.75 1.75 0 0 0 1.75 1.75 1.75 1.75 0 0 0 .972-.296 2.216 2.216 0 0 1-.222-.954c0-1.182.933-2.134 2.095-2.219.234-1.42 1.42-2.531 2.905-2.531a.5.5 0 0 0 .001 0c.91.001 1.711.471 2.275 1.167.238-.074.473-.166.723-.167a.5.5 0 0 0 .001 0c.143 0 .283.015.419.04A3.25 3.25 0 0 0 12.75 8z"/><path style="fill:#f4f4f7" d="M12.5 10a2.5 2.5 0 0 0-2.5 2.5 2.5 2.5 0 0 0 .001.02 1.75 1.75 0 0 0-.251-.02A1.75 1.75 0 0 0 8 14.25 1.75 1.75 0 0 0 9.75 16h7.75a1.5 1.5 0 0 0 1.5-1.5 1.5 1.5 0 0 0-1.5-1.5 2 2 0 0 0-2-2 2 2 0 0 0-.867.2A2.5 2.5 0 0 0 12.5 10z"/><path style="fill:#2bb563" d="M7 20h5v2H7z"/><path style="fill:#5057eb" d="M2.764 20a4.51 4.51 0 0 0 3.757 2H7v-2H2.764z"/><path style="fill:#ffb73f" d="M17 20v2h.479a4.51 4.51 0 0 0 3.757-2H17z"/><path style="fill:#e8475b" d="M12 20h5v2h-5z"/><path style="opacity:.1;fill:#f4f4f7" d="M6.52 2A4.51 4.51 0 0 0 2 6.52v.5A4.51 4.51 0 0 1 6.52 2.5h10.96A4.51 4.51 0 0 1 22 7.02v-.5A4.51 4.51 0 0 0 17.48 2z"/><path style="opacity:.2;fill:#f4f4f7" d="M2.78 20c.118.175.245.343.386.5h17.666c.141-.157.27-.324.389-.5H2.779z"/></svg>