<svg width="24" height="24" xmlns="http://www.w3.org/2000/svg"><g transform="translate(1 1)"><path d="M11 14.5c6 0 10 7 10 7s-5-2-10-2-10 2-10 2 4-7 10-7z" style="opacity:.2"/><path d="M11 14c6 0 10 7 10 7s-5-2-10-2-10 2-10 2 4-7 10-7z" style="fill:#8c8c8c"/><path d="M11 14c-6 0-10 7-10 7s.284-.101.432-.156C2.414 19.326 5.9 14.5 11 14.5s8.586 4.826 9.568 6.344c.148.055.432.156.432.156s-4-7-10-7z" style="fill:#f4f4f7;opacity:.1"/><circle cx="11" cy="9.5" r="8" style="opacity:.1"/><circle cx="11" cy="9" r="8" style="fill:#f4f4f7"/><circle cx="11" cy="9.5" r="5" style="opacity:.1"/><circle cx="11" cy="9" r="5" style="fill:#a6a6a6"/><circle cx="11" cy="9" r="3" style="fill:#0086cc"/><path d="M11 6a3 3 0 0 0-3 3 3 3 0 0 0 .014.256A3 3 0 0 1 11 6.5a3 3 0 0 1 2.986 2.744A3 3 0 0 0 14 9a3 3 0 0 0-3-3z" style="opacity:.1"/><path d="M11 1a8 8 0 0 0-8 8 8 8 0 0 0 .01.293A8 8 0 0 1 11 1.5a8 8 0 0 1 7.99 7.707A8 8 0 0 0 19 9a8 8 0 0 0-8-8z" style="fill:#f4f4f7;opacity:.2"/><path d="M11 4a5 5 0 0 0-5 5 5 5 0 0 0 .01.303A5 5 0 0 1 11 4.5a5 5 0 0 1 4.99 4.697A5 5 0 0 0 16 9a5 5 0 0 0-5-5z" style="fill:#f4f4f7;opacity:.1"/></g></svg>