<svg xmlns="http://www.w3.org/2000/svg" width="24" height="24"><path style="opacity:.2" d="M19.607 1050.325a1.374 1.374 0 0 1-.302-.073l-1.933-1.06c-1.02-.562-1.89-1.04-1.932-1.061-.073-.038-.125-.032-1.337.156l-1.261.196-1.706-.1c-.938-.057-1.797-.106-1.909-.11-.194-.01-.28-.036-1.969-.63-.97-.342-1.79-.637-1.82-.656a418.05 418.05 0 0 1-3.204-2.607c-.017-.015-.292-.752-.61-1.635-.319-.884-.595-1.638-.613-1.675-.03-.061-.009-.26.205-1.914.224-1.726.243-1.85.294-1.903.03-.031.645-.76 1.366-1.62l1.31-1.564 1.388-.68 1.389-.68 1.867-.423 1.868-.424 1.714.037 1.715.038 1.684.528 1.683.528 1.337.86c.734.473 1.359.885 1.387.916a598.9 598.9 0 0 1 2.124 2.54c.017.021.172.654.344 1.406l.314 1.369-.244 1.41c-.224 1.293-.25 1.416-.308 1.494-.55.728-1.856 2.368-1.91 2.4-.052.03-1.732 1.379-1.859 1.492-.01.01.264.793.608 1.743.345.95.627 1.731.627 1.735 0 .01-.066.01-.307-.032z" transform="translate(0 -1028.362)"/><path style="fill:#fc6500" d="M19.607 1049.825a1.374 1.374 0 0 1-.302-.073l-1.933-1.06c-1.02-.562-1.89-1.04-1.932-1.061-.073-.038-.125-.032-1.337.156l-1.261.196-1.706-.1c-.938-.057-1.797-.106-1.909-.11-.194-.01-.28-.036-1.969-.63-.97-.342-1.79-.637-1.82-.656a418.05 418.05 0 0 1-3.204-2.607c-.017-.015-.292-.752-.61-1.635-.319-.884-.595-1.638-.613-1.675-.03-.061-.009-.26.205-1.914.224-1.726.243-1.85.294-1.903.03-.031.645-.76 1.366-1.62l1.31-1.564 1.388-.68 1.389-.68 1.867-.423 1.868-.424 1.714.037 1.715.038 1.684.528 1.683.528 1.337.86c.734.473 1.359.885 1.387.916a598.9 598.9 0 0 1 2.124 2.54c.017.021.172.654.344 1.406l.314 1.369-.244 1.41c-.224 1.293-.25 1.416-.308 1.494-.55.728-1.856 2.368-1.91 2.4-.052.03-1.732 1.379-1.859 1.492-.01.01.264.793.608 1.743.345.95.627 1.731.627 1.735 0 .01-.066.01-.307-.032z" transform="translate(0 -1028.362)"/><path style="opacity:.2" d="m10.844 1033.368-1.682.379-1.697.385-1.23.603-1.104.54-1.106 1.32-.943 1.123c-.078.093-.131.156-.19.224-.034.235-.087.62-.189 1.404-.177.568-.116 1.214-.09 1.727.112.306.262.718.422 1.162.158.438.305.839.412 1.127.017.045.026.073.04.107l.22.18 1.084.883c.392.319.785.636 1.08.875l.313.254c.083.031.183.066.32.115.304.11.725.26 1.172.418l.05.018c.012 0 .019.01.03.01h.002c.843.297 1.293.455 1.502.522.038.012.058.017.084.027.217.01.963.054 1.88.109l1.546.092 1.103-.172c.606-.094.917-.142 1.152-.17h.002c.101-.01.24-.027.424-.017h.006c.204.014.326.071.465.125h.1l.109.055c.093.048.105.058.203.112h.002c.103.056.25.135.426.232l.515.283-.025-.078c-.004-.013-.016-.053-.03-.107.001 0-.02-.071-.03-.154a1.659 1.659 0 0 1-.012-.249c.003-.106.013-.134.021-.187a3.78 3.78 0 0 1 .02-.113l.021-.076.012-.031.025-.068a.903.903 0 0 1 .028-.068l.027-.088.055-.07.107-.145.074-.098c.006-.01-.006.013-.01.023l.163-.277h.113l.236-.194c.178-.144.402-.328.625-.507.223-.18.444-.352.614-.487h.002c.07-.057.125-.1.175-.138.012-.014.008-.01.018-.016h.002l.113-.137a89.26 89.26 0 0 0 1.467-1.86c.034-.17.087-.468.19-1.058l.193-1.113-.246-1.075c-.085-.37-.167-.71-.227-.955l-.02-.078-.872-1.047-.703-.838-.198-.238-.242-.16a98.95 98.95 0 0 0-.943-.615l-1.166-.75-1.49-.467-1.483-.465-1.502-.029z" transform="translate(0 -1028.362)"/><path style="fill:#fdcb00" d="m10.844 4.506-1.682.379-1.697.385-1.23.603-1.104.54-1.106 1.32c-.36.43-.694.827-.943 1.122-.078.094-.131.157-.19.225-.034.235-.087.62-.189 1.404-.177.568-.116 1.214-.09 1.727.112.306.262.718.422 1.162.158.438.305.839.412 1.127.017.046.026.073.04.107l.22.18 1.084.883c.392.319.785.636 1.08.875l.313.254c.083.031.183.066.32.115.304.11.725.26 1.172.418l.05.018c.012 0 .019.01.03.01h.002c.843.296 1.293.454 1.502.52.038.013.058.018.084.028.217.012.963.055 1.88.11l1.546.091 1.103-.171c.606-.094.917-.142 1.152-.17h.002c.101-.008.24-.028.424-.018h.006c.204.014.326.071.465.125h.1l.109.055c.093.048.105.058.203.111h.002c.103.056.25.135.426.232l.515.284-.025-.078-.03-.108c.001.003-.02-.071-.03-.154a1.654 1.654 0 0 1-.012-.248c.003-.107.013-.135.021-.188a3.59 3.59 0 0 1 .02-.113l.021-.076.012-.031.025-.069a.987.987 0 0 1 .028-.068l.027-.088.055-.07.107-.145.074-.098c.006-.008-.006.014-.01.024l.163-.277h.113l.236-.194.625-.508c.223-.178.444-.351.614-.486h.002c.07-.057.125-.1.175-.139.012-.014.008-.005.018-.015h.002l.113-.137a89.241 89.241 0 0 0 1.467-1.86c.034-.17.087-.468.19-1.058l.193-1.113-.246-1.074c-.085-.37-.167-.71-.227-.956l-.02-.078-.872-1.047-.703-.837-.198-.239-.242-.16c-.245-.162-.58-.381-.943-.615l-1.166-.75-1.49-.467-1.483-.465-1.502-.029z"/><path style="fill:#17191e" d="m5.493 1044.12-.505-.743-.458-.259c-.256-.145-.453-.27-.447-.286a43.6 43.6 0 0 1 .547-.836c.296-.445.533-.822.528-.838-.006-.016-.02-.03-.033-.03-.013 0-.186.1-.384.223a86.82 86.82 0 0 1-1.283.78c-.102.058-.117.061-.128.024a44.104 44.104 0 0 1-.171-.88l-.159-.84.181-1.003.216-1.194c.033-.18.064-.242.633-1.225l.6-1.035.916-.457c.503-.251.924-.457.934-.458.068 0-.027.143-.343.522l-.45.544c-.07.087-.143.261-.345.814l-.255.703.102.629.102.629.169.157c.093.087.21.192.26.234l.091.076.206-.094.206-.094.015-.128c.012-.102.046-.671.048-.8 0-.03 1.15-1.296 1.189-1.31.012-.01.231.21.488.475l.467.48.089.36.112.447c.02.074.054.109.206.208l.182.12.142-.236.142-.235.007-.497.008-.496-.447-.726c-.369-.599-.464-.736-.542-.785-.051-.032-.423-.272-.825-.534-.712-.463-.733-.478-.749-.567a.282.282 0 0 1-.008-.098 73.67 73.67 0 0 1 2.276.503c.024.01.412.265.861.565l.818.546.1.299.4 1.187.298.89-.016.525c-.01.29-.023.66-.03.824l-.013.297-.308.904-.308.904-.438.443-.438.444-.278.562c-.152.31-.283.567-.289.573-.006.01-.302-.475-.658-1.07l-.646-1.083-.366-.119-.366-.118-.37.27-.37.27-.029.128c-.124.54-.555 2.256-.566 2.256-.008 0-.241-.334-.518-.743zM15.754 1035.363c-.14 0-.254.01-.254.014 0 .01.083.28.184.605.188.605.199.653.222.961a381.837 381.837 0 0 1 .16 1.94l.126 1.543-.09 1.52-.089 1.52-.257.682c-.14.375-.256.687-.256.696 0 .01.232-.04.515-.107.457-.11.53-.12.654-.104l.874.126c.848.123.762.114.744.082-.008-.014-.138-.42-.288-.905l-.274-.88-.027-.666a14.57 14.57 0 0 1-.02-.671c.005 0 .226.022.493.058l.487.066.639-.457.639-.458.281-.602.283-.602-.038-.853-.037-.853-.248-.652-.249-.651-.538-.342-.54-.341-.733-.047-.734-.047-.687-.288-.688-.288zm2.702 3.11.263.244.37.347.106.102-.066.435a7.27 7.27 0 0 1-.077.453 7.03 7.03 0 0 1-.413.273c-.446.283-.4.27-.787.21l-.25-.039.001-.525c.002-.442.053-1.323.082-1.416.005-.016.11-.033.26-.043l.38-.029z" transform="translate(0 -1028.362)"/><path style="fill:#17191e" d="M13.34 1037.362c-.018 0-.259.14-.533.312l-.498.311-.331.66-.332.658-.073 1.207-.073 1.206.362 1.006.362 1.007.49.494.49.493.519.072.522.074c.001 0 .138-.062.303-.14.166-.08.365-.172.442-.208l.14-.064.255-.424.255-.424.18-.873.18-.873-.02-.793-.019-.794-.256-.804c-.141-.442-.265-.82-.276-.838-.01-.02-.22-.243-.466-.498l-.446-.465-.57-.15a11.829 11.829 0 0 0-.606-.151zm.798 3.667c.01 0 .164.125.344.287l.328.294.035.159c.02.086.06.275.089.418l.054.26-.104.454-.105.454-.327.166-.328.166-.29-.097-.292-.098-.168-.506-.169-.506.162-.523c.088-.287.16-.533.16-.547.001-.019.524-.345.611-.38z" transform="translate(0 -1028.362)"/><path style="opacity:.2;fill:#f4f4f7" d="m10.697 1031.362-1.867.424-1.867.423-1.389.68-1.388.68-1.31 1.563c-.72.86-1.335 1.589-1.365 1.62-.052.053-.072.178-.295 1.903-.214 1.655-.235 1.853-.205 1.914l.021.06c.03-.271.082-.69.184-1.474.223-1.726.243-1.85.295-1.904.03-.03.645-.76 1.365-1.62l1.31-1.562 1.388-.68 1.389-.68 1.867-.423 1.867-.424 1.715.037 1.715.038 1.684.527 1.683.528 1.336.86c.735.474 1.36.886 1.389.917.042.045 2.014 2.406 2.123 2.54.017.02.172.654.345 1.406l.264 1.153.049-.285-.313-1.368c-.173-.752-.328-1.385-.345-1.406a600.873 600.873 0 0 0-2.123-2.54c-.029-.031-.654-.443-1.389-.916l-1.336-.86-1.683-.529-1.684-.527-1.715-.038zm8.118 15.408c-.024.021-.127.102-.136.11-.01.01.264.794.608 1.744l.44 1.214c.073.01.187.026.187.019 0 0-.282-.783-.627-1.734-.267-.737-.389-1.1-.472-1.353z" transform="translate(0 -1028.362)"/><path style="opacity:.2" d="M6.747 1034.862a.286.286 0 0 0 .008.1c.016.087.037.103.749.566.402.261.773.502.825.534.078.048.173.186.542.784l.44.714.007-.487-.447-.727c-.369-.598-.464-.736-.542-.784l-.821-.531c-.333-.072-.757-.172-.76-.168zm-.266.201c-.006 0-.325.16-.545.268l-.248.299c-.07.087-.144.26-.345.813l-.256.703.056.347.2-.55c.201-.552.275-.726.345-.813.049-.061.251-.306.45-.544.315-.379.41-.523.343-.523zm9.168.306c-.06 0-.149 0-.149.01s.083.28.184.605c.188.605.199.653.221.96l.024.288c.006.059.068.803.137 1.652l.109 1.333.016-.292-.125-1.543a329.108 329.108 0 0 0-.16-1.94c-.023-.307-.034-.355-.222-.96l-.035-.112zm2.807 2.604-.13.01c-.073.01-.244.022-.382.03-.149.01-.253.028-.258.044-.03.092-.08.973-.082 1.415l-.002.526h.002v-.026c.001-.442.053-1.323.082-1.415.005-.016.11-.033.258-.043.138-.01.31-.022.381-.029l.131-.012.263.244.369.348.04.038c.001-.001 0-.001 0 0l.067-.435-.107-.101a68.958 68.958 0 0 0-.37-.348zm-6.97.835-.003.07c-.009.289-.022.66-.029.823l-.013.297-.308.904-.309.903-.437.443-.438.445-.278.561a20.3 20.3 0 0 1-.29.574c-.005.01-.3-.476-.656-1.07l-.648-1.083-.365-.119-.365-.119-.37.27-.37.27-.03.128c-.124.54-.555 2.257-.566 2.257-.008 0-.242-.335-.519-.743l-.504-.742-.458-.26c-.124-.07-.136-.087-.216-.138-.074.113-.23.346-.232.352-.006.016.192.142.448.287l.458.259.504.742c.277.408.511.743.519.743.011 0 .442-1.717.566-2.257l.03-.128.37-.27.37-.27.365.12.365.118.648 1.082c.355.595.65 1.077.657 1.07.006-.01.136-.263.289-.573l.278-.561.438-.445.437-.443.309-.903.308-.904.013-.297c.007-.164.02-.534.03-.824l.016-.526zm8.994.46-.262.56-.282.6-.64.459-.639.457-.486-.066a6.903 6.903 0 0 0-.492-.058c-.003 0 .006.264.014.502.017 0 .219.02.478.056l.486.066.64-.457.639-.458.282-.602.282-.602zm-17.434.913-.046.254.158.84c.088.462.165.858.172.88.011.036.026.033.128-.025.143-.082.785-.47 1.25-.758.234-.356.454-.7.45-.714-.006-.016-.021-.028-.034-.028-.013 0-.185.1-.383.222-.468.29-1.137.695-1.283.779-.102.059-.117.06-.128.025a41.556 41.556 0 0 1-.172-.88zm11.093.348c-.088.035-.61.362-.61.381 0 .014-.074.26-.163.547l-.16.522.08.24.08-.262c.089-.287.162-.533.162-.547 0-.019.523-.345.61-.38.01 0 .165.124.344.285l.328.294.035.16c.02.086.06.273.089.416l.054-.239-.054-.26c-.03-.143-.07-.33-.09-.418l-.034-.159-.328-.294c-.18-.161-.334-.29-.343-.286zm-2.613.759-.026.428.361 1.007.364 1.005.488.495.49.493.52.072.521.074c.002 0 .14-.062.305-.14.165-.08.364-.173.441-.208l.14-.064.255-.424.256-.425.178-.873.181-.872-.01-.447-.17.82-.18.872-.255.425-.254.424-.14.064c-.078.035-.277.128-.442.207-.166.078-.303.14-.305.14l-.521-.073-.52-.072-.49-.493-.488-.495-.364-1.005zm5.143 2.846c-.123-.017-.197-.01-.653.103-.174.041-.223.048-.317.066-.097.26-.199.535-.199.541 0 .01.233-.04.516-.107.456-.11.53-.12.653-.104l.874.126c.848.123.763.114.744.083l-.159-.5c-.101-.013-.23-.03-.585-.083l-.874-.126z" transform="translate(0 -1028.362)"/><path style="fill:#f4f4f7;opacity:.2" d="m10.844 4.506-1.682.379-1.697.385-1.23.603-1.104.54-1.106 1.32c-.36.43-.694.827-.943 1.122-.078.094-.131.157-.19.225-.034.235-.087.62-.189 1.404-.122.392-.124.807-.11 1.204.013-.239.04-.477.11-.704.102-.784.155-1.17.19-1.404l.189-.225.943-1.123 1.106-1.32 1.103-.539 1.23-.603 1.698-.385 1.682-.38 1.535.04 1.502.03 1.482.464 1.49.467 1.167.75c.362.233.698.453.943.615l.242.16.197.239.703.837.874 1.047.019.078c.06.245.142.586.227.956l.197.857.049-.285-.246-1.074c-.085-.37-.167-.71-.227-.956l-.02-.078c-.138-.165-.457-.55-.873-1.047l-.703-.837-.197-.239-.242-.16c-.245-.162-.58-.381-.943-.615l-1.166-.75-1.49-.467-1.483-.465-1.502-.029-1.535-.037zm6.36 13.767-.003.01c-.008.053-.018.081-.021.188l.002.033.095.053-.025-.078-.03-.108-.019-.098z"/></svg>