<svg xmlns="http://www.w3.org/2000/svg" width="24" height="24" version="1"><rect style="fill:#3c7fb0" width="20" height="20" x="2" y="2" rx="1" ry="1"/><path style="opacity:.1;fill:#f4f4f7" d="M3 2c-.554 0-1 .446-1 1v.5c0-.554.446-1 1-1h18c.554 0 1 .446 1 1V3c0-.554-.446-1-1-1z"/><path style="opacity:.2" d="M2 21v.5c0 .554.446 1 1 1h18c.554 0 1-.446 1-1V21c0 .554-.446 1-1 1H3c-.554 0-1-.446-1-1z"/><rect style="opacity:.4;fill:#f4f4f7" width="6.5" height="2" x="11.5" y="11" rx="1" ry="1"/><rect style="opacity:.4;fill:#f4f4f7" width="11" height="2" x="7" y="15" rx="1" ry="1"/><rect style="opacity:.4;fill:#f4f4f7" width="11" height="2" x="7" y="7" rx="1" ry="1"/><circle style="opacity:.2" cx="8" cy="8.5" r="2"/><circle style="fill:#f4f4f7" cx="8" cy="8" r="2"/><circle style="opacity:.2" cx="8" cy="16.5" r="2"/><circle style="fill:#f4f4f7" cx="8" cy="16" r="2"/><circle style="opacity:.2" cx="11" cy="12.5" r="2"/><circle style="fill:#f4f4f7" cx="11" cy="12" r="2"/></svg>