<svg xmlns="http://www.w3.org/2000/svg" width="24" height="24">
    <path style="opacity:.2" d="M2.01 12.209A10 10 0 0 0 2 12.5a10 10 0 0 0 10 10 10 10 0 0 0 10-10 10 10 0 0 0-.01-.209A10 10 0 0 1 12 22a10 10 0 0 1-9.989-9.791z"/>
    <path style="fill:#248afd" d="M12 2A10 10 0 0 0 2 12a10 10 0 0 0 10 10 10 10 0 0 0 10-10A10 10 0 0 0 12 2z"/>
    <path style="opacity:.2;fill:#f4f4f7" d="M12 2A10 10 0 0 0 2 12a10 10 0 0 0 .01.209A10 10 0 0 1 12 2.5a10 10 0 0 1 9.99 9.791A10 10 0 0 0 22 12 10 10 0 0 0 12 2z"/>
    <path style="opacity:.2" d="M12 4.5a8 8 0 0 0-8 8 8 8 0 0 0 8 8 8 8 0 0 0 8-8 8 8 0 0 0-8-8zm0 1a7 7 0 0 1 4.959 2.066c-.58.18-.965.742-.965 1.354 0 .665.384 1.03.793 1.695.47 1.477-.013 2.949-.447 4.338l-.807 2.693-2.42-8.132a47.448 47.448 0 0 1 1.625-.028c.435-.051.385-1.041-.05-1.015 0 0-2.01.101-2.854.101-.794 0-2.479-.101-2.479-.101-.435-.026-.486.99-.05 1.015 0 0 1.262.002 1.697.028l1.26 2.896-2.27 5.3-2.94-8.148c.488-.025.675-.076.675-.076.435-.051.384-.99-.051-.965 0 0-.753.063-1.49.086A7 7 0 0 1 12 5.5zm-6.691 4.947 3.09 8.045A7 7 0 0 1 5 12.5a7 7 0 0 1 .309-2.053zm13.394.059A7 7 0 0 1 19 12.5a7 7 0 0 1-2.896 5.66l1.925-5.562c.339-.847.572-1.487.674-2.092zm-6.06 2.95 2.013 5.515A7 7 0 0 1 12 19.5a7 7 0 0 1-1.787-.24l2.43-5.805z"/>
    <path style="fill:#f4f4f7" d="M17.669 7.311c-.035-.002-.283-.31-.319-.31-.793 0-1.356.677-1.356 1.42 0 .665.384 1.028.794 1.694.469 1.476-.014 2.949-.449 4.338l-.807 2.693-2.419-8.133a46.607 46.607 0 0 1 1.624-.027c.435-.052.385-1.042-.05-1.016 0 0-2.01.103-2.854.103-.794 0-2.478-.103-2.478-.103-.435-.026-.486.99-.05 1.016 0 0 1.262.001 1.697.027l1.259 2.897-2.269 5.302-2.94-8.15c.487-.025.675-.075.675-.075.435-.052.384-.992-.052-.966 0 0-1.059.102-1.904.102-.132 0-.291-.004-.455-.008-.437.571-.193 1.348-.193 1.348l3.698 9.633c.48.248.24.07.76.217l.449-.114 2.613-6.244 2.173 5.954-.137.418c.58-.194.512-.212 1.032-.532l2.318-6.696c.46-1.152.733-1.924.733-2.744-.028-.406-.272-.464-.277-.871z"/>
    <path style="fill:#f4f4f7" d="M12 4a8 8 0 0 0-8 8 8 8 0 0 0 8 8 8 8 0 0 0 8-8 8 8 0 0 0-8-8zm0 1a7 7 0 0 1 7 7 7 7 0 0 1-7 7 7 7 0 0 1-7-7 7 7 0 0 1 7-7z"/>
</svg>
