<svg height="24" width="24" xmlns="http://www.w3.org/2000/svg"><path d="m15-21h1v19h-1zm-2 0h1v19h-1zm-2 0h1v19h-1zm-2 0h1v19h-1zm8 0h1v19h-1zm2 0h1v19h-1zm-12 0h1v19h-1zm-2 0h1v19h-1z" fill="#8e8e8e" transform="rotate(90)"/><path d="m11 3h1v19h-1zm-2 0h1v19h-1zm-2 0h1v19h-1zm-2 0h1v19h-1zm8 0h1v19h-1zm2 0h1v19h-1zm2 0h1v19h-1zm-14 0h1v19h-1zm16 0h1v19h-1z" fill="#8e8e8e"/><rect height="17" opacity=".2" rx=".85" ry="1.063" transform="matrix(0 -1 -1 0 0 0)" width="17" x="-21.5" y="-20"/><rect fill="#b7b7b7" height="17" rx=".85" ry="1.063" transform="matrix(0 -1 -1 0 0 0)" width="17" x="-21" y="-20"/><path d="m4.063 4c-.59 0-1.063.379-1.063.85v.5c0-.471.474-.85 1.063-.85h14.875c.588 0 1.062.379 1.062.85v-.5c0-.471-.474-.85-1.063-.85z" fill="#f4f4f7" opacity=".2"/><g fill="none" stroke-linecap="round" stroke-linejoin="round" stroke-width="2"><path d="m2.014 12.5h6.5l2-5 3 10 2-5h6.472" opacity=".1" stroke="#000"/><path d="m2.014 12h6.5l2-5 3 10 2-5h6.472" stroke="#009688"/></g></svg>