<svg height="24" width="24" xmlns="http://www.w3.org/2000/svg"><path d="m5.09 2.5c-.602 0-1.09.478-1.09 1.071v17.859c0 .593.487 1.071 1.09 1.071h13.82c.603 0 1.09-.478 1.09-1.071v-17.86c0-.593-.487-1.071-1.09-1.071z" opacity=".2"/><path d="m5.09 2c-.602 0-1.09.478-1.09 1.071v17.859c0 .592.487 1.07 1.09 1.07h13.82c.603 0 1.09-.478 1.09-1.071v-17.859c0-.592-.487-1.07-1.09-1.07z" fill="#961a1a"/><path d="m5.09 2c-.602 0-1.09.478-1.09 1.071v17.859c0 .592.487 1.07 1.09 1.07h1.91v-20zm6.91 3.5v3h-3v3h3v8h3v-8h3v-3h-3v-3z" opacity=".2"/><g fill="#f4f4f7"><path d="m12 5h3v14h-3z"/><path d="m8-18h3v9h-3z" transform="rotate(90)"/><path d="m5.09 2c-.603 0-1.09.478-1.09 1.071v.5c0-.593.486-1.071 1.09-1.071h13.82c.604 0 1.09.478 1.09 1.071v-.5c0-.593-.486-1.071-1.09-1.071z" opacity=".1"/></g></svg>