<svg xmlns="http://www.w3.org/2000/svg" width="24" height="24" version="1"><path style="opacity:.2" d="M2 20v.5c0 .554.446 1 1 1h18c.554 0 1-.446 1-1V20c0 .554-.446 1-1 1H3c-.554 0-1-.446-1-1z"/><path style="fill:#54402a" d="M22 20V4c0-.554-.446-1-1-1H3c-.554 0-1 .446-1 1v16c0 .554.446 1 1 1h18c.554 0 1-.446 1-1z"/><path style="opacity:.2" d="M9.383 10.5a.375.389 0 0 0-.383.389v6.222a.375.389 0 0 0 .561.338l5.25-3.111a.375.389 0 0 0 0-.676l-5.25-3.11a.375.389 0 0 0-.178-.052z"/><path style="fill:#d2d2d2" d="M9.383 10a.375.389 0 0 0-.383.389v6.222a.375.389 0 0 0 .561.338l5.25-3.111a.375.389 0 0 0 0-.676l-5.25-3.11A.375.389 0 0 0 9.384 10z"/><path style="opacity:.2" d="M150 242c-1.108 0-2 .892-2 2v6h40v-6c0-1.108-.892-2-2-2z" transform="matrix(.5 0 0 .5 -72 -118)"/><path style="opacity:.2" d="M150 242c-1.108 0-2 .892-2 2v2h40v-2c0-1.108-.892-2-2-2z" transform="matrix(.5 0 0 .5 -72 -118)"/><path style="fill:#d2d2d2" d="M150 242c-1.108 0-2 .892-2 2v6h8v-4l-4-4z" transform="matrix(.5 0 0 .5 -72 -118)"/><path style="fill:#bebebe;fill-rule:evenodd" d="m163 246-4-4h5l4 4z" transform="matrix(.5 0 0 .5 -72 -118)"/><path style="fill:#d2d2d2;fill-rule:evenodd" d="m163 246-4 4h5l4-4z" transform="matrix(.5 0 0 .5 -72 -118)"/><path style="fill:#bebebe;fill-rule:evenodd" d="m173 246-4-4h5l4 4z" transform="matrix(.5 0 0 .5 -72 -118)"/><path style="fill:#d2d2d2;fill-rule:evenodd" d="m173 246-4 4h5l4-4z" transform="matrix(.5 0 0 .5 -72 -118)"/><path style="fill:#bebebe;fill-rule:evenodd" d="m183 246-4-4h5l4 4z" transform="matrix(.5 0 0 .5 -72 -118)"/><path style="fill:#d2d2d2;fill-rule:evenodd" d="m183 246-4 4h5l4-4z" transform="matrix(.5 0 0 .5 -72 -118)"/><path style="opacity:.2;fill:#f4f4f7" d="M150 242c-1.108 0-2 .892-2 2v1c0-1.108.892-2 2-2h36c1.108 0 2 .892 2 2v-1c0-1.108-.892-2-2-2h-36z" transform="matrix(.5 0 0 .5 -72 -118)"/></svg>