<svg xmlns="http://www.w3.org/2000/svg" width="24" height="24" version="1"><path style="fill:#ff766a" d="M3 3c-.554 0-1 .446-1 1v12h20V4c0-.554-.446-1-1-1z"/><path style="opacity:.2;fill-rule:evenodd" d="M16 7.5a3 3 0 1 1 0 6 3 3 0 0 1 0-6z"/><path style="fill:#fffee4;fill-rule:evenodd" d="M16 7a3 3 0 1 1 0 6 3 3 0 0 1 0-6z"/><path style="opacity:.2;fill:#f4f4f7" d="M3 3c-.553 0-1 .446-1 1v.5c0-.554.446-1 1-1h18c.554 0 1 .446 1 1V4c0-.554-.446-1-1-1z"/><path style="fill:#d22f7a" d="M2 16v4c0 .554.446 1 1 1h18c.554 0 1-.446 1-1v-4z"/><path style="fill:#17191e" d="M2 16v-.695s1.442-1.158 1.848-1.26c.405-.1.884-.018 1.376.095.492.112 1.227.306 1.456.315.23.01.644-.024 1.127-.06.482-.034 1.28-.066 1.529-.063.249 0 .87.042 1.533.091.663.05 1.573.132 1.78.155.206.023.449.065.724.111.276.046.752.116.921.135.169.018.56.084 1.014.135.453.05 1.18.068 1.39.049.21-.019.649-.487 1.139-.661.49-.174 1.03-.333 1.44-.294.412.039 2.723 1.25 2.723 1.25v.695H4.429z"/><path style="opacity:.2" d="M2 20v.5c0 .554.447 1 1 1h18c.554 0 1-.446 1-1V20c0 .554-.445 1-1 1H3c-.553 0-1-.446-1-1z"/><path style="opacity:.1;fill:#f4f4f7" d="M2 16h20v.5H2z"/></svg>