<svg height="24" width="24" xmlns="http://www.w3.org/2000/svg">
    <path d="M2.006 12.25c-.002.083-.006.165-.006.25 0 5.54 4.46 10 10 10s10-4.46 10-10c0-.084-.004-.167-.006-.25A9.976 9.976 0 0 1 12 22a9.976 9.976 0 0 1-9.994-9.75z" opacity=".2"/>
    <rect fill="#f4f4f7" height="20" rx="10" width="20" x="2" y="2"/>
    <path d="M12 2C6.46 2 2 6.46 2 12c0 .083.004.166.006.25A9.976 9.976 0 0 1 12 2.5a9.976 9.976 0 0 1 9.994 9.75c.002-.084.006-.167.006-.25 0-5.54-4.46-10-10-10z" fill="#f4f4f7" opacity=".2"/>
    <g fill="none" stroke-linecap="round" stroke-linejoin="round" stroke-width="4">
        <path d="M12 21.5V13M4 6.5l8 6.5 8-6.5" opacity=".2" stroke="#000"/>
        <path d="M12 21v-8.5M4 6l8 6.5L20 6" stroke="#e34241"/>
    </g>
</svg>
