<svg height="24" width="24" xmlns="http://www.w3.org/2000/svg">
    <g transform="translate(1 1)">
        <path d="M1 19v.5c0 .554.446 1 1 1h18c.554 0 1-.446 1-1V19c0 .554-.446 1-1 1H2c-.554 0-1-.446-1-1z" opacity=".2"/>
        <rect fill="#00a5c3" height="18" rx="1" width="20" x="1" y="2"/>
        <path d="M2 2c-.554 0-1 .446-1 1v.5c0-.554.446-1 1-1h18c.554 0 1 .446 1 1V3c0-.554-.446-1-1-1z" fill="#f4f4f7" opacity=".2"/>
        <path d="m14 3.5-1 5-1-2h-1v1l1 2h2l1-5v-1zm-11 1v3s0 1 1 1h3v2H3v1h4c1 0 1-1 1-1v-6H7v3H4v-3zm7 6v1h6v-1z" opacity=".2"/>
        <path d="m14 3-1 5-1-2h-1v1l1 2h2l1-5V3zM3 4v3s0 1 1 1h3v2H3v1h4c1 0 1-1 1-1V4H7v3H4V4zm7 6v1h6v-1z" fill="#f4f4f7"/>
    </g>
</svg>
