<svg height="24" width="24" xmlns="http://www.w3.org/2000/svg"><g transform="translate(1 1)"><rect height="20" opacity=".2" rx="4" width="20" x="1" y="1.5"/><rect fill="#32b9f6" height="20" rx="4" width="20" x="1" y="1"/><path d="m8.5 3.5a4.5 4.5 0 0 0 -4.5 4.5 4.5 4.5 0 0 0 4.5 4.5 4.5 4.5 0 0 0 2.018-.482l2.482 2.482 2-2-2.48-2.48a4.5 4.5 0 0 0 .48-2.02 4.5 4.5 0 0 0 -4.5-4.5zm6.5 0-2 2 1 1v-1l3 2s-1 2-1 7l-1 1c-5 0-7 1-7 1l-2-3h1l-1-1-2 2 3 4s3-1 9-1l2-2c0-6 1-9 1-9zm-6.5 2a2.5 2.5 0 0 1 2.5 2.5 2.5 2.5 0 0 1 -2.5 2.5 2.5 2.5 0 0 1 -2.5-2.5 2.5 2.5 0 0 1 2.5-2.5z" opacity=".2"/><g fill="#f4f4f7"><path d="m15 3-2 2 1 1v-1l3 2s-1 2-1 7l-1 1c-5 0-7 1-7 1l-2-3h1l-1-1-2 2 3 4s3-1 9-1l2-2c0-6 1-9 1-9z"/><path d="m8.5 3a4.5 4.5 0 0 0 -4.5 4.5 4.5 4.5 0 0 0 4.5 4.5 4.5 4.5 0 0 0 2.018-.482l2.482 2.482 2-2-2.48-2.48a4.5 4.5 0 0 0 .48-2.02 4.5 4.5 0 0 0 -4.5-4.5zm0 2a2.5 2.5 0 0 1 2.5 2.5 2.5 2.5 0 0 1 -2.5 2.5 2.5 2.5 0 0 1 -2.5-2.5 2.5 2.5 0 0 1 2.5-2.5z"/><path d="m5 1c-2.216 0-4 1.784-4 4v.5c0-2.216 1.784-4 4-4h12c2.216 0 4 1.784 4 4v-.5c0-2.216-1.784-4-4-4z" opacity=".2"/></g></g></svg>