<svg height="24" width="24" xmlns="http://www.w3.org/2000/svg">
    <path d="m11.174 2.5-.777 2.897 5.796 1.553.777-2.897zm5.02 4.45-1.487 5.55H4v10h16v-10h-2.188l1.279-4.773zm-5.797-1.553L7.5 4.621 6.465 8.484l2.897.778z" opacity=".2"/>
    <path d="m11.174 2-.777 2.897 5.796 1.553.777-2.897zm5.02 4.45-1.553 5.796 2.897.776 1.553-5.795zm-5.797-1.553L7.5 4.121 6.465 7.984l2.897.778z" fill="#ae292f"/>
    <path d="m11.174 2-.777 2.897.125.034.652-2.431 5.67 1.52.126-.467zm-.777 2.897L7.5 4.121 6.465 7.984l.125.034.91-3.397 2.772.743zm5.921 1.586-.125.467 2.773.743.125-.466zm-.125.467-.125-.033-1.427 5.33.125.032z" fill="#f4f4f7" opacity=".1"/>
    <path d="M4 12h16v10H4z" fill="#ef4848"/>
    <path d="M4 12h16v.5H4z" fill="#f4f4f7" opacity=".2"/>
</svg>
