<svg xmlns="http://www.w3.org/2000/svg" width="24" height="24"><path style="opacity:.2" d="M5.02 2.5a3 3 0 0 0-1.8 5.415l3.06 2.255-3.777 5.666a3 3 0 0 0 2.283 4.656l14 1a3 3 0 0 0 1.935-5.45l-3.334-2.333 3.935-4.81a3 3 0 0 0-2.003-4.882l-14-1.5A3 3 0 0 0 5.02 2.5z"/><path style="fill:#4f4f4f" d="M5.02 2a3 3 0 0 0-1.8 5.415L6.28 9.67l-3.777 5.666a3 3 0 0 0 2.283 4.656l14 1a3 3 0 0 0 1.935-5.45l-3.334-2.333 3.935-4.81a3 3 0 0 0-2.003-4.883l-14-1.5A3 3 0 0 0 5.02 2z"/><path style="opacity:.2" d="m5 17.5 4-6 10 7z"/><path style="fill:#1bd9a5" d="m5 17 4-6 10 7z"/><path style="opacity:.2" d="M5 5.5 19 7l-4.5 5.5z"/><path style="fill:#1cadf4" d="m5 5 14 1.5-4.5 5.5z"/><path style="opacity:.1;fill:#f4f4f7" d="M5.02 2a3 3 0 0 0-3.007 3.236A3 3 0 0 1 5.02 2.5a3 3 0 0 1 .299.016l14 1.5a3 3 0 0 1 2.668 2.751 3 3 0 0 0-2.668-3.25l-14-1.5A3 3 0 0 0 5.02 2zm1.037 8.005-3.554 5.33a3 3 0 0 0-.49 1.893 3 3 0 0 1 .49-1.392l3.778-5.666-.224-.165zm11.59 3.386-.26.318 3.334 2.333a3 3 0 0 1 1.265 2.201 3 3 0 0 0-1.265-2.701l-3.074-2.151zM9 11l-4 6 .318.022L9 11.5l9.204 6.443L19 18 9 11z"/><path style="opacity:.1;fill:#f4f4f7" d="m5 5 .794.585 12.83 1.375L19 6.5 5 5z"/></svg>