<svg xmlns="http://www.w3.org/2000/svg" viewBox="0 0 16 16" width="256" height="256">
    <path style="fill:#f1f2f2;text-decoration-line:none;text-transform:none;text-indent:0" d="M16.001 14.187a.998.998 0 0 1-.125.322c-.003.005-.003.01-.006.014a1 1 0 0 1-.513.416l-.012.004c-.11.039-.227.058-.344.057h-14a1.003 1.003 0 0 1-.705-.291l-.004-.004a.992.992 0 0 1-.207-.309l-.008-.016A.996.996 0 0 1 .001 14V2a1 1 0 0 1 .291-.705l.004-.004a.993.993 0 0 1 .309-.207l.015-.008A.996.996 0 0 1 1.001 1h11.438c.13-.002.26.02.383.068h.004l.004.002a1 1 0 0 1 .328.21l2.564 2.563a.998.998 0 0 1 .28.719v9.437a.978.978 0 0 1-.001.094.976.976 0 0 1 0 .094zm-1-.787V6.599c0-.333-.267-.6-.6-.6h-1.95v-.01a.489.489 0 0 1-.44-.44h-.01V2.6c0-.333-.267-.6-.6-.6H1.603c-.333 0-.6.267-.6.6v10.8c0 .333.267.6.6.6h7.8c.036 0 .067-.014.1-.02.034.006.064.02.1.02h4.8c.333 0 .6-.267.6-.6zm0-8.401-2-2v1c0 1 0 1 1 1z"/>
    <path d="M9.124 9.032c-.466-.065-1.046-.13-1.531.25-.403.315-.829.977-1.157 1.28-.328.305-.66.438-.594.438H1v1h4.843c.582 0 .886-.381 1.25-.719.343-.326.76-.888 1.126-1.187.106-.083.408-.145.781-.094.373.052.7.188 1.094.188.146 0 .204.033.312.125.109.092.177.494.312.687.135.194.282.421.5.625s.562.375.938.375H15v-1h-2.844c-.1 0-.152-.002-.25-.093a3.292 3.292 0 0 1-.375-.47c-.14-.2-.229-.67-.468-.874a1.513 1.513 0 0 0-.97-.375c-.032 0-.502-.092-.968-.156z" style="color:#000;text-indent:0;text-decoration-line:none;text-transform:none;fill:#f1f2f2"/>
    <path d="M4.5 5A1.5 1.5 0 0 0 3 6.5 1.5 1.5 0 0 0 4.5 8 1.5 1.5 0 0 0 6 6.5 1.5 1.5 0 0 0 4.5 5zm0 1a.5.5 0 0 1 .5.5.5.5 0 0 1-.5.5.5.5 0 0 1-.5-.5.5.5 0 0 1 .5-.5z" style="fill-opacity:.97034;fill:#f1f2f2"/>
</svg>
