<svg height="22" width="22" xmlns="http://www.w3.org/2000/svg">
    <g fill="#f4f4f7">
        <g opacity=".3">
            <rect height="2" rx=".5" width="7" x="3" y="15"/>
            <rect height="2" rx=".5" width="7" x="3" y="11"/>
            <rect height="2" rx=".5" width="7" x="3" y="7"/>
            <rect height="2" rx=".5" width="7" x="3" y="3"/>
            <rect height="2" rx=".5" width="7" x="12" y="17"/>
            <rect height="2" rx=".5" width="7" x="12" y="13"/>
        </g>
        <rect height="2" rx=".5" width="7" x="3" y="17"/>
        <rect height="2" rx=".5" width="7" x="3" y="13"/>
        <rect height="2" rx=".5" width="7" x="3" y="9"/>
        <rect height="2" rx=".5" width="7" x="3" y="5"/>
        <rect height="2" rx=".5" width="7" x="12" y="15"/>
        <rect height="2" rx=".5" width="7" x="12" y="11"/>
        <path d="M17.806 3a.36.36 0 0 0-.254.105l-.697.704 1.336 1.336.703-.698a.355.355 0 0 0 0-.505l-.836-.836A.355.355 0 0 0 17.806 3zm-1.481 1.339L13 7.664V9h1.336l3.325-3.325z"/>
    </g>
</svg>
