<svg height="24" width="24" xmlns="http://www.w3.org/2000/svg"><path d="m10.5 2v2.025a7 7 0 0 0 -6.482 6.475h-2.018v1h2.025a7 7 0 0 0 6.475 6.482v2.018h1v-2.025a7 7 0 0 0 6.482-6.475h2.018v-1h-2.025a7 7 0 0 0 -6.475-6.482v-2.018zm0 3.025v2.01a4 4 0 0 0 -3.463 3.465h-2.012a6 6 0 0 1 5.475-5.475zm1 0a6 6 0 0 1 5.475 5.475h-2.01a4 4 0 0 0 -3.465-3.463zm-1 3.016v2.459h-2.453a3 3 0 0 1 2.453-2.459zm1 .006a3 3 0 0 1 2.459 2.453h-2.459zm-6.475 3.453h2.01a4 4 0 0 0 3.465 3.463v2.012a6 6 0 0 1 -5.475-5.475zm3.016 0h2.459v2.453a3 3 0 0 1 -2.459-2.453zm3.459 0h2.453a3 3 0 0 1 -2.453 2.459zm3.463 0h2.012a6 6 0 0 1 -5.475 5.475v-2.01a4 4 0 0 0 3.463-3.465z" fill="#555e70" transform="translate(1 1)"/></svg>