<svg viewBox="0 0 24 24" xmlns="http://www.w3.org/2000/svg"><g fill="#8b9cbe"><path d="m12 1.412c-.742.47-.007 0-.781.488l-8.219 5.47v9.217c1.149.752.222.144.75.5l7.344 4.906c.895.596.008 0 .906.594 8.023-5.324 6.054-4.014 8.375-5.563.632-.461.117-.095.625-.468v-9.187l-.563-.375-7.655-5.094-.406-.25c-.283-.182 1.223.791-.375-.238zm-.5 1.52v7.75l-.063.093-.218.125-7.219 4.813v-7.781zm1 0 7.5 5v7.625l-7.5-5zm-.375 8.593 7.313 4.875-7.438 4.97-7.344-4.876 7.125-4.75z"/><path d="m11.582 2.875c-.013 0-1.75 1.147-3.86 2.549l-3.834 2.549v3.957c0 2.177.011 3.959.025 3.959s1.75-1.149 3.86-2.553l3.833-2.553v-3.955c0-2.175-.01-3.953-.023-3.953z" fill-opacity=".2"/><path d="m12.09 11.395c-.115.004-7.683 5.11-7.639 5.154.022.02 1.722 1.164 3.778 2.539 2.055 1.374 3.749 2.492 3.763 2.482.64-.414 7.603-5.125 7.61-5.148.015-.05-7.428-5.027-7.512-5.027z" fill-opacity=".4"/><path d="m12.428 2.813c-.013 0-.024 1.75-.024 3.89l.002 3.889 3.832 2.564c2.107 1.41 3.836 2.567 3.842 2.567.006.001.012-1.753.012-3.899v-3.9l-3.82-2.557a414.088 414.088 0 0 0 -3.844-2.554z" fill-opacity=".6"/></g></svg>