<svg height="24" width="24" xmlns="http://www.w3.org/2000/svg">
    <path d="m12 4.121-1.875 1.875-1.176 1.176.707.707 1.176-1.176L12 5.535l1.168 1.168 1.176 1.176.707-.707-1.176-1.176zM7.172 8.95l-1.176 1.175L4.121 12l1.875 1.875 1.176 1.176.707-.707-1.176-1.176L5.535 12l1.168-1.168L7.88 9.656l-.707-.707zm9.656 0-.707.707 1.176 1.176L18.465 12l-1.168 1.168-1.176 1.176.707.707 1.176-1.176L19.879 12l-1.875-1.875-1.176-1.176zM12 9.172 9.172 12 12 14.828 14.828 12zm0 1.414L13.414 12 12 13.414 10.586 12zM9.656 16.12l-.707.707 1.176 1.176L12 19.879l1.875-1.875 1.176-1.176-.707-.707-1.176 1.176L12 18.465l-1.168-1.168-1.176-1.176z" fill="#555e70"/>
</svg>
