<svg height="24" width="24" xmlns="http://www.w3.org/2000/svg">
    <path d="M5.5 5C4.669 5 4 5.669 4 6.5v3c0 .831.669 1.5 1.5 1.5h3c.831 0 1.5-.669 1.5-1.5v-3C10 5.669 9.331 5 8.5 5zm9 0c-.831 0-1.5.669-1.5 1.5v3c0 .831.669 1.5 1.5 1.5h3c.831 0 1.5-.669 1.5-1.5v-3c0-.831-.669-1.5-1.5-1.5zm.5 2h2v2h-2zm-9.5 7c-.831 0-1.5.669-1.5 1.5v3c0 .831.669 1.5 1.5 1.5h3c.831 0 1.5-.669 1.5-1.5v-3c0-.831-.669-1.5-1.5-1.5zm9 0c-.831 0-1.5.669-1.5 1.5v3c0 .831.669 1.5 1.5 1.5h3c.831 0 1.5-.669 1.5-1.5v-3c0-.831-.669-1.5-1.5-1.5zM6 16h2v2H6z" fill="#8b9cbe"/>
</svg>
