<svg height="24" width="24" xmlns="http://www.w3.org/2000/svg"><g fill="#555e70" transform="translate(1 1)"><path d="m17.969 6.531c.013.072.031.143.031.219v7.5c0 .693-.557 1.25-1.25 1.25h-12.5c-.076 0-.147-.018-.219-.031a1.238 1.238 0 0 0 1.219 1.031h12.5c.693 0 1.25-.557 1.25-1.25v-7.5c0-.617-.446-1.114-1.031-1.219z" fill-opacity=".5"/><path d="m4.25 5.5c-.693 0-1.25.557-1.25 1.25v7.5c0 .693.557 1.25 1.25 1.25h12.5c.693 0 1.25-.557 1.25-1.25v-7.5c0-.693-.557-1.25-1.25-1.25zm9.75 2h1v4h-6v2l-3-2.5 3-2.5v2h5z"/></g></svg>