<svg height="24" width="24" xmlns="http://www.w3.org/2000/svg"><g transform="translate(1 1)"><path d="m3 3v4h1v-3h3v-1zm7 0v3h-4v7h-3v1h7v5h1v-5h8v-1h-3v-7h-5v-3zm5 0v1h3v3h1v-4zm-8 4h3v6h-3zm4 0h4v6h-4zm-8 8v4h4v-1h-3v-3zm15 0v3h-3v1h4v-4z" fill="#555e70"/><path d="m11 5c-.904 0-1.637.603-2.23 1.365-.594.762-1.084 1.73-1.489 2.692-.809 1.921-1.267 3.826-1.267 3.826l.972.234s.448-1.845 1.217-3.674c.385-.914.851-1.82 1.354-2.464.5-.642 1-.972 1.437-.975.42.014.783.185 1.156.543.376.36.74.908 1.077 1.588.643 1.3 1.184 3.072 1.722 4.865h1.047l-.016-.05c-.562-1.876-1.123-3.774-1.857-5.259-.367-.742-.777-1.384-1.281-1.867s-1.127-.805-1.828-.824h-.006z" fill="#3daee9"/></g></svg>