<svg viewBox="0 0 24 24" xmlns="http://www.w3.org/2000/svg"><path d="m2.002 4-.002.002v.996l.002.002h.996l.002-.002v.006c4.313.75 7.625 6.163 7.965 12.789l.93-.93c-.623-6.763-4.25-12.163-8.895-12.863zm8.998 0v3h1v1h1v-1h1v-3zm10 0c-.005 7.065-3.394 13-7.889 13.87l.303.302-.414.414v.34c5.11-.77 9-7.222 9-14.926zm-9 1h1v1h-1zm0 4v1h1v-1zm0 2v1h1v-1zm7 6v1h-1v1h1v1h3v-3zm-3 1v1h1v-1zm4 0h1v1h-1zm-9.01.576c.002.112.01.222.01.334h.324z" fill="#8b9cbe"/><path d="m12 15.344-2.828 2.828 2.828 2.828 2.828-2.828zm0 1.414 1.414 1.414-1.414 1.414-1.414-1.414z" fill="#3daee9"/></svg>