<svg viewBox="0 0 24 24" xmlns="http://www.w3.org/2000/svg"><path d="m10.6 4-.707.707 2.293 2.293h-3.186v1h3.186l-2.293 2.293.707.707 3.293-3.293.207-.207-.207-.207zm-3.1 3a.499.499 0 1 0 0 1 .499.499 0 1 0 0-1zm-3 2a.499.499 0 1 0 0 1 .499.499 0 1 0 0-1zm11.55 0-6.05 6.05 4.95 4.95 6.05-6.05zm0 1.414 3.536 3.535-4.777 4.778-3.536-3.536 4.778-4.777zm-12.55 1.586a.499.499 0 1 0 0 1 .499.499 0 1 0 0-1zm1 3a.499.499 0 1 0 0 1 .499.499 0 1 0 0-1zm3 2a.499.499 0 1 0 0 1 .499.499 0 1 0 0-1z" fill="#8b9cbe"/></svg>