<svg viewBox="0 0 24 24" xmlns="http://www.w3.org/2000/svg"><g fill="#8b9cbe"><path d="m5 4v14h-1v1h1v1h1v-1h14v-1h-.293l-.748-.748-.828-.828-2-2-.004.004-.006-.004-2.123 2.123-1.295-1.295-.828-.828-2-2h-3.875v-1.424h3.875l2-2 .828-.828 1.295-1.295 2.123 2.123.006-.004.004.004 2-2 .828-.828 1.041-1.042-.707-.707-1.041 1.04-.828.829-1.297 1.297-2.127-2.124-.002.002-.002-.002-1.527 1.527h-6.469v-2.992zm1 3h6.46l-.464.465-.828.828-1.707 1.707h-3.461zm0 6.424h3.46l1.708 1.707.828.828.465.465h-6.461zm10.127 2.41 1.297 1.297.828.828.041.041h-12.293v-1.568h6.469l1.527 1.527.002-.002.002.002z"/><path d="m19.934 5.064.066.067v-.004zm.066.067-1.041 1.04-.828.829-2 2-.004-.004-.006.004-2.123-2.123-1.295 1.295-.828.828-2 2h-3.875v1.424h3.875l2 2 .828.828 1.295 1.295 2.123-2.123.006.004.004-.004 2 2 .828.828.748.748h.293v-12.87zm-14 8.293v3h6.46l-.464-.465-.828-.828-1.707-1.707zm10.127 2.41-2.127 2.125-.002-.002-.002.002-1.527-1.527h-6.469v1.568h5l2-.008.008.008h.006l1.992-.008 3.285.006-.039-.039-.828-.828z" fill-opacity=".5"/></g></svg>