<svg height="24" width="24" xmlns="http://www.w3.org/2000/svg">
    <path d="M9.969 4A10.32 10.32 0 0 0 5 5.264l.777 1.787c.781-.384 1.483-.658 2.108-.824a7.566 7.566 0 0 1 1.935-.25c.987 0 1.744.22 2.27.662s.789 1.075.789 1.9c0 .442-.057.83-.172 1.164a3.198 3.198 0 0 1-.592 1c-.28.334-.867.883-1.763 1.65C9.252 13.358 8.1 15.14 8 17h2l-.006-.031c0-.759.132-1.368.395-1.826.271-.467.813-1.055 1.627-1.764.994-.842 1.657-1.475 1.986-1.9.337-.426.588-.875.752-1.35S15 9.107 15 8.49c0-1.417-.448-2.519-1.344-3.303C12.76 4.396 11.531 4 9.97 4zm7.324 9L14 16.293l-.207.207.207.207L17.293 20l.707-.707L15.707 17H20v-1h-4.293L18 13.707zM8 18v2h2v-2z" fill="#555e70"/>
</svg>
