<svg xmlns="http://www.w3.org/2000/svg" width="24" height="24"><defs><style id="current-color-scheme" type="text/css">.ColorScheme-Highlight{color:#3daee9}.ColorScheme-Text{color:#555e70}</style></defs><path style="fill:currentColor;fill-opacity:1;stroke:none" d="m15.045 6.453-.707.707A12.503 12.503 0 0 1 18 16h1c0-3.58-1.424-7.015-3.955-9.547z" class="ColorScheme-Highlight" transform="translate(1 1)"/><path style="fill:currentColor;fill-opacity:1;stroke:none" d="M1 16v1h1v-1H1zm6 0v1h1v-1H7zm2 0v1h2v-1H9zm3 0v1h2v-1h-2zm3 0v1h2v-1h-2zm3 0v1h2v-1h-2zM17 3.293 6.293 14l.707.707L17.707 4 17 3.293z" class="ColorScheme-Text" transform="translate(1 1)"/><path style="fill:currentColor;fill-opacity:1;stroke:none" d="M2 14v5h5v-5H2zm1 1h3v3H3v-3z" class="ColorScheme-Highlight" transform="translate(1 1)"/></svg>