<svg height="24" width="24" xmlns="http://www.w3.org/2000/svg">
    <path d="M12 4a8.008 8.008 0 0 0-2 .266V5.31a7 7 0 0 0-1.316.544l-.008-.007-.733-.733a8 8 0 0 0-2.828 2.828l.522.522.218.219A7 7 0 0 0 5.31 10H4.26A8 8 0 0 0 4 12c.004.675.093 1.347.266 2H5.31a7 7 0 0 0 .544 1.316l-.218.22-.522.52a8 8 0 0 0 2.828 2.829l.522-.522.219-.218A7 7 0 0 0 10 18.69v1.049c.329.086.663.15 1 .194V17.91a6 6 0 0 1-2.473-1.023l-.062.062-.65.65-.004.005a6.995 6.995 0 0 1-1.413-1.416l.002-.002.65-.65.065-.065A6 6 0 0 1 6.085 13H5.077A7.023 7.023 0 0 1 5 12c0-.335.026-.669.074-1H6.09a6 6 0 0 1 1.023-2.473l-.062-.062-.65-.65-.005-.004a6.995 6.995 0 0 1 1.417-1.413l.001.002.65.65.065.065A6 6 0 0 1 11 6.085V5.077c.33-.049.665-.075 1-.076.335.001.67.027 1 .076v1.01a6 6 0 0 1 2.47 1.03l.065-.065.65-.65.002-.003a7.002 7.002 0 0 1 1.417 1.413l-.004.003-.65.65-.063.063A6 6 0 0 1 17.91 11h1.016c.048.331.074.665.074 1-.001.335-.027.67-.076 1h1.006c.043-.331.068-.665.07-1a8 8 0 0 0-.26-2h-1.049a7 7 0 0 0-.546-1.316l.218-.22.522-.52a8 8 0 0 0-2.828-2.829l-.733.733-.008.007A7 7 0 0 0 14 5.311V4.266A8.008 8.008 0 0 0 12 4zm0 7a1 1 0 0 0-1 1 1 1 0 0 0 1 1 1 1 0 0 0 1-1 1 1 0 0 0-1-1zm2 2-2 1.5 2 1.5v-1h5c.554 0 1 .446 1 1h1c0-1.108-.892-2-2-2h-5zm-2 4c0 1.108.892 2 2 2h5v1l2-1.5-2-1.5v1h-5c-.554 0-1-.446-1-1z" fill="#555e70"/>
</svg>
