<svg xmlns="http://www.w3.org/2000/svg" width="24" height="24">
    <g fill="currentColor" style="color:#555e70">
        <path d="M8.047 5.049A7.995 8 0 0 0 4 12a7.995 8 0 0 0 7.994 8 7.995 8 0 0 0 6.938-4.043 7.995 8 0 0 0 .01-.006l-.739-.738a6.996 7 0 0 1-.004.006 6.996 7 0 0 1-3.207.781 6.996 7 0 0 1-6.994-7 6.996 7 0 0 1 .785-3.213zM7.303 6.82A7.995 8 0 0 0 6.998 9a7.995 8 0 0 0 7.994 8 7.995 8 0 0 0 2.188-.313A6.996 7 0 0 1 11.994 19 6.996 7 0 0 1 5 12a6.996 7 0 0 1 2.303-5.18z"/>
        <path d="M11 7v1h2.293l-2 2-.293.293V11h4v-1h-2.293l2-2L15 7.707V7h-.707zm5-3v1h2.293l-2 2-.293.293L19.293 8h4V7H21l2-2-3-.293V4h-.707z"/>
    </g>
</svg>
