<svg xmlns="http://www.w3.org/2000/svg" width="24" height="24"><defs><style id="current-color-scheme" type="text/css"></style></defs><path style="fill:currentColor;color:#8b9cbe" d="M3.063 7.316c.224.25.651.233.75.594.18.11.36.28.468.032.371.33.018.669-.16.978.112.195-.139.393.146.565.2.442.431.793.887.974.098.267.08.573.095.861-.027.278.142.526.062.809-.185.025-.543-.366-.76-.544-1.137-1.074-1.744-2.714-1.489-4.269zm8.283-2.343c-.07.438.312-.044 0 0zm.06-.157c-.129.183.143.03 0 0zm.563.438c-.41-.102-.175.225 0 0zm-.563-.594c.227.109.58.503.624.553.06-.134.378.438.356.53-.08.492-.5-.161-.785-.052-.166-.084.146-.442-.21-.375-.419-.11-.795.246-1.161.133.07-.154.458-.138.507-.413.185-.314.399-.226.669-.376zm-6.781-.156c.053.07-.515.62-.25.188.093-.068.103-.21.25-.188zm.25-.031c.275.09.11.133-.063.28-.097-.048-.046-.275.063-.28zm-.188-.188c.224.24-.383.21 0 0zm5.469-.625c-.319.06-.238.528.06.247.03-.127.202-.255-.06-.247zm-4.187-.187c-.077.318-.506.16-.504.505-.55-.058.343-.44.504-.505zM8 3.003c.803.01 1.608.207 2.313.594.134.16.246.23.03.374-.02.327.457-.052.617.03-.129.255-.569.167-.603.34.44.039.213.585-.151.393-.333-.114-.384.415-.27.596.347-.045.121.363-.082.393-.121.44-.617.556-.74 1.014.105.232-.07.513-.026.733-.031.259.343.41.413.653.377.376.898.164 1.362.063.236.016.333.258.595.239-.01.283-.08.608.226.829.294.399-.334.707-.21 1.083.162.353-.01.919.06 1.112.179.01-.389.404-.517.525-1.343 1.034-3.261 1.328-4.823.634-.065-.109.268.02.156-.218.341.04.463-.246.219-.435.442.188.5-.394.686-.629-.158-.513.774-.298.719-.829-.142-.451.306-.695.36-1.081-.183-.8b9cbe-.786-.306-1.08-.575-.48.036-.295-.68-.797-.618-.402.019-.465-.59-.797-.42-.199.05-.482-.168-.663-.108.051-.223-.471.244-.545.251-.229-.03-.681.002-.515-.41.276-.426-.754-.08-.282-.501.193-.371-.27-.307-.375-.03-.396.107.06-.606.086-.832.049-.28.303-.061.48-.231.277-.009.405.075.417.31.422.22-.082-.52.362-.53.227-.11.509-.263.483-.507.242-.177.573-.264.722-.505.218-.032.418-.267.354.016.232-.092.758-.322.286-.237-.242-.036.163-.355-.186-.298.176-.244.37.14.374-.085.212.03.688-.252.324.097-.276.195.348.16.375.193-.004-.164-.01-.226-.165-.266.33-.328-.185-.424-.138-.742.025-.378-.608.247-.394-.196A5.607 5.607 0 0 1 8 3.004zM8 1a7 7 0 1 0 0 14A7 7 0 0 0 8 1z" transform="translate(4 4)"/></svg>