<svg height="24" width="24" xmlns="http://www.w3.org/2000/svg"><path d="m10 10v1.414l1.586 1.586-1.586 1.586v1.414h1.414l1.586-1.586 1.586 1.586h1.414v-1.414l-1.586-1.586 1.586-1.586v-1.414h-1.414l-1.586 1.586-1.586-1.586zm-3-1c-3.878 0-7 3.122-7 7h1c0-3.324 2.676-6 6-6h2v-1zm2-9v8h1v-.502a2.5 2.5 0 0 0 1.5.502 2.5 2.5 0 0 0 2.5-2.5 2.5 2.5 0 0 0 -2.5-2.5 2.5 2.5 0 0 0 -1.5.504v-3.504zm2.5 4a1.5 1.5 0 0 1 1.5 1.5 1.5 1.5 0 0 1 -1.5 1.5 1.5 1.5 0 0 1 -1.5-1.5 1.5 1.5 0 0 1 1.5-1.5zm-7-1a2.5 2.5 0 0 0 -2.5 2.5 2.5 2.5 0 0 0 2.5 2.5 2.5 2.5 0 0 0 1.5-.504v.504h1v-5h-1v.502a2.5 2.5 0 0 0 -1.5-.502zm0 1a1.5 1.5 0 0 1 1.5 1.5 1.5 1.5 0 0 1 -1.5 1.5 1.5 1.5 0 0 1 -1.5-1.5 1.5 1.5 0 0 1 1.5-1.5z" fill="#8b9cbe" transform="translate(4 4)"/></svg>