<svg xmlns="http://www.w3.org/2000/svg" width="24" height="24"><defs><style id="current-color-scheme" type="text/css"></style></defs><path style="fill:currentColor;color:#8b9cbe" d="M9 5a3 3 0 0 1-3 3 3 3 0 0 1-3-3 3 3 0 0 1 3-3 3 3 0 0 1 3 3zm-3 5c-6 0-6 4-6 4v1h12v-1s0-4-6-4zm5.5-6a2.5 2.5 0 0 0-1.533.525A4 4 0 0 1 10 5a4 4 0 0 1-.824 2.422A2.5 2.5 0 0 0 11.5 9 2.5 2.5 0 0 0 14 6.5 2.5 2.5 0 0 0 11.5 4zm0 6c-.386 0-.754.041-1.111.102C11.982 11.017 13 12.42 13 14h3v-1c0-1.662-2.007-3-4.5-3z" transform="translate(4 4)"/></svg>