<svg xmlns="http://www.w3.org/2000/svg" width="24px" height="24px">
    <defs>
        <linearGradient id="arrongin" x1="0%" x2="0%" y1="0%" y2="100%">
            <stop offset="0%" style="stop-color:#dd9b44"/>
            <stop offset="100%" style="stop-color:#ad6c16"/>
        </linearGradient>
        <linearGradient id="aurora" x1="0%" x2="0%" y1="0%" y2="100%">
            <stop offset="0%" style="stop-color:#09d4df"/>
            <stop offset="100%" style="stop-color:#9269f4"/>
        </linearGradient>
        <linearGradient id="cyberneon" x1="0%" x2="0%" y1="0%" y2="100%">
            <stop offset="0" style="stop-color:#0abdc6"/>
            <stop offset="1" style="stop-color:#ea00d9"/>
        </linearGradient>
        <linearGradient id="fitdance" x1="0%" x2="0%" y1="0%" y2="100%">
            <stop offset="0%" style="stop-color:#e9e9e9"/>
            <stop offset="100%" style="stop-color:#329db6"/>
        </linearGradient>
        <linearGradient id="oomox" x1="0%" x2="0%" y1="0%" y2="100%">
            <stop offset="0%" style="stop-color:#efefe7"/>
            <stop offset="100%" style="stop-color:#8f8f8b"/>
        </linearGradient>
        <linearGradient id="rainblue" x1="0%" x2="0%" y1="0%" y2="100%">
            <stop offset="0%" style="stop-color:#00f260"/>
            <stop offset="100%" style="stop-color:#0575e6"/>
        </linearGradient>
        <linearGradient id="sunrise" x1="0%" x2="0%" y1="0%" y2="100%">
            <stop offset="0%" style="stop-color:#ff8501"/>
            <stop offset="100%" style="stop-color:#ffcb01"/>
        </linearGradient>
        <linearGradient id="telinkrin" x1="0%" x2="0%" y1="0%" y2="100%">
            <stop offset="0%" style="stop-color:#b2ced6"/>
            <stop offset="100%" style="stop-color:#6da5b7"/>
        </linearGradient>
        <linearGradient id="60spsycho" x1="0%" x2="0%" y1="0%" y2="100%">
            <stop offset="0%" style="stop-color:#df5940"/>
            <stop offset="25%" style="stop-color:#d8d15f"/>
            <stop offset="50%" style="stop-color:#e9882a"/>
            <stop offset="100%" style="stop-color:#279362"/>
        </linearGradient>
        <linearGradient id="90ssummer" x1="0%" x2="0%" y1="0%" y2="100%">
            <stop offset="0%" style="stop-color:#f618c7"/>
            <stop offset="20%" style="stop-color:#94ffab"/>
            <stop offset="50%" style="stop-color:#fbfd54"/>
            <stop offset="100%" style="stop-color:#0f83ae"/>
        </linearGradient>
        <style id="current-color-scheme" type="text/css">
            .ColorScheme-Highlight{color:#e9e9e9}
        </style>
    </defs>
    <path fill="currentColor" d="M10.529 19.993c-1.757-.184-2.981-.697-3.885-1.629a4.271 4.271 0 0 1-.82-1.144c-.437-.891-.574-1.893-.36-2.634.212-.737.696-1.55 1.376-2.314.378-.425.57-.7.744-1.046.211-.417.234-.697.216-1.084-.017-.376-.096-.538-.298-.71-.192-.161-.27-.25-.863-.222-.579.028-.863-.008-1.139-.144-.214-.106-.29-.225-.224-.352.345-.274.465-.574.844-.714-.554-.482-1.101-.987-1.12-1.707.039-.386.389-.293.389-.293.548.113 1.115.227 1.632.245.148-.02.305-.06.348-.09.043-.029.16-.2.26-.38.389-.702.801-1.155 1.263-1.388.533-.27 1.286-.414 2-.383.86.037 1.59.34 2.186.908.41.39.681.488 1.071.385.274-.072.28-.071.28.016 0 .116-.09.265-.228.38l-.128.104.129.078c.177.107.156.194-.055.225-.175.025-.307.085-.307.138 0 .02.025.183.056.364.076.444.049 1.305-.054 1.73-.16.66-.4 1.123-.812 1.564-.32.297-1.226.907-1.31.961.04 0 .386-.02.618 0 .85.077 1.442.223 2.295.629.805.383 1.148.424 1.594.192.284-.148.692-.464.996-.882.26-.359.415-.51.657-.51.237 0 .407.159.586.438.254.396.393.678.491 1.367.07.492.051 1.648-.036 2.139-.522 2.933-2.356 4.908-5.157 5.55-.756.174-1.06.206-2.108.217a24.96 24.96 0 0 1-1.126-.004z" style="color:#ececec"/>
</svg>
