<svg xmlns="http://www.w3.org/2000/svg" width="24px" height="24px">
    <defs>
        <linearGradient id="arrongin" x1="0%" x2="0%" y1="0%" y2="100%">
            <stop offset="0%" style="stop-color:#dd9b44"/>
            <stop offset="100%" style="stop-color:#ad6c16"/>
        </linearGradient>
        <linearGradient id="aurora" x1="0%" x2="0%" y1="0%" y2="100%">
            <stop offset="0%" style="stop-color:#09d4df"/>
            <stop offset="100%" style="stop-color:#9269f4"/>
        </linearGradient>
        <linearGradient id="cyberneon" x1="0%" x2="0%" y1="0%" y2="100%">
            <stop offset="0" style="stop-color:#0abdc6"/>
            <stop offset="1" style="stop-color:#ea00d9"/>
        </linearGradient>
        <linearGradient id="fitdance" x1="0%" x2="0%" y1="0%" y2="100%">
            <stop offset="0%" style="stop-color:#e9e9e9"/>
            <stop offset="100%" style="stop-color:#329db6"/>
        </linearGradient>
        <linearGradient id="oomox" x1="0%" x2="0%" y1="0%" y2="100%">
            <stop offset="0%" style="stop-color:#efefe7"/>
            <stop offset="100%" style="stop-color:#8f8f8b"/>
        </linearGradient>
        <linearGradient id="rainblue" x1="0%" x2="0%" y1="0%" y2="100%">
            <stop offset="0%" style="stop-color:#00f260"/>
            <stop offset="100%" style="stop-color:#0575e6"/>
        </linearGradient>
        <linearGradient id="sunrise" x1="0%" x2="0%" y1="0%" y2="100%">
            <stop offset="0%" style="stop-color:#ff8501"/>
            <stop offset="100%" style="stop-color:#ffcb01"/>
        </linearGradient>
        <linearGradient id="telinkrin" x1="0%" x2="0%" y1="0%" y2="100%">
            <stop offset="0%" style="stop-color:#b2ced6"/>
            <stop offset="100%" style="stop-color:#6da5b7"/>
        </linearGradient>
        <linearGradient id="60spsycho" x1="0%" x2="0%" y1="0%" y2="100%">
            <stop offset="0%" style="stop-color:#df5940"/>
            <stop offset="25%" style="stop-color:#d8d15f"/>
            <stop offset="50%" style="stop-color:#e9882a"/>
            <stop offset="100%" style="stop-color:#279362"/>
        </linearGradient>
        <linearGradient id="90ssummer" x1="0%" x2="0%" y1="0%" y2="100%">
            <stop offset="0%" style="stop-color:#f618c7"/>
            <stop offset="20%" style="stop-color:#94ffab"/>
            <stop offset="50%" style="stop-color:#fbfd54"/>
            <stop offset="100%" style="stop-color:#0f83ae"/>
        </linearGradient>
        <style id="current-color-scheme" type="text/css">
            .ColorScheme-Highlight{color:#e9e9e9}
        </style>
    </defs>
    <path fill="currentColor" d="M12 4a7.975 7.975 0 0 0-6.955 4.045 7.981 7.981 0 0 1 5.488-.897l.006-.013a7.904 7.904 0 0 1 .83-1.59c.03-.045.057-.09.088-.135a8.13 8.13 0 0 1 .486-.623l.082-.1c.205-.229.42-.45.649-.654A8.134 8.134 0 0 0 12 4zm3.227.678c-.29.15-.56.329-.819.523-.064.048-.123.102-.185.153-.215.175-.42.361-.608.564l-.09.096a6.036 6.036 0 0 0-1.09 1.765A7.974 7.974 0 0 1 17 15c0 .306-.027.606-.06.902h.01c.34.06.69.098 1.05.098.331 0 .654-.035.97-.086A7.954 7.954 0 0 0 20 12a7.98 7.98 0 0 0-4.773-7.322zM9 9a5.986 5.986 0 0 0-4.982 2.645C4.012 11.763 4 11.88 4 12c0 4.432 3.568 8 8 8 .12 0 .235-.012.354-.018h.002a5.987 5.987 0 0 0 2.218-2.755 7.946 7.946 0 0 1-.936-.525l-.095-.065a7.98 7.98 0 0 1-.818-.623l-.01-.008a7.997 7.997 0 0 1-.735-.74l-.091-.108a7.955 7.955 0 0 1-.586-.78l-.04-.058a7.96 7.96 0 0 1-.486-.884l-.08-.178a7.91 7.91 0 0 1-.345-.908c-.007-.022-.016-.042-.022-.063a7.997 7.997 0 0 1-.254-1.232A8.096 8.096 0 0 1 10 10c0-.306.018-.606.05-.902A6.065 6.065 0 0 0 9 9zm3.014.812c-.002.064-.014.124-.014.188 0 .249.02.492.049.732.009.074.022.146.033.22.028.175.063.349.106.519.017.07.034.141.054.21.066.227.142.45.233.665.096.227.209.446.332.658l.05.084c.116.192.242.377.377.555l.04.052c.306.391.659.743 1.052 1.047l.049.037c.192.146.393.28.602.403l.011.007c.002-.063.012-.125.012-.189a5.98 5.98 0 0 0-2.986-5.188zm4.453 8.032a8.052 8.052 0 0 1-.512 1.111 8 8 0 0 0 1.356-.99l-.008-.002a8.034 8.034 0 0 1-.836-.12z" style="color:#ececec"/>
</svg>
