<svg xmlns="http://www.w3.org/2000/svg" width="24px" height="24px">
    <defs>
        <linearGradient id="arrongin" x1="0%" x2="0%" y1="0%" y2="100%">
            <stop offset="0%" style="stop-color:#dd9b44"/>
            <stop offset="100%" style="stop-color:#ad6c16"/>
        </linearGradient>
        <linearGradient id="aurora" x1="0%" x2="0%" y1="0%" y2="100%">
            <stop offset="0%" style="stop-color:#09d4df"/>
            <stop offset="100%" style="stop-color:#9269f4"/>
        </linearGradient>
        <linearGradient id="cyberneon" x1="0%" x2="0%" y1="0%" y2="100%">
            <stop offset="0" style="stop-color:#0abdc6"/>
            <stop offset="1" style="stop-color:#ea00d9"/>
        </linearGradient>
        <linearGradient id="fitdance" x1="0%" x2="0%" y1="0%" y2="100%">
            <stop offset="0%" style="stop-color:#e9e9e9"/>
            <stop offset="100%" style="stop-color:#329db6"/>
        </linearGradient>
        <linearGradient id="oomox" x1="0%" x2="0%" y1="0%" y2="100%">
            <stop offset="0%" style="stop-color:#efefe7"/>
            <stop offset="100%" style="stop-color:#8f8f8b"/>
        </linearGradient>
        <linearGradient id="rainblue" x1="0%" x2="0%" y1="0%" y2="100%">
            <stop offset="0%" style="stop-color:#00f260"/>
            <stop offset="100%" style="stop-color:#0575e6"/>
        </linearGradient>
        <linearGradient id="sunrise" x1="0%" x2="0%" y1="0%" y2="100%">
            <stop offset="0%" style="stop-color:#ff8501"/>
            <stop offset="100%" style="stop-color:#ffcb01"/>
        </linearGradient>
        <linearGradient id="telinkrin" x1="0%" x2="0%" y1="0%" y2="100%">
            <stop offset="0%" style="stop-color:#b2ced6"/>
            <stop offset="100%" style="stop-color:#6da5b7"/>
        </linearGradient>
        <linearGradient id="60spsycho" x1="0%" x2="0%" y1="0%" y2="100%">
            <stop offset="0%" style="stop-color:#df5940"/>
            <stop offset="25%" style="stop-color:#d8d15f"/>
            <stop offset="50%" style="stop-color:#e9882a"/>
            <stop offset="100%" style="stop-color:#279362"/>
        </linearGradient>
        <linearGradient id="90ssummer" x1="0%" x2="0%" y1="0%" y2="100%">
            <stop offset="0%" style="stop-color:#f618c7"/>
            <stop offset="20%" style="stop-color:#94ffab"/>
            <stop offset="50%" style="stop-color:#fbfd54"/>
            <stop offset="100%" style="stop-color:#0f83ae"/>
        </linearGradient>
        <style id="current-color-scheme" type="text/css">
            .ColorScheme-Text{color:#ececec}
        </style>
    </defs>
    <path fill="currentColor" class="ColorScheme-Text" opacity=".3" d="M12 4a8 8 0 0 0-8 8 7.98 7.98 0 0 0 3.184 6.377c.035-.02.072-.036.107-.057a14.25 14.25 0 0 0 1.652-1.164A5.99 5.99 0 0 1 6 12a6 6 0 0 1 6-6c.726 0 1.418.135 2.063.371a9.099 9.099 0 0 0-.118-1.623c.054-.186.075-.28.116-.467v-.004A7.984 7.984 0 0 0 12 4zm2.178.307c.158.723.213 1.456.213 2.191A6 6 0 0 1 12 18c-.968 0-1.88-.235-2.69-.643-.008.008-.016.017-.025.024a9.22 9.22 0 0 1-1.865 1.172A7.956 7.956 0 0 0 12 20a8 8 0 0 0 8-8c0-3.662-2.464-6.744-5.822-7.693z"/>
    <path fill="currentColor" class="ColorScheme-Text" d="M14.115 4.002c-.019.11-.032.166-.054.28a5.66 5.66 0 0 1-.116.466c.157.89.16 1.807.075 2.703-.02.204-.048.408-.084.612-.02.046.373.037.373.037a6.78 6.78 0 0 0 .06-.631c.052-1.161.046-2.33-.254-3.467zm-.199 4.107c-.381.339-.767.698-1.053 1.106-.69.986-1.129 2.232-2.02 3.084a7.238 7.238 0 0 1-1.216.91c.228.034.481.056.709.01-.46.29-.974.567-1.35.955-.185.19-.378.384-.558.582.145-.09.316-.192.492-.194.291-.003.85-.326.85-.326s-1.052.677-1.483 1.096c-.245.239-.522.466-.732.738-.19.246-.194.24-.194.24.355-.13.715-.265 1.086-.345-.15.054-.221.08-.373.13-.33.131-.706.23-.988.393-.508.297-1.01 1.057-1.363 1.559-.188.265-.497.49-.65.762-.089.156-.08.32-.06.36.156.286.93.527 1.356.632A8.19 8.19 0 0 0 7.945 20c.313-.065.636-.194.866-.414.312-.298.763-.587.943-.973.103-.218.262-.346.267-.35-.235.39-.493.768-.773 1.126-.134.17-.318.384-.318.384.312-.111.639-.295.945-.345.19-.032.4-.12.545-.254.155-.144.39-.2.527-.348.381-.408.638-1.03 1.002-1.459.046-.054.156-.195.24-.31.068-.094.122-.172.122-.172-.194.438-.387.883-.602 1.308l-.004.012a1.791 1.791 0 0 1-.262.338l-.039.043c-.017.019-.007.019.02.004.389-.205.732-.518 1.103-.764l.032-.02c.277-.16.523-.444.728-.671.194-.215.292-.345.344-.65l.004-.028c.063-.442.13-.882.224-1.32.02-.092.034-.17.045-.23 0-.008.002-.019.004-.026l.008-.043.004-.022a.58.58 0 0 1 .006-.033v-.002l.006-.033a1.04 1.04 0 0 1 .029-.094v.047c-.015.774-.14 1.607-.022 2.367.089.563.14.448.14.448.05-.664-.018-1.47.2-2.075.148-.408.385-.85.461-1.29.079-.452.076-.933.065-1.395-.016-.598-.053-1.2-.139-1.797.08.283.198.58.213.871.015.276.024.56.031.842.065-.347.115-.716.076-1.068-.036-.325.027-.656-.01-.975-.047-.418-.06-.869-.203-1.266-.136-.387-.312-.774-.416-1.164a.188.188 0 0 0-.062-.09c-.15 1.065-.515 2.148-.85 3.141-.422 1.257-1.1 2.32-1.736 3.459-.585 1.045-1.512 1.929-2.424 2.672a9.354 9.354 0 0 1-2.62 1.498c-.295.11-.625.148-.936.158-.23.006-.393-.008-.4-.008.676-.145 1.362-.354 1.962-.709 1.665-.986 3.234-2.337 4.211-4.058.621-1.093 1.208-2.165 1.617-3.366.306-.901.624-1.838.797-2.787z"/>
</svg>
