<svg xmlns="http://www.w3.org/2000/svg" width="24px" height="24px">
    <path fill="currentColor" d="M4.8 9c-.442 0-.8.377-.8.846v9.308c0 .469.358.846.8.846h14.4c.442 0 .8-.377.8-.846V9.846c0-.469-.358-.846-.8-.846Zm3.7 2a3.5 3.5 0 0 1 3.5 3.5 3.5 3.5 0 0 1 3.5-3.5 3.5 3.5 0 0 1 3.5 3.5 3.5 3.5 0 0 1-3.5 3.5 3.5 3.5 0 0 1-3.5-3.5A3.5 3.5 0 0 1 8.5 18 3.5 3.5 0 0 1 5 14.5 3.5 3.5 0 0 1 8.5 11Zm0 2A1.5 1.5 0 0 0 7 14.5 1.5 1.5 0 0 0 8.5 16a1.5 1.5 0 0 0 1.5-1.5A1.5 1.5 0 0 0 8.5 13Zm7 0a1.5 1.5 0 0 0-1.5 1.5 1.5 1.5 0 0 0 1.5 1.5 1.5 1.5 0 0 0 1.5-1.5 1.5 1.5 0 0 0-1.5-1.5ZM4.8 4c-.442 0-.8.32-.8.715v3.57c0 .396.358.715.8.715h14.4c.442 0 .8-.32.8-.715v-3.57c0-.396-.358-.715-.8-.715Zm1.071 1H18.13c.482 0 .871.302.871.676v1.648c0 .374-.389.676-.871.676H5.87C5.39 8 5 7.698 5 7.324V5.676C5 5.302 5.389 5 5.871 5ZM6.5 6a.5.5 0 0 0-.5.5.5.5 0 0 0 .5.5.5.5 0 0 0 .5-.5.5.5 0 0 0-.5-.5Zm2 0a.5.5 0 0 0-.5.5.5.5 0 0 0 .5.5.5.5 0 0 0 .5-.5.5.5 0 0 0-.5-.5Zm2 0a.5.5 0 0 0-.5.5.5.5 0 0 0 .5.5.5.5 0 0 0 .5-.5.5.5 0 0 0-.5-.5ZM17 6v1h1V6Z" style="color:#ececec"/>
</svg>
