<svg xmlns="http://www.w3.org/2000/svg" width="24px" height="24px">
    <defs>
        <linearGradient id="arrongin" x1="0%" x2="0%" y1="0%" y2="100%">
            <stop offset="0%" style="stop-color:#dd9b44"/>
            <stop offset="100%" style="stop-color:#ad6c16"/>
        </linearGradient>
        <linearGradient id="aurora" x1="0%" x2="0%" y1="0%" y2="100%">
            <stop offset="0%" style="stop-color:#09d4df"/>
            <stop offset="100%" style="stop-color:#9269f4"/>
        </linearGradient>
        <linearGradient id="cyberneon" x1="0%" x2="0%" y1="0%" y2="100%">
            <stop offset="0" style="stop-color:#0abdc6"/>
            <stop offset="1" style="stop-color:#ea00d9"/>
        </linearGradient>
        <linearGradient id="fitdance" x1="0%" x2="0%" y1="0%" y2="100%">
            <stop offset="0%" style="stop-color:#e9e9e9"/>
            <stop offset="100%" style="stop-color:#329db6"/>
        </linearGradient>
        <linearGradient id="oomox" x1="0%" x2="0%" y1="0%" y2="100%">
            <stop offset="0%" style="stop-color:#efefe7"/>
            <stop offset="100%" style="stop-color:#8f8f8b"/>
        </linearGradient>
        <linearGradient id="rainblue" x1="0%" x2="0%" y1="0%" y2="100%">
            <stop offset="0%" style="stop-color:#00f260"/>
            <stop offset="100%" style="stop-color:#0575e6"/>
        </linearGradient>
        <linearGradient id="sunrise" x1="0%" x2="0%" y1="0%" y2="100%">
            <stop offset="0%" style="stop-color:#ff8501"/>
            <stop offset="100%" style="stop-color:#ffcb01"/>
        </linearGradient>
        <linearGradient id="telinkrin" x1="0%" x2="0%" y1="0%" y2="100%">
            <stop offset="0%" style="stop-color:#b2ced6"/>
            <stop offset="100%" style="stop-color:#6da5b7"/>
        </linearGradient>
        <linearGradient id="60spsycho" x1="0%" x2="0%" y1="0%" y2="100%">
            <stop offset="0%" style="stop-color:#df5940"/>
            <stop offset="25%" style="stop-color:#d8d15f"/>
            <stop offset="50%" style="stop-color:#e9882a"/>
            <stop offset="100%" style="stop-color:#279362"/>
        </linearGradient>
        <linearGradient id="90ssummer" x1="0%" x2="0%" y1="0%" y2="100%">
            <stop offset="0%" style="stop-color:#f618c7"/>
            <stop offset="20%" style="stop-color:#94ffab"/>
            <stop offset="50%" style="stop-color:#fbfd54"/>
            <stop offset="100%" style="stop-color:#0f83ae"/>
        </linearGradient>
        <style id="current-color-scheme" type="text/css">
            .ColorScheme-Highlight{color:#e9e9e9}
        </style>
    </defs>
    <path fill="currentColor" d="M10.337 4c-.046 0-.348.51-.634 1.072-.42.824-.621 1.456-.69 2.188a3.35 3.35 0 0 0-.002.533A2.932 2.932 0 0 0 9 8.029c0 .322.064.626.16.916a7.027 7.027 0 0 0-3.073 2.645 3.671 3.671 0 0 0-.457.748 6.966 6.966 0 0 0-.42 1.31 6.922 6.922 0 0 0-.16.842c-.003.026.005.031.018.028-.013.11-.03.216-.041.332-.033.371-.037.525-.012.525L9 11l-1.032 3.455c.006.006.138-.047.293-.12.955-.439 2.145-1.206 3.198-1.331.362-.043 1.621-.048 2-.008.766.08 1.465.672 2.326.908.381.105.568.13.88.12.313-.012.496-.054.727-.165.576-.277.88-.878.795-1.527-.008-.061-.025-.12-.037-.18.025-.06.002-.163-.096-.334a3.278 3.278 0 0 0-.45-.798c-.791-.87-1.719-1.591-2.767-2.07a2.915 2.915 0 0 0 .155-1.147c.002-.076.01-.15.006-.225-.053-1.017-.648-1.715-1.545-2.174-.475-.243-1.202-.356-1.676-.357-.592-.001-1.041-.51-1.33-.926C10.4 4.054 10.35 4 10.337 4Zm8.495 9.828a2.38 2.38 0 0 1-1.006.932c-.33.158-.736.25-1.123.263a3.862 3.862 0 0 1-1.184-.154c-1.137-.313-1.841-.845-2.164-.879a38.92 38.92 0 0 0-1.777.006c-.665.08-1.83.756-2.899 1.248a6.81 6.81 0 0 1-.244.108 1.896 1.896 0 0 1-.119.045c-.025.008-.05.018-.117.033-.033.007-.073.018-.172.023a3.152 3.152 0 0 1-.229-.012l-.22-.066-.319-.215a1 1 0 0 1-.263-.473l-1.24 1.362a1 1 0 0 1-.667.324A7 7 0 0 0 6.793 20h10.416a7 7 0 0 0 1.79-4.666 7 7 0 0 0-.167-1.506ZM9 16a1 1 0 0 1 1 1 1 1 0 0 1-1 1 1 1 0 0 1-1-1 1 1 0 0 1 1-1zm6 0a1 1 0 0 1 1 1 1 1 0 0 1-1 1 1 1 0 0 1-1-1 1 1 0 0 1 1-1z" style="color:#ececec"/>
</svg>
