<svg xmlns="http://www.w3.org/2000/svg" width="24px" height="24px">
    <defs>
        <linearGradient id="arrongin" x1="0%" x2="0%" y1="0%" y2="100%">
            <stop offset="0%" style="stop-color:#dd9b44"/>
            <stop offset="100%" style="stop-color:#ad6c16"/>
        </linearGradient>
        <linearGradient id="aurora" x1="0%" x2="0%" y1="0%" y2="100%">
            <stop offset="0%" style="stop-color:#09d4df"/>
            <stop offset="100%" style="stop-color:#9269f4"/>
        </linearGradient>
        <linearGradient id="cyberneon" x1="0%" x2="0%" y1="0%" y2="100%">
            <stop offset="0" style="stop-color:#0abdc6"/>
            <stop offset="1" style="stop-color:#ea00d9"/>
        </linearGradient>
        <linearGradient id="fitdance" x1="0%" x2="0%" y1="0%" y2="100%">
            <stop offset="0%" style="stop-color:#e9e9e9"/>
            <stop offset="100%" style="stop-color:#329db6"/>
        </linearGradient>
        <linearGradient id="oomox" x1="0%" x2="0%" y1="0%" y2="100%">
            <stop offset="0%" style="stop-color:#efefe7"/>
            <stop offset="100%" style="stop-color:#8f8f8b"/>
        </linearGradient>
        <linearGradient id="rainblue" x1="0%" x2="0%" y1="0%" y2="100%">
            <stop offset="0%" style="stop-color:#00f260"/>
            <stop offset="100%" style="stop-color:#0575e6"/>
        </linearGradient>
        <linearGradient id="sunrise" x1="0%" x2="0%" y1="0%" y2="100%">
            <stop offset="0%" style="stop-color:#ff8501"/>
            <stop offset="100%" style="stop-color:#ffcb01"/>
        </linearGradient>
        <linearGradient id="telinkrin" x1="0%" x2="0%" y1="0%" y2="100%">
            <stop offset="0%" style="stop-color:#b2ced6"/>
            <stop offset="100%" style="stop-color:#6da5b7"/>
        </linearGradient>
        <linearGradient id="60spsycho" x1="0%" x2="0%" y1="0%" y2="100%">
            <stop offset="0%" style="stop-color:#df5940"/>
            <stop offset="25%" style="stop-color:#d8d15f"/>
            <stop offset="50%" style="stop-color:#e9882a"/>
            <stop offset="100%" style="stop-color:#279362"/>
        </linearGradient>
        <linearGradient id="90ssummer" x1="0%" x2="0%" y1="0%" y2="100%">
            <stop offset="0%" style="stop-color:#f618c7"/>
            <stop offset="20%" style="stop-color:#94ffab"/>
            <stop offset="50%" style="stop-color:#fbfd54"/>
            <stop offset="100%" style="stop-color:#0f83ae"/>
        </linearGradient>
        <style id="current-color-scheme" type="text/css">
            .ColorScheme-Text{color:#ececec}
        </style>
    </defs>
    <path fill="currentColor" class="ColorScheme-Text" d="M17 13c-1.108 0-2 .91-2 2.031V16h-1v4h6v-4h-1v-.969c0-1.12-.892-2.031-2-2.031Zm0 1c.554 0 1 .442 1 1v1h-2v-1c0-.558.446-1 1-1z"/>
    <path fill="currentColor" class="ColorScheme-Text" opacity=".3" d="M12 5C8.95 5 6.08 6.073 4 8l8 11 1-1.375V15h1.014c.02-1.635 1.342-3 2.986-3 .029 0 .055.009.084.01L20 8c-2.081-1.927-4.949-3-8-3Z"/>
    <path fill="currentColor" class="ColorScheme-Text" d="M12 10a7.5 7.5 0 0 0-5.09 2.002L12 19l1-1.375V15h1.014c.02-1.635 1.342-3 2.986-3 .029 0 .055.009.084.01l.004-.006A7.5 7.5 0 0 0 12 10Z"/>
</svg>
