<svg xmlns="http://www.w3.org/2000/svg" width="24px" height="24px">
    <path fill="currentColor" d="M12 4a8 8 0 0 0-.809.041 8 8 0 0 0-.78.12 7.894 7.894 0 0 0-.608.153 8 8 0 0 0-.178.047c-.036.012-.07.028-.105.04a8 8 0 0 0-3.68 2.505l-.012.012a8 8 0 0 0-.39.523c-.029.04-.06.079-.086.12a8 8 0 0 0-.272.443c-.05.087-.103.174-.15.264a8 8 0 0 0-.194.404c-.046.1-.094.2-.136.303a8 8 0 0 0-.159.43 8.238 8.238 0 0 0-.107.325 8 8 0 0 0-.098.377c-.035.145-.07.29-.097.438a8 8 0 0 0-.05.324c-.02.147-.041.293-.054.442A8 8 0 0 0 4 12a8 8 0 0 0 .041.809v.007a8 8 0 0 0 .12.774c.041.206.096.407.153.607a8 8 0 0 0 .047.174c.012.037.027.073.04.11a8 8 0 0 0 2.505 3.68l.012.01a8 8 0 0 0 .523.392c.04.028.079.058.12.085a8 8 0 0 0 .443.272c.087.05.174.103.264.15a8 8 0 0 0 .404.194c.1.046.2.094.303.136a8 8 0 0 0 .025.01v-2.95a2.136 2.136 0 0 1-.459.005 2.633 2.633 0 0 0-.31-.022c-.044 0-.075-.006-.168.022-.011.003-.03.012-.043.017A6 6 0 0 1 6 12a6 6 0 0 1 2.264-4.695c-.237.52-.394 1.187-.393 1.736a4.62 4.62 0 0 0 .32 1.605c.052.129.114.301.3.416.185.116.319.11.505.131.162.019.497.094.645.145 1.49.512 2.19 2.218 1.49 3.646l-.01.016h1.684l-.092-.273c-.539-1.63.41-3.22 2.082-3.502.147-.025.294-.035.443-.032 1.039.025 2.063.72 2.438 1.717.03.08.05.14.07.188l.031.068c.007.013.011.024.022.043.005.01.013.022.023.037.007.01.02.023.035.04A6 6 0 0 1 17.191 15h2.22a8 8 0 0 0 .148-.404c.037-.108.074-.216.107-.326a8 8 0 0 0 .098-.377c.035-.145.07-.29.097-.438a8 8 0 0 0 .05-.324c.02-.147.041-.293.054-.442A8 8 0 0 0 20 12a8 8 0 0 0-.041-.809 8 8 0 0 0 0-.007 7.94 7.94 0 0 0-.12-.774 7.895 7.895 0 0 0-.153-.607c-.016-.055-.027-.112-.043-.166a8 8 0 0 0-.004-.012c-.012-.036-.028-.07-.04-.105a8 8 0 0 0-2.505-3.68 8 8 0 0 0-.01-.01l-.002-.002a8 8 0 0 0-.523-.39c-.04-.029-.079-.06-.12-.086a8 8 0 0 0-.443-.272c-.087-.05-.174-.103-.264-.15a8 8 0 0 0-.404-.194c-.1-.046-.2-.094-.303-.136a8 8 0 0 0-.43-.159 8.238 8.238 0 0 0-.325-.107 8 8 0 0 0-.377-.098 7.89 7.89 0 0 0-.438-.097 8 8 0 0 0-.324-.05c-.147-.02-.293-.041-.442-.054A8 8 0 0 0 12 4Zm0 2a6 6 0 0 1 5.959 5.363 4.088 4.088 0 0 0-.592-.75c-.657-.65-1.458-1.037-2.404-1.164-.14-.019-.259-.053-.451.018-.193.07-.287.224-.344.32-.082.139-.55.618-.813.785-.743.475-2.015.476-2.761 0-.883-.562-1.387-1.665-1.229-2.636.09-.55.326-1.028.713-1.438.08-.085.14-.152.19-.207.011-.013.02-.03.03-.041A6 6 0 0 1 12 6ZM8.72 8.83l.003.002a3.28 3.28 0 0 0 .783 1.658c-.146-.033-.288-.079-.418-.094-.146-.016-.153-.02-.14-.01-.006-.01-.004-.007-.016-.036a4.161 4.161 0 0 1-.26-1.313c0-.055.043-.14.049-.207zm6.102 1.399c.01 0-.025.007.033.015.327.044.526.272.795.381-.338-.051-.644-.246-.99-.187-.069.01-.089.092-.156.107.102-.114.246-.2.318-.316zm-1.574 1.167c-.579.47-1.04 1.056-1.275 1.717-.223-.638-.644-1.226-1.188-1.695a3.353 3.353 0 0 0 2.463-.022z" style="color:#ececec"/>
    <path fill="currentColor" d="M10 16v5h1v-1.293L12.293 21H13v-.707L11.707 19H13v-3h-1zm4 0v5h3v-1h-2v-1h2v-1h-2v-1h2v-1zm4 0v5h3v-1h-2v-3h2v-1zm-7 1h1v1h-1z" style="color:#e9e9e9"/>
</svg>
