<svg xmlns="http://www.w3.org/2000/svg" width="24px" height="24px">
    <defs>
        <linearGradient id="arrongin" x1="0%" x2="0%" y1="0%" y2="100%">
            <stop offset="0%" style="stop-color:#dd9b44"/>
            <stop offset="100%" style="stop-color:#ad6c16"/>
        </linearGradient>
        <linearGradient id="aurora" x1="0%" x2="0%" y1="0%" y2="100%">
            <stop offset="0%" style="stop-color:#09d4df"/>
            <stop offset="100%" style="stop-color:#9269f4"/>
        </linearGradient>
        <linearGradient id="cyberneon" x1="0%" x2="0%" y1="0%" y2="100%">
            <stop offset="0" style="stop-color:#0abdc6"/>
            <stop offset="1" style="stop-color:#ea00d9"/>
        </linearGradient>
        <linearGradient id="fitdance" x1="0%" x2="0%" y1="0%" y2="100%">
            <stop offset="0%" style="stop-color:#e9e9e9"/>
            <stop offset="100%" style="stop-color:#329db6"/>
        </linearGradient>
        <linearGradient id="oomox" x1="0%" x2="0%" y1="0%" y2="100%">
            <stop offset="0%" style="stop-color:#efefe7"/>
            <stop offset="100%" style="stop-color:#8f8f8b"/>
        </linearGradient>
        <linearGradient id="rainblue" x1="0%" x2="0%" y1="0%" y2="100%">
            <stop offset="0%" style="stop-color:#00f260"/>
            <stop offset="100%" style="stop-color:#0575e6"/>
        </linearGradient>
        <linearGradient id="sunrise" x1="0%" x2="0%" y1="0%" y2="100%">
            <stop offset="0%" style="stop-color:#ff8501"/>
            <stop offset="100%" style="stop-color:#ffcb01"/>
        </linearGradient>
        <linearGradient id="telinkrin" x1="0%" x2="0%" y1="0%" y2="100%">
            <stop offset="0%" style="stop-color:#b2ced6"/>
            <stop offset="100%" style="stop-color:#6da5b7"/>
        </linearGradient>
        <linearGradient id="60spsycho" x1="0%" x2="0%" y1="0%" y2="100%">
            <stop offset="0%" style="stop-color:#df5940"/>
            <stop offset="25%" style="stop-color:#d8d15f"/>
            <stop offset="50%" style="stop-color:#e9882a"/>
            <stop offset="100%" style="stop-color:#279362"/>
        </linearGradient>
        <linearGradient id="90ssummer" x1="0%" x2="0%" y1="0%" y2="100%">
            <stop offset="0%" style="stop-color:#f618c7"/>
            <stop offset="20%" style="stop-color:#94ffab"/>
            <stop offset="50%" style="stop-color:#fbfd54"/>
            <stop offset="100%" style="stop-color:#0f83ae"/>
        </linearGradient>
        <style id="current-color-scheme" type="text/css">
            .ColorScheme-Highlight{color:#e9e9e9}
        </style>
    </defs>
    <path fill="currentColor" d="M13.473 19.859c-.446-.27-.73-.738-1.968-3.24-.684-1.386-1.337-2.617-1.449-2.735-.125-.133-1.158-.682-2.7-1.435C4.31 10.962 4 10.726 4 9.883c0-.393.192-.77.493-.965.103-.068 3.289-1.208 7.079-2.533 6.66-2.33 6.907-2.41 7.362-2.382.394.024.508.064.697.245.284.27.411.645.356 1.046-.06.43-4.84 13.937-5.019 14.176-.379.51-1.022.678-1.496.39z" style="color:#ececec"/>
</svg>
