<svg xmlns="http://www.w3.org/2000/svg" width="24px" height="24px">
    <defs>
        <linearGradient id="arrongin" x1="0%" x2="0%" y1="0%" y2="100%">
            <stop offset="0%" style="stop-color:#dd9b44"/>
            <stop offset="100%" style="stop-color:#ad6c16"/>
        </linearGradient>
        <linearGradient id="aurora" x1="0%" x2="0%" y1="0%" y2="100%">
            <stop offset="0%" style="stop-color:#09d4df"/>
            <stop offset="100%" style="stop-color:#9269f4"/>
        </linearGradient>
        <linearGradient id="cyberneon" x1="0%" x2="0%" y1="0%" y2="100%">
            <stop offset="0" style="stop-color:#0abdc6"/>
            <stop offset="1" style="stop-color:#ea00d9"/>
        </linearGradient>
        <linearGradient id="fitdance" x1="0%" x2="0%" y1="0%" y2="100%">
            <stop offset="0%" style="stop-color:#e9e9e9"/>
            <stop offset="100%" style="stop-color:#329db6"/>
        </linearGradient>
        <linearGradient id="oomox" x1="0%" x2="0%" y1="0%" y2="100%">
            <stop offset="0%" style="stop-color:#efefe7"/>
            <stop offset="100%" style="stop-color:#8f8f8b"/>
        </linearGradient>
        <linearGradient id="rainblue" x1="0%" x2="0%" y1="0%" y2="100%">
            <stop offset="0%" style="stop-color:#00f260"/>
            <stop offset="100%" style="stop-color:#0575e6"/>
        </linearGradient>
        <linearGradient id="sunrise" x1="0%" x2="0%" y1="0%" y2="100%">
            <stop offset="0%" style="stop-color:#ff8501"/>
            <stop offset="100%" style="stop-color:#ffcb01"/>
        </linearGradient>
        <linearGradient id="telinkrin" x1="0%" x2="0%" y1="0%" y2="100%">
            <stop offset="0%" style="stop-color:#b2ced6"/>
            <stop offset="100%" style="stop-color:#6da5b7"/>
        </linearGradient>
        <linearGradient id="60spsycho" x1="0%" x2="0%" y1="0%" y2="100%">
            <stop offset="0%" style="stop-color:#df5940"/>
            <stop offset="25%" style="stop-color:#d8d15f"/>
            <stop offset="50%" style="stop-color:#e9882a"/>
            <stop offset="100%" style="stop-color:#279362"/>
        </linearGradient>
        <linearGradient id="90ssummer" x1="0%" x2="0%" y1="0%" y2="100%">
            <stop offset="0%" style="stop-color:#f618c7"/>
            <stop offset="20%" style="stop-color:#94ffab"/>
            <stop offset="50%" style="stop-color:#fbfd54"/>
            <stop offset="100%" style="stop-color:#0f83ae"/>
        </linearGradient>
        <style id="current-color-scheme" type="text/css">
            .ColorScheme-Text{color:#ececec}
        </style>
    </defs>
    <path fill="currentColor" d="M10.03 6.001a4.04 4.04 0 0 0-1.189.22c-1.693.574-2.969 2.241-3.347 4.312-1.111.268-2.049 1.248-2.377 2.656-.466 2 .503 4.062 2.158 4.624.027.008.035.024.063.031.228.1.493.156.75.156h11.98c.43 0 .822-.147 1.158-.406 1.34-.774 2.074-2.618 1.657-4.405-.307-1.321-1.168-2.29-2.19-2.625-.009-.044.01-.08 0-.125-.465-2-2.193-3.156-3.847-2.594-.318.108-.61.255-.876.47C13.058 6.832 11.576 5.96 10.028 6zm-1.032 4h.782a.76.76 0 0 1 .5.25L12 11.939l1.752-1.688c.2-.172.32-.243.5-.25h.752v.75c0 .215-.026.413-.189.563l-1.72 1.719 1.69 1.687c.14.142.219.33.219.531v.75h-.751c-.2 0-.39-.078-.532-.219l-1.719-1.689-1.72 1.688a.747.747 0 0 1-.532.22H9v-.75a.75.75 0 0 1 .219-.532l1.72-1.687-1.72-1.719a.69.69 0 0 1-.22-.563V10z" style="color:#e9e9e9"/>
</svg>
