<svg xmlns="http://www.w3.org/2000/svg" width="24px" height="24px">
    <defs>
        <linearGradient id="arrongin" x1="0%" x2="0%" y1="0%" y2="100%">
            <stop offset="0%" style="stop-color:#dd9b44"/>
            <stop offset="100%" style="stop-color:#ad6c16"/>
        </linearGradient>
        <linearGradient id="aurora" x1="0%" x2="0%" y1="0%" y2="100%">
            <stop offset="0%" style="stop-color:#09d4df"/>
            <stop offset="100%" style="stop-color:#9269f4"/>
        </linearGradient>
        <linearGradient id="cyberneon" x1="0%" x2="0%" y1="0%" y2="100%">
            <stop offset="0" style="stop-color:#0abdc6"/>
            <stop offset="1" style="stop-color:#ea00d9"/>
        </linearGradient>
        <linearGradient id="fitdance" x1="0%" x2="0%" y1="0%" y2="100%">
            <stop offset="0%" style="stop-color:#e9e9e9"/>
            <stop offset="100%" style="stop-color:#329db6"/>
        </linearGradient>
        <linearGradient id="oomox" x1="0%" x2="0%" y1="0%" y2="100%">
            <stop offset="0%" style="stop-color:#efefe7"/>
            <stop offset="100%" style="stop-color:#8f8f8b"/>
        </linearGradient>
        <linearGradient id="rainblue" x1="0%" x2="0%" y1="0%" y2="100%">
            <stop offset="0%" style="stop-color:#00f260"/>
            <stop offset="100%" style="stop-color:#0575e6"/>
        </linearGradient>
        <linearGradient id="sunrise" x1="0%" x2="0%" y1="0%" y2="100%">
            <stop offset="0%" style="stop-color:#ff8501"/>
            <stop offset="100%" style="stop-color:#ffcb01"/>
        </linearGradient>
        <linearGradient id="telinkrin" x1="0%" x2="0%" y1="0%" y2="100%">
            <stop offset="0%" style="stop-color:#b2ced6"/>
            <stop offset="100%" style="stop-color:#6da5b7"/>
        </linearGradient>
        <linearGradient id="60spsycho" x1="0%" x2="0%" y1="0%" y2="100%">
            <stop offset="0%" style="stop-color:#df5940"/>
            <stop offset="25%" style="stop-color:#d8d15f"/>
            <stop offset="50%" style="stop-color:#e9882a"/>
            <stop offset="100%" style="stop-color:#279362"/>
        </linearGradient>
        <linearGradient id="90ssummer" x1="0%" x2="0%" y1="0%" y2="100%">
            <stop offset="0%" style="stop-color:#f618c7"/>
            <stop offset="20%" style="stop-color:#94ffab"/>
            <stop offset="50%" style="stop-color:#fbfd54"/>
            <stop offset="100%" style="stop-color:#0f83ae"/>
        </linearGradient>
        <style id="current-color-scheme" type="text/css">
            .ColorScheme-Text{color:#ececec}.ColorScheme-Highlight{color:#e9e9e9}
        </style>
    </defs>
    <path fill="#ececec" d="M4 6.333h3.381c.508 0 .96.321 1.128.8l4.317 12.348-1.195-4.092 5.746-7.539 2.483 2.345L15.216 5h3.907c.406 0 .736.33.736.736v4.459l-7.034 9.285H9.423c-.467 0-.884-.294-1.04-.735L4 6.333Z"/>
    <path fill="url(#paint0_linear)" d="M17.53 12.002c-.11.374-.255.737-.412 1.093-.796 1.764-2.01 2.955-2.148 4.078-.003.017-.012.035-.014.051l.01.004c-.004.039-.012.077-.013.116-.027 1.393 1.056 2.551 2.42 2.587 1.365.035 2.493-1.066 2.52-2.46.001-.038-.005-.077-.007-.116l.01-.003c-.002-.017-.01-.035-.013-.052-.092-1.129-1.26-2.381-1.985-4.185a9.25 9.25 0 0 1-.368-1.113Z"/>
    <defs>
        <linearGradient id="paint0_linear" x1="17.499" x2="17.325" y1="11.999" y2="19.956" gradientUnits="userSpaceOnUse">
            <stop stop-color="#e9e9e9"/>
            <stop offset="1" stop-color="#329db6"/>
        </linearGradient>
    </defs>
</svg>
