<svg height="48" width="48" xmlns="http://www.w3.org/2000/svg"><g transform="matrix(2 0 0 2 2 2)"><circle cx="15" cy="9" opacity=".2" r="6"/><circle cx="15" cy="8.5" fill="#e54333" r="6"/><path d="m15 2.5a6 6 0 0 0 -6 6 6 6 0 0 0 .01.285 6 6 0 0 1 5.99-5.785 6 6 0 0 1 5.99 5.715 6 6 0 0 0 .01-.215 6 6 0 0 0 -6-6z" fill="#f4f4f7" opacity=".2"/><circle cx="7" cy="11" opacity=".2" r="6"/><circle cx="7" cy="10.5" fill="#0fd925" r="6"/><path d="m7 4.5a6 6 0 0 0 -6 6 6 6 0 0 0 .01.285 6 6 0 0 1 5.99-5.785 6 6 0 0 1 5.99 5.715 6 6 0 0 0 .01-.215 6 6 0 0 0 -6-6z" fill="#f4f4f7" opacity=".2"/><circle cx="13" cy="14" opacity=".2" r="6"/><circle cx="13" cy="13.5" fill="#4168b5" r="6"/><path d="m13 7.5a6 6 0 0 0 -6 6 6 6 0 0 0 .01.285 6 6 0 0 1 5.99-5.785 6 6 0 0 1 5.99 5.715 6 6 0 0 0 .01-.215 6 6 0 0 0 -6-6z" fill="#f4f4f7" opacity=".2"/></g></svg>