<svg height="48" width="48" xmlns="http://www.w3.org/2000/svg"><path d="m24 6c-11.55 0-20.998 9.45-20.998 21-.005 1.701 0 3 .108 4.903.304 4.796 3.241 8.216 5.884 9.874 2.702 1.694 5.357 2.146 5.37 2.148 3.07.558 5.64-2.098 5.638-4.805v-15.237c0-1.746-1.052-3.443-2.656-4.295 1.774-1.598 4.092-2.58 6.654-2.584 2.564 0 4.885.983 6.662 2.582-1.607.852-2.66 2.55-2.66 4.297v15.241c-.002 2.706 2.568 5.363 5.638 4.805h.004c.018 0 2.666-.456 5.365-2.148 2.647-1.66 5.589-5.086 5.887-9.891.104-1.89.104-3.24.104-4.89 0-11.55-9.45-21-21-21z" opacity=".2"/><path d="m24 5c-11.55 0-20.998 9.45-20.998 21-.005 1.701 0 3 .108 4.903.304 4.796 3.241 8.216 5.884 9.874 2.702 1.694 5.357 2.146 5.37 2.148 3.07.558 5.64-2.098 5.638-4.805v-15.237c0-1.746-1.052-3.443-2.656-4.295 1.774-1.598 4.092-2.58 6.654-2.584 2.564 0 4.885.983 6.662 2.582-1.607.852-2.66 2.55-2.66 4.297v15.241c-.002 2.706 2.568 5.363 5.638 4.805h.004c.018 0 2.666-.456 5.365-2.148 2.647-1.66 5.589-5.086 5.887-9.891.104-1.89.104-3.24.104-4.89 0-11.55-9.45-21-21-21z" fill="#9071d6"/><path d="m24 10a17 17 0 0 0 -17 17v4h.006c-.001.062-.006.122-.006.186.014 3.66 2.127 5.952 4.117 7.2 1.99 1.249 3.96 1.602 3.96 1.602a.794.878 0 0 0 .923-.867v-15.241a.794.878 0 0 0 -.816-.879.794.878 0 0 0 -.045 0s-1.985.18-3.996 1.266a8.816 8.816 0 0 0 -.965.617 14 14 0 0 1 13.822-11.884 14 14 0 0 1 13.83 11.89 8.793 8.793 0 0 0 -.973-.622c-2.01-1.086-3.996-1.266-3.996-1.266a.794.878 0 0 0 -.045 0 .794.878 0 0 0 -.816.877v15.241a.794.878 0 0 0 .924.867s1.969-.353 3.959-1.601c1.99-1.249 4.103-3.542 4.117-7.201 0-.064-.005-.123-.006-.186h.006v-4a17 17 0 0 0 -17-17z" opacity=".2"/><path d="m24 9a17 17 0 0 0 -17 17v4h.006c-.001.062-.006.122-.006.186.014 3.66 2.127 5.952 4.117 7.2 1.99 1.249 3.96 1.602 3.96 1.602a.794.878 0 0 0 .923-.867v-15.241a.794.878 0 0 0 -.816-.879.794.878 0 0 0 -.045 0s-1.985.18-3.996 1.266a8.816 8.816 0 0 0 -.965.617 14 14 0 0 1 13.822-11.884 14 14 0 0 1 13.83 11.89 8.808 8.808 0 0 0 -.973-.622c-2.01-1.086-3.996-1.266-3.996-1.266a.794.878 0 0 0 -.045 0 .794.878 0 0 0 -.816.877v15.241a.794.878 0 0 0 .924.867s1.969-.353 3.959-1.601c1.99-1.249 4.103-3.542 4.117-7.201 0-.064-.005-.123-.006-.186h.006v-4a17 17 0 0 0 -17-16.999z" fill="#f4f4f7"/><path d="m24 5c-11.55 0-20.998 9.449-20.998 21 0 .3.004.558.004.838.088-11.478 9.498-20.838 20.994-20.838 11.488 0 20.895 9.348 20.996 20.814 0-.271.004-.529.004-.814 0-11.551-9.45-21-21-21zm5.984 14.023c-1.216.924-1.984 2.369-1.984 3.857v1c0-1.748 1.054-3.446 2.66-4.297a10.36 10.36 0 0 0 -.676-.559zm-11.963 0c-.233.177-.46.363-.677.559 1.604.852 2.656 2.548 2.656 4.295v-.996c0-1.486-.764-2.93-1.979-3.854z" fill="#f4f4f7" opacity=".2"/><circle cx="35.5" cy="35.5" opacity=".2" r="10.5"/><circle cx="35.5" cy="34.5" fill="#b7b7b7" r="10.5"/><g fill="#17191e"><circle cx="35.5" cy="29.5" r="2.5"/><circle cx="35.5" cy="39.5" r="2.5"/><circle cx="34.5" cy="-40.5" r="2.5" transform="rotate(90)"/><circle cx="34.5" cy="-30.5" r="2.5" transform="rotate(90)"/></g></svg>