<svg width="48" height="48" xmlns="http://www.w3.org/2000/svg"><path d="M23.957 4A17.962 12 0 0 0 5.996 16a17.962 12 0 0 0 .253 2h35.397a17.962 12 0 0 0 .273-2A17.962 12 0 0 0 23.957 4z" style="fill:#c77100"/><path d="M9.987 21v12c0 6 5.987 12 5.987 12H31.94s3.992-6 3.992-10h5.987l-5.987-12-11.975-4z" style="opacity:.2"/><path d="M9.987 20v12c0 6 5.987 12 5.987 12H31.94s3.992-6 3.992-10h5.987l-5.987-12-11.975-4z" style="fill:#e7c3b9"/><path d="m23.957 19-13.97 2v12c0 2.705 1.225 5.38 2.561 7.535.83-.637 4.475-3.573 8.919-8.035 2.49-2.5 4.665-3.112 6.482-5.5v-6.668z" style="opacity:.1"/><path d="m23.957 18-13.97 2v12c0 2.705 1.225 5.38 2.561 7.535.83-.637 4.475-3.573 8.919-8.035 2.49-2.5 4.665-3.112 6.482-5.5v-6.668z" style="fill:#a32501"/><ellipse cx="32.938" cy="28" rx="2.994" ry="3" style="opacity:.1"/><path d="M6.994 17a2.994 3 0 1 0 0 6H40.92a2.994 3 0 1 0 0-6z" style="opacity:.2"/><path d="M6.994 19H40.92" style="fill:none;stroke-linecap:round;stroke-linejoin:round;stroke-width:5.9936008;stroke:#fb8e00"/><ellipse cx="32.938" cy="27" rx="2.994" ry="3" style="fill:#4f4f4f"/><path d="M18.925 24.941a4.99 5 0 0 0-4.104 7.829l2.046 3.082c1.36-1.223 2.886-2.631 4.6-4.352 1.032-1.036 1.994-1.73 2.915-2.379l-1.255-1.89a4.99 5 0 0 0-4.202-2.29z" style="opacity:.2"/><path d="m23.955 36.5-4.98-7.5" style="fill:none;stroke-linecap:round;stroke-linejoin:round;stroke-width:9.9893351;stroke:#e7c3b9"/><path d="M23.957 4A17.962 12 0 0 0 5.996 16a17.962 12 0 0 0 .03.426A17.962 12 0 0 1 23.958 5a17.962 12 0 0 1 17.927 11.543 17.962 12 0 0 0 .035-.543A17.962 12 0 0 0 23.957 4z" style="fill:#f4f4f7;opacity:.1"/><path d="M6.994 16a2.994 3 0 0 0-2.99 3.492A2.994 3 0 0 1 6.994 17H40.92a2.994 3 0 0 1 2.99 2.508A2.994 3 0 0 0 40.92 16z" style="fill:#f4f4f7;opacity:.2"/></svg>