<svg xmlns="http://www.w3.org/2000/svg" height="48" width="48"><rect style="fill:#62400c" rx="2" ry="2" height="40" width="40" y="4" x="4"/><path style="opacity:.1;fill:#f4f4f7" d="M6 4c-1.108 0-2 .892-2 2v1c0-1.108.892-2 2-2h36c1.108 0 2 .892 2 2V6c0-1.108-.892-2-2-2z"/><path style="opacity:.2" d="M4 42v1c0 1.108.892 2 2 2h36c1.108 0 2-.892 2-2v-1c0 1.108-.892 2-2 2H6c-1.108 0-2-.892-2-2z"/><path d="M162.15 175.18c5.109 3.135 14.876 11.799 23.094 11.799 8.396 0 15.525-4.236 15.525-8.849 0-4.619-2.834-10.288-13.241-13.796-18.439-6.279-25.559-13.795-25.375-24.315 0-16.991 14.238-29.731 36.328-29.731 10.407 0 17.61 3.131 23.084 5.9v17.697c-4.019-2.218-14.504-5.899-22.17-5.899-6.758 0-13.479 4.463-13.479 9.076 0 5.935 6.36 6.464 17.313 10.344 16.976 5.908 24.096 14.584 24.277 27.879 0 16.805-12.954 30.168-38.701 29.357-8.835-.278-19.901-2.175-26.656-5.864l.001-23.597z" transform="matrix(.16831 0 0 .16951 -1.29 .305)" style="opacity:.2"/><path style="fill:#f29517" d="M162.15 175.18c5.109 3.135 14.876 11.799 23.094 11.799 8.396 0 15.525-4.236 15.525-8.849 0-4.619-2.834-10.288-13.241-13.796-18.439-6.279-25.559-13.795-25.375-24.315 0-16.991 14.238-29.731 36.328-29.731 10.407 0 17.61 3.131 23.084 5.9v17.697c-4.019-2.218-14.504-5.899-22.17-5.899-6.758 0-13.479 4.463-13.479 9.076 0 5.935 6.36 6.464 17.313 10.344 16.976 5.908 24.096 14.584 24.277 27.879 0 16.805-12.954 30.168-38.701 29.357-8.835-.278-19.901-2.175-26.656-5.864l.001-23.597z" transform="matrix(.16831 0 0 .16951 -1.29 -.695)"/><path style="opacity:.2" d="M11 15v20h4v-6h8v-3.008h-8V18h9l-1-3h-8z"/><path style="fill:#f29517" d="M11 14v20h4v-6h8v-3.008h-8V17h9l-1-3H11z"/></svg>