<svg xmlns="http://www.w3.org/2000/svg" height="48" width="48"><path style="opacity:.2" d="M4 42v1c0 1.108.892 2 2 2h36c1.108 0 2-.892 2-2v-1c0 1.108-.892 2-2 2H6c-1.108 0-2-.892-2-2z"/><rect style="fill:#ce6f23" rx="2" ry="2" height="40" width="40" y="4" x="4"/><path style="opacity:.1;fill:#f4f4f7" d="M6 4c-1.108 0-2 .892-2 2v1c0-1.108.892-2 2-2h36c1.108 0 2 .892 2 2V6c0-1.108-.892-2-2-2z"/><path style="opacity:.2" d="m17 15-4 20h4l.8-6h3l1.2 6h4l-5-20zm14 0a2 2 0 0 0-2 2 2 2 0 0 0 2 2 2 2 0 0 0 2-2 2 2 0 0 0-2-2zm-12 5 1.2 6h-2zm10 1v14h4V21z"/><path style="fill:#fed642" d="m17 14-4 20h4l.8-6h3l1.2 6h4l-5-20h-4zm14 0a2 2 0 0 0-2 2 2 2 0 0 0 2 2 2 2 0 0 0 2-2 2 2 0 0 0-2-2zm-12 5 1.2 6h-2l.8-6zm10 1v14h4V20h-4z"/></svg>