<svg height="48" width="48" xmlns="http://www.w3.org/2000/svg">
    <rect height="34" opacity=".2" rx="2.129" ry="2.155" width="40" x="4" y="9"/>
    <rect fill="#ec4b02" height="4" rx="1.281" ry="1.386" width="36" x="6" y="6"/>
    <path d="M7.281 6C6.571 6 6 6.617 6 7.385v1C6 7.617 6.571 7 7.281 7H40.72c.709 0 1.28.617 1.28 1.385v-1C42 6.617 41.429 6 40.719 6H7.28z" fill="#f4f4f7" fill-rule="evenodd" opacity=".2"/>
    <rect fill="#959595" height="34" rx="2.129" ry="2.155" width="40" x="4" y="8"/>
    <path d="M8 12h32v26H8z" fill="#14232b"/>
    <path d="M21.974 14h4.052L35 36h-3.763L24 19.197 16.763 36H13z" opacity=".2"/>
    <path d="m22.182 28.175-.57 1.382c1.532 4.72 1.532 4.72 2.388 8.837.856-4.117.856-4.117 2.388-8.837l-.57-1.382L24 23.771z" opacity=".2"/>
    <path d="m22.182 27.175-.57 1.382c1.532 4.72 1.532 4.72 2.388 8.837.856-4.117.856-4.117 2.388-8.837l-.57-1.382L24 22.77z" fill="#3c98fe"/>
    <path d="M21.974 13h4.052L35 35h-3.763L24 18.197 16.763 35H13z" fill="#ec7a02"/>
    <path d="M8 12h32v1H8z" opacity=".2"/>
    <g fill="#f4f4f7">
        <path d="M8 38h32v1H8z" opacity=".2"/>
        <path d="M6.129 8C4.949 8 4 8.962 4 10.156v1C4 9.962 4.95 9 6.129 9H41.87c1.181 0 2.13.962 2.13 2.156v-1C44 8.962 43.05 8 41.871 8H6.13z" fill-rule="evenodd" opacity=".2"/>
        <path d="m24 22.77-1.818 4.406-.57 1.38.181.563.389-.943L24 23.77l1.818 4.405.389.943c.07-.215.104-.325.182-.562l-.57-1.381z" opacity=".2"/>
        <path d="M21.975 13 13 35h.408l8.567-21h4.05l8.567 21H35l-8.975-22z" opacity=".2"/>
    </g>
</svg>
