<svg xmlns="http://www.w3.org/2000/svg" width="48" height="48"><path style="opacity:.2" d="M19.282 6.179c-1.751.727-3.503 1.451-5.254 2.176-.879.364-1.103.816-.769 1.859l.716 2.239a16.062 16.062 0 0 0-2.536 2.518l-2.225-.712c-1.043-.334-1.495-.11-1.859.769-.724 1.752-1.45 3.503-2.176 5.254-.364.878-.204 1.356.77 1.858l2.093 1.079c-.17 1.223-.112 2.43-.011 3.568L5.947 27.86c-.973.502-1.133.98-.77 1.858.728 1.751 1.452 3.503 2.177 5.254.364.879.816 1.103 1.859.769l2.239-.716a16.062 16.062 0 0 0 2.518 2.536l-.712 2.225c-.334 1.043-.11 1.495.769 1.859 1.752.724 3.503 1.45 5.254 2.176.878.364 1.356.204 1.858-.769l1.079-2.094c1.223.171 2.43.112 3.568.011l1.073 2.083c.502.973.98 1.133 1.858.769 1.751-.727 3.503-1.452 5.254-2.177.879-.363 1.103-.815.769-1.858l-.716-2.239a16.105 16.105 0 0 0 2.536-2.518l2.225.712c1.043.334 1.495.11 1.859-.769.724-1.752 1.45-3.503 2.176-5.254.364-.878.204-1.356-.769-1.858l-2.094-1.079c.17-1.223.112-2.43.011-3.568l2.083-1.073c.973-.502 1.133-.98.769-1.858-.727-1.751-1.451-3.503-2.176-5.254-.364-.879-.816-1.103-1.859-.769l-2.239.716a16.062 16.062 0 0 0-2.518-2.536l.712-2.225c.334-1.043.11-1.495-.769-1.859-1.752-.724-3.503-1.45-5.254-2.176-.878-.364-1.356-.204-1.858.77l-1.079 2.093c-1.223-.17-2.43-.112-3.568-.011L21.14 6.948c-.536-.943-1.014-.995-1.858-.77z"/><path style="fill:#16aca8" d="M19.282 5.179c-1.751.727-3.503 1.451-5.254 2.176-.879.364-1.103.816-.769 1.859l.716 2.239a16.062 16.062 0 0 0-2.536 2.518l-2.225-.712c-1.043-.334-1.495-.11-1.859.769-.724 1.752-1.45 3.503-2.176 5.254-.364.878-.204 1.356.77 1.858l2.093 1.079c-.17 1.223-.112 2.43-.011 3.568L5.947 26.86c-.973.502-1.133.98-.77 1.858.728 1.751 1.452 3.503 2.177 5.254.364.879.816 1.103 1.859.769l2.239-.716a16.062 16.062 0 0 0 2.518 2.536l-.712 2.225c-.334 1.043-.11 1.495.769 1.859 1.752.724 3.503 1.45 5.254 2.176.878.364 1.356.204 1.858-.769l1.079-2.094c1.223.171 2.43.112 3.568.011l1.073 2.083c.502.973.98 1.133 1.858.769 1.751-.727 3.503-1.452 5.254-2.177.879-.363 1.103-.815.769-1.858l-.716-2.239a16.105 16.105 0 0 0 2.536-2.518l2.225.712c1.043.334 1.495.11 1.859-.769.724-1.752 1.45-3.503 2.176-5.254.364-.878.204-1.356-.769-1.858l-2.094-1.079c.17-1.223.112-2.43.011-3.568l2.083-1.073c.973-.502 1.133-.98.769-1.858-.727-1.751-1.451-3.503-2.176-5.254-.364-.879-.816-1.103-1.859-.769l-2.239.716a16.062 16.062 0 0 0-2.518-2.536l.712-2.225c.334-1.043.11-1.495-.769-1.859-1.752-.724-3.503-1.45-5.254-2.176-.878-.364-1.356-.204-1.858.77l-1.079 2.093c-1.223-.17-2.43-.112-3.568-.011L21.14 5.948c-.536-.943-1.014-.995-1.858-.77z"/><path style="opacity:.2" d="m24 12-12 6v6l17.455 5.818L24 32.5 17 29v-1.333L12 26v6l12 6 12-6v-6l-17.455-5.818L24 17.5l7 3.5v1.333L36 24v-6z"/><path style="fill:#f4f4f7" d="m24 11-12 6v6l17.455 5.818L24 31.5 17 28v-1.333L12 25v6l12 6 12-6v-6l-17.455-5.818L24 16.5l7 3.5v1.333L36 23v-6z"/><path style="fill:#f4f4f7;opacity:.2" d="M27.877 5.006c-.399.043-.704.333-1.018.941l-1.078 2.096c-1.223-.17-2.43-.113-3.568-.012l-1.072-2.084c-.536-.942-1.016-.993-1.86-.767-1.751.727-3.503 1.45-5.254 2.176-.807.334-1.036.764-.814 1.636.132-.268.395-.463.814-.637 1.751-.724 3.503-1.449 5.254-2.175.844-.226 1.324-.175 1.86.767l1.072 2.084c1.138-.1 2.345-.159 3.568.012l1.078-2.096c.502-.973.982-1.131 1.86-.767 1.751.726 3.502 1.451 5.254 2.175.419.174.682.37.814.637.222-.872-.007-1.302-.814-1.637-1.752-.724-3.503-1.45-5.254-2.175-.33-.137-.603-.2-.842-.174zm6.4 6.656-.248.777c.931.749 1.776 1.6 2.518 2.536l2.238-.715c1.043-.334 1.496-.112 1.86.767.725 1.751 1.448 3.503 2.175 5.254.029.068.031.12.053.184.184-.318.154-.686-.053-1.184-.727-1.751-1.45-3.503-2.175-5.254-.364-.879-.817-1.101-1.86-.767l-2.238.715a16.011 16.011 0 0 0-2.27-2.313zm-20.55.012a16.025 16.025 0 0 0-2.288 2.297l-2.226-.711c-1.043-.334-1.494-.112-1.857.767L5.18 19.281c-.207.498-.237.866-.053 1.184.022-.064.025-.116.053-.184l2.176-5.254c.363-.879.814-1.101 1.857-.767l2.226.711c.749-.931 1.6-1.776 2.536-2.518l-.248-.779zm-5.774 11.5c-.02.385-.014.763-.004 1.14a11.3 11.3 0 0 1 .092-1.095l-.088-.045zm32.068.012-.052.027c.042.477.066.971.08 1.469a15.462 15.462 0 0 0-.028-1.496zM7.977 25.814l-2.03 1.045c-.897.463-1.08.921-.82 1.676.14-.242.4-.458.82-.676l2.084-1.072c-.028-.316-.037-.647-.054-.973zm32.068.012c-.017.317-.044.636-.088.955l2.096 1.078c.421.218.68.434.82.676.259-.755.077-1.213-.82-1.676l-2.008-1.033zm-5.772 11.5c-.085.071-.161.152-.248.221l.715 2.238c.028.086.027.145.047.223.145-.294.128-.677-.047-1.223l-.467-1.459zm-20.55.012-.463 1.447c-.175.546-.192.929-.047 1.223.02-.078.019-.137.047-.223l.711-2.224c-.087-.07-.163-.152-.248-.223z"/></svg>