<svg xmlns="http://www.w3.org/2000/svg" width="48" height="48"><rect style="opacity:.2" width="36" height="34" x="6" y="9" rx="1.8" ry="1.7"/><rect style="fill:#4f4f4f" width="36" height="34" x="6" y="8" rx="1.8" ry="1.7"/><rect style="opacity:.2" width="44" height="4" x="2" y="7" rx="2" ry="2"/><rect style="fill:#a5b1b3" width="44" height="4" x="2" y="6" rx="2" ry="2"/><path style="opacity:.2" d="M15.621 17.879 13.5 20l4.94 4.94-4.94 4.939L15.621 32l6-6 1.06-1.06 4.94-4.94-2.121-2.121-4.94 4.94-4.939-4.94z"/><path style="fill:none;stroke:#236ac6;stroke-width:3" d="m26.56 17.94-6 6"/><path style="opacity:.1;fill:#f4f4f7" d="m25.5 16.879-6 6 .5.5 5.5-5.5 1.621 1.621.5-.5-2.121-2.121z"/><path style="fill:none;stroke:#3498db;stroke-width:3" d="m14.56 17.94 6 6-6 6"/><path style="opacity:.2" d="M24 33v3h11v-3z"/><path style="fill:none;stroke:#3498db;stroke-width:3" d="M24 33.5h11"/><path style="opacity:.2;fill:#f4f4f7" d="M4 6c-1.108 0-2 .892-2 2 0 .174.029.34.07.5A1.99 1.99 0 0 1 4 7h40a1.99 1.99 0 0 1 1.93 1.5c.041-.16.07-.326.07-.5 0-1.108-.892-2-2-2H4zM15.621 16.879 13.5 19l.5.5 1.621-1.621 6.56 6.56.5-.5-7.06-7.06zm2.318 7.56L13.5 28.88l.5.5 4.44-4.44-.5-.5zM24 32v1h11v-1H24z"/></svg>