<svg height="64" width="64" xmlns="http://www.w3.org/2000/svg" xmlns:xlink="http://www.w3.org/1999/xlink"><linearGradient id="a"><stop offset="0" stop-color="#232323"/><stop offset="1" stop-color="#5f5f5f"/></linearGradient><filter id="b" color-interpolation-filters="sRGB" height="1.054" width="1.054" x="-.027" y="-.027"><feGaussianBlur stdDeviation=".61875"/></filter><linearGradient id="c" gradientUnits="userSpaceOnUse" x1="4.5" x2="59.5" y1="59.490001" y2="4.490001"><stop offset="0" stop-color="#dee0e2"/><stop offset="1" stop-color="#f1f3f5" stop-opacity=".996078"/></linearGradient><linearGradient id="d" gradientUnits="userSpaceOnUse" x1="39.304" x2="39.304" y1="55.823" y2="49.448"><stop offset="0" stop-color="#ff4e4e"/><stop offset="1" stop-color="#d00" stop-opacity=".97647"/></linearGradient><linearGradient id="e" gradientUnits="userSpaceOnUse" x1="27.355" x2="27.355" y1="30.203" y2="8"><stop offset="0" stop-color="#78502d"/><stop offset="1" stop-color="#c2752f"/></linearGradient><linearGradient id="f" gradientUnits="userSpaceOnUse" x1="32.928" x2="32.928" y1="42.679" y2="25.535"><stop offset="0" stop-color="#b76e2c"/><stop offset="1" stop-color="#cd7e35"/></linearGradient><linearGradient id="g" gradientUnits="userSpaceOnUse" x1="32.952" x2="32.952" y1="54.202" y2="39.883"><stop offset="0" stop-color="#707070"/><stop offset="1" stop-color="#8e8e8e" stop-opacity=".87778"/></linearGradient><linearGradient id="h" gradientUnits="userSpaceOnUse" x1="32.297" x2="32.297" y1="54.23" y2="39.887"><stop offset="0" stop-color="#c6c6c6"/><stop offset="1" stop-color="#e4e4e4" stop-opacity=".99444"/></linearGradient><linearGradient id="i" gradientUnits="userSpaceOnUse" x1="34.865" x2="34.865" xlink:href="#a" y1="35.1" y2="37.492"/><linearGradient id="j" gradientUnits="userSpaceOnUse" x1="28.489" x2="28.489" xlink:href="#a" y1="35.1" y2="37.492"/><circle cx="-1248.7" cy="-1241.6" fill="#5e4aa6" r="0"/><circle cx="-149.14999" cy="23.855" fill="#5e4aa6" fill-rule="evenodd" r="0"/><rect fill="#141414" filter="url(#b)" height="55" opacity=".3" ry="15" stroke-linecap="round" stroke-width="2.74436" width="55" x="4.5" y="4.5"/><rect fill="url(#c)" height="54.999996" ry="14.999999" stroke-linecap="round" stroke-width="2.74436" width="54.999996" x="4.500002" y="4.500002"/><g stroke-width=".89321" transform="matrix(.94097128 0 0 .94097128 4.068009 1.972256)"><circle cx="39.304001" cy="52.634998" fill="url(#d)" r="3.1879"/><path d="m39 8c-.47123-.00617-1.241 1.0174-1.8529 1.9333-1.395 2.0879-2.8553 4.3721-4.2818 7.2487-1.4187 2.8607-1.5486 2.726-1.3794 8.7241 1.06.05877 3.3053.61675 4.2948 1.1122.14436-.2489.28586-.65817.41924-.92581 2.0936-4.2022 2.5436-10.601 3.1412-15.677.21001-1.7838.02547-2.4107-.34104-2.4155zm-23.306 7.9451c-1.5566.0995 1.7236 5.971 2.6892 7.4638.87582 1.3539 3.0504 3.6619 4.7898 5.5293.37273.40013.70548.74723 1.0209 1.0753 0 0 .20306.27996.33573.15994.75013-.67862 3.1886-3.3131 4.119-3.6715l-.1233-.19425c-2.5526-3.7948-6.737-7.1112-11.847-10.021-.44064-.25094-.76165-.35526-.98402-.34104z" fill="url(#e)"/><path d="m30.945 25.535c-3.5126.32692-5.8355 2.1929-7.2093 4.8413-.21367.66148-.32928 1.3957-.32928 2.1986 0 2.7774.86794 4.923.61931 7.7448-.33693 3.8243-3.2064 6.1332-1.9321 9.5899.02644.08453.03442.16176.06542.24788.2631.73076.78643 1.4878 1.5221 2.3323.11912.13673.26074.25574.4056.3729.57808.47734 1.341.80782 2.2199 1.0217.60108.14627 1.2529.24224 1.9255.29962.22901.0195.46052.03382.69345.04525l.19844-.02589c2.3606.0922 4.834-.17219 6.2803-.25004.34547-.01859.69225-.05679 1.038-.11208 1.068-.17087 2.1227-.51284 3.0944-.99154h.0065c.04702-.02369.08859-.05532.1352-.07975.37021-.18939.7332-.39077 1.0729-.61863 1.0872-.72918 1.997-1.6455 2.5906-2.6901.50662-.89137.78038-1.8761.74143-2.9164-.01287-1.0774-.34353-2.2149-1.0947-3.3734-2.4473-3.7741-5.1023-8.4074-5.2402-13.453-.07412-.73502-.33483-1.3758-.73707-1.9227-1.3816-1.694-4.1397-2.2521-6.0666-2.2611z" fill="url(#f)"/><path d="m36.047 39.888c1.2699 0 2.4439-.02683 3.3208.27885.94638.32984 1.5463 1.0471 1.5463 2.6035 0 1.4234-2.2145 3.5109-2.873 5.4625.22157 1.6765.76063 3.3366 1.5025 4.6166.42022-.20749.8245-.44074 1.2067-.69729 1.0866-.72918 1.9955-1.6459 2.5888-2.6905 1.0009-1.762 1.1039-3.8877-.35296-6.0899-3.531-6.8788-17.462-1.957-20.11.95159-.13666.92431-1.7541 2.9306-.70868 5.8357.26296.73075.78598 1.4865 1.5213 2.331.5943.68248 1.5262 1.113 2.6247 1.375.60075.14331 1.2512.23619 1.9235.2924.22888.0191.46021.03398.69302.04518-.0015-1.0742.07589-2.1445.05272-3.1666-.002-.08885-.0049-.17737-.0084-.26547-.23106-2.3458-4.5444-2.7965-4.5444-6.0934 0-.68366.22627-1.2727.61965-1.7795 1.9551-2.5189 8.0381-3.0095 10.997-3.0095z" fill="url(#g)"/><path d="m36.047 39.888c-2.9591 0-9.0421.49064-10.997 3.0095 1.3155 1.6949 2.3491 3.2564 3.2832 5.0609.44401.85775.59979 1.8093.64152 2.812.0084.08591.01125.17425.0084.26547.02317 1.0221-.05429 2.0924-.0527 3.1666 2.4179.11614 4.9889-.16828 6.4748-.2483.34528-.01859.69197-.05613 1.0375-.11142 1.0697-.17125 2.1281-.51319 3.1009-.99347-.7419-1.28-1.281-2.94-1.5025-4.6166-.07301-.55223-.11154-1.1061-.11154-1.6489 0-1.6987.6369-4.6826 1.4382-6.417-.87686-.3056-2.0509-.27876-3.3208-.27876z" fill="url(#h)"/><path d="m28.333 47.958c-.93418-1.8045-1.9678-3.366-3.2832-5.0609-.39338.50688-.61965 1.0959-.61965 1.7795 0 3.2969 4.3134 3.7475 4.5444 6.0934-.04173-1.0026-.19752-1.9542-.64152-2.812z" fill="#3f3f3f"/><path d="m39.368 40.166c-.80132 1.7344-1.4382 4.7184-1.4382 6.417 0 .5428.03851 1.0967.11154 1.6489.65851-1.9515 2.873-4.0391 2.873-5.4625 0-1.5564-.59996-2.2736-1.5463-2.6035z" fill="#3f3f3f"/><path d="m34.642 31.982c-.676.19066-1.7684 3.1314-1.7696 4.0932-.0016 1.2566.39592 1.7385 1.1554 2.3097.75944.57121 4.4142 1.2701 4.4231-.06819.0088-1.3179-.03963-2.4371-.21663-3.178-.17701-.74092-.53742-2.1448-1.2638-2.7494-.45645-.37986-1.6524-.598-2.3284-.40734z" fill="#fff"/><circle cx="34.865002" cy="36.296001" fill="url(#i)" r="1.196"/><path d="m30.432 35.486c-.13169-.98465-1.4238-2.6503-2.2406-3.1787-2.063-1.3344-3.4471.98338-3.2748 2.911.12802 1.4326.89495 5.3832 2.6543 4.5505 1.7593-.83268 3.1993-1.7558 2.8611-4.2828z" fill="#fff"/><circle cx="28.489" cy="36.296001" fill="url(#j)" r="1.196"/></g></svg>