<svg height="48" width="48" xmlns="http://www.w3.org/2000/svg">
    <rect height="40" opacity=".2" rx="3" width="40" x="4" y="5"/>
    <rect fill="#16a1db" height="40" rx="3" width="40" x="4" y="4"/>
    <path d="m17 12-5 6-5 6h5v14h10V24h5l-5-6zm14 4v9h-4l3.5 4 3.5 4 3.5-4 3.5-4h-4v-9z" opacity=".2"/>
    <g fill="#f4f4f7">
        <path d="M7 4C5.338 4 4 5.338 4 7v1c0-1.662 1.338-3 3-3h34c1.662 0 3 1.338 3 3V7c0-1.662-1.338-3-3-3z" opacity=".2"/>
        <path d="M12 21h10v16H12z"/>
        <path d="m17 11 5 6 5 6H7l5-6z"/>
    </g>
    <g fill="#a2cced">
        <path d="M31 26h6V15h-6z"/>
        <path d="m34 32 3.5-4 3.5-4H27l3.5 4z"/>
    </g>
</svg>
