<svg height="48" width="48" xmlns="http://www.w3.org/2000/svg"><path d="m24.154 45 .002-.004a19.954 19.954 0 0 0 19.844-19.996c0-11.08-8.92-20-20-20a19.952 19.952 0 0 0 -19.963 18.811l-.037.035v17.154c0 2.216 1.784 4 4 4z" opacity=".2"/><path d="m24.154 44 .002-.004a19.954 19.954 0 0 0 19.844-19.996c0-11.08-8.92-20-20-20a19.952 19.952 0 0 0 -19.963 18.811l-.037.035v17.154c0 2.216 1.784 4 4 4z" fill="#3d3b67"/><path d="m13.5 13.5 8 13 1.502 7.5 7.998-5.5.967-2.973 3.033.473-1.885-4h-5.865l-3.75-6.5zm8 13-3.5 14 5.5-4z" opacity=".2"/><path d="m27.206 21h5.91l-2.116 6.5z" fill="#f4f4f7"/><path d="m33.116 21 1.884 4-3.089-.482z" fill="#3a88d6"/><path d="m21.5 25.5 9.5 2-7.998 5.5z" fill="#f4f4f7"/><path d="m24 4a19.952 19.952 0 0 0 -19.963 18.81l-.037.037v1l.037-.035a19.952 19.952 0 0 1 19.963-18.812 19.952 19.952 0 0 1 19.988 19.5c.004-.167.012-.332.012-.5 0-11.08-8.92-20-20-20z" fill="#f4f4f7" opacity=".1"/><path d="m21.5 25.5 2 10-5.5 4z" fill="#3a88d6"/><path d="m13.5 12.5 10 2 7.5 13-9.5-2z" fill="#0365db"/></svg>