<svg xmlns="http://www.w3.org/2000/svg" width="48" height="48"><path style="opacity:.2" d="m38.772 5-6.803 6.795c-2.345-2.175-3.601-3.046-6.164-2.637-2.165.346-3.498 2.087-4.228 4.262-.731 2.175-.614 2.622-1.704 3.492-1.793 1.433-5.356.77-8.29 1.537-3.332.87-6.306 3.863-7.215 7.42-1.179 4.543.512 8.28 4.549 12.566 3.767 4.006 7.97 6.578 11.685 6.565 3.46 0 7.317-1.997 9.636-5.63 1.538-2.407.794-8.472 2.024-10.046 1.781-2.277 5.318-1.6 6.254-3.455.845-1.676.437-3.466-1.063-4.195-.922-.448-1.834-.55-2.449-.807-.474-.192-.833-.73-.781-1.383L44 9.71c-.11-1.397-.599-2.362-1.357-3.321-.94-.922-2.272-1.234-3.383-1.388z"/><path style="fill:#3194ed" d="m38.772 4-6.803 6.795c-2.345-2.175-3.601-3.046-6.164-2.637-2.165.346-3.498 2.087-4.228 4.262-.731 2.175-.614 2.622-1.704 3.492-1.793 1.433-5.356.77-8.29 1.537-3.332.87-6.306 3.863-7.215 7.42-1.179 4.543.512 8.28 4.549 12.567 3.767 4.005 7.97 6.577 11.685 6.564 3.46 0 7.317-1.997 9.636-5.63 1.538-2.406.794-8.472 2.024-10.046 1.781-2.277 5.318-1.6 6.254-3.455.845-1.676.437-3.466-1.063-4.195-.922-.448-1.834-.55-2.449-.807-.474-.192-.833-.73-.781-1.383L44 8.71c-.11-1.397-.599-2.362-1.357-3.321-.94-.922-2.272-1.234-3.383-1.388z"/><path style="opacity:.2" d="m42.293 5.293-25 25 1.414 1.414L24 26.414V36h2V24.414L43.707 6.707z"/><path style="fill:#f4f4f7" d="M41.81 4.775 17.294 29.293l1.414 1.414L24 25.414V35h2V23.414L43.207 6.207a7.754 7.754 0 0 0-.564-.818 3.97 3.97 0 0 0-.832-.614z"/><path style="opacity:.2" d="M25 21a3 3 0 1 0 0 6 3 3 0 0 0 0-6zm-8 8a3 3 0 1 0 0 6 3 3 0 0 0 0-6zm8 4a3 3 0 1 0 0 6 3 3 0 0 0 0-6z"/><circle style="fill:#f4f4f7" cx="17" cy="31" r="3"/><circle style="fill:#f4f4f7" cx="25" cy="35" r="3"/><circle style="fill:#f4f4f7" cx="25" cy="23" r="3"/><path style="fill:#f4f4f7;opacity:.2" d="m38.771 4-6.802 6.795c-2.345-2.175-3.602-3.046-6.164-2.637-2.166.346-3.498 2.087-4.229 4.262-.73 2.175-.614 2.622-1.703 3.492-1.794 1.433-5.357.77-8.291 1.537-3.331.87-6.305 3.863-7.215 7.42a10.697 10.697 0 0 0-.351 3.3c.034-.747.146-1.51.351-2.3.91-3.557 3.884-6.55 7.215-7.42 2.934-.768 6.497-.104 8.291-1.537 1.09-.87.973-1.317 1.703-3.492.73-2.175 2.063-3.916 4.229-4.262 2.562-.41 3.819.462 6.164 2.637L38.77 5h.489c1.111.154 2.443.467 3.383 1.389.59.746 1.01 1.502 1.222 2.455L44 8.709c-.11-1.397-.599-2.36-1.357-3.32-.94-.922-2.272-1.235-3.383-1.389h-.489zm-4.37 15.307-.178.177c-.052.653.307 1.191.78 1.383.616.256 1.528.359 2.45.807.835.406 1.32 1.146 1.45 2.008.2-1.273-.304-2.45-1.45-3.008-.922-.448-1.834-.55-2.45-.807-.248-.1-.46-.302-.603-.56z"/></svg>