<svg height="48" width="48" xmlns="http://www.w3.org/2000/svg"><rect fill="#3c7fb0" height="40" rx="2" width="40" x="4" y="4"/><path d="m6 4c-1.108 0-2 .892-2 2v1c0-1.108.892-2 2-2h36c1.108 0 2 .892 2 2v-1c0-1.108-.892-2-2-2z" fill="#f4f4f7" opacity=".1"/><path d="m4 42v1c0 1.108.892 2 2 2h36c1.108 0 2-.892 2-2v-1c0 1.108-.892 2-2 2h-36c-1.108 0-2-.892-2-2z" opacity=".2"/><g fill="#f4f4f7"><rect height="4" opacity=".4" rx="2" width="13" x="23" y="22"/><rect height="4" opacity=".4" rx="2" width="22" x="14" y="30"/><rect height="4" opacity=".4" rx="2" width="22" x="14" y="14"/></g><circle cx="16" cy="17" opacity=".2" r="4"/><circle cx="16" cy="16" fill="#f4f4f7" r="4"/><circle cx="16" cy="33" opacity=".2" r="4"/><circle cx="16" cy="32" fill="#f4f4f7" r="4"/><circle cx="22" cy="25" opacity=".2" r="4"/><circle cx="22" cy="24" fill="#f4f4f7" r="4"/></svg>