<svg height="48" width="48" xmlns="http://www.w3.org/2000/svg">
    <rect height="40" opacity=".2" rx="2" width="40" x="4" y="5"/>
    <rect fill="#6c4ac4" height="40" rx="2" width="40" x="4" y="4"/>
    <path d="M10 11 8 37s0 2 2 2h28c2 0 2-2 2-2l-2-26z" opacity=".2"/>
    <path d="M10 10 8 36s0 2 2 2h28c2 0 2-2 2-2l-2-26z" fill="#f4f4f7"/>
    <path d="M17 15a3 3 0 0 0-3 3 3 3 0 0 0 3 3 3 3 0 0 0 3-3 3 3 0 0 0-3-3zm14 0a3 3 0 0 0-3 3 3 3 0 0 0 3 3 3 3 0 0 0 3-3 3 3 0 0 0-3-3z" opacity=".2"/>
    <circle cx="17" cy="17" fill="#ccc" r="3"/>
    <circle cx="31" cy="17" fill="#ccc" r="3"/>
    <path d="M16.984 17a1 1 0 0 0-.976 1.113s.252 2.609 1.316 5.266c.532 1.328 1.265 2.692 2.344 3.77C20.747 28.225 22.223 29 24 29s3.253-.774 4.332-1.852c1.079-1.077 1.812-2.44 2.344-3.77 1.064-2.656 1.316-5.265 1.316-5.265a1 1 0 1 0-1.988-.199s-.248 2.386-1.184 4.723c-.468 1.168-1.106 2.302-1.902 3.097C26.122 26.53 25.223 27 24 27s-2.122-.47-2.918-1.266c-.796-.795-1.434-1.929-1.902-3.097-.936-2.337-1.184-4.723-1.184-4.723A1 1 0 0 0 16.984 17z" opacity=".2"/>
    <path d="M17 17s1 10 7 10 7-10 7-10" fill="none" stroke="#6c4ac4" stroke-linecap="round" stroke-linejoin="round" stroke-width="2"/>
    <path d="M6 4c-1.108 0-2 .892-2 2v1c0-1.108.892-2 2-2h36c1.108 0 2 .892 2 2V6c0-1.108-.892-2-2-2zm4 6L8 36s.008.155.047.367L10 11h28l1.953 25.367C39.993 36.155 40 36 40 36l-2-26z" fill="#f4f4f7" opacity=".2"/>
</svg>
