<svg height="48" width="48" xmlns="http://www.w3.org/2000/svg"><circle cx="24" cy="25" opacity=".2" r="20"/><circle cx="24" cy="24" fill="#17191e" r="20"/><path d="m24 4a20 20 0 0 0 -20 20 20 20 0 0 0 .02.586 20 20 0 0 1 19.98-19.586 20 20 0 0 1 19.98 19.414 20 20 0 0 0 .02-.414 20 20 0 0 0 -20-20z" fill="#f4f4f7" opacity=".1"/><path d="m28 39-19-19 26-7z" fill="none" stroke="#236ae4" stroke-width="4"/><circle cx="9" cy="21" opacity=".2" r="7"/><circle cx="9" cy="20" fill="#71d1ff" r="7"/><circle cx="35" cy="14" opacity=".2" r="7"/><circle cx="35" cy="13" fill="#71d1ff" r="7"/><circle cx="28" cy="40" opacity=".2" r="7"/><circle cx="28" cy="39" fill="#71d1ff" r="7"/><path d="m35 6a7 7 0 0 0 -7 7 7 7 0 0 0 .023.459 7 7 0 0 1 6.977-6.459 7 7 0 0 1 6.977 6.541 7 7 0 0 0 .023-.541 7 7 0 0 0 -7-7zm-26 7a7 7 0 0 0 -7 7 7 7 0 0 0 .023.459 7 7 0 0 1 6.977-6.459 7 7 0 0 1 6.977 6.541 7 7 0 0 0 .023-.541 7 7 0 0 0 -7-7zm19 19a7 7 0 0 0 -7 7 7 7 0 0 0 .023.459 7 7 0 0 1 6.977-6.459 7 7 0 0 1 6.977 6.541 7 7 0 0 0 .023-.541 7 7 0 0 0 -7-7z" fill="#f4f4f7" opacity=".2"/></svg>