<svg height="48" width="48" xmlns="http://www.w3.org/2000/svg"><rect fill="#17191e" height="40" rx="2" width="40" x="4" y="4"/><path d="m6 4c-1.108 0-2 .892-2 2v1c0-1.108.892-2 2-2h36c1.108 0 2 .892 2 2v-1c0-1.108-.892-2-2-2z" fill="#fff" opacity=".1"/><path d="m6 45c-1.108 0-2-.892-2-2v-1c0 1.108.892 2 2 2h36c1.108 0 2-.892 2-2v1c0 1.108-.892 2-2 2z" opacity=".2"/><g fill="none"><path d="m10 24.5h14.6l-7.058-10h2.503l7.658 10.5-7.733 10.5h2.553l7.582-10.5-7.507-10.5h2.477l7.433 10.5-7.433 10.5h2.402l7.183-10h3.34" opacity=".2" stroke="#000"/><path d="m10 23.5h14.6l-7.058-10h2.503l7.658 10.5-7.733 10.5h2.553l7.582-10.5-7.507-10.5h2.477l7.433 10.5-7.433 10.5h2.402l7.183-10h3.34" stroke="#ffb81b"/></g></svg>