<svg xmlns="http://www.w3.org/2000/svg" width="48" height="48"><circle style="opacity:.2" cx="24" cy="25" r="20"/><circle style="fill:#207bf6" cx="24" cy="24" r="20"/><path style="opacity:.2;fill:#f4f4f7" d="M24 4A20 20 0 0 0 4 24a20 20 0 0 0 .021.582A20 20 0 0 1 24 5a20 20 0 0 1 19.979 19.418A20 20 0 0 0 44 24 20 20 0 0 0 24 4z"/><path style="opacity:.2" d="M24 13a8 8 0 0 0-7.94 7.066A8 8 0 0 0 9 28a8 8 0 0 0 8 8h14a8 8 0 0 0 8-8 8 8 0 0 0-7.066-7.94A8 8 0 0 0 24 13z"/><circle style="fill:#f4f4f7" cx="24" cy="20" r="8"/><circle style="fill:#f4f4f7" cx="17" cy="27" r="8"/><circle style="fill:#f4f4f7" cx="31" cy="27" r="8"/><path style="fill:#f4f4f7" d="M17 27.59h14v7.405H17z"/><path style="fill:none;stroke:#207bf6;stroke-width:1px" d="M20 26s1.58 1.5 4 1.5 4-1.5 4-1.5"/><path style="fill:none;stroke:#207bf6;stroke-width:1px;stroke-linecap:round;stroke-linejoin:round" d="m20.5 25.2-.162 1.003-.638.497M27.784 25.2l.162 1.003.638.497"/></svg>