<svg xmlns="http://www.w3.org/2000/svg" width="48" height="48" version="1"><path fill="#395d6d" d="M40 42V6c0-1.108-.892-2-2-2H10c-1.108 0-2 .892-2 2v36c0 1.108.892 2 2 2h28c1.108 0 2-.892 2-2z"/><path style="opacity:.2" d="m23.92 16.002-3.113 10.937-2.313-5.79H14v2.003h3.186l3.113 7.842h1.38l3.704-12.976h6.392v-2.016H23.92zM25.418 22l3.256 4.293-3.56 4.709h1.777l2.668-3.537 2.668 3.537h1.777l-3.488-4.621L33.832 22h-1.777l-2.43 3.207L27.193 22h-1.775z"/><path style="fill:#ff6868" d="m23.92 15.002-3.113 10.937-2.313-5.79H14v2.003h3.186l3.113 7.842h1.38l3.704-12.976h6.392v-2.016H23.92zm1.498 6 3.256 4.291-3.56 4.709h1.777l2.668-3.537 2.668 3.537h1.777l-3.488-4.621 3.316-4.379h-1.777l-2.43 3.205-2.432-3.205h-1.775z"/><path fill="#fff" opacity=".1" d="M10 4c-1.108 0-2 .892-2 2v1c0-1.108.892-2 2-2h28c1.108 0 2 .892 2 2V6c0-1.108-.892-2-2-2z"/><path opacity=".2" d="M8 42v1c0 1.108.892 2 2 2h28c1.108 0 2-.892 2-2v-1c0 1.108-.892 2-2 2H10c-1.108 0-2-.892-2-2z"/></svg>