<svg xmlns="http://www.w3.org/2000/svg" xmlns:xlink="http://www.w3.org/1999/xlink" width="48" height="48"><defs><linearGradient x1="4" y1="13.5" x2="10.143" y2="13.5" id="b" xlink:href="#a" gradientUnits="userSpaceOnUse" gradientTransform="matrix(.55883 0 0 .41078 91.708 226.954)" spreadMethod="reflect"/><linearGradient id="a"><stop offset="0" stop-color="#b4b4b4" stop-opacity=".588"/><stop offset="1" stop-color="#e4e4e4" stop-opacity=".588"/></linearGradient></defs><rect style="marker:none" y="4.5" x="4.5" ry="2" rx="2" height="39" width="39" color="#000" overflow="visible" fill="#5499ec" stroke="#2064d0" stroke-linecap="round" stroke-linejoin="round" stroke-opacity=".847"/><g opacity=".5" color="#000" fill="#fff"><path style="marker:none" d="M12 11.5a.5.5 0 1 1-1 0 .5.5 0 1 1 1 0zm1-4a.5.5 0 1 1-1 0 .5.5 0 1 1 1 0zm-3 2a.5.5 0 1 1-1 0 .5.5 0 1 1 1 0zm2 0a.5.5 0 1 1-1 0 .5.5 0 1 1 1 0z" overflow="visible" opacity=".4"/><path style="marker:none" d="M35.5 12.5a.5.5 0 1 1-1 0 .5.5 0 1 1 1 0zm1 3a.5.5 0 1 1-1 0 .5.5 0 1 1 1 0zm1-2a.5.5 0 1 1-1 0 .5.5 0 1 1 1 0z" overflow="visible" opacity=".6"/><path style="marker:none" d="M38.5 20a.5.5 0 1 1-1 0 .5.5 0 1 1 1 0zm1-4a.5.5 0 1 1-1 0 .5.5 0 1 1 1 0zm-3 2a.5.5 0 1 1-1 0 .5.5 0 1 1 1 0zm2 0a.5.5 0 1 1-1 0 .5.5 0 1 1 1 0z" overflow="visible" opacity=".4"/><path style="marker:none" d="M31.5 23a.5.5 0 1 1-1 0 .5.5 0 1 1 1 0zm1 3a.5.5 0 1 1-1 0 .5.5 0 1 1 1 0zm1-2a.5.5 0 1 1-1 0 .5.5 0 1 1 1 0z" overflow="visible" opacity=".6"/><path style="marker:none" d="M31.13 8.017a.5.5 0 1 1-.26.966.5.5 0 1 1 .26-.966zm3 0a.5.5 0 1 1-.26.966.5.5 0 1 1 .26-.966zm-2-1a.5.5 0 1 1-.26.966.5.5 0 1 1 .26-.966z" overflow="visible" opacity=".8"/><g opacity=".2"><path style="marker:none" d="M11.13 13.034a.5.5 0 1 1-.26.966.5.5 0 1 1 .26-.966zm3 0a.5.5 0 1 1-.26.966.5.5 0 1 1 .26-.966zm-2-1a.5.5 0 1 1-.26.966.5.5 0 1 1 .26-.966z" overflow="visible" opacity=".8"/></g><path style="marker:none" d="M26.5 14.5a.5.5 0 1 1-1 0 .5.5 0 1 1 1 0zm1-4a.5.5 0 1 1-1 0 .5.5 0 1 1 1 0zm-3 2a.5.5 0 1 1-1 0 .5.5 0 1 1 1 0zm2 0a.5.5 0 1 1-1 0 .5.5 0 1 1 1 0z" overflow="visible" opacity=".4"/><path style="marker:none" d="M29.5 15a.5.5 0 1 1-1 0 .5.5 0 1 1 1 0zm1 3a.5.5 0 1 1-1 0 .5.5 0 1 1 1 0zm1-2a.5.5 0 1 1-1 0 .5.5 0 1 1 1 0z" overflow="visible" opacity=".6"/><g opacity=".2"><path style="marker:none" d="M29.13 12.034a.5.5 0 1 1-.26.966.5.5 0 1 1 .26-.966zm3 0a.5.5 0 1 1-.26.966.5.5 0 1 1 .26-.966zm-2-1a.5.5 0 1 1-.26.966.5.5 0 1 1 .26-.966z" overflow="visible" opacity=".8"/></g><path style="marker:none" d="M7.5 11.5a.5.5 0 1 1-1 0 .5.5 0 1 1 1 0zm1-4a.5.5 0 1 1-1 0 .5.5 0 1 1 1 0zm-3 2a.5.5 0 1 1-1 0 .5.5 0 1 1 1 0zm2 0a.5.5 0 1 1-1 0 .5.5 0 1 1 1 0zM15.5 10.5a.5.5 0 1 1-1 0 .5.5 0 1 1 1 0zm1-4a.5.5 0 1 1-1 0 .5.5 0 1 1 1 0zm-3 2a.5.5 0 1 1-1 0 .5.5 0 1 1 1 0zm2 0a.5.5 0 1 1-1 0 .5.5 0 1 1 1 0z" overflow="visible" opacity=".4"/><path style="marker:none" d="M16.5 10.5a.5.5 0 1 1-1 0 .5.5 0 1 1 1 0zm1 3a.5.5 0 1 1-1 0 .5.5 0 1 1 1 0zm1-2a.5.5 0 1 1-1 0 .5.5 0 1 1 1 0z" overflow="visible" opacity=".6"/><g opacity=".2"><path style="marker:none" d="M18.13 8.034a.5.5 0 1 1-.26.966.5.5 0 1 1 .26-.966zm3 0a.5.5 0 1 1-.26.966.5.5 0 1 1 .26-.966zm-2-1a.5.5 0 1 1-.26.966.5.5 0 1 1 .26-.966z" overflow="visible" opacity=".8"/></g><path style="marker:none" d="M7.5 28.5a.5.5 0 1 0 1 0 .5.5 0 1 0-1 0zm-1-4a.5.5 0 1 0 1 0 .5.5 0 1 0-1 0zm3 2a.5.5 0 1 0 1 0 .5.5 0 1 0-1 0zm-2 0a.5.5 0 1 0 1 0 .5.5 0 1 0-1 0z" overflow="visible" opacity=".4"/><path style="marker:none" d="M7 21.875a.5.625 0 1 1 1 0 .5.625 0 1 1-1 0zm-1-3.75a.5.625 0 1 1 1 0 .5.625 0 1 1-1 0zm-1 2.5a.5.625 0 1 1 1 0 .5.625 0 1 1-1 0z" overflow="visible" opacity=".6"/><path style="marker:none" d="M7.5 18a.5.5 0 1 0 1 0 .5.5 0 1 0-1 0zm-1-4a.5.5 0 1 0 1 0 .5.5 0 1 0-1 0zm3 2a.5.5 0 1 0 1 0 .5.5 0 1 0-1 0zm-2 0a.5.5 0 1 0 1 0 .5.5 0 1 0-1 0zM13.5 22.5a.5.5 0 1 1-1 0 .5.5 0 1 1 1 0zm1-4a.5.5 0 1 1-1 0 .5.5 0 1 1 1 0zm-3 2a.5.5 0 1 1-1 0 .5.5 0 1 1 1 0zm2 0a.5.5 0 1 1-1 0 .5.5 0 1 1 1 0z" overflow="visible" opacity=".4"/><path style="marker:none" d="M16 15.5a.5.5 0 1 1-1 0 .5.5 0 1 1 1 0zm1 3a.5.5 0 1 1-1 0 .5.5 0 1 1 1 0zm1-2a.5.5 0 1 1-1 0 .5.5 0 1 1 1 0z" overflow="visible" opacity=".6"/><g opacity=".2"><path style="marker:none" d="M33.13 28.017a.5.5 0 1 1-.26.966.5.5 0 1 1 .26-.966zm3 0a.5.5 0 1 1-.26.966.5.5 0 1 1 .26-.966zm-2-1a.5.5 0 1 1-.26.966.5.5 0 1 1 .26-.966z" overflow="visible" opacity=".8"/></g><path style="marker:none" d="M37 6.5a.5.5 0 1 1-1 0 .5.5 0 1 1 1 0zm1 3a.5.5 0 1 1-1 0 .5.5 0 1 1 1 0zm1-2a.5.5 0 1 1-1 0 .5.5 0 1 1 1 0z" overflow="visible" opacity=".6"/><path style="marker:none" d="M34 22.5a.5.5 0 1 1-1 0 .5.5 0 1 1 1 0zm1-4a.5.5 0 1 1-1 0 .5.5 0 1 1 1 0zm-3 2a.5.5 0 1 1-1 0 .5.5 0 1 1 1 0zm2 0a.5.5 0 1 1-1 0 .5.5 0 1 1 1 0z" overflow="visible" opacity=".4"/><path style="marker:none" d="M36 22.5a.5.5 0 1 1-1 0 .5.5 0 1 1 1 0zm1 3a.5.5 0 1 1-1 0 .5.5 0 1 1 1 0zm1-2a.5.5 0 1 1-1 0 .5.5 0 1 1 1 0z" overflow="visible" opacity=".6"/><g opacity=".2"><path style="marker:none" d="M40.13 23.017a.5.5 0 1 1-.26.966.5.5 0 1 1 .26-.966zm3 0a.5.5 0 1 1-.26.966.5.5 0 1 1 .26-.966zm-2-1a.5.5 0 1 1-.26.966.5.5 0 1 1 .26-.966z" overflow="visible" opacity=".8"/></g><path style="marker:none" d="M32.5 29.5a.5.5 0 1 0-1 0 .5.5 0 1 0 1 0zm1 4a.5.5 0 1 0-1 0 .5.5 0 1 0 1 0zm-3-2a.5.5 0 1 0-1 0 .5.5 0 1 0 1 0zm2 0a.5.5 0 1 0-1 0 .5.5 0 1 0 1 0z" overflow="visible" opacity=".4"/><path style="marker:none" d="M8.5 32.5a.5.5 0 1 0-1 0 .5.5 0 1 0 1 0zm1-3a.5.5 0 1 0-1 0 .5.5 0 1 0 1 0zm1 2a.5.5 0 1 0-1 0 .5.5 0 1 0 1 0z" overflow="visible" opacity=".6"/><g opacity=".2"><path style="marker:none" d="M10.13 34.966A.5.5 0 1 0 9.87 34a.5.5 0 1 0 .26.966zm3 0a.5.5 0 1 0-.26-.966.5.5 0 1 0 .26.966zm-2 1a.5.5 0 1 0-.26-.966.5.5 0 1 0 .26.966z" overflow="visible" opacity=".8"/></g><path style="marker:none" d="M14.5 37.5a.5.5 0 1 0-1 0 .5.5 0 1 0 1 0zm1 4a.5.5 0 1 0-1 0 .5.5 0 1 0 1 0zm-3-2a.5.5 0 1 0-1 0 .5.5 0 1 0 1 0zm2 0a.5.5 0 1 0-1 0 .5.5 0 1 0 1 0z" overflow="visible" opacity=".4"/><path style="marker:none" d="M28.5 37.483a.5.5 0 1 1-1 0 .5.5 0 1 1 1 0zm1 3a.5.5 0 1 1-1 0 .5.5 0 1 1 1 0zm1-2a.5.5 0 1 1-1 0 .5.5 0 1 1 1 0z" overflow="visible" opacity=".6"/><g opacity=".2"><path style="marker:none" d="M30.13 35.017a.5.5 0 1 1-.26.966.5.5 0 1 1 .26-.966zm3 0a.5.5 0 1 1-.26.966.5.5 0 1 1 .26-.966zm-2-1a.5.5 0 1 1-.26.966.5.5 0 1 1 .26-.966z" overflow="visible" opacity=".8"/></g><path style="marker:none" d="M38.5 39a.5.5 0 1 1-1 0 .5.5 0 1 1 1 0zm1-4a.5.5 0 1 1-1 0 .5.5 0 1 1 1 0zm-3 2a.5.5 0 1 1-1 0 .5.5 0 1 1 1 0zm2 0a.5.5 0 1 1-1 0 .5.5 0 1 1 1 0z" overflow="visible" opacity=".4"/><path style="marker:none" d="M35.5 32.483a.5.5 0 1 1-1 0 .5.5 0 1 1 1 0zm1 3a.5.5 0 1 1-1 0 .5.5 0 1 1 1 0zm1-2a.5.5 0 1 1-1 0 .5.5 0 1 1 1 0z" overflow="visible" opacity=".6"/><g opacity=".2"><path style="marker:none" d="M37.13 30.017a.5.5 0 1 1-.26.966.5.5 0 1 1 .26-.966zm3 0a.5.5 0 1 1-.26.966.5.5 0 1 1 .26-.966zm-2-1a.5.5 0 1 1-.26.966.5.5 0 1 1 .26-.966z" overflow="visible" opacity=".8"/></g></g><path style="marker:none" d="M29.5 11.656c0 .828-2.462 1.5-5.5 1.5s-5.5-.672-5.5-1.5c0-.829 2.462-1.5 5.5-1.5s5.5.671 5.5 1.5zm-10 .966v9.172s-5 11.236-5 13.8v1.082c0 1.94 4.253 3.513 9.5 3.513s9.5-1.573 9.5-3.513v-1.081c0-2.566-5-13.801-5-13.801v-9.172" color="#000" overflow="visible" opacity=".6" fill="url(#b)" stroke="#fff" stroke-linecap="round" stroke-linejoin="round" stroke-miterlimit="10"/><path style="marker:none" d="M18.308 27.257c-.13.318-.24.538-.371.865a84.502 84.502 0 0 0-1.671 4.54c-.454 1.37-.742 2.575-.742 2.904v1.081c0 .138.084.346.433.649.348.303.923.64 1.701.927 1.557.571 3.838.957 6.342.957 2.504 0 4.785-.386 6.342-.957.778-.286 1.353-.624 1.701-.927.349-.303.433-.51.433-.649v-1.08c0-.33-.288-1.535-.742-2.904a84.463 84.463 0 0 0-1.67-4.54c-.131-.328-.242-.548-.372-.866z" color="#000" overflow="visible" fill="#87df08" stroke="#2db406"/><path style="marker:none" d="M29.594 26.992c0 .92-2.486 1.665-5.552 1.665-3.067 0-5.553-.746-5.553-1.665 0-.92 2.486-1.664 5.553-1.664 3.066 0 5.552.745 5.552 1.664z" display="block" overflow="visible" fill="#b5ec90" stroke="#c0f0a4" stroke-width=".978" stroke-linejoin="round" stroke-miterlimit="10"/><path style="marker:none" d="m21 14.53 2.59.47v17.95l-2.59-.6z" overflow="visible" opacity=".15" fill="#fff"/></svg>