<svg height="48" width="48" xmlns="http://www.w3.org/2000/svg"><rect height="40" opacity=".2" rx="19.999" width="40" x="4" y="5"/><rect fill="#9d9d9d" height="40" rx="19.999" width="40" x="4" y="4"/><g transform="matrix(0 -1 -1 0 0 0)"><circle cx="-24" cy="-24" fill="#707070" r="16"/><circle cx="-24" cy="-24" fill="#17191e" r="12"/><circle cx="-25" cy="-24" opacity=".1" r="6"/><circle cx="-24" cy="-24" fill="#4f4f4f" r="6"/></g><path d="m24 18a6 6 0 0 0 -6 6 6 6 0 0 0 .025.502 6 6 0 0 1 5.975-5.502 6 6 0 0 1 5.975 5.498 6 6 0 0 0 .025-.498 6 6 0 0 0 -6-6z" fill="#f4f4f7" opacity=".1"/><path d="m24 4c-11.08 0-20 8.92-20 20 0 .168.008.333.012.5a19.951 19.951 0 0 1 19.988-19.5 19.951 19.951 0 0 1 19.988 19.5c.004-.167.012-.332.012-.5 0-11.08-8.92-20-20-20z" fill="#f4f4f7" opacity=".1"/></svg>