<svg xmlns="http://www.w3.org/2000/svg" width="48" height="48" version="1">
    <path fill="#f4f4f7" d="M24 4C12.92 4 4 12.92 4 24s8.92 20 20 20 20-8.92 20-20S35.08 4 24 4z"/>
    <path fill="#fff" opacity=".2" d="M24 4c11.07 0 19.982 8.92 19.982 20 0 .168-.008.333-.012.5C43.706 13.654 34.902 5 24 5S4.294 13.654 4.03 24.5c-.004-.167-.011-.332-.011-.5C4.019 12.92 12.93 4 24 4z"/>
    <path opacity=".2" d="M4.012 24.5c-.004.167-.012.332-.012.5 0 11.08 8.92 20 20 20s20-8.92 20-20c0-.168-.008-.333-.012-.5C43.724 35.346 34.912 44 24 44S4.276 35.346 4.012 24.5z"/>
    <path opacity=".1" d="M26 13c7 0 7 8.333 7 11-1-1-7-8-7-2.666 0 3.782.024 7.597 0 11.363A5.509 5.509 0 0 1 20.5 38a5.5 5.5 0 1 1 0-11 5.477 5.477 0 0 1 1.5.215V15c0-2 2-2 4-2z"/>
    <path fill="#3c8cf8" d="M26 12c7 0 7 8.333 7 11-1-1-7-8-7-2.666 0 3.782.024 7.597 0 11.363A5.509 5.509 0 0 1 20.5 37a5.5 5.5 0 1 1 0-11 5.477 5.477 0 0 1 1.5.215V14c0-2 2-2 4-2z"/>
</svg>
