<svg xmlns="http://www.w3.org/2000/svg" width="48" height="48"><path style="opacity:.2" d="M20.496 5.007c-.762.052-.89.413-1.315 1.477L4.543 43.174c-.77 1.771-.96 1.772 1.043 1.772h5.174c1.994.155 2.117.072 2.775-1.578L16.488 36h15.023l2.953 7.37c.658 1.65.782 1.732 2.776 1.577h5.173c2.003 0 1.812 0 1.043-1.771L28.818 6.484c-.424-1.064-.553-1.425-1.315-1.477-.254-.017-.578-.002-1.007.035h-4.992c-.43-.037-.754-.052-1.008-.035zM24 17.134l4.328 10.865h-8.656z"/><path style="fill:#4f4f4f" d="M20.496 4.007c-.762.052-.89.413-1.315 1.477L4.543 42.174c-.77 1.771-.96 1.772 1.043 1.772h5.174c1.994.155 2.117.072 2.775-1.578L16.488 35h15.023l2.953 7.37c.658 1.65.782 1.732 2.776 1.577h5.173c2.003 0 1.812 0 1.043-1.771L28.818 5.484c-.424-1.064-.553-1.425-1.315-1.477-.254-.017-.578-.002-1.007.035h-4.992c-.43-.037-.754-.052-1.008-.035zM24 16.134l4.328 10.865h-8.656z"/><ellipse style="fill:none;stroke:#ff631b;stroke-width:3.78112102;stroke-linecap:round;stroke-linejoin:round" cx="-12.775" cy="31.833" rx="22.89" ry="5.319" transform="matrix(-.87666 .48112 .4021 .9156 0 0)"/><ellipse style="fill:none;stroke:#ff631b;stroke-width:3.78112102;stroke-linecap:round;stroke-linejoin:round" cx="31.344" cy="8.65" rx="22.89" ry="5.319" transform="matrix(.87666 .48112 -.4021 .9156 0 0)"/><path style="fill:#4f4f4f" d="m13.977 18.53-2.788 6.984L29.801 35h1.71l.44 1.096 11.399 5.81-4.67-11.705-11.182-5.283.83 2.082h-8.656l1.937-4.865-7.632-3.606z"/><path style="opacity:.2" d="M41.535 12.912c-.992-.02-2.573.222-4.482.75-2.504.693-5.593 1.866-8.951 3.428.326.185.648.37.968.556 2.982-1.34 5.722-2.359 7.983-2.984 1.909-.528 3.49-.77 4.482-.75.061.001.09.01.14.014.061-.084.14-.178.192-.256.207-.311.264-.476.34-.656-.174-.043-.325-.095-.672-.102zm4.438.129a4.58 4.58 0 0 1-.127.611c-.217.785-.588 1.48-1.051 2.176-.927 1.39-2.266 2.8-3.969 4.309-1.046.926-2.27 1.889-3.574 2.861.224.167.45.336.668.502a53.731 53.731 0 0 0 2.906-2.363c1.703-1.509 3.042-2.918 3.969-4.309.463-.695.834-1.391 1.05-2.176.137-.494.19-1.054.128-1.611zm-21.971 6.088c-.456.24-.911.478-1.371.73-5.437 2.984-10.125 6.234-13.207 8.965-1.541 1.366-2.68 2.617-3.272 3.506-.207.311-.263.478-.34.658.144.035.297.07.53.086.627-.867 1.675-2.004 3.082-3.25 3.082-2.73 7.77-5.98 13.207-8.965.78-.428 1.552-.835 2.318-1.228-.317-.172-.632-.336-.947-.502zM2.049 33.969c-.084.636-.04 1.328.236 1.955.369.84 1.068 1.384 1.756 1.672.688.288 1.404.387 2.18.402l.404-1.014c-.133.003-.275.017-.404.014-.776-.015-1.492-.114-2.18-.402-.688-.288-1.387-.833-1.756-1.672a3.267 3.267 0 0 1-.236-.955zM16.498 35l-.238.596c.492-.188.993-.388 1.502-.596h-1.264z"/><path style="fill:#4f4f4f" d="m34.023 18.53 2.788 6.984L18.199 35h-1.71l-.44 1.096-11.399 5.81 4.67-11.705 11.182-5.283-.83 2.082h8.656l-1.937-4.865z"/><path style="fill:#ff631b" d="m30.752 18.627-3.78 2.133c3.396 1.948 6.45 3.97 8.926 5.865l3.03-2.34c-2.304-1.846-5.07-3.77-8.176-5.658zM17.248 18.627l3.78 2.133c-3.396 1.948-6.45 3.97-8.926 5.865l-3.03-2.34c2.304-1.846 5.07-3.77 8.176-5.658z"/><path style="opacity:.2" d="M6.475 12.912c-.347.007-.498.06-.672.102.076.18.132.345.34.656.052.078.13.172.191.256.05-.004.08-.013.14-.014.992-.02 2.574.222 4.483.75 3.818 1.056 8.985 3.213 14.422 6.197 5.437 2.984 10.124 6.234 13.207 8.965 1.406 1.246 2.455 2.383 3.082 3.25.233-.017.386-.05.53-.086-.077-.18-.133-.347-.34-.658-.593-.89-1.73-2.14-3.272-3.506-3.083-2.73-7.77-5.98-13.207-8.965-5.437-2.984-10.604-5.14-14.422-6.197-1.909-.528-3.49-.77-4.482-.75zm-4.438.129a4.323 4.323 0 0 0 .127 1.611c.217.785.588 1.48 1.05 2.176.927 1.39 2.267 2.8 3.97 4.309.867.768 1.86 1.562 2.906 2.363.217-.166.443-.335.668-.502-1.304-.972-2.528-1.935-3.574-2.861-1.703-1.509-3.043-2.918-3.97-4.309-.462-.695-.833-1.391-1.05-2.176a4.58 4.58 0 0 1-.127-.611zm43.924 20.928a3.267 3.267 0 0 1-.236.955c-.369.84-1.069 1.384-1.756 1.672-.688.288-1.404.387-2.18.402-.13.003-.271-.011-.404-.014l.404 1.014c.776-.015 1.492-.114 2.18-.402.687-.288 1.387-.833 1.756-1.672.275-.627.32-1.319.236-1.955zM30.248 35c.509.208 1.01.408 1.502.596L31.512 35h-1.264z"/><circle style="opacity:.2" cx="40" cy="19" r="4"/><circle style="fill:#ffc500" cx="40" cy="18" r="4"/><circle style="opacity:.2" cx="12" cy="13" r="5"/><circle style="fill:#ffc500" cx="12" cy="12" r="5"/><path style="opacity:.2;fill:#f4f4f7" d="M40 14a4 4 0 0 0-4 4 4 4 0 0 0 .035.494A4 4 0 0 1 40 15a4 4 0 0 1 3.965 3.506A4 4 0 0 0 44 18a4 4 0 0 0-4-4zM12 7a5 5 0 0 0-5 5 5 5 0 0 0 .027.484A5 5 0 0 1 12 8a5 5 0 0 1 4.973 4.516A5 5 0 0 0 17 12a5 5 0 0 0-5-5z"/></svg>