<svg height="48" width="48" xmlns="http://www.w3.org/2000/svg">
    <rect height="40" opacity=".2" rx="20" width="40" x="4" y="5"/>
    <rect fill="#614eff" height="40" rx="20" width="40" x="4" y="4"/>
    <path d="M24 4C12.92 4 4 12.92 4 24c0 .168.008.333.012.5A19.952 19.952 0 0 1 24 5a19.952 19.952 0 0 1 19.988 19.5c.004-.167.012-.332.012-.5 0-11.08-8.92-20-20-20z" fill="#f4f4f7" opacity=".1"/>
    <path d="M24 12a13 13 0 0 0-13 13 13 13 0 0 0 13 13 13 13 0 0 0 13-13 13 13 0 0 0-1.707-6.42c-.06-.242-.114-.552-.191-1.076-.06-.396-.073-.744-.063-1.606l.018-1.52c.004-.37-.008-.442-.112-.64a1.468 1.468 0 0 0-.289-.375c-.283-.332-.682-.3-.957-.363-.972.105-2.38.235-3.25.28h-.85l-.37-.18c-.07-.034-.162-.063-.24-.094A13 13 0 0 0 24 12zm0 4a9 9 0 0 1 9 9 9 9 0 0 1-9 9 9 9 0 0 1-9-9 9 9 0 0 1 9-9z" opacity=".2"/>
    <g fill="#f4f4f7">
        <path d="M24 11a13 13 0 0 0-13 13 13 13 0 0 0 13 13 13 13 0 0 0 13-13 13 13 0 0 0-13-13zm0 4a9 9 0 0 1 9 9 9 9 0 0 1-9 9 9 9 0 0 1-9-9 9 9 0 0 1 9-9z"/>
        <path d="M27.856 11.605c1.725.684 2.424 3.405 3.807 4.694 1.881 1.754 4.228 2.294 4.738 4.767-.05-.261-.101-.558-.133-.689-.141-.6-.5-1.647-.732-2.13-.22-.463-.274-.672-.434-1.743-.058-.396-.072-.744-.062-1.606l.018-1.52c.004-.37-.008-.442-.112-.64a1.474 1.474 0 0 0-.29-.375.866.866 0 0 0-.46-.277c-.524-.14-1.097-.025-1.569.022-.772.074-1.596.142-2.179.171h-.85l-.37-.18c-.396-.19-.982-.35-1.372-.494zm8.567 9.565a13 13 0 0 1 .14.93 7.36 7.36 0 0 0-.086-.645c-.017-.102-.034-.176-.054-.285z"/>
    </g>
</svg>
