<svg height="48" width="48" xmlns="http://www.w3.org/2000/svg">
    <rect height="36" opacity=".2" rx="2" width="42" x="3" y="6"/>
    <rect fill="#2f8c9f" height="36" rx="2" width="42" x="3" y="5"/>
    <path d="M37 8h6l-1.5 2.5L40 13l-1.5-2.5z" opacity=".2"/>
    <path d="M37 7h6l-1.5 2.5L40 12l-1.5-2.5z" fill="#70cbde"/>
    <circle cx="8" cy="10" fill="#17191e" r="3"/>
    <path d="M3 14v25c0 1.108.892 2 2 2h38c1.108 0 2-.892 2-2V14z" opacity=".3"/>
    <path d="M18 17v20h3.129l.687-1.818h.274c.402.467.915.892 1.537 1.273.64.364 1.51.545 2.607.545 1.72 0 3.113-.624 4.174-1.871C31.47 33.882 32 32.047 32 29.623c0-2.407-.521-4.524-1.564-5.754-1.044-1.247-2.407-1.871-4.09-1.871-1.08 0-1.96.21-2.637.625-.677.398-1.217.892-1.62 1.48h-.163a25.68 25.68 0 0 0 .164-2.806V17zm7.162 8c.9 0 1.608.378 2.125 1.133.536.736.803 1.84.803 3.312 0 1.473-.259 2.603-.776 3.395-.516.773-1.215 1.16-2.095 1.16-1.187 0-2.01-.387-2.469-1.16-.44-.792-.66-1.913-.66-3.367v-.442c.019-1.343.26-2.347.719-3.01.459-.68 1.243-1.021 2.353-1.021z" opacity=".2"/>
    <path d="M18 16v20h3.129l.687-1.818h.274c.402.467.915.892 1.537 1.273.64.364 1.51.545 2.607.545 1.72 0 3.113-.624 4.174-1.871C31.47 32.882 32 31.047 32 28.623c0-2.407-.521-4.524-1.564-5.754-1.044-1.247-2.407-1.871-4.09-1.871-1.08 0-1.96.21-2.637.625-.677.398-1.217.892-1.62 1.48h-.163a25.68 25.68 0 0 0 .164-2.806V16zm7.162 8c.9 0 1.608.378 2.125 1.133.536.736.803 1.84.803 3.312 0 1.473-.259 2.603-.776 3.395-.516.773-1.215 1.16-2.095 1.16-1.187 0-2.01-.387-2.469-1.16-.44-.792-.66-1.913-.66-3.367v-.442c.019-1.343.26-2.347.719-3.01.459-.68 1.243-1.021 2.353-1.021z" fill="#f4f4f7"/>
    <circle cx="24" cy="42" opacity=".2" r="4"/>
    <circle cx="24" cy="41" fill="#3eb1c9" r="4"/>
    <path d="M5 5c-1.108 0-2 .892-2 2v1c0-1.108.892-2 2-2h38c1.108 0 2 .892 2 2V7c0-1.108-.892-2-2-2z" fill="#f4f4f7" opacity=".1"/>
    <path d="m37 7 .6 1h4.8l.6-1zM24 37a4 4 0 0 0-4 4 4 4 0 0 0 .035.494A4 4 0 0 1 24 38a4 4 0 0 1 3.965 3.506A4 4 0 0 0 28 41a4 4 0 0 0-4-4z" fill="#f4f4f7" opacity=".2"/>
    <circle cx="8" cy="10" fill="#70cbde" r="2"/>
</svg>
