<svg height="48" width="48" xmlns="http://www.w3.org/2000/svg"><rect height="40" opacity=".2" rx="2" width="32" x="8" y="5"/><rect fill="#3d65c2" height="40" rx="2" width="32" x="8" y="4"/><path d="m24 11v7h-7v6h7v15h6v-15h7v-6h-7v-7zm-14-7c-1.108 0-2 .892-2 2v36c0 1.108.892 2 2 2h4v-40z" opacity=".2"/><path d="m24 10v7h-7v6h7v15h6v-15h7v-6h-7v-7z" fill="#ffd972"/><circle cx="36" cy="37" opacity=".2" r="11"/><circle cx="36" cy="36" fill="#ff982d" r="11"/><g fill="#f4f4f7"><path d="m36 29a7 7 0 1 0 0 14 7 7 0 0 0 0-14zm0 2a5 5 0 1 1 -.001 10.001 5 5 0 0 1 .001-10.001zm-1 1v5h5v-2h-3v-3z"/><path d="m10 4c-1.108 0-2 .892-2 2v1c0-1.108.892-2 2-2h28c1.108 0 2 .892 2 2v-1c0-1.108-.892-2-2-2z" opacity=".1"/></g></svg>