<svg height="64" width="64" xmlns="http://www.w3.org/2000/svg" xmlns:xlink="http://www.w3.org/1999/xlink"><filter id="a" color-interpolation-filters="sRGB" height="1.054" width="1.054" x="-.027" y="-.027"><feGaussianBlur stdDeviation=".61875"/></filter><linearGradient id="b" gradientUnits="userSpaceOnUse" x1="4.5" x2="59.5" y1="59.49" y2="4.49"><stop offset="0" stop-color="#a53cff"/><stop offset="1" stop-color="#b496ff"/></linearGradient><g fill="#5e4aa6"><circle cx="-1248.7" cy="-1241.6" r="0"/><circle cx="-1140.3" cy="-1301.8" r="0"/><circle cx="-1158.1" cy="-1246" r="0"/><circle cx="-1157.3" cy="-1267.7" r="0"/><circle cx="-57.756" cy="-2.1829" fill-rule="evenodd" r="0"/></g><rect fill="#141414" filter="url(#a)" height="55" opacity=".3" ry="15" stroke-linecap="round" stroke-width="2.7444" width="55" x="4.5" y="4.5"/><rect fill="url(#b)" height="55" ry="15" stroke-linecap="round" stroke-width="2.7444" width="55" x="4.5" y="4.5"/><path d="m23.253 16.846c-8.3733 4.8343-11.242 15.541-6.4079 23.915 3.2723 5.6551 9.4214 9.0174 15.948 8.7205-3.691-.06646-7.0989-1.9173-9.494-6.0524-2.0341-3.5072-2.5815-7.5754-1.5464-11.46 1.0429-3.903 3.5604-7.1768 7.099-9.2198l1.3143 2.2764c-2.9283 1.6906-5.0135 4.3992-5.8738 7.6207-.85595 3.2053-.39922 6.5623 1.2789 9.4612 3.0797 5.3133 8.564 7.4134 13.931 5.4088-.99606.2732-2.0459.35517-3.1276.1393-6.6214-.52497-11.446-5.5246-11.471-11.888-.01142-3.029 1.2003-5.9187 3.4122-8.1375 2.2519-2.2603 5.2269-3.5068 8.3719-3.5076l.0016 2.6328c-2.4408.001-4.7526.96924-6.5093 2.7332-1.7151 1.7171-2.6506 3.9444-2.6442 6.2677.01779 4.964 3.8236 8.8651 9.0493 9.277 6.4396.50467 9.1796-2.2783 10.201-3.7705-1.4509 1.2068-2.6979 1.9898-6.9533 2.7363-3.6475.64288-6.2175-.63094-6.9284-1.0388-.0047-.000596-.07452-.04381-.10408-.06347-.01994-.0094-.04677-.02472-.04677-.02472l.0037-.0019c-.01517-.0094-.05448-.03182-.05639-.03501l.0021-.0094c-1.1863-.73234-2.1343-1.7164-2.7915-2.8547-1.4174-2.4551-1.5245-5.5795-.0092-8.2053 1.096-1.8947 2.8624-3.254 4.9765-3.8208 2.1161-.56339 4.3231-.27376 6.2178.82229l.07682.04774-1.3911 2.2294c-1.288-.74219-2.7886-.94058-4.2219-.55657-1.4367.386-2.6369 1.3076-3.3812 2.592-1.0263 1.7858-.95443 3.906.0079 5.5725.47115.81607 1.1573 1.5228 2.0303 2.0292.0014.0019-.35455-.2115.01573.0094.36981.22084 2.2702 1.2255 5.1419.71965 4.7325-.83157 7.4019-2.5731 9.2325-3.909 1.5731-4.7368 1.0495-9.9199-1.4391-14.246-4.8343-8.3733-15.541-11.242-23.915-6.4079zm24.441 22.904c-.12329.24841-.28539.53555-.43694.81322.15277-.26719.29846-.53836.43694-.81322z" fill="#fff" fill-opacity=".9962" stroke-width="1.6256"/></svg>