<svg height="64" width="64" xmlns="http://www.w3.org/2000/svg" xmlns:xlink="http://www.w3.org/1999/xlink"><linearGradient id="a" gradientUnits="userSpaceOnUse" x1="-68.854" x2="-68.854" y1="280.73995" y2="284.40995"><stop offset="0" stop-color="#faf0c8"/><stop offset="1" stop-color="#ffc85a"/></linearGradient><linearGradient id="b" gradientUnits="userSpaceOnUse" x1="-62.872" x2="-69.552" y1="278.77995" y2="286.11995"><stop offset="0" stop-color="#fafadc"/><stop offset="1" stop-color="#faf0a0"/></linearGradient><filter id="c" color-interpolation-filters="sRGB" height="1.1146" width="1.1259" x="-.062943" y="-.05732"><feGaussianBlur stdDeviation=".16528108"/></filter><filter id="d" color-interpolation-filters="sRGB" height="1.096" width="1.096" x="-.048" y="-.048"><feGaussianBlur stdDeviation="1.1"/></filter><linearGradient id="e" gradientUnits="userSpaceOnUse" x1="4.281058" x2="58.897086" y1="59.492249" y2="4.876221"><stop offset="0" stop-color="#ff7832"/><stop offset=".50754035" stop-color="#ffbe37"/><stop offset="1" stop-color="#ffdc32"/></linearGradient><rect filter="url(#d)" height="55" opacity=".3" rx="13.002" width="55" x="4.500001" y="4.500001"/><text stroke-width=".76923" transform="matrix(1.3 0 0 1.3 -573.45 -648.94)" x="730.88" y="132.19"/><circle cx="-1248.7" cy="-1241.6" fill="#5e4aa6" r="0"/><path d="m17.501953 4.5c-7.203108 0-13.001953 5.798845-13.001953 13.001953v28.996094c0 7.203108 5.798845 13.001953 13.001953 13.001953h28.996094c7.203108 0 13.001953-5.798845 13.001953-13.001953v-28.996094c0-7.203108-5.798845-13.001953-13.001953-13.001953z" fill="url(#e)" stroke-linecap="round" stroke-width="4.648"/><g fill="#fa7846" fill-rule="evenodd" filter="url(#c)" transform="matrix(5.5677 0 0 5.5677 403.19685 -1541.9)"><path d="m-68.837 281.7a.74769.74769 0 0 0 -.74776.74673.74769.74769 0 0 0 0 .00051v2.5885h1.4955v-2.5885a.74769.74769 0 0 0 0-.00051.74769.74769 0 0 0 -.74776-.74673z"/><path d="m-68.604 279.23a.73279.73279 0 0 0 -.65216.36639.73279.73279 0 0 0 .2682 1.0004.73279.73279 0 0 0 .000518.00052v.00052l.74259.42839 2.9755 1.7441s-1.7859 1.0253-2.9352 1.7033c-1.1493.67799-1.3808-.50436-1.3808-.50436v1.1327c.1819 1.356 1.48 1.0335 1.6702.96739.1902-.0661 4.1119-2.4102 4.1119-2.4102.66019-.40426.70708-1.2998.05271-1.7715-.10894-.0934-3.2659-1.8506-3.6587-2.0691l.0015-.002-.84646-.48886-.000516.00052a.73279.73279 0 0 0 -.000519 0 .73279.73279 0 0 0 -.34882-.0982z"/></g><g fill-rule="evenodd" transform="matrix(5.5677 0 0 5.5677 403.19685 -1541.9)"><path d="m-68.837 281.7a.74769.74769 0 0 0 -.74776.74673.74769.74769 0 0 0 0 .00051v2.5885h1.4955v-2.5885a.74769.74769 0 0 0 0-.00051.74769.74769 0 0 0 -.74776-.74673z" fill="url(#a)"/><path d="m-68.604 279.23a.73279.73279 0 0 0 -.65216.36639.73279.73279 0 0 0 .2682 1.0004.73279.73279 0 0 0 .000518.00052v.00052l.74259.42839 2.9755 1.7441s-1.7859 1.0253-2.9352 1.7033c-1.1493.67799-1.3808-.50436-1.3808-.50436v1.1327c.1819 1.356 1.48 1.0335 1.6702.96739.1902-.0661 4.1119-2.4102 4.1119-2.4102.66019-.40426.70708-1.2998.05271-1.7715-.10894-.0934-3.2659-1.8506-3.6587-2.0691l.0015-.002-.84646-.48886-.000516.00052a.73279.73279 0 0 0 -.000519 0 .73279.73279 0 0 0 -.34882-.0982z" fill="url(#b)"/></g><circle cx="-65.562347" cy="-9.454224" fill="none" r="0" stroke-width="1.50101"/><g fill="#5e4aa6"><circle cx="-1412.9076" cy="-1295.1219" r="0"/><g><circle cx="-313.35763" cy="-29.666951" fill-rule="evenodd" r="0"/><circle cx="-1315.10764" cy="-1310.121951" r="0"/><circle cx="-215.53464" cy="-44.647551" fill-rule="evenodd" r="0"/></g></g></svg>