<svg xmlns="http://www.w3.org/2000/svg" width="48" height="48" version="1"><rect style="opacity:.2" width="40" height="40" x="4" y="5" rx="20" ry="20"/><rect style="fill:#f4f4f7" width="40" height="40" x="4" y="4" rx="20" ry="20"/><path style="opacity:.1" d="M36.344 6.01a10.911 23.888 37.878 0 0-.926.006 10.911 23.888 37.878 0 0-8.42 3.289A15.99 15.99 0 0 0 24 9C15.163 9 8 16.164 8 25a16 16 0 0 0 .305 3.08c2.268-3.93 5.8-7.217 8.959-9.838a10.911 23.888 37.878 0 0-1.022 1.266 10.911 23.888 37.878 0 0-5.808 25.426 10.911 23.888 37.878 0 0 4.707 1 10.217 22.527 36.75 0 1-2.467-.96 10.217 22.527 36.75 0 1-1.565-10.525A15.993 15.993 0 0 0 24 41a16 16 0 0 0 15.479-12h-9.217c-1.18 3.06-3.606 4.996-6.262 5-3.561-.006-6.552-3.45-6.947-8h22.91c.023-.333.035-.666.037-1a16 16 0 0 0-9.27-14.502c-2.483 1.322-4.704 3.303-6.835 5.504L24 16c2.964.004 5.604 2.408 6.592 6H17.41c.055-.198.115-.388.172-.58a10.217 22.527 36.75 0 1 .48-.662 10.217 22.527 36.75 0 1 21.641-11.83 10.217 22.527 36.75 0 1 2.238 5.555 10.911 23.888 37.878 0 0-2.357-7.397 10.911 23.888 37.878 0 0-3.24-1.076z"/><path style="fill:#60ab1a" d="M24 8C15.163 8 8 15.163 8 24a16 16 0 0 0 .305 3.08c2.497-4.328 6.552-7.92 9.923-10.648l-.54 2.504a47.585 47.585 0 0 0-4.905 5.595c-1.37 1.828-2.177 4.564-3.195 6.4.122.298-.138-.288 0 0A16 16 0 0 0 24 40a16 16 0 0 0 15.479-12h-9.217c-1.18 3.059-3.606 4.996-6.262 5-3.561-.006-6.552-3.45-6.947-8h22.91A16 16 0 0 0 40 24a16 16 0 0 0-9.27-14.501c-2.484 1.321-4.704 3.302-6.835 5.503L24 15c2.964.004 5.604 2.408 6.592 6H17.41c.36-1.298.747-2.472 1.515-3.432a1.998 1.998 0 0 0-.054-.086c.174-.234.551-.466.73-.699 2.519-3.27 5.319-6.102 8.13-8.322A16 16 0 0 0 24 8z"/><path style="opacity:.2;fill:#f4f4f7" d="M24 4C12.92 4 4 12.92 4 24c0 .168.008.333.012.5A19.952 19.952 0 0 1 24 5a19.951 19.951 0 0 1 19.988 19.5c.004-.167.011-.332.011-.5 0-11.08-8.92-20-20-20z"/><path style="fill:#60ab1a" d="M35.418 5.016a10.911 23.888 37.878 0 0-19.176 13.493 10.911 23.888 37.878 0 0-5.81 25.424 10.911 23.888 37.878 0 0 4.708 1 10.217 22.527 36.75 0 1-2.466-.959 10.217 22.527 36.75 0 1 5.388-24.217 10.217 22.527 36.75 0 1 21.641-11.83 10.217 22.527 36.75 0 1 2.238 5.556 10.911 23.888 37.878 0 0-2.357-7.396 10.911 23.888 37.878 0 0-4.166-1.071z"/></svg>