<svg height="48" width="48" xmlns="http://www.w3.org/2000/svg"><rect height="36" opacity=".2" rx="3" width="34" x="7" y="9"/><rect fill="#f4f4f7" height="36" rx="3" width="34" x="7" y="8"/><rect height="8" opacity=".1" rx="3.333" ry="3" width="40" x="4" y="5"/><rect fill="#2ea881" height="8" rx="3.333" ry="3" width="40" x="4" y="4"/><circle cx="12" cy="24" fill="#ff4f4f" r="4"/><path d="m18 23h19v2h-19z" fill="#ff4f4f"/><path d="m15 16h22v2h-22z" opacity=".3"/><path d="m7.334 4c-1.847 0-3.334 1.338-3.334 3v1c0-1.662 1.487-3 3.334-3h33.332c1.847 0 3.334 1.338 3.334 3v-1c0-1.662-1.487-3-3.334-3z" fill="#f4f4f7" opacity=".2"/><circle cx="12" cy="25" opacity=".2" r="2"/><circle cx="12" cy="24" fill="#f4f4f7" r="2"/><path d="m11 16h2v2h-2zm4 14h22v2h-22zm-4 0h2v2h-2zm4 4h22v2h-22zm-4 0h2v2h-2zm4 4h22v2h-22zm-4 0h2v2h-2z" opacity=".3"/></svg>