<svg height="48" width="48" xmlns="http://www.w3.org/2000/svg"><circle cx="24" cy="25" opacity=".2" r="20"/><circle cx="24" cy="24" fill="#17191e" r="20"/><circle cx="37" cy="12" opacity=".2" r="11"/><path d="m24 4a20 20 0 0 0 -20 20 20 20 0 0 0 .021.582 20 20 0 0 1 19.979-19.582 20 20 0 0 1 19.979 19.418 20 20 0 0 0 .021-.418 20 20 0 0 0 -20-20z" fill="#f4f4f7" opacity=".1"/><circle cx="42" cy="34" opacity=".2" r="5"/><circle cx="42" cy="33" fill="#4f4f4f" r="5"/><circle cx="37" cy="11" fill="#a27a40" r="11"/><circle cx="37" cy="12" opacity=".2" r="7"/><circle cx="37" cy="11" fill="#f1b100" r="7"/><path d="m42 28a5 5 0 0 0 -5 5 5 5 0 0 0 .027.484 5 5 0 0 1 4.973-4.484 5 5 0 0 1 4.973 4.516 5 5 0 0 0 .027-.516 5 5 0 0 0 -5-5z" fill="#f4f4f7" opacity=".1"/><circle cx="37" cy="12" opacity=".2" r="3"/><g fill="#f4f4f7"><circle cx="37" cy="11" r="3"/><path d="m37 0a11 11 0 0 0 -11 11 11 11 0 0 0 .021.586 11 11 0 0 1 10.979-10.586 11 11 0 0 1 10.979 10.414 11 11 0 0 0 .021-.414 11 11 0 0 0 -11-11z" opacity=".2"/></g></svg>