<svg xmlns="http://www.w3.org/2000/svg" width="48" height="48" version="1"><path style="opacity:.2" d="M17.033 5.005c-1.415.033-2.582.226-3.703.61-.7.239-1.456.59-1.79.833-.247.179-.45.586-.45.9 0 .166.078.44.168.587.037.06.259.325.494.585.235.261.514.574.62.696 1.946 2.248 2.523 4.366 2.628 6.988-.134 1.357-.665 2.704-1.738 3.957-2.254 2.92-2.997 4.13-3.705 6.033a8.752 8.752 0 0 0-.524 2.166c-.044.379-.043 1.687.002 2.319.14 1.97.517 3.759 1.17 5.554l.238.66c.593 1.652 1.922 3.901 3.243 5.49.317.383 1.213 1.3 1.677 1.72.557.502 1.147.82 1.64.88v-.002c.112.014 2.9.022 6.196.018l5.99-.006.223-.066c.482-.146 1.105-.535 1.598-.998.127-.12.436-.445.687-.723 1.634-1.806 3.899-4.463 4.782-6.672.824-2.063 1.207-3.466 1.421-5.217.253-2.061.139-3.451-.4-4.838-.419-.968-1.51-1.993-1.53-3.113 0-.441.012-.6.06-.773.125-.465.55-.89.878-1.284.08-.095.467-.5.86-.9.934-.951 1.234-1.34 1.595-2.064a6.591 6.591 0 0 0 .602-1.973 7.752 7.752 0 0 0-.002-1.713c-.366-2.546-2.217-4.834-4.654-5.451-.688-.174-1.297-.183-3.399-.209-2.892-.038-6.139-.382-8.885-2.129-1.735-.925-2.338-1.205-3.162-1.473-.996-.323-1.684-.42-2.83-.392zM32.28 13c.735 0 1.09.011 1.256.039.871.144 1.607.624 2.055 1.342.41.656.516 1.426.3 2.148-.173.58-.363.838-1.224 1.65-.88.832-1.189 1.175-1.498 1.66-.056.089-.118.16-.139.16-.02 0-.094-.071-.164-.16l-.28-.353c-.738-.935-1.293-1.785-1.468-2.25-.07-.188-.085-.29-.105-.654-.052-.953.093-3.317.217-3.535.025-.045.105-.048 1.05-.047z"/><path style="fill:#f4f4f7" d="M17.033 4.004c-1.415.033-2.582.226-3.703.61-.7.239-1.456.59-1.79.833-.247.179-.45.586-.45.9 0 .166.078.44.168.587.037.06.259.325.494.586.235.26.514.573.62.695 1.946 2.248 2.523 4.366 2.628 6.988-.134 1.357-.665 2.704-1.738 3.957-2.254 2.92-2.997 4.13-3.705 6.033a8.752 8.752 0 0 0-.524 2.166c-.044.379-.043 1.687.002 2.319.14 1.97.517 3.759 1.17 5.554l.238.66c.593 1.652 1.922 3.901 3.243 5.49.317.383 1.213 1.301 1.677 1.72.557.502 1.147.82 1.64.88v-.002c.112.014 2.9.022 6.196.018l5.99-.006.223-.066c.482-.146 1.105-.535 1.598-.998.127-.12.436-.445.687-.723 1.634-1.806 3.899-4.463 4.782-6.672.824-2.062 1.207-3.466 1.421-5.217.253-2.061.139-3.451-.4-4.837-.419-.97-1.51-1.994-1.53-3.114 0-.441.012-.599.06-.773.125-.465.55-.89.878-1.283.08-.096.467-.5.86-.9.934-.952 1.234-1.341 1.595-2.065a6.591 6.591 0 0 0 .602-1.973 7.755 7.755 0 0 0-.002-1.713c-.366-2.546-2.217-4.834-4.654-5.451-.688-.174-1.297-.183-3.399-.209-2.892-.038-6.139-.382-8.885-2.129-1.735-.925-2.338-1.205-3.162-1.473-.996-.323-1.684-.42-2.83-.392zM32.28 12c.735 0 1.09.012 1.256.04.871.143 1.607.623 2.055 1.34.41.657.516 1.427.3 2.15-.173.58-.363.837-1.224 1.65-.88.83-1.189 1.174-1.498 1.66-.056.088-.118.16-.139.16-.02 0-.094-.072-.164-.16l-.28-.354c-.738-.935-1.293-1.785-1.468-2.25-.07-.187-.085-.29-.105-.654-.052-.953.093-3.317.217-3.535.025-.045.105-.048 1.05-.047z"/><path style="fill:#f4f4f7;opacity:.2" d="M17.033 4.004c-1.415.033-2.582.226-3.703.61-.7.239-1.456.59-1.79.833-.247.179-.45.586-.45.9 0 .141.06.348.133.5.081-.163.193-.31.316-.4.335-.243 1.09-.594 1.791-.834 1.121-.383 2.288-.576 3.703-.61 1.146-.026 1.834.07 2.83.393.824.268 1.427.548 3.162 1.473 2.746 1.747 5.993 2.091 8.885 2.129 2.102.026 2.711.035 3.399.209 2.437.617 4.288 2.905 4.654 5.451.014.095.013.245.021.367.03-.45.03-1.012-.021-1.367-.366-2.546-2.217-4.834-4.654-5.451-.688-.174-1.297-.183-3.399-.209-2.892-.038-6.139-.382-8.885-2.129-1.735-.925-2.338-1.205-3.162-1.473-.996-.323-1.684-.42-2.83-.392zm18.904 11.275c-.016.084-.022.168-.046.25-.174.58-.364.838-1.225 1.65-.88.832-1.189 1.175-1.498 1.66-.056.089-.118.161-.139.161-.02 0-.094-.072-.164-.16l-.28-.354c-.738-.935-1.293-1.785-1.468-2.25-.07-.187-.085-.29-.105-.654v-.05a14.12 14.12 0 0 0 0 1.05c.02.364.035.467.105.654.175.465.73 1.315 1.469 2.25l.28.354c.069.088.143.16.163.16.02 0 .083-.072.139-.16.31-.486.618-.83 1.498-1.66.86-.813 1.051-1.07 1.225-1.65.123-.413.13-.838.047-1.25zm-20.984.196c-.175 1.264-.69 2.516-1.691 3.685-2.254 2.92-2.997 4.13-3.705 6.033a8.752 8.752 0 0 0-.524 2.166c-.031.27-.031.96-.017 1.592.005-.214.005-.486.017-.592.09-.776.244-1.414.524-2.166.708-1.903 1.45-3.114 3.705-6.033 1.073-1.253 1.604-2.6 1.738-3.957-.01-.248-.028-.488-.047-.728zm21.06 7.214c-.029.148-.042.31-.042.676.019 1.12 1.11 2.145 1.529 3.114.316.812.468 1.644.504 2.593.07-1.409-.083-2.509-.504-3.593-.378-.875-1.295-1.795-1.486-2.79z"/><path style="opacity:.2" d="M28.603 37.81c-1.975-1.14-8.285-8.358-8.285-8.358s9.407 1.855 11.382 2.995c1.974 1.14 2.543 3.852 2.027 4.746-.516.894-3.15 1.758-5.124.618z"/><path style="fill:#4670c8" d="M28.603 36.81c-1.975-1.14-8.285-8.358-8.285-8.358s9.407 1.855 11.382 2.995c1.974 1.14 2.543 3.852 2.027 4.746-.516.894-3.15 1.758-5.124.618z"/><path style="opacity:.2" d="M31.778 31.854c-2.203.59-11.77-.053-11.77-.053s7.964-5.34 10.167-5.93c2.202-.59 4.522.926 4.79 1.923.267.997-.985 3.47-3.187 4.06z"/><path style="fill:#4ab6e7" d="M31.778 30.854c-2.203.59-11.77-.053-11.77-.053s7.964-5.34 10.167-5.93c2.202-.59 4.522.926 4.79 1.923.267.997-.985 3.47-3.187 4.06z"/><path style="opacity:.2" d="M29.81 25.397c-1.14 1.975-8.358 8.285-8.358 8.285s1.855-9.407 2.995-11.382c1.14-1.974 3.852-2.543 4.746-2.027.894.516 1.758 3.15.618 5.124z"/><path style="fill:#4670c8" d="M29.81 24.397c-1.14 1.975-8.358 8.285-8.358 8.285s1.855-9.407 2.995-11.382c1.14-1.974 3.852-2.543 4.746-2.027.894.516 1.758 3.15.618 5.124z"/><path style="opacity:.2" d="M14.3 29.553c1.975 1.14 11.382 2.995 11.382 2.995s-6.31-7.218-8.285-8.359c-1.975-1.14-4.608-.276-5.124.618s.053 3.606 2.027 4.746z"/><path style="fill:#4670c8" d="M14.3 28.553c1.975 1.14 11.382 2.995 11.382 2.995s-6.31-7.218-8.285-8.359c-1.975-1.14-4.608-.276-5.124.618s.053 3.606 2.027 4.746z"/><path style="opacity:.2" d="M17.872 23.825c.59 2.203 5.93 10.166 5.93 10.166s.642-9.566.052-11.769c-.59-2.202-3.063-3.454-4.06-3.186-.997.267-2.512 2.587-1.922 4.79z"/><path style="opacity:.2" d="M15.825 36.128c2.203-.59 10.166-5.93 10.166-5.93s-9.566-.642-11.769-.052c-2.202.59-3.454 3.063-3.186 4.06.267.997 2.587 2.512 4.79 1.922z"/><path style="fill:#4ab6e7" d="M15.825 35.128c2.203-.59 10.166-5.93 10.166-5.93s-9.566-.642-11.769-.052c-2.202.59-3.454 3.063-3.186 4.06.267.997 2.587 2.512 4.79 1.922z"/><path style="opacity:.2" d="M22.146 39.778c-.59-2.203.053-11.77.053-11.77s5.34 7.964 5.93 10.167c.59 2.202-.926 4.522-1.923 4.79-.997.267-3.47-.985-4.06-3.187z"/><path style="fill:#4ab6e7" d="M22.146 38.778c-.59-2.203.053-11.77.053-11.77s5.34 7.964 5.93 10.167c.59 2.202-.926 4.522-1.923 4.79-.997.267-3.47-.985-4.06-3.187z"/><path style="opacity:.2" d="M21.553 39.7c1.14-1.975 2.995-11.382 2.995-11.382s-7.218 6.31-8.359 8.285c-1.14 1.975-.276 4.608.618 5.124s3.606-.053 4.746-2.027z"/><path style="fill:#4670c8" d="M21.553 38.7c1.14-1.975 2.995-11.382 2.995-11.382s-7.218 6.31-8.359 8.285c-1.14 1.975-.276 4.608.618 5.124s3.606-.053 4.746-2.027z"/><path style="fill:#4ab6e7" d="M17.872 22.825c.59 2.203 5.93 10.166 5.93 10.166s.642-9.566.052-11.769c-.59-2.202-3.063-3.454-4.06-3.186-.997.267-2.512 2.587-1.922 4.79z"/><circle style="opacity:.2" cx="35.419" cy="15.347" r="4" transform="rotate(30)"/><circle style="fill:#ffb22e" cx="34.919" cy="14.481" r="4" transform="rotate(30)"/><path style="opacity:.2;fill:#f4f4f7" d="M22.81 26.004A4 4 0 0 0 19.536 28a4 4 0 0 0-.5 2.506 4 4 0 0 1 .5-1.506A4 4 0 0 1 25 27.535a4 4 0 0 1 1.965 2.96A4 4 0 0 0 25 26.534a4 4 0 0 0-2.19-.531z"/></svg>