<svg height="48" width="48" xmlns="http://www.w3.org/2000/svg"><path d="m3 5c1.694 2.372 2.915 6.941 3.574 12.197a21 14 0 0 0 -3.574 7.803 21 14 0 0 0 3.771 7.975c-.55 5.183-1.76 9.68-3.771 12.025 5.893 0 11.174-2.564 14.834-6.62a21 14 0 0 0 6.166.62 21 14 0 0 0 21-14 21 14 0 0 0 -21-14 21 14 0 0 0 -6.156.629c-3.66-4.061-8.946-6.629-14.844-6.629z" opacity=".2"/><path d="m23 24c0 11.046-8.954 20-20 20 6-7 5-33 0-40 11.046 0 20 8.954 20 20z" fill="#c1272d"/><ellipse cx="24" cy="24" fill="#c1272d" rx="21" ry="14"/><path d="m24 14c-5.259 0-9.971 1.453-13.186 3.596-3.211 2.141-4.812 4.75-4.814 7.398.007 1.936.87 3.925 2.846 5.815a3 3 0 0 1 .908 2.484c-.296 2.785-.72 5.407-1.436 7.758 2.815-.94 5.336-2.515 7.29-4.68a3 3 0 0 1 2.83-.93c1.792.368 3.67.559 5.562.56 5.259 0 9.971-1.454 13.186-3.596 3.214-2.143 4.814-4.755 4.814-7.405s-1.6-5.261-4.814-7.404c-3.216-2.143-7.927-3.596-13.186-3.596z" opacity=".2"/><path d="m24 13c-5.259 0-9.971 1.453-13.186 3.596-3.211 2.141-4.812 4.75-4.814 7.398.007 1.935.87 3.925 2.846 5.815a3 3 0 0 1 .908 2.484c-.296 2.784-.72 5.407-1.436 7.758 2.815-.94 5.336-2.515 7.29-4.68a3 3 0 0 1 2.83-.93c1.792.369 3.67.559 5.562.559 5.259 0 9.971-1.453 13.186-3.596 3.214-2.143 4.814-4.754 4.814-7.404s-1.6-5.261-4.814-7.404c-3.216-2.143-7.927-3.596-13.186-3.596z" fill="#f4f4f7"/><g opacity=".2"><circle cx="24" cy="25" r="3"/><circle cx="32" cy="25" r="3"/><circle cx="16" cy="25" r="3"/></g><g fill="#c1272d"><circle cx="24" cy="24" r="3"/><circle cx="32" cy="24" r="3"/><circle cx="16" cy="24" r="3"/></g><path d="m3 4c.217.303.426.645.627 1.018 5.644.175 10.687 2.695 14.217 6.61a21 14 0 0 1 6.156-.628 21 14 0 0 1 20.969 13.586 21 14 0 0 0 .031-.586 21 14 0 0 0 -21-14 21 14 0 0 0 -6.156.629c-3.66-4.061-8.946-6.629-14.844-6.629zm3.451 12.332a21 14 0 0 0 -3.451 7.668 21 14 0 0 0 .037.473 21 14 0 0 1 3.537-7.276c-.037-.293-.083-.576-.123-.865zm.21 16.533c-.594 4.801-1.769 8.926-3.661 11.135.248 0 .494-.01.74-.02 1.572-2.505 2.552-6.493 3.031-11.005a21 14 0 0 1 -.11-.11z" fill="#f4f4f7" opacity=".2"/></svg>