<svg xmlns="http://www.w3.org/2000/svg" width="48" height="48" version="1"><rect fill="#feb625" width="40" height="40" x="4" y="4" rx="2" ry="2"/><path fill="#fff" opacity=".2" d="M6 4c-1.108 0-2 .892-2 2v1c0-1.108.892-2 2-2h36c1.108 0 2 .892 2 2V6c0-1.108-.892-2-2-2H6z"/><path opacity=".2" d="M6 45c-1.108 0-2-.892-2-2v-1c0 1.108.892 2 2 2h36c1.108 0 2-.892 2-2v1c0 1.108-.892 2-2 2H6z"/><path d="M34 36c-2.308 1.242-4.85 1.99-7.26 2-3.915 0-7.018-1.163-9.306-3.49C15.144 32.17 14 29.003 14 25.008c0-4.006 1.145-7.173 3.434-9.5C19.722 13.168 22.824 12 26.74 12c2.62.03 5.139.84 7.26 2v5.05c-2.08-1.27-4.528-2.053-6.772-2.067-2.163 0-4.064.739-5.302 2.216s-1.859 3.213-1.859 5.81c0 2.585.62 4.315 1.859 5.792s3.139 2.216 5.302 2.216c2.413-.138 5.026-.826 6.771-2.066z" opacity=".1"/><path d="M34 35c-2.308 1.242-4.85 1.99-7.26 2-3.915 0-7.018-1.163-9.306-3.49C15.144 31.17 14 28.003 14 24.008c0-4.006 1.145-7.173 3.434-9.5C19.722 12.168 22.824 11 26.74 11c2.62.03 5.139.84 7.26 2v5.05c-2.08-1.27-4.528-2.053-6.772-2.067-2.163 0-4.064.739-5.302 2.216s-1.859 3.213-1.859 5.81c0 2.585.62 4.315 1.859 5.792s3.139 2.216 5.302 2.216c2.413-.138 5.026-.826 6.771-2.066z" fill="#424242"/></svg>