<svg xmlns="http://www.w3.org/2000/svg" width="48" height="48" version="1"><circle style="opacity:.2" cx="24" cy="25" r="20"/><path style="fill:#396bd7" d="M23.969 4c-7.006 0-13.131 3.592-16.694 9.027-.126 8.142 5.048 10.98 8.8 15.242a8.938 8.938 0 0 1-1.093-4.28c0-4.982 4.039-6.441 8.986-6.995l17.849-2A19.904 19.904 0 0 0 23.968 4z"/><path style="fill:#6199f6" d="M6.695 34.042C10.198 40.115 16.368 43.63 22.85 44c6.913-3.814 10.577-8.663 8.788-15.249a8.926 8.926 0 0 1-3.156 3.086c-2.141 1.238-4.124-.063-6.33-.642-2.237-.588-4.693-.477-5.946-2.65L7.282 13.072a19.944 19.944 0 0 0-.588 20.97z"/><path style="fill:#a2c2fa" d="M41.319 33.987c3.503-6.073 3.458-13.179.537-18.984l-17.586.007c1.448.04 2.9.414 4.248 1.193 2.304 1.332 2.087 3.963 2.597 6.368.444 2.095 1.851 3.91.692 5.92l-8.924 15.472a19.901 19.901 0 0 0 18.436-9.976z"/><rect opacity=".2" width="18" height="18" x="-33.98" y="-33" rx="9" ry="9" transform="matrix(0 -1 -1 0 0 0)"/><rect style="fill:#f4f4f7" width="18" height="18" x="-33" y="-33" rx="9" ry="9" transform="matrix(0 -1 -1 0 0 0)"/><rect style="fill:#4688f4" width="14" height="14" x="-31" y="-31" rx="7" ry="7" transform="matrix(0 -1 -1 0 0 0)"/><path style="opacity:.2;fill:#f4f4f7" d="M24 4A20 20 0 0 0 4 24a20 20 0 0 0 .021.582A20 20 0 0 1 24 5a20 20 0 0 1 19.979 19.418A20 20 0 0 0 44 24 20 20 0 0 0 24 4z"/></svg>