<svg height="48" width="48" xmlns="http://www.w3.org/2000/svg" xmlns:xlink="http://www.w3.org/1999/xlink"><linearGradient id="a" gradientTransform="matrix(.49921 0 0 .49973 -55.888 -105.93)" gradientUnits="userSpaceOnUse" x1="168" x2="160" y1="266" y2="270"><stop offset="0"/><stop offset="1" stop-opacity="0"/></linearGradient><rect fill="#325f78" height="40" rx="2" transform="matrix(0 -1 -1 0 0 0)" width="32" x="-40" y="-44"/><path d="m-37-41h26v34h-26z" opacity=".2" transform="matrix(0 -1 -1 0 0 0)"/><path d="m6 8c-1.108 0-2 .892-2 2v1c0-1.108.892-2 2-2h36c1.108 0 2 .892 2 2v-1c0-1.108-.892-2-2-2z" fill="#fff" opacity=".1"/><path d="m4 38v1c0 1.108.892 2 2 2h36c1.108 0 2-.892 2-2v-1c0 1.108-.892 2-2 2h-36c-1.108 0-2-.892-2-2z" opacity=".2"/><path d="m23.985 33.989a9.968 9.968 0 0 1 -9.984-9.995c0-.084-.002-.166 0-.25a9.97 9.97 0 0 0 9.984 9.745 9.97 9.97 0 0 0 9.984-9.745c.002.084 0 .166 0 .25a9.968 9.968 0 0 1 -9.984 9.995z" opacity=".1"/><path d="m23.984 15a9.95 9.95 0 0 0 -8.346 4.514l4.4 7.62a4.47 4.47 0 0 1 -.546-2.14c0-2.491 2.018-3.22 4.492-3.498l2.443-.273a4.48 4.48 0 0 1 1.477 6.023l-4.46 7.736a9.95 9.95 0 0 0 9.216-4.988 9.973 9.973 0 0 0 .268-9.492l-.266-.512h-.053c-1.722-2.982-4.919-4.99-8.624-4.99zm-8.342 4.537a9.972 9.972 0 0 0 -.292 10.484 9.943 9.943 0 0 0 8.076 4.98l4.395-7.626a4.48 4.48 0 0 1 -7.715-.102l-4.463-7.736z" opacity=".2"/><path d="m23.985 14.001a9.95 9.95 0 0 0 -8.346 4.513l4.4 7.62a4.465 4.465 0 0 1 -.547-2.139c0-2.491 2.02-3.22 4.493-3.498l8.923-1a9.953 9.953 0 0 0 -8.924-5.497z" fill="#dd4d3e"/><path d="m15.349 29.021a9.95 9.95 0 0 0 8.078 4.979l4.393-7.624a4.48 4.48 0 0 1 -7.715-.103l-4.462-7.736a9.973 9.973 0 0 0 -.294 10.485z" fill="#109f5b"/><path d="m32.66 28.994a9.972 9.972 0 0 0 .269-9.492l-.266-.512-8.662.01c.724.02 1.586.713 2.26 1.102a4.49 4.49 0 0 1 1.644 6.144l-4.462 7.736a9.95 9.95 0 0 0 9.217-4.987z" fill="#ffce41"/><path d="m27.876 26.244-3.891-2.249-.584 9.999z" fill="url(#a)" opacity=".2"/><rect fill="#fff" height="10" rx="5.005" ry="5" transform="matrix(0 -1 -1 0 0 0)" width="10.01" x="-29" y="-29"/><path d="m14.017 24.307a9.957 9.957 0 0 0 9.969 9.682 9.958 9.958 0 0 0 9.968-9.682 9.963 9.963 0 0 1 -9.968 9.479 9.964 9.964 0 0 1 -9.969-9.479z" fill="#fff" opacity=".1"/><rect fill="#4587f3" height="8" rx="4" transform="matrix(0 -1 -1 0 0 0)" width="8" x="-28" y="-28"/></svg>