<svg height="48" width="48" xmlns="http://www.w3.org/2000/svg"><rect fill="#0286c2" height="40" rx="20" width="40" x="4" y="4"/><path d="m22.786 5.04c-1.682.1-3.305.406-4.847.894" opacity=".2"/><path d="m22.786 4.04c-1.682.1-3.305.407-4.847.894" fill="#f4f4f7"/><path d="m24 4a19.955 19.955 0 0 0 -19.998 20c0 .168-.004.333 0 .5.264-10.846 9.087-19.5 19.998-19.5s19.734 8.654 19.998 19.5c.004-.167 0-.332 0-.5 0-11.08-8.919-20-19.998-20z" fill="#fff" opacity=".2"/><path d="m4.012 24.5c-.004.167-.012.332-.012.5 0 11.08 8.92 20 20 20s20-8.92 20-20c0-.168-.008-.333-.012-.5-.264 10.846-9.076 19.5-19.988 19.5s-19.724-8.654-19.988-19.5z" opacity=".2"/></svg>