<svg xmlns="http://www.w3.org/2000/svg" width="48" height="48" version="1"><path style="opacity:.2" d="M3 39v2c0 1.108.892 2 2 2h38c1.108 0 2-.892 2-2v-2H17z"/><rect style="fill:#17191e" width="41" height="35.143" x="3.5" y="6.43" rx="1.952" ry="1.952"/><path style="opacity:.2" d="M12.063 36.831c.948-1.288 1.24-1.743 1.66-2.59.886-1.788 1.183-3.072 1.185-5.11 0-1.65-.125-2.452-.597-3.8-.148-.423-.293-.84-.322-.927-.032-.095-.008-.158.06-.158.143 0 4.56 2.313 4.823 2.526.179.144.198.264.237 1.506a19.449 19.449 0 0 1-.22 3.593c-.105.651.132.287.417-.642.517-1.68.596-2.25.591-4.27-.005-2.091-.135-2.92-.726-4.614-.178-.508-.3-.946-.273-.974.027-.027 1.25.748 2.716 1.722l2.666 1.771.062.414c.11.729.06 3.496-.078 4.395a89.388 89.388 0 0 0-.187 1.266l-.055.407.22-.407c.296-.55.672-1.664.88-2.611.672-3.045.316-6.212-1.02-9.08-.205-.437-.35-.815-.325-.84.108-.108 3.957 2.79 6.56 4.939 1.811 1.494 4.402 4.063 4.974 4.932.674 1.026.836 1.956.563 3.241-.146.684-.703 1.953-.96 2.185-.15.135-.171.127-.3-.12-.62-1.195-2.88-1.817-5.683-1.564-3.926.354-8.69 1.71-15.141 4.307-.918.37-1.71.672-1.76.672-.05 0-.036-.076.033-.169zm5.479-11.988c-.6-.154-1.14-.314-1.203-.354-.064-.042-.113-.259-.113-.504 0-.613-.22-1.286-.738-2.26-.248-.466-.433-.866-.41-.888.022-.022.683.319 1.47.757l1.428.797.203.567c.383 1.069.625 2.01.537 2.09-.047.042-.567-.048-1.174-.205zm14.338-1.828c-.576-1.173-2.29-2.436-4.537-3.343l-.726-.293-.057-.665c-.088-1.015-.465-2.299-1.126-3.831-.181-.422-.316-.81-.298-.863.09-.267 3.352 2.178 4.707 3.528 1.804 1.798 2.624 3.289 2.626 4.778.001.488-.177 1.196-.3 1.196-.022 0-.152-.228-.289-.506zm-9.392-.618-1.224-.475-.11-.765c-.122-.85-.435-1.796-.906-2.73-.171-.34-.299-.656-.284-.702.016-.046.726.381 1.58.949l1.55 1.031.196.53c.266.717.735 2.538.671 2.602-.087.087-.208.051-1.473-.44z"/><path style="fill:#f4f4f7" d="M12.063 35.831c.948-1.288 1.24-1.743 1.66-2.59.886-1.788 1.183-3.072 1.185-5.11 0-1.65-.125-2.452-.597-3.8-.148-.423-.293-.84-.322-.927-.032-.095-.008-.158.06-.158.143 0 4.56 2.313 4.823 2.526.179.144.198.264.237 1.506a19.449 19.449 0 0 1-.22 3.593c-.105.651.132.287.417-.642.517-1.68.596-2.25.591-4.27-.005-2.091-.135-2.92-.726-4.614-.178-.508-.3-.946-.273-.974.027-.027 1.25.748 2.716 1.722l2.666 1.771.062.414c.11.729.06 3.496-.078 4.395a89.388 89.388 0 0 0-.187 1.266l-.055.407.22-.407c.296-.55.672-1.664.88-2.611.672-3.045.316-6.212-1.02-9.08-.205-.437-.35-.815-.325-.84.108-.108 3.957 2.79 6.56 4.939 1.811 1.494 4.402 4.063 4.974 4.932.674 1.026.836 1.956.563 3.241-.146.684-.703 1.953-.96 2.185-.15.135-.171.127-.3-.12-.62-1.195-2.88-1.817-5.683-1.564-3.926.354-8.69 1.71-15.141 4.307-.918.37-1.71.672-1.76.672-.05 0-.036-.076.033-.169zm5.479-11.988c-.6-.154-1.14-.314-1.203-.354-.064-.042-.113-.259-.113-.504 0-.613-.22-1.286-.738-2.26-.248-.466-.433-.866-.41-.888.022-.022.683.319 1.47.757l1.428.797.203.567c.383 1.069.625 2.01.537 2.09-.047.042-.567-.048-1.174-.205zm14.338-1.828c-.576-1.173-2.29-2.436-4.537-3.343l-.726-.293-.057-.665c-.088-1.015-.465-2.299-1.126-3.831-.181-.422-.316-.81-.298-.863.09-.267 3.352 2.178 4.707 3.528 1.804 1.798 2.624 3.289 2.626 4.778.001.488-.177 1.196-.3 1.196-.022 0-.152-.228-.289-.506zm-9.392-.618-1.224-.475-.11-.765c-.122-.85-.435-1.796-.906-2.73-.171-.34-.299-.656-.284-.702.016-.046.726.381 1.58.949l1.55 1.031.196.53c.266.717.735 2.538.671 2.602-.087.087-.208.051-1.473-.44z"/><path style="fill:#f44336" d="M5 6c-1.108 0-2 .892-2 2v2h14V6H5z"/><path style="fill:#9c27b0" d="M17 6h14v4H17z"/><path style="fill:#3f51b5" d="M31 6v4h14V8c0-1.108-.892-2-2-2H31z"/><path style="fill:#ffeb3b" d="M3 38v2c0 1.108.892 2 2 2h12v-4H3z"/><path style="fill:#8bc34a" d="M17 38h14v4H17z"/><path style="fill:#009688" d="M31 38v4h12c1.108 0 2-.892 2-2v-2H31z"/><path style="fill:#00bcd4" transform="rotate(90)" d="M24-45h14v4H24z"/><path style="fill:#2196f3" transform="rotate(90)" d="M10-45h14v4H10z"/><path style="fill:#ffc107" transform="rotate(90)" d="M24-7h14v4H24z"/><path style="fill:#ff5722" transform="rotate(90)" d="M10-7h14v4H10z"/><path style="opacity:.2;fill:#f4f4f7" d="M5 6c-1.108 0-2 .892-2 2v1c0-1.108.892-2 2-2h38c1.108 0 2 .892 2 2V8c0-1.108-.892-2-2-2H5zM3 10h4v1H3zM3 24h4v1H3zM41 10h4v1h-4zM41 24h4v1h-4zM3 38h42v1H3z"/><path style="opacity:.2" d="M7 10h34v1H7z"/></svg>