<svg height="48" width="48" xmlns="http://www.w3.org/2000/svg">
    <path d="M24 4.5c-2.557 0-6.317.665-9.786 2.274-.21.097-.424.186-.632.291-.883.445-1.739.954-2.545 1.533-.023.017-.045.035-.068.051-.124.09-.246.181-.368.275-.067.052-.131.108-.198.162-.138.11-.273.222-.407.337-.059.05-.121.095-.18.146l-.054.048c-.07.062-.135.13-.204.194a14.44 14.44 0 0 0-1.133 1.173c-.057.067-.12.128-.175.196-.051.062-.1.126-.149.189-.023.03-.043.062-.067.091-.09.116-.178.235-.264.354-.06.081-.123.158-.18.24a12.11 12.11 0 0 0-.3.46v.001h-.002c-.195.312-.376.636-.543.97-.143.285-.271.58-.392.881-.02.051-.043.101-.063.153-.068.177-.134.359-.194.542-.043.13-.08.26-.118.393-.017.055-.036.11-.052.167-.25.911-.406 1.887-.443 2.935a15.222 15.222 0 0 0 .28 3.35c1.09 5.784 5.144 12.064 9.241 16.262 1.66 1.701 4.64 4.38 7.532 5.126.303.079.604.14.904.172.188.02.375.034.56.034 3.3 0 7.054-3.34 8.998-5.332 3.942-4.04 7.844-10.009 9.104-15.608.146-.646.257-1.29.328-1.923.079-.706.112-1.401.087-2.081C42.142 7.936 29.88 4.5 24 4.5zm.952 24.263.02.182z" fill="#465051"/>
    <path d="M24 5c-2.623 0-6.48.682-10.037 2.332-.216.1-.435.191-.649.299-.905.456-1.783.978-2.609 1.572l-.07.053a14.74 14.74 0 0 0-.377.281c-.07.053-.135.112-.203.166-.142.113-.28.228-.418.346-.06.051-.125.098-.184.15l-.056.049c-.072.064-.139.134-.21.2a14.82 14.82 0 0 0-1.162 1.202c-.058.069-.122.132-.18.202-.051.063-.1.129-.152.193-.024.03-.044.063-.068.094-.093.119-.183.24-.271.363-.06.083-.126.161-.184.246-.106.155-.209.31-.309.47v.003H6.86a11.84 11.84 0 0 0-.959 1.898c-.02.052-.044.104-.064.156-.07.183-.137.369-.2.557-.043.132-.081.267-.12.402-.017.058-.037.114-.053.172a13.028 13.028 0 0 0-.455 3.01c-.04 1.111.066 2.264.287 3.436 1.119 5.932 5.276 12.374 9.478 16.68 1.703 1.744 4.76 4.491 7.725 5.257.312.08.62.143.928.176.192.02.384.035.574.035 3.386 0 7.235-3.426 9.229-5.469 4.043-4.143 8.045-10.265 9.337-16.008.15-.663.264-1.323.336-1.972a14.54 14.54 0 0 0 .09-2.135C42.608 8.524 30.031 5 24 5zm.977 24.884.02.188-.02-.187z" opacity=".2"/>
    <path d="M25.68 12.5a18.033 18.033 0 0 0-3.453.299h-.002c-1.942.354-3.933 1.021-6.022 2.002.286.468.582.91.885 1.332.303.421.614.82.928 1.205 2.194 2.695 4.557 4.633 5.921 7.656v.002c.682 1.511 1.114 3.293 1.15 5.576v.002c.037 2.284-.322 5.068-1.224 8.584a72.338 72.338 0 0 1-1.365 4.631c.312.08.62.143.928.176.192.02.384.035.574.035 3.386 0 7.235-3.426 9.229-5.469 4.043-4.143 8.045-10.265 9.337-16.008-2.143-2.756-3.827-4.91-6.435-6.814-3.44-2.512-7.003-3.17-10.451-3.209z" fill="#e45e3e"/>
    <path d="M5.464 15.405a13.027 13.027 0 0 0-.456 3.01c-.04 1.112.065 2.264.286 3.436 3.114-2.436 5.96-4.394 8.627-5.878a21.87 21.87 0 0 1-1.682-3.198s-5.652-1.224-6.775 2.63z" fill="#519c26"/>
    <path d="M42.992 18.416C42.607 7.524 30.03 4 24 4c-2.782 0-6.957.753-10.686 2.63a19.56 19.56 0 0 0-2.609 1.574c-2.419 1.74-4.386 4.094-5.242 7.202 2.409-1.06 4.663-1.94 6.776-2.631a49.693 49.693 0 0 1 2.551-.762c8.986-2.42 15.42-1.156 21.34 3.696 2.181 1.787 4.293 4.057 6.437 6.814.149-.663.262-1.322.335-1.971a14.57 14.57 0 0 0 .09-2.136z" fill="#2194cd"/>
    <path d="M13.921 15.973c-2.668 1.484-5.513 3.442-8.627 5.878 1.12 5.932 5.276 12.374 9.479 16.68 1.702 1.744 4.76 4.492 7.725 5.258a72.376 72.376 0 0 0 1.366-4.63v-.002a65.823 65.823 0 0 0 .117-3.002c.006-.467.005-.917-.002-1.35v-.002a36.415 36.415 0 0 0-.115-2.424 28.29 28.29 0 0 0-.11-1.084 22.397 22.397 0 0 0-.318-1.938c-.57-2.69-1.544-4.454-2.728-5.905a15.603 15.603 0 0 0-.403-.473 20.99 20.99 0 0 0-.845-.896c-.579-.582-1.187-1.143-1.808-1.736a44.57 44.57 0 0 1-.937-.92c-.157-.16-.314-.323-.471-.49l-.001-.001a21.378 21.378 0 0 1-1.406-1.656c-.31-.406-.616-.839-.916-1.307z" fill="#65c32f"/>
    <path d="M10.706 8.204a16.117 16.117 0 0 0-1.252.995l-.057.049a14.289 14.289 0 0 0-1.552 1.603v.001c-.052.063-.101.128-.152.192a12.89 12.89 0 0 0-.833 1.176c-.199.32-.385.652-.557.994a12.3 12.3 0 0 0-.403.905c-.02.053-.044.103-.065.156v.001a12.161 12.161 0 0 0-.32.958l-.051.171v.001c2.408-1.06 4.662-1.94 6.775-2.63-.558-1.3-1.076-2.805-1.533-4.572z" fill="#465051"/>
    <path d="M22.53 11.82c-2.373.04-4.933.437-7.74 1.193-.83.223-1.678.476-2.552.762a21.865 21.865 0 0 0 1.684 3.197c.3.469.605.902.914 1.307.464.608.935 1.153 1.406 1.656h.002c.157.168.314.331.47.49.315.32.628.626.938.922.62.593 1.23 1.153 1.809 1.735a18.526 18.526 0 0 1 1.246 1.369c1.184 1.45 2.159 3.216 2.729 5.906.126.598.233 1.242.318 1.938.042.348.08.709.111 1.084.062.75.1 1.555.114 2.424v.002a46.88 46.88 0 0 1-.037 2.798v.002c-.02.5-.045 1.018-.079 1.553.244-.95.44-1.836.608-2.684.05-.258.083-.49.127-.74.103-.58.2-1.15.267-1.683.034-.262.053-.507.078-.758.048-.473.087-.934.108-1.371.021-.46.044-.922.037-1.346v-.004a17.267 17.267 0 0 0-.092-1.496c-.006-.063-.012-.129-.02-.191a14.36 14.36 0 0 0-.187-1.174c-.07-.35-.154-.679-.246-1.002-.04-.139-.07-.286-.113-.42a12.129 12.129 0 0 0-.465-1.22c-.01-.024-.017-.05-.027-.073v-.002c-.184-.407-.389-.79-.606-1.162-.082-.14-.172-.272-.258-.408a15.34 15.34 0 0 0-.443-.674c-.096-.136-.197-.27-.297-.403a21.172 21.172 0 0 0-.502-.65c-.077-.095-.157-.189-.236-.283a54.966 54.966 0 0 0-1.5-1.697c-.167-.184-.326-.369-.494-.555a45.39 45.39 0 0 1-1.586-1.822v-.002a25.448 25.448 0 0 1-.928-1.205 21.163 21.163 0 0 1-.885-1.333c.484-.226.96-.431 1.434-.625.123-.05.245-.096.367-.144a26.194 26.194 0 0 1 1.49-.533c.323-.104.644-.198.963-.285.145-.04.29-.083.434-.12.429-.108.855-.204 1.279-.283l.055-.011h.002a18.622 18.622 0 0 1 1.949-.243 17.571 17.571 0 0 1 1.504-.056c3.448.04 7.011.697 10.451 3.209-4.07-3.336-8.383-4.976-13.602-4.889zm-8.567-5.488c-.216.1-.435.191-.649.299-.905.456-1.783.978-2.609 1.572-.024.017-.046.037-.07.055l.07-.053c.458 1.767.975 3.27 1.533 4.57a49.678 49.678 0 0 1 2.551-.761l.164-.041c-.614-1.794-.937-3.675-.99-5.641z" opacity=".2"/>
    <g fill="#f4f4f7">
        <path d="M22.53 10.82c-2.373.04-4.933.437-7.74 1.194a49.45 49.45 0 0 0-2.552.761 21.865 21.865 0 0 0 1.684 3.198c.3.468.605.9.914 1.306.464.608.935 1.153 1.406 1.657h.002c.157.167.314.33.47.49.315.32.628.625.938.922.62.593 1.23 1.152 1.809 1.734.29.291.57.588.844.897.136.154.27.311.402.472 1.184 1.45 2.159 3.216 2.729 5.906.126.598.233 1.242.318 1.938.042.348.08.709.111 1.084.062.75.1 1.555.114 2.424v.002a46.885 46.885 0 0 1-.038 2.799v.001c-.019.5-.044 1.018-.078 1.553.244-.95.44-1.836.608-2.683.05-.258.082-.492.127-.74.103-.58.2-1.15.267-1.684.034-.262.053-.507.078-.758.048-.472.087-.934.108-1.371.021-.46.044-.921.037-1.346v-.004a17.267 17.267 0 0 0-.092-1.496c-.006-.063-.012-.129-.02-.191a14.36 14.36 0 0 0-.187-1.174c-.07-.35-.155-.679-.246-1.002-.04-.139-.07-.286-.113-.42a12.129 12.129 0 0 0-.465-1.22c-.01-.024-.017-.05-.027-.073v-.002a12.99 12.99 0 0 0-.606-1.162c-.082-.14-.172-.272-.258-.408a15.34 15.34 0 0 0-.443-.674c-.096-.136-.197-.27-.297-.402a21.172 21.172 0 0 0-.502-.65c-.077-.096-.157-.19-.236-.284a54.966 54.966 0 0 0-1.5-1.697c-.167-.184-.326-.369-.494-.555a45.39 45.39 0 0 1-1.586-1.822v-.002a25.448 25.448 0 0 1-.928-1.205 21.163 21.163 0 0 1-.885-1.332c.483-.227.96-.432 1.434-.625.123-.05.244-.097.367-.145a26.194 26.194 0 0 1 1.49-.533c.323-.104.644-.198.963-.285.145-.04.29-.083.434-.12.428-.108.855-.204 1.279-.282l.055-.012h.002a18.62 18.62 0 0 1 1.949-.242 17.57 17.57 0 0 1 1.504-.057c3.448.04 7.011.697 10.45 3.209-4.07-3.335-8.382-4.976-13.6-4.889z"/>
        <path d="M24 4c-2.623 0-6.48.682-10.037 2.332-.216.1-.435.191-.649.299-.905.456-1.783.978-2.609 1.572l-.07.053a16.49 16.49 0 0 0-.377.281c-.07.053-.135.112-.203.166-.142.113-.28.229-.418.346-.06.051-.125.098-.184.15l-.057.049c-.071.064-.138.134-.209.2a14.82 14.82 0 0 0-1.162 1.202c-.058.069-.122.132-.18.202-.051.063-.1.129-.152.193-.024.03-.044.063-.068.094-.093.119-.183.24-.271.363-.06.083-.126.161-.184.246-.106.155-.209.31-.309.47v.003H6.86a11.84 11.84 0 0 0-.959 1.898c-.02.053-.044.104-.064.156-.07.183-.137.369-.2.557-.043.132-.081.267-.12.402-.017.058-.037.114-.053.172a13.028 13.028 0 0 0-.451 3.963c.04-1.056.197-2.042.45-2.963.017-.058.037-.114.054-.172.039-.135.077-.27.12-.402.063-.188.13-.374.2-.557.02-.052.043-.103.064-.156a11.697 11.697 0 0 1 .959-1.898h.002v-.002c.1-.16.203-.316.309-.471.058-.085.123-.163.184-.246.088-.123.178-.244.271-.363.024-.03.044-.064.068-.094.051-.064.1-.13.153-.193.057-.07.12-.133.18-.202a13.76 13.76 0 0 1 .779-.836c.125-.124.252-.247.383-.367.07-.065.137-.135.208-.199l.057-.049c.06-.052.124-.099.184-.15.137-.117.276-.233.418-.346.068-.054.134-.113.203-.166.124-.096.25-.189.377-.281l.07-.053a19.448 19.448 0 0 1 2.61-1.572c.213-.108.432-.199.648-.299C17.52 5.682 21.377 5 24 5c6.017 0 18.548 3.51 18.986 14.344.011-.312.017-.622.006-.928C42.607 7.524 30.031 4 24 4z" opacity=".2"/>
    </g>
</svg>
