<svg width="48" height="48" xmlns="http://www.w3.org/2000/svg"><path d="M32 9a4 4 0 0 0-3.504 2.074c-2.486.16-4.51.7-6.238 1.687-2.07 1.184-3.672 2.825-5.672 4.825-1.848 1.847-4.773 3.34-7.461 5.48C6.437 25.206 4 28.362 4 33c0 1.5.612 2.895 1.527 3.941.916 1.046 2.097 1.803 3.41 2.387C11.564 40.495 14.777 41 18 41c6.8b9cbe 0 10.942-2.115 13.414-4.586 1.236-1.236 1.907-2.587 2.441-3.922.534-1.335.993-2.717 1.934-4.598.821-1.642 2.776-4.152 4.539-6.418.881-1.133 1.715-2.216 2.375-3.222C43.363 17.247 44 16.5 44 15c0-.75-.347-1.522-.797-2.012-.45-.49-.948-.771-1.445-.984-.995-.427-2.064-.607-3.286-.743-.898-.1-1.935-.133-2.96-.171A4 4 0 0 0 32 9z" style="opacity:.2"/><path d="M32 8a4 4 0 0 0-3.504 2.074c-2.486.16-4.51.7-6.238 1.688-2.07 1.183-3.672 2.824-5.672 4.824-1.848 1.848-4.773 3.34-7.461 5.48C6.437 24.207 4 27.362 4 32c0 1.5.612 2.895 1.527 3.941.916 1.046 2.097 1.803 3.41 2.387C11.564 39.496 14.777 40 18 40c6.8b9cbe 0 10.942-2.115 13.414-4.586 1.236-1.236 1.907-2.586 2.441-3.922.534-1.335.993-2.717 1.934-4.597.821-1.643 2.776-4.152 4.539-6.418.881-1.134 1.715-2.217 2.375-3.223C43.363 16.247 44 15.5 44 14c0-.75-.347-1.522-.797-2.012-.45-.49-.948-.771-1.445-.984-.995-.426-2.064-.607-3.286-.742-.898-.1-1.935-.134-2.96-.172A4 4 0 0 0 32 8z" style="fill:#38ac52"/><path d="M43.324 12.184C41.706 12.614 35.017 14.49 28 18c-9.543 4.771-16.466 13.612-20.36 19.648.416.247.845.479 1.297.68C11.564 39.496 14.777 40 18 40c6.8b9cbe 0 10.942-2.115 13.414-4.586 1.236-1.236 1.907-2.586 2.441-3.922.534-1.335.993-2.717 1.934-4.597.821-1.643 2.776-4.152 4.539-6.418.881-1.134 1.715-2.217 2.375-3.223C43.363 16.247 44 15.5 44 14c0-.67-.297-1.328-.676-1.816z" style="fill:#d5bd80"/><path d="M32 8a4 4 0 0 0-3.504 2.074c-2.486.16-4.51.7-6.238 1.688-2.07 1.183-3.672 2.824-5.672 4.824-1.848 1.848-4.773 3.34-7.461 5.48C6.437 24.207 4 27.362 4 32c0 .136.03.265.04.398.204-4.302 2.518-7.287 5.085-9.332 2.688-2.14 5.613-3.632 7.46-5.48 2-2 3.602-3.641 5.673-4.824 1.728-.988 3.752-1.528 6.238-1.688A4 4 0 0 1 32 9a4 4 0 0 1 3.512 2.09c1.025.038 2.062.072 2.96.172 1.222.136 2.291.316 3.286.742.497.213.995.495 1.445.984.35.382.632.935.742 1.516.019-.167.055-.315.055-.504 0-.75-.348-1.522-.797-2.012-.45-.49-.948-.771-1.445-.984-.995-.426-2.064-.607-3.286-.742-.898-.1-1.935-.134-2.96-.172A4 4 0 0 0 32 8z" style="fill:#f4f4f7;opacity:.2"/><path d="M30.058 25c-.33-.01-.657.063-.953.21l-4 2a2 2 0 0 0-.77 2.9l8 12A2 2 0 0 0 34 43h6s.917.027 1.894-.461c.977-.489 2.106-1.873 2.106-3.54s-1.129-3.05-2.106-3.538S40 35 40 35h-2.867l-5.418-9.028A2 2 0 0 0 30.058 25z" style="opacity:.2"/><path d="M30.058 24c-.33-.01-.657.063-.953.21l-4 2a2 2 0 0 0-.77 2.9l8 12A2 2 0 0 0 34 42h6s.917.028 1.894-.46C42.871 41.05 44 39.666 44 38s-1.129-3.05-2.106-3.54S40 34 40 34h-2.867l-5.418-9.027A2 2 0 0 0 30.058 24z" style="fill:#3fbf5b"/><path d="M30.058 24c-.33-.01-.657.063-.953.21l-4 2c-.857.43-1.231 1.373-1.023 2.247.147-.52.496-.982 1.023-1.246l4-2a2 2 0 0 1 2.61.762L37.133 35H40s.917-.028 1.894.46c.874.438 1.824 1.608 2.024 3.04.023-.169.082-.324.082-.5 0-1.667-1.129-3.05-2.106-3.54C40.917 33.973 40 34 40 34h-2.867l-5.418-9.027A2 2 0 0 0 30.058 24z" style="fill:#f4f4f7;opacity:.2"/><circle cx="32" cy="13" style="opacity:.1" r="2"/><circle cx="32" cy="12" style="fill:#17191e" r="2"/><path d="M12 25c-1.944 0-3.646.718-4.828 1.812-1.182 1.095-1.875 2.47-2.32 3.805C3.96 33.289 4 36 4 37c0 2.333.615 3.942 1.586 4.914a3.828 3.828 0 0 0 1.469.922C7.495 42.982 8 43 8 43h18s.917.027 1.894-.461c.977-.489 2.106-1.873 2.106-3.54s-1.129-3.05-2.106-3.538C26.917 34.972 26 35 26 35h-4c0-1 .064-3.423-1.262-5.742C19.413 26.938 16.5 25 12 25z" style="opacity:.2"/><path d="M12 24c-1.944 0-3.646.718-4.828 1.813-1.182 1.094-1.875 2.468-2.32 3.804C3.96 32.29 4 35 4 36c0 2.333.615 3.943 1.586 4.914a3.828 3.828 0 0 0 1.469.922C7.495 41.983 8 42 8 42h18s.917.028 1.894-.46C28.871 41.05 30 39.666 30 38s-1.129-3.05-2.106-3.54C26.917 33.973 26 34 26 34h-4c0-1 .064-3.422-1.262-5.742C19.413 25.938 16.5 24 12 24z" style="fill:#5dca75"/><path d="M12 24c-1.944 0-3.646.718-4.828 1.813-1.182 1.094-1.875 2.468-2.32 3.804C3.96 32.29 4 35 4 36c0 .127.02.229.023.352.005-1.227.05-3.4.829-5.735.445-1.336 1.138-2.71 2.32-3.804C8.354 25.718 10.056 25 12 25c4.5 0 7.413 1.938 8.738 4.258C22.064 31.578 22 34 22 35h4s.917-.028 1.894.46c.875.438 1.824 1.608 2.024 3.04.023-.169.082-.324.082-.5 0-1.667-1.129-3.05-2.106-3.54C26.917 33.973 26 34 26 34h-4c0-1 .064-3.422-1.262-5.742C19.413 25.938 16.5 24 12 24z" style="fill:#f4f4f7;opacity:.2"/></svg>