<svg xmlns="http://www.w3.org/2000/svg" width="48" height="48">
    <path style="fill:#9aca3c" d="M24 4A20 20 0 0 0 4 24a20 20 0 0 0 20 20 20 20 0 0 0 20-20A20 20 0 0 0 24 4z"/>
    <path opacity=".2" d="M4.021 24.418A20 20 0 0 0 4 25a20 20 0 0 0 20 20 20 20 0 0 0 20-20 20 20 0 0 0-.021-.418A20 20 0 0 1 24 44 20 20 0 0 1 4.022 24.418z"/>
    <path fill="#f4f4f7" opacity=".2" d="M24 4A20 20 0 0 0 4 24a20 20 0 0 0 .021.418A20 20 0 0 1 24 5a20 20 0 0 1 19.979 19.582 20 20 0 0 0 .02-.582A20 20 0 0 0 24 4z"/>
    <path style="opacity:.2;stroke-linejoin:round;stroke:#000;stroke-linecap:round;stroke-width:4;fill:none" d="m17 16 8 9m-6 10 14-19"/>
    <path style="stroke-linejoin:round;stroke:#f4f4f7;stroke-linecap:round;fill:none;stroke-width:4" d="m19 33 14-19m-16 0 8 9" transform="translate(0 1)"/>
    <circle style="opacity:.2" cx="36" cy="36" r="11"/>
    <circle style="fill:#4f4f4f" cx="36" cy="35" r="11"/>
    <path style="fill:#f4f4f7" d="M33 30a5 5 0 0 0-5 5 5 5 0 0 0 5 5 5 5 0 0 0 5-5 5 5 0 0 0-5-5zm0 2a3 3 0 0 1 3 3 3 3 0 0 1-3 3 3 3 0 0 1-3-3 3 3 0 0 1 3-3z"/>
    <path style="fill:#f4f4f7" d="M36 34h8v2h-8zm5 2h2v2h-2z"/>
</svg>
