<svg height="48" width="48" xmlns="http://www.w3.org/2000/svg">
    <path d="M40 39.065c-.004 2.935-.707 3.914-9.651 3.914-2.543 0-5.638.23-7.268-.824-1.538-.996-.984-2.457-.984-3.944 0-3.062 2.908-5.211 7.852-5.211 4.943 0 10.055 3 10.051 6.065z" opacity=".2"/>
    <path d="M40 38.065c-.004 2.935-.707 3.914-9.651 3.914-2.543 0-5.638.23-7.268-.824-1.538-.996-.984-2.457-.984-3.944 0-3.062 2.908-5.211 7.852-5.211 4.943 0 10.055 3 10.051 6.065z" fill="#d48003"/>
    <path d="M24 4A18 18 0 0 0 6 22a18 18 0 0 0 18 18 18 18 0 0 0 18-18A18 18 0 0 0 24 4z" opacity=".2"/>
    <path d="M24 3A18 18 0 0 0 6 21a18 18 0 0 0 18 18 18 18 0 0 0 18-18A18 18 0 0 0 24 3z" fill="#fdc33b"/>
    <ellipse cx="21" cy="19" opacity=".1" rx="3" ry="4"/>
    <path d="M25 39.065c-.004 2.935-.707 3.914-9.651 3.914-2.543 0-5.638.23-7.268-.824-1.539-.996-.984-2.457-.984-3.944C7.097 35.15 10.005 33 14.95 33c4.943 0 10.055 3 10.051 6.065z" opacity=".2"/>
    <path d="M25 38.065c-.004 2.935-.707 3.914-9.651 3.914-2.543 0-5.638.23-7.268-.824-1.539-.996-.984-2.457-.984-3.944C7.097 34.15 10.005 32 14.95 32c4.943 0 10.055 3 10.051 6.065z" fill="#d48003"/>
    <ellipse cx="21" cy="18" fill="#414141" rx="3" ry="4"/>
    <ellipse cx="30" cy="19" opacity=".1" rx="3" ry="4"/>
    <ellipse cx="30" cy="18" fill="#414141" rx="3" ry="4"/>
    <path d="M24 3A18 18 0 0 0 6 21a18 18 0 0 0 .021.414A18 18 0 0 1 24 4a18 18 0 0 1 17.979 17.586A18 18 0 0 0 42 21 18 18 0 0 0 24 3z" fill="#f4f4f7" opacity=".2"/>
</svg>
