<svg xmlns="http://www.w3.org/2000/svg" width="48" height="48"><path style="opacity:.2" d="M42.8 8H5.2C3.433 8 2 9.45 2 11.238v27.524C2 40.55 3.433 42 5.2 42h37.6c1.767 0 3.2-1.45 3.2-3.238V11.238C46 9.45 44.567 8 42.8 8z"/><path style="fill:#f4f4f7" d="M42.8 7H5.2C3.433 7 2 8.45 2 10.238v27.524C2 39.55 3.433 41 5.2 41h37.6c1.767 0 3.2-1.45 3.2-3.238V10.238C46 8.45 44.567 7 42.8 7z"/><path style="fill:#4c4854" d="M5 10h38v28H5z"/><path style="fill:#33d17a" d="M27 23.9V38h2V23.1zM39 24.5V38h2V22.9zM31 24v14h2V25.6zM11 28v10h2V27.2zM35 26.6V38h2V27.4zM23 28.4V38h2V26.8zM7 28.4V38h2v-9.6zM15 28.4V38h2v-9.6zM19 30v8h2v-7.2z"/><path style="opacity:.2" d="M41.2 22.14a.75.75 0 0 0-.575.263l-4.28 4.885-7.347-4.135a.75.75 0 0 0-.88.107l-7.524 7.08-7.582-3.209a.75.75 0 0 0-.512-.027l-5.975 1.818a.75.75 0 1 0 .436 1.434l5.717-1.736 7.781 3.29a.75.75 0 0 0 .807-.144l7.476-7.037 7.399 4.164a.75.75 0 0 0 .931-.16l4.682-5.342a.75.75 0 0 0-.555-1.252z"/><path style="fill:none;stroke:#ed333b;stroke-width:1.5;stroke-linecap:round;stroke-linejoin:round" d="m6.743 28.639 5.976-1.817 8.033 3.398 7.878-7.415 7.879 4.434 4.68-5.343"/><path style="opacity:.2" d="M6.811 14v.53h.426V14zm.47 0v.527h.43V14zm.473 0v.527h.429V14zm.472 0v.527h.43V14zm1.257 0v.53h.426V14zm1.888 0v.527h.43V14zm.784 0v.527h.426V14zm.47 0v.527h.43V14zm.473 0v.527h.428V14zm.472 0v.527H14V14zm.473 0v.527h.43V14zm3.454 0v.527h.428V14zm1.888 0v.527h.432V14zm1.255 0v.527h.43V14zm.474 0v.527h.426V14zm.47 0v.527h.43V14zm4.872 0v.527h.428V14zm2.672 0v.527h.428V14zm3.143 0v.527h.43V14zm4.399 0v.527h.43V14zm.474 0v.527h.426V14zm.47 0v.527h.43V14zm1.726 0v.527h.43V14zm.474 0v.527h.428V14zm.471 0v.527h.43V14zm-24.987.576v.531h.429v-.53zm.472 0v.531h.43v-.53zm-8.959.004v.527h.426v-.527zm1.889 0v.527h.43v-.527zm.783 0v.527h.426v-.527zm1.888 0v.527h.43v-.527zm1.727 0v.527h.428v-.527zm4.399 0v.527h.428v-.527zm1.888 0v.527h.432v-.527zm.784 0v.527h.426v-.527zm1.888 0v.527h.43v-.527zm3.925 0v.527h.43v-.527zm.474 0v.527h.428v-.527zm.471 0v.527h.43v-.527zm.474 0v.527h.43v-.527zm1.257 0v.527h.426v-.527zm.47 0v.527h.428v-.527zm2.672 0v.527h.426v-.527zm.471 0v.527h.43v-.527zm3.927 0v.527h.427v-.527zm1.889 0v.527h.43v-.527zm.783 0v.527h.426v-.527zm1.889 0v.527h.43v-.527zm-32.06.576v.527h.43v-.527zm2.672 0v.527h.43v-.527zm4.4 0v.527h.43v-.527zm3.614 0v.527h.432v-.527zm18.702 0v.527h.43v-.527zm2.672 0v.527h.43v-.527zM6.81 15.16v.523h.426v-.523zm2.672 0v.523h.426v-.523zm3.615 0v.523h.428v-.523zm2.2 0v.523h.429v-.523zm2.199 0v.523h.428v-.523zm2.672 0v.523h.426v-.523zm5.344 0v.523h.426v-.523zm.943 0v.523h.428v-.523zm2.672 0v.523h.428v-.523zm2.198 0v.523h.43v-.523zm.945 0v.523h.43v-.523zm3.927 0v.527h.427v-.527zm1.415 0v.523h.43v-.523zm1.257 0v.527h.426v-.527zm1.415 0v.523h.43v-.523zm-33.474.579v.526h.426v-.526zm.47 0v.526h.43v-.526zm.473 0v.526h.429v-.526zm.472 0v.526h.43v-.526zm1.257 0v.526h.426v-.526zm.47 0v.526h.43v-.526zm.473 0v.526h.428v-.526zm.472 0v.526h.43v-.526zm.473 0v.526h.43v-.526zm1.727 0v.526h.428v-.526zm4.399 0v.526h.428v-.526zm1.888 0v.526h.432v-.526zm1.255 0v.526h.43v-.526zm.474 0v.526h.426v-.526zm.47 0v.526h.43v-.526zm4.398 0v.526h.43v-.526zm.474 0v.526h.428v-.526zm.471 0v.526h.43v-.526zm2.2 0v.526h.431v-.526zm1.727 0v.526h.429v-.526zm1.417 0v.526h.43v-.526zm3.927 0v.526h.427v-.526zm.946 0v.526h.426v-.526zm.943 0v.526h.43v-.526zm.783 0v.526h.426v-.526zm.944 0v.526h.428v-.526zm.945 0v.526h.43v-.526zm-33.005.576v.527h.429v-.527zm3.617 0v.527h.43v-.527zm1.727 0v.527h.43v-.527zm2.2 0v.527h.429v-.527zm.472 0v.527h.43v-.527zm3.615 0v.527h.432v-.527zm2.672 0v.527h.43v-.527zm4.399 0v.527h.428v-.527zm.945 0v.527h.43v-.527zm1.727 0v.527h.43v-.527zm3.143 0v.527h.43v-.527zm.474 0v.527h.43v-.527zm5.342 0v.527h.43v-.527zm2.672 0v.527h.43v-.527zm-33.948.004v.527h.426v-.527zm2.672 0v.527h.426v-.527zm8.014 0v.527h.428v-.527zm13.357 0v.523h.429v-.523zm.472 0v.523h.43v-.523zm.474 0v.523h.426v-.523zm4.398 0v.527h.427v-.527zm.472 0v.527h.43v-.527zm2.2 0v.527h.426v-.527zm.47 0v.527h.43v-.527zm-32.529.576v.527h.426v-.527zm1.415 0v.527h.43v-.527zm1.257 0v.527h.426v-.527zm1.888 0v.527h.43v-.527zm1.727 0v.527h.43v-.527zm2.2 0v.527h.429v-.527zm.472 0v.527h.43v-.527zm1.727 0v.527h.428v-.527zm1.888 0v.527h.432v-.527zm.784 0v.527h.426v-.527zm1.888 0v.527h.43v-.527zm3.925 0v.527h.43v-.527zm.474 0v.527h.428v-.527zm.471 0v.527h.43v-.527zm2.2 0v.527h.431v-.527zm3.144 0v.527h.43v-.527zm1.729 0v.527h.428v-.527zm.472 0v.527h.43v-.527zm3.615 0v.527h.43v-.527zm2.672 0v.527h.43v-.527zm-15.246.004v.523h.426v-.523zm10.685 0v.523h.427v-.523zm2.672 0v.523h.426v-.523zm-32.059.576V18h.426v-.525zm1.889 0V18h.43v-.525zm.783 0V18h.426v-.525zm1.888 0V18h.43v-.525zm1.727 0V18h.43v-.525zm4.87 0V18h.43v-.525zm.474 0V18h.426v-.525zm.47 0V18h.43v-.525zm1.728 0V18h.43v-.525zm.474 0V18h.426v-.525zm.47 0V18h.43v-.525zm4.872 0V18h.428v-.525zm2.202 0V18h.426v-.525zm.47 0V18h.43v-.525zm.473 0V18h.429v-.525zm2.67 0V18h.43v-.525zm1.729 0V18h.428v-.525zm.472 0V18h.43v-.525zm2.198 0V18h.43v-.525zm.474 0V18h.426v-.525zm.47 0V18h.43v-.525zm1.726 0V18h.43v-.525zm.474 0V18h.428v-.525zm.471 0V18h.43v-.525z"/><path style="fill:#f9f06b" d="M6.811 13v.53h.426V13zm.47 0v.527h.43V13zm.473 0v.527h.429V13zm.472 0v.527h.43V13zm1.257 0v.53h.426V13zm1.888 0v.527h.43V13zm.784 0v.527h.426V13zm.47 0v.527h.43V13zm.473 0v.527h.428V13zm.472 0v.527H14V13zm.473 0v.527h.43V13zm3.454 0v.527h.428V13zm1.888 0v.527h.432V13zm1.255 0v.527h.43V13zm.474 0v.527h.426V13zm.47 0v.527h.43V13zm4.872 0v.527h.428V13zm2.672 0v.527h.428V13zm3.143 0v.527h.43V13zm4.399 0v.527h.43V13zm.474 0v.527h.426V13zm.47 0v.527h.43V13zm1.726 0v.527h.43V13zm.474 0v.527h.428V13zm.471 0v.527h.43V13zm-24.987.576v.531h.429v-.53zm.472 0v.531h.43v-.53zm-8.959.004v.527h.426v-.527zm1.889 0v.527h.43v-.527zm.783 0v.527h.426v-.527zm1.888 0v.527h.43v-.527zm1.727 0v.527h.428v-.527zm4.399 0v.527h.428v-.527zm1.888 0v.527h.432v-.527zm.784 0v.527h.426v-.527zm1.888 0v.527h.43v-.527zm3.925 0v.527h.43v-.527zm.474 0v.527h.428v-.527zm.471 0v.527h.43v-.527zm.474 0v.527h.43v-.527zm1.257 0v.527h.426v-.527zm.47 0v.527h.428v-.527zm2.672 0v.527h.426v-.527zm.471 0v.527h.43v-.527zm3.927 0v.527h.427v-.527zm1.889 0v.527h.43v-.527zm.783 0v.527h.426v-.527zm1.889 0v.527h.43v-.527zm-32.06.576v.527h.43v-.527zm2.672 0v.527h.43v-.527zm4.4 0v.527h.43v-.527zm3.614 0v.527h.432v-.527zm18.702 0v.527h.43v-.527zm2.672 0v.527h.43v-.527zM6.81 14.16v.523h.426v-.523zm2.672 0v.523h.426v-.523zm3.615 0v.523h.428v-.523zm2.2 0v.523h.429v-.523zm2.199 0v.523h.428v-.523zm2.672 0v.523h.426v-.523zm5.344 0v.523h.426v-.523zm.943 0v.523h.428v-.523zm2.672 0v.523h.428v-.523zm2.198 0v.523h.43v-.523zm.945 0v.523h.43v-.523zm3.927 0v.527h.427v-.527zm1.415 0v.523h.43v-.523zm1.257 0v.527h.426v-.527zm1.415 0v.523h.43v-.523zm-33.474.579v.526h.426v-.526zm.47 0v.526h.43v-.526zm.473 0v.526h.429v-.526zm.472 0v.526h.43v-.526zm1.257 0v.526h.426v-.526zm.47 0v.526h.43v-.526zm.473 0v.526h.428v-.526zm.472 0v.526h.43v-.526zm.473 0v.526h.43v-.526zm1.727 0v.526h.428v-.526zm4.399 0v.526h.428v-.526zm1.888 0v.526h.432v-.526zm1.255 0v.526h.43v-.526zm.474 0v.526h.426v-.526zm.47 0v.526h.43v-.526zm4.398 0v.526h.43v-.526zm.474 0v.526h.428v-.526zm.471 0v.526h.43v-.526zm2.2 0v.526h.431v-.526zm1.727 0v.526h.429v-.526zm1.417 0v.526h.43v-.526zm3.927 0v.526h.427v-.526zm.946 0v.526h.426v-.526zm.943 0v.526h.43v-.526zm.783 0v.526h.426v-.526zm.944 0v.526h.428v-.526zm.945 0v.526h.43v-.526zm-33.005.576v.527h.429v-.527zm3.617 0v.527h.43v-.527zm1.727 0v.527h.43v-.527zm2.2 0v.527h.429v-.527zm.472 0v.527h.43v-.527zm3.615 0v.527h.432v-.527zm2.672 0v.527h.43v-.527zm4.399 0v.527h.428v-.527zm.945 0v.527h.43v-.527zm1.727 0v.527h.43v-.527zm3.143 0v.527h.43v-.527zm.474 0v.527h.43v-.527zm5.342 0v.527h.43v-.527zm2.672 0v.527h.43v-.527zm-33.948.004v.527h.426v-.527zm2.672 0v.527h.426v-.527zm8.014 0v.527h.428v-.527zm13.357 0v.523h.429v-.523zm.472 0v.523h.43v-.523zm.474 0v.523h.426v-.523zm4.398 0v.527h.427v-.527zm.472 0v.527h.43v-.527zm2.2 0v.527h.426v-.527zm.47 0v.527h.43v-.527zm-32.529.576v.527h.426v-.527zm1.415 0v.527h.43v-.527zm1.257 0v.527h.426v-.527zm1.888 0v.527h.43v-.527zm1.727 0v.527h.43v-.527zm2.2 0v.527h.429v-.527zm.472 0v.527h.43v-.527zm1.727 0v.527h.428v-.527zm1.888 0v.527h.432v-.527zm.784 0v.527h.426v-.527zm1.888 0v.527h.43v-.527zm3.925 0v.527h.43v-.527zm.474 0v.527h.428v-.527zm.471 0v.527h.43v-.527zm2.2 0v.527h.431v-.527zm3.144 0v.527h.43v-.527zm1.729 0v.527h.428v-.527zm.472 0v.527h.43v-.527zm3.615 0v.527h.43v-.527zm2.672 0v.527h.43v-.527zm-15.246.004v.523h.426v-.523zm10.685 0v.523h.427v-.523zm2.672 0v.523h.426v-.523zm-32.059.576V17h.426v-.525zm1.889 0V17h.43v-.525zm.783 0V17h.426v-.525zm1.888 0V17h.43v-.525zm1.727 0V17h.43v-.525zm4.87 0V17h.43v-.525zm.474 0V17h.426v-.525zm.47 0V17h.43v-.525zm1.728 0V17h.43v-.525zm.474 0V17h.426v-.525zm.47 0V17h.43v-.525zm4.872 0V17h.428v-.525zm2.202 0V17h.426v-.525zm.47 0V17h.43v-.525zm.473 0V17h.429v-.525zm2.67 0V17h.43v-.525zm1.729 0V17h.428v-.525zm.472 0V17h.43v-.525zm2.198 0V17h.43v-.525zm.474 0V17h.426v-.525zm.47 0V17h.43v-.525zm1.726 0V17h.43v-.525zm.474 0V17h.428v-.525zm.471 0V17h.43v-.525z"/><path style="fill:#f4f4f7;opacity:.2" d="M5.2 7C3.431 7 2 8.45 2 10.238v1C2 9.45 3.432 8 5.2 8h37.6c1.768 0 3.2 1.45 3.2 3.238v-1C46 8.45 44.568 7 42.8 7H5.2z"/><path style="opacity:.2" d="M5 10h38v1H5z"/></svg>