<svg height="48" width="48" xmlns="http://www.w3.org/2000/svg"><path d="m13.9 8v32h28.1c1.108 0 2-.892 2-2v-28c0-1.108-.892-2-2-2z" fill="#23c2c2"/><path d="m6 8c-1.108 0-2 .892-2 2v28c0 1.108.892 2 2 2h8v-32z" fill="#f4f4f7"/><path d="m6 8c-1.108 0-2 .892-2 2v1c0-1.108.892-2 2-2h36c1.108 0 2 .892 2 2v-1c0-1.108-.892-2-2-2z" fill="#f4f4f7" opacity=".2"/><path d="m4 38v1c0 1.108.892 2 2 2h36c1.108 0 2-.892 2-2v-1c0 1.108-.892 2-2 2h-36c-1.108 0-2-.892-2-2z" opacity=".2"/><circle cx="29" cy="24" fill="#17191e" r="10"/><path d="m304.938 131.938-4.938 4.937-1.938-1.938-2.125 2.125 3 3 1.063 1.063 1.063-1.063 6-6-2.125-2.125z" opacity=".2" transform="matrix(.89888 0 0 .87075 -242.011 -93.884)"/><path d="m304.938 131.938-4.938 4.937-1.938-1.938-2.125 2.125 3 3 1.063 1.063 1.063-1.063 6-6-2.125-2.125z" fill="#f4f4f7" transform="matrix(.89888 0 0 .87075 -242.011 -94.884)"/><path d="m14 8h1v32h-1z" opacity=".1"/></svg>