<svg xmlns="http://www.w3.org/2000/svg" width="48" height="48" version="1">
    <path style="opacity:.2" d="M24 15.033a8 8 0 0 0-7.216 11.455 7.274 7.274 0 0 1 14.432 0A8 8 0 0 0 24 15.033zm10.666 7.301V33H32v10.107C37.921 40.16 42 34.064 42 27v-4.666z"/>
    <path style="opacity:.2" d="M6 22.333V27a17.997 17.997 0 0 0 18 18h18l-1-1 1-1-1-1 1-1H24v-8H13.333V22.333zm0 0"/>
    <path style="fill:#8c8c8c" d="M34.667 21.333V32H24v12c9.941 0 18-8.059 18-18v-4.667zm0 0"/>
    <path style="fill:#adaca9" d="M6 21.333V26a17.997 17.997 0 0 0 18 18h18l-1-1 1-1-1-1 1-1H24v-8H13.333V21.333zm0 0"/>
    <path style="fill:#f4f4f7" d="M23.944 4C14.024 4.03 6 12.08 6 22c0 9.941 8.059 18 18 18s18-8.059 18-18S33.941 4 24 4h-.056zM24 14.667a7.334 7.334 0 1 1-.002 14.668A7.334 7.334 0 0 1 24 14.667zm0 0"/>
    <path style="fill:#9b7656" d="M24 14.033a8 8 0 0 0-7.216 11.455 7.274 7.274 0 0 1 14.432 0A8 8 0 0 0 24 14.033zm0 0"/>
    <path style="fill:none;stroke:#ccab8f;stroke-width:2.07692313;stroke-linecap:round;stroke-linejoin:round" d="M31.962 22a7.961 7.961 0 1 1-15.924 0A7.961 7.961 0 0 1 24 14.038 7.961 7.961 0 0 1 31.962 22zm0 0"/>
    <path style="fill:#f4f4f7;opacity:.2" d="M23.943 4C14.024 4.03 6 12.08 6 22c0 .168.02.33.025.496C6.295 12.812 14.195 5.03 23.943 5H24c9.773 0 17.707 7.792 17.975 17.5.004-.168.025-.331.025-.5 0-9.941-8.059-18-18-18h-.057z"/>
</svg>
