<svg xmlns="http://www.w3.org/2000/svg" width="48" height="48"><path fill="#936aff" d="M10 4c-1.108 0-2 .892-2 2v36c0 1.108.892 2 2 2h28c1.108 0 2-.892 2-2V6c0-1.108-.892-2-2-2H10z"/><path opacity=".2" d="M10 4c-1.108 0-2 .892-2 2v36c0 1.108.892 2 2 2h3.978V4h-3.977z"/><path fill="#fff" opacity=".2" d="M10 4c-1.108 0-2 .892-2 2v1c0-1.108.892-2 2-2h28c1.108 0 2 .892 2 2V6c0-1.108-.892-2-2-2H10z"/><path opacity=".2" d="M8 42v1c0 1.108.892 2 2 2h28c1.108 0 2-.892 2-2v-1c0 1.108-.892 2-2 2H10c-1.108 0-2-.892-2-2z"/><path style="opacity:.2" d="M24.989 14.99a8 8 0 0 1 8 8 8 8 0 0 1-1.383 4.495l4.944 4.944a1.5 1.5 0 1 1-2.122 2.12l-4.949-4.948a8 8 0 0 1-4.49 1.388 8 8 0 0 1-8-8 8 8 0 0 1 8-8zm0 3a5 5 0 0 0-5 5 5 5 0 0 0 5 5 5 5 0 0 0 5-5 5 5 0 0 0-5-5z"/><path style="fill:#f4f4f7" d="M24.989 13.99a8 8 0 0 1 8 8 8 8 0 0 1-1.383 4.495l4.944 4.944a1.5 1.5 0 1 1-2.122 2.12L29.48 28.6a8 8 0 0 1-4.49 1.39 8 8 0 0 1-8-8 8 8 0 0 1 8-8zm0 3a5 5 0 0 0-5 5 5 5 0 0 0 5 5 5 5 0 0 0 5-5 5 5 0 0 0-5-5z"/></svg>