<svg height="48" width="48" xmlns="http://www.w3.org/2000/svg"><path d="m24 4h-18c-1.108 0-2 .892-2 2v18h20z" fill="#6655e4"/><path d="m24 4h18c1.108 0 2 .892 2 2v18h-20z" fill="#21d789"/><path d="m24 44h-18c-1.108 0-2-.892-2-2v-18h20z" fill="#2086e7"/><path d="m24 44h18c1.108 0 2-.892 2-2v-18h-20z" fill="#6655e4"/><path d="m6 4c-1.108 0-2 .892-2 2v1c0-1.108.892-2 2-2h36c1.108 0 2 .892 2 2v-1c0-1.108-.892-2-2-2z" fill="#fff" opacity=".2"/><path d="m6 45c-1.108 0-2-.892-2-2v-1c0 1.108.892 2 2 2h36c1.108 0 2-.892 2-2v1c0 1.108-.892 2-2 2z" opacity=".2"/><path d="m10 10h28v28h-28z" fill="#17191e"/><g fill="none" stroke-linecap="round" stroke-width="2"><path d="m16 33h8" opacity=".2" stroke="#000"/><path d="m16 32h8" stroke="#f4f4f7"/><path d="m19 22h2m-1 0s.49 3-2 3c-2 0-2-2-2-4s0-4 2-4 1.992 1 1.992 1" opacity=".2" stroke="#000" stroke-linejoin="bevel"/><path d="m19 21h2m-1 0s.49 3-2 3c-2 0-2-2-2-4s0-4 2-4 1.992 1 1.992 1" stroke="#f4f4f7" stroke-linejoin="bevel"/></g><path d="m26 16c-1.662 0-3 1.338-3 3v4c0 1.662 1.338 3 3 3s3-1.338 3-3v-4c0-1.662-1.338-3-3-3zm0 2c.554 0 1 0 1 1.799v2.401c0 1.8-.446 1.8-1 1.8s-1 0-1-1.799v-2.401c0-1.8.446-1.8 1-1.8z" fill-rule="evenodd" opacity=".2"/><path d="m26 15c-1.662 0-3 1.338-3 3v4c0 1.662 1.338 3 3 3s3-1.338 3-3v-4c0-1.662-1.338-3-3-3zm0 2c.554 0 1 0 1 1.799v2.401c0 1.8-.446 1.8-1 1.8s-1 0-1-1.799v-2.401c0-1.8.446-1.8 1-1.8z" fill="#f4f4f7" fill-rule="evenodd"/></svg>