<svg xmlns="http://www.w3.org/2000/svg" width="48" height="48" version="1"><rect style="opacity:.2" width="40" height="40" x="4" y="5" rx="2" ry="2"/><rect style="fill:#4f4f4f" width="40" height="40" x="4" y="4" rx="2" ry="2"/><path style="fill:#f4f4f7;opacity:.1" d="M6 4c-1.108 0-2 .892-2 2v1c0-1.108.892-2 2-2h36c1.108 0 2 .892 2 2V6c0-1.108-.892-2-2-2H6z"/><path style="opacity:.2" d="m35 16-6.443 10.33-6.502-10.318H17.61L19 18.217v14.148L16.88 34h5.657L21 32.365v-10.55l5.334 8.27 1.148 1.942L35 19.883v12.482L33.473 34H41.3L39 32.365V17.648l2.3-1.636H39zm-19.883 5.992c-1.39.09-2.468.886-3.117 1.976V22l-4 1.715-1.6.726L8 25.824v6.567L6.512 34H14.34L12 32.39V25.3c1.268-.303 2.2-.57 3.64.336l.967-3.402a3.524 3.524 0 0 0-1.49-.242z"/><path style="fill:#f4f4f7" d="m35 15-6.443 10.33-6.502-10.318H17.61L19 17.217v14.148L16.88 33h5.657L21 31.365v-10.55l5.334 8.27 1.148 1.942L35 18.883v12.482L33.473 33H41.3L39 31.365V16.648l2.3-1.636H39zm-19.883 5.992c-1.39.09-2.468 1.086-3.117 2.176V21l-4 1.715-1.6.726L8 24.824v6.567L6.512 33H14.34L12 31.39V24.3c1.268-.303 2.2-.57 3.64.336l.967-3.402a3.524 3.524 0 0 0-1.49-.242z"/></svg>