<svg xmlns="http://www.w3.org/2000/svg" width="48" height="48" version="1"><rect style="opacity:.2" width="28" height="28" x="-45" y="-38" rx="3" ry="3" transform="matrix(0 -1 -1 0 0 0)"/><rect style="fill:#cecece" width="28" height="28" x="-44" y="-38" rx="3" ry="3" transform="matrix(0 -1 -1 0 0 0)"/><path style="opacity:.2;fill:#f4f4f7" d="M13 16c-1.662 0-3 1.338-3 3v1c0-1.662 1.338-3 3-3h22c1.662 0 3 1.338 3 3v-1c0-1.662-1.338-3-3-3H13z"/><path style="fill:#4f4f4f" d="m24 20-8 6h4v8h-4l8 6 8-6h-4v-8h4z"/><path style="fill:#7e7e7e" transform="scale(1 -1)" d="M20-30h8v24h-8z"/><rect style="opacity:.2" width="8" height="24" x="-13" y="-36" rx="4" ry="4" transform="matrix(0 -1 -1 0 0 0)"/><rect style="fill:#db4539" width="8" height="24" x="-12" y="-36" rx="4" ry="4" transform="matrix(0 -1 -1 0 0 0)"/><path style="opacity:.1" d="M20 30h8v1h-8z"/><path style="opacity:.2;fill:#f4f4f7" d="M16 4c-2.216 0-4 1.784-4 4 0 .171.028.335.049.5A3.978 3.978 0 0 1 16 5h16a3.978 3.978 0 0 1 3.951 3.5c.02-.165.049-.329.049-.5 0-2.216-1.784-4-4-4H16z"/><path style="opacity:.1" d="M17.334 25 16 26h4v-1h-2.666zM28 25v1h4l-1.334-1H28zm-12 9 8 6 8-6h-1.334L24 39l-6.666-5H16z"/></svg>