<svg height="48" width="48" xmlns="http://www.w3.org/2000/svg"><path d="m11 4c-3.878 0-7 3.122-7 7s3.122 7 7 7h9.1l-14.043 14.043a6.986 6.986 0 0 0 0 9.9 6.986 6.986 0 0 0 9.9 0l14.043-14.043v9.1c0 3.878 3.122 7 7 7s7-3.122 7-7v-26c0-3.878-3.122-7-7-7z" opacity=".2" transform="translate(0 1)"/><path d="m11 4c-3.878 0-7 3.122-7 7s3.122 7 7 7h9.1l-14.043 14.043a6.986 6.986 0 0 0 0 9.9 6.986 6.986 0 0 0 9.9 0l14.043-14.043v9.1c0 3.878 3.122 7 7 7s7-3.122 7-7v-26c0-3.878-3.122-7-7-7z" fill="#e7b212"/><path d="m11 4c-3.878 0-7 3.122-7 7 0 .17.014.334.025.5a6.979 6.979 0 0 1 6.975-6.5h26c3.878 0 7 3.122 7 7v-1c0-3.878-3.122-7-7-7zm8.1 15-13.043 13.043a6.975 6.975 0 0 0 -2.034 5.45 6.97 6.97 0 0 1 2.034-4.45l14.043-14.043z" fill="#f4f4f7" opacity=".2"/></svg>