<svg height="48" width="48" xmlns="http://www.w3.org/2000/svg">
    <rect fill="#bfbfbf" height="40" rx="2" width="40" x="4" y="4"/>
    <path d="M4 7V6c0-1.108.892-2 2-2h36c1.108 0 2 .892 2 2v1c0-1.108-.892-2-2-2H6c-1.108 0-2 .892-2 2z" fill="#fff" opacity=".2"/>
    <path d="M4 42v1c0 1.108.892 2 2 2h36c1.108 0 2-.892 2-2v-1c0 1.108-.892 2-2 2H6c-1.108 0-2-.892-2-2z" opacity=".2"/>
    <path d="m28 17.304-8 5v3.391l8 5 2.12-3.39L24.831 24l5.287-3.305zm10 0-8 5v3.391l8 5 2.12-3.39L34.831 24l5.287-3.305zM8 19v4h10v-4zm0 7v4h10v-4z" opacity=".1"/>
    <path d="m39.06 18-8 5 8 5" fill="none" stroke="#d5498f" stroke-linejoin="bevel" stroke-width="4"/>
    <path d="m29.06 18-8 5 8 5" fill="none" stroke="#a659ca" stroke-linejoin="bevel" stroke-width="4"/>
    <path d="M8 18h10v4H8zm0 7h10v4H8z" fill="#2f8ce3"/>
</svg>
