<svg height="48" width="48" xmlns="http://www.w3.org/2000/svg">
    <path d="M8 41v2c0 1.108.892 2 2 2h28c1.108 0 2-.892 2-2v-2c0 1.108-.892 2-2 2H10c-1.108 0-2-.892-2-2z" opacity=".2"/>
    <path d="M40 42V10c0-1.108-.892-2-2-2H10c-1.108 0-2 .892-2 2v32c0 1.108.892 2 2 2h28c1.108 0 2-.892 2-2z" fill="#4f4f4f"/>
    <path d="M14 4h20v4H14z" fill="#8e8e8e"/>
    <path d="M11 31h26v8H11z" fill="#c0f957"/>
    <path d="M11 21h26v8H11zm0-10h26v8H11z" opacity=".4"/>
    <path d="M14 4v1h20V4z" fill="#fff" opacity=".2"/>
    <circle cx="36" cy="37" opacity=".2" r="11"/>
    <circle cx="36" cy="36" fill="#cd4242" r="11"/>
    <path d="M36 29a7 7 0 0 0-7 7 7 7 0 0 0 7 7 7 7 0 0 0 7-7 7 7 0 0 0-7-7zm0 2a5 5 0 0 1 5 5 5 5 0 0 1-5 5 5 5 0 0 1-5-5 5 5 0 0 1 5-5zm-1 1v5h5v-2h-3v-3z" fill="#f4f4f7"/>
</svg>
