<svg height="48" width="48" xmlns="http://www.w3.org/2000/svg"><path d="m6 12c-1.662 0-3 1.338-3 3v24c0 1.662 1.338 3 3 3h15c1.662 0 3-1.338 3-3 0 1.662 1.338 3 3 3h15c1.662 0 3-1.338 3-3v-24c0-1.662-1.338-3-3-3h-15c-1.662 0-3 1.338-3 3 0-1.662-1.338-3-3-3z" opacity=".2"/><rect fill="#20baba" height="30" ry="3" width="21" x="3" y="11"/><rect fill="#20baba" height="30" ry="3" width="21" x="24" y="11"/><path d="m8.666 9c-1.477 0-2.666 1.275-2.666 2.857v24.286c0 1.582 1.189 2.857 2.666 2.857h30.668c1.477 0 2.666-1.275 2.666-2.857v-24.286c0-1.582-1.189-2.857-2.666-2.857h-12.668c-1.477 0-2.666 1.275-2.666 2.857 0-1.582-1.189-2.857-2.666-2.857z" opacity=".2"/><path d="m21.333 8c1.478 0 2.667 1.274 2.667 2.857v27.143h-15.333c-1.478 0-2.667-1.274-2.667-2.857v-24.286c0-1.583 1.19-2.857 2.667-2.857zm5.334 0c-1.478 0-2.667 1.274-2.667 2.857v27.143h15.333c1.478 0 2.667-1.274 2.667-2.857v-24.286c0-1.583-1.19-2.857-2.667-2.857z" fill="#f4f4f7"/><path d="m26.667 8c-1.478 0-2.667 1.274-2.667 2.857v27.143h15.333c1.478 0 2.667-1.274 2.667-2.857v-24.286c0-1.583-1.19-2.857-2.667-2.857z" opacity=".05"/><path d="m27 11h8v2h-8z" fill="#0cc"/><path d="m27 15h12v2h-12z" opacity=".2"/><path d="m27 19h12v2h-12z" opacity=".2"/><path d="m27 23h12v2h-12z" opacity=".2"/><path d="m27 27h12v2h-12z" opacity=".2"/><path d="m27 31h8v2h-8z" opacity=".2"/><path d="m9 15h12v2h-12z" opacity=".2"/><path d="m9 19h12v2h-12z" opacity=".2"/><path d="m9 23h12v2h-12z" opacity=".2"/><path d="m9 27h12v2h-12z" opacity=".2"/><path d="m9 31h12v2h-12z" opacity=".2"/><path d="m11.072 5s-3.082 7.352-3.072 11.219c.007 2.877.412 6.125 2.325 8.339 1.469 1.7 6.223 2.866 6.223 2.866l1.549 5.559 1.446-.372-1.55-5.56s3.51-3.293 3.899-5.473c.504-2.836-.834-5.844-2.325-8.339-2.003-3.353-8.495-8.24-8.495-8.24z" opacity=".1"/><path d="m8.666 8c-1.477 0-2.666 1.275-2.666 2.857v1c0-1.582 1.189-2.857 2.666-2.857h12.668c1.477 0 2.666 1.275 2.666 2.857 0-1.582 1.189-2.857 2.666-2.857h12.668c1.477 0 2.666 1.275 2.666 2.857v-1c0-1.582-1.189-2.857-2.666-2.857h-12.668c-1.477 0-2.666 1.275-2.666 2.857 0-1.582-1.189-2.857-2.666-2.857z" fill="#f4f4f7" opacity=".2"/><path d="m11.072 4s-3.082 7.352-3.072 11.219c.007 2.877.412 6.125 2.325 8.339 1.469 1.7 6.223 2.866 6.223 2.866l1.549 5.56 1.446-.373-1.55-5.56s3.51-3.293 3.899-5.473c.504-2.836-.834-5.844-2.325-8.339-2.003-3.353-8.495-8.239-8.495-8.239z" fill="#0cc"/><path d="m18.074 32 1.446-.373-2.712-9.729 2.646-4.405-.917-.509-2.117 3.525-.774-2.78 2.116-3.525-.916-.508-1.588 2.643-.581-2.085 1.588-2.643-.917-.509-1.058 1.763-1.38-4.849-1.447.373 1.38 4.848-1.833-1.018-.529.882 2.75 1.526.581 2.084-2.75-1.526-.529.881 3.667 2.035.774 2.78-3.666-2.035-.53.881 4.584 2.544z" opacity=".2"/></svg>