<svg height="48" width="48" xmlns="http://www.w3.org/2000/svg"><rect fill="#b3b3b3" height="40" rx="2" width="40" x="4" y="4"/><path d="m6 4c-1.108 0-2 .892-2 2v1c0-1.108.892-2 2-2h36c1.108 0 2 .892 2 2v-1c0-1.108-.892-2-2-2z" fill="#fff" opacity=".2"/><path d="m6 45c-1.108 0-2-.892-2-2v-1c0 1.108.892 2 2 2h36c1.108 0 2-.892 2-2v1c0 1.108-.892 2-2 2z" opacity=".2"/><path d="m24 11c-12 0-16 5-16 5l6 11s3-2 10-2 10 2 10 2l6-11s-4-5-16-5z" opacity=".2"/><path d="m24 10c-12 0-16 5-16 5l6 11s3-2 10-2 10 2 10 2l6-11s-4-5-16-5z" fill="#f4f4f7"/><path d="m16.975 29.986a1 1 0 0 0 -.895 1.409l3 7a1 1 0 0 0 .92.605h8a1 1 0 0 0 .92-.605l3-7a1.001 1.001 0 1 0 -1.84-.79l-2.74 6.395h-6.68l-2.74-6.395a1 1 0 0 0 -.945-.619z" opacity=".1"/><path d="m17 30 3 7h8l3-7" fill="none" stroke="#666" stroke-linecap="round" stroke-linejoin="round" stroke-width="2"/><path d="m34.854 11.783-5.244 12.733c3.001.592 4.39 1.484 4.39 1.484l6-11" fill="#f55" opacity=".5"/><path d="m17 26c-.466-3-1-8-1-8s2.9 5 3.9 7c.333.667-.193 1.764-.9 2s-1.886-.263-2-1z" opacity=".1"/><path d="m17 25c-.466-3-1-8-1-8s2.9 5 3.9 7c.333.667-.193 1.764-.9 2s-1.886-.263-2-1z" fill="#666"/></svg>