<svg width="48" height="48" xmlns="http://www.w3.org/2000/svg"><rect x="8" y="5" width="32" height="40" rx="2" ry="2" style="opacity:.2"/><rect x="8" y="4" width="32" height="40" rx="2" ry="2" style="fill:#e46409"/><path d="M31 5v16.5l2.5-1.5 2.5 1.5V5z" style="opacity:.1"/><path d="M31 4v16.5l2.5-1.5 2.5 1.5V4z" style="fill:#1b9878"/><path d="M10 4c-1.108 0-2 .892-2 2v36c0 1.108.892 2 2 2h4V4z" style="opacity:.2"/><path d="M10 4c-1.108 0-2 .892-2 2v1c0-1.108.892-2 2-2h28c1.108 0 2 .892 2 2V6c0-1.108-.892-2-2-2z" style="fill:#f4f4f7;opacity:.2"/></svg>