<svg xmlns="http://www.w3.org/2000/svg" width="48" height="48"><rect style="opacity:.2" width="36" height="40" x="6" y="5" rx="4" ry="4"/><rect style="fill:#e0995e" width="36" height="40" x="6" y="4" rx="4" ry="4"/><path style="opacity:.2;fill:#231f20" d="M10 9h27v32H10z"/><path style="fill:#f4f4f7" d="M10 8h27v32H10z"/><path style="opacity:.2;fill:#f4f4f7" d="M10 4C7.784 4 6 5.784 6 8v1c0-2.216 1.784-4 4-4h28c2.216 0 4 1.784 4 4V8c0-2.216-1.784-4-4-4H10z"/><path style="fill:#4f5d73" d="M28.187 2H16v5c0 1.7 1.219 3 2.812 3h9.375C29.782 10 31 8.7 31 7V2z"/><path style="fill:#e0e0d1" d="M14 16h19v2H14zM14 20h19v2H14zM14 24h19v2H14zM14 28h19v2H14zM14 32h19v2H14z"/><path style="opacity:.2" d="M16 3v5c0 1.662 1.338 3 3 3h9c1.662 0 3-1.338 3-3V3z"/><path style="fill:#4f5d73" d="M16 2v5c0 1.662 1.338 3 3 3h9c1.662 0 3-1.338 3-3V2H16z"/><path style="opacity:.1;fill:#f4f4f7" d="M16 2v1h15V2H16z"/></svg>