<svg height="48" width="48" xmlns="http://www.w3.org/2000/svg"><rect height="40" opacity=".2" rx="2" width="40" x="4" y="5"/><rect fill="#558ef4" height="40" rx="2" width="40" x="4" y="4"/><path d="m4 7v-1c0-1.108.892-2 2-2h36c1.108 0 2 .892 2 2v1c0-1.108-.892-2-2-2h-36c-1.108 0-2 .892-2 2z" fill="#fff" opacity=".2"/><g fill="none" stroke-linecap="round" stroke-linejoin="round" stroke-width="4"><path d="m12 16v17s.5 2.5 3 0l9-11 9 11c2.5 2.5 3 0 3 0v-17" opacity=".2" stroke="#000"/><path d="m12 15v17s.5 2.5 3 0l9-11 9 11c2.5 2.5 3 0 3 0v-17" stroke="#f4f4f7"/></g></svg>