<svg xmlns="http://www.w3.org/2000/svg" width="48" height="48" version="1"><rect fill="#f4f4f7" width="40" height="40" x="4" y="4" rx="2" ry="2"/><path fill="#fff" opacity=".2" d="M6 4c-1.108 0-2 .892-2 2v1c0-1.108.892-2 2-2h36c1.108 0 2 .892 2 2V6c0-1.108-.892-2-2-2H6z"/><path opacity=".2" d="M6 45c-1.108 0-2-.892-2-2v-1c0 1.108.892 2 2 2h36c1.108 0 2-.892 2-2v1c0 1.108-.892 2-2 2H6z"/><path style="opacity:.2" d="M40 9v12H28V9zM24 9v2h-2V9zm0 2h2v4h-2v2h-2v-4h2zm0 6h2v4h-2zm0 4v2h-2v-2zm-2 2v4h-4v-2h2v-2zm-4 2h-4v-2h4zm-4 0v2H8v-4h4v2zm8 2h4v4h-2v-2h-2zm4 4h2v2h-2zm0 2v4h-2v-2h-2v-2zm-2 4v4h-2v-4zm2 0h4v4h-4zm4 0v-2h2v2zm2 0h2v4h-2zm0-2v-2h4v2zm4 0h2v2h2v2h-2v2h-2zm-6 0h-2v-2h2zm-2-4v-2h2v2zm2-2v-2h4v4h-2v-2zm0-2h-4v-2h2v-2h2zm-4-2h-2v-2h2zM20 9v12H8V9zm18 2h-8v8h8zm-20 0h-8v8h8zm18 2v4h-4v-4zm-20 0v4h-4v-4zm22 10v2h2v2h-4v-2h-4v-2h4zm2 6v4h-2v-2h-2v-2h2zm-20 0v12H8V29zm-2 2h-8v8h8zm-2 2v4h-4v-4z"/><path style="fill:#17191e" d="M40 8v12H28V8zM24 8v2h-2V8zm0 2h2v4h-2v2h-2v-4h2zm0 6h2v4h-2zm0 4v2h-2v-2zm-2 2v4h-4v-2h2v-2zm-4 2h-4v-2h4zm-4 0v2H8v-4h4v2zm8 2h4v4h-2v-2h-2zm4 4h2v2h-2zm0 2v4h-2v-2h-2v-2zm-2 4v4h-2v-4zm2 0h4v4h-4zm4 0v-2h2v2zm2 0h2v4h-2zm0-2v-2h4v2zm4 0h2v2h2v2h-2v2h-2zm-6 0h-2v-2h2zm-2-4v-2h2v2zm2-2v-2h4v4h-2v-2zm0-2h-4v-2h2v-2h2zm-4-2h-2v-2h2zM20 8v12H8V8zm18 2h-8v8h8zm-20 0h-8v8h8zm18 2v4h-4v-4zm-20 0v4h-4v-4zm22 10v2h2v2h-4v-2h-4v-2h4zm2 6v4h-2v-2h-2v-2h2zm-20 0v12H8V28zm-2 2h-8v8h8zm-2 2v4h-4v-4z"/></svg>