<svg height="48" width="48" xmlns="http://www.w3.org/2000/svg"><rect fill="#f5b35d" height="40" rx="20" width="40" x="4" y="4"/><path d="m24 4c-11.08 0-20 8.92-20 20 0 .168-.004.333 0 .5.264-10.846 9.088-19.5 20-19.5s19.736 8.654 20 19.5c.004-.167 0-.332 0-.5 0-11.08-8.92-20-20-20z" fill="#fff" opacity=".2"/><path d="m24 11a6 6 0 1 0 0 12 6 6 0 0 0 0-12zm0 14c-11 .007-11 8.002-11 8.002v1.998h22v-1.998s0-8.008-11-8.002z" fill="#4d4d4d"/><path d="m4.012 24.5c-.004.167-.012.332-.012.5 0 11.08 8.92 20 20 20s20-8.92 20-20c0-.168-.008-.333-.012-.5-.264 10.846-9.076 19.5-19.988 19.5s-19.724-8.654-19.988-19.5z" opacity=".2"/><circle cx="36" cy="37" opacity=".2" r="11"/><circle cx="36" cy="36" fill="#a559d6" r="11"/><path d="m30 39.327v2.673h2.673l6.75-6.75-2.672-2.674zm11.788-6.434a.708.708 0 0 0 0-1.01l-1.67-1.671a.708.708 0 0 0 -1.011 0l-1.397 1.405 2.673 2.673z" fill="#f4f4f7"/></svg>