<svg height="48" width="48" xmlns="http://www.w3.org/2000/svg"><g transform="matrix(2 0 0 2 2 2)"><circle cx="11" cy="11.5" opacity=".2" r="10"/><circle cx="11" cy="11" fill="#f4f4f7" r="10"/><circle cx="11" cy="11.5" opacity=".1" r="6"/><path d="m11 1a10 10 0 0 0 -10 10 10 10 0 0 0 .01.293 10 10 0 0 1 9.99-9.793 10 10 0 0 1 9.99 9.707 10 10 0 0 0 .01-.207 10 10 0 0 0 -10-10z" fill="#f4f4f7" opacity=".2"/><circle cx="11" cy="11" fill="#ff3636" r="6"/><path d="m11 5a6 6 0 0 0 -3.326 1.012l3.326 4.988 3.326-4.99a6 6 0 0 0 -3.326-1.01z" fill="#924ab4"/><path d="m14.326 6.01-3.326 4.99h6a6 6 0 0 0 -2.674-4.99z" fill="#476bd7"/><path d="m11 11-3.326 4.99a6 6 0 0 0 3.326 1.01 6 6 0 0 0 3.326-1.012z" fill="#ffdb4c"/><path d="m11 11 3.326 4.988a6 6 0 0 0 2.674-4.988z" fill="#8bdb4c"/><path d="m5 11a6 6 0 0 0 2.674 4.99l3.326-4.99z" fill="#f1502f"/><circle cx="11" cy="11.5" opacity=".1" r="4"/><circle cx="11" cy="11" fill="#4f4f4f" r="4"/><circle cx="9" cy="9.5" opacity=".2" r="1"/><g fill="#f4f4f7"><circle cx="9" cy="9" r="1"/><path d="m11 5a6 6 0 0 0 -6 6 6 6 0 0 0 .01.285 6 6 0 0 1 5.99-5.785 6 6 0 0 1 5.99 5.715 6 6 0 0 0 .01-.215 6 6 0 0 0 -6-6z" opacity=".2"/></g></g></svg>