<svg xmlns="http://www.w3.org/2000/svg" height="48" width="48"><g transform="translate(2.82 7.663) scale(.8077)" stroke-width="1.238"><g fill="#939aad"><path d="M52.223 28.226v2h-52v-2zm0 6v2h-52v-2zm0 6v2h-52v-2zm0-30v2h-52v-2zm0 6v2h-52v-2zm0 6v2h-52v-2zm0-18v2h-52v-2zm0-6v2h-52v-2z"/><path d="M18.223 46.226h-2v-52h2zm-6 0h-2v-52h2zm-6 0h-2v-52h2zm30 0h-2v-52h2zm-6 0h-2v-52h2zm-6 0h-2v-52h2zm18 0h-2v-52h2zm6 0h-2v-52h2z"/></g><rect transform="matrix(0 -1 -1 0 0 0)" ry="2.5" rx="2.5" y="-50.223" x="-44.226" height="48" width="48" fill="#4c5263" stroke="#25252f" stroke-opacity=".784"/><path d="M8.223 11.226h12v2h-12zm14 0h6v2h-6zm8 0h14v2h-14zm-22 8h16v2h-16zm18 0h16v2h-16zm-18 8h6v2h-6zm8 0h6v2h-6zm8 0h12v2h-12z" stroke-width="2.476" fill="#1f91b7" stroke="#333741" paint-order="markers stroke fill"/><path d="M8.223 11.226h12v2h-12zm14 0h6v2h-6zm8 0h14v2h-14zm-22 8h16v2h-16zm18 0h16v2h-16zm-18 8h6v2h-6zm8 0h6v2h-6zm8 0h12v2h-12z" fill="#1f91b7" paint-order="markers stroke fill"/></g></svg>