<svg height="48" width="48" xmlns="http://www.w3.org/2000/svg"><rect fill="#4fa4f4" height="38" rx="1.5" width="43" x="2.5" y="6.5"/><path d="m4 6.5c-.831 0-1.5.669-1.5 1.5v4h43v-4c0-.831-.669-1.5-1.5-1.5z" opacity=".35"/><rect fill="none" height="38" opacity=".35" rx="1.5" stroke="#002e99" stroke-linecap="round" stroke-linejoin="round" width="43" x="2.5" y="6.5"/><path d="m45.5 12v-4c0-.831-.669-1.5-1.5-1.5h-40c-.831 0-1.5.669-1.5 1.5v4" fill="none" opacity=".5" stroke="#111" stroke-linejoin="round"/><path d="m29.616 34.263-5.577-2.896-5.547 2.953 1.03-6.2-4.522-4.363 6.214-.935 2.753-5.65 2.81 5.621 6.223.872-4.478 4.41z" opacity=".35"/></svg>