<svg height="48" width="48" xmlns="http://www.w3.org/2000/svg"><g stroke-width=".951" transform="matrix(1.05128 0 0 1.05128 -73.77 -152.615)"><path d="m93 148.5c-3.713.001-7.348 1.004-10.479 3h-3.958c-1.11 0-2.063.952-2.063 2.063v3.992c-1.99 3.121-2.992 6.744-3 10.445.001 3.713 1.004 7.348 3 10.479v3.958c0 1.11.952 2.063 2.063 2.063h3.992c3.121 1.99 6.744 2.992 10.445 3 3.713-.001 7.348-1.004 10.479-3h3.958c1.11 0 2.063-.952 2.063-2.063v-3.992c1.99-3.121 2.992-6.744 3-10.445-.001-3.713-1.004-7.348-3-10.479v-3.958c0-1.11-.952-2.063-2.063-2.063h-3.992c-3.121-1.99-6.744-2.992-10.445-3z" fill="#4c5263" stroke="#252831" stroke-opacity=".784"/><circle cx="93" cy="168" fill="#fff669" r="16.5" stroke="#252831" stroke-opacity=".784"/><g fill="#b2b7bf"><rect height="1.5" rx="1.5" width="1.5" x="78.75" y="153.75"/><rect height="1.5" rx="1.5" width="1.5" x="105.75" y="153.75"/><rect height="1.5" rx="1.5" width="1.5" x="105.75" y="180.75"/><rect height="1.5" rx="1.5" width="1.5" x="78.75" y="180.75"/></g><circle cx="93" cy="168" fill="#4c5263" r="6"/></g></svg>