<svg xmlns="http://www.w3.org/2000/svg" height="48" width="48"><defs><linearGradient id="a"><stop offset="0" stop-color="#fff"/><stop offset="1" stop-color="#fff" stop-opacity="0"/></linearGradient></defs><g transform="translate(0 -1004.362)"><rect ry="3" rx="3" y="1012.362" x="3" height="32" width="42" fill="#f5f5f5"/><rect ry="3.5" rx="3.5" y="1011.862" x="2.5" height="33" width="43" fill="none" stroke="#4f6698" stroke-opacity=".267"/><path d="M4.971 1012.362H8v32H4.971c-1.187 0-1.971-.72-1.971-1.958v-28.084c0-1.237.784-1.958 1.971-1.958z" fill="#4c5263"/><path d="M5.111 1011.362c-1.71 0-3.111 1.361-3.111 3.022v27.956c0 1.661 1.401 3.022 3.111 3.022H9v-34zm0 1H8v32H5.111c-1.293 0-2.111-.766-2.111-2.022v-27.956c0-1.255.818-2.022 2.111-2.022z" style="line-height:normal;text-indent:0;text-align:start;text-decoration-line:none;text-decoration-style:solid;text-decoration-color:#000;text-transform:none;white-space:normal;isolation:auto;mix-blend-mode:normal;solid-color:#000;solid-opacity:1" color="#000" font-weight="400" font-family="sans-serif" overflow="visible" fill="#252831" fill-opacity=".784"/><circle cx="5.5" cy="1039.862" fill="#82b2ea" r="1.5"/><path d="M32.48 1019.67c.56.45.688 1.222.285 1.731l-10.17 12.878c-.402.51-2.127 1.299-2.464 1.028-.338-.27.038-2.141.44-2.65l10.17-12.879c.402-.509 1.178-.557 1.738-.108z" fill="#586075" fill-opacity=".784"/></g></svg>