<svg height="48" width="48" xmlns="http://www.w3.org/2000/svg">
    <rect height="40" opacity=".2" rx="12" width="40" x="4" y="5"/>
    <rect fill="#797979" height="40" rx="12" width="40" x="4" y="4"/>
    <path d="M28.49 11.019c-1.135.175-2.224 1.546-3.746 4.352l-1.65 3.042 5.338 6.313.275.273h8.885c-.997-2.225-5.164-10.682-5.969-11.953-.43-.68-1.314-1.494-1.965-1.812-.406-.199-.79-.273-1.168-.215zm-9.867 6.596c-.546.074-1.151.511-2.193 1.205-2.053 1.597-4.454 4.352-5.684 6.18h15.272c-1.253-1.735-3.895-4.813-5.561-6.407-.801-.763-1.288-1.052-1.834-.978zm-8.266 9.384c.134.242.277.497.454.772.446.695 1.576 2.763 2.511 4.596 2.044 4.005 3.103 5.535 4.324 6.242 2.06 1.193 3.238-.08 6.932-7.492.949-1.904 1.61-3.32 1.953-4.118zm18.44 0-2.504 4.965c1.46 1.25 3.092 2.283 4.078 2.221 2.25-.14 2.89-1.691 5.334-5.15l1.438-2.036z" opacity=".1"/>
    <path d="m28.797 26-2.504 4.965c1.46 1.249 3.092 2.282 4.078 2.22 2.25-.14 2.89-1.69 5.334-5.15L37.143 26z" fill="#4a4a4a"/>
    <path d="M16 4C9.352 4 4 9.352 4 16v1C4 10.352 9.352 5 16 5h16c6.648 0 12 5.352 12 12v-1c0-6.648-5.352-12-12-12z" fill="#f4f4f7" opacity=".1"/>
    <path d="M10.357 26c.134.242.277.496.454.771.446.695 1.576 2.764 2.511 4.596 2.044 4.006 3.103 5.535 4.324 6.242 2.06 1.193 3.238-.08 6.932-7.492.949-1.903 1.61-3.32 1.953-4.117z" fill="#0eb5fd"/>
    <path d="M28.49 10.02c-1.135.175-2.224 1.546-3.746 4.351l-1.65 3.043 5.338 6.313.275.273h8.885c-.997-2.225-5.164-10.683-5.969-11.953-.43-.68-1.314-1.495-1.965-1.813-.406-.198-.79-.273-1.168-.214z" fill="#f05abe"/>
    <path d="M18.323 16.012c-.547.08-1.152.554-2.194 1.304-2.052 1.727-4.153 4.708-5.383 6.684h15.272c-1.253-1.876-4.195-5.206-5.861-6.93-.802-.825-1.288-1.138-1.834-1.058z" fill="#00d49f"/>
</svg>
