<svg xmlns="http://www.w3.org/2000/svg" width="48" height="48"><path fill="#fecd38" d="M23.914 4C16.252 4 7.145 10.375 5.26 17.432c-.888 5.311.575 9.059 3.256 11.632.071.752.215 1.503.152 2.254l-.008.067a3.437 3.437 0 0 1-.068.424c-.014.057-.036.116-.053.173-.031.108-.062.215-.107.323-.038.089-.093.178-.141.267-.045.084-.082.167-.137.25a3.824 3.824 0 0 1-.404.512c-.625.667-1.172 1.083-1.64 1.354C4.702 35.5 4 35 4 36c0 1.083 2.475 3.046 4.744 2.314.35-.112.694-.287 1.024-.541.164-.126.326-.272.482-.439.286-.306.535-.591.756-.859.218-.263.403-.505.57-.735.038.335.016.759-.146 1.406-.647 2.576-4.068 2.36-2.43 4.188 1.27 1.417 5.065 1.471 7.164-.369C15.327 42.862 14.055 44 16.5 44c3.75 0 7.5-2.666 7.5-6.666 0 4 3.75 6.666 7.5 6.666 2.445 0 1.173-1.138.336-3.035 2.099 1.84 5.894 1.786 7.164.369 1.639-1.828-1.783-1.612-2.43-4.188-.163-.648-.185-1.072-.146-1.408.338.467.761.993 1.326 1.596C40.25 40.001 44 37.333 44 36s-1.25.001-3.75-2.666c-1.395-1.488-.862-2.977-.754-4.465 2.893-2.616 4.266-6.336 3.072-11.437C39.906 9.868 31.576 4 23.914 4z"/><ellipse opacity=".2" cx="17" cy="17" rx="3" ry="4"/><ellipse fill="#fff" cx="17" cy="16" rx="3" ry="4"/><ellipse fill="#17191e" cx="18.5" cy="16" rx="1.5" ry="2"/><ellipse opacity=".2" cx="31" cy="17" rx="3" ry="4"/><ellipse fill="#fff" cx="31" cy="16" rx="3" ry="4"/><ellipse fill="#17191e" cx="32.5" cy="16" rx="1.5" ry="2"/><path fill="#fff" opacity=".2" d="M23.914 4C16.252 4 7.145 10.375 5.26 17.432a17.527 17.527 0 0 0-.246 3.484c.024-.788.1-1.614.246-2.484C7.145 11.375 16.252 5 23.914 5s15.992 5.868 18.654 13.432c.246 1.048.377 2.036.414 2.97.047-1.22-.08-2.539-.414-3.97C39.906 9.868 31.576 4 23.914 4zm15.422 27.355c-.087.993-.017 1.986.914 2.979 2.031 2.167 3.223 1.709 3.604 2.17A1.15 1.15 0 0 0 44 36c0-1.333-1.25.001-3.75-2.666-.618-.66-.848-1.319-.914-1.979zm-30.68.047a3.374 3.374 0 0 1-.064.407c-.014.057-.036.116-.053.173-.032.108-.062.215-.108.323-.037.089-.092.178-.14.267-.045.084-.082.167-.137.25a3.824 3.824 0 0 1-.404.512c-.625.667-1.172 1.083-1.64 1.354C4.702 35.5 4 35 4 36c0 .147.052.312.137.482.266-.312.923-.189 1.972-.794.469-.271 1.016-.687 1.64-1.354.16-.171.292-.341.405-.512.055-.083.092-.166.137-.25.048-.089.103-.178.14-.267.046-.108.076-.215.108-.323.017-.057.039-.116.053-.173a3.418 3.418 0 0 0 .076-.491c.025-.305.012-.61-.012-.916zm27.768 5.336c-.039.336-.017.76.146 1.408.434 1.726 2.106 2.2 2.674 2.874.984-1.499-2.066-1.455-2.674-3.874-.028-.112-.03-.185-.05-.285-.03-.039-.068-.084-.096-.123zm-24.848.002c-.028.039-.066.084-.096.123-.02.099-.022.172-.05.283-.608 2.418-3.658 2.376-2.676 3.874.568-.674 2.242-1.148 2.676-2.874.162-.647.184-1.071.146-1.406zm4.588 5.225a4.985 4.985 0 0 1-.785.555c-.288.57-.428.996-.119 1.238.217-.478.591-1.083.904-1.793zm15.672 0c.313.71.687 1.315.904 1.793.308-.242.17-.668-.117-1.237a4.943 4.943 0 0 1-.787-.556z"/><path opacity=".2" d="M5.014 20.916c-.124 4.021 1.26 6.997 3.502 9.148.042.446.105.893.14 1.338 0-.006.004-.011.004-.017l.008-.067c.063-.751-.08-1.502-.152-2.254-2.052-1.969-3.385-4.628-3.502-8.148zm37.968.486c-.118 3.129-1.405 5.585-3.486 7.467-.06.829-.243 1.659-.16 2.488.043-.496.124-.992.16-1.488 2.298-2.078 3.63-4.856 3.486-8.467zm-6.558 14.336c-.032.277-.001.648.096 1.123.323.438.71.92 1.23 1.473C40.25 41.001 44 38.333 44 37c0-.25-.06-.39-.146-.496-.706 1.373-3.892 3.19-6.104.83a16.25 16.25 0 0 1-1.326-1.596zm-24.848.002c-.167.23-.352.472-.57.735-.221.268-.47.553-.756.859a3.917 3.917 0 0 1-.483.439c-.33.254-.674.429-1.023.541-1.962.633-4.068-.746-4.606-1.832-.09.107-.139.264-.139.518 0 1.083 2.475 3.046 4.745 2.314.349-.112.693-.287 1.023-.541.165-.126.326-.272.482-.439.286-.306.535-.591.756-.859.182-.219.33-.417.474-.612.097-.475.128-.846.096-1.123zM24 37.334c0 4-3.75 6.666-7.5 6.666-.658 0-1.04-.085-1.24-.242-.363.798-.29 1.242 1.24 1.242 3.75 0 7.5-2.666 7.5-6.666 0 4 3.75 6.666 7.5 6.666 1.529 0 1.603-.8b9cbe 1.24-1.242-.2.157-.582.242-1.24.242-3.75 0-7.5-2.666-7.5-6.666zm-7.836 3.631c-2.1 1.841-5.894 1.786-7.164.369-.1-.112-.18-.217-.244-.314-.28.331-.297.71.244 1.314 1.124 1.254 4.225 1.437 6.379.186.22-.437.52-.953.785-1.555zm15.672 0c.265.602.565 1.118.785 1.555 2.154 1.251 5.255 1.068 6.379-.186.54-.604.524-.983.244-1.314a2.735 2.735 0 0 1-.244.314c-1.27 1.417-5.065 1.472-7.164-.369z"/></svg>