<svg width="48" height="48" version="1" xmlns="http://www.w3.org/2000/svg"><rect transform="matrix(0 -1 -1 0 0 0)" x="-44" y="-40" width="40" height="32" rx="2" ry="2" style="fill:#3bbd53"/><path d="M32.951 8.988a1 1 0 0 0-.916.752l-.049.184C30.214 9.822 26.58 9.78 25 11c-1.421 1.097-1.422 4.145-3 5-1.494.81-4-1-4-1s2.414 5.698 5 6c1.655.193 2.495-2.284 4-3 .85-.405 2.133-.663 3.033-.824L26.31 31.008C26.205 31.006 26.104 31 26 31c-4.97 0-9 2.239-9 5s4.03 5 9 5 9-2.239 9-5c0-2.312-2.829-4.252-6.666-4.824l5.63-20.916a1 1 0 0 0-1.013-1.272zM15 19l2 10-6-1 5 6-2-4 5 1-2-8 5 5 3-3 1 3v-6l-4 4-7-7zm10.77 14.012-.735 2.728a1 1 0 1 0 1.93.52l.84-3.117c2.566.373 4.445 1.503 4.445 2.857 0 1.657-2.798 3-6.25 3s-6.25-1.343-6.25-3c0-1.619 2.677-2.929 6.02-2.988z" style="opacity:.2"/><path d="M8 42v1c0 1.108.892 2 2 2h28c1.108 0 2-.892 2-2v-1c0 1.108-.892 2-2 2H10c-1.108 0-2-.892-2-2z" opacity=".2"/><path d="M10 4c-1.108 0-2 .892-2 2v1c0-1.108.892-2 2-2h28c1.108 0 2 .892 2 2V6c0-1.108-.892-2-2-2H10z" fill="#fff" opacity=".2"/><path d="M39.982 5.822 40 15.38V6c0-.06-.012-.118-.018-.178z" fill="#fff"/><path d="M26 30c-4.97 0-9 2.239-9 5s4.03 5 9 5 9-2.239 9-5-4.03-5-9-5zm0 2c3.452 0 6.25 1.343 6.25 3s-2.798 3-6.25 3-6.25-1.343-6.25-3 2.798-3 6.25-3z" style="fill:#f4f4f7"/><path d="M33 9s-5.873-.642-8 1c-1.421 1.097-1.422 4.145-3 5-1.494.81-4-1-4-1s2.414 5.698 5 6c1.655.193 2.495-2.284 4-3 1.241-.59 4-1 4-1z" style="fill:#e33f32"/><path d="M32.951 7.988a1 1 0 0 0-.916.752l-7 26a1 1 0 1 0 1.93.52l7-26a1 1 0 0 0-1.014-1.272zM16 33l-5-6 6 1-2-10 7 7 4-4v6l-1-3-3 3-5-5 2 8-5-1z" style="fill:#f4f4f7"/></svg>