<svg xmlns="http://www.w3.org/2000/svg" width="48" height="48"><path style="fill:#1c75bc" d="M24 4A20 20 0 0 0 4 24a20 20 0 0 0 20 20 20 20 0 0 0 20-20A20 20 0 0 0 24 4z"/><path opacity=".2" d="M4.021 24.418A20 20 0 0 0 4 25a20 20 0 0 0 20 20 20 20 0 0 0 20-20 20 20 0 0 0-.021-.418A20 20 0 0 1 24 44 20 20 0 0 1 4.022 24.418z"/><path fill="#f4f4f7" style="opacity:.2" d="M24 4A20 20 0 0 0 4 24a20 20 0 0 0 .021.418A20 20 0 0 1 24 5a20 20 0 0 1 19.979 19.582 20 20 0 0 0 .02-.582A20 20 0 0 0 24 4z"/><path style="opacity:.2" d="m15.977 17-1.245 4H32l-3 8H12.244L11 33h17.914c1.995-.036 4.046-1.246 4.83-3.162l3.133-9.418c.74-3.05-1.991-3.42-4.104-3.42H15.977zM12.5 23 11 27h10l1.5-4h-10z"/><path style="fill:#f4f4f7" d="m15.977 16-1.245 4H32l-3 8H12.244L11 32h17.914c1.995-.036 4.046-1.246 4.83-3.162l3.133-9.418c.74-3.05-1.991-3.42-4.104-3.42H15.977zM12.5 22 11 26h10l1.5-4h-10z"/></svg>