<svg xmlns="http://www.w3.org/2000/svg" width="48" height="48" version="1"><rect style="opacity:.2" width="40" height="40" x="4" y="5" rx="12" ry="12"/><rect style="fill:#00539b" width="40" height="40" x="4" y="4" rx="12" ry="12"/><path style="fill:#f4f4f7;opacity:.1" d="M16 4C9.352 4 4 9.352 4 16v1C4 10.352 9.352 5 16 5h16c6.648 0 12 5.352 12 12v-1c0-6.648-5.352-12-12-12H16z"/><path style="opacity:.2" d="m17.104 13-1.54 9h7.376l.56-3.5L28 25l-6.5 6 .48-3h-7.44L13 37h7.951c7.988-.368 12.904-5.011 13.881-11.412.862-5.642-1.458-11.937-10.377-12.588z"/><path style="fill:#ffcb05" d="m17.104 12-1.54 9h7.376l.56-3.5L28 24l-6.5 6 .48-3h-7.44L13 36h7.951c7.988-.368 12.904-5.011 13.881-11.412.862-5.642-1.458-11.937-10.377-12.588z"/><path style="opacity:.2;fill:#f4f4f7" d="m17.104 12-1.54 9h.172l1.368-8h7.351c7.532.55 10.347 5.124 10.525 9.932.192-5.156-2.472-10.345-10.525-10.932h-7.351zm10.474 12.39-5.89 5.436L21.5 31l6.5-6-.422-.61zM14.54 27 13 36h.172l1.367-8h7.281l.16-1h-7.44z"/></svg>