<svg height="64" viewBox="0 0 16.933 16.933" width="64" xmlns="http://www.w3.org/2000/svg">
    <filter id="a" color-interpolation-filters="sRGB" height="1.054" width="1.054" x="-.027" y="-.027">
        <feGaussianBlur stdDeviation=".619"/>
    </filter>
    <linearGradient id="b" gradientUnits="userSpaceOnUse" x1="-6.766" x2="7.786" y1="17.772" y2="3.22">
        <stop offset="0" stop-color="#96aab4"/>
        <stop offset="1" stop-color="#a0b4c3" stop-opacity=".996"/>
    </linearGradient>
    <g transform="translate(7.957 -2.032)">
        <rect fill="#141414" filter="url(#a)" height="55" opacity=".3" ry="15" transform="translate(-7.957 2.032) scale(.26458)" width="55" x="4.5" y="4.5"/>
        <rect fill="url(#b)" height="14.552" ry="3.969" width="14.552" x="-6.766" y="3.222"/>
        <path d="m3.425 5.804-.229.611a.11.11 0 0 0 .034.12l.27.206c.033.025.09.027.124.002l.53-.38a.094.094 0 0 1 .119.01l.222.223c.031.031.035.083.01.118l-.379.53a.11.11 0 0 0 .002.125l.207.269c.025.033.08.049.119.034l.61-.229c.04-.015.09.003.112.04l.157.272a.094.094 0 0 1-.021.117l-.504.415a.11.11 0 0 0-.03.12l.13.313a.112.112 0 0 0 .106.064l.65-.063a.094.094 0 0 1 .097.067l.081.304a.093.093 0 0 1-.05.107l-.595.27a.11.11 0 0 0-.06.109l.044.336a.112.112 0 0 0 .087.09l.644.106a.095.095 0 0 1 .076.09v.315a.093.093 0 0 1-.076.09l-.643.107a.11.11 0 0 0-.087.09l-.044.336a.113.113 0 0 0 .06.108l.594.27a.095.095 0 0 1 .05.107l-.08.304a.094.094 0 0 1-.098.067l-.65-.063a.11.11 0 0 0-.106.064l-.13.314a.111.111 0 0 0 .03.12l.504.415c.033.027.043.079.021.116l-.157.272a.094.094 0 0 1-.111.04l-.612-.229a.11.11 0 0 0-.119.035l-.206.269a.112.112 0 0 0-.002.124l.379.53a.094.094 0 0 1-.01.119l-.222.222a.094.094 0 0 1-.118.01l-.53-.379a.11.11 0 0 0-.125.002l-.27.207a.112.112 0 0 0-.033.119l.229.61a.094.094 0 0 1-.04.112l-.273.157a.094.094 0 0 1-.116-.021l-.415-.504a.11.11 0 0 0-.12-.03l-.314.13a.112.112 0 0 0-.063.106l.063.65a.094.094 0 0 1-.068.097l-.303.081a.093.093 0 0 1-.107-.05l-.27-.595a.11.11 0 0 0-.11-.06l-.335.045a.112.112 0 0 0-.09.086l-.107.644a.095.095 0 0 1-.09.076H.354a.093.093 0 0 1-.09-.076l-.107-.643a.11.11 0 0 0-.09-.086l-.336-.044a.113.113 0 0 0-.108.06l-.27.593a.095.095 0 0 1-.107.05l-.304-.08a.094.094 0 0 1-.067-.098l.062-.649a.11.11 0 0 0-.063-.106l-.314-.13a.111.111 0 0 0-.12.03l-.415.503a.094.094 0 0 1-.116.021l-.272-.157a.094.094 0 0 1-.04-.111l.228-.612a.11.11 0 0 0-.034-.119l-.27-.206a.112.112 0 0 0-.123-.002l-.531.38a.094.094 0 0 1-.118-.01l-.222-.223a.094.094 0 0 1-.01-.118l.379-.53a.11.11 0 0 0-.003-.125l-.206-.27a.112.112 0 0 0-.12-.033l-.61.229a.094.094 0 0 1-.111-.04l-.157-.273a.094.094 0 0 1 .02-.116l.505-.415a.11.11 0 0 0 .03-.12l-.13-.313a.112.112 0 0 0-.106-.064l-.65.063a.094.094 0 0 1-.097-.068l-.081-.303a.093.093 0 0 1 .05-.107l.594-.27a.11.11 0 0 0 .06-.11l-.044-.335a.112.112 0 0 0-.086-.09l-.644-.106a.095.095 0 0 1-.076-.09V10.2c0-.044.034-.083.076-.09l.643-.107a.11.11 0 0 0 .086-.09l.044-.336a.113.113 0 0 0-.06-.108l-.593-.27a.095.095 0 0 1-.05-.107l.08-.304a.094.094 0 0 1 .098-.067l.649.062a.11.11 0 0 0 .106-.063l.13-.314a.111.111 0 0 0-.03-.12l-.504-.415a.094.094 0 0 1-.02-.116l.157-.272a.094.094 0 0 1 .111-.04l.611.228a.11.11 0 0 0 .12-.034l.206-.269a.112.112 0 0 0 .002-.124l-.38-.531a.094.094 0 0 1 .01-.118l.223-.222a.094.094 0 0 1 .118-.01l.53.379a.11.11 0 0 0 .124-.002l.27-.207a.112.112 0 0 0 .034-.12l-.229-.61a.094.094 0 0 1 .04-.111l.272-.157a.094.094 0 0 1 .117.02l.415.505a.11.11 0 0 0 .12.03l.313-.13a.112.112 0 0 0 .064-.106l-.063-.65a.094.094 0 0 1 .067-.097l.304-.081a.093.093 0 0 1 .107.05l.27.594a.11.11 0 0 0 .109.06l.336-.044a.112.112 0 0 0 .089-.086l.107-.644a.095.095 0 0 1 .09-.076h.315c.043 0 .083.034.09.076l.107.643a.11.11 0 0 0 .089.086l.336.044a.113.113 0 0 0 .109-.06l.27-.593a.095.095 0 0 1 .107-.05l.304.08a.094.094 0 0 1 .067.098l-.063.649a.11.11 0 0 0 .064.106l.313.13a.111.111 0 0 0 .12-.03l.416-.504a.094.094 0 0 1 .116-.02l.272.157a.094.094 0 0 1 .04.111zM2.383 7.107a3.742 3.742 0 0 0-2.8-.389c-.176.045-.073.02-.073.02a.381.381 0 0 0-.22.563s-.07-.13.006.01l1.102 2.01c.166.303.58.543.926.535l2.442-.05c.15-.003 0 0 0 0a.362.362 0 0 0 .358-.452 3.743 3.743 0 0 0-1.74-2.247zm-.061 6.535a3.743 3.743 0 0 0 1.775-2.2c.052-.175.02-.074.02-.074a.381.381 0 0 0-.369-.478s.148.007-.011 0l-2.29-.09c-.345-.015-.764.217-.936.518l-1.214 2.119c-.076.13 0 0 0 0a.362.362 0 0 0 .203.54s-.146-.04 0 0a3.743 3.743 0 0 0 2.822-.335zm-4.442-.598c.18.162.443.122.57-.095 0 0-.077.13 0 0l1.227-2.11c.174-.3.165-.778-.02-1.07L-1.565 7.83c-.085-.135-.006-.01-.006-.01a.381.381 0 0 0-.598-.08s.072-.08-.053.054a3.744 3.744 0 0 0-1.018 2.637 3.743 3.743 0 0 0 1.121 2.612z" fill="#fff" image-rendering="optimizeSpeed"/>
    </g>
</svg>
