<svg height="48" width="48" xmlns="http://www.w3.org/2000/svg">
    <circle cx="24" cy="25" opacity=".2" r="20"/>
    <circle cx="8.785" cy="32.785" fill="#f4f4f7" r="20" transform="rotate(-30)"/>
    <path d="m24.784 26 1.48-.823-4.749-7.918L19 18.657l.803 1.34 1.035-.576zm3.64-7.109.245-.136c.979-.544 1.928-.372 2.41.432.456.76.245 1.62-.5 2.035-.713.396-1.525.205-2.075-.49l-1.492.83c.983 1.44 2.781 1.84 4.362.961 1.591-.884 2.085-2.659 1.166-4.191-.597-.997-1.443-1.441-2.507-1.335.28-.598.24-1.134-.126-1.745-.733-1.221-2.225-1.606-3.494-.9-.645.358-1.087.932-1.242 1.59-.127.556-.055.973.275 1.647l1.503-.835c-.229-.53-.141-.879.26-1.102.422-.235.91-.091 1.173.348.199.332.18.672-.055.973-.144.18-.332.313-.726.547z" opacity=".1"/>
    <path d="M24 4A20 20 0 0 0 4 24a20 20 0 0 0 .021.582A20 20 0 0 1 24 5a20 20 0 0 1 19.979 19.418A20 20 0 0 0 44 24 20 20 0 0 0 24 4z" fill="#f4f4f7" opacity=".2"/>
    <path d="M31.775 5.594c-5.588 1.912-11.118 4.05-15.005 6.152-.568.307-1.164.645-1.784 1.006-3.139 1.828-6.873 4.286-10.447 6.742A20 20 0 0 0 6.68 34a20 20 0 0 0 5.895 6.389c2.914-3.054 7.163-6.796 12.688-9.778 5.207-2.81 12.167-5.102 18.726-6.861A20 20 0 0 0 41.32 14a20 20 0 0 0-9.545-8.406zm-5.988 4.408a9 9 0 0 1 8.008 4.498A9 9 0 0 1 30.5 26.795 9 9 0 0 1 18.205 23.5 9 9 0 0 1 21.5 11.205a9 9 0 0 1 4.287-1.203z" fill="#ffa81f"/>
    <path d="m24.784 25 1.481-.822-4.749-7.918L19 17.658l.804 1.34 1.035-.576zm3.64-7.108.245-.137c.98-.544 1.929-.371 2.41.433.457.76.245 1.62-.5 2.035-.712.395-1.524.204-2.075-.49l-1.491.829c.982 1.44 2.78 1.84 4.361.962 1.592-.885 2.086-2.66 1.167-4.192-.598-.996-1.443-1.44-2.508-1.335.28-.598.24-1.133-.126-1.744-.732-1.222-2.224-1.606-3.493-.9-.646.358-1.088.932-1.243 1.59-.127.555-.054.973.276 1.647l1.503-.835c-.23-.531-.142-.88.259-1.102.423-.235.91-.091 1.173.348.2.332.18.671-.054.974-.145.18-.331.312-.726.545z" fill="#17191e"/>
    <path d="M31.775 5.594c-5.588 1.912-11.118 4.05-15.005 6.152-.568.307-1.164.645-1.784 1.006-3.139 1.828-6.873 4.286-10.447 6.742a20 20 0 0 0-.496 4.748 20 20 0 0 1 .496-3.748c3.574-2.456 7.308-4.914 10.447-6.742.62-.361 1.216-.699 1.784-1.006 3.887-2.103 9.417-4.24 15.005-6.152A20 20 0 0 1 41.32 15a20 20 0 0 1 2.608 8.768l.06-.018A20 20 0 0 0 41.32 14a20 20 0 0 0-9.545-8.406zM17.021 19.473a9 9 0 0 0 1.184 5.027A9 9 0 0 0 30.5 27.795a9 9 0 0 0 4.479-8.268 9 9 0 0 1-4.479 7.268A9 9 0 0 1 18.205 23.5a9 9 0 0 1-1.184-4.027z" opacity=".1"/>
</svg>
