<svg height="48" width="48" xmlns="http://www.w3.org/2000/svg"><rect fill="#435ece" height="40" rx="2" width="40" x="4" y="4"/><path d="m6 4c-1.108 0-2 .892-2 2v1c0-1.108.892-2 2-2h36c1.108 0 2 .892 2 2v-1c0-1.108-.892-2-2-2z" fill="#fff" opacity=".1"/><path d="m6 45c-1.108 0-2-.892-2-2v-1c0 1.108.892 2 2 2h36c1.108 0 2-.892 2-2v1c0 1.108-.892 2-2 2zm20-6h-4v-4h4zm4.14-15.5-1.8 1.84c-1.44 1.46-2.34 2.66-2.34 5.66h-4v-1c0-2.2.9-4.2 2.34-5.66l2.48-2.52a3.91 3.91 0 0 0 1.18-2.82c0-2.2-1.8-4-4-4s-4 1.8-4 4h-4c0-4.42 3.58-8 8-8s8 3.58 8 8c0 1.76-.72 3.36-1.86 4.5z" opacity=".2"/><path d="m26 38h-4v-4h4zm4.14-15.5-1.8 1.84c-1.44 1.46-2.34 2.66-2.34 5.66h-4v-1c0-2.2.9-4.2 2.34-5.66l2.48-2.52a3.91 3.91 0 0 0 1.18-2.82c0-2.2-1.8-4-4-4s-4 1.8-4 4h-4c0-4.42 3.58-8 8-8s8 3.58 8 8c0 1.76-.72 3.36-1.86 4.5z" fill="#fff"/></svg>