<svg height="48" width="48" xmlns="http://www.w3.org/2000/svg">
    <path d="M8 28v15c0 1.108.892 2 2 2h28c1.108 0 2-.892 2-2V28z" opacity=".2"/>
    <path d="M10 4c-1.108 0-2 .892-2 2v36c0 1.108.892 2 2 2h28c1.108 0 2-.892 2-2V6c0-1.108-.892-2-2-2z" fill="#2995ff"/>
    <path d="M21 26a6 6 0 0 0-6 6 6 6 0 0 0 .01.26A4.5 4.5 0 0 0 12 36.5a4.5 4.5 0 0 0 4.5 4.5H31v-.012a4.5 4.5 0 0 0 .227.012 4.5 4.5 0 0 0 4.5-4.5 4.5 4.5 0 0 0-2.77-4.152A6 6 0 0 0 27 27a6 6 0 0 0-2.148.4A6 6 0 0 0 21 26z" opacity=".2"/>
    <g fill="#f4f4f7">
        <circle cx="16.5" cy="35.5" r="4.5"/>
        <circle cx="21" cy="30" r="6"/>
        <circle cx="27" cy="32" r="6"/>
        <circle cx="31.227" cy="35.5" r="4.5"/>
        <path d="M16.5 33.45H31v6.545H16.5z"/>
    </g>
    <rect height="4" opacity=".2" rx="1" width="40" x="4" y="17"/>
    <rect fill="#f34235" height="4" rx="1" width="40" x="4" y="16"/>
    <g fill="#f4f4f7">
        <path d="M12 14h17v2H12zm0-5h24v2H12z" opacity=".5"/>
        <path d="M10 4c-1.108 0-2 .892-2 2v1c0-1.108.892-2 2-2h28c1.108 0 2 .892 2 2V6c0-1.108-.892-2-2-2z" opacity=".2"/>
    </g>
</svg>
