<svg height="64" width="64" xmlns="http://www.w3.org/2000/svg">
    <filter id="b" color-interpolation-filters="sRGB" height="1.054" width="1.054" x="-.027" y="-.027">
        <feGaussianBlur stdDeviation=".619"/>
    </filter>
    <linearGradient id="c" gradientUnits="userSpaceOnUse" x1="4.5" x2="59.5" y1="59.49" y2="4.49">
        <stop offset="0" stop-color="#323741"/>
        <stop offset="1" stop-color="#465064"/>
    </linearGradient>
    <linearGradient id="d" gradientUnits="userSpaceOnUse" x1="-60.565" x2="-60.565" y1="29.506" y2="20.777">
        <stop offset="0" stop-color="#5894db"/>
        <stop offset="1" stop-color="#669fe7"/>
    </linearGradient>
    <linearGradient id="e" gradientUnits="userSpaceOnUse" x1="-84.103" x2="-83.666" y1="35.693" y2="17.793">
        <stop offset="0" stop-color="#5894db"/>
        <stop offset="1" stop-color="#80b3ff"/>
    </linearGradient>
    <linearGradient id="a" gradientUnits="userSpaceOnUse" x1="-83.598" x2="-83.598" y1="59.25" y2="1.109">
        <stop offset="0" stop-color="#3889e9"/>
        <stop offset="1" stop-color="#5ea5fb"/>
    </linearGradient>
    <rect fill="#141414" filter="url(#b)" height="55" opacity=".3" ry="15" width="55" x="4.5" y="4.5"/>
    <rect fill="url(#c)" height="55.001" ry="15" width="55.001" x="4.497" y="4.5"/>
    <path d="M-61.85 29.285c0-1.512.193-1.542 1.126-2.118 1.066-.659 1.076-.911-.17-1.339-.743-.255-1.09-.475-1.613-2.288l.657 5.745z" fill="url(#d)" transform="translate(107.06 3.488) scale(.91864)"/>
    <path d="M38.264 17.357c-2.02-.07-4.332.261-5.694.897-5.587 2.329-8.402 12.146-14.307 11.57-2.055-.243-3.65-1.317-4.87-3.28-1.917.615-1.651 5.32-.461 7.766 4.786 9.839 13.67 14.088 23.706 11.685 7.758-2.32 12.934-8.2 13.605-15.605.31-2.378.26-2.886-.603-5.277-2.638-5.303-7.134-7.583-11.376-7.755zm2.922 5.374a1.722 1.722 0 1 1 0 3.445 1.722 1.722 0 0 1 0-3.445zm.586.686a.574.574 0 1 0 0 1.148.574.574 0 0 0 0-1.148z" fill="#fff"/>
    <path d="M-87.611 36.22c-1.418-.134-4.676-.811-5.6-1.163l-.807-.307 2.23-1.086c1.866-.908 2.438-1.354 3.488-2.718 1.389-1.804 2.63-2.408 4.31-2.093 1.308.246 2.69 1.74 2.85 3.082.155 1.309-.743 3.005-1.95 3.684-.863.484-2.897.755-4.521.601z" fill="url(#e)" transform="translate(107.06 3.488) scale(.91864)"/>
</svg>
