<svg height="48" width="48" xmlns="http://www.w3.org/2000/svg">
    <path d="M5 37v6c0 1.108.892 2 2 2h34c1.108 0 2-.892 2-2v-6H7z" fill="#a5b9cf" fill-opacity=".812"/>
    <path d="M6 37v6c0 .554.446 1 1 1h34c.554 0 1-.446 1-1v-6H7zm5 4h26c.554 0 1 .446 1 1s-.446 1-1 1H11c-.554 0-1-.446-1-1s.446-1 1-1z" fill="#f1f1f1"/>
    <path d="M8 3h32c1.662 0 3 1.338 3 3v31c0 1.662-1.338 3-3 3H8c-1.662 0-3-1.338-3-3V6c0-1.662 1.338-3 3-3z" fill="#4972c5"/>
    <path d="M8 4c-1.108 0-2 .892-2 2v31c0 1.108.892 2 2 2h32c1.108 0 2-.892 2-2V6c0-1.108-.892-2-2-2z" fill="#5ca5ff"/>
    <path d="M23.982 11a1 1 0 0 0-.814.445l-2 3A1 1 0 0 0 22 16h1V25.38l-4-2v-1.655A1.996 1.996 0 0 0 18 18a1.996 1.996 0 0 0-1 3.725V24a1 1 0 0 0 .553.895L23 27.617V28a1 1 0 0 0 .04.254A1.996 1.996 0 0 0 24 32a1.996 1.996 0 0 0 .963-3.744A1 1 0 0 0 25 28v-3.28l5.316-1.77A1 1 0 0 0 31 22v-2c.554 0 1-.446 1-1v-2c0-.554-.446-1-1-1h-2c-.554 0-1 .446-1 1v2c0 .554.446 1 1 1v1.28l-4 1.331V16h1a1 1 0 0 0 .832-1.555l-2-3a1 1 0 0 0-.85-.445z" fill="#f3f8ff"/>
</svg>
