<svg xmlns="http://www.w3.org/2000/svg" width="48" height="48">
    <path style="fill:#4f4f4f" d="M15 6h22v30H15z"/>
    <path style="opacity:.2;fill-rule:evenodd" d="M6.666 4c-1.066 0-.618.3.057.77.97.677 2.06 1.695 3.236 2.613.897.84 1.041 1.25 1.041 2.586v15.394c0 4.1.479 7.075-.898 10.18-1.52 3.427-5.291 4.892-7.512 7.932-2.115 2.615 2.019 1.368 3.64.549 3.476-1.758 6.804-3.443 10.967-3.897 5.25-.104 9.4-.02 14.17-.127C40.001 40 44 32 44 21.145 44 12 40 4 30.555 4.045 22.478 4.008 10.397 4.001 6.666 4zm12.988 5c3.008.006 9.174.095 10.383.707 5.283 3.094 6.074 6.803 5.963 12.09.147 4.783-1.544 9.94-5.963 12.387C28.424 35 18 35 18 35V9.006s.652-.008 1.654-.006z"/>
    <path style="fill:#ec4040;fill-rule:evenodd" d="M6.666 3c-1.066 0-.618.3.057.77.97.676 2.06 1.695 3.236 2.613.897.84 1.041 1.25 1.041 2.586v15.394c0 4.1.479 7.075-.898 10.18-1.52 3.427-5.291 4.892-7.512 7.932-2.115 2.615 2.019 1.368 3.64.548 3.476-1.757 6.804-3.442 10.967-3.896 5.25-.104 9.4-.02 14.17-.127C40.001 39 44 31 44 20.145 44 11 40 3 30.555 3.045 22.478 3.008 10.397 3 6.666 3zm12.988 5c3.008.006 9.174.095 10.383.707 5.283 3.094 6.074 6.803 5.963 12.09.147 4.783-1.544 9.94-5.963 12.387C28.424 34 18 34 18 34V8.006s.652-.008 1.654-.006z"/>
    <path style="fill:#f4f4f7;fill-rule:evenodd;opacity:.2" d="M6.666 3c-1.066 0-.618.3.057.77.099.069.205.154.306.23 3.922.001 15.572.008 23.526.045 9.285-.044 13.3 7.69 13.433 16.64.003-.181.012-.357.012-.54C44 11 40 3 30.555 3.045 22.478 3.008 10.397 3 6.666 3zm29.33 17.979c.099 4.732-1.596 9.79-5.959 12.205C28.424 34 18 34 18 34v1s10.424 0 12.037-.816c4.419-2.446 6.11-7.604 5.963-12.387.006-.283-.004-.544-.004-.818zm-24.935 8.925c-.058 1.614-.282 3.111-.96 4.639-1.52 3.427-5.29 4.892-7.511 7.932-.707.874-.708 1.31-.346 1.482.09-.145.2-.302.346-.482 2.22-3.04 5.992-4.505 7.512-7.932.811-1.83.958-3.642.959-5.639z"/>
</svg>
