<svg height="48" width="48" xmlns="http://www.w3.org/2000/svg">
    <path d="M44 40V8c0-1.108-.892-2-2-2H6c-1.108 0-2 .892-2 2v32c0 1.108.892 2 2 2h36c1.108 0 2-.892 2-2z" fill="#298fc5"/>
    <path d="M6 6c-1.108 0-2 .892-2 2v1c0-1.108.892-2 2-2h36c1.108 0 2 .892 2 2V8c0-1.108-.892-2-2-2z" fill="#fff" opacity=".2"/>
    <path d="M4 40v1c0 1.108.892 2 2 2h36c1.108 0 2-.892 2-2v-1c0 1.108-.892 2-2 2H6c-1.108 0-2-.892-2-2zM9 16v4h15c1.108 0 2 .743 2 1.666v6.668c0 .923-.892 1.666-2 1.666H13v-8.11H9V34h18c1.662 0 3-1.338 3-3V19c0-1.662-1.338-3-3-3zm26 0v4h4v-4zm0 5.891V34h4V21.891z" opacity=".2"/>
    <path d="M9 15v4h15c1.108 0 2 .743 2 1.666v6.668c0 .923-.892 1.666-2 1.666H13v-8.11H9V33h18c1.662 0 3-1.338 3-3V18c0-1.662-1.338-3-3-3zm26 0v4h4v-4zm0 5.891V33h4V20.891z" fill="#fff"/>
</svg>
