<svg xmlns="http://www.w3.org/2000/svg" width="48" height="48" version="1"><rect style="fill:#4f4f4f" width="40" height="40" x="4" y="4" rx="2" ry="2"/><path style="opacity:.1;fill:#f4f4f7" d="M6 4c-1.108 0-2 .892-2 2v1c0-1.108.892-2 2-2h36c1.108 0 2 .892 2 2V6c0-1.108-.892-2-2-2H6z"/><path style="opacity:.2" d="M6 45c-1.108 0-2-.892-2-2v-1c0 1.108.892 2 2 2h36c1.108 0 2-.892 2-2v1c0 1.108-.892 2-2 2H6zM15 9c-.554 0-1 .446-1 1v18c0 .554.446 1 1 1h9a10 10 0 0 0 10-10A10 10 0 0 0 24 9h-9zm5.4 6H24a4 4 0 0 1 4 4 4 4 0 0 1-4 4h-3.6a.4.4 0 0 1-.4-.4v-7.2a.4.4 0 0 1 .4-.4z"/><path style="fill:#f4f4f7" d="M15 8c-.554 0-1 .446-1 1v18c0 .554.446 1 1 1h9a10 10 0 0 0 10-10A10 10 0 0 0 24 8h-9zm5.4 6H24a4 4 0 0 1 4 4 4 4 0 0 1-4 4h-3.6a.4.4 0 0 1-.4-.4v-7.2a.4.4 0 0 1 .4-.4z"/><g style="opacity:.2;stroke:#000"><path style="fill:none;stroke:#000;stroke-width:1.999874;stroke-linecap:round" d="m11.014 40.986-2-3m-2-1s4 .464 4-2-4-2-4-2m0 8v-8" transform="translate(0 1)"/><path style="fill:none;stroke:#000;stroke-width:1.999874;stroke-linecap:round;stroke-linejoin:bevel" d="M15.014 37.986h4m-4 3v-6m4 6v-6m-4 0s0-2 2-2 2 2 2 2" transform="translate(0 1)"/><path style="fill:none;stroke:#000;stroke-width:1.999874;stroke-linecap:round;stroke-linejoin:round" d="M23 33v8h4M31 33v8h4" transform="translate(0 1)"/><path style="fill:none;stroke:#000;stroke-width:1.999874;stroke-linecap:round" d="M39.008 40.986v-4m3-4-3 4m-3-4 3 4" transform="translate(0 1)"/></g><path style="fill:none;stroke:#f07400;stroke-width:1.999874;stroke-linecap:round" d="m11.014 40.986-2-3m-2-1s4 .464 4-2-4-2-4-2m0 8v-8"/><path style="fill:none;stroke:#f07400;stroke-width:1.999874;stroke-linecap:round;stroke-linejoin:bevel" d="M15.014 37.986h4m-4 3v-6m4 6v-6m-4 0s0-2 2-2 2 2 2 2"/><path style="fill:none;stroke:#f07400;stroke-width:1.999874;stroke-linecap:round;stroke-linejoin:round" d="M23 33v8h4M31 33v8h4"/><path style="fill:none;stroke:#f07400;stroke-width:1.999874;stroke-linecap:round" d="M39.008 40.986v-4m3-4-3 4m-3-4 3 4"/></svg>