<svg width="64" height="64" viewBox="0 0 16.933 16.933" xmlns="http://www.w3.org/2000/svg"><g transform="matrix(1.04 0 0 1.04 -.339 -291.61)" fill="#867de0" stroke-width=".962" paint-order="markers stroke fill"><rect x="1.852" y="281.92" width="13.229" height="13.229" rx=".763" ry=".763"/><rect x="1.852" y="281.92" width="13.229" height="13.229" rx=".763" ry=".763" stroke="#675eb6" stroke-width=".509"/></g><g transform="matrix(1.04 0 0 1.04 -.339 -291.61)" fill="#867de0" stroke-width=".962" paint-order="markers stroke fill"><rect x="1.852" y="281.92" width="13.229" height="13.229" rx=".763" ry=".763"/><rect x="1.852" y="281.92" width="13.229" height="13.229" rx=".763" ry=".763"/></g><path d="M7.239 5.289c-.118 0-1.094.028-2.123.793 0 0-1.097 1.974-1.097 4.406 0 0 .64 1.098 2.324 1.15 0 0 .283-.335.511-.624-.968-.29-1.334-.892-1.334-.892s.076.053.214.13c.007 0 .015.008.03.015.023.016.046.023.069.038.19.107.38.19.556.26.313.13.686.243 1.12.327a5.368 5.368 0 0 0 3.08-.319c.267-.099.565-.243.877-.45 0 0-.381.618-1.38.9.229.282.503.61.503.61 1.685-.053 2.325-1.151 2.325-1.143 0-2.432-1.097-4.407-1.097-4.407-1.09-.815-2.135-.792-2.135-.792l-.106.122c1.295.388 1.898.96 1.898.96a6.337 6.337 0 0 0-2.295-.724 6.427 6.427 0 0 0-1.54.016c-.045 0-.083.009-.13.015-.266.03-.914.122-1.73.48-.282.122-.45.214-.45.214s.626-.602 1.998-.991l-.076-.092h-.012zm-.194 2.813c.434 0 .785.373.777.838 0 .465-.343.839-.777.839-.427 0-.778-.374-.778-.839s.343-.838.778-.838zm2.782 0c.427 0 .778.373.778.838s-.343.839-.778.839c-.427 0-.777-.374-.777-.839s.343-.838.777-.838z" fill="#fff" stroke-width=".446"/></svg>