<svg height="48" width="48" xmlns="http://www.w3.org/2000/svg">
    <path d="M42.009 35H5.942s-2.03 0-1.939-1.925C4.976 22.932 13.56 15 24.004 15c10.412 0 18.975 7.882 19.992 17.979C44.098 35 42.01 35 42.01 35z" opacity=".2"/>
    <path d="m13 19-4-6m26 6 4-6" fill="none" stroke="#2e9551" stroke-linecap="round" stroke-width="4"/>
    <path d="M8.979 10.977a2 2 0 0 0-1.93 2.5 2 2 0 0 1 1.93-1.5 2 2 0 0 1 1.685.914l4 6a2 2 0 0 1 .29.634 2 2 0 0 0-.29-1.634l-4-6a2 2 0 0 0-1.685-.914zm29.982 0a2 2 0 0 0-1.625.914l-4 6a2 2 0 0 0-.287 1.632 2 2 0 0 1 .287-.632l4-6a2 2 0 0 1 1.625-.914 2 2 0 0 1 1.988 1.5 2 2 0 0 0-1.988-2.5z" fill="#f4f4f7" opacity=".1"/>
    <path d="M42.009 34H5.942s-2.03 0-1.939-1.925C4.976 21.932 13.56 14 24.004 14c10.412 0 18.975 7.882 19.992 17.979C44.098 34 42.01 34 42.01 34z" fill="#30dd81"/>
    <path d="M14 25a2 2 0 0 0-2 2 2 2 0 0 0 2 2 2 2 0 0 0 2-2 2 2 0 0 0-2-2zm20 0a2 2 0 0 0-2 2 2 2 0 0 0 2 2 2 2 0 0 0 2-2 2 2 0 0 0-2-2z" opacity=".2"/>
    <g fill="#f4f4f7">
        <circle cx="14" cy="26" r="2"/>
        <circle cx="-34" cy="26" r="2" transform="scale(-1 1)"/>
        <path d="M24.004 14c-10.445 0-19.027 7.932-20 18.074-.011.233.01.437.055.617C5.21 22.735 13.692 15 24.004 15c10.288 0 18.757 7.7 19.94 17.623.043-.188.064-.401.052-.644C42.978 21.882 34.416 14 24.004 14z" opacity=".2"/>
    </g>
</svg>
