<svg height="48" width="48" xmlns="http://www.w3.org/2000/svg">
    <rect height="40" opacity=".2" rx="4" width="40" x="4" y="5"/>
    <rect fill="#24b8eb" height="40" rx="4" width="40" x="4" y="4"/>
    <path d="M11 10c-1.108 0-2 .891-2 2.001V24c0 1.108.892 2 2 2h26v12H25v-9.999h-2v10c0 1.107.892 1.999 2 1.999h12c1.109 0 2-.89 2-2V26c0-1.11-.891-2.001-2-2.001H11.143V12.066H23V22h2v-9.998c0-1.108-.891-2-2-2z" opacity=".2"/>
    <path d="M11 9c-1.108 0-2 .892-2 2v12c0 1.108.892 2 2 2h26v12H25V27h-2v10c0 1.108.892 2 2 2h12c1.108 0 2-.892 2-2V25c0-1.108-.892-2-2-2H11.143V11.068H23V21h2V11c0-1.108-.892-2-2-2z" fill="#17191e"/>
    <path d="M8 4C5.784 4 4 5.784 4 8v1c0-2.216 1.784-4 4-4h32c2.216 0 4 1.784 4 4V8c0-2.216-1.784-4-4-4z" fill="#f4f4f7" opacity=".2"/>
</svg>
