<svg width="48" height="48" version="1" xmlns="http://www.w3.org/2000/svg"><rect x="4" y="4" width="40" height="40" rx="2" ry="2" style="fill:#4f4f4f"/><path d="M27.031 8c-2.462 1.489-4.992 2.874-7.4 4.449a975.87 975.87 0 0 0-2.567 12.68c.93 1.18 1.948 2.285 2.91 3.437-.94-.3-2.12-.976-3.157-1.394.816 3.014 1.67 6.02 2.56 9.013 1.19-.102 2.372-.292 3.562-.399-.855.88-1.777 1.692-2.636 2.567 1.502-.625 2.98-1.308 4.477-1.945.287.471-.566 2.159-.68 3.074a123.185 123.185 0 0 0 1.905-3.228l.574-.27s-.168-.169 0 0c1.305.206 2.608.454 3.912.651-1.174-.576-2.367-1.112-3.54-1.688 1.173-.486 2.424-.855 3.623-1.309-1.18-.01-2.359.021-3.538.008.19-.42 1.614-1.163 2.23-1.737-.86-1-1.83-1.902-2.698-2.897 1.5-4.913 3.074-9.803 4.615-14.704-1.382-2.104-2.731-4.23-4.152-6.308z" style="opacity:.2"/><path d="M6 4c-1.108 0-2 .892-2 2v1c0-1.108.892-2 2-2h36c1.108 0 2 .892 2 2V6c0-1.108-.892-2-2-2H6z" fill="#fff" style="opacity:.1"/><path d="M6 45c-1.108 0-2-.892-2-2v-1c0 1.108.892 2 2 2h36c1.108 0 2-.892 2-2v1c0 1.108-.892 2-2 2H6z" opacity=".2"/><path d="M27.031 7c-2.462 1.489-4.992 2.874-7.4 4.449a975.87 975.87 0 0 0-2.567 12.68c.93 1.18 1.948 2.285 2.91 3.437-.94-.3-2.12-.976-3.157-1.394.816 3.014 1.67 6.02 2.56 9.013 1.19-.102 2.372-.292 3.562-.399-.855.88-1.777 1.692-2.636 2.567 1.502-.625 2.98-1.308 4.477-1.945.287.471-.566 2.159-.68 3.074a123.185 123.185 0 0 0 1.905-3.228l.574-.27s-.168-.169 0 0c1.305.206 2.608.454 3.912.651-1.174-.576-2.367-1.112-3.54-1.688 1.173-.486 2.424-.855 3.623-1.309-1.18-.01-2.359.021-3.538.008.19-.42 1.614-1.163 2.23-1.737-.86-1-1.83-1.902-2.698-2.897 1.5-4.913 3.074-9.803 4.615-14.704-1.382-2.104-2.731-4.23-4.152-6.308z" style="fill:#ffc107"/><path d="M25.836 12.24c-2.075 5.577-3.386 12.317-3.704 18.549-.075.868-.054.692.512 1.374 2.812 3.384 5.617 6.964 8.8b9cbe 9.837v-.198c-2.703-3.706-5.405-6.83-8.108-10.125-.236-.284-.3-.288-.281-.631.359-6.246 1.764-13.162 3.137-18.807z" style="opacity:.2"/><path d="M25.836 11.24c-2.075 5.577-3.386 12.317-3.704 18.549-.075.868-.054.692.512 1.374 2.812 3.384 5.617 6.964 8.8b9cbe 9.837v-.198c-2.703-3.706-5.405-6.83-8.108-10.125-.236-.284-.3-.288-.281-.631.359-6.246 1.764-13.162 3.137-18.807z" style="fill:#f4f4f7"/><path d="M27.031 7c-2.462 1.489-4.992 2.875-7.4 4.45a975.895 975.895 0 0 0-2.567 12.68c.053.067.11.13.163.196A976.905 976.905 0 0 1 19.63 12.45c2.408-1.574 4.938-2.96 7.4-4.449 1.347 1.971 2.632 3.985 3.94 5.982l.213-.673C29.802 11.205 28.45 9.079 27.03 7zM16.816 26.172c.104.383.214.764.319 1.146.956.418 1.99.978 2.838 1.248-.439-.525-.89-1.04-1.338-1.558-.607-.286-1.234-.6-1.819-.836zm9.987 2.09c-.077.25-.158.5-.235.75.695.796 1.443 1.543 2.16 2.318.205-.145.397-.289.54-.422-.787-.914-1.658-1.751-2.465-2.646zm3.771 4.377c-.767-.007-1.534 0-2.3.006-.563.379-1.122.749-1.237 1.001.244.003.488-.001.733-.001.928-.343 1.878-.656 2.804-1.006zm-2.441 1.87c-.397.142-.797.279-1.182.438.106.052.213.101.319.153 1.074.18 2.146.373 3.22.535-.782-.384-1.57-.753-2.357-1.125zm-5.194 1.278c-.386.035-.77.083-1.156.129-.498.474-.998.947-1.48 1.438.624-.26 1.24-.537 1.86-.81.26-.25.524-.497.776-.757zm1.84.621-.101.045c-.195.675-.51 1.48-.578 2.03.19-.31.366-.628.552-.94.148-.492.25-.933.127-1.135z" style="fill:#f4f4f7;opacity:.2"/></svg>