<svg height="48" width="48" xmlns="http://www.w3.org/2000/svg">
    <path d="M24.107 5v.002a4.566 4.548 0 0 0-2.39.605L8.283 13.334A4.566 4.548 0 0 0 6 17.274v15.452a4.566 4.548 0 0 0 2.283 3.938l13.434 7.726a4.566 4.548 0 0 0 4.566 0l13.434-7.726A4.566 4.548 0 0 0 42 32.726V17.273a4.566 4.548 0 0 0-2.283-3.939L26.283 5.607A4.566 4.548 0 0 0 24.107 5z" opacity=".2"/>
    <path d="M24.107 4v.002a4.566 4.548 0 0 0-2.39.605L8.283 12.334A4.566 4.548 0 0 0 6 16.274v15.452a4.566 4.548 0 0 0 2.283 3.938l13.434 7.726a4.566 4.548 0 0 0 4.566 0l13.434-7.726A4.566 4.548 0 0 0 42 31.726V16.273a4.566 4.548 0 0 0-2.283-3.939L26.283 4.607A4.566 4.548 0 0 0 24.107 4z" fill="#e95361"/>
    <path d="M24.107 4v.002a4.566 4.548 0 0 0-2.39.605L8.283 12.334A4.566 4.548 0 0 0 6 16.274v1a4.566 4.548 0 0 1 2.283-3.94l13.434-7.727a4.566 4.548 0 0 1 2.39-.605V5a4.566 4.548 0 0 1 2.176.607l13.434 7.727A4.566 4.548 0 0 1 42 17.274v-1a4.566 4.548 0 0 0-2.283-3.94L26.283 4.607A4.566 4.548 0 0 0 24.107 4z" fill="#f4f4f7" opacity=".2"/>
    <g fill="none" stroke-linecap="round" stroke-linejoin="round" stroke-width="2">
        <path d="M12 18.56v13l12 6.5m-12-19.5 12 6.5m-12-6.5 6-3.25m6 22.75 12-6.5v-13m-12 19.5v-13m12-6.5-12-6.5-6 3.25m18 3.25-6 3.25m-6 3.25 6-3.25m-12-6.5 12 6.5" opacity=".2" stroke="#000"/>
        <path d="M12 17.56v13l12 6.5m-12-19.5 12 6.5m-12-6.5 6-3.25m6 22.75 12-6.5v-13m-12 19.5v-13m12-6.5-12-6.5-6 3.25m18 3.25-6 3.25m-6 3.25 6-3.25m-12-6.5 12 6.5" stroke="#f4f4f7"/>
    </g>
</svg>
