<svg xmlns="http://www.w3.org/2000/svg" width="48" height="48" version="1"><path style="opacity:.2" d="M22.666 5c-.368 0-.666.427-.666.953l-.254 3.223a16 16 0 0 0-3.71.986l-1.827-2.658c-.263-.456-.736-.674-1.055-.49l-2.308 1.332c-.32.184-.365.702-.102 1.158l1.387 2.908a16 16 0 0 0-2.707 2.725l-2.92-1.393c-.456-.263-.974-.217-1.158.102l-1.332 2.308c-.184.32.034.792.49 1.055l2.662 1.83a16 16 0 0 0-.986 3.707L4.953 23c-.526 0-.953.298-.953.666v2.668c0 .368.427.666.953.666l3.223.254a16 16 0 0 0 .986 3.71l-2.658 1.827c-.456.263-.674.736-.49 1.055l1.332 2.308c.184.32.702.365 1.158.102l2.908-1.387a16 16 0 0 0 2.725 2.707l-1.393 2.92c-.263.456-.217.974.102 1.158l2.308 1.332c.32.184.792-.034 1.055-.49l1.83-2.662a16 16 0 0 0 3.707.986L22 44.047c0 .526.298.953.666.953h2.668c.368 0 .666-.427.666-.953l.254-3.223a16 16 0 0 0 3.71-.986l1.827 2.658c.263.456.736.674 1.055.49l2.308-1.332c.32-.184.365-.702.102-1.158l-1.387-2.908a16 16 0 0 0 2.707-2.725l2.92 1.393c.456.263.974.217 1.158-.102l1.332-2.308c.184-.32-.034-.792-.49-1.055l-2.662-1.83a16 16 0 0 0 .986-3.707L43.047 27c.526 0 .953-.298.953-.666v-2.668c0-.368-.427-.666-.953-.666l-3.223-.254a16 16 0 0 0-.986-3.71l2.658-1.827c.456-.263.674-.736.49-1.055l-1.332-2.308c-.184-.32-.702-.365-1.158-.102l-2.908 1.387a16 16 0 0 0-2.725-2.707l1.393-2.92c.263-.456.217-.974-.102-1.158l-2.308-1.332c-.32-.184-.792.034-1.055.49l-1.83 2.662a16 16 0 0 0-3.707-.986L26 5.953c0-.526-.298-.953-.666-.953z"/><path style="fill:#ff8dcb" d="M22.666 4c-.368 0-.666.427-.666.953l-.254 3.223a16 16 0 0 0-3.71.986l-1.827-2.658c-.263-.456-.736-.674-1.055-.49l-2.308 1.332c-.32.184-.365.702-.102 1.158l1.387 2.908a16 16 0 0 0-2.707 2.725l-2.92-1.393c-.456-.263-.974-.217-1.158.102l-1.332 2.308c-.184.32.034.792.49 1.055l2.662 1.83a16 16 0 0 0-.986 3.707L4.953 22c-.526 0-.953.298-.953.666v2.668c0 .368.427.666.953.666l3.223.254a16 16 0 0 0 .986 3.71l-2.658 1.827c-.456.263-.674.736-.49 1.055l1.332 2.308c.184.32.702.365 1.158.102l2.908-1.387a16 16 0 0 0 2.725 2.707l-1.393 2.92c-.263.456-.217.974.102 1.158l2.308 1.332c.32.184.792-.034 1.055-.49l1.83-2.662a16 16 0 0 0 3.707.986L22 43.047c0 .526.298.953.666.953h2.668c.368 0 .666-.427.666-.953l.254-3.223a16 16 0 0 0 3.71-.986l1.827 2.658c.263.456.736.674 1.055.49l2.308-1.332c.32-.184.365-.702.102-1.158l-1.387-2.908a16 16 0 0 0 2.707-2.725l2.92 1.393c.456.263.974.217 1.158-.102l1.332-2.308c.184-.32-.034-.792-.49-1.055l-2.662-1.83a16 16 0 0 0 .986-3.707L43.047 26c.526 0 .953-.298.953-.666v-2.668c0-.368-.427-.666-.953-.666l-3.223-.254a16 16 0 0 0-.986-3.71l2.658-1.827c.456-.263.674-.736.49-1.055l-1.332-2.308c-.184-.32-.702-.365-1.158-.102l-2.908 1.387a16 16 0 0 0-2.725-2.707l1.393-2.92c.263-.456.217-.974-.102-1.158l-2.308-1.332c-.32-.184-.792.034-1.055.49l-1.83 2.662a16 16 0 0 0-3.707-.986L26 4.953c0-.526-.298-.953-.666-.953h-2.668z"/><circle style="opacity:.2" cx="24" cy="25" r="12"/><circle style="fill:#fdcfea" cx="24" cy="24" r="12"/><path style="opacity:.1" d="M19.402 18C16.427 18 14 20.233 14 23c0 1.44.651 2.753 1.696 3.667L23.866 34l8.437-7.333C33.349 25.753 34 24.44 34 23c0-2.767-2.427-5-5.402-5-1.96 0-3.657.961-4.598 2.416C23.057 18.961 21.36 18 19.4 18z"/><path style="fill:#03adee" d="M19.402 17C16.427 17 14 19.233 14 22c0 1.44.651 2.753 1.696 3.667L23.866 33l8.437-7.333C33.349 24.753 34 23.44 34 22c0-2.767-2.427-5-5.402-5-1.96 0-3.657.961-4.598 2.416C23.057 17.961 21.36 17 19.4 17z"/><path style="opacity:.3;fill:none;stroke:#000;stroke-width:.48887578;stroke-dasharray:.97775154,.48887577" d="M19.525 18.243c-2.405.001-4.28 1.787-4.28 3.93 0 1.12.498 2.14 1.318 2.864l.004.004 7.313 6.631 7.557-6.635c.82-.723 1.319-1.745 1.319-2.863 0-2.144-1.877-3.931-4.283-3.931-1.589 0-2.924.782-3.656 1.925L24 21.443l-.817-1.275c-.734-1.143-2.068-1.924-3.656-1.925z"/><path style="fill:#f4f4f7;opacity:.2" d="M22.666 4c-.368 0-.666.427-.666.953l-.254 3.223a16 16 0 0 0-3.71.986l-1.827-2.658c-.263-.456-.736-.674-1.055-.49l-2.308 1.332c-.31.179-.357.674-.117 1.12.036-.043.067-.092.117-.12l2.308-1.332c.32-.184.792.034 1.055.49l1.826 2.658a16 16 0 0 1 3.711-.986L22 5.953c0-.526.298-.953.666-.953h2.668c.368 0 .666.427.666.953l.254 3.227a16 16 0 0 1 3.707.986l1.83-2.662c.263-.456.736-.674 1.055-.49l2.308 1.332c.05.028.081.077.117.12.24-.446.194-.941-.117-1.12l-2.308-1.332c-.32-.184-.792.034-1.055.49l-1.83 2.662a16 16 0 0 0-3.707-.986L26 4.953c0-.526-.298-.953-.666-.953h-2.668zm11.541 7.703-.344.72a16 16 0 0 1 2.725 2.708l2.908-1.387c.456-.263.974-.217 1.158.102l1.188 2.058c.197-.245.27-.532.144-.75l-1.332-2.308c-.184-.32-.702-.365-1.158-.102l-2.908 1.387a16 16 0 0 0-2.381-2.428zm-20.412.004a16 16 0 0 0-2.371 2.43l-2.92-1.393c-.456-.263-.974-.217-1.158.102l-1.332 2.308c-.126.218-.053.505.144.75l1.188-2.058c.184-.32.702-.365 1.158-.102l2.92 1.393a16 16 0 0 1 2.707-2.725l-.336-.705zm25.33 7.13-.287.198a16 16 0 0 1 .986 3.711l3.223.254c.526 0 .953.298.953.666v-1c0-.368-.427-.666-.953-.666l-3.223-.254a16 16 0 0 0-.699-2.908zm-30.236.01a16 16 0 0 0-.71 2.9L4.954 22c-.526 0-.953.298-.953.666v1c0-.368.427-.666.953-.666l3.227-.254a16 16 0 0 1 .986-3.707l-.277-.191zM39.11 30.153a16 16 0 0 1-.277.809l2.662 1.83c.145.083.254.19.346.305l.144-.25c.184-.32-.034-.792-.49-1.055l-2.385-1.639zm-30.236.01-2.371 1.629c-.456.263-.674.736-.49 1.055l.144.25a1.23 1.23 0 0 1 .346-.305l2.658-1.826a16 16 0 0 1-.287-.803zm25.33 7.131a16 16 0 0 1-.336.295l1.387 2.908c.007.012.009.025.015.037.197-.235.207-.652-.015-1.037l-1.05-2.203zm-20.412.004-1.049 2.2c-.222.384-.212.801-.015 1.036.006-.012.008-.025.015-.037l1.393-2.92a16 16 0 0 1-.344-.28z"/><path style="opacity:.2;fill:#f4f4f7" d="M24 12a12 12 0 0 0-12 12 12 12 0 0 0 .02.594A12 12 0 0 1 24 13a12 12 0 0 1 11.98 11.406A12 12 0 0 0 36 24a12 12 0 0 0-12-12z"/></svg>