<svg height="48" width="48" xmlns="http://www.w3.org/2000/svg">
    <rect fill="#2979ff" height="40" rx="2" width="40" x="4" y="4"/>
    <path d="M6 4c-1.108 0-2 .892-2 2v1c0-1.108.892-2 2-2h36c1.108 0 2 .892 2 2V6c0-1.108-.892-2-2-2z" fill="#fff" opacity=".1"/>
    <path d="M6 45c-1.108 0-2-.892-2-2v-1c0 1.108.892 2 2 2h36c1.108 0 2-.892 2-2v1c0 1.108-.892 2-2 2zM19 12l-6 6v18h17l6-6H22.842l13.074-13.11-4.248-4.238L19 25.355z" opacity=".2"/>
    <path d="m19 11-6 6v18h17l6-6H22.842l13.074-13.11-4.248-4.238L19 24.355z" fill="#f4f4f7"/>
</svg>
