<svg height="48" width="48" xmlns="http://www.w3.org/2000/svg"><rect height="40" opacity=".2" rx="2" width="40" x="4" y="5"/><rect fill="#e64031" height="40" rx="2" width="40" x="4" y="4"/><path d="m6 4c-1.108 0-2 .892-2 2v1c0-1.108.892-2 2-2h36c1.108 0 2 .892 2 2v-1c0-1.108-.892-2-2-2z" fill="#f4f4f7" opacity=".2"/><path d="m7 20v10h6v-2h-4v-2h4v-2h-4v-2h4v-2zm12.004 0c-.907 0-1.659.208-2.258.625-.59.417-1.03.998-1.322 1.742s-.438 1.616-.438 2.613c0 1.007.146 1.886.438 2.64.291.752.731 1.338 1.322 1.755.599.417 1.348.625 2.246.625.874 0 1.607-.208 2.197-.625.162-.114.311-.244.452-.383l-1.364-1.496c-.313.332-.74.504-1.287.504-.688 0-1.193-.266-1.517-.799-.324-.54-.487-1.277-.487-2.21 0-.935.163-1.666.487-2.192.33-.533.839-.799 1.527-.799.543 0 .965.172 1.277.504l1.366-1.5a3.4 3.4 0 0 0 -.454-.379c-.59-.417-1.32-.625-2.185-.625zm4.996 0v10h2v-4h3v4h2v-10h-2v4h-3v-4zm13.018 0c-.907 0-1.66.208-2.258.625-.591.417-1.031.998-1.322 1.742-.292.744-.438 1.616-.438 2.613 0 1.007.146 1.886.438 2.64.29.752.731 1.338 1.322 1.755.599.417 1.348.625 2.246.625.874 0 1.606-.208 2.197-.625.59-.417 1.037-.998 1.336-1.742.308-.753.461-1.632.461-2.639s-.153-1.883-.46-2.627c-.3-.753-.746-1.334-1.337-1.742-.59-.417-1.32-.625-2.185-.625zm-.004 2c.688 0 1.19.266 1.507.799.319.526.479 1.257.479 2.191s-.16 1.671-.479 2.211c-.318.533-.823.799-1.517.799-.688 0-1.194-.266-1.518-.799-.324-.54-.486-1.277-.486-2.21 0-.935.162-1.666.486-2.192.33-.533.84-.799 1.528-.799z" opacity=".2"/><path d="m7 19v10h6v-2h-4v-2h4v-2h-4v-2h4v-2zm12.004 0c-.907 0-1.659.208-2.258.625-.59.417-1.03.998-1.322 1.742s-.438 1.616-.438 2.613c0 1.007.146 1.886.438 2.64.291.752.731 1.338 1.322 1.755.599.417 1.348.625 2.246.625.874 0 1.607-.208 2.197-.625.162-.114.311-.244.452-.383l-1.364-1.496c-.313.332-.74.504-1.287.504-.688 0-1.193-.266-1.517-.799-.324-.54-.487-1.277-.487-2.21 0-.935.163-1.666.487-2.192.33-.533.839-.799 1.527-.799.543 0 .965.172 1.277.504l1.366-1.5a3.4 3.4 0 0 0 -.454-.379c-.59-.417-1.32-.625-2.185-.625zm4.996 0v10h2v-4h3v4h2v-10h-2v4h-3v-4zm13.018 0c-.907 0-1.66.208-2.258.625-.591.417-1.031.998-1.322 1.742-.292.744-.438 1.616-.438 2.613 0 1.007.146 1.886.438 2.64.29.752.731 1.338 1.322 1.755.599.417 1.348.625 2.246.625.874 0 1.606-.208 2.197-.625.59-.417 1.037-.998 1.336-1.742.308-.753.461-1.632.461-2.639s-.153-1.883-.46-2.627c-.3-.753-.746-1.334-1.337-1.742-.59-.417-1.32-.625-2.185-.625zm-.004 2c.688 0 1.19.266 1.507.799.319.526.479 1.257.479 2.191s-.16 1.671-.479 2.211c-.318.533-.823.799-1.517.799-.688 0-1.194-.266-1.518-.799-.324-.54-.486-1.277-.486-2.21 0-.935.162-1.666.486-2.192.33-.533.84-.799 1.528-.799z" fill="#f4f4f7"/></svg>