<svg height="48" width="48" xmlns="http://www.w3.org/2000/svg"><rect fill="#c41f5b" height="40" rx="2" width="40" x="4" y="4"/><path d="m12 7.994v24h12v.006l12-12h-12l12-12h-12v-.006zm12 24.006h-12l12 12 12-12z" opacity=".2"/><path d="m6 4c-1.108 0-2 .892-2 2v1c0-1.108.892-2 2-2h36c1.108 0 2 .892 2 2v-1c0-1.108-.892-2-2-2z" fill="#fff" opacity=".2"/><path d="m6 45c-1.108 0-2-.892-2-2v-1c0 1.108.892 2 2 2h36c1.108 0 2-.892 2-2v1c0 1.108-.892 2-2 2z" opacity=".2"/><path d="m36 31h-12v12zm0-12h-12v12z" fill="#fff"/><path d="m36 7h-12v12z" fill="#ea7aa2"/><path d="m12 31h12v12zm0-24h12v24h-12z" fill="#e0e0e0"/></svg>