<svg xmlns="http://www.w3.org/2000/svg" width="48" height="48" version="1"><path style="opacity:.2;fill-rule:evenodd" d="M37.959 9a2.595 2.595 0 0 0-1.803.768L20.23 25.816l-8.387-8.052a2.59 2.59 0 0 0-3.683 0L4.762 21.19a2.639 2.639 0 0 0 0 3.71l10.229 9.908 3.399 3.425a2.59 2.59 0 0 0 3.682 0l3.399-3.425 17.766-17.902a2.639 2.639 0 0 0 0-3.712l-3.399-3.424A2.594 2.594 0 0 0 37.958 9z"/><path style="fill:#5cbb6a;fill-rule:evenodd" d="M37.959 8a2.595 2.595 0 0 0-1.803.768L20.23 24.816l-8.387-8.052a2.59 2.59 0 0 0-3.683 0L4.762 20.19a2.639 2.639 0 0 0 0 3.71l10.229 9.908 2.382 2.4 1.088.2c1.017 1.024 2.325.755 3.342-.27l3.668-2.33 17.766-17.902a2.639 2.639 0 0 0 0-3.712l-3.399-3.424A2.594 2.594 0 0 0 37.958 8z"/><path style="fill:#3e8749;fill-rule:evenodd" d="m26.002 19-5.772 5.816L15.3 20.08l-7.295 6.961 1.978 1.916 21.237-.943 8.94-9.008.005-.006H26.002z"/><path style="fill:#2d6235;fill-rule:evenodd" d="m24.19 20.826-1.981 1.996 8.955 5.248 3.494-3.521-10.469-3.723zM25.799 33.477 17.3 36.135l1.088 1.097a2.604 2.624 0 0 0 3.683 0l3.399-3.425.328-.33z"/><path style="opacity:.2;fill:#f4f4f7;fill-rule:evenodd" d="M37.959 8a2.595 2.595 0 0 0-1.803.768L20.23 24.816l-8.386-8.052a2.592 2.592 0 0 0-3.684 0l-3.398 3.425a2.633 2.633 0 0 0-.715 2.354c.095-.496.333-.97.715-1.354l3.398-3.425a2.592 2.592 0 0 1 3.684 0l8.386 8.052L36.156 9.768A2.595 2.595 0 0 1 37.96 9a2.593 2.593 0 0 1 1.879.77l3.398 3.423c.382.385.622.858.717 1.354a2.636 2.636 0 0 0-.717-2.354L39.838 8.77A2.593 2.593 0 0 0 37.959 8z"/></svg>