<svg height="48" width="48" xmlns="http://www.w3.org/2000/svg"><path d="m44 40v-32c0-1.108-.892-2-2-2h-36c-1.108 0-2 .892-2 2v32c0 1.108.892 2 2 2h36c1.108 0 2-.892 2-2z" fill="#4f4f4f"/><path d="m6 6c-1.108 0-2 .892-2 2v6h40v-6c0-1.108-.892-2-2-2z" opacity=".2"/><path d="m6 6c-1.108 0-2 .892-2 2v2h40v-2c0-1.108-.892-2-2-2z" opacity=".2"/><g fill="#fff"><path d="m6 6c-1.108 0-2 .892-2 2v6h9v-4l-4-4z" opacity=".2"/><path d="m19 10-4-4h5l4 4zm0 0-4 4h5l4-4zm10 0-4-4h5l4 4zm0 0-4 4h5l4-4zm10 0-4-4h5l4 4zm0 0-4 4h5l4-4z" fill-rule="evenodd" opacity=".2"/><path d="m6 6c-1.108 0-2 .892-2 2v1c0-1.108.892-2 2-2h36c1.108 0 2 .892 2 2v-1c0-1.108-.892-2-2-2z" opacity=".2"/></g><path d="m4 40v1c0 1.108.892 2 2 2h36c1.108 0 2-.892 2-2v-1c0 1.108-.892 2-2 2h-36c-1.108 0-2-.892-2-2z" opacity=".2"/><path d="m-39.95 37.312-6.062 3.5-6.062 3.5v-14l6.062 3.5z" opacity=".2" transform="matrix(.98974 0 0 1 70.54 -10.312)"/><path d="m-39.95 37.312-6.062 3.5-6.062 3.5v-14l6.062 3.5z" fill="#bababa" transform="matrix(.98974 0 0 1 70.54 -11.312)"/></svg>