<svg xmlns="http://www.w3.org/2000/svg" width="48" height="48" version="1"><path fill="#4f4f4f" d="M44 40V8c0-1.108-.892-2-2-2H6c-1.108 0-2 .892-2 2v32c0 1.108.892 2 2 2h36c1.108 0 2-.892 2-2z"/><path opacity=".2" d="M6 6c-1.108 0-2 .892-2 2v6h40V8c0-1.108-.892-2-2-2z"/><path opacity=".2" d="M6 6c-1.108 0-2 .892-2 2v2h40V8c0-1.108-.892-2-2-2z"/><path fill="#fff" opacity=".2" d="M6 6c-1.108 0-2 .892-2 2v6h9v-4L9 6z"/><path fill="#fff" fill-rule="evenodd" opacity=".2" d="m19 10-4-4h5l4 4zM19 10l-4 4h5l4-4zM29 10l-4-4h5l4 4zM29 10l-4 4h5l4-4zM39 10l-4-4h5l4 4zM39 10l-4 4h5l4-4z"/><path fill="#fff" opacity=".2" d="M6 6c-1.108 0-2 .892-2 2v1c0-1.108.892-2 2-2h36c1.108 0 2 .892 2 2V8c0-1.108-.892-2-2-2H6z"/><path opacity=".2" d="M4 40v1c0 1.108.892 2 2 2h36c1.108 0 2-.892 2-2v-1c0 1.108-.892 2-2 2H6c-1.108 0-2-.892-2-2z"/><path style="opacity:.2" transform="matrix(.98974 0 0 1 70.54 -10.312)" d="m-39.95 37.312-6.062 3.5-6.062 3.5v-14l6.062 3.5z"/><path style="fill:#bababa" transform="matrix(.98974 0 0 1 70.54 -11.312)" d="m-39.95 37.312-6.062 3.5-6.062 3.5v-14l6.062 3.5z"/></svg>