<svg height="48" width="48" xmlns="http://www.w3.org/2000/svg"><path d="m6 45c-1.108 0-2-.892-2-2v-1c0 1.108.892 2 2 2h36c1.108 0 2-.892 2-2v1c0 1.108-.892 2-2 2z" opacity=".2"/><rect fill="#4f4f4f" height="40" rx="2" width="40" x="4" y="4"/><path d="m6 4c-1.108 0-2 .892-2 2v1c0-1.108.892-2 2-2h36c1.108 0 2 .892 2 2v-1c0-1.108-.892-2-2-2z" fill="#f4f4f7" opacity=".1"/><path d="m9 44h7l28-28v-7z" fill="#f24c3d"/><path d="m16 44h7l21-21v-7z" fill="#e6df15"/><path d="m23 44h7l14-14v-7z" fill="#66dd23"/><path d="m30 44h7l7-7v-7z" fill="#24f0ff"/><path d="m19 8.75 3.571 6-3.57 6h2.856l2.143-3.601 2.143 3.601h2.857l-3.57-6 3.57-6h-2.857l-2.143 3.601-2.143-3.601zm-11 0h10v1.5l-6.429 8.25h6.429v2.25h-10v-1.5l6.429-8.25h-6.429z" opacity=".2"/><path d="m19 8 3.571 6-3.571 6h2.857l2.143-3.601 2.143 3.601h2.857l-3.57-6 3.57-6h-2.857l-2.143 3.601-2.143-3.601zm-11 0h10v1.5l-6.429 8.25h6.43v2.25h-10.001v-1.5l6.428-8.25h-6.428z" fill="#f4f4f7"/></svg>