<svg xmlns="http://www.w3.org/2000/svg" width="48" height="48"><path style="opacity:.2" d="M4 35v8c0 1.108.892 2 2 2h36c1.108 0 2-.892 2-2v-8c0 1.108-.892 2-2 2H6c-1.108 0-2-.892-2-2z"/><path style="fill:#a8a8a8" d="M4 34v8c0 1.108.892 2 2 2h36c1.108 0 2-.892 2-2v-8c0 1.108-.892 2-2 2H6c-1.108 0-2-.892-2-2z"/><rect style="opacity:.1" width="40" height="32" x="4" y="5" rx="2" ry="2"/><rect style="fill:#f4f4f7" width="40" height="32" x="4" y="4" rx="2" ry="2"/><path style="opacity:.1" d="M24.334 9.002c-1.294-.015-2.219.076-2.244.32-.051.5-.322 1.53-.363 2.625a11.719 11.719 0 0 1-.36-2.447c-1.865.127-5.052 1.898-5.064 2.734-.007.484.43 4.441.955 6.383-.973-1.911-1.392-3.86-1.836-5.808-.562.604-3.293.578-1.397 8.82-.779-1.281-.906-2.71-1.296-4.08-1.335 2.215-2.19 6.046-1.497 10.787 3.098-6.569 8.215-11.405 14.387-15.373.156-.071.182.048.125.107-4.822 3.679-7.718 7.106-8.342 7.793-.479.526-2.7 2.896-4.144 5.852a16.86 16.86 0 0 0-.951 2.463c3.522-.509 5.565-1.902 6.8-3.658-2.236-2.933-1.646-2.475.237-.61.886.877 2.294 1.681 3.263-1.051.745-2.097 1.62-2.677 1.62-2.677-1.328-.549-3.801-2.45.189-.778 1.265-1.957 3.029-3.281 4.648-4.789-3.62-.005-2.592-1.568.592-.451 1.515-2.873 5.195-2.827 9.344-2.148-3.047-1.556-6.439-3.588-7.422-2.303l-.142-.961c-1.76-.405-4.945-.726-7.102-.75zM11.232 28.336A31.942 31.942 0 0 0 9 34.783l.398.217s.36-.771.678-1.004c.318-.232 1.336-.664 1.336-.664s.219-1.952.895-4.154c-.196.028-.377.065-.582.088l-.375-.106c-.052-.282-.077-.548-.118-.824z"/><path style="opacity:.2;fill:#f4f4f7" d="M6 4c-1.108 0-2 .892-2 2v1c0-1.108.892-2 2-2h36c1.108 0 2 .892 2 2V6c0-1.108-.892-2-2-2H6z"/><path style="fill:#434343" d="M11.232 27.336A31.942 31.942 0 0 0 9 33.783l.398.217s.36-.771.678-1.004c.318-.232 1.336-.664 1.336-.664s.219-1.952.895-4.154c-.196.028-.377.065-.582.088l-.375-.106c-.052-.282-.077-.548-.118-.824z"/><path style="fill:#4976a8" d="M24.334 8.002c-1.294-.015-2.219.076-2.244.32-.051.5-.322 1.53-.363 2.625a11.717 11.717 0 0 1-.36-2.447c-1.865.127-5.052 1.898-5.064 2.734-.007.484.43 4.441.955 6.383-.973-1.911-1.392-3.86-1.836-5.808-.562.604-3.293.578-1.397 8.82-.779-1.281-.906-2.71-1.296-4.08-1.335 2.215-2.19 6.046-1.497 10.787 3.098-6.569 8.215-11.405 14.387-15.373.156-.071.182.048.125.107-4.822 3.679-7.718 7.106-8.342 7.793-.479.526-2.7 2.896-4.144 5.852a16.86 16.86 0 0 0-.951 2.463c3.522-.509 5.565-1.902 6.8-3.658-2.236-2.933-1.646-2.475.237-.61.886.877 2.294 1.681 3.263-1.051.745-2.097 1.62-2.677 1.62-2.677-1.328-.549-3.801-2.45.189-.778 1.265-1.957 3.029-3.281 4.648-4.789-3.62-.005-2.592-1.568.592-.451 1.515-2.873 5.195-2.827 9.344-2.148-3.047-1.556-6.439-3.588-7.422-2.303l-.142-.961c-1.76-.405-4.945-.726-7.102-.75z"/></svg>