<svg height="48" width="48" xmlns="http://www.w3.org/2000/svg"><rect fill="#4f4f4f" height="40" rx="2" width="40" x="4" y="4"/><path d="m7 13v24h4v-10h6v-4h-6v-6h6v-4zm12 0v24h10v-4h-6v-6h6v-4h-6v-6h6v-4zm12 0v24h4v-10h2v10h4v-24h-4v10h-2v-10z" opacity=".2"/><path d="m6 4c-1.108 0-2 .892-2 2v1c0-1.108.892-2 2-2h36c1.108 0 2 .892 2 2v-1c0-1.108-.892-2-2-2z" fill="#fff" opacity=".1"/><path d="m6 45c-1.108 0-2-.892-2-2v-1c0 1.108.892 2 2 2h36c1.108 0 2-.892 2-2v1c0 1.108-.892 2-2 2z" opacity=".2"/><g fill="#df4545"><path d="m7 12h4v24h-4z"/><path d="m12-17h4v10h-4zm10 0h4v10h-4z" transform="rotate(90)"/><path d="m19 12h4v24h-4z"/><path d="m12-29h4v10h-4zm10 0h4v10h-4z" transform="rotate(90)"/><path d="m31 12h4v24h-4z"/><path d="m22-41h4v10h-4zm10 12h4v10h-4z" transform="rotate(90)"/><path d="m37 12h4v24h-4z"/></g><path d="m7 12v1h10v-1zm12 0v1h10v-1zm12 0v1h4v-1zm6 0v1h4v-1zm-26 10v1h6v-1zm12 0v1h6v-1zm12 0v1h2v-1zm-12 10v1h6v-1z" fill="#f4f4f7" opacity=".1"/></svg>