<svg height="48" width="48" xmlns="http://www.w3.org/2000/svg">
    <rect fill="#4f4f4f" height="40" rx="2" width="40" x="4" y="4"/>
    <path d="M7 13v24h4V27h6v-4h-6v-6h6v-4zm12 0v24h10v-4h-6v-6h6v-4h-6v-6h6v-4zm12 0v24h4V27h2v10h4V13h-4v10h-2V13z" opacity=".2"/>
    <path d="M6 4c-1.108 0-2 .892-2 2v1c0-1.108.892-2 2-2h36c1.108 0 2 .892 2 2V6c0-1.108-.892-2-2-2z" fill="#fff" opacity=".1"/>
    <path d="M6 45c-1.108 0-2-.892-2-2v-1c0 1.108.892 2 2 2h36c1.108 0 2-.892 2-2v1c0 1.108-.892 2-2 2z" opacity=".2"/>
    <g fill="#df4545">
        <path d="M7 12h4v24H7z"/>
        <path d="M17 12v4H7v-4zm0 10v4H7v-4zM19 12h4v24h-4z"/>
        <path d="M29 12v4H19v-4zm0 10v4H19v-4zM31 12h4v24h-4z"/>
        <path d="M41 22v4H31v-4zM29 32v4H19v-4z"/>
        <path d="M37 12h4v24h-4z"/>
    </g>
    <path d="M7 12v1h10v-1zm12 0v1h10v-1zm12 0v1h4v-1zm6 0v1h4v-1zM11 22v1h6v-1zm12 0v1h6v-1zm12 0v1h2v-1zM23 32v1h6v-1z" fill="#f4f4f7" opacity=".1"/>
</svg>
