<svg height="48" width="48" xmlns="http://www.w3.org/2000/svg">
    <rect fill="#c2352a" height="40" rx="2" width="40" x="4" y="4"/>
    <path d="M6 4c-1.108 0-2 .892-2 2v1c0-1.108.892-2 2-2h36c1.108 0 2 .892 2 2V6c0-1.108-.892-2-2-2z" fill="#fff" opacity=".2"/>
    <path d="M6 45c-1.108 0-2-.892-2-2v-1c0 1.108.892 2 2 2h36c1.108 0 2-.892 2-2v1c0 1.108-.892 2-2 2zm28.75-33.985c-1.963.03-9.995.883-13.219 12.656-2.668 9.742-7.615 9.797-8.531 9.719v5.594c.928.07 9.026.374 12.78-10.97H33v-6h-4.72c.18-.624 1.626-5.142 6.72-5.343v-5.657c-.074 0-.09-.002-.25 0z" opacity=".2"/>
    <path d="M34.75 10.015c-1.963.03-9.995.883-13.219 12.656-2.668 9.742-7.615 9.797-8.531 9.719v5.594c.928.07 9.026.374 12.78-10.97H33v-6h-4.72c.18-.624 1.626-5.142 6.72-5.343v-5.657c-.074 0-.09-.002-.25 0z" fill="#fff"/>
</svg>
