<svg height="48" width="48" xmlns="http://www.w3.org/2000/svg"><path d="m25 45c9 0 12-7.103 12-13 0-8-7.463-12.163-9-19-.585-2.602 0-8 0-8s-17 12-17 26c0 6.6 5 14 14 14z" opacity=".2"/><path d="m25 44c9 0 12-7.103 12-13 0-8-7.463-12.163-9-19-.585-2.602 0-8 0-8s-17 12-17 26c0 6.6 5 14 14 14z" fill="#4f4f4f"/><path d="m26 11s-12 8-12 20c0 5.426 5 11 11 11s8-7 8-10c0-2 0-7-5-7s-6 3-6 3 2.118-.472 3 0c1.06.567 2 1.51 2 3 0 2-2 3-4 3-1.414 0-3-1.586-3-3 0-8 7-9 7-9s2 0 3 1c-4-7-4-12-4-12z" opacity=".2"/><g fill="#f4f4f7"><path d="m26 10s-12 8-12 20c0 5.426 5 11 11 11s8-7 8-10c0-2 0-7-5-7s-6 3-6 3 2.118-.472 3 0c1.06.567 2 1.51 2 3 0 2-2 3-4 3-1.414 0-3-1.586-3-3 0-8 7-9 7-9s2 0 3 1c-4-7-4-12-4-12z"/><path d="m28 4s-17 12-17 26c0 .147.017.296.021.443.434-13.535 16.363-25 16.885-25.373.051-.632.094-1.07.094-1.07zm-.252 5.098c-.027 1.401.02 2.87.252 3.902 1.514 6.734 8.76 10.88 8.98 18.646.008-.216.02-.433.02-.646 0-8-7.463-12.163-9-19-.177-.786-.24-1.831-.252-2.902z" opacity=".1"/></g></svg>