<svg width="48" height="48" xmlns="http://www.w3.org/2000/svg"><circle cx="24" cy="25" r="20" style="opacity:.2"/><circle cx="24" cy="24" r="20" style="fill:#f4f4f7"/><path d="M24 4A20 20 0 0 0 4 24a20 20 0 0 0 .02.586A20 20 0 0 1 24 5a20 20 0 0 1 19.98 19.414A20 20 0 0 0 44 24 20 20 0 0 0 24 4z" style="fill:#f4f4f7;opacity:.2"/><path d="M24 13c-6.463 0-13 5.419-13 13 0 5.847 5.467 11 12 11 2.369 0 5.021-.8 7.174-2.305C32.326 33.19 34 30.882 34 28c0-5.533-4.333-11-10-11-2.288 0-4.467.97-6.117 2.422-1.65 1.453-2.812 3.42-2.883 5.545-.062 1.874.498 3.862 1.822 5.418C18.146 31.94 20.253 33 23 33c2.923 0 6-2.413 6-6 0-2.686-2.183-5-4.9-5-.681 0-1.554.11-2.393.51S20 23.79 20 25c0 1.844 1.105 3.037 2.115 3.525 1.01.49 1.985.475 1.985.475a1 1 0 1 0 0-2s-.574-.014-1.114-.275S22 26.155 22 25c0-.359.132-.477.568-.686.437-.208 1.113-.314 1.532-.314 1.551 0 2.9 1.417 2.9 3 0 2.413-2.209 4-4 4-2.253 0-3.7-.792-4.654-1.912-.954-1.12-1.393-2.631-1.346-4.055.047-1.417.885-2.95 2.205-4.111S22.288 19 24 19c4.333 0 8 4.533 8 9 0 2.118-1.192 3.81-2.973 5.055C27.247 34.299 24.9 35 23 35c-5.467 0-10-4.433-10-9 0-6.419 5.668-11 11-11 6.218 0 9.037 2.51 10.514 5.008C35.99 22.506 36 25 36 25a1 1 0 1 0 2 0s.01-3.006-1.764-6.008C34.463 15.991 30.782 13 24 13z" style="opacity:.1"/><path d="M24 12c-6.463 0-13 5.419-13 13 0 5.847 5.467 11 12 11 2.369 0 5.021-.8 7.174-2.305C32.326 32.19 34 29.882 34 27c0-5.533-4.333-11-10-11-2.288 0-4.467.97-6.117 2.422-1.65 1.453-2.812 3.42-2.883 5.545-.062 1.874.498 3.862 1.822 5.418C18.146 30.94 20.253 32 23 32c2.923 0 6-2.413 6-6 0-2.686-2.183-5-4.9-5-.681 0-1.554.11-2.393.51S20 22.79 20 24c0 1.844 1.105 3.037 2.115 3.525 1.01.49 1.985.475 1.985.475a1 1 0 1 0 0-2s-.574-.014-1.114-.275S22 25.155 22 24c0-.359.132-.477.568-.686.437-.208 1.113-.314 1.532-.314 1.551 0 2.9 1.417 2.9 3 0 2.413-2.209 4-4 4-2.253 0-3.7-.792-4.654-1.912-.954-1.12-1.393-2.631-1.346-4.055.047-1.417.885-2.95 2.205-4.111S22.288 18 24 18c4.333 0 8 4.533 8 9 0 2.118-1.192 3.81-2.973 5.055C27.247 33.299 24.9 34 23 34c-5.467 0-10-4.433-10-9 0-6.419 5.668-11 11-11 6.218 0 9.037 2.51 10.514 5.008C35.99 21.506 36 24 36 24a1 1 0 1 0 2 0s.01-3.006-1.764-6.008C34.463 14.991 30.782 12 24 12z" style="fill:#7a34eb"/></svg>