<svg height="48" width="48" xmlns="http://www.w3.org/2000/svg">
    <rect height="40" opacity=".2" rx="2" width="40" x="4" y="5"/>
    <rect fill="#3c3a2d" height="40" rx="2" width="40" x="4" y="4"/>
    <path d="M16 8a3 3 0 0 0-3 3 3 3 0 0 0 3 3 3 3 0 0 0 3-3 3 3 0 0 0-3-3zm8 0a3 3 0 0 0-3 3 3 3 0 0 0 3 3 3 3 0 0 0 3-3 3 3 0 0 0-3-3zm8 0a3 3 0 0 0-3 3 3 3 0 0 0 3 3 3 3 0 0 0 3-3 3 3 0 0 0-3-3zM9 16c-1.108 0-2 .892-2 2v20c0 1.108.892 2 2 2h12c1.108 0 2-.892 2-2V18c0-1.108-.892-2-2-2zm18 0c-1.108 0-2 .892-2 2v20c0 1.108.892 2 2 2h12c1.108 0 2-.892 2-2V18c0-1.108-.892-2-2-2zm-15.5 3h7c.831 0 1.5.669 1.5 1.5s-.669 1.5-1.5 1.5h-7c-.831 0-1.5-.669-1.5-1.5s.669-1.5 1.5-1.5zm0 5h7c.831 0 1.5.669 1.5 1.5s-.669 1.5-1.5 1.5h-7c-.831 0-1.5-.669-1.5-1.5s.669-1.5 1.5-1.5zm0 5h7c.831 0 1.5.669 1.5 1.5s-.669 1.5-1.5 1.5h-7c-.831 0-1.5-.669-1.5-1.5s.669-1.5 1.5-1.5zm0 5h7c.831 0 1.5.669 1.5 1.5s-.669 1.5-1.5 1.5h-7c-.831 0-1.5-.669-1.5-1.5s.669-1.5 1.5-1.5z" opacity=".2"/>
    <path d="M6 4c-1.108 0-2 .892-2 2v1c0-1.108.892-2 2-2h36c1.108 0 2 .892 2 2V6c0-1.108-.892-2-2-2z" fill="#f4f4f7" opacity=".1"/>
    <circle cx="16" cy="10" fill="#ed253e" r="3"/>
    <circle cx="24" cy="10" fill="#f68f33" r="3"/>
    <circle cx="32" cy="10" fill="#72be44" r="3"/>
    <path d="M9 15c-1.108 0-2 .892-2 2v20c0 1.108.892 2 2 2h12c1.108 0 2-.892 2-2V17c0-1.108-.892-2-2-2zm2.5 3h7c.831 0 1.5.669 1.5 1.5s-.669 1.5-1.5 1.5h-7c-.831 0-1.5-.669-1.5-1.5s.669-1.5 1.5-1.5zm0 5h7c.831 0 1.5.669 1.5 1.5s-.669 1.5-1.5 1.5h-7c-.831 0-1.5-.669-1.5-1.5s.669-1.5 1.5-1.5zm0 5h7c.831 0 1.5.669 1.5 1.5s-.669 1.5-1.5 1.5h-7c-.831 0-1.5-.669-1.5-1.5s.669-1.5 1.5-1.5zm0 5h7c.831 0 1.5.669 1.5 1.5s-.669 1.5-1.5 1.5h-7c-.831 0-1.5-.669-1.5-1.5s.669-1.5 1.5-1.5z" fill="#f4f4f7"/>
    <path d="M27 15c-1.108 0-2 .892-2 2v20c0 1.108.892 2 2 2h12c1.108 0 2-.892 2-2V17c0-1.108-.892-2-2-2z" fill="#f5e1d8"/>
</svg>
