<svg xmlns="http://www.w3.org/2000/svg" width="48" height="48" version="1"><rect style="fill:#f4f4f7" width="40" height="40" x="-43.98" y="-43.98" rx="20" ry="20" transform="matrix(0 -1 -1 0 0 0)"/><path style="opacity:.2;fill:#f4f4f7" d="M24 4A19.943 19.943 0 0 0 4.018 23.992c0 .168-.004.334 0 .5A19.948 19.948 0 0 1 24 5a19.948 19.948 0 0 1 19.982 19.492c.004-.166 0-.332 0-.5A19.944 19.944 0 0 0 24 4z"/><path style="opacity:.2" d="M4.012 24.49c-.004.167-.012.332-.012.5A19.96 19.96 0 0 0 24 45c11.08 0 20-8.924 20-20.01 0-.168-.008-.333-.012-.5C43.724 35.341 34.912 44 24 44 13.088 44 4.276 35.341 4.012 24.49z"/><circle style="fill:#17191e" cx="24" cy="24" r="14"/><path style="opacity:.2" d="M19 17v16h4v-6h4v-4h-4v-2h6v-4H19z"/><path style="fill:#f4f4f7" d="M19 16v16h4v-6h4v-4h-4v-2h6v-4H19z"/></svg>