<svg height="48" width="48" xmlns="http://www.w3.org/2000/svg">
    <path d="M25.748 5c-.346-.001-.48.272-1.181 2.406l-.697 2.119-1.064.096c-.586.053-1.26.137-1.5.187-.317.066-.465.066-.542.002-.058-.049-.551-.848-1.096-1.777C18.58 6.177 18.356 5.88 18.05 5.88c-.321 0-2.476.859-2.633 1.05a.758.758 0 0 0-.137.42c0 .139.194 1.153.43 2.255.235 1.1.413 2.038.396 2.082s-.274.231-.57.415c-.296.185-.833.572-1.192.861-.359.29-.687.526-.729.526-.041 0-.882-.455-1.867-1.012-2.026-1.144-2.123-1.188-2.409-1.079-.308.117-1.823 2.04-1.823 2.315 0 .298.073.392 1.618 2.111.738.822 1.343 1.553 1.343 1.624" opacity=".2"/>
    <path d="M25.748 4c-.346-.001-.48.272-1.181 2.406l-.697 2.119-1.064.096c-.586.053-1.26.137-1.5.187-.317.066-.465.066-.542.002-.058-.049-.551-.848-1.096-1.777C18.58 5.177 18.356 4.88 18.05 4.88c-.321 0-2.476.859-2.633 1.05a.758.758 0 0 0-.137.42c0 .139.194 1.153.43 2.255.235 1.1.413 2.038.396 2.082s-.274.231-.57.415c-.296.185-.833.572-1.192.861-.359.29-.687.526-.729.526-.041 0-.882-.455-1.867-1.012-2.026-1.144-2.123-1.188-2.409-1.079-.308.117-1.823 2.04-1.823 2.315 0 .298.073.392 1.618 2.111.738.822 1.343 1.553 1.343 1.624" fill="#959dbd"/>
    <path d="M25.748 4c-.345-.002-.48.273-1.182 2.406l-.695 2.12-1.064.095a18.66 18.66 0 0 0-1.502.188c-.317.065-.464.066-.541.002-.059-.049-.551-.849-1.096-1.778-1.088-1.856-1.311-2.152-1.617-2.152-.322 0-2.476.858-2.633 1.049a.76.76 0 0 0-.139.422c0 .038.091.465.117.619.008-.012.014-.031.022-.041.157-.191 2.311-1.05 2.633-1.05.306 0 .529.297 1.617 2.153.545.929 1.037 1.73 1.096 1.778.077.064.224.063.54-.002.24-.05.917-.135 1.503-.188l1.064-.096.695-2.119c.701-2.133.837-2.408 1.182-2.406.148.001 2.092.294 2.438.367.136.03.286.149.378.301.142.232.154.421.155 2.346 0 2.42-.037 2.298.8 2.591.287.1.835.34 1.22.532.383.192.755.35.825.35.071 0 .802-.606 1.623-1.346.822-.74 1.581-1.408 1.69-1.483.383-.263.572-.185 1.644.676.45.36.72.6.893.795.04-.081.215-.393.22-.412.097-.323-.106-.575-1.113-1.383-1.072-.861-1.261-.939-1.644-.676-.109.075-.868.742-1.69 1.483-.82.74-1.552 1.345-1.623 1.345-.07 0-.442-.157-.826-.35a12.886 12.886 0 0 0-1.218-.53c-.838-.294-.8-.171-.801-2.592 0-1.925-.013-2.114-.155-2.346-.092-.152-.242-.272-.378-.3C27.84 4.293 25.896 4 25.748 4zM9.551 10.36" fill="#f4f4f7" opacity=".2"/>
    <circle cx="24" cy="24" opacity=".2" r="11"/>
    <path d="M31 5c-2 0-4 0-4 2v11.686A7 7 0 0 0 24 18a7 7 0 0 0-7 7 7 7 0 0 0 7 7 7 7 0 0 0 7-7 7 7 0 0 0-.008-.215c.002-.03.007-.058.008-.088.024-3.765 0-7.581 0-11.363C31 8 37 15 38 16c0-2.667 0-11-7-11z" opacity=".1"/>
    <path d="M31 4c-2 0-4 0-4 2v11.686A7 7 0 0 0 24 17a7 7 0 0 0-7 7 7 7 0 0 0 7 7 7 7 0 0 0 7-7 7 7 0 0 0-.008-.215c.002-.03.007-.058.008-.088.024-3.765 0-7.581 0-11.363C31 7 37 14 38 15c0-2.667 0-11-7-11z" fill="#1d63c9"/>
</svg>
