<svg xmlns="http://www.w3.org/2000/svg" width="48" height="48" version="1"><rect style="fill:#569a40" width="40" height="40" x="4" y="4" rx="2" ry="2"/><path fill="#fff" opacity=".2" d="M6 4c-1.108 0-2 .892-2 2v1c0-1.108.892-2 2-2h36c1.108 0 2 .892 2 2V6c0-1.108-.892-2-2-2H6z"/><path opacity=".2" d="M6 45c-1.108 0-2-.892-2-2v-1c0 1.108.892 2 2 2h36c1.108 0 2-.892 2-2v1c0 1.108-.892 2-2 2H6z"/><path style="opacity:.5;fill:#f4f4f7" d="M6 6v30h3V9h30v30H12v3h30V6zm0 32v4h4v-4z"/><path transform="translate(0 1)" d="M21.945 12c-1.063 0-2.232.045-3.508.137a21.532 21.532 0 0 0-3.437.445V36h5v-7.966h1.697c1.796 0 3.39-.148 4.783-.445 1.394-.297 2.575-.756 3.543-1.373.969-.64 1.702-1.45 2.198-2.434.52-1.005.779-2.205.779-3.6 0-2.673-.956-5.04-2.87-6.297C28.242 12.628 25.513 12 21.946 12zm.319 3.736c.85 0 1.642.07 2.375.207.756.115 1.404.32 1.947.618.543.297.968.708 1.275 1.234.307.526.461 1.575.461 2.353 0 1.622-.579 2.732-1.736 3.326-1.158.571-2.81.857-4.959.857H20v-8.524a33.98 33.98 0 0 1 2.264-.07z" style="font-size:34.2857132px;line-height:1.25;letter-spacing:0;word-spacing:0;opacity:.2"/><g style="font-size:34.2857132px;line-height:1.25;letter-spacing:0;word-spacing:0"><path style="fill:#f4f4f7" d="M21.945 12c-1.063 0-2.232.045-3.508.137a21.532 21.532 0 0 0-3.437.445V36h5v-7.966h1.697c1.796 0 3.39-.148 4.783-.445 1.394-.297 2.575-.756 3.543-1.373.969-.64 1.702-1.45 2.198-2.434.52-1.005.779-2.205.779-3.6 0-2.673-.956-5.04-2.87-6.297C28.242 12.628 25.513 12 21.946 12zm.319 3.736c.85 0 1.642.07 2.375.207.756.115 1.404.32 1.947.618.543.297.968.708 1.275 1.234.307.526.461 1.575.461 2.353 0 1.622-.579 2.732-1.736 3.326-1.158.571-2.81.857-4.959.857H20v-8.524a33.98 33.98 0 0 1 2.264-.07z"/></g></svg>