<svg height="48" width="48" xmlns="http://www.w3.org/2000/svg">
    <circle cx="24" cy="25" opacity=".2" r="20"/>
    <circle cx="24" cy="24" fill="#235b92" r="20"/>
    <path d="M24 4A20 20 0 0 0 4 24a20 20 0 0 0 .021.582A20 20 0 0 1 24 5a20 20 0 0 1 19.979 19.418A20 20 0 0 0 44 24 20 20 0 0 0 24 4z" fill="#f4f4f7" opacity=".1"/>
    <path d="M21.143 12.33a13 13 0 0 0-4.944 2.302L16 15c1.323-.86 3.417-.773 4.986-.938zm5.714.006.282 3.1a10 10 0 0 1 4.627 6.464l4.984.586a13 13 0 0 0-9.893-10.15zm-14.101 6.191a13 13 0 0 0-1.498 3.957l.887-.103c.005-1.507.61-3.854.61-3.854z" opacity=".2"/>
    <path d="M21.143 11.33a13 13 0 0 0-4.944 2.303L16 14c1.323-.86 3.417-.772 4.986-.938zm5.714.006.282 3.1a10 10 0 0 1 4.627 6.464l4.984.586a13 13 0 0 0-9.893-10.15zm-14.101 6.191a13 13 0 0 0-1.498 3.957l.887-.103c.005-1.507.61-3.854.61-3.854z" fill="#f4f4f7"/>
    <path d="M11.25 26.514a13 13 0 0 0 9.893 10.15l-.34-3.744a10 10 0 0 1-8.096-6.234zm25.492.002-5.67.666a10 10 0 0 1-3.74 4.273l-.475 5.215a13 13 0 0 0 9.885-10.154z" fill="#363636"/>
    <path d="m24 3-2 20-15 2 15 2 2 20 2-20 15-2-15-2z" opacity=".2"/>
    <path d="m24 2-2 20-15 2 15 2 2 20 2-20 15-2-15-2z" fill="#f75151"/>
    <path d="M11.25 26.514c.07.349.156.69.252 1.029l1.205.143a10 10 0 0 0 8.096 6.234l.246 2.719c.032.007.062.018.094.025l-.34-3.744a10 10 0 0 1-8.096-6.234zm25.492.002-5.67.666a10 10 0 0 1-3.74 4.273l-.475 5.215c.032-.007.063-.018.094-.025l.381-4.19a10 10 0 0 0 3.74-4.273l5.418-.637c.096-.338.183-.68.252-1.03z" opacity=".1"/>
</svg>
