<svg width="48" height="48" xmlns="http://www.w3.org/2000/svg"><rect x="4" y="5" width="40" height="40" rx="2" ry="2" style="opacity:.2"/><rect x="4" y="4" width="40" height="40" rx="2" ry="2" style="fill:#222b76"/><path d="M6 4c-1.108 0-2 .892-2 2v1c0-1.108.892-2 2-2h36c1.108 0 2 .892 2 2V6c0-1.108-.892-2-2-2z" style="fill:#f4f4f7;opacity:.1"/><path d="M15 10v6H9v12h6v-6h18v6h6V16h-6v-6h-6v6h-6v-6zm18 18H15v6h18zm0 6v6h6v-6zm-18 0H9v6h6z" style="opacity:.2"/><path d="M15 9v6H9v12h6v-6h18v6h6V15h-6V9h-6v6h-6V9zm18 18H15v6h18zm0 6v6h6v-6zm-18 0H9v6h6z" style="fill:#cfd3db"/></svg>