<svg xmlns="http://www.w3.org/2000/svg" width="48" height="48" version="1"><path style="opacity:.2" d="M6 5h36c1.108 0 2 .892 2 2v29.307l-2.224 4.54c-.487.996-1.025 1.474-2 2L35.796 45H6c-1.108 0-2-.892-2-2V7c0-1.108.892-2 2-2z"/><path style="fill:#666" d="M42 44c1.108 0 2-.892 2-2V24H23v20z"/><path style="fill:#8c8c8c" d="M6 44c-1.108 0-2-.892-2-2V23h20v21z"/><path style="fill:#a6a6a6" d="M4 24V6c0-1.108.892-2 2-2h19v20z"/><path style="fill:#595959" d="M24 4v20h20V6c0-1.108-.892-2-2-2z"/><path style="opacity:.2;fill:#f4f4f7" d="M6 4c-1.108 0-2 .892-2 2v1c0-1.108.892-2 2-2h36c1.108 0 2 .892 2 2V6c0-1.108-.892-2-2-2z"/><circle style="opacity:.2" cx="35" cy="36" r="12"/><circle style="fill:#07ce8e" cx="35" cy="35" r="12"/><path style="fill:#f4f4f7" d="M31 32v2h8v-2zm0 4v2h8v-2z"/><path style="opacity:.2" d="M14 12v3h-3v2h3v3h2v-3h3v-2h-3v-3zm17 3v2h8v-2zM11 30.586 9.586 32l.707.707L12.586 35l-2.293 2.293-.707.707L11 39.414l.707-.707L14 36.414l2.293 2.293.707.707L18.414 38l-.707-.707L15.414 35l2.293-2.293.707-.707L17 30.586l-.707.707L14 33.586l-2.293-2.293z"/><path style="fill:#f4f4f7" d="M14 11v3h-3v2h3v3h2v-3h3v-2h-3v-3h-2zm17 3v2h8v-2h-8zM11 29.586 9.586 31l.707.707L12.586 34l-2.293 2.293-.707.707L11 38.414l.707-.707L14 35.414l2.293 2.293.707.707L18.414 37l-.707-.707L15.414 34l2.293-2.293.707-.707L17 29.586l-.707.707L14 32.586l-2.293-2.293-.707-.707z"/></svg>