<svg height="48" width="48" xmlns="http://www.w3.org/2000/svg">
    <path d="M2 10v5h2v20H2v4h44v-4h-2V15h2v-5h-2v3h-3v-3h-2v3h-3v-3h-2v5h2v10h-8v-5h2v-5h-2v3h-3v-3h-2v3h-3v-3h-2v5h2v5h-8V15h2v-5h-2v3H9v-3H7v3H4v-3z" opacity=".2"/>
    <path d="M4 24v10H2v4h44v-4h-2V24z" fill="#cf2619"/>
    <path d="M2 9v5h2v20h8V14h2V9h-2v3H9V9H7v3H4V9zm32 0v5h2v20h8V14h2V9h-2v3h-3V9h-2v3h-3V9zm-16 5v5h2v15h8V19h2v-5h-2v3h-3v-3h-2v3h-3v-3z" fill="#f44336"/>
    <path d="M7 17v7h2v-7zm32 0v7h2v-7zM7 27v7h2v-7zm7 0v5h2v-5zm9 0v1h-1v7h4v-7h-1v-1zm9 0v5h2v-5zm7 0v7h2v-7z" opacity=".2"/>
    <g fill="#f4f4f7">
        <path d="M23 26v1h-1v7h4v-7h-1v-1zM7 16h2v7H7zm0 10h2v7H7zm7 0h2v5h-2z"/>
        <path d="M2 9v1h2V9zm5 0v1h2V9zm5 0v1h2V9zm22 0v1h2V9zm5 0v1h2V9zm5 0v1h2V9zM4 12v1h3v-1zm5 0v1h3v-1zm27 0v1h3v-1zm5 0v1h3v-1zm-23 2v1h2v-1zm5 0v1h2v-1zm5 0v1h2v-1zm-8 3v1h3v-1zm5 0v1h3v-1z" opacity=".2"/>
        <path d="M12 24v1h8v-1zm16 0v1h8v-1zM2 34v1h2v-1zm42 0v1h2v-1z" opacity=".1"/>
        <path d="M41 16h-2v7h2zm0 10h-2v7h2zm-7 0h-2v5h2z"/>
    </g>
</svg>
