<svg xmlns="http://www.w3.org/2000/svg" width="48" height="48" version="1"><rect fill="#d2d2d2" width="40" height="40" x="4" y="4" rx="2" ry="2"/><path fill="#fff" opacity=".2" d="M6 4c-1.108 0-2 .892-2 2v1c0-1.108.892-2 2-2h36c1.108 0 2 .892 2 2V6c0-1.108-.892-2-2-2H6z"/><path opacity=".2" d="M6 45c-1.108 0-2-.892-2-2v-1c0 1.108.892 2 2 2h36c1.108 0 2-.892 2-2v1c0 1.108-.892 2-2 2H6z"/><path fill="none" stroke="#4d4d4d" stroke-linecap="round" stroke-linejoin="round" stroke-width="1.038" d="m11.526 11.39 5.492.033 3.1 3.126v8.336M24.623 22.886V14.55l-3.1-3.126M28.382 22.886V14.55l-3.1-3.126M32.515 22.886V11.424" display="block"/><path fill="none" stroke="#4d4d4d" stroke-linecap="round" stroke-linejoin="round" stroke-width="2.075" d="M20.117 22.886v2.084M24.25 22.886v2.084M28.382 22.886v2.084M32.515 22.886v2.084M32.515 30.18v2.084M28.382 30.18v2.084M24.25 30.18v2.084M20.117 30.18v2.084" display="block"/><path fill="none" stroke="#4d4d4d" stroke-linecap="round" stroke-linejoin="round" stroke-width="1.038" d="M20.117 32.264v3.126l-2.066 2.084h-6.199M24.519 32.264v5.21M28.382 32.264v3.126l2.066 2.084h6.199M32.515 32.264l2.066 2.084h2.066" display="block"/><path fill="#4d4d4d" stroke="#4d4d4d" stroke-linecap="round" stroke-linejoin="round" stroke-width="1.096" d="M9.548 13.548h4.603l2.301 2.086V34.41l-1.15 1.043H9.548V13.548z" display="block"/><rect fill="none" stroke="#4d4d4d" stroke-linecap="round" stroke-linejoin="round" stroke-width="1.038" width="16.53" height="13.546" x="18.05" y="20.8" ry="2.113" display="block"/><circle opacity=".2" cx="36" cy="37" r="11"/><circle fill="#c03630" cx="36" cy="36" r="11"/><path fill="#fff" fill-rule="evenodd" d="M36 31c-1.55.015-3.112.37-4.463 1.135-.538.35-1.185.804-1.672 1.26-.766.75-1.422 1.626-1.865 2.606 1.215 2.68 3.886 4.644 6.824 4.935 1.928.218 3.945-.115 5.639-1.069.538-.35 1.185-.804 1.672-1.26.766-.75 1.422-1.626 1.865-2.606-1.215-2.68-3.886-4.645-6.824-4.935-.39-.045-.783-.066-1.176-.066zm0 2c1.607-.035 3.03 1.402 3 3.001.051 1.767-1.709 3.292-3.45 2.962-1.757-.207-2.991-2.179-2.413-3.849.369-1.23 1.576-2.129 2.863-2.114zm0 2a1 1 0 0 0-1 1.001 1 1 0 0 0 1 1 1 1 0 0 0 1-1 1 1 0 0 0-1-.999z"/></svg>