<svg xmlns="http://www.w3.org/2000/svg" width="48" height="48" version="1">
    <path style="opacity:.2" d="M24 4c-1.1 0-2.201.41-3.024 1.232L4.232 21.978c-1.644 1.645-1.642 4.397.003 6.042l16.744 16.745c1.644 1.645 4.399 1.647 6.044.003l16.744-16.746c1.644-1.645 1.644-4.4 0-6.044L27.023 5.232A4.263 4.263 0 0 0 23.999 4z"/>
    <path style="fill:#e3b56f" d="M24 3c-1.1 0-2.201.41-3.024 1.232L4.232 20.978c-1.644 1.645-1.642 4.397.003 6.042l16.744 16.745c1.644 1.645 4.399 1.647 6.044.003l16.744-16.746c1.644-1.645 1.644-4.4 0-6.044L27.023 4.232A4.263 4.263 0 0 0 23.999 3z"/>
    <path style="opacity:.5;fill:#f4f4f7" d="m18.02 7.191-2.83 2.829L21 15.828V30h4V19.828l4.586 4.586 2.828-2.828z"/>
    <path style="opacity:.2" d="M23 12a4 4 0 0 0-4 4 4 4 0 0 0 4 4 4 4 0 0 0 4-4 4 4 0 0 0-4-4zm8 8a4 4 0 0 0-4 4 4 4 0 0 0 4 4 4 4 0 0 0 4-4 4 4 0 0 0-4-4zm-8 7a4 4 0 0 0-4 4 4 4 0 0 0 4 4 4 4 0 0 0 4-4 4 4 0 0 0-4-4z"/>
    <path style="fill:#f4f4f7" d="M23 11a4 4 0 0 0-4 4 4 4 0 0 0 4 4 4 4 0 0 0 4-4 4 4 0 0 0-4-4zm8 8a4 4 0 0 0-4 4 4 4 0 0 0 4 4 4 4 0 0 0 4-4 4 4 0 0 0-4-4zm-8 7a4 4 0 0 0-4 4 4 4 0 0 0 4 4 4 4 0 0 0 4-4 4 4 0 0 0-4-4z"/>
    <path style="opacity:.2;fill:#f4f4f7" d="M24 3c-1.1 0-2.201.41-3.023 1.232L4.232 20.98c-.946.946-1.328 2.256-1.185 3.513.107-.924.49-1.818 1.185-2.513L20.977 5.232A4.264 4.264 0 0 1 24 4c1.1 0 2.201.41 3.023 1.232L43.766 21.98c.697.696 1.08 1.594 1.187 2.521.145-1.26-.24-2.574-1.187-3.521L27.023 4.232A4.264 4.264 0 0 0 24 3z"/>
</svg>
