<svg xmlns="http://www.w3.org/2000/svg" width="48" height="48" version="1"><path style="opacity:.2" d="M40.889 7.004c-.981.039-1.974.39-2.92.947a.456.456 0 0 0-.168.613l1.515 2.727-6.935 4.205a.815.815 0 0 0-.287 1.068l.58 1.055c.2.365.669.492 1.025.276l6.947-4.211 1.711 3.08a.456.456 0 0 0 .577.2c1.463-.619 2.459-1.708 2.86-3.007.403-1.299.213-2.786-.58-4.195-.883-1.572-2.063-2.448-3.35-2.69a4.341 4.341 0 0 0-.975-.068zM8 8c-2.756 0-5 2.244-5 5s2.244 5 5 5 5-2.244 5-5-2.244-5-5-5zm10 2.979c-1.091 0-2 .903-2 2.011S16.909 15 18 15s2-.902 2-2.01a2.016 2.016 0 0 0-2-2.011zm10 0c-1.091 0-2 .903-2 2.011S26.909 15 28 15s2-.902 2-2.01a2.016 2.016 0 0 0-2-2.011zM8 20c-2.756 0-5 2.244-5 5s2.244 5 5 5 5-2.244 5-5-2.244-5-5-5zm5 5c0 2.756 2.244 5 5 5s5-2.244 5-5-2.244-5-5-5-5 2.244-5 5zm10 0c0 2.756 2.244 5 5 5s5-2.244 5-5-2.244-5-5-5-5 2.244-5 5zm10 0c0 2.756 2.244 5 5 5s5-2.244 5-5-2.244-5-5-5-5 2.244-5 5zM8 32c-2.756 0-5 2.244-5 5s2.244 5 5 5 5-2.244 5-5-2.244-5-5-5zm5 5c0 2.756 2.244 5 5 5s5-2.244 5-5-2.244-5-5-5-5 2.244-5 5zm10 0c0 2.756 2.244 5 5 5s5-2.244 5-5-2.244-5-5-5-5 2.244-5 5zm10 0c0 2.756 2.244 5 5 5s5-2.244 5-5-2.244-5-5-5-5 2.244-5 5z"/><path style="fill:#ab47bc" d="M40.946 10.199a.735.735 0 0 0-1.024-.275l-7.541 4.572a.816.816 0 0 0-.287 1.068l.58 1.056c.202.365.669.49 1.025.274l7.542-4.572a.814.814 0 0 0 .285-1.068z"/><path style="fill:#ab47bc" d="M41.864 6.073c-1.288-.242-2.633.135-3.895.877a.456.456 0 0 0-.168.614l4.556 8.2a.456.456 0 0 0 .577.2c1.463-.62 2.46-1.71 2.861-3.008.402-1.298.212-2.785-.58-4.194-.883-1.572-2.063-2.447-3.35-2.69z"/><path style="fill:#6d6f69" d="M18 9.98c-1.091 0-2 .902-2 2.01 0 1.108.909 2.01 2 2.01s2-.902 2-2.01c0-1.108-.909-2.01-2-2.01z"/><path style="fill:#3f51b5" d="M8 19c-2.756 0-5 2.244-5 5s2.244 5 5 5 5-2.244 5-5-2.244-5-5-5z"/><path style="fill:#ab47bc" d="M18 19c-2.756 0-5 2.244-5 5s2.244 5 5 5 5-2.244 5-5-2.244-5-5-5z"/><path style="fill:#795548" d="M28 31c-2.756 0-5 2.244-5 5s2.244 5 5 5 5-2.244 5-5-2.244-5-5-5z"/><path style="fill:#ffc107" d="M38 19c-2.756 0-5 2.244-5 5s2.244 5 5 5 5-2.244 5-5-2.244-5-5-5z"/><path style="fill:#795548" d="M8 31c-2.756 0-5 2.244-5 5s2.244 5 5 5 5-2.244 5-5-2.244-5-5-5z"/><path style="fill:#f44336" d="M28 19c-2.756 0-5 2.244-5 5s2.244 5 5 5 5-2.244 5-5-2.244-5-5-5z"/><path style="fill:#4caf50" d="M38 31c-2.756 0-5 2.244-5 5s2.244 5 5 5 5-2.244 5-5-2.244-5-5-5z"/><path style="fill:#3f51b5" d="M18 31c-2.756 0-5 2.244-5 5s2.244 5 5 5 5-2.244 5-5-2.244-5-5-5z"/><path style="fill:#4caf50" d="M8 7c-2.756 0-5 2.244-5 5s2.244 5 5 5 5-2.244 5-5-2.244-5-5-5z"/><path style="fill:#6d6f69" d="M28 9.98c-1.091 0-2 .902-2 2.01 0 1.108.909 2.01 2 2.01s2-.902 2-2.01c0-1.108-.909-2.01-2-2.01z"/><path style="opacity:.1;fill:#f4f4f7" d="M40.889 6.004c-.981.039-1.974.39-2.92.947a.456.456 0 0 0-.168.613l.205.368c.935-.545 1.914-.89 2.883-.928.327-.013.652.008.974.068 1.288.242 2.468 1.118 3.352 2.69.43.764.675 1.55.752 2.318.112-1.07-.133-2.217-.752-3.318-.884-1.572-2.064-2.448-3.352-2.69a4.341 4.341 0 0 0-.974-.068zM8 7a5.007 5.007 0 0 0-4.975 5.49A5.01 5.01 0 0 1 8 8a5.01 5.01 0 0 1 4.975 4.49A5.007 5.007 0 0 0 8 7zm10 2.979c-1.091 0-2 .903-2 2.011 0 .174.028.34.07.5.225-.866 1.01-1.511 1.93-1.511.92 0 1.705.645 1.93 1.511.042-.16.07-.326.07-.5a2.016 2.016 0 0 0-2-2.011zm10 0c-1.091 0-2 .903-2 2.011 0 .174.028.34.07.5.225-.866 1.01-1.511 1.93-1.511.92 0 1.705.645 1.93 1.511.042-.16.07-.326.07-.5a2.016 2.016 0 0 0-2-2.011zm10.9.564-6.52 3.953a.815.815 0 0 0-.286 1.068l.072.131a.764.764 0 0 1 .215-.199l6.935-4.205-.416-.748zM8 19a5.007 5.007 0 0 0-4.975 5.49A5.01 5.01 0 0 1 8 20a5.01 5.01 0 0 1 4.975 4.49A5.007 5.007 0 0 0 8 19zm5 5c0 .166.01.329.025.49A5.01 5.01 0 0 1 18 20a5.01 5.01 0 0 1 4.975 4.49A5.007 5.007 0 0 0 18 19c-2.756 0-5 2.244-5 5zm10 0c0 .166.01.329.025.49A5.01 5.01 0 0 1 28 20a5.01 5.01 0 0 1 4.975 4.49A5.007 5.007 0 0 0 28 19c-2.756 0-5 2.244-5 5zm10 0c0 .166.01.329.025.49A5.01 5.01 0 0 1 38 20a5.01 5.01 0 0 1 4.975 4.49A5.007 5.007 0 0 0 38 19c-2.756 0-5 2.244-5 5zM8 31a5.007 5.007 0 0 0-4.975 5.49A5.01 5.01 0 0 1 8 32a5.01 5.01 0 0 1 4.975 4.49A5.007 5.007 0 0 0 8 31zm5 5c0 .166.01.329.025.49A5.01 5.01 0 0 1 18 32a5.01 5.01 0 0 1 4.975 4.49A5.007 5.007 0 0 0 18 31c-2.756 0-5 2.244-5 5zm10 0c0 .166.01.329.025.49A5.01 5.01 0 0 1 28 32a5.01 5.01 0 0 1 4.975 4.49A5.007 5.007 0 0 0 28 31c-2.756 0-5 2.244-5 5zm10 0c0 .166.01.329.025.49A5.01 5.01 0 0 1 38 32a5.01 5.01 0 0 1 4.975 4.49A5.007 5.007 0 0 0 38 31c-2.756 0-5 2.244-5 5z"/></svg>