<svg xmlns="http://www.w3.org/2000/svg" width="48" height="48" version="1"><path fill="#4bae4f" d="M40 42V6c0-1.108-.892-2-2-2H10c-1.108 0-2 .892-2 2v36c0 1.108.892 2 2 2h28c1.108 0 2-.892 2-2z"/><path opacity=".2" d="M15 32h18V18H15zm2-12h6v2h-6zm8 0h6v2h-6zm-8 4h6v2h-6zm8 0h6v2h-6zm-8 4h6v2h-6zm8 0h6v2h-6z"/><path fill="#ffff84" d="M15 31h18V17H15zm2-12h6v2h-6zm8 0h6v2h-6zm-8 4h6v2h-6zm8 0h6v2h-6zm-8 4h6v2h-6zm8 0h6v2h-6z"/><path fill="#fff" opacity=".1" d="M10 4c-1.108 0-2 .892-2 2v1c0-1.108.892-2 2-2h28c1.108 0 2 .892 2 2V6c0-1.108-.892-2-2-2z"/><path opacity=".2" d="M8 42v1c0 1.108.892 2 2 2h28c1.108 0 2-.892 2-2v-1c0 1.108-.892 2-2 2H10c-1.108 0-2-.892-2-2z"/></svg>