<svg xmlns="http://www.w3.org/2000/svg" width="48" height="48" version="1"><path style="opacity:.2" d="m15.003 5-.006 3.8b9cbeL6 15.52l1.748 3.538 4.274-1.367a3.573 3.573 0 0 0 2.81 1.374c1.882-.002 3.08-1.575 3.213-3.474v-.001 3.468c-.003 1.725-.194 3.358-1.853 3.753-1.481.353-1.952-.106-3.731.628-2.704 1.115-4.47 3.153-4.47 6.108L11 35h14l4-5.378V18.463c0-5.913-4.737-10.426-10.58-10.426l-.188.01c.01-.294-.018-.086-.082-.372-.354-1.563-1.562-2.672-3.147-2.675z"/><path style="fill:#5e576c" d="m15.003 4-.006 3.8b9cbeL6 14.52l1.748 3.538 4.274-1.367a3.573 3.573 0 0 0 2.81 1.374c1.882-.002 3.08-1.575 3.213-3.474v-.001 3.468c-.003 1.725-.194 3.358-1.853 3.753-1.481.353-1.952-.106-3.731.628-2.704 1.115-4.47 3.153-4.47 6.108L11 34h14l4-5.378V17.463c0-5.913-4.737-10.426-10.58-10.426l-.188.01c.01-.294-.018-.086-.082-.372-.354-1.563-1.562-2.672-3.147-2.675z"/><path style="fill:#f4f4f7;opacity:.1" d="m15.004 4-.008 3.445L6 14.52l.355.72 8.641-6.795L15.004 5c1.585.003 2.792 1.111 3.146 2.674.064.286.092.08.082.373l.188-.01C24.263 8.037 29 12.55 29 18.463v-1c0-5.913-4.737-10.426-10.58-10.426l-.188.01c.01-.293-.018-.087-.082-.373C17.796 5.11 16.59 4.003 15.004 4zm3.04 14.057c-.002 1.725-.193 3.358-1.853 3.754-1.48.353-1.95-.107-3.73.627-2.704 1.115-4.47 3.154-4.47 6.109l.068.123c.318-2.482 1.976-4.232 4.402-5.233 1.78-.733 2.25-.273 3.73-.626 1.66-.396 1.851-2.029 1.854-3.754v-1z"/><path style="opacity:.2" d="M10.053 34C8.627 34 7 35.73 7 37h23c0-1.27-1.627-3-3.053-3z"/><path style="fill:#756a89" d="M10.053 33C8.627 33 7 34.73 7 36h23c0-1.27-1.627-3-3.053-3z"/><path style="fill:#f4f4f7;opacity:.1" d="M10.053 33C8.626 33 7 34.704 7 35.975h.277C7.801 34.959 8.982 34 10.053 34h16.894c1.072 0 2.254.976 2.778 2H30c0-1.27-1.626-3-3.053-3H10.053z"/><path style="fill:#ccc" d="m32 27-8 16h16z"/><path style="opacity:.2" d="M24.655 42C23.415 42 22 43.73 22 45h20c0-1.27-1.414-3-2.655-3z"/><path style="fill:#f4f4f7" d="M24.655 41C23.415 41 22 42.73 22 44h20c0-1.27-1.414-3-2.655-3z"/><circle style="opacity:.2" cx="32" cy="25" r="7"/><circle style="fill:#f4f4f7" cx="32" cy="24" r="7"/><path style="fill:#f4f4f7;opacity:.2" d="M24.654 41C23.414 41 22 42.704 22 43.975h.24C22.696 42.959 23.723 42 24.654 42h14.692c.931 0 1.96.976 2.416 2H42c0-1.27-1.414-3-2.654-3H24.654z"/><path style="opacity:.2;fill:#f4f4f7" d="M32 17a7 7 0 0 0-7 7 7 7 0 0 0 .023.541A7 7 0 0 1 32 18a7 7 0 0 1 6.977 6.459A7 7 0 0 0 39 24a7 7 0 0 0-7-7z"/></svg>