<svg height="48" width="48" xmlns="http://www.w3.org/2000/svg"><path d="m23 5c-6.094 0-11 5.406-11 11.5v3.5h4v-3.5c0-3.947 3.053-7.5 7-7.5h2c3.947 0 7 3.553 7 7.5v3.5h4v-3.5c0-6.094-4.906-11.5-11-11.5z" opacity=".2"/><path d="m23 4c-6.094 0-11 5.406-11 11.5v4.5h4v-4.5c0-3.947 3.053-7.5 7-7.5h2c3.947 0 7 3.553 7 7.5v4.5h4v-4.5c0-6.094-4.906-11.5-11-11.5z" fill="#d2d2d2"/><path d="m8 42v1c0 1.108.892 2 2 2h28c1.108 0 2-.892 2-2v-1c0 1.108-.892 2-2 2h-28c-1.108 0-2-.892-2-2z" opacity=".2"/><rect fill="#ffb437" height="24" rx="2" width="32" x="8" y="20"/><path d="m10 20c-1.108 0-2 .892-2 2v1c0-1.108.892-2 2-2h28c1.108 0 2 .892 2 2v-1c0-1.108-.892-2-2-2z" fill="#f4f4f7" opacity=".2"/><path d="m8 24h32v14h-32z" fill="#fed96a"/><path d="m23 4c-6.094 0-11 5.406-11 11.5v1c0-6.094 4.906-11.5 11-11.5h2c6.094 0 11 5.406 11 11.5v-1c0-6.094-4.906-11.5-11-11.5z" fill="#f4f4f7" opacity=".2"/></svg>