<svg enable-background="new" height="64" width="64" xmlns="http://www.w3.org/2000/svg">
    <filter id="a" color-interpolation-filters="sRGB" height="1.054" width="1.054" x="-.027" y="-.027">
        <feGaussianBlur stdDeviation=".619"/>
    </filter>
    <linearGradient id="b" gradientUnits="userSpaceOnUse" x1="4.5" x2="59.5" y1="59.49" y2="4.49">
        <stop offset="0" stop-color="#e41162"/>
        <stop offset="1" stop-color="#ff4f93"/>
    </linearGradient>
    <rect fill="#141414" filter="url(#a)" height="55" opacity=".3" ry="15" width="55" x="4.5" y="4.5"/>
    <rect fill="url(#b)" height="55" ry="15" width="55" x="4.5" y="4.5"/>
    <path d="m41.179 18.325-.921 4.448c-.106.474-.553.895-1.106.895h-8.001a1.64 1.64 0 0 0-1.632 1.632v.974a1.64 1.64 0 0 0 1.632 1.632h6.764c.632 0 1.158.605 1.027 1.263-.132.684-.843 4.159-.922 4.527-.052.395-.473.895-1.105.895h-5.527c-1.158.026-1.395.053-2.08.895-.684.842-6.737 8.422-6.737 8.422-.053.08-.106.053-.106-.026V18.115c0-.606.5-1.106 1.106-1.106h16.608c.579 0 1.158.58 1 1.316m1.21-5.553H21.886c-2.817 0-3.659 2.132-3.659 3.474v32.583c0 1.605.816 2.079 1.263 2.263.448.184 1.632.316 2.474-.526l9.897-11.528c.158-.184.237-.184.342-.184h6.159c2.632 0 3.132-1.817 3.421-2.922.237-.921 2.948-14.08 3.79-18.24.632-3.21-.184-4.921-3.185-4.921" fill="#fff"/>
</svg>
