<svg xmlns="http://www.w3.org/2000/svg" width="48" height="48" version="1"><path style="fill:#6655e4" d="M24 4H6c-1.108 0-2 .892-2 2v18h20z"/><path style="fill:#21d789" d="M24 4h18c1.108 0 2 .892 2 2v18H24z"/><path style="fill:#2086e7" d="M24 44H6c-1.108 0-2-.892-2-2V24h20z"/><path style="fill:#6655e4" d="M24 44h18c1.108 0 2-.892 2-2V24H24z"/><path fill="#fff" opacity=".2" d="M6 4c-1.108 0-2 .892-2 2v1c0-1.108.892-2 2-2h36c1.108 0 2 .892 2 2V6c0-1.108-.892-2-2-2H6z"/><path opacity=".2" d="M6 45c-1.108 0-2-.892-2-2v-1c0 1.108.892 2 2 2h36c1.108 0 2-.892 2-2v1c0 1.108-.892 2-2 2H6z"/><path style="fill:#17191e" d="M10 10h28v28H10z"/><path style="opacity:.2;fill:none;stroke:#000;stroke-width:2;stroke-linecap:round" d="M16 33h8"/><path style="fill:none;stroke:#f4f4f7;stroke-width:2;stroke-linecap:round" d="M16 32h8"/><path style="opacity:.2;fill:none;stroke:#000;stroke-width:1.99999988;stroke-linecap:round;stroke-linejoin:bevel" d="M19 22h2m-1 0s.49 3-2 3c-2 0-2-2-2-4s0-4 2-4 1.992 1 1.992 1"/><path style="fill:none;stroke:#f4f4f7;stroke-width:1.99999988;stroke-linecap:round;stroke-linejoin:bevel" d="M19 21h2m-1 0s.49 3-2 3c-2 0-2-2-2-4s0-4 2-4 1.992 1 1.992 1"/><path style="opacity:.2;fill-rule:evenodd" d="M26 16c-1.662 0-3 1.338-3 3v4c0 1.662 1.338 3 3 3s3-1.338 3-3v-4c0-1.662-1.338-3-3-3zm0 2c.554 0 1 0 1 1.799V22.2C27 24 26.554 24 26 24s-1 0-1-1.799V19.8C25 18 25.446 18 26 18z"/><path style="fill:#f4f4f7;fill-rule:evenodd" d="M26 15c-1.662 0-3 1.338-3 3v4c0 1.662 1.338 3 3 3s3-1.338 3-3v-4c0-1.662-1.338-3-3-3zm0 2c.554 0 1 0 1 1.799V21.2C27 23 26.554 23 26 23s-1 0-1-1.799V18.8C25 17 25.446 17 26 17z"/></svg>