<svg height="64" viewBox="0 0 16.933 16.933" width="64" xmlns="http://www.w3.org/2000/svg">
    <filter id="a" color-interpolation-filters="sRGB" height="1.054" width="1.054" x="-.027" y="-.027">
        <feGaussianBlur stdDeviation=".619"/>
    </filter>
    <linearGradient id="b" gradientUnits="userSpaceOnUse" x1="14.316" x2="28.868" y1="22.453" y2="7.901">
        <stop offset="0" stop-color="#fad21e"/>
        <stop offset="1" stop-color="#faeb1e" stop-opacity=".996"/>
    </linearGradient>
    <linearGradient id="c" gradientUnits="userSpaceOnUse" x1="13.924" x2="13.924" y1="10.248" y2="24.438">
        <stop offset="0" stop-color="#35c130"/>
        <stop offset=".348" stop-color="#34bd30"/>
        <stop offset=".681" stop-color="#31b231"/>
        <stop offset="1" stop-color="#2c9f32"/>
    </linearGradient>
    <linearGradient id="d" gradientUnits="userSpaceOnUse" x1="23.084" x2="23.084" y1="10.822" y2="24.097">
        <stop offset="0" stop-color="#ffce00"/>
        <stop offset="1" stop-color="#e6bc00"/>
    </linearGradient>
    <linearGradient id="e" gradientUnits="userSpaceOnUse" x1="21.354" x2="21.354" y1="5.086" y2="25.354">
        <stop offset="0" stop-color="#f6503b"/>
        <stop offset=".217" stop-color="#f24735"/>
        <stop offset=".572" stop-color="#e62f25"/>
        <stop offset="1" stop-color="#d4090d"/>
    </linearGradient>
    <filter id="f" color-interpolation-filters="sRGB" height="1.072" width="1.072" x="-.036" y="-.036">
        <feGaussianBlur stdDeviation="6.51"/>
    </filter>
    <linearGradient id="g" gradientUnits="userSpaceOnUse" x1="21.759" x2="21.759" y1="10.7" y2="19.718">
        <stop offset="0" stop-color="#fff"/>
        <stop offset="1" stop-color="#d7d7d7"/>
    </linearGradient>
    <linearGradient id="h" gradientUnits="userSpaceOnUse" x1="21.466" x2="21.466" y1="11.864" y2="18.5">
        <stop offset="0" stop-color="#47b9ff"/>
        <stop offset="1" stop-color="#3d8aff"/>
    </linearGradient>
    <g transform="translate(-13.126 -6.713)">
        <rect fill="#141414" filter="url(#a)" height="55" opacity=".3" ry="15" transform="translate(13.126 6.713) scale(.26458)" width="55" x="4.5" y="4.5"/>
        <rect fill="url(#b)" height="14.552" ry="3.969" width="14.552" x="14.317" y="7.904"/>
        <g stroke-width=".309">
            <path d="M19.351 7.904c-.667 0-1.239.019-1.744.061a3.955 3.955 0 0 0-3.202 3.076c-.066.622-.088 1.365-.088 2.25v3.777c0 .886.022 1.628.088 2.251a3.955 3.955 0 0 0 3.202 3.075 20.92 20.92 0 0 0 1.744.062h4.483c.668 0 1.239-.02 1.744-.062a3.955 3.955 0 0 0 3.203-3.075c.065-.623.088-1.365.088-2.251v-3.776c0-.886-.023-1.629-.088-2.251a3.955 3.955 0 0 0-3.203-3.076 20.92 20.92 0 0 0-1.744-.061z" fill="url(#c)"/>
            <path d="M26.632 8.303c-2.818.703-9.486 2.518-5.005 3.003 5.571.602 3.45 6.248 3.45 6.248l-2.915 4.902h1.672c.668 0 1.239-.02 1.744-.062a3.955 3.955 0 0 0 3.203-3.075c.065-.623.087-1.365.087-2.251v-3.776c0-.894-.024-1.638-.09-2.264a3.955 3.955 0 0 0-2.146-2.725z" fill="url(#d)"/>
            <path d="M19.351 7.904c-.647 0-1.21.015-1.703.055a3.955 3.955 0 0 0-3.239 3.062l-.01.085 3.57 6.006s-.11-3.355.167-3.688c.277-.332 1.636-1.608 1.636-1.608l1.857-.554-.1-.36 7.204-.048a3.952 3.952 0 0 0-3.199-2.895 21.47 21.47 0 0 0-1.7-.055z" fill="url(#e)"/>
        </g>
        <circle cx="512" cy="550.36" fill="#111" filter="url(#f)" opacity=".2" r="216.99" transform="translate(11.525 4.535) scale(.01968)"/>
        <g stroke-width=".309">
            <circle cx="21.602" cy="15.17" fill="url(#g)" r="4.271"/>
            <circle cx="21.602" cy="15.17" fill="url(#h)" r="3.384"/>
            <path d="M14.333 18.063c.013.459.033.886.072 1.256a3.955 3.955 0 0 0 3.203 3.075 20.92 20.92 0 0 0 1.743.061h4.484c.667 0 1.238-.019 1.743-.061a3.955 3.955 0 0 0 3.203-3.075c.039-.37.059-.797.072-1.256z" fill="#4d4d4d"/>
        </g>
        <g fill="#fff" stroke="#fff" stroke-width=".064">
            <path d="M18.758 20.301v.679h.402q.202 0 .299-.084.098-.084.098-.256 0-.174-.098-.256-.097-.083-.3-.083zm0-.762v.559h.37q.184 0 .274-.069.09-.07.09-.21 0-.14-.09-.21-.09-.07-.273-.07zm-.25-.206h.64q.286 0 .441.12.155.119.155.338 0 .17-.08.27-.079.101-.232.126.184.04.286.166.103.125.103.314 0 .248-.169.383-.168.135-.48.135h-.665zM20.25 19.333h1.171v.21h-.92v.55h.882v.21H20.5v.671h.942v.211H20.25zM21.599 19.333h1.567v.21h-.658v1.642h-.252v-1.641H21.6zM23.829 19.58l-.34.922h.681zm-.141-.247h.284l.705 1.852h-.26l-.169-.475h-.835l-.168.475h-.264z"/>
        </g>
    </g>
</svg>
