<svg height="48" width="48" xmlns="http://www.w3.org/2000/svg"><path d="m25 45c22 0 20-20 20-20s-3-20-20-20-22 19-22 19-2 21 22 21z" opacity=".2"/><path d="m25 44c22 0 20-20 20-20s-3-20-20-20-22 19-22 19-2 21 22 21z" fill="#48a040"/><path d="m25 4c-17 0-22 19-22 19s-.053.647-.03 1.668c.014-.326.03-.668.03-.668s5-19 22-19 20 20 20 20 .026.323.04.785c.024-1.101-.04-1.785-.04-1.785s-3-20-20-20z" fill="#f4f4f7" opacity=".1"/><path d="m12 9c-9 0-10 10-10 10s0 10 8 10c10 0 10-10 10-10s2-10-8-10zm27 1c-8 0-8 8-8 8s0 8 8 8 7-8 7-8-1-8-7-8z" opacity=".2"/><path d="m10 28c10 0 10-10 10-10s2-10-8-10c-9 0-10 10-10 10s0 10 8 10z" fill="#efefef"/><circle cx="9" cy="17" fill="#4f4f4f" r="2"/><path d="m39 25c-8 0-8-8-8-8s0-8 8-8c6 0 7 8 7 8s1 8-7 8z" fill="#efefef"/><circle cx="41" cy="17" fill="#4f4f4f" r="2"/><path d="m12 8c-9 0-10 10-10 10s.011.296.041.703c.205-1.441 1.736-9.703 9.959-9.703 6.765 0 8.033 4.57 8.148 7.531.118-2.77-.545-8.531-8.148-8.531zm27 1c-8 0-8 8-8 8s.01.207.035.5c.147-1.708 1.138-7.5 7.965-7.5 6 0 7 8 7 8s.014.13.025.31c.037-.78-.025-1.31-.025-1.31s-1-8-7-8z" fill="#f4f4f7" opacity=".2"/><g transform="translate(-2 -1)"><circle cx="36" cy="37" opacity=".2" r="11"/><circle cx="36" cy="36" fill="#cca955" r="11"/><path d="m34.488 29.999-.133 1.58a4.757 4.714 0 0 0 -1.39.797l-1.45-.676-1.513 2.598 1.315.906a4.757 4.714 0 0 0 -.072.795 4.757 4.714 0 0 0 .069.799l-1.314.902 1.514 2.598 1.445-.675a4.757 4.714 0 0 0 1.393.792l.133 1.585h3.027l.134-1.58a4.757 4.714 0 0 0 1.39-.797l1.45.676 1.513-2.598-1.316-.906a4.757 4.714 0 0 0 .073-.795 4.757 4.714 0 0 0 -.07-.798l1.314-.902-1.513-2.599-1.446.675a4.757 4.714 0 0 0 -1.393-.792l-.134-1.584h-3.027zm1.514 4.286a1.73 1.714 0 0 1 1.73 1.714 1.73 1.714 0 0 1 -1.73 1.714 1.73 1.714 0 0 1 -1.73-1.713 1.73 1.714 0 0 1 1.73-1.714z" fill="#f4f4f7"/></g></svg>