<svg height="48" width="48" xmlns="http://www.w3.org/2000/svg"><circle cx="24" cy="25" fill="#546e7a" opacity=".2" r="20"/><circle cx="24" cy="24" fill="#3f9142" r="20"/><circle cx="24" cy="25" opacity=".1" r="16"/><circle cx="24" cy="24" fill="#79de7d" r="16"/><path d="m34 26.788c0 3.031-.787 5.327-2.362 6.887-1.574 1.55-3.931 2.325-7.07 2.325-2.209 0-4.116-.466-5.72-1.398a9.109 9.109 0 0 1 -3.62-3.914c-.82-1.678-1.228-3.625-1.228-5.843 0-2.099.43-3.968 1.289-5.606s2.096-2.919 3.711-3.841c1.616-.932 3.487-1.398 5.614-1.398 2.341 0 4.259.574 5.751 1.722 1.505 1.147 2.552 2.335 3.135 4.278h-3.95c-.55-1-1.025-1.29-1.914-1.88-.89-.588-1.917-.883-3.083-.883-1.882 0-3.497.722-4.847 2.164-1.35 1.432-2.024 3.242-2.024 5.43 0 1.472.27 2.806.812 4.003.552 1.187 1.35 2.138 2.393 2.854 1.053.717 2.265 1.075 3.635 1.075 1.073 0 2.024-.128 2.853-.383.838-.265 1.523-.687 2.055-1.266.542-.588.828-1.28.859-2.114h-4.289v-3h8" fill="#f4f4f7" opacity=".2"/><path d="m34 25.788c0 3.031-.787 5.327-2.362 6.887-1.575 1.55-3.932 2.325-7.07 2.325-2.21 0-4.116-.466-5.722-1.398a9.109 9.109 0 0 1 -3.62-3.914c-.816-1.678-1.226-3.625-1.226-5.842 0-2.1.43-3.969 1.288-5.607s2.096-2.919 3.712-3.84c1.615-.934 3.487-1.399 5.613-1.399 2.342 0 4.259.574 5.752 1.722 1.504 1.148 2.553 2.335 3.135 4.278h-3.95c-.55-1-1.025-1.291-1.915-1.88s-1.917-.883-3.083-.883c-1.881 0-3.497.72-4.847 2.163-1.35 1.432-2.024 3.242-2.024 5.43v.001c0 1.472.27 2.806.813 4.003.552 1.187 1.35 2.139 2.392 2.855 1.053.716 2.265 1.074 3.635 1.074 1.074 0 2.025-.128 2.853-.383.839-.265 1.524-.686 2.055-1.265.542-.588.83-1.28.86-2.114h-4.289v-3h8" fill="#3f9142"/><g fill="#f4f4f7"><path d="m24 4a20 20 0 0 0 -20 20 20 20 0 0 0 .021.582 20 20 0 0 1 19.979-19.582 20 20 0 0 1 19.979 19.418 20 20 0 0 0 .02-.418 20 20 0 0 0 -19.999-20z" opacity=".1"/><path d="m24 8a16 16 0 0 0 -16 16 16 16 0 0 0 .021.58 16 16 0 0 1 15.979-15.58 16 16 0 0 1 15.979 15.42 16 16 0 0 0 .021-.42 16 16 0 0 0 -16-16z" opacity=".2"/></g></svg>