<svg height="48" width="48" xmlns="http://www.w3.org/2000/svg"><rect fill="#5d4e73" height="40" rx="2" width="40" x="4" y="4"/><path d="m31 17s-4.523 1.938-6.91 2.07c-2.858.16-5.34-1.75-8.197-1.603-3.25.167-4.893 2.92-4.893 2.92" opacity=".2"/><path d="m6 4c-1.108 0-2 .892-2 2v1c0-1.108.892-2 2-2h36c1.108 0 2 .892 2 2v-1c0-1.108-.892-2-2-2z" fill="#f4f4f7" opacity=".1"/><path d="m6 45c-1.108 0-2-.892-2-2v-1c0 1.108.892 2 2 2h36c1.108 0 2-.892 2-2v1c0 1.108-.892 2-2 2z" opacity=".2"/><path d="m15.893 16.466c2.858-.147 5.339 1.763 8.196 1.603 2.387-.133 6.911-2.069 6.911-2.069-.4 2.563-1.18 4.245-6.854 4.953-3.065.383-6.524-1.714-9.042-2.078-1.66-.24-4.104.512-4.104.512s1.643-2.754 4.893-2.92z" fill="#ff4c4c"/><path d="m25.893 22.466c2.858-.147 5.339 1.763 8.196 1.603 2.387-.133 6.911-2.069 6.911-2.069-.4 2.563-1.18 4.245-6.854 4.953-3.065.383-6.524-1.714-9.042-2.078-1.66-.24-4.104.512-4.104.512s1.643-2.754 4.893-2.92z" fill="#319831"/><path d="m11.893 28.466c2.858-.147 5.339 1.763 8.196 1.603 2.387-.133 6.911-2.069 6.911-2.069-.4 2.563-1.18 4.245-6.854 4.953-3.065.383-6.524-1.714-9.042-2.078-1.66-.24-4.104.512-4.104.512s1.643-2.754 4.893-2.92z" fill="#3b73df"/></svg>