<svg xmlns="http://www.w3.org/2000/svg" width="48" height="48" version="1"><circle style="opacity:.2" cx="24" cy="25" r="17"/><circle style="fill:#8e8e8e" cx="24" cy="24" r="17"/><path style="opacity:.1" d="M8.734 13.186a3.98 3.98 0 0 0 1.123 3.33C11.42 18.078 22.437 26.562 24 25c.216-.216.227-.625.104-1.152A.568.568 0 0 1 24 24c-1.562 1.562-12.58-6.922-14.143-8.484a3.963 3.963 0 0 1-1.123-2.33z"/><path style="fill:#ff4c4c" d="M32.485 38.142C30.923 36.58 22.438 25.562 24 24c1.562-1.562 12.58 6.923 14.142 8.485a4 4 0 0 1-5.657 5.657z"/><path style="fill:#db4cb7" d="M40 28c-2.21 0-16-1.79-16-4s13.79-4 16-4a4 4 0 1 1 0 8z"/><path style="fill:#924ab4" d="M38.142 15.515C36.58 17.077 25.562 25.562 24 24c-1.562-1.562 6.923-12.58 8.485-14.142a4 4 0 0 1 5.657 5.657z"/><path style="opacity:.1;fill:#f4f4f7" d="M35.314 8.686c-1.023 0-2.049.39-2.83 1.171-1.519 1.52-9.583 11.98-8.588 13.99.768-3.286 7.242-11.643 8.588-12.99a4.002 4.002 0 0 1 5.659 0 3.962 3.962 0 0 1 1.123 2.329 3.979 3.979 0 0 0-3.952-4.5z"/><path style="fill:#6c48b3" d="M28 8c0 2.21-1.79 16-4 16s-4-13.79-4-16a4 4 0 1 1 8 0z"/><path style="fill:#476bd7" d="M9.858 15.515C11.42 17.077 22.438 25.562 24 24c1.562-1.562-6.923-12.58-8.485-14.142a4 4 0 0 0-5.657 5.657z"/><path style="opacity:.1" d="M4.05 24.5c-.02.166-.05.329-.05.5a4 4 0 0 0 4 4c2.21 0 16-1.79 16-4 0-.17-.106-.336-.258-.5C21.923 26.472 10.04 28 8 28c-2.038 0-3.7-1.53-3.95-3.5z"/><path style="fill:#47b1b1" d="M8 28c2.21 0 16-1.79 16-4s-13.79-4-16-4a4 4 0 1 0 0 8z"/><path style="opacity:.1;fill:#f4f4f7" d="M12.686 8.686c-1.024 0-2.048.39-2.829 1.171a3.979 3.979 0 0 0-1.123 3.329c.107-.851.47-1.675 1.123-2.329a4.002 4.002 0 0 1 5.659 0c1.346 1.347 7.82 9.704 8.588 12.99.995-2.01-7.07-12.47-8.588-13.99a3.992 3.992 0 0 0-2.83-1.171z"/><path style="opacity:.1" d="M24.104 25.152c-.768 3.287-7.242 11.644-8.588 12.99a4.002 4.002 0 0 1-5.659 0 3.962 3.962 0 0 1-1.123-2.328 3.979 3.979 0 0 0 1.123 3.329 4.002 4.002 0 0 0 5.659 0c1.519-1.52 9.583-11.98 8.588-13.99z"/><path style="fill:#8bdb4c" d="M15.515 38.142C17.077 36.58 25.562 25.562 24 24c-1.562-1.562-12.58 6.923-14.142 8.485a4 4 0 0 0 5.657 5.657z"/><path style="opacity:.1" d="M20.04 40.379c-.013.204-.04.491-.04.621a4 4 0 1 0 8 0c0-.13-.027-.417-.04-.621C27.768 42.408 26.08 44 24 44s-3.767-1.592-3.96-3.621z"/><path style="opacity:.1;fill:#f4f4f7" d="M24 4a4 4 0 0 0-4 4c0 .13.027.417.04.621C20.232 6.592 21.92 5 24 5s3.767 1.592 3.96 3.621c.013-.204.04-.491.04-.621a4 4 0 0 0-4-4z"/><path style="fill:#ffdb4c" d="M28 40c0-2.21-1.79-16-4-16s-4 13.79-4 16a4 4 0 1 0 8 0z"/><path style="opacity:.1" d="M23.896 25.152c-.995 2.01 7.07 12.471 8.588 13.99a4.002 4.002 0 0 0 5.659 0 3.979 3.979 0 0 0 1.123-3.328 3.962 3.962 0 0 1-1.123 2.329 4.002 4.002 0 0 1-5.659 0c-1.346-1.347-7.82-9.704-8.588-12.99z"/><path style="fill:#ff4c4c" d="M24 24c-.728.728.75 3.518 2.668 6.44-.292-2.17-.837-4.123-1.463-5.295C24.46 24.782 24 24.398 24 24z"/><path style="opacity:.1" d="M24.258 24.5c-.152.164-.258.33-.258.5 0 2.21 13.79 4 16 4a4 4 0 0 0 4-4c0-.171-.03-.334-.05-.5C43.7 26.47 42.037 28 40 28c-2.04 0-13.923-1.528-15.742-3.5z"/><path style="fill:#db4cb7" d="M24 24c-.051.34.427.752 1.094 1.099-.301-.686-.712-1.108-1.094-1.099z"/><path style="opacity:.1" d="M39.266 13.186a3.963 3.963 0 0 1-1.123 2.33C36.58 17.078 25.563 25.562 24 24c-.043-.043.028.057 0 0-.233.241-.24.818-.052 1.295a1.049 1.049 0 0 1 .31-.795c.19.206.511.406.898.602 3.29-.772 11.64-7.24 12.987-8.586a3.98 3.98 0 0 0 1.123-3.33z"/><path style="opacity:.1" d="M19.48 16.898c-.523.22-.767.819-.546 1.342l.515 1.226a7.171 7.171 0 0 0-1.032 1.045l-1.231-.502a1.022 1.022 0 0 0-1.336.561l-.773 1.897a1.022 1.022 0 0 0 .561 1.336l1.227.5a7.171 7.171 0 0 0 .009 1.472l-1.223.514c-.523.22-.767.819-.547 1.342l.794 1.888c.22.524.819.768 1.342.547l1.226-.515a7.171 7.171 0 0 0 1.045 1.032l-.502 1.231a1.022 1.022 0 0 0 .561 1.336l1.897.773a1.022 1.022 0 0 0 1.336-.561l.5-1.227a7.171 7.171 0 0 0 1.472-.009l.514 1.223c.22.523.819.767 1.342.547l1.888-.794c.524-.22.768-.819.547-1.342l-.515-1.226a7.171 7.171 0 0 0 1.032-1.045l1.231.502a1.022 1.022 0 0 0 1.336-.561l.773-1.897a1.022 1.022 0 0 0-.561-1.336l-1.227-.5a7.171 7.171 0 0 0-.009-1.472l1.223-.514c.523-.22.767-.819.547-1.342l-.794-1.888a1.022 1.022 0 0 0-1.342-.547l-1.226.515a7.171 7.171 0 0 0-1.045-1.032l.502-1.231a1.022 1.022 0 0 0-.561-1.336l-1.897-.773a1.022 1.022 0 0 0-1.336.561l-.5 1.227a7.171 7.171 0 0 0-1.472.009l-.514-1.223a1.022 1.022 0 0 0-1.342-.547z"/><path style="fill:#4f4f4f" d="M19.48 15.898c-.523.22-.767.819-.546 1.342l.515 1.226a7.171 7.171 0 0 0-1.032 1.045l-1.231-.502a1.022 1.022 0 0 0-1.336.561l-.773 1.897a1.022 1.022 0 0 0 .561 1.336l1.227.5a7.171 7.171 0 0 0 .009 1.472l-1.223.514c-.523.22-.767.819-.547 1.342l.794 1.888c.22.524.819.768 1.342.547l1.226-.515a7.171 7.171 0 0 0 1.045 1.032l-.502 1.231a1.022 1.022 0 0 0 .561 1.336l1.897.773a1.022 1.022 0 0 0 1.336-.561l.5-1.227a7.171 7.171 0 0 0 1.472-.009l.514 1.223c.22.523.819.767 1.342.547l1.888-.794c.524-.22.768-.819.547-1.342l-.515-1.226a7.171 7.171 0 0 0 1.032-1.045l1.231.502a1.022 1.022 0 0 0 1.336-.561l.773-1.897a1.022 1.022 0 0 0-.561-1.336l-1.227-.5a7.171 7.171 0 0 0-.009-1.472l1.223-.514c.523-.22.767-.819.547-1.342l-.794-1.888a1.022 1.022 0 0 0-1.342-.547l-1.226.515a7.171 7.171 0 0 0-1.045-1.032l.502-1.231a1.022 1.022 0 0 0-.561-1.336l-1.897-.773a1.022 1.022 0 0 0-1.336.561l-.5 1.227a7.171 7.171 0 0 0-1.472.009l-.514-1.223a1.022 1.022 0 0 0-1.342-.547z"/><circle style="opacity:.2" cx="24" cy="25" r="4"/><circle style="fill:#f4f4f7" cx="24" cy="24" r="4"/></svg>