<svg height="48" width="48" xmlns="http://www.w3.org/2000/svg">
    <rect height="40" opacity=".2" rx="2" transform="matrix(0 -1 -1 0 0 0)" width="40" x="-45" y="-44"/>
    <rect fill="#dfa46d" height="40" rx="2" transform="matrix(0 -1 -1 0 0 0)" width="40" x="-44" y="-44"/>
    <path d="M20 4v16H4v8h16v16h8V28h16v-8H28V4z" opacity=".3"/>
    <path d="M6 4c-1.108 0-2 .892-2 2v1c0-1.108.892-2 2-2h36c1.108 0 2 .892 2 2V6c0-1.108-.892-2-2-2z" fill="#f4f4f7" opacity=".2"/>
    <circle cx="36" cy="37" opacity=".2" r="11"/>
    <circle cx="36" cy="36" fill="#8c45c7" r="11"/>
    <path d="M30 30v2.828L33.172 36 30 39.172V42h2.828L36 38.828 39.172 42H42v-2.828L38.828 36 42 32.828V30h-2.828L36 33.172 32.828 30z" fill="#f4f4f7"/>
</svg>
