<svg xmlns="http://www.w3.org/2000/svg" width="48" height="48" version="1"><path style="fill:#f9f9f9" d="M3.395 26.6s13.498 7.73 24.864 3.495c11.365-4.234 16.294-18.83 16.294-18.83S31.8 5.477 20.435 9.711C9.069 13.945 3.395 26.599 3.395 26.599z"/><path style="fill:#395162" d="M13.05 20.995c.55 5.486 5.46 9.504 10.946 8.955 5.486-.55 9.503-5.46 8.954-10.946-.549-5.487-5.46-9.503-10.946-8.954-5.486.55-9.503 5.459-8.954 10.945z"/><path style="opacity:.1" d="M17.03 21.597a6.007 6.007 0 0 0 6.567 5.373 6.007 6.007 0 0 0 5.373-6.567 6.006 6.006 0 0 0-6.567-5.373 6.006 6.006 0 0 0-5.373 6.567z"/><path style="opacity:.1" d="M16.035 21.697a7.008 7.008 0 0 0 7.662 6.268c3.84-.384 6.652-3.822 6.268-7.662a7.007 7.007 0 0 0-7.662-6.268 7.007 7.007 0 0 0-6.268 7.662z"/><path style="fill:#276e7a" d="M16.035 20.697a7.008 7.008 0 0 0 7.662 6.268c3.84-.384 6.652-3.822 6.268-7.662a7.007 7.007 0 0 0-7.662-6.268 7.007 7.007 0 0 0-6.268 7.662z"/><path style="opacity:.2" d="M25.896 6.004c-2.32.04-4.703.391-7.017 1.213-12.343 4.383-16.8 19.42-16.8 19.42a1.834 1.748 0 0 0 .794 1.994s13.905 8.496 26.248 4.113c12.343-4.383 16.8-19.42 16.8-19.42a1.834 1.748 0 0 0-.794-1.994s-9.172-5.5-19.23-5.326zm2.903 4.998C36.044 10.916 42 13.316 42 13.316s-4.853 12.558-15.346 16.426C16.161 33.61 4 27.324 4 27.324s5.487-10.92 15.98-14.787c2.952-1.088 5.984-1.501 8.819-1.535z"/><path style="fill:#f4f4f7" d="M23.01 16a4.003 4.003 0 0 0-3.99 4.398A4.004 4.004 0 0 0 23.4 23.98a4.004 4.004 0 0 0 3.58-4.378A4.005 4.005 0 0 0 23.01 16z"/><path style="fill:#ef46c4" d="M25.896 5.004c-2.32.04-4.703.391-7.017 1.213-12.343 4.383-16.8 19.42-16.8 19.42a1.834 1.748 0 0 0 .794 1.994s13.905 8.496 26.248 4.113c12.343-4.383 16.8-19.42 16.8-19.42a1.834 1.748 0 0 0-.794-1.994s-9.172-5.5-19.23-5.326zm2.903 4.998C36.044 9.916 42 12.316 42 12.316s-4.853 12.558-15.346 16.426C16.161 32.61 4 26.324 4 26.324s5.487-10.92 15.98-14.787c2.952-1.088 5.984-1.501 8.819-1.535z"/><path style="opacity:.2" d="M2.314 26.59 3 27c.3 0-1.158.363-.9.94C3.695 31.51 10.068 44 21.39 44 34 44 41 35 41 35s-8.973 4.569-18 4C11.514 38.277 2.4 26.698 2.314 26.59z"/><path style="fill:#ef46c4" d="M2.314 25.59 3 26c.3 0-1.158.363-.9.94C3.695 30.51 10.068 43 21.39 43 34 43 41 34 41 34s-8.973 4.569-18 4C11.514 37.277 2.4 25.698 2.314 25.59z"/><path style="opacity:.2;fill:#f4f4f7" d="M25.896 5.004c-2.32.04-4.703.391-7.017 1.213-12.343 4.383-16.8 19.42-16.8 19.42a1.834 1.748 0 0 0 0 1.002 1.834 1.748 0 0 1 0-.002s4.457-15.037 16.8-19.42c2.314-.822 4.696-1.173 7.017-1.213 10.06-.174 19.231 5.326 19.231 5.326a1.834 1.748 0 0 1 .795.992 1.834 1.748 0 0 0-.795-1.992s-9.172-5.5-19.23-5.326zm15.727 8.178c-1.266 2.82-6.07 12.28-14.969 15.56-9.427 3.475-20.12-1.21-22.213-2.205-.262.459-.441.787-.441.787s12.16 6.286 22.654 2.418C37.147 25.874 42 13.316 42 13.316s-.283-.099-.377-.134zM5.516 30.02C9.155 33.53 15.555 38.53 23 39c6.702.422 13.357-1.983 16.35-3.252C40.427 34.724 41 34 41 34s-8.973 4.569-18 4c-6.124-.386-11.513-3.833-15.268-7a46.389 46.389 0 0 1-2.216-.98z"/></svg>