<svg xmlns="http://www.w3.org/2000/svg" width="48" height="48"><circle style="opacity:.2" cx="24" cy="25" r="20"/><circle style="fill:#4454ba" cx="24" cy="24" r="20"/><path style="fill:#f4f4f7;opacity:.1" d="M24 4A20 20 0 0 0 4 24a20 20 0 0 0 .021.582A20 20 0 0 1 24 5a20 20 0 0 1 19.979 19.418A20 20 0 0 0 44 24 20 20 0 0 0 24 4z"/><path style="fill:none;opacity:.2;stroke-linejoin:round;stroke-width:4;stroke:#000" d="M24 20h-9s-2 2-2 5.5 2 4.5 2 4.5h7v-5"/><path style="fill:none;stroke-linejoin:round;stroke-width:4;stroke:#9e9e9e" d="M24 19h-9s-2 2-2 5.5 2 4.5 2 4.5h7v-5"/><path style="fill:none;opacity:.2;stroke-linejoin:round;stroke-width:4;stroke:#000" d="M22 20h12L24 30h12"/><path style="fill:none;stroke-linejoin:round;stroke-width:4;stroke:#fefefe" d="M22 19h12L24 29h12"/></svg>