<svg height="48" width="48" xmlns="http://www.w3.org/2000/svg"><rect height="40" opacity=".2" rx="2" width="40" x="4" y="5"/><rect fill="#ffcaab" height="40" rx="2" width="40" x="4" y="4"/><path d="m14 33s10 8 20 8c6 0 6-4 6-4l-4-10-8-6-8-4-8-2v14z" opacity=".2"/><path d="m14 32s10 8 20 8c6 0 6-4 6-4l-4-10-8-6-8-4-8-2v14z" fill="#f4f4f7"/><path d="m22.234 15.676a9 11 0 0 0 -4.211 8.75l16.911 5.73a9 11 0 0 0 1.023-4.187l-7.957-5.969z" fill="#54116e"/><path d="m22 24a14 10 0 0 0 -3.977.418 9 11 0 0 0 -.023.582 9 11 0 0 0 .4 3.238l13.327 6.092a9 11 0 0 0 3.195-4.15 14 10 0 0 0 -12.922-6.18z" fill="#6b5ca7"/><path d="m21 28a11 8 0 0 0 -2.602.238 9 11 0 0 0 8.602 7.762 9 11 0 0 0 4.742-1.672 11 8 0 0 0 -10.742-6.328z" fill="#86bdcd"/><path d="m27 26s1-2 3-2 2 2 2 2c0 4-5 6-5 6s-5-2-5-6c0 0 0-2 2-2s3 2 3 2z" fill="#b8d8e2"/><path d="m6 7 6 8-4-2 2 4v8c0 4 4 8 4 8s-2-5.251-2-8v-8s8 0 14 4 10 8 10 8l4 10v-6l2 2-4-8s-6-6-12-10c-8.32-5.547-20-10-20-10z" opacity=".1"/><path d="m6 6 6 8-4-2 2 4v8c0 4 4 8 4 8s-2-5.251-2-8v-8s8 0 14 4 10 8 10 8l4 10v-6l2 2-4-8s-6-6-12-10c-8.32-5.547-20-10-20-10z" fill="#4f4f4f"/><g fill="#f4f4f7"><ellipse cx="19" cy="23" rx="5" ry="3"/><path d="m6 4c-1.108 0-2 .892-2 2v1c0-1.108.892-2 2-2h36c1.108 0 2 .892 2 2v-1c0-1.108-.892-2-2-2z" opacity=".2"/></g></svg>