<svg xmlns="http://www.w3.org/2000/svg" width="48" height="48" version="1"><rect fill="#c2352a" width="40" height="40" x="4" y="4" rx="2" ry="2"/><path style="opacity:.2" d="M15.656 9.686 10 15.344l2.121 2.12 5.656-5.657zm17 0L27 15.344 32.656 21l5.658-5.656zm-13.463 3.537-5.658 5.656L15.656 21l5.658-5.656zM24.002 18C20.706 18 18 20.706 18 24.002S20.706 30 24.002 30 30 27.298 30 24.002C30 20.706 27.298 18 24.002 18zM24 21c1.673 0 3 1.328 3 3.002A2.977 2.977 0 0 1 24 27c-1.673 0-3-1.324-3-2.998A2.98 2.98 0 0 1 24 21zm-4 11v3h8v-3zm0 5v3h8v-3z"/><path style="fill:#ffc75e" d="M15.656 8.686 10 14.344l2.121 2.12 5.656-5.657-2.12-2.121zm17 0L27 14.344 32.656 20l5.658-5.656-5.658-5.658zm-13.463 3.537-5.658 5.656L15.656 20l5.658-5.656-2.12-2.121zM24.002 17C20.706 17 18 19.706 18 23.002S20.706 29 24.002 29 30 26.298 30 23.002C30 19.706 27.298 17 24.002 17zM24 20c1.673 0 3 1.328 3 3.002A2.977 2.977 0 0 1 24 26c-1.673 0-3-1.324-3-2.998A2.98 2.98 0 0 1 24 20zm-4 11v3h8v-3h-8zm0 5v3h8v-3h-8z"/><path fill="#fff" opacity=".2" d="M6 4c-1.108 0-2 .892-2 2v1c0-1.108.892-2 2-2h36c1.108 0 2 .892 2 2V6c0-1.108-.892-2-2-2H6z"/><path opacity=".2" d="M6 45c-1.108 0-2-.892-2-2v-1c0 1.108.892 2 2 2h36c1.108 0 2-.892 2-2v1c0 1.108-.892 2-2 2H6z"/></svg>