<svg height="48" width="48" xmlns="http://www.w3.org/2000/svg"><path d="m20.094 5c-.613 0-9.701 5.1-10.033 5.623-.142.224-.167 1.06-.055 1.857.463 3.298-.94 5.526-4.135 6.905l-1.871.805v5.647c0 3.106.12 5.767.266 5.914.855.86 7.152-.657 9.705-2.338l1.183-.781-.123-2.623c-.099-2.111.027-2.95.639-4.303 1.02-2.256 2.914-4.075 5.17-4.969 1.601-.634 1.89-.894 2.078-1.867.416-2.163-.815-7.916-2.02-9.44-.187-.237-.55-.431-.804-.431zm7.812 0c-.255 0-.617.194-.804.432-1.205 1.523-2.436 7.276-2.02 9.44.187.972.477 1.232 2.078 1.866 2.256.894 4.15 2.713 5.17 4.969.612 1.353.738 2.192.639 4.303l-.123 2.623 1.183.781c2.553 1.68 8.85 3.198 9.705 2.338.146-.147.266-2.808.266-5.914v-5.648l-1.871-.806c-3.196-1.379-4.497-3.607-4.033-6.905.112-.797.087-1.633-.055-1.857-.332-.523-9.522-5.622-10.135-5.622zm-11.47 26-1.647.871c-2.111 1.118-6.423 5.182-6.709 6.324-.288 1.153-.066 1.34 5.21 4.362 1.522.872 2.978 1.646 3.939 2.105.754.327 1.088.67 1.64-.29.772-.895 2.412-2.292 5.131-2.292a7.1 7.1 0 0 1 5.057 2.06c.61.71.74 1.185 1.816.51.975-.496 2.539-1.354 4.223-2.324 6.05-3.485 6.057-3.508 2.44-7.039-1.442-1.406-3.363-2.946-4.27-3.422l-1.65-.863-1.743 1.266c-2.172 1.577-3.662 2.092-5.992 2.072-2.321-.02-4.057-.648-5.945-2.149z" opacity=".2"/><path d="m20.094 4c-.613 0-9.701 5.1-10.033 5.623-.142.224-.167 1.06-.055 1.857.463 3.298-.94 5.526-4.135 6.905l-1.871.805v5.647c0 3.106.12 5.767.266 5.914.855.86 7.152-.657 9.705-2.338l1.183-.781-.123-2.623c-.099-2.111.027-2.95.639-4.303 1.02-2.256 2.914-4.075 5.17-4.969 1.601-.634 1.89-.894 2.078-1.867.416-2.163-.815-7.916-2.02-9.44-.187-.237-.55-.431-.804-.431zm7.812 0c-.255 0-.617.194-.804.432-1.205 1.523-2.436 7.276-2.02 9.44.187.972.477 1.232 2.078 1.866 2.256.894 4.15 2.713 5.17 4.969.612 1.353.738 2.192.639 4.303l-.123 2.623 1.183.781c2.553 1.68 8.85 3.198 9.705 2.338.146-.147.266-2.808.266-5.914v-5.648l-1.871-.806c-3.196-1.379-4.497-3.607-4.033-6.905.112-.797.087-1.633-.055-1.857-.332-.523-9.522-5.622-10.135-5.622zm-11.47 26-1.647.871c-2.111 1.118-6.423 5.182-6.709 6.324-.288 1.153-.066 1.34 5.21 4.362 1.522.872 2.978 1.646 3.939 2.105.754.327 1.088.67 1.64-.29.772-.895 2.412-2.292 5.131-2.292a7.1 7.1 0 0 1 5.057 2.06c.61.71.74 1.185 1.816.51.975-.496 2.539-1.354 4.223-2.324 6.05-3.485 6.057-3.508 2.44-7.039-1.442-1.406-3.363-2.946-4.27-3.422l-1.65-.863-1.743 1.266c-2.172 1.577-3.662 2.092-5.992 2.072-2.321-.02-4.057-.648-5.945-2.149z" fill="#17191e"/><circle cx="24" cy="25" opacity=".2" r="10"/><g fill="#f4f4f7"><circle cx="24" cy="24" r="10"/><path d="m20.094 4c-.613 0-9.701 5.1-10.033 5.623-.108.17-.125.718-.088 1.31.02-.138.049-.249.088-.31.332-.524 9.419-5.623 10.033-5.623.255 0 .617.194.804.432.972 1.229 1.945 5.186 2.073 7.814.147-2.475-.965-7.414-2.073-8.814-.187-.238-.55-.432-.804-.432zm7.812 0c-.255 0-.617.194-.804.432-1.108 1.4-2.22 6.34-2.073 8.814.128-2.628 1.1-6.585 2.073-7.814.187-.238.55-.432.804-.432.613 0 9.803 5.1 10.135 5.623a.88.88 0 0 1 .086.305c.036-.59.022-1.135-.086-1.305-.332-.524-9.522-5.623-10.135-5.623zm-17.853 9.139c-.167 2.397-1.559 4.114-4.182 5.246l-1.871.805v1l1.871-.806c2.974-1.283 4.372-3.315 4.182-6.246zm27.988.052c-.183 2.904 1.132 4.918 4.088 6.194l1.871.805v-1l-1.871-.806c-2.604-1.124-3.93-2.824-4.088-5.194zm-23.021 11.239c-.018.451-.018.948.011 1.58l.078 1.652.045-.03-.123-2.622c-.01-.224-.006-.383-.011-.58zm17.96 0c-.005.197 0 .356-.011.58l-.123 2.623.045.03.078-1.653c.03-.632.029-1.129.011-1.58z" opacity=".1"/></g></svg>