<svg height="48" width="48" xmlns="http://www.w3.org/2000/svg"><rect fill="#6a3" height="40" rx="2" width="40" x="4" y="4"/><path d="m6 19v11h3v-4.91c.405-.07 1.025-.091 1.5-.091s1.095.022 1.5.091v4.91h3v-5.5c0-.75-.495-1.48-.975-1.81-.479-.333-.93-.451-1.355-.536-.851-.17-1.67-.154-2.17-.154-.366 0-.905-.008-1.5.054v-3.054zm22 0v11h3v-11zm-11 3v5.5c0 .75.495 1.478.975 1.81.479.332.93.45 1.355.535.851.17 1.67.155 2.17.155s1.319.016 2.17-.155c.426-.085.876-.203 1.355-.535.48-.332.975-1.06.975-1.81v-5.5h-3v4.908c-.405.07-1.025.092-1.5.092s-1.095-.022-1.5-.092v-4.908zm16 0v5.5c0 .75.495 1.478.975 1.81.479.332.93.45 1.355.535.851.17 1.67.155 2.17.155s1.319.016 2.17-.155c.426-.085.876-.203 1.355-.535.48-.332.975-1.06.975-1.81v-5.5h-3v4.908c-.405.07-1.025.092-1.5.092s-1.095-.022-1.5-.092v-4.908z" opacity=".2"/><path d="m6 4c-1.108 0-2 .892-2 2v1c0-1.108.892-2 2-2h36c1.108 0 2 .892 2 2v-1c0-1.108-.892-2-2-2z" fill="#f4f4f7" opacity=".2"/><path d="m6 45c-1.108 0-2-.892-2-2v-1c0 1.108.892 2 2 2h36c1.108 0 2-.892 2-2v1c0 1.108-.892 2-2 2z" opacity=".2"/><path d="m28 18h3v11h-3z" fill="#f4f4f7"/><path d="m18.5 21v5.5c0 1 2 1 3 1s3 0 3-1v-5.5m10 0v5.5c0 1 2 1 3 1s3 0 3-1v-5.5m-33 8v-5.5c0-1 2-1 3-1s3 0 3 1v5.5" fill="none" stroke="#f4f4f7" stroke-width="3"/><path d="m6 18h3v11h-3z" fill="#f4f4f7"/></svg>