<svg xmlns="http://www.w3.org/2000/svg" width="48" height="48"><path style="opacity:.2" d="M7.401 35.815C4.174 39.069 4 45 4 45s5.88-.175 9.111-3.43c3.232-3.253 4.57-7.18 2.991-8.767-1.578-1.59-5.473-.242-8.7 3.012zM7.224 24.076c-.386.334-.248.93.225.998 1.31.187 3.942.064 5.591 1.727 1.61 1.623 1.946 3.922 1.946 3.922l4.759-10.156s-2.518-1.19-6.18-.23c-2.525.664-5.03 2.601-6.34 3.739zM25.937 41.787c-.395.322-.923.25-.99-.227-.186-1.32-.064-3.974-1.713-5.637-1.61-1.623-4.226-1.861-4.226-1.861l9.849-4.893s1.854 2.884.832 6.99c-.852 3.392-2.308 4.439-3.752 5.628z"/><path style="fill:#ffd800" d="M7.401 34.815C4.174 38.069 4 44 4 44s5.88-.175 9.111-3.43c3.232-3.253 4.57-7.18 2.991-8.767-1.578-1.59-5.473-.242-8.7 3.012z"/><path style="fill:#ff562e" d="M8.143 36.22C6.11 38.269 6 42 6 42s3.701-.111 5.733-2.16c2.032-2.049 2.877-4.523 1.883-5.522-.995-.998-3.437-.15-5.473 1.902z"/><path style="opacity:.1" d="M12.019 37.26c1.933 2.08 4.47 1.861 4.68 1.52l2.767-3.797c.107-.175.008-.453-.067-.525l-4.77-4.91c-.075-.075-.34-.162-.513-.055l-3.873 2.782c-.335.211-.714 2.3 1.776 4.985z"/><path style="fill:#546e7a" d="M12.019 36.26c1.933 2.08 4.47 1.861 4.68 1.52l2.767-3.797c.107-.175.008-.453-.067-.525l-4.77-4.91c-.075-.075-.34-.162-.513-.055l-3.873 2.782c-.335.211-.714 2.3 1.776 4.985z"/><path style="fill:#0292e1" d="M25.937 40.787c-.395.322-.923.25-.99-.227-.186-1.32-.064-3.974-1.713-5.637-1.61-1.623-4.226-1.861-4.226-1.861l9.849-4.893s1.854 2.884.832 6.99c-.852 3.392-2.308 4.439-3.752 5.628zM7.224 23.076c-.386.334-.248.93.225.998 1.31.187 3.942.064 5.591 1.727 1.61 1.623 1.946 3.922 1.946 3.922l4.759-10.156s-2.518-1.19-6.18-.23c-2.525.664-5.03 2.601-6.34 3.739z"/><path style="fill:#f4f4f7;opacity:.2" d="M16.076 18.969c-.75.023-1.596.127-2.512.367-2.525.664-5.03 2.602-6.34 3.74-.338.293-.275.785.063.95 1.324-1.144 3.785-3.034 6.277-3.69 2.85-.746 4.966-.203 5.782.08l.398-.85s-1.415-.667-3.668-.597z"/><path style="opacity:.2" d="M42.354 5a5.833 5.833 0 0 0-.635.044c-4.897.572-6.832.942-9.662 2.097-2.787 1.071-6.223 3.136-8.207 5.125-7.905 7.925-12.257 17.73-8.457 21.155.23.208.485.376.744.56 4.43 3.143 12.992-1.294 20.744-9.066 1.898-1.903 3.863-5.242 4.892-7.953 1.305-3.365 1.84-5.647 2.196-9.576.159-1.741-.269-2.394-1.615-2.385z"/><path style="fill:#bebebe" d="M32.057 6.141c1.584.73 3.591 2.018 5.63 4.062.72.722 1.335 1.46 1.867 2.182 1.03 1.392 1.758 2.537 2.22 3.577-1.03 2.71-2.995 6.05-4.893 7.953-7.752 7.772-16.314 12.209-20.744 9.066-.258-.184-.513-.353-.744-.56-3.8-3.426.552-13.23 8.457-21.155 1.984-1.989 5.42-4.054 8.207-5.125z"/><path style="fill:#e53935" d="M32.057 6.141c-.717 3.527 5.524 10.435 9.716 9.82 1.305-3.364 1.84-5.648 2.195-9.577.182-1.99-.402-2.557-2.249-2.34-4.897.571-6.833.942-9.662 2.097z"/><circle style="opacity:.1" cx="7.778" cy="33.941" r="3.5" transform="rotate(-45)"/><circle style="fill:#455a64" cx="8.485" cy="33.234" r="3.5" transform="rotate(-45)"/><circle style="opacity:.1" cx="-2.828" cy="34.648" r="2.5" transform="rotate(-45)"/><circle style="fill:#455a64" cx="-2.121" cy="33.941" r="2.5" transform="rotate(-45)"/><path style="fill:#f4f4f7;opacity:.2" d="M42.354 4a5.833 5.833 0 0 0-.635.043c-4.897.572-6.832.942-9.662 2.098-2.787 1.07-6.223 3.136-8.207 5.125-6.138 6.152-10.113 13.425-9.815 17.978.276-4.573 4.11-11.26 9.815-16.978 1.984-1.99 5.42-4.054 8.207-5.125 2.83-1.156 4.765-1.526 9.662-2.098.23-.027.442-.042.635-.043 1.015-.007 1.506.365 1.619 1.293.134-1.667-.299-2.302-1.62-2.293z"/></svg>