<svg xmlns="http://www.w3.org/2000/svg" width="48" height="48" version="1"><rect fill="#394e9a" width="32" height="32" x="-42" y="-38" rx="16" ry="16" transform="matrix(0 -1 -1 0 0 0)"/><path opacity=".2" d="M6.025 26.5c-.005.168-.025.331-.025.5 0 8.864 7.136 16 16 16s16-7.136 16-16c0-.169-.02-.332-.025-.5C37.71 35.129 30.695 42 22 42S6.29 35.129 6.025 26.5z"/><path fill="#fff" opacity=".2" d="M22 10c-8.864 0-16 7.136-16 16 0 .169.02.332.025.5C6.29 17.871 13.305 11 22 11s15.71 6.871 15.975 15.5c.005-.168.025-.331.025-.5 0-8.864-7.136-16-16-16z"/><path fill-rule="evenodd" opacity=".2" d="M32.949 6c-.01 0-.022.007-.033.008a.78.78 0 0 0-.237.058.717.717 0 0 0-.199.11 1.223 1.223 0 0 0-.233.303c-.054.099-.103.21-.143.352-.002.008-.005.012-.008.02-.11-.522-1.255-.395-1.255-.395l.002.002h-.004s.095.064.189.154a.884.884 0 0 1 .127.149v.002a.272.272 0 0 1 .052.156v.002c-.196.022-.39.054-.58.095-.042-.093-.037-.231-.028-.379.01-.147.025-.302-.002-.43 0 .001 0 .003-.002.004v-.006a1.508 1.508 0 0 0-.18.427 3.069 3.069 0 0 0-.086.453c-.038.01-.074.026-.112.037-.148.043-.297.085-.44.14a3.37 3.37 0 0 0-.335-.459 2.49 2.49 0 0 0-.398-.372c-.026-.02-.051-.04-.078-.058a1.885 1.885 0 0 0-.451-.234c-.005-.001-.009-.006-.013-.007h-.004a1.729 1.729 0 0 0-.506-.081c-.017 0-.032-.008-.05-.008-.028 0-.06.014-.089.015-.135.008-.275.03-.418.07-.05.013-.098.025-.149.042-.189.066-.382.15-.582.274-.717.445-1.052 1.155-1.152 1.942-2.077.433-4.414.8-6.476.807l-.071.002c-2.221 0-4.022.644-5.35 1.83a6.79 6.79 0 0 0-1.018 1.144v.002c-.15.212-.29.434-.42.666-.066.119-.123.247-.183.37-.06.12-.124.235-.178.36v.002a9 9 0 0 0-.297.785c-.089.272-.167.553-.235.844-.053.223-.094.455-.133.689-.013.072-.03.14-.041.212v.002c-.046.309-.081.626-.106.952v.004c-.025.325-.04.66-.043 1.001-.005.688.001 1.31.02 1.873v.004c.018.56.048 1.064.087 1.513v.002c.038.45.086.846.14 1.195v.002c.054.349.115.65.18.91v.003c.065.26.135.479.206.662v.002c.072.183.146.33.22.448v.002c.074.118.149.205.22.27a.64.64 0 0 0 .206.133c.423.154.295-.039.228-.127-.015-.02-.036-.06-.037-.06l.187.114.19.118v-.234l.177.023.154.021.145-.287.046-.091h.427s.167-.103.264-.378c.01-.03.026-.047.035-.081v-.002c.028-.118.044-.262.032-.439-.035-.534.194-.747.15-1.102a1.102 1.102 0 0 0-.15-.415c-.186-.327-.385-1.9-.447-3.482l-.004-.07c-.03-.801-.024-1.601.037-2.24v-.002c.06-.638.177-1.114.366-1.269.19-.154.477-.36.83-.584.352-.226.769-.472 1.219-.709.675-.355 1.424-.691 2.135-.907.237-.072.47-.13.695-.172.675-.124 1.277-.269 1.986-.36.472-.062.992-.099 1.611-.091h.002l.046.001c.923.014 2.064.126 3.604.406.003.273.026.597.07.994v.008c.119 1.085.364 1.715.701 2.289.338.574.768 1.092 1.258 1.951l.002.002c.149.265.305.504.469.714l.002.002c.164.211.337.395.517.552.18.158.367.288.561.392l.002.002c.194.104.394.183.602.236.835.213 1.78.015 2.816-.564.854-.5 1.486-.734 2.064-1.063a4.54 4.54 0 0 0 .85-.61 5.55 5.55 0 0 0 .437-.442v-.002c.15-.169.306-.358.467-.577.042-.058.052-.087.09-.141.203-.282.382-.538.504-.75.313-.231.627-.467.922-.66.719-.482 1.504-1.23 1.989-2.082v-.002c.242-.426.408-.877.455-1.334v-.002c.012-.113.016-.227.012-.341v-.002a2.327 2.327 0 0 0-.28-1.026 2.892 2.892 0 0 0-.353-.517c-.038-.045-.082-.079-.124-.12a1.986 1.986 0 0 0-.272-.238c-.054-.038-.11-.067-.165-.098a1.67 1.67 0 0 0-.456-.176 1.795 1.795 0 0 0-.34-.042c-.04-.002-.081-.006-.123-.004a2.244 2.244 0 0 0-.48.067l-.012.002h-.002c-.32.083-.644.229-.963.435l-.005-.008a5.09 5.09 0 0 0-.284-.36c-.024-.027-.045-.058-.07-.086v-.002c.046-.095.101-.222.143-.359.042-.137.072-.284.066-.417-.184.218-.239.732-.538.43a.32.32 0 0 1-.074-.102.118.118 0 0 1-.003-.08c.007-.023.036-.036.055-.053.105-.092.332-.124.332-.124l-.002-.001s-.356-.27-.638-.284a.348.348 0 0 0-.133.017.255.255 0 0 0-.108.074c.115-.434-.002-.665-.149-.788a.64.64 0 0 0-.32-.138v.002s.131.14.187.303c.006.018.018.033.021.05v.002a.296.296 0 0 1-.015.184v.002a.232.232 0 0 1-.089.096c-.013.008-.03.01-.044.016-.029.011-.057.025-.089.029a7.998 7.998 0 0 0-.239-.137c-.03-.017-.057-.035-.087-.05a.476.476 0 0 1 0-.279v-.003a.414.414 0 0 0-.43.073 7.496 7.496 0 0 0-.246-.104l.066-.338.083-.42-.002.003v-.004l-.417.655a6.735 6.735 0 0 0-.187-.064c-.015-.2-.086-.423-.297-.556a.74.74 0 0 0-.261-.098c-.071.265-.212.384-.363.417-.054-.01-.109-.019-.164-.027-.054-.01-.108-.02-.162-.027a.52.52 0 0 1-.179-.159.31.31 0 0 1-.058-.204.4.4 0 0 1 .114-.234c.183-.194.517-.28.517-.28s-.058-.026-.15-.048a.97.97 0 0 0-.257-.027zM14.791 28.155v.522l-.378-.238v.286l-.426-.238.094.238-.38-.19.048.474-.378-.379.141.662-.378-.189.332.853-.475-.615.332.853-.284-.19.379.76-.332-.286.38.52-.332-.188s1.704 3.224 4.547 5.072c.71.462 1.5.992 2.386 1.515a21.143 21.143 0 0 0 2.955 1.471A15.727 15.727 0 0 0 28.715 40c.725.007 1.484-.034 2.278-.135.793-.1 1.483-.3 2.083-.571a5.965 5.965 0 0 0 1.541-1.006 6.592 6.592 0 0 0 1.478-1.976v-.002c1.051-2.112.96-4.36.96-4.36-1.77 4.005-3.362 5.278-6.049 4.555a8.915 8.915 0 0 1-.773-.26c-.404-.152-.823-.327-1.277-.551-5.059-2.494-12.365-6.827-12.365-6.827l-.047.332-.71-.616v.19l-.331-.333-.048.286-.332-.475v.38l-.332-.474z"/><path fill="#2aa2f6" fill-rule="evenodd" d="M32.949 5c-.01 0-.022.007-.033.008a.78.78 0 0 0-.237.058.717.717 0 0 0-.199.11 1.223 1.223 0 0 0-.233.303c-.054.099-.103.21-.143.352-.002.008-.005.012-.008.02-.11-.522-1.255-.395-1.255-.395l.002.002h-.004s.095.064.189.154a.884.884 0 0 1 .127.149v.002a.272.272 0 0 1 .052.156v.002c-.196.022-.39.054-.58.095-.042-.093-.037-.231-.028-.379.01-.147.025-.302-.002-.43 0 .001 0 .003-.002.004v-.006a1.508 1.508 0 0 0-.18.427 3.069 3.069 0 0 0-.086.453c-.038.01-.074.026-.112.037-.148.043-.297.085-.44.14a3.256 3.256 0 0 0-.335-.458 2.487 2.487 0 0 0-.397-.373c-.026-.02-.051-.04-.077-.058a1.885 1.885 0 0 0-.452-.233l-.013-.008h-.004a1.729 1.729 0 0 0-.506-.081c-.017 0-.032-.008-.05-.008-.028 0-.06.014-.088.016-.136.007-.276.03-.419.069-.05.013-.098.025-.149.042-.189.066-.382.15-.582.275-.717.8b9cbe-1.052 1.154-1.152 1.941-2.076.433-4.413.8-6.475.807l-.072.002c-2.221 0-4.022.644-5.349 1.83a6.79 6.79 0 0 0-1.018 1.145v.001c-.15.212-.291.434-.421.666-.066.119-.122.247-.183.37-.06.12-.124.236-.178.36v.002a9 9 0 0 0-.297.785c-.089.272-.167.554-.235.844-.052.223-.094.455-.133.689-.012.072-.03.14-.04.212v.002c-.047.309-.082.626-.107.952v.004c-.025.325-.04.66-.042 1.002-.006.687 0 1.31.019 1.872v.004c.019.561.048 1.064.087 1.513v.002c.038.45.087.846.14 1.195v.002c.055.349.115.65.18.911v.002c.065.26.135.479.206.662v.002c.072.183.147.33.22.448v.002c.074.118.149.205.22.27a.64.64 0 0 0 .207.133c.423.154.295-.039.227-.127-.015-.02-.036-.059-.036-.06l.187.114.189.118v-.234l.177.023.155.021.144-.287.047-.09h.426s.167-.104.264-.38c.01-.029.026-.046.035-.08v-.002c.029-.117.044-.261.033-.438-.036-.535.193-.748.15-1.103a1.102 1.102 0 0 0-.15-.415c-.187-.327-.385-1.899-.448-3.482 0-.023-.003-.046-.004-.07-.03-.801-.024-1.601.037-2.24v-.002c.06-.638.177-1.113.366-1.268.19-.154.477-.36.83-.585.352-.225.769-.472 1.219-.709.675-.355 1.424-.691 2.135-.907.238-.072.47-.13.695-.172.675-.124 1.277-.269 1.987-.36.471-.061.991-.098 1.61-.091h.002l.047.002c.923.013 2.064.125 3.603.405.003.273.026.597.07.994v.008c.119 1.085.364 1.715.702 2.289.338.574.768 1.092 1.257 1.951l.002.002c.149.266.305.504.47.715l.001.002c.165.21.337.394.517.552.18.157.367.287.561.391l.002.002c.194.105.394.183.602.236.835.213 1.78.015 2.817-.564.853-.5 1.485-.734 2.064-1.063.145-.082.285-.17.426-.27.141-.1.282-.211.424-.34a5.55 5.55 0 0 0 .436-.442v-.002c.15-.168.306-.358.467-.577.043-.058.052-.087.09-.141.203-.282.382-.538.504-.75.313-.231.627-.467.922-.66.72-.482 1.505-1.23 1.99-2.082v-.002c.241-.425.408-.877.454-1.334v-.002c.012-.113.016-.227.012-.341v-.002a2.327 2.327 0 0 0-.28-1.025 2.827 2.827 0 0 0-.35-.517c-.04-.047-.085-.08-.126-.122a2.128 2.128 0 0 0-.272-.237c-.055-.038-.11-.068-.166-.099a1.707 1.707 0 0 0-.456-.175 1.803 1.803 0 0 0-.339-.043c-.04 0-.082-.005-.124-.004a2.244 2.244 0 0 0-.48.068c-.004.001-.008 0-.012.002h-.002c-.32.083-.644.228-.962.434l-.006-.008a5.09 5.09 0 0 0-.284-.359c-.024-.028-.044-.059-.07-.086v-.002c.046-.096.101-.223.144-.36.042-.136.07-.283.065-.416-.184.217-.239.732-.538.43a.324.324 0 0 1-.073-.102.12.12 0 0 1-.004-.081c.007-.023.036-.035.056-.052.104-.093.332-.124.332-.124l-.002-.002s-.357-.27-.639-.283a.348.348 0 0 0-.133.017.255.255 0 0 0-.108.073c.116-.433-.002-.664-.148-.787a.647.647 0 0 0-.323-.14v.003s.132.14.187.303c.006.017.018.032.022.05v.002a.296.296 0 0 1-.016.183v.002a.232.232 0 0 1-.088.097c-.013.008-.03.009-.045.015-.028.012-.057.025-.089.03a7.998 7.998 0 0 0-.239-.138c-.03-.016-.057-.035-.087-.05a.476.476 0 0 1 0-.278v-.004a.415.415 0 0 0-.432.073 7.262 7.262 0 0 0-.245-.104l.066-.338.083-.42-.002.003v-.003l-.417.654-.186-.062c-.015-.2-.086-.423-.297-.556a.73.73 0 0 0-.26-.098c-.07.264-.212.384-.363.416-.054-.01-.109-.018-.164-.027l-.162-.027a.518.518 0 0 1-.179-.158.313.313 0 0 1-.058-.204.4.4 0 0 1 .114-.234c.183-.194.517-.28.517-.28s-.058-.026-.15-.048a.974.974 0 0 0-.256-.027zM14.791 27.155v.522l-.378-.238v.286l-.426-.238.094.238-.38-.19.048.474-.378-.379.141.662-.378-.189.332.853-.475-.615.332.853-.284-.19.379.76-.332-.286.38.52-.332-.188s1.704 3.224 4.547 5.072c.71.462 1.5.992 2.386 1.515a21.143 21.143 0 0 0 2.955 1.471A15.727 15.727 0 0 0 28.715 39c.725.007 1.484-.034 2.278-.135.793-.1 1.483-.3 2.083-.571a5.965 5.965 0 0 0 1.541-1.006 6.592 6.592 0 0 0 1.478-1.976v-.002c1.051-2.112.96-4.36.96-4.36-1.77 4.005-3.362 5.278-6.049 4.555a8.915 8.915 0 0 1-.773-.26c-.404-.152-.823-.327-1.277-.551-5.059-2.494-12.365-6.827-12.365-6.827l-.047.332-.71-.616v.19l-.331-.333-.048.286-.332-.475v.38l-.332-.474z"/><circle fill="#464646" cx="31.574" cy="1.882" r="1.011" transform="rotate(15)"/><circle fill="#464646" cx="-37.879" cy="2.274" r="1" transform="scale(-1 1) rotate(-15)"/><path fill="#464646" fill-rule="evenodd" d="M30.635 15.081c-.57.033-.704.11-.605.58s.37 1.133 1 1.302c.629.169 1.196-.27 1.517-.627.32-.358.406-.372-.234-.805s-1.107-.483-1.678-.45z"/><path fill="#fff" fill-rule="evenodd" opacity=".1" d="M32.949 5c-.01 0-.023.007-.033.008a.788.788 0 0 0-.238.058.707.707 0 0 0-.198.11.987.987 0 0 0-.19.228 1.649 1.649 0 0 0-.188.426c-.001.008-.004.013-.006.022-.11-.523-1.256-.397-1.256-.397l.002.002h-.004s.096.066.19.156a.88.88 0 0 1 .126.149v.002a.273.273 0 0 1 .053.156v.002a6.012 6.012 0 0 0-.58.094c-.042-.093-.037-.232-.027-.38.01-.147.024-.3-.002-.429l-.002.004v-.006c-.082.123-.14.272-.182.426s-.07.314-.086.455c-.038.01-.073.024-.111.035a5.237 5.237 0 0 0-.44.143 3.316 3.316 0 0 0-.337-.461 2.472 2.472 0 0 0-.396-.371l-.079-.059a1.889 1.889 0 0 0-.45-.234L28.5 5.13h-.004a1.723 1.723 0 0 0-.505-.08c-.018 0-.032-.008-.05-.008-.028 0-.06.014-.09.016-.135.007-.274.029-.417.068-.05.013-.098.025-.149.043-.189.065-.381.151-.582.275-.716.445-1.052 1.154-1.152 1.942-2.077.432-4.415.798-6.477.806l-.07.002c-2.221 0-4.023.645-5.35 1.83-.378.339-.717.72-1.017 1.145v.002c-.15.212-.292.434-.422.666-.066.118-.123.245-.183.369-.06.12-.122.235-.176.36v.001a8.99 8.99 0 0 0-.297.786 10.15 10.15 0 0 0-.236.843c-.053.223-.094.456-.133.69-.012.072-.03.14-.041.213v.002c-.047.308-.08.625-.106.95v.005c-.025.325-.04.66-.043 1.002-.002.295.006.533.008.804.006-.273.015-.544.035-.806v-.004c.025-.326.06-.643.106-.951V16.1c.01-.073.029-.141.04-.213.04-.234.081-.467.134-.69.067-.29.147-.572.236-.843a8.99 8.99 0 0 1 .297-.786v-.002c.054-.124.117-.24.175-.359.061-.124.118-.25.184-.369.13-.232.272-.454.422-.666v-.002c.3-.424.639-.806 1.018-1.145 1.326-1.185 3.128-1.83 5.35-1.83l.07-.002c2.061-.008 4.4-.374 6.476-.806.1-.787.436-1.497 1.152-1.942.2-.124.393-.21.582-.275.05-.017.1-.03.149-.043.143-.04.282-.06.418-.068.029-.002.061-.016.09-.016.017 0 .031.007.048.008.176.004.346.027.506.08h.004l.014.008c.16.054.308.136.451.234.026.018.052.039.078.059.141.106.274.227.397.37.12.14.234.29.336.462.142-.056.29-.1.44-.143.037-.01.072-.025.11-.035.017-.141.044-.301.086-.455s.1-.303.182-.426v.006l.002-.004c.026.128.012.282.002.43-.01.147-.014.286.027.379.192-.041.384-.072.58-.094V6.92a.274.274 0 0 0-.052-.156v-.002a.77.77 0 0 0-.125-.149c-.093-.09-.19-.156-.19-.156h.004l-.002-.002s1.146-.126 1.255.397c.003-.009.006-.013.008-.022a1.649 1.649 0 0 1 .188-.426.987.987 0 0 1 .19-.228.707.707 0 0 1 .196-.11.788.788 0 0 1 .239-.058c.01 0 .023-.008.033-.008a.972.972 0 0 1 .406.076s-.334.085-.517.28a.402.402 0 0 0-.114.234.315.315 0 0 0 .059.205.513.513 0 0 0 .178.158c.054.008.108.016.162.026.054.008.11.017.164.027.15-.032.292-.151.363-.416.105.02.19.053.26.098.211.132.282.356.297.556.063.02.125.04.187.063l.418-.655v.004l.002-.004-.084.422-.064.338c.082.033.163.068.244.104a.414.414 0 0 1 .432-.073v.004a.474.474 0 0 0 0 .278c.03.015.058.034.087.05.081.045.16.09.239.137.032-.004.061-.017.09-.03.014-.005.03-.006.043-.015a.233.233 0 0 0 .09-.095V7.77a.297.297 0 0 0 .015-.184v-.002c-.004-.018-.016-.033-.021-.05-.056-.164-.188-.303-.188-.303v-.002s.176.015.322.138c.147.123.264.354.149.787a.25.25 0 0 1 .107-.072.347.347 0 0 1 .133-.017c.282.013.639.283.639.283l.002.002s-.228.03-.332.123c-.02.017-.048.03-.055.053a.115.115 0 0 0 .004.08c.012.03.035.065.072.103.29.293.354-.181.526-.408-.044-.053-.083-.107-.127-.158-.024-.029-.045-.058-.07-.086v-.002c.045-.095.1-.223.142-.36.042-.137.072-.283.067-.416-.185.218-.24.732-.54.43-.038-.038-.06-.07-.072-.101s-.012-.059-.004-.082c.008-.023.036-.036.055-.053.104-.093.332-.123.332-.123l-.002-.002s-.356-.27-.638-.283a.347.347 0 0 0-.133.017.25.25 0 0 0-.108.072c.116-.433-.002-.664-.148-.787-.147-.123-.323-.138-.323-.138v.002s.132.14.188.302c.006.018.018.033.021.051v.002a.297.297 0 0 1-.015.184v.002a.233.233 0 0 1-.09.095c-.013.009-.028.01-.043.016-.028.012-.058.026-.09.03a6.858 6.858 0 0 0-.238-.137c-.03-.017-.058-.036-.088-.051a.474.474 0 0 1 0-.277v-.004a.413.413 0 0 0-.431.072 7.652 7.652 0 0 0-.244-.104l.064-.338.084-.421-.002.003v-.003l-.418.654c-.062-.022-.124-.042-.187-.063-.016-.2-.087-.423-.298-.556a.73.73 0 0 0-.26-.097c-.071.265-.213.383-.363.416l-.164-.028a6.48 6.48 0 0 0-.162-.025.525.525 0 0 1-.178-.158.315.315 0 0 1-.06-.205.402.402 0 0 1 .114-.235c.183-.194.518-.28.518-.28s-.058-.026-.15-.048a.978.978 0 0 0-.257-.027zm5.936 3.006a2.247 2.247 0 0 0-.481.068l-.012.002h-.002c-.32.083-.644.228-.963.434l-.005-.008c-.047-.066-.1-.126-.15-.19 0 .124-.023.258-.061.383a2.706 2.706 0 0 1-.143.36v.002c.025.027.046.057.07.086.1.116.195.235.284.359l.005.008c.319-.206.643-.351.963-.434h.002c.004 0 .008 0 .012-.002.162-.04.323-.063.48-.068.042-.002.082.003.124.004a1.81 1.81 0 0 1 .513.09c.097.032.19.078.281.129.056.03.112.06.166.097.095.066.184.15.272.239.041.041.085.074.125.12.126.149.246.317.353.518.106.197.172.397.217.598.015-.076.043-.15.051-.227v-.002c.012-.113.016-.227.012-.342v-.002a2.32 2.32 0 0 0-.278-1.025 2.875 2.875 0 0 0-.354-.518c-.04-.046-.084-.079-.125-.12a2.056 2.056 0 0 0-.272-.239c-.054-.037-.11-.066-.166-.097a1.704 1.704 0 0 0-.795-.219c-.041-.001-.081-.005-.123-.004zm-25.213 9.189c-.011.445-.011.91.006 1.39l.004.07c.063 1.584.26 3.154.448 3.481.02.037.017.059.033.092.054-.254.146-.435.117-.676a1.105 1.105 0 0 0-.15-.416c-.187-.327-.385-1.897-.448-3.48 0-.024-.003-.047-.004-.07-.005-.133-.003-.26-.006-.391zm1.12 9.96v.52l-.38-.236v.285l-.425-.236.094.236-.38-.19.048.473-.377-.376.14.662-.379-.19.278.715-.04-.187.378.376-.047-.472.379.19-.094-.237.426.236v-.285l.379.236v-.52l.332.476v-.381l.332.474.047-.285.332.332v-.19l.71.616.045-.332s7.307 4.334 12.365 6.828c.455.224.874.398 1.278.549.265.099.527.195.773.262 2.654.715 4.24-.53 5.985-4.42.068-.66.064-1.135.064-1.135-1.77 4.005-3.362 5.278-6.049 4.555a8.936 8.936 0 0 1-.773-.262c-.404-.151-.823-.325-1.278-.549-5.058-2.495-12.364-6.829-12.364-6.829l-.044.332-.711-.615v.19l-.332-.333-.047.285-.332-.474v.38l-.332-.474zM12.99 28.34l.332.853-.283-.19.25.503-.157-.403.38.19-.08-.381-.442-.572zm.123 1.16.352.457-.09-.23-.262-.227zm.02.308s.088.147.118.201l-.068-.172-.05-.029z"/></svg>