<svg height="48" width="48" xmlns="http://www.w3.org/2000/svg">
    <path d="M24 4H6c-1.108 0-2 .892-2 2v18h20z" fill="#fe4b71"/>
    <path d="M24 4h18c1.108 0 2 .892 2 2v18H24z" fill="#2086e7"/>
    <path d="M24 44H6c-1.108 0-2-.892-2-2V24h20z" fill="#ff8c2a"/>
    <path d="M24 44h18c1.108 0 2-.892 2-2V24H24z" fill="#6655e4"/>
    <path d="M6 4c-1.108 0-2 .892-2 2v1c0-1.108.892-2 2-2h36c1.108 0 2 .892 2 2V6c0-1.108-.892-2-2-2z" fill="#fff" opacity=".2"/>
    <path d="M6 45c-1.108 0-2-.892-2-2v-1c0 1.108.892 2 2 2h36c1.108 0 2-.892 2-2v1c0 1.108-.892 2-2 2z" opacity=".2"/>
    <path d="M10 10h28v28H10z" fill="#17191e"/>
    <g fill="none" stroke-linecap="round" stroke-width="2">
        <path d="M16 33h8" opacity=".2" stroke="#000"/>
        <path d="M16 32h8" stroke="#f4f4f7"/>
        <path d="M16 25h4m-4-8h4m-2 8v-8" opacity=".2" stroke="#000"/>
        <path d="M16 24h4m-4-8h4m-2 8v-8" stroke="#f4f4f7"/>
        <g stroke-linejoin="round">
            <path d="M24 24v1h1c3.916-.115 3-6.888 3-8" opacity=".2" stroke="#000"/>
            <path d="M24 23v1h1c3.916-.115 3-6.888 3-8" stroke="#f4f4f7"/>
        </g>
    </g>
</svg>
