<svg height="48" width="48" xmlns="http://www.w3.org/2000/svg"><rect fill="#85aeff" height="28" rx="1.595" ry="1.6" transform="rotate(90)" width="27.907" x="4.09" y="-44"/><path d="m21 25v-2h12v2zm0-4v-2h18v2zm0-4v-2h18v2zm0-4v-2h18v2z" opacity=".2"/><path d="m44 6.087v-.499c0-.883-.707-1.588-1.594-1.588h-24.812c-.887 0-1.594.705-1.594 1.588v.499c0-.884.707-1.589 1.594-1.589h24.812c.886 0 1.594.705 1.594 1.589z" fill="#fff" opacity=".4"/><path d="m16 30.406v.998c0 .884.713 1.596 1.6 1.596h24.8c.887 0 1.6-.712 1.6-1.596v-.998c0 .884-.713 1.594-1.6 1.594h-24.8c-.887 0-1.6-.71-1.6-1.594z" opacity=".2"/><rect fill="#a7baff" height="28" rx="1.6" transform="rotate(90)" width="28" x="16" y="-32"/><path d="m32 18v-.5c0-.886-.707-1.594-1.594-1.594h-24.812c-.886 0-1.594.708-1.594 1.594v.5c0-.886.708-1.594 1.594-1.594h24.812c.887 0 1.594.708 1.594 1.594z" fill="#fff" opacity=".4"/><path d="m4 42.4v1c0 .887.713 1.6 1.6 1.6h24.8c.887 0 1.6-.713 1.6-1.6v-1c0 .887-.713 1.6-1.6 1.6h-24.8c-.887 0-1.6-.713-1.6-1.6z" opacity=".2"/><path d="m9 37v-2h12v2zm0-4v-2h18v2zm0-4v-2h18v2zm0-4v-2h18v2z" opacity=".5"/></svg>