<svg height="48" width="48" xmlns="http://www.w3.org/2000/svg"><path d="m32.045 14.992a2 2 0 0 0 -.678 3.904s.68.228 1.47.567c.791.339 1.72.922 1.749.951.882.882 1.244 1.469 1.375 1.73.054.11.057.129.057.127a2 2 0 0 0 3.982-.271s-.022-.395-.092-.672a4.774 4.774 0 0 0 -.369-.973c-.37-.738-1.007-1.651-2.125-2.77-.971-.97-2.042-1.387-3.002-1.798s-1.78-.683-1.78-.683a2 2 0 0 0 -.587-.112zm-6.045 19.008s1-6 6-6c3 0 6 4 6 4s2-5 4-5c3 0 2 10 2 10s-2 6-5 6c-15 0-13-9-13-9z" opacity=".2"/><path d="m26 33s1-6 6-6c3 0 6 4 6 4s2-5 4-5c3 0 2 10 2 10s-2 6-5 6c-15 0-13-9-13-9z" fill="#3b655d"/><path d="m42 26c-2 0-4 5-4 5s-3-4-6-4c-5 0-6 6-6 6s-.134.642-.06 1.572c.025-.335.06-.572.06-.572s1-6 6-6c3 0 6 4 6 4s2-5 4-5c1.747 0 2.125 3.376 2.146 6.209.062-2.96-.184-7.209-2.146-7.209z" fill="#f4f4f7" opacity=".1"/><path d="m29 11 2-3" fill="none" stroke="#d3c76a" stroke-linecap="round" stroke-linejoin="round" stroke-width="4"/><path d="m30.96 5.977a2 2 0 0 0 -1.624.914l-2 3a2 2 0 0 0 -.287 1.632 2 2 0 0 1 .287-.632l2-3a2 2 0 0 1 1.625-.914 2 2 0 0 1 1.988 1.5 2 2 0 0 0 -1.988-2.5z" fill="#f4f4f7" opacity=".1"/><path d="m32 16s3 1 4 2c2 2 2 3 2 3" fill="none" stroke="#fcbbb8" stroke-linecap="round" stroke-linejoin="round" stroke-width="4"/><path d="m19 43c20 0 17-8 17-8l-4-15s7 0 7-3c0-1-1-8-14-8-17 0-19 14-19 14s-9 20 13 20z" opacity=".2"/><path d="m19 42c20 0 17-8 17-8l-4-15s7 0 7-3c0-1-1-8-14-8-17 0-19 14-19 14s-9 20 13 20z" fill="#4f877c"/><path d="m25 8c-17 0-19 14-19 14s-1.974 4.39-1.813 9.055c.116-4.275 1.813-8.055 1.813-8.055s2-14 19-14c11.51 0 13.607 5.47 13.938 7.422.033-.136.062-.272.062-.422 0-1-1-8-14-8zm7.264 11.988c-.048 0-.264.012-.264.012l4 15s.072.22.12.563c.105-.915-.12-1.563-.12-1.563z" fill="#f4f4f7" opacity=".2"/><path d="m5.377 23.662c-1.59 4.778-4.507 18.338 13.623 18.338 20 0 17-8 17-8l-2.53-9.488c-1.375.855-2.47 2.488-2.47 2.488h-3s-1-3-4-3-4 3-4 3-1-1-2-1c-3 0-5 2-5 2s-1-1-2-1c-3 0-5 2-5 2s.625-3.783-.623-5.338z" fill="#e6dfa4"/><path d="m6 35s1-6 6-6c3 0 6 4 6 4s2-5 4-5c3 0 2 10 2 10s-2 6-5 6c-15 0-13-9-13-9z" opacity=".2"/><path d="m6 34s1-6 6-6c3 0 6 4 6 4s2-5 4-5c3 0 2 10 2 10s-2 6-5 6c-15 0-13-9-13-9z" fill="#4f877c"/><path d="m22 27c-2 0-4 5-4 5s-3-4-6-4c-5 0-6 6-6 6s-.134.642-.06 1.572c.024-.335.06-.572.06-.572s1-6 6-6c3 0 6 4 6 4s2-5 4-5c1.747 0 2.125 3.376 2.146 6.209.062-2.96-.184-7.209-2.146-7.209z" fill="#f4f4f7" opacity=".2"/><path d="m10 25-2 4s0 3 5 3 5-3 5-3l-3-5z" opacity=".2"/><path d="m10 24-2 4s0 3 5 3 5-3 5-3l-3-5z" fill="#4f877c"/><path d="m23 11-2-3" fill="none" stroke="#e6dfa4" stroke-linecap="round" stroke-linejoin="round" stroke-width="4"/><circle cx="29" cy="14" opacity=".2" r="3"/><circle cx="29" cy="13" fill="#f4f4f7" r="3"/><circle cx="29" cy="13" fill="#17191e" r="1"/><path d="m4 30c0-12 3-20 14-20 2 7 8 15 12 15 3 0 1-3 3-3s1 2 1 2-1 3-4 3c-4 0-12-4-26 3z" opacity=".2"/><path d="m4 29c0-12 3-20 14-20 2 7 8 15 12 15 3 0 1-3 3-3s1 2 1 2-1 3-4 3c-4 0-12-4-26 3z" fill="#af2323"/><path d="m18 9c-11 0-14 8-14 20l.018-.008c.17-11.431 3.296-18.992 13.982-18.992 2 7 8 15 12 15 3 0 1-3 3-3 .7 0 1.02.251 1.156.57.17-.586.253-1.57-1.156-1.57-2 0 0 3-3 3-4 0-10-8-12-15z" fill="#f4f4f7" opacity=".1"/><path d="m29 25s-3 0-3 2c0 3 .997 5.016 1 5 0 0 3-2 2-5h2c-1 3 1 5 1 5s1-2 1-5c0-2-2-2-2-2z" opacity=".2"/><path d="m29 24s-3 0-3 2c0 3 .997 5.016 1 5 0 0 3-2 2-5h2c-1 3 1 5 1 5s1-2 1-5c0-2-2-2-2-2z" fill="#d63030"/><path d="m29 24s-3 0-3 2c0 .245.015.472.027.703.284-1.7 2.973-1.703 2.973-1.703h2s1.807.02 1.969 1.766c.014-.25.031-.5.031-.766 0-2-2-2-2-2zm0 3c.084.25.13.492.162.729.033-.234.047-.476.031-.729zm1.77 0c-.056.41-.055.79-.02 1.146.038-.363.116-.745.25-1.146zm-9.791-21.023a2 2 0 0 0 -1.915 2.55 2 2 0 0 1 1.936-1.527 2 2 0 0 1 1.686.914l2 3a2 2 0 0 1 .273.582 2 2 0 0 0 -.295-1.605l-2-3a2 2 0 0 0 -1.685-.914z" fill="#f4f4f7" opacity=".2"/></svg>