<svg xmlns="http://www.w3.org/2000/svg" width="48" height="48" version="1"><rect style="opacity:.2" width="40" height="40" x="4" y="5" rx="12" ry="12"/><rect style="fill:#0071c5" width="40" height="40" x="4" y="4" rx="12" ry="12"/><path style="opacity:.2" d="M28.418 14.002c-4.349.06-9.187 1.346-13.145 3.773v.668C24.41 13.691 37.13 13.79 38.3 20.746c.369 2.164-.705 4.4-2.662 5.826v1.926c2.549-1.212 4.981-4.383 4.22-8.25-.843-4.295-5.71-6.326-11.439-6.246zM13 18.799v1.6h1.6v-1.6zm-2.092 2.097c-2.263 2.327-3.44 5.19-2.676 8.53 1.058 4.649 6.715 7.282 15.348 6.408 3.28-.332 7.516-1.408 10.602-3.067v-2.511c-2.85 1.65-7.263 2.996-10.983 3.355-6.322.608-12.912-.35-13.836-5.5-.389-2.187.384-4.485 1.545-6.15zM22 21v2h.004L22 27.41c0 .794.38 1.481 1.5 1.59H25v-1.6h-1.4v-2.8H25V23h-1.4v-2zm10.4 0v4.13h.004l-.004 1.71c0 1.077.404 2.012 1.6 2.16v-8zm-19.398 2L13 27.41c0 .794.404 1.481 1.6 1.59v-6zM16 23v6h1.6v-4.674h1.219c.452 0 .64.219.64.576V29H21v-4.207c0-.852-.461-1.791-1.816-1.791zm12.621 0c-1.486 0-2.62 1.08-2.62 2.994C26 28.232 27.296 29 28.652 29c1.036 0 1.624-.349 2.185-.924l-.875-.867c-.363.373-.673.554-1.3.554-.802 0-1.255-.553-1.255-1.304H31v-.532C31 24.265 30.133 23 28.621 23zm-.062 1.216c.728 0 1.002.609 1.03 1.24h-2.18c.009-.257.043-.422.134-.632.158-.349.531-.608 1.016-.608z"/><path style="fill:#f4f4f7" d="M28.418 13.002c-4.35.06-9.188 1.346-13.145 3.773v.667c9.136-4.751 21.856-4.652 23.026 2.304.368 2.164-.705 4.4-2.662 5.826v1.925c2.549-1.21 4.982-4.382 4.221-8.25-.843-4.294-5.711-6.324-11.44-6.245zm-17.51 6.895c-2.263 2.327-3.44 5.188-2.675 8.528 1.057 4.65 6.713 7.283 15.347 6.409 3.279-.332 7.516-1.407 10.602-3.066v-2.512c-2.849 1.65-7.264 2.996-10.983 3.355-6.322.608-12.912-.35-13.836-5.5-.389-2.188.384-4.485 1.546-6.15z"/><path style="fill:#f4f4f7" d="M14.6 22h-1.598L13 26.41c0 .794.404 1.481 1.6 1.59zM13 19.6h1.6V18H13zM18.818 23.326c.452 0 .64.22.64.576V28H21v-4.207c0-.852-.46-1.791-1.816-1.791L16 22v6h1.6v-4.674zM22 20v2h.003L22 26.41c0 .793.38 1.481 1.5 1.59H25v-1.6h-1.4v-2.8H25V22h-1.4v-2zM32.4 19v5.13h.003l-.003 1.71c0 1.078.404 2.012 1.6 2.16v-9zM28.62 22C27.136 22 26 23.081 26 24.995 26 27.233 27.297 28 28.652 28c1.036 0 1.625-.349 2.186-.924l-.875-.866c-.363.373-.673.554-1.301.554-.802 0-1.253-.554-1.253-1.305H31v-.53C31 23.265 30.132 22 28.62 22zm-.062 1.216c.728 0 1.003.608 1.03 1.24h-2.18c.01-.258.044-.422.136-.632.158-.348.53-.608 1.014-.608z"/><path style="fill:#f4f4f7;opacity:.1" d="M16 4C9.352 4 4 9.352 4 16v1C4 10.352 9.352 5 16 5h16c6.648 0 12 5.352 12 12v-1c0-6.648-5.352-12-12-12H16z"/></svg>