<svg xmlns="http://www.w3.org/2000/svg" width="48" height="48" version="1"><path style="opacity:.2" d="M6 5c-1.108 0-2 .892-2 2v18a20 20 0 0 0 20 20h18c1.108 0 2-.892 2-2V7c0-1.108-.892-2-2-2H24z"/><path style="fill:#4f4f4f" d="M6 4c-1.108 0-2 .892-2 2v18a20 20 0 0 0 20 20h18c1.108 0 2-.892 2-2V6c0-1.108-.892-2-2-2H6z"/><path style="opacity:.2" d="M8 9v16.04c.001.478.031.948.074 1.415a16.164 16.164 0 0 0 .455 2.588c.034.128.06.26.096.387l.002-.004c.06.21.121.421.19.629h-.003c.102.307.215.608.334.906.096.239.197.474.303.707.047.102.098.202.147.303.226.47.473.925.742 1.367l.01.017c.11.18.21.366.328.541l-.004-.002.027.04c.043.063.09.122.133.185.217.314.445.62.684.918.073.091.145.182.22.272.271.322.555.632.85.931.086.088.175.172.264.258.255.248.519.487.79.717.076.063.147.13.223.193l.037.03c.298.24.608.468.922.687a15.924 15.924 0 0 0 1.416.887h.002a15.895 15.895 0 0 0 3.77 1.474l.013.004c.565.143 1.14.255 1.727.336l.045.008c.35.047.7.084 1.057.11.144.01.29.014.435.02.237.011.47.036.709.036H40V9H23.998z"/><path style="fill:#c6783d" d="M8 8v16.04A15.939 15.939 0 0 0 23.999 40H40V8H23.999z"/><path style="opacity:.1;fill:#f4f4f7" d="M26.572 9c-.1.045-.18.155-.267.36-.114.264-.19.209-.676-.348-.418.011-.752.033-.752.064 0 .042.292.415.65.828.636.734.653.745.778.455.192-.45.339-.492.77-.226.432.267.802.316.802.107 0-.073-.148-.383-.326-.687l-.149-.254a2.006 2.006 0 0 1-.328-.166 1.456 1.456 0 0 0-.26-.133h-.242zm3.287 0 .04.268a.55.55 0 0 0 .257.375l.438.214c.141.07.206.22.181.426-.028.23.114.489.52.946.372.418.624.86.758 1.32.211.726.548 1.076 1.035 1.076.2 0 .352.136.521.469.132.258.357.573.498.7.272.247.289.247 1.846-.06.68-.134.841-.125 1.438.088.579.207.714.322.982.828.17.323.424.639.563.702.377.17.548.049.693-.49.072-.269.184-.487.25-.487.074 0 .121-1.231.121-3.188v-1c0 1.957-.047 3.188-.121 3.188-.066 0-.178.218-.25.486-.145.54-.316.661-.693.49-.14-.062-.392-.378-.563-.7-.268-.507-.403-.622-.982-.829-.597-.213-.758-.222-1.438-.088-1.557.307-1.574.307-1.846.06-.141-.127-.366-.442-.498-.7-.17-.333-.32-.469-.521-.469-.487 0-.824-.35-1.035-1.076-.134-.46-.386-.902-.758-1.32-.406-.457-.548-.715-.52-.946A.47.47 0 0 0 30.73 9h-.87zm-7.765 1.244c-.147-.016-.113.296.156.852.294.609.55.79 1.063.748.281-.023.375-.094.375-.281 0-.174-.13-.292-.418-.385-.23-.075-.558-.314-.729-.532-.207-.263-.36-.392-.447-.402zm6.492.852c-.116.015-.143.087-.135.279.019.433.372 1.7.662 2.375.133.31.307.74.387.957.08.217.439.71.797 1.094.557.598.716.699 1.1.699.547 0 .757-.229.773-.844.003-.133-.039-.298-.11-.496-.11.231-.312.34-.664.34-.383 0-.542-.101-1.1-.7-.357-.384-.715-.876-.796-1.093-.08-.217-.254-.648-.387-.957-.187-.437-.394-1.108-.527-1.654zm-4.623 2.576c-.036-.004-.076.015-.117.057a.232.232 0 0 0-.034.271c.061.098.134.105.217.021a.232.232 0 0 0 .035-.271c-.03-.049-.065-.075-.101-.078zm4.596 1.201c-.32.511-.392.85-.145 1.266.06-.122.112-.238.209-.385.358-.54.351-.661-.064-.881zm-.399.799c-.013.013-.02.058-.023.13-.006.133.023.206.064.165.042-.042.046-.15.01-.24-.02-.05-.038-.068-.05-.055zm.147 1.24c-.101.29-.288.615-.543.887-.16.169-.257.358-.22.42.039.061-.02.277-.13.478-.255.468-.456 1.658-.437 2.598.014.711.006.73-.29.674-.282-.054-.268-.015.204.549.025.03.048.052.072.076.003-.1.017-.129.014-.3-.019-.94.182-2.13.437-2.597.11-.201.169-.417.13-.478-.037-.062.06-.251.22-.42.467-.498.738-1.185.584-1.483-.018-.034-.014-.046.01-.037.07.029.31.243.626.565.3.305.491.52.608.697-.115-.175-.3-.388-.59-.686-.384-.393-.605-.676-.695-.943zm-1.455.713c-.152 0-.121.305.048.475.197.196.352.191.352-.012 0-.18-.245-.463-.4-.463zm-3.057 2.564c-.394-.024-1.062.084-1.399.258-.227.118-.379.125-.605.022-.266-.121-.345-.09-.664.26-.2.218-.424.396-.498.396-.074 0-.356-.146-.625-.324-.27-.179-.548-.287-.621-.242-.073.045-.133.334-.133.644 0 .679-.147.999-.668 1.45-.211.182-.282.29-.244.33-.045-.02-.057-.06-.012-.14.05-.085-.05-.029-.22.126-.044.04-.11.069-.169.103-.006-.04-.037-.072-.109-.072-.103 0-.223.056-.265.125-.024.039-.014.069.013.092-.049.01-.104.036-.146.037-.394.004-.93.37-.93.635 0 .057-.09.182-.229.34.124.2.229.453.229.607 0 .145-.381.573-.852 1.014.466-.428.852-.839.852-.961 0-.264.536-.63.93-.635.042 0 .097-.027.146-.037-.027-.023-.037-.053-.014-.092.043-.069.163-.125.266-.125.072 0 .103.032.11.072.057-.034.124-.063.167-.103.17-.155.27-.211.221-.125-.045.079-.033.12.012.138-.038-.04.033-.147.244-.33.384-.332.562-.595.63-.982.025-.138.038-.289.038-.467 0-.31.06-.6.133-.644.073-.045.351.063.62.242.27.178.552.324.626.324.074 0 .298-.178.498-.396.32-.35.398-.381.664-.26.226.103.378.096.605-.022.45-.233 1.486-.348 1.68-.187.09.074.495.313.9.531.5.268 1.012.708 1.59 1.365.17.24.329.4.483.53-.055-.06-.104-.103-.158-.168-.472-.564-.486-.603-.203-.55.222.043.265-.058.275-.364a2.656 2.656 0 0 1-.397-.448c-.578-.657-1.09-1.097-1.59-1.365-.405-.218-.81-.457-.9-.531-.048-.04-.15-.062-.281-.07zm-7.729 2.786c-.067-.048-.224.022-.35.156-.124.134-.32.244-.437.244-.116 0-.51.124-.877.275-.664.276-.666.277-.588.739.164.97-.53 1.582-1.613 1.42-.76-.115-1.129.13-1.537 1.021-.296.648-.334.68-.682.604-.478-.105-.904.174-1.224.802-.037.072-.087.129-.133.194A16.145 16.145 0 0 1 8 24.04v1c.004 1.526.228 2.995.625 4.39.046-.065.096-.122.133-.194.32-.628.746-.907 1.224-.802.348.076.386.044.682-.604.408-.891.776-1.136 1.537-1.021 1.084.162 1.777-.45 1.613-1.42-.078-.462-.076-.463.588-.739.366-.151.761-.275.877-.275.117 0 .313-.11.438-.244s.282-.204.35-.156a.913.913 0 0 1 .197.242c.145-.172.236-.31.236-.381 0-.238-.246-.727-.434-.861zm3.362.587zm-.754.358z"/><path style="fill:#3876d2" d="M8 8v16.039c.004 1.527.228 2.996.625 4.39.046-.064.097-.121.133-.193.32-.628.746-.907 1.225-.802.348.076.385.044.681-.604.408-.891.777-1.136 1.537-1.021 1.084.162 1.778-.45 1.614-1.42-.078-.462-.076-.463.588-.739.366-.151.76-.275.877-.275.116 0 .313-.11.437-.244.125-.134.283-.204.35-.156.188.134.434.623.434.86 0 .146-.382.574-.852 1.015.466-.428.852-.839.852-.961 0-.264.536-.63.93-.635.042 0 .097-.027.146-.037-.027-.023-.038-.053-.014-.092.043-.069.163-.125.266-.125.072 0 .103.032.11.072.057-.034.123-.063.167-.103.17-.155.27-.211.22-.125-.045.079-.032.12.013.138-.038-.04.033-.147.244-.33.52-.45.668-.77.668-1.449 0-.31.06-.6.133-.644.072-.045.351.063.62.242.27.178.552.324.626.324.074 0 .298-.178.498-.396.319-.35.398-.381.664-.26.226.103.378.096.605-.022.45-.233 1.484-.348 1.678-.187.09.074.496.313.9.531.5.268 1.012.708 1.59 1.365.17.24.33.4.483.53-.054-.06-.103-.103-.158-.168-.472-.564-.486-.603-.203-.55.295.057.303.038.289-.673-.019-.94.182-2.13.437-2.598.11-.201.17-.417.131-.478-.038-.062.06-.251.219-.42.468-.498.738-1.185.584-1.483-.018-.034-.014-.046.01-.037.07.029.31.243.627.565.3.305.49.52.607.697-.114-.175-.3-.388-.59-.686-.888-.91-.949-1.242-.379-2.101.384-.579.37-.674-.142-.928-.225-.111-.3-.266-.33-.67-.03-.41-.117-.579-.395-.777-.196-.14-.49-.254-.656-.254-.455 0-.645-.226-1.041-1.238-.327-.835-.414-.948-.875-1.153-.324-.143-.733-.504-1.116-.98L23.462 8zm18.052 0c-.647 0-1.176.034-1.176.076 0 .042.293.415.65.828.636.734.654.745.778.455.193-.45.34-.492.77-.226.432.267.802.316.802.107 0-.073-.148-.383-.326-.687L27.226 8zm3.807 0 .039.268a.55.55 0 0 0 .258.375l.437.214c.142.07.207.22.182.426-.028.23.114.489.52.946.371.418.624.86.757 1.32.211.726.548 1.076 1.035 1.076.2 0 .352.136.522.469.132.258.356.573.498.7.272.247.288.247 1.846-.06.68-.134.841-.125 1.437.088.58.207.715.322.983.828.17.323.424.639.562.702.378.17.549.049.694-.49.072-.269.184-.487.25-.487.074 0 .121-1.231.121-3.188V8zm-1.268 2.092c-.124.013-.149.087-.14.283.018.433.372 1.7.662 2.375.132.31.306.74.386.957.08.217.44.71.797 1.094.557.598.716.699 1.1.699.547 0 .758-.229.773-.844.01-.368-.2-.841-.988-2.219-.906-1.584-1.055-1.775-1.56-2.027-.308-.153-.698-.293-.87-.312a.808.808 0 0 0-.16-.006zm-6.496.152c.088.01.24.139.447.402.17.218.499.457.728.532.29.093.418.211.418.384 0 .188-.093.259-.375.282-.511.042-.768-.14-1.062-.748-.269-.556-.303-.868-.156-.852zm1.869 3.428c.036.003.07.03.1.078.05.08.033.203-.036.271-.083.084-.154.077-.215-.021a.232.232 0 0 1 .034-.271c.041-.042.08-.06.117-.057zm4.195 2c.014-.013.031.005.051.055.036.09.032.198-.01.24-.041.041-.07-.032-.064-.164.003-.073.01-.118.023-.131zm-1.308 1.953c.156 0 .4.283.4.463 0 .203-.155.208-.351.012-.17-.17-.2-.475-.05-.475zm-7.423 4.938zm9.103.181c-.122.046-.2.059-.342.131-.056.028-.078.025-.133.05.15-.04.309-.1.475-.18zm-9.857.176z"/><path style="opacity:.1" d="M36.557 17.719c-.02.01-.03.018-.051.029-.553.282-.594.291-.668.158-.002-.002 0-.014-.002-.017-.043.426-.058.91.002 1.017.074.133.115.124.668-.158.556-.284.62-.437.228-.539-.207-.054-.253-.13-.177-.49zm-6.623 1.717a.875.875 0 0 0 .011.369c.045.24.011.615-.08.867-.14.386-.135.475.05.678.004.005.008.015.013.021.032-.2.047-.408.017-.566-.062-.335-.025-.47.176-.643.341-.292.32-.518-.058-.662a.704.704 0 0 1-.13-.064zm-.141 2.724c-.184-.023-.368.042-.53.203-.144.145-.335.262-.423.262-.089 0-.38.113-.65.25s-.559.25-.641.25c-.075 0-.33-.239-.586-.531-.009.316-.05.418-.276.375-.282-.054-.268-.015.204.549.28.333.576.607.658.607.082 0 .37-.113.64-.25s.562-.25.65-.25c.09 0 .28-.117.425-.262.17-.17.367-.242.562-.205.253.049.299.007.299-.26a.947.947 0 0 0-.21-.548.563.563 0 0 1-.122-.19zm-6.875.615c-.014.067-.03.136-.022.18.017.086.123.167.27.242.026-.057.084-.145.084-.17 0-.055-.15-.154-.332-.252zm11.707.854c-.315.004-.563.094-.563.295 0 .24.045.274.813.615.813.361 1.222.234 1.078-.338-.087-.347-.803-.579-1.328-.572zm-5.82 2.588c-.144.02-.31.033-.53.033-.92 0-.952.012-3.002 1.17-.571.323-1.333.665-1.689.76-4 1.06-5.623 1.587-6.521 2.119-.782.462-.888.518-1.813.949-1.045.487-2.048 1.082-2.104 1.248-.084.255 1.22.05 1.604-.252.568-.447 1.798-1.244 1.918-1.244.065 0 .395-.17.736-.38.412-.254 1.09-.49 2.014-.698.766-.173 1.95-.478 2.629-.68.68-.201 1.354-.368 1.5-.369.241-.001.48-.119 1.83-.91 1.616-.947 2.244-1.213 2.865-1.213.35 0 .634.042.633.094 0 .03-.109.23-.186.38.594-.057.698-.25.317-.656a1.01 1.01 0 0 1-.201-.351zm6.623.908c-.24 0-.366.585-.176.814.172.207.448.244.553.075.111-.18-.19-.889-.377-.889zm-7.012.635c-.194.39-.174.583.05.906.034-.062.054-.11.096-.184.172-.299.312-.587.313-.638 0-.042-.205-.072-.459-.084zm-1.389 1.644a.635.635 0 0 0-.48.346c-.521 1.087-.58 1.357-.483 2.24.064-.325.21-.67.483-1.24.183-.383.72-.476 1.144-.197.442.289.793.247.96-.117.12-.267.1-.374-.13-.684-.026-.036-.036-.06-.058-.092-.189.13-.455.1-.772-.107a.934.934 0 0 0-.664-.149zm-17.9.506c-.099.045-.231.112-.313.145a15.865 15.865 0 0 0 1.536 3.3c.212.05.422.105.558.159.09.035.178.06.27.09a15.884 15.884 0 0 1-.504-.71c.31.143 1.169.134 1.264-.019.042-.069-.037-.125-.176-.125-.14 0-.523-.106-.854-.236a4.64 4.64 0 0 0-.558-.159 16.1 16.1 0 0 1-1.223-2.445zm30.748 2.84a.125.125 0 0 0-.125.125c0 .069.056.125.125.125a.125.125 0 0 0 .125-.125.125.125 0 0 0-.125-.125zm-29.201 1.145a15.926 15.926 0 0 0 5.566 5.117c1.145-.45 2.574-.697 2.95-.385.098.081.215.353.26.603.044.251.195.583.335.737.113.124.193.332.227.52.583.147 1.177.264 1.785.347.212-.099.314-.238.271-.412-.035-.146.022-.441.13-.656.16-.324.267-.391.622-.391.41 0 .43-.02.43-.451 0-.443.008-.452.406-.373.224.044.718.113 1.096.154.032.004.061.013.094.018a.475.475 0 0 1 .304-.098c.137 0 .204.084.211.215.124.04.243.084.291.127a.517.517 0 0 0 .264.117.282.282 0 0 1 .283-.209c.123 0 .21.089.248.193.035.02.055.054.055.11 0 .361.248.322.732-.115.55-.498.703-.962.838-2.569.038-.451.047-.736-.01-.914-.133 1.526-.289 1.996-.828 2.483-.484.437-.732.476-.732.115l-.002-.01c-.068.047-.133.08-.174.078-.046-.001-.162-.074-.289-.166a.541.541 0 0 1-.385-.113c-.117-.103-.522-.221-.9-.262-.378-.04-.872-.11-1.096-.154-.398-.079-.406-.07-.406.373 0 .43-.02.451-.43.451-.355 0-.461.067-.623.39-.107.216-.164.511-.129.657.043.174-.059.313-.271.412-.608-.083-1.202-.2-1.785-.348-.034-.187-.114-.395-.227-.52-.14-.153-.291-.485-.336-.736-.044-.25-.161-.522-.26-.603-.375-.312-1.804-.064-2.949.385a15.929 15.929 0 0 1-4.761-4.024c-.289.015-.63-.013-.805-.093zm29.201 1.042c-.14.087-.17.725-.041.854.146.146.166.094.166-.424 0-.306-.05-.476-.125-.43zm-10.354.065c-.91.004-1.067.564-.183.656a4.7 4.7 0 0 1 .516.07c.111.06.521-.26.521-.406 0-.218-.278-.322-.854-.32zm-4.052.398c-.302-.06-.408.297-.211.702.068.14.103.234.13.31.028-.002.049-.018.08-.012.13.026.179.155.2.38.234.213.565.463.658.466.075.002.229-.097.342-.223.302-.333.008-.718-.459-.601-.503.126-.52.11-.52-.453 0-.4-.053-.535-.22-.569zm1.789 1.1c-.158 0-.27.195-.17.295.14.14.289.086.289-.108 0-.103-.055-.187-.12-.187zm-3.094.297c-.023.01-.037.034-.037.07 0 .073.056.133.125.133s.125-.024.125-.055c0-.03-.056-.09-.125-.133-.034-.02-.065-.025-.088-.015zM40 37.369l-.004.002c-.003.471-.021.879-.049.879-.03 0-.254-.19-.5-.422-.04-.038-.056-.067-.092-.103-.458.292-.443.598.092 1.103.246.232.47.422.5.422.03 0 .053-.422.053-.94v-.94zm-15.836.428c.023-.01.054-.006.088.016.069.042.125.102.125.132 0 .03-.056.055-.125.055s-.125-.06-.125-.133c0-.036.014-.06.037-.07zm11.467.006-.024.082c-.109.365-.084.63.135 1.43.148.539.261 1.098.25 1.24-.01.142-.013.3-.006.351.008.052.415.094.905.094.865 0 .887-.008.8-.281a5.342 5.342 0 0 1-.146-.657l-.014-.093c-.12.022-.275.031-.64.031-.49 0-.897-.042-.905-.094a2.357 2.357 0 0 1 .006-.351c.011-.142-.102-.701-.25-1.24-.064-.234-.079-.354-.111-.512zm-10.48 1.822c-.373 0-.525.238-.37.578.164.36.294.375.465.055.196-.366.156-.633-.096-.633zm1.048.25c-.235 0-.365.21-.275.443.08.208.19.224.44.067.212-.135.09-.51-.165-.51zM23.367 40c-.05 0-.125.194-.17.43-.047.253-.168.45-.295.484-.037.01-.049.02-.048.03.143.01.288.015.433.02.136-.02.254-.056.287-.11.061-.099.024-.121-.117-.067-.191.074-.195.05-.027-.275.171-.333.15-.512-.063-.512zm16.512.375c-.111 0-.379.392-.379.555 0 .039.113.07.25.07.183 0 .25-.083.25-.313 0-.171-.055-.312-.121-.312z"/><path style="fill:#56d147" d="M36.162 16.143a.36.36 0 0 0-.195.091c-.128.128-.233 1.488-.13 1.672.075.133.116.124.669-.158.555-.284.62-.437.228-.539-.262-.069-.273-.152-.096-.83.044-.167-.246-.275-.476-.236zm-7.805.136c-.024-.01-.028.003-.01.037.154.298-.117.985-.584 1.483-.159.169-.257.358-.219.42.038.061-.02.277-.13.478-.256.468-.457 1.658-.438 2.598.014.711.006.73-.29.674-.282-.054-.268-.015.204.549.28.333.576.607.658.607.082 0 .371-.113.64-.25.27-.137.563-.25.651-.25.089 0 .28-.117.424-.262.17-.17.367-.242.563-.205.253.049.298.007.298-.26a.947.947 0 0 0-.21-.548c-.184-.203-.19-.292-.05-.678.092-.252.126-.627.08-.867-.062-.335-.025-.47.176-.643.342-.292.32-.518-.058-.662-.239-.09-.313-.209-.313-.498 0-.296-.166-.549-.765-1.158-.317-.322-.558-.536-.627-.565zM22.15 21.5c-.358 0-1.893.599-2.723 1.063-.8.447-1.266.567-1.101.28.05-.085-.05-.029-.22.126-.171.154-.475.283-.677.285-.393.004-.93.37-.93.635 0 .258-1.67 1.77-2.332 2.111-.333.172-.95.562-1.373.865-.89.64-3.06 1.816-3.98 2.19a15.866 15.866 0 0 0 1.535 3.3c.212.05.422.105.558.159.331.13.715.236.854.236s.218.056.176.125c-.095.153-.953.162-1.264.02a15.927 15.927 0 0 0 5.567 5.117c1.144-.45 2.573-.697 2.95-.385.097.081.214.353.259.603.045.251.195.583.336.737.113.124.193.332.226.52.584.147 1.178.264 1.786.347.212-.099.314-.238.271-.412-.035-.146.022-.441.13-.656.16-.324.267-.391.622-.391.409 0 .43-.02.43-.451 0-.443.008-.452.406-.373.224.044.716.113 1.094.154.378.04.783.159.9.262.137.12.33.158.532.107.231-.058.318-.03.318.104 0 .361.248.322.733-.116.55-.497.702-.961.838-2.568.097-1.161.02-1.25-.946-1.117-.378.052-.735.051-.793-.002-.058-.053-.119-.4-.135-.768a27.844 27.844 0 0 0-.13-1.578c-.105-.92-.052-1.174.478-2.279.183-.383.72-.476 1.145-.197.441.289.793.247.959-.118.121-.266.1-.373-.13-.683-.344-.467-.338-.604.042-1.27.17-.299.311-.587.312-.638.001-.052-.284-.094-.633-.094-.62 0-1.249.266-2.865 1.213-1.35.791-1.587.909-1.828.91-.146 0-.821.168-1.5.37-.68.2-1.863.506-2.63.679-.923.208-1.602.8b9cbe-2.013.697-.341.21-.672.381-.737.381-.12 0-1.35.797-1.918 1.244-.383.302-1.688.507-1.603.252.055-.166 1.058-.76 2.103-1.248.926-.431 1.032-.487 1.813-.95.899-.531 2.521-1.059 6.522-2.118.356-.095 1.116-.437 1.688-.76 2.049-1.158 2.08-1.17 3.002-1.17.987 0 1.191-.19.73-.682-.152-.161-.265-.426-.252-.588.056-.674-.176-.841-.754-.543-.198.103-.673.188-1.054.188-.686 0-.76-.05-.702-.48.013-.093-.073-.276-.191-.407-.176-.194-.369-.235-1.04-.217-.99.028-2.055-.256-2.115-.566-.023-.12.046-.353.155-.52.109-.166.199-.35.199-.408 0-.136-.817-.527-1.1-.527zm12.474 1.129c-.315.004-.563.094-.563.295 0 .24.045.274.813.615.813.361 1.221.234 1.078-.338-.087-.347-.803-.579-1.328-.572zm.802 3.496c-.24 0-.365.585-.175.814.171.207.448.244.552.075.112-.18-.189-.889-.377-.889zm4.448 5.625a.125.125 0 0 0-.125.125c0 .069.056.125.125.125a.125.125 0 0 0 .125-.125.125.125 0 0 0-.125-.125zm0 2.188c-.14.086-.17.724-.041.853.146.146.166.094.166-.424 0-.306-.05-.476-.125-.43zm-10.354.064c-.91.004-1.067.564-.184.656.262.027.494.059.516.07.112.06.521-.26.521-.406 0-.218-.277-.322-.853-.32zM25.468 35.4c.167.034.22.168.22.569 0 .564.017.58.52.453.467-.117.761.268.46.601-.114.126-.267.225-.343.223-.143-.004-.88-.61-.896-.736a2.694 2.694 0 0 0-.172-.408c-.197-.405-.09-.761.21-.702zm10.608.579c-.143-.059-.214.007-.26.177-.041.155-.135.482-.209.729-.109.365-.085.63.135 1.43.148.539.26 1.098.25 1.24-.01.142-.014.3-.006.351.008.052.415.094.904.094.866 0 .888-.008.801-.281a5.342 5.342 0 0 1-.146-.657c-.325-2.13-.303-2.058-.776-2.517-.334-.325-.55-.508-.693-.566zm3.924.39-.5.256c-.635.324-.648.641-.053 1.203.246.232.47.422.5.422.03 0 .053-.422.053-.94zm-12.743.131c.065 0 .12.084.12.187 0 .194-.15.249-.29.108-.1-.1.012-.295.17-.295zm-3.094.297c.023-.01.054-.006.088.016.069.042.125.102.125.132 0 .03-.056.055-.125.055s-.125-.06-.125-.133c0-.036.014-.06.037-.07zm.986 1.828c-.372 0-.524.238-.369.578.165.36.294.375.465.055.196-.366.156-.633-.096-.633zm1.05.25c-.236 0-.366.21-.276.443.08.208.19.224.44.067.212-.135.09-.51-.165-.51zm-2.83.125c-.05 0-.127.194-.17.43-.048.253-.169.45-.296.484-.037.01-.049.02-.049.03.144.01.29.015.434.02.136-.02.254-.056.287-.11.061-.099.024-.121-.117-.067-.191.074-.195.05-.027-.275.171-.333.15-.512-.063-.512zm16.51.375c-.111 0-.379.392-.379.555 0 .039.112.07.25.07.183 0 .25-.083.25-.313 0-.171-.055-.312-.121-.312z"/><path style="fill:#f4f4f7;opacity:.1" d="M8 8v1h32V8H8zM6 4c-1.108 0-2 .892-2 2v1c0-1.108.892-2 2-2h36c1.108 0 2 .892 2 2V6c0-1.108-.892-2-2-2H6z"/></svg>