<svg height="48" width="48" xmlns="http://www.w3.org/2000/svg">
    <rect height="40" opacity=".2" rx="2" width="34" x="12" y="5"/>
    <path d="M14 4c-1.108 0-2 .892-2 2v8l17 6 17-6V6c0-1.108-.892-2-2-2z" fill="#41a5ee"/>
    <path d="M12 14h34v10l-17 4-17-4z" fill="#2b7cd3"/>
    <path d="M12 24h34v10l-17 4-17-4z" fill="#1650a7"/>
    <path d="M12 34v8c0 1.108.892 2 2 2h30c1.108 0 2-.892 2-2v-8z" fill="#103f91"/>
    <path d="M12 24h34v1H12zm0 10h34v1H12zm0-20h34v1H12z" opacity=".1"/>
    <path d="M14 4c-1.108 0-2 .892-2 2v1c0-1.108.892-2 2-2h30c1.108 0 2 .892 2 2V6c0-1.108-.892-2-2-2z" fill="#f4f4f7" opacity=".2"/>
    <rect height="22" opacity=".2" rx="2" width="22" x="2" y="14"/>
    <rect fill="#185abd" height="22" rx="2" width="22" x="2" y="13"/>
    <path d="M18.53 31h-2.52l-2.94-9.66L9.99 31H7.47l-2.8-14h2.52l1.96 9.8 2.94-9.8h2.1l2.8 9.8 1.96-9.8h2.38z" fill="#f4f4f7"/>
</svg>
