<svg height="48" width="48" xmlns="http://www.w3.org/2000/svg">
    <path d="M6 4c-1.108 0-2 .892-2 2v36c0 1.108.892 2 2 2h22l16-16V6c0-1.108-.892-2-2-2z" opacity=".2"/>
    <path d="M6 3c-1.108 0-2 .892-2 2v36c0 1.108.892 2 2 2h22l16-16V5c0-1.108-.892-2-2-2z" fill="#579c3b"/>
    <path d="M17 11A10 10 0 0 0 7 21a10 10 0 0 0 10 10 10 10 0 0 0 10-10 10 10 0 0 0-.05-1H32v15h3V20h6v-3H26.16A10 10 0 0 0 17 11zm0 3a7 7 0 0 1 7 7 7 7 0 0 1-7 7 7 7 0 0 1-7-7 7 7 0 0 1 7-7z" opacity=".2"/>
    <path d="M35 19v15h-3V19z" fill="#f4f4f7"/>
    <path d="M44 27H30a2 2 0 0 0-2 2v14z" fill="#85df66"/>
    <path d="M6 3c-1.108 0-2 .892-2 2v1c0-1.108.892-2 2-2h36c1.108 0 2 .892 2 2V5c0-1.108-.892-2-2-2zm24 24a2 2 0 0 0-2 2v1a2 2 0 0 1 2-2h13l1-1z" fill="#fff" opacity=".2"/>
    <g fill="#f4f4f7">
        <path d="M26 16h15v3H26z"/>
        <path d="M17 10A10 10 0 0 0 7 20a10 10 0 0 0 10 10 10 10 0 0 0 10-10 10 10 0 0 0-10-10zm0 3a7 7 0 0 1 7 7 7 7 0 0 1-7 7 7 7 0 0 1-7-7 7 7 0 0 1 7-7z"/>
    </g>
</svg>
