<svg xmlns="http://www.w3.org/2000/svg" width="48" height="48" version="1"><path style="opacity:.2" d="M4 40v1c0 1.108.892 2 2 2h36c1.108 0 2-.892 2-2v-1c0 1.108-.892 2-2 2H6c-1.108 0-2-.892-2-2z"/><rect style="fill:#8e8e8e" width="40" height="36" x="4" y="6" rx="2" ry="2"/><path style="opacity:.1;fill:#f4f4f7" d="M6 6c-1.108 0-2 .892-2 2v1c0-1.108.892-2 2-2h36c1.108 0 2 .892 2 2V8c0-1.108-.892-2-2-2z"/><path style="fill:#35454e" d="M4 10h40v28H4z"/><path style="opacity:.2" d="M13 16v18h5v-2h-3V18h3v-2h-3zm15 0v2h3v14h-3v2h5V16zm7 4a1 1 0 0 0-1 1 1 1 0 0 0 1 1 1 1 0 0 0 1-1 1 1 0 0 0-1-1zm0 9a1 1 0 0 0-1 1 1 1 0 0 0 1 1 1 1 0 0 0 1-1 1 1 0 0 0-1-1z"/><path style="fill:#267edb" d="M13 15h2v18h-2z"/><path style="fill:#267edb" d="M13 15h5v2h-5zM13 31h5v2h-5z"/><path style="fill:#267edb" transform="scale(-1 1)" d="M-33 15h2v18h-2z"/><path style="fill:#267edb" transform="scale(-1 1)" d="M-33 15h5v2h-5zM-33 31h5v2h-5z"/><path style="opacity:.2" d="m19.875 19.514-1.75.972 4.979 8.961c-.195.35-.39.68-.583.975-.368.564-.732 1.011-1.027 1.275-.294.264-.48.303-.494.303h-1v2h1c.736 0 1.332-.367 1.83-.814.499-.447.94-1.016 1.367-1.67.856-1.31 1.65-2.972 2.35-4.627a77.931 77.931 0 0 0 2.408-6.594l-1.91-.59s-.992 3.216-2.342 6.406c-.166.393-.35.763-.525 1.149z"/><path style="fill:none;stroke:#f4f4f7;stroke-width:2" d="m19 19 5 9M28 19s-4 13-7 13h-1"/><path style="fill:#267edb" d="M36 20a1 1 0 0 1-1 1 1 1 0 0 1-1-1 1 1 0 0 1 1-1 1 1 0 0 1 1 1zM36 29a1 1 0 0 1-1 1 1 1 0 0 1-1-1 1 1 0 0 1 1-1 1 1 0 0 1 1 1z"/><path style="opacity:.2" d="M4 10h40v1H4z"/><path style="opacity:.1;fill:#f4f4f7" d="M4 38h40v1H4z"/></svg>