<svg width="48" height="48" xmlns="http://www.w3.org/2000/svg"><g><path d="M43.94 38.08c-.155-1.314-.838-2.426-1.388-3.32-.193-.314-.416-.492-.552-.757-.015-8.115-3.394-17.789-11-21.992.608-.262 2.288-.427 2.894-.538.453-.082.831-.362 1.012-.747.18-.386.14-.828-.11-1.18-.235-.335-1.5-1.145-3.859-1.429-2.861-.344-4.414.08-7.542 1.14-1.835.623-2.726.71-3.758.809-.878.085-1.873.181-3.453.583-4.551 1.158-6.692 2.995-7.907 4.2-.948.942-1.33 1.9-1.277 2.678-.226.113-.346.239-.595.37-1.668.872-2.246 1.28-2.379 1.975-.098.513.082.849.509 1.309.688.639 1.079.819 2.159.819.788 0 1.003-.24 1.974-.453.86-.189 1.929-.423 2.741-.502 1.032-.1 2.063-.004 3.62.3.461.09.984.192 1.557.296.736.132 1.503.4 2.281.4.662 0 1.648.027 2.125-.034.347.648.922 2.02 1.85 3.124 2.42 2.88 4.53 2.872 4.82 2.874.522.007 1.016-.15 1.257-.575.241-.427.2-.936-.111-1.323-.007-.008-.526-.818-.775-2.12-.07-.371-.039-.684-.033-.98 3.221.936 8.325 3.79 8.979 6.898L37 31.004c-.01 0 .01 0 0 0a33.397 33.397 0 0 0-.822-.008c-.586 0-1.22.06-1.938.173-2.334.37-3.691 1.875-3.85 2.046-.365.394-.453 1.35-.19 1.807.262.453.777.72 1.338.677h.026c3.568.493 8.095 2.72 9.561 5.561.23.453.727.74 1.27.74.035 0 .07-.001.105-.004.583-.04 1.077-.404 1.238-.914.041-.132.4-1.332.203-3.003z" style="opacity:.2"/><path d="M43.94 37.08c-.155-1.314-.838-2.426-1.388-3.32-.193-.314-.416-.492-.552-.757-.015-8.115-3.394-17.789-11-21.992.608-.262 2.288-.427 2.894-.538.453-.082.831-.362 1.012-.747.18-.386.14-.828-.11-1.18-.235-.335-1.5-1.145-3.859-1.429-2.861-.344-4.414.08-7.542 1.14-1.835.623-2.726.71-3.758.809-.878.085-1.873.181-3.453.583-4.551 1.158-6.692 2.995-7.907 4.2-.948.942-1.33 1.9-1.277 2.678-.226.113-.346.239-.595.37-1.668.872-2.246 1.28-2.379 1.975-.098.513.082.849.509 1.309.688.639 1.079.819 2.159.819.788 0 1.003-.24 1.974-.453.86-.189 1.929-.423 2.741-.502 1.032-.1 2.063-.004 3.62.3.461.09.984.192 1.557.296.736.132 1.503.4 2.281.4.662 0 1.648.027 2.125-.034.347.648.922 2.02 1.85 3.124 2.42 2.88 4.53 2.872 4.82 2.874.522.007 1.016-.149 1.257-.575.241-.427.2-.936-.111-1.323-.007-.008-.526-.818-.775-2.12-.07-.371-.039-.684-.033-.98 3.221.937 8.325 3.79 8.979 6.898L37 30.004c-.01 0 .01 0 0 0a33.397 33.397 0 0 0-.822-.008c-.586 0-1.22.06-1.938.173-2.334.37-3.691 1.875-3.85 2.046-.365.394-.453 1.35-.19 1.807.262.453.777.72 1.338.677h.026c3.568.493 8.095 2.72 9.561 5.561.23.453.727.74 1.27.74.035 0 .07-.001.105-.004.583-.04 1.077-.404 1.238-.914.041-.132.4-1.332.203-3.003z" style="fill:#d41c46"/><circle cx="10.5" cy="16.5" r="1.5" style="opacity:.2"/><circle cx="10.5" cy="15.5" r="1.5" style="fill:#f4f4f7"/><path d="M28.992 7.002c-1.79.024-3.252.46-5.597 1.256-1.836.622-2.726.709-3.758.808-.878.085-1.873.18-3.453.582-4.552 1.158-6.692 2.996-7.907 4.202-.948.94-1.33 1.9-1.277 2.677-.226.113-.346.239-.596.37-1.668.872-2.245 1.279-2.379 1.974-.053.277-.018.504.086.725.233-.542.858-.949 2.293-1.7.25-.13.37-.256.596-.369-.053-.778.33-1.736 1.277-2.677 1.215-1.206 3.355-3.044 7.907-4.202 1.58-.402 2.575-.497 3.453-.582 1.032-.1 1.922-.186 3.758-.808 3.127-1.06 4.68-1.485 7.543-1.14 2.359.283 3.623 1.092 3.859 1.427.043.061.07.128.101.193l.008-.013c.18-.386.14-.827-.11-1.18-.235-.335-1.5-1.144-3.858-1.428a14.547 14.547 0 0 0-1.946-.115zm3.18 4.732c-.47.079-.919.167-1.172.276 7.606 4.204 10.985 13.877 11 21.992.136.265.36.443.553.758.549.893 1.233 2.006 1.388 3.318v.002c.024.2.019.368.028.553.031-.45.043-.956-.028-1.553v-.002c-.155-1.312-.84-2.425-1.388-3.318-.194-.315-.417-.493-.553-.758-.014-7.683-3.05-16.755-9.828-21.268zM28 23.006c-.006.296-.038.61.033.98.248 1.303.77 2.113.776 2.121.06.076.1.158.14.24.194-.408.152-.876-.14-1.24-.007-.007-.517-.806-.768-2.087L28 23.006zm8.178 6.99c-.586 0-1.22.058-1.938.172-2.334.37-3.691 1.876-3.85 2.047-.314.339-.407 1.079-.263 1.574.057-.227.137-.438.264-.574.158-.17 1.515-1.678 3.85-2.047a12.407 12.407 0 0 1 1.937-.172c.225 0 .674.002.822.008l-.02-1a34.529 34.529 0 0 0-.802-.008z" style="fill:#f4f4f7;opacity:.2"/></g></svg>