<svg height="48" width="48" xmlns="http://www.w3.org/2000/svg">
    <rect fill="#0081ff" height="40" rx="2" width="40" x="4" y="4"/>
    <path d="M6 4c-1.108 0-2 .892-2 2v1c0-1.108.892-2 2-2h36c1.108 0 2 .892 2 2V6c0-1.108-.892-2-2-2z" fill="#fff" opacity=".2"/>
    <path d="M6 45c-1.108 0-2-.892-2-2v-1c0 1.108.892 2 2 2h36c1.108 0 2-.892 2-2v1c0 1.108-.892 2-2 2zm7-31v22h4V14zm10 0v4h4v18h4V18h4v-4z" opacity=".2"/>
    <g fill="#8addff">
        <path d="M13 13h4v22h-4zm14 0h4v22h-4z"/>
        <path d="M35 13v4H23v-4z"/>
    </g>
</svg>
