<svg height="48" width="48" xmlns="http://www.w3.org/2000/svg"><path d="m4 18v24c0 1.108.892 2 2 2h36c1.108 0 2-.892 2-2v-24z" fill="#ffffbf"/><path d="m-18-44h12c1.108 0 2 .892 2 2v36c0 1.108-.892 2-2 2h-12z" fill="#6765f6" transform="matrix(0 -1 -1 0 0 0)"/><path d="m6 4c-1.108 0-2 .892-2 2v1c0-1.108.892-2 2-2h36c1.108 0 2 .892 2 2v-1c0-1.108-.892-2-2-2z" fill="#fff" opacity=".1"/><path d="m6 45c-1.108 0-2-.892-2-2v-1c0 1.108.892 2 2 2h36c1.108 0 2-.892 2-2v1c0 1.108-.892 2-2 2z" opacity=".2"/><path d="m12 19h8v8h-8z" opacity=".1"/><path d="m12 18h8v8h-8z" fill="#17191e"/><path d="m28 19h8v8h-8z" opacity=".1"/><path d="m28 18h8v8h-8z" fill="#17191e"/></svg>