<svg height="48" width="48" xmlns="http://www.w3.org/2000/svg">
    <path d="M4 12.284v23.094L20 45V21.906zm40-3.849L20 21.906V45l24-13.471z" fill-rule="evenodd" opacity=".2"/>
    <path d="M4 11.284v23.094L20.667 44 44 30.529V7.435M4 11.284v23.094" fill="none"/>
    <g fill-rule="evenodd">
        <path d="M4 11.284v23.094L20 44V20.906L15 14z" fill="#8e8e8e"/>
        <path d="M7 18.058v15.396l10 5.773v-3.849l-7-3.949v-7.697l7 3.948v-3.849l-3.333-1.924z" opacity=".1"/>
        <path d="M7 17.057v15.396l10 5.774v-3.85l-7-3.948v-7.698l7 3.949v-3.85l-3.333-1.924zm37-9.622L31 13l-11 7.906V44l24-13.471z" fill="#17191e"/>
        <path d="M39.555 5.87 20 16.772l-7.111-4.49 4.445-2.566L12.889 7l-8.053 4.787L20 20.907v1L44 8.433l-4.445-2.565z" opacity=".2"/>
        <path d="M12.889 6 4 11.284l16 9.622L44 7.435l-4.445-2.566L20 15.774l-7.111-4.49" fill="#736fff"/>
        <path d="M39.555 4.87 20 15.772l-6.283-3.968-.828.478L20 16.773 39.555 5.87l3.568 2.059.877-.492zM12.889 6 4 11.283l.836.504L12.889 7l3.603 2.203.842-.486z" fill="#f4f4f7" opacity=".1"/>
    </g>
    <path d="M39 16.317 36 18v4.238l-3 1.733v3.465l3-1.733v4.192l3-1.684v-4.238l3-1.733v-3.464l-3 1.732zM28 22.51l-3 1.683v4.239l-3 1.732v3.465l3-1.732v4.191l3-1.684v-4.238l3-1.732v-3.465L28 26.7z" opacity=".1"/>
    <g fill="#f4f4f7">
        <path d="M39 15.316 36 17v4.238l-3 1.733v3.465l3-1.733v4.192l3-1.684v-4.238l3-1.733v-3.465l-3 1.733zM28 21.51l-3 1.683v4.239l-3 1.732v3.465l3-1.733v4.192l3-1.684v-4.238l3-1.732v-3.465L28 25.7z"/>
        <path d="M4 11.284v1l16 9.622v-1z" fill-rule="evenodd" opacity=".2"/>
    </g>
</svg>
