<svg height="48" width="48" xmlns="http://www.w3.org/2000/svg">
    <g transform="matrix(0 -1 -1 0 0 0)">
        <rect fill="#8e8e8e" height="24" rx="2" width="32" x="-42" y="-36"/>
        <rect fill="#4f4f4f" height="40" rx="2" width="32" x="-38" y="-44"/>
        <path d="M-35-41h26v34h-26z" fill="#dc4f47"/>
    </g>
    <path d="M6 6c-1.108 0-2 .892-2 2v1c0-1.108.892-2 2-2h36c1.108 0 2 .892 2 2V8c0-1.108-.892-2-2-2z" fill="#fff" opacity=".1"/>
    <path d="M12 40v1c0 1.108.892 2 2 2h20c1.108 0 2-.892 2-2v-1c0 1.108-.892 2-2 2H14c-1.108 0-2-.892-2-2zm-8-4v1c0 1.108.892 2 2 2h36c1.108 0 2-.892 2-2v-1c0 1.108-.892 2-2 2H6c-1.108 0-2-.892-2-2zM14.997 16h13c1 0 1 1 1 1v12c0 1-1 1-1 1H15s-1 0-1-1V17s0-1 1-1zM35 18v10l-6.006-5z" opacity=".2"/>
    <path d="M14.997 15h13c1 0 1 1 1 1v12c0 1-1 1-1 1H15s-1 0-1-1V16s0-1 1-1zM35 17v10l-6.006-5z" fill="#f4f4f7"/>
</svg>
