<svg xmlns="http://www.w3.org/2000/svg" width="48" height="48"><circle style="opacity:.2" cx="24" cy="25" r="20"/><circle style="fill:#447490" cx="24" cy="24" r="20"/><path style="opacity:.2" d="M3.244 8.461c-.416.004-.83.019-1.244.07 4.577.083 9.166.458 13.648 1.422.866.113 1.703.372 2.547.586.409.097.791.279 1.198.383.678.172 1.34.4 2.011.598.41.178.855.26 1.262.445.61.26 1.203.55 1.795.846.076.051.197.076.219.182.153.643.235 1.303.422 1.939.351 1.19.798 2.362 1.431 3.434-.674.32-1.256.805-1.765 1.345-.726.799-1.29 1.763-1.532 2.82-.294 1.083-.233 2.13.022 3.213.277.97.771 1.675 1.443 2.427 1.348 1.535 3.446 2.425 5.49 2.19 2.464-.198 5.031.195 7.196 1.433 1.136.657 2.21 1.465 3.021 2.508 1.103 1.254 1.932 2.828 2.565 4.367.092.232.176.47.304.686 0-.289-.106-.559-.203-.824-.295-.787-.628-1.66-1.045-2.391-.491-.877-1.03-1.736-1.71-2.48-.993-1.195-2.204-2.217-3.589-2.928 1.056.136 2.084.443 3.086.793 1.073.384 2.104.893 3.03 1.56.914.741 1.72 1.628 2.312 2.649.308.493.503 1.144.772 1.658-.237-1.19-.833-2.385-1.58-3.332-.442-.574-1.004-1.032-1.555-1.494-1.272-1.004-2.751-1.712-4.281-2.225-2.809-.922-5.78-1.277-8.729-1.275-.712.004-1.431-.09-2.101-.34-1.548-.556-2.767-1.722-3.147-3.321-.49-1.738.054-3.61 1.332-4.877 1.038-1.06 2.55-1.665 4.037-1.52 1.536.11 2.996.647 4.43 1.172 1.173.459 2.353.911 3.486 1.465.03.327.056.663.176.973.161.316.507.468.814.61.586.264 1.141.497 1.64.903.368.298.674.662 1.025.979.117-.188.136-.233.17-.3.018-.018.005.002.03-.026.266-.279.662-.333 1-.502-.88-.22-1.745-.54-2.322-1.26-.09-.112.292-.01.213-.186-.055-.149-.107-.235-.183-.365-.32-.472-.646-.94-.932-1.434l-.998-.015c-.418-.493-.88-.942-1.307-1.426.036.266.084.531.084.8a5.927 5.927 0 0 1-.822-.542c-.278-.252-.535-.527-.808-.783.035.194.073.388.105.584-.562-.226-1.09-.565-1.484-1.028l-.016.344c-.351-.135-.694-.286-1.045-.422-.883-.332-1.758-.714-2.691-.883-1.028-.051-2.114.088-3.086-.332a2.947 2.947 0 0 1-1.541-1.43c-.586-1.094-.506-2.394-.336-3.581-.747-.496-1.556-.889-2.387-1.221-.388-.138-.75-.342-1.156-.43a34.06 34.06 0 0 0-4.475-1.135c-.658-.145-1.33-.213-1.988-.359-.63-.121-1.266-.185-1.902-.262-3.022-.348-6.067-.48-9.108-.453-.415.003-.832-.005-1.248-.002zm21.207 4.762c-5.543-.047-11.105.208-16.584 1.094-1.435.24-2.88.46-4.283.85 4.694-.66 9.423-1.107 14.164-1.212 2.31-.015 4.623.059 6.922.29-.077-.34-.156-.68-.219-1.022zm.361 1.502c-3.118.293-6.179 1.035-9.148 2.018a48.803 48.803 0 0 0-6.008 2.498c-.689.346-1.385.682-2.039 1.093.738-.316 1.457-.675 2.203-.97 4.855-1.997 10-3.395 15.258-3.664-.1-.322-.196-.645-.265-.975zm6.184 1.025c.55.248 1.13.422 1.678.68 1.67.73 3.274 1.64 4.685 2.8.51.424.988.89 1.4 1.409.11.119.289.03.428.05-.156-.289-.443-.475-.666-.708a16.128 16.128 0 0 0-3.82-2.77c-1.179-.612-2.411-1.147-3.705-1.46z"/><path style="opacity:.2;fill:#f4f4f7" d="M24 4A20 20 0 0 0 4 24a20 20 0 0 0 .021.582A20 20 0 0 1 24 5a20 20 0 0 1 19.979 19.418A20 20 0 0 0 44 24 20 20 0 0 0 24 4z"/><path style="fill:#f4f4f7" d="M3.244 7.46c-.416.004-.83.02-1.244.071 4.577.083 9.166.458 13.648 1.422.866.113 1.703.371 2.547.586.409.096.791.278 1.198.383.678.172 1.34.4 2.011.598.41.178.855.26 1.262.445.61.259 1.203.55 1.795.846.076.05.197.076.219.181.153.644.235 1.304.422 1.94.351 1.19.798 2.362 1.431 3.433-.674.321-1.256.806-1.765 1.346-.726.799-1.29 1.763-1.532 2.82-.294 1.082-.233 2.13.022 3.213.277.97.771 1.676 1.443 2.428 1.348 1.535 3.446 2.423 5.49 2.187 2.464-.198 5.031.198 7.196 1.436 1.136.657 2.21 1.465 3.021 2.508 1.103 1.253 1.932 2.825 2.565 4.365.092.232.176.47.304.686 0-.289-.106-.559-.203-.825-.295-.786-.628-1.66-1.045-2.39-.491-.877-1.03-1.734-1.71-2.479-.993-1.195-2.204-2.216-3.589-2.928 1.056.136 2.084.443 3.086.793 1.073.384 2.104.892 3.03 1.559.914.74 1.72 1.627 2.312 2.648.308.494.503 1.147.772 1.66-.237-1.19-.833-2.385-1.58-3.331-.442-.574-1.004-1.033-1.555-1.495-1.272-1.003-2.751-1.713-4.281-2.226-2.809-.922-5.78-1.275-8.729-1.274-.712.004-1.431-.09-2.101-.34-1.548-.555-2.767-1.722-3.147-3.322-.49-1.737.054-3.61 1.332-4.877 1.038-1.06 2.55-1.664 4.037-1.52 1.536.11 2.996.648 4.43 1.173 1.173.458 2.353.91 3.486 1.465.03.327.056.662.176.972.161.317.507.469.815.612.585.262 1.14.496 1.638.902.369.298.675.661 1.026.978.117-.187.136-.233.17-.298.018-.02.005.001.03-.028.266-.278.662-.333 1-.502-.88-.22-1.745-.539-2.322-1.26-.09-.112.292-.01.213-.185-.055-.149-.107-.236-.183-.365-.32-.472-.646-.941-.932-1.434l-.998-.016c-.418-.492-.88-.941-1.307-1.425.036.266.084.53.084.8a5.927 5.927 0 0 1-.822-.542c-.278-.252-.535-.527-.808-.784.035.195.073.389.105.584-.562-.225-1.09-.564-1.484-1.027l-.016.344c-.351-.135-.694-.286-1.045-.422-.883-.332-1.758-.714-2.691-.883-1.028-.052-2.114.087-3.086-.332a2.947 2.947 0 0 1-1.541-1.43c-.586-1.094-.506-2.394-.336-3.582-.747-.495-1.556-.888-2.387-1.22-.388-.139-.75-.342-1.156-.43a34.06 34.06 0 0 0-4.475-1.135c-.658-.145-1.33-.213-1.988-.36-.63-.12-1.266-.185-1.902-.261-3.022-.348-6.067-.48-9.108-.453-.415.003-.832-.005-1.248-.002zm21.207 4.763c-5.543-.047-11.105.208-16.584 1.093-1.435.24-2.88.461-4.283.85 4.694-.66 9.423-1.106 14.164-1.21 2.31-.016 4.623.058 6.922.288-.077-.339-.156-.68-.219-1.021zm.361 1.502c-3.118.293-6.179 1.034-9.148 2.017a48.803 48.803 0 0 0-6.008 2.498c-.689.347-1.385.682-2.039 1.094.738-.316 1.457-.675 2.203-.97 4.855-1.997 10-3.396 15.258-3.665-.1-.321-.196-.645-.265-.974zm6.184 1.025c.55.248 1.13.422 1.678.68 1.67.73 3.274 1.64 4.685 2.8.51.424.988.89 1.4 1.409.11.118.289.029.428.05-.156-.29-.443-.475-.666-.709a16.128 16.128 0 0 0-3.82-2.77c-1.179-.611-2.411-1.146-3.705-1.46z"/><path style="fill:#447490" d="M39.534 21.078c.752.784-.022-.029.688.717.02.02.013.006-.014.073-.228-.09-.45-.2-.672-.3a39.953 39.953 0 0 1-.002-.49z"/></svg>