<svg height="48" width="48" xmlns="http://www.w3.org/2000/svg">
    <path d="M40 42V6c0-1.108-.892-2-2-2H10c-1.108 0-2 .892-2 2v36c0 1.108.892 2 2 2h28c1.108 0 2-.892 2-2z" fill="#ff9800"/>
    <path d="M16 4h8v8h-8zm16 0v8h8V6c0-1.108-.892-2-2-2z" fill="#ffce29"/>
    <path d="M10 4c-1.108 0-2 .892-2 2v1c0-1.108.892-2 2-2h28c1.108 0 2 .892 2 2V6c0-1.108-.892-2-2-2z" fill="#fff" opacity=".2"/>
    <path d="M8 42v1c0 1.108.892 2 2 2h28c1.108 0 2-.892 2-2v-1c0 1.108-.892 2-2 2H10c-1.108 0-2-.892-2-2z" opacity=".2"/>
    <path d="M8 12h8v8H8zm16 0h8v8h-8zm-8 8h8v8h-8zm16 0h8v8h-8zM8 28h8v8H8zm16 0h8v8h-8zm-8 8h8v8h-8zm16 0v8h6c1.108 0 2-.892 2-2v-6z" fill="#ffce29"/>
    <path d="M16 12h8v1h-8zm16 0h8v1h-8zM8 20h8v1H8zm16 0h8v1h-8zm-8 8h8v1h-8zm16 0h8v1h-8zM8 36h8v1H8zm16 0h8v1h-8z" opacity=".2"/>
    <path d="M22 15v2.26a8 8 0 0 0-2.057.855l-1.6-1.6-2.827 2.829 1.6 1.6a8 8 0 0 0-.85 2.056H14v4h2.26a8 8 0 0 0 .855 2.057l-1.6 1.6 2.829 2.827 1.6-1.6a8 8 0 0 0 2.056.85V35h4v-2.26a8 8 0 0 0 2.057-.855l1.6 1.6 2.827-2.829-1.6-1.6a8 8 0 0 0 .85-2.056H34v-4h-2.26a8 8 0 0 0-.855-2.057l1.6-1.6-2.829-2.827-1.6 1.6a8 8 0 0 0-2.056-.85V15zm2 6a4 4 0 0 1 4 4 4 4 0 0 1-4 4 4 4 0 0 1-4-4 4 4 0 0 1 4-4z" opacity=".1"/>
    <path d="M22 14v2.26a8 8 0 0 0-2.057.855l-1.6-1.6-2.827 2.829 1.6 1.6a8 8 0 0 0-.85 2.056H14v4h2.26a8 8 0 0 0 .855 2.057l-1.6 1.6 2.829 2.827 1.6-1.6a8 8 0 0 0 2.056.85V34h4v-2.26a8 8 0 0 0 2.057-.855l1.6 1.6 2.827-2.829-1.6-1.6a8 8 0 0 0 .85-2.056H34v-4h-2.26a8 8 0 0 0-.855-2.057l1.6-1.6-2.829-2.827-1.6 1.6a8 8 0 0 0-2.056-.85V14zm2 6a4 4 0 0 1 4 4 4 4 0 0 1-4 4 4 4 0 0 1-4-4 4 4 0 0 1 4-4z" fill="#17191e"/>
</svg>
