<svg xmlns="http://www.w3.org/2000/svg" width="48" height="48" version="1"><rect style="fill:#dad6cd" width="40" height="40" x="4" y="4" rx="2" ry="2"/><path style="fill:none;stroke:#4f4f4f;stroke-width:2;stroke-linecap:round" d="M24 37V27"/><path fill="#fff" style="opacity:.2" d="M6 4c-1.108 0-2 .892-2 2v1c0-1.108.892-2 2-2h36c1.108 0 2 .892 2 2V6c0-1.108-.892-2-2-2H6z"/><path opacity=".2" d="M6 45c-1.108 0-2-.892-2-2v-1c0 1.108.892 2 2 2h36c1.108 0 2-.892 2-2v1c0 1.108-.892 2-2 2H6z"/><path style="fill:none;stroke:#896a2a;stroke-width:4;stroke-linecap:round" d="M16 28s-2-3-2-7 2-6 2-6M32.02 28s2-3 2-7-2-6-2-6"/><circle style="opacity:.1" cx="24" cy="20" r="9"/><circle style="fill:#b1a17f" cx="24" cy="19" r="9"/></svg>