<svg xmlns="http://www.w3.org/2000/svg" width="48" height="48" version="1"><rect fill="#8e8e8e" width="32" height="24" x="-42" y="-36" rx="2" ry="2" transform="matrix(0 -1 -1 0 0 0)"/><rect style="fill:#4f4f4f" width="32" height="40" x="-38" y="-44" rx="2" ry="2" transform="matrix(0 -1 -1 0 0 0)"/><rect style="fill:#dc4f47" width="26" height="34" x="-35" y="-41" rx="0" ry="0" transform="matrix(0 -1 -1 0 0 0)"/><path fill="#fff" style="opacity:.1" d="M6 6c-1.108 0-2 .892-2 2v1c0-1.108.892-2 2-2h36c1.108 0 2 .892 2 2V8c0-1.108-.892-2-2-2H6z"/><path opacity=".2" d="M12 40v1c0 1.108.892 2 2 2h20c1.108 0 2-.892 2-2v-1c0 1.108-.892 2-2 2H14c-1.108 0-2-.892-2-2zM4 36v1c0 1.108.892 2 2 2h36c1.108 0 2-.892 2-2v-1c0 1.108-.892 2-2 2H6c-1.108 0-2-.892-2-2z"/><path style="opacity:.2" d="M14.997 16h13c1 0 1 1 1 1v12c0 1-1 1-1 1H15s-1 0-1-1V17s0-1 1-1zM35 18v10l-6.006-5z"/><path style="fill:#f4f4f7" d="M14.997 15h13c1 0 1 1 1 1v12c0 1-1 1-1 1H15s-1 0-1-1V16s0-1 1-1zM35 17v10l-6.006-5z"/></svg>