<svg xmlns="http://www.w3.org/2000/svg" width="48" height="48" version="1"><rect fill="#5db43e" width="40" height="40" x="4" y="4" rx="20" ry="20"/><path fill="#fff" opacity=".2" d="M24 4C12.92 4 4 12.92 4 24c0 .168-.004.333 0 .5C4.264 13.654 13.088 5 24 5s19.736 8.654 20 19.5c.004-.167 0-.332 0-.5 0-11.08-8.92-20-20-20z"/><path opacity=".2" d="M4.012 24.5c-.004.167-.012.332-.012.5 0 11.08 8.92 20 20 20s20-8.92 20-20c0-.168-.008-.333-.012-.5C43.724 35.346 34.912 44 24 44S4.276 35.346 4.012 24.5z"/><path opacity=".2" d="M22 14v2h1v6h2v-8h-3zm-4 10v2h12v-2H18zm3 4v6h4v2h2v-8h-2v4h-2v-4h-2z"/><path fill="#fff" d="M22 13v2h1v6h2v-8h-3zm-4 10v2h12v-2H18zm3 4v6h4v2h2v-8h-2v4h-2v-4h-2z"/></svg>