<svg xmlns="http://www.w3.org/2000/svg" width="48" height="48"><path style="opacity:.2" d="M24.054 5a20.014 20.014 0 0 0-2.102.103.952.953 0 0 0-.844.801l-.361 2.346c-.783.152-1.552.358-2.307.618l-1.479-1.846a.952.953 0 0 0-1.132-.273 20.004 20.004 0 0 0-3.551 2.053.952.953 0 0 0-.328 1.118l.858 2.2a17.12 17.12 0 0 0-1.697 1.684l-2.185-.851a.952.953 0 0 0-1.118.329 20.005 20.005 0 0 0-2.05 3.555.952.953 0 0 0 .273 1.13l1.792 1.437c-.135.382-.28.762-.387 1.153a.952.953 0 0 0-.004.015c-.1.39-.16.788-.232 1.183l-2.29.352a.952.953 0 0 0-.802.842 20.015 20.015 0 0 0-.006 4.1.952.953 0 0 0 .804.845l2.344.359c.152.783.358 1.552.617 2.306L6.02 32.04a.952.953 0 0 0-.273 1.134 20.006 20.006 0 0 0 2.053 3.55.952.953 0 0 0 1.118.328l2.199-.857c.523.604 1.085 1.17 1.687 1.696l-.85 2.184a.952.953 0 0 0 .33 1.118 20.004 20.004 0 0 0 3.554 2.05.952.953 0 0 0 1.13-.273l1.435-1.79c.383.134.762.278 1.153.385a.952.953 0 0 0 .015.004c.39.1.789.16 1.185.232l.352 2.29a.952.953 0 0 0 .842.802c1.362.142 2.736.144 4.098.006a.952.953 0 0 0 .844-.802l.361-2.344a17.112 17.112 0 0 0 2.307-.618l1.479 1.846a.952.953 0 0 0 1.132.273 20.004 20.004 0 0 0 3.551-2.053.952.953 0 0 0 .328-1.118l-.858-2.2a17.119 17.119 0 0 0 1.697-1.684l2.183.85a.952.953 0 0 0 1.118-.33 20.005 20.005 0 0 0 2.05-3.554.952.953 0 0 0-.273-1.131l-1.79-1.435c.135-.383.28-.763.387-1.155a.952.953 0 0 0 .004-.015c.1-.39.16-.787.232-1.183l2.29-.351a.952.953 0 0 0 .802-.843c.142-1.363.144-2.737.006-4.1a.952.953 0 0 0-.804-.844l-2.344-.36a17.113 17.113 0 0 0-.617-2.308l1.845-1.479a.952.953 0 0 0 .273-1.133 20.014 20.014 0 0 0-2.055-3.549.952.953 0 0 0-1.116-.327l-2.199.857a17.12 17.12 0 0 0-1.685-1.698l.85-2.184a.952.953 0 0 0-.33-1.118 20.003 20.003 0 0 0-3.554-2.05.952.953 0 0 0-1.133.274L29.597 8.82c-.382-.134-.762-.278-1.153-.385a.952.953 0 0 0-.015-.004c-.39-.1-.789-.16-1.185-.232l-.35-2.288a.952.953 0 0 0-.842-.804c-.664-.069-1.33-.105-1.998-.108z"/><path style="fill:#bbc0c5" d="M24.054 4a20.014 20.014 0 0 0-2.102.103.952.953 0 0 0-.844.801l-.361 2.346c-.783.152-1.552.358-2.307.618l-1.479-1.846a.952.953 0 0 0-1.132-.273 20.004 20.004 0 0 0-3.551 2.053.952.953 0 0 0-.328 1.118l.858 2.2a17.12 17.12 0 0 0-1.697 1.684l-2.185-.851a.952.953 0 0 0-1.118.329 20.005 20.005 0 0 0-2.05 3.555.952.953 0 0 0 .273 1.13l1.792 1.437c-.135.382-.28.762-.387 1.153a.952.953 0 0 0-.004.015c-.1.39-.16.788-.232 1.183l-2.29.352a.952.953 0 0 0-.802.842 20.015 20.015 0 0 0-.006 4.1.952.953 0 0 0 .804.845l2.344.359c.152.783.358 1.552.617 2.306L6.02 31.04a.952.953 0 0 0-.273 1.134 20.006 20.006 0 0 0 2.053 3.55.952.953 0 0 0 1.118.328l2.199-.857c.523.604 1.085 1.17 1.687 1.696l-.85 2.184a.952.953 0 0 0 .33 1.118 20.004 20.004 0 0 0 3.554 2.05.952.953 0 0 0 1.13-.273l1.435-1.79c.383.134.762.278 1.153.385a.952.953 0 0 0 .015.004c.39.1.789.16 1.185.232l.352 2.29a.952.953 0 0 0 .842.802c1.362.142 2.736.144 4.098.006a.952.953 0 0 0 .844-.802l.361-2.344a17.112 17.112 0 0 0 2.307-.618l1.479 1.846a.952.953 0 0 0 1.132.273 20.004 20.004 0 0 0 3.551-2.053.952.953 0 0 0 .328-1.118l-.858-2.2a17.119 17.119 0 0 0 1.697-1.685l2.183.85a.952.953 0 0 0 1.118-.329 20.005 20.005 0 0 0 2.05-3.554.952.953 0 0 0-.273-1.131l-1.79-1.435c.135-.383.28-.763.387-1.155a.952.953 0 0 0 .004-.015c.1-.39.16-.787.232-1.183l2.29-.351a.952.953 0 0 0 .802-.843c.142-1.363.144-2.737.006-4.1a.952.953 0 0 0-.804-.844l-2.344-.36a17.113 17.113 0 0 0-.617-2.308l1.845-1.479a.952.953 0 0 0 .273-1.133 20.014 20.014 0 0 0-2.055-3.549.952.953 0 0 0-1.116-.327l-2.199.857a17.12 17.12 0 0 0-1.685-1.698l.85-2.184a.952.953 0 0 0-.33-1.118 20.003 20.003 0 0 0-3.554-2.05.952.953 0 0 0-1.133.274L29.597 7.82c-.382-.134-.762-.278-1.153-.385a.952.953 0 0 0-.015-.004c-.39-.1-.789-.16-1.185-.232l-.35-2.288a.952.953 0 0 0-.842-.804c-.664-.069-1.33-.105-1.998-.108z"/><path style="opacity:.2;fill:#f4f4f7" d="M24 39a14 14 0 0 1-14-14 14 14 0 0 1 .021-.586A14 14 0 0 0 24 38a14 14 0 0 0 13.979-13.414A14 14 0 0 1 38 25a14 14 0 0 1-14 14z"/><path style="fill:#17191e" d="M35.233 24.307c0 3.62 1.394 6.61-.86 9.095A13.964 13.964 0 0 1 24 38c-7.732 0-14-6.268-14-14s6.268-14 14-14c1 0 11.233 6.575 11.233 14.307z"/><path style="fill:#f4f4f7;opacity:.3" d="M22 10.158a14 14 0 0 0-3.182.842H22v-.842zM16.818 12a14 14 0 0 0-1.474 1H17v-1h-.182zm-2.611 2a14 14 0 0 0-.93 1H19v-1h-4.793zM20 14v1h2v-1h-2zm-7.482 2a14 14 0 0 0-.63 1H14v-1h-1.482zM15 16v1h8v-1h-8zm-3.63 2a14 14 0 0 0-.429 1H17v-1h-5.63zm-.78 2a14 14 0 0 0-.254 1H12v-1h-1.41zM13 20v1h5v-1h-5zm-3 4a14 14 0 0 0 .037 1H16v-1h-6zm7 0v1h2v-1h-2zm-6.842 2a14 14 0 0 0 .184 1H14v-1h-3.842zM15 26v1h10v-1H15zm-4.404 2a14 14 0 0 0 .332 1H13v-1h-2.404zM14 28v1h5v-1h-5zm6 0v1h2v-1h-2zm4 1v4h1v-4h-1zm3 0v4h3v-4h-3zm5 0v4h1v-4h-1zm3 0v3.635a14 14 0 0 0 1-1.455V30h.63a14 14 0 0 0 .429-1H35zm-7 1h1v2h-1v-2zm-15.469 2a14 14 0 0 0 .764 1H18v-1h-5.469zM19 32v1h2v-1h-2zm-4.78 2a14 14 0 0 0 1.145 1H16v-1h-1.78zM17 34v1h5v-1h-5zm7 0v4a14 14 0 0 0 3-.342V34h-3zm5 0v3.072a14 14 0 0 0 1-.44V34h-1zm3 0v1.469A14 14 0 0 0 33.793 34H32zm-7 1h1v2h-1v-2zm-8.18 1a14 14 0 0 0 1.18.63V36h-1.18z"/><path style="opacity:.2" d="M25 24.586c0 .414-2 .828-2 .828l10.154 10.154a14 14 0 0 0 1.42-1.408z"/><path style="fill:#3daee9" d="M38 24c0 3.777-1.496 7.206-3.928 9.724L24 24V10c7.732 0 14 6.268 14 14z"/><path style="fill:#f4f4f7" d="M23 10v14.414l2-.828V10z"/><path style="fill:#ff4949" d="M25 23.586c0 .414-2 .828-2 .828l10.154 10.154a14 14 0 0 0 1.42-1.408L25 23.586z"/><circle style="opacity:.2" cx="24" cy="25" r="2"/><circle style="fill:#fcfcfc" cx="24" cy="24" r="2"/><circle style="fill:#17191e" cx="24" cy="24" r="1"/><path style="opacity:.2" d="M24 10a14 14 0 0 0-14 14 14 14 0 0 0 .021.586A14 14 0 0 1 24 11a14 14 0 0 1 13.979 13.414A14 14 0 0 0 38 24a14 14 0 0 0-14-14z"/><path style="opacity:.2;fill:#f4f4f7" d="M24.055 4c-.702-.003-1.406.03-2.104.102a.952.953 0 0 0-.844.802l-.36 2.346c-.784.152-1.553.358-2.308.617l-1.478-1.846a.952.953 0 0 0-1.133-.273c-1.25.561-2.44 1.25-3.55 2.055a.952.953 0 0 0-.327 1.117l.067.17a.952.953 0 0 1 .26-.287c1.11-.805 2.3-1.494 3.55-2.055a.952.953 0 0 1 1.133.273l1.478 1.846c.755-.26 1.524-.465 2.307-.617l.361-2.346a.952.953 0 0 1 .844-.802 20.044 20.044 0 0 1 4.1.005.952.953 0 0 1 .844.805l.35 2.287c.395.072.795.133 1.185.233a.952.953 0 0 1 .013.004c.392.106.772.25 1.155.384l1.431-1.789a.952.953 0 0 1 1.133-.273 20.008 20.008 0 0 1 3.555 2.05.952.953 0 0 1 .263.29l.067-.172a.952.953 0 0 0-.33-1.117 20.008 20.008 0 0 0-3.555-2.051.952.953 0 0 0-1.133.273l-1.431 1.79c-.383-.135-.763-.279-1.155-.385a.952.953 0 0 0-.013-.004c-.39-.1-.79-.16-1.186-.233l-.35-2.287a.952.953 0 0 0-.843-.805A19.969 19.969 0 0 0 24.055 4zm11.425 7.377-.285.732a17.13 17.13 0 0 1 1.686 1.7l2.2-.858a.952.953 0 0 1 1.114.326 20.032 20.032 0 0 1 2 3.434.952.953 0 0 0 .057-.883 20.033 20.033 0 0 0-2.057-3.55.952.953 0 0 0-1.115-.327l-2.2.858c-.436-.506-.907-.98-1.4-1.432zm-22.959.008c-.495.448-.97.917-1.41 1.42l-2.185-.852a.952.953 0 0 0-1.117.328 20.008 20.008 0 0 0-2.051 3.555.952.953 0 0 0 .056.88 20.005 20.005 0 0 1 1.995-3.435.952.953 0 0 1 1.117-.328l2.185.852a17.13 17.13 0 0 1 1.698-1.686l-.288-.734zM7.56 19.19c-.04.123-.09.242-.123.366a.952.953 0 0 0-.004.015c-.1.39-.16.788-.233 1.184l-2.289.351a.952.953 0 0 0-.803.842c-.089.854-.114 1.712-.093 2.569.013-.524.039-1.047.093-1.569a.952.953 0 0 1 .803-.842l2.29-.351c.071-.396.132-.794.232-1.184a.952.953 0 0 1 .004-.015c.107-.392.252-.77.386-1.153l-.263-.213zm32.82.051-.246.197c.26.755.465 1.525.617 2.309l2.344.36a.952.953 0 0 1 .804.843c.052.51.076 1.02.088 1.531.022-.844-.002-1.69-.088-2.53a.952.953 0 0 0-.804-.845l-2.344-.359a17.09 17.09 0 0 0-.371-1.506zM7.62 29.756 6.02 31.039a.952.953 0 0 0-.274 1.133c.018.039.039.076.057.115a.952.953 0 0 1 .217-.248l1.847-1.48c-.09-.265-.168-.535-.246-.803zm32.82.053c-.086.263-.171.527-.263.789l1.789 1.435a.952.953 0 0 1 .217.248c.018-.04.039-.077.056-.117a.952.953 0 0 0-.273-1.13l-1.526-1.225zm-4.962 7.808c-.097.088-.189.18-.288.266l.791 2.03a.952.953 0 0 0 .067-.831l-.57-1.465zm-22.96.006-.566 1.451a.952.953 0 0 0 .067.828l.785-2.011c-.099-.086-.19-.18-.285-.268z"/></svg>