<svg xmlns="http://www.w3.org/2000/svg" width="48" height="48"><path style="fill:#4763ad" d="M6 6c-1.108 0-2 .892-2 2v26.1h40V8c0-1.108-.892-2-2-2z"/><rect style="opacity:.2" width="16" height="12" x="11" y="13" rx="2" ry="2"/><rect style="fill:#f4f4f7" width="16" height="12" x="11" y="12" rx="2" ry="2"/><path style="fill:#6194bf" d="M6 42c-1.108 0-2-.892-2-2v-6h40v6c0 1.108-.892 2-2 2z"/><path fill="#fff" opacity=".1" d="M6 6c-1.108 0-2 .892-2 2v1c0-1.108.892-2 2-2h36c1.108 0 2 .892 2 2V8c0-1.108-.892-2-2-2z"/><circle opacity=".2" cx="26" cy="39" r="2"/><circle opacity=".2" cx="32" cy="39" r="2"/><circle fill="#fff" cx="32" cy="38" r="2"/><circle opacity=".2" cx="38" cy="39" r="2"/><circle fill="#fff" cx="38" cy="38" r="2"/><path opacity=".2" d="M4 40v1c0 1.108.892 2 2 2h36c1.108 0 2-.892 2-2v-1c0 1.108-.892 2-2 2H6c-1.108 0-2-.892-2-2z"/><path style="opacity:.2" d="M25 17s5 3 5 10h-4l6 8 6-8h-4c0-9-9-10-9-10z"/><path style="fill:#8fff08" d="M25 16s5 3 5 10h-4l6 8 6-8h-4c0-9-9-10-9-10z"/><path style="opacity:.2;fill:#f4f4f7" d="M4 34h40v1H4z"/><circle fill="#fff" cx="26" cy="38" r="2"/></svg>