<svg height="48" width="48" xmlns="http://www.w3.org/2000/svg"><path d="m24 7c-11.08 0-20 8.92-20 20 0 6.567 3.148 12.358 8.008 16h23.984c4.86-3.642 8.008-9.433 8.008-16 0-11.08-8.92-20-20-20z" fill="#000a10" opacity=".2"/><path d="m24 6c-11.08 0-20 8.92-20 20 0 6.567 3.148 12.358 8.008 16h23.984c4.86-3.642 8.008-9.433 8.008-16 0-11.08-8.92-20-20-20z" fill="#2d96d0"/><path d="m24 6a19.955 19.955 0 0 0 -19.998 20c0 .168-.004.333 0 .5.264-10.846 9.087-19.5 19.998-19.5s19.734 8.654 19.998 19.5c.004-.167 0-.332 0-.5 0-11.08-8.918-20-19.998-20z" fill="#f4f4f7" opacity=".2"/><path d="m24 17a15 15 0 0 0 -15 15 15 15 0 0 0 3.844 10h22.316a15 15 0 0 0 3.84-10 15 15 0 0 0 -15-15z" fill="#f4deb9"/><path d="m24 18c-5.332 0-10.01 2.785-12.67 6.977-.388.507-.73 1.036-.978 1.603-.39.89-.681 1.813-.9 2.809-.147.59-.27 1.19-.345 1.806-.006.055.01.067.038.059-.029.237-.064.462-.086.711-.07.797-.077 1.123-.024 1.123l8.965-10.088-1.932 8.002c.013.013.296-.102.63-.256 2.046-.942 3.89-1.361 6.144-1.63.777-.093 3.474-.105 4.285-.02 1.642.172 3.14.264 4.984.771.817.225 1.218.278 1.887.254.67-.024 1.064-.114 1.559-.351 1.234-.594 1.88-1.813 1.7-3.203-.016-.132-.05-.256-.077-.383.053-.131.001-.352-.207-.717-.206-.546-.508-1.093-.965-1.711-3.092-3.398-7.13-5.822-12.008-5.756z" opacity=".2"/><path d="m24 17c-5.332 0-10.01 2.785-12.67 6.977-.388.507-.73 1.036-.978 1.603-.39.89-.681 1.813-.9 2.809-.147.59-.27 1.19-.345 1.806-.006.055.01.067.038.059-.029.237-.064.462-.086.71-.07.798-.077 1.124-.024 1.124l8.965-10.088-1.932 8.002c.013.013.296-.103.63-.256 2.046-.942 3.89-1.361 6.144-1.63.777-.093 3.474-.105 4.285-.02 1.642.172 3.14.264 4.984.771.817.225 1.218.278 1.887.254.67-.024 1.064-.114 1.559-.351 1.234-.594 1.88-1.813 1.7-3.204-.016-.13-.05-.255-.077-.382.053-.131.001-.352-.207-.717-.206-.546-.508-1.093-.965-1.711-3.092-3.398-7.13-5.822-12.008-5.756z" fill="#ff8e49"/><circle cx="18" cy="34" fill="#252524" r="2"/><circle cx="30" cy="34" fill="#252524" r="2"/><path d="m20.783 9.574c-.061 0-.463.686-.846 1.8" opacity=".2"/><path d="m20.783 8.574c-.061 0-.463.686-.846 1.8" fill="#ff8e49"/></svg>