<svg height="48" width="48" xmlns="http://www.w3.org/2000/svg">
    <g transform="matrix(2 0 0 2 2 2)">
        <path d="M6 3.5v2h8v7h2v-9zm10 16v-2H8v-7H6v9z" opacity=".2"/>
        <path d="M6 3v2h8v7h2V3z" fill="#017de8"/>
        <path d="M6 3v.5h10V3z" fill="#f4f4f7" opacity=".1"/>
        <path d="M16 19v-2H8v-7H6v9z" fill="#2ab915"/>
        <path d="M6 10v.5h2V10zm2 7v.5h8V17z" fill="#f4f4f7" opacity=".1"/>
        <circle cx="7" cy="4.5" opacity=".2" r="3"/>
        <circle cx="7" cy="4" fill="#39bdfe" r="3"/>
        <circle cx="15" cy="4.5" opacity=".2" r="3"/>
        <circle cx="15" cy="4" fill="#39bdfe" r="3"/>
        <circle cx="7" cy="11.5" opacity=".2" r="3"/>
        <circle cx="7" cy="11" fill="#68e01a" r="3"/>
        <circle cx="15" cy="11.5" opacity=".2" r="3"/>
        <circle cx="15" cy="11" fill="#39bdfe" r="3"/>
        <circle cx="7" cy="18.5" opacity=".2" r="3"/>
        <circle cx="7" cy="18" fill="#68e01a" r="3"/>
        <circle cx="15" cy="18.5" opacity=".2" r="3"/>
        <circle cx="15" cy="18" fill="#68e01a" r="3"/>
        <path d="M7 1a3 3 0 0 0-3 3 3 3 0 0 0 .014.256A3 3 0 0 1 7 1.5a3 3 0 0 1 2.986 2.744A3 3 0 0 0 10 4a3 3 0 0 0-3-3zm8 0a3 3 0 0 0-3 3 3 3 0 0 0 .014.256A3 3 0 0 1 15 1.5a3 3 0 0 1 2.986 2.744A3 3 0 0 0 18 4a3 3 0 0 0-3-3zM7 8a3 3 0 0 0-3 3 3 3 0 0 0 .014.256A3 3 0 0 1 7 8.5a3 3 0 0 1 2.986 2.744A3 3 0 0 0 10 11a3 3 0 0 0-3-3zm8 0a3 3 0 0 0-3 3 3 3 0 0 0 .014.256A3 3 0 0 1 15 8.5a3 3 0 0 1 2.986 2.744A3 3 0 0 0 18 11a3 3 0 0 0-3-3zm-8 7a3 3 0 0 0-3 3 3 3 0 0 0 .014.256A3 3 0 0 1 7 15.5a3 3 0 0 1 2.986 2.744A3 3 0 0 0 10 18a3 3 0 0 0-3-3zm8 0a3 3 0 0 0-3 3 3 3 0 0 0 .014.256A3 3 0 0 1 15 15.5a3 3 0 0 1 2.986 2.744A3 3 0 0 0 18 18a3 3 0 0 0-3-3z" fill="#f4f4f7" opacity=".2"/>
    </g>
</svg>
