<svg xmlns="http://www.w3.org/2000/svg" width="48" height="48" version="1"><rect style="opacity:.2" width="40" height="40" x="4" y="5" rx="12" ry="12"/><rect style="fill:#d5a43a" width="40" height="40" x="4" y="4" rx="12" ry="12"/><path style="opacity:.1" d="M21.215 14c-2.644 0-5.429.713-8.291 2.122-2.33 1.148-3.326 2.093-2.776 2.637.195.192.061.233 3.325-1.023 2.23-.859 4.972-1.583 6.455-1.707 2.29-.191 5.016.403 9.843 2.144 1.734.625 3.728 1.282 4.43 1.46 1.503.378 1.661.32 2.914.323l.885.002v-.744c0-.848-.103-.927-1.186-.927-2.414 0-3.015-.385-6.648-1.975-3.892-1.703-6.25-2.313-8.951-2.313zm-1.578 6.011a6.652 6.652 0 0 0-1.053.111c-1.334.272-3.12 1.256-4.215 2.256-1.698 1.55-3.618 4.447-3.43 5.178.085.33.174.35 1.67.412.869.036 2.571.231 3.905.432l2.523.363v1.02c-.418 1.87-.12 2.88-.045 3.56.279 2.465.283 2.732.928 2.643.997-1.6 1.112-4.666 1.12-6.434l1.015.973c2.786 2.426 3.608 2.391 5.998 3.525 1.976.795 3.67 1.147 5.58 1.01 1.174 0 2.657-1.283 2.656-2.768 0-1.144-.327-1.765-1.121-2.132-1.46-.676-3.08.126-3.08 1.627 0 1.472 1.438 2.29 2.392 1.359.398-.388.496-1.042.213-1.436-.125-.174-.139-.145-.06.125.27.934-.467 1.58-1.315 1.153-.886-.447-.717-1.883.248-2.12.477-.116 1.313.292 1.625.915.169.335.176.539.032 1.01-.474 1.543-2.605 1.55-5.81.025-.778-.37-1.82-.928-2.315-1.24-.855-.54-1.897-.99-3.389-2.27-.79-.678-.907-.586 1.154-.914.593-.094 2.326-.585 3.85-1.09 2.707-.898 2.81-1.318 4.465-1.33.931-.007-.616-.064.93.002l2.892.117V23.12l-3.354-.082c-4.676-.12-2.397.122-7.224-1.698-.922-.347-1.904-.767-2.549-.931-1.143-.292-3.028-.44-4.236-.397zm5.476 2.37c.056 0 .855.44 2.14.978 1.287.537 2.505 1.017 2.708 1.066.203.05.37.144.37.207 0 .064-.78.494-1.733.955-1.943.941-3.096 1.335-4.973 1.426l-.46.02.5-.383c.274-.212.69-.702.923-1.088.37-.613.424-.86.424-1.941 0-.682.045-1.24.101-1.24zm-8.383.325c.231-.042.23.307.233 1.004.004 1.373.341 2.12 1.312 2.907l.635.515-2.982-.271c-1.586-.148-2.819-.3-2.862-.342-.154-.15.697-1.3 1.944-2.467.928-.87 1.49-1.303 1.72-1.346z"/><path style="fill:#f4f4f7;opacity:.2" d="M16 4C9.352 4 4 9.352 4 16v1C4 10.352 9.352 5 16 5h16c6.648 0 12 5.352 12 12v-1c0-6.648-5.352-12-12-12H16z"/><path style="fill:#482f00" d="M21.215 13c-2.644 0-5.429.714-8.291 2.123-2.33 1.147-3.326 2.093-2.776 2.637.195.192.061.232 3.325-1.024 2.23-.858 4.972-1.583 6.455-1.707 2.29-.19 5.016.404 9.843 2.145 1.734.625 3.728 1.282 4.43 1.459 1.503.379 1.661.32 2.914.324l.885.002v-.744c0-.848-.103-.928-1.186-.928-2.414 0-3.015-.385-6.648-1.974C26.274 13.61 23.916 13 21.215 13zm-1.578 6.012a6.652 6.652 0 0 0-1.053.111c-1.334.271-3.12 1.256-4.215 2.256-1.698 1.55-3.618 4.447-3.43 5.178.085.329.174.35 1.67.412.869.036 2.571.23 3.905.431l2.523.364v1.02c-.418 1.869-.12 2.879-.045 3.56.279 2.464.283 2.732.928 2.642.997-1.6 1.112-4.666 1.12-6.433l1.015.972c2.786 2.426 3.608 2.392 5.998 3.526 1.976.795 3.67 1.146 5.58 1.01 1.174 0 2.657-1.284 2.656-2.768 0-1.145-.327-1.765-1.121-2.133-1.46-.676-3.08.127-3.08 1.627 0 1.473 1.438 2.29 2.392 1.36.398-.389.496-1.042.213-1.436-.125-.175-.139-.146-.06.125.27.934-.467 1.58-1.315 1.152-.886-.447-.717-1.882.248-2.119.477-.117 1.313.291 1.625.914.169.336.176.54.032 1.01-.474 1.543-2.605 1.55-5.81.025-.778-.37-1.82-.927-2.315-1.24-.855-.539-1.897-.99-3.389-2.27-.79-.677-.907-.585 1.154-.913.593-.095 2.326-.585 3.85-1.09 2.707-.898 2.81-1.319 4.465-1.33.931-.007-.616-.064.93.002l2.892.117v-2.975l-3.354-.082c-4.676-.12-2.397.122-7.224-1.697-.922-.348-1.904-.767-2.549-.932-1.143-.291-3.028-.44-4.236-.396zm5.476 2.369c.056 0 .855.44 2.14.978 1.287.538 2.505 1.017 2.708 1.067.203.05.37.143.37.207 0 .063-.78.493-1.733.955-1.943.94-3.096 1.335-4.973 1.426l-.46.02.5-.384c.274-.211.69-.701.923-1.087.37-.613.424-.86.424-1.942 0-.681.045-1.24.101-1.24zm-8.383.326c.231-.043.23.307.233 1.004.004 1.372.341 2.12 1.312 2.906l.635.516-2.982-.272c-1.586-.147-2.819-.3-2.862-.341-.154-.15.697-1.3 1.944-2.467.928-.87 1.49-1.303 1.72-1.346z"/></svg>