<svg height="48" width="48" xmlns="http://www.w3.org/2000/svg"><rect fill="#616161" height="38" rx="1.9" transform="matrix(0 -1 -1 0 0 0)" width="38" x="-43" y="-43"/><path d="m6 45c-1.108 0-2-.892-2-2v-1c0 1.108.892 2 2 2h36c1.108 0 2-.892 2-2v1c0 1.108-.892 2-2 2z" opacity=".2"/><path d="m24 24v20h18c1.108 0 2-.892 2-2v-18z" fill="#0a9554"/><path d="m24 4v20h20v-18c0-1.108-.892-2-2-2z" fill="#38739d"/><path d="m6 4c-1.108 0-2 .892-2 2v18h20v-20z" fill="#e54333"/><path d="m4 24v18c0 1.108.892 2 2 2h18v-20z" fill="#ff8f1e"/><path d="m6 4c-1.108 0-2 .892-2 2v1c0-1.108.892-2 2-2h36c1.108 0 2 .892 2 2v-1c0-1.108-.892-2-2-2zm-2 20h40v1h-40z" fill="#f4f4f7" opacity=".1"/></svg>