<svg height="48" width="48" xmlns="http://www.w3.org/2000/svg">
    <rect height="40" opacity=".2" rx="2" width="40" x="4" y="5"/>
    <rect fill="#2e92dd" height="40" rx="2" width="40" x="4" y="4"/>
    <path d="M10 11v7.008l5.574 7.01L18.691 11zm10.738 0-1.664 7.428L34.634 11zM38 11.61l-12.592 6.06L38 23.797zm-28 9.603V31h7.816zm21.123 1.5L34.945 39H38V26.098zm-.553 6.48L22.896 39h9.944zM10 33v6h10.31l4.721-6z" opacity=".2"/>
    <g fill="#f4f4f7">
        <path d="M6 4c-1.108 0-2 .892-2 2v1c0-1.108.892-2 2-2h36c1.108 0 2 .892 2 2V6c0-1.108-.892-2-2-2z" opacity=".2"/>
        <path d="M10 10v7.008l5.574 7.01L18.691 10zm10.738 0-1.664 7.428L34.634 10H20.739zM38 10.61l-12.592 6.06L38 22.797V10.609zm-28 9.603V30h7.816zm21.123 1.5L34.945 38H38V25.098zm-.553 6.48L22.896 38h9.944zM10 32v6h10.31l4.721-6z"/>
    </g>
</svg>
