<svg xmlns="http://www.w3.org/2000/svg" width="48" height="48" version="1"><rect fill="#d55045" width="12" height="12" x="5" y="5" rx="2" ry="2"/><rect fill="#ffc539" width="12" height="12" x="18" y="5" rx="2" ry="2"/><rect fill="#94d551" width="12" height="12" x="31" y="5" rx="2" ry="2"/><rect fill="#94d551" width="12" height="12" x="5" y="18" rx="2" ry="2"/><rect fill="#4b95d5" width="12" height="12" x="18" y="18" rx="2" ry="2"/><rect fill="#94d551" width="12" height="12" x="31" y="18" rx="2" ry="2"/><rect fill="#4b95d5" width="12" height="12" x="5" y="31" rx="2" ry="2"/><rect fill="#ffc539" width="12" height="12" x="18" y="31" rx="2" ry="2"/><rect fill="#d55045" width="12" height="12" x="31" y="31" rx="2" ry="2"/><path opacity=".2" d="M5 15v1c0 1.108.892 2 2 2h8c1.108 0 2-.892 2-2v-1c0 1.108-.892 2-2 2H7c-1.108 0-2-.892-2-2zm13 0v1c0 1.108.892 2 2 2h8c1.108 0 2-.892 2-2v-1c0 1.108-.892 2-2 2h-8c-1.108 0-2-.892-2-2zm13 0v1c0 1.108.892 2 2 2h8c1.108 0 2-.892 2-2v-1c0 1.108-.892 2-2 2h-8c-1.108 0-2-.892-2-2zM5 28v1c0 1.108.892 2 2 2h8c1.108 0 2-.892 2-2v-1c0 1.108-.892 2-2 2H7c-1.108 0-2-.892-2-2zm13 0v1c0 1.108.892 2 2 2h8c1.108 0 2-.892 2-2v-1c0 1.108-.892 2-2 2h-8c-1.108 0-2-.892-2-2zm13 0v1c0 1.108.892 2 2 2h8c1.108 0 2-.892 2-2v-1c0 1.108-.892 2-2 2h-8c-1.108 0-2-.892-2-2zM5 41v1c0 1.108.892 2 2 2h8c1.108 0 2-.892 2-2v-1c0 1.108-.892 2-2 2H7c-1.108 0-2-.892-2-2zm13 0v1c0 1.108.892 2 2 2h8c1.108 0 2-.892 2-2v-1c0 1.108-.892 2-2 2h-8c-1.108 0-2-.892-2-2zm13 0v1c0 1.108.892 2 2 2h8c1.108 0 2-.892 2-2v-1c0 1.108-.892 2-2 2h-8c-1.108 0-2-.892-2-2z"/><path fill="#fff" opacity=".2" d="M7 5c-1.108 0-2 .892-2 2v1c0-1.108.892-2 2-2h8c1.108 0 2 .892 2 2V7c0-1.108-.892-2-2-2H7zm13 0c-1.108 0-2 .892-2 2v1c0-1.108.892-2 2-2h8c1.108 0 2 .892 2 2V7c0-1.108-.892-2-2-2h-8zm13 0c-1.108 0-2 .892-2 2v1c0-1.108.892-2 2-2h8c1.108 0 2 .892 2 2V7c0-1.108-.892-2-2-2h-8zM7 18c-1.108 0-2 .892-2 2v1c0-1.108.892-2 2-2h8c1.108 0 2 .892 2 2v-1c0-1.108-.892-2-2-2H7zm13 0c-1.108 0-2 .892-2 2v1c0-1.108.892-2 2-2h8c1.108 0 2 .892 2 2v-1c0-1.108-.892-2-2-2h-8zm13 0c-1.108 0-2 .892-2 2v1c0-1.108.892-2 2-2h8c1.108 0 2 .892 2 2v-1c0-1.108-.892-2-2-2h-8zM7 31c-1.108 0-2 .892-2 2v1c0-1.108.892-2 2-2h8c1.108 0 2 .892 2 2v-1c0-1.108-.892-2-2-2H7zm13 0c-1.108 0-2 .892-2 2v1c0-1.108.892-2 2-2h8c1.108 0 2 .892 2 2v-1c0-1.108-.892-2-2-2h-8zm13 0c-1.108 0-2 .892-2 2v1c0-1.108.892-2 2-2h8c1.108 0 2 .892 2 2v-1c0-1.108-.892-2-2-2h-8z"/></svg>