<svg height="48" width="48" xmlns="http://www.w3.org/2000/svg">
    <path d="M3 13h40c1.662 0 3 1.338 3 3v22c0 1.662-1.338 3-3 3H3c-1.662 0-3-1.338-3-3V16c0-1.662 1.338-3 3-3z" fill="#a3b7cc"/>
    <path d="M3 14h40c1.108 0 2 .892 2 2v22c0 1.108-.892 2-2 2H3c-1.108 0-2-.892-2-2V16c0-1.108.892-2 2-2z" fill="#f1f1f1"/>
    <path d="M3 1C1.338 1 0 2.338 0 4v13h46V4c0-1.662-1.338-3-3-3z" fill="#36404d"/>
    <path d="M3 2c-1.108 0-2 .892-2 2v12h44V4c0-1.108-.892-2-2-2z" fill="#4b6477"/>
    <path d="M8 5c2.216 0 4 1.784 4 4s-1.784 4-4 4-4-1.784-4-4 1.784-4 4-4z" fill="#36404d"/>
    <path d="M8 6c1.662 0 3 1.338 3 3s-1.338 3-3 3-3-1.338-3-3 1.338-3 3-3z" fill="#f1f1f1"/>
    <path d="M19 5c2.216 0 4 1.784 4 4s-1.784 4-4 4-4-1.784-4-4 1.784-4 4-4z" fill="#36404d"/>
    <path d="M19 6c1.662 0 3 1.338 3 3s-1.338 3-3 3-3-1.338-3-3 1.338-3 3-3z" fill="#f1f1f1"/>
    <path d="M33 18c8.31 0 15 6.69 15 15s-6.69 15-15 15-15-6.69-15-15 6.69-15 15-15z" fill="#a3b7cc"/>
    <path d="M33 19c7.756 0 14 6.244 14 14s-6.244 14-14 14-14-6.244-14-14 6.244-14 14-14z" fill="#fff"/>
    <path d="M27 23c1.108 0 2 .892 2 2s-.892 2-2 2-2-.892-2-2 .892-2 2-2z" fill="#c74343"/>
    <path d="M25 29c1.662 0 3 1.338 3 3s-1.338 3-3 3-3-1.338-3-3 1.338-3 3-3z" fill="#5e9c76"/>
    <path d="M29 36c2.216 0 4 1.784 4 4s-1.784 4-4 4-4-1.784-4-4 1.784-4 4-4z" fill="#4f92db"/>
    <path d="M25 30c1.108 0 2 .892 2 2s-.892 2-2 2-2-.892-2-2 .892-2 2-2z" fill="#bae0bd"/>
    <path d="M27 24c.554 0 1 .446 1 1s-.446 1-1 1-1-.446-1-1 .446-1 1-1z" fill="#f78f8f"/>
    <path d="M29 37c1.662 0 3 1.338 3 3s-1.338 3-3 3-3-1.338-3-3 1.338-3 3-3z" fill="#5ac0ff"/>
    <path d="M35.986 21a1 1 0 0 0-.693.293l-2 2a1 1 0 0 0 0 1.414L37.586 29l-4.293 4.293a1 1 0 0 0 0 1.414l2 2a1 1 0 0 0 1.414 0l7-7a1 1 0 0 0 0-1.414l-7-7a1 1 0 0 0-.72-.293z" fill="#345166"/>
    <path d="m34 34 2 2 7-7-7-7-2 2 5 5z" fill="#4b6477"/>
</svg>
