<svg xmlns="http://www.w3.org/2000/svg" width="48" height="48" version="1"><rect style="fill:#bc494d" width="28" height="36" x="-38" y="-42" rx="2" ry="2" transform="matrix(0 -1 -1 0 0 0)"/><path style="opacity:.2" d="M10 18v14h2v-6h6v-2h-6v-4h6v-2h-6zm10 0v2h3v12h2V20h3v-2zm10 0v14h2v-6h6v-8h-6zm2 2h4v4h-4z"/><path style="fill:#f4f4f7" d="M10 17v14h2v-6h6v-2h-6v-4h6v-2h-6zm10 0v2h3v12h2V19h3v-2zm10 0v14h2v-6h6v-8h-6zm2 2h4v4h-4z"/><path style="opacity:.2" d="M34.609 7a1.572 1.544 0 0 0-1.607 1.543V11h-25c-1.108 0-2 .892-2 2s.892 2 2 2h25v2.455a1.572 1.544 0 0 0 2.355 1.338l3.93-2.228 3.927-2.229a1.572 1.544 0 0 0 0-2.674l-3.927-2.228-3.93-2.227A1.572 1.544 0 0 0 34.61 7zM13.393 31a1.572 1.544 0 0 0-.748.207l-3.928 2.229-3.93 2.226a1.572 1.544 0 0 0 0 2.676l3.93 2.227 3.928 2.228a1.572 1.544 0 0 0 2.357-1.336V39h25c1.107 0 2-.892 2-2s-.893-2-2-2h-25v-2.455A1.572 1.544 0 0 0 13.395 31a1.572 1.544 0 0 1-.002 0z"/><rect style="fill:#3f92f7" width="36" height="4" x="6" y="10" rx="2" ry="2"/><path style="fill:#3f92f7" d="M34.607 6A1.572 1.544 0 0 0 33 7.544v8.912a1.572 1.544 0 0 0 2.357 1.337l3.929-2.228 3.928-2.228a1.572 1.544 0 0 0 0-2.674l-3.928-2.228-3.929-2.228A1.572 1.544 0 0 0 34.607 6z"/><rect style="fill:#3f92f7" width="36" height="4" x="-42" y="34" rx="2" ry="2" transform="scale(-1 1)"/><path style="fill:#3f92f7" d="M13.392 30A1.572 1.544 0 0 1 15 31.544v8.912a1.572 1.544 0 0 1-2.357 1.337l-3.929-2.228-3.928-2.228a1.572 1.544 0 0 1 0-2.674l3.928-2.228 3.929-2.228a1.572 1.544 0 0 1 .749-.207z"/><path style="fill:#f4f4f7;opacity:.2" d="M34.608 6a1.572 1.544 0 0 0-1.607 1.543v1A1.572 1.544 0 0 1 34.608 7a1.572 1.544 0 0 1 .75.207l3.928 2.227 3.93 2.228a1.572 1.544 0 0 1 .699.836 1.572 1.544 0 0 0-.7-1.836l-3.929-2.228-3.928-2.227a1.572 1.544 0 0 0-.75-.207zM8.001 10c-1.108 0-2 .892-2 2 0 .174.029.34.07.5a1.99 1.99 0 0 1 1.93-1.5h25v-1zm5.39 20a1.572 1.544 0 0 0-.747.207l-3.928 2.229-3.93 2.226a1.572 1.544 0 0 0-.701 1.838 1.572 1.544 0 0 1 .701-.838l3.93-2.226 3.928-2.229a1.572 1.544 0 0 1 .748-.207 1.572 1.544 0 0 1 .002 0A1.572 1.544 0 0 1 15 32.545v-1A1.572 1.544 0 0 0 13.394 30a1.572 1.544 0 0 1-.002 0zm1.61 4v1h25a1.99 1.99 0 0 1 1.93 1.5c.041-.16.07-.326.07-.5 0-1.108-.892-2-2-2z"/></svg>