<svg xmlns="http://www.w3.org/2000/svg" width="48" height="48" version="1"><rect style="opacity:.2" width="32" height="24" x="-43" y="-36" rx="2" ry="2" transform="matrix(0 -1 -1 0 0 0)"/><rect style="fill:#8e8e8e" width="32" height="24" x="-42" y="-36" rx="2" ry="2" transform="matrix(0 -1 -1 0 0 0)"/><rect style="opacity:.2" width="32" height="40" x="-39" y="-44" rx="2" ry="2" transform="matrix(0 -1 -1 0 0 0)"/><rect style="fill:#4f4f4f" width="32" height="40" x="-38" y="-44" rx="2" ry="2" transform="matrix(0 -1 -1 0 0 0)"/><path style="opacity:.1;fill:#f4f4f7" d="M6 6c-1.108 0-2 .892-2 2v1c0-1.108.892-2 2-2h36c1.108 0 2 .892 2 2V8c0-1.108-.892-2-2-2zM7 35h34v1H7z"/><rect style="fill:#1d83af" width="26" height="34" x="-35" y="-41" rx="0" ry="0" transform="matrix(0 -1 -1 0 0 0)"/><path style="opacity:.2" d="M33 11a5 5 0 0 0-5 5 5 5 0 0 0 5 5 5 5 0 0 0 5-5 5 5 0 0 0-5-5zm-11 4a2 2 0 0 0-2 2 2 2 0 0 0 2 2 2 2 0 0 0 2-2 2 2 0 0 0-2-2zm-8 4a4 4 0 0 0-4 4 4 4 0 0 0 4 4 4 4 0 0 0 4-4 4 4 0 0 0-4-4zm22 6a2 2 0 0 0-2 2 2 2 0 0 0 2 2 2 2 0 0 0 2-2 2 2 0 0 0-2-2zm-9 2a3 3 0 0 0-3 3 3 3 0 0 0 3 3 3 3 0 0 0 3-3 3 3 0 0 0-3-3z"/><circle style="fill:#f0f9fd" cx="33" cy="15" r="5"/><circle style="fill:#c4e7f5" cx="14" cy="22" r="4"/><circle style="fill:#a6daf0" cx="27" cy="29" r="3"/><circle style="fill:#c4e7f5" cx="22" cy="16" r="2"/><circle style="fill:#d3edf8" cx="36" cy="26" r="2"/></svg>