<svg width="48" height="48" xmlns="http://www.w3.org/2000/svg"><path d="M9 6h30v14H9z" style="fill:#b7b7b7"/><rect x="4" y="18" width="40" height="24" rx="2" ry="2" style="fill:#4f4f4f"/><path style="opacity:.4" d="M12 23h24v4H12zM14 29h20v4H14zM16 35h16v4H16z"/><path d="M9 6v1h30V6z" style="fill:#f4f4f7;opacity:.2"/><path d="M4 40v1c0 1.108.892 2 2 2h36c1.108 0 2-.892 2-2v-1c0 1.108-.892 2-2 2H6c-1.108 0-2-.892-2-2z" style="opacity:.2"/><circle cx="36" cy="37" r="11" style="opacity:.2"/><circle cx="36" cy="36" r="11" style="fill:#ba22ff"/><path style="opacity:.5" d="M12 9h6v4h-6zM30 9h6v4h-6z"/><path d="M30 36a5.997 5.997 0 0 0 11.994.1A1 1 0 0 0 42 36a1 1 0 0 0-1-1 1 1 0 0 0-1 1 4 4 0 1 1-4-4v2l4-3-4-3v2a6 6 0 0 0-6 6z" style="fill:#f4f4f7"/></svg>