<svg height="48" width="48" xmlns="http://www.w3.org/2000/svg"><path d="m5 40 .019-15.258-.019-7.242 19-11.5 19 12v22l-6.333 3-6.667-3v-7l5-5v-6l-11-8-12 8v6l6 5v7l-6.667 3z" fill="#25c65f"/><path d="m24 6-19 11.5.002.998 18.998-11.498 19 12v-1zm-18.98 19.42-.02 14.58h.002l.018-14.258zm6.98 2.58v1l6 5v-1zm23 0-5 5v1l5-5z" fill="#fff" opacity=".2"/><path d="m24 14-12 8v1l12-8 11 8v-1zm-18.998 4.498-.002.002.02 6.92v-.678zm0 21.502-.002 1 6.334 3 6.666-3v-1l-6.666 3zm24.998 0v1l6.666 3 6.334-3v-1l-6.334 3z" opacity=".2"/></svg>