<svg height="48" width="48" xmlns="http://www.w3.org/2000/svg">
    <g transform="translate(0 -1004.362)">
        <circle cx="24" cy="1029.362" opacity=".2" r="20"/>
        <circle cx="24" cy="1028.362" fill="#f4f4f7" r="20"/>
        <path d="M24 1008.362a20 20 0 0 0-20 20 20 20 0 0 0 .021.582A20 20 0 0 1 24 1009.362a20 20 0 0 1 19.979 19.418 20 20 0 0 0 .021-.418 20 20 0 0 0-20-20z" fill="#f4f4f7" opacity=".2"/>
        <rect fill="#469961" height="4" ry="2" width="20" x="26" y="1026.36"/>
        <rect fill="#438f96" height="4" ry="2" width="20" x="2" y="1020.36"/>
        <rect fill="#469961" height="4" ry="2" width="20" x="2" y="1032.36"/>
        <path d="M16 1038.362c1.32-3.95 1.984-7.037 2-10 .017-3.037-.646-5.95-2-10 12.462 0 18 10 18 10s-5.538 10-18 10z" fill="#17191e"/>
    </g>
</svg>
