<svg height="48" width="48" xmlns="http://www.w3.org/2000/svg">
    <rect height="32" opacity=".2" rx="3" width="44" x="2" y="9"/>
    <rect fill="#00cfff" height="32" rx="3" width="44" x="2" y="8"/>
    <path d="M7 17v16h10v-3h-7V17zm24 0v16h3v-5.89h1.38c1.404-.102 2.516-.248 3.327-.74.825-.494 1.414-1.143 1.766-1.95.351-.807.527-1.48.527-2.422 0-1.554-.433-2.773-1.299-3.654-.852-.897-2.21-1.344-4.076-1.344zm-6.613.002c-1.721-.033-3.633.547-4.59 2.082-.716 1.21-.789 2.774-.281 4.074.57 1.388 1.897 2.221 3.191 2.842.96.518 2.053.89 2.803 1.719.69.819.178 2.245-.873 2.44-1.611.362-3.238-.17-4.713-.794-.386-.105-1.061-.678-.899.035v2.659c1.988.954 4.31 1.171 6.457.703 1.636-.349 3.125-1.617 3.42-3.315.268-1.393.006-2.982-1.07-3.982-1.417-1.386-3.42-1.865-4.98-3.035-.803-.68-.565-2.162.441-2.514 1.18-.397 2.458-.04 3.59.36.424.064 1.068.702 1.154.001l.895-2.187c-1.437-.624-2.962-1.116-4.545-1.088zM34 20h1.502c1.666 0 2.498.655 2.498 1.963 0 .717-.264 1.237-.791 1.564-.514.315-1.215.473-2.104.473H34z" opacity=".2"/>
    <g fill="#f4f4f7">
        <path d="M7 16v16h10v-3h-7V16zm24 0v16h3v-5.89h1.38c1.404-.102 2.516-.248 3.327-.74.825-.494 1.414-1.143 1.766-1.95.351-.807.527-1.48.527-2.422 0-1.554-.433-2.773-1.299-3.654-.852-.897-2.21-1.344-4.076-1.344zm-6.613.002c-1.721-.033-3.633.547-4.59 2.082-.716 1.21-.789 2.774-.281 4.074.57 1.388 1.897 2.221 3.191 2.842.96.518 2.053.89 2.803 1.719.69.819.178 2.245-.873 2.44-1.611.361-3.238-.17-4.713-.794-.386-.105-1.061-.678-.899.035v2.659c1.988.954 4.31 1.171 6.457.703 1.636-.349 3.125-1.617 3.42-3.315.268-1.393.006-2.982-1.07-3.982-1.417-1.386-3.42-1.865-4.98-3.035-.803-.68-.565-2.162.441-2.514 1.18-.397 2.458-.04 3.59.36.424.064 1.068.702 1.154.001l.895-2.187c-1.437-.625-2.962-1.116-4.545-1.088zM34 19h1.502c1.666 0 2.498.655 2.498 1.963 0 .717-.264 1.237-.791 1.564-.514.315-1.215.473-2.104.473H34z"/>
        <path d="M5 8c-1.662 0-3 1.338-3 3v1c0-1.662 1.338-3 3-3h38c1.662 0 3 1.338 3 3v-1c0-1.662-1.338-3-3-3z" opacity=".2"/>
    </g>
</svg>
