<svg xmlns="http://www.w3.org/2000/svg" width="48" height="48" version="1"><path style="opacity:.2" d="M43.777 28A19.951 19.951 0 0 1 24 45a19.919 19.919 0 0 1-15.24-7.037l-2.68 2.68a1.219 1.219 0 0 1-.879.357A1.219 1.219 0 0 1 4 39.781V29.22A1.219 1.219 0 0 1 5.219 28H15.78a1.219 1.219 0 0 1 .862 2.08l-2.17 2.17a12.01 12.01 0 0 0 4.687 3.727c.287.126.58.24.877.345l.078.028c.273.093.55.175.83.25l.118.03c.28.072.567.131.855.182l.102.02c.269.045.542.079.816.105.061.006.122.017.184.022A12 12 0 0 0 35.61 28z"/><circle style="fill:#f4f4f7" cx="-24" cy="24" r="16" transform="scale(-1 1)"/><path style="opacity:.1" d="M24 5c6.122 0 11.58 2.729 15.242 7.035l2.678-2.678A1.219 1.219 0 0 1 42.799 9 1.219 1.219 0 0 1 44 10.219V20.78A1.219 1.219 0 0 1 42.781 22H32.22a1.219 1.219 0 0 1-.862-2.08l2.178-2.178a12.02 12.02 0 0 0-4.695-3.719c-.287-.126-.58-.24-.877-.345l-.078-.028c-.273-.093-.55-.175-.83-.25-.04-.01-.078-.021-.118-.03-.28-.072-.567-.131-.855-.182l-.102-.02c-.269-.045-.542-.079-.816-.105-.061-.006-.122-.017-.184-.022A12 12 0 0 0 12.39 22H4.224A19.951 19.951 0 0 1 24 5z"/><path style="fill:#48a9ff" d="M24 4c6.122 0 11.58 2.729 15.242 7.035l2.678-2.678A1.219 1.219 0 0 1 42.799 8 1.219 1.219 0 0 1 44 9.219V19.78A1.219 1.219 0 0 1 42.781 21H32.22a1.219 1.219 0 0 1-.862-2.08l2.178-2.178a12.02 12.02 0 0 0-4.695-3.719c-.287-.126-.58-.24-.877-.345l-.078-.028c-.273-.093-.55-.175-.83-.25-.04-.01-.078-.021-.118-.03-.28-.072-.567-.131-.855-.182l-.102-.02c-.269-.045-.542-.079-.816-.105-.061-.006-.122-.017-.184-.022A12 12 0 0 0 12.39 21H4.224A19.951 19.951 0 0 1 24 4z"/><path style="fill:#486afb" d="M43.777 27A19.951 19.951 0 0 1 24 44a19.919 19.919 0 0 1-15.24-7.037l-2.68 2.68a1.219 1.219 0 0 1-.879.357A1.219 1.219 0 0 1 4 38.781V28.22A1.219 1.219 0 0 1 5.219 27H15.78a1.219 1.219 0 0 1 .862 2.08l-2.17 2.17a12.01 12.01 0 0 0 4.687 3.727c.287.126.58.24.877.345l.078.028c.273.093.55.175.83.25l.118.03c.28.072.567.131.855.182l.102.02c.269.045.542.079.816.105.061.006.122.017.184.022A12 12 0 0 0 35.61 27z"/><path style="opacity:.2;fill:#f4f4f7" d="M24 4c6.122 0 11.58 2.729 15.242 7.035l2.678-2.678A1.219 1.219 0 0 1 44 9.22v1a1.219 1.219 0 0 0-2.08-.862l-2.678 2.678A19.934 19.934 0 0 0 24 5C14.293 5 6.263 11.853 4.418 21h-.195A19.951 19.951 0 0 1 24 4z"/></svg>