<svg width="48" height="48" xmlns="http://www.w3.org/2000/svg"><circle cx="24" cy="25" r="20" style="opacity:.2"/><circle cx="24" cy="24" r="20" style="fill:#21437c"/><circle cx="24" cy="24" r="13" style="fill:#d42c3c"/><path d="M24 4A20 20 0 0 0 4 24a20 20 0 0 0 .021.582A20 20 0 0 1 24 5a20 20 0 0 1 19.979 19.418A20 20 0 0 0 44 24 20 20 0 0 0 24 4z" style="fill:#f4f4f7;opacity:.1"/><path d="M24 11a14 14 0 0 0-14 14 14 14 0 0 0 14 14 14 14 0 0 0 14-14 14 14 0 0 0-14-14zm0 2a12 12 0 0 1 3.703.592L26 17l-2 4-2-4-1.7-3.4A12 12 0 0 1 24 13zm-5.45 1.309 1.208 3.62 1.414 4.243-4.242-1.414-3.61-1.203a12 12 0 0 1 2.319-3.162 12 12 0 0 1 2.912-2.084zm10.895.011a12 12 0 0 1 3.162 2.319 12 12 0 0 1 2.084 2.912l-3.62 1.207-4.243 1.414 1.414-4.242zm-16.853 6.977L16 23l4 2-4 2-3.4 1.7A12 12 0 0 1 12 25a12 12 0 0 1 .592-3.703zM35.4 21.3A12 12 0 0 1 36 25a12 12 0 0 1-.592 3.703L32 27l-4-2 4-2zM24 22a1 1 0 0 1 1 1 1 1 0 0 1-1 1 1 1 0 0 1-1-1 1 1 0 0 1 1-1zm-2 2a1 1 0 0 1 1 1 1 1 0 0 1-1 1 1 1 0 0 1-1-1 1 1 0 0 1 1-1zm4 0a1 1 0 0 1 1 1 1 1 0 0 1-1 1 1 1 0 0 1-1-1 1 1 0 0 1 1-1zm-2 2a1 1 0 0 1 1 1 1 1 0 0 1-1 1 1 1 0 0 1-1-1 1 1 0 0 1 1-1zm-2.828 1.828-1.414 4.242-1.203 3.61a12 12 0 0 1-3.162-2.319 12 12 0 0 1-2.084-2.912l3.62-1.207zm5.656 0 4.242 1.414 3.61 1.203a12 12 0 0 1-2.319 3.162 12 12 0 0 1-2.912 2.084l-1.207-3.62zM24 29l2 4 1.7 3.4a12 12 0 0 1-3.7.6 12 12 0 0 1-3.703-.592L22 33z" style="opacity:.2"/><path d="M24 10a14 14 0 0 0-14 14 14 14 0 0 0 14 14 14 14 0 0 0 14-14 14 14 0 0 0-14-14zm0 2a12 12 0 0 1 3.703.592L26 16l-2 4-2-4-1.7-3.4A12 12 0 0 1 24 12zm-5.45 1.309 1.208 3.62 1.414 4.243-4.242-1.414-3.61-1.203a12 12 0 0 1 2.319-3.162 12 12 0 0 1 2.912-2.084zm10.895.011a12 12 0 0 1 3.162 2.319 12 12 0 0 1 2.084 2.912l-3.62 1.207-4.243 1.414 1.414-4.242 1.203-3.61zm-16.853 6.977L16 22l4 2-4 2-3.4 1.7A12 12 0 0 1 12 24a12 12 0 0 1 .592-3.703zM35.4 20.3A12 12 0 0 1 36 24a12 12 0 0 1-.592 3.703L32 26l-4-2 4-2 3.4-1.7zM24 21a1 1 0 0 1 1 1 1 1 0 0 1-1 1 1 1 0 0 1-1-1 1 1 0 0 1 1-1zm-2 2a1 1 0 0 1 1 1 1 1 0 0 1-1 1 1 1 0 0 1-1-1 1 1 0 0 1 1-1zm4 0a1 1 0 0 1 1 1 1 1 0 0 1-1 1 1 1 0 0 1-1-1 1 1 0 0 1 1-1zm-2 2a1 1 0 0 1 1 1 1 1 0 0 1-1 1 1 1 0 0 1-1-1 1 1 0 0 1 1-1zm-2.828 1.828-1.414 4.242-1.203 3.61a12 12 0 0 1-3.162-2.319 12 12 0 0 1-2.084-2.912l3.62-1.207 4.243-1.414zm5.656 0 4.242 1.414 3.61 1.203a12 12 0 0 1-2.319 3.162 12 12 0 0 1-2.912 2.084l-1.207-3.62-1.414-4.243zM24 28l2 4 1.7 3.4a12 12 0 0 1-3.7.6 12 12 0 0 1-3.703-.592L22 32l2-4z" style="fill:#dba824"/><path d="M24 10a14 14 0 0 0-14 14 14 14 0 0 0 .021.414A14 14 0 0 1 24 11a14 14 0 0 1 13.979 13.586A14 14 0 0 0 38 24a14 14 0 0 0-14-14zm3.266 3.469L24 20l-2-4-1.26-2.521a12 12 0 0 0-.44.12L22 17l2 4 2-4 1.703-3.408a12 12 0 0 0-.437-.123zm6.943 5.242-3.139 1.047-3.867 1.289-.375 1.125 4.242-1.414 3.621-1.207a12 12 0 0 0-.482-.84zm-20.41.004a12 12 0 0 0-.479.84l3.61 1.203 4.242 1.414-.375-1.125-3.867-1.29-3.131-1.042zm9.336 3.785A1 1 0 0 0 23 23a1 1 0 0 0 1 1 1 1 0 0 0 1-1 1 1 0 0 0-.135-.5A1 1 0 0 1 24 23a1 1 0 0 1-.865-.5zm12.84 1.986a12 12 0 0 1-.567 3.217L32 26l-3-1.5-1 .5 4 2 3.408 1.703A12 12 0 0 0 36 25a12 12 0 0 0-.025-.514zM19 24.5 16 26l-3.4 1.7a12 12 0 0 1-.575-3.186A12 12 0 0 0 12 25a12 12 0 0 0 .6 3.7L16 27l4-2-1-.5zm2.135 0A1 1 0 0 0 21 25a1 1 0 0 0 1 1 1 1 0 0 0 1-1 1 1 0 0 0-.135-.5A1 1 0 0 1 22 25a1 1 0 0 1-.865-.5zm4 0A1 1 0 0 0 25 25a1 1 0 0 0 1 1 1 1 0 0 0 1-1 1 1 0 0 0-.135-.5A1 1 0 0 1 26 25a1 1 0 0 1-.865-.5zm-2 2A1 1 0 0 0 23 27a1 1 0 0 0 1 1 1 1 0 0 0 1-1 1 1 0 0 0-.135-.5A1 1 0 0 1 24 27a1 1 0 0 1-.865-.5zm-1.963 1.328-.375.125-1.04 3.117-1.202 3.61a12 12 0 0 1-3.162-2.319 12 12 0 0 1-1.602-2.072l-.482.16a12 12 0 0 0 2.084 2.912 12 12 0 0 0 3.162 2.319l1.203-3.61 1.414-4.242zm5.656 0 1.414 4.242 1.207 3.621a12 12 0 0 0 2.912-2.084 12 12 0 0 0 2.319-3.162l-.479-.16a12 12 0 0 1-1.84 2.322 12 12 0 0 1-2.912 2.084l-1.207-3.62-1.039-3.118-.375-.125zm.432 7.693A12 12 0 0 1 24 36a12 12 0 0 1-3.266-.469l-.437.877A12 12 0 0 0 24 37a12 12 0 0 0 3.7-.6l-.44-.879z" style="fill:#f4f4f7;opacity:.2"/></svg>