<svg height="48" width="48" xmlns="http://www.w3.org/2000/svg"><rect height="10" opacity=".2" ry="2" width="28" x="10" y="25"/><path d="m24 5c12 0 12 6 12 6v28l-12 6-12-6v-28s0-6 12-6z" opacity=".2"/><rect fill="#d01818" height="10" ry="2" width="28" x="10" y="24"/><path d="m12 24c-1.108 0-2 .892-2 2v1c0-1.108.892-2 2-2h24c1.108 0 2 .892 2 2v-1c0-1.108-.892-2-2-2z" fill="#f4f4f7" opacity=".1"/><path d="m24 4c12 0 12 6 12 6v28l-12 6-12-6v-28s0-6 12-6z" fill="#f15555"/><path d="m20 13v12h-8v10h8v8l4 2 4-2v-8h8v-10h-8v-12l-4 4z" opacity=".2"/><path d="m20 12v12h-8v10h8v8l4 2 4-2v-8h8v-10h-8v-12l-4 4z" fill="#f4f4f7"/><path d="m16.129 26.129a3 3 0 0 0 -2.129 2.871 3 3 0 0 0 3 3 3 3 0 0 0 2.867-2.133zm15.738.004-3.737 3.737a3 3 0 0 0 2.87 2.13 3 3 0 0 0 3-3 3 3 0 0 0 -2.133-2.867z" fill="#17191e"/><path d="m24 4c-12 0-12 6-12 6v1s0-6 12-6 12 6 12 6v-1s0-6-12-6z" fill="#f4f4f7" opacity=".2"/></svg>