<svg height="48" width="48" xmlns="http://www.w3.org/2000/svg">
    <path d="M44 43S44 5 24 5 4 43 4 43c0 1.108.892 2 2 2h36c1.108 0 2-.892 2-2z" opacity=".2"/>
    <path d="M44 42S44 4 24 4 4 42 4 42c0 1.108.892 2 2 2h36c1.108 0 2-.892 2-2z" fill="#b49"/>
    <path d="M24 4C4 4 4 42 4 42c0 .066.013.127.02.191C4.09 38.051 5.238 5 24 5s19.909 33.051 19.98 37.191c.007-.064.02-.125.02-.191 0 0 0-38-20-38z" fill="#f4f4f7" opacity=".2"/>
    <path d="M36 25c0 6.627-5.373 12-12 12s-12-5.373-12-12a12 12 0 0 1 6.612-10.725c1.62-.816 3.384 1.202 5.321 1.202 2 0 3.951-1.988 5.609-1.124A11.999 11.999 0 0 1 36 25z" opacity=".2"/>
    <path d="M36 24c0 6.627-5.373 12-12 12s-12-5.373-12-12c0-4.445 2.417-8.326 6.008-10.4 1.763-1.017 3.676 1.747 5.858 1.747 2.262 0 4.512-2.721 6.318-1.633A11.994 11.994 0 0 1 36 24z" fill="#69e27d"/>
    <circle cx="24" cy="24" fill="#00a200" r="8"/>
    <g fill="none" stroke-linecap="round" stroke-linejoin="round" stroke-width="4">
        <path d="M8 16s4.461-3.017 7-3c3.283.022 5.717 4 9 4s5.717-3.978 9-4c2.539-.017 7 3 7 3" opacity=".2" stroke="#000"/>
        <path d="M8 15s4.461-3.017 7-3c3.283.022 5.717 4 9 4s5.717-3.978 9-4c2.539-.017 7 3 7 3" stroke="#17191e"/>
    </g>
</svg>
