<svg height="48" width="48" xmlns="http://www.w3.org/2000/svg"><g transform="matrix(2 0 0 2 2 2)"><circle cx="5.5" cy="5.5" fill="#c9c9c9" r="3.5"/><path d="m5.5 2a3.5 3.5 0 0 0 -3.5 3.5 3.5 3.5 0 0 0 .012.275 3.5 3.5 0 0 1 3.488-3.275 3.5 3.5 0 0 1 3.488 3.225 3.5 3.5 0 0 0 .012-.225 3.5 3.5 0 0 0 -3.5-3.5z" fill="#f4f4f7" opacity=".1"/><ellipse cx="11" cy="11.5" opacity=".2" rx="10" ry="9"/><path d="m11 2a10 9 0 0 0 -10 9 10 9 0 0 0 10 9z" fill="#f4f4f7"/><circle cx="16.5" cy="5.5" fill="#17191e" r="3.5"/><path d="m11 2a10 9 0 0 0 -10 9 10 9 0 0 0 .012.207 10 9 0 0 1 9.988-8.707z" fill="#f4f4f7" opacity=".2"/><circle cx="7" cy="9.5" opacity=".1" r="1"/><circle cx="7" cy="9" fill="#17191e" r="1"/><path d="m16.5 2a3.5 3.5 0 0 0 -3.5 3.5 3.5 3.5 0 0 0 .012.275 3.5 3.5 0 0 1 3.488-3.275 3.5 3.5 0 0 1 3.488 3.225 3.5 3.5 0 0 0 .012-.225 3.5 3.5 0 0 0 -3.5-3.5z" fill="#f4f4f7" opacity=".1"/><path d="m11 2v18a10 9 0 0 0 10-9 10 9 0 0 0 -10-9z" fill="#4f4f4f"/><path d="m11 2v.5a10 9 0 0 1 9.988 8.793 10 9 0 0 0 .012-.293 10 9 0 0 0 -10-9z" fill="#f4f4f7" opacity=".1"/><path d="m11 13v3c4 0 8-5 8-5s-3 2-8 2z" fill="#f4f4f7"/><path d="m9 12h2v4h-2z" fill="#17191e"/><path d="m9 14.5-1-2v3s1 2 3 2c1 0 3-2 3-2h-3c-1 0-2-1-2-1z" opacity=".1"/><path d="m9 14-1-2v3s1 2 3 2c1 0 3-2 3-2h-3c-1 0-2-1-2-1z" fill="#b3b3b3"/><path d="m9 14.5c1 0 2-1 2-1s1 1 2 1 2-1 2-2-2-2-4-2-4 1-4 2 1 2 2 2z" opacity=".2"/><path d="m9 14c1 0 2-1 2-1s1 1 2 1 2-1 2-2-2-2-4-2-4 1-4 2 1 2 2 2z" fill="#b3b3b3"/><path d="m15 8.5-2.44 1.744s.761-.175 1.44-.142c1 .047.697.885.697.885s.738-.487 1.303-.487c.588 0 .534 1 .534 1l2.466-4s-2 2-4 2c-.496 0 0-1 0-1z" opacity=".2"/><path d="m15 8-2.44 1.744s.761-.175 1.44-.142c1 .047.697.885.697.885s.738-.487 1.303-.487c.588 0 .534 1 .534 1l2.466-4s-2 2-4 2c-.496 0 0-1 0-1z" fill="#f00e0e"/><path d="m11 12.5 1-1h-2z" opacity=".1"/><path d="m11 12 1-1h-2z" fill="#17191e"/></g></svg>