<svg width="48" height="48" xmlns="http://www.w3.org/2000/svg"><rect x="4" y="5" width="40" height="40" rx="3" ry="3" style="opacity:.2"/><rect x="4" y="4" width="40" height="40" rx="3" ry="3" style="fill:#17191e"/><path d="M9 18v11h6V18zm18 0L16 29h5v6h6zm6.5 0a5.5 5.5 0 0 0-5.5 5.5 5.5 5.5 0 0 0 5.5 5.5 5.5 5.5 0 0 0 5.5-5.5 5.5 5.5 0 0 0-5.5-5.5z" style="opacity:.2"/><path d="M9 17v11h6V17H9zm18 0L16 28h5v6h6V17zm6.5 0a5.5 5.5 0 0 0-5.5 5.5 5.5 5.5 0 0 0 5.5 5.5 5.5 5.5 0 0 0 5.5-5.5 5.5 5.5 0 0 0-5.5-5.5z" style="fill:#f4f4f7"/><path d="M7 4C5.338 4 4 5.338 4 7v1c0-1.662 1.338-3 3-3h34c1.662 0 3 1.338 3 3V7c0-1.662-1.338-3-3-3H7z" style="fill:#f4f4f7;opacity:.1"/></svg>