<svg height="48" width="48" xmlns="http://www.w3.org/2000/svg"><path d="m24 5c-6.328.703-8.696 2.917-9.547 11.105a4.49 4.49 0 0 0 -5.453 4.395v14a4.49 4.49 0 0 0 4.5 4.5c.528 0 1.026-.108 1.496-.273.502 2.511 1.004 4.273 1.004 4.273s0 2 4 2c5 0 6-2 6-2v-2c0-1 .529-1 1-1 1 0 1 2 1 2s1 1 4 1c4 0 5-2 5-2s1-3 1-7c0-4.519-.46-8.824-1.36-13.277a4.481 4.481 0 0 0 1.36-3.223c0-2.046-1.362-3.744-3.225-4.295-1.244-4.461-2.281-8.205-10.775-8.205z" opacity=".2"/><rect fill="#a20109" height="23" ry="4.5" width="9" x="9" y="15"/><path d="m13.5 15a4.49 4.49 0 0 0 -4.5 4.5v1c0-2.493 2.007-4.5 4.5-4.5s4.5 2.007 4.5 4.5v-1a4.49 4.49 0 0 0 -4.5-4.5z" fill="#f4f4f7" opacity=".1"/><path d="m14 29c0 6 2 13 2 13s0 2 4 2c5 0 6-2 6-2v-2c0-1 .529-1 1-1 1 0 1 2 1 2s1 1 4 1c4 0 5-2 5-2s1-3 1-7c0-6.741-1-13-3-20-1.374-4.808-2-9-11-9-9 1-10 5-10 25z" fill="#d6000a"/><path d="m25.5 13c-2.493 0-4.5 2.007-4.5 4.5s2.007 4.5 4.5 4.5h8c1.317 0 2.487-.57 3.309-1.465a85.121 85.121 0 0 0 -1.727-7.234 4.482 4.482 0 0 0 -1.582-.301z" opacity=".2"/><path d="m24 4c-9 1-10 5-10 25 0 .063.007.128.008.191.03-19.234 1.126-23.206 9.992-24.191 9 0 9.626 4.192 11 9 1.939 6.786 2.929 12.879 2.988 19.387.002-.131.012-.254.012-.387 0-6.741-1-13-3-20-1.374-4.808-2-9-11-9z" fill="#f4f4f7" opacity=".2"/><rect fill="#84ddd1" height="9" ry="4.5" width="17" x="21" y="12"/><path d="m25.5 12a4.49 4.49 0 0 0 -4.5 4.5c0 .172.032.334.05.5.251-2.252 2.129-4 4.45-4h8c2.321 0 4.199 1.748 4.45 4 .018-.166.05-.328.05-.5a4.49 4.49 0 0 0 -4.5-4.5z" fill="#f4f4f7" opacity=".2"/></svg>