<svg xmlns="http://www.w3.org/2000/svg" width="48" height="48"><path style="opacity:.2;fill-rule:evenodd" d="M24.045 5.001a1.138 1.143 0 0 0-1.03.565l-3.409 5.86-6.19-2.727a1.138 1.143 0 0 0-1.589 1.16l.673 6.753-6.604 1.446a1.138 1.143 0 0 0-.607 1.877l4.497 5.067-4.497 5.067a1.138 1.143 0 0 0 .608 1.877L12.5 33.39l-.671 6.754a1.138 1.143 0 0 0 1.59 1.16l6.189-2.73 3.41 5.86a1.138 1.143 0 0 0 1.966 0l3.409-5.86 6.189 2.727a1.138 1.143 0 0 0 1.59-1.16l-.673-6.753 6.604-1.446a1.138 1.143 0 0 0 .607-1.877l-4.497-5.066 4.497-5.068a1.138 1.143 0 0 0-.608-1.877l-6.605-1.8b9cbe.672-6.754a1.138 1.143 0 0 0-1.59-1.16l-6.189 2.73-3.41-5.86a1.138 1.143 0 0 0-.936-.565z"/><path style="fill:#d6342a;fill-rule:evenodd" d="M24.045 4.001a1.138 1.143 0 0 0-1.03.565l-3.409 5.86-6.19-2.727a1.138 1.143 0 0 0-1.589 1.16l.673 6.753-6.604 1.446a1.138 1.143 0 0 0-.607 1.877l4.497 5.067-4.497 5.067a1.138 1.143 0 0 0 .608 1.877L12.5 32.39l-.671 6.754a1.138 1.143 0 0 0 1.59 1.16l6.189-2.73 3.41 5.86a1.138 1.143 0 0 0 1.966 0l3.409-5.86 6.189 2.727a1.138 1.143 0 0 0 1.59-1.16l-.673-6.753 6.604-1.446a1.138 1.143 0 0 0 .607-1.877l-4.497-5.066 4.497-5.068a1.138 1.143 0 0 0-.608-1.877l-6.605-1.8b9cbe.672-6.754a1.138 1.143 0 0 0-1.59-1.16l-6.189 2.73-3.41-5.86a1.138 1.143 0 0 0-.936-.565z"/><path style="opacity:.2;fill:#f4f4f7;fill-rule:evenodd" d="M23.932 4.002a1.138 1.143 0 0 0-.916.564l-3.41 5.86-6.19-2.727a1.138 1.143 0 0 0-1.59 1.16l.053.532a1.138 1.143 0 0 1 1.537-.692l6.19 2.727 3.41-5.86a1.138 1.143 0 0 1 1.029-.564 1.138 1.143 0 0 1 .935.564l3.41 5.86 6.19-2.729a1.138 1.143 0 0 1 1.537.686l.053-.528a1.138 1.143 0 0 0-1.59-1.158l-6.19 2.729-3.41-5.86a1.138 1.143 0 0 0-.935-.564 1.138 1.143 0 0 0-.113 0zm11.664 11.629-.098.978 6.606 1.446a1.138 1.143 0 0 1 .779.615 1.138 1.143 0 0 0-.78-1.615l-6.507-1.424zm-23.194.004-6.506 1.424a1.138 1.143 0 0 0-.78 1.617 1.138 1.143 0 0 1 .78-.617l6.604-1.446-.098-.978zm26.254 8.863-.443.5 4.498 5.066a1.138 1.143 0 0 1 .174.26 1.138 1.143 0 0 0-.174-1.26l-4.055-4.566zm-29.312.004-4.055 4.566a1.138 1.143 0 0 0-.172 1.262 1.138 1.143 0 0 1 .172-.262l4.498-5.066-.443-.5zm26.254 8.865-.098.022.621 6.222a1.138 1.143 0 0 0 .053-.47l-.576-5.774zm-23.194.002-.574 5.776a1.138 1.143 0 0 0 .053.472l.619-6.226-.098-.022z"/><path style="opacity:.2;fill-rule:evenodd" d="M15 13s1.955 5.35.973 8.781C14.99 25.211 10 29.074 10 29.074s6.521.367 8.998 2C21.475 32.707 23.994 39 23.994 39s3.345-6.933 4.744-7.926c1.4-.992 9.262-2.008 9.262-2.008s-5.748-5.583-6.236-7.14C31.275 20.368 33 13.004 33 13.004S27.483 16 23.85 16C20.216 16 15 13 15 13zm15.244 3.459c-.006.034-.007.03-.014.064a42.156 42.156 0 0 0-.468 3.149c-.102.997-.264 1.714.093 2.853.356 1.133.884 1.636 1.541 2.44a49.507 49.507 0 0 0 2.213 2.486c.117.124.113.111.229.233-.15.025-.139.018-.291.045-1.098.193-2.246.419-3.258.673-1.012.255-1.767.375-2.707 1.041-.94.667-1.3 1.343-1.855 2.203a44.58 44.58 0 0 0-1.641 2.807l-.022.041c-.967-1.827-2.076-3.845-3.964-5.09-1.675-1.104-3.722-1.5-5.612-1.8 1.354-1.422 2.791-3.125 3.407-5.272.571-1.996.355-3.997.04-5.754C19.693 17.295 21.734 18 23.85 18c2.255 0 4.506-.782 6.394-1.541z"/><path style="fill:#f4f4f7;fill-rule:evenodd" d="M15 12s1.955 5.35.973 8.781C14.99 24.211 10 28.074 10 28.074s6.521.367 8.998 2C21.475 31.707 23.994 38 23.994 38s3.345-6.933 4.744-7.926c1.4-.992 9.262-2.008 9.262-2.008s-5.748-5.583-6.236-7.14C31.275 19.368 33 12.004 33 12.004S27.483 15 23.85 15C20.216 15 15 12 15 12zm15.244 3.459c-.006.034-.007.03-.014.064a42.156 42.156 0 0 0-.468 3.149c-.102.997-.264 1.714.093 2.853.356 1.133.884 1.636 1.541 2.44a49.507 49.507 0 0 0 2.213 2.486c.117.124.113.111.229.233-.15.025-.139.018-.291.045-1.098.193-2.246.419-3.258.673-1.012.255-1.767.375-2.707 1.041-.94.667-1.3 1.343-1.855 2.203a44.58 44.58 0 0 0-1.641 2.807l-.022.041c-.967-1.827-2.076-3.845-3.964-5.09-1.675-1.104-3.722-1.5-5.612-1.8 1.354-1.422 2.791-3.125 3.407-5.272.571-1.996.355-3.997.04-5.754C19.693 16.295 21.734 17 23.85 17c2.255 0 4.506-.782 6.394-1.541z"/></svg>