<svg height="48" width="48" xmlns="http://www.w3.org/2000/svg"><path d="m44 40v-32c0-1.108-.892-2-2-2h-36c-1.108 0-2 .892-2 2v32c0 1.108.892 2 2 2h36c1.108 0 2-.892 2-2z" fill="#005491"/><path d="m44 40v-32c0-1.108-.892-2-2-2h-18v36h18c1.108 0 2-.892 2-2z" fill="#fff" opacity=".2"/><path d="m6 6c-1.108 0-2 .892-2 2v1c0-1.108.892-2 2-2h36c1.108 0 2 .892 2 2v-1c0-1.108-.892-2-2-2z" fill="#fff" opacity=".2"/><path d="m4 40v1c0 1.108.892 2 2 2h36c1.108 0 2-.892 2-2v-1c0 1.108-.892 2-2 2h-36c-1.108 0-2-.892-2-2z" opacity=".2"/><path d="m6 9h15v1h-15zm0 2h11v1h-11zm0 2h9v1h-9zm0 2h6v1h-6zm21-6h10v1h-10zm0 2h15v1h-15zm0 2h9v1h-9zm0 2h12v1h-12z" fill="#fff"/><path d="m6 10h15v1h-15zm0 2h11v1h-11zm0 2h9v1h-9zm0 2h6v1h-6zm21-6h10v1h-10zm0 2h15v1h-15zm0 2h9v1h-9zm0 2h12v1h-12z" opacity=".2"/></svg>