<svg height="64" width="64" xmlns="http://www.w3.org/2000/svg">
    <filter id="c" color-interpolation-filters="sRGB" height="1.19" width="1.32" x="-.16" y="-.095">
        <feGaussianBlur stdDeviation=".256"/>
    </filter>
    <filter id="a" color-interpolation-filters="sRGB" height="1.054" width="1.054" x="-.027" y="-.027">
        <feGaussianBlur stdDeviation=".619"/>
    </filter>
    <linearGradient id="b" gradientUnits="userSpaceOnUse" x1="4.5" x2="59.5" y1="59.49" y2="4.49">
        <stop offset="0" stop-color="#32d7ff"/>
        <stop offset="1" stop-color="#329bff"/>
    </linearGradient>
    <rect fill="#141414" filter="url(#a)" height="55" opacity=".3" ry="15" width="55" x="4.5" y="4.5"/>
    <rect fill="url(#b)" height="55" ry="15" width="55" x="4.5" y="4.5"/>
    <g transform="translate(-2.213 2.85) scale(3.7796)">
        <circle cx="8.083" cy="9.595" fill="none" r="2.007" stroke="#fff" stroke-dashoffset=".421" stroke-width="1.429"/>
        <path d="M9.378 3.182V9.66h1.426V5.532s.456.223.55.246c.093.023 1.917.725.994 2.76l.04.023s1.471-1.819.504-3.208c-.967-1.389-1.713-1.167-3.514-2.17z" fill="#1688ff" filter="url(#c)" transform="matrix(.92513 0 0 .92027 .667 .22)"/>
        <path d="M9.378 3.182V9.66h1.426V5.532s.456.223.55.246c.093.023 1.917.725.994 2.76l.04.023s1.471-1.819.504-3.208c-.967-1.389-1.713-1.167-3.514-2.17z" fill="#fff"/>
    </g>
</svg>
