<svg xmlns="http://www.w3.org/2000/svg" width="48" height="48" version="1"><path style="opacity:.2" d="M16 5A12 18 0 0 0 4 23a12 18 0 0 0 4.299 13.8c-.894.21-1.399.354-1.399.354a4 4 0 1 0 2.2 7.692S15.593 43 24 43s14.9 1.846 14.9 1.846a4 4 0 1 0 2.2-7.692s-.512-.144-1.413-.355A12 18 0 0 0 44 22.999 12 18 0 0 0 32 5a12 18 0 0 0-7.998 4.612A12 18 0 0 0 16 5z"/><ellipse style="fill:#fbba22" cx="16" cy="22" rx="12" ry="18"/><ellipse style="fill:#fbba22" cx="32" cy="22" rx="12" ry="18"/><path style="fill:none;stroke:#ea8504;stroke-width:8;stroke-linecap:round;stroke-linejoin:round" d="M8 40s7-2 16-2 16 2 16 2"/><path style="opacity:.3" d="M16 10c-.882 0-2.102.514-3.492 2.6C11.118 14.685 10 18.11 10 22c0 3.89 1.118 7.315 2.508 9.4.39.586.765 1.04 1.125 1.399a71.709 71.709 0 0 1 7.367-.72V15.786c-.42-1.244-.938-2.333-1.508-3.187-1.39-2.086-2.61-2.6-3.492-2.6zm16 0c-.882 0-2.102.514-3.492 2.6-.57.854-1.088 1.943-1.508 3.187v16.291c2.764.126 5.25.403 7.367.72.36-.358.735-.812 1.125-1.398C36.882 29.315 38 25.89 38 22c0-3.89-1.118-7.315-2.508-9.4-1.39-2.086-2.61-2.6-3.492-2.6z"/><path style="opacity:.2;fill:#f4f4f7" d="M16 4C9.373 4 4 12.059 4 22c.004.135.008.27.014.406C4.227 12.706 9.529 5.006 16 5c2.955.007 5.804 1.649 8.002 4.611C26.199 6.651 29.047 5.008 32 5c6.513.008 11.832 7.808 11.986 17.574.007-.191.011-.382.014-.574 0-9.941-5.373-18-12-18-2.953.008-5.801 1.65-7.998 4.611C21.804 5.65 18.955 4.007 16 4z"/></svg>