<svg height="64" width="64" xmlns="http://www.w3.org/2000/svg">
    <filter id="b" color-interpolation-filters="sRGB" height="1.054" width="1.054" x="-.027" y="-.027">
        <feGaussianBlur stdDeviation=".619"/>
    </filter>
    <linearGradient id="c" gradientUnits="userSpaceOnUse" x1="4.5" x2="59.5" y1="59.49" y2="4.49">
        <stop offset="0" stop-color="#32d7ff"/>
        <stop offset="1" stop-color="#329bff"/>
    </linearGradient>
    <linearGradient id="e" gradientUnits="userSpaceOnUse" x1="34.22" x2="35.17" y1="43.669" y2="20.331">
        <stop offset="0" stop-color="#ff9704"/>
        <stop offset="1" stop-color="#ffbb3a"/>
    </linearGradient>
    <linearGradient id="a" gradientUnits="userSpaceOnUse" x1="399.571" x2="399.571" y1="545.798" y2="517.798">
        <stop offset="0" stop-color="#3889e9"/>
        <stop offset="1" stop-color="#5ea5fb"/>
    </linearGradient>
    <linearGradient id="d" gradientUnits="userSpaceOnUse" x1="-43.423" x2="-42.533" y1="54.423" y2="9.073">
        <stop offset="0" stop-color="#e7f0f4"/>
        <stop offset="1" stop-color="#f4faff"/>
    </linearGradient>
    <rect fill="#141414" filter="url(#b)" height="55" opacity=".3" ry="15" width="55" x="4.5" y="4.5"/>
    <rect fill="url(#c)" height="55" ry="15" width="55" x="4.5" y="4.5"/>
    <circle cx="32" cy="32" fill="url(#d)" opacity=".92" r="20"/>
    <path clip-rule="evenodd" d="m43.445 30.36-15.41-9.71c-.456-.271-1.022-.226-1.449-.226-1.709 0-1.701 1.32-1.701 1.654v19.844c0 .283-.008 1.654 1.701 1.654.427 0 .993.045 1.449-.226l15.41-9.71C44.71 32.889 44.49 32 44.49 32s.219-.888-1.046-1.64z" fill="url(#e)" fill-rule="evenodd" opacity=".9"/>
</svg>
