<svg xmlns="http://www.w3.org/2000/svg" width="48" height="48" version="1"><path style="opacity:.2" d="M24 5C12.92 5 4 13.92 4 25s8.92 20 20 20 20-8.92 20-20S35.08 5 24 5z"/><path style="fill:#f4f4f7" d="M24 4C12.92 4 4 12.92 4 24s8.92 20 20 20 20-8.92 20-20S35.08 4 24 4z"/><path style="opacity:.2;fill:#f4f4f7" d="M24 4A19.955 19.955 0 0 0 4.002 24c0 .168-.004.333 0 .5C4.266 13.654 13.089 5 24 5c10.911 0 19.734 8.654 19.998 19.5.004-.167 0-.332 0-.5C43.998 12.92 35.08 4 24 4z"/><path style="opacity:.1" d="m17.291 14-1.355.783-.433.25-1.497.866-.006.003.006.004V34L17.004 36l2.998-2V22.17L24 25.097l3.998-2.929V34L30.996 36l2.998-2V15.906l.006-.004-.006-.003-1.497-.866-.433-.25L30.709 14l-1.2.693L24 18.243l-5.508-3.55z"/><path style="fill:#8b8b8b" d="m17.291 13-1.355.783-.433.25-1.497.866-.006.003.006.004V33L17.004 35l2.998-2V21.17L24 24.097l3.998-2.929V33L30.996 35l2.998-2V14.906l.006-.004-.006-.003-1.497-.866-.433-.25L30.709 13l-1.2.693L24 17.243l-5.508-3.55z"/><path style="opacity:.2" d="m17.291 13-1.355.783-.433.25-1.497.866-.006.003.006.004V33L17.004 35l2.998-2V21.17L24 24.097v-6.854l-5.508-3.55z"/></svg>