<svg xmlns="http://www.w3.org/2000/svg" width="48" height="48" version="1">
    <path fill="#4f4f4f" d="M44 24a20 20 0 0 1-20 20A20 20 0 0 1 4 24 20 20 0 0 1 24 4a20 20 0 0 1 20 20z"/>
    <path fill="#fff" opacity=".1" d="M24 4A20 20 0 0 0 4 24a20 20 0 0 0 .021.582A20 20 0 0 1 24 5a20 20 0 0 1 19.978 19.418A20 20 0 0 0 44 24 20 20 0 0 0 24 4z"/>
    <path opacity=".2" d="M43.979 24.418A20 20 0 0 1 24 44 20 20 0 0 1 4.022 24.582 20 20 0 0 0 4 25a20 20 0 0 0 20 20 20 20 0 0 0 20-20 20 20 0 0 0-.021-.582z"/>
    <path opacity=".2" d="M24 10A15 15 0 0 0 9 25a15 15 0 0 0 15 15 15 15 0 0 0 15-15 15 15 0 0 0-15-15zm0 6a9 9 0 0 1 9 9 9 9 0 0 1-9 9 9 9 0 0 1-9-9 9 9 0 0 1 9-9z"/>
    <path fill="#fff" d="M24 9A15 15 0 0 0 9 24a15 15 0 0 0 15 15 15 15 0 0 0 15-15A15 15 0 0 0 24 9zm0 6a9 9 0 0 1 9 9 9 9 0 0 1-9 9 9 9 0 0 1-9-9 9 9 0 0 1 9-9z"/>
</svg>
