<svg height="48" width="48" xmlns="http://www.w3.org/2000/svg"><rect height="40" opacity=".2" rx="2" width="40" x="4" y="5"/><rect fill="#009e70" height="40" rx="2" width="40" x="4" y="4"/><path d="m6 4c-1.108 0-2 .892-2 2v1c0-1.108.892-2 2-2h36c1.108 0 2 .892 2 2v-1c0-1.108-.892-2-2-2z" fill="#f4f4f7" opacity=".2"/><path d="m19 10v1h-1v3h1v1h1v3h2v6h-2v-1h-1v-4h-1v-2h-1v-1h-2v-1h-2.59v1h-1.41v1h-1v3h1v1h4v2h-4v1h-1v3h1v1h4v1h1v4h-1v1h1v1h1v3h1v1h1v1h10v-1h1v-1h1v-3h1v-1h1v-1h-1v-4h1v-1h4v-1h1v-3h-1v-1h-4v-2h4v-1h1v-3h-1v-1h-1.41v-1h-2.59v1h-2v1h-1v2h-1v4h-1v1h-2v-6h2v-3h1v-1h1v-3h-1v-1h-3v1h-1v1h-2v-1h-1v-1zm3 18h4v1h1v4h-1v1h-4v-1h-1v-4h1z" opacity=".2"/><path d="m19 9v1h-1v3h1v1h1v3h2v6h-2v-1h-1v-4h-1v-2h-1v-1h-2v-1h-2.59v1h-1.41v1h-1v3h1v1h4v2h-4v1h-1v3h1v1h4v1h1v4h-1v1h1v1h1v3h1v1h1v1h10v-1h1v-1h1v-3h1v-1h1v-1h-1v-4h1v-1h4v-1h1v-3h-1v-1h-4v-2h4v-1h1v-3h-1v-1h-1.41v-1h-2.59v1h-2v1h-1v2h-1v4h-1v1h-2v-6h2v-3h1v-1h1v-3h-1v-1h-3v1h-1v1h-2v-1h-1v-1zm3 18h4v1h1v4h-1v1h-4v-1h-1v-4h1z" fill="#f4f4f7"/></svg>