<svg height="48" width="48" xmlns="http://www.w3.org/2000/svg">
    <circle cx="24" cy="25" opacity=".2" r="20"/>
    <circle cx="24" cy="24" fill="#8d348e" r="20"/>
    <circle cx="25.5" cy="22.5" opacity=".3" r="14.5"/>
    <circle cx="24" cy="25" opacity=".2" r="10"/>
    <circle cx="24" cy="24" fill="#f4f4f7" r="10"/>
    <path d="m28 24-3.5 2-3.5 2v-8l3.5 2z" fill="#691f69"/>
    <path d="M24 4A20 20 0 0 0 4 24a20 20 0 0 0 .021.582A20 20 0 0 1 24 5a20 20 0 0 1 19.979 19.418A20 20 0 0 0 44 24 20 20 0 0 0 24 4z" fill="#f4f4f7" opacity=".1"/>
</svg>
