<svg height="48" width="48" xmlns="http://www.w3.org/2000/svg"><g transform="matrix(2 0 0 2 2 2)"><circle cx="11" cy="11.5" opacity=".2" r="10"/><circle cx="11" cy="11" fill="#f4f4f7" r="10"/><path d="m11 1a10 10 0 0 0 -10 10 10 10 0 0 0 .01.293 10 10 0 0 1 9.99-9.793 10 10 0 0 1 9.99 9.707 10 10 0 0 0 .01-.207 10 10 0 0 0 -10-10z" fill="#f4f4f7" opacity=".2"/><path d="m11 6.55c-6 0-6 3-6 3v9.985a10 10 0 0 0 5 1.965v-9.95h8v-2s0-3-7-3z" opacity=".1"/><path d="m11 6c-6 0-6 3-6 3v9.984a10 10 0 0 0 5 1.965v-9.949h8v-2s0-3-7-3z" fill="#c83928"/><circle cx="15" cy="9.5" opacity=".2" r="1"/><circle cx="15" cy="9" fill="#f4f4f7" r="1"/></g></svg>