<svg xmlns="http://www.w3.org/2000/svg" width="48" height="48" version="1"><rect style="opacity:.2" width="40" height="36" x="4" y="6" rx="2" ry="2"/><rect style="fill:#1e88e5" width="40" height="36" x="4" y="5" rx="2" ry="2"/><rect style="opacity:.2" width="20" height="15" x="26" y="10" rx="1" ry="1"/><rect style="fill:#ebebeb" width="20" height="15" x="26" y="9" rx="1" ry="1"/><rect style="opacity:.2" width="20" height="15" x="2" y="10" rx="1" ry="1"/><rect style="fill:#ebebeb" width="20" height="15" x="2" y="9" rx="1" ry="1"/><rect style="opacity:.2" width="20" height="15" x="14" y="29" rx="1" ry="1"/><rect style="fill:#ebebeb" width="20" height="15" x="14" y="28" rx="1" ry="1"/><path style="opacity:.2;fill:#f4f4f7" d="M6 5c-1.108 0-2 .892-2 2v1c0-1.108.892-2 2-2h36c1.108 0 2 .892 2 2V7c0-1.108-.892-2-2-2H6z"/></svg>