<svg height="48" width="48" xmlns="http://www.w3.org/2000/svg"><path d="m24 45c11.046 0 20-8.954 20-20s-8.954-20-20-20-20 8.954-20 20 8.954 20 20 20z" opacity=".2"/><circle cx="24" cy="24" fill="#ff395d" r="20"/><g fill="#f4f4f7"><path d="m31.433 14.513-7.37 5.389-.063.046-7.503-5.388a2.293 2.293 0 0 0 -1.366-.44c-1.093-.001-2.13.736-2.13 1.823v4.086l-.001 12.147c0 1.087 1.037 1.824 2.13 1.824.47 0 .952-.137 1.365-.44l7.505-5.437c3.734 2.746 7.432 5.435 7.432 5.435.413.304.895.441 1.365.441 1.094.001 2.203-.736 2.203-1.823v-16.316c0-1.086-1.108-1.788-2.201-1.788-.47 0-.952.136-1.366.44z" fill-opacity=".7"/><path d="m10.65 5.92-5.33 4.07 5.33 4.05 5.3-4.05zm-10.65.07v8l5.32-4z" fill-opacity=".6" transform="matrix(1.03287 0 0 1.00707 13 13.985)"/><path d="m15.95 9.99 5.35 4.05v-8.12z" fill-opacity=".6" transform="matrix(1.03287 0 0 1.00707 13 13.985)"/><path d="m31.333 14.583-7.333 5.365 5.471 4.095 5.529-4.095v-4.088c0-1.553-2.095-2.555-3.667-1.277zm-14.828-.055c-1.377-1.01-3.5-.171-3.5 1.382v4.105l5.489 4.029 5.506-4.096z"/><path d="m24 4c-11.046 0-20 8.954-20 20 0 .168.008.333.012.5.266-10.814 9.11-19.5 19.988-19.5s19.722 8.686 19.988 19.5c.004-.167.012-.332.012-.5 0-11.046-8.954-20-20-20z" opacity=".2"/></g><path d="m24 28.123-7.504 5.436a2.298 2.298 0 0 1 -1.366.441c-1.094 0-2.13-.737-2.13-1.822v.998c0 1.086 1.036 1.824 2.129 1.824.47 0 .953-.137 1.367-.441l7.504-5.436c3.734 2.746 7.432 5.436 7.432 5.436.413.304.894.441 1.365.441 1.093 0 2.203-.738 2.203-1.824v-1c0 1.086-1.11 1.824-2.203 1.824-.47 0-.952-.137-1.365-.441 0 0-3.698-2.69-7.432-5.436z" opacity=".2"/></svg>