<svg height="48" width="48" xmlns="http://www.w3.org/2000/svg">
    <path d="M6 5c-1.108 0-2 .892-2 2v17h40V7c0-1.108-.892-2-2-2z" opacity=".05"/>
    <rect fill="#fabd7f" height="40" rx="2" width="40" x="4" y="4"/>
    <path d="M22 12c-.554 0-1 .446-1 1v16h-4l7 9 7-9h-4V13c0-.554-.446-1-1-1z" fill="#17191e"/>
    <path d="M4 7V6c0-1.108.892-2 2-2h36c1.108 0 2 .892 2 2v1c0-1.108-.892-2-2-2H6c-1.108 0-2 .892-2 2z" fill="#f4f4f7" opacity=".2"/>
    <path d="M4 42v1c0 1.108.892 2 2 2h36c1.108 0 2-.892 2-2v-1c0 1.108-.892 2-2 2H6c-1.108 0-2-.892-2-2z" opacity=".2"/>
    <circle cx="36" cy="36" opacity=".2" r="11"/>
    <circle cx="36" cy="35" fill="#6c9832" r="11"/>
    <g fill="#f4f4f7">
        <rect height="14" rx="2" width="4" x="34" y="28"/>
        <rect height="14" rx="2" transform="rotate(90)" width="4" x="33" y="-43"/>
    </g>
</svg>
