<svg xmlns="http://www.w3.org/2000/svg" width="48" height="48" version="1"><path fill="#7a6a4d" d="M10 4c-1.108 0-2 .892-2 2v36c0 1.108.892 2 2 2h28c1.108 0 2-.892 2-2V6c0-1.108-.892-2-2-2H10z"/><path opacity=".2" d="M10 4c-1.108 0-2 .892-2 2v36c0 1.108.892 2 2 2h3.978V4h-3.977zM31.979 4c-1 0-1 1-1 1v16.5l2.5-1.5 2.5 1.5V5c0-1-1-1-1-1z"/><path style="fill:#f2bc61" d="M30.979 4v16.5l2.5-1.5 2.5 1.5V4h-5z"/><path fill="#fff" opacity=".1" d="M10 4c-1.108 0-2 .892-2 2v1c0-1.108.892-2 2-2h28c1.108 0 2 .892 2 2V6c0-1.108-.892-2-2-2H10z"/><path opacity=".2" d="M8 42v1c0 1.108.892 2 2 2h28c1.108 0 2-.892 2-2v-1c0 1.108-.892 2-2 2H10c-1.108 0-2-.892-2-2z"/></svg>