<svg height="48" width="48" xmlns="http://www.w3.org/2000/svg">
    <rect fill="#aedeec" height="40" rx="2" width="40" x="4" y="4"/>
    <path d="M6 4c-1.108 0-2 .892-2 2v1c0-1.108.892-2 2-2h36c1.108 0 2 .892 2 2V6c0-1.108-.892-2-2-2z" fill="#fff" opacity=".2"/>
    <path d="M6 45c-1.108 0-2-.892-2-2v-1c0 1.108.892 2 2 2h36c1.108 0 2-.892 2-2v1c0 1.108-.892 2-2 2zM11 15v2h.008l4.592 7.95-4.6 7.964V35h16v-4h-2v2H13.262l4.041-7 .606-1.049v-.002l-.606-1.049L13.32 17H23v1h2v-3z" opacity=".2"/>
    <path d="M11 14v2h.008l4.592 7.95-4.6 7.964V34h16v-4h-2v2H13.262l4.041-7 .606-1.049v-.002l-.606-1.049L13.32 16H23v1h2v-3z" fill="#e37739"/>
    <path d="M32 4h2v40h-2z" fill="#f4f4f7"/>
</svg>
