<svg height="48" viewBox="0 0 12.7 12.7" width="48" xmlns="http://www.w3.org/2000/svg">
    <path d="M2.381 1.587s-.265 0-.264.265v.265h-.794s-.265-.004-.265.26V6.47c0 .226.182.408.407.408h9.77a.406.406 0 0 0 .406-.407V2.38c0-.265-.264-.263-.264-.263l-5.556-.002V1.85c0-.265-.265-.263-.265-.263z" fill="#fff" fill-opacity=".976" stroke="#000" stroke-opacity=".267" stroke-width=".529"/>
    <path d="M2.381 1.587s-.264 0-.264.265v.265h-.794s-.265 0-.265.264V6.47c0 .226.182.408.407.408h9.77a.406.406 0 0 0 .406-.407V2.38c0-.264-.264-.264-.264-.264H5.821v-.265c0-.265-.265-.265-.265-.265z" fill="#fff" fill-opacity=".976"/>
    <path d="M6.35 2.908c-.226 0-.293.212-.407.406l-.236.388H.527c-.263 0-.263.265-.263.265v6.879c0 .265.264.265.264.265h11.643c.264 0 .264-.264.264-.264V3.175c0-.265-.264-.265-.264-.265z" fill="#6ba4e7" stroke="#003579" stroke-opacity=".561" stroke-width=".529"/>
    <path d="M6.35 2.908c-.226 0-.293.212-.407.406l-.236.388H.527c-.263 0-.263.265-.263.265v6.879c0 .264.264.264.264.264h11.643c.264 0 .264-.263.264-.263V3.175c0-.265-.264-.265-.264-.265z" fill="#6ba4e7"/>
    <path d="M6.35 5.556 4.3 7.606l.396.398.331-.331V9.26h1.058v-.793a.264.264 0 1 1 .53 0v.793h1.058V7.673l.33.33.397-.396zm.794.265v.198l.529.53V5.82z" fill-opacity=".552" opacity=".35"/>
</svg>
