<svg xmlns="http://www.w3.org/2000/svg" width="48" height="48" version="1">
    <path style="opacity:.2" d="M14 5a6 6 0 0 0-6 6v17a6 6 0 0 0 6 6h3.455l5.553 8.329a6 6 0 0 0 9.984 0l6-9A6 6 0 0 0 36 24.349V23c0-2.823-.28-5.453-1.217-7.983-.992-2.68-2.757-5.046-5.207-6.62-2.933-1.886-5.676-2.222-8.137-2.304A6 6 0 0 0 18 5.001z"/>
    <path style="fill:#e14343" d="M14 4a6 6 0 0 0-6 6v17a6 6 0 0 0 6 6h3.455l5.553 8.328a6 6 0 0 0 9.984 0l6-9A6 6 0 0 0 36 23.348V22c0-2.822-.28-5.452-1.217-7.982-.992-2.68-2.757-5.046-5.207-6.621C26.643 5.51 23.9 5.176 21.44 5.094A6 6 0 0 0 18 4z"/>
    <path style="opacity:.2" d="M14 10v18h4V16c3 0 5.147.15 6.168.807.51.328.89.746 1.238 1.686S26 20.899 26 23v7h-4l6 9 6-9h-4v-7c0-2.398-.254-4.307-.844-5.898-.59-1.591-1.585-2.862-2.824-3.658C23.853 11.85 21 12 18 12v-2z"/>
    <path style="fill:#f4f4f7" d="M14 10v17h4V15c3 0 5.147.15 6.168.807.51.328.89.746 1.238 1.686S26 19.899 26 22v7h-4l6 9 6-9h-4v-7c0-2.398-.254-4.307-.844-5.898-.59-1.591-1.585-2.862-2.824-3.658C23.853 10.85 21 11 18 11v-1z"/>
    <path style="opacity:.2;fill:#f4f4f7" d="M14 4a6 6 0 0 0-6 6v1a6 6 0 0 1 6-6h4a6 6 0 0 1 3.44 1.094c2.46.081 5.203.417 8.136 2.302 2.45 1.575 4.215 3.942 5.207 6.622C35.72 17.548 36 20.178 36 23v-1c0-2.822-.28-5.453-1.217-7.982-.992-2.68-2.757-5.047-5.207-6.622-2.933-1.885-5.676-2.22-8.137-2.302A6 6 0 0 0 18 4h-4zm22 19.348v1a6 6 0 0 1 3.973 5.195A6 6 0 0 0 36 23.348z"/>
</svg>
