<svg xmlns="http://www.w3.org/2000/svg" width="48" height="48" version="1"><circle fill="#37a0f2" cx="24" cy="24" r="20"/><path fill="#fff" opacity=".2" d="M24 4A19.955 19.955 0 0 0 4.002 24c0 .168-.004.333 0 .5C4.266 13.654 13.089 5 24 5s19.734 8.654 19.998 19.5c.004-.167 0-.332 0-.5 0-11.08-8.919-20-19.998-20z"/><path opacity=".2" d="M43.979 24.418A20 20 0 0 1 24 44 20 20 0 0 1 4.022 24.582 20 20 0 0 0 4 25a20 20 0 0 0 20 20 20 20 0 0 0 20-20 20 20 0 0 0-.021-.582z"/><path fill-rule="evenodd" opacity=".2" d="M26 13c-3.27 5.53-5.861 10.465-7.536 15.997C17.577 31.958 16.777 35.025 16 38c1.266.107 1.023-.009 2 0 .719-1.609 2.155-3.14 3.153-4.257C23.631 31.166 25.99 30.012 29 29c.044-3.034-.177-6.043 1.053-8.704C30.557 19.19 31.348 18.004 32 17c0-3-3-6-6-4z"/><path fill="#fff" fill-rule="evenodd" d="M26 12c-3.27 5.53-5.861 10.465-7.536 15.997C17.577 30.958 16.777 34.025 16 37c1.266.107 1.023-.009 2 0 .719-1.609 2.155-3.14 3.153-4.257C23.63 30.166 25.99 29.012 29 28c.044-3.034-.177-6.043 1.053-8.704C30.557 18.19 31.348 17.004 32 16c0-3-3-6-6-4z"/></svg>