<svg xmlns="http://www.w3.org/2000/svg" width="48" height="48" version="1"><path fill="#4f4f4f" d="M44 40V8c0-1.108-.892-2-2-2H6c-1.108 0-2 .892-2 2v32c0 1.108.892 2 2 2h36c1.108 0 2-.892 2-2z"/><path style="opacity:.2" d="M18.765 20a.75.778 0 0 0-.765.778v12.8b9cbea.75.778 0 0 0 1.122.676l10.499-6.222a.75.778 0 0 0 0-1.352l-10.499-6.222a.75.778 0 0 0-.357-.102z"/><path style="fill:#f4f4f7" d="M18.765 19a.75.778 0 0 0-.765.778v12.8b9cbea.75.778 0 0 0 1.122.676l10.499-6.222a.75.778 0 0 0 0-1.351l-10.499-6.222a.75.778 0 0 0-.357-.102z"/><path opacity=".2" d="M6 6c-1.108 0-2 .892-2 2v6h40V8c0-1.108-.892-2-2-2z"/><path opacity=".2" d="M6 6c-1.108 0-2 .892-2 2v2h40V8c0-1.108-.892-2-2-2z"/><path fill="#f4f4f7" d="M6 6c-1.108 0-2 .892-2 2v6h9v-4L9 6z"/><path fill="#bebebe" fill-rule="evenodd" d="m19 10-4-4h5l4 4z"/><path fill="#f4f4f7" fill-rule="evenodd" d="m19 10-4 4h5l4-4z"/><path fill="#bebebe" fill-rule="evenodd" d="m29 10-4-4h5l4 4z"/><path fill="#f4f4f7" fill-rule="evenodd" d="m29 10-4 4h5l4-4z"/><path fill="#bebebe" fill-rule="evenodd" d="m39 10-4-4h5l4 4z"/><path fill="#f4f4f7" fill-rule="evenodd" d="m39 10-4 4h5l4-4z"/><path fill="#fff" opacity=".2" d="M6 6c-1.108 0-2 .892-2 2v1c0-1.108.892-2 2-2h36c1.108 0 2 .892 2 2V8c0-1.108-.892-2-2-2H6z"/><path opacity=".2" d="M4 40v1c0 1.108.892 2 2 2h36c1.108 0 2-.892 2-2v-1c0 1.108-.892 2-2 2H6c-1.108 0-2-.892-2-2z"/></svg>