<svg height="48" width="48" xmlns="http://www.w3.org/2000/svg"><path d="m44 25a20 20 0 0 1 -20 20 20 20 0 0 1 -20-20 20 20 0 0 1 20-20 20 20 0 0 1 20 20z" opacity=".2"/><path d="m44 24a20 20 0 0 1 -20 20 20 20 0 0 1 -20-20 20 20 0 0 1 20-20 20 20 0 0 1 20 20z" fill="#4f4f4f"/><path d="m24 4a20 20 0 0 0 -20 20 20 20 0 0 0 .021.582 20 20 0 0 1 19.979-19.582 20 20 0 0 1 19.979 19.418 20 20 0 0 0 .021-.418 20 20 0 0 0 -20-20z" fill="#f4f4f7" opacity=".1"/><path d="m24 13a5 5 0 0 0 -5 5 5 5 0 0 0 5 5 5 5 0 0 0 5-5 5 5 0 0 0 -5-5zm0 13a6 6 0 0 0 -6 6v12.074a20 20 0 0 0 3 .674v-7.559a6 6 0 0 0 3 .811 6 6 0 0 0 6-6 6 6 0 0 0 -6-6z" opacity=".2"/><path d="m18 31v12.074a20 20 0 0 0 3 .674v-12.748z" fill="#f99c32"/><circle cx="24" cy="17" fill="#e4701d" r="5"/><circle cx="24" cy="31" fill="#f99c32" r="6"/><path d="m24 12a5 5 0 0 0 -5 5 5 5 0 0 0 .027.516 5 5 0 0 1 4.973-4.516 5 5 0 0 1 4.973 4.484 5 5 0 0 0 .027-.484 5 5 0 0 0 -5-5zm0 13a6 6 0 0 0 -6 6v1a6 6 0 0 1 6-6 6 6 0 0 1 5.975 5.498 6 6 0 0 0 .025-.498 6 6 0 0 0 -6-6z" fill="#f4f4f7" opacity=".2"/></svg>