<svg xmlns="http://www.w3.org/2000/svg" width="48" height="48" version="1"><path style="opacity:.2" d="M3.752 13.002a1.838 1.807 1.2 0 0-1.684 2.295 1.838 1.807 1.2 0 0 .895 1.1l17.273 9.495-10.332 5.68c-1.081-.919-2.12-1.893-3.27-2.73-1.387.317-.386 2.08-.349 3.045l.313 1.501-3.633 1.997a1.807 1.838 88.8 1 0 1.793 3.154L8.41 36.53c.66.924.913 2.158.262 3.164-.67 1.28-2.221 1.406-3.498 1.356-1.155.934.895 2.335 1.685 2.902 3.54 2.218 8.531.706 10.807-2.596 1.48-2.01 1.93-4.945.49-7.086-1.248-.919-1.317 1.458-2.375 1.764-1.4 1.002-3.506.254-4.078-1.314L24 27.96l12.297 6.76c-.572 1.568-2.677 2.316-4.078 1.314-1.058-.306-1.127-2.683-2.375-1.764-1.44 2.14-.99 5.075.49 7.086 2.276 3.302 7.266 4.814 10.807 2.596.79-.567 2.84-1.968 1.685-2.902-1.277.05-2.829-.076-3.498-1.356-.651-1.006-.398-2.24.262-3.164l3.652 2.008a1.838 1.807 1.2 1 0 1.793-3.154l-3.633-1.997.313-1.501c.037-.966 1.038-2.728-.35-3.045-1.149.837-2.188 1.811-3.27 2.73l-10.331-5.68 17.273-9.496a1.807 1.838 88.8 0 0 .895-1.1 1.807 1.838 88.8 0 0-2.688-2.054L24 23.822 4.756 13.242a1.838 1.807 1.2 0 0-1.004-.24z"/><path style="fill:#005a5a" d="M45.93 14.298a1.807 1.838 88.8 0 0-2.686-2.056l-33.34 18.33c-1.082-.919-2.121-1.893-3.27-2.73-1.388.318-.387 2.079-.35 3.044l.314 1.502-3.632 1.997a1.807 1.838 88.8 1 0 1.792 3.154l3.652-2.008c.66.924.914 2.158.262 3.165-.67 1.28-2.221 1.406-3.498 1.356-1.155.934.894 2.334 1.685 2.9 3.54 2.218 8.532.707 10.807-2.594 1.48-2.011 1.93-4.945.49-7.086-1.25-.919-1.317 1.458-2.374 1.764-1.401 1.002-3.507.253-4.08-1.315l33.335-18.325a1.807 1.838 88.8 0 0 .894-1.098z"/><path style="fill:#f4f4f7;opacity:.1" d="M44.064 12.002a1.807 1.838 88.8 0 0-.82.24l-33.34 18.33c-1.081-.919-2.12-1.893-3.27-2.73-.784.18-.792.824-.655 1.521.094-.246.287-.437.656-.521 1.149.837 2.188 1.811 3.27 2.73l33.34-18.33a1.807 1.838 88.8 0 1 2.683 1.069 1.807 1.838 88.8 0 0 .004-.014 1.807 1.838 88.8 0 0-1.868-2.295zM6.41 32.492l-3.445 1.893a1.807 1.838 88.8 0 0-.89 2.09 1.807 1.838 88.8 0 1 .89-1.09l3.633-1.996-.188-.897zm11.154.576c-.716.105-.923 1.719-1.783 1.967-1.149.822-2.759.456-3.62-.564l-.458.25c.572 1.568 2.677 2.316 4.078 1.314 1.058-.306 1.127-2.683 2.375-1.764.517.769.782 1.64.852 2.534.104-1.234-.143-2.48-.852-3.534-.234-.172-.426-.227-.592-.203zm-8.566 4.834a2.33 2.33 0 0 1-.326.793c-.67 1.28-2.221 1.406-3.498 1.356-.435.351-.416.77-.182 1.183.049-.062.109-.124.182-.183 1.277.05 2.829-.076 3.498-1.356.361-.558.437-1.186.326-1.793z"/><path style="fill:teal" d="M2.07 14.298a1.838 1.807 1.2 0 1 2.686-2.056l33.34 18.33c1.082-.919 2.121-1.893 3.27-2.73 1.388.318.387 2.079.35 3.044l-.314 1.502 3.632 1.997a1.838 1.807 1.2 1 1-1.792 3.154l-3.652-2.008c-.66.924-.914 2.158-.262 3.165.67 1.28 2.221 1.406 3.498 1.356 1.155.934-.894 2.334-1.685 2.9-3.54 2.218-8.532.707-10.807-2.594-1.48-2.011-1.93-4.945-.49-7.086 1.25-.919 1.317 1.458 2.374 1.764 1.401 1.002 3.507.253 4.08-1.315L2.962 15.396a1.838 1.807 1.2 0 1-.894-1.098z"/><path style="fill:#f4f4f7;opacity:.1" d="M3.752 12.002a1.838 1.807 1.2 0 0-1.684 2.295 1.838 1.807 1.2 0 0 .004.014 1.838 1.807 1.2 0 1 2.684-1.069l33.34 18.33c1.081-.919 2.12-1.893 3.27-2.73.368.084.561.275.655.521.137-.697.129-1.342-.656-1.521-1.149.837-2.188 1.811-3.27 2.73l-33.34-18.33a1.838 1.807 1.2 0 0-1.003-.24zm37.838 20.49-.188.897 3.633 1.996a1.838 1.807 1.2 0 1 .89 1.09 1.838 1.807 1.2 0 0-.89-2.09l-3.445-1.893zm-11.154.576c-.166-.024-.358.031-.592.203-.71 1.054-.956 2.3-.852 3.534.07-.894.335-1.765.852-2.534 1.248-.919 1.317 1.458 2.375 1.764 1.4 1.002 3.506.254 4.078-1.314l-.457-.25c-.862 1.02-2.472 1.386-3.621.564-.86-.248-1.067-1.862-1.783-1.967zm8.566 4.834c-.111.607-.035 1.235.326 1.793.67 1.28 2.221 1.406 3.498 1.356.073.059.133.12.182.183.234-.414.253-.832-.182-1.183-1.277.05-2.829-.076-3.498-1.356a2.33 2.33 0 0 1-.326-.793z"/><path style="opacity:.2" d="M9.133 5.001A1.179 1.126 0 0 0 8 6.127v22.9c0 .77.318 1.293.716 1.945.398.653.933 1.375 1.57 2.157 1.277 1.563 2.967 3.359 4.72 5.076 1.751 1.716 3.56 3.349 5.086 4.574.763.613 1.452 1.122 2.055 1.502.604.38.968.719 1.853.719s1.25-.339 1.853-.719c.603-.38 1.292-.89 2.055-1.502 1.526-1.225 3.335-2.858 5.087-4.574 1.752-1.717 3.442-3.513 4.718-5.076.638-.782 1.173-1.504 1.571-2.157.398-.652.716-1.176.716-1.944v-22.9a1.179 1.126 0 0 0-2.073-.736l-2.601 2.884-3.317-2.97A1.179 1.126 0 0 0 31.202 5H16.798a1.179 1.126 0 0 0-.807.304l-3.317 2.971-2.601-2.884a1.179 1.126 0 0 0-.94-.39z"/><path style="fill:#f4f4f7" d="M9.133 4.001A1.179 1.126 0 0 0 8 5.127v22.9c0 .77.318 1.293.716 1.945.398.653.933 1.375 1.57 2.157 1.277 1.563 2.967 3.359 4.72 5.076 1.751 1.716 3.56 3.349 5.086 4.574.763.613 1.452 1.122 2.055 1.502.604.38.968.719 1.853.719s1.25-.339 1.853-.719c.603-.38 1.292-.89 2.055-1.502 1.526-1.225 3.335-2.858 5.087-4.574 1.752-1.717 3.442-3.513 4.718-5.076.638-.782 1.173-1.504 1.571-2.157.398-.652.716-1.176.716-1.944v-22.9a1.179 1.126 0 0 0-2.073-.736l-2.601 2.884-3.317-2.97A1.179 1.126 0 0 0 31.202 4H16.798a1.179 1.126 0 0 0-.807.304l-3.317 2.971-2.601-2.884a1.179 1.126 0 0 0-.94-.39z"/><path style="fill:teal" d="M12 13v14.703c.024.027.01-.014.133.188.252.413.685 1.015 1.252 1.709 1.131 1.385 2.745 3.106 4.42 4.748 1.674 1.64 3.414 3.206 4.79 4.312.576.463 1.02.773 1.405 1.031.385-.258.829-.568 1.404-1.03 1.377-1.107 3.117-2.673 4.791-4.313 1.675-1.642 3.289-3.363 4.42-4.748.567-.694 1-1.296 1.252-1.71.123-.2.11-.16.133-.187V13z"/><path style="opacity:.3" d="M24 13v26.691c.385-.258.829-.568 1.404-1.03 1.377-1.107 3.117-2.673 4.791-4.313 1.675-1.642 3.289-3.363 4.42-4.748.567-.694 1-1.296 1.252-1.71.123-.2.11-.16.133-.187V13z"/><path style="opacity:.2;fill:#f4f4f7" d="M38.79 4a1.179 1.126 0 0 0-.862.393l-2.602 2.884-3.318-2.972a1.179 1.126 0 0 0-.807-.303H16.8a1.179 1.126 0 0 0-.807.303l-3.318 2.972-2.602-2.884a1.179 1.126 0 0 0-.94-.391A1.179 1.126 0 0 0 8 5.127v.963a1.179 1.126 0 0 1 1.133-1.088 1.179 1.126 0 0 1 .94.39l2.6 2.883 3.32-2.97a1.179 1.126 0 0 1 .806-.303H31.2a1.179 1.126 0 0 1 .807.303l3.318 2.97 2.602-2.882A1.179 1.126 0 0 1 40 6.127v-1A1.179 1.126 0 0 0 38.79 4z"/></svg>