<svg height="48" width="48" xmlns="http://www.w3.org/2000/svg"><path d="m4.021 24.418a20 20 0 0 0 -.021.582 20 20 0 0 0 20 20 20 20 0 0 0 20-20 20 20 0 0 0 -.021-.418 20 20 0 0 1 -19.979 19.418 20 20 0 0 1 -19.978-19.582z" opacity=".2"/><path d="m34 6.68a20 20 0 0 0 -27.32 7.32 20 20 0 0 0 7.32 27.32 20 20 0 0 0 27.32-7.32 20 20 0 0 0 -7.32-27.32z" fill="#42b8fe"/><path d="m24 4a20 20 0 0 0 -20 20 20 20 0 0 0 .021.418 20 20 0 0 1 19.979-19.418 20 20 0 0 1 19.979 19.582 20 20 0 0 0 .02-.582 20 20 0 0 0 -19.999-20z" fill="#f4f4f7" opacity=".2"/><path d="m26.721 7.139 1.35 3.797 3.64-1.73-1.73 3.639 3.796 1.35-3.796 1.35 1.73 3.64-3.64-1.73-1.35 3.796-1.35-3.796-3.64 1.73 1.73-3.64-3.796-1.35 3.797-1.35-1.73-3.64 3.639 1.73z" opacity=".2" transform="matrix(.79278 .6102 -.6102 .79278 18.478 -9.559)"/><path d="m26.721 7.139 1.35 3.797 3.64-1.73-1.73 3.639 3.796 1.35-3.796 1.35 1.73 3.64-3.64-1.73-1.35 3.796-1.35-3.796-3.64 1.73 1.73-3.64-3.796-1.35 3.797-1.35-1.73-3.64 3.639 1.73z" fill="#f4f4f7" transform="matrix(.79278 .6102 -.6102 .79278 18.478 -10.559)"/><g fill="none" stroke-linecap="round" stroke-linejoin="round" stroke-width="2"><path d="m14 7c-5 16 .06 26.89 11 38" opacity=".2" stroke="#000"/><path d="m14 6c-5 16 .06 26.89 11 38" stroke="#17191e"/><path d="m44 26c-11.265 11.208-23 13-38 9" opacity=".2" stroke="#000"/><path d="m44 25c-11.265 11.208-23 13-38 9" stroke="#17191e"/></g></svg>