<svg xmlns="http://www.w3.org/2000/svg" width="48" height="48" version="1"><rect fill="#c2352a" width="40" height="40" x="4" y="4" rx="2" ry="2"/><path fill="#fff" opacity=".2" d="M6 4c-1.108 0-2 .892-2 2v1c0-1.108.892-2 2-2h36c1.108 0 2 .892 2 2V6c0-1.108-.892-2-2-2H6z"/><path opacity=".2" d="M6 45c-1.108 0-2-.892-2-2v-1c0 1.108.892 2 2 2h36c1.108 0 2-.892 2-2v1c0 1.108-.892 2-2 2H6z"/><g opacity=".2"><path d="M16 14v22h6V21h3v15h6V21h3v15h6V14M8 14h6v14H8zM8 30h6v6H8z"/></g><g fill="#fff"><path d="M16 13v22h6V20h3v15h6V20h3v15h6V13M8 13h6v14H8zM8 29h6v6H8z"/></g></svg>