<svg height="48" width="48" xmlns="http://www.w3.org/2000/svg"><rect fill="#f4f4f7" height="40" rx="2" width="40" x="4" y="4"/><path d="m6 4c-1.108 0-2 .892-2 2v1c0-1.108.892-2 2-2h36c1.108 0 2 .892 2 2v-1c0-1.108-.892-2-2-2z" fill="#fff" opacity=".2"/><path d="m6 45c-1.108 0-2-.892-2-2v-1c0 1.108.892 2 2 2h36c1.108 0 2-.892 2-2v1c0 1.108-.892 2-2 2z" opacity=".2"/><g fill="none" stroke-linecap="round" stroke-linejoin="round" stroke-width="4"><path d="m4 16.806c15-.806 16.246 12.094 21.639 17.124 4.361 4.07 14.361 7.07 18.361 7.07" opacity=".2" stroke="#000"/><path d="m4 15.806c15-.806 16.246 12.094 21.639 17.124 4.361 4.07 14.361 7.07 18.361 7.07" stroke="#4a61cc"/><path d="m28.056 17.342s-2.4 1.33-2.66 2.46c-.389 1.69.517 3.653 1.703 4.919 1.334 1.423 4.732 2.319 5.393 2.27 3.879-.283 4.817-2.185 5.871-4.351.732-1.504.305-3.42-.195-5.015-1.433-3.76-4.724-5.304-7.474-5.625-2.463-.253-4.175 2.691-4.162 2.693l-1.514 1.892" opacity=".2" stroke="#000"/><path d="m28.056 16.342s-2.4 1.33-2.66 2.46c-.389 1.69.517 3.653 1.703 4.919 1.334 1.423 4.732 2.319 5.393 2.27 3.879-.283 4.817-2.185 5.871-4.351.732-1.504.305-3.42-.195-5.015-1.433-3.76-4.724-5.304-7.474-5.625-2.463-.253-4.175 2.691-4.162 2.693l-1.514 1.892" stroke="#e84343"/></g></svg>