<svg height="48" width="48" xmlns="http://www.w3.org/2000/svg">
    <path d="M3 12h30c1.662 0 3 1.338 3 3v30c0 1.662-1.338 3-3 3H3c-1.662 0-3-1.338-3-3V15c0-1.662 1.338-3 3-3z" fill="#a36c4c"/>
    <path d="M3 13c-1.108 0-2 .892-2 2v10h4v11H1v9c0 1.108.892 2 2 2h30c1.108 0 2-.892 2-2V15c0-1.108-.892-2-2-2z" fill="#ffc49c"/>
    <path d="M7 17h22c1.108 0 2 .892 2 2v22c0 1.108-.892 2-2 2H7c-1.108 0-2-.892-2-2V19c0-1.108.892-2 2-2z" fill="#fff"/>
    <g fill="#363c4d">
        <path d="M7 37v4h2v-4zm9 0v4h3v-4zm4 0v4h3v-4zm4 0v4h2v-4zm3 0v4h2v-4zm-17 2v2h2v-2zm3 0v2h2v-2zM7 19v7h10v-7zm1 1h6v2H8zm0 3h4v2H8zM12.5 27c-.831 0-1.5.669-1.5 1.5V32H9.5c-1.336 0-2.005 1.616-1.06 2.56l3 3a1.5 1.5 0 0 0 2.12 0l3-3"/>
    </g>
    <path d="M34.5 0C27.038 0 21 6.038 21 13.5V30a1 1 0 0 0 1.705.707l2.293-2.295 2.295 2.295a1 1 0 0 0 1.412 0l2.346-2.344 2.799 2.397a1 1 0 0 0 1.3 0l2.795-2.397 2.346 2.344a1 1 0 0 0 1.416 0L44 28.416l2.291 2.291A1 1 0 0 0 48 30V13.5C48 6.038 41.962 0 34.5 0z" fill="#d72f49" fill-opacity=".98"/>
    <path d="M34.5 1C27.575 1 22 6.575 22 13.5V30l3-3 3 3 3-3 3.5 3 3.5-3 3 3 3-3 3 3V13.5C47 6.575 41.425 1 34.5 1z" fill="#fe7688"/>
    <g fill="#f3dee1">
        <path d="M29.5 9c1.385 0 2.5 1.115 2.5 2.5S30.885 14 29.5 14a2.495 2.495 0 0 1-2.5-2.5c0-1.385 1.115-2.5 2.5-2.5zM39.5 9c1.385 0 2.5 1.115 2.5 2.5S40.885 14 39.5 14 37 12.885 37 11.5 38.115 9 39.5 9z"/>
    </g>
</svg>
