<svg height="48" width="48" xmlns="http://www.w3.org/2000/svg">
    <path d="m32 31 10 14H6l10-14z" opacity=".2"/>
    <path d="M16 4h16v26H16z" fill="#f73434"/>
    <path d="m32 30 10 14H6l10-14z" fill="#ca1818"/>
    <path d="M16 30 6 44h.714L16 31h16l9.286 13H42L32 30z" fill="#f4f4f7" opacity=".1"/>
    <path d="M22.118 42.628c-1.944-.596-2.516-1.834-.744-2.726 1.058-.53-.01-1.134-2.01-1.136-.552 0-1.154-.106-1.336-.236-.306-.22-.314-.324-.094-1.45.188-.97.362-1.346.86-1.86.346-.356.8-.69 1.012-.74.414-.104 1.566-1.46 2.35-2.774.47-.788.476-.828.154-1.054-.648-.454-.642-.866.02-1.54l.614-.63-.24-2.536c-.258-2.736-1.194-6.812-1.642-7.16-.46-.356-.78-1.994-.78-4.014 0-2.968.04-3.096 1.144-3.61 1.042-.484 1.176-.77.832-1.78-.484-1.428.396-2.624 1.556-2.11.602.268.728.94.356 1.892-.296.754-.296.81.006 1.134.174.188.406.344.516.344.108 0 .496.08.86.18.612.164.68.252.86 1.062.108.486.198 1.374.2 1.974.004.61.11 1.22.24 1.388.344.44.38 2.89.044 3.074-.588.324-.28 9.956.356 11.152.3.564.34 1.314.08 1.472-.624.374.544 3.308 1.488 3.744.592.272.72.692.75 2.44.026 1.624-.082 1.72-2.058 1.87-1.216.09-1.974.278-2.328.574-.038.032.268.428.678.88.41.454.746.918.746 1.032 0 .302-.512.66-1.356 1.112-.402.172-.538.266-1.722.266-.53-.01-.94-.156-1.412-.234zm2.738-9.728c.244-.62.34-5.64.14-7.264l-.4-3.21c-.1-.818-.256-1.608-.346-1.758-.23-.384-.214 3.112.02 4.65.272 1.764.32 3.94.088 4.114-.106.08-.436.224-.734.32l-.542.174.7.288c.594.246.68.348.576.686-.22.72-.328 1.692-.22 1.968.132.338.59.358.718.032z" opacity=".5"/>
    <path d="M16 4v1h16V4z" fill="#f4f4f7" opacity=".2"/>
</svg>
