<svg xmlns="http://www.w3.org/2000/svg" width="48" height="48"><rect style="opacity:.2" width="40" height="40" x="4" y="5" rx="2" ry="2"/><rect style="fill:#3f4077" width="40" height="40" x="4" y="4" rx="2" ry="2"/><path style="opacity:.2" d="M37 9a5 5 0 0 0-5 5 5 5 0 0 0 .635 2.434L30.998 18H17.762l-4.82 4.963A5 5 0 0 0 10 22a5 5 0 0 0-5 5 5 5 0 0 0 5 5 5 5 0 0 0 5-5 5 5 0 0 0-.709-2.555L18.607 20h13.194l2.14-2.049A5 5 0 0 0 37 19a5 5 0 0 0 5-5 5 5 0 0 0-5-5zm-25 2a2 2 0 0 0-2 2 2 2 0 0 0 2 2 2 2 0 0 0 2-2 2 2 0 0 0-2-2zm8 0a2 2 0 0 0-2 2 2 2 0 0 0 2 2 2 2 0 0 0 2-2 2 2 0 0 0-2-2zm7 0a2 2 0 0 0-2 2 2 2 0 0 0 2 2 2 2 0 0 0 2-2 2 2 0 0 0-2-2zm10 0a3 3 0 0 1 3 3 3 3 0 0 1-3 3 3 3 0 0 1-3-3 3 3 0 0 1 3-3zm0 12a5 5 0 0 0-4.898 4H20.158l-8.806 8.322A3 3 0 0 0 10 35a3 3 0 0 0-3 3 3 3 0 0 0 3 3 3 3 0 0 0 3-3 3 3 0 0 0-.268-1.23L20.953 29h11.152A5 5 0 0 0 37 33a5 5 0 0 0 5-5 5 5 0 0 0-5-5zm-12.5 9a3.5 3.5 0 0 0-3.5 3.5 3.5 3.5 0 0 0 3.5 3.5 3.5 3.5 0 0 0 1.738-.465L28.717 41h15.277v-2H29.541l-1.922-1.912A3.5 3.5 0 0 0 28 35.5a3.5 3.5 0 0 0-3.5-3.5zm0 2a1.5 1.5 0 0 1 1.5 1.5 1.5 1.5 0 0 1-1.5 1.5 1.5 1.5 0 0 1-1.5-1.5 1.5 1.5 0 0 1 1.5-1.5zM10 37a1 1 0 0 1 1 1 1 1 0 0 1-1 1 1 1 0 0 1-1-1 1 1 0 0 1 1-1z"/><path style="fill:#f4f4f7" d="M37 8a5 5 0 0 0-5 5 5 5 0 0 0 .635 2.434L30.998 17H17.762l-4.82 4.963A5 5 0 0 0 10 21a5 5 0 0 0-5 5 5 5 0 0 0 5 5 5 5 0 0 0 5-5 5 5 0 0 0-.709-2.555L18.607 19h13.194l2.14-2.049A5 5 0 0 0 37 18a5 5 0 0 0 5-5 5 5 0 0 0-5-5zm-25 2a2 2 0 0 0-2 2 2 2 0 0 0 2 2 2 2 0 0 0 2-2 2 2 0 0 0-2-2zm8 0a2 2 0 0 0-2 2 2 2 0 0 0 2 2 2 2 0 0 0 2-2 2 2 0 0 0-2-2zm7 0a2 2 0 0 0-2 2 2 2 0 0 0 2 2 2 2 0 0 0 2-2 2 2 0 0 0-2-2zm10 0a3 3 0 0 1 3 3 3 3 0 0 1-3 3 3 3 0 0 1-3-3 3 3 0 0 1 3-3zm0 12a5 5 0 0 0-4.898 4H20.158l-8.806 8.322A3 3 0 0 0 10 34a3 3 0 0 0-3 3 3 3 0 0 0 3 3 3 3 0 0 0 3-3 3 3 0 0 0-.268-1.23L20.953 28h11.152A5 5 0 0 0 37 32a5 5 0 0 0 5-5 5 5 0 0 0-5-5zm-12.5 9a3.5 3.5 0 0 0-3.5 3.5 3.5 3.5 0 0 0 3.5 3.5 3.5 3.5 0 0 0 1.738-.465L28.717 40h15.277v-2H29.541l-1.922-1.912A3.5 3.5 0 0 0 28 34.5a3.5 3.5 0 0 0-3.5-3.5zm0 2a1.5 1.5 0 0 1 1.5 1.5 1.5 1.5 0 0 1-1.5 1.5 1.5 1.5 0 0 1-1.5-1.5 1.5 1.5 0 0 1 1.5-1.5zM10 36a1 1 0 0 1 1 1 1 1 0 0 1-1 1 1 1 0 0 1-1-1 1 1 0 0 1 1-1z"/><path style="opacity:.1;fill:#f4f4f7" d="M6 4c-1.108 0-2 .892-2 2v1c0-1.108.892-2 2-2h36c1.108 0 2 .892 2 2V6c0-1.108-.892-2-2-2z"/></svg>