<svg height="48" width="48" xmlns="http://www.w3.org/2000/svg"><rect fill="#4e91d9" height="40" rx="2" width="40" x="4" y="4"/><path d="m6 4c-1.108 0-2 .892-2 2v1c0-1.108.892-2 2-2h36c1.108 0 2 .892 2 2v-1c0-1.108-.892-2-2-2z" fill="#fff" opacity=".2"/><path d="m6 45c-1.108 0-2-.892-2-2v-1c0 1.108.892 2 2 2h36c1.108 0 2-.892 2-2v1c0 1.108-.892 2-2 2z" opacity=".2"/><path d="m7 31h10c.038-13.873 11-16 11-16-2.72 11.294-.588 16 5 16h8" fill="none" stroke="#343434" stroke-linejoin="round" stroke-width="2"/></svg>