<svg height="48" width="48" xmlns="http://www.w3.org/2000/svg"><rect fill="#8ac249" height="40" rx="20" transform="matrix(0 -1 -1 0 0 0)" width="40" x="-43.98" y="-44.02"/><path d="m38.16 9.84-28.284 28.284a19.956 19.956 0 0 0 28.284 0 19.956 19.956 0 0 0 0-28.284z" opacity=".1"/><path d="m9.876 38.124 12.374-15.91 1.675 1.675 1.86 1.86z" fill="#f2f2f2"/><path d="m38.16 9.84-15.91 12.374 3.535 3.535z" fill="#f34235"/><path d="m38.16 9.84-28.284 28.284a19.956 19.956 0 0 1 0-28.284 19.956 19.956 0 0 1 28.284 0z" fill="#fff" opacity=".2"/><path d="m24.018 3.982c-11.08 0-20 8.92-20 20 0 .168-.004.333 0 .5.264-10.846 9.088-19.5 20-19.5s19.736 8.653 20 19.5c.004-.167 0-.332 0-.5 0-11.08-8.92-20-20-20z" fill="#fff" opacity=".2"/><path d="m24.018 45c-11.08 0-20-8.92-20-20 0-.168-.004-.333 0-.5.264 10.846 9.088 19.5 20 19.5s19.736-8.654 20-19.5c.004.167 0 .332 0 .5 0 11.08-8.92 20-20 20z" opacity=".2"/></svg>