<svg height="48" width="48" xmlns="http://www.w3.org/2000/svg">
    <g fill-rule="evenodd">
        <path d="M23.998 4a4.5 4.5 0 0 0-3.28 1.398L4.395 22.258A4.978 4.978 0 0 0 3 25.628v.085c0 3.613 9.13.104 10 4.521.47 2.391-5 1.296-5 3.702 0 2.821 8.91.52 10.8 3.207 1.447 2.056-3.749 2.144-2.601 4.113.985 1.689 4.506.607 5.094 2.877.67 2.592 4.99 2.304 7.43.248 1.495-1.26-1.698-2.05-.339-3.455 1.36-1.406 7.977-1.142 7.615-4.194-.239-2.02-2.96-2.242-3-4.523-.135-1.932 2.169-1.368 9.13-3.291 2.782-1.308 2.88-2.003 2.87-3.207v-.082c-.016-1.214-.577-2.44-1.476-3.371L27.279 5.398A4.497 4.497 0 0 0 23.999 4zm19.157 29.002c-.318-.012-.638.019-.865.092-.426.141-2.447.223-2.28 1.992 1.83.884 4.621 1.587 4.954-.182.25-1.326-.854-1.861-1.809-1.902zm-33.032 5.014c-.178.024-.3.11-.475.19-1.393.636-2.327 1.976-1.025 2.562 1.302.585 2.173-.034 3.314-.76 1.142-.726 1.11-.859 1.028-1.139-.159.038-1.196-.738-2.29-.853a2.39 2.39 0 0 0-.552 0z" opacity=".2"/>
        <path d="M23.998 3a4.5 4.5 0 0 0-3.28 1.398L4.395 21.258A4.978 4.978 0 0 0 3 24.628v.085c0 3.613 9.13.104 10 4.521.47 2.391-5 1.296-5 3.702 0 2.821 8.91.52 10.8 3.207 1.447 2.056-3.749 2.144-2.601 4.113.985 1.689 4.506.607 5.094 2.877.67 2.592 4.99 2.304 7.43.248 1.495-1.26-1.698-2.05-.339-3.455 1.36-1.406 7.977-1.142 7.615-4.194-.239-2.02-2.96-2.242-3-4.523-.135-1.932 2.169-1.368 9.13-3.291 2.782-1.308 2.88-2.003 2.87-3.207v-.082c-.016-1.214-.577-2.44-1.476-3.371L27.279 4.398A4.497 4.497 0 0 0 23.999 3zm19.157 29.002c-.318-.012-.638.019-.865.092-.426.141-2.447.223-2.28 1.992 1.83.884 4.621 1.587 4.954-.182.25-1.326-.854-1.861-1.809-1.902zm-33.032 5.014c-.178.024-.3.11-.475.19-1.393.636-2.327 1.976-1.025 2.562 1.302.585 2.173-.034 3.314-.76 1.142-.726 1.11-.859 1.028-1.139-.159.038-1.196-.738-2.29-.853a2.39 2.39 0 0 0-.552 0z" fill="#4f4f4f"/>
        <path d="M24.075 9c1.232.01 4.607 4.187 7.618 7.315.847 1.137-.328 2.301-.328 2.301l-6.307-3.452-2.785 3.781-2.457-3.698L18.341 21l-4.34-2.63 1.146-1.48 6.798-6.985c.522-.532.921-.914 2.13-.904z" opacity=".2"/>
        <g fill="#f4f4f7">
            <path d="M24.075 8c1.232.01 4.607 4.187 7.618 7.315.847 1.137-.328 2.301-.328 2.301l-6.307-3.452-2.785 3.781-2.457-3.698L18.341 20l-4.34-2.63 1.146-1.48 6.798-6.985c.522-.532.921-.914 2.13-.904z"/>
            <path d="M23.998 3a4.5 4.5 0 0 0-3.28 1.398L4.396 21.258A4.978 4.978 0 0 0 3 24.628v.085c0 .155.023.292.055.422a4.955 4.955 0 0 1 1.34-2.877l16.324-16.86A4.496 4.496 0 0 1 23.998 4H24a4.5 4.5 0 0 1 3.28 1.398l16.243 16.86" opacity=".1"/>
        </g>
    </g>
</svg>
