<svg xmlns="http://www.w3.org/2000/svg" width="48" height="48" version="1"><rect style="opacity:.2" width="39" height="39" x="5" y="5" rx="1.95" ry="1.95"/><rect style="fill:#226ccc" width="39" height="39" x="5" y="4" rx="1.95" ry="1.95"/><path style="opacity:.3" d="M6.95 4C5.868 4 5 4.869 5 5.95V17h13V4H6.95zM18 17v13h13V17H18zm13 0h13V5.95C44 4.868 43.131 4 42.05 4H31v13zm0 13v13h11.05c1.081 0 1.95-.869 1.95-1.95V30H31zm-13 0H5v11.05C5 42.132 5.869 43 6.95 43H18V30z"/><path style="opacity:.2" d="M38.268 7c-.287 0-.66.026-1.018.078-.359.052-.704.129-.936.233a5.162 5.162 0 0 0-1.212.734l.593.732a5.222 5.222 0 0 1 1.012-.62c.329-.15 1.114-.225 1.56-.225.237 0 .451.033.643.097.192.065.362.16.51.29.295.248.441.616.441 1.105 0 .406-.08.776-.24 1.107-.16.332-.4.67-.72 1.018-.313.348-.692.746-1.14 1.193L35 15.092V16h5.969v-.994h-4.565v-.05l2.282-1.827c.463-.44.869-.858 1.214-1.256a5.39 5.39 0 0 0 .809-1.205c.194-.406.291-.843.291-1.307 0-.364-.061-.69-.184-.978a2.026 2.026 0 0 0-.55-.748 2.295 2.295 0 0 0-.4-.278 2.61 2.61 0 0 0-.466-.199h-.002a3.229 3.229 0 0 0-.53-.119 4.33 4.33 0 0 0-.6-.039zM25.1 20c-.613 0-1.363.09-1.848.27-.477.18-.878.393-1.201.638l.562.735c.34-.213.685-.389 1.033-.528.35-.139.972-.207 1.465-.207.511 0 .915.119 1.213.356.298.229.447.555.447.98 0 .499-.196.899-.587 1.201-.383.303-1.15.553-1.899.553H24v.82h.271c.809 0 1.435.124 1.877.37.452.237.678.628.678 1.175 0 .54-.183.965-.549 1.276-.357.302-.944.453-1.761.453-.409 0-.835-.049-1.278-.147a5.5 5.5 0 0 1-1.238-.43v1.006c.374.18.765.302 1.174.368a7.5 7.5 0 0 0 1.328.111c.808 0 1.468-.111 1.978-.332.52-.22.902-.526 1.149-.918s.371-.846.371-1.361c0-.58-.183-1.05-.549-1.41-.357-.36-.898-.58-1.62-.663v-.048c.57-.115 1.225-.345 1.565-.688.35-.351.524-.822.524-1.41 0-.63-.233-1.148-.701-1.557-.46-.408-1.166-.613-2.12-.613zM10.91 33c-.587 0-1.102.118-1.545.355a2.47 2.47 0 0 0-1.008 1.018c-.238.441-.357.969-.357 1.582 0 .842.238 1.495.715 1.961.485.458 1.12.688 1.902.688.553 0 1.005-.1 1.354-.295.349-.205.62-.445.816-.723h.076a7.02 7.02 0 0 1-.177 1.361c-.103.425-.269.8-.499 1.127-.23.319-.54.574-.931.762-.383.188-.873.281-1.469.281-.417 0-.791-.054-1.123-.16v.92c.136.04.32.07.549.086.23.024.43.037.6.037.86 0 1.562-.147 2.107-.441a3.223 3.223 0 0 0 1.275-1.178c.307-.499.515-1.05.625-1.654.12-.614.18-1.234.18-1.864 0-.874-.136-1.594-.408-2.158-.273-.572-.643-.997-1.112-1.275a2.952 2.952 0 0 0-1.57-.43zm0 .908c.434 0 .797.113 1.086.342.29.229.506.516.65.86.145.343.217.689.217 1.04 0 .262-.083.517-.254.762-.161.245-.391.45-.69.613-.297.156-.651.233-1.06.233-.595 0-1.038-.16-1.328-.479-.28-.327-.42-.772-.42-1.336 0-.686.166-1.198.498-1.533.34-.335.773-.502 1.301-.502z"/><path style="fill:#f4f4f7" d="M38.268 6c-.287 0-.66.026-1.018.078-.359.052-.704.129-.936.233a5.162 5.162 0 0 0-1.212.734l.593.732a5.222 5.222 0 0 1 1.012-.62c.329-.15 1.114-.225 1.56-.225.237 0 .451.033.643.097.192.065.362.16.51.29.295.248.441.616.441 1.105 0 .406-.08.776-.24 1.107-.16.332-.4.67-.72 1.018-.313.348-.692.746-1.14 1.193L35 14.092V15h5.969v-.994h-4.565v-.05l2.282-1.827c.463-.44.869-.858 1.214-1.256a5.39 5.39 0 0 0 .809-1.205c.194-.406.291-.843.291-1.307 0-.364-.061-.69-.184-.978a2.026 2.026 0 0 0-.55-.748 2.295 2.295 0 0 0-.4-.278 2.61 2.61 0 0 0-.466-.199h-.002a3.229 3.229 0 0 0-.53-.119 4.331 4.331 0 0 0-.6-.039zM25.1 19c-.613 0-1.363.09-1.848.27-.477.18-.878.393-1.201.638l.562.735c.34-.213.685-.389 1.033-.528.35-.139.972-.207 1.465-.207.511 0 .915.119 1.213.356.298.229.447.555.447.98 0 .499-.196.899-.587 1.201-.383.303-1.15.553-1.899.553H24v.82h.271c.809 0 1.435.124 1.877.37.452.237.678.628.678 1.175 0 .54-.183.965-.549 1.276-.357.302-.944.453-1.761.453-.409 0-.835-.049-1.278-.147a5.5 5.5 0 0 1-1.238-.43v1.006c.374.18.765.302 1.174.368a7.5 7.5 0 0 0 1.328.111c.808 0 1.468-.111 1.978-.332.52-.22.902-.526 1.149-.918s.371-.846.371-1.361c0-.58-.183-1.05-.549-1.41-.357-.36-.898-.58-1.62-.663v-.048c.57-.115 1.225-.345 1.565-.688.35-.351.524-.822.524-1.41 0-.63-.233-1.148-.701-1.557-.46-.408-1.166-.613-2.12-.613zM10.91 32c-.587 0-1.102.118-1.545.355a2.47 2.47 0 0 0-1.008 1.018c-.238.441-.357.969-.357 1.582 0 .842.238 1.495.715 1.961.485.458 1.12.688 1.902.688.553 0 1.005-.1 1.354-.295.349-.205.62-.445.816-.723h.076a7.02 7.02 0 0 1-.177 1.361c-.103.425-.269.8-.498 1.127-.23.319-.54.574-.932.762-.383.188-.873.281-1.469.281-.417 0-.791-.054-1.123-.16v.92c.136.04.32.07.549.086.23.024.43.037.6.037.86 0 1.562-.147 2.107-.441a3.223 3.223 0 0 0 1.275-1.178c.307-.499.515-1.05.625-1.654.12-.614.18-1.234.18-1.864 0-.874-.136-1.594-.408-2.158-.273-.572-.643-.997-1.112-1.275a2.952 2.952 0 0 0-1.57-.43zm0 .908c.434 0 .797.113 1.086.342.29.229.506.516.65.86.145.343.217.689.217 1.04 0 .262-.083.517-.254.762-.161.245-.391.45-.69.613-.297.156-.651.233-1.06.233-.595 0-1.038-.16-1.328-.479-.28-.327-.42-.772-.42-1.336 0-.686.166-1.198.498-1.533.34-.335.773-.502 1.301-.502z"/><path style="opacity:.1;fill:#f4f4f7" d="M6.95 4C5.868 4 5 4.869 5 5.95v1C5 5.868 5.869 5 6.95 5h35.1C43.132 5 44 5.869 44 6.95v-1C44 4.868 43.131 4 42.05 4H6.95z"/></svg>