<svg xmlns="http://www.w3.org/2000/svg" width="48" height="48" version="1"><rect fill="#e94a63" width="18" height="18" x="-22" y="-44" rx=".9" ry=".9" transform="matrix(0 -1 -1 0 0 0)"/><rect fill="#e94a63" width="18" height="18" x="-22" y="-22" rx=".9" ry=".9" transform="matrix(0 -1 -1 0 0 0)"/><rect fill="#e94a63" width="18" height="18" x="-44" y="-44" rx=".9" ry=".9" transform="matrix(0 -1 -1 0 0 0)"/><rect fill="#86b837" width="18" height="18" x="-44" y="-22" rx=".9" ry=".9" transform="matrix(0 -1 -1 0 0 0)"/><circle opacity=".2" cx="35" cy="14" r="4"/><circle fill="#fff" cx="35" cy="13" r="4"/><circle opacity=".2" cx="13" cy="36" r="4"/><circle fill="#fff" cx="13" cy="35" r="4"/><path opacity=".2" d="M4 21.1v1c0 .498.402.9.9.9h16.2c.498 0 .9-.402.9-.9v-1c0 .498-.402.9-.9.9H4.9a.899.899 0 0 1-.9-.9zm22 0v1c0 .498.402.9.9.9h16.199a.899.899 0 0 0 .901-.9v-1c0 .498-.402.9-.9.9H26.9a.899.899 0 0 1-.9-.9zm-22 22v1c0 .498.402.9.9.9h16.2c.498 0 .9-.402.9-.9v-1c0 .498-.402.9-.9.9H4.9a.899.899 0 0 1-.9-.9zm22 0v1c0 .498.402.9.9.9h16.199a.899.899 0 0 0 .901-.9v-1c0 .498-.402.9-.9.9H26.9a.899.899 0 0 1-.9-.9z"/><path fill="#fff" opacity=".2" d="M4.9 4c-.498 0-.9.402-.9.9v1c0-.498.402-.9.9-.9h16.2c.498 0 .9.402.9.9v-1c0-.498-.402-.9-.9-.9H4.9zm22 0c-.498 0-.9.402-.9.9v1c0-.498.402-.9.9-.9h16.2c.498 0 .9.402.9.9v-1c0-.498-.402-.9-.9-.9H26.9zm-22 22c-.498 0-.9.402-.9.9v1c0-.498.402-.9.9-.9h16.2c.498 0 .9.402.9.9v-1c0-.498-.402-.9-.9-.9H4.9zm22 0c-.498 0-.9.402-.9.9v1c0-.498.402-.9.9-.9h16.2c.498 0 .9.402.9.9v-1c0-.498-.402-.9-.9-.9H26.901z"/></svg>