<svg height="48" width="48" xmlns="http://www.w3.org/2000/svg"><rect height="40" opacity=".2" rx="12" width="40" x="4" y="5"/><rect fill="#4c459c" height="40" rx="12" width="40" x="4" y="4"/><path d="m16 4c-6.648 0-12 5.352-12 12v1c0-6.648 5.352-12 12-12h16c6.648 0 12 5.352 12 12v-1c0-6.648-5.352-12-12-12z" fill="#f4f4f7" opacity=".1"/><path d="m34 12a3 3 0 0 0 -3 3 3 3 0 0 0 .195 1.063l-4.335 5.297a5 5 0 0 0 -1.86-.36 5 5 0 0 0 -4.984 4.703" opacity=".2"/><path d="m34 11a3 3 0 0 0 -3 3 3 3 0 0 0 .195 1.063l-4.335 5.297a5 5 0 0 0 -1.86-.36 5 5 0 0 0 -4.984 4.703" fill="#f4f4f7"/></svg>