<svg height="48" width="48" xmlns="http://www.w3.org/2000/svg">
    <path d="M8 13c-2.215 0-4 1.785-4 4v24c0 2.219 1.785 4 4 4h32c2.215 0 4-1.781 4-4V17c0-2.215-1.785-4-4-4z" opacity=".2"/>
    <path d="M8 12c-2.215 0-4 1.785-4 4v24c0 2.219 1.785 4 4 4h15.998V12zm0 0" fill="#e63e60"/>
    <path d="M23.998 12v32H40c2.215 0 4-1.781 4-4V16c0-2.215-1.785-4-4-4zm0 0" fill="#177bc7"/>
    <path d="M24 17a8 8 0 1 0 0 16 8 8 0 0 0 0-16z" opacity=".1"/>
    <path d="M24 16a8 8 0 1 0 0 16 8 8 0 0 0 0-16z" fill="#5d6266"/>
    <circle cx="24" cy="25" opacity=".1" r="6"/>
    <circle cx="24" cy="24" fill="#9badff" r="6"/>
    <path d="M8 5C5.785 5 4 6.785 4 9v32c0-2.215 1.785-4 4-4s4 1.785 4 4V9c0-2.215-1.785-4-4-4zm32 0a3.99 3.99 0 0 0-4 4v32c0-2.215 1.781-4 4-4 2.215 0 4 1.785 4 4V9c0-2.215-1.785-4-4-4z" opacity=".2"/>
    <path d="M8 12c-2.215 0-4 1.785-4 4v1c0-2.215 1.785-4 4-4h32c2.215 0 4 1.785 4 4v-1c0-2.215-1.785-4-4-4z" fill="#f4f4f7" opacity=".2"/>
    <path d="M40 4a3.99 3.99 0 0 0-4 4v32c0-2.215 1.782-4 4-4 2.215 0 4 1.785 4 4V8c0-2.215-1.785-4-4-4z" fill="#3daee9"/>
    <path d="M8 4C5.785 4 4 5.785 4 8v32c0-2.215 1.785-4 4-4s4 1.785 4 4V8c0-2.215-1.785-4-4-4z" fill="#ff6c7f"/>
    <path d="M8 4C5.785 4 4 5.785 4 8v1c0-2.215 1.785-4 4-4s4 1.785 4 4V8c0-2.215-1.785-4-4-4zm32 0a3.99 3.99 0 0 0-4 4v1c0-2.215 1.781-4 4-4 2.215 0 4 1.785 4 4V8c0-2.215-1.785-4-4-4z" fill="#f4f4f7" opacity=".2"/>
</svg>
