<svg xmlns="http://www.w3.org/2000/svg" width="48" height="48"><circle style="opacity:.2" cx="24" cy="25" r="20"/><path style="fill:#39fea0" d="M23.986 44A20 20 0 0 0 24 44a20 20 0 0 0 20-20A20 20 0 0 0 24 4a20 20 0 0 0-.012 0z"/><path style="fill:#1f4855" d="m23.986 44 .002-40A20 20 0 0 0 4 24a20 20 0 0 0 19.986 20z"/><path style="opacity:.1" d="m22.666 13-9.299 24H16.4l2.832-6.998 4.664-.004v.004h4.77L31.533 37h3.1l-9.268-24h-1.469zm1.3 3.113L27.767 27h-7.534z"/><path style="fill:#1f4855" d="M23.897 29.002h4.77L31.534 36h3.1l-9.268-24h-1.469l.07 3.113c.023-.086-.021.085 0 0L27.768 26h-3.87z"/><path style="fill:#39fea0" d="M23.987 28.998V26h-3.754l3.735-10.887.02-3.113h-1.321l-9.3 24H16.4l2.832-6.998z"/><path style="opacity:.1;fill:#f4f4f7" d="M24 4A20 20 0 0 0 4 24a20 20 0 0 0 .021.582A20 20 0 0 1 24 5a20 20 0 0 1 19.979 19.418A20 20 0 0 0 44 24 20 20 0 0 0 24 4z"/></svg>