<svg xmlns="http://www.w3.org/2000/svg" width="48" height="48" version="1"><path style="opacity:.2" d="M27.002 5C36.33 5 44 12.671 44 22.002S36.33 39.005 27.002 39.005h-.008c-1.861-.003-3.671-.387-5.417-.98l-4.518 4.52c-2.758 2.758-7.702 3.612-10.96.353-3.254-3.256-2.401-8.204.354-10.96l4.523-4.525c-.59-1.743-.97-3.55-.97-5.409v-.002C10.005 12.672 17.673 5 27.001 5z"/><path style="fill:#2d4b9a" d="M27.002 4C36.33 4 44 11.671 44 21.002S36.33 38.005 27.002 38.005h-.008c-1.861-.003-3.671-.387-5.417-.98l-4.518 4.52c-2.758 2.758-7.702 3.612-10.96.353-3.254-3.256-2.401-8.204.354-10.96l4.523-4.525c-.59-1.743-.97-3.55-.97-5.409v-.002C10.005 11.672 17.673 4 27.001 4z"/><path style="opacity:.2" d="M21.15 27.625c-.979-.98-1.504-1.817-2.68-.642l-8.484 8.485c-1.175 1.176-1.333 2.91-.354 3.89.98.979 2.714.821 3.89-.354l8.484-8.485c1.175-1.176.124-1.914-.855-2.894z"/><path style="fill:#eb8345" d="M21.15 26.625c-.979-.98-1.504-1.817-2.68-.642l-8.484 8.485c-1.175 1.176-1.333 2.91-.354 3.89.98.979 2.714.821 3.89-.354l8.484-8.485c1.175-1.176.124-1.914-.855-2.894z"/><path style="opacity:.2" d="M27.002 10a12 12 0 0 1 12 12 12 12 0 0 1-12 12 12 12 0 0 1-12-12 12 12 0 0 1 12-12zm0 5a7 7 0 0 0-7 7 7 7 0 0 0 7 7 7 7 0 0 0 7-7 7 7 0 0 0-7-7z"/><path style="fill:#f4f4f7" d="M27.002 9a12 12 0 0 1 12 12 12 12 0 0 1-12 12 12 12 0 0 1-12-12 12 12 0 0 1 12-12zm0 5a7 7 0 0 0-7 7 7 7 0 0 0 7 7 7 7 0 0 0 7-7 7 7 0 0 0-7-7z"/><path style="opacity:.1;fill:#f4f4f7" d="M27.002 4C36.33 4 44 11.671 44 21.002c0 .169-.02.332-.025.5C43.705 12.401 36.162 5 27.002 5c-9.161 0-16.705 7.404-16.972 16.508-.006-.168-.025-.335-.025-.504v-.002C10.005 11.672 17.675 4 27.002 4zm-16.26 22.646c.077.256.148.515.233.768l-4.521 4.523a8.51 8.51 0 0 0-2.432 5.323c-.135-2.34.817-4.707 2.432-6.322z"/></svg>