<svg xmlns="http://www.w3.org/2000/svg" style="enable-background:new" width="48" height="48" version="1.0"><path style="opacity:.2" d="M10.872 5C9.29 5 8 6.314 8 7.926v34.148C8 43.686 9.29 45 10.872 45h26.256C38.709 45 40 43.686 40 42.074V7.926C40 6.314 38.71 5 37.128 5z"/><path style="fill:#3584e4" d="M10.872 4C9.29 4 8 5.314 8 6.926v34.148C8 42.686 9.29 44 10.872 44h26.256C38.709 44 40 42.686 40 41.074V6.926C40 5.314 38.71 4 37.128 4z"/><path style="opacity:.2" d="M12.757 7a.747.69 0 0 0-.52 1.183L14.2 9.994l-1.962 1.812a.747.69 0 1 0 1.056.975l2.489-2.3a.747.69 0 0 0 0-.974l-2.49-2.299A.747.69 0 0 0 12.758 7z" font-weight="400" overflow="visible"/><path style="fill:#f6f5f4" d="M12.757 6a.747.69 0 0 0-.52 1.183L14.2 8.994l-1.962 1.812a.747.69 0 1 0 1.056.975l2.489-2.3a.747.69 0 0 0 0-.974l-2.49-2.299A.747.69 0 0 0 12.758 6z" font-weight="400" overflow="visible"/><path style="fill:#241f31" d="M10 14v26.26c0 .974.737 1.74 1.673 1.74h24.654c.936 0 1.673-.766 1.673-1.74V14z"/><path style="opacity:.3;fill:#f4f4f7" d="M12 27v2h11.12v-2H12zm0 3v2h23v-2H12zm0 3v2h18v-2H12zm0 3v2h21v-2H12z"/><path style="opacity:.15;fill:#f4f4f7" d="M10 14v11h28V14z"/><path style="fill:#f4f4f7;opacity:.2" d="M10.873 4C9.291 4 8 5.314 8 6.926v1C8 6.314 9.291 5 10.873 5h26.254C38.709 5 40 6.314 40 7.926v-1C40 5.314 38.709 4 37.127 4H10.873z"/><path style="opacity:.2" d="M10 14v1h28v-1z"/></svg>