<svg enable-background="new" height="48" width="48" xmlns="http://www.w3.org/2000/svg"><rect height="25" opacity=".2" rx="2.462" ry="2" width="32" x="3" y="17"/><rect height="25" opacity=".2" rx="2.462" ry="2" width="32" x="8" y="12"/><rect height="25" opacity=".2" rx="2.462" ry="2" width="32" x="13" y="7"/><rect fill="#007dde" height="25" rx="2.462" ry="2" width="32" x="13" y="6"/><rect fill="#2fbce5" height="25" rx="2.462" ry="2" width="32" x="8" y="11"/><rect fill="#f4f4f7" height="25" rx="2.462" ry="2" width="32" x="3" y="16"/><path d="m24.91 25.858-3.668 3.552 3.758 3.722-2.396 2.25-3.613-3.908-3.595 4.026-2.396-2.267 3.955-3.692-3.653-3.628 2.701-2.413 3.291 3.793 3.183-3.673z" fill-rule="evenodd" opacity=".1"/><path d="m24.91 24.858-3.668 3.552 3.758 3.722-2.396 2.25-3.613-3.908-3.595 4.026-2.396-2.267 3.955-3.692-3.653-3.628 2.701-2.413 3.291 3.793 3.183-3.673z" fill="#189ce1" fill-rule="evenodd"/><g fill="#f4f4f7"><path d="m15.46 6c-1.362 0-2.46.892-2.46 2v1c0-1.108 1.097-2 2.46-2h27.08c1.362 0 2.46.892 2.46 2v-1c0-1.108-1.097-2-2.46-2z" opacity=".1"/><path d="m10.46 11c-1.362 0-2.46.892-2.46 2v1c0-1.108 1.097-2 2.46-2h27.08c1.363 0 2.46.892 2.46 2v-1c0-1.108-1.097-2-2.46-2zm-5 5c-1.362 0-2.46.892-2.46 2v1c0-1.108 1.097-2 2.46-2h27.08c1.363 0 2.46.892 2.46 2v-1c0-1.108-1.097-2-2.46-2z" opacity=".2"/></g></svg>