<svg height="48" width="48" xmlns="http://www.w3.org/2000/svg">
    <path d="M38 18.5V6.687A1.69 1.69 0 0 0 36.3 5H5.7C4.758 5 4 5.753 4 6.688v23.625A1.69 1.69 0 0 0 5.7 32h18.7z" opacity=".2"/>
    <g opacity=".2">
        <path d="M41 24V12.687A1.69 1.69 0 0 0 39.3 11H8.7c-.942 0-1.7.753-1.7 1.688v23.624A1.69 1.69 0 0 0 8.7 38H27z"/>
        <path d="M38 26.085V14H10v21h19.09z" opacity=".2"/>
    </g>
    <path d="M44 30V18.687A1.69 1.69 0 0 0 42.3 17H11.7c-.942 0-1.7.753-1.7 1.688v23.625A1.69 1.69 0 0 0 11.7 44H30z" opacity=".2"/>
    <path d="M38 17.5V5.687A1.69 1.69 0 0 0 36.3 4H5.7C4.758 4 4 4.753 4 5.688v23.625A1.69 1.69 0 0 0 5.7 31h18.7z" fill="#ff9212"/>
    <path d="M35 19.085V7H7v21h19.09z" opacity=".3"/>
    <path d="M41 23V11.687A1.69 1.69 0 0 0 39.3 10H8.7c-.942 0-1.7.753-1.7 1.688v23.624A1.69 1.69 0 0 0 8.7 37H27z" fill="#cfff3d"/>
    <path d="M38 25.085V13H10v21h19.09z" opacity=".3"/>
    <path d="M44 29V17.687A1.69 1.69 0 0 0 42.3 16H11.7c-.942 0-1.7.753-1.7 1.688v23.625A1.69 1.69 0 0 0 11.7 43H30z" fill="#39ddff"/>
    <path d="M41 31.085V19H13v21h19.09z" opacity=".3"/>
    <path d="M44 29.103H31.75c-.967 0-1.75.778-1.75 1.737V43z" fill="#93edff"/>
    <g fill="#f4f4f7">
        <path d="M5.7 4C4.756 4 4 4.753 4 5.688v1A1.69 1.69 0 0 1 5.7 5h30.6c.943 0 1.7.753 1.7 1.688v-1A1.69 1.69 0 0 0 36.3 4zM8.7 10c-.943 0-1.7.753-1.7 1.688v1A1.69 1.69 0 0 1 8.7 11h30.6c.943 0 1.7.753 1.7 1.688v-1A1.69 1.69 0 0 0 39.3 10zM11.7 16c-.943 0-1.7.753-1.7 1.688v1A1.69 1.69 0 0 1 11.7 17h30.6c.943 0 1.7.753 1.7 1.688v-1A1.69 1.69 0 0 0 42.3 16zm20.05 13.104c-.967 0-1.75.776-1.75 1.736v1c0-.96.783-1.736 1.75-1.736h11.242l1.008-1z" opacity=".2"/>
    </g>
</svg>
