<svg xmlns="http://www.w3.org/2000/svg" width="48" height="48" version="1"><path fill="#7bc136" d="M24 17C12.954 17 4 23.268 4 31h8v10s0 2 2 2h20c2 0 2-2 2-2V31h8c0-7.732-8.954-14-20-14z"/><path fill="#fff" opacity=".2" d="M24 17C12.954 17 4 23.268 4 31h.057C4.79 23.735 13.435 18 24 18s19.21 5.735 19.943 13H44c0-7.732-8.954-14-20-14z"/><path fill="#4c4c4c" d="M19 19h10l-1 6h-8z"/><circle opacity=".2" cx="24" cy="13" r="9"/><circle fill="#fecd38" cx="24" cy="12" r="9"/><path fill="#fff" opacity=".2" d="M24 3a9 9 0 0 0-9 9 9 9 0 0 0 .021.576A9 9 0 0 1 24 4a9 9 0 0 1 8.979 8.424A9 9 0 0 0 33 12a9 9 0 0 0-9-9z"/><path opacity=".2" d="M4.057 31A9.963 9.963 0 0 0 4 32h8v-1H4.057zM36 31v1h8c0-.337-.024-.67-.057-1H36zM12 41v1s0 2 2 2h20c2 0 2-2 2-2v-1s0 2-2 2H14c-2 0-2-2-2-2z"/></svg>