<svg height="48" width="48" xmlns="http://www.w3.org/2000/svg">
    <rect fill="#f4f4f7" height="40" rx="2" width="40" x="4" y="4"/>
    <path d="M6 4c-1.108 0-2 .892-2 2v1c0-1.108.892-2 2-2h36c1.108 0 2 .892 2 2V6c0-1.108-.892-2-2-2z" fill="#fff" opacity=".2"/>
    <path d="M6 45c-1.108 0-2-.892-2-2v-1c0 1.108.892 2 2 2h36c1.108 0 2-.892 2-2v1c0 1.108-.892 2-2 2z" opacity=".2"/>
    <g transform="scale(-1 1) rotate(-45)">
        <rect fill="#49a2d6" height="13.111" rx=".656" width="13.111" x="-27.77" y="-6.56"/>
        <rect fill="#caa52a" height="13.111" rx=".656" width="13.111" x="-40.5" y="-19.28"/>
        <rect fill="#e94a63" height="13.111" rx=".656" width="13.111" x="-40.5" y="6.17"/>
        <rect fill="#6eaa53" height="13.111" rx=".656" width="13.111" x="-53.23" y="-6.56"/>
    </g>
</svg>
