<svg height="48" width="48" xmlns="http://www.w3.org/2000/svg"><path d="m7 12v30c0 1.662 1.338 3 3 3h20l12-12v-21z" opacity=".2"/><path d="m7 11v30c0 1.662 1.338 3 3 3h20l12-12v-21z" fill="#f4f4f7"/><path d="m10.182 5a3.183 3.183 0 0 0 -3.182 3.2v4h.012c.029.447.363.8.785.8h33.406c.422 0 .756-.353.785-.8h.012v-4c0-1.775-1.419-3.2-3.182-3.2h-15.818z" opacity=".1"/><path d="m40.377 7-.022.02-27.148 27.1-2.207 8.88 3.578-.898-.002-.002 5.256-1.32 27.148-27.1.02-.02-2.229-2.201-2.207-2.219z" opacity=".1"/><path d="m10.182 4a3.183 3.183 0 0 0 -3.182 3.2v4h.012c.029.447.363.8.785.8h33.406c.422 0 .756-.353.785-.8h.012v-4c0-1.775-1.419-3.2-3.182-3.2h-15.818z" fill="#00aade"/><path d="m10.182 4a3.183 3.183 0 0 0 -3.182 3.2v1c0-1.775 1.419-3.2 3.182-3.2h28.636a3.183 3.183 0 0 1 3.182 3.2v-1c0-1.775-1.419-3.2-3.182-3.2h-15.818z" fill="#f4f4f7" opacity=".2"/><path d="m11 42 2.208-8.88 6.624 6.66z" fill="#e6cb8c"/><path d="m11 42 .887-3.569 2.69 2.67z" fill="#4e4e4e"/><path d="m19.832 39.78-6.624-6.66 27.148-27.1 6.624 6.66z" fill="#e0b902"/><path d="m15.416 35.34-2.208-2.22 27.168-27.12 2.188 2.24z" fill="#f4d507"/><path d="m17.624 37.56 2.208 2.22 27.168-27.12-2.228-2.2z" fill="#daa502"/><path d="m42 32h-8.8a3.2 3.2 0 0 0 -3.2 3.213v8.787z" fill="#c6c6c6"/></svg>