<svg xmlns="http://www.w3.org/2000/svg" width="48" height="48" version="1"><rect fill="#37a0f2" width="40" height="40" x="-43.98" y="-43.98" rx="20" ry="20" transform="matrix(0 -1 -1 0 0 0)"/><path opacity=".1" d="M38.129 9.87 9.871 38.13a19.939 19.939 0 0 0 28.259 0 19.939 19.939 0 0 0 0-28.26z"/><path fill="#fff" opacity=".3" d="M23.324 4.035c-1.39.046-2.736.247-4.039.56l.022.391-.895-.136-.006-.028A19.92 19.92 0 0 0 4.828 18.377l.737 1.08-.33.61.82 1.26 2.033.507v-.332l.814.117-.076.584.637.117.988.272 1.395 1.597 1.785.135.172 1.463-1.219.856-.057 1.306-.175.797 1.765 2.223.133.758s.64.175.719.175c.077 0 1.433 1.034 1.433 1.034v4.013l.485.137-.328 1.85.812 1.09-.15 1.835.66 1.164c.752.241 1.522.443 2.31.594l.049-.36.182-.527.039-.535-.69-.02-.349-.439.574-.556.078-.416-.64-.184.039-.389.91-.138 1.387-.67.464-.858 1.452-1.869-.329-1.463.446-.777 1.336.041.9-.719.291-2.822.998-1.273.174-.82-.91-.292-.6-.99-2.054-.022-1.629-.625-.075-1.166-.545-.955-1.472-.02-.85-1.345-.758-.369-.039.406-1.375.084-.504-.705-1.433-.293-1.182 1.373-1.859-.316-.137-2.11-1.357-.232.545-1.033-.157-.596-1.783 1.2-1.123-.137-.4-.883.244-.908.619-1.145 1.426-.725h2.75l-.008.842.988.461-.078-1.439.713-.723 1.437-.947.1-.668 1.434-1.502 1.523-.848-.133-.113 1.032-.977.377.1.175.221.391-.44.096-.04-.428-.06-.438-.148v-.422l.233-.189h.508l.232.103.201.411.25-.038v-.037l.069.024.716-.11.102-.349.406.101v.381l-.377.26.057.418 1.293.4.004.018.299-.025.019-.565-1.027-.47-.059-.27.852-.293.037-.818-.889-.545-.058-1.383-1.221.604h-.445l.115-1.053-1.66-.395-.688.524v1.592l-1.236.394-.496 1.04-.537.087v-1.33l-1.163-.16-.58-.381-.234-.861 2.078-1.223 1.016-.31.103.685.567-.027.043-.346.593-.086.01-.12-.254-.107-.058-.365.728-.06.44-.463.023-.033.006.002.135-.14 1.531-.194.676.58-1.776.949 2.26.537.291-.76h.988l.35-.662-.697-.176v-.836l-.477-.212zm-10.957 5 .551.131-.189.744-.596.192-.377-.778.611-.289zm25.139.244-.449.076-.842 1.198-1.207.191-.176 1.039.51.119-.147.668-1.197-.24-1.098.24-.234.614.189 1.291.645.302 1.082-.006.73-.064.223-.586 1.141-1.49.754.154.738-.674.139.526 1.82 1.236-.223.301-.82-.045.314.449.506.111.592-.248-.014-.714.264-.133-.213-.227-1.215-.679-.316-.905h.807a19.988 19.988 0 0 0-2.303-2.504zm-23.627 1.522h.914v.279h.201v.481H13.6l-.522-.145.131-.336.67-.279zm1.365.205.479.437-.479.118v-.555zm1.055.672.353.224-.285.237-.281-.237.213-.224zm-2.682.074h.77l-.989 1.387-.406-.219.086-.584.539-.584zm1.237 0h.783v.467l-.348.224-.435.084v-.775zm.972.512h.059l.886.263v.453h-.742l-.203-.294v-.422zm-.365.422v.455l-.332.336h-.742l.117-.51.35-.029.072-.176.535-.076zm23.049 1.929-2.615.205-.811.438h-1.039l-.51-.053-1.26.705v1.326l-2.58 1.869.215.799h.522l-.135.758-.369.137-.022 1.988 2.231 2.551h.968l.061-.154h1.742l.502-.469h.99l.541.547 1.475.154-.195 1.969 1.634 2.902-.861 1.654.059.78.677.681v1.873l.389.526A19.899 19.899 0 0 0 43.982 24a19.99 19.99 0 0 0-1.687-8.045l-.934.092v.73h-.377l-.406-.293-2.068-.525v-1.344z"/><path fill="#fff" opacity=".2" d="M24 4.018A19.938 19.938 0 0 0 4.018 24c0 .168-.004.333 0 .5C4.282 13.663 13.098 5.017 24 5.017s19.718 8.646 19.982 19.482c.004-.167 0-.332 0-.5A19.938 19.938 0 0 0 24 4.02z"/><path fill="#f2f2f2" d="m9.87 38.129 12.364-15.895 1.673 1.673 1.859 1.86z"/><path fill="#f34235" d="M38.129 9.87 22.234 22.235l3.532 3.532z"/><path fill="#fff" opacity=".2" d="M38.129 9.87 9.871 38.13a19.939 19.939 0 0 1 0-28.26 19.939 19.939 0 0 1 28.259 0z"/><path opacity=".2" d="M4.012 24.5c-.004.167-.012.332-.012.5 0 11.08 8.92 20 20 20s20-8.92 20-20c0-.168-.008-.333-.012-.5C43.724 35.346 34.912 44 24 44S4.276 35.346 4.012 24.5z"/></svg>