<svg xmlns="http://www.w3.org/2000/svg" width="48" height="48" version="1"><path style="fill:#3b94f7" d="M24 4A20 20 0 0 0 4 24a20 20 0 0 0 20 20 20 20 0 0 0 20-20A20 20 0 0 0 24 4z"/><path style="opacity:.2" d="M24 13a9 12 0 0 1 9 12 9 12 0 0 1-9 12 9 12 0 0 1-9-12 9 12 0 0 1 9-12z"/><path style="fill:#f4f4f7" d="M24 12a9 12 0 0 1 9 12 9 12 0 0 1-9 12 9 12 0 0 1-9-12 9 12 0 0 1 9-12z"/><path style="opacity:.2;fill:#f4f4f7" d="M24 4C12.954 4 4 12.954 4 24c.006.14.013.279.021.418C4.337 13.608 13.186 5.008 24 5c10.875.01 19.75 8.708 19.978 19.582A20 20 0 0 0 44 24c0-11.046-8.955-20-20-20z"/><path style="opacity:.2;fill:#434343" d="M4.022 24.418c-.01.194-.017.388-.021.582 0 11.046 8.954 20 20 20 11.045 0 20-8.954 20-20-.006-.14-.013-.279-.021-.418C43.665 35.392 34.814 43.994 24 44 13.124 43.99 4.248 35.292 4.02 24.418z"/></svg>