<svg height="48" width="48" xmlns="http://www.w3.org/2000/svg"><path d="m24 4a20 20 0 0 0 -20 20 20 20 0 0 0 20 20 20 20 0 0 0 20-20 20 20 0 0 0 -20-20z" fill="#3b94f7"/><path d="m24 13a9 12 0 0 1 9 12 9 12 0 0 1 -9 12 9 12 0 0 1 -9-12 9 12 0 0 1 9-12z" opacity=".2"/><path d="m24 12a9 12 0 0 1 9 12 9 12 0 0 1 -9 12 9 12 0 0 1 -9-12 9 12 0 0 1 9-12z" fill="#f4f4f7"/><path d="m24 4c-11.046 0-20 8.954-20 20 .006.14.013.279.021.418.316-10.81 9.165-19.41 19.979-19.418 10.875.01 19.75 8.708 19.978 19.582a20 20 0 0 0 .022-.582c0-11.046-8.955-20-20-20z" fill="#f4f4f7" opacity=".2"/><path d="m4.022 24.418c-.01.194-.017.388-.021.582 0 11.046 8.954 20 20 20 11.045 0 20-8.954 20-20-.006-.14-.013-.279-.021-.418-.315 10.81-9.166 19.412-19.98 19.418-10.876-.01-19.752-8.708-19.98-19.582z" fill="#434343" opacity=".2"/></svg>