<svg height="48" width="48" xmlns="http://www.w3.org/2000/svg"><path d="m17.539 7a3.231 3.273 0 0 0 -2.791 1.624l-11.308 19.636a3.231 3.273 0 0 0 .103 3.464l6.461 9.819a3.231 3.273 0 0 0 2.688 1.457h22.616a3.231 3.273 0 0 0 2.688-1.457l6.461-9.819a3.231 3.273 0 0 0 .103-3.464l-11.308-19.636a3.231 3.273 0 0 0 -2.79-1.624z" opacity=".2"/><path d="m17.218 30-.783-.261-5.943 10.802.413.912c.53.357 1.152.547 1.788.547h22.614a3.22 3.22 0 0 0 2.689-1.457l6.461-9.818a3.29 3.29 0 0 0 .355-.725l-.055-.758h-12.905l-.445.758z" fill="#306ed2"/><path d="m17.538 6a3.223 3.223 0 0 0 -2.79 1.623l-11.308 19.637a3.31 3.31 0 0 0 .103 3.465l6.461 9.818c.238.36.544.67.901.91l19.825-35.453z" fill="#05ab5f"/><path d="m17.538 6a3.223 3.223 0 0 0 -2.79 1.623l-11.308 19.637a3.305 3.305 0 0 0 -.399 2.164c.06-.403.19-.8.4-1.164l11.305-19.637a3.223 3.223 0 0 1 2.792-1.623h12.633l.56-1h-13.194z" fill="#f4f4f7" opacity=".2"/><path d="m17.54 7c-.06.001-.12.004-.179.008l13.223 23.992h13.691l.182-.275a3.231 3.273 0 0 0 .496-1.278 3.287 3.287 0 0 0 -.392-1.187l-11.309-19.637a3.224 3.224 0 0 0 -2.791-1.623h-12.922z" opacity=".2"/><path d="m17.538 6c-.059.001-.118.004-.177.008l13.222 23.992h14.229a3.31 3.31 0 0 0 -.252-2.74l-11.307-19.637a3.223 3.223 0 0 0 -2.791-1.623z" fill="#ffbc3b"/><path d="m23.994 18.045-13.089 23.408c.136.09.279.17.427.238l12.94-23.142z" opacity=".2"/><path d="m24.076 17.002a1.778 1.75 0 0 0 -1.612.866l-3.111 5.25-3.11 5.25a1.778 1.75 0 0 0 1.534 2.632h12.8" opacity=".2"/><g fill="#f4f4f7"><path d="m24.076 16.002a1.778 1.75 0 0 0 -1.612.866l-3.111 5.25-3.11 5.25a1.778 1.75 0 0 0 1.534 2.632h12.8"/><path d="m17.538 6a3.231 3.273 0 0 0 -.177.008l.546.992h12.555a3.231 3.273 0 0 1 2.79 1.623l11.308 19.637a3.231 3.273 0 0 1 .399 1.152 3.231 3.273 0 0 0 -.399-2.152l-11.307-19.637a3.231 3.273 0 0 0 -2.791-1.623z" opacity=".2"/></g></svg>