<svg xmlns="http://www.w3.org/2000/svg" width="48" height="48" version="1"><path style="opacity:.2" d="m16 42-4-4H7c-1.662 0-3-1.338-3-3V11c0-1.662 1.338-3 3-3h34c1.662 0 3 1.338 3 3v24c0 1.662-1.338 3-3 3h-5l-4 4z"/><path style="fill:#2c80c2" d="m16 41-4-4H7c-1.662 0-3-1.338-3-3V10c0-1.662 1.338-3 3-3h34c1.662 0 3 1.338 3 3v24c0 1.662-1.338 3-3 3h-5l-4 4z"/><path style="opacity:.5" d="m20 35-4.5-4H10V13h28v18h-6l-4 4z"/><g style="fill:#f8c44e"><path d="M15 16h2v-3h-2zM19 16h2v-3h-2zM23 16h2v-3h-2zM27 16h2v-3h-2zM31 16h2v-3h-2z"/></g><path style="fill:#f4f4f7;opacity:.2" d="M7 7c-1.662 0-3 1.338-3 3v1c0-1.662 1.338-3 3-3h34c1.662 0 3 1.338 3 3v-1c0-1.662-1.338-3-3-3H7z"/><path style="opacity:.2;fill:#f4f4f7" d="M10 31v1h5.5l4.5 4h8l4-4h6v-1h-6l-4 4h-8l-4.5-4z"/></svg>