<svg xmlns="http://www.w3.org/2000/svg" width="48" height="48" version="1"><rect style="fill:#3c6eb4" width="40" height="40" x="4" y="4" rx="2" ry="2"/><path fill="#fff" opacity=".1" d="M6 4c-1.108 0-2 .892-2 2v1c0-1.108.892-2 2-2h36c1.108 0 2 .892 2 2V6c0-1.108-.892-2-2-2H6z"/><path opacity=".2" d="M4 42v1c0 1.108.892 2 2 2h36c1.108 0 2-.892 2-2v-1c0 1.108-.892 2-2 2H6c-1.108 0-2-.892-2-2z"/><path style="opacity:.2" d="M29.879 12c-.147-.008-.382.084-.81.268-.51.219-1.669.396-2.575.396-3.207.065-5.772 1.15-7.851 3.188-2.822 2.786-3.711 6.289-2.424 9.543.297.751.477 1.514.4 1.697-.077.183-.62.69-1.203 1.127-1.267.95-2.144 2.48-2.363 4.125-.132.988-.04 1.46.52 2.635 1.2 2.524 3.924 3.605 6.827 2.71 1.682-.517 3.365-2.357 4.711-5.148 1.163-2.41 1.213-2.468 2.461-2.902 2.105-.732 3.43-1.541 4.748-2.896 2.337-2.403 3.205-5.515 2.368-8.489-.377-1.336-.693-1.797-2.397-3.498-1.08-1.077-2.037-2.169-2.129-2.424-.077-.214-.136-.323-.283-.332zm-5.016 2c1.07.005 1.9.313 2.125.926.074.201-.238 1.15-.697 2.106-1.18 2.46-1.557 3.813-2.27 8.152-.883 5.381-1.848 7.704-3.783 9.102-1.22.88-2.717.956-3.517.18-.692-.673-.893-1.515-.57-2.397.254-.7.502-.811 2.36-1.073C19.806 30.815 21 29.958 21 28.838c0-.704-.581-1.109-1.586-2.123-1.554-1.569-2.233-3.077-2.24-4.978-.011-2.974 1.512-5.503 4.117-6.832 1.19-.608 2.502-.909 3.572-.905zm3.092 2.004c.34-.045.774.311 1.385 1.059 2.414 2.955 2.166 7.427-.555 9.996-1.16 1.095-1.43 1.162-2.234.572-.465-.341-.555-.65-.551-1.898.005-1.912.637-6.594 1.129-8.373.238-.862.486-1.31.826-1.356z"/><path style="fill:#f4f4f7" d="M29.879 11c-.147-.009-.382.083-.81.268-.51.218-1.669.396-2.575.396-3.206.065-5.772 1.149-7.851 3.188-2.822 2.785-3.711 6.288-2.424 9.543.297.75.477 1.514.4 1.697-.077.182-.62.69-1.203 1.127-1.267.949-2.144 2.48-2.363 4.125-.132.988-.04 1.459.52 2.635 1.2 2.524 3.924 3.605 6.827 2.71 1.682-.517 3.365-2.357 4.711-5.148 1.163-2.41 1.213-2.468 2.461-2.902 2.105-.732 3.43-1.542 4.748-2.897 2.337-2.402 3.205-5.514 2.367-8.488-.376-1.336-.692-1.797-2.396-3.498-1.08-1.078-2.037-2.17-2.129-2.424-.077-.215-.136-.323-.283-.332zm-5.016 2c1.07.004 1.9.313 2.125.926.074.2-.238 1.149-.697 2.105-1.18 2.46-1.557 3.813-2.27 8.153-.883 5.381-1.848 7.704-3.783 9.101-1.22.881-2.717.957-3.517.18-.692-.672-.893-1.514-.57-2.397.254-.699.502-.81 2.36-1.072C19.806 29.814 21 28.957 21 27.838c0-.704-.581-1.109-1.586-2.123-1.554-1.57-2.233-3.077-2.24-4.979-.011-2.974 1.512-5.503 4.117-6.832 1.19-.607 2.502-.908 3.572-.904zm3.092 2.004c.34-.046.774.31 1.385 1.059 2.414 2.954 2.166 7.427-.555 9.996-1.16 1.095-1.43 1.162-2.234.572-.465-.341-.555-.65-.551-1.899.005-1.912.637-6.594 1.129-8.373.238-.862.486-1.31.826-1.355z"/></svg>