<svg height="48" width="48" xmlns="http://www.w3.org/2000/svg">
    <path d="M20.5 2A5.488 5.488 0 0 0 15 7.5v1c0 .169.009.335.023.5H7c-2.77 0-5 2.23-5 5v8h2.5a5.506 5.506 0 0 1 3.893 1.608A5.486 5.486 0 0 1 10 27.5a5.507 5.507 0 0 1-1.607 3.893A5.486 5.486 0 0 1 4.5 33H2v8c0 2.77 2.23 5 5 5h8v-2.5a5.507 5.507 0 0 1 1.607-3.892A5.486 5.486 0 0 1 20.5 38a5.506 5.506 0 0 1 3.893 1.608A5.486 5.486 0 0 1 26 43.5V46h8c2.77 0 5-2.23 5-5v-8.023c.165.015.331.023.5.023h1c3.047 0 5.5-2.453 5.5-5.5S43.547 22 40.5 22h-1c-.169 0-.335.008-.5.023V14c0-2.77-2.23-5-5-5h-8.023c.014-.165.023-.331.023-.5v-1C26 4.453 23.547 2 20.5 2z" fill="#4a73c6"/>
    <path d="M20.5 3A4.49 4.49 0 0 0 16 7.5V10H7c-2.216 0-4 1.784-4 4v7h1.5a6.48 6.48 0 0 1 4.6 1.9 6.48 6.48 0 0 1 1.9 4.6 6.481 6.481 0 0 1-1.9 4.6A6.48 6.48 0 0 1 4.5 34H3v7c0 2.216 1.784 4 4 4h7v-1.5a6.48 6.48 0 0 1 1.9-4.6 6.48 6.48 0 0 1 4.6-1.9 6.48 6.48 0 0 1 4.6 1.9 6.48 6.48 0 0 1 1.9 4.6V45h7c2.216 0 4-1.784 4-4v-9h2.5c2.493 0 4.5-2.007 4.5-4.5S42.993 23 40.5 23H38v-9c0-2.216-1.784-4-4-4h-9V7.5A4.49 4.49 0 0 0 20.5 3z" fill="#5ca5ff"/>
</svg>
