<svg height="48" width="48" xmlns="http://www.w3.org/2000/svg">
    <path d="M1 3h46c.554 0 1 .446 1 1v40c0 .554-.446 1-1 1H1c-.554 0-1-.446-1-1V4c0-.554.446-1 1-1z" fill="#363c4d"/>
    <path d="M2 5h44v38H2z" fill="#4b6477"/>
    <path d="M2 10v4h44v-4zm0 8v4h44v-4zm0 8v4h44v-4zm0 8v4h44v-4z" fill="#3c4f5e"/>
    <path d="M4 9v2h6V9zm7 0v2h2V9zm3 0v2h5V9zm6 0v2h2V9zm3 0v2h3V9zm4 0v2h4V9zm5 0v2h8V9zm9 0v2h3V9zM4 12v2h9v-2zm10 0v2h2v-2zm3 0v2h5v-2zm6 0v2h2v-2zm3 0v2h3v-2zm4 0v2h5v-2zm6 0v2h2v-2zm3 0v2h5v-2zM4 15v2h3v-2zm4 0v2h2v-2zm3 0v2h5v-2zm6 0v2h2v-2zm3 0v2h2v-2zm4 0v2h2v-2zm3 0v2h4v-2zm6 0v2h2v-2zm3 0v2h8v-2zM4 18v2h6v-2zm7 0v2h2v-2zm3 0v2h5v-2zm6 0v2h2v-2zm3 0v2h4v-2zm5 0v2h4v-2h-2zm5 0v2h5v-2zm6 0v2h2v-2zm3 0v2h2v-2zM4 21v2h3v-2zm4 0v2h5v-2zm6 0v2h3v-2zm4 0v2h4v-2zm5 0v2h2v-2zm3 0v2h9v-2h-5zm10 0v2h2v-2zm3 0v2h5v-2zM4 24v2h5v-2zm6 0v2h2v-2zm3 0v2h4v-2zm5 0v2h3v-2zm4 0v2h5v-2zm6 0v2h2v-2zm8 0v2h5v-2zm6 0v2h2v-2zM4 27v2h3v-2zm4 0v2h4v-2zm5 0v2h2v-2zm3 0v2h5v-2zm6 0v2h2v-2zm3 0v2h5v-2zm12 0v2h2v-2zm3 0v2h4v-2zM4 30v2h4v-2zm5 0v2h2v-2zm4 0v2h2v-2zm3 0v2h2v-2zm3 0v2h5v-2zm6 0v2h2v-2zm12 0v2h4v-2zm5 0v2h2v-2zM5 33v2h4v-2zm5 0v2h2v-2zm3 0v2h5v-2zm6 0v2h2v-2zm3 0v2h8v-2zM4 36v2h4v-2zm5 0v2h3v-2zm4 0v2h2v-2zm3 0v2h5v-2zm6 0v2h2v-2z" fill="#e8f6ff"/>
    <g fill="#cfcfcf">
        <path d="M29 36h-5v-2h5zM29 30h-2v-2h2z"/>
    </g>
    <g fill="#cfcfcf">
        <path d="M34 24h-3v-2h3zM35 30h-2v-2h2zM35 27h-4v-2h4z"/>
    </g>
    <path d="M32.977 17a1 1 0 0 0-.858.526l-14 26A1 1 0 0 0 19 45h28a1 1 0 0 0 .88-1.474l-14-26a1 1 0 0 0-.903-.526z" fill="#febb58"/>
    <path d="m19 44 14-26 14 26z" fill="#ffd94c"/>
    <path d="M33 42c-1.108 0-2-.892-2-2s.892-2 2-2 2 .892 2 2-.892 2-2 2zm0-6c-1.108 0-2-.892-2-2v-6c0-1.108.892-2 2-2s2 .892 2 2v6c0 1.108-.892 2-2 2z" fill="#906411"/>
</svg>
