<svg height="48" viewBox="0 0 12.7 12.7" width="48" xmlns="http://www.w3.org/2000/svg"><g transform="translate(10.492678 -289.781425)"><path d="m-9.6989277 290.31059h11.1125c.439737 0 .79375.35401.79375.79375v10.05417c0 .43973-.354013.79375-.79375.79375h-11.1125c-.4397373 0-.7937503-.35402-.7937503-.79375v-10.05417c0-.43974.354013-.79375.7937503-.79375z" fill="#a3b7cc"/><path d="m-9.6989277 290.57517h11.1125c.293158 0 .529167.23601.529167.52917v10.05417c0 .29315-.236009.52916-.529167.52916h-11.1125c-.2931583 0-.5291663-.23601-.5291663-.52916v-10.05417c0-.29316.236008-.52917.5291663-.52917z" fill="#f1f1f1"/><path d="m-9.169761 291.63351v1.71979c0 .21987.1770062.39687.396875.39687.2198687 0 .396875-.177.396875-.39687v-1.71979zm1.3229166 0v1.71979c0 .21987.1770063.39687.396875.39687.2198688 0 .396875-.177.396875-.39687v-1.71979zm1.3229167 0v1.71979c0 .21987.1770062.39687.396875.39687.2198687 0 .396875-.177.396875-.39687v-1.71979zm1.3229167 0v1.71979c0 .21987.1770062.39687.396875.39687.2198687 0 .396875-.177.396875-.39687v-1.71979zm1.3229166 0v1.71979c0 .21987.1770063.39687.396875.39687.2198688 0 .396875-.177.396875-.39687v-1.71979zm1.3229167 0v1.71979c0 .21987.1770062.39687.396875.39687s.396875-.177.396875-.39687v-1.71979zm1.3229167 0v1.71979c0 .21987.1770062.39687.396875.39687.2198687 0 .3968753-.177.3968753-.39687v-1.71979zm1.3229163 0v1.71979c0 .21987.177007.39687.396875.39687.219869 0 .396875-.177.396875-.39687v-1.71979z" fill="#ffd84d"/></g></svg>