<svg height="48" width="48" xmlns="http://www.w3.org/2000/svg">
    <rect height="40" opacity=".2" rx="12" width="40" x="4" y="5"/>
    <rect fill="#f4f4f7" height="40" rx="12" width="40" x="4" y="4"/>
    <path d="M16 4C9.352 4 4 9.352 4 16v1C4 10.352 9.352 5 16 5h16c6.648 0 12 5.352 12 12v-1c0-6.648-5.352-12-12-12z" fill="#f4f4f7" opacity=".2"/>
    <path d="M17 12a5 5 0 0 0-5 5 5 5 0 0 0 5 5h14V12z" fill="#3084e9"/>
    <path d="M17 26v10h14a5 5 0 0 0 5-5 5 5 0 0 0-5-5z" fill="#aeaeae"/>
    <path d="M17 12a5 5 0 0 0-5 5 5 5 0 0 0 .027.516A5 5 0 0 1 17 13h14v-1zm0 14v1h14a5 5 0 0 1 4.973 4.484A5 5 0 0 0 36 31a5 5 0 0 0-5-5z" opacity=".1"/>
    <path d="M31 13a5 5 0 0 0-5 5 5 5 0 0 0 5 5 5 5 0 0 0 5-5 5 5 0 0 0-5-5zM17 27a5 5 0 0 0-5 5 5 5 0 0 0 5 5 5 5 0 0 0 5-5 5 5 0 0 0-5-5z" opacity=".2"/>
    <g fill="#f4f4f7">
        <circle cx="31" cy="17" r="5"/>
        <circle cx="17" cy="31" r="5"/>
    </g>
</svg>
