<svg height="48" viewBox="0 0 48 48" width="48" xmlns="http://www.w3.org/2000/svg"><g transform="translate(16 -254.649905)"><path d="m4.4999999 256.64999c-3.047 0-5.5 2.453-5.5 5.5v1c0 .16872.0088.33528.02344.50001h-8.0234391c-2.7700018 0-5.0000008 2.22999-5.0000008 4.99999v8h1.5.5.5c.76175 0 1.486078.154 2.1445316.43164.6584532.27758 1.2509843.67871 1.7480473 1.17578.4970612.49706.8982024 1.08959 1.1757815 1.74805.2775774.65846.43164 1.38278.43164 2.14453 0 .76176-.1540677 1.48608-.43164 2.14454-.2775791.65844-.6787203 1.25097-1.1757815 1.74803-.497063.49707-1.0895941.89821-1.7480473 1.17579-.6584536.27759-1.3827816.43164-2.1445316.43164h-.5-.5-1.5v8.00001c0 2.76999 2.229999 4.99999 5.0000008 4.99999h7.9999991v-1.49999-.50001-.5c0-.76175.154067-1.48608.431641-2.14452.277578-.65846.678719-1.25099 1.175782-1.74805.497061-.49707 1.089594-.89821 1.748046-1.17579.658453-.27757 1.382781-.43164 2.144531-.43164s1.486078.154 2.144531.43164c.658453.27758 1.250986.67872 1.748047 1.17579.497063.49706.898203 1.08959 1.175782 1.74805.277579.65844.43164 1.38277.43164 2.14452v.5.50001 1.49999h8.0000001c2.77 0 5.000001-2.23 5.000001-4.99999v-8.02345c.164729.0152.33132.0234.499999.0234h1c3.047 0 5.5-2.453 5.5-5.5s-2.453-5.5-5.5-5.5h-1c-.168672 0-.335276.008-.499999.0233v-8.02343c0-2.77-2.230001-4.99999-5.000001-4.99999h-8.0234371c.01472-.16466.02344-.33134.02344-.50001v-1c0-3.047-2.4530003-5.5-5.5000003-5.5z" fill="#4a73c6"/><path d="m4.4999999 257.64999c-2.493 0-4.5 2.007-4.5 4.5v2.5h-8.9999997c-2.2160002 0-4.0000002 1.784-4.0000002 4v7h1 .5c.90025 0 1.7569846.18172 2.5351564.50977.7781719.32804 1.4770157.80318 2.0644532 1.39062s1.0625776 1.28628 1.3906246 2.06445c.328047.77818.509766 1.63491.509766 2.53516s-.181719 1.75699-.509766 2.53516-.8031871 1.47701-1.3906246 2.06445-1.2862813 1.06258-2.0644532 1.39062c-.7781718.32805-1.6349064.50977-2.5351564.50977h-.5-1v7c0 2.216 1.784 4 4.0000002 4h6.9999997v-1-.5c0-.90025.181718-1.75699.509766-2.53516.328047-.77817.803187-1.47701 1.390625-2.06445s1.286281-1.06258 2.064453-1.39062c.778171-.32805 1.634907-.50977 2.535156-.50977.900253 0 1.756984.18172 2.535156.50977.778173.32804 1.477017.80318 2.064453 1.39062.587437.58744 1.0625791 1.28628 1.3906251 2.06445s.509766 1.63491.509766 2.53516v.5 1h7c2.216 0 4-1.784 4-4v-9h2.5c2.493 0 4.5-2.007 4.5-4.5s-2.007-4.5-4.5-4.5h-2.5v-9c0-2.216-1.784-4-4-4h-9.0000001v-2.5c0-2.493-2.007-4.5-4.5-4.5z" fill="#5ca5ff"/></g></svg>