<svg xmlns="http://www.w3.org/2000/svg" width="48" height="48"><rect style="opacity:.2" width="40" height="40" x="4" y="5" rx="5" ry="5"/><rect style="fill:#2e4153" width="40" height="40" x="4" y="4" rx="5" ry="5"/><path style="opacity:.2" d="M15.02 12c-1.846 0-3.005.469-3.493 1.408-.243.487-.405.924-.474 1.307-.035.383-.053.979-.053 1.78V45h9v-8.418c1.288 1.601 3.292 2.403 6.146 2.403 2.855 0 5.535-1.34 8.042-4.02 2.54-2.68 3.812-5.993 3.812-9.543 0-3.55-1.271-6.672-3.813-9.352-2.54-2.68-5.237-4.017-8.091-4.017-2.82 0-4.773.903-6.096 2.713-.104-.905-.61-1.58-1.271-2.032-.627-.487-1.864-.734-3.71-.734zm9.406 9c1.368 0 2.468.473 3.31 1.42.842.912 1.264 1.952 1.264 3.11 0 1.157-.455 2.19-1.367 3.103-.877.912-1.97 1.367-3.268 1.367-1.263 0-2.312-.455-3.154-1.367-.807-.947-1.211-1.981-1.211-3.104 0-1.122.404-2.162 1.21-3.11.808-.946 1.883-1.419 3.216-1.419z"/><path style="fill:#f4f4f7" d="M15.02 11c-1.846 0-3.005.469-3.493 1.408-.243.487-.405.924-.474 1.307-.035.383-.053.979-.053 1.78V44h9v-8.418c1.288 1.601 3.292 2.403 6.146 2.403 2.855 0 5.535-1.34 8.042-4.02 2.54-2.68 3.812-5.993 3.812-9.543 0-3.55-1.271-6.672-3.813-9.352-2.54-2.68-5.237-4.017-8.091-4.017-2.82 0-4.773.903-6.096 2.713-.104-.905-.61-1.58-1.271-2.032-.627-.487-1.864-.734-3.71-.734zm9.406 9c1.368 0 2.468.473 3.31 1.42.842.912 1.264 1.952 1.264 3.11 0 1.157-.455 2.19-1.367 3.103-.877.912-1.97 1.367-3.268 1.367-1.263 0-2.312-.455-3.154-1.367-.807-.947-1.211-1.981-1.211-3.104 0-1.122.404-2.162 1.21-3.11.808-.946 1.883-1.419 3.216-1.419z"/><path style="opacity:.1;fill:#f4f4f7" d="M9 4C6.23 4 4 6.23 4 9v1c0-2.77 2.23-5 5-5h30c2.77 0 5 2.23 5 5V9c0-2.77-2.23-5-5-5H9z"/></svg>