<svg height="48" width="48" xmlns="http://www.w3.org/2000/svg"><rect height="40" opacity=".2" rx="20" width="40" x="4" y="5"/><rect fill="#56b366" height="40" rx="20" width="40" x="4" y="4"/><path d="m24 4c-11.08 0-20 8.92-20 20 0 .168.008.333.012.5a19.952 19.952 0 0 1 19.988-19.5 19.952 19.952 0 0 1 19.988 19.5c.004-.167.012-.332.012-.5 0-11.08-8.92-20-20-20z" fill="#f4f4f7" opacity=".2"/><path d="m25 35-11-14 17-5z" fill="none" opacity=".2" stroke="#000" stroke-width="2"/><path d="m25 34-11-14 17-5z" fill="none" stroke="#f4f4f7" stroke-width="2"/><path d="m31 13a3 3 0 0 0 -3 3 3 3 0 0 0 3 3 3 3 0 0 0 3-3 3 3 0 0 0 -3-3zm-17 5a3 3 0 0 0 -3 3 3 3 0 0 0 3 3 3 3 0 0 0 3-3 3 3 0 0 0 -3-3zm11 14a3 3 0 0 0 -3 3 3 3 0 0 0 3 3 3 3 0 0 0 3-3 3 3 0 0 0 -3-3z" opacity=".2"/><g fill="#f4f4f7"><circle cx="14" cy="20" r="3"/><circle cx="31" cy="15" r="3"/><circle cx="25" cy="34" r="3"/></g></svg>