<svg xmlns="http://www.w3.org/2000/svg" width="48" height="48" version="1">
    <rect fill="#f4f4f7" width="40" height="40" x="4" y="4" rx="2" ry="2"/>
    <path fill="#fff" opacity=".2" d="M6 4c-1.108 0-2 .892-2 2v1c0-1.108.892-2 2-2h36c1.108 0 2 .892 2 2V6c0-1.108-.892-2-2-2H6z"/>
    <path opacity=".2" d="M6 45c-1.108 0-2-.892-2-2v-1c0 1.108.892 2 2 2h36c1.108 0 2-.892 2-2v1c0 1.108-.892 2-2 2H6z"/>
    <path fill="#474747" d="M24 14a5.465 5.465 0 0 0-3.875 1.625A5.442 5.442 0 0 0 18.531 19H12v13h11v1.5h1v-4h-1V31H13V20h5.531a5.442 5.442 0 0 0 1.594 3.375 5.466 5.466 0 0 0 7.75 0A5.442 5.442 0 0 0 29.469 20H35v11h-9v-3h-1v7h1v-3h10V19h-6.531a5.442 5.442 0 0 0-1.594-3.375A5.465 5.465 0 0 0 24 14zm0 1.031c.983 0 1.963.316 2.781.969L24 18.781 21.219 16A4.434 4.434 0 0 1 24 15.031zm-3.5 1.688 2.781 2.781-2.781 2.781a4.442 4.442 0 0 1 0-5.563zm7 0a4.442 4.442 0 0 1 0 5.563l-2.781-2.781L27.5 16.72zm-3.5 3.5L26.781 23a4.442 4.442 0 0 1-5.563 0l2.781-2.781z"/>
</svg>
