<svg height="48" width="48" xmlns="http://www.w3.org/2000/svg"><path d="m6 5c-1.108 0-2 .892-2 2v16h18v-18zm20 0v18h18v-16c0-1.108-.892-2-2-2zm-22 22v16c0 1.108.892 2 2 2h16v-18zm22 0v18h16c1.108 0 2-.892 2-2v-16z" opacity=".2"/><path d="m6 4c-1.108 0-2 .892-2 2v16h18v-18zm20 0v18h18v-16c0-1.108-.892-2-2-2zm-22 22v16c0 1.108.892 2 2 2h16v-18zm22 0v18h16c1.108 0 2-.892 2-2v-16z" fill="#84c22e"/><path d="m14 13c-1.108 0-2 .892-2 2v17c0 1.108.892 2 2 2h20c1.108 0 2-.892 2-2v-14c0-1.108-.892-2-2-2h-12v-1c0-1.108-.892-2-2-2z" opacity=".2"/><g fill="#f4f4f7"><rect height="18" rx="2" width="24" x="12" y="15"/><rect height="7" rx="2" width="10" x="12" y="12"/><path d="m6 4c-1.108 0-2 .892-2 2v1c0-1.108.892-2 2-2h16v-1zm20 0v1h16c1.108 0 2 .892 2 2v-1c0-1.108-.892-2-2-2zm-22 22v1h18v-1zm22 0v1h18v-1z" opacity=".2"/></g></svg>