<svg height="48" width="48" xmlns="http://www.w3.org/2000/svg"><circle cx="24" cy="25" opacity=".2" r="20"/><circle cx="24" cy="24" fill="#86c14d" r="20"/><path d="m19 14.11a12 12 0 0 0 -7 10.89 12 12 0 0 0 12 12 12 12 0 0 0 12-12 12 12 0 0 0 -7-10.883v.235a10 10 0 0 1 5 8.648 10 10 0 0 1 -10 10 10 10 0 0 1 -10-10 10 10 0 0 1 5-8.645z" opacity=".1"/><path d="m19 13.11a12 12 0 0 0 -7 10.89 12 12 0 0 0 12 12 12 12 0 0 0 12-12 12 12 0 0 0 -7-10.883v.235a10 10 0 0 1 5 8.648 10 10 0 0 1 -10 10 10 10 0 0 1 -10-10 10 10 0 0 1 5-8.645z" fill="#17191e"/><path d="m22 32v9l2 6 2-6v-9l-2-6z" opacity=".2"/><path d="m22 31v9l2 6 2-6v-9l-2-6z" fill="#17191e"/><path d="m24 4a20 20 0 0 0 -20 20 20 20 0 0 0 .021.582 20 20 0 0 1 19.979-19.582 20 20 0 0 1 19.979 19.418 20 20 0 0 0 .021-.418 20 20 0 0 0 -20-20z" fill="#f4f4f7" opacity=".1"/></svg>