<svg height="48" width="48" xmlns="http://www.w3.org/2000/svg">
    <circle cx="24" cy="25" opacity=".2" r="20"/>
    <path d="M24 4a20 20 0 0 1 20 20H24z" fill="#196260"/>
    <path d="M24 44A20 20 0 0 1 4 24h20z" fill="#97c33d"/>
    <path d="m4 24 4 3 4-3zM24 4A20 20 0 0 0 4 24h20z" fill="#5d7dbd"/>
    <path d="m44 24-4-3-4 3zM24 44a20 20 0 0 0 20-20H24z" fill="#3f96b9"/>
    <path d="m24 44 3-4-3-4z" fill="#97c33d"/>
    <path d="m24 4-3 4 3 4z" fill="#196260"/>
    <circle cx="24" cy="25" opacity=".2" r="12"/>
    <circle cx="24" cy="24" fill="#f9f9f9" r="12"/>
    <path d="M24 4A20 20 0 0 0 4 24a20 20 0 0 0 .021.582A20 20 0 0 1 24 5a20 20 0 0 1 19.979 19.418A20 20 0 0 0 44 24 20 20 0 0 0 24 4z" fill="#f4f4f7" opacity=".1"/>
</svg>
