<svg xmlns="http://www.w3.org/2000/svg" width="48" height="48"><circle style="opacity:.2" cx="24" cy="25" r="20"/><path style="fill:#196260" d="M24 4a20 20 0 0 1 20 20H24z"/><path style="fill:#97c33d" d="M24 44A20 20 0 0 1 4 24h20z"/><path style="fill:#5d7dbd" d="m4 24 4 3 4-3zM24 4A20 20 0 0 0 4 24h20z"/><path style="fill:#3f96b9" d="m44 24-4-3-4 3zM24 44a20 20 0 0 0 20-20H24z"/><path style="fill:#97c33d" d="m24 44 3-4-3-4z"/><path style="fill:#196260" d="m24 4-3 4 3 4z"/><circle style="opacity:.2" cx="24" cy="25" r="12"/><circle style="fill:#f9f9f9" cx="24" cy="24" r="12"/><path style="opacity:.1;fill:#f4f4f7" d="M24 4A20 20 0 0 0 4 24a20 20 0 0 0 .021.582A20 20 0 0 1 24 5a20 20 0 0 1 19.979 19.418A20 20 0 0 0 44 24 20 20 0 0 0 24 4z"/></svg>