<svg xmlns="http://www.w3.org/2000/svg" width="48" height="48" xml:space="preserve"><circle style="opacity:.2" cx="24" cy="25" r="20"/><path style="fill:#3e5ba9" d="M24 4a20 20 0 0 0-6.766 1.2c11.447 7.443 17.486 18.708 22.352 31.304A20 20 0 0 0 44 24 20 20 0 0 0 24 4z"/><path style="fill:#d82b2f" d="M11.14 8.709A20 20 0 0 0 4 24a20 20 0 0 0 4.963 13.164l.723-1.416 4.49 2.295c.371 1.35.447 2.508.289 3.516A20 20 0 0 0 24 44a20 20 0 0 0 9.838-2.615C32.11 29.586 23.675 15.545 11.14 8.709z"/><path style="opacity:.2" d="M17.465 6.123a20 20 0 0 0-6.584 3.814c3.643 1.773 7.18 4.508 10.254 7.82-4.339 4.36-9.494 12.237-12.225 20.33a20 20 0 0 0 5.639 4.53c1.588-7.497 5.97-15.688 10.271-20.324 4.02 5.639 7.206 12.642 8.862 20.181a20 20 0 0 0 6.072-5.191C36 24.473 25.505 10.482 17.464 6.123z"/><path style="fill:#f4f4f7" d="M17.465 5.123a20 20 0 0 0-6.584 3.814c3.643 1.773 7.18 4.508 10.254 7.82-4.339 4.36-9.494 12.237-12.225 20.33a20 20 0 0 0 5.639 4.53c1.588-7.496 5.97-15.688 10.271-20.324 4.02 5.639 7.206 12.642 8.862 20.182a20 20 0 0 0 6.072-5.192C36 23.474 25.505 9.482 17.464 5.123z"/><path style="opacity:.1;fill:#f4f4f7" d="M24 4A20 20 0 0 0 4 24a20 20 0 0 0 .021.582A20 20 0 0 1 24 5a20 20 0 0 1 19.979 19.418A20 20 0 0 0 44 24 20 20 0 0 0 24 4z"/></svg>