<svg xmlns="http://www.w3.org/2000/svg" width="48" height="48"><path style="opacity:.2" d="M21.278 5.007a1.178 1.178 0 0 0-.31.006c-.831.126-1.364 1.12-1.196 2.227l.04.275a18 18 0 0 0-3.472 1.217l-.139-.24c-.56-.97-1.597-1.413-2.324-.992-.727.42-.861 1.54-.3 2.51l.14.242a18 18 0 0 0-3.248 2.898l-.219-.162c-.902-.664-2.03-.653-2.527.023-.498.677-.173 1.754.728 2.418l.227.168a18 18 0 0 0-1.594 3.317l-.27-.072c-1.082-.29-2.129.131-2.345.943-.217.812.48 1.696 1.562 1.984l.266.07A18 18 0 0 0 6 25a18 18 0 0 0 .043 1.191l-.258.04c-1.107.167-1.897.972-1.771 1.802.126.83 1.119 1.364 2.226 1.196l.276-.041a18 18 0 0 0 1.217 3.472l-.24.139c-.97.56-1.414 1.597-.993 2.324.42.727 1.54.862 2.51.301l.242-.14a18 18 0 0 0 2.899 3.248l-.163.218c-.664.902-.652 2.03.024 2.528.676.498 1.754.173 2.418-.729l.168-.226a18 18 0 0 0 3.316 1.593l-.072.27c-.289 1.082.132 2.129.944 2.346.811.216 1.695-.48 1.984-1.563l.07-.265A18 18 0 0 0 24 43a18 18 0 0 0 1.192-.043l.039.258c.168 1.108.972 1.898 1.803 1.772.83-.126 1.363-1.12 1.195-2.227l-.04-.275a18 18 0 0 0 3.472-1.217l.138.24c.561.97 1.598 1.413 2.325.992.727-.42.861-1.54.3-2.51l-.14-.242a18 18 0 0 0 3.248-2.898l.219.162c.902.664 2.03.653 2.527-.023.498-.677.173-1.754-.728-2.418l-.227-.168a18 18 0 0 0 1.594-3.317l.27.072c1.081.29 2.128-.131 2.345-.943.217-.812-.48-1.696-1.562-1.984l-.266-.07A18 18 0 0 0 42.001 25a18 18 0 0 0-.043-1.191l.258-.04c1.107-.167 1.897-.972 1.771-1.802-.126-.83-1.119-1.364-2.226-1.196l-.276.041a18 18 0 0 0-1.217-3.472l.24-.139c.97-.56 1.413-1.597.993-2.324-.42-.727-1.54-.862-2.51-.301l-.242.14a18 18 0 0 0-2.899-3.248l.162-.218c.665-.902.653-2.03-.023-2.528-.676-.498-1.754-.173-2.418.729l-.168.226a18 18 0 0 0-3.316-1.593l.072-.27c.289-1.082-.132-2.129-.944-2.346-.811-.216-1.695.48-1.984 1.563l-.07.265A18 18 0 0 0 24 7a18 18 0 0 0-1.192.043l-.039-.258c-.147-.97-.78-1.696-1.492-1.778z"/><path style="fill:#4f4f4f" d="M20.968 4.013c-.83.126-1.364 1.119-1.196 2.226l1.527 10.064-5.097-8.811c-.56-.97-1.598-1.412-2.325-.991-.727.42-.86 1.54-.3 2.51l5.473 9.46-8.8-6.482c-.903-.664-2.03-.654-2.527.022-.499.676-.174 1.755.728 2.42l8.198 6.038-9.835-2.627c-1.082-.29-2.128.13-2.345.942-.217.812.48 1.697 1.561 1.986l10.562 2.82-10.808 1.64c-1.107.168-1.897.972-1.77 1.802.125.83 1.118 1.364 2.225 1.196l10.064-1.527-8.811 5.097c-.97.56-1.412 1.598-.991 2.325.42.727 1.54.86 2.51.3l9.46-5.473-6.482 8.8c-.664.903-.654 2.03.022 2.527.676.499 1.755.174 2.42-.728l6.038-8.198-2.627 9.835c-.29 1.082.13 2.128.942 2.345.812.217 1.697-.48 1.986-1.561l2.82-10.562 1.64 10.808c.168 1.107.972 1.897 1.802 1.77.83-.125 1.364-1.118 1.196-2.225l-1.527-10.064 5.097 8.811c.56.97 1.598 1.412 2.325.991.727-.42.86-1.54.3-2.51l-5.473-9.46 8.8 6.482c.903.664 2.03.654 2.527-.022.499-.676.174-1.755-.728-2.42l-8.198-6.038 9.835 2.627c1.082.29 2.128-.13 2.345-.942.217-.812-.48-1.697-1.561-1.986l-10.562-2.82 10.808-1.64c1.107-.168 1.897-.972 1.77-1.802-.125-.83-1.118-1.364-2.225-1.196l-10.064 1.527 8.811-5.097c.97-.56 1.412-1.598.991-2.325-.42-.727-1.54-.86-2.51-.3l-9.46 5.473 6.482-8.8c.664-.903.654-2.03-.022-2.527-.676-.499-1.755-.174-2.42.728l-6.038 8.198 2.627-9.835c.29-1.082-.13-2.128-.942-2.345-.812-.217-1.697.48-1.986 1.561l-2.82 10.562-1.64-10.808c-.168-1.107-.972-1.897-1.802-1.77z"/><circle style="fill:#4f4f4f" cx="24" cy="24" r="18"/><circle style="opacity:.3" cx="24" cy="24" r="12"/><circle style="opacity:.2" cx="24" cy="25" r="9"/><circle style="fill:#797979" cx="24" cy="24" r="9"/><path style="opacity:.2" d="m26 11-1.207 11H32L22 39l1.484-12H16z"/><path style="fill:#ff8602" d="m26 10-1.207 11H32L22 38l1.484-12H16z"/><path style="opacity:.2;fill:#f4f4f7" d="M26 10 16 26h.625l9.242-14.787L26 10zm-1.098 11-.109 1h6.62L32 21h-7.098zm-1.54 6L22 38l.156-.266L23.484 27h-.123z"/><path style="opacity:.1;fill:#f4f4f7" d="M21.277 4.008a1.178 1.178 0 0 0-.31.006c-.83.126-1.364 1.119-1.196 2.226l.02.125c.137-.713.575-1.26 1.176-1.351.104-.016.209-.018.31-.006.713.082 1.346.808 1.493 1.777l.039.258A18 18 0 0 1 24 7a18 18 0 0 1 3.16.297l.07-.266c.29-1.082 1.173-1.779 1.985-1.562.5.133.85.583.978 1.16.197-1.013-.213-1.956-.978-2.16-.812-.217-1.696.48-1.985 1.562l-.07.266A18 18 0 0 0 24 6a18 18 0 0 0-1.191.043l-.04-.258c-.146-.969-.78-1.695-1.492-1.777zM14.47 6.342a1.2 1.2 0 0 0-.592.158c-.554.32-.76 1.048-.58 1.805.093-.345.284-.634.58-.805.727-.42 1.763.023 2.324.992l.139.24a18 18 0 0 1 3.473-1.216l-.042-.276a2.618 2.618 0 0 1-.007-.71 18 18 0 0 0-3.424 1.202l-.139-.24c-.42-.727-1.108-1.158-1.732-1.15zm15.775.803c0 .217-.025.442-.086.67l-.072.269a18 18 0 0 1 3.316 1.594l.168-.227c.664-.902 1.742-1.226 2.418-.728.218.16.36.39.44.652.17-.663.028-1.308-.44-1.652-.676-.498-1.754-.174-2.418.728l-.168.227a18 18 0 0 0-3.158-1.533zm-16.88 2.38a18 18 0 0 0-2.895 2.625l-.219-.162c-.902-.664-2.03-.653-2.527.024-.258.35-.292.807-.143 1.26.037-.092.083-.18.143-.26.498-.677 1.625-.688 2.527-.024l.219.162a18 18 0 0 1 3.248-2.898l-.14-.242a2.64 2.64 0 0 1-.214-.485zm22.894 1.317a2.676 2.676 0 0 1-.246.408l-.162.219a18 18 0 0 1 2.898 3.248l.242-.14c.97-.562 2.09-.427 2.51.3.024.042.036.087.055.13.142-.39.14-.793-.055-1.13-.42-.727-1.54-.862-2.51-.3l-.242.14a18 18 0 0 0-2.49-2.875zM8.295 15.295a18 18 0 0 0-1.211 2.62l-.27-.073c-1.082-.29-2.129.132-2.345.943-.073.273-.035.551.078.815.318-.685 1.274-1.024 2.267-.758l.27.072a18 18 0 0 1 1.594-3.316l-.227-.168c-.057-.042-.104-.09-.156-.135zm32.303 1.846c-.031.02-.058.042-.09.06l-.24.139a18 18 0 0 1 1.216 3.473l.276-.042c.954-.144 1.822.233 2.125.872.095-.216.137-.8b9cbe.101-.676-.126-.83-1.119-1.364-2.226-1.196l-.276.041a18 18 0 0 0-.886-2.671zm-34.43 4.666A18 18 0 0 0 6 24a18 18 0 0 0 .02.549 18 18 0 0 1 .277-2.71l-.129-.032zm35.824 1.996-.035.006a18 18 0 0 1 .023.65A18 18 0 0 0 42 24a18 18 0 0 0-.008-.197zM6.008 25.197l-.223.033c-1.107.168-1.897.973-1.771 1.803.017.115.055.222.103.324.245-.552.871-1.006 1.668-1.127l.258-.039a18 18 0 0 1-.035-.994zm35.824 1.996a18 18 0 0 1-.129.967l.266.07c.72.193 1.263.65 1.486 1.172.029-.06.058-.12.076-.187.217-.812-.48-1.696-1.562-1.985l-.137-.037zM7.404 31.86c-.85.538-1.25 1.44-.959 2.131.166-.453.528-.89 1.047-1.191l.24-.139a18 18 0 0 1-.328-.8zm32.301 1.846a18 18 0 0 1-.383.697l.227.168c.434.32.732.738.87 1.159.25-.622-.037-1.44-.714-2.024zm-27.96 4.455c-.249.506-.303 1.034-.17 1.467.076-.297.208-.598.413-.877l.162-.219a18 18 0 0 1-.406-.37zm22.892 1.315a18 18 0 0 1-.354.273l.14.242c.133.23.226.467.282.701.097-.364.076-.79-.068-1.216zm-16.88 2.379c0 .18.013.354.05.517.012-.062.018-.123.035-.185l.072-.27a18 18 0 0 1-.156-.062zm10.48.617a18 18 0 0 1-.05.013l.024.157c.01-.056.018-.113.025-.17z"/></svg>