<svg xmlns="http://www.w3.org/2000/svg" width="48" height="48"><path fill="#008295" d="M10 4c-1.108 0-2 .892-2 2v36c0 1.108.892 2 2 2h28c1.108 0 2-.892 2-2V6c0-1.108-.892-2-2-2H10z"/><path opacity=".2" d="M10 4c-1.108 0-2 .892-2 2v36c0 1.108.892 2 2 2h3.978V4h-3.977z"/><path fill="#fff" opacity=".2" d="M10 4c-1.108 0-2 .892-2 2v1c0-1.108.892-2 2-2h28c1.108 0 2 .892 2 2V6c0-1.108-.892-2-2-2H10z"/><path opacity=".2" d="M8 42v1c0 1.108.892 2 2 2h28c1.108 0 2-.892 2-2v-1c0 1.108-.892 2-2 2H10c-1.108 0-2-.892-2-2z"/><path fill-rule="evenodd" opacity=".2" d="M25.879 15.059C20.89 15.618 17 19.858 17 24.997 17 30.514 21.484 35 26.999 35 32.515 35 37 30.514 37 24.997c0-5.065-3.783-9.251-8.669-9.906 0 0-1.365-.18-2.452-.032zm.455 1.352v3.367a18.105 18.105 0 0 1-2.712-.294c.127-.297.26-.584.405-.845.668-1.202 1.474-1.953 2.307-2.228zm1.428.056c.075.012.151.021.226.035.752.33 1.475 1.044 2.082 2.138.143.256.273.536.398.827-.84.164-1.752.27-2.706.308zm-4.392.57c-.21.285-.411.584-.591.909-.208.374-.393.778-.564 1.2-.46-.135-.888-.288-1.279-.456a8.733 8.733 0 0 1 2.434-1.654zm7.596.334c.843.262 1.488.797 2.096 1.319-.365.157-.762.302-1.19.431-.168-.413-.35-.81-.552-1.175a8.62 8.62 0 0 0-.353-.575zm-10.935 2.343c.015.054-.025-.072-.006-.017.515.24 1.128.625 1.732.806a15.932 15.932 0 0 0-.558 3.64h-2.906a8.702 8.702 0 0 1 1.738-4.429zm13.946.012a8.7 8.7 0 0 1 1.728 4.417H32.9a15.92 15.92 0 0 0-.565-3.666c.57-.175 1.139-.508 1.629-.736.021-.05-.004.035.014-.015zm-3.03 1.104c.285 1 .469 2.12.522 3.313h-3.707v-2.94a19.188 19.188 0 0 0 3.186-.373zm-7.803.02c.993.202 2.067.321 3.19.357v2.936h-3.706c.053-1.184.235-2.297.516-3.292zm-4.865 4.722h2.919c.053 1.332.255 2.592.583 3.734-.642.083-1.747.733-1.804.765-1.123-1.371-1.576-2.617-1.698-4.5zm4.349 0h3.706v3.036a19.294 19.294 0 0 0-3.165.35 14.547 14.547 0 0 1-.541-3.387zm5.134 0h3.707a14.538 14.538 0 0 1-.547 3.407 19.203 19.203 0 0 0-3.16-.368zm5.137 0h2.82c-.112 1.73-.623 3.219-1.593 4.529-.454-.286-1.282-.585-1.817-.77.332-1.148.536-2.417.59-3.76zm-6.565 4.465v3.265c-.832-.276-1.64-1.023-2.307-2.226a8.76 8.76 0 0 1-.365-.752 18.132 18.132 0 0 1 2.672-.288zm1.428.003c.94.037 1.838.14 2.668.3a8.966 8.966 0 0 1-.36.736c-.668 1.203-1.475 1.95-2.308 2.226zm-5.51.618c.161.389.334.765.526 1.112.273.49.584.937.924 1.334a8.742 8.742 0 0 1-2.9-1.922 11.18 11.18 0 0 1 1.45-.524zm9.583.025c.493.147.95.315 1.361.5a8.748 8.748 0 0 1-2.744 1.86c.318-.382.609-.809.867-1.273.188-.34.357-.707.516-1.087z"/><path fill="#fff" fill-rule="evenodd" d="M25.879 14.059c-4.989.56-8.879 4.8-8.879 9.938C17 29.514 21.484 34 26.999 34 32.515 34 37 29.514 37 23.997c0-5.065-3.783-9.251-8.669-9.906 0 0-1.365-.18-2.452-.032zm.455 1.352v3.367a18.105 18.105 0 0 1-2.712-.294c.127-.297.26-.584.405-.845.668-1.202 1.474-1.953 2.307-2.228zm1.428.056c.075.012.151.021.226.035.752.33 1.475 1.044 2.082 2.137.143.257.273.537.398.828-.84.164-1.752.27-2.706.308zm-4.392.57c-.21.285-.411.584-.591.909-.208.374-.393.778-.564 1.2-.46-.135-.888-.288-1.279-.456a8.733 8.733 0 0 1 2.434-1.654zm7.596.334c.843.262 1.488.797 2.096 1.319-.365.157-.762.302-1.19.431-.168-.413-.35-.81-.552-1.175a8.62 8.62 0 0 0-.353-.575zm-10.935 2.343c.015.054-.025-.072-.006-.017.515.24 1.128.625 1.732.806a15.932 15.932 0 0 0-.558 3.64h-2.906a8.702 8.702 0 0 1 1.738-4.429zm13.946.012a8.7 8.7 0 0 1 1.728 4.417H32.9a15.92 15.92 0 0 0-.565-3.666c.57-.175 1.139-.508 1.629-.736.021-.05-.004.035.014-.015zm-3.03 1.104c.285 1 .469 2.12.522 3.313h-3.707v-2.94a19.188 19.188 0 0 0 3.186-.373zm-7.803.021c.993.2 2.067.32 3.19.356v2.936h-3.706c.053-1.184.235-2.297.516-3.292zm-4.865 4.72h2.919c.053 1.333.255 2.593.583 3.735-.642.083-1.747.733-1.804.765-1.123-1.371-1.576-2.617-1.698-4.5zm4.349 0h3.706v3.037a19.294 19.294 0 0 0-3.165.35 14.547 14.547 0 0 1-.541-3.387zm5.134 0h3.707a14.538 14.538 0 0 1-.547 3.408 19.203 19.203 0 0 0-3.16-.368zm5.137 0h2.82c-.112 1.73-.623 3.22-1.593 4.53-.454-.286-1.282-.585-1.817-.77.332-1.148.536-2.417.59-3.76zm-6.565 4.466v3.265c-.832-.276-1.64-1.023-2.307-2.226a8.76 8.76 0 0 1-.365-.752 18.132 18.132 0 0 1 2.672-.287zm1.428.003c.94.037 1.838.14 2.668.3a8.966 8.966 0 0 1-.36.736c-.668 1.203-1.475 1.95-2.308 2.226zm-5.51.618c.161.389.334.765.526 1.112.273.49.584.937.924 1.334a8.742 8.742 0 0 1-2.9-1.922 11.18 11.18 0 0 1 1.45-.524zm9.583.025c.493.147.95.315 1.361.5a8.748 8.748 0 0 1-2.744 1.86c.318-.382.609-.809.867-1.273.188-.34.357-.707.516-1.087z"/></svg>