<svg height="64" width="64" xmlns="http://www.w3.org/2000/svg">
    <filter id="a" color-interpolation-filters="sRGB" height="1.054" width="1.054" x="-.027" y="-.027">
        <feGaussianBlur stdDeviation=".619"/>
    </filter>
    <linearGradient id="b" gradientUnits="userSpaceOnUse" x1="4.5" x2="59.5" y1="59.49" y2="4.49">
        <stop offset="0" stop-color="#32d7ff"/>
        <stop offset="1" stop-color="#329bff"/>
    </linearGradient>
    <rect fill="#141414" filter="url(#a)" height="55" opacity=".3" ry="15" width="55" x="4.5" y="4.5"/>
    <rect fill="url(#b)" height="55" ry="15" width="55" x="4.5" y="4.5"/>
    <g fill="#fff">
        <path d="M22.732 21.235v4.78l4.65 3.098-4.65 3.1v4.779l11.817-7.879zM40.831 42.832v-4.779l-4.649-3.1 4.65-3.098v-4.78l-11.818 7.879z"/>
        <path d="M45.718 24.01A15.796 15.796 0 0 1 47.876 32c0 8.768-7.108 15.876-15.876 15.876-5.164 0-9.751-2.468-12.65-6.286l-3.43 2.286C19.566 48.801 25.416 52 32 52c11.028 0 20-8.972 20-20 0-3.756-1.042-7.272-2.85-10.278zM16.124 32c0-8.768 7.108-15.876 15.876-15.876 5.115 0 9.661 2.422 12.565 6.178l3.433-2.289C44.347 15.151 38.535 12 32 12c-11.028 0-20 8.972-20 20 0 3.706 1.017 7.178 2.781 10.157l3.433-2.288A15.795 15.795 0 0 1 16.124 32z"/>
    </g>
</svg>
