<svg xmlns="http://www.w3.org/2000/svg" width="48" height="48"><path style="opacity:.2" d="M24 5C12.965 5 4 13.965 4 25s8.965 20 20 20 20-8.965 20-20S35.035 5 24 5z"/><path style="fill:#4f4f4f" d="M24 4C12.965 4 4 12.965 4 24s8.965 20 20 20 20-8.965 20-20S35.035 4 24 4z"/><path style="opacity:.1;fill:#f4f4f7" d="M24 4C12.965 4 4 12.965 4 24c0 .168.008.333.012.5C4.279 13.696 13.132 5 24 5c10.867 0 19.721 8.696 19.988 19.5.004-.167.012-.332.012-.5 0-11.035-8.965-20-20-20z"/><path style="opacity:.2" d="M24 9C15.172 9 8 16.172 8 25s7.172 16 16 16 16-7.172 16-16S32.828 9 24 9z"/><path style="fill:#6e6eee" d="M24 8C15.172 8 8 15.172 8 24s7.172 16 16 16 16-7.172 16-16S32.828 8 24 8z"/><path style="fill:#994a8a" d="M24 8C15.172 8 8 15.172 8 24h16V8z"/><path style="fill:#f4f4f7;opacity:.1" d="M24 8C15.172 8 8 15.172 8 24c0 .169.02.332.025.5C8.292 15.905 15.341 9 24 9c8.66 0 15.708 6.905 15.975 15.5.005-.168.025-.331.025-.5 0-8.828-7.172-16-16-16z"/><path style="opacity:.1" d="M24 21c-2.207 0-4 1.793-4 4s1.793 4 4 4 4-1.793 4-4-1.793-4-4-4z"/><path style="fill:none;stroke:#f4f4f7;stroke-width:4;stroke-linecap:round;stroke-linejoin:round" d="M24 4v20"/><path style="fill:#4f4f4f" d="M24 20c-2.207 0-4 1.793-4 4s1.793 4 4 4 4-1.793 4-4-1.793-4-4-4z"/></svg>