<svg xmlns="http://www.w3.org/2000/svg" width="48" height="48" version="1"><circle style="opacity:.2" cx="24" cy="25" r="20"/><circle style="fill:#17191e" cx="24" cy="24" r="20"/><path style="opacity:.1;fill:#f4f4f7" d="M24 4A20 20 0 0 0 4 24a20 20 0 0 0 .021.582A20 20 0 0 1 24 5a20 20 0 0 1 19.979 19.418A20 20 0 0 0 44 24 20 20 0 0 0 24 4z"/><path style="opacity:.2" d="M18.854 10.809a.27.27 0 0 0-.12.07c-.294.276-.512 1.141-.47 1.869.013.233.019.424.011.424-.252 0-1.08.289-1.08.377 0 .025.118.172.26.326.278.3.429.59.52.996.098.441.044.468-.18.088-.98-1.662-2.808-2.71-4.21-2.412-.182.039-.389.099-.458.133-.125.06-.125.065-.111.449.047 1.315.636 2.096 1.941 2.57.574.209.58.248.04.225-.526-.022-1.067-.283-1.542-.742l-.19-.182-.292.053c-.642.117-2.371.06-4.94-.164-.78-.069-1.074-.08-1.22-.069a20 20 0 0 0-2.8 9.535 20 20 0 0 0 3.223 10.543c.276.043.551.092.801.118.885.09 2.489.092 3.291 0 1.652-.19 2.96-.587 4.735-1.436.372-.178.704-.314.738-.3.075.028.382.56.6 1.04.219.483.46 1.22.628 1.912.077.316.15.589.16.608.042.068.197.03.245-.059.093-.174-.097-1.612-.8b9cbe-3.367l-.209-1.055.149-.123c.081-.068.239-.172.35-.23l.199-.106.218.114c.305.158.823.691 1.084 1.113.397.642.75 1.631.961 2.7l.104.519.134-.014c.251-.027.268-.08.207-.658-.118-1.13-.536-2.537-1.19-4.02-.127-.284-.22-.542-.208-.572a.575.575 0 0 1 .17-.15c.58-.38 3.388-3.108 4.594-4.465.655-.737 1.673-1.948 1.797-2.137.11-.167.28-.228.888-.318.688-.102 2.005-.07 2.668.066 1.365.279 2.657.786 4.05 1.59 1.724.996 3.72 2.624 5.378 4.387.184.195.35.355.367.355.039 0 .188-.454.188-.572 0-.1-.507-1.002-1.069-1.904-2.51-4.033-5.778-7.686-9.133-10.21-2.769-2.083-5.578-3.455-8.617-4.208l-.779-.194-.039-.224c-.133-.775-.498-1.583-.9-1.996-.227-.234-.374-.324-.498-.293zM20.164 18c.217.002.45.036.684.107.473.146.894.46 1.054.786.112.227.121.287.063.478-.161.53-.928.768-1.746.545a2.01 2.01 0 0 1-.844-.441c-.268-.232-.375-.441-.375-.737 0-.454.513-.743 1.164-.738z"/><path style="fill:#80adf5" d="M18.854 9.809a.27.27 0 0 0-.12.07c-.294.276-.512 1.141-.47 1.869.013.233.019.424.011.424-.252 0-1.08.289-1.08.377 0 .025.118.172.26.326.278.3.429.59.52.996.098.441.044.468-.18.088-.98-1.662-2.808-2.71-4.21-2.412-.182.039-.389.099-.458.133-.125.06-.125.065-.111.449.047 1.315.636 2.096 1.941 2.57.574.209.58.248.04.225-.526-.022-1.067-.283-1.542-.742l-.19-.182-.292.053c-.642.117-2.371.06-4.94-.164-.78-.069-1.074-.08-1.22-.069A20 20 0 0 0 4 24a20 20 0 0 0 2.596 9.805c.441.074.991.164 1.441.21.885.092 2.489.093 3.291 0 1.652-.189 2.96-.586 4.735-1.435.372-.178.704-.314.738-.3.075.028.382.56.6 1.04.219.483.46 1.22.628 1.912.077.316.15.589.16.608.042.068.197.03.245-.059.093-.174-.097-1.612-.8b9cbe-3.367l-.209-1.055.149-.123c.081-.068.239-.172.35-.23l.199-.106.218.114c.305.158.823.691 1.084 1.113.397.642.75 1.631.961 2.7l.104.519.134-.014c.251-.027.268-.08.207-.658-.118-1.13-.536-2.537-1.19-4.02-.127-.284-.22-.542-.208-.572a.575.575 0 0 1 .17-.15c.58-.38 3.388-3.108 4.594-4.465.655-.737 1.673-1.948 1.797-2.137.11-.167.28-.228.888-.318.688-.102 2.005-.07 2.668.066 1.365.28 2.657.786 4.05 1.59 1.724.996 3.72 2.624 5.378 4.387.184.195.35.355.367.355.039 0 .188-.454.188-.572 0-.1-.507-1.002-1.069-1.904-2.51-4.032-5.778-7.686-9.133-10.21-2.769-2.083-5.578-3.455-8.617-4.208l-.779-.194-.039-.224c-.133-.775-.498-1.583-.9-1.996-.227-.234-.374-.324-.498-.293zM20.164 17c.217.002.45.036.684.107.473.146.894.46 1.054.786.112.227.121.287.063.478-.161.53-.928.768-1.746.545a2.01 2.01 0 0 1-.844-.441c-.268-.232-.375-.441-.375-.737 0-.454.513-.743 1.164-.738z"/><path style="opacity:.2;fill:#f4f4f7" d="M18.854 9.809a.27.27 0 0 0-.12.07c-.294.276-.512 1.141-.47 1.869.013.233.019.424.011.424-.252 0-1.08.289-1.08.377 0 .025.118.172.26.326.128.139.224.277.305.424.198-.063.413-.127.515-.127.007 0 .002-.19-.011-.424-.042-.728.176-1.593.47-1.87a.27.27 0 0 1 .12-.07c.124-.03.27.06.498.294.402.413.767 1.221.9 1.996l.039.224.78.194c3.038.753 5.847 2.125 8.616 4.209 3.355 2.523 6.624 6.176 9.133 10.209.356.572.636 1.06.832 1.427.008.006.047.05.05.05.038 0 .187-.455.187-.573 0-.1-.507-1.002-1.069-1.904-2.51-4.032-5.778-7.686-9.133-10.21-2.769-2.083-5.578-3.455-8.617-4.208l-.779-.194-.039-.224c-.133-.775-.498-1.583-.9-1.996-.227-.234-.374-.324-.498-.293zm-4.725 1.687a2.776 2.776 0 0 0-1.002.184c-.125.06-.125.065-.111.449.007.211.034.405.07.59.015-.01.017-.028.04-.04.07-.033.277-.093.46-.132 1.401-.298 3.23.75 4.209 2.412.224.38.278.353.18-.088a1.998 1.998 0 0 0-.52-.996c-.142-.154-.26-.3-.26-.326 0-.029.101-.08.229-.135-.88-1.15-2.164-1.897-3.295-1.918zM6.813 13.82A20 20 0 0 0 4 24a20 20 0 0 0 .016.293 20 20 0 0 1 2.796-9.473c.147-.012.441 0 1.221.069 2.569.224 4.298.281 4.94.164l.293-.053.19.182c.474.459 1.015.72 1.54.742.542.023.535-.016-.039-.225-.978-.355-1.554-.884-1.8-1.68l-.184.034c-.642.117-2.371.06-4.94-.164-.78-.069-1.074-.08-1.22-.069zM19.229 18.3c-.134.12-.229.262-.229.44 0 .295.107.504.375.736.253.218.5.347.844.441.818.223 1.585-.016 1.746-.545.058-.191.05-.251-.063-.478a1.075 1.075 0 0 0-.142-.205c-.317.296-.912.4-1.541.228a2.01 2.01 0 0 1-.844-.441c-.068-.06-.098-.118-.146-.176zm.841 12.539c-.025.019-.09.08-.111.094a.575.575 0 0 0-.17.15c-.012.03.081.288.207.572.587 1.328.97 2.584 1.131 3.645.108-.053.106-.191.06-.625-.113-1.082-.508-2.422-1.117-3.836zm-2.119 1.383-.021.015-.149.123.21 1.055c.187.95.322 1.784.398 2.399.014-.013.036-.016.045-.032.093-.174-.097-1.612-.8b9cbe-3.367z"/></svg>