<svg height="48" width="48" xmlns="http://www.w3.org/2000/svg"><path d="m24 35v-10h-10c-5.523 0-10 4.477-10 10s4.477 10 10 10 10-4.477 10-10zm0-20v10h-10c-5.523 0-10-4.477-10-10s4.477-10 10-10 10 4.477 10 10zm0 0v10h10c5.523 0 10-4.477 10-10s-4.477-10-10-10-10 4.477-10 10zm0 20v-10h10c5.523 0 10 4.477 10 10s-4.477 10-10 10-10-4.477-10-10z" opacity=".2"/><path d="m24 14v10h-10c-5.523 0-10-4.477-10-10s4.477-10 10-10 10 4.477 10 10z" fill="#d32f2f"/><path d="m24 14v10h10c5.523 0 10-4.477 10-10s-4.477-10-10-10-10 4.477-10 10z" fill="#92dc39"/><path d="m24 34v-10h10c5.523 0 10 4.477 10 10s-4.477 10-10 10-10-4.477-10-10z" fill="#fdd835"/><path d="m24 34v-10h-10c-5.523 0-10 4.477-10 10s4.477 10 10 10 10-4.477 10-10z" fill="#2f58d3"/><circle cx="24" cy="25" opacity=".2" r="8"/><g fill="#f4f4f7"><circle cx="24" cy="24" r="8"/><path d="m14 4c-5.523 0-10 4.477-10 10 0 .169.017.333.025.5.263-5.289 4.621-9.5 9.975-9.5 5.523 0 10 4.477 10 10v-1c0-5.523-4.477-10-10-10z" opacity=".1"/><path d="m34 4c-5.523 0-10 4.477-10 10v1c0-5.523 4.477-10 10-10 5.354 0 9.712 4.211 9.975 9.5.008-.167.025-.331.025-.5 0-5.523-4.477-10-10-10zm-10 20v1h10c5.354 0 9.712 4.211 9.975 9.5.008-.167.025-.331.025-.5 0-5.523-4.477-10-10-10z" opacity=".2"/><path d="m14 24c-5.523 0-10 4.477-10 10 0 .169.017.333.025.5.263-5.289 4.621-9.5 9.975-9.5h10v-1z" opacity=".1"/></g></svg>