<svg xmlns="http://www.w3.org/2000/svg" width="48" height="48" xml:space="preserve"><path style="opacity:.2" d="M44 25c0 11.046-8.954 20-20 20S4 36.046 4 25 12.954 5 24 5s20 8.954 20 20"/><path style="fill:#ebd0a1" d="M44 24c0 11.046-8.954 20-20 20S4 35.046 4 24 12.954 4 24 4s20 8.954 20 20"/><path style="opacity:.1" d="M17.188 8.813c-.042.591-.46 1.023-.625 1.576a4.853 4.853 0 0 0-.135 2.016c.096.636.375 1.254.843 1.703.31.295.7.434 1.038.68-.73.98-1.137 2.22-1.194 3.492-.056 1.264.24 2.162.844 3.218 1.13 1.979 4.231 2.946 6.623 3.157 2.518.221 3.162.15 4.473.056.598-.042 4.796-.595 5.46-1.142.671-.554 1.007-1.553.674-2.385-.457-1.144-2.007-1.725-3.052-2.176-1.355-.585-3.373-1.798-4.547-2.742-.72-.578-1.492-1.316-2.307-1.899.373-.434.657-1.046.774-1.433.35-1.166.103-2.563.572-3.674-.271.58-1.64 1.027-2.174 1.379-.778.513-1.828 1.063-2.289 1.91-.07.13-.135.314-.19.508-.486-.074-.969-.094-1.4.05-.154.052-.291.127-.435.192.153-.414.277-.832.197-1.283a3.484 3.484 0 0 0-2.018-2.553c-.413-.18-.746-.464-1.133-.65zm-1.635 6.531c-2.807 1.478-5.887 4.482-7.035 7.965-1.062 3.221-.35 6.876.88 9.531.04.085.08.17.122.254 1.71 3.489 4.826 5.686 8.34 7.113 1.386.564 4.766.99 7.31.7 4.005-.457 6.174-1.46 7.2-2.188-2.944-3.265-4.24-6.381-4.804-8.326-1.323-.176-3.763-.836-4.808-1.432-3.435-1.959-3.713-4.838-3.713-4.838s-1.824-1.246-2.508-2.156c-.657-.874-1.178-1.827-1.44-2.896-.116-.476-.098-3.435.456-3.727zm17.607.475c1.088 1.474 2.046 3.414 2.627 4.546.696 1.356.74 2.858.783 3.965.116 3.024-2.82 5.898-5.988 5.961.459 1.312 1.286 3.102 2.756 5.05a48.72 48.72 0 0 0 1.094 1.335s2.653-2.215 4.18-5.182c1.377-2.678 1.453-5.43 1.363-6.843-.251-3.9-2.905-7.065-6.815-8.832z"/><path style="fill:#b8884a" d="M39.974 23.65c-.251-3.898-2.904-7.064-6.814-8.83 1.088 1.473 2.047 3.412 2.628 4.544.696 1.355.739 2.858.782 3.965.116 3.024-2.82 5.898-5.988 5.962.46 1.311 1.286 3.102 2.756 5.05.59.747 1.093 1.334 1.093 1.334s2.653-2.215 4.18-5.181c1.378-2.679 1.453-5.43 1.363-6.843"/><path style="fill:#845333" d="M33.947 28.292s.003.021.014.06a3.13 3.13 0 0 0 .157.41c.02.047.05.094.075.145.026.051.053.105.087.158.033.053.065.11.102.167l.118.172c.038.06.087.117.133.176.049.057.09.121.143.18.106.115.208.24.328.353l.175.176c.06.057.125.11.188.165l.186.168.196.154c.065.05.13.102.192.154.064.05.131.094.195.14.13.088.249.187.372.264.123.078.238.155.343.227.105.073.206.132.295.187l.228.143c.127.082.198.131.198.131s-.082-.027-.223-.079l-.254-.097c-.098-.038-.21-.08-.324-.14a14.073 14.073 0 0 1-.375-.187c-.133-.066-.264-.153-.403-.238-.069-.044-.14-.086-.21-.132a7.496 7.496 0 0 1-.205-.151l-.206-.156-.198-.172c-.064-.059-.13-.115-.193-.176l-.18-.189c-.124-.12-.22-.262-.324-.388a4.123 4.123 0 0 1-.363-.59c-.03-.065-.056-.129-.082-.189-.054-.12-.087-.237-.117-.339a2.04 2.04 0 0 1-.07-.445c0-.041.002-.062.002-.062M36.04 25.862s.054.031.149.081c.096.05.232.117.396.193l.268.116c.096.04.197.08.302.12.103.044.216.075.326.117.11.04.226.072.34.11l.343.098c.115.024.227.058.336.085.11.021.217.047.318.07.102.024.199.039.288.059.09.017.171.038.245.049a4.749 4.749 0 0 1 .357.073s-.061.009-.169.02c-.108.01-.263.03-.45.023-.093-.002-.195.002-.3-.01-.107-.009-.22-.018-.336-.033-.115-.021-.235-.039-.355-.065l-.361-.093c-.118-.042-.238-.078-.353-.124a3.874 3.874 0 0 1-.33-.146c-.107-.048-.205-.106-.298-.16-.094-.054-.177-.113-.254-.166a2.9 2.9 0 0 1-.347-.29c-.077-.078-.115-.127-.115-.127M36.304 21.387l.493-.037.235-.018.26-.024c.18-.02.372-.04.561-.069.096-.01.19-.027.283-.043a10.187 10.187 0 0 0 .758-.15l.195-.045c.057-.017.109-.028.15-.04.086-.02.136-.029.136-.029s-.04.032-.111.082a2.04 2.04 0 0 1-.313.188l-.106.054-.117.047c-.08.032-.165.069-.256.093-.091.026-.184.058-.282.076-.097.023-.197.04-.297.054-.1.015-.2.024-.3.03-.098.01-.196.004-.29.006a3.414 3.414 0 0 1-.513-.046c-.299-.047-.486-.13-.486-.13"/><path style="fill:#b8884a" d="M24.441 13.875c.768-.016 1.422-1.296 1.615-1.942.35-1.166.103-2.562.572-3.672-.271.58-1.64 1.027-2.173 1.379-.777.513-1.829 1.062-2.29 1.908-.2.367-.383 1.148-.287 1.473"/><path style="fill:#b8884a" d="M17.116 17.28c.101-2.247 1.249-4.433 3.46-5.172 1.073-.36 2.457.16 3.463.545 1.292.495 2.474 1.748 3.55 2.614 1.175.944 3.193 2.155 4.548 2.74 1.045.451 2.596 1.033 3.053 2.177.332.833-.003 1.83-.674 2.384-.664.547-4.862 1.1-5.46 1.143-1.311.093-1.955.165-4.473-.057-2.392-.21-5.494-1.177-6.624-3.156-.604-1.057-.9-1.954-.843-3.218"/><path style="fill:#f2c9c0" d="M34.305 22.54c.776-.643 1.14-2.371.07-2.851-.778-.35-1.95-.298-2.708.096-.56.29-1.341 1.265-1.08 1.962.31.825 1.412.156 2.008.344.64.202.982 1.054 1.71.45"/><path style="fill:#17191e" d="M21.422 15.06c-.837-.198-1.892.743-1.195 1.541 1.172 1.344 2.523-1.104 1.275-1.518a.836.836 0 0 0-.08-.022"/><path style="fill:#b8884a" d="M19.693 13.97c-.03-1.02.833-1.904.646-2.954a3.487 3.487 0 0 0-2.018-2.554c-.414-.18-.747-.462-1.133-.649-.042.592-.46 1.022-.625 1.575a4.858 4.858 0 0 0-.136 2.016c.096.637.376 1.255.845 1.704.318.305.725.44 1.07.7.246.187.47.466.65.71"/><path style="fill:#17191e" d="M24.705 15.17c-.9.058-1.799.575-2.35 1.271-.966 1.224-.183 2.473 1.065 3.02 1.192.522 2.809.55 3.822-.348 1.43-1.267-.083-3.338-1.47-3.793-.02-.006-.047.007-.069.004a2.281 2.281 0 0 0-.613-.15 2.534 2.534 0 0 0-.385-.004zm.002.586c.249.004.494.067.715.203a.341.341 0 0 0 .168.039c.986.508 1.838 1.812 1.043 2.809-.572.717-1.874.427-2.596.168-.862-.31-1.556-1.092-1.15-2.034.293-.679 1.074-1.197 1.82-1.185z"/><path style="fill:#17191e" d="M28.75 16.004c-.383-.069-.769-.119-1.148-.002-.441.136-.774.46-1.107.764-.128.116-.099.253.077.287a.745.745 0 0 0 .594-.159c.188-.171.373-.362.592-.496.08-.05.367.033.476.053a.757.757 0 0 0 .593-.16c.131-.113.096-.256-.077-.287"/><path style="fill:#17191e" d="M31.238 13.703a3.948 3.948 0 0 0-.84.053c-1.392.203-2.543 1.371-2.457 2.806.232 1.36 1.291 2.131 2.627 1.786a2.732 2.732 0 0 0 2.047-2.725c-.02-.587-.207-1.184-.617-1.613-.195-.205-.47-.286-.76-.307zm-.73.324c.153.006.312.04.478.112.598.255.746 1.147.791 1.709.074.9-.34 1.558-1.054 2.086-.986.728-1.816-.86-1.942-1.596-.056-.936.656-2.353 1.727-2.31z"/><path style="fill:#843733" d="M23.67 21.51c.364.51.662.717 1.322.763.459.032.805-.2 1.285.038.35.172.606.38.988.495 1.523.457 3.25.06 4.744-.317.495-.125.412-.426-.081-.301-1.458.368-3.336.82-4.69-.067-.38-.248-.73-.331-1.18-.304-.81.05-1.139.042-1.6-.603-.126-.176-.934.092-.788.297"/><path style="fill:#845333" d="M32.005 21.034c.135-.1.3-.332.313-.504.01-.138-.123-.22-.241-.164-.099.046-.18.244-.226.336-.096.191-.171.573.154.332M34.086 21.53c.113-.085.253-.28.264-.426.009-.116-.104-.184-.204-.137-.083.038-.151.205-.19.282-.081.162-.145.483.13.28"/><path style="fill:#b8884a" d="M27.567 29.392c-1.323-.176-3.765-.836-4.81-1.432-3.434-1.96-3.712-4.836-3.712-4.836s-1.823-1.247-2.507-2.157c-.658-.874-1.178-1.828-1.44-2.897-.116-.476-.1-3.434.454-3.725-2.807 1.478-5.887 4.481-7.035 7.964-1.062 3.22-.349 6.877.882 9.532l.12.252c1.71 3.49 4.827 5.686 8.34 7.114 1.387.563 4.768.99 7.312.7 4.004-.457 6.173-1.46 7.198-2.188-2.942-3.265-4.238-6.382-4.802-8.327"/><path style="fill:#845333" d="M8.517 22.309s.031.033.095.09c.061.058.16.134.283.234.126.095.279.211.465.328l.142.093.157.089c.108.059.216.13.336.19.242.12.5.256.788.368.28.13.593.223.909.335.158.058.327.091.493.139l.252.067c.084.023.168.047.256.061l.523.102.263.05.268.032c.356.042.71.103 1.065.109.354.01.701.056 1.039.038.337-.008.664 0 .974-.012l.872-.06.389-.027.349-.043.567-.069c.316-.037.497-.055.497-.055s-.176.043-.487.11a1100.825 1100.825 0 0 1-.908.195c-.122.02-.253.035-.388.053l-.877.112c-.312.026-.644.036-.986.051l-.26.01c-.086.005-.174-.003-.262-.004l-.536-.02c-.36-.003-.724-.061-1.088-.101l-.273-.035-.27-.054-.534-.11c-.178-.032-.347-.095-.518-.141-.17-.054-.34-.093-.5-.156-.323-.123-.636-.235-.917-.38-.29-.127-.545-.284-.782-.42-.118-.072-.225-.149-.33-.219l-.15-.104-.135-.107c-.178-.134-.322-.265-.44-.372a3.834 3.834 0 0 1-.257-.267c-.057-.064-.084-.1-.084-.1M10.576 33.857s.208-.01.566-.06c.359-.047.866-.146 1.461-.312a13.196 13.196 0 0 0 1.975-.724 14.641 14.641 0 0 0 2.095-1.185c.17-.115.335-.237.502-.354l.482-.374.46-.385.437-.392.408-.395c.132-.131.256-.264.38-.39.125-.125.234-.258.347-.381.111-.124.222-.242.319-.362.196-.24.383-.454.535-.655.155-.199.293-.37.396-.52.212-.293.337-.459.337-.459s-.103.18-.29.491c-.092.158-.217.34-.356.552a11.79 11.79 0 0 1-.493.695c-.09.127-.195.252-.3.383-.107.13-.214.269-.335.4-.12.134-.24.274-.368.412l-.403.413-.434.41c-.15.135-.307.266-.463.4-.16.13-.325.256-.488.385-.17.121-.338.247-.51.365-.35.231-.704.455-1.067.65a11.692 11.692 0 0 1-3.126 1.18 9.601 9.601 0 0 1-1.496.209c-.181.012-.325.009-.422.008l-.149-.005M23.733 39.896l.116-.484c.076-.307.167-.75.278-1.279.05-.266.111-.552.164-.858l.085-.468.08-.491c.06-.332.096-.68.15-1.03.048-.35.081-.708.122-1.065.027-.359.065-.716.082-1.07.007-.353.043-.7.037-1.037v-.496l.003-.24c-.002-.08-.008-.157-.011-.234l-.022-.45c-.008-.144-.006-.286-.025-.42-.03-.267-.055-.513-.076-.732-.007-.11-.029-.21-.045-.304l-.046-.257a25.625 25.625 0 0 1-.082-.491 23.528 23.528 0 0 0 .207.732c.024.093.056.192.073.301.041.218.088.463.134.733.045.269.065.564.098.875.007.078.016.157.022.237l.009.244.016.502c.009.17.005.344 0 .52l-.013.532c-.014.357-.049.72-.073 1.083-.045.36-.081.722-.134 1.076-.055.353-.108.701-.176 1.035l-.097.492-.107.467c-.066.305-.146.59-.214.852-.143.525-.285.956-.385 1.257-.05.15-.095.267-.124.346l-.046.122"/><path style="opacity:.2;fill:#f4f4f7" d="M24 4C12.954 4 4 12.954 4 24c0 .168.008.333.012.5C4.278 13.686 13.122 5 24 5s19.722 8.686 19.988 19.5c.004-.167.012-.332.012-.5 0-11.046-8.954-20-20-20z"/></svg>