<svg height="48" width="48" xmlns="http://www.w3.org/2000/svg"><rect height="26" opacity=".2" rx="2" width="40" x="4" y="17"/><path d="m4 34c0 1.108.892 2 2 2h36c1.108 0 2-.892 2-2v-22c0-1.108-.892-2-2-2h-18c-3 0-4-4-7-4h-11c-1.108 0-2 .892-2 2" fill="#dd772f"/><path d="m6 6c-1.108 0-2 .892-2 2v1c0-1.108.892-2 2-2h11c3 0 4 4 7 4h18c1.108 0 2 .892 2 2v-1c0-1.108-.892-2-2-2h-18c-3 0-4-4-7-4z" fill="#f4f4f7" opacity=".1"/><rect height="26" opacity=".2" rx="2" width="40" x="4" y="15"/><rect fill="#dcdcdc" height="16" rx="2" width="36" x="6" y="13"/><rect fill="#ee923a" height="26" rx="2" width="40" x="4" y="16"/><path d="m24.072 20.02a2.014 2.014 0 0 0 -1.974 1.334l-1.518 4.602-4.621.092c-1.91.038-2.699 2.431-1.176 3.568l3.684 2.752-1.34 4.062c-.554 1.803 1.512 3.282 3.08 2.205l3.793-2.603 3.793 2.603c1.568 1.077 3.634-.402 3.08-2.205l-1.34-4.062 3.684-2.752c1.523-1.137.734-3.53-1.176-3.568l-4.621-.092-1.518-4.602a2.012 2.012 0 0 0 -1.83-1.334zm-.072 1.984 1.979 5.91 6.021.118-4.8 3.588 1.743 5.384-4.943-3.39-4.943 3.39 1.743-5.384-4.8-3.588 6.021-.119z" opacity=".2"/><path d="m24.072 19.016a2.014 2.014 0 0 0 -1.974 1.334l-1.518 4.602-4.621.092c-1.91.038-2.699 2.43-1.176 3.568l3.684 2.752-1.34 4.062c-.554 1.803 1.512 3.282 3.08 2.205l3.793-2.604 3.793 2.604c1.568 1.077 3.634-.402 3.08-2.205l-1.34-4.062 3.684-2.752c1.523-1.137.734-3.53-1.176-3.568l-4.621-.092-1.518-4.602a2.012 2.012 0 0 0 -1.83-1.334zm-.072 1.984 1.979 5.909 6.021.12-4.8 3.587 1.742 5.384-4.942-3.39-4.943 3.39 1.744-5.384-4.801-3.588 6.021-.119z" fill="#f4f4f7"/></svg>