<svg height="48" width="48" xmlns="http://www.w3.org/2000/svg">
    <path d="M24 5c11.063 0 20 8.938 20 20s-8.938 20-20 20S4 36.062 4 25 12.938 5 24 5z" opacity=".2"/>
    <path d="M24 4c11.063 0 20 8.938 20 20s-8.938 20-20 20S4 35.062 4 24 12.938 4 24 4z" fill="#f4f4f7"/>
    <path d="M24 4C12.937 4 4 12.938 4 24c0 .168.008.333.012.5C4.277 13.67 13.105 5 24 5s19.723 8.67 19.988 19.5c.004-.167.012-.332.012-.5 0-11.063-8.938-20-20-20z" fill="#f4f4f7" opacity=".2"/>
    <g fill-rule="evenodd">
        <path d="M15 12v10l9-9 9 9V12zm18 10-9 9-9-9v8l9 9 9-9z" opacity=".1"/>
        <path d="M15 12v9l9-9zm9 0 9 9v-9zm9 9-9 9-9-9v8l9 9 9-9z" fill="#3a78b4"/>
    </g>
</svg>
