<svg height="48" width="48" xmlns="http://www.w3.org/2000/svg"><rect fill="#f57635" height="40" rx="2" width="40" x="4" y="4"/><path d="m6 4c-1.108 0-2 .892-2 2v1c0-1.108.892-2 2-2h36c1.108 0 2 .892 2 2v-1c0-1.108-.892-2-2-2z" fill="#fff" opacity=".2"/><path d="m6 45c-1.108 0-2-.892-2-2v-1c0 1.108.892 2 2 2h36c1.108 0 2-.892 2-2v1c0 1.108-.892 2-2 2zm20-30a8.003 8.003 0 0 0 -7.16 4.432 4.02 4.02 0 0 0 -1.84-.452c-2.21 0-4 1.783-4 3.982.001.139.01.278.025.416-1.767.708-3.025 2.508-3.025 4.645 0 2.758 2.081 4.977 4.666 4.977h18.668c.417 0 .814-.077 1.197-.186a5.481 5.481 0 0 0 4.47-5.373c-.003-2.862-2.22-5.24-5.089-5.455l.016-.017c-.503-3.979-3.899-6.963-7.928-6.969zm-2 4 3 3 3 3h-4v6h-4v-6h-4l3-3z" opacity=".2"/><path d="m26 14a8.003 8.003 0 0 0 -7.16 4.432 3.992 3.992 0 0 0 -5.84 3.531c.001.139.01.278.025.416-1.767.707-3.025 2.507-3.025 4.644 0 2.758 2.081 4.977 4.666 4.977h18.668c.417 0 .813-.077 1.197-.186a5.48 5.48 0 0 0 4.469-5.373c-.002-2.862-2.22-5.24-5.088-5.455l.016-.017c-.503-3.979-3.899-6.964-7.928-6.969zm-2 4 3 3 3 3h-4v6h-4v-6h-4l3-3z" fill="#fff"/></svg>