<svg height="48" width="48" xmlns="http://www.w3.org/2000/svg">
    <rect fill="#3c6290" height="40" rx="2" width="40" x="4" y="4"/>
    <path d="M6 4c-1.108 0-2 .892-2 2v1c0-1.108.892-2 2-2h36c1.108 0 2 .892 2 2V6c0-1.108-.892-2-2-2z" fill="#f4f4f7" opacity=".2"/>
    <path d="M4 42v1c0 1.108.892 2 2 2h36c1.108 0 2-.892 2-2v-1c0 1.108-.892 2-2 2H6c-1.108 0-2-.892-2-2zM32.059 9a3.09 3.09 0 0 0-2.098.789c-1.011.924-1.258 2.496-.582 3.709.38.681 1.351 1.345 2.146 1.467 1.813.277 3.475-1.142 3.475-2.97 0-1.134-.75-2.293-1.781-2.75A2.923 2.923 0 0 0 32.059 9zM22 15a1 1 0 0 0-.781.375l-4 5a1 1 0 1 0 1.562 1.25l3.7-4.625h2.615l-4.534 5.611a2 2 0 0 0-.125.139L17.04 27H10a2 2 0 1 0 0 4h8a2 2 0 0 0 1.563-.75l2.724-3.406 3.496 2.912-1.736 7.81A2 2 0 0 0 26 40a2 2 0 0 0 2.023-1.881l1.93-8.686a2 2 0 0 0-.672-1.97l-3.353-2.795 4.385-5.428 1.906 2.385a1 1 0 0 0 1.488.082L37.414 18H37a1 1 0 1 0 0-2 1 1 0 0 0-.703.303l-.004-.01-3.209 3.209-3.303-4.127A1 1 0 0 0 29 15z" opacity=".2"/>
    <path d="M32.058 8a3.088 3.088 0 0 0-2.096.79c-1.012.924-1.258 2.495-.582 3.708.38.681 1.35 1.345 2.146 1.467 1.813.278 3.474-1.142 3.474-2.968 0-1.135-.75-2.294-1.78-2.75A2.93 2.93 0 0 0 32.057 8z" fill="#f4f4f7"/>
    <path d="m18 20 4-5h7l4 5 4-4" fill="none" stroke="#f4f4f7" stroke-linecap="round" stroke-linejoin="round" stroke-width="2"/>
    <path d="M10 28h8l4-5 6 5-2 9" fill="none" stroke="#f4f4f7" stroke-linecap="round" stroke-linejoin="round" stroke-width="4"/>
    <path d="m19.46 22.976 7.15-8.85 4.357 3.305-7.15 8.85z" fill="#f4f4f7"/>
</svg>
