<svg height="48" width="48" xmlns="http://www.w3.org/2000/svg">
    <rect fill="#325f78" height="40" rx="20" width="40" x="4" y="4"/>
    <rect height="32" opacity=".2" rx="16" transform="matrix(0 -1 -1 0 0 0)" width="32" x="-41" y="-40"/>
    <rect fill="#5c8ba2" height="32" rx="16" transform="matrix(0 -1 -1 0 0 0)" width="32" x="-40" y="-40"/>
    <path d="m24 14-2.813 3.531c-3.03 1.14-5.188 4.041-5.188 7.47a8 8 0 1 0 16 0c0-3.428-2.157-6.33-5.187-7.47L24 14.001z" opacity=".2"/>
    <path d="M24 4C13.099 4 4.312 12.637 4.031 23.469 4.565 12.872 13.266 4.5 24 4.5s19.435 8.372 19.969 18.969C43.688 12.637 34.901 4 24 4z" fill="#fff" opacity=".1"/>
    <path d="M24 8C15.136 8 8 15.136 8 24v.25C8.135 15.504 15.221 8.5 24 8.5s15.865 7.004 16 15.75V24c0-8.864-7.136-16-16-16z" fill="#fff" opacity=".1"/>
    <path d="m24 13-2.969 3.563A8.002 8.002 0 0 0 16.001 24a8 8 0 1 0 16 0 8 8 0 0 0-5.032-7.438L24 13.002z" fill="#f4f4f7"/>
    <path d="m24 13-2.969 3.563A8.002 8.002 0 0 0 16.001 24c0 .116-.006.228 0 .343a8.002 8.002 0 0 1 5.03-7.281l2.97-3.563 2.968 3.562A8.002 8.002 0 0 1 32 24.344c.005-.116 0-.227 0-.344a8.002 8.002 0 0 0-5.03-7.438z" fill="#fff" opacity=".2"/>
    <path d="M4.012 24.5c-.004.167-.012.332-.012.5 0 11.08 8.92 20 20 20s20-8.92 20-20c0-.168-.008-.333-.012-.5C43.724 35.346 34.912 44 24 44S4.276 35.346 4.012 24.5z" opacity=".2"/>
</svg>
