<svg height="48" width="48" xmlns="http://www.w3.org/2000/svg"><rect fill="#c2352a" height="40" rx="2" width="40" x="4" y="4"/><path d="m44 23v-17c0-1.108-.892-2-2-2h-36c-1.108 0-2 .892-2 2v17z" fill="#6fbb34"/><path d="m6 4c-1.108 0-2 .892-2 2v1c0-1.108.892-2 2-2h36c1.108 0 2 .892 2 2v-1c0-1.108-.892-2-2-2z" fill="#fff" opacity=".2"/><path d="m6 45c-1.108 0-2-.892-2-2v-1c0 1.108.892 2 2 2h36c1.108 0 2-.892 2-2v1c0 1.108-.892 2-2 2z" opacity=".2"/><path d="m24 6 2.472 4.938 5.528.792-4 3.843.944 5.427-4.944-2.562-4.944 2.562.944-5.427-4-3.843 5.528-.792z" fill="#fff"/><g fill="#1f1f1f"><path d="m21 26h6l-2 8 2 8h-6l2-8z"/><path d="m32 31v6l-8-2-8 2v-6l8 2z"/></g></svg>