<svg xmlns="http://www.w3.org/2000/svg" width="48" height="48"><path style="opacity:.2;fill-rule:evenodd" d="M22.97 4A2 1.998 0 0 0 21 6.025v14.98h4V6.025A2 1.998 0 0 0 22.97 4zM21 28.994v14.98a2 1.998 0 1 0 4 0v-14.98h-4z"/><path style="opacity:.2" d="M16.627 7.941a16.66 16.66 0 0 0-4.197.58c-1.59.442-3.41 1.233-4.928 2.836C5.984 12.96 5 15.393 5 18s.954 4.999 2.37 6.65c1.415 1.651 3.136 2.602 4.68 3.203C15.14 29.055 18 29 18 29h5a4 4 0 0 0 .738-.06h4.319a4 4 0 0 0 .441-.024s1.557-.095 2.795.318c.619.206 1.02.474 1.262.77.242.295.502.685.502 1.935 0 .893-.142.962-.31 1.14-.17.18-.6.448-1.26.632-1.323.367-2.989.254-2.989.254a4 4 0 0 0-.441-.026H13a4 4 0 1 0 0 8h15.057l-.442-.023s2.834.386 6.012-.496c1.589-.442 3.41-1.235 4.928-2.838 1.518-1.603 2.502-4.036 2.502-6.643 0-2.75-.865-5.233-2.31-7-1.447-1.767-3.294-2.75-4.925-3.293-3.262-1.087-6.207-.681-6.207-.681l.442-.026h-5a4 4 0 0 0-.725.06H18s-1.64-.054-3.05-.603c-.706-.274-1.235-.636-1.507-.953-.272-.317-.443-.55-.443-1.443s.141-.96.31-1.139c.17-.178.6-.45 1.26-.633 1.323-.367 2.989-.254 2.989-.254A4 4 0 0 0 18 16h15a4 4 0 1 0 0-8H18l.441.025s-.708-.098-1.814-.084z"/><path style="fill:none;stroke:#ff990f;stroke-width:8;stroke-linecap:round;stroke-linejoin:round" d="M23.057 23.94h5s9-1 9 7c0 7-9 6-9 6H13M23 24h-5s-9 0-9-7 9-6 9-6h15"/><path style="opacity:.1;fill:#f4f4f7" d="M16.627 6.941a16.66 16.66 0 0 0-4.197.58c-1.59.442-3.41 1.234-4.928 2.836C5.984 11.96 5 14.393 5 17c0 .172.015.34.023.51.115-2.42 1.057-4.651 2.479-6.153 1.518-1.602 3.339-2.394 4.928-2.836a16.66 16.66 0 0 1 4.197-.58A12.86 12.86 0 0 1 18.176 8H33a4 4 0 0 1 4.021 3.488A4 4 0 0 0 33 7H18.176a12.86 12.86 0 0 0-1.549-.059zm-3.602 10.526A4.55 4.55 0 0 0 13 18c0 .893.171 1.126.443 1.443.272.318.801.68 1.506.953C16.36 20.945 18 21 18 21h4.332a4 4 0 0 1 .725-.06h4.836c.648-.065 3.11-.233 5.93.706 1.63.544 3.477 1.527 4.923 3.293 1.349 1.649 2.182 3.924 2.29 6.454.006-.152.02-.301.02-.454 0-2.75-.864-5.233-2.31-7-1.446-1.766-3.293-2.749-4.924-3.293-2.82-.94-5.281-.771-5.93-.707h-4.835a4 4 0 0 0-.725.061H18s-1.64-.055-3.05-.604c-.706-.274-1.235-.635-1.507-.953-.215-.25-.363-.463-.418-.976zM33.03 31.475c-.048.397-.157.472-.283.605-.169.179-.598.447-1.26.63-1.322.368-2.988.255-2.988.255a4 4 0 0 0-.441-.026H13a4 4 0 0 0-4.021 4.512A4 4 0 0 1 13 33.94h15.057a4 4 0 0 1 .441.026s1.666.113 2.988-.254c.662-.184 1.091-.452 1.26-.63.17-.18.31-.249.31-1.142 0-.184-.016-.315-.027-.464z"/><path style="fill:#ffd56a;fill-rule:evenodd" d="M22.97 3A2 1.998 0 0 0 21 5.025v14.98h4V5.025A2 1.998 0 0 0 22.97 3zM21 27.994v14.98a2 1.998 0 1 0 4 0v-14.98h-4z"/><path style="opacity:.2" d="M21 28h4v1h-4z"/><path style="opacity:.2;fill:#f4f4f7;fill-rule:evenodd" d="M22.97 3A1.999 1.999 0 0 0 21 5.025v1A1.999 1.999 0 0 1 22.97 4 1.999 1.999 0 0 1 25 6.025v-1A1.999 1.999 0 0 0 22.97 3z"/></svg>