<svg height="48" width="48" xmlns="http://www.w3.org/2000/svg">
    <path d="M32.045 14.992a2 2 0 0 0-.678 3.904s.68.228 1.47.567c.791.339 1.72.922 1.749.951.882.882 1.244 1.469 1.375 1.73.054.11.057.129.057.127A2 2 0 0 0 40 22s-.022-.395-.092-.672a4.774 4.774 0 0 0-.369-.973c-.37-.738-1.007-1.651-2.125-2.77-.971-.97-2.042-1.387-3.002-1.798s-1.78-.683-1.78-.683a2 2 0 0 0-.587-.112zM26 34s1-6 6-6c3 0 6 4 6 4s2-5 4-5c3 0 2 10 2 10s-2 6-5 6c-15 0-13-9-13-9z" opacity=".2"/>
    <path d="M26 33s1-6 6-6c3 0 6 4 6 4s2-5 4-5c3 0 2 10 2 10s-2 6-5 6c-15 0-13-9-13-9z" fill="#3b655d"/>
    <path d="M42 26c-2 0-4 5-4 5s-3-4-6-4c-5 0-6 6-6 6s-.134.642-.06 1.572c.025-.335.06-.572.06-.572s1-6 6-6c3 0 6 4 6 4s2-5 4-5c1.747 0 2.125 3.376 2.146 6.209C44.208 30.249 43.962 26 42 26z" fill="#f4f4f7" opacity=".1"/>
    <path d="m29 11 2-3" fill="none" stroke="#d3c76a" stroke-linecap="round" stroke-linejoin="round" stroke-width="4"/>
    <path d="M30.96 5.977a2 2 0 0 0-1.624.914l-2 3a2 2 0 0 0-.287 1.632 2 2 0 0 1 .287-.632l2-3a2 2 0 0 1 1.625-.914 2 2 0 0 1 1.988 1.5 2 2 0 0 0-1.988-2.5z" fill="#f4f4f7" opacity=".1"/>
    <path d="M32 16s3 1 4 2c2 2 2 3 2 3" fill="none" stroke="#fcbbb8" stroke-linecap="round" stroke-linejoin="round" stroke-width="4"/>
    <path d="M19 43c20 0 17-8 17-8l-4-15s7 0 7-3c0-1-1-8-14-8C8 9 6 23 6 23s-9 20 13 20z" opacity=".2"/>
    <path d="M19 42c20 0 17-8 17-8l-4-15s7 0 7-3c0-1-1-8-14-8C8 8 6 22 6 22s-9 20 13 20z" fill="#4f877c"/>
    <path d="M25 8C8 8 6 22 6 22s-1.974 4.39-1.813 9.055C4.303 26.78 6 23 6 23S8 9 25 9c11.51 0 13.607 5.47 13.938 7.422.033-.136.062-.272.062-.422 0-1-1-8-14-8zm7.264 11.988c-.048 0-.264.012-.264.012l4 15s.072.22.12.563C36.225 34.648 36 34 36 34z" fill="#f4f4f7" opacity=".2"/>
    <path d="M5.377 23.662C3.787 28.44.87 42 19 42c20 0 17-8 17-8l-2.53-9.488C32.095 25.367 31 27 31 27h-3s-1-3-4-3-4 3-4 3-1-1-2-1c-3 0-5 2-5 2s-1-1-2-1c-3 0-5 2-5 2s.625-3.783-.623-5.338z" fill="#e6dfa4"/>
    <path d="M6 35s1-6 6-6c3 0 6 4 6 4s2-5 4-5c3 0 2 10 2 10s-2 6-5 6C4 44 6 35 6 35z" opacity=".2"/>
    <path d="M6 34s1-6 6-6c3 0 6 4 6 4s2-5 4-5c3 0 2 10 2 10s-2 6-5 6C4 43 6 34 6 34z" fill="#4f877c"/>
    <path d="M22 27c-2 0-4 5-4 5s-3-4-6-4c-5 0-6 6-6 6s-.134.642-.06 1.572C5.964 35.237 6 35 6 35s1-6 6-6c3 0 6 4 6 4s2-5 4-5c1.747 0 2.125 3.376 2.146 6.209C24.208 31.249 23.962 27 22 27z" fill="#f4f4f7" opacity=".2"/>
    <path d="m10 25-2 4s0 3 5 3 5-3 5-3l-3-5z" opacity=".2"/>
    <path d="m10 24-2 4s0 3 5 3 5-3 5-3l-3-5z" fill="#4f877c"/>
    <path d="m23 11-2-3" fill="none" stroke="#e6dfa4" stroke-linecap="round" stroke-linejoin="round" stroke-width="4"/>
    <circle cx="29" cy="14" opacity=".2" r="3"/>
    <circle cx="29" cy="13" fill="#f4f4f7" r="3"/>
    <circle cx="29" cy="13" fill="#17191e" r="1"/>
    <path d="M4 30c0-12 3-20 14-20 2 7 8 15 12 15 3 0 1-3 3-3s1 2 1 2-1 3-4 3c-4 0-12-4-26 3z" opacity=".2"/>
    <path d="M4 29C4 17 7 9 18 9c2 7 8 15 12 15 3 0 1-3 3-3s1 2 1 2-1 3-4 3c-4 0-12-4-26 3z" fill="#af2323"/>
    <path d="M18 9C7 9 4 17 4 29l.018-.008C4.188 17.561 7.314 10 18 10c2 7 8 15 12 15 3 0 1-3 3-3 .7 0 1.02.251 1.156.57.17-.586.253-1.57-1.156-1.57-2 0 0 3-3 3-4 0-10-8-12-15z" fill="#f4f4f7" opacity=".1"/>
    <path d="M29 25s-3 0-3 2c0 3 .997 5.016 1 5 0 0 3-2 2-5h2c-1 3 1 5 1 5s1-2 1-5c0-2-2-2-2-2z" opacity=".2"/>
    <path d="M29 24s-3 0-3 2c0 3 .997 5.016 1 5 0 0 3-2 2-5h2c-1 3 1 5 1 5s1-2 1-5c0-2-2-2-2-2z" fill="#d63030"/>
    <path d="M29 24s-3 0-3 2c0 .245.015.472.027.703C26.311 25.003 29 25 29 25h2s1.807.02 1.969 1.766c.014-.25.031-.5.031-.766 0-2-2-2-2-2zm0 3c.084.25.13.492.162.729.033-.234.047-.476.031-.729zm1.77 0c-.056.41-.055.79-.02 1.146A5.36 5.36 0 0 1 31 27zM20.979 5.977a2 2 0 0 0-1.915 2.55A2 2 0 0 1 21 7a2 2 0 0 1 1.686.914l2 3a2 2 0 0 1 .273.582 2 2 0 0 0-.295-1.605l-2-3a2 2 0 0 0-1.685-.914z" fill="#f4f4f7" opacity=".2"/>
</svg>
