<svg xmlns="http://www.w3.org/2000/svg" width="48" height="48" version="1"><rect style="opacity:.2" width="40" height="40" x="4" y="5" rx="2" ry="2"/><rect style="fill:#efe1cb" width="40" height="40" x="4" y="4" rx="2" ry="2"/><path style="fill:#d8b67e" d="M9 4 4 9l5 5 5-5-5-5zm5 5 5 5 5-5-5-5-5 5zm10 0 5 5 5-5-5-5-5 5zm10 0 5 5 5-5-5-5-5 5zm5 5-5 5 5 5 5-5-5-5zm0 10-5 5 5 5 5-5-5-5zm0 10-5 5 5 5 5-5-5-5zm-5 5-5-5-5 5 5 5 5-5zm-10 0-5-5-5 5 5 5 5-5zm-10 0-5-5-5 5 5 5 5-5zm-5-5 5-5-5-5-5 5 5 5zm0-10 5-5-5-5-5 5 5 5zm5-5 5 5 5-5-5-5-5 5zm10 0 5 5 5-5-5-5-5 5zm5 5-5 5 5 5 5-5-5-5zm-5 5-5-5-5 5 5 5 5-5z"/><path style="opacity:.1" d="M9 4 4 9l.5.5L9 5l4.5 4.5.5-.5-5-5zm5 5 .5.5L19 5l4.5 4.5.5-.5-5-5-5 5zm10 0 .5.5L29 5l4.5 4.5.5-.5-5-5-5 5zm10 0 .5.5L39 5l4.5 4.5.5-.5-5-5-5 5zM9 14l-5 5 .5.5L9 15l4.5 4.5.5-.5-5-5zm5 5 .5.5L19 15l4.5 4.5.5-.5-5-5-5 5zm10 0 .5.5L29 15l4.5 4.5.5-.5-5-5-5 5zm10 0 .5.5L39 15l4.5 4.5.5-.5-5-5-5 5zM9 24l-5 5 .5.5L9 25l4.5 4.5.5-.5-5-5zm5 5 .5.5L19 25l4.5 4.5.5-.5-5-5-5 5zm10 0 .5.5L29 25l4.5 4.5.5-.5-5-5-5 5zm10 0 .5.5L39 25l4.5 4.5.5-.5-5-5-5 5zM9 34l-5 5 .5.5L9 35l4.5 4.5.5-.5-5-5zm5 5 .5.5L19 35l4.5 4.5.5-.5-5-5-5 5zm10 0 .5.5L29 35l4.5 4.5.5-.5-5-5-5 5zm10 0 .5.5L39 35l4.5 4.5.5-.5-5-5-5 5z"/><path style="opacity:.1" d="m26.254 11-7.07.002c-1.184-.057-.987.943-.987.943l.907 2.198s-7.369 8.097-4.397 11.08c3.18 3.19 8.002-4.319 8.943-2.586 2.044 3.76-5.303 10.332-7.754 12.388C14.826 35.153 14 35.981 14 37c0 1.108.972 2 2.18 2h15.64c1.208 0 2.18-.892 2.18-2 0-.915-.667-1.675-1.578-1.914-.614-.69-1.49-1.549-1.457-2.43.11-2.974 3.115-7.399 3.035-11.597-.092-4.81-2.824-9.092-7.746-10.059z"/><rect style="fill:#514e48" width="20" height="4" x="14" y="34" rx="2.179" ry="2.327"/><path style="fill:#514e48" d="m19.184 10.002 7.07-.002c4.921.967 7.654 5.249 7.746 10.058.08 4.199-2.924 8.625-3.034 11.599-.05 1.338 2.053 2.667 2.034 3.343l-18.176-.068s11.249-8.84 8.827-13.296c-.942-1.733-5.766 5.778-8.945 2.587-2.972-2.983 4.397-11.08 4.397-11.08l-.905-2.198s-.197-1 .986-.943z"/><path style="opacity:.2;fill:#f4f4f7" d="M6 4c-1.108 0-2 .892-2 2v1c0-1.108.892-2 2-2h36c1.108 0 2 .892 2 2V6c0-1.108-.892-2-2-2z"/></svg>