<svg xmlns="http://www.w3.org/2000/svg" width="48" height="48" xml:space="preserve"><path style="opacity:.2" d="m7.102 12.68-.002.088c0 .498-2.104 1.4-2.1 3.898C6.167 16.001 7.932 16 8.1 16c.02.029.045.053.066.082-.672-.858-1.046-2.312-1.064-3.402zM21.947 38.336c-.008.006.01.06.065.125-.03-.071-.058-.13-.065-.125zm.065.125c.008.019.009.007.018.033.59 1.614-.333 2.785-.572 3.055-1.93.202-3.761.972-3.907 1.117a1.351 1.351 0 0 0-.327 1.836c.336.33.835.498 1.17.498.336 0 .668-.167 1.003-.334.332-.167 1.801-1.666 2.971-1.666 1.17 0 1.936 1.331 2.272 1.666.667.498 1.505.33 2.005-.168.499-.498.498-1.33-.169-1.832-.065-.065-.468-.265-1.004-.475-.002-.01 0-.016-.002-.027 0 0-1.1-.499-1.1-2.666 0-.335-.672-1-1.506-.832-.497.083-.746-.08-.852-.205zM14 5c-.875 0-1.612.568-1.883 1.351a1.988 1.988 0 0 0-2.08-.103 1.998 1.998 0 1 0 1.926 3.502c.45-.247.76-.644.918-1.094.32.217.704.344 1.119.344.02 0 .037-.006.057-.006a2.498 2.498 0 0 0 4.719 1.541 2.5 2.5 0 0 0-1.24-3.31 2.48 2.48 0 0 0-1.542-.165c0-.02.006-.04.006-.06 0-1.104-.896-2-2-2z"/><path style="fill:#ff9d20" d="m7.102 11.68-.002.088c0 .498-2.104 1.4-2.1 3.898C6.167 15.001 7.932 15 8.1 15c.02.029.045.053.066.082-.672-.858-1.046-2.312-1.064-3.402zM21.947 37.336c-.008.006.01.06.065.125-.03-.071-.058-.13-.065-.125zm.065.125c.008.019.009.007.018.033.59 1.614-.333 2.785-.572 3.055-1.93.202-3.761.972-3.907 1.117a1.351 1.351 0 0 0-.327 1.836c.336.33.835.498 1.17.498.336 0 .668-.167 1.003-.334.332-.167 1.801-1.666 2.971-1.666 1.17 0 1.936 1.331 2.272 1.666.667.498 1.505.33 2.005-.168.499-.498.498-1.33-.169-1.832-.065-.065-.468-.265-1.004-.475-.002-.01 0-.016-.002-.027 0 0-1.1-.499-1.1-2.666 0-.335-.672-1-1.506-.832-.497.083-.746-.08-.852-.205z"/><path style="opacity:.2" d="M12 8a5 5 0 0 0-4.986 4.723c-.015.12-.013.239-.012.357v.006a5 5 0 0 0 1.064 2.996C8.894 17.205 10 18.037 10 19.502c0 2.833-2 4.832-2 8.832C8 36.669 18.801 41 23.467 41c2.34 0 4.207-.456 5.394-.916C33.811 37.944 35.757 30.761 41 28c-.502-.665-.665-1.665-2-2 .67-.833.833-.833 2-1-.833-1-1.532-1.994-2.7-1.994 2-.502 3.7-4.504 3.7-7.006-.665 1.665-5.37 6-15.035 6-6.744-.58-8.426-6.956-10.695-11.594A5.001 5.001 0 0 0 12 8z"/><path style="fill:#e53d3d" d="M14 4c-1.104 0-2 .896-2 2s.896 2 2 2 2-.896 2-2-.896-2-2-2z"/><path style="fill:#e53d3d" d="M17.535 6.225a2.499 2.499 0 1 0-2.07 4.55 2.5 2.5 0 0 0 2.07-4.55zM10.036 5.248a1.998 1.998 0 0 0-.787 2.715 1.995 1.995 0 0 0 2.715.788 1.998 1.998 0 1 0-1.928-3.503z"/><path style="fill:#d8bfa2" d="M12 7a5 5 0 0 0-4.986 4.723c-.015.12-.013.239-.012.357v.006a5 5 0 0 0 1.064 2.996C8.894 16.205 10 17.037 10 18.502c0 2.833-2 4.832-2 8.832C8 35.669 18.801 40 23.467 40c2.34 0 4.207-.456 5.394-.916C33.811 36.944 35.757 29.761 41 27c-.502-.665-.665-1.665-2-2 .67-.833.833-.833 2-1-.833-1-1.532-1.994-2.7-1.994 2-.502 3.7-4.504 3.7-7.006-.665 1.665-5.37 6-15.035 6-6.744-.58-8.426-6.956-10.695-11.594A5.001 5.001 0 0 0 12 7z"/><path style="opacity:.2" d="M11 14c.996 0 2-1.004 2-2s-.996-2-2-2-2 1.004-2 2 .996 2 2 2z"/><path style="fill:#f4f4f7" d="M11 13c.996 0 2-1.004 2-2s-.996-2-2-2-2 1.004-2 2 .996 2 2 2z"/><path style="fill:#f4f4f7;opacity:.1" d="M14 4c-.875 0-1.612.568-1.883 1.352a1.988 1.988 0 0 0-2.08-.104 1.994 1.994 0 0 0-.967 2.246 1.988 1.988 0 0 1 3.047-1.143A1.996 1.996 0 0 1 14 5c1.104 0 2 .896 2 2 0 .02-.005.04-.006.06a2.48 2.48 0 0 1 1.541.165 2.49 2.49 0 0 1 1.408 1.783 2.5 2.5 0 0 0-1.408-2.783 2.48 2.48 0 0 0-1.54-.164c0-.021.005-.04.005-.061 0-1.104-.896-2-2-2z"/><path style="fill:#f4f4f7;opacity:.2" d="M12 7a5 5 0 0 0-4.986 4.723c-.015.12-.013.239-.012.357v.006c.003.146.028.289.043.434C7.292 9.973 9.419 8.003 12 8a5.001 5.001 0 0 1 4.27 2.406C18.539 15.044 20.22 21.42 26.965 22c9.213 0 13.91-3.933 14.906-5.744A7.55 7.55 0 0 0 42 15c-.665 1.665-5.37 6-15.035 6-6.744-.58-8.426-6.956-10.695-11.594A5.001 5.001 0 0 0 12 7zM9.955 19.031C9.73 21.593 8 23.591 8 27.334c0 .203.01.401.023.6.132-3.725 1.977-5.7 1.977-8.432 0-.165-.019-.32-.045-.47zm29.461 3.324c-.354.323-.729.554-1.115.65.809 0 1.39.49 1.949 1.116.199-.04.434-.076.75-.121-.53-.637-1.007-1.268-1.584-1.645zm.307 2.957c-.228.13-.428.32-.723.688.894.224 1.254.749 1.55 1.27.15-.09.294-.188.45-.27-.391-.518-.584-1.236-1.277-1.688z"/><circle style="fill:#17191e" cx="11" cy="11" r="1"/></svg>