<svg xmlns="http://www.w3.org/2000/svg" width="48" height="48" version="1"><rect style="opacity:.2" width="40" height="40" x="4" y="5" rx="2" ry="2"/><rect style="fill:#c73638" width="40" height="40" x="4" y="4" rx="2" ry="2"/><path style="opacity:.3" d="M4 29v13c0 1.108.892 2 2 2h36c1.108 0 2-.892 2-2V29H4z"/><path style="opacity:.2;fill:#f4f4f7" d="M6 4c-1.108 0-2 .892-2 2v1c0-1.108.892-2 2-2h36c1.108 0 2 .892 2 2V6c0-1.108-.892-2-2-2z"/><path style="fill:#2f2f2f" d="M9 9h30v26H9z"/><path style="fill:#f4f4f7" d="M16 18h4v7h-4zM28 18h4v7h-4z"/><path style="opacity:.4" d="M19 38h10v3H19z"/><path style="opacity:.2" d="M9 9h30v1H9zM16 25h4v1h-4zM28 25h4v1h-4z"/></svg>