<svg xmlns="http://www.w3.org/2000/svg" width="48" height="48" version="1"><path style="fill:#41ab93" d="M7 10h34v31H7z"/><path style="fill:#f4f4f7" d="M31 7h2v20h-2zM23 7h2v20h-2zM15 7h2v20h-2z"/><circle style="opacity:.1" cx="16" cy="29" r="4"/><circle style="fill:#17191e" cx="16" cy="28" r="4"/><path style="fill:#4f4f4f" d="M6.003 7c-1.108 0-2.069.894-2 2v32h4V11H40v30h4V9c0-1.108-.892-2-2-2z"/><circle style="opacity:.1" cx="24" cy="29" r="4"/><circle style="fill:#17191e" cx="24" cy="28" r="4"/><circle style="opacity:.1" cx="32" cy="29" r="4"/><circle style="fill:#17191e" cx="32" cy="28" r="4"/><path style="fill:#f4f4f7;opacity:.1" d="M6.004 7c-1.108 0-2.07.894-2 2v1c-.07-1.106.892-2 2-2H42c1.108 0 2 .892 2 2V9c0-1.108-.892-2-2-2H6.004z"/><path style="opacity:.2" d="M4 41h40v1H4zM8 11h32v1H8z"/></svg>