<svg height="48" width="48" xmlns="http://www.w3.org/2000/svg">
    <g fill-rule="evenodd">
        <path d="M15.58 8c-.854 0-1.545.685-1.545 1.529 0 6.937-1.294 11.564-2.622 13.59-.753 1.148-1.328 1.755-2.233 2.186-.906.43-2.296.697-4.635.697-.853 0-1.545.685-1.545 1.529v12.94C3 41.315 3.692 42 4.545 42c8.425 0 16.07-3.692 20.26-10.086C28.921 25.636 30 18.02 30 9.53 30 8.685 29.308 8 28.455 8z" opacity=".2"/>
        <path d="M15.58 7c-.854 0-1.545.685-1.545 1.529 0 6.937-1.294 11.564-2.622 13.59-.753 1.148-1.328 1.755-2.233 2.186-.906.43-2.296.697-4.635.697-.853 0-1.545.685-1.545 1.529v12.94C3 40.315 3.692 41 4.545 41c8.425 0 16.07-3.692 20.26-10.086C28.921 24.636 30 17.02 30 8.53 30 7.685 29.308 7 28.455 7z" fill="#115ccc"/>
        <path d="M15.58 7c-.853 0-1.545.685-1.545 1.53 0 6.937-1.295 11.563-2.623 13.59-.752 1.147-1.327 1.754-2.232 2.185-.906.43-2.296.697-4.635.697-.853 0-1.545.685-1.545 1.53v1c0-.845.692-1.53 1.545-1.53 2.339 0 3.73-.267 4.635-.697s1.48-1.038 2.232-2.186c1.328-2.026 2.623-6.652 2.623-13.59 0-.844.692-1.529 1.545-1.529h12.875c.803 0 1.454.608 1.53 1.383.002-.287.015-.565.015-.854C30 7.685 29.308 7 28.455 7z" fill="#f4f4f7" opacity=".1"/>
    </g>
    <path d="M15.56 8a1.561 1.571 0 0 0-1.403 2.257l14.868 30.858A1.561 1.571 0 0 0 30.43 42h13.01a1.561 1.571 0 0 0 1.404-2.255L29.976 8.885A1.561 1.571 0 0 0 28.572 8z" opacity=".2"/>
    <path d="M15.56 7a1.561 1.571 0 0 0-1.403 2.257l14.868 30.858A1.561 1.571 0 0 0 30.43 41h13.01a1.561 1.571 0 0 0 1.404-2.255L29.976 7.885A1.561 1.571 0 0 0 28.572 7z" fill="#3387f5"/>
    <path d="M15.56 7a1.561 1.571 0 0 0-1.478 2.074A1.561 1.571 0 0 1 15.561 8h13.011a1.561 1.571 0 0 1 1.405.885l14.867 30.86a1.561 1.571 0 0 1 .074.18 1.561 1.571 0 0 0-.074-1.18L29.977 7.884A1.561 1.571 0 0 0 28.572 7H15.561z" fill="#f4f4f7" opacity=".2"/>
</svg>
