<svg xmlns="http://www.w3.org/2000/svg" width="48" height="48" version="1"><circle fill="#e74c3c" cx="24" cy="24" r="20"/><path fill="#fff" opacity=".2" d="M24 4A19.955 19.955 0 0 0 4.002 24c0 .168-.004.333 0 .5C4.266 13.654 13.089 5 24 5s19.734 8.654 19.998 19.5c.004-.167 0-.332 0-.5 0-11.08-8.919-20-19.998-20z"/><g opacity=".2" style="enable-background:new"><path d="M20.326 31.654s-1.07.622.762.832c2.218.253 3.352.217 5.797-.245 0 0 .644.403 1.542.752-5.482 2.348-12.407-.136-8.102-1.34zM19.655 28.588s-1.2.889.633 1.078c2.37.245 4.242.265 7.482-.359 0 0 .447.454 1.151.703-6.627 1.938-14.007.152-9.266-1.422zM25.302 23.388c1.35 1.555-.355 2.954-.355 2.954s3.43-1.77 1.855-3.988c-1.471-2.067-2.6-3.094 3.507-6.635 0 0-9.585 2.393-5.007 7.669z"/><path d="M32.552 33.921s.791.653-.872 1.157c-3.164.959-13.169 1.248-15.948.039-.998-.435.875-1.038 1.464-1.165.614-.133.965-.109.965-.109-1.11-.782-7.18 1.537-3.083 2.202 11.176 1.811 20.372-.816 17.473-2.124zM20.84 25.412s-5.089 1.209-1.802 1.648c1.388.186 4.154.143 6.732-.073 2.106-.177 4.22-.555 4.22-.555s-.742.319-1.28.685c-5.168 1.36-15.15.727-12.276-.663 2.43-1.176 4.406-1.042 4.406-1.042zM29.97 30.514c5.253-2.73 2.823-5.352 1.128-4.999-.415.087-.6.162-.6.162s.154-.242.448-.347c3.354-1.178 5.933 3.478-1.082 5.322 0 0 .08-.073.105-.138zM26.802 10s2.91 2.91-2.76 7.385c-4.545 3.59-1.036 5.637-.001 7.976-2.654-2.394-4.6-4.502-3.295-6.463 1.917-2.879 7.23-4.275 6.056-8.898z"/><path d="M21.356 37.912c5.042.323 12.786-.18 12.97-2.565 0 0-.353.904-4.167 1.622-4.304.81-9.613.716-12.761.196 0 0 .645.534 3.958.747z"/></g><g fill="#fff" style="enable-background:new"><path d="M20.326 30.654s-1.07.622.762.832c2.218.253 3.352.217 5.797-.245 0 0 .644.403 1.542.752-5.482 2.348-12.407-.136-8.102-1.34zM19.655 27.588s-1.2.889.633 1.078c2.37.245 4.242.265 7.482-.359 0 0 .447.454 1.151.703-6.627 1.938-14.007.152-9.266-1.422zM25.302 22.388c1.35 1.555-.355 2.954-.355 2.954s3.43-1.77 1.855-3.988c-1.471-2.067-2.6-3.094 3.507-6.635 0 0-9.585 2.393-5.007 7.669z"/><path d="M32.552 32.921s.791.653-.872 1.157c-3.164.959-13.169 1.248-15.948.039-.998-.435.875-1.038 1.464-1.165.614-.133.965-.109.965-.109-1.11-.782-7.18 1.537-3.083 2.202 11.176 1.811 20.372-.816 17.473-2.124zM20.84 24.412s-5.089 1.209-1.802 1.648c1.388.186 4.154.143 6.732-.073 2.106-.177 4.22-.555 4.22-.555s-.742.319-1.28.685c-5.168 1.36-15.15.727-12.276-.663 2.43-1.176 4.406-1.042 4.406-1.042zM29.97 29.514c5.253-2.73 2.823-5.352 1.128-4.999-.415.087-.6.161-.6.161s.154-.242.448-.346c3.354-1.178 5.933 3.478-1.082 5.322 0 0 .08-.073.105-.138zM26.802 9s2.91 2.91-2.76 7.385c-4.545 3.59-1.036 5.637-.001 7.976-2.654-2.394-4.6-4.502-3.295-6.463 1.917-2.879 7.23-4.275 6.056-8.898z"/><path d="M21.356 36.912c5.042.323 12.786-.18 12.97-2.565 0 0-.353.904-4.167 1.622-4.304.81-9.613.716-12.761.196 0 0 .645.534 3.958.747z"/></g><path opacity=".2" d="M43.979 24.418A20 20 0 0 1 24 44 20 20 0 0 1 4.022 24.582 20 20 0 0 0 4 25a20 20 0 0 0 20 20 20 20 0 0 0 20-20 20 20 0 0 0-.021-.582z"/></svg>