<svg height="48" width="48" xmlns="http://www.w3.org/2000/svg">
    <path d="M6 4c-1.108 0-2 .892-2 2v35h40V6c0-1.108-.892-2-2-2z" fill="#9f6c2c"/>
    <path d="M4 26h12v18H4zm28 0h12v18H32z" fill="#dc912f"/>
    <path d="M4 26h12v6H4z" fill="#f4f4f7" opacity=".4"/>
    <rect height="4" opacity=".1" rx="1" width="44" x="2" y="23"/>
    <g fill="#f4f4f7">
        <path d="M4 32h12v6H4z" opacity=".2"/>
        <path d="M32 26h12v6H32z" opacity=".4"/>
        <path d="M32 32h12v6H32z" opacity=".2"/>
        <circle cx="10" cy="29" r="1"/>
        <circle cx="10" cy="35" r="1"/>
        <circle cx="10" cy="41" r="1"/>
        <circle cx="38" cy="29" r="1"/>
        <circle cx="38" cy="35" r="1"/>
        <circle cx="38" cy="41" r="1"/>
    </g>
    <path d="M4 9v14h2v-5h6v5h2v-5h9v5h2v-5h19V9H6zm2 2h6v5H6zm8 0h9v5h-9zm11 0h9v5h-9zm11 0h6v5h-6z" opacity=".2"/>
    <path d="M4 8v14h2v-5h6v5h2v-5h9v5h2v-5h19V8H6zm2 2h6v5H6zm8 0h9v5h-9zm11 0h9v5h-9zm11 0h6v5h-6z" fill="#eabd82"/>
    <path d="M4 32h12v1H4zm28 0h12v1H32zM4 38h12v1H4zm28 0h12v1H32zM4 44h12v1H4zm28 0h12v1H32zm-16-3h16v1H16z" opacity=".2"/>
    <rect fill="#dc912f" height="4" rx="1" width="44" x="2" y="22"/>
    <g fill="#f4f4f7">
        <path d="M3 22c-.554 0-1 .446-1 1v1c0-.554.446-1 1-1h42c.554 0 1 .446 1 1v-1c0-.554-.446-1-1-1z" opacity=".2"/>
        <path d="M6 4c-1.108 0-2 .892-2 2v1c0-1.108.892-2 2-2h36c1.108 0 2 .892 2 2V6c0-1.108-.892-2-2-2z" opacity=".1"/>
    </g>
</svg>
