<svg xmlns="http://www.w3.org/2000/svg" width="48" height="48"><path style="fill:#48aeff" d="M24 4A20 20 0 0 0 4 24a20 20 0 0 0 20 20 20 20 0 0 0 20-20A20 20 0 0 0 24 4z"/><path opacity=".2" d="M4.021 24.418A20 20 0 0 0 4 25a20 20 0 0 0 20 20 20 20 0 0 0 20-20 20 20 0 0 0-.021-.418A20 20 0 0 1 24 44 20 20 0 0 1 4.022 24.418z"/><path fill="#f4f4f7" opacity=".2" d="M24 4A20 20 0 0 0 4 24a20 20 0 0 0 .021.418A20 20 0 0 1 24 5a20 20 0 0 1 19.979 19.582 20 20 0 0 0 .02-.582A20 20 0 0 0 24 4z"/><path style="opacity:.2" d="M30 15c-1.108 0-2 .892-2 2v10h-2.67a1.33.99 0 0 0-1.152 1.486l4.67 6.018a1.33.99 0 0 0 1.08.494 1.33.99 0 0 0 1.224-.494l4.67-6.018A1.33.99 0 0 0 34.67 27H32V17c0-1.108-.892-2-2-2zm-12.072.002a1.33.99 0 0 0-1.08.494l-4.67 6.018A1.33.99 0 0 0 13.33 23H16v10c0 1.108.892 2 2 2s2-.892 2-2V23h2.67a1.33.99 0 0 0 1.152-1.486l-4.67-6.018a1.33.99 0 0 0-1.224-.494z"/><g transform="translate(0 -2)"><rect style="fill:#f4f4f7" width="4" height="18" x="16" y="18" ry="2"/><path style="fill:#f4f4f7" d="M17.929 16.001a1.33.99 0 0 0-1.081.494l-4.67 6.02A1.33.99 0 0 0 13.331 24h9.338a1.33.99 0 0 0 1.153-1.486l-4.67-6.019a1.33.99 0 0 0-1.223-.494z"/></g><g transform="matrix(1 0 0 -1 12 50)"><rect style="fill:#f4f4f7" width="4" height="18" x="16" y="18" ry="2"/><path style="fill:#f4f4f7" d="M17.929 16.001a1.33.99 0 0 0-1.081.494l-4.67 6.02A1.33.99 0 0 0 13.331 24h9.338a1.33.99 0 0 0 1.153-1.486l-4.67-6.019a1.33.99 0 0 0-1.223-.494z"/></g></svg>