<svg xmlns="http://www.w3.org/2000/svg" width="48" height="48" version="1"><rect style="fill:#5985cb" width="40" height="40" x="4" y="4" rx="2" ry="2"/><path fill="#fff" style="opacity:.2" d="M6 4c-1.108 0-2 .892-2 2v1c0-1.108.892-2 2-2h36c1.108 0 2 .892 2 2V6c0-1.108-.892-2-2-2H6z"/><path opacity=".2" d="M4 42v1c0 1.108.892 2 2 2h36c1.108 0 2-.892 2-2v-1c0 1.108-.892 2-2 2H6c-1.108 0-2-.892-2-2z"/><path style="stroke-linejoin:round;stroke:#4f4f4f;stroke-width:2;fill:none" d="M11 24h20M21 24l5-10M21 24l5 10h10"/><g style="opacity:.2"><circle cx="11" cy="25" r="3"/><circle cx="21" cy="25" r="3"/><circle cx="31" cy="25" r="3"/><circle cx="26" cy="35" r="3"/><circle cx="36" cy="35" r="3"/><circle cx="26" cy="15" r="3"/></g><g style="fill:#f5f5f5" transform="translate(0 -1)"><circle style="fill:#f4f4f7" cx="11" cy="25" r="3"/><circle style="fill:#f4f4f7" cx="21" cy="25" r="3"/><circle style="fill:#f4f4f7" cx="31" cy="25" r="3"/><circle style="fill:#f4f4f7" cx="26" cy="35" r="3"/><circle style="fill:#f4f4f7" cx="36" cy="35" r="3"/><circle style="fill:#f4f4f7" cx="26" cy="15" r="3"/></g></svg>