<svg height="64" width="64" xmlns="http://www.w3.org/2000/svg">
    <filter id="a" color-interpolation-filters="sRGB" height="1.054" width="1.054" x="-.027" y="-.027">
        <feGaussianBlur stdDeviation=".619"/>
    </filter>
    <linearGradient id="b" gradientUnits="userSpaceOnUse" x1="4.5" x2="59.5" y1="59.49" y2="4.49">
        <stop offset="0" stop-color="#dee0e2"/>
        <stop offset="1" stop-color="#f1f3f5" stop-opacity=".996"/>
    </linearGradient>
    <rect fill="#141414" filter="url(#a)" height="55" opacity=".3" ry="15" width="55" x="4.5" y="4.5"/>
    <rect fill="url(#b)" height="55" ry="15" width="55" x="4.5" y="4.5"/>
    <g transform="translate(7.172 7.172) scale(.77586)">
        <g fill="#5059c9">
            <path d="M44.036 26A2.031 2.031 0 0 0 42 28.036v13.949H61V28.037A2.031 2.031 0 0 0 58.964 26z"/>
            <circle cx="51.5" cy="41.5" r="9.5"/>
            <circle cx="51.5" cy="16.5" r="6.5"/>
        </g>
        <g fill="#7b83eb">
            <circle cx="33.5" cy="13.5" r="9.5"/>
            <path d="M22.295 26A3.288 3.288 0 0 0 19 29.296v16.477h.67a3.275 3.275 0 0 0 2.625 1.318h22.41c1.08 0 2.025-.52 2.626-1.318H48V29.296A3.288 3.288 0 0 0 44.705 26z"/>
            <circle cx="33.5" cy="45.5" r="14.5"/>
        </g>
        <rect fill="#5059c9" height="29" rx="1.977" width="29" x="3" y="18"/>
        <g fill="#fff">
            <path d="M10 24h15v5H10zM20 29v13h-5V29z"/>
        </g>
    </g>
</svg>
