<svg height="48" width="48" xmlns="http://www.w3.org/2000/svg"><rect fill="#345c6e" height="40" rx="2" width="40" x="4" y="4"/><path d="m4 7v-1c0-1.108.892-2 2-2h36c1.108 0 2 .892 2 2v1c0-1.108-.892-2-2-2h-36c-1.108 0-2 .892-2 2z" fill="#fff" opacity=".1"/><path d="m4 42v1c0 1.108.892 2 2 2h36c1.108 0 2-.892 2-2v-1c0 1.108-.892 2-2 2h-36c-1.108 0-2-.892-2-2z" opacity=".2"/><path d="m12 14v4.5l11 6.708-11 6.292v4.5l4.804 3 19.196-11.04v-5.723l-19.54-11.237z" opacity=".2"/><path d="m12 13v4.5l11 6.708-11 6.292v4.5l4.804 3 19.196-11.04v-5.723l-19.54-11.237z" fill="#a1ceea"/><path d="m16.46 10-4.46 3v1l4.46-3 19.54 11.236v-1zm5.694 14.691-10.154 5.809v1l11-6.293z" fill="#f4f4f7" opacity=".2"/></svg>