<svg height="48" width="48" xmlns="http://www.w3.org/2000/svg"><rect height="40" opacity=".2" rx="2" width="40" x="4" y="5"/><rect fill="#4f4f4f" height="40" rx="2" width="40" x="4" y="4"/><g opacity=".35"><rect height="10" rx="2" width="18" x="5" y="32"/><rect height="10" rx="2" width="18" x="25" y="32"/><path d="m37 10h6v1h-6zm0 3h6v1h-6zm0 3h6v1h-6zm0 3h6v1h-6zm0 3h6v1h-6zm0 3h6v1h-6z"/></g><path d="m6 4c-1.108 0-2 .892-2 2v1c0-1.108.892-2 2-2h36c1.108 0 2 .892 2 2v-1c0-1.108-.892-2-2-2z" fill="#f4f4f7" opacity=".1"/></svg>