<svg height="48" width="48" xmlns="http://www.w3.org/2000/svg"><rect height="28" opacity=".2" rx="3" transform="matrix(0 -1 -1 0 0 0)" width="28" x="-45" y="-38"/><rect fill="#cecece" height="28" rx="3" transform="matrix(0 -1 -1 0 0 0)" width="28" x="-44" y="-38"/><path d="m13 16c-1.662 0-3 1.338-3 3v1c0-1.662 1.338-3 3-3h22c1.662 0 3 1.338 3 3v-1c0-1.662-1.338-3-3-3z" fill="#f4f4f7" opacity=".2"/><path d="m24 20-8 6h4v8h-4l8 6 8-6h-4v-8h4z" fill="#4f4f4f"/><path d="m20-30h8v24h-8z" fill="#7e7e7e" transform="scale(1 -1)"/><rect height="24" opacity=".2" rx="4" transform="matrix(0 -1 -1 0 0 0)" width="8" x="-13" y="-36"/><rect fill="#db4539" height="24" rx="4" transform="matrix(0 -1 -1 0 0 0)" width="8" x="-12" y="-36"/><path d="m20 30h8v1h-8z" opacity=".1"/><path d="m16 4c-2.216 0-4 1.784-4 4 0 .171.028.335.049.5a3.978 3.978 0 0 1 3.951-3.5h16a3.978 3.978 0 0 1 3.951 3.5c.02-.165.049-.329.049-.5 0-2.216-1.784-4-4-4z" fill="#f4f4f7" opacity=".2"/><path d="m17.334 25-1.334 1h4v-1zm10.666 0v1h4l-1.334-1zm-12 9 8 6 8-6h-1.334l-6.666 5-6.666-5z" opacity=".1"/><path d="m46 44c0-10-7-17-17-17-1.5 0-3 1.5-3 3v14c0 1.5 1.5 3 3 3h14c1.5 0 3-1.5 3-3z" opacity=".2"/><path d="m46 43c0-10-7-17-17-17-1.5 0-3 1.5-3 3v14c0 1.5 1.5 3 3 3h14c1.5 0 3-1.5 3-3z" fill="#426bcd"/><path d="m30 30v1c0 .55.453 1 1 1a9 9 0 0 1 9 9c0 .55.453 1 1 1h1v-1c0-6.075-4.925-11-11-11zm0 4v1c0 .55.453 1 1 1a5 5 0 0 1 5 5c0 .55.453 1 1 1h1v-1a7 7 0 0 0 -7-7zm2 4a2 2 0 1 0 0 4 2 2 0 0 0 0-4z" fill="#f4f4f7"/></svg>