<svg height="48" width="48" xmlns="http://www.w3.org/2000/svg">
    <circle cx="24" cy="25" opacity=".2" r="20"/>
    <circle cx="24" cy="24" fill="#4f4f4f" r="20"/>
    <path d="M7.328 8.002c-1.248-.029-2.381.503-2.957 1.527-.921 1.64-.07 3.915 1.899 5.083 1.969 1.167 12.053 6.01 12.974 4.37.922-1.639-7.67-9.138-9.639-10.306a4.7 4.7 0 0 0-2.277-.674zm33.344 0a4.7 4.7 0 0 0-2.277.674c-1.97 1.168-10.56 8.667-9.64 10.307.922 1.639 11.006-3.204 12.975-4.371 1.97-1.168 2.82-3.443 1.899-5.083-.576-1.024-1.709-1.556-2.957-1.527zM7.996 17.457c-1.544-.086-2.89.697-3.16 1.93-.308 1.409.908 2.87 2.717 3.264 1.809.393 11.565.79 11.873-.62.308-1.409-8.95-4.089-10.758-4.482a4.298 4.298 0 0 0-.672-.092zm32.008 0c-.22.013-.446.043-.672.092-1.809.393-11.066 3.073-10.758 4.482.308 1.41 10.064 1.013 11.873.62 1.809-.394 3.025-1.855 2.717-3.264-.27-1.233-1.616-2.016-3.16-1.93zM13.676 23.98c-2.853 0-5.895.198-6.79.34-1.788.283-3 1.58-2.708 2.898s1.98 2.157 3.77 1.873c1.788-.284 11.684-2.934 11.392-4.252-.146-.659-2.811-.859-5.664-.86zm20.648 0c-2.853 0-5.518.2-5.664.86-.292 1.317 9.604 3.967 11.393 4.251s3.477-.555 3.77-1.873c.292-1.318-.92-2.615-2.71-2.898-.894-.142-3.936-.34-6.789-.34zm-15.72 3.724c-2.33.15-9.742 2.652-11.1 3.293-1.552.733-2.207 1.89-1.463 2.584.744.695 2.606.665 4.158-.068 1.553-.733 9.803-5.023 9.059-5.717-.093-.087-.322-.113-.654-.092zm10.792 0c-.332-.021-.56.005-.654.092-.744.694 7.506 4.984 9.059 5.717 1.552.733 3.414.763 4.158.068.744-.694.09-1.851-1.463-2.584-1.358-.64-8.77-3.142-11.1-3.293zm-9.834 2.373c-1.528.246-9.2 4.743-10.166 5.543-1.03.854-1.297 1.855-.601 2.235s2.095-.006 3.125-.86 8.558-6.528 7.861-6.908c-.043-.024-.117-.026-.218-.01zm8.875 0c-.101-.016-.175-.014-.218.01-.697.38 6.832 6.054 7.861 6.908 1.03.854 2.429 1.24 3.125.86s.428-1.38-.601-2.235c-.966-.8-8.638-5.296-10.167-5.543zm-10.71 3.801c-1.086.223-4.827 3.658-5.63 4.621-.856 1.028-.937 2.06-.183 2.307.754.246 2.058-.389 2.914-1.416.856-1.028 3.832-5.266 3.078-5.512a.358.358 0 0 0-.18 0zm12.367 0c-.754.246 2.222 4.484 3.078 5.512.856 1.027 2.16 1.662 2.914 1.416s.673-1.28-.184-2.307c-.856-1.027-5.054-4.867-5.808-4.62zm-8.229.02c-.523-.189-2.565 5.498-3.068 7.11-.503 1.61-.488 3.07.035 3.259.523.188 1.354-.966 1.857-2.576.504-1.611 1.7-7.605 1.176-7.793zm4.27 0c-.523.188.672 6.182 1.176 7.793.503 1.61 1.334 2.764 1.857 2.576.523-.189.538-1.65.035-3.26s-2.545-7.298-3.068-7.11zm-6.162.43c-.555-.247-4.033 5.216-4.662 6.244-.63 1.027-.691 2.058-.137 2.304s1.515-.386 2.144-1.414c.63-1.027 3.209-6.888 2.655-7.135zm8.054 0c-.554.246 2.025 6.107 2.655 7.134.63 1.028 1.59 1.66 2.144 1.414s.493-1.277-.137-2.304c-.63-1.028-4.107-6.49-4.662-6.245z" opacity=".1"/>
    <path d="M24 4A20 20 0 0 0 4 24a20 20 0 0 0 .021.582A20 20 0 0 1 24 5a20 20 0 0 1 19.979 19.418A20 20 0 0 0 44 24 20 20 0 0 0 24 4z" fill="#f4f4f7" opacity=".1"/>
    <path d="M7.328 7.002c-1.248-.029-2.381.503-2.957 1.527-.921 1.64-.07 3.915 1.899 5.082 1.969 1.168 12.053 6.01 12.974 4.371.922-1.639-7.67-9.139-9.639-10.306a4.7 4.7 0 0 0-2.277-.674zm33.344 0a4.7 4.7 0 0 0-2.277.674c-1.97 1.167-10.56 8.667-9.64 10.306.922 1.64 11.006-3.203 12.975-4.37" fill="#b5b78d"/>
    <path d="M14 16c-.554 0-1 .446-1 1v2c0 .554.446 1 1 1h2v14c0 .554.446 1 1 1h2c.554 0 1-.446 1-1V20h2c.554 0 1-.446 1-1v-2c0-.554-.446-1-1-1zm13 0c-1.108 0-2 .892-2 2v15c0 1.108.892 2 2 2h6c1.108 0 2-.892 2-2v-6h-4v3.5c0 .831-.446 1.5-1 1.5s-1-.669-1-1.5v-10c0-.831.446-1.5 1-1.5s1 .669 1 1.5V23h4v-5c0-1.108-.892-2-2-2z" opacity=".2"/>
    <g fill="#f4f4f7">
        <rect height="18" rx="1" width="4" x="16" y="16"/>
        <rect height="10" rx="1" transform="rotate(90)" width="4" x="15" y="-23"/>
        <path d="M27 15c-1.108 0-2 .892-2 2v15c0 1.108.892 2 2 2h6c1.108 0 2-.892 2-2v-6h-4v3.5c0 .831-.446 1.5-1 1.5s-1-.669-1-1.5v-10c0-.831.446-1.5 1-1.5s1 .669 1 1.5V22h4v-5c0-1.108-.892-2-2-2z"/>
    </g>
</svg>
