<svg height="48" width="48" xmlns="http://www.w3.org/2000/svg">
    <rect height="40" opacity=".2" rx="2" width="40" x="4" y="5"/>
    <rect fill="#72a637" height="40" rx="2" width="40" x="4" y="4"/>
    <path d="M21 12s-4 0-4 4v11h-3V17h-3v10c0 3 3 3 3 3h3v4s0 4 4 4h12c4 0 4-4 4-4V23h-7v4h4l-7 8-7-8h4V16h6v4h7v-4s0-4-4-4z" opacity=".2"/>
    <g fill="#f4f4f7">
        <path d="M21 11s-4 0-4 4v11h-3V16h-3v10c0 3 3 3 3 3h3v4s0 4 4 4h12c4 0 4-4 4-4V22h-7v4h4l-7 8-7-8h4V15h6v4h7v-4s0-4-4-4z"/>
        <path d="M6 4c-1.108 0-2 .892-2 2v1c0-1.108.892-2 2-2h36c1.108 0 2 .892 2 2V6c0-1.108-.892-2-2-2z" opacity=".2"/>
    </g>
</svg>
