<svg height="48" width="48" xmlns="http://www.w3.org/2000/svg"><rect height="24" opacity=".2" ry="3" width="24" x="4" y="6"/><rect fill="#f5e03a" height="24" ry="3" width="24" x="4" y="5"/><rect height="24" opacity=".2" ry="8" width="24" x="11" y="12"/><rect fill="#f98413" height="24" ry="8" width="24" x="11" y="11"/><circle cx="32" cy="32" opacity=".2" r="12"/><circle cx="32" cy="31" fill="#a821a3" r="12"/><g fill="#f4f4f7"><path d="m7 5c-1.662 0-3 1.338-3 3v1c0-1.662 1.338-3 3-3h18c1.662 0 3 1.338 3 3v-1c0-1.662-1.338-3-3-3zm12 6c-4.432 0-8 3.568-8 8v1c0-4.432 3.568-8 8-8h8c4.432 0 8 3.568 8 8v-1c0-4.432-3.568-8-8-8z" opacity=".2"/><path d="m32 19a12 12 0 0 0 -12 12 12 12 0 0 0 .02.594 12 12 0 0 1 11.98-11.594 12 12 0 0 1 11.98 11.406 12 12 0 0 0 .02-.406 12 12 0 0 0 -12-12z" opacity=".2"/></g></svg>