<svg xmlns="http://www.w3.org/2000/svg" width="48" height="48" xml:space="preserve"><path style="opacity:.2" d="M43.307 2.952 32.302 7.587v1.91l-.004-.003v1.01l.002.043v18.446a8.573 8.573 0 0 1-2.704 6.251l-.075.068a8.782 8.782 0 0 1-.662.557l-.002.002a8.839 8.839 0 0 1-5.362 1.802c-4.878 0-8.805-3.872-8.805-8.68V15.63L3.683 20.454v6.612c0 2.84.386 5.442 1.157 7.795.765 2.353 1.952 4.377 3.56 6.077 1.362 1.443 3.042 2.615 5.03 3.523l.133-.005h.003c.287.168.596.326.948.462 2.47.955 5.409 1.435 8.805 1.435l-.007-.013c3.453 0 6.433-.458 8.95-1.394 2.518-.93 4.586-2.245 6.221-3.946 1.628-1.695 2.842-3.735 3.633-6.108.791-2.373 1.187-4.985 1.187-7.83v-.481c0-.012.004-.022.004-.034V2.952z" transform="matrix(.90854 0 0 .92164 2.654 2.28)"/><path style="fill:#2165b0" d="m42 4-9.998 4.271v16.786c.011 3.615 9.998 3.31 9.998.69V4zM16 15.686 6 20.13v6.094c0 2.617.35 5.015 1.05 7.183.696 2.169 1.774 4.035 3.235 5.602 1.238 1.33 2.764 2.409 4.57 3.246l2.556.78c8.215-.85 11.14-7.061 12.071-8.86h.004l.24-.584A7.971 7.971 0 0 1 24 36c-4.432 0-8-3.568-8-8v-2.467z"/><path style="fill:#7ec183" d="M31.998 10.03v.93L32 11v17c0 2.272-.945 4.31-2.457 5.762.06-.058.125-.11.184-.17l-.24.584h-.005c-.932 1.799-5.226 7.198-13.441 8.049l-1.064.027c.261.155.542.3.863.426 2.245.88 4.914 1.322 8 1.322l-.006-.012c3.137 0 5.844-.422 8.13-1.285 2.289-.856 4.168-2.069 5.653-3.637 1.48-1.562 2.582-3.441 3.301-5.629.719-2.187 1.078-4.594 1.078-7.216v-3.125c-.662-5.966-5.931-11.458-9.998-13.067zm-2.52 23.792z"/><g style="fill:#f4f4f7"><path style="fill:#f4f4f7;opacity:.1" d="m42 4-9.998 4.271v1L42 5V4zM16 15.686 6 20.13v1l10-4.445v-1zM16 28v1c0 4.432 3.568 8 8 8 1.67 0 3.215-.508 4.494-1.377.45-.573.804-1.092.988-1.447h.004l.24-.584A7.971 7.971 0 0 1 24 36c-4.432 0-8-3.568-8-8z"/></g><g style="fill:#f4f4f7;opacity:.1"><path style="fill:#f4f4f7" d="M31.998 10.03v.93L32 11v.03c4.066 1.61 9.334 7.1 9.996 13.066v-1c-.662-5.966-5.931-11.458-9.998-13.067zM32 28c0 2.272-.945 4.31-2.457 5.762.06-.058.125-.11.184-.17l-.24.584h-.005c-.932 1.799-5.226 7.198-13.441 8.049l-1.064.027c.261.155.542.3.863.426.383.15.783.281 1.191.406 7.564-1.163 11.558-6.184 12.451-7.908h.004l.24-.584c-.058.06-.123.112-.183.17A7.955 7.955 0 0 0 32 29v-1zm-2.521 5.822z"/></g></svg>