<svg width="48" height="48" xmlns="http://www.w3.org/2000/svg"><path d="M24.108 4.002a4.566 4.548 0 0 0-2.391.606L8.283 12.334A4.566 4.548 0 0 0 6 16.274v15.452a4.566 4.548 0 0 0 2.283 3.939l13.434 7.726a4.566 4.548 0 0 0 4.565 0l13.434-7.726A4.566 4.548 0 0 0 42 31.726V16.273a4.566 4.548 0 0 0-2.283-3.939L26.282 4.608a4.566 4.548 0 0 0-2.175-.607z" style="fill:#37384b"/><path d="M24.107 4.002a4.566 4.548 0 0 0-2.39.606L8.283 12.334A4.566 4.548 0 0 0 6 16.274v1a4.566 4.548 0 0 1 2.283-3.94l13.434-7.726a4.566 4.548 0 0 1 2.39-.606 4.566 4.548 0 0 1 2.177.606l13.434 7.726A4.566 4.548 0 0 1 42 17.274v-1a4.566 4.548 0 0 0-2.283-3.94L26.284 4.608a4.566 4.548 0 0 0-2.176-.606z" style="fill:#f4f4f7;opacity:.1"/><path d="M6 31.726v1a4.566 4.548 0 0 0 2.283 3.938l13.434 7.726a4.566 4.548 0 0 0 4.567 0l13.434-7.727A4.566 4.548 0 0 0 42 32.725v-1a4.566 4.548 0 0 1-2.284 3.938L26.283 43.39a4.566 4.548 0 0 1-4.566 0L8.283 35.663A4.566 4.548 0 0 1 6 31.725z" style="opacity:.2"/><path d="m19 10-5 3v6l-5 3v6l5 3v6l5 3 5-3 5 3 5-3v-6l5-3v-6l-5-3v-6l-5-3-5 3z" style="opacity:.2"/><path d="m24 30 5-3v-6l-5-3-5 3v6z" style="fill:#f4f4f7"/><path d="m14 30 5-3v-6l-5-3-5 3v6z" style="fill:#37fb6e"/><path d="m19 39 5-3v-6l-5-3-5 3v6z" style="fill:#fdd600"/><path d="m29 39 5-3v-6l-5-3-5 3v6z" style="fill:#8a5ffd"/><path d="m19 21 5-3v-6l-5-3-5 3v6z" style="fill:#be4c01"/><path d="m29 21 5-3v-6l-5-3-5 3v6z" style="fill:#8b9cfd"/><path d="m34 30 5-3v-6l-5-3-5 3v6z" style="fill:#fdfd67"/></svg>