<svg xmlns="http://www.w3.org/2000/svg" width="48" height="48" version="1"><path style="fill:#636363" transform="rotate(44.949)" d="M17.76.94h31.429v6.029H17.76z"/><path style="opacity:.2" d="M26.752 5.006c-.511.043-.77.301-1.26.79l-1.705 1.702c-.77.602-.875.9-.875 1.808v5.59L10.115 27.672l-4.826.359c-1.32-.01-1.172.19-1.172 1.408l1.89 3.328 5.128 4.86 4.685 4.94 3.7 2.306c1.332.084 1.335.08 1.437-1.178l.361-4.842L34.115 26.08h5.065c1.003.137 1.244-.146 1.916-.817l2.072-2.066c.945-.703.828-1.232.828-2.34v-7.469l-1.035-2.705-4.625-4.615-2.754-1.035h-8.217a2.865 2.865 0 0 0-.613-.027zm-12.229.738L5 15.25c-.682.68-1.134.941-.965 1.95l.053 8.513c.03 1.656.055 1.298 1.152.212l14.8-14.675zM37.81 28.988l-14.7 14.775c-1.087 1.096-1.448 1.12.211 1.149l8.53.053c1.011.168 1.27-.282 1.953-.963l9.521-9.508z"/><path style="fill:#138f32" d="M26.752 4.006c-.511.043-.77.301-1.26.79l-1.705 1.702c-.77.602-.875.9-.875 1.809v5.59L10.115 26.671l-4.826.36c-1.32-.011-1.172.19-1.172 1.407l1.89 3.329 5.128 4.859 4.685 4.94 3.7 2.306c1.332.084 1.335.08 1.437-1.178l.361-4.841L34.115 25.08h5.065c1.003.137 1.244-.146 1.916-.816l2.072-2.067c.945-.703.828-1.232.828-2.34V12.39l-1.035-2.705-4.625-4.616-2.754-1.035h-8.217a2.865 2.865 0 0 0-.613-.027zm-12.229.738L5 14.25c-.682.681-1.134.941-.965 1.951l.053 8.512c.03 1.657.055 1.298 1.152.213l14.8-14.676-5.517-5.506zM37.81 27.988l-14.7 14.776c-1.087 1.095-1.448 1.119.211 1.148l8.53.053c1.011.168 1.27-.282 1.953-.963l9.521-9.508-5.515-5.506z"/><path style="opacity:.2;fill:#f4f4f7" d="M26.752 4.006c-.511.043-.77.301-1.26.79l-1.705 1.702c-.77.602-.875.9-.875 1.809v1c0-.908.106-1.207.875-1.809l1.705-1.701c.49-.49.749-.748 1.26-.791.17-.015.368-.005.613.027h8.217l2.754 1.035 4.625 4.616 1.035 2.705v-1l-1.035-2.705-4.625-4.616-2.754-1.035h-8.217a2.865 2.865 0 0 0-.613-.027zm-12.229.738L5 14.25c-.682.681-1.134.941-.965 1.951l.002.301c.108-.488.473-.763.963-1.252l9.523-9.506 5.014 5.004.502-.498-5.516-5.506zm8.39 9.152L10.114 26.672l-4.826.36c-1.32-.011-1.172.19-1.172 1.407l.022.038c.067-.372.31-.452 1.15-.446l4.826-.36 12.797-12.775v-1zm21.083 5.961v.77c.006-.226 0-.476 0-.77zm-6.187 8.131-14.7 14.776c-.98.987-1.287 1.1-.138 1.134.053-.052.081-.077.138-.134l14.7-14.776 5.015 5.006.5-.5-5.515-5.506z"/><path style="opacity:.2" d="m35.225 5.033 8.771 8.756v-2.574s0-1.565-1.02-2.582L40.612 6.27c-1.24-1.237-3-1.238-3-1.238zm-19.538.127c-.607-.028-1.16.578-1.16.578l-1.043 1.043 5.514 5.504 1.045-1.04s1.112-.947.275-1.782l-4.023-4.016a.904.904 0 0 0-.608-.287zM38.97 28.402c-.62-.04-1.153.582-1.153.582l-1.045 1.043 5.516 5.506 1.045-1.043s1.078-.978.291-1.763L39.6 28.71c-.21-.209-.425-.295-.631-.309zm-34.852.647v2.556S4.5 33.57 5.56 34.627l8.87 8.855c1.392 1.39 3.237 1.391 3.237 1.391h2.219l.04-.043z"/><path style="fill:#ff6e23" d="m35.225 4.033 8.771 8.756v-2.574s0-1.565-1.02-2.582L40.612 5.27c-1.24-1.237-3-1.238-3-1.238h-2.386zm-19.538.127c-.607-.028-1.16.578-1.16.578l-1.043 1.043 5.514 5.504 1.045-1.04s1.112-.947.275-1.782l-4.023-4.016a.904.904 0 0 0-.608-.287zM38.97 27.402c-.62-.04-1.153.582-1.153.582l-1.045 1.043 5.516 5.506 1.045-1.043s1.078-.978.291-1.763L39.6 27.71c-.21-.209-.425-.295-.631-.309zm-34.852.647v2.556S4.5 32.57 5.56 33.627l8.87 8.855c1.392 1.39 3.237 1.391 3.237 1.391h2.219l.04-.043L4.118 28.05z"/><path style="opacity:.2" d="M37.058 10.148C36.01 9.102 34.52 9.103 34.52 9.103h-1.716l-.302-.001-7.265.001 5.206 1.8h3.54l4.132 4.125-.001 3.533 1.805 5.198v-9.431s0-1.322-.86-2.182z"/><path style="fill:#ffd82b" d="M37.058 9.148C36.01 8.102 34.52 8.103 34.52 8.103h-1.716l-.302-.001-7.265.001 5.206 1.8h3.54l4.132 4.125-.001 3.533 1.805 5.198v-9.431s0-1.322-.86-2.182z"/><path style="opacity:.2;fill:#f4f4f7" d="m35.225 4.033 1.002 1h1.384s1.76.001 3 1.238l2.366 2.362c1.018 1.017 1.02 2.582 1.02 2.582v-1s-.002-1.565-1.02-2.582L40.61 5.27c-1.24-1.237-3-1.238-3-1.238h-2.386zm-19.538.127c-.607-.028-1.16.578-1.16.578l-1.043 1.043.5.5.543-.543s.553-.606 1.16-.578c.203.01.411.09.608.287l4.023 4.016c.074.074.117.148.162.223.183-.344.266-.796-.162-1.223l-4.023-4.016a.904.904 0 0 0-.608-.287zM38.97 27.402c-.62-.04-1.153.582-1.153.582l-1.045 1.043.5.5.545-.543s.533-.622 1.153-.582c.206.014.421.1.63.309l4.024 4.016c.064.063.098.13.139.195.179-.346.263-.794-.139-1.195L39.6 27.71c-.21-.209-.425-.295-.631-.309zm-34.852.647v1l14.85 14.824h.918l.04-.043L4.118 28.05zM32.504 8.102l-7.266.002 2.889 1 4.377-.002.3.002h1.717s1.49-.002 2.538 1.044l2 1.998c.861.86.86 2.182.86 2.182v-1s.001-1.322-.86-2.182l-2-1.998C36.01 8.102 34.52 8.104 34.52 8.104h-1.716l-.301-.002z"/></svg>