<svg xmlns="http://www.w3.org/2000/svg" width="48" height="48"><path style="opacity:.2" d="M19.544 5.003c-.536.006-1.082.018-1.635.04-2.21.088-4.518.33-6.638.909-2.119.578-4.113 1.51-5.523 3.159-.948 1.108-1.538 2.536-1.702 4.169h-.023l.002.23a9.883 9.883 0 0 0 .046 1.887c.235 5.827 1.378 11.597 4.071 16.654 3.02 5.669 8.084 10.363 15.51 12.819a2.552 2.531 0 0 0 1.855-.092C38.47 38.99 43.59 28.014 43.933 15.844a1.72 1.706 0 0 0 .019-.165c.07-.776.06-1.512-.013-2.211-.001-.073 0-.146-.002-.22l-.026.001c-.222-1.748-.873-3.24-1.89-4.382-1.462-1.64-3.483-2.521-5.599-3.035-4.231-1.028-9.138-.692-12.463-.769h-.002c-1.295-.03-2.806-.076-4.413-.06z"/><path style="fill:#17aeff" d="M19.544 4.003c-.536.006-1.082.018-1.635.04-2.21.088-4.518.33-6.638.909-2.119.578-4.113 1.51-5.523 3.159C4.8 9.219 4.21 10.647 4.046 12.28h-.023l.002.23a9.883 9.883 0 0 0 .046 1.887c.235 5.827 1.378 11.597 4.071 16.654 3.02 5.669 8.084 10.363 15.51 12.819a2.552 2.531 0 0 0 1.855-.092C38.47 37.99 43.59 27.014 43.933 14.844a1.72 1.706 0 0 0 .019-.165c.07-.776.06-1.512-.013-2.211-.001-.073 0-.146-.002-.22l-.026.001c-.222-1.748-.873-3.24-1.89-4.382-1.462-1.64-3.483-2.521-5.599-3.035-4.231-1.028-9.138-.692-12.463-.769h-.002c-1.295-.03-2.806-.076-4.413-.06z"/><path style="opacity:.1" d="M15 7c-.554 0-1 .446-1 1v8H9c.252 5.026 1.314 10.327 3.51 14.29C14.89 34.581 18.242 37.935 24 40c5.758-2.064 9.11-5.418 11.49-9.71C37.686 26.326 38.748 21.025 39 16h-5V8c0-.554-.446-1-1-1zm3.549 2h2.902c.303 0 .549.246.549.549v2.902a.549.549 0 0 1-.549.549H18.55a.549.549 0 0 1-.549-.549V9.55c0-.303.246-.549.549-.549zm8 0h2.902c.303 0 .549.246.549.549v2.902a.549.549 0 0 1-.549.549H26.55a.549.549 0 0 1-.549-.549V9.55c0-.303.246-.549.549-.549zm-2.658 9c3.674 0 7.137 2.456 8.25 5.627.065.189-.07.388-.264.389h-3.56a.279.279 0 0 1-.227-.121c-.968-1.382-2.438-1.91-4.268-1.91-3.087 0-4.808 2.002-4.808 5.027 0 3.058 1.918 5.103 4.988 5.103 1.872 0 3.383-.589 4.277-2.084h-4.947a.284.284 0 0 1-.28-.287v-3.416c0-.16.125-.288.28-.289h9.389c.154 0 .279.13.279.29V26.74a.302.302 0 0 1-.008.07C32.954 31.518 29.122 36 24.176 36 19.014 36 15 32.04 15 26.965 15 21.979 18.965 18 23.89 18z"/><path style="fill:#173a4d" d="M9 15c.252 5.026 1.314 10.327 3.51 14.29C14.89 33.581 18.242 36.935 24 39c5.758-2.064 9.11-5.418 11.49-9.71C37.686 25.326 38.748 20.025 39 15H13.477zm14.89 2c3.675 0 7.138 2.456 8.25 5.627.066.189-.069.388-.263.389h-3.56a.279.279 0 0 1-.227-.121c-.968-1.382-2.438-1.91-4.268-1.91-3.087 0-4.808 2.002-4.808 5.027 0 3.058 1.918 5.103 4.988 5.103 1.872 0 3.383-.589 4.277-2.084h-4.947a.284.284 0 0 1-.28-.287v-3.416c0-.16.125-.288.28-.289h9.389c.154 0 .279.13.279.29V25.74a.302.302 0 0 1-.008.07C32.954 30.518 29.122 35 24.176 35 19.014 35 15 31.04 15 25.965 15 20.979 18.965 17 23.89 17z"/><path style="fill:#173a4d" d="M15 6c-.554 0-1 .446-1 1v8c0 .554.446 1 1 1h18c.554 0 1-.446 1-1V7c0-.554-.446-1-1-1zm3.549 2h2.902c.303 0 .549.246.549.549v2.902a.549.549 0 0 1-.549.549H18.55a.549.549 0 0 1-.549-.549V8.55c0-.303.246-.549.549-.549zm8 0h2.902c.303 0 .549.246.549.549v2.902a.549.549 0 0 1-.549.549H26.55a.549.549 0 0 1-.549-.549V8.55c0-.303.246-.549.549-.549z"/><path style="opacity:.2;fill:#f4f4f7" d="M19.543 4.004c-.536.005-1.082.017-1.635.039-2.21.088-4.517.33-6.637.908-2.119.578-4.113 1.511-5.523 3.16C4.8 9.22 4.21 10.646 4.045 12.28h-.022l.002.23a9.558 9.558 0 0 0-.004 1.182c.004-.06 0-.122.004-.181l-.002-.23h.022c.165-1.634.755-3.06 1.703-4.169 1.41-1.649 3.404-2.582 5.523-3.16 2.12-.578 4.427-.82 6.637-.908.553-.022 1.1-.034 1.635-.04 1.607-.015 3.12.03 4.414.06h.002c3.326.076 8.231-.259 12.463.769 2.116.514 4.136 1.395 5.598 3.035 1.017 1.141 1.669 2.634 1.89 4.383l.028-.002.001.22c.022.21.027.428.038.643.023-.566.017-1.118-.038-1.642-.001-.074 0-.148-.002-.221l-.027.002c-.221-1.749-.873-3.242-1.89-4.383-1.462-1.64-3.482-2.52-5.598-3.035-4.232-1.028-9.137-.693-12.463-.77h-.002c-1.295-.03-2.807-.074-4.414-.058z"/></svg>