<svg height="48" width="48" xmlns="http://www.w3.org/2000/svg"><rect fill="#2a74c2" height="40" rx="2" width="40" x="4" y="4"/><g opacity=".5"><path d="m1 15.818 9.66-2.588 4.658 17.386-9.66 2.589zm5.176 19.318 9.66-2.588 1.035 3.864-9.661 2.588zm17.036-28.906 9.659 2.588-4.659 17.386-9.659-2.588zm-5.177 19.318 9.66 2.588-1.036 3.864-9.659-2.588z"/><path d="m38 15.215 8.66 5-9 15.589-8.66-5zm-10 17.321 8.66 5-2 3.464-8.66-5z"/></g><path d="m6 4c-1.108 0-2 .892-2 2v1c0-1.108.892-2 2-2h36c1.108 0 2 .892 2 2v-1c0-1.108-.892-2-2-2z" fill="#fff" opacity=".2"/><path d="m6 45c-1.108 0-2-.892-2-2v-1c0 1.108.892 2 2 2h36c1.108 0 2-.892 2-2v1c0 1.108-.892 2-2 2z" opacity=".2"/><path d="m1 14.818 9.66-2.588 4.658 17.386-9.66 2.589zm5.176 19.318 9.66-2.588 1.035 3.864-9.661 2.588z" fill="#fff"/><path d="m2.225 15.525 7.727-2.07 4.141 15.454-7.727 2.07zm5.175 19.319 7.728-2.071.518 1.932-7.727 2.07z" fill="#b0b0b0"/><path d="m23.212 5.23 9.659 2.588-4.659 17.386-9.659-2.588zm-5.177 19.318 9.66 2.588-1.036 3.864-9.659-2.588z" fill="#fff"/><path d="m23.919 6.454 7.727 2.07-4.14 15.456-7.728-2.07zm-5.177 19.319 7.728 2.07-.518 1.932-7.727-2.07z" fill="#b0b0b0"/><path d="m38 14.215 8.66 5-9 15.589-8.66-5zm-10 17.321 8.66 5-2 3.464-8.66-5z" fill="#fff"/><path d="m38.367 15.582 6.928 4-8 13.856-6.928-4zm-10 17.32 6.928 4-1 1.732-6.928-4z" fill="#b0b0b0"/></svg>