<svg xmlns="http://www.w3.org/2000/svg" width="48" height="48" version="1"><path fill="#f80" fill-rule="evenodd" d="M11 27.01a2 2 0 0 0-1.846 1.23l-5 12A2 2 0 0 0 6 43.01h36a2 2 0 0 0 1.846-2.77l-5-12A2 2 0 0 0 37 27.01z"/><path fill="#fff" fill-rule="evenodd" opacity=".2" d="M11 27.01a2 2 0 0 0-1.846 1.23l-5 12c-.18.431-.184.872-.076 1.276.024-.092.038-.184.076-.275l5-12A2 2 0 0 1 11 28.01h26a2 2 0 0 1 1.846 1.23l5 12c.038.092.052.184.076.276a1.961 1.961 0 0 0-.076-1.276l-5-12A2 2 0 0 0 37 27.01H11z"/><path fill="#f80" fill-rule="evenodd" d="M24.004 2.99a7.111 7.111 0 0 0-2.75.512 2 2 0 0 0-1.172 1.29l-1.84 6.218c3.175 12.01 8.767 2.222 11.516 0l-1.84-6.219a2 2 0 0 0-1.268-1.324 8.419 8.419 0 0 0-2.646-.477zm-8.129 16.02-2.22 7.5c1.055 9.18 11.9 5.074 20.614-.255l-2.144-7.245c-5.5 2.188-8.03-3.236-16.25 0z"/><path fill="#fff" fill-rule="evenodd" d="m18.242 11.01-2.367 8c6.125 2.75 10.75 2.187 16.25 0l-2.367-8c-2.758 2-8.758 2-11.516 0zm-2.367 8-3.793 12.814a2 2 0 0 0 .773 2.207c3.083 2.15 7.086 3.015 11.07 2.977 3.985-.039 7.982-.986 11.121-2.913a2 2 0 0 0 .871-2.271l-1.648-5.57c-8.706 5.273-18.46 1.519-20.613.256l2.219-7.5z"/><path fill="#fff" opacity=".2" d="M23.85 2.994c-2.123 0-3.535.648-3.535 1.502 0 .16.082.324.201.487.451-.586 1.667-.989 3.334-.989 1.673 0 3.192.514 3.768 1.149.156-.166.253-.328.253-.47 0-.853-1.898-1.679-4.021-1.679z"/><path fill-rule="evenodd" opacity=".2" d="M4.08 41.502C3.756 42.74 4.67 44 6 44h36a2.001 2.001 0 0 0 1.982-2.272c-.01-.068-.039-.137-.056-.207A1.995 1.995 0 0 1 42 42.99H6c-.959 0-1.696-.659-1.92-1.488z"/></svg>