<svg xmlns="http://www.w3.org/2000/svg" width="48" height="48" version="1"><rect style="fill:#288cf4" width="40" height="40" x="4" y="4" rx="2" ry="2"/><path fill="#fff" style="opacity:.2" d="M6 4c-1.108 0-2 .892-2 2v1c0-1.108.892-2 2-2h36c1.108 0 2 .892 2 2V6c0-1.108-.892-2-2-2H6z"/><path opacity=".2" d="M6 45c-1.108 0-2-.892-2-2v-1c0 1.108.892 2 2 2h36c1.108 0 2-.892 2-2v1c0 1.108-.892 2-2 2H6z"/><path style="opacity:.2" d="m9.578 14 6.477 21.484c.007.013.012.017.02.03.227.854 1 1.486 1.925 1.486.878 0 1.616-.57 1.885-1.357.006-.012.02-.026.025-.038L26.422 14h-2.088L18 35.01 11.666 14zM33 14a5 5 0 0 0-5 5v5h2v-5c0-1.68 1.32-3 3-3s3 1.32 3 3v5h2v-5a5 5 0 0 0-5-5zm0 13a5 5 0 0 0-5 5 5 5 0 0 0 5 5h5v-2h-5c-1.68 0-3-1.32-3-3s1.32-3 3-3h5v-2z"/><path style="fill:#f4f4f7" d="m9.578 13 6.477 21.484c.007.013.012.017.02.03.227.854 1 1.486 1.925 1.486.878 0 1.616-.57 1.885-1.357.006-.012.02-.026.025-.038L26.422 13h-2.088L18 34.01 11.666 13H9.578zM33 13a5 5 0 0 0-5 5v5h2v-5c0-1.68 1.32-3 3-3s3 1.32 3 3v5h2v-5a5 5 0 0 0-5-5zm0 13a5 5 0 0 0-5 5 5 5 0 0 0 5 5h5v-2h-5c-1.68 0-3-1.32-3-3s1.32-3 3-3h5v-2h-5z"/></svg>