<svg height="48" width="48" xmlns="http://www.w3.org/2000/svg">
    <path d="M20 35c-.554 0-1 .446-1 1v4s0 1-1 1h-2c-.554 0-1 .446-1 1v2c0 .554.446 1 1 1h15c.554 0 1-.446 1-1v-2c0-.554-.446-1-1-1h-2s-1 .004-1-1v-4c0-.554-.446-1-1-1z" fill="#a3b7cc"/>
    <path d="M20 36v4s.008 2-2 2h-2v2h15v-2h-2s-2 .007-2-2v-4z" fill="#e1ebf2"/>
    <path d="M4 3h40c1.108 0 2 .892 2 2v30c0 1.108-.892 2-2 2H4c-1.108 0-2-.892-2-2V5c0-1.108.892-2 2-2z" fill="#36404d"/>
    <path d="M5 5h38c.554 0 1 .446 1 1v28c0 .554-.446 1-1 1H5c-.554 0-1-.446-1-1V6c0-.554.446-1 1-1z" fill="#ff778a"/>
    <g fill="#ffe8eb">
        <path d="M5.995 7v4h2V9h2V7h-2zM39.5 7C38.115 7 37 8.115 37 9.5s1.115 2.5 2.5 2.5S42 10.885 42 9.5 40.885 7 39.5 7zM17 15c-.554 0-1 .445-1 1v8c0 .553.446 1 1 1h8c.554 0 1-.447 1-1v-2.587l3.293 3.293c.63.63 1.707.184 1.707-.707v-8a1 1 0 0 0-1.707-.707L26 18.585V16c0-.554-.446-1-1-1zM6 29v4h4v-2H8v-2zM40 29v2h-2v2h4v-4z"/>
    </g>
</svg>
