<svg xmlns="http://www.w3.org/2000/svg" width="48" height="48" version="1">
    <path fill="#0286c2" d="m44 6-4 4v18c0 1.108-.892 2-2 2H18c-1.108 0-2-.892-2-2V8c0-1.108.892-2 2-2h26z"/>
    <path fill="#4bae4f" d="m44 6-4 4v18c0 1.108-.892 2-2 2H18c-1.108 0-2-.892-2-2V8c0-1.108.892-2 2-2h26z"/>
    <path opacity=".2" d="m43 7-3 3v1l4-4h-1zM16 28v1c0 1.108.892 2 2 2h20c1.108 0 2-.892 2-2v-1c0 1.108-.892 2-2 2H18c-1.108 0-2-.892-2-2z"/>
    <path fill="#8ac249" d="m4 18 4 4v18c0 1.108.892 2 2 2h20c1.108 0 2-.892 2-2V20c0-1.108-.892-2-2-2H4z"/>
    <path opacity=".2" d="m4 19 4 4v-1l-3-3H4zm4 21v1c0 1.108.892 2 2 2h20c1.108 0 2-.892 2-2v-1c0 1.108-.892 2-2 2H10c-1.108 0-2-.892-2-2z"/>
    <path fill="#fff" opacity=".2" d="M18 6c-1.108 0-2 .892-2 2v.5c0-1.108.892-2 2-2h25.5L44 6H18zM4 18l.5.5H30c1.108 0 2 .892 2 2V20c0-1.108-.892-2-2-2H4z"/>
    <path opacity=".2" d="m17.411 23-.706 4H14v2h2.353l-.706 4H13v2h2.295l-.705 4h2l.705-4h4l-.705 4h2l.705-4H26v-2h-2.352l.705-4H27v-2h-2.294l.705-4h-2l-.705 4h-4l.705-4zm.942 6h4l-.705 4h-4z"/>
    <path fill="#fff" d="m17.411 22-.706 4H14v2h2.353l-.706 4H13v2h2.295l-.705 4h2l.705-4h4l-.705 4h2l.705-4H26v-2h-2.352l.705-4H27v-2h-2.294l.705-4h-2l-.705 4h-4l.705-4zm.942 6h4l-.705 4h-4z"/>
</svg>
