<svg xmlns="http://www.w3.org/2000/svg" width="48" height="48" version="1"><rect style="opacity:.2" width="40" height="40" x="4" y="5" rx="12" ry="12"/><rect style="fill:#40e0ca" width="40" height="40" x="4" y="4" rx="12" ry="12"/><path style="opacity:.2;fill:#f4f4f7" d="M16 4C9.352 4 4 9.352 4 16v1C4 10.352 9.352 5 16 5h16c6.648 0 12 5.352 12 12v-1c0-6.648-5.352-12-12-12z"/><path style="opacity:.2" d="M29.576 36.526c-.552-.273-1.166-.726-1.442-1.065-.635-.78-.837-.934-1.436-.483-.78.587-1.846.895-2.84.986-1.337.124-1.444-.01-.924-1.154.887-1.95.887-3.29.002-5.236-.604-1.33-.925-1.536-2.379-1.53-.728.003-1.498.113-2 .284-.9.307-2.318.797-2.45 1.139-.05.128.132.394.444.647a2.802 2.802 0 0 1 .823 3.252c-.217.515-.649 1.025-.866 1.025-.068 0-.243-.31-.39-.689-.146-.379-.445-1.227-.664-1.397-1.21-.94-3.694.764-4.415 2.715-.186.504-.41.893-.497.864-.343-.113-.596-1.263-.532-2.414.099-1.774 1.037-3.255 2.6-4.103l.541-.294.177-1.76c.205-2.042.504-3.165 1.244-4.661 1.208-2.443 3.458-4.477 5.856-5.61.727-.343 1.496-.71 1.71-.815.285-.14.375-.29.338-.566-.076-.561-.746-1.95-1.195-2.478-.499-.584-.343-.808.72-1.033a7.024 7.024 0 0 1 4.633.62c.896.451 2.227 1.733 2.815 2.712.436.725.652.903 1.825 1.503 5.584 2.856 8.052 9.03 6.023 15.07-.315.936-.77 1.876-1.239 2.56-1.18 1.72-2.406 2.385-4.4 2.385-.942 0-1.274-.076-2.082-.474z"/><path style="fill:#f4f4f7" d="M29.576 35.526c-.552-.273-1.166-.726-1.442-1.065-.635-.78-.837-.934-1.436-.483-.78.587-1.846.895-2.84.986-1.337.124-1.444-.01-.924-1.154.887-1.95.887-3.29.002-5.236-.604-1.33-.925-1.536-2.379-1.53-.728.003-1.498.113-2 .284-.9.307-2.318.797-2.45 1.139-.05.128.132.394.444.647a2.802 2.802 0 0 1 .823 3.252c-.217.515-.649 1.025-.866 1.025-.068 0-.243-.31-.39-.689-.146-.379-.445-1.227-.664-1.397-1.21-.94-3.694.764-4.415 2.715-.186.504-.41.893-.497.864-.343-.113-.596-1.263-.532-2.414.099-1.774 1.037-3.255 2.6-4.103l.541-.294.177-1.76c.205-2.042.504-3.165 1.244-4.661 1.208-2.443 3.458-4.477 5.856-5.61.727-.343 1.496-.71 1.71-.815.285-.14.375-.29.338-.566-.076-.561-.746-1.95-1.195-2.478-.499-.584-.343-.808.72-1.033a7.024 7.024 0 0 1 4.633.62c.896.451 2.227 1.733 2.815 2.712.436.725.652.903 1.825 1.503 5.584 2.856 8.052 9.03 6.023 15.07-.315.936-.77 1.876-1.239 2.56-1.18 1.72-2.406 2.385-4.4 2.385-.942 0-1.274-.076-2.082-.474z"/></svg>