<svg height="48" width="48" xmlns="http://www.w3.org/2000/svg"><rect height="40" opacity=".2" rx="12" width="40" x="4" y="5"/><rect fill="#4f4f4f" height="40" rx="12" width="40" x="4" y="4"/><path d="m16.939 35.915a13 13 0 0 1 -5.412-14.58 13 13 0 0 1 12.439-9.335 13 13 0 0 1 12.487 9.27 13 13 0 0 1 -5.335 14.608" style="opacity:.2;fill:none;stroke:#000;stroke-width:4;stroke-linecap:round;stroke-linejoin:round"/><path d="m16 4c-6.648 0-12 5.352-12 12v1c0-6.648 5.352-12 12-12h16c6.648 0 12 5.352 12 12v-1c0-6.648-5.352-12-12-12z" fill="#f4f4f7" opacity=".1"/><g fill="none" stroke-linecap="round" stroke-linejoin="round" stroke-width="4"><path d="m16.939 34.915a13 13 0 0 1 -5.412-14.58 13 13 0 0 1 12.439-9.335 13 13 0 0 1 12.487 9.27 13 13 0 0 1 -5.335 14.608" stroke="#ececec"/><path d="m20.076 30.797a7 7 0 0 1 -2.773-7.834 7 7 0 0 1 6.667-4.963 7 7 0 0 1 6.71 4.904 7 7 0 0 1 -2.704 7.858" opacity=".2" stroke="#000"/><path d="m20.076 29.796a7 7 0 0 1 -2.773-7.834 7 7 0 0 1 6.667-4.962 7 7 0 0 1 6.71 4.904 7 7 0 0 1 -2.704 7.858" stroke="#ececec"/></g><circle cx="24" cy="25" opacity=".2" r="3"/><circle cx="24" cy="24" fill="#f4f4f7" r="3"/></svg>