<svg height="48" width="48" xmlns="http://www.w3.org/2000/svg">
    <rect height="40" opacity=".2" rx="12" width="40" x="4" y="5"/>
    <rect fill="#4f4f4f" height="40" rx="12" width="40" x="4" y="4"/>
    <path d="M16.939 35.915a13 13 0 0 1-5.412-14.58A13 13 0 0 1 23.966 12a13 13 0 0 1 12.487 9.27 13 13 0 0 1-5.335 14.608" style="opacity:.2;fill:none;stroke:#000;stroke-width:4;stroke-linecap:round;stroke-linejoin:round"/>
    <path d="M16 4C9.352 4 4 9.352 4 16v1C4 10.352 9.352 5 16 5h16c6.648 0 12 5.352 12 12v-1c0-6.648-5.352-12-12-12z" fill="#f4f4f7" opacity=".1"/>
    <g fill="none" stroke-linecap="round" stroke-linejoin="round" stroke-width="4">
        <path d="M16.939 34.915a13 13 0 0 1-5.412-14.58A13 13 0 0 1 23.966 11a13 13 0 0 1 12.487 9.27 13 13 0 0 1-5.335 14.608" stroke="#ececec"/>
        <path d="M20.076 30.797a7 7 0 0 1-2.773-7.834A7 7 0 0 1 23.97 18a7 7 0 0 1 6.71 4.904 7 7 0 0 1-2.704 7.858" opacity=".2" stroke="#000"/>
        <path d="M20.076 29.796a7 7 0 0 1-2.773-7.834A7 7 0 0 1 23.97 17a7 7 0 0 1 6.71 4.904 7 7 0 0 1-2.704 7.858" stroke="#ececec"/>
    </g>
    <circle cx="24" cy="25" opacity=".2" r="3"/>
    <circle cx="24" cy="24" fill="#f4f4f7" r="3"/>
</svg>
