<svg xmlns="http://www.w3.org/2000/svg" width="48" height="48"><path style="opacity:.2" d="M20 20c-1 0-2 2-3.926 2H4v18c0 3 3 3 3 3h34s3 0 3-3V20z"/><path style="fill:#4456ac" d="M4 26h40V12c0-3-3-3-3-3H24c-1 0-2.116-3-3.943-3H7S4 6 4 9z"/><rect style="fill:#f4f4f7" width="38" height="9" x="5" y="13" rx="1" ry="1"/><path style="fill:#5369cc" d="M20 19c-1 0-2 2-3.926 2H4v18c0 3 3 3 3 3h34s3 0 3-3V19z"/><path style="fill:#f4f4f7;opacity:.1" d="M7 6S4 6 4 9v1c0-3 3-3 3-3h13.057C21.884 7 23 10 24 10h17s3 0 3 3v-1c0-3-3-3-3-3H24c-1 0-2.116-3-3.943-3H7z"/></svg>