<svg xmlns="http://www.w3.org/2000/svg" width="48" height="48" version="1"><circle style="opacity:.2" cx="24" cy="25" r="20"/><circle style="fill:#00796b" cx="24" cy="24" r="20"/><path style="opacity:.1;fill:#f4f4f7" d="M24 4A20 20 0 0 0 4 24a20 20 0 0 0 .021.582A20 20 0 0 1 24 5a20 20 0 0 1 19.979 19.418A20 20 0 0 0 44 24 20 20 0 0 0 24 4z"/><path style="opacity:.2" d="M26.762 11c-.485-.01-.839.164-1.157.526-.271.31-.574.864-.673 1.234-.363 1.36-2.06 2.234-3.557 1.83-.734-.197-1.083-.51-2.271-2.03-.542-.693-1.003-.677-2.33.08-1.262.718-1.414 1.186-.844 2.603.235.586.435 1.334.44 1.666.01.82-.715 2.118-1.8b9cbe 2.586-.598.383-1.85.47-2.852.201-.952-.256-1.44.197-1.842 1.705-.313 1.174-.311 1.348.018 1.723.201.23.854.626 1.451.883.598.256 1.259.659 1.467.896.44.5.72 1.946.523 2.705-.142.551-.823 1.408-1.375 1.733-.6.354-1.18 1.139-1.162 1.572.023.555.81 1.94 1.313 2.308.287.21.53.24.9.102 1.083-.404 2.827-.69 3.352-.549.792.213 1.919 1.268 2.052 1.924.063.309.062.988 0 1.51-.15 1.264-.027 1.913.409 2.136.198.102.515.267.705.368.189.102.643.224 1.01.271.954.124 1.63-.431 2.156-1.78.48-1.232.65-1.405 1.74-1.753 1.107-.353 1.877-.273 2.514.262.528.443.734.654 1.547 1.584.595.68 1.066.722 2.109.177 1.568-.819 1.727-1.315.951-2.943-.738-1.549-.338-3.104 1.035-4.01.526-.347.932-.406 2.194-.324 1.905.124 2.279-.094 2.677-1.568.398-1.473.23-1.777-1.396-2.502-1.548-.69-1.969-1.194-2.193-2.633-.187-1.197.109-1.79 1.507-2.986.718-.614 1.121-1.095 1.123-1.342.005-.553-1.256-2.547-1.685-2.662-.199-.054-.802.09-1.342.318-1.49.627-2.286.647-3.266.078-1.15-.668-1.451-1.315-1.359-2.922.106-1.844-.043-2.22-1.035-2.613-.33-.131-.62-.23-.879-.29v-.001a2.655 2.655 0 0 0-.531-.072z"/><path style="fill:#18c28c" d="M26.762 10c-.485-.01-.839.164-1.157.526-.271.31-.574.864-.673 1.234-.363 1.36-2.06 2.234-3.557 1.83-.734-.197-1.083-.51-2.271-2.03-.542-.693-1.003-.677-2.33.08-1.262.718-1.414 1.186-.844 2.603.235.586.435 1.334.44 1.666.01.82-.715 2.118-1.8b9cbe 2.586-.598.383-1.85.47-2.852.201-.952-.256-1.44.197-1.842 1.705-.313 1.174-.311 1.348.018 1.723.201.23.854.626 1.451.883.598.256 1.259.659 1.467.896.44.5.72 1.946.523 2.705-.142.551-.823 1.408-1.375 1.733-.6.354-1.18 1.139-1.162 1.572.023.555.81 1.941 1.313 2.308.287.21.53.24.9.102 1.083-.404 2.827-.69 3.352-.549.792.213 1.919 1.268 2.052 1.924.063.309.062.988 0 1.51-.15 1.264-.027 1.913.409 2.136.198.102.515.267.705.368.189.102.643.224 1.01.271.954.124 1.63-.431 2.156-1.78.48-1.232.65-1.405 1.74-1.753 1.107-.353 1.877-.273 2.514.262.528.443.734.654 1.547 1.584.595.68 1.066.722 2.109.177 1.568-.819 1.727-1.315.951-2.943-.738-1.549-.338-3.104 1.035-4.01.526-.347.932-.406 2.194-.324 1.905.124 2.279-.094 2.677-1.568.398-1.473.23-1.777-1.396-2.502-1.548-.69-1.969-1.194-2.193-2.633-.187-1.197.109-1.79 1.507-2.986.718-.614 1.121-1.095 1.123-1.342.005-.553-1.256-2.547-1.685-2.662-.199-.054-.802.09-1.342.318-1.49.627-2.286.647-3.266.078-1.15-.668-1.451-1.315-1.359-2.922.106-1.844-.043-2.22-1.035-2.613-.33-.131-.62-.23-.879-.29v-.001a2.655 2.655 0 0 0-.531-.072z"/><circle style="opacity:.2" cx="24" cy="25" r="6"/><circle style="fill:#f4f4f7" cx="24" cy="24" r="6"/><path style="opacity:.2;fill:#f4f4f7" d="M26.762 10c-.485-.011-.839.163-1.157.525-.271.31-.574.864-.673 1.235-.363 1.359-2.06 2.233-3.557 1.83-.734-.198-1.083-.51-2.271-2.031-.542-.692-1.003-.677-2.33.08-1.028.586-1.29 1.033-1.055 1.935.153-.333.485-.61 1.054-.935 1.328-.757 1.79-.772 2.33-.08 1.19 1.52 1.538 1.833 2.272 2.03 1.497.404 3.194-.47 3.557-1.83.099-.37.402-.924.673-1.234.318-.362.672-.536 1.157-.525.161.004.337.028.531.072v.002c.259.06.548.158.879.29.694.274.97.553 1.04 1.32.067-1.554-.112-1.953-1.04-2.32-.33-.132-.62-.23-.879-.29v-.002a2.655 2.655 0 0 0-.531-.072zm2.453 3.625c-.005.126 0 .208-.008.352-.092 1.606.208 2.253 1.36 2.921.98.57 1.775.55 3.265-.078.54-.227 1.143-.372 1.342-.318.325.088 1.126 1.252 1.494 2.053.113-.158.19-.296.191-.39.005-.554-1.256-2.548-1.685-2.663-.199-.054-.802.091-1.342.318-1.49.628-2.286.647-3.266.078-.971-.564-1.316-1.149-1.351-2.273zm-12.928 2.826c-.203.767-.778 1.669-1.361 2.043-.598.384-1.85.471-2.852.201-.952-.256-1.44.197-1.842 1.705-.251.945-.289 1.243-.127 1.518.036-.154.07-.305.127-.518.402-1.508.89-1.961 1.842-1.705 1.001.27 2.254.183 2.852-.2.73-.469 1.455-1.767 1.443-2.587-.001-.103-.048-.29-.082-.457zm17.94 6.031c-.062.302-.059.623.002 1.01.224 1.44.645 1.943 2.193 2.633.869.387 1.312.66 1.484 1.049.213-1.056-.06-1.414-1.484-2.049-1.548-.69-1.969-1.193-2.193-2.633l-.002-.01zM13.703 26.48c-.007.039-.002.092-.012.128-.142.551-.823 1.408-1.375 1.733-.6.354-1.18 1.139-1.162 1.572.006.137.06.325.143.535.202-.401.599-.86 1.02-1.107.55-.325 1.232-1.182 1.374-1.733.078-.3.065-.713.012-1.128zM31.6 32.527c-.106.632-.015 1.316.312 2.002.163.341.274.624.35.88.204-.45.07-.997-.35-1.88a3.723 3.723 0 0 1-.312-1.002zm-12.813 2.399c-.007.094-.005.193-.016.281-.067.57-.072 1-.025 1.338.01-.115.01-.21.025-.338a6.45 6.45 0 0 0 .016-1.281z"/></svg>