<svg height="48" width="48" xmlns="http://www.w3.org/2000/svg">
    <path d="M6 2h36c2.216 0 4 1.784 4 4v36c0 2.216-1.784 4-4 4H6c-2.216 0-4-1.784-4-4V6c0-2.216 1.784-4 4-4z" fill="#36404d"/>
    <path d="M6 3h36c1.662 0 3 1.338 3 3v36c0 1.662-1.338 3-3 3H6c-1.662 0-3-1.338-3-3V6c0-1.662 1.338-3 3-3z" fill="#4b6477" opacity=".97"/>
    <path d="M7 5c-1.108 0-2 .892-2 2s.892 2 2 2 2-.892 2-2-.892-2-2-2zm34 0c-1.108 0-2 .892-2 2s.892 2 2 2 2-.892 2-2-.892-2-2-2zm-17 7c-3.878 0-7 3.122-7 7v2c-1.108 0-2 .892-2 2v11c0 1.108.892 2 2 2h14c1.108 0 2-.892 2-2V23c0-1.108-.892-2-2-2v-2c0-3.878-3.122-7-7-7zm0 3c2.216 0 4 1.784 4 4v2h-8v-2c0-2.216 1.784-4 4-4zM7 22c-1.108 0-2 .892-2 2s.892 2 2 2 2-.892 2-2-.892-2-2-2zm34 0c-1.108 0-2 .892-2 2s.892 2 2 2 2-.892 2-2-.892-2-2-2zm-17 3a1.996 1.996 0 0 1 1 3.725V32h-2v-3.275A1.996 1.996 0 0 1 24 25zM7 39c-1.108 0-2 .892-2 2s.892 2 2 2 2-.892 2-2-.892-2-2-2zm34 0c-1.108 0-2 .892-2 2s.892 2 2 2 2-.892 2-2-.892-2-2-2z" fill="#dde8ee" opacity=".97"/>
</svg>
