<svg height="48" viewBox="0 0 48 48" width="48" xmlns="http://www.w3.org/2000/svg"><g transform="translate(36 -254.649985)"><path d="m-12.000012 256.65h.000025c12.1879953 0 21.999987 9.81199 21.999987 21.99999 0 12.18801-9.8119917 21.99998-21.999987 21.99998h-.000025c-12.187997 0-21.999989-9.81197-21.999989-21.99998 0-12.188 9.811992-21.99999 21.999989-21.99999z" fill="#007042"/><path d="m-12 257.65h.000023c11.6339973 0 20.9999883 9.36599 20.9999883 20.99999 0 11.63401-9.365991 20.99999-20.9999883 20.99999h-.000023c-11.633997 0-20.999989-9.36598-20.999989-20.99999 0-11.634 9.365992-20.99999 20.999989-20.99999z" fill="#24b17a"/><path d="m-12.000014 265.64999h.000028c7.2019863 0 12.9999863 5.79799 12.9999863 12.99999 0 7.20198-5.798 12.99998-12.9999863 12.99998h-.000028c-7.202 0-12.999986-5.798-12.999986-12.99998 0-7.202 5.797986-12.99999 12.999986-12.99999z" fill="#007042" opacity=".99"/><path d="m-12 290.64998c-6.648 0-12-5.35199-12-12s5.352-12 12-12c6.6480003 0 12.0000003 5.35199 12.0000003 12s-5.352 12-12.0000003 12z" fill="#dcf1e9"/><path d="m-12 284.64998c1.108 0 2.0000003-.892 2.0000003-2v-4h2a1.0001 1.0001 0 0 0 .707031-1.70702l-4.0000003-4a1.0001 1.0001 0 0 0 -1.414062 0l-4 4a1.0001 1.0001 0 0 0 .707031 1.70702h2v4c0 1.108.892 2 2 2z" fill="#007042"/></g></svg>