<svg height="48" viewBox="0 0 48 48" width="48" xmlns="http://www.w3.org/2000/svg"><g transform="translate(36 -254.64999)"><path d="m-31 256.64999h38c1.662 0 3 1.338 3 3v38c0 1.662-1.338 3-3 3h-38c-1.662 0-3-1.338-3-3v-38c0-1.662 1.338-3 3-3z" fill="#a3b7cc"/><path d="m-31 257.64999h38c1.108 0 2 .892 2 2v38c0 1.108-.892 2-2 2h-38c-1.108 0-2-.892-2-2v-38c0-1.108.892-2 2-2z" fill="#f1f1f1"/><path d="m-30.000004 259.64999h36.000008c.553998 0 .999996.446.999996 1v30.00001c0 .554-.445998.99999-.999996.99999h-36.000008c-.553998 0-.999996-.44599-.999996-.99999v-30.00001c0-.554.445998-1 .999996-1z" fill="#28596c"/><path d="m-30 260.64999h36v30h-36z" fill="#23a79b"/><path d="m-10 293.64999c-1.108 0-2 .892-2 2s.892 2 2 2 2-.892 2-2-.892-2-2-2zm6 0c-.1385 0-.273867.0145-.404297.041-.913008.1859-1.595703.9895-1.595703 1.959 0 1.108.892 2 2 2s2-.892 2-2-.892-2-2-2zm6 0c-1.108 0-2 .892-2 2s.892 2 2 2 2-.892 2-2-.892-2-2-2z" fill="#28596c"/><path d="m-10 294.64999c-.554 0-1 .446-1 1s.446 1 1 1 1-.446 1-1-.446-1-1-1zm6 0c-.1385 0-.270906.0277-.390625.0781-.359156.15143-.609375.5064-.609375.9219 0 .554.446 1 1 1s1-.446 1-1-.446-1-1-1zm6 0c-.554 0-1 .446-1 1s.446 1 1 1 1-.446 1-1-.446-1-1-1z" fill="#23a79b"/><path d="m-26 293.64999h3c1.108 0 2 .892 2 2s-.892 2-2 2h-3c-1.108 0-2-.892-2-2s.892-2 2-2z" fill="#28596c"/><path d="m-26 294.64999h3c.554 0 1 .446 1 1s-.446 1-1 1h-3c-.554 0-1-.446-1-1s.446-1 1-1z" fill="#23a79b"/><path d="m-26 293.64999c1.108 0 2 .892 2 2s-.892 2-2 2-2-.892-2-2 .892-2 2-2z" fill="#28596c"/><path d="m-26 294.64999c.554 0 1 .446 1 1s-.446 1-1 1-1-.446-1-1 .446-1 1-1z" fill="#f1f1f1"/></g><path d="m4.4978417 286.68124v1.05833l-1.322917-.52917c-1.418348 3.12463-.6313 4.95625 0 6.87917 2.584354-1.78516 5.796329 1.90956 7.4083343-2.64583-1.9938693 1.45774-4.1395713.90132-5.8208343-1.5875 2.910417 2.64583 5.027084 1.32291 5.8208343.79375-.264584-3.43959-3.4395843-3.96876-6.0854173-3.96875zm3.042708.79375c.952765 0 1.719792.76702 1.719792 1.71979 0 .95276-.767027 1.71979-1.719792 1.71979-.952764 0-1.719791-.76703-1.719791-1.71979 0-.95277.767027-1.71979 1.719791-1.71979zm0 .26458c-.806185 0-1.455208.64902-1.455208 1.45521 0 .80618.649023 1.45521 1.455208 1.45521.806186 0 1.455209-.64903 1.455209-1.45521 0-.80619-.649023-1.45521-1.455209-1.45521zm.396875.79375c.292251 0 .529167.17769.529167.39687 0 .21919-.236916.39688-.529167.39688-.29225 0-.529166-.17769-.529166-.39688 0-.21918.236916-.39687.529166-.39687z" fill="#e1fff9" transform="matrix(3.7795276 0 0 3.7795276 -.000001 -1076.51966)"/></svg>