<svg xmlns="http://www.w3.org/2000/svg" width="48" height="48" version="1"><circle style="opacity:.2" cx="24" cy="25" r="20"/><circle style="fill:#e53935" cx="24" cy="24" r="20"/><path style="opacity:.2" transform="matrix(.9815 0 0 1 -.116 .334)" d="m35.778 24.666-8.66 5-8.66 5v-20l8.66 5z"/><path style="fill:#f4f4f7" transform="matrix(.9815 0 0 1 -.116 -.666)" d="m35.778 24.666-8.66 5-8.66 5v-20l8.66 5z"/><path style="opacity:.2;fill:#f4f4f7" d="M24 4A20 20 0 0 0 4 24a20 20 0 0 0 .021.582A20 20 0 0 1 24 5a20 20 0 0 1 19.979 19.418A20 20 0 0 0 44 24 20 20 0 0 0 24 4z"/></svg>