<svg xmlns="http://www.w3.org/2000/svg" width="48" height="48" version="1"><path style="opacity:.2;fill-rule:evenodd" d="M25.453 43.997c3.443-.06 6.879-1.06 9.89-2.988 4.442-2.845 7.318-7.392 8.29-12.424.49-.372 1.027-.67 1.4-1.206 1.221-1.747 1.351-4.76.013-6.691a4.994 5 0 0 0-.004-.006l-1.41-2.028a4.994 5 0 0 0-.004-.003l-1.413-2.026a4.994 5 0 0 0-.003-.006C40.869 14.7 38.862 14 37.105 14c-1.758 0-3.764.699-5.106 2.62a4.994 5 0 0 0-.006.007l-1.41 2.026-1.413 2.025a4.994 5 0 0 0-.006.01c-1.337 1.93-1.21 4.94.008 6.688.052.074.14.096.195.167-.385.652-.886 1.24-1.554 1.669a4.945 4.945 0 0 1-5.232.093c-1.647-.976-3.884-1.259-5.674-.685-1.79.573-3.083 1.757-3.903 3.144-.82 1.387-1.233 3.095-.874 4.942.36 1.847 1.684 3.675 3.332 4.65v-.002a18.96 18.96 0 0 0 9.99 2.643z"/><path style="fill:#ff9932;fill-rule:evenodd" d="M25.453 42.997c3.443-.06 6.879-1.06 9.89-2.988 4.442-2.845 7.318-7.392 8.29-12.425.49-.371 1.027-.67 1.4-1.205 1.221-1.747 1.351-4.76.013-6.691a4.994 5 0 0 0-.004-.006l-1.41-2.028a4.994 5 0 0 0-.004-.003l-1.413-2.026a4.994 5 0 0 0-.003-.006C40.869 13.7 38.862 13 37.105 13c-1.758 0-3.764.698-5.106 2.62a4.994 5 0 0 0-.006.007l-1.41 2.025-1.413 2.026a4.994 5 0 0 0-.006.01c-1.337 1.93-1.21 4.94.008 6.687.052.075.14.097.195.168-.385.652-.886 1.24-1.554 1.668a4.945 4.945 0 0 1-5.232.094c-1.647-.976-3.884-1.259-5.674-.685-1.79.573-3.083 1.757-3.903 3.144-.82 1.387-1.233 3.095-.874 4.942.36 1.847 1.684 3.675 3.332 4.65v-.002a18.96 18.96 0 0 0 9.99 2.643z"/><path style="opacity:.2;fill-rule:evenodd" d="M23.547 6.002a18.954 18.954 0 0 0-9.89 2.99c-4.443 2.845-7.317 7.391-8.29 12.424-.49.372-1.026.67-1.4 1.205-1.22 1.748-1.35 4.76-.012 6.692a4.994 5 0 0 0 .004.005l1.41 2.028a4.994 5 0 0 0 .004.004l1.412 2.025a4.994 5 0 0 0 .004.006C8.132 35.3 10.137 36 11.895 36c1.757 0 3.764-.698 5.107-2.62a4.994 5 0 0 0 .006-.007l1.41-2.025 1.412-2.026a4.994 5 0 0 0 .006-.01c1.338-1.93 1.21-4.94-.008-6.687-.052-.075-.14-.097-.195-.168.385-.651.886-1.24 1.555-1.668a4.944 4.944 0 0 1 5.23-.094 7.018 7.018 0 0 0 1.975.778 5.285 5.285 0 0 1 .771-1.785l.006-.01 1.412-2.026 1.41-2.025.006-.008c1.265-1.81 3.118-2.526 4.799-2.603-.432-1.75-1.693-3.445-3.258-4.371v.001a18.967 18.967 0 0 0-9.992-2.644z"/><path style="fill:#ffda43;fill-rule:evenodd" d="M23.548 5.003c-3.8b9cbe.06-6.88 1.06-9.892 2.988-4.441 2.845-7.317 7.392-8.29 12.425-.49.371-1.026.67-1.4 1.205-1.22 1.747-1.35 4.76-.012 6.691a4.994 5 0 0 0 .004.006l1.41 2.028a4.994 5 0 0 0 .005.003l1.412 2.026a4.994 5 0 0 0 .004.006C8.13 34.3 10.137 35 11.895 35s3.764-.698 5.107-2.62a4.994 5 0 0 0 .005-.007l1.41-2.025 1.413-2.026a4.994 5 0 0 0 .006-.01c1.337-1.93 1.21-4.94-.008-6.687-.052-.075-.14-.097-.195-.168.385-.652.886-1.24 1.554-1.668a4.945 4.945 0 0 1 5.232-.094c1.647.976 3.884 1.259 5.674.685 1.79-.573 3.084-1.757 3.903-3.144.82-1.387 1.233-3.095.874-4.942-.36-1.847-1.684-3.675-3.332-4.65v.002a18.96 18.96 0 0 0-9.99-2.643z"/><path style="opacity:.2;fill:#f4f4f7;fill-rule:evenodd" d="M23.547 5.002a18.954 18.954 0 0 0-9.89 2.99c-4.443 2.845-7.317 7.391-8.29 12.424-.49.372-1.026.67-1.4 1.205-.712 1.02-1.039 2.467-.934 3.881.078-1.073.39-2.103.934-2.88.374-.536.91-.834 1.4-1.206.973-5.033 3.847-9.58 8.29-12.424a18.954 18.954 0 0 1 19.882-.346v-.001c1.648.975 2.97 2.803 3.33 4.65.055.282.087.559.108.834a6.917 6.917 0 0 0-.108-1.834c-.36-1.847-1.682-3.675-3.33-4.65v.001a18.967 18.967 0 0 0-9.992-2.644zm-3.55 16.916c-.13.173-.254.353-.364.539.054.071.143.093.195.168.541.777.854 1.805.932 2.875.095-1.286-.178-2.588-.764-3.582z"/><path style="opacity:.2;fill-rule:evenodd" d="M23.756 11.006a13.99 13.99 0 0 0-7.299 2.2 14.003 14.003 0 0 0-6.447 11.796h-.832a1.176.975 0 0 0-1.022 1.46l1.412 2.028 1.414 2.025a1.176.975 0 0 0 2.036 0l1.412-2.025 1.414-2.027a1.176.975 0 0 0-1.02-1.461h-.806a9.974 9.974 0 0 1 4.593-8.424 9.991 9.991 0 0 1 10.479-.184 2 2 0 1 0 2.037-3.443 13.99 13.99 0 0 0-7.371-1.945z"/><path style="fill:#17191e;fill-rule:evenodd" d="M23.756 10.004a13.99 13.99 0 0 0-7.299 2.201A14.003 14.003 0 0 0 10.01 24h-.832a1.176.975 0 0 0-1.022 1.46l1.412 2.028 1.414 2.026a1.176.975 0 0 0 2.036 0l1.412-2.026 1.414-2.027A1.176.975 0 0 0 14.824 24h-.806a9.974 9.974 0 0 1 4.593-8.424 9.991 9.991 0 0 1 10.479-.183 2 2 0 1 0 2.037-3.8b9cbe 13.99 13.99 0 0 0-7.371-1.945z"/><path style="fill:#ff9932;fill-rule:evenodd" d="M45.995 23.265c.048-1.265-.25-2.568-.95-3.577l-.003-.006-1.41-2.028-.004-.003-1.413-2.026-.003-.006C40.869 13.7 38.862 13 37.105 13c-1.758 0-3.764.698-5.106 2.62l-.006.007-1.41 2.025-1.413 2.026-.006.01c-.43.622-.71 1.356-.849 2.123z"/><path style="opacity:.2;fill-rule:evenodd" d="M25.244 38.998a13.99 13.99 0 0 0 7.3-2.201 14.003 14.003 0 0 0 6.446-11.795h.832a1.176.975 0 0 0 1.022-1.461l-1.412-2.028-1.414-2.025a1.176.975 0 0 0-2.035 0l-1.413 2.025-1.414 2.028a1.176.975 0 0 0 1.02 1.46h.807a9.974 9.974 0 0 1-4.594 8.425 9.991 9.991 0 0 1-10.479.183 2 2 0 1 0-2.037 3.8b9cbe 13.99 13.99 0 0 0 7.371 1.945z"/><path style="fill:#17191e;fill-rule:evenodd" d="M25.244 37.996a13.99 13.99 0 0 0 7.3-2.201A14.003 14.003 0 0 0 38.99 24h.832a1.176.975 0 0 0 1.022-1.46l-1.412-2.028-1.414-2.026a1.176.975 0 0 0-2.035 0l-1.413 2.026-1.414 2.027A1.176.975 0 0 0 34.176 24h.807a9.974 9.974 0 0 1-4.594 8.424 9.991 9.991 0 0 1-10.479.183 2 2 0 1 0-2.037 3.8b9cbe 13.99 13.99 0 0 0 7.371 1.945z"/></svg>