<svg height="64" viewBox="0 0 64 64" width="64" xmlns="http://www.w3.org/2000/svg" xmlns:xlink="http://www.w3.org/1999/xlink"><filter id="a" color-interpolation-filters="sRGB" height="1.054" width="1.054" x="-.027" y="-.027"><feGaussianBlur stdDeviation=".61875"/></filter><linearGradient id="b" gradientUnits="userSpaceOnUse" x1="4.5" x2="59.5" y1="59.49" y2="4.49"><stop offset="0" stop-color="#02db96"/><stop offset="1" stop-color="#13d39b"/></linearGradient><rect fill="#141414" filter="url(#a)" height="55" opacity=".3" ry="15" stroke-linecap="round" stroke-width="2.7444" width="55" x="4.5" y="4.5"/><rect fill="url(#b)" height="55" ry="15" stroke-linecap="round" stroke-width="2.7444" width="55" x="4.5" y="4.5"/><path d="m32 48.156c3.0248 0 6.5897-.38072 8.1986-2.1224 1.1978-1.2967 1.5129-3.6798 1.4841-5.278-.64787-.90704-3.6196-3.3546-9.6827-3.3546s-9.0348 2.4476-9.6827 3.3546c-.02878 1.5982.28631 3.9813 1.4841 5.278 1.6089 1.7417 5.1738 2.1224 8.1986 2.1224zm-4.6472-6.4074c0 1.5519.14668 2.942.92409 2.942.77732 0 .92409-1.3524.92409-2.9043s-.0334-2.9043-.87693-2.9043c-.84335 0-.97125 1.3146-.97125 2.8665zm9.2944 0c0 1.5519-.14686 2.942-.92409 2.942-.77733 0-.92409-1.3524-.92409-2.9043s.0334-2.9043.87695-2.9043c.84337 0 .97123 1.3146.97123 2.8665zm-20.875-8.9551c0 1.0827.11568 2.0227.32085 2.8462 2.5863-2.0436 4.0564-7.8405 2.5967-12.128-1.9742 3.1993-2.9176 6.8054-2.9176 9.2816zm5.6569 10.147c-3.0077-1.1096-6.9866-3.6745-6.9866-10.145 0-6.47 5.3496-18.296 17.558-18.296 12.208 0 17.558 11.826 17.558 18.296s-3.9789 9.0349-6.9866 10.145c-.40377 4.7532-4.073 6.5597-10.571 6.5597s-10.167-1.8065-10.571-6.5597zm23.881-19.428c-1.4597 4.2874.0111 10.084 2.5967 12.128.20511-.82353.32087-1.7636.32087-2.8462 0-2.4762-.94329-6.0822-2.9176-9.2816zm-13.31-6.4209c-4.5713 0-8.277 3.5923-8.277 8.0236s3.7057 8.0237 8.277 8.0237 8.277-3.5923 8.277-8.0237c0-4.4313-3.7058-8.0236-8.277-8.0236z" fill="#fff"/></svg>