<svg height="24" width="24" xmlns="http://www.w3.org/2000/svg">
    <path d="M5 2.5c-.554 0-1 .446-1 1v18c0 .554.446 1 1 1h14c.554 0 1-.446 1-1v-13l-6-6z" opacity=".2"/>
    <path d="M5 2c-.554 0-1 .446-1 1v18c0 .554.446 1 1 1h14c.554 0 1-.446 1-1V8l-6-6z" fill="#ffba3a"/>
    <path d="m20 8.5-6-6v5c0 .554.446 1 1 1z" opacity=".2"/>
    <path d="m20 8-6-6v5c0 .554.446 1 1 1z" fill="#ffdea2"/>
    <path d="M5 2c-.554 0-1 .446-1 1v.5c0-.554.446-1 1-1h9V2z" fill="#f4f4f7" opacity=".2"/>
    <path d="M10 11c0 3 0 3-.384 3-.4 0-.876-.094-1.159-.59C8.071 12.734 8.5 11 8.5 11 6 11 5 13.646 5 15.38 5 18 7 19 8.25 19c0 0-.734-1.709.237-2 .526-.084 1.216.489 1.513 1 0 0-.106-.985.658-1s1.213.842 1.342 2c.13-1.158.578-2.015 1.342-2S14 18 14 18c.297-.511.987-1.084 1.513-1 .971.291.237 2 .237 2C17 19 19 18 19 15.38c0-1.734-1-4.38-3.5-4.38 0 0 .43 1.734.043 2.41-.283.496-.76.59-1.16.59C14 14 14 14 14 11l-1.5 1h-1z" fill="#17191e"/>
</svg>
