<svg height="24" width="24" xmlns="http://www.w3.org/2000/svg">
    <path d="M8 12.5v1h7v-1zm0 2v1h7v-1zm0 2v1h7v-1zm0 2v1h4v-1z" opacity=".2"/>
    <path d="M5 2.5c-.554 0-1 .446-1 1v18c0 .554.446 1 1 1h14c.554 0 1-.446 1-1v-13L14.5 8 14 2.5z" opacity=".2"/>
    <path d="M5 2c-.554 0-1 .446-1 1v18c0 .554.446 1 1 1h14c.554 0 1-.446 1-1V8l-5.5-.5L14 2z" fill="#3e50b4"/>
    <path d="M5 2c-.554 0-1 .446-1 1v.5c0-.554.446-1 1-1h9L19.5 8h.5l-6-6z" fill="#f4f4f7" opacity=".1"/>
    <path d="M14 2.5v5a1 1 0 0 0 1 1h5z" opacity=".2"/>
    <path d="M14 2v5a1 1 0 0 0 1 1h5z" fill="#7482d0"/>
    <path d="M8 12.5v1h8v-1zm0 2v1h8v-1zm0 2v1h8v-1zm0 2v1h5v-1z" opacity=".2"/>
    <path d="M8 12v1h8v-1zm0 2v1h8v-1zm0 2v1h8v-1zm0 2v1h5v-1z" fill="#f4f4f7"/>
</svg>
