<svg xmlns="http://www.w3.org/2000/svg" width="24" height="24"><circle style="opacity:.2" cx="12" cy="12.5" r="10"/><circle style="fill:#f4f4f7" cx="12" cy="12" r="10"/><path style="opacity:.2;fill:#f4f4f7" d="M12 2A10 10 0 0 0 2 12a10 10 0 0 0 .01.291A10 10 0 0 1 12 2.5a10 10 0 0 1 9.99 9.709A10 10 0 0 0 22 12 10 10 0 0 0 12 2z"/><circle style="opacity:.1" cx="12" cy="12.5" r="8"/><circle style="fill:#c83737" cx="12" cy="12" r="8"/><path style="opacity:.2;fill-rule:evenodd" d="M9.923 8.5A.902.924 0 0 0 9 9.423v6.152a.902.924 0 0 0 1.353.801l2.598-1.538 2.598-1.538a.902.924 0 0 0 0-1.601l-2.598-1.537-2.598-1.538a.902.924 0 0 0-.251-.1.902.924 0 0 0-.179-.024z"/><path style="fill:#f4f4f7;fill-rule:evenodd" d="M9.923 8A.902.924 0 0 0 9 8.923v6.152a.902.924 0 0 0 1.353.801l2.598-1.538 2.598-1.538a.902.924 0 0 0 0-1.601l-2.598-1.537-2.598-1.538a.902.924 0 0 0-.251-.1A.902.924 0 0 0 9.923 8z"/></svg>