<svg height="24" width="24" xmlns="http://www.w3.org/2000/svg"><path d="m5 2.5c-.554 0-1 .446-1 1v18c0 .554.446 1 1 1h14c.554 0 1-.446 1-1v-13l-5.5-.5-.5-5.5z" opacity=".2"/><path d="m5 2c-.554 0-1 .446-1 1v18c0 .554.446 1 1 1h14c.554 0 1-.446 1-1v-13l-5.5-.5-.5-5.5z" fill="#f4f4f7"/><path d="m5 2c-.554 0-1 .446-1 1v.5c0-.554.446-1 1-1h9l5.5 5.5h.5l-6-6z" fill="#f4f4f7" opacity=".2"/><path d="m14 2.5v5a1 1 0 0 0 1 1h5z" opacity=".2"/><path d="m14 2v5a1 1 0 0 0 1 1h5z" fill="#fafafa"/><path d="m10 11v4.27a2 2 0 1 0 1 1.73v-4h4v2.269a2 2 0 1 0 1 1.73v-6h-.5z" fill="#2470b2"/></svg>