<svg xmlns="http://www.w3.org/2000/svg" width="24" height="24"><path style="opacity:.2" d="M5 2.5c-.554 0-1 .446-1 1v18c0 .554.446 1 1 1h14c.554 0 1-.446 1-1v-13L14.5 8 14 2.5z"/><path style="fill:#b38d32" d="M5 2c-.554 0-1 .446-1 1v18c0 .554.446 1 1 1h14c.554 0 1-.446 1-1V8l-5.5-.5L14 2z"/><path style="opacity:.2;fill:#f4f4f7" d="M5 2c-.554 0-1 .446-1 1v.5c0-.554.446-1 1-1h9L19.5 8h.5l-6-6z"/><path style="opacity:.2" d="M14 2.5v5a1 1 0 0 0 1 1h5z"/><path style="fill:#dabe79" d="M14 2v5a1 1 0 0 0 1 1h5z"/><path style="opacity:.2" d="M10.5 11.5c-.277 0-.5.223-.5.5v7a.499.499 0 1 0 1 0v-2.51l2.127 2.81a.5.5 0 1 0 .797-.603l-2.414-3.19 2.414-3.187a.5.5 0 0 0-.797-.604L11 14.528V12c0-.277-.223-.5-.5-.5z"/><path style="fill:#f4f4f7" d="M10.5 11c-.277 0-.5.223-.5.5v7a.499.499 0 1 0 1 0v-2.51l2.127 2.81a.5.5 0 1 0 .797-.603l-2.414-3.19 2.414-3.187a.5.5 0 0 0-.797-.604L11 14.028V11.5c0-.277-.223-.5-.5-.5z"/></svg>