<svg height="24" width="24" xmlns="http://www.w3.org/2000/svg"><path d="m5 2.5c-.554 0-1 .446-1 1v18c0 .554.446 1 1 1h14c.554 0 1-.446 1-1v-13l-6-6z" opacity=".2"/><path d="m5 2c-.554 0-1 .446-1 1v18c0 .554.446 1 1 1h14c.554 0 1-.446 1-1v-13l-5-1-1-5z" fill="#cd9f00"/><path d="m20 8.5-6-6v5c0 .554.446 1 1 1z" opacity=".2"/><path d="m20 8-6-6v5c0 .554.446 1 1 1z" fill="#e9c235"/><path d="m5 2c-.554 0-1 .446-1 1v.5c0-.554.446-1 1-1h9v-.5z" fill="#f4f4f7" opacity=".2"/><path d="m9 5.5v3h-1v4h1v2.25l-1 .75v-1h-1v1.926a.5.5 0 0 0 -.006.074h-2.994v1h3v2h1v-1.793l1 1v1.793h-1v1h1.42a.5.5 0 0 0 .162 0h1.418v-1h-1v-1.904a.5.5 0 0 0 -.045-.31.5.5 0 0 0 -.154-.192l-1.54-1.54 1.485-1.113a.5.5 0 0 0 .182-.175.5.5 0 0 0 .072-.348v-.418h4v1h4.207l1.5-1.5-1.5-1.5h-4.207v1h-4v-1h1v-4h-1v-3zm0 4h1v2h-1zm6 4h2.793l.5.5-.5.5h-2.793zm-3 3v6h1v-5h7v-1zm2 2v1h2v-1zm3 0v1h2v-1zm-3 2v1h3v-1zm4 0v1h1v-1z" opacity=".1"/><path d="m9 5v3h-1v4h1v2.25l-1 .75v-1h-1v1.926a.5.5 0 0 0 -.006.074h-2.994v1h3v2h1v-1.793l1 1v1.793h-1v1h1.42a.5.5 0 0 0 .162 0h1.418v-1h-1v-1.904a.5.5 0 0 0 -.045-.31.5.5 0 0 0 -.154-.192l-1.54-1.54 1.485-1.113a.5.5 0 0 0 .182-.175.5.5 0 0 0 .072-.348v-.418h4v1h4.207l1.5-1.5-1.5-1.5h-4.207v1h-4v-1h1v-4h-1v-3zm0 4h1v2h-1zm6 4h2.793l.5.5-.5.5h-2.793zm-3 3v6h1v-5h7v-1zm2 2v1h2v-1zm3 0v1h2v-1zm-3 2v1h3v-1zm4 0v1h1v-1z" fill="#9f2e03"/></svg>