<svg height="24" width="24" xmlns="http://www.w3.org/2000/svg">
    <rect height="12" opacity=".2" rx="1" width="20" x="2" y="9.5"/>
    <path d="M2 17c0 .554.446 1 1 1h18c.554 0 1-.446 1-1V6c0-.554-.446-1-1-1h-9c-1.5 0-2-2-3.5-2H3c-.554 0-1 .446-1 1" fill="#f4f4f7"/>
    <rect height="12" opacity=".2" rx="1" width="20" x="2" y="8.5"/>
    <rect fill="#f4f4f7" height="8" rx="1" width="16" x="4" y="7"/>
    <rect fill="#8b9cbe" height="12" rx="1" width="20" x="2" y="9"/>
    <g fill="#f4f4f7">
        <path d="M3 3c-.554 0-1 .446-1 1v.5c0-.554.446-1 1-1h5.5c1.5 0 2 2 3.5 2h9c.554 0 1 .446 1 1V6c0-.554-.446-1-1-1h-9c-1.5 0-2-2-3.5-2z" opacity=".1"/>
        <path d="M12 11a2 2 0 0 0-2 2 2 2 0 0 0 2 2 2 2 0 0 0 2-2 2 2 0 0 0-2-2zm-1.693 4.062c-1.264.216-2.18.652-2.295 1.174-.002.006 0 .013 0 .018a.38.38 0 0 0-.006.058c0 .01-.006.016-.006.026v1.394c0 .149.088.268.2.268h7.6c.111 0 .199-.119.199-.268v-1.404c-.001-.032-.012-.06-.02-.092-.115-.521-1.029-.958-2.289-1.174A2 2 0 0 1 12 16a2 2 0 0 1-1.693-.938z"/>
    </g>
</svg>
