<svg xmlns="http://www.w3.org/2000/svg" width="24" height="24"><path style="opacity:.2" d="M5 2.5c-.554 0-1 .446-1 1v18c0 .554.446 1 1 1h14c.554 0 1-.446 1-1v-13l-6-6z"/><path style="fill:#f4981b" d="M5 2c-.554 0-1 .446-1 1v18c0 .554.446 1 1 1h14c.554 0 1-.446 1-1V8l-5-1-1-5z"/><path style="opacity:.2" d="m20 8.5-6-6v5c0 .554.446 1 1 1z"/><path style="fill:#f7b65d" d="m20 8-6-6v5c0 .554.446 1 1 1z"/><path style="opacity:.2;fill:#f4f4f7" d="M5 2c-.554 0-1 .446-1 1v.5c0-.554.446-1 1-1h9V2z"/><path style="opacity:.1" d="m12 10.5-5 5h1v5h8v-5h1l-2-2v-2h-1v1z"/><path style="fill:#17191e" d="m12 10-5 5h1v5h8v-5h1l-2-2v-2h-1v1z"/></svg>