<svg height="24" width="24" xmlns="http://www.w3.org/2000/svg"><path d="m5 2.5c-.554 0-1 .446-1 1v18c0 .554.446 1 1 1h14c.554 0 1-.446 1-1v-13l-5.5-.5-.5-5.5z" opacity=".2"/><path d="m5 2c-.554 0-1 .446-1 1v18c0 .554.446 1 1 1h14c.554 0 1-.446 1-1v-13l-5.5-.5-.5-5.5z" fill="#f4f4f7"/><path d="m5 2c-.554 0-1 .446-1 1v.5c0-.554.446-1 1-1h9l5.5 5.5h.5l-6-6z" fill="#fff" opacity=".2"/><path d="m14 2.5v5a1 1 0 0 0 1 1h5z" opacity=".2"/><path d="m14 2v5a1 1 0 0 0 1 1h5z" fill="#fafafa"/><path d="m-21.992 1.839v1h1v3h1v-3h1v-1zm3 1v4h3v-1h-2v-.5h2v-1h-2v-.5h2v-1zm3-1 1 2-1 2h1l.5-1 .5 1h1l-1-2 1-2h-1l-.5 1-.5-1z" fill="#6b6cd0" transform="translate(28.992 11.161)"/></svg>