<svg xmlns="http://www.w3.org/2000/svg" width="24" height="24"><path style="opacity:.2" d="M5 2.5c-.554 0-1 .446-1 1v18c0 .554.446 1 1 1h14c.554 0 1-.446 1-1v-13l-6-6z"/><path style="fill:#4f4f4f" d="M5 2c-.554 0-1 .446-1 1v18c0 .554.446 1 1 1h14c.554 0 1-.446 1-1V8l-5-1-1-5z"/><path style="opacity:.2" d="m20 8.5-6-6v5c0 .554.446 1 1 1z"/><path style="fill:#696969" d="m20 8-6-6v5c0 .554.446 1 1 1z"/><path style="opacity:.1;fill:#f4f4f7" d="M5 2c-.554 0-1 .446-1 1v.5c0-.554.446-1 1-1h9V2z"/><path d="M-12.048 27.905h-.948c-.682 6.332-3.263 7.823-9.213 7.654h-10.465l9.517-11.066c.341-.38.341-.607.341-.607 0-.19-.152-.379-.265-.53l-7.773-11.224h8.758c6.408 0 8.304 1.365 9.1 7.356h.948l-1.061-8.532h-21.044c-.91 0-.986 0-.986.873l9.441 13.725-9.024 10.276c-.38.417-.38.493-.38.607 0 .417.38.417.949.417h21.044z" transform="matrix(-.38976 0 0 .38614 2.304 5.77)" style="opacity:.2"/><path style="fill:#b4b4b4" d="M-12.048 27.905h-.948c-.682 6.332-3.26 7.654-9.213 7.654h-10.465l9.517-11.066c.341-.38.341-.607.341-.607 0-.19-.152-.379-.265-.53l-7.773-11.224h8.758c6.408 0 8.304 1.365 9.1 7.356h.948l-1.061-8.532h-21.044c-.91 0-.986 0-.986.873l9.441 13.725-9.024 10.276c-.38.417-.38.493-.38.607 0 .417.38.417.949.417h21.044z" transform="matrix(-.38976 0 0 .38614 2.304 5.27)"/></svg>