<svg height="24" width="24" xmlns="http://www.w3.org/2000/svg"><path d="m5 2.5c-.554 0-1 .446-1 1v18c0 .554.446 1 1 1h14c.554 0 1-.446 1-1v-13l-6-6z" opacity=".2"/><path d="m5 2c-.554 0-1 .446-1 1v18c0 .554.446 1 1 1h14c.554 0 1-.446 1-1v-13l-5-1-1-5z" fill="#f4f4f7"/><path d="m20 8.5-6-6v5c0 .554.446 1 1 1z" opacity=".2"/><path d="m20 8-6-6v5c0 .554.446 1 1 1z" fill="#fafafa"/><path d="m5 2c-.554 0-1 .446-1 1v.5c0-.554.446-1 1-1h9v-.5z" fill="#f4f4f7" opacity=".2"/><path d="m17 19h2v-8h-2v1h1v6h-1zm-10-8h-2v8h2v-1h-1v-6h1z" fill="#4f4f4f"/><g fill="#05a087"><circle cx="9" cy="15" r="2"/><path d="m16 12.5v5l-4-2.5z"/></g></svg>