<svg height="24" width="24" xmlns="http://www.w3.org/2000/svg">
    <path d="M5 2.5c-.554 0-1 .446-1 1v18c0 .554.446 1 1 1h14c.554 0 1-.446 1-1v-13L14.5 8 14 2.5z" opacity=".2"/>
    <path d="M5 2c-.554 0-1 .446-1 1v18c0 .554.446 1 1 1h14c.554 0 1-.446 1-1V8l-5.5-.5L14 2z" fill="#f4f4f7"/>
    <path d="M5 2c-.554 0-1 .446-1 1v.5c0-.554.446-1 1-1h9V2z" fill="#f4f4f7" opacity=".2"/>
    <path d="M14 2.5v5a1 1 0 0 0 1 1h5z" opacity=".2"/>
    <path d="M14 2v5a1 1 0 0 0 1 1h5z" fill="#fafafa"/>
    <path d="M12 10a5 5 0 0 0-5 5 5 5 0 0 0 5 5 5 5 0 0 0 5-5 5 5 0 0 0-5-5zm0 1a4 4 0 0 1 4 4 4 4 0 0 1-4 4 4 4 0 0 1-4-4 4 4 0 0 1 4-4zm0 1a3 3 0 0 0-3 3 3 3 0 0 0 3 3 3 3 0 0 0 2.063-.826l-.815-.613A2 2 0 0 1 12 17a2 2 0 0 1-2-2 2 2 0 0 1 2-2 2 2 0 0 1 1.246.44l.818-.614A3 3 0 0 0 12 12z" fill="#17191e"/>
</svg>
