<svg height="24" width="24" xmlns="http://www.w3.org/2000/svg">
    <path d="M5 2.5c-.554 0-1 .446-1 1v18c0 .554.446 1 1 1h14c.554 0 1-.446 1-1v-13l-6-6z" opacity=".2"/>
    <path d="M5 2c-.554 0-1 .446-1 1v18c0 .554.446 1 1 1h14c.554 0 1-.446 1-1V8l-5-1-1-5z" fill="#4f4f4f"/>
    <path d="m20 8.5-6-6v5c0 .554.446 1 1 1z" opacity=".2"/>
    <path d="m20 8-6-6v5c0 .554.446 1 1 1z" fill="#696969"/>
    <path d="M5 2c-.554 0-1 .446-1 1v.5c0-.554.446-1 1-1h9V2z" fill="#f4f4f7" opacity=".1"/>
    <path d="M12.017 15.483 17 20.5H7z" opacity=".1"/>
    <path d="M17 20H7l5.017-5.017z" fill="#6069e5"/>
    <path d="M17 10.5h-4.983L7 15.783V20.5l5.017-5.017z" opacity=".1"/>
    <path d="M17 10h-4.983L7 15.283V20l5.017-5.017z" fill="#ec7537"/>
    <path d="M12.017 10.5 7 15.917V10.5z" opacity=".1"/>
    <path d="M7 15.417V10h5.017z" fill="#00a1e6"/>
</svg>
