<svg height="24" width="24" xmlns="http://www.w3.org/2000/svg">
    <path d="M5 2.5c-.554 0-1 .446-1 1v18c0 .554.446 1 1 1h14c.554 0 1-.446 1-1v-13L14.5 8 14 2.5z" opacity=".2"/>
    <path d="M5 2c-.554 0-1 .446-1 1v18c0 .554.446 1 1 1h14c.554 0 1-.446 1-1V8l-5.5-.5L14 2z" fill="#f4f4f7"/>
    <path d="M5 2c-.554 0-1 .446-1 1v.5c0-.554.446-1 1-1h9V2z" fill="#f4f4f7" opacity=".2"/>
    <path d="M14 2.5v5a1 1 0 0 0 1 1h5z" opacity=".2"/>
    <path d="M14 2v5a1 1 0 0 0 1 1h5z" fill="#fafafa"/>
    <path d="M7 12c-.545 0-1 .5-1 1v6c0 .5.455 1 1 1h10c.545 0 1-.5 1-1v-6c0-.5-.455-1-1-1zm0 1h10v6H7zm1 1v4h1v-2.2l1 1.6 1-1.6V18h1v-4h-1l-1 1.6L9 14zm6 0v2h-1l1 2h1l1-2h-1v-2z" fill="#d74c4c"/>
</svg>
