<svg xmlns="http://www.w3.org/2000/svg" height="512" width="512">
    <text font-size="129.23" y="231.36" x="729.64" font-family="Gentium Book Basic" word-spacing="0" letter-spacing="0">
    
  </text>
    <text font-size="129.23" y="151.36" x="1310.91" font-family="Gentium Book Basic" word-spacing="0" letter-spacing="0">
    
  </text>
    <text font-size="129.23" y="-29.901" x="239.33" font-family="Gentium Book Basic" word-spacing="0" letter-spacing="0">
    
  </text>
    <text font-size="129.23" y="-246.37" x="1337.38" font-family="Gentium Book Basic" word-spacing="0" letter-spacing="0">
    
  </text>
    <text font-size="129.23" y="-326.38" x="1918.65" font-family="Gentium Book Basic" word-spacing="0" letter-spacing="0">
    
  </text>
    <text font-size="129.23" y="-798.78" x="1529.53" font-family="Gentium Book Basic" word-spacing="0" letter-spacing="0">
    
  </text>
    <text font-size="129.23" y="-878.78" x="2110.79" font-family="Gentium Book Basic" word-spacing="0" letter-spacing="0">
    
  </text>
    <g font-family="Gentium Book Basic" font-size="208.33" word-spacing="0" letter-spacing="0">
        <text y="535.94" x="277.99">
      
    </text>
        <text y="413.27" x="-1771.42">
      
    </text>
    </g>
    <text font-size="208.33" y="859.18" x="-1213.24" font-family="Gentium Book Basic" word-spacing="0" letter-spacing="0">
    
  </text>
    <text font-size="40" y="621.66" x="875.45" font-family="Sans" word-spacing="0" letter-spacing="0">
    
  </text>
    <path style="fill:#dbdbdb;fill-opacity:1" d="M14 14h20v4H14zm0 8h20v4H14zm0 8h20v4H14z" transform="translate(-105.84 55.827) scale(10.13985)"/>
    <path style="fill:#dbdbdb;fill-opacity:1" d="M14 14h20v4H14zm0 8h20v4H14zm0 8h20v4H14z" transform="translate(145.453 53.11) scale(10.13985)"/>
    <path style="fill:#dbdbdb;fill-opacity:1;fill-rule:evenodd;stroke:none;stroke-width:1px;stroke-linecap:butt;stroke-linejoin:miter;stroke-opacity:1" d="M125.253 133.07c76.727-60.451 157.397-63.732 242.579-1.585l-1.586 23.782c-80.33-57.434-160.662-61.953-240.993 3.17Z" transform="translate(-65.482 -53.004) scale(1.32042)"/>
    <path style="fill:#dbdbdb;fill-rule:evenodd;stroke:none;stroke-width:1px;stroke-linecap:butt;stroke-linejoin:miter;stroke-opacity:1" d="m380.618 171.456-65.365-25.627 41.46-44.737z" transform="translate(-65.482 -53.004) scale(1.32042)"/>
</svg>
