<svg xmlns="http://www.w3.org/2000/svg" height="512" width="512">
    <defs>
        <clipPath id="a"/>
    </defs>
    <text font-size="129.23" y="231.36" x="729.64" font-family="Gentium Book Basic" word-spacing="0" letter-spacing="0">
    
  </text>
    <text font-size="129.23" y="151.36" x="1310.91" font-family="Gentium Book Basic" word-spacing="0" letter-spacing="0">
    
  </text>
    <text font-size="129.23" y="-29.901" x="239.33" font-family="Gentium Book Basic" word-spacing="0" letter-spacing="0">
    
  </text>
    <text font-size="129.23" y="-246.37" x="1337.38" font-family="Gentium Book Basic" word-spacing="0" letter-spacing="0">
    
  </text>
    <text font-size="129.23" y="-326.38" x="1918.65" font-family="Gentium Book Basic" word-spacing="0" letter-spacing="0">
    
  </text>
    <text font-size="129.23" y="-798.78" x="1529.53" font-family="Gentium Book Basic" word-spacing="0" letter-spacing="0">
    
  </text>
    <text font-size="129.23" y="-878.78" x="2110.79" font-family="Gentium Book Basic" word-spacing="0" letter-spacing="0">
    
  </text>
    <g font-family="Gentium Book Basic" word-spacing="0" letter-spacing="0">
        <g font-size="208.33">
            <text y="535.94" x="277.99">
        
      </text>
            <text y="465.59" x="-1110.48">
        
      </text>
            <text y="307.75" x="-1403.55">
        
      </text>
            <text y="502.73" x="-1824.76">
        
      </text>
        </g>
        <text font-size="84.77" transform="scale(1.0508 .95163)" y="332.19" x="-537.77" fill="#654641">
      
    </text>
    </g>
    <g fill="#654641" font-family="Gentium Book Basic" word-spacing="0" letter-spacing="0">
        <text transform="scale(1.0508 .95163)" font-size="45.38" y="308.69" x="-269.96">
      
    </text>
        <text font-size="132.57" y="395.61" x="-1306.01">
      
    </text>
    </g>
    <g font-family="Gentium Book Basic" font-size="208.33" word-spacing="0" letter-spacing="0">
        <text y="375.73" x="-1043.76">
      
    </text>
        <text y="217.9" x="-1336.84">
      
    </text>
    </g>
    <g clip-path="url(#a)" style="fill:#dbdbdb" transform="translate(-158.74 -167.705) scale(16.96245)">
        <g style="fill:#dbdbdb">
            <path d="M31.13 20.06c1.086.348.133 1.965 1.691 2.754 1.777.902 2.664-1.379 3.73.25 1.066 1.629-1.477 1.379-1.406 3.297.074 1.918 2.59 1.508 1.645 3.203-.941 1.691-1.988-.527-3.699.484-1.707 1.016-.074 2.887-2.086 2.953-2.01.063-.516-1.906-2.297-2.813-1.777-.902-2.664 1.379-3.73-.25-1.066-1.629 1.473-1.379 1.402-3.297-.07-1.914-2.586-1.508-1.645-3.203.945-1.691 1.992.531 3.699-.484 1.711-1.012.078-2.887 2.09-2.949.25-.008.449.004.605.055m-.023 4.883c-.895-.184-1.777.363-1.969 1.23-.191.855.383 1.707 1.281 1.887.895.184 1.777-.363 1.969-1.23.191-.852-.383-1.707-1.281-1.887m0 0" style="fill:#dbdbdb;fill-opacity:1;fill-rule:nonzero;stroke:none"/>
            <path d="M22.484 12.06c1.09.348.137 1.961 1.691 2.754 1.777.902 2.664-1.379 3.73.25 1.066 1.629-1.473 1.379-1.402 3.297.07 1.914 2.586 1.508 1.645 3.203-.941 1.691-1.992-.531-3.699.484-1.707 1.012-.074 2.887-2.086 2.949-2.02.066-.52-1.906-2.297-2.809-1.781-.902-2.664 1.379-3.73-.25-1.066-1.629 1.473-1.379 1.402-3.297-.07-1.918-2.586-1.508-1.645-3.203.941-1.691 1.992.527 3.699-.484 1.707-1.016.074-2.887 2.086-2.953.254-.008.449.008.605.059m-.02 4.883c-.898-.184-1.777.363-1.977 1.23-.188.855.391 1.707 1.277 1.887.898.184 1.777-.363 1.969-1.23.191-.852-.383-1.707-1.27-1.887m0 0" style="fill:#dbdbdb;fill-opacity:1;fill-rule:nonzero;stroke:none"/>
            <path d="M19.605 23.05c1.086.348.133 1.965 1.691 2.754 1.777.906 2.664-1.379 3.73.254 1.066 1.629-1.477 1.375-1.402 3.293.07 1.918 2.586 1.512 1.641 3.203-.941 1.695-1.988-.527-3.699.484-1.707 1.016-.074 2.891-2.086 2.953-2.01.063-.516-1.906-2.297-2.809-1.777-.906-2.664 1.379-3.73-.254-1.066-1.629 1.477-1.375 1.402-3.293-.07-1.918-2.586-1.52-1.641-3.203.941-1.695 1.988.527 3.699-.484 1.707-1.016.074-2.891 2.086-2.953.25-.008.449.008.605.055m-.023 4.883c-.895-.184-1.777.367-1.969 1.227-.191.863.383 1.707 1.281 1.891.895.184 1.777-.367 1.969-1.227.191-.863-.383-1.707-1.281-1.891m0 0" style="fill:#dbdbdb;fill-opacity:1;fill-rule:nonzero;stroke:none"/>
        </g>
    </g>
</svg>
