<svg xmlns="http://www.w3.org/2000/svg" width="22" height="22"><defs><linearGradient id="b" x1="7" x2="19" y1="12" y2="5" gradientTransform="scale(-1 1) rotate(-63.33 -.31 30.145)" gradientUnits="userSpaceOnUse"><stop offset="0" stop-color="#323a41" stop-opacity=".5"/><stop offset="1" stop-color="#323a41" stop-opacity="0"/></linearGradient><linearGradient id="a" x1="7" x2="17" y1="12" y2="12" gradientTransform="scale(1 -1) rotate(-63.33 -7.146 1.31)" gradientUnits="userSpaceOnUse"><stop offset="0" stop-color="#323a41"/><stop offset="1" stop-color="#323a41" stop-opacity=".5"/></linearGradient></defs><path fill="url(#a)" d="M7.858 4.745a7 7 0 0 0 6.283 12.51l-.898-1.786a5 5 0 0 1-4.488-8.936c1.161-.584.264-2.371-.898-1.788z"/><path fill="url(#b)" d="m7.858 4.745.897 1.787a5 5 0 1 1 4.489 8.936l.897 1.788a6.999 6.999 0 0 0 3.113-9.397 7 7 0 0 0-9.397-3.114z"/></svg>