<svg xmlns="http://www.w3.org/2000/svg" width="32" height="32" version="1"><path style="opacity:.2" d="M16 3C8.244 3 2 9.244 2 17s6.244 14 14 14 14-6.244 14-14S23.756 3 16 3z"/><path style="fill:#ffa50c" d="M16 2C8.244 2 2 8.244 2 16s6.244 14 14 14 14-6.244 14-14S23.756 2 16 2z"/><ellipse style="opacity:.1" cx="28.299" cy="-4.285" rx="3.465" ry="4.472" transform="matrix(.44017 .89791 -.82694 .5623 0 0)"/><ellipse style="fill:#7f2a23" cx="27.463" cy="-4.73" rx="3.465" ry="4.472" transform="matrix(.44017 .89791 -.82694 .5623 0 0)"/><path style="opacity:.1" d="M13 13.024c0 1.105-.895 0-2 0s-2 1.105-2 0a2 2 0 1 1 4 0z"/><path style="fill:#17191e" d="M13 12.024c0 1.105-.895 0-2 0s-2 1.105-2 0a2 2 0 1 1 4 0z"/><path style="opacity:.1" d="M23 13.024c0 1.105-.895 0-2 0s-2 1.105-2 0a2 2 0 1 1 4 0z"/><path style="fill:#17191e" d="M23 12.024c0 1.105-.895 0-2 0s-2 1.105-2 0a2 2 0 1 1 4 0z"/><path style="fill:#f4f4f7;opacity:.2" d="M16 2C8.244 2 2 8.244 2 16c0 .169.02.333.025.5C2.29 8.98 8.413 3 16 3"/></svg>