<svg xmlns="http://www.w3.org/2000/svg" width="32" height="32" version="1"><path style="opacity:.2" d="M16 3C8.244 3 2 9.244 2 17s6.244 14 14 14 14-6.244 14-14S23.756 3 16 3z"/><path style="fill:#ffa50c" d="M16 2C8.244 2 2 8.244 2 16s6.244 14 14 14 14-6.244 14-14S23.756 2 16 2z"/><circle style="opacity:.1" cx="21" cy="13" r="2"/><path style="fill:#db493d" d="M16 20.7v2.5c0 1.546 1.343 2.8 3 2.8s3-1.254 3-2.8v-2.5z"/><circle style="fill:#17191e" cx="21" cy="12" r="2"/><path style="opacity:.1" d="M13 14.024c0 1.105-.895 0-2 0s-2 1.105-2 0a2 2 0 1 1 4 0z"/><path style="fill:#17191e" d="M13 13.024c0 1.105-.895 0-2 0s-2 1.105-2 0a2 2 0 1 1 4 0z"/><path style="opacity:.1;fill:none;stroke:#000;stroke-width:1.5;stroke-linecap:round" d="M10.75 21.75h10.5v0"/><path style="fill:none;stroke:#17191e;stroke-width:1.5;stroke-linecap:round" d="M10.75 20.75h10.5v0"/><path style="fill:#f4f4f7;opacity:.2" d="M16 2C8.244 2 2 8.244 2 16c0 .169.02.333.025.5C2.29 8.98 8.413 3 16 3"/></svg>