<svg height="32" width="32" xmlns="http://www.w3.org/2000/svg"><path d="m16 3c-7.756 0-14 6.244-14 14s6.244 14 14 14 14-6.244 14-14-6.244-14-14-14z" opacity=".2"/><path d="m16 2c-7.756 0-14 6.244-14 14s6.244 14 14 14 14-6.244 14-14-6.244-14-14-14z" fill="#ffa50c"/><ellipse cx="28.299" cy="-4.285" opacity=".1" rx="3.465" ry="4.472" transform="matrix(.44017 .89791 -.82694 .5623 0 0)"/><ellipse cx="27.463" cy="-4.73" fill="#7f2a23" rx="3.465" ry="4.472" transform="matrix(.44017 .89791 -.82694 .5623 0 0)"/><path d="m13 13.024c0 1.105-.895 0-2 0s-2 1.105-2 0a2 2 0 1 1 4 0z" opacity=".1"/><path d="m13 12.024c0 1.105-.895 0-2 0s-2 1.105-2 0a2 2 0 1 1 4 0z" fill="#17191e"/><path d="m23 13.024c0 1.105-.895 0-2 0s-2 1.105-2 0a2 2 0 1 1 4 0z" opacity=".1"/><path d="m23 12.024c0 1.105-.895 0-2 0s-2 1.105-2 0a2 2 0 1 1 4 0z" fill="#17191e"/><path d="m16 2c-7.756 0-14 6.244-14 14 0 .169.02.333.025.5.265-7.52 6.388-13.5 13.975-13.5" fill="#f4f4f7" opacity=".2"/></svg>