<svg xmlns="http://www.w3.org/2000/svg" width="16px" height="16px">
    <defs>
        <linearGradient id="arrongin" x1="0%" x2="0%" y1="0%" y2="100%">
            <stop offset="0%" style="stop-color:#dd9b44;stop-opacity:1"/>
            <stop offset="100%" style="stop-color:#ad6c16;stop-opacity:1"/>
        </linearGradient>
        <linearGradient id="aurora" x1="0%" x2="0%" y1="0%" y2="100%">
            <stop offset="0%" style="stop-color:#09d4df;stop-opacity:1"/>
            <stop offset="100%" style="stop-color:#9269f4;stop-opacity:1"/>
        </linearGradient>
        <linearGradient id="cyberneon" x1="0%" x2="0%" y1="0%" y2="100%">
            <stop offset="0" style="stop-color:#0abdc6;stop-opacity:1"/>
            <stop offset="1" style="stop-color:#ea00d9;stop-opacity:1"/>
        </linearGradient>
        <linearGradient id="fitdance" x1="0%" x2="0%" y1="0%" y2="100%">
            <stop offset="0%" style="stop-color:#1ad6ab;stop-opacity:1"/>
            <stop offset="100%" style="stop-color:#329db6;stop-opacity:1"/>
        </linearGradient>
        <linearGradient id="oomox" x1="0%" x2="0%" y1="0%" y2="100%">
            <stop offset="0%" style="stop-color:#efefe7;stop-opacity:1"/>
            <stop offset="100%" style="stop-color:#8f8f8b;stop-opacity:1"/>
        </linearGradient>
        <linearGradient id="rainblue" x1="0%" x2="0%" y1="0%" y2="100%">
            <stop offset="0%" style="stop-color:#00f260;stop-opacity:1"/>
            <stop offset="100%" style="stop-color:#0575e6;stop-opacity:1"/>
        </linearGradient>
        <linearGradient id="sunrise" x1="0%" x2="0%" y1="0%" y2="100%">
            <stop offset="0%" style="stop-color:#ff8501;stop-opacity:1"/>
            <stop offset="100%" style="stop-color:#ffcb01;stop-opacity:1"/>
        </linearGradient>
        <linearGradient id="telinkrin" x1="0%" x2="0%" y1="0%" y2="100%">
            <stop offset="0%" style="stop-color:#b2ced6;stop-opacity:1"/>
            <stop offset="100%" style="stop-color:#6da5b7;stop-opacity:1"/>
        </linearGradient>
        <linearGradient id="60spsycho" x1="0%" x2="0%" y1="0%" y2="100%">
            <stop offset="0%" style="stop-color:#df5940;stop-opacity:1"/>
            <stop offset="25%" style="stop-color:#d8d15f;stop-opacity:1"/>
            <stop offset="50%" style="stop-color:#e9882a;stop-opacity:1"/>
            <stop offset="100%" style="stop-color:#279362;stop-opacity:1"/>
        </linearGradient>
        <linearGradient id="90ssummer" x1="0%" x2="0%" y1="0%" y2="100%">
            <stop offset="0%" style="stop-color:#f618c7;stop-opacity:1"/>
            <stop offset="20%" style="stop-color:#94ffab;stop-opacity:1"/>
            <stop offset="50%" style="stop-color:#fbfd54;stop-opacity:1"/>
            <stop offset="100%" style="stop-color:#0f83ae;stop-opacity:1"/>
        </linearGradient>
        <style id="current-color-scheme" type="text/css">
            .ColorScheme-Text{color:#ececec}
        </style>
    </defs>
    <path fill="currentColor" class="ColorScheme-Text" d="M3.994 3c-1.258.015-2.179-.03-2.931.385a1.88 1.88 0 0 0-.838.998C.06 4.822 0 5.343 0 6v5c0 .658.06 1.179.225 1.617.164.439.461.79.838.998.752.416 1.673.37 2.931.385h8.012c1.258-.014 2.179.03 2.932-.385a1.88 1.88 0 0 0 .838-.998c.164-.438.224-.96.224-1.617V6c0-.658-.06-1.178-.225-1.617a1.88 1.88 0 0 0-.837-.998c-.753-.416-1.674-.37-2.932-.385H3.998zM4 4h8c1.259.015 2.087.06 2.453.262.184.101.29.213.387.472.097.26.16.674.16 1.266v5c0 .592-.063 1.006-.16 1.266-.098.26-.203.371-.387.472-.366.202-1.194.247-2.453.262H4c-1.259-.015-2.09-.06-2.455-.262-.183-.1-.287-.212-.385-.472C1.063 12.006 1 11.592 1 11V6c0-.592.063-1.006.16-1.266.098-.26.202-.371.385-.472C1.91 4.06 2.74 4.015 4 4Z"/>
    <path fill="currentColor" class="ColorScheme-Text" d="M4.5 6C5.875 6 7 7.125 7 8.5c0 .565-.212 1.08-.531 1.5H9.53C9.212 9.58 9 9.065 9 8.5 9 7.125 10.125 6 11.5 6S14 7.125 14 8.5 12.875 11 11.5 11h-7A2.508 2.508 0 0 1 2 8.5C2 7.125 3.125 6 4.5 6zm0 1C3.666 7 3 7.666 3 8.5S3.666 10 4.5 10 6 9.334 6 8.5 5.334 7 4.5 7zm7 0c-.834 0-1.5.666-1.5 1.5s.666 1.5 1.5 1.5S13 9.334 13 8.5 12.334 7 11.5 7z"/>
</svg>
