<svg width="16" height="16">
  <path fill="currentColor" fill-rule="evenodd" d="M1.199 8.205V3.65h13.602v3.701q-.793-1.133-1.77-1.133c-1.572 0-1.494 2.568-3.066 2.542-.996-.017-1.095-1.687-2.122-1.677-.836.008-1.153 1.231-1.913 1.205-1.079-.037-1.663-1.161-2.725-1.074q-.843.069-2.006.991Zm7.198-7.004v-.8h-.8v.8H0V2h.4v9.5H0v.799h7.2v.734l-1.882 1.882a.401.401 0 0 0 .566.567L7.2 14.165v.634a.401.401 0 0 0 .8 0v-.634l1.316 1.317c.157.156.41.156.567 0a.402.402 0 0 0 0-.567L8 13.033v-.734h8V11.5h-.4V2h.4v-.799H8.397ZM4.463 5.589a1.153 1.153 0 1 1 2.307 0 1.153 1.153 0 0 1-2.307 0Z" color="#ececec"/>
</svg>
