<svg width="16" height="16">
  <defs>
    <linearGradient id="abiword_svg__arrongin" x1="0%" x2="0%" y1="0%" y2="100%">
      <stop offset="0%" stop-color="#dd9b44"/>
      <stop offset="100%" stop-color="#ad6c16"/>
    </linearGradient>
    <linearGradient id="abiword_svg__aurora" x1="0%" x2="0%" y1="0%" y2="100%">
      <stop offset="0%" stop-color="#09d4df"/>
      <stop offset="100%" stop-color="#9269f4"/>
    </linearGradient>
    <linearGradient id="abiword_svg__cyberneon" x1="0%" x2="0%" y1="0%" y2="100%">
      <stop offset="0" stop-color="#0abdc6"/>
      <stop offset="1" stop-color="#ea00d9"/>
    </linearGradient>
    <linearGradient id="abiword_svg__fitdance" x1="0%" x2="0%" y1="0%" y2="100%">
      <stop offset="0%" stop-color="#1ad6ab"/>
      <stop offset="100%" stop-color="#329db6"/>
    </linearGradient>
    <linearGradient id="abiword_svg__oomox" x1="0%" x2="0%" y1="0%" y2="100%">
      <stop offset="0%" stop-color="#efefe7"/>
      <stop offset="100%" stop-color="#8f8f8b"/>
    </linearGradient>
    <linearGradient id="abiword_svg__rainblue" x1="0%" x2="0%" y1="0%" y2="100%">
      <stop offset="0%" stop-color="#00f260"/>
      <stop offset="100%" stop-color="#0575e6"/>
    </linearGradient>
    <linearGradient id="abiword_svg__sunrise" x1="0%" x2="0%" y1="0%" y2="100%">
      <stop offset="0%" stop-color="#ff8501"/>
      <stop offset="100%" stop-color="#ffcb01"/>
    </linearGradient>
    <linearGradient id="abiword_svg__telinkrin" x1="0%" x2="0%" y1="0%" y2="100%">
      <stop offset="0%" stop-color="#b2ced6"/>
      <stop offset="100%" stop-color="#6da5b7"/>
    </linearGradient>
    <linearGradient id="abiword_svg__60spsycho" x1="0%" x2="0%" y1="0%" y2="100%">
      <stop offset="0%" stop-color="#df5940"/>
      <stop offset="25%" stop-color="#d8d15f"/>
      <stop offset="50%" stop-color="#e9882a"/>
      <stop offset="100%" stop-color="#279362"/>
    </linearGradient>
    <linearGradient id="abiword_svg__90ssummer" x1="0%" x2="0%" y1="0%" y2="100%">
      <stop offset="0%" stop-color="#f618c7"/>
      <stop offset="20%" stop-color="#94ffab"/>
      <stop offset="50%" stop-color="#fbfd54"/>
      <stop offset="100%" stop-color="#0f83ae"/>
    </linearGradient>
    <style id="current-color-scheme" type="text/css">
      .abiword_svg__ColorScheme-Highlight{color:#5294e2}
    </style>
  </defs>
  <path fill="currentColor" d="M13.762 12.674s3.835 7.802 1.465-.492c0 0-1.806-6.019-4.163-9.714 0 0-2.114-4.344-4.757-1.505 0 0-5.58 5.896-6.266 12.76 0 0-.726 3.932 3.941 1.436l6.317-3.126s4.683-2.484-.67-.893l-5.296 1.914s-2.31 1.103-1.308-1.02c0 0 2.201-5.392 3.541-6.828 0 0 1.563-3.004 2.84-.178 0 0 2.554 3.63 4.356 7.646z" color="#ececec"/>
</svg>
