<svg width="48" height="48">
  <path fill="#e9e9e9" d="M22.62 21.06c.032-.01.05.063.09.178.051.142.336.72.626 1.287 1.195 2.334 2.519 3.895 4.377 5.174.126-.028.374-.073.385-.084v.002c-.01.01-.258.056-.383.084l-.002-.002c-.167.038-.244.065-.508.112-.791.14-1.63.322-2.473.527-.836.204-1.673.43-2.476.672-.228.068-.418.14-.639.21-.53.17-1.066.338-1.537.51a20.12 20.12 0 0 0-1.703.702l-.031.013v.002c-.049.024-.11.047-.157.07v-.001c.047-.023.108-.047.157-.07.077-.16.095-.225.217-.442 1.805-3.23 3.018-5.839 3.703-7.988.217-.682.298-.938.353-.955zM10 6c-2.21 0-4 1.79-4 4v28c0 2.21 1.79 4 4 4h28c2.21 0 4-1.79 4-4V10c0-2.21-1.79-4-4-4zm12.387 3.998c.485 0 .792.067.972.256.031.032.053.072.077.111.01.018.025.031.035.051l.002.002c.03.062.053.133.07.213v.002c.034.16.042.357.033.597v.002c-.003.084-.01.111-.013.174.002.086.017.149.013.248-.016.439-.036.575-.119.575-.085-.713-.411-1.176-.996-1.344-.06.022-.178.237-.27.472-.112.291-.183.863-.207 1.518 0 .27.005.546.018.816.014.258.033.513.062.752.004.025.003.054.006.078v.002c.078.585.166 1.128.243 1.526v.002c.076.396.142.648.175.648.163-.645.308-1.325.453-2.023.145-.698.29-1.412.45-2.127 0 0 0 .007.002.008.046.04.058.417.052.935v.014c.025 1.202-.16 4.19-.361 5.228-.007.034-.001.052-.006.08v.002c.027.13.07.268.164.524v.002c.179.484.361.939.547 1.369v.002c.186.43.376.835.574 1.217v.002c.198.382.405.74.62 1.08v.002c.214.34.439.662.675.966v.002c.237.305.487.592.75.868.791.828 1.714 1.54 2.834 2.218l.522.317 1.441-.094c1.624-.107 3.702-.061 4.578.102.813.15 1.437.39 1.809.683.123.098.22.2.285.309v.002c.001.002 0 .006.002.008.048.084.078.21.098.337l.007.063a.86.86 0 0 1-.011.332c.04.241.031.498-.051.498-.378-1.298-3.557-1.36-5.725-1.068a28.39 28.39 0 0 0 1.893.709c1.192.352 2.778.96 3.83.466v.002c0 .053-.135.158-.3.262l-.003.002a2.88 2.88 0 0 1-.494.252c-.1.035-.252.058-.432.072.447.035.87.004 1.229-.164 0 .105-.539.424-.797.514-.41.143-1.631.11-2.568-.074-1.386-.272-3.276-.933-4.633-1.614l-.522-.26-1.03.131c-3.097.375-6.255 1.014-8.886 1.807-.658.198-1.246.361-1.302.361-.16 0-.354.259-.977 1.29-1.92 3.179-3.647 5.227-4.951 5.875-.671.333-1.071.316-1.86-.084-.347-.177-.445-.373-.357-.778v-.002a.671.671 0 0 1-.02-.322 2.57 2.57 0 0 1 .118-.445l.008-.024v-.002c.169-.48.529-1.04 1.01-1.607v-.002a11.338 11.338 0 0 1 1.744-1.635c.983-.74 1.867-1.233 1.835-1.086-.01.049-.123.169-.365.373v.002a16.12 16.12 0 0 0-.549.492c.825-.53 1.279-.686.55-.07-1.746 1.474-3.315 3.48-3.57 4.504.036.015.093.011.21-.008.58-.094 1.254-.546 2.021-1.36.256-.27.523-.58.8-.93V35.2a28.815 28.815 0 0 0 1.782-2.58v-.002c.318-.51.647-1.06.985-1.648v-.002c.338-.59.686-1.218 1.045-1.887v-.002c.473-.883.91-1.728 1.31-2.545v-.002a52.49 52.49 0 0 0 2.014-4.611v-.002c.274-.73.52-1.445.742-2.152v-.002l.219-.682-.238-.924c-.472-1.856-.676-3.282-.678-4.781 0-.07.006-.126.008-.192v-.015c-.001-.072-.008-.143-.008-.215v-.002c0-.362.013-.696.039-.998v-.002c.026-.302.066-.571.117-.807v-.002c.051-.234.115-.434.19-.595v-.002c.074-.161.161-.282.257-.363v-.002c.194-.163.291-.186.774-.186zm-.315 1.475c-.01.067-.02.13-.029.205.009-.075.019-.138.03-.205zm-.884 3.818c.023.158.055.327.083.49-.027-.162-.06-.332-.083-.49zm2.15.508c-.017.253-.03.463-.049.707.02-.23.033-.467.049-.707zm-.096 1.238zm-.738 3.828c-.037.102-.101.306-.16.49.06-.186.123-.388.16-.49zm5.57 6.684c.02.023.019.037.018.05.001-.013.001-.027-.018-.05zm3.4.699c.034.033.408.18.721.309-.312-.129-.68-.275-.716-.309h-.004zm-5.197.48c-.226.036-.452.075-.677.114.226-.039.45-.078.677-.113zm-2.088.372zm-2.248.488c-.155.037-.316.07-.468.107.153-.038.313-.07.468-.107zm-.54.129c-.66.166-1.306.34-1.917.523-.607.183-1.078.312-1.203.334-.041.09-.146.284-.146.301 0 .05.024.082.054.066.783-.39 1.945-.815 3.211-1.224zm14.189.588.13.008-.13-.008zm-21.793 2.783zm-1.58 1.7c-.174.21-.36.423-.508.626.149-.204.334-.414.508-.627zm-.696.892zm-.357.568c-.049.085-.102.172-.143.252.041-.08.094-.166.143-.252zm-.271.547c-.023.057-.056.119-.073.172.017-.053.05-.115.073-.172zm1.293.998zm-1.42.049c.012.074.06.099.207.078a2.684 2.684 0 0 1-.207-.078zm.316.1c.077.018.154.038.227.044-.073-.007-.15-.026-.227-.045zm.615.019z"/>
</svg>
