<svg width="16" height="16">
  <path fill="currentColor" d="M16.38 0h4.625v3.594H16.38zM7.5 2.001v.5h1v-.5h-1Zm0 1v.5h1v-.5h-1Zm0 1v3H4a.482.482 0 0 0-.1.008A3.5 3.5 0 0 0 .619 9.595a3.505 3.505 0 0 0 1.631 3.937 3.503 3.503 0 0 0 4.195-.531h3.11a3.503 3.503 0 0 0 4.195.531 3.505 3.505 0 0 0 1.631-3.937 3.5 3.5 0 0 0-3.287-2.586.497.497 0 0 0-.094-.008H8.5v-3h-1Zm-3.5 4h8c1.134 0 2.123.758 2.416 1.853a2.498 2.498 0 0 1-1.166 2.813 2.488 2.488 0 0 1-2.877-.28c-.131-.129-.259-.39-.494-.386H6.121c-.234-.003-.394.267-.492.385a2.49 2.49 0 0 1-2.879.281 2.495 2.495 0 0 1-1.164-2.813A2.495 2.495 0 0 1 4 8.001Zm-.5 1v1h-1v1h1v1h1v-1h1v-1h-1v-1h-1Zm8.5 0a.5.5 0 1 0 0 1 .5.5 0 0 0 0-1Zm-1 1a.5.5 0 1 0 0 1 .5.5 0 0 0 0-1Zm2 0a.5.5 0 1 0 0 1 .5.5 0 0 0 0-1Zm-1 1a.5.5 0 1 0 0 1 .5.5 0 0 0 0-1Z" color="#ececec"/>
</svg>
