<svg width="16" height="16">
  <defs>
    <linearGradient id="applications-chat_svg__arrongin" x1="0%" x2="0%" y1="0%" y2="100%">
      <stop offset="0%" stop-color="#dd9b44"/>
      <stop offset="100%" stop-color="#ad6c16"/>
    </linearGradient>
    <linearGradient id="applications-chat_svg__aurora" x1="0%" x2="0%" y1="0%" y2="100%">
      <stop offset="0%" stop-color="#09d4df"/>
      <stop offset="100%" stop-color="#9269f4"/>
    </linearGradient>
    <linearGradient id="applications-chat_svg__cyberneon" x1="0%" x2="0%" y1="0%" y2="100%">
      <stop offset="0" stop-color="#0abdc6"/>
      <stop offset="1" stop-color="#ea00d9"/>
    </linearGradient>
    <linearGradient id="applications-chat_svg__fitdance" x1="0%" x2="0%" y1="0%" y2="100%">
      <stop offset="0%" stop-color="#1ad6ab"/>
      <stop offset="100%" stop-color="#329db6"/>
    </linearGradient>
    <linearGradient id="applications-chat_svg__oomox" x1="0%" x2="0%" y1="0%" y2="100%">
      <stop offset="0%" stop-color="#efefe7"/>
      <stop offset="100%" stop-color="#8f8f8b"/>
    </linearGradient>
    <linearGradient id="applications-chat_svg__rainblue" x1="0%" x2="0%" y1="0%" y2="100%">
      <stop offset="0%" stop-color="#00f260"/>
      <stop offset="100%" stop-color="#0575e6"/>
    </linearGradient>
    <linearGradient id="applications-chat_svg__sunrise" x1="0%" x2="0%" y1="0%" y2="100%">
      <stop offset="0%" stop-color="#ff8501"/>
      <stop offset="100%" stop-color="#ffcb01"/>
    </linearGradient>
    <linearGradient id="applications-chat_svg__telinkrin" x1="0%" x2="0%" y1="0%" y2="100%">
      <stop offset="0%" stop-color="#b2ced6"/>
      <stop offset="100%" stop-color="#6da5b7"/>
    </linearGradient>
    <linearGradient id="applications-chat_svg__60spsycho" x1="0%" x2="0%" y1="0%" y2="100%">
      <stop offset="0%" stop-color="#df5940"/>
      <stop offset="25%" stop-color="#d8d15f"/>
      <stop offset="50%" stop-color="#e9882a"/>
      <stop offset="100%" stop-color="#279362"/>
    </linearGradient>
    <linearGradient id="applications-chat_svg__90ssummer" x1="0%" x2="0%" y1="0%" y2="100%">
      <stop offset="0%" stop-color="#f618c7"/>
      <stop offset="20%" stop-color="#94ffab"/>
      <stop offset="50%" stop-color="#fbfd54"/>
      <stop offset="100%" stop-color="#0f83ae"/>
    </linearGradient>
    <style id="current-color-scheme" type="text/css">
      .applications-chat_svg__ColorScheme-Highlight{color:#5294e2}
    </style>
  </defs>
  <path fill="currentColor" d="M3.996 0c-1.259.017-2.18-.035-2.933.44a1.88 2.149 0 0 0-.838 1.14C.06 2.08 0 2.678 0 3.43v6.857c0 .752.06 1.347.225 1.848.165.502.46.903.838 1.14.753.476 1.674.423 2.933.44h.205L7.003 16l2.803-2.286h2.198c1.259-.017 2.18.035 2.933-.44a1.88 2.149 0 0 0 .838-1.14c.164-.5.225-1.097.225-1.848V3.429c0-.752-.06-1.348-.225-1.849a1.88 2.149 0 0 0-.838-1.14c-.753-.476-1.674-.423-2.933-.44Zm.006 1.143h8.008c1.26.017 2.09.068 2.456.299.183.114.288.243.385.54.097.297.16.77.16 1.447v6.857c0 .676-.063 1.149-.16 1.446-.098.297-.203.425-.387.54-.366.231-1.195.282-2.454.3H4.002c-1.259-.018-2.09-.069-2.456-.3-.183-.114-.287-.243-.385-.54-.098-.297-.16-.77-.16-1.446V3.429c0-.677.063-1.15.16-1.447.098-.297.202-.425.385-.54.366-.23 1.197-.282 2.456-.3Z" color="#ececec"/>
</svg>
