<svg width="16" height="16">
  <defs>
    <linearGradient id="arduino-ide_svg__arrongin" x1="0%" x2="0%" y1="0%" y2="100%">
      <stop offset="0%" stop-color="#dd9b44"/>
      <stop offset="100%" stop-color="#ad6c16"/>
    </linearGradient>
    <linearGradient id="arduino-ide_svg__aurora" x1="0%" x2="0%" y1="0%" y2="100%">
      <stop offset="0%" stop-color="#09d4df"/>
      <stop offset="100%" stop-color="#9269f4"/>
    </linearGradient>
    <linearGradient id="arduino-ide_svg__cyberneon" x1="0%" x2="0%" y1="0%" y2="100%">
      <stop offset="0" stop-color="#0abdc6"/>
      <stop offset="1" stop-color="#ea00d9"/>
    </linearGradient>
    <linearGradient id="arduino-ide_svg__fitdance" x1="0%" x2="0%" y1="0%" y2="100%">
      <stop offset="0%" stop-color="#1ad6ab"/>
      <stop offset="100%" stop-color="#329db6"/>
    </linearGradient>
    <linearGradient id="arduino-ide_svg__oomox" x1="0%" x2="0%" y1="0%" y2="100%">
      <stop offset="0%" stop-color="#efefe7"/>
      <stop offset="100%" stop-color="#8f8f8b"/>
    </linearGradient>
    <linearGradient id="arduino-ide_svg__rainblue" x1="0%" x2="0%" y1="0%" y2="100%">
      <stop offset="0%" stop-color="#00f260"/>
      <stop offset="100%" stop-color="#0575e6"/>
    </linearGradient>
    <linearGradient id="arduino-ide_svg__sunrise" x1="0%" x2="0%" y1="0%" y2="100%">
      <stop offset="0%" stop-color="#ff8501"/>
      <stop offset="100%" stop-color="#ffcb01"/>
    </linearGradient>
    <linearGradient id="arduino-ide_svg__telinkrin" x1="0%" x2="0%" y1="0%" y2="100%">
      <stop offset="0%" stop-color="#b2ced6"/>
      <stop offset="100%" stop-color="#6da5b7"/>
    </linearGradient>
    <linearGradient id="arduino-ide_svg__60spsycho" x1="0%" x2="0%" y1="0%" y2="100%">
      <stop offset="0%" stop-color="#df5940"/>
      <stop offset="25%" stop-color="#d8d15f"/>
      <stop offset="50%" stop-color="#e9882a"/>
      <stop offset="100%" stop-color="#279362"/>
    </linearGradient>
    <linearGradient id="arduino-ide_svg__90ssummer" x1="0%" x2="0%" y1="0%" y2="100%">
      <stop offset="0%" stop-color="#f618c7"/>
      <stop offset="20%" stop-color="#94ffab"/>
      <stop offset="50%" stop-color="#fbfd54"/>
      <stop offset="100%" stop-color="#0f83ae"/>
    </linearGradient>
    <style id="current-color-scheme" type="text/css">
      .arduino-ide_svg__ColorScheme-Text{color:#ececec}
    </style>
  </defs>
  <path fill="currentColor" d="M4.152 4.502c-1.159 0-2.108.436-2.73 1.11C.8 6.283.5 7.164.5 8.036c0 .872.3 1.753.922 2.426.619.67 1.563 1.105 2.715 1.11a3.675 3.675 0 0 0 2.722-.987c.482-.444.8-.998 1.141-1.533.341.535.659 1.089 1.14 1.533a3.675 3.675 0 0 0 2.723.986c1.152-.004 2.096-.44 2.715-1.11.622-.672.922-1.553.922-2.425 0-.872-.3-1.753-.922-2.426-.622-.673-1.571-1.109-2.73-1.109-1.191 0-2.13.463-2.825 1.105-.435.403-.709.895-1.023 1.368-.314-.473-.588-.965-1.023-1.368a4.069 4.069 0 0 0-2.825-1.105zm0 1.248c.89 0 1.456.291 1.977.773.404.374.748.937 1.1 1.489-.398.64-.783 1.26-1.215 1.658-.49.452-1 .7-1.83.656h-.032c-.859 0-1.425-.29-1.812-.709s-.592-.996-.592-1.58c0-.584.205-1.159.592-1.578.387-.42.953-.709 1.812-.709zm7.696 0c.859 0 1.425.29 1.812.709.387.42.592.994.592 1.578 0 .584-.205 1.161-.592 1.58-.387.42-.953.71-1.812.71h-.032c-.83.043-1.34-.205-1.83-.657-.432-.399-.817-1.018-1.215-1.658.352-.552.696-1.115 1.1-1.489.521-.482 1.087-.773 1.977-.773z" class="arduino-ide_svg__ColorScheme-Text"/>
  <path fill="currentColor" d="M11.309 6.908v.676h-.676v.701h.676v.682h.705v-.682h.675v-.701h-.675v-.676h-.705zm-8.17.668V8.3h2.224v-.723H3.14z" class="arduino-ide_svg__ColorScheme-Text"/>
</svg>
