<svg width="48" height="48">
  <path fill="#f4f4f7" d="M2 2v44h44V2H2zm26.411 2.922h2.922v2.95h-2.922v-2.95zm5.844 0h2.95v2.95h-2.95v-2.95zm5.873 0h2.95v2.95h-2.95v-2.95zm-5.873 5.872h2.95v2.95h-2.95v-2.95zm5.873 0h2.95v2.95h-2.95v-2.95zm-37.211 6.79H15.32v5.127h-2.492v2.578h2.492v5.128H2.917V17.583zm9.911 7.705h-7.42v2.578h7.42V25.29zm0-2.578v-2.578h-7.42v2.578h7.42zm4.985-5.128h12.346v12.834h-2.435V20.133h-2.492v10.284H22.74V20.133h-2.493v10.284h-2.435V17.583zm14.867 0h12.403v7.706h-9.911v5.128H32.68V17.583zm2.492 2.55v2.578h7.42v-2.578h-7.42z"/>
</svg>
