<svg width="16" height="16">
  <defs>
    <linearGradient id="builder_svg__arrongin" x1="0%" x2="0%" y1="0%" y2="100%">
      <stop offset="0%" stop-color="#dd9b44"/>
      <stop offset="100%" stop-color="#ad6c16"/>
    </linearGradient>
    <linearGradient id="builder_svg__aurora" x1="0%" x2="0%" y1="0%" y2="100%">
      <stop offset="0%" stop-color="#09d4df"/>
      <stop offset="100%" stop-color="#9269f4"/>
    </linearGradient>
    <linearGradient id="builder_svg__cyberneon" x1="0%" x2="0%" y1="0%" y2="100%">
      <stop offset="0" stop-color="#0abdc6"/>
      <stop offset="1" stop-color="#ea00d9"/>
    </linearGradient>
    <linearGradient id="builder_svg__fitdance" x1="0%" x2="0%" y1="0%" y2="100%">
      <stop offset="0%" stop-color="#1ad6ab"/>
      <stop offset="100%" stop-color="#329db6"/>
    </linearGradient>
    <linearGradient id="builder_svg__oomox" x1="0%" x2="0%" y1="0%" y2="100%">
      <stop offset="0%" stop-color="#efefe7"/>
      <stop offset="100%" stop-color="#8f8f8b"/>
    </linearGradient>
    <linearGradient id="builder_svg__rainblue" x1="0%" x2="0%" y1="0%" y2="100%">
      <stop offset="0%" stop-color="#00f260"/>
      <stop offset="100%" stop-color="#0575e6"/>
    </linearGradient>
    <linearGradient id="builder_svg__sunrise" x1="0%" x2="0%" y1="0%" y2="100%">
      <stop offset="0%" stop-color="#ff8501"/>
      <stop offset="100%" stop-color="#ffcb01"/>
    </linearGradient>
    <linearGradient id="builder_svg__telinkrin" x1="0%" x2="0%" y1="0%" y2="100%">
      <stop offset="0%" stop-color="#b2ced6"/>
      <stop offset="100%" stop-color="#6da5b7"/>
    </linearGradient>
    <linearGradient id="builder_svg__60spsycho" x1="0%" x2="0%" y1="0%" y2="100%">
      <stop offset="0%" stop-color="#df5940"/>
      <stop offset="25%" stop-color="#d8d15f"/>
      <stop offset="50%" stop-color="#e9882a"/>
      <stop offset="100%" stop-color="#279362"/>
    </linearGradient>
    <linearGradient id="builder_svg__90ssummer" x1="0%" x2="0%" y1="0%" y2="100%">
      <stop offset="0%" stop-color="#f618c7"/>
      <stop offset="20%" stop-color="#94ffab"/>
      <stop offset="50%" stop-color="#fbfd54"/>
      <stop offset="100%" stop-color="#0f83ae"/>
    </linearGradient>
    <style id="current-color-scheme" type="text/css">
      .builder_svg__ColorScheme-Highlight{color:#5294e2}
    </style>
  </defs>
  <path fill="currentColor" fill-rule="evenodd" d="M9.5 0a1.99 1.99 0 0 0-1.986 1.865l-.9.9-.555.555-.791.791A2.986 2.986 0 0 0 4.5 4a2.993 2.993 0 0 0-2 5.225V13h4V9.225A2.98 2.98 0 0 0 7.5 7c0-.268-.046-.521-.111-.768l.79-.79.555-.555.9-.9c.13-.01.255-.032.376-.063l.773.773.01.01.144.145-.29.29a.5.5 0 0 0-.147.354v2a.5.5 0 0 0 .5.5L13 8c.676.01.676-1.01 0-1l-1.5-.002V5.705l1.707-1.709H14.5v1.5c-.01.677 1.01.677 1 0v-2a.5.5 0 0 0-.5-.5h-2a.5.5 0 0 0-.354.147l-.294.295-.145-.145-.01-.01-.771-.771c.043-.164.074-.333.074-.512 0-1.108-.892-2-2-2zm0 1c.554 0 1 .446 1 1s-.446 1-1 1-1-.446-1-1 .446-1 1-1zm-5 4c1.108 0 2 .892 2 2a2.02 2.02 0 0 1-.977 1.71c-.014.01-.03.018-.045.026a1.93 1.93 0 0 1-.376.162c-.04.013-.078.026-.118.036A1.97 1.97 0 0 1 4.5 9a1.97 1.97 0 0 1-.484-.066 1.605 1.605 0 0 1-.118-.036A1.974 1.974 0 0 1 2.775 8 1.982 1.982 0 0 1 2.5 7c0-1.108.892-2 2-2zm0 1c-.554 0-1 .446-1 1s.446 1 1 1 1-.446 1-1-.446-1-1-1zm-3 8s-1 0-1 1v1h8v-1s0-1-1-1z" color="#ececec"/>
</svg>
