<svg fill="#e9e9e9" viewBox="0 0 48 48">
  <ellipse cx="23.99" cy="24.486" fill="#a5a5a5" stroke="#000" stroke-linecap="round" stroke-linejoin="round" stroke-opacity=".97" stroke-width="1.2" opacity=".666" paint-order="fill markers stroke" rx="17.145" ry="16.501"/>
  <path fill="#cdcdcd" d="M39.335 17.83c0 2.23-2.921 4.97-6.766 4.97s-8.844-2.288-8.844-4.518 3.117-4.037 6.962-4.037c2.937 0 6.842 2.602 8.333 2.895.116.243.202.416.315.69z"/>
  <path fill="#606060" d="M10.8 14.68c1.827-1.368 5.212-.178 7.57 2.75 2.357 2.927 2.61 7.264.783 8.631-1.827 1.368-5.043-.752-7.4-3.68-1.802-2.237-.599-5.86-1.273-7.174a11.563 11.146 0 0 1 .32-.528z"/>
  <path fill="#515151" d="M39.02 17.139c-1.034-.005-9.012.041-15.889.009-2.564.727-4.679 1.886-5.782 4.148-.788-.647-6.014-6.006-6.554-6.607 4.632-5.925 10.999-6.481 12.237-6.481 1.237 0 10.425-1.228 15.988 8.93z"/>
  <path fill="#999ea3" d="M22.356 40c-1.845-1.345-2.151-5.254.169-8.21 2.32-2.955 6.056-4.971 7.9-3.626 1.845 1.346 1.1 5.544-1.22 8.5-1.773 2.257-5.238 2.401-6.38 3.37-.183-.006-.289-.008-.47-.033z"/>
  <path fill="#ddd" d="M22.825 40.034c.529-.857 4.259-7.525 7.776-13.222.651-2.498.789-4.785-.673-6.85.978-.326 8.595-1.988 9.407-2.131 2.946 6.854.214 12.424-.414 13.453-.628 1.028-4.192 9.283-16.096 8.75z"/>
  <path fill="#a5a5a5" d="M10.486 15.201c.512.867 4.534 7.509 7.937 13.27 1.932 1.778 4.086 2.771 6.67 2.565-.189.98-2.455 8.215-2.726 8.966-7.638-.913-11.315-5.954-11.932-6.988-.618-1.034-6.306-8.096.051-17.813z"/>
  <path fill="#dbdbdb" stroke="#1c1c1c" stroke-width="7.8" d="M680.066 123.972c0 25.343-20.459 45.887-45.696 45.887s-45.695-20.544-45.695-45.887 20.458-45.887 45.695-45.887c25.237 0 45.696 20.544 45.696 45.887z" transform="matrix(.14758 0 0 .14226 -69.569 6.436)"/>
  <path fill="#515151" stroke="#000" stroke-linecap="round" stroke-linejoin="round" stroke-width=".6" d="M8 16h8V8H8z" opacity=".685"/>
  <path fill="#ddd" stroke="#000" stroke-linejoin="round" stroke-width=".6" d="M20 40h8v-8h-8z"/>
  <path fill="#a5a5a5" stroke="#000" stroke-linejoin="round" stroke-width=".6" d="M8 40h8v-8H8zm0-12h8v-8H8z" opacity=".675"/>
  <path fill="#ddd" stroke="#000" stroke-linejoin="round" stroke-width=".6" d="M32 28h8v-8h-8zm0 12h8v-8h-8z" opacity=".578"/>
  <path fill="#515151" stroke="#000" stroke-linecap="round" stroke-linejoin="round" stroke-width=".6" d="M32 8v8h8V8zm-12 8h8V8h-8z" opacity=".666"/>
</svg>
