<svg width="16" height="16">
  <defs>
    <linearGradient id="com_gitlab_bitseater_meteo_svg__arrongin" x1="0%" x2="0%" y1="0%" y2="100%">
      <stop offset="0%" stop-color="#dd9b44"/>
      <stop offset="100%" stop-color="#ad6c16"/>
    </linearGradient>
    <linearGradient id="com_gitlab_bitseater_meteo_svg__aurora" x1="0%" x2="0%" y1="0%" y2="100%">
      <stop offset="0%" stop-color="#09d4df"/>
      <stop offset="100%" stop-color="#9269f4"/>
    </linearGradient>
    <linearGradient id="com_gitlab_bitseater_meteo_svg__cyberneon" x1="0%" x2="0%" y1="0%" y2="100%">
      <stop offset="0" stop-color="#0abdc6"/>
      <stop offset="1" stop-color="#ea00d9"/>
    </linearGradient>
    <linearGradient id="com_gitlab_bitseater_meteo_svg__fitdance" x1="0%" x2="0%" y1="0%" y2="100%">
      <stop offset="0%" stop-color="#1ad6ab"/>
      <stop offset="100%" stop-color="#329db6"/>
    </linearGradient>
    <linearGradient id="com_gitlab_bitseater_meteo_svg__oomox" x1="0%" x2="0%" y1="0%" y2="100%">
      <stop offset="0%" stop-color="#efefe7"/>
      <stop offset="100%" stop-color="#8f8f8b"/>
    </linearGradient>
    <linearGradient id="com_gitlab_bitseater_meteo_svg__rainblue" x1="0%" x2="0%" y1="0%" y2="100%">
      <stop offset="0%" stop-color="#00f260"/>
      <stop offset="100%" stop-color="#0575e6"/>
    </linearGradient>
    <linearGradient id="com_gitlab_bitseater_meteo_svg__sunrise" x1="0%" x2="0%" y1="0%" y2="100%">
      <stop offset="0%" stop-color="#ff8501"/>
      <stop offset="100%" stop-color="#ffcb01"/>
    </linearGradient>
    <linearGradient id="com_gitlab_bitseater_meteo_svg__telinkrin" x1="0%" x2="0%" y1="0%" y2="100%">
      <stop offset="0%" stop-color="#b2ced6"/>
      <stop offset="100%" stop-color="#6da5b7"/>
    </linearGradient>
    <linearGradient id="com_gitlab_bitseater_meteo_svg__60spsycho" x1="0%" x2="0%" y1="0%" y2="100%">
      <stop offset="0%" stop-color="#df5940"/>
      <stop offset="25%" stop-color="#d8d15f"/>
      <stop offset="50%" stop-color="#e9882a"/>
      <stop offset="100%" stop-color="#279362"/>
    </linearGradient>
    <linearGradient id="com_gitlab_bitseater_meteo_svg__90ssummer" x1="0%" x2="0%" y1="0%" y2="100%">
      <stop offset="0%" stop-color="#f618c7"/>
      <stop offset="20%" stop-color="#94ffab"/>
      <stop offset="50%" stop-color="#fbfd54"/>
      <stop offset="100%" stop-color="#0f83ae"/>
    </linearGradient>
    <style id="current-color-scheme" type="text/css">
      .com_gitlab_bitseater_meteo_svg__ColorScheme-Highlight{color:#5294e2}
    </style>
  </defs>
  <path fill="currentColor" d="M7.417 15.477a2.808 2.808 0 0 1-1.74-.97c-.817-.964-.904-2.325-.21-3.277l.199-.273v-4.31c0-4.189.002-4.316.08-4.564A2.282 2.282 0 0 1 7.17.608c.393-.14 1.005-.144 1.39-.01.543.188.989.579 1.251 1.098.246.486.237.29.237 4.971v4.28l.16.207c.33.43.498.956.5 1.57.003 1.252-.909 2.413-2.112 2.692-.345.08-.88.108-1.18.061zm1.204-1.3c.777-.385 1.131-1.322.79-2.092a1.891 1.891 0 0 0-.304-.42l-.222-.232-.011-4.502-.011-4.5-.095-.211c-.207-.457-.64-.683-1.109-.578a.954.954 0 0 0-.655.496l-.112.212-.01 4.527-.011 4.527-.194.201c-.36.374-.54.914-.45 1.35.106.513.43.972.838 1.19.325.172.49.207.905.191.312-.012.39-.031.65-.16zm-1.105-.304c-.531-.162-.862-.601-.864-1.148-.001-.347.11-.563.441-.853l.22-.193.001-4.273V3.134H8.44l.001 4.293.001 4.292.163.115c.09.063.228.215.309.336.183.276.22.603.108.943-.1.297-.44.634-.737.729-.221.07-.591.086-.77.031z" color="#ececec"/>
</svg>
