<svg width="16" height="16">
  <defs>
    <linearGradient id="com_wire_WireDesktop_svg__arrongin" x1="0%" x2="0%" y1="0%" y2="100%">
      <stop offset="0%" stop-color="#dd9b44"/>
      <stop offset="100%" stop-color="#ad6c16"/>
    </linearGradient>
    <linearGradient id="com_wire_WireDesktop_svg__aurora" x1="0%" x2="0%" y1="0%" y2="100%">
      <stop offset="0%" stop-color="#09d4df"/>
      <stop offset="100%" stop-color="#9269f4"/>
    </linearGradient>
    <linearGradient id="com_wire_WireDesktop_svg__cyberneon" x1="0%" x2="0%" y1="0%" y2="100%">
      <stop offset="0" stop-color="#0abdc6"/>
      <stop offset="1" stop-color="#ea00d9"/>
    </linearGradient>
    <linearGradient id="com_wire_WireDesktop_svg__fitdance" x1="0%" x2="0%" y1="0%" y2="100%">
      <stop offset="0%" stop-color="#1ad6ab"/>
      <stop offset="100%" stop-color="#329db6"/>
    </linearGradient>
    <linearGradient id="com_wire_WireDesktop_svg__oomox" x1="0%" x2="0%" y1="0%" y2="100%">
      <stop offset="0%" stop-color="#efefe7"/>
      <stop offset="100%" stop-color="#8f8f8b"/>
    </linearGradient>
    <linearGradient id="com_wire_WireDesktop_svg__rainblue" x1="0%" x2="0%" y1="0%" y2="100%">
      <stop offset="0%" stop-color="#00f260"/>
      <stop offset="100%" stop-color="#0575e6"/>
    </linearGradient>
    <linearGradient id="com_wire_WireDesktop_svg__sunrise" x1="0%" x2="0%" y1="0%" y2="100%">
      <stop offset="0%" stop-color="#ff8501"/>
      <stop offset="100%" stop-color="#ffcb01"/>
    </linearGradient>
    <linearGradient id="com_wire_WireDesktop_svg__telinkrin" x1="0%" x2="0%" y1="0%" y2="100%">
      <stop offset="0%" stop-color="#b2ced6"/>
      <stop offset="100%" stop-color="#6da5b7"/>
    </linearGradient>
    <linearGradient id="com_wire_WireDesktop_svg__60spsycho" x1="0%" x2="0%" y1="0%" y2="100%">
      <stop offset="0%" stop-color="#df5940"/>
      <stop offset="25%" stop-color="#d8d15f"/>
      <stop offset="50%" stop-color="#e9882a"/>
      <stop offset="100%" stop-color="#279362"/>
    </linearGradient>
    <linearGradient id="com_wire_WireDesktop_svg__90ssummer" x1="0%" x2="0%" y1="0%" y2="100%">
      <stop offset="0%" stop-color="#f618c7"/>
      <stop offset="20%" stop-color="#94ffab"/>
      <stop offset="50%" stop-color="#fbfd54"/>
      <stop offset="100%" stop-color="#0f83ae"/>
    </linearGradient>
    <style id="current-color-scheme" type="text/css">
      .com_wire_WireDesktop_svg__ColorScheme-Highlight{color:#5294e2}
    </style>
  </defs>
  <path fill="currentColor" d="M.5 1.814v8.272s-.004.986.596 1.967c.6.98 1.854 1.947 4.092 1.947 1.238 0 2.12-.319 2.812-.75.692.43 1.574.75 2.813.75 2.237 0 3.491-.967 4.091-1.947.6-.98.596-1.967.596-1.967V1.814h-.938v8.272s-.004.735-.458 1.478c-.455.743-1.31 1.499-3.291 1.499-.951 0-1.617-.189-2.13-.452.185-.194.472-.354.596-.558.6-.98.596-1.967.596-1.967V3.88s.007-.483-.215-.988A1.8 1.8 0 0 0 8 1.814a1.8 1.8 0 0 0-1.66 1.079c-.222.505-.215.988-.215.988v6.205s-.004.986.596 1.967c.125.204.41.364.595.558-.512.263-1.178.451-2.128.451-1.982 0-2.837-.755-3.292-1.498-.454-.743-.458-1.478-.458-1.478V1.814Zm7.5.938c.525 0 .671.225.8.52.13.294.138.609.138.609v6.205s-.005.735-.46 1.478c-.101.166-.328.3-.478.46-.15-.16-.377-.294-.479-.46a3.165 3.165 0 0 1-.458-1.478V3.88s.007-.315.136-.61c.13-.294.276-.519.801-.519Z" color="#ececec"/>
</svg>
