<svg width="16" height="16">
  <defs>
    <linearGradient id="com_github_mirkobrombin_football_svg__arrongin" x1="0%" x2="0%" y1="0%" y2="100%">
      <stop offset="0%" stop-color="#dd9b44"/>
      <stop offset="100%" stop-color="#ad6c16"/>
    </linearGradient>
    <linearGradient id="com_github_mirkobrombin_football_svg__aurora" x1="0%" x2="0%" y1="0%" y2="100%">
      <stop offset="0%" stop-color="#09d4df"/>
      <stop offset="100%" stop-color="#9269f4"/>
    </linearGradient>
    <linearGradient id="com_github_mirkobrombin_football_svg__cyberneon" x1="0%" x2="0%" y1="0%" y2="100%">
      <stop offset="0" stop-color="#0abdc6"/>
      <stop offset="1" stop-color="#ea00d9"/>
    </linearGradient>
    <linearGradient id="com_github_mirkobrombin_football_svg__fitdance" x1="0%" x2="0%" y1="0%" y2="100%">
      <stop offset="0%" stop-color="#1ad6ab"/>
      <stop offset="100%" stop-color="#329db6"/>
    </linearGradient>
    <linearGradient id="com_github_mirkobrombin_football_svg__oomox" x1="0%" x2="0%" y1="0%" y2="100%">
      <stop offset="0%" stop-color="#efefe7"/>
      <stop offset="100%" stop-color="#8f8f8b"/>
    </linearGradient>
    <linearGradient id="com_github_mirkobrombin_football_svg__rainblue" x1="0%" x2="0%" y1="0%" y2="100%">
      <stop offset="0%" stop-color="#00f260"/>
      <stop offset="100%" stop-color="#0575e6"/>
    </linearGradient>
    <linearGradient id="com_github_mirkobrombin_football_svg__sunrise" x1="0%" x2="0%" y1="0%" y2="100%">
      <stop offset="0%" stop-color="#ff8501"/>
      <stop offset="100%" stop-color="#ffcb01"/>
    </linearGradient>
    <linearGradient id="com_github_mirkobrombin_football_svg__telinkrin" x1="0%" x2="0%" y1="0%" y2="100%">
      <stop offset="0%" stop-color="#b2ced6"/>
      <stop offset="100%" stop-color="#6da5b7"/>
    </linearGradient>
    <linearGradient id="com_github_mirkobrombin_football_svg__60spsycho" x1="0%" x2="0%" y1="0%" y2="100%">
      <stop offset="0%" stop-color="#df5940"/>
      <stop offset="25%" stop-color="#d8d15f"/>
      <stop offset="50%" stop-color="#e9882a"/>
      <stop offset="100%" stop-color="#279362"/>
    </linearGradient>
    <linearGradient id="com_github_mirkobrombin_football_svg__90ssummer" x1="0%" x2="0%" y1="0%" y2="100%">
      <stop offset="0%" stop-color="#f618c7"/>
      <stop offset="20%" stop-color="#94ffab"/>
      <stop offset="50%" stop-color="#fbfd54"/>
      <stop offset="100%" stop-color="#0f83ae"/>
    </linearGradient>
    <style id="current-color-scheme" type="text/css">
      .com_github_mirkobrombin_football_svg__ColorScheme-Highlight{color:#5294e2}
    </style>
  </defs>
  <path fill="currentColor" d="M8 .001A8 8 0 0 0 0 8c0 4.417 3.583 8 8 8s8-3.583 8-8-3.584-8-8-8v.001ZM5.931 1.58l-.33.606L8 3.219l2.4-1.034-.332-.605a6.751 6.751 0 0 1 3.395 2.478l-.683-.137-.234 2.596 1.717 1.97.488-.527V8c0 1.5-.495 2.878-1.327 4l-.078-.703-2.536.567-1.327 2.243.624.293A6.766 6.766 0 0 1 8 14.751a6.766 6.766 0 0 1-2.107-.351l.624-.293-1.327-2.243-2.536-.567-.078.703a6.691 6.691 0 0 1-1.327-4v-.039l.489.527 1.717-1.971-.235-2.595-.683.136a6.756 6.756 0 0 1 3.395-2.476l-.001-.002ZM8 5.326l-2.81 2.05 1.074 3.297h3.472l1.074-3.297L8 5.326Z" color="#ececec"/>
</svg>
