<svg width="16" height="16">
  <defs>
    <linearGradient id="com_github_ojubaorg_Othman_svg__arrongin" x1="0%" x2="0%" y1="0%" y2="100%">
      <stop offset="0%" stop-color="#dd9b44"/>
      <stop offset="100%" stop-color="#ad6c16"/>
    </linearGradient>
    <linearGradient id="com_github_ojubaorg_Othman_svg__aurora" x1="0%" x2="0%" y1="0%" y2="100%">
      <stop offset="0%" stop-color="#09d4df"/>
      <stop offset="100%" stop-color="#9269f4"/>
    </linearGradient>
    <linearGradient id="com_github_ojubaorg_Othman_svg__cyberneon" x1="0%" x2="0%" y1="0%" y2="100%">
      <stop offset="0" stop-color="#0abdc6"/>
      <stop offset="1" stop-color="#ea00d9"/>
    </linearGradient>
    <linearGradient id="com_github_ojubaorg_Othman_svg__fitdance" x1="0%" x2="0%" y1="0%" y2="100%">
      <stop offset="0%" stop-color="#1ad6ab"/>
      <stop offset="100%" stop-color="#329db6"/>
    </linearGradient>
    <linearGradient id="com_github_ojubaorg_Othman_svg__oomox" x1="0%" x2="0%" y1="0%" y2="100%">
      <stop offset="0%" stop-color="#efefe7"/>
      <stop offset="100%" stop-color="#8f8f8b"/>
    </linearGradient>
    <linearGradient id="com_github_ojubaorg_Othman_svg__rainblue" x1="0%" x2="0%" y1="0%" y2="100%">
      <stop offset="0%" stop-color="#00f260"/>
      <stop offset="100%" stop-color="#0575e6"/>
    </linearGradient>
    <linearGradient id="com_github_ojubaorg_Othman_svg__sunrise" x1="0%" x2="0%" y1="0%" y2="100%">
      <stop offset="0%" stop-color="#ff8501"/>
      <stop offset="100%" stop-color="#ffcb01"/>
    </linearGradient>
    <linearGradient id="com_github_ojubaorg_Othman_svg__telinkrin" x1="0%" x2="0%" y1="0%" y2="100%">
      <stop offset="0%" stop-color="#b2ced6"/>
      <stop offset="100%" stop-color="#6da5b7"/>
    </linearGradient>
    <linearGradient id="com_github_ojubaorg_Othman_svg__60spsycho" x1="0%" x2="0%" y1="0%" y2="100%">
      <stop offset="0%" stop-color="#df5940"/>
      <stop offset="25%" stop-color="#d8d15f"/>
      <stop offset="50%" stop-color="#e9882a"/>
      <stop offset="100%" stop-color="#279362"/>
    </linearGradient>
    <linearGradient id="com_github_ojubaorg_Othman_svg__90ssummer" x1="0%" x2="0%" y1="0%" y2="100%">
      <stop offset="0%" stop-color="#f618c7"/>
      <stop offset="20%" stop-color="#94ffab"/>
      <stop offset="50%" stop-color="#fbfd54"/>
      <stop offset="100%" stop-color="#0f83ae"/>
    </linearGradient>
    <style id="current-color-scheme" type="text/css">
      .com_github_ojubaorg_Othman_svg__ColorScheme-Highlight{color:#5294e2}
    </style>
  </defs>
  <path fill="currentColor" d="M7.391 15.737c-.278-.239-.295-.296-.295-.972v-.718l-.477.241c-.263.133-.815.327-1.227.433-.834.212-1.55.152-2.116-.18-.545-.318-.707-.644-.709-1.43 0-.39.034-.885.076-1.101.043-.22.04-.339-.006-.27-.191.282-.767.614-1.066.614-.516 0-.827-.454-.827-1.205 0-.356.082-.833.202-1.17l.202-.568-.226-.307c-.178-.24-.227-.432-.224-.882.003-.483.073-.71.44-1.422.438-.85.69-1.189.688-.922 0 .074-.105.316-.232.538-.42.734-.69 1.627-.615 2.031.06.317.106.368.336.367.396 0 .76-.261 1.967-1.412l1.092-1.041-.731-.533a27.617 27.617 0 0 0-1.17-.81c-.606-.383-.78-.815-.54-1.34.118-.258.28-.374 1.1-.78.312-.155.567-.3.567-.321 0-.022-.073-.112-.162-.2-.258-.259-.032-.873.384-1.039.176-.07.599-.253.94-.406C5.435.629 7.453-.053 7.51.003c.12.12-.149.346-.59.498-1.482.508-3.32 1.277-3.32 1.39 0 .028.068.182.15.34l.15.288.515-.206C6.058 1.655 8.488.951 9.114.951c.114 0 .317.11.453.245.208.208.236.303.18.615-.095.537-.348.898-1.079 1.547-.357.317-.79.771-.96 1.009-.379.525-.466.393-.153-.232.206-.412.823-1.08 1.608-1.739.291-.244.292-.25.108-.453-.136-.15-.305-.206-.625-.206-.45 0-1.886.345-2.929.704-1.17.402-3.496 1.44-3.496 1.558 0 .034.144.135.32.225.336.173 1.136.653 2.118 1.27l.581.365.456-.172c.25-.095.479-.196.507-.225.029-.028-.041-.586-.156-1.24-.2-1.132-.194-1.699.017-1.699.053 0 .096.042.096.092 0 .05.14.316.311.591.308.494.326.739.036.499-.187-.155-.195-.027-.044.677.127.592.403.968.846 1.153.294.123.328.177.328.529 0 .433-.046.458-.456.245-.329-.172-.853-.193-1.128-.045-.171.091-.075.187.868.86a88.59 88.59 0 0 1 1.43 1.04l.37.28V8.18c0-.146-.048-1.121-.106-2.166-.092-1.638-.086-1.939.041-2.179l.147-.278.213.491c.497 1.147.587 1.74.185 1.218l-.18-.235.006.54c.004.298.058 1.157.121 1.908l.114 1.367.383.198c.352.182.417.187.788.059l.405-.14.018-.59a11.65 11.65 0 0 0-.073-1.376 62.217 62.217 0 0 1-.185-2.113 412.78 412.78 0 0 0-.204-2.682c-.102-1.266-.08-1.745.081-1.74.094.002.708 1.413.708 1.625 0 .163-.011.163-.197-.005-.241-.218-.238-.308-.056 1.573.399 4.123.423 4.725.218 5.404-.2.66-.912.997-1.578.745l-.247-.094.02 1.642c.017 1.585-.111 2.575-.334 2.575-.045 0-.072-.43-.061-.958.01-.527-.018-1.561-.064-2.298L8.8 9.33l-.655-.497c-.36-.274-.744-.578-.852-.676a15.324 15.324 0 0 0-.774-.607l-.577-.43.25.43c.326.561.412 1.06.261 1.529-.186.581-.45.793-1.318 1.06-.928.286-1.761.74-1.985 1.08-.086.132-.202.518-.258.86-.13.795.022 1.27.541 1.688.32.258.474.307 1.06.34.985.055 2.294-.42 3.277-1.192.449-.353.447-.448-.032-1.777-.24-.664-.3-.956-.249-1.226l.067-.353.43.488c.48.542.535.683.242.607-.243-.063-.243-.044 0 .595.22.574.257 1.299.085 1.627-.062.118-.298.416-.526.661-.34.366-.427.54-.484.969-.052.399-.032.578.086.758.316.482.626.275 2.1-1.4.52-.592.735-.734 1.829-1.21l.578-.251.02-.688c.028-.918.309-1.426.79-1.426.174 0 .265.093.386.396.087.217.159.477.159.577 0 .307-.29 1.024-.508 1.256-.3.317-.176.524.312.524.295 0 .466-.064.643-.242.294-.292.298-.428.097-3.15-.455-6.182-.494-7.23-.266-7.223.076.002.707 1.396.707 1.56 0 .168-.176.13-.288-.063-.142-.243-.136.138.037 2.28.46 5.702.433 6.537-.227 7.168-.565.54-1.258.527-1.505-.029-.073-.165-.184-.301-.245-.301-.246 0-1.663.715-2.019 1.02-.209.178-.597.61-.863.96-.767 1.012-1.187 1.185-1.735.715Zm5.247-3.733c.254-.178.29-.598.077-.885-.298-.4-.661.18-.504.804.069.275.133.287.427.081Zm-10.7-.413c.142-.094.498-.419.79-.72.745-.769 1.201-1.043 2.42-1.453.88-.296 1.067-.394 1.092-.571.045-.317-.308-.935-.883-1.545-.608-.645-.445-.712-2.025.828-.675.66-1.29 1.168-1.545 1.28-.342.152-.455.269-.583.607-.381 1.01-.296 1.747.202 1.746.15 0 .39-.078.532-.172Zm.349-1.072c-.123-.123-.066-.838.093-1.173.16-.338.415-.483.285-.163-.21.52-.261.731-.207.873.05.127.089.134.207.036.172-.143.181-.101.05.24-.09.24-.288.327-.428.187Zm1.49-1.634c-.258-.212-.26-.225-.1-.488.186-.304.334-.34.514-.123.17.205.357.184.527-.058l.145-.206.304.224c.354.261.367.35.1.669l-.196.236-.251-.236-.252-.236-.18.222c-.22.27-.276.27-.61-.004Zm5.735 7.032c.001-.04.068-.16.147-.264.188-.249.187-.458-.003-.386-.213.082-.181-.1.055-.314.174-.157.217-.162.294-.04.13.206.12.27-.12.696-.195.345-.381.5-.373.308Zm1.627-.664c-.083-.2-.25-.385-.395-.44-.287-.11-.368-.591-.098-.591.158 0 .513.326.687.632.094.166.102.164.117-.029.021-.28.247-.728.391-.774.15-.05.463.423.374.566-.046.074-.125.056-.252-.059-.207-.186-.185-.218-.39.573-.066.256-.159.467-.205.467-.046 0-.15-.155-.229-.345Zm-9.407-1.597c.002-.04.067-.184.144-.32.182-.316.182-.393 0-.393-.178 0-.19-.114-.03-.275.163-.161.342-.148.412.032.061.16-.319 1.03-.45 1.03-.044 0-.078-.033-.076-.074Zm2.361-.316c-.161-.103-.203-.842-.073-1.303l.075-.268-.35.206c-.368.216-.552.188-.35-.053.126-.153 1.316-.89 1.622-1.004.302-.114.14.175-.243.434-.485.328-.628.66-.594 1.377.008.181.05.215.208.165.242-.077.253.059.024.333-.124.15-.213.181-.319.113Zm1.444-.893c-.307-.24-.327-.389-.09-.669l.172-.203.291.237c.255.208.28.271.197.505-.124.35-.252.38-.57.13Zm1.273-.083c-.198-.218-.198-.446 0-1.025.18-.531.367-.536.22-.005-.113.409-.026.952.116.723.119-.191.2-.085.133.171-.075.286-.28.345-.47.136Zm3.19-.289c0-.057.044-.13.096-.162.053-.032.07-.181.04-.332-.04-.205.013-.352.214-.59.304-.361.685-.396.685-.063 0 .152-.066.197-.287.197-.157 0-.303.051-.325.114-.056.164.324.26.727.184.29-.054.34-.038.312.1-.02.102-.24.231-.575.338-.298.095-.619.205-.714.245-.1.042-.172.03-.172-.031Zm4.876-1.368c0-.797-.079-2.562-.174-3.921-.131-1.857-.147-2.542-.066-2.753.108-.277.114-.27.442.506.183.432.334.841.336.909.005.18-.168.15-.284-.05-.143-.243-.133.266.042 2.188.188 2.073.186 3.419-.005 4.062-.083.28-.183.509-.221.51-.039 0-.07-.653-.07-1.45Zm-9.501.317c.068-.083.47-.441.891-.796.422-.355.79-.709.82-.785.03-.076.004-.247-.056-.38-.088-.193-.077-.29.058-.497.136-.206.196-.233.31-.14.077.065.141.236.141.381 0 .145.05.313.11.373.128.128.027.34-.145.301-.065-.015-.292.165-.505.4-.444.491-1.456 1.293-1.631 1.293-.089 0-.087-.037.007-.15Zm5.61-.626c0-.06.09-.109.198-.109.108 0 .197-.047.197-.106 0-.068-.116-.082-.32-.04l-.32.067.212-.219c.174-.179.277-.206.566-.152.396.074.433.152.182.378-.226.203-.714.327-.714.181ZM.02 10.215c-.03-.05.054-.25.187-.445.225-.33.23-.362.07-.453-.161-.091-.162-.11-.01-.263.226-.229.411-.084.341.266-.07.348-.51 1.02-.588.895Zm11.904-.611c-.165-.182-.166-.21-.013-.443.187-.285.235-.295.497-.098.171.13.214.123.42-.072l.231-.216.266.266.266.265-.265.265c-.259.258-.27.26-.466.083-.187-.17-.212-.17-.38-.019-.234.211-.342.205-.556-.031Zm.342-1.1c0-.191-.029-.621-.064-.954l-.063-.606-.343.202c-.375.221-.585.169-.268-.067.673-.5.628-.375.534-1.508-.29-3.5-.31-4.424-.093-4.424.093 0 .69 1.416.69 1.635 0 .15-.017.149-.196-.013-.195-.176-.197-.173-.155.304.024.266.076.947.117 1.515.041.567.083 1.065.093 1.106.01.04.024.19.031.331.01.22.034.24.164.132.106-.087.12-.157.05-.228-.145-.144-.128-.483.034-.704.113-.154.163-.166.286-.064.188.156.198 1 .011 1-.248 0-.54.502-.479.826.066.353-.12 1.636-.256 1.774-.059.058-.093-.037-.093-.256Zm3.191-.132c-.075-.3.025-.88.217-1.25.235-.452.316-.308.132.235-.183.537-.157.815.067.73.16-.062.163-.047.039.279-.123.322-.374.325-.455.006Zm-5.614-.396c-.098-.39.177-1.422.379-1.422.107 0 .094.09-.085.558-.185.483-.125.816.111.62.178-.147.202.01.045.303-.143.267-.375.236-.45-.06Zm-7.432-.65c-.13-.243-.078-.673.147-1.21.197-.472.305-.4.163.11a2.93 2.93 0 0 0-.105.605c0 .186.037.216.203.163.198-.063.2-.056.047.239-.185.358-.301.381-.455.094Zm5.438.081c-.12-.143-.004-.69.25-1.182.22-.428.268-.235.08.329-.179.537-.148.695.096.493.181-.15.206.005.048.3-.118.22-.32.246-.474.06ZM.02 6.701c.031-.08.088-.147.127-.147.102 0 1.231-.884 1.272-.995.019-.051-.02-.158-.086-.237-.168-.203.056-.734.31-.734.151 0 .185.074.185.403 0 .5-.39 1.03-1.12 1.52-.538.362-.78.428-.688.19ZM.551 5.48c-.088-.162-.071-.295.08-.634.104-.236.238-.459.299-.496.142-.088.138-.051-.038.371-.082.194-.148.404-.148.466 0 .082.041.08.148-.008.23-.192.192.126-.042.337-.18.162-.194.16-.3-.036Zm4.045-.673c-.134-.262-.283-.412-.428-.432-.282-.04-.367-.444-.115-.541.121-.046.25.028.437.251l.266.318.109-.434c.14-.552.351-.753.5-.474.197.367.054.72-.155.382-.093-.15-.207.214-.223.712-.02.594-.16.672-.391.218Zm5.11-.464c-.136-.163-.094-.696.09-1.169.169-.428.25-.225.11.274-.122.433-.075.705.102.596.145-.09.106.213-.043.337-.103.085-.165.076-.26-.038Zm1.474-.153c-.121-.226-.049-.698.165-1.076.13-.228.135-.21.077.271-.053.447-.04.508.096.456.18-.069.204.083.055.361-.131.245-.258.241-.393-.012Zm-3.813-.697a.496.496 0 0 1-.124-.306c0-.244.482-1.253.599-1.253.142 0 .108.164-.106.514-.243.398-.274.754-.05.568.217-.18.199.113-.024.387-.138.17-.197.188-.295.09Zm-5.382-.255c-.115-.114-.057-.727.096-1.023.195-.377.297-.295.151.122-.142.41-.138.482.03.482.087 0 .12.069.088.19-.052.198-.264.331-.365.23ZM8.72.675c0-.044.122-.132.27-.195.264-.113.261-.115-.098-.075-.383.043-.454-.02-.251-.221.122-.123.885-.165.994-.056.12.119-.125.41-.436.517-.371.13-.48.136-.48.03Z" color="#ececec"/>
</svg>
