<svg width="16" height="16">
  <defs>
    <linearGradient id="corebird_svg__arrongin" x1="0%" x2="0%" y1="0%" y2="100%">
      <stop offset="0%" stop-color="#dd9b44"/>
      <stop offset="100%" stop-color="#ad6c16"/>
    </linearGradient>
    <linearGradient id="corebird_svg__aurora" x1="0%" x2="0%" y1="0%" y2="100%">
      <stop offset="0%" stop-color="#09d4df"/>
      <stop offset="100%" stop-color="#9269f4"/>
    </linearGradient>
    <linearGradient id="corebird_svg__cyberneon" x1="0%" x2="0%" y1="0%" y2="100%">
      <stop offset="0" stop-color="#0abdc6"/>
      <stop offset="1" stop-color="#ea00d9"/>
    </linearGradient>
    <linearGradient id="corebird_svg__fitdance" x1="0%" x2="0%" y1="0%" y2="100%">
      <stop offset="0%" stop-color="#1ad6ab"/>
      <stop offset="100%" stop-color="#329db6"/>
    </linearGradient>
    <linearGradient id="corebird_svg__oomox" x1="0%" x2="0%" y1="0%" y2="100%">
      <stop offset="0%" stop-color="#efefe7"/>
      <stop offset="100%" stop-color="#8f8f8b"/>
    </linearGradient>
    <linearGradient id="corebird_svg__rainblue" x1="0%" x2="0%" y1="0%" y2="100%">
      <stop offset="0%" stop-color="#00f260"/>
      <stop offset="100%" stop-color="#0575e6"/>
    </linearGradient>
    <linearGradient id="corebird_svg__sunrise" x1="0%" x2="0%" y1="0%" y2="100%">
      <stop offset="0%" stop-color="#ff8501"/>
      <stop offset="100%" stop-color="#ffcb01"/>
    </linearGradient>
    <linearGradient id="corebird_svg__telinkrin" x1="0%" x2="0%" y1="0%" y2="100%">
      <stop offset="0%" stop-color="#b2ced6"/>
      <stop offset="100%" stop-color="#6da5b7"/>
    </linearGradient>
    <linearGradient id="corebird_svg__60spsycho" x1="0%" x2="0%" y1="0%" y2="100%">
      <stop offset="0%" stop-color="#df5940"/>
      <stop offset="25%" stop-color="#d8d15f"/>
      <stop offset="50%" stop-color="#e9882a"/>
      <stop offset="100%" stop-color="#279362"/>
    </linearGradient>
    <linearGradient id="corebird_svg__90ssummer" x1="0%" x2="0%" y1="0%" y2="100%">
      <stop offset="0%" stop-color="#f618c7"/>
      <stop offset="20%" stop-color="#94ffab"/>
      <stop offset="50%" stop-color="#fbfd54"/>
      <stop offset="100%" stop-color="#0f83ae"/>
    </linearGradient>
    <style id="current-color-scheme" type="text/css">
      .corebird_svg__ColorScheme-Highlight{color:#5294e2}
    </style>
  </defs>
  <path fill="currentColor" d="M4.445 1.34A4.444 4.44 0 0 0 0 5.78a4.444 4.44 0 0 0 3.639 4.365.94.94 0 0 0 .101.19c.004.01.009.012.014.019.018.022.036.05.057.074l3.562 3.953c.181.2.403.279.621.28h.008a.82.82 0 0 0 .623-.28l3.564-3.953c.021-.022.037-.05.055-.074.005-.01.011-.011.016-.018a.948.948 0 0 0 .1-.191A4.444 4.44 0 0 0 16 5.779a4.444 4.44 0 0 0-4.445-4.44A4.444 4.44 0 0 0 8 3.116 4.444 4.44 0 0 0 4.445 1.34zm0 3.55a1.333 1.332 0 0 1 1.332 1.333 1.333 1.332 0 0 1-1.332 1.332 1.333 1.332 0 0 1-1.334-1.332A1.333 1.332 0 0 1 4.445 4.89zm7.11 0a1.333 1.332 0 0 1 1.334 1.333 1.333 1.332 0 0 1-1.334 1.332 1.333 1.332 0 0 1-1.332-1.332 1.333 1.332 0 0 1 1.332-1.332z" color="#ececec"/>
</svg>
