<svg width="48" height="48">
  <path fill="#f4f4f7" d="M29.608 45.238c-.995-1.572 1.863-5.66-1.45-5.11-2.931.763-5.85 1.778-8.929 1.588-2.233-.078-4.587.468-6.512-.927-2.526-1.025-5.268-2.186-6.586-4.75-2.041-2.97-4.221-6.29-4.128-10.028 1.192-7.09 5.766-12.958 10.43-18.18 4.88-2.649 10.102-5.086 15.733-5.383 3.698.758 7.279 2.712 9.454 5.864-.529 2.664-3.682 1.214-5.105.153-1.896-2.17-4.869-2.652-7.463-1.452-5.228 1.315-9.264 5.18-12.876 8.96-1.471 2.146-1.903 4.788-2.783 7.195-.601 2.39-1.213 5.02-.395 7.418 1.64 2.987 4.12 5.741 7.318 7.032 3.29.723 6.83.443 9.83-1.14 1.44-.874 3.681-1.443 4.14-3.188.663-3.545.398-7.164.384-10.746-2.468-.963-4.935 1.848-7.304.396-1.334-2.419 2.779-3.31 4.568-3.563 5.631-1.187 11.308-2.267 17.062-2.613 2.687 1.46-.658 4.262-2.608 3.088-2.913.21-5.883.551-8.573 1.762-.103 2.858-.835 5.78-.028 8.6 2.382.395 5.467-3.922 7.188-1.093.261 2.68-2.13 4.702-3.994 6.264-1.122 1.406-4.03 1.54-4.074 3.554l-.881 7.052c-.84.022-1.91.063-2.418-.753z"/>
</svg>
