<svg width="16" height="16">
  <defs>
    <linearGradient id="deb_svg__arrongin" x1="0%" x2="0%" y1="0%" y2="100%">
      <stop offset="0%" stop-color="#dd9b44"/>
      <stop offset="100%" stop-color="#ad6c16"/>
    </linearGradient>
    <linearGradient id="deb_svg__aurora" x1="0%" x2="0%" y1="0%" y2="100%">
      <stop offset="0%" stop-color="#09d4df"/>
      <stop offset="100%" stop-color="#9269f4"/>
    </linearGradient>
    <linearGradient id="deb_svg__cyberneon" x1="0%" x2="0%" y1="0%" y2="100%">
      <stop offset="0" stop-color="#0abdc6"/>
      <stop offset="1" stop-color="#ea00d9"/>
    </linearGradient>
    <linearGradient id="deb_svg__fitdance" x1="0%" x2="0%" y1="0%" y2="100%">
      <stop offset="0%" stop-color="#1ad6ab"/>
      <stop offset="100%" stop-color="#329db6"/>
    </linearGradient>
    <linearGradient id="deb_svg__oomox" x1="0%" x2="0%" y1="0%" y2="100%">
      <stop offset="0%" stop-color="#efefe7"/>
      <stop offset="100%" stop-color="#8f8f8b"/>
    </linearGradient>
    <linearGradient id="deb_svg__rainblue" x1="0%" x2="0%" y1="0%" y2="100%">
      <stop offset="0%" stop-color="#00f260"/>
      <stop offset="100%" stop-color="#0575e6"/>
    </linearGradient>
    <linearGradient id="deb_svg__sunrise" x1="0%" x2="0%" y1="0%" y2="100%">
      <stop offset="0%" stop-color="#ff8501"/>
      <stop offset="100%" stop-color="#ffcb01"/>
    </linearGradient>
    <linearGradient id="deb_svg__telinkrin" x1="0%" x2="0%" y1="0%" y2="100%">
      <stop offset="0%" stop-color="#b2ced6"/>
      <stop offset="100%" stop-color="#6da5b7"/>
    </linearGradient>
    <linearGradient id="deb_svg__60spsycho" x1="0%" x2="0%" y1="0%" y2="100%">
      <stop offset="0%" stop-color="#df5940"/>
      <stop offset="25%" stop-color="#d8d15f"/>
      <stop offset="50%" stop-color="#e9882a"/>
      <stop offset="100%" stop-color="#279362"/>
    </linearGradient>
    <linearGradient id="deb_svg__90ssummer" x1="0%" x2="0%" y1="0%" y2="100%">
      <stop offset="0%" stop-color="#f618c7"/>
      <stop offset="20%" stop-color="#94ffab"/>
      <stop offset="50%" stop-color="#fbfd54"/>
      <stop offset="100%" stop-color="#0f83ae"/>
    </linearGradient>
    <style id="current-color-scheme" type="text/css">
      .deb_svg__ColorScheme-Highlight{color:#5294e2}
    </style>
  </defs>
  <path fill="currentColor" d="M12.477 6.993c.016.379-.115.563-.23.886l-.208.101c-.173.322.015.205-.109.459-.266.23-.81.719-.984.762-.129-.002.085-.144.112-.2-.358.237-.287.356-.835.501l-.016-.035c-1.35.613-3.227-.601-3.201-2.258-.016.106-.041.078-.071.122-.071-.854.408-1.71 1.213-2.059.79-.376 1.715-.223 2.279.284-.309-.39-.927-.805-1.659-.766-.718.009-1.388.45-1.613.924-.367.223-.408.861-.569.976-.216 1.526.404 2.187 1.455 2.96.165.106.046.122.069.205a2.847 2.847 0 0 1-.932-.686c.14.197.289.388.484.539-.328-.108-.769-.769-.897-.796.567.98 2.299 1.717 3.208 1.349-.42.016-.955.01-1.425-.158-.2-.099-.468-.303-.42-.34 1.236.446 2.517.338 3.589-.491.27-.204.569-.553.656-.557-.135.188.02.089-.078.257.271-.422-.117-.172.28-.73l.149.195c-.055-.351.45-.775.4-1.331.117-.17.128.184.007.574.169-.433.043-.502.087-.861.048.122.11.248.142.375-.111-.418.114-.705.17-.946-.056-.025-.173.184-.198-.309.003-.216.062-.111.083-.165-.043-.025-.159-.184-.227-.501.05-.073.135.193.204.205-.043-.251-.122-.443-.124-.636-.202-.404-.071.062-.234-.172-.213-.645.177-.149.205-.443.323.454.509 1.154.594 1.446a5.636 5.636 0 0 0-.298-1.031c.099.041-.159-.721.129-.218-.306-1.088-1.311-2.102-2.233-2.577.112.099.254.225.204.243-.459-.261-.379-.282-.445-.394-.375-.147-.4.011-.648 0-.704-.361-.84-.322-1.489-.553l.03.135c-.468-.149-.544.057-1.051 0-.03-.023.163-.085.321-.108-.452.06-.431-.085-.871.016.108-.074.222-.122.339-.186-.369.023-.879.209-.721.039-.601.259-1.668.622-2.267 1.163l-.02-.122c-.273.317-1.196.948-1.269 1.361l-.074.016c-.142.232-.236.496-.349.736-.185.308-.273.117-.248.166-.367.718-.548 1.321-.706 1.817.112.161.002.975.046 1.625-.186 3.213 2.338 6.329 5.094 7.05.406.14 1.005.135 1.517.149-.601-.167-.682-.089-1.269-.287-.422-.192-.516-.41-.817-.663l.119.202c-.587-.2-.342-.248-.821-.395l.128-.158c-.19-.014-.507-.31-.593-.476l-.208.01c-.251-.301-.386-.514-.375-.682l-.068.117c-.076-.128-.923-1.119-.482-.888-.083-.073-.19-.117-.31-.324l.09-.098c-.211-.262-.388-.6-.375-.709.113.146.191.172.269.197-.535-1.276-.565-.069-.968-1.299l.085-.007c-.064-.094-.104-.197-.159-.298l.039-.358c-.385-.429-.108-1.822-.053-2.584.039-.312.321-.643.535-1.161l-.131-.021c.25-.42 1.427-1.689 1.969-1.625.264-.319-.053 0-.103-.08.578-.581.761-.411 1.154-.514.427-.241-.363.094-.159-.092.721-.179.517-.408 1.469-.5.101.055-.234.085-.317.156.608-.287 1.921-.221 2.777.16.994.448 2.107 1.768 2.15 3.011l.051.012c-.025.498.078 1.067-.101 1.59l.122-.248" color="#ececec"/>
</svg>
