<svg width="16" height="16">
  <path fill="currentColor" d="M.644 0A.647.647 0 0 0 0 .644v5.247c0 .353.29.646.644.646h5.95a.65.65 0 0 0 .644-.646V.644A.647.647 0 0 0 6.594 0ZM.446 1.408h6.348v4.483c0 .114-.086.2-.2.2H.644a.194.194 0 0 1-.198-.2zm8.856.742a.582.582 0 0 0-.577.58v4.406c0 .316.26.579.577.579h6.119a.584.584 0 0 0 .579-.58V2.73a.584.584 0 0 0-.579-.58Zm-.13 1.431h6.382v3.555a.129.129 0 0 1-.133.133h-6.12a.127.127 0 0 1-.13-.133zM2.584 9.454a.649.649 0 0 0-.644.647v5.252c0 .354.29.647.644.647h9.02a.65.65 0 0 0 .647-.647v-5.252a.65.65 0 0 0-.646-.647zm-.198 1.733h9.42v4.166c0 .115-.087.2-.201.2H2.584a.194.194 0 0 1-.198-.2z" color="#ececec"/>
</svg>
