<svg width="16" height="16">
  <defs>
    <linearGradient id="downline_svg__arrongin" x1="0%" x2="0%" y1="0%" y2="100%">
      <stop offset="0%" stop-color="#dd9b44"/>
      <stop offset="100%" stop-color="#ad6c16"/>
    </linearGradient>
    <linearGradient id="downline_svg__aurora" x1="0%" x2="0%" y1="0%" y2="100%">
      <stop offset="0%" stop-color="#09d4df"/>
      <stop offset="100%" stop-color="#9269f4"/>
    </linearGradient>
    <linearGradient id="downline_svg__cyberneon" x1="0%" x2="0%" y1="0%" y2="100%">
      <stop offset="0" stop-color="#0abdc6"/>
      <stop offset="1" stop-color="#ea00d9"/>
    </linearGradient>
    <linearGradient id="downline_svg__fitdance" x1="0%" x2="0%" y1="0%" y2="100%">
      <stop offset="0%" stop-color="#1ad6ab"/>
      <stop offset="100%" stop-color="#329db6"/>
    </linearGradient>
    <linearGradient id="downline_svg__oomox" x1="0%" x2="0%" y1="0%" y2="100%">
      <stop offset="0%" stop-color="#efefe7"/>
      <stop offset="100%" stop-color="#8f8f8b"/>
    </linearGradient>
    <linearGradient id="downline_svg__rainblue" x1="0%" x2="0%" y1="0%" y2="100%">
      <stop offset="0%" stop-color="#00f260"/>
      <stop offset="100%" stop-color="#0575e6"/>
    </linearGradient>
    <linearGradient id="downline_svg__sunrise" x1="0%" x2="0%" y1="0%" y2="100%">
      <stop offset="0%" stop-color="#ff8501"/>
      <stop offset="100%" stop-color="#ffcb01"/>
    </linearGradient>
    <linearGradient id="downline_svg__telinkrin" x1="0%" x2="0%" y1="0%" y2="100%">
      <stop offset="0%" stop-color="#b2ced6"/>
      <stop offset="100%" stop-color="#6da5b7"/>
    </linearGradient>
    <linearGradient id="downline_svg__60spsycho" x1="0%" x2="0%" y1="0%" y2="100%">
      <stop offset="0%" stop-color="#df5940"/>
      <stop offset="25%" stop-color="#d8d15f"/>
      <stop offset="50%" stop-color="#e9882a"/>
      <stop offset="100%" stop-color="#279362"/>
    </linearGradient>
    <linearGradient id="downline_svg__90ssummer" x1="0%" x2="0%" y1="0%" y2="100%">
      <stop offset="0%" stop-color="#f618c7"/>
      <stop offset="20%" stop-color="#94ffab"/>
      <stop offset="50%" stop-color="#fbfd54"/>
      <stop offset="100%" stop-color="#0f83ae"/>
    </linearGradient>
    <style id="current-color-scheme" type="text/css">
      .downline_svg__ColorScheme-Highlight{color:#5294e2}
    </style>
  </defs>
  <path fill="currentColor" fill-rule="evenodd" d="M10.466 1.841c.277 0 .554.003.831.009.24.005.481.015.722.028.204.012.409.029.613.051.169.019.336.043.503.074.132.025.263.055.392.093.096.028.191.063.282.104.066.03.129.065.189.105a.893.893 0 0 1 .23.23c.04.06.075.122.104.188.042.091.076.186.105.282.037.129.069.259.093.391.031.166.056.333.074.501.022.204.039.408.051.613.014.24.023.481.029.722.006.276.008.552.008.829v3.878c0 .277-.002.553-.008.829-.006.241-.015.482-.029.722-.012.204-.029.408-.051.612a6.553 6.553 0 0 1-.074.503 4.09 4.09 0 0 1-.093.39 2.17 2.17 0 0 1-.105.282 1.28 1.28 0 0 1-.104.188.829.829 0 0 1-.23.23 1.34 1.34 0 0 1-.189.105 2.32 2.32 0 0 1-.282.104c-.129.038-.26.069-.392.093a6.553 6.553 0 0 1-.503.074c-.204.022-.409.039-.613.05-.241.014-.482.024-.722.029-.277.006-.554.009-.831.009H5.534c-.277 0-.554-.003-.83-.009a19.27 19.27 0 0 1-.722-.029c-.206-.011-.41-.028-.614-.05a6.482 6.482 0 0 1-.503-.074 3.782 3.782 0 0 1-.392-.093 2.32 2.32 0 0 1-.282-.104 1.328 1.328 0 0 1-.188-.105.847.847 0 0 1-.231-.23 1.286 1.286 0 0 1-.105-.188 2.32 2.32 0 0 1-.104-.282 3.808 3.808 0 0 1-.093-.39 7.086 7.086 0 0 1-.074-.503c-.023-.204-.04-.408-.051-.612-.013-.24-.023-.481-.028-.722a38.119 38.119 0 0 1-.009-.829V6.061c0-.277.003-.553.009-.829.005-.241.015-.482.028-.722.011-.205.028-.409.051-.613a7.03 7.03 0 0 1 .074-.501c.024-.132.055-.262.093-.391a2.32 2.32 0 0 1 .104-.282c.029-.066.065-.128.105-.188a.783.783 0 0 1 .231-.23c.059-.04.123-.075.188-.105.091-.041.186-.076.282-.104.129-.038.26-.068.392-.093.166-.031.334-.055.503-.074.204-.022.408-.039.614-.051.24-.013.481-.023.722-.028.276-.006.553-.009.83-.009h4.932ZM10.465.533C15.308.533 16 1.224 16 6.062v3.875c0 4.839-.692 5.53-5.535 5.53h-4.93C.692 15.467 0 14.776 0 9.937V6.062C0 1.224.692.533 5.535.533h4.93ZM5.747 3.381 3.489 5.753v7.111h6.717l2.37-2.257H7.148l5.37-5.371-1.597-1.597-5.174 5.176V3.381Z" color="#ececec"/>
</svg>
