<svg xmlns="http://www.w3.org/2000/svg" width="192" height="192"><path style="fill:#f4f4f7;fill-opacity:1;fill-rule:evenodd;stroke:#f4f4f7;stroke-opacity:1" d="M96 8A88 88 0 0 0 8 96a88 88 0 0 0 88 88 88 88 0 0 0 88-88A88 88 0 0 0 96 8z"/><path style="fill:#f9de81;fill-opacity:1;fill-rule:evenodd;stroke:#f9de81;stroke-opacity:1" d="M96 8A88 88 0 0 0 8 96a88 88 0 0 0 .3 6.006C29.159 90.836 51.14 84.96 75.397 89.78c28.954 5.754 61.147 26.747 94.63 53.8A88 88 0 0 0 184 96 88 88 0 0 0 96 8z"/><path style="fill:#f8c18c;fill-opacity:1;fill-rule:evenodd;stroke:#c39a54;stroke-width:.99662566;stroke-opacity:0" d="M123.828 80.12a27.502 27.692 0 0 0-25.373 17.02c15.092 6.441 30.852 16.03 47.047 27.66a27.502 27.692 0 0 0 5.826-16.99 27.502 27.692 0 0 0-27.5-27.69z"/></svg>