<svg xmlns="http://www.w3.org/2000/svg" xmlns:xlink="http://www.w3.org/1999/xlink" width="192" height="192"><defs><path id="a" d="M0 71.716v78.286C0 155.52 4.478 160 10.003 160H76V.003c-1.906.055-4.253 0-12.797 7.645 0 0-52.73 45.946-57.966 50.462C0 62.626 0 67.239 0 71.716zm152-.003v78.286c0 5.518-4.478 9.998-10.003 9.998H76V0c1.906.055 4.253 0 12.797 7.645 0 0 52.73 45.946 57.966 50.462C152 62.623 152 67.237 152 71.713z"/><path id="c" d="M131.297-.002c-13.568 9.76-46.061 31.74-52.329 35.517C68.916 41.76 67.906 41.012 66 41.067v.003l-.141-.003c-1.821-.019-3.026.54-12.827-5.549C46.763 31.74 14.264 9.756.699-.002z"/></defs><g fill="none" fill-rule="evenodd"><path fill="#ff3d81" d="M20 83.716v78.286C20 167.52 24.478 172 30.003 172H96V12.003c-1.906.055-4.253 0-12.797 7.645 0 0-52.73 45.946-57.966 50.462C20 74.626 20 79.239 20 83.716zm152-.003v78.286c0 5.518-4.478 9.998-10.003 9.998H96V12c1.906.055 4.253 0 12.797 7.645 0 0 52.73 45.946 57.966 50.462C172 74.623 172 79.237 172 83.713z"/><g transform="translate(20 12)"><mask id="b" fill="#fff"><use xlink:href="#a"/></mask><use fill="#ff3d81" xlink:href="#a"/><path fill="#555e70" d="M76 123.07c-1.906-.055-2.916.693-12.968-5.552-7.5-4.521-52.558-35.109-57.795-39.625C.209 73.557.008 69.133 0 64.825v-78.824c0-5.518 4.478-9.998 10.003-9.998H76V-24h65.997C147.522-24 152-19.52 152-14.002v78.286c0 4.477 0 9.09-5.237 13.606s-50.294 35.104-57.795 39.625c-10.052 6.245-11.062 5.497-12.968 5.552v.003z" mask="url(#b)"/></g><g transform="translate(30 94)"><mask id="d" fill="#fff"><use xlink:href="#c"/></mask><use fill="#555e70" xlink:href="#c"/><path fill="#f4f4f7" mask="url(#d)" d="M3 0h126v65H3z"/></g><path fill="#f4f4f7" d="M33 33h126v62.64H33z"/><path fill="#f4f4f7" d="M96.455 84.39v9.27h14.85c-2.52 5.67-8.1 9.45-14.76 9.45-9.09 0-16.11-7.02-16.11-16.11s7.02-16.11 16.11-16.11c6.39 0 11.61 3.42 14.31 8.55l10.26-5.31c-4.68-8.82-13.95-14.85-24.57-14.85-15.39 0-27.72 12.42-27.72 27.72 0 15.3 12.33 27.72 27.72 27.72 15.3 0 27.72-12.42 27.72-27.72v-2.61h-27.81z"/></g></svg>