<svg xmlns="http://www.w3.org/2000/svg" width="512" height="512">
    <text x="729.64" y="231.36" font-family="Gentium Book Basic" word-spacing="0" letter-spacing="0" font-size="129.23">
    
  </text>
    <text x="1310.91" y="151.36" font-family="Gentium Book Basic" word-spacing="0" letter-spacing="0" font-size="129.23">
    
  </text>
    <text x="239.33" y="-29.901" font-family="Gentium Book Basic" word-spacing="0" letter-spacing="0" font-size="129.23">
    
  </text>
    <text x="1337.38" y="-246.37" font-family="Gentium Book Basic" word-spacing="0" letter-spacing="0" font-size="129.23">
    
  </text>
    <text x="1918.65" y="-326.38" font-family="Gentium Book Basic" word-spacing="0" letter-spacing="0" font-size="129.23">
    
  </text>
    <text x="1529.53" y="-798.78" font-family="Gentium Book Basic" word-spacing="0" letter-spacing="0" font-size="129.23">
    
  </text>
    <text x="2110.79" y="-878.78" font-family="Gentium Book Basic" word-spacing="0" letter-spacing="0" font-size="129.23">
    
  </text>
    <text x="277.99" y="535.94" font-family="Gentium Book Basic" word-spacing="0" letter-spacing="0" font-size="208.33">
    
  </text>
    <path d="m242.54 165.25-28.759 69.843a6.861 6.861 0 0 1-5.74 4.221L60.94 252.24a6.854 6.854 0 0 0-6.254 7.008l2.991 115.464a6.856 6.856 0 0 0 5.444 6.532l173.172 36.424a61.671 61.671 0 0 0 12.84 1.32l.004-34.245V166.55c0-9.528-2.97-10.12-6.599-1.305M222.4 380.577l-65.009-10.47v-34.076h65.01v44.545M193.973 222.7 20.612 240.226c-5.297.535-9.156-4.907-6.9-9.728l46.158-98.666a6.854 6.854 0 0 1 4.971-3.839l190.491-34.985-55.78 125.672a6.853 6.853 0 0 1-5.578 4.039m257.08 29.526-147.1-12.926a6.849 6.849 0 0 1-5.74-4.221l-28.761-69.844c-3.63-8.814-6.599-8.226-6.599 1.305v218.192l.003 34.245a61.7 61.7 0 0 0 12.84-1.32l173.173-36.424a6.86 6.86 0 0 0 5.443-6.532l2.992-115.464a6.857 6.857 0 0 0-6.255-7.007m-60.537 61.675-8.125.226-.164 51.135c-.008 2.251-2.295 4.405-5.14 4.814l-13.317 1.916c-3.042.437-5.53-1.122-5.526-3.486l.125-53.71-9.293.257c-4.52.125-7.378-3.499-5.077-6.496l22.1-28.8c2.094-2.73 7.233-2.478 9.25.397l19.4 27.65c1.838 2.622-.486 5.996-4.236 6.1m100.865-73.685-173.362-17.525a6.853 6.853 0 0 1-5.578-4.039l-55.78-125.672 190.49 34.986a6.85 6.85 0 0 1 4.972 3.838l46.157 98.667c2.256 4.82-1.604 10.263-6.901 9.727" style="fill:#f4f4f7;fill-opacity:1"/>
</svg>
