<svg xmlns="http://www.w3.org/2000/svg">
    <path d="M236.74 36.389c-29.92 0-54.175 16.792-54.175 37.506.871 7.728 5.756 17.486 8.335 20.837 12.502 16.67 12.502 27.087 9.376 33.338H99.22c-18.47 0-33.338 14.868-33.338 33.338v84.394c6.25 3.125 16.67 3.125 33.338-9.376 3.35-2.58 13.11-7.464 20.837-8.335 20.714 0 37.506 24.248 37.506 54.174 0 29.92-16.792 54.175-37.506 54.175-6.357-.108-16.023-5.793-20.837-8.335-16.67-12.501-27.087-12.501-33.338-9.376v109.397c0 18.47 14.869 33.338 33.338 33.338h134.4c3.126-6.25 3.126-16.67-9.376-33.338-2.579-3.35-7.464-13.109-8.335-20.836 0-20.715 24.248-37.507 54.175-37.507 29.92 0 54.175 16.792 54.175 37.506-.108 6.357-5.793 16.023-8.335 20.837-12.502 16.67-12.502 27.087-9.376 33.338h59.384c18.47 0 33.338-14.868 33.338-33.338v-92.722c6.25-3.126 16.67-3.126 33.338 9.376 4.814 2.54 14.478 8.227 20.837 8.335 20.714 0 37.506-24.248 37.506-54.175 0-29.92-16.792-54.175-37.506-54.175-7.728.871-17.487 5.756-20.837 8.335-16.67 12.502-27.087 12.502-33.338 9.377V161.419c0-18.47-14.869-33.338-33.338-33.338h-92.723c-3.125-6.25-3.125-16.67 9.377-33.338 2.54-4.814 8.227-14.478 8.335-20.837 0-20.714-24.248-37.506-54.175-37.506" fill="#f4f4f7"/>
</svg>
