<svg xmlns="http://www.w3.org/2000/svg" width="48" height="48">
    <path d="M12.231 3.775c-.776.016-1.447.418-1.857.913a2.699 2.699 0 0 0-.64 1.706l-.03.974H6.233C3.896 7.368 2 9.295 2 11.631v29.262c0 2.313 1.865 4.227 4.172 4.263h18.787c2.336 0 4.263-1.927 4.263-4.263V11.631c0-2.336-1.927-4.263-4.263-4.263H21.64V6.242c-.038-1.302-1.067-2.417-2.436-2.406l-6.973-.061zm.03 1.949 6.943.06c.229-.001.479.235.487.518v3.015h5.268a2.299 2.299 0 0 1 2.314 2.314v29.262a2.299 2.299 0 0 1-2.314 2.314H6.203c-1.271-.02-2.254-1.036-2.254-2.314V11.631c0-1.29.993-2.314 2.284-2.314h5.42v-.944l.03-1.98c0-.108.074-.325.183-.456.108-.132.21-.21.396-.213zm19.64 0c-.883 0-1.583.744-1.583 1.674v35.9c0 .93.7 1.706 1.584 1.706h12.515c.883 0 1.583-.775 1.583-1.705v-35.9c0-.93-.7-1.675-1.583-1.675H31.902zM13.663 7.398v3.837h-6.85c-.498 0-.914.306-.914 1.005v2.923h19.487V12.18c0-.643-.434-.944-.913-.944H17.59l-.03-3.837h-3.898zm-7.764 9.714v6.82h19.487v-6.82H5.898zm0 8.77v6.82h19.487v-6.82H5.898zm19.548 8.739-19.518.06v4.812c0 1.427.653 2.01 2.04 2.01h15.469c1.297 0 2.01-.668 2.01-1.95v-4.932z" fill="#f4f4f7"/>
</svg>
