<svg xmlns="http://www.w3.org/2000/svg" width="48" height="48">
    <path d="M36.49 5.063c-3.37 0-6.455 1.356-8.68 3.58a.465.465 0 0 0-.172.459.46.46 0 0 0 .344.343c.17.044.345-.01.458-.143a11.384 11.384 0 0 1 8.05-3.323c3.122 0 5.961 1.265 8.02 3.323a.449.449 0 0 0 .459.143.459.459 0 0 0 .344-.343.465.465 0 0 0-.172-.459 12.188 12.188 0 0 0-8.651-3.58zm-24.865.515c-.73.015-1.36.393-1.747.86a2.426 2.426 0 0 0-.573 1.575l-.029.945H6.01c-2.2 0-4.01 1.812-4.01 4.01v27.53c0 2.177 1.752 3.976 3.924 4.01h17.732c2.2 0 4.01-1.812 4.01-4.01V39.38a5.205 5.205 0 0 0 5.214 5.214h7.906A5.205 5.205 0 0 0 46 39.38V27.52H27.667v-1.26h8.45v-9.166H32.88a5.205 5.205 0 0 0-5.213 5.213V12.97c0-2.2-1.81-4.01-4.01-4.01h-3.123V7.897c-.036-1.225-1.032-2.301-2.32-2.291l-6.56-.029h-.029zm.057 1.833 6.532.03h.028c.219-.003.45.25.459.515v2.836h4.956a2.16 2.16 0 0 1 2.176 2.177v27.528a2.16 2.16 0 0 1-2.177 2.177H5.953c-1.2-.018-2.12-.976-2.12-2.177V12.97a2.16 2.16 0 0 1 2.177-2.177h5.071l.028-.888.029-1.862c0-.102.07-.306.172-.43.103-.124.195-.197.372-.2zM36.49 8.786a8.538 8.538 0 0 0-6.045 2.493.466.466 0 0 0 .66.659 7.6 7.6 0 0 1 5.385-2.235c2.095 0 3.974.852 5.356 2.235a.466.466 0 1 0 .66-.66 8.47 8.47 0 0 0-6.016-2.492zm0 3.724a4.845 4.845 0 0 0-3.41 1.433.449.449 0 0 0-.143.458c.044.17.173.308.344.344a.465.465 0 0 0 .459-.172 3.876 3.876 0 0 1 2.75-1.146c1.07 0 2.012.437 2.72 1.146a.465.465 0 0 0 .46.172.459.459 0 0 0 .343-.344.449.449 0 0 0-.143-.458c-.87-.87-2.058-1.433-3.38-1.433zm.888 4.584v9.166H46v-3.953a5.205 5.205 0 0 0-5.214-5.213h-3.408zM5.667 18.125v6.417H24v-6.417H5.667zm0 8.25v6.417H24v-6.417H5.667zm18.39 8.193-18.362.057v4.526c0 1.343.615 1.89 1.92 1.89l14.552.03c1.22 0 1.89-.657 1.89-1.863v-4.64z" fill="#f4f4f7"/>
</svg>
