<svg xmlns="http://www.w3.org/2000/svg" width="48" height="48">
    <path d="M24 4.21c-12.729 0-22 8.443-22 18.858 0 10.414 9.271 18.857 22 18.857 2.417 0 16.92 4.591 19.11 4.027 1.69-.436-8.88-5.922-7.382-6.648C42.504 36.021 46 29.978 46 23.068 46 12.653 36.729 4.21 24 4.21zm-.033 3.144c8.673 0 15.747 6.983 15.747 15.681 0 8.699-7.074 15.747-15.747 15.747S8.286 31.734 8.286 23.035A15.65 15.65 0 0 1 23.967 7.354zm.295.982-1.833.196-1.703.524-.262-.426-.818.131-.328.328-.687.13-.557.23-.196.13-.033.033h-.294l-.23.524-.327-.622-.13.295.065.687-.524.459-.328.785h.688l.164-.36.49.36h.524v-.49l-.622-.295-.392.262.163-.197c.27-.19.512-.405.786-.59l.59.263c.416.283.892.502 1.309.786l.622-.524-.753-.262-.262-.655-.884-.13.295-.23.622-.164c.175-.085.346-.096.523-.163l-.294.261 1.44 1.015v.524l-.523.59.752 1.505.426-.294.688-.982c.908-.282 1.696-.623 2.553-1.015.042-.02.089-.013.131-.033L25.9 8.99l-1.637-.654zm.72 2.619-.098.36.458.294.786-.458-.393-.425-.524.229h-.229zm6.155-.098-1.08.294-.688.393v.426l-1.146.687.295 1.048.556-.459.426.459.426.294.294-.753-.163-.458.163-.36.688-.59h.294l-.294.655v.59c.263-.072.516-.098.785-.131l-.785.524v.36l-.851.687-.852-.229v-.458l-.393.229.099.458h-.622l-.328.59-.458.458-.753.163.458.492.131.458h-.589l-.72.36v1.146h.327l.328.425.687-.425.295-.688.523-.294.099-.295.916-.164.459.459.458.294-.295.59.524-.131.164-.59-.59-.622h.295l.557.459.13.654.525.557.098-.851.294-.131c.284.295.482.65.72.982l.852.066.524.294-.23.36-.523.459h-.72l-.983-.36-.556.13-.328.393-1.08-1.08-.688-.197-1.145.131-.982.295a52.455 52.455 0 0 0-1.572 1.866l-.687 1.44.294.36-.458.82.556 1.341 1.44 1.637.721-.589.295.36.786-.49.294.228h.72l.459.59-.23.818.524.655-.065 1.113.458.753-.294.687c-.029.48-.099.929-.099 1.408.235.65.466 1.278.688 1.932l.229 1.047v.524h.393l.622-.426h.687l1.146-1.21-.13-.46.752-.654-.524-.59.622-.523.688-.458.23-.295-.165-.687V28.24l.492-1.047.687-.786.688-1.67v-.458c-.336.043-.687.074-1.015.098l.687-.687.95-.655.523-.59v-.621c-.114-.217-.244-.503-.36-.72l-.458.589-.327-.393-.524-.426v-.818l.589.655.688-.066c.3.274.587.507.85.819l.426-.459c0-.517-.61-3.108-1.866-5.27-1.256-2.163-3.47-4.126-3.47-4.126l-.164.295-.556.655-.753-.786h.753l.327-.393-1.375-.229-.72-.294zm-16.042.36-.262.687s-.47.069-.589.098c-1.528 1.413-4.619 4.458-5.336 10.215.028.133.524.884.524.884l1.178.753 1.211.294.459.655.785.556.459-.032.327.098v.164l-.458 1.178-.328.459.099.229-.262 1.015 1.015 1.8 1.015.917.392.59-.032 1.341.327.753-.327 1.474s-.043-.048 0 .098c.043.145 1.82 1.163 1.931 1.08.11-.084.197-.196.197-.196l-.099-.295.459-.458.098-.393.753-.295.556-1.342-.163-.426.393-.589.85-.164.46-.982-.099-1.276.622-.95.098-.982c-.914-.454-1.81-.874-2.717-1.342l-.458-.95-.786-.163-.458-1.179-1.146.131-.95-.688-.982.852v.196c-.303-.088-.68-.128-.95-.295l-.196-.654v-.688l-.72.066c.056-.443.173-.9.23-1.343h-.394l-.425.557-.393.13-.557-.294-.065-.687.13-.753.852-.655h.622l.164-.36.786.196.622.753.13-1.244 1.08-.916.328-.95.819-.294.458-.622 1.015-.23.491-.72h-1.506l.95-.458h.621l.983-.295.098-.393-.328-.294-.392-.164.098-.36-.295-.59-.622.23.131-.459-.818-.458-.622 1.048.065.393-.622.229-.393.818-.13-.687-1.081-.459-.164-.589 1.375-.818.622-.59.066-.687-.36-.197-.459-.032zm11.426 1.276v.393l.294.295v.655l-.163.85.72-.163.458-.458-.458-.458c-.147-.393-.274-.737-.458-1.114h-.393zm-.72.983-.393.13.098.753.556-.229-.261-.654zm7.955 6.875.687.753.72 1.702.459.458-.164.59.393.523c-.201.014-.415.066-.622.066-.365-.77-.638-1.52-.917-2.325l-.458-.589-.262-.982.164-.196z" fill="#f4f4f7"/>
</svg>
