<svg xmlns="http://www.w3.org/2000/svg">
    <path d="M262.396 144.476 128.292 278.581l-16.484 16.483-4.194 4.195-33.456 104.865a13.65 15.208 45 0 0 4.391 15.104 13.65 15.208 45 0 0 12.249 1.654l106.34-33.563 3.466-3.465 16.016-16.017 134.584-134.583-88.795-88.794m-88.617 178.535a3.81 3.81 0 0 1 1.3 3.033l-1.477 31.764 5.81 5.81a3.81 3.81 0 0 1-1.714 6.36l-50.158 13.41a3.81 3.81 0 0 1-3.682-.966l-9.728-9.728a3.81 3.81 0 0 1-.985-3.741L127.79 317.4a3.81 3.81 0 0 1 6.36-1.674l7.818 7.818 29.125-1.477a3.81 3.81 0 0 1 2.698.926M342.904 72.23c-5.072-.112-9.405 1.238-12.478 4.21l-.157.158-20.784 20.823 88.804 88.803 20.508-20.547.316-.276c.046-.046.071-.11.118-.157 9.652-9.942 2.276-33.032-16.651-51.96L382.426 93.13c-13.075-13.075-28.175-20.652-39.52-20.9m-44.938 36.688 88.804 88.805-21.992 21.992-88.805-88.805z" fill="#f4f4f7" fill-rule="evenodd"/>
</svg>
