<svg xmlns="http://www.w3.org/2000/svg">
    <path d="M340.08 69.796c-13.649-.087-29.02 1.085-46.921 2.547v-.075c-36.762 5.124-76.271 24.455-108.41 81.636-73.481 130.67-68.269 176.14-79.98 190.84-11.755 14.635-43.436 22.582-38.855 39.218C73.701 399.57 76.402 401.3 76.402 401.3s44.988 69.477 179.16 50.71c134.16-18.766 152.77-49.343 151.54-64.523-1.216-15.197-29.533-26.284-29.533-26.284S356.618 281.392 362 248.633c5.381-32.778 25.814-80.54 46.019-90.82 20.145-10.376 30.229 34.715 40.649 23.586 10.36-11.18-17.27-76.83-51.02-96.393-16.88-11.47-34.84-15.086-57.58-15.23zm-64.775 57.511 13.738 34.689 36.409 13.149-28.078 22.658-.602 36.772-29.796-19.283-39.858 12.972 11.166-35.643-20.776-32.87 37.788-2.032 20.011-30.411zm-12.182 148.37 9.284 36.157 34.464 17.765-30.675 18.831-5.232 36.371-27.062-22.884-41.2 7.766 15.518-33.9-16.448-35.305 37.738 2.86 23.611-27.663z" fill="#f4f4f7"/>
</svg>
