<svg xmlns="http://www.w3.org/2000/svg" width="16" height="16">
    <defs>
        <linearGradient id="arrongin" x1="0%" x2="0%" y1="0%" y2="100%">
            <stop offset="0%" style="stop-color:#dd9b44;stop-opacity:1"/>
            <stop offset="100%" style="stop-color:#ad6c16;stop-opacity:1"/>
        </linearGradient>
        <linearGradient id="aurora" x1="0%" x2="0%" y1="0%" y2="100%">
            <stop offset="0%" style="stop-color:#09d4df;stop-opacity:1"/>
            <stop offset="100%" style="stop-color:#9269f4;stop-opacity:1"/>
        </linearGradient>
        <linearGradient id="cyberneon" x1="0%" x2="0%" y1="0%" y2="100%">
            <stop offset="0" style="stop-color:#0abdc6;stop-opacity:1"/>
            <stop offset="1" style="stop-color:#ea00d9;stop-opacity:1"/>
        </linearGradient>
        <linearGradient id="fitdance" x1="0%" x2="0%" y1="0%" y2="100%">
            <stop offset="0%" style="stop-color:#1ad6ab;stop-opacity:1"/>
            <stop offset="100%" style="stop-color:#329db6;stop-opacity:1"/>
        </linearGradient>
        <linearGradient id="oomox" x1="0%" x2="0%" y1="0%" y2="100%">
            <stop offset="0%" style="stop-color:#efefe7;stop-opacity:1"/>
            <stop offset="100%" style="stop-color:#8f8f8b;stop-opacity:1"/>
        </linearGradient>
        <linearGradient id="rainblue" x1="0%" x2="0%" y1="0%" y2="100%">
            <stop offset="0%" style="stop-color:#00f260;stop-opacity:1"/>
            <stop offset="100%" style="stop-color:#0575e6;stop-opacity:1"/>
        </linearGradient>
        <linearGradient id="sunrise" x1="0%" x2="0%" y1="0%" y2="100%">
            <stop offset="0%" style="stop-color:#ff8501;stop-opacity:1"/>
            <stop offset="100%" style="stop-color:#ffcb01;stop-opacity:1"/>
        </linearGradient>
        <linearGradient id="telinkrin" x1="0%" x2="0%" y1="0%" y2="100%">
            <stop offset="0%" style="stop-color:#b2ced6;stop-opacity:1"/>
            <stop offset="100%" style="stop-color:#6da5b7;stop-opacity:1"/>
        </linearGradient>
        <linearGradient id="60spsycho" x1="0%" x2="0%" y1="0%" y2="100%">
            <stop offset="0%" style="stop-color:#df5940;stop-opacity:1"/>
            <stop offset="25%" style="stop-color:#d8d15f;stop-opacity:1"/>
            <stop offset="50%" style="stop-color:#e9882a;stop-opacity:1"/>
            <stop offset="100%" style="stop-color:#279362;stop-opacity:1"/>
        </linearGradient>
        <linearGradient id="90ssummer" x1="0%" x2="0%" y1="0%" y2="100%">
            <stop offset="0%" style="stop-color:#f618c7;stop-opacity:1"/>
            <stop offset="20%" style="stop-color:#94ffab;stop-opacity:1"/>
            <stop offset="50%" style="stop-color:#fbfd54;stop-opacity:1"/>
            <stop offset="100%" style="stop-color:#0f83ae;stop-opacity:1"/>
        </linearGradient>
        <style id="current-color-scheme" type="text/css">
            .ColorScheme-Highlight{color:#5294e2}
        </style>
    </defs>
    <path fill="currentColor" d="M6.957 0C4.762 0 2.979.75 2.979 1.674c0 .346.245.668.673.935-.028.033-.037.053-.064.086a2.525 2.525 0 0 0-.957-.174C1.24 2.521 0 3.703 0 5.326c0 1.436.966 2.53 2.152 2.762.213 1.588.909 2.965 1.891 3.89.037.06.077.146.11.217a2.98 2.98 0 0 1-.132-.869c-.003-1.81 1.725-3.098 3.653-2.957.485.036.945.165 1.369.348l1.783-6.153c-.172.03-.339.065-.5.131-.027-.033-.036-.053-.064-.086.428-.267.674-.589.674-.935C10.936.75 9.152 0 6.957 0zm5.162.533-2.644 9.22a3.452 3.452 0 0 0-1.844-.685c-1.61-.118-2.913.897-2.91 2.264.002 1.367 1.31 2.564 2.92 2.682 1.384.101 2.536-.632 2.832-1.71l.02-.052.009-.043 1.98-6.914c.491 1.525 1.627 2.69 3.518 2.67-1.216-.634-1.848-2.205-2.133-3.78-.284-1.574-.197-2.976-.197-2.976l-.01-.004.01-.031-1.55-.64zM2.631 4.217h.021a7.251 7.251 0 0 0-.521 2.13c-.433-.188-.695-.621-.695-1.02 0-.54.461-1.11 1.195-1.11zm1.586 8.152c.086.282.093.624-.108 1.022-.011.023-.013.044-.021.066-.702.27-1.131.636-1.131 1.043 0 .827 1.793 1.5 4 1.5s3.979-.673 3.979-1.5c0-.276-.2-.54-.545-.762-.688.676-1.712 1.059-2.803.979-1.538-.113-2.887-1.05-3.371-2.348z" style="color:#ececec"/>
</svg>
