<svg xmlns="http://www.w3.org/2000/svg" width="48" height="48">
    <path d="M14.388 2a3.268 3.268 0 0 0-3.266 3.266 3.258 3.258 0 0 0 3.266 3.255h.122l2.38 4.772h-3.983a1.59 1.59 0 0 0-1.59 1.59v21.092a1.58 1.58 0 0 0 1.59 1.578h2.028v7.577a.454.875 0 0 0 .68.753l7.48-8.33h10.6c.878 0 1.59-.7 1.59-1.578V14.883a1.59 1.59 0 0 0-1.59-1.59h-4.53l1.519-2.016a2.967 2.967 0 0 0 3.618-2.902 2.957 2.957 0 0 0-2.963-2.963 2.967 2.967 0 0 0-2.975 2.963c0 .706.245 1.36.656 1.87l-2.283 3.048h-7.662l-2.707-5.44a3.248 3.248 0 0 0 1.287-2.587A3.268 3.268 0 0 0 14.388 2zm3.862 16.599a.587.72 0 0 1 .06 0 .587.72 0 0 1 .34.097l8.694 6.156a.587.72 0 0 1 0 1.239l-8.694 6.156a.587.72 0 0 1-.886-.62V19.316a.587.72 0 0 1 .486-.716z" fill="#f4f4f7"/>
</svg>
