<svg xmlns="http://www.w3.org/2000/svg">
    <path d="M170.262 170.497h-57.158c-7.86 0-14.289 6.413-14.289 14.25v28.5c0 7.838 6.43 14.249 14.289 14.249h57.158c7.86 0 14.289-6.414 14.289-14.25v-28.5c0-7.838-6.43-14.25-14.289-14.25m-42.863-85.498h28.575v71.249h-28.568zm0 156.748h28.575v185.247h-28.568zm157.181 42.749h-57.16c-7.858 0-14.288 6.414-14.288 14.25v28.5c0 7.838 6.43 14.25 14.289 14.25h57.159c7.859 0 14.288-6.414 14.288-14.25v-28.5c0-7.839-6.43-14.25-14.288-14.25M241.716 84.998h28.575v185.247h-28.568zm0 270.746h28.575v71.249h-28.568zm157.158-156.748h-57.158c-7.857 0-14.289 6.414-14.289 14.25v28.5c0 7.838 6.43 14.25 14.289 14.25h57.158c7.86 0 14.289-6.414 14.289-14.25v-28.5c0-7.838-6.43-14.25-14.289-14.25M356.01 84.998h28.576v99.749h-28.568zm0 185.247h28.576v156.748h-28.568z" fill="#f4f4f7"/>
</svg>
