<svg xmlns="http://www.w3.org/2000/svg">
    <path d="M188.25 51.333c-27.615 0-49.998 22.383-49.998 49.999 0 27.615 22.383 49.998 49.998 49.998 27.616 0 49.999-22.383 49.999-49.998 0-27.616-22.383-49.999-49.999-49.999zm0 99.997h-49.998v199.992H38.256c0 55.231 44.765 99.996 99.996 99.996 55.232 0 99.997-44.765 99.997-99.996V151.33zm49.999 99.996c0 110.446 89.546 199.992 199.992 199.992v-99.996c-37.015 0-69.164-20.116-86.463-49.998h86.463v-99.996h-86.463c17.282-29.882 49.448-49.998 86.463-49.998V51.333c-110.446 0-199.992 89.547-199.992 199.993z" fill="#f4f4f7"/>
</svg>
