<svg xmlns="http://www.w3.org/2000/svg" width="16" height="16">
    <defs>
        <linearGradient id="arrongin" x1="0%" x2="0%" y1="0%" y2="100%">
            <stop offset="0%" style="stop-color:#dd9b44;stop-opacity:1"/>
            <stop offset="100%" style="stop-color:#ad6c16;stop-opacity:1"/>
        </linearGradient>
        <linearGradient id="aurora" x1="0%" x2="0%" y1="0%" y2="100%">
            <stop offset="0%" style="stop-color:#09d4df;stop-opacity:1"/>
            <stop offset="100%" style="stop-color:#9269f4;stop-opacity:1"/>
        </linearGradient>
        <linearGradient id="cyberneon" x1="0%" x2="0%" y1="0%" y2="100%">
            <stop offset="0" style="stop-color:#0abdc6;stop-opacity:1"/>
            <stop offset="1" style="stop-color:#ea00d9;stop-opacity:1"/>
        </linearGradient>
        <linearGradient id="fitdance" x1="0%" x2="0%" y1="0%" y2="100%">
            <stop offset="0%" style="stop-color:#1ad6ab;stop-opacity:1"/>
            <stop offset="100%" style="stop-color:#329db6;stop-opacity:1"/>
        </linearGradient>
        <linearGradient id="oomox" x1="0%" x2="0%" y1="0%" y2="100%">
            <stop offset="0%" style="stop-color:#efefe7;stop-opacity:1"/>
            <stop offset="100%" style="stop-color:#8f8f8b;stop-opacity:1"/>
        </linearGradient>
        <linearGradient id="rainblue" x1="0%" x2="0%" y1="0%" y2="100%">
            <stop offset="0%" style="stop-color:#00f260;stop-opacity:1"/>
            <stop offset="100%" style="stop-color:#0575e6;stop-opacity:1"/>
        </linearGradient>
        <linearGradient id="sunrise" x1="0%" x2="0%" y1="0%" y2="100%">
            <stop offset="0%" style="stop-color:#ff8501;stop-opacity:1"/>
            <stop offset="100%" style="stop-color:#ffcb01;stop-opacity:1"/>
        </linearGradient>
        <linearGradient id="telinkrin" x1="0%" x2="0%" y1="0%" y2="100%">
            <stop offset="0%" style="stop-color:#b2ced6;stop-opacity:1"/>
            <stop offset="100%" style="stop-color:#6da5b7;stop-opacity:1"/>
        </linearGradient>
        <linearGradient id="60spsycho" x1="0%" x2="0%" y1="0%" y2="100%">
            <stop offset="0%" style="stop-color:#df5940;stop-opacity:1"/>
            <stop offset="25%" style="stop-color:#d8d15f;stop-opacity:1"/>
            <stop offset="50%" style="stop-color:#e9882a;stop-opacity:1"/>
            <stop offset="100%" style="stop-color:#279362;stop-opacity:1"/>
        </linearGradient>
        <linearGradient id="90ssummer" x1="0%" x2="0%" y1="0%" y2="100%">
            <stop offset="0%" style="stop-color:#f618c7;stop-opacity:1"/>
            <stop offset="20%" style="stop-color:#94ffab;stop-opacity:1"/>
            <stop offset="50%" style="stop-color:#fbfd54;stop-opacity:1"/>
            <stop offset="100%" style="stop-color:#0f83ae;stop-opacity:1"/>
        </linearGradient>
        <style id="current-color-scheme" type="text/css">
            .ColorScheme-Highlight{color:#5294e2}
        </style>
    </defs>
    <path fill="currentColor" d="M12.382 1.25c-.286 0-.645.046-.798.103-.654.244-1.162 1.001-1.452 2.164C9.665 5.39 8.863 6.224 7.53 6.224c-.407 0-.411.082-.022.446.757.707 1.216 1.766 1.341 3.088.049.519.122.749.305.964.133.155.296.282.365.282.068 0 .202-.231.296-.512.127-.379.192-1.047.25-2.561.067-1.755.11-2.129.296-2.61.477-1.232 1.544-1.891 2.63-1.404.522.234.973.913 1.634 2.07.49.858 1.042 1.506 1.282 1.506.122 0 .125-.167.004-.24-.244-.149-.427-1.095-.458-2.377-.031-1.282-.042-1.351-.358-1.962a3.042 3.042 0 0 0-2.713-1.664ZM5.325 6.038a4.41 4.41 0 0 0-.337.021c-.636.059-.952.142-.952.251 0 .036.394.459.875.941.955.958 1.412 1.72 1.62 2.704.072.247.101.683.122 1.036a1.954 1.954 0 1 0 1.696.101 9.868 9.868 0 0 1-.06-.96c0-1.635-.854-3.14-2.187-3.856-.338-.181-.494-.241-.777-.238Zm-2.092.651-.539.365c-.792.538-1.563 1.411-1.978 2.239-.329.656-.369.825-.408 1.683-.027.597-.102 1.068-.199 1.257-.211.411-.107.797.24.882.146.036.49.293.765.569.92.924 2.67 1.302 4.233.916.405-.1.454-.188.215-.383-.086-.071-.269-.348-.407-.617a2.44 2.44 0 0 1 .433-2.81c.332-.336.352-.39.294-.804a3.56 3.56 0 0 0-.313-.935C5.286 8.5 4.094 7.213 3.573 6.895l-.34-.206Zm-.988 4.153a.71.71 0 1 1 0 1.42.71.71 0 0 1 0-1.42Zm5.151 1.066a.888.888 0 1 1 0 1.776.888.888 0 0 1 0-1.776Z" style="color:#ececec"/>
</svg>
