<svg xmlns="http://www.w3.org/2000/svg" width="16" height="16">
    <defs>
        <linearGradient id="arrongin" x1="0%" x2="0%" y1="0%" y2="100%">
            <stop offset="0%" style="stop-color:#dd9b44;stop-opacity:1"/>
            <stop offset="100%" style="stop-color:#ad6c16;stop-opacity:1"/>
        </linearGradient>
        <linearGradient id="aurora" x1="0%" x2="0%" y1="0%" y2="100%">
            <stop offset="0%" style="stop-color:#09d4df;stop-opacity:1"/>
            <stop offset="100%" style="stop-color:#9269f4;stop-opacity:1"/>
        </linearGradient>
        <linearGradient id="cyberneon" x1="0%" x2="0%" y1="0%" y2="100%">
            <stop offset="0" style="stop-color:#0abdc6;stop-opacity:1"/>
            <stop offset="1" style="stop-color:#ea00d9;stop-opacity:1"/>
        </linearGradient>
        <linearGradient id="fitdance" x1="0%" x2="0%" y1="0%" y2="100%">
            <stop offset="0%" style="stop-color:#1ad6ab;stop-opacity:1"/>
            <stop offset="100%" style="stop-color:#329db6;stop-opacity:1"/>
        </linearGradient>
        <linearGradient id="oomox" x1="0%" x2="0%" y1="0%" y2="100%">
            <stop offset="0%" style="stop-color:#efefe7;stop-opacity:1"/>
            <stop offset="100%" style="stop-color:#8f8f8b;stop-opacity:1"/>
        </linearGradient>
        <linearGradient id="rainblue" x1="0%" x2="0%" y1="0%" y2="100%">
            <stop offset="0%" style="stop-color:#00f260;stop-opacity:1"/>
            <stop offset="100%" style="stop-color:#0575e6;stop-opacity:1"/>
        </linearGradient>
        <linearGradient id="sunrise" x1="0%" x2="0%" y1="0%" y2="100%">
            <stop offset="0%" style="stop-color:#ff8501;stop-opacity:1"/>
            <stop offset="100%" style="stop-color:#ffcb01;stop-opacity:1"/>
        </linearGradient>
        <linearGradient id="telinkrin" x1="0%" x2="0%" y1="0%" y2="100%">
            <stop offset="0%" style="stop-color:#b2ced6;stop-opacity:1"/>
            <stop offset="100%" style="stop-color:#6da5b7;stop-opacity:1"/>
        </linearGradient>
        <linearGradient id="60spsycho" x1="0%" x2="0%" y1="0%" y2="100%">
            <stop offset="0%" style="stop-color:#df5940;stop-opacity:1"/>
            <stop offset="25%" style="stop-color:#d8d15f;stop-opacity:1"/>
            <stop offset="50%" style="stop-color:#e9882a;stop-opacity:1"/>
            <stop offset="100%" style="stop-color:#279362;stop-opacity:1"/>
        </linearGradient>
        <linearGradient id="90ssummer" x1="0%" x2="0%" y1="0%" y2="100%">
            <stop offset="0%" style="stop-color:#f618c7;stop-opacity:1"/>
            <stop offset="20%" style="stop-color:#94ffab;stop-opacity:1"/>
            <stop offset="50%" style="stop-color:#fbfd54;stop-opacity:1"/>
            <stop offset="100%" style="stop-color:#0f83ae;stop-opacity:1"/>
        </linearGradient>
        <style id="current-color-scheme" type="text/css">
            .ColorScheme-Highlight{color:#5294e2}
        </style>
    </defs>
    <path fill="currentColor" d="m.038 0 .623 8.709.448 6.275c.03.418.295.781.684.936 0 .002 0 0 .001 0a.997.997 0 0 0 .197.059c0 .001 0 0 0 0 .033.007.069.008.104.011.034.003.069.01.104.01h5.188a1.09 1.09 0 0 0 1.088-1.014l.467-6.537L9.547 0H.038ZM.82.727h7.945L8.531 4H1.053L.82.727Zm14.137 2.546c-1.731 0-3.249 1.125-3.863 2.767l-.229-1.372a.363.363 0 1 0-.716.119l.311 1.866a4.76 4.76 0 0 0-.674.2L9.2 15.034c0 .007-.003.013-.004.02a4.523 4.523 0 0 0 2.22.582 4.55 4.55 0 0 0 4.546-4.545 4.55 4.55 0 0 0-2.783-4.189c1.226-.565 2.155-1.735 2.413-3.186l.044-.399-.401-.032c-.091-.005-.184-.012-.278-.012Zm-2.632 8c.2 0 .364.163.364.363 0 .2-.164.364-.364.364a.364.364 0 0 1 0-.727Zm1.455 0c.2 0 .364.163.364.363 0 .2-.164.364-.364.364a.365.365 0 0 1-.364-.364c0-.2.164-.363.364-.363Zm-.727 1.091a.364.364 0 1 1-.001.727.364.364 0 0 1 .001-.727Z" style="color:#ececec"/>
</svg>
