<svg xmlns="http://www.w3.org/2000/svg" width="192" height="192"><path style="fill:#f4f4f7;fill-opacity:1" d="M158.679 74.011v94.781l-.08.08c-.321 1.285-1.204 2.168-2.408 2.569l-.481.24H36.29l-.481-.24c-1.284-.402-2.087-1.284-2.488-2.568l-.24-.482C33 119.997 33 71.604 33 23.211c.08-.161.24-.402.321-.563.482-1.284 1.364-2.086 2.729-2.407.08 0 .16-.08.24-.08h68.217c.16.08.401.16.562.16.722.24 1.284.722 1.846 1.284l50.079 50.08c.802.641 1.444 1.363 1.685 2.326zm-7.383 90.127V77.06c0-.481-.161-.802-.482-1.123l-47.752-47.752c-.4-.401-.882-.642-1.444-.642H41.025c-.16 0-.24.08-.4.08v136.514h110.67zM122.886 20.08h32.824c.08.08.24.08.32.16 1.044.322 1.846.964 2.408 1.927.16.24.241.562.321.802v33.306c-.08.24-.16.562-.32.803-1.044 2.086-3.853 2.728-5.699 1.204l-.722-.723c-10.273-10.272-20.465-20.545-30.738-30.737l-.562-.562c-1.845-2.087-.882-5.377 1.846-6.1.08 0 .241 0 .321-.08z"/><path style="fill:#9abeff;fill-opacity:1" d="M151.296 164.138H40.624V27.624c.16 0 .241-.08.401-.08h60.592c.643 0 1.044.16 1.445.642 15.89 15.89 31.862 31.861 47.832 47.752.321.32.482.642.482 1.123v86.435c-.08.16-.08.4-.08.642z"/><g transform="translate(.206)"><rect width="81" height="68.823" x="54.794" y="77.972" rx="6.429" style="fill:#f4f4f7;fill-rule:evenodd;stroke-width:.51782542"/><path d="M69.58 91.97c0-1.054-.867-1.908-1.929-1.908h-2.57a1.921 1.921 0 0 0-1.93 1.909v2.544c0 1.055.867 1.91 1.93 1.91h2.57a1.921 1.921 0 0 0 1.929-1.91zm3.857 0c0-1.054.868-1.908 1.927-1.908h51.432a1.92 1.92 0 0 1 1.927 1.909v2.544c0 1.055-.869 1.91-1.927 1.91H75.364a1.92 1.92 0 0 1-1.927-1.91zm-3.857 12.09c0-1.054-.867-1.909-1.929-1.909h-2.57a1.921 1.921 0 0 0-1.93 1.909v2.545c0 1.054.867 1.909 1.93 1.909h2.57a1.921 1.921 0 0 0 1.929-1.91zm3.857 0c0-1.054.868-1.909 1.927-1.909h51.432a1.92 1.92 0 0 1 1.927 1.909v2.545a1.922 1.922 0 0 1-1.927 1.909H75.364a1.92 1.92 0 0 1-1.927-1.91zm-3.857 12.726c0-1.055-.867-1.91-1.929-1.91h-2.57a1.921 1.921 0 0 0-1.93 1.91v2.544c0 1.055.867 1.91 1.93 1.91h2.57a1.921 1.921 0 0 0 1.929-1.91zm3.857 0c0-1.055.868-1.91 1.927-1.91h51.432a1.92 1.92 0 0 1 1.927 1.91v2.544a1.922 1.922 0 0 1-1.927 1.91H75.364a1.92 1.92 0 0 1-1.927-1.91zm-8.357 10.816a1.921 1.921 0 0 0-1.929 1.91v2.544c0 1.054.867 1.91 1.93 1.91h2.57a1.921 1.921 0 0 0 1.929-1.91v-2.545c0-1.054-.867-1.909-1.929-1.909zm8.357 1.91c0-1.055.868-1.91 1.927-1.91h51.432a1.92 1.92 0 0 1 1.927 1.91v2.544a1.922 1.922 0 0 1-1.927 1.91H75.364a1.92 1.92 0 0 1-1.927-1.91z" style="fill:#b1b5bd;fill-rule:evenodd;stroke-width:.63956112"/></g></svg>