<svg xmlns="http://www.w3.org/2000/svg" width="192" height="192"><path style="fill:#ff3d81;fill-opacity:1" d="M158.679 74.011v94.781l-.08.08c-.321 1.285-1.204 2.168-2.408 2.569l-.481.24H36.29l-.481-.24c-1.284-.402-2.087-1.284-2.488-2.568l-.24-.482C33 119.997 33 71.604 33 23.211c.08-.161.24-.402.321-.563.482-1.284 1.364-2.086 2.729-2.407.08 0 .16-.08.24-.08h68.217c.16.08.401.16.562.16.722.24 1.284.722 1.846 1.284l50.079 50.08c.802.641 1.444 1.363 1.685 2.326zm-7.383 90.127V77.06c0-.481-.161-.802-.482-1.123l-47.752-47.752c-.4-.401-.882-.642-1.444-.642H41.025c-.16 0-.24.08-.4.08v136.514h110.67zM122.886 20.08h32.824c.08.08.24.08.32.16 1.044.322 1.846.964 2.408 1.927.16.24.241.562.321.802v33.306c-.08.24-.16.562-.32.803-1.044 2.086-3.853 2.728-5.699 1.204l-.722-.723c-10.273-10.272-20.465-20.545-30.738-30.737l-.562-.562c-1.845-2.087-.882-5.377 1.846-6.1.08 0 .241 0 .321-.08z"/><path style="fill:#bd9aff;fill-opacity:1" d="M151.296 164.138H40.624V27.624c.16 0 .241-.08.401-.08h60.592c.643 0 1.044.16 1.445.642 15.89 15.89 31.862 31.861 47.832 47.752.321.32.482.642.482 1.123v86.435c-.08.16-.08.4-.08.642z"/><path style="fill:#f4f4f7;fill-opacity:1;stroke:#f4f4f7;stroke-width:4.93513536;stroke-miterlimit:4;stroke-dasharray:none;stroke-opacity:1" d="M95 62.67c-9.52 0-18.494 1.223-25.27 3.441-7.262 2.378-11.262 5.7-11.262 9.355v63.475c0 3.655 4 6.977 11.262 9.354 6.776 2.219 15.75 3.44 25.27 3.44s18.496-1.221 25.272-3.44c7.262-2.377 11.26-5.699 11.26-9.354V75.462c-.003-3.654-4-6.974-11.26-9.35-6.776-2.22-15.752-3.441-25.272-3.441zm0 2.738c9.125 0 17.68 1.155 24.087 3.253 5.837 1.91 9.184 4.391 9.184 6.805 0 2.413-3.347 4.894-9.184 6.805-4.005 1.311-8.848 2.253-14.145 2.775-3.179.314-6.52.477-9.942.477-9.125 0-17.68-1.155-24.087-3.252-5.837-1.911-9.184-4.392-9.184-6.805 0-2.414 3.347-4.894 9.184-6.805 6.408-2.098 14.962-3.253 24.087-3.253zM61.73 80.907l.008.005c2.283 1.775 5.115 2.969 7.992 3.91 6.776 2.219 15.752 3.439 25.272 3.439 3.273 0 6.48-.144 9.556-.424 5.874-.534 11.267-1.559 15.714-3.015 2.824-.924 5.647-2.121 7.905-3.845.028-.021.059-.041.087-.063l.008-.007.002 15.716c0 .467-.131.933-.349 1.36-.553 1.093-1.577 1.945-2.676 2.664-8.268 5.412-20.158 6.036-30.247 6.036-1.41 0-2.82-.03-4.23-.086-7.516-.3-14.45-1.398-19.857-3.169-5.837-1.91-9.184-4.391-9.184-6.805zm66.543 21.157v15.72c0 .297-.052.592-.146.879l-.01.026c-.453 1.335-1.71 2.373-2.987 3.192-1.518.973-3.552 1.892-6.041 2.707-4.557 1.492-10.2 2.506-16.362 2.967l-.505.037c-2.345.163-4.761.248-7.22.248-9.125 0-17.68-1.154-24.087-3.252-5.837-1.91-9.185-4.392-9.185-6.805v-15.717a.053.053 0 0 1 .008.006l.098.073c2.26 1.722 5.068 2.91 7.893 3.835 6.776 2.219 15.75 3.44 25.27 3.44a109.737 109.737 0 0 0 7.869-.284l.105-.01c4.079-.305 7.952-.844 11.47-1.596 4.251-.91 8.57-2.177 12.167-4.335a17.189 17.189 0 0 0 1.655-1.125l.008-.006zM61.73 123.222a.053.053 0 0 1 .007.006l.11.084c2.268 1.726 5.05 2.899 7.884 3.826 6.776 2.218 15.752 3.44 25.272 3.44 1.23 0 2.451-.022 3.66-.062 8.143-.272 15.71-1.447 21.61-3.378 2.177-.713 4.295-1.58 6.211-2.71a17.077 17.077 0 0 0 1.671-1.116l.112-.084a.055.055 0 0 0 .008-.006v15.719h-.002c0 2.413-3.348 4.892-9.185 6.803-6.408 2.098-14.962 3.254-24.087 3.254s-17.679-1.156-24.087-3.254c-5.837-1.911-9.184-4.39-9.184-6.803z"/></svg>