<svg xmlns="http://www.w3.org/2000/svg">
    <g fill="#f4f4f7">
        <path d="M205.305 141.675c-7.064 0-12.751 5.557-12.751 12.459v29.496a113.445 113.445 0 0 0-30.123 12.206l-21.339-20.85c-4.996-4.882-13.035-4.882-18.021 0l-20.948 20.469c-4.996 4.882-4.996 12.737 0 17.609l21.339 20.85a108.091 108.091 0 0 0-12.492 29.433H80.782c-7.064 0-12.75 5.557-12.75 12.459v28.988c0 6.902 5.686 12.46 12.75 12.46h30.188a108.053 108.053 0 0 0 12.492 29.432l-21.34 20.85c-4.995 4.882-4.995 12.738 0 17.61l20.949 20.468c4.996 4.882 13.036 4.882 18.021 0l21.34-20.85a113.484 113.484 0 0 0 30.122 12.206v29.496c0 6.902 5.687 12.46 12.75 12.46h29.668c7.064 0 12.751-5.558 12.751-12.46V396.97a113.444 113.444 0 0 0 30.123-12.206l21.339 20.85c4.996 4.882 13.036 4.882 18.021 0l20.948-20.469c4.997-4.882 4.997-12.737 0-17.609l-21.338-20.85a108.09 108.09 0 0 0 12.492-29.433h30.187c7.064 0 12.751-5.557 12.751-12.459v-28.988c0-6.902-5.687-12.46-12.75-12.46h-30.188a108.051 108.051 0 0 0-12.492-29.432l21.338-20.85c4.997-4.882 4.997-12.738 0-17.61l-20.948-20.468c-4.996-4.882-13.036-4.882-18.021 0l-21.339 20.85a113.486 113.486 0 0 0-30.123-12.206v-29.496c0-6.902-5.687-12.46-12.75-12.46zm14.834 97.83c28.722 0 51.992 22.726 51.992 50.801 0 28.065-23.26 50.802-51.992 50.802-28.722 0-51.993-22.727-51.993-50.802 0-28.064 23.26-50.802 51.993-50.802z"/>
        <path d="M228.558 322.685c4.007-1.874 36.18-31.844 71.492-66.596 63.478-62.476 64.347-63.213 76.504-64.846 29.62-3.977 50.004-22.172 55.863-49.866 1.858-8.78-.522-25.593-3.62-25.593-1.109 0-10.266 7.801-20.352 17.335-10.084 9.534-19.772 17.336-21.53 17.336-7.957 0-28.425-20.511-28.425-28.484 0-2.306 8.278-13.26 18.395-24.364 17.316-19.007 18.068-20.288 12.75-21.81-20.306-5.829-45.5 2.141-60.004 18.983-10.557 12.26-14.858 23.013-14.858 37.18v11.38L248.9 209.43l-65.873 66.09-1.225 13.006c-1.02 10.84-.277 14.416 4.458 21.461 9.88 14.705 27.001 19.849 42.298 12.7zm-21.552-13.616c-14.249-5.525-14.269-25.296-.031-31.35 7.227-3.08 9.184-3.062 15.258.143 15.193 8.012 9.871 31.771-7.483 33.41-.915.087-4.4-.904-7.744-2.2z"/>
        <path d="m446.557 295.307 5.175-5.617-14.441-22.202c-11.97-18.402-16.107-22.83-24.165-25.917-5.349-2.044-18.32-11.715-28.83-21.49l-19.107-17.777-6.448 6.576-6.448 6.575 18.668 19.148c10.294 10.559 19.828 22.77 21.251 27.22 2.488 7.772 14.925 18.155 40.458 33.765l8.722 5.335 5.174-5.616zM276.67 156.52c2.108-2.591-4.785-10.879-31.856-38.289-27.67-28.02-33.942-35.6-31.501-38.083 2.436-2.484 6.783.58 21.831 15.392 55.733 54.862 50.83 50.887 56.465 45.707 5.042-4.653 5.011-4.697-29.058-39.5-18.758-19.161-34.106-35.743-34.106-36.848 0-5.365 9.672 2.192 39.898 31.168 18.112 17.368 34.46 31.577 36.33 31.577 1.87 0 4.042-1.712 4.83-3.806.985-2.618-8.864-14.013-31.569-36.528-18.153-17.998-35.348-34.077-38.218-35.732-11.11-6.423-28.75-1.733-36.629 9.737-2.084 3.034-3.79 10.477-3.79 16.538 0 10.86.502 11.53 34.5 46.504 18.974 19.515 35.78 35.483 37.347 35.483 1.565 0 4.059-1.489 5.539-3.308z"/>
    </g>
</svg>
