<svg xmlns="http://www.w3.org/2000/svg">
    <path d="M173.924 190.239a15.972 15.972 0 0 0-.69 12.194 16 16 0 0 0 8.16 9.104l14.173 6.792c7.904 3.793 17.403.486 21.234-7.418l1.417-2.924 1.788.843c7.904 3.792 17.39.46 21.221-7.432l21.31-44.013c11.658 6.538 23.89 15.425 32.573 27.108 12.002-10.943 27.938-17.582 45.443-17.582 1.75 0 3.46.09 5.146.217-14.595-26.648-38.957-44.741-60.587-56.399l9.449-19.535a16.012 16.012 0 0 0 .702-12.207 15.933 15.933 0 0 0-8.159-9.117l-1.672-.804c1.2-2.49 1.353-5.35.446-7.955-.893-2.605-2.821-4.737-5.298-5.937l-24.146-11.568c-5.184-2.478-11.402-.307-13.905 4.877l-1.813-.868c-7.916-3.792-17.403-.46-21.234 7.431L166.174 165.29a15.98 15.98 0 0 0-.702 12.194 16.02 16.02 0 0 0 8.159 9.117l1.672.791zM295.2 283.908c-2.733 4.993-5.95 9.832-9.934 14.288-9.679 10.828-22.613 18.425-38.944 22.792v-15.641h13.253v-14.11c0-5.733-4.647-10.368-10.393-10.368H137.317a10.36 10.36 0 0 0-10.368 10.368v14.11h23.456v81.245c-.166.077-.32.14-.485.205-25.525 10.253-46.58 28.729-59.489 53.206h206.007c-11.326-21.413-28.882-38.152-50.18-48.967-.485-.255-.983-.473-1.469-.728.524.255 1.022.473 1.533.74v-16.981c31.64-5.797 58.122-19.638 77.555-41.434 8.798-9.857 15.438-20.545 20.468-31.347a61.938 61.938 0 0 1-3.78.115c-17.466 0-33.389-6.64-45.366-17.493zm45.34-104.063c-30.057 0-54.534 24.362-54.534 54.317 0 29.955 24.477 54.28 54.534 54.28 30.108 0 54.573-24.325 54.573-54.28 0-29.955-24.452-54.317-54.573-54.317z" fill="#f4f4f7"/>
</svg>
