<svg xmlns="http://www.w3.org/2000/svg" width="16" height="16">
    <defs>
        <linearGradient id="arrongin" x1="0%" x2="0%" y1="0%" y2="100%">
            <stop offset="0%" style="stop-color:#dd9b44;stop-opacity:1"/>
            <stop offset="100%" style="stop-color:#ad6c16;stop-opacity:1"/>
        </linearGradient>
        <linearGradient id="aurora" x1="0%" x2="0%" y1="0%" y2="100%">
            <stop offset="0%" style="stop-color:#09d4df;stop-opacity:1"/>
            <stop offset="100%" style="stop-color:#9269f4;stop-opacity:1"/>
        </linearGradient>
        <linearGradient id="cyberneon" x1="0%" x2="0%" y1="0%" y2="100%">
            <stop offset="0" style="stop-color:#0abdc6;stop-opacity:1"/>
            <stop offset="1" style="stop-color:#ea00d9;stop-opacity:1"/>
        </linearGradient>
        <linearGradient id="fitdance" x1="0%" x2="0%" y1="0%" y2="100%">
            <stop offset="0%" style="stop-color:#1ad6ab;stop-opacity:1"/>
            <stop offset="100%" style="stop-color:#329db6;stop-opacity:1"/>
        </linearGradient>
        <linearGradient id="oomox" x1="0%" x2="0%" y1="0%" y2="100%">
            <stop offset="0%" style="stop-color:#efefe7;stop-opacity:1"/>
            <stop offset="100%" style="stop-color:#8f8f8b;stop-opacity:1"/>
        </linearGradient>
        <linearGradient id="rainblue" x1="0%" x2="0%" y1="0%" y2="100%">
            <stop offset="0%" style="stop-color:#00f260;stop-opacity:1"/>
            <stop offset="100%" style="stop-color:#0575e6;stop-opacity:1"/>
        </linearGradient>
        <linearGradient id="sunrise" x1="0%" x2="0%" y1="0%" y2="100%">
            <stop offset="0%" style="stop-color:#ff8501;stop-opacity:1"/>
            <stop offset="100%" style="stop-color:#ffcb01;stop-opacity:1"/>
        </linearGradient>
        <linearGradient id="telinkrin" x1="0%" x2="0%" y1="0%" y2="100%">
            <stop offset="0%" style="stop-color:#b2ced6;stop-opacity:1"/>
            <stop offset="100%" style="stop-color:#6da5b7;stop-opacity:1"/>
        </linearGradient>
        <linearGradient id="60spsycho" x1="0%" x2="0%" y1="0%" y2="100%">
            <stop offset="0%" style="stop-color:#df5940;stop-opacity:1"/>
            <stop offset="25%" style="stop-color:#d8d15f;stop-opacity:1"/>
            <stop offset="50%" style="stop-color:#e9882a;stop-opacity:1"/>
            <stop offset="100%" style="stop-color:#279362;stop-opacity:1"/>
        </linearGradient>
        <linearGradient id="90ssummer" x1="0%" x2="0%" y1="0%" y2="100%">
            <stop offset="0%" style="stop-color:#f618c7;stop-opacity:1"/>
            <stop offset="20%" style="stop-color:#94ffab;stop-opacity:1"/>
            <stop offset="50%" style="stop-color:#fbfd54;stop-opacity:1"/>
            <stop offset="100%" style="stop-color:#0f83ae;stop-opacity:1"/>
        </linearGradient>
        <style id="current-color-scheme" type="text/css">
            .ColorScheme-Highlight{color:#5294e2}
        </style>
    </defs>
    <path fill="currentColor" fill-rule="evenodd" d="M7.903.097A7.903 7.903 0 0 0 0 8a7.903 7.903 0 0 0 7.903 7.903 7.914 7.914 0 0 0 1.694-.193A7.902 7.902 0 0 1 3.387 8 7.903 7.903 0 0 1 9.582.29 7.903 7.903 0 0 0 7.903.097Zm4.641 8.044c1.003.634 2.092 1.119 3.456 1.112-1.187.554-1.118 2.051-3.993 1.412a5.524 5.524 0 0 1-.919-.287c-.046 1.185.078 2.371.767 3.549-1.074-.751-2.336.058-3.22-2.751a5.618 5.618 0 0 1-.211-.94c-1.05.553-2.014 1.254-2.691 2.439.114-1.305-1.217-1.994.773-4.165.229-.249.465-.464.708-.651-1.003-.634-2.092-1.119-3.456-1.112 1.187-.554 1.118-2.051 3.993-1.412.331.073.635.17.919.287.046-1.185-.079-2.371-.767-3.549 1.073.751 2.335-.058 3.22 2.751.102.324.17.636.211.94 1.049-.553 2.014-1.254 2.69-2.439-.114 1.305 1.217 1.994-.773 4.165a5.665 5.665 0 0 1-.707.651Z" style="color:#ececec"/>
</svg>
