<svg xmlns="http://www.w3.org/2000/svg" width="48" height="48">
    <path d="M31.674 2c-1.636 0-2.999 1.35-2.999 2.987v4.97a2.914 2.914 0 0 0-.758-.104h-8.6c-1.635 0-2.986 1.362-2.986 2.998v13.092c0 .382.076.747.21 1.085a2.909 2.909 0 0 0-.747-.105h-8.6c-1.635 0-2.998 1.362-2.998 2.999v13.08C4.196 44.636 5.559 46 7.195 46h8.599c1.636 0 2.987-1.363 2.987-2.999v-13.08a2.94 2.94 0 0 0-.21-1.096c.24.063.489.105.747.105h8.599c.262 0 .516-.04.758-.105v5.869c0 1.636 1.363 2.998 3 2.998h8.598c1.636 0 2.987-1.362 2.987-2.998v-13.08a2.98 2.98 0 0 0-.595-1.774 2.953 2.953 0 0 0 .595-1.762V4.987A3.005 3.005 0 0 0 40.273 2h-8.599zm0 2.45h8.6a.51.51 0 0 1 .536.537v13.091a.51.51 0 0 1-.537.537h-8.599a.51.51 0 0 1-.537-.537V4.987a.51.51 0 0 1 .537-.537zm4.329 1.622a.736.736 0 0 0-.653.747v5.355h-2.66a.736.736 0 0 0-.07 0 .736.736 0 0 0 .07 1.47h2.66v2.661a.736.736 0 1 0 1.47 0v-6.056h2.368a.736.736 0 1 0 0-1.47H36.82V6.82a.736.736 0 0 0-.747-.747.736.736 0 0 0-.07 0zm-16.685 6.243h8.599a.51.51 0 0 1 .537.536v13.092a.51.51 0 0 1-.537.536h-8.6a.51.51 0 0 1-.536-.536V12.85a.51.51 0 0 1 .537-.536zm4.399 1.551a.736.736 0 0 0-.654.747v5.356h-2.66a.736.736 0 0 0-.07 0 .736.736 0 0 0 .07 1.47h2.66v2.66a.736.736 0 1 0 1.47 0v-6.056h2.369a.736.736 0 1 0 0-1.47h-2.369v-1.96a.736.736 0 0 0-.816-.747zm7.957 7.2h8.6c.319 0 .536.228.536.548v13.08a.51.51 0 0 1-.537.536h-8.599a.51.51 0 0 1-.537-.536v-13.08c0-.32.218-.549.537-.549zm1.447 1.598a.736.736 0 0 0 .07 1.47h5.589a.736.736 0 1 0 0-1.47h-5.59a.736.736 0 0 0-.07 0zm0 2.777a.736.736 0 0 0 .07 1.47h5.589a.736.736 0 1 0 0-1.47h-5.59a.736.736 0 0 0-.07 0zm0 2.789a.736.736 0 0 0 .07 1.47h5.589a.736.736 0 1 0 0-1.47h-5.59a.736.736 0 0 0-.07 0zM7.195 29.385h8.599a.51.51 0 0 1 .537.537v13.08c0 .319-.217.548-.537.548h-8.6c-.319 0-.536-.23-.536-.549v-13.08a.51.51 0 0 1 .537-.536zm1.412 1.272a.736.736 0 0 0 .07 1.47h5.588a.736.736 0 1 0 0-1.47H8.677a.736.736 0 0 0-.07 0zm0 2.777a.736.736 0 0 0 .07 1.47h5.588a.736.736 0 1 0 0-1.47H8.677a.736.736 0 0 0-.07 0zm0 2.777a.742.742 0 1 0 .07 1.481h5.588a.74.74 0 0 0 0-1.481H8.677a.74.74 0 0 0-.07 0z" fill="#f4f4f7"/>
</svg>
