<svg width="512" height="512" xmlns="http://www.w3.org/2000/svg">
    <g fill="#f4f4f7" fill-rule="evenodd">
        <path d="M82.034 451.026s74.597-261.034 364.977-227.841c0 0-184.547-109.553-363.704 38.138-52.91 122.56-1.273 189.703-1.273 189.703z"/>
        <path d="M104.243 418.002s77.838-187.66 285.607-190.96c-157.937 38.477.259 174.88.259 174.88S265.177 515.12 104.243 418.001z"/>
        <path d="M205.112 63.027c-28.983.203-62.115 6.436-99.638 21.967 52.77 4.108 75.41 11.499 76.697 17.1C90.913 86.408 63.86 216.283 60.907 274.146c0 0 155.47-171.014 387.616-52.86-4.146-32.13-31.613-68.405-80.844-78.77-8.502-4.048-59.072-80.214-162.582-79.49zM296.73 126.8c12.109-.45 28.858 3.917 32.096 30.396-39.22 3.7-44.954-28.123-44.954-28.123s5.591-2.002 12.856-2.272z"/>
    </g>
</svg>
