<svg xmlns="http://www.w3.org/2000/svg" width="16" height="16">
    <defs>
        <linearGradient id="arrongin" x1="0%" x2="0%" y1="0%" y2="100%">
            <stop offset="0%" style="stop-color:#dd9b44;stop-opacity:1"/>
            <stop offset="100%" style="stop-color:#ad6c16;stop-opacity:1"/>
        </linearGradient>
        <linearGradient id="aurora" x1="0%" x2="0%" y1="0%" y2="100%">
            <stop offset="0%" style="stop-color:#09d4df;stop-opacity:1"/>
            <stop offset="100%" style="stop-color:#9269f4;stop-opacity:1"/>
        </linearGradient>
        <linearGradient id="cyberneon" x1="0%" x2="0%" y1="0%" y2="100%">
            <stop offset="0" style="stop-color:#0abdc6;stop-opacity:1"/>
            <stop offset="1" style="stop-color:#ea00d9;stop-opacity:1"/>
        </linearGradient>
        <linearGradient id="fitdance" x1="0%" x2="0%" y1="0%" y2="100%">
            <stop offset="0%" style="stop-color:#1ad6ab;stop-opacity:1"/>
            <stop offset="100%" style="stop-color:#329db6;stop-opacity:1"/>
        </linearGradient>
        <linearGradient id="oomox" x1="0%" x2="0%" y1="0%" y2="100%">
            <stop offset="0%" style="stop-color:#efefe7;stop-opacity:1"/>
            <stop offset="100%" style="stop-color:#8f8f8b;stop-opacity:1"/>
        </linearGradient>
        <linearGradient id="rainblue" x1="0%" x2="0%" y1="0%" y2="100%">
            <stop offset="0%" style="stop-color:#00f260;stop-opacity:1"/>
            <stop offset="100%" style="stop-color:#0575e6;stop-opacity:1"/>
        </linearGradient>
        <linearGradient id="sunrise" x1="0%" x2="0%" y1="0%" y2="100%">
            <stop offset="0%" style="stop-color:#ff8501;stop-opacity:1"/>
            <stop offset="100%" style="stop-color:#ffcb01;stop-opacity:1"/>
        </linearGradient>
        <linearGradient id="telinkrin" x1="0%" x2="0%" y1="0%" y2="100%">
            <stop offset="0%" style="stop-color:#b2ced6;stop-opacity:1"/>
            <stop offset="100%" style="stop-color:#6da5b7;stop-opacity:1"/>
        </linearGradient>
        <linearGradient id="60spsycho" x1="0%" x2="0%" y1="0%" y2="100%">
            <stop offset="0%" style="stop-color:#df5940;stop-opacity:1"/>
            <stop offset="25%" style="stop-color:#d8d15f;stop-opacity:1"/>
            <stop offset="50%" style="stop-color:#e9882a;stop-opacity:1"/>
            <stop offset="100%" style="stop-color:#279362;stop-opacity:1"/>
        </linearGradient>
        <linearGradient id="90ssummer" x1="0%" x2="0%" y1="0%" y2="100%">
            <stop offset="0%" style="stop-color:#f618c7;stop-opacity:1"/>
            <stop offset="20%" style="stop-color:#94ffab;stop-opacity:1"/>
            <stop offset="50%" style="stop-color:#fbfd54;stop-opacity:1"/>
            <stop offset="100%" style="stop-color:#0f83ae;stop-opacity:1"/>
        </linearGradient>
        <style id="current-color-scheme" type="text/css">
            .ColorScheme-Highlight{color:#5294e2}
        </style>
    </defs>
    <path fill="currentColor" fill-rule="evenodd" d="m.115 11.051-.114.001v-.003L0 10.951v-.002a7.958 7.958 0 0 1 .626-3.101 7.969 7.969 0 0 1 1.708-2.532 7.979 7.979 0 0 1 2.533-1.708 7.967 7.967 0 0 1 3.102-.626 7.957 7.957 0 0 1 5.635 2.334 7.969 7.969 0 0 1 1.708 2.532c.414.981.627 2.036.626 3.101v.075l.062.032-3.68 1.772-.21-.435 2.316-1.116H9.937a1.99 1.99 0 0 1-.565 1.16 1.987 1.987 0 0 1-2.807 0 1.979 1.979 0 0 1-.567-1.167l-4.456.006 2.389 1.151-.21.435-3.68-1.773.074-.038Zm15.09-.402a7.214 7.214 0 0 0-2.115-4.82 7.219 7.219 0 0 0-5.121-2.12 7.222 7.222 0 0 0-5.121 2.12A7.235 7.235 0 0 0 .73 10.737l2.986-1.528.22.43-2.262 1.158 4.324-.006a1.989 1.989 0 0 1 1.97-1.741 1.983 1.983 0 0 1 1.969 1.741h4.485l-2.317-1.186.22-.429 2.88 1.473Zm-5.737.385a1.5 1.5 0 1 1-3.002 0 1.5 1.5 0 0 1 3.002 0Z" style="color:#ececec"/>
</svg>
