<svg xmlns="http://www.w3.org/2000/svg" width="16" height="16">
    <defs>
        <linearGradient id="arrongin" x1="0%" x2="0%" y1="0%" y2="100%">
            <stop offset="0%" style="stop-color:#dd9b44;stop-opacity:1"/>
            <stop offset="100%" style="stop-color:#ad6c16;stop-opacity:1"/>
        </linearGradient>
        <linearGradient id="aurora" x1="0%" x2="0%" y1="0%" y2="100%">
            <stop offset="0%" style="stop-color:#09d4df;stop-opacity:1"/>
            <stop offset="100%" style="stop-color:#9269f4;stop-opacity:1"/>
        </linearGradient>
        <linearGradient id="cyberneon" x1="0%" x2="0%" y1="0%" y2="100%">
            <stop offset="0" style="stop-color:#0abdc6;stop-opacity:1"/>
            <stop offset="1" style="stop-color:#ea00d9;stop-opacity:1"/>
        </linearGradient>
        <linearGradient id="fitdance" x1="0%" x2="0%" y1="0%" y2="100%">
            <stop offset="0%" style="stop-color:#1ad6ab;stop-opacity:1"/>
            <stop offset="100%" style="stop-color:#329db6;stop-opacity:1"/>
        </linearGradient>
        <linearGradient id="oomox" x1="0%" x2="0%" y1="0%" y2="100%">
            <stop offset="0%" style="stop-color:#efefe7;stop-opacity:1"/>
            <stop offset="100%" style="stop-color:#8f8f8b;stop-opacity:1"/>
        </linearGradient>
        <linearGradient id="rainblue" x1="0%" x2="0%" y1="0%" y2="100%">
            <stop offset="0%" style="stop-color:#00f260;stop-opacity:1"/>
            <stop offset="100%" style="stop-color:#0575e6;stop-opacity:1"/>
        </linearGradient>
        <linearGradient id="sunrise" x1="0%" x2="0%" y1="0%" y2="100%">
            <stop offset="0%" style="stop-color:#ff8501;stop-opacity:1"/>
            <stop offset="100%" style="stop-color:#ffcb01;stop-opacity:1"/>
        </linearGradient>
        <linearGradient id="telinkrin" x1="0%" x2="0%" y1="0%" y2="100%">
            <stop offset="0%" style="stop-color:#b2ced6;stop-opacity:1"/>
            <stop offset="100%" style="stop-color:#6da5b7;stop-opacity:1"/>
        </linearGradient>
        <linearGradient id="60spsycho" x1="0%" x2="0%" y1="0%" y2="100%">
            <stop offset="0%" style="stop-color:#df5940;stop-opacity:1"/>
            <stop offset="25%" style="stop-color:#d8d15f;stop-opacity:1"/>
            <stop offset="50%" style="stop-color:#e9882a;stop-opacity:1"/>
            <stop offset="100%" style="stop-color:#279362;stop-opacity:1"/>
        </linearGradient>
        <linearGradient id="90ssummer" x1="0%" x2="0%" y1="0%" y2="100%">
            <stop offset="0%" style="stop-color:#f618c7;stop-opacity:1"/>
            <stop offset="20%" style="stop-color:#94ffab;stop-opacity:1"/>
            <stop offset="50%" style="stop-color:#fbfd54;stop-opacity:1"/>
            <stop offset="100%" style="stop-color:#0f83ae;stop-opacity:1"/>
        </linearGradient>
        <style id="current-color-scheme" type="text/css">
            .ColorScheme-Highlight{color:#5294e2}
        </style>
    </defs>
    <path fill="currentColor" d="M1.286 15.946c-.311-.087-.518-.212-.77-.464-.355-.355-.516-.733-.516-1.21 0-.596.381-1.22.914-1.495l.229-.118V3.333L.955 3.25c-.249-.111-.66-.525-.782-.786A1.72 1.72 0 0 1 1.305.054a1.718 1.718 0 0 1 1.916.86l.119.228h9.322l.118-.229a1.76 1.76 0 0 1 1.103-.86c1.217-.317 2.382.85 2.064 2.07-.122.47-.506.948-.908 1.132l-.18.083v9.32l.229.119c.133.07.31.203.424.323a1.682 1.682 0 0 1-.065 2.43c-.539.503-1.24.608-1.928.287-.237-.11-.659-.534-.77-.773l-.087-.186H3.34l-.087.186c-.109.233-.532.662-.762.772-.372.178-.851.23-1.205.13zm11.484-2.45.103-.215-.713-.711-.712-.711-.215.073c-.263.09-.598.077-.85-.034a1.486 1.486 0 0 1-.364-.274l-.193-.197h-3.65l-.193.197c-.106.11-.27.232-.364.274a1.232 1.232 0 0 1-.85.034l-.215-.073-.713.71-.712.712.103.216.103.215h9.332zM4.066 11.23c-.15-.438-.036-.878.316-1.218l.19-.183V6.17l-.19-.184c-.352-.34-.466-.78-.316-1.218l.074-.214-.71-.712-.71-.71-.216.103-.217.104v9.32l.204.11.206.11.721-.716.722-.717zm9.65-3.233V3.336l-.217-.103-.217-.103-.71.711-.71.712.073.214c.15.438.037.878-.316 1.218l-.19.183V9.83l.19.183c.353.34.467.78.316 1.218l-.073.215.715.717.715.717.212-.11.211-.11V7.997zM9.94 10.18a1.01 1.01 0 0 1 .204-.218l.143-.112V6.173l-.233-.23-.234-.23H6.181l-.233.23-.233.23V9.85l.142.112c.079.062.17.16.204.218l.062.104H9.88zm.015-5.732c.16-.247.568-.449.905-.449.098 0 .27.032.383.072l.204.071.72-.719.72-.72-.104-.162a.751.751 0 0 1-.103-.21c0-.038-.856-.046-4.68-.046-3.822 0-4.678.009-4.678.047 0 .025-.047.12-.104.209l-.103.163.72.72.72.718.204-.071a1.4 1.4 0 0 1 .382-.072c.338 0 .746.202.906.449l.079.121h3.75z" style="color:#ececec"/>
</svg>
