<svg xmlns="http://www.w3.org/2000/svg" width="16" height="16">
    <defs>
        <linearGradient id="arrongin" x1="0%" x2="0%" y1="0%" y2="100%">
            <stop offset="0%" style="stop-color:#dd9b44;stop-opacity:1"/>
            <stop offset="100%" style="stop-color:#ad6c16;stop-opacity:1"/>
        </linearGradient>
        <linearGradient id="aurora" x1="0%" x2="0%" y1="0%" y2="100%">
            <stop offset="0%" style="stop-color:#09d4df;stop-opacity:1"/>
            <stop offset="100%" style="stop-color:#9269f4;stop-opacity:1"/>
        </linearGradient>
        <linearGradient id="cyberneon" x1="0%" x2="0%" y1="0%" y2="100%">
            <stop offset="0" style="stop-color:#0abdc6;stop-opacity:1"/>
            <stop offset="1" style="stop-color:#ea00d9;stop-opacity:1"/>
        </linearGradient>
        <linearGradient id="fitdance" x1="0%" x2="0%" y1="0%" y2="100%">
            <stop offset="0%" style="stop-color:#1ad6ab;stop-opacity:1"/>
            <stop offset="100%" style="stop-color:#329db6;stop-opacity:1"/>
        </linearGradient>
        <linearGradient id="oomox" x1="0%" x2="0%" y1="0%" y2="100%">
            <stop offset="0%" style="stop-color:#efefe7;stop-opacity:1"/>
            <stop offset="100%" style="stop-color:#8f8f8b;stop-opacity:1"/>
        </linearGradient>
        <linearGradient id="rainblue" x1="0%" x2="0%" y1="0%" y2="100%">
            <stop offset="0%" style="stop-color:#00f260;stop-opacity:1"/>
            <stop offset="100%" style="stop-color:#0575e6;stop-opacity:1"/>
        </linearGradient>
        <linearGradient id="sunrise" x1="0%" x2="0%" y1="0%" y2="100%">
            <stop offset="0%" style="stop-color:#ff8501;stop-opacity:1"/>
            <stop offset="100%" style="stop-color:#ffcb01;stop-opacity:1"/>
        </linearGradient>
        <linearGradient id="telinkrin" x1="0%" x2="0%" y1="0%" y2="100%">
            <stop offset="0%" style="stop-color:#b2ced6;stop-opacity:1"/>
            <stop offset="100%" style="stop-color:#6da5b7;stop-opacity:1"/>
        </linearGradient>
        <linearGradient id="60spsycho" x1="0%" x2="0%" y1="0%" y2="100%">
            <stop offset="0%" style="stop-color:#df5940;stop-opacity:1"/>
            <stop offset="25%" style="stop-color:#d8d15f;stop-opacity:1"/>
            <stop offset="50%" style="stop-color:#e9882a;stop-opacity:1"/>
            <stop offset="100%" style="stop-color:#279362;stop-opacity:1"/>
        </linearGradient>
        <linearGradient id="90ssummer" x1="0%" x2="0%" y1="0%" y2="100%">
            <stop offset="0%" style="stop-color:#f618c7;stop-opacity:1"/>
            <stop offset="20%" style="stop-color:#94ffab;stop-opacity:1"/>
            <stop offset="50%" style="stop-color:#fbfd54;stop-opacity:1"/>
            <stop offset="100%" style="stop-color:#0f83ae;stop-opacity:1"/>
        </linearGradient>
        <style id="current-color-scheme" type="text/css">
            .ColorScheme-Text{color:#ececec}
        </style>
    </defs>
    <g transform="translate(-10.28 199.95) scale(1.14255)">
        <path fill="currentColor" class="ColorScheme-Text" d="M9.738-175.002c-.246.015-.738.139-.738.877V-168c0 3.878 3.122 7 7 7s7-3.122 7-7-3.122-7-7-7H9.875s-.055-.007-.137-.002zM10.5-174a.5.5 0 0 1 .5.5.5.5 0 0 1-.5.5.5.5 0 0 1-.5-.5.5.5 0 0 1 .5-.5zm5.5 1a5 5 0 0 1 5 5 5 5 0 0 1-5 5 5 5 0 0 1-5-5 5 5 0 0 1 5-5z"/>
        <rect fill="currentColor" class="ColorScheme-Text" opacity=".7" width="2" height="2" x="-15" y="171" rx="0" ry="0" transform="scale(-1)"/>
        <rect fill="currentColor" class="ColorScheme-Text" opacity=".8" width="2" height="2" x="-13" y="171" rx="0" ry="0" transform="scale(-1)"/>
        <rect fill="currentColor" class="ColorScheme-Text" opacity=".7" width="2" height="2" x="-13" y="169" rx="0" ry="0" transform="scale(-1)"/>
        <rect fill="currentColor" class="ColorScheme-Text" opacity=".6" width="2" height="2" x="-17" y="171" rx="0" ry="0" transform="scale(-1)"/>
        <rect fill="currentColor" class="ColorScheme-Text" opacity=".6" width="2" height="2" x="-15" y="169" rx="0" ry="0" transform="scale(-1)"/>
        <rect fill="currentColor" class="ColorScheme-Text" opacity=".6" width="2" height="2" x="-13" y="167" rx="0" ry="0" transform="scale(-1)"/>
        <rect fill="currentColor" class="ColorScheme-Text" opacity=".5" width="2" height="2" x="-19" y="171" rx="0" ry="0" transform="scale(-1)"/>
        <rect fill="currentColor" class="ColorScheme-Text" opacity=".5" width="2" height="2" x="-17" y="169" rx="0" ry="0" transform="scale(-1)"/>
        <rect fill="currentColor" class="ColorScheme-Text" opacity=".5" width="2" height="2" x="-15" y="167" rx="0" ry="0" transform="scale(-1)"/>
        <rect fill="currentColor" class="ColorScheme-Text" opacity=".5" width="2" height="2" x="-13" y="165" rx="0" ry="0" transform="scale(-1)"/>
        <rect fill="currentColor" class="ColorScheme-Text" opacity=".4" width="2" height="2" x="-21" y="171" rx="0" ry="0" transform="scale(-1)"/>
        <rect fill="currentColor" class="ColorScheme-Text" opacity=".4" width="2" height="2" x="-19" y="169" rx="0" ry="0" transform="scale(-1)"/>
        <rect fill="currentColor" class="ColorScheme-Text" opacity=".4" width="2" height="2" x="-17" y="167" rx="0" ry="0" transform="scale(-1)"/>
        <rect fill="currentColor" class="ColorScheme-Text" opacity=".4" width="2" height="2" x="-15" y="165" rx="0" ry="0" transform="scale(-1)"/>
        <rect fill="currentColor" class="ColorScheme-Text" opacity=".4" width="2" height="2" x="-13" y="163" rx="0" ry="0" transform="scale(-1)"/>
        <rect fill="currentColor" class="ColorScheme-Text" opacity=".3" width="2" height="2" x="-21" y="169" rx="0" ry="0" transform="scale(-1)"/>
        <rect fill="currentColor" class="ColorScheme-Text" opacity=".3" width="2" height="2" x="-19" y="167" rx="0" ry="0" transform="scale(-1)"/>
        <rect fill="currentColor" class="ColorScheme-Text" opacity=".3" width="2" height="2" x="-17" y="165" rx="0" ry="0" transform="scale(-1)"/>
        <rect fill="currentColor" class="ColorScheme-Text" opacity=".3" width="2" height="2" x="-15" y="163" rx="0" ry="0" transform="scale(-1)"/>
        <rect fill="currentColor" class="ColorScheme-Text" opacity=".2" width="2" height="2" x="-21" y="167" rx="0" ry="0" transform="scale(-1)"/>
        <rect fill="currentColor" class="ColorScheme-Text" opacity=".2" width="2" height="2" x="-19" y="165" rx="0" ry="0" transform="scale(-1)"/>
        <rect fill="currentColor" class="ColorScheme-Text" opacity=".2" width="2" height="2" x="-17" y="163" rx="0" ry="0" transform="scale(-1)"/>
        <rect fill="currentColor" class="ColorScheme-Text" opacity=".1" width="2" height="2" x="-21" y="165" rx="0" ry="0" transform="scale(-1)"/>
        <rect fill="currentColor" class="ColorScheme-Text" opacity=".1" width="2" height="2" x="-19" y="163" rx="0" ry="0" transform="scale(-1)"/>
    </g>
</svg>
