<svg xmlns="http://www.w3.org/2000/svg" xmlns:xlink="http://www.w3.org/1999/xlink">
    <path id="a" d="M206.03 244.69c0 11.196-9.08 20.273-20.273 20.273-11.196 0-20.273-9.08-20.273-20.273 0-11.196 9.08-20.273 20.273-20.273 11.196 0 20.273 9.08 20.273 20.273"/>
    <path d="M320.101 71.936c-24.279.213-47 7.106-68.409 17.43-3.585 1.193-7.173 2.968-11.678 5.665-26.837 16.06-41.195 31.674-57.435 62.53l-8.367 15.862-1.569-7.234c-8.366-19.123-19.454-30.942-37.816-33.466-9.721-1.305-20.025-.424-27.016.915-12.62 2.525-29.27 13.03-39.35 26.362-21.644 28.637-18.947 56.47 6.84 70.506 6.16 3.352 13.13 6.193 15.465 6.318 2.338.124.067 1.52-5.055 3.137-30.363 9.588-43.102 29.084-34.206 52.378 2.691 7.042 11.253 17.441 17.953 22.833a80.536 80.536 0 0 0-3.617 6.057c-1.354.29-2.393 2.587-3.051 6.406a80.79 80.79 0 0 0-6.667 32.197c0 44.355 35.577 80.262 79.481 80.262 20.333 0 38.625-7.881 52.682-20.568 41.394 18.536 90.022 16.366 129.68-6.537 11.76 6.946 25.611 11.07 40.22 11.07 42.068 0 76.51-33.072 79.306-74.863.044-9.803.477-9.315-.306-13.944a79.744 79.744 0 0 0-.785-5.62c6.348-2.602 19.911-15.422 23.886-23.095 10.521-20.343-8.154-55.023-34.554-64.1l-7.975-2.745 5.709-7.713c15.352-20.807 20.106-53.773 11.547-80.483-1.159-3.617-2.294-6.492-3.443-8.803-6.37-13.972-16.547-30.603-27.147-39.871-16.42-12.606-30.886-20.502-44.098-25.141-13.875-4.15-27.287-5.865-40.22-5.752m-62.574 201.184c42.166 0 42.917.308 41.483 20.132-1.153 15.944-5.282 23.027-19.173 32.857-11.287 7.987-28.321 10.177-39.697 5.054-17.18-7.739-25.056-19.835-25.056-38.26 0-19.097 1.55-19.783 42.443-19.783" fill="#f4f4f7"/>
    <use height="1" transform="translate(-94.356 -93.78) scale(1.3944)" width="1" xlink:href="#a"/>
    <use height="1" transform="translate(88.324 -93.78) scale(1.3944)" width="1" xlink:href="#a"/>
</svg>
