<svg xmlns="http://www.w3.org/2000/svg" width="16" height="16">
    <defs>
        <linearGradient id="arrongin" x1="0%" x2="0%" y1="0%" y2="100%">
            <stop offset="0%" style="stop-color:#dd9b44;stop-opacity:1"/>
            <stop offset="100%" style="stop-color:#ad6c16;stop-opacity:1"/>
        </linearGradient>
        <linearGradient id="aurora" x1="0%" x2="0%" y1="0%" y2="100%">
            <stop offset="0%" style="stop-color:#09d4df;stop-opacity:1"/>
            <stop offset="100%" style="stop-color:#9269f4;stop-opacity:1"/>
        </linearGradient>
        <linearGradient id="cyberneon" x1="0%" x2="0%" y1="0%" y2="100%">
            <stop offset="0" style="stop-color:#0abdc6;stop-opacity:1"/>
            <stop offset="1" style="stop-color:#ea00d9;stop-opacity:1"/>
        </linearGradient>
        <linearGradient id="fitdance" x1="0%" x2="0%" y1="0%" y2="100%">
            <stop offset="0%" style="stop-color:#1ad6ab;stop-opacity:1"/>
            <stop offset="100%" style="stop-color:#329db6;stop-opacity:1"/>
        </linearGradient>
        <linearGradient id="oomox" x1="0%" x2="0%" y1="0%" y2="100%">
            <stop offset="0%" style="stop-color:#efefe7;stop-opacity:1"/>
            <stop offset="100%" style="stop-color:#8f8f8b;stop-opacity:1"/>
        </linearGradient>
        <linearGradient id="rainblue" x1="0%" x2="0%" y1="0%" y2="100%">
            <stop offset="0%" style="stop-color:#00f260;stop-opacity:1"/>
            <stop offset="100%" style="stop-color:#0575e6;stop-opacity:1"/>
        </linearGradient>
        <linearGradient id="sunrise" x1="0%" x2="0%" y1="0%" y2="100%">
            <stop offset="0%" style="stop-color:#ff8501;stop-opacity:1"/>
            <stop offset="100%" style="stop-color:#ffcb01;stop-opacity:1"/>
        </linearGradient>
        <linearGradient id="telinkrin" x1="0%" x2="0%" y1="0%" y2="100%">
            <stop offset="0%" style="stop-color:#b2ced6;stop-opacity:1"/>
            <stop offset="100%" style="stop-color:#6da5b7;stop-opacity:1"/>
        </linearGradient>
        <linearGradient id="60spsycho" x1="0%" x2="0%" y1="0%" y2="100%">
            <stop offset="0%" style="stop-color:#df5940;stop-opacity:1"/>
            <stop offset="25%" style="stop-color:#d8d15f;stop-opacity:1"/>
            <stop offset="50%" style="stop-color:#e9882a;stop-opacity:1"/>
            <stop offset="100%" style="stop-color:#279362;stop-opacity:1"/>
        </linearGradient>
        <linearGradient id="90ssummer" x1="0%" x2="0%" y1="0%" y2="100%">
            <stop offset="0%" style="stop-color:#f618c7;stop-opacity:1"/>
            <stop offset="20%" style="stop-color:#94ffab;stop-opacity:1"/>
            <stop offset="50%" style="stop-color:#fbfd54;stop-opacity:1"/>
            <stop offset="100%" style="stop-color:#0f83ae;stop-opacity:1"/>
        </linearGradient>
        <style id="current-color-scheme" type="text/css">
            .ColorScheme-Highlight{color:#5294e2}
        </style>
    </defs>
    <path fill="currentColor" fill-rule="evenodd" d="M3.8 15.952c.01-.026.04-.211.066-.409.157-1.191.146-1.954.455-2.462.058-.094.22-.301.361-.461.141-.159.257-.259.257-.279 0-.024-.041-.029-.132-.014-.437.07-.7-.01-.82-.214-.062-.106.008.03 0-2.589-.01-3.009.022-2.721.298-2.859.2-.1.448-.256.668-.291.375-.06.629.218.815.58.051.099.109.174.129.167.059-.019.07-2.729.011-2.729-.023 0-.068.065-.099.145-.077.202-.26.668-.479.766-.228.101-.956.358-1.107.358-.062 0-.216-.016-.236-.037-.029-.028-.001-.503 0-1.953 0-1.054-.013-1.799 0-1.82.117-.182 1.951-.258 2.585-.117.129.029.346.106.483.171.356.17.579.484.823.944.013.025.044.046.068.046.036 0 .044-.08.052-1.083.004-.663 0-1.772-.009-1.812 0 0-.345.455-.39.546l-.097.081-.597-.011C6.576.61 5.139.616 3.957.615 2.774.614 1.38.633 1.352.644c-.105.04 0 .107.267.252.46.25.891.784 1.002 1.201.066.245.064 3.372-.002 3.65-.064.268-.278.464-.48.68a1.167 1.167 0 0 0-.172.212c0 .015.078.104.173.197.191.186.441.411.489.601.045.18.08 5.431.038 5.721-.042.288-.227.412-.467.666-.223.237-.224.237.119.366.28.106.804.344.911.504.111.165.255.475.373.905.054.196.104.366.112.378.023.039.065.027.085-.025ZM9.373 1.285c-.033.02-.04.623-.033 1.489.01 1.259-.032.852.226.522.36-.458.839-.338 1.041-.36.517-.013.643-.007.692.042.05.049.097.295.054 1.448v1.552s-.356.284-.551.475a.535.535 0 0 0-.12.173.46.46 0 0 0 .106.161c.147.262.548.487.548.487l.011 2.68c.009 2.926.007 2.746-.06 2.805 0 0-.481.501-.612.565.688.226.963.408 1.252 1.036.047.154.059.302.086.302.027 0 .039-.148.086-.302.29-.628.565-.81 1.252-1.036-.131-.064-.612-.565-.612-.565-.067-.059-.069.121-.06-2.805l.011-2.68s.401-.225.549-.487a.453.453 0 0 0 .105-.161.535.535 0 0 0-.12-.173c-.194-.191-.551-.475-.551-.475V4.426c-.042-1.153.005-1.399.055-1.448.049-.049.174-.055.691-.042.202.022.681-.098 1.041.36.259.33.216.737.226-.522.007-.866 0-1.469-.033-1.489a17.47 17.47 0 0 0-.382.658c-.051.026-.979.01-2.258.01s-2.207.016-2.257-.01c0 0-.264-.474-.383-.658Z" style="color:#ececec"/>
</svg>
