<svg xmlns="http://www.w3.org/2000/svg" width="48" height="48">
    &gt;
    <path d="M6.054 2.007c-1.257.01-2.09.03-2.09.03a1.997 1.997 0 0 0-.218 0A1.997 1.997 0 0 0 2 4.036v39.968C2 45.106 2.894 46 3.996 46h40.008A1.997 1.997 0 0 0 46 44.003V4.035c0-1.091-.875-1.98-1.965-1.997 0 0-3.288-.085-6.766 0-1.74.043-3.535.133-5.02.28-.744.075-1.397.15-1.997.282-.599.13-1.113.115-1.933.904-.818.787-1.807 1.28-4.335 1.28-2.527 0-3.485-.493-4.303-1.28-.82-.789-1.334-.774-1.933-.904-.6-.131-1.253-.207-1.996-.281-1.486-.148-3.282-.238-5.02-.281-1.74-.043-3.421-.042-4.678-.031zM7.863 6c.72-.005 1.59.003 2.775.032 1.685.04 3.403.12 4.709.25a14.88 14.88 0 0 1 1.559.218c.086.018.161.062.218.093 1.06.939 2.446 1.598 4.179 1.935L16.5 32.272l7.484 7.3 7.484-7.3-4.77-23.744c1.726-.34 3.122-1.002 4.178-1.935.057-.03.132-.075.218-.093a15.09 15.09 0 0 1 1.56-.219c1.305-.13 3.023-.208 4.708-.25 2.369-.057 3.485-.011 4.647 0v35.975H5.992V6.032c.58-.006 1.15-.026 1.87-.032z" fill="#f4f4f7"/>
</svg>
