<svg xmlns="http://www.w3.org/2000/svg" width="16" height="16">
    <defs>
        <linearGradient id="arrongin" x1="0%" x2="0%" y1="0%" y2="100%">
            <stop offset="0%" style="stop-color:#dd9b44;stop-opacity:1"/>
            <stop offset="100%" style="stop-color:#ad6c16;stop-opacity:1"/>
        </linearGradient>
        <linearGradient id="aurora" x1="0%" x2="0%" y1="0%" y2="100%">
            <stop offset="0%" style="stop-color:#09d4df;stop-opacity:1"/>
            <stop offset="100%" style="stop-color:#9269f4;stop-opacity:1"/>
        </linearGradient>
        <linearGradient id="cyberneon" x1="0%" x2="0%" y1="0%" y2="100%">
            <stop offset="0" style="stop-color:#0abdc6;stop-opacity:1"/>
            <stop offset="1" style="stop-color:#ea00d9;stop-opacity:1"/>
        </linearGradient>
        <linearGradient id="fitdance" x1="0%" x2="0%" y1="0%" y2="100%">
            <stop offset="0%" style="stop-color:#1ad6ab;stop-opacity:1"/>
            <stop offset="100%" style="stop-color:#329db6;stop-opacity:1"/>
        </linearGradient>
        <linearGradient id="oomox" x1="0%" x2="0%" y1="0%" y2="100%">
            <stop offset="0%" style="stop-color:#efefe7;stop-opacity:1"/>
            <stop offset="100%" style="stop-color:#8f8f8b;stop-opacity:1"/>
        </linearGradient>
        <linearGradient id="rainblue" x1="0%" x2="0%" y1="0%" y2="100%">
            <stop offset="0%" style="stop-color:#00f260;stop-opacity:1"/>
            <stop offset="100%" style="stop-color:#0575e6;stop-opacity:1"/>
        </linearGradient>
        <linearGradient id="sunrise" x1="0%" x2="0%" y1="0%" y2="100%">
            <stop offset="0%" style="stop-color:#ff8501;stop-opacity:1"/>
            <stop offset="100%" style="stop-color:#ffcb01;stop-opacity:1"/>
        </linearGradient>
        <linearGradient id="telinkrin" x1="0%" x2="0%" y1="0%" y2="100%">
            <stop offset="0%" style="stop-color:#b2ced6;stop-opacity:1"/>
            <stop offset="100%" style="stop-color:#6da5b7;stop-opacity:1"/>
        </linearGradient>
        <linearGradient id="60spsycho" x1="0%" x2="0%" y1="0%" y2="100%">
            <stop offset="0%" style="stop-color:#df5940;stop-opacity:1"/>
            <stop offset="25%" style="stop-color:#d8d15f;stop-opacity:1"/>
            <stop offset="50%" style="stop-color:#e9882a;stop-opacity:1"/>
            <stop offset="100%" style="stop-color:#279362;stop-opacity:1"/>
        </linearGradient>
        <linearGradient id="90ssummer" x1="0%" x2="0%" y1="0%" y2="100%">
            <stop offset="0%" style="stop-color:#f618c7;stop-opacity:1"/>
            <stop offset="20%" style="stop-color:#94ffab;stop-opacity:1"/>
            <stop offset="50%" style="stop-color:#fbfd54;stop-opacity:1"/>
            <stop offset="100%" style="stop-color:#0f83ae;stop-opacity:1"/>
        </linearGradient>
        <style id="current-color-scheme" type="text/css">
            .ColorScheme-Highlight{color:#5294e2}
        </style>
    </defs>
    <path fill="currentColor" d="M8.682.011c.017.984-4.145 3.017-4.616 5.256-.041.14-.113.369-.174.562a.381.381 0 0 0-.207.128C1.705 8.367 2.043 10.661 2 12.955c-.005.17.116.32.291.359a.383.383 0 0 0 .429-.197s.144-.285.36-.746C3.834 14.474 6.063 16 8.699 16c2.635 0 4.866-1.526 5.621-3.629l.001.002c.215.46.359.744.359.744a.383.383 0 0 0 .427.194.361.361 0 0 0 .29-.356c-.043-2.294.297-4.588-1.682-6.998a.387.387 0 0 0-.208-.128c-.06-.193-.133-.422-.173-.562C12.835 2.898 11.145.995 8.699.995c-.134 0-.019-1.115-.017-.984Zm.017 3.663-.061.348c-.59.086-1.005.248-1.439.403 0 0 .587-.751 1.5-.751Zm.75 0c.915.007 1.502.751 1.502.751-.434-.156-.852-.319-1.443-.408l-.059-.343ZM8.131 5.015c.074.001.148.01.221.028.232.071.444.227.615.453.15-.187.362-.343.617-.453a2.28 2.28 0 0 1 .22-.028c.934.115 1.591.743 1.495 1.429.358.333.476.77.317 1.172-.16.402-.577.72-1.12.853-.711-.055-1.314-.417-1.529-.918-.28.771-.924 1.158-1.527.918-.597-.311-.938-1.17-.803-2.025.13-.954.795-1.59 1.494-1.429Z" style="color:#ececec"/>
</svg>
