<svg xmlns="http://www.w3.org/2000/svg" width="48" height="48">
    <path d="M37.844 1.563c-4.906 0-7.918 3.634-8.907 7.187-.494 1.776-.52 3.564-.03 5.031.49 1.468 1.713 2.656 3.374 2.656 1.662 0 3.302-.953 4.844-2.25a18.34 18.34 0 0 0 3.969-4.718c1.001-1.735 1.635-3.513 1.25-5.156a3.311 3.311 0 0 0-1.5-2.063c-.786-.48-1.774-.688-3-.688zm-13.719 2a3.804 3.804 0 0 0-.563.03c-1.514.185-2.654 1.016-3.28 2.095-.627 1.078-.806 2.349-.72 3.562.087 1.213.446 2.393 1 3.344.555.95 1.36 1.778 2.5 1.844 1.246.07 2.126-.833 2.782-1.844.656-1.011 1.135-2.304 1.375-3.594s.252-2.6-.282-3.719c-.466-.979-1.522-1.684-2.812-1.718zm-9.125 3c-.32.034-.653.125-.969.25a3.851 3.851 0 0 0-2.344 2.625c-.28 1.094-.111 2.218.25 3.25.362 1.03.926 1.98 1.626 2.687.7.707 1.594 1.27 2.656 1.063 1.026-.2 1.545-1.077 1.875-1.938.33-.861.497-1.848.5-2.875.003-1.027-.151-2.088-.532-3-.38-.912-1.067-1.745-2.125-2A2.708 2.708 0 0 0 15 6.562zm-6.156 5.406c-.611-.022-1.196.218-1.719.594a3.775 3.775 0 0 0-1.594 2.968c-.025 1.086.35 2.123.875 3.031a7.053 7.053 0 0 0 2 2.22c.77.541 1.724.94 2.688.5.938-.43 1.198-1.34 1.312-2.22.115-.88.048-1.87-.156-2.843-.204-.973-.545-1.928-1.063-2.719-.517-.791-1.294-1.495-2.343-1.531zM27.5 16.53c-3.68-.06-7.822.802-11.375 2.594-3.55 1.79-6.502 4.567-7.375 8.375-.965 4.206.952 8.842 4.219 12.531 3.258 3.68 7.894 6.438 12.844 6.438 2.57 0 5.107-1.13 7.218-2.844 2.111-1.713 3.832-4.07 4.375-6.875.101-.52-.02-1.43-.281-1.875-.415-.708-.894-.902-1.313-1.094-1.144-.524-2.2-.56-3.468-.437-1.22.118-2.372.39-3.407.937-.56.296-.937.579-1.28 1-.066.08-.115.144-.188.25-.037.053-.053.083-.157.313-.103.23-.156 1.062-.156 1.062.156 1.161-.3 1.867-.843 2.157-.575.306-1.456.297-2.532-.5-.955-.709-1.348-1.26-1.468-1.688-.095-.336-.02-.747.28-1.188.73-1.068 2.532-2.245 4.72-3.562 2.169-1.306 4.542-2.692 6.406-4.375.913-.824 1.706-1.694 2.25-2.75a5.798 5.798 0 0 0 .562-3.594c-.283-1.638-1.573-2.943-3.156-3.687-1.618-.76-3.644-1.151-5.875-1.188z" fill="#e9e9e9"/>
</svg>
