<svg xmlns="http://www.w3.org/2000/svg">
    <g fill="#e9e9e9" transform="translate(-156.15 -147.29) scale(1.607)">
        <rect height="42.619" rx="2.649" ry="3.892" width="257.025" x="128.73" y="129.87"/>
        <path d="M132.04 182.328c-1.468 0-2.65 1.735-2.65 3.89v149.579c0 2.156 1.182 3.892 2.65 3.892h250.415c1.468 0 2.649-1.736 2.649-3.892V186.219c0-2.156-1.181-3.89-2.649-3.89zm122.802 9.02c7.851 0 15.234 1.054 22.148 3.164 6.973 2.05 13.506 5.156 19.6 9.316v18.72c-5.977-5.566-12.363-9.726-19.16-12.48-6.739-2.754-13.916-4.13-21.534-4.13-15 0-26.484 4.6-34.453 13.798-7.968 9.141-11.953 22.383-11.953 39.727 0 17.285 3.985 30.527 11.953 39.726 7.97 9.141 19.453 13.711 34.453 13.711 7.618 0 14.795-1.377 21.534-4.13 6.797-2.754 13.183-6.915 19.16-12.48v18.544c-6.211 4.219-12.803 7.383-19.776 9.492-6.914 2.11-14.238 3.164-21.972 3.164-19.863 0-35.508-6.064-46.934-18.193-11.426-12.188-17.138-28.799-17.138-49.834 0-21.094 5.712-37.705 17.138-49.834 11.426-12.188 27.07-18.281 46.934-18.281z"/>
        <rect height="8.524" rx="2.649" ry="3.892" width="256.369" x="129.39" y="346.9"/>
    </g>
</svg>
