<svg xmlns="http://www.w3.org/2000/svg" width="512" height="512">
    <text x="729.64" y="231.36" font-family="Gentium Book Basic" word-spacing="0" letter-spacing="0" font-size="129.23">

</text>
    <text x="1310.91" y="151.36" font-family="Gentium Book Basic" word-spacing="0" letter-spacing="0" font-size="129.23">

</text>
    <text x="239.33" y="-29.901" font-family="Gentium Book Basic" word-spacing="0" letter-spacing="0" font-size="129.23">

</text>
    <text x="1337.38" y="-246.37" font-family="Gentium Book Basic" word-spacing="0" letter-spacing="0" font-size="129.23">

</text>
    <text x="1918.65" y="-326.38" font-family="Gentium Book Basic" word-spacing="0" letter-spacing="0" font-size="129.23">

</text>
    <text x="1529.53" y="-798.78" font-family="Gentium Book Basic" word-spacing="0" letter-spacing="0" font-size="129.23">

</text>
    <text x="2110.79" y="-878.78" font-family="Gentium Book Basic" word-spacing="0" letter-spacing="0" font-size="129.23">

</text>
    <text x="277.99" y="535.94" font-family="Gentium Book Basic" word-spacing="0" letter-spacing="0" font-size="208.33">

</text>
    <path d="M227.82 81.842c-33.093 0-59.941 26.841-59.941 59.94 0 33.093 26.841 59.695 59.94 59.695a59.535 59.535 0 0 0 59.695-59.694c0-33.092-26.6-59.941-59.694-59.941m204.19 21.141-68.895 156.193 27.36 11.442 29.847-63.175v78.098H409.87v15.172h-8.957V284.05h-31.09v-2.99l-41.78-18.904-74.617-3.98c-2.96-6.508-6.561-12.967-11.44-19.151-4.699-6.112-9.352-11.86-12.686-17.66-7.201-7.904-16.032-13.67-28.852-15.918a51.14 51.14 0 0 0-6.964-.249c-6.972.202-13.837 1.94-19.65 4.975-8.971 6.504-15.388 17.766-19.649 30.094-3.936 12.084-6.052 25.1-7.959 37.309-2.036 18.306-1.2 36.01 3.731 55.222 5.749 23.94 14.85 47.658 22.385 69.895h106.952c-1.364-15.17-4.187-44.504-5.223-51.236-1.331-8.655-6.547-38.7-7.213-44.023-.95-4.715-1.813-9.2-2.736-13.68H366.35v6.965h-67.9v23.88h39.048v78.098h25.619v-78.098h133.32v-23.88h-30.841v-15.172h-26.614V167.905l22.634-48.003-29.598-16.913M51.233 128.855c-1.016.298-2.122 1.094-2.991 1.99-13.819 14.325-2.133 101.074 26.116 194.005 8.993 29.583 18.495 55.734 27.857 77.85H153.7c-4.545-35.592-14.563-81.754-29.101-129.59-26.483-87.113-58.14-148.716-73.372-144.26" style="fill:#e9e9e9;fill-rule:evenodd"/>
</svg>
