<svg xmlns="http://www.w3.org/2000/svg" width="16" height="16">
    <defs>
        <linearGradient id="arrongin" x1="0%" x2="0%" y1="0%" y2="100%">
            <stop offset="0%" style="stop-color:#dd9b44;stop-opacity:1"/>
            <stop offset="100%" style="stop-color:#ad6c16;stop-opacity:1"/>
        </linearGradient>
        <linearGradient id="aurora" x1="0%" x2="0%" y1="0%" y2="100%">
            <stop offset="0%" style="stop-color:#09d4df;stop-opacity:1"/>
            <stop offset="100%" style="stop-color:#9269f4;stop-opacity:1"/>
        </linearGradient>
        <linearGradient id="cyberneon" x1="0%" x2="0%" y1="0%" y2="100%">
            <stop offset="0" style="stop-color:#0abdc6;stop-opacity:1"/>
            <stop offset="1" style="stop-color:#ea00d9;stop-opacity:1"/>
        </linearGradient>
        <linearGradient id="fitdance" x1="0%" x2="0%" y1="0%" y2="100%">
            <stop offset="0%" style="stop-color:#1ad6ab;stop-opacity:1"/>
            <stop offset="100%" style="stop-color:#329db6;stop-opacity:1"/>
        </linearGradient>
        <linearGradient id="oomox" x1="0%" x2="0%" y1="0%" y2="100%">
            <stop offset="0%" style="stop-color:#efefe7;stop-opacity:1"/>
            <stop offset="100%" style="stop-color:#8f8f8b;stop-opacity:1"/>
        </linearGradient>
        <linearGradient id="rainblue" x1="0%" x2="0%" y1="0%" y2="100%">
            <stop offset="0%" style="stop-color:#00f260;stop-opacity:1"/>
            <stop offset="100%" style="stop-color:#0575e6;stop-opacity:1"/>
        </linearGradient>
        <linearGradient id="sunrise" x1="0%" x2="0%" y1="0%" y2="100%">
            <stop offset="0%" style="stop-color:#ff8501;stop-opacity:1"/>
            <stop offset="100%" style="stop-color:#ffcb01;stop-opacity:1"/>
        </linearGradient>
        <linearGradient id="telinkrin" x1="0%" x2="0%" y1="0%" y2="100%">
            <stop offset="0%" style="stop-color:#b2ced6;stop-opacity:1"/>
            <stop offset="100%" style="stop-color:#6da5b7;stop-opacity:1"/>
        </linearGradient>
        <linearGradient id="60spsycho" x1="0%" x2="0%" y1="0%" y2="100%">
            <stop offset="0%" style="stop-color:#df5940;stop-opacity:1"/>
            <stop offset="25%" style="stop-color:#d8d15f;stop-opacity:1"/>
            <stop offset="50%" style="stop-color:#e9882a;stop-opacity:1"/>
            <stop offset="100%" style="stop-color:#279362;stop-opacity:1"/>
        </linearGradient>
        <linearGradient id="90ssummer" x1="0%" x2="0%" y1="0%" y2="100%">
            <stop offset="0%" style="stop-color:#f618c7;stop-opacity:1"/>
            <stop offset="20%" style="stop-color:#94ffab;stop-opacity:1"/>
            <stop offset="50%" style="stop-color:#fbfd54;stop-opacity:1"/>
            <stop offset="100%" style="stop-color:#0f83ae;stop-opacity:1"/>
        </linearGradient>
        <style id="current-color-scheme" type="text/css">
            .ColorScheme-Highlight{color:#5294e2}
        </style>
    </defs>
    <path fill="currentColor" d="M5.727.006c-.253.021-.348.06-.444.182-.102.13-.19.16-.564.195-.284.027-.484.079-.561.146-.146.131-.285.449-.285.656 0 .146.015.153.239.117.132-.021.337-.006.461.035.182.06.209.09.151.16-.041.05-.183.036-.338.036-.312 0-.344.088-.128.34l.14.163.241-.129c.274-.147.467-.112.66-.004.073.042.404.091.736.11.563.031.413.044.55.203.088.103.21.247.209.365-.001.4-.28 1.107-1.108 2.092-.419.499-.502 1.412-.503 1.653 0 .074-.026.149-.058.169-.06.037-.098-.192-.155-.945-.057-.746-.196-1.163-.517-1.494-.189-.195-.364-.311-.539-.358-.307-.082-.325-.144-.076-.248.101-.042.184-.1.184-.129 0-.074-.28-.135-.46-.1-.186.035-.19.002-.024-.175.328-.349-.23-.268-.808.117-.519.346-.836.702-.884.959-.031.162-.128.304-.346.505-.404.372-.495.561-.443.908.076.506.134.547.37.267.147-.176.491-.359.554-.296.061.061-.098.281-.283.39-.234.139-.231.236.008.32.227.079.27.058.398-.197.148-.293.322-.459.567-.538.121-.039.349-.191.507-.338.159-.146.318-.266.355-.266.125 0 .357.292.42.528.034.13.093.647.13 1.149.114 1.549.269 1.768.833 2.995.18.394.328.755.328.803 0 .065-.473.098-.831.129-.849.074-1.205.362-1.267 1.026-.022.24-.001.379.081.535.169.321.27.315.225-.014-.039-.282.064-.461.14-.246.056.159.272.385.368.385.096 0 .097-.008.021-.209-.067-.177-.026-.194.144-.065.164.124.219.064.177-.194-.066-.408.585-.763 1.359-.533.376.111.48.121.646.061.317-.115.767-.087.974.087.208.175.039.633-.106.841-.148.211-.379.3-.958.371-.293.036-.598.107-.677.16a.697.697 0 0 0-.287.524c0 .161.073.151.233-.033.073-.084.188-.152.255-.152.154 0 .154.033.001.227-.11.14-.173.506-.087.506.019 0 .125-.096.236-.214.111-.118.26-.214.332-.214.152 0 .16.047.037.21-.092.122-.126.526-.044.522.025-.001.101-.09.169-.199.115-.183.259-.276.743-.481.107-.045.515-.422.907-.836.699-.74.691-.757.671-1.009l-.021-.256.709-.075c.628-.224.962-.242 1.327-.052.485.251.943.687.877 1.096-.049.302-.215.873-.633.914-.996-.019-2.384.62-2.228 1.548.13.624.938 1.037 1.748 1.222.255.058.596.078 1.024.059 1.073-.045 1.76-.1 2.334-.691.211-.216.482-.732.581-.984l.532.291v-1.4l-1.391.611.73.42c-.086.071-.199.245-.326.377-.565.584-.952.582-1.658.677-.58.078-1.215-.004-1.61-.179-.324-.143-.574-.453-.574-.683 0-.217.258-.415.57-.426.844-.028 1.002-.105 1.002-.105.608-.185 1.184-1.242 1.184-1.907 0-.169.026-.378.059-.464.048-.127.02-.236-.152-.595-.143-.299-.198-.349-.172-.449.03-.122-.027-.213-.322-.511-.319-.323-.35-.475-.283-.583a.624.624 0 0 0 .076-.151c0-.017-.159-.111-.353-.208a3.665 3.665 0 0 1-.501-.3c-.131-.106-.14-.136-.068-.223.045-.055.067-.116.047-.136-.02-.019-.249-.075-.51-.125-.589-.111-.681-.159-.705-.371-.011-.092-.041-.166-.067-.163-.026.003-.319.056-.65.117-.652.119-.8.103-.8-.089 0-.159.001-.16-.407.058-.666.356-1.206.138-1.039-.422.042-.141.156-.372.253-.514.389-.566 1.131-.746 2.494-.809.76-.035 1.102-.069 1.325-.17.352-.159 1.16-.718 1.31-.998.065-.12.138-.218.164-.218.128 0 .293-.261.293-.464 0-.275.125-.255.2.032.073.285.198.145.191-.214-.007-.303.039-.338.175-.134.148.22.196.073.112-.338-.081-.396-.611-1.365-.831-1.643-.069-.088-.62-.176-.714-.195-.129-.027-.299-.134-.484-.442-.139-.231-.319-.446-.419-.499-.158-.082-.203-.081-.444.011-.292.112-.318.158-.167.283.122.101.328.567.328.742 0 .124-.003.125-.128.011-.07-.063-.266-.212-.316-.331-.087-.206-.095-.21-.179-.096a.458.458 0 0 0 .097.647c.204.145.388.465.457.794.024.118.096.3.16.405.238.394.192 1.313-.175 1.487-.128.061-.54.116-1.173.156-1.457.092-2.119.28-2.817.967-.334.328-.356.34-.317.174.064-.268.091-.625.695-1.415.775-1.014.875-1.258.874-1.985-.002-.621-.286-1.329-.944-1.863C6.92.666 6.824.565 6.842.535c.018-.029.144-.053.28-.053.286 0 .292-.095.015-.256-.23-.135-.995-.254-1.41-.22Z" style="color:#ececec"/>
</svg>
