<svg xmlns="http://www.w3.org/2000/svg" width="16" height="16">
    <defs>
        <linearGradient id="arrongin" x1="0%" x2="0%" y1="0%" y2="100%">
            <stop offset="0%" style="stop-color:#dd9b44;stop-opacity:1"/>
            <stop offset="100%" style="stop-color:#ad6c16;stop-opacity:1"/>
        </linearGradient>
        <linearGradient id="aurora" x1="0%" x2="0%" y1="0%" y2="100%">
            <stop offset="0%" style="stop-color:#09d4df;stop-opacity:1"/>
            <stop offset="100%" style="stop-color:#9269f4;stop-opacity:1"/>
        </linearGradient>
        <linearGradient id="cyberneon" x1="0%" x2="0%" y1="0%" y2="100%">
            <stop offset="0" style="stop-color:#0abdc6;stop-opacity:1"/>
            <stop offset="1" style="stop-color:#ea00d9;stop-opacity:1"/>
        </linearGradient>
        <linearGradient id="fitdance" x1="0%" x2="0%" y1="0%" y2="100%">
            <stop offset="0%" style="stop-color:#1ad6ab;stop-opacity:1"/>
            <stop offset="100%" style="stop-color:#329db6;stop-opacity:1"/>
        </linearGradient>
        <linearGradient id="oomox" x1="0%" x2="0%" y1="0%" y2="100%">
            <stop offset="0%" style="stop-color:#efefe7;stop-opacity:1"/>
            <stop offset="100%" style="stop-color:#8f8f8b;stop-opacity:1"/>
        </linearGradient>
        <linearGradient id="rainblue" x1="0%" x2="0%" y1="0%" y2="100%">
            <stop offset="0%" style="stop-color:#00f260;stop-opacity:1"/>
            <stop offset="100%" style="stop-color:#0575e6;stop-opacity:1"/>
        </linearGradient>
        <linearGradient id="sunrise" x1="0%" x2="0%" y1="0%" y2="100%">
            <stop offset="0%" style="stop-color:#ff8501;stop-opacity:1"/>
            <stop offset="100%" style="stop-color:#ffcb01;stop-opacity:1"/>
        </linearGradient>
        <linearGradient id="telinkrin" x1="0%" x2="0%" y1="0%" y2="100%">
            <stop offset="0%" style="stop-color:#b2ced6;stop-opacity:1"/>
            <stop offset="100%" style="stop-color:#6da5b7;stop-opacity:1"/>
        </linearGradient>
        <linearGradient id="60spsycho" x1="0%" x2="0%" y1="0%" y2="100%">
            <stop offset="0%" style="stop-color:#df5940;stop-opacity:1"/>
            <stop offset="25%" style="stop-color:#d8d15f;stop-opacity:1"/>
            <stop offset="50%" style="stop-color:#e9882a;stop-opacity:1"/>
            <stop offset="100%" style="stop-color:#279362;stop-opacity:1"/>
        </linearGradient>
        <linearGradient id="90ssummer" x1="0%" x2="0%" y1="0%" y2="100%">
            <stop offset="0%" style="stop-color:#f618c7;stop-opacity:1"/>
            <stop offset="20%" style="stop-color:#94ffab;stop-opacity:1"/>
            <stop offset="50%" style="stop-color:#fbfd54;stop-opacity:1"/>
            <stop offset="100%" style="stop-color:#0f83ae;stop-opacity:1"/>
        </linearGradient>
        <style id="current-color-scheme" type="text/css">
            .ColorScheme-Highlight{color:#5294e2}
        </style>
    </defs>
    <path fill="currentColor" d="M9.107 2.278a.257.257 0 0 0-.232.244v.028l-.524 8.363-.66-4.703a.257.257 0 0 0-.512-.012l-.494 2.685-.31-.94a.257.257 0 0 0-.5.04l-.476 3.221-.964-6.5a.257.257 0 0 0-.506-.004l-.643 3.738H0v.518h3.5a.257.257 0 0 0 .256-.214l.405-2.375.982 6.625a.257.257 0 0 0 .506 0l.577-3.858.286.87a.257.257 0 0 0 .494-.029l.393-2.13.797 5.654a.257.257 0 0 0 .512-.024v-.048l.423-6.785.101 1.571a.257.257 0 0 0 .506.042l.464-2.036.518 3.696a.257.257 0 0 0 .506.016l.334-1.494.035.292a.257.257 0 0 0 .256.226H16v-.518h-3.923l-.196-1.524a.257.257 0 0 0-.506-.016L11.03 8.44l-.512-3.673a.257.257 0 0 0-.506-.024L9.63 6.41l-.244-3.857v-.029a.257.257 0 0 0-.28-.244z" style="color:#ececec"/>
</svg>
