<svg height="64" viewBox="0 0 16.933 16.933" width="64" xmlns="http://www.w3.org/2000/svg" xmlns:xlink="http://www.w3.org/1999/xlink"><filter id="a" color-interpolation-filters="sRGB" height="1.054" width="1.054" x="-.027" y="-.027"><feGaussianBlur stdDeviation=".61875"/></filter><linearGradient id="b" gradientUnits="userSpaceOnUse" x1="1.19024" x2="15.74214" y1="15.73977" y2="1.18787"><stop offset="0" stop-color="#1964ff"/><stop offset="1" stop-color="#198cff"/></linearGradient><rect fill="#141414" filter="url(#a)" height="55" opacity=".3" ry="15" stroke-linecap="round" stroke-width="2.7444" transform="matrix(.26458 0 0 .26458 -.00006 -.00006)" width="55" x="4.5" y="4.5"/><rect fill="url(#b)" height="14.552" ry="3.9687" stroke-linecap="round" stroke-width=".7261" width="14.552" x="1.1905" y="1.1905"/><rect fill="#a6d3ff" height="4.2333" rx="1.3229" width="11.641" x="2.6458" y="9.7894"/><g fill="#2a5be5" opacity=".15"><rect height="2.6458" rx=".52916" width="2.6458" x="3.4395" y="10.84768"/><rect height="2.6458" rx=".52916" width="2.6458" x="7.1436" y="10.84768"/><rect height="2.6458" rx=".52916" width="2.6458" x="10.848" y="10.84768"/></g><g fill="#f9f9f9"><rect height="2.6458" rx=".52916" width="2.6458" x="3.4395" y="10.583"/><rect height="2.6458" rx=".52916" width="2.6458" x="7.1436" y="10.583"/><rect height="2.6458" rx=".52916" width="2.6458" x="10.848" y="10.583"/></g><g fill="#5e4aa6"><g stroke-width=".26458"><circle cx="-366.705163" cy="-330.491588" r="0"/><circle cx="-75.786221" cy="4.322496" fill-rule="evenodd" r="0"/><circle cx="-366.705163" cy="-330.491588" r="0"/><circle cx="-75.786221" cy="4.322496" fill-rule="evenodd" r="0"/><circle cx="-340.829239" cy="-334.460288" r="0"/><circle cx="-49.904215" cy=".358929" fill-rule="evenodd" r="0"/></g><g stroke-width=".264582"><circle cx="-322.291098" cy="-329.145003" r="0"/><circle cx="-304.050958" cy="-327.014989" r="0"/><circle cx="-297.960918" cy="-333.835044" r="0"/><circle cx="-300.780947" cy="-326.774997" r="0"/><circle cx="-322.291098" cy="-329.145003" r="0"/><circle cx="-304.050958" cy="-327.014989" r="0"/><circle cx="-297.960918" cy="-333.835044" r="0"/><circle cx="-300.780947" cy="-326.774997" r="0"/><circle cx="-322.290948" cy="-329.145053" r="0"/><circle cx="-304.050808" cy="-327.015039" r="0"/><circle cx="-297.960768" cy="-333.835094" r="0"/><circle cx="-300.780797" cy="-326.775047" r="0"/></g></g></svg>