<svg height="64" width="64" xmlns="http://www.w3.org/2000/svg" xmlns:xlink="http://www.w3.org/1999/xlink"><radialGradient id="a" cx="23.335" cy="41.636" gradientTransform="matrix(.95165 0 0 .36555 1.7936 24.507)" gradientUnits="userSpaceOnUse" r="22.627"><stop offset="0"/><stop offset="1" stop-opacity="0"/></radialGradient><linearGradient id="b" gradientTransform="matrix(.73652 0 0 .72048 -52.561 46.853)" gradientUnits="userSpaceOnUse" spreadMethod="reflect" x1="103.95" x2="89.424" xlink:href="#c" y1="-7.6657" y2="-7.6657"/><linearGradient id="c"><stop offset="0" stop-color="#868688"/><stop offset="1" stop-color="#d9d9da"/></linearGradient><linearGradient id="d" gradientTransform="matrix(1.6087 0 0 1.6667 -127.47 -.57685)" gradientUnits="userSpaceOnUse" x1="89.018" x2="89.018" xlink:href="#e" y1="22.537" y2="27.546"/><linearGradient id="e"><stop offset="0" stop-color="#a0a0a0"/><stop offset="1" stop-color="#4a4a4a"/></linearGradient><linearGradient id="f" gradientTransform="matrix(.73652 0 0 .72048 -52.561 37.853)" gradientUnits="userSpaceOnUse" spreadMethod="reflect" x1="103.95" x2="89.424" xlink:href="#c" y1="-7.6657" y2="-7.6657"/><linearGradient id="g" gradientTransform="matrix(1.6087 0 0 1.6667 -127.47 -9.5769)" gradientUnits="userSpaceOnUse" x1="89.018" x2="89.018" xlink:href="#e" y1="22.537" y2="27.546"/><linearGradient id="h" gradientTransform="matrix(.73652 0 0 .72048 -52.561 28.853)" gradientUnits="userSpaceOnUse" spreadMethod="reflect" x1="103.95" x2="89.424" xlink:href="#c" y1="-7.6657" y2="-7.6657"/><linearGradient id="i" gradientTransform="matrix(1.6087 0 0 1.6667 -127.47 -18.577)" gradientUnits="userSpaceOnUse" x1="89.018" x2="89.018" xlink:href="#e" y1="22.537" y2="27.546"/><linearGradient id="j" gradientTransform="matrix(.73698 0 0 .73149 -52.606 21.888)" gradientUnits="userSpaceOnUse" spreadMethod="reflect" x1="102.31" x2="102.31" y1="-2.3925" y2="-24.582"><stop offset="0" stop-color="#a5a6a8"/><stop offset="1" stop-color="#e8e8e8"/></linearGradient><linearGradient id="k" gradientTransform="matrix(.73698 0 0 .73149 -52.606 21.888)" gradientUnits="userSpaceOnUse" x1="109.96" x2="109.96" y1="-24.911" y2="-2.3758"><stop offset="0" stop-color="#b3b3b3"/><stop offset="1" stop-color="#dadada"/></linearGradient><linearGradient id="l" gradientUnits="userSpaceOnUse" x1="21.381" x2="21.381" y1="5.0525" y2="44.137"><stop offset="0" stop-color="#fff"/><stop offset=".081258" stop-color="#fff" stop-opacity=".23529"/><stop offset=".87819" stop-color="#fff" stop-opacity=".15686"/><stop offset="1" stop-color="#fff" stop-opacity=".39216"/></linearGradient><linearGradient id="m" gradientUnits="userSpaceOnUse" x1="167.364" x2="250.757" y1="-145.767" y2="-61.199"><stop offset="0" stop-color="#dfdfdd"/><stop offset=".33425" stop-color="#cbcec9"/><stop offset="1" stop-color="#f4f4f3" stop-opacity="0"/></linearGradient><linearGradient id="n" gradientUnits="userSpaceOnUse" x1="21.11" x2="149.534" y1="-219.586" y2="-219.566"><stop offset="0" stop-color="#e6e6e4"/><stop offset=".17169" stop-color="#b8bbb4"/><stop offset="1" stop-color="#e8e8e6" stop-opacity="0"/></linearGradient><filter id="o" color-interpolation-filters="sRGB" height="1.024" width="1.024" x="-.01198" y="-.01202"><feGaussianBlur stdDeviation=".29280524"/></filter><linearGradient id="p" gradientUnits="userSpaceOnUse" x1="122.049" x2="176.763" y1="-156.867" y2="-164.517"><stop offset="0" stop-color="#b7bab4"/><stop offset=".50125" stop-color="#e9e9e8"/><stop offset="1" stop-color="#f5f5f5"/></linearGradient><linearGradient id="q" gradientUnits="userSpaceOnUse" x1="172.713" x2="243.187" y1="-140.057" y2="-66.69"><stop offset="0" stop-color="#717370"/><stop offset="1" stop-color="#717370" stop-opacity="0"/></linearGradient><linearGradient id="r" gradientUnits="userSpaceOnUse" x1="35.644" x2="149.534" y1="-218.316" y2="-219.566"><stop offset="0" stop-color="#cbcec9"/><stop offset="1" stop-color="#cbcec9" stop-opacity="0"/></linearGradient><linearGradient id="s" gradientUnits="userSpaceOnUse" x1="40.7518668" x2="59.237197" y1="27.336602" y2="46.5807661"><stop offset="0" stop-color="#414341"/><stop offset="1" stop-color="#717370" stop-opacity="0"/></linearGradient><filter id="t" color-interpolation-filters="sRGB" height="1.1193" width="1.1207" x="-.060333" y="-.059671"><feGaussianBlur stdDeviation="1.372706"/></filter><filter id="u" color-interpolation-filters="sRGB" height="1.054" width="1.054" x="-.027" y="-.027"><feGaussianBlur stdDeviation=".61875"/></filter><linearGradient id="v" gradientUnits="userSpaceOnUse" x1="4.5" x2="59.5" y1="59.49" y2="4.49"><stop offset="0" stop-color="#dee0e2"/><stop offset="1" stop-color="#f1f3f5" stop-opacity=".99608"/></linearGradient><rect fill="#141414" filter="url(#u)" height="55" opacity=".3" ry="15" stroke-linecap="round" stroke-width="2.7444" width="55" x="4.5" y="4.5"/><rect fill="url(#v)" height="55" ry="15" stroke-linecap="round" stroke-width="2.7444" width="55" x="4.5" y="4.5"/><g transform="matrix(.83591 0 0 .83591 11.938 10.266)"><path d="m45.533 39.727c.001822 4.5687-9.6396 8.2727-21.533 8.2727s-21.535-3.704-21.533-8.2727c-.001822-4.5687 9.6396-8.2727 21.533-8.2727s21.535 3.704 21.533 8.2727z" fill="url(#a)" fill-rule="evenodd" opacity=".3"/><path d="m42.484 37.113c0 4.0777-8.2827 7.3871-18.488 7.3871-10.206 0-18.488-3.3094-18.488-7.3871 0-11.816-2.2598-7.2333 18.488-7.3871 21.223-.15867 18.488-5.446 18.488 7.3871z" fill="url(#b)" stroke="url(#d)"/><path d="m42.5 30c0 4.1421-8.2827 7.5-18.5 7.5-10.217 0-18.5-3.3579-18.5-7.5s8.2827-7.5 18.5-7.5c10.217 0 18.5 3.3579 18.5 7.5z" fill="#868688" stroke="#d8d8d8"/><path d="m42.484 28.113c0 4.0777-8.2827 7.3871-18.488 7.3871-10.206 0-18.488-3.3094-18.488-7.3871 0-13.071-2.2598-7.2333 18.488-7.3871 21.223-.15867 18.488-5.6907 18.488 7.3871z" fill="url(#f)" stroke="url(#g)"/><path d="m42.5 21c0 4.1421-8.2827 7.5-18.5 7.5-10.217 0-18.5-3.3579-18.5-7.5s8.2827-7.5 18.5-7.5c10.217 0 18.5 3.3579 18.5 7.5z" fill="#868688" stroke="#d8d8d8"/><path d="m42.484 19.113c0 4.0777-8.2827 7.3871-18.488 7.3871-10.206 0-18.488-3.3094-18.488-7.3871 0-13.951-2.2598-7.2333 18.488-7.3871 21.223-.15867 18.488-5.541 18.488 7.3871z" fill="url(#h)" stroke="url(#i)"/><path d="m42.5 12c0 4.1421-8.2827 7.5-18.5 7.5-10.217 0-18.5-3.3579-18.5-7.5s8.2827-7.5 18.5-7.5c10.217 0 18.5 3.3579 18.5 7.5z" fill="url(#j)" stroke="url(#k)"/><rect fill="none" height="38" opacity=".5" rx="17.5" ry="7" stroke="url(#l)" width="35" x="6.5" y="5.5"/></g><path d="m35.583 13.615 3.5645 6.1816c.35134.60954.25424 1.3517-.18945 1.8477a6.2373 7.6955 60.041 0 1 -2.666 2.3164 6.2373 7.6955 60.041 0 1 -3.3105 1.1387c-.000787.000191-.0029-.000263-.0039 0-.06126.01385-.12188.02289-.18359.0293a6.2373 7.6955 60.041 0 1 -.0039.002h-.002c-.6012.06074-1.207-.22789-1.5293-.78711l-3.5645-6.1816a7.6955 7.6955 0 0 0 .37109 6.9355 7.6955 7.6955 0 0 0 7.3477 3.8125c1.4665.4975 2.8804 1.2176 4.1445 2.457l17.18 17.154 10.168 10.152 10.166 10.152 4.5762-4.582-20.336-20.305-17.178-17.154c-1.0311-1.0569-1.5653-2.1249-2.0938-3.1484a7.6955 7.6955 0 0 0 -.64063-6.2246 7.6955 7.6955 0 0 0 -5.8164-3.7969z" fill="url(#s)" filter="url(#t)" opacity=".35"/><g transform="matrix(.2623 0 0 .2623 -3.2083 62.251)"><path d="m175.74-157.7c2.8135 4.8419 4.746 10.295 9.8649 15.542l143.02 142.81-17.443 17.468-143.02-142.81c-4.983-4.8855-10.575-7.6689-16.369-9.5707 7.9824-7.813 15.965-15.626 23.947-23.439z" fill="url(#q)"/><path d="m177.74-157.7c2.8135 4.8419 4.746 10.295 9.8649 15.542l143.02 142.81-17.443 17.468-143.02-142.81c-4.983-4.8855-10.575-7.6689-16.369-9.5707 7.9824-7.813 15.965-15.626 23.947-23.439z" fill="url(#m)"/><rect fill="url(#n)" height="12.272" ry=".86457" stroke="url(#r)" stroke-linecap="round" stroke-linejoin="round" transform="matrix(.7076126 .70660061 -.70660061 .7076126 0 0)" width="228.19" x="13.981" y="-226.57"/><path d="m153.01-192.37 13.587 23.572c1.3395 2.3239.96714 5.1476-.72442 7.0386a23.78 29.339 60.041 0 1 -10.162 8.8329 23.78 29.339 60.041 0 1 -12.622 4.3422c-.003.00073-.006.002-.01.003-.23353.0528-.46952.0865-.70479.11092a23.78 29.339 60.041 0 1 -.0165.003l-.001-.002c-2.2921.23155-4.6064-.86177-5.8353-2.9938l-13.586-23.57a29.339 29.339 0 0 0 1.4098 26.44 29.339 29.339 0 0 0 40.07 10.769 29.339 29.339 0 0 0 10.768-40.071 29.339 29.339 0 0 0 -22.173-14.474z" fill="#878785" filter="url(#o)"/><path d="m152.94-194.33 13.587 23.572c1.3395 2.3239.96714 5.1476-.72442 7.0386a23.78 29.339 60.041 0 1 -10.162 8.8329 23.78 29.339 60.041 0 1 -12.622 4.3422c-.003.00073-.006.002-.009.003-.23354.0528-.46953.0865-.7048.11092a23.78 29.339 60.041 0 1 -.0165.003l-.001-.002c-2.2921.23155-4.6064-.86177-5.8353-2.9938l-13.586-23.57a29.339 29.339 0 0 0 1.4098 26.44 29.339 29.339 0 0 0 40.07 10.769 29.339 29.339 0 0 0 10.768-40.071 29.339 29.339 0 0 0 -22.173-14.474z" fill="url(#p)" stroke="#e6e6e4" stroke-linecap="round" stroke-linejoin="round"/></g><g fill="#5e4aa6"><circle cx="-1459.73764" cy="-1264.626" r="0"/><circle cx="-1351.33764" cy="-1324.826" r="0"/><circle cx="-1189.98765" cy="-1339.326" r="0"/><circle cx="-90.51764" cy="-73.831" fill-rule="evenodd" r="0"/><circle cx="-1183.48765" cy="-1348.326" r="0"/><circle cx="-83.99764" cy="-82.842002" fill-rule="evenodd" r="0"/><circle cx="-1382.85664" cy="-1241.6" r="0"/><circle cx="-283.30663" cy="23.855" fill-rule="evenodd" r="0"/></g></svg>