<svg height="64" width="64" xmlns="http://www.w3.org/2000/svg" xmlns:xlink="http://www.w3.org/1999/xlink"><linearGradient id="a" gradientUnits="userSpaceOnUse" x1="29.878553" x2="29.878553" y1="62.09482" y2="2.09362"><stop offset="0" stop-color="#3889e9"/><stop offset="1" stop-color="#5ea5fb"/></linearGradient><filter id="b" color-interpolation-filters="sRGB" height="1.054" width="1.054" x="-.027" y="-.027"><feGaussianBlur stdDeviation=".61875"/></filter><linearGradient id="c" gradientUnits="userSpaceOnUse" x1="4.5" x2="59.5" y1="59.490002" y2="4.490002"><stop offset="0" stop-color="#32d7ff"/><stop offset="1" stop-color="#329bff"/></linearGradient><circle cx="32.02" cy="32.044" fill="url(#a)" r="0" stroke-width="1.5715"/><g image-rendering="optimizeSpeed"><circle cx="-1124.8" cy="-1279.3" fill="#5e4aa6" r="0"/><g fill="#5e4aa6" stroke-width="1.000007"><circle cx="-1006.345954" cy="-1318.599054" r="0"/><circle cx="93.191806" cy="-53.108507" fill-rule="evenodd" r="0"/><circle cx="-927.8437" cy="-1390.109124" r="0"/><circle cx="171.691075" cy="-124.581873" fill-rule="evenodd" r="0"/></g><g stroke-linecap="round" stroke-width="2.74436"><rect fill="#141414" filter="url(#b)" height="55" opacity=".3" ry="15" width="55" x="4.5" y="4.5"/><rect fill="url(#c)" height="54.999996" ry="14.999999" width="54.999996" x="4.500002" y="4.500002"/></g></g><g transform="matrix(2.250225 0 0 2.250225 -40.008323 -40.008999)"><path d="m24.502396 23.668091h14.996207c1.382701 0 2.500896 1.121278 2.500896 2.500896v11.663624c0 1.385867-1.118195 2.500895-2.500896 2.500895h-14.996207a2.4977289 2.4977289 0 0 1 -2.500895-2.500895v-11.663624c0-1.379618 1.121278-2.500896 2.500895-2.500896" fill="#fff" fill-opacity=".987" opacity=".3" stroke-width="3.14974"/><path d="m7.673 8.864a.397.397 0 1 1 -.794 0 .397.397 0 0 1 .794 0m1.058 0a.397.397 0 1 1 -.794 0 .397.397 0 0 1 .794 0m1.059 0a.397.397 0 1 1 -.794 0 .397.397 0 0 1 .794 0" opacity=".1" transform="scale(3.7796)"/><g stroke-width="3.7796"><path d="m25.002 30.002h14c.55182 0 .99782.44599.99782.99782v3.001a1.0016 1.0016 0 0 1 -.99782.99782h-14a1.0016 1.0016 0 0 1 -1.0016-.99782v-3.001c0-.55182.44977-.99782 1.0016-.99782" fill="#f9f9f9"/><path d="m27.999 32.501a1.5005 1.5005 0 1 1 -3.001 0 1.5005 1.5005 0 0 1 3.001 0m4.0026 0a1.5005 1.5005 0 1 1 -3.001 0 1.5005 1.5005 0 0 1 3.001 0m3.9988 0a1.5005 1.5005 0 1 1 -3.001 0 1.5005 1.5005 0 0 1 3.001 0" fill="#2d2d2d"/><path d="m24.242 27.001h7.5214c.13229 0 .24189.10583.24189.23812v.51781a.24189.24189 0 0 1 -.24189.24189h-7.5214a.24189.24189 0 0 1 -.2419-.24189v-.51781c0-.13229.10961-.23812.2419-.23812" fill="#f9f9f9"/></g></g></svg>