<svg height="64" viewBox="0 0 64 64" width="64" xmlns="http://www.w3.org/2000/svg" xmlns:xlink="http://www.w3.org/1999/xlink"><filter id="a" color-interpolation-filters="sRGB" height="1.054" width="1.054" x="-.027" y="-.027"><feGaussianBlur stdDeviation=".61875"/></filter><linearGradient id="b" gradientUnits="userSpaceOnUse" x1="4.5" x2="59.5" y1="59.49" y2="4.49"><stop offset="0" stop-color="#32d7ff"/><stop offset="1" stop-color="#329bff"/></linearGradient><circle cx="-1124.8" cy="-1279.3" fill="#5e4aa6" r="0"/><g fill="#5e4aa6" stroke-width="1.000007"><circle cx="-1006.345954" cy="-1318.599054" r="0"/><circle cx="93.191806" cy="-53.108507" fill-rule="evenodd" r="0"/><circle cx="-927.8437" cy="-1390.109124" r="0"/><circle cx="171.691075" cy="-124.581873" fill-rule="evenodd" r="0"/></g><rect fill="#141414" filter="url(#a)" height="55" opacity=".3" ry="15" stroke-linecap="round" stroke-width="2.7444" width="55" x="4.5" y="4.5"/><rect fill="url(#b)" height="55" ry="15" stroke-linecap="round" stroke-width="2.7444" width="55" x="4.5" y="4.5"/><g stroke-width="1.34615" transform="matrix(1.1428572 0 0 1.1428572 -4.571426 -4.57143)"><path d="m31.999997 14.496029c-1.208846 0-2.1875.978654-2.1875 2.1875v2.1875c0 1.208846.978654 2.1875 2.1875 2.1875 1.204807 0 2.1875-.978654 2.1875-2.1875v-2.1875c0-1.208846-.982693-2.1875-2.1875-2.1875zm-15.3125 15.3125c-1.208846 0-2.1875.978654-2.1875 2.1875s.978654 2.1875 2.1875 2.1875h2.1875c1.204808 0 2.1875-.978654 2.1875-2.1875s-.982692-2.1875-2.1875-2.1875zm28.437499 0c-1.208846 0-2.1875.978654-2.1875 2.1875s.978654 2.1875 2.1875 2.1875h2.1875c1.204808 0 2.1875-.978654 2.1875-2.1875s-.982692-2.1875-2.1875-2.1875zm-13.124999 13.132942c-1.208846 0-2.1875.978654-2.1875 2.1875v2.1875c0 1.208846.978654 2.1875 2.1875 2.1875 1.204807 0 2.1875-.978654 2.1875-2.1875v-2.1875c0-1.208846-.982693-2.1875-2.1875-2.1875z" fill="#98d8ff"/><path d="m31.999997 18.534491a13.461538 13.461538 0 0 0 -13.461538 13.461538 13.461538 13.461538 0 0 0 13.461538 13.461538 13.461538 13.461538 0 0 0 13.461538-13.461538 13.461538 13.461538 0 0 0 -13.461538-13.461538zm0 2.692307a10.76923 10.76923 0 0 1 10.76923 10.769231 10.76923 10.76923 0 0 1 -10.76923 10.76923 10.76923 10.76923 0 0 1 -10.769231-10.76923 10.76923 10.76923 0 0 1 10.769231-10.769231zm0 6.730769a4.0384614 4.0384614 0 0 0 -4.038462 4.038462 4.0384614 4.0384614 0 0 0 4.038462 4.038461 4.0384614 4.0384614 0 0 0 4.038461-4.038461 4.0384614 4.0384614 0 0 0 -4.038461-4.038462z" fill="#fff"/><path d="m31.999997 23.919106a8.0769228 8.0769228 0 0 0 -8.076923 8.076923 8.0769228 8.0769228 0 0 0 8.076923 8.076923 8.0769228 8.0769228 0 0 0 8.076923-8.076923 8.0769228 8.0769228 0 0 0 -8.076923-8.076923zm0 1.346154a6.730769 6.730769 0 0 1 6.730769 6.730769 6.730769 6.730769 0 0 1 -6.730769 6.730769 6.730769 6.730769 0 0 1 -6.730769-6.730769 6.730769 6.730769 0 0 1 6.730769-6.730769z" fill="#bae4ff"/></g></svg>