<svg height="64" viewBox="0 0 64 64" width="64" xmlns="http://www.w3.org/2000/svg" xmlns:xlink="http://www.w3.org/1999/xlink"><filter id="a" color-interpolation-filters="sRGB" height="1.054" width="1.054" x="-.027" y="-.027"><feGaussianBlur stdDeviation=".61875"/></filter><linearGradient id="b" gradientUnits="userSpaceOnUse" x1="4.50001" x2="59.50001" y1="59.490002" y2="4.490002"><stop offset="0" stop-color="#dee0e2"/><stop offset="1" stop-color="#f1f3f5" stop-opacity=".996078"/></linearGradient><rect fill="#141414" filter="url(#a)" height="55" opacity=".3" ry="15" stroke-linecap="round" stroke-width="2.74436" width="55" x="4.5" y="4.5"/><rect fill="url(#b)" height="54.999996" ry="14.999999" stroke-linecap="round" stroke-width="2.74436" width="54.999996" x="4.500002" y="4.500002"/><g transform="matrix(1.1111533 0 0 1.1111533 88.840505 5.887729)"><path d="m-61.800744 34.845c.414 1.5525 1.9999 2.4702 3.5469 2.0547l1.832-.49024c.45796-.12331.85228-.35905 1.1816-.6582 1.102.13034 2.451.24804 4.0859.24804 1.7851 0 3.4734-.1908 4.8281-.39258.35883.37101.81474.66014 1.3555.80273l1.8555.49024c1.5634.41548 3.1743-.50218 3.5938-2.0547l1.2656-4.6973c.41946-1.5485-.50681-3.1431-2.0742-3.5586l-.26367-.07031.37305-1.5c.27969-1.1275-.34047-2.2859-1.3848-2.5879l-.42383-.12305c-.000859-.56828-.03801-1.1303-.14844-1.668.059-.148.11697-.29322.16797-.44922 1.293-3.84-.26638-7.8398-3.4844-8.9258z" opacity=".1"/><g fill="#2e3436"><path d="m-41.328744 25.589-1.8562-.48974c-1.5634-.41548-3.1824.5058-3.6019 2.0543l-1.2705 4.6967c-.4073 1.5485.51065 3.1442 2.0862 3.5596l1.8562.48974c1.5634.41548 3.1743-.50178 3.5938-2.0543l1.2665-4.6967c.41946-1.5485-.5066-3.1442-2.074-3.5596"/><path d="m-42.603744 21.431-1.2381-.35864c-1.0443-.30196-2.1144.36998-2.3941 1.4933l-.85052 3.4143c-.27969 1.1275.34269 2.2869 1.387 2.5888l1.2343.35864c1.0443.30196 2.1182-.36586 2.3979-1.4933l.8467-3.4143c.27969-1.1275-.33887-2.2869-1.3832-2.5888"/><path d="m-58.633744 20.431 1.297-.35864c1.094-.30196 2.219.36998 2.512 1.4933l.887 3.4143c.293 1.1275-.355 2.2869-1.449 2.5888l-1.297.35864c-1.094.30196-2.219-.36586-2.512-1.4933l-.887-3.4143c-.293-1.1275.352-2.2869 1.449-2.5888"/></g><path d="m-47.723744 10.02c-2.871-.246-5.805 1.875-6.938 5.234-.16.473-.281.957-.359 1.43v.016c-.754.852-1.375 1.867-1.77 3.043-1.414 4.191.426 8.594 4.098 9.832s7.785-1.148 9.195-5.34c.527-1.559.617-3.148.32-4.594.059-.148.117-.293.168-.449 1.293-3.84-.266-7.84-3.484-8.926-.402-.137-.82-.211-1.23-.246" fill="#121919"/><path d="m-49.641744 12.036c-.961.023-1.9098.55755-2.3008 1.6826-.336.977-.16772 1.9731.36328 2.6211-1.1815.3979-2.2789 1.2107-3.1211 2.3281.07005.36102.15399.73691.26172 1.1055.383 1.328.64078 3.4415-.44922 2.3555-.40281-.40281-.73294-.84067-.96289-1.291-1.198 3.4855.1838 7.119 3.0879 8.125 2.91 1.012 6.2499-1.0002 7.4609-4.4922.08624-.24918.14682-.50037.20703-.75-.6741.45796-1.3321.97116-2.2769 1.1293-1.976.332-.15654-1.5542 1.3047-2.8359.44716-.39224.91366-1.014.91366-1.014-.21021-1.1884-.53907-2.5941-1.293-3.4043 1.078.211 1.905-.25428 2.171-1.1133.289-.938-.24106-1.9768-1.4171-2.3438-.699-.215-1.3952-.14261-1.9102.15039.051-1.074-.46891-1.8373-1.3789-2.1533-.219-.078-.43425-.10466-.65625-.09766zm1.3398 4.0986c.035.09.078.17562.125.26562-.066-.027-.13703-.05894-.20703-.08594-.023-.008-.04731-.02034-.07031-.02734.051-.051.10534-.09753.15234-.14453z" fill="#ececec"/><path d="m-48.258744 15.32c-.059.301-.227.563-.438.676-.211.117-.434.066-.578-.129-.141-.195-.184-.5-.105-.801.102-.449.434-.758.742-.688.313.07.48.488.379.941" fill="#2e3436"/><path d="m-46.786744 15.766c-.059.305-.227.563-.438.68-.211.113-.434.066-.574-.129-.145-.195-.184-.5-.105-.801.098-.449.43-.758.742-.691.309.07.477.492.375.941" fill="#2e3436"/><path d="m-50.809744 16.418s1.539-.32 2.438.063c.895.387 1.473 1.348 1.473 1.348s-1.539 2.211-2.883 1.555c-1.344-.66-1.023-2.965-1.023-2.965m-.004 0" fill="#ffb30a"/><path d="m-62.007744 25.589 1.832-.48974c1.543-.41548 3.133.5058 3.547 2.0543l1.254 4.6967c.414 1.5485-.504 3.1442-2.047 3.5596l-1.832.48974c-1.547.41548-3.133-.50178-3.547-2.0543l-1.254-4.6967c-.414-1.5485.504-3.1442 2.047-3.5596" fill="#2e3436"/><path d="m-54.153744 28.5c0 1.9312-1.5656 3.5-3.502 3.5-1.9314 0-3.498-1.5688-3.498-3.5 0-1.9348 1.5656-3.5 3.498-3.5 1.9353 0 3.502 1.5652 3.502 3.5" fill="#ffb30a"/><path d="m-51.153744 20a4 4 0 0 0 -4 4 4 4 0 0 0 4 4 4 4 0 0 0 4-4 4 4 0 0 0 -4-4zm0 1a3 3.0657 0 0 1 3 3.0664 3 3.0657 0 0 1 -3 3.0645 3 3.0657 0 0 1 -3-3.0645 3 3.0657 0 0 1 3-3.0664zm0 1a2 2 0 0 0 -2 2 2 2 0 0 0 2 2 2 2 0 0 0 2-2 2 2 0 0 0 -2-2z" fill="#2e3436"/><path d="m-43.153744 28.5c0 1.9348-1.5656 3.5-3.498 3.5-1.9314 0-3.502-1.5652-3.502-3.5 0-1.9312 1.5695-3.5 3.502-3.5 1.9314 0 3.498 1.5688 3.498 3.5" fill="#ffb30a"/><path d="m-44.655744 22.98-2.498.01953-.78516 1.375-.9668-.96484s-.60041-.41016-2.4746-.41016c-1.6299 0-3.0098.26758-3.0098.26758l-1.1465 1.0801-.61719-1.3477h-2.0469c-.74747 0-.95312.20848-.95312 1h2.25c.47223 0 .91362.48195 1.0156.62695-1.336 1.078-3.2656 3.3182-3.2656 4.7402 0 2.045.39453 4.9922.39453 4.9922s2.6955.64062 6.6055.64062 7.5625-.89062 7.5625-.89062.4375-2.1097.4375-3.3047c0-2.805-1.5036-4.6097-3.4219-6.1484.09-.145.34025-.65625 1.0312-.65625h2.3906s-.000953-.99953-.50195-1.0195z" fill="#e25136"/><rect fill="#693d36" height="6" ry="2.5" width="11" x="-57.153744" y="28"/></g></svg>