<svg height="64" viewBox="0 0 64 64" width="64" xmlns="http://www.w3.org/2000/svg" xmlns:xlink="http://www.w3.org/1999/xlink"><linearGradient id="a" gradientUnits="userSpaceOnUse" x1="29.878574" x2="29.878574" y1="62.094799" y2="2.093599"><stop offset="0" stop-color="#3889e9"/><stop offset="1" stop-color="#5ea5fb"/></linearGradient><filter id="b" color-interpolation-filters="sRGB" height="1.054" width="1.054" x="-.027" y="-.027"><feGaussianBlur stdDeviation=".16371"/></filter><linearGradient id="c" gradientUnits="userSpaceOnUse" x1="35" x2="35" y1="9.127918" y2="55.037815"><stop offset="0" stop-color="#1ba0f1"/><stop offset="1" stop-color="#179ff1"/></linearGradient><filter id="d" color-interpolation-filters="sRGB" height="1.026181" width="1.022154" x="-.011077" y="-.013091"><feGaussianBlur stdDeviation=".1199987"/></filter><circle cx="32.02" cy="32.043999" fill="url(#a)" r="0" stroke-width="1.5715"/><rect filter="url(#b)" height="14.552" opacity=".3" ry="3.4395" stroke-opacity=".95294" stroke-width=".083153" transform="scale(3.779602)" width="14.552" x="1.1905" y="1.1905"/><rect fill="url(#c)" height="55" ry="13" stroke-linecap="round" stroke-width="1.375" width="55" x="4.5" y="4.500001"/><g fill="#0a1496" filter="url(#d)" transform="matrix(1.1111372 0 0 1.1111372 4.158053 4.09456)"><path d="m27.29 13.258c-2.348.875-3.832 3.129-3.664 5.594l.055.953-.938-.117c-3.418-.445-6.406-1.961-8.941-4.504l-1.242-1.266-.316.934c-.68 2.078-.246 4.273 1.164 5.75.75.813.582.93-.715.445-.449-.156-.848-.273-.883-.215-.133.137.316 1.906.676 2.602.488.973 1.484 1.926 2.574 2.488l.918.445-1.086.02c-1.055 0-1.09.02-.98.426.379 1.266 1.863 2.605 3.523 3.188l1.164.41-1.023.617c-1.5.895-3.266 1.398-5.03 1.438-.848.02-1.543.098-1.543.156 0 .195 2.293 1.281 3.625 1.707 4 1.266 8.754.719 12.324-1.434 2.535-1.535 5.074-4.586 6.258-7.535.637-1.574 1.277-4.449 1.277-5.828 0-.891.055-1.01 1.109-2.078.617-.621 1.199-1.301 1.313-1.492.188-.371.168-.371-.789-.039-1.598.578-1.824.504-1.031-.371.582-.621 1.273-1.746 1.273-2.078 0-.059-.281.039-.598.215-.34.191-1.09.484-1.652.66l-1.016.328-.922-.641c-.516-.348-1.227-.738-1.605-.855-.957-.27-2.422-.23-3.285.078m0 0" fill="#0a1496" opacity=".1" transform="translate(1 1)"/></g><path d="m27.29 13.258c-2.348.875-3.832 3.129-3.664 5.594l.055.953-.938-.117c-3.418-.445-6.406-1.961-8.941-4.504l-1.242-1.266-.316.934c-.68 2.078-.246 4.273 1.164 5.75.75.813.582.93-.715.445-.449-.156-.848-.273-.883-.215-.133.137.316 1.906.676 2.602.488.973 1.484 1.926 2.574 2.488l.918.445-1.086.02c-1.055 0-1.09.02-.98.426.379 1.266 1.863 2.605 3.523 3.188l1.164.41-1.023.617c-1.5.895-3.266 1.398-5.03 1.438-.848.02-1.543.098-1.543.156 0 .195 2.293 1.281 3.625 1.707 4 1.266 8.754.719 12.324-1.434 2.535-1.535 5.074-4.586 6.258-7.535.637-1.574 1.277-4.449 1.277-5.828 0-.891.055-1.01 1.109-2.078.617-.621 1.199-1.301 1.313-1.492.188-.371.168-.371-.789-.039-1.598.578-1.824.504-1.031-.371.582-.621 1.273-1.746 1.273-2.078 0-.059-.281.039-.598.215-.34.191-1.09.484-1.652.66l-1.016.328-.922-.641c-.516-.348-1.227-.738-1.605-.855-.957-.27-2.422-.23-3.285.078m0 0" fill="#f1f5f8" transform="matrix(1.1111372 0 0 1.1111372 4.774157 4.775967)"/></svg>