<svg height="64" viewBox="0 0 16.933 16.933" width="64" xmlns="http://www.w3.org/2000/svg" xmlns:xlink="http://www.w3.org/1999/xlink"><filter id="a" color-interpolation-filters="sRGB" height="1.054" width="1.054" x="-.027" y="-.027"><feGaussianBlur stdDeviation=".61875"/></filter><linearGradient id="b" gradientUnits="userSpaceOnUse" x1="19.09634" x2="33.64824" y1="24.4558" y2="9.9039"><stop offset="0" stop-color="#323741"/><stop offset="1" stop-color="#465064"/></linearGradient><g fill="#5e4aa6" stroke-width=".26458"><circle cx="-330.38" cy="-328.37" r="0"/><circle cx="-312.55" cy="-328.38" r="0"/><circle cx="-295.13" cy="-341.25" r="0"/></g><g transform="translate(-17.906 -8.7159)"><rect fill="#141414" filter="url(#a)" height="55" opacity=".3" ry="15" stroke-linecap="round" stroke-width="2.7444" transform="matrix(.26458 0 0 .26458 17.906 8.7159)" width="55" x="4.5" y="4.5"/><rect fill="url(#b)" height="14.552" ry="3.9687" stroke-linecap="round" stroke-width=".7261" width="14.552" x="19.097" y="9.9065"/><path d="m23.066 9.9065c-.6413 0-1.2441.1543-1.7792.42219v4.61l1.0583-1.0588 1.0578 1.0578v-5.0311z" fill="#28aafa" stroke-width=".26458"/><path d="m26.373 14.536c-.76934.008-1.5442.19563-2.2143.60074-.2671.18558-.58777.42515-.8294.66662-.38024.39717-.70538.86006-.92501 1.3785.60272 1.4182 1.9271 2.4587 3.3847 2.6122.95617.11545 1.9577-.06117 2.7983-.56584.26709-.18558.58777-.42515.8294-.66662.38027-.39717.70538-.86138.92501-1.3798-.60275-1.4182-1.9271-2.4575-3.3847-2.6109-.19342-.02408-.38923-.03488-.58393-.03488zm.0013 1.3229c.70766-.01568 1.335.61763 1.3216 1.3216.02267.77804-.75297 1.4501-1.5193 1.3048-.77397-.09088-1.3178-.95944-1.0632-1.695.16256-.54147.69393-.93814 1.2609-.93146zm-.0013.66146a.66146.66146 0 0 0 -.66146.66146.66146.66146 0 0 0 .66146.66146.66146.66146 0 0 0 .66146-.66146.66146.66146 0 0 0 -.66146-.66017z" fill="#fff" fill-rule="evenodd" stroke-width=".66146"/></g></svg>