<svg xmlns="http://www.w3.org/2000/svg" width="22" height="22"><defs><style id="current-color-scheme" type="text/css"></style></defs><path style="fill:currentColor;color:#323a41" d="M91.877 891.36a6.992 6.992 0 0 0-3.883 1.277 6.972 6.972 0 0 0-1.715 9.727 6.97 6.97 0 0 0 9.725 1.715 6.97 6.97 0 0 0 2.89-6.854 6.837 6.837 0 0 0-.527-1.7l-6.351 7.257-.688.812-.781-.75-3-3c-.376-.376-.376-1.06 0-1.437.376-.376 1.061-.376 1.437 0l2.25 2.25 6.024-6.893a6.942 6.942 0 0 0-5.381-2.404z" transform="translate(-81 -887.36)"/></svg>