<svg xmlns="http://www.w3.org/2000/svg" width="22" height="22"><defs><style id="current-color-scheme" type="text/css"></style></defs><path style="fill:currentColor;color:#323a41" d="M5.285 3A2.28 2.28 0 0 0 3 5.285v11.43A2.28 2.28 0 0 0 5.285 19h11.43A2.28 2.28 0 0 0 19 16.715V5.285A2.28 2.28 0 0 0 16.715 3zm2.217 2c.781 0 1.391.223 1.834.666.443.443.664 1.053.664 1.834 0 .779-.221 1.39-.664 1.834-.443.443-1.053.666-1.834.666-.78 0-1.393-.223-1.838-.666C5.221 8.891 5 8.279 5 7.5c0-.781.221-1.39.664-1.834C6.11 5.223 6.723 5 7.502 5zm0 .9c-.382 0-.678.14-.889.42-.21.28-.318.672-.318 1.18 0 .506.108.9.318 1.18.21.28.507.42.889.42.384 0 .68-.14.89-.42.211-.28.317-.674.317-1.18 0-.508-.106-.9-.316-1.18-.21-.28-.507-.42-.891-.42zM13 12h1.88c.676 0 1.164.104 1.466.314.304.21.455.546.455 1.008 0 .243-.055.453-.166.625a.98.98 0 0 1-.483.377c.27.08.48.23.627.446.148.216.221.482.221.796 0 .483-.158.844-.475 1.08-.316.238-.799.354-1.445.354H13zm1.254.877v1.059h.691c.198 0 .347-.046.45-.135.102-.089.154-.22.154-.395 0-.172-.052-.304-.154-.392-.103-.092-.252-.137-.45-.137zm-.002 1.937v1.31h.734c.252 0 .443-.056.569-.165.128-.11.191-.276.191-.496 0-.217-.061-.38-.187-.486-.127-.11-.32-.163-.573-.163z"/></svg>