<svg xmlns="http://www.w3.org/2000/svg" width="22" height="22"><defs><style id="current-color-scheme" type="text/css"></style></defs><path style="fill:currentColor;color:#323a41" d="M11.852 3a2.81 2.81 0 0 0-1.592.459c-.468.307-.84.757-1.053 1.275a2.818 2.818 0 0 0-.145 1.65c.119.548.405 1.058.813 1.442a2.093 2.093 0 0 1 .07-2.27c.228-.327.552-.587.922-.738 1.223-.417 2.156.104 2.57 1.182h5.415l-4.5-1.334a2.817 2.817 0 0 0-1.008-1.197A2.81 2.81 0 0 0 11.852 3zM4 4a3.66 3.66 0 0 0-1 2.531 3.664 3.664 0 0 0 1.07 2.543c.104.103.225.183.34.272l-.91-.282c-.173.67-.12 1.397.148 2.034.27.635.753 1.174 1.352 1.51.457.255.978.392 1.5.392s1.043-.137 1.5-.393c-.42.039-.85-.031-1.236-.203a2.538 2.538 0 0 1-.989-.779 2.59 2.59 0 0 1-.517-1.36L10 11.09 5.682 9.744a2.272 2.272 0 0 1-.432-.353 2.352 2.352 0 0 1-.617-1.41A2.376 2.376 0 0 1 5 6.53l5.5 3.04L4 4zm9.004 3.172c-.278.328-.46.736-.518 1.162-.054.402-.003.813.104 1.205.106.39.266.768.422 1.143.155.375.31.75.412 1.144.1.393.145.807.078 1.207-.113.67-.54 1.266-1.098 1.655-.556.388-1.234.578-1.912.623A4.925 4.925 0 0 1 8 14.813l.02 3.988.996-1.985a5.061 5.061 0 0 0 3.968-.507 4.354 4.354 0 0 0 1.479-1.43 3.48 3.48 0 0 0 .533-1.975c-.047-.985-.549-1.881-1.03-2.742-.48-.86-.963-1.773-.97-2.76 0-.076.003-.154.008-.23z"/></svg>