<svg xmlns="http://www.w3.org/2000/svg" width="22" height="22"><defs><style id="current-color-scheme" type="text/css"></style></defs><path style="fill:currentColor;color:#323a41" d="M5.023 3C4.457 3 4 3.457 4 4.023v12.954C4 17.543 4.457 18 5.023 18h6.739A4.5 4.5 0 0 1 11 15.5c.001-.167.012-.334.031-.5H10V9H7V6h9v3h-3v2.762A4.5 4.5 0 0 1 15.5 11a4.5 4.5 0 0 1 3.5 1.674v-8.65C19 3.456 18.543 3 17.977 3zM15.5 12a3.5 3.5 0 1 0 0 7c.952 0 1.812-.383 2.443-1H14v-5h3v2h1v2.943c.617-.63 1-1.491 1-2.443a3.5 3.5 0 0 0-3.5-3.5zm-.5 2v1h1v-1zm0 2v1h2v-1z"/></svg>