<svg xmlns="http://www.w3.org/2000/svg" width="22" height="22"><defs><style id="current-color-scheme" type="text/css">.ColorScheme-Text{color:#323a41}</style></defs><path opacity=".3" style="fill:currentColor" class="ColorScheme-Text" d="M217 820.36s2 0 2 2h-14c0-2 1.969-2 1.969-2zm2 8c0 2-2 2-2 2h-1l-2 3-2-3h-5c-1.108 0-2-.892-2-2z" transform="translate(-201 -815.36)"/><path style="fill:currentColor" class="ColorScheme-Text" d="M207 823.36c-1.108 0-2 .892-2 2s.892 2 2 2 2-.892 2-2-.892-2-2-2zm5 0c-1.108 0-2 .892-2 2s.892 2 2 2 2-.892 2-2-.892-2-2-2zm5 0c-1.108 0-2 .892-2 2s.892 2 2 2 2-.892 2-2-.892-2-2-2z" transform="translate(-201 -815.36)"/></svg>