<svg xmlns="http://www.w3.org/2000/svg" width="22" height="22"><defs><style id="current-color-scheme" type="text/css"></style></defs><path style="fill:currentColor;color:#323a41" d="M10.864 17.946h1.315s.397-.046.6-.272c.186-.207.18-.597.18-.597s-.025-1.824.793-2.092c.808-.265 1.745 1.763 2.844 2.542.83.59 1.462.461 1.462.461l2.938-.042s1.537-.098.808-1.348c-.06-.102-.425-.924-2.185-2.613-1.843-1.766-1.596-2.479.623-5.536 1.352-1.862 1.892-2.6 1.723-3.086-.16-.464-1.155-.342-1.155-.342l-3.308.021s-.245-.034-.427.078c-.178.11-.292.367-.292.367s-.523 1.042-1.221 2.267c-1.473 2.586-1.963 3.72-2.204 3.56C12.798 10.94 13 9.81 13 9.009c0-2.506.306-3.551-.778-3.822-.36-.09-.624-.149-1.544-.158-1.18-.013-1.98.003-2.545.29-.376.19-.667.615-.49.64.219.03.714.137.976.507.34.477.381 1.547.381 1.547s.142 2.95-.508 3.316c-.446.252-1.357-1.26-2.67-3.605-.673-1.202-1.181-2.13-1.181-2.13s-.098-.249-.273-.382A1.334 1.334 0 0 0 3.861 5l-3.144.021s-.472.014-.645.226c-.154.189-.012.579-.012.579s2.46 6.55 5.247 9.55c2.556 2.75 5.557 2.57 5.557 2.57"/></svg>