<svg xmlns="http://www.w3.org/2000/svg" width="22" height="22"><defs><style id="current-color-scheme" type="text/css"></style></defs><path style="fill:currentColor;color:#ff9800" d="M115 715.29v6h2v-6zm0 7v2h2v-2z" transform="translate(-105 -705.29)"/><path style="fill:currentColor;color:#323a41" d="M116 709.29c-2.071 0-3.835 1.268-4.594 3.062A3.981 3.981 0 0 0 108 716.29a4 4 0 0 0 4 4h2v-6h4v6h2.5a3.5 3.5 0 0 0 3.5-3.5 3.49 3.49 0 0 0-3.094-3.469A5.011 5.011 0 0 0 116 709.29z" transform="translate(-105 -705.29)"/></svg>