<svg height="32" viewBox="0 0 8.466 8.466" width="32" xmlns="http://www.w3.org/2000/svg">
    <filter id="b" color-interpolation-filters="sRGB" height="1.086" width="1.062" x="-.031" y="-.043">
        <feGaussianBlur stdDeviation=".133"/>
    </filter>
    <linearGradient id="a" gradientUnits="userSpaceOnUse" x1="3.968" x2="3.968" y1="7.938" y2=".53">
        <stop offset="0" stop-color="#3d71f3"/>
        <stop offset="1" stop-color="#67c7eb"/>
    </linearGradient>
    <rect fill="url(#a)" height="7.937" rx="2.117" width="7.937" x=".265" y=".265"/>
    <path d="M3.696 285.65c-.274 0-.449.246-.334.494l2.721 5.891.245.53c.113.246.306.488.576.493.27-.005.463-.247.576-.493l1.381-2.99 1.092-2.36c.076-.166.253-.33.436-.33h1.156a.378.378 0 0 1 .06.008c.005 0 .01.004.014.006a.222.222 0 0 1 .14.316l-.864 1.872-.109.234-.432.936-.109.234-.055.12-.053.114c-.02.05-.041.111-.108.11-.068.001-.09-.066-.108-.11l-.432-.936-.109-.234-.052-.113-.66 1.424.785 1.7c.114.246.307.488.576.492.27-.005.463-.246.577-.493l.244-.53 2.721-5.89c.115-.249-.06-.495-.334-.495H9.781c-.274 0-.54.246-.654.494l-1.585 3.431h.002l-.1.214-.107.234-.108.234-.109.234-.108.234c-.018.044-.04.111-.108.11-.066.001-.088-.06-.108-.11l-.052-.113-.056-.12-.108-.235-.109-.234-.432-.936-.865-1.872c-.077-.166.04-.33.223-.33h1.149c.182 0 .36.164.436.33l.667 1.8" filter="url(#b)" opacity=".25" transform="translate(-.47 -156.06) scale(.55556)"/>
    <path d="M1.583 2.636c-.152 0-.25.136-.186.274L2.91 6.183l.136.294c.063.137.17.272.32.274.15-.002.257-.137.32-.274l.767-1.66.607-1.312c.042-.092.14-.183.242-.183h.643c.011 0 .022.002.033.008" fill="#fff"/>
</svg>
