<svg height="32" viewBox="0 0 8.4665 8.4665" width="32" xmlns="http://www.w3.org/2000/svg" xmlns:xlink="http://www.w3.org/1999/xlink"><filter id="a" color-interpolation-filters="sRGB" height="1.086" width="1.0619" x="-.03097" y="-.04298"><feGaussianBlur stdDeviation=".1326654"/></filter><linearGradient id="b" gradientUnits="userSpaceOnUse" x1="3.9682306" x2="3.9682306" y1="7.937764" y2=".529524"><stop offset="0" stop-color="#3d71f3"/><stop offset="1" stop-color="#67c7eb"/></linearGradient><rect fill="url(#b)" height="7.9374" rx="2.1166" width="7.9373" x=".26458" y=".26457"/><path d="m3.696 285.65c-.274 0-.449.246-.334.494l2.721 5.891.245.53c.113.246.306.488.576.493.27-.005.463-.247.576-.493l1.381-2.99 1.092-2.36c.076-.166.253-.33.436-.33h1.156c.021.001.041.004.06.008.005 0 .01.004.014.006a.222.222 0 0 1 .14.316l-.864 1.872-.109.234-.432.936-.109.234-.055.12-.053.114c-.02.05-.041.111-.108.11-.068.001-.09-.066-.108-.11l-.432-.936-.109-.234-.052-.113-.66 1.424.785 1.7c.114.246.307.488.576.492.27-.005.463-.246.577-.493l.244-.53 2.721-5.89c.115-.249-.06-.495-.334-.495h-3.456c-.274 0-.54.246-.654.494l-1.585 3.431h.002l-.1.214-.107.234-.108.234-.109.234-.108.234c-.018.044-.04.111-.108.11-.066.001-.088-.06-.108-.11l-.052-.113-.056-.12-.108-.235-.109-.234-.432-.936-.865-1.872c-.077-.166.04-.33.223-.33h1.149c.182 0 .36.164.436.33l.667 1.8" filter="url(#a)" opacity=".25" stroke-width="1.8" transform="matrix(.55556 0 0 .55556 -.47037 -156.06)"/><path d="m1.583 2.6357c-.15222 0-.24945.13667-.18556.27445l1.5117 3.2728.13611.29445c.062778.13667.17.27111.32.27389.15-.0027778.25722-.13722.32-.27389l.76723-1.6611.60667-1.3111c.042222-.092223.14056-.18333.24222-.18333h.64223c.011667.0005556.022778.00222.033334.008" fill="#fff"/></svg>