<svg xmlns="http://www.w3.org/2000/svg" width="22" height="22"><path style="opacity:.2" d="M4 1.5c-.554 0-1 .446-1 1v18c0 .554.446 1 1 1h14c.554 0 1-.446 1-1v-13l-6-6z"/><path style="fill:#e44545" d="M4 1c-.554 0-1 .446-1 1v9h8V1z"/><path style="fill:#38ac52" d="M11 1v10h8V7l-6-6z"/><path style="fill:#f2ae37" d="M3 11v9c0 .554.446 1 1 1h7V11z"/><path style="fill:#3776f2" d="M11 11v10h7c.554 0 1-.446 1-1v-9z"/><path style="opacity:.2" d="m19 7.5-6-6v5c0 .554.446 1 1 1z"/><path style="fill:#7ed591" d="m19 7-6-6v5c0 .554.446 1 1 1z"/><path style="opacity:.1;fill:#f4f4f7" d="M4 1c-.554 0-1 .446-1 1v.5c0-.554.446-1 1-1h9V1z"/></svg>