<svg xmlns="http://www.w3.org/2000/svg" width="22" height="22" version="1"><rect style="opacity:.2" width="20" height="20" x="1" y="1.5" rx="10" ry="10"/><rect style="fill:#2869b6" width="20" height="20" x="1" y="1" rx="10" ry="10"/><g style="enable-background:new"><path style="opacity:.3" transform="matrix(.5 0 0 .5 -1 -1)" d="m24.104 5-2.317.264-2.86.785-.54.525L20.162 7.8v.699l-1.162.7 1.396 1.837.618-.35.773-1.224a26.595 26.595 0 0 0 3.399-1.313L26 5.788zm-5.485.176-.998.142-.473.47-.775.112-.691.325-.336.162-.205.275 1.004.174.386-.35.774-.173c.53-.258 1.061-.432 1.623-.614zm-4.56 2.097-.155.35.076.875-.617.525-.386.961h.773l.387-.873c.333-.235.664-.474 1.004-.7l.773.263 1.545 1.049.773-.7-.851-.35-.387-.786-1.469-.176-.076-.438-.695.176-.309.612zm19.793.7-1.465.351-.932.612v.525l-1.465.96.307 1.401.853-.613.54.613.617.35.386-1.049-.23-.613.23-.438.85-1.072h.387l-.387 1.16v.787c.355-.096.72-.128 1.084-.174l-1.006.7-.076.437-1.158.961-1.162-.262v-.699l-.541.35.234.811h-.852l-.462.587-.583.655-1.04.22.617.61.156.61h-.774l-.98.526v1.576h.44l.423.48.967-.48.385-.962.697-.438.154-.35 1.159-.26.619.698.695.35-.387.787.62-.176.308-.783-.773-.875h.31l.774.61.154.874.693.787.155-1.138.388-.174c.382.396.682.866 1.004 1.312l1.158.088.698.436-.31.437-.696.613H35.63l-1.315-.437-.695.086-.5.57-1.432-1.443-1.005-.262-1.47.174-1.314.35c-.737.835-1.364 1.667-2.062 2.535l-.85 2.013.387.436-.695 1.049.773 1.838c.657.743 1.213 1.484 1.87 2.228l.968-.83.424.482 1.04-.656.35.393h1.045l.598.678-.37 1.203.737.83-.039 1.443.541 1.05-.578.874c-.038.643-.039 1.282-.039 1.926.317.872.48 1.74.78 2.619l.23 1.4v.701h.842l.851-.525h.733c.273-.19.535-.394.798-.598l.979-1.107-.192-.568 1.006-.877-.736-.828.89-.743.75-.527.387-.434-.232-.966v-2.446l.795-1.488.85-.961.927-2.273v-.614c-.457.058-.902.105-1.35.137l.924-.924 1.276-.875.697-.785v-.875l-.465-.875-.619.7-.463-.524-.695-.526v-1.136l.812.918.89-.131c.404.367.802.718 1.157 1.137l.088-.1a19.895 19.895 0 0 0-5.472-11.97c-.168-.173-.345-.358-.483-.493-.23-.225-.473-.437-.715-.65l-.219.359-.773.875L35.244 9h1.004l.465-.326-1.856-.35zm-21.846.029c-.113.085-.229.167-.34.254l.152.68s-.706.077-1.115.13C6.6 12.721 4.005 18.031 4 23.982c.161.265.32.518.32.518l1.623.96 1.625.44.694.875 1.082.786.619-.086.463.209v.14l-.617 1.66-.465.702.154.35L9 31.845l1.502 2.537.992 1.222.618.874-.077 1.837.863 1.05-.255 1.109a19.912 19.912 0 0 0 2.832 1.61l.36-.358.231-.612 1.006-.351L18 38.84l-.387-.524.54-1.087 1.16-.264.687-1.098-.223-1.746 1.126-1.312.156-1.313c-1.269-.629-2.727-1.276-3.987-1.924l-.619-1.224-1.158-.262-.617-1.16-1.545.174-1.315-1.1-1.392.861v.194c-.421-.122-.938-.137-1.313-.367l-.31-.875v-.963l-.928.087c.077-.612.156-1.223.234-1.835h-.54l-.542.699-.54.262-.774-.436-.078-.963.154-1.049 1.16-.875h.926l.154-.525 1.16.262.75 1.05.156-1.75 1.57-1.222.54-1.313 1.08-.038.62-.87 1.39-.266.695-1.047h-2.086l1.315-.613h.926l1.314-.838.154-.523-.465-.438-.54-.175.156-.524-.387-.787-.928.348.155-.7-1.083-.61-.847 1.485.076.526-.852.35-.54 1.136-.231-1.049-1.469-.613-.232-.787 1.931-1.137.852-.787.076-.96-.463-.264zm14.686.91-1.12.35-.506-.089h-.002l-.078.526.742.35 1.426-.614-.462-.523zm-10.702.373-.617.438.772.525h.619v-.613zm12.21 2.012v.525l.31.35v.787l-.156 1.049.851-.174.617-.613-.54-.524c-.182-.483-.39-.936-.618-1.4zm-.307 1.049-.543.175.156.961.693-.347zm-10.664 1.576.23 1.22.463-.697zm20.177 6.818.89 1.006 1.044 2.229.617.7-.31.786.587.666c-.27.018-.538.037-.816.037-.492-1.034-.862-2.069-1.236-3.15l-.858-.743-.348-1.269z"/></g><path style="opacity:.1;fill:#fff" d="M11 1C5.46 1 1 5.46 1 11c0 .084.004.167.006.25A9.976 9.976 0 0 1 11 1.5a9.976 9.976 0 0 1 9.994 9.75c.002-.083.006-.166.006-.25 0-5.54-4.46-10-10-10z"/><path style="opacity:.2" d="M7.532 10.5a.43.43 0 0 0-.274.106l-6.515 5.18a.415.415 0 0 0 .223.726l2.526.356-1.184 2.051a.954.954 0 0 0 .35 1.305l.255.147a.954.954 0 0 0 1.305-.35l1.23-2.13 1.801 1.46c.277.226.697.033.698-.32l.021-8.112a.422.422 0 0 0-.436-.419z"/><path style="fill:#fff" d="M7.532 10a.43.43 0 0 0-.274.106L.743 15.287a.415.415 0 0 0 .223.725l2.526.356-1.184 2.051a.954.954 0 0 0 .35 1.306l.255.147a.954.954 0 0 0 1.305-.351l1.23-2.13 1.801 1.46c.277.226.697.033.698-.32l.021-8.112A.422.422 0 0 0 7.532 10z"/></svg>