<svg xmlns="http://www.w3.org/2000/svg" width="22" height="22" viewBox="0 0 44 44"><path fill="#745145" d="M6 2h32c1.108 0 2 .892 2 2v36c0 1.108-.892 2-2 2H6c-1.108 0-2-.892-2-2V4c0-1.108.892-2 2-2z"/><path fill="#ff3434" d="M35.964 16c.351.021.729 0 1.143.287 3.694 1.59 1.216 5.952-3.493 9.27-.029-.626-.289-1.988-.283-2.588 4.019-2.755 6.37-5.436 3.808-6.5-2.7-1.12-3.538 1.94-3.585 6.38-.252.262-1.994 1.419-2.258 1.602.097-4.05 2.25-8.184 4.32-8.421.11-.022.23-.022.348-.022m-3.761 7.047.84-.327.697.47.14 1.477-.88.675-.365.49c-2.71 1.799-5.02 3.184-8.058 4.328l-1.895.281h-1.246c-1.15-.677-.464-.938-4.64-1.459l4.706.365c3.63-1.407 7.334-3.429 10.704-5.634m-8.283 5.896c-.545 0-4.791-.37-6.48-.525-1.672-.26-3.726-.339-3.337 1.616-.443-1.043.566-2.812 1.999-3.124 2.216-.496 5.733.862 6.997 1.28m-2.037.54c.659.262 2.165.45 2.876.684-1.008.522-6.071 2.391-8.161 2-.335 0-1.746-1.015-1.78-1.746.109 1.33 6.297.34 7.064-.964m-1.376.024c.542-.261 3.082-.248 3.642-.456 3.18 1.113 7.458 3.725 10.52 5.486l.887.26c.171 1.218.92 1.637 1.605 2.425l-1.037 1.042-.81-1.33c-3.585-2.162-10.671-5.658-14.804-7.336m14.804 7.337c.438.26.856.521 1.253.781.92 2.61 1.99 4.366 3.014 4.29-1.58.756-4.986-2.968-6.134-6.47m6.134 6.47c2.412-1.433-2.693-4.046-3.84-4.804-.257-.73.448-1.938.218-2.799 3.6 2.242 5.728 5.484 4.52 7.022-.29.365-.599.548-.904.574m-3.503-5.461c-.167-.672-2.39-2.2-2.792-2.435-.538-4.235-.564-4.653-1.02-7.945.273-.26 1.954-1.572 2.215-1.754.322 3.519.93 8.287 1.788 11.471M10 2v18l2-2h2l2 2V2z"/><path fill="#fff" opacity=".1" d="M6 2c-1.108 0-2 .892-2 2v1c0-1.108.892-2 2-2h32c1.108 0 2 .892 2 2V4c0-1.108-.892-2-2-2z"/><path opacity=".2" d="M6 2c-1.108 0-2 .892-2 2v36c0 1.108.892 2 2 2h4V2z"/><path opacity=".2" d="M4 40v1c0 1.108.892 2 2 2h32c1.108 0 2-.892 2-2v-1c0 1.108-.892 2-2 2H6c-1.108 0-2-.892-2-2z"/></svg>