<svg xmlns="http://www.w3.org/2000/svg" height="22" width="22"><rect style="fill:#477783" rx="1" ry="1" height="20" width="20" y="1" x="1"/><path style="opacity:.1;fill:#fff" d="M2 1c-.554 0-1 .446-1 1v.5c0-.554.446-1 1-1h18c.554 0 1 .446 1 1V2c0-.554-.446-1-1-1z"/><path style="opacity:.2" d="M1 20v.5c0 .554.446 1 1 1h18c.554 0 1-.446 1-1V20c0 .554-.446 1-1 1H2c-.554 0-1-.446-1-1zM7 6.5l-2 10h2l.285-2h1.43l.285 2h2l-2-10zm1 3 .428 3h-.856zm4 0v5s0 2 2 2c3 0 3-1 3-1v-6h-1.46v5l-.046 1C14 15.5 14 14.5 14 14.5v-5z"/><path style="fill:#64cce5" d="M7 6 5 16h2l.285-2h1.43L9 16h2L9 6H7zm1 3 .428 3h-.856L8 9zM12 9v5s0 2 2 2c3 0 3-1 3-1V9h-1.461v5l-.045 1C14 15 14 14 14 14V9z"/></svg>