<svg xmlns="http://www.w3.org/2000/svg" width="22" height="22" version="1"><path style="opacity:.2" d="M18 8.5c0 7-4 13-7 13s-7-6-7-13a7 7 0 0 1 14 0z"/><path style="fill:#356db6" d="M18 8c0 7-4 13-7 13S4 15 4 8a7 7 0 0 1 14 0z"/><path style="opacity:.2" d="M12.006 15.43c-.08-.208.64-2.02 1.07-2.692.805-1.255 1.904-1.99 3.28-2.191.657-.097.674-.085.63.438-.098 1.13-.441 1.935-1.195 2.8-.81.929-2.09 1.572-3.378 1.698-.316.03-.377.023-.407-.053z"/><path style="fill:#fff" d="M12.006 14.93c-.08-.208.64-2.02 1.07-2.692.805-1.255 1.904-1.99 3.28-2.191.657-.097.674-.085.63.438-.098 1.13-.441 1.935-1.195 2.8-.81.929-2.09 1.572-3.378 1.698-.316.03-.377.023-.407-.053z"/><path style="opacity:.1;fill:#fff" d="M11 1a7 7 0 0 0-7 7c0 .099.01.195.01.294C4.12 4.524 7.205 1.5 11 1.5c3.796 0 6.88 3.024 6.99 6.794 0-.099.01-.195.01-.294a7 7 0 0 0-7-7z"/><path style="opacity:.2" d="M9.994 15.43c.08-.208-.64-2.02-1.07-2.692-.805-1.255-1.904-1.99-3.28-2.191-.657-.097-.674-.085-.63.438.098 1.13.441 1.935 1.195 2.8.81.929 2.09 1.572 3.378 1.698.316.03.377.023.407-.053z"/><path style="fill:#fff" d="M9.994 14.93c.08-.208-.64-2.02-1.07-2.692-.805-1.255-1.904-1.99-3.28-2.191-.657-.097-.674-.085-.63.438.098 1.13.441 1.935 1.195 2.8.81.929 2.09 1.572 3.378 1.698.316.03.377.023.407-.053z"/></svg>