<svg xmlns="http://www.w3.org/2000/svg" width="22" height="22" version="1"><rect style="opacity:.2" width="20" height="20" x="1" y="1.5" rx="6" ry="6"/><rect style="fill:#777676" width="20" height="20" x="1" y="1" rx="6" ry="6"/><path style="opacity:.1" d="M5.447 3.5c-.01 1.297.19 2.656.89 3.773.191.241.507.67.835.912a9.665 9.665 0 0 0-.899 1.693 16.157 16.157 0 0 0-1.159 3.79c.278-.235.595-1.024.882-1.461.995-1.749 1.925-3.534 2.94-5.27l1.483-2.483C9.58 5.3 8.723 6.16 7.97 7.091c-.998-.343-1.822-1.429-2.154-2.337-.153-.409-.256-.833-.37-1.254zm11.106 0c-.114.42-.217.845-.37 1.254-.332.908-1.156 1.994-2.154 2.337-.752-.932-1.61-1.791-2.448-2.637.494.827.99 1.655 1.482 2.483 1.016 1.736 1.946 3.521 2.94 5.27.288.437.605 1.226.883 1.462a16.157 16.157 0 0 0-1.16-3.791c-.24-.6-.549-1.16-.898-1.693.328-.241.644-.67.834-.912.701-1.117.9-2.476.89-3.773zm-6.029.879C8.843 7.475 7.16 10.57 5.511 13.684c-.081.307.527-.328.707-.39.888-.617 1.766-1.25 2.645-1.88.249-.618.327-1.308.508-1.954.382-1.668.806-3.332 1.153-5.005zm.952 0v.076c.347 1.673.771 3.337 1.153 5.005.18.646.26 1.336.508 1.954.88.63 1.757 1.263 2.645 1.88.18.062.788.697.707.39-1.648-3.113-3.332-6.21-5.013-9.305zM9.665 13.15c-.778.241-1.643.532-2.116 1.238-.282.688.254 1.346.768 1.749a9.307 9.307 0 0 0 2.04 1.252c-.634-.884-1.239-1.93-1.05-3.06.04-.416.213-.794.358-1.179zm2.67 0c.145.385.319.763.358 1.178.189 1.131-.416 2.177-1.05 3.06a9.307 9.307 0 0 0 2.04-1.251c.514-.403 1.05-1.06.768-1.75-.473-.705-1.338-.996-2.116-1.237zM4.5 15.09c.008.36.476.972.673 1.429.496.991.982 1.988 1.474 2.982-.252-1.15-.635-2.28-.824-3.445.46-.295.977-.49 1.469-.728L4.5 15.09zm13 0-2.792.238c.492.238 1.008.433 1.469.728-.189 1.165-.572 2.295-.824 3.445.492-.994.978-1.99 1.474-2.982.197-.457.665-1.068.673-1.43z"/><path style="opacity:.1;fill:#fff" d="M7 1C3.676 1 1 3.676 1 7v.5c0-3.324 2.676-6 6-6h8c3.324 0 6 2.676 6 6V7c0-3.324-2.676-6-6-6z"/><path style="fill:#342522" d="M5.447 3c-.01 1.297.19 2.656.891 3.774.267.337.778 1.049 1.227 1.086.265-.294.771-.866.678-1.186-1.12-.218-2.065-1.43-2.426-2.42-.153-.41-.257-.833-.37-1.254z"/><path style="fill:#403431" d="M10.418 3.954C8.815 5.571 7.135 7.228 6.273 9.378a16.163 16.163 0 0 0-1.16 3.791c.278-.235.597-1.026.883-1.462.995-1.75 1.925-3.535 2.94-5.27l1.482-2.483zM10.524 3.879C8.843 6.974 7.16 10.07 5.511 13.183c-.08.308.527-.327.707-.388.888-.618 1.766-1.25 2.645-1.881.248-.618.327-1.308.508-1.954.382-1.669.806-3.332 1.153-5.005V3.88z"/><path style="fill:#342522" d="M9.665 12.652c-.778.24-1.643.531-2.117 1.236-.281.69.254 1.347.769 1.75.624.497 1.309.93 2.04 1.252-.634-.884-1.24-1.93-1.05-3.061.039-.415.213-.793.358-1.177z"/><path style="fill:#403431" d="M4.5 14.59c.008.36.475.971.673 1.428.496.991.982 1.988 1.474 2.982-.252-1.15-.635-2.28-.824-3.445.46-.295.977-.49 1.469-.727L4.5 14.589z"/><path style="fill:#342522" d="M16.553 3c.01 1.297-.19 2.656-.891 3.774-.267.337-.778 1.049-1.227 1.086-.265-.294-.771-.866-.678-1.186 1.12-.218 2.065-1.43 2.426-2.42.153-.41.257-.833.37-1.254z"/><path style="fill:#403431" d="M11.582 3.954c1.603 1.617 3.283 3.274 4.145 5.424.548 1.208.923 2.489 1.16 3.791-.278-.235-.597-1.026-.883-1.462-.995-1.75-1.925-3.535-2.94-5.27l-1.482-2.483zM11.476 3.879c1.681 3.095 3.365 6.191 5.013 9.304.08.308-.527-.327-.707-.388-.888-.618-1.766-1.25-2.645-1.881-.248-.618-.327-1.308-.508-1.954-.382-1.669-.806-3.332-1.153-5.005V3.88z"/><path style="fill:#342522" d="M12.335 12.652c.778.24 1.643.531 2.117 1.236.281.69-.254 1.347-.769 1.75a9.311 9.311 0 0 1-2.04 1.252c.634-.884 1.24-1.93 1.05-3.061-.039-.415-.213-.793-.358-1.177z"/><path style="fill:#403431" d="M17.5 14.59c-.008.36-.475.971-.673 1.428-.496.991-.982 1.988-1.474 2.982.252-1.15.635-2.28.824-3.445-.46-.295-.977-.49-1.469-.727l2.792-.239z"/></svg>