<svg xmlns="http://www.w3.org/2000/svg" width="22" height="22" version="1"><rect style="opacity:.2" width="20" height="20" x="1" y="1.5" rx="1" ry="1"/><rect style="fill:#2a7bdb" width="20" height="20" x="1" y="1" rx="1" ry="1"/><path style="opacity:.2;fill:#fff" d="M2 1c-.554 0-1 .446-1 1v.5c0-.554.446-1 1-1h18c.554 0 1 .446 1 1V2c0-.554-.446-1-1-1z"/><path style="opacity:.2" d="M11 4.5a4 4 0 0 0-3.998 4.04A3.5 3.5 0 0 0 4 12a3.5 3.5 0 0 0 3.5 3.5H7.092l.29.016c.07.244.292.675.318 1.234.029.606-.526.975-.934 1.329-.104.055-.182.119-.174.142.024.076.5.24.781.268.362.036.864-.01 1.152-.117a2.21 2.21 0 0 0 1.086-.846c.222-.332.339-.66.373-1.043l.03-.967 1.79-.016H15a3 3 0 0 0 0-6 2.903 2.903 0 0 0-.133.006A4 4 0 0 0 15 8.5a4 4 0 0 0-4-4z"/><path style="fill:#fff" d="M11 4a4 4 0 0 0-3.998 4.04A3.5 3.5 0 0 0 4 11.5 3.5 3.5 0 0 0 7.5 15H7.092l.29.016c.07.244.292.674.318 1.234.029.606-.526.975-.934 1.328-.104.055-.182.12-.174.143.024.076.5.24.781.267.362.037.864-.009 1.152-.117a2.21 2.21 0 0 0 1.086-.846c.222-.331.339-.66.373-1.043l.03-.966 1.79-.016H15a3 3 0 0 0 0-6 2.903 2.903 0 0 0-.133.006A4 4 0 0 0 15 8a4 4 0 0 0-4-4z"/></svg>