<svg xmlns="http://www.w3.org/2000/svg" width="22" height="22"><path style="opacity:.2" d="M1 14.207v.498a6.778 6.778 0 0 0 6.793 6.793h6.414A6.778 6.778 0 0 0 21 14.705v-.498A6.778 6.778 0 0 1 14.207 21H7.793A6.778 6.778 0 0 1 1 14.207z"/><rect style="fill:#4bae4f" width="20" height="19.997" x="1" y="1" ry="6.793"/><path style="opacity:.2" d="m3.918 4.057.515.387C2.8 5.197 6.995 8.636 6.995 8.636s.816-.735 2.013-.813c1.186-1.216 6.124-.29 5.94.708-1.66.026-2.186-.186-2.186-.186s.082.094.115.418c-.12.1-1.837-.284-2.196-.257-1.021.078-1.71.104-2.443.185.504.166 4.52.881 5.804 2.123-.343.132-.493.077-.607.12-.1.037-.202.242-.423.243-.158 0-.104-.14-.43-.295-2.033.08-2.691-1.159-2.892-1.311-.897-.214-2.408-.698-2.408-.698s1.28 1.02 1.98 1.588c.06.047 1.02.226 2.244.822.657-.538 2.429.375 2.1 1.21-.294.746-2.261-.022-2.189-1.035-.45-.14-1.279-.54-1.81-.732.51.397 2.509 2.063 2.91 2.534 1.76-.216 4.418.223 6.066 1.28-.376.099-2.164.438-2.523.343-.665-.252-1.658-1.068-1.763-1.16a43.68 43.68 0 0 0-1.57-.224c.334.339 1.438 1.615 1.785 2.152.143-.03.876.145 1.079.283.752-.767 1.971.58 2.721 1.23-.197.4-3.29-.216-2.876-1.112-.222-.03-.664-.272-.827-.285.167.218.53.515 1.01 1.017.46-.13 2.198 1.75 2.245 2.161-1.3-.316-1.943-.592-2.144-.827-.397-.464-.247-1.13-.209-1.252-.511-.457-.607-.593-.774-.683-.004.004 0 .14.009.206.84.62.434 2.334-.05 2.394-.21.027-.694-2.418-.089-2.509.014-.048.022-.193.023-.198-.32-.348-2.09-2.23-2.205-2.31.057.15.151.393.238.695 1.045.683 1.218 1.776 1.14 3.06-.251-.438-2.708-2.438-1.633-3.324.007-.137-.034-.447.057-.622-.34-.34-1.402-1.387-1.497-1.386.119.243.192.381.251.644.809.403.574 1.446.205 1.468-.388.023-1.247-1.173-.439-1.427-.065-.301-.184-.71-.232-.888-.35-.268-1.509-1.194-1.776-1.41.329.547.65 1.399.81 1.887.97 1.098.702 2.796.604 4.547-1.137-.844-1.843-3.724-1.12-4.441-.241-.833-.606-2.242-.606-2.242C6.864 9.114 6 8.205 6 8.205s1.04 1.35 1.16 2.074c.911.177 1.673 1.765.948 2.036-1.06.397-2.197-1.285-1.293-1.911 0 0-.8-1.475-1.42-2.768-2.445-2.683-2.21-3.489-1.477-3.579z"/><path style="fill:#e4e4e4" d="m3.918 3.557.515.387C2.8 4.697 6.995 8.136 6.995 8.136s.816-.735 2.013-.813c1.186-1.216 6.124-.29 5.94.708-1.66.026-2.186-.186-2.186-.186s.082.094.115.418c-.12.1-1.837-.284-2.196-.257-1.021.078-1.71.104-2.443.185.504.166 4.52.881 5.804 2.123-.343.132-.493.077-.607.12-.1.037-.202.242-.423.243-.158 0-.104-.14-.43-.295-2.033.08-2.691-1.159-2.892-1.311-.897-.214-2.408-.698-2.408-.698s1.28 1.02 1.98 1.588c.06.047 1.02.226 2.244.822.657-.538 2.429.375 2.1 1.21-.294.746-2.261-.022-2.189-1.035-.45-.14-1.279-.54-1.81-.732.51.397 2.509 2.063 2.91 2.534 1.76-.216 4.418.223 6.066 1.28-.376.099-2.164.438-2.523.343-.665-.252-1.658-1.068-1.763-1.16a43.68 43.68 0 0 0-1.57-.224c.334.339 1.438 1.615 1.785 2.152.143-.03.876.145 1.079.283.752-.767 1.971.58 2.721 1.23-.197.4-3.29-.216-2.876-1.112-.222-.03-.664-.272-.827-.285.167.218.53.515 1.01 1.017.46-.13 2.198 1.75 2.245 2.161-1.3-.316-1.943-.592-2.144-.827-.397-.464-.247-1.13-.209-1.252-.511-.457-.607-.593-.774-.683-.004.004 0 .14.009.206.84.62.434 2.334-.05 2.394-.21.027-.694-2.418-.089-2.509.014-.048.022-.193.023-.198-.32-.348-2.09-2.23-2.205-2.31.057.15.151.393.238.695 1.045.683 1.218 1.776 1.14 3.06-.251-.438-2.708-2.438-1.633-3.324.007-.137-.034-.447.057-.622-.34-.34-1.402-1.387-1.497-1.386.119.243.192.381.251.644.809.403.574 1.446.205 1.468-.388.023-1.247-1.173-.439-1.427-.065-.301-.184-.71-.232-.888-.35-.268-1.509-1.194-1.776-1.41.329.547.65 1.399.81 1.887.97 1.098.702 2.796.604 4.547-1.137-.844-1.843-3.724-1.12-4.441-.241-.833-.606-2.242-.606-2.242C6.864 8.614 6 7.705 6 7.705s1.04 1.35 1.16 2.074c.911.177 1.673 1.765.948 2.036-1.06.397-2.197-1.285-1.293-1.911 0 0-.8-1.475-1.42-2.768-2.445-2.683-2.21-3.489-1.477-3.579z"/><path style="fill:#fff;opacity:.2" d="M7.793 1.002A6.778 6.778 0 0 0 1 7.795v.498A6.778 6.778 0 0 1 7.793 1.5h6.414A6.778 6.778 0 0 1 21 8.293v-.498a6.778 6.778 0 0 0-6.793-6.793H7.793z"/></svg>