<svg xmlns="http://www.w3.org/2000/svg" width="22" height="22" version="1"><rect style="opacity:.2" width="6.999" height="23.331" x="-3.15" y="-27.57" rx="1.75" ry="1.75" transform="rotate(135)"/><rect style="fill:#ccc" width="6.999" height="23.331" x="-3.5" y="-27.22" rx="1.75" ry="1.75" transform="rotate(135)"/><rect style="opacity:.2" width="6.999" height="23.331" x="12.41" y="-11.31" rx="1.75" ry="1.75" transform="rotate(45)"/><rect style="fill:#e4e4e4" width="6.999" height="23.331" x="12.06" y="-11.66" rx="1.75" ry="1.75" transform="rotate(45)"/><path style="fill:#4f4f4f" d="M5.226 1c-.071 0-.142.012-.212.02L11 10l5.986-8.98c-.07-.01-.14-.02-.212-.02-.447 0-.894.17-1.237.514L11 6.05 6.463 1.514A1.744 1.744 0 0 0 5.226 1zM11 12l-5.986 8.98c.07.01.14.02.212.02.447 0 .894-.17 1.237-.514L11 15.95l4.537 4.537c.343.343.79.514 1.237.514.071 0 .142-.01.212-.02z"/><path style="opacity:.1;fill:#fff" d="M5.226 1c-.448 0-.895.17-1.238.514L1.514 3.988a1.74 1.74 0 0 0-.49 1.488c.052-.361.211-.71.49-.988l2.474-2.474a1.744 1.744 0 0 1 2.475 0L11 6.55l4.537-4.537a1.746 1.746 0 0 1 2.475 0l2.474 2.474c.279.279.438.627.49.988a1.74 1.74 0 0 0-.49-1.488l-2.474-2.474a1.746 1.746 0 0 0-2.475 0L11 6.05 6.463 1.514A1.744 1.744 0 0 0 5.226 1zM5.8 11.25l-4.287 4.287a1.74 1.74 0 0 0-.49 1.487c.052-.36.211-.708.49-.987L6.05 11.5zm10.398 0-.25.25 4.537 4.537c.279.279.438.627.49.987a1.74 1.74 0 0 0-.49-1.487z"/></svg>