<svg xmlns="http://www.w3.org/2000/svg" width="22" height="22" version="1"><rect style="fill:#713a9d" width="20" height="20" x="1" y="1" rx="1" ry="1"/><path style="opacity:.1;fill:#fff" d="M2 1c-.554 0-1 .446-1 1v.5c0-.554.446-1 1-1h18c.554 0 1 .446 1 1V2c0-.554-.446-1-1-1z"/><path style="opacity:.2" d="M2 21.5c-.554 0-1-.446-1-1V20c0 .554.446 1 1 1h18c.554 0 1-.446 1-1v.5c0 .554-.446 1-1 1z"/><path style="opacity:.5;fill:#fff" d="M10 10v2h6c.554 0 1-.446 1-1s-.446-1-1-1zm2 5v2h4c.554 0 1-.446 1-1s-.446-1-1-1z"/><path style="fill:#f44336" d="M15 5H6c-.554 0-1 .446-1 1s.446 1 1 1h9z"/><path style="fill:#03a9f4" d="M12 15H6c-.554 0-1 .446-1 1s.446 1 1 1h6z"/><path style="fill:#4caf50" d="M10 10H6c-.554 0-1 .446-1 1s.446 1 1 1h4z"/><path style="opacity:.2" d="M17 6.5a2 2 0 1 0-4 0 2 2 0 0 0 4 0zM14 16.5a2 2 0 1 0-3.999-.001A2 2 0 0 0 14 16.5zM12 11.5a2 2 0 1 0-3.999-.001A2 2 0 0 0 12 11.5z"/><path style="fill:#fff" d="M17 6a2 2 0 1 0-4 0 2 2 0 0 0 4 0zM14 16a2 2 0 1 0-3.999-.001A2 2 0 0 0 14 16zM12 11a2 2 0 1 0-3.999-.001A2 2 0 0 0 12 11z"/></svg>