<svg xmlns="http://www.w3.org/2000/svg" width="22" height="22"><path style="opacity:.2;fill-rule:evenodd" d="M1.91 10.502c-.733.003-1.163.814-.748 1.41l5.02 7.198c.171.244.453.39.753.39h9.13c.3 0 .581-.146.752-.39l5.02-7.199c.439-.63-.067-1.477-.838-1.405l-9.5.995-9.498-.995a.92.92 0 0 0-.091-.004z"/><path style="fill:#bcbcbc;fill-rule:evenodd" d="M1.91 10.002c-.733.003-1.163.814-.748 1.41l5.02 7.198c.171.244.453.39.753.39h9.13c.3 0 .581-.146.752-.39l5.02-7.199c.439-.63-.067-1.477-.838-1.405l-9.5-.006-9.498.006a.92.92 0 0 0-.091-.004z"/><path style="opacity:.3;fill-rule:evenodd" d="M2.003 10.007 11.5 12.5l9.496-2.494-9.496-.005z"/><path style="fill:#bcbcbc;fill-rule:evenodd" d="M11.532 3.003a.872.872 0 0 0-.779.415l-5.632 9.306c-.387.64.2 1.423.941 1.255l5.438-1.478 5.437 1.478c.742.168 1.329-.614.941-1.255l-5.632-9.306a.87.87 0 0 0-.714-.415z"/><path style="opacity:.1;fill:#fff;fill-rule:evenodd" d="M11.532 3.004a.867.846 0 0 0-.778.414l-5.632 9.306a.867.846 0 0 0-.081.68.867.846 0 0 1 .08-.18l5.633-9.306a.867.846 0 0 1 .778-.414.867.846 0 0 1 .714.414l5.632 9.306a.867.846 0 0 1 .082.18.867.846 0 0 0-.082-.68l-5.632-9.306a.867.846 0 0 0-.714-.414z"/><path style="opacity:.3;fill-rule:evenodd" d="m11.5 3.5 1.15 10.001-1.15-1-1.15 1z"/><path style="fill:#e4e4e4;fill-rule:evenodd" d="M1.912 10.002c-.733.003-1.163.814-.748 1.41l5.02 7.198c.17.244.451.39.752.39l4.564-6.499-9.498-2.494a.918.918 0 0 0-.09-.005zm9.588 2.5L16.063 19c.301 0 .583-.146.753-.39l5.02-7.198c.415-.596-.015-1.407-.748-1.41-.03 0-.06.002-.09.005L11.5 12.5z"/><path style="opacity:.2;fill:#fff;fill-rule:evenodd" d="M1.912 10.002a.902.902 0 0 0-.87 1.156.902.902 0 0 1 .96-.652l9.2 2.417.298-.422-9.498-2.494a.918.918 0 0 0-.09-.005zm9.588 2.5.297.421 9.2-2.417a.902.902 0 0 1 .96.651.902.902 0 0 0-.96-1.15L11.5 12.5z"/><path style="opacity:.1;fill-rule:evenodd" d="m1.043 11.158-.001.006a.9.9 0 0 0 .12.248l5.021 7.198-5.02-7.198a.896.896 0 0 1-.12-.254zm5.14 7.452zm15.774-7.452a.896.896 0 0 1-.121.254l-5.02 7.198a.905.905 0 0 1 .001 0l5.02-7.198a.912.912 0 0 0 .122-.245l-.002-.01zm-10.754 1.765L6.936 19h.352l4.212-5.999-.297-.078zm.297.078 4.212 6h.351l-4.266-6.078-.297.078z"/></svg>