<svg xmlns="http://www.w3.org/2000/svg" width="22" height="22" version="1"><path style="opacity:.2" d="M9.088 21.466c-.03-.03-.529-.088-.924-.13-.794-.086-1.065-.25-1.167-.705-.09-.405.103-.9.566-1.45.218-.259.297-.456.297-.498 0-.143-.454-.072-.707.122-.14.107-.4.195-.578.197-.418.002-.58-.272-.5-.847.05-.361.127-.494-.065-.623a6.314 6.314 0 0 1-.649-.495c-.351-.324-.368-.367-.275-.695.11-.392.239-1.271-.146-2.284-.211-.556-.242-.587-.762-.765-.299-.102-.697-.3-.886-.442-.325-.243-.343-.289-.343-.872v-.615l.66-.334c.759-.385.913-.892.668-1.026-.083-.046-.463-.032-.85.03-.753.123-1.148.028-1.373-.327-.148-.233.02-.655.361-.903l.273-.2.571.214c.837.314.951.287 1.388-.33.414-.584.314-.793.07-1.254a2 2 0 0 1-.177-.706c-.016-.37.02-.434.425-.74.244-.184.642-.386.886-.45.494-.13.685-.281.39-.648-.243-.303-.249-.414-.048-.978.268-.753.584-.84 1.574-.43.335.137.652.224.705.192.053-.032.097-.254.097-.493 0-.372.045-.465.315-.653.173-.121.377-.315.452-.491l.137-.322.687.244c.377.134.78.33.895.435.279.256.339.048 1.114-.355.84-.437 1.223-.448 1.612-.05.292.299.78.605.911.398.123-.194.716-.108.953.14.125.131.378.266.562.3.184.033.52-.056.75.106.506.36.819.366 1.123.048.399-.416.911-.28.911.24 0 .139-.1.49-.224.782-.204.483-.41.553-.274.792.1.173.15.304.447.388.246.07.484.184.528.252.152.234.079.819-.147 1.178-.205.327-.219.436-.156 1.24.133 1.711.425 3.124.535 3.407.061.158.107.47.103.693-.005.223.022.53.06.683.05.203.02.31-.109.403-.166.12-.164.15.038.537.27.517.278 1.114.02 1.425-.164.198-.269.23-.683.202-1.337-.087-1.301-.093-1.28.201.01.148.284.337.427.543.29.42.326.776.124 1.25-.247.58-.376.623-1.26.415-.429-.1-.852-.242-.94-.313-.231-.188-.416.079-.698.517-.24.371-.286.397-.735.397-.579 0-1.024.093-1.326.571-.148.236-.32.365-.539.408-.455.09-1.013-.028-1.593-.267l-.495-.205-.72.242-.718.242.012.396c.007.219.047.65.09.959.042.309.048.672.013.807-.061.238-.292.41-.403.3z"/><path style="fill:#e53935" d="M9.088 20.966c-.03-.03-.529-.088-.924-.13-.794-.086-1.065-.25-1.167-.705-.09-.405.103-.9.566-1.45.218-.259.297-.456.297-.498 0-.143-.454-.072-.707.122-.14.107-.4.195-.578.197-.418.002-.58-.272-.5-.847.05-.361.127-.494-.065-.623a6.314 6.314 0 0 1-.649-.495c-.351-.324-.368-.366-.275-.695.11-.392.239-1.271-.146-2.284-.211-.556-.242-.587-.762-.765-.299-.102-.697-.3-.886-.442-.325-.243-.343-.289-.343-.872v-.615l.66-.334c.759-.385.913-.892.668-1.026-.083-.046-.463-.032-.85.03-.753.123-1.148.028-1.373-.327-.148-.233.02-.655.361-.903l.273-.2.571.214c.837.314.951.287 1.388-.33.414-.584.314-.793.07-1.254a2 2 0 0 1-.177-.706c-.016-.37.02-.434.425-.74.244-.184.642-.386.886-.45.494-.13.685-.281.39-.648-.243-.303-.249-.414-.048-.978.268-.753.584-.84 1.574-.43.335.137.652.224.705.192.053-.032.097-.254.097-.493 0-.372.045-.465.315-.653.173-.121.377-.315.452-.491l.137-.322.687.244c.377.134.78.33.895.435.279.256.339.048 1.114-.355.84-.437 1.223-.448 1.612-.05.292.299.78.605.911.398.123-.194.716-.108.953.14.125.131.378.266.562.3.184.033.52-.056.75.106.506.36.819.366 1.123.048.399-.416.911-.28.911.24 0 .139-.1.49-.224.782-.204.483-.41.553-.274.792.1.173.15.304.447.388.246.07.484.184.528.252.152.234.079.819-.147 1.178-.205.327-.219.436-.156 1.24.133 1.711.425 3.124.535 3.407.061.158.107.47.103.693-.005.223.022.53.06.683.05.203.02.31-.109.403-.166.12-.164.15.038.537.27.517.278 1.114.02 1.425-.164.198-.269.23-.683.202-1.337-.087-1.301-.093-1.28.201.01.148.284.337.427.543.29.42.326.776.124 1.25-.247.58-.376.623-1.26.415-.429-.1-.852-.242-.94-.313-.231-.188-.416.079-.698.517-.24.371-.286.397-.735.397-.579 0-1.024.093-1.326.571-.148.236-.32.365-.539.408-.455.09-1.013-.028-1.593-.267l-.495-.205-.72.242-.718.242.012.396c.007.219.047.65.09.959.042.309.048.672.013.807-.061.238-.292.41-.403.3z"/><path style="fill:#fff" d="M11.334 4.15 6.6 7.655v.004l.651 5.872 5.385 2.37 4.735-3.505-.652-5.872V6.52z"/><path style="fill:#c8c8c8" d="M16.835 6.424 12 10.004 12.665 16l4.835-3.579z"/><path style="fill:#fff" d="M11.335 4 6.5 7.58v.003l5.5 2.421 4.835-3.58v-.003z"/><path style="fill:#e4e4e4" d="m6.5 7.583.665 5.997 5.5 2.42L12 10.004z"/><path style="opacity:.2;fill:#fff" d="M13.143 1c-.25.008-.555.12-.974.338-.775.403-.835.612-1.113.357-.115-.106-.52-.302-.897-.436l-.686-.244-.137.321c-.075.177-.279.37-.452.492-.27.188-.315.282-.315.654 0 .238-.043.46-.096.492-.054.032-.372-.054-.706-.192-.99-.409-1.306-.323-1.574.43-.15.425-.185.592-.089.779.024-.082.05-.166.09-.279.267-.753.582-.839 1.573-.43.334.138.652.224.706.192.053-.032.096-.254.096-.492 0-.372.044-.466.315-.654.173-.121.377-.315.452-.492l.137-.32.686.243c.378.134.782.33.897.436.278.255.338.046 1.113-.357.84-.436 1.222-.447 1.612-.049.292.3.78.606.911.399.123-.195.715-.109.952.139.126.13.38.266.563.3.183.033.521-.056.75.107.506.36.818.364 1.123.047.326-.34.725-.307.86 0 .026-.102.05-.205.05-.26 0-.52-.512-.656-.91-.24-.305.318-.617.312-1.123-.047-.229-.163-.567-.074-.75-.108a1.218 1.218 0 0 1-.563-.3c-.237-.247-.829-.333-.952-.138-.13.207-.62-.1-.91-.399-.196-.199-.39-.296-.639-.289zm5.416 3.197c-.097.157-.15.25-.066.398.1.174.15.305.447.389.246.07.484.183.528.252a.436.436 0 0 1 .05.12c.043-.25.035-.49-.05-.62-.044-.07-.282-.182-.528-.252a.561.561 0 0 1-.38-.287zM6.24 4.689c-.09.057-.22.105-.39.15-.243.063-.641.265-.885.45-.405.305-.442.37-.425.739.003.055.02.123.03.186.042-.135.144-.236.395-.426.244-.184.642-.386.886-.45.494-.13.685-.281.39-.648v-.001zm12.905 2.156c-.023.17-.012.398.02.809.133 1.71.425 3.123.535 3.407.061.158.107.47.102.692-.003.16.013.346.035.505.055-.078.061-.174.025-.322a3.272 3.272 0 0 1-.06-.683 2.197 2.197 0 0 0-.102-.692c-.11-.284-.402-1.697-.535-3.407-.01-.128-.014-.213-.02-.309zm-14.267.73a1.82 1.82 0 0 1-.232.414c-.436.616-.55.644-1.387.33l-.57-.215-.274.2c-.34.248-.509.67-.361.903l.016.022c.07-.155.186-.309.345-.425l.274-.2.57.215c.837.314.951.286 1.387-.33.298-.421.328-.648.232-.914zm-.612 2.427c-.119.173-.328.36-.657.528l-.66.334v.5l.66-.334c.759-.385.913-.892.668-1.026-.002-.001-.009 0-.011-.002zm15.501 2.825-.012.012c-.166.119-.165.15.037.537.097.188.149.383.177.574.069-.314.01-.712-.177-1.074l-.025-.049zM18.02 14.96c-.183.02-.181.09-.17.244.01.148.284.337.427.543.113.162.176.316.213.47.08-.343.017-.638-.213-.97-.07-.1-.17-.197-.257-.287zm-12.833.176a3.488 3.488 0 0 1-.1.706c-.057.202-.062.3.017.417.062-.251.123-.638.083-1.123zm.896 2.47-.007.05c-.027.192-.024.347.004.473.04-.271.084-.414.003-.522zm1.703 1.008a.507.507 0 0 0-.178.003c-.018.024-.023.04-.045.065-.463.549-.656 1.044-.565 1.449.005.02.011.036.017.056.066-.306.242-.642.548-1.005.22-.26.298-.457.298-.5 0-.035-.028-.057-.075-.068zm1.612.383-.021.007.013.396c.007.219.046.65.088.958.011.08.012.16.018.24.024-.16.02-.461-.018-.74-.037-.277-.068-.63-.08-.86z"/><path style="opacity:.2" d="m6.55 8.041-.05.038v.004l.665 5.997 5.5 2.42 4.835-3.579-.051-.462L12.665 16l-5.5-2.42z"/><path style="opacity:.1" d="M16.415 6.736 12 10.004 6.92 7.768l-.42.311v.004l5.5 2.421 4.835-3.58V6.92z"/></svg>