<svg xmlns="http://www.w3.org/2000/svg" width="22" height="22" version="1"><rect style="opacity:.2" width="21" height="19" x="1" y="1.5" rx="1.05" ry="1.056"/><rect style="fill:#4a3030" width="21" height="19" x="1" y="1" rx="1.05" ry="1.056"/><path style="fill:#e62525" d="M8 3h7v3H8z"/><path style="fill:#cd2121" d="M8 6h2v3H8zM14 6h2v3h-2z"/><path style="fill:#b31d1d" d="M8 9h7v3H8z"/><path style="fill:#9a1919" d="M8 12h2v3H8zM14 12h2v3h-2z"/><path style="fill:#801414" d="M8 15h7v3H8z"/><path style="opacity:.2" d="M8 6h7v.5H8zM8 9h2v.5H8zM14 9h2v.5h-2zM8 12h7v.5H8zM8 15h2v.5H8zM14 15h2v.5h-2zM8 18h7v.5H8z"/><path style="opacity:.1;fill:#fff" d="M2.05 1C1.47 1 1 1.47 1 2.055v.5C1 1.97 1.47 1.5 2.05 1.5h18.9c.58 0 1.05.47 1.05 1.055v-.5A1.05 1.05 0 0 0 20.95 1z"/></svg>