<svg xmlns="http://www.w3.org/2000/svg" height="22" width="22"><circle style="opacity:.1" cx="10.5" cy="6"/><circle style="fill:#4f4f4f" cx="10.5" cy="5.5"/><circle style="opacity:.2" cx="10.5" cy="6"/><circle style="fill:#4f4f4f" cx="10.5" cy="5.5"/><g><circle cx="11" style="opacity:.2" r="9" cy="11.5"/><circle cx="11" style="fill:#3fafff" r="9" cy="11"/><path style="opacity:.1;fill:#fff" d="M11 2a9 9 0 0 0-9 9 9 9 0 0 0 .01.287A9 9 0 0 1 11 2.5a9 9 0 0 1 8.99 8.713A9 9 0 0 0 20 11a9 9 0 0 0-9-9z"/><path style="fill:#f0f0f0" d="M8 10h6l-1-5s0-1-2-1-2 1-2 1v3z"/><path style="opacity:.2;fill:#fff" d="M11 4C9 4 9 5 9 5v.5s0-1 2-1 2 1 2 1l.9 4.5h.1l-1-5s0-1-2-1zM9 8l-1 2h.25L9 8.5z"/><path style="opacity:.2" d="M2 10.5h18c1 0 1 1 1 1l-6 3h3c1 0 1 1 1 1l-7 4h-2l-7-4s0-1 1-1h3l-6-3s0-1 1-1z"/><path style="fill:#6fbfff" d="M2 10h18c1 0 1 1 1 1l-6 3h3c1 0 1 1 1 1l-7 4h-2l-7-4s0-1 1-1h3l-6-3s0-1 1-1z"/><path style="opacity:.2;fill:#fff" d="M2 10c-1 0-1 1-1 1l.107.055c.115-.269.353-.555.893-.555h18c.54 0 .778.286.893.555L21 11s0-1-1-1zm2 4c-1 0-1 1-1 1l.105.06c.114-.27.35-.56.895-.56h3L6 14zm12 0-1 .5h3c.544 0 .781.29.895.56L19 15s0-1-1-1z"/><path style="opacity:.1" d="m9 5.5-3 1 1 2 1-1 2 1z"/><path style="fill:#f2d12d" d="M9 5 6 6l1 2 1-1 2 1z"/><path style="opacity:.1" d="M7 10.5h8l-1 1h2l-4 8h-2l-4-8h2z"/><path style="fill:#4f4f4f" d="M7 10h8l-1 1h2l-4 8h-2l-4-8h2z"/><path style="fill:#fff" d="m9 10 1 9h2l1-9z"/><path style="fill:#4f4f4f" d="m11 10-1 4 1 1 1-1z"/><path style="opacity:.2;fill:#fff" d="M9 5 6 6l.215.428L9 5.5l.8 2.4.2.1z"/></g><path style="fill:#4f4f4f" d="M12 6.5a.5.5 0 0 1-.5.5.5.5 0 0 1-.5-.5.5.5 0 0 1 .5-.5.5.5 0 0 1 .5.5z" transform="translate(-1 -1)"/></svg>