<svg xmlns="http://www.w3.org/2000/svg" width="22" height="22" version="1"><rect fill="#4ba357" width="20" height="20" x="1" y="1" rx="1" ry="1"/><path fill="#fff" opacity=".2" d="M2 1c-.554 0-1 .446-1 1v.5c0-.554.446-1 1-1h18c.554 0 1 .446 1 1V2c0-.554-.446-1-1-1H2z"/><path opacity=".2" d="M2 21.5c-.554 0-1-.446-1-1V20c0 .554.446 1 1 1h18c.554 0 1-.446 1-1v.5c0 .554-.446 1-1 1H2z"/><path opacity=".1" d="M11 7.5c-1.678 0-3.111.518-3.705 1.25a1.495 1.495 0 0 0-.223.375 4 2 0 0 0-.015.059c-.014.043-.03.085-.037.129A4 2 0 0 0 7 9.5c0 .065.007.129.02.193a4 2 0 0 0 .054.188 4 2 0 0 0 .094.187 4 2 0 0 0 .127.182A4 2 0 0 0 11 11.5a4 2 0 0 0 3.705-1.25 4 2 0 0 0 .002-.002 4 2 0 0 0 .108-.154l.02-.031a4 2 0 0 0 .066-.133l.029-.062a4 2 0 0 0 .033-.112 1.05 1.05 0 0 0 .02-.088A4 2 0 0 0 15 9.5a4 2 0 0 0-.021-.2 1.273 1.273 0 0 0-.274-.55C14.112 8.017 12.679 7.5 11 7.5zm-3.705 4.25A4 2 0 0 0 7 12.5a4 2 0 0 0 4 2 4 2 0 0 0 4-2 4 2 0 0 0-.295-.75A4 2 0 0 1 11 13a4 2 0 0 1-3.705-1.25zm0 3A4 2 0 0 0 7 15.5a4 2 0 0 0 4 2 4 2 0 0 0 4-2 4 2 0 0 0-.295-.75A4 2 0 0 1 11 16a4 2 0 0 1-3.705-1.25z"/><path fill="#fff" d="M11 7c-1.678 0-3.111.518-3.705 1.25a1.495 1.495 0 0 0-.223.375 4 2 0 0 0-.015.059c-.014.043-.03.085-.037.129A4 2 0 0 0 7 9c0 .065.007.129.02.193a4 2 0 0 0 .054.188 4 2 0 0 0 .094.187 4 2 0 0 0 .127.182A4 2 0 0 0 11 11a4 2 0 0 0 3.705-1.25 4 2 0 0 0 .002-.002 4 2 0 0 0 .107-.154l.02-.032a4 2 0 0 0 .066-.132l.03-.063a4 2 0 0 0 .033-.111 1.05 1.05 0 0 0 .019-.088A4 2 0 0 0 15 9a4 2 0 0 0-.021-.2 1.273 1.273 0 0 0-.274-.55C14.111 7.517 12.678 7 11 7zm-3.705 4.25A4 2 0 0 0 7 12a4 2 0 0 0 4 2 4 2 0 0 0 4-2 4 2 0 0 0-.295-.75A4 2 0 0 1 11 12.5a4 2 0 0 1-3.705-1.25zm0 3A4 2 0 0 0 7 15a4 2 0 0 0 4 2 4 2 0 0 0 4-2 4 2 0 0 0-.295-.75A4 2 0 0 1 11 15.5a4 2 0 0 1-3.705-1.25z"/></svg>