<svg xmlns="http://www.w3.org/2000/svg" width="22" height="22" version="1"><path style="opacity:.2" d="M18.523 18.952 21 15.747V2.5c0-.554-.446-1-1-1H2c-.554 0-1 .446-1 1v18c0 .554.446 1 1 1h13.807l.876-1.327c.305-.462 1.501-.783 1.84-1.221z"/><path style="fill:#752828" d="M19.364 18.939 21 15.923V2c0-.554-.446-1-1-1H2c-.554 0-1 .446-1 1v18c0 .554.446 1 1 1h13.674l3.132-.442c.548-.078.293-1.133.558-1.62z"/><path style="opacity:.2;fill:none;stroke:#000" d="M6.5 4.5c3.658 0 5.342 7 9 7"/><path style="opacity:.1;fill:#fff" d="M1 2.5V2c0-.554.446-1 1-1h18c.554 0 1 .446 1 1v.5c0-.554-.446-1-1-1H2c-.554 0-1 .446-1 1z"/><path style="fill:none;stroke:#6c7f94" d="M6.5 4c3.658 0 5.342 7 9 7"/><path style="opacity:.2;fill:none;stroke:#000" d="M6.5 11.5c3.658 0 5.342 7 9 7"/><path style="opacity:.2;fill-rule:evenodd" d="m5.008 3.5-.016.018L4 4.5l1.008 1H7v-2z"/><path style="fill:#4c66cc;fill-rule:evenodd" d="m5.008 3-.016.018L4 4l1.008 1H7V3z"/><path style="opacity:.2;fill-rule:evenodd" d="M15 10.5v2h2.011l.989-1-.989-1h-.022z"/><path style="fill:#4c66cc;fill-rule:evenodd" d="M15 10v2h2.011L18 11l-.989-1h-.022z"/><path style="fill:none;stroke:#6c7f94" d="M6.5 11c3.658 0 5.342 7 9 7"/><path style="opacity:.2;fill-rule:evenodd" d="m5.008 10.5-.016.018L4 11.5l1.008 1H7v-2z"/><path style="fill:#4c66cc;fill-rule:evenodd" d="m5.008 10-.016.018L4 11l1.008 1H7v-2z"/><path style="opacity:.2;fill-rule:evenodd" d="M15 17.5v2h2.011l.989-1-.989-1h-.022z"/><path style="fill:#4c66cc;fill-rule:evenodd" d="M15 17v2h2.011L18 18l-.989-1h-.022z"/><circle style="fill:#3f3f3f" cx="16" cy="16" r="6"/><path style="fill:#fff" d="M14.962 18.712c0-.145.02-.268.063-.369.041-.1.1-.18.173-.243a.69.69 0 0 1 .262-.134 1.208 1.208 0 0 1 .63 0 .643.643 0 0 1 .433.378.93.93 0 0 1 .066.368c0 .14-.022.258-.065.357a.693.693 0 0 1-.176.246.697.697 0 0 1-.257.141 1.144 1.144 0 0 1-.63 0 .665.665 0 0 1-.436-.387.894.894 0 0 1-.063-.357m.153-1.585v-.343c0-.158.016-.3.048-.429.033-.128.082-.25.149-.366a1.75 1.75 0 0 1 .257-.338 3.78 3.78 0 0 1 .38-.341c.13-.102.24-.193.329-.274.09-.08.162-.16.218-.239a.815.815 0 0 0 .12-.247c.025-.087.038-.188.038-.302a.579.579 0 0 0-.179-.435c-.119-.115-.3-.172-.545-.172-.213 0-.442.045-.688.134-.245.09-.5.2-.763.33l-.472-1.025a4.855 4.855 0 0 1 .92-.406c.169-.053.34-.096.512-.127.174-.031.343-.046.51-.046.316 0 .6.038.853.113.254.076.469.186.645.332.176.145.311.321.405.528.095.207.142.443.142.71 0 .194-.022.368-.065.52a1.57 1.57 0 0 1-.192.427 2.12 2.12 0 0 1-.32.38 6.9 6.9 0 0 1-.448.387c-.13.102-.235.192-.318.267a1.302 1.302 0 0 0-.192.215.633.633 0 0 0-.095.212 1.144 1.144 0 0 0-.025.257v.278h-1.224z"/></svg>