<svg xmlns="http://www.w3.org/2000/svg" width="22" height="22" version="1"><path style="opacity:.2" d="M1 18.5v1c0 .554.446 1 1 1h19c.554 0 1-.446 1-1v-1H8z"/><rect style="fill:#3f3f3f" width="20.5" height="17.571" x="1.25" y="2.21" rx=".976" ry=".976"/><path style="opacity:.2" d="M5.031 16.915c.475-.643.62-.871.83-1.294.443-.895.592-1.537.593-2.556 0-.825-.063-1.226-.298-1.9l-.161-.463c-.016-.047-.004-.08.03-.08.071 0 2.28 1.157 2.411 1.264.09.072.099.132.119.753a9.724 9.724 0 0 1-.11 1.797c-.053.325.065.143.208-.322.258-.84.298-1.124.296-2.134-.003-1.046-.068-1.46-.364-2.307-.088-.255-.15-.474-.136-.487.014-.014.625.373 1.358.86l1.333.886.031.207c.055.365.03 1.748-.039 2.198l-.094.633-.027.203.11-.203c.148-.275.336-.832.44-1.306a7.092 7.092 0 0 0-.51-4.54c-.102-.218-.175-.408-.162-.42.053-.054 1.978 1.395 3.28 2.47.905.746 2.2 2.031 2.486 2.466.338.512.418.978.282 1.62-.073.342-.352.976-.48 1.092-.075.068-.085.064-.15-.06-.31-.597-1.44-.908-2.841-.781-1.963.176-4.346.854-7.571 2.153a14.16 14.16 0 0 1-.88.336c-.025 0-.018-.038.016-.085zm2.74-5.993c-.3-.078-.57-.157-.601-.177-.033-.021-.057-.13-.057-.252 0-.307-.11-.644-.369-1.13-.124-.234-.216-.433-.205-.444.011-.012.342.159.735.378l.714.399.101.283c.192.534.313 1.005.269 1.045-.024.021-.284-.024-.587-.102zm7.17-.914c-.289-.587-1.146-1.219-2.27-1.672l-.362-.147-.03-.332c-.043-.508-.232-1.15-.562-1.916-.09-.21-.158-.405-.149-.43.045-.135 1.676 1.088 2.353 1.763.903.899 1.312 1.644 1.314 2.39 0 .243-.089.597-.15.597-.012 0-.077-.114-.145-.253zm-4.697-.31-.612-.237-.055-.383a4.55 4.55 0 0 0-.453-1.365c-.086-.17-.15-.328-.142-.35.008-.023.363.19.79.474l.775.516.098.264c.133.359.368 1.27.336 1.302-.044.043-.104.025-.737-.22z"/><path style="fill:#fff" d="M5.031 16.415c.475-.643.62-.871.83-1.294.443-.895.592-1.537.593-2.556 0-.825-.063-1.226-.298-1.9l-.161-.463c-.016-.047-.004-.08.03-.08.071 0 2.28 1.157 2.411 1.264.09.072.099.132.119.753a9.724 9.724 0 0 1-.11 1.797c-.053.325.065.143.208-.322.258-.84.298-1.124.296-2.134-.003-1.046-.068-1.46-.364-2.307-.088-.255-.15-.474-.136-.487.014-.014.625.373 1.358.86l1.333.886.031.207c.055.365.03 1.748-.039 2.198l-.094.633-.027.203.11-.203c.148-.275.336-.832.44-1.306a7.092 7.092 0 0 0-.51-4.54c-.102-.218-.175-.408-.162-.42.053-.054 1.978 1.395 3.28 2.47.905.746 2.2 2.031 2.486 2.466.338.512.418.978.282 1.62-.073.342-.352.976-.48 1.092-.075.068-.085.064-.15-.06-.31-.597-1.44-.908-2.841-.781-1.963.176-4.346.854-7.571 2.153a14.16 14.16 0 0 1-.88.336c-.025 0-.018-.038.016-.085zm2.74-5.993c-.3-.078-.57-.157-.601-.177-.033-.021-.057-.13-.057-.252 0-.307-.11-.644-.369-1.13-.124-.234-.216-.433-.205-.444.011-.012.342.159.735.378l.714.399.101.283c.192.534.313 1.005.269 1.045-.024.021-.284-.024-.587-.102zm7.17-.914c-.289-.587-1.146-1.219-2.27-1.672l-.362-.147-.03-.332c-.043-.508-.232-1.15-.562-1.916-.09-.21-.158-.405-.149-.43.045-.135 1.676 1.088 2.353 1.763.903.899 1.312 1.644 1.314 2.39 0 .243-.089.597-.15.597-.012 0-.077-.114-.145-.253zm-4.697-.31-.612-.237-.055-.383a4.55 4.55 0 0 0-.453-1.365c-.086-.17-.15-.328-.142-.35.008-.023.363.19.79.474l.775.516.098.264c.133.359.368 1.27.336 1.302-.044.043-.104.025-.737-.22z"/><path style="fill:#f44336" d="M2 2c-.554 0-1 .446-1 1v1h7V2z"/><path style="fill:#9c27b0" d="M8 2h7v2H8z"/><path style="fill:#3f51b5" d="M15 2v2h7V3c0-.554-.446-1-1-1z"/><path style="fill:#ffeb3b" d="M1 18v1c0 .554.446 1 1 1h6v-2z"/><path style="fill:#8bc34a" d="M8 18h7v2H8z"/><path style="fill:#009688" d="M15 18v2h6c.554 0 1-.446 1-1v-1z"/><path style="fill:#00bcd4" transform="rotate(90)" d="M11-22h7v2h-7z"/><path style="fill:#2196f3" transform="rotate(90)" d="M4-22h7v2H4z"/><path style="fill:#ffc107" transform="rotate(90)" d="M11-3h7v2h-7z"/><path style="fill:#ff5722" transform="rotate(90)" d="M4-3h7v2H4z"/><path style="opacity:.2;fill:#fff" d="M2 2c-.554 0-1 .446-1 1v.5c0-.554.446-1 1-1h19c.554 0 1 .446 1 1V3c0-.554-.446-1-1-1H8zM1 4h2v.5H1zM1 11h2v.5H1zM20 4h2v.5h-2zM20 11h2v.5h-2zM1 18h21v.5H1z"/><path style="opacity:.2" d="M3 4h17v.5H3z"/></svg>