<svg xmlns="http://www.w3.org/2000/svg" width="22" height="22" version="1"><rect style="opacity:.2" width="21" height="18" x="1" y="2.5" rx="1.05" ry=".9"/><rect style="fill:#167abf" width="21" height="18" x="1" y="2" rx="1.05" ry=".9"/><path style="opacity:.1;fill:#fff" d="M2.05 2C1.47 2 1 2.402 1 2.9v.5c0-.498.47-.9 1.05-.9h18.9c.58 0 1.05.402 1.05.9v-.5c0-.498-.47-.9-1.05-.9z"/><path style="opacity:.2" d="M2.05 2C1.468 2 1 2.401 1 2.9v16.2c0 .499.468.9 1.05.9h5.775V2z"/><rect style="opacity:.2" width="2" height="20" x="6" y="1.5" rx="1" ry="1"/><path style="fill:none;stroke:#fff;stroke-width:2;stroke-linecap:round" d="M7 2v18"/><path style="opacity:.2" d="M11.014 4.5a1 1 0 1 0 0 2h4a1 1 0 1 0 0-2zm.986 4a1 1 0 1 0 0 2h5a1 1 0 1 0 0-2zm0 4a1 1 0 1 0 0 2h5a1 1 0 1 0 0-2zm-1 4a1 1 0 1 0 0 2h4a1 1 0 1 0 0-2z"/><path style="fill:none;stroke:#fff;stroke-width:2;stroke-linecap:round" d="M11.014 5h4M12 9h5M12 13h5M11 17h4"/></svg>