<svg xmlns="http://www.w3.org/2000/svg" width="22" height="22" version="1"><path style="fill:#4f4f4f" d="M21 20V2c0-.554-.446-1-1-1H2c-.554 0-1 .446-1 1v18c0 .554.446 1 1 1h18c.554 0 1-.446 1-1z"/><path style="fill:#8e8e8e" d="M21 20V2c0-.554-.446-1-1-1h-9v20h9c.554 0 1-.446 1-1z"/><path style="opacity:.2;fill-rule:evenodd" d="M4 6.5a1 1 0 0 0-1 1v8a1 1 0 0 0 1 1h1.188c1.651 0 2.957-.306 3.8-1.25C9.832 14.306 10 13.032 10 11.5c0-1.524-.17-2.797-1.012-3.742-.841-.946-2.147-1.258-3.8-1.258H4zm10 0a1 1 0 0 0-1 1v6a1 1 0 0 0-1 1v2a1 1 0 1 0 2 0v-1h4v1a1 1 0 0 0 1 1 1 1 0 0 0 1-1.158V14.5a1 1 0 0 0-1-1v-6a1 1 0 0 0-1-1h-4zm-9 2h.188c1.408 0 2.009.252 2.308.588.3.336.504 1.062.504 2.412 0 1.359-.207 2.085-.504 2.418-.297.333-.898.582-2.309.582H5v-6zm10 0h2v5h-2v-5z"/><path style="opacity:.1;fill:#fff" d="M2 1c-.554 0-1 .446-1 1v.5c0-.554.446-1 1-1h18c.554 0 1 .446 1 1V2c0-.554-.446-1-1-1H2z"/><path style="opacity:.2" d="M2 21.5c-.554 0-1-.446-1-1V20c0 .554.446 1 1 1h18c.554 0 1-.446 1-1v.5c0 .554-.446 1-1 1H2z"/><path style="fill:none;stroke:#fff;stroke-width:2;stroke-linecap:round;stroke-linejoin:round" d="M4 7v8h1.188C8.25 15 9 13.891 9 11c0-2.874-.75-4-3.813-4H4z"/><path style="fill:none;stroke:#3f3f3f;stroke-width:2;stroke-linecap:round;stroke-linejoin:round" d="M14 14V7h4v7zM13 16v-2h6v2h0"/></svg>