<svg xmlns="http://www.w3.org/2000/svg" width="22" height="22"><path style="opacity:.2" d="M10 4v1.528c-.9.055-1.706.207-2.416.594C6.621 6.648 6 7.75 6 9c0 1.333.86 2.37 1.833 2.815.973.446 2.043.552 3.043.677s1.93.27 2.457.51c.527.243.667.331.667.998 0 .468-.136.707-.592.991-.455.284-1.282.509-2.408.509-1.75 0-2.339-.56-2.668-1.055C8.002 13.951 8 13.5 8 13.5H6s-.003 1.049.668 2.055c.564.846 1.66 1.639 3.332 1.87V19h2v-1.547c.95-.094 1.78-.336 2.467-.765C15.387 16.115 16 15.104 16 14c0-1.333-.86-2.37-1.833-2.815-.973-.446-2.043-.552-3.043-.677s-1.93-.27-2.457-.51C8.14 9.754 8 9.666 8 9c0-.75.13-.898.541-1.122C8.953 7.653 9.817 7.5 11 7.5c1.792 0 2.422.504 2.719.875C14.016 8.746 14 9 14 9h2s-.016-.996-.719-1.875c-.589-.737-1.654-1.373-3.281-1.563V4z"/><path style="fill:#4f8d28" d="M11 1A10 10 0 0 0 1 11a10 10 0 0 0 10 10 10 10 0 0 0 10-10A10 10 0 0 0 11 1z"/><path style="opacity:.2" d="M10 4v1.528c-.9.055-1.706.207-2.416.594C6.621 6.648 6 7.75 6 9c0 1.333.86 2.37 1.833 2.815.973.446 2.043.552 3.043.677s1.93.27 2.457.51c.527.243.667.331.667.998 0 .468-.136.707-.592.991-.455.284-1.282.509-2.408.509-1.75 0-2.339-.56-2.668-1.055C8.002 13.951 8 13.5 8 13.5H6s-.003 1.049.668 2.055c.564.846 1.66 1.639 3.332 1.87V18.5h2v-1.047c.95-.094 1.78-.336 2.467-.765C15.387 16.115 16 15.104 16 14c0-1.333-.86-2.37-1.833-2.815-.973-.446-2.043-.552-3.043-.677s-1.93-.27-2.457-.51C8.14 9.754 8 9.666 8 9c0-.75.13-.898.541-1.122C8.953 7.653 9.817 7.5 11 7.5c1.75 0 2.339.56 2.668 1.055.33.494.332.945.332.945h2s.003-1.049-.668-2.055c-.564-.846-1.66-1.639-3.332-1.87V4z"/><path style="opacity:.2" d="M1.01 11.209A10 10 0 0 0 1 11.5a10 10 0 0 0 10 10 10 10 0 0 0 10-10 10 10 0 0 0-.01-.209A10 10 0 0 1 11 21a10 10 0 0 1-9.989-9.791z"/><path style="opacity:.1;fill:#fff" d="M11 1A10 10 0 0 0 1 11a10 10 0 0 0 .01.209A10 10 0 0 1 11 1.5a10 10 0 0 1 9.99 9.791A10 10 0 0 0 21 11 10 10 0 0 0 11 1z"/><path style="fill:none;stroke:#fff;stroke-width:2;stroke-linejoin:round" d="M15 9s0-3-4-3c-2.5 0-4 .5-4 2.5 0 4 8 1 8 5 0 1.572-1.5 2.5-4 2.5-4 0-4-3-4-3"/><path style="fill:#fff" d="M10 4h2v2.5h-2zM10 15.5h2V18h-2z"/></svg>