<svg xmlns="http://www.w3.org/2000/svg" width="22" height="22" version="1"><rect style="fill:#4b5b69" width="20" height="20" x="1" y="1" rx="1" ry="1"/><path style="opacity:.2" d="M4 5.5v3h1v-3zm4 3a1 1 0 0 0-1 1 1 1 0 0 0 1 1 1 1 0 0 0 1-1 1 1 0 0 0-1-1zm3 3v1h3v-1zm4 0v1h3v-1zm-7 1a1 1 0 0 0-1 1 1 1 0 0 0 .678.945L7.432 15.5h.884c.405-.62.786-1.215.684-2a1 1 0 0 0-1-1z"/><path style="fill:#fff" d="M4 5v3h1V5zm4 3a1 1 0 0 0-1 1 1 1 0 0 0 1 1 1 1 0 0 0 1-1 1 1 0 0 0-1-1zm3 3v1h3v-1zm4 0v1h3v-1zm-7 1a1 1 0 0 0-1 1 1 1 0 0 0 .678.945L7.432 15h.884c.405-.62.786-1.215.684-2a1 1 0 0 0-1-1z"/><path style="opacity:.1;fill:#fff" d="M2 1c-.554 0-1 .446-1 1v.5c0-.554.446-1 1-1h18c.554 0 1 .446 1 1V2c0-.554-.446-1-1-1z"/><path style="opacity:.2" d="M2 21.5c-.554 0-1-.446-1-1V20c0 .554.446 1 1 1h18c.554 0 1-.446 1-1v.5c0 .554-.446 1-1 1z"/></svg>