<svg width="22" height="22" xmlns="http://www.w3.org/2000/svg"><path d="M15 3.5a2 2 0 0 0-1.752 1.037c-1.243.08-2.255.35-3.12.844-1.034.591-1.835 1.412-2.835 2.412-.924.924-2.387 1.67-3.73 2.74C2.219 11.603 1 13.181 1 15.5c0 .75.306 1.448.764 1.97.457.524 1.048.902 1.705 1.194 1.313.584 2.92.836 4.531.836 3.222 0 5.471-1.057 6.707-2.293.618-.618.954-1.293 1.22-1.961.268-.668.497-1.359.968-2.299.41-.821 1.388-2.076 2.27-3.209.44-.566.857-1.108 1.187-1.611.33-.503.648-.877.648-1.627 0-.375-.174-.761-.398-1.006a2.015 2.015 0 0 0-.723-.492c-.497-.213-1.032-.303-1.643-.371-.449-.05-.967-.067-1.48-.086A2 2 0 0 0 15 3.5z" style="opacity:.2"/><path d="M15 3a2 2 0 0 0-1.752 1.037c-1.243.08-2.255.35-3.12.844-1.034.591-1.835 1.412-2.835 2.412-.924.924-2.387 1.67-3.73 2.74S1 12.681 1 15c0 .75.306 1.448.764 1.97.457.524 1.048.902 1.705 1.194C4.782 18.748 6.389 19 8 19c3.222 0 5.471-1.057 6.707-2.293.618-.618.954-1.293 1.22-1.96.268-.669.497-1.36.968-2.3.41-.82 1.388-2.076 2.27-3.209.44-.566.857-1.108 1.187-1.611C20.682 7.124 21 6.75 21 6c0-.375-.174-.761-.398-1.006a2.015 2.015 0 0 0-.723-.492c-.497-.213-1.032-.303-1.643-.371-.449-.05-.967-.067-1.48-.086A2 2 0 0 0 15 3z" style="fill:#38ac52"/><path d="M20.662 5.092A43.003 43.003 0 0 0 13 8c-4.771 2.386-8.233 6.806-10.18 9.824.208.124.422.24.649.34C4.782 18.748 6.389 19 8 19c3.222 0 5.471-1.057 6.707-2.293.618-.618.954-1.293 1.22-1.96.268-.669.497-1.36.968-2.3.41-.82 1.388-2.076 2.27-3.209.44-.566.857-1.108 1.187-1.611C20.682 7.124 21 6.75 21 6c0-.335-.148-.664-.338-.908z" style="fill:#d5bd80"/><path d="M15 3a2 2 0 0 0-1.752 1.037c-1.243.08-2.255.35-3.12.844-1.034.591-1.835 1.412-2.835 2.412-.924.924-2.387 1.67-3.73 2.74C2.219 11.103 1 12.681 1 15c0 .068.015.132.02.2.102-2.152 1.26-3.645 2.543-4.667 1.343-1.07 2.806-1.816 3.73-2.74 1-1 1.8-1.82 2.836-2.412.864-.494 1.876-.764 3.119-.844A2 2 0 0 1 15 3.5a2 2 0 0 1 1.756 1.045c.513.019 1.031.036 1.48.086.611.068 1.146.158 1.643.371.248.106.498.247.723.492.175.191.316.468.37.758.01-.084.028-.158.028-.252 0-.375-.174-.761-.398-1.006a2.015 2.015 0 0 0-.723-.492c-.497-.213-1.032-.303-1.643-.371-.449-.05-.967-.067-1.48-.086A2 2 0 0 0 15 3z" style="fill:#fff;opacity:.2"/><path d="M14.03 11.5a1 1 0 0 0-.477.105l-2 1a1 1 0 0 0-.385 1.45l4 6A1 1 0 0 0 16 20.5h3s.459.014.947-.23c.489-.245 1.053-.937 1.053-1.77s-.564-1.525-1.053-1.77S19 16.5 19 16.5h-1.434l-2.709-4.514a1 1 0 0 0-.828-.486z" style="opacity:.2"/><path d="M14.03 11a1 1 0 0 0-.477.105l-2 1a1 1 0 0 0-.385 1.45l4 6A1 1 0 0 0 16 20h3s.459.014.947-.23C20.436 19.525 21 18.833 21 18s-.564-1.525-1.053-1.77S19 16 19 16h-1.434l-2.709-4.514A1 1 0 0 0 14.03 11z" style="fill:#3fbf5b"/><path d="M14.03 11a1 1 0 0 0-.477.105l-2 1a.988.988 0 0 0-.512 1.124.991.991 0 0 1 .512-.624l2-1a1 1 0 0 1 1.304.381l2.71 4.514H19s.459-.014.947.23c.437.219.912.804 1.012 1.52.012-.084.041-.162.041-.25 0-.833-.564-1.525-1.053-1.77S19 16 19 16h-1.434l-2.709-4.514A1 1 0 0 0 14.03 11z" style="fill:#fff;opacity:.2"/><circle cx="15" cy="5.5" r="1" style="opacity:.1"/><circle cx="15" cy="5" r="1" style="fill:#3f3f3f"/><path d="M5 11.5c-.972 0-1.823.359-2.414.906s-.938 1.235-1.16 1.902C.98 15.644 1 17 1 17.5c0 1.167.307 1.971.793 2.457.243.243.514.387.734.46.22.074.473.083.473.083h9s.459.014.947-.23c.489-.245 1.053-.937 1.053-1.77s-.564-1.525-1.053-1.77S12 16.5 12 16.5h-2c0-.5.032-1.711-.63-2.871-.664-1.16-2.12-2.13-4.37-2.13z" style="opacity:.2"/><path d="M5 11c-.972 0-1.823.36-2.414.906-.591.547-.938 1.235-1.16 1.903C.98 15.144 1 16.5 1 17c0 1.167.307 1.971.793 2.457.243.243.514.388.734.461.22.073.473.082.473.082h9s.459.014.947-.23C13.436 19.525 14 18.833 14 18s-.564-1.525-1.053-1.77C12.46 15.986 12 16 12 16h-2c0-.5.032-1.711-.63-2.871C8.705 11.969 7.25 11 5 11z" style="fill:#5dca75"/><path d="M5 11c-.972 0-1.823.36-2.414.906s-.938 1.235-1.16 1.903C.98 15.144 1 16.5 1 17c0 .063.01.115.012.176.002-.614.025-1.7.414-2.867.222-.668.569-1.356 1.16-1.903S4.028 11.5 5 11.5c2.25 0 3.706.969 4.37 2.129.662 1.16.63 2.371.63 2.871h2s.459-.014.947.23c.437.219.912.804 1.012 1.52.012-.084.041-.162.041-.25 0-.833-.564-1.525-1.053-1.77S12 16 12 16h-2c0-.5.032-1.711-.63-2.871C8.705 11.969 7.25 11 5 11z" style="fill:#fff;opacity:.2"/></svg>