<svg xmlns="http://www.w3.org/2000/svg" width="22" height="22" version="1"><rect fill="#74b336" width="20" height="20" x="1" y="1" rx="1" ry="1"/><path fill="#fff" opacity=".2" d="M2 1c-.554 0-1 .446-1 1v.5c0-.554.446-1 1-1h18c.554 0 1 .446 1 1V2c0-.554-.446-1-1-1H2z"/><path opacity=".2" d="M2 21.5c-.554 0-1-.446-1-1V20c0 .554.446 1 1 1h18c.554 0 1-.446 1-1v.5c0 .554-.446 1-1 1H2zM17.556 5.772l-8.485 8.486-4.949-4.95L2 11.43l4.95 4.949L9.072 18.5l2.12-2.121 8.486-8.486-2.121-2.12z"/><path fill="#fff" d="m17.556 5.272-8.485 8.486-4.949-4.95L2 10.93l4.95 4.949L9.072 18l2.12-2.121 8.486-8.486-2.121-2.12z"/></svg>