<svg xmlns="http://www.w3.org/2000/svg" width="22" height="22"><path style="fill:none" d="M-1-1h582v402H-1z" transform="translate(0 -490)"/><path style="opacity:.2" d="M5.419 5.5C2.425 5.5 0 8.022 0 11s2.425 5.5 5.419 5.5h8.831a.75.75 0 1 0 0-1.5H5.419C3.274 15 1.5 13.16 1.5 11s1.774-4 3.919-4H16.55c2.144 0 3.949 1.846 3.949 4 0 1.926-1.526 3.647-3.368 3.947a.75.75 0 1 0 .241 1.48C19.963 16.007 22 13.698 22 11c0-2.984-2.456-5.5-5.45-5.5z"/><rect style="fill:#fff" width="19" height="8" x="1.5" y="6.5" rx="3" ry="3"/><path style="fill:none;stroke:#f95454;stroke-width:1.5;stroke-linecap:round;stroke-linejoin:round;stroke-miterlimit:10" class="st0" d="M14.25 15.25H5.419C2.85 15.25.75 13.069.75 10.5v0c0-2.569 2.1-4.75 4.669-4.75h11.132c2.569 0 4.699 2.181 4.699 4.75v0c0 2.312-1.782 4.327-3.998 4.688"/><path style="fill:none;stroke:#f95454;stroke-width:.95187312;stroke-linecap:round;stroke-linejoin:round;stroke-miterlimit:10" class="st0" d="M3.961 8.579c1.061-.353 2.104.219 2.46 1.28a2.022 2.022 0 0 1-1.28 2.56 2.022 2.022 0 0 1-2.56-1.28 2.421 2.421 0 0 1-.067-1.132"/><path style="fill:none;stroke:#65b5f7;stroke-linecap:round" d="M9.5 9v3M11 10.5H8M10.56 11.56 8.44 9.44M8.44 11.56l2.12-2.12M14 9v3M15.5 10.5h-3M15.06 11.56l-2.12-2.12M12.94 11.56l2.12-2.12M18.5 9v3M20 10.5h-3M19.56 11.56l-2.12-2.12M17.44 11.56l2.12-2.12"/><path style="opacity:.2" d="M1.513 10.75c-.006.083-.013.166-.013.25 0 2.16 1.774 4 3.919 4H16.947a.75.75 0 0 1 .185-.053c1.842-.3 3.368-2.02 3.368-3.947 0-.082-.007-.163-.013-.244-.128 1.82-1.595 3.405-3.355 3.691a.75.75 0 0 0-.185.053H5.42c-2.061 0-3.776-1.7-3.906-3.75z"/><path style="opacity:.2;fill:#fff" d="M5.419 5C2.425 5 0 7.522 0 10.5c0 .084.009.167.013.25C.145 7.883 2.51 5.5 5.419 5.5H16.55c2.912 0 5.309 2.384 5.436 5.26.005-.086.013-.172.013-.26C22 7.516 19.544 5 16.55 5z"/></svg>