<svg xmlns="http://www.w3.org/2000/svg" width="22" height="22"><rect style="opacity:.2" width="16" height="12" x="-20.5" y="-17" rx="1" ry="1" transform="matrix(0 -1 -1 0 0 0)"/><rect style="fill:#8e8e8e" width="16" height="12" x="-20" y="-17" rx="1" ry="1" transform="matrix(0 -1 -1 0 0 0)"/><rect style="opacity:.2" width="16" height="20" x="-18.5" y="-21" rx="1" ry="1" transform="matrix(0 -1 -1 0 0 0)"/><rect style="fill:#4f4f4f" width="16" height="20" x="-18" y="-21" rx="1" ry="1" transform="matrix(0 -1 -1 0 0 0)"/><path style="fill:#333" transform="matrix(0 -1 -1 0 0 0)" d="M-15.615-18.46-4-19v16h-12z"/><path style="opacity:.1;fill:#fff" d="M2 2c-.554 0-1 .446-1 1v.5c0-.554.446-1 1-1h18c.554 0 1 .446 1 1V3c0-.554-.446-1-1-1H2z"/><path style="opacity:.2" d="m19 4.5-16 12h15.18s.82 0 .82-.75V4.5zm-3 6v3h-4l4-3z"/><path style="fill:#cd3840" d="M19 4 3 16h15.18s.82 0 .82-.75V4zm-3 6v3h-4l4-3z"/><path style="opacity:.2;fill:#fff" d="M19 4 3 16h.666L19 4.5V4zm-6.334 9-.666.5h4V13h-3.334z"/></svg>