<svg xmlns="http://www.w3.org/2000/svg" width="22" height="22" version="1"><rect style="opacity:.2" width="19" height="19" x="-20.5" y="-20" rx=".95" ry=".95" transform="matrix(0 -1 -1 0 0 0)"/><rect style="fill:#4f4f4f" width="19" height="19" x="-20" y="-20" rx=".95" ry=".95" transform="matrix(0 -1 -1 0 0 0)"/><path style="opacity:.2" d="M6.977 4.5a2.03 2.03 0 0 0-1.747 1H16v-1zM5 6.5v1h11v-1zm0 2v1h4v-1zm0 2v1h4v-1zm0 2v1h4v-1zm0 2v1h11v-1zm.303 2c.356.597 1 1 1.746 1H16v-1z"/><path style="fill:#00ff03" d="M6.977 4A2.03 2.03 0 0 0 5.23 5H16V4z"/><path style="fill:#00ff73" d="M5 6v1h11V6z"/><path style="fill:#00ff8a" d="M5 8v1h4V8z"/><path style="fill:#00feb8" d="M5 10v1h4v-1z"/><path style="fill:#00fef2" d="M5 12v1h4v-1z"/><path style="fill:#00dbfe" d="M5 14v1h11v-1z"/><path style="fill:#00b8fe" d="M5.303 16c.356.597 1 1 1.746 1H16v-1z"/><path style="opacity:.1;fill:#fff" d="M1.95 1a.947.947 0 0 0-.95.95v.5c0-.527.423-.95.95-.95h17.1c.527 0 .95.423.95.95v-.5a.947.947 0 0 0-.95-.95z"/></svg>