<svg xmlns="http://www.w3.org/2000/svg" width="22" height="22"><ellipse style="fill:#3f3f3f" cx="12" cy="11" rx="5.5" ry="7"/><path style="opacity:.2" d="M12.5 1.5a8.5 10 0 0 0-8.5 10 8.5 10 0 0 0 8.5 10 8.5 10 0 0 0 8.5-10 8.5 10 0 0 0-8.5-10zm0 4c2.151 0 4.5 2.315 4.5 6s-2.349 6-4.5 6-4.5-2.315-4.5-6 2.349-6 4.5-6z"/><path style="fill:#4f4f4f" d="M12.5 1A8.5 10 0 0 0 4 11a8.5 10 0 0 0 8.5 10A8.5 10 0 0 0 21 11a8.5 10 0 0 0-8.5-10zm0 4c2.151 0 4.5 2.315 4.5 6s-2.349 6-4.5 6S8 14.685 8 11s2.349-6 4.5-6z"/><path style="opacity:.1;fill:#fff" d="M12.5 1A8.5 10 0 0 0 4 11a8.5 10 0 0 0 .009.21A8.5 10 0 0 1 12.5 1.5a8.5 10 0 0 1 8.491 9.79 8.5 10 0 0 0 .01-.29 8.5 10 0 0 0-8.5-10zM8.01 11.25c-.003.084-.01.165-.01.25 0 3.685 2.349 6 4.5 6s4.5-2.315 4.5-6c0-.085-.007-.166-.01-.25-.105 3.538-2.389 5.75-4.49 5.75-2.101 0-4.385-2.212-4.49-5.75z"/><path style="opacity:.2" d="M5.942 1.472a2 2 0 0 0-1.362.59l-3.97 4a2 2 0 1 0 2.837 2.819L4 8.324v11.147a2 2 0 1 0 4 0v-16a2 2 0 0 0-2.058-1.999z"/><path style="fill:none;stroke:#e4e4e4;stroke-width:4;stroke-linecap:round;stroke-linejoin:round" d="m2.028 6.971 3.972-4v16"/><path style="opacity:.2;fill:#fff" d="M5.942.973a2 2 0 0 0-1.362.59l-3.97 4a2 2 0 0 0-.592 1.685A2 2 0 0 1 .61 6.062l3.97-4a2 2 0 0 1 1.362-.59A2 2 0 0 1 8 3.472v-.5A2 2 0 0 0 5.942.973z"/></svg>