<svg xmlns="http://www.w3.org/2000/svg" width="22" height="22" version="1"><rect style="fill:#8e8e8e" width="16" height="12" x="-20" y="-17" rx="1" ry="1" transform="matrix(0 -1 -1 0 0 0)"/><rect style="fill:#3f3f3f" width="16" height="20" x="-18" y="-21" rx="1" ry="1" transform="matrix(0 -1 -1 0 0 0)"/><rect style="opacity:.2" width="12" height="16" x="-16.5" y="-19" rx="0" ry="0" transform="matrix(0 -1 -1 0 0 0)"/><path style="opacity:.1;fill:#fff" d="M2 2c-.554 0-1 .446-1 1v.5c0-.554.446-1 1-1h18c.554 0 1 .446 1 1V3c0-.554-.446-1-1-1z"/><path style="opacity:.2" d="M5 19v.5c0 .554.446 1 1 1h10c.554 0 1-.446 1-1V19c0 .554-.446 1-1 1H6c-.554 0-1-.446-1-1zM1 17v.5c0 .554.446 1 1 1h18c.554 0 1-.446 1-1V17c0 .554-.446 1-1 1H2c-.554 0-1-.446-1-1z"/><rect style="fill:#2584d4" width="12" height="16" x="-16" y="-19" rx="0" ry="0" transform="matrix(0 -1 -1 0 0 0)"/><rect style="opacity:.2" width="6" height="10" x="4" y="5.5" rx="1" ry="1"/><rect style="fill:#5ebae6" width="6" height="10" x="4" y="5" rx="1" ry="1"/><rect style="opacity:.2" width="6" height="4" x="12" y="5.5" rx="1" ry="1"/><rect style="fill:#5ebae6" width="6" height="4" x="12" y="5" rx="1" ry="1"/><rect style="opacity:.2" width="6" height="4" x="12" y="11.5" rx="1" ry="1"/><rect style="fill:#5ebae6" width="6" height="4" x="12" y="11" rx="1" ry="1"/><path style="opacity:.1;fill:#fff" d="M5 5c-.554 0-1 .446-1 1v.5c0-.554.446-1 1-1h4c.554 0 1 .446 1 1V6c0-.554-.446-1-1-1H5zM13 5c-.554 0-1 .446-1 1v.5c0-.554.446-1 1-1h4c.554 0 1 .446 1 1V6c0-.554-.446-1-1-1h-4zM13 11c-.554 0-1 .446-1 1v.5c0-.554.446-1 1-1h4c.554 0 1 .446 1 1V12c0-.554-.446-1-1-1h-4z"/></svg>