<svg xmlns="http://www.w3.org/2000/svg" width="22" height="22" version="1"><path style="opacity:.2" d="M11 1.5a10 10 0 0 0-10 10 10 10 0 0 0 10 10h9c.554 0 1-.446 1-1v-18c0-.554-.446-1-1-1z"/><path style="fill:#e4e4e4" d="M11 1A10 10 0 0 0 1 11a10 10 0 0 0 10 10h9c.554 0 1-.446 1-1V2c0-.554-.446-1-1-1z"/><path style="fill:#305483" d="m10 11-4 1v-2z"/><path style="fill:#adadad;fill-rule:evenodd" d="M11.571 5a.57.57 0 0 0-.571.563v1.875a.57.57 0 0 0 .571.562h6.858A.57.57 0 0 0 19 7.437V5.563A.57.57 0 0 0 18.429 5zM12.614 10c-.337 0-.614.226-.614.5v1c0 .274.277.5.614.5h7.772c.337 0 .614-.226.614-.5v-1c0-.274-.277-.5-.614-.5z"/><g style="fill:#2f5d97"><path style="fill:#305483;fill-rule:evenodd" d="M4.976 20.176c1.637-2.101 5.247-12.562 17.141-8.31 0 0-10.859-.908-12.121 8.436M4.598 28.525c1.636 2.1 5.625 12.668 17.52 8.415 0 0-11.175.14-12.186-7.942" transform="matrix(.37083 0 0 .36844 2.095 2.014)"/></g><path style="opacity:.2;fill-rule:evenodd" d="M5 9.5c-1.102 0-2 .898-2 2 0 1.102.898 2 2 2 1.102 0 2-.898 2-2 0-1.102-.898-2-2-2z"/><path style="fill:#3594f3;fill-rule:evenodd" d="M5 9c-1.102 0-2 .898-2 2 0 1.102.898 2 2 2 1.102 0 2-.898 2-2 0-1.102-.898-2-2-2z"/><path style="fill:#adadad;fill-rule:evenodd" d="M11.571 14a.57.57 0 0 0-.571.563v1.874a.57.57 0 0 0 .571.563h6.858a.57.57 0 0 0 .571-.563v-1.875a.57.57 0 0 0-.571-.562z"/><path style="opacity:.2;fill:#fff" d="M11 1A10 10 0 0 0 1 11a10 10 0 0 0 .01.209A10 10 0 0 1 11 1.5h9c.554 0 1 .446 1 1V2c0-.554-.446-1-1-1z"/><path style="opacity:.2;fill-rule:evenodd" d="M11.572 5a.57.57 0 0 0-.572.563v.5a.57.57 0 0 1 .572-.563h6.856a.57.57 0 0 1 .572.563v-.5A.57.57 0 0 0 18.428 5zm1.041 5c-.336 0-.613.226-.613.5v.5c0-.274.277-.5.613-.5h7.774c.336 0 .613.226.613.5v-.5c0-.274-.277-.5-.613-.5zm-1.04 4a.57.57 0 0 0-.573.563v.5a.57.57 0 0 1 .572-.563h6.856a.57.57 0 0 1 .572.563v-.5a.57.57 0 0 0-.572-.563z"/><path style="opacity:.2;fill:#fff;fill-rule:evenodd" d="M11 7.438v.5a.57.57 0 0 0 .572.562h6.856A.57.57 0 0 0 19 7.937v-.5a.57.57 0 0 1-.572.563h-6.856A.57.57 0 0 1 11 7.437zm1 4.062v.5c0 .274.277.5.613.5h7.774c.336 0 .613-.226.613-.5v-.5c0 .274-.277.5-.613.5h-7.774c-.336 0-.613-.226-.613-.5zm-1 4.938v.5a.57.57 0 0 0 .572.562h6.856a.57.57 0 0 0 .572-.563v-.5a.57.57 0 0 1-.572.563h-6.856a.57.57 0 0 1-.572-.563z"/></svg>