<svg xmlns="http://www.w3.org/2000/svg" width="22" height="22" version="1"><path style="opacity:.2;fill:none;stroke:#000;stroke-width:6" d="m4 4.5 14 14"/><rect style="opacity:.2" width="6" height="20" x="15" y="1.5" rx="2" ry="2"/><rect style="opacity:.2" width="6" height="20" x="1" y="1.5" rx="2" ry="2"/><path style="fill:none;stroke:#3f3f3f;stroke-width:6" d="m4 4 14 14"/><path style="opacity:.1;fill:#fff" d="M6.121 1.879 1.88 6.12l.25.25L6.12 2.38l13.75 13.75.25-.25z"/><rect style="fill:#4f4f4f" width="6" height="20" x="1" y="1" rx="2" ry="2"/><rect style="fill:#4f4f4f" width="6" height="20" x="15" y="1" rx="2" ry="2"/><path style="opacity:.1;fill:#fff" d="M3 1c-1.108 0-2 .892-2 2v.5c0-1.108.892-2 2-2h2c1.108 0 2 .892 2 2V3c0-1.108-.892-2-2-2zM17 1c-1.108 0-2 .892-2 2v.5c0-1.108.892-2 2-2h2c1.108 0 2 .892 2 2V3c0-1.108-.892-2-2-2z"/></svg>