<svg xmlns="http://www.w3.org/2000/svg" width="22" height="22" version="1"><circle style="fill:#f57c00" cx="11" cy="11" r="9.5"/><ellipse style="opacity:.2" cx="11" cy="11.502" rx="10" ry="9.998"/><path style="fill:#1e88e5" d="m11 10.998 9.668-2.588a10.01 10.002 0 0 0-7.08-7.062z"/><path style="fill:#43a047" d="m11 10.998 7.078 7.073a10.01 10.002 0 0 0 2.58-9.658z"/><path style="fill:#fbc02d" d="M11 10.998 8.41 20.66a10.01 10.002 0 0 0 9.66-2.597z"/><path style="fill:#f57c00" d="m11 10.998-9.668 2.589a10.01 10.002 0 0 0 7.08 7.061z"/><path style="fill:#e53935" d="M11 10.998 3.922 3.926a10.01 10.002 0 0 0-2.58 9.658z"/><path style="fill:#8e24aa" d="m11 10.998 2.59-9.66a10.01 10.002 0 0 0-9.66 2.596z"/><path style="opacity:.2" d="M11 5.503a6 6 0 1 0 6 5.999v-4.5c0-.83-.669-1.5-1.5-1.5zm4 1a1 1 0 0 1 1 1 1 1 0 0 1-1 1 1 1 0 0 1-1-1 1 1 0 0 1 1-1z"/><path style="fill:#fff" d="M11 5.003a6 6 0 1 0 6 5.999v-4.5c0-.83-.669-1.499-1.5-1.499zm4 1a1 1 0 0 1 1 1 1 1 0 0 1-1 1 1 1 0 0 1-1-1 1 1 0 0 1 1-1z"/><path style="opacity:.2;fill:#fff" d="M11 1.004a10 9.998 0 0 0-10 9.998 10 9.998 0 0 0 .01.29A10 9.998 0 0 1 11 1.505a10 9.998 0 0 1 9.99 9.707A10 9.998 0 0 0 21 11a10 9.998 0 0 0-10-9.997z"/></svg>