<svg xmlns="http://www.w3.org/2000/svg" width="22" height="22"><g transform="translate(-1 -1)"><circle style="opacity:.2" cx="12" cy="12.5" r="10"/><circle style="fill:#fb6651" cx="12" cy="12" r="10"/><path style="opacity:.2" d="M2.219 14.025a10 10 0 0 0 .146.651 10 10 0 0 0 .053.156c.264-.128.517-.256.656-.367.82-.658 2.255-1.944 2.4-1.944.147 0 .4-.063.505.301.104.363-.21 1.01-.21 1.01s-.317.543-.306.842c.15 1.075 1.087 2.152 1.967 2.299.634.087 1.57.029 1.57.029l.021-.158c-.02-.241-.517-.346-.517-.346-.004.003-.63.121-.904-.004-.462-.212-1.002-1.043-1.002-1.148 0-.106.154-.44.154-.44s.51.069.68.069c.169 0 .605.021.605.021l.328.363c.103.199.23.101.4.147l.731.006.504-.01v-.258c0 .257 0-.242-.326-.25-.283-.013-.653-.05-.684-.152-.052-.168.022-.246.022-.246s.363-.178 1.133-.026a6.362 6.362 0 0 1 1.355.432c-.219.405-.422.707-.461 1.123-.04.377-.039.377.209.377H12.5s-.001-.5-.34-.475c-.238-.008-.512-.023-.512-.043 0-.095.454-.707.454-.707l.392-.23s.736.23 1.313.377c.577.146 1.224.074 1.224.074.225.136.268.462.379.654.089.349.089.351.283.358.426.011.858-.008 1.274-.039 0 0 .034-.469-.658-.469 0 0-.253-.16-.299-.398-.046-.238-.02-1.077-.02-1.077l.342-.027.451.455.279.027.391.485s.42.057.68-.041c.26-.099.729-.29 1.002-.584.272-.295.453-.993.361-1.385-.092-.392-.6-.861-.6-.861-1.075-1.02-2.395-2.094-3.435-2.104-.166 0-.579.258-.818.086-1.488-1.026-3.118-2.001-4.903-2.074 0 0-.199 0-.285.01-1.955-.011-3.049 1.34-4.012 2.535-.425.53-.765.951-.765.951-.742.767-1.634 1.551-2.46 2.025zM17.5 12.502a.5.5 0 1 1 0 1 .5.5 0 0 1 0-1z"/><path style="fill:#fff" d="M2.133 13.596c.045.27.103.536.17.8.325-.152.608-.3.771-.431.82-.658 2.255-1.944 2.4-1.944.147 0 .4-.063.505.301.104.363-.21 1.01-.21 1.01s-.317.543-.306.842c.15 1.075 1.087 2.152 1.967 2.299.634.087 1.57.029 1.57.029l.021-.158c-.02-.241-.517-.346-.517-.346-.004.003-.63.121-.904-.004-.462-.212-1.002-1.043-1.002-1.148 0-.106.154-.44.154-.44s.51.069.68.069c.169 0 .605.021.605.021l.328.363c.103.199.23.101.4.147l.731.006.504-.01v-.258c0 .257 0-.242-.326-.25-.283-.013-.653-.05-.684-.152-.052-.168.022-.246.022-.246s.364-.178 1.133-.026a6.362 6.362 0 0 1 1.355.432c-.219.405-.422.707-.461 1.123-.04.377-.039.377.209.377H12.5s-.001-.5-.34-.475c-.238-.008-.512-.023-.512-.043 0-.095.454-.707.454-.707l.392-.23s.736.23 1.313.377c.577.146 1.224.074 1.224.074.225.136.268.462.379.654.089.349.089.351.283.358.426.011.858-.008 1.274-.039 0 0 .034-.469-.658-.469 0 0-.253-.16-.299-.398-.046-.238-.02-1.077-.02-1.077l.342-.027.451.455.279.027.391.485s.42.057.68-.041c.26-.099.729-.29 1.002-.584.272-.295.453-.993.361-1.385-.092-.392-.6-.861-.6-.861-1.075-1.02-2.395-2.094-3.435-2.104-.166 0-.579.258-.818.086-1.488-1.026-3.118-2.001-4.903-2.074 0 0-.199 0-.285.01-1.955-.011-3.049 1.34-4.012 2.535-.425.53-.765.951-.765.951-.768.794-1.696 1.63-2.545 2.096zM17.5 12.002a.5.5 0 1 1 0 1 .5.5 0 0 1 0-1z"/><path style="opacity:.2;fill:#fff" d="M12 2A10 10 0 0 0 2 12a10 10 0 0 0 .01.293A10 10 0 0 1 12 2.5a10 10 0 0 1 9.99 9.707A10 10 0 0 0 22 12 10 10 0 0 0 12 2z"/></g></svg>