<svg xmlns="http://www.w3.org/2000/svg" width="22" height="22"><path style="opacity:.2" d="M9.148 21.34c-4.536-.817-7.845-4.523-8.129-9.103C.647 6.226 5.725 1.145 11.732 1.52c2.353.147 4.514 1.07 6.18 2.637C19.93 6.057 20.993 8.478 21 11.184c.003 1.297-.17 2.102-.77 3.59-.247.611-.515 1.352-.596 1.647-.31 1.132-.12 2.298.61 3.737.235.465.404.87.375.898-.03.029-.502-.118-1.05-.326-2.05-.777-2.843-.783-4.684-.032-1.896.773-3.818.988-5.737.642z"/><path style="fill:#465c66" d="M9.148 20.84c-4.536-.817-7.845-4.523-8.129-9.103C.647 5.726 5.725.645 11.732 1.02c2.353.147 4.514 1.07 6.18 2.637C19.93 5.557 20.993 7.978 21 10.684c.003 1.297-.17 2.102-.77 3.59-.247.611-.515 1.352-.596 1.647-.31 1.132-.12 2.298.61 3.737.235.465.404.87.375.898-.03.029-.502-.118-1.05-.326-2.05-.777-2.843-.783-4.684-.032-1.896.773-3.818.988-5.737.642z"/><path style="opacity:.2" d="M10.777 4.5c-.607.005-1.067.052-1.439.145-1.243.31-1.88.894-1.861 1.704.016.703.362 1.161 1.981 2.343.802.586 1.44 1.114 1.42 1.174-.02.06-.387.196-.815.302-1.689.42-3.092 1.406-3.689 2.592-.503 1.174-.492 2.418-.004 3.393.797 1.582 2.552 2.468 4.62 2.333a7.865 7.865 0 0 0 1.456-.254c.825-.249 1.662-.775 2.314-1.414 1.22-1.176 1.56-3.262.928-4.614-.513-1.033-1.547-1.93-3.552-3.084-2.829-1.626-3.187-1.884-3.533-2.27-.183-.203-.331-.48-.331-.614 0-.925 1.803-1.443 3.065-.862.295.136.85.495 1.234.799 1.127.892 1.664 1.012 2.228.498.64-.585.06-1.463-1.24-1.874-.627-.199-1.77-.305-2.782-.297zm.767 6c.241 0 .37.117.867.574 1.148 1.056 1.7 2.333 1.57 3.633-.178 1.475-1.196 2.755-2.92 2.793-1.792.015-3.05-1.777-3.061-3.295-.006-1.3.206-1.903.915-2.593.543-.529 1.48-.963 2.333-1.083.123-.017.216-.03.296-.029z"/><path style="fill:#fff" d="M10.777 4c-.607.005-1.067.052-1.439.145-1.243.31-1.88.894-1.861 1.704.016.703.362 1.161 1.981 2.343.802.586 1.44 1.114 1.42 1.174-.02.06-.387.196-.815.302-1.689.42-3.092 1.406-3.689 2.592-.503 1.175-.492 2.418-.004 3.393.797 1.582 2.552 2.468 4.62 2.333a7.865 7.865 0 0 0 1.456-.254c.825-.249 1.662-.775 2.314-1.414 1.22-1.176 1.56-3.262.928-4.614-.513-1.033-1.547-1.93-3.552-3.084-2.829-1.626-3.187-1.884-3.533-2.27-.183-.203-.331-.48-.331-.614 0-.925 1.803-1.443 3.065-.862.295.136.85.495 1.234.799 1.127.892 1.664 1.012 2.228.498.64-.585.06-1.463-1.24-1.874-.627-.199-1.77-.305-2.782-.297zm.767 6c.241 0 .37.117.867.574 1.148 1.056 1.7 2.333 1.57 3.633-.178 1.475-1.196 2.755-2.92 2.793-1.792.015-3.05-1.777-3.061-3.295-.006-1.3.206-1.903.915-2.593.543-.529 1.48-.963 2.333-1.083.123-.017.216-.03.296-.029z"/><path style="opacity:.1;fill:#fff" d="M11.17 1C5.536.964.867 5.705 1.008 11.365 1.148 5.744 6.017 1.163 11.73 1.52c2.354.146 4.514 1.068 6.18 2.636 1.946 1.832 3.001 4.146 3.081 6.733.001-.071.008-.131.008-.205-.006-2.706-1.07-5.127-3.089-7.028-1.666-1.568-3.826-2.49-6.18-2.636a10.044 10.044 0 0 0-.56-.02zm8.33 16.241c-.053.885.188 1.821.743 2.916.07.137.114.242.168.36.112.03.197.05.208.039.03-.03-.14-.434-.376-.899-.451-.89-.696-1.677-.743-2.416z"/></svg>