<svg xmlns="http://www.w3.org/2000/svg" width="22" height="22" viewBox="0 0 44 44"><path opacity=".1" d="M42 39v-2L4.5 7H2l40 32zm-8-24v-2h-9.195l2.5 2H34z"/><path opacity=".2" d="m42 39-2.5-2H6s-4 0-4-4v2c0 4 4 4 4 4h36zM19.195 29 10 21.645v2l6.695 5.356h2.5z"/><path opacity=".2" d="M10 21.645v1L17.945 29h1.25L10 21.645zM2 33v1c0 4 4 4 4 4h36l-1.25-1H6s-4 0-4-4z"/><path fill="#3f51b5" d="M42 38V10c0-4-4-4-4-4H2l40 32zm-8-16.645L24.805 14H34v7.356z"/><path fill="#03a9f4" d="M2 6v28c0 4 4 4 4 4h36L2 6zm8 16.645L19.195 30H10v-7.355z"/><path fill="#fff" opacity=".1" d="m2 6 1.25 1H38s4 0 4 4v-1c0-4-4-4-4-4z"/><path fill="#fff" opacity=".2" d="M2 6v1l38.75 31H42z"/></svg>