<svg xmlns="http://www.w3.org/2000/svg" width="22" height="22"><path style="opacity:.2" d="M6.442 21.5c-.607 0-1.352-.438-1.655-.973l-4.56-8.054c-.303-.535-.303-1.411 0-1.946l4.56-8.054C5.09 1.938 5.835 1.5 6.442 1.5h9.116c.607 0 1.352.438 1.655.973l4.56 8.054c.303.535.303 1.411 0 1.946l-4.56 8.054c-.303.535-1.048.973-1.655.973z"/><path style="fill:#17b5f9" d="M6.442 21c-.607 0-1.352-.438-1.655-.973l-4.56-8.054c-.303-.535-.303-1.411 0-1.946l4.56-8.054C5.09 1.438 5.835 1 6.442 1h9.116c.607 0 1.352.438 1.655.973l4.56 8.054c.303.535.303 1.411 0 1.946l-4.56 8.054c-.303.535-1.048.973-1.655.973z"/><path style="opacity:.2" d="m3.639 4.5-1.698 3h13.22L1.624 14.943 3.639 18.5H18.36l1.698-3H6.839l13.536-7.443L18.361 4.5z"/><path style="fill:#fff" d="M3.639 4 1.94 7h13.22L1.624 14.443 3.639 18H18.36l1.698-3H6.839l13.536-7.443L18.361 4z"/><path style="opacity:.2;fill:#fff" d="M6.441 1c-.607 0-1.35.438-1.654.974l-4.56 8.052c-.187.332-.258.793-.213 1.224.027-.266.098-.52.214-.724l4.56-8.052C5.09 1.938 5.833 1.5 6.44 1.5h9.118c.607 0 1.35.438 1.654.974l4.56 8.052c.115.205.186.458.213.724.045-.43-.026-.892-.214-1.224l-4.56-8.052C16.91 1.438 16.167 1 15.56 1z"/></svg>