<svg xmlns="http://www.w3.org/2000/svg" width="22" height="22"><g transform="translate(-1 -1)"><path style="opacity:.2" d="M10 17.5h4l4 2s1-1 3-1c1 1 1 2 1 2l-3 1h-4l-3-2-3 2H5l-3-1s0-2 1-2c2 0 3 1 3 1z"/><path style="fill:#f77d00" d="M6 17h12l1 2s1-1 2-1 1 2 1 2l-3 1h-4l-3-2-3 2H5l-3-1s0-2 1-2 2 1 2 1z"/><path style="opacity:.2" d="M14 22.5h6c0-2-2.34-2.85-4-3-1.485-.134-4 2-4 2s-3.242-2.361-5-2c-1.385.284-3 1-3 3h6l2-1z"/><path style="fill:#eab108" d="M14 22h6c0-2-2.34-2.85-4-3-1.485-.134-4 2-4 2s-3.242-2.361-5-2c-1.385.284-3 1-3 3h6l2-1z"/><path style="opacity:.2;fill:#fff" d="m6 17-1 2s-1-1-2-1-1 2-1 2l.043.014c.067-.591.27-1.514.957-1.514 1 0 2 1 2 1l1-2h12l1 2s1-1 2-1c.687 0 .89.923.957 1.514L22 20s0-2-1-2-2 1-2 1l-1-2z"/><path style="opacity:.2;fill:#fff" d="M7.346 18.963c-.12.002-.236.014-.346.037-1.385.284-3 1-3 3h.053C4.305 20.386 5.74 19.759 7 19.5c1.409-.289 3.693 1.12 4.576 1.711L12 21s-2.85-2.075-4.654-2.037zM12 21l.385.193c.748-.577 2.473-1.796 3.615-1.693 1.513.136 3.586.858 3.941 2.5H20c0-2-2.34-2.85-4-3-1.485-.134-4 2-4 2z"/><path style="opacity:.2" d="M5 10.5s-1-1-2-3c0-.431 0-1 1-1 3 2 7 4 7 4h2s4-2 7-4c.467.063 1 .561 1 1-1 2-2 3-2 3l-7 1z"/><path style="fill:#4f4f4f" d="M5 10S4 9 3 7c0-.431 0-1 1-1 3 2 7 4 7 4h2s4-2 7-4c.467.063 1 .561 1 1-1 2-2 3-2 3l-7 1z"/><path style="opacity:.1;fill:#fff" d="M4 6c-1 0-1 .569-1 1 .015.03.028.049.043.078.068-.307.271-.578.957-.578 3 2 7 4 7 4h2s4-2 7-4c.349.047.735.337.908.664.031-.06.061-.101.092-.164 0-.439-.533-.937-1-1-3 2-7 4-7 4h-2S7 8 4 6z"/><path style="opacity:.2" d="M12 1.5c-2.088 0-4 1.784-4 4 0 2.458-.726 3.826-1.463 5H2v1c1 1 2 1 2 1 1 0 1 1.215 1 2a7 7 0 1 0 14 0c0-.785-.157-1.415-.391-1.982 0 0 2.391-.018 3.391-1.018v-1h-4.537C16.726 9.326 16 7.958 16 5.5c0-2.216-1.912-4-4-4z"/><path style="fill:#cbcbcb" d="M12 1C9.912 1 8 2.784 8 5c0 2.458-.726 3.826-1.463 5H2v1c1 1 2 1 2 1 1 0 1 1.215 1 2a7 7 0 1 0 14 0c0-.785-.157-1.415-.391-1.982C18.609 12.018 21 12 22 11v-1h-4.537C16.726 8.826 16 7.458 16 5c0-2.216-1.912-4-4-4z"/><path style="opacity:.1" d="M12 7.5c-1.193 0-2 1.07-2 2.4 0 3-2 3.3-2 5.4 0 2.319 1.79 4.2 4 4.2 2.209 0 4-1.881 4-4.2 0-2.1-2-2.4-2-5.4 0-1.33-.807-2.4-2-2.4z"/><path style="fill:#fff" d="M12 7c-1.193 0-2 1.07-2 2.4 0 3-2 3.3-2 5.4 0 2.319 1.79 4.2 4 4.2 2.209 0 4-1.881 4-4.2 0-2.1-2-2.4-2-5.4 0-1.33-.807-2.4-2-2.4z"/><circle style="opacity:.1" cx="10.5" cy="6" r="1.5"/><circle style="fill:#fff" cx="10.5" cy="5.5" r="1.5"/><circle style="fill:#323232" cx="10.5" cy="5.5" r=".5"/><circle style="opacity:.1" cx="13.5" cy="6" r="1.5"/><circle style="fill:#fff" cx="13.5" cy="5.5" r="1.5"/><path style="opacity:.1" d="M14 7.7c0 1.38-.895 2.8-2 2.8s-2-1.42-2-2.8z"/><path style="fill:#f77d00" d="M14 7.2c0 1.38-.895 2.8-2 2.8s-2-1.42-2-2.8z"/><circle style="fill:#323232" cx="13.5" cy="5.5" r=".5"/><path style="fill:#eab108" d="M14 7.25C14 7.5 13.105 9 12 9s-2-1.5-2-1.75c0-.69.895-1.25 2-1.25s2 .56 2 1.25z"/><path style="opacity:.2;fill:#fff" d="M12 1C9.912 1 8 2.784 8 5c0 2.458-.726 3.826-1.463 5H2v.5h4.537C7.274 9.326 8 7.958 8 5.5c0-2.216 1.912-4 4-4s4 1.784 4 4c0 2.458.726 3.826 1.463 5H22V10h-4.537C16.726 8.826 16 7.458 16 5c0-2.216-1.912-4-4-4zm6.764 11.51c-.044.001-.155.008-.155.008.208.502.348 1.06.379 1.724.003-.081.012-.16.012-.242 0-.573-.1-1.047-.236-1.49z"/></g></svg>