<svg xmlns="http://www.w3.org/2000/svg" width="22" height="22"><path style="opacity:.2" d="M11 1.5a10 10 0 0 0-10 10 10 10 0 0 0 10 10 10 10 0 0 0 10-10 10 10 0 0 0-10-10z"/><path style="fill:#4f4f4f" d="M11 1A10 10 0 0 0 1 11a10 10 0 0 0 10 10 10 10 0 0 0 10-10A10 10 0 0 0 11 1z"/><path style="opacity:.2" d="M11 3.5a8 8 0 0 0-4.698 1.534l1.797 1.797A5.5 5.5 0 0 1 11 6a5.5 5.5 0 0 1 5.5 5.5 5.5 5.5 0 0 1-.834 2.898l1.798 1.798A8 8 0 0 0 19 11.5a8 8 0 0 0-8-8zM4.536 6.804A8 8 0 0 0 3 11.5a8 8 0 0 0 8 8 8 8 0 0 0 4.698-1.534l-1.797-1.797A5.5 5.5 0 0 1 11 17a5.5 5.5 0 0 1-5.5-5.5 5.5 5.5 0 0 1 .834-2.898zM11 8.5a3 3 0 0 0-3 3 3 3 0 0 0 3 3 3 3 0 0 0 3-3 3 3 0 0 0-3-3z"/><path style="opacity:.1;fill:#fff" d="M11 1a10 10 0 0 0-9.93 8.926A10 9.5 0 0 1 11 1.5a10 9.5 0 0 1 9.961 8.723A10 10 0 0 0 11 1zm9.961 9.223A10 10 0 0 1 21 11a10 9.5 0 0 0-.039-.777zm-19.89-.297a10 9.5 0 0 0-.025.196 10 10 0 0 1 .024-.196zm-.025.196A10 10 0 0 0 1 11a10 9.5 0 0 1 .046-.878z"/><path style="fill:#91cd91" d="M11 3a8 8 0 0 0-4.698 1.534l1.797 1.797A5.5 5.5 0 0 1 11 5.5a5.5 5.5 0 0 1 5.5 5.5 5.5 5.5 0 0 1-.834 2.898l1.798 1.798A8 8 0 0 0 19 11a8 8 0 0 0-8-8z"/><path style="fill:#33855a" d="M4.536 6.304A8 8 0 0 0 3 11a8 8 0 0 0 8 8 8 8 0 0 0 4.698-1.534l-1.797-1.797A5.5 5.5 0 0 1 11 16.5 5.5 5.5 0 0 1 5.5 11a5.5 5.5 0 0 1 .834-2.898z"/><circle style="fill:#91cd91" cx="11" cy="11" r="3"/><path style="opacity:.2;fill:#fff" d="M11 3a8 8 0 0 0-4.698 1.534l.299.299A8 8 0 0 1 11 3.5a8 8 0 0 1 7.99 7.8A8 8 0 0 0 19 11a8 8 0 0 0-8-8zM4.536 6.304A8 8 0 0 0 3 11a8 8 0 0 0 .01.2 8 8 0 0 1 1.526-4.396L6.153 8.42a5.5 5.5 0 0 1 .181-.32zM11 8a3 3 0 0 0-3 3 3 3 0 0 0 .013.251A3 3 0 0 1 11 8.5a3 3 0 0 1 2.987 2.749A3 3 0 0 0 14 11a3 3 0 0 0-3-3zm5.49 3.198a5.5 5.5 0 0 1-.824 2.7l.18.181A5.5 5.5 0 0 0 16.5 11.5a5.5 5.5 0 0 0-.01-.302zm-10.98.104a5.5 5.5 0 0 0-.01.198A5.5 5.5 0 0 0 11 17a5.5 5.5 0 0 0 2.901-.831l1.498 1.498a8 8 0 0 0 .3-.201L13.9 15.669A5.5 5.5 0 0 1 11 16.5a5.5 5.5 0 0 1-5.49-5.198z"/></svg>