<svg xmlns="http://www.w3.org/2000/svg" width="22" height="22"><path style="opacity:.2" d="M11.207 3.5c-.666 0-.863.83-1.673.83-.773 0-1.35-.622-2.07-.622-.7 0-1.15.449-1.491 1.383 0 0-.972 2.629-1.098 3.01-.018.069-.45.951-.432 1.02C2.52 9.208 0 9.554 0 11.681 0 15.175 8.616 19.5 15.452 19.5c5.235 0 6.548-2.283 6.548-4.064 0-1.436-1.278-3.027-3.58-3.996l-.252-1.039-.863-3.597c-.198-.796-.36-1.16-1.817-1.851-1.115-.554-3.561-1.453-4.281-1.453z"/><path style="fill:#e73232" d="M11.207 3c-.666 0-.863.83-1.673.83-.773 0-1.35-.622-2.07-.622-.7 0-1.15.449-1.491 1.383 0 0-.972 2.629-1.098 3.01-.018.069-.45.951-.432 1.02C2.52 8.708 0 9.054 0 11.181 0 14.675 8.616 19 15.452 19 20.687 19 22 16.717 22 14.936c0-1.436-1.278-3.027-3.58-3.996L18.168 9.9l-.863-3.597c-.198-.796-.36-1.16-1.817-1.851C14.373 3.899 11.927 3 11.207 3z"/><path style="opacity:.2;fill:#fff" d="M11.207 3c-.666 0-.862.83-1.672.83-.773 0-1.35-.623-2.07-.623-.702 0-1.15.449-1.492 1.383 0 0-.972 2.63-1.098 3.01-.018.069-.45.952-.432 1.021C2.52 8.708 0 9.054 0 11.181c0 .057.02.116.025.173.25-1.835 2.598-2.151 4.418-2.233-.018-.07.414-.952.432-1.021.126-.38 1.098-3.01 1.098-3.01.341-.934.79-1.383 1.492-1.383.72 0 1.297.623 2.07.623.81 0 1.006-.83 1.672-.83.72 0 3.166.9 4.281 1.453 1.457.692 1.619 1.054 1.817 1.85l.863 3.597.252 1.04c2.178.916 3.424 2.388 3.555 3.76.006-.088.025-.179.025-.264 0-1.436-1.278-3.028-3.58-3.997L18.168 9.9l-.863-3.597c-.198-.796-.36-1.158-1.817-1.85C14.373 3.9 11.927 3 11.207 3z"/><path style="opacity:.1" d="M18.443 11.457c.198.916.198 1.003.198 1.124 0 1.555-1.84 2.419-4.232 2.419-5.397 0-10.196-3.042-10.196-5.046 0-.277.054-.553.18-.812l.432-1.003c-.018.07-.036.139-.018.208 0 1.02 4.241 4.372 9.872 4.372 1.439 0 3.566-.294 3.566-1.936 0-.12 0-.259-.036-.38z"/><path style="fill:#3f3f3f" d="M18.443 10.977c.198.916.198 1.002.198 1.123 0 1.556-1.84 2.42-4.232 2.42-5.397 0-10.196-3.042-10.196-5.046 0-.277.054-.553.18-.813l.432-1.002c-.018.07-.036.138-.018.207 0 1.02 4.241 4.373 9.872 4.373 1.439 0 3.566-.294 3.566-1.936 0-.12 0-.26-.036-.38z"/></svg>