<svg xmlns="http://www.w3.org/2000/svg" width="22" height="22"><rect style="opacity:.2" width="20" height="20" x="1" y="1.5" rx="2" ry="2"/><rect style="fill:#75aa03" width="20" height="20" x="1" y="1" rx="2" ry="2"/><path style="opacity:.2" d="m8.328 4.533-.267.135.75 1.492A4 4 0 0 0 7.133 8.5h7.736a4 4 0 0 0-1.68-2.338l.752-1.494-.267-.135-.74 1.47A4 4 0 0 0 11 5.5a4 4 0 0 0-1.934.502zM9.5 6.5a.5.5 0 0 1 .5.5.5.5 0 0 1-.5.5A.5.5 0 0 1 9 7a.5.5 0 0 1 .19-.393.5.5 0 0 1 .007-.005l.137-.069-.002-.004A.5.5 0 0 1 9.5 6.5zm3 0a.5.5 0 0 1 .17.03l-.002.003.129.065A.5.5 0 0 1 13 7a.5.5 0 0 1-.5.5.5.5 0 0 1-.5-.5.5.5 0 0 1 .5-.5zm-7.008 3a.5.499 0 0 0-.492.506v3.988a.5.499 0 1 0 1 0v-3.988a.5.499 0 0 0-.508-.506zM7 9.5v7c0 .554.446 1 1 1h1v-1h1.5v-.545A3 3 0 0 1 8 13a3 3 0 1 1 3.5 2.957v.543H13v1h1c.554 0 1-.446 1-1v-7zm9.492 0a.5.499 0 0 0-.492.506v3.988a.5.499 0 1 0 1 0v-3.988a.5.499 0 0 0-.508-.506zM11 11.5A1.5 1.5 0 0 0 9.5 13a1.5 1.5 0 0 0 1.5 1.5 1.5 1.5 0 0 0 1.5-1.5 1.5 1.5 0 0 0-1.5-1.5zm0 .5a1 1 0 0 1 1 1 1 1 0 0 1-1 1 1 1 0 0 1-1-1 1 1 0 0 1 .045-.295.5.5 0 0 0 .455.295.5.5 0 0 0 .5-.5.5.5 0 0 0-.293-.455A1 1 0 0 1 11 12z"/><path style="opacity:.2;fill:#fff" d="M3 1c-1.108 0-2 .892-2 2v.5c0-1.108.892-2 2-2h16c1.108 0 2 .892 2 2V3c0-1.108-.892-2-2-2z"/><path style="fill:#fff" d="m8.328 4.033-.267.135.75 1.492A4 4 0 0 0 7.133 8h7.736a4 4 0 0 0-1.68-2.338l.752-1.494-.267-.135-.74 1.47A4 4 0 0 0 11 5a4 4 0 0 0-1.934.502zM9.5 6a.5.5 0 0 1 .5.5.5.5 0 0 1-.5.5.5.5 0 0 1-.5-.5.5.5 0 0 1 .19-.393.5.5 0 0 1 .007-.005l.137-.069-.002-.004A.5.5 0 0 1 9.5 6zm3 0a.5.5 0 0 1 .17.03l-.002.003.129.065A.5.5 0 0 1 13 6.5a.5.5 0 0 1-.5.5.5.5 0 0 1-.5-.5.5.5 0 0 1 .5-.5zM5.492 9A.5.499 0 0 0 5 9.506v3.988a.5.499 0 1 0 1 0V9.506A.5.499 0 0 0 5.492 9zM7 9v7c0 .554.446 1 1 1h1v-1h1.5v-.545A3 3 0 0 1 8 12.5a3 3 0 1 1 3.5 2.957V16H13v1h1c.554 0 1-.446 1-1V9zm9.492 0a.5.499 0 0 0-.492.506v3.988a.5.499 0 1 0 1 0V9.506A.5.499 0 0 0 16.492 9zM11 11a1.5 1.5 0 0 0-1.5 1.5A1.5 1.5 0 0 0 11 14a1.5 1.5 0 0 0 1.5-1.5A1.5 1.5 0 0 0 11 11zm0 .5a1 1 0 0 1 1 1 1 1 0 0 1-1 1 1 1 0 0 1-1-1 1 1 0 0 1 .045-.295.5.5 0 0 0 .455.295.5.5 0 0 0 .5-.5.5.5 0 0 0-.293-.455A1 1 0 0 1 11 11.5z"/></svg>