<svg xmlns="http://www.w3.org/2000/svg" width="22" height="22" version="1"><path style="opacity:.2" d="M11.005 12.5a.857.8 0 0 0-.392.086l-3.32 1.567-1.158-.37A.857.8 0 0 0 5 14.54v2.16a.857.8 0 0 0 .403.678l5.143 3a.857.8 0 0 0 .908 0l5.143-3A.857.8 0 0 0 17 16.7v-1.92a.857.8 0 0 0-1.313-.677l-1.02.599-3.178-2.06a.857.8 0 0 0-.484-.142z"/><path style="fill:#1383d9" d="M11.005 12a.857.8 0 0 0-.392.086l-3.32 1.567-1.158-.37A.857.8 0 0 0 5 14.04v2.16a.857.8 0 0 0 .403.678l5.143 3a.857.8 0 0 0 .908 0l5.143-3A.857.8 0 0 0 17 16.2v-1.92a.857.8 0 0 0-1.313-.677l-1.02.599-3.178-2.06a.857.8 0 0 0-.484-.142z"/><path style="opacity:.2" d="M7 2 1 5.75 5 9l-4 3.25L7 16l4-3.5 4 3.5 6-3.75L17 9l4-3.25L15 2l-4 3.5L7 2z"/><path style="fill:#5aacff" d="M7 1.5 1 5.25 5 8.5l-4 3.25 6 3.75 4-3.5 4 3.5 6-3.75-4-3.25 4-3.25-6-3.75L11 5 7 1.5z"/><path style="opacity:.2" d="m17 9-6 3.5L5 9l6-3.5z"/><path style="fill:#fff" d="M17 8.5 11 12 5 8.5 11 5z"/><path style="opacity:.2;fill:#fff" d="M7 1.5 1 5.25l.348.283L7 2l4 3.5L15 2l5.652 3.533L21 5.25 15 1.5 11 5 7 1.5zM4.691 8.75 1 11.75l.348.217L5 9l-.309-.25zm12.618 0L17 9l3.652 2.967.348-.217-3.691-3z"/></svg>