<svg xmlns="http://www.w3.org/2000/svg" width="22" height="22"><path style="opacity:.2" d="M14 17.5h4v4z"/><path style="fill:#ccc" d="M14 17h4v4z"/><rect style="opacity:.2" width="16" height="20" x="-17.5" y="-21" rx="1" ry="1" transform="matrix(0 -1 -1 0 0 0)"/><rect style="fill:#e4e4e4" width="16" height="20" x="-17" y="-21" rx="1" ry="1" transform="matrix(0 -1 -1 0 0 0)"/><path style="fill:#fff;opacity:.2" d="M2 1c-.554 0-1 .446-1 1v.5c0-.554.446-1 1-1h18c.554 0 1 .446 1 1V2c0-.554-.446-1-1-1z"/><path style="opacity:.1" d="M11 4.5a5 5 0 1 0 0 10 5 5 0 0 0 0-10z"/><path style="fill:#3f7ed9" d="M11 4a5 5 0 1 0 0 10 5 5 0 0 0 0-10z"/><path style="opacity:.2" d="M9 7.5v1h1v-1zm3 0v1h1v-1zm2 3c-.706.675-1.818 1-3.064 1-1.191 0-2.227-.293-2.936-.917.363.998 1.092 1.93 3.009 1.917 1.916-.012 2.67-.956 2.991-2z"/><path style="fill:#fff" d="M9 7v1h1V7zm3 0v1h1V7zm2 3c-.706.675-1.818 1-3.064 1-1.191 0-2.227-.293-2.936-.917.363.998 1.092 1.93 3.009 1.917 1.916-.012 2.67-.956 2.991-2z"/><path style="fill:none" d="M8.28 6.05h8v8h-8z"/></svg>