<svg xmlns="http://www.w3.org/2000/svg" width="22" height="22"><rect style="opacity:.2" width="22" height="16" y="3.5" rx="1.5" ry="1.5"/><rect style="fill:#e31e27" width="22" height="16" y="3" rx="1.5" ry="1.5"/><path style="opacity:.2" d="M2.142 3.5c-.758.606-.957 1.304.279 2.242C7.938 9.27 15.952 11.726 13.584 19H20.5c.831 0 1.5-.669 1.5-1.5V5c0-.831-.669-1.5-1.5-1.5z"/><path style="fill:#e46f3e" d="M2.142 3c-.758.606-.956 1.304.28 2.242C8.062 8.85 16.323 11.334 13.413 19H20.5c.831 0 1.5-.669 1.5-1.5v-13c0-.831-.669-1.5-1.5-1.5z"/><path style="opacity:.2" d="m11.979 13.475-.853 1.117c-.469.614-.853 1.12-.853 1.125 0 .004.287.007.637.007h.636v.32h.44v-.32h.278v-.353h-.277l-.005-.948zm-2.947.017a1.239 1.239 0 0 0-.298.029c-.314.081-.492.308-.562.717l-.01.061h.459v-.045c0-.26.32-.449.57-.338.218.097.303.305.205.501-.026.053-.26.336-.623.754l-.645.747-.066.076h1.815v-.383l-.456-.004-.455-.004.375-.432c.206-.237.395-.464.42-.504.083-.127.105-.215.106-.409.001-.173 0-.18-.06-.299a.846.846 0 0 0-.492-.433 1.07 1.07 0 0 0-.283-.034zM1 13.532V15.993H2.191v-.053c0-.03.005-.13.011-.224l.01-.17H1.44v-.64h.703v-.432H1.44v-.496h.766v-.053c0-.03-.004-.13-.01-.225l-.01-.17h-.594zm2.265.865a.73.73 0 0 0-.484.17l-.061.055-.102-.089a1.12 1.12 0 0 0-.11-.088c-.003 0-.006.348-.006.774v.775h.423l.005-.494c.005-.49.005-.494.046-.574.06-.118.107-.146.257-.152.11-.005.132-.002.182.032.09.06.096.105.098.679v.51h.425v-.536c0-.596-.01-.668-.103-.806-.114-.17-.341-.258-.57-.256zm1.013.097a2.17 2.17 0 0 0-.243.007c0 .004.2.367.443.808l.442.802.438-.804a97.4 97.4 0 0 0 .439-.809c0-.002-.11-.004-.243-.004H5.31l-.193.375a6.217 6.217 0 0 1-.201.375c-.004 0-.095-.168-.201-.375l-.193-.375zm1.916 0c-.138 0-.25.006-.25.013 0 .007.148.35.327.763.18.412.328.76.33.774a4.81 4.81 0 0 1-.19.433l-.201.427c-.007.016.05.021.252.021h.26l.316-.68.564-1.216.249-.535h-.5l-.224.501c-.124.276-.23.507-.235.514a5.172 5.172 0 0 1-.229-.501l-.218-.514zm5.336.234c.014 0 .016.066.016.312v.331h-.244c-.157 0-.245-.005-.245-.015 0-.015.414-.569.466-.624.003-.003.005-.004.007-.004z"/><path style="fill:#fff" d="m11.979 12.975-.853 1.117c-.469.614-.853 1.12-.853 1.125 0 .004.287.007.637.007h.636v.32h.44v-.32h.278v-.353h-.277l-.005-.948zm-2.947.017a1.239 1.239 0 0 0-.298.029c-.314.081-.492.308-.562.717l-.01.061h.459v-.045c0-.26.32-.449.57-.338.218.097.303.305.205.501-.026.053-.26.336-.623.754l-.645.747-.066.076h1.815v-.383l-.456-.004-.455-.004.375-.432c.206-.237.395-.464.42-.504.083-.127.105-.215.106-.409.001-.173 0-.18-.06-.299a.846.846 0 0 0-.492-.433 1.07 1.07 0 0 0-.283-.034zM1 13.032V15.493H2.191v-.053c0-.03.005-.13.011-.224l.01-.17H1.44v-.64h.703v-.432H1.44v-.496h.766v-.053c0-.03-.004-.13-.01-.225l-.01-.17h-.594zm2.265.865a.73.73 0 0 0-.484.17l-.061.055-.102-.089a1.12 1.12 0 0 0-.11-.088c-.003 0-.006.348-.006.774v.775h.423L2.93 15c.005-.49.005-.494.046-.574.06-.118.107-.146.257-.152.11-.005.132-.002.182.032.09.06.096.105.098.679v.51h.425v-.536c0-.596-.01-.668-.103-.806-.114-.17-.341-.258-.57-.256zm1.013.097a2.17 2.17 0 0 0-.243.007c0 .004.2.367.443.808l.442.802.438-.804a97.4 97.4 0 0 0 .439-.809c0-.002-.11-.004-.243-.004H5.31l-.193.375a6.217 6.217 0 0 1-.201.375c-.004 0-.095-.168-.201-.375l-.193-.375zm1.916 0c-.138 0-.25.006-.25.013 0 .007.148.35.327.763.18.412.328.76.33.774a4.81 4.81 0 0 1-.19.433l-.201.427c-.007.016.05.021.252.021h.26l.316-.68.564-1.216.249-.535h-.5l-.224.501c-.124.276-.23.507-.235.514a5.172 5.172 0 0 1-.229-.501l-.218-.514zm5.336.234c.014 0 .016.066.016.312v.331h-.244c-.157 0-.245-.005-.245-.015 0-.015.414-.569.466-.624.003-.003.005-.004.007-.004z"/><path style="opacity:.2" d="M20.201 5.083c-.34-.003-.877.093-1.535.28-.173.049-.302.097-.265.1.006 0 .103-.019.214-.042.16-.034.246-.043.426-.044.205-.001.228.002.269.033.039.029.044.044.044.113-.001.103-.073.215-.26.4-.185.183-.728.617-.773.617-.008 0-.149-.233-.313-.517-.24-.418-.3-.512-.315-.493-.01.014-.295.505-.634 1.092-.49.849-.626 1.074-.664 1.096-.183.106-.535.28-.528.261.005-.012.326-.571.714-1.241l.704-1.22-.833-.004c-.653-.003-.836 0-.85.016-.01.011-.408.693-.882 1.516l-1.032 1.786c-.138.239-.161.288-.132.28l.44-.162c1.722-.644 3.791-1.617 5.081-2.39.593-.356 1.019-.66 1.269-.907.235-.232.305-.39.214-.482-.058-.057-.18-.086-.359-.088zm-6.69.428-.513.894c-.283.491-.52.894-.525.894-.006 0-.054-.077-.107-.172l-.097-.172.206-.357c.114-.196.206-.361.206-.366 0-.011-.394-.693-.41-.71-.006-.006-.387-.01-.846-.008l-.834.004.53.919 1.144 1.982c.338.586.62 1.063.628 1.06.007-.002.225-.37.484-.819l1.145-1.982.674-1.168h-.842zm5.187 1.722a2.37 2.37 0 0 0-.357.155c-.647.314-1.29.597-1.995.877a3.035 3.035 0 0 0-.303.132 41.087 41.087 0 0 0-.639 1.097c0 .004.378.005.84.002l.84-.004.3-.52c.165-.288.305-.528.313-.536.007-.007.147.218.31.5.164.283.306.526.316.54.016.022.108.024.853.02l.836-.004-.648-1.121a85.919 85.919 0 0 0-.665-1.137zm-6.806 1c-.018 0-.119.055-.366.203-.956.572-1.52 1.047-1.526 1.285-.005.192.274.244.847.158a9.122 9.122 0 0 0 1.029-.227c.477-.134.502-.156.077-.07-.405.081-.657.07-.712-.033-.026-.049-.02-.085.034-.193.065-.13.337-.403.619-.621.11-.086.199-.16.196-.166a19.005 19.005 0 0 0-.198-.336zm3.594.376c-.038.002-.174.045-.528.165-.466.159-1.189.386-1.446.455-.056.016-.07.03-.13.134a1.13 1.13 0 0 0-.067.127c0 .006.376.01.836.01h.836l.243-.423c.134-.233.253-.44.265-.458.005-.007.003-.011-.01-.01z"/><path style="fill:#fff" d="M20.201 4.583c-.34-.003-.877.093-1.535.28-.173.049-.302.097-.265.1.006 0 .103-.019.214-.042.16-.034.246-.043.426-.044.205-.001.228.002.269.033.039.029.044.044.044.113-.001.103-.073.215-.26.4-.185.183-.728.617-.773.617-.008 0-.149-.233-.313-.517-.24-.418-.3-.512-.315-.493-.01.014-.295.505-.634 1.092-.49.849-.626 1.074-.664 1.096-.183.106-.535.28-.528.261.005-.012.326-.571.714-1.241l.704-1.22-.833-.004c-.653-.003-.836 0-.85.016-.01.011-.408.693-.882 1.516l-1.032 1.786c-.138.239-.161.288-.132.28.02-.006.217-.08.44-.162 1.722-.644 3.791-1.617 5.081-2.39.593-.356 1.019-.66 1.269-.907.235-.232.305-.39.214-.482-.058-.057-.18-.086-.359-.088zm-6.69.428-.513.894c-.283.491-.52.894-.525.894-.006 0-.054-.077-.107-.172l-.097-.172.206-.357c.114-.196.206-.361.206-.366 0-.011-.394-.693-.41-.71-.006-.006-.387-.01-.846-.008l-.834.004.53.919 1.144 1.982c.338.586.62 1.063.628 1.06.007-.002.225-.37.484-.819l1.145-1.982.674-1.168h-.842zm5.187 1.722a2.37 2.37 0 0 0-.357.155c-.647.314-1.29.597-1.995.877a3.035 3.035 0 0 0-.303.132 41.087 41.087 0 0 0-.639 1.097c0 .004.378.005.84.002l.84-.004.3-.52c.165-.288.305-.528.313-.536.007-.007.147.218.31.5.164.283.306.526.316.54.016.022.108.024.853.02l.836-.004-.648-1.121a85.919 85.919 0 0 0-.665-1.137zm-6.806 1c-.018 0-.119.055-.366.203-.956.572-1.52 1.047-1.526 1.285-.005.192.274.244.847.158a9.122 9.122 0 0 0 1.029-.227c.477-.134.502-.156.077-.07-.405.081-.657.07-.712-.033-.026-.049-.02-.085.034-.193.065-.13.337-.403.619-.621.11-.086.199-.16.196-.166a19.005 19.005 0 0 0-.198-.336zm3.594.376c-.038.002-.174.045-.528.165-.466.159-1.189.386-1.446.455-.056.016-.07.03-.13.134a1.13 1.13 0 0 0-.067.127c0 .006.376.01.836.01h.836l.243-.423c.134-.233.253-.44.265-.458.005-.007.003-.011-.01-.01z"/><path style="opacity:.2;fill:#fff" d="M1.5 3C.669 3 0 3.669 0 4.5V5c0-.831.669-1.5 1.5-1.5h19c.831 0 1.5.669 1.5 1.5v-.5c0-.831-.669-1.5-1.5-1.5z"/></svg>