<svg xmlns="http://www.w3.org/2000/svg" width="22" height="22" version="1"><path style="opacity:.05;fill:#fff" d="M4 24v14c0 1.108.892 2 2 2h36c1.108 0 2-.892 2-2V24z"/><path style="opacity:.2" d="M1 19v.5c0 .554.446 1 1 1h18c.554 0 1-.446 1-1V19c0 .554-.446 1-1 1H2c-.554 0-1-.446-1-1z"/><rect style="fill:#4f4f4f" width="18" height="20" x="-20" y="-21" rx="1" ry="1" transform="matrix(0 -1 -1 0 0 0)"/><path style="opacity:.2;fill:#fff" d="M54 265v-1c0-.554.446-1 1-1h18c.554 0 1 .446 1 1v1c0-.554-.446-1-1-1H55c-.554 0-1 .446-1 1z" transform="translate(-53 -261)"/><path style="opacity:.2" d="M55 263c-.554 0-1 .446-1 1v3h20v-3c0-.554-.446-1-1-1z" transform="translate(-53 -261)"/><path style="opacity:.2" d="M55 263c-.554 0-1 .446-1 1v1h20v-1c0-.554-.446-1-1-1z" transform="translate(-53 -261)"/><path style="opacity:.2;fill:#fff" d="M55 263c-.554 0-1 .446-1 1v3h5v-2l-2-2z" transform="translate(-53 -261)"/><path style="opacity:.2;fill:#fff;fill-rule:evenodd" d="m61.5 265-2-2H62l2 2zM61.5 265l-2 2H62l2-2zM66.5 265l-2-2H67l2 2zM66.5 265l-2 2H67l2-2zM71.5 265l-2-2H72l2 2zM71.5 265l-2 2H72l2-2z" transform="translate(-53 -261)"/><path style="opacity:.2" transform="matrix(.47308 0 0 .46823 18.175 4.69)" d="m-6.712 16.678-7.398 4.271-7.398 4.272V8.135l7.398 4.272z"/><path style="fill:#bababa" transform="matrix(.47308 0 0 .46823 18.175 4.19)" d="m-6.712 16.678-7.398 4.271-7.398 4.272V8.135l7.398 4.272z"/></svg>