<svg xmlns="http://www.w3.org/2000/svg" width="22" height="22" version="1"><rect style="opacity:.2" width="20" height="20" x="1" y="1.5" rx="1" ry="1"/><rect style="fill:#4f4f4f" width="20" height="20" x="1" y="1" rx="1" ry="1"/><path style="opacity:.1;fill:#fff" d="M2 1c-.554 0-1 .446-1 1v.5c0-.554.446-1 1-1h18c.554 0 1 .446 1 1V2c0-.554-.446-1-1-1H2z"/><path style="opacity:.2" d="M4 4.5v14h2v-12h12v-2H6.5zm4 4v6h2v-6zm4 0v8H8v2h6v-10zm4 0v10h2v-10z"/><path style="fill:#3693ee" d="M4 4v14h2V6h12V4H6.5zm4 4v6h2V8zm4 0v8H8v2h6V8zm4 0v10h2V8z"/><path style="opacity:.2;fill:#fff" d="M4 4v.5h14V4H4zm4 4v.5h2V8H8zm4 0v.5h2V8h-2zm4 0v.5h2V8h-2zm-8 8v.5h4V16H8z"/></svg>