<svg xmlns="http://www.w3.org/2000/svg" width="22" height="22"><path style="opacity:.2" d="M10.5 1.5c-.056 0-.298.163-.557.361-2.281 1.715-5.49 3.144-8.547 3.585L1 5.51l.027.405c.046.685.438 2.505.815 3.783a26.33 26.33 0 0 0 1.719 4.424c1.59 3.2 3.6 5.54 6.069 7.062.322.198.62.305.87.317.25-.012.548-.12.87-.317 2.47-1.522 4.48-3.861 6.07-7.062a26.33 26.33 0 0 0 1.718-4.424c.377-1.278.769-3.098.815-3.783L20 5.51l-.396-.063c-3.057-.44-6.266-1.87-8.547-3.585-.259-.198-.5-.361-.557-.361z"/><path style="fill:#fe6d40" d="M10.5 1c-.056 0-.298.163-.557.361-2.281 1.715-5.49 3.144-8.547 3.585L1 5.01l.027.405c.046.685.438 2.505.815 3.783a26.33 26.33 0 0 0 1.719 4.424c1.59 3.2 3.6 5.54 6.069 7.062.322.198.62.305.87.317.25-.012.548-.12.87-.317 2.47-1.522 4.48-3.861 6.07-7.062a26.33 26.33 0 0 0 1.718-4.424c.377-1.278.769-3.098.815-3.783L20 5.01l-.396-.063c-3.057-.44-6.266-1.87-8.547-3.585-.259-.198-.5-.361-.557-.361z"/><path style="opacity:.2" d="M10.5 3.885a21.513 21.513 0 0 1-7.192 3.188c.146.737.245 1.356.452 2.059.455 1.543.94 2.787 1.592 4.1 1.42 2.859 3.127 4.818 5.148 6.116 2.02-1.298 3.728-3.257 5.148-6.117a24.153 24.153 0 0 0 1.592-4.1c.207-.702.306-1.32.452-2.058A21.513 21.513 0 0 1 10.5 3.885z"/><path style="fill:#fff" d="M10.5 3.385a21.513 21.513 0 0 1-7.192 3.188c.146.737.245 1.356.452 2.059.455 1.543.94 2.787 1.592 4.1 1.42 2.859 3.127 4.818 5.148 6.117 2.02-1.3 3.728-3.258 5.148-6.118a24.153 24.153 0 0 0 1.592-4.1c.207-.702.306-1.32.452-2.058A21.513 21.513 0 0 1 10.5 3.385z"/><path style="fill:#fe6d40" d="M10 12h1v4h-1z"/><path style="opacity:.2" transform="matrix(1.33343 0 0 1.53972 -16.23 -21.286)" d="m20.047 18.046 1.312 2.273 1.312 2.273H17.422l1.312-2.273z"/><path style="fill:#fe6d40" transform="matrix(1.33343 0 0 1.53972 -16.23 -21.786)" d="m20.047 18.046 1.312 2.273 1.312 2.273H17.422l1.312-2.273z"/><path style="opacity:.2" transform="matrix(1.33343 0 0 1.0998 -16.23 -14.347)" d="m20.047 18.046 1.312 2.273 1.312 2.273H17.422l1.312-2.273z"/><path style="fill:#fe6d40" transform="matrix(1.33343 0 0 1.0998 -16.23 -14.847)" d="m20.047 18.046 1.312 2.273 1.312 2.273H17.422l1.312-2.273z"/><path style="opacity:.2;fill:#fff" d="M10.5 1c-.056 0-.298.163-.557.361-2.281 1.715-5.49 3.144-8.547 3.585L1 5.01l.027.405c.002.022.01.065.012.089l.357-.057c3.057-.44 6.266-1.87 8.547-3.585.259-.198.5-.361.557-.361.056 0 .298.163.557.361 2.281 1.715 5.49 3.144 8.547 3.585l.357.057c.002-.024.01-.067.012-.089L20 5.01l-.396-.063c-3.057-.44-6.266-1.87-8.547-3.585-.259-.198-.5-.361-.557-.361z"/></svg>