<svg xmlns="http://www.w3.org/2000/svg" width="22" height="22"><g transform="matrix(.07871 0 0 .07871 -13.604 -15.886)"><path style="opacity:.2" d="M331.618 220.878c-52.326 0-95.29 42.984-95.29 95.336a25.413 25.426 0 0 0 0 .075c.015 4.703 1.392 9.241 2.097 13.878l-42.037 62.577c-4.456 5.455-8.46 12.22-10.05 20.086-1.799 8.902-.302 17.102 1.563 23.4a25.413 25.426 0 0 0 .038.099c5.63 18.724 23.87 34.43 41.75 37.538 7.912 1.542 17.508 1.774 25.995-1.415 8.684-3.263 13.769-8.003 18.152-11.83a25.413 25.426 0 0 0 .012 0l56.306-49.17c.415.009.825.095 1.24.099a25.413 25.426 0 0 0 .224 0c52.326 0 95.29-42.985 95.29-95.337 0-52.352-42.964-95.336-95.29-95.336z"/><path style="fill:#f16d00" d="M331.618 214.526c-52.326 0-95.29 42.984-95.29 95.336a25.413 25.426 0 0 0 0 .075c.015 4.703 1.392 9.241 2.097 13.878l-42.037 62.577c-4.456 5.455-8.46 12.22-10.05 20.086-1.799 8.902-.302 17.102 1.563 23.4a25.413 25.426 0 0 0 .038.099c5.63 18.724 23.87 34.43 41.75 37.538 7.912 1.541 17.508 1.774 25.995-1.415 8.684-3.263 13.769-8.003 18.152-11.83a25.413 25.426 0 0 0 .012 0l56.306-49.17c.415.009.825.095 1.24.099a25.413 25.426 0 0 0 .224 0c52.326 0 95.29-42.985 95.29-95.337 0-52.352-42.964-95.336-95.29-95.336z"/><path style="fill:#325481" d="m267.69 325.761-50.617 75.326c-6.622 7.385-7.301 12.967-4.79 21.44 3.67 12.202 10.925 18.123 21.93 19.908 10.9 2.232 14.92-.459 22.935-7.453l70.4-61.428 1.558 1.114z"/><circle style="opacity:.2" cx="331.626" cy="316.159" r="69.873"/><circle style="fill:#bfbfbf" cx="331.626" cy="309.807" r="69.873"/><path style="opacity:.4" d="m271.623 273.745-3.422 6.914c3.45 25.863 11.946 44.069 29.592 59.957 16.77 15.1 40.124 24.938 70.426 28.799l7.993-5.724c-31.689-3.304-57.704-13.068-74.115-27.845-16.411-14.776-27.18-37.402-30.474-62.101z"/><path style="opacity:.2;fill:#fff" d="M331.614 214.526c-52.327 0-95.282 42.979-95.282 95.33a25.413 25.426 0 0 0 0 .075c.003.91.096 1.818.186 2.717 1.911-50.711 43.971-91.77 95.096-91.77 51.254 0 93.422 41.265 95.132 92.155.036-1.063.161-2.105.161-3.176 0-52.352-42.967-95.331-95.293-95.331zm-94.128 110.69-41.103 61.176c-4.456 5.454-8.46 12.221-10.049 20.086-.819 4.052-.891 7.928-.62 11.575.12-1.715.26-3.441.62-5.223 1.59-7.865 5.593-14.632 10.05-20.086l42.045-62.578c-.253-1.66-.612-3.302-.943-4.95z"/><path style="opacity:.2;fill:#fff" d="M331.626 239.934a69.873 69.873 0 0 0-69.873 69.873 69.873 69.873 0 0 0 .136 3.722 69.873 69.873 0 0 1 69.737-67.243 69.873 69.873 0 0 1 69.737 66.151 69.873 69.873 0 0 0 .136-2.63 69.873 69.873 0 0 0-69.873-69.873z"/></g></svg>