<svg xmlns="http://www.w3.org/2000/svg" width="22" height="22" version="1"><rect style="fill:#84b126" width="20" height="20" x="1" y="1" rx="1" ry="1"/><path style="opacity:.2" d="M10 14.5v2H5v2h12v-2h-5v-2h-2z"/><path style="opacity:.2;fill:#fff" d="M2 1c-.554 0-1 .446-1 1v.5c0-.554.446-1 1-1h18c.554 0 1 .446 1 1V2c0-.554-.446-1-1-1H2z"/><path style="opacity:.2" d="M2 21.5c-.554 0-1-.446-1-1V20c0 .554.446 1 1 1h18c.554 0 1-.446 1-1v.5c0 .554-.446 1-1 1H2z"/><path style="fill:#3f3f3f" d="M10 14h2v3h-2z"/><path style="fill:#3f3f3f" d="M5 16h12v2H5z"/><circle style="opacity:.2" cx="4" cy="17.5" r="2"/><circle style="opacity:.2" cx="11" cy="17.5" r="2"/><circle style="opacity:.2" cx="18" cy="17.5" r="2"/><circle style="fill:#fff" cx="4" cy="17" r="2"/><circle style="fill:#fff" cx="11" cy="17" r="2"/><circle style="fill:#fff" cx="18" cy="17" r="2"/><path style="opacity:.2" d="M7.043 4.5A1.04 1.04 0 0 0 6 5.543v7.914A1.04 1.04 0 0 0 7.043 14.5h7.914A1.04 1.04 0 0 0 16 13.457V5.543A1.04 1.04 0 0 0 14.957 4.5H7.043zM8 6.5h6v6H8v-6z"/><path style="fill:#5c5c5c" d="M7.043 4A1.04 1.04 0 0 0 6 5.043v7.914A1.04 1.04 0 0 0 7.043 14h7.914A1.04 1.04 0 0 0 16 12.957V5.043A1.04 1.04 0 0 0 14.957 4H7.043zM8 6h6v6H8V6z"/></svg>