<svg xmlns="http://www.w3.org/2000/svg" width="22" height="22" version="1"><rect style="opacity:.2" width="21" height="21" y=".5" rx="1.05" ry="1.05"/><rect style="fill:#e4e4e4" width="21" height="21" rx="1.05" ry="1.05"/><path style="opacity:.1" d="M9.518 18.472a8.007 8.007 0 0 1-1.421-.357c-1.375-.536-2.376-1.603-2.81-2.994-.241-.779-.24-1.75-.274-6.817C4.994 5.492 5.001 3.5 5.001 3.5h4.15l-1.65 4H9v7H12v-11h4v6.703c0 6.193-.004 7.553-.077 7.591-.195.104-2.239.466-3.458.613-.7.084-2.49.124-2.947.065z"/><path style="fill:#e2450e" d="M9.518 17.972a8.007 8.007 0 0 1-1.421-.357c-1.375-.536-2.376-1.603-2.81-2.994-.241-.779-.24-1.75-.274-6.817C4.994 4.992 5.001 3 5.001 3h4.15L7.5 7H9v7H12V3h4v6.703c0 6.193-.004 7.553-.077 7.591-.195.104-2.239.466-3.458.613-.7.084-2.49.124-2.947.065z"/><path style="opacity:.2;fill:#fff" d="M1.05 0C.47 0 0 .47 0 1.05v.5C0 .97.47.5 1.05.5h18.9C20.53.5 21 .97 21 1.55v-.5C21 .47 20.53 0 19.95 0z"/></svg>