<svg xmlns="http://www.w3.org/2000/svg" width="22" height="22" version="1"><rect style="opacity:.2" width="8.995" height="8.986" x="-15.99" y="-15.48" rx="4.498" ry="4.493" transform="matrix(0 -1 -1 0 0 0)"/><path style="fill:#109f5b" d="M2.348 16.021a9.95 9.95 0 0 0 8.078 4.98c3.456-1.908 5.288-4.332 4.394-7.625a4.463 4.463 0 0 1-1.578 1.543c-1.07.619-2.062-.032-3.165-.321-1.12-.293-2.347-.238-2.973-1.325L2.64 5.537a9.972 9.972 0 0 0-.294 10.485z"/><path style="opacity:.2;fill:#fff" d="M10.985 1A9.968 9.968 0 0 0 1 10.995c0 .084.004.167.006.25A9.965 9.965 0 0 1 10.985 1.5a9.965 9.965 0 0 1 9.978 9.745c.002-.083.006-.166.006-.25A9.968 9.968 0 0 0 10.984 1z"/><path style="opacity:.2" d="M1.006 11.255c-.002.084-.006.166-.006.25 0 5.537 4.453 9.995 9.985 9.995s9.985-4.458 9.985-9.995c0-.084-.004-.166-.006-.25-.132 5.42-4.531 9.745-9.98 9.745s-9.846-4.324-9.978-9.745z"/><path style="fill:#dd4d3e" d="M11.127 1.01a9.95 9.95 0 0 0-.62.01c-1.73.086-3.437.668-4.92 1.574l-.003.002-.002.002a10 10 0 0 0-.637.453c-.233.18-.46.368-.675.567a10 10 0 0 0-.127.113 9.994 9.994 0 0 0-2.004 2.66l4.57 7.178c-.372-.622-.18-1.606-.213-2.383-.056-1.33 1.113-1.944 1.99-2.805.765-.75 2.564-1.777 2.24-2.38h8.919a10 10 0 0 0-.702-1.063l-.101-.125a9.954 9.954 0 0 0-.92-1.014l-.016-.015-.02-.018a10.08 10.08 0 0 0-.562-.494c-.058-.05-.118-.096-.177-.145a10 10 0 0 0-.27-.205 9.995 9.995 0 0 0-.688-.455 10 10 0 0 0-.23-.142c-.11-.06-.223-.12-.336-.176a9.89 9.89 0 0 0-1.033-.47 9.905 9.905 0 0 0-.986-.32l-.012-.005c-.145-.04-.291-.078-.438-.111a10 10 0 0 0-.52-.096 10 10 0 0 0-.46-.068 10.013 10.013 0 0 0-.49-.043 10 10 0 0 0-.381-.02c-.059-.002-.117-.005-.176-.006z"/><path style="fill:#ffce41" d="m19.645 5.998-8.51.004c.724.02 1.451.71 2.125 1.1 1.152.666 1.044 1.981 1.299 3.184.222 1.047 1.503 1.763.923 2.768l-5.035 7.92.172.007c.379.015.757.016 1.133-.012l.26-.031a9.98 9.98 0 0 0 .94-.139 9.982 9.982 0 0 0 1.175-.314c.146-.045.291-.093.436-.145a9.964 9.964 0 0 0 1.013-.45c.139-.076.276-.155.41-.237a9.9 9.9 0 0 0 1.03-.676c.253-.191.496-.395.732-.611.07-.06.139-.12.207-.182l.012-.01.037-.039a10 10 0 0 0 .557-.6c.054-.063.109-.126.162-.19a10 10 0 0 0 .638-.874 10 10 0 0 0 .325-.53c.856-1.506 1.282-3.258 1.312-4.995v-.004c.004-.226-.016-.448-.025-.672a10 10 0 0 0-1.328-4.272z"/><rect style="opacity:.2" width="10" height="10" x="-16.5" y="-16" rx="5" ry="5" transform="matrix(0 -1 -1 0 0 0)"/><rect style="fill:#fff" width="10" height="10" x="-16" y="-16" rx="5" ry="5" transform="matrix(0 -1 -1 0 0 0)"/><rect style="fill:#4587f3" width="8" height="8" x="-15" y="-15" rx="4" ry="4" transform="matrix(0 -1 -1 0 0 0)"/><path style="opacity:.2;fill:#fff" d="M11 1A10 10 0 0 0 1 11a10 10 0 0 0 .01.293A10 10 0 0 1 11 1.5a10 10 0 0 1 9.99 9.707A10 10 0 0 0 21 11 10 10 0 0 0 11 1z"/></svg>