<svg xmlns="http://www.w3.org/2000/svg" width="22" height="22" version="1"><path style="opacity:.2" d="M14 6.763v-4.21H7v4.21L1.088 19.921c-.317.79.264 1.579 1.108 1.579h16.627c.845 0 1.373-.842 1.109-1.579z"/><path style="fill:#9ccc65" d="M14 6.263v-4.21H7v4.21L1.088 19.421C.77 20.211 1.352 21 2.196 21h16.627c.845 0 1.373-.842 1.109-1.579z"/><path style="opacity:.1" d="M14.9 3.5H6.1c-.605 0-1.1-.45-1.1-1s.495-1 1.1-1h8.8c.605 0 1.1.45 1.1 1s-.495 1-1.1 1z"/><path style="fill:#75aa38" d="M14.9 3H6.1C5.495 3 5 2.55 5 2s.495-1 1.1-1h8.8c.605 0 1.1.45 1.1 1s-.495 1-1.1 1z"/><path style="opacity:.1" d="M10.239 13.94C7.764 13.53 6 11.005 6 11.005s2.286-1.855 4.761-1.445C13.236 9.97 15 12.496 15 12.496s-2.286 1.855-4.761 1.445z"/><path style="fill:#2e7d32" d="M10.239 13.44C7.764 13.03 6 10.505 6 10.505s2.286-1.855 4.761-1.445C13.236 9.47 15 11.996 15 11.996s-2.286 1.855-4.761 1.445z"/><path style="opacity:.1" d="M11.486 20.49C8.403 20.316 5.5 17.954 5.5 17.954s1.988-2.137 5.014-1.941c3.027.195 5.986 2.535 5.986 2.535s-1.931 2.115-5.014 1.942z"/><path style="fill:#388e3c" d="M11.486 19.99C8.403 19.816 5.5 17.454 5.5 17.454s1.988-2.137 5.014-1.941c3.027.195 5.986 2.535 5.986 2.535s-1.931 2.115-5.014 1.942z"/><path style="opacity:.1" d="M8.085 13.662C5.431 15.057 5.5 17.484 5.5 17.484s4.338.239 6.915-1.144C14.99 14.957 15 12.518 15 12.518s-4.26-.251-6.915 1.144z"/><path style="fill:#43a047" d="M8.085 13.162C5.431 14.557 5.5 16.984 5.5 16.984s4.338.239 6.915-1.144C14.99 14.457 15 12.018 15 12.018s-4.26-.251-6.915 1.144z"/><path style="opacity:.2;fill:#fff" d="M6.1 1C5.495 1 5 1.45 5 2c0 .087.016.17.04.25.122-.43.55-.75 1.06-.75h8.8c.51 0 .938.32 1.06.75A.903.903 0 0 0 16 2c0-.55-.495-1-1.1-1z"/></svg>