<svg xmlns="http://www.w3.org/2000/svg" width="22" height="22" version="1"><rect style="opacity:.2" width="21" height="21" x="1" y=".5" rx="1.05" ry="1.05"/><rect style="fill:#e4e4e4" width="21" height="21" x="1" rx="1.05" ry="1.05"/><path style="opacity:.1" transform="translate(-1 -.5)" d="m7.305 4.016-.01.808c1.37.577 3.599 1.889 4.63 3.797-.256-3.217-4.612-4.655-4.62-4.605zm10.39 0c-.008-.05-4.364 1.388-4.62 4.605 1.031-1.908 3.26-3.22 4.63-3.797l-.01-.808zM6.041 5.13 6.01 6.658c1.342.277 4.654 1.537 5.99 3.94-.298-4.073-5.946-5.546-5.959-5.467zm12.918 0c-.013-.079-5.661 1.394-5.959 5.467 1.336-2.403 4.648-3.663 5.99-3.94l-.031-1.527zM5.307 7.29l-.07 2.848c2.86.167 3.03 1.971 2.857 3.125l-2.951.959L5 19.543l5.184-2.037c.605-.251 1.21-.492 1.816-.713v-3.666c0-1.638-.822-3.202-2.27-4.2-1.952-1.345-4.414-1.693-4.423-1.636zm14.386 0c-.009-.057-2.47.291-4.423 1.637-1.448.997-2.27 2.561-2.27 4.199v3.666c.606.221 1.211.462 1.816.713L20 19.543l-.143-5.32-2.95-.96c-.173-1.153-.004-2.957 2.857-3.124l-.07-2.848z"/><path style="fill:#43599b" d="m6.305 3.016-.01.808c1.37.577 3.599 1.889 4.63 3.797-.256-3.217-4.612-4.655-4.62-4.605zm10.39 0c-.008-.05-4.364 1.388-4.62 4.605 1.031-1.908 3.26-3.22 4.63-3.797l-.01-.808zM5.041 4.13 5.01 5.658c1.342.277 4.654 1.537 5.99 3.94-.298-4.073-5.946-5.546-5.959-5.467zm12.918 0c-.013-.079-5.661 1.394-5.959 5.467 1.336-2.403 4.648-3.663 5.99-3.94l-.031-1.527zM4.307 6.29l-.07 2.848c2.86.167 3.03 1.971 2.857 3.125l-2.951.959L4 18.543l5.184-2.037c.605-.251 1.21-.492 1.816-.713v-3.666c0-1.638-.822-3.202-2.27-4.2-1.952-1.345-4.414-1.693-4.423-1.636zm14.386 0c-.009-.057-2.47.291-4.423 1.637-1.448.997-2.27 2.561-2.27 4.199v3.666c.606.221 1.211.462 1.816.713L19 18.543l-.143-5.32-2.95-.96c-.173-1.153-.004-2.957 2.857-3.124l-.07-2.848z"/><path style="opacity:.2;fill:#fff" d="M2.05 0C1.47 0 1 .47 1 1.05v.5C1 .97 1.47.5 2.05.5h18.9C21.53.5 22 .97 22 1.55v-.5C22 .47 21.53 0 20.95 0z"/></svg>