<svg xmlns="http://www.w3.org/2000/svg" width="22" height="22"><circle style="opacity:.2" cx="11" cy="11.5" r="10"/><circle style="fill:#447490" cx="11" cy="11" r="10"/><path style="opacity:.2" d="M1.021 3.18a5.309 5.309 0 0 0-.62.037c2.288.042 4.582.227 6.824.71.432.056.85.187 1.273.294.204.048.395.14.598.192.339.086.67.2 1.006.298.205.09.427.128.63.221.305.13.603.276.899.424.038.026.098.037.11.09.076.322.117.652.21.97.176.596.398 1.182.715 1.717-.337.16-.628.404-.883.674-.363.4-.645.88-.765 1.408-.148.541-.116 1.066.011 1.608.139.484.385.938.721 1.314.674.768 1.724 1.212 2.746 1.094 1.232-.1 2.115.098 3.197.717.569.328 1.106.732 1.512 1.254.551.626.965 1.413 1.281 2.183.047.116.088.234.153.342 0-.144-.054-.28-.102-.412-.147-.393-.313-.83-.521-1.195-.246-.439-.516-.868-.856-1.24a5.801 5.801 0 0 0-1.795-1.464c.528.068 1.042.222 1.543.397a6.103 6.103 0 0 1 1.516.78c.457.37.86.813 1.156 1.323.154.247.25.574.385.83a4.055 4.055 0 0 0-.79-1.665c-.22-.287-.501-.516-.777-.747-.635-.501-1.375-.856-2.14-1.113-1.405-.461-2.49-.64-3.965-.639a2.955 2.955 0 0 1-1.05-.168 2.523 2.523 0 0 1-1.575-1.761c-.245-.869.027-1.804.666-2.438.519-.53 1.276-.834 2.02-.761.767.054 1.497.323 2.214.586.587.229 1.176.455 1.743.732.014.164.027.331.087.486.081.159.255.236.409.307.292.131.569.248.818.451.184.149.338.332.514.49.059-.094.069-.117.086-.15l.013-.014c.133-.139.33-.167.5-.252-.44-.11-.871-.268-1.16-.629-.045-.056.145-.006.106-.093-.028-.075-.054-.117-.092-.182-.16-.236-.322-.47-.465-.717l-.5-.008c-.209-.246-.44-.47-.652-.713.017.133.04.266.04.4a2.954 2.954 0 0 1-.41-.27c-.139-.126-.267-.265-.404-.393.018.097.037.195.053.293a1.895 1.895 0 0 1-.742-.514l-.008.172c-.176-.067-.348-.143-.524-.211-.44-.166-.877-.357-1.343-.441-.514-.026-1.059.043-1.545-.166a1.471 1.471 0 0 1-.77-.715c-.293-.547-.252-1.198-.168-1.791a6.549 6.549 0 0 0-1.193-.612c-.194-.069-.375-.17-.578-.214a17.04 17.04 0 0 0-2.238-.567c-.33-.073-.666-.107-.995-.18-.314-.06-.633-.092-.95-.13a36.895 36.895 0 0 0-4.554-.227c-.207.002-.417-.004-.625-.002zm10.604 2.383c-2.772-.023-5.552.102-8.291.545-.718.12-1.44.231-2.143.426 2.348-.33 4.714-.553 7.084-.606 1.155-.008 2.31.03 3.46.145-.04-.17-.078-.34-.11-.51zm.182.75c-1.56.147-3.09.518-4.575 1.01A24.396 24.396 0 0 0 4.23 8.57c-.345.173-.693.34-1.02.547.369-.159.728-.339 1.102-.487 2.427-.998 5-1.697 7.628-1.832a5.178 5.178 0 0 1-.132-.486zm3.091.512c.276.123.565.213.838.341.836.366 1.639.819 2.344 1.399.255.212.493.446.7.705.054.06.144.015.214.025-.078-.144-.222-.238-.334-.355a8.064 8.064 0 0 0-1.91-1.385c-.59-.306-1.205-.574-1.852-.73z"/><path style="opacity:.2;fill:#fff" d="M11 1A10 10 0 0 0 1 11a10 10 0 0 0 .01.291A10 10 0 0 1 11 1.5a10 10 0 0 1 9.99 9.709A10 10 0 0 0 21 11 10 10 0 0 0 11 1z"/><path style="fill:#fff" d="M1.021 2.68a5.308 5.308 0 0 0-.62.037c2.288.041 4.582.227 6.824.709.432.056.85.187 1.273.295.204.048.395.139.598.191.339.086.67.2 1.006.299.205.09.427.128.63.22.305.13.603.276.899.424.038.026.098.038.11.09.076.322.117.653.21.971.176.595.398 1.181.715 1.717-.337.16-.628.404-.883.674-.363.399-.645.879-.765 1.408-.148.54-.116 1.066.011 1.607.139.485.385.939.721 1.315.674.767 1.724 1.211 2.746 1.093 1.232-.099 2.115.098 3.197.717.569.329 1.106.733 1.512 1.254.551.627.965 1.414 1.281 2.184.047.116.088.234.153.342 0-.145-.054-.28-.102-.413-.147-.393-.313-.83-.521-1.195-.246-.438-.516-.868-.856-1.24a5.801 5.801 0 0 0-1.795-1.463c.528.068 1.042.221 1.543.396a6.103 6.103 0 0 1 1.516.78c.457.37.86.813 1.156 1.324.154.247.25.573.385.83a4.055 4.055 0 0 0-.79-1.666c-.22-.287-.501-.515-.777-.746-.635-.502-1.375-.857-2.14-1.113-1.405-.461-2.49-.64-3.965-.639a2.954 2.954 0 0 1-1.05-.168 2.523 2.523 0 0 1-1.575-1.762c-.245-.868.027-1.804.666-2.437.519-.53 1.276-.834 2.02-.762.767.055 1.497.324 2.214.586.587.23 1.176.456 1.743.732.014.164.027.332.087.487.081.158.255.235.409.306.292.132.569.249.818.452.184.148.338.331.514.49.059-.095.069-.118.086-.15l.013-.014c.133-.14.33-.168.5-.252-.44-.11-.871-.269-1.16-.63-.045-.055.145-.005.106-.093-.028-.074-.054-.117-.092-.181-.16-.237-.322-.47-.465-.717l-.5-.008c-.209-.246-.44-.471-.652-.713.017.133.04.266.04.4a2.954 2.954 0 0 1-.41-.271c-.139-.126-.267-.264-.404-.393.018.098.037.196.053.293a1.895 1.895 0 0 1-.742-.513l-.008.172c-.176-.068-.348-.143-.524-.211-.44-.166-.877-.357-1.343-.442-.514-.026-1.059.044-1.545-.166a1.471 1.471 0 0 1-.77-.715c-.293-.547-.252-1.197-.168-1.79A6.549 6.549 0 0 0 10.961 4c-.194-.07-.375-.17-.578-.215a17.04 17.04 0 0 0-2.238-.566c-.33-.073-.666-.107-.995-.18-.314-.06-.633-.093-.95-.13a36.895 36.895 0 0 0-4.554-.227c-.207.001-.417-.004-.625-.002zm10.604 2.382c-2.772-.023-5.552.103-8.291.545-.718.12-1.44.232-2.143.426 2.348-.33 4.714-.553 7.084-.605 1.155-.008 2.31.029 3.46.144-.04-.17-.078-.339-.11-.51zm.182.75c-1.56.147-3.09.519-4.575 1.01A24.396 24.396 0 0 0 4.23 8.07c-.345.174-.693.341-1.02.547.369-.158.728-.338 1.102-.486 2.427-.998 5-1.698 7.628-1.832a5.178 5.178 0 0 1-.132-.487zm3.091.512c.276.124.565.213.838.342.836.365 1.639.818 2.344 1.398.255.212.493.446.7.706.054.059.144.014.214.025-.078-.145-.222-.239-.334-.356a8.064 8.064 0 0 0-1.91-1.384c-.59-.306-1.205-.574-1.852-.73z"/><path style="fill:#447490" d="M19.167 9.49c.376.391-.011-.015.344.357.01.01.007.004-.007.037-.114-.045-.225-.1-.336-.15l-.001-.245z"/></svg>