<svg xmlns="http://www.w3.org/2000/svg" width="22" height="22" version="1"><rect style="opacity:.2" width="17.149" height="17.149" x="-8.93" y="7.33" rx="5.145" ry="5.145" transform="rotate(-45)"/><rect style="fill:#8e8e8e" width="17.149" height="17.149" x="-8.57" y="6.98" rx="5.145" ry="5.145" transform="rotate(-45)"/><path style="opacity:.1;fill:#fff" d="M11 1c-1.315 0-2.63.504-3.638 1.512l-4.85 4.85a5.123 5.123 0 0 0-1.5 3.888 5.122 5.122 0 0 1 1.5-3.388l4.85-4.85a5.133 5.133 0 0 1 7.276 0l4.85 4.85a5.122 5.122 0 0 1 1.5 3.388 5.123 5.123 0 0 0-1.5-3.888l-4.85-4.85A5.128 5.128 0 0 0 11 1z"/><path style="opacity:.1" d="M10.984 4.5a1 1 0 0 0-.692.293l-5.999 6a1 1 0 0 0 0 1.413l6 6.001a1 1 0 0 0 1.414 0l4.707-4.707h-2.83L11 16.085 6.414 11.5 11 6.914 13.585 9.5h2.829l-4.708-4.707a1 1 0 0 0-.722-.293zm1.016 6a1 1 0 1 0 0 2h5a1 1 0 1 0 0-2z"/><path style="fill:#3f3f3f" d="M10.984 4a1 1 0 0 0-.692.293l-5.999 6a1 1 0 0 0 0 1.413l6 6.001a1 1 0 0 0 1.414 0L16.414 13h-2.83L11 15.585l-4.586-4.586L11 6.414 13.585 9h2.829l-4.708-4.707A1 1 0 0 0 10.984 4z"/><path style="fill:none;stroke:#3f3f3f;stroke-width:1.99997616;stroke-linecap:round;stroke-linejoin:round" d="M12 11h5"/></svg>