<svg xmlns="http://www.w3.org/2000/svg" width="22" height="22" version="1"><g transform="translate(-1 -1)"><rect opacity=".2" width="6" height="6" x="-3.35" y="5.59" rx="1" ry="1" transform="rotate(-45)"/><rect fill="#048ede" width="6" height="6" x="-2.99" y="5.24" rx="1" ry="1" transform="rotate(-45)"/><path fill="#fff" opacity=".1" d="M5.83 1.991a.997.997 0 0 0-.708.294L2.294 5.113a.994.994 0 0 0-.258.957.995.995 0 0 1 .258-.457l2.828-2.828a.998.998 0 0 1 1.414 0l2.83 2.828c.13.131.214.29.257.457a.995.995 0 0 0-.258-.957L6.536 2.285a.997.997 0 0 0-.707-.294z"/><rect opacity=".2" width="20" height="20" x="2" y="2.5" rx="10" ry="10"/><rect fill="#07aef5" width="20" height="20" x="2" y="2" rx="10" ry="10"/><circle opacity=".2" cx="12" cy="12.5" r="8"/><path fill="#fff" opacity=".2" d="M12 2C6.46 2 2 6.46 2 12c0 .084.004.167.006.25C2.138 6.827 6.544 2.5 12 2.5s9.862 4.327 9.994 9.75c.002-.083.006-.166.006-.25 0-5.54-4.46-10-10-10z"/><circle fill="#fff" cx="12" cy="12" r="8"/><rect fill="#ff8b29" width="2" height="7" x="15.39" y="-1.61" rx="1" ry="1" transform="rotate(30)"/><g opacity=".1" transform="matrix(.5 0 0 .5 0 .5)"><circle cx="24" cy="36" r="2"/><circle cx="24" cy="12" r="2"/><circle cx="24" cy="-12" r="2" transform="rotate(90)"/><circle cx="24" cy="-36" r="2" transform="rotate(90)"/></g><circle opacity=".1" cx="12" cy="12.5" r="2"/><circle fill="#4d4d4d" cx="12" cy="12" r="2"/><g fill="#4d4d4d" transform="scale(.5)"><circle cx="24" cy="36" r="2"/><circle cx="24" cy="12" r="2"/><circle cx="24" cy="-12" r="2" transform="rotate(90)"/><circle cx="24" cy="-36" r="2" transform="rotate(90)"/></g></g></svg>