<svg xmlns="http://www.w3.org/2000/svg" width="22" height="22" version="1"><path style="fill:#b09a7c" d="M11 1C5.444 1 1 5.445 1 11s4.444 10 10 10c.889 0 1.666-.778 1.666-1.667 0-.444-.11-.778-.444-1.11-.222-.334-.444-.668-.444-1.112 0-.89.778-1.667 1.667-1.667h2C18.555 15.444 21 13 21 9.889 21 4.999 16.556 1 11 1z"/><path style="fill:#f3c72f" d="M4.5 11C3.7 11 3 10.3 3 9.5S3.7 8 4.5 8 6 8.7 6 9.5 5.3 11 4.5 11z"/><path style="fill:#327cc4" d="M7.5 7C6.7 7 6 6.3 6 5.5S6.7 4 7.5 4 9 4.7 9 5.5 8.3 7 7.5 7z"/><path style="fill:#0e7d43" d="M12.5 7c-.8 0-1.5-.7-1.5-1.5S11.7 4 12.5 4s1.5.7 1.5 1.5S13.3 7 12.5 7z"/><path style="fill:#d94d4d" d="M17.5 11c-.8 0-1.5-.7-1.5-1.5S16.7 8 17.5 8s1.5.7 1.5 1.5-.7 1.5-1.5 1.5z"/><path style="opacity:.2;fill:#fff" d="M11 1C5.444 1 1 5.445 1 11c0 .084.004.167.006.25A9.955 9.955 0 0 1 11 1.5c5.433 0 9.801 3.827 9.99 8.57.002-.061.01-.12.01-.182C21 5 16.554 1 11 1zm.806 16.343a1.543 1.543 0 0 0-.029.269c0 .444.223.778.445 1.11.254.255.378.509.423.811.01-.066.022-.132.022-.2 0-.444-.111-.777-.445-1.11-.18-.272-.355-.548-.416-.88z"/><path style="opacity:.2" d="M20.991 10.07c-.093 3.023-2.497 5.375-5.546 5.375h-2c-.89 0-1.667.778-1.667 1.667 0 .081.015.156.029.231.137-.77.84-1.398 1.638-1.398h2c3.11 0 5.555-2.445 5.555-5.556 0-.107-.005-.213-.009-.319zM1.006 11.25c-.002.084-.006.166-.006.25 0 5.555 4.445 10 10 10 .889 0 1.667-.778 1.667-1.667 0-.107-.008-.205-.022-.3C12.54 20.335 11.821 21 11 21a9.954 9.954 0 0 1-9.994-9.75z"/><path style="opacity:.1" d="M16.503 5.504c-.285-.033-.56.173-.794.416-.312.325-5.123 4.765-6.549 5.954-1.132.944-2.81 2.943-2.63 4.42-.35.445-1.385 1.77-1.634 2.23a1.532 1.532 0 0 0-.755.07c-1.15.38-1.956 1.951-3.141 1.012 1.002 1.809 2.77 2.292 4.047 1.578.75-.42 1.04-1.044.929-1.595.02-.007.031-.005.054-.014.254-.093 1.906-1.91 2.177-2.208 1.484-.302 3.052-2.14 3.749-3.328.925-1.577 4.485-6.986 4.753-7.344.268-.359.454-.772.081-1.07a.589.589 0 0 0-.287-.12z"/><path style="fill:#783e26" d="M6.958 16.693c-1.392-1.423.816-4.163 2.202-5.319 1.427-1.189 6.237-5.63 6.55-5.954.311-.324.696-.583 1.08-.296.373.299.188.712-.08 1.07-.27.359-3.829 5.767-4.754 7.345-.899 1.533-3.251 4.16-4.998 3.154z"/><path style="fill:#777" d="M5.142 18.954c-.217-.453-.374-.404-.306-.807.046-.278 1.951-2.687 1.951-2.687.306-.122.726.025 1.059.3.35.255.586.619.524.93 0 0-2.066 2.284-2.34 2.385-.398.146-.38-.01-.888-.12z"/><path style="fill:#62473c" d="M1 19.106c1.002 1.81 2.77 2.292 4.047 1.578.993-.556 1.18-1.467.7-2.097-.476-.624-1.043-.68-1.607-.493-1.149.38-1.955 1.952-3.14 1.012z"/></svg>