<svg xmlns="http://www.w3.org/2000/svg" width="22" height="22"><path style="opacity:.2" d="M11 1.5a2 2 0 0 0-2 2v17c0 .554.446 1 1 1h2c.554 0 1-.446 1-1v-17a2 2 0 0 0-2-2z"/><path style="fill:#a3a3a3" d="M9 3v17c0 .554.446 1 1 1h2c.554 0 1-.446 1-1V3z"/><circle style="fill:#a3a3a3" cx="11" cy="3" r="2"/><rect style="opacity:.2" width="22" height="11" y="4.5" rx="2" ry="2"/><rect style="fill:#0479e8" width="22" height="11" y="4" rx="2" ry="2"/><g style="opacity:.2"><path d="M4.304 11.46h-.325l-.57-1.951q-.04-.13-.091-.327-.05-.198-.052-.237-.043.263-.136.576l-.553 1.939h-.325L1.5 8.546h.348l.447 1.8q.093.378.135.686.052-.365.155-.714l.507-1.772h.348l.532 1.788q.092.309.156.698.037-.283.14-.69l.444-1.796h.348zM7.08 11.46H5.502V8.546H7.08v.3H5.832v.94h1.172v.299H5.832v1.072h1.247zM7.707 11.46V8.546h.33v2.607h1.247v.307zM10.976 8.807q-.466 0-.737.32-.269.32-.269.876 0 .572.26.885.261.311.742.311.296 0 .675-.11v.297q-.294.114-.726.114-.624 0-.964-.391-.339-.39-.339-1.11 0-.45.163-.79.164-.338.472-.522.309-.183.727-.183.444 0 .777.168l-.139.29q-.321-.155-.642-.155zM14.718 9.999q0 .7-.344 1.101-.343.4-.954.4-.625 0-.965-.393-.338-.394-.338-1.112 0-.712.34-1.102.34-.393.967-.393.609 0 .952.399.342.399.342 1.1zm-2.253 0q0 .592.244.899.245.305.711.305.47 0 .71-.305t.24-.899q0-.588-.24-.89-.238-.306-.706-.306-.47 0-.715.307-.244.305-.244.889zM16.601 11.46l-.959-2.583h-.015q.027.307.027.73v1.853h-.304V8.546h.495l.896 2.404h.015l.903-2.404h.492v2.914h-.329V9.582q0-.323.027-.701h-.016l-.967 2.579zM20.5 11.46h-1.576V8.546H20.5v.3h-1.247v.94h1.171v.299h-1.171v1.072H20.5z"/></g><path style="fill:#fff" d="M4.304 10.96h-.325l-.57-1.951q-.04-.13-.091-.327-.05-.198-.052-.237-.043.263-.136.576l-.553 1.939h-.325L1.5 8.046h.348l.447 1.8q.093.379.135.686.052-.365.155-.714l.507-1.772h.348l.532 1.788q.092.309.156.698.037-.283.14-.69l.444-1.796h.348zM7.08 10.96H5.502V8.046H7.08v.301H5.832v.939h1.172v.299H5.832v1.072h1.247zM7.707 10.96V8.046h.33v2.607h1.247v.307zM10.976 8.307q-.466 0-.737.32-.269.32-.269.876 0 .572.26.885.261.311.742.311.296 0 .675-.11v.297q-.294.114-.726.114-.624 0-.964-.391-.339-.39-.339-1.11 0-.45.163-.79.164-.338.472-.522.309-.183.727-.183.444 0 .777.168l-.139.29q-.321-.155-.642-.155zM14.718 9.499q0 .7-.344 1.101-.343.4-.954.4-.625 0-.965-.393-.338-.394-.338-1.112 0-.712.34-1.102.34-.393.967-.393.609 0 .952.399.342.399.342 1.1zm-2.253 0q0 .592.244.899.245.305.711.305.47 0 .71-.305t.24-.899q0-.588-.24-.89-.238-.306-.706-.306-.47 0-.715.307-.244.305-.244.889zM16.601 10.96l-.959-2.583h-.015q.027.307.027.73v1.853h-.304V8.046h.495l.896 2.404h.015l.903-2.404h.492v2.914h-.329V9.082q0-.323.027-.701h-.016l-.967 2.579zM20.5 10.96h-1.576V8.046H20.5v.301h-1.247v.939h1.171v.299h-1.171v1.072H20.5z"/><path style="opacity:.1;fill:#fff" d="M2 4C.892 4 0 4.892 0 6v.5c0-1.108.892-2 2-2h18c1.108 0 2 .892 2 2V6c0-1.108-.892-2-2-2zM11 1a2 2 0 0 0-2 2v.5a2 2 0 0 1 2-2 2 2 0 0 1 2 2V3a2 2 0 0 0-2-2z"/></svg>