<svg xmlns="http://www.w3.org/2000/svg" width="22" height="22" version="1"><circle style="opacity:.2" cx="11" cy="11.5" r="10"/><circle style="fill:#50b590" cx="11" cy="11" r="10"/><rect style="fill:#30706b" width="18" height="6" x="2" y="8" rx="1" ry="1"/><path style="opacity:.2" d="M4.5 9.5c-.277 0-.5.223-.5.5v.293l-.207-.207a.499.499 0 1 0-.707.707l.207.207H3a.499.499 0 1 0 0 1h.293l-.207.207a.499.499 0 1 0 .707.707L4 12.707V13a.499.499 0 1 0 1 0v-.293l.207.207a.499.499 0 1 0 .707-.707L5.707 12H6a.499.499 0 1 0 0-1h-.293l.207-.207a.499.499 0 1 0-.707-.707L5 10.293V10c0-.277-.223-.5-.5-.5zm2 2c0 .277.223.5.5.5h.293l-.207.207a.499.499 0 1 0 .707.707L8 12.707V13a.499.499 0 1 0 1 0v-.293l.207.207a.499.499 0 1 0 .707-.707L9.707 12H10a.499.499 0 1 0 0-1h-.293l.207-.207a.499.499 0 1 0-.707-.707L9 10.293V10a.499.499 0 1 0-1 0v.293l-.207-.207a.499.499 0 1 0-.707.707l.207.207H7c-.277 0-.5.223-.5.5zm4 0c0 .277.223.5.5.5h.293l-.207.207a.499.499 0 1 0 .707.707l.207-.207V13a.499.499 0 1 0 1 0v-.293l.207.207a.499.499 0 1 0 .707-.707L13.707 12H14a.499.499 0 1 0 0-1h-.293l.207-.207a.499.499 0 1 0-.707-.707l-.207.207V10a.499.499 0 1 0-1 0v.293l-.207-.207a.499.499 0 1 0-.707.707l.207.207H11c-.277 0-.5.223-.5.5z"/><path style="opacity:.2;fill:#fff" d="M11 1A10 10 0 0 0 1 11a10 10 0 0 0 .01.291A10 10 0 0 1 11 1.5a10 10 0 0 1 9.99 9.709A10 10 0 0 0 21 11 10 10 0 0 0 11 1z"/><rect style="fill:#fff" width="1" height="4" x="4" y="9" rx=".5" ry=".5"/><rect style="fill:#fff" width="1" height="4" x="10.5" y="-6.5" rx=".5" ry=".5" transform="rotate(90)"/><rect style="fill:#fff" width="1" height="4" x="-5.1" y="8.96" rx=".5" ry=".5" transform="rotate(-45)"/><rect style="fill:#fff" width="1" height="4" x="10.46" y="2.6" rx=".5" ry=".5" transform="rotate(45)"/><rect style="fill:#fff" width="1" height="4" x="8" y="9" rx=".5" ry=".5"/><rect style="fill:#fff" width="1" height="4" x="10.5" y="-10.5" rx=".5" ry=".5" transform="rotate(90)"/><rect style="fill:#fff" width="1" height="4" x="-2.27" y="11.79" rx=".5" ry=".5" transform="rotate(-45)"/><rect style="fill:#fff" width="1" height="4" x="13.29" y="-.23" rx=".5" ry=".5" transform="rotate(45)"/><rect style="fill:#fff" width="1" height="4" x="12" y="9" rx=".5" ry=".5"/><rect style="fill:#fff" width="1" height="4" x="10.5" y="-14.5" rx=".5" ry=".5" transform="rotate(90)"/><rect style="fill:#fff" width="1" height="4" x=".56" y="14.62" rx=".5" ry=".5" transform="rotate(-45)"/><rect style="fill:#fff" width="1" height="4" x="16.12" y="-3.06" rx=".5" ry=".5" transform="rotate(45)"/><path style="opacity:.1" d="M3 8c-.554 0-1 .446-1 1v.5c0-.554.446-1 1-1h16c.554 0 1 .446 1 1V9c0-.554-.446-1-1-1z"/><path style="opacity:.1;fill:#fff" d="M3 14.5c-.554 0-1-.446-1-1V13c0 .554.446 1 1 1h16c.554 0 1-.446 1-1v.5c0 .554-.446 1-1 1z"/></svg>