<svg xmlns="http://www.w3.org/2000/svg" width="22" height="22"><rect style="opacity:.2" width="20" height="20" y="1.5" rx="1" ry="1"/><path style="fill:#eb643d" d="M1 1h18c.554 0 1 .446 1 1v12.197l-2.666 4.847c-.267.486-1 1.209-1.553 1.201l-11.662-.15c-.554-.008-1.412-.883-1.604-1.403L0 11.883V2c0-.554.446-1 1-1z"/><path style="fill:#7cc42e" d="M1 1c-.08 0-.158.01-.232.03-.005 0-.01.003-.014.004-.072.02-.141.045-.206.078l12.717 16.723 3.707-1.777L5.052 1zm8.78 0L20 14.51V7.45L14.34 1z"/><path style="fill:#2be0de" d="M3.86 9.23 0 11.672V20c0 .554.446 1 1 1h18c.554 0 1-.446 1-1v-6.779z"/><path style="opacity:.2" d="M5.858 8.496a1.91 2.312 23.444 0 0-1.974 1.492 1.91 2.312 23.444 0 0 .833 2.88 1.91 2.312 23.444 0 0 2.462-.969 2.473 2.876 56.175 0 0 1.323 2.95 2.473 2.876 56.175 0 0 3.326-.995 2.473 2.876 22.173 0 0 .014.461 2.473 2.876 22.173 0 0 2.823 2.112 2.473 2.876 22.173 0 0 2.041-1.976 1.91 2.312 23.444 0 0 1.027 1.418 1.91 2.312 23.444 0 0 2.672-1.362 1.91 2.312 23.444 0 0-.832-2.88 1.91 2.312 23.444 0 0-2.672 1.36 1.91 2.312 23.444 0 0-.028.071 2.473 2.876 22.173 0 0-.001-.017 2.473 2.876 22.173 0 0-2.824-2.112 2.473 2.876 22.173 0 0-1.512 1.013 2.473 2.876 56.175 0 0-1.47-1.998 2.473 2.876 56.175 0 0-3.603 1.367 1.91 2.312 23.444 0 0-.907-2.684 1.91 2.312 23.444 0 0-.698-.131z"/><ellipse style="fill:#fff" cx="9.248" cy="7.159" rx="1.91" ry="2.312" transform="rotate(23.444)"/><ellipse style="fill:#fff" cx="14.314" cy="7.955" rx="2.595" ry="2.767" transform="matrix(.94096 .33852 -.46327 .88622 0 0)"/><ellipse style="fill:#fff" cx="12.917" cy="16.452" rx="2.595" ry="2.767" transform="matrix(.96938 -.24557 .11154 .99376 0 0)"/><ellipse style="fill:#fff" cx="22.384" cy="4.732" rx="1.91" ry="2.312" transform="rotate(23.444)"/><path style="fill:#ffd520" d="M13.05 4.054c-4.64 1.282-4.317 3.02-8.391 2.967-.896 0-1.694.396-2.214 1.016-.6.661-.409 1.564-.337 2.203.221.09.971-.657 1.196-.572 3.61 1.373 9.12 2.82 13.378 3.268 1.88.197 3.318-.13 4.538-.414.464-.483.75-1.126.75-1.834 0-1.498-1.271-2.713-2.84-2.713-2.216-.398-2.671-3.775-6.08-3.92z"/><path style="fill:#5e5e5e" d="M10.49 6.75a.232.232 0 0 0-.23.236c.078 1.09-.474 1.02-1.016 1.02h-.023c-.31.016-.286.481.023.465.538 0 1.016.011 1.016 1.043-.004.315.469.315.464 0-.08-1.115.492-1.043 1.04-1.043.314.005.314-.47 0-.465-.786 0-1.04.018-1.04-1.02a.232.232 0 0 0-.235-.236z"/><path style="opacity:.2;fill:#fff" d="M1 1c-.554 0-1 .446-1 1v.5c0-.554.446-1 1-1h18c.554 0 1 .446 1 1V2c0-.554-.446-1-1-1z"/><path style="fill:#5e5e5e" d="M14.49 6.75a.232.232 0 0 0-.23.236c.078 1.09-.474 1.02-1.016 1.02h-.023c-.31.016-.286.481.023.465.538 0 1.016.011 1.016 1.043-.004.315.469.315.464 0-.08-1.115.492-1.043 1.04-1.043.314.005.314-.47 0-.465-.786 0-1.04.018-1.04-1.02a.232.232 0 0 0-.235-.236z"/><path style="opacity:.1" d="M4.76 13.237a1 1 0 0 0-.759 1.647L9.034 21h2.59l-6.08-7.388a1 1 0 0 0-.783-.375zm12.33 2.74a1 1 0 0 0-.76 1.646l2.77 3.367c.506-.05.9-.47.9-.99v-1.063l-2.126-2.584a1 1 0 0 0-.784-.376zm-14.917.38a1 1 0 0 0-.76 1.647L3.878 21h2.59l-3.51-4.267a1 1 0 0 0-.785-.376zm10.198 0a1 1 0 0 0-.76 1.647L14.076 21h2.59l-3.51-4.267a1 1 0 0 0-.785-.376z"/><path style="opacity:.2;fill:#fff" d="M13.05 4.054c-4.64 1.282-4.317 3.02-8.39 2.967-.897 0-1.696.396-2.216 1.016-.397.438-.438.978-.406 1.48.034-.344.14-.686.406-.98A2.883 2.883 0 0 1 4.66 7.521c4.074.053 3.751-1.685 8.39-2.967 3.41.146 3.865 3.523 6.082 3.92 1.483 0 2.7 1.089 2.826 2.475a2.61 2.61 0 0 0 .013-.26c0-1.5-1.271-2.714-2.84-2.714-2.216-.398-2.671-3.775-6.08-3.921z"/></svg>