<svg xmlns="http://www.w3.org/2000/svg" width="22" height="22" version="1"><circle style="opacity:.2" cx="10.5" cy="11" r="9.5"/><circle style="fill:#949494" cx="10.5" cy="10.5" r="9.5"/><path style="opacity:.2;fill:#fff" d="M10.5 1A9.5 9.5 0 0 0 1 10.5a9.5 9.5 0 0 0 .01.296A9.5 9.5 0 0 1 10.5 1.5a9.5 9.5 0 0 1 9.49 9.204A9.5 9.5 0 0 0 20 10.5 9.5 9.5 0 0 0 10.5 1z"/><path style="opacity:.1" d="M20.5 1C17.036 2.682 4.554 5.928 2.143 22h.166C6.499 8.071 15.756 3.772 18.947 2.602c-1.072 4-2.23 4.715-3.2 4.82 2.85.174-5.688 8.201-9.884 9.601C8.801 11.45 13.31 7.628 17.814 3.805c-5.263 4.099-10.073 8.091-13.212 14.09C13.572 15.047 17.857 9.2 20.5 1z"/><path style="fill:#3f3f3f" d="M20.5.5C17 2.2 4.295 5.494 2.07 22h.084C6.27 7.665 15.717 3.286 18.947 2.102c-1.072 4-2.23 4.715-3.2 4.82 2.85.174-5.688 8.201-9.884 9.601C8.801 10.95 13.31 7.128 17.814 3.305c-5.263 4.099-10.073 8.091-13.212 14.09C13.572 14.547 17.857 8.7 20.5.5z"/></svg>