<svg xmlns="http://www.w3.org/2000/svg" width="22" height="22" version="1"><circle style="opacity:.2" cx="11" cy="11.5" r="10"/><circle style="fill:#e4e4e4" cx="11" cy="11" r="10"/><path style="opacity:.2;fill:#fff" d="M11 1A10 10 0 0 0 1 11a10 10 0 0 0 .01.291A10 10 0 0 1 11 1.5a10 10 0 0 1 9.99 9.709A10 10 0 0 0 21 11 10 10 0 0 0 11 1z"/><path style="opacity:.1" d="M6.03 21.417c-.092-1.037.704-1.931 1.019-2.891.265-.79 1.243-1.914.213-2.542-1.072-.705-2.867-.666-3.606-1.006-.52-.894 1.11-1.286 1.392-2.04.117-1.027-1.218-1.02-1.88-1.37-.53-.13-1.437-.68-.413-.838 1.262-.619-.265-1.807-.74-2.453-.373-.508-1.842-1.749-.38-1.741 1.145-.14 2.307-.053 3.451-.177.779-.138.395-2.169 1.247-1.006.774.836 1.042 2.298 2.111 2.68.916.328.993-1.69 1.185-2.534.198-.863.304-2.066.96-2.199.473 1.168 1.581.675 2.262-.007.892-.604 1.697-1.391 2.705-1.793.578.65.274 1.82.421 2.672-.027.902-.032 2.806 1.328 1.79 1.216-.426.02 1.128-.267 1.542-.638 1.002-1.39 1.935-1.972 2.97-.395 1.195 1.499.811 2.204.987.62.138 1.932-.106 2.136.373-.91.44-1.223 1.514-.366 2.313.634.592 1.695 1.042 1.96 1.734-1.13.692-2.49.36-3.731.511-.501.391.307 2.158-.758 1.333-.844-.383-1.891-1.61-2.734-.885-.744.64-.077 1.939-.544 2.767-.535-.515-.963-1.224-1.636-1.624-.788-.448-1.88-1.352-2.686-.666-.781.664-.925 1.849-1.417 2.748-.333.614-.52 1.75-1.464 1.352z"/><path style="fill:#014c71" d="M6.03 20.917c-.092-1.037.704-1.931 1.019-2.891.265-.79 1.243-1.914.213-2.542-1.072-.705-2.867-.666-3.606-1.006-.52-.894 1.11-1.286 1.392-2.04.117-1.027-1.218-1.02-1.88-1.37-.53-.13-1.437-.68-.413-.838 1.262-.619-.265-1.807-.74-2.453-.373-.508-1.842-1.749-.38-1.741 1.145-.14 2.307-.053 3.451-.177.779-.138.395-2.169 1.247-1.006.774.836 1.042 2.298 2.111 2.68.916.328.993-1.69 1.185-2.534.198-.863.304-2.066.96-2.199.473 1.168 1.581.675 2.262-.007.892-.604 1.697-1.391 2.705-1.793.578.65.274 1.82.421 2.672-.027.902-.032 2.806 1.328 1.79 1.216-.426.02 1.128-.267 1.542-.638 1.002-1.39 1.935-1.972 2.97-.395 1.195 1.499.811 2.204.987.62.138 1.932-.106 2.136.373-.91.44-1.223 1.514-.366 2.313.634.592 1.695 1.042 1.96 1.734-1.13.692-2.49.36-3.731.511-.501.391.307 2.158-.758 1.333-.844-.383-1.891-1.61-2.734-.885-.744.64-.077 1.939-.544 2.767-.535-.515-.963-1.224-1.636-1.624-.788-.448-1.88-1.352-2.686-.666-.781.664-.925 1.849-1.417 2.748-.333.614-.52 1.75-1.464 1.352z"/></svg>