<svg xmlns="http://www.w3.org/2000/svg" width="22" height="22"><path style="opacity:.2" d="M10.991 1.5c-5.292.01-9.587 4.409-9.587 9.837H3.5c0-4.796 2.792-7.8 7.467-7.837h.066c4.7 0 7.467 3.016 7.467 7.837h2.094c0-5.435-4.286-9.837-9.585-9.837h-.018z"/><circle style="opacity:.2" cx="13.568" cy="10.291" r="7.5" transform="rotate(12.584)"/><path style="fill:#3d3846" d="M10.991 1c-5.292.01-9.587 4.409-9.587 9.837H3.5c0-4.796 2.792-7.8 7.467-7.837h.066c4.7 0 7.467 3.016 7.467 7.837h2.094C20.594 5.402 16.308 1 11.01 1h-.018z"/><path style="opacity:.1;fill:#fff" d="M10.991 1c-5.292.01-9.587 4.409-9.587 9.837h.013C1.671 5.64 5.862 1.51 10.991 1.5h.018c5.135 0 9.32 4.135 9.573 9.337h.013C20.595 5.402 16.308 1 11.009 1z"/><path style="fill:#c01c28" d="M4.422 1S2.76 4.695 6.035 8.72l3.52-1.655C4.787 5.03 4.422 1 4.422 1zM17.58 1s1.663 3.695-1.612 7.721l-3.521-1.655C17.215 5.03 17.581 1 17.581 1z"/><path style="opacity:.1;fill:#fff" d="M4.422 1s-.463 1.046-.413 2.624c.046-1.294.413-2.124.413-2.124s.348 3.717 4.606 5.813l.527-.248C4.787 5.03 4.422 1 4.422 1zm13.16 0s-.366 4.03-5.134 6.065l.527.248C17.233 5.217 17.58 1.5 17.58 1.5s.367.83.413 2.124C18.044 2.046 17.581 1 17.581 1z"/><circle style="fill:#e8303a" cx="13.459" cy="9.803" r="7.5" transform="rotate(12.584)"/><circle style="opacity:.4" cx="9.5" cy="14.5" r=".5"/><circle style="opacity:.4" cx="11.5" cy="14.5" r=".5"/><path style="opacity:.2" d="M8 8.5a2 2 0 0 0-2 2 2 2 0 0 0 2 2 2 2 0 0 0 2-2 2 2 0 0 0-2-2zm6 0a2 2 0 0 0-2 2 2 2 0 0 0 2 2 2 2 0 0 0 2-2 2 2 0 0 0-2-2z"/><circle style="fill:#f6f5f4" cx="14" cy="10" r="2"/><circle style="fill:#241f31" cx="13.5" cy="9.5" r="1"/><circle style="fill:#f6f5f4" cx="8" cy="10" r="2"/><circle style="fill:#241f31" cx="8" cy="9.5" r="1"/><path style="opacity:.2;fill:#fff" d="M11.366 5.009a7.5 7.5 0 0 0-7.686 5.857 7.5 7.5 0 0 0-.17 1.761 7.5 7.5 0 0 1 .17-1.26 7.5 7.5 0 0 1 8.954-5.687 7.5 7.5 0 0 1 5.856 7.193 7.5 7.5 0 0 0-5.856-7.693 7.5 7.5 0 0 0-1.268-.171z"/><path style="opacity:.2" d="M4.246 8.5c-.068 0-.155.017-.246.041 0 0-.662.252-.746.271-.41.098-.875.043-1.25.215a1.223 1.223 0 0 0-.5.432c-.17.258-.233.468-.281.76-.132.79-.22 1.535-.223 2.635v.292c.003 1.1.09 1.845.223 2.635.048.292.112.502.28.76.117.177.293.336.5.432.376.172.841.117 1.25.214.085.02.747.274.747.274.089.023.18.039.246.039.244 0 .383-.072.504-.25s.254-.392.25-1.043V9.793c.004-.651-.129-.866-.25-1.043-.121-.177-.26-.25-.504-.25zm13.508 0c-.244 0-.383.073-.504.25s-.254.392-.25 1.043v6.414c-.004.651.129.865.25 1.043.121.178.26.25.504.25.066 0 .157-.016.246-.04 0 0 .662-.253.746-.272.41-.098.875-.043 1.25-.215.208-.096.384-.255.5-.432.17-.258.233-.468.281-.76.132-.79.22-1.535.223-2.635v-.292c-.004-1.1-.09-1.845-.223-2.635-.048-.292-.112-.502-.28-.76a1.223 1.223 0 0 0-.5-.432c-.376-.172-.841-.117-1.25-.215-.085-.02-.747-.271-.747-.271a1.062 1.062 0 0 0-.246-.041z"/><path style="fill:#3d3846" d="M4 8.04v8.921s-.662-.253-.746-.273c-.41-.097-.876-.043-1.25-.215a1.22 1.22 0 0 1-.5-.431c-.17-.258-.232-.469-.281-.76-.132-.791-.22-1.535-.223-2.635v-.294c.004-1.1.091-1.844.223-2.635.049-.291.111-.502.28-.76a1.22 1.22 0 0 1 .5-.43c.375-.173.841-.119 1.25-.216.085-.02.747-.272.747-.272z"/><path style="fill:#9a9996" d="M4.246 8c.243 0 .383.073.505.25.12.178.253.391.249 1.042v6.416c.004.651-.128.864-.25 1.042-.12.177-.26.25-.504.25-.067 0-.157-.016-.246-.039v-8.92c.091-.024.178-.04.246-.041z"/><path style="opacity:.4" d="M8.887 15.189c-1.955.03-1.479.873-1.846 1.542-.18.327.26-.038.754-.493.778 1.202 2.204 2.339 4.705 1.437-2.23-.159-3.59-.942-4.404-1.721.409-.389.79-.765.79-.765z"/><path style="fill:#3d3846" d="M18 8.04v8.921s.662-.253.746-.273c.41-.097.876-.043 1.25-.215a1.22 1.22 0 0 0 .5-.431c.17-.258.232-.469.28-.76.133-.791.22-1.535.224-2.635v-.294a15.078 15.078 0 0 0-.223-2.635c-.049-.291-.111-.502-.28-.76a1.22 1.22 0 0 0-.5-.43c-.375-.173-.841-.119-1.251-.216-.084-.02-.746-.272-.746-.272z"/><path style="fill:#9a9996" d="M17.754 8c-.243 0-.384.073-.505.25-.12.178-.253.391-.249 1.042v6.416c-.004.651.128.864.25 1.042.12.177.26.25.504.25.066 0 .157-.016.246-.039v-8.92A1.053 1.053 0 0 0 17.754 8z"/><path style="opacity:.1;fill:#fff" d="M4.246 8c-.068 0-.155.017-.246.041 0 0-.662.252-.746.271-.41.098-.875.043-1.25.215a1.223 1.223 0 0 0-.5.432c-.17.258-.233.468-.281.76-.132.79-.22 1.535-.223 2.635v.292c0 .04.004.065.004.104.01-1.036.091-1.77.219-2.531.048-.292.112-.502.28-.76.117-.177.293-.336.5-.432.376-.172.841-.117 1.25-.215.085-.02.747-.271.747-.271.091-.024.178-.04.246-.041.244 0 .383.073.504.25s.254.392.25 1.043v-.5c.004-.651-.129-.866-.25-1.043-.121-.177-.26-.25-.504-.25zm13.508 0c-.244 0-.383.073-.504.25s-.254.392-.25 1.043v.5c-.004-.651.129-.866.25-1.043.121-.177.26-.25.504-.25.068 0 .155.017.246.041 0 0 .662.252.746.272.41.097.875.042 1.25.214.208.096.384.255.5.432.17.258.233.468.281.76.128.762.21 1.495.22 2.531 0-.039.003-.064.003-.104v-.292c-.004-1.1-.09-1.845-.223-2.635-.048-.292-.112-.502-.28-.76a1.223 1.223 0 0 0-.5-.432c-.376-.172-.841-.117-1.25-.215-.085-.02-.747-.271-.747-.271A1.062 1.062 0 0 0 17.754 8z"/></svg>