<svg width="22" height="22" xmlns="http://www.w3.org/2000/svg"><rect transform="matrix(0 -1 -1 0 0 0)" x="-21" y="-19" width="20" height="16" rx="1" ry="1" style="fill:#8e8e8e"/><path d="M3 20v.5c0 .554.446 1 1 1h14c.554 0 1-.446 1-1V20c0 .554-.446 1-1 1H4c-.554 0-1-.446-1-1z" style="opacity:.2"/><rect x="3" y="1.5" width="16" height="17" ry="1" style="opacity:.2"/><rect x="3" y="1" width="16" height="17" ry="1" style="fill:#f49c35"/><path d="M4 1c-.554 0-1 .446-1 1v.5c0-.554.446-1 1-1h14c.554 0 1 .446 1 1V2c0-.554-.446-1-1-1z" style="fill:#fff;opacity:.2"/><path d="M14.5 19.5a.5.5 0 0 0-.5.5.5.5 0 0 0 .5.5.5.5 0 0 0 .5-.5.5.5 0 0 0-.5-.5zm2 0a.5.5 0 0 0-.5.5.5.5 0 0 0 .5.5.5.5 0 0 0 .5-.5.5.5 0 0 0-.5-.5z" style="opacity:.2"/><circle cx="16.5" cy="19.5" r=".5" style="fill:#b7b7b7"/><circle cx="14.5" cy="19.5" r=".5" style="fill:#b7b7b7"/><rect x="5" y="19.5" width="7" height="1" ry=".5" style="fill:#fff;opacity:.2"/><rect x="5" y="19" width="7" height="1" ry=".5" style="fill:#3b3a36"/><circle cx="11" cy="9.5" r="6" style="opacity:.2"/><circle cx="11" cy="9" r="6" style="fill:#252a35"/><path d="m9.964 5-.088 1.054a3.143 3.143 0 0 0-.918.53L8 6.135 7 7.866l.87.604A3.143 3.143 0 0 0 7.82 9a3.143 3.143 0 0 0 .046.532L7 10.134l1 1.732.955-.45a3.143 3.143 0 0 0 .921.528L9.964 13h2l.089-1.054a3.143 3.143 0 0 0 .918-.53l.958.45 1-1.732-.87-.604a3.143 3.143 0 0 0 .048-.53 3.143 3.143 0 0 0-.045-.532l.867-.602-1-1.732-.956.45a3.143 3.143 0 0 0-.92-.528L11.963 5h-2zm1 2.857A1.143 1.143 0 0 1 12.107 9a1.143 1.143 0 0 1-1.143 1.143A1.143 1.143 0 0 1 9.821 9a1.143 1.143 0 0 1 1.143-1.143z" style="fill:#fff"/></svg>