<svg width="22" height="22" xmlns="http://www.w3.org/2000/svg"><rect x="1" y="1.5" width="20" height="20" rx="2" ry="2" style="opacity:.2"/><rect x="1" y="1" width="20" height="20" rx="2" ry="2" style="fill:#8f0000"/><path d="M16 4.5c-1.09 0-1.966.864-1.994 1.947-.26.003-.536.015-.828.057-.484.07-.991.204-1.422.512-.43.308-.757.838-.756 1.484 0 .597-.233.947-.652 1.252-.42.305-1.042.514-1.686.63a8.394 8.394 0 0 1-.848.118H7v-1c0-1.108-.892-2-2-2H1v1h4c.554 0 1 .446 1 1v3c0 .554-.446 1-1 1H1v1h4c1.108 0 2-.892 2-2v-1h.81c.287.021.562.05.862.104.646.114 1.268.32 1.687.626.42.306.656.66.655 1.268-.003 1.115.398 1.988.998 2.59.6.602 1.368.942 2.11 1.144a8.51 8.51 0 0 0 1.878.276 1.996 1.996 0 0 0 2 1.992h3v-1h-3c-.665 0-1-.357-1-1v-3c0-.554.446-1 1-1h3v-1h-3c-1.108 0-2 .892-2 2v2.002a7.475 7.475 0 0 1-1.615-.234c-.632-.173-1.236-.458-1.664-.887-.429-.43-.71-.994-.707-1.879a2.533 2.533 0 0 0-1.065-2.078 3.858 3.858 0 0 0-.806-.436c.278-.116.549-.25.793-.427C11.547 10.116 12 9.403 12 8.5c0-.354.112-.51.338-.672.225-.161.59-.278.982-.334a5.25 5.25 0 0 1 .68-.047V9.5c0 1.108.892 2 2 2h5v-1h-5c-.554 0-1-.446-1-1v-3c0-.66.379-1 1-1h5v-1z" style="opacity:.2"/><path d="M16 4c-1.09 0-1.966.864-1.994 1.947-.26.003-.536.015-.828.057-.484.07-.991.204-1.422.512-.43.308-.757.838-.756 1.484 0 .597-.233.947-.652 1.252-.42.305-1.042.514-1.686.63a8.394 8.394 0 0 1-.848.118H7V9c0-1.108-.892-2-2-2H1v1h4c.554 0 1 .446 1 1v3c0 .554-.446 1-1 1H1v1h4c1.108 0 2-.892 2-2v-1h.81c.287.021.562.05.862.104.646.114 1.268.32 1.687.626.42.306.656.66.655 1.268-.003 1.115.398 1.988.998 2.59.6.602 1.368.942 2.11 1.144a8.51 8.51 0 0 0 1.878.276A1.996 1.996 0 0 0 18 19h3v-1h-3c-.665 0-1-.357-1-1v-3c0-.554.446-1 1-1h3v-1h-3c-1.108 0-2 .892-2 2v2.002a7.475 7.475 0 0 1-1.615-.234c-.632-.173-1.236-.458-1.664-.887-.429-.43-.71-.994-.707-1.879a2.533 2.533 0 0 0-1.065-2.078 3.858 3.858 0 0 0-.806-.436c.278-.116.549-.25.793-.427C11.547 9.616 12 8.903 12 8c0-.354.112-.51.338-.672.225-.161.59-.278.982-.334a5.25 5.25 0 0 1 .68-.047V9c0 1.108.892 2 2 2h5v-1h-5c-.554 0-1-.446-1-1V6c0-.66.379-1 1-1h5V4h-5z" style="fill:#fff"/><path d="M3 1c-1.108 0-2 .892-2 2v.5c0-1.108.892-2 2-2h16c1.108 0 2 .892 2 2V3c0-1.108-.892-2-2-2H3z" style="fill:#fff;opacity:.1"/></svg>