<svg xmlns="http://www.w3.org/2000/svg" width="22" height="22"><path style="fill:#144379" d="M11 1A10 10 0 0 0 1 11a10 10 0 0 0 10 10 10 10 0 0 0 10-10A10 10 0 0 0 11 1z"/><path style="opacity:.2" d="M11 4.5a7 7 0 0 0-4.578 1.715L7.988 7.78C8.286 7.606 8.628 7.5 9 7.5h4c.372 0 .714.106 1.012.281l1.568-1.568A7 7 0 0 0 11 4.5zM5.713 6.92A7 7 0 0 0 4 11.5a7 7 0 0 0 1.715 4.578L7 14.793V9.5c0-.372.106-.714.281-1.012L5.713 6.92zm10.572.002L14.72 8.488c.175.298.281.64.281 1.012v4c0 .372-.106.714-.281 1.012l1.568 1.568A7 7 0 0 0 18 11.5a7 7 0 0 0-1.715-4.578zm-2.273 8.297c-.298.175-.64.281-1.012.281H9l-1.994 1.736A6.997 6.997 0 0 0 11 18.5a7 7 0 0 0 4.58-1.713l-1.568-1.568zM7 16.207l-.578.578c.185.16.379.308.578.447v-1.025z"/><path style="opacity:.2" d="M1.01 11.209A10 10 0 0 0 1 11.5a10 10 0 0 0 10 10 10 10 0 0 0 10-10 10 10 0 0 0-.01-.209A10 10 0 0 1 11 21a10 10 0 0 1-9.989-9.791z"/><path style="opacity:.1;fill:#fff" d="M11 1A10 10 0 0 0 1 11a10 10 0 0 0 .01.209A10 10 0 0 1 11 1.5a10 10 0 0 1 9.99 9.791A10 10 0 0 0 21 11 10 10 0 0 0 11 1z"/><path style="fill:#00cea5" d="M11 4a7 7 0 0 0-4.578 1.715L7.988 7.28C8.286 7.106 8.628 7 9 7h4c.372 0 .714.106 1.012.281l1.568-1.568A7 7 0 0 0 11 4z"/><path style="fill:#d152ac" d="M5.713 6.42A7 7 0 0 0 4 11a7 7 0 0 0 1.715 4.578L7 14.293V9c0-.372.106-.714.281-1.012L5.713 6.42z"/><path style="fill:#d75950" d="M16.285 6.422 14.72 7.988c.175.298.281.64.281 1.012v4c0 .372-.106.714-.281 1.012l1.568 1.568A7 7 0 0 0 18 11a7 7 0 0 0-1.715-4.578z"/><path style="fill:#e88a19" d="M14.012 14.719c-.298.175-.64.281-1.012.281H9l-1.994 1.736A6.997 6.997 0 0 0 11 18a7 7 0 0 0 4.58-1.713l-1.568-1.568zM7 15.707l-.578.578c.185.16.379.308.578.447v-1.025z"/><path style="opacity:.2;fill:#fff" d="M11 4a7 7 0 0 0-4.578 1.715l.28.28A6.994 6.994 0 0 1 11 4.5a6.995 6.995 0 0 1 4.3 1.492l.28-.28A7 7 0 0 0 11 4zM5.713 6.42A7 7 0 0 0 4 11c0 .084.009.166.012.25a6.996 6.996 0 0 1 1.7-4.33l1.419 1.418c.044-.12.086-.241.15-.35L5.713 6.42zm10.572.002L14.72 7.988c.064.109.106.23.15.35l1.416-1.416a6.996 6.996 0 0 1 1.703 4.328c.003-.084.012-.166.012-.25a7 7 0 0 0-1.715-4.578zM15 13c0 .372-.106.714-.281 1.012l.15.15c.076-.208.131-.426.131-.662V13zm-.988 1.719c-.298.175-.64.281-1.012.281H9l-1.994 1.736c.11.077.229.134.342.203L9 15.5h4c.372 0 .714-.106 1.012-.281l1.289 1.289c.093-.073.19-.143.28-.22l-1.57-1.57zM7 15.707l-.578.578c.09.078.187.146.281.219L7 16.207v-.5z"/></svg>