<svg xmlns="http://www.w3.org/2000/svg" width="22" height="22" version="1"><rect style="opacity:.2" width="20" height="20" x="1" y="1.5" rx="6" ry="6"/><rect style="fill:#e4e4e4" width="20" height="20" x="1" y="1" rx="6" ry="6"/><path style="opacity:.2;fill:#fff" d="M7 1C3.676 1 1 3.676 1 7v.5c0-3.324 2.676-6 6-6h8c3.324 0 6 2.676 6 6V7c0-3.324-2.676-6-6-6z"/><path style="opacity:.1" d="M10.36 18.476c-2.092-.202-4.022-1.35-5.17-3.077-1.077-1.62-1.439-3.54-1.02-5.416.155-.697.548-1.709.63-1.619.017.02.072.202.122.405.294 1.199 1.06 2.075 2.35 2.687.822.39 1.608.618 3.215.931 1.49.291 1.876.443 2.477.744.658.33 1.068.711 1.315 1.222.224.463.277.766.255 1.456-.017.527-.033.633-.139.924-.383.988-1.19 1.392-1.924 1.575a6.627 6.627 0 0 1-2.11.168zm6.775-3.97c-.261-1.55-1.123-2.683-2.596-3.416-.854-.424-1.454-.6-3.446-1.005-1.497-.305-2.27-.478-2.821-.742-.658-.314-1.06-.803-1.194-1.448-.066-.318-.057-1.096.017-1.385.148-.582.578-1.2.99-1.422.11-.059.37-.164.58-.234 2.97-.988 6.41.144 8.15 2.753a6.954 6.954 0 0 1 1.015 5.407c-.157.7-.52 1.646-.63 1.646-.021 0-.05-.07-.065-.154z"/><path style="fill:#329289" d="M10.36 17.976c-2.092-.202-4.022-1.35-5.17-3.077-1.077-1.62-1.439-3.54-1.02-5.416.155-.697.548-1.709.63-1.619.017.02.072.202.122.405.294 1.199 1.06 2.075 2.35 2.687.822.39 1.608.618 3.215.931 1.49.291 1.876.443 2.477.744.658.33 1.068.711 1.315 1.222.224.463.277.766.255 1.456-.017.527-.033.633-.139.924-.383.988-1.19 1.392-1.924 1.575a6.627 6.627 0 0 1-2.11.168zm6.775-3.97c-.261-1.55-1.123-2.683-2.596-3.416-.854-.424-1.454-.6-3.446-1.005-1.497-.305-2.27-.478-2.821-.742-.658-.314-1.06-.803-1.194-1.448-.066-.318-.057-1.096.017-1.385.148-.582.578-1.2.99-1.422.11-.059.37-.164.58-.234 2.97-.988 6.41.144 8.15 2.753a6.954 6.954 0 0 1 1.015 5.407c-.157.7-.52 1.646-.63 1.646-.021 0-.05-.07-.065-.154z"/></svg>