<svg xmlns="http://www.w3.org/2000/svg" width="22" height="22"><rect style="opacity:.2" width="20" height="20" x="1" y="1.5" ry="3"/><rect style="fill:#a448ba" width="20" height="20" x="1" y="1" ry="3"/><path style="opacity:.2" d="M8.438 4.5c-.381 0-.773.034-1.174.102a9.055 9.055 0 0 0-1.244.296v.868a5.439 5.439 0 0 1 1.11-.352c.386-.078.78-.117 1.186-.117.639 0 1.134.12 1.485.357.355.235.533.318.533.75V6.5H8.697c-1.061 0-1.861.158-2.398.484-.533.327-.799 1.06-.799 1.704 0 .55.214.992.64 1.322.432.326 1.012.49 1.739.49.575 0 1.061-.08 1.459-.244.397-.167.73-.425.996-.772V10.5H11.5V7.094c0-.871-.252-1.523-.76-1.951-.507-.429-1.275-.643-2.303-.643zM13 6.5v8h2v-.963c.236.33.461.572.748.73.287.155.62.233.992.233.66 0 1.201-.274 1.625-.826.424-.555.635-1.32.635-2.192 0-.871-.21-1.583-.635-2.134-.424-.556-.965-.832-1.625-.832-.373 0-.705.078-.992.236-.287.155-.512.397-.748.727V6.5zM9.234 7H10.5v.281c0 .822-.214 1.48-.643 1.979-.424.493-.989.74-1.695.74-.512 0-.919-.13-1.219-.39-.295-.266-.443-.621-.443-1.069 0-.562.199-.958.596-1.191.396-.233 1.11-.35 2.138-.35zm6.77 3c.323 0 .57.127.738.383.172.256.258.63.258 1.117 0 .488-.086.861-.258 1.117-.169.256-.415.383-.738.383-.324 0-.572-.127-.746-.383-.172-.259-.258-.632-.258-1.117s.086-.855.258-1.111a.846.846 0 0 1 .746-.389zm-8.62 2.5c-1.056 0-1.978.32-2.761.957-.779.633-1.283 1.48-1.516 2.541-.227 1.057-.09 1.906.41 2.547.502.637 1.28.955 2.337.955.801 0 1.496-.184 2.083-.555.588-.37 1.049-.911 1.381-1.619H8.307c-.233.52-.54.912-.922 1.17-.378.258-.84.385-1.381.385-.683 0-1.145-.24-1.387-.723-.237-.483-.25-1.203-.04-2.16.209-.957.538-1.677.99-2.156.455-.483 1.022-.723 1.7-.723.597 0 1.026.132 1.286.399.264.266.38.692.347 1.275h.73l.37-1.7c-.414-.2-.84-.347-1.277-.443-.433-.1-.878-.15-1.338-.15z"/><path style="opacity:.2;fill:#fff" d="M4 1C2.338 1 1 2.338 1 4v.5c0-1.662 1.338-3 3-3h14c1.662 0 3 1.338 3 3V4c0-1.662-1.338-3-3-3z"/><path style="fill:#fff" d="M8.438 4c-.381 0-.773.034-1.174.102a9.055 9.055 0 0 0-1.244.296v.868a5.439 5.439 0 0 1 1.11-.352c.386-.078.78-.117 1.186-.117.639 0 1.134.12 1.485.357.355.235.533.318.533.75V6H8.697c-1.061 0-1.861.158-2.398.484-.533.327-.799 1.06-.799 1.704 0 .55.214.992.64 1.322.432.326 1.012.49 1.739.49.575 0 1.061-.08 1.459-.244.397-.167.73-.425.996-.772V10H11.5V6.594c0-.871-.252-1.523-.76-1.951C10.233 4.214 9.465 4 8.437 4zM13 6v8h2v-.963c.236.33.461.572.748.73.287.155.62.233.992.233.66 0 1.201-.274 1.625-.826.424-.555.635-1.32.635-2.192 0-.871-.21-1.583-.635-2.134-.424-.556-.965-.832-1.625-.832-.373 0-.705.078-.992.236-.287.155-.512.397-.748.727V6zm-3.766.5H10.5v.281c0 .822-.214 1.48-.643 1.979-.424.493-.989.74-1.695.74-.512 0-.919-.13-1.219-.39-.295-.266-.443-.621-.443-1.069 0-.562.199-.958.596-1.191.396-.233 1.11-.35 2.138-.35zm6.77 3c.323 0 .57.127.738.383.172.256.258.63.258 1.117 0 .488-.086.861-.258 1.117-.169.256-.415.383-.738.383-.324 0-.572-.127-.746-.383C15.086 11.858 15 11.485 15 11s.086-.855.258-1.111a.846.846 0 0 1 .746-.389zM7.384 12c-1.056 0-1.978.32-2.761.957-.779.633-1.283 1.48-1.516 2.541-.227 1.057-.09 1.906.41 2.547.502.637 1.28.955 2.337.955.801 0 1.496-.184 2.083-.555.588-.37 1.049-.911 1.381-1.619H8.307c-.233.52-.54.912-.922 1.17-.378.258-.84.385-1.381.385-.683 0-1.145-.24-1.387-.723-.237-.483-.25-1.203-.04-2.16.209-.957.538-1.677.99-2.156.455-.483 1.022-.723 1.7-.723.597 0 1.026.132 1.286.399.264.266.38.692.347 1.275h.73l.37-1.7c-.414-.2-.84-.347-1.277-.443-.433-.1-.878-.15-1.338-.15z"/></svg>