<svg xmlns="http://www.w3.org/2000/svg" width="22" height="22"><path style="fill:#5ca742" d="M12 2A10 10 0 0 0 2 12a10 10 0 0 0 10 10 10 10 0 0 0 10-10A10 10 0 0 0 12 2z" transform="translate(-1 -1)"/><path style="opacity:.2" d="M2.01 12.209A10 10 0 0 0 2 12.5a10 10 0 0 0 10 10 10 10 0 0 0 10-10 10 10 0 0 0-.01-.209A10 10 0 0 1 12 22a10 10 0 0 1-9.989-9.791z" transform="translate(-1 -1)"/><path style="opacity:.2;fill:#fff" d="M12 2A10 10 0 0 0 2 12a10 10 0 0 0 .01.209A10 10 0 0 1 12 2.5a10 10 0 0 1 9.99 9.791A10 10 0 0 0 22 12 10 10 0 0 0 12 2z" transform="translate(-1 -1)"/><g style="opacity:.2"><path d="M11 3.5a5 5 0 0 0-5 5 5 5 0 0 0 5 5 5 5 0 0 0 5-5 5 5 0 0 0-5-5zm0 1a2 2 0 0 1 2 2 2 2 0 0 1-2 2 2 2 0 0 1-2-2 2 2 0 0 1 2-2z"/><path d="M9 11.5v7l2 2 2-2v-.7l1-.75-1-.75v-.75l1-1-1-1V11.5zm1 2h1v4h-1z"/></g><path style="fill:#fff" d="M12 4a5 5 0 0 0-5 5 5 5 0 0 0 5 5 5 5 0 0 0 5-5 5 5 0 0 0-5-5zm0 1a2 2 0 0 1 2 2 2 2 0 0 1-2 2 2 2 0 0 1-2-2 2 2 0 0 1 2-2z" transform="translate(-1 -1)"/><path style="fill:#fff" d="M10 12v7l2 2 2-2v-.7l1-.75-1-.75v-.75l1-1-1-1V12zm1 2h1v4h-1z" transform="translate(-1 -1)"/></svg>