<svg xmlns="http://www.w3.org/2000/svg" width="22" height="22" version="1.0"><path style="opacity:.2" d="M8.5 1.5A7.484 7.484 0 0 0 1 9v5c0 4.155 3.345 7.5 7.5 7.5h5c4.155 0 7.5-3.345 7.5-7.5V9c0-4.155-3.345-7.5-7.5-7.5z"/><path style="fill:#3584e4" d="M8.5 1A7.484 7.484 0 0 0 1 8.5v5C1 17.655 4.345 21 8.5 21h5c4.155 0 7.5-3.345 7.5-7.5v-5C21 4.345 17.655 1 13.5 1z"/><path style="opacity:.2;fill:#fff" d="M8.5 1A7.484 7.484 0 0 0 1 8.5V9c0-4.155 3.345-7.5 7.5-7.5h5C17.655 1.5 21 4.845 21 9v-.5C21 4.345 17.655 1 13.5 1z"/><path style="opacity:.2" d="M2.555 1.5C1.693 1.5 1 2.184 1 3.034V10.644a10.221 10.221 0 0 0 2.062 3.27c1.069 1.136 2.658 2.087 4.302 2.44 1.645.352 3.344.106 4.637-1.147.443-.43.817-1.065.948-1.717.132-.651.022-1.318-.5-1.811a1.347 1.347 0 0 0-.659-.334c-.247-.044-.61-.04-.79.155.2.18.358.47.313.716-.045.247-.18.492-.34.657a2.005 2.005 0 0 1-1.845.596 3.528 3.528 0 0 1-1.745-.939c-.954-.959-1.382-2.244-1.36-3.463.007-.406.058-.816.147-1.222C6.528 6.219 7.54 4.2 8.694 3.144A10.25 10.25 0 0 1 11.111 1.5zM11 11.5c-.2-.18-.358-.47-.313-.716.045-.247.18-.492.34-.657a2.005 2.005 0 0 1 1.845-.596c.662.13 1.309.5 1.745.939.954.959 1.382 2.244 1.36 3.463a6.203 6.203 0 0 1-.147 1.222c-.358 1.626-1.371 3.644-2.524 4.701a10.25 10.25 0 0 1-2.417 1.644h8.556c.862 0 1.555-.684 1.555-1.534V12.356a10.221 10.221 0 0 0-2.062-3.27c-1.069-1.136-2.658-2.087-4.302-2.44-1.645-.352-3.344-.106-4.637 1.147a3.446 3.446 0 0 0-.948 1.717c-.132.651-.022 1.318.5 1.811.165.157.41.29.659.334.247.044.61.04.79-.155z"/><path style="fill:#ff9632" d="M2.555 1C1.693 1 1 1.684 1 2.534V10.144a10.221 10.221 0 0 0 2.062 3.27c1.069 1.136 2.658 2.087 4.302 2.44 1.645.352 3.344.106 4.637-1.147.443-.43.817-1.065.948-1.717.132-.651.022-1.318-.5-1.811a1.347 1.347 0 0 0-.659-.334c-.247-.044-.61-.04-.79.155.2.18.358.47.313.716-.045.247-.18.492-.34.657a2.005 2.005 0 0 1-1.845.596 3.528 3.528 0 0 1-1.745-.939C6.429 11.071 6 9.786 6.023 8.567c.007-.406.058-.816.147-1.222C6.528 5.719 7.54 3.7 8.694 2.644A10.25 10.25 0 0 1 11.111 1zM11 11c-.2-.18-.358-.47-.313-.716.045-.247.18-.492.34-.657a2.005 2.005 0 0 1 1.845-.596c.662.13 1.309.5 1.745.939.954.959 1.382 2.244 1.36 3.463a6.203 6.203 0 0 1-.147 1.222c-.358 1.626-1.371 3.644-2.524 4.701A10.25 10.25 0 0 1 10.889 21h8.556c.862 0 1.555-.684 1.555-1.534V11.856a10.221 10.221 0 0 0-2.062-3.27c-1.069-1.136-2.658-2.087-4.302-2.44-1.645-.352-3.344-.106-4.637 1.147a3.446 3.446 0 0 0-.948 1.717c-.132.651-.022 1.318.5 1.811.165.157.41.29.659.334.247.044.61.04.79-.155z"/><path style="opacity:.2;fill:#fff" d="M2.555 1C1.693 1 1 1.684 1 2.534v.5c0-.85.693-1.534 1.555-1.534h7.664c.29-.18.587-.35.892-.5zm10.844 5.001c-1.232-.02-2.43.352-3.4 1.292a3.446 3.446 0 0 0-.948 1.717c-.053.26-.064.523-.029.776.009-.092.01-.184.029-.276a3.446 3.446 0 0 1 .948-1.717c1.293-1.253 2.992-1.499 4.637-1.147 1.644.353 3.233 1.304 4.302 2.44A10.221 10.221 0 0 1 21 12.356v-.5a10.221 10.221 0 0 0-2.062-3.27c-1.069-1.136-2.658-2.087-4.302-2.44a6.426 6.426 0 0 0-1.237-.145zM6.033 8.919c-.002.05-.01.1-.01.148-.022 1.219.406 2.504 1.36 3.463a3.528 3.528 0 0 0 1.745.939 2.005 2.005 0 0 0 1.845-.596c.16-.165.295-.41.34-.657a.613.613 0 0 0-.046-.328 1.348 1.348 0 0 1-.294.485 2.005 2.005 0 0 1-1.845.596 3.528 3.528 0 0 1-1.745-.939c-.863-.867-1.29-2-1.35-3.111zm4.7 1.693c-.02.057-.036.114-.046.172a.627.627 0 0 0 .054.354A.53.53 0 0 0 11 11a1.04 1.04 0 0 1-.267-.388zM11 11c.108.097.2.226.259.362a1.272 1.272 0 0 1 1.19.317c.314.296.475.655.529 1.035.051-.56-.08-1.112-.529-1.535a1.347 1.347 0 0 0-.659-.334c-.247-.044-.61-.04-.79.155zm4.967 2.581a6.256 6.256 0 0 1-.137 1.074c-.358 1.626-1.371 3.644-2.524 4.701A10.25 10.25 0 0 1 10.889 21h.892c.536-.33 1.048-.706 1.525-1.144 1.153-1.057 2.166-3.075 2.524-4.7.09-.407.14-.817.148-1.223.002-.117-.005-.234-.011-.352z"/></svg>