<svg xmlns="http://www.w3.org/2000/svg" width="22" height="22"><path style="opacity:.2" d="M11 1.5A7 6.5 0 0 0 4 8a7 6.5 0 0 0 .023.5H4v12c0 .554.48 1 1.076 1h3.77l1.615-2h1.078l1.615 2h3.77c.596 0 1.076-.446 1.076-1v-12h-.027A7 6.5 0 0 0 18 8a7 6.5 0 0 0-7-6.5z"/><path style="opacity:.2" d="M3 8.5c-.554 0-1 .446-1 1v7c0 .554.446 1 1 1h2c.554 0 1-.446 1-1v-7c0-.554-.446-1-1-1H3zm14 0c-.554 0-1 .446-1 1v7c0 .554.446 1 1 1h2c.554 0 1-.446 1-1v-7c0-.554-.446-1-1-1h-2z"/><rect style="fill:#358334" width="4" height="9" x="2" y="8" rx="1" ry="1"/><rect style="fill:#358334" width="4" height="9" x="16" y="8" rx="1" ry="1"/><path style="opacity:.1;fill:#fff" d="M3 8c-.554 0-1 .446-1 1v.5c0-.554.446-1 1-1h2c.554 0 1 .446 1 1V9c0-.554-.446-1-1-1H3zm14 0c-.554 0-1 .446-1 1v.5c0-.554.446-1 1-1h2c.554 0 1 .446 1 1V9c0-.554-.446-1-1-1h-2z"/><path style="fill:#50b24e" d="M5.077 8H18v12c0 .554-.48 1-1.077 1h-3.77l-1.615-2h-1.076l-1.616 2h-3.77C4.48 21 4 20.554 4 20V8h1.077z"/><ellipse style="fill:#50b24e" cx="11" cy="7.5" rx="7" ry="6.5"/><path style="opacity:.2" d="M11 4a4 4 0 0 0-4 4 4 4 0 0 0 .036.5h7.929A4 4 0 0 0 15 8a4 4 0 0 0-4-4z"/><path style="fill:#fff" d="M11 4a4 3.556 0 0 0-4 3.556A4 3.556 0 0 0 7.036 8h7.929A4 3.556 0 0 0 15 7.556 4 3.556 0 0 0 11 4z"/><circle style="fill:#3f3f3f" cx="9" cy="6" r="1"/><circle style="fill:#3f3f3f" cx="13" cy="6" r="1"/><path style="opacity:.2" class="ColorScheme-Text" d="M11 10.5c-1.108 0-2 .91-2 2.031v.969h-.5c-.277 0-.5.223-.5.5v3c0 .277.223.5.5.5h5c.277 0 .5-.223.5-.5v-3c0-.277-.223-.5-.5-.5H13v-.969c0-1.12-.892-2.031-2-2.031zm0 1c.554 0 1 .446 1 1v1h-2v-1c0-.554.446-1 1-1z"/><path style="fill:#fff" class="ColorScheme-Text" d="M11 10c-1.108 0-2 .91-2 2.031V13h-.5c-.277 0-.5.223-.5.5v3c0 .277.223.5.5.5h5c.277 0 .5-.223.5-.5v-3c0-.277-.223-.5-.5-.5H13v-.969c0-1.12-.892-2.031-2-2.031zm0 1c.554 0 1 .446 1 1v1h-2v-1c0-.554.446-1 1-1z"/><path style="opacity:.2;fill:#fff" d="M11 1a7 6.5 0 0 0-7 6.5 7 6.5 0 0 0 .01.225A7 6.5 0 0 1 11 1.5a7 6.5 0 0 1 6.986 6.248A7 6.5 0 0 0 18 7.5 7 6.5 0 0 0 11 1zM4 8v.5h.023A7 6.5 0 0 1 4 8zm14 0a7 6.5 0 0 1-.027.5H18V8z"/></svg>