<svg xmlns="http://www.w3.org/2000/svg" width="22" height="22" version="1"><rect style="opacity:.2" width="20" height="20" y=".5" rx="6" ry="6"/><rect style="fill:#e4e4e4" width="20" height="20" rx="6" ry="6"/><circle style="opacity:.1" cx="5.5" cy="10.5" r="4"/><circle style="fill:#296ec6" cx="5.5" cy="10" r="4"/><circle style="opacity:.1" cx="14.5" cy="10.5" r="4"/><circle style="fill:#e03c90" cx="14.5" cy="10" r="4"/><circle style="opacity:.2" cx="16" cy="17" r="5"/><circle style="fill:#9a3cdb" cx="16" cy="16.5" r="5"/><path style="fill:#fff" d="m16 13-2.5 3H15v3l2-.014V16h1.5z"/><path style="opacity:.2;fill:#fff" d="M6 0C2.676 0 0 2.676 0 6v.5c0-3.324 2.676-6 6-6h8c3.324 0 6 2.676 6 6V6c0-3.324-2.676-6-6-6z"/></svg>