<svg xmlns="http://www.w3.org/2000/svg" width="22" height="22" version="1"><path style="opacity:.2" d="M9.876.5a.913.913 0 0 0-.596.254L1.281 8.428a.913.913 0 0 0-.252.886l2.24 8.701a.913.913 0 0 0 .63.65l9.662 2.8a.913.913 0 0 0 .844-.182l7.272-6.167a.913.913 0 0 0 .32-.764L21.324 5.3a.913.913 0 0 0-.588-.787L10.234.56A.913.913 0 0 0 9.876.5z"/><path style="fill:#36c53c" d="M9.876 0a.913.913 0 0 0-.596.254L1.281 7.928a.913.913 0 0 0-.252.886l2.24 8.701a.913.913 0 0 0 .63.65l9.662 2.8a.913.913 0 0 0 .844-.182l7.272-6.167a.913.913 0 0 0 .32-.764L21.324 4.8a.913.913 0 0 0-.588-.787L10.234.06A.913.913 0 0 0 9.876 0z"/><path style="opacity:.3;fill:#fff" d="M9.582.063a.913.913 0 0 0-.302.191L1.281 7.928a.913.913 0 0 0-.252.437L6 12z"/><path style="opacity:.1;fill:#fff" d="M9.87.002a.913.913 0 0 0-.288.06L6 12l11-4z"/><path style="opacity:.05" d="M9.876.001 9.87.002 17 8l4.202-3.59a.913.913 0 0 0-.467-.396L10.235.059A.913.913 0 0 0 9.875 0z"/><path style="opacity:.1" d="M1.029 8.365a.913.913 0 0 0 0 .449l2.24 8.702a.913.913 0 0 0 .196.37L6 12z"/><path style="opacity:.16000001" d="m6 12-2.535 5.887c.115.132.266.229.435.278l9.66 2.799c.1.028.205.04.31.033z"/><path style="opacity:.23000004" d="M17 8 6 12l7.87 8.997a.91.91 0 0 0 .179-.028z"/><path style="opacity:.3" d="m17 8-2.951 12.969a.913.913 0 0 0 .356-.186l7.273-6.168a.913.913 0 0 0 .242-.323z"/><path style="opacity:.22000002" d="M21.202 4.41 17 8l4.92 6.292a.913.913 0 0 0 .077-.44L21.324 4.8a.913.913 0 0 0-.122-.392z"/><path style="opacity:.2;fill:#fff" d="M9.876.001a.913.913 0 0 0-.596.253L1.281 7.928a.913.913 0 0 0-.252.886l.006.027a.913.913 0 0 1 .246-.413l8-7.674a.913.913 0 0 1 .595-.253.913.913 0 0 1 .358.058l10.501 3.955a.913.913 0 0 1 .59.787l.654 8.808a.913.913 0 0 0 .018-.257L21.324 4.8a.913.913 0 0 0-.589-.787L10.235.059A.913.913 0 0 0 9.875 0z"/></svg>