<svg xmlns="http://www.w3.org/2000/svg" width="22" height="22" version="1"><rect style="opacity:.2" width="20" height="20" x="1" y="1.5" rx="1" ry="1"/><rect style="fill:#4f4f4f" width="20" height="20" x="1" y="1" rx="1" ry="1"/><path style="opacity:.2" d="M5 3.521a2 2 0 0 0-2 2 2 2 0 0 0 2 2 2 2 0 0 0 2-2 2 2 0 0 0-2-2zm6 .03c-1.108 0-2 .892-2 2s.892 2 2 2h6c1.108 0 2-.892 2-2s-.892-2-2-2zM5 9.47a2 2 0 0 0-2 2.002 2 2 0 0 0 2 2 2 2 0 0 0 2-2A2 2 0 0 0 5 9.47zm6 .029c-1.108 0-2 .892-2 2s.892 2 2 2h6c1.108 0 2-.892 2-2s-.892-2-2-2zm-6 5.973a2 2 0 0 0-2 1.998 2 2 0 0 0 2 2 2 2 0 0 0 2-2 2 2 0 0 0-2-1.998zm6 .027c-1.108 0-2 .892-2 2s.892 2 2 2h6c1.108 0 2-.892 2-2s-.892-2-2-2z"/><path style="opacity:.1;fill:#fff" d="M2 1c-.554 0-1 .446-1 1v.5c0-.554.446-1 1-1h18c.554 0 1 .446 1 1V2c0-.554-.446-1-1-1z"/><path style="fill:#fff" d="M6 9.972a2 2 0 0 0-2 2 2 2 0 0 0 2 2 2 2 0 0 0 2-2 2 2 0 0 0-2-2zM12 10c-1.108 0-2 .892-2 2s.892 2 2 2h6c1.108 0 2-.892 2-2s-.892-2-2-2z" transform="translate(-1 -1)"/><path style="fill:#ff9448" d="M6 15.972a2 2 0 0 0-2 2 2 2 0 0 0 2 2 2 2 0 0 0 2-2 2 2 0 0 0-2-2zM12 16c-1.108 0-2 .892-2 2s.892 2 2 2h6c1.108 0 2-.892 2-2s-.892-2-2-2z" transform="translate(-1 -1)"/><path style="fill:#fff" d="M6 4.022a2 2 0 0 0-2 2 2 2 0 0 0 2 2 2 2 0 0 0 2-2 2 2 0 0 0-2-2zM12 4.05c-1.108 0-2 .892-2 2s.892 2 2 2h6c1.108 0 2-.892 2-2s-.892-2-2-2z" transform="translate(-1 -1)"/></svg>