<svg xmlns="http://www.w3.org/2000/svg" width="22" height="22" xml:space="preserve"><path style="opacity:.2" d="M21 11.5c0 5.523-4.477 10-10 10s-10-4.477-10-10 4.477-10 10-10 10 4.477 10 10"/><path style="fill:#ebd0a1" d="M21 11c0 5.523-4.477 10-10 10S1 16.523 1 11 5.477 1 11 1s10 4.477 10 10"/><path style="opacity:.1" d="M7.594 3.406c-.021.296-.23.512-.313.788-.093.311-.115.688-.067 1.008.048.319.187.627.422.852.154.148.35.217.518.34-.365.49-.568 1.11-.596 1.746-.029.632.12 1.08.421 1.61.565.988 2.116 1.472 3.312 1.577 1.26.111 1.581.075 2.236.029.3-.022 2.399-.298 2.73-.572.336-.276.504-.776.338-1.192-.229-.572-1.004-.862-1.527-1.088a11.766 11.766 0 0 1-2.273-1.371c-.36-.29-.746-.658-1.153-.95.186-.216.328-.522.386-.716.175-.583.052-1.282.286-1.837-.135.29-.82.514-1.086.69-.39.256-.915.531-1.145.955a1.312 1.312 0 0 0-.095.253c-.243-.036-.484-.046-.7.026-.077.026-.146.063-.218.096.077-.207.14-.417.099-.642A1.742 1.742 0 0 0 8.16 3.732c-.207-.09-.373-.232-.566-.326zm-.818 3.266c-1.403.74-2.943 2.241-3.517 3.982-.531 1.611-.175 3.438.44 4.766l.06.127c.856 1.744 2.414 2.843 4.17 3.557.694.281 2.384.494 3.656.35 2.002-.229 3.087-.731 3.6-1.095-1.472-1.632-2.12-3.19-2.402-4.163-.661-.087-1.882-.417-2.404-.715-1.717-.98-1.857-2.42-1.857-2.42s-.911-.623-1.253-1.077c-.33-.438-.59-.914-.72-1.449-.058-.238-.05-1.717.227-1.863zm8.804.237c.544.737 1.023 1.707 1.314 2.274.348.677.37 1.429.391 1.982.058 1.512-1.41 2.949-2.994 2.98.23.657.643 1.552 1.378 2.525.295.374.547.668.547.668s1.326-1.107 2.09-2.59c.689-1.34.727-2.716.681-3.423-.125-1.95-1.452-3.532-3.407-4.416z"/><path style="fill:#b8884a" d="M18.987 10.825c-.125-1.95-1.452-3.532-3.407-4.415.544.737 1.023 1.706 1.314 2.272.348.678.37 1.43.39 1.983.059 1.512-1.409 2.949-2.993 2.98.23.656.643 1.552 1.378 2.525.295.374.546.668.546.668s1.327-1.108 2.09-2.591c.69-1.34.727-2.715.682-3.422"/><path style="fill:#845333" d="m15.973 13.146.008.03a1.123 1.123 0 0 0 .078.205c.01.024.025.047.037.073.014.025.027.052.044.078l.051.084.06.086c.018.03.042.058.066.088.024.029.045.06.071.09.053.058.104.12.164.176l.087.088c.03.03.063.056.094.083l.093.084a99.916 99.916 0 0 0 .195.154c.032.025.065.047.097.07.065.044.124.094.186.132.062.039.119.077.172.113.052.037.102.066.147.094l.114.072c.063.04.099.065.099.065s-.04-.013-.111-.04l-.128-.048c-.049-.02-.104-.04-.162-.07a7.032 7.032 0 0 1-.187-.094c-.067-.032-.132-.076-.202-.118-.034-.022-.07-.043-.104-.067a3.738 3.738 0 0 1-.103-.075l-.103-.078-.099-.086c-.032-.03-.065-.058-.096-.088l-.09-.094c-.062-.06-.11-.131-.163-.194a2.06 2.06 0 0 1-.181-.296l-.041-.094c-.027-.06-.044-.118-.058-.17a1.02 1.02 0 0 1-.035-.222v-.031M17.02 11.931s.027.016.074.04c.048.025.116.059.199.097l.134.058c.047.02.098.04.15.06.052.022.108.037.163.058.056.02.113.037.17.055l.172.05c.058.012.113.028.168.042.055.01.109.024.16.035.05.012.098.02.143.03.045.008.086.019.122.024l.096.018c.053.01.083.018.083.018s-.03.005-.084.01c-.054.006-.132.015-.225.012-.047 0-.098 0-.15-.005-.054-.004-.11-.01-.168-.017-.058-.01-.118-.019-.178-.032l-.18-.046c-.06-.021-.12-.04-.177-.062a1.94 1.94 0 0 1-.165-.073c-.054-.025-.103-.054-.149-.08-.047-.027-.088-.057-.127-.083a1.45 1.45 0 0 1-.174-.145c-.038-.04-.057-.064-.057-.064M17.152 9.693l.247-.018.117-.01.13-.011c.09-.01.186-.02.28-.034.048-.006.095-.014.142-.022a5.074 5.074 0 0 0 .379-.075l.098-.022c.028-.009.054-.015.075-.02l.068-.015s-.02.016-.056.041a1.02 1.02 0 0 1-.157.094l-.052.027-.059.024c-.04.016-.082.034-.128.046-.046.013-.092.03-.141.038a1.55 1.55 0 0 1-.298.042c-.05.005-.099.002-.146.003a1.704 1.704 0 0 1-.256-.023c-.15-.024-.243-.065-.243-.065"/><path style="fill:#b8884a" d="M11.22 5.937c.384-.008.711-.648.808-.97.175-.584.051-1.281.286-1.837-.136.29-.82.514-1.086.69-.39.256-.915.53-1.145.954-.1.183-.192.574-.144.736"/><path style="fill:#b8884a" d="M7.558 7.64c.05-1.124.624-2.216 1.73-2.586.537-.18 1.228.08 1.732.273.645.247 1.236.874 1.775 1.306a11.765 11.765 0 0 0 2.273 1.37c.523.226 1.298.517 1.527 1.09.166.415-.002.914-.337 1.19-.332.275-2.431.551-2.73.573-.656.046-.978.082-2.237-.029-1.196-.105-2.747-.589-3.312-1.578-.301-.528-.45-.977-.421-1.61"/><path style="fill:#f2c9c0" d="M16.153 10.27c.388-.322.57-1.186.035-1.426-.39-.174-.976-.148-1.355.048-.28.146-.67.633-.54.981.155.413.706.078 1.005.173.32.1.49.527.855.224"/><path style="fill:#3f3f3f" d="M9.71 6.53c-.417-.099-.945.372-.597.77.587.672 1.262-.552.638-.758a.404.404 0 0 0-.04-.012"/><path style="fill:#b8884a" d="M8.846 5.985c-.014-.51.417-.952.323-1.477A1.743 1.743 0 0 0 8.16 3.231c-.206-.09-.373-.231-.566-.324-.02.295-.23.51-.312.787a2.43 2.43 0 0 0-.068 1.008c.048.319.188.628.422.852.16.152.363.22.535.35.123.093.235.233.325.355"/><path style="fill:#3f3f3f" d="M11.353 6.585c-.45.03-.9.287-1.175.636-.484.611-.092 1.236.532 1.51.596.26 1.404.275 1.911-.174.715-.634-.041-1.67-.735-1.897-.01-.003-.024.003-.034.002a1.14 1.14 0 0 0-.5-.077zm0 .293a.698.698 0 0 1 .358.101.17.17 0 0 0 .084.02c.493.254.919.906.521 1.404-.285.359-.937.214-1.297.084-.432-.155-.779-.545-.576-1.016a1.03 1.03 0 0 1 .91-.593z"/><path style="fill:#3f3f3f" d="M13.375 7.002c-.192-.034-.384-.06-.574 0-.22.067-.387.229-.553.38-.064.06-.05.128.038.145a.372.372 0 0 0 .297-.08c.094-.086.187-.18.296-.248.04-.025.184.017.238.026a.378.378 0 0 0 .296-.08c.066-.056.049-.127-.038-.143"/><path style="fill:#3f3f3f" d="M14.62 5.852a1.975 1.975 0 0 0-.42.026c-.697.101-1.273.686-1.23 1.403.117.68.646 1.066 1.314.893a1.366 1.366 0 0 0 1.024-1.362c-.01-.294-.104-.593-.309-.807a.565.565 0 0 0-.38-.153zm-.366.162a.67.67 0 0 1 .24.055c.298.128.372.574.395.855.036.45-.17.779-.528 1.043-.493.364-.908-.43-.97-.798-.028-.468.328-1.176.863-1.155z"/><path style="fill:#843733" d="M10.835 9.755c.182.255.33.359.661.382.23.015.402-.1.642.018.175.087.304.19.494.248.762.229 1.626.03 2.372-.158.248-.063.207-.213-.04-.151-.729.184-1.668.41-2.345-.033a.894.894 0 0 0-.59-.152c-.405.024-.57.02-.8-.302-.063-.088-.467.046-.394.148"/><path style="fill:#845333" d="M15.002 9.517c.068-.05.15-.166.157-.252.005-.07-.061-.11-.12-.082-.05.023-.09.122-.114.168-.048.096-.085.286.077.166M16.043 9.765c.057-.042.126-.14.132-.213.004-.058-.052-.092-.102-.069-.041.02-.076.103-.095.142-.04.08-.072.241.065.14"/><path style="fill:#b8884a" d="M12.783 13.696c-.661-.088-1.882-.418-2.404-.716-1.718-.98-1.857-2.418-1.857-2.418s-.911-.624-1.253-1.078c-.329-.438-.59-.914-.72-1.449-.058-.238-.05-1.717.227-1.863-1.403.74-2.944 2.241-3.518 3.982-.53 1.61-.174 3.439.441 4.766l.06.127c.856 1.744 2.414 2.843 4.17 3.556.694.282 2.384.495 3.656.35 2.003-.228 3.087-.73 3.6-1.093-1.472-1.633-2.12-3.192-2.402-4.164"/><path style="fill:#845333" d="M3.258 10.154s.016.017.048.045c.03.03.08.067.141.118.063.047.14.105.233.163l.071.047.078.044c.054.03.109.065.169.096.12.06.25.127.394.184.14.064.296.11.454.167.079.029.163.046.246.07l.126.033c.042.012.085.023.128.03l.262.052.132.025.133.016c.179.02.356.05.533.054.177.005.35.028.52.02.168-.005.332-.001.486-.007l.437-.03.194-.014.174-.02.284-.035c.158-.02.249-.028.249-.028s-.088.021-.244.055a544.118 544.118 0 0 1-.454.098c-.061.01-.126.017-.194.026l-.438.056c-.157.013-.322.018-.494.026l-.13.005c-.043.002-.086-.002-.13-.003l-.268-.01c-.18-.001-.362-.03-.545-.05l-.136-.017-.135-.028-.267-.054c-.089-.016-.174-.048-.26-.071-.084-.027-.17-.046-.25-.078-.16-.061-.317-.118-.458-.19-.144-.063-.272-.142-.39-.21-.06-.036-.113-.074-.165-.11l-.075-.051-.068-.054c-.089-.067-.16-.133-.22-.186a1.916 1.916 0 0 1-.17-.184M4.288 15.928s.104-.004.283-.03a5.52 5.52 0 0 0 .73-.155 6.602 6.602 0 0 0 .988-.362 7.32 7.32 0 0 0 1.047-.593c.085-.058.168-.118.252-.177l.24-.187.23-.193.22-.196.203-.197c.066-.066.128-.132.19-.195s.117-.13.174-.19c.055-.063.11-.121.159-.182.098-.12.191-.226.267-.327.078-.1.147-.185.198-.26.106-.146.169-.23.169-.23l-.145.246c-.046.079-.108.17-.178.276a5.895 5.895 0 0 1-.246.347c-.046.064-.098.126-.15.192-.054.065-.108.134-.168.2-.06.067-.12.137-.184.206l-.202.206c-.07.068-.143.136-.217.205-.074.068-.153.133-.231.2-.08.065-.162.128-.244.193-.085.06-.169.123-.255.183a6.928 6.928 0 0 1-.534.324 6.178 6.178 0 0 1-1.074.46 5.094 5.094 0 0 1-1.236.235c-.091.006-.163.004-.211.004l-.075-.003M10.866 18.948l.059-.242c.038-.153.083-.375.138-.64.026-.132.056-.276.083-.428l.042-.235.04-.245c.03-.166.048-.34.075-.515.024-.175.04-.354.061-.533.013-.179.032-.358.041-.534.004-.177.022-.35.019-.519v-.368c0-.04-.003-.079-.005-.117l-.01-.225c-.005-.072-.004-.143-.013-.21a19.201 19.201 0 0 1-.038-.366c-.003-.055-.014-.105-.022-.152l-.023-.129c-.027-.155-.041-.245-.041-.245a11.772 11.772 0 0 0 .103.366c.012.046.028.096.036.15.021.11.044.232.067.367.023.134.033.282.05.438l.01.118.005.122.008.25c.004.086.003.173 0 .26l-.006.267c-.007.179-.025.36-.037.541-.022.18-.04.362-.067.538-.028.177-.054.351-.088.518a194.2 194.2 0 0 0-.048.246l-.054.234c-.033.152-.073.294-.107.426-.072.262-.142.478-.193.628-.024.075-.047.133-.061.173l-.024.061"/><path style="opacity:.2;fill:#fff" d="M11 1C5.477 1 1 5.477 1 11c0 .084.004.167.006.25C1.139 5.843 5.56 1.5 11 1.5c5.44 0 9.861 4.343 9.994 9.75.002-.083.006-.166.006-.25 0-5.523-4.477-10-10-10z"/></svg>