<svg xmlns="http://www.w3.org/2000/svg" width="22" height="22"><path style="opacity:.2" d="M2 5.5a1 1 0 1 0 0 2h2a1 1 0 1 0 0-2zm5.014 0a1 1 0 1 0 0 2h1.494a.5.5 0 1 1 0 1H4.014a1 1 0 1 0 0 2h5.494a.5.5 0 1 1 0 1H8.001a1 1 0 1 0 0 2h.507a.5.5 0 1 1 0 1H6.014a1 1 0 1 0 0 2H16.5A5.5 5.5 0 0 0 22 11a5.5 5.5 0 0 0-5.5-5.5H9.015zm-3 6a1 1 0 1 0 0 2h.987a1 1 0 1 0 0-2h-.528zm-3 3a1 1 0 1 0 0 2h1.987a1 1 0 1 0 0-2z"/><path style="fill:#4f4f4f" d="M2 5a1 1 0 1 0 0 2h2a1 1 0 1 0 0-2zm5.014 0a1 1 0 1 0 0 2h1.494a.5.5 0 1 1 0 1H4.014a1 1 0 1 0 0 2h5.494a.5.5 0 1 1 0 1H8.001a1 1 0 1 0 0 2h.507a.5.5 0 1 1 0 1H6.014a1 1 0 1 0 0 2H16.5a5.5 5.5 0 0 0 5.5-5.5A5.5 5.5 0 0 0 16.5 5H9.015zm-3 6a1 1 0 1 0 0 2h.987a1 1 0 1 0 0-2h-.528zm-3 3a1 1 0 1 0 0 2h1.987a1 1 0 1 0 0-2z"/><path style="opacity:.2" d="M17 7.5c-1.658 0-3 1.306-3 2.916v1.167c0 1.613 1.342 2.917 3 2.917 1.657 0 3-1.304 3-2.917v-1.167c0-1.61-1.343-2.916-3-2.916z"/><path style="fill:#fff" d="M17 7c-1.658 0-3 1.306-3 2.917v1.167C14 12.696 15.343 14 17 14c1.657 0 3-1.304 3-2.916V9.917C20 8.307 18.658 7 17 7z"/><path style="fill:none;stroke:#4f4f4f;stroke-linecap:round" d="M15.5 10.5h3"/><path style="opacity:.1;fill:#fff" d="M2 5a1 1 0 0 0-.98 1.246A1 1 0 0 1 2 5.5h2a1 1 0 0 1 .981.754A1 1 0 0 0 4.001 5zm5.014 0a1 1 0 0 0-.98 1.246 1 1 0 0 1 .98-.746h9.487a5.5 5.5 0 0 1 5.49 5.293A5.5 5.5 0 0 0 22 10.5 5.5 5.5 0 0 0 16.5 5H9.014zm1.934 2.75a.5.5 0 0 1-.44.25H4.014a1 1 0 0 0-.98 1.246 1 1 0 0 1 .98-.746h4.494a.5.5 0 0 0 .44-.75zm1 3a.5.5 0 0 1-.44.25H8.001a1 1 0 0 0-.98 1.246A1 1 0 0 1 8 11.5h1.507a.5.5 0 0 0 .44-.75zM4.014 11a1 1 0 0 0-.98 1.246 1 1 0 0 1 .98-.746H5.001a1 1 0 0 1 .98.754A1 1 0 0 0 5.001 11h-.528zm4.934 2.75a.5.5 0 0 1-.44.25H6.014a1 1 0 0 0-.98 1.246 1 1 0 0 1 .98-.746h2.494a.5.5 0 0 0 .44-.75zM1.014 14a1 1 0 0 0-.98 1.246 1 1 0 0 1 .98-.746h1.987a1 1 0 0 1 .98.754A1 1 0 0 0 3.001 14z"/></svg>