<svg xmlns="http://www.w3.org/2000/svg" width="22" height="22" version="1"><path style="fill:#8e8e8e" transform="rotate(90)" d="M14-20h1v19h-1zM12-20h1v19h-1zM10-20h1v19h-1zM8-20h1v19H8zM16-20h1v19h-1zM18-20h1v19h-1zM6-20h1v19H6zM4-20h1v19H4z"/><path style="fill:#8e8e8e" d="M10 2h1v19h-1zM8 2h1v19H8zM6 2h1v19H6zM4 2h1v19H4zM12 2h1v19h-1zM14 2h1v19h-1zM16 2h1v19h-1zM2 2h1v19H2zM18 2h1v19h-1z"/><rect style="opacity:.2" width="17" height="17" x="-20.5" y="-19" rx=".85" ry="1.063" transform="matrix(0 -1 -1 0 0 0)"/><rect style="fill:#b7b7b7" width="17" height="17" x="-20" y="-19" rx=".85" ry="1.063" transform="matrix(0 -1 -1 0 0 0)"/><path style="opacity:.2;fill:#fff" d="M3.063 3C2.473 3 2 3.379 2 3.85v.5c0-.471.474-.85 1.063-.85h14.874c.59 0 1.063.379 1.063.85v-.5c0-.471-.474-.85-1.063-.85z"/><path style="opacity:.1;fill:none;stroke:#000;stroke-width:2;stroke-linecap:round;stroke-linejoin:round" d="M1.014 11.5h6.5l2-5 3 10 2-5h6.472"/><path style="fill:none;stroke:#009688;stroke-width:2;stroke-linecap:round;stroke-linejoin:round" d="M1.014 11h6.5l2-5 3 10 2-5h6.472"/></svg>