<svg xmlns="http://www.w3.org/2000/svg" width="22" height="22" version="1"><path style="fill:#cf4f8c" d="M11 1H2c-.554 0-1 .446-1 1v9h10z"/><path style="fill:#2086e7" d="M11 1h9c.554 0 1 .446 1 1v9H11zM11 21H2c-.554 0-1-.446-1-1v-9h10z"/><path style="fill:#6655e4" d="M11 21h9c.554 0 1-.446 1-1v-9H11z"/><path style="opacity:.2;fill:#fff" d="M2 1c-.554 0-1 .446-1 1v.5c0-.554.446-1 1-1h18c.554 0 1 .446 1 1V2c0-.554-.446-1-1-1z"/><path style="opacity:.2" d="M2 21.5c-.554 0-1-.446-1-1V20c0 .554.446 1 1 1h18c.554 0 1-.446 1-1v.5c0 .554-.446 1-1 1z"/><path style="fill:#3f3f3f" d="M4 4h14v14H4z"/><path style="opacity:.2;fill:none;stroke:#000;stroke-linecap:round" d="M6.507 15h4"/><path style="fill:none;stroke:#fff;stroke-linecap:round" d="M6.507 14.5h4"/><path style="opacity:.2;fill:none;stroke:#000;stroke-width:.99999994;stroke-linecap:round" d="M7.507 11V9M8.5 7l-.993 2M6.5 7l1.007 2"/><path style="fill:none;stroke:#fff;stroke-width:.99999994;stroke-linecap:round" d="M7.507 10.5v-2m.993-2-.993 2M6.5 6.5l1.007 2"/><path style="opacity:.2;fill:none;stroke:#000;stroke-width:.99999994;stroke-linecap:round" d="M10.507 7h2m-1 4V7"/><path style="fill:none;stroke:#fff;stroke-width:.99999994;stroke-linecap:round" d="M10.507 6.5h2m-1 4v-4"/></svg>