<svg height="32" viewBox="0 0 8.4666665 8.4666669" width="32" xmlns="http://www.w3.org/2000/svg"><g transform="translate(4.7625 -288.004167)"><path d="m-4.2333334 288.26875c-.2885755 0-.5291667.24059-.5291667.52917v6.87916c0 .28858.240588.52917.5291667.52917h7.4083333c.2885787 0 .5291667-.24059.5291667-.52917v-5.82083c0-.28858-.2405912-.52917-.5291667-.52917h-3.70416671c-.044097 0-.058041-.007-.1111043-.0703-.053063-.0637-.1152385-.18034-.1813843-.31264-.066146-.13229-.1362626-.2802-.24856359-.41496-.1123011-.13474-.2967951-.26043-.5172811-.26043z" fill="#c74343"/><path d="m-4.2333335 288.53333c-.1465817 0-.2645834.118-.2645834.26458v6.87917c0 .14658.1180017.26458.2645834.26458h7.4083337c.1465815 0 .2645831-.118.2645831-.26458v-5.82083c0-.14658-.1180018-.26458-.2645831-.26458l-3.70416701-.00001c-.52916659 0-.52916659-1.05833-1.05833329-1.05833z" fill="#f78f8f" stroke-width=".529167"/><path d="m-.52916681 289.32708c-.220486 0-.4112389.14535-.50126129.28939-.090023.14404-.1300009.2881-.1762167.41135-.046216.12324-.095339.22076-.1462442.27388-.050906.0531-.09497.0837-.2346111.0837h-2.6458333c-.2885755 0-.5291667.24058-.5291667.52916v4.7625c0 .28858.240588.52917.5291667.52917h7.4083333c.2885787 0 .5291667-.24059.5291667-.52917v-5.82083c0-.28858-.2405912-.52917-.5291667-.52917z" fill="#c74343"/><path d="m-4.2333335 290.65c-.1465819 0-.2645834.118-.2645834.26458v4.7625c0 .14658.1180015.26458.2645834.26458h7.4083337c.1465815 0 .2645831-.118.2645831-.26458v-5.82083c0-.14658-.1180018-.26458-.2645831-.26458l-3.70416701-.00001c-.52916659 0-.2645833 1.05834-1.05833329 1.05834z" fill="#f78f8f"/><path d="m-.53496621 291.44372c-.076267.002-.1480333.0365-.196887.0951l-1.32291639 1.5875c-.1436749.17228-.021241.43397.2030881.43408v1.05833c0 .14659.1179957.26458.2645833.26458h2.11666669c.1465879 0 .2645833-.11799.2645833-.26458v-1.05833c.22433021-.00011.34676321-.2618.2030884-.43408l-.2030884-.24392v-.64492c0-.14658-.1180041-.26458-.2645833-.26458s-.2645833.118-.2645833.26458v.0103l-.5906617-.709c-.051634-.0619-.1286835-.0969-.2092897-.0951z" fill="#c74343"/></g></svg>