<svg height="32" width="32" xmlns="http://www.w3.org/2000/svg"><path d="m16 2a12 8.5 0 0 0 -12 8.5 12 8.5 0 0 0 .191 1.5h23.61a12 8.5 0 0 0 .199-1.5 12 8.5 0 0 0 -12-8.5z" fill="#c77100"/><path d="m16 2a12 8.5 0 0 0 -12 8.5 12 8.5 0 0 0 .03.398 12 8.5 0 0 1 11.97-7.898 12 8.5 0 0 1 11.967 8.033 12 8.5 0 0 0 .033-.533 12 8.5 0 0 0 -12-8.5z" fill="#f4f4f7" opacity=".1"/><path d="m6 14v9c0 4 4 8 4 8h12s3-4.2 3-7h4l-4-9-9-2z" opacity=".2"/><path d="m6 13v9c0 4 4 8 4 8h12s3-4.2 3-7h4l-4-9-9-2z" fill="#e7c3b9"/><path d="m16 13-10 1v9c0 2.167 1.17 4.31 2.246 5.842.884-.567 3.89-2.183 5.754-6.842 2-2 3-2 5-4v-4z" opacity=".1"/><path d="m16 12-10 1v9c0 2.167 1.17 4.31 2.246 5.842.884-.567 3.89-2.183 5.754-6.842 2-2 3-2 5-4v-4z" fill="#a32501"/><path d="m4 11a2 2 0 1 0 0 4h24a2 2 0 1 0 0-4z" opacity=".2"/><path d="m4 12h24" fill="none" stroke="#fb8e00" stroke-linecap="round" stroke-linejoin="round" stroke-width="4"/><circle cx="22" cy="19" opacity=".1" r="2"/><circle cx="22" cy="18" fill="#4f4f4f" r="2"/><path d="m13.111 16.967a3 3 0 0 0 -2.683 4.576l1.695 2.826a14.713 14.713 0 0 0 1.877-3.369 13.217 13.217 0 0 1 2.076-1.703l-.504-.84a3 3 0 0 0 -2.46-1.49z" opacity=".2"/><path d="m16 24-3-5" fill="none" stroke="#e7c3b9" stroke-linecap="round" stroke-linejoin="round" stroke-width="6"/><path d="m4 10a2 2 0 0 0 -1.963 2.5 2 2 0 0 1 1.963-1.5h24a2 2 0 0 1 1.963 1.5 2 2 0 0 0 -1.963-2.5z" fill="#f4f4f7" opacity=".2"/></svg>