<svg height="32" width="32" xmlns="http://www.w3.org/2000/svg"><rect fill="#a45024" height="28" rx="1.4" width="28" x="2" y="2"/><path d="m3.4 2c-.774 0-1.4.624-1.4 1.4v1c0-.776.625-1.4 1.4-1.4h25.2c.776 0 1.4.624 1.4 1.4v-1c0-.776-.624-1.4-1.4-1.4z" fill="#f4f4f7" opacity=".1"/><path d="m2 28.6v1c0 .775.625 1.4 1.4 1.4h25.2c.776 0 1.4-.625 1.4-1.4v-1c0 .775-.624 1.4-1.4 1.4h-25.2c-.775 0-1.4-.625-1.4-1.4zm16-15.6v11h3v-6c2-3 4-2 4-2v-3s-3 0-4 2v-2z" opacity=".2"/><path d="m18 12v11h3v-6c2-3 4-2 4-2v-3s-3 0-4 2v-2z" fill="#fec32b"/><path d="m7 10v14h4s5 0 5-4c0-1.718-.922-2.697-1.975-3.256.56-.592.975-1.46.975-2.744 0-4-4-4-4-4h-1zm3 2h1s1 0 1 2-1 2-1 2h-1zm0 6h1s2 0 2 2-2 2-2 2h-1z" opacity=".2"/><path d="m7 9v14h4s5 0 5-4c0-1.718-.922-2.697-1.975-3.256.56-.592.975-1.46.975-2.744 0-4-4-4-4-4zm3 2h1s1 0 1 2-1 2-1 2h-1zm0 6h1s2 0 2 2-2 2-2 2h-1z" fill="#fec32b"/></svg>