<svg height="32" width="32" xmlns="http://www.w3.org/2000/svg">
    <rect fill="#511b8a" height="28" rx="1.4" width="28" x="2" y="2"/>
    <path d="M10.83 10C9.1 10 7 10.057 7 10.057V24h3v-3.986s.299-.006.83-.03c.052 0 .106-.005.158-.006L13 24h3l-2.287-4.572C15.015 18.792 16 17.502 16 15c0-4.2-2.77-5-5.17-5zM10 12s.403-.022.98 0c1.446.055 2.02 1.606 2.02 2.9 0 1.432-.73 3.06-2.217 3.1h-.33c-.126.003-.27.013-.453-.006z" opacity=".2"/>
    <path d="M10.83 9C9.1 9 7 9.057 7 9.057V23h3v-3.986s.299-.006.83-.03c.052 0 .106-.005.158-.005L13 23h3l-2.287-4.572C15.015 17.792 16 16.502 16 14c0-4.2-2.77-5-5.17-5zM10 11s.403-.022.98 0c1.446.055 2.02 1.606 2.02 2.9 0 1.432-.73 3.06-2.217 3.1h-.33c-.126.003-.27.013-.453-.006z" fill="#c88eff"/>
    <path d="M3.4 2C2.626 2 2 2.624 2 3.4v1C2 3.624 2.625 3 3.4 3h25.2c.776 0 1.4.624 1.4 1.4v-1c0-.776-.624-1.4-1.4-1.4z" fill="#f4f4f7" opacity=".1"/>
    <path d="M2 28.6v1c0 .775.625 1.4 1.4 1.4h25.2c.776 0 1.4-.625 1.4-1.4v-1c0 .775-.624 1.4-1.4 1.4H3.4c-.775 0-1.4-.625-1.4-1.4zM18 14v8s0 2 3 2 4-1 4-1v-9h-2v8h-2s-1 0-1-1v-7z" opacity=".2"/>
    <path d="M18 13v8s0 2 3 2 4-1 4-1v-9h-2v8h-2s-1 0-1-1v-7z" fill="#c88eff"/>
</svg>
