<svg width="32" height="32" xmlns="http://www.w3.org/2000/svg"><g><rect x="2" y="2" width="28" height="28" rx="1.4" ry="1.4" style="fill:#514391"/><path d="M3.4 2C2.625 2 2 2.625 2 3.4v1C2 3.625 2.625 3 3.4 3h25.2c.775 0 1.4.625 1.4 1.4v-1c0-.775-.625-1.4-1.4-1.4z" style="fill:#f4f4f7;opacity:.1"/><path d="M2 28.6v1c0 .775.625 1.4 1.4 1.4h25.2c.775 0 1.4-.625 1.4-1.4v-1c0 .775-.625 1.4-1.4 1.4H3.4c-.775 0-1.4-.625-1.4-1.4zM10 10 7 24h3l.6-4h1.8l.6 4h3l-3-14zm1.5 4 .6 4h-1.2zM22 14c-3 0-4 1-4 1v9h2v-8h2s1 0 1 1v7h2v-8s0-2-3-2z" style="opacity:.2"/><path d="M10 9 7 23h3l.6-4h1.8l.6 4h3L13 9zm1.5 4 .6 4h-1.2zM25 23v-8s0-2-3-2-4 1-4 1v9h2v-8h2s1 0 1 1v7z" style="fill:#ab9dfe"/></g></svg>