<svg height="32" width="32" xmlns="http://www.w3.org/2000/svg"><rect fill="#62400c" height="28" rx="1.4" width="28" x="2" y="1.942"/><path d="m162.15 178.93c5.109 3.135 14.876 8.58 23.094 8.58 8.396 0 14.252-4.771 14.252-9.384 0-4.62-1.56-10.288-11.968-13.796-18.439-6.28-25.559-13.795-25.375-24.315 0-16.991 14.238-29.731 36.328-29.731 10.352 0 24.357 8.58 24.357 8.58v17.162c-4.019-2.218-15.777-8.58-23.443-8.58-6.758 0-13.479 4.999-13.479 9.612 0 5.935 6.36 6.464 17.313 10.344 16.976 5.908 24.096 14.584 24.277 27.879 0 16.805-12.954 30.168-38.701 29.357-8.835-.278-19.901-4.857-26.656-8.546z" opacity=".2" transform="matrix(.1071 0 0 .11654 .634 .09)"/><path d="m162.15 178.93c5.109 3.135 14.876 8.58 23.094 8.58 8.396 0 14.252-4.771 14.252-9.384 0-4.62-1.56-10.288-11.968-13.796-18.439-6.28-25.559-13.795-25.375-24.315 0-16.991 14.238-29.731 36.328-29.731 10.352 0 24.357 8.58 24.357 8.58v17.162c-4.019-2.218-15.777-8.58-23.443-8.58-6.758 0-13.479 4.999-13.479 9.612 0 5.935 6.36 6.464 17.313 10.344 16.976 5.908 24.096 14.584 24.277 27.879 0 16.805-12.954 30.168-38.701 29.357-8.835-.278-19.901-4.857-26.656-8.546z" fill="#f29517" transform="matrix(.1071 0 0 .11654 .634 -.91)"/><path d="m3.4 1.942c-.775 0-1.4.625-1.4 1.4v1c0-.775.625-1.4 1.4-1.4h25.2c.775 0 1.4.625 1.4 1.4v-1c0-.775-.625-1.4-1.4-1.4z" fill="#f4f4f7" opacity=".1"/><path d="m2 28.543v1c0 .775.625 1.4 1.4 1.4h25.2c.775 0 1.4-.626 1.4-1.4v-1c0 .775-.625 1.4-1.4 1.4h-25.2c-.775 0-1.4-.626-1.4-1.4zm5-18.543v14h3v-4h5v-2h-5v-6h6l-1-2h-5z" opacity=".2"/><path d="m7 9v14h3v-4h5v-2h-5v-6h6l-1-2h-5z" fill="#f29517"/></svg>