<svg xmlns="http://www.w3.org/2000/svg" width="32" height="32"><path fill="#745145" d="M6.5 2C5.669 2 5 2.669 5 3.5v25c0 .831.669 1.5 1.5 1.5h19c.831 0 1.5-.669 1.5-1.5v-25c0-.831-.669-1.5-1.5-1.5h-19z"/><path fill="#ff3434" d="M24.206 12c.243.015.505 0 .791.199 2.558 1.1.842 4.12-2.418 6.417-.02-.433-.2-1.376-.195-1.791 2.781-1.907 4.409-3.764 2.636-4.5-1.87-.776-2.45 1.342-2.482 4.417-.175.18-1.38.982-1.564 1.109.068-2.804 1.558-5.666 2.99-5.83.077-.015.161-.015.242-.015m-2.604 4.878.582-.226.482.325.098 1.023-.61.467-.253.34c-1.876 1.245-3.475 2.203-5.578 2.996l-1.312.194h-.863c-.796-.469-.321-.65-3.212-1.01l3.258.253c2.512-.975 5.077-2.374 7.41-3.9m-5.734 4.08c-.377 0-3.317-.254-4.486-.363-1.158-.18-2.58-.234-2.31 1.12-.307-.722.391-1.948 1.384-2.164 1.534-.343 3.969.598 4.844.886m-1.41.375c.456.18 1.498.31 1.99.473-.697.362-4.202 1.656-5.65 1.385-.23 0-1.208-.703-1.232-1.209.076.92 4.36.235 4.891-.667m-.953.016c.376-.18 2.134-.172 2.522-.316 2.201.77 5.163 2.58 7.283 3.798l.614.181c.118.842.637 1.133 1.11 1.678l-.717.722-.561-.92c-2.482-1.498-7.387-3.918-10.25-5.08m10.25 5.08c.303.18.593.36.868.54.636 1.807 1.378 3.023 2.086 2.97-1.094.524-3.451-2.054-4.246-4.48m4.246 4.48c1.67-.992-1.864-2.8-2.658-3.325-.178-.505.31-1.342.15-1.938 2.493 1.552 3.966 3.796 3.13 4.861-.201.253-.415.38-.626.397m-2.425-3.78c-.116-.465-1.655-1.523-1.933-1.686-.372-2.932-.39-3.221-.706-5.5.189-.18 1.353-1.088 1.533-1.214.224 2.435.644 5.736 1.239 7.941"/><path opacity=".2" d="M6.5 2C5.669 2 5 2.669 5 3.5v25c0 .831.669 1.5 1.5 1.5H9V2zM9 3v14l2-2 2 2V3H9z"/><path fill="#ff3434" d="M9 2v14l2-2 2 2V2H9z"/><path fill="#fff" opacity=".1" d="M6.5 2C5.669 2 5 2.669 5 3.5v1C5 3.669 5.669 3 6.5 3h19c.831 0 1.5.669 1.5 1.5v-1c0-.831-.669-1.5-1.5-1.5h-19z"/><path opacity=".2" d="M5 28.5v1c0 .831.669 1.5 1.5 1.5h19c.831 0 1.5-.669 1.5-1.5v-1c0 .831-.669 1.5-1.5 1.5h-19c-.831 0-1.5-.669-1.5-1.5z"/></svg>