<svg height="32" width="32" xmlns="http://www.w3.org/2000/svg">
    <circle cx="16" cy="17" opacity=".2" r="14"/>
    <circle cx="16" cy="16" fill="#1940ae" r="14"/>
    <path d="M15.34 26.367c-.779-1.441-.81-2.241-.13-3.382l.385-.647-.837-.68c-1.288-1.045-1.715-1.417-1.715-2.396 0-.805.452-1.84.803-1.84.084 0 .153-.092.153-.204s-.412-.277-.916-.368c-1.155-.208-1.782-.665-1.792-1.31-.006-.43.626-.93 1.863-1.474.954-.42 1.302-.664 1.147-.805-.122-.11-.455-.14-.74-.065-.298.079-.518.04-.518-.09 0-.125-.341-.23-.758-.234-1.409-.014-1.653-.04-1.83-.198-.096-.086-.386-.18-.644-.21s-.576-.206-.705-.394c-.209-.3-.147-.36.535-.504 1.04-.22 2.043-1.183 2.772-2.132 1.299-1.694 1.698-1.81 2.018-.587.155.596.802 1.252.99 1.004.035-.048-.067-.44-.228-.872-.277-.742-.279-.817-.022-1.381.326-.718 1.04-.805 1.434-.176a1.542 1.542 0 0 1-.003 1.694c-.41.653-.04 1.068.498.56.224-.212.407-.486.407-.61s.145-.434.323-.69c.387-.56.653-.408 1.75.993.848 1.082 1.701 1.962 2.771 2.18.7.143.754.196.535.512-.134.193-.449.375-.699.404s-.58.132-.734.23c-.154.096-.454.113-.668.035-.214-.077-.436-.03-.494.107-.065.15-.343.19-.711.1-.376-.092-.646-.052-.714.105-.065.152-.319.196-.636.11-.302-.081-.57-.04-.63.097-.06.144.36.435 1.059.73 1.396.593 1.877 1.004 1.877 1.603 0 .625-.568 1.094-1.554 1.28-.46.088-.837.21-.837.271 0 .062.215.467.478.899.521.856.576 1.226.294 1.993-.214.582-.52.626-1.69 1.595l-.847.704.329.546c.18.301.368.813.417 1.137.049.325.117.722.152.883.084.396-1.017 2.126-1.344 2.11-.143-.007-.411-.292-.595-.633zm1.689-1.637c0-.513-.599-1.858-.827-1.858-.072 0-.13.884-.13 1.963V26.8l.478-.786c.264-.433.479-1.01.479-1.283zm-1.128.256c-.006-.72-.067-1.516-.136-1.769-.115-.42-.155-.39-.47.345-.368.857-.347 1.534.077 2.48.353.786.542.408.53-1.056zm-.148-5.15c0-2.172-.002-2.184-.395-2.184-.701 0-1.673.698-1.773 1.274-.162.933.09 1.154 1.102 1.982" opacity=".2"/>
    <g fill="#f4f4f7">
        <path d="M15.34 25.367c-.779-1.441-.81-2.241-.13-3.382l.385-.647-.837-.68c-1.288-1.045-1.715-1.417-1.715-2.396 0-.805.452-1.84.803-1.84.084 0 .153-.092.153-.204s-.412-.277-.916-.368c-1.155-.208-1.782-.665-1.792-1.31-.006-.43.626-.93 1.863-1.474.954-.42 1.302-.664 1.147-.805-.122-.11-.455-.14-.74-.065-.298.079-.518.04-.518-.09 0-.125-.341-.23-.758-.234-1.409-.014-1.653-.04-1.83-.198-.096-.086-.386-.18-.644-.21s-.576-.206-.705-.394c-.209-.3-.147-.36.535-.504 1.04-.22 2.043-1.183 2.772-2.132 1.299-1.694 1.698-1.81 2.018-.587.155.596.802 1.252.99 1.004.035-.048-.067-.44-.228-.872-.277-.742-.279-.817-.022-1.381.326-.718 1.04-.805 1.434-.176a1.542 1.542 0 0 1-.003 1.694c-.41.653-.04 1.068.498.56.224-.212.407-.486.407-.61s.145-.434.323-.69c.387-.56.653-.408 1.75.993.848 1.082 1.701 1.962 2.771 2.18.7.143.754.196.535.512-.134.193-.449.375-.699.404s-.58.132-.734.23c-.154.096-.454.113-.668.035-.214-.077-.436-.03-.494.107-.065.15-.343.19-.711.1-.376-.092-.646-.052-.714.105-.065.152-.319.196-.636.11-.302-.081-.57-.04-.63.097-.06.144.36.435 1.059.73 1.396.593 1.877 1.004 1.877 1.603 0 .625-.568 1.094-1.554 1.28-.46.088-.837.21-.837.271 0 .062.215.467.478.899.521.856.576 1.226.294 1.993-.214.582-.52.626-1.69 1.595l-.847.704.329.546c.18.301.368.813.417 1.137.049.325.117.722.152.883.084.396-1.017 2.126-1.344 2.11-.143-.007-.411-.292-.595-.633zm1.689-1.637c0-.513-.599-1.858-.827-1.858-.072 0-.13.884-.13 1.963V25.8l.478-.786c.264-.433.479-1.01.479-1.283zm-1.128.256c-.006-.72-.067-1.516-.136-1.769-.115-.42-.155-.39-.47.345-.368.857-.347 1.534.077 2.48.353.786.542.408.53-1.056zm-.148-5.15c0-2.172-.002-2.184-.395-2.184-.701 0-1.673.698-1.773 1.274-.162.933.09 1.154 1.102 1.982"/>
        <path d="M16 2A14 14 0 0 0 2 16a14 14 0 0 0 .021.586A14 14 0 0 1 16 3a14 14 0 0 1 13.979 13.414A14 14 0 0 0 30 16 14 14 0 0 0 16 2z" opacity=".1"/>
    </g>
</svg>
