<svg xmlns="http://www.w3.org/2000/svg" width="32" height="32" viewBox="0 0 8.47 8.47"><path style="opacity:.2" d="M3.176 3.97h2.118v3.153L4.235 8.205 3.176 7.123z"/><path style="fill:#afafb1" d="M3.176 3.706h2.118v3.152L4.235 7.94 3.176 6.858z"/><path style="fill:#f4f4f7" d="M3.176 3.706h1.059V7.94L3.176 6.858z"/><rect style="opacity:.2" width="1.323" height="5.294" x="2.91" y="-6.88" rx=".661" ry=".756" transform="rotate(90)"/><rect style="fill:#ec8a2b" width="1.323" height="5.294" x="2.65" y="-6.88" rx=".661" ry=".756" transform="rotate(90)"/><path style="fill:#d13808" d="M3.44.79h1.588v1.853H3.44z"/><rect style="opacity:.2" width="2.647" height=".794" x="2.91" y=".79" rx=".441" ry=".397"/><rect style="fill:#ec8a2b" width="2.647" height=".794" x="2.91" y=".53" rx=".441" ry=".397"/><path style="opacity:.2;fill:#f4f4f7" transform="scale(.26469)" d="M8.857 10C7.275 10 6 11.114 6 12.498v.004c0 .171.02.337.057.498.263-1.143 1.413-2 2.8-2h14.286c1.387 0 2.535.857 2.798 2 .037-.161.059-.327.059-.498v-.004C26 11.114 24.725 10 23.143 10H8.857zM12.666 2C11.743 2 11 2.67 11 3.5c0 .176.04.343.102.5.228-.582.837-1 1.564-1h6.668c.727 0 1.336.418 1.564 1 .062-.157.102-.324.102-.5 0-.83-.743-1.5-1.666-1.5h-6.668z"/></svg>