<svg height="32" width="32" xmlns="http://www.w3.org/2000/svg"><path d="m16 3c-1.108 0-2.061.894-2 2v1h-8c-1.108 0-2 .892-2 2v8h-1c-1.108 0-2 .892-2 2s.893 2.037 2 2h1v8c0 1.108.892 2 2 2h20c1.108 0 2-.892 2-2v-8h1c1.108 0 2-.892 2-2s-.893-1.96-2-2h-1v-8a1.997 1.997 0 0 0 -2-2h-8v-1c0-1.108-.892-2-2-2z" opacity=".2"/><path d="m16 2c-1.108 0-2.061.894-2 2v1h-8c-1.108 0-2 .892-2 2v8h-1c-1.108 0-2 .892-2 2s.893 2.037 2 2h1v8c0 1.108.892 2 2 2h20c1.108 0 2-.892 2-2v-8h1c1.108 0 2-.892 2-2s-.893-1.96-2-2h-1v-8a1.997 1.997 0 0 0 -2-2h-8v-1c0-1.108-.892-2-2-2z" fill="#f04b23"/><path d="m16 9-8 4v4l12 4-4 2-4-2v-1l-4-1.333v4.333l8 4 8-4v-4l-12-4 4-2 4 2v1l4 1.333v-4.333z" opacity=".2"/><path d="m16 8-8 4v4l12 4-4 2-4-2v-1l-4-1.333v4.333l8 4 8-4v-4l-12-4 4-2 4 2v1l4 1.333v-4.333z" fill="#fdffff"/><path d="m16 2c-1.108 0-2.061.894-2 2v1c-.061-1.106.892-2 2-2s2 .892 2 2v-1c0-1.108-.892-2-2-2zm2 3v1h8c1.108.002 2 .892 2 2v-1a1.997 1.997 0 0 0 -2-2zm-4 0h-8c-1.108 0-2 .892-2 2v1c0-1.108.892-2 2-2h8zm-11 10c-1.108 0-2 .892-2 2 0 .174.03.34.07.502a1.99 1.99 0 0 1 1.93-1.502h1v-1zm25 0v1h1c.933.034 1.707.648 1.93 1.502.041-.161.07-.328.07-.502 0-1.108-.893-1.96-2-2z" fill="#f4f4f7" opacity=".2"/></svg>