<svg height="64" viewBox="0 0 16.933 16.933" width="64" xmlns="http://www.w3.org/2000/svg" xmlns:xlink="http://www.w3.org/1999/xlink"><filter id="a" color-interpolation-filters="sRGB" height="1.054" width="1.054" x="-.027" y="-.027"><feGaussianBlur stdDeviation=".61875"/></filter><linearGradient id="b" gradientUnits="userSpaceOnUse" x1="1.98436" x2="16.53626" y1="17.71741" y2="3.16551"><stop offset="0" stop-color="#32d7ff"/><stop offset="1" stop-color="#329bff"/></linearGradient><g transform="translate(-.79375 -1.9749)"><rect fill="#141414" filter="url(#a)" height="55" opacity=".3" ry="15" stroke-linecap="round" stroke-width="2.7444" transform="matrix(.26458 0 0 .26458 .79375 1.9749)" width="55" x="4.5" y="4.5"/><g stroke-width=".52917"><path d="m5.9531 3.1656c-2.1987 0-3.9688 1.7701-3.9688 3.9687v6.6146c0 2.1987 1.7701 3.9688 3.9688 3.9688h6.6146c2.1987 0 3.9688-1.7701 3.9688-3.9688v-6.6146c0-2.1987-1.7701-3.9687-3.9688-3.9687z" fill="url(#b)"/><path d="m13.941 8.0304s-.12713 1.5301-.06925 2.3404c.0578.81028-1.1079 1.2981-1.3808 1.4221-.2729.12402-3.7553.04806-4.1605.04806s-.82889.87747-.82889.87747h3.1337c.54373 0 .99994.83044.99994.83044s.52024.92393 1.5493.70177c1.029-.2222 1.1081-.94908 1.142-1.2346.06614-.30591-.38551-4.9857-.38551-4.9857z" fill="#b4e1ff"/><path d="m11.822 6.1612v.0005292h-5.0271s-2.0836-.00824-2.3068 2.1415c0 0-.12749 2.1873-.29662 4.7248 0 0-.12628 1.0656 1.2557 1.2532 1.4656.1989 2.1332-2.282 2.927-2.282h4.2581c.63286 0 1.311-.63137 1.311-1.5317 0-.90037.000265-2.2566-.000529-2.4613.000794-.20685-.11496-1.789-2.1208-1.8448z" fill="#fff"/></g><g fill="#0fa0ff"><rect height="2.5592" ry=".44222" width=".88444" x="6.6844" y="7.6899"/><rect height="2.5592" ry=".44222" transform="rotate(-90)" width=".88444" x="-9.4116" y="5.8471"/><circle cx="11.557" cy="8.1992" r=".42387"/><circle cx="11.557" cy="9.7397" r=".42387"/><g transform="rotate(-90)"><circle cx="-8.9694" cy="10.787" r=".42387"/><circle cx="-8.9694" cy="12.327" r=".42387"/></g></g></g></svg>