<svg height="32" width="32" xmlns="http://www.w3.org/2000/svg">
    <circle cx="16" cy="17" opacity=".2" r="14"/>
    <circle cx="16" cy="16" fill="#bfee00" r="14"/>
    <path d="M16 2A14 14 0 0 0 2 16a14 14 0 0 0 .022.586A14 14 0 0 1 16 3a14 14 0 0 1 13.979 13.414A14 14 0 0 0 30 16 14 14 0 0 0 16 2z" fill="#f4f4f7" opacity=".2"/>
    <path d="M11 6c-1 0-4 2-4 2l1 1s2-2 3-2h1c1 0 3 2 3 2l1-1s-3-2-4-2zm0 2c-1 0-2 1-2 1l1 1s0-1 1-1h1c1 0 1 1 1 1l1-1s-1-1-2-1zm.492 2L10 13H2.59A14 14 0 0 0 2 17a14 14 0 0 0 .596 4h11.767L16 24l1.637-3H29.41a14 14 0 0 0 .59-4 14 14 0 0 0-.596-4H22l-1.475-3L19 13h-6z" opacity=".2"/>
    <path d="M11 5c-1 0-4 2-4 2l1 1s2-2 3-2h1c1 0 3 2 3 2l1-1s-3-2-4-2zm0 2c-1 0-2 1-2 1l1 1s0-1 1-1h1c1 0 1 1 1 1l1-1s-1-1-2-1zm.492 2L10 12H2.59A14 14 0 0 0 2 16a14 14 0 0 0 .596 4h11.767L16 23l1.637-3H29.41a14 14 0 0 0 .59-4 14 14 0 0 0-.596-4H22l-1.475-3L19 12h-6z" fill="#162d50"/>
    <path d="M13 16v3h1v-3zm5 0v3h1v-3z" opacity=".2"/>
    <path d="M13 15v3h1v-3zm5 0v3h1v-3z" fill="#fae"/>
</svg>
