<svg height="32" width="32" xmlns="http://www.w3.org/2000/svg">
    <path d="M16.575 3v.001a3.17 3.184 0 0 0-1.66.424l-9.33 5.409A3.17 3.184 0 0 0 4 11.59v10.82a3.17 3.184 0 0 0 1.586 2.756l9.328 5.408a3.17 3.184 0 0 0 3.172 0l9.328-5.408A3.17 3.184 0 0 0 29 22.409V11.59a3.17 3.184 0 0 0-1.586-2.757l-9.328-5.409A3.17 3.184 0 0 0 16.575 3z" opacity=".2"/>
    <path d="M16.575 2v.001a3.17 3.184 0 0 0-1.66.424l-9.33 5.409A3.17 3.184 0 0 0 4 10.59v10.82a3.17 3.184 0 0 0 1.586 2.756l9.328 5.408a3.17 3.184 0 0 0 3.172 0l9.328-5.408A3.17 3.184 0 0 0 29 21.409V10.59a3.17 3.184 0 0 0-1.586-2.757l-9.328-5.409A3.17 3.184 0 0 0 16.575 2z" fill="#f4f4f7"/>
    <path d="m6 18.018 7 4.036 7-4.036-3.5 2.03-3.5-2.03V13.98l3.5-2.03 3.5 2.03V9.945l-7-4.037-7 4.037z" fill="#009741" opacity=".6"/>
    <path d="m20 18.018-3.5 2.03-3.5-2.03V13.98l3.5-2.03L13 9.945 6 13.98v8.073l7 4.06 7-4.06z" fill="#dedc0a" opacity=".6"/>
    <path d="m20 18.018-3.5 2.03-3.5-2.03V13.98l3.5-2.03-7 4.06v8.073l7 4.037 7-4.037v-8.073l-7-4.06 3.5 2.03z" fill="#f39208" opacity=".6"/>
    <path d="M27 22.054v-8.073l-7-4.036-3.5 2.006 3.5 2.03v4.037l-3.5 2.03-3.5-2.03v4.036l7 4.06z" fill="#e72174" opacity=".6"/>
    <path d="m20 18.018-3.5 2.03-3.5-2.03 7 4.036 7-4.036V9.945l-7-4.037-7 4.037v4.036l3.5-2.03 3.5 2.03z" fill="#253887" opacity=".6"/>
    <path d="M23.5 16.011V7.915l-7-4.037-7 4.037v8.096l3.5 2.007V13.98l3.5-2.03 3.5 2.03v4.037z" fill="#3ba9e0" opacity=".6"/>
    <path d="M16.574 2v.002a3.17 3.184 0 0 0-1.66.424L5.586 7.834A3.17 3.184 0 0 0 4 10.592v1a3.17 3.184 0 0 1 1.586-2.758l9.328-5.408a3.17 3.184 0 0 1 1.66-.424V3a3.17 3.184 0 0 1 1.512.426l9.328 5.408A3.17 3.184 0 0 1 29 11.592v-1a3.17 3.184 0 0 0-1.586-2.758l-9.328-5.408A3.17 3.184 0 0 0 16.574 2z" fill="#f4f4f7" opacity=".2"/>
    <path d="M16.5 11.951 13 13.982v1l3.5-2.03 3.5 2.03v-1l-3.5-2.03zM6 22.055v1l3.5 2.03.27.155L13 27.115l.01-.006 3.49 2.012 3.49-2.012.01.006 7-4.06v-1l-7 4.06-.01-.006-3.49 2.012-3.49-2.012-.01.006-3.23-1.875-.27-.154z" opacity=".1"/>
</svg>
