<svg height="32" width="32" xmlns="http://www.w3.org/2000/svg">
    <circle cx="16" cy="17" opacity=".2" r="14"/>
    <circle cx="16" cy="16" fill="#1da1f2" r="14"/>
    <path d="M23.001 10.007c-7.318 0-14 6.682-14 14 0 0 .955-2.545 3.182-4.136 2.227-1.591 6.746-.9 8.018-3.764-2.227 0-3.563-.514-3.563-.514 2.545 0 6.363-1.874 6.363-5.586z" opacity=".2"/>
    <g fill="#f4f4f7">
        <path d="M23.001 9.007c-7.318 0-14 6.682-14 14 0 0 .955-2.545 3.182-4.136 2.227-1.591 6.746-.9 8.018-3.764-2.227 0-3.563-.514-3.563-.514 2.545 0 6.363-1.874 6.363-5.586z"/>
        <path d="M16 2A14 14 0 0 0 2 16a14 14 0 0 0 .021.586A14 14 0 0 1 16 3a14 14 0 0 1 13.979 13.414A14 14 0 0 0 30 16 14 14 0 0 0 16 2z" opacity=".2"/>
    </g>
</svg>
