<svg height="32" width="32" xmlns="http://www.w3.org/2000/svg">
    <rect height="28" opacity=".2" rx="8.4" width="28" x="2" y="3"/>
    <rect fill="#ff811f" height="28" rx="8.4" width="28" x="2" y="2"/>
    <path d="M16 7A10 10 0 0 0 6 17a10 10 0 0 0 10 10 10 10 0 0 0 5.13-1.43 14.847 14.847 0 0 1 1.854 2.389l2.432-1.498a17.64 17.64 0 0 0-2.066-2.695A10 10 0 0 0 26 17 10 10 0 0 0 16 7zm0 3.57A5.714 6.429 0 0 1 21.715 17a5.714 6.429 0 0 1-1.358 4.156c-1.97-1.346-4.152-2.234-6.337-2.064l.222 2.85c1.014-.08 2.35.324 3.705 1.095a5.714 6.429 0 0 1-1.947.39A5.714 6.429 0 0 1 10.285 17 5.714 6.429 0 0 1 16 10.57z" opacity=".1"/>
    <path d="M16 6A10 10 0 0 0 6 16a10 10 0 0 0 10 10 10 10 0 0 0 10-10A10 10 0 0 0 16 6zm0 3.571A5.714 6.429 0 0 1 21.714 16 5.714 6.429 0 0 1 16 22.428 5.714 6.429 0 0 1 10.286 16 5.714 6.429 0 0 1 16 9.57z" fill="#5a3608"/>
    <path d="M14.131 19.517c3.416-.266 7.752 2.932 10.069 6.693" fill="none" stroke="#5a3608" stroke-width="2.857"/>
    <path d="M10.4 2A8.382 8.382 0 0 0 2 10.4v1C2 6.747 5.747 3 10.4 3h11.2c4.653 0 8.4 3.747 8.4 8.4v-1C30 5.747 26.253 2 21.6 2z" fill="#f4f4f7" opacity=".2"/>
</svg>
