<svg height="32" width="32" xmlns="http://www.w3.org/2000/svg"><rect height="28" opacity=".2" rx="2.1" width="28" x="2" y="3"/><rect fill="#16a1db" height="28" rx="2.1" width="28" x="2" y="2"/><path d="m11.5 8-3.5 4-3.5 4h3.5v10h7v-10h3.5l-3.5-4zm9.5 3v6h-2.9l2.45 2.8 2.45 2.8 2.45-2.8 2.45-2.8h-2.9v-6z" opacity=".2"/><path d="m8 14h7v11h-7z" fill="#f4f4f7"/><path d="m14.543 10.58 3.644 6.312 3.644 6.312h-14.576l3.644-6.312z" fill="#f4f4f7" transform="matrix(.96046 0 0 .63374 -2.468 .295)"/><path d="m21-18h4v8h-4z" fill="#a2cced" transform="scale(1 -1)"/><path d="m14.543 10.58 3.644 6.312 3.644 6.312h-14.576l3.644-6.312z" fill="#a2cced" transform="matrix(.67232 0 0 -.44362 13.223 26.294)"/><path d="m4.1 2c-1.164 0-2.1.936-2.1 2.1v1c0-1.164.936-2.1 2.1-2.1h23.8c1.164 0 2.1.936 2.1 2.1v-1c0-1.164-.936-2.1-2.1-2.1z" fill="#f4f4f7" opacity=".2"/></svg>