<svg xmlns="http://www.w3.org/2000/svg" width="32" height="32">
    <path style="opacity:.2" d="M16.04 3a.357.357 0 0 0-.259.098 56.146 56.146 0 0 0-2.846 2.987l-.003.004c-2.195 2.533-3.864 5.136-5.073 7.923-1.126 2.596-1.785 4.842-2.384 8.113a48.716 48.716 0 0 0-.356 2.283c-.045.35-.08.656-.101.883a3.91 3.91 0 0 0-.017.281.78.78 0 0 0 .003.108c.002.02.004.04.014.076s.002.107.156.195c.083.048.094.038.114.043a.94.94 0 0 0 .054.01 6.278 6.278 0 0 0 .397.033c.842.043 2.083.241 2.906.464.555.15.92.275 1.463.498a42.826 42.826 0 0 0 .43.173l.034.012.002.001h.001l.001.001.014.007c0-.001-.001-.003-.003-.003.002 0 .003 0 .005.002l.02.006.012.006-.013-.001c.024.011.052.027.091.046l.355.183c1.329.69 2.322 1.403 3.908 2.81a31.1 31.1 0 0 0 .734.628.828.828 0 0 0 .107.077c.009.005.02.012.04.02.02.01.041.028.136.032.113.005.136-.017.16-.027.023-.01.034-.017.045-.022a1.498 1.498 0 0 0 .114-.08c.052-.041.119-.097.199-.163.16-.134.373-.316.602-.517 1.312-1.151 1.947-1.638 2.86-2.199 1.995-1.224 3.773-1.768 6.502-1.981l.221-.017c.178-.014.315-.152.315-.317v-.12c0-.251-.065-.77-.152-1.411a47.22 47.22 0 0 0-.299-1.928c-.598-3.3-1.279-5.625-2.42-8.254-1.028-2.368-2.499-4.76-4.257-6.926a.314.314 0 0 0-.013-.014c-1.183-1.297-2.328-2.658-3.577-3.92A.355.355 0 0 0 16.039 3z"/>
    <path style="fill:#0278dc" d="M16.04 2a.357.357 0 0 0-.259.098 56.146 56.146 0 0 0-2.846 2.987l-.003.004c-2.195 2.533-3.864 5.136-5.073 7.923-1.126 2.596-1.785 4.842-2.384 8.113a48.756 48.756 0 0 0-.356 2.284c-.045.349-.08.655-.101.882a3.91 3.91 0 0 0-.017.281.78.78 0 0 0 .003.108c.002.02.004.04.014.076s.002.107.156.195c.083.048.094.038.114.043a.94.94 0 0 0 .054.01 6.278 6.278 0 0 0 .397.033c.842.043 2.083.241 2.906.464.555.15.92.275 1.463.498a42.81 42.81 0 0 0 .43.173l.034.012.002.001h.001l.001.001.014.007c0-.001-.001-.003-.003-.003.002 0 .003 0 .005.002l.02.006.012.006-.013-.001c.024.011.052.027.091.046l.355.183c1.329.69 2.322 1.403 3.908 2.81a31.1 31.1 0 0 0 .734.628.828.828 0 0 0 .107.077c.009.005.02.012.04.02.02.01.041.028.136.032.113.005.136-.017.16-.027.023-.01.034-.017.045-.022a1.498 1.498 0 0 0 .114-.08c.052-.041.119-.097.199-.163.16-.134.373-.316.602-.517 1.312-1.151 1.947-1.638 2.86-2.199 1.995-1.224 3.773-1.768 6.502-1.981l.221-.017c.178-.014.315-.152.315-.317v-.12c0-.251-.065-.77-.152-1.411a47.22 47.22 0 0 0-.299-1.928c-.598-3.3-1.279-5.625-2.42-8.254-1.028-2.368-2.499-4.76-4.257-6.926a.314.314 0 0 0-.013-.014c-1.183-1.297-2.328-2.658-3.577-3.92A.355.355 0 0 0 16.039 2z"/>
    <path style="fill:#48a0f8;fill-rule:evenodd" d="M16.039 2.007a.357.357 0 0 0-.258.099 53.424 53.424 0 0 0-2.42 2.522l2.647 15.329 2.62-15.304c-.765-.86-1.533-1.72-2.346-2.542a.357.357 0 0 0-.243-.104zm-.03 17.95 8.049-7.089a28.605 28.605 0 0 0-2.008-3.71zm0 0 9.96-1.431a32.862 32.862 0 0 0-.836-2.88zm0 0 10.647 5.046.03-.002c.177-.014.314-.152.314-.318v-.103c0-.25-.065-.766-.152-1.406-.044-.322-.099-.634-.15-.968l-.194-.71zm0 0 3.901 7.023.211-.074c.74-.443 1.46-.794 2.209-1.069zm0 0-1.652 8.772c.2.17.387.324.608.52a30.922 30.922 0 0 0 .734.628c.025.02.044.036.066.05a.34.34 0 0 0 .04.027l.011.005.192.034.545-.326c.155-.13.341-.286.55-.47.2-.176.311-.256.484-.404zm0 0-6.263 5.91c.119.046.227.083.362.139l.326.132.104.041.035.013v.001h.004l.013.007-.003-.003.006.002c.004 0 .008.003.018.006a.042.042 0 0 1 .014.006h-.014l.092.046c.092.047.217.11.354.182a15.7 15.7 0 0 1 1.007.571zm0 0L5.445 21.345a49.22 49.22 0 0 0-.326 2.092c-.046.348-.082.653-.102.879-.01.11-.016.2-.018.274v.006c0 .03 0 .058.004.091.002.02.003.04.014.076.01.035.002.107.155.195.083.047.095.038.116.042.02.005.036.009.052.011l.11.013a6.3 6.3 0 0 0 .288.02c.154.008.332.025.507.043zm0 0-9.137-4.31c-.3.88-.567 1.788-.804 2.757zm0 0L9.984 9.097a28.596 28.596 0 0 0-1.915 3.518z"/>
    <path style="opacity:.2;fill:#f4f4f7" d="M16.04 2a.357.357 0 0 0-.259.098 56.156 56.156 0 0 0-2.845 2.988c-.001.002-.003 0-.004.002-2.195 2.533-3.863 5.137-5.072 7.924-1.127 2.596-1.786 4.842-2.385 8.113a48.723 48.723 0 0 0-.356 2.283c-.045.35-.081.656-.101.883a4.71 4.71 0 0 0-.018.281c0 .038 0 .069.004.108.002.02.003.04.014.076a.33.33 0 0 0 .05.1c.018-.15.028-.27.051-.448.092-.698.225-1.566.356-2.283.6-3.271 1.258-5.517 2.385-8.113 1.209-2.787 2.877-5.39 5.072-7.924 0-.001.003 0 .004-.002.89-1 1.876-2.052 2.845-2.988a.362.362 0 0 1 .5.006c1.25 1.261 2.395 2.621 3.578 3.918.005.004.008.01.012.015 1.759 2.166 3.23 4.558 4.258 6.926 1.14 2.629 1.821 4.953 2.42 8.254.1.555.212 1.286.299 1.928.043.323.049.468.076.71a.295.295 0 0 0 .076-.18v-.118c0-.251-.065-.77-.152-1.412a47.248 47.248 0 0 0-.3-1.928c-.598-3.301-1.278-5.625-2.42-8.254-1.027-2.368-2.498-4.76-4.257-6.926l-.012-.015c-1.183-1.297-2.329-2.657-3.578-3.918A.354.354 0 0 0 16.04 2z"/>
</svg>
