<svg height="64" viewBox="0 0 16.933 16.933" width="64" xmlns="http://www.w3.org/2000/svg" xmlns:xlink="http://www.w3.org/1999/xlink"><filter id="a" color-interpolation-filters="sRGB" height="1.054" width="1.054" x="-.027" y="-.027"><feGaussianBlur stdDeviation=".61875"/></filter><linearGradient id="b" gradientUnits="userSpaceOnUse" x1="1.27634" x2="15.82824" y1="17.1951" y2="2.6432"><stop offset="0" stop-color="#96aab4"/><stop offset="1" stop-color="#a0b4c3" stop-opacity=".99608"/></linearGradient><g transform="translate(-.085045 -1.4552)"><rect fill="#141414" filter="url(#a)" height="55" opacity=".3" ry="15" stroke-linecap="round" stroke-width="2.7444" transform="matrix(.26458 0 0 .26458 .085045 1.4552)" width="55" x="4.5" y="4.5"/><rect fill="url(#b)" height="14.552" ry="3.9687" stroke-linecap="round" stroke-width=".72611" width="14.552" x="1.2757" y="2.6458"/><circle cx="8.5517" cy="9.9219" opacity=".15" r="3.6015" stroke-width="1.0469"/><path d="m8.4242 5.6886c-.23618.0087921-.366.08808-.45061.25839-.054285.10928-.098653.29134-.098703.40463-.0001757.41561-.41979.79479-.88006.79479-.22583 0-.34989-.062166-.80719-.40463-.20814-.15587-.33954-.11533-.66249.20257-.30681.30208-.31457.44672-.042892.80719.11227.149.22602.34761.2527.44183.065971.23298-.042037.65947-.21549.84905-.14217.15539-.49522.27647-.80307.27647-.29274 0-.39791.16665-.39791.62785 0 .35915.013779.40817.13694.4899.075263.04998.29269.1132.48369.14056.19101.02735.41151.09198.48937.14366.16439.10911.35494.49964.35658.73122.0013.16812-.1281.46538-.26149.60047-.14537.14725-.25172.41524-.21342.53742.049059.15656.38137.49133.55345.55758.098568.03797.17017.0269.26562-.04082.27975-.19846.75834-.41394.91985-.41394.24346 0 .6473.21486.73585.39172.041696.0833.093676.27747.11575.43098.053525.3723.13813.5475.28009.57774.064534.01368.16838.03689.23047.05116.062097.01465.2019.01465.31057 0 .28345-.03806.43453-.2494.48215-.67437.043529-.38857.079209-.45109.36537-.63407.29057-.1858.518-.22208.74154-.11834.18535.08603.26026.13061.5643.33333.22276.14855.36158.124.61907-.11162.38719-.35431.395-.50837.04806-.91313-.33023-.38521-.33399-.85913-.0093-1.2231.12433-.1394.23582-.18789.60409-.26148.55605-.1111.6464-.2019.64801-.6532.0016-.45075-.0701-.5244-.59221-.60616-.49681-.077792-.65587-.19003-.83044-.58343-.14513-.32711-.10509-.51879.20464-.9679.15883-.23028.23789-.39836.21962-.46921-.040821-.15812-.55547-.62994-.68731-.62994-.06105 0-.22362.087921-.36121.1943-.37957.29353-.60563.35984-.93017.27284-.38135-.10215-.51708-.26323-.61341-.72863-.11061-.53451-.18193-.63071-.49662-.66661-.10484-.012049-.19516-.016883-.2739-.013951v-.00103zm.12764 2.6459a1.5875 1.5875 0 0 1 1.5875 1.5875 1.5875 1.5875 0 0 1 -1.5875 1.5875 1.5875 1.5875 0 0 1 -1.5875-1.5875 1.5875 1.5875 0 0 1 1.5875-1.5875z" fill="#fff" stroke-width=".26458"/></g></svg>