<svg height="32" width="32" xmlns="http://www.w3.org/2000/svg"><circle cx="16.5" cy="16.5" opacity=".2" r="14.5"/><circle cx="16.5" cy="15.5" fill="#f4f4f7" r="14.5"/><path d="m24 9c-1.925 0-3.537 1.017-4.904 2.268-1.368 1.25-2.576 2.805-3.756 4.304-1.18 1.5-2.333 2.945-3.43 3.944-1.097.998-2.054 1.484-2.91 1.484-2.25 0-2.956-.969-3.475-2.117-.519-1.149-.525-2.363-.525-2.363l-3-.04s-.046 1.786.791 3.637c.837 1.853 2.883 3.883 6.209 3.883 1.932 0 3.555-1.014 4.93-2.266 1.374-1.25 2.586-2.806 3.767-4.306 1.182-1.5 2.332-2.946 3.424-3.946 1.092-.999 2.04-1.482 2.879-1.482 2.222 0 2.933.97 3.459 2.123s.541 2.37.541 2.37l3 .015s.03-1.784-.813-3.631c-.841-1.847-2.879-3.877-6.187-3.877zm-.508 4.992a.5.5 0 0 0 -.492.508v1.5h-1.5a.5.5 0 1 0 0 1h1.5v1.5a.5.5 0 1 0 1 0v-1.5h1.5a.5.5 0 1 0 0-1h-1.5v-1.5a.5.5 0 0 0 -.508-.508zm-15.992 2.008a.5.5 0 1 0 0 1h4a.5.5 0 1 0 0-1z" opacity=".1"/><g fill="none"><path d="m7.5 15.5h4" stroke="#00797d" stroke-linecap="round" stroke-linejoin="round"/><path d="m23.5 13.5v4m-2-2h4" stroke="#009da2" stroke-linecap="round" stroke-linejoin="round"/><path d="m3.5 15.5s-.077 6 5.5 6 9.472-12 15-12 5.5 6 5.5 6" stroke="#00797d" stroke-width="3"/></g><path d="m9 9c-3.326 0-5.372 2.031-6.209 3.883a9.101 9.101 0 0 0 -.719 2.617h3.043c.075-.414.19-.895.41-1.383.52-1.147 1.225-2.117 3.475-2.117.856 0 1.813.486 2.91 1.484" opacity=".1"/><path d="m3.5 15.5s-.077-6 5.5-6 9.472 12 15 12 5.5-6 5.5-6" fill="none" stroke="#009da2" stroke-width="3"/><path d="m16.5 1a14.5 14.5 0 0 0 -14.5 14.5 14.5 14.5 0 0 0 .021.58 14.5 14.5 0 0 1 14.479-14.08 14.5 14.5 0 0 1 14.479 13.92 14.5 14.5 0 0 0 .021-.42 14.5 14.5 0 0 0 -14.5-14.5z" fill="#f4f4f7" opacity=".2"/></svg>