<svg height="32" width="32" xmlns="http://www.w3.org/2000/svg"><rect height="28" opacity=".2" rx="13.999" width="28" x="2" y="3"/><rect fill="#9d9d9d" height="28" rx="13.999" width="28" x="2" y="2"/><g transform="matrix(0 -1 -1 0 0 0)"><circle cx="-16" cy="-16" fill="#707070" r="11"/><circle cx="-16" cy="-16" fill="#17191e" r="8"/><circle cx="-17" cy="-16" opacity=".1" r="4"/><circle cx="-16" cy="-16" fill="#4f4f4f" r="4"/></g><path d="m16 2c-7.756 0-14 6.244-14 14 0 .169.02.333.025.5.265-7.52 6.388-13.5 13.975-13.5s13.71 5.98 13.975 13.5c.005-.167.025-.331.025-.5 0-7.756-6.244-14-14-14z" fill="#f4f4f7" opacity=".1"/><path d="m16 12a4 4 0 0 0 -4 4 4 4 0 0 0 .035.506 4 4 0 0 1 3.965-3.506 4 4 0 0 1 3.965 3.494 4 4 0 0 0 .035-.494 4 4 0 0 0 -4-4z" fill="#f4f4f7" opacity=".1"/></svg>