<svg xmlns="http://www.w3.org/2000/svg" height="32" width="32"><g transform="translate(0 -1)"><rect style="opacity:.2" rx="2" ry="2" height="23" width="28" y="6" x="2"/><rect style="fill:#5bc621" rx="2" ry="2" height="23" width="28" y="5" x="2"/><path style="opacity:.2;fill:#f4f4f7" d="M4 5c-1.108 0-2 .892-2 2v1c0-1.108.892-2 2-2h24c1.108 0 2 .892 2 2V7c0-1.108-.892-2-2-2z"/><path style="opacity:.2" d="M7 6v5H2v2h5v4H2v2h5v3H2v2h5v5h2v-5h6v5h2v-5h6v5h2v-5h5v-2h-5v-3h5v-2h-5v-4h5v-2h-5V6h-2v5h-6V6h-2v5H9V6zm2 7h14v9H9z"/><path style="fill:#f4f4f7" d="M7 5v5H2v2h5v4H2v2h5v3H2v2h5v5h2v-5h6v5h2v-5h6v5h2v-5h5v-2h-5v-3h5v-2h-5v-4h5v-2h-5V5h-2v5h-6V5h-2v5H9V5zm2 7h14v9H9z"/></g><circle style="opacity:.2" cx="24" r="8" cy="23"/><circle style="fill:#ff9d04" cx="24" r="8" cy="22"/><path style="fill:#f4f4f7" d="M20 24.218V26h1.782l4.5-4.5-1.782-1.782zm7.859-4.29a.472.472 0 0 0 0-.673l-1.114-1.114a.472.472 0 0 0-.674 0l-.931.937 1.782 1.782z"/></svg>