<svg xmlns="http://www.w3.org/2000/svg" width="32" height="32"><circle style="opacity:.2" cx="16" cy="17" r="14"/><circle style="fill:#8b9cbe" cx="16" cy="16" r="14"/><path style="fill:#f4f4f7;opacity:.1" d="M16 2A14 14 0 0 0 2 16a14 14 0 0 0 .021.586A14 14 0 0 1 16 3a14 14 0 0 1 13.979 13.414A14 14 0 0 0 30 16 14 14 0 0 0 16 2z"/><path style="opacity:.2" d="M16 8a7 7 0 0 0-7 7v2.176A3 3 0 0 0 7 20a3 3 0 0 0 3 3c.34-.001.68-.06 1-.176V23h2v-6h-2v-2a5 5 0 1 1 10 0v2.176A3 3 0 0 0 19 20a3 3 0 1 0 4-2.826V15a7 7 0 0 0-7-7zm-6 11a1 1 0 1 1 0 2 1 1 0 0 1 0-2zm12 0a1 1 0 1 1 0 2 1 1 0 0 1 0-2z"/><path style="fill:#2993e4" d="M16 7a7 7 0 0 0-7 7v2.176A3 3 0 0 0 7 19a3 3 0 0 0 3 3c.34-.001.68-.06 1-.176V22h2v-6h-2v-2a5 5 0 1 1 10 0v2.176A3 3 0 0 0 19 19a3 3 0 1 0 4-2.826V14a7 7 0 0 0-7-7zm-6 11a1 1 0 1 1 0 2 1 1 0 0 1 0-2zm12 0a1 1 0 1 1 0 2 1 1 0 0 1 0-2z"/></svg>