<svg height="32" width="32" xmlns="http://www.w3.org/2000/svg">
    <rect fill="#4f4f4f" height="19" rx="1.5" transform="rotate(90)" width="19" x="2" y="-30"/>
    <path d="M20 9v1h1V9zm3 0v1h1V9zm-.627 2.138c-1.19 0-2.136.382-2.84 1.147-.699.76-1.049 2.191-1.049 3.49 0 1.256.37 2.453 1.106 3.19.741.736 1.744 1.103 3.01 1.103.505 0 1.005-.05 1.496-.154.49-.104.97-.257 1.437-.455v-1.233c-.463.246-.93.43-1.402.553a5.7 5.7 0 0 1-1.453.185c-.865 0-1.54-.235-2.026-.703-.481-.472-.75-1.354-.806-2.252h5.992v-.638c0-1.181-.312-2.515-.936-3.2-.618-.689-1.462-1.033-2.529-1.033zm.016 1.106c.642 0 1.155.211 1.543.636.392.426.594 1.395.603 2.108l-4.648.008c.066-.746.317-1.726.752-2.137.439-.41 1.022-.615 1.75-.615z" opacity=".2"/>
    <path d="M22.373 10.139c-1.19 0-2.136.381-2.84 1.146-.699.76-1.049 2.191-1.049 3.49 0 1.256.37 2.454 1.106 3.19.741.737 1.744 1.104 3.01 1.104.505 0 1.005-.05 1.496-.154.49-.104.97-.257 1.437-.455v-1.233c-.463.246-.93.43-1.402.553a5.7 5.7 0 0 1-1.453.185c-.865 0-1.54-.235-2.026-.703-.481-.472-.75-1.356-.806-2.253h5.992v-.639c0-1.18-.312-2.513-.936-3.198-.618-.69-1.462-1.033-2.529-1.033zm.016 1.105c.642 0 1.155.212 1.543.637.392.425.594 1.394.603 2.107l-4.648.007c.066-.746.317-1.725.752-2.136.439-.41 1.022-.615 1.75-.615zM23 8h1v1h-1zm-3 0h1v1h-1z" fill="#f4f4f7"/>
    <path d="M11 19.5v1c0 .831.669 1.5 1.5 1.5h16c.831 0 1.5-.669 1.5-1.5v-1c0 .831-.669 1.5-1.5 1.5h-16c-.831 0-1.5-.669-1.5-1.5z" opacity=".2"/>
    <rect fill="#f4f4f7" height="19" rx="1.5" transform="rotate(90)" width="19" x="10" y="-21"/>
    <path d="M12.5 2c-.831 0-1.5.669-1.5 1.5v1c0-.831.669-1.5 1.5-1.5h16c.831 0 1.5.669 1.5 1.5v-1c0-.831-.669-1.5-1.5-1.5z" fill="#fff" opacity=".1"/>
    <path d="M3.5 10c-.831 0-1.5.669-1.5 1.5v1c0-.831.669-1.5 1.5-1.5h16c.831 0 1.5.669 1.5 1.5v-1c0-.831-.669-1.5-1.5-1.5z" fill="#f4f4f7" opacity=".2"/>
    <path d="M14.284 24.038c-1.1 0-1.862.122-2.287.367-.424.245-.636.662-.636 1.253 0 .47.158.544.474.823.32.273.754.41 1.302.41.755 0 1.359-.26 1.813-.778.459-.523.688-.916.688-1.78v-.295zM17 23.491V28h-1.362v-1.433c-.31.49-.698.852-1.16 1.087-.465.231-1.032.346-1.703.346-.849 0-1.524-.23-2.028-.691-.498-.466-.747-.787-.747-1.564 0-.907.311-1.59.933-2.051.626-.461 1.56-.627 2.797-.691h1.909v-.13c0-.61-.207-.98-.622-1.311-.41-.336-.986-.504-1.731-.504-.474 0-.935.055-1.384.166-.449.11-.88.576-1.295.797v-1.524a9.045 9.045 0 0 1 1.45-.418 6.817 6.817 0 0 1 1.37-.144c1.198 0 2.094.302 2.685.907.592.605.888 1.421.888 2.65m-4.587-7.491L14.5 19h-1.132l-2.412-3h1.458" opacity=".2"/>
    <path d="M14.284 23.038c-1.1 0-1.862.123-2.287.367-.424.245-.636.663-.636 1.253 0 .47.158.544.474.823.32.273.754.41 1.302.41.755 0 1.359-.26 1.813-.777.459-.523.688-.917.688-1.78v-.296zM17 22.491V27h-1.362v-1.433c-.31.49-.698.852-1.16 1.087-.465.231-1.032.346-1.703.346-.849 0-1.524-.23-2.028-.69-.498-.467-.747-.788-.747-1.565 0-.907.311-1.59.933-2.051.626-.46 1.56-.627 2.797-.691h1.909v-.13c0-.61-.207-.98-.622-1.31-.41-.337-.986-.505-1.731-.505-.474 0-.935.055-1.384.166-.449.11-.88.576-1.295.797v-1.524a9.045 9.045 0 0 1 1.45-.418 6.817 6.817 0 0 1 1.37-.144c1.198 0 2.094.303 2.685.907.592.605.888 1.422.888 2.65m-4.587-7.491L14.5 18h-1.132l-2.412-2.999h1.458" fill="#17191e"/>
    <path d="M2 27.5v1c0 .831.669 1.5 1.5 1.5h16c.831 0 1.5-.669 1.5-1.5v-1c0 .831-.669 1.5-1.5 1.5h-16c-.831 0-1.5-.669-1.5-1.5z" opacity=".2"/>
</svg>
