<svg xmlns="http://www.w3.org/2000/svg" width="32" height="32" version="1"><rect style="opacity:.2" width="28" height="28" x="-31" y="-30" rx="1.4" ry="1.4" transform="matrix(0 -1 -1 0 0 0)"/><rect style="fill:#8b9cbe" width="28" height="28" x="-30" y="-30" rx="1.4" ry="1.4" transform="matrix(0 -1 -1 0 0 0)"/><path style="opacity:.2" d="M20.848 8.027c-.228 0-.486.152-.659.387-.098.135-.11.242-.134 1.11l-.026.474-.795.014-1.092.015c-.2-.056-.56-.356-.79-.52-.28-.304-.582-.656-.67-.778-.385-.54-.957-.666-1.357-.3-.272.25-.312.138-.312 1.046 0 .557-.019.558-.067.572-.036.01-.286.06-.556.11-.27.049-.574.133-.676.189a.843.843 0 0 1-.27.101c-.045 0-.269.057-.496.125-.227.069-.58.14-.787.16-.206.02-.505.083-.664.14a1.844 1.844 0 0 1-.39.103c-.207 0-1.144.414-1.472.609-.524.31-.725.471-1.52 1.217-.258.242-.73.803-.928 1.103a4.514 4.514 0 0 1-.267.37c-.051.058-.208.333-.35.609-.31.607-.618 1.79-.564 2.174.017.125.054 1.237.08 1.789.045.974.052 1.021.258 1.64.116.35.257.745.312.875.114.27.537.673.881.842.122.06.22.135.22.166s-.056.182-.128.336a2.768 2.768 0 0 0-.203.54c-.04.182-.124.32-.184.55-.06.23-.11.18-.11.255 0 .075-.057.279-.128.453-.238.584-.123 1.166.285 1.443.15.102.235.12.47.104.36-.026.585-.184.731-.514a9.31 9.31 0 0 1 .21-.438.929.929 0 0 0 .1-.263c0-.038.05-.162.11-.276.198-.373.474-.763.51-1.141.025-.266.078-.372.184-.555.168-.29.197-.294.814-.084.186.064.51.125.545.135.05.015.066-.22.066.888 0 .84.023 1.522.055 1.638.066.242.354.546.584.617.302.095.47.029.842-.164.238-.123.287-.244.398-.404l.158-.228.018-1.383c.009-.76.031-.827.05-.847.02-.02 1.487-.04 2.964-.047l2.683-.011.065.127c.034.07.095.01.136.199.042.188.15.233.243.466.091.232.247.671.347.976.224.682.383.968.633 1.133.505.334 1.16.137 1.363-.41.083-.223.067-.856-.027-1.082a3.207 3.207 0 0 1-.133-.617c-.033-.26-.112-.247-.203-.44-.187-.401-.251-.44-.144-.44.09 0 .374-.148 1.044-.545.28-.166.53-.3.56-.3.066 0 .095.136.153.712a2.4 2.4 0 0 0 .131.602c.046.109.115.144.155.326.372 1.7.412 1.357.779 1.575.46.272.937.224 1.25-.127.102-.114.198-.287.217-.385.046-.248-.058-.685-.207-1.313-.151-.636-.286-1.492-.295-2.19-.007-.47.004-.524.127-.687.073-.097.179-.287.236-.422.057-.135.202-.403.322-.596.12-.192.274-.51.342-.705.114-.328.124-.708.125-1.701 0-.962-.012-1.133-.13-1.662a7.343 7.343 0 0 0-.241-.854 5.827 5.827 0 0 1-.184-.55c-.233-.863-1.15-2.348-2.05-2.967-.345-.237-.678-.62-.678-.782 0-.216-.124-.463-.39-.767-.327-.373-.534-.223-.622-.524-.196-.667-.412-.996-.857-.996zM22.96 12c.695.001 1.14.529 1.02 1.246-.041.243-.345.645-.524.693-.239.065-.387.076-.543.04-.47-.112-.842-.474-.902-.881-.082-.553.278-1.04.806-1.092.049-.005.097-.006.143-.006zm-3.932 2c.54.005 1.036.422.965 1.018-.072.61-.412.957-.959.98a1.737 1.737 0 0 1-.453-.033c-.19-.06-.429-.287-.516-.49-.088-.207-.087-.675 0-.885.038-.09.148-.234.247-.32.215-.19.47-.272.716-.27z"/><path style="fill:#f4f4f7" d="M20.848 7.027c-.228 0-.486.152-.659.387-.098.135-.11.242-.134 1.11l-.026.474-.795.014-1.092.015c-.2-.056-.56-.356-.79-.52-.28-.304-.582-.656-.67-.778-.385-.54-.957-.666-1.357-.3-.272.25-.312.138-.312 1.046 0 .557-.019.558-.067.572-.036.01-.286.06-.556.11-.27.049-.574.133-.676.189a.844.844 0 0 1-.27.101c-.045 0-.269.057-.496.125-.227.069-.58.14-.787.16-.206.02-.505.083-.664.14a1.844 1.844 0 0 1-.39.103c-.207 0-1.144.414-1.472.609-.524.31-.725.471-1.52 1.217-.258.242-.73.803-.928 1.103a4.514 4.514 0 0 1-.267.37c-.051.058-.208.333-.35.609-.31.607-.618 1.79-.564 2.174.017.125.054 1.237.08 1.789.045.974.052 1.021.258 1.64.116.35.257.745.312.875.114.27.537.673.881.842.122.06.22.135.22.166s-.056.182-.128.336a2.768 2.768 0 0 0-.203.54c-.04.182-.124.32-.184.55-.06.23-.11.18-.11.255 0 .075-.057.279-.128.453-.238.584-.123 1.166.285 1.443.15.102.235.12.47.104.36-.026.585-.184.731-.514a9.31 9.31 0 0 1 .21-.438.929.929 0 0 0 .1-.263c0-.038.05-.162.11-.276.198-.373.474-.763.51-1.141.025-.266.078-.372.184-.555.168-.29.197-.294.814-.084.186.064.51.125.545.135.05.015.066-.22.066.888 0 .84.023 1.522.055 1.638.066.242.354.546.584.617.302.095.47.029.842-.164.238-.123.287-.244.398-.404l.158-.228.018-1.383c.009-.76.031-.827.05-.847.02-.02 1.487-.04 2.964-.047l2.683-.011.065.127c.034.07.095.01.136.199.042.188.15.233.243.466.091.232.247.671.347.976.224.682.383.968.633 1.133.505.334 1.16.137 1.363-.41.083-.223.067-.856-.027-1.082a3.207 3.207 0 0 1-.133-.617c-.033-.26-.112-.247-.203-.44-.187-.401-.251-.44-.144-.44.09 0 .374-.148 1.044-.545.28-.166.53-.3.56-.3.066 0 .095.136.153.712a2.4 2.4 0 0 0 .131.602c.046.109.115.144.155.326.372 1.7.412 1.357.779 1.575.46.272.937.224 1.25-.127.102-.114.198-.287.217-.385.046-.248-.058-.685-.207-1.313-.151-.636-.286-1.492-.295-2.19-.007-.47.004-.524.127-.687.073-.097.179-.287.236-.422.057-.135.202-.403.322-.596.12-.192.274-.51.342-.705.114-.328.124-.708.125-1.701 0-.962-.012-1.133-.13-1.662a7.343 7.343 0 0 0-.241-.854 5.826 5.826 0 0 1-.184-.55c-.233-.863-1.15-2.348-2.05-2.967-.345-.237-.678-.62-.678-.782 0-.216-.124-.463-.39-.767-.327-.373-.534-.223-.622-.524-.196-.667-.412-.996-.857-.996zM22.96 11c.695.001 1.14.529 1.02 1.246-.041.243-.345.645-.524.693-.239.065-.387.076-.543.04-.47-.112-.842-.474-.902-.881-.082-.553.278-1.04.806-1.092.049-.005.097-.006.143-.006zm-3.932 2c.54.005 1.036.422.965 1.018-.072.61-.412.957-.959.98a1.737 1.737 0 0 1-.453-.033c-.19-.06-.429-.287-.516-.49-.088-.207-.087-.675 0-.885.038-.09.148-.234.247-.32.215-.19.47-.272.716-.27z"/><path style="fill:#f4f4f7;opacity:.1" d="M3.4 2C2.625 2 2 2.625 2 3.4v1C2 3.625 2.625 3 3.4 3h25.2c.775 0 1.4.625 1.4 1.4v-1c0-.775-.625-1.4-1.4-1.4H3.4z"/></svg>