<svg xmlns="http://www.w3.org/2000/svg" width="32" height="32" version="1"><rect style="opacity:.2" width="28" height="25" x="2" y="4" rx="2.1" ry="2.083"/><rect style="fill:#8b9cbe" width="28" height="25" x="2" y="3" rx="2.1" ry="2.083"/><rect style="opacity:.2" width="8" height="3" x="13" y="15" rx=".667" ry=".75"/><rect style="fill:#f4f4f7" width="8" height="3" x="13" y="14" rx=".667" ry=".75"/><rect style="opacity:.2" width="8.382" height="2.794" x="-8.61" y="15.1" rx=".698" ry=".698" transform="scale(1.0239 .97552) rotate(-45)"/><rect style="fill:#a2a2a2" width="8.382" height="2.794" x="-7.88" y="14.38" rx=".698" ry=".698" transform="scale(1.0239 .97552) rotate(-45)"/><rect style="opacity:.2" width="8.382" height="2.794" x="9.52" y="-3.02" rx=".698" ry=".698" transform="scale(1.0239 -.97552) rotate(-45)"/><rect style="fill:#f4f4f7" width="8.382" height="2.794" x="8.79" y="-2.29" rx=".698" ry=".698" transform="scale(1.0239 -.97552) rotate(-45)"/><path style="fill:#f4f4f7;opacity:.1" d="M4.1 3C2.936 3 2 3.93 2 5.084v1C2 4.93 2.936 4 4.1 4h23.8c1.164 0 2.1.93 2.1 2.084v-1A2.087 2.087 0 0 0 27.9 3H4.1z"/></svg>