<svg height="32" width="32" xmlns="http://www.w3.org/2000/svg"><rect height="28" opacity=".2" rx="6" width="28" x="2" y="3"/><rect fill="#5c29a1" height="28" rx="6" width="28" x="2" y="2"/><path d="m11 9c-3 0-5 2-5 5v7h5v4h10v-4h5v-7c0-3-2-5-5-5zm0 4a3 3 0 0 1 3 3 3 3 0 0 1 -3 3 3 3 0 0 1 -3-3 3 3 0 0 1 3-3zm10 0a3 3 0 0 1 3 3 3 3 0 0 1 -3 3 3 3 0 0 1 -3-3 3 3 0 0 1 3-3z" opacity=".2"/><path d="m11 8c-3 0-5 2-5 5v7h5v4h10v-4h5v-7c0-3-2-5-5-5zm0 4a3 3 0 0 1 3 3 3 3 0 0 1 -3 3 3 3 0 0 1 -3-3 3 3 0 0 1 3-3zm10 0a3 3 0 0 1 3 3 3 3 0 0 1 -3 3 3 3 0 0 1 -3-3 3 3 0 0 1 3-3z" fill="#efe3b7"/><path d="m8 2c-3.324 0-6 2.676-6 6v1c0-3.324 2.676-6 6-6h16c3.324 0 6 2.676 6 6v-1c0-3.324-2.676-6-6-6z" fill="#f4f4f7" opacity=".2"/></svg>