<svg height="64" viewBox="0 0 16.933 16.933" width="64" xmlns="http://www.w3.org/2000/svg">
    <filter id="a" color-interpolation-filters="sRGB" height="1.096" width="1.096" x="-.048" y="-.048">
        <feGaussianBlur stdDeviation="1.1"/>
    </filter>
    <linearGradient id="b" gradientUnits="userSpaceOnUse" x1="4.726" x2="19.278" y1="16.962" y2="2.41">
        <stop offset="0" stop-color="#ffc841"/>
        <stop offset=".492" stop-color="#ffbe37"/>
        <stop offset="1" stop-color="#ffc841"/>
    </linearGradient>
    <linearGradient id="c" gradientUnits="userSpaceOnUse" x1="15.013" x2="15.013" y1="2.317" y2="8.646">
        <stop offset="0" stop-color="#fff"/>
        <stop offset="1" stop-color="#f5f5f5"/>
    </linearGradient>
    <linearGradient id="d" gradientUnits="userSpaceOnUse" x1="16.109" x2="16.109" y1="2.36" y2="8.677">
        <stop offset="0" stop-color="#fff"/>
        <stop offset="1" stop-color="#fd9"/>
    </linearGradient>
    <g transform="translate(-3.534 -1.219)">
        <rect filter="url(#a)" height="55" opacity=".3" rx="13.002" transform="translate(3.534 1.219) scale(.26459)" width="55" x="4.5" y="4.5"/>
        <rect fill="url(#b)" height="14.552" rx="3.44" width="14.552" x="4.725" y="2.409"/>
        <g fill="#f08705">
            <path d="M6.172 8.23c-.008.039-.012.08-.02.12H17.85c-.007-.04-.012-.081-.02-.12zM6.364 5.587l.02.122H17.62l.019-.122z" opacity=".6"/>
            <g stroke-width=".799">
                <path d="M6.172 10.872c-.008.04-.012.081-.02.122H17.85c-.007-.041-.012-.082-.02-.122zM6.172 13.514c-.008.04-.012.081-.02.122H17.85c-.007-.041-.012-.082-.02-.122z" opacity=".6"/>
            </g>
        </g>
        <g stroke-width=".265">
            <path d="M14.424 2.41v6.264l1.058-1.057V2.41z" fill="url(#c)"/>
            <path d="M15.482 2.41v5.207l1.058 1.058V2.481a3.48 3.48 0 0 0-.704-.071h-.354z" fill="url(#d)"/>
        </g>
    </g>
</svg>
