<svg height="32" width="32" xmlns="http://www.w3.org/2000/svg">
    <path d="M14 3c13.867 0 14 12 14 12s0 9-3 12c-4 4-9.533 4-13 4-5.2 0-8-5-8-8V11l-2 1 2-3H2l3-2H3l4-2H5s3.8-2 9-2z" opacity=".2"/>
    <path d="M14 2c13.867 0 14 12 14 12s0 9-3 12c-4 4-9.533 4-13 4-5.2 0-8-5-8-8V10l-2 1 2-3H2l3-2H3l4-2H5s3.8-2 9-2z" fill="#4f4f4f"/>
    <path d="M11 19s1-3 5-3 5 3 5 3h-5z" opacity=".2"/>
    <path d="M11 18s1-3 5-3 5 3 5 3h-5z" fill="#f4f4f7"/>
    <path d="M9 19s-1-2-3-2-2 2-2 2h2z" opacity=".2"/>
    <g fill="#f4f4f7">
        <path d="M9 18s-1-2-3-2-2 2-2 2h2z"/>
        <path d="M14 2c13.867 0 14 12 14 12s-.017.452-.021.666C27.877 13.025 26.744 3 14 3 8.8 3 5 5 5 5l2-1H5s3.8-2 9-2zM5 5h2L5 6H3zm0 2L3.5 8H2l1.5-1zM4 9l-1 1.5-1 .5 1.334-2z" opacity=".1"/>
    </g>
    <circle cx="24" cy="23" fill="#bc6740" r="8"/>
    <path d="M31.979 23.424A8 8 0 0 1 24 31a8 8 0 0 1-7.979-7.424A8 8 0 0 0 16 24a8 8 0 0 0 8 8 8 8 0 0 0 8-8 8 8 0 0 0-.021-.576z" opacity=".3"/>
    <path d="M24 20s-.48-.01-.974.24C22.532 20.487 22 21.083 22 22h1c0-1 1-1 1-1s1 0 1 1c0 .375-.127.657-.362.958-.236.3-.583.595-.958.908-.375.312-.778.642-1.105 1.06-.327.419-.575.949-.575 1.574v.5h4v-1h-2.909c.061-.157.152-.305.272-.457.235-.3.582-.596.957-.909.375-.312.778-.642 1.105-1.06.328-.419.575-.949.575-1.574 0-.917-.532-1.513-1.026-1.76C24.479 19.993 24 20 24 20z" fill="#f4f4f7" fill-rule="evenodd"/>
</svg>
