<svg xmlns="http://www.w3.org/2000/svg" width="32" height="32" version="1"><rect style="opacity:.2" width="28" height="28" x="2" y="3" rx="1.4" ry="1.4"/><rect style="fill:#4f4f4f" width="28" height="28" x="2" y="2" rx="1.4" ry="1.4"/><path style="opacity:.2" class="st0" d="M21.617 21.387c-1.57-.673-2.715-1.682-3.827-2.12.589-.268 1.145-.638 1.472-.975.36-.37.49-.807.458-1.244 1.177.807 2.551.874 3.27.908.72.033 1.44.202 1.57.538 0 0 .23-4.103-7.98-6.828 0 0 2.453 1.144 3.205 2.052 0 0-.883-.067-1.243.538-.196.303-.229.74-.065 1.245-.131-.034-.295-.034-.458-.068L5 8l1.374 3.027-1.276-.47.393.74s.556 1.075 1.799 3.329c.981 1.783 2.747 2.657 5.103 2.556h.294c.589-.033 1.505-.134 2.388-.202-.066.337-.066.74.032 1.211.099.538.328.908.59 1.11-.688.337-1.242 1.01-1.503 1.783-.197.504-.262 1.076 0 1.782.032.135.098.27.196.438.065.134.163.269.294.403 1.44 1.783 4.872 1.48 7.096.539.033 0 .066-.034.099-.034.163-.067.36-.168.523-.236.033-.033.065-.033.098-.067.196-.1.36-.202.556-.303C25.248 22.295 26 20.748 26 20.748s-2.257 1.547-4.383.639zm.356-6.289c.621.27 1.57 1.884 1.57 1.884-.785-.135-2.388-.673-2.552-1.278-.163-.606.36-.875.982-.606zm-1.86 8.138s.163.539-.034 1.245c-.229.067-.458.1-.686.168.392-.303.72-.773.72-1.413zM9.35 12.978l5.66 3.296c-1.047.101-2.127.202-2.683.236-.85.033-1.603-.068-2.257-.303-.981-.337-1.7-1.01-2.224-1.917-.654-1.144-1.08-1.985-1.374-2.523l1.178.404-1.178-2.59 10.304 5.852c-.295.034-.556.135-.818.236zm6.02 4.137c.392-1.95 2.845-1.345 2.845-1.345-.883 0-1.407.235-1.668.605-.393.538.098.975.098.975-.131-.033-.262-.067-.327-.134v.034c.196.773.818.975.818.975-.23.034-.426 0-.59-.034.132.303.328.538.426.606-.556 0-.818.134-1.014.202-.425-.303-.785-1.043-.589-1.884zm1.767 4.305s-.883 1.144-2.813 1.144a2.801 2.801 0 0 1 .033-1.278c.622.403 1.537.605 2.78.134zm-1.602 2.657c.817-.201 1.864-.672 2.845-1.816 0 0-.13 1.278-1.046 2.455a5.237 5.237 0 0 1-1.243-.336c-.197-.1-.393-.202-.556-.303zm7.62-1.042c-.099-.303-.164-.942-.164-.942.687.067 1.504-.236 1.504-.236-.556.74-1.34 1.178-1.34 1.178z"/><path style="fill:#fb0" class="st0" d="M21.617 20.387c-1.57-.673-2.715-1.682-3.827-2.12.589-.268 1.145-.638 1.472-.975.36-.37.49-.807.458-1.244 1.177.807 2.551.874 3.27.908.72.033 1.44.202 1.57.538 0 0 .23-4.103-7.98-6.828 0 0 2.453 1.144 3.205 2.052 0 0-.883-.067-1.243.538-.196.303-.229.74-.065 1.245-.131-.034-.295-.034-.458-.068L5 7l1.374 3.027-1.276-.47.393.74s.556 1.075 1.799 3.329c.981 1.783 2.747 2.657 5.103 2.556h.294c.589-.033 1.505-.134 2.388-.202-.066.337-.066.74.032 1.211.099.538.328.908.59 1.11-.688.337-1.242 1.01-1.503 1.783-.197.504-.262 1.076 0 1.782.032.135.098.27.196.438.065.134.163.269.294.403 1.44 1.783 4.872 1.48 7.096.539.033 0 .066-.034.099-.034.163-.067.36-.168.523-.236.033-.033.065-.033.098-.067.196-.1.36-.202.556-.303C25.248 21.295 26 19.748 26 19.748s-2.257 1.547-4.383.639zm.356-6.289c.621.27 1.57 1.884 1.57 1.884-.785-.135-2.388-.673-2.552-1.278-.163-.606.36-.875.982-.606zm-1.86 8.138s.163.539-.034 1.245c-.229.067-.458.1-.686.168.392-.303.72-.773.72-1.413zM9.35 11.978l5.66 3.296c-1.047.101-2.127.202-2.683.236-.85.033-1.603-.068-2.257-.303-.981-.337-1.7-1.01-2.224-1.917-.654-1.144-1.08-1.985-1.374-2.523l1.178.404-1.178-2.59 10.304 5.852c-.295.034-.556.135-.818.236zm6.02 4.137c.392-1.95 2.845-1.345 2.845-1.345-.883 0-1.407.235-1.668.605-.393.538.098.975.098.975-.131-.033-.262-.067-.327-.134v.034c.196.773.818.975.818.975-.23.034-.426 0-.59-.034.132.303.328.538.426.606-.556 0-.818.134-1.014.202-.425-.303-.785-1.043-.589-1.884zm1.767 4.305s-.883 1.144-2.813 1.144a2.801 2.801 0 0 1 .033-1.278c.622.403 1.537.605 2.78.134zm-1.602 2.657c.817-.201 1.864-.672 2.845-1.816 0 0-.13 1.278-1.046 2.455a5.237 5.237 0 0 1-1.243-.336c-.197-.1-.393-.202-.556-.303zm7.62-1.042c-.099-.303-.164-.942-.164-.942.687.067 1.504-.236 1.504-.236-.556.74-1.34 1.178-1.34 1.178z"/><path style="fill:#f4f4f7;opacity:.1" d="M3.4 2C2.625 2 2 2.625 2 3.4v1C2 3.625 2.625 3 3.4 3h25.2c.775 0 1.4.625 1.4 1.4v-1c0-.775-.625-1.4-1.4-1.4H3.4z"/></svg>