<svg xmlns="http://www.w3.org/2000/svg" width="32" height="32" version="1"><rect style="opacity:.2" width="28" height="28" x="2" y="3" rx="14" ry="14"/><rect style="fill:#ff5722" width="28" height="28" x="2" y="2" rx="14" ry="14"/><g style="opacity:.2"><circle cx="9.5" cy="13.5" r="1.5"/><circle cx="13.5" cy="13.5" r="1.5"/><circle cx="17.5" cy="13.5" r="1.5"/><circle cx="21.5" cy="13.5" r="1.5"/><circle cx="5.5" cy="17.5" r="1.5"/><circle cx="9.5" cy="17.5" r="1.5"/><circle cx="13.5" cy="17.5" r="1.5"/><circle cx="17.5" cy="17.5" r="1.5"/><circle cx="21.5" cy="17.5" r="1.5"/><circle cx="25.5" cy="17.5" r="1.5"/><circle cx="5.5" cy="21.5" r="1.5"/><circle cx="9.5" cy="21.5" r="1.5"/><circle cx="21.5" cy="21.5" r="1.5"/><circle cx="25.5" cy="21.5" r="1.5"/></g><g style="fill:#f4f4f7"><circle cx="9.5" cy="12.5" r="1.5"/><circle cx="13.5" cy="12.5" r="1.5"/><circle cx="17.5" cy="12.5" r="1.5"/><circle cx="21.5" cy="12.5" r="1.5"/><circle cx="5.5" cy="16.5" r="1.5"/><circle cx="9.5" cy="16.5" r="1.5"/><circle cx="13.5" cy="16.5" r="1.5"/><circle cx="17.5" cy="16.5" r="1.5"/><circle cx="21.5" cy="16.5" r="1.5"/><circle cx="25.5" cy="16.5" r="1.5"/><circle cx="5.5" cy="20.5" r="1.5"/><circle cx="9.5" cy="20.5" r="1.5"/><circle cx="21.5" cy="20.5" r="1.5"/><circle cx="25.5" cy="20.5" r="1.5"/></g><path style="fill:#f4f4f7;opacity:.2" d="M16 2C8.244 2 2 8.244 2 16c0 .169.02.333.025.5C2.29 8.98 8.413 3 16 3s13.711 5.98 13.975 13.5c.005-.167.025-.331.025-.5 0-7.756-6.244-14-14-14z"/></svg>