<svg height="32" width="32" xmlns="http://www.w3.org/2000/svg"><rect height="28" opacity=".2" rx="14" width="28" x="2" y="3"/><rect fill="#ff5722" height="28" rx="14" width="28" x="2" y="2"/><g opacity=".2"><circle cx="9.5" cy="13.5" r="1.5"/><circle cx="13.5" cy="13.5" r="1.5"/><circle cx="17.5" cy="13.5" r="1.5"/><circle cx="21.5" cy="13.5" r="1.5"/><circle cx="5.5" cy="17.5" r="1.5"/><circle cx="9.5" cy="17.5" r="1.5"/><circle cx="13.5" cy="17.5" r="1.5"/><circle cx="17.5" cy="17.5" r="1.5"/><circle cx="21.5" cy="17.5" r="1.5"/><circle cx="25.5" cy="17.5" r="1.5"/><circle cx="5.5" cy="21.5" r="1.5"/><circle cx="9.5" cy="21.5" r="1.5"/><circle cx="21.5" cy="21.5" r="1.5"/><circle cx="25.5" cy="21.5" r="1.5"/></g><g fill="#f4f4f7"><g><circle cx="9.5" cy="12.5" r="1.5"/><circle cx="13.5" cy="12.5" r="1.5"/><circle cx="17.5" cy="12.5" r="1.5"/><circle cx="21.5" cy="12.5" r="1.5"/><circle cx="5.5" cy="16.5" r="1.5"/><circle cx="9.5" cy="16.5" r="1.5"/><circle cx="13.5" cy="16.5" r="1.5"/><circle cx="17.5" cy="16.5" r="1.5"/><circle cx="21.5" cy="16.5" r="1.5"/><circle cx="25.5" cy="16.5" r="1.5"/><circle cx="5.5" cy="20.5" r="1.5"/><circle cx="9.5" cy="20.5" r="1.5"/><circle cx="21.5" cy="20.5" r="1.5"/><circle cx="25.5" cy="20.5" r="1.5"/></g><path d="m16 2c-7.756 0-14 6.244-14 14 0 .169.02.333.025.5.265-7.52 6.388-13.5 13.975-13.5s13.711 5.98 13.975 13.5c.005-.167.025-.331.025-.5 0-7.756-6.244-14-14-14z" opacity=".2"/></g></svg>