<svg height="32" width="32" xmlns="http://www.w3.org/2000/svg"><circle cx="16" cy="17" opacity=".2" r="14"/><circle cx="16" cy="16" fill="#17191e" r="14"/><path d="m16 2a14 14 0 0 0 -6 1.361v25.259a14 14 0 0 0 6 1.38 14 14 0 0 0 14-14 14 14 0 0 0 -14-14z" fill="#f4f4f7" opacity=".1"/><path d="m10.804 9a.786.79 0 0 0 -.804.79v14.42a.786.79 0 0 0 1.178.684l6.214-3.605 6.215-3.606a.786.79 0 0 0 0-1.368l-6.215-3.604-6.214-3.606a.786.79 0 0 0 -.374-.105z" opacity=".2"/><path d="m10.804 8a.786.79 0 0 0 -.804.79v14.42a.786.79 0 0 0 1.178.684l6.214-3.605 6.215-3.606a.786.79 0 0 0 0-1.368l-6.215-3.604-6.214-3.606a.786.79 0 0 0 -.374-.105z" fill="#ffa119"/><g fill="#313131"><rect height="3" rx=".75" width="3" x="12" y="5"/><rect height="3" rx=".75" width="3" x="12" y="14"/><rect height="3" rx=".75" width="3" x="12" y="19"/><rect height="3" rx=".75" width="3" x="12" y="24"/></g><path d="m10.805 8a.786.79 0 0 0 -.805.79v1a.786.79 0 0 1 .805-.79.786.79 0 0 1 .373.105l6.215 3.606 6.214 3.605a.786.79 0 0 1 .213.186.786.79 0 0 0 -.213-1.186l-6.214-3.605-6.215-3.606a.786.79 0 0 0 -.373-.105z" fill="#f4f4f7" opacity=".2"/><rect fill="#313131" height="3" rx=".75" width="3" x="12" y="10"/><path d="m16 2a14 14 0 0 0 -14 14 14 14 0 0 0 .021.586 14 14 0 0 1 13.979-13.586 14 14 0 0 1 13.979 13.414 14 14 0 0 0 .021-.414 14 14 0 0 0 -14-14z" fill="#f4f4f7" opacity=".1"/></svg>