<svg height="32" width="32" xmlns="http://www.w3.org/2000/svg"><circle cx="16" cy="17" opacity=".2" r="14"/><circle cx="16" cy="16" fill="#ffc129" r="14"/><path d="m16 2a14 14 0 0 0 -14 14 14 14 0 0 0 .021.586 14 14 0 0 1 13.979-13.586 14 14 0 0 1 13.979 13.414 14 14 0 0 0 .021-.414 14 14 0 0 0 -14-14z" fill="#f4f4f7" opacity=".2"/><path d="m6.266 7a14 14 0 0 0 -3.266 5h1.059v18h3v-18h22.071a14 14 0 0 0 -3.293-5z" opacity=".2"/><path d="m6.207 6a14 14 0 0 0 -3.266 5h1.059v18h3v-18h22.072a14 14 0 0 0 -3.293-5z" fill="#f13c3c"/><path d="m8 13v2l6 1v-2zm16 0-6 1v2l6-1zm-13 3a3 3 0 0 0 -3 3 3 3 0 0 0 3 3 3 3 0 0 0 3-3 3 3 0 0 0 -3-3zm10 0a3 3 0 0 0 -3 3 3 3 0 0 0 3 3 3 3 0 0 0 3-3 3 3 0 0 0 -3-3z" opacity=".1"/><path d="m8 12v2l6 1v-2zm16 0-6 1v2l6-1zm-13 3a3 3 0 0 0 -3 3 3 3 0 0 0 3 3 3 3 0 0 0 3-3 3 3 0 0 0 -3-3zm10 0a3 3 0 0 0 -3 3 3 3 0 0 0 3 3 3 3 0 0 0 3-3 3 3 0 0 0 -3-3z" fill="#17191e"/><path d="m6.207 6a14 14 0 0 0 -3.266 5h.504a14 14 0 0 1 2.82-4h19.573a14 14 0 0 1 2.85 4h.384a14 14 0 0 0 -3.293-5zm-2.207 6v17h.059v-17z" fill="#f4f4f7" opacity=".2"/></svg>