<svg height="64" width="64" xmlns="http://www.w3.org/2000/svg">
    <filter id="a" color-interpolation-filters="sRGB" height="1.054" width="1.054" x="-.027" y="-.027">
        <feGaussianBlur stdDeviation=".619"/>
    </filter>
    <linearGradient id="b" gradientUnits="userSpaceOnUse" x1="4.5" x2="50.841" y1="59.49" y2="13.149">
        <stop offset="0" stop-color="#ff7d1e"/>
        <stop offset="1" stop-color="#ffa53c"/>
    </linearGradient>
    <rect fill="#141414" filter="url(#a)" height="55" opacity=".3" ry="15" width="55" x="4.5" y="4.5"/>
    <rect fill="url(#b)" height="55" ry="15" width="55" x="4.5" y="4.5"/>
    <path d="M31.351 16.357c-.682-.006-1.529 0-2.603.01-4 .035-4 .035-4.927.286-1.895.51-3.892 1.829-5.12 3.271-1.356 1.59-2.355 3.394-2.355 5.565v11.143c.214 8.416 5.12 10.822 9.13 11.03H38.52c4.988-.402 9.003-5.049 9.13-8.397v-4.667c.017-3.867.017-5.202-.422-5.722-.46-.545-.805-.8-2.191-.8-1.35 0-1.834.062-2.278-.275-.56-.422-.703-.794-.794-2.002-.305-4.321-2.99-7.78-7-9.04-.984-.31-1.575-.407-3.623-.422m-5.08 7.853h5.742c1.151 0 2.09.927 2.09 2.09 0 1.156-.933 1.823-2.09 1.823H26.26c-1.157 0-2.09-.668-2.09-1.824 0-1.157.928-2.09 2.09-2.09m0 11.74h11.48c1.157 0 2.09.673 2.09 1.823 0 1.157-.928 2.09-2.09 2.09h-11.48a2.083 2.083 0 0 1-2.09-2.09c0-1.152.928-1.823 2.09-1.823" fill="#fff"/>
</svg>
