<svg xmlns="http://www.w3.org/2000/svg" width="32" height="32" version="1"><rect style="opacity:.2" width="26" height="26" x="1" y="4" rx="3.059" ry="3.059"/><path style="opacity:.2" d="M27 9.929 32 6v22l-5-3.929z"/><rect style="fill:#1c6bdd" width="26" height="26" x="1" y="3" rx="3.059" ry="3.059"/><path style="fill:none" d="M4.1 3.42h24.8v24.8H4.1z"/><path style="fill:#1f56a8" d="M27 8.929 32 5v22l-5-3.929z"/><path style="opacity:.2" d="M7 8v17h9.334C18.911 25 21 22.549 21 20c0-1.297-.545-2.564-1.416-3.5C20.455 15.564 21 14.297 21 13c0-2.549-2.089-5-4.666-5zm3 3h6.334C17.23 11 18 12.114 18 13c0 .886-.77 2.01-1.666 2H10zm0 7h6.334C17.23 18 18 19.114 18 20c0 .886-.77 2.01-1.666 2H10z"/><path style="fill:#f4f4f7" d="M7 14v10h9.333C18.911 24 21 21.549 21 19s-2.09-5-4.667-5zm3 3h6.333C17.23 17 18 18.114 18 19c0 .886-.77 2.01-1.667 2H10z"/><path style="fill:#f4f4f7" d="M7 7v10h9.333C18.911 17 21 14.549 21 12s-2.09-5-4.667-5zm3 3h6.333C17.23 10 18 11.114 18 12c0 .886-.77 2.01-1.667 2H10z"/><path style="opacity:.1;fill:#f4f4f7" d="M4.059 3A3.052 3.052 0 0 0 1 6.059v1A3.052 3.052 0 0 1 4.059 4H23.94A3.052 3.052 0 0 1 27 7.059v-1A3.052 3.052 0 0 0 23.941 3H4.06zM32 5 27 8.93v1L32 6z"/></svg>