<svg height="32" width="32" xmlns="http://www.w3.org/2000/svg">
    <rect height="26" opacity=".2" rx="3.059" width="26" x="1" y="4"/>
    <path d="M27 9.929 32 6v22l-5-3.929z" opacity=".2"/>
    <rect fill="#1c6bdd" height="26" rx="3.059" width="26" x="1" y="3"/>
    <path d="M4.1 3.42h24.8v24.8H4.1z" fill="none"/>
    <path d="M27 8.929 32 5v22l-5-3.929z" fill="#1f56a8"/>
    <path d="M7 8v17h9.334C18.911 25 21 22.549 21 20c0-1.297-.545-2.564-1.416-3.5C20.455 15.564 21 14.297 21 13c0-2.549-2.089-5-4.666-5zm3 3h6.334C17.23 11 18 12.114 18 13s-.77 2.01-1.666 2H10zm0 7h6.334C17.23 18 18 19.114 18 20s-.77 2.01-1.666 2H10z" opacity=".2"/>
    <g fill="#f4f4f7">
        <path d="M7 14v10h9.333C18.911 24 21 21.549 21 19s-2.09-5-4.667-5zm3 3h6.333C17.23 17 18 18.114 18 19s-.77 2.01-1.667 2H10z"/>
        <path d="M7 7v10h9.333C18.911 17 21 14.549 21 12s-2.09-5-4.667-5zm3 3h6.333C17.23 10 18 11.114 18 12s-.77 2.01-1.667 2H10z"/>
        <path d="M4.059 3A3.052 3.052 0 0 0 1 6.059v1A3.052 3.052 0 0 1 4.059 4H23.94A3.052 3.052 0 0 1 27 7.059v-1A3.052 3.052 0 0 0 23.941 3H4.06zM32 5l-5 3.93v1L32 6z" opacity=".1"/>
    </g>
</svg>
