<svg xmlns="http://www.w3.org/2000/svg" width="32" height="32" version="1">
    <rect fill="#4f4f4f" width="28" height="28" x="2" y="2" rx="1.5" ry="1.5"/>
    <path opacity=".2" d="M5.714 18h8.572c.395 0 .714.319.714.714v8.571a.713.713 0 0 1-.714.715H5.714a.713.713 0 0 1-.715-.714v-8.572c0-.395.319-.714.715-.714zM5.714 6h8.572c.395 0 .714.318.714.714v8.571a.713.713 0 0 1-.714.714H5.714A.713.713 0 0 1 5 15.285V6.714c0-.396.318-.715.714-.715zm12 0h8.571c.396 0 .715.318.715.714v8.571a.713.713 0 0 1-.714.714h-8.571a.713.713 0 0 1-.715-.714V6.714c0-.396.319-.714.714-.714z"/>
    <path fill="#fff" opacity=".1" d="M3.5 2C2.669 2 2 2.669 2 3.5v1C2 3.669 2.669 3 3.5 3h25c.831 0 1.5.669 1.5 1.5v-1c0-.831-.669-1.5-1.5-1.5h-25z"/>
    <path fill="#48aeff" d="M5.714 5h8.572c.395 0 .714.319.714.714v8.572a.713.713 0 0 1-.714.714H5.714A.713.713 0 0 1 5 14.286V5.714C5 5.318 5.318 5 5.714 5zm12 0h8.571c.396 0 .715.319.715.714v8.572a.713.713 0 0 1-.714.714h-8.571a.713.713 0 0 1-.715-.714V5.714c0-.395.319-.714.714-.714zm-12 12h8.572c.395 0 .714.319.714.714v8.571a.713.713 0 0 1-.714.715H5.714A.713.713 0 0 1 5 26.286v-8.572c0-.395.318-.714.714-.714z"/>
    <path opacity=".2" d="M2 28.5v1c0 .831.669 1.5 1.5 1.5h25c.831 0 1.5-.669 1.5-1.5v-1c0 .831-.669 1.5-1.5 1.5h-25c-.831 0-1.5-.669-1.5-1.5z"/>
    <circle fill="#fa6257" cx="23" cy="23" r="8"/>
    <path fill="#fff" d="M23 26.292 19.91 28l.59-3.618L18 21.82l3.455-.528L23 18l1.545 3.292L28 21.82l-2.5 2.562.59 3.618z"/>
    <path opacity=".2" d="M30.979 23.424A8 8 0 0 1 23 31a8 8 0 0 1-7.979-7.424A8 8 0 0 0 15 24a8 8 0 0 0 8 8 8 8 0 0 0 8-8 8 8 0 0 0-.021-.576z"/>
</svg>
