<svg xmlns="http://www.w3.org/2000/svg" width="32" height="32" version="1"><path style="opacity:.2" d="M8.542 3C5.472 3 3 4.766 3 6.96V21h14.042C19.234 21 21 18.529 21 15.458v-1.083C21 11.305 19.234 9 17.042 9H10v3h4.614c1.303 0 2.386.942 2.386 2.112v1.61C17 16.892 15.917 18 14.614 18H9V8h6V6.96C15 4.766 12.65 3 9.579 3z"/><path style="opacity:.2" d="M15.542 31C12.472 31 10 29.235 10 27.042V13h14.042C26.234 13 28 15.471 28 18.542v1.083C28 22.695 26.234 25 24.042 25H17v-3h4.614C22.917 22 24 21.058 24 19.888v-1.61C24 17.108 22.917 16 21.614 16H16v10h6v1.042C22 29.235 19.65 31 16.579 31z"/><path style="fill:#3084e0" d="M8.542 2C5.472 2 3 3.765 3 5.958V20h14.042C19.234 20 21 17.529 21 14.458v-1.083C21 10.305 19.234 8 17.042 8H10v3h4.614c1.303 0 2.386.942 2.386 2.112v1.61C17 15.892 15.917 17 14.614 17H9V7h6V5.958C15 3.765 12.65 2 9.579 2z"/><path style="fill:#f4f4f7;opacity:.2" d="M8.541 2C5.471 2 3 3.766 3 5.959v1C3 4.766 5.47 3 8.541 3h1.037C12.648 3 15 4.766 15 6.959v-1C15 3.766 12.649 2 9.578 2H8.541zM10 8v1h7.041C19.234 9 21 11.305 21 14.375v-1C21 10.305 19.234 8 17.041 8H10zm7 6.72c0 1.17-1.083 2.28-2.387 2.28H9v1h5.613C15.917 18 17 16.892 17 15.723V14.72z"/><path style="opacity:.2" d="M12 4a1 1 0 0 0-1 1 1 1 0 0 0 1 1 1 1 0 0 0 1-1 1 1 0 0 0-1-1z"/><path style="fill:#f4f4f7" d="M12 3a1 1 0 0 0-1 1 1 1 0 0 0 1 1 1 1 0 0 0 1-1 1 1 0 0 0-1-1z"/><path style="fill:#ffa923" d="M15.542 30C12.472 30 10 28.234 10 26.04V12h14.042C26.234 12 28 14.471 28 17.542v1.083C28 21.695 26.234 24 24.042 24H17v-3h4.614C22.917 21 24 20.058 24 18.888v-1.61C24 16.108 22.917 15 21.614 15H16v10h6v1.041C22 28.234 19.65 30 16.579 30z"/><path style="fill:#f4f4f7;opacity:.2" d="M10 12v1h14.041C26.234 13 28 15.47 28 18.541v-1C28 14.471 26.234 12 24.041 12H10zm14 6.889C24 20.059 22.916 21 21.613 21H17v1H21.613C22.916 22 24 21.058 24 19.889v-1zM16 25v1h6v-1h-6z"/><path style="opacity:.2" d="M19 30a1 1 0 0 1-1-1 1 1 0 0 1 1-1 1 1 0 0 1 1 1 1 1 0 0 1-1 1z"/><path style="fill:#f4f4f7" d="M19 29a1 1 0 0 1-1-1 1 1 0 0 1 1-1 1 1 0 0 1 1 1 1 1 0 0 1-1 1z"/><path style="fill:#3084e0" d="M16.63 12c.23.323.37.701.37 1.111v1.61c0 .093-.018.187-.031.279h3.992c.013-.18.039-.355.039-.541v-1.084A7.43 7.43 0 0 0 20.861 12z"/></svg>