<svg height="32" width="32" xmlns="http://www.w3.org/2000/svg"><rect height="25" opacity=".2" rx="1.25" ry="1.389" width="5" x="3" y="4"/><path d="m5.25 6c-.692 0-1.25.47-1.25 1.056v16.888c0 .586.558 1.056 1.25 1.056h20.625c.693 0 1.25-.47 1.25-1.056v-16.888c0-.585-.557-1.056-1.25-1.056zm20 0c-.692 0-1.25.47-1.25 1.056v16.888c0 .585.558 1.056 1.25 1.056h2.5c.692 0 1.25-.47 1.25-1.056v-16.888c0-.586-.558-1.056-1.25-1.056z" fill="#23eeaf"/><rect fill="#ff6801" height="25" rx="1.25" ry="1.389" width="5" x="3" y="3"/><path d="m7.5 25.5v-5h18z" fill="none" stroke="#17191e" stroke-linecap="round" stroke-linejoin="round" stroke-width="3"/><path d="m7.5 24a2.5 2.5 0 1 0 0 5 2.5 2.5 0 0 0 0-5zm0-5a2.5 2.5 0 1 0 0 5 2.5 2.5 0 0 0 0-5zm18 0a2.5 2.5 0 1 0 0 5 2.5 2.5 0 0 0 0-5z" opacity=".2"/><path d="m7.5 23a2.5 2.5 0 1 0 0 5 2.5 2.5 0 0 0 0-5zm0-5a2.5 2.5 0 1 0 0 5 2.5 2.5 0 0 0 0-5zm18 0a2.5 2.5 0 1 0 0 5 2.5 2.5 0 0 0 0-5z" fill="#f4f4f7"/><path d="m4.25 3c-.692 0-1.25.62-1.25 1.389v1c0-.77.558-1.389 1.25-1.389h2.5c.692 0 1.25.62 1.25 1.389v-1c0-.77-.558-1.389-1.25-1.389z" fill="#f4f4f7" opacity=".1"/><path d="m13 18v-3h2v-3h3l2 3v3z" opacity=".2"/><path d="m13 17v-3h2v-3h3l2 3v3z" fill="#06f"/><circle cx="13" cy="18" opacity=".1" r="2"/><circle cx="13" cy="17" fill="#17191e" r="2"/><circle cx="20" cy="18" opacity=".1" r="2"/><circle cx="20" cy="17" fill="#17191e" r="2"/><path d="m17 11v3h3l-2-3z" fill="#17191e"/><path d="m15 11v1h3l2 3v-1l-2-3zm-2 3v1h2v-1z" fill="#f4f4f7" opacity=".2"/></svg>