<svg height="32" width="32" xmlns="http://www.w3.org/2000/svg"><rect height="28" opacity=".2" rx="1.389" ry="1.4" width="25" x="4" y="3"/><rect fill="#4f4f4f" height="28" rx="1.389" ry="1.4" width="25" x="4" y="2"/><path d="m6.553 4a.561.561 0 0 0 -.553.571v7.429h21v-7.429a.561.561 0 0 0 -.553-.571h-16.577z" fill="#68c7ff"/><path d="m6 12v4h21v-4h-17.131z" fill="#ab70ff"/><path d="m6 16v4h21v-4h-17.131z" fill="#ff639c"/><path d="m6 20v4h21v-4h-17.131z" fill="#ffdb49"/><path d="m6 25v3.395c0 .335.246.605.553.605h19.894c.307 0 .553-.27.553-.605v-3.395h-20.447z" opacity=".2"/><path d="m6 24v3.395c0 .335.246.605.553.605h19.894c.307 0 .553-.27.553-.605v-3.395h-20.447z" fill="#c9c9c9"/><path d="m6.553 4a.562.562 0 0 0 -.553.572v1c0-.316.247-.572.553-.572h19.894c.306 0 .553.256.553.572v-1a.562.562 0 0 0 -.553-.572z" fill="#f4f4f7" opacity=".2"/><path d="m6 12h21v1h-21zm0 4h21v1h-21zm0 4h21v1h-21zm0 4h21v1h-21z" opacity=".1"/><path d="m5.389 2c-.77 0-1.389.625-1.389 1.4v1c0-.775.62-1.4 1.389-1.4h22.221c.771 0 1.39.625 1.39 1.4v-1c0-.775-.62-1.4-1.389-1.4h-22.221z" fill="#f4f4f7" opacity=".1"/></svg>