<svg xmlns="http://www.w3.org/2000/svg" width="32" height="32" version="1"><path style="opacity:.2" d="M30 20c0 6-4 10-10 10h-4c-6 0-9.52-3.131-9.918-8H5c-3 0-3-3-3-3v-2c0-3 3-3 3-3h25zM5 16c-1-.065-1.031 1.063-1.031 1.063v2C3.969 20 5 20 5 20h1l-.02-3.969z"/><path style="fill:#f4f4f7" d="M30 19c0 6-4 10-10 10h-4c-6 0-9.52-3.131-9.918-8H5c-3 0-3-3-3-3v-2c0-3 3-3 3-3h25zM5 15c-1-.065-1.031 1.063-1.031 1.063v2C3.969 19 5 19 5 19h1l-.02-3.969z"/><path style="opacity:.2;fill:#f4f4f7" d="M30 13v1H5s-3 0-3 3v-1c0-3 3-3 3-3h25zM3.969 18.063C3.969 19 5 19 5 19h.994L6 20H5s-1.031 0-1.031-.938v-1z"/><path style="opacity:.2" d="M12.387 3c-2.196 2.307-2.856 3.8b9cbe-2.064 4.912.718 1.331 2.576 2.01 1.642 5.088 1.533-1.5 2.75-3.405 1.547-4.941C12.288 6.496 11.617 5.547 12.387 3zm6 0c-2.196 2.307-2.856 3.8b9cbe-2.064 4.912.718 1.331 2.576 2.01 1.642 5.088 1.533-1.5 2.75-3.405 1.547-4.941C18.288 6.496 17.617 5.547 18.387 3zm6 0c-2.196 2.307-2.856 3.8b9cbe-2.064 4.912.718 1.331 2.576 2.01 1.642 5.088 1.533-1.5 2.75-3.405 1.547-4.941C24.288 6.496 23.617 5.547 24.387 3z"/><path style="fill:#956b5f" d="M12.387 2c-2.196 2.307-2.856 3.8b9cbe-2.064 4.912.718 1.331 2.576 2.01 1.642 5.088 1.533-1.5 2.75-3.405 1.547-4.941C12.288 5.496 11.617 4.547 12.387 2zm6 0c-2.196 2.307-2.856 3.8b9cbe-2.064 4.912.718 1.331 2.576 2.01 1.642 5.088 1.533-1.5 2.75-3.405 1.547-4.941C18.288 5.496 17.617 4.547 18.387 2zm6 0c-2.196 2.307-2.856 3.8b9cbe-2.064 4.912.718 1.331 2.576 2.01 1.642 5.088 1.533-1.5 2.75-3.405 1.547-4.941C24.288 5.496 23.617 4.547 24.387 2z"/><path style="opacity:.1;fill:#f4f4f7" d="M12.387 2c-1.857 1.951-2.603 3.066-2.314 4.252.198-.803.897-1.715 2.037-2.94A7.54 7.54 0 0 1 12.387 2zm6 0c-1.857 1.951-2.603 3.066-2.314 4.252.198-.803.897-1.715 2.037-2.94A7.54 7.54 0 0 1 18.387 2zm6 0c-1.857 1.951-2.603 3.066-2.314 4.252.198-.803.897-1.715 2.037-2.94A7.54 7.54 0 0 1 24.387 2zM12.1 4.393c-.164 1.564.443 2.429 1.412 3.666.233.296.351.609.418.927.145-.668.053-1.326-.418-1.927-.743-.95-1.275-1.675-1.412-2.666zm6 0c-.164 1.564.443 2.429 1.412 3.666.233.296.351.609.418.927.145-.668.053-1.326-.418-1.927-.743-.95-1.275-1.675-1.412-2.666zm6 0c-.164 1.564.443 2.429 1.412 3.666.233.296.351.609.418.927.145-.668.053-1.326-.418-1.927-.743-.95-1.275-1.675-1.412-2.666zm-11.918 6.605A6.044 6.044 0 0 1 11.965 12c.08-.077.152-.16.229-.238.02-.277.02-.534-.012-.764zm6 0A6.044 6.044 0 0 1 17.965 12c.08-.077.152-.16.229-.238.02-.277.02-.534-.012-.764zm6 0A6.044 6.044 0 0 1 23.965 12c.08-.077.152-.16.229-.238.02-.277.02-.534-.012-.764z"/></svg>