<svg xmlns="http://www.w3.org/2000/svg" width="32" height="32"><rect style="opacity:.2" width="28" height="28" x="2" y="3" rx="2.1" ry="2.1"/><rect style="fill:#5c666b" width="28" height="28" x="2" y="2" rx="2.1" ry="2.1"/><path style="opacity:.2" d="M16 10a.5.5 0 0 0-.426.24l-5.078 8.31-2.072-3.316A.5.5 0 0 0 8 15H6.5c-.676-.01-.676 1.01 0 1h1.223l2.353 3.766a.5.5 0 0 0 .85-.006L16.28 11H24v.5c-.01.676 1.01.676 1 0v-1a.5.5 0 0 0-.5-.5zm6.492 2.992A.5.5 0 0 0 22 13.5v.555A3.5 3.5 0 0 0 19.5 13a3.5 3.5 0 1 0 2.5 5.95v.55c-.01.676 1.01.676 1 0v-6a.5.5 0 0 0-.508-.508zM19.5 14a2.5 2.5 0 1 1 0 5 2.5 2.5 0 0 1 0-5zm-13 7c-.676-.01-.676 1.01 0 1h19c.676.01.676-1.01 0-1zm9 2c-.676-.01-.676 1.01 0 1h1c.676.01.676-1.01 0-1z"/><path style="fill:#f4f4f7" d="M16 9a.5.5 0 0 0-.426.24l-5.078 8.31-2.072-3.316A.5.5 0 0 0 8 14H6.5c-.676-.01-.676 1.01 0 1h1.223l2.353 3.766a.5.5 0 0 0 .85-.006L16.28 10H24v.5c-.01.676 1.01.676 1 0v-1a.5.5 0 0 0-.5-.5zm6.492 2.992A.5.5 0 0 0 22 12.5v.555A3.5 3.5 0 0 0 19.5 12a3.5 3.5 0 1 0 2.5 5.95v.55c-.01.676 1.01.676 1 0v-6a.5.5 0 0 0-.508-.508zM19.5 13a2.5 2.5 0 1 1 0 5 2.5 2.5 0 0 1 0-5zm-13 7c-.676-.01-.676 1.01 0 1h19c.676.01.676-1.01 0-1zm9 2c-.676-.01-.676 1.01 0 1h1c.676.01.676-1.01 0-1z"/><path style="fill:#f4f4f7;opacity:.1" d="M4.1 2C2.936 2 2 2.936 2 4.1v1C2 3.936 2.936 3 4.1 3h23.8c1.164 0 2.1.936 2.1 2.1v-1c0-1.164-.936-2.1-2.1-2.1H4.1z"/></svg>