<svg width="32" height="32" xmlns="http://www.w3.org/2000/svg"><path d="M9 9v17" style="fill:none;stroke-linecap:round;stroke-width:4;stroke:#885e3d"/><path d="M8.97 7.972A2 2 0 0 0 7 10v17a2 2 0 1 0 4 0V10a2 2 0 0 0-2.03-2.028z" style="opacity:.2"/><path d="M23 26V9" style="fill:none;stroke-linecap:round;stroke-width:4;stroke:#885e3d"/><path d="M16 2a2 2 0 0 0-2 2v2h4V4a2 2 0 0 0-2-2z" style="fill:#c29875"/><path d="M22.97 7.972A2 2 0 0 0 21 10v17a2 2 0 1 0 4 0V10a2 2 0 0 0-2.03-2.028z" style="opacity:.2"/><path d="M17 7s1-2 3-2c3.554 0 4 2 6 3s4 1 4 1-4 1-7 1-6-3-6-3z" style="opacity:.2"/><path d="M17 6s1-2 3-2c3.554 0 4 2 6 3s4 1 4 1-4 1-7 1-6-3-6-3z" style="fill:#73873a"/><path d="M6 24a2 2 0 1 0 0 4h20a2 2 0 1 0 0-4z" style="opacity:.2"/><path d="M26 25H6" style="fill:none;stroke-linecap:round;stroke-linejoin:round;stroke-width:4;stroke:#c29875"/><path d="M6 23a2 2 0 0 0-1.963 2.5A2 2 0 0 1 6 24h20a2 2 0 0 1 1.963 1.5A2 2 0 0 0 26 23H6z" style="fill:#f4f4f7;opacity:.2"/><path d="M6 12a2 2 0 1 0 0 4h20a2 2 0 1 0 0-4zM15 7s-1-2-3-2C8.446 5 8 7 6 8S2 9 2 9s4 1 7 1 6-3 6-3z" style="opacity:.2"/><path d="M20 4c-2 0-3 2-3 2s.196.183.414.377C17.881 5.79 18.742 5 20 5c3.554 0 4 2 6 3 .462.231.922.404 1.36.541C28.86 8.277 30 8 30 8s-2 0-4-1-2.446-3-6-3z" style="fill:#f4f4f7;opacity:.1"/><path d="M15 6s-1-2-3-2C8.446 4 8 6 6 7S2 8 2 8s4 1 7 1 6-3 6-3z" style="fill:#73873a"/><path d="M12 4C8.446 4 8 6 6 7S2 8 2 8s1.14.277 2.64.541c.438-.137.898-.31 1.36-.541 2-1 2.446-3 6-3 1.258 0 2.12.79 2.586 1.377C14.804 6.183 15 6 15 6s-1-2-3-2z" style="fill:#f4f4f7;opacity:.1"/><path d="M11.97 23.988a1 1 0 0 0-.898.64l-2 5a1 1 0 1 0 1.856.743l2-5a1 1 0 0 0-.957-1.383z" style="opacity:.2"/><path d="M6 13h20" style="fill:none;stroke-linecap:round;stroke-linejoin:round;stroke-width:4;stroke:#c29875"/><path d="M6 11a2 2 0 0 0-1.963 2.5A2 2 0 0 1 6 12h20a2 2 0 0 1 1.963 1.5A2 2 0 0 0 26 11H6z" style="fill:#f4f4f7;opacity:.2"/><path d="M16 5s7 2 7 4c-4 2-7 5-7 5s-3-3-7-5c0-2 7-4 7-4zM20 23.986a1 1 0 0 0-.928 1.385l2 5a1 1 0 1 0 1.856-.743l-2-5a1 1 0 0 0-.928-.642z" style="opacity:.2"/><path d="M16 4s7 2 7 4c-4 2-7 5-7 5s-3-3-7-5c0-2 7-4 7-4z" style="fill:#95b634"/><path d="m12 24-2 5M20 24l2 5" style="fill:none;stroke-linecap:round;stroke-linejoin:round;stroke-width:2;stroke:#e1b793"/><path d="M12 17v7l-1 3v2h10v-2l-1-3v-7z" style="opacity:.2"/><path style="fill:#c29875" d="M12 16h8v7h-8z"/><path d="m12 23-1 3h10l-1-3z" style="fill:#885e3d"/><path style="fill:#c29875" d="M11 26h10v2H11z"/><path d="M12 16v1h8v-1h-8zM16 2a2 2 0 0 0-2 2v1a2 2 0 0 1 4 0V4a2 2 0 0 0-2-2z" style="fill:#f4f4f7;opacity:.2"/><path d="M16 4S9 6 9 8c.123.062.236.132.357.195C10.772 6.497 16 5 16 5s5.228 1.497 6.643 3.195c.121-.063.234-.133.357-.195 0-2-7-4-7-4z" style="fill:#f4f4f7;opacity:.2"/></svg>