<svg xmlns="http://www.w3.org/2000/svg" width="32" height="32" version="1"><rect fill="#2095f2" width="28" height="28" x="2" y="2" rx="1.5" ry="1.5"/><path fill="#fff" opacity=".1" d="M3.5 2C2.669 2 2 2.669 2 3.5v1C2 3.669 2.669 3 3.5 3h25c.831 0 1.5.669 1.5 1.5v-1c0-.831-.669-1.5-1.5-1.5h-25z"/><path opacity=".2" d="M2 28.5v1c0 .831.669 1.5 1.5 1.5h25c.831 0 1.5-.669 1.5-1.5v-1c0 .831-.669 1.5-1.5 1.5h-25c-.831 0-1.5-.669-1.5-1.5z"/><path style="opacity:.2" d="M22.201 7.557a23.852 23.852 0 0 1-1.594 3.445h-5.544v2h1.974v2.826c0 .456-.025.769-.076 1.174H15v2h1.809c-.304 2.684-1.342 4.543-3.114 5.86L15.26 26c2.076-1.52 3.29-3.758 3.644-6.998H22v6.922h2v-6.922h2v-2h-2v-4h2v-2h-3.799c.557-.86 1.115-1.876 1.672-2.99zm-4.556.226-1.52.457a7.98 7.98 0 0 1 1.291 2.43l1.596-.531a7.348 7.348 0 0 0-1.367-2.354zM10 8.002v3H7v2h3v3.96c-.962.406-1.886.81-3 1.216l.531 1.595c.912-.354 1.659-.708 2.469-1.062v4.785c0 .608-.112.91-.365.91-.71 0-1.293-.1-1.951-.302l.302 1.593a8.127 8.127 0 0 0 1.975.229c.607 0 1.385-.152 1.639-.455.253-.304.4-.837.4-1.596v-5.924l2.135-1.064-.229-1.367v-.002c-.658.303-1.248.483-1.906.837v-3.353h2v-2h-2v-3zm9.057 5H22v4h-3.02c.051-.354.077-.593.077-.947z"/><path style="fill:#f4f4f7" d="M22.201 6.555A23.852 23.852 0 0 1 20.607 10h-5.544v2h1.974v2.826c0 .456-.025.769-.076 1.174H15v2h1.809c-.304 2.684-1.342 4.543-3.114 5.86l1.565 1.138c2.076-1.519 3.29-3.758 3.644-6.998H22v6.922h2V18h2v-2h-2v-4h2v-2h-3.799c.557-.86 1.115-1.876 1.672-2.99zm-4.556.226-1.52.457a7.98 7.98 0 0 1 1.291 2.43l1.596-.531a7.348 7.348 0 0 0-1.367-2.354zM10 7v3H7v2h3v3.96c-.962.406-1.886.81-3 1.216l.531 1.595c.912-.354 1.659-.708 2.469-1.062v4.785c0 .608-.112.91-.365.91-.71 0-1.293-.1-1.951-.302l.302 1.593a8.127 8.127 0 0 0 1.975.229c.607 0 1.385-.151 1.639-.455.253-.304.4-.836.4-1.596v-5.924l2.135-1.064-.229-1.367v-.002c-.658.303-1.248.483-1.906.838V12h2v-2h-2V7zm9.057 5H22v4h-3.02c.051-.354.077-.593.077-.947z"/></svg>