<svg height="32" width="32" xmlns="http://www.w3.org/2000/svg"><rect height="29" opacity=".2" rx="1.45" transform="matrix(0 -1 -1 0 0 0)" width="29" x="-31" y="-30"/><rect fill="#435ece" height="29" rx="1.45" transform="matrix(0 -1 -1 0 0 0)" width="29" x="-30" y="-30"/><path d="m2.45 1c-.805 0-1.45.646-1.45 1.45v1c0-.805.646-1.45 1.45-1.45h26.1c.804 0 1.45.646 1.45 1.45v-1c0-.805-.646-1.45-1.45-1.45z" fill="#f4f4f7" opacity=".1"/><path d="m15.5 7c-3.205 0-5.801 2.796-5.801 6h2.9c0-1.595 1.306-3.1 2.9-3.1a2.91 2.91 0 0 1 2.901 2.9c0 .798-.319 1.522-.855 2.044l-1.8 1.828a5.835 5.835 0 0 0 -1.694 4.103v.225h2.92c.097-1.807.717-2.632 1.675-3.604l1.305-1.334a4.613 4.613 0 0 0 1.35-3.261 5.8 5.8 0 0 0 -5.801-5.801zm-1.5 17v3h3v-3z" opacity=".2"/><path d="m15.5 6c-3.205 0-5.801 2.796-5.801 6h2.9c0-1.595 1.306-3.1 2.9-3.1a2.91 2.91 0 0 1 2.901 2.9c0 .798-.319 1.522-.855 2.044l-1.8 1.828a5.835 5.835 0 0 0 -1.694 4.103v.225h2.92c.097-1.807.717-2.632 1.675-3.604l1.305-1.334a4.613 4.613 0 0 0 1.35-3.261 5.8 5.8 0 0 0 -5.801-5.801zm-1.5 17v3h3v-3z" fill="#f4f4f7"/></svg>