<svg xmlns="http://www.w3.org/2000/svg" width="32" height="32"><path style="opacity:.2" d="M16 3v7H9l-7 7h7v7l7 7v-7h7l7-7h-7v-7z"/><path style="fill:#fec006" d="M16 16H2l7-7h7"/><path style="fill:#f34235" d="M16 16V2l7 7v7"/><path style="fill:#4bae4f" d="M9 16v7l7 7V16"/><path style="fill:#2095f2" d="M16 16h14l-7 7h-7"/><path style="opacity:.2;fill:#f4f4f7" d="m16 16 1 1h12l1-1H16z"/><path style="fill:#9c27b0" d="m16 16 7-7v7z"/><path style="fill:#1ea362" d="m16 16-7 7v-7z"/><path style="fill:#3e50b4" d="m23 23-7-7v7z"/><path style="fill:#fe9700" d="m9 9 7 7V9z"/><path style="opacity:.2;fill:#f4f4f7" d="M16 2v1l7 7V9l-7-7zM9 9l-7 7h1l6-6h7V9H9z"/><path style="opacity:.2" d="m16 13-1.25 2.75L12 17l2.75 1.25L16 21l1.25-2.75L20 17l-2.75-1.25z"/><path style="fill:#f4f4f7" d="m16 12-1.25 2.75L12 16l2.75 1.25L16 20l1.25-2.75L20 16l-2.75-1.25z"/><path style="fill:#ebebeb" d="m12 16 2.75 1.25L16 20v-4z"/><path style="fill:#dfdfdf" d="m20 16-2.75 1.25L16 20v-4z"/></svg>