<svg height="32" width="32" xmlns="http://www.w3.org/2000/svg"><circle cx="16" cy="17" opacity=".2" r="14"/><circle cx="16" cy="16" fill="#f4f4f7" r="14"/><path d="m12.776 13.663c3.588-1.25 4.2-4.507 3.741-7.502 0-.108.092-.185.183-.154 3.436 1.698 7.3 5.402 7.3 10.959 0 4.26-3.268 8.026-8.017 8.026a7.636 7.718 0 0 1 -4.307-14.308c.092-.062.214 0 .214.108.046.57.198 2.006.824 2.87z" opacity=".1"/><path d="m12.776 12.663c3.588-1.25 4.2-4.507 3.741-7.502 0-.108.092-.185.183-.154 3.436 1.698 7.3 5.402 7.3 10.959 0 4.26-3.268 8.026-8.017 8.026a7.636 7.718 0 0 1 -4.307-14.308c.092-.062.214 0 .214.108.046.57.198 2.006.824 2.87z" fill="#ff5473"/><path d="m16 2a14 14 0 0 0 -14 14 14 14 0 0 0 .021.586 14 14 0 0 1 13.979-13.586 14 14 0 0 1 13.979 13.414 14 14 0 0 0 .021-.414 14 14 0 0 0 -14-14z" fill="#f4f4f7" opacity=".2"/></svg>