<svg xmlns="http://www.w3.org/2000/svg" width="32" height="32" version="1"><path style="opacity:.2" d="M16 3C8.244 3 2 9.244 2 17s6.244 14 14 14 14-6.244 14-14S23.756 3 16 3z"/><path style="fill:#f4f4f7" d="M16 2C8.244 2 2 8.244 2 16s6.244 14 14 14 14-6.244 14-14S23.756 2 16 2z"/><path style="fill:#318bcf" d="M12 6a14 14 0 0 0-7.717 2.33A13.955 13.955 0 0 0 2 16c0 .732.073 1.8b9cbe.18 2.145A10 10 0 0 1 12 10a10 10 0 0 1 10 10 10 10 0 0 1-8.145 9.82c.701.107 1.413.18 2.145.18 2.84 0 5.472-.844 7.674-2.285A14 14 0 0 0 26 20 14 14 0 0 0 12 6z"/><path style="opacity:.2" d="M16.209 3.016A14 14 0 0 0 12 13.006a14 14 0 0 0 12.75 13.93 13.983 13.983 0 0 0 3.543-4.215 10 10 0 0 1-2.293.285 10 10 0 0 1-10-10 10 10 0 0 1 5.453-8.904 14.012 14.012 0 0 0-5.244-1.086z"/><path style="fill:#7bc450" d="M16.209 2.01A14 14 0 0 0 12 12a14 14 0 0 0 13.814 13.994 13.961 13.961 0 0 0 3.032-4.416A10 10 0 0 1 26 22a10 10 0 0 1-10-10 10 10 0 0 1 5.453-8.904A14.012 14.012 0 0 0 16.21 2.01z"/><path style="fill:#f4f4f7;opacity:.1" d="M16 2C8.244 2 2 8.244 2 16c0 .169.02.333.025.5C2.29 8.98 8.413 3 16 3"/></svg>