<svg height="64" width="64" xmlns="http://www.w3.org/2000/svg">
    <filter id="c" color-interpolation-filters="sRGB" height="1.114" width="1.126" x="-.063" y="-.057">
        <feGaussianBlur stdDeviation=".739"/>
    </filter>
    <filter id="a" color-interpolation-filters="sRGB" height="1.054" width="1.054" x="-.027" y="-.027">
        <feGaussianBlur stdDeviation=".619"/>
    </filter>
    <linearGradient id="b" gradientUnits="userSpaceOnUse" x1="4.5" x2="59.5" y1="59.49" y2="4.49">
        <stop offset="0" stop-color="#dee0e2"/>
        <stop offset="1" stop-color="#f1f3f5" stop-opacity=".996"/>
    </linearGradient>
    <linearGradient id="d" gradientUnits="userSpaceOnUse" x1="16.174" x2="43.826" y1="24.203" y2="24.203">
        <stop offset="0" stop-color="#ff0ae7"/>
        <stop offset="1" stop-color="#ffb814"/>
    </linearGradient>
    <linearGradient id="e" gradientTransform="rotate(2.377 118.86 41.374)" gradientUnits="userSpaceOnUse" x1="15.938" x2="44.062" y1="44.845" y2="44.845">
        <stop offset="0" stop-color="#8638fd"/>
        <stop offset="1" stop-color="#4ec2fa"/>
    </linearGradient>
    <rect fill="#141414" filter="url(#a)" height="55" opacity=".3" ry="15" width="55" x="4.5" y="4.5"/>
    <rect fill="url(#b)" height="55" ry="15" width="55" x="4.5" y="4.5"/>
    <g filter="url(#c)" opacity=".25" transform="translate(-2.839 -4.58) scale(1.1613)">
        <path d="M30 16 16.174 27.549l4.223 4.857L30 24.385l9.604 8.021 4.222-4.857zM39.539 35.706a11 11 0 0 1-9.86 5.285 11 11 0 0 1-8.941-5.285l-4.803 3.616a17 17 0 0 0 13.495 7.664 17 17 0 0 0 14.635-7.245z" opacity="1"/>
    </g>
    <path d="M30 16 16.174 27.549l4.223 4.857L30 24.385l9.604 8.021 4.222-4.857z" fill="url(#d)" transform="translate(-2.839 -4.58) scale(1.1613)"/>
    <path d="M39.539 35.706a11 11 0 0 1-9.86 5.285 11 11 0 0 1-8.941-5.285l-4.803 3.616a17 17 0 0 0 13.495 7.664 17 17 0 0 0 14.635-7.245z" fill="url(#e)" transform="translate(-2.839 -4.58) scale(1.1613)"/>
</svg>
