<svg height="32" viewBox="0 0 32 32" width="32" xmlns="http://www.w3.org/2000/svg"><g transform="translate(0 -282.64999)"><path d="m16 283.65003c8.31 0 15 6.68984 15 14.99992 0 8.30994-6.69 15-15 15-8.309999 0-15-6.69006-15-15 0-8.31008 6.690001-14.99992 15-14.99992z" fill="#36404d"/><path d="m16.000001 284.64998c7.755999 0 13.999999 6.24393 13.999999 13.99997 0 7.75605-6.244 14.00009-13.999999 14.00009-7.756001 0-14.000001-6.24404-14.000001-14.00009 0-7.75604 6.244-13.99997 14.000001-13.99997z" fill="#4b6477"/><path d="m16.000001 286.64999c6.647984 0 11.999971 5.35193 11.999971 11.99996 0 6.648-5.351987 12.00004-11.999971 12.00004-6.6479859 0-11.999973-5.35204-11.999973-12.00004 0-6.64803 5.3519871-11.99996 11.999973-11.99996z" fill="#f1f1f1"/><path d="m15.999999 299.65005c.554 0 1 .44598 1 .99998v6c0 .55401-.446 1.00003-1 1.00003s-1-.44602-1-1.00003v-6c0-.554.446-.99998 1-.99998z" fill="#f78f8f"/><path d="m15.999999 288.65c-.554 0-.999999.44599-.999999.99999v6.18164c-1.164689.41156-2.000001 1.50928-2.000001 2.81836 0 1.66201 1.338 3 3 3 1.309083 0 2.406799-.83531 2.818359-1.99998h4.181641c.554 0 1-.44602 1-1.00002s-.446-.99999-1-.99999h-4.181641c-.300608-.85069-.96766-1.51774-1.818359-1.81837v-6.18164c0-.554-.445999-.99999-1-.99999zm0 9c.554001 0 1 .44599 1 .99999s-.445999 1.00002-1 1.00002c-.554 0-.999999-.44602-.999999-1.00002s.445999-.99999.999999-.99999z" fill="#36404d"/></g></svg>