<svg height="32" width="32" xmlns="http://www.w3.org/2000/svg">
    <circle cx="16" cy="17" opacity=".2" r="14"/>
    <circle cx="16" cy="16" fill="#00c1e2" r="14"/>
    <path d="M1.8 17.8h2.338s.365 1.5.802 1.5c.588 0 .378-3.532 1.085-3.531.706.001.236 4.655 1.32 4.531C8.43 20.176 8.19 7.7 9.28 7.7s.76 18.51 2.122 18.5c1.363-.01.371-16.4 1.604-16.4s.921 15.51 2.217 15.5c1.295-.01.617-13.6 1.698-13.6 1.08 0 .44 11.578 1.934 11.6 1.492.022.605-9.5 1.886-9.5s.523 7.484 1.84 7.5c1.316.016.519-5.485 1.415-5.547.895-.062.653 3.504 1.509 3.547s.71-2.5 1.132-2.5c.42 0 .694 1.95 1.132 1.95.52 0 1.133-.95 1.133-.95H30.2" style="opacity:.2;fill:none;stroke:#000;stroke-width:1.5;stroke-linecap:round;stroke-linejoin:round"/>
    <path d="M1.8 16.8h2.338s.365 1.5.802 1.5c.588 0 .378-3.532 1.085-3.531.706.001.236 4.655 1.32 4.531C8.43 19.176 8.19 6.7 9.28 6.7s.76 18.51 2.122 18.5c1.363-.01.371-16.4 1.604-16.4s.921 15.51 2.217 15.5c1.295-.01.617-13.6 1.698-13.6 1.08 0 .44 11.578 1.934 11.6 1.492.022.605-9.5 1.886-9.5s.523 7.484 1.84 7.5c1.316.016.519-5.485 1.415-5.547.895-.062.653 3.504 1.509 3.547s.71-2.5 1.132-2.5c.42 0 .694 1.95 1.132 1.95.52 0 1.133-.95 1.133-.95H30.2" fill="none" stroke="#f4f4f7" stroke-linecap="round" stroke-linejoin="round" stroke-width="1.5"/>
    <path d="M16 2A14 14 0 0 0 2 16a14 14 0 0 0 .021.586A14 14 0 0 1 16 3a14 14 0 0 1 13.979 13.414A14 14 0 0 0 30 16 14 14 0 0 0 16 2z" fill="#f4f4f7" opacity=".2"/>
</svg>
