<svg height="32" width="32" xmlns="http://www.w3.org/2000/svg"><rect height="28" opacity=".2" rx="1.4" width="28" x="2" y="3"/><rect fill="#ca1e1e" height="28" rx="1.4" width="28" x="2" y="2"/><path d="m8 6a3 3 0 0 0 -3 3 3 3 0 0 0 3 3 3 3 0 0 0 3-3 3 3 0 0 0 -3-3zm16 0a3 3 0 0 0 -3 3 3 3 0 0 0 3 3 3 3 0 0 0 3-3 3 3 0 0 0 -3-3zm-8 8a3 3 0 0 0 -3 3 3 3 0 0 0 3 3 3 3 0 0 0 3-3 3 3 0 0 0 -3-3zm-8 8a3 3 0 0 0 -3 3 3 3 0 0 0 3 3 3 3 0 0 0 3-3 3 3 0 0 0 -3-3zm16 0a3 3 0 0 0 -3 3 3 3 0 0 0 3 3 3 3 0 0 0 3-3 3 3 0 0 0 -3-3z" opacity=".2"/><g fill="#ffb0b0"><circle cx="8" cy="8" r="3"/><circle cx="16" cy="16" r="3"/><circle cx="8" cy="24" r="3"/><circle cx="24" cy="8" r="3"/><circle cx="24" cy="24" r="3"/></g><path d="m3.4 2c-.775 0-1.4.625-1.4 1.4v1c0-.775.625-1.4 1.4-1.4h25.2c.775 0 1.4.625 1.4 1.4v-1c0-.775-.625-1.4-1.4-1.4z" fill="#f4f4f7" opacity=".2"/><path d="m8 5a3 3 0 0 0 -3 3 3 3 0 0 0 .043.486 3 3 0 0 1 2.957-2.486 3 3 0 0 1 2.957 2.514 3 3 0 0 0 .043-.514 3 3 0 0 0 -3-3zm16 0a3 3 0 0 0 -3 3 3 3 0 0 0 .043.486 3 3 0 0 1 2.957-2.486 3 3 0 0 1 2.957 2.514 3 3 0 0 0 .043-.514 3 3 0 0 0 -3-3zm-8 8a3 3 0 0 0 -3 3 3 3 0 0 0 .043.486 3 3 0 0 1 2.957-2.486 3 3 0 0 1 2.957 2.514 3 3 0 0 0 .043-.514 3 3 0 0 0 -3-3zm-8 8a3 3 0 0 0 -3 3 3 3 0 0 0 .043.486 3 3 0 0 1 2.957-2.486 3 3 0 0 1 2.957 2.514 3 3 0 0 0 .043-.514 3 3 0 0 0 -3-3zm16 0a3 3 0 0 0 -3 3 3 3 0 0 0 .043.486 3 3 0 0 1 2.957-2.486 3 3 0 0 1 2.957 2.514 3 3 0 0 0 .043-.514 3 3 0 0 0 -3-3z" fill="#f4f4f7" opacity=".2"/></svg>