<svg xmlns="http://www.w3.org/2000/svg" width="32" height="32"><rect style="opacity:.2" width="22.615" height="18" x="-29" y="-25" rx="1.346" ry="1.406" transform="matrix(0 -1 -1 0 0 0)"/><rect style="fill:#8e8e8e" width="22.615" height="18" x="-28" y="-25" rx="1.346" ry="1.406" transform="matrix(0 -1 -1 0 0 0)"/><rect style="opacity:.2" width="22" height="28" x="-26" y="-30" rx="1.375" ry="1.346" transform="matrix(0 -1 -1 0 0 0)"/><rect style="fill:#4f4f4f" width="22" height="28" x="-25" y="-30" rx="1.375" ry="1.346" transform="matrix(0 -1 -1 0 0 0)"/><rect style="fill:#333" width="18" height="24" x="-23" y="-28" rx="0" ry="0" transform="matrix(0 -1 -1 0 0 0)"/><path style="fill:#303f9f" d="M4 17.855V23h5.246z"/><path style="fill:#2357cd" d="M4 12.65v5.205L9.246 23h5.306z"/><path style="fill:#9844e8" d="M4 7.446v5.205L14.552 23h5.306z"/><path style="fill:#f845c5" d="M4 5v2.446L19.858 23h5.307L6.811 5z"/><path style="fill:#ffb86c" d="m6.811 5 18.354 18H28v-2.423L12.118 5z"/><path style="fill:#359435" d="M12.118 5 28 20.577v-5.205L17.424 5z"/><path style="fill:#17aab6" d="M17.424 5 28 15.372v-5.204L22.73 5z"/><path style="fill:#1bbcff" d="M22.73 5 28 10.168V5z"/><path style="opacity:.2" d="m21.193 8.01-.49.13a.255.255 0 0 0-.18.311l.262.983a.255.255 0 0 0 .313.18l.49-.132a.255.255 0 0 0 .18-.312l-.264-.98a.252.252 0 0 0-.31-.18zm2.426.318a.254.254 0 0 0-.154.12l-.508.878a.255.255 0 0 0 .092.348l.441.254c.122.07.275.028.346-.094l.508-.879a.254.254 0 0 0-.092-.348l-.44-.253a.254.254 0 0 0-.193-.026zm-4.857 1.3a.254.254 0 0 0-.155.12l-.253.44a.255.255 0 0 0 .091.347l.881.508c.122.07.275.03.346-.092l.256-.441a.252.252 0 0 0-.094-.346l-.88-.508a.25.25 0 0 0-.192-.027zM22 10c-1.098 0-2 .902-2 2 0 1.098.902 2 2 2 1.098 0 2-.902 2-2 0-1.098-.902-2-2-2zm3.549.523-.983.264a.252.252 0 0 0-.18.31l.134.493a.255.255 0 0 0 .31.178l.983-.262a.255.255 0 0 0 .18-.31l-.134-.493a.255.255 0 0 0-.31-.18zm-6.38 1.71-.982.263a.252.252 0 0 0-.18.31l.134.49a.252.252 0 0 0 .31.18l.98-.261a.255.255 0 0 0 .18-.313l-.13-.49a.255.255 0 0 0-.311-.18zm5.311.699a.254.254 0 0 0-.154.119l-.254.44a.255.255 0 0 0 .094.347l.879.508c.122.07.277.028.348-.094l.253-.44a.254.254 0 0 0-.093-.347l-.88-.508a.254.254 0 0 0-.193-.025zm-4.164 1.115a.254.254 0 0 0-.154.119l-.508.88a.25.25 0 0 0 .094.347l.44.253c.122.07.277.03.347-.091l.508-.881a.252.252 0 0 0-.094-.346l-.44-.256a.254.254 0 0 0-.193-.025zm2.586.342-.492.13a.255.255 0 0 0-.178.311l.262.983a.255.255 0 0 0 .313.18l.49-.132a.255.255 0 0 0 .18-.312l-.264-.98a.252.252 0 0 0-.31-.18zM9.5 15a3.5 3.5 0 1 0 3.445 2.883 2.376 2.376 0 1 1-2.828-2.828A3.528 3.528 0 0 0 9.5 15z"/><path style="fill:#f4f4f7" d="M22 9c-1.098 0-2 .902-2 2 0 1.098.902 2 2 2 1.098 0 2-.902 2-2 0-1.098-.902-2-2-2zM23.812 7.354l.44.254c.122.07.163.225.093.347l-.508.88a.253.253 0 0 1-.347.093l-.44-.254a.254.254 0 0 1-.093-.347l.508-.88a.253.253 0 0 1 .347-.093zm-3.302 5.72.44.253c.122.07.163.225.093.347l-.508.88a.253.253 0 0 1-.347.093l-.44-.254a.254.254 0 0 1-.093-.347l.508-.88a.253.253 0 0 1 .347-.093zm.193-5.933.49-.131a.254.254 0 0 1 .311.18l.263.98a.254.254 0 0 1-.18.311l-.49.132a.254.254 0 0 1-.311-.18l-.263-.98a.254.254 0 0 1 .18-.312zm1.708 6.38.491-.133a.254.254 0 0 1 .311.18l.264.981a.254.254 0 0 1-.18.311l-.491.131a.254.254 0 0 1-.311-.18l-.263-.98a.254.254 0 0 1 .18-.312zm-4.27-1.224-.132-.49a.254.254 0 0 1 .18-.311l.98-.263a.254.254 0 0 1 .312.18l.131.49a.254.254 0 0 1-.18.311l-.98.263a.254.254 0 0 1-.312-.18zm6.378-1.708-.132-.491a.254.254 0 0 1 .18-.311l.98-.263a.254.254 0 0 1 .312.18l.132.49a.254.254 0 0 1-.18.312l-.981.262a.254.254 0 0 1-.311-.18zm1.127 2.223-.254.44a.253.253 0 0 1-.347.093l-.88-.508a.254.254 0 0 1-.093-.347l.254-.44a.253.253 0 0 1 .347-.093l.88.509c.122.07.164.224.093.346zm-5.72-3.302-.253.44a.253.253 0 0 1-.347.093l-.88-.508a.254.254 0 0 1-.093-.347l.254-.44a.253.253 0 0 1 .347-.093l.88.508c.122.07.163.225.093.347zM9.5 14a3.5 3.5 0 1 0 3.445 2.883 2.376 2.376 0 1 1-2.828-2.828A3.528 3.528 0 0 0 9.5 14zm0 0"/><path style="opacity:.1;fill:#f4f4f7" d="M4 23h24v1H4z"/><path style="fill:#f4f4f7;opacity:.1" d="M3.346 3C2.6 3 2 3.613 2 4.375v1C2 4.613 2.6 4 3.346 4h25.308C29.4 4 30 4.613 30 5.375v-1C30 3.613 29.4 3 28.654 3H3.346z"/></svg>