<svg height="32" width="32" xmlns="http://www.w3.org/2000/svg">
    <rect height="25" opacity=".2" rx="1.25" transform="matrix(0 -1 -1 0 0 0)" width="25" x="-30" y="-28"/>
    <rect fill="#309b30" height="25" rx="1.25" transform="matrix(0 -1 -1 0 0 0)" width="25" x="-29" y="-28"/>
    <path d="M3 19.278v8.471C3 28.442 3.558 29 4.25 29h22.5c.692 0 1.25-.558 1.25-1.25v-8.472z" opacity=".25"/>
    <path d="M1.75 3c-.415 0-.75.308-.75.691V21h12v7.297c0 .39.372.703.834.703h3.332c.462 0 .834-.314.834-.703V21h12V3.691c0-.383-.334-.691-.75-.691h-1.5c-.416 0-.75.308-.75.691V17h-9V3.703c0-.39-.372-.703-.834-.703h-3.332c-.462 0-.834.314-.834.703V17H4V3.691C4 3.308 3.666 3 3.25 3z" opacity=".2"/>
    <g fill="#ffa402">
        <rect height="18" rx=".75" ry=".692" width="3" x="1" y="2"/>
        <rect height="18" rx=".75" ry=".692" width="3" x="27" y="2"/>
        <path d="M30 16v4H1v-4z"/>
        <rect height="26" rx=".833" ry=".703" transform="scale(-1)" width="5" x="-18" y="-28"/>
    </g>
    <path d="M1.75 2c-.415 0-.75.308-.75.691v1C1 3.308 1.335 3 1.75 3h1.5c.416 0 .75.308.75.691v-1C4 2.308 3.666 2 3.25 2zm12.084 0c-.462 0-.834.314-.834.703v1c0-.39.372-.703.834-.703h3.332c.462 0 .834.314.834.703v-1c0-.39-.372-.703-.834-.703zM27.75 2c-.416 0-.75.308-.75.691v1c0-.383.334-.691.75-.691h1.5c.416 0 .75.308.75.691v-1c0-.383-.334-.691-.75-.691zM4 16v1h9v-1zm14 0v1h9v-1z" fill="#f4f4f7" opacity=".2"/>
    <rect height="13" opacity=".2" rx="1.8" width="13" x="9" y="13"/>
    <rect fill="#ffdc2f" height="13" rx="1.8" width="13" x="9" y="12"/>
    <path d="M13 15h5v4h-5zm1 4h3v4h-3z" fill="#17191e"/>
    <path d="M10.445 12C9.645 12 9 12.645 9 13.445v1c0-.8.645-1.445 1.445-1.445h10.11c.8 0 1.445.645 1.445 1.445v-1c0-.8-.645-1.445-1.445-1.445z" fill="#f4f4f7" opacity=".2"/>
</svg>
