<svg height="32" width="32" xmlns="http://www.w3.org/2000/svg">
    <path d="M21.219 3.01a4.55 4.55 0 0 0-.883.146 4.512 4.512 0 0 0-2.764 2.127 4.584 4.584 0 0 0 .24 4.926l-.937 1.633-.002.004-4.746 8.265c-.414.722-5.286 8.95-1.947 10.889l3.754-6.54 6.164-10.74h.002l.002-.005.93-1.617a4.55 4.55 0 0 0 1.645-.133 4.513 4.513 0 0 0 2.763-2.127c1.248-2.175.501-4.968-1.663-6.225a4.492 4.492 0 0 0-2.558-.603z" opacity=".2"/>
    <path d="M23.778 2.614a4.493 4.493 0 0 0-3.443-.458 4.511 4.511 0 0 0-2.762 2.128 4.582 4.582 0 0 0 .24 4.925l-.94 1.637 3.226 1.874.932-1.623a4.472 4.472 0 0 0 1.645-.131 4.512 4.512 0 0 0 2.763-2.128c1.248-2.175.503-4.967-1.66-6.224z" fill="#85a433"/>
    <path d="m13.933 23.46 6.169-10.745-3.227-1.873-4.747 8.27c-.414.72-5.287 8.95-1.948 10.888z" fill="#b3b3b7"/>
    <path d="M9.824 3.01a4.494 4.494 0 0 0-2.558.603C5.1 4.87 4.357 7.663 5.606 9.838a4.509 4.509 0 0 0 2.761 2.127 4.548 4.548 0 0 0 1.647.13l.93 1.62.003.006 6.164 10.74L20.865 31c3.338-1.938-1.535-10.167-1.949-10.889l-4.744-8.265-.002-.004-.938-1.633a4.583 4.583 0 0 0 .239-4.926 4.509 4.509 0 0 0-2.762-2.127 4.573 4.573 0 0 0-.885-.146z" opacity=".2"/>
    <path d="m14.172 10.846-.94-1.637a4.581 4.581 0 0 0 .24-4.925 4.512 4.512 0 0 0-2.763-2.128 4.495 4.495 0 0 0-3.443.458c-2.164 1.257-2.91 4.049-1.66 6.224a4.512 4.512 0 0 0 2.762 2.128 4.547 4.547 0 0 0 1.645.13l.932 1.624z" fill="#9fd022"/>
    <path d="M9.498 6a1.5 1.5 0 1 0 .003 3.003A1.5 1.5 0 0 0 9.498 6zm12 0a1.5 1.5 0 1 0 .003 3.003A1.5 1.5 0 0 0 21.498 6z" opacity=".2"/>
    <path d="M9.115 7.95a1.5 1.5 0 1 1 .77-2.898 1.5 1.5 0 0 1-.77 2.897z" fill="#f4f4f7"/>
    <path d="m17.11 23.46-6.167-10.745 3.226-1.873 4.747 8.27c.414.72 5.287 8.95 1.949 10.888z" fill="#d8d9dd"/>
    <circle cx="15.5" cy="16.5" fill="#808083" r="1.5"/>
    <path d="m15.5 16.226-.477-.477-.273.271.477.479-.477.478.273.272.477-.477.476.477.274-.272-.478-.478.478-.479-.274-.27z" opacity=".3"/>
    <g fill="#f4f4f7">
        <path d="M21.115 7.95a1.5 1.5 0 1 1 .77-2.898 1.5 1.5 0 0 1-.77 2.897z"/>
        <path d="M21.219 2.01a4.55 4.55 0 0 0-.883.146 4.512 4.512 0 0 0-2.764 2.127 4.535 4.535 0 0 0-.568 2.76 4.512 4.512 0 0 1 3.332-3.887 4.489 4.489 0 0 1 3.441.457 4.552 4.552 0 0 1 2.233 3.494 4.574 4.574 0 0 0-2.233-4.494 4.492 4.492 0 0 0-2.558-.603zm-3.701 7.713-.645 1.123.43.25.51-.887a4.552 4.552 0 0 1-.295-.486z" opacity=".1"/>
        <path d="M9.824 2.01a4.494 4.494 0 0 0-2.558.603 4.575 4.575 0 0 0-2.233 4.504 4.551 4.551 0 0 1 2.233-3.504 4.496 4.496 0 0 1 3.443-.457 4.509 4.509 0 0 1 2.762 2.127c.319.556.5 1.152.568 1.752a4.534 4.534 0 0 0-.568-2.752 4.509 4.509 0 0 0-2.762-2.127 4.573 4.573 0 0 0-.885-.146zm3.703 7.713a4.4 4.4 0 0 1-.295.486l.51.887.43-.25z" opacity=".2"/>
    </g>
</svg>
