<svg height="32" width="32" xmlns="http://www.w3.org/2000/svg">
    <path d="M4.08 5A2.075 2.086 0 0 0 2 7.092v18.816A2.08 2.08 0 0 0 4.08 28H27v-3h4V8h-4V5H16.5z" opacity=".2"/>
    <path d="M4.08 4A2.075 2.086 0 0 0 2 6.09v18.82A2.08 2.08 0 0 0 4.08 27h12.876V4zm0 0" fill="#4f4f4f"/>
    <path d="M10 10.5A2.5 2.5 0 1 1 7.5 8a2.5 2.5 0 0 1 2.5 2.5zm0 0" opacity=".2"/>
    <path d="M10 9.5A2.5 2.5 0 1 1 7.5 7 2.5 2.5 0 0 1 10 9.5zm0 0" fill="#ff3737"/>
    <path d="M13.077 10.5a2.5 2.5 0 1 1-5-.001 2.5 2.5 0 0 1 5 .001zm0 0" opacity=".2"/>
    <path d="M13.077 9.5a2.5 2.5 0 1 1-5-.001 2.5 2.5 0 0 1 5 .001zm0 0" fill="#ffc025"/>
    <path d="M9.036 7.531a2.504 2.504 0 0 0-.96 1.97 2.502 2.502 0 0 0 .965 1.967A2.5 2.5 0 0 0 10 9.5a2.5 2.5 0 0 0-.964-1.968zm0 0" fill="#ff872b"/>
    <path d="M5 22h9v2H5zm0 0" fill="#9a9996"/>
    <path d="M5 19h5v1.5H5zm0 0" fill="#deddda"/>
    <path d="M16.5 4v23H27v-3h4V7h-4V4z" fill="#17191e"/>
    <path d="M19 16h4v4h-4zm0 0" opacity=".15"/>
    <path d="M23 16h4v4h-4zm-4 4h4v4h-4zm0 0" fill="#f4f4f7" opacity=".2"/>
    <path d="M23 20h4v4h-4zm0 0" opacity=".15"/>
    <path d="M17.5 3.5v26" fill="none" opacity=".2" stroke="#040404" stroke-linecap="round" stroke-width="3"/>
    <path d="M17.5 2.5v26" fill="none" stroke="#f4f4f7" stroke-linecap="round" stroke-width="3"/>
    <path d="M4.08 4A2.075 2.086 0 0 0 2 6.092v1A2.075 2.086 0 0 1 4.08 5H27V4zM27 7v1h4V7z" fill="#f4f4f7" opacity=".1"/>
    <path d="M5 20.5h5v1H5zM5 24h9v1H5z" opacity=".2"/>
</svg>
