<svg xmlns="http://www.w3.org/2000/svg" width="32" height="32"><circle style="opacity:.2" cx="16" cy="17" r="14"/><circle style="fill:#35c9ec" cx="16" cy="16" r="14"/><path style="fill:#414141" d="M23.42 21c-.901 0-1.685-.168-2.352-.504a3.64 3.64 0 0 1-1.534-1.454c-.356-.625-.534-1.352-.534-2.18 0-1.15.208-2.17.625-3.06.424-.891.996-1.579 1.716-2.063.72-.493 1.377-.739 2.256-.739.818 0 1.44.219 1.863.657.425.43.637 1 .637 1.711-.03.73-.412 1.108-.943 1.226-.213 0-.38-.051-.5-.153-.122-.101-.182-.25-.182-.445.147-.464.067-.865-.059-1.27-.175-.26-.485-.39-.93-.39-.5 0-.835.168-1.29.505-.454.336-.822.832-1.102 1.488-.28.65-.42 1.423-.42 2.322 0 .938.253 1.664.76 2.18.508.508 1.258.762 2.25.762.493 0 .99-.062 1.49-.187a11.818 11.818 0 0 0 1.681-.598.78.78 0 0 1 .284-.07c.122 0 .212.046.273.14.06.094.091.215.091.364 0 .476-.25.828-.75 1.055a7.845 7.845 0 0 1-1.682.539A8.832 8.832 0 0 1 23.42 21z"/><path style="opacity:.2" d="M7.434 12c-.461 0-.851.008-1.172.023-.684.04-1.026.322-1.026.848 0 .163.044.29.135.383.098.085.272.129.524.129l.88-.012a74.786 74.786 0 0 1-.377 2.775l-.23 1.522c-.077.511-.2 1.386-.367 2.625l-.031.256-.493.012c-.405.007-.718.089-.941.244a.747.747 0 0 0-.336.65c0 .178.052.313.156.406a.565.565 0 0 0 .389.139c.098 0 .262-.02.492-.059a9.047 9.047 0 0 1 1.445-.127c.112 0 .34.008.69.024.377.015.653.023.828.023.258 0 .458-.07.598-.209a.679.679 0 0 0 .218-.511c0-.217-.066-.38-.199-.489-.132-.108-.384-.162-.754-.162-.251 0-.449.004-.595.012.09-.767.211-1.72.365-2.857l.22-1.522.231-1.521c.112-.744.174-1.161.187-1.254.21-.008.517-.012.922-.012.259 0 .458-.074.598-.22.14-.156.209-.357.209-.604a.422.422 0 0 0-.19-.35.708.708 0 0 0-.458-.15zm4.148 4c-.315 0-.562.059-.74.178-.17.11-.293.289-.37.535A10.36 10.36 0 0 0 10 19.859c0 .748.064 1.292.191 1.631.136.34.367.51.69.51.264 0 .455-.067.574-.203.128-.145.239-.417.332-.817.11-.458.255-.924.434-1.4.187-.476.378-.866.574-1.172.196-.306.357-.459.484-.459.094 0 .14.067.14.203 0 .17-.035.527-.103 1.07-.085.612-.127 1.08-.127 1.403 0 .382.07.709.206.98.144.264.356.395.636.395.272 0 .47-.067.588-.203.128-.136.237-.409.33-.817.128-.518.294-1.009.498-1.476.204-.467.41-.84.614-1.121.204-.289.36-.434.47-.434.094 0 .14.067.14.203 0 .204-.055.575-.165 1.11-.12.611-.178 1.035-.178 1.273 0 .476.111.841.332 1.096.221.246.549.369.983.369.535 0 1.01-.145 1.427-.434a5.565 5.565 0 0 0 1.188-1.107c.161-.187.242-.451.242-.791 0-.178-.034-.318-.102-.42a.281.281 0 0 0-.255-.152c-.128 0-.242.059-.344.177-.391.468-.707.808-.945 1.02-.23.204-.43.307-.6.307-.247 0-.37-.17-.37-.51 0-.238.081-.726.243-1.465.187-.866.281-1.466.281-1.797 0-.552-.277-.828-.83-.828-.45 0-.936.237-1.455.713-.519.475-.99 1.237-1.416 2.281.026-.153.073-.382.14-.687.162-.714.243-1.207.243-1.479 0-.28-.064-.489-.192-.625-.119-.136-.327-.203-.625-.203-.297 0-.616.114-.957.344-.331.22-.659.56-.982 1.02-.315.458-.587 1.019-.816 1.68.034-.373.077-.682.128-.929.052-.255.119-.553.204-.892.127-.476.191-.78.191-.916 0-.12-.034-.2-.102-.243-.068-.042-.187-.064-.357-.064z"/><path style="fill:#f4f4f7" d="M9.35 11.012q.273 0 .462.15.188.14.188.349 0 .372-.21.604-.209.22-.596.22-.608 0-.922.012l-.188 1.255q-.189 1.242-.23 1.521l-.22 1.522q-.23 1.707-.367 2.857.22-.012.597-.012.555 0 .754.163.199.162.199.488 0 .302-.22.51-.21.21-.597.21-.262 0-.827-.024-.524-.023-.691-.023-.66 0-1.445.128Q4.69 21 4.545 21q-.23 0-.388-.14Q4 20.722 4 20.455q0-.418.335-.65.335-.233.942-.244l.493-.012.031-.255q.251-1.859.367-2.625l.23-1.522q.21-1.347.377-2.776l-.88.012q-.377 0-.523-.128-.136-.139-.136-.383 0-.79 1.026-.848Q6.743 11 7.435 11zM10.88 21q-.484 0-.689-.51Q10 19.98 10 18.86q0-1.656.472-3.147.115-.369.37-.535.268-.178.74-.178.255 0 .357.064.102.063.102.242 0 .204-.191.917-.128.51-.204.892-.077.37-.128.93.345-.994.817-1.682.485-.688.982-1.02.51-.343.957-.343.447 0 .625.204.192.204.192.624 0 .408-.243 1.478-.102.458-.14.688.638-1.567 1.416-2.28.778-.714 1.454-.714.83 0 .83.828 0 .497-.281 1.796-.242 1.108-.242 1.465 0 .51.37.51.255 0 .6-.306.356-.318.943-1.02.153-.177.345-.177.166 0 .255.152.102.153.102.42 0 .51-.242.79-.549.676-1.187 1.109-.625.433-1.429.433-.65 0-.982-.37-.332-.382-.332-1.095 0-.357.179-1.274.166-.802.166-1.108 0-.204-.14-.204-.167 0-.473.433-.306.42-.612 1.121-.306.7-.498 1.478-.14.611-.332.815-.178.204-.586.204-.421 0-.638-.395-.204-.408-.204-.98 0-.485.127-1.402.102-.815.102-1.07 0-.204-.14-.204-.192 0-.485.459-.293.458-.574 1.172-.268.713-.434 1.4-.14.6-.332.816-.178.204-.574.204z"/><path style="fill:#f4f4f7;opacity:.2" d="M16 2A14 14 0 0 0 2 16a14 14 0 0 0 .021.586A14 14 0 0 1 16 3a14 14 0 0 1 13.979 13.414A14 14 0 0 0 30 16 14 14 0 0 0 16 2z"/></svg>