<svg xmlns="http://www.w3.org/2000/svg" width="32" height="32" version="1"><rect style="opacity:.2" width="17" height="21" x="7" y="10" rx="1.417" ry="1.4"/><rect style="fill:#8b9cbe" width="17" height="21" x="7" y="9" rx="1.417" ry="1.4"/><path style="fill:#8e8e8e" d="M16.625 6c-.346 0-.625.335-.625.75V9h5V6.75c0-.415-.279-.75-.625-.75h-3.75z"/><path style="fill:#b7b7b7" d="M17 2h3v4h-3z"/><path style="opacity:.2" d="M10 11h11v5H10z"/><path style="fill:#b7b7b7" d="M13 11h5v5h-5z"/><path style="fill:#c77640" d="M10 13v3h11v-3z"/><path style="opacity:.1;fill:#f4f4f7" d="M8.416 9C7.631 9 7 9.625 7 10.4v1c0-.775.631-1.4 1.416-1.4h14.168c.785 0 1.416.625 1.416 1.4v-1c0-.775-.631-1.4-1.416-1.4H8.416z"/><path style="opacity:.2;fill:#f4f4f7" d="M10 13h11v1H10z"/><path style="opacity:.2" d="M10 11h11v1H10z"/><path style="opacity:.2;fill:#f4f4f7" d="M17 2h3v1h-3z"/></svg>