<svg height="32" width="32" xmlns="http://www.w3.org/2000/svg">
    <path d="M2 17v12.6c0 .775.625 1.4 1.4 1.4h25.2c.775 0 1.4-.625 1.4-1.4V17z" opacity=".2"/>
    <path d="M16 2H3.4C2.624 2 2 2.624 2 3.4V16h14z" fill="#6655e4"/>
    <path d="M16 2h12.6c.776 0 1.4.624 1.4 1.4V16H16z" fill="#21d789"/>
    <path d="M16 30H3.4c-.776 0-1.4-.624-1.4-1.4V16h14z" fill="#2086e7"/>
    <path d="M16 30h12.6c.776 0 1.4-.624 1.4-1.4V16H16z" fill="#6655e4"/>
    <path d="M6 6h20v20H6z" fill="#17191e"/>
    <g fill="none" stroke-linecap="round" stroke-width="2">
        <path d="M9.014 24h8" opacity=".2" stroke="#000"/>
        <path d="M9.014 23h8" stroke="#f4f4f7"/>
        <g stroke-linejoin="bevel">
            <path d="M12 15h2m-1 0s.49 3-2 3c-2 0-2-2-2-4s0-4 2-4 1.992 1 1.992 1" opacity=".2" stroke="#000"/>
            <path d="M12 14h2m-1 0s.49 3-2 3c-2 0-2-2-2-4s0-4 2-4 1.992 1 1.992 1" stroke="#f4f4f7"/>
        </g>
    </g>
    <path d="M19 9c-1.662 0-3 1.338-3 3v4c0 1.662 1.338 3 3 3s3-1.338 3-3v-4c0-1.662-1.338-3-3-3zm0 2c.554 0 1 0 1 1.799V15.2c0 1.8-.446 1.8-1 1.8s-1 0-1-1.799V12.8c0-1.8.446-1.8 1-1.8z" fill-rule="evenodd" opacity=".2"/>
    <g fill="#f4f4f7">
        <path d="M19 8c-1.662 0-3 1.338-3 3v4c0 1.662 1.338 3 3 3s3-1.338 3-3v-4c0-1.662-1.338-3-3-3zm0 2c.554 0 1 0 1 1.799V14.2c0 1.8-.446 1.8-1 1.8s-1 0-1-1.799V11.8c0-1.8.446-1.8 1-1.8z" fill-rule="evenodd"/>
        <path d="M3.4 2C2.625 2 2 2.625 2 3.4v1C2 3.625 2.625 3 3.4 3h25.2c.775 0 1.4.625 1.4 1.4v-1c0-.775-.625-1.4-1.4-1.4z" opacity=".2"/>
    </g>
</svg>
