<svg xmlns="http://www.w3.org/2000/svg" width="32" height="32" version="1"><circle style="opacity:.2" cx="-23.335" cy="-5.657" r="11.5" transform="rotate(-135)"/><circle style="fill:#33b67a" cx="-22.627" cy="-4.95" r="11.5" transform="rotate(-135)"/><path style="opacity:.2" d="M5.18 28.356a11.5 11.5 0 0 0 3.797 2.09c.089-.172.283-.27.563-.25.189.013.408-.041.488-.12.244-.245.398-.84.276-1.07-.161-.306.167-.477.605-.314.203.075.558.063.789-.028.231-.09.493-.146.582-.123.09.023.26-.057.381-.178.17-.169.174-.328.022-.682-.109-.254-.273-.524-.366-.6-.53-.439-.28-.755.694-.883.517-.068.699-.033.815.157.109.177.227.215.434.138.218-.081.381-.02.703.26.317.276.51.349.783.297.2-.037.413-.016.475.047.062.062.289.129.502.149.435.04.548.113.502.325-.06.281.263.433.955.447.612.014.73-.028.943-.335.378-.547.538-1.208.395-1.637-.125-.375-.117-.393.195-.402.18-.005.427.046.552.112.359.192.309-.068-.12-.622-.439-.566-.413-.905.07-.918.27-.008.289-.041.21-.383-.153-.669-.637-.838-.521-.182.074.421-.17.319-.408-.17-.19-.391-.252-.443-.572-.465-.657-.047-.588-.88.073-.898.421-.013.62-.335.392-.637-.101-.133-.236-.485-.299-.783-.063-.297-.163-.59-.223-.65-.06-.06-.108-.346-.108-.637 0-.59-.126-.791-.418-.667-.35.15-.438.319-.462.882-.02.449-.294 1.42-.443 1.569-.092.092-.368-.34-.431-.674a4.089 4.089 0 0 0-.203-.69c-.076-.183-.046-.481.072-.723.187-.377.174-.44-.165-.778l-.367-.367.605-.717c.728-.861.825-1.086.618-1.424-.153-.25-.056-.775.187-1.018.065-.065.368-.079.673-.031.379.059.609.017.727-.13.148-.185.212-.173.43.08.14.163.457.373.702.466.291.11.537.298.704.538.193.276.288.34.38.248.067-.068.275-.112.462-.099.462.033.473-.182.025-.494-.278-.193-.351-.304-.29-.446.13-.302.658-.392.81-.137.097.161.203.179.396.067.068-.04.14-.06.21-.07a11.5 11.5 0 0 0-.908-1.666.763.763 0 0 0-.048.312c.062.357-.463.602-.82.382-.365-.223-.51.014-.226.37.248.312.262.894.024.946-.16.034-.414-.248-.828-.919-.187-.302-.47-.353-1.658-.3-.687.032-1.09-.071-1.366-.348-.106-.106-.58-.386-1.054-.622-.896-.446-1.15-.717-.88-.937.56-.459.216-.77-.853-.77-.445 0-.81-.043-.811-.095-.004-.2.656-.493 1.064-.472.517.028.685-.113.568-.475-.064-.199.017-.39.302-.717l.39-.446-.34-.34a1.182 1.182 0 0 1-.25-.344 11.5 11.5 0 0 0-10.651 2.77c-.142.391-.311.543-.608.608a11.5 11.5 0 0 0-.419.493c.07.077.143.156.234.24.426.392.616.905.41 1.11-.043.044-.077.369-.075.722.004.4-.069.679-.19.74-.11.055-.185.248-.17.8b9cbe.013.19-.046.416-.131.502-.136.136-.067.24.575.851l.73.696.691-.715c1.21-1.253 1.346-1.756.575-2.115-.354-.164-.919-.872-.956-1.197-.014-.117.08-.4.21-.63.127-.228.25-.724.271-1.1.043-.764.173-.95.852-1.216.594-.233.74.008.254.418l-.362.305.362.248c.2.136.536.223.754.195.31-.04.4-.003.42.179a.539.539 0 0 1-.134.39c-.088.088-.098.272-.025.41.074.138.06.443-.033.678-.148.376-.23.454-.681.639-.457.187-.512.24-.507.483.005.222.06.285.3.345s.305.138.364.437c.039.2.18.474.316.609.274.274.224.49-.218.932-.407.408-.312.8.32 1.325.439.365.5.48.575 1.053.047.355-.008 1.042-.12 1.53a32.068 32.068 0 0 0-.25 1.143c-.036.204-.171.299-.663.46l-.62.201.501.382c.892.68 1.153.737.996.218-.061-.202-.03-.244.188-.26.143-.01.296-.1.34-.2.042-.101.248-.234.456-.295.208-.062.459-.19.558-.284.31-.295 1.07-.018 1.617.593.827.924.912.981 1.512 1.004.75.027.968-.09 1.122-.607.15-.5-.032-.941-.598-1.454-.506-.458-.518-.555-.089-.764.365-.176.783.034.828.417.034.295.7.76 1.065.743.153-.007.47-.109.706-.226.404-.201.453-.19.952.221.499.41.528.469.554 1.097.029.7-.166 1.02-.784 1.286-.274.118-.364.092-.534-.154-.337-.487-.643-.507-1.083-.067-.214.214-.372.455-.351.536.02.08-.052.235-.16.343-.109.109-.196.3-.195.425.003.182-.058.217-.31.173-.172-.03-.385-.147-.475-.261-.089-.113-.413-.35-.72-.525-.442-.255-.616-.286-.846-.15-.438.259-.935.32-1.118.137-.29-.29-.975.384-1.683 1.654-.105.188-.083.395.069.646.122.204.189.493.146.643-.042.15-.022.325.044.391.066.067.117.276.111.464-.005.19.107.46.252.605.344.343.113.585-.353.37-.491-.229-.879-.962-.73-1.382.203-.569-.162-.612-.81-.094-.802.64-1.258.599-2.043-.186l-.564-.564v.494c0 .154-.03.312-.078.45zm-2.668-3.179c.03.002.058.005.09.005.38-.004.496.057.744.393.43.587.57.316.254-.495-.17-.438-.214-.787-.126-1.008.423-1.066.603-1.688.533-1.84-.142-.306-.441-.274-.915.099-.543.428-.81.367-.84-.194-.011-.217-.087-.462-.168-.543-.253-.252-.338-.54-.201-.677.072-.072.16-.331.197-.577.052-.36-.002-.515-.29-.803-.354-.353-.504-.636-.702-1.323-.003-.01-.009-.018-.012-.029a11.5 11.5 0 0 0 1.436 6.992zm18.083 2.488a11.5 11.5 0 0 0 .037-.033 11.5 11.5 0 0 0 1.403-1.721c-.175-.415-.304-.449-.608-.205-.158.126-.393.212-.524.193-.202-.03-.225.034-.149.435.049.26.017.595-.07.746-.086.145-.11.374-.089.585zm.129-5.247c.068.083.2.134.4.138.42.01.801-.436.721-.844-.092-.466-.254-.52-.635-.21-.47.383-.636.731-.486.916zm-.15-2.61c.085.08.236.112.453.078.23-.035.427-.18.65-.476.273-.366.362-.414.614-.333.325.105.698-.176.69-.52-.007-.342-.217-.465-.507-.296-.412.241-.929-.199-.962-.82-.015-.264-.065-.441-.113-.393-.048.048-.077.367-.064.709.019.523-.038.68-.362 1.005-.458.458-.588.869-.4 1.046zm3.315 1.216a11.5 11.5 0 0 0 .05-.425 2.05 2.05 0 0 0-.05.425zm-1.492-3.988c.055.027.125-.007.215-.098.092-.092.247-.13.345-.084.13.06.262-.028.488-.328.043-.056.08-.098.119-.141a11.5 11.5 0 0 0-.165-.512 1.937 1.937 0 0 1-.607.42c-.477.227-.57.311-.53.475.038.152.08.24.135.268z"/><path style="opacity:.2" d="M27.91 2.002a6.01 6.01 0 0 0-.539.012c-3.015.2-7.25 3.142-11.01 6.666.26.092.52.192.774.304 1.727-1.448 3.548-2.903 5.086-3.572.801-.348 2.447-.988 3.656-1.062 1.545-.096 2.563.546 2.201 1.896-.463 1.678-1.942 4.32-4.34 6.975-2.398 2.655-5.663 5.46-8.1 6.748l1.45 2.644c2.85-1.809 5.984-4.583 8.676-7.564 5.212-5.773 6.795-11.5 3.533-12.791-.4-.159-.866-.244-1.387-.256z"/><path style="fill:#f4f4f7;opacity:.1" d="M12.668 8.002a11.5 11.5 45 0 0-8.299 3.367 11.5 11.5 45 0 0-3.346 8.62 11.5 11.5 45 0 1 3.346-7.62 11.5 11.5 45 0 1 16.262 0 11.5 11.5 45 0 1 3.346 7.643 11.5 11.5 45 0 0-3.346-8.643 11.5 11.5 45 0 0-7.963-3.367z"/><path style="fill:#a91f1f" d="M27.91 1.002a6.01 6.01 0 0 0-.539.012c-3.227.214-7.862 3.56-11.805 7.41.254.07.505.154.754.242 1.952-1.651 4.12-3.48 5.9-4.254.802-.348 2.448-.988 3.657-1.062 1.545-.096 2.563.546 2.201 1.896-.463 1.678-1.942 4.32-4.34 6.975-2.398 2.655-5.663 5.46-8.1 6.748l1.45 2.644c2.85-1.809 5.984-4.583 8.676-7.564 5.212-5.773 6.795-11.5 3.533-12.791-.4-.159-.866-.244-1.387-.256z"/><circle style="opacity:.2" cx="16" cy="21" r="6"/><path style="opacity:.1;fill:#f4f4f7" d="M27.91 1.002a6.01 6.01 0 0 0-.539.012c-3.227.214-7.862 3.56-11.805 7.41.254.07.505.154.754.242l.508-.426c3.64-3.327 7.653-6.034 10.543-6.226a6.01 6.01 0 0 1 .54-.012c.52.012.985.097 1.386.256 1 .396 1.54 1.21 1.664 2.314.14-1.61-.383-2.807-1.664-3.314-.4-.159-.866-.244-1.387-.256zm.156 4.283c-.474 1.68-1.947 4.3-4.328 6.936-2.398 2.655-5.663 5.46-8.1 6.748l.417.758c2.383-1.37 5.417-3.996 7.683-6.506 2.398-2.656 3.877-5.297 4.34-6.975.101-.378.085-.694-.012-.96z"/><circle style="fill:#e13c3c" cx="16" cy="20" r="6"/><circle style="opacity:.2" cx="16" cy="21" r="4"/><circle style="fill:#ffa833" cx="16" cy="20" r="4"/><circle style="opacity:.2" cx="16" cy="21" r="2"/><circle style="fill:#f4f4f7" cx="16" cy="20" r="2"/><path style="opacity:.2;fill:#f4f4f7" d="M16 16a4 4 0 0 0-4 4 4 4 0 0 0 .035.494A4 4 0 0 1 16 17a4 4 0 0 1 3.965 3.506A4 4 0 0 0 20 20a4 4 0 0 0-4-4z"/></svg>