<svg height="32" width="32" xmlns="http://www.w3.org/2000/svg"><rect height="28" opacity=".2" rx="1.4" width="28" x="2" y="3"/><rect fill="#4f4f4f" height="28" rx="1.4" width="28" x="2" y="2"/><path d="m24.201 11-4.512 6.787-4.55-6.78h-3.11l.971 1.473v9.431l-1.482 1.089h4.558l-1.076-1.09v-7.033l4.537 6.107 4.664-7.396v8.322l-1.07 1.09h5.479l-1.61-1.09v-9.81l1.611-1.092h-1.611zm-14.219 4.004c-.973.06-1.528.723-1.982 1.45v-1.444l-3 1.142-1.12.483 1.12.922v4.37l-1.043 1.073h5.481l-1.438-1.072v-4.721c.887-.202 1.34-.38 2.348.225l.677-2.266a2.582 2.582 0 0 0 -1.043-.162z" opacity=".2"/><g fill="#f4f4f7"><path d="m24.201 10-4.512 6.787-4.55-6.78h-3.11l.971 1.473v9.431l-1.482 1.089h4.558l-1.076-1.09v-7.033l4.537 6.107 4.664-7.396v8.322l-1.07 1.09h5.479l-1.61-1.09v-9.81l1.611-1.092h-1.611zm-14.219 4.004c-.973.06-1.528.723-1.982 1.45v-1.444l-3 1.142-1.12.483 1.12.922v4.37l-1.043 1.073h5.481l-1.438-1.072v-4.721c.887-.202 1.34-.38 2.348.225l.677-2.266a2.582 2.582 0 0 0 -1.043-.162z"/><path d="m3.4 2c-.775 0-1.4.625-1.4 1.4v1c0-.775.625-1.4 1.4-1.4h25.2c.775 0 1.4.625 1.4 1.4v-1c0-.775-.625-1.4-1.4-1.4z" opacity=".1"/></g></svg>