<svg height="32" width="32" xmlns="http://www.w3.org/2000/svg"><rect fill="#aedeec" height="28" rx="1.5" width="28" x="2" y="2"/><path d="m6 10v1.4l.006.6 2.994 5-3 5v2h11v-3h-2v1h-7l3-5-3-5h6v1h2v-3z" opacity=".2"/><path d="m6 9v1.4l.006.6 2.994 5-3 5v2h11v-3h-2v1h-7l3-5-3-5h6v1h2v-3z" fill="#e37739"/><path d="m3.5 2c-.831 0-1.5.669-1.5 1.5v1c0-.831.669-1.5 1.5-1.5h25c.831 0 1.5.669 1.5 1.5v-1c0-.831-.669-1.5-1.5-1.5z" fill="#fff" opacity=".1"/><path d="m2 28.5v1c0 .831.669 1.5 1.5 1.5h25c.831 0 1.5-.669 1.5-1.5v-1c0 .831-.669 1.5-1.5 1.5h-25c-.831 0-1.5-.669-1.5-1.5z" opacity=".2"/><path d="m21 2h2v28h-2z" fill="#f4f4f7"/></svg>