<svg height="64" viewBox="0 0 16.933 16.933" width="64" xmlns="http://www.w3.org/2000/svg">
    <linearGradient id="a" gradientUnits="userSpaceOnUse" x1="1.176" x2="15.664" y1="15.635" y2="1.305">
        <stop offset="0" stop-color="#0061e5"/>
        <stop offset="1" stop-color="#007af1"/>
    </linearGradient>
    <path d="M4.63 1.19a3.432 3.432 0 0 0-3.44 3.44v7.673a3.432 3.432 0 0 0 3.44 3.44h7.673a3.432 3.432 0 0 0 3.44-3.44V4.63a3.432 3.432 0 0 0-3.44-3.44z" fill="url(#a)"/>
    <g fill-rule="evenodd" stroke-width=".265">
        <path d="M5.027 2.381V3.97h1.588V2.38zm2.646 0V3.97H9.26V2.38zm2.646 0V3.97h1.587V2.38z" opacity=".3"/>
        <path d="M7.144 10.404V6.529c0-.099.083-.18.186-.18.034 0 .068.01.097.027l3.331 1.937a.175.175 0 0 1 0 .307l-3.33 1.937a.191.191 0 0 1-.257-.06.174.174 0 0 1-.027-.093z" fill="#fff"/>
        <path d="M5.027 12.965v1.587h1.588v-1.587zm2.646 0v1.587H9.26v-1.587zm2.646 0v1.587h1.587v-1.587z" opacity=".3"/>
    </g>
</svg>
