<svg height="32" width="32" xmlns="http://www.w3.org/2000/svg">
    <rect height="28" opacity=".2" rx="1.4" width="28" x="2" y="3"/>
    <rect fill="#642c68" height="28" rx="1.4" width="28" x="2" y="2"/>
    <path d="M4 5v3h3V5zm21 0v3h3V5zM4 12v3h3v-3zm21 0v3h3v-3zM4 19v3h3v-3zm21 0v3h3v-3zM4 26v3h3v-3zm21 0v3h3v-3z" opacity=".2"/>
    <path d="M4 4v3h3V4zm21 0v3h3V4zM4 11v3h3v-3zm21 0v3h3v-3zM4 18v3h3v-3zm21 0v3h3v-3zM4 25v3h3v-3zm21 0v3h3v-3z" fill="#f4f4f7"/>
    <path d="M3.4 2C2.625 2 2 2.625 2 3.4v1C2 3.625 2.625 3 3.4 3h25.2c.775 0 1.4.625 1.4 1.4v-1c0-.775-.625-1.4-1.4-1.4z" fill="#f4f4f7" opacity=".1"/>
    <path d="M9 6h14v9H9z" opacity=".2"/>
    <path d="M9 5h14v9H9z" fill="#f4f4f7"/>
    <path d="M9 19h14v9H9z" opacity=".2"/>
    <path d="M9 18h14v9H9z" fill="#f4f4f7"/>
    <circle cx="24" cy="23" fill="#96be4e" r="8"/>
    <path d="M21.538 19a1.539 1.539 0 0 0 0 3.076c.275 0 .527-.085.75-.211L23.5 23l-1.211 1.135a1.522 1.522 0 0 0-.75-.212 1.539 1.539 0 1 0 1.538 1.539c0-.141-.022-.275-.057-.404l1.308-1.27 2.75 2.597H28v-.616l-4.981-4.827c.035-.13.057-.262.057-.403 0-.85-.689-1.54-1.539-1.54zm0 .923a.615.615 0 1 1 0 1.23.615.615 0 0 1 0-1.23zm5.538-.308-2.423 2.289.808.788L28 20.231v-.616zm-5.538 5.231a.615.615 0 1 1 0 1.231.615.615 0 0 1 0-1.23z" fill="#f4f4f7"/>
    <path d="M31.979 23.424A8 8 0 0 1 24 31a8 8 0 0 1-7.979-7.424A8 8 0 0 0 16 24a8 8 0 0 0 8 8 8 8 0 0 0 8-8 8 8 0 0 0-.021-.576z" opacity=".2"/>
</svg>
