<svg height="32" width="32" xmlns="http://www.w3.org/2000/svg"><path d="m13.698 26.982c-4.628-.09-6.507-.169-7.655-.323-.843-.113-1.256-.223-1.723-.458-.77-.39-1.25-.931-1.596-1.805-.316-.8-.445-1.434-.563-2.777-.133-1.514-.143-1.789-.157-4.149-.017-2.775.016-3.685.199-5.527.096-.966.235-1.608.498-2.288.238-.62.457-.962.853-1.34a3.5 3.5 0 0 1 1.738-.913c1.031-.227 5.694-.402 10.71-.402 5.017 0 9.68.175 10.711.402a3.423 3.423 0 0 1 1.828 1.012c.418.426.634.814.89 1.6.264.811.365 1.529.516 3.652.07 1.009.07 5.65 0 6.658-.084 1.18-.186 2.23-.254 2.605-.175.966-.52 1.87-.907 2.384-.266.353-.792.773-1.23.985-.446.214-.87.32-1.553.389-2.117.212-8.581.367-12.305.295z" opacity=".2"/><path d="m13.698 25.982c-4.628-.09-6.507-.169-7.655-.323-.843-.113-1.256-.223-1.723-.458-.77-.39-1.25-.931-1.596-1.805-.316-.8-.445-1.434-.563-2.777-.133-1.514-.143-1.789-.157-4.149-.017-2.775.016-3.685.199-5.527.096-.966.235-1.608.498-2.288.238-.62.457-.962.853-1.34a3.5 3.5 0 0 1 1.738-.913c1.031-.227 5.694-.402 10.71-.402 5.017 0 9.68.175 10.711.402a3.423 3.423 0 0 1 1.828 1.012c.418.426.634.814.89 1.6.264.811.365 1.529.516 3.652.07 1.009.07 5.65 0 6.658-.084 1.18-.186 2.23-.254 2.605-.175.966-.52 1.87-.907 2.384-.266.353-.792.773-1.23.985-.446.214-.87.32-1.553.389-2.117.212-8.581.367-12.305.295z" fill="#e53935"/><path d="m16.117 19.265c3.968-2.258 3.883-2.208 3.883-2.254 0-.042-6.947-4.034-6.98-4.01-.023.015-.028 7.967-.005 7.992.008.01.032.01.053 0 .021-.008 1.393-.786 3.048-1.728z" opacity=".2"/><path d="m16.117 18.265c3.968-2.258 3.883-2.208 3.883-2.254 0-.042-6.947-4.034-6.98-4.01-.023.015-.028 7.967-.005 7.992.008.009.032.01.053 0 .021-.008 1.393-.786 3.048-1.728z" fill="#f4f4f7"/><path d="m16.002 6c-5.016 0-9.68.175-10.711.402a3.498 3.498 0 0 0 -1.736.914c-.397.377-.615.718-.854 1.338-.262.68-.402 1.324-.498 2.29-.183 1.842-.215 2.751-.2 5.527.002.182.006.21.007.369-.005-2.18.029-3.241.193-4.897.096-.965.236-1.608.498-2.289.24-.62.457-.96.854-1.338a3.498 3.498 0 0 1 1.736-.914c1.032-.227 5.695-.402 10.711-.402s9.68.175 10.71.402a3.423 3.423 0 0 1 1.829 1.012c.418.426.634.813.89 1.6.265.81.366 1.529.516 3.652.03.428.04 1.647.045 2.83.006-1.601-.004-3.25-.045-3.83-.15-2.123-.251-2.842-.515-3.652-.257-.787-.473-1.174-.891-1.6a3.423 3.423 0 0 0 -1.828-1.012c-1.033-.227-5.695-.402-10.711-.402z" fill="#f4f4f7" opacity=".2"/><circle cx="24.5" cy="23.5" fill="#03a9f4" r="7.5"/><path d="m26 19v4h1.5l-3 4-3-4h1.5v-4zm-5 8h7v1h-7z" fill="#f4f4f7"/><path d="m31.979 23.947a7.5 7.5 0 0 1 -7.479 7.053 7.5 7.5 0 0 1 -7.479-6.947 7.5 7.5 0 0 0 -.021.447 7.5 7.5 0 0 0 7.5 7.5 7.5 7.5 0 0 0 7.5-7.5 7.5 7.5 0 0 0 -.021-.553z" opacity=".2"/></svg>