<svg xmlns="http://www.w3.org/2000/svg" width="32" height="32"><rect style="opacity:.2" width="21" height="16" x="-29" y="-24" rx="1.25" ry="1.25" transform="matrix(0 -1 -1 0 0 0)"/><rect style="fill:#8e8e8e" width="21" height="16" x="-28" y="-24" rx="1.25" ry="1.25" transform="matrix(0 -1 -1 0 0 0)"/><rect style="opacity:.2" width="20" height="26" x="-26" y="-29" rx="1.25" ry="1.25" transform="matrix(0 -1 -1 0 0 0)"/><rect style="fill:#4f4f4f" width="20" height="26" x="-25" y="-29" rx="1.25" ry="1.25" transform="matrix(0 -1 -1 0 0 0)"/><path style="fill:#333" transform="matrix(0 -1 -1 0 0 0)" d="M-22.463-25.971-7-27v22h-16z"/><path style="fill:#f4f4f7;opacity:.1" d="M4.25 5C3.558 5 3 5.558 3 6.25v1C3 6.558 3.558 6 4.25 6h23.5c.692 0 1.25.558 1.25 1.25v-1C29 5.558 28.442 5 27.75 5H4.25z"/><path style="opacity:.2" d="M27 8 5 24h20.871S27 24 27 23V8zm-4 8v4h-5l5-4z"/><path style="fill:#cd3840" d="M27 7 5 23h20.871S27 23 27 22V7zm-4 8v4h-5l5-4z"/><path style="fill:#f4f4f7;opacity:.2" d="M27 7 5 23h1.375L27 8V7zm-7.75 12L18 20h5v-1h-3.75z"/></svg>