<svg height="32" width="32" xmlns="http://www.w3.org/2000/svg">
    <rect height="28" opacity=".2" rx="1.4" width="28" x="2" y="3"/>
    <rect fill="#4f4f4f" height="28" rx="1.4" width="28" x="2" y="2"/>
    <path d="M14 12v16h3v-6h1.955l4.559 6h3.77l-4.75-6.252A4.976 4.976 0 0 0 26 17c0-2.761-2.212-5-4.941-5H17zm3 3h2.854c1.203 0 2.146.783 2.146 2s-.943 2-2.146 2H17zM5 16v12h3v-9h4v-3c-1.512-.007-2.836.354-4 1.027V16z" opacity=".2"/>
    <path d="m20.895 18.592-2.39 1.816L23.515 27h3.77z" fill="#f4f4f7"/>
    <path d="M5 15h3v12H5z" fill="#9c9c9c"/>
    <path d="M12 15v3H5.7c1.613-1.955 3.684-3.011 6.3-3z" fill="#9c9c9c"/>
    <g fill="#f4f4f7">
        <path d="M14 11h3v16h-3z"/>
        <path d="M14 11v10h7.059C23.788 21 26 18.761 26 16s-2.212-5-4.941-5zm3 3h2.853c1.203 0 2.147.783 2.147 2s-.944 2-2.147 2H17z"/>
        <path d="M3.4 2C2.625 2 2 2.625 2 3.4v1C2 3.625 2.625 3 3.4 3h25.2c.775 0 1.4.625 1.4 1.4v-1c0-.775-.625-1.4-1.4-1.4z" opacity=".1"/>
    </g>
</svg>
