<svg height="32" width="32" xmlns="http://www.w3.org/2000/svg">
    <rect height="29" opacity=".2" rx="1.45" width="29" x="2" y="2"/>
    <rect fill="#f1723c" height="29" rx="1.45" width="29" x="2" y="1"/>
    <path d="M9.5 8.514h9.65s4.35 0 4.35 3.988c0 3.987-4.35 3.987-4.35 3.987H9.5v8.01" style="opacity:.2;fill:none;stroke:#000;stroke-width:3;stroke-linecap:round;stroke-linejoin:round"/>
    <path d="M9.5 7.515h9.65s4.35 0 4.35 3.987c0 3.988-4.35 3.988-4.35 3.988H9.5v8.01" fill="none" stroke="#f4f4f7" stroke-linecap="round" stroke-linejoin="round" stroke-width="3"/>
    <path d="M3.45 1C2.645 1 2 1.646 2 2.45v1C2 2.645 2.646 2 3.45 2h26.1c.804 0 1.45.646 1.45 1.45v-1C31 1.645 30.354 1 29.55 1z" fill="#f4f4f7" opacity=".2"/>
</svg>
