<svg height="32" width="32" xmlns="http://www.w3.org/2000/svg">
    <path d="M2 20.297a1.432 1.26 0 0 0 .192.592l2.784 4.24 2.783 4.24a1.432 1.26 0 0 0 2.481 0l2.783-4.24 2.785-4.24A1.432 1.26 0 0 0 14.568 19H3.433A1.432 1.26 0 0 0 2 20.297z" opacity=".2"/>
    <rect fill="#53990f" height="8" rx="1.429" ry="1.333" transform="matrix(0 1 1 0 0 0)" width="15" x="8" y="18"/>
    <rect fill="#b63312" height="8" rx="1.429" ry="1.333" transform="rotate(-90)" width="15" x="-22" y="5"/>
    <path d="M15 11.703a1.432 1.26 0 0 1 .192-.592l2.784-4.24 2.783-4.24a1.432 1.26 0 0 1 2.481 0l2.783 4.24 2.785 4.24A1.432 1.26 0 0 1 27.568 13H16.433A1.432 1.26 0 0 1 15 11.703z" opacity=".2"/>
    <path d="M15 10.703a1.432 1.26 0 0 1 .192-.592l2.784-4.24 2.783-4.24a1.432 1.26 0 0 1 2.481 0l2.783 4.24 2.785 4.24A1.432 1.26 0 0 1 27.568 12H16.433A1.432 1.26 0 0 1 15 10.703z" fill="#88d216"/>
    <path d="M2 19.297a1.432 1.26 0 0 0 .192.592l2.784 4.24 2.783 4.24a1.432 1.26 0 0 0 2.481 0l2.783-4.24 2.785-4.24A1.432 1.26 0 0 0 14.568 18H3.433A1.432 1.26 0 0 0 2 19.297z" fill="#e73e19"/>
    <rect height="16" opacity=".2" rx="8" transform="matrix(0 -1 -1 0 0 0)" width="16" x="-32" y="-32"/>
    <rect fill="#9c56e2" height="16" rx="8" transform="matrix(0 -1 -1 0 0 0)" width="16" x="-31" y="-32"/>
    <g fill="#f4f4f7">
        <path d="M24 18a5 5 0 1 0 0 10 5 5 0 0 0 0-10zm-.5.956c.057-.006.131.003.19 0 .007.028-.042.126-.109.272-.423.925-.447 2.009-.054 2.588.071.105.135.204.135.217s-.076.027-.163.027c-.203 0-.396-.124-.79-.436-.174-.138-.401-.254-.49-.272-.137-.027-.175-.015-.353.164-.167.166-.218.256-.218.408 0 .578.685 1.036 1.96 1.306 1.731.367 2.158.697 2.206 1.607.06 1.142-.548 2.003-1.88 2.67-.158.079-.26.109-.326.134-.03-.002-.051.003-.08 0a.955.955 0 0 1-.029-.272c0-.606-.238-1.23-.598-1.579a4.604 4.604 0 0 0-.6-.435c-.232-.144-.466-.31-.518-.38-.086-.119-.093-.192-.026-.41.12-.398.264-.62.544-.872.146-.132.294-.241.326-.244.033-.002-.186-.069-.516-.136a9.3 9.3 0 0 1-1.063-.3c-.456-.166-1.071-.511-1.306-.762l-.028-.028a4.378 4.378 0 0 1 2.532-2.967 4.25 4.25 0 0 1 .818-.246c.142-.029.289-.04.435-.054zm4.084 2.042c.102.063.488.9.598 1.307.143.527.133 1.437 0 1.96-.05.2-.113.386-.135.41-.021.022-.1-.11-.191-.273-.091-.162-.384-.507-.626-.763-.701-.74-.811-1.125-.518-1.715.148-.297.793-.975.872-.926z"/>
        <path d="M6.334 7C5.595 7 5 7.636 5 8.428v1C5 8.636 5.595 8 6.334 8h5.332C12.405 8 13 8.636 13 9.428v-1C13 7.636 12.405 7 11.666 7z" opacity=".1"/>
        <path d="M21.932 1.002a1.432 1.26 0 0 0-1.172.629l-2.785 4.24-2.784 4.24a1.432 1.26 0 0 0-.191.592 1.432 1.26 0 0 0 .12.537 1.432 1.26 0 0 1 .071-.129l2.784-4.24 2.785-4.24a1.432 1.26 0 0 1 2.48 0l2.783 4.24 2.786 4.24a1.432 1.26 0 0 1 .072.13 1.432 1.26 0 0 0-.072-1.13l-2.786-4.24-2.783-4.24a1.432 1.26 0 0 0-1.308-.629zM3.434 18A1.432 1.26 0 0 0 2 19.297a1.432 1.26 0 0 0 .12.463A1.432 1.26 0 0 1 3.433 19h11.134a1.432 1.26 0 0 1 1.313.76A1.432 1.26 0 0 0 14.568 18z" opacity=".2"/>
    </g>
</svg>
