<svg height="32" width="32" xmlns="http://www.w3.org/2000/svg">
    <circle cx="16" cy="17" opacity=".2" r="14"/>
    <circle cx="16" cy="16" fill="#2876d8" r="14"/>
    <path d="M17.49 8.002c-1.126-.035-2.348.304-3.824.96 1.564 0 2.361-.15 3.749 1.26.708.719.62 1.798-.06 2.488l-.005.014-9.07 10.31c-.354.36-.382.96-.028 1.29l.413.42c.354.36.915.33 1.27-.03l9.1-10.343c.229.174.491.268.8.316.561.06.68-.089 1.092.33a.32.326 0 0 1 0 .45.285.29 0 0 0 0 .42l.974 1.02c.236.24.59.24.827 0l2.095-2.13a.585.585 0 0 0 0-.838l-1.033-1.05a.285.29 0 0 0-.413 0 .285.29 0 0 1-.412 0c-.384-.42-.237-.54-.326-1.11a1.825 1.854 0 0 0-.501-.988l-1.063-1.08c-.59-.599-.886-.899-1.624-1.228a4.852 4.852 0 0 0-1.96-.48z" opacity=".2"/>
    <g fill="#f4f4f7">
        <path d="M17.49 7.002c-1.126-.035-2.348.304-3.824.96 1.564 0 2.361-.15 3.749 1.26.708.719.62 1.798-.06 2.488l-.005.014-9.07 10.31c-.354.36-.382.96-.028 1.29l.413.42c.354.36.915.33 1.27-.03l9.1-10.343c.229.174.491.268.8.316.561.06.68-.089 1.092.33a.32.326 0 0 1 0 .45.285.29 0 0 0 0 .42l.974 1.02c.236.24.59.24.827 0l2.095-2.13a.585.585 0 0 0 0-.838l-1.033-1.05a.285.29 0 0 0-.413 0 .285.29 0 0 1-.412 0c-.384-.42-.237-.54-.326-1.11a1.825 1.854 0 0 0-.501-.988l-1.063-1.08c-.59-.599-.886-.899-1.624-1.228a4.852 4.852 0 0 0-1.96-.48z"/>
        <path d="M16 2A14 14 0 0 0 2 16a14 14 0 0 0 .021.586A14 14 0 0 1 16 3a14 14 0 0 1 13.979 13.414A14 14 0 0 0 30 16 14 14 0 0 0 16 2z" opacity=".1"/>
    </g>
</svg>
