<svg xmlns="http://www.w3.org/2000/svg" width="32" height="32"><circle style="opacity:.2" cx="16" cy="17" r="14"/><g transform="matrix(.7 0 0 .7 -.8 -.8)"><circle style="fill:#6d37ae" cx="24" cy="24" r="20"/><circle style="opacity:.1;fill:none;stroke:#000;stroke-width:1.33979905;stroke-linecap:round;stroke-linejoin:round;stroke-dasharray:10.71839171,5.35919586;stroke-dashoffset:40.00289154" cx="10.559" cy="33.333" r="12.187" transform="rotate(-25.767)"/><circle style="fill:none;stroke:#07e6d2;stroke-width:1.33979905;stroke-linecap:round;stroke-linejoin:round;stroke-dasharray:10.71839171,5.35919586;stroke-dashoffset:40.00289154" cx="11.18" cy="32.047" r="12.187" transform="rotate(-25.767)"/><circle style="opacity:.1;fill:none;stroke:#000;stroke-width:1.40961289;stroke-linecap:round;stroke-linejoin:round;stroke-dasharray:11.27690352,5.63845176;stroke-dashoffset:40" cx="32.316" cy="-13.354" r="16.436" transform="rotate(69.107)"/><circle style="fill:none;stroke:#07a8e6;stroke-width:1.40961289;stroke-linecap:round;stroke-linejoin:round;stroke-dasharray:11.27690352,5.63845176;stroke-dashoffset:40" cx="30.981" cy="-13.863" r="16.436" transform="rotate(69.107)"/><circle style="opacity:.1;fill:none;stroke:#000;stroke-width:1.29438245;stroke-linecap:round;stroke-linejoin:round;stroke-dasharray:10.35505959,5.1775298;stroke-dashoffset:13.45409966" cx="22.701" cy="26.595" r="7.924" transform="rotate(-2.86)"/><circle style="fill:none;stroke:#07e690;stroke-width:1.29438245;stroke-linecap:round;stroke-linejoin:round;stroke-dasharray:10.35505959,5.1775298;stroke-dashoffset:13.45409966" cx="22.772" cy="25.168" r="7.924" transform="rotate(-2.86)"/><g style="fill:#9bdb4d"><path style="opacity:.2" d="M53.86 53.852a2.14 2.106 0 0 0-2.192 2.104l-.024 13.113-.024 13.119a2.14 2.106 0 0 0 3.207 1.829l11.558-6.54 11.559-6.538a2.14 2.106 0 0 0 .005-3.652l-11.534-6.574-11.534-6.58a2.14 2.106 0 0 0-1.022-.28z" transform="matrix(.28154 0 0 .28154 6.61 5.982)"/><path style="fill:#9bdb4d" d="M53.86 48.778a2.14 2.106 0 0 0-2.192 2.104l-.024 13.113-.024 13.118a2.14 2.106 0 0 0 3.207 1.83l11.558-6.54 11.559-6.538a2.14 2.106 0 0 0 .005-3.653l-11.534-6.574-11.534-6.58a2.14 2.106 0 0 0-1.022-.28z" transform="matrix(.28154 0 0 .28154 6.61 5.982)"/><path style="opacity:.2;fill:#f4f4f7" transform="translate(1.143 1.143) scale(1.42857)" d="M14.441 13a.422.415 0 0 0-.431.414l-.006 2.584L14 18.584a.422.415 0 0 0 .002.031l.002-1.617.006-2.584A.422.415 0 0 1 14.44 14a.422.415 0 0 1 .202.055l2.273 1.297 2.025 1.154.247-.139a.422.415 0 0 0 .001-.719l-2.273-1.296-2.273-1.297A.422.415 0 0 0 14.44 13z"/></g></g><path style="opacity:.1;fill:#f4f4f7" d="M16 2A14 14 0 0 0 2 16a14 14 0 0 0 .021.586A14 14 0 0 1 16 3a14 14 0 0 1 13.979 13.414A14 14 0 0 0 30 16 14 14 0 0 0 16 2z"/></svg>