<svg height="32" width="32" xmlns="http://www.w3.org/2000/svg"><path d="m15.999 3c-.182 0-.362.03-.536.093l-10.388 3.727c-.64.23-1.075.856-1.075 1.547 0 3.997 1.02 8.496 2.804 12.49 1.448 3.244 4.042 7.646 8.458 9.96.23.121.485.183.738.183s.506-.062.737-.183a1.257 1.28 0 0 0 .001 0c4.416-2.314 7.01-6.717 8.458-9.96 1.784-3.994 2.804-8.492 2.804-12.489 0-.691-.436-1.317-1.076-1.547a1.257 1.28 0 0 0 -.005-.001l-10.383-3.727a1.588 1.588 0 0 0 -.537-.093z" opacity=".2"/><path d="m15.999 2c-.182 0-.362.03-.536.093l-10.388 3.727c-.64.23-1.075.856-1.075 1.547 0 3.997 1.02 8.496 2.804 12.49 1.448 3.244 4.042 7.646 8.458 9.96.23.121.485.183.738.183s.506-.062.737-.183a1.257 1.28 0 0 0 .001 0c4.416-2.314 7.01-6.717 8.458-9.96 1.784-3.994 2.804-8.492 2.804-12.489 0-.691-.436-1.317-1.076-1.547a1.257 1.28 0 0 0 -.005-.001l-10.383-3.727a1.588 1.588 0 0 0 -.537-.093z" fill="#2f6cc5"/><path d="m16 9a6 6 0 0 0 -6 6v6h6a6 6 0 0 0 0-12zm0 3a3 3 0 1 1 0 6 3 3 0 0 1 0-6z" opacity=".2"/><path d="m16 8a6 6 0 0 0 -6 6v6h6a6 6 0 0 0 0-12zm0 3a3 3 0 1 1 0 6 3 3 0 0 1 0-6z" fill="#f4f4f7"/><path d="m10.523 21.657 2.91-3.694a.282.282 0 0 0 -.396-.396l-3.694 2.91a.82.837 0 0 0 -.343.68c0 .466.378.843.844.843a.848.866 0 0 0 .679-.343z" opacity=".1"/><path d="m10.523 20.657 2.91-3.694a.282.282 0 0 0 -.396-.396l-3.694 2.91a.82.837 0 0 0 -.343.68c0 .466.378.843.844.843a.848.866 0 0 0 .679-.343z" fill="#474747"/><path d="m15.998 2c-.181 0-.362.031-.535.094l-10.389 3.726c-.64.23-1.074.856-1.074 1.547 0 .274.016.556.025.834.065-.622.462-1.17 1.05-1.38l10.388-3.727a1.579 1.579 0 0 1 1.072 0l10.383 3.724a1.257 1.28 0 0 1 .006.002c.587.211.986.76 1.05 1.381.01-.278.026-.56.026-.834 0-.69-.436-1.317-1.076-1.547a1.257 1.28 0 0 0 -.006-.002l-10.383-3.724a1.59 1.59 0 0 0 -.537-.094z" fill="#f4f4f7" opacity=".2"/></svg>