<svg height="32" width="32" xmlns="http://www.w3.org/2000/svg"><circle cx="16" cy="17" opacity=".2" r="14"/><circle cx="16" cy="16" fill="#b864e6" r="14"/><path d="m16 2a14 14 0 0 0 -14 14 14 14 0 0 0 .021.586 14 14 0 0 1 13.979-13.586 14 14 0 0 1 13.979 13.414 14 14 0 0 0 .021-.414 14 14 0 0 0 -14-14z" fill="#f4f4f7" opacity=".2"/><path d="m10.639 5.28a12 12 0 0 0 -6.639 10.72h6a6 6 0 0 1 3.318-5.365l-2.68-5.356zm11.361 10.72a6 6 0 0 1 -3.318 5.365l2.68 5.356a12 12 0 0 0 6.638-10.721z" fill="#d69def"/><circle cx="16" cy="17" opacity=".1" r="5"/><circle cx="16" cy="16" fill="#4f4f4f" r="5"/><circle cx="16" cy="16" fill="#f4f4f7" r="1"/></svg>