<svg height="32" width="32" xmlns="http://www.w3.org/2000/svg"><rect fill="#319ed6" height="28" rx="1.4" width="28" x="2" y="2"/><path d="m6 7v16.801l4-5.951 5.543 12.15h4.814l-8.357-13h8z" fill-rule="evenodd" opacity=".2"/><path d="m6 6v16.8l4-5.95 6 13.15h5l-9-14h8z" fill="#fff" fill-rule="evenodd"/><path d="m3.4 2c-.775 0-1.4.625-1.4 1.4v1c0-.775.625-1.4 1.4-1.4h25.2c.775 0 1.4.625 1.4 1.4v-1c0-.775-.625-1.4-1.4-1.4z" fill="#fff" opacity=".2"/><path d="m2 28.6v1c0 .775.625 1.4 1.4 1.4h25.2c.775 0 1.4-.625 1.4-1.4v-1c0 .775-.625 1.4-1.4 1.4h-25.2c-.775 0-1.4-.625-1.4-1.4z" opacity=".2"/></svg>