<svg xmlns="http://www.w3.org/2000/svg" width="32" height="32">
    <path fill="#789c56" d="M23 4a7 7 0 0 1 5.045 2.158l.098.092c.73.73 1.153 1.43 1.337 2.115a7 7 0 0 1 .52 2.6 7 7 0 0 1-7 7 7 7 0 0 1-2.79-.59c-.071-.028-.145-.063-.218-.097a7 7 0 0 1-.27-.133c-.038-.02-.073-.033-.111-.055C12.514 26.69 2 27.99 2 27.99L16.393 13.3a3.209 3.209 0 0 1-.27-1.031 7 7 0 0 1-.123-1.3 7 7 0 0 1 7-7z"/>
    <path fill="#fff" opacity=".2" d="M23 4a7 7 0 0 0-7 7 7 7 0 0 0 .023.52A7 7 0 0 1 23 5a7 7 0 0 1 5.045 2.158l.098.092c.73.73 1.153 1.43 1.338 2.115a7 7 0 0 1 .496 2.11A7 7 0 0 0 30 11a7 7 0 0 0-.521-2.634c-.184-.686-.607-1.385-1.337-2.116l-.098-.092a7 7 0 0 0-5.045-2.2zm-6.834 9.541L2 28.041s.497-.079 1.205-.23l13.187-13.46a3.198 3.198 0 0 1-.226-.768z"/>
    <path opacity=".2" d="M29.977 11.4A7 7 0 0 1 23 18a7 7 0 0 1-2.79-.59c-.07-.029-.144-.064-.218-.098a7 7 0 0 1-.269-.133c-.038-.02-.073-.033-.111-.055-5.7 7.72-13.516 10.024-16.406 10.644L2 28.968s10.514-1.265 17.61-10.875c.039.022.074.035.112.055a7 7 0 0 0 .27.133c.073.034.147.069.218.098a7 7 0 0 0 2.79.6 7 7 0 0 0 7-7 7 7 0 0 0-.024-.525zm-13.953.045a7 7 0 0 0-.024.6 7 7 0 0 0 .123 1.28c.007.084.028.174.043.261l.227-.23a3.19 3.19 0 0 1-.27-1.032 7 7 0 0 1-.1-.76z"/>
    <path fill="#33d198" d="M9 4a7 7 0 0 0-5.045 2.158l-.098.092c-.73.73-1.153 1.43-1.337 2.115a7 7 0 0 0-.52 2.6 7 7 0 0 0 7 7 7 7 0 0 0 2.79-.59c.07-.028.144-.063.218-.097a7 7 0 0 0 .27-.133c.037-.02.073-.033.11-.055C19.487 26.69 30 27.99 30 27.99L15.607 13.3a3.19 3.19 0 0 0 .27-1.031 7 7 0 0 0 .122-1.3 7 7 0 0 0-7-7z"/>
    <path fill="#fff" opacity=".2" d="M9 4a7 7 0 0 0-5.045 2.158l-.098.092c-.73.73-1.153 1.43-1.337 2.115a7 7 0 0 0-.52 2.6 7 7 0 0 0 .023.475 7 7 0 0 1 .497-2.11c.184-.685.607-1.384 1.338-2.115.033-.033.064-.06.097-.092A7 7 0 0 1 9 4.923a7 7 0 0 1 6.977 6.52 7 7 0 0 0 .023-.52 7 7 0 0 0-7-7zm6.834 9.541a3.234 3.234 0 0 1-.227.77L28.795 27.77c.708.1 1.205.2 1.205.2L15.834 13.51z"/>
    <path opacity=".2" d="M2.023 11.4A7 7 0 0 0 2 12a7 7 0 0 0 7 7 7 7 0 0 0 2.79-.59c.07-.029.144-.064.218-.098a7 7 0 0 0 .27-.133c.037-.02.073-.033.11-.055 7.098 9.6 17.612 10.9 17.612 10.9l-1.205-1.23c-2.89-.62-10.706-2.926-16.406-10.644-.039.022-.074.035-.112.055a7 7 0 0 1-.27.133c-.073.034-.146.069-.218.098a7 7 0 0 1-2.789.6 7 7 0 0 1-6.977-6.6zm13.953.045a7 7 0 0 1-.1.76 3.19 3.19 0 0 1-.269 1.031l.227.23c.015-.086.036-.176.043-.261a7 7 0 0 0 .124-1.1 7 7 0 0 0-.024-.48z"/>
    <circle opacity=".2" cx="9" cy="12" r="3"/>
    <circle opacity=".2" cx="16" cy="18" r="1"/>
    <circle opacity=".2" cx="23" cy="12" r="3"/>
    <circle fill="#f9f9f9" cx="9" cy="11" r="3"/>
    <circle fill="#f9f9f9" cx="16" cy="17" r="1"/>
    <circle fill="#f9f9f9" cx="23" cy="11" r="3"/>
</svg>
