<svg height="32" width="32" xmlns="http://www.w3.org/2000/svg"><path d="m11 4v1h-2v2h-2v1h-2v2h-2v2h-1v8h1v1h2v2h1v5h2v2h3v-3h2v3h3v-3h3v3h3v-3h1v-2h1v-1h2v-2h2v-2h2v-2h1v-7h-1v-3h-2v-1h-2v-2h-4v-1z" opacity=".2"/><path d="m11 3v1h-2v2h-2v1h-2v2h-2v2h-1v8h1v1h2v2h1v5h2v2h3v-3h2v3h3v-3h3v3h3v-3h1v-2h1v-1h2v-2h2v-2h2v-2h1v-7h-1v-3h-2v-1h-2v-2h-4v-1z" fill="#f4f4f7"/><path d="m5 11v7h1v2h3v-2h-1v-4h1v-2h-1v-1z" fill="#17191e"/><path d="m8 14h1v4h-1z" fill="#ea01f5"/><path d="m17 11v2h-1v7h6v-1h1v-6h-1v-2z" fill="#17191e"/><path d="m17 14h3v4h-3z" fill="#ea01f5"/><path d="m11 20v1h-2v2h6v-2h-2v-1z" fill="#17191e"/><path d="m5 11v1h3v-1zm3 1v1h1v-1zm9-1v1h5v-1zm-1 2v1h1v-1zm6 0v1h1v-1zm-14 5v1h1v-1zm3 2v1h2v-1zm2 1v1h2v-1zm-2 0h-2v1h2z" opacity=".2"/><path d="m11 3v1h11v-1zm11 1v1h4v-1zm-11 0h-2v1h2zm-4 2v1h2v-1zm0 1h-2v1h2zm19-1v1h2v-1zm2 1v1h2v-1zm-25 2v1h2v-1zm27 1v1h1v-1zm-28 1v1h1v-1zm6 3h1v1h-1zm9 0h3v1h-3z" fill="#f4f4f7" opacity=".2"/><path d="m17 18h3v1h-3z" opacity=".2"/></svg>