<svg height="32" width="32" xmlns="http://www.w3.org/2000/svg"><rect height="28" opacity=".2" rx="8.4" width="28" x="2" y="3"/><rect fill="#d7d7d7" height="28" rx="8.4" width="28" x="2" y="2"/><path d="m11 5a1 1 0 0 0 -1 1 1 1 0 0 0 1 1 1 1 0 0 0 1-1 1 1 0 0 0 -1-1zm10 0a1 1 0 0 0 -1 1 1 1 0 0 0 1 1 1 1 0 0 0 1-1 1 1 0 0 0 -1-1zm-13.309 3a.69.69 0 0 0 -.691.691v16.619a.69.69 0 0 0 .691.691h16.619a.69.69 0 0 0 .691-.691v-16.62a.69.69 0 0 0 -.692-.69zm-2.691 3a1 1 0 0 0 -1 1 1 1 0 0 0 1 1 1 1 0 0 0 1-1 1 1 0 0 0 -1-1zm22 0a1 1 0 0 0 -1 1 1 1 0 0 0 1 1 1 1 0 0 0 1-1 1 1 0 0 0 -1-1zm-22 10a1 1 0 0 0 -1 1 1 1 0 0 0 1 1 1 1 0 0 0 1-1 1 1 0 0 0 -1-1zm22 0a1 1 0 0 0 -1 1 1 1 0 0 0 1 1 1 1 0 0 0 1-1 1 1 0 0 0 -1-1zm-16 6a1 1 0 0 0 -1 1 1 1 0 0 0 1 1 1 1 0 0 0 1-1 1 1 0 0 0 -1-1zm10 0a1 1 0 0 0 -1 1 1 1 0 0 0 1 1 1 1 0 0 0 1-1 1 1 0 0 0 -1-1z" opacity=".1"/><rect fill="#555" height="18" rx=".692" width="18" x="7" y="7"/><path d="m16 12a3 3 0 0 0 -3 3 3 3 0 0 0 1.475 2.578l-1.475 4.422h6l-1.475-4.422a3 3 0 0 0 1.475-2.578 3 3 0 0 0 -3-3z" opacity=".2"/><circle cx="16" cy="14" fill="#f4f4f7" r="3"/><path d="m25.29 20.692 5.499 9.524h-10.999z" fill="#f4f4f7" transform="matrix(.54558 0 0 .94497 2.202 -7.553)"/><g fill="#555"><circle cx="5" cy="11" r="1"/><circle cx="5" cy="21" r="1"/><circle cx="5" cy="-21" r="1" transform="rotate(90)"/><circle cx="5" cy="-11" r="1" transform="rotate(90)"/><circle cx="-27" cy="-21" r="1" transform="scale(-1)"/><circle cx="-27" cy="-11" r="1" transform="scale(-1)"/><circle cx="-27" cy="11" r="1" transform="rotate(-90)"/><circle cx="-27" cy="21" r="1" transform="rotate(-90)"/></g><path d="m10.4 2a8.382 8.382 0 0 0 -8.4 8.4v1c0-4.653 3.747-8.4 8.4-8.4h11.2c4.653 0 8.4 3.747 8.4 8.4v-1c0-4.653-3.747-8.4-8.4-8.4z" fill="#f4f4f7" opacity=".2"/></svg>