<svg height="32" width="32" xmlns="http://www.w3.org/2000/svg">
    <rect fill="#325f78" height="28" rx="1.5" transform="matrix(0 -1 -1 0 0 0)" width="22" x="-27" y="-30"/>
    <path d="M28 25V7H4v18z" opacity=".2"/>
    <g opacity=".2">
        <path d="M6.667 21h2.666c.37 0 .667.297.667.667v2.666c0 .37-.297.667-.667.667H6.667A.665.665 0 0 1 6 24.333v-2.666c0-.37.297-.667.667-.667zM12 21h2.667c.37 0 .666.297.666.667v2.666c0 .37-.297.667-.666.667H12a.665.665 0 0 1-.667-.667v-2.666c0-.37.298-.667.667-.667zM17.333 21H20c.37 0 .667.297.667.667v2.666c0 .37-.298.667-.667.667h-2.667a.665.665 0 0 1-.666-.667v-2.666c0-.37.297-.667.666-.667zM22.667 21h2.666c.37 0 .667.297.667.667v2.666c0 .37-.297.667-.667.667h-2.666a.665.665 0 0 1-.667-.667v-2.666c0-.37.297-.667.667-.667z"/>
    </g>
    <path d="M3.5 5C2.669 5 2 5.667 2 6.5v1C2 6.667 2.669 6 3.5 6h25c.831 0 1.5.668 1.5 1.5v-1c0-.832-.669-1.5-1.5-1.5z" fill="#fff" opacity=".1"/>
    <g fill="#fff">
        <path d="M6.667 20h2.666c.37 0 .667.297.667.667v2.666c0 .37-.297.667-.667.667H6.667A.665.665 0 0 1 6 23.333v-2.666c0-.37.297-.667.667-.667zM12 20h2.667c.37 0 .666.297.666.667v2.666c0 .37-.297.667-.666.667H12a.665.665 0 0 1-.667-.667v-2.666c0-.37.298-.667.667-.667zM17.333 20H20c.37 0 .667.297.667.667v2.666c0 .37-.298.667-.667.667h-2.667a.665.665 0 0 1-.666-.667v-2.666c0-.37.297-.667.666-.667zM22.667 20h2.666c.37 0 .667.297.667.667v2.666c0 .37-.297.667-.667.667h-2.666a.665.665 0 0 1-.667-.667v-2.666c0-.37.297-.667.667-.667z"/>
    </g>
    <path d="M2 25.5v1c0 .831.669 1.5 1.5 1.5h25c.831 0 1.5-.669 1.5-1.5v-1c0 .831-.669 1.5-1.5 1.5h-25c-.831 0-1.5-.669-1.5-1.5z" opacity=".2"/>
</svg>
