<svg xmlns="http://www.w3.org/2000/svg" width="32" height="32" version="1"><rect style="opacity:.2" width="28" height="28" x="2" y="3" rx="8.4" ry="8.4"/><rect style="fill:#797979" width="28" height="28" x="2" y="2" rx="8.4" ry="8.4"/><path style="opacity:.1" d="M19.225 7.014c-.811.125-1.888 1.103-2.975 3.107l-1.178 2.174 3.711 4.51.197.195h6.747c-.712-1.59-3.69-7.632-4.264-8.54-.308-.484-.938-1.065-1.402-1.292-.29-.142-.566-.196-.836-.154zm-7.262 3.994c-.39.06-.822.416-1.567.978C8.931 13.282 7.43 15.518 6.551 17h10.908c-.895-1.407-2.996-3.905-4.186-5.197-.572-.62-.92-.855-1.31-.795zM6.273 18c.75 1.267 1.514 3.082 2.118 4.262 1.46 2.86 2.217 3.953 3.09 4.459 1.47.852 2.312-.058 4.95-5.352.678-1.36 1.15-2.8 1.395-3.37zm12.772 0-1.69 3.93c1.043.882 2.51 1.612 3.213 1.568 1.607-.1 2.066-1.194 3.81-3.637L25.407 18z"/><path style="fill:#4a4a4a" d="m19.044 17-1.688 3.93c1.042.882 2.509 1.612 3.213 1.568 1.606-.1 2.064-1.194 3.81-3.637L25.406 17z"/><path style="fill:#0eb5fd" d="M6.274 17c.749 1.267 1.513 3.082 2.117 4.262 1.46 2.861 2.217 3.953 3.089 4.459 1.471.852 2.313-.058 4.951-5.352.678-1.36 1.15-2.8 1.395-3.369z"/><path style="fill:#f05abe" d="M19.225 6.014c-.81.125-1.888 1.104-2.975 3.108l-1.179 2.174 3.713 4.508.196.196h6.746c-.712-1.59-3.688-7.63-4.263-8.538-.307-.485-.939-1.068-1.403-1.295-.29-.141-.564-.195-.835-.153z"/><path style="fill:#00d49f" d="M11.963 10.009c-.39.06-.822.415-1.567.977C8.93 12.282 7.43 14.517 6.551 16H17.46c-.894-1.407-2.996-3.905-4.186-5.197-.572-.62-.92-.854-1.31-.794z"/><path style="fill:#f4f4f7;opacity:.1" d="M10.4 2A8.382 8.382 0 0 0 2 10.4v1C2 6.747 5.747 3 10.4 3h11.2c4.653 0 8.4 3.747 8.4 8.4v-1C30 5.747 26.253 2 21.6 2H10.4z"/></svg>