<svg xmlns="http://www.w3.org/2000/svg" width="32" height="32"><circle style="opacity:.2" cx="16" cy="17" r="14"/><circle style="fill:#aaa" cx="16" cy="16" r="14"/><path style="opacity:.1" d="M16 5A12 12 0 0 0 4 17a12 12 0 0 0 12 12 12 12 0 0 0 8.928-4H19l-4-8 4-8h5.926A12 12 0 0 0 16 5zm6 8.5-2.5 1.75L17 17l2.5 1.75L22 20.5V17zm0 3.5 2.5 1.75L27 20.5v-7l-2.5 1.75z"/><path style="fill:#17191e" d="M16 4A12 12 0 0 0 4 16a12 12 0 0 0 12 12 12 12 0 0 0 8.928-4H19l-4-8 4-8h5.926A12 12 0 0 0 16 4z"/><path style="fill:#17191e" transform="matrix(.6188 0 0 .75025 2.024 -2.392)" d="m24.203 24.514 4.04-2.332 4.04-2.333v9.331l-4.04-2.333z"/><path style="fill:#17191e" transform="matrix(.6188 0 0 .75025 7.024 -2.392)" d="m24.203 24.514 4.04-2.332 4.04-2.333v9.331l-4.04-2.333z"/><path style="opacity:.2" d="M10.342 9a1.39 1.39 0 0 0-1.228.745L2.164 22.94c-.491.935.18 2.06 1.229 2.061h11.214c1.048 0 1.72-1.124 1.23-2.058L12.77 17l3.058-5.937C16.322 10.13 15.65 9 14.6 9z"/><path style="fill:#f4f4f7" d="M10.342 8a1.39 1.39 0 0 0-1.228.745L2.164 21.94c-.491.935.18 2.06 1.229 2.061h11.214c1.048 0 1.72-1.124 1.23-2.058L12.77 16l3.058-5.937C16.322 9.13 15.65 8 14.6 8z"/><path style="fill:#f4f4f7;opacity:.2" d="M16 2A14 14 0 0 0 2 16a14 14 0 0 0 .021.586A14 14 0 0 1 16 3a14 14 0 0 1 13.979 13.414A14 14 0 0 0 30 16 14 14 0 0 0 16 2z"/></svg>