<svg height="32" width="32" xmlns="http://www.w3.org/2000/svg"><path d="m24.96 8.477c.161 2.496-.15 5.094-1.227 7.038-.518.926-1.11 1.83-1.602 2.752-1.417 2.663.403 1.637-2.61 1.637h-7.228c-3.013 0-.503 5.657-2.302-.495-.528-1.804-2.986-5.665-2.991-11.128-.002-1.995 1.811-3.291 3.677-4.096 2.082-1.026 4.217-1.169 6.412-1.172 3.944-.195 7.762 1.826 7.871 5.464z" opacity=".2"/><path d="m7.596 17h16.775c3.1 0 5.596 2.455 5.596 5.504.76 8.322-11.917 8.514-13.367 8.495-1.45-.02-14.6-.423-14.6-8.495 0-3.05 2.496-5.504 5.596-5.504z" opacity=".2"/><path d="m24.96 7.477c.161 2.496-.15 5.094-1.227 7.038-.518.926-1.11 1.83-1.602 2.752-1.417 2.663.403 1.637-2.61 1.637h-7.228c-3.013 0-.503 5.657-2.302-.495-.528-1.804-2.986-5.665-2.991-11.128-.002-1.995 1.811-3.291 3.677-4.096 2.082-1.026 4.217-1.169 6.412-1.172 3.944-.195 7.762 1.826 7.871 5.464z" fill="#848484"/><ellipse cx="12.8" cy="14.2" fill="#f4f4f7" rx="2.8" ry="4.2"/><ellipse cx="18.2" cy="14.2" fill="#f4f4f7" rx="2.8" ry="4.2"/><ellipse cx="17.6" cy="15.2" fill="#17191e" rx="1.4" ry="2.1"/><ellipse cx="13.4" cy="15.2" fill="#17191e" rx="1.4" ry="2.1"/><path d="m7.596 16h16.775c3.1 0 5.596 2.455 5.596 5.504.76 8.322-11.917 8.514-13.367 8.495-1.45-.02-14.6-.423-14.6-8.495 0-3.05 2.496-5.504 5.596-5.504z" fill="#b7b7b7"/><g fill="#f4f4f7"><path d="m17.826 2.002c-.244-.005-.49 0-.736.012-2.196.003-4.33.144-6.412 1.17-1.866.805-3.68 2.102-3.678 4.096 0 .27.012.532.023.793.123-1.875 1.856-3.114 3.655-3.89 2.082-1.026 4.216-1.167 6.412-1.17 3.943-.196 7.761 1.825 7.87 5.463.024.35.013.703.017 1.056.032-.683.028-1.373-.016-2.056-.103-3.41-3.466-5.4-7.135-5.475z" opacity=".1"/><path d="m7.596 16c-3.1 0-5.596 2.455-5.596 5.504 0 .174.013.339.025.506.253-2.816 2.64-5.01 5.57-5.01h16.776c3.1 0 5.596 2.455 5.596 5.504.006.064.003.124.008.187.026-.378.03-.77-.008-1.187 0-3.05-2.495-5.504-5.596-5.504z" opacity=".2"/></g></svg>