<svg height="32" width="32" xmlns="http://www.w3.org/2000/svg">
    <circle cx="16" cy="17" opacity=".2" r="14"/>
    <circle cx="16" cy="16" fill="#f4f4f7" r="14"/>
    <path d="M14.225 3.115a13.97 13.97 0 0 0-1.25.219c-.6 4.135.1 8.57 2.336 12.465-1.148 1.83-2.526 3.545-4.133 4.803-3.323-4.303-4.502-9.67-3.756-14.665-.47.365-.926.75-1.346 1.17-.414 4.963.975 10 4.07 14.295a19.519 19.519 0 0 1-5.54 2.703 14 14 0 0 0 .76.975c4.434-1.494 8.408-4.443 10.978-8.709 2.181 0 4.363.457 6.314 1.143-2.402 5.617-7.088 9.615-12.582 11.152a14 14 0 0 0 1.785.709 14 14 0 0 0 .002 0c5.18-1.934 9.566-5.963 11.828-11.29a20.687 20.687 0 0 1 5.155 3.47 14 14 0 0 0 .492-1.317 20.35 20.35 0 0 0-12.994-5.01c-1.148-1.943-1.836-4.002-2.18-6.06a20.61 20.61 0 0 1 2.262-.13 19.86 19.86 0 0 1 13.258 4.997c-.15-.7-.362-1.373-.612-2.03-4.18-3.183-9.493-4.753-15.023-3.982-.107-1.6-.104-3.294.176-4.908z" opacity=".2"/>
    <path d="M14.225 2.115c-.424.053-.84.129-1.25.219-.6 4.135.101 8.57 2.336 12.466-1.148 1.829-2.526 3.543-4.133 4.801C7.855 15.298 6.675 9.932 7.42 4.938c-.47.365-.924.75-1.344 1.17-.414 4.963.973 10 4.069 14.294a19.433 19.433 0 0 1-6.098 2.881c.214.35.441.69.684 1.02 4.69-1.417 8.92-4.462 11.613-8.932 2.18 0 4.362.457 6.313 1.143-2.59 6.057-7.834 10.236-13.885 11.472.535.322 1.088.619 1.667.868 5.795-1.687 10.784-5.958 13.252-11.767a20.672 20.672 0 0 1 5.447 3.726c.165-.453.307-.915.425-1.388a20.363 20.363 0 0 0-13.22-5.197c-1.147-1.944-1.836-4.002-2.18-6.06.76-.086 1.515-.129 2.263-.13a19.856 19.856 0 0 1 13.256 4.998c-.15-.7-.36-1.374-.61-2.03-4.18-3.184-9.493-4.753-15.024-3.982-.107-1.6-.103-3.296.176-4.91z" fill="#4f4f4f"/>
    <path d="M16 2A14 14 0 0 0 2 16a14 14 0 0 0 .021.586A14 14 0 0 1 16 3a14 14 0 0 1 13.979 13.414A14 14 0 0 0 30 16 14 14 0 0 0 16 2z" fill="#f4f4f7" opacity=".2"/>
</svg>
