<svg height="32" width="32" xmlns="http://www.w3.org/2000/svg"><circle cx="15.5" cy="-16.5" opacity=".2" r="14.5" transform="scale(1 -1)"/><circle cx="15.5" cy="-15.5" fill="#f4f4f7" r="14.5" transform="scale(1 -1)"/><circle cx="15.5" cy="15.5" fill="#077272" r="11.5"/><path d="m15.5 8a8.5 8.5 0 0 0 -8.5 8.5 8.5 8.5 0 0 0 8.5 8.5 8.5 8.5 0 0 0 8.5-8.5 8.5 8.5 0 0 0 -8.5-8.5zm0 3a5.5 5.5 0 0 1 5.5 5.5 5.5 5.5 0 0 1 -5.5 5.5 5.5 5.5 0 0 1 -5.5-5.5 5.5 5.5 0 0 1 5.5-5.5z" opacity=".1"/><path d="m15.5 7a8.5 8.5 0 0 0 -8.5 8.5 8.5 8.5 0 0 0 8.5 8.5 8.5 8.5 0 0 0 8.5-8.5 8.5 8.5 0 0 0 -8.5-8.5zm0 3a5.5 5.5 0 0 1 5.5 5.5 5.5 5.5 0 0 1 -5.5 5.5 5.5 5.5 0 0 1 -5.5-5.5 5.5 5.5 0 0 1 5.5-5.5z" fill="#248989"/><path d="m15.5 7a8.5 8.5 0 0 0 -8.5 8.5 8.5 8.5 0 0 0 .021.414 8.5 8.5 0 0 1 8.479-7.914 8.5 8.5 0 0 1 8.479 8.086 8.5 8.5 0 0 0 .021-.586 8.5 8.5 0 0 0 -8.5-8.5zm-5.475 8.986a5.5 5.5 0 0 0 -.025.514 5.5 5.5 0 0 0 5.5 5.5 5.5 5.5 0 0 0 5.5-5.5 5.5 5.5 0 0 0 -.025-.486 5.5 5.5 0 0 1 -5.475 4.986 5.5 5.5 0 0 1 -5.475-5.014z" fill="#f4f4f7" opacity=".1"/><path d="m35.307 24.712-8.66 5-8.66 5v-20l8.66 5z" opacity=".2" transform="matrix(.66395 0 0 .71875 .058 -1.262)"/><path d="m35.307 24.712-8.66 5-8.66 5v-20l8.66 5z" fill="#f4f4f7" transform="matrix(.66395 0 0 .71875 .058 -2.262)"/><path d="m15.5 1a14.5 14.5 0 0 0 -14.5 14.5 14.5 14.5 0 0 0 .021.42 14.5 14.5 0 0 1 14.479-13.92 14.5 14.5 0 0 1 14.479 14.08 14.5 14.5 0 0 0 .021-.58 14.5 14.5 0 0 0 -14.5-14.5z" fill="#f4f4f7" opacity=".2"/><path d="m26.979 14.922a11.5 11.5 0 0 1 -11.479 11.078 11.5 11.5 0 0 1 -11.479-10.922 11.5 11.5 0 0 0 -.021.422 11.5 11.5 0 0 0 11.5 11.5 11.5 11.5 0 0 0 11.5-11.5 11.5 11.5 0 0 0 -.021-.578z" opacity=".1"/></svg>