<svg height="32" width="32" xmlns="http://www.w3.org/2000/svg">
    <path d="M5 16v12.636C5 29.392 5.613 30 6.375 30h19.25c.762 0 1.375-.608 1.375-1.364V16z" opacity=".2"/>
    <path d="M12.25 3.027a7.16 7.16 0 0 0-7.133 6.637A5.795 5.795 0 0 0 1 15.205a5.795 5.795 0 0 0 5.455 5.777V21h19.09v-.012A5.795 5.795 0 0 0 31 15.205a5.795 5.795 0 0 0-4.576-5.662 7.16 7.16 0 0 0-6.674-4.57 7.16 7.16 0 0 0-2.238.369 7.16 7.16 0 0 0-5.262-2.315z" opacity=".2"/>
    <g fill="#f4f4f7">
        <circle cx="6.795" cy="14.205" r="5.795"/>
        <circle cx="12.25" cy="9.186" r="7.159"/>
        <circle cx="19.75" cy="11.132" r="7.159"/>
        <circle cx="25.205" cy="14.205" r="5.795"/>
        <path d="M6.46 11.82h19.091v8.182H6.46z"/>
    </g>
    <path d="M4 14h24v3H4z" fill="#29565b"/>
    <rect fill="#4cb009" height="3" rx="1.125" width="3" x="4" y="10"/>
    <path d="M5 16v11.636C5 28.392 5.613 29 6.375 29h19.25c.762 0 1.375-.608 1.375-1.364V16z" fill="#2995ff"/>
    <g fill="#f4f4f7">
        <path d="M8 25h14v1H8zm0-3h12v1H8zm0-3h16v1H8z" opacity=".5"/>
        <path d="M12.25 2.027a7.16 7.16 0 0 0-7.133 6.637A5.795 5.795 0 0 0 1 14.205a5.795 5.795 0 0 0 .025.5 5.795 5.795 0 0 1 4.092-5.04 7.16 7.16 0 0 1 7.133-6.638 7.16 7.16 0 0 1 5.262 2.315 7.16 7.16 0 0 1 2.238-.37 7.16 7.16 0 0 1 6.674 4.571 5.795 5.795 0 0 1 4.55 5.164 5.795 5.795 0 0 0 .026-.502 5.795 5.795 0 0 0-4.576-5.662 7.16 7.16 0 0 0-6.674-4.57 7.16 7.16 0 0 0-2.238.369 7.16 7.16 0 0 0-5.262-2.315z" opacity=".2"/>
    </g>
</svg>
