<svg height="32" width="32" xmlns="http://www.w3.org/2000/svg">
    <path d="M4 3S2 3 2 5v24c0 2 2 2 2 2h16l10-10V5c0-2-2-2-2-2z" opacity=".2"/>
    <path d="M4 2S2 2 2 4v24c0 2 2 2 2 2h16l10-10V4c0-2-2-2-2-2z" fill="#fecd38"/>
    <path d="M30 20h-8.5a1.5 1.5 0 0 0-1.5 1.5V30z" fill="#ffe69b"/>
    <path d="M21.5 20a1.5 1.5 0 0 0-1.5 1.5v1a1.5 1.5 0 0 1 1.5-1.5H29l1-1zM4 2S2 2 2 4v1c0-2 2-2 2-2h24s2 0 2 2V4c0-2-2-2-2-2z" fill="#f4f4f7" opacity=".2"/>
    <rect height="3" opacity=".1" rx="1.5" width="22" x="5" y="11"/>
    <rect fill="#4f4f4f" height="3" rx="1.5" width="22" x="5" y="10"/>
    <rect height="3" opacity=".1" rx="1.5" width="15" x="5" y="16"/>
    <rect fill="#4f4f4f" height="3" rx="1.5" width="15" x="5" y="15"/>
    <rect height="3" opacity=".1" rx="1.5" width="10" x="5" y="21"/>
    <rect fill="#4f4f4f" height="3" rx="1.5" width="10" x="5" y="20"/>
</svg>
