<svg xmlns="http://www.w3.org/2000/svg" width="32" height="32" version="1"><rect style="opacity:.2" width="28" height="24" x="2" y="5" rx="1.5" ry="1.5"/><rect style="fill:#1e88e5" width="28" height="24" x="2" y="4" rx="1.5" ry="1.5"/><rect style="opacity:.2" width="14" height="10" x="18" y="8" rx=".6" ry=".6"/><rect style="fill:#ebebeb" width="14" height="10" x="18" y="7" rx=".6" ry=".6"/><rect style="opacity:.2" width="14" height="10" x="9" y="22" rx=".6" ry=".6"/><rect style="fill:#ebebeb" width="14" height="10" x="9" y="21" rx=".6" ry=".6"/><rect style="opacity:.2" width="14" height="10" y="8" rx=".6" ry=".6"/><rect style="fill:#ebebeb" width="14" height="10" y="7" rx=".6" ry=".6"/><path style="fill:#f4f4f7;opacity:.2" d="M3.5 4C2.669 4 2 4.669 2 5.5v1C2 5.669 2.669 5 3.5 5h25c.831 0 1.5.669 1.5 1.5v-1c0-.831-.669-1.5-1.5-1.5h-25z"/></svg>