<svg height="64" viewBox="0 0 16.933 16.933" width="64" xmlns="http://www.w3.org/2000/svg">
    <filter id="c" color-interpolation-filters="sRGB" height="1.101" width="1.148" x="-.074" y="-.05">
        <feGaussianBlur stdDeviation=".22"/>
    </filter>
    <filter id="a" color-interpolation-filters="sRGB" height="1.054" width="1.054" x="-.027" y="-.027">
        <feGaussianBlur stdDeviation=".619"/>
    </filter>
    <linearGradient id="b" gradientUnits="userSpaceOnUse" x1="1.191" x2="15.742" y1="15.74" y2="1.188">
        <stop offset="0" stop-color="#32d7ff"/>
        <stop offset="1" stop-color="#329bff"/>
    </linearGradient>
    <rect fill="#141414" filter="url(#a)" height="55" opacity=".3" ry="15" transform="scale(.26458)" width="55" x="4.5" y="4.5"/>
    <rect fill="url(#b)" height="14.552" ry="3.969" width="14.552" x="1.191" y="1.191"/>
    <path d="M8.252 3.423 5.38 8.43a3.557 3.557 0 1 0 6.172 0L8.68 3.423a.247.247 0 0 0-.428 0z" fill="#0a96ff" filter="url(#c)"/>
    <path d="M8.252 3.361 5.38 8.369a3.557 3.557 0 1 0 6.172 0L8.68 3.361a.247.247 0 0 0-.428 0z" fill="#fff"/>
    <path d="M8.467 4.233a7.484 7.484 0 0 1-.178.42c-.005.012-.013.022-.018.034-.058.124-.115.24-.178.361l-.038.076c-.057.106-.116.215-.177.319-.02.036-.044.073-.065.11C7.272 6.437 6.56 7.362 6 8.138c-.445.584-.7 1.215-.776 1.823 0 1.51 1.45 2.738 3.243 2.738s3.242-1.228 3.242-2.738c0-.952-.777-1.93-1.673-3.184-.283-.39-.557-.799-.803-1.184a15.237 15.237 0 0 1-.766-1.36zm0 1.144c0 1.46.367 2.66.763 4.14h.932l-.848 1.017-.847 1.023-.848-1.023-.848-1.017h.974c.412-1.538.722-2.683.722-4.14z" fill="#fff"/>
    <path d="M8.466 5.377c0 1.457-.309 2.602-.72 4.14H6.77l.848 1.017.848 1.022.847-1.022.848-1.017h-.931c-.397-1.48-.765-2.68-.765-4.14z" fill="#0faaff"/>
</svg>
