<svg xmlns="http://www.w3.org/2000/svg" width="32" height="32"><circle style="opacity:.2" cx="16" cy="17" r="14"/><circle style="fill:#17191e" cx="16" cy="16" r="14"/><path style="fill:#f4f4f7;opacity:.1" d="M16 2A14 14 0 0 0 2 16a14 14 0 0 0 .021.586A14 14 0 0 1 16 3a14 14 0 0 1 13.979 13.414A14 14 0 0 0 30 16 14 14 0 0 0 16 2z"/><path style="opacity:.2" d="M8.424 5.227c-.385.248-.759.516-1.117.8l3.011 9.047-7.972 4.938a14 14 0 0 0 .24.963l9.78.045 2.73 9.935A14 14 0 0 0 16 31c.226-.003.452-.012.678-.025L19.574 21H29.41a14 14 0 0 0 .291-1.14l-7.922-4.885 3.11-8.782a14 14 0 0 0-.078-.058c-.357-.288-.725-.561-1.108-.813l-7.582 5.524zm.887 2.38 5.623 4.104-3.426 2.498zm13.576.041-2.29 6.465-3.286-2.402zm-6.766 4.93 3.988 2.91-1.525 4.112H13.367l-1.396-3.998zm5.17 3.774 5.666 3.248H20.07zm-10.508.117 1.108 3.13H10.4v.01l-5.046-.021zM13.834 21h4.223l-2.178 7.879-.06-.178z"/><path style="fill:#f14c21" d="M8.424 4.227c-.385.248-.759.516-1.117.8l3.011 9.047-7.972 4.938a14 14 0 0 0 .24.963l9.78.045 2.73 9.935A14 14 0 0 0 16 30c.226-.003.452-.012.678-.025L19.574 20H29.41a14 14 0 0 0 .291-1.14l-7.922-4.885 3.11-8.782a14 14 0 0 0-.078-.058c-.357-.288-.725-.561-1.108-.813l-7.582 5.524-7.697-5.62zm.887 2.38 5.623 4.104-3.426 2.498L9.31 6.607zm13.576.041-2.29 6.465-3.286-2.402 5.576-4.063zm-6.766 4.93 3.988 2.91-1.525 4.112H13.367l-1.396-3.998 4.15-3.024zm5.17 3.774 5.666 3.248H20.07l1.221-3.248zm-10.508.117 1.108 3.13H10.4v.01l-5.046-.021 5.428-3.12zM13.834 20h4.223l-2.178 7.879-.06-.178L13.833 20z"/><path style="opacity:.2;fill:#f4f4f7" d="M8.424 4.227c-.385.248-.759.516-1.117.8l.27.807c.277-.21.555-.42.847-.607l7.697 5.619 7.582-5.524c.313.206.61.434.904.664l.282-.793a14 14 0 0 0-.078-.058c-.357-.288-.725-.561-1.108-.813l-7.582 5.524-7.697-5.62zm.887 3.38 2.197 6.602 3.426-2.498-.686-.5-2.74 1.998L9.75 7.928l-.44-.32zm13.576.041-.477.348-1.812 5.117-2.602-1.902-.685.5 3.287 2.402 2.289-6.465zm-.817 6.506-.29.82 7.7 4.749a14 14 0 0 0 .221-.864l-7.63-4.705zm-12.027.092-7.697 4.766a14 14 0 0 0 .216.865l7.756-4.803-.275-.828zm9.775 1.03L18.584 18.6H13.367l-1.117-3.202-.28.204 1.397 3.998h5.217l1.525-4.112-.29-.213zm-12.736 3.32-1.727.992 5.045.021v-.01h1.49l-.353-1H10.4v.01l-3.318-.013zm13.363.004-.375 1H26.957l-1.744-1h-4.768zM13.834 21l1.984 7.701.06.178L18.058 21h-.278l-1.9 6.879-.06-.178L14.091 21h-.258z"/></svg>