<svg height="32" width="32" xmlns="http://www.w3.org/2000/svg">
    <g fill-rule="evenodd">
        <path d="M4.573 2.55c.692.483 1.872 1.21 2.712 1.866.64.6.744.893.744 1.847V17.26c0 2.928.342 5.052-.642 7.27-1.086 2.448-3.38 3.195-4.966 5.366-1.51 1.868 1.442.977 2.6.392 2.483-1.256 4.46-1.958 7.434-2.283 3.75-.074 6.114.086 9.521.01C28.143 28.015 31 22 31 14.245 31 7.716 28.143 2 21.397 2.033A4241.51 4241.51 0 0 0 4.533 2c-.762 0-.442.215.04.55z" opacity=".2"/>
        <path d="M4.573 1.55c.692.483 1.872 1.21 2.712 1.866.64.6.744.893.744 1.847V16.26c0 2.928.342 5.052-.642 7.27-1.086 2.448-3.38 3.195-4.966 5.366-1.51 1.868 1.442.977 2.6.392 2.483-1.256 4.46-1.958 7.434-2.283 3.75-.074 6.114.086 9.521.01C28.143 27.015 31 21 31 13.245 31 6.716 28.143 1 21.397 1.033A4241.51 4241.51 0 0 0 4.533 1c-.762 0-.442.215.04.55z" fill="#e97e10"/>
        <path d="M14.194 6c2.17.004 6.622.065 7.495.489 3.814 2.142 4.384 4.71 4.304 8.37.106 3.312-1.114 6.883-4.304 8.576-1.164.565-8.496.565-8.496.565L13 6.004s.47-.005 1.194-.004z" opacity=".2"/>
        <path d="M14.194 5c2.17.004 6.622.065 7.495.489 3.814 2.142 4.384 4.71 4.304 8.37.106 3.312-1.114 6.883-4.304 8.576-1.164.565-8.496.565-8.496.565L13 5.004s.47-.005 1.194-.004z" fill="#f4f4f7"/>
        <path d="M9.973 15.023c-.094.047.176.709.472 1.122.452.629.751.998 1.377 1.568.82.746 1.033.87 1.377 1.219.345.348.791 1.004.791 1.004v10.148c0 .697-.71 1.137-.94 1.22-.322.119-1.023.346-1.023.346V32H20v-.348s-.815-.229-1.139-.347c-.229-.084-.81-.524-.818-1.221V19.762c0-.75.664-.933.926-1.045.354-.153.86-.175 1.033-.524.172-.348-.217-.174-.346-.173-1.236.007-4.459 0-4.459 0-.841 0-1.662-.114-2.342-.48a5.839 5.839 0 0 1-1.376-1.046l-1.38-1.394c-.064-.066-.105-.087-.126-.077zm21.1 0c-.022-.01-.063.011-.128.077l-1.379 1.394a5.804 5.804 0 0 1-1.377 1.045c-.68.367-1.498.48-2.34.48 0 0-3.224.008-4.46 0-.129 0-.518-.174-.346.174.172.349.679.371 1.033.524.262.112.926.295.926 1.045v10.322c-.008.697-.59 1.137-.818 1.22-.324.119-1.125.346-1.125.346V32h7.959v-.35s-.7-.227-1.024-.345c-.229-.084-.94-.524-.94-1.221V19.936s.447-.656.792-1.004c.344-.349.557-.473 1.377-1.22.626-.57.925-.938 1.377-1.567.296-.413.566-1.075.472-1.122z" opacity=".2"/>
        <path d="M9.973 14.023c-.094.047.176.709.472 1.122.452.629.751.998 1.377 1.568.82.746 1.033.87 1.377 1.219.345.348.791 1.004.791 1.004v10.148c0 .697-.71 1.137-.94 1.22-.322.119-1.023.346-1.023.346V31H20v-.348s-.815-.229-1.139-.347c-.229-.084-.81-.524-.818-1.221V18.762c0-.75.664-.933.926-1.045.354-.153.86-.175 1.033-.524.172-.348-.217-.174-.346-.173-1.236.007-4.459 0-4.459 0-.841 0-1.662-.114-2.342-.48a5.839 5.839 0 0 1-1.376-1.046l-1.38-1.394c-.064-.066-.105-.087-.126-.077zm21.1 0c-.022-.01-.063.011-.128.077l-1.379 1.394a5.804 5.804 0 0 1-1.377 1.045c-.68.367-1.498.48-2.34.48 0 0-3.224.008-4.46 0-.129 0-.518-.174-.346.174.172.349.679.371 1.033.524.262.112.926.295.926 1.045v10.322c-.008.697-.59 1.137-.818 1.22-.324.119-1.125.346-1.125.346V31h7.959v-.35s-.7-.227-1.024-.345c-.229-.084-.94-.524-.94-1.221V18.936s.447-.656.792-1.004c.344-.349.557-.473 1.377-1.22.626-.57.925-.938 1.377-1.567.296-.413.566-1.075.472-1.122z" fill="#c2352a"/>
        <path d="M4.533 1c-.761 0-.443.214.04.549.18.126.445.3.677.453 3.007 0 10.623.004 16.146.03 6.587-.032 9.46 5.418 9.592 11.755.003-.181.012-.358.012-.54C31 6.714 28.143 1 21.396 1.03 15.627 1.005 7.198 1.001 4.533 1zm3.54 19.24c-.043 1.144-.206 2.207-.686 3.291-1.086 2.448-3.38 3.195-4.967 5.365-.6.743-.483 1.039-.066 1.102.029-.039.032-.06.066-.102 1.586-2.17 3.881-2.919 4.967-5.367.614-1.386.699-2.757.685-4.289z" fill="#f4f4f7" opacity=".2"/>
    </g>
</svg>
