<svg height="32" width="32" xmlns="http://www.w3.org/2000/svg">
    <circle cx="16" cy="17" opacity=".2" r="14"/>
    <circle cx="16" cy="16" fill="#4f4f4f" r="14"/>
    <path d="M16 2A14 14 0 0 0 2 16a14 14 0 0 0 .022.586A14 14 0 0 1 16 3a14 14 0 0 1 13.979 13.414A14 14 0 0 0 30 16 14 14 0 0 0 16 2z" fill="#f4f4f7" opacity=".1"/>
    <path d="M13.156 7.127C8.988 8.622 6.005 12.572 6 17c0 5.799 4 11 10.7 11 2.947-.005 5.758-1.749 7.743-3.928-.288.105-.59.205-.884.313l.003-.006c.065-.216-.413-.315-.453-.502a4.861 4.861 0 0 1 .047-2.186c.136-.54.806-.894.807-1.45.001-.813-.264-1.526-.264-1.526s.543-.2.799-.346a.989.989 0 0 0 .479-.85c-.002-.217-.267-.379-.403-.603-.113-.187-.116-.435-.252-.605-.115-.146-.543-.362-.543-.362s-.228-.966-.654-.931c-.174.013-.125.906-.125.906s-.926.583-.982 1.457c-.024.373-.313.476-.63.742-.316.266-.658.694-1.005.793-2.537.723-2.7 1.98-2.764 3.408-.02.442.227 1.309.227 1.309s-1.227-1.122-1.274-1.926" opacity=".2"/>
    <path d="M13.156 6.127C8.988 7.622 6.005 11.572 6 16c0 5.799 4 11 10.7 11 2.947-.005 5.758-1.749 7.743-3.928-.288.105-.59.205-.884.313l.003-.006c.065-.216-.413-.315-.453-.502a4.861 4.861 0 0 1 .047-2.186c.136-.54.806-.894.807-1.45.001-.813-.264-1.526-.264-1.526s.543-.2.799-.346a.989.989 0 0 0 .479-.85c-.002-.217-.267-.379-.403-.603-.113-.187-.116-.434-.252-.605-.115-.146-.543-.362-.543-.362s-.228-.965-.654-.931c-.174.013-.125.906-.125.906s-.926.583-.982 1.457c-.024.373-.313.476-.63.742-.316.266-.658.694-1.005.793-2.537.723-2.7 1.981-2.764 3.408-.02.443.227 1.309.227 1.309s-1.227-1.122-1.274-1.926" fill="#f4f4f7"/>
</svg>
