<svg width="32" height="32" xmlns="http://www.w3.org/2000/svg"><path d="M16 6c-.89 2.183-1.427 3.61-2.419 5.728a15.612 15.612 0 0 0 2.566 2.241c-1.303-.536-2.191-1.074-2.855-1.632-1.269 2.647-3.257 6.417-7.29 13.663 3.17-1.83 4.878-2.958 7.168-3.388a5.801 5.801 0 0 1-.15-1.358l.003-.102c.05-2.03 1.238-4.152 3.108-4.152s2.925 2.505 2.875 4.536c-.01.382-.053.75-.128 1.09 2.265.8b9cbe 3.996 1.569 7.124 3.374-.617-1.135-1.167-2.158-1.693-3.133-.828-.641-1.691-1.476-3.453-2.38 1.21.314 2.078.677 2.754 1.083C18.265 11.622 17.833 10.3 16 6z" style="fill-rule:evenodd;fill:#17191e"/><path d="M15 6h2v21l-2 4z" style="opacity:.2"/><path d="M15 5h2v21l-2 4z" style="fill:#8e8e8e"/><path d="M15.983 6.5a.5.5 0 0 0-.446.31v.003c-.892 2.187-1.424 3.6-2.408 5.7a.5.5 0 0 0-.025.36.5.5 0 0 0-.262.246c-1.26 2.63-3.246 6.393-7.277 13.635a.5.5 0 0 0 .687.678c3.18-1.836 4.83-2.92 7.01-3.33a.5.5 0 0 0 .394-.606 5.305 5.305 0 0 1-.136-1.236v-.004l.004-.088a.5.5 0 0 0 0-.006c.022-.922.311-1.878.783-2.566.471-.689 1.078-1.098 1.824-1.098.712 0 1.283.466 1.72 1.25.438.784.678 1.85.655 2.774-.009.352-.048.69-.115.996a.5.5 0 0 0 .39.597c2.156.422 3.835 1.507 6.971 3.317a.5.5 0 0 0 .69-.672c-.617-1.134-1.166-2.156-1.692-3.13a.5.5 0 0 0-.135-.16c-.161-.124-.54-.348-.718-.493a.5.5 0 0 0 .154-.645c-5.34-9.941-5.756-11.221-7.592-15.53a.5.5 0 0 0-.476-.302zm.027 1.762c1.376 3.253 2.498 5.766 6.549 13.36-.472-.197-.848-.414-1.47-.58l-.005-.003c-.043-.011-.058-.028-.101-.039a.5.5 0 0 0-.356.93c1.67.857 2.46 1.62 3.299 2.277l.81 1.5c-1.98-1.15-3.61-2-5.318-2.412.035-.247.082-.488.088-.748.027-1.107-.236-2.309-.781-3.285-.545-.977-1.436-1.764-2.594-1.764-1.124 0-2.046.651-2.648 1.531s-.932 2.001-.96 3.11l-.003.096a.5.5 0 0 0 0 .013c-.003.362.061.694.115 1.03-1.731.405-3.37 1.263-5.379 2.433 3.07-5.553 5.103-9.351 6.236-11.693.63.464 1.326.917 2.362 1.353l.007.006v-.002c.043.018.053.037.096.055a.5.5 0 0 0 .477-.871c-1.065-.745-1.687-1.38-2.252-1.969.712-1.546 1.236-2.859 1.828-4.328z" style="fill-rule:evenodd;opacity:.2"/><path d="M16 6c-.89 2.183-1.427 3.61-2.419 5.728a15.612 15.612 0 0 0 2.566 2.241c-1.303-.536-2.191-1.074-2.855-1.632-1.269 2.647-3.257 6.417-7.29 13.663 3.17-1.83 4.878-2.958 7.168-3.388a5.801 5.801 0 0 1-.15-1.358l.003-.102c.05-2.03 1.238-4.152 3.108-4.152s2.925 2.505 2.875 4.536c-.01.382-.053.75-.128 1.09 2.265.8b9cbe 3.996 1.569 7.124 3.374-.617-1.135-1.167-2.158-1.693-3.133-.828-.641-1.691-1.476-3.453-2.38 1.21.314 2.078.677 2.754 1.083C18.265 11.622 17.833 10.3 16 6z" style="fill:none;stroke-linecap:round;stroke-linejoin:round;stroke:#3db0ea"/><path d="M16.012 2.943c-.554 0-1 .446-1 1v1c0 .02.01.037.011.057a3 1 0 0 0-2.011.943 3 1 0 0 0 3 1 3 1 0 0 0 3-1A3 1 0 0 0 17 5c.001-.02.012-.037.012-.057v-1c0-.554-.446-1-1-1z" style="opacity:.2"/><path d="M16 2c-.554 0-1 .446-1 1v1c0 .02.01.037.012.057A3 1 0 0 0 13 5a3 1 0 0 0 3 1 3 1 0 0 0 3-1 3 1 0 0 0-2.012-.943C16.99 4.037 17 4.02 17 4V3c0-.554-.446-1-1-1z" style="fill:#4f4f4f"/><path d="M16 2c-.554 0-1 .446-1 1v1c0 .02.01.037.012.057v-.114c0-.554.446-1 1-1 .533 0 .956.417.988.942V3c0-.554-.446-1-1-1zm-.988 2.057A3 1 0 0 0 13 5a3 1 0 0 0 .365.477A3 1 0 0 1 15.023 5c0-.02-.011-.037-.011-.057v-.886zm2 .002v.884c0 .02-.01.037-.012.057a3 1 0 0 1 1.648.469A3 1 0 0 0 19 5a3 1 0 0 0-1.988-.941z" style="fill:#f4f4f7;opacity:.2"/><path d="M15.982 5.502a.5.5 0 0 0-.445.31v.002c-.892 2.187-1.424 3.6-2.408 5.702a.5.5 0 0 0-.025.359.5.5 0 0 0-.262.246c-1.26 2.63-3.246 6.392-7.278 13.635a.5.5 0 0 0 .18.674c3.878-6.974 5.861-10.73 7.098-13.309a.5.5 0 0 1 .262-.246.5.5 0 0 1 .025-.36c.984-2.1 1.516-3.514 2.408-5.7v-.002a.5.5 0 0 1 .445-.311.5.5 0 0 1 .477.303c1.836 4.308 2.251 5.587 7.592 15.529a.5.5 0 0 1-.155.645c.18.145.558.368.72.494a.5.5 0 0 1 .134.158c.47.87.974 1.804 1.512 2.797a.5.5 0 0 0 .18-.666c-.617-1.134-1.166-2.156-1.692-3.131a.5.5 0 0 0-.135-.158c-.161-.126-.54-.349-.719-.494a.5.5 0 0 0 .155-.645c-5.34-9.942-5.756-11.221-7.592-15.53a.5.5 0 0 0-.477-.302zm-1.496 6.39c-.105.237-.19.453-.304.7.535.559 1.133 1.16 2.1 1.855a.5.5 0 0 0 .152-.886 12.877 12.877 0 0 1-1.948-1.668zm1.645 4.608c-1.124 0-2.046.651-2.649 1.531s-.931 2.001-.959 3.11l-.003.095a.5.5 0 0 0 0 .014c-.002.181.014.355.037.525.083-.985.39-1.959.925-2.742.603-.88 1.525-1.533 2.649-1.533 1.158 0 2.049.787 2.594 1.764.423.76.673 1.653.752 2.535.009-.084.027-.163.029-.25.027-1.107-.237-2.309-.781-3.285-.545-.977-1.436-1.764-2.594-1.764zm4.703 3.484a.5.5 0 0 0-.207.948c.043.022.073.042.115.064a.5.5 0 0 1 .24.006c.044.011.06.028.102.039l.004.002c.622.167.998.384 1.47.58-.272-.511-.436-.836-.683-1.303-.23-.099-.477-.194-.787-.277l-.004-.002c-.043-.011-.058-.028-.102-.039a.5.5 0 0 0-.148-.018zm-2.361 1.819c-.019.246-.034.496-.082.717a.5.5 0 0 0 .07.382c.012-.129.042-.244.045-.379a5.435 5.435 0 0 0-.033-.72zm-4.922.07c-.008.097-.025.194-.028.291a.5.5 0 0 1 0 .006l-.003.088v.004c-.002.227.011.448.037.664a.5.5 0 0 0 .1-.428c-.047-.2-.083-.41-.106-.625zm-1.028.44c-1.454.358-2.865 1.043-4.48 1.955-.293.532-.473.876-.787 1.445 1.56-.909 2.898-1.621 4.228-2.088.38-.148.759-.274 1.147-.375-.05-.306-.103-.61-.108-.938zm6.973.007c0 .076.012.154.01.229-.006.25-.05.484-.084.722.37.1.737.221 1.101.364 1.327.466 2.663 1.174 4.213 2.074l-.777-1.44c-1.606-.903-3.017-1.588-4.463-1.949z" style="fill-rule:evenodd;fill:#f4f4f7;opacity:.2"/></svg>