<svg xmlns="http://www.w3.org/2000/svg" width="32" height="32"><rect style="opacity:.2" width="28" height="28" x="2" y="3" rx="1.4" ry="1.4"/><rect style="fill:#8b9cbe" width="28" height="28" x="2" y="2" rx="1.4" ry="1.4"/><path style="opacity:.2" d="m11 8-2 2 6.531 8.164-1.226 1.471L12 17 4 27h24l-5-6-.889.889-3.845-4.807L25 9l-1-1-6.633 7.959zm5.428 11.285 3.683 4.604L19 25l-3.756-4.293z"/><path style="fill:#f4f4f7" d="M11 7 9 9l6.531 8.164-1.226 1.471L12 16 4 26h24l-5-6-.889.889-3.845-4.807L25 8l-1-1-6.633 7.959zm5.428 11.285 3.683 4.604L19 24l-3.756-4.293z"/><path style="fill:#f4f4f7;opacity:.1" d="M3.4 2C2.625 2 2 2.625 2 3.4v1C2 3.625 2.625 3 3.4 3h25.2c.775 0 1.4.625 1.4 1.4v-1c0-.775-.625-1.4-1.4-1.4H3.4z"/></svg>