<svg xmlns="http://www.w3.org/2000/svg" width="32" height="32" version="1"><path style="opacity:.2" d="M30 17a14 14 0 0 1-14 14A14 14 0 0 1 2 17 14 14 0 0 1 16 3a14 14 0 0 1 14 14z"/><path style="fill:#33c5ff" d="M30 16a14 14 0 0 1-14 14A14 14 0 0 1 2 16 14 14 0 0 1 16 2a14 14 0 0 1 14 14z"/><path style="opacity:.2;fill-rule:evenodd" d="M12.22 27.331a10.99 10.99 0 0 1-1.905-.922c2.961.228 6.825-.455 9.43-2.894 0 0 4.968-3.968 1.375-10.482 0 0 .579 2.625-.16 4.785 0 0-.704 3.061-3.835 3.915-4.611 1.256-9.865-2.097-12.062-3.66-.165-1.608-.018-3.269.57-4.89.874-2.4 2.615-4.274 4.62-5.532-.5 3.508-.104 6.738.465 8.09.765 1.814 1.995 4.055 4.587 4.326 2.593.273 4.023-2.28 4.023-2.28 1.33-2.02 1.538-4.923 1.518-4.993-.02-.07-.355-.262-.355-.262-.895 3.622-2.37 4.832-2.37 4.832-2.328 2.247-4.176.689-4.176.689-1.772-1.903-.532-4.996-.532-4.996.694-2.107 2.916-5.19 5.208-6.759.381.095.765.154 1.142.291a10.934 10.934 0 0 1 3.629 2.204c-1.676.612-4.381 1.905-4.381 1.905-4.288 1.806-4.578 4.538-4.578 4.538-.8b9cbe 2.815 1.79 1.624 1.79 1.624 2.3-1.12 3.43-4.61 3.43-4.61-.718-.137-1.284.08-1.284.08-.917 2.266-2.79 3.198-2.79 3.198-.737.39-.908-.3-.908-.3-.124-.516.533-.604.533-.604 1.02-.396 1.673-1.468 1.82-1.907.148-.439.421-.473.421-.473 1.399-.446 2.674-.546 2.674-.546 1.736-.214 4.393.614 4.393.614.596.24 1.167.42 1.675.563.974 2.433 1.128 5.204.162 7.86-2.08 5.727-8.407 8.681-14.128 6.596z"/><path style="fill:#f4f4f7;fill-rule:evenodd" d="M12.22 26.331a10.99 10.99 0 0 1-1.905-.922c2.961.228 6.825-.455 9.43-2.894 0 0 4.968-3.968 1.375-10.482 0 0 .579 2.625-.16 4.785 0 0-.704 3.061-3.835 3.915-4.611 1.256-9.865-2.097-12.062-3.66-.165-1.608-.018-3.269.57-4.89.874-2.4 2.615-4.274 4.62-5.532-.5 3.508-.104 6.738.465 8.09.765 1.814 1.995 4.055 4.587 4.326 2.593.273 4.023-2.28 4.023-2.28 1.33-2.02 1.538-4.923 1.518-4.993-.02-.07-.355-.262-.355-.262-.895 3.622-2.37 4.832-2.37 4.832-2.328 2.247-4.176.689-4.176.689-1.772-1.903-.532-4.996-.532-4.996.694-2.107 2.916-5.19 5.208-6.759.381.095.765.154 1.142.291a10.934 10.934 0 0 1 3.629 2.204c-1.676.612-4.381 1.905-4.381 1.905-4.288 1.806-4.578 4.538-4.578 4.538-.8b9cbe 2.815 1.79 1.624 1.79 1.624 2.3-1.12 3.43-4.61 3.43-4.61-.718-.137-1.284.08-1.284.08-.917 2.266-2.79 3.198-2.79 3.198-.737.39-.908-.3-.908-.3-.124-.516.533-.604.533-.604 1.02-.396 1.673-1.468 1.82-1.907.148-.439.421-.473.421-.473 1.399-.446 2.674-.546 2.674-.546 1.736-.214 4.393.614 4.393.614.596.24 1.167.42 1.675.563.974 2.433 1.128 5.204.162 7.86-2.08 5.727-8.407 8.681-14.128 6.596z"/><path style="fill:#f4f4f7;opacity:.2" d="M16 2A14 14 0 0 0 2 16a14 14 0 0 0 .021.586A14 14 0 0 1 16 3a14 14 0 0 1 13.979 13.414A14 14 0 0 0 30 16 14 14 0 0 0 16 2z"/></svg>