<svg xmlns="http://www.w3.org/2000/svg" width="32" height="32" version="1"><path style="fill:#17191e" d="M2 5h14.175l7.525 5.758v14.18H2z"/><path style="opacity:.2" d="M2 6v7h16.8c2.403 0 4.2 1.64 4.2 4 0 2.36-1.798 3.97-4.2 4H9v-6H2v13h16.8C24.986 28 30 23.075 30 17S24.986 6 18.8 6z"/><path style="fill:#e13c3c" d="M2 5v7h16.8c2.403 0 4.2 1.64 4.2 4 0 2.36-1.798 3.97-4.2 4H9v-6H2v13h16.8C24.986 27 30 22.075 30 16S24.986 5 18.8 5z"/><path style="opacity:.1;fill:#f4f4f7" d="M2 5v1h16.8c6.015 0 10.907 4.659 11.175 10.5.007-.167.025-.331.025-.5 0-6.075-5.014-11-11.2-11H2zm0 9v1h7v-1H2zm20.951 2.5c-.24 2.079-1.925 3.472-4.15 3.5H9v1h9.8c2.403-.03 4.2-1.64 4.2-4 0-.174-.03-.335-.049-.5z"/></svg>