<svg height="32" width="32" xmlns="http://www.w3.org/2000/svg">
    <path d="M16 2A14 14 0 0 0 2 16a14 14 0 0 0 14 14 14 14 0 0 0 14-14A14 14 0 0 0 16 2z" fill="#f4b400"/>
    <path d="M14.209 2.06a13.916 13.916 0 0 0-5.056 1.668l.993.248.642.45v.385l1.095.709-.257 1.03-.578-.45-.387.45-.45.256-.257-.772.128-.45-.128-.321-.644-.58h-.257l.257.644v.579c-.253-.071-.514-.096-.773-.129l.708.515.065.322.836.708.835-.193v-.515l.387.257-.192.45h.642l.323.579.385.451.773.128-.451.45-.129.451h.58l.706.385v1.158h-.321l-.321.322-.708-.322-.257-.708-.515-.32-.065-.258-.835-.193-.451.514-.514.257.321.58-.45-.129-.258-.579.58-.642h-.257l-.516.45-.128.643-.45.578-.129-.835-.258-.13c-.272.289-.477.64-.707.965l-.901.065-.451.322.194.321.514.45h.708l.965-.321.45.064.386.385 1.029-1.029.708-.193 1.03.129.965.258a53.3 53.3 0 0 1 1.543 1.865l.58 1.48-.259.257.516.773-.58 1.35c-.468.541-.947 1.067-1.415 1.608l-.708-.578-.257.321-.772-.45-.257.258h-.707l-.451.513.257.901-.514.58.064 1.029-.45.771.322.644c.027.468.064.947.064 1.415-.226.634-.495 1.226-.708 1.866l-.129 1.029v.514h-.385l-.644-.385h-.614a13.943 13.943 0 0 0 8.14 2.612c2.287 0 4.436-.555 6.338-1.519l.032-.064-.451-.45-.129-.451-.707-.193-.515-1.415.129-.32-.322-.58-.836-.193-.386-.965.064-1.286-.643-.901-.065-.901c.878-.445 1.703-.893 2.574-1.351l.45-.9.772-.193.45-1.158 1.03.128.965-.707.965.9v.129c.291-.087.641-.095.9-.258l.193-.642v-.644l.643.065c-.053-.433-.139-.919-.193-1.351h.387l.385.514.386.192.515-.32.065-.643-.065-.772-.837-.58h-.642l-.13-.386-.77.193-.58.709-.129-1.223-1.029-.836-.321-.965-.773-.322-.45-.58-.965-.192-.451-.772h1.417l-.901-.385h-.644l-.835-.322-.13.835-.385-.578.45-.321-.129-.323.323-.321.385-.064-.128-.386.32-.58.645.258-.129-.514.771-.452.58 1.094-.065.323.579.257.387.836.128-.772 1.03-.385.192-.58-1.35-.773-.58-.578-.064-.708.034-.02c-.147-.098-.305-.185-.458-.278l.233.558h-.644l-.193-.515-.578.449h-.515v-.514l.579-.258.514.323-.064-.129c-.258-.187-.507-.4-.77-.58l-.644.194c-.4.278-.758.559-1.158.836l-.644-.579.708-.257.257-.643.501-.056c-.27-.1-.54-.203-.818-.286l-1.291.921v.579l.514.579-.707 1.415-.515-.257-.578-.965a21.073 21.073 0 0 1-2.511-.965l.064.385-.385.259-.708-.516.322-.385.514.257.065-.064-.632-1.724zM7.773 4.619c-.218.159-.44.313-.65.484l.256.288.709-.772zm5.332.709h.386v.384l-.256.322v.58l.128.836-.644-.129-.514-.45.45-.45c.14-.383.273-.726.45-1.093zm.964.836.387.129-.064.77-.58-.321zM4.035 12.725l-.58.643-.642-.064c-.227.21-.452.39-.662.599a14.226 14.226 0 0 0-.149 2.04c0 4.595 2.204 8.647 5.605 11.196l-.871-1.034.13-.45-.772-.644.578-.578-.643-.514-.643-.386-.257-.323.192-.707v-1.801l-.514-1.094-.58-.644-.708-1.672v-.451c.332.042.642.106.966.13l-.643-.708-.901-.644-.515-.578v-.58c.11-.213.212-.495.323-.707l.45.578.32-.45.516-.386v-.771zm2.509.322-.578.706-.773 1.609-.45.514.257.579-.45.514c.188.012.385 0 .578 0 .351-.752.634-1.529.901-2.316l.45-.514.258-.965-.194-.129zm23.445 2.528c-.026.045-.093.173-.093.173l-1.094.645-1.158.32-.45.644-.772.579-.387-.129-.32.193v.065l.384 1.4" fill="#f4f4f7" opacity=".2"/>
    <path d="M16 2A14 14.011 0 0 0 2 16.011a14 14.011 0 0 0 .01.203A14 14.011 0 0 1 16 2.5a14 14.011 0 0 1 13.99 13.8 14 14.011 0 0 0 .01-.289A14 14.011 0 0 0 16 2z" fill="#f4f4f7" opacity=".2"/>
    <path d="M2.01 16.25a14 13.961 0 0 0-.01.288A14 13.961 0 0 0 16 30.5a14 13.961 0 0 0 14-13.961 14 13.961 0 0 0-.01-.204A14 13.961 0 0 1 16 30.002 14 13.961 0 0 1 2.01 16.25z" opacity=".2"/>
    <path d="m10.5 16.206-1.236-2.505L6.5 13.3l2-1.95-.472-2.752 2.472 1.3 2.472-1.3-.472 2.752 2 1.95-2.764.401zm9.5-2.402L18.764 11.3 16 10.898l2-1.95-.472-2.752L20 7.496l2.472-1.3L22 8.949l2 1.95-2.764.4zm-8.5 12.402-1.236-2.505L7.5 23.3l2-1.95-.472-2.752 2.472 1.3 2.472-1.3-.472 2.752 2 1.95-2.764.401zm11-3-1.236-2.505L18.5 20.3l2-1.95-.472-2.752 2.472 1.3 2.472-1.3-.472 2.752 2 1.95-2.764.401z" opacity=".3"/>
    <path d="m10.5 15.706-1.236-2.505L6.5 12.8l2-1.95-.472-2.752 2.472 1.3 2.472-1.3-.472 2.752 2 1.95-2.764.402zm9.5-2.402L18.764 10.8 16 10.398l2-1.95-.472-2.752L20 6.995l2.472-1.3L22 8.449l2 1.95-2.764.401zm-8.5 12.402-1.236-2.505L7.5 22.8l2-1.95-.472-2.752 2.472 1.3 2.472-1.3-.472 2.752 2 1.95-2.764.401zm11-3-1.236-2.505L18.5 19.8l2-1.95-.472-2.752 2.472 1.3 2.472-1.3-.472 2.752 2 1.95-2.764.401z" fill="#f4f4f7"/>
</svg>
