<svg height="32" width="32" xmlns="http://www.w3.org/2000/svg"><path d="m27 28.6v-25.2c0-.776-.613-1.4-1.375-1.4h-19.25c-.762 0-1.375.624-1.375 1.4v25.2c0 .776.613 1.4 1.375 1.4h19.25c.762 0 1.375-.624 1.375-1.4z" fill="#f58435"/><path d="m11 12a3 3 0 1 0 3 3h-3zm5 0v2h7v-2zm0 4v2h7v-2zm-8 4v2h12v-2z" fill="#d6352f"/><path d="m6.375 2c-.762 0-1.375.625-1.375 1.4v1c0-.775.613-1.4 1.375-1.4h19.25c.762 0 1.375.625 1.375 1.4v-1c0-.775-.613-1.4-1.375-1.4z" fill="#fff" opacity=".2"/><path d="m5 28.6v1c0 .775.613 1.4 1.375 1.4h19.25c.762 0 1.375-.625 1.375-1.4v-1c0 .775-.613 1.4-1.375 1.4h-19.25a1.385 1.385 0 0 1 -1.375-1.4z" opacity=".2"/></svg>