<svg xmlns="http://www.w3.org/2000/svg" width="32" height="32" version="1">
    <path style="fill:#325f78" transform="matrix(0 -1 -1 0 0 0)" d="M-25.5-31h19c.831 0 1.5.669 1.5 1.5v26C-5-2.669-5.669-2-6.5-2h-19c-.831 0-1.5-.669-1.5-1.5v-26c0-.831.669-1.5 1.5-1.5z"/>
    <path style="opacity:.2" transform="matrix(0 -1 -1 0 0 0)" d="M-25-29h18v25h-18z"/>
    <path style="opacity:.1;fill:#f4f4f7" d="M3.5 5C2.669 5 2 5.667 2 6.5v1C2 6.667 2.669 6 3.5 6h26c.831 0 1.5.668 1.5 1.5v-1c0-.832-.669-1.5-1.5-1.5z"/>
    <path style="opacity:.2" d="M2 25.5v1c0 .831.669 1.5 1.5 1.5h26c.831 0 1.5-.669 1.5-1.5v-1c0 .831-.669 1.5-1.5 1.5h-26c-.831 0-1.5-.669-1.5-1.5zM5.375 10a.374.374 0 0 0-.375.375v2.25c0 .208.167.375.375.375h2.25A.374.374 0 0 0 8 12.625v-2.25A.374.374 0 0 0 7.625 10zm5 0a.374.374 0 0 0-.375.375v2.25c0 .208.167.375.375.375h2.25a.374.374 0 0 0 .375-.375v-2.25a.374.374 0 0 0-.375-.375zm5 0a.374.374 0 0 0-.375.375v2.25c0 .208.167.375.375.375h2.25a.374.374 0 0 0 .375-.375v-2.25a.374.374 0 0 0-.375-.375zm5 0a.374.374 0 0 0-.375.375v2.25c0 .208.167.375.375.375h2.25a.374.374 0 0 0 .375-.375v-2.25a.374.374 0 0 0-.375-.375zm5 0a.374.374 0 0 0-.375.375v2.25c0 .208.167.375.375.375h2.25a.374.374 0 0 0 .375-.375v-2.25a.374.374 0 0 0-.375-.375zm-20 5a.374.374 0 0 0-.375.375v2.25c0 .208.167.375.375.375h2.25A.374.374 0 0 0 8 17.625v-2.25A.374.374 0 0 0 7.625 15zm5 0a.374.374 0 0 0-.375.375v2.25c0 .208.167.375.375.375h2.25a.374.374 0 0 0 .375-.375v-2.25a.374.374 0 0 0-.375-.375zm5 0a.374.374 0 0 0-.375.375v2.25c0 .208.167.375.375.375h2.25a.374.374 0 0 0 .375-.375v-2.25a.374.374 0 0 0-.375-.375zm5 0a.374.374 0 0 0-.375.375v2.25c0 .208.167.375.375.375h2.25a.374.374 0 0 0 .375-.375v-2.25a.374.374 0 0 0-.375-.375zm5 0a.374.374 0 0 0-.375.375v2.25c0 .208.167.375.375.375h2.25a.374.374 0 0 0 .375-.375v-2.25a.374.374 0 0 0-.375-.375zm-15 5a.374.374 0 0 0-.375.375v2.25c0 .208.167.375.375.375h12.25a.374.374 0 0 0 .375-.375v-2.25a.374.374 0 0 0-.375-.375z"/>
    <path style="fill:#f4f4f7" d="M5.375 9A.374.374 0 0 0 5 9.375v2.25c0 .208.167.375.375.375h2.25A.374.374 0 0 0 8 11.625v-2.25A.374.374 0 0 0 7.625 9zm5 0a.374.374 0 0 0-.375.375v2.25c0 .208.167.375.375.375h2.25a.374.374 0 0 0 .375-.375v-2.25A.374.374 0 0 0 12.625 9zm5 0a.374.374 0 0 0-.375.375v2.25c0 .208.167.375.375.375h2.25a.374.374 0 0 0 .375-.375v-2.25A.374.374 0 0 0 17.625 9zm5 0a.374.374 0 0 0-.375.375v2.25c0 .208.167.375.375.375h2.25a.374.374 0 0 0 .375-.375v-2.25A.374.374 0 0 0 22.625 9zm5 0a.374.374 0 0 0-.375.375v2.25c0 .208.167.375.375.375h2.25a.374.374 0 0 0 .375-.375v-2.25A.374.374 0 0 0 27.625 9zm-20 5a.374.374 0 0 0-.375.375v2.25c0 .208.167.375.375.375h2.25A.374.374 0 0 0 8 16.625v-2.25A.374.374 0 0 0 7.625 14zm5 0a.374.374 0 0 0-.375.375v2.25c0 .208.167.375.375.375h2.25a.374.374 0 0 0 .375-.375v-2.25a.374.374 0 0 0-.375-.375zm5 0a.374.374 0 0 0-.375.375v2.25c0 .208.167.375.375.375h2.25a.374.374 0 0 0 .375-.375v-2.25a.374.374 0 0 0-.375-.375zm5 0a.374.374 0 0 0-.375.375v2.25c0 .208.167.375.375.375h2.25a.374.374 0 0 0 .375-.375v-2.25a.374.374 0 0 0-.375-.375zm5 0a.374.374 0 0 0-.375.375v2.25c0 .208.167.375.375.375h2.25a.374.374 0 0 0 .375-.375v-2.25a.374.374 0 0 0-.375-.375zm-15 5a.374.374 0 0 0-.375.375v2.25c0 .208.167.375.375.375h12.25a.374.374 0 0 0 .375-.375v-2.25a.374.374 0 0 0-.375-.375z"/>
</svg>
