<svg xmlns="http://www.w3.org/2000/svg" width="32" height="32"><path style="opacity:.2" d="M30 16.5A14.5 14.5 0 0 1 15.512 31 14.5 14.5 0 0 1 1 16.523 14.5 14.5 0 0 1 15.465 2 14.5 14.5 0 0 1 30 16.454"/><path style="fill:#fb8c15" d="M30 15.5A14.5 14.5 0 0 1 15.512 30 14.5 14.5 0 0 1 1 15.523 14.5 14.5 0 0 1 15.465 1 14.5 14.5 0 0 1 30 15.454"/><g style="fill:#c04500"><path style="fill:#c04500;fill-rule:evenodd" d="M9.452 8.557c-1.361 5.595-3.657 4.47-3.657 4.47-.375-.31-.238-2.205.125-2.688.483.02.888.277 1.657-2.094.76-2.343.216-2.667-.313-2.938-.03-.989.709-2.114 1.25-2.375 0 0 2.292.06.938 5.625zM7.613 2.56c-.587.663-.964 1.526-1.218 2.437 0 0-1.025-.726-.483-1.842.555-1.14 1.701-.595 1.701-.595zM5.116 10.158c-.422.79-.478 1.698-.167 2.72 0 0-1.08.097-1.142-1.45-.061-1.548 1.309-1.27 1.309-1.27z" transform="matrix(1.97547 0 0 1.96455 2.483 .227)"/></g><path style="opacity:.2;fill:none;stroke:#000;stroke-width:.69999999;stroke-linecap:round;stroke-linejoin:round" d="M5.287 17.788c.279-1.199.21-4.684 1.06-4.279.85.406 1.482 5.555 2.285 6.081.803.526.405-3.008.927-4.266s.5.239 1.162-.72c.661-.959.753-4.201 1.484-3.016.732 1.186.647 6.23 1.442 7.712.796 1.482.919-1.882 1.74-1.938.821-.055 1.07 2.281 1.545 1.876.475-.406.048-1.725.353-3.444.305-1.72.037-4.08.868-3.262.83.818 1.48 5.495 2.456 6.532.975 1.037.344-2.389 1.444-2.673 1.1-.284 2.219 1.153 2.958 1.537"/><path style="fill:none;stroke:#fff18f;stroke-width:.69999999;stroke-linecap:round;stroke-linejoin:round" d="M5.287 16.787c.279-1.198.21-4.684 1.06-4.278.85.406 1.482 5.555 2.285 6.081.803.526.405-3.008.927-4.266s.5.239 1.162-.72c.661-.96.753-4.202 1.484-3.016.732 1.186.647 6.23 1.442 7.712.796 1.482.919-1.882 1.74-1.938.821-.056 1.07 2.28 1.545 1.875.475-.405.048-1.724.353-3.444s.037-4.079.868-3.261c.83.818 1.48 5.495 2.456 6.532.975 1.036.344-2.39 1.444-2.673 1.1-.284 2.219 1.153 2.958 1.537"/><path style="opacity:.2" d="M26 17.5a1.5 1.5 0 0 1-1.499 1.5A1.5 1.5 0 0 1 23 17.502 1.5 1.5 0 0 1 24.496 16 1.5 1.5 0 0 1 26 17.495"/><path style="fill:#f4f4f7" d="M26 16.5a1.5 1.5 0 0 1-1.499 1.5A1.5 1.5 0 0 1 23 16.502 1.5 1.5 0 0 1 24.496 15 1.5 1.5 0 0 1 26 16.495"/><path style="opacity:.2;fill:#f4f4f7" d="M15.465 1A14.5 14.5 0 0 0 1 15.523a14.5 14.5 0 0 0 .021.57A14.5 14.5 0 0 1 15.465 2a14.5 14.5 0 0 1 14.514 13.916A14.5 14.5 0 0 0 30 15.5v-.047A14.5 14.5 0 0 0 15.465 1z"/></svg>