<svg xmlns="http://www.w3.org/2000/svg" width="32" height="32" version="1"><rect style="fill:#6966b2" width="28" height="28" x="2" y="2" rx="14" ry="14"/><path opacity=".2" d="M10.537 25.193s1.073.312 2.501.49c.579.072 2.78.324 4.467.317 0 0 2.055.002 3.19-.159 1.186-.168 1.859-.383 2.233-.813.01-.102.18-.436-.28-.758-1.18-.823-2.705-1.048-5.667-1.751-3.276-.824-4.254-1.612-4.743-2.183-.464-.572.087-1.76 2.726-2.343 1.336-.325 6.313-.384 6.313-.384-1.428-1.134-4.108-3.164-4.656-3.595-.48-.379-1.255-.96-1.339-1.479-.112-.505.684-.749 1.105-.777 1.357-.093 3.21.066 4.857.393.828.165.973.14.973.14 1.179.057 2.096-.56 2.05-1.861-.01-1.32-1.33-2.378-2.79-2.424-1.374-.044-4.763.196-4.763.196 3.95.814 4.595 1.022 4.801 1.498.122.28-.203.56-1.29.505-1.186-.06-3.614-.346-3.614-.346-2.31-.356-3.92-.693-4.623.224-.458.6.066 1.33.271 1.76.918 1.6 2.503 2.698 3.51 3.472.378.29 1.534.935 1.534.935-3.593-.982-6.457-.43-8.272.524-2.087 1.236-1.73 3.32 1.581 5.27 1.956 1.15 2.93 1.703 6.132 2.096 1.872.299 2.151.42 2.137.577-.02.219-2.216.302-2.819.344-1.535.106-5.506.132-5.525.132z"/><path fill="#fff" style="opacity:.1" d="M16 2C8.244 2 2 8.244 2 16c0 .169.02.333.025.5A13.957 13.957 0 0 1 16 3c7.588 0 13.711 5.98 13.975 13.5.006-.167.026-.331.026-.5 0-7.756-6.244-14-14-14z"/><path opacity=".2" d="M2.025 16.5c-.006.167-.025.331-.025.5 0 7.756 6.244 14 14 14s14-6.244 14-14c0-.169-.02-.333-.025-.5C29.71 24.021 23.587 30 16 30 8.412 30 2.289 24.021 2.025 16.5z"/><path fill="#fff" d="M10.537 24.193s1.073.312 2.501.49c.579.072 2.78.324 4.467.317 0 0 2.055.002 3.19-.159 1.186-.168 1.859-.383 2.233-.813.01-.102.18-.436-.28-.758-1.18-.823-2.705-1.048-5.667-1.751-3.276-.824-4.254-1.612-4.743-2.183-.464-.572.087-1.76 2.726-2.343 1.336-.325 6.313-.384 6.313-.384-1.428-1.134-4.108-3.164-4.656-3.595-.48-.379-1.255-.96-1.339-1.479-.112-.505.684-.749 1.105-.777 1.357-.093 3.21.066 4.857.393.828.165.973.14.973.14 1.179.057 2.096-.56 2.05-1.861-.01-1.32-1.33-2.378-2.79-2.424-1.374-.044-4.763.196-4.763.196 3.95.814 4.595 1.022 4.801 1.498.122.28-.203.56-1.29.505-1.186-.06-3.614-.346-3.614-.346-2.31-.356-3.92-.693-4.623.224-.458.6.066 1.33.271 1.76.918 1.6 2.503 2.698 3.51 3.472.378.29 1.534.935 1.534.935-3.593-.982-6.457-.43-8.272.524-2.087 1.236-1.73 3.32 1.581 5.27 1.956 1.15 2.93 1.703 6.132 2.096 1.872.299 2.151.42 2.137.577-.02.219-2.216.302-2.819.344-1.535.106-5.506.132-5.525.132z"/></svg>