<svg height="32" width="32" xmlns="http://www.w3.org/2000/svg"><path d="m18.536 4c-.908.126-17.536 20.605-17.536 20.605s1.195.34 3.918.736c.884-.69 13.273-21.66 13.649-21.33-.007-.008-.017-.011-.031-.01z" opacity=".2"/><path d="m18.567 4.01c-.031-.01-13.649 21.33-13.649 21.33-1.188 1.96-2.138 3.536-2.138 3.536s12.774.578 22.708-.759c14.135-1.902-2.905-20.024-6.921-24.107z" opacity=".2"/><path d="m18.567 3.01c-.031-.01-13.649 21.33-13.649 21.33-1.188 1.96-2.138 3.536-2.138 3.536s12.774.578 22.708-.759c14.135-1.902-2.905-20.024-6.921-24.107z" fill="#7f7fff"/><path d="m18.552 4.003c-.571-.094-13.634 21.337-13.634 21.337s12.345.742 17.207.66c13.767-.233-.381-17.774-3.558-21.99a.026.026 0 0 0 -.015-.007z" opacity=".1"/><path d="m18.536 3c-.908.126-17.536 20.605-17.536 20.605s1.195.34 3.918.736c.884-.69 13.273-21.66 13.649-21.33-.007-.008-.017-.011-.031-.01z" fill="#ff7f7f"/><path d="m18.535 3c-.908.125-17.535 20.604-17.535 20.604s.35.083.686.16c1.908-2.347 16-19.647 16.85-19.764.006-.001.01.002.015.004l.002-.002c.006 0 .01.004.013.008 2.796 2.842 11.892 12.483 12.4 18.724.514-6.156-9.45-16.725-12.4-19.724a.023.023 0 0 0 -.013-.008l-.002.002c-.005-.002-.009-.005-.016-.004zm-14.168 22.252-1.587 2.623s.478.015.594.02c.341-.566.686-1.139 1.545-2.555-.213-.031-.356-.058-.55-.088z" fill="#f4f4f7" opacity=".2"/><path d="m18.552 3.003c-.571-.094-13.634 21.337-13.634 21.337s12.345.742 17.207.66c13.767-.233-.381-17.774-3.558-21.99a.026.026 0 0 0 -.015-.007z" fill="#7f3fbf"/></svg>