<svg height="32" width="32" xmlns="http://www.w3.org/2000/svg">
    <rect height="28" opacity=".2" rx="8.4" width="28" x="2" y="3"/>
    <rect fill="#6943b5" height="28" rx="8.4" width="28" x="2" y="2"/>
    <path d="M22.492 7.98a1.5 1.5 0 0 0-1.37.927l-6 14a1.5 1.5 0 1 0 2.757 1.184l6-14a1.5 1.5 0 0 0-1.387-2.111zM11 13a2 2 0 0 0-2 2 2 2 0 0 0 2 2 2 2 0 0 0 2-2 2 2 0 0 0-2-2zm0 8a2 2 0 0 0-2 2 2 2 0 0 0 2 2 2 2 0 0 0 2-2 2 2 0 0 0-2-2z" opacity=".2"/>
    <circle cx="11" cy="14" fill="#67d0ff" r="2"/>
    <circle cx="11" cy="22" fill="#67d0ff" r="2"/>
    <path d="m16.5 22.5 6-14" fill="none" stroke="#67d0ff" stroke-linecap="round" stroke-linejoin="round" stroke-width="3"/>
    <path d="M10.4 2A8.382 8.382 0 0 0 2 10.4v1C2 6.747 5.747 3 10.4 3h11.2c4.653 0 8.4 3.747 8.4 8.4v-1C30 5.747 26.253 2 21.6 2z" fill="#f4f4f7" opacity=".1"/>
</svg>
