<svg height="32" width="32" xmlns="http://www.w3.org/2000/svg">
    <rect height="29" opacity=".2" rx="14.5" transform="matrix(0 -1 -1 0 0 0)" width="29" x="-31" y="-31"/>
    <rect fill="#307ada" height="29" rx="14.5" transform="matrix(0 -1 -1 0 0 0)" width="29" x="-30" y="-31"/>
    <path d="M16.5 1C8.467 1 2 7.467 2 15.5c0 .169.02.333.025.5C2.29 8.202 8.635 2 16.5 2c7.864 0 14.21 6.202 14.475 14 .005-.167.025-.331.025-.5C31 7.467 24.533 1 16.5 1z" fill="#f4f4f7" opacity=".1"/>
    <path d="M16.5 5C10.701 5 6 9.701 6 15.5S10.701 26 16.5 26 27 21.299 27 15.5 22.299 5 16.5 5z" fill="#17191e"/>
    <g fill="none" stroke-linecap="round" stroke-linejoin="round" stroke-width="3">
        <path d="M2.5 16.5h9.7l2.9-7 2.9 14 2.9-7h9.6" opacity=".2" stroke="#000"/>
        <path d="M2.5 15.5h9.7l2.9-7 2.9 14 2.9-7h9.6" stroke="#22d3ff"/>
    </g>
</svg>
