<svg height="32" width="32" xmlns="http://www.w3.org/2000/svg"><rect height="29" opacity=".2" rx="14.5" transform="matrix(0 -1 -1 0 0 0)" width="29" x="-31" y="-31"/><rect fill="#307ada" height="29" rx="14.5" transform="matrix(0 -1 -1 0 0 0)" width="29" x="-30" y="-31"/><path d="m16.5 1c-8.033 0-14.5 6.467-14.5 14.5 0 .169.02.333.025.5.265-7.798 6.61-14 14.475-14 7.864 0 14.21 6.202 14.475 14 .005-.167.025-.331.025-.5 0-8.033-6.467-14.5-14.5-14.5z" fill="#f4f4f7" opacity=".1"/><path d="m16.5 5c-5.799 0-10.5 4.701-10.5 10.5s4.701 10.5 10.5 10.5 10.5-4.701 10.5-10.5-4.701-10.5-10.5-10.5z" fill="#17191e"/><g fill="none" stroke-linecap="round" stroke-linejoin="round" stroke-width="3"><path d="m2.5 16.5h9.7l2.9-7 2.9 14 2.9-7h9.6" opacity=".2" stroke="#000"/><path d="m2.5 15.5h9.7l2.9-7 2.9 14 2.9-7h9.6" stroke="#22d3ff"/></g></svg>