<svg xmlns="http://www.w3.org/2000/svg" width="32" height="32" version="1"><rect style="opacity:.2" width="28" height="28" x="2" y="3" rx="1.4" ry="1.4"/><rect style="fill:#19416f" width="28" height="28" x="2" y="2" rx="1.4" ry="1.4"/><path style="opacity:.2" d="M17 6a2 2 0 0 0-2 2 2 2 0 0 0 2 2 2 2 0 0 0 2-2 2 2 0 0 0-2-2zm-2.334 5c-.923 0-1.666.669-1.666 1.5s.743 1.5 1.666 1.5H16v8.799c0 .797-.29 1.446-1.037 1.828A2 2 0 0 0 13 23a2 2 0 0 0-2 2 2 2 0 0 0 2 2c3.75 0 6 0 6-4.201V11h-4.334z"/><path style="fill:#f4f4f7" d="M17 5a2 2 0 0 0-2 2 2 2 0 0 0 2 2 2 2 0 0 0 2-2 2 2 0 0 0-2-2zm-2.332 5c-.924 0-1.668.669-1.668 1.5s.744 1.5 1.668 1.5H16v8.799c0 .797-.29 1.446-1.037 1.828A2 2 0 0 0 13 22a2 2 0 0 0-2 2 2 2 0 0 0 2 2c3.75 0 6 0 6-4.201V10h-4.332z"/><path style="opacity:.1;fill:#f4f4f7" d="M3.4 2C2.625 2 2 2.625 2 3.4v1C2 3.625 2.625 3 3.4 3h25.2c.775 0 1.4.625 1.4 1.4v-1c0-.775-.625-1.4-1.4-1.4H3.4z"/></svg>