<svg xmlns="http://www.w3.org/2000/svg" xmlns:xlink="http://www.w3.org/1999/xlink" width="32" height="32"><defs><linearGradient x1="167.983" y1="8.508" x2="167.983" y2="54.78" id="b" xlink:href="#a" gradientUnits="userSpaceOnUse" gradientTransform="matrix(.48 0 0 .48 -27.325 .64)"/><linearGradient id="a"><stop offset="0" stop-color="#fffdf3"/><stop offset="1" stop-color="#fbebeb"/></linearGradient></defs><rect style="marker:none" y="2.5" x="2.5" ry="2.16" rx="2.16" height="27" width="27" color="#000" overflow="visible" fill="#e14547"/><path style="marker:none" d="M18.476 3.04C9.64 10.62 4.594 11.69 2.915 11.809v2.724c1.267-.177 4.452-.791 7.844-2.916 4.35-2.724 9.55-7.896 9.55-7.896-1.426 2.797-1.842 12.8b9cbe-1.87 25.2h9.117c.714 0 1.279-.565 1.279-1.277-1.69-3.486-2.795-8.525-3.624-13.026-.707-5.37.338-10.065.725-11.578zM2.915 16.248v3.018c3.668 0 9.306 4.401 12.034 9.655h2.291C15.96 24.145 5.713 16.248 2.915 16.248z" color="#000" overflow="visible" fill="url(#b)"/><rect style="marker:none" y="2.5" x="2.5" ry="2.16" rx="2.16" height="27" width="27" color="#000" overflow="visible" opacity=".35" fill="none" stroke="#7a0000" stroke-linecap="round" stroke-linejoin="round"/></svg>