<svg height="32" width="32" xmlns="http://www.w3.org/2000/svg">
    <circle cx="16" cy="17" opacity=".2" r="14"/>
    <circle cx="16" cy="16" fill="#3db54a" r="14"/>
    <path d="M11.371 10a.37.37 0 0 0-.371.377v2.363c0 .135.07.257.184.324l3.646 2.186-3.646 2.186a.377.377 0 0 0-.184.324v2.363a.37.37 0 0 0 .371.377.354.354 0 0 0 .174-.05l6.271-3.731a.377.377 0 0 0 .184-.324v-2.29a.377.377 0 0 0-.184-.324l-6.271-3.73A.354.354 0 0 0 11.37 10zm6.295 11c-.37 0-.666.334-.666.75v1.5c0 .415.297.75.666.75h6.668c.37 0 .666-.334.666-.75v-1.5c0-.416-.297-.75-.666-.75z" opacity=".2"/>
    <g fill="#f4f4f7">
        <path d="M11.371 9a.37.37 0 0 0-.371.377v2.363c0 .135.07.257.184.324l3.646 2.186-3.646 2.186a.377.377 0 0 0-.184.324v2.363a.37.37 0 0 0 .371.377.354.354 0 0 0 .174-.05l6.271-3.731a.377.377 0 0 0 .184-.324v-2.29a.377.377 0 0 0-.184-.324l-6.271-3.73A.354.354 0 0 0 11.37 9zm6.295 11c-.37 0-.666.334-.666.75v1.5c0 .416.297.75.666.75h6.668c.37 0 .666-.334.666-.75v-1.5c0-.416-.297-.75-.666-.75z"/>
        <path d="M16 2A14 14 0 0 0 2 16a14 14 0 0 0 .021.586A14 14 0 0 1 16 3a14 14 0 0 1 13.979 13.414A14 14 0 0 0 30 16 14 14 0 0 0 16 2z" opacity=".2"/>
    </g>
</svg>
