<svg height="32" width="32" xmlns="http://www.w3.org/2000/svg">
    <path d="M27 28.5v-25c0-.831-.669-1.5-1.5-1.5h-19C5.669 2 5 2.669 5 3.5v25c0 .831.669 1.5 1.5 1.5h19c.831 0 1.5-.669 1.5-1.5z" fill="#4677af"/>
    <path d="M6.5 2C5.669 2 5 2.669 5 3.5v1C5 3.669 5.669 3 6.5 3h19c.831 0 1.5.669 1.5 1.5v-1c0-.831-.669-1.5-1.5-1.5z" fill="#f4f4f7" opacity=".1"/>
    <path d="M5 28.5v1c0 .831.669 1.5 1.5 1.5h19c.831 0 1.5-.669 1.5-1.5v-1c0 .831-.669 1.5-1.5 1.5h-19c-.831 0-1.5-.669-1.5-1.5z" opacity=".2"/>
    <path d="M16.036 4.172c-2.493 0-4.536 1.936-4.536 5.328 0 2.507.93 4.729 1.534 5.532l-4.843-.006C7.305 15 10.19 18.202 11 19c1.419-1.038 4.013-1 4.52-1 .506 0-.02 5.5-1.21 6.664-1.161 1.137-1.18.825-1.18 1.325C13.13 27 16 29 16 29s2.867-2 2.867-2.988c0-.5.017-.222-1.155-1.348C16.5 23.5 16.073 18 16.58 18s3.001-.058 4.42 1c.81-.798 3.673-4 2.814-3.954l-4.779-.006c.59-.813 1.465-3.04 1.465-5.54 0-3.392-1.971-5.328-4.464-5.328zM16 7c1.034 0 2.5.586 2.5 3s-1.086 4.209-2.464 4.209S13.5 12.414 13.5 10s1.466-3 2.5-3z" opacity=".2"/>
    <path d="M16 4c2 0 4.743 1.5 4.5 5.5C20.309 13 18 15 18 15h5.814c.86 0-2.003 2.202-2.814 3-1.419-1.058-3.327-1-3.834-1C17 17 16.5 23 18 24.5c1 1 1.106 1.636.5 2L16 28l-2.5-1.5c-.606-.364-.5-1 .5-2 1.5-1.5 1-7.5.856-7.5-.507 0-2.437-.038-3.856 1-.81-.798-3.714-3-2.792-3H14s-2.268-2-2.5-5.5C11.27 5.5 14 4 16 4zm-2.5 5.5c0 2 1.122 4 2.5 4s2.5-2 2.5-4C18.5 7.086 17 6 16 6s-2.5 1.086-2.5 3.5z" fill="#ebebeb"/>
</svg>
