<svg xmlns="http://www.w3.org/2000/svg" width="32" height="32"><path style="opacity:.2" d="M2 23.6v6c0 .775.625 1.4 1.4 1.4h25.2c.775 0 1.4-.625 1.4-1.4v-6c0 .775-.625 1.4-1.4 1.4H3.4c-.775 0-1.4-.625-1.4-1.4z"/><path style="fill:#a8a8a8" d="M2 22.6v6c0 .775.625 1.4 1.4 1.4h25.2c.775 0 1.4-.625 1.4-1.4v-6c0 .775-.625 1.4-1.4 1.4H3.4c-.775 0-1.4-.625-1.4-1.4z"/><rect style="opacity:.1" width="28" height="22" x="2" y="3" rx="1.4" ry="1.4"/><rect style="fill:#f4f4f7" width="28" height="22" x="2" y="2" rx="1.4" ry="1.4"/><path style="opacity:.2;fill:#f4f4f7" d="M3.4 2C2.625 2 2 2.625 2 3.4v1C2 3.625 2.625 3 3.4 3h25.2c.775 0 1.4.625 1.4 1.4v-1c0-.775-.625-1.4-1.4-1.4H3.4z"/><path style="opacity:.1" d="M15.818 6.015c-.456.029-.744.095-.756.208-.035.346-.223 1.06-.251 1.818a8.119 8.119 0 0 1-.249-1.696c-1.291.089-3.498 1.316-3.507 1.895-.004.335.299 3.073.662 4.418-.674-1.323-.965-2.673-1.272-4.021-.389.418-2.277.4-.965 6.105-.539-.886-.63-1.874-.9-2.822-.924 1.533-1.514 4.184-1.033 7.467 2.144-4.548 5.686-7.896 9.959-10.643.108-.05.125.034.086.074-3.338 2.547-5.343 4.921-5.776 5.397-.331.364-1.869 2.003-2.869 4.049-.27.554-.48 1.138-.654 1.705 2.436-.352 3.848-1.318 4.703-2.531-1.548-2.032-1.14-1.715.164-.424.613.608 1.591 1.164 2.262-.727.516-1.452 1.121-1.853 1.121-1.853-.92-.38-2.632-1.696.129-.538.876-1.355 2.098-2.271 3.219-3.316-2.506-.004-1.794-1.086.41-.313 1.049-1.988 3.597-1.956 6.469-1.486-2.109-1.077-4.459-2.485-5.139-1.596l-.1-.664c-1.462-.336-4.343-.59-5.713-.506zM7.547 19.387A22.09 22.09 0 0 0 6 23.852l.275.148s.249-.534.47-.695c.22-.16.925-.459.925-.459s.156-1.354.623-2.877c-.137.019-.263.045-.406.06l-.26-.072c-.035-.195-.052-.38-.08-.57z"/><path style="fill:#434343" d="M7.547 18.387A22.09 22.09 0 0 0 6 22.852l.275.148s.249-.534.47-.695c.22-.16.925-.459.925-.459s.156-1.354.623-2.877c-.137.019-.263.045-.406.06l-.26-.072c-.035-.195-.052-.38-.08-.57z"/><path style="fill:#4976a8" d="M15.818 5.015c-.456.029-.744.095-.756.208-.035.346-.223 1.06-.251 1.818a8.119 8.119 0 0 1-.249-1.696c-1.291.089-3.498 1.316-3.507 1.895-.004.335.299 3.073.662 4.418-.674-1.323-.965-2.673-1.272-4.021-.389.418-2.277.4-.965 6.105-.539-.886-.63-1.874-.9-2.822-.924 1.533-1.514 4.184-1.033 7.467 2.144-4.548 5.686-7.896 9.959-10.643.108-.05.125.034.086.074-3.338 2.547-5.343 4.921-5.776 5.397-.331.364-1.869 2.003-2.869 4.049-.27.554-.48 1.138-.654 1.705 2.436-.352 3.848-1.318 4.703-2.531-1.548-2.032-1.14-1.715.164-.424.613.608 1.591 1.164 2.262-.727.516-1.452 1.121-1.853 1.121-1.853-.92-.38-2.632-1.696.129-.538.876-1.355 2.098-2.271 3.219-3.316-2.506-.004-1.794-1.086.41-.313 1.049-1.988 3.597-1.956 6.469-1.486-2.109-1.077-4.459-2.485-5.139-1.596l-.1-.664c-1.462-.336-4.343-.59-5.713-.506z"/></svg>