<svg height="32" width="32" xmlns="http://www.w3.org/2000/svg"><rect height="27" opacity=".2" rx="1.35" transform="matrix(0 -1 -1 0 0 0)" width="27" x="-31" y="-29"/><rect fill="#4f4f4f" height="27" rx="1.35" transform="matrix(0 -1 -1 0 0 0)" width="27" x="-30" y="-29"/><path d="m4 9v17h3v-7h4v-3h-4v-4h4v-3zm8 0v17h7v-3h-4v-4h4v-3h-4v-4h4v-3zm8 0v17h3v-7h1v7h3v-17h-3v7h-1v-7z" opacity=".2"/><g fill="#df4545"><path d="m4 8h3v17h-3z"/><path d="m8-11h3v7h-3zm7 0h3v7h-3z" transform="rotate(90)"/><path d="m12 8h3v17h-3z"/><path d="m8-19h3v7h-3zm7 0h3v7h-3z" transform="rotate(90)"/><path d="m20 8h3v17h-3z"/><path d="m15-27h3v7h-3zm7 8h3v7h-3z" transform="rotate(90)"/><path d="m24 8h3v17h-3z"/></g><path d="m3.35 3c-.748 0-1.35.602-1.35 1.35v1c0-.748.602-1.35 1.35-1.35h24.3c.748 0 1.35.602 1.35 1.35v-1c0-.748-.602-1.35-1.35-1.35z" fill="#f4f4f7" opacity=".1"/><path d="m4 8v1h7v-1zm8 0v1h7v-1zm8 0v1h3v-1zm4 0v1h3v-1zm-17 7v1h4v-1zm8 0v1h4v-1zm8 0v1h1v-1zm-8 7v1h4v-1z" fill="#f4f4f7" opacity=".1"/></svg>