<svg height="32" width="32" xmlns="http://www.w3.org/2000/svg"><rect height="28" opacity=".2" rx="1.4" width="28" x="2" y="3"/><rect fill="#4f4f4f" height="28" rx="1.4" width="28" x="2" y="2"/><path d="m5 7v20h4v-16h18v-4h-19zm6 6v8h4v-8zm6 0v10h-6v4h10v-14zm6 0v14h4v-14z" opacity=".2"/><path d="m5 6v20h4v-16h18v-4h-19zm6 6v8h4v-8zm6 0v10h-6v4h10v-14zm6 0v14h4v-14z" fill="#3693ee"/><g fill="#f4f4f7"><path d="m5 6v1h22v-1zm6 6v1h4v-1zm6 0v1h4v-1zm6 0v1h4v-1zm-12 10v1h6v-1z" opacity=".2"/><path d="m3.4 2c-.775 0-1.4.625-1.4 1.4v1c0-.775.625-1.4 1.4-1.4h25.2c.775 0 1.4.625 1.4 1.4v-1c0-.775-.625-1.4-1.4-1.4z" opacity=".1"/></g></svg>