<svg height="32" width="32" xmlns="http://www.w3.org/2000/svg">
    <rect height="26" opacity=".2" rx="1.45" ry="1.8" width="29" x="2" y="4"/>
    <rect fill="#ff670b" height="26" rx="1.45" ry="1.8" width="29" x="2" y="3"/>
    <path d="M2 8h29v16H2z" fill="#5e473a"/>
    <path d="M2 5v3h2V5z" fill="#f4f4f7"/>
    <path d="M4 11v12h1v-6h4v-1H5v-4h5v-1zm8.504 0a.528.528 0 0 0-.358.125c-.097.077-.146.202-.146.375s.05.301.146.385a.553.553 0 0 0 .358.115.53.53 0 0 0 .34-.115c.103-.084.156-.212.156-.385s-.053-.298-.156-.375a.506.506 0 0 0-.34-.125zM15 11v12h1V11zm-3 3v9h1v-9zm9.533 1c-.458 0-.89.103-1.3.309a2.225 2.225 0 0 0-.96.908h-.072l-.185-1.07H18V23h1.059v-4.074c0-.918.147-1.621.443-2.11.296-.488 1.03-.732 1.803-.732 1.049 0 1.674.62 1.674 1.861V23h1.042v-4.338c0-.84.258-1.478.573-1.918.324-.44.86-.66 1.603-.66 1.04 0 1.758.62 1.758 1.861V23H29v-5.113c0-1.006-.215-1.738-.645-2.198-.429-.459-1.077-.689-1.945-.689-.505 0-.977.107-1.416.322a2.408 2.408 0 0 0-1.043.996h-.072C23.517 15.44 22.735 15 21.533 15z" opacity=".2"/>
    <path d="M5 22H4V10h6v1H5v4h4v1H5zm7.505-12q.194 0 .34.125.155.116.155.375t-.155.384q-.146.116-.34.116-.214 0-.36-.116Q12 10.759 12 10.5t.146-.375q.145-.125.359-.125zM13 13v9h-1v-9zm3 9h-1V10h1zm10.41-8c.869 0 1.517.23 1.946.689.43.459.644 1.191.644 2.197V22h-1.044v-5.055c0-1.24-.72-1.86-1.76-1.86-.743 0-1.277.219-1.602.659-.314.44-.572 1.079-.572 1.919V22h-1.044v-5.055c0-1.24-.625-1.86-1.674-1.86-.772 0-1.507.243-1.802.732" fill="#f4f4f7"/>
    <path d="M2 27v1h2v-1zm5 0v1h2v-1zm5 0v1h2v-1zm5 0v1h2v-1zm5 0v1h2v-1zm5 0v1h2v-1zM2 8h29v1H2z" opacity=".1"/>
    <g fill="#f4f4f7">
        <path d="M2 24h29v1H2z" opacity=".1"/>
        <path d="M3.45 3C2.645 3 2 3.645 2 4.445v1C2 4.645 2.646 4 3.45 4h26.1c.804 0 1.45.645 1.45 1.445v-1C31 3.645 30.354 3 29.55 3z" opacity=".2"/>
    </g>
</svg>
