<svg height="32" width="32" xmlns="http://www.w3.org/2000/svg">
    <path d="M3 1h26c1.108 0 2 .892 2 2v26c0 1.108-.892 2-2 2H3c-1.108 0-2-.892-2-2V3c0-1.108.892-2 2-2z" fill="#287bc2"/>
    <path d="M3 2h26c.554 0 1 .446 1 1v26c0 .554-.446 1-1 1H3c-.554 0-1-.446-1-1V3c0-.554.446-1 1-1z" fill="#78c1ff"/>
    <path d="M15.996 1a1 1 0 0 0-.87.504c-2.566 4.506-3.075 9.06-3.127 13.5a1 1 0 0 0 0 .006c-.003.517.14 1.095.565 1.494.425.4.965.497 1.432.497h3s-.002 2.517.125 5.418c.126 2.9.32 6.082.925 7.898a1 1 0 0 0 .95.683h10c1.09 0 2-.909 2-2V3c0-1.09-.91-2-2-2z" fill="#a3b7cc"/>
    <path d="M15.996 2h13c.554 0 1 .446 1 1v26c0 .554-.446 1-1 1h-10c-1-3-1-13-1-13 0-.58-.373-1-1-1h-3c-.659 0-1-.271-.996-.984.05-4.374.544-8.712 2.996-13.016z" fill="#e8f6ff"/>
    <path d="M8.984 8.975A1 1 0 0 0 8 9.988v2c-.02 1.353 2.02 1.353 2 0v-2a1 1 0 0 0-1.016-1.013zm14 0A1 1 0 0 0 22 9.988v2c-.02 1.353 2.02 1.353 2 0v-2a1 1 0 0 0-1.016-1.013zm2.5 11.002a.513.513 0 0 0-.437.25c-1.596 2.426-5.306 3.745-9.059 3.746-3.752 0-7.454-1.32-9.04-3.746a.513.513 0 1 0-.86.562C7.97 23.67 12 25 15.988 25s8.023-1.333 9.916-4.21a.513.513 0 0 0-.42-.813z" fill="#4f6683"/>
</svg>
