<svg xmlns="http://www.w3.org/2000/svg" width="32" height="32" version="1"><rect style="opacity:.2" width="28" height="28" x="2" y="3" rx="1.4" ry="1.4"/><rect style="fill:#ef4e4e" width="28" height="28" x="2" y="2" rx="1.4" ry="1.4"/><path style="fill:#f4f4f7;opacity:.1" d="M3.4 2C2.625 2 2 2.625 2 3.4v1C2 3.625 2.625 3 3.4 3h25.2c.775 0 1.4.625 1.4 1.4v-1c0-.775-.625-1.4-1.4-1.4H3.4z"/><path style="fill:none;stroke:#656565;stroke-width:3;stroke-linecap:round" d="M15.5 2.5v27M7.5 2.5v27"/><path style="opacity:.2" d="M2.5 8a1.5 1.5 0 1 0 0 3h27a1.5 1.5 0 1 0 0-3zm0 8a1.5 1.5 0 1 0 0 3h27a1.5 1.5 0 1 0 0-3zm0 7a1.5 1.5 0 1 0 0 3h27a1.5 1.5 0 1 0 0-3z"/><path style="fill:none;stroke:#656565;stroke-width:3;stroke-linecap:round" d="M23.5 2.5v27M29.5 16.5h-27M29.5 8.5h-27M29.5 23.5h-27"/><path style="fill:none;stroke:#ffa02e;stroke-width:3;stroke-linecap:round;stroke-linejoin:round" d="M20.5 22.128v-4.586c0-1.219 1.358-2.042 2.99-2.042 1.56 0 3.01.883 3.01 2.042v4.586"/><circle style="opacity:.2" cx="23.5" cy="25.5" r="5.5"/><circle style="fill:#ffce23" cx="23.5" cy="24.5" r="5.5"/><circle style="fill:#7f4a04" cx="23.5" cy="24.5" r="1.5"/><path style="fill:#7f4a04" d="M22.7 24v2.25a.75.75 0 0 0 .75.75.75.75 0 0 0 .75-.75V24z"/><path style="opacity:.2;fill:#f4f4f7" d="M23.5 19a5.5 5.5 0 0 0-5.5 5.5 5.5 5.5 0 0 0 .025.486A5.5 5.5 0 0 1 23.5 20a5.5 5.5 0 0 1 5.475 5.014A5.5 5.5 0 0 0 29 24.5a5.5 5.5 0 0 0-5.5-5.5z"/></svg>