<svg height="32" width="32" xmlns="http://www.w3.org/2000/svg"><rect height="28" opacity=".2" rx="1.4" width="28" x="2" y="3"/><rect fill="#4f4f4f" height="28" rx="1.4" width="28" x="2" y="2"/><path d="m4 5v3h3v-3zm21 0v3h3v-3zm-21 7v3h3v-3zm21 0v3h3v-3zm-21 7v3h3v-3zm21 0v3h3v-3zm-21 7v3h3v-3zm21 0v3h3v-3zm-9-19h7s-4.488.957-5 2.619c-.386 1.253 2.268 2.287 2 3.571-.322 1.541-3.68 1.554-4 3.096-.302 1.459 3.251 2.578 3 4.047-.265 1.548-3.971 1.763-4 3.334-.027 1.516 4 3.333 4 3.333h-10z" opacity=".2"/><path d="m16 6h7s-4.488.957-5 2.619c-.386 1.253 2.268 2.287 2 3.571-.322 1.541-3.68 1.554-4 3.096-.302 1.459 3.251 2.578 3 4.047-.265 1.548-3.971 1.763-4 3.334-.027 1.516 4 3.333 4 3.333h-10z" fill="#f4f4f7"/><path d="m4 4v3h3v-3zm21 0v3h3v-3zm-21 7v3h3v-3zm21 0v3h3v-3zm-21 7v3h3v-3zm21 0v3h3v-3zm-21 7v3h3v-3zm21 0v3h3v-3z" fill="#989898"/><path d="m3.4 2c-.775 0-1.4.625-1.4 1.4v1c0-.775.625-1.4 1.4-1.4h25.2c.775 0 1.4.625 1.4 1.4v-1c0-.775-.625-1.4-1.4-1.4z" fill="#f4f4f7" opacity=".1"/></svg>