<svg height="32" width="32" xmlns="http://www.w3.org/2000/svg"><rect fill="#4f4f4f" height="28" rx="1.4" width="28" x="2" y="2"/><path d="m8 9v16h16v-16zm3 3h10v10h-10z" fill="#848484"/><path d="m6 18h10v10h-10z" opacity=".2"/><path d="m6 17h10v10h-10z" fill="#64b5ff"/><path d="m6 8h10v7h-10z" opacity=".2"/><path d="m6 7h10v7h-10z" fill="#e47cff"/><circle cx="22.5" cy="11.5" opacity=".2" r="3.5"/><circle cx="22.5" cy="10.5" fill="#ff6363" r="3.5"/><path d="m18 20h8v7h-8z" opacity=".2"/><path d="m18 19h8v7h-8z" fill="#3bff80"/><path d="m3.4 2c-.775 0-1.4.625-1.4 1.4v1c0-.775.625-1.4 1.4-1.4h25.2c.775 0 1.4.625 1.4 1.4v-1c0-.775-.625-1.4-1.4-1.4z" fill="#fff" opacity=".1"/><path d="m2 28.6v1c0 .775.625 1.4 1.4 1.4h25.2c.775 0 1.4-.625 1.4-1.4v-1c0 .775-.625 1.4-1.4 1.4h-25.2c-.775 0-1.4-.625-1.4-1.4z" opacity=".2"/></svg>