<svg height="32" width="32" xmlns="http://www.w3.org/2000/svg"><path d="m16.7 31c6.3 0 8.3-4.972 8.3-9.1 0-5.6-4.924-8.514-6-13.3-.41-1.821 0-5.6 0-5.6s-12.1 8.4-12.1 18.2c0 4.62 3.5 9.8 9.8 9.8z" opacity=".2"/><path d="m16.7 30c6.3 0 8.3-4.972 8.3-9.1 0-5.6-4.924-8.514-6-13.3-.41-1.821 0-5.6 0-5.6s-12.1 8.4-12.1 18.2c0 4.62 3.5 9.8 9.8 9.8z" fill="#4f4f4f"/><path d="m17 7s-8 5.8-8 14.2c0 3.798 3.5 7.8 7.7 7.8s6.2-5 6.2-7.1c0-1.4-.6-4.9-4.1-4.9s-4.2 2.1-4.2 2.1 1.483-.33 2.1 0c.742.397 1.4 1.057 1.4 2.1 0 1.4-1.4 2.1-2.8 2.1-.99 0-2.1-1.11-2.1-2.1 0-5.6 4.9-6.3 4.9-6.3s1.4 0 2.1.7c-2.8-4.9-3.2-8.6-3.2-8.6z" opacity=".2"/><g fill="#f4f4f7"><path d="m17 6s-8 5.8-8 14.2c0 3.798 3.5 7.8 7.7 7.8s6.2-5 6.2-7.1c0-1.4-.6-4.9-4.1-4.9s-4.2 2.1-4.2 2.1 1.483-.33 2.1 0c.742.397 1.4 1.057 1.4 2.1 0 1.4-1.4 2.1-2.8 2.1-.99 0-2.1-1.11-2.1-2.1 0-5.6 4.9-6.3 4.9-6.3s1.4 0 2.1.7c-2.8-4.9-3.2-8.6-3.2-8.6z"/><path d="m19 2s-12.1 8.4-12.1 18.2c0 .148.015.299.022.448.43-9.36 11.523-17.256 11.992-17.585.044-.6.086-1.063.086-1.063zm-.164 4.09c-.01.914.013 1.84.164 2.51 1.053 4.68 5.772 7.578 5.98 12.941.011-.215.02-.429.02-.64 0-5.6-4.924-8.515-6-13.301-.095-.421-.142-.95-.164-1.51z" opacity=".1"/></g></svg>