<svg height="32" width="32" xmlns="http://www.w3.org/2000/svg"><rect height="28" opacity=".2" rx="1.4" width="28" x="2" y="3"/><rect fill="#6493a6" height="28" rx="1.4" width="28" x="2" y="2"/><path d="m14.6 7a5.587 5.587 0 0 0 -5.6 5.6v14c0 .775.724 1.4 1.5 1.4s1.5-.625 1.5-1.4v-5.6h4v-3h-1.334c-1.524 0-2.666-1.142-2.666-2.666v-2.668c0-1.524 1.142-2.666 2.666-2.666h1.334v-3z" opacity=".2"/><path d="m14.6 6a5.587 5.587 0 0 0 -5.6 5.6v14c0 .775.724 1.4 1.5 1.4s1.5-.625 1.5-1.4v-5.6h4v-3h-1.334c-1.524 0-2.666-1.142-2.666-2.666v-2.668c0-1.524 1.142-2.666 2.666-2.666h1.334v-3z" fill="#17191e"/><path d="m16 7v3h1.334c1.524 0 2.666 1.142 2.666 2.666v2.668c0 1.524-1.142 2.666-2.666 2.666h-1.334v3h1.4c3.103 0 5.6-2.497 5.6-5.6v-2.8c0-3.103-2.497-5.6-5.6-5.6z" opacity=".2"/><g fill="#f4f4f7"><path d="m16 6v3h1.334c1.524 0 2.666 1.142 2.666 2.666v2.668c0 1.524-1.142 2.666-2.666 2.666h-1.334v3h1.4c3.103 0 5.6-2.497 5.6-5.6v-2.8c0-3.103-2.497-5.6-5.6-5.6z"/><path d="m3.4 2c-.775 0-1.4.625-1.4 1.4v1c0-.775.625-1.4 1.4-1.4h25.2c.775 0 1.4.625 1.4 1.4v-1c0-.775-.625-1.4-1.4-1.4z" opacity=".2"/></g></svg>