<svg xmlns="http://www.w3.org/2000/svg" width="32" height="32"><rect style="opacity:.2" width="20" height="14" x="-28" y="-23" rx="1.25" ry="1.25" transform="matrix(0 -1 -1 0 0 0)"/><rect style="fill:#8e8e8e" width="20" height="14" x="-27" y="-23" rx="1.25" ry="1.25" transform="matrix(0 -1 -1 0 0 0)"/><rect style="opacity:.2" width="18.75" height="26" x="-26" y="-29" rx="1.25" ry="1.25" transform="matrix(0 -1 -1 0 0 0)"/><rect style="fill:#8b9cbe" width="19" height="26" x="-25" y="-29" rx="1.25" ry="1.25" transform="matrix(0 -1 -1 0 0 0)"/><rect style="fill:#333" width="17" height="24" x="-24" y="-28" rx="0" ry="0" transform="matrix(0 -1 -1 0 0 0)"/><path style="opacity:.1;fill:#f4f4f7" d="M4.25 6C3.558 6 3 6.558 3 7.25v1C3 7.558 3.558 7 4.25 7h23.5c.692 0 1.25.558 1.25 1.25v-1C29 6.558 28.442 6 27.75 6zM4 24h24v1H4z"/></svg>