<svg xmlns="http://www.w3.org/2000/svg" height="32" width="32">
    <circle cx="16" cy="17" r="14" style="opacity:.2"/>
    <circle cx="16" cy="16" r="14" style="fill:#ff4f4f"/>
    <path style="opacity:.2" d="m16 3-2 6h4zM7 15l-5 2 5 2zm18 0v4l5-2zM14 25l2 6 2-6z"/>
    <path d="M16 2A14 14 0 0 0 2 16a14 14 0 0 0 .021.586A14 14 0 0 1 16 3a14 14 0 0 1 13.979 13.414A14 14 0 0 0 30 16 14 14 0 0 0 16 2z" style="opacity:.2;fill:#f4f4f7"/>
    <path style="fill:#f7df67" d="m16 2-2 6h4l-2-6zM7 14l-5 2 5 2v-4zm18 0v4l5-2-5-2zM14 24l2 6 2-6h-4z"/>
    <path style="opacity:.2" d="M16 8a10 9 0 0 0-2.104.207L12 12h12.305A10 9 0 0 0 16 8zm-2.238.238A10 9 0 0 0 7.689 12H10zM7.695 22a10 9 0 0 0 6.06 3.756L10 22zM12 22l1.893 3.785A10 9 0 0 0 16 26a10 9 0 0 0 8.31-4z"/>
    <path style="fill:#f4f4f7" d="M16 7a10 9 0 0 0-2.104.207L12 11h12.305A10 9 0 0 0 16 7zm-2.238.238A10 9 0 0 0 7.689 11H10l3.762-3.762zM7.695 21a10 9 0 0 0 6.06 3.756L10 21H7.695zM12 21l1.893 3.785A10 9 0 0 0 16 25a10 9 0 0 0 8.31-4H12z"/>
    <path style="opacity:.2" d="M11 13c-1.657 0-3 1.79-3 4s1.343 4 3 4 3-1.79 3-4-1.343-4-3-4zm3 4c0 2.21 1.343 4 3 4s3-1.79 3-4-1.343-4-3-4-3 1.79-3 4zm8-4-2 2h2v6h2v-8zm-11 2c.552 0 1 .895 1 2s-.448 2-1 2-1-.895-1-2 .448-2 1-2zm6 0c.552 0 1 .895 1 2s-.448 2-1 2-1-.895-1-2 .448-2 1-2z"/>
    <path style="fill:#f4f4f7" d="M11 12c-1.657 0-3 1.79-3 4s1.343 4 3 4 3-1.79 3-4-1.343-4-3-4zm3 4c0 2.21 1.343 4 3 4s3-1.79 3-4-1.343-4-3-4-3 1.79-3 4zm8-4-2 2h2v6h2v-8zm-11 2c.552 0 1 .895 1 2s-.448 2-1 2-1-.895-1-2 .448-2 1-2zm6 0c.552 0 1 .895 1 2s-.448 2-1 2-1-.895-1-2 .448-2 1-2z"/>
</svg>
