<svg xmlns="http://www.w3.org/2000/svg" width="32" height="32"><path style="opacity:.2" d="M19.59 3c.171.862.323 1.63.262 2.414-.734-.37-1.149-1.681-3.604-1.67-1.892.008-3.07 1.821-3.863 2.965-.406.574-.747.979-1.11.9-.385-.083-.568-.498-.798-1.435-.305 1.4-2.095 2.368.218 4.843-.766.782-.96 1.058-1.115 1.309-.2.326-.166 1.69.346 1.77-1.884.521-.783 2.627-1.565 3.333-.497.35-.935.746-2.183.495.766 1.324 1.98 1.943 3.135 1.638l.363.867c-.754 1.199-.326 1.655-.326 1.655l3.05 2.615-.277-4.012c1.737-1.027 3.249-2.5 2.375-6.884l.002-1.704c-.963-1.24-1.007-1.166-.598-1.56.039-.188.043-.351.047-.516.53-.255 1.046-.49 1.487-.687-.369 1.763.22 1.611.404 2.271.42-.846.858-1.476 1.355-1.322-.462.557-.661 1.237-.431 2.101.702-.67 1.2-1.553 2.271-1.56.568 1.106 1.01 2.189 2.397 3.443-.348.137-.73.085-.93 1.032-.614.192-.524.56-.545.9-.111.19-.074.367.662.898-2.115 1.884-4.08 5.527-1.902 5.866.415.064 4.925.464 5.584.336l-.113-1.655c.07-.877.013-1.626-.303-2.117 2.827-.621 2.668-3.246 2.965-3.633-.576-.232-.96-.56-.916-1.101.675-1.302 1.459-2.477 1.162-4.9-.262-1.572-1.052-4.945-4.633-5.393a3.21 3.21 0 0 0-1.067.166c-.162.055.07-1.006.01-.858-.071.178-.441.555-.705.727.228-.645-.348-1.24-1.111-1.537zm3.62 10.834c.179 0 .37.092.573.316.838.927-.86 2.055-.86 2.055-.122.208-.317.199-.53.137-.007-.036-.04-.058-.102-.057-.845-.822.833-1.706.666-1.707-.145-.059-.533-.087-.502-.14.2-.347.46-.605.756-.604z"/><rect style="opacity:.2" width="25" height="8" x="4" y="23" rx="1.389" ry="1.333"/><ellipse style="fill:#ffd5d5" cx="23.318" cy="14.17" rx="1.403" ry="2.27"/><path style="fill:#52120e" d="M22.924 15.205c2.199.742 2.9.043 3.926-.309-.296.387-.138 3.012-2.966 3.633.316.49.373 1.24.303 2.118L24.3 22.3c-.66.129-5.168-.27-5.584-.335-2.632-.41.785-5.685 3.208-6.792.376.138.79.389 1 .032zM12.385 5.71c-.406.574-.747.979-1.11.9-.385-.083-.568-.498-.799-1.435-.305 1.4-2.095 2.368.219 4.843-.767.782-.96 1.057-1.114 1.308-.2.326-.166 1.689.345 1.769-1.884.521-.784 2.628-1.566 3.334-.497.349-.934.746-2.182.494.766 1.325 1.981 1.945 3.135 1.64l.362.866c-.753 1.199-.326 1.655-.326 1.655L12.4 23.7l-.277-4.013c1.737-1.028 3.249-2.5 2.375-6.884L14.5 11.1c-.963-1.24-1.006-1.166-.597-1.56.41-2.02-1.294-2.556-1.518-3.83z"/><rect style="fill:#403650" width="25" height="8" x="4" y="22" rx="1.389" ry="1.333"/><path style="opacity:.2" d="m14.4 15.074-.808 3.986s-.672.38-.903.676c-.3.385-.566 1.35-.566 1.35l-1.018.72c-1.128.031-1.739.483-1.984 1.23l1.115.104c.122-.82.317-1.09 1.285-.843-.598.072-1.27.138-1.091 1.101l1.88-.113 3.85-7.725zm6.668.309-2.113.433s-.267 1.701-.144 2.098c.24.778.312.575.822 1.717.153.343-.09.557-.004.923.082.354.464.683.549 1.036.116.482-.145 1.591-.145 1.591.223.016.626.227.72.082.041-.061-.213-.394-.12-.392.092.002.634.578.719.566.238-.034.379-.248.646-.232.307.018.339.358 1.06.25.178-.102.403-.6.118-.824-.247-.194-1.123-.14-1.106-.184.077-.192.702-.26 1.008-.139.5.198.337.747 1.041.754.438.005.549-.345.633-.42-.772-1.271-1.936-.228-2.838-1.695-.295-.48-.433-1.34-.69-2.49-.118-.53-.105-2.294-.156-3.074z"/><path style="fill:#ffd5d5" d="m14.401 14.073 1.76.488-3.851 7.724-1.88.114c-.178-.963.492-1.03 1.09-1.102-.968-.246-1.163.024-1.284.844l-1.114-.105c.245-.748.856-1.199 1.984-1.23l1.017-.72s.267-.964.567-1.349c.231-.296.901-.677.901-.677z"/><path style="fill:#ee1536" d="m16.68 14.712 2.968-.038.233 5.275-5.819-1.135c-.135-1.332-1.496-2.688 2.619-4.102z"/><path style="fill:#9a1652" d="M17.187 16.635c-.762.012-.827.716-.815 1.358-.113-.154-.397-.673-.591-.868-.472-.471-1.122-.647-1.573-.284-.45.362-.478 1.077-.06 1.597s.995.309 1.573.285c.397-.017.696-.115.772-.34l.04.055c.418.52 2.373 1.316 2.824.954.416-.295 2.292-2.567-.61-1.77-.302-.679-.933-.981-1.56-.988z"/><path style="fill:#ffd5d5" d="m18.956 14.816 2.112-.432c.05.78.038 2.544.157 3.074.256 1.15.393 2.01.688 2.49.902 1.466 2.068.423 2.84 1.695-.085.074-.195.424-.633.42-.704-.008-.543-.557-1.043-.754-.306-.122-.93-.054-1.007.138-.017.044.86-.01 1.107.185.284.224.06.722-.118.824-.722.108-.754-.233-1.061-.25-.267-.016-.407.196-.646.23-.084.013-.628-.563-.72-.566-.093-.002.163.331.123.393-.095.145-.5-.066-.723-.082 0 0 .263-1.108.146-1.59-.085-.353-.467-.683-.548-1.036-.086-.367.155-.58.002-.923-.51-1.142-.582-.939-.822-1.718-.123-.396.146-2.098.146-2.098z"/><path style="opacity:.2" d="m13.006 12.041.3-3.079c.746-.619 1.544-.768 2.511-.89l1.616.99 5.345.205-.561 4.688-1.095 1.626c-.9.021-4.167.971-6.273-.062-1.075-.528-1.931-2.26-1.843-3.478z"/><path style="fill:#ffbebe" d="m13.006 11.041.3-3.079c.746-.619 1.544-.768 2.511-.89l1.616.99 5.345.205-.561 4.688-1.095 1.626c-.9.021-4.167.971-6.273-.062-1.075-.528-1.931-2.26-1.843-3.478z"/><path style="fill:#2e2e2e" d="M13.803 9.24c.034.346-.04.708.358 1.003l-.253.059c-.25-.137-.504-.312-.808-.829-.03.316.121.809.371.995.078.058-.345.072-.247.144l.582-.104.57-.054c-.097.852-.116 2.041.836 2.084.847-.133.887-.874 1.035-2.07-.51-.228-1.025-.429-1.612-.31-.432-.244-.733-.541-.832-.918zm4.53 1.585c-.09.002-.183.012-.278.03a3.54 3.54 0 0 0-1.062.074c.38.046.674.059.928.09-.182.843-.353 2.106.625 2.239.627-.04.852-.447 1.028-1.125.154.016.284.028.315.021.306-.062.961-.444 1.069-.742-.495.339-.8.389-1.083.407l-.192-.151.002-.014c.472-.102.56-.456.736-.752-.103.092-.353.525-.698.359l-.067-.03c-.413-.226-.835-.419-1.323-.406z"/><path style="fill:#ef3d61" d="M15.523 13.304c.489.048 1.003-.03 1.478.093.45.119.36.217.245.395 0 0-.338.316-.497.418-.254.18-.41.135-.59-.07-.243-.281-.427-.546-.636-.836z"/><path style="fill:#6d0f0a" d="M19.59 2c.172.862.324 1.63.262 2.415l.049-.03a.2.2 0 0 1-.049.03c-.733-.371-1.148-1.682-3.603-1.671-1.893.008-3.071 1.822-3.864 2.965-.532 1.26-1.551 3.923-1.385 5.18 1.356-1.23 3.168-1.983 4.435-2.553-.368 1.763.221 1.612.405 2.272.42-.846.858-1.477 1.355-1.323-.462.557-.662 1.237-.432 2.102.702-.67 1.201-1.553 2.272-1.56.567 1.106 1.01 2.188 2.396 3.443-.347.136-.729.084-.929 1.031-.614.192-.523.56-.544.901-.123.21-.113.38.87 1.053.524.36 1.96-.979 1.463-.97-.845-.822.834-1.706.667-1.707-.146-.058-.534-.087-.503-.141.32-.554.788-.883 1.328-.286.838.927-.859 2.054-.859 2.054s.533.524 1.292.554c1.109.045 2.634-.863 2.634-.863-.575-.232-.96-.56-.916-1.1.675-1.302 1.459-2.478 1.162-4.902-.262-1.571-1.052-4.944-4.633-5.393a3.211 3.211 0 0 0-1.066.166c-.162.055.07-1.005.01-.857-.072.177-.443.555-.706.726.228-.645-.347-1.238-1.11-1.536z"/><path style="fill:#c42d06" d="M14.912 3.074c-1.142.577-1.94 1.789-2.527 2.635l-.085.208c1.426.21 3.088.49 4.27 1.144l1.117-.657.164 1.496 1.301-.729.67 1.115 1.05-1.15c.45.219.528.902.686 1.487 2.335-1.208 3.684-1.123 5.423-.332-.141-.66-.375-1.466-.794-2.232-.931.503-3.65 1.688-5.28-.599l-.627 1.287-.141-1.18-1.248 1.274.455-1.3c-2.096-.04-6.505.519-4.434-2.467z"/><path style="opacity:.2" d="M14.645 19.226c-.785.03-1.37.17-1.487.387-.118 1.463-.53 2.515-.992 3.53-.102.223-.176.346-.453.392-.457.146-.924.323-1.268.541-1.152.267-2.48.945-2.326 1.49.151.365.687.624 1.29.764 2.606.39 3.071-.288 3.73-.871-.02.4-.4.8-.801 1.201l.357.166c1.102-1.036 1.337-1.585 1.282-2.37l.177-.235a4.04 4.04 0 0 0 1.102 1.75c-.787 2.555 2.074 4.747 3.084 4.345 1.08-.43 1.07-4.394-.85-5.166.061-.395.043-.763.018-1.129.922.105 1.87-.112 2.4-.992 1.245-2.963-2.91-3.89-5.263-3.803z"/><path style="fill:#ee1536" d="M13.975 23.295c.103.88-.1 1.421-1.28 2.53l-.358-.165c.4-.4.782-.801.802-1.202-.659.584-1.125 1.264-3.731.873-.603-.14-1.137-.4-1.288-.765-.183-.648 1.728-1.49 2.948-1.597 1.488-.132 2.373.24 2.907.326zM15.517 24.342c3.823-1.83 4.193 4.43 2.822 4.975-1.092.434-4.355-2.164-2.822-4.975z"/><path style="fill:#ffbebe" d="M13.159 18.614c.47-.866 8.409-.535 6.75 3.416-1.116 1.853-4.093.819-4.754-.14l-1.21 1.61c-.665.841-3.777.871-3.995.207.022-.55.932-.907 1.763-1.172.277-.047.351-.168.453-.392.462-1.014.875-2.066.993-3.53z"/><path style="fill:#ffd5d5" d="M15.265 20.788c.958-.364 1.822.2 2.216 1.698.003.717.176 1.377-.12 2.194.402.286.689.649.742 1.255.067.771-.191 1.337-.59 1.44-.43-.066-.807.161-1.343-.847l-.167-.889c-.508-.496-1.016-.767-1.524-1.663-.911-1.694-.452-2.651.786-3.188z"/><path style="opacity:.1;fill:#f4f4f7" d="M19.59 2c.076.384.144.745.195 1.102.657.318 1.123.85.916 1.435.264-.172.634-.55.705-.726.06-.149-.172.912-.01.857a3.21 3.21 0 0 1 1.067-.166c3.58.448 4.371 3.821 4.633 5.393.024.196.03.373.04.554.038-.459.031-.969-.04-1.554-.262-1.572-1.052-4.945-4.633-5.393a3.21 3.21 0 0 0-1.067.166c-.162.055.07-1.006.01-.857-.071.177-.441.554-.705.726.228-.645-.348-1.24-1.111-1.537zm-3.342.744c-1.892.009-3.07 1.821-3.863 2.965-.406.574-.747.979-1.11.9-.385-.083-.568-.498-.798-1.435-.219 1.003-1.193 1.789-.88 3.062.188-.746.724-1.348.88-2.062.23.937.413 1.352.798 1.435.363.079.704-.326 1.11-.9.793-1.144 1.97-2.956 3.863-2.965 2.455-.01 2.87 1.3 3.604 1.67.026-.34.008-.677-.03-1.02-.715-.39-1.153-1.66-3.574-1.65zm.764 7.52c-.106.007-.208.071-.309.14-.033.242-.024.502.03.782.081-.333.24-.632.462-.9a.498.498 0 0 0-.183-.022zm-6.758.232c-.351.386-.563.65-.674.83-.118.193-.138.73-.043 1.168.016-.054.022-.134.043-.168.154-.251.349-.527 1.115-1.308a6.972 6.972 0 0 1-.441-.522zm-.768 2.783c-1.252.715-.415 2.509-1.125 3.15-.497.35-.935.747-2.183.495.252.436.555.787.886 1.062.607-.046.944-.308 1.297-.556.782-.707-.32-2.813 1.565-3.334-.261-.041-.395-.416-.44-.817zm11.315.336c-.117.137-.223.327-.299.686-.614.192-.524.56-.545.9-.067.115-.057.233.104.418.07-.125.187-.239.441-.318.2-.947.582-.895.93-1.031-.25-.226-.437-.44-.631-.655zm5.332.8c-.067.125-.133.253-.2.38-.035.455.24.755.667.978.104-.417.159-.758.25-.877-.31-.124-.555-.283-.717-.482zm-1.951 5.03c-.098.029-.191.061-.297.084.178.277.267.642.304 1.059.031-.415.035-.801-.007-1.143zm-14.744.418c-.41.876-.088 1.221-.088 1.221.069-.19.167-.402.326-.654z"/></svg>