<svg height="32" width="32" xmlns="http://www.w3.org/2000/svg"><g transform="matrix(0 -1 -1 0 0 0)"><rect height="16" opacity=".2" rx="1.25" width="21" x="-29" y="-24"/><rect fill="#8e8e8e" height="16" rx="1.25" width="21" x="-28" y="-24"/><rect height="26" opacity=".2" rx="1.25" width="20" x="-26" y="-29"/><rect fill="#4f4f4f" height="26" rx="1.25" width="20" x="-25" y="-29"/><path d="m-23-27h16s-7 22-16 22z" fill="#333"/></g><path d="m5 7v16l22-16z" fill="#f4f4f7"/><path d="m4.25 5c-.692 0-1.25.558-1.25 1.25v1c0-.692.558-1.25 1.25-1.25h23.5c.692 0 1.25.558 1.25 1.25v-1c0-.692-.558-1.25-1.25-1.25z" fill="#f4f4f7" opacity=".1"/><path d="m5 23h22v1h-22z" fill="#f4f4f7" opacity=".1"/><rect height="13" opacity=".2" rx="1.95" width="13" x="16" y="16"/><rect fill="#2165f0" height="13" rx="1.95" width="13" x="16" y="15"/><path d="m19.66 17c-.15.003-.3.015-.445.03-.683.042-.258.551.16.653.683.194.679.97.273 1.457-.371.63-.93.032-1.363-.175-.646-.107-.022.79.184 1.01.307.476.83.705 1.37.623.675-.097 1.15.479 1.597.913 1.257 1.172 2.537 2.454 3.801 3.74.186.159.39.34.532.544.695.652 1.731-.388.955-1.222-1.607-1.48-3.259-3.184-4.744-4.633-.243-.238-.47-.49-.625-.8-.263-.543.017-1.269-.47-1.704-.319-.365-.775-.443-1.226-.436z" fill="#f4f4f7"/><path d="m27 17-.74.387-3.752 3.752a.995.995 0 0 0 -.534-.138.995.995 0 0 0 -.684.302l-2.986 2.986a.995.995 0 1 0 1.407 1.408l2.986-2.987a.995.995 0 0 0 .164-1.218l3.802-3.801z" fill="#f4f4f7"/></svg>