<svg height="32" width="32" xmlns="http://www.w3.org/2000/svg"><path d="m16.575 3v.001a3.17 3.184 0 0 0 -1.66.424l-9.33 5.409a3.17 3.184 0 0 0 -1.585 2.756v10.82a3.17 3.184 0 0 0 1.586 2.756l9.328 5.408a3.17 3.184 0 0 0 3.172 0l9.328-5.408a3.17 3.184 0 0 0 1.586-2.757v-10.819a3.17 3.184 0 0 0 -1.586-2.757l-9.328-5.409a3.17 3.184 0 0 0 -1.511-.424z" opacity=".2"/><path d="m16.575 2v.001a3.17 3.184 0 0 0 -1.66.424l-9.33 5.409a3.17 3.184 0 0 0 -1.585 2.756v10.82a3.17 3.184 0 0 0 1.586 2.756l9.328 5.408a3.17 3.184 0 0 0 3.172 0l9.328-5.408a3.17 3.184 0 0 0 1.586-2.757v-10.819a3.17 3.184 0 0 0 -1.586-2.757l-9.328-5.409a3.17 3.184 0 0 0 -1.511-.424z" fill="#1c5b6c"/><path d="m12.059 11.002a4.138 4.138 0 0 0 -.477.033c-.52.082-.96.251-1.33.512-.69.486-1.094 1.245-1.227 2.31a6.003 6.003 0 0 0 0 1.123c.16 1.222.78 2.285 1.85 3.174.445.37.984.717 1.484.955.316.15.323.153.34.2.01.023.018.276.022.593.005.387.013.595.029.696.103.649.278 1.132.596 1.632a3.788 3.788 0 0 0 2.258 1.665c.097.025.253.057.345.07l.213.03c.11.015.76-.004.902-.028a3.777 3.777 0 0 0 2.588-1.737c.318-.5.497-.983.6-1.632.016-.101.023-.309.027-.696.004-.317.015-.57.024-.593.017-.047.024-.05.34-.2a7.709 7.709 0 0 0 1.177-.713c1.035-.769 1.715-1.693 2.016-2.74.12-.417.164-.751.164-1.234-.001-1.92-.92-3.127-2.58-3.387a5.594 5.594 0 0 0 -.986-.023c-1.32.117-2.668.735-3.711 1.697-.14.13-.185.162-.221.162s-.083-.033-.223-.162c-1.043-.962-2.392-1.58-3.713-1.697a5.055 5.055 0 0 0 -.507-.01zm1.341 2.994a.82.82 0 0 1 .25.022c.107.032.354.165.51.275.442.312.7.802.797 1.514.033.24.029.305-.016.351a.117.117 0 0 1 -.093.04c-.052 0-.07-.012-.186-.136a3.415 3.415 0 0 0 -1.098-.79 6.191 6.191 0 0 0 -.459-.176c-.316-.106-.46-.174-.548-.264-.077-.078-.106-.137-.106-.225 0-.217.272-.45.666-.568.08-.024.185-.039.283-.043zm6.291.008c.13.017.27.057.395.111.19.084.37.234.432.358.036.074.04.189.007.254-.07.142-.23.235-.629.369-.452.152-.69.266-1.005.484-.187.13-.381.3-.553.482-.116.124-.132.135-.184.135a.12.12 0 0 1 -.095-.039c-.045-.046-.047-.11-.014-.351.096-.712.355-1.202.797-1.514.156-.11.403-.243.51-.275a.85.85 0 0 1 .34-.014zm-4.13 3.9c.088 0 .114.033.164.201.192.66.13 1.283-.172 1.76-.139.218-.22.27-.31.196-.12-.1-.184-.59-.126-.995.042-.291.169-.733.287-1.004.06-.136.082-.158.157-.158zm1.878.002c.033 0 .065.004.082.018.056.044.226.511.303.832" opacity=".2"/><g fill="#f4f4f7"><path d="m12.059 10.002a4.138 4.138 0 0 0 -.477.033c-.52.082-.96.251-1.33.512-.69.486-1.094 1.245-1.227 2.31a6.003 6.003 0 0 0 0 1.123c.16 1.222.78 2.285 1.85 3.174.445.37.984.717 1.484.955.316.15.323.153.34.2.01.023.018.276.022.593.005.387.013.595.029.696.103.649.278 1.132.596 1.632a3.788 3.788 0 0 0 2.258 1.665c.097.025.253.057.345.07l.213.03c.11.015.76-.004.902-.028a3.777 3.777 0 0 0 2.588-1.737c.318-.5.497-.983.6-1.632.016-.101.023-.309.027-.696.004-.317.015-.57.024-.593.017-.047.024-.05.34-.2a7.709 7.709 0 0 0 1.177-.713c1.035-.769 1.715-1.693 2.016-2.74.12-.417.164-.751.164-1.234-.001-1.92-.92-3.127-2.58-3.387a5.594 5.594 0 0 0 -.986-.023c-1.32.117-2.668.735-3.711 1.697-.14.13-.185.162-.221.162s-.083-.033-.223-.162c-1.043-.962-2.392-1.58-3.713-1.697a5.046 5.046 0 0 0 -.507-.01zm1.341 2.994a.821.821 0 0 1 .25.022c.107.032.354.165.51.275.442.312.7.802.797 1.514.033.24.029.305-.016.351a.117.117 0 0 1 -.093.04c-.052 0-.07-.012-.186-.136a3.415 3.415 0 0 0 -1.098-.79 6.191 6.191 0 0 0 -.459-.176c-.316-.106-.46-.174-.548-.264-.077-.078-.106-.137-.106-.225 0-.217.272-.45.666-.568.08-.024.185-.039.283-.043zm6.291.008c.13.017.27.057.395.111.19.084.37.234.432.358.036.074.04.189.007.254-.07.142-.23.235-.629.369-.452.152-.69.266-1.005.484-.187.13-.381.3-.553.482-.116.124-.132.135-.184.135a.12.12 0 0 1 -.095-.039c-.045-.046-.047-.11-.014-.351.096-.712.355-1.202.797-1.514.156-.11.403-.243.51-.275a.85.85 0 0 1 .34-.014zm-4.13 3.9c.088 0 .114.033.164.201.192.66.13 1.283-.172 1.76-.139.218-.22.27-.31.196-.12-.1-.184-.59-.126-.995.042-.291.169-.733.287-1.003.06-.137.082-.159.157-.159zm1.878.002c.033 0 .065.004.082.018.056.044.226.511.303.832"/><path d="m16.574 2v.002a3.17 3.184 0 0 0 -1.66.424l-9.328 5.408a3.17 3.184 0 0 0 -1.586 2.758v1a3.17 3.184 0 0 1 1.586-2.758l9.328-5.408a3.17 3.184 0 0 1 1.66-.424v-.002a3.17 3.184 0 0 1 1.512.426l9.328 5.408a3.17 3.184 0 0 1 1.586 2.758v-1a3.17 3.184 0 0 0 -1.586-2.758l-9.328-5.408a3.17 3.184 0 0 0 -1.512-.426z" opacity=".1"/></g></svg>