<svg height="32" width="32" xmlns="http://www.w3.org/2000/svg"><ellipse cx="6.859" cy="23.531" opacity=".2" rx="13.278" ry="9.997" transform="matrix(.8425 -.5387 .4344 .90072 0 0)"/><ellipse cx="7.296" cy="22.682" fill="#6e6e6e" rx="13.278" ry="9.997" transform="matrix(.8425 -.5387 .4344 .90072 0 0)"/><path d="m19.885 5.004a9.839 13.396 49.086 0 0 -8.229 2.49 9.839 13.396 49.086 0 0 -7.633 12.887 9.839 13.396 49.086 0 1 7.633-11.887 9.839 13.396 49.086 0 1 15.531 1.854 9.839 13.396 49.086 0 1 .79 3.271 9.839 13.396 49.086 0 0 -.79-4.271 9.839 13.396 49.086 0 0 -7.302-4.344z" fill="#f4f4f7" opacity=".1"/><g transform="matrix(0 -1 -1 0 0 0)"><rect height="7" opacity=".2" rx="3.5" width="7" x="-20" y="-9"/><rect height="7" opacity=".2" rx="3.5" width="7" x="-11" y="-19"/><rect height="7" opacity=".2" rx="3.5" width="7" x="-18" y="-31"/><rect fill="#3e3e3e" height="7" rx="3.5" width="7" x="-10" y="-19"/><rect height="5" opacity=".2" rx="2.5" width="5" x="-10" y="-18"/><rect fill="#66f" height="5" rx="2.5" width="5" x="-9" y="-18"/><rect fill="#3e3e3e" height="7" rx="3.5" width="7" x="-17" y="-31"/><rect height="5" opacity=".2" rx="2.5" width="5" x="-17" y="-30"/><rect fill="#66f" height="5" rx="2.5" width="5" x="-16" y="-30"/><rect fill="#3e3e3e" height="7" rx="3.5" width="7" x="-19" y="-9"/><rect height="5" opacity=".2" rx="2.5" width="5" x="-19" y="-8"/><rect fill="#66f" height="5" rx="2.5" width="5" x="-18" y="-8"/><rect height="7" opacity=".2" rx="3.5" width="7" x="-31" y="-12"/><rect fill="#3e3e3e" height="7" rx="3.5" width="7" x="-30" y="-12"/><rect height="5" opacity=".2" rx="2.5" width="5" x="-30" y="-11"/><rect fill="#66f" height="5" rx="2.5" width="5" x="-29" y="-11"/><rect height="7" opacity=".2" rx="3.5" width="7" x="-29" y="-25"/><rect fill="#3e3e3e" height="7" rx="3.5" width="7" x="-28" y="-25"/><rect height="5" opacity=".2" rx="2.5" width="5" x="-28" y="-24"/><rect fill="#66f" height="5" rx="2.5" width="5" x="-27" y="-24"/></g></svg>