<svg height="32" viewBox="0 0 32 32" width="32" xmlns="http://www.w3.org/2000/svg"><g transform="translate(-16 -314.64999)"><path d="m32 315.64999c8.31 0 15 6.69 15 15s-6.69 15-15 15-15-6.69-15-15 6.69-15 15-15z" fill="#7c6394"/><path d="m32 316.64999c7.756 0 14 6.244 14 14s-6.244 14-14 14-14-6.244-14-14 6.244-14 14-14z" fill="#dcd5f2"/><path d="m27.501953 322.64999c-.276893-.00099-.501927.2231-.501953.5v2.83594c-.628307.89407-1 1.98354-1 3.16406 0 2.35578 1.469509 4.35023 3.542969 5.13672-.340139.53994-.542969 1.17535-.542969 1.86328 0 .0415.0103.0799.01172.12109h-.01172v.0645c-.683346-.28598-1.042851-.74332-1.449219-1.28515-.343-.45733-.67282-1.00764-1.216797-1.50977-.543975-.50218-1.361762-.89067-2.333984-.89067-1.352323-.0191-1.352323 2.01912 0 2 .527778 0 .709992.11151.978516.35937.268523.24786.563703.69758.970703 1.24024.589236.78565 1.531012 1.68456 3.050781 2.125v.77539.5.5c0 .277.223.5.5.5s.5-.223.5-.5v-.5-.5-2c0-.277.223-.5.5-.5s.5.223.5.5v1.5.5.5.5c0 .277.223.5.5.5s.5-.223.5-.5v-.5-.5-3c0-.277.223-.5.5-.5s.5.223.5.5v2.5.5.5.5c0 .277.223.5.5.5s.5-.223.5-.5v-.5-.5-.5-1.5c0-.277.223-.5.5-.5s.5.223.5.5v1.5.5.5.5c0 .277.223.5.5.5s.5-.223.5-.5v-.5-.5-2.87891h-.01172c.001402-.0411.01172-.0796.01172-.12109 0-.68793-.20283-1.32334-.542969-1.86328 2.07346-.78649 3.542969-2.78094 3.542969-5.13672 0-1.18052-.371693-2.26998-1-3.16406v-2.83594c.000109-.28235-.233413-.5088-.515625-.5-.06258.002-.124196.0161-.181641.041l-2.572265 1.10156c-.395961-.09-.8065-.14258-1.230469-.14258h-2c-.423969 0-.834508.0526-1.230469.14258l-2.572265-1.10156c-.06169-.0266-.128114-.0406-.195313-.041z" fill="#7c6394"/></g></svg>