<svg height="32" width="32" xmlns="http://www.w3.org/2000/svg"><path d="m16 2c-.786 0-1.572.293-2.16.88l-11.96 11.962c-1.175 1.174-1.173 3.14.002 4.315l11.96 11.961c1.175 1.175 3.142 1.177 4.317.002l11.96-11.961c1.175-1.175 1.175-3.143 0-4.317l-11.96-11.962a3.045 3.045 0 0 0 -2.16-.88z" opacity=".2"/><path d="m16 1c-.786 0-1.572.293-2.16.88l-11.96 11.962c-1.175 1.174-1.173 3.14.002 4.315l11.96 11.961c1.175 1.175 3.142 1.176 4.317.002l11.96-11.961c1.175-1.175 1.175-3.143 0-4.317l-11.96-11.962a3.045 3.045 0 0 0 -2.16-.88z" fill="#e3b56f"/><path d="m11.568 4.154-1.414 1.414 3.846 3.846v10.586h2v-8.586l4.293 4.293 1.414-1.414z" fill="#f4f4f7" opacity=".5"/><path d="m15 7a3 3 0 0 0 -3 3 3 3 0 0 0 3 3 3 3 0 0 0 3-3 3 3 0 0 0 -3-3zm6 6a3 3 0 0 0 -3 3 3 3 0 0 0 3 3 3 3 0 0 0 3-3 3 3 0 0 0 -3-3zm-6 5a3 3 0 0 0 -3 3 3 3 0 0 0 3 3 3 3 0 0 0 3-3 3 3 0 0 0 -3-3z" opacity=".2"/><g fill="#f4f4f7"><path d="m15 6a3 3 0 0 0 -3 3 3 3 0 0 0 3 3 3 3 0 0 0 3-3 3 3 0 0 0 -3-3zm6 6a3 3 0 0 0 -3 3 3 3 0 0 0 3 3 3 3 0 0 0 3-3 3 3 0 0 0 -3-3zm-6 5a3 3 0 0 0 -3 3 3 3 0 0 0 3 3 3 3 0 0 0 3-3 3 3 0 0 0 -3-3z"/><path d="m16 1c-.786 0-1.573.294-2.16.88l-11.96 11.963c-.712.713-.986 1.716-.833 2.658.098-.61.372-1.196.834-1.658l11.959-11.963a3.047 3.047 0 0 1 2.16-.88c.786 0 1.57.294 2.158.88l11.962 11.963c.462.462.736 1.047.834 1.658.152-.942-.121-1.946-.834-2.658l-11.96-11.963a3.043 3.043 0 0 0 -2.16-.88z" opacity=".2"/></g></svg>