<svg xmlns="http://www.w3.org/2000/svg" height="32" width="32"><rect style="opacity:.2" rx="2" ry="2" height="28" width="18" y="3" x="7"/><rect style="fill:#17191e" rx="2" ry="2" height="28" width="18" y="2" x="7"/><rect style="fill:#0f92db" rx="2" ry="2" height="12" width="14" y="4" x="9"/><path style="opacity:.2" d="M11 4c-1.108 0-2 .892-2 2v1c0-1.108.892-2 2-2h10c1.108 0 2 .892 2 2V6c0-1.108-.892-2-2-2H11z"/><circle r="5" style="opacity:.2" cx="16" cy="24"/><circle r="5" style="fill:#4f4f4f" cx="16" cy="23"/><circle r="4" style="fill:#0f92db" cx="16" cy="23"/><circle r="3" style="fill:#4f4f4f" cx="16" cy="23"/><path style="opacity:.1;fill:#f4f4f7" d="M9 2c-1.108 0-2 .892-2 2v1c0-1.108.892-2 2-2h14c1.108 0 2 .892 2 2V4c0-1.108-.892-2-2-2H9z"/><path style="opacity:.2;fill:#f4f4f7" d="M16 18a5 5 0 0 0-5 5 5 5 0 0 0 .027.484A5 5 0 0 1 16 19a5 5 0 0 1 4.973 4.516A5 5 0 0 0 21 23a5 5 0 0 0-5-5z"/></svg>