<svg height="32" width="32" xmlns="http://www.w3.org/2000/svg">
    <rect height="28" opacity=".2" rx="1.4" width="28" x="2" y="3"/>
    <rect fill="#546e7a" height="28" rx="1.4" width="28" x="2" y="2"/>
    <path d="M14 9v6h-3l5 5.5 5-5.5h-3V9zM7 19v6h18v-6h-3v3H10v-3z" opacity=".2"/>
    <g fill="#f4f4f7">
        <path d="M14 8v6h-3l5 5.5 5-5.5h-3V8zM7 18v6h18v-6h-3v3H10v-3z"/>
        <path d="M3.4 2C2.625 2 2 2.625 2 3.4v1C2 3.625 2.625 3 3.4 3h25.2c.775 0 1.4.625 1.4 1.4v-1c0-.775-.625-1.4-1.4-1.4z" opacity=".1"/>
    </g>
</svg>
