<svg height="32" width="32" xmlns="http://www.w3.org/2000/svg">
    <path d="M16 2H3.5C2.669 2 2 2.669 2 3.5V16h14z" fill="#f2ae37"/>
    <path d="M16 2h12.5c.831 0 1.5.669 1.5 1.5V16H16zm0 28H3.5c-.831 0-1.5-.669-1.5-1.5V16h14z" fill="#4785e2"/>
    <path d="M16 30h12.5c.831 0 1.5-.669 1.5-1.5V16H16z" fill="#77e247"/>
    <path d="M3.5 2C2.669 2 2 2.669 2 3.5v1C2 3.669 2.669 3 3.5 3h25c.831 0 1.5.669 1.5 1.5v-1c0-.831-.669-1.5-1.5-1.5z" fill="#fff" opacity=".1"/>
    <path d="M2 28.5v1c0 .831.669 1.5 1.5 1.5h25c.831 0 1.5-.669 1.5-1.5v-1c0 .831-.669 1.5-1.5 1.5h-25c-.831 0-1.5-.669-1.5-1.5z" opacity=".2"/>
    <g fill="#17191e">
        <path d="m9 4 1.545 3.292L14 7.82l-2.5 2.562.59 3.618L9 12.292 5.91 14l.59-3.618L4 7.82l3.455-.528z"/>
        <circle cx="23" cy="9" r="5"/>
        <path d="M18 18h10v10H18z"/>
        <circle cx="9" cy="23" r="5"/>
    </g>
</svg>
