<svg height="32" width="32" xmlns="http://www.w3.org/2000/svg"><rect height="11" opacity=".2" rx="2.4" ry="2.75" width="6" x="13" y="20"/><path d="m15.4 3c-1.33 0-2.4 1.226-2.4 2.75v.67a11 11 0 0 0 -4.664 2.689l-.578-.332c-1.32-.762-2.917-.448-3.582.703l-.6 1.04c-.665 1.15-.138 2.69 1.182 3.452l.59.34a11 11 0 0 0 -.348 2.688 11 11 0 0 0 .344 2.689l-.586.338c-1.32.762-1.847 2.302-1.182 3.453l.6 1.04c.665 1.15 2.262 1.464 3.582.702l.588-.34a11 11 0 0 0 5.57 2.914l.172.237c.896 1.232.42 1.425 1.748 1.342l.873-.054c1.327-.083.503.055 1.312-1.236l.206-.326a11 11 0 0 0 5.437-2.869l.578.332c1.32.762 2.917.449 3.582-.703l.6-1.039c.665-1.151.138-2.691-1.182-3.453l-.59-.34a11 11 0 0 0 .348-2.687 10.998 10.998 0 0 0 -.344-2.69l.586-.338c1.32-.762 1.847-2.301 1.182-3.453l-.6-1.039c-.665-1.151-2.262-1.465-3.582-.703l-.588.34a11 11 0 0 0 -4.654-2.69v-.677c0-1.524-1.07-2.75-2.4-2.75z" opacity=".2"/><path d="m15.4 2c-1.33 0-2.4 1.226-2.4 2.75v.67a11 11 0 0 0 -4.664 2.69l-.578-.333c-1.32-.761-2.917-.448-3.582.703l-.6 1.04c-.665 1.151-.138 2.69 1.182 3.453l.59.34a11 11 0 0 0 -.348 2.687 11 11 0 0 0 .344 2.69l-.586.337c-1.32.762-1.847 2.302-1.182 3.453l.6 1.04c.665 1.151 2.262 1.464 3.582.703l.588-.34a11 11 0 0 0 5.57 2.914l.172.236c.896 1.232.42 2.126 1.748 2.043l.873-.055c1.327-.082.503-.645 1.312-1.935l.206-.326a11 11 0 0 0 5.437-2.87l.578.333c1.32.761 2.917.448 3.582-.703l.6-1.04c.665-1.151.138-2.69-1.182-3.453l-.59-.34a11 11 0 0 0 .348-2.687 11 11 0 0 0 -.344-2.69l.586-.337c1.32-.762 1.847-2.302 1.182-3.453l-.6-1.04c-.665-1.151-2.262-1.464-3.582-.703l-.588.34a11 11 0 0 0 -4.654-2.69v-.677c0-1.523-1.07-2.75-2.4-2.75z" fill="#008374"/><rect fill="#f4f4f7" height="11" rx="2.4" ry="2.75" width="6" x="13" y="19"/><rect height="8.4" opacity=".4" rx="1" width="2" x="15" y="19.6"/><path d="m19 10.693v5.207l-3 2.2-3-2.2v-5.2a6.99 6.99 0 0 0 -4 6.3 7 7 0 0 0 14 0 6.99 6.99 0 0 0 -4-6.307z" opacity=".2"/><g fill="#f4f4f7"><path d="m19 9.693v5.207l-3 2.2-3-2.2v-5.2a6.99 6.99 0 0 0 -4 6.3 7 7 0 0 0 14 0 6.99 6.99 0 0 0 -4-6.307z"/><path d="m15.4 2c-1.33 0-2.4 1.226-2.4 2.75v.67a11 11 0 0 0 -4.664 2.69l-.578-.333c-1.32-.761-2.917-.448-3.582.703l-.6 1.04c-.283.49-.338 1.049-.22 1.59.046-.204.112-.403.22-.59l.6-1.04c.665-1.151 2.262-1.464 3.582-.703l.578.332a11 11 0 0 1 4.664-2.689v-.67c0-1.523 1.07-2.75 2.4-2.75h1.2c1.33 0 2.4 1.227 2.4 2.75v.678a11 11 0 0 1 4.654 2.69l.588-.34c1.32-.762 2.917-.449 3.582.702l.6 1.04c.108.187.174.386.22.59.118-.541.063-1.1-.22-1.59l-.6-1.04c-.665-1.151-2.262-1.464-3.582-.703l-.588.34a11 11 0 0 0 -4.654-2.69v-.677c0-1.524-1.07-2.75-2.4-2.75zm-10.236 12.207a11 11 0 0 0 -.164 1.793 11 11 0 0 0 .021.418 11 11 0 0 1 .327-2.105zm21.67.002-.178.102a11 11 0 0 1 .323 2.271 11 11 0 0 0 .021-.582 11 11 0 0 0 -.166-1.791zm-21.668 4.582-.408.236c-1.105.638-1.643 1.82-1.403 2.864.16-.73.645-1.426 1.403-1.864l.586-.338a11 11 0 0 1 -.178-.898zm21.67.002a11 11 0 0 1 -.184.895l.59.34c.758.437 1.243 1.132 1.403 1.863.24-1.044-.298-2.226-1.403-2.864z" opacity=".1"/></g></svg>