<svg height="64" width="64" xmlns="http://www.w3.org/2000/svg" xmlns:xlink="http://www.w3.org/1999/xlink">
    <filter id="d" color-interpolation-filters="sRGB" height="1.137" width="1.217" x="-.109" y="-.068">
        <feGaussianBlur stdDeviation=".302"/>
    </filter>
    <linearGradient id="e" gradientUnits="userSpaceOnUse" x1="19.264" x2="44.599" xlink:href="#a" y1="51.871" y2="33.158"/>
    <linearGradient id="a" gradientUnits="userSpaceOnUse" x1="7.988" x2="12.91" y1="7.72" y2="12.495">
        <stop offset="0" stop-color="#fff" stop-opacity=".5"/>
        <stop offset="1" stop-color="#fff"/>
    </linearGradient>
    <linearGradient id="f" gradientUnits="userSpaceOnUse" x1="23.644" x2="30.988" xlink:href="#a" y1="15.672" y2="15.672"/>
    <filter id="b" color-interpolation-filters="sRGB" height="1.054" width="1.054" x="-.027" y="-.027">
        <feGaussianBlur stdDeviation=".619"/>
    </filter>
    <linearGradient id="c" gradientUnits="userSpaceOnUse" x1="4.5" x2="59.5" y1="59.49" y2="4.49">
        <stop offset="0" stop-color="#32d7ff"/>
        <stop offset="1" stop-color="#329bff"/>
    </linearGradient>
    <linearGradient id="g" gradientUnits="userSpaceOnUse" x1="19.617" x2="38.445" y1="27.294" y2="14.712">
        <stop offset="0" stop-color="#1493ff"/>
        <stop offset="1" stop-color="#14afff"/>
    </linearGradient>
    <linearGradient id="h" gradientUnits="userSpaceOnUse" x1="30.329" x2="36.803" y1="44.51" y2="31.363">
        <stop offset="0" stop-color="#0292ff"/>
        <stop offset="1" stop-color="#11afff"/>
    </linearGradient>
    <rect fill="#141414" filter="url(#b)" height="55" opacity=".3" ry="15" width="55" x="4.5" y="4.5"/>
    <rect fill="url(#c)" height="55" ry="15" width="55" x="4.5" y="4.5"/>
    <g fill-opacity=".5" filter="url(#d)" opacity=".3" stroke-width=".012" transform="scale(3.7796)">
        <path d="m5.566 4.714 3.383-.906a.584.584 0 0 1 .715.413l2.116 7.895a.584.584 0 0 1-.413.715l-3.383.907a.584.584 0 0 1-.715-.413L5.153 5.43a.584.584 0 0 1 .413-.715z"/>
        <path d="m6.702 3.352.582-.156a.603.603 0 0 1 .738.426l.156.582a.602.602 0 0 1-.426.737l-.582.157a.603.603 0 0 1-.738-.426l-.156-.583a.602.602 0 0 1 .426-.737z" opacity="1"/>
        <path d="m5.566 4.714 3.383-.906a.584.584 0 0 1 .715.413l.5 1.86-4.512 1.21-.5-1.862a.584.584 0 0 1 .414-.715zM7.914 9.193c.03-.03.076-.04.116-.024l.726.415.22-1.315a.112.112 0 0 1 .098-.093.105.105 0 0 1 .11.072l.64 2.406a.113.113 0 0 1-.028.116.107.107 0 0 1-.115.024l-.717-.41-.229 1.302a.112.112 0 0 1-.093.1.105.105 0 0 1-.114-.068l-.64-2.406a.113.113 0 0 1 .026-.119z"/>
    </g>
    <path d="m21.036 17.818 12.79-3.426a2.206 2.206 0 0 1 2.702 1.56l7.996 29.842a2.207 2.207 0 0 1-1.56 2.703l-12.79 3.427a2.206 2.206 0 0 1-2.702-1.56L19.476 20.52a2.206 2.206 0 0 1 1.56-2.703z" fill="url(#e)"/>
    <path d="m25.332 12.668 2.2-.59a2.277 2.277 0 0 1 2.788 1.61l.59 2.2a2.277 2.277 0 0 1-1.61 2.788l-2.2.59a2.277 2.277 0 0 1-2.79-1.61l-.588-2.2a2.277 2.277 0 0 1 1.61-2.788z" fill="url(#f)"/>
    <g stroke-linecap="round" stroke-linejoin="round">
        <path d="M34.266 14.32c-.147.01-.295.031-.442.07l-12.787 3.428a2.207 2.207 0 0 0-1.56 2.703l1.884 7.036 17.051-4.57-1.885-7.036a2.206 2.206 0 0 0-2.261-1.63z" fill="url(#g)"/>
        <path d="M34.297 30.9a.425.425 0 0 0-.37.354l-.831 4.969-2.746-1.569a.407.407 0 0 0-.44.094.426.426 0 0 0-.1.447l2.42 9.094a.395.395 0 0 0 .434.258.425.425 0 0 0 .352-.379l.865-4.924 2.709 1.553c.147.06.319.024.435-.09a.424.424 0 0 0 .108-.437l-2.42-9.096a.396.396 0 0 0-.416-.274z" fill="url(#h)"/>
    </g>
</svg>
