<svg height="32" width="32" xmlns="http://www.w3.org/2000/svg"><rect height="28" opacity=".2" rx="1.4" width="28" x="2" y="3"/><rect fill="#f4f4f7" height="28" rx="1.4" width="28" x="2" y="2"/><path d="m23.201 5a4.192 4.192 0 0 0 -4.201 4.2v.598a4.192 4.192 0 0 0 4.201 4.202h.598a4.192 4.192 0 0 0 4.201-4.202v-.597a4.192 4.192 0 0 0 -4.201-4.201zm-17.151 1v5.384s.02.476-1.026.998l.27 1.239c2.092-1.132 1.627-2.111 1.755-2.621h3.951v.23c.147 1.243-.9 1.727-1.63 1.885l-.834.885h1.039c1.142 0 1.875-.795 2.154-1.465.28-.67.27-1.305.27-1.305v-5.23zm1 1h3.95v1.05h-3.951zm0 2.05h3.95v.95h-3.951zm1.444 10.95c-.22 0-.42.041-.598.127-.224.108-.4.225-.523.35a1.56 1.56 0 0 0 -.465 1.127c0 .216.04.42.117.614.078.194.193.365.348.512.039.039.104.092.197.162a1.653 1.653 0 0 1 .512.64c.085.19.127.415.127.675-.244 0-.46-.04-.65-.118a1.555 1.555 0 0 1 -.516-.347 1.824 1.824 0 0 1 -.15-.164c-.07-.101-.126-.17-.164-.21a1.522 1.522 0 0 0 -1.125-.465 1.569 1.569 0 0 0 -1.127.466 1.72 1.72 0 0 0 -.35.523" opacity=".1"/><path d="m6.05 5v5.385s.019.475-1.026.998l.27 1.238c2.093-1.132 1.628-2.109 1.756-2.621h3.95v.23c.147 1.243-.9 1.727-1.632 1.884l-.83.885h1.038c1.143 0 1.874-.794 2.154-1.464.279-.67.27-1.305.27-1.305v-5.23zm1 1h3.95v1.05h-3.95zm0 2.05h3.95v.95h-3.95z" fill="#4191ef"/><path d="m24.25 19a.75.75 0 1 0 0 1.5.75.75 0 0 0 0-1.5zm-1.5 2a.75.75 0 1 0 0 1.5.75.75 0 0 0 0-1.5zm3 0a.75.75 0 1 0 0 1.5.75.75 0 0 0 0-1.5zm2.25 2.246-1.5.61v1.146h-1.5v-1.147l-1.5.608v.539l-1.46-.004v-.637l-1.339.717v.906c0 .391-.394.707-.785.707a.713.713 0 0 1 -.715-.707v-.49l-1.383.803a2.125 2.125 0 0 0 2.098 1.81 2.124 2.124 0 0 0 2.121-2.109h.002l5.961.002z" fill="#26a269"/><path d="m8.21 23.207q0-.39-.128-.674-.128-.29-.337-.488-.081-.082-.174-.152-.14-.104-.197-.162-.233-.221-.349-.512-.116-.29-.116-.615 0-.337.122-.622t.343-.506q.185-.185.522-.348.267-.128.598-.128.331 0 .61.128.313.14.522.348.221.221.343.506.122.285.122.622 0 .354-.122.633-.122.273-.343.494-.058.058-.209.162-.046.035-.162.152-.238.232-.354.517-.11.279-.11.645.394 0 .684-.134.297-.14.488-.331.076-.076.145-.169.105-.145.163-.203.226-.227.517-.343.29-.122.615-.122.337 0 .622.122.284.122.505.343.209.21.348.523.122.273.122.604 0 .331-.122.604-.14.314-.348.523-.221.221-.505.343-.285.122-.622.122-.325 0-.615-.116-.29-.122-.517-.349-.058-.058-.163-.203-.07-.093-.145-.169-.238-.226-.522-.342-.28-.122-.65-.122 0 .395.133.691.14.29.33.482.076.076.17.146.144.104.202.162.227.227.343.517.122.29.122.616 0 .337-.122.622t-.343.505q-.209.21-.522.349-.274.122-.604.122-.331 0-.604-.122-.313-.14-.522-.349-.221-.22-.343-.505-.122-.285-.122-.622 0-.325.116-.616.122-.29.349-.517.058-.058.203-.162.093-.07.168-.146.227-.238.343-.517.122-.285.122-.656-.366 0-.656.122-.285.116-.511.342-.082.082-.151.175-.105.14-.163.197-.22.233-.51.349-.291.116-.616.116-.337 0-.622-.122-.284-.122-.505-.343-.191-.186-.348-.523-.128-.267-.128-.598 0-.331.128-.61.14-.314.348-.523.22-.22.505-.343.285-.122.622-.122.354 0 .627.122.278.122.499.343.058.058.163.21.034.046.15.162.233.232.517.348.285.117.65.117z" fill="#a347ba"/><rect fill="#ffb820" height="9" rx="4.202" width="9" x="19" y="4"/><path d="m22 10h3s0 1-1.5 1-1.5-1-1.5-1z" fill="#c01c27"/><path d="m22 9.5h3v.5h-3z" fill="#f4f4f7"/><path d="m21.25 7.375a.375.375 0 1 1 .75 0v1.125h-.75zm3.75 0a.375.375 0 1 1 .75 0v1.125h-.75z" fill="#b45600"/><path d="m15 2v13h-13v2h13v13h2v-13h13v-2h-13v-13z" opacity=".1"/><path d="m3.4 2c-.775 0-1.4.625-1.4 1.4v1c0-.775.625-1.4 1.4-1.4h25.2c.775 0 1.4.625 1.4 1.4v-1c0-.775-.625-1.4-1.4-1.4z" fill="#f4f4f7" opacity=".2"/></svg>