<svg height="32" width="32" xmlns="http://www.w3.org/2000/svg"><rect fill="#1e88e5" height="28" rx="1.5" width="28" x="2" y="2"/><path d="m4 17 4-3v2h4v2h-4v2zm24 0-4-3v2h-4v2h4v2z" opacity=".2"/><path d="m3.5 2c-.831 0-1.5.669-1.5 1.5v1c0-.831.669-1.5 1.5-1.5h25c.831 0 1.5.669 1.5 1.5v-1c0-.831-.669-1.5-1.5-1.5z" fill="#fff" opacity=".2"/><path d="m2 28.5v1c0 .831.669 1.5 1.5 1.5h25c.831 0 1.5-.669 1.5-1.5v-1c0 .831-.669 1.5-1.5 1.5h-25c-.831 0-1.5-.669-1.5-1.5z" opacity=".2"/><path d="m4 16 4-3v2h4v2h-4v2z" fill="#b3e5fc"/><rect fill="#f4f4f7" height="24" opacity=".2" rx=".5" width="2" x="15" y="5"/><rect fill="#253951" height="24" rx=".5" width="2" x="15" y="4"/><path d="m28 16-4-3v2h-4v2h4v2z" fill="#b3e5fc"/></svg>