<svg height="32" width="32" xmlns="http://www.w3.org/2000/svg">
    <path d="M15.5 3C8.596 3 3 8.328 3 14.9c.004 6.509 5 12.007 11.837 12.091.124.006.166.041.166.175-.007 1.223-.004 2.458-.003 3.68 0 .048.004.095.007.154l.092-.037c2.39-1.08 5.086-2.443 7.043-4.152.39-.34.762-.697 1.12-1.068.154-.159.306-.32.46-.478" opacity=".2"/>
    <path d="M15.5 2C8.596 2 3 7.328 3 13.9c.004 6.509 5 12.007 11.837 12.091.124.007.166.041.166.176-.007 1.222-.004 2.457-.003 3.68 0 .047.004.094.007.153l.092-.037c2.39-1.079 5.086-2.443 7.043-4.152.39-.34.762-.697 1.12-1.068.154-.159.306-.32.46-.478" fill="#119184"/>
    <path d="M15.5 2C8.596 2 3 7.328 3 13.9c0 .176.018.348.025.522C3.291 8.073 8.766 3 15.5 3c6.229.006 11.502 4.378 12.365 10.25.03.192.055.384.074.576.014.116.024.233.034.35l.002.01c.006.1.005.201.01.302.008-.182.013-.365.013-.547l.002-.04-.002-.022a10.88 10.88 0 0 0-.023-.693l-.002-.01c-.01-.117-.02-.234-.034-.35-.02-.192-.044-.384-.074-.576C27.002 6.378 21.73 2.006 15.5 2z" fill="#f4f4f7" opacity=".2"/>
    <path d="M11.063 10C9.92 10 9 10.955 9 12.143v5.714C9 19.045 9.92 20 11.063 20h6.874C19.08 20 20 19.045 20 17.857v-1.056l.5.449L23 19.5v-9l-2.5 2.25-.5.45v-1.057C20 10.955 19.08 10 17.937 10z" opacity=".2"/>
    <g fill="#f4f4f7">
        <rect height="10" rx="2.063" ry="2.143" width="11" x="9" y="9"/>
        <path d="m22.999 18.5-2.5-2.25L18 14l2.5-2.25L23 9.5V14z"/>
    </g>
</svg>
