<svg height="32" width="32" xmlns="http://www.w3.org/2000/svg"><path d="m6.2 3c-2.1 0-4.2 2.1-4.2 4.2v22.3c0 .75.75 1.5 1.5 1.5h22.3c2.1 0 4.2-2.1 4.2-4.2 0-14-9.8-23.8-23.8-23.8z" opacity=".2"/><path d="m30 25.8c0-14-9.8-23.8-23.8-23.8-2.1 0-4.2 2.1-4.2 4.2v19.6c0 2.1 2.1 4.2 4.2 4.2h19.6c2.1 0 4.2-2.1 4.2-4.2z" fill="#dfd92a"/><path d="m22 27c0-10-7-17-17-17-1.5 0-3 1.5-3 3v14c0 1.5 1.5 3 3 3h14c1.5 0 3-1.5 3-3z" fill="#db3151"/><path d="m12 28.5c0-5-3.5-8.5-8.5-8.5-.75 0-1.5.75-1.5 1.5v7c0 .75.75 1.5 1.5 1.5h7c.75 0 1.5-.75 1.5-1.5z" fill="#17191e"/><path d="m6.2 2c-2.1 0-4.2 2.1-4.2 4.2v1c0-2.1 2.1-4.2 4.2-4.2 13.716 0 23.394 9.41 23.78 22.959.003-.053.02-.105.02-.158 0-14.001-9.8-23.801-23.8-23.801z" fill="#f4f4f7" opacity=".2"/><path d="m5 10c-1.5 0-3 1.5-3 3v1c0-1.5 1.5-3 3-3 9.751 0 16.632 6.664 16.969 16.268.01-.09.031-.178.031-.268 0-10-7-17-17-17zm-1.5 10c-.75 0-1.5.75-1.5 1.5v1c0-.75.75-1.5 1.5-1.5 4.753 0 8.143 3.166 8.467 7.773.02-.09.033-.181.033-.273 0-5-3.5-8.5-8.5-8.5z" opacity=".1"/></svg>