<svg xmlns="http://www.w3.org/2000/svg" width="32" height="32" version="1"><path style="opacity:.2" d="M16.5 2A14.5 14.5 0 0 0 2 16.5v12.325A2.17 2.17 0 0 0 4.175 31H16.5A14.5 14.5 0 0 0 31 16.5 14.5 14.5 0 0 0 16.5 2z"/><path style="fill:#b2b2b2" d="M16.5 1A14.5 14.5 0 0 0 2 15.5v12.325A2.17 2.17 0 0 0 4.175 30H16.5A14.5 14.5 0 0 0 31 15.5 14.5 14.5 0 0 0 16.5 1z"/><path style="opacity:.1" d="M5 16.5A11.5 11.5 0 0 0 16.5 28v-7a4.5 4.5 0 0 1-4.5-4.5zm22.965 0a11.5 11.5 0 0 1 .02.416A11.5 11.5 0 0 0 28 16.5z"/><path style="fill:#797979" d="M5 15.5A11.5 11.5 0 0 0 16.5 27v-7a4.5 4.5 0 0 1-4.5-4.5H5zm22.965 0a11.5 11.5 0 0 1 .02.416A11.5 11.5 0 0 0 28 15.5h-.035z"/><path style="opacity:.1" d="M8.291 8.459A11.499 11.499 0 0 0 5 16.5h7a4.5 4.5 0 0 1 1.24-3.094z"/><path style="fill:#ffc107" d="M8.291 7.459A11.499 11.499 0 0 0 5 15.5h7a4.5 4.5 0 0 1 1.24-3.094L8.291 7.46z"/><path style="opacity:.1" d="M19.596 19.764A4.5 4.5 0 0 1 16.5 21v7a11.492 11.492 0 0 0 8.041-3.291z"/><path style="fill:#f65c51" d="M19.596 18.764A4.5 4.5 0 0 1 16.5 20v7a11.492 11.492 0 0 0 8.041-3.291l-4.945-4.945z"/><path style="opacity:.1" d="M16.5 5a11.5 11.5 0 0 0-8.209 3.459l4.95 4.947A4.5 4.5 0 0 1 16.5 12a4.5 4.5 0 0 1 4.5 4.5 4.5 4.5 0 0 1-1.404 3.264l4.95 4.949A11.5 11.5 0 0 0 28 16.5 11.5 11.5 0 0 0 16.5 5z"/><path style="fill:#3d9260" d="M16.5 4a11.5 11.5 0 0 0-8.209 3.459l4.95 4.947A4.5 4.5 0 0 1 16.5 11a4.5 4.5 0 0 1 4.5 4.5 4.5 4.5 0 0 1-1.404 3.264l4.95 4.949A11.5 11.5 0 0 0 28 15.5 11.5 11.5 0 0 0 16.5 4z"/><circle style="opacity:.2" cx="16.5" cy="16.5" r="1.5"/><circle style="fill:#f4f4f7" cx="16.5" cy="15.5" r="1.5"/><path style="opacity:.2" d="m5.384 30.238 6.468-8.21a.626.626 0 0 0-.881-.88l-8.21 6.469A1.82 1.86 0 0 0 2 29.125C2 30.162 2.84 31 3.875 31a1.884 1.923 0 0 0 1.51-.762z"/><path style="fill:#f4f4f7" d="m5.384 29.238 6.468-8.21a.626.626 0 0 0-.881-.88l-8.21 6.469A1.82 1.86 0 0 0 2 28.125C2 29.162 2.84 30 3.875 30a1.884 1.923 0 0 0 1.51-.762z"/><path style="fill:#f4f4f7;opacity:.2" d="M16.5 1A14.5 14.5 0 0 0 2 15.5v1A14.5 14.5 0 0 1 16.5 2a14.5 14.5 0 0 1 14.479 14.08A14.5 14.5 0 0 0 31 15.5 14.5 14.5 0 0 0 16.5 1z"/></svg>