<svg height="32" width="32" xmlns="http://www.w3.org/2000/svg"><circle cx="16" cy="17" opacity=".2" r="14"/><circle cx="16" cy="16" fill="#01a59b" r="14"/><path d="m10.913 8-3.913 3.913 3.471 3.471 5.524-2.304zm9.24 4.846-11.076 4.62 4.993 1.419 1.38 5.038zm-.253 4.14-2.333 5.494 3.518 3.52 3.915-3.915z" opacity=".2"/><g fill="#f4f4f7"><path d="m10.913 7-3.913 3.913 3.471 3.471 5.524-2.304zm9.24 4.846-11.076 4.62 4.993 1.419 1.38 5.038zm-.253 4.14-2.333 5.494 3.518 3.52 3.915-3.915z"/><path d="m16 2a14 14 0 0 0 -14 14 14 14 0 0 0 .021.586 14 14 0 0 1 13.979-13.586 14 14 0 0 1 13.979 13.414 14 14 0 0 0 .021-.414 14 14 0 0 0 -14-14z" opacity=".2"/></g></svg>