<svg xmlns="http://www.w3.org/2000/svg" width="32" height="32" version="1"><rect fill="#fecd38" width="20" height="20" x="6" y="4" rx="1" ry="1.333"/><rect fill="#d2d2d2" width="28" height="14" x="2" y="15" rx="1.4" ry="1.4"/><path opacity=".5" d="M9 10V8h14v2z"/><rect fill="#484848" width="12" height="3" x="10" y="20" rx=".75" ry=".75"/><path opacity=".5" d="M9 14v-2h14v2z"/><path fill="#fff" opacity=".2" d="M3.4 15c-.775 0-1.4.625-1.4 1.4v1c0-.775.625-1.4 1.4-1.4h25.2c.775 0 1.4.625 1.4 1.4v-1c0-.775-.625-1.4-1.4-1.4H3.4z"/><path opacity=".2" d="M2 27.6v1c0 .775.625 1.4 1.4 1.4h25.2c.775 0 1.4-.625 1.4-1.4v-1c0 .775-.625 1.4-1.4 1.4H3.4c-.775 0-1.4-.625-1.4-1.4z"/></svg>