<svg width="32" height="32" xmlns="http://www.w3.org/2000/svg"><circle cx="21.5" cy="5.5" r="1.5" style="opacity:.2"/><circle cx="17" cy="5" r="2" style="opacity:.2"/><circle cx="12" cy="5" r="2" style="opacity:.2"/><circle cx="6" cy="7" r="3" style="opacity:.2"/><path d="M8 14c-1-4 5-5 5-5s7-2 9 0-1.667 2.4-.333 6.6C23 19.8 27 19 27 23s-2 8-5 8c-4 0-7-1-7-3 0-4 2-7 1-10s-6.466 2.136-8-4z" style="opacity:.2"/><circle cx="21.5" cy="4.5" r="1.5" style="fill:#8ac246"/><circle cx="17" cy="4" r="2" style="fill:#8ac246"/><circle cx="12" cy="4" r="2" style="fill:#8ac246"/><circle cx="6" cy="6" r="3" style="fill:#8ac246"/><path d="M8 13c-1-4 5-5 5-5s7-2 9 0-1.667 2.4-.333 6.6C23 18.8 27 18 27 22s-2 8-5 8c-4 0-7-1-7-3 0-4 2-7 1-10s-6.466 2.136-8-4z" style="fill:#8ac246"/><path d="M21.5 3A1.5 1.5 0 0 0 20 4.5a1.5 1.5 0 0 0 .088.5A1.5 1.5 0 0 1 21.5 4a1.5 1.5 0 0 1 1.412 1A1.5 1.5 0 0 0 23 4.5 1.5 1.5 0 0 0 21.5 3zM17 2a2 2 0 0 0-2 2 2 2 0 0 0 .064.504A2 2 0 0 1 17 3a2 2 0 0 1 1.936 1.496A2 2 0 0 0 19 4a2 2 0 0 0-2-2zM12 2a2 2 0 0 0-2 2 2 2 0 0 0 .064.504A2 2 0 0 1 12 3a2 2 0 0 1 1.936 1.496A2 2 0 0 0 14 4a2 2 0 0 0-2-2zM6 3a3 3 0 0 0-3 3 3 3 0 0 0 .043.514A3 3 0 0 1 6 4a3 3 0 0 1 2.957 2.486A3 3 0 0 0 9 6a3 3 0 0 0-3-3zM19.027 7.113C16.31 7.054 13 8 13 8s-5.566.94-5.06 4.598C8.454 9.76 13 9 13 9s7-2 9 0c.245.245.404.467.498.674.2-.514.172-1.004-.498-1.674-.625-.625-1.737-.86-2.973-.887zm2.377 6.242c-.072.61-.027 1.333.262 2.245 1.275 4.015 4.98 3.472 5.303 6.912.007-.171.031-.34.031-.512 0-4-4-3.2-5.334-7.4a6.214 6.214 0 0 1-.262-1.245zm-5.146 5.98C16.099 21.614 15 24.03 15 27c0 .127.014.249.037.367.162-3.106 1.397-5.62 1.22-8.031z" style="fill:#f4f4f7;opacity:.2"/></svg>