<svg height="32" width="32" xmlns="http://www.w3.org/2000/svg"><path d="m16.04 5a12.76 12.76 0 0 0 -3.338.43c-4.08 1.052-6.927 4.21-8.077 7.926-2.396.91-3.466 3.887-1.862 6.033l3.008 4.015.001.002c.4.53 1.002.821 1.598 1.098.217.617.471 1.226.907 1.707.173.192.365.366.572.521 2.144 1.601 4.69 2.257 7.104 2.266a1.015 1.015 0 0 0 .024.002c1.65 0 2.409-.267 3.244-.414.026-.005.051-.01.076-.018 4.08-1.051 6.928-4.21 8.078-7.925 2.396-.911 3.466-3.887 1.862-6.033l-3.008-4.016-.002-.002c-.398-.53-1.001-.821-1.597-1.098-.217-.617-.47-1.227-.907-1.709a4.01 4.01 0 0 0 -.572-.521c-2.147-1.603-4.693-2.255-7.106-2.264z" opacity=".2"/><path d="m16.04 4a12.76 12.76 0 0 0 -3.338.43c-4.08 1.052-6.927 4.21-8.077 7.926-2.396.91-3.466 3.887-1.862 6.033l3.008 4.015.001.002c.4.53 1.002.821 1.598 1.098.217.617.471 1.226.907 1.707.173.192.365.366.572.521 2.144 1.601 4.69 2.257 7.104 2.266a1.015 1.015 0 0 0 .024.002c1.65 0 2.409-.267 3.244-.414.026-.005.051-.01.076-.018 4.08-1.051 6.928-4.21 8.078-7.925 2.396-.911 3.466-3.887 1.862-6.033l-3.007-4.016-.002-.002c-.398-.53-1.001-.821-1.597-1.098-.217-.617-.47-1.227-.907-1.709a4.01 4.01 0 0 0 -.572-.521c-2.148-1.603-4.694-2.255-7.107-2.264z" fill="#d54747"/><path d="m16.018 9a8.717 8.717 0 0 0 -2.303.3c-3.497.901-5.768 4.21-5.715 7.686h-2l3 4.014 3-4.014h-2c-.007-1.456.229-2.907 1.238-3.994 1.762-1.992 5.256-2.807 7.778-1.342.837 1.053 2.697-.103 1.72-1.183-1.388-1.039-2.965-1.463-4.718-1.467zm6.982 3.986-3 4.014h2c.007 1.456-.229 2.907-1.238 3.994-1.898 2.19-5.256 2.807-7.778 1.342-.837-1.053-2.697.102-1.72 1.182 1.388 1.038 2.965 1.465 4.718 1.468l.002-.002a8.698 8.698 0 0 0 2.301-.299c3.497-.9 5.768-4.208 5.715-7.685h2z" opacity=".2"/><path d="m16.018 8a8.717 8.717 0 0 0 -2.303.3c-3.497.901-5.768 4.21-5.715 7.686h-2l3 4.014 3-4.014h-2c-.007-1.456.229-2.907 1.238-3.994 1.762-1.992 5.256-2.807 7.778-1.342.837 1.053 2.697-.103 1.72-1.183-1.388-1.039-2.965-1.463-4.718-1.467zm6.982 3.986-3 4.014h2c.007 1.456-.229 2.907-1.238 3.994-1.898 2.19-5.256 2.807-7.778 1.342-.837-1.053-2.697.102-1.72 1.182 1.388 1.038 2.965 1.465 4.718 1.468l.002-.002a8.7 8.7 0 0 0 2.301-.298c3.497-.901 5.768-4.209 5.715-7.686h2z" fill="#ffad87"/><path d="m16.04 4a12.754 12.754 0 0 0 -3.337.43c-4.08 1.051-6.928 4.21-8.078 7.925-1.784.679-2.83 2.501-2.588 4.274a4.08 4.08 0 0 1 2.588-3.274c1.15-3.715 3.998-6.874 8.078-7.925 1.04-.273 2.16-.44 3.336-.43h.006c2.413.008 4.958.66 7.105 2.264.207.155.4.33.573.521.436.482.69 1.091.906 1.71.596.276 1.199.567 1.598 1.097l.002.002 3.007 4.015c.41.549.644 1.152.727 1.76.12-.93-.091-1.91-.727-2.76l-3.006-4.015-.002-.002c-.399-.53-1.002-.821-1.598-1.098-.217-.618-.47-1.227-.906-1.709a4.014 4.014 0 0 0 -.573-.521c-2.148-1.604-4.693-2.256-7.106-2.264h-.006z" fill="#f4f4f7" opacity=".2"/></svg>