<svg height="32" viewBox="0 0 32 32" width="32" xmlns="http://www.w3.org/2000/svg"><g transform="translate(9 -300.649994)"><path d="m-5.9999995 301.64999h25.9999995c1.108 0 2 .892 2 2v26c0 1.108-.892 2-2 2h-25.9999995c-1.108 0-2-.892-2-2v-26c0-1.108.892-2 2-2z" fill="#f37d5c"/><path d="m-5.9999995 302.64999h25.9999995c.554 0 1 .446 1 1v26c0 .554-.446 1-1 1h-25.9999995c-.554 0-1-.446-1-1v-26c0-.554.446-1 1-1z" fill="#ffb8a3"/></g><path d="m2.5946891 291.49571c-1.0749489 0-1.276603 1.57055-.6717993 1.57055.6045578 0 1.7468807-1.57055.6717993-1.57055zm-1.65575828.24163c-.016933-.00006-.035341.002-.054398.003-.6091653.074-.3947698 1.06528-.070485 1.08376.31400348.018.65753848-1.08534.1246716-1.08707zm-1.0562659.36597c-.037268-.002-.078525.005-.1244563.0226-.4896229.19332-.074295.99136.1998096.93771.2487878-.0486.2844536-.93788-.075353-.96036zm-.7991816.65244c-.042556-.001-.088473.013-.13757952.0481-.3919309.28125.13186832.96071.36247522.85537.2017184-.0923.073025-.89311-.2249486-.90349zm2.31482078.64865c-.84918788-.014-1.96942238.40034-2.16051588 1.23267-.2067944.90065.851864 2.1503 1.95634798 2.1503.5433373 0 1.170014-.47745 1.2873644-1.08211.089535-.46103-1.0537936-.27627-1.0127721.0288.049318.3657-.2757564.54647-.59407638.31076-1.0132597-.75049 1.67777218-1.12498 1.50027428-2.15031-.055245-.31918-.4671219-.48171-.9766223-.4901z" fill="#f37d5c" transform="matrix(3.7795275 0 0 3.7795275 12.51785555244 -1095.71604322589)"/></svg>