<svg height="32" width="32" xmlns="http://www.w3.org/2000/svg"><rect height="28" opacity=".2" rx="1.4" width="28" x="2" y="3"/><rect fill="#17191e" height="28" rx="1.4" width="28" x="2" y="2"/><path d="m6 2v4h-4v2h4v4h-4v2h4v4h-4v2h4v4h-4v2h4v4h2v-4h4v4h2v-4h4v4h2v-4h4v4h2v-4h4v-2h-4v-4h4v-2h-4v-4h4v-2h-4v-4h4v-2h-4v-4h-2v4h-4v-4h-2v4h-4v-4h-2v4h-4v-4zm2 6h4v4h-4zm6 0h4v4h-4zm6 0h4v4h-4zm-12 6h4v4h-4zm6 0h4v4h-4zm6 0h4v4h-4zm-12 6h4v4h-4zm6 0h4v4h-4zm6 0h4v4h-4z" fill="#57c400" opacity=".2"/><path d="m27 27h-3.153l-4.617-21h-3.59m-10.64 21h3.153l4.617-21h3.59" style="opacity:.2;fill:none;stroke:#000;stroke-width:2;stroke-linecap:round;stroke-linejoin:round"/><path d="m27 26h-3.153l-4.617-21h-3.59m-10.64 21h3.153l4.617-21h3.59" fill="none" stroke="#85fc0e" stroke-linecap="round" stroke-linejoin="round" stroke-width="2"/><g fill="#f4f4f7"><path d="m3.4 2c-.775 0-1.4.625-1.4 1.4v1c0-.775.625-1.4 1.4-1.4h25.2c.775 0 1.4.625 1.4 1.4v-1c0-.775-.625-1.4-1.4-1.4z" opacity=".1"/><path d="m12.77 4a1 1 0 0 0 -.977.785l-4.443 20.215h-2.35a1 1 0 0 0 -.879 1.5 1 1 0 0 1 .879-.5h2.35l4.443-20.215a1 1 0 0 1 .977-.785h6.46a1 1 0 0 1 .977.785l4.443 20.215h2.35a1 1 0 0 1 .879.5 1 1 0 0 0 -.879-1.5h-2.35l-4.443-20.215a1 1 0 0 0 -.977-.785z" opacity=".2"/></g></svg>