<svg height="64" viewBox="0 0 64 64" width="64" xmlns="http://www.w3.org/2000/svg" xmlns:xlink="http://www.w3.org/1999/xlink"><filter id="a" color-interpolation-filters="sRGB" height="1.096" width="1.096" x="-.048" y="-.048"><feGaussianBlur stdDeviation="1.1"/></filter><linearGradient id="b" gradientUnits="userSpaceOnUse" x1="41.67" x2="96.67" y1="65.5139" y2="10.5139"><stop offset="0" stop-color="#ffc841"/><stop offset=".4925" stop-color="#ffbe37"/><stop offset="1" stop-color="#ffc841"/></linearGradient><g transform="translate(-37.173 -6.015)"><rect filter="url(#a)" height="55" opacity=".3" rx="13.002" width="55" x="41.673" y="10.515"/><rect fill="url(#b)" height="55.001" rx="13.002" width="55.001" x="41.673" y="10.517"/></g><path d="m32.696 17.237c-8.1345 0-14.771 6.621-14.771 14.756 0 8.1345 6.6363 14.771 14.771 14.771 8.1345 0 14.74-6.6363 14.74-14.771 0-8.1345-6.6057-14.756-14.74-14.756zm-15.505 2.3089a1.2234 1.2234 0 0 0 -.9786.59634c-2.325 3.7754-3.9772 7.2267-4.1897 11.086-.2125 3.8591 1.0574 7.9871 4.2049 13.028a1.2234 1.2234 0 1 0 2.0642-1.2997c-2.988-4.7852-4.001-8.3511-3.8227-11.59.17836-3.2392 1.5909-6.2902 3.838-9.939a1.2234 1.2234 0 0 0 -1.1162-1.8808zm29.45 0a1.2234 1.2234 0 0 0 -.94802 1.8808c2.247 3.6487 3.6596 6.6997 3.838 9.939.17837 3.2392-.84995 6.8052-3.838 11.59a1.2261 1.2261 0 1 0 2.0795 1.2997c3.1475-5.0406 4.4174-9.1686 4.2049-13.028-.2125-3.8591-1.8799-7.3104-4.2049-11.086a1.2234 1.2234 0 0 0 -1.1315-.59634zm-13.945.47401c6.6272 0 11.957 5.3454 11.957 11.973 0 6.6272-5.3301 11.973-11.957 11.973-6.6272 0-11.973-5.3454-11.973-11.973 0-6.6272 5.3454-11.973 11.973-11.973zm-.01536 3.0428c-.59762.000017-1.0614.2434-1.3915.73395-.32112.49059-.48931 1.2628-.48931 2.3242 0 .24976.01277.48677.03058.71866.01776.23192.04076.47785.07646.71866.03567.24084.07134.48167.10704.74924.03567.2676.07773.5594.12233.87157l.87157 6.2845h1.2997l.87157-6.2539c.03567-.30325.07135-.58868.10704-.85628.04458-.26758.08026-.52369.10704-.76454.02672-.24974.0433-.48674.06116-.71866.01776-.2319.03058-.4689.03058-.71867-.000009-.57976-.04203-1.0754-.12234-1.4679-.07137-.40136-.19115-.72247-.3517-.96331-.15164-.24081-.34277-.40646-.56575-.5046-.223-.10702-.4702-.15288-.76454-.1529zm.01536 13.7c-.29436.000003-.56704.04588-.8257.1529-.25868.10704-.48549.25612-.6728.44343-.18732.18731-.32748.41413-.44342.67279-.10704.24975-.1682.50969-.1682.79512-.000005.29435.06116.56703.1682.8257.11595.25867.25611.48548.44342.67279s.41412.34277.6728.45872c.25866.10704.53134.1529.8257.1529.28542 0 .56065-.04586.81041-.1529.25866-.11595.48547-.27141.67279-.45872.1873-.18731.33639-.41412.44343-.67279.10702-.25867.1529-.53135.1529-.8257-.00001-.28542-.0459-.54537-.1529-.79512-.10704-.25866-.25613-.48548-.44343-.67279-.18732-.18731-.41413-.33639-.67279-.44343-.24976-.10704-.52499-.1529-.81041-.1529z" fill="#fff" stroke-width=".4893"/></svg>