<svg height="32" width="32" xmlns="http://www.w3.org/2000/svg"><rect height="28" opacity=".2" rx="1.4" width="28" x="2" y="3"/><rect fill="#f4f4f7" height="28" rx="1.4" width="28" x="2" y="2"/><path d="m19.125 9.974.963.963-13.618 14.569 1.058.988 13.584-14.531.912.912v-2.9z" opacity=".1"/><path d="m7 25 14.335-15.335" fill="none" stroke="#c62828" stroke-width="1.45"/><path d="m19.125 8.975h2.9v2.9z" fill="#c62828"/><path d="m7.32 7.35-.64 1.3 12.418 6.114-.6 1.037 2.803-.75-.752-2.803-.725 1.256z" opacity=".1"/><path d="m7 7 13.002 6.401" fill="none" stroke="#2e7d32" stroke-width="1.45"/><path d="m18.499 14.8 2.801-.75-.75-2.801z" fill="#2e7d32"/><path d="m7 5a3 3 0 0 0 -3 3 3 3 0 0 0 3 3 3 3 0 0 0 3-3 3 3 0 0 0 -3-3zm18 0a3 3 0 0 0 -3 3 3 3 0 0 0 3 3 3 3 0 0 0 3-3 3 3 0 0 0 -3-3zm-18 9a3 3 0 0 0 -3 3 3 3 0 0 0 3 3 3 3 0 0 0 3-3 3 3 0 0 0 -3-3zm18 0a3 3 0 0 0 -3 3 3 3 0 0 0 3 3 3 3 0 0 0 3-3 3 3 0 0 0 -3-3zm-18 9a3 3 0 0 0 -3 3 3 3 0 0 0 3 3 3 3 0 0 0 3-3 3 3 0 0 0 -3-3zm18 0a3 3 0 0 0 -3 3 3 3 0 0 0 3 3 3 3 0 0 0 3-3 3 3 0 0 0 -3-3z" opacity=".1"/><circle cx="7" cy="16" fill="#9e9e9e" r="3"/><circle cx="7" cy="25" fill="#f44336" r="3"/><circle cx="25" cy="7" fill="#f44336" r="3"/><circle cx="25" cy="16" fill="#4caf50" r="3"/><circle cx="25" cy="25" fill="#9e9e9e" r="3"/><circle cx="7" cy="7" fill="#4caf50" r="3"/><path d="m3.4 2c-.775 0-1.4.625-1.4 1.4v1c0-.775.625-1.4 1.4-1.4h25.2c.775 0 1.4.625 1.4 1.4v-1c0-.775-.625-1.4-1.4-1.4z" fill="#f4f4f7" opacity=".2"/></svg>