<svg xmlns="http://www.w3.org/2000/svg" width="32" height="32" version="1"><rect fill="#fecd38" width="28" height="28" x="2" y="2" rx="14" ry="14"/><circle fill="#31b03b" cx="16" cy="16" r="12"/><path d="M6 12v10h2v-5.7h1V20h2v-8H9v2.3H8V12H6zm10 0a4 4 0 0 0-4 4 4 4 0 0 0 4 4 4 4 0 0 0 4-4 4 4 0 0 0-4-4zm5 0v8h2v-4.297l1 1.732V22h2V12h-2v1.69L23 12h-2zm-5 2a2 2 0 0 1 2 2 2 2 0 0 1-2 2 2 2 0 0 1-2-2 2 2 0 0 1 2-2zm-4 7v2h8v-2h-8z" opacity=".2"/><g fill="#fff"><path d="M6 11h2v10H6zM9 11h2v8H9zM26 11h-2v10h2zM23 11h-2v8h2zM16 11a4 4 0 0 0-4 4 4 4 0 0 0 4 4 4 4 0 0 0 4-4 4 4 0 0 0-4-4zm0 2a2 2 0 0 1 2 2 2 2 0 0 1-2 2 2 2 0 0 1-2-2 2 2 0 0 1 2-2z"/><path d="M6 13.3h4v2H6zM23 11l2.716 4.588.102 1.085-.357.544.335 2.483-.167-.8b9cbe-1.1-1.904-3.13-5.421zM12 20h8v2h-8z"/></g><path fill="#fff" opacity=".1" d="M16 2C8.244 2 2 8.244 2 16c0 .169.02.333.025.5A13.957 13.957 0 0 1 16 3c7.587 0 13.711 5.98 13.975 13.5.005-.167.025-.331.025-.5 0-7.756-6.244-14-14-14z"/><path opacity=".2" d="M2.025 16.5c-.006.167-.025.331-.025.5 0 7.756 6.244 14 14 14s14-6.244 14-14c0-.169-.02-.333-.025-.5C29.71 24.021 23.587 30 16 30 8.412 30 2.289 24.021 2.025 16.5z"/></svg>