<svg enable-background="new 0 0 1024 1024" height="64" image-rendering="optimizeSpeed" width="64" xmlns="http://www.w3.org/2000/svg">
    <filter id="a" color-interpolation-filters="sRGB" height="1.054" width="1.054" x="-.027" y="-.027">
        <feGaussianBlur stdDeviation=".619"/>
    </filter>
    <linearGradient id="b" gradientUnits="userSpaceOnUse" x1="4.5" x2="59.5" y1="59.49" y2="4.49">
        <stop offset="0" stop-color="#dee0e2"/>
        <stop offset="1" stop-color="#f1f3f5" stop-opacity=".996"/>
    </linearGradient>
    <rect fill="#141414" filter="url(#a)" height="55" opacity=".3" ry="15" width="55" x="4.5" y="4.5"/>
    <rect fill="url(#b)" height="55" ry="15" width="55" x="4.5" y="4.5"/>
    <rect fill="#1a211f" height="44" rx="7.652" ry="8.385" width="44" x="10" y="10"/>
    <path d="M18.203 9v3.063h-6.521v-1.038c-.102.09-.205.179-.301.274v.764h-.676c-.077.097-.15.197-.223.298h.899v6.524H9v.3h2.38v6.522H9v.3h2.38v6.524H9v.3h2.38v6.523H9v.3h2.38v6.524H9v.299h2.38V52.7c.097.095.2.184.302.274v-6.498h6.521V53h-6.492c.117.103.236.204.36.3h6.132V55h.3v-1.7h6.524V55h.299v-1.7h6.523V55h.301v-1.7h6.524V55h.298v-1.7h6.524V55h.3v-1.7h6.133c.124-.096.243-.197.36-.3h-6.492v-6.523h6.521v6.498c.101-.09.204-.179.3-.274v-6.224H55v-.3h-2.381v-6.523h2.38v-.3h-2.38V32.83h2.38v-.299h-2.38v-6.523h2.38v-.3h-2.38v-6.522h2.38v-.301h-2.38V12.36h.898a7.967 7.967 0 0 0-.222-.298h-.676v-.764c-.097-.095-.2-.183-.3-.273v1.037h-6.522V9h-.301v3.063h-6.524V9h-.298v3.063H32.15V9h-.3v3.063h-6.524V9h-.299v3.063h-6.523V9h-.301zm-6.521 3.361h6.521v6.524h-6.521zm6.822 0h6.523v6.524h-6.523zm6.822 0h6.523v6.524h-6.523zm6.824 0h6.524v6.524H32.15zm6.823 0h6.523v6.524h-6.523zm6.824 0h6.521v6.524h-6.521zm-34.115 6.825h6.521v6.521h-6.521zm6.822 0h6.523v6.521h-6.523zm6.822 0h6.524v6.521h-6.524zm6.825 0h6.523v6.521h-6.523zm6.822 0h6.523v6.521h-6.523zm6.824 0h6.522v6.521h-6.522zm-34.115 6.822h6.522v6.523h-6.522zm6.822 0h6.524v6.523h-6.524zm6.823 0h6.523v6.523h-6.523zm6.824 0h6.523v6.523h-6.523zm6.822 0h6.524v6.523h-6.524zm6.824 0h6.522v6.523h-6.522zM11.682 32.83h6.522v6.524h-6.522zm6.823 0h6.523v6.524h-6.523zm6.822 0h6.523v6.524h-6.523zm6.824 0h6.524v6.524H32.15zm6.822 0h6.524v6.524h-6.524zm6.825 0h6.521v6.524h-6.521zm-34.115 6.824h6.521v6.524h-6.521zm6.822 0h6.523v6.524h-6.523zm6.822 0h6.524v6.524h-6.524zm6.824 0h6.524v6.524H32.15zm6.823 0h6.523v6.524h-6.523zm6.824 0h6.521v6.524h-6.521zm-27.293 6.823h6.523V53h-6.523zm6.822 0h6.524V53h-6.524zm6.824 0h6.524V53H32.15zm6.823 0h6.523V53h-6.523z" fill="#a1fbe6" opacity=".2"/>
    <path d="M16.339 16.644h1.6v12.8h-1.6z"/>
    <g stroke-width=".1">
        <path d="M19.536 16.643h1.6v12.8h-1.6zM22.736 16.643h1.6v12.8h-1.6z"/>
    </g>
    <g stroke-width=".063">
        <path d="M48.336 16.643h-1.6v12.8h1.6zM45.136 16.643h-1.6v12.8h1.6zM41.936 16.643h-1.6v12.8h1.6z"/>
    </g>
    <path d="M16.339 35.844h1.6v12.8h-1.6z"/>
    <g stroke-width=".063">
        <path d="M19.536 35.843h1.6v12.8h-1.6zM22.736 35.843h1.6v12.8h-1.6zM48.336 35.843h-1.6v12.8h1.6zM45.136 35.843h-1.6v12.8h1.6zM41.936 35.843h-1.6v12.8h1.6z"/>
        <g stroke-width=".1">
            <path d="M25.936 29.443h1.6v6.4h-1.6zM32.336 29.443h1.6v6.4h-1.6zM38.736 29.443h1.6v6.4h-1.6z"/>
        </g>
    </g>
    <path d="M16 16h1.6v12.8H16z" fill="#999"/>
    <g fill="#84dd84" stroke-width=".1">
        <path d="M19.197 15.999h1.6v12.8h-1.6zM22.397 15.999h1.6v12.8h-1.6z"/>
    </g>
    <g stroke-width=".063">
        <path d="M47.997 15.999h-1.6v12.8h1.6z" fill="#999"/>
        <g fill="#84dd84">
            <path d="M44.797 15.999h-1.6v12.8h1.6zM41.597 15.999h-1.6v12.8h1.6z"/>
        </g>
    </g>
    <path d="M16 35.2h1.6V48H16z" fill="#999"/>
    <g stroke-width=".063">
        <g fill="#84dd84" stroke-width=".1">
            <path d="M19.197 35.199h1.6v12.8h-1.6zM22.397 35.199h1.6v12.8h-1.6z"/>
        </g>
        <path d="M47.997 35.199h-1.6v12.8h1.6z" fill="#999"/>
        <g fill="#84dd84">
            <path d="M44.797 35.199h-1.6v12.8h1.6zM41.597 35.199h-1.6v12.8h1.6z"/>
        </g>
        <g fill="#84dd84" stroke-width=".1">
            <path d="M25.597 28.799h1.6v6.4h-1.6zM31.997 28.799h1.6v6.4h-1.6zM38.397 28.799h1.6v6.4h-1.6z"/>
        </g>
    </g>
</svg>
