<svg height="32" width="32" xmlns="http://www.w3.org/2000/svg">
    <path d="M13 3c-.524 0-1 .482-1 1L8 6 6 9H5v6l1 1h2l1 1h14l1-1h2l1-1V9h-1l-2-3-4-2c0-.497-.503-1-1.2-1zM2 9l2 3V9zm26 0v3l2-3zM8 24l2 3h12l2-3z" opacity=".2"/>
    <path d="M13 2c-.524 0-1 .482-1 1L8 5 6 8H5v6l1 1h2l1 1h14l1-1h2l1-1V8h-1l-2-3-4-2c0-.497-.503-1-1.2-1zM2 8l2 3V8zm26 0v3l2-3z" fill="#7eacf9"/>
    <path d="m8 23 2 3h12l2-3z" fill="#8149bf"/>
    <path d="m5 21 2 3h18l2-3z" opacity=".2"/>
    <path d="m5 20 2 3h18l2-3z" fill="#ad509c"/>
    <path d="m2 18 2 3h24l2-3z" opacity=".2"/>
    <path d="m2 17 2 3h24l2-3z" fill="#de7ca2"/>
    <path d="m6 18 8.2 10H18l8-10zm7 11 3 2 3-2z" opacity=".2"/>
    <path d="M6 17h20l-8 10h-3.8zm7 11h6l-3 2z" fill="#f6e195"/>
    <path d="m15 3-5 4v6l5 4h2l5-4V7l-5-4zM9 8l-2 2 2 2zm14 0v4l2-2z" opacity=".2"/>
    <path d="m15 2-5 4v6l5 4h2l5-4V6l-5-4zM9 7 7 9l2 2zm14 0v4l2-2z" fill="#8288f9"/>
    <path d="M11 11V9l4-4h2l4 4v2l-4 4h-2z" opacity=".2"/>
    <path d="M11 10V8l4-4h2l4 4v2l-4 4h-2z" fill="#8149bf"/>
    <path d="M15 13h2l3-2V9l-3-2h-2l-3 2v2z" opacity=".2"/>
    <path d="M15 12h2l3-2V8l-3-2h-2l-3 2v2z" fill="#de7ca2"/>
    <path d="M14 9h4v2h-4z" opacity=".2"/>
    <path d="M14 8h4v2h-4z" fill="#f6e195"/>
    <path d="m6 17 .82 1H25.2l.8-1zm7 11 1.5 1h3l1.5-1zm0-26c-.524 0-1 .482-1 1L8 5 6 8H5v1h1l2-3 4-2c0-.518.476-1 1-1h5.8c.697 0 1.2.503 1.2 1l4 2 2 3h1V8h-1l-2-3-4-2c0-.497-.503-1-1.2-1zM2 8l.666 1H4V8zm26 0v1h1.334L30 8z" fill="#f4f4f7" opacity=".2"/>
</svg>
