<svg height="32" width="32" xmlns="http://www.w3.org/2000/svg">
    <rect height="29" opacity=".2" rx="1.45" width="29" x="2" y="2"/>
    <path d="M3.45 1h26.1c.803 0 1.45.647 1.45 1.45v26.1c0 .803-.647 1.45-1.45 1.45H8.013l-3.965-.778c-.788-.154-.57-.319-.792-1.09L2 23.747V2.45C2 1.647 2.647 1 3.45 1z" fill="#2b855b"/>
    <path d="M2 23.634v4.916c0 .803.647 1.45 1.45 1.45h4.916z" fill="#ffb923"/>
    <rect height="21" opacity=".2" rx="1.05" width="21" x="6" y="6"/>
    <rect fill="#c1c1c1" height="21" rx="1.05" width="21" x="6" y="5"/>
    <path d="M15 13h3v10h-3zm0-5h3v3h-3z" fill="#4e4e4e"/>
    <path d="M3.45 1C2.645 1 2 1.646 2 2.45v1C2 2.645 2.646 2 3.45 2h26.1c.804 0 1.45.646 1.45 1.45v-1C31 1.645 30.354 1 29.55 1z" fill="#f4f4f7" opacity=".1"/>
    <path d="M2 23.633v1L7.367 30h1z" opacity=".1"/>
    <path d="M7.05 5C6.47 5 6 5.47 6 6.05v1C6 6.47 6.47 6 7.05 6h18.9c.58 0 1.05.47 1.05 1.05v-1C27 5.47 26.53 5 25.95 5z" fill="#f4f4f7" opacity=".2"/>
</svg>
