<svg height="32" width="32" xmlns="http://www.w3.org/2000/svg">
    <path d="M4.157 15.853c-.27.234-.174.651.157.699.917.13 2.76.044 3.914 1.208 1.127 1.136 1.362 2.746 1.362 2.746l3.331-7.11s-1.762-.832-4.325-.16c-1.768.464-3.522 1.82-4.439 2.617zm12.999 13.009c-.276.226-.646.176-.693-.159-.13-.924-.044-2.781-1.199-3.945-1.127-1.137-2.958-1.304-2.958-1.304L19.2 20.03s1.298 2.02.583 4.893c-.597 2.375-1.616 3.108-2.627 3.94zM4.38 24.57C2.123 26.848 2 31 2 31s4.116-.123 6.378-2.4c2.262-2.278 3.198-5.027 2.093-6.138-1.104-1.114-3.83-.17-6.09 2.108z" opacity=".2"/>
    <path d="M4.38 23.57C2.123 25.848 2 30 2 30s4.116-.123 6.378-2.4c2.262-2.278 3.198-5.027 2.093-6.138-1.104-1.114-3.83-.17-6.09 2.108z" fill="#ffd800"/>
    <path d="M4.9 24.554C3.477 25.988 3.4 28.6 3.4 28.6s2.59-.078 4.013-1.512 2.014-3.166 1.318-3.865c-.696-.7-2.406-.106-3.831 1.33z" fill="#ff562e"/>
    <path d="M7.413 25.782c1.354 1.456 3.13 1.303 3.276 1.064l1.937-2.658c.075-.122.006-.317-.047-.367L9.24 20.384c-.052-.053-.237-.114-.359-.039l-2.71 1.948c-.235.147-.5 1.61 1.242 3.489z" opacity=".1"/>
    <path d="M7.413 24.782c1.354 1.456 3.13 1.303 3.276 1.064l1.937-2.658c.075-.122.006-.317-.047-.367L9.24 19.384c-.052-.053-.237-.114-.359-.039l-2.71 1.948c-.235.147-.5 1.61 1.242 3.489z" fill="#546e7a"/>
    <path d="M17.156 27.862c-.276.226-.646.176-.693-.159-.13-.924-.044-2.781-1.199-3.945-1.127-1.137-2.958-1.304-2.958-1.304L19.2 19.03s1.298 2.02.583 4.893c-.597 2.375-1.616 3.108-2.627 3.94zM4.157 14.853c-.27.234-.174.651.157.699.917.13 2.76.044 3.914 1.208 1.127 1.136 1.362 2.746 1.362 2.746l3.331-7.11s-1.762-.832-4.325-.16c-1.768.464-3.522 1.82-4.439 2.617z" fill="#0292e1"/>
    <path d="M10.354 11.977a7.901 7.901 0 0 0-1.758.257c-1.768.465-3.523 1.823-4.44 2.62-.27.233-.173.651.158.699.052.007.131.011.188.017.97-.804 2.51-1.919 4.094-2.336 1.86-.487 3.274-.182 3.924.022l.402-.86s-.991-.468-2.568-.42z" fill="#f4f4f7" opacity=".2"/>
    <path d="M21.64 3.499c1.109.51 2.514 1.413 3.941 2.843.504.506.934 1.022 1.307 1.527.72.975 1.23 1.776 1.553 2.504-.72 1.898-2.096 4.235-3.424 5.567-5.427 5.44-11.42 8.547-14.521 6.347-.181-.13-.36-.247-.52-.393-2.66-2.397.386-9.26 5.919-14.807 1.389-1.393 3.794-2.839 5.745-3.588z" fill="#bebebe"/>
    <path d="M21.64 3.499c-.502 2.469 3.867 7.304 6.801 6.874.914-2.355 1.288-3.954 1.537-6.704.127-1.393-.282-1.79-1.575-1.639-3.428.4-4.782.66-6.763 1.469z" fill="#e53935"/>
    <g transform="rotate(-45)">
        <circle cx="4.243" cy="23.335" opacity=".1" r="2.5"/>
        <circle cx="4.95" cy="22.627" fill="#455a64" r="2.5"/>
        <circle cx="-2.828" cy="23.335" opacity=".1" r="1.5"/>
        <circle cx="-2.121" cy="22.627" fill="#455a64" r="1.5"/>
    </g>
</svg>
