<svg height="32" width="32" xmlns="http://www.w3.org/2000/svg">
    <path d="M28.895 30.428s1.371-2.49 1.059-3.024c-.275-.468-2.796-.353-2.796-.353s2.134-2.589 1.796-3.165C28.621 23.318 25 23 25 23s3.953-1.322 4.066-1.971c.119-.681-3.54-3.141-3.54-3.141s2.717-4.53 2.462-5.134C27.668 11.995 23.8 12 23.8 12s1.713-5.487 1.008-5.933c-.593-.375-7.157 1.66-7.157 1.66S15.684 3 14.589 3c-1.102 0-3.43 4.734-3.43 4.734s-3.966-3.136-4.681-2.73c-.633.36-.348 5.497-.348 5.497z" fill-rule="evenodd" opacity=".2"/>
    <path d="M14.096 10.193c-2.117 0-4.043.128-5.686.51-3.588.208-6.394 6.988-6.41 7.986.003 1.622.42 3.204 1.197 4.538 1.941 4.004 6.04 6.767 10.79 6.767a11.92 11.92 0 0 0 6.066-1.66c3.423 1.215 9.036 3.112 9.465 2.562.493-.633-2.926-5.905-4.48-8.234.603-1.431.937-3.004.937-4.654 0-6.62-5.26-7.815-11.88-7.815z" opacity=".2"/>
    <path d="M28.895 29.428s1.371-2.49 1.059-3.023c-.275-.469-2.796-.354-2.796-.354s2.134-2.588 1.796-3.165C28.621 22.32 25 22 25 22s3.953-1.321 4.066-1.971c.119-.68-3.54-3.141-3.54-3.141s2.717-4.53 2.462-5.134C27.668 10.996 23.8 11 23.8 11s1.713-5.486 1.008-5.933c-.593-.375-7.157 1.661-7.157 1.661S15.684 2 14.589 2c-1.102 0-3.43 4.735-3.43 4.735s-3.966-3.137-4.681-2.73c-.633.36-.348 5.496-.348 5.496z" fill="#455a64" fill-rule="evenodd"/>
    <path d="M14.59 2c-1.102 0-3.432 4.734-3.432 4.734S7.194 3.6 6.478 4.006c-.368.21-.418 1.985-.402 3.476.023-1.189.119-2.317.403-2.478.715-.407 4.68 2.73 4.68 2.73S13.487 3 14.588 3c1.096 0 3.061 4.729 3.061 4.729s6.566-2.038 7.159-1.663c.059.038.093.121.12.223.076-.627.066-1.105-.12-1.223-.593-.375-7.159 1.663-7.159 1.663S15.685 2 14.59 2zm9.502 9.006c-.165.58-.291.994-.291.994s3.168-.001 4.002.563c.146-.376.237-.686.185-.81-.281-.667-3.176-.738-3.896-.747zm1.84 6.164c-.107.182-.407.717-.407.717s2.28 1.54 3.172 2.52c.198-.138.35-.269.37-.378.097-.56-2.258-2.25-3.135-2.86zm1.056 5.088C25.987 22.669 25 23 25 23s2.952.265 3.756.736c.188-.37.29-.69.197-.85-.158-.269-1.064-.478-1.965-.628zm.924 3.795c-.392.54-.754.998-.754.998s2.152-.094 2.682.267c.13-.397.208-.752.113-.914-.195-.332-1.287-.357-2.04-.351z" fill="#f4f4f7" fill-rule="evenodd" opacity=".1"/>
    <path d="M14.096 9.193c-2.117 0-4.043.128-5.686.51C4.822 9.911 2 17 2 17.69c.003 1.622.42 3.204 1.197 4.538 1.941 4.004 6.04 6.767 10.79 6.767 6.62 0 11.988-5.366 11.988-11.986s-5.26-7.815-11.88-7.815z" fill="#80cbc4"/>
    <path d="M24.237 20.475s5.913 8.611 5.28 9.422c-.613.787-12.111-3.513-12.111-3.513z" fill="#80cbc4" fill-rule="evenodd"/>
    <path d="M13.987 5.021C7.367 5.021 2 10.388 2 17.008c0 .045.006.089.007.134 0 .047-.007.093-.007.14 0 .632.051 1.252.147 1.858.031.147.081.272.123.407.584 1.908 2.107 2.675 2.107 2.675.37.298.83.603 1.36.903h-.045S6.804 29.05 8.843 29c1.542-.038 2.752-3.062 4.713-3 1.959.062 2.754 2.98 4.703 3 1.126.012 2.123-1.43 2.741-3h.564c1.853 1.725 6.067 3.346 7.892 3.942a.177.177 0 0 0 .06-.046c.446-.573-2.705-5.782-4.451-8.317a11.94 11.94 0 0 0 .909-4.571c0-6.62-5.367-11.987-11.987-11.987z" fill="#009688" fill-rule="evenodd"/>
    <circle cx="8.5" cy="14.5" opacity=".2" r="1.5"/>
    <g fill="#f4f4f7">
        <circle cx="8.5" cy="13.5" r="1.5"/>
        <path d="M13.986 5.021C7.366 5.021 2 10.388 2 17.008c0 .045.007.088.008.133 0 .047-.008.093-.008.14 0 .138.01.274.016.41.17-6.472 5.457-11.67 11.97-11.67 6.452 0 11.7 5.102 11.963 11.489.007-.168.026-.333.026-.502 0-6.62-5.368-11.987-11.989-11.987zm11.31 16.913c-.074.216-.145.434-.232.644 1.36 1.976 3.553 5.549 4.252 7.313.04.012.104.038.141.05a.174.174 0 0 0 .059-.045" fill-rule="evenodd" opacity=".1"/>
    </g>
</svg>
