<svg height="32" width="32" xmlns="http://www.w3.org/2000/svg"><rect height="28" opacity=".2" rx="1.4" width="28" x="2" y="3"/><rect fill="#1159d4" height="28" rx="1.4" width="28" x="2" y="2"/><path d="m4.1 13.5h4.9l2.8 7.89 3.5-10.29 2.45 5.6 2.45-6.3 2.8 8.1h4.2" fill="none" stroke="#1159d4" stroke-linecap="square" stroke-width="3"/><path d="m6.1 6c-.61 0-1.1.49-1.1 1.1v5.9h5.059l1.71 4.822 3.356-9.865 2.543 5.814 2.615-6.722 3.785 10.951h2.932v-10.9c0-.61-.49-1.1-1.1-1.1zm14.017 9.75-2.285 5.879-2.355-5.385-3.647 10.716-3.889-10.96h-2.941v10.9c0 .61.49 1.1 1.1 1.1h19.8c.61 0 1.1-.49 1.1-1.1v-5.9h-5.068z" opacity=".2"/><path d="m6.1 5c-.61 0-1.1.49-1.1 1.1v5.9h5.059l1.71 4.822 3.356-9.865 2.543 5.814 2.615-6.722 3.785 10.951h2.932v-10.9c0-.61-.49-1.1-1.1-1.1zm14.017 9.75-2.285 5.879-2.355-5.385-3.647 10.716-3.889-10.96h-2.941v10.9c0 .61.49 1.1 1.1 1.1h19.8c.61 0 1.1-.49 1.1-1.1v-5.9h-5.068z" fill="#39dcff"/><g fill="#f4f4f7"><path d="m3.4 2c-.775 0-1.4.625-1.4 1.4v1c0-.775.625-1.4 1.4-1.4h25.2c.775 0 1.4.625 1.4 1.4v-1c0-.775-.625-1.4-1.4-1.4z" opacity=".1"/><path d="m6.1 5c-.61 0-1.1.49-1.1 1.1v1c0-.61.49-1.1 1.1-1.1h19.8c.61 0 1.1.49 1.1 1.1v-1c0-.61-.49-1.1-1.1-1.1zm14.017 9.75-2.285 5.879-2.355-5.385-3.647 10.716-3.889-10.96h-2.941v1h2.941l3.89 10.959 3.646-10.715 2.355 5.385 2.285-5.879 1.815 5.25h5.068v-1h-5.068z" opacity=".2"/></g></svg>