<svg xmlns="http://www.w3.org/2000/svg" width="32" height="32" version="1"><rect style="opacity:.2" width="28" height="28" x="2" y="3" rx="1.5" ry="1.5"/><rect style="fill:#1e87e4" width="28" height="28" x="2" y="2" rx="1.5" ry="1.5"/><path style="opacity:.2;fill:#f4f4f7" d="M3.5 2C2.669 2 2 2.669 2 3.5v1C2 3.669 2.669 3 3.5 3h25c.831 0 1.5.669 1.5 1.5v-1c0-.831-.669-1.5-1.5-1.5h-25z"/><path style="stroke:#f4f4f7;stroke-width:2;stroke-linecap:square;fill:none" d="M13 18a8 8 0 0 1 8-8M17 18a4 4 0 0 1 4-4"/><path style="stroke:#f4f4f7;stroke-width:2;stroke-linecap:square;fill:none" d="M9 18A12 12 0 0 1 21 6"/><path style="fill:#f4f4f7" d="M20 22h3v6h-3z"/><circle style="fill:#f4f4f7" cx="21.5" cy="18.5" r="1.5"/></svg>