<svg height="32" width="32" xmlns="http://www.w3.org/2000/svg"><rect height="28" opacity=".2" rx="8.4" width="28" x="2" y="3"/><rect fill="#0dbc8a" height="28" rx="8.4" width="28" x="2" y="2"/><path d="m14.4 7a1.2 1.2 0 1 0 0 2.4 5.6 5.6 0 0 1 5.6 5.6 1.2 1.2 0 1 0 2.4 0 8 8 0 0 0 -8-8zm-.4 3.6a8 8 0 0 0 -8 8 1.2 1.2 0 1 0 2.4 0 5.6 5.6 0 0 1 5.6-5.6 1.2 1.2 0 1 0 0-2.4zm10.8 3.6a1.2 1.2 0 0 0 -1.2 1.2 5.6 5.6 0 0 1 -5.6 5.6 1.2 1.2 0 1 0 0 2.4 8 8 0 0 0 8-8 1.2 1.2 0 0 0 -1.2-1.2zm-14 3.6a1.2 1.2 0 0 0 -1.2 1.2 8 8 0 0 0 8 8 1.2 1.2 0 1 0 0-2.4 5.6 5.6 0 0 1 -5.6-5.6 1.2 1.2 0 0 0 -1.2-1.2z" opacity=".2"/><g fill="#f4f4f7"><path d="m14.4 6a1.2 1.2 0 1 0 0 2.4 5.6 5.6 0 0 1 5.6 5.6 1.2 1.2 0 1 0 2.4 0 8 8 0 0 0 -8-8zm-.4 3.6a8 8 0 0 0 -8 8 1.2 1.2 0 1 0 2.4 0 5.6 5.6 0 0 1 5.6-5.6 1.2 1.2 0 1 0 0-2.4zm10.8 3.6a1.2 1.2 0 0 0 -1.2 1.2 5.6 5.6 0 0 1 -5.6 5.6 1.2 1.2 0 1 0 0 2.4 8 8 0 0 0 8-8 1.2 1.2 0 0 0 -1.2-1.2zm-14 3.6a1.2 1.2 0 0 0 -1.2 1.2 8 8 0 0 0 8 8 1.2 1.2 0 1 0 0-2.4 5.6 5.6 0 0 1 -5.6-5.6 1.2 1.2 0 0 0 -1.2-1.2z"/><path d="m10.4 2a8.382 8.382 0 0 0 -8.4 8.4v1c0-4.653 3.747-8.4 8.4-8.4h11.2c4.653 0 8.4 3.747 8.4 8.4v-1c0-4.653-3.747-8.4-8.4-8.4z" opacity=".2"/></g></svg>