<svg xmlns="http://www.w3.org/2000/svg" width="32" height="32" version="1"><path style="opacity:.2" d="M16.897 6.004a.622.622 0 0 0-.55.352L15.13 8.82l-2.253-.77a.622.622 0 0 0-.856.627l.322 2.844-1.545-.501a.622.622 0 0 0-.788.718l.065 2.369-1.394-.12a.622.622 0 0 0-.642.859l.99 2.433-.886 1.135-1.23-2.115a.622.622 0 0 0-1.13.2l-.478 2.03-.967-1.29a.622.622 0 0 0-1.115.295l-.467 3.264a.622.622 0 0 0 .617.703l.641.133-.028 2.29a.612.612 0 0 0 1.027.465L7.73 21.81l18.312-.309a.622.622 0 0 0 .574-.848l-1.427-3.666 1.717-2.925a.622.622 0 0 0-.41-.88l-2.211-.47.687-2.97a.622.622 0 0 0-.7-.726l-2.102.244-.5-2.243a.622.622 0 0 0-.978-.464l-1.789 1.882-1.477-2.156a.622.622 0 0 0-.528-.276z"/><path style="opacity:.2" d="m12.035 22.64-.377 3.06s.66.3 1.992.3c1.333 0 1.891-.22 1.891-.22l.441-3.14zm8.752 1.028-.156 2.984s.65.308 1.914.344c1.401.04 1.922-.324 1.922-.324l.375-3.004z"/><path style="fill:#972b00" d="m12.035 21.64-.377 3.06s.66.3 1.992.3c1.333 0 1.891-.22 1.891-.22l.441-3.14h-3.947zm8.752 1.028-.156 2.984s.65.308 1.914.344c1.401.04 1.922-.324 1.922-.324l.375-3.004h-4.055z"/><path style="fill:#ff8100" d="M16.897 5.004a.622.622 0 0 0-.55.352L15.13 7.82l-2.253-.77a.622.622 0 0 0-.856.627l.322 2.844-1.545-.501a.622.622 0 0 0-.788.718l.065 2.369-1.394-.12a.622.622 0 0 0-.642.859l.99 2.433-.886 1.135-1.23-2.115a.622.622 0 0 0-1.13.2l-.478 2.03-.967-1.29a.622.622 0 0 0-1.115.295l-.467 3.264a.622.622 0 0 0 .617.703l.641.133-.028 2.29a.612.612 0 0 0 1.027.465L7.73 20.81l18.312-.309a.622.622 0 0 0 .574-.848l-1.427-3.666 1.717-2.925a.622.622 0 0 0-.41-.88l-2.211-.47.687-2.97a.622.622 0 0 0-.7-.726l-2.102.244-.5-2.243a.622.622 0 0 0-.978-.464l-1.789 1.882-1.477-2.156a.622.622 0 0 0-.528-.276z"/><path style="opacity:.2;fill:#f4f4f7" d="M16.896 5.004a.622.622 0 0 0-.548.351l-1.22 2.465-2.251-.77a.621.621 0 0 0-.856.628l.075.662a.619.619 0 0 1 .781-.29l2.252.772 1.219-2.467a.622.622 0 0 1 1.078-.074l1.476 2.155 1.79-1.881a.622.622 0 0 1 .976.463l.502 2.244 2.101-.244c.24-.034.447.08.577.253l.123-.529a.622.622 0 0 0-.7-.724l-2.101.242-.502-2.242a.622.622 0 0 0-.977-.463l-1.789 1.88-1.476-2.156a.623.623 0 0 0-.53-.275zm-6.423 5.008a.623.623 0 0 0-.463.726l.02.71a.615.615 0 0 1 .767-.427l1.547.5-.117-1.037-1.43-.463a.613.613 0 0 0-.324-.01zm14.03 1.748-.22.953 2.211.47a.615.615 0 0 1 .26.137l.152-.258a.623.623 0 0 0-.412-.878l-1.99-.424zM8.683 12.988a.621.621 0 0 0-.643.858l.139.338a.602.602 0 0 1 .504-.196l1.392.12-.027-1.003-1.365-.117zm-2.227 2.03a.618.618 0 0 0-.672.482l-.478 2.03-.967-1.29a.622.622 0 0 0-1.115.295L2.756 19.8c-.018.14.023.27.088.383l.379-2.647a.622.622 0 0 1 1.115-.293l.967 1.287.478-2.029a.621.621 0 0 1 1.13-.2l1.23 2.116.886-1.137-.267-.656-.62.793-1.23-2.115a.61.61 0 0 0-.457-.283zm18.967 1.572-.235.398 1.29 3.309a.605.605 0 0 0 .138-.643l-1.193-3.064zm-21.42 5.043-.016 1.29c0 .03.009.055.012.083l.016-1.371-.012-.002z"/><path style="opacity:.2" d="M1.008 20.7s3.894-.359 7.28-2.57c1.885-1.23 2.696-3.965 4.354-5.77.355-.386.74-.792 1.15-1.151.996-.825 2.456-1.189 3.86-1.209 1.214-.017 2.386.215 3.181.713 1.734 1.178 3.153 3.311 4.022 5.226.847 1.868 1.763 2.22 1.763 2.22l3.014 1.523c1.318.667 1.237 2.368 1.368 3.22l-1.404.13-.314 1.065c-.052-.015-3.91-.491-5.224.588-.65.01-1.425-.055-2.826-.055l-.381 3.042s-.522.365-1.923.325c-1.264-.036-1.913-.345-1.913-.345l.206-3.914-4.805-.814-.492 3.906s-.556.17-1.888.17c-1.333 0-1.993-.25-1.993-.25l.455-4.116s-3.931-.382-4.16-.427c-3.66-.721-3.33-1.508-3.33-1.508z"/><path style="fill:#da4000" d="M1.008 19.7s3.894-.359 7.28-2.57c1.885-1.23 2.696-3.965 4.354-5.77.355-.386.74-.792 1.15-1.151.996-.825 2.456-1.189 3.86-1.209 1.214-.017 2.386.215 3.181.713 1.734 1.178 3.153 3.311 4.022 5.226.847 1.868 1.763 2.22 1.763 2.22l3.014 1.523c1.318.667 1.237 2.368 1.368 3.22l-1.404.13-.314 1.065c-.052-.015-3.91-.491-5.224.588-.65.01-1.425-.055-2.826-.055l-.381 3.042s-.522.365-1.923.325c-1.264-.036-1.913-.345-1.913-.345l.206-3.914-4.805-.814-.492 3.906s-.556.17-1.888.17c-1.333 0-1.993-.25-1.993-.25l.455-4.116s-3.931-.382-4.16-.427c-3.66-.721-3.33-1.508-3.33-1.508z"/><circle style="opacity:.2" cx="25.5" cy="20.5" r="1.5"/><circle style="fill:#f4f4f7" cx="25.5" cy="19.5" r="1.5"/><circle style="fill:#17191e" cx="25.5" cy="19.5" r=".5"/><path style="opacity:.2" d="M29.113 22.028c-2.172 0-4.133.693-4.979 1.605 1.377-1.008 5.096-.552 5.148-.536l.311-1.057c-.16-.007-.32-.011-.48-.012z"/></svg>