<svg height="32" width="32" xmlns="http://www.w3.org/2000/svg">
    <path d="M30 17a14 14 0 0 1-14 14A14 14 0 0 1 2 17 14 14 0 0 1 16 3a14 14 0 0 1 14 14z" opacity=".2"/>
    <path d="M30 16a14 14 0 0 1-14 14A14 14 0 0 1 2 16 14 14 0 0 1 16 2a14 14 0 0 1 14 14z" fill="#4f4f4f"/>
    <path d="m8.563 12-2.25 3H11.3l-3.676 7h7.689l3.675-7h2.563l-3.676 7h2.563l5.25-10H12.874z" opacity=".2"/>
    <path d="M18 11h2.562l-5.25 10H12.75zm5.125 0h2.562l-5.25 10h-2.562z" fill="#f4f4f7"/>
    <path d="m8.563 11-2.25 3H11.3l1.574-3H8.562zM18 11l-1.574 3h7.386l1.875-3z" fill="#f4f4f7"/>
    <path d="M15.437 11H18l-5.25 10h-2.563z" fill="#4485e8"/>
    <path d="M12.875 11h2.562l-5.25 10H7.625z" fill="#69b0ec"/>
    <path d="M16 2A14 14 0 0 0 2 16a14 14 0 0 0 .021.586A14 14 0 0 1 16 3a14 14 0 0 1 13.979 13.414A14 14 0 0 0 30 16 14 14 0 0 0 16 2z" fill="#f4f4f7" opacity=".1"/>
</svg>
