<svg height="32" width="32" xmlns="http://www.w3.org/2000/svg"><path d="m30 29.6v-25.2c0-.776-.624-1.4-1.4-1.4h-25.2c-.776 0-1.4.624-1.4 1.4v25.2c0 .776.624 1.4 1.4 1.4h25.2c.776 0 1.4-.624 1.4-1.4z" opacity=".2"/><path d="m30 28.6v-25.2c0-.776-.624-1.4-1.4-1.4h-25.2c-.776 0-1.4.624-1.4 1.4v25.2c0 .776.624 1.4 1.4 1.4h25.2c.776 0 1.4-.624 1.4-1.4z" fill="#424b6d"/><path d="m10.56 27 13.055-1.753-2.302-3.084z" opacity=".1"/><path d="m13.913 6.357-2.251 1.713-5.1 12.029-.205 4.14 4.396 1.404 12.59-1.691 1.701-2.385.599-3.612-1.955-3.669-5.546-6.756z" fill="#d62f19"/><path d="m11.5 7.776 5.29 7.272-10.578 5.202z" fill="#d62f19"/><path d="m6.212 20.25-.212 4.293 4.56 1.457 10.753-4.837.738-4.625-5.26-1.49z" fill="#e84d34"/><path d="m10.56 26 13.055-1.753-2.302-3.084z" fill="#962111"/><path d="m21.313 22.163.738-4.625 1.922-2.315 2.027 3.804-.62 3.746-1.765 2.474z" opacity=".1"/><path d="m21.313 21.163.738-4.625 1.922-2.315 2.027 3.804-.62 3.745-1.765 2.475z" fill="#a92513"/><path d="m22.051 16.538-5.26-1.49-5.29-7.272 2.336-1.776 4.384 1.216 5.752 7.007z" fill="#c22a16"/><path d="m3.4 2c-.775 0-1.4.625-1.4 1.4v1c0-.775.625-1.4 1.4-1.4h25.2c.775 0 1.4.625 1.4 1.4v-1c0-.775-.625-1.4-1.4-1.4z" fill="#f4f4f7" opacity=".1"/><path d="m16.791 15.049-10.58 5.201-.211 4.293.049.016.162-3.309 10.58-5.201 5.107 1.447.153-.957z" fill="#f4f4f7" opacity=".1"/><path d="m21.898 17.496-.585 3.666-10.754 4.838-4.51-1.441-.049.984 4.559 1.457 10.754-4.838.738-4.623z" opacity=".1"/><path d="m11.5 7.775-5.29 12.475.536-.264 4.754-11.21 4.756 6.537.535-.264z" fill="#f4f4f7" opacity=".1"/><path d="m13.836 6-2.336 1.775.469.645 1.867-1.42 4.385 1.217 5.34 6.504.412-.498-5.752-7.006z" fill="#f4f4f7" opacity=".1"/><path d="m23.56 14.72-1.51 1.817-5.259-1.488 5.26 1.49-.153.955.153.043 1.922-2.314-.412-.502z" opacity=".1"/></svg>