<svg height="32" width="32" xmlns="http://www.w3.org/2000/svg">
    <rect height="27" opacity=".2" rx="3" transform="matrix(0 -1 -1 0 0 0)" width="27" x="-30" y="-30"/>
    <path d="M3 8h3v3H3z" fill="#9bca6b"/>
    <path d="M6 17h3v3H6z" fill="#583c28"/>
    <path d="M18 17h-3v3h3z" fill="#b8845b"/>
    <path d="M15 17h-3v3h3z" fill="#785439"/>
    <path d="M18 14h-3v3h3z" fill="#956b49"/>
    <path d="M12 14h3v3h-3z" fill="#785439"/>
    <path d="M15 11h-3v3h3z" fill="#583c28"/>
    <path d="M27 5h3v3h-3z" fill="#9bca6b"/>
    <path d="M6 2v3H3c0-3 3-3 3-3z" fill="#72b248"/>
    <path d="M21 23h-3v-3h3z" fill="#b8845b"/>
    <path d="M9 17h3v3H9z" fill="#785439"/>
    <path d="M9 14h3v3H9z" fill="#583c28"/>
    <path d="M21 14h-3v3h3z" fill="#6b6b6b"/>
    <path d="M18 11h3v3h-3z" fill="#956b49"/>
    <path d="M12 8H9v3h3z" fill="#60a036"/>
    <path d="M24 17h-3v3h3z" fill="#956b49"/>
    <path d="M6 5h3v3H6z" fill="#9bca6b"/>
    <path d="M15 8h3v3h-3z" fill="#72b248"/>
    <path d="M18 8h3v3h-3z" fill="#56962c"/>
    <path d="M21 8h3v3h-3z" fill="#60a036"/>
    <path d="M24 11h-3v3h3z" fill="#72b248"/>
    <path d="M9 14H6v3h3z" fill="#785439"/>
    <path d="M15 8h-3v3h3z" fill="#56962c"/>
    <path d="M6 5H3v3h3z" fill="#60a036"/>
    <path d="M27 26h-3v3h3zM12 26h3v3h-3z" fill="#785439"/>
    <path d="M15 26h3v3h-3zM9 29h3v-3H9z" fill="#956b49"/>
    <path d="M21 29h-3v-3h3z" fill="#785439"/>
    <path d="M9 23h3v3H9z" fill="#583c28"/>
    <path d="M12 23h3v3h-3z" fill="#6b6b6b"/>
    <path d="M18 23h3v3h-3z" fill="#785439"/>
    <path d="M15 23h3v3h-3zM24 23h3v3h-3z" fill="#583c28"/>
    <path d="M9 26H6v-3h3z" fill="#6b6b6b"/>
    <path d="M6 29h3v-3H6zM27 17h-3v3h3z" fill="#b8845b"/>
    <path d="M27 14h-3v3h3z" fill="#956b49"/>
    <path d="M24 2h3v3h-3z" fill="#9bca6b"/>
    <path d="M24 8h3v3h-3zM24 2h-3v3h3z" fill="#72b248"/>
    <path d="M18 2h3v3h-3z" fill="#60a036"/>
    <path d="M6 2h3v3H6z" fill="#72b248"/>
    <path d="M9 2h3v3H9zM15 2h3v3h-3z" fill="#56962c"/>
    <path d="M12 2h3v3h-3z" fill="#72b248"/>
    <path d="M6 14H3v-3h3zM3 26h3v-3H3z" fill="#b8845b"/>
    <path d="M3 17h3v3H3z" fill="#956b49"/>
    <path d="M3 14h3v3H3z" fill="#583c28"/>
    <path d="M12 11H9v3h3z" fill="#b8845b"/>
    <path d="M21 5h3v3h-3z" fill="#56962c"/>
    <path d="M24 5h3v3h-3z" fill="#60a036"/>
    <path d="M18 5h-3v3h3z" fill="#56962c"/>
    <path d="M18 5h3v3h-3zM27 2s3 0 3 3h-3z" fill="#72b248"/>
    <path d="M12 5H9v3h3zM27 11h3v3h-3z" fill="#56962c"/>
    <path d="M12 5h3v3h-3z" fill="#9bca6b"/>
    <path d="M12 20H9v3h3z" fill="#b8845b"/>
    <path d="M6 23h3v-3H6z" fill="#785439"/>
    <path d="M12 23h3v-3h-3z" fill="#583c28"/>
    <g fill="#785439">
        <path d="M15 23h3v-3h-3zM21 17h3v-3h-3zM27 17h3v-3h-3z"/>
    </g>
    <path d="M6 29v-3H3s0 3 3 3z" fill="#583c28"/>
    <g fill="#6b6b6b">
        <path d="M6 20H3v3h3zM21 14h-3v3h3zM9 11H6v3h3zM27 14h-3v-3h3z"/>
    </g>
    <path d="M30 8h-3v3h3zM21 26h3v3h-3z" fill="#b8845b"/>
    <path d="M24 20h-3v3h3z" fill="#785439"/>
    <path d="M30 20h-3v3h3z" fill="#956b49"/>
    <path d="M9 11H6V8h3z" fill="#785439"/>
    <path d="M24 20h3v3h-3z" fill="#6b6b6b"/>
    <path d="M18 11h-3v3h3z" fill="#b8845b"/>
    <path d="M27 23h3v3h-3z" fill="#785439"/>
    <path d="M27 26h3c0 3-3 3-3 3z" fill="#6b6b6b"/>
    <path d="M18 17h3v3h-3z" fill="#785439"/>
    <path d="M27 20h3v-3h-3z" fill="#583c28"/>
    <path d="M21 26h3v-3h-3z" fill="#785439"/>
    <path d="M6 2C4.338 2 3 3.338 3 5v1c0-1.662 1.338-3 3-3h21c1.662 0 3 1.338 3 3V5c0-1.662-1.338-3-3-3z" fill="#f4f4f7" opacity=".2"/>
</svg>
