<svg height="32" width="32" xmlns="http://www.w3.org/2000/svg"><path d="m5.031 8.258-1.978 3.475c-1.32 2.317 22.597 16.326 23.916 14.01l1.978-3.476c1.32-2.317-22.597-16.326-23.916-14.01" opacity=".2"/><path d="m5.031 7.258-1.978 3.475c-1.32 2.317 22.597 16.326 23.916 14.01l1.978-3.476c1.32-2.317-22.597-16.326-23.916-14.01" fill="#009688"/><path d="m5.531 7.008c-.247.024-.417.105-.5.25l-1.978 3.474c-.103.18-.037.44.144.748l1.834-3.222c1.217-2.138 21.63 9.602 23.772 13.262l.144-.252c1.237-2.172-19.706-14.622-23.416-14.26z" fill="#f4f4f7" opacity=".1"/><path d="m26.969 8.258 1.978 3.475c1.32 2.317-22.597 16.326-23.916 14.01l-1.978-3.476c-1.32-2.317 22.597-16.326 23.916-14.01" opacity=".2"/><path d="m26.969 7.258 1.978 3.475c1.32 2.317-22.597 16.326-23.916 14.01l-1.978-3.476c-1.32-2.317 22.597-16.326 23.916-14.01" fill="#601ab8"/><path d="m26.469 7.008c-3.71-.362-24.653 12.088-23.416 14.26l.144.252c2.143-3.66 22.555-15.4 23.773-13.262l1.834 3.222c.18-.309.247-.567.144-.748l-1.978-3.474c-.083-.145-.253-.226-.5-.25z" fill="#f4f4f7" opacity=".1"/><path d="m17.97 3.01-3.998-.01c-2.666-.006-2.608 27.985.058 27.99l4 .01c2.666.006 2.608-27.985-.058-27.99" opacity=".2"/><path d="m17.97 2.01-3.998-.01c-2.666-.006-2.608 27.985.058 27.99l4 .01c2.666.006 2.608-27.985-.058-27.99" fill="#2176f3"/><path d="m13.97 2c-1.358-.003-2.005 7.265-1.964 14.396.023-6.793.67-13.399 1.965-13.396l4 .01c1.307.003 1.983 6.734 2.023 13.594.024-7.191-.652-14.591-2.023-14.594l-4-.01z" fill="#f4f4f7" opacity=".2"/></svg>