<svg height="32" width="32" xmlns="http://www.w3.org/2000/svg"><path d="m11.257 22.079c-.75-.04-1.61.304-2.296.99l-2.969 2.97c-1.097 1.096-1.318 2.641-.495 3.464.823.822 2.368.602 3.465-.495l2.97-2.97c1.096-1.096 1.317-2.641.494-3.464-.308-.309-.719-.471-1.169-.495zm9.408 0c-.45.024-.86.186-1.168.495-.823.823-.602 2.368.495 3.464l2.97 2.97c1.096 1.097 2.641 1.318 3.464.495s.602-2.368-.495-3.465l-2.97-2.97c-.685-.685-1.546-1.029-2.296-.989z" fill="#4f4f4f"/><path d="m5 2a5 5 0 0 0 -5 5 5 5 0 0 0 5 5 5 5 0 0 0 5-5 5 5 0 0 0 -5-5zm22 0a5 5 0 0 0 -5 5 5 5 0 0 0 5 5 5 5 0 0 0 5-5 5 5 0 0 0 -5-5z" fill="#c03120"/><path d="m5 2a5 5 0 0 0 -5 5 5 5 0 0 0 .027.516 5 5 0 0 1 4.973-4.516 5 5 0 0 1 4.973 4.484 5 5 0 0 0 .027-.484 5 5 0 0 0 -5-5zm22 0a5 5 0 0 0 -5 5 5 5 0 0 0 .027.516 5 5 0 0 1 4.973-4.516 5 5 0 0 1 4.973 4.484 5 5 0 0 0 .027-.484 5 5 0 0 0 -5-5z" fill="#fff" opacity=".1"/><path d="m12.859 24.369a3.35 3.35 0 0 1 -.927 1.67l-2.971 2.969c-1.097 1.097-2.64 1.317-3.463.494-.22-.22-.36-.493-.433-.795-.143.686-.014 1.348.433 1.795.823.823 2.366.603 3.463-.494l2.971-2.971c.803-.803 1.129-1.844.927-2.668zm6.205 0c-.201.824.125 1.865.928 2.668l2.969 2.971c1.097 1.097 2.642 1.317 3.465.494.447-.447.576-1.109.433-1.795a1.655 1.655 0 0 1 -.433.795c-.823.823-2.368.603-3.465-.494l-2.969-2.969c-.5-.5-.808-1.094-.928-1.67z" opacity=".2"/><rect fill="#e74c3c" height="28" rx="14" width="28" x="2" y="2"/><rect height="24" opacity=".2" rx="12" transform="matrix(0 -1 -1 0 0 0)" width="24" x="-29" y="-28"/><path d="m16 2c-7.756 0-14 6.244-14 14 0 .169.02.333.025.5a13.957 13.957 0 0 1 13.975-13.5c7.587 0 13.711 5.98 13.975 13.5.005-.167.025-.331.025-.5 0-7.756-6.244-14-14-14z" fill="#f4f4f7" opacity=".2"/><rect fill="#f8cac5" height="24" rx="12" transform="matrix(0 -1 -1 0 0 0)" width="24" x="-28" y="-28"/><path d="m16 6a1 1 0 0 0 -1 1 1 1 0 0 0 1 1 1 1 0 0 0 1-1 1 1 0 0 0 -1-1zm5.69 5.006a.727.727 0 0 0 -.272.09l-5.99 3.412c-.818.401-1.128 1.453-.797 2.06l2.178 3.721a1.449 1.449 0 0 0 1.968.52c.692-.394.929-1.26.53-1.942l-2.162-3.695 4.994-2.844a.706.706 0 0 0 .263-.973.721.721 0 0 0 -.713-.35zm-14.69 3.994a1 1 0 0 0 -1 1 1 1 0 0 0 1 1 1 1 0 0 0 1-1 1 1 0 0 0 -1-1zm18 0a1 1 0 0 0 -1 1 1 1 0 0 0 1 1 1 1 0 0 0 1-1 1 1 0 0 0 -1-1zm-9 9a1 1 0 0 0 -1 1 1 1 0 0 0 1 1 1 1 0 0 0 1-1 1 1 0 0 0 -1-1z" opacity=".7"/><path d="m2.025 16.5c-.006.167-.025.331-.025.5 0 7.756 6.244 14 14 14s14-6.244 14-14c0-.169-.02-.333-.025-.5-.264 7.521-6.388 13.5-13.975 13.5s-13.711-5.979-13.975-13.5z" opacity=".2"/><path d="m16 4c-6.648 0-12 5.352-12 12 0 .169.019.333.025.5a11.962 11.962 0 0 1 11.975-11.5c6.48 0 11.712 5.088 11.975 11.5.006-.167.025-.331.025-.5 0-6.648-5.352-12-12-12z" fill="#f4f4f7" opacity=".2"/></svg>