<svg width="32" height="32" xmlns="http://www.w3.org/2000/svg"><rect x="2" y="3" width="28" height="28" rx="1" ry="1" style="opacity:.2"/><rect x="2" y="2" width="28" height="28" rx="1" ry="1" style="fill:#0190c5"/><path d="M16 6s5 1 7 3 4 7 4 7V7c0-.554-.446-1-1-1zM5 7v15s4.51-.51 6-2c3.926-3.926 8.71-9.656 8.889-9.871C15.152 7.009 5 7 5 7zm16.885 5.117c-.323.324-5.021 5.054-8.885 9.883-1.317 1.646-2 6-2 6h15s-.854-11.017-4.115-15.883z" style="opacity:.2"/><path d="M16 5s5 1 7 3 4 7 4 7V6c0-.554-.446-1-1-1H16zM5 6v15s4.51-.51 6-2c3.926-3.926 8.71-9.656 8.889-9.871C15.152 6.009 5 6 5 6zm16.885 5.117c-.323.324-5.021 5.054-8.885 9.883-1.317 1.646-2 6-2 6h15s-.854-11.017-4.115-15.883z" style="fill:#f4f4f7"/><path d="M3 2c-.554 0-1 .446-1 1v1c0-.554.446-1 1-1h26c.554 0 1 .446 1 1V3c0-.554-.446-1-1-1H3z" style="fill:#f4f4f7;opacity:.2"/></svg>