<svg xmlns="http://www.w3.org/2000/svg" height="32" width="32">
    <circle cx="16" cy="17" r="14" style="opacity:.2"/>
    <path style="fill:#4ac73e" d="M16 2A14 14 0 0 0 2 16a14 14 0 0 0 14 14 14 14 0 0 0 1-.037V2.05A14 14 0 0 0 16 2z"/>
    <path style="fill:#ff5757" d="M16 2v28a14 14 0 0 0 14-14A14 14 0 0 0 16 2z"/>
    <path d="M16 2A14 14 0 0 0 2 16a14 14 0 0 0 .021.586A14 14 0 0 1 16 3a14 14 0 0 1 13.979 13.414A14 14 0 0 0 30 16 14 14 0 0 0 16 2z" style="opacity:.2;fill:#f4f4f7"/>
    <path style="opacity:.2" d="M15.5 7c-3.204 0-5.8 2.796-5.8 6h2.9c0-1.595 1.305-3.1 2.9-3.1s2.9 1.306 2.9 2.9c0 .798-.319 1.522-.855 2.044l-1.799 1.828a5.835 5.835 0 0 0-1.695 4.103V21h2.92c.097-1.807.718-2.632 1.675-3.604l1.305-1.333a4.613 4.613 0 0 0 1.35-3.262A5.8 5.8 0 0 0 15.5 7zM14 24v3h3v-3z"/>
    <path style="fill:#f4f4f7" d="M15.5 6c-3.204 0-5.8 2.796-5.8 6h2.9c0-1.595 1.305-3.1 2.9-3.1s2.9 1.306 2.9 2.9c0 .798-.319 1.522-.855 2.044l-1.799 1.828a5.835 5.835 0 0 0-1.695 4.103V20h2.92c.097-1.807.718-2.632 1.675-3.604l1.305-1.333a4.613 4.613 0 0 0 1.35-3.262A5.8 5.8 0 0 0 15.5 6zM14 23v3h3v-3z"/>
</svg>
