<svg height="32" width="32" xmlns="http://www.w3.org/2000/svg">
    <rect height="28" opacity=".2" rx="1.4" width="28" x="2" y="3"/>
    <rect fill="#38a334" height="28" rx="1.4" width="28" x="2" y="2"/>
    <path d="M20 8a5 5 0 0 0-5 5 5 5 0 0 0 .514 2.201L7 23.715V26h2.285l1-1H13v-2.715L14.285 21H17v-2.715l.8-.8A5 5 0 0 0 20 18a5 5 0 0 0 5-5 5 5 0 0 0-5-5zm1 2a2 2 0 0 1 2 2 2 2 0 0 1-2 2 2 2 0 0 1-2-2 2 2 0 0 1 2-2z" opacity=".2"/>
    <path d="M20 7a5 5 0 0 0-5 5 5 5 0 0 0 .514 2.201L7 22.715V25h2.285l1-1H13v-2.715L14.285 20H17v-2.715l.8-.8A5 5 0 0 0 20 17a5 5 0 0 0 5-5 5 5 0 0 0-5-5zm1 2a2 2 0 0 1 2 2 2 2 0 0 1-2 2 2 2 0 0 1-2-2 2 2 0 0 1 2-2z" fill="#f4f4f7"/>
    <path d="M7 12.286V10h2.286L23 23.714V26h-2.286z" opacity=".2"/>
    <path d="M7 11.286V9h2.286L23 22.714V25h-2.286z" fill="#454545"/>
    <path d="M3.4 2C2.625 2 2 2.625 2 3.4v1C2 3.625 2.625 3 3.4 3h25.2c.775 0 1.4.625 1.4 1.4v-1c0-.775-.625-1.4-1.4-1.4z" fill="#f4f4f7" opacity=".1"/>
</svg>
