<svg height="32" width="32" xmlns="http://www.w3.org/2000/svg">
    <rect fill="#d9974e" height="28" rx="1.5" width="28" x="2" y="2"/>
    <path d="M3.5 2C2.669 2 2 2.669 2 3.5v1C2 3.669 2.669 3 3.5 3h25c.831 0 1.5.669 1.5 1.5v-1c0-.831-.669-1.5-1.5-1.5z" fill="#fff" opacity=".1"/>
    <path d="M2 28.5v1c0 .831.669 1.5 1.5 1.5h25c.831 0 1.5-.669 1.5-1.5v-1c0 .831-.669 1.5-1.5 1.5h-25c-.831 0-1.5-.669-1.5-1.5z" opacity=".2"/>
    <path d="M13 6a7 7 0 0 0-7 7 7 7 0 0 0 6 6.922V26h14V12h-6.08A7 7 0 0 0 13 6zm0 1a6 6 0 0 1 5.914 5H12v6.91A6 6 0 0 1 7 13a6 6 0 0 1 6-6zm0 6h6a6 6 0 0 1-6 6zm7 0h5v12H13v-5a7 7 0 0 0 7-7z" fill="#4d4d4d"/>
</svg>
