<svg xmlns="http://www.w3.org/2000/svg" width="32" height="32"><rect style="opacity:.2" width="20" height="29" x="6" y="2" rx="2.143" ry="2.175"/><rect style="fill:#335065" width="20" height="29" x="6" y="1" rx="2.143" ry="2.175"/><path style="fill:#f4f4f7" d="M7 2h3v3H7z"/><path style="opacity:.2" d="M16 13c-.36.005-.618.23-.738.603l.004-.017L14.7 15.5h-1.924c-.228.008-.433.084-.578.267-.314.373-.247.96.15 1.237l1.503 1.138-.583 1.809-.002.006a.814.814 0 0 0 .219.829l.005.005a.754.754 0 0 0 .969.062L16 19.7l1.541 1.153a.754.754 0 0 0 .969-.062l.005-.005a.813.813 0 0 0 .219-.829l-.002-.006-.583-1.81 1.502-1.137c.398-.278.465-.864.151-1.237-.145-.183-.35-.26-.578-.267a.37.37 0 0 0-.013 0h-1.91l-.567-1.914.004.017c-.12-.373-.377-.598-.738-.603z"/><path style="fill:#ff3b64" d="M16 12c-.36.005-.618.23-.738.603l.004-.017L14.7 14.5h-1.924c-.228.008-.433.084-.578.267-.314.373-.247.96.15 1.237l1.503 1.138-.583 1.809-.002.006a.814.814 0 0 0 .219.829l.005.005a.754.754 0 0 0 .969.062L16 18.7l1.541 1.153a.754.754 0 0 0 .969-.062l.005-.005a.813.813 0 0 0 .219-.829l-.002-.006-.583-1.81 1.502-1.137c.398-.278.465-.864.151-1.237-.145-.183-.35-.26-.578-.267a.37.37 0 0 0-.013 0h-1.91l-.567-1.914.004.017c-.12-.373-.377-.598-.738-.603z"/><path style="fill:#f4f4f7" d="M7 8h3v3H7zM7 14h3v3H7zM7 20h3v3H7zM7 26h3v3H7zM22 2h3v3h-3zM22 8h3v3h-3zM22 14h3v3h-3zM22 20h3v3h-3zM22 26h3v3h-3z"/><path style="fill:#f4f4f7;opacity:.2" d="M16 12c-.36.005-.618.231-.738.604l.004-.018-.567 1.914h-1.922c-.228.008-.435.085-.58.268a.852.852 0 0 0-.023 1.044c.01-.013.012-.031.023-.044.145-.183.352-.26.58-.268H14.7l.567-1.914-.004.018c.12-.373.377-.599.738-.604.36.005.618.231.738.604l-.004-.018.567 1.914h1.922c.228.008.435.085.58.268.011.013.013.03.023.044a.852.852 0 0 0-.023-1.044c-.145-.183-.352-.26-.58-.268H17.3l-.567-1.914.004.018c-.12-.373-.377-.599-.738-.604zm-2.408 5.945-.324 1.006a.814.814 0 0 0 .1.69l.484-1.5-.26-.196zm4.816 0-.26.196.485 1.5a.814.814 0 0 0 .101-.684c0-.002 0-.004-.002-.006l-.324-1.006z"/><path style="fill:#f4f4f7;opacity:.1" d="M8.143 1C6.955 1 6 1.97 6 3.176v1C6 2.97 6.955 2 8.143 2h15.714C25.045 2 26 2.97 26 4.176v-1C26 1.97 25.045 1 23.857 1H8.143z"/><path style="opacity:.2" d="M7 5v1h3V5H7zm15 0v1h3V5h-3zM7 11v1h3v-1H7zm15 0v1h3v-1h-3zM7 17v1h3v-1H7zm15 0v1h3v-1h-3zM7 23v1h3v-1H7zm15 0v1h3v-1h-3zM7 29v1h3v-1H7zm15 0v1h3v-1h-3z"/></svg>