<svg xmlns="http://www.w3.org/2000/svg" width="32" height="32"><path style="opacity:.2" d="M22 19.675h7.032L22 32z"/><path style="fill:#4479d9" d="M22 18.675h7.032L22 31z"/><path style="opacity:.2" d="M30 15.5A14.5 12.5 0 0 1 15.5 28 14.5 12.5 0 0 1 1 15.5 14.5 12.5 0 0 1 15.5 3 14.5 12.5 0 0 1 30 15.5z"/><path style="fill:#47b4f4" d="M30 14.5A14.5 12.5 0 0 1 15.5 27 14.5 12.5 0 0 1 1 14.5 14.5 12.5 0 0 1 15.5 2 14.5 12.5 0 0 1 30 14.5z"/><path style="opacity:.1" d="M16.512 8a7.488 7.5 0 0 0-1.483.154 7.488 7.5 0 0 1 5.975 7.346A7.488 7.5 0 0 1 15 22.846a7.488 7.5 0 0 0 1.512.154A7.488 7.5 0 0 0 24 15.5 7.488 7.5 0 0 0 16.512 8zM8.5 10A1.5 1.5 0 0 0 7 11.5 1.5 1.5 0 0 0 8.5 13a1.5 1.5 0 0 0 1.5-1.5A1.5 1.5 0 0 0 8.5 10zm3.9 4c-.775 0-1.4.669-1.4 1.5s.625 1.5 1.4 1.5h4.2c.775 0 1.4-.669 1.4-1.5s-.625-1.5-1.4-1.5zm-3.9 4a1.5 1.5 0 1 0 0 3c.53 0 .75 1.5.75 1.5s.75-2.702.75-3A1.5 1.5 0 0 0 8.5 18z"/><path style="fill:#2e4e8a" d="M16.512 7a7.488 7.5 0 0 0-1.483.154 7.488 7.5 0 0 1 5.975 7.346A7.488 7.5 0 0 1 15 21.846a7.488 7.5 0 0 0 1.512.154A7.488 7.5 0 0 0 24 14.5 7.488 7.5 0 0 0 16.512 7zM8.5 9A1.5 1.5 0 0 0 7 10.5 1.5 1.5 0 0 0 8.5 12a1.5 1.5 0 0 0 1.5-1.5A1.5 1.5 0 0 0 8.5 9zm3.9 4c-.775 0-1.4.669-1.4 1.5s.625 1.5 1.4 1.5h4.2c.775 0 1.4-.669 1.4-1.5s-.625-1.5-1.4-1.5h-4.2zm-3.9 4a1.5 1.5 0 1 0 0 3c.53 0 .75 1.5.75 1.5s.75-2.702.75-3A1.5 1.5 0 0 0 8.5 17z"/><path style="fill:#f4f4f7;opacity:.2" d="M15.5 2A14.5 12.5 0 0 0 1 14.5a14.5 12.5 0 0 0 .023.58A14.5 12.5 0 0 1 15.5 3a14.5 12.5 0 0 1 14.477 11.92A14.5 12.5 0 0 0 30 14.5 14.5 12.5 0 0 0 15.5 2z"/></svg>