<svg xmlns="http://www.w3.org/2000/svg" width="32" height="32" version="1"><path style="opacity:.2" d="M2 7.9v19.711C2 28.381 2.624 29 3.4 29h25.2c.776 0 1.4-.619 1.4-1.389V7.9z"/><path style="fill:#db4c4c" d="M2 6.9v19.711C2 27.381 2.624 28 3.4 28h25.2c.776 0 1.4-.619 1.4-1.389V6.9z"/><path style="opacity:.2;fill:#f4f4f7" d="M16 6.9V28h12.601A1.39 1.39 0 0 0 30 26.611V6.9z"/><path style="fill:#d2bebe" d="M3.4 3C2.624 3 2 3.62 2 4.389V7h28V4.389A1.39 1.39 0 0 0 28.6 3z"/><path style="opacity:.1" d="M12.572 12c.133.003.26.052.359.138l8.537 6.735a.539.539 0 0 1-.292.942l-3.31.464 1.551 2.666a1.235 1.235 0 0 1-.46 1.697l-.332.19c-.6.345-1.364.141-1.71-.455l-1.611-2.769-2.361 1.9c-.364.293-.914.042-.915-.418L12 12.544a.55.55 0 0 1 .572-.544z"/><path style="fill:#583030" d="M12.572 11c.133.003.26.052.359.138l8.537 6.735a.539.539 0 0 1-.292.942l-3.31.464 1.551 2.666a1.235 1.235 0 0 1-.46 1.697l-.332.19c-.6.345-1.364.141-1.71-.455l-1.611-2.769-2.361 1.9c-.364.293-.914.042-.915-.418L12 11.544a.55.55 0 0 1 .572-.544z"/><path style="opacity:.2" d="M2 7h28v1H2z"/><path style="fill:#f4f4f7;opacity:.2" d="M3.4 3C2.624 3 2 3.62 2 4.389v1C2 4.619 2.624 4 3.4 4h25.2c.776 0 1.4.62 1.4 1.389v-1C30 3.619 29.376 3 28.6 3H3.4z"/></svg>