<svg height="32" width="32" xmlns="http://www.w3.org/2000/svg"><g fill-rule="evenodd"><path d="m15.772 3c-.488.008-.97.042-1.446.098a.977.977 0 0 0 -.803.641l-.785 2.195c-.78.23-1.522.538-2.225.919l-2.1-1.004a.977.977 0 0 0 -1.022.112 14.095 14.095 0 0 0 -2.401 2.395.977.977 0 0 0 -.116 1.022l.996 2.105c-.383.7-.692 1.443-.925 2.222l-2.195.777a.977.977 0 0 0 -.645.801 14.118 14.118 0 0 0 -.005 3.39.977.977 0 0 0 .641.805l2.194.784c.231.78.54 1.522.92 2.223l-1.005 2.103a.977.977 0 0 0 .112 1.02 14.087 14.087 0 0 0 2.395 2.403.977.977 0 0 0 1.021.116l2.105-.997c.7.382 1.442.692 2.22.925l.778 2.196a.977.977 0 0 0 .802.643 14.113 14.113 0 0 0 3.39.007.977.977 0 0 0 .804-.641l.784-2.194c.78-.23 1.522-.539 2.224-.92l2.103 1.004a.977.977 0 0 0 1.02-.112 14.095 14.095 0 0 0 2.403-2.395.977.977 0 0 0 .116-1.021l-.997-2.105c.383-.7.692-1.442.926-2.222l2.195-.777a.977.977 0 0 0 .645-.802 14.116 14.116 0 0 0 .005-3.39.977.977 0 0 0 -.641-.805l-2.194-.783c-.23-.78-.538-1.521-.918-2.223l1.003-2.102a.977.977 0 0 0 -.112-1.022 14.087 14.087 0 0 0 -2.395-2.402.977.977 0 0 0 -1.02-.114l-2.106.995a11.513 11.513 0 0 0 -2.224-.927l-.777-2.195a.977.977 0 0 0 -.801-.643 14.116 14.116 0 0 0 -1.716-.105z" opacity=".2"/><path d="m15.772 2c-.488.008-.97.042-1.446.098a.977.977 0 0 0 -.803.641l-.785 2.195c-.78.23-1.522.538-2.225.919l-2.1-1.004a.977.977 0 0 0 -1.022.112 14.095 14.095 0 0 0 -2.401 2.395.977.977 0 0 0 -.116 1.022l.996 2.105c-.383.7-.692 1.443-.925 2.222l-2.195.777a.977.977 0 0 0 -.645.801 14.118 14.118 0 0 0 -.005 3.39.977.977 0 0 0 .641.805l2.194.784c.231.78.54 1.522.92 2.223l-1.005 2.103a.977.977 0 0 0 .112 1.02 14.087 14.087 0 0 0 2.395 2.403.977.977 0 0 0 1.021.116l2.105-.997c.7.382 1.442.692 2.22.925l.778 2.196a.977.977 0 0 0 .802.643 14.113 14.113 0 0 0 3.39.007.977.977 0 0 0 .804-.641l.784-2.194c.78-.23 1.522-.539 2.224-.92l2.103 1.004a.977.977 0 0 0 1.02-.112 14.095 14.095 0 0 0 2.403-2.395.977.977 0 0 0 .116-1.021l-.997-2.105c.383-.7.692-1.442.926-2.222l2.195-.777a.977.977 0 0 0 .645-.802 14.116 14.116 0 0 0 .005-3.39.977.977 0 0 0 -.641-.805l-2.194-.783c-.23-.78-.538-1.521-.918-2.223l1.003-2.102a.977.977 0 0 0 -.112-1.022 14.087 14.087 0 0 0 -2.395-2.402.977.977 0 0 0 -1.02-.114l-2.106.995a11.513 11.513 0 0 0 -2.224-.927l-.777-2.195a.977.977 0 0 0 -.801-.643 14.116 14.116 0 0 0 -1.716-.105z" fill="#a835c6"/><path d="m15.771 2c-.488.008-.97.041-1.445.098a.977.977 0 0 0 -.803.642l-.785 2.194c-.78.23-1.522.54-2.224.92l-2.102-1.004a.977.977 0 0 0 -1.021.11 14.093 14.093 0 0 0 -2.403 2.395.977.977 0 0 0 -.115 1.024l.041.088a.977.977 0 0 1 .074-.112 14.093 14.093 0 0 1 2.403-2.394.977.977 0 0 1 1.021-.111l2.102 1.004a11.52 11.52 0 0 1 2.224-.92l.785-2.194a.977.977 0 0 1 .803-.642 14.092 14.092 0 0 1 1.494-.098h.18c.58 0 1.151.036 1.715.105a.977.977 0 0 1 .803.643l.777 2.195a11.5 11.5 0 0 1 2.223.928l2.105-.996a.977.977 0 0 1 1.022.113 14.085 14.085 0 0 1 2.394 2.403.977.977 0 0 1 .07.105l.041-.084a.977.977 0 0 0 -.11-1.021 14.085 14.085 0 0 0 -2.395-2.403.977.977 0 0 0 -1.022-.113l-2.105.996a11.5 11.5 0 0 0 -2.223-.928l-.777-2.195a.977.977 0 0 0 -.803-.643 14.102 14.102 0 0 0 -1.715-.105zm-10.14 8.979a11.562 11.562 0 0 0 -.688 1.726l-2.193.777a.977.977 0 0 0 -.646.801 14.117 14.117 0 0 0 -.104 1.717c0 .166.01.33.016.494.014-.408.039-.813.088-1.21a.977.977 0 0 1 .646-.802l2.193-.777c.234-.779.544-1.522.926-2.223zm20.756.037-.239.5c.38.701.688 1.443.918 2.222l2.194.783a.977.977 0 0 1 .64.805c.047.389.07.783.084 1.18.006-.169.016-.336.016-.506 0-.566-.034-1.124-.1-1.674a.977.977 0 0 0 -.64-.805l-2.194-.783c-.177-.599-.413-1.169-.68-1.722zm-20.772 10.968-.765 1.604a.977.977 0 0 0 .04.914l.964-2.016c-.089-.162-.159-.335-.239-.502zm20.754.036c-.08.165-.15.336-.238.498l.955 2.015a.977.977 0 0 0 .041-.912z" fill="#f4f4f7" opacity=".1"/></g><circle cx="16" cy="17" opacity=".2" r="8"/><circle cx="16" cy="16" fill="#ffbc2e" r="8"/><path d="m16 8a8 8 0 0 0 -8 8 8 8 0 0 0 .021.576 8 8 0 0 1 7.979-7.576 8 8 0 0 1 7.979 7.424 8 8 0 0 0 .021-.424 8 8 0 0 0 -8-8z" fill="#f4f4f7" opacity=".2"/><path d="m6.135 4 7.871 19h3.988l7.871-19h-4.644l-5.221 13.885-5.221-13.885z" opacity=".1"/><path d="m6.135 3 7.871 19h3.988l7.871-19h-4.644l-5.221 13.885-5.221-13.885z" fill="#ff4c0e"/><path d="m6.135 3 .414 1h4.23l5.221 13.885 5.22-13.885h4.231l.414-1h-4.644l-5.221 13.885-5.22-13.885h-4.646z" fill="#f4f4f7" opacity=".2"/></svg>