<svg xmlns="http://www.w3.org/2000/svg" width="32" height="32">
    <g transform="translate(0 -1020.4)">
        <path fill="#a1a331" d="M15.892 1022.4h-.001A13.968 13.968 0 0 0 2 1036.397c0 7.756 6.244 14 14 14a13.966 13.966 0 0 0 13.974-13.168l.026-.024v-12.008c0-1.551-1.249-2.8-2.8-2.8H15.892z"/>
        <circle opacity=".2" cx="16" cy="1037.4" r="10"/>
        <path d="M26.17 1029.448h2.304v.952h-3.472v-.923l.586-.622q1.043-1.11 1.267-1.366.275-.315.395-.557.121-.245.121-.483 0-.367-.223-.564-.22-.202-.626-.202-.29 0-.652.118-.36.113-.751.333v-1.007q.392-.143.765-.216.378-.077.722-.077.868 0 1.362.406.498.403.498 1.102 0 .323-.11.605-.106.282-.37.626-.194.249-1.065 1.12-.473.473-.751.755z" opacity=".2"/>
        <circle fill="#efefef" cx="16" cy="1036.4" r="10"/>
        <path fill="#ff352e" d="M12.588 1044.3a.741.741 0 0 1-.206-.182 4.64 4.64 0 0 0-.33-.35c-.188-.184-.242-.22-.339-.227a.475.475 0 0 1-.228-.088c-.12-.084-.334-.335-.334-.39 0-.044-.137-.09-.27-.09-.233 0-.41-.116-.463-.305a4.067 4.067 0 0 0-.1-.29c-.056-.144-.085-.177-.18-.215-.525-.205-.539-.214-.624-.417a1.239 1.239 0 0 0-.118-.214c-.05-.066-.058-.11-.041-.226a.345.345 0 0 0-.045-.26c-.059-.107-.06-.126-.02-.216.025-.054.06-.108.08-.12s.058-.058.085-.107c.049-.087.048-.088-.088-.202a2.534 2.534 0 0 0-.272-.195c-.11-.065-.145-.109-.183-.225-.082-.253-.066-.323.112-.493.087-.083.159-.174.159-.203 0-.029-.055-.108-.121-.176a3.925 3.925 0 0 1-.235-.27c-.16-.202-.245-.27-.425-.334a12.505 12.505 0 0 1-.616-.231.566.566 0 0 1-.13-.162c-.128-.215-.19-.258-.393-.274-.286-.022-.31-.108-.208-.75.044-.278.09-.387.237-.55.184-.208.341-.281.641-.3.234-.016.265-.01.488.081.131.055.26.111.288.127.113.064.582.697.617.831.01.04.057.125.105.188.077.103.12.126.397.211.172.053.355.13.407.17.122.094.151.093.297-.014.213-.156.313-.197.524-.22.335-.034.349-.043.349-.236 0-.126.02-.198.08-.293.115-.18.19-.172.399.046.091.095.231.205.311.245.144.07.148.07.273.02a.781.781 0 0 0 .362-.37c.056-.129.017-.313-.09-.428-.197-.208-.447-.589-.447-.68 0-.126.22-.429.379-.521.152-.09.2-.153.273-.367.085-.248.147-.35.26-.43.118-.083.125-.123.054-.303-.12-.308-.031-.492.31-.638.237-.1.277-.175.153-.279-.099-.082-.081-.192.044-.284a.476.476 0 0 0 .176-.495 1.398 1.398 0 0 0-.097-.234c-.116-.21-.07-.325.169-.416.124-.048.247-.171.247-.248 0-.027-.063-.106-.141-.176-.153-.138-.201-.255-.145-.35.05-.087.178-.076.28.024a.423.423 0 0 0 .166.101c.12.026.381-.097.501-.237.079-.091.132-.123.23-.138a.75.75 0 0 0 .261-.114c.121-.085.134-.106.134-.223 0-.125.003-.129.116-.146a.493.493 0 0 0 .33-.188c.049-.067.048-.078-.015-.171a.39.39 0 0 1-.066-.161.924.924 0 0 0-.037-.188.576.576 0 0 1-.014-.235c.04-.196.26-.218.436-.044.107.104.113.174.03.298-.053.08-.055.098-.018.146.042.052.051.053.202.01.22-.066.348-.06.53.025a.803.803 0 0 0 .283.073c.183.001.28.055.305.171.047.213.179.22.314.02.084-.125.166-.148.335-.093.109.035.14.036.206 0 .113-.057.201-.05.426.032.117.043.224.065.259.054.033-.01.152-.11.266-.219.178-.173.221-.2.317-.2.14 0 .3.088.362.198a.62.62 0 0 0 .156.16c.079.057.114.108.128.19a.72.72 0 0 0 .13.254.555.555 0 0 1 .13.328c.02.166.032.191.112.23a.344.344 0 0 0 .386-.04 4.83 4.83 0 0 1 .224-.163.708.708 0 0 0 .207-.247c.078-.152.096-.167.212-.185.143-.022.308.034.38.128.07.093.027.388-.085.571-.079.13-.09.173-.072.273.023.123.052.158.25.297a.712.712 0 0 1 .178.196c.084.152.32.285.426.24.056-.024.077-.06.09-.167.009-.075.033-.152.054-.17.046-.042.449-.035.54.01.045.022.064.06.064.13 0 .053.024.148.052.21.038.081.05.189.047.383-.006.307.003.331.232.577.239.257.314.357.46.608.178.308.25.494.276.704a.588.588 0 0 0 .11.298c.219.293.238.48.149 1.43-.034.367-.042.595-.024.671.019.075.013.26-.017.532-.047.437-.093.59-.317 1.053-.089.185-.12.29-.127.438-.051.996-.278 1.437-.74 1.437-.095 0-.187.037-.405.165-.445.26-.521.294-.782.355-.313.073-.439.141-.51.275-.07.131-.054.165.152.31.217.151.228.175.164.356-.097.277-.212.296-.513.086-.125-.087-.242-.146-.291-.146-.045 0-.19.051-.324.114-.415.196-.517.212-.748.118-.167-.068-.185-.063-.413.122-.09.073-.112.112-.112.199 0 .13-.046.178-.171.178a.283.283 0 0 0-.156.05.313.313 0 0 1-.175.052c-.108 0-.116.01-.155.131-.044.143-.167.263-.267.263a.758.758 0 0 0-.214.071c-.325.152-.559.136-.88-.059-.287-.173-.324-.206-.41-.362-.101-.183-.17-.231-.398-.28a3.628 3.628 0 0 1-.404-.119c-.183-.067-.234-.074-.449-.057a9.55 9.55 0 0 1-.273.018c-.017 0-.144 0-.28-.01-.222-.01-.257-.015-.318-.08-.085-.09-.29-.204-.37-.204-.073 0-.218.13-.3.272-.056.094-.058.121-.024.239.058.2.05.243-.065.308-.088.05-.136.056-.325.041-.194-.015-.24-.01-.358.05a1.906 1.906 0 0 0-.328.243c-.179.162-.191.182-.175.278.039.221-.058.296-.226.175-.1-.072-.147-.072-.318 0-.166.068-.171.11-.016.131.066.01.187.037.27.062.137.042.16.042.292 0 .14-.049.145-.049.294.02.18.081.225.18.17.369-.046.156-.109.186-.462.215-.7.058-.758.06-.864.01zm8.31-2.747a.745.745 0 0 0 .132-.172c.07-.127.07-.111.06-1.213-.008-.682.01-.765.211-.982.096-.103.18-.153.385-.23.451-.17.705-.337.8-.525.075-.151.074-.27-.004-.474-.08-.21-.128-.259-.216-.215-.086.042-.155.015-.178-.071-.017-.061-.037-.07-.174-.068-.132 0-.16.01-.19.07-.045.093-.124.09-.164-.01-.027-.065-.045-.073-.126-.058-.077.014-.094.01-.094-.036 0-.03.03-.09.067-.133.067-.078.067-.079.003-.094a.45.45 0 0 1-.159-.137c-.09-.115-.095-.138-.103-.442-.014-.552-.007-.615.075-.706.06-.066.08-.131.095-.317.01-.128.035-.377.053-.552.037-.345.007-.566-.096-.733-.067-.107-.127-.538-.115-.827.008-.187 0-.22-.056-.256-.057-.037-.072-.034-.146.032-.1.088-.114.09-.136.014-.01-.035-.043-.058-.083-.058-.096 0-.082-.06.033-.148.083-.063.094-.085.066-.133-.068-.116.073-.169.327-.124.042.01.06 0 .053-.03a.264.264 0 0 1 .028-.124c.046-.101-.002-.17-.116-.17-.083 0-.14-.077-.14-.189a.136.136 0 0 0-.063-.11c-.077-.045-.08-.079-.014-.124.046-.03.044-.045-.02-.143-.08-.126-.208-.196-.41-.226l-.366-.054a19.159 19.159 0 0 1-.476-.08c-.492-.09-.792-.105-1.042-.053-.512.104-.875.295-.99.52a2.702 2.702 0 0 1-.322.492 1.07 1.07 0 0 0-.167.277c-.033.11-.077.18-.326.513a8.05 8.05 0 0 1-.579.6c-.371.357-.484.486-.576.657a2.291 2.291 0 0 0-.14.3 2.357 2.357 0 0 1-.09.234c-.036.08-.098.228-.139.33-.063.16-.11.214-.374.44-.368.314-.51.535-.446.696.034.088.028.112-.073.284-.107.183-.108.19-.05.237.057.048.056.052-.018.153-.053.072-.07.127-.058.184.013.062.002.088-.05.113-.037.018-.067.051-.067.073s-.035.064-.077.094c-.074.051-.076.061-.043.192.03.118.028.146-.016.191-.032.033-.056.12-.063.227-.01.167-.007.177.086.233a.349.349 0 0 1 .131.154c.065.185.168.244.495.287.163.02.37.039.46.039.089 0 .21.02.27.042.058.023.27.056.469.074.199.018.376.04.392.05.077.044.292.072.642.083.478.015.778.033.993.06.15.018.177.013.248-.05.08-.067.082-.068.126-.012a.233.233 0 0 1 .045.123c0 .04.043.097.112.147.155.113.238.252.237.398 0 .067.003.22.008.341.007.2.014.22.078.228.085.011.122.136.074.253-.037.09.002.162.087.162.048 0 .047.033-.012.27-.028.115.077.11.124-.01.045-.109.15-.121.15-.018 0 .134.143.118.2-.023.03-.07.133.072.133.18 0 .092.01.108.063.1.165-.02.61 0 .643.037.013.012.163.016.333.01.246-.011.324-.025.377-.07zm-3.53-4.247c-.19-.029-.408-.12-.487-.201-.055-.058-.057-.076-.021-.187.022-.068.05-.178.064-.245a.732.732 0 0 1 .105-.235c.12-.166.247-.407.248-.467 0-.148.257-.432.57-.63l.197-.126c.08-.05.132-.067.165-.05.092.047.324.352.366.48.044.138.088.249.186.479.034.08.071.18.081.22.02.074.219.203.314.203.065 0 .148.092.183.202.032.103-.002.212-.12.388-.12.175-.248.2-1.036.196a9.78 9.78 0 0 1-.816-.026zm3.876-4.129c0-.022-.036-.062-.08-.088-.074-.045-.079-.045-.079.01 0 .062.058.123.117.123a.04.04 0 0 0 .042-.04zm-2.23 10.402c-.038-.097.141-.262.23-.212.052.03.037.148-.026.2-.069.057-.185.064-.205.012zm1.706-.204a.75.75 0 0 1-.117-.092c-.031-.042.021-.116.115-.163.072-.035.097-.034.193.01.127.056.13.068.057.21-.061.118-.115.126-.248.037zm-1.311-.134c-.075-.053-.103-.194-.054-.267.028-.043.257-.018.326.035.083.063-.034.286-.148.285a.283.283 0 0 1-.124-.053z"/>
        <path d="M26.17 1028.448h2.304v.952h-3.472v-.923l.586-.622q1.043-1.11 1.267-1.366.275-.315.395-.557.121-.245.121-.483 0-.367-.223-.564-.22-.202-.626-.202-.29 0-.652.118-.36.113-.751.333v-1.007q.392-.143.765-.216.378-.077.722-.077.868 0 1.362.406.498.403.498 1.102 0 .323-.11.605-.106.282-.37.626-.194.249-1.065 1.12-.473.473-.751.755z" fill="#fff"/>
        <path fill="#fff" opacity=".2" d="M15.892 1022.4h-.002a13.969 13.969 0 0 0-13.891 13.998c0 .17.02.334.025.502.262-7.485 6.329-13.443 13.865-13.5h11.308a2.795 2.795 0 0 1 2.801 2.8v-1c0-1.55-1.25-2.8-2.8-2.8H15.89z"/>
        <path opacity=".2" d="M2.025 1036.9c-.006.167-.025.33-.025.498 0 7.756 6.244 14 14 14a13.968 13.968 0 0 0 13.975-13.168l.025-.023v-1l-.025.023A13.967 13.967 0 0 1 16 1050.398 13.957 13.957 0 0 1 2.025 1036.9z"/>
    </g>
</svg>
