<svg xmlns="http://www.w3.org/2000/svg" width="32" height="32"><g transform="translate(0 -1020.362)"><circle style="opacity:.2" cx="16" cy="1037.362" r="14"/><circle style="fill:#d2a35c" cx="16" cy="1036.362" r="14"/><path style="opacity:.2" d="M23.262 1026.864c-.84 0-1.644.22-2.416.664-.755.427-1.47 1.049-2.14 1.867-.655.802-1.251 1.79-1.788 2.967-.537 1.16-.997 2.473-1.383 3.94a26.51 26.51 0 0 1-.806 2.634c-.269.717-.545 1.312-.83 1.79-.621-.24-1.234-.959-1.838-1.112a6.465 6.465 0 0 0-1.813-.256c-.487 0-.931.077-1.334.23-.386.154-.72.341-1.006.563a2.999 2.999 0 0 0-.68.715c-.15.258-.228 1.023-.228 1.244 0 .358.168.656.504.895.336.239.84.357 1.512.357 1.778 0 3.28-.468 4.505-1.406.772.341 1.56.664 2.366.97.822.29 1.728.436 2.718.436 1.125 0 2.023-.237 2.694-.715.671-.494 1.056-1.126 1.459-2.046.017-.103-.005-.172-.072-.206-.05-.05-.111-.05-.178 0-.285.58-.496.947-.932 1.254-.436.307-1.075.461-1.914.461-1.007 0-1.928-.112-2.767-.334a29.78 29.78 0 0 1-2.368-.793c1.04-1.244 1.856-3.01 2.8b9cbe-5.295.352-1.432.695-2.625 1.03-3.58.337-.955.697-1.712 1.083-2.275.386-.58.807-.907 1.26-1.129.47-.239 1.022-.355 1.66-.355.47 0 .854.086 1.156.255.319.154.554.358.705.614.151.256.237.462.254.77.017.306-.026.911-.127 1.218-.017.086.007.146.074.18a.216.216 0 0 0 .229-.025c.168-.29.325-.957.476-1.4.152-.462.229-.865.229-1.206 0-.529-.162-.97-.48-1.328-.32-.376-.738-.563-1.258-.563zm-14.121 13.34c.721 0 1.401.1 2.039.305.637.204 1.267.971 1.888 1.244-.386.375-.824.629-1.31.765-.47.12-1.005.18-1.61.18-.688 0-1.227-.11-1.613-.332-.369-.222-.553-1.028-.553-1.369 0-.529.387-.793 1.159-.793zm2.359 4.158a1.5 1.5 0 0 0-1.5 1.5 1.5 1.5 0 0 0 1.5 1.5 1.5 1.5 0 0 0 1.5-1.5 1.5 1.5 0 0 0-1.5-1.5zm8 0a1.5 1.5 0 0 0-1.5 1.5 1.5 1.5 0 0 0 1.5 1.5 1.5 1.5 0 0 0 1.5-1.5 1.5 1.5 0 0 0-1.5-1.5zm-4 2a1.5 1.5 0 0 0-1.5 1.5 1.5 1.5 0 0 0 1.5 1.5 1.5 1.5 0 0 0 1.5-1.5 1.5 1.5 0 0 0-1.5-1.5z"/><path style="fill:#f4f4f7" d="M23.262 1025.864c-.84 0-1.644.22-2.416.664-.755.427-1.47 1.049-2.14 1.867-.655.802-1.251 1.79-1.788 2.967-.537 1.16-.997 2.473-1.383 3.94a26.51 26.51 0 0 1-.806 2.634c-.269.717-.545 1.312-.83 1.79-.621-.24-1.234-.959-1.838-1.112a6.465 6.465 0 0 0-1.813-.256c-.487 0-.931.077-1.334.23-.386.154-.72.341-1.006.563a2.999 2.999 0 0 0-.68.715c-.15.258-.228 1.023-.228 1.244 0 .358.168.656.504.895.336.239.84.357 1.512.357 1.778 0 3.28-.468 4.505-1.406.772.341 1.56.664 2.366.97.822.29 1.728.436 2.718.436 1.125 0 2.023-.237 2.694-.715.671-.494 1.056-1.126 1.459-2.046.017-.103-.005-.172-.072-.206-.05-.05-.111-.05-.178 0-.285.58-.496.947-.932 1.254-.436.307-1.075.461-1.914.461-1.007 0-1.928-.112-2.767-.334a29.78 29.78 0 0 1-2.368-.793c1.04-1.244 1.856-3.01 2.8b9cbe-5.295.352-1.432.695-2.625 1.03-3.58.337-.955.697-1.712 1.083-2.275.386-.58.807-.907 1.26-1.129.47-.239 1.022-.355 1.66-.355.47 0 .854.086 1.156.255.319.154.554.358.705.614.151.256.237.462.254.77.017.306-.026.911-.127 1.218-.017.086.007.146.074.18a.216.216 0 0 0 .229-.025c.168-.29.325-.957.476-1.4.152-.462.229-.865.229-1.206 0-.529-.162-.97-.48-1.328-.32-.376-.738-.563-1.258-.563zm-14.121 13.34c.721 0 1.401.1 2.039.305.637.204 1.267.971 1.888 1.244-.386.375-.824.629-1.31.765-.47.12-1.005.18-1.61.18-.688 0-1.227-.11-1.613-.332-.369-.222-.553-1.028-.553-1.369 0-.529.387-.793 1.159-.793zm2.359 4.158a1.5 1.5 0 0 0-1.5 1.5 1.5 1.5 0 0 0 1.5 1.5 1.5 1.5 0 0 0 1.5-1.5 1.5 1.5 0 0 0-1.5-1.5zm8 0a1.5 1.5 0 0 0-1.5 1.5 1.5 1.5 0 0 0 1.5 1.5 1.5 1.5 0 0 0 1.5-1.5 1.5 1.5 0 0 0-1.5-1.5zm-4 2a1.5 1.5 0 0 0-1.5 1.5 1.5 1.5 0 0 0 1.5 1.5 1.5 1.5 0 0 0 1.5-1.5 1.5 1.5 0 0 0-1.5-1.5z"/><path style="opacity:.2;fill:#f4f4f7" transform="translate(0 1020.362)" d="M16 2A14 14 0 0 0 2 16a14 14 0 0 0 .021.586A14 14 0 0 1 16 3a14 14 0 0 1 13.979 13.414A14 14 0 0 0 30 16 14 14 0 0 0 16 2z"/></g></svg>