<svg xmlns="http://www.w3.org/2000/svg" width="32" height="32" version="1"><path fill="#ff5722" d="M27 28.5v-25c0-.831-.669-1.5-1.5-1.5h-19C5.669 2 5 2.669 5 3.5v25c0 .831.669 1.5 1.5 1.5h19c.831 0 1.5-.669 1.5-1.5z"/><path opacity=".1" d="M7 5v24h18V13.414L16.586 5H7zm12.414 0L25 10.586V5h-5.586z"/><path fill="#f5f5f5" d="M7 4v24h18V12.414L16.586 4H7zm12.414 0L25 9.586V4h-5.586z"/><path fill="#fff" opacity=".1" d="M6.5 2C5.669 2 5 2.669 5 3.5v1C5 3.669 5.669 3 6.5 3h19c.831 0 1.5.669 1.5 1.5v-1c0-.831-.669-1.5-1.5-1.5z"/><path opacity=".2" d="M5 28.5v1c0 .831.669 1.5 1.5 1.5h19c.831 0 1.5-.669 1.5-1.5v-1c0 .831-.669 1.5-1.5 1.5h-19c-.831 0-1.5-.669-1.5-1.5z"/><path style="opacity:.5" d="M12 16a2 2 0 1 0 2 2h-2zm4 0v1h6v-1zm0 3v1h6v-1zm-6 3v1h10v-1z"/></svg>