<svg height="32" width="32" xmlns="http://www.w3.org/2000/svg">
    <path d="M27 28.5v-25c0-.831-.669-1.5-1.5-1.5h-19C5.669 2 5 2.669 5 3.5v25c0 .831.669 1.5 1.5 1.5h19c.831 0 1.5-.669 1.5-1.5z" fill="#3e50b4"/>
    <path d="M7 5v24h18V13.414L16.586 5zm12.414 0L25 10.586V5z" opacity=".1"/>
    <path d="M7 4v24h18V12.414L16.586 4zm12.414 0L25 9.586V4z" fill="#f5f5f5"/>
    <path d="M6.5 2C5.669 2 5 2.669 5 3.5v1C5 3.669 5.669 3 6.5 3h19c.831 0 1.5.669 1.5 1.5v-1c0-.831-.669-1.5-1.5-1.5z" fill="#fff" opacity=".1"/>
    <path d="M10 24.022v-1h8v1zm0-3v-1h12v1zm0-3v-1h12v1zm0-3v-1h12v1z" opacity=".5"/>
    <path d="M5 28.5v1c0 .831.669 1.5 1.5 1.5h19c.831 0 1.5-.669 1.5-1.5v-1c0 .831-.669 1.5-1.5 1.5h-19c-.831 0-1.5-.669-1.5-1.5z" opacity=".2"/>
</svg>
