<svg xmlns="http://www.w3.org/2000/svg" width="32" height="32" version="1"><rect style="opacity:.2" width="25" height="28" x="-28" y="3" rx="1.389" ry="1.4" transform="scale(-1 1)"/><rect style="fill:#f4f4f7" width="25" height="28" x="-28" y="2" rx="1.389" ry="1.4" transform="scale(-1 1)"/><rect style="fill:#65424f" width="19" height="19" x="-25" y="5" rx="0" ry="0" transform="scale(-1 1)"/><path style="opacity:.2;fill-rule:evenodd" d="M11 8v15h1V8h-1zm5.459.002c-1.36.093-2.455 1.528-2.459 3.55v.003c-.012 1.788 1.12 2.852 1.977 4.026l.01.011.01.012c.813.989 1.627 1.744 2.173 2.521.54.77.838 1.534.73 2.696-.175.797-.647 1.033-1.181 1.152-.54.12-1.059.035-1.059.035L16.617 22h-.045c-.56 0-.902-.183-1.158-.51-.256-.326-.414-.838-.414-1.49h-1c0 .812.19 1.55.627 2.108.429.547 1.11.87 1.902.883.04.007.664.125 1.408-.041.769-.172 1.7-.739 1.952-1.944l.006-.027.003-.026c.14-1.412-.276-2.499-.91-3.402-.633-.902-1.457-1.656-2.218-2.58l-.002-.002c-.917-1.252-1.779-2.056-1.768-3.41v-.004c.002-1.67.87-2.512 1.527-2.557.388-.026.707.053.963.31.256.259.49.759.51 1.704l1-.023c-.024-1.104-.306-1.888-.799-2.385-.493-.497-1.156-.642-1.742-.602z"/><path style="fill:none;stroke:#f4f4f7" d="M18.5 10c-.044-2.05-1.033-2.567-2.006-2.5-1.01.07-1.992 1.208-1.994 3.055-.012 1.577.99 2.51 1.881 3.731 1.576 1.914 3.277 3.02 3.02 5.617-.423 2.025-2.828 1.597-2.828 1.597-1.374 0-2.073-1.037-2.073-2.5"/><path style="fill:#f4f4f7" d="M11 7h1v15h-1z"/><path style="fill:#f4f4f7;opacity:.2" d="M4.389 2C3.619 2 3 2.625 3 3.4v1C3 3.625 3.62 3 4.389 3H26.61C27.381 3 28 3.625 28 4.4v-1c0-.775-.62-1.4-1.389-1.4H4.39z"/></svg>