<svg height="32" width="32" xmlns="http://www.w3.org/2000/svg"><path d="m16 3c-6.075 0-11 4.925-11 11v4.125h3v-4.125" opacity=".2"/><path d="m8.268 13a.71.806 0 0 0 -.182.036l-5.578 1.896a.71.806 0 0 0 -.508.772v7.591a.71.806 0 0 0 .508.772l5.578 1.9a.71.806 0 0 0 .914-.771v-11.39a.71.806 0 0 0 -.732-.806zm15.462 0a.71.806 0 0 0 -.73.805v11.39a.71.806 0 0 0 .914.772l5.578-1.9a.71.806 0 0 0 .508-.772v-7.591a.71.806 0 0 0 -.508-.772l-5.578-1.896a.71.806 0 0 0 -.184-.036z" opacity=".2"/><path d="m16 2c-6.075 0-11 4.925-11 11v4.125h3v-4.125" fill="#0d55cf"/><path d="m16 2c-6.075 0-11 4.925-11 11v1c0-6.075 4.925-11 11-11s11 4.925 11 11v-1c0-6.075-4.925-11-11-11z" fill="#f4f4f7" opacity=".1"/><path d="m8.268 12a.71.806 0 0 0 -.182.035l-5.578 1.897a.71.806 0 0 0 -.508.771v7.592a.71.806 0 0 0 .508.771l5.578 1.9a.71.806 0 0 0 .914-.77v-11.392a.71.806 0 0 0 -.732-.804zm15.462 0a.71.806 0 0 0 -.73.805v11.39a.71.806 0 0 0 .914.772l5.578-1.9a.71.806 0 0 0 .508-.772v-7.592a.71.806 0 0 0 -.508-.771l-5.578-1.897a.71.806 0 0 0 -.184-.035z" fill="#1697fe"/><path d="m18 7-4.276 16.475-2.844-7.903-3.98 5.968-.027.106 3.047-2.538 4.08 10.892 4.276-15.997 2.724 7.997 3.56-4.862-2.405 1.442z" opacity=".2"/><path d="m18 6-4.276 16.474-2.844-7.902-3.98 5.966-.027.107 3.047-2.539 4.08 10.894 4.276-15.998 2.724 7.998 3.56-4.863-2.405 1.443z" fill="#ef5350"/><g fill="#f4f4f7"><path d="m8.268 12a.71.806 0 0 0 -.182.035l-5.578 1.897a.71.806 0 0 0 -.508.771v1a.71.806 0 0 1 .508-.771l5.578-1.897a.71.806 0 0 1 .182-.035.71.806 0 0 1 .732.805v-1a.71.806 0 0 0 -.732-.805zm15.462 0a.71.806 0 0 0 -.73.805v1a.71.806 0 0 1 .73-.805.71.806 0 0 1 .184.035l5.578 1.897a.71.806 0 0 1 .508.771v-1a.71.806 0 0 0 -.508-.771l-5.578-1.897a.71.806 0 0 0 -.184-.035z" opacity=".2"/><path d="m18 6-4.275 16.475-2.844-7.903-3.981 5.968-.028.106 1.406-1.172 2.602-3.9 2.844 7.902 4.276-16.476 4.154 11.58.971-.582 1.436-1.861-2.407 1.443z" opacity=".2"/></g></svg>