<svg height="32" width="32" xmlns="http://www.w3.org/2000/svg"><path d="m14.6 24 5.6-2.8 2.8-5.6-2.52-2.52-2.52.84-8.4-10.92-5.04 2.52-2.52 5.04 10.92 8.4-.84 2.52z" opacity=".2"/><path d="m14.6 23 5.6-2.8 2.8-5.6-2.52-2.52-2.52.84-8.4-10.92-5.04 2.52-2.52 5.04 10.92 8.4-.84 2.52z" fill="#cf1f1a"/><path d="m23 14.6-5.6 2.8-2.8 5.6 5.6-2.8z" opacity=".2"/><path d="m9.56 2-5.04 2.52 12.88 12.88 5.6-2.8-2.52-2.52-2.52.84z" fill="#f4f4f7" opacity=".2"/><path d="m17.4 20.08 1.68-1.68 7.62 7.6h1.62l1.68 3.32-1.68 1.68-3.32-1.68v-1.62z" opacity=".2"/><path d="m17.4 19.08 1.68-1.68 7.62 7.6h1.62l1.68 3.32-1.68 1.68-3.32-1.68v-1.62z" fill="#b3b3b3"/><path d="m9.56 2-5.04 2.52-2.52 5.04.361.278 2.159-4.318 5.04-2.52 8.4 10.92 2.52-.84 2.186 2.186.334-.666-2.52-2.52-2.52.84zm3.094 16.758-.574 1.722.25.25.59-1.77zm6.426-1.358-1.68 1.68.5.5 1.18-1.18 7.62 7.6h1.62l1.344 2.656.336-.336-1.68-3.32h-1.62z" fill="#f4f4f7" opacity=".2"/></svg>