<svg height="32" width="32" xmlns="http://www.w3.org/2000/svg">
    <circle cx="16" cy="17" opacity=".2" r="14"/>
    <circle cx="16" cy="16" fill="#50b590" r="14"/>
    <rect fill="#30706b" height="8" rx="1.8" ry="1.333" width="26" x="3" y="12"/>
    <path d="M7 14a.748.748 0 0 0-.75.75v.44l-.31-.311a.748.748 0 0 0-1.061 0 .748.748 0 0 0 0 1.06l.31.311H4.75A.748.748 0 0 0 4 17c0 .415.335.75.75.75h.44l-.311.31a.748.748 0 0 0 0 1.061.748.748 0 0 0 1.06 0l.311-.31v.439c0 .416.335.75.75.75s.75-.334.75-.75v-.44l.31.311a.748.748 0 0 0 1.061 0 .748.748 0 0 0 0-1.06l-.31-.311h.439c.415 0 .75-.334.75-.75a.748.748 0 0 0-.75-.75h-.44l.311-.31a.748.748 0 0 0 0-1.061.748.748 0 0 0-1.06 0l-.311.31v-.439A.748.748 0 0 0 7 14zm7 0a.748.748 0 0 0-.75.75v.44l-.31-.311a.748.748 0 0 0-1.061 0 .748.748 0 0 0 0 1.06l.31.311h-.439A.748.748 0 0 0 11 17c0 .415.335.75.75.75h.44l-.311.31a.748.748 0 0 0 0 1.061.748.748 0 0 0 1.06 0l.311-.31v.439a.749.749 0 1 0 1.5 0v-.44l.31.311a.748.748 0 0 0 1.061 0 .748.748 0 0 0 0-1.06l-.31-.311h.439c.416 0 .75-.334.75-.75a.748.748 0 0 0-.75-.75h-.44l.311-.31a.748.748 0 0 0 0-1.061.748.748 0 0 0-1.06 0l-.311.31v-.439A.748.748 0 0 0 14 14zm7 0a.748.748 0 0 0-.75.75v.44l-.31-.311a.748.748 0 0 0-1.061 0 .748.748 0 0 0 0 1.06l.31.311h-.439A.748.748 0 0 0 18 17c0 .415.335.75.75.75h.44l-.311.31a.748.748 0 0 0 0 1.061.748.748 0 0 0 1.06 0l.311-.31v.439a.749.749 0 1 0 1.5 0v-.44l.31.311a.748.748 0 0 0 1.061 0 .748.748 0 0 0 0-1.06l-.31-.311h.439c.416 0 .75-.334.75-.75a.748.748 0 0 0-.75-.75h-.44l.311-.31a.748.748 0 0 0 0-1.061.748.748 0 0 0-1.06 0l-.311.31v-.439A.748.748 0 0 0 21 14z" opacity=".2"/>
    <g fill="#f4f4f7">
        <rect height="6" rx=".75" width="1.5" x="13.25" y="13"/>
        <rect height="6" rx=".75" transform="rotate(90)" width="1.5" x="15.25" y="-17"/>
        <rect height="6" rx=".75" transform="rotate(-45)" width="1.5" x="-2.16" y="18.21"/>
        <rect height="6" rx=".75" transform="rotate(45)" width="1.5" x="20.46" y="-1.59"/>
        <path d="M16 2A14 14 0 0 0 2 16a14 14 0 0 0 .021.586A14 14 0 0 1 16 3a14 14 0 0 1 13.979 13.414A14 14 0 0 0 30 16 14 14 0 0 0 16 2z" opacity=".2"/>
        <rect height="6" rx=".75" width="1.5" x="6.25" y="13"/>
        <rect height="6" rx=".75" transform="rotate(90)" width="1.5" x="15.25" y="-10"/>
        <rect height="6" rx=".75" transform="rotate(-45)" width="1.5" x="-7.11" y="13.26"/>
        <rect height="6" rx=".75" transform="rotate(45)" width="1.5" x="15.51" y="3.36"/>
        <rect height="6" rx=".75" width="1.5" x="20.25" y="13"/>
        <rect height="6" rx=".75" transform="rotate(90)" width="1.5" x="15.25" y="-24"/>
        <rect height="6" rx=".75" transform="rotate(-45)" width="1.5" x="2.79" y="23.16"/>
        <rect height="6" rx=".75" transform="rotate(45)" width="1.5" x="25.41" y="-6.54"/>
    </g>
    <path d="M4.445 12C3.645 12 3 12.595 3 13.334v1C3 13.595 3.645 13 4.445 13h23.11c.8 0 1.445.595 1.445 1.334v-1c0-.739-.645-1.334-1.445-1.334z" opacity=".1"/>
    <path d="M4.445 21C3.645 21 3 20.405 3 19.666v-1C3 19.405 3.645 20 4.445 20h23.11c.8 0 1.445-.595 1.445-1.334v1c0 .739-.645 1.334-1.445 1.334z" fill="#f4f4f7" opacity=".1"/>
</svg>
