<svg height="32" width="32" xmlns="http://www.w3.org/2000/svg"><rect height="28" opacity=".2" rx="14" width="28" x="2" y="3"/><path d="m16 2c4.111 0 6.808 3.048 9.365 5.852 1.74 1.909 3.947 3.011 4.418 5.671.103.581.17 1.174.2 1.778.011.232-2.037 2.823-2.037 3.058 0 2.516 1.397 2.514.245 4.55a13.967 13.967 0 0 1 -12.191 7.091c-7.756 0-14-6.244-14-14a13.967 13.967 0 0 1 14-14z" fill="#1b4c7d"/><path d="m16 3c-.394 0-.782.02-1.168.052-.348.047-.642.082-.88.098-.3.044-.593.098-.886.16-.45.217-1.079.603-1.079.71 0 .027-.039.15-.086.273-.116.304.183.29 1.192-.06 1.004-.347 3.356-.462 4.124-.202.28.095.585.318.677.496.125.243.424.39 1.204.59.57.146 1.102.348 1.18.448s.328.272.556.383c.374.18 1.068 1.234 1.065 1.617 0 .078-.27.27-.598.425-.716.34-.804.669-.394 1.473.16.314.292.758.292.987 0 .228.123.565.274.749.23.281.319.308.548.168.22-.133.319-.12.505.066.167.167.273.187.385.075.194-.194-.173-.958-.582-1.214-.27-.168-.39-.539-.173-.525" opacity=".2"/><path d="m16 2c-.394 0-.782.02-1.168.052-.348.047-.642.082-.88.098-.3.044-.593.098-.886.16-.45.217-1.079.603-1.079.71 0 .027-.039.15-.086.273-.116.304.183.29 1.192-.06 1.004-.347 3.356-.462 4.124-.202.28.095.585.318.677.496.125.243.424.39 1.204.59.57.146 1.102.348 1.18.448s.328.272.556.383c.374.18 1.068 1.234 1.065 1.617 0 .078-.27.27-.598.425-.716.34-.804.669-.394 1.473.16.314.292.758.292.987 0 .228.123.565.274.749.23.281.319.308.548.168.22-.133.319-.12.505.066.167.167.273.187.385.075.194-.194-.173-.958-.582-1.214-.27-.168-.39-.539-.173-.525" fill="#18bd5c"/><path d="m13.225 6.932a10.5 10.5 0 0 0 -6.225 9.568 10.5 10.5 0 0 0 10.5 10.5 10.5 10.5 0 0 0 7.04-2.727 10.5 10.5 0 0 1 -1.616.43 10.5 10.5 0 0 1 -2.424.297 10.5 10.5 0 0 1 -10.5-10.5 10.5 10.5 0 0 1 3.225-7.568z" opacity=".2"/><g fill="#f4f4f7"><path d="m13.225 5.932a10.5 10.5 0 0 0 -6.225 9.568 10.5 10.5 0 0 0 10.5 10.5 10.5 10.5 0 0 0 7.04-2.727 10.5 10.5 0 0 1 -1.616.43 10.5 10.5 0 0 1 -2.424.297 10.5 10.5 0 0 1 -10.5-10.5 10.5 10.5 0 0 1 3.225-7.568z"/><path d="m16 2c-7.756 0-14 6.244-14 14 0 .169.02.333.025.5.265-7.52 6.388-13.5 13.975-13.5" opacity=".1"/></g></svg>