<svg height="32" width="32" xmlns="http://www.w3.org/2000/svg">
    <path d="M2 28v1h2v-1zm26 0v1h2v-1zM4 30v1h24v-1H6z" opacity=".2"/>
    <path d="M4 4h24v24H4z" fill="#f4f4f7"/>
    <path d="M6 2v2h20V2zm20 2v2h2V4zm2 2v20h2V6zm0 20h-2v2h2zm-2 2H6v2h20zM6 28v-2H4v2zm-2-2V6H2v20zM4 6h2V4H4zm6 4v8h2v-8zm10 0v8h2v-8z" fill="#5c3e52"/>
    <path d="M4 22v4h2v2h20v-2h2v-4h-2v2H6v-2z" fill="#6d8292"/>
    <path d="M2 6h2v1H2zm2-2h2v1H4zm22 0h2v1h-2zm2 2h2v1h-2zM4 21.99h2v1H4zM4 26h2v1H4zm22-4.01h2v1h-2zM26 26h2v1h-2zM6 24h20v1H6zm0 4h20v1H6z" opacity=".2"/>
    <path d="M10 19v-1h2v1zm10 0v-1h2v1z" opacity=".1"/>
    <path d="M4 2v2h2V2zm0 2H2v2h2zm22-2v2h2V2zm2 2v2h2V4zM2 26v2h2v-2zm2 2v2h2v-2zm24-2v2h2v-2zm0 2h-2v2h2z" fill="#825873"/>
    <path d="M4 2v1h24V2H6zM2 4v1h2V4zm26 0v1h2V4zM2 26v1h2v-1zm26 0v1h2v-1zM4 28v1h2v-1zm22 0v1h2v-1z" fill="#f4f4f7" opacity=".1"/>
</svg>
