<svg height="32" width="32" xmlns="http://www.w3.org/2000/svg">
    <rect height="28" opacity=".2" rx="1.4" width="28" x="2" y="3"/>
    <rect fill="#407494" height="28" rx="1.4" width="28" x="2" y="2"/>
    <path d="M10 8v2H8v11h2v2h3v2h-3v1h12v-1h-3v-2h3v-2h2V10h-2V8z" opacity=".2"/>
    <path d="M10 7v2H8v11h2v2h3v2h-3v1h12v-1h-3v-2h3v-2h2V9h-2V7z" fill="#91c2d0"/>
    <path d="M10 11v4h4v-4zm7 0v4h4v-4zm-7 7v2h2v1h6v-1h2v-2z" opacity=".2"/>
    <path d="M10 10v4h4v-4zm7 0v4h4v-4zm-7 7v2h2v1h6v-1h2v-2z" fill="#404040"/>
    <path d="M3.4 2C2.625 2 2 2.625 2 3.4v1C2 3.625 2.625 3 3.4 3h25.2c.775 0 1.4.625 1.4 1.4v-1c0-.775-.625-1.4-1.4-1.4zM10 7v1h12V7zM8 9v1h2V9zm14 0v1h2V9zM10 24v1h3v-1zm9 0v1h3v-1z" fill="#f4f4f7" opacity=".1"/>
</svg>
