<svg height="32" width="32" xmlns="http://www.w3.org/2000/svg"><path d="m2 20s-1-17 15-17c13 0 13 20 13 20s0 8-16 8c-12 0-12-11-12-11z" opacity=".2"/><path d="m2 19s-1-17 15-17c13 0 13 20 13 20s0 8-16 8c-12 0-12-11-12-11z" fill="#e04970"/><path d="m7 12a2 3 0 0 0 -2 3 2 3 0 0 0 2 3 2 3 0 0 0 2-3 2 3 0 0 0 -2-3zm18 2a2 3 0 0 0 -2 3 2 3 0 0 0 2 3 2 3 0 0 0 2-3 2 3 0 0 0 -2-3zm-14 4c-1 1-1 2.3-1 3 0 2.9 3.1 5 6 5s6-2.1 6-5c0-1.006.4-1.6-1-3-.822.682-2 2-5 1.8s-4.659-.528-5-1.8z" opacity=".3"/><g fill="#60010d"><path d="m11 17c-1 1-1 2.3-1 3 0 2.9 3.1 5 6 5s6-2.1 6-5c0-1.006.4-1.6-1-3-.822.682-2 2-5 1.8s-4.659-.528-5-1.8z"/><ellipse cx="7" cy="14" rx="2" ry="3"/><ellipse cx="25" cy="16" rx="2" ry="3"/></g><ellipse cx="16.5" cy="23" fill="#d52f45" rx="2.5" ry="1"/><circle cx="7" cy="13" fill="#f4f4f7" r="1"/><circle cx="25" cy="15" fill="#f4f4f7" r="1"/><path d="m17 2c-15.791 0-15.025 16.492-15.002 16.924.091-3.697 1.415-15.924 15.002-15.924 11.574 0 12.84 15.77 12.979 19.246.011-.116.021-.246.021-.246s0-20-13-20z" fill="#f4f4f7" opacity=".2"/></svg>