<svg height="32" width="32" xmlns="http://www.w3.org/2000/svg"><path d="m8 24s-2 0-2-3.5 2-3.5 2-3.5h16s2 0 2 3.5-2 3.5-2 3.5z" opacity=".2"/><path d="m16 3c8 0 8 4 8 4v21l-8 3-8-3v-21s0-4 8-4z" opacity=".2"/><path d="m8 23s-2 0-2-3.5 2-3.5 2-3.5h16s2 0 2 3.5-2 3.5-2 3.5z" fill="#d01818"/><path d="m8 16s-2 0-2 3.5c0 .19.026.33.037.5.194-2.963 1.963-3 1.963-3h16s1.77.037 1.963 3c.01-.17.037-.31.037-.5 0-3.5-2-3.5-2-3.5z" fill="#f4f4f7" opacity=".1"/><path d="m16 2c8 0 8 4 8 4v21l-8 3-8-3v-21s0-4 8-4z" fill="#f15555"/><path d="m12.666 6.5v10.5h-4.666v7h5v5.875l3 1.125 3-1.125v-5.875h5v-7h-4.666v-10.5l-3.334 3.5z" opacity=".2"/><path d="m12.666 5.5v10.5h-4.666v7h5v5.875l3 1.125 3-1.125v-5.875h5v-7h-4.666v-10.5l-3.334 3.5z" fill="#f4f4f7"/><path d="m10.178 18.178a2 2 0 0 0 -1.178 1.822 2 2 0 0 0 2 2 2 2 0 0 0 1.82-1.18zm11.642.002-2.642 2.642a2 2 0 0 0 1.822 1.178 2 2 0 0 0 2-2 2 2 0 0 0 -1.18-1.82z" fill="#17191e"/><path d="m16 2c-8 0-8 4-8 4v1s0-4 8-4 8 4 8 4v-1s0-4-8-4z" fill="#f4f4f7" opacity=".2"/></svg>