<svg height="32" width="32" xmlns="http://www.w3.org/2000/svg">
    <path d="M2.494 3.096a.5.5 0 0 0-.348.86l2.399 2.388A3.084 3.084 0 0 0 4 8.1v17.8c0 .29.051.565.125.83l-1.672 1.672a1.513 1.513 0 1 0 2.14 2.139l1.669-1.668c.268.075.545.127.838.127h17.8c.292 0 .567-.052.834-.127l1.668 1.668a1.513 1.513 0 1 0 2.139-2.139l-1.668-1.668A3.08 3.08 0 0 0 28 25.9V8.1c0-.655-.203-1.259-.547-1.758l2.395-2.387a.5.5 0 0 0-.362-.86.5.5 0 0 0-.343.151l-2.39 2.379A3.074 3.074 0 0 0 24.9 5H7.1c-.701 0-1.338.238-1.856.627l-2.39-2.38a.5.5 0 0 0-.36-.151z" opacity=".2"/>
    <rect fill="#236782" height="24" rx="0" ry="3.1" width="24" x="4" y="4"/>
    <path d="M7.1 4A3.093 3.093 0 0 0 4 7.1v1C4 6.382 5.382 5 7.1 5h17.8C26.618 5 28 6.382 28 8.1v-1C28 5.382 26.618 4 24.9 4z" fill="#f4f4f7" opacity=".1"/>
    <path d="M7 8v3l9 4 9-4V8z" opacity=".2"/>
    <path d="M7 7v3l9 4 9-4V7z" fill="#f4f4f7"/>
    <g fill="none" stroke-linecap="round" stroke-linejoin="round">
        <path d="M28.593 28.6 2.5 2.6" stroke="#2d96d8"/>
        <path d="m28.472 28.472-4.944-4.944" stroke="#4f4f4f" stroke-width="3.026"/>
        <path d="m27.37 27.406-2.8-2.8" stroke="#2d96d8"/>
    </g>
    <path d="M27.266 5.115 15.998 16.344 4.732 5.117a3.063 3.063 0 0 0-.525.89l11.082 11.044-6.13 6.11A1.513 1.513 0 0 0 8.437 23a1.513 1.513 0 0 0-1.042.459L4.42 26.436A3.08 3.08 0 0 0 7.1 28h.035l2.402-2.402a1.513 1.513 0 0 0 .317-1.72l6.144-6.122 6.145 6.123a1.513 1.513 0 0 0 .316 1.719L24.861 28h.04a3.08 3.08 0 0 0 2.677-1.56l-2.98-2.981A1.513 1.513 0 0 0 23.512 23a1.513 1.513 0 0 0-.672.162l-6.133-6.111L27.793 6.004a3.064 3.064 0 0 0-.527-.889z" opacity=".1"/>
    <path d="M29.486 2.096a.5.5 0 0 0-.343.15l-26.094 26a.5.5 0 1 0 .707.71l26.092-26a.5.5 0 0 0-.362-.86z" fill="#df3131"/>
    <path d="M8.438 22a1.513 1.513 0 0 0-1.042.459l-4.943 4.943a1.513 1.513 0 1 0 2.14 2.139l4.944-4.943A1.513 1.513 0 0 0 8.437 22z" fill="#4f4f4f"/>
    <path d="M7.414 24.102a.5.5 0 0 0-.344.15l-2.799 2.8a.5.5 0 1 0 .708.708l2.798-2.801a.5.5 0 0 0-.363-.857z" fill="#df3131"/>
    <path d="M2.494 2.096a.5.5 0 0 0-.348.86l26.094 26a.5.5 0 1 0 .705-.71l-26.091-26a.5.5 0 0 0-.36-.15z" fill="#2d96d8"/>
    <path d="M23.512 22a1.513 1.513 0 0 0-1.053 2.598l4.943 4.943a1.513 1.513 0 1 0 2.139-2.139l-4.943-4.943A1.513 1.513 0 0 0 23.512 22z" fill="#4f4f4f"/>
    <path d="m27.37 27.406-2.8-2.8" fill="none" stroke="#2d96d8" stroke-linecap="round" stroke-linejoin="round"/>
    <path d="M8.438 22a1.513 1.513 0 0 0-1.042.459l-4.943 4.943a1.513 1.513 0 0 0-.38 1.594 1.513 1.513 0 0 1 .38-.594l4.943-4.943A1.513 1.513 0 0 1 8.438 23a1.513 1.513 0 0 1 1.47 1.014A1.513 1.513 0 0 0 8.438 22zm15.074 0a1.513 1.513 0 0 0-1.424 2.016A1.513 1.513 0 0 1 23.512 23a1.513 1.513 0 0 1 1.086.459l4.943 4.943a1.513 1.513 0 0 1 .398.612 1.513 1.513 0 0 0-.398-1.612l-4.943-4.943A1.513 1.513 0 0 0 23.512 22z" fill="#f9f9f9" opacity=".1"/>
</svg>
