<svg xmlns="http://www.w3.org/2000/svg" width="32" height="32" version="1"><path style="opacity:.2" d="M16 4v2h-6v2H8v6H6v8h2v2h2v2h2v2h2v2h4v-2h2v-2h2v-2h2v-2h2v-8h-2V8h-2V6h-2V4z"/><path style="fill:#17191e" d="M16.333 3.333v2h-6v2h-2v6h-2v7.334h2v2h2v2h2v2h2v2h3.334v-2h2v-2h2v-2h2v-2h2v-7.334h-2v-6h-2v-2h-2v-2z"/><path style="fill:#e24242" d="M12 13v2H8v6h2v-4h2v4h8v2h2v-2h2v-6h-2v4h-2v-4h2v-2h-8zm8 10h-2v2h2zm-2 2h-4v2h4zm-4 0v-2h-2v2zm-2-2v-2h-2v2zm2-8h2v4h-2v-2z"/><path style="fill:#24a16e" d="M16 7h4v2h-4z"/><path style="fill:#481574" d="M12 9v2h2V9zm2 2v2h4v-2h-2zm4 0h2V9h-2zm2 0v2h2v-2zm-8 0h-2v2h2z"/><path style="fill:#8b9cbe" d="M16 3v2h4V3zm4 2v2h2V5zm2 2v2h-2v2h2v2h2V7zm2 6v8h2v-8zm0 8h-2v2h2zm-2 2h-2v2h2zm-2 2h-2v2h2zm-2 2h-4v2h4zm-4 0v-2h-2v2zm-2-2v-2h-2v2zm-2-2v-2H8v2zm-2-2v-8H6v8zm0-8h2v-2h2V9h-2V7H8zm2-6h4v2h2V5h-6z"/><path style="fill:#890e35" d="M20 19h2v2h-2z"/><path style="fill:#fe8b55" d="M10 13v2h2v-2zm4 2v2h2v-2zm6 0v2h2v-2zm-10 2v2h2v-2z"/><path style="fill:#890e35" d="M12 11v2h2v-2zm6 0v2h2v-2zM8 13v2h2v-2zm14 0v2h2v-2zm-8 4v2h2v-2zm6 0v2h2v-2zm-10 2v2h2v-2zm2 2v2h2v2h4v-2h2v-2h-6z"/><path style="fill:#7cd042" d="M16 5v2h4V5h-2zm4 2v2h2V7zM10 7v2h4V7h-2zm4 2v2h4V9h-2z"/><path style="opacity:.1;fill:#f4f4f7" d="M16 3v1h4V3h-4zm-6 2v1h6V5h-6zm10 0v1h2V5h-2zM8 7v1h2V7H8zm14 0v1h2V7h-2zM6 13v1h2v-1H6zm18 0v1h2v-1h-2z"/><path style="opacity:.2" d="M16 7v1h4V7h-4zm-6 2v1h4V9h-4zm10 0v1h2V9h-2zm-6 2v1h4v-1h-4zm-4 4v1h2v-1h-2zm4 2v1h2v-1h-2zm6 0v1h2v-1h-2zm-10 2v1h2v-1h-2zm-2 2v1h2v-1H8zm4 0v1h8v-1h-8zm10 0v1h2v-1h-2zm-12 2v1h2v-1h-2zm10 0v1h2v-1h-2zm-8 2v1h2v-1h-2zm6 0v1h2v-1h-2zm-4 2v1h4v-1h-4z"/></svg>