<svg height="32" width="32" xmlns="http://www.w3.org/2000/svg">
    <rect height="28" opacity=".2" rx="2.1" width="28" x="2" y="3"/>
    <rect fill="#d32f2f" height="28" rx="2.1" width="28" x="2" y="2"/>
    <path d="M24.967 13c-.632.257-1.498-.19-1.967.164.63.196.686.818.623 1.457-.026.533.174.808.076 1.307.117.756.003 1.526.112 2.267.06.862.082 1.762.308 2.594.246 1.366.398-.153.31-.73.14-.84-.145-1.839.354-2.522.368-.654.957-.851 1.533-.267.728.462 1.266 1.117 1.19 2.039.046.895.07 1.794.166 2.691.28-.035.09-.801.252-1.07.092-.897.265-1.805.18-2.703.386-.84-.392-1.322-1.063-1.71-.984-.043-.822-.854-.146-1.234.641-.742 1.356-1.291 2.105-1.887-.123-.493-1.393-.194-1.887-.103.372.43-.04.818-.384 1.184-.678.534-1.187 1.216-1.811 1.851-.605-.179.03-1.458-.158-2.11-.271-.623 1.467-1.218.207-1.218zm-18.27.002c-.428-.037-.81.3-1.234.123-.478-.01-2.291-.024-1.717.674.55.47.285 1.285.441 1.914.17.614.04 1.64.366 2.455.02 1.035.177 2.059.31 3.082.046.808.536.586.524-.088.382-.919-.253-2.022.336-2.822-.559-.876.12-1.88.076-2.854-.466-1.013.684-.45 1.21-.59.44-.701.31-.049.774.153.481.823 1.878.91 2.037 1.82-.847.514-.343 1.562-1.084 2.168-.34.935-1.358 1.29-1.894 2.102-.729.545-1.532 1.033-2.473 1.267-.356.126-1.978.043-1.125.594.61-.146 1.124.093 1.73-.078a4.926 4.926 0 0 0 2.376-1.29c.846-.507 1.514-1.253 2.21-1.937.44-.821 1.114-1.55 1.307-2.464.432-.977-.257-1.916-1.013-2.518-.704-.805-1.679-1.241-2.71-1.516a.799.799 0 0 0-.447-.195zm13.791 0c-.354-.018-.673.06-.845.283-.634-.368-1.18.153-1.67.569-.72.585-.821 1.72-.223 2.36.75.41 1.568 1.015 2.346 1.198.361-.021.688.573 1.23.684.56.43-.458 1.499-.87 1.746-.777.566-1.6.233-2.284-.328-.871-.425-.884-1.579-.553-2.31.4-.67-.094-.468-.19.093-.457.747-.686 1.878.02 2.559.731.533 1.443 1.094 2.408 1.144.629-.015 1.177-.15 1.618-.639.644-.245.471-1.125 1.087-1.203.007-.545.93-1.376.077-1.691-.95-.116-1.405-1.152-2.455-1.16-.58-.343-2.407-.96-1.24-1.666.398-.078.771-.227 1.2-.159 1.394-.414 1.095 1.225 1.45 1.815.279-.811.602-1.748.45-2.635-.276-.334-.966-.63-1.556-.66zm-8.302.002c-.406-.02-.856.051-1.168.074-.128.554.476 1.418.195 2.162.44.427.022.733.058 1.33.105 1 .142 1.874.377 2.805.247.988 1.204 1.368 2.069 1.592l.215.033c.873-.23 1.844-.382 2.386-1.236.395-1 .457-2.068.471-3.139-.304-.804-.171-1.78-.088-2.672.824-.786-.255-1.115-.869-.758-.202.14-1.34-.493-1.018.244.498.706.167 1.775.555 2.573-.142.683.02 1.443.033 2.154-.253.747-.188 1.794-1.21 1.84-1.349.21-1.02-1.366-1.391-2.158.306-.625-.5-1.027-.153-1.49.222-.94-.454-2.184.436-2.89-.131-.337-.493-.445-.898-.464z" opacity=".1"/>
    <path d="M24.967 12c-.632.257-1.498-.19-1.967.164.63.196.686.818.623 1.457-.026.533.174.808.076 1.307.117.756.003 1.526.112 2.267.06.862.082 1.762.308 2.594.246 1.366.398-.153.31-.73.14-.84-.145-1.839.354-2.522.368-.654.957-.851 1.533-.267.728.462 1.266 1.117 1.19 2.039.046.895.07 1.794.166 2.691.28-.035.09-.801.252-1.07.092-.897.265-1.805.18-2.703.386-.84-.392-1.322-1.063-1.71-.984-.043-.822-.854-.146-1.234.641-.742 1.356-1.291 2.105-1.887-.123-.493-1.393-.194-1.887-.103.372.43-.04.818-.384 1.184-.678.534-1.187 1.216-1.811 1.851-.605-.179.03-1.458-.158-2.11-.271-.623 1.467-1.218.207-1.218zm-18.27.002c-.428-.037-.81.3-1.234.123-.478-.01-2.291-.024-1.717.674.55.47.285 1.285.442 1.914.17.614.038 1.64.365 2.455.02 1.035.177 2.059.31 3.082.046.808.536.586.524-.088.382-.919-.253-2.022.336-2.822-.559-.876.12-1.88.076-2.854-.466-1.013.684-.45 1.21-.59.44-.701.31-.049.774.153.481.823 1.878.91 2.037 1.82-.847.514-.343 1.562-1.084 2.168-.34.935-1.358 1.29-1.894 2.102-.729.545-1.532 1.033-2.473 1.267-.356.126-1.978.043-1.125.594.61-.146 1.124.093 1.73-.078a4.926 4.926 0 0 0 2.376-1.29c.846-.507 1.514-1.253 2.21-1.937.44-.821 1.114-1.55 1.307-2.465.432-.976-.257-1.915-1.013-2.517-.704-.805-1.679-1.241-2.71-1.516a.799.799 0 0 0-.447-.195zm13.791 0c-.354-.018-.673.06-.845.283-.634-.368-1.18.153-1.67.569-.72.585-.821 1.72-.223 2.36.75.41 1.568 1.015 2.346 1.198.361-.021.688.573 1.23.684.56.43-.458 1.499-.87 1.746-.777.565-1.6.233-2.284-.328-.871-.425-.884-1.58-.553-2.31.4-.67-.094-.468-.19.093-.457.747-.686 1.878.02 2.558.731.534 1.443 1.095 2.408 1.145.629-.015 1.177-.15 1.618-.639.644-.245.471-1.125 1.087-1.203.007-.545.93-1.376.077-1.691-.95-.116-1.405-1.152-2.455-1.16-.58-.343-2.407-.96-1.24-1.666.398-.078.771-.227 1.2-.159 1.394-.414 1.095 1.225 1.45 1.815.279-.811.602-1.748.45-2.635-.276-.334-.966-.63-1.556-.66zm-8.302.002c-.406-.02-.856.051-1.168.074-.128.554.476 1.418.195 2.162.44.427.022.733.058 1.33.105 1 .142 1.874.377 2.805.247.988 1.204 1.368 2.069 1.592l.215.033c.873-.23 1.844-.382 2.386-1.236.395-1 .457-2.068.471-3.139-.304-.804-.171-1.78-.088-2.672.824-.786-.255-1.115-.869-.758-.202.14-1.34-.493-1.018.244.498.706.167 1.775.555 2.573-.142.683.02 1.443.033 2.154-.253.747-.188 1.794-1.21 1.84-1.349.21-1.02-1.366-1.391-2.158.306-.625-.5-1.027-.153-1.49.222-.94-.454-2.184.436-2.89-.131-.337-.493-.445-.898-.464z" fill="#313131"/>
    <path d="M4.1 2C2.936 2 2 2.936 2 4.1v1C2 3.936 2.936 3 4.1 3h23.8c1.164 0 2.1.936 2.1 2.1v-1c0-1.164-.936-2.1-2.1-2.1z" fill="#f4f4f7" opacity=".1"/>
</svg>
