<svg xmlns="http://www.w3.org/2000/svg" width="32" height="32"><path style="opacity:.2" d="M27.6 28.245c-.003 2.055-.51 2.74-6.97 2.74-1.837 0-4.072.161-5.25-.577-1.11-.697-.71-1.72-.71-2.76 0-2.143 2.1-3.648 5.67-3.648 3.571 0 7.263 2.1 7.26 4.245z"/><path style="fill:#d48003" d="M27.6 27.245c-.003 2.055-.51 2.74-6.97 2.74-1.837 0-4.072.161-5.25-.577-1.11-.697-.71-1.72-.71-2.76 0-2.143 2.1-3.648 5.67-3.648 3.571 0 7.263 2.1 7.26 4.245z"/><path style="opacity:.2" d="M16 3A13 13 0 0 0 3 16a13 13 0 0 0 13 13 13 13 0 0 0 13-13A13 13 0 0 0 16 3z"/><path style="fill:#fdc33b" d="M16 2A13 13 0 0 0 3 15a13 13 0 0 0 13 13 13 13 0 0 0 13-13A13 13 0 0 0 16 2z"/><ellipse style="opacity:.1" cx="14" cy="14" rx="2" ry="3"/><path style="opacity:.2" d="M17 28.245c-.003 2.055-.51 2.74-6.97 2.74-1.837 0-4.072.161-5.25-.577-1.11-.697-.71-1.72-.71-2.76C4.07 25.505 6.17 24 9.74 24c3.571 0 7.263 2.1 7.26 4.245z"/><path style="fill:#d48003" d="M17 27.245c-.003 2.055-.51 2.74-6.97 2.74-1.837 0-4.072.161-5.25-.577-1.11-.697-.71-1.72-.71-2.76C4.07 24.505 6.17 23 9.74 23c3.571 0 7.263 2.1 7.26 4.245z"/><ellipse style="fill:#414141" cx="14" cy="13" rx="2" ry="3"/><ellipse style="opacity:.1" cx="20" cy="14" rx="2" ry="3"/><ellipse style="fill:#414141" cx="20" cy="13" rx="2" ry="3"/><path style="opacity:.2;fill:#f4f4f7" d="M16 2A13 13 0 0 0 3 15a13 13 0 0 0 .021.42A13 13 0 0 1 16 3a13 13 0 0 1 12.979 12.58A13 13 0 0 0 29 15 13 13 0 0 0 16 2z"/></svg>