<svg height="32" width="32" xmlns="http://www.w3.org/2000/svg"><path d="m4.1 2h23.8c1.163 0 2.1.937 2.1 2.1v20.3c0 1.163-.937 2.1-2.1 2.1h-23.8c-1.163 0-2.1-.937-2.1-2.1v-20.3c0-1.163.937-2.1 2.1-2.1z" fill="#61d9e8"/><path d="m17.5 10a2.5 2.5 0 0 0 -2.5 2.5 2.5 2.5 0 0 0 2.5 2.5 2.5 2.5 0 0 0 2.5-2.5 2.5 2.5 0 0 0 -2.5-2.5zm11.672 2.746c-.205 0-2.717.956-5.582 2.123-10.019 4.08-11.633 4.735-15.35 6.22-2.06.824-4.296 1.692-4.992 1.843l-1.248.271v5.697c0 1.164.936 2.1 2.1 2.1h23.8c1.164 0 2.1-.936 2.1-2.1v-5.664l-.697.457c-1.24 1.3-1.268 1.312-4.37 1.903-1.042.198-1.095.194-1.144-.094-.028-.166 1.295-2.999 2.941-6.295 1.685-3.372 2.955-6.096 2.905-6.227-.05-.128-.259-.234-.463-.234zm-17.672 1.254a2.5 2.5 0 0 0 -2.5 2.5 2.5 2.5 0 0 0 2.5 2.5 2.5 2.5 0 0 0 2.5-2.5 2.5 2.5 0 0 0 -2.5-2.5zm13.004 2.332c.107.001.195.085.195.186 0 .228-2.84 5.45-4.101 7.539-.518.858-1.026 1.653-1.13 1.767-.152.169-.573-.185-2.222-1.87-2.347-2.4-2.746-2.873-2.642-3.143.076-.2 9.544-4.483 9.9-4.479zm-11.79 5.205c.253.015.573.32 1.42 1.3 2.134 2.47 2.614 3.078 2.56 3.243-.063.188-.469.295-.604.16-.05-.05-.994-.127-2.098-.17-1.742-.067-2.752-.177-5.904-.636-.342-.05-.762-.178-.936-.286a3.09 3.09 0 0 0 -.77-.302c-.446-.104-.449-.11-.155-.397.28-.276 5.655-2.72 6.382-2.902a.35.35 0 0 1 .106-.01z" opacity=".1"/><g fill="#3b3b3b"><circle cx="11.5" cy="15.5" r="2.5"/><circle cx="17.5" cy="11.5" r="2.5"/><path d="m29.173 11.747c-.205 0-2.717.955-5.582 2.122-10.019 4.079-11.634 4.734-15.351 6.22-2.06.824-4.296 1.693-4.992 1.843l-1.248.27v5.698c0 1.163.937 2.1 2.1 2.1h23.8c1.163 0 2.1-.937 2.1-2.1v-5.663l-.697.455c-1.24 1.3-1.268 1.313-4.37 1.904-1.043.198-1.095.193-1.144-.095-.029-.166 1.296-2.998 2.942-6.294 1.684-3.373 2.954-6.096 2.904-6.227-.05-.128-.258-.233-.462-.233zm-4.67 3.586c.108.001.196.084.196.184 0 .229-2.84 5.452-4.101 7.54-.518.858-1.026 1.654-1.13 1.768-.152.169-.573-.186-2.222-1.871-2.347-2.4-2.746-2.873-2.642-3.144.077-.2 9.544-4.481 9.9-4.477zm-11.788 5.205c.251.014.572.319 1.42 1.3 2.134 2.469 2.613 3.076 2.558 3.241-.062.188-.468.296-.603.16-.05-.05-.995-.126-2.098-.17-1.743-.067-2.752-.176-5.904-.635-.341-.05-.763-.178-.936-.286a3.091 3.091 0 0 0 -.77-.302c-.447-.104-.45-.11-.156-.398.281-.275 5.656-2.718 6.383-2.9a.348.348 0 0 1 .106-.01z"/></g><path d="m25.04 4v1.88l-1.63-.94-.357.62 1.628.94-1.628.94.357.62 1.63-.94v1.88h.714v-1.88l1.63.94.357-.62-1.629-.94 1.629-.94-.358-.62-1.63.94v-1.88z" opacity=".2"/><path d="m25.04 3v1.88l-1.63-.94-.357.62 1.628.94-1.628.94.357.62 1.63-.94v1.88h.714v-1.88l1.63.94.357-.62-1.629-.94 1.629-.94-.358-.62-1.63.94v-1.88z" fill="#f4f4f7"/><path d="m4.1 2c-1.164 0-2.1.936-2.1 2.1v1c0-1.164.936-2.1 2.1-2.1h23.8c1.164 0 2.1.936 2.1 2.1v-1c0-1.164-.936-2.1-2.1-2.1z" fill="#f4f4f7" opacity=".2"/></svg>