<svg xmlns="http://www.w3.org/2000/svg" width="32" height="32" version="1"><path style="opacity:.2" d="m13.2 4-.115.066L9.7 5.5l.7 3.5-3.222 1.474L5.5 9 2 12.5l2 2.167v7.256-.56 2.334S6 30 16 30s12-6.303 12-6.303v-2.334.56-7.256l2-2.167L26.5 9l-1.678 1.474L21.6 9l.7-3.5L18.8 4l-1.198 2h-3.207z"/><path style="fill:#3888c3" d="m13.2 3-.115.066L9.7 4.5l.7 3.5-3.222 1.474L5.5 8 2 11.5l2 2.167v7.256-.56 2.334S6 29 16 29s12-6.303 12-6.303v-2.334.56-7.256l2-2.167L26.5 8l-1.678 1.474L21.6 8l.7-3.5L18.8 3l-1.198 2h-3.207z"/><path style="opacity:.2" d="M9 14a3 3 0 1 1 0 6 3 3 0 0 1 0-6z"/><path style="fill:#f4f4f7" d="M9 13a3 3 0 1 1 0 6 3 3 0 0 1 0-6z"/><path style="fill:#353535" d="M11 16a2 2 0 1 1-4 0 2 2 0 1 1 4 0z"/><path style="opacity:.2" d="M16 16c.554 0 1 .446 1 1v2c0 .554-.446 1-1 1s-1-.446-1-1v-2c0-.554.446-1 1-1z"/><path style="fill:#f4f4f7" d="M16 15c.554 0 1 .446 1 1v2c0 .554-.446 1-1 1s-1-.446-1-1v-2c0-.554.446-1 1-1z"/><path style="opacity:.2" d="M23 14a3 3 0 1 1 0 6 3 3 0 0 1 0-6z"/><path style="fill:#f4f4f7" d="M23 13a3 3 0 1 1 0 6 3 3 0 0 1 0-6z"/><path style="fill:#353535" d="M25 16a2 2 0 1 1-4 0 2 2 0 1 1 4 0z"/><path style="opacity:.2;fill:none;stroke:#000;stroke-linejoin:round" d="M28 22.5h-4.5v2h-5v-2H16m-12 0h4.5v2h5v-2H16"/><path style="fill:none;stroke:#f4f4f7;stroke-linejoin:round" d="M28 21.5h-4.5v2h-5v-2H16m-12 0h4.5v2h5v-2H16"/><path style="fill:#f4f4f7;opacity:.2" d="m13.2 3-.114.066L9.699 4.5l.186.922 3.2-1.356L13.2 4l1.196 2h3.207L18.8 4l3.316 1.422.184-.922L18.8 3l-1.2 2h-3.206l-1.196-2zM5.5 8 2 11.5l.48.52L5.5 9l1.678 1.475L10.4 9l-.183-.916-3.04 1.39L5.5 8zm21 0-1.678 1.475-3.039-1.391L21.6 9l3.222 1.475L26.5 9l3.02 3.02.48-.52L26.5 8z"/></svg>