<svg xmlns="http://www.w3.org/2000/svg" width="32" height="32"><rect style="opacity:.2" width="28" height="28" x="1" y="3" rx="1.4" ry="1.4"/><path style="fill:#eb643d" d="M2.4 2h25.2c.776 0 1.4.624 1.4 1.4v16.773l-1.672 6.631c-.19.752-.934 1.099-1.71 1.09l-18.14-.185c-.776-.008-1.895-.008-2.206-.719L1 17.201V3.4C1 2.624 1.624 2 2.4 2z"/><path style="fill:#7cc42e" d="M2.4 2c-.113 0-.221.015-.325.041l-.02.007c-.1.027-.197.063-.288.11l17.804 23.41 5.19-2.487L8.073 2zm12.292 0L29 20.915V11.03L21.076 2z"/><path style="fill:#2be0de" d="M6.403 13.523 1 16.94V28.6c0 .776.624 1.4 1.4 1.4h25.2c.776 0 1.4-.624 1.4-1.4v-9.49z"/><path style="opacity:.2" d="M9.193 12.693a2.752 3.258 27.901 0 0-2.865 2.09 2.752 3.258 27.901 0 0 1.207 4.031 2.752 3.258 27.901 0 0 3.621-1.434 3.462 4.027 56.175 0 0 1.746 4.407 3.462 4.027 56.175 0 0 4.655-1.389 3.462 4.027 22.173 0 0 .021.543 3.462 4.027 22.173 0 0 3.953 2.957 3.462 4.027 22.173 0 0 2.897-2.889 2.673 3.236 23.8b9cbe 0 0 1.398 1.805 2.673 3.236 23.8b9cbe 0 0 3.74-1.904 2.673 3.236 23.8b9cbe 0 0-1.164-4.033 2.673 3.236 23.8b9cbe 0 0-3.74 1.906 2.673 3.236 23.8b9cbe 0 0-.07.174 3.462 4.027 22.173 0 0-3.924-2.758 3.462 4.027 22.173 0 0-2.121 1.424 3.462 4.027 56.175 0 0-2.055-2.702 3.462 4.027 56.175 0 0-5.058 1.936 2.752 3.258 27.901 0 0-1.23-3.98 2.752 3.258 27.901 0 0-1.01-.184z"/><ellipse style="fill:#f4f4f7" cx="14.18" cy="10.274" rx="2.755" ry="3.255" transform="matrix(.92245 .3861 -.40984 .91216 0 0)"/><ellipse style="fill:#f4f4f7" cx="21.262" cy="11.46" rx="3.633" ry="3.873" transform="matrix(.94096 .33852 -.46327 .88622 0 0)"/><ellipse style="fill:#f4f4f7" cx="19.02" cy="23.868" rx="3.633" ry="3.873" transform="matrix(.96938 -.24557 .11154 .99376 0 0)"/><ellipse style="fill:#f4f4f7" cx="32.374" cy="6.503" rx="2.673" ry="3.236" transform="rotate(23.8b9cbe)"/><path style="fill:#ffd520" d="M19.48 6c-6.513 1.8-6.06 4.081-11.778 4.007a4.046 4.046 0 0 0-3.108 1.426c-.842.929-.574 2.596-.473 3.492.31.128 1.264-.922 1.58-.801C10.768 16.05 18.6 18.372 24.578 19c2.003.21 3.648-.17 5.074-.54 1.552-.178 2.328-1.584 2.348-2.905 0-2.103-1.784-3.609-3.985-3.609-3.111-.558-3.75-5.741-8.535-5.946z"/><path style="fill:#5e5e5e" d="M15.336 10.3a.31.31 0 0 0-.306.315c.104 1.453-.632 1.36-1.354 1.36h-.032c-.412.02-.381.641.032.62.717 0 1.354.015 1.354 1.39-.006.42.625.42.619 0-.107-1.487.656-1.39 1.387-1.39.419.006.419-.626 0-.62-1.049 0-1.387.024-1.387-1.36a.31.31 0 0 0-.313-.315zM21.636 10.3a.31.31 0 0 0-.306.315c.104 1.453-.632 1.36-1.354 1.36h-.032c-.412.02-.381.641.032.62.717 0 1.354.015 1.354 1.39-.006.42.625.42.619 0-.107-1.487.656-1.39 1.387-1.39.419.006.419-.626 0-.62-1.049 0-1.387.024-1.387-1.36a.31.31 0 0 0-.313-.315z"/><path style="opacity:.1" d="M7.665 19.132a1.4 1.4 0 0 0-1.064 2.305L13.648 30h3.626L8.763 19.657a1.4 1.4 0 0 0-1.098-.525zm17.26 3.835a1.4 1.4 0 0 0-1.063 2.305l3.879 4.714A1.392 1.392 0 0 0 29 28.6v-1.489l-2.976-3.617a1.4 1.4 0 0 0-1.098-.527zM4.043 23.5a1.4 1.4 0 0 0-1.064 2.305L6.43 30h3.627l-4.915-5.973a1.4 1.4 0 0 0-1.099-.527zm14.278 0a1.4 1.4 0 0 0-1.064 2.305L20.706 30h3.626l-4.915-5.973a1.4 1.4 0 0 0-1.097-.527z"/><path style="opacity:.2;fill:#f4f4f7" d="M19.48 6c-6.512 1.8-6.06 4.08-11.779 4.006a4.045 4.045 0 0 0-3.107 1.428c-.589.648-.627 1.652-.567 2.507.052-.56.2-1.103.567-1.507A4.045 4.045 0 0 1 7.7 11.006c5.719.075 5.267-2.207 11.78-4.006 4.785.205 5.423 5.387 8.535 5.945 2.025 0 3.68 1.283 3.933 3.125.025-.17.051-.339.051-.515 0-2.104-1.783-3.61-3.984-3.61-3.112-.558-3.75-5.74-8.536-5.945zM2.4 2C1.625 2 1 2.625 1 3.4v1C1 3.625 1.625 3 2.4 3h25.2c.775 0 1.4.625 1.4 1.4v-1c0-.775-.625-1.4-1.4-1.4z"/></svg>