<svg height="32" width="32" xmlns="http://www.w3.org/2000/svg">
    <path d="M2.5 5.5h3v22" style="opacity:.2;fill:none;stroke:#030303;stroke-width:3;stroke-linecap:round;stroke-linejoin:round"/>
    <path d="M8 24v4.5C8 30 9.5 30 9.5 30h18s1.5 0 1.5-1.5V24H11z" opacity=".2"/>
    <path d="M11 23h3v6h-3z" fill="#ff0"/>
    <path d="M8 23h3v6H9.5S8 29 8 27.5z" fill="#38732b"/>
    <path d="M17 23h3v6h-3z" fill="#ff0"/>
    <path d="M14 23h3v6h-3z" fill="#38732b"/>
    <path d="M23 23h3v6h-3z" fill="#ff0"/>
    <path d="M20 23h3v6h-3zm9 0h-3v6h1.5s1.5 0 1.5-1.5z" fill="#38732b"/>
    <rect height="27" opacity=".2" rx="1.313" ry="1.35" transform="matrix(0 -1 -1 0 0 0)" width="21" x="-27" y="-31"/>
    <rect fill="#5bbd41" height="27" rx="1.313" ry="1.35" transform="matrix(0 -1 -1 0 0 0)" width="21" x="-26" y="-31"/>
    <path d="M5.35 5C4.602 5 4 5.585 4 6.313v1C4 6.585 4.602 6 5.35 6h24.3c.748 0 1.35.585 1.35 1.313v-1C31 5.585 30.398 5 29.65 5z" fill="#f4f4f7" opacity=".2"/>
    <g fill="none" stroke-linecap="round" stroke-linejoin="round">
        <path d="M10.5 10.5h9l-9 12h9" opacity=".1" stroke="#000" stroke-width="3"/>
        <path d="M10.5 9.5h9l-9 12h9" stroke="#17191e" stroke-width="3"/>
        <path d="M23 10h4l-4 6h4" opacity=".1" stroke="#000" stroke-width="2"/>
        <path d="M23 9h4l-4 6h4" stroke="#17191e" stroke-width="2"/>
        <path d="M2.5 4.5h3v22" stroke="#f4f4f7" stroke-width="3"/>
    </g>
</svg>
