<svg xmlns="http://www.w3.org/2000/svg" width="32" height="32" version="1"><rect fill="#e32037" width="28" height="28" x="2" y="2" rx="14" ry="14"/><path fill="#fff" opacity=".1" d="M16 2C8.244 2 2 8.244 2 16c0 .169.02.333.025.5C2.29 8.98 8.413 3 16 3s13.711 5.98 13.975 13.5c.006-.167.026-.331.026-.5 0-7.756-6.244-14-14-14z"/><path opacity=".2" d="M8 10v14h4v-8l4 3.5 4-3.5v8h4V10h-4l-4 3.5-4-3.5z"/><path fill="#fff" d="M8 9v14h4v-8l4 3.5 4-3.5v8h4V9h-4l-4 3.5L12 9z"/><path opacity=".2" d="M2.025 16.5c-.006.167-.025.331-.025.5 0 7.756 6.244 14 14 14s14-6.244 14-14c0-.169-.02-.333-.025-.5C29.71 24.021 23.587 30 16 30 8.412 30 2.289 24.021 2.025 16.5z"/></svg>