<svg xmlns="http://www.w3.org/2000/svg" width="32" height="32" version="1.0"><path style="opacity:.2" d="M12.5 3C6.683 3 2 7.683 2 13.5v7C2 26.317 6.683 31 12.5 31h7C25.317 31 30 26.317 30 20.5v-7C30 7.683 25.317 3 19.5 3z"/><path style="fill:#3584e4" d="M12.5 2C6.683 2 2 6.683 2 12.5v7C2 25.317 6.683 30 12.5 30h7C25.317 30 30 25.317 30 19.5v-7C30 6.683 25.317 2 19.5 2z"/><path style="fill:#f4f4f7;opacity:.2" d="M12.5 2C6.683 2 2 6.683 2 12.5v1C2 7.683 6.683 3 12.5 3h7C25.317 3 30 7.683 30 13.5v-1C30 6.683 25.317 2 19.5 2h-7z"/><path style="opacity:.2" d="M4.176 3A2.157 2.157 0 0 0 2 5.148v10.653a14.31 14.31 0 0 0 2.887 4.578c1.497 1.59 3.72 2.922 6.023 3.416 2.303.493 4.882.15 6.692-1.606.62-.6 1.143-1.49 1.328-2.402.184-.912.03-1.846-.701-2.537-.232-.22-.775-.405-1.124-.467-.345-.061-.853-.057-1.105.217.28.252.502.658.44 1.002a1.865 1.865 0 0 1-.48.92c-.703.725-1.654 1.216-2.581 1.033a4.938 4.938 0 0 1-2.443-1.312C9.6 17.3 9 15.3 9.03 13.593c.01-.568.082-1.141.207-1.71.501-2.276 1.92-5.102 3.533-6.582A14.353 14.353 0 0 1 16.156 3zM16 17c-.28-.252-.502-.658-.44-1.002.064-.347.255-.689.48-.92.703-.725 1.654-1.216 2.581-1.033a4.938 4.938 0 0 1 2.443 1.312C22.4 16.7 23 18.7 22.97 20.407a8.675 8.675 0 0 1-.207 1.71c-.501 2.276-1.92 5.102-3.533 6.582A14.353 14.353 0 0 1 15.844 31h11.98A2.157 2.157 0 0 0 30 28.852V18.199a14.31 14.31 0 0 0-2.887-4.578c-1.497-1.59-3.72-2.922-6.023-3.416-2.303-.493-4.882-.15-6.692 1.606-.62.6-1.143 1.49-1.328 2.402-.184.912-.03 1.846.701 2.537.232.22.775.405 1.124.467.345.061.853.057 1.105-.217z"/><path style="fill:#ff9632" d="M4.176 2A2.157 2.157 0 0 0 2 4.148v10.653a14.31 14.31 0 0 0 2.887 4.578c1.497 1.59 3.72 2.922 6.023 3.416 2.303.493 4.882.15 6.692-1.606.62-.6 1.143-1.49 1.328-2.402.184-.912.03-1.846-.701-2.537-.232-.22-.775-.405-1.124-.467-.345-.061-.853-.057-1.105.217.28.252.502.658.44 1.002a1.865 1.865 0 0 1-.48.92c-.703.725-1.654 1.216-2.581 1.033a4.938 4.938 0 0 1-2.443-1.312C9.6 16.3 9 14.3 9.03 12.593c.01-.568.082-1.141.207-1.71.501-2.276 1.92-5.102 3.533-6.582A14.353 14.353 0 0 1 16.156 2H4.176zM16 16c-.28-.252-.502-.658-.44-1.002.064-.347.255-.689.48-.92.703-.725 1.654-1.216 2.581-1.033a4.938 4.938 0 0 1 2.443 1.312C22.4 15.7 23 17.7 22.97 19.407a8.674 8.674 0 0 1-.207 1.71c-.501 2.276-1.92 5.102-3.533 6.582A14.353 14.353 0 0 1 15.844 30h11.98A2.157 2.157 0 0 0 30 27.852V17.199a14.31 14.31 0 0 0-2.887-4.578c-1.497-1.59-3.72-2.922-6.023-3.416-2.303-.493-4.882-.15-6.692 1.606-.62.6-1.143 1.49-1.328 2.402-.184.912-.03 1.846.701 2.537.232.22.775.405 1.124.467.345.061.853.057 1.105-.217z"/><path style="fill:#f4f4f7;opacity:.2" d="M4.176 2A2.157 2.157 0 0 0 2 4.148v1C2 3.958 2.97 3 4.176 3h10.25a14.8 14.8 0 0 1 1.73-1H4.176zm15.152 7.002c-1.781-.03-3.572.493-4.93 1.809-.62.6-1.143 1.49-1.328 2.402a3.171 3.171 0 0 0-.015 1.152c.008-.05.005-.101.015-.152.185-.912.709-1.801 1.328-2.402 1.81-1.755 4.39-2.1 6.692-1.606 2.302.494 4.526 1.825 6.023 3.416A14.31 14.31 0 0 1 30 18.2v-1a14.31 14.31 0 0 0-2.887-4.578c-1.497-1.59-3.72-2.922-6.023-3.416a9.136 9.136 0 0 0-1.762-.203zM9.053 13.283c-.006.104-.02.208-.022.31-.03 1.707.569 3.707 1.905 5.05a4.938 4.938 0 0 0 2.443 1.312c.927.183 1.878-.308 2.582-1.033.224-.231.415-.573.478-.92.037-.2-.028-.415-.138-.613-.091.201-.202.39-.34.533-.704.725-1.655 1.216-2.582 1.033a4.938 4.938 0 0 1-2.443-1.312c-1.16-1.166-1.764-2.826-1.883-4.36zm6.646 2.328c-.056.126-.114.254-.138.387a.724.724 0 0 0 .002.215c.17-.034.329-.095.437-.213a1.508 1.508 0 0 1-.3-.389zM16 16c.224.201.403.5.438.787.224-.045.47-.039.667-.004.349.062.892.248 1.124.467.42.397.632.878.716 1.385.138-.863-.026-1.733-.716-2.385-.232-.22-.775-.405-1.124-.467-.345-.061-.853-.057-1.105.217zm6.947 3.717a8.81 8.81 0 0 1-.185 1.4c-.501 2.276-1.92 5.102-3.533 6.582A14.353 14.353 0 0 1 15.844 30h1.73c.577-.388 1.13-.82 1.655-1.3 1.614-1.48 3.032-4.307 3.533-6.583a8.675 8.675 0 0 0 .207-1.71 7.261 7.261 0 0 0-.022-.69z"/></svg>