<svg height="64" width="64" xmlns="http://www.w3.org/2000/svg" xmlns:xlink="http://www.w3.org/1999/xlink"><filter id="a" color-interpolation-filters="sRGB" height="1.054" width="1.054" x="-.027" y="-.027"><feGaussianBlur stdDeviation=".61875"/></filter><linearGradient id="b" gradientUnits="userSpaceOnUse" x1="4.5" x2="59.5" y1="59.49" y2="4.49"><stop offset="0" stop-color="#32d7ff"/><stop offset="1" stop-color="#329bff"/></linearGradient><linearGradient id="c" gradientUnits="userSpaceOnUse" x1="34.2200007358" x2="35.17006544624" y1="43.6691516314" y2="20.33084969087"><stop offset="0" stop-color="#ff9704"/><stop offset="1" stop-color="#ffbb3a"/></linearGradient><linearGradient id="d" gradientUnits="userSpaceOnUse" x1="399.57144" x2="399.57144" y1="545.79797" y2="517.79797"><stop offset="0" stop-color="#3889e9"/><stop offset="1" stop-color="#5ea5fb"/></linearGradient><linearGradient id="e" gradientUnits="userSpaceOnUse" x1="-43.42311243431" x2="-42.53341065932" y1="54.4233348472" y2="9.07276714071"><stop offset="0" stop-color="#e7f0f4"/><stop offset="1" stop-color="#f4faff"/></linearGradient><circle cx="400.57138" cy="531.79791" fill="url(#d)" r="0" transform="matrix(1.6374665 0 0 1.6374665 -644.58019 -848.71933)"/><rect fill="#141414" filter="url(#a)" height="55" opacity=".3" ry="15" stroke-linecap="round" stroke-width="2.7444" width="55" x="4.5" y="4.5"/><rect fill="url(#b)" height="55" ry="15" stroke-linecap="round" stroke-width="2.7444" width="55" x="4.5" y="4.5"/><g fill="#5e4aa6"><circle cx="-1198.1968" cy="-1279.3" r="0"/><circle cx="-1079.7433" cy="-1318.5997" r="0" stroke-width="1.00001"/><circle cx="19.795006" cy="-53.108513" fill-rule="evenodd" r="0" stroke-width="1.00001"/><circle cx="-1001.241" cy="-1390.1099" r="0" stroke-width="1.00001"/><circle cx="98.294319" cy="-124.58192" fill-rule="evenodd" r="0" stroke-width="1.00001"/></g><circle cx="32" cy="32" fill="url(#e)" opacity=".92" r="20" stroke-width=".115309"/><path clip-rule="evenodd" d="m43.444749 30.359234-15.41018-9.709319c-.455571-.271227-1.021268-.226039-1.448508-.226039-1.708961 0-1.70138 1.319428-1.70138 1.653698v19.844782c0 .282598-.0075 1.653798 1.70138 1.653798.42724 0 .993037.04499 1.448508-.226139l15.410079-9.709219c1.264863-.752634 1.046305-1.640831 1.046305-1.640831s.218658-.888197-1.046204-1.640731z" fill="url(#c)" fill-rule="evenodd" opacity=".9" stroke-width=".099752"/></svg>