<svg height="32" width="32" xmlns="http://www.w3.org/2000/svg"><path d="m13.511 3a4.506 4.506 0 0 0 -4.189 2.865 1.499 1.499 0 0 0 0 .001l-6.992 17.984c-.498 1.28-.41 2.623.121 3.66.532 1.038 1.432 1.768 2.441 2.16 1.01.393 2.164.463 3.257.057 1.092-.406 2.065-1.338 2.563-2.619l2.757-7.089c.81.561 1.739.826 2.722.802l-.997 3.39c-.387 1.318-.186 2.65.431 3.639.618.988 1.576 1.638 2.615 1.943 1.038.305 2.197.277 3.25-.22 1.054-.498 1.945-1.507 2.332-2.826l4.995-16.984c.618-2.1-.395-4.138-1.96-5.1-1.567-.963-3.843-.944-5.437.558l-3.07 2.891-.505-1.818a1.499 1.499 0 0 0 0-.002 4.506 4.506 0 0 0 -4.335-3.292z" opacity=".2"/><path d="m13.511 2a4.506 4.506 0 0 0 -4.189 2.865 1.499 1.499 0 0 0 0 .001l-6.992 17.984c-.498 1.28-.41 2.623.121 3.66.532 1.038 1.432 1.768 2.441 2.16 1.01.393 2.164.463 3.257.057 1.092-.406 2.065-1.338 2.563-2.619l2.757-7.089c.81.561 1.739.826 2.722.802l-.997 3.39c-.387 1.318-.186 2.65.431 3.639.618.988 1.576 1.638 2.615 1.943 1.038.305 2.197.277 3.25-.22 1.054-.498 1.945-1.507 2.332-2.826l4.995-16.984c.618-2.1-.395-4.138-1.96-5.1-1.567-.963-3.843-.944-5.437.558l-3.07 2.891-.505-1.818a1.499 1.499 0 0 0 0-.002 4.506 4.506 0 0 0 -4.335-3.292z" fill="#2d6375"/><path d="m13.512 2a4.507 4.507 0 0 0 -4.19 2.865 1.499 1.499 0 0 0 0 .002l-6.992 17.983a4.685 4.685 0 0 0 -.289 2.171 4.82 4.82 0 0 1 .29-1.171l6.99-17.983a1.499 1.499 0 0 0 0-.002 4.507 4.507 0 0 1 4.191-2.865 4.506 4.506 0 0 1 4.334 3.291 1.499 1.499 0 0 0 0 .002l.504 1.82 3.07-2.892c1.593-1.502 3.87-1.52 5.435-.559 1.126.691 1.954 1.941 2.108 3.367.221-1.829-.725-3.518-2.108-4.367-1.566-.962-3.842-.943-5.435.559l-3.07 2.892-.504-1.82a1.499 1.499 0 0 0 0-.002 4.506 4.506 0 0 0 -4.334-3.291zm2.388 18.807-.707 2.404a4.767 4.767 0 0 0 -.168 1.87c.03-.289.083-.58.168-.87l.996-3.39c-.098.002-.192-.011-.289-.014z" fill="#f4f4f7" opacity=".1"/><path d="m13.523 5.975a1.49 1.49 0 0 0 -1.396.955v.002l-7 17.998c-.227.583-.16.91-.006 1.21.154.303.47.582.86.733.388.151.81.16 1.128.041.318-.118.588-.311.815-.894l3.728-9.588a1.5 1.5 0 0 1 2.844.142l.084.303c.32 1.152 1.604 1.51 2.474.692a1.5 1.5 0 0 0 0-.002" opacity=".2"/><path d="m13.523 4.975a1.49 1.49 0 0 0 -1.396.955v.002l-7 17.998c-.227.583-.16.91-.006 1.21.154.303.47.582.86.733.388.151.81.16 1.128.041.318-.118.588-.311.815-.894l3.728-9.588a1.5 1.5 0 0 1 2.844.142l.084.303c.32 1.152 1.604 1.51 2.474.692a1.5 1.5 0 0 0 0-.002" fill="#6acf96"/><path d="m13.523 4.975a1.49 1.49 0 0 0 -1.396.955v.002l-7 17.998c-.207.532-.165.848-.04 1.129.016-.045.021-.081.04-.13l7-17.997v-.002a1.49 1.49 0 0 1 1.396-.955 1.49 1.49 0 0 1 1.448 1.1l1.17 4.21a1.5 1.5 0 0 0 2.472.692l4.883-4.596a1.5 1.5 0 0 0 .002 0c.633-.597 1.253-.529 1.813-.186.3.185.527.426.644.735l.01-.034c.246-.834-.095-1.357-.654-1.7-.56-.344-1.18-.412-1.813.185a1.5 1.5 0 0 0 -.002 0l-4.883 4.596a1.5 1.5 0 0 1 -2.472-.692l-1.17-4.21a1.49 1.49 0 0 0 -1.448-1.1zm6.418 12.773-1.855 6.305c-.138.47-.107.765-.002 1.01.001-.004 0-.007.002-.01l1.879-6.385a1.5 1.5 0 0 0 -.024-.92z" fill="#f4f4f7" opacity=".2"/><path d="m24.477 1.978a1.5 1.5 0 0 0 -1.477 1.522v1.5h-1.5a1.5 1.5 0 1 0 0 3h1.5v1.5a1.5 1.5 0 1 0 3 0v-1.5h1.5a1.5 1.5 0 1 0 0-3h-1.5v-1.5a1.5 1.5 0 0 0 -1.523-1.522z" opacity=".2"/><path d="m24.5 2.5v6m-3-3h6" fill="none" stroke="#ffce51" stroke-linecap="round" stroke-width="3"/><path d="m24.477.979a1.5 1.5 0 0 0 -1.477 1.521v1a1.5 1.5 0 0 1 1.477-1.521 1.5 1.5 0 0 1 1.523 1.521v-1a1.5 1.5 0 0 0 -1.523-1.521zm-2.977 3.021a1.5 1.5 0 0 0 -1.434 2 1.5 1.5 0 0 1 1.434-1h1.5v-1zm4.5 0v1h1.5a1.5 1.5 0 0 1 1.434 1 1.5 1.5 0 0 0 -1.434-2z" fill="#f4f4f7" opacity=".2"/></svg>