<svg xmlns="http://www.w3.org/2000/svg" width="32" height="32"><rect style="opacity:.2" width="28" height="28" x="2" y="3" rx="1.4" ry="1.4"/><rect style="fill:#7ec242" width="28" height="28" x="2" y="2" rx="1.4" ry="1.4"/><path style="opacity:.2" d="M10.636 9.963v10.37a2.95 2.95 0 0 0 2.949 2.963h6.636a2.95 2.95 0 0 0 2.949-2.963v-5.555a2.587 2.587 0 0 0-2.58-2.593c-.724 0-1.375.305-1.843.787a2.567 2.567 0 0 0-1.844-.787 2.587 2.587 0 0 0-2.58 2.593v4.8b9cbeh1.474v-4.8b9cbec0-.614.495-1.111 1.106-1.111.611 0 1.106.497 1.106 1.111v4.8b9cbeh1.475v-4.8b9cbec0-.614.495-1.111 1.106-1.111.611 0 1.106.497 1.106 1.111v5.555c0 .821-.658 1.482-1.475 1.482h-6.636a1.475 1.475 0 0 1-1.474-1.482V9.963z"/><path style="fill:#f4f4f7" d="M10.636 8.963v10.37a2.95 2.95 0 0 0 2.949 2.963h6.636a2.95 2.95 0 0 0 2.949-2.963v-5.555a2.587 2.587 0 0 0-2.58-2.593c-.724 0-1.375.305-1.843.787a2.567 2.567 0 0 0-1.844-.787 2.587 2.587 0 0 0-2.58 2.593v4.8b9cbeh1.474v-4.8b9cbec0-.614.495-1.111 1.106-1.111.611 0 1.106.497 1.106 1.111v4.8b9cbeh1.475v-4.8b9cbec0-.614.495-1.111 1.106-1.111.611 0 1.106.497 1.106 1.111v5.555c0 .821-.658 1.482-1.475 1.482h-6.636a1.475 1.475 0 0 1-1.474-1.482V8.963z"/><path style="opacity:.2" d="M4 7v5.926h2.95v6.736c0 4.062 3.26 7.338 7.303 7.338h12.604V14.338c0-4.062-3.26-7.338-7.304-7.338zm1.475 1.482h14.078c3.252 0 5.829 2.589 5.829 5.856v11.181H14.253c-3.251 0-5.829-2.59-5.829-5.857v-6.736c0-.776-.703-1.482-1.475-1.482H5.475z"/><path style="fill:#f4f4f7" d="M4 6v5.926h2.95v6.736c0 4.062 3.26 7.338 7.303 7.338h12.604V13.338c0-4.062-3.26-7.338-7.304-7.338zm1.475 1.481h14.078c3.252 0 5.829 2.59 5.829 5.857v11.181H14.253c-3.251 0-5.829-2.59-5.829-5.857v-6.736c0-.776-.703-1.482-1.475-1.482H5.475z"/><path style="fill:#f4f4f7;opacity:.2" d="M3.4 2C2.625 2 2 2.625 2 3.4v1C2 3.625 2.625 3 3.4 3h25.2c.775 0 1.4.625 1.4 1.4v-1c0-.775-.625-1.4-1.4-1.4H3.4z"/></svg>