<svg xmlns="http://www.w3.org/2000/svg" width="32" height="32" version="1">
    <rect fill="#5db43e" width="26" height="26" x="-29" y="-29" rx="13" ry="13" transform="matrix(0 -1 -1 0 0 0)"/>
    <path fill="#fff" opacity=".2" d="M16 3C8.798 3 3 8.798 3 16c0 .169.02.333.025.5A12.96 12.96 0 0 1 16 4a12.96 12.96 0 0 1 12.975 12.5c.006-.167.025-.331.025-.5 0-7.202-5.798-13-13-13z"/>
    <path opacity=".2" d="M16.017 9c1.753.004 3.531.528 4.92 1.567.976 1.08-.884 2.236-1.722 1.183-2.522-1.465-6.079-.95-7.976 1.241a5.884 5.884 0 0 0-1.572 3.995h1.667l-2.667 3.84L6 16.986h1.667c-.053-3.478 2.551-6.785 6.048-7.686a8.71 8.71 0 0 1 2.302-.3zm7.317 4.16L26 17.003h-1.667c.047 3.519-2.624 6.863-6.182 7.716-2.4.644-5.115.174-7.088-1.299-1.007-1.097.88-2.243 1.725-1.18 2.443 1.423 5.865.972 7.794-1.061 1.117-1.105 1.76-2.636 1.751-4.176h-1.667l2.667-3.84z"/>
    <path opacity=".2" d="M3.025 16.5c-.006.167-.025.331-.025.5 0 7.202 5.798 13 13 13s13-5.798 13-13c0-.169-.019-.333-.025-.5C28.711 23.466 23.033 29 16 29S3.289 23.466 3.025 16.5z"/>
    <path fill="#fff" d="M16.017 8c1.753.004 3.531.529 4.92 1.567.976 1.08-.884 2.236-1.722 1.183-2.522-1.465-6.079-.949-7.976 1.242a5.884 5.884 0 0 0-1.572 3.994h1.667l-2.667 3.84L6 15.986h1.667C7.614 12.508 10.218 9.2 13.715 8.3a8.71 8.71 0 0 1 2.302-.3zm7.317 4.161L26 16.002h-1.667c.047 3.519-2.624 6.863-6.182 7.716-2.4.644-5.115.174-7.088-1.298-1.007-1.098.88-2.244 1.725-1.181 2.443 1.423 5.865.972 7.794-1.061 1.117-1.105 1.76-2.636 1.751-4.176h-1.667l2.667-3.84z"/>
</svg>
