<svg width="32" height="32" xmlns="http://www.w3.org/2000/svg"><circle cx="16" cy="17" r="14" style="opacity:.2"/><circle cx="16" cy="16" r="14" style="fill:#c21d1e"/><path d="M16 2A14 14 0 0 0 2 16a14 14 0 0 0 .022.586A14 14 0 0 1 16 3a14 14 0 0 1 13.979 13.414A14 14 0 0 0 30 16 14 14 0 0 0 16 2z" style="fill:#f4f4f7;opacity:.1"/><path d="M26.293 10.525 16 17l10.292 6.475A12.6 12.6 0 0 0 28.1 17a12.6 12.6 0 0 0-1.807-6.475z" style="opacity:.2"/><path d="M26.293 9.525 16 16l10.292 6.475A12.6 12.6 0 0 0 28.1 16a12.6 12.6 0 0 0-1.807-6.475z" style="fill:#f4f4f7"/><circle cx="16" cy="17" r="7" style="opacity:.1"/><circle cx="16" cy="16" r="7" style="fill:#951612"/><path d="M13 13c-.554 0-1 .446-1 1v6c0 .554.446 1 1 1s1-.446 1-1v-6c0-.554-.446-1-1-1zm6 0c-.554 0-1 .446-1 1v6c0 .554.446 1 1 1s1-.446 1-1v-6c0-.554-.446-1-1-1zm-3 2c-.554 0-1 .446-1 1v4c0 .554.446 1 1 1s1-.446 1-1v-4c0-.554-.446-1-1-1z" style="opacity:.2"/><rect x="12" y="12" width="2" height="8" ry="1" style="fill:#f4f4f7"/><rect x="15" y="14" width="2" height="6" ry="1" style="fill:#ccc"/><rect x="18" y="12" width="2" height="8" ry="1" style="fill:#f4f4f7"/></svg>