<svg height="32" width="32" xmlns="http://www.w3.org/2000/svg">
    <path d="M6 28h20v3H6z" opacity=".2"/>
    <path d="M13 18h6l3 12H10z" fill="#4f4f4f"/>
    <path d="m21.222 9.75-1.293 1.959-1.294 1.96-2.1-3.638 2.344-.14z" fill="#9c9c9c"/>
    <path d="M23.47 20.706A9.645 9.645 0 0 1 13.824 4z" opacity=".2"/>
    <path d="M23.47 19.706A9.645 9.645 0 0 1 13.824 3z" fill="#686868"/>
    <circle cx="19.843" cy="-13.37" opacity=".2" r="1.5" transform="rotate(60)"/>
    <circle cx="18.977" cy="-13.87" fill="#f4f4f7" r="1.5" transform="rotate(60)"/>
    <path d="M6 27h20v3H6z" fill="#4f4f4f"/>
    <path d="M13.824 3c-3.24 1.87-4.976 5.337-4.804 8.834A9.632 9.632 0 0 1 13.824 4l9.2 15.936c.148-.076.299-.145.445-.229z" fill="#f4f4f7" opacity=".1"/>
</svg>
