<svg xmlns="http://www.w3.org/2000/svg" width="32" height="32" version="1"><circle style="opacity:.2" cx="24.5" cy="22.5" r="6.5"/><circle style="fill:#fcbd1e" cx="24.5" cy="21.5" r="6.5"/><rect style="opacity:.2" width="26" height="26" x="1" y="3" rx="13" ry="13"/><rect style="fill:#ff7000" width="26" height="26" x="1" y="2" rx="13" ry="13"/><path style="opacity:.2" d="M11.203 6.334c-.043.672-.09 1.737-.13 2.822a54.11 54.11 0 0 1-3.792-.125L7.09 11.76c1.297.09 2.605.132 3.914.133-.006.772.003 1.567.021 2.377-1.548.725-2.994 1.852-3.98 3.181-.597.805-1.062 1.716-1.045 2.786.017 1.07.714 2.165 1.758 2.753 1.46.825 3.098.665 4.523.063.083.2.162.405.256.592l2.443-1.235a5.648 5.648 0 0 1-.318-.85 20.784 20.784 0 0 0 2.524-2.437c.86-.972 1.479-1.878 2.125-2.779.323.149.748.222.972.44.459.445.782 1.046.84 2.156.027.518-.172.942-.691 1.459-.52.517-1.343 1.023-2.21 1.422-1.733.797-3.548 1.171-3.548 1.171l.543 2.684s2.058-.408 4.148-1.37c1.046-.48 2.122-1.097 2.998-1.97.877-.873 1.57-2.108 1.494-3.539-.087-1.658-.702-3.04-1.668-3.976-.368-.358-.801-.595-1.232-.83.126-.208.465-.735.465-.735l-2.367-1.371s-.757 1.007-.934 1.293c-1.524-.17-3.043-.033-4.369.234a79.08 79.08 0 0 1-.008-1.582 74.276 74.276 0 0 0 8.494-.861l-.43-2.703c-2.611.415-5.303.7-7.994.822.038-.975.08-1.968.12-2.58zm4.262 9.541c.24-.03.464.019.707.002-.492.659-.447.768-1.035 1.434-.346.391-.707.761-1.07 1.117-.09-.72-.16-1.464-.212-2.246a13.94 13.94 0 0 1 1.61-.307zm-4.3 1.49c.075 1.049.19 2.066.364 3.02-1.02.534-1.734.614-2.427.223-.428-.242-.363-.255-.366-.414-.002-.16.127-.6.506-1.112.432-.583 1.15-1.2 1.922-1.717z"/><path style="fill:none;stroke:#f4f4f7;stroke-width:2.73684216" d="M20.238 11.571S13.302 23.548 8.43 20.799c-2.943-1.66.836-5.543 4.03-6.645 3.098-1.069 9.74-1.821 10.03 3.714.205 3.899-7.545 5.466-7.545 5.466"/><path style="fill:none;stroke:#f4f4f7;stroke-width:2.73684216" d="M12.568 5.421c-.211 3.311-.64 12.986 1.19 16.607"/><path style="fill:none;stroke:#f4f4f7;stroke-width:2.73684216" d="M7.185 9.396c4.916.342 10.016-.012 14.839-.779"/><circle style="opacity:.2" cx="22.5" cy="27.5" r="3.5"/><circle style="fill:#f4f4f7" cx="22.5" cy="26.5" r="3.5"/><path style="fill:#f4f4f7;opacity:.2" d="M14 2C6.798 2 1 7.798 1 15c0 .169.02.333.025.5A12.96 12.96 0 0 1 14 3a12.96 12.96 0 0 1 12.975 12.5c.006-.167.025-.331.025-.5 0-7.202-5.798-13-13-13z"/></svg>