<svg height="32" width="32" xmlns="http://www.w3.org/2000/svg"><path d="m16 7a9.5 9.5 0 0 0 -7.746 4.014 7.5 7.5 0 0 0 -6.338 3.91l-.014.004a7.472 7.472 0 0 0 -.902 3.572 7.47 7.47 0 0 0 2.205 5.297c.273.273.566.527.879.756l.047.031c.186.134.378.26.576.377.044.026.09.049.135.074" opacity=".2"/><circle cx="16" cy="15.5" fill="#056ab6" r="9.5"/><path d="m16 6a9.5 9.5 0 0 0 -9.5 9.5 9.5 9.5 0 0 0 .02.586 9.5 9.5 0 0 1 9.48-9.086 9.5 9.5 0 0 1 9.48 8.914 9.5 9.5 0 0 0 .02-.414 9.5 9.5 0 0 0 -9.5-9.5z" fill="#f4f4f7" opacity=".1"/><path d="m25 13c-.849.042-1.586.2-2.28.453l-.001.002-6.537 2.729-13.743 5.72a7.482 7.482 0 0 0 5.38 3.06v.036h17.181a6 6 0 1 0 0-12z" fill="#138fe6"/><path d="m8.5 10a7.5 7.5 0 0 0 -6.584 3.924l-.013.004a7.5 7.5 0 0 0 5.915 11.037v.035h17.046a6.136 6.136 0 0 0 5.414-3.257l-10.523-6.273-7.558-4.506-.024.007a7.5 7.5 0 0 0 -3.673-.971z" fill="#1581d9"/><path d="m18.986 15.012-2.804 1.172-13.743 5.72a7.56 7.56 0 0 0 1.645 1.649l.047.031c.186.134.378.26.576.377.044.026.09.05.135.074a7.455 7.455 0 0 0 .717.356c.17.073.344.138.521.199.066.022.13.046.197.066.187.058.38.105.573.149.064.014.126.032.191.045.255.05.514.09.777.115v.035h17.045a6.136 6.136 0 0 0 5.414-3.258l-10.521-6.271-.77-.46z" fill="#38afec"/><g fill="#f4f4f7"><path d="m25 13c-.849.042-1.586.2-2.28.453l-.001.002-6.537 2.729-13.743 5.72c.19.262.404.506.625.74l13.118-5.46 6.537-2.729.002-.002a7.604 7.604 0 0 1 2.279-.453c3.145 0 5.72 2.42 5.975 5.5a6.04 6.04 0 0 0 .025-.5 6 6 0 0 0 -6-6z" opacity=".2"/><path d="m8.5 10a7.5 7.5 0 0 0 -6.584 3.924l-.014.004a7.472 7.472 0 0 0 -.902 3.572c0 .19.013.378.027.564a7.463 7.463 0 0 1 .875-3.136l.014-.004a7.5 7.5 0 0 1 6.584-3.924 7.5 7.5 0 0 1 3.672.973l.025-.008 7.559 4.506 10.066 6c.168-.23.32-.473.455-.729l-10.521-6.271-7.559-4.506-.025.008a7.5 7.5 0 0 0 -3.672-.973z" opacity=".1"/></g></svg>