<svg xmlns="http://www.w3.org/2000/svg" width="32" height="32"><path style="opacity:.2" d="M16 7a9.5 9.5 0 0 0-7.746 4.014 7.5 7.5 0 0 0-6.338 3.91l-.014.004A7.472 7.472 0 0 0 1 18.5a7.47 7.47 0 0 0 2.205 5.297c.273.273.566.527.879.756l.047.031c.186.134.378.26.576.377.044.026.09.049.135.074a7.444 7.444 0 0 0 .717.356c.17.072.344.138.521.199.066.022.13.046.197.066.188.058.38.105.573.149.064.014.126.032.191.045.255.05.513.09.777.115V26H25a5.997 5.997 0 0 0 .166-11.992A9.5 9.5 0 0 0 16 7z"/><circle style="fill:#056ab6" cx="16" cy="15.5" r="9.5"/><path style="opacity:.1;fill:#f4f4f7" d="M16 6a9.5 9.5 0 0 0-9.5 9.5 9.5 9.5 0 0 0 .02.586A9.5 9.5 0 0 1 16 7a9.5 9.5 0 0 1 9.48 8.914 9.5 9.5 0 0 0 .02-.414A9.5 9.5 0 0 0 16 6z"/><path style="fill:#138fe6" d="M25 13c-.849.042-1.586.2-2.28.453l-.001.002-6.537 2.729-13.743 5.72a7.482 7.482 0 0 0 5.38 3.06V25H25a6 6 0 1 0 0-12z"/><path style="fill:#1581d9" d="M8.5 10a7.5 7.5 0 0 0-6.584 3.924l-.013.004a7.5 7.5 0 0 0 5.915 11.037V25h17.046a6.136 6.136 0 0 0 5.414-3.257L19.755 15.47l-7.558-4.506-.024.007A7.5 7.5 0 0 0 8.5 10z"/><path style="fill:#38afec" d="m18.986 15.012-2.804 1.172-13.743 5.72a7.56 7.56 0 0 0 1.645 1.649l.047.031c.186.134.378.26.576.377.044.026.09.05.135.074a7.455 7.455 0 0 0 .717.356c.17.073.344.138.521.199.066.022.13.046.197.066.187.058.38.105.573.149.064.014.126.032.191.045.255.05.514.09.777.115V25H24.863a6.136 6.136 0 0 0 5.414-3.258l-10.521-6.271-.77-.46z"/><path style="opacity:.2;fill:#f4f4f7" d="M25 13c-.849.042-1.586.2-2.28.453l-.001.002-6.537 2.729-13.743 5.72c.19.262.404.506.625.74l13.118-5.46 6.537-2.729.002-.002A7.604 7.604 0 0 1 25 14c3.145 0 5.72 2.42 5.975 5.5A6.04 6.04 0 0 0 31 19a6 6 0 0 0-6-6z"/><path style="opacity:.1;fill:#f4f4f7" d="M8.5 10a7.5 7.5 0 0 0-6.584 3.924l-.014.004A7.472 7.472 0 0 0 1 17.5c0 .19.013.378.027.564a7.463 7.463 0 0 1 .875-3.136l.014-.004A7.5 7.5 0 0 1 8.5 11a7.5 7.5 0 0 1 3.672.973l.025-.008 7.559 4.506 10.066 6c.168-.23.32-.473.455-.729l-10.521-6.271-7.559-4.506-.025.008A7.5 7.5 0 0 0 8.5 10z"/></svg>