<svg height="64" width="64" xmlns="http://www.w3.org/2000/svg">
    <filter id="c" color-interpolation-filters="sRGB" height="1.216" width="1.216" x="-.108" y="-.108">
        <feGaussianBlur stdDeviation="1.44"/>
    </filter>
    <filter id="a" color-interpolation-filters="sRGB" height="1.054" width="1.054" x="-.027" y="-.027">
        <feGaussianBlur stdDeviation=".619"/>
    </filter>
    <linearGradient id="b" gradientUnits="userSpaceOnUse" x1="4.5" x2="59.5" y1="59.49" y2="4.49">
        <stop offset="0" stop-color="#32d7ff"/>
        <stop offset="1" stop-color="#329bff"/>
    </linearGradient>
    <rect fill="#141414" filter="url(#a)" height="55" opacity=".3" ry="15" width="55" x="4.5" y="4.5"/>
    <rect fill="url(#b)" height="55" ry="15" width="55" x="4.5" y="4.5"/>
    <path d="M32 17.13a16 16 0 0 0-16 16 16 16 0 0 0 16 16 16 16 0 0 0 16-16 16 16 0 0 0-16-16zm-4.26 6.66c.348.018.674.133.977.344l11.213 7.727c.353.249.598.577.734.982.137.406.137.815 0 1.225a1.886 1.886 0 0 1-.738.978l-11.21 7.727a1.875 1.875 0 0 1-1.331.328 1.882 1.882 0 0 1-1.213-.639 1.872 1.872 0 0 1-.49-1.283V25.73c0-.49.165-.92.49-1.286a1.882 1.882 0 0 1 1.213-.639c.12-.015.24-.02.355-.013z" filter="url(#c)" image-rendering="optimizeSpeed" opacity=".15"/>
    <path d="M32 16a16 16 0 0 0-16 16 16 16 0 0 0 16 16 16 16 0 0 0 16-16 16 16 0 0 0-16-16zm-4.26 6.66c.348.018.674.133.977.344L39.93 30.73c.353.25.598.578.734.983.137.405.137.815 0 1.224a1.886 1.886 0 0 1-.738.979l-11.21 7.727a1.875 1.875 0 0 1-1.331.328 1.882 1.882 0 0 1-1.213-.639 1.872 1.872 0 0 1-.49-1.283V24.598c0-.49.165-.92.49-1.285a1.882 1.882 0 0 1 1.213-.64c.12-.015.24-.019.355-.013z" fill="#fff"/>
</svg>
