<svg height="64" width="64" xmlns="http://www.w3.org/2000/svg" xmlns:xlink="http://www.w3.org/1999/xlink"><filter id="a" color-interpolation-filters="sRGB" height="1.096" width="1.096" x="-.048" y="-.048"><feGaussianBlur stdDeviation="1.1"/></filter><linearGradient id="b" gradientUnits="userSpaceOnUse" x1="52.148" x2="107.148" y1="69.228" y2="14.228"><stop offset="0" stop-color="#ffc841"/><stop offset=".4925" stop-color="#ffbe37"/><stop offset="1" stop-color="#ffc841"/></linearGradient><filter id="c" color-interpolation-filters="sRGB" height="1.1898" width="1.3198" x="-.15989" y="-.094877"><feGaussianBlur stdDeviation=".25608494"/></filter><g transform="translate(-47.648 -9.7283)"><rect filter="url(#a)" height="55" opacity=".3" rx="13.002" width="55" x="52.148" y="14.228"/><rect fill="url(#b)" height="55" rx="13.002" width="55" x="52.148" y="14.228"/></g><g transform="translate(-51.788 -26.784)"><circle cx="78.757" cy="66.891" fill="none" r="7.5868" stroke="#fff" stroke-dashoffset=".42096" stroke-width="5.3999"/><path d="m9.3776 3.1823v6.4778h1.4265v-4.1276s.45602.22216.54956.24555c.09354.023386 1.9176.72495.99389 2.7595l.04099.023665s1.4708-1.8189.50345-3.208c-.96736-1.389-1.7125-1.1671-3.5144-2.171z" fill="#cc8d00" filter="url(#c)" transform="matrix(3.4966 0 0 3.4783 50.726 31.459)"/><path d="m83.65 42.656v24.483h5.3916v-15.601s1.7236.83968 2.0771.92808c.35354.08839 7.2478 2.74 3.7565 10.43l.15493.08944s5.559-6.8747 1.9028-12.125c-3.6562-5.2499-6.4726-4.4112-13.283-8.2055z" fill="#fff" stroke-width="3.7796"/></g></svg>