<svg height="32" width="32" xmlns="http://www.w3.org/2000/svg">
    <rect height="28" opacity=".2" rx="2.8" width="28" x="2" y="3"/>
    <rect fill="#292d96" height="28" rx="2.8" width="28" x="2" y="2"/>
    <path d="M4.8 2C3.25 2 2 3.25 2 4.8v22.4c0 .775.312 1.476.818 1.982L29.182 2.818A2.793 2.793 0 0 0 27.199 2z" fill="#0072c0"/>
    <path d="M4 28c0 .554.446 1 1 1h2c.554 0 1-.446 1-1v-2c0-.554-.446-1-1-1H5c-.554 0-1 .446-1 1zm0-5c0 .554.446 1 1 1h2c.554 0 1-.446 1-1v-2c0-.554-.446-1-1-1H5c-.554 0-1 .446-1 1zm0-5c0 .554.446 1 1 1h2c.554 0 1-.446 1-1v-2c0-.554-.446-1-1-1H5c-.554 0-1 .446-1 1zm0-5c0 .554.446 1 1 1h2c.554 0 1-.446 1-1v-2c0-.554-.446-1-1-1H5c-.554 0-1 .446-1 1zm0-5c0 .554.446 1 1 1h2c.554 0 1-.446 1-1V6c0-.554-.446-1-1-1H5c-.554 0-1 .446-1 1z" opacity=".2"/>
    <path d="M4 27c0 .554.446 1 1 1h2c.554 0 1-.446 1-1v-2c0-.554-.446-1-1-1H5c-.554 0-1 .446-1 1zm0-5c0 .554.446 1 1 1h2c.554 0 1-.446 1-1v-2c0-.554-.446-1-1-1H5c-.554 0-1 .446-1 1zm0-5c0 .554.446 1 1 1h2c.554 0 1-.446 1-1v-2c0-.554-.446-1-1-1H5c-.554 0-1 .446-1 1zm0-5c0 .554.446 1 1 1h2c.554 0 1-.446 1-1v-2c0-.554-.446-1-1-1H5c-.554 0-1 .446-1 1zm0-5c0 .554.446 1 1 1h2c.554 0 1-.446 1-1V5c0-.554-.446-1-1-1H5c-.554 0-1 .446-1 1z" fill="#f4f4f7"/>
    <path d="M4.8 2C3.25 2 2 3.25 2 4.8v1C2 4.25 3.25 3 4.8 3h22.4C28.75 3 30 4.25 30 5.8v-1C30 3.25 28.75 2 27.2 2z" fill="#f4f4f7" opacity=".2"/>
    <path d="M22 6v1h6V6zm0 2v1h5V8zm0 2v1h6v-1zm0 2v1h2v-1zm0 2v1h6v-1zm0 2v1h5v-1zm0 2v1h4v-1zm0 2v1h6v-1z" opacity=".2"/>
    <path d="M22 5v1h6V5zm0 2v1h5V7zm0 2v1h6V9zm0 2v1h2v-1zm0 2v1h6v-1zm0 2v1h5v-1zm0 2v1h4v-1zm0 2v1h6v-1z" fill="#ffbb1f"/>
</svg>
