<svg width="32" height="32" xmlns="http://www.w3.org/2000/svg"><rect transform="matrix(0 -1 -1 0 0 0)" x="-29" y="-24" width="21" height="16" rx="1.25" ry="1.25" style="opacity:.2"/><rect transform="matrix(0 -1 -1 0 0 0)" x="-28" y="-24" width="21" height="16" rx="1.25" ry="1.25" style="fill:#8e8e8e"/><rect transform="matrix(0 -1 -1 0 0 0)" x="-26" y="-29" width="20" height="26" rx="1.25" ry="1.25" style="opacity:.2"/><rect transform="matrix(0 -1 -1 0 0 0)" x="-25" y="-29" width="20" height="26" rx="1.25" ry="1.25" style="fill:#8b9cbe"/><rect transform="matrix(0 -1 -1 0 0 0)" x="-23" y="-27" width="16" height="22" rx="0" ry="0" style="fill:#0cf"/><path d="M4.25 5C3.558 5 3 5.558 3 6.25v1C3 6.558 3.558 6 4.25 6h23.5c.692 0 1.25.558 1.25 1.25v-1C29 5.558 28.442 5 27.75 5zM5 23h22v1H5z" style="fill:#f4f4f7;opacity:.1"/><path style="opacity:.2" d="M5 7h22v1H5z"/><style id="style1086" type="text/css"></style><path d="M16 10a6 6 0 0 0-3.822 1.38l2.09 3.62 2.826-4.896A6 6 0 0 0 16 10zm2.089.383L16 14h5.65a6 6 0 0 0-3.561-3.617zm-6.649 1.72A6 6 0 0 0 10.085 17h4.183zM17.732 15l2.828 4.896A6 6 0 0 0 21.915 15zm0 2-2.826 4.896A6 6 0 0 0 16 22a6 6 0 0 0 3.822-1.38zm-7.381 1a6 6 0 0 0 3.56 3.617L16 18z" style="opacity:.2"/><path d="M16 9a6 6 0 0 0-3.822 1.38l2.09 3.62 2.826-4.896A6 6 0 0 0 16 9zm2.089.383L16 13h5.65a6 6 0 0 0-3.561-3.617zm-6.649 1.72A6 6 0 0 0 10.085 16h4.183zM17.732 14l2.828 4.896A6 6 0 0 0 21.915 14zm0 2-2.826 4.896A6 6 0 0 0 16 21a6 6 0 0 0 3.822-1.38zm-7.381 1a6 6 0 0 0 3.56 3.617L16 17z" style="fill:#8b9cbe"/><circle cx="16" cy="16" r="1" style="opacity:.2"/><circle cx="16" cy="15" r="1" style="fill:#f4f4f7"/></svg>