<svg xmlns="http://www.w3.org/2000/svg" width="32" height="32"><circle style="opacity:.2" cx="15.5" cy="16.5" r="14.5"/><circle style="fill:#f4f4f7" cx="15.5" cy="15.5" r="14.5"/><path style="opacity:.1" d="M15.389 8C10.602 8 6 11.806 6 16.5s4.602 8.5 9.389 8.5A8.81 8.81 0 0 0 19 24.217V20h7.25l-2.9-3H19v2.963a5.106 5.106 0 0 1-3.611 1.496c-2.792 0-5.778-2.22-5.778-4.959 0-2.738 2.986-4.959 5.778-4.959 1.359 0 2.66.538 3.611 1.49V8.785A8.811 8.811 0 0 0 15.389 8zM19 13.031v3h4.35l2.9-3z"/><path style="fill:#003079" d="M15.389 7C10.602 7 6 10.806 6 15.5s4.602 8.5 9.389 8.5A8.809 8.809 0 0 0 19 23.217v-4.254a5.105 5.105 0 0 1-3.611 1.495c-2.792 0-5.778-2.22-5.778-4.958s2.986-4.958 5.778-4.958c1.359 0 2.66.537 3.611 1.49V7.784A8.81 8.81 0 0 0 15.389 7zM19 12.032h7.25l-2.9 3H19z"/><path style="fill:#ff2f2f" d="M19 19h7.25l-2.9-3H19z"/><path style="fill:#f4f4f7;opacity:.2" d="M15.5 1A14.5 14.5 0 0 0 1 15.5a14.5 14.5 0 0 0 .021.58A14.5 14.5 0 0 1 15.5 2a14.5 14.5 0 0 1 14.479 13.92A14.5 14.5 0 0 0 30 15.5 14.5 14.5 0 0 0 15.5 1z"/></svg>