<svg height="32" width="32" xmlns="http://www.w3.org/2000/svg"><rect height="29" opacity=".2" rx="8.7" width="29" x="2" y="2"/><rect fill="#795548" height="29" rx="8.7" width="29" x="2" y="1"/><path d="m10.7 1c-1.02 0-1.992.182-2.9.501v5.299h5.8v-5.8zm2.9 5.8v5.8h5.8v-5.8zm5.8 0h5.8v-5.299a8.712 8.712 0 0 0 -2.9-.501h-2.9zm5.8 0v5.8h5.8v-2.9c0-1.02-.182-1.992-.501-2.9zm0 5.8h-5.8v5.8h5.8zm0 5.8v5.8h5.299c.32-.908.501-1.88.501-2.9v-2.9zm0 5.8h-5.8v5.8h2.9c1.02 0 1.992-.182 2.9-.501zm-5.8 0v-5.8h-5.8v5.8zm-5.8 0h-5.8v5.299c.908.32 1.88.501 2.9.501h2.9zm-5.8 0v-5.8h-5.8v2.9c0 1.02.182 1.992.501 2.9zm0-5.8h5.8v-5.8h-5.8zm0-5.8v-5.8h-5.299a8.712 8.712 0 0 0 -.501 2.9v2.9z" fill="#6d4c41"/><path d="m12 11h9v13h-9z" fill="#bdbdbd"/><path d="m9 6v4.2c0 1.551 1.338 2.8 3 2.8h9c1.662 0 3-1.249 3-2.8v-4.2h-3v3h-3v-3h-3v3h-3v-3z" opacity=".2"/><path d="m9 5v4.2c0 1.551 1.338 2.8 3 2.8h9c1.662 0 3-1.249 3-2.8v-4.2h-3v3h-3v-3h-3v3h-3v-3z" fill="#f4f4f7"/><path d="m10.125 23c-1.177 0-2.125.892-2.125 2v2h17v-2c0-1.108-.948-2-2.125-2z" opacity=".2"/><g fill="#f4f4f7"><path d="m10.125 22c-1.177 0-2.125.892-2.125 2v2h17v-2c0-1.108-.948-2-2.125-2z"/><path d="m10.7 1a8.68 8.68 0 0 0 -8.7 8.7v1c0-4.82 3.88-8.7 8.7-8.7h11.6c4.82 0 8.7 3.88 8.7 8.7v-1c0-4.82-3.88-8.7-8.7-8.7z" opacity=".1"/></g></svg>