<svg xmlns="http://www.w3.org/2000/svg" width="32" height="32">
    <rect style="opacity:.2" width="28" height="28" x="2" y="3" rx="1.4" ry="1.4"/>
    <rect style="fill:#f4f4f7" width="28" height="28" x="2" y="2" rx="1.4" ry="1.4"/>
    <path style="opacity:.1" d="m14 6-8 4.588v5.061l.771.392c.507-.262.844-.783.844-.783l1.457.686v5.947l1.928.516 2.053-.77.002-4.064 1.427 3.01.614.417H17l2-1.662v8.238l1.988.852L23 27.522v-9.903l3-1.984v-3.398l-2-2.473v3.266l-7 4.058-2.334-2.181-1.611.927 1.406.963-1.406-.96v-.005L21 11.102V9.41l-1.385-.82L21 9.403V7.686l-2.117-1.264L17 7.235V6zm2.47 4h.757l-4.172 2.364v-.497zm1.673 1.104-5.088 3.054v-.007z"/>
    <path style="fill:#9e9d24" d="M14 5h3v3h-3z"/>
    <path style="fill:#8e24aa" d="m14.483 19.583-1.454-3.063 1.432-.724.714 1.31.633.894zM24 11.268l1.18 1.019-1.18.602z"/>
    <path style="fill:#b71c1c" d="M19 16.718 17 18v-1.912l7-4.059v1.818l-2.989 1.968v9.887L19 26.576zm-9.929-5.762L6 12.982V9.587L14 5v3l-3 2.03v10.027l-1.929.833zm3.981.41 5.09-2.886v1.623l-5.09 3.05z"/>
    <path style="fill:#283593" d="m19 26.576 1.989-.869 2.011.814-2.011.906zM9.071 20.89 11 20.057l2.052.58-2.052.769zm5.412-1.307L15.808 18H17l2-1.282v1.62L17 20h-1.904zm-1.431-4.75v-1.672l5.09-3.058V8.48l-.867.52h-.804l-3.416 1.867L11 10.03 14 8h3l1.143.48 1.472-.89L21 8.41v1.692l-7.948 4.731 1.41.963-1.433.724zm7.96.982L24 13.847v-.958l1.18-.602.82.634v1.713l-3 1.985zM6 14.648v-1.666l3.071-2.026v3.987l-1.456-.686s-.337.522-.844.784z"/>
    <path style="fill:#2e7d32" d="m20.989 25.707.022-9.892 1.989.804v9.902zM11 20.057V10.03l2.055.837-.003 9.77zm4.175-2.951-.714-1.31-1.409-.963 1.614-.927L17 16.088V18h-1.192zm-6.769-4.171.665-.305v.814l-.665.296zm16.774-.648L24 11.268V8.764l2 2.472v1.685zM17 8V6.234l1.883-.812L21 6.686v1.717l-1.385-.814-1.472.89z"/>
    <path style="fill:#f4f4f7;opacity:.2" d="M3.4 2C2.625 2 2 2.625 2 3.4v1C2 3.625 2.625 3 3.4 3h25.2c.775 0 1.4.625 1.4 1.4v-1c0-.775-.625-1.4-1.4-1.4H3.4z"/>
</svg>
