<svg xmlns="http://www.w3.org/2000/svg" width="32" height="32" version="1"><rect fill="#c2352a" width="28" height="28" x="2" y="2" rx="1.4" ry="1.4"/><g opacity=".2"><path d="M11 9v16h4V15h2v10h4V15h2v10h4V9M5 9h4v10H5zM5 21h4v4H5z"/></g><g fill="#fff"><path d="M11 8v16h4V14h2v10h4V14h2v10h4V8M5 8h4v10H5zM5 20h4v4H5z"/></g><path fill="#fff" opacity=".2" d="M3.4 2C2.625 2 2 2.625 2 3.4v1C2 3.625 2.625 3 3.4 3h25.2c.775 0 1.4.625 1.4 1.4v-1c0-.775-.625-1.4-1.4-1.4H3.4z"/><path opacity=".2" d="M2 28.6v1c0 .775.625 1.4 1.4 1.4h25.2c.775 0 1.4-.625 1.4-1.4v-1c0 .775-.625 1.4-1.4 1.4H3.4c-.775 0-1.4-.625-1.4-1.4z"/></svg>