<svg xmlns="http://www.w3.org/2000/svg" width="32" height="32" version="1"><rect style="opacity:.2" width="28" height="28" x="2" y="3" rx="1.4" ry="1.4"/><rect style="fill:#f4f4f7" width="27" height="28" x="-30" y="-30" rx="1.4" ry="1.4" transform="matrix(0 -1 -1 0 0 0)"/><path style="opacity:.2" d="M2 9v1h28V9z"/><path style="fill:#086cd6" d="M3.4 2C2.625 2 2 2.625 2 3.4V9h28V3.4c0-.775-.625-1.4-1.4-1.4z"/><path style="opacity:.2" d="M6 13v1h20v-1zm0 4v1h16v-1zm0 4v1h18v-1zm0 4v1h14v-1z"/><path style="opacity:.2;fill:#f4f4f7" d="M3.4 2C2.625 2 2 2.625 2 3.4v1C2 3.625 2.625 3 3.4 3h25.2c.775 0 1.4.625 1.4 1.4v-1c0-.775-.625-1.4-1.4-1.4H3.4z"/></svg>