<svg height="32" width="32" xmlns="http://www.w3.org/2000/svg">
    <rect height="24" opacity=".2" rx="12" transform="matrix(0 -1 -1 0 0 0)" width="24" x="-29" y="-28"/>
    <rect fill="#4ca341" height="24" rx="12" transform="matrix(0 -1 -1 0 0 0)" width="24" x="-28" y="-28"/>
    <path d="M16 4C9.352 4 4 9.352 4 16c0 .169.019.333.025.5A11.962 11.962 0 0 1 16 5c6.48 0 11.712 5.088 11.975 11.5.006-.167.025-.331.025-.5 0-6.648-5.352-12-12-12z" fill="#f4f4f7" opacity=".2"/>
    <path d="M16 3a14 14 0 0 0-6.5 1.61A14 14 0 0 1 17 17a14 14 0 0 1-7.5 12.39A14 14 0 0 0 16 31a14 14 0 0 0 14-14A14 14 0 0 0 16 3z" opacity=".2"/>
    <g fill="#f4f4f7">
        <path d="M16 2a14 14 0 0 0-6.5 1.61A14 14 0 0 1 17 16a14 14 0 0 1-7.5 12.39A14 14 0 0 0 16 30a14 14 0 0 0 14-14A14 14 0 0 0 16 2z"/>
        <path d="M16 2a14 14 0 0 0-6.5 1.61 14 14 0 0 1 .94.554A14 14 0 0 1 16 3a14 14 0 0 1 13.979 13.586A14 14 0 0 0 30 16 14 14 0 0 0 16 2zm.977 14.47A14 14 0 0 1 9.5 28.39a14 14 0 0 0 .959.8" opacity=".2"/>
    </g>
</svg>
