<svg height="32" width="32" xmlns="http://www.w3.org/2000/svg">
    <rect height="28" opacity=".2" rx="1.4" width="28" x="2" y="3"/>
    <rect fill="#e54031" height="28" rx="1.4" width="28" x="2" y="2"/>
    <path d="M12 4A15.996 15.996 0 0 0 2 7.531v.58A14.492 14.492 0 0 1 9.5 6a14.48 14.48 0 0 1 10.205 4.205L22.98 8.4A15.958 15.958 0 0 0 12 4zm13.184 6.963-2.813 2.892a14.462 14.462 0 0 1 1.397 4.084l4.048-.226a15.947 15.947 0 0 0-2.632-6.75zm2.752 7.746-4.038.225A14.5 14.5 0 0 1 24 20.5a16.73 16.73 0 0 1-.025.5h3.988c.023-.333.035-.666.037-1a16.01 16.01 0 0 0-.064-1.291zM23.92 22a14.5 14.5 0 0 1-.377 2.04l3.879.216A16 16 0 0 0 27.854 22zm-.656 3.025a14.5 14.5 0 0 1-.785 1.903l3.42.959a16 16 0 0 0 1.199-2.649z" opacity=".4"/>
    <path d="M25 10 10.91 24.492l-2.045-5.596z" opacity=".2"/>
    <path d="M25 9 10.91 23.492l-2.045-5.596z" fill="#f4f4f7"/>
    <circle cx="11" cy="21" opacity=".2" r="5"/>
    <g fill="#f4f4f7">
        <circle cx="11" cy="20" r="5"/>
        <path d="M3.4 2C2.625 2 2 2.625 2 3.4v1C2 3.625 2.625 3 3.4 3h25.2c.775 0 1.4.625 1.4 1.4v-1c0-.775-.625-1.4-1.4-1.4z" opacity=".2"/>
    </g>
</svg>
