<svg xmlns="http://www.w3.org/2000/svg" width="32" height="32" version="1"><path style="opacity:.2" d="M28 28.65V4.35C28 3.602 27.359 3 26.562 3H6.438C5.641 3 5 3.602 5 4.35v24.3c0 .748.641 1.35 1.438 1.35h20.125c.796 0 1.437-.602 1.437-1.35z"/><path style="fill:#f4f4f7" d="M28 27.65V3.35C28 2.602 27.359 2 26.562 2H6.438C5.641 2 5 2.602 5 3.35v24.3c0 .748.641 1.35 1.438 1.35h20.125c.796 0 1.437-.602 1.437-1.35z"/><path style="opacity:.1" d="M8.5 4C7.669 4 7 4.669 7 5.5v6c0 .831.669 1.5 1.5 1.5h6c.831 0 1.5-.669 1.5-1.5v-6c0-.831-.669-1.5-1.5-1.5h-6zM18 4v1h8V4h-8zm0 4v1h8V8h-8zm0 4v1h8v-1h-8zM7 16v1h19v-1H7zm0 4v1h19v-1H7zm0 4v1h19v-1H7z"/><path style="opacity:.1" d="M19.828 3.005c-1.764.014-2.037-.016-3.987 0-1.626 1.54-3.004 3.587-4.132 5.913-1.74 3.592-2.155 6.626-1.228 9.113.928 2.488 3.056 4.047 6.376 4.684 3.49.67 6.724.16 9.707-1.545.456-.26 1.003-.55 1.431-.857-.01-1.244.015-2.135 0-3.979-1.078 1.49-2.378 2.698-3.643 3.617-2.237 1.628-4.55 2.208-6.947 1.748-2.28-.437-3.62-1.732-4.013-3.886-.378-2.162.24-4.904 1.854-8.234 1.324-2.731 2.85-4.98 4.582-6.574z"/><path style="fill:#218ed4" d="M19.828 2.005c-1.764.014-2.037-.016-3.987 0-1.626 1.54-3.004 3.587-4.132 5.913-1.74 3.592-2.155 6.626-1.228 9.113.928 2.488 3.056 4.047 6.376 4.684 3.49.67 6.724.16 9.707-1.545.456-.26 1.003-.55 1.431-.857-.01-1.244.015-2.135 0-3.979-1.078 1.49-2.378 2.698-3.643 3.617-2.237 1.628-4.55 2.208-6.947 1.748-2.28-.437-3.62-1.732-4.013-3.886-.378-2.162.24-4.904 1.854-8.234 1.324-2.731 2.85-4.98 4.582-6.574z"/><path style="opacity:.2;fill:#f4f4f7" d="M6.438 2C5.64 2 5 2.602 5 3.35v1C5 3.602 5.641 3 6.438 3h20.125C27.358 3 28 3.602 28 4.35v-1C28 2.602 27.359 2 26.562 2z"/></svg>