<svg height="32" width="32" xmlns="http://www.w3.org/2000/svg"><ellipse cx="16" cy="11" opacity=".2" rx="11" ry="3"/><path d="m9 6s0-4 3-4c2 0 4 2 4 2s2-2 4-2c3 0 3 4 3 4l-7 1z" fill="#17191e"/><path d="m12 2c-3 0-3 4-3 4l.11.016c.207-1.184.85-3.016 2.89-3.016 2 0 4 2 4 2s2-2 4-2c2.04 0 2.682 1.832 2.89 3.016l.11-.016s0-4-3-4c-2 0-4 2-4 2s-2-2-4-2z" fill="#f4f4f7" opacity=".1"/><path d="m9 6h14v2h-14z" fill="#f4f4f7"/><path d="m11.898 19 4.102 1 4-1 3-8s-3.135-1-7-1-7 1-7 1zm2.102 9s1 3 2 3 2-3 2-3l-2-1z" opacity=".2"/><ellipse cx="16" cy="10" fill="#4f4f4f" rx="11" ry="3"/><path d="m16 7a11 3 0 0 0 -11 3 11 3 0 0 0 .16.51 11 3 0 0 1 10.84-2.51 11 3 0 0 1 10.84 2.49 11 3 0 0 0 .16-.49 11 3 0 0 0 -11-3z" fill="#f4f4f7" opacity=".1"/><path d="m11.898 18 4.102 1 4-1 3-8s-3.135-1-7-1-7 1-7 1zm2.102 9s1 3 2 3 2-3 2-3l-2-1z" fill="#f2a9a2"/><path d="m12 19h8c0 3-2 9-2 9h-4s-2-6.486-2-9z" opacity=".1"/><path d="m12 18h8c0 3-2 9-2 9h-4s-2-6.486-2-9z" fill="#4f4f4f"/><path d="m15.602 10.012a25.621 25.621 0 0 0 -5.436.691 3 4 0 0 0 -.166 1.297 3 4 0 0 0 3 4 3 4 0 0 0 3-4 3 4 0 0 0 -.398-1.988zm.398 1.988a3 4 0 0 0 3 4 3 4 0 0 0 3-4 3 4 0 0 0 -.166-1.297c-1.17-.28-3.102-.65-5.434-.691a3 4 0 0 0 -.4 1.988z" opacity=".2"/><path d="m15.602 9.012a25.622 25.622 0 0 0 -5.436.691 3 4 0 0 0 -.166 1.297 3 4 0 0 0 3 4 3 4 0 0 0 3-4 3 4 0 0 0 -.398-1.988zm.398 1.988a3 4 0 0 0 3 4 3 4 0 0 0 3-4 3 4 0 0 0 -.166-1.297c-1.17-.28-3.102-.65-5.434-.691a3 4 0 0 0 -.4 1.988z" fill="#f4f4f7"/><circle cx="13.5" cy="11.5" fill="#17191e" r="1.5"/><circle cx="18.5" cy="11.5" fill="#17191e" r="1.5"/><path d="m12 19 2 2v2l2 1 2-1v-2l2-2h-4z" opacity=".2"/><path d="m12 18 2 2v2l2 1 2-1v-2l2-2z" fill="#f4f4f7"/><path d="m14 18 2 5 2-5z" fill="#f43e3e"/><path d="m15 19 1 1-1 4 1 1 1-1-1-4 1-1z" opacity=".2"/><path d="m15 18 1 1-1 4 1 1 1-1-1-4 1-1z" fill="#f4f4f7"/></svg>