<svg height="32" width="32" xmlns="http://www.w3.org/2000/svg"><path d="m20 4c7 0 10 4 10 10v6c0 6-3 10-10 10h-8c-7 0-10-4-10-10v-6c0-6 3-10 10-10z" opacity=".2"/><path d="m20 3c7 0 10 4 10 10v6c0 6-3 10-10 10h-8c-7 0-10-4-10-10v-6c0-6 3-10 10-10z" fill="#4f4f4f"/><path d="m12 3c-7 0-10 4-10 10v1c0-6 3-10 10-10h8c7 0 10 4 10 10v-1c0-6-3-10-10-10z" fill="#f4f4f7" opacity=".1"/><path d="m15 13c-1.662 0-3 1.338-3 3v4c0 1.662 1.338 3 3 3h2c1.662 0 3-1.338 3-3v-4c0-1.662-1.338-3-3-3zm1 2c1.108 0 2 .892 2 2v2c0 1.108-.892 2-2 2s-2-.892-2-2v-2c0-1.108.892-2 2-2z" opacity=".2"/><path d="m15 12c-1.662 0-3 1.338-3 3v4c0 1.662 1.338 3 3 3h2c1.662 0 3-1.338 3-3v-4c0-1.662-1.338-3-3-3zm1 2c1.108 0 2 .892 2 2v2c0 1.108-.892 2-2 2s-2-.892-2-2v-2c0-1.108.892-2 2-2z" fill="#9aec2d"/><path d="m25 13c-1.662 0-3 1.338-3 3v3h6a1.996 1.996 0 0 1 -3.725 1h-2.275c0 1.662 1.338 3 3 3h2c1.662 0 3-1.338 3-3v-3h-6a1.996 1.996 0 0 1 3.725-1h2.275c0-1.662-1.338-3-3-3z" opacity=".2"/><path d="m25 12c-1.662 0-3 1.338-3 3v3h6a1.996 1.996 0 0 1 -3.725 1h-2.275c0 1.662 1.338 3 3 3h2c1.662 0 3-1.338 3-3v-3h-6a1.996 1.996 0 0 1 3.725-1h2.275c0-1.662-1.338-3-3-3z" fill="#9aec2d"/><path d="m15 12c-1.662 0-3 1.338-3 3v1c0-1.662 1.338-3 3-3h2c1.662 0 3 1.338 3 3v-1c0-1.662-1.338-3-3-3zm-1 6v1c0 1.108.892 2 2 2s2-.892 2-2v-1c0 1.108-.892 2-2 2s-2-.892-2-2zm11-6c-1.662 0-3 1.338-3 3v1c0-1.662 1.338-3 3-3h2c1.31 0 2.407.835 2.818 2h.182c0-1.662-1.338-3-3-3zm-.725 4a1.982 1.982 0 0 0 -.275 1h6v-1zm-2.275 3c0 .353.07.686.182 1h2.093a1.996 1.996 0 0 0 3.725-1h-.275c-.346.596-.984 1-1.725 1s-1.379-.404-1.725-1z" fill="#f4f4f7" opacity=".2"/></svg>