<svg xmlns="http://www.w3.org/2000/svg" width="32" height="32"><path style="opacity:.2" d="M11.645 28.822c-4.703-.73-8.209-3.704-9.352-7.932-.409-1.512-.388-3.854.05-5.503C3.787 9.95 8.757 5.557 14.955 4.238c1.591-.338 4.739-.312 6.204.052 4.661 1.158 7.617 3.925 8.609 8.058.371 1.547.29 3.886-.19 5.491-.727 2.426-1.872 4.303-3.793 6.217-3.752 3.737-9.116 5.545-14.14 4.766z"/><path style="fill:#8b9cbe" d="M11.645 27.822c-4.703-.73-8.209-3.704-9.352-7.932-.409-1.512-.388-3.854.05-5.503C3.787 8.95 8.757 4.557 14.955 3.238c1.591-.338 4.739-.312 6.204.052 4.661 1.158 7.617 3.925 8.609 8.058.371 1.547.29 3.886-.19 5.491-.727 2.426-1.872 4.303-3.793 6.217-3.752 3.737-9.116 5.545-14.14 4.766z"/><path style="opacity:.2" d="m25.418 8.14-7.754 1.78L13 8.86v2.127l-6 1.377v2.85l8.004-1.826a1.753 1.753 0 0 1 3.256-.79l8.092-1.824a10.754 10.754 0 0 0-.934-2.634zm1.162 4.403-2.828.648c-.065.417-.14.82-.244 1.192-.525 1.871-1.447 3.242-4.14 4.41C16.44 20.062 10.981 20.96 7 21.848v2.84c1.69-.391 3.829-.782 6-1.235V25h4v-2.54c1.189-.33 2.51-.7 3.488-1.124 3.304-1.433 5.022-3.73 5.717-6.209.177-.632.297-1.274.383-1.918.009-.067.012-.134.012-.201-.003-.16-.012-.31-.02-.465zM13 15.603l-6 1.46v2.91l6-1.46z"/><path style="fill:#ff4b4b" d="m26.58 11.542-2.828.649c-.065.416-.14.82-.245 1.192-.524 1.87-1.445 3.241-4.14 4.41C16.442 19.06 10.983 19.958 7 20.846v2.841c3.77-.87 9.7-1.709 13.489-3.351 3.304-1.433 5.021-3.732 5.716-6.211.177-.632.297-1.272.383-1.916.009-.067.013-.134.012-.201-.002-.16-.011-.313-.02-.467z"/><path style="fill:#ff4b4b;stroke:#f4f4f7;stroke-width:0;stroke-linecap:square" d="m7 16.062 6-1.458v2.91l-6 1.458z"/><path style="fill:#ff4b4b" d="M25.417 7.14 7 11.367v2.85l8.004-1.827a1.744 1.744 0 0 1 1.746-1.65c.622 0 1.196.328 1.51.86l8.091-1.823a10.759 10.759 0 0 0-.934-2.635zM13 21.22h4v2.778h-4z"/><path style="fill:#ff4b4b" d="m13 7.861 4.9 1.111-.7.972-2.407.695H13z"/><path style="fill:#f4f4f7;opacity:.1" d="M18.104 3c-1.17-.01-2.353.069-3.149.238C8.757 4.557 3.787 8.95 2.344 14.387c-.264.991-.358 2.223-.317 3.384.034-.84.13-1.678.317-2.384C3.787 9.95 8.757 5.557 14.955 4.238c1.592-.338 4.738-.311 6.203.053 4.661 1.158 7.618 3.923 8.61 8.057.132.554.187 1.22.207 1.908.05-1.041-.01-2.086-.207-2.908-.992-4.134-3.949-6.9-8.61-8.057-.732-.182-1.886-.281-3.054-.291z"/><path style="opacity:.2;fill:#f4f4f7" d="m25.418 7.14-7.754 1.78L13 7.86v1l4.664 1.059 7.754-1.78c.263.522.493 1.085.682 1.692l.252-.057a10.754 10.754 0 0 0-.934-2.634zM13 9.989l-6 1.377v1l6-1.377zm13.58 1.555-2.828.648c-.065.417-.14.82-.244 1.192-.525 1.871-1.447 3.242-4.14 4.41C16.44 19.062 10.981 19.96 7 20.848v1c3.982-.888 9.441-1.786 12.367-3.055 2.694-1.168 3.616-2.539 4.14-4.41.105-.373.18-.775.245-1.192l2.78-.636c.017-.116.04-.23.056-.346.009-.067.012-.134.012-.201-.003-.16-.012-.31-.02-.465zM13 14.603l-6 1.46v1l6-1.46z"/></svg>