<svg height="32" width="32" xmlns="http://www.w3.org/2000/svg">
    <path d="M5 14c-1.104 0-2 .988-2 2.207v11.586C3 29.012 3.896 30 5 30h12c1.104 0 2-.988 2-2.207V16.207C19 14.988 18.104 14 17 14z" opacity=".2"/>
    <path d="M5 13c-1.104 0-2 .988-2 2.207v11.586C3 28.012 3.896 29 5 29h12c1.104 0 2-.988 2-2.207V15.207C19 13.988 18.104 13 17 13z" fill="#ffeb3b"/>
    <path d="M8 8c-1.104 0-2 .945-2 2.111V24.89C6 26.055 6.896 27 8 27h15c1.104 0 2-.945 2-2.111V10.11C25 8.945 24.104 8 23 8z" opacity=".1"/>
    <path d="M5 13c-1.104 0-2 .988-2 2.207v1C3 14.988 3.896 14 5 14h12c1.104 0 2 .988 2 2.207v-1C19 13.988 18.104 13 17 13z" fill="#f4f4f7" opacity=".2"/>
    <path d="M8 7c-1.104 0-2 .945-2 2.111V23.89C6 25.055 6.896 26 8 26h15c1.104 0 2-.945 2-2.111V9.11C25 7.945 24.104 7 23 7z" fill="#ff9800"/>
    <path d="M8 7c-1.104 0-2 .945-2 2.111v1C6 8.945 6.896 8 8 8h15c1.104 0 2 .945 2 2.111v-1C25 7.945 24.104 7 23 7z" fill="#f4f4f7" opacity=".2"/>
    <path d="M11 3a2 2 0 0 0-2 2v17a2 2 0 0 0 2 2h17a2 2 0 0 0 2-2V5a2 2 0 0 0-2-2z" opacity=".1"/>
    <path d="M11 2a2 2 0 0 0-2 2v17a2 2 0 0 0 2 2h17a2 2 0 0 0 2-2V4a2 2 0 0 0-2-2z" fill="#d546e6"/>
    <path d="M20.28 8.007c.19.012.378.033.563.063a6.032 6.032 0 0 1 3.969 2.342c1.981 2.64 1.423 6.421-1.217 8.402-2.642 1.979-6.425 1.42-8.406-1.22a1.004 1.004 0 0 1-.188-.592v-1h1c.32.002.62.152.813.406 1.332 1.776 3.816 2.113 5.593.78 1.777-1.33 2.114-3.812.782-5.589-1.335-1.776-3.82-2.112-5.597-.781-.43.323-.769.727-1.03 1.182h1.308c.552 0 1.12.453 1.13 1.005v1h-6V8h1c.553 0 1 .455 1 1.007v1.687a5.969 5.969 0 0 1 5.28-2.687z" opacity=".2"/>
    <path d="M20.28 7.007c.19.012.378.033.563.063a6.032 6.032 0 0 1 3.969 2.342c1.981 2.64 1.423 6.421-1.217 8.402-2.642 1.979-6.425 1.42-8.406-1.22a1.004 1.004 0 0 1-.188-.592v-1h1c.32.002.62.152.813.406 1.332 1.776 3.816 2.113 5.593.78 1.777-1.33 2.114-3.812.782-5.589-1.335-1.776-3.82-2.112-5.597-.781-.43.323-.769.727-1.03 1.182h1.308c.552 0 1.12.453 1.13 1.005v1h-6V7h1c.553 0 1 .455 1 1.007v1.687a5.969 5.969 0 0 1 5.28-2.687z" fill="#ffc9ff"/>
    <path d="M11 2a2 2 0 0 0-2 2v1a2 2 0 0 1 2-2h17a2 2 0 0 1 2 2V4a2 2 0 0 0-2-2zm2 5v1h1c.553 0 1 .455 1 1.008v-1C15 7.455 14.553 7 14 7zm7.281.008A5.969 5.969 0 0 0 15 9.693v1a5.969 5.969 0 0 1 5.281-2.685c.189.012.377.032.563.062a6.033 6.033 0 0 1 3.968 2.342 5.912 5.912 0 0 1 1.16 3.074 5.94 5.94 0 0 0-1.16-4.074 6.033 6.033 0 0 0-3.968-2.342 5.696 5.696 0 0 0-.563-.062zM17.398 11a3.93 3.93 0 0 0-.835 1h1.306c.553 0 1.12.452 1.131 1.004v-1c-.01-.552-.578-1.004-1.13-1.004zm6.563 2.568a3.95 3.95 0 0 1-1.555 2.621c-1.776 1.333-4.26.995-5.592-.78a1.03 1.03 0 0 0-.814-.407h-1v1h1c.32 0 .621.152.814.406 1.332 1.776 3.816 2.114 5.592.781a3.939 3.939 0 0 0 1.555-3.62z" fill="#f4f4f7" opacity=".2"/>
</svg>
