<svg height="32" width="32" xmlns="http://www.w3.org/2000/svg"><rect height="28" opacity=".2" rx="8.4" width="28" x="2" y="3"/><rect fill="#f4f4f7" height="28" rx="8.4" width="28" x="2" y="2"/><rect height="20" opacity=".1" rx="10" transform="matrix(0 -1 -1 0 0 0)" width="20" x="-27" y="-26"/><rect fill="#e74c3c" height="20" rx="10" transform="matrix(0 -1 -1 0 0 0)" width="20" x="-26" y="-26"/><path d="m10.4 2a8.382 8.382 0 0 0 -8.4 8.4v1c0-4.653 3.747-8.4 8.4-8.4h11.2c4.653 0 8.4 3.747 8.4 8.4v-1c0-4.653-3.747-8.4-8.4-8.4z" fill="#f4f4f7" opacity=".2"/></svg>