<svg xmlns="http://www.w3.org/2000/svg" width="32" height="32" version="1"><g style="fill:#8e8e8e"><path d="M12 29h-1V3h1zM9 29H8V3h1zM21 29h-1V3h1zM18 29h-1V3h1zM15 29h-1V3h1zM24 29h-1V3h1z"/><path d="M6 12v-1h20v1zM6 9V8h20v1zM6 6V5h20v1zM6 21v-1h20v1zM6 18v-1h20v1zM6 15v-1h20v1zM6 24v-1h20v1zM6 27v-1h20v1z"/></g><rect style="opacity:.2" width="18" height="24" x="7" y="5" rx="1.25" ry="1.25"/><rect style="fill:#4f4f4f" width="18" height="24" x="7" y="4" rx="1.25" ry="1.25"/><path style="opacity:.1;fill:#f4f4f7" d="M8.25 4C7.558 4 7 4.558 7 5.25v1C7 5.558 7.558 5 8.25 5h15.5c.692 0 1.25.558 1.25 1.25v-1C25 4.558 24.442 4 23.75 4z"/><g style="opacity:.4;fill:#f4f4f7"><path d="M12 7h1v3h-1zM12 11h1v3h-1zM12 15h1v6h-1zM16 7h1v8h-1zM16 16h1v8h-1zM20 7h1v6h-1zM20 14h1v3h-1zM20 18h1v7h-1z"/></g><circle style="opacity:.2" cx="24" cy="24" r="8"/><circle style="fill:#aa52ce" cx="24" cy="23" r="8"/><path style="fill:#f4f4f7" d="M20 23a3.998 3.998 0 0 0 7.996.066A.67.67 0 0 0 28 23c0-.368-.399-.667-.767-.667s-.733.299-.733.667c0 1.473-1.027 2.5-2.5 2.5s-2.5-1.027-2.5-2.5 1.027-2.5 2.5-2.5V22l3-2.333-3-2.167V19a4 4 0 0 0-4 4z"/></svg>