<svg xmlns="http://www.w3.org/2000/svg" width="32" height="32" version="1"><circle style="opacity:.2" cx="20" cy="21" r="10"/><circle style="fill:#2c80a2" cx="20" cy="20" r="10"/><circle style="opacity:.2" cx="20" cy="21" r="6"/><circle style="fill:#f4f4f7" cx="20" cy="20" r="6"/><circle style="opacity:.2" cx="12" cy="13" r="10"/><circle style="fill:#37abc8" cx="12" cy="12" r="10"/><circle style="opacity:.2" cx="12" cy="13" r="6"/><circle style="fill:#f4f4f7" cx="12" cy="12" r="6"/><path style="opacity:.2;stroke:#000;stroke-linecap:round;fill:none" d="M19.507 23.493s-.653-4.7-3-7-6-3-6-3"/><path style="stroke:#ff6e4c;stroke-linecap:round;fill:none" d="M19.507 22.493s-.653-4.7-3-7-6-3-6-3"/><path style="opacity:.2;stroke:#000;stroke-linecap:round;fill:none" d="M12.501 11.499s.653 4.7 3 7 6 3 6 3"/><path style="stroke:#ff6e4c;stroke-linecap:round;fill:none" d="M12.501 10.499s.653 4.7 3 7 6 3 6 3"/><path style="opacity:.2;fill:#f4f4f7" d="M12 2A10 10 0 0 0 2 12a10 10 0 0 0 .021.586A10 10 0 0 1 12 3a10 10 0 0 1 9.979 9.414A10 10 0 0 0 22 12 10 10 0 0 0 12 2z"/></svg>