<svg height="32" width="32" xmlns="http://www.w3.org/2000/svg"><g fill-rule="evenodd"><path d="m2 10 1.943 9.025-1.943 9.975h7.086s1.941 0 1.941-1.9l-1.257-17.1zm13.129 0-1.924 1.9-.205 15.2c-.026 1.9 1.928 1.9 1.928 1.9h16.072l-1.924-9.975 1.924-9.025z" opacity=".2"/><path d="m31 9h-15.872l-1.923 1.9-.205 15.2c-.026 1.9 1.928 1.9 1.928 1.9h16.072l-1.924-9.975zm-29 0h7.77l1.258 17.1c0 1.9-1.943 1.9-1.943 1.9h-7.085l1.943-9.975z" fill="#a51822"/><path d="m2 9 .215 1h7.555l1.21 16.453c.018-.116.047-.22.047-.353l-1.257-17.1zm13.129 0-1.924 1.9-.205 15.2c0 .037.01.063.012.1l.193-14.3 1.925-1.9h15.658l.212-1zm-11.287 9.55-1.842 9.45h.195l1.748-8.975-.101-.474zm25.336 0-.102.475 1.73 8.975h.194z" fill="#f4f4f7" opacity=".1"/></g><path d="m7.909 4a1.897 1.897 0 0 0 -1.909 1.895v16.105h3.938v-1.286l1.062-.714h2l1.531.714v1.286h12.469v-16.105c0-1.05-.85-1.895-1.909-1.895z" fill="#ed333b"/><path d="m16.51 7.254c-.375-.002-.587 1.387-.89 1.617-.306.229-1.632-.003-1.749.369s1.081 1.012 1.195 1.387c.115.373-.506 1.62-.203 1.851.302.233 1.254-.761 1.63-.76.374.001 1.315 1.004 1.618.774.305-.23-.304-1.481-.187-1.854.118-.372 1.32-1.001 1.205-1.375s-1.442-.155-1.744-.386c-.303-.232-.501-1.622-.875-1.623zm-4.028 5.998c-.375-.002-.584 1.387-.888 1.617-.304.229-1.63-.003-1.746.369-.117.373 1.079 1.013 1.193 1.387.115.373-.505 1.62-.203 1.851.303.232 1.254-.761 1.629-.76.375.002 1.316 1.003 1.62.774.306-.23-.304-1.482-.187-1.855.118-.373 1.318-1 1.204-1.374-.115-.373-1.442-.154-1.745-.386-.302-.232-.501-1.621-.877-1.623zm8.051 0c-.375-.002-.585 1.387-.888 1.617-.305.229-1.631-.003-1.749.369-.117.373 1.081 1.013 1.196 1.387.114.373-.505 1.62-.203 1.851.303.232 1.253-.761 1.629-.76.374.002 1.315 1.003 1.619.774.304-.23-.305-1.482-.188-1.855s1.32-1 1.205-1.374c-.114-.373-1.442-.154-1.744-.386-.303-.232-.502-1.621-.877-1.623z" opacity=".2"/><path d="m18.112 11.493c-.304.23-1.245-.773-1.62-.774-.376-.002-1.326.992-1.628.76-.303-.232.316-1.479.202-1.852-.114-.375-1.311-1.013-1.194-1.386.117-.372 1.442-.142 1.747-.37.303-.23.515-1.619.89-1.617.374.001.573 1.392.876 1.623.302.232 1.629.013 1.744.387.114.373-1.087 1.002-1.205 1.374-.117.373.492 1.625.188 1.855zm-4.025 5.998c-.304.229-1.246-.773-1.621-.774-.375-.002-1.325.991-1.628.76-.302-.232.318-1.48.202-1.853-.114-.373-1.31-1.012-1.193-1.385s1.442-.142 1.746-.37c.305-.23.515-1.619.89-1.617.376.002.575 1.391.877 1.623.303.233 1.63.013 1.744.387.114.373-1.087 1.001-1.204 1.374s.492 1.625.187 1.855zm8.05 0c-.303.229-1.246-.773-1.62-.774-.375-.002-1.326.991-1.629.76-.302-.232.318-1.48.203-1.853-.114-.373-1.311-1.012-1.194-1.385s1.442-.142 1.747-.37c.304-.23.514-1.619.89-1.617.374.002.574 1.391.877 1.623.302.233 1.629.013 1.743.387.115.373-1.087 1.001-1.204 1.374s.492 1.625.187 1.855zm0 0" fill="#f4f4f7"/><path d="m13 19.991v6.01c0-1.068.782-2.034 1.85-2.034h10.284s1.911-.01 1.911-1.943c0-1.071-.84-2.033-1.91-2.033h-10.285z" fill="#ccc" fill-rule="evenodd"/><path d="m7.866 19.991c-1.068 0-1.911.966-1.911 2.033 0 1.068.843 1.943 1.91 1.943h1.185c1.209 0 1.978 1.048 1.978 2.034v-6.01z" fill="#ccc"/><path d="m7.865 19.99c-1.067 0-1.91.966-1.91 2.033 0 .173.03.337.07.497.215-.85.945-1.53 1.84-1.53h3.135v.01h2v-.01h12.135c.904 0 1.635.689 1.844 1.547.034-.157.066-.32.066-.514 0-1.071-.839-2.033-1.91-2.033h-12.135v.01h-1.973v-.01z" fill-rule="evenodd" opacity=".1"/><path d="m7.908 4a1.896 1.896 0 0 0 -1.908 1.895v1c0-1.05.85-1.895 1.908-1.895h17.184c1.058 0 1.908.844 1.908 1.895v-1c0-1.05-.85-1.895-1.908-1.895z" fill="#f4f4f7" opacity=".2"/></svg>