<svg height="32" width="32" xmlns="http://www.w3.org/2000/svg">
    <path d="M15.618 2.965c-.29.005-.583.024-.878.056-4.615.51-7.977 4.318-7.66 8.568L6 11.71l.618 5.59 3.603-.398-.618-5.592-1.335.148c-.247-3.642 2.64-6.895 6.598-7.332 3.956-.437 7.5 2.1 8.058 5.704l-1.174.13.618 5.59 3.478-.384-.618-5.59-1.117.122c-.589-3.939-4.246-6.802-8.493-6.734z" opacity=".2"/>
    <path d="M15.087 6.001c-.49.019-.92.279-1.258.665-.338.385-.604.898-.83 1.501-.449 1.205-.725 3.777-.878 5.403s-.18 2.302-.11 3.703.207 2.493.495 3.102c.253.532.546 1.141.672 1.69s.1.989-.224 1.343c-.324.355-1.038.673-2.411.747s-3.38-.492-6.225-1.022c-.458-.085-.84-.093-1.173.017s-.593.355-.752.665c-.316.619-.345 2.87-.391 4.046-.016.38.124.743.37 1.04.245.297.588.54 1.014.753.851.426 2.043.733 3.524.951 2.962.437 7.074.506 11.744.235l.004-.001h.005c1.72-.142 4.439-.241 6.784-.837 1.172-.298 2.257-.718 3.084-1.36.828-.642 1.395-1.533 1.45-2.669.053-1.056-.002-2.664-.214-3.172a1.25 1.25 0 0 0-1.134-.79c-.934-.02-2.035.493-3.465.828-1.64.385-2.797.22-3.584.161-.788-.06-1.181.006-1.425-.307-.243-.313-.352-.776-.403-1.365s-.045-1.286-.123-2.02a61.79 61.79 0 0 0-1.065-6.645c-.317-1.471-.72-3.856-1.26-4.897-.272-.52-.576-.958-.94-1.275-.366-.316-.806-.508-1.282-.49z" opacity=".2"/>
    <path d="M15.618 1.965c-.29.005-.583.024-.878.056-4.615.51-7.977 4.317-7.66 8.568L6 10.71l.618 5.59 3.603-.398-.618-5.592-1.335.148c-.247-3.643 2.64-6.895 6.598-7.332 3.956-.437 7.5 2.1 8.058 5.704l-1.174.13.618 5.59 3.478-.384-.618-5.59-1.117.122c-.589-3.94-4.246-6.802-8.493-6.734z" fill="#4d4d4d"/>
    <path d="M15.087 5.001c-.49.019-.92.279-1.258.665-.338.385-.604.898-.83 1.501-.449 1.205-.725 3.777-.878 5.403s-.18 2.302-.11 3.703.207 2.493.495 3.102c.253.532.546 1.141.672 1.69s.1.989-.224 1.343c-.324.355-1.038.673-2.411.747s-3.38-.492-6.225-1.022c-.458-.085-.84-.093-1.173.017s-.593.355-.752.665c-.316.619-.345 2.87-.391 4.046-.016.38.124.743.37 1.04.245.297.588.54 1.014.753.851.426 2.043.733 3.524.951 2.962.437 7.074.506 11.744.235l.004-.001h.005c1.72-.142 4.439-.241 6.784-.837 1.172-.298 2.257-.718 3.084-1.36.828-.642 1.395-1.533 1.45-2.669.053-1.056-.002-2.664-.214-3.172a1.25 1.25 0 0 0-1.134-.79c-.934-.02-2.035.493-3.465.828-1.64.385-2.797.22-3.584.161-.788-.06-1.181.006-1.425-.307-.243-.313-.352-.776-.403-1.365s-.045-1.286-.123-2.02a61.79 61.79 0 0 0-1.065-6.645c-.317-1.471-.72-3.856-1.26-4.897-.272-.52-.576-.958-.94-1.275-.366-.316-.806-.508-1.282-.49z" fill="#974fa4"/>
    <path d="M15.088 5c-.49.019-.92.28-1.258.666s-.605.9-.83 1.502c-.45 1.205-.726 3.777-.879 5.402a23.475 23.475 0 0 0-.125 2.748c.02-.5.056-1.014.125-1.748.153-1.625.43-4.197.879-5.402.225-.603.492-1.116.83-1.502.338-.385.768-.647 1.258-.666l-.002.002c.476-.018.916.174 1.281.49s.669.753.94 1.274c.54 1.04.944 3.425 1.261 4.896.635 2.943.916 5.24 1.065 6.647.077.734.072 1.43.123 2.02.05.588.16 1.051.404 1.364s.637.247 1.424.307 1.944.225 3.584-.16c1.43-.336 2.53-.848 3.465-.828.467.01.922.28 1.135.789.154.37.202 1.303.209 2.203 0-.011.005-.02.005-.031.052-1.057-.002-2.664-.214-3.172a1.25 1.25 0 0 0-1.135-.79c-.935-.019-2.036.493-3.465.829-1.64.385-2.797.22-3.584.16s-1.18.006-1.424-.307c-.243-.313-.353-.776-.404-1.365s-.046-1.285-.123-2.02a61.768 61.768 0 0 0-1.065-6.646c-.317-1.471-.72-3.855-1.261-4.896-.271-.521-.575-.958-.94-1.274s-.805-.508-1.281-.49zM13.17 22.041a1.07 1.07 0 0 1-.215.367c-.324.355-1.039.673-2.412.746-1.373.074-3.38-.492-6.225-1.021-.458-.085-.84-.093-1.173.017s-.594.355-.752.664c-.317.62-.344 2.871-.391 4.047-.005.113.006.223.027.33.041-1.222.094-2.85.364-3.377.158-.309.419-.553.752-.664.332-.11.715-.102 1.173-.017 2.845.53 4.852 1.095 6.225 1.021 1.373-.073 2.088-.391 2.412-.746.324-.354.349-.792.223-1.342z" fill="#f4f4f7" opacity=".2"/>
    <path d="M13.987 14.15a2.991 6 2.522 1 1-5.974-.301 2.991 6 2.522 1 1 5.974.3z" opacity=".2"/>
    <path d="M13.987 13.15a2.991 6 2.522 1 1-5.974-.301 2.991 6 2.522 1 1 5.974.3z" fill="#f4f4f7"/>
    <path d="M12.993 14.048a1.491 2.008 6.89 0 1-2.986-.096 1.491 2.008 6.89 0 1 2.986.096z" fill="#4d4d4d"/>
    <path d="M22.937 13.683a6.026 3.45 83.212 0 1-6.874.633 6.026 3.45 83.212 1 1 6.874-.633z" opacity=".2"/>
    <path d="M22.937 12.683a6.026 3.45 83.212 0 1-6.874.633 6.026 3.45 83.212 1 1 6.874-.633z" fill="#f4f4f7"/>
    <path d="M20.947 14.137a1.439 2.045 16.98 0 1-2.895-.271 1.439 2.045 16.98 1 1 2.895.27z" fill="#4d4d4d"/>
</svg>
