<svg xmlns="http://www.w3.org/2000/svg" width="32" height="32"><circle style="opacity:.2" cx="16" cy="17" r="14"/><circle style="fill:#f4f4f7" cx="16" cy="16" r="14"/><path style="opacity:.1" d="M14.986 7.004c-1.475.048-3.138.503-4.756 1.662C8.551 9.87 7.814 10.198 7 10.598c.72.054 5-.545 5.814 1.916-2.92 1.003-4.084 2.592-3.736 4.437.014.086.03.172.05.26l.02.07c.068.26.157.524.29.8.2.414.43.753.675 1.062.058.078.109.155.17.234-.061-.077-.109-.153-.164-.229 1.383 1.734 3.452 2.036 5.85 3.623 2.207 1.461 2.94 2.204 4.363 4.229-.296-2.797-1.856-6.402-2.496-7.99l-.043-.133c2.01 1.387 4.393 1.91 7.207 2.11-4.467-3.147-5.314-3.594-7.871-5.75-1.715.085-1.528.07-2.54.128.305.502.624.958.954 1.375.657 1.617.548 3.328-1.33 3.715-2.28.47-4.765-1.476-4.14-3.56.678-2.264 3.695-1.83 6.767-2.223 3.072-.393 5.88-3.374 7.568-5.58-2.462.831-5.494 1.609-8.955 2.619-.681-1.352-1.434-3.765 3.15-3.938a4.216 4.216 0 0 0-.54-.242l-.002-.002a7.577 7.577 0 0 0-3.075-.525z"/><path style="fill:#3aaaff" d="M12.835 11.564C12.067 9.041 7.725 9.654 7 9.598c.814-.4 1.546-.252 3.225-1.455 3.234-2.319 5.504-2.35 7.219-1.429-4.689.177-2.636 2.763-1.945 4.094-.878.253-2.264.634-2.664.756z"/><path style="fill:#008bff" d="M24.408 8.092c-1.688 2.207-4.495 5.188-7.567 5.58-3.072.393-6.09-.042-6.768 2.222-.625 2.085 1.86 4.031 4.14 3.562 2.434-.501 1.909-3.232.577-5.091 1.011-.057.217.292 1.932.206l1.114 3.438c.64 1.588 2.2 5.194 2.495 7.991-1.424-2.025-2.156-2.769-4.363-4.23-2.827-1.87-5.205-1.934-6.53-4.69-1.322-2.75.717-4.732 3.848-5.59a197.052 197.052 0 0 0 11.122-3.398z"/><path style="fill:#3aaaff" d="M14.59 14.365c1.012-.057.824-.043 2.539-.128 2.557 2.156 3.404 2.603 7.871 5.749-4.49-.318-7.887-1.46-10.41-5.621z"/><path style="fill:#0cf" d="M7 9.598c.814-.4 1.55-.73 3.23-1.933 3.234-2.318 6.659-1.813 8.374-.892-4.689.176-4.085 1.1-4.102 1.825-3.115-.65-4.024.235-7.502 1z"/><path style="fill:#008bff" d="M18.604 6.773c-4.689.176-3.796 2.704-3.105 4.035-.547.158-.78.337-1.51.528-2.952-5.203 2.206-5.88 4.615-4.563z"/><path style="fill:#008bff" d="M18.604 6.773c-4.689.176-3.796 2.704-3.105 4.035-.547.158-.78.337-1.51.528-2.952-5.203 2.206-5.88 4.615-4.563z"/><path style="fill:#0cf" d="M10.282 18.376c-2.294-2.923-1.582-5.602 2.91-6.994 4.434-1.374 8.226-2.28 11.216-3.29-8.069 3.042-18.261 5.075-14.126 10.284z"/><path style="fill:#f4f4f7;opacity:.2" d="M16 2A14 14 0 0 0 2 16a14 14 0 0 0 .021.586A14 14 0 0 1 16 3a14 14 0 0 1 13.979 13.414A14 14 0 0 0 30 16 14 14 0 0 0 16 2z"/></svg>