<svg height="32" width="32" xmlns="http://www.w3.org/2000/svg">
    <path d="M30 29.6V16H2v13.6c0 .776.624 1.4 1.4 1.4h25.2c.776 0 1.4-.624 1.4-1.4z" opacity=".2"/>
    <rect fill="#9293ff" height="28" rx="1.4" width="28" x="2" y="2"/>
    <path d="M30 28.6V15H2v13.6c0 .776.624 1.4 1.4 1.4h25.2c.776 0 1.4-.624 1.4-1.4z" fill="#6469bb"/>
    <path d="M8 4h16v9H8m2 6h12v9H10m0-9" fill="#3e3e3e"/>
    <path d="M5 21v2H3v2h2v2h2v-2h2v-2H7v-2zm21 0a1 1 0 0 0-1 1 1 1 0 0 0 1 1 1 1 0 0 0 1-1 1 1 0 0 0-1-1zm-2 2a1 1 0 0 0-1 1 1 1 0 0 0 1 1 1 1 0 0 0 1-1 1 1 0 0 0-1-1zm4 0a1 1 0 0 0-1 1 1 1 0 0 0 1 1 1 1 0 0 0 1-1 1 1 0 0 0-1-1zm-2 2a1 1 0 0 0-1 1 1 1 0 0 0 1 1 1 1 0 0 0 1-1 1 1 0 0 0-1-1z" opacity=".2"/>
    <g fill="#f4f4f7">
        <path d="M5 20h2v6H5z"/>
        <path d="M9 22v2H3v-2z"/>
    </g>
    <g fill="#f4f4f7" transform="translate(6.69 .521) scale(.66667)">
        <circle cx="31.964" cy="33.718" r="1.5"/>
        <g transform="translate(-4.556 16.288)">
            <circle cx="30.52" cy="17.43" r="1.5"/>
            <circle cx="14.43" cy="-33.52" r="1.5" transform="rotate(90)"/>
        </g>
        <circle cx="36.718" cy="-28.964" r="1.5" transform="rotate(90)"/>
    </g>
    <path d="M2 15h28v1H2zm1-3h4v1H3zm0-2h4v1H3zm0-2h4v1H3zm22 4h4v1h-4zm0-2h4v1h-4zm0-2h4v1h-4z" opacity=".2"/>
    <path d="M3.4 2C2.625 2 2 2.625 2 3.4v1C2 3.625 2.625 3 3.4 3h25.2c.775 0 1.4.625 1.4 1.4v-1c0-.775-.625-1.4-1.4-1.4z" fill="#f4f4f7" opacity=".2"/>
</svg>
