<svg xmlns="http://www.w3.org/2000/svg" width="32" height="32">
    <circle style="opacity:.2" cx="15.5" cy="16.5" r="11.5"/>
    <path style="opacity:.2" d="M25.26 4.982a1.916 1.916 0 0 0-.462.095h-.001l-.007-.013-.1.05a1.788 1.788 0 0 0-.238.117l-12.07 6.493 4.67 10.594c4.103-1.796 8.273-4.96 12.42-6.614a1.844 1.844 0 0 0 .254-.102c.033-.016.064-.035.095-.052.052-.029.103-.06.152-.093a1.88 1.88 0 0 0 .218-.178 2.102 2.102 0 0 0 .3-.376c.03-.043.058-.088.085-.134a2.74 2.74 0 0 0 .105-.213c.018-.037.035-.075.052-.114a3.18 3.18 0 0 0 .088-.255 2.246 2.246 0 0 0 .097-.379 3.96 3.96 0 0 0 .033-.164c.014-.086.024-.175.033-.265.007-.056.012-.113.017-.17.006-.092.009-.185.01-.28a5.8 5.8 0 0 0 .003-.2c0-.08-.006-.164-.01-.246a6.7 6.7 0 0 0-.014-.242l-.009-.086a7.99 7.99 0 0 0-.15-.944l-.01-.041a9.432 9.432 0 0 0-.285-1.002l-.004-.013-.007-.016a10.362 10.362 0 0 0-.41-.993c-.008-.02-.015-.04-.024-.059a9.85 9.85 0 0 0-1.01-1.674l-.043-.06a8.925 8.925 0 0 0-.479-.582c-.022-.025-.046-.048-.068-.072a7.729 7.729 0 0 0-.44-.443l-.078-.073a6.421 6.421 0 0 0-.517-.42l-.04-.028a5.174 5.174 0 0 0-.587-.362 3.987 3.987 0 0 0-.49-.22c-.015-.006-.03-.008-.045-.013a3.035 3.035 0 0 0-.567-.135 2.338 2.338 0 0 0-.467-.023z"/>
    <path style="fill:#e3954f" d="M25.26 3.982a1.916 1.916 0 0 0-.462.095h-.001l-.007-.013-.1.049a1.788 1.788 0 0 0-.238.117l-12.07 6.494 4.67 10.593c4.103-1.796 8.273-4.958 12.42-6.613a1.844 1.844 0 0 0 .254-.102c.033-.016.064-.035.095-.053.052-.028.103-.059.152-.092a1.88 1.88 0 0 0 .218-.179 2.102 2.102 0 0 0 .3-.375c.03-.043.058-.088.085-.135a2.74 2.74 0 0 0 .105-.212c.018-.037.035-.075.052-.114a3.18 3.18 0 0 0 .088-.255 2.246 2.246 0 0 0 .097-.379 3.96 3.96 0 0 0 .033-.164c.014-.086.024-.176.033-.265a4.89 4.89 0 0 0 .017-.17c.006-.092.009-.186.01-.28a5.8 5.8 0 0 0 .003-.2c0-.081-.006-.164-.01-.246a6.7 6.7 0 0 0-.014-.242l-.009-.086a7.99 7.99 0 0 0-.15-.945l-.01-.04a9.432 9.432 0 0 0-.285-1.002l-.004-.013-.007-.016a10.362 10.362 0 0 0-.41-.994.443.443 0 0 1-.024-.145"/>
    <path style="opacity:.1;fill:#f4f4f7" d="M25.26 3.982a1.905 1.905 0 0 0-.461.096h-.002l-.008-.014-.098.05a1.8 1.8 0 0 0-.24.116l-12.07 6.495.355.808L24.451 5.23a1.8 1.8 0 0 1 .24-.117l.098-.049.008.014h.002c.146-.05.3-.082.46-.096a2.34 2.34 0 0 1 .589.041c.146.026.294.064.445.116l.047.013a3.98 3.98 0 0 1 .627.297c.15.085.3.18.449.285l.041.03c.174.126.345.266.516.42l.078.072c.149.138.295.287.44.443.022.025.045.047.068.072a8.9 8.9 0 0 1 .478.58l.045.063a9.826 9.826 0 0 1 1.008 1.674c.01.02.016.037.025.057.155.326.292.659.41.994l.006.015.004.014c.115.335.213.67.287 1.002l.008.04c.07.322.12.637.15.944.003.029.008.058.01.086l.004.053.008-.084a6.32 6.32 0 0 0 .01-.28 5.83 5.83 0 0 0 .002-.2c-.001-.081-.006-.164-.01-.247a6.73 6.73 0 0 0-.014-.242c-.002-.028-.007-.057-.01-.086a7.968 7.968 0 0 0-.15-.943l-.008-.041a9.453 9.453 0 0 0-.287-1.002l-.004-.014-.006-.015a10.376 10.376 0 0 0-.41-.994l-.025-.057a9.826 9.826 0 0 0-1.008-1.674l-.045-.062a8.9 8.9 0 0 0-.478-.58c-.023-.026-.046-.048-.069-.073a7.74 7.74 0 0 0-.44-.443l-.077-.072a6.407 6.407 0 0 0-.516-.42l-.041-.03a5.188 5.188 0 0 0-.588-.361 3.98 3.98 0 0 0-.488-.22c-.016-.006-.032-.009-.047-.014a3.014 3.014 0 0 0-.566-.135 2.34 2.34 0 0 0-.467-.022z"/>
    <circle style="fill:#edd448" cx="15.5" cy="15.5" r="11.5"/>
    <path style="fill:#e3954f" d="m21.473 5.818-8.125 4.01A6.5 3 0 0 0 15.5 10 6.5 3 0 0 0 22 7a6.5 3 0 0 0-.527-1.182zm2.611 8.186a3.683 5.931 28.506 0 0-4.785 3.328 3.683 5.931 28.506 0 0-1.176 3.027l8.314-4.25a3.683 5.931 28.506 0 0-1.056-1.664 3.683 5.931 28.506 0 0-1.297-.441z"/>
    <path style="opacity:.3" d="M15.5 4a11.5 11.5 0 0 0-5.533 1.434A6.5 3 0 0 0 9 7a6.5 3 0 0 0 6.5 3A6.5 3 0 0 0 22 7a6.5 3 0 0 0-1.008-1.602A11.5 11.5 0 0 0 15.5 4zm8.584 10.003a3.683 5.931 28.506 0 0-4.785 3.33 3.683 5.931 28.506 0 0-.079 7.223 3.683 5.931 28.506 0 0 3.78-.388 11.825 11.689 0 0 0 3.255-4.622 3.683 5.931 28.506 0 0-.875-5.1 3.683 5.931 28.506 0 0-1.296-.443z"/>
    <path style="fill:#f4f4f7;opacity:.2" d="M15.5 4A11.5 11.5 0 0 0 4 15.5a11.5 11.5 0 0 0 .021.578A11.5 11.5 0 0 1 15.5 5a11.5 11.5 0 0 1 11.479 10.922A11.5 11.5 0 0 0 27 15.5 11.5 11.5 0 0 0 15.5 4z"/>
    <path style="opacity:.1" d="M6.841 14.38a5.794 3.15 64.81 0 0-.71.1l-3.7 1.822a5.794 3.15 64.81 0 0-.308.152l-.03.014.001.002a5.794 3.15 64.81 0 0-.29.232 5.794 3.15 64.81 0 0 .639 7.209 5.794 3.15 64.81 0 0 4.832 2.9l3.71-1.826-.003-.005a5.794 3.15 64.81 0 0 .414-.303 5.794 3.15 64.81 0 0-.64-7.208 5.794 3.15 64.81 0 0-3.915-3.09z"/>
    <path style="fill:#e3954f" d="M6.841 13.38a5.794 3.15 64.81 0 0-.71.1l-3.7 1.822a5.794 3.15 64.81 0 0-.308.151l-.03.015.001.001a5.794 3.15 64.81 0 0-.29.233 5.794 3.15 64.81 0 0 .639 7.209 5.794 3.15 64.81 0 0 4.832 2.9l3.71-1.826-.003-.006a5.794 3.15 64.81 0 0 .414-.302 5.794 3.15 64.81 0 0-.64-7.209 5.794 3.15 64.81 0 0-3.915-3.089z"/>
    <ellipse style="opacity:.2" cx="-6.794" cy="18.473" rx="3.285" ry="5.719" transform="matrix(.70813 -.70609 .51863 .855 0 0)"/>
    <path style="opacity:.1" d="m26.105 16.28-7.673 3.92a8.404 8.404 0 0 0-.309 1.158l8.314-4.25a3.528 3.528 0 0 0-.332-.83z"/>
</svg>
