<svg height="32" width="32" xmlns="http://www.w3.org/2000/svg"><path d="m6.2 7c-.72.263 1.732 4.8 1.14 5.131-1.03.412-2.34.869-2.34.869v7s4.562.592 8 1c.69.082-11 7-11 7 3.464 0 38.715-9.296 24.735-15.88-2.402-1.278-5.927-2.115-9.856-2.115a24.41 24.41 0 0 0 -5.396.598c-.774.175-4.61-3.848-5.283-3.603z" opacity=".2"/><path d="m6.2 6c-.72.263 1.732 4.8 1.14 5.131-1.03.412-2.34.869-2.34.869v7s4.562.592 8 1c.69.082-11 7-11 7 3.464 0 38.715-9.296 24.735-15.88-2.402-1.278-5.927-2.115-9.856-2.115a24.41 24.41 0 0 0 -5.396.598c-.774.175-4.61-3.848-5.283-3.603z" fill="#28aeae"/><path d="m5 13v-1h-3v9h3v-1c6.007-1.011 9.07-2.279 9-3.543-.069-1.236-3.133-2.468-9-3.457z" opacity=".2"/><path d="m5 12v-1h-3v9h3v-1c6.007-1.011 9.07-2.279 9-3.543-.069-1.236-3.133-2.468-9-3.457z" fill="#17191e"/><path d="m23.041 10.75c-.02.16-.04.325-.041.45.001 2.29 3.042 3.588 6.928 3.794-.257-.989-1.248-1.959-3.194-2.875a13.387 13.387 0 0 0 -1.521-.682l-.23-.09c-.298-.108-.604-.212-.92-.31-.331-.102-.672-.198-1.022-.287z" opacity=".2"/><path d="m23.041 9.75c-.02.16-.04.325-.041.45.001 2.29 3.042 3.588 6.928 3.794-.257-.989-1.248-1.959-3.194-2.875a13.387 13.387 0 0 0 -1.521-.681c-.077-.03-.152-.061-.23-.09-.298-.11-.604-.213-.92-.31a21.23 21.23 0 0 0 -1.022-.288z" fill="#17191e"/><g fill="#f4f4f7"><path d="m6.2 6c-.196.071-.148.469 0 1 .672-.245 4.509 3.78 5.282 3.604 1.608-.365 3.423-.6 5.397-.6 3.929 0 7.454.837 9.855 2.115 1.97.928 2.964 1.91 3.205 2.912.307-1.346-.583-2.677-3.205-3.912-2.401-1.278-5.926-2.115-9.855-2.115-1.974 0-3.789.235-5.397.6-.772.175-4.61-3.85-5.282-3.604zm1.085 5.152a73.28 73.28 0 0 1 -2.285.848v1s1.31-.458 2.34-.87c.154-.086.095-.469-.055-.978zm4.66 9.717c-2.72 1.852-9.945 6.131-9.945 6.131.377 0 1.185-.129 2.213-.334 2.911-1.738 9.344-5.6 8.787-5.666-.453-.054-.575-.072-1.055-.13z" opacity=".1"/><path d="m2 11v1h3v-1zm3 1v1c5.134.865 8.121 1.917 8.834 2.994a.894.894 0 0 0 .166-.537c-.069-1.235-3.133-2.468-9-3.457z" opacity=".1"/></g></svg>