<svg height="32" width="32" xmlns="http://www.w3.org/2000/svg">
    <circle cx="16" cy="17" opacity=".2" r="14"/>
    <circle cx="16" cy="16" fill="#2e6cb9" r="14"/>
    <path d="M22 10c0 7-4.1 13-9 13m-2-13v15" fill="none" opacity=".2" stroke="#000" stroke-width="4"/>
    <path d="M22 9c0 7-4.1 13-9 13M11 9v15" fill="none" stroke="#f4f4f7" stroke-width="4"/>
    <path d="M16 2A14 14 0 0 0 2 16a14 14 0 0 0 .021.586A14 14 0 0 1 16 3a14 14 0 0 1 13.979 13.414A14 14 0 0 0 30 16 14 14 0 0 0 16 2z" fill="#f4f4f7" opacity=".1"/>
</svg>
