<svg xmlns="http://www.w3.org/2000/svg" width="32" height="32" version="1"><rect style="opacity:.2" width="20" height="30" x="6" y="2" rx="1.5" ry="1.5"/><path style="fill:#f4f4f7" d="M7.5 1C6.669 1 6 1.669 6 2.5V4h20V2.5c0-.831-.669-1.5-1.5-1.5h-17zM6 26v3.5c0 .831.669 1.5 1.5 1.5h17c.831 0 1.5-.669 1.5-1.5V26H6z"/><path style="fill:#17191e" d="M6 4h20v22H6z"/><rect style="fill:#333" width="4" height="1" x="14" y="2" rx=".5" ry=".492"/><rect style="fill:#4d4d4d" width="4" height="3" x="14" y="27" rx="1" ry="1"/><path style="fill:#f4f4f7;opacity:.2" d="M7.5 1C6.669 1 6 1.669 6 2.5v1C6 2.669 6.669 2 7.5 2h17c.831 0 1.5.669 1.5 1.5v-1c0-.831-.669-1.5-1.5-1.5h-17z"/><rect style="fill:#4d4d4d" width="3" height="1" x="20" y="28" rx=".5" ry=".5"/><rect style="fill:#4d4d4d" width="3" height="1" x="9" y="28" rx=".5" ry=".5"/><circle style="fill:#333" cx="19.5" cy="2.5" r=".5"/><path style="opacity:.2" d="M17.016 7.975 14 8.5v10.387l3-.387-.016-4.682L20.523 19 24 18.5l-4-5.363 4.014-4.5-3.52-.648-3.51 4.499zm-6.342 2.652a.128.128 0 0 0-.078.038L9.56 11.711a.136.136 0 0 0-.017.17l1.25 1.92a5.253 5.253 0 0 0-.529 1.357l-2.159.529a.138.138 0 0 0-.105.131v1.364c0 .062.046.116.105.13l2.159.53c.115.48.293.939.529 1.357l-1.25 1.92a.136.136 0 0 0 .018.17l1.035 1.047a.132.132 0 0 0 .164.016l1.959-1.202c.384.224.985.404 1.424.524l.459 2.217a.129.129 0 0 0 .127.109h1.542a.129.129 0 0 0 .127-.109l.459-2.217c.439-.12 1.04-.3 1.424-.524l1.959 1.202a.132.132 0 0 0 .164-.016l1.035-1.047a.136.136 0 0 0 .018-.17l-1.041-1.599-.129.019-.73-1.07a4.5 4.5 0 0 1-4.057 2.562 4.499 4.499 0 0 1-2-8.527v-.983a4.368 4.368 0 0 0-.781.329l-1.959-1.201a.15.15 0 0 0-.086-.022z"/><path style="fill:#f4f4f7" d="M17.016 6.975 14 7.5v10.387l3-.387-.016-4.682L20.523 18 24 17.5l-4-5.363 4.014-4.5-3.52-.648-3.51 4.499zm-6.342 2.652a.124.124 0 0 0-.078.037L9.56 10.712a.136.136 0 0 0-.017.17l1.25 1.92a5.253 5.253 0 0 0-.529 1.357l-2.159.529a.138.138 0 0 0-.105.131v1.364c0 .062.046.116.105.13l2.159.53c.115.48.293.939.529 1.357l-1.25 1.92a.136.136 0 0 0 .018.17l1.035 1.047a.132.132 0 0 0 .164.016l1.959-1.202c.384.224.985.404 1.424.524l.459 2.217a.129.129 0 0 0 .127.109h1.542a.129.129 0 0 0 .127-.109l.459-2.217c.439-.12 1.04-.3 1.424-.524l1.959 1.202a.132.132 0 0 0 .164-.016l1.035-1.047a.136.136 0 0 0 .018-.17l-1.041-1.599-.129.019-.73-1.07a4.5 4.5 0 0 1-4.057 2.562 4.499 4.499 0 0 1-2-8.527v-.983a4.368 4.368 0 0 0-.781.329L10.76 9.649a.145.145 0 0 0-.086-.022z"/><path style="opacity:.2" d="M6 4h20v1H6z"/><path style="opacity:.2;fill:#f4f4f7" d="M6 26h20v1H6z"/></svg>