<svg height="32" width="32" xmlns="http://www.w3.org/2000/svg">
    <circle cx="16" cy="17" opacity=".2" r="14"/>
    <circle cx="16" cy="16" fill="#92d6c1" r="14"/>
    <path d="m9 9 1.842 4h6.263L9 21l1.842 4H23l-1.842-4h-6.263L23 13l-1.842-4z" opacity=".1"/>
    <path d="M9 8h12.158L23 12H10.842z" fill="#1b4f2f"/>
    <path d="M9 20 21.158 8 23 12 10.842 24z" fill="#207344"/>
    <path d="M9 20h12.158L23 24H10.842z" fill="#219053"/>
    <path d="M16 2A14 14 0 0 0 2 16a14 14 0 0 0 .021.586A14 14 0 0 1 16 3a14 14 0 0 1 13.979 13.414A14 14 0 0 0 30 16 14 14 0 0 0 16 2z" fill="#f4f4f7" opacity=".2"/>
</svg>
