<svg height="32" width="32" xmlns="http://www.w3.org/2000/svg"><path d="m6 3a1 1 0 0 0 -1 1v26a1 1 0 0 0 1 1h3a1 1 0 1 0 0-2h-2v-24h2a1 1 0 1 0 0-2zm18 0a1 1 0 1 0 0 2h2v24h-2a1 1 0 1 0 0 2h3a1 1 0 0 0 1-1v-26a1 1 0 0 0 -1-1zm-22 3v3h2v-3zm27 0v3h2v-3zm-27 19v3h2v-3zm27 0v3h2v-3z" opacity=".2"/><path d="m6.2 9.7h21v12.6h-21zm0 0" fill="#ee7cf3"/><path d="m6.5 6v6h3.5v10h-3.5v6h21v-6h-4.5v-10h4.5v-6zm2.5 2h3v2h-3zm4 0h3v2h-3zm4 0h3v2h-3zm4 0h3v2h-3zm-9 4h9v10h-9zm-3 12h3v2h-3zm4 0h3v2h-3zm4 0h3v2h-3zm4 0h3v2h-3z" opacity=".2"/><path d="m6.5 5v6h3.5v10h-3.5v6h21v-6h-4.5v-10h4.5v-6zm2.5 2h3v2h-3zm4 0h3v2h-3zm4 0h3v2h-3zm4 0h3v2h-3zm-9 4h9v10h-9zm-3 12h3v2h-3zm4 0h3v2h-3zm4 0h3v2h-3zm4 0h3v2h-3z" fill="#3382e3"/><path d="m6.5 5v1h21v-1zm2.5 4v1h3v-1zm4 0v1h3v-1zm4 0v1h3v-1zm4 0v1h3v-1zm-14.5 12v1h3.5v-1zm5.5 0v1h9v-1zm11 0v1h4.5v-1zm-14 4v1h3v-1zm4 0v1h3v-1zm4 0v1h3v-1zm4 0v1h3v-1z" fill="#f4f4f7" opacity=".2"/><path d="m2 5v3h2v-3zm27 0v3h2v-3zm-27 19v3h2v-3zm27 0v3h2v-3z" fill="#195eb3"/><path d="m9 3h-3v26h3m15-26h3v26h-3" fill="none" stroke="#f5d12b" stroke-linecap="round" stroke-linejoin="round" stroke-width="2"/><path d="m6 2a1 1 0 0 0 -1 1v1a1 1 0 0 1 1-1h3a1 1 0 0 1 .879.5 1 1 0 0 0 -.879-1.5zm18 0a1 1 0 0 0 -.879 1.5 1 1 0 0 1 .879-.5h3a1 1 0 0 1 1 1v-1a1 1 0 0 0 -1-1zm-17 26v1h2a1 1 0 0 1 .879.5 1 1 0 0 0 -.879-1.5zm17 0a1 1 0 0 0 -.879 1.5 1 1 0 0 1 .879-.5h2v-1z" fill="#f4f4f7" opacity=".2"/></svg>