<svg height="32" width="32" xmlns="http://www.w3.org/2000/svg"><rect fill="#4e91d9" height="26" rx="1.3" transform="matrix(0 -1 -1 0 0 0)" width="26" x="-29" y="-29"/><path d="m6 17h4v1h-4z" fill="#fff"/><path d="m21.5 5 .334.867.869-.273-.453.809.75.526-.899.141.066.93-.667-.633-.668.633.066-.93-.898-.14.75-.527-.453-.809.869.273z" fill="#ffeb5d"/><path d="m23 22h-4v-1h4z" fill="#742424"/><path d="m19 22h-4v-1h4z" fill="#ad3131"/><path d="m15 22h-4v-1h4z" fill="#742424"/><path d="m11 22h-4v-1h4z" fill="#ad3131"/><path d="m7 22h-4v-1h4zm22 0h-2v-1h2z" fill="#742424"/><path d="m21 23h-4v-1h4z" fill="#ad3131"/><path d="m17 23h-4v-1h4z" fill="#742424"/><path d="m13 23h-4v-1h4z" fill="#ad3131"/><path d="m9 23h-4v-1h4z" fill="#742424"/><path d="m5 23h-2v-1h2zm22-1h-4v-1h4zm2 1h-4v-1h4z" fill="#ad3131"/><path d="m25 23h-4v-1h4zm-14-13h2v1h-2z" fill="#742424"/><path d="m13 10h4v1h-4z" fill="#ad3131"/><path d="m17 10h4v1h-4z" fill="#742424"/><path d="m21 10h4v1h-4z" fill="#ad3131"/><path d="m25 10h4v1h-4zm-22 0h2v1h-2z" fill="#742424"/><path d="m11 9h4v1h-4z" fill="#ad3131"/><path d="m15 9h4v1h-4z" fill="#742424"/><path d="m19 9h4v1h-4z" fill="#ad3131"/><path d="m23 9h4v1h-4z" fill="#742424"/><path d="m27 9h2v1h-2zm-24 0h2v1h-2z" fill="#ad3131"/><g fill="#fff"><path d="m6 8h1v12h-1zm3 0h1v12h-1z"/><path d="m6 13h4v1h-4zm0-4h4v1h-4z"/><path d="m4.3 3c-.72 0-1.3.58-1.3 1.3v1c0-.72.58-1.3 1.3-1.3h23.4c.72 0 1.3.58 1.3 1.3v-1c0-.72-.58-1.3-1.3-1.3z" opacity=".2"/></g><path d="m3 27.699v1c0 .72.58 1.301 1.3 1.301h23.4a1.3 1.3 0 0 0 1.3-1.301v-1a1.3 1.3 0 0 1 -1.3 1.301h-23.4c-.72 0-1.3-.581-1.3-1.301z" opacity=".2"/></svg>