<svg height="32" width="32" xmlns="http://www.w3.org/2000/svg">
    <g transform="matrix(0 -1 -1 0 0 0)">
        <rect height="16" opacity=".2" rx="1.25" width="21" x="-29" y="-24"/>
        <rect fill="#a5a5a5" height="16" rx="1.25" width="21" x="-28" y="-24"/>
        <rect height="26" opacity=".2" rx="1.25" width="20" x="-26" y="-29"/>
        <rect fill="#f4f4f7" height="26" rx="1.25" width="20" x="-25" y="-29"/>
        <path d="M-23-27h16v22h-16z" fill="#8c5edc"/>
    </g>
    <path d="M16.008 10.979a9.216 9.216 0 0 0-5.367 1.715.615.615 0 1 0 .713 1.001 7.996 7.996 0 0 1 9.302.008.616.616 0 0 0 .717-1.002 9.218 9.218 0 0 0-5.365-1.722zm.021 2.56a6.762 6.762 0 0 0-3.97 1.264.616.616 0 1 0 .716 1.002 5.535 5.535 0 0 1 6.489.027.615.615 0 1 0 .724-.994 6.762 6.762 0 0 0-3.959-1.299zm-.006 2.563a4.306 4.306 0 0 0-2.574.834.615.615 0 1 0 .729.992 3.073 3.073 0 0 1 3.67.02.615.615 0 1 0 .738-.985 4.298 4.298 0 0 0-2.563-.861zM16 18.462a1.23 1.23 0 0 0-1.23 1.23A1.23 1.23 0 0 0 16 20.924a1.23 1.23 0 0 0 1.23-1.232 1.23 1.23 0 0 0-1.23-1.23z" opacity=".2"/>
    <path d="M4.25 5C3.558 5 3 5.558 3 6.25v1C3 6.558 3.558 6 4.25 6h23.5c.692 0 1.25.558 1.25 1.25v-1C29 5.558 28.442 5 27.75 5z" fill="#f4f4f7" opacity=".2"/>
    <path d="M5 7h22v1H5z" opacity=".1"/>
    <path d="M10.997 12.194a8.615 8.615 0 0 1 10.018.008" fill="none" stroke="#f4f4f7" stroke-linecap="round" stroke-linejoin="round" stroke-width="1.231"/>
    <path d="M16 17.462a1.23 1.23 0 0 0-1.23 1.23A1.23 1.23 0 0 0 16 19.923a1.23 1.23 0 0 0 1.23-1.23A1.23 1.23 0 0 0 16 17.461z" fill="#f4f4f7"/>
    <path d="M12.418 14.304a6.154 6.154 0 0 1 7.208.031m-5.812 2.097a3.692 3.692 0 0 1 4.403.023" fill="none" stroke="#f4f4f7" stroke-linecap="round" stroke-linejoin="round" stroke-width="1.231"/>
</svg>
