<svg height="32" width="32" xmlns="http://www.w3.org/2000/svg"><path d="m18.418 5c-1.676.11-3.398.559-4.924 1.272-3.243 1.738-4.516 4.475-5.554 7.401-.62 1.558-1.428 2.304-3.294 3.155-1.036.473-2.168.992-3.102 1.764-.903.526-.573 1.382.197 1.408h6.614c.098.41.199.964.308 1.404.5 2.098.404 3.535-.837 5.115-.546.695-.47 2.27.385 2.448 0 0 3.346.117 4.966-.089 6.144-.848 17.07-5.145 17.07-5.145.668-.26.952-1.064.602-1.7-1.97-2.889-4.008-6.003-6.199-8.481-1.132-1.292-2.421-3.838-.84-4.395l1.186-.104c1.17-.102 1.217-.932.788-1.74-.657-.984-2.1-1.267-3.07-1.557-1.348-.402-2.874-.743-4.296-.756z" opacity=".2"/><path d="m18.239 4.753c-1.676.11-2.752.846-4.278 1.559-3.244 1.739-4.983 3.434-6.021 6.36-.62 1.558-1.428 2.304-3.294 3.156-1.036.472-2.168.992-3.102 1.763-.903.526-.573 1.382.197 1.409h6.614c.098.41.45.963.559 1.403.501 2.099.69 3.571-.55 5.151-.546.696-.649 1.84.206 2.018 0 0 3.06.152 4.679-.053 6.143-.848 16.64-5.074 16.64-5.074.667-.259.844-.705.493-1.34-1.969-2.89-4.044-6.004-6.234-8.482-.391-.446-.299-1.113-.602-1.725-.576-1.16-.771-2.376.264-2.741l1.186-.104c1.17-.102 1.217-.932.788-1.74-.488-.731-1.41-1.075-2.249-1.323-.29-.086-.787.127-1.036.052-1.348-.401-2.839-.276-4.26-.289z" fill="#4f4f4f"/><path d="m18.42 5c-1.676.11-3.4.559-4.926 1.271-1.996 1.07-3.242 2.445-4.15 4.024 0 0 2.78 1.059 4.312 1.059 2 0 4.33-.516 5.004-.674.245-.376.53-.728.873-1.045 1.596-1.252 1.804-1.194 3.649-2.074.279-.134.683-1.05.55-1.485a26.57 26.57 0 0 0 -1.017-.32c-1.348-.402-2.875-.744-4.295-.756zm5.008 6.705c-1.562 2.718-2.836 5.276-4.64 7.37-.1 1.105-.234 2.155-.436 2.99-.375 1.542-1.543 3.867-2.272 5.246 6.161-1.438 14.168-4.579 14.168-4.579.298-.115.514-.343.637-.613-.013-.028-.02-.058-.035-.086-1.97-2.89-4.01-6.003-6.2-8.48a8.241 8.241 0 0 1 -1.222-1.848z" opacity=".1"/><path d="m18.419 4c-1.676.11-3.399.558-4.925 1.271" fill="#3f83d0"/><path d="m9.33 10.318c-.561.981-.992 2.038-1.389 3.155a6.905 6.905 0 0 1 -.298.642c-.113 1.342-.054 3.263.34 4.885h.372c.098.41.198.964.307 1.404.264 1.106.357 2.025.21 2.881 0 .035.005.071.005.106.003.225-.006.449-.03.666a4.579 4.579 0 0 1 -.312 1.26 4.982 4.982 0 0 1 -.709 1.2c-.079.101-.14.225-.193.356-.015.037-.027.075-.04.113-.02.063-.033.13-.048.196.098.392.311.711.666.785 0 0 3.347.115 4.967-.09.88-.122 1.87-.326 2.902-.566.729-1.379 1.897-3.704 2.272-5.247.202-.834.337-1.884.435-2.99-1.235 1.432-2.815 3.048-4.816 3.94a.712.712 0 0 1 -.928-.674c-.04-.326.467-.638.928-1.08 3.228-3.24 2.892-7.825 4.69-10.582-.676.158-3.006.322-5.005.322-1.178 0-3.363-.35-4.326-.682z" opacity=".1"/><path d="m9.33 9.317c-.561.981-.993 2.04-1.39 3.156a6.874 6.874 0 0 1 -.297.641c-.132 1.577-.033 3.96.575 5.71h.038c.098.409.198.94.307 1.38.062.262.117.516.163.765.045.249.082.491.107.727v.002c.026.236.04.466.044.692v.001c.002.226-.007.448-.03.665a4.58 4.58 0 0 1 -.312 1.26 4.986 4.986 0 0 1 -.709 1.202c-.079.1-.141.224-.194.354-.014.037-.025.077-.037.115a2.11 2.11 0 0 0 -.097.455c-.01.1-.014.2-.01.3a1.912 1.912 0 0 0 .082.554v.002c.032.101.077.192.128.277.014.024.031.044.047.066a.88.88 0 0 0 .208.208.713.713 0 0 0 .258.118s3.346.117 4.965-.089c.366-.05.752-.115 1.148-.188l.006-.002c.369-.069.749-.147 1.137-.231 0 0 2.332-4.125 2.884-6.393.202-.834.338-1.883.436-2.99-1.235 1.432-2.815 3.048-4.816 3.94a.71.71 0 0 1 -.928-.673c-.04-.326.467-.64.928-1.081 3.229-3.24 2.892-7.824 4.69-10.581-.676.158-3.006.321-5.005.321-1.178 0-3.363-.352-4.326-.683z" fill="#f4f4f7"/><circle cx="13.5" cy="13.5" fill="#17191e" r="1.5"/><path d="m18.42 4c-1.676.11-3.4.559-4.926 1.271-1.996 1.07-3.242 2.445-4.15 4.024 0 0 .396.129.537.18.856-1.234 1.974-2.325 3.613-3.204a13.986 13.986 0 0 1 4.926-1.271c1.421.012 2.947.354 4.295.756.268.08.559.171.85.267.144-.322.241-.705.167-.947a26.57 26.57 0 0 0 -1.017-.32c-1.348-.402-2.875-.744-4.295-.756zm5.008 6.705c-1.562 2.718-2.836 5.276-4.64 7.37v1c1.804-2.094 3.078-4.652 4.64-7.37.31.663.775 1.336 1.222 1.846 2.19 2.478 4.23 5.592 6.2 8.482.015.028.022.058.035.086a1.203 1.203 0 0 0 -.035-1.086c-1.97-2.89-4.01-6.003-6.2-8.48a8.241 8.241 0 0 1 -1.222-1.848z" fill="#f4f4f7" opacity=".2"/></svg>