<svg height="32" width="32" xmlns="http://www.w3.org/2000/svg">
    <g transform="translate(0 -300.3)">
        <path d="M2 326.8v1c0 1.939 1.561 3.5 3.5 3.5h21c1.939 0 3.5-1.561 3.5-3.5 0-.171-.025-.335-.049-.5a3.482 3.482 0 0 1-3.451 3h-21a3.492 3.492 0 0 1-3.5-3.5z" opacity=".2"/>
        <path d="M23 323.3h3.5c1.939 0 3.5 1.561 3.5 3.5s-1.561 3.5-3.5 3.5H23z" fill="#ff7c70"/>
        <path d="M9 323.3H5.5a3.492 3.492 0 0 0-3.5 3.5c0 1.939 1.561 3.5 3.5 3.5H9z" fill="#7a0000"/>
        <path d="M23 323.3v7h-7c-2.257-2.521-2.685-4.89 0-7z" fill="#ed5353"/>
        <path d="M16 323.3v7H9v-7z" fill="#c6262e"/>
        <path d="M23.936 313.802a3.495 3.495 0 0 0-1.997.465l-3.03 1.75-6.063 3.5-6.063 3.5-3.03 1.75a3.476 3.476 0 0 0-1.702 2.539A3.481 3.481 0 0 0 5.5 330.3h2.666l2.117-1.223 6.063-3.5 6.062-3.5 3.031-1.75a3.493 3.493 0 0 0 1.282-4.78 3.49 3.49 0 0 0-2.785-1.745zM2.145 328.755zm.29.707c.014.027.021.057.037.084.009.016.022.028.03.043-.024-.041-.045-.085-.067-.127zm.38.565c.04.046.075.096.116.14-.041-.044-.077-.094-.116-.14zm.479.474c.048.04.093.081.143.117-.05-.036-.095-.078-.143-.117zm.539.361c.065.036.127.075.193.106-.067-.031-.128-.07-.193-.105zm.586.252c.086.029.171.06.26.08-.09-.02-.174-.052-.26-.08z" opacity=".2"/>
        <path d="m18.909 315.016 3.03-1.75a3.492 3.492 0 0 1 4.782 1.28 3.492 3.492 0 0 1-1.281 4.782l-3.031 1.75z" fill="#ffc27d"/>
        <path d="m6.784 322.016-3.03 1.75a3.492 3.492 0 0 0-1.282 4.78 3.492 3.492 0 0 0 4.781 1.282l3.031-1.75z" fill="#cc3b02"/>
        <path d="m18.909 315.016 3.5 6.062-6.063 3.5c-3.215-1.055-4.77-2.893-3.5-6.062z" fill="#ffa154"/>
        <path d="m12.846 318.516 3.5 6.062-6.062 3.5-3.5-6.062z" fill="#f37329"/>
        <path d="M15.758 306.116a3.49 3.49 0 0 0-2.785 1.745l-1.75 3.03-3.5 6.063-3.5 6.063-1.75 3.03a3.501 3.501 0 0 0-.426 1.232A3.482 3.482 0 0 0 5.5 330.3h2.428c.227-.221.438-.465.605-.754l1.75-3.03 3.5-6.062 3.5-6.062 1.75-3.031c.97-1.68.4-3.812-1.28-4.782a3.494 3.494 0 0 0-1.995-.463zM2.105 328.621c.022.089.052.173.08.26-.027-.086-.058-.17-.08-.26zm.233.662c.026.056.059.108.088.163-.03-.055-.062-.107-.088-.163zm.344.58c.035.049.075.093.113.14-.038-.047-.078-.091-.113-.14zm.459.512c.038.036.082.066.123.1-.04-.034-.084-.064-.123-.1zm.57.422c.015.01.027.022.043.031.026.016.055.023.082.037-.042-.022-.084-.044-.125-.068zm.613.29c.072.025.143.045.215.066a3.487 3.487 0 0 1-.215-.067z" opacity=".2"/>
        <path d="m11.222 309.892 1.75-3.032a3.492 3.492 0 0 1 4.781-1.28 3.492 3.492 0 0 1 1.281 4.78l-1.75 3.032z" fill="#8cd5ff"/>
        <path d="m4.222 322.016-1.75 3.03a3.492 3.492 0 0 0 1.281 4.782c1.68.97 3.812.398 4.781-1.281l1.75-3.031z" fill="#0d52bf"/>
        <path d="m11.222 309.892 6.062 3.5-3.5 6.062c-3.312.694-5.578-.12-6.062-3.5z" fill="#64baff"/>
        <path d="m7.722 315.954 6.062 3.5-3.5 6.062-6.062-3.5z" fill="#3689e6"/>
        <path d="M2 309.3v-3.5c0-1.939 1.561-3.5 3.5-3.5s3.5 1.561 3.5 3.5v3.5z" fill="#e2ffb4"/>
        <path d="M2 323.3v3.5c0 1.939 1.561 3.5 3.5 3.5s3.5-1.561 3.5-3.5v-3.5z" fill="#3a9104"/>
        <path d="M5.5 302.3a3.492 3.492 0 0 0-3.5 3.5v1c0-1.939 1.561-3.5 3.5-3.5s3.5 1.561 3.5 3.5v-1c0-1.939-1.561-3.5-3.5-3.5zm10.258 2.816a3.49 3.49 0 0 0-2.785 1.745l-1.75 3.03-3.5 6.063c.037.264.099.494.158.727l3.342-5.79 1.75-3.03a3.49 3.49 0 0 1 4.78-1.282 3.474 3.474 0 0 1 1.707 2.551 3.486 3.486 0 0 0-1.705-3.55 3.494 3.494 0 0 0-1.996-.464zm8.178 7.686a3.498 3.498 0 0 0-1.997.465l-3.03 1.75-2.98 1.719-.865 1.5 3.844-2.22 3.031-1.75a3.493 3.493 0 0 1 4.782 1.28c.225.391.36.807.424 1.227a3.472 3.472 0 0 0-.424-2.227 3.488 3.488 0 0 0-2.785-1.744zM20.29 323.3l-1.732 1H26.5a3.482 3.482 0 0 1 3.451 3c.024-.165.049-.329.049-.5 0-1.939-1.561-3.5-3.5-3.5H23z" fill="#f4f4f7" opacity=".2"/>
        <path d="M2 309.3h7v7c-2.521 2.257-4.89 2.685-7 0z" fill="#9bdb4d"/>
        <path d="M2 316.3h7v7H2z" fill="#68b723"/>
        <circle cx="5.5" cy="327.8" opacity=".2" r="1.5"/>
        <circle cx="5.5" cy="326.8" fill="#f4f4f7" r="1.5"/>
    </g>
</svg>
