<svg height="32" width="32" xmlns="http://www.w3.org/2000/svg"><rect fill="#995d27" height="28" rx="1.5" transform="matrix(0 -1 -1 0 0 0)" width="22" x="-27" y="-30"/><path d="m3.5 5c-.831 0-1.5.669-1.5 1.5v1c0-.831.669-1.5 1.5-1.5h25c.831 0 1.5.669 1.5 1.5v-1c0-.831-.669-1.5-1.5-1.5z" fill="#fff" opacity=".1"/><path d="m2 25.5v1c0 .831.669 1.5 1.5 1.5h25c.831 0 1.5-.669 1.5-1.5v-1c0 .831-.669 1.5-1.5 1.5h-25c-.831 0-1.5-.669-1.5-1.5z" opacity=".2"/><path d="m24 17c0-8.308-3.333-9-10-9s-10 .692-10 9 3.333 9 10 9 10-.692 10-9z" opacity=".2"/><path d="m24 16c0-8.308-3.333-9-10-9s-10 .692-10 9 3.333 9 10 9 10-.692 10-9z" fill="#57c2ff"/><path d="m25 20v1h4v-1zm0 2v1h4v-1zm0 2v1h4v-1z" fill="#f4f4f7"/><g opacity=".2"><circle cx="27" cy="10" r="2"/><circle cx="27" cy="15" r="2"/></g><g fill="#f4f4f7"><circle cx="27" cy="9" r="2"/><circle cx="27" cy="14" r="2"/><path d="m14 7c-6.667 0-10 .692-10 9 0 .177.01.33.014.5.138-7.817 3.461-8.5 9.986-8.5s9.848.683 9.986 8.5c.003-.17.014-.323.014-.5 0-8.308-3.333-9-10-9z" opacity=".2"/></g></svg>