<svg height="32" width="32" xmlns="http://www.w3.org/2000/svg"><rect height="23" opacity=".2" rx="2.073" ry="2.3" transform="rotate(90)" width="29" x="2" y="-28"/><rect fill="#8d8d8d" height="23" rx="2.073" ry="2.3" transform="rotate(90)" width="29" x="1" y="-28"/><path d="m8 16.938v-12.399s0-.539.548-.539h15.904c.548 0 .548.54.548.54v12.398" fill="#01dfd8"/><path d="m8 17.938v9.173s0 .889.797.889h10.203l6-6v-4.063z" opacity=".2"/><path d="m8 16.938h17v4.062l-3.984 2.153-2.016 3.847h-10.203c-.797 0-.797-.888-.797-.888z" fill="#f4f4f7"/><path d="m19 27v-5.182s0-.818.818-.818h5.182z" fill="#ccc"/><rect height="3" opacity=".2" rx=".725" ry=".75" width="29" x="2" y="16"/><g fill="#f4f4f7"><rect height="3" rx=".725" ry=".75" width="29" x="2" y="15"/><path d="m7.3 1c-1.272 0-2.3.924-2.3 2.072v1c0-1.148 1.027-2.072 2.3-2.072h18.4c1.273 0 2.3.924 2.3 2.072v-1c0-1.148-1.027-2.072-2.3-2.072z" opacity=".1"/><path d="m8.549 4c-.549 0-.549.54-.549.54v1s0-.54.549-.54h15.901c.55 0 .55.54.55.54v-1s0-.54-.549-.54h-15.901z" opacity=".2"/></g></svg>