<svg xmlns="http://www.w3.org/2000/svg" width="32" height="32" version="1"><path fill="#ffc947" d="M16 3c-1.215 0-2.386.177-3.5.486A12.96 12.96 0 0 1 22 16a12.961 12.961 0 0 1-9.5 12.514c1.114.31 2.285.486 3.5.486 7.202 0 13-5.798 13-13S23.202 3 16 3z"/><path fill="#478aff" d="m9.5 18 1.7 3.292 3.8.528-2.75 2.562.649 3.618L9.5 26.292 6.1 28l.65-3.618L4 21.82l3.8-.528z"/><path fill="#6fa4ff" d="m14.5 12 1.39 2.634 3.11.422-2.25 2.05L17.28 20 14.5 18.634 11.719 20l.53-2.894-2.25-2.05 3.11-.422z"/><path fill="#90b9ff" d="m11 8 .927 1.646L14 9.91l-1.5 1.281.354 1.81L11 12.145 9.146 13l.354-1.809L8 9.91l2.073-.264z"/><path opacity=".2" d="M14.26 4.121c-.6.083-1.188.207-1.76.365A12.953 12.953 0 0 1 21.979 16.5c.006-.167.021-.332.021-.5a12.95 12.95 0 0 0-7.74-11.879zm-5.24 6.66L8 10.91l1.332 1.139.168-.858-.48-.41zm3.96 0-.48.41.168.858L14 10.909l-1.02-.128zM11 12.146l-1.639.754-.215 1.1L11 13.146l1.854.854-.215-1.1L11 12.146zm-.045 3.78-.955.131 2.092 1.906.158-.858-1.295-1.179zm7.09 0-1.295 1.179.158.858L19 16.057l-.955-.131zm10.93.574C28.711 23.466 23.033 29 16 29c-.591 0-1.171-.042-1.74-.121-.567.25-1.153.466-1.76.635 1.114.309 2.285.486 3.5.486 7.202 0 13-5.798 13-13 0-.169-.019-.333-.025-.5zM14.5 18.633 11.92 19.9l-.201 1.1 2.781-1.367L17.281 21l-.201-1.1-2.58-1.267zm-9.566 4.056L4 22.82l2.596 2.42.154-.857-1.816-1.694zm9.132 0-1.816 1.694.154.857L15 22.82l-.934-.131zM9.5 26.291 6.299 27.9 6.102 29 9.5 27.291 12.898 29l-.072-.406c-.108-.028-.219-.051-.326-.08.1-.028.196-.066.295-.096l-.094-.518L9.5 26.291z"/><path fill="#fff" opacity=".2" d="M16 3c-1.215 0-2.386.177-3.5.486a12.92 12.92 0 0 1 1.76.635A12.96 12.96 0 0 1 28.975 16.5c.006-.167.025-.331.025-.5 0-7.202-5.798-13-13-13zm-5 5-.928 1.647L8 9.91l1.02.871 1.052-.135L11 9l.928 1.646 1.052.135 1.02-.87-2.072-.264L11 8zm3.5 4-1.391 2.633-3.109.424.955.869 2.154-.293L14.5 13l1.391 2.633 2.154.293.955-.869-3.109-.424L14.5 12zm-5.168.049L9.147 13l.214-.1.139-.709-.168-.142zm3.336 0-.168.142.139.709.215.1-.186-.951zm9.311 4.451a12.945 12.945 0 0 1-9.184 11.918l.031.176c.469.118.946.217 1.434.285A12.95 12.95 0 0 0 22 17c0-.168-.015-.333-.021-.5zm-9.887 1.463L11.719 20l.201-.1.33-1.795-.158-.142zm4.816 0-.158.142.33 1.795.201.1-.373-2.037zM9.5 18l-1.7 3.291-3.8.529.934.869 2.867-.398L9.5 19l1.699 3.291 2.867.398.934-.869-3.801-.529L9.5 18zm-2.904 7.24L6.102 28l.197-.1.451-2.517-.154-.143zm5.808 0-.154.143.451 2.517.197.1-.494-2.76z"/></svg>