<svg height="32" width="32" xmlns="http://www.w3.org/2000/svg">
    <g fill-rule="evenodd">
        <path d="M30.004 3.023c-.248-.04-.471.101-.606.26-.134.16-.227.358-.308.607-.14.431-.655 2.032-2.51 3.615-1.857 1.582-5.058 3.352-10.605 3.495-3.373.04-5.7-1.41-7.045-4.072C8.594 6.264 8 5.026 8 5.814v1.218l-.017 6.303.034.083s.302.67-.017 1.575c-.32.905-1.473 2.225-4.288 3.07l-.344.102.066.362c.156.878.778 1.777 1.697 2.698.918.92 2.148 1.852 3.58 2.695 2.864 1.684 6.533 3.016 10.097 3.078s7.052-1.184 9.36-4.636c2.307-3.452 3.432-9.741 2.51-18.322h-.002a1.756 1.756 0 0 0-.174-.613c-.093-.176-.25-.358-.498-.397z" opacity=".2"/>
        <path d="M30.004 2.023c-.248-.04-.471.101-.606.26-.134.16-.227.358-.308.607-.14.431-.655 2.032-2.51 3.615C24.722 8.087 21.521 9.857 15.974 10c-3.373.04-5.7-1.91-7.045-4.571C8.594 4.764 8 3.526 8 4.314v1.218l-.017 6.803.034.083s.302.67-.017 1.575c-.32.905-1.473 2.225-4.288 3.07l-.344.102.066.362c.156.878.778 1.777 1.697 2.698.918.92 2.148 1.852 3.58 2.695 2.864 1.684 6.533 3.016 10.097 3.078s7.052-1.184 9.36-4.636c2.307-3.452 3.432-9.741 2.51-18.322h-.002a1.756 1.756 0 0 0-.174-.613c-.093-.176-.25-.358-.498-.397z" fill="#645b44"/>
        <path d="M30.004 2.023c-.248-.039-.471.1-.606.26-.134.16-.227.358-.308.608-.14.43-.654 2.03-2.51 3.613C24.724 8.086 21.522 9.857 15.975 10c-3.374.04-5.7-1.91-7.045-4.572C8.594 4.763 8 3.527 8 4.314v1c0-.787.594.45.93 1.114 1.345 2.661 3.67 4.611 7.045 4.572 5.547-.143 8.749-1.914 10.605-3.496s2.37-3.182 2.51-3.613c.08-.25.174-.448.308-.608.135-.16.358-.299.606-.26v.006c.248.04.405.223.498.399s.145.377.174.613h.002c.206 1.917.295 3.7.306 5.38.03-1.96-.06-4.08-.306-6.38h-.002a1.757 1.757 0 0 0-.174-.613c-.093-.176-.25-.36-.498-.399zM8 5.531l-.018 6.803.002.006L8 6.53zm.074 8.12c-.023.113-.03.22-.074.343-.32.905-1.473 2.224-4.287 3.069l-.344.101.065.363c.033.188.097.377.171.567l.108-.032C6.527 17.218 7.68 15.9 8 14.995c.237-.67.144-1.108.074-1.344z" fill="#f4f4f7" opacity=".1"/>
        <path d="M18 10c-.99 0-1.985.327-2.742 1S14 12.7 14 14c0 1.303.5 2.327 1.258 3 .757.673 1.752 1 2.741 1 .99 0 1.984-.327 2.742-1 .757-.673 1.259-1.697 1.259-3 0-1.301-.502-2.327-1.26-3-.757-.673-1.751-1-2.74-1z" opacity=".2"/>
        <path d="M11 10c-.99 0-1.985.327-2.742 1S7 12.7 7 14c0 1.303.5 2.327 1.258 3 .757.673 1.752 1 2.741 1 .99 0 1.984-.327 2.742-1 .757-.673 1.259-1.697 1.259-3 0-1.301-.502-2.327-1.26-3-.757-.673-1.751-1-2.74-1z" opacity=".2"/>
        <path d="M11 9c-.99 0-1.985.327-2.742 1S7 11.7 7 13c0 1.303.5 2.327 1.258 3 .757.673 1.752 1 2.741 1 .99 0 1.984-.327 2.742-1 .757-.673 1.259-1.697 1.259-3 0-1.301-.502-2.327-1.26-3-.757-.673-1.751-1-2.74-1z" fill="#f4f4f7"/>
        <path d="M12 12c-.49 0-.986.162-1.367.501-.382.34-.633.862-.633 1.499s.251 1.16.633 1.499c.381.339.877.501 1.367.501s.986-.162 1.367-.501c.382-.34.633-.862.633-1.499s-.251-1.16-.633-1.499A2.053 2.053 0 0 0 12 12z" fill="#17191e"/>
        <path d="M3.983 13c-.178 0-.352.011-.521.039-.451.074-.869.25-1.23.517-1.44 1.068-1.82 3.49-.04 6.027 1.78 2.536 4.134 2.93 5.574 1.86 1.44-1.068 1.822-3.49.042-6.026C6.641 13.753 5.225 13.011 3.983 13z" opacity=".1"/>
        <path d="M3.983 12c-.178 0-.352.011-.521.039-.451.074-.869.25-1.23.517-1.44 1.068-1.82 3.49-.04 6.027 1.78 2.536 4.134 2.93 5.574 1.86 1.44-1.068 1.822-3.49.042-6.026C6.641 12.753 5.225 12.011 3.983 12z" fill="#17191e"/>
        <path d="M18 9c-.99 0-1.985.327-2.742 1S14 11.7 14 13c0 1.303.5 2.327 1.258 3 .757.673 1.752 1 2.741 1 .99 0 1.984-.327 2.742-1 .757-.673 1.259-1.697 1.259-3 0-1.301-.502-2.327-1.26-3-.757-.673-1.751-1-2.74-1z" fill="#f4f4f7"/>
        <path d="M19 12c-.49 0-.986.162-1.367.501-.382.34-.633.862-.633 1.499s.251 1.16.633 1.499c.381.339.877.501 1.367.501s.986-.162 1.367-.501c.382-.34.633-.862.633-1.499s-.251-1.16-.633-1.499A2.053 2.053 0 0 0 19 12z" fill="#17191e"/>
        <path d="M3.982 12c-.177 0-.352.011-.521.04a2.81 2.81 0 0 0-1.229.517c-.887.658-1.366 1.832-1.191 3.228.105-.947.527-1.735 1.191-2.228a2.81 2.81 0 0 1 1.229-.518c.17-.028.344-.039.521-.039 1.243.011 2.659.752 3.827 2.416.683.974 1.041 1.929 1.15 2.799.123-1.106-.192-2.433-1.15-3.799C6.64 12.752 5.225 12.011 3.982 12z" fill="#f4f4f7" opacity=".1"/>
    </g>
    <path d="m18.709 21.533-.709.39s2.965 2.62 5.629 3.913a2.47 2.47 0 0 0-.03.627l.49-.082s1.7.499 2.966.88c-.16.818.252 1.799 1.341 2.198C30.264 30.143 32 31 32 31c-.89-2.894-1.207-5.193-3.535-4.988-.119.01-.23.032-.334.06L25 24.47V24l-.338.223c-.06.032-.107.088-.162.129-2.467-1.493-5.791-2.819-5.791-2.819z" opacity=".2"/>
    <path d="m24.977 25.38.649-1.291c-2.413-1.765-6.916-3.556-6.916-3.556l-.71.39s4.09 3.627 6.977 4.457z" fill="#ff9a0c"/>
    <path d="m25 23-.338.222c-.313.172-.568.463-.774.8-.235.554-.329.9-.288 1.442l.49-.084s2.558.734 3.77 1.12l.141-.273.499-.965-3.5-1.793z" fill="#8a8a8a"/>
    <path d="M32 30c-.89-2.894-1.207-5.192-3.534-4.987-1.876.164-2.007 2.737-.07 3.447A41.703 41.703 0 0 1 32 30z" fill="#17191e"/>
</svg>
