<svg height="32" width="32" xmlns="http://www.w3.org/2000/svg"><path d="m15.963 3a1 1 0 0 0 -.41.105l-12 6a1 1 0 0 0 -.553.895v14a1 1 0 0 0 .553.894l12 6a1 1 0 0 0 .894 0l12-6a1 1 0 0 0 .553-.894v-14a1 1 0 0 0 -.553-.895l-12-6a1 1 0 0 0 -.484-.105z" opacity=".2"/><path d="m15.963 2a1 1 0 0 0 -.41.105l-12 6a1 1 0 0 0 -.553.895v14a1 1 0 0 0 .553.895l12 6a1 1 0 0 0 .894 0l12-6a1 1 0 0 0 .553-.895v-14a1 1 0 0 0 -.553-.895l-12-6a1 1 0 0 0 -.484-.105z" fill="#17191e"/><path d="m16.008 6.997a1 1 0 0 0 -1.008 1v8a1 1 0 0 0 .514.875l9 5a1 1 0 0 0 1.486-.875v-8a1 1 0 0 0 -.514-.875l-9-5a1 1 0 0 0 -.478-.125z" opacity=".2"/><path d="m16.008 5.997a1 1 0 0 0 -1.008 1v8a1 1 0 0 0 .514.875l9 5a1 1 0 0 0 1.486-.875v-8a1 1 0 0 0 -.514-.875l-9-5a1 1 0 0 0 -.478-.125z" fill="#5891d9"/><path d="m11.008 9.997a1 1 0 0 0 -1.008 1v8a1 1 0 0 0 .514.875l9 5a1 1 0 0 0 1.486-.875v-8a1 1 0 0 0 -.514-.875l-9-5a1 1 0 0 0 -.478-.125z" opacity=".2"/><path d="m11.008 8.997a1 1 0 0 0 -1.008 1v8a1 1 0 0 0 .514.875l9 5a1 1 0 0 0 1.486-.875v-8a1 1 0 0 0 -.514-.875l-9-5a1 1 0 0 0 -.478-.125z" fill="#8ed599"/><path d="m10 17.997c0 .113.025.221.06.325l3.42 2.199 6.034 3.351a1 1 0 0 0 1.486-.875v-3l-2-2z" fill="#f4f4f7"/><path d="m7.008 11.997a1 1 0 0 0 -1.008 1v8a1 1 0 0 0 .514.875l9 5a1 1 0 0 0 1.486-.875v-8a1 1 0 0 0 -.514-.875l-9-5a1 1 0 0 0 -.478-.125z" opacity=".2"/><path d="m7.008 10.997a1 1 0 0 0 -1.008 1v8a1 1 0 0 0 .514.875l9 5a1 1 0 0 0 1.486-.875v-8a1 1 0 0 0 -.514-.875l-9-5a1 1 0 0 0 -.478-.125z" fill="#d75a86"/><g fill="#f4f4f7"><path d="m6 17.152v3a1 1 0 0 0 .514.875l8.052 4.473-5.566-8.348z"/><path d="m15.963 2a1 1 0 0 0 -.41.105l-12 6a1 1 0 0 0 -.553.895v1a1 1 0 0 1 .553-.895l12-6a1 1 0 0 1 .894 0l12 6a1 1 0 0 1 .553.895v-1a1 1 0 0 0 -.553-.895l-12-6a1 1 0 0 0 -.484-.105z" opacity=".1"/><path d="m16.008 5.998a1 1 0 0 0 -1.008 1v1a1 1 0 0 1 1.486-.875l9 5a1 1 0 0 1 .514.875v-1a1 1 0 0 0 -.514-.875l-9-5a1 1 0 0 0 -.478-.125zm-5 3a1 1 0 0 0 -1.008 1v1a1 1 0 0 1 1.486-.875l9 5a1 1 0 0 1 .514.875v-1a1 1 0 0 0 -.514-.875l-9-5a1 1 0 0 0 -.478-.125zm-4 2a1 1 0 0 0 -1.008 1v1a1 1 0 0 1 1.486-.875l9 5a1 1 0 0 1 .514.875v-1a1 1 0 0 0 -.514-.875l-9-5a1 1 0 0 0 -.478-.125z" opacity=".2"/><path d="m22 13.5c0 1.143.64 1.5 1 1.5.607 0 1-1 1-1s-.866.305-1 0c-.438-1 0-2 0-2s-1 .492-1 1.5z"/></g></svg>