<svg height="32" width="32" xmlns="http://www.w3.org/2000/svg"><path d="m5.518 3c-.841 0-1.518.625-1.518 1.4v25.2c0 .775.677 1.4 1.518 1.4h20.982c.831 0 1.5-.625 1.5-1.4v-25.2c0-.775-.669-1.4-1.5-1.4z" opacity=".2"/><path d="m5.518 2c-.841 0-1.518.624-1.518 1.4v25.2c0 .776.677 1.4 1.518 1.4h3.482v-28z" fill="#4f4f4f"/><path d="m9 2v28h17.5c.831 0 1.5-.624 1.5-1.4v-25.2c0-.776-.669-1.4-1.5-1.4h-10.516z" fill="#c4411a"/><path d="m13 10h11l-11 14h11" style="opacity:.2;fill:none;stroke:#000;stroke-width:2;stroke-linecap:round;stroke-linejoin:round"/><path d="m13 9h11l-11 14h11" fill="none" stroke="#f4f4f7" stroke-linecap="round" stroke-linejoin="round" stroke-width="2"/><path d="m5.518 2c-.841 0-1.518.625-1.518 1.4v1c0-.775.677-1.4 1.518-1.4h20.982c.831 0 1.5.625 1.5 1.4v-1c0-.775-.669-1.4-1.5-1.4z" fill="#f4f4f7" opacity=".1"/></svg>