<svg height="32" width="32" xmlns="http://www.w3.org/2000/svg"><rect height="28" opacity=".2" rx="14" width="28" x="2" y="3"/><rect fill="#f4f4f7" height="28" rx="14" width="28" x="2" y="2"/><path d="m14.952 27.91a.81.81 0 0 1 -.371-.705v-.238l-.438-.085c-1.492-.288-2.99-1.112-4.358-2.396-1.139-1.068-2.149-2.753-2.683-4.471-.103-.332-.114-.347-.3-.404-.484-.148-1.163-.597-1.418-.938-.269-.36-.384-.694-.384-1.115 0-.34.019-.426.155-.71.244-.503.763-.905 1.478-1.142l.309-.102.113-.422c.372-1.387 1.039-2.7 1.905-3.754.529-.643 1.337-1.335 2.212-1.895l.447-.286.086-.357a4.214 4.214 0 0 1 .679-1.407c.482-.618 1.473-1.26 2.177-1.412.734-.16 1.446-.051 2.22.335.73.366 1.14.83 1.375 1.556l.123.38.446.084c1.624.304 3.315 1.294 4.666 2.73 1.027 1.092 1.847 2.688 2.236 4.352l.13.555.283.212c.345.259.619.602.813 1.019.127.27.147.368.147.7 0 .342-.019.427-.157.713-.185.383-.43.612-.914.856l-.337.169-.128.386c-.662 1.982-1.677 3.565-3.022 4.71-1.813 1.545-3.539 2.217-5.69 2.217h-.645l-.023.245c-.04.413-.304.677-.709.706-.194.014-.289-.006-.423-.087zm2.094-1.708c1.55-.276 3.1-1.466 4.307-3.305.432-.66 1.026-1.899 1.262-2.634.284-.884.286-.8-.024-1.019-.537-.377-1.095-1.26-1.28-2.022a6.929 6.929 0 0 0 -.09-.355c-.014-.024-.557.359-.615.434-.027.036-.087.228-.133.427-.183.79-.542 1.447-1.128 2.063l-.332.35.079.364c.24 1.118-.129 2.392-.901 3.113-.563.525-1.208.784-2.226.894l-.296.032v.837c0 .83 0 .837.106.858.245.048.902.029 1.272-.037zm-2.04-.937v-.815l-.218-.056c-.881-.227-1.8-.984-2.196-1.812-.423-.88-.442-1.613-.067-2.514l.126-.302-.236-.307a4.906 4.906 0 0 1 -.65-1.135 1.587 1.587 0 0 0 -.126-.272c-.012-.006-.144.102-.295.239l-.273.249.053.282.075.385c.012.056.085.13.164.162a.97.97 0 0 1 .284.225c.263.305.16.732-.281 1.167-.304.3-.379.467-.413.928l-.03.387-.107-.103a1.307 1.307 0 0 1 -.212-.351c-.091-.216-.101-.304-.078-.671.025-.393.02-.423-.063-.423-.05 0-.165-.077-.257-.17-.139-.142-.167-.206-.167-.376 0-.264.091-.392.354-.494.223-.087.255-.167.173-.438-.03-.099-.045-.094-.42.12-.22.126-.39.255-.39.296 0 .19.51 1.59.783 2.154.834 1.72 1.964 3.065 3.261 3.882.291.184 1.074.568 1.171.575.02.001.035-.364.035-.812zm-2.176.41c0-.01-.165-.145-.367-.3-.488-.373-1.325-1.207-1.69-1.685-.815-1.063-1.35-2.166-1.706-3.518a4.905 4.905 0 0 0 -.13-.446c-.045-.046-.79.103-.79.157 0 .24.637 1.68 1.028 2.321.775 1.271 1.86 2.362 3.201 3.22.416.266.454.287.454.251zm7.33-.207c2.014-1.265 3.464-3.077 4.194-5.244.125-.37.138-.352-.287-.387a3.705 3.705 0 0 1 -.349-.04c-.046-.012-.118.16-.246.59-.43 1.445-.956 2.464-1.803 3.496a10.12 10.12 0 0 1 -1.838 1.723c-.252.176-.01.075.328-.138zm-3.62-1.753c.88-.23 1.509-.833 1.711-1.642.078-.311.08-1.165.003-1.292-.021-.036-.13-.007-.333.086-.5.231-.988.341-1.649.372l-.603.027v2.545h.252c.14 0 .418-.043.619-.096zm-1.534-1.27v-1.27l-.343-.112a5.326 5.326 0 0 1 -1.21-.594c-.112-.079-.21-.136-.218-.127-.007.01-.047.126-.088.259-.362 1.167.17 2.305 1.353 2.895.24.12.451.218.471.218s.035-.571.035-1.27zm2.2-2.11c.183-.06.434-.16.56-.225l.227-.117-.197-.372c-.446-.845-1.727-2.501-2.958-3.824a29.275 29.275 0 0 1 -1.077-1.23 64.507 64.507 0 0 0 -.507-.622c-.057-.063-.462.523-.667.965-.263.568-.34.946-.337 1.66.003.897.226 1.622.703 2.284l.167.233.369-.36c.814-.794 1.68-.978 2.362-.504.113.08.269.244.347.368.127.202.139.253.119.523-.029.394-.198.697-.457.819-.182.085-.189.097-.19.324v.236l.602-.025c.439-.019.694-.055.935-.133zm1.815-1.235c.307-.342.656-.977.78-1.421.257-.917.162-2.053-.24-2.871-.297-.605-.918-1.293-1.48-1.642-.987-.611-2.303-.72-3.406-.28-.374.15-.757.374-.757.8" opacity=".1"/><path d="m14.952 26.91a.81.81 0 0 1 -.371-.705v-.238l-.438-.085c-1.492-.288-2.99-1.112-4.358-2.396-1.139-1.068-2.149-2.753-2.683-4.471-.103-.332-.114-.347-.3-.404-.484-.148-1.163-.597-1.418-.938-.269-.36-.384-.694-.384-1.115 0-.34.019-.426.155-.71.244-.503.763-.905 1.478-1.142l.309-.102.113-.422c.372-1.387 1.039-2.7 1.905-3.754.529-.643 1.337-1.335 2.212-1.895l.447-.286.086-.357a4.214 4.214 0 0 1 .679-1.407c.482-.618 1.473-1.26 2.177-1.412.734-.16 1.446-.051 2.22.335.73.366 1.14.83 1.375 1.556l.123.38.446.084c1.624.304 3.315 1.294 4.666 2.73 1.027 1.092 1.847 2.688 2.236 4.352l.13.555.283.212c.345.259.619.602.813 1.019.127.27.147.368.147.7 0 .342-.019.427-.157.713-.185.383-.43.612-.914.856l-.337.169-.128.386c-.662 1.982-1.677 3.565-3.022 4.71-1.813 1.545-3.539 2.217-5.69 2.217h-.645l-.023.245c-.04.413-.304.677-.709.706-.194.014-.289-.006-.423-.087zm2.094-1.708c1.55-.276 3.1-1.466 4.307-3.305.432-.66 1.026-1.899 1.262-2.634.284-.884.286-.8-.024-1.019-.537-.377-1.095-1.26-1.28-2.022a6.929 6.929 0 0 0 -.09-.355c-.014-.024-.557.359-.615.434-.027.036-.087.228-.133.427-.183.79-.542 1.447-1.128 2.063l-.332.35.079.364c.24 1.118-.129 2.392-.901 3.113-.563.525-1.208.784-2.226.894l-.296.032v.837c0 .83 0 .837.106.858.245.048.902.029 1.272-.037zm-2.04-.937v-.815l-.218-.056c-.881-.227-1.8-.984-2.196-1.812-.423-.88-.442-1.613-.067-2.514l.126-.302-.236-.307a4.906 4.906 0 0 1 -.65-1.135 1.587 1.587 0 0 0 -.126-.272c-.012-.006-.144.102-.295.239l-.273.249.053.282.075.385c.012.056.085.13.164.162a.97.97 0 0 1 .284.225c.263.305.16.732-.281 1.167-.304.3-.379.467-.413.928l-.03.387-.107-.103a1.307 1.307 0 0 1 -.212-.351c-.091-.216-.101-.304-.078-.671.025-.393.02-.423-.063-.423-.05 0-.165-.077-.257-.17-.139-.142-.167-.206-.167-.376 0-.264.091-.392.354-.494.223-.087.255-.167.173-.438-.03-.099-.045-.094-.42.12-.22.126-.39.255-.39.296 0 .19.51 1.59.783 2.154.834 1.72 1.964 3.065 3.261 3.882.291.184 1.074.568 1.171.575.02.001.035-.364.035-.812zm-2.176.41c0-.01-.165-.145-.367-.3-.488-.373-1.325-1.207-1.69-1.685-.815-1.063-1.35-2.166-1.706-3.518a4.905 4.905 0 0 0 -.13-.446c-.045-.046-.79.103-.79.157 0 .24.637 1.68 1.028 2.321.775 1.271 1.86 2.362 3.201 3.22.416.266.454.287.454.251zm7.33-.207c2.014-1.265 3.464-3.077 4.194-5.244.125-.37.138-.352-.287-.387a3.705 3.705 0 0 1 -.349-.04c-.046-.012-.118.16-.246.59-.43 1.445-.956 2.464-1.803 3.496a10.12 10.12 0 0 1 -1.838 1.723c-.252.176-.01.075.328-.138zm-3.62-1.753c.88-.23 1.509-.833 1.711-1.642.078-.311.08-1.165.003-1.292-.021-.036-.13-.007-.333.086-.5.231-.988.341-1.649.372l-.603.027v2.545h.252c.14 0 .418-.043.619-.096zm-1.534-1.27v-1.27l-.343-.112a5.326 5.326 0 0 1 -1.21-.594c-.112-.079-.21-.136-.218-.127-.007.01-.047.126-.088.259-.362 1.167.17 2.305 1.353 2.895.24.12.451.218.471.218s.035-.571.035-1.27zm2.2-2.11c.183-.06.434-.16.56-.225l.227-.117-.197-.372c-.446-.845-1.727-2.501-2.958-3.824a29.275 29.275 0 0 1 -1.077-1.23 64.507 64.507 0 0 0 -.507-.622c-.057-.063-.462.523-.667.965-.263.568-.34.946-.337 1.66.003.897.226 1.622.703 2.284l.167.233.369-.36c.814-.794 1.68-.978 2.362-.504.113.08.269.244.347.368.127.202.139.253.119.523-.029.394-.198.697-.457.819-.182.085-.189.097-.19.324v.236l.602-.025c.439-.019.694-.055.935-.133zm1.815-1.235c.307-.342.656-.977.78-1.421.257-.917.162-2.053-.24-2.871-.297-.605-.918-1.293-1.48-1.642-.987-.611-2.303-.72-3.406-.28-.374.15-.757.374-.757.8" fill="#17191e"/><path d="m16 2c-7.756 0-14 6.244-14 14 0 .169.02.333.025.5.265-7.52 6.388-13.5 13.975-13.5" fill="#f4f4f7" opacity=".2"/></svg>