<svg height="32" width="32" xmlns="http://www.w3.org/2000/svg">
    <rect fill="#f4f4f7" height="20" rx="1.3" ry="1.333" transform="matrix(0 -1 -1 0 0 0)" width="26" x="-29" y="-26"/>
    <path d="M13.701 12C12.214 12 11 13.117 11 14.5c0 .72.326 1.377.848 1.833L15.933 20l4.22-3.667A2.432 2.432 0 0 0 21 14.5c0-1.383-1.214-2.5-2.7-2.5-.98 0-1.829.481-2.3 1.208-.47-.727-1.32-1.208-2.299-1.208zM8.08 10c-.595 0-1.08.419-1.08.938 0 .269.13.516.34.687L8.972 13l1.688-1.375a.89.89 0 0 0 .339-.687c0-.519-.486-.938-1.08-.938-.392 0-.732.18-.92.453-.188-.273-.528-.453-.92-.453zm1.824-1.729H8.291L8.037 9H7l1.482-4h1.23l1.481 4h-1.037zM8.548 7.53h1.096l-.546-1.591zM23.92 22c.594 0 1.08-.419 1.08-.938a.89.89 0 0 0-.339-.687L23.027 19l-1.688 1.375a.89.89 0 0 0-.339.687c0 .519.486.938 1.08.938.392 0 .732-.18.92-.453.188.273.528.453.92.453zm-1.824 1.729h1.613l.254-.729H25l-1.482 4h-1.23l-1.481-4h1.037zm1.356.742h-1.096l.546 1.592z" fill="#e74c3c"/>
    <path d="M7.334 3C6.595 3 6 3.58 6 4.3v1C6 4.58 6.595 4 7.334 4h17.332C25.405 4 26 4.58 26 5.3v-1c0-.72-.595-1.3-1.334-1.3z" fill="#fff" opacity=".2"/>
    <path d="M6 27.699v1C6 29.419 6.595 30 7.334 30h17.332c.739 0 1.334-.581 1.334-1.301v-1c0 .72-.595 1.301-1.334 1.301H7.334C6.595 29 6 28.419 6 27.699z" opacity=".2"/>
</svg>
