<svg xmlns="http://www.w3.org/2000/svg" width="32" height="32" version="1">
    <rect style="opacity:.2" width="19.636" height="24.545" x="-29.78" y="-22.58" rx="1.227" ry="1.227" transform="scale(-1 1) rotate(-75)"/>
    <rect style="fill:#1b4cb0" width="19.636" height="24.545" x="-28.82" y="-22.84" rx="1.227" ry="1.227" transform="scale(-1 1) rotate(-75)"/>
    <path style="fill:#f4f4f7;opacity:.1" d="M23.494 3.232a1.246 1.246 0 0 0-.246.041L1.91 8.99a1.225 1.225 0 0 0-.867 1.504l.062.236c.139-.347.414-.635.805-.74l21.338-5.717a1.225 1.225 0 0 1 1.504.868l4.383 16.357a1.2 1.2 0 0 0 .064-.762L24.752 4.141a1.225 1.225 0 0 0-1.258-.909z"/>
    <rect style="opacity:.2" width="19.091" height="24.545" x="-29.7" y="-26.1" rx="1.193" ry="1.227" transform="scale(-1 1) rotate(-81.734)"/>
    <rect style="fill:#f4f4f7" width="19.091" height="24.545" x="-28.7" y="-26.24" rx="1.193" ry="1.227" transform="scale(-1 1) rotate(-81.734)"/>
    <rect style="opacity:.2" width="19" height="24" x="-29" y="-30" rx="1.188" ry="1.2" transform="matrix(0 -1 -1 0 0 0)"/>
    <path style="fill:#f4f4f7;opacity:.2" d="M26.139 5.918 4.277 9.094c-.673.097-1.138.703-1.043 1.357l.065.45a1.22 1.22 0 0 1 .978-.807L26.14 6.918c.673-.098 1.291.35 1.386 1.004l2.336 16.082c.061-.173.093-.357.065-.55l-2.4-16.532c-.096-.654-.714-1.102-1.387-1.004z"/>
    <rect style="fill:#3e8ff2" width="19" height="24" x="-28" y="-30" rx="1.188" ry="1.2" transform="matrix(0 -1 -1 0 0 0)"/>
    <path style="opacity:.2;fill-rule:evenodd" d="M10.431 10c.065.175-.034.451.426.245.225.462.269-.067.315-.245zm1.327 0c.122.27.103.71.613.399.554.364.6 1.72.678 2.224.431.059-.316 1.882.622 2.11.174-.936.852-1.676 1.53-2.256-.314.136-.714-.185-.282-.58.566.603.227-.055-.013-.45.235-.282.594-.446.448-.992-.32-.24-.25-.375-.027-.455zm9.916 0c-.473.489-1.082 1.146-.876 1.959.193.138.084-1.41.751-1.518a.758.758 0 0 1 .407-.441zm2.566 0c.058.06.082.16.035.342-.198.064-1.163-.344-1.163.602-.665.121.211 1.397-.262 1.456.162-.525-.68-1.474-.437-.49-.016.5.76 2.117.075 1.352.133-1.069-.232.557-.614-.138.793.03.217-2.715-.024-1.083.15.723.102.709-.467.412-.494.563-.915.344-1.29.905-.25.487-.763.777-.797-.209.933.51.415-.744-.214-.66.065-.473-.348-.196-.618-.032-.372.756-1.23 1.62-1.03 2.551.28-.23.417-.189.454.387.435.195.153-1.364.548-1.71.704-.887-.205.791.257.943.868-.163-.008.187-.026.673-.167.707-1.186.207-1.538 1.103-.722.17.193 1.207-.697 1.032-.405.614.523 1.33.668.23.147-.996 1.141.29 1.026.017-.639-.736.051-.699.27-.095.35 1.248.624-1.356 1.078-.434.028-.798.533.174.5.522-.45-.27-1.576.495-.544.569.596.236-.32 1.18-.802.603-.43.808-.805-.597-1.24-.505-.974-.023-1.458 1.193-1.516 2.164-.083.557.318 1.152.775 1.249.938-.43 1.21.208 1.33 1.096.062 1.023.178 2.002.543 3.01 1.154.134.803-1.574 1.464-2.109-.3-1.02.374-1.731.743-2.608-.858.17-1.098-1.165-1.263-1.898.535.011.506 2.407 1.402 1.254.698-.41.346-.903-.2-.866"/>
    <path style="fill:#91b4de;fill-rule:evenodd" d="M10.431 9c.065.175-.034.451.426.245.225.462.269-.067.315-.245zm1.327 0c.122.27.103.71.613.399.554.364.6 1.72.678 2.224.431.059-.316 1.882.622 2.11.174-.936.852-1.676 1.53-2.256-.314.135-.714-.185-.282-.58.566.603.227-.055-.013-.45.235-.282.594-.446.448-.992-.32-.24-.25-.375-.027-.455zm9.916 0c-.473.489-1.082 1.146-.876 1.959.193.138.084-1.41.751-1.518A.758.758 0 0 1 21.956 9zm2.566 0c.058.06.082.16.035.342-.198.064-1.163-.344-1.163.602-.665.121.211 1.397-.262 1.456.162-.525-.68-1.474-.437-.49-.016.5.76 2.117.075 1.352.133-1.069-.232.557-.614-.138.793.03.217-2.715-.024-1.083.15.723.102.709-.467.412-.494.563-.915.344-1.29.905-.25.487-.763.777-.797-.209.933.51.415-.744-.214-.66.065-.473-.348-.196-.618-.032-.372.756-1.23 1.62-1.03 2.551.28-.23.417-.189.454.387.435.195.153-1.364.548-1.71.704-.887-.205.791.257.943.868-.163-.008.187-.026.673-.167.707-1.186.207-1.538 1.103-.722.17.193 1.207-.697 1.032-.405.614.523 1.33.668.23.147-.996 1.141.29 1.026.017-.639-.736.051-.699.27-.095.35 1.248.624-1.356 1.078-.434.028-.798.533.174.5.522-.45-.27-1.576.495-.544.569.596.236-.32 1.18-.802.603-.43.808-.805-.597-1.24-.505-.974-.023-1.458 1.193-1.516 2.164-.083.557.318 1.152.775 1.249.938-.43 1.21.208 1.33 1.096.062 1.023.178 2.002.543 3.01 1.154.134.803-1.574 1.464-2.109-.3-1.02.374-1.731.743-2.608-.858.17-1.098-1.165-1.263-1.898.535.011.506 2.407 1.402 1.254.698-.41.346-.903-.2-.866"/>
    <path style="fill:#3c3c3c" d="M15.158 12.01c-1.058-.059-2.005.127-2.82.568v.002c-.711.39-1.176.916-1.283 1.562a2.505 2.505 0 0 0-.055.531 4.782 4.782 0 0 0 .259 1.556c.197.57.47 1.001.824 1.302.084.112.203.235.392.235a.32.32 0 0 0 .213-.082l.032-.029a.334.334 0 0 0 .11-.249c0-.195-.072-.267-.14-.364l-.006-.01c-.43-.571-.652-1.315-.652-2.273 0-.159.015-.324.043-.496.091-.46.308-.766.707-.996.4-.23 1-.366 1.802-.366a10.782 10.782 0 0 1 2.237.237 13.6 13.6 0 0 1 2.341.727c.73.298 1.422.653 2.078 1.062l.002.002c.658.401 1.284.85 1.88 1.345v.001c1.07.923 1.56 1.842 1.56 2.79 0 .759-.312 1.228-1.07 1.572l-.005.003c-.568.201-1.148.37-1.733.513-.58 0-1.015-.078-1.292-.202a.31.31 0 0 0-.05-.017c-.12-.032-.113-.05-.108-.038a.33.33 0 0 0-.17-.189l-.007-.002a.312.312 0 0 0-.023-.01l-.007-.002a.319.319 0 0 0-.313.064c-.087.044-.172.086-.24.142-.09.073-.208.18-.208.384a.47.47 0 0 0 .14.32.687.687 0 0 0 .214.14 2.507 2.507 0 0 0 .493.153 8.71 8.71 0 0 0 1.348.104c1.22 0 1.366-.16 2.264-.492h.001c.658-.233 1.18-.554 1.539-.983.36-.43.545-.969.545-1.56 0-1.296-.765-2.502-2.174-3.596a13.16 13.16 0 0 0-1.645-1.151 16.56 16.56 0 0 0-1.845-.965 15.712 15.712 0 0 0-2.573-.86l-.004-.002a12.96 12.96 0 0 0-2.597-.38z"/>
    <path style="fill:#3c3c3c" d="M19.58 16a.319.33 0 0 0-.247.129l-.005.004a.319.33 0 0 0-.092.131c-.555 1.447-1.495 3.173-2.817 5.163-.724 1.091-1.36 1.936-1.895 2.527-.533.59-.976.915-1.249 1.004a3.42 3.42 0 0 1-.507.073.319.33 0 0 0-.019.002.635.635 0 0 1-.294-.025.319.33 0 0 0-.001-.002 1.524 1.524 0 0 1-.615-.377.319.33 0 0 0-.025-.025c-.115-.1-.172-.202-.415-.202a.4.4 0 0 0-.286.117.435.435 0 0 0-.113.297c0 .187.08.302.164.413.189.25.463.427.758.578a.319.33 0 0 0 .126.097l.002.001a.319.33 0 0 0 .025.01.319.33 0 0 0 .118.016c.147.037.297.069.463.069.223 0 .437-.02.642-.062.215-.042.418-.112.605-.209 1.287-.601 2.56-2.058 3.905-4.346v-.002a32.27 32.27 0 0 0 2.121-4.285v-.002c.097-.199.074-.351.05-.552a.319.33 0 0 0-.002-.003 1.357 1.357 0 0 0-.049-.25.452.452 0 0 0-.067-.138c-.003-.005-.02-.008-.025-.013l-.015-.026-.145-.098-.054-.012L19.58 16z"/>
    <path style="fill:#f4f4f7;opacity:.2" d="M7.2 9C6.533 9 6 9.53 6 10.188v1A1.19 1.19 0 0 1 7.2 10h21.6c.666 0 1.2.53 1.2 1.188v-1A1.19 1.19 0 0 0 28.8 9H7.2z"/>
</svg>
