<svg height="32" width="32" xmlns="http://www.w3.org/2000/svg">
    <rect height="29" opacity=".2" rx="1.438" ry="1.45" transform="matrix(0 -1 -1 0 0 0)" width="23" x="-29" y="-30"/>
    <rect fill="#4f4f4f" height="29" rx="1.438" ry="1.45" transform="matrix(0 -1 -1 0 0 0)" width="23" x="-28" y="-30"/>
    <path d="M8 8v3H3v13h5v3h15v-3h5V11h-5V8z" opacity=".2"/>
    <path d="M8 7h15v19H8z" fill="#f4f4f7"/>
    <path d="M28 10v13H3V10z" fill="#f4f4f7"/>
    <path d="M19 11v1h1v2.77a3 3 0 0 0-2-.77 3 3 0 0 0 0 6 3 3 0 0 0 2-.768V20h3v-1h-2v-8zM6 14v1h2v7H7v1h3v-1H9v-2.77a3 3 0 0 0 2 .77 3 3 0 0 0 0-6 3 3 0 0 0-2 .768V14zm5 1a2 2 0 1 1 0 4 2 2 0 0 1 0-4zm7 0a2 2 0 1 1 0 4 2 2 0 0 1 0-4z" opacity=".1"/>
    <g fill="#17191e">
        <path d="M8 13h1v8H8z"/>
        <path d="M10 21v1H7v-1zm-1-8v1H6v-1z"/>
        <path d="M11 13a3 3 0 0 0-3 3 3 3 0 0 0 3 3 3 3 0 0 0 3-3 3 3 0 0 0-3-3zm0 1a2 2 0 0 1 2 2 2 2 0 0 1-2 2 2 2 0 0 1-2-2 2 2 0 0 1 2-2z"/>
    </g>
    <path d="M2.45 5A1.44 1.44 0 0 0 1 6.438v1A1.44 1.44 0 0 1 2.45 6h26.1c.804 0 1.45.641 1.45 1.438v-1A1.44 1.44 0 0 0 28.55 5z" fill="#f4f4f7" opacity=".1"/>
    <g fill="#17191e">
        <path d="M21 19h-1v-8h1z"/>
        <path d="M19 11v-1h2v1zm1 8v-1h3v1z"/>
        <path d="M18 19a3 3 0 0 0 3-3 3 3 0 0 0-3-3 3 3 0 0 0-3 3 3 3 0 0 0 3 3zm0-1a2 2 0 0 1-2-2 2 2 0 0 1 2-2 2 2 0 0 1 2 2 2 2 0 0 1-2 2z"/>
    </g>
</svg>
