<svg height="32" width="32" xmlns="http://www.w3.org/2000/svg"><g transform="matrix(0 -1 -1 0 0 0)"><rect height="20" opacity=".2" rx="2.857" width="20" x="-23" y="-22"/><rect fill="#2e72be" height="20" rx="2.857" width="20" x="-22" y="-22"/><rect height="20" opacity=".2" rx="2.857" width="20" x="-27" y="-26"/><rect fill="#459df7" height="20" rx="2.857" width="20" x="-26" y="-26"/><rect height="20" opacity=".2" rx="2.857" width="20" x="-31" y="-30"/><rect fill="#90c2fa" height="20" rx="2.857" width="20" x="-30" y="-30"/></g><path d="m19.502 17a6.83 4.427 38.859 0 0 -3.156 1.737 6.83 4.427 38.859 0 0 3.645 7.774 6.83 4.427 38.859 0 0 7.663-.247 6.83 4.427 38.859 0 0 -3.645-7.774 6.83 4.427 38.859 0 0 -4.507-1.49z" fill="#f34e51"/><path d="m20.742 20.002a4.301 3.123 32.313 0 1 1.86.328 4.301 3.123 32.313 0 1 3.353 4.652 4.301 3.123 32.313 0 1 -4.557 1.689 4.301 3.123 32.313 0 1 -3.353-4.652 4.301 3.123 32.313 0 1 2.697-2.017z" opacity=".2"/><path d="m20.742 19.002a4.301 3.123 32.313 0 1 1.86.328 4.301 3.123 32.313 0 1 3.353 4.652 4.301 3.123 32.313 0 1 -4.557 1.689 4.301 3.123 32.313 0 1 -3.353-4.652 4.301 3.123 32.313 0 1 2.697-2.017z" fill="#f4f4f7"/><path d="m14 16.99 6 5" style="opacity:.2;fill:none;stroke:#000;stroke-width:2;stroke-linecap:round;stroke-linejoin:round"/><path d="m14 16 6 5" fill="none" stroke="#f34e51" stroke-linecap="round" stroke-linejoin="round" stroke-width="2"/><path d="m4.857 2a2.851 2.851 0 0 0 -2.857 2.857v1a2.851 2.851 0 0 1 2.857-2.857h14.286a2.851 2.851 0 0 1 2.857 2.857v-1a2.851 2.851 0 0 0 -2.857-2.857zm4 4a2.851 2.851 0 0 0 -2.857 2.857v1a2.851 2.851 0 0 1 2.857-2.857h14.286a2.851 2.851 0 0 1 2.857 2.857v-1a2.851 2.851 0 0 0 -2.857-2.857zm4 4a2.851 2.851 0 0 0 -2.857 2.857v1a2.851 2.851 0 0 1 2.857-2.857h14.286a2.851 2.851 0 0 1 2.857 2.857v-1a2.851 2.851 0 0 0 -2.857-2.857z" fill="#f4f4f7" opacity=".1"/></svg>