<svg xmlns="http://www.w3.org/2000/svg" width="32" height="32"><circle style="opacity:.2" cx="16" cy="17" r="14"/><circle style="fill:#3cb054" cx="16" cy="16" r="14"/><path style="opacity:.2;fill-rule:evenodd" d="M10 10c10.48.348 14.522 5.993 12.493 11.031-.575 1.402-1.185 2.17-2.47 2.969.052-.202.106-.405.147-.612.76-3.93-.127-8.775-7.17-11.388 5.604 2.993 7.554 9 4.698 11.872-4.447.627-7.698-2.782-7.698-6.71z"/><path style="fill:#f4f4f7;fill-rule:evenodd" d="M10 9c10.48.348 14.522 5.993 12.493 11.031-.575 1.402-1.185 2.17-2.47 2.969.052-.202.106-.405.147-.612.76-3.93-.127-8.775-7.17-11.388 5.604 2.993 7.554 9 4.698 11.872-4.447.627-7.698-2.782-7.698-6.71z"/><path style="fill:#f4f4f7;fill-rule:evenodd;opacity:.2" d="M16 2A14 14 0 0 0 2 16a14 14 0 0 0 .021.586A14 14 0 0 1 16 3a14 14 0 0 1 13.979 13.414A14 14 0 0 0 30 16 14 14 0 0 0 16 2z"/></svg>