<svg height="32" width="32" xmlns="http://www.w3.org/2000/svg"><circle cx="16" cy="17" opacity=".2" r="14"/><circle cx="16" cy="16" fill="#3cb054" r="14"/><g fill-rule="evenodd"><path d="m10 10c10.48.348 14.522 5.993 12.493 11.031-.575 1.402-1.185 2.17-2.47 2.969.052-.202.106-.405.147-.612.76-3.93-.127-8.775-7.17-11.388 5.604 2.993 7.554 9 4.698 11.872-4.447.627-7.698-2.782-7.698-6.71z" opacity=".2"/><path d="m10 9c10.48.348 14.522 5.993 12.493 11.031-.575 1.402-1.185 2.17-2.47 2.969.052-.202.106-.405.147-.612.76-3.93-.127-8.775-7.17-11.388 5.604 2.993 7.554 9 4.698 11.872-4.447.627-7.698-2.782-7.698-6.71z" fill="#f4f4f7"/><path d="m16 2a14 14 0 0 0 -14 14 14 14 0 0 0 .021.586 14 14 0 0 1 13.979-13.586 14 14 0 0 1 13.979 13.414 14 14 0 0 0 .021-.414 14 14 0 0 0 -14-14z" fill="#f4f4f7" opacity=".2"/></g></svg>