<svg height="32" width="32" xmlns="http://www.w3.org/2000/svg">
    <rect fill="#0a7cb4" height="28" rx="1.5" width="28" x="2" y="2"/>
    <path d="M3.5 2C2.669 2 2 2.669 2 3.5v1C2 3.669 2.669 3 3.5 3h25c.831 0 1.5.669 1.5 1.5v-1c0-.831-.669-1.5-1.5-1.5z" fill="#fff" opacity=".1"/>
    <path d="M2 28.5v1c0 .831.669 1.5 1.5 1.5h25c.831 0 1.5-.669 1.5-1.5v-1c0 .831-.669 1.5-1.5 1.5h-25c-.831 0-1.5-.669-1.5-1.5zM11.018 11c-1.235-.014-2.706 1.277-2.973 4.945-.284 3.913.829 4.3 2.036 4.3 1.005 0 1.812-.504 2.697-1.538.133-.157.283-.238.342-.18.059.059.102.104.097.1a2.24 2.24 0 0 0-.133.348c-.173.543-.439 1.6-.171 2.341.07.195.215.167.275-.03.142-.473.415-1.285.71-1.694.121-.167.261-.072.255.134-.038 1.26.368 3.554 2.22 5.012 1.938 1.526 4.763 1.486 6.294.834.187-.08.48-.075.68-.039.122.022.279.036.474.025" opacity=".2"/>
    <path d="M11.018 10c-1.235-.014-2.707 1.277-2.973 4.945-.284 3.913.828 4.299 2.035 4.299 1.005 0 1.812-.503 2.697-1.537.134-.156.284-.238.342-.18l.098.1c-.005-.004-.07.15-.133.348-.174.543-.439 1.599-.172 2.341.07.195.216.167.276-.031.141-.472.414-1.284.71-1.693.121-.167.261-.072.254.135-.038 1.259.368 3.553 2.221 5.011 1.938 1.526 4.762 1.486 6.293.834.187-.08.48-.075.68-.039.123.023.279.036.474.026.567-.033-.38-.514-.443-.772s.443-.308.545-1.129c.103-.822-.543-.031-.543-.031s-.475.557-2.367.435c-1.744-.11-3.822-1.009-3.752-4.169.005-.208.069-.393.131-.418.061-.025.233.068.339.244.264.434.499 1.139.627 1.566.06.198.205.227.276.033.232-.645.062-1.529-.102-2.105-.055-.199.004-.45.135-.574.131-.125.332-.104.465.052.89 1.044 1.701 1.555 2.711 1.555 1.206 0 2.319-.386 2.035-4.299s-1.942-5.12-3.219-4.927a3.142 3.142 0 0 0-1.693.835c-.149.142-.25.287-.25.303s-.118-.089-.276-.22a3.869 3.869 0 0 0-2.492-.918c-.927 0-1.782.334-2.467.894-.158.13-.274.24-.275.232 0-.008-.102-.147-.25-.289a3.153 3.153 0 0 0-1.693-.837 1.65 1.65 0 0 0-.244-.02zm3.482 3a.5.5 0 1 1 0 1 .5.5 0 0 1 0-1zm3 0a.5.5 0 1 1 0 1 .5.5 0 0 1 0-1z" fill="#f4f4f7"/>
</svg>
