<svg width="32" height="32" xmlns="http://www.w3.org/2000/svg"><path d="M11 3S2 8 2 15c0 11 10 16 10 16s-2-3-2-5 2-4 2-4-4-4-4-8c0-6 3-11 3-11zm10 0s3 5 3 11c0 4-4 8-4 8s2 2 2 4-2 5-2 5 10-5 10-16c0-7-9-12-9-12zm-5 2-4 4 4 4 4-4zm0 10c-4 0-4 1-4 1v3s0 1 4 1 4-1 4-1v-3s0-1-4-1zm0 8a4 4 0 0 0-4 4 4 4 0 0 0 4 4 4 4 0 0 0 4-4 4 4 0 0 0-4-4z" style="opacity:.2"/><circle cx="16" cy="26" r="4" style="fill:#ffff28"/><path d="M16 19c4 0 4-1 4-1v-3s0-1-4-1-4 1-4 1v3s0 1 4 1z" style="fill:#1e1ee1"/><path d="m16 12 4-4-4-4-4 4z" style="fill:#e31d1d"/><path d="M20 30s10-5 10-16c0-7-9-12-9-12s3 5 3 11c0 4-4 8-4 8s2 2 2 4-2 5-2 5z" style="fill:#b5b5b5"/><path d="M12 30S2 25 2 14c0-7 9-12 9-12S8 7 8 13c0 4 4 8 4 8s-2 2-2 4 2 5 2 5z" style="fill:#f19c04"/><path d="M11 2S2 7 2 14c0 .195.011.383.018.574.292-5.607 6.19-9.814 8.238-11.113C10.676 2.56 11 2 11 2zm10 0s.323.56.744 1.46c2.048 1.3 7.946 5.507 8.238 11.114.007-.19.018-.38.018-.574 0-7-9-12-9-12zm-5 2-4 4 .5.5L16 5l3.5 3.5.5-.5-4-4zm-7.98 9.332c-.009.222-.02.443-.02.668 0 3.293 2.6 6.453 3.559 7.514.247-.3.441-.514.441-.514s-3.771-3.782-3.98-7.668zm15.96 0C23.771 17.218 20 21 20 21s.194.213.441.514C21.4 20.453 24 17.294 24 14c0-.225-.011-.446-.02-.668zM16 14c-4 0-4 1-4 1v1s0-1 4-1 4 1 4 1v-1s0-1-4-1zm0 8a4 4 0 0 0-4 4 4 4 0 0 0 .035.506A4 4 0 0 1 16 23a4 4 0 0 1 3.965 3.494A4 4 0 0 0 20 26a4 4 0 0 0-4-4zm-5.943 3.514c-.025.162-.057.323-.057.486 0 1.094.587 2.447 1.129 3.484.499.307.871.516.871.516s-1.669-2.524-1.943-4.486zm11.886 0C21.67 27.476 20 30 20 30s.372-.209.871-.516C21.413 28.447 22 27.094 22 26c0-.163-.032-.324-.057-.486z" style="fill:#f4f4f7;opacity:.2"/></svg>