<svg xmlns="http://www.w3.org/2000/svg" width="32" height="32" version="1"><rect style="opacity:.2" width="28" height="28" x="2" y="3" rx="1.4" ry="1.4"/><rect style="fill:#6946e7" width="28" height="28" x="2" y="2" rx="1.4" ry="1.4"/><path style="opacity:.2" d="M22.625 8.607c-.093-.013-.183.136-.332.5-.093.226-.24.534-.328.686-.545.933-1.544 1.796-2.729 2.359-.531.253-1.534.602-1.957.68l-.265.048-.338-.226a2.932 2.932 0 0 0-.7-.344c-.322-.105-.417-.118-.874-.117-.454.001-.554.014-.844.115-.388.135-.839.406-1.067.64-.089.093-.197.169-.238.169-.041 0-.194-.1-.338-.223a2.998 2.998 0 0 0-.533-.351c-.256-.122-.717-.247-.918-.248-.223-.002-1.065-.83-1.478-1.452-.102-.152-.202-.277-.223-.277-.021 0-.04.08-.043.176l-.03 1.16-.027.988-.217.268a2.77 2.77 0 0 0-.443.789c.14.12.267.252.393.389.145-.7.718-1.304 1.422-1.487.872-.227 1.837.2 2.246.99.075.145.148.264.164.264.015 0 .09-.114.166-.256.27-.51.86-.966 1.453-1.12.133-.035.391-.063.574-.063 1.722 0 2.836 1.803 2.066 3.345a2.326 2.326 0 0 1-2.837 1.16 2.35 2.35 0 0 1-1.334-1.214c-.085-.18-.17-.328-.184-.328-.015-.001-.072.077-.129.173-.233.398-.768.78-1.258.895-.274.065-.814.034-1.088-.063-.049-.017-.058-.014-.095-.023.036.201.06.404.064.61.005.3-.035.586-.11.855-.008.074-.017.15-.03.205a.76.76 0 0 1-.16.295 2.107 2.107 0 0 1-.956.951c-.084.04-.174.066-.263.094l-.008.006.39.24c1.54.955 3.968 1.864 5.624 2.05l.535.061c.352.041 1.523-.016 1.99-.097.269-.047.712-.16.986-.252.532-.178 1.158-.481 1.158-.561 0-.027-.2-.167-.443-.314a32.33 32.33 0 0 1-1.041-.672c-.774-.522-.747-.507-.877-.457-.423.163-1.524.206-2.303.091-.712-.104-1.996-.42-2.21-.544-.069-.04-.063-.046.046-.047.068-.001.23.017.36.039.13.021.54.058.912.086 1.424.105 2.72-.137 3.623-.678.31-.186.39-.248.39-.307 0-.025-.112-.157-.248-.293-.39-.39-.322-.406.36-.08.293.14.5.275.68.442.24.222.302.255.915.478.362.132.868.33 1.125.44.258.11.475.2.483.2.035 0 .36-.516.545-.866.564-1.066.94-2.428 1.144-4.131.111-.93.1-3.575-.02-4.77-.068-.682-.1-.882-.161-.963-.05-.067-.095-.107-.137-.113zM6.701 13.5c-.846.003-1.467.539-1.666 1.459-.11.51.044 1.358.358 1.976.313.62.86 1.236 1.412 1.59.578.371.983.494 1.562.473.323-.012.428-.036.653-.141.644-.3.994-.939.98-1.795-.027-1.653-1.486-3.36-3.03-3.547a2.165 2.165 0 0 0-.269-.015zm4.836.4.094.186c.258.518-.078 1.085-.64 1.085a.639.639 0 0 1-.41-.12c-.223-.15-.23-.151-.23-.005 0 .307.287.712.616.868.225.106.608.115.838.017.647-.276.855-1.127.41-1.68-.145-.18-.43-.351-.582-.351zm-4.842.1c.064 0 .124.012.176.035.301.128.531.455.608.865.07.38-.04.798-.26.975-.123.098-.352.15-.489.113-.647-.18-.957-1.19-.543-1.77a.57.57 0 0 1 .313-.193.713.713 0 0 1 .195-.025zm9.342.4c-.015 0-.027.001-.033.008-.01.01.015.08.057.152.284.497-.06 1.133-.614 1.133-.153 0-.417-.11-.496-.207-.029-.036-.08-.066-.111-.066-.085 0-.028.288.103.529a1.01 1.01 0 0 0 1.391.426c.256-.133.442-.37.527-.668.105-.365-.001-.742-.29-1.028-.127-.125-.428-.277-.534-.279zm2.092 4.523a.193.193 0 0 0-.123.04c-.14.089-.253.226-.254.31-.002.1.18.247.822.666a20.25 20.25 0 0 0 2.422 1.373c.398.19.77.37.826.399.077.037.11.096.133.234.038.225.183.369.375.369.074 0 .467.12.873.268 1.029.373.958.339 1.002.5.062.224.233.485.434.662.133.117.362.234.814.418.345.14.913.39 1.264.554.35.165.652.292.668.284.016-.009.02-.037.011-.065-.009-.027-.12-.42-.248-.87-.35-1.24-.522-1.627-.88-2.01-.33-.354-.734-.48-1.266-.395l-.297.047-.728-.467c-.402-.258-.792-.528-.866-.602-.154-.154-.267-.166-.457-.05a.555.555 0 0 1-.195.082c-.034 0-.211-.085-.393-.188-.704-.4-2.061-.966-3.298-1.375-.397-.131-.552-.181-.64-.184zm4.682 1.883.066.094c.036.05.09.092.117.092.046 0 1.311.784 1.393.863.019.018-.004.104-.051.191a3.303 3.303 0 0 0-.147.313c-.032.085-.073.153-.091.152-.018 0-.354-.12-.746-.263-.393-.144-.735-.282-.76-.307-.025-.025-.11-.045-.188-.045h-.14l.023-.166c.03-.22.198-.56.379-.762z"/><path style="fill:#f4f4f7" d="M22.625 7.607c-.093-.013-.183.137-.332.5-.093.226-.24.534-.328.686-.545.933-1.544 1.796-2.729 2.36-.531.252-1.534.601-1.957.679l-.265.049-.338-.227a2.932 2.932 0 0 0-.7-.343c-.322-.106-.417-.119-.874-.118-.454.002-.554.015-.844.116-.388.134-.839.405-1.067.64-.089.092-.197.168-.238.168-.041 0-.194-.1-.338-.222a2.998 2.998 0 0 0-.533-.352c-.256-.122-.717-.246-.918-.248-.223-.002-1.065-.829-1.478-1.451-.102-.153-.202-.278-.223-.278-.021 0-.04.08-.043.176l-.03 1.16-.027.989-.217.267a2.77 2.77 0 0 0-.443.79c.14.119.267.251.393.388.145-.7.718-1.303 1.422-1.486.872-.228 1.837.199 2.246.99.075.145.148.263.164.264.015 0 .09-.115.166-.256.27-.51.86-.967 1.453-1.121.133-.035.391-.063.574-.063 1.722 0 2.836 1.803 2.066 3.346a2.326 2.326 0 0 1-2.837 1.16 2.35 2.35 0 0 1-1.334-1.215c-.085-.18-.17-.327-.184-.328-.015 0-.072.077-.129.174-.233.398-.768.779-1.258.894-.274.065-.814.034-1.088-.062-.049-.017-.058-.014-.095-.024.036.201.06.404.064.61.005.3-.035.586-.11.855-.008.074-.017.151-.03.205a.76.76 0 0 1-.16.295 2.107 2.107 0 0 1-.956.951c-.084.041-.174.067-.263.094l-.008.006.39.24c1.54.956 3.968 1.865 5.623 2.051l.536.06c.352.042 1.523-.016 1.99-.097.269-.047.712-.16.986-.252.532-.178 1.158-.48 1.158-.56 0-.027-.2-.168-.443-.315a32.33 32.33 0 0 1-1.041-.672c-.774-.521-.747-.507-.877-.457-.423.163-1.524.206-2.303.092-.712-.105-1.996-.42-2.21-.545-.069-.04-.063-.046.046-.047.068 0 .23.018.36.04.13.02.54.058.912.085 1.424.106 2.72-.136 3.623-.678.31-.186.39-.248.39-.306 0-.026-.112-.158-.248-.293-.39-.39-.322-.407.36-.08.293.14.5.275.68.441.24.222.302.256.915.479.362.131.868.329 1.125.439.258.11.475.201.483.201.035 0 .36-.516.545-.867.564-1.066.94-2.427 1.144-4.13.111-.93.1-3.575-.02-4.77-.068-.682-.1-.882-.161-.963-.05-.068-.095-.108-.137-.114zM6.701 12.5c-.846.004-1.467.54-1.666 1.459-.11.51.044 1.358.358 1.977.313.619.86 1.236 1.412 1.59.578.37.983.493 1.562.472.323-.012.428-.036.653-.14.644-.301.994-.94.98-1.796-.027-1.652-1.486-3.36-3.03-3.546a2.165 2.165 0 0 0-.269-.016zm4.836.4.094.186c.258.518-.078 1.086-.64 1.086a.639.639 0 0 1-.41-.121c-.223-.15-.23-.15-.23-.004 0 .307.287.71.616.867.225.107.608.115.838.018.647-.276.855-1.128.41-1.68-.145-.18-.43-.352-.582-.352h-.096zm-4.842.1c.064 0 .124.013.176.035.301.129.531.455.608.865.07.38-.04.799-.26.975-.123.099-.352.151-.489.113-.647-.18-.957-1.19-.543-1.77a.57.57 0 0 1 .313-.193.713.713 0 0 1 .195-.025zm9.342.4c-.015 0-.027.002-.033.008-.01.01.015.08.057.153.284.497-.06 1.132-.614 1.132-.153 0-.417-.11-.496-.207-.029-.036-.08-.066-.111-.066-.085 0-.028.289.103.53a1.01 1.01 0 0 0 1.391.425c.256-.133.442-.369.527-.668.105-.365-.001-.742-.29-1.027-.127-.125-.428-.277-.534-.28zm2.092 4.524a.193.193 0 0 0-.123.039c-.14.089-.253.227-.254.31-.002.101.18.247.822.666a20.25 20.25 0 0 0 2.422 1.373c.398.191.77.371.826.399.077.037.11.097.133.234.038.225.183.37.375.37.074 0 .467.12.873.267 1.029.374.958.34 1.002.5.062.224.233.485.434.662.133.118.362.234.814.418.345.14.913.39 1.264.555.35.164.652.291.668.283.016-.009.02-.037.011-.064l-.248-.872c-.35-1.238-.522-1.626-.88-2.01-.33-.352-.734-.479-1.266-.394l-.297.047-.728-.467c-.402-.257-.792-.528-.866-.601-.154-.154-.267-.167-.457-.051a.555.555 0 0 1-.195.082c-.034 0-.211-.085-.393-.188-.704-.399-2.061-.965-3.298-1.375-.397-.13-.552-.18-.64-.183zm4.682 1.883.066.093c.036.051.09.092.117.092.046 0 1.311.784 1.393.863.019.019-.004.105-.051.192a3.302 3.302 0 0 0-.147.312c-.032.085-.073.154-.091.153-.018-.001-.354-.12-.746-.264-.393-.144-.735-.282-.76-.307-.025-.024-.11-.045-.188-.045h-.14l.023-.166c.03-.22.198-.56.379-.761l.145-.162z"/><path style="fill:#f4f4f7;opacity:.1" d="M3.4 2C2.625 2 2 2.625 2 3.4v1C2 3.625 2.625 3 3.4 3h25.2c.775 0 1.4.625 1.4 1.4v-1c0-.775-.625-1.4-1.4-1.4H3.4z"/></svg>