<svg height="32" width="32" xmlns="http://www.w3.org/2000/svg">
    <rect fill="#3b478c" height="28" rx="1.4" width="28" x="2" y="2"/>
    <path d="M7 10.057S9.101 10 10.83 10c2.4 0 5.17.8 5.17 5s-2.77 5-5.17 4.986c-.53.023-.83.028-.83.028V24H7zm3 7.937c.305.031.304.016.756.01C12.262 17.988 13 16.343 13 14.902c0-1.294-.574-2.845-2.02-2.9-.577-.022-.98 0-.98 0z" opacity=".2"/>
    <path d="M7 9.057S9.101 9 10.83 9c2.4 0 5.17.8 5.17 5s-2.77 5-5.17 4.986c-.53.023-.83.028-.83.028V23H7zm3 7.938c.305.03.304.016.756.01C12.262 16.986 13 15.341 13 13.9c0-1.294-.574-2.845-2.02-2.9-.577-.022-.98 0-.98 0z" fill="#219fd1"/>
    <path d="M18 21c.547.365 1.593 1 2.473 1 .9 0 1.527-.557 1.527-1.094 0-.538-.167-1.2-1.282-1.608-1.975-.732-2.737-1.608-2.718-2.834C18 14.484 19.525 13 21.891 13 23 13 24.5 14 24.5 14v2c-.43-.259-1.69-1-2.511-1" opacity=".2"/>
    <path d="M18 20c.547.365 1.593 1 2.473 1 .9 0 1.527-.557 1.527-1.094 0-.538-.167-1.2-1.282-1.608-1.975-.732-2.737-1.608-2.718-2.834C18 13.484 19.525 12 21.891 12 23 12 24.5 13 24.5 13v2c-.43-.259-1.69-1-2.511-1" fill="#219fd1"/>
    <path d="M3.4 2C2.625 2 2 2.625 2 3.4v1C2 3.625 2.625 3 3.4 3h25.2c.775 0 1.4.625 1.4 1.4v-1c0-.775-.625-1.4-1.4-1.4z" fill="#fff" opacity=".1"/>
    <path d="M2 28.6v1c0 .775.625 1.4 1.4 1.4h25.2c.775 0 1.4-.625 1.4-1.4v-1c0 .775-.625 1.4-1.4 1.4H3.4c-.775 0-1.4-.625-1.4-1.4z" opacity=".2"/>
</svg>
