<svg height="32" width="32" xmlns="http://www.w3.org/2000/svg">
    <path d="m16 7-1 2H3c-.554 0-1 .446-1 1v16c0 .554.446 1 1 1h26c.554 0 1-.446 1-1V10c0-.554-.474-.825-1-1h-3l-1-2z" opacity=".2"/>
    <path d="m15 6-1 2H3c-.554 0-1 .446-1 1v16c0 .554.446 1 1 1h26c.554 0 1-.446 1-1V9c0-.554-.474-.825-1-1h-3l-1-2z" fill="#ff6c3a"/>
    <path d="m15 6-1 2H3c-.554 0-1 .446-1 1v1c0-.554.446-1 1-1h11l1-2h10l1 2h3c.554 0 1 .446 1 1V9c0-.554-.446-1-1-1h-3l-1-2z" fill="#f4f4f7" opacity=".2"/>
    <path d="M16 9h8v2h-8z" opacity=".2"/>
    <path d="M16 8h8v2h-8z" fill="#f4f4f7"/>
    <circle cx="11" cy="18" opacity=".2" r="7"/>
    <circle cx="11" cy="17" fill="#f4f4f7" r="7"/>
    <circle cx="11" cy="18" opacity=".2" r="5"/>
    <circle cx="11" cy="17" fill="#4f4f4f" r="5"/>
</svg>
