<svg height="32" width="32" xmlns="http://www.w3.org/2000/svg">
    <circle cx="16" cy="17" opacity=".2" r="14"/>
    <circle cx="16" cy="16" fill="#48b9c7" r="14"/>
    <g fill="#f4f4f7">
        <rect height="2" rx="1.129" ry="1" width="14" x="9" y="23"/>
        <path d="M17.7 12.226c-.706 1.53-1.883 2.758-3.531 3.358l1.413 3.747c.265.69.5 1.409.294 2.068-.206.66-1.148.87-1.825.15-1.295-1.409-5.65-10.282-5.974-10.941-.324-.66-.677-1.2-.677-1.859.03-.99 1.53-2.008 2.266-2.518"/>
        <path d="M16 2A14 14 0 0 0 2 16a14 14 0 0 0 .021.586A14 14 0 0 1 16 3a14 14 0 0 1 13.979 13.414A14 14 0 0 0 30 16 14 14 0 0 0 16 2z" opacity=".2"/>
    </g>
</svg>
