<svg height="32" width="32" xmlns="http://www.w3.org/2000/svg"><path d="m16.575 3v.001a3.17 3.184 0 0 0 -1.66.424l-9.33 5.409a3.17 3.184 0 0 0 -1.585 2.756v10.82a3.17 3.184 0 0 0 1.586 2.756l9.328 5.408a3.17 3.184 0 0 0 3.172 0l9.328-5.408a3.17 3.184 0 0 0 1.586-2.757v-10.819a3.17 3.184 0 0 0 -1.586-2.757l-9.328-5.409a3.17 3.184 0 0 0 -1.511-.424z" opacity=".2"/><path d="m16.472 2.56v.001a3.044 3.056 0 0 0 -1.594.407l-8.956 5.192a3.044 3.056 0 0 0 -1.522 2.648v10.384a3.044 3.056 0 0 0 1.522 2.646l8.956 5.192a3.044 3.056 0 0 0 3.044 0l8.956-5.192a3.044 3.056 0 0 0 1.522-2.646v-10.384a3.044 3.056 0 0 0 -1.522-2.648l-8.956-5.192a3.044 3.056 0 0 0 -1.45-.408z" fill="#17191e"/><path d="m16.574 2v.002a3.16 3.16 0 0 0 -1.172.197l-.402.233-8 4.618v3.465l9.5-5.485 3.047-1.758-1.461-.847a3.162 3.162 0 0 0 -1.324-.412 3.158 3.158 0 0 0 -.184-.013z" fill="#f1d41a"/><path d="m7 7.014-1.414.82a3.186 3.186 0 0 0 -1.586 2.758v9.16l3 1.732v-10.968z" fill="#aed447"/><path d="m26 10.516v14.468l1.414-.82a3.186 3.186 0 0 0 1.586-2.756v-9.16z" fill="#d25e91"/><path d="m26 21.484-9.5 5.485-3.047 1.758 1.461.847a3.16 3.16 0 0 0 2.684.227l.402-.233 8-4.617z" fill="#7acdcb"/><path d="m19.502 3.299-3.002 1.731 12.5 7.218v-1.656c0-.995-.465-1.932-1.254-2.533z" fill="#ec8239"/><path d="m4 19.752v1.656c.001 1 .47 1.94 1.266 2.541l.234.135 7.996 4.617 3.004-1.731-9.5-5.486z" fill="#5e8a93"/><path d="m16.574 2v.002a3.17 3.184 0 0 0 -1.66.424l-9.328 5.408a3.17 3.184 0 0 0 -1.586 2.758v1a3.17 3.184 0 0 1 1.586-2.758l9.328-5.408a3.17 3.184 0 0 1 1.66-.424v-.002a3.17 3.184 0 0 1 1.512.426l9.328 5.408a3.17 3.184 0 0 1 1.586 2.758v-1a3.17 3.184 0 0 0 -1.586-2.758l-9.328-5.408a3.17 3.184 0 0 0 -1.512-.426z" fill="#f4f4f7" opacity=".2"/><path d="m16.5 8a1.5 1.5 0 0 0 -1.5 1.5 1.5 1.5 0 0 0 1.5 1.5 1.5 1.5 0 0 0 1.5-1.5 1.5 1.5 0 0 0 -1.5-1.5zm-2 4a1.5 1.5 0 0 0 -1.5 1.5 1.5 1.5 0 0 0 1.5 1.5 1.5 1.5 0 0 0 1.5-1.5 1.5 1.5 0 0 0 -1.5-1.5zm4 0a1.5 1.5 0 0 0 -1.5 1.5 1.5 1.5 0 0 0 1.5 1.5 1.5 1.5 0 0 0 1.5-1.5 1.5 1.5 0 0 0 -1.5-1.5zm-6 4a1.5 1.5 0 0 0 -1.5 1.5 1.5 1.5 0 0 0 1.5 1.5 1.5 1.5 0 0 0 1.5-1.5 1.5 1.5 0 0 0 -1.5-1.5zm4 0a1.5 1.5 0 0 0 -1.5 1.5 1.5 1.5 0 0 0 1.5 1.5 1.5 1.5 0 0 0 1.5-1.5 1.5 1.5 0 0 0 -1.5-1.5zm4 0a1.5 1.5 0 0 0 -1.5 1.5 1.5 1.5 0 0 0 1.5 1.5 1.5 1.5 0 0 0 1.5-1.5 1.5 1.5 0 0 0 -1.5-1.5zm-10 4a1.5 1.5 0 0 0 -1.5 1.5 1.5 1.5 0 0 0 1.5 1.5 1.5 1.5 0 0 0 1.5-1.5 1.5 1.5 0 0 0 -1.5-1.5zm4 0a1.5 1.5 0 0 0 -1.5 1.5 1.5 1.5 0 0 0 1.5 1.5 1.5 1.5 0 0 0 1.5-1.5 1.5 1.5 0 0 0 -1.5-1.5zm4 0a1.5 1.5 0 0 0 -1.5 1.5 1.5 1.5 0 0 0 1.5 1.5 1.5 1.5 0 0 0 1.5-1.5 1.5 1.5 0 0 0 -1.5-1.5zm4 0a1.5 1.5 0 0 0 -1.5 1.5 1.5 1.5 0 0 0 1.5 1.5 1.5 1.5 0 0 0 1.5-1.5 1.5 1.5 0 0 0 -1.5-1.5z" opacity=".2"/><g fill="#f4f4f7"><circle cx="10.5" cy="20.5" r="1.5"/><circle cx="14.5" cy="20.5" r="1.5"/><circle cx="18.5" cy="20.5" r="1.5"/><circle cx="22.5" cy="20.5" r="1.5"/><circle cx="12.5" cy="16.5" r="1.5"/><circle cx="16.5" cy="16.5" r="1.5"/><circle cx="20.5" cy="16.5" r="1.5"/><circle cx="14.5" cy="12.5" r="1.5"/><circle cx="18.5" cy="12.5" r="1.5"/><circle cx="16.5" cy="8.5" r="1.5"/></g></svg>