<svg height="32" viewBox="0 0 8.467 8.467" width="32" xmlns="http://www.w3.org/2000/svg">
    <path d="M.265.794h7.937v6.879H.265z" fill="#4b6477"/>
    <path d="M.53 1.852V2.91h7.407V1.852zm0 1.852v1.058h7.407V3.704zm0 1.852v1.059h7.407V5.556z" fill="#3c4f5e"/>
    <path d="M.265.53A.264.264 0 0 0 0 .793v6.879c0 .146.118.264.265.264h7.937a.264.264 0 0 0 .265-.264V.793A.264.264 0 0 0 8.202.53zm.264.528h7.409v6.35H.529z" fill="#363c4d"/>
    <path d="M.794 1.587v.53h1.323v-.53zm1.587 0v.53h.53v-.53zm.794 0v.53h1.323v-.53zm1.587 0v.53h.53v-.53zm.794 0v.53h.794v-.53zm1.059 0v.53h1.058v-.53zm-5.821.794v.53H2.91v-.53zm2.381 0v.53h.53v-.53zm.794 0v.53h1.323v-.53zm1.587 0v.53h.53v-.53zm.794 0v.53h.794v-.53zm-5.556.794v.53h.529v-.53zm.793 0v.53h.53v-.53zm.794 0v.53h1.323v-.53zm1.588 0v.53h.529v-.53zm.793 0v.53h.53v-.53zm1.059 0v.53h.529v-.53zm.794 0v.53h1.058v-.53zm-5.821.794v.529h1.323v-.53zm1.587 0v.529h.53v-.53zm.794 0v.529h1.323v-.53zm-2.381.793v.53h.529v-.53zm.793 0v.53H2.91v-.53zm1.588 0v.53h.794v-.53zm-2.381.794v.53h1.058v-.53zm1.323 0v.53h.529v-.53zm.793 0v.53H3.97v-.53zM.794 6.35v.53h.529v-.53zm.793 0v.53h1.059v-.53zm1.323 0v.53h.53v-.53z" fill="#e8f6ff"/>
    <g fill-rule="evenodd">
        <path d="M5.547 2.646a.265.265 0 0 0-.222.136L2.679 7.544a.265.265 0 0 0 .231.393h5.292c.202 0 .33-.216.231-.393L5.787 2.782a.265.265 0 0 0-.24-.136z" fill="#ffb851" fill-opacity=".961"/>
        <path d="M2.91 7.673 5.556 2.91l2.646 4.763z" fill="#ffd94c"/>
    </g>
    <path d="M5.556 4.498a.264.264 0 0 0-.264.264v1.323a.264.264 0 1 0 .529 0V4.762a.264.264 0 0 0-.265-.264zm0 2.117a.264.264 0 1 0 0 .529.264.264 0 1 0 0-.53z" fill="#906411"/>
</svg>
