<svg height="64" viewBox="0 0 16.933 16.933" width="64" xmlns="http://www.w3.org/2000/svg" xmlns:xlink="http://www.w3.org/1999/xlink"><filter id="a" color-interpolation-filters="sRGB" height="1.054" width="1.054" x="-.027" y="-.027"><feGaussianBlur stdDeviation=".61875"/></filter><linearGradient id="b" gradientUnits="userSpaceOnUse" x1="2.31534" x2="16.86724" y1="15.58867" y2="1.03677"><stop offset="0" stop-color="#a53cff"/><stop offset="1" stop-color="#b496ff"/></linearGradient><linearGradient id="c" gradientUnits="userSpaceOnUse" x1="6.943884" x2="12.237648" y1="8.368414" y2="8.368414"><stop offset="0" stop-color="#32dcff"/><stop offset="1" stop-color="#3296ff"/></linearGradient><g transform="translate(-1.1245 .15119)"><rect fill="#141414" filter="url(#a)" height="55" opacity=".3" ry="15" stroke-linecap="round" stroke-width="2.7444" transform="matrix(.26458 0 0 .26458 1.1245 -.15119)" width="55" x="4.5" y="4.5"/><rect fill="url(#b)" height="14.552" ry="3.9688" stroke-linecap="round" stroke-width=".72612" width="14.552" x="2.3151" y="1.0394"/><g stroke-width="1.1112"><path d="m14.774 7.9867c-.11112-.15557-.23224-.30003-.3556-.44448-.65895-.77229-1.4157-1.4601-2.2447-1.9591-.52894-.32002-1.0968-.57784-1.6835-.70006a4.4415 4.4415 0 0 0 -.9001-.096675c-.2978 0-.59671.033337-.89566.095563-.58783.12446-1.1523.38115-1.6824.70009-.82898.50004-1.5868 1.189-2.2491 1.9602-.12224.14335-.24002.28892-.35116.44448a.53338.53338 0 0 0 0 .65563c.33669.47338.73895.89231 1.1446 1.2779.88007.82454 1.888 1.5157 2.998 1.7957a4.2316 4.2316 0 0 0 2.0702 0c1.1101-.28003 2.1191-.97122 3.0003-1.7968a8.7599 8.7599 0 0 0 1.1468-1.2757.54117.54117 0 0 0 0-.65672" fill="#fafafa"/><path d="m12.24 8.3145a2.6469 2.6469 0 1 1 -5.2927 0 2.6469 2.6469 0 0 1 5.2927 0" fill="url(#c)"/><path d="m11.064 8.3145a1.4696 1.4696 0 1 1 -2.9392 0 1.4696 1.4696 0 0 1 2.9392 0" fill="#141414"/><path d="m10.769 7.7265a.58783.58783 0 1 1 -1.1757 0 .58783.58783 0 0 1 1.1757 0" fill="#f9f9f9"/><path d="m11.647 5.2919-4.7782 5.6661c.2178.14112.44004.26669.66895.38003l4.7749-5.6672c-.21224-.1489-.46006-.27336-.66674-.37783" fill="#d5122d"/></g></g></svg>