<svg width="32" height="32" xmlns="http://www.w3.org/2000/svg"><rect y="1" width="32" height="30" rx="2" ry="2" opacity=".25"/><rect x="1" y="2" width="30" height="28" rx="1" ry="1" fill="#eee"/><path d="M2 2c-.554 0-1 .446-1 1v5h30V3c0-.554-.446-1-1-1z" fill="#e4e4e4"/><rect x="27" y="4" width="2" height="2" rx="1" fill="#999"/><rect x="1" y="8" width="30" height="1" ry="0" opacity=".25"/><path d="M6.003 14h1.764l2.06 5.714 2.058-5.715h1.765l-2.941 8H8.944z" fill="#f84d5e"/><path d="m12.473 22 2.942-8h1.764l-2.94 8zm5.883 0 2.941-8h1.765l-2.942 8z" fill="#3f4144"/><path d="m10.709 22 2.94-8h1.766l-2.942 8zm5.882 0 2.941-8h1.765l-2.941 8z" fill="#8a9596"/><path d="M18.356 22H16.59l-2.941-8h1.765zm5.882 0h-1.765l-2.94-8h1.764z" fill="#bcc1c5"/><path d="m15.415 14 2.94 8h1.765l-2.94-8zm5.882 0 2.941 8h1.765l-2.941-8z" fill="#585858"/><path d="M27 20v6.086l-2.293-2.293L24 24.5l3.5 3.5 3.5-3.5-.707-.707L28 26.086V20z" fill="#27ae60"/></svg>