<svg height="32" viewBox="0 0 8.4666664 8.4666669" width="32" xmlns="http://www.w3.org/2000/svg"><g transform="translate(8.807486 -1.50678)"><path d="m-8.0137359 1.771363h6.8791667c.29315837 0 .52916667.2360083.52916667.5291667v6.8791666c0 .2931584-.2360083.5291667-.52916667.5291667h-6.8791667c-.2931583 0-.5291666-.2360083-.5291666-.5291667v-6.8791666c0-.2931584.2360083-.5291667.5291666-.5291667z" fill="#8ba3bc"/><path d="m-8.0137359 2.0359463h6.8791667c.14657887 0 .26458337.1180042.26458337.2645834v6.8791666c0 .1465792-.1180045.2645834-.26458337.2645834h-6.8791667c-.1465791 0-.2645833-.1180042-.2645833-.2645834v-6.8791666c0-.1465792.1180042-.2645834.2645833-.2645834z" fill="#f9fdff"/><path d="m-7.4845693 2.565113h1.5875v1.5875h-1.5875z" fill="#e04337"/><path d="m-6.9554026 4.1526093v1.3229167.5291666 1.5875h.5291667v-1.5875h1.5875001v1.8520834h-2.1166668v.5291666h2.1166668.5291666 2.1166667v-.5291666-2.38125h-1.5875v.5291666h1.0583333v1.8520834h-1.5875v-1.8520834-.5291666h-.5291666-1.5875001v-1.3229167z" fill="#36404d"/><path d="m-7.4845693 4.946363h1.5875v1.5875h-1.5875z" fill="#009688"/><path d="m-7.4845693 7.327613h1.5875v1.5875h-1.5875z" fill="#e99b1e"/><path d="m-5.3679025 4.946363h1.5875v1.5875h-1.5875z" fill="#009688"/><path d="m-5.3679025 7.327613h1.5875v1.5875h-1.5875z" fill="#e99b1e"/><path d="m-3.2512358 7.327613h1.5875v1.5875h-1.5875z" fill="#e99b1e"/><path d="m-7.2199859 2.8296963h1.0583333v1.0583307h-1.0583333z" fill="#f96c61"/><path d="m-7.2199859 5.2109463h1.0583333v1.0583334h-1.0583333z" fill="#4db6ac"/><path d="m-5.1033194 5.2109463h1.0583333v1.0583334h-1.0583333z" fill="#4db6ac"/><g fill="#ffd84d"><path d="m-5.1033194 7.5921963h1.0583333v1.0583334h-1.0583333z"/><path d="m-2.9866525 7.5921963h1.0583333v1.0583334h-1.0583333z"/><path d="m-7.2199858 7.5921964h1.0583333v1.0583334h-1.0583333z"/></g></g></svg>