<svg viewBox="0 0 32 32" xmlns="http://www.w3.org/2000/svg"><path d="M16 1.5C8 1.5 1.5 8 1.5 16S8 30.5 16 30.5 30.5 24 30.5 16 24 1.5 16 1.5z" color="#000" fill="#5eb4fc" fill-opacity=".992" opacity=".99" overflow="visible"/><path d="M16 1.502C8 1.502 1.502 8 1.502 16S8 30.498 16 30.498 30.498 24 30.498 16 24 1.502 16 1.502z" color="#000" fill="none" opacity=".35" overflow="visible" stroke="#002e99" stroke-linecap="round" stroke-linejoin="round" style="isolation:auto;mix-blend-mode:normal"/><path d="M14.494 8.994c-3.026 0-5.5 2.474-5.5 5.5s2.474 5.5 5.5 5.5a5.46 5.46 0 0 0 3.112-.975l3.681 3.682a1 1 0 1 0 1.414-1.414l-3.681-3.682a5.46 5.46 0 0 0 .974-3.111c0-3.026-2.474-5.5-5.5-5.5zm0 1.25a4.25 4.25 0 0 1 4.25 4.25 4.25 4.25 0 0 1-4.25 4.25 4.25 4.25 0 0 1-4.25-4.25 4.25 4.25 0 0 1 4.25-4.25z" color="#000" fill="#fff" font-family="sans-serif" font-weight="400" overflow="visible" style="font-feature-settings:normal;font-variant-alternates:normal;font-variant-caps:normal;font-variant-ligatures:normal;font-variant-numeric:normal;font-variant-position:normal;isolation:auto;mix-blend-mode:normal;shape-padding:0;text-decoration-color:#000;text-decoration-line:none;text-decoration-style:solid;text-indent:0;text-orientation:mixed;text-transform:none"/></svg>