<svg height="32" viewBox="0 0 32 32" width="32" xmlns="http://www.w3.org/2000/svg"><g transform="translate(0 -282.64999)"><g transform="translate(17 -5)"><path d="m-14 288.64999h26c1.108 0 2 .892 2 2v26c0 1.108-.892 2-2 2h-26c-1.108 0-2-.892-2-2v-26c0-1.108.892-2 2-2z" fill="#363c4d"/><path d="m-14 289.64999h26c.553999 0 1 .446 1 1v26c0 .554-.446001 1-1 1h-26c-.554 0-1-.446-1-1v-26c0-.554.446-1 1-1z" fill="#4b6477"/><path d="m-13.000004 290.64999h24.000008c.553998 0 .999996.446.999996 1v20c0 .554-.445998 1-.999996 1h-24.000008c-.553998 0-.999996-.446-.999996-1v-20c0-.554.445998-1 .999996-1z" fill="#363c4d"/><path d="m-12.977903 291.6279h24v20h-24z" fill="#3c4f5e"/></g><path d="m26.5 308.64999c.831 0 1.5.669 1.5 1.5s-.669 1.5-1.5 1.5-1.5-.669-1.5-1.5.669-1.5 1.5-1.5z" fill="#363c4d"/><path d="m26.5 309.64999c.277 0 .5.223.5.5s-.223.5-.5.5-.5-.223-.5-.5.223-.5.5-.5z" fill="#9fffaa"/><path d="m22.5 308.64999c.831 0 1.5.669 1.5 1.5s-.669 1.5-1.5 1.5-1.5-.669-1.5-1.5.669-1.5 1.5-1.5z" fill="#363c4d"/><path d="m22.5 309.64999c.277 0 .5.223.5.5s-.223.5-.5.5-.5-.223-.5-.5.223-.5.5-.5z" fill="#9fffaa"/></g><g><path d="m6 6v1h3v-1zm0 2v1h3v-1zm0 2v1h3v-1zm0 2v1h3v-1zm0 2v1h3v-1zm0 2v1h3v-1zm0 2v1h3v-1zm0 2v1h3v-1z" fill="#7dff55"/><path d="m10 6v1h2v-1zm3 0v1h8v-1zm-3 2v1h2v-1zm3 0v1h8v-1zm-3 2v1h2v-1zm3 0v1h8v-1zm-3 2v1h2v-1zm3 0v1h8v-1zm-3 2v1h2v-1zm3 0v1h8v-1zm-3 2v1h2v-1zm3 0v1h8v-1zm-3 2v1h2v-1zm3 0v1h8v-1zm-3 2v1h2v-1zm3 0v1h8v-1z" fill="#eaeced"/></g></svg>