<svg height="32" viewBox="0 0 32 32" width="32" xmlns="http://www.w3.org/2000/svg"><g transform="translate(13 -289.64999)"><g><path d="m-9 311.64999h24c1.108 0 2 .892 2 2v5c0 1.108-.892 2-2 2h-24c-1.108 0-2-.892-2-2v-5c0-1.108.892-2 2-2z" fill="#36404d"/><path d="m4 23c-.554 0-1 .446-1 1v5c0 .554.446 1 1 1h1v-2h19v2h4c.554 0 1-.446 1-1v-5c0-.554-.446-1-1-1z" fill="#4b6477" transform="translate(-13 289.64999)"/><path d="m-9 290.64999h24c1.108 0 2 .892 2 2v22c0 1.108-.892 2-2 2h-24c-1.108 0-2-.892-2-2v-22c0-1.108.892-2 2-2z" fill="#a3b7cc"/><path d="m4 2c-.554 0-1 .446-1 1v22c0 .554.446 1 1 1h24c.554 0 1-.446 1-1v-22c0-.554-.446-1-1-1zm1 1c.554 0 1 .446 1 1s-.446 1-1 1-1-.446-1-1 .446-1 1-1zm22 0c.554 0 1 .446 1 1s-.446 1-1 1-1-.446-1-1 .446-1 1-1zm-22 9c.554 0 1 .446 1 1s-.446 1-1 1-1-.446-1-1 .446-1 1-1zm22 0c.554 0 1 .446 1 1s-.446 1-1 1-1-.446-1-1 .446-1 1-1zm-22 11c.554 0 1 .446 1 1s-.446 1-1 1-1-.446-1-1 .446-1 1-1zm22 0c.554 0 1 .446 1 1s-.446 1-1 1-1-.446-1-1 .446-1 1-1z" fill="#e1ebf2" transform="translate(-13 289.64999)"/></g><path d="m6 29v1h2v-1zm3 0v1h2v-1zm3 0v1h2v-1zm3 0v1h2v-1zm3 0v1h2v-1zm3 0v1h2v-1z" fill="#fdd837" transform="translate(-13 289.64999)"/><path d="m12 317.64999h2v1h-2z" fill="#52d089"/></g><g transform="matrix(3.7795275 0 0 3.7795275 8 -1101.51965)"><path d="m2.1166667 293.03125c-.7283193 0-1.32291661.5946-1.32291661 1.32292v.1111c-.1484925.0945-.2645834.23193-.2645834.41806v1.5875c0 .28859.2405849.52917.52916671.52917h2.1166666c.2885819 0 .5291667-.24058.5291667-.52917v-1.5875c0-.18613-.116091-.32354-.2645833-.41806v-.1111c0-.72832-.5945974-1.32292-1.3229167-1.32292z" fill="#4b6477"/><path d="m2.1166667 293.29583c-.5863167 0-1.0583334.47202-1.0583334 1.05834v.26458c-.14657913 0-.26458326.118-.26458326.26458v1.5875c0 .14658.11800413.26459.26458326.26459h2.1166666c.1465792 0 .2645834-.11801.2645834-.26459v-1.5875c0-.14658-.1180042-.26458-.2645834-.26458v-.26458c0-.58632-.4720165-1.05834-1.0583332-1.05834zm0 .52917c.2931583 0 .5291667.23601.5291667.52917v.26458h-1.0583334v-.26458c0-.29316.2360084-.52917.5291667-.52917zm0 1.05833c.2931583 0 .5291667.23601.5291667.52917 0 .19607-.1069449.36487-.2645834.4563v.60203h-.5291666v-.60203" fill="#a3b7cc"/></g></svg>