<svg height="64" width="64" xmlns="http://www.w3.org/2000/svg">
    <linearGradient id="a" gradientUnits="userSpaceOnUse" x1="117.281" x2="117.281" y1="87.166" y2="37.167">
        <stop offset="0" stop-color="#1a1a1a"/>
        <stop offset="1" stop-color="#4d4d4d"/>
    </linearGradient>
    <g transform="translate(-87.282 -30.136)">
        <g stroke-width="3.78">
            <path d="M103.8 32.135c-7.99 0-14.514 6.74-14.514 14.998v32.004c0 8.257 6.524 14.998 14.514 14.998h30.972c7.99 0 14.514-6.74 14.514-14.998V47.133c0-8.257-6.524-14.998-14.514-14.998zm.972 1.969h29.03c6.97 0 12.583 5.799 12.583 13.002v29.998c0 7.203-5.612 13.002-12.583 13.002h-29.03c-6.971 0-12.583-5.799-12.583-13.002V47.106c0-7.203 5.611-13.002 12.583-13.002z" opacity=".01"/>
            <path d="M103.76 33.135c-7.434 0-13.47 6.247-13.47 13.938v32.125c0 7.69 6.036 13.938 13.47 13.938h31.054c7.434 0 13.472-6.247 13.472-13.938V47.073c0-7.69-6.038-13.938-13.472-13.938zm1.029.969h28.996c6.963 0 12.568 5.798 12.568 13.002v29.998c0 7.203-5.605 13.002-12.568 13.002h-28.996c-6.963 0-12.568-5.799-12.568-13.002V47.106c0-7.203 5.605-13.002 12.568-13.002z" opacity=".01"/>
            <path d="M103.57 34.135c-7.052 0-12.757 5.814-12.757 12.998v32.004c0 7.184 5.934 12.998 12.986 12.998h30.991c7.052 0 12.954-5.814 12.954-12.998V47.133c0-7.184-5.707-12.998-12.758-12.998h-.366c6.78.327 12.147 5.979 12.147 12.971v29.998c0 7.203-5.692 13.002-12.762 13.002H104.56c-7.07 0-12.762-5.799-12.762-13.002V47.106c0-6.991 5.367-12.643 12.147-12.971z" opacity=".03"/>
        </g>
        <path d="M91.282 77.105v2.031c0 6.648 5.896 12 12.544 12h30.961c6.648 0 12.495-5.352 12.495-12v-1.992a12.972 12.972 0 0 1-13 12.963h-29.998a12.973 12.973 0 0 1-13.002-13.002z" opacity=".03"/>
        <path d="M91.282 75.135v2.239c0 7.327 5.945 13.226 12.593 13.226h30.843c6.648 0 12.565-5.9 12.565-13.226v-2.196c-.021 7.919-5.81 14.287-13 14.287h-29.998c-7.203 0-13.002-6.391-13.002-14.33z" opacity=".05"/>
        <rect fill="url(#a)" height="56" rx="13.002" width="56" x="91.282" y="34.135"/>
        <path d="M136.78 73.785a.268.268 0 0 1-.074.188.257.257 0 0 1-.183.08h-4.921a.257.257 0 0 1-.185-.08.276.276 0 0 1-.076-.188V50.561c0-.148.117-.268.26-.268h4.922c.142 0 .257.12.257.268zm-19.689 0a.268.268 0 0 1-.075.188.257.257 0 0 1-.182.08h-4.925a.262.262 0 0 1-.183-.08.268.268 0 0 1-.073-.188V59.814c0-.146.115-.268.256-.268h4.925c.142 0 .257.122.257.268zm9.945 0V57.141c0-3.782-2.936-6.848-6.56-6.848h-18.438a.262.262 0 0 0-.258.266v23.226c0 .15.116.268.258.268h4.926a.262.262 0 0 0 .256-.268v-18.23c0-.148.115-.269.257-.269h10.593c1.988 0 3.601 1.683 3.601 3.76v14.739c0 .15.114.268.257.268h4.852a.263.263 0 0 0 .257-.267z" fill="#fff"/>
    </g>
</svg>
