<svg width="32" height="32" xmlns="http://www.w3.org/2000/svg"><g transform="translate(-384.57 -515.8)"><rect x="384.57" y="516.8" width="32" height="30" rx="2" ry="2" opacity=".25"/><rect x="385.57" y="517.8" width="30" height="28" rx="1" ry="1" fill="#eee"/><path d="M386.57 517.8c-.554 0-1 .446-1 1v5h30v-5c0-.554-.446-1-1-1z" fill="#e4e4e4"/><rect x="411.57" y="519.8" width="2" height="2" rx="1" fill="#999"/><rect x="385.57" y="523.8" width="30" height="1" ry="0" opacity=".25"/><g stroke="#000" stroke-linecap="round" stroke-linejoin="round" stroke-opacity=".25" stroke-width=".4"><path d="M388.57 528.8v6h7v-5h-3l-1-1zM388.57 536.8v6h7v-5h-3l-1-1z" fill="#7aabdc"/><path d="M398.57 528.8v6h5v-4l-2-2z" fill="#e6e6e6"/><path d="m401.57 528.8 2 2h-2z" fill="#b3b3b3" fill-rule="evenodd"/><path d="M398.57 536.8v6h5v-4l-2-2z" fill="#e6e6e6"/><path d="m401.57 536.8 2 2h-2z" fill="#b3b3b3" fill-rule="evenodd"/><rect x="406.57" y="528.8" width="6" height="6" rx="1" ry="1" fill="#e6e6e6"/><rect x="407.57" y="530.8" width="4" height="2" rx="1" fill="#3daee9"/><rect x="409.57" y="530.8" width="2" height="2" rx="1" fill="#eff0f1"/></g></g></svg>