<svg height="32" viewBox="0 0 8.467 8.467" width="32" xmlns="http://www.w3.org/2000/svg">
    <path d="M4.233.265a3.96 3.96 0 0 1 3.97 3.968 3.96 3.96 0 0 1-3.97 3.97 3.96 3.96 0 0 1-3.968-3.97A3.96 3.96 0 0 1 4.233.265z" fill="#007042"/>
    <path d="M4.233.53a3.696 3.696 0 0 1 3.704 3.703c0 2.052-1.652 3.705-3.704 3.705S.53 6.285.53 4.233A3.696 3.696 0 0 1 4.233.53z" fill="#24b17a"/>
    <path d="M5.828 2.646a.528.528 0 0 0-.405.183l-1.74 1.959-.66-.661a.528.528 0 1 0-.745.747l1.055 1.057a.528.528 0 0 0 .768-.023l2.11-2.377a.528.528 0 0 0-.383-.885z" fill="#fff" fill-opacity=".788" fill-rule="evenodd"/>
</svg>
