<svg height="32" width="32" xmlns="http://www.w3.org/2000/svg">
    <rect height="28.293" opacity=".2" rx="1.4" ry="1.415" width="28" x="2" y="2.71"/>
    <rect fill="#eef4f7" height="28.293" rx="1.4" ry="1.415" width="28" x="2" y="2"/>
    <path d="M3.4 2C2.624 2 2 2.63 2 3.415v.707c0-.784.624-1.415 1.4-1.415h25.2c.776 0 1.4.631 1.4 1.415v-.707C30 2.63 29.376 2 28.6 2z" fill="#f4f4f7" opacity=".2"/>
    <g fill="none" stroke-linecap="round" stroke-linejoin="round">
        <path d="M10 26s0 1-2 1-2-2-2-4 0-4 2-4 2 1 2 1m-4-9h4m0 4V7m-4 8V7" opacity=".1" stroke="#000" stroke-width="2"/>
        <path d="M10 25s0 1-2 1-2-2-2-4 0-4 2-4 2 1 2 1m-4-9h4m0 4V6m-4 8V6" stroke="#0051cb" stroke-width="2"/>
        <path d="M17.5 21.5v6h4m5-1s0 1-2 1-2-1-2-3 0-3 2-3 2 1 2 1m-14 3h3m-3 2v-4s0-2 1.5-2 1.5 2 1.5 2v4m2-13s.5 1 2 1 2-.5 2-1.5c0-3-4 0-4-3 0-1 .5-1.5 2-1.5s2 1 2 1m-9 3h3m-3 2v-4s0-2 1.5-2 1.5 2 1.5 2v4m8-3h3m0 3v-6m-3 6v-6" opacity=".1" stroke="#000"/>
        <path d="M17.5 20.5v6h4m5-1s0 1-2 1-2-1-2-3 0-3 2-3 2 1 2 1m-14 3h3m-3 2v-4s0-2 1.5-2 1.5 2 1.5 2v4m2-13s.5 1 2 1 2-.5 2-1.5c0-3-4 0-4-3 0-1 .5-1.5 2-1.5s2 1 2 1m-9 3h3m-3 2v-4s0-2 1.5-2 1.5 2 1.5 2v4m8-3h3m0 3v-6m-3 6v-6" stroke="#0051cb"/>
    </g>
</svg>
