<svg height="32" width="32" xmlns="http://www.w3.org/2000/svg">
    <g fill="#f84e4e">
        <rect height="8" rx="1" width="8" x="8" y="3"/>
        <rect height="8" rx="1" width="8" x="8" y="12"/>
        <rect height="8" rx="1" width="8" x="8" y="21"/>
        <rect height="8" rx="1" width="8" x="17" y="21"/>
    </g>
    <path d="M9 3c-.554 0-1 .446-1 1v1c0-.554.446-1 1-1h6c.554 0 1 .446 1 1V4c0-.554-.446-1-1-1zm0 9c-.554 0-1 .446-1 1v1c0-.554.446-1 1-1h6c.554 0 1 .446 1 1v-1c0-.554-.446-1-1-1zm0 9c-.554 0-1 .446-1 1v1c0-.554.446-1 1-1h6c.554 0 1 .446 1 1v-1c0-.554-.446-1-1-1zm9 0c-.554 0-1 .446-1 1v1c0-.554.446-1 1-1h6c.554 0 1 .446 1 1v-1c0-.554-.446-1-1-1z" fill="#fff" opacity=".2"/>
    <path d="M8 10v1c0 .554.446 1 1 1h6c.554 0 1-.446 1-1v-1c0 .554-.446 1-1 1H9c-.554 0-1-.446-1-1zm0 9v1c0 .554.446 1 1 1h6c.554 0 1-.446 1-1v-1c0 .554-.446 1-1 1H9c-.554 0-1-.446-1-1zm0 9v1c0 .554.446 1 1 1h6c.554 0 1-.446 1-1v-1c0 .554-.446 1-1 1H9c-.554 0-1-.446-1-1zm9 0v1c0 .554.446 1 1 1h6c.554 0 1-.446 1-1v-1c0 .554-.446 1-1 1h-6c-.554 0-1-.446-1-1z" opacity=".2"/>
</svg>
