<svg height="32" width="32" xmlns="http://www.w3.org/2000/svg">
    <rect fill="#355871" height="28" rx="14" width="28" x="2" y="2"/>
    <path d="M2.025 16.5c-.006.167-.025.331-.025.5 0 7.756 6.244 14 14 14s14-6.244 14-14c0-.169-.02-.333-.025-.5C29.711 24.021 23.587 30 16 30S2.289 24.021 2.025 16.5z" opacity=".2"/>
    <path d="M16 2C8.244 2 2 8.244 2 16c0 .169.02.333.025.5A13.957 13.957 0 0 1 16 3c7.587 0 13.711 5.98 13.975 13.5.005-.167.025-.331.025-.5 0-7.756-6.244-14-14-14z" fill="#fff" opacity=".1"/>
    <path d="m25 5-8 10 9 2L8 30l7-11-9-2z" opacity=".2"/>
    <path d="m25 4-8 10 9 2L8 29l7-11-9-2z" fill="#3bb8d6"/>
</svg>
