<svg height="32" width="32" xmlns="http://www.w3.org/2000/svg">
    <path d="M8 26.688v1A1.32 1.32 0 0 0 9.334 29h13.332A1.32 1.32 0 0 0 24 27.688v-1A1.32 1.32 0 0 1 22.666 28H9.334A1.32 1.32 0 0 1 8 26.688z" opacity=".2"/>
    <path d="M24 26.687V8.313A1.32 1.32 0 0 1 22.667 7H9.333A1.32 1.32 0 0 1 8 8.313v18.374A1.32 1.32 0 0 1 9.333 28h13.334A1.32 1.32 0 0 1 24 26.687z" fill="#696969"/>
    <path d="M29 23.75V6.25C29 5.557 28.42 5 27.7 5H4.3C3.58 5 3 5.557 3 6.25v17.5c0 .692.58 1.25 1.3 1.25h23.4c.72 0 1.3-.557 1.3-1.25z" fill="#8e8e8e"/>
    <path d="M26 23V7H5v16z" fill="#f4f4f7"/>
    <path d="M4.3 5C3.58 5 3 5.558 3 6.25v1C3 6.558 3.58 6 4.3 6h23.4c.72 0 1.3.557 1.3 1.25v-1C29 5.558 28.42 5 27.7 5z" fill="#f4f4f7" opacity=".1"/>
    <path d="M3 23.75v1c0 .692.58 1.25 1.3 1.25h23.4c.72 0 1.3-.558 1.3-1.25v-1c0 .692-.58 1.25-1.3 1.25H4.3c-.72 0-1.3-.558-1.3-1.25z" opacity=".2"/>
    <path d="M5 23h21v1H5z" opacity=".1"/>
    <path d="M16 9a6 6 0 0 0-2.03.36c3.434 2.233 5.246 5.612 6.706 9.391A6 6 0 0 0 22 15a6 6 0 0 0-6-6z" fill="#3e5ba9"/>
    <path d="M12.142 10.413A6 6 0 0 0 10 15a6 6 0 0 0 1.489 3.95l.217-.426 1.347.689c.111.405.134.752.086 1.055A6 6 0 0 0 16 21a6 6 0 0 0 2.951-.785c-.518-3.54-3.049-7.752-6.809-9.802z" fill="#d82b2f"/>
    <path d="M14.04 10.336a6 6 0 0 0-1.976 1.144c1.093.532 2.154 1.354 3.077 2.348-1.175 1.18-2.544 3.22-3.403 5.39a6 6 0 0 0 1.657 1.177c.591-1.984 1.73-3.999 2.851-5.207 1.048 1.47 1.887 3.258 2.42 5.183a6 6 0 0 0 1.813-1.387c-1.279-3.64-4.174-7.42-6.44-8.648z" opacity=".2"/>
    <path d="M14.04 9.337a6 6 0 0 0-1.976 1.144c1.093.532 2.154 1.353 3.076 2.346-1.301 1.308-2.848 3.671-3.667 6.1a6 6 0 0 0 1.692 1.358c.476-2.249 1.79-4.706 3.081-6.097 1.206 1.692 2.162 3.793 2.658 6.054a6 6 0 0 0 1.822-1.557c-1.126-3.843-4.274-8.04-6.687-9.348z" fill="#f4f4f7"/>
</svg>
