<svg height="32" width="32" xmlns="http://www.w3.org/2000/svg"><path d="m6.375 2c-.762 0-1.375.624-1.375 1.4v25.2c0 .776.613 1.4 1.375 1.4h19.25c.762 0 1.375-.624 1.375-1.4v-25.2c0-.776-.613-1.4-1.375-1.4z" fill="#008295"/><path d="m6.375 2c-.762 0-1.375.624-1.375 1.4v25.2c0 .776.613 1.4 1.375 1.4h2.625v-28z" opacity=".2"/><path d="m18.019 10a6.985 6.985 0 0 0 -6.495 4.42 6.888 6.888 0 0 0 -.148.402c-.01.028-.02.055-.028.084a6.85 6.85 0 0 0 -.348 2.144c0 3.833 3.13 6.95 6.98 6.95a6.99 6.99 0 0 0 6.47-4.346v-.002c.075-.175.138-.356.198-.538a6.888 6.888 0 0 0 .352-2.164c0-3.832-3.131-6.95-6.981-6.95zm-.502 1.085v2.34a12.696 12.696 0 0 1 -1.893-.205c.088-.207.18-.406.282-.587.466-.836 1.03-1.357 1.61-1.548zm.997.039c.052.008.105.014.157.024.526.229 1.03.725 1.454 1.485.1.178.19.373.278.575-.587.114-1.223.187-1.89.214v-2.298zm-3.125.478a5.67 5.67 0 0 0 -.355.55c-.144.259-.274.54-.393.833a7.974 7.974 0 0 1 -.814-.286 5.974 5.974 0 0 1 1.562-1.096zm5.361.15c.273.109.481.21.69.312.267.185.517.39.749.614-.25.105-.517.203-.807.29a7.535 7.535 0 0 0 -.385-.817 6.135 6.135 0 0 0 -.247-.4zm2.09 1.675a5.902 5.902 0 0 1 1.137 3.03h-1.877a11.01 11.01 0 0 0 -.394-2.547c.398-.122.772-.261 1.114-.42.009-.022.014-.042.02-.063zm-9.69.066c.357.166.751.31 1.17.434a11.02 11.02 0 0 0 -.389 2.53h-1.87a5.902 5.902 0 0 1 1.088-2.964zm7.588.662c.198.695.327 1.473.364 2.302h-2.589v-2.042a13.457 13.457 0 0 0 2.225-.26zm-5.449.015" fill-rule="evenodd" opacity=".2"/><path d="m18.019 9a6.985 6.985 0 0 0 -6.495 4.42 6.888 6.888 0 0 0 -.148.402c-.01.028-.02.055-.028.083a6.873 6.873 0 0 0 -.348 2.145c0 3.833 3.13 6.95 6.98 6.95a6.99 6.99 0 0 0 6.47-4.345v-.002c.075-.176.138-.356.198-.538a6.888 6.888 0 0 0 .352-2.165c0-3.833-3.131-6.95-6.981-6.95zm-.502 1.085v2.34a12.696 12.696 0 0 1 -1.893-.205c.088-.207.18-.406.282-.587.466-.836 1.03-1.357 1.61-1.548zm.997.039c.052.008.105.014.157.024.526.229 1.03.725 1.454 1.485.1.178.19.373.278.575-.587.114-1.223.187-1.89.214v-2.298zm-3.125.478a5.67 5.67 0 0 0 -.355.55c-.144.259-.274.54-.393.833a7.974 7.974 0 0 1 -.814-.286 5.974 5.974 0 0 1 1.562-1.096zm5.361.15c.273.109.481.21.69.312.267.185.517.39.749.614-.25.105-.517.203-.807.29a7.535 7.535 0 0 0 -.385-.817 6.135 6.135 0 0 0 -.247-.4zm2.09 1.675a5.902 5.902 0 0 1 1.137 3.03h-1.877a11.01 11.01 0 0 0 -.394-2.547c.398-.122.772-.261 1.114-.42.009-.022.014-.042.02-.063zm-9.69.066c.357.166.751.31 1.17.434a11.02 11.02 0 0 0 -.389 2.53h-1.87a5.902 5.902 0 0 1 1.088-2.964zm7.588.662c.198.695.327 1.473.364 2.302h-2.589v-2.042a13.457 13.457 0 0 0 2.225-.26zm-5.449.015" fill="#fff" fill-rule="evenodd"/><path d="m6.375 2c-.762 0-1.375.625-1.375 1.4v1c0-.775.613-1.4 1.375-1.4h19.25c.762 0 1.375.625 1.375 1.4v-1c0-.775-.613-1.4-1.375-1.4z" fill="#fff" opacity=".2"/><path d="m5 28.6v1c0 .775.613 1.4 1.375 1.4h19.25c.762 0 1.375-.625 1.375-1.4v-1c0 .775-.613 1.4-1.375 1.4h-19.25a1.385 1.385 0 0 1 -1.375-1.4z" opacity=".2"/></svg>