<svg height="32" width="32" xmlns="http://www.w3.org/2000/svg">
    <path d="M3.4 31c-.775 0-1.4-.625-1.4-1.4v-1c0 .775.625 1.4 1.4 1.4h25.2c.775 0 1.4-.625 1.4-1.4v1c0 .775-.625 1.4-1.4 1.4H16z" opacity=".2"/>
    <path d="M16 2H3.4C2.624 2 2 2.624 2 3.4V16h14z" fill="#ff8c2a"/>
    <path d="M16 2h12.6c.776 0 1.4.624 1.4 1.4V16H16z" fill="#cf4f8c"/>
    <path d="M16 30H3.4c-.776 0-1.4-.624-1.4-1.4V16h14z" fill="#c72566"/>
    <path d="M16 30h12.6c.776 0 1.4-.624 1.4-1.4V16H16z" fill="#ff8c2a"/>
    <path d="M3.4 2C2.625 2 2 2.625 2 3.4v1C2 3.625 2.625 3 3.4 3h25.2c.775 0 1.4.625 1.4 1.4v-1c0-.775-.625-1.4-1.4-1.4z" fill="#f4f4f7" opacity=".2"/>
    <path d="M6 6h20v20H6z" fill="#17191e"/>
    <g fill="none" stroke-linecap="round" stroke-width="2">
        <path d="M9 24h8" opacity=".2" stroke="#000"/>
        <path d="M9 23h8" stroke="#f4f4f7"/>
        <path d="m13 18-2-3m-2-1s4 .464 4-2c0-2.465-4-2-4-2m0 8v-8" opacity=".2" stroke="#000"/>
        <path d="m13 17-2-3m-2-1s4 .464 4-2c0-2.465-4-2-4-2m0 8V9" stroke="#f4f4f7"/>
        <path d="M16 16h4m-2 2v-4" opacity=".2" stroke="#000"/>
        <path d="M16 15h4m-2 2v-4" stroke="#f4f4f7"/>
        <path d="M19 11h4m-2 2V9" opacity=".2" stroke="#000"/>
        <path d="M19 10h4m-2 2V8" stroke="#f4f4f7"/>
    </g>
</svg>
