<svg height="32" width="32" xmlns="http://www.w3.org/2000/svg"><path d="m5.956 28.081c0 .995.86 1.558-.135 1.558a1.801 1.801 0 1 1 1.512-2.78c.183.281-1.377.861-1.377 1.222zm19.778 0" opacity=".2"/><circle cx="16" cy="28" fill="#91926a" r="3"/><circle cx="16" cy="23.5" opacity=".1" r="6.5"/><path d="m5.947 18.204c-.232.448-.448.902-.597 1.385a8.061 8.061 0 0 0 -.344 1.793" fill="#888860" fill-rule="evenodd"/><path d="m5.956 27.081c0 .995.86 1.558-.135 1.558a1.801 1.801 0 1 1 1.512-2.78c.183.281-1.377.861-1.377 1.222z" fill="#1c7049"/><path d="m7.94 26.002c.852.013 1.529.297 2.108.816.434.388.384 1.133-.085 1.426-.287.178-.824.137-1.078-.088-.3-.266-.62-.45-1.045-.427-.5.026-.967.353-1.122.837-.223.697.165 1.46.845 1.62.264.063.53.098.776.231.388.212.435.67.296 1.003-.212.51-.481.63-1.034.563-1.268-.156-2.275-1.102-2.534-2.363-.19-.923.027-1.76.61-2.502.437-.555 1.01-.884 1.687-1.042.21-.049.426-.085.577-.074" fill-rule="evenodd" opacity=".2"/><path d="m7.94 25.002c.852.013 1.529.297 2.108.816.434.388.384 1.133-.085 1.426-.287.178-.824.137-1.078-.088-.3-.266-.62-.45-1.045-.427-.5.026-.967.353-1.122.837-.223.697.165 1.46.845 1.62.264.063.53.098.776.231.388.212.435.67.296 1.003-.212.51-.481.63-1.034.563-1.268-.156-2.275-1.102-2.534-2.363-.19-.923.027-1.76.61-2.502.437-.555 1.01-.883 1.687-1.042.21-.049.426-.085.577-.074" fill="#40a140" fill-rule="evenodd"/><path d="m26.053 18.204c.232.448.448.902.597 1.385.18.584.299 1.179.344 1.793" fill="#888860" fill-rule="evenodd"/><circle cx="24.5" cy="17.5" opacity=".1" r="2.5"/><path d="m24.009 26.002c-.851.013-1.528.297-2.108.816-.434.388-.384 1.133.085 1.426.287.178.824.137 1.078-.088.3-.266.62-.45 1.045-.427.5.026.968.353 1.123.837.223.697-.166 1.46-.845 1.62-.265.063-.531.098-.776.231-.389.212-.436.67-.297 1.003.213.51.482.63 1.034.563 1.268-.156 2.275-1.102 2.534-2.363.19-.923-.027-1.76-.61-2.502-.437-.555-1.01-.884-1.686-1.042-.211-.049-.427-.085-.577-.074" fill-rule="evenodd" opacity=".2"/><path d="m24.009 25.002c-.851.013-1.528.297-2.108.816-.434.388-.384 1.133.085 1.426.287.178.824.137 1.078-.088.3-.266.62-.45 1.045-.427.5.026.968.353 1.123.837.223.697-.166 1.46-.845 1.62-.265.063-.531.098-.776.231-.389.212-.436.67-.297 1.003.213.51.482.63 1.034.563 1.268-.156 2.275-1.102 2.534-2.363.19-.923-.027-1.76-.61-2.502-.437-.555-1.01-.883-1.686-1.042-.211-.049-.427-.085-.577-.074" fill="#40a140" fill-rule="evenodd"/><circle cx="7.5" cy="17.5" opacity=".1" r="2.5"/><circle cx="7.5" cy="16.5" fill="#1c7049" r="2.5"/><circle cx="24.5" cy="16.5" fill="#1c7049" r="2.5"/><circle cx="16" cy="22.5" fill="#1c7049" r="6.5"/><g fill-rule="evenodd"><path d="m24.996 17.173c-.017 1.699-.286 3.197-.852 4.635a10.836 10.836 0 0 1 -1.696 2.923c-.897 1.094-1.963 1.976-3.245 2.56-.72.328-1.47.548-2.258.647a7.47 7.47 0 0 1 -4.074-.616 8.574 8.574 0 0 1 -2.13-1.383c-.949-.828-1.698-1.815-2.299-2.93-.592-1.1-.991-2.27-1.224-3.5a11.861 11.861 0 0 1 -.193-1.634c-.013-.285-.027-.569-.025-.853.009-1.012.171-2 .453-2.969.313-1.073.755-2.091 1.27-3.076a24.519 24.519 0 0 1 2.113-3.313c.544-.728 1.12-1.43 1.71-2.119.828-.965 1.712-1.871 2.609-2.765.252-.251.492-.519.774-.739.062-.048.093-.06.16-.005.973.791 1.856 1.683 2.704 2.609a30.568 30.568 0 0 1 3.387 4.42c.856 1.366 1.596 2.792 2.12 4.33.287.841.505 1.699.614 2.58.055.446.1.896.082 1.198" opacity=".2"/><path d="m24.996 16.173c-.017 1.699-.286 3.197-.852 4.635a10.836 10.836 0 0 1 -1.696 2.923c-.897 1.094-1.963 1.976-3.245 2.56-.72.328-1.47.548-2.258.647a7.47 7.47 0 0 1 -4.074-.616 8.574 8.574 0 0 1 -2.13-1.383c-.949-.828-1.698-1.815-2.299-2.93-.592-1.1-.991-2.27-1.224-3.5a11.861 11.861 0 0 1 -.193-1.634c-.013-.285-.027-.569-.025-.853.009-1.012.171-2 .453-2.969.313-1.073.755-2.091 1.27-3.076a24.519 24.519 0 0 1 2.113-3.313c.544-.728 1.12-1.43 1.71-2.119.828-.965 1.712-1.871 2.609-2.765.252-.251.492-.519.774-.739.062-.048.093-.06.16-.005.973.791 1.856 1.683 2.704 2.609a30.568 30.568 0 0 1 3.387 4.42c.856 1.366 1.596 2.792 2.12 4.33.287.841.505 1.699.614 2.58.055.446.1.896.082 1.198" fill="#40a140"/><path d="m15.499 22.014c0 .285-.003.57.001.856.001.09-.022.123-.103.126-.395.014-.395.017-.395-.44 0-.468.003-.937-.002-1.406-.001-.112.023-.159.123-.149.091.01.183.007.274 0 .082-.005.104.035.103.126-.004.295-.001.591-.001.887" fill="#1c7927"/><path d="m14.486 22.025c0 .29-.002.579 0 .868.001.088-.006.12-.086.103-.397-.08-.398-.075-.398-.613 0-.404.004-.808-.002-1.212-.002-.125.03-.165.118-.154.115.014.263-.063.34.03.078.095.022.298.027.454.005.174 0 .35 0 .524" fill="#1d7a28"/><path d="m13.499 21.692c0 .193-.002.385 0 .578.002.087-.03.096-.088.057-.019-.013-.035-.036-.055-.042-.332-.094-.382-.36-.346-.692.016-.15.006-.304.002-.456-.002-.084.022-.12.1-.116.098.005.197.004.296 0 .071-.003.093.033.092.109-.003.187-.001.375-.001.562" fill="#1c7727"/><path d="m15.987 19a5.006 5.006 0 0 1 -4.987-5.024c.01-2.72 2.248-5.016 5.08-4.975a5 5 0 0 1 -.094 10" fill="#186521"/><path d="m20 14.02c0 2.2-1.8 3.98-4.02 3.98-2.209 0-3.983-1.803-3.98-4.043.003-2.186 1.816-3.96 4.044-3.956 2.176.003 3.957 1.813 3.956 4.02" fill="#89d4a4"/></g><circle cx="16" cy="14" fill="#599462" r="2"/><path d="m17.013 22.025c0 .29.002.579 0 .868-.001.088.006.12.086.103.397-.08.398-.075.398-.613 0-.404-.004-.808.002-1.212.002-.125-.03-.165-.118-.154-.115.014-.263-.063-.34.03-.078.095-.022.298-.027.454-.005.174 0 .35 0 .524" fill="#1d7a28" fill-rule="evenodd"/><path d="m18 21.692c0 .193.002.385 0 .578-.002.087.03.096.088.057.019-.013.035-.036.055-.042.332-.094.382-.36.346-.692-.016-.15-.006-.304-.002-.456.002-.084-.022-.12-.1-.116a3.047 3.047 0 0 1 -.296 0c-.071-.003-.093.033-.092.109.003.187.001.375.001.562" fill="#1c7727" fill-rule="evenodd"/><path d="m16.499 22.014c0 .285-.003.57.001.856.001.09-.022.123-.103.126-.395.014-.395.017-.395-.44 0-.468.003-.937-.002-1.406-.001-.112.023-.159.123-.149.091.01.183.007.274 0 .082-.005.104.035.103.126-.004.295-.001.591-.001.887" fill="#1c7927" fill-rule="evenodd"/><path d="m16.008 1c-.024.002-.048.017-.078.041-.282.22-.524.487-.776.738-.896.894-1.78 1.801-2.607 2.766-.591.69-1.167 1.39-1.711 2.12a24.51 24.51 0 0 0 -2.113 3.312c-.515.984-.957 2.002-1.27 3.076a10.911 10.911 0 0 0 -.453 2.967c-.002.204.009.408.018.612.041-.876.19-1.736.435-2.58.313-1.074.755-2.092 1.27-3.076a24.51 24.51 0 0 1 2.113-3.313c.544-.728 1.12-1.43 1.71-2.12.828-.964 1.712-1.87 2.608-2.765.252-.25.494-.518.776-.738.06-.048.091-.06.158-.006.973.792 1.858 1.684 2.705 2.61a30.564 30.564 0 0 1 3.387 4.42c.855 1.367 1.596 2.793 2.12 4.331a12.891 12.891 0 0 1 .677 3.176c.004-.134.018-.262.02-.398.017-.302-.028-.752-.083-1.197a12.891 12.891 0 0 0 -.613-2.58c-.525-1.54-1.266-2.965-2.121-4.333a30.564 30.564 0 0 0 -3.387-4.42c-.847-.925-1.732-1.817-2.705-2.609-.033-.027-.056-.037-.08-.035z" fill="#f4f4f7" fill-rule="evenodd" opacity=".2"/></svg>