<svg xmlns="http://www.w3.org/2000/svg" width="32" height="32"><rect style="opacity:.2;stroke:#4285f4;stroke-width:0;stroke-linecap:round;stroke-linejoin:round" width="29" height="26" x="1" y="4" rx="1.765" ry="1.717"/><rect style="fill:#b49478;stroke:#4285f4;stroke-width:0;stroke-linecap:round;stroke-linejoin:round" width="29" height="26" x="1" y="3" rx="1.765" ry="1.717"/><path style="fill:#17191e" d="M5 9h21v17H5z"/><path style="fill:#2e7034" d="M5 9h3v17H5zM12 9h3v17h-3zM19 9h3v17h-3z"/><path style="fill:#574c45" d="M5 5h9v1.5H5z"/><path style="fill:#574c45" d="M5 6h5v2H5zM19 5h7v1.5h-7z"/><path style="opacity:.2" d="M8 12v3h4v-3H8zm7 0v3h4v-3h-4zm7 0v3h4v-3h-4zM8 18v3h4v-3H8zm7 0v3h4v-3h-4zm7 0v3h4v-3h-4zM8 24v2h4v-2H8zm7 0v2h4v-2h-4zm7 0v2h4v-2h-4z"/><path style="fill:#f4f4f7;stroke:#4285f4;stroke-width:0;stroke-linecap:round;stroke-linejoin:round;opacity:.2" d="M2.766 3C1.788 3 1 3.765 1 4.717v1C1 4.765 1.788 4 2.766 4h25.468C29.212 4 30 4.765 30 5.717v-1C30 3.765 29.212 3 28.234 3H2.766z"/><path style="opacity:.2" d="M5 9h21v1H5z"/></svg>