<svg height="32" width="32" xmlns="http://www.w3.org/2000/svg">
    <rect height="28" opacity=".2" rx="1.438" ry="1.4" transform="matrix(0 -1 -1 0 0 0)" width="23" x="-28" y="-30"/>
    <rect fill="#e2d144" height="28" rx="1.438" ry="1.4" transform="matrix(0 -1 -1 0 0 0)" width="23" x="-27" y="-30"/>
    <path d="M6 4h2v11H6zm15 0h2v8h-2zM9 4h2v5H9zM4 17v8h6v-8zm2 2h2v4H6zm6-15h2v5h-2zm3 0h2v5h-2zm3 0h2v5h-2zm6 0h2v5h-2z" opacity=".5"/>
    <path d="M3.4 4C2.625 4 2 4.641 2 5.438v1C2 5.64 2.625 5 3.4 5h25.2c.775 0 1.4.641 1.4 1.438v-1C30 4.64 29.375 4 28.6 4z" fill="#f4f4f7" opacity=".2"/>
    <path d="M27 4h2v5h-2z" opacity=".5"/>
</svg>
