<svg height="32" viewBox="0 0 32 32" width="32" xmlns="http://www.w3.org/2000/svg"><g transform="translate(13 -289.64999)"><path d="m-9 311.64999h24c1.108 0 2 .892 2 2v5c0 1.108-.892 2-2 2h-24c-1.108 0-2-.892-2-2v-5c0-1.108.892-2 2-2z" fill="#a5b8cd" fill-opacity=".933333" opacity=".93"/><path d="m4 23c-.554 0-1 .446-1 1v5c0 .554.446 1 1 1h24c.554 0 1-.446 1-1v-5c0-.554-.446-1-1-1zm1.4785156 5h21.0429684c.264759 0 .478516.213757.478516.478516v.04297c0 .264757-.213757.478514-.478516.478514h-21.0429684c-.2647582 0-.4785156-.213757-.4785156-.478516v-.04297c0-.264757.2137574-.478514.4785156-.478514z" fill="#f1f1f1" transform="translate(-13 289.64999)"/><path d="m-9 290.64999h24c1.108 0 2 .892 2 2v22c0 1.108-.892 2-2 2h-24c-1.108 0-2-.892-2-2v-22c0-1.108.892-2 2-2z" fill="#528fd0"/><path d="m4 2c-.554 0-1 .446-1 1v22c0 .554.446 1 1 1h24c.554 0 1-.446 1-1v-22c0-.554-.446-1-1-1zm1 1c.554 0 1 .446 1 1s-.446 1-1 1-1-.446-1-1 .446-1 1-1zm22 0c.554 0 1 .446 1 1s-.446 1-1 1-1-.446-1-1 .446-1 1-1zm-22 20c.554 0 1 .446 1 1s-.446 1-1 1-1-.446-1-1 .446-1 1-1zm22 0c.554 0 1 .446 1 1s-.446 1-1 1-1-.446-1-1 .446-1 1-1z" fill="#9ecdff" transform="translate(-13 289.64999)"/></g><path d="m-8.0884194 311.17556c-2.1006886 0-3.8393346 1.43301-4.3398436 3.37308-.3273-.23357-.72565-.37304-1.160156-.37304-1.10798 0-2 .89205-2 2.00002 0 .0151.0054.034.0059.0488-1.701101.24075-3.005859 1.68155-3.005859 3.45116 0 1.93901 1.561003 3.49999 3.5 3.49999h10.9999996c1.939 0 3.5-1.56098 3.5-3.49999 0-1.78632-1.329963-3.23535-3.054688-3.45506.02192-.18066.05469-.35792.05469-.54493 0-2.49297-2.007014-4.50002-4.5-4.50002z" fill="#528fd0" transform="translate(25.561034 -303.17557)"/></svg>