<svg height="32" width="32" xmlns="http://www.w3.org/2000/svg">
    <path d="M2 26.5v1c0 .831.669 1.5 1.5 1.5h25c.831 0 1.5-.669 1.5-1.5v-1c0 .831-.669 1.5-1.5 1.5h-25c-.831 0-1.5-.669-1.5-1.5z" opacity=".2"/>
    <rect fill="#4f4f4f" height="24" rx="1.5" width="28" x="2" y="4"/>
    <path d="M3.5 4C2.669 4 2 4.669 2 5.5v1C2 5.669 2.669 5 3.5 5h25c.831 0 1.5.669 1.5 1.5v-1c0-.831-.669-1.5-1.5-1.5z" fill="#f4f4f7" opacity=".1"/>
    <path d="M6 8v1h-.5C4.669 9 4 9.669 4 10.5S4.669 12 5.5 12H6v1H4.092c.206.582.754 1 1.408 1H6v1h1v-1h.5c.831 0 1.5-.669 1.5-1.5S8.331 11 7.5 11H7v-1h1.908c-.206-.582-.754-1-1.408-1H7V8zm-.5 2H6v1h-.5a.499.499 0 1 1 0-1zM7 12h.5c.277 0 .5.223.5.5s-.223.513-.5.5H7zm4 2v1h6v-1z" opacity=".2"/>
    <path d="M6 7v1h-.5C4.669 8 4 8.669 4 9.5S4.669 11 5.5 11H6v1H4.092c.206.582.754 1 1.408 1H6v1h1v-1h.5c.831 0 1.5-.669 1.5-1.5S8.331 10 7.5 10H7V9h1.908c-.206-.582-.754-1-1.408-1H7V7zm-.5 2H6v1h-.5a.499.499 0 1 1 0-1zM7 11h.5c.277 0 .5.223.5.5s-.223.513-.5.5H7zm4 2v1h6v-1z" fill="#f4f4f7"/>
    <circle cx="24" cy="23.001" fill="#bb46da" r="8"/>
    <g fill="#f4f4f7">
        <path d="M20 19.002h.672c4.05 0 7.33 3.278 7.33 7.328v.672h-.672a.666.666 0 0 1-.656-.672 6 6 0 0 0-6-6 .666.666 0 0 1-.67-.656v-.672z"/>
        <path d="M20 21.674h.672a4.649 4.649 0 0 1 4.656 4.656v.672h-.656a.68.68 0 0 1-.67-.672 3.327 3.327 0 0 0-3.33-3.328.68.68 0 0 1-.67-.672v-.656z"/>
        <path d="M21.33 24.33c.736 0 1.344.607 1.344 1.344 0 .736-.61 1.328-1.34 1.328-.74 0-1.33-.592-1.33-1.328 0-.737.592-1.344 1.328-1.344z"/>
    </g>
    <path d="M31.979 23.426A8 8 0 0 1 24 31.002a8 8 0 0 1-7.979-7.424A8 8 0 0 0 16 24a8 8 0 0 0 8 8 8 8 0 0 0 8-8 8 8 0 0 0-.021-.574z" opacity=".2"/>
</svg>
