<svg height="32" width="32" xmlns="http://www.w3.org/2000/svg">
    <path d="M16 10v7h7a7 7 0 1 0-7-7zm0 0v7H9a7 7 0 1 1 7-7zm0 14v-7H9a7 7 0 1 0 7 7zm0 0v-7h7a7 7 0 1 1-7 7z" opacity=".2"/>
    <path d="M16 9v7H9a7 7 0 1 1 7-7z" fill="#d32f2f"/>
    <path d="M16 9v7h7a7 7 0 1 0-7-7z" fill="#92dc39"/>
    <path d="M16 23v-7h7a7 7 0 1 1-7 7z" fill="#fdd835"/>
    <path d="M16 16v1h7c3.697 0 6.717 2.869 6.975 6.5.011-.166.025-.331.025-.5a7 7 0 0 0-7-7z" fill="#f4f4f7" opacity=".2"/>
    <path d="M16 23v-7H9a7 7 0 1 0 7 7z" fill="#2f58d3"/>
    <path d="M9 16a7 7 0 0 0-7 7c0 .169.014.334.025.5C2.283 19.869 5.303 17 9 17h7v-1z" fill="#f4f4f7" opacity=".1"/>
    <circle cx="16" cy="17" opacity=".2" r="6"/>
    <g fill="#f4f4f7">
        <circle cx="16" cy="16" r="6"/>
        <path d="M9 2a7 7 0 0 0-7 7c0 .169.014.334.025.5C2.283 5.869 5.303 3 9 3a7 7 0 0 1 7 7V9a7 7 0 0 0-7-7z" opacity=".1"/>
        <path d="M23 2a7 7 0 0 0-7 7v1a7 7 0 0 1 7-7c3.697 0 6.717 2.869 6.975 6.5.011-.166.025-.331.025-.5a7 7 0 0 0-7-7z" opacity=".2"/>
    </g>
</svg>
