<svg height="32" width="32" xmlns="http://www.w3.org/2000/svg"><rect height="28" opacity=".2" rx="1.4" width="28" x="2" y="3"/><rect fill="#1493ca" height="28" rx="1.4" width="28" x="2" y="2"/><path d="m3.4 2c-.775 0-1.4.625-1.4 1.4v1c0-.775.625-1.4 1.4-1.4h25.2c.775 0 1.4.625 1.4 1.4v-1c0-.775-.625-1.4-1.4-1.4z" fill="#f4f4f7" opacity=".2"/><path d="m16 8c-2.82 0-5 2.293-5 5.143v1.857h-1.11c-.493 0-.89.473-.89.97v9.13c0 .498.397.9.89.9h12.22c.492 0 .89-.402.89-.9v-9.13c0-.497-.399-1.002-.89-.97h-1.11v-1.857c0-2.85-2.18-5.143-5-5.143zm0 2c1.763 0 3 1.362 3 3.143v1.857h-6v-1.857c0-1.781 1.237-3.143 3-3.143zm0 7a2 2 0 0 1 2 2 2 2 0 0 1 -1.049 1.758c.02.08.049.156.049.242v2c0 .554-.446 1-1 1s-1-.446-1-1v-2c0-.085.029-.161.049-.24a2 2 0 0 1 -1.049-1.76 2 2 0 0 1 2-2z" opacity=".2"/><path d="m16 7c-2.82 0-5 2.293-5 5.143v1.857h-1.11c-.493 0-.89.473-.89.97v9.13c0 .498.397.9.89.9h12.22c.492 0 .89-.402.89-.9v-9.13c0-.497-.399-1.002-.89-.97h-1.11v-1.857c0-2.85-2.18-5.143-5-5.143zm0 2c1.763 0 3 1.362 3 3.143v1.857h-6v-1.857c0-1.781 1.237-3.143 3-3.143zm0 7a2 2 0 0 1 2 2 2 2 0 0 1 -1.049 1.758c.02.08.049.156.049.242v2c0 .554-.446 1-1 1s-1-.446-1-1v-2c0-.085.029-.161.049-.24a2 2 0 0 1 -1.049-1.76 2 2 0 0 1 2-2z" fill="#f4f4f7"/></svg>