<svg height="32" width="32" xmlns="http://www.w3.org/2000/svg">
    <path d="M10.565 31h18.87c.313 0 .565-.29.565-.65v-6.7c0-.36-.252-.65-.565-.65h-18.87c-.313 0-.565.29-.565.65v6.7c0 .36.252.65.565.65zM10 11.565v18.87c0 .313-.29.565-.65.565h-6.7c-.36 0-.65-.252-.65-.565v-18.87c0-.313.29-.565.65-.565h6.7c.36 0 .65.252.65.565z" opacity=".2"/>
    <path d="M10 10.565v18.87c0 .313-.29.565-.65.565h-6.7c-.36 0-.65-.252-.65-.565v-18.87c0-.313.29-.565.65-.565h6.7c.36 0 .65.252.65.565z" fill="#17191e"/>
    <path d="M2.565 11h18.87c.313 0 .565-.29.565-.65v-6.7c0-.36-.252-.65-.565-.65H2.565C2.252 3 2 3.29 2 3.65v6.7c0 .36.252.65.565.65z" opacity=".2"/>
    <path d="M2.565 10h18.87c.313 0 .565-.29.565-.65v-6.7c0-.36-.252-.65-.565-.65H2.565C2.252 2 2 2.29 2 2.65v6.7c0 .36.252.65.565.65z" fill="#0169c9"/>
    <path d="M10.565 30h18.87c.313 0 .565-.29.565-.65v-6.7c0-.36-.252-.65-.565-.65h-18.87c-.313 0-.565.29-.565.65v6.7c0 .36.252.65.565.65z" fill="#fdca01"/>
    <path d="M10.564 22c-.312 0-.564.289-.564.648v1c0-.36.252-.648.564-.648h12.084c-.36 0-.648-.252-.648-.564V22z" fill="#f4f4f7" opacity=".2"/>
    <path d="M30 3.565v18.87c0 .313-.29.565-.65.565h-6.7c-.36 0-.65-.252-.65-.565V3.565c0-.313.29-.565.65-.565h6.7c.36 0 .65.252.65.565z" opacity=".1"/>
    <path d="M30 2.565v18.87c0 .313-.29.565-.65.565h-6.7c-.36 0-.65-.252-.65-.565V2.565c0-.313.29-.565.65-.565h6.7c.36 0 .65.252.65.565z" fill="#e51ae5"/>
    <path d="M2.564 2C2.252 2 2 2.289 2 2.648v1c0-.36.252-.648.564-.648h18.872c.312 0 .564.289.564.648v-1c0-.36-.252-.648-.564-.648zm20.084 0c-.36 0-.648.252-.648.564v1c0-.312.289-.564.648-.564h6.704c.36 0 .648.252.648.564v-1c0-.312-.289-.564-.648-.564z" fill="#f4f4f7" opacity=".2"/>
</svg>
