<svg height="32" width="32" xmlns="http://www.w3.org/2000/svg"><rect height="28" opacity=".2" rx="1.4" width="28" x="2" y="3"/><rect fill="#f4f4f7" height="28" rx="1.4" width="28" x="2" y="2"/><path d="m15.916 10.059-9.916 6.941 7.559 5.291.595-3.084-3.154-2.207 4.137-2.896zm2.711 1.78-.594 3.085 2.967 2.076-3.893 2.725-.779 4.045 9.672-6.77-7.373-5.16z" opacity=".1"/><path d="m15.916 9.059-9.916 6.941 7.559 5.291.595-3.084-3.154-2.207 4.137-2.896z" fill="#483c8f"/><path d="m18.627 10.84-.594 3.084 2.967 2.076-3.893 2.725-.779 4.045 9.672-6.77z" fill="#4b8adf"/><path d="m3.4 2c-.775 0-1.4.625-1.4 1.4v1c0-.775.625-1.4 1.4-1.4h25.2c.775 0 1.4.625 1.4 1.4v-1c0-.775-.625-1.4-1.4-1.4z" fill="#f4f4f7" opacity=".2"/></svg>