<svg height="32" width="32" xmlns="http://www.w3.org/2000/svg">
    <circle cx="16" cy="17" opacity=".2" r="14"/>
    <circle cx="16" cy="16" fill="#546e7a" r="14"/>
    <path d="M16.96 6c-.19-.001-.263.15-.648 1.323l-.384 1.166-.585.052c-.322.03-.694.076-.825.103-.175.036-.256.037-.298.002-.032-.027-.304-.467-.603-.978-.599-1.02-.72-1.185-.889-1.185-.177 0-1.362.473-1.448.577a.421.421 0 0 0-.076.234c.001.076.107.632.237 1.238s.227 1.122.218 1.146c-.01.025-.15.126-.313.228a8.25 8.25 0 0 0-.657.474c-.198.159-.378.29-.4.29-.024 0-.485-.251-1.027-.557-1.115-.63-1.168-.654-1.325-.594-.17.065-1.003 1.123-1.003 1.274 0 .163.04.214.89 1.16.406.452.738.854.738.893s-.085.244-.19.456a9.339 9.339 0 0 0-.312.701c-.066.174-.143.336-.173.36-.034.028-.524.05-1.273.059-1.502.016-1.37-.056-1.511.838a12.03 12.03 0 0 0-.103.746c-.005.238.096.29 1.318.693l1.165.384.05.57c.03.315.074.69.1.831.027.142.037.275.023.296-.013.022-.463.299-1 .617s-1.02.627-1.074.686a.39.39 0 0 0-.1.223c0 .187.48 1.368.586 1.442.139.098.259.083 1.46-.173.604-.13 1.12-.226 1.144-.215.025.01.127.15.229.313.102.162.316.46.477.66.2.25.283.388.264.439-.015.04-.263.493-.552 1.006-.593 1.053-.627 1.126-.588 1.28.04.158 1.129 1.029 1.286 1.028.162 0 .24-.06 1.148-.88.442-.4.837-.733.878-.74.04-.007.25.075.468.183.217.107.549.25.736.316.188.066.345.123.35.126.005.002.02.574.032 1.27.03 1.554-.04 1.419.828 1.56.652.105.91.106 1.014 0 .036-.036.237-.588.447-1.225l.38-1.159.439-.034c.24-.018.615-.064.833-.1.395-.064.397-.064.48.034.044.055.325.515.624 1.024s.586.961.638 1.004c.142.116.243.097.929-.165.653-.25.784-.34.784-.546 0-.064-.107-.62-.238-1.238-.13-.618-.228-1.14-.217-1.159.012-.019.163-.13.337-.247.173-.118.464-.335.646-.483.181-.149.349-.27.371-.27s.497.254 1.056.566c1.142.636 1.135.633 1.286.595.16-.04 1.028-1.132 1.028-1.294 0-.15-.037-.198-.9-1.161-.389-.433-.713-.822-.72-.866-.008-.044.067-.24.165-.436.099-.195.239-.51.313-.698s.155-.36.178-.385c.026-.026.542-.053 1.272-.066 1.173-.021 1.234-.027 1.322-.115.072-.072.114-.235.198-.749.058-.361.107-.699.107-.75.002-.21-.124-.274-1.32-.671l-1.166-.387-.05-.569a11.515 11.515 0 0 0-.097-.829c-.027-.142-.038-.276-.025-.297.014-.022.464-.3 1-.617.538-.318 1.02-.626 1.075-.685a.39.39 0 0 0 .1-.218c0-.173-.473-1.351-.577-1.438-.133-.11-.223-.1-1.276.125-1.235.263-1.302.275-1.347.244a3.095 3.095 0 0 1-.25-.347 9.39 9.39 0 0 0-.471-.639c-.143-.175-.26-.337-.26-.359s.256-.496.568-1.055c.312-.56.579-1.06.594-1.112.053-.177-.057-.315-.61-.76-.59-.473-.694-.517-.905-.372-.06.041-.48.408-.931.815-.452.407-.853.741-.892.741-.038 0-.243-.087-.454-.193a7.072 7.072 0 0 0-.67-.292c-.461-.161-.44-.094-.44-1.426-.001-1.058-.008-1.162-.085-1.29a.357.357 0 0 0-.209-.164c-.19-.04-1.26-.202-1.341-.203z" opacity=".1"/>
    <path d="M16.96 5c-.19-.001-.263.15-.648 1.323l-.384 1.166-.585.052c-.322.03-.694.076-.825.103-.175.036-.256.037-.298.002-.032-.027-.304-.467-.603-.978-.599-1.02-.72-1.185-.889-1.185-.177 0-1.362.473-1.448.577a.421.421 0 0 0-.076.234c.001.076.107.632.237 1.238s.227 1.122.218 1.146c-.01.025-.15.126-.313.228a8.25 8.25 0 0 0-.657.474c-.198.159-.378.29-.4.29-.024 0-.485-.251-1.027-.557-1.115-.63-1.168-.654-1.325-.594-.17.065-1.003 1.123-1.003 1.274 0 .163.04.214.89 1.16.406.452.738.854.738.893s-.085.244-.19.456a9.339 9.339 0 0 0-.312.701c-.066.174-.143.336-.173.36-.034.028-.524.05-1.273.059-1.502.016-1.37-.056-1.511.838a12.03 12.03 0 0 0-.103.746c-.005.238.096.29 1.318.693l1.165.384.05.57c.03.315.074.69.1.831.027.142.037.275.023.296-.013.022-.463.299-1 .617s-1.02.627-1.074.686a.39.39 0 0 0-.1.223c0 .187.48 1.368.586 1.442.139.098.259.083 1.46-.173.604-.13 1.12-.226 1.144-.215.025.01.127.15.229.313.102.162.316.46.477.66.2.25.283.388.264.439-.015.04-.263.493-.552 1.006-.593 1.053-.627 1.126-.588 1.28.04.158 1.129 1.029 1.286 1.028.162 0 .24-.06 1.148-.88.442-.4.837-.733.878-.74.04-.007.25.075.468.183.217.107.549.25.736.316.188.066.345.123.35.126.005.002.02.574.032 1.27.03 1.554-.04 1.419.828 1.56.652.105.91.106 1.014 0 .036-.036.237-.588.447-1.225l.38-1.159.439-.034c.24-.018.615-.064.833-.1.395-.064.397-.064.48.034.044.055.325.515.624 1.024s.586.961.638 1.004c.142.116.243.097.929-.165.653-.25.784-.34.784-.546 0-.064-.107-.62-.238-1.238-.13-.618-.228-1.14-.217-1.159.012-.019.163-.13.337-.247.173-.118.464-.335.646-.483.181-.149.349-.27.371-.27s.497.254 1.056.566c1.142.636 1.135.633 1.286.595.16-.04 1.028-1.132 1.028-1.294 0-.15-.037-.198-.9-1.161-.389-.433-.713-.822-.72-.866-.008-.044.067-.24.165-.436.099-.195.239-.51.313-.698s.155-.36.178-.385c.026-.026.542-.053 1.272-.066 1.173-.021 1.234-.027 1.322-.115.072-.072.114-.235.198-.749.058-.361.107-.699.107-.75.002-.21-.124-.274-1.32-.671l-1.166-.387-.05-.569a11.515 11.515 0 0 0-.097-.829c-.027-.142-.038-.276-.025-.297.014-.022.464-.3 1-.617.538-.318 1.02-.626 1.075-.685a.39.39 0 0 0 .1-.218c0-.173-.473-1.351-.577-1.438-.133-.11-.223-.1-1.276.125-1.235.263-1.302.275-1.347.244a3.095 3.095 0 0 1-.25-.347 9.39 9.39 0 0 0-.471-.639c-.143-.175-.26-.337-.26-.359s.256-.496.568-1.055c.312-.56.579-1.06.594-1.112.053-.177-.057-.315-.61-.76-.59-.473-.694-.517-.905-.372-.06.041-.48.408-.931.815-.452.407-.853.741-.892.741-.038 0-.243-.087-.454-.193a7.072 7.072 0 0 0-.67-.292c-.461-.161-.44-.094-.44-1.426-.001-1.058-.008-1.162-.085-1.29a.357.357 0 0 0-.209-.164c-.19-.04-1.26-.202-1.341-.203z" fill="#768b95"/>
    <path d="M14 12v6h-3l5 5.5 5-5.5h-3v-6z" opacity=".2"/>
    <g fill="#f4f4f7">
        <path d="M14 11v6h-3l5 5.5 5-5.5h-3v-6z"/>
        <path d="M16 2A14 14 0 0 0 2 16a14 14 0 0 0 .021.586A14 14 0 0 1 16 3a14 14 0 0 1 13.979 13.414A14 14 0 0 0 30 16 14 14 0 0 0 16 2z" opacity=".1"/>
        <path d="M16.96 5c-.19-.001-.262.149-.648 1.322l-.384 1.166-.584.053c-.322.03-.695.076-.826.104-.175.036-.255.037-.297.001-.032-.026-.304-.467-.604-.978-.598-1.02-.72-1.184-.888-1.184-.177 0-1.363.472-1.45.577a.418.418 0 0 0-.074.232c0 .045.083.442.14.736.179-.131 1.215-.545 1.384-.545.168 0 .29.163.888 1.184.3.51.572.952.604.978.042.036.122.035.297-.001.131-.028.504-.075.826-.104l.584-.053.384-1.166c.386-1.172.459-1.322.65-1.322.082 0 1.152.163 1.342.203.075.016.156.08.207.164.077.128.086.233.086 1.291 0 1.332-.022 1.265.44 1.426.156.055.46.185.671.291s.414.193.453.193.441-.335.893-.742.872-.773.931-.814c.211-.145.313-.1.903.373.169.136.232.204.326.293.1-.189.278-.509.285-.533.053-.178-.058-.316-.611-.76-.59-.474-.692-.518-.903-.373-.06.04-.48.407-.931.814-.452.407-.854.742-.893.742s-.242-.087-.453-.193a7.063 7.063 0 0 0-.672-.291c-.46-.161-.44-.094-.44-1.426 0-1.058-.008-1.163-.085-1.29a.354.354 0 0 0-.207-.165c-.19-.04-1.26-.202-1.342-.203zM8.056 8.498a.249.249 0 0 0-.117.022c-.17.064-1.004 1.122-1.004 1.273 0 .102.096.243.312.5.257-.344.59-.735.691-.773.158-.06.21-.036 1.325.593.542.306 1.004.557 1.027.557s.203-.132.4-.291c.198-.16.494-.371.657-.473.163-.101.303-.204.312-.228.007-.019-.081-.464-.166-.88-.055.04-.07.06-.146.108a8.201 8.201 0 0 0-.657.473c-.197.159-.377.29-.4.29s-.485-.25-1.027-.556c-.836-.472-1.074-.604-1.207-.615zm14.59 2.238c-.12.221-.31.563-.31.575.001.021.118.184.26.359.144.175.355.462.471.639.116.176.23.333.25.347.046.032.112.02 1.348-.244 1.052-.224 1.143-.234 1.275-.125.056.046.208.39.346.74.019-.014.124-.076.131-.084a.396.396 0 0 0 .102-.218c0-.174-.474-1.352-.579-1.438-.132-.11-.223-.1-1.275.125-1.236.264-1.302.276-1.348.244a3.151 3.151 0 0 1-.25-.347 9.337 9.337 0 0 0-.421-.573zM8.28 12.506c-.082.178-.174.375-.22.498-.066.174-.144.334-.174.36-.034.027-.523.05-1.272.058-1.502.016-1.37-.056-1.511.838-.055.346-.103.682-.104.746-.002.087.033.15.11.215.129-.841.032-.783 1.505-.8.749-.007 1.238-.03 1.272-.058.03-.025.108-.185.174-.36.065-.173.205-.49.31-.702s.191-.416.191-.455c0-.015-.199-.237-.28-.34zm16.162 2.676c-.01.007-.1.06-.101.062-.014.022-.002.157.025.299s.07.515.098.828l.049.568 1.166.387c.758.252 1.065.369 1.203.475l.01-.053c.058-.361.107-.698.107-.75.002-.21-.125-.275-1.32-.672l-1.166-.387-.05-.568c-.005-.071-.013-.115-.02-.19zm-16.888 2.66c-.089.064-.416.269-.899.554-.537.319-1.02.63-1.074.688a.386.386 0 0 0-.1.22c0 .086.112.397.23.696.136-.102.473-.324.944-.604.537-.318.987-.595 1-.617.013-.021.003-.153-.023-.295-.02-.11-.052-.39-.078-.642zm16.162 2.681c-.04.085-.074.172-.108.239-.098.196-.171.391-.164.435.008.044.331.433.72.866.325.363.45.51.583.667.172-.23.316-.442.316-.505 0-.152-.036-.2-.9-1.163-.242-.269-.316-.376-.447-.539zM9.354 22.297c-.099.18-.126.237-.264.482-.592 1.053-.627 1.125-.588 1.28.012.047.128.162.275.295.09-.168.139-.265.313-.575.289-.513.537-.967.553-1.008.019-.05-.064-.19-.264-.439-.009-.01-.017-.024-.025-.035zm11.152 1.94c-.059.042-.159.111-.164.12-.012.02.086.541.217 1.159.051.244.054.291.093.49.11-.078.143-.151.143-.252 0-.064-.106-.62-.236-1.238-.032-.15-.027-.148-.053-.28z" opacity=".1"/>
    </g>
</svg>
