<svg height="32" width="32" xmlns="http://www.w3.org/2000/svg"><rect height="28" opacity=".2" rx="8.4" width="28" x="2" y="3"/><rect fill="#029499" height="28" rx="8.4" width="28" x="2" y="2"/><path d="m12.299 8.09-2.599 1.5 1.918 3.322a6 6 0 0 0 -1.528 3.088h-4.09v3h4.35a6 6 0 0 0 1.636 2.451l-2.285 3.959 2.598 1.5 2.35-4.07a6 6 0 0 0 1.351.16 6 6 0 0 0 1.35-.162l2.35 4.072 2.598-1.5-2.285-3.959a6 6 0 0 0 1.635-2.451h4.352v-3h-4.086a6 6 0 0 0 -1.531-3.092l1.916-3.318-2.598-1.5-1.851 3.205a6 6 0 0 0 -1.85-.295 6 6 0 0 0 -1.848.299l-1.852-3.21zm3.701 4.91a4 4 0 0 1 4 4 4 4 0 0 1 -4 4 4 4 0 0 1 -4-4 4 4 0 0 1 4-4z" opacity=".2"/><g fill="#f4f4f7"><path d="m12.299 7.09-2.599 1.5 1.918 3.322a6 6 0 0 0 -1.528 3.088h-4.09v3h4.35a6 6 0 0 0 1.636 2.451l-2.285 3.96 2.598 1.5 2.35-4.071a6 6 0 0 0 1.351.16 6 6 0 0 0 1.35-.162l2.35 4.072 2.598-1.5-2.285-3.959a6 6 0 0 0 1.635-2.451h4.352v-3h-4.086a6 6 0 0 0 -1.531-3.092l1.916-3.318-2.598-1.5-1.851 3.205a6 6 0 0 0 -1.85-.295 6 6 0 0 0 -1.848.299l-1.852-3.21zm3.701 4.91a4 4 0 0 1 4 4 4 4 0 0 1 -4 4 4 4 0 0 1 -4-4 4 4 0 0 1 4-4z"/><path d="m10.4 2a8.382 8.382 0 0 0 -8.4 8.4v1c0-4.653 3.747-8.4 8.4-8.4h11.2c4.653 0 8.4 3.747 8.4 8.4v-1c0-4.653-3.747-8.4-8.4-8.4z" opacity=".2"/></g></svg>