<svg xmlns="http://www.w3.org/2000/svg" width="32" height="32" version="1"><rect fill="#4f4f4f" width="28" height="28" x="2" y="2" rx="1.5" ry="1.5"/><path fill="#fff" opacity=".1" d="M3.5 2C2.669 2 2 2.669 2 3.5v1C2 3.669 2.669 3 3.5 3h25c.831 0 1.5.669 1.5 1.5v-1c0-.831-.669-1.5-1.5-1.5h-25z"/><path opacity=".2" d="M2 28.5v1c0 .831.669 1.5 1.5 1.5h25c.831 0 1.5-.669 1.5-1.5v-1c0 .831-.669 1.5-1.5 1.5h-25c-.831 0-1.5-.669-1.5-1.5z"/><path fill="none" stroke="#000" stroke-linecap="round" stroke-linejoin="round" stroke-width="3" opacity=".2" d="M21.5 11.5v-2h-11V13l11 8v3.5h-11v-2"/><path fill="none" stroke="#ff5151" stroke-linecap="round" stroke-linejoin="round" stroke-width="3" d="M21.5 10.5v-2h-11V12l11 8v3.5h-11v-2"/></svg>