<svg height="32" width="32" xmlns="http://www.w3.org/2000/svg"><rect height="28" opacity=".2" rx="1.4" width="28" x="2" y="3"/><rect fill="#eb6416" height="28" rx="1.4" width="28" x="2" y="2"/><path d="m3.4 2c-.776 0-1.4.624-1.4 1.4v12.6h28v-12.6c0-.776-.624-1.4-1.4-1.4z" fill="#f4f4f7" opacity=".3"/><path d="m4 17h3.647l1.776-6 1.184 11 3.013-15 2.044 19 2.798-18 2.152 15 2.099-11 1.399 6h3.888" fill="none" opacity=".1" stroke="#000" stroke-linejoin="round" stroke-width="2"/><path d="m4 16h3.647l1.776-6 1.184 11 3.013-15 2.044 19 2.798-18 2.152 15 2.099-11 1.399 6h3.888" fill="none" stroke="#17191e" stroke-linejoin="round" stroke-width="2"/><path d="m3.4 2c-.775 0-1.4.625-1.4 1.4v1c0-.775.625-1.4 1.4-1.4h25.2c.775 0 1.4.625 1.4 1.4v-1c0-.775-.625-1.4-1.4-1.4z" fill="#f4f4f7" opacity=".2"/></svg>