<svg height="32" width="32" xmlns="http://www.w3.org/2000/svg"><rect height="26" opacity=".2" rx="8.4" transform="matrix(0 -1 -1 0 0 0)" width="26" x="-30" y="-29"/><rect fill="#81d547" height="26" rx="8.4" transform="matrix(0 -1 -1 0 0 0)" width="26" x="-29" y="-29"/><path d="m16.017 9c1.753.004 3.531.528 4.92 1.567.976 1.08-.884 2.236-1.722 1.183-2.522-1.465-6.079-.95-7.976 1.241a5.884 5.884 0 0 0 -1.572 3.995h1.667l-2.667 3.84-2.667-3.84h1.667c-.053-3.478 2.551-6.785 6.048-7.686a8.71 8.71 0 0 1 2.302-.3zm7.317 4.16 2.666 3.843h-1.667c.047 3.519-2.624 6.863-6.182 7.716-2.4.644-5.115.174-7.088-1.299-1.007-1.097.88-2.243 1.725-1.18 2.443 1.423 5.865.972 7.794-1.061 1.117-1.105 1.76-2.636 1.751-4.176h-1.667l2.667-3.84z" opacity=".2"/><path d="m16.017 8c1.753.004 3.531.529 4.92 1.567.976 1.08-.884 2.236-1.722 1.184-2.522-1.466-6.079-.95-7.976 1.24a5.884 5.884 0 0 0 -1.572 3.995h1.667l-2.667 3.84-2.667-3.84h1.667c-.053-3.477 2.551-6.786 6.048-7.686a8.71 8.71 0 0 1 2.302-.3zm7.317 4.161 2.666 3.841h-1.667c.047 3.519-2.624 6.864-6.182 7.717-2.4.643-5.115.174-7.088-1.3-1.007-1.097.88-2.242 1.725-1.18 2.443 1.424 5.865.972 7.794-1.061 1.117-1.105 1.76-2.636 1.751-4.176h-1.667l2.667-3.84z" fill="#fff"/><circle cx="24" cy="23" fill="#8561c5" r="8"/><path d="m28 19h-6v5.27a2 2 0 1 0 1 1.73v-5h4v3.269a2 2 0 1 0 1 1.73z" fill="#f4f4f7"/><path d="m31.979 23.424a8 8 0 0 1 -7.979 7.576 8 8 0 0 1 -7.979-7.424 8 8 0 0 0 -.021.424 8 8 0 0 0 8 8 8 8 0 0 0 8-8 8 8 0 0 0 -.021-.576z" opacity=".2"/><path d="m11.4 3a8.382 8.382 0 0 0 -8.4 8.4v1c0-4.653 3.747-8.4 8.4-8.4h9.2c4.653 0 8.4 3.747 8.4 8.4v-1c0-4.653-3.747-8.4-8.4-8.4z" fill="#f4f4f7" opacity=".2"/></svg>