<svg height="32" width="32" xmlns="http://www.w3.org/2000/svg"><rect height="28" opacity=".2" rx="1.6" width="22" x="5" y="3"/><rect fill="#4a1a3a" height="28" rx="1.6" width="22" x="5" y="2"/><path d="m8 7h14v1h-14z" opacity=".2"/><path d="m8 6h14v1h-14z" fill="#f4f4f7"/><path d="m10 9h12v1h-12z" opacity=".2"/><path d="m10 8h12v1h-12z" fill="#667b9e"/><path d="m8 12h14v1h-14z" opacity=".2"/><path d="m8 11h14v1h-14z" fill="#f4f4f7"/><path d="m10 14h12v1h-12z" opacity=".2"/><path d="m10 13h12v1h-12z" fill="#667b9e"/><path d="m5 23v5.4c0 .887.713 1.6 1.6 1.6h18.8c.887 0 1.6-.713 1.6-1.6v-5.4z" fill="#3b1530"/><path d="m8 17h14v1h-14z" opacity=".2"/><path d="m8 16h14v1h-14z" fill="#f4f4f7"/><path d="m10 19h12v1h-12z" opacity=".2"/><path d="m10 18h12v1h-12z" fill="#667b9e"/><circle cx="24" cy="24" opacity=".2" r="8"/><circle cx="24" cy="23" fill="#d38b2e" r="8"/><g fill="#f4f4f7"><path d="m20 21v1h8v-1zm0 3v1h8v-1z"/><path d="m6.6 2c-.887 0-1.6.713-1.6 1.6v1c0-.887.713-1.6 1.6-1.6h18.8c.887 0 1.6.713 1.6 1.6v-1c0-.887-.713-1.6-1.6-1.6z" opacity=".1"/></g></svg>