<svg height="32" width="32" xmlns="http://www.w3.org/2000/svg"><path d="m5 25v4.55c0 .803.654 1.45 1.467 1.45h19.066c.813 0 1.467-.647 1.467-1.45v-4.55z" opacity=".2"/><path d="m6.467 1c-.813 0-1.467.647-1.467 1.45v21.55h22v-21.55c0-.803-.654-1.45-1.467-1.45z" fill="#f4f4f7"/><path d="m5 24v4.55c0 .803.654 1.45 1.467 1.45h19.066c.813 0 1.467-.647 1.467-1.45v-4.55z" fill="#4f4f4f"/><path d="m7 6v2h2v-2zm2 2v2h2v-2zm2 2v2h-2v2h-2v3h18v-3h-2v-2h-2v-2h-5zm10 0h2v-2h-2zm2-2h2v-2h-2zm-16 11v5h18v-5h-9z" fill="#73ac05"/><path d="m11 15h2v2h-2z" opacity=".2"/><path d="m11 14h2v2h-2z" fill="#f4f4f7"/><path d="m19 15h2v2h-2z" opacity=".2"/><path d="m19 14h2v2h-2z" fill="#f4f4f7"/><path d="m5 24h22v1h-22z" opacity=".2"/><path d="m6.467 1c-.813 0-1.467.646-1.467 1.45v1c0-.805.654-1.45 1.467-1.45h19.066c.813 0 1.467.646 1.467 1.45v-1c0-.805-.654-1.45-1.467-1.45z" fill="#f4f4f7" opacity=".2"/></svg>