<svg xmlns="http://www.w3.org/2000/svg" width="32" height="32" version="1"><path fill="#8b9cbe" d="M15.053 30.831c-.095-.093-.173-.23-.173-.304 0-.098-.042-.117-.152-.07-.084.037-.49.082-.904.102l-.752.035-.138-.258c-.122-.23-.162-.25-.359-.177-.54.2-1.077.044-1.077-.312 0-.22 0-.22-.554-.164-.317.031-.654.018-.786-.03-.195-.073-.228-.129-.205-.36l.028-.274-.53-.042c-.62-.05-.835-.184-.76-.474.046-.18.023-.2-.24-.203-.361-.004-.585-.162-.672-.474-.054-.197-.107-.235-.292-.214-.353.041-.543-.31-.524-.969.015-.529-.026-.617-.207-.44-.051.05-.186.078-.299.062-.26-.036-.32-.449-.129-.912.153-.37.12-.43-.2-.369-.419.081-.52-.215-.304-.89.058-.177.045-.195-.1-.138-.346.137-.425.1-.452-.22a1.27 1.27 0 0 1 .154-.654c.186-.355.178-.373-.15-.347-.316.025-.327-.218-.031-.68.148-.233.27-.453.27-.489s-.097-.108-.216-.16c-.277-.123-.274-.306.008-.702.239-.335.22-.494-.06-.494-.363 0-.32-.462.09-.963.205-.251.248-.37.209-.583a.81.81 0 0 0-.214-.407c-.09-.077-.163-.212-.163-.3 0-.17.348-.529.672-.69.23-.116.246-.275.055-.559-.13-.192-.13-.224.004-.422.08-.117.273-.274.43-.347.158-.073.355-.244.438-.381.144-.238.144-.257-.006-.418-.248-.266-.023-.566.573-.762.618-.204.774-.349.624-.582-.217-.339.003-.556.72-.71.38-.081.478-.19.42-.468-.041-.205-.013-.26.186-.347.21-.093.23-.138.184-.403-.128-.74-.154-1.165-.075-1.213.046-.028.206-.006.354.048.148.055.291.078.318.053s.004-.336-.05-.69c-.055-.353-.074-.776-.042-.94.052-.272.082-.297.357-.297.347 0 .337.043.171-.717-.166-.763-.163-.854.032-1.043.316-.308.366-1.078.144-2.207-.183-.926-.139-1.428.124-1.428.09 0 .24.094.334.21.196.243.321.268.396.078.098-.248.054-.46-.198-.944-.277-.536-.53-1.294-.53-1.594 0-.3.199-.238.716.222.49.434.893 1.083 1.145 1.838.238.713.386.59.44-.362.036-.65.076-.797.217-.797.162 0 .345.517.524 1.488.161.87.177 1.17.124 2.32-.033.726-.032 1.407.003 1.513l.063.193.2-.244.199-.243.061.238c.034.131.042.83.018 1.554-.025.724-.027 1.363-.006 1.421.099.266.576.007.645-.349.061-.32.291-.354.686-.1.202.13.488.27.636.311.228.064.29.047.415-.114.136-.176.167-.18.434-.075.541.215.637.182.612-.21-.015-.228.023-.384.108-.453.075-.06.133-.253.137-.453.003-.192.035-.421.072-.511.042-.106-.036-.447-.223-.969-.475-1.325-.35-2.168.231-1.566.287.297.434.27.434-.076 0-.186-.185-.637-.52-1.273-.705-1.335-.7-1.672.018-1.229.493.304.97.851 1.412 1.623.484.842.604.855.542.057-.08-1.037.206-1.224.629-.41.413.798.522 1.347.615 3.12.047.904.121 1.678.164 1.72.047.045.14-.049.23-.233.292-.595.438-.251.515 1.211.065 1.226.058 1.206.347 1.078.204-.09.249-.08.394.094.09.108.163.3.163.43 0 .358.213.485.519.31.223-.129.26-.13.38-.013.074.072.158.271.187.8b9cbe.08.48.195.692.375.692.227 0 .342.159.408.562.084.51.164.602.367.424.378-.333.63.09.412.69a4.234 4.234 0 0 0-.134.406c0 .02.176.01.39-.02.366-.054.39-.045.39.135a.566.566 0 0 1-.13.333c-.203.218-.08.674.182.674.116 0 .244.074.298.172.076.14.052.247-.127.559-.276.479-.275.5.01.634.318.15.332.257.075.554-.266.307-.276.408-.047.466.195.05.239.384.071.547-.078.076-.065.139.057.27.132.142.143.207.06.382a.734.734 0 0 1-.317.309c-.249.11-.278.253-.085.409.102.082.12.199.076.495-.066.446-.165.598-.388.598-.242 0-.27.127-.08.362.297.367.147.69-.233.5-.199-.1-.375-.043-.375.12 0 .07.1.293.223.497.273.453.255.744-.05.783-.338.045-.384.148-.184.421.237.324.242.66.011.732-.222.068-.22.247.006.556.219.298.19.53-.072.566-.242.034-.245.113-.013.318.34.299.382.466.158.63-.178.131-.19.173-.097.37.228.487.069.967-.263.794-.199-.103-.182-.12-.311.32-.08.268-.163.37-.356.435-.159.054-.263.155-.28.274-.044.287-.287.398-.486.222-.23-.203-.258-.186-.324.195-.056.324-.232.588-.39.588-.04 0-.154-.099-.252-.22-.203-.25-.414-.222-.457.06a.449.449 0 0 1-.18.278c-.127.077-.19.049-.362-.16l-.209-.253-.25.232c-.277.256-.523.3-.6.106-.07-.179-.184-.159-.48.084-.141.115-.313.21-.383.21s-.163-.095-.208-.21c-.046-.117-.098-.212-.118-.212s-.26.097-.535.216c-.586.252-.916.243-1.038-.027-.056-.126-.13-.172-.216-.136-.659.278-.872.323-1.043.219-.143-.087-.27-.083-.685.022-.669.168-.84.162-1.048-.04z"/><path opacity=".2" d="M18.461 23.016a1.687 1.687 0 0 0-.344.032c-.961.19-2.103.886-2.714 1.656-.451.568-.699 1.23-.76 2.03l-.043.595.455.483c.768.817 1.573 1.077 3.207 1.036.728-.019.982-.06 1.27-.204.484-.242.694-.523.815-1.091.128-.6.062-2.521-.107-3.104-.248-.854-.983-1.425-1.779-1.433zm.88 1.986c.19 0 .221.037.221.261 0 .186-.048.273-.166.303-.153.04-.156.064-.043.327.15.347.16 1.213.019 1.515-.192.41-.9.614-1.5.433-.417-.125-.56-.365-.563-.936-.003-1.02.938-1.903 2.031-1.903z"/><path fill="#929292" d="M18.461 22.016a1.687 1.687 0 0 0-.344.032c-.961.19-2.103.886-2.714 1.656-.451.568-.699 1.23-.76 2.03l-.043.595.455.483c.768.817 1.573 1.077 3.207 1.036.728-.019.982-.06 1.27-.204.484-.242.694-.523.815-1.091.128-.6.062-2.521-.107-3.104-.248-.854-.983-1.425-1.779-1.433zm.88 1.986c.19 0 .221.037.221.261 0 .186-.048.273-.166.303-.153.04-.156.064-.043.327.15.347.16 1.213.019 1.515-.192.41-.9.614-1.5.433-.417-.125-.56-.365-.563-.936-.003-1.02.938-1.903 2.031-1.903z"/><path fill="#fff" d="M18.725 26.354c.601-.266.5-1.424-.125-1.424-.3 0-.772.525-.77.856.001.322.057.426.302.56.22.123.331.124.593.008z"/><path opacity=".2" d="M24.44 28.173c.247-.182.348-.98.3-2.369-.044-1.319-.16-1.853-.437-2.015-.13-.076-.192-.05-.36.15-.302.366-.814 1.74-.824 2.217-.001.054.112-.012.251-.148.18-.173.339-.246.543-.246.263 0 .307.038.493.433.235.498.225 1.166-.021 1.405-.295.287-1.197.08-1.294-.298-.022-.082-.026-.022-.01.132.035.356.165.508.6.7.412.182.555.19.759.039z"/><path fill="#929292" d="M24.44 27.173c.247-.182.348-.98.3-2.369-.044-1.319-.16-1.853-.437-2.015-.13-.076-.192-.05-.36.15-.302.366-.814 1.74-.824 2.217-.001.054.112-.012.251-.148.18-.173.339-.246.543-.246.263 0 .307.038.493.433.235.498.225 1.166-.021 1.405-.295.287-1.197.08-1.294-.298-.022-.082-.026-.022-.01.132.035.356.165.508.6.7.412.182.555.19.759.039z"/><path fill="#fff" d="M24.108 26.231c.194-.189.168-.496-.064-.759-.26-.293-.547-.223-.652.16-.113.412.033.731.334.731a.63.63 0 0 0 .382-.132z"/><path fill="#fff" opacity=".1" d="M10.969 1.01c-.114-.036-.164.024-.164.174 0 .175.095.506.222.859.115.053.268.164.493.363.489.435.894 1.084 1.146 1.838.238.713.386.59.439-.363.037-.65.077-.797.217-.797.163 0 .344.518.524 1.488.073.397.11.667.131.961.027-.804.007-1.215-.131-1.96-.18-.971-.361-1.489-.524-1.489-.14 0-.18.148-.217.797-.053.952-.201 1.076-.439.363-.252-.754-.657-1.403-1.146-1.838-.259-.23-.437-.36-.551-.396zm6.818 2.064c-.238-.026-.136.353.24 1.11.059.028.093.029.166.074.494.304.969.85 1.412 1.623.484.842.604.854.541.057a2.96 2.96 0 0 1 .006-.536c-.037.259-.195.092-.547-.521-.443-.772-.918-1.319-1.412-1.623-.179-.11-.315-.174-.406-.184zm-6.984.36c-.232 0-.284.41-.17 1.138.039-.084.093-.138.17-.138.089 0 .24.095.334.21.196.243.321.266.396.077.094-.238.044-.454-.181-.899a.511.511 0 0 1-.215-.178c-.094-.115-.245-.21-.334-.21zm9.566.591c-.18-.053-.273.264-.223.912.013.168.013.278.008.373.069-.439.307-.386.621.22.414.796.523 1.344.616 3.116.047.904.121 1.679.164 1.721.046.046.14-.048.23-.232.292-.595.439-.252.516 1.211.064 1.225.058 1.206.347 1.078.204-.09.248-.08.393.094.09.107.162.301.162.429 0 .359.214.485.52.309.223-.128.26-.129.381-.012.073.072.156.271.185.8b9cbe.08.481.196.693.377.693.227 0 .342.157.408.56.084.51.164.603.367.424.135-.118.251-.136.338-.09.025-.075.033-.109.073-.218.218-.601-.033-1.024-.411-.692-.203.179-.283.086-.367-.424-.066-.403-.181-.56-.408-.56-.181 0-.297-.212-.377-.693-.029-.173-.112-.372-.185-.8b9cbe-.121-.117-.158-.116-.381.012-.306.176-.52.05-.52-.309a.782.782 0 0 0-.162-.429c-.145-.174-.189-.184-.393-.094-.289.128-.283.147-.347-1.078-.077-1.463-.224-1.806-.516-1.211-.09.184-.184.278-.23.232-.043-.042-.117-.817-.164-1.72-.093-1.773-.202-2.321-.616-3.118-.158-.305-.298-.472-.406-.504zm-2.455 1.616c-.19.033-.214.452-.08 1.056.086-.094.228-.068.428.139.286.296.433.27.433-.076 0-.132-.123-.435-.297-.805a1.051 1.051 0 0 1-.136-.12c-.146-.15-.262-.21-.348-.194zm-7.144.843c-.043.255-.113.464-.237.584-.194.19-.196.281-.031 1.04.012-.014.017-.026.031-.04.253-.246.327-.799.237-1.584zm3.666.627-.202.245-.199.242-.062-.192c-.007-.02-.006-.139-.01-.195-.019.586-.019 1.106.01 1.195l.062.192.199-.243.202-.244.06.239c.028.108.025.708.014 1.287 0-.26-.009-.36.004-.733.024-.723.016-1.423-.018-1.554l-.06-.239zm-3.981 1.715a3.663 3.663 0 0 1-.123.002c-.274 0-.305.026-.357.299-.03.158-.013.557.037.902.043-.149.099-.2.32-.2.347 0 .336.042.17-.718-.032-.148-.028-.182-.047-.285zm7.725.067c-.006.195-.062.382-.135.441-.086.069-.124.225-.109.453.024.392-.07.426-.612.211-.267-.106-.297-.101-.433.074-.125.161-.189.179-.416.116a3.019 3.019 0 0 1-.635-.313c-.395-.254-.626-.22-.688.1-.067.352-.536.608-.64.355-.008.44-.019.954-.004.994.098.266.576.006.644-.349.062-.321.293-.354.688-.1.202.13.487.271.635.313.227.063.291.045.416-.116.136-.175.166-.18.433-.074.542.215.636.181.612-.211-.015-.228.023-.384.109-.453.075-.061.133-.253.137-.453.003-.191.034-.42.07-.51.026-.065-.009-.247-.072-.478zm-8.647 1.755c-.064-.008-.115-.008-.139.006-.069.042-.045.42.045.998a.717.717 0 0 1 .309.051c.148.055.292.079.318.053.027-.026.004-.336-.05-.69-.017-.105-.022-.214-.032-.324a.566.566 0 0 1-.236-.039 1.094 1.094 0 0 0-.215-.055zm-.152 1.553c-.03.022-.043.045-.096.069-.199.088-.228.142-.185.347.057.278-.041.387-.42.469-.718.154-.939.37-.721.709.15.233-.006.378-.625.582-.595.196-.82.497-.572.764.15.161.15.178.006.416-.084.136-.28.309-.438.382-.158.073-.35.228-.43.346-.133.198-.133.23-.004.422.192.284.175.443-.056.559-.324.161-.672.52-.672.691 0 .088.074.222.164.299a.722.722 0 0 1 .162.267c.11-.096.224-.196.346-.257.23-.116.248-.275.056-.559-.129-.192-.129-.224.004-.422.08-.118.272-.273.43-.346.158-.073.354-.246.438-.382.144-.238.144-.255-.006-.416-.248-.267-.023-.568.572-.764.619-.204.775-.349.625-.582-.218-.339.003-.555.72-.709.38-.082.478-.191.42-.469-.042-.205-.013-.259.186-.347.21-.093.23-.137.184-.403a8.457 8.457 0 0 1-.088-.666zm17.06 3.221c-.051-.018-.15-.007-.332.019-.121.018-.15.01-.22.012.049.147.054.351-.037.604-.074.203-.133.386-.133.406s.176.01.39-.022c.126-.018.17-.014.229-.013-.086-.153-.1-.379.029-.518a.562.562 0 0 0 .13-.332c0-.09-.004-.138-.056-.156zm.055 1.139.002.017a.562.562 0 0 1-.131.332c-.203.218-.078.674.184.674.006 0 .013.005.019.006.035-.071.084-.159.15-.276.18-.311.204-.419.128-.558a.362.362 0 0 0-.297-.172c-.021 0-.036-.018-.055-.023zm.359 1.464a1.401 1.401 0 0 1-.134.289c-.23.399-.256.483-.098.577-.051-.07.003-.178.184-.387.212-.246.226-.361.048-.479zM5.33 19.254c-.403.498-.443.955-.082.955.043 0 .069.012.1.02.19-.237.235-.359.197-.565a.813.813 0 0 0-.215-.41zm21.59.098c-.03.046-.062.093-.113.152-.266.307-.276.407-.047.465.095.024.152.117.168.224.005-.008.015-.017.019-.025.083-.176.072-.241-.06-.383-.122-.131-.135-.193-.057-.269a.341.341 0 0 0 .09-.164zm-21.824 1.81c.001.107.068.182.203.242.07.032.09.063.129.096.092-.195.035-.291-.18-.291a.258.258 0 0 1-.152-.047zm21.49.342c-.171.092-.203.203-.094.324.04-.068.067-.195.094-.324zm-21.453.76c-.158.32-.118.491.144.47.064-.005.106-.004.147-.004.024-.047.092-.152.092-.164 0-.035-.098-.109-.217-.162a.34.34 0 0 1-.166-.14zm.332 1.465a1.277 1.277 0 0 0-.188.005h-.005c.017.206.065.287.183.287.107-.207.129-.283.01-.292zm20.312.066c-.133-.018-.232.045-.232.168 0 .04.078.178.13.289.017-.003.025-.007.044-.01.204-.026.267-.174.213-.4-.005-.002-.007 0-.012-.002a.453.453 0 0 0-.143-.045zM5.85 24.938c-.001-.002-.007.002-.008.001.003.002.003.007.006.008 0-.001.003-.008.002-.009zm19.836.312c-.205.032-.286.094-.256.211a.255.255 0 0 1 .115-.066c.073-.023.115-.078.14-.145zm-19.37.713c-.022-.001-.062.006-.092.01.018.12.076.197.152.244.056-.167.049-.248-.06-.254zm19.368.293c-.027.064-.068.117-.14.139-.088.027-.131.078-.148.142.026-.007.046-.014.083-.019.159-.023.222-.124.205-.262zm-.184.611c.018.029.028.053.05.084.219.299.19.53-.071.567-.242.033-.245.112-.012.316.036.032.056.057.086.086-.011-.03-.012-.056-.026-.086-.092-.197-.081-.238.098-.369.214-.157.177-.322-.125-.598zm.076 1.651c-.047.041-.092.084-.097.125.043-.023.07-.073.097-.125z"/><path opacity=".2" d="M10.969 2.01c-.114-.036-.164.024-.164.174 0 .3.251 1.058.529 1.593.01.02.008.027.018.045.076.028.14.004.181-.101.098-.248.052-.46-.199-.944a6.414 6.414 0 0 1-.307-.734c-.017-.008-.043-.029-.058-.033zm6.818 2.064c-.271-.03-.142.411.387 1.412.098.185.153.317.224.47.193.145.297.087.297-.196 0-.186-.185-.638-.521-1.274-.066-.124-.093-.196-.147-.302-.084-.042-.186-.104-.24-.11zm-7.154.498c-.095.204-.084.635.045 1.29.044.226.069.426.092.622.065-.398.044-.933-.092-1.623-.022-.109-.03-.192-.045-.289zm9.521.738c-.003.024.001.066-.002.092.004-.022.001-.063.002-.092zm-6.177.223c-.005.133.001.196-.006.36a12.989 12.989 0 0 0-.008 1.318c.003-.113.002-.201.008-.318.028-.626.03-1.008.006-1.36zm3.857 1.164c-.165.182-.117.835.195 1.705.072.2.112.347.151.49l.002-.011c.003-.192.034-.42.07-.51.042-.106-.036-.447-.223-.969a5.521 5.521 0 0 1-.195-.705zm-7.332 1.41c-.123.132-.12.329-.047.72.202-.007.186-.075.047-.716v-.004zm4.008 1.53c-.001.244-.013.66-.002.687l.004.006c.003-.188-.006-.209.002-.426.004-.124-.007-.147-.004-.267zm-4.498.392c-.011.036-.027.045-.037.098-.023.115-.013.36.01.615.02 0 .075.02.081.014.027-.026.004-.336-.05-.69l-.004-.037zm-.573 1.623c-.013.002-.037-.002-.045.002-.048.03-.043.247-.013.547.09-.064.122-.135.088-.334-.016-.092-.017-.133-.03-.215zm16.34 3.623c-.02.064-.06.177-.06.186s.114-.006.17-.008c-.025-.078-.054-.148-.11-.178zm.662 1.147c-.016-.006-.077.006-.103.006a.267.267 0 0 0 .158.133c0-.077-.007-.123-.055-.139zm.13 1.168c-.107.22-.056.257.16.36.054.025.088.051.124.075.034-.105.037-.188-.007-.269a.358.358 0 0 0-.278-.166zm-21.077.933c-.18.16-.326.328-.326.434 0 .088.073.22.162.297l.006-.008c.206-.25.248-.37.21-.582-.01-.045-.034-.093-.053-.14zm21.13.368c.024.032.064.06.137.078.14.036.2.221.16.383.118-.185.065-.282-.19-.403-.048-.022-.076-.04-.108-.058zm.305 1.302a.737.737 0 0 1-.297.284c-.25.11-.28.254-.087.41.102.082.12.197.076.494-.008.06-.024.074-.034.123.016-.009.026-.019.045-.027a.737.737 0 0 0 .316-.309c.083-.176.072-.24-.06-.383-.122-.13-.135-.193-.057-.269a.381.381 0 0 0 .098-.323zm-21.58.036-.012.017c-.336.411-.42.791-.24.916-.002-.11.067-.257.21-.459.202-.283.21-.432.042-.474zm.08 1.271a1.3 1.3 0 0 1-.122.203c-.194.273-.244.44-.173.561.032-.066.06-.13.11-.209.15-.233.272-.453.272-.489 0-.014-.06-.043-.087-.066zm21.064.328a.281.281 0 0 1-.26.152c-.242 0-.27.127-.08.362.298.367.148.688-.232.498-.2-.1-.375-.04-.375.123 0 .07.1.29.223.494.09.15.137.274.164.385.369.176.514-.137.22-.5-.19-.235-.161-.362.08-.362.222 0 .322-.154.388-.599.044-.297.026-.412-.076-.494-.025-.02-.035-.039-.053-.059zm-21.027.901c-.01 0-.03.002-.042.001-.047.094-.08.17-.18.325-.292.458-.28.7.028.68-.016-.193.043-.44.154-.653.14-.266.171-.343.04-.353zm.384 1.21c-.014-.02-.053-.013-.125.016a.721.721 0 0 1-.27.066c-.01.023-.015.035-.029.061-.111.212-.17.46-.154.652.028.32.107.36.453.221.068-.027.101-.03.117-.016-.155-.104-.168-.378-.018-.845.028-.089.04-.137.025-.156zm19.826.313c-.29.048-.33.152-.14.41.161.221.206.8b9cbe.15.588.013-.002.02-.006.033-.008.304-.039.322-.332.05-.785-.052-.084-.056-.126-.093-.205zm-19.828.695c.01.022.003.064-.023.147-.217.675-.115.972.304.89.041-.008.065-.008.096-.01-.025-.168.007-.387.104-.62.152-.372.12-.432-.2-.37a.377.377 0 0 1-.28-.037zm19.582.514c-.092.093-.053.252.121.49a.652.652 0 0 1 .133.305c.06-.144.015-.37-.149-.594a.598.598 0 0 1-.105-.2zm-18.563.662a.298.298 0 0 0-.111.078c-.052.05-.186.08-.299.065-.033-.005-.053-.033-.08-.049-.014.043-.025.08-.049.137-.19.462-.132.876.13.912.112.015.246-.015.298-.065.18-.175.222-.087.207.442-.019.66.17 1.01.523.968.186-.02.239.02.293.215.087.313.311.47.672.473.263.002.285.023.239.205-.075.29.141.423.761.473l.53.043-.028.273c-.023.231.01.287.205.36.133.048.47.062.785.031.554-.056.555-.056.555.164 0 .356.538.512 1.078.312.197-.073.235-.054.358.176l.138.26.752-.037c.414-.02.821-.066.905-.102.11-.048.15-.028.15.07 0 .075.078.212.174.305.208.202.38.208 1.05.04.414-.106.54-.109.682-.022.171.103.385.06 1.043-.219.086-.036.16.011.217.137.122.27.452.277 1.04.025.274-.118.515-.215.534-.215s.072.095.117.211c.046.116.138.211.207.211s.241-.095.383-.21c.296-.243.41-.263.481-.085.076.194.323.151.6-.105l.251-.233.207.254c.172.208.236.237.362.16a.446.446 0 0 0 .181-.279c.043-.282.255-.309.457-.059.098.122.211.22.252.22.16 0 .335-.265.391-.589.066-.38.092-.398.322-.195.2.176.443.064.486-.223.018-.118.123-.219.282-.273.193-.066.276-.168.355-.436.13-.439.112-.42.311-.318.331.173.491-.309.263-.795-.042-.09-.056-.143-.048-.19-.059.03-.13.03-.215-.015-.199-.103-.18-.12-.31.318-.08.268-.163.37-.356.436-.159.054-.264.155-.282.273-.043.287-.286.4-.486.223-.23-.203-.256-.186-.322.195-.056.324-.232.588-.39.588-.042 0-.155-.097-.253-.219-.202-.25-.414-.223-.457.06a.446.446 0 0 1-.18.278c-.127.077-.19.048-.363-.16l-.207-.254-.252.233c-.276.256-.523.3-.599.105-.07-.178-.185-.158-.48.084-.143.116-.315.211-.384.211s-.16-.095-.207-.21c-.045-.117-.098-.212-.117-.212s-.26.097-.535.215c-.587.252-.917.245-1.039-.025-.057-.126-.13-.173-.217-.137-.658.278-.872.322-1.043.22-.143-.088-.268-.085-.683.02-.669.17-.84.163-1.049-.039-.096-.093-.174-.23-.174-.305 0-.098-.04-.118-.15-.07-.084.036-.49.082-.905.102l-.752.037-.138-.26c-.123-.23-.16-.249-.358-.176-.54.2-1.078.044-1.078-.312 0-.22 0-.22-.555-.164-.316.031-.652.017-.785-.032-.197-.072-.23-.128-.207-.359l.028-.273-.53-.043c-.62-.05-.836-.184-.761-.473.047-.182.025-.203-.238-.205-.362-.003-.586-.16-.672-.473-.055-.196-.108-.236-.293-.215-.353.041-.543-.309-.524-.968.012-.397-.008-.545-.095-.52zm18.53.414c-.145.042-.128.123.07.297.014.012.02.021.033.033-.09-.14-.124-.25-.104-.33zm.156 1.383c.09.24.091.46.023.598.021-.018.02-.032.05-.053.2-.147.173-.302-.073-.545z"/></svg>