<svg xmlns="http://www.w3.org/2000/svg" width="32" height="32"><rect style="opacity:.2" width="28" height="28" x="2" y="3" rx="2.1" ry="2.1"/><rect style="fill:#4d5a98" width="28" height="28" x="2" y="2" rx="2.1" ry="2.1"/><path style="opacity:.1" d="M6.055 25.864c-.13-.242-.021-.93.23-1.465.27-.57.845-1.143 1.748-1.739 1.249-.825 4.108-3.538 6.042-5.732.366-.416.427-.527.39-.712-.04-.198.069-.336 1.132-1.444.646-.673 1.162-1.264 1.146-1.311-.016-.048-.114-.08-.217-.071l-1.778.143c-1.584.127-1.594.13-2.039.398-.246.15-.508.26-.582.245-.24-.045-.196-.322.095-.605.268-.26.275-.281.275-.868 0-.557.015-.613.204-.763.304-.24.461-.203.662.156.19.339.237.348.74.142.204-.083.282-.083.439.001.172.093.408.03 2.469-.656 1.253-.418 2.403-.823 2.557-.9.345-.173.609-.482 1.157-1.355.336-.535.532-.756.922-1.035.471-.338.5-.348.602-.21.068.095.106.363.106.76v.614l.473.455c.525.506.523.493.171 1.194-.129.257-.221.642-.29 1.206l-.101.829.496 2.1c.272 1.156.584 2.487.693 2.957.108.471.23.936.27 1.033l.072.177.318-.163c.555-.284.744.011.285.446-.37.35-1.61 1.269-1.904 1.41-.226.11-.266.11-.37.005-.106-.105-.093-.15.117-.414.13-.164.236-.322.236-.352 0-.091-2.533-4.373-2.809-4.747-.214-.29-.308-.356-.544-.375-.388-.033-.705.143-1.986 1.102-1.24.93-1.301.966-1.589.965-.263-.001-.517.192-1.713 1.3-2.34 2.168-4.037 4.026-4.594 5.033-.789 1.424-1.717 2.126-3.119 2.358-.28.047-.335.032-.412-.112z"/><path style="fill:#17191e" d="M6.055 24.864c-.13-.242-.021-.93.23-1.465.27-.57.845-1.143 1.748-1.739 1.249-.825 4.108-3.538 6.042-5.732.366-.416.427-.527.39-.712-.04-.198.069-.336 1.132-1.444.646-.673 1.162-1.264 1.146-1.311-.016-.048-.114-.08-.217-.071l-1.778.143c-1.584.127-1.594.13-2.039.398-.246.15-.508.26-.582.245-.24-.045-.196-.322.095-.605.268-.26.275-.281.275-.868 0-.557.015-.613.204-.763.304-.24.461-.203.662.156.19.339.237.348.74.142.204-.083.282-.083.439.001.172.093.408.03 2.469-.656 1.253-.418 2.403-.823 2.557-.9.345-.173.609-.482 1.157-1.355.336-.535.532-.756.922-1.035.471-.338.5-.348.602-.21.068.095.106.363.106.76v.614l.473.455c.525.506.523.493.171 1.194-.129.257-.221.642-.29 1.206l-.101.829.496 2.1c.272 1.156.584 2.487.693 2.957.108.471.23.936.27 1.033l.072.177.318-.163c.555-.284.744.011.285.446-.37.35-1.61 1.269-1.904 1.41-.226.11-.266.11-.37.005-.106-.105-.093-.15.117-.414.13-.164.236-.322.236-.352 0-.091-2.533-4.373-2.809-4.747-.214-.29-.308-.356-.544-.375-.388-.033-.705.143-1.986 1.102-1.24.93-1.301.966-1.589.965-.263-.001-.517.192-1.713 1.3-2.34 2.168-4.037 4.026-4.594 5.033-.789 1.424-1.717 2.126-3.119 2.358-.28.047-.335.032-.412-.112z"/><path style="fill:#f44336" d="m14.463 15.201.002.015c.037.185-.024.296-.39.712a54.82 54.82 0 0 1-3.06 3.17c.222.249.507.566.761.839a56.45 56.45 0 0 1 2.404-2.352c.902-.836 1.268-1.15 1.507-1.255-.404-.396-.861-.807-1.224-1.129zM22.641 12.283c-.577.454-1.196 1.082-1.62 1.507l.24.564c.292.687.294.756.036 1.026l-.203.213.285.51c.157.282.32.512.361.512.043 0 .165-.058.272-.129.234-.153.263-.129.563.478l.23.465-.151.298c-.15.293-.15.303-.006.546.128.216.183.245.431.225.258-.02.297.003.416.253.146.309.268.343.476.134.103-.103.188-.151.117-.6l-.022-.054c-.04-.097-.16-.562-.27-1.033-.108-.47-.42-1.801-.692-2.956zM18.867 9.946c-.482.171-1.14.398-1.856.637-1.578.525-2.085.685-2.314.69l-.735.237-1.084.712.543-.06-.152.218.729-.035.32-.338a5.59 5.59 0 0 1 .73-.1c.096-.007-.299.378-.203.373.268-.012.553-.028.847-.045.156-.01.541-.512.696-.555.246-.069.5-.065.756-.024.58-.17 1.652-1.613 1.723-1.71z"/><path style="fill:#f4f4f7;opacity:.1" d="M4.1 2C2.936 2 2 2.936 2 4.1v1C2 3.936 2.936 3 4.1 3h23.8c1.164 0 2.1.936 2.1 2.1v-1c0-1.164-.936-2.1-2.1-2.1H4.1z"/></svg>