<svg height="32" width="32" xmlns="http://www.w3.org/2000/svg" xmlns:xlink="http://www.w3.org/1999/xlink"><linearGradient id="a"><stop offset="0" stop-color="#bc967a"/><stop offset="1" stop-color="#ac7f5c"/></linearGradient><linearGradient id="b" gradientTransform="matrix(.71792 0 0 .70938 -1.25 -.888)" gradientUnits="userSpaceOnUse" x1="31.481" x2="29.742" xlink:href="#a" y1="17.359" y2="16.8"/><linearGradient id="c" gradientTransform="matrix(.71792 0 0 .70938 -1.25 -.888)" gradientUnits="userSpaceOnUse" x1="22.864" x2="24.858" xlink:href="#a" y1="14.263" y2="15.577"/><rect height="28" opacity=".2" rx="2.1" width="28" x="2" y="3"/><rect fill="#e4d811" height="28" rx="2.1" width="28" x="2" y="2"/><path d="m11.41 3-.773 4.791c-.333.074-.605.513-.803.885-.045.084-.105.348-.154.53h-.008l-.002.03c-.007.025-.015.066-.022.084.006 0 .016.003.022.002v.01c-.035.006-.092-.005-.117.006-.325.135-.65.477-1.02.879 0 0-.42.075-.562.217-.089.088-.135.351-.135.351-.217.114-.337.091-.352.438l-.113.308-.103.717c-.29.526-.46 1.133-.27 1.979l-1.525 4.873c-.47.042-1.095 4.52.937 5.207 0 0 .367.385 1.643-.373.66-.71 1.66-1.351 2.51-2.295.454-.94.405-.17.67.353-.227-.437.024.542-.223 1.04-.129 1.146-.277 2.085-.438 3.204-.301.588-.116.74.106.477.027.432-.346.296-.182.648.024.907-1.148 2.267-.101 2.86.409.156.196.436.06.779h12.225c-.06-.298-.134-.757-.194-1.107.563-1.068.428-2.076.178-3.229.746.154.609 1.246.55 2.014a5.71 5.71 0 0 0 -.523 1.988c.117-.442.868-1.107 1.348-.518.035.242-.172.405-.287.637-.112.214.082.215.082.215h2.51c.836 0 .363-.751 1.027-1.281.246-.741.254-1.612.318-2.422.105-.849-.565-.49-.044-.936-.638-.084.451-.148-.188-.763.89-.483-.312-.82.328-1.2-.287-1.24-.236-.712-.355-2.093.457-.297.8-.949.431-1.623-.587.036-.449-1.003-.63-.543-.11-.04-.091-.259-.006-.516.014-.005.023-.014.037-.02.007.067.026.185.066.288l.05.074c-.08-.335-.104-.377-.112-.363.748-.3.558-1.526-.041-1.78-.246-.06-.386-.27-.516-.523a.21.21 0 0 1 -.037-.074c-.021-.044-.047-.087-.069-.133-.313-.405-.32-.514-.113-.227-.246-.494-.602-1.035-1.53-1.267-.02-.127.716.372-.01-.11.043.03-.091-.05-.136-.072.005 0 .01.003 0 .018-.101.058-.03-.006-.002-.018-.161-.084-.617-.346-.793-.52-.239-.263-.096.037-.261-.57.11-1.034.208-2.32-.844-2.912-.316-.06-.67-.39-.67-.39-.132-.073-.27-.128-.402-.196.027-.264.075-.534.138-.86.08-.406-.125-.418-.029-1.677.01-.138-.01-.273-.023-.408l.01-.028c-.003-.023-.013-.046-.016-.07a2.486 2.486 0 0 0 -.082-.351c-.023-.077-.043-.152-.072-.227a3.075 3.075 0 0 0 -.492-.828 3.5 3.5 0 0 0 -.204-.223 3.66 3.66 0 0 0 -.238-.228 3.815 3.815 0 0 0 -.254-.196c-.088-.063-.172-.127-.266-.183-.117-.07-.24-.13-.365-.188-.072-.033-.14-.07-.215-.1a3.766 3.766 0 0 0 -.447-.136c-.068-.018-.134-.043-.203-.057a3.473 3.473 0 0 0 -.67-.068c-1.884 0-3.414 1.384-3.414 3.092 0 .24.033.57.084.933.017.13.03.243.055.383l.006.03c.014.083.03.167.048.253-.009.017-.02.02-.029.04-.018.094-.03.188-.043.283-1.469.32-2.292 1.34-2.908 2.306a4.135 4.135 0 0 1 -.211.618c-.502.244-.605.087-.889.511-.107.174-.327.355-.533.203-.369-.197-.852.697-1.064 1.026a.493.493 0 0 1 .168.67c-.308.043-.344.06-.428-.073l-.299-.007-.004.082.01-.536.287-.843c.72-.415.864-.609.996-.797.448-.335.762-.939 1.127-1.44-.04-.166-.036-.369-.164-.468-.133-.105-.23-.242-.363-.319-.009-.005-.017 0-.026-.004.009.004.017-.003.026.002.032.02.06.05.09.075h.246c-.062-.527.101-.842.558-.881l1.07-7.139zm-.94 6.482h.003a.126.126 0 0 1 .054.065.13.13 0 0 0 -.056-.065zm-.52.409c.006.002.009.012.015.015a.187.187 0 0 0 -.05-.013c.01 0 .023-.006.034-.002zm-.3.107-.002.018c0-.002-.01-.009-.011-.01-.001-.002.013-.006.013-.008zm1.153.004a.87.87 0 0 1 .158.385c.005.049 0 .085-.016.103h-.002c.016-.018.023-.054.018-.103a.87.87 0 0 0 -.158-.385zm-1.116.045h.014l.004.014c-.003-.004-.015-.011-.017-.014zm.348.277c.176.132.379.278.393.31v.003c-.014-.034-.203-.173-.393-.313zm.62.608c.004-.002.009 0 .013 0-.018.005-.034.014-.05.021.013-.006.021-.016.036-.021zm-.151.017c0 .023.006.053 0 .069.005-.005.015-.01.021-.014-.036.032-.083.077-.05.057.028-.017.028-.065.029-.112z" opacity=".1"/><ellipse cx="17.893" cy="12.901" fill="#876044" rx="4.352" ry="2.877"/><path d="m7.267 11.248.104-.716.113-.309c.014-.346.135-.324.351-.438 0 0 .048-.262.136-.35.143-.143.563-.218.563-.218.37-.402.694-.743 1.02-.878.174-.073.604-.027.917.144.109.06.058.247.15.321.29.238.386.613.323.687-.15.174-.771-.103-.896-.495-.076-.24-.43-.027-.412.01.037.075.764.563.792.63.09.216.122.38.047.425-.094.057.167-.231.371-.114.134.076.23.214.363.319.127.1.124.302.163.468-.365.501-.678 1.106-1.126 1.44-.132.189-.276.382-.996.797l-.287.843-.06 3.436-.126 1.695c-.785.563-4.472.85-3.304-.845l1.525-4.874c-.19-.846-.021-1.453.27-1.978z" fill="#ac7f5c"/><path d="m8.13 11.068c.07-.1.12-.207.381-.26.199.074.41.2.563.087.278.687.563.545.563.545.197-.13.101-.218.101-.218s.172.21.356.052c.107-.092.017-.497.017-.497s.208.046.268.023c.116-.045.205-.21.215-.17.083.35-.922 1.562-1.762 2.32 0 0-.12.08-.246.06l-.362-.188c-.235-.12-.094-.31-.149-.514z" fill="#413c2d"/><path d="m14.938 11.859-3.284 18.14h9.799l-.066-16.649c-2.032 1.824-5.678 2.694-6.449-1.491z" fill="#35363c"/><path d="m17.153 8.694a9.066 9.066 0 0 0 -1.917.29c-1.545.29-2.391 1.345-3.024 2.336a4.13 4.13 0 0 1 -.21.617c-.502.245-.605.088-.89.512-.106.174-.326.355-.532.204-.37-.198-.851.697-1.064 1.025a.492.492 0 0 1 .167.67c-.307.043-.343.06-.427-.073l-.3-.007-.159 3.656c-.043.703-.438 1.487-2.238 1.43-.84-.027-1.482-.477-1.086-1.254-.469.042-1.095 4.519.937 5.206 0 0 .367.387 1.643-.372.66-.708 1.66-1.35 2.509-2.295.454-.94.406-.168.67.354-.226-.437.025.54-.223 1.038-.129 1.146-.277 2.086-.437 3.206-.302.588-.117.74.105.477.027.431-.345.295-.18.648.023.907-1.15 2.266-.103 2.859.41.156.197.436.061.779h2.175l3.071-12.94-1.06-1.387.27-3.291c.134-1.633 4.816-.485 6.493-.06-.293 1.375-1.194 2.283-2.445 2.657a3.055 3.055 0 0 1 -.659.11c-1.164 4.455-1.718 9.25-.728 14.91h5.107c-.06-.297-.132-.756-.192-1.106.563-1.068.427-2.075.177-3.228.746.154.608 1.244.55 2.012a5.713 5.713 0 0 0 -.522 1.99c.116-.443.867-1.109 1.346-.519.036.242-.172.405-.287.637-.112.214.084.215.084.215h2.508c.837 0 .364-.751 1.029-1.281.245-.74.254-1.611.318-2.421.104-.849-.567-.49-.046-.937-.638-.084.452-.148-.188-.763.89-.482-.312-.82.328-1.199-.287-1.24-.236-.713-.355-2.094.457-.297.8-.949.432-1.623-.587.036-.449-1.002-.63-.543-.11-.04-.092-.258-.007-.515.015-.005.024-.015.038-.02.007.066.027.184.067.286l.05.075c-.08-.335-.106-.376-.114-.363.748-.3.56-1.526-.04-1.779-.245-.06-.385-.271-.515-.524a.204.204 0 0 1 -.039-.073c-.02-.044-.045-.089-.067-.134-.313-.406-.32-.515-.113-.227-.246-.495-.603-1.034-1.53-1.266-.02-.128.716.372-.01-.11.042.03-.092-.05-.136-.072.004 0 .009.002 0 .016-.102.058-.032-.005-.003-.018-.161-.083-.617-.346-.793-.52-.24-.263-.096.037-.261-.57.11-1.033.208-2.32-.844-2.911-.316-.06-.67-.39-.67-.39-1.57-.868-3.238-1.405-5.09-1.33z" fill="#494640"/><path d="m16.163 10.17.2.91c-.005-.017-1.07.164-1.337 1.137.583 2.395 2.201 2.917 3.814 2.518l.829-1.576-1.414-.758z" fill="#9f7251"/><path d="m16.516 9.379c-1.775.073-3.214.809-4.004 3.069v1.664c.257-.729.557-1.316.971-1.71.886-.841 1.853-1.145 3.004-1.35.86-.102 3.189.05 4.276.736.364.146.723.45 1.56 1.215l.658-1.11c-.362-1.217-1.851-2.017-4.59-2.398a10.574 10.574 0 0 0 -1.875-.116z" fill="#2fcbff"/><path d="m11.41 2-.774 4.792c-.333.074-.605.512-.803.884-.044.085-.104.348-.153.53h-.008l-.001.031c-.007.025-.016.065-.022.083.005 0 .014.003.02.002l-.02.724h.053l.003.014c.133.128.697.514.723.576.072.174.105.311.076.383.07-.06.213-.147.342-.073.033.019.06.05.09.074h.247c-.062-.527.1-.843.557-.882l1.07-7.138zm-1.492 6.33c.181.017.378.057.554.153.108.06.058.247.149.321.29.238.387.613.324.687-.15.174-.772-.103-.897-.495-.025-.08-.083-.104-.145-.107z" fill="#413c2d"/><path d="m12.336 19.093.035-.045c.01-.003.04-.032.017-.033-.167-.008-.353.006-.535 0-.2.162-.407.328-.595.491-.025.022-.05.057-.088.06-.004-.229.028-.387.033-.589-.017-.029-.018-.074-.055-.083h-.006a1.293 1.293 0 0 0 -.259.16c-.02.024-.06.029-.066.066a1.374 1.374 0 0 0 .013.417c.002.037.006.073.01.108l.036.092c.087.057.138.14.232.19a1.115 1.115 0 0 0 .118-.076c-.121.138-.247.273-.364.416-.082.1-.157.207-.237.309-.082.103-.166.203-.243.308-.23.317-.473.626-.71.926-.082.103-.176.196-.243.309a.23.23 0 0 0 -.066.066c.037-.018.072-.038.11-.055.038-.055.083-.11.13-.166-.06.081-.113.17-.187.238-.002.006-.006.014 0 .006.034-.014.062-.034.094-.05.13-.17.262-.34.408-.496.052-.004.065-.052.105-.071a.196.196 0 0 1 .083-.017.993.993 0 0 1 .314-.148c.024-.004.03.009.044.016.64-.787 1.299-1.556 1.934-2.348h-.062zm-2.724 2.858.146-.17a.67.67 0 0 1 -.146.17zm12.288-3.293c-.003-.046.021-.067.027-.105-.007 0-.007-.007-.016-.005-.015.038-.047.06-.06.099.024-.005.03.009.049.01zm-11.684 1.8" opacity=".2"/><path d="m12.336 18.094.035-.045c.01-.004.04-.032.017-.033-.167-.01-.353.005-.535 0-.2.16-.407.328-.595.49-.025.023-.05.057-.088.061-.004-.23.028-.388.033-.59-.017-.029-.018-.073-.055-.083h-.006a1.293 1.293 0 0 0 -.259.16c-.02.024-.06.029-.066.067a1.374 1.374 0 0 0 .013.416c.002.037.006.073.01.109l.036.09c.087.058.138.14.232.19a1.115 1.115 0 0 0 .118-.075c-.121.139-.247.273-.364.416-.082.1-.157.207-.237.309-.082.103-.166.203-.243.309-.23.317-.473.625-.71.925-.082.103-.176.196-.243.31a.23.23 0 0 0 -.066.065c.037-.018.072-.038.11-.055.038-.055.083-.11.13-.166-.06.081-.113.17-.187.239-.002.006-.006.013 0 .005.034-.014.062-.034.094-.05.13-.17.262-.34.408-.495.052-.005.065-.053.105-.072a.196.196 0 0 1 .083-.017.993.993 0 0 1 .314-.148c.024-.004.03.01.044.016.64-.787 1.299-1.556 1.934-2.348zm-2.724 2.856.146-.17a.67.67 0 0 1 -.146.17zm12.288-3.292c-.003-.046.021-.067.027-.104-.007 0-.007-.007-.016-.006-.015.039-.047.06-.06.1.024-.006.03.008.049.01zm-11.684 1.8" fill="#2fcbff"/><path d="m21.951 7.29c-.095 1.26.11 1.273.03 1.68-.087.445-.168.788-.166 1.15.003.487-.313.792-.45 1.255-.184.625-.22 1.385-.385 1.845-.22.618-.653.912-1.144.723-1.137-.437-2.06-.726-2.783-1.416-1.571-1.499-2.053-4.307-2.053-5.435 0-1.708 1.528-3.092 3.414-3.092 1.885 0 3.667 1.588 3.537 3.29z" fill="#ac7f5c"/><path d="m20.229 10.105.713-.276c-.115.016.163 1 .4 1.571a.397.397 0 0 1 -.028.365c-.101.146-.5-.093-.816-.183-.248-.071-.285.076-.285.076-.312.029-.135-.233-.043-.625.07-.3.027-.71.059-.928z" fill="url(#b)"/><path d="m18.618 9.965 1.255-.076.216.045s-.139.469-1.47.031zm3.133-.435-.417.239-.126.106s.33.34.543-.344z" opacity=".6"/><path d="m18.414 4c-1.884 0-3.414 1.385-3.414 3.093 0 .652.17 1.866.611 3.066.59.018 1.306-.297 1.306-.297s1.409-1.247 1.45-2.864c.787.405 1.964.9 2.97.74.345-.054.477-.441.601-.882-.17-1.529-1.8-2.856-3.524-2.856z" fill="#67553c"/><path d="m15.163 8.731c.228-.464.523-.321.823-.137.412.146.386.393.411.574l.11 1.198c.011.241-.255.237-.255.237l-.326-.101c-.98-.59-.874-1.18-.763-1.77z" fill="url(#c)"/><path d="m20.665 12.334c.215-.072.569-.369.569-.369s-.133.493-.463.633-1.351-.176-1.351-.176.85.044 1.245-.088z" fill="#ac5c5c"/><path d="m4.1 2c-1.164 0-2.1.936-2.1 2.1v1c0-1.164.936-2.1 2.1-2.1h23.8c1.164 0 2.1.936 2.1 2.1v-1c0-1.164-.936-2.1-2.1-2.1z" fill="#f4f4f7" opacity=".2"/></svg>