<svg height="32" width="32" xmlns="http://www.w3.org/2000/svg"><rect height="28" opacity=".2" rx="8.4" width="28" x="2" y="3"/><rect fill="#204e7b" height="28" rx="8.4" width="28" x="2" y="2"/><path d="m16 7c-5.523 0-10 4.477-10 10s4.477 10 10 10 10-4.477 10-10-4.477-10-10-10zm-.02 5c2.095 0 4.188.025 4.467.076.665.121.863.372 1.39 1.756.538 1.406.991 3.342 1.13 4.81.08.851.015 1.436-.227 1.999-.364.846-1.374 1.484-2.12 1.338-.385-.076-.623-.374-1.253-1.567-.32-.608-.652-1.31-.748-1.412h-5.275" opacity=".2"/><g fill="#f4f4f7"><path d="m16 6c-5.523 0-10 4.477-10 10s4.477 10 10 10 10-4.477 10-10-4.477-10-10-10zm-.02 5c2.095 0 4.188.025 4.467.076.665.121.863.372 1.39 1.756.538 1.406.991 3.342 1.13 4.81.08.851.015 1.436-.227 1.999-.364.846-1.374 1.484-2.12 1.338-.385-.076-.623-.374-1.253-1.567-.32-.608-.652-1.31-.748-1.412h-5.275"/><path d="m10.4 2a8.382 8.382 0 0 0 -8.4 8.4v1c0-4.653 3.747-8.4 8.4-8.4h11.2c4.653 0 8.4 3.747 8.4 8.4v-1c0-4.653-3.747-8.4-8.4-8.4z" opacity=".1"/></g></svg>