<svg height="32" width="32" xmlns="http://www.w3.org/2000/svg">
    <rect height="11" opacity=".2" rx="2.8" ry="2.75" width="28" x="2" y="20"/>
    <rect fill="#4f4f4f" height="11" rx="2.8" ry="2.75" width="28" x="2" y="19"/>
    <path d="M4.8 19C3.25 19 2 20.227 2 21.75v1C2 21.227 3.25 20 4.8 20h22.4c1.55 0 2.8 1.227 2.8 2.75v-1c0-1.523-1.25-2.75-2.8-2.75z" fill="#f4f4f7" opacity=".1"/>
    <path d="m12.335 2-.824 2.411-1.937-1.68-.678 1.978-1.465-1.272-.72 2.106-1.424-.695-.156 2.383-1.987-.97-.164 2.52L1 8.389l.505 2.496L5 19h22l3.495-8.115L31 8.389l-1.98.392-.164-2.52-1.987.97-.156-2.383-1.423.695-.721-2.106-1.465 1.272-.678-1.978-1.937 1.68L19.665 2l-1.936 1.68-.295 1.086v-.623l-1.428-2.118-.006.008-.006-.008-1.428 2.118v.623L14.27 3.68z" fill="#17191e"/>
    <path d="M19.479 12.979A1.5 1.5 0 0 0 18 14.5v4.135a1.5 1.5 0 0 0 0 .408v1.012a1.5 1.5 0 0 0 0 .53V24.5a1.5 1.5 0 1 0 3 0v-1.69l2.377 2.685a1.5 1.5 0 1 0 2.246-1.989l-3.506-3.955 3.518-4.07a1.5 1.5 0 0 0-1.125-2.496 1.5 1.5 0 0 0-1.145.535L21 16.256V14.5a1.5 1.5 0 0 0-1.521-1.521zM7.5 13a1.5 1.5 0 1 0 0 3h2.826C8.583 18.543 8 21.035 8 24.5a1.5 1.5 0 1 0 3 0c0-4.262.462-5.698 3.584-8.962A1.5 1.5 0 0 0 13.5 13z" opacity=".2"/>
    <path d="m12.336 2-.826 2.412L9.574 2.73l-.678 1.98-1.464-1.272-.722 2.105-1.424-.695L5.13 7.23l-1.986-.97-.164 2.52L1 8.39l.21 1.04 1.77.352.165-2.521 1.986.97.156-2.382 1.424.695.72-2.106L8.897 5.71l.678-1.979 1.936 1.682L12.336 3l1.935 1.682.295 1.084v-.623l1.428-2.118.006.008.006-.008 1.428 2.118v.623l.295-1.084L19.664 3l.826 2.412 1.936-1.682.678 1.979 1.464-1.271.721 2.105 1.424-.695.156 2.382 1.986-.97.165 2.521 1.77-.351.21-1.041-1.98.392-.165-2.521-1.986.97-.156-2.382-1.424.695-.72-2.106-1.465 1.272-.678-1.979-1.936 1.682L19.664 2 17.73 3.682l-.295 1.084v-.623l-1.428-2.118-.006.008-.006-.008-1.428 2.118v.623l-.295-1.084z" fill="#f4f4f7" opacity=".1"/>
    <path d="M7.5 13.5h6c-3.263 3.412-4 5.572-4 10m10-10v10" fill="none" stroke="#ffb73c" stroke-linecap="round" stroke-linejoin="round" stroke-width="3"/>
    <path d="M16 12 10 2h12z" opacity=".2"/>
    <path d="m24.5 13.5-5 5.786m5 4.214-5-5.643" fill="none" stroke="#ffb73c" stroke-linecap="round" stroke-linejoin="round" stroke-width="3"/>
    <path d="M16 11 10 1h12z" fill="#f43e3e"/>
    <path d="m10 1 .6 1h10.8l.6-1z" fill="#f4f4f7" opacity=".1"/>
</svg>
