<svg height="32" width="32" xmlns="http://www.w3.org/2000/svg"><path d="m16 3a14 14 0 0 0 -14 14 14 14 0 0 0 14 14 14 14 0 0 0 .64-.023c.02.003.04.023.06.023 1.4 0 13.3-.7 13.3-13.3 0-11.9-9.1-14.7-10.5-14.7-.212 0-.516.091-.867.262a14 14 0 0 0 -2.633-.262z" opacity=".2"/><path d="m16 2a14 14 0 0 0 -14 14 14 14 0 0 0 14 14 14 14 0 0 0 .696-.025l-2.096-11.175 4.2-16.1 2.387.308a14 14 0 0 0 -5.187-1.008z" fill="#365849"/><path d="m9.146 4c-1.711-.048-2.78 1.761-1.856 3.143 0 0 1.673 2.608 2.944 4.234 1.11 1.418 2.355 2.63 3.375 3.532-.087.001-.161.007-.25.007-3.053 0-4.786-.964-5.875-1.877-1.089-.914-1.396-1.85-1.396-1.85-1.118-2.506-5.033-.897-3.916 1.608 0 0 .758 1.847 2.508 3.315 1.751 1.47 4.632 2.888 8.678 2.888 4.227 0 6.873-.936 8.486-2.126.807-.595 1.334-1.243 1.652-1.781.318-.539.468-1.138.468-1.138.495-2.572-3.442-3.427-4.15-.902-.004 0-.01.005-.023.027-.059.1-.198.303-.545.558-.123.091-.288.19-.475.291a2.07 2.07 0 0 0 -.585-.647s-2.653-1.939-4.544-4.357c-1.018-1.301-2.734-3.935-2.734-3.935a2.147 2.147 0 0 0 -1.762-.99z" opacity=".2"/><path d="m9.146 3c-1.711-.048-2.78 1.761-1.856 3.143 0 0 1.673 2.608 2.944 4.234 1.11 1.418 2.355 2.63 3.375 3.532-.087.001-.161.007-.25.007-3.053 0-4.786-.964-5.875-1.877-1.089-.914-1.396-1.85-1.396-1.85-1.118-2.506-5.033-.897-3.916 1.608 0 0 .758 1.847 2.508 3.315 1.751 1.47 4.632 2.888 8.678 2.888 4.227 0 6.873-.936 8.486-2.126.807-.595 1.334-1.243 1.652-1.781.318-.539.468-1.138.468-1.138.495-2.572-3.442-3.427-4.15-.902-.004 0-.01.005-.023.027-.059.1-.198.303-.545.558-.123.091-.288.19-.475.291a2.07 2.07 0 0 0 -.585-.647s-2.653-1.939-4.544-4.357c-1.018-1.301-2.734-3.935-2.734-3.935a2.147 2.147 0 0 0 -1.762-.99z" fill="#786764"/><path d="m9.146 3c-1.465-.042-2.449 1.279-2.125 2.527.24-.862 1.057-1.557 2.125-1.527.725.02 1.389.394 1.762.99 0 0 1.717 2.634 2.735 3.936 1.89 2.418 4.543 4.355 4.543 4.355.24.174.44.396.585.649.188-.102.352-.2.475-.291.347-.256.486-.459.545-.559.013-.022.018-.027.021-.027.616-2.191 3.657-1.835 4.13-.024l.023-.074c.494-2.572-3.443-3.428-4.153-.902-.003 0-.008.005-.021.027-.059.1-.198.303-.545.559-.123.09-.287.19-.475.29a2.076 2.076 0 0 0 -.585-.648s-2.652-1.937-4.543-4.355c-1.018-1.302-2.735-3.936-2.735-3.936a2.148 2.148 0 0 0 -1.762-.99zm-5.084 5.936c-1.215.073-2.376 1.109-2.011 2.494.467-1.614 3.143-2.245 4.037-.24 0 0 .308.936 1.396 1.85 1.09.913 2.821 1.876 5.873 1.876.09 0 .165-.005.252-.006-.333-.294-.711-.67-1.08-1.027-2.538-.158-4.06-1.018-5.045-1.844-1.088-.913-1.396-1.85-1.396-1.85-.42-.94-1.233-1.301-2.026-1.253z" fill="#f4f4f7" opacity=".1"/><path d="m18.656 3.25c-1.962.936-5.656 4.703-5.656 13.05 0 4.054 1.49 11.094 2.8 13.692a14 14 0 0 0 .2.008 14 14 0 0 0 .695-.025l-2.095-11.175z" opacity=".2"/><path d="m19.5 2c-1.4 0-6.5 3.5-6.5 13.3 0 5.037 2.3 14.7 3.7 14.7s13.3-.7 13.3-13.3c0-11.9-9.1-14.7-10.5-14.7z" fill="#afd1dc"/><path d="m16 14.6s0 5.4 1.4 5.4c.7 0 1.6-1.2 1.6-1.2v2.2s-.2 1 .5 1 .5-1 .5-1v-1.6s.9.7 1.6.7 2.4-2.1 2.4-2.1-.2 1 .5 1c1.4 0 1.5-4.5 1.5-4.5z" fill="#2a3054"/><path d="m16 14.6-1-2.6s3.036-1.6 5.2-1.6c4.9 0 5.8 4.1 5.8 4.1z" fill="#17191e"/><path d="m21 12.1c-3.333 0-4.925 3.187-4.925 3.187-.1.197-.1.429 0 .626 0 0 1.592 3.087 4.925 3.087s4.925-3.087 4.925-3.087c.1-.197.1-.429 0-.626 0 0-1.592-3.187-4.925-3.187z" opacity=".1"/><path d="m21 11.1c-3.333 0-4.925 3.187-4.925 3.187-.1.197-.1.429 0 .626 0 0 1.592 3.087 4.925 3.087s4.925-3.087 4.925-3.087c.1-.197.1-.429 0-.626 0 0-1.592-3.187-4.925-3.187z" fill="#f4f4f7"/><circle cx="21.5" cy="15.5" opacity=".1" r="2.5"/><circle cx="21.5" cy="14.5" fill="#786764" r="2.5"/><circle cx="21.5" cy="14.5" fill="#17191e" r="1.5"/><path d="m29.28 16a.7.7 0 0 0 -.58.34l-4.2 7a.7.7 0 0 0 -.026.673s.86 1.787 2.726 1.787c.583 0 1.127-.336 1.479-.805.352-.47.587-1.072.775-1.825.377-1.507.546-3.64.546-6.47a.7.7 0 0 0 -.72-.7z" fill="#78b2a1"/><g fill="#f4f4f7"><path d="m19.5 2c-1.4 0-6.5 3.5-6.5 13.3 0 .121.017.272.02.397.209-9.327 5.11-12.697 6.48-12.697 1.378 0 10.208 2.719 10.486 14.15.004-.15.014-.296.014-.45 0-11.9-9.1-14.7-10.5-14.7z" opacity=".2"/><path d="m29.28 16a.7.7 0 0 0 -.58.34l-4.2 7a.702.702 0 0 0 -.027.674l.109.187 4.117-6.861a.692.692 0 0 1 1.285.283c.005-.31.016-.596.016-.924a.7.7 0 0 0 -.72-.699z" opacity=".1"/></g></svg>