<svg height="32" width="32" xmlns="http://www.w3.org/2000/svg"><path d="m30 29.6s0-26.6-14-26.6-14 26.6-14 26.6c0 .776.624 1.4 1.4 1.4h25.2c.776 0 1.4-.624 1.4-1.4z" opacity=".2"/><path d="m30 28.6s0-26.6-14-26.6-14 26.6-14 26.6c0 .776.624 1.4 1.4 1.4h25.2c.776 0 1.4-.624 1.4-1.4z" fill="#b49"/><path d="m16 2c-14 0-14 26.6-14 26.6 0 .064.011.125.02.187.1-3.925 1.224-25.787 13.98-25.787s13.88 21.862 13.98 25.787c.009-.062.02-.123.02-.187 0 0 0-26.6-14-26.6z" fill="#f4f4f7" opacity=".2"/><path d="m24 17a8 8 0 1 1 -11.995-6.933c1.176-.679 2.45 1.164 3.906 1.164 1.508 0 3.008-1.814 4.212-1.088a7.996 7.996 0 0 1 3.877 6.857z" opacity=".2"/><path d="m24 16a8 8 0 1 1 -11.995-6.933c1.176-.679 2.45 1.164 3.906 1.164 1.508 0 3.008-1.814 4.212-1.088a7.996 7.996 0 0 1 3.877 6.857z" fill="#69e27d"/><circle cx="16" cy="16" fill="#00a200" r="5"/><g fill="none" stroke-linecap="round" stroke-linejoin="round" stroke-width="3"><path d="m5.5 10.5s2.423-2.012 4.2-2c2.298.015 4.002 3 6.3 3s4.002-2.985 6.3-3c1.777-.012 4.2 2 4.2 2" opacity=".2" stroke="#000"/><path d="m5.5 9.5s2.423-2.012 4.2-2c2.298.015 4.002 3 6.3 3s4.002-2.985 6.3-3c1.777-.012 4.2 2 4.2 2" stroke="#17191e"/></g></svg>