<svg height="32" width="32" xmlns="http://www.w3.org/2000/svg"><path d="m20.514 3s-1.208-.044-2.399.553a5.63 5.63 0 0 0 -.92.588 5.543 5.543 0 0 0 -1.195-.141c-4.2 0-7 3.9-7 8.8 0 3.366 4.9 7.7 4.9 8.4 0 .177.013.387.018.585-1.463-.293-2.535-.785-4.219-.785-1.259 0-1.912.469-2.271.98-.383-.56-.988-.98-1.928-.98-1.908 0-2.5 1.837-2.5 3v6.3c0 .389.311.7.7.7h3.6c.071 0 .135-.02.2-.04.065.02.128.04.2.04h16.6c.072 0 .135-.02.2-.04.064.02.129.04.2.04h3.6a.691.691 0 0 0 .7-.7v-6.3c0-1.163-.523-3-2.5-3-.918 0-1.525.43-1.914 1-.356-.52-1.01-1-2.285-1-1.683 0-2.756.492-4.219.785.005-.198.018-.408.018-.586 0-.7 4.9-5.033 4.9-8.398 0-3.337-1.771-6.917-4.604-8.252.058-.033.106-.072.166-.102.929-.465 1.924-.447 1.924-.447a.5.5 0 1 0 .028-1z" opacity=".2"/><path d="m5.5 20c-1.908 0-2.5 1.837-2.5 3v6.3c0 .389.311.7.7.7h3.6a.691.691 0 0 0 .7-.7v-6.3c0-1.163-.523-3-2.5-3zm21 0c-1.908 0-2.5 1.837-2.5 3v6.3c0 .389.311.7.7.7h3.6a.691.691 0 0 0 .7-.7v-6.3c0-1.163-.523-3-2.5-3z" fill="#14d014"/><path d="m5.5 20c-1.908 0-2.5 1.837-2.5 3v1c0-1.163.592-3 2.5-3 1.977 0 2.5 1.837 2.5 3v-1c0-1.163-.523-3-2.5-3zm21 0c-1.908 0-2.5 1.837-2.5 3v1c0-1.163.592-3 2.5-3 1.977 0 2.5 1.837 2.5 3v-1c0-1.163-.523-3-2.5-3z" fill="#f4f4f7" opacity=".1"/><path d="m16 3c-4.2 0-7 3.9-7 8.8 0 3.365 4.9 7.7 4.9 8.4 0 1.36 0 3.5 2.1 3.5s2.1-2.14 2.1-3.5c0-.7 4.9-5.035 4.9-8.4 0-4.2-2.8-8.8-7-8.8z" fill="#d2b575"/><path d="m16 3c-4.2 0-7 3.9-7 8.8 0 .1.017.201.025.302.255-4.566 2.978-8.102 6.975-8.102 3.978 0 6.696 4.126 6.973 8.13.01-.11.027-.22.027-.33 0-4.2-2.8-8.8-7-8.8z" fill="#f4f4f7" opacity=".2"/><path d="m9.7 20c-2.8 0-2.7 2.3-2.7 2.3v7c0 .388.312.7.7.7h16.6c.388 0 .7-.312.7-.7v-7s.1-2.3-2.7-2.3c-2.38 0-3.5 1-6.3 1s-3.92-1-6.3-1z" fill="#37e137"/><path d="m18.277 3.49c-.055.025-.107.035-.162.063-1.24.62-2.011 1.642-2.011 1.642a.5.5 0 1 0 .792.61s.674-.86 1.666-1.358c.292-.146.578-.232.85-.299a6.195 6.195 0 0 0 -1.135-.658zm-6.277 13.01s2 3 4 3 4-3 4-3-1 1-4 1-4-1-4-1z" opacity=".1"/><path d="m20.514 2s-1.208-.044-2.399.553c-1.24.62-2.011 1.642-2.011 1.642a.5.5 0 1 0 .792.61s.674-.86 1.666-1.358c.929-.465 1.924-.447 1.924-.447a.5.5 0 1 0 .028-1z" fill="#684322"/><path d="m13 8a2 2 0 0 0 -2 2 2 2 0 0 0 2 2 2 2 0 0 0 2-2 2 2 0 0 0 -2-2zm6 0a2 2 0 0 0 -2 2 2 2 0 0 0 2 2 2 2 0 0 0 2-2 2 2 0 0 0 -2-2zm-3 2s-2 3.6-2 5c0 .66.6 2 2 2s2-1.34 2-2c0-1.4-2-5-2-5z" opacity=".2"/><path d="m16 9s2 3.6 2 5c0 .66-.6 2-2 2s-2-1.34-2-2c0-1.4 2-5 2-5z" fill="#e7cf9c"/><path d="m16 17c-3 0-4-1-4-1s2 3 4 3 4-3 4-3-1 1-4 1z" fill="#e43a31"/><g fill="#f4f4f7"><path d="m13 7a2 2 0 0 0 -2 2 2 2 0 0 0 2 2 2 2 0 0 0 2-2 2 2 0 0 0 -2-2zm6 0a2 2 0 0 0 -2 2 2 2 0 0 0 2 2 2 2 0 0 0 2-2 2 2 0 0 0 -2-2z" fill-opacity=".989744"/><circle cx="13" cy="9" fill-opacity=".989744" r="1"/><circle cx="19" cy="9" fill-opacity=".989744" r="1"/><path d="m9.7 20c-2.8 0-2.7 2.3-2.7 2.3v1s-.1-2.3 2.7-2.3c2.379 0 3.5 1 6.3 1s3.921-1 6.3-1c2.8 0 2.7 2.3 2.7 2.3v-1s.1-2.3-2.7-2.3c-2.379 0-3.5 1-6.3 1s-3.921-1-6.3-1z" opacity=".2"/></g></svg>