<svg xmlns="http://www.w3.org/2000/svg" width="32" height="32">
    <path style="opacity:.2" d="M7 3C4.23 3 2 5.23 2 8s2.23 5 5 5h5.93l-9.461 9.459a4.99 4.99 0 0 0 0 7.072 4.99 4.99 0 0 0 7.072 0l9.46-9.46V26c0 2.77 2.23 5 4.999 5 2.77 0 5-2.23 5-5V8c0-2.77-2.23-5-5-5z"/>
    <path style="fill:#e7b212" d="M7 2C4.23 2 2 4.23 2 7s2.23 5 5 5h5.93l-9.461 9.46a4.99 4.99 0 0 0 0 7.071 4.99 4.99 0 0 0 7.072 0l9.46-9.46V25A4.988 4.988 0 0 0 25 30c2.77 0 5-2.23 5-5V7c0-2.77-2.23-5-5-5z"/>
    <path style="opacity:.2;fill:#f4f4f7" d="M7 2a4.989 4.989 0 0 0-4.974 5.5A4.986 4.986 0 0 1 7 3h18c2.77 0 5 2.23 5 5V7c0-2.77-2.23-5-5-5zm4.93 11-8.461 8.46c-1.108 1.107-1.565 2.594-1.42 4.034a4.956 4.956 0 0 1 1.42-3.035L12.929 13z"/>
</svg>
