<svg height="32" width="32" xmlns="http://www.w3.org/2000/svg">
    <path d="M16 2c-.786 0-1.573.293-2.16.88L1.88 14.843A3.039 3.039 0 0 0 1 17c0 .785.294 1.57.88 2.156L13.843 31.12c1.175 1.175 3.143 1.175 4.318 0l11.96-11.96c.587-.588.88-1.374.88-2.16 0-.785-.293-1.57-.88-2.157L18.16 2.88A3.047 3.047 0 0 0 16 2z" opacity=".2"/>
    <path d="M16 1c-.786 0-1.572.293-2.16.88L1.88 13.842A3.038 3.038 0 0 0 1 16h30c0-.786-.294-1.57-.882-2.158L18.16 1.88A3.045 3.045 0 0 0 16 1z" fill="#8d49bc"/>
    <path d="M1 16c0 .785.295 1.57.882 2.157l11.96 11.961c1.175 1.175 3.143 1.176 4.318.002l11.958-11.962A3.044 3.044 0 0 0 31 16z" fill="#3a497d"/>
    <path d="M16 1a3.05 3.05 0 0 0-2.16.88L1.88 13.843A3.039 3.039 0 0 0 1 16h.174c.144-.425.373-.824.707-1.158L13.84 2.88A3.047 3.047 0 0 1 16 2a3.05 3.05 0 0 1 2.16.88l11.96 11.962c.333.333.56.733.704 1.158H31c0-.786-.293-1.57-.88-2.158L18.16 1.88A3.047 3.047 0 0 0 16 1z" fill="#f4f4f7" opacity=".1"/>
    <path d="M1 16c0 .34.066.676.176 1h29.648c.11-.323.176-.66.176-1z" opacity=".2"/>
    <path d="m21 17-8 6V11z" opacity=".2"/>
    <path d="m21 16-8 6V10z" fill="#f4f4f7"/>
</svg>
