<svg height="32" viewBox="0 0 8.4666665 8.4666669" width="32" xmlns="http://www.w3.org/2000/svg"><g transform="translate(2.38125 -290.120827)"><path d="m-1.5875 290.38541h6.8791667c.2931583 0 .5291666.23601.5291666.52917v6.87916c0 .29316-.2360083.52917-.5291666.52917h-6.8791667c-.2931583 0-.5291667-.23601-.5291667-.52917v-6.87916c0-.29316.2360084-.52917.5291667-.52917z" fill="#36404d"/><path d="m-1.5875 290.64999h6.8791667c.1465789 0 .2645833.11801.2645833.26459v6.87916c0 .14658-.1180044.26459-.2645833.26459h-6.8791667c-.1465792 0-.2645833-.11801-.2645833-.26459v-6.87916c0-.14658.1180041-.26459.2645833-.26459z" fill="#4c5a6b"/><path d="m2.1109823 293.56041a.26460979.26460979 0 0 0 -.2211752.12816l-.7436239 1.2392-1.49448237.49816a.26460979.26460979 0 0 0 -.1808675.25115v1.5875a.26460979.26460979 0 0 0 .3436483.25218l4.23333327-1.32292a.26460979.26460979 0 0 0 .1855184-.25218v-1.5875a.26460979.26460979 0 0 0 -.1917194-.25476l-1.8520834-.52917a.26460979.26460979 0 0 0 -.078548-.01zm.1281576.57464 1.4650268.41858v1.19321l-3.70416667 1.15755v-1.03663l1.40663237-.4687a.26460979.26460979 0 0 0 .1431438-.11524z" fill="#f37d5c"/><path d="m-.26458337 297.26458v-1.5875l1.58749997-.52917.79375-1.32292 1.8520834.52917v1.5875z" fill="#ffb8a3"/><path d="m3.96875 291.17916a.26460979.26460979 0 0 0 -.071313.0119l-4.23333337 1.32292a.26460979.26460979 0 0 0 -.1855184.25269v1.5875a.26460979.26460979 0 0 0 .1855184.2527l4.23333337 1.32292a.26460979.26460979 0 0 0 .3436482-.2527v-1.5875a.26460979.26460979 0 0 0 -.1917194-.25425l-.9622153-.27492.9622153-.27491a.26460979.26460979 0 0 0 .1917194-.25425v-1.5875a.26460979.26460979 0 0 0 -.2723348-.26458z" fill="#f37d5c"/><path d="m3.9765015 291.44374v1.5875l-1.8520834.52917 1.8520834.52917v1.5875l-4.23333337-1.32292v-1.5875z" fill="#ffb8a3"/></g></svg>