<svg height="32" width="32" xmlns="http://www.w3.org/2000/svg"><path d="m16 3-13 6.5v5.5l18.6 6.2-5.6 2.8-7-3.5v-1.5l-6-2v6.5l13 6.5 13-6.5v-5.5l-18.6-6.2 5.6-2.8 7 3.5v1.5l6 2v-6.5z" opacity=".2"/><path d="m16 2-13 6.5v5.5l18.6 6.2-5.6 2.8-7-3.5v-1.5l-6-2v6.5l13 6.5 13-6.5v-5.5l-18.6-6.2 5.6-2.8 7 3.5v1.5l6 2v-6.5z" fill="#e52e38"/><path d="m16 2-13 6.5v1l13-6.5 13 6.5v-1zm-4.4 9.201-1.2.6 18.6 6.199v-1zm-8.6 4.799v1l6 2v-1zm6 3.5v1l7 3.5 5.6-2.801-1.2-.4-4.4 2.201z" fill="#f4f4f7" opacity=".2"/></svg>