<svg xmlns="http://www.w3.org/2000/svg" width="32" height="32">
    <defs>
        <linearGradient id="a" x1="2" x2="8" y1="1038.1" y2="1038.1" gradientUnits="userSpaceOnUse">
            <stop offset="0" stop-opacity="0"/>
            <stop offset="1"/>
        </linearGradient>
    </defs>
    <g transform="translate(0 -1020.4)">
        <g transform="matrix(.66667 0 0 .8 -1.333 215.87)">
            <rect fill="#41b941" width="3" height="10" x="14" y="1014.4" rx="1.406" ry="1.747"/>
            <path fill="#fff" opacity=".2" d="M15.406 1014.4c-.779 0-1.406.778-1.406 1.746v1c0-.968.627-1.746 1.406-1.746h.188c.779 0 1.406.778 1.406 1.746v-1c0-.968-.627-1.746-1.406-1.746h-.188z"/>
        </g>
        <path fill="#ffca1d" d="M14.6 1027.4c-.776 0-1.6.618-1.6 1.385v1.616c-2.598.821-4.3 3.114-5 4.499-.7-1.385-5-2-5-2v3.5H2v4h1v3c-.027 0 4.3-.615 5-2 .7 1.385 4.5 4 10.1 4s11.9-3.027 11.9-7.615c-.006-3.261-2.744-6.044-7-7.386v-1.614a1.39 1.39 0 0 0-1.4-1.385z"/>
        <circle opacity=".2" cx="18" cy="1038.4" r="2"/>
        <circle fill="#fff" cx="18" cy="1037.4" r="2"/>
        <circle opacity=".2" cx="23" cy="1038.4" r="2"/>
        <circle fill="#fff" cx="23" cy="1037.4" r="2"/>
        <circle opacity=".2" cx="13" cy="1038.4" r="2"/>
        <circle fill="#fff" cx="13" cy="1037.4" r="2"/>
        <path fill="#fff" opacity=".2" d="M14.6 1027.4c-.776 0-1.6.618-1.6 1.385v1c0-.767.824-1.385 1.6-1.385h7c.775 0 1.4.618 1.4 1.385v-1a1.39 1.39 0 0 0-1.4-1.385zm8.4 2.998v1c3.99 1.258 6.644 3.783 6.967 6.78.01-.132.033-.26.033-.393-.006-3.26-2.744-6.044-7-7.387zm-10 .004c-2.598.82-4.3 3.113-5 4.498-.7-1.385-5-2-5-2v1s4.3.615 5 2c.7-1.385 2.402-3.677 5-4.498z"/>
        <path opacity=".2" d="M29.967 1038.1c-.352 4.364-6.431 7.22-11.867 7.22-5.6 0-9.4-2.615-10.1-4-.7 1.385-5.027 2-5 2v1c-.027 0 4.3-.615 5-2 .7 1.385 4.5 4 10.1 4s11.9-3.026 11.9-7.614c0-.204-.012-.406-.033-.606z"/>
        <path fill="url(#a)" opacity=".1" d="M8 1034.9c-.7-1.385-5-2-5-2v3.5H2v4h1v3c-.027 0 4.3-.615 5-2z"/>
    </g>
</svg>
