<svg height="64" width="64" xmlns="http://www.w3.org/2000/svg">
    <filter id="a" color-interpolation-filters="sRGB" height="1.054" width="1.054" x="-.027" y="-.027">
        <feGaussianBlur stdDeviation=".619"/>
    </filter>
    <linearGradient id="b" gradientUnits="userSpaceOnUse" x1="4.5" x2="59.5" y1="59.49" y2="4.49">
        <stop offset="0" stop-color="#dee0e2"/>
        <stop offset="1" stop-color="#f1f3f5" stop-opacity=".996"/>
    </linearGradient>
    <rect fill="#141414" filter="url(#a)" height="55" opacity=".3" ry="15" width="55" x="4.5" y="4.5"/>
    <rect fill="url(#b)" height="55" ry="15" width="55" x="4.5" y="4.5"/>
    <g transform="matrix(1.11115 0 0 1.11115 88.84 5.888)">
        <path d="M-61.8 34.845c.413 1.552 2 2.47 3.546 2.055l1.832-.49a2.86 2.86 0 0 0 1.182-.659c1.102.13 2.45.248 4.086.248 1.785 0 3.473-.19 4.828-.392.359.37.814.66 1.355.802l1.856.49c1.563.416 3.174-.501 3.594-2.054l1.265-4.697a2.902 2.902 0 0 0-2.074-3.559l-.264-.07.373-1.5c.28-1.128-.34-2.286-1.384-2.588l-.424-.123c-.001-.568-.038-1.13-.149-1.668.06-.148.117-.293.168-.45 1.293-3.84-.266-7.84-3.484-8.925z" opacity=".1"/>
        <g fill="#2e3436">
            <path d="m-41.329 25.589-1.856-.49c-1.563-.415-3.182.506-3.602 2.055l-1.27 4.696a2.913 2.913 0 0 0 2.086 3.56l1.856.49c1.563.415 3.174-.502 3.594-2.055l1.266-4.696a2.902 2.902 0 0 0-2.074-3.56"/>
            <path d="m-42.604 21.431-1.238-.359c-1.044-.302-2.114.37-2.394 1.494l-.85 3.414c-.28 1.127.342 2.287 1.387 2.589l1.234.358c1.044.302 2.118-.365 2.398-1.493l.846-3.414c.28-1.128-.338-2.287-1.383-2.589M-58.634 20.431l1.297-.359c1.094-.302 2.22.37 2.512 1.494l.887 3.414c.293 1.127-.355 2.287-1.449 2.589l-1.297.358c-1.094.302-2.219-.365-2.512-1.493l-.887-3.414c-.293-1.128.352-2.287 1.45-2.589"/>
        </g>
        <path d="M-47.724 10.02c-2.87-.246-5.805 1.875-6.938 5.234-.16.473-.28.957-.359 1.43v.016a8.814 8.814 0 0 0-1.77 3.043c-1.414 4.191.426 8.594 4.098 9.832s7.785-1.148 9.195-5.34c.527-1.559.617-3.148.32-4.594.06-.148.117-.293.168-.449 1.293-3.84-.266-7.84-3.484-8.926a5.182 5.182 0 0 0-1.23-.246" fill="#121919"/>
        <path d="M-49.642 12.036c-.96.023-1.91.558-2.3 1.683-.337.977-.168 1.973.363 2.62-1.182.399-2.28 1.211-3.121 2.329.07.36.154.737.261 1.105.383 1.328.641 3.442-.449 2.356a5.205 5.205 0 0 1-.963-1.291c-1.198 3.485.184 7.119 3.088 8.125 2.91 1.012 6.25-1 7.461-4.492.086-.25.147-.5.207-.75-.674.458-1.332.97-2.277 1.129-1.976.332-.156-1.554 1.305-2.836.447-.392.914-1.014.914-1.014-.21-1.188-.54-2.594-1.293-3.404 1.078.21 1.905-.255 2.17-1.114.29-.938-.24-1.976-1.417-2.343-.699-.215-1.395-.143-1.91.15.051-1.074-.469-1.837-1.379-2.153a1.752 1.752 0 0 0-.656-.098zm1.34 4.099c.035.09.078.175.125.265-.066-.027-.137-.059-.207-.086-.023-.008-.047-.02-.07-.027.05-.051.105-.098.152-.145z" fill="#ececec"/>
        <path d="M-48.259 15.32c-.059.301-.227.563-.438.676a.426.426 0 0 1-.578-.129c-.14-.195-.184-.5-.105-.801.102-.449.434-.758.742-.688.313.07.48.488.38.941M-46.787 15.766c-.059.305-.227.563-.438.68a.424.424 0 0 1-.574-.129c-.145-.195-.184-.5-.105-.801.098-.449.43-.758.742-.691.31.07.477.492.375.941" fill="#2e3436"/>
        <path d="M-50.81 16.418s1.54-.32 2.438.063c.895.387 1.473 1.348 1.473 1.348s-1.539 2.211-2.883 1.555c-1.344-.66-1.023-2.965-1.023-2.965m-.004 0" fill="#ffb30a"/>
        <path d="m-62.008 25.589 1.832-.49a2.897 2.897 0 0 1 3.547 2.055l1.254 4.696a2.91 2.91 0 0 1-2.047 3.56l-1.832.49a2.892 2.892 0 0 1-3.547-2.055l-1.254-4.696a2.91 2.91 0 0 1 2.047-3.56" fill="#2e3436"/>
        <path d="M-54.154 28.5a3.5 3.5 0 1 1-7.001-.001 3.5 3.5 0 0 1 7.001.001" fill="#ffb30a"/>
        <path d="M-51.154 20a4 4 0 0 0-4 4 4 4 0 0 0 4 4 4 4 0 0 0 4-4 4 4 0 0 0-4-4zm0 1a3 3.066 0 0 1 3 3.066 3 3.066 0 0 1-3 3.065 3 3.066 0 0 1-3-3.065 3 3.066 0 0 1 3-3.066zm0 1a2 2 0 0 0-2 2 2 2 0 0 0 2 2 2 2 0 0 0 2-2 2 2 0 0 0-2-2z" fill="#2e3436"/>
        <path d="M-43.154 28.5c0 1.935-1.565 3.5-3.498 3.5a3.502 3.502 0 0 1-3.502-3.5 3.5 3.5 0 0 1 7 0" fill="#ffb30a"/>
        <path d="m-44.656 22.98-2.498.02-.785 1.375-.967-.965s-.6-.41-2.474-.41c-1.63 0-3.01.267-3.01.267l-1.147 1.08-.617-1.347H-58.2c-.747 0-.953.208-.953 1h2.25c.472 0 .914.481 1.016.626-1.336 1.078-3.266 3.319-3.266 4.74 0 2.046.395 4.993.395 4.993s2.695.64 6.605.64 7.563-.89 7.563-.89.437-2.11.437-3.305c0-2.805-1.503-4.61-3.422-6.148.09-.145.34-.656 1.032-.656h2.39s0-1-.502-1.02z" fill="#e25136"/>
        <rect fill="#693d36" height="6" ry="2.5" width="11" x="-57.154" y="28"/>
    </g>
</svg>
