<svg xmlns="http://www.w3.org/2000/svg" width="32" height="32" version="1"><path style="opacity:.2" d="M16.087 3.5a13.511 13.511 0 0 0-5.263 1.043 13.46 13.46 0 0 0-7.28 17.633 13.46 13.46 0 0 0 17.632 7.28 13.46 13.46 0 0 0 7.28-17.632A13.46 13.46 0 0 0 16.088 3.5zM16 9.894A7.106 7.106 0 0 1 23.106 17 7.106 7.106 0 0 1 16 24.106 7.106 7.106 0 0 1 8.894 17 7.106 7.106 0 0 1 16 9.894z"/><path style="fill:#f4f4f7" d="M16.087 2.5a13.511 13.511 0 0 0-5.263 1.043 13.46 13.46 0 0 0-7.28 17.634 13.46 13.46 0 0 0 17.632 7.28 13.46 13.46 0 0 0 7.28-17.633A13.46 13.46 0 0 0 16.088 2.5zM16 8.895A7.106 7.106 0 0 1 23.106 16 7.106 7.106 0 0 1 16 23.106 7.106 7.106 0 0 1 8.894 16 7.106 7.106 0 0 1 16 8.895z"/><path style="opacity:.2;fill:#f4f4f7" d="M16.088 2.5a13.51 13.51 0 0 0-5.264 1.043 13.45 13.45 0 0 0-8.3 12.918 13.448 13.448 0 0 1 8.3-11.918A13.51 13.51 0 0 1 16.088 3.5a13.46 13.46 0 0 1 12.369 8.324c.643 1.546.963 3.14 1.02 4.715.073-1.897-.241-3.84-1.02-5.715A13.46 13.46 0 0 0 16.087 2.5zm6.994 13.957A7.106 7.106 0 0 1 16 23.105a7.106 7.106 0 0 1-7.082-6.56 7.106 7.106 0 0 0-.023.455A7.106 7.106 0 0 0 16 24.105 7.106 7.106 0 0 0 23.105 17a7.106 7.106 0 0 0-.023-.543z"/><path style="opacity:.2" d="M16.09 2a15.415 15.415 0 0 0-5.242.896 1.317 1.227 0 0 0-.762 1.584l2.34 5.723a1.317 1.227 0 0 0 1.699.71 5.614 5.614 0 0 1 1.873-.321c.64.002 1.272.112 1.87.326a1.317 1.227 0 0 0 1.702-.707l2.344-5.733a1.317 1.227 0 0 0-.764-1.584A15.36 15.36 0 0 0 16.09 2zM3.035 11a1.227 1.317 0 0 0-1.139.847A15.416 15.416 0 0 0 1 17.09a15.36 15.36 0 0 0 .895 5.06 1.227 1.317 0 0 0 1.584.764L9.21 20.57a1.227 1.317 0 0 0 .707-1.703 5.603 5.603 0 0 1-.326-1.87c0-.64.11-1.274.322-1.872a1.227 1.317 0 0 0-.71-1.7l-5.724-2.34A1.227 1.317 0 0 0 3.035 11zm25.93 0a1.227 1.317 0 0 0-.445.086l-5.723 2.34a1.227 1.317 0 0 0-.711 1.699c.213.598.321 1.233.322 1.873a5.603 5.603 0 0 1-.326 1.869 1.227 1.317 0 0 0 .707 1.703l5.732 2.344a1.227 1.317 0 0 0 1.584-.764A15.36 15.36 0 0 0 31 17.09a15.416 15.416 0 0 0-.896-5.243 1.227 1.317 0 0 0-1.14-.847zM18.383 23a1.317 1.227 0 0 0-.516.082 5.603 5.603 0 0 1-1.869.326c-.64 0-1.275-.11-1.873-.322a1.317 1.227 0 0 0-1.7.71l-2.34 5.723a1.317 1.227 0 0 0 .763 1.584c1.719.612 3.493.905 5.242.897a15.359 15.359 0 0 0 5.06-.895 1.317 1.227 0 0 0 .764-1.584L19.57 23.79a1.317 1.227 0 0 0-1.187-.79z"/><path style="fill:#e74c3c" d="M16.09 1a15.415 15.415 0 0 0-5.242.896 1.317 1.227 0 0 0-.762 1.584l2.34 5.723a1.317 1.227 0 0 0 1.699.711 5.614 5.614 0 0 1 1.873-.322c.64.002 1.272.112 1.87.326a1.317 1.227 0 0 0 1.702-.707l2.344-5.732a1.317 1.227 0 0 0-.764-1.584A15.36 15.36 0 0 0 16.09 1zM3.035 10a1.227 1.317 0 0 0-1.139.848A15.416 15.416 0 0 0 1 16.09a15.36 15.36 0 0 0 .895 5.06 1.227 1.317 0 0 0 1.584.764L9.21 19.57a1.227 1.317 0 0 0 .707-1.703 5.603 5.603 0 0 1-.326-1.869c0-.64.11-1.275.322-1.873a1.227 1.317 0 0 0-.71-1.7l-5.724-2.34A1.227 1.317 0 0 0 3.035 10zm25.93 0a1.227 1.317 0 0 0-.445.086l-5.723 2.34a1.227 1.317 0 0 0-.711 1.699c.213.598.321 1.233.322 1.873a5.603 5.603 0 0 1-.326 1.87 1.227 1.317 0 0 0 .707 1.702l5.732 2.344a1.227 1.317 0 0 0 1.584-.764A15.36 15.36 0 0 0 31 16.09a15.416 15.416 0 0 0-.896-5.242 1.227 1.317 0 0 0-1.14-.848zM18.383 22a1.317 1.227 0 0 0-.516.082 5.603 5.603 0 0 1-1.869.326c-.64 0-1.275-.11-1.873-.322a1.317 1.227 0 0 0-1.7.71l-2.34 5.724a1.317 1.227 0 0 0 .763 1.584c1.719.611 3.493.904 5.242.896a15.36 15.36 0 0 0 5.06-.895 1.317 1.227 0 0 0 .764-1.584L19.57 22.79A1.317 1.227 0 0 0 18.383 22z"/></svg>