<svg xmlns="http://www.w3.org/2000/svg" width="32" height="32" version="1"><path style="fill:#6eaa36" d="M16 2C8.268 2 2 8.268 2 16s6.268 14 14 14c7.73 0 14-6.268 14-14S23.73 2 16 2z"/><path style="opacity:.2" d="M16.087 6.202c-4.295 0-6.75 1.758-8.35 3.74 1.227.336 2.084.617 2.36.708l.034-1.857.024-.054.062-.019c.378.055 8.43 1.246 11.822 3.222.42.247.626.505.886.771.937.97 2.182 5.003 2.314 5.837l-.053.087c-.048.018-.167.1-.321.205-.791.554-2.642 1.849-5.014 1.638-2.133-.19-4.916-1.414-8.273-3.624.148.348.845 2.005.962 2.284l.048.057c.486.25 5.151 2.629 7.465 2.58 1.868-.036 3.862-.948 4.66-1.426l.253-.049c.071.056.06.164.038.264a7.245 7.245 0 0 1-.235.843l-.062.163c-.09.241-.18.474-.349.613-.47.428-1.224.767-2.4 1.282-1.818.795-4.764 1.295-7.502 1.279-.98-.024-1.929-.132-2.762-.227-1.738-.197-3.15-.357-3.994.298A11.173 11.173 0 0 0 16.09 28.6c6.185 0 11.205-5.014 11.205-11.2 0-6.185-5.02-11.2-11.205-11.2h-.001zm2.96 5.927a3.4 3.4 0 0 0-2.293.924 3.415 3.415 0 0 0-1.096 2.4 3.465 3.465 0 0 0 3.328 3.567 3.42 3.42 0 0 0 2.47-.929 3.427 3.427 0 0 0 1.092-2.394 3.458 3.458 0 0 0-3.327-3.568c-.058-.002-.116 0-.173 0zm-.09 1.016c.079-.005.154-.003.234 0a2.407 2.407 0 0 1 1.562 4.161c-.47.436-1.08.661-1.724.642a2.413 2.413 0 0 1-2.318-2.49c.02-.642.295-1.235.761-1.672.41-.383.931-.608 1.484-.641zm.63 1.202c-.59 0-1.067.32-1.067.713 0 .391.477.714 1.068.714.588 0 1.062-.322 1.062-.714 0-.393-.474-.713-1.062-.713z"/><path style="fill:#f4f4f7" d="M16.087 5.201c-4.295 0-6.75 1.759-8.351 3.74 1.227.337 2.085.617 2.361.709l.033-1.858.024-.053.063-.02c.377.055 8.43 1.246 11.822 3.223.42.247.626.505.886.77.937.97 2.182 5.004 2.314 5.838l-.053.086c-.049.018-.167.1-.321.206-.792.553-2.642 1.848-5.014 1.638-2.133-.19-4.916-1.414-8.273-3.625l.962 2.284.048.057c.486.251 5.15 2.63 7.465 2.581 1.868-.037 3.861-.948 4.66-1.427l.253-.048c.071.056.06.164.038.264a7.245 7.245 0 0 1-.235.843l-.062.163c-.09.24-.18.474-.349.613-.47.428-1.224.766-2.4 1.282-1.818.795-4.764 1.294-7.502 1.278-.98-.023-1.929-.131-2.762-.226-1.738-.198-3.15-.357-3.994.298a11.172 11.172 0 0 0 8.39 3.783c6.185 0 11.204-5.014 11.204-11.2 0-6.185-5.02-11.2-11.205-11.2h-.001zm2.96 5.928a3.4 3.4 0 0 0-2.293.924 3.415 3.415 0 0 0-1.096 2.4 3.465 3.465 0 0 0 3.327 3.567 3.42 3.42 0 0 0 2.471-.93 3.427 3.427 0 0 0 1.092-2.394 3.458 3.458 0 0 0-3.328-3.567c-.057-.002-.115-.001-.172 0zm-.09 1.015c.078-.004.154-.003.234 0a2.407 2.407 0 0 1 1.562 4.162c-.47.436-1.08.661-1.724.641a2.413 2.413 0 0 1-2.319-2.49c.02-.641.296-1.234.762-1.672.409-.383.93-.607 1.484-.64zm.63 1.203c-.59 0-1.067.32-1.067.713 0 .391.477.713 1.068.713.588 0 1.062-.321 1.062-.713 0-.394-.474-.713-1.062-.713z"/><path style="opacity:.2" d="M2.022 16.414A14 14 0 0 0 2 17a14 14 0 0 0 14 14 14 14 0 0 0 14-14 14 14 0 0 0-.021-.414A14 14 0 0 1 16 30 14 14 0 0 1 2.022 16.414z"/><path style="opacity:.2;fill:#f4f4f7" d="M16 2A14 14 0 0 0 2 16a14 14 0 0 0 .022.414A14 14 0 0 1 16 3a14 14 0 0 1 13.979 13.586A14 14 0 0 0 30 16 14 14 0 0 0 16 2z"/></svg>