<svg height="32" width="32" xmlns="http://www.w3.org/2000/svg"><path d="m16.078 2.001a3.297 3.297 0 0 0 -1.727.44l-9.701 5.601a3.297 3.297 0 0 0 -1.65 2.856v11.202a3.297 3.297 0 0 0 1.649 2.856l9.702 5.601a3.297 3.297 0 0 0 3.298 0l9.702-5.601a3.297 3.297 0 0 0 1.649-2.856v-11.202a3.297 3.297 0 0 0 -1.649-2.856l-9.701-5.602a3.297 3.297 0 0 0 -1.572-.44z" opacity=".2"/><path d="m16.078 1a3.297 3.297 0 0 0 -1.726.441l-9.704 5.602a3.297 3.297 0 0 0 -1.648 2.855v11.204a3.297 3.297 0 0 0 .77 2.113l12.23-9.89 12.229 9.89a3.297 3.297 0 0 0 .771-2.113v-11.204a3.297 3.297 0 0 0 -1.648-2.857l-9.704-5.6a3.297 3.297 0 0 0 -1.57-.441zm-12.308 22.215a3.297 3.297 0 0 0 .222.242 3.297 3.297 0 0 1 -.222-.242zm.222.242a3.297 3.297 0 0 0 .197.176 3.297 3.297 0 0 1 -.197-.176zm24.233-.236a3.297 3.297 0 0 1 -.596.556 3.297 3.297 0 0 0 .596-.556zm-12.631 6.754a3.297 3.297 0 0 0 .658.015 3.297 3.297 0 0 1 -.658-.015z" fill="#0073d6"/><path d="m16.078 1a3.297 3.297 0 0 0 -1.726.441l-9.704 5.602a3.297 3.297 0 0 0 -1.648 2.855v1a3.297 3.297 0 0 1 1.648-2.855l9.704-5.602a3.297 3.297 0 0 1 1.726-.441 3.297 3.297 0 0 1 1.57.441l9.704 5.6a3.297 3.297 0 0 1 1.648 2.857v-1a3.297 3.297 0 0 0 -1.648-2.857l-9.704-5.6a3.297 3.297 0 0 0 -1.57-.441z" fill="#f4f4f7" opacity=".1"/><path d="m16 1.002a3.297 3.297 0 0 0 -1.648.437l-9.704 5.604a3.297 3.297 0 0 0 -1.648 2.855v11.204a3.297 3.297 0 0 0 .77 2.113l12.23-9.89v-12.324zm-12.23 22.213a3.297 3.297 0 0 0 .222.242 3.297 3.297 0 0 1 -.222-.242zm.222.242a3.297 3.297 0 0 0 .197.176 3.297 3.297 0 0 1 -.197-.176z" opacity=".3"/><path d="m16 13.325-12.23 9.89a3.297 3.297 0 0 0 .88.741l9.702 5.602a3.297 3.297 0 0 0 3.298 0l9.702-5.602a3.297 3.297 0 0 0 .878-.742z" fill="#ff9e43"/><path d="m23.599 12.424 10.392 6v12l-10.392 6-10.393-6v-12z" opacity=".1" transform="matrix(.75056 0 0 .73363 -1.712 -1.625)"/><path d="m16 13.324-12.23 9.89a3.297 3.297 0 0 0 .572.538l11.658-9.428 11.658 9.428a3.297 3.297 0 0 0 .57-.537l-12.228-9.89z" fill="#f4f4f7" opacity=".2"/><path d="m23.599 12.424 10.392 6v12l-10.392 6-10.393-6v-12z" fill="#f13f3f" transform="matrix(.75056 0 0 .73363 -1.712 -2.625)"/><path d="m23.8 10.891-7.8 4.402v8.803l7.8-4.401z" opacity=".3"/><path d="m8.2 10.891v8.804l7.8 4.401v-8.803z" opacity=".1"/><path d="m16 6.49-7.8 4.4.886.5 6.914-3.901 6.914 3.903.887-.5z" fill="#f4f4f7" opacity=".2"/><path d="m8.2 10.89v1l7.8 4.403 7.8-4.402v-1l-7.8 4.402-7.8-4.402z" opacity=".1"/></svg>