<svg height="32" viewBox="0 0 8.467 8.467" width="32" xmlns="http://www.w3.org/2000/svg">
    <path d="M4.233.265a3.96 3.96 0 0 1 3.97 3.968 3.96 3.96 0 0 1-3.97 3.97 3.96 3.96 0 0 1-3.968-3.97A3.96 3.96 0 0 1 4.233.265z" fill="#6e7cd4"/>
    <path d="M4.233.53c2.052 0 3.705 1.651 3.705 3.703S6.284 7.938 4.232 7.938.53 6.285.53 4.233 2.181.53 4.233.53z" fill="#93a0e6"/>
    <path d="M4.233 1.323c-1.02 0-1.852.832-1.852 1.852a.265.265 0 0 0 .265.265h.794a.265.265 0 0 0 .264-.265c0-.295.234-.53.53-.53s.528.235.528.53c0 .21-.056.341-.155.476-.099.136-.25.266-.419.419-.338.304-.748.737-.748 1.486a.265.265 0 0 0 .264.265h.794a.265.265 0 0 0 .264-.265c0-.21.057-.34.156-.476.099-.136.25-.266.419-.418.338-.304.748-.737.748-1.487 0-1.02-.832-1.852-1.852-1.852zm-.132 4.762a.66.66 0 0 0-.661.662.66.66 0 0 0 .661.661.66.66 0 0 0 .661-.661.66.66 0 0 0-.661-.662z" fill="#ebedfa"/>
</svg>
