<svg xmlns="http://www.w3.org/2000/svg" width="32" height="32"><path fill="#1e88e5" d="M3.4 4C2.625 4 2 4.625 2 5.4V23h28V5.4c0-.776-.625-1.401-1.4-1.401H3.4z"/><path fill="#253951" d="M3.4 29c-.776 0-1.4-.624-1.4-1.4V23h28v4.6c0 .776-.624 1.4-1.4 1.4z"/><circle opacity=".2" cx="17.5" cy="26.5" r="1.5"/><circle opacity=".2" cx="22.5" cy="26.5" r="1.5"/><circle opacity=".2" cx="27.5" cy="26.5" r="1.5"/><circle fill="#fff" opacity=".72" cx="17.5" cy="25.5" r="1.5"/><circle fill="#fff" opacity=".72" cx="22.5" cy="25.5" r="1.5"/><circle fill="#fff" opacity=".72" cx="27.5" cy="25.5" r="1.5"/><path fill="#fff" opacity=".1" d="M3.4 4C2.625 4 2 4.625 2 5.4v1C2 5.625 2.625 5 3.4 5h25.2c.775 0 1.4.625 1.4 1.4v-1c0-.775-.625-1.4-1.4-1.4H3.4z"/><path opacity=".2" d="M2 27.6v1c0 .775.625 1.4 1.4 1.4h25.2c.775 0 1.4-.625 1.4-1.4v-1c0 .775-.625 1.4-1.4 1.4H3.4c-.775 0-1.4-.625-1.4-1.4z"/></svg>