<svg height="32" width="32" xmlns="http://www.w3.org/2000/svg"><path d="m16.078 3c-.49.005-.962.034-1.384.096-1.558.262-3.097.857-4.425 1.53-3.972 2.045-8.349 7.166-8.269 11.026l.008-.007c.002.136.027.297.074.48.127.495.41 1.156.825 1.936.83 1.56 2.187 3.599 3.876 5.746 2.585 3.286 5.196 5.874 6.658 6.697h.002c1.027.676 1.918.497 2.23.4 1.035-.188 3.338-1.681 6.157-4.087 4.063-3.467 7.672-7.526 8.109-9.114l.016.026c.677-6.415-6.599-11.736-7.53-12.421a9.845 9.845 0 0 0 -6.348-2.308z" opacity=".2"/><path d="m16.078 2c-.49.005-.962.034-1.384.096-1.558.262-3.097.857-4.425 1.53-3.972 2.045-8.349 7.166-8.269 11.026l.008-.007c.002.136.027.297.074.48.127.495.41 1.156.825 1.936.83 1.56 2.187 3.599 3.876 5.746 2.585 3.286 5.196 5.874 6.658 6.697h.002c1.027.676 1.918.497 2.23.4 1.035-.188 3.338-1.681 6.157-4.087 4.063-3.467 7.672-7.526 8.109-9.114l.016.026c.677-6.415-6.599-11.736-7.53-12.421a9.845 9.845 0 0 0 -6.348-2.308z" fill="#0060d6"/><path d="m29.54 16.064a1.643 10.04 47.182 0 0 -14.42 13.256 1.643 10.04 47.182 1 0 14.83-12.655 1.643 10.04 47.182 0 0 -.41-.6zm-13.249-14.06a10 9.97 0 0 0 -10.29 9.966 10 9.97 0 1 0 19.999 0 10 9.97 0 0 0 -9.709-9.966z" fill="#f4f4f7" opacity=".15"/><path d="m21.292-14.699h16.301v3.448h-5.863v14.24h-4.561v-14.24h-5.876z" opacity=".2" transform="matrix(.46559 .53104 -.51709 .47815 -1.104 .722)"/><g fill="#f4f4f7"><path d="m21.292-14.699h16.301v3.448h-5.863v14.24h-4.561v-14.24h-5.876z" transform="matrix(.46559 .53104 -.51709 .47815 -1.104 -.279)"/><path d="m6.647 20.51h1.933v6.03h3.39v1.46h-5.322z" transform="matrix(1.02323 1.2684 -.0371 .43289 -.8 -.8)"/><path d="m32.484 126.85q-.558.27-1.16.407-.602.136-1.242.136-1.448 0-2.294-.808-.846-.81-.846-2.196 0-1.401.862-2.205.862-.803 2.36-.803.578 0 1.106.109.531.108 1.001.322v1.199q-.485-.276-.966-.411-.478-.136-.959-.136-.893 0-1.378.5-.481.497-.481 1.425 0 .92.466 1.42.465.5 1.323.5.233 0 .43-.026.203-.031.362-.094v-1.125h-.912v-1.001h2.328z" transform="matrix(1.34533 -1.22839 -.13079 .48364 -.8 -.8)"/><path d="m16.078 2c-.49.005-.963.033-1.385.096-1.558.261-3.096.858-4.423 1.531-3.972 2.045-8.35 7.166-8.268 11.025l.006-.007c.001.064.026.152.037.228.453-3.743 4.515-8.336 8.225-10.246 1.327-.673 2.865-1.27 4.423-1.531.422-.063.895-.09 1.385-.096 2.415 0 4.63.868 6.348 2.309.863.634 7.147 5.241 7.543 11.01.334-6.23-6.631-11.34-7.543-12.01a9.848 9.848 0 0 0 -6.348-2.309z" opacity=".1"/></g></svg>