<svg xmlns="http://www.w3.org/2000/svg" width="32" height="32" version="1"><rect style="opacity:.2" width="28" height="28" x="2" y="3" rx="8.4" ry="8.4"/><rect style="fill:#4e91d9" width="28" height="28" x="2" y="2" rx="8.4" ry="8.4"/><path style="opacity:.2" d="M16 6C9.925 6 5 10.925 5 17s4.925 11 11 11 11-4.925 11-11S22.075 6 16 6zm-4 6.5V15h8v-2.5l6 4.5-6 4.5V19h-8v2.5L6 17z"/><path style="fill:#f4f4f7" d="M16 5C9.925 5 5 9.925 5 16s4.925 11 11 11 11-4.925 11-11S22.075 5 16 5zm-4 6.5V14h8v-2.5l6 4.5-6 4.5V18h-8v2.5L6 16z"/><path style="fill:#f4f4f7;opacity:.2" d="M10.4 2A8.382 8.382 0 0 0 2 10.4v1C2 6.747 5.747 3 10.4 3h11.2c4.653 0 8.4 3.747 8.4 8.4v-1C30 5.747 26.253 2 21.6 2H10.4z"/></svg>