<svg xmlns="http://www.w3.org/2000/svg" width="32" height="32">
    <circle style="opacity:.2" cx="16" cy="17" r="14"/>
    <circle style="fill:#127bca" cx="16" cy="16" r="14"/>
    <path style="fill:#f4f4f7;opacity:.2" d="M16 2A14 14 0 0 0 2 16a14 14 0 0 0 .021.586A14 14 0 0 1 16 3a14 14 0 0 1 13.979 13.414A14 14 0 0 0 30 16 14 14 0 0 0 16 2z"/>
    <path style="opacity:.2" d="M15.559 2 9.465 17h5.669l-2.99 6.805-1.83-2.184L9.436 32l8.084-6.746-3.028-.315L22.348 13H15.66L22.1 2z"/>
    <path style="fill:#f4f4f7" d="M15.559 1 9.465 16h5.669l-2.99 6.805-1.83-2.184L9.436 31l8.084-6.746-3.028-.315L22.348 12H15.66L22.1 1z"/>
</svg>
