<svg xmlns="http://www.w3.org/2000/svg" width="32" height="32">
    <circle style="opacity:.2" cx="16" cy="17" r="14"/>
    <circle style="fill:#ecc138" cx="16" cy="16" r="14"/>
    <path style="opacity:.1" d="M17 8.008v2.247c-1.265-.433-2.858.243-4 1.745.163-2.058.606-4.15 4-3.992z"/>
    <path style="fill:#17191e" d="M17 7.008v2.247c-1.265-.433-2.858.243-4 1.745.163-2.058.606-4.15 4-3.992z"/>
    <path style="opacity:.1" d="m19.65 8.947-1.361 2.358c1.579.305 3.076 1.872 3.353 4.134.676-1.506.68-6.177-1.991-6.492z"/>
    <path style="fill:#17191e" d="m19.65 7.947-1.361 2.358c1.579.305 3.076 1.872 3.353 4.134.676-1.506.68-6.177-1.991-6.492z"/>
    <ellipse style="opacity:.2" cx="16.294" cy="17.083" rx="4.23" ry="6.55" transform="rotate(9.336)"/>
    <ellipse style="fill:#f4f4f7" cx="16.132" cy="16.096" rx="4.23" ry="6.55" transform="rotate(9.336)"/>
    <path style="fill:#17191e" d="M15.066 16.002a1.43 2.587 18.005 0 0-1.672 1.6l2.079 1.576-2.394-.59a1.43 2.587 18.005 0 0 .723 2.38 1.43 2.587 18.005 0 0 2.15-2.07 1.43 2.587 18.005 0 0-.599-2.866 1.43 2.587 18.005 0 0-.287-.03z"/>
    <ellipse style="opacity:.2" cx="18.5" cy="20.5" rx="3.5" ry="5.5"/>
    <ellipse style="fill:#f4f4f7" cx="18.5" cy="19.5" rx="3.5" ry="5.5"/>
    <path style="fill:#17191e" d="M17.855 17.5a1.759.988 82.938 0 0-.098.008A1.759.988 82.938 0 0 17 18.796l1.344.222-1.217.873a1.759.988 82.938 0 0 1.11 1.101 1.759.988 82.938 0 0 .734-1.906 1.759.988 82.938 0 0-1.116-1.586z"/>
    <path style="fill:#f4f4f7;opacity:.2" d="M16 2A14 14 0 0 0 2 16a14 14 0 0 0 .021.586A14 14 0 0 1 16 3a14 14 0 0 1 13.979 13.414A14 14 0 0 0 30 16 14 14 0 0 0 16 2z"/>
</svg>
