<svg height="32" width="32" xmlns="http://www.w3.org/2000/svg"><path d="m20.115 3c-.697.008-.897.07-1.334.227-4.738 1.937-9.294 3.853-15.006 5.468-1.367.319-1.943 1.05-1.732 2.198 0 0 1.039 9.824 1.039 10.408s.52 3.332.451 4.328c-.07.996-.867 4.053-.97 4.465-.104.412-.001.686.103.892.067.132 1.532-.712 2.957-1.623a97.63 97.63 0 0 1 4.963-3.271c4.544-2.536 9.14-4.996 13.533-7.713.526-.319 1.992-1.225 2.961-1.818.33-.196.662-.387.99-.584v-.024c.747-.46.929-.565 1.93-1.185-.04-1.762-.632-3.84-1.285-5.264-.283-.614-.424-.596-1.059-.172-.345.252-.739.668-1.117.969-.025.021-.194.176-.232.209-.987-1.753-2.326-3.79-3.936-6.405-.576-.816-1.558-1.112-2.256-1.105z" opacity=".2"/><path d="m2.042 9.893s1.04 9.823 1.04 10.407.52 3.332.45 4.328c-.069.996-.866 4.053-.97 4.465s0 .687.104.893c.067.132 1.531-.713 2.956-1.623 7.089-5.022 14.989-8.892 22.449-13.387.153-3.1-2.166-6.13-5.7-11.87-.576-.817-1.559-1.113-2.256-1.106-.698.008-.897.07-1.334.226-4.738 1.937-9.294 3.853-15.006 5.468-1.367.319-1.944 1.05-1.733 2.199z" fill="#932c93"/><path d="m20.115 2c-.697.008-.897.07-1.334.227-4.738 1.937-9.294 3.853-15.006 5.468-1.367.319-1.943 1.05-1.732 2.198l.014.134c.166-.657.735-1.103 1.718-1.332 5.712-1.615 10.268-3.531 15.006-5.468.437-.156.637-.22 1.334-.227.698-.007 1.68.29 2.256 1.105 3.163 5.138 5.347 8.104 5.662 10.893l.037-.021c.153-3.1-2.165-6.131-5.699-11.872-.576-.816-1.558-1.112-2.256-1.105zm-16.613 22.834c-.13 1.127-.84 3.868-.94 4.26-.085.34-.022.572.06.763.169-.665.846-3.29.911-4.228a6.4 6.4 0 0 0 -.031-.795z" fill="#f4f4f7" opacity=".1"/><path d="m26.392 9.66c-10.07 5.34-16.83 8.277-23.266 11.074.04.368.106.848.187 1.43 6.22-2.562 15.76-7.033 23.734-11.237-.09-.188-.183-.377-.284-.572l-.26-.5c-.034-.063-.076-.13-.11-.193zm1.094 2.241c-10.08 5.344-17.554 8.832-24.004 11.639.044.435.069.825.05 1.088-.007.107-.049.309-.071.459 6.226-2.563 15.982-7.159 23.963-11.367l.066-1.81z" opacity=".4"/><path d="m9.914 25.465s9.224-9.12 10.841-10.797c1.618-1.676 5.245-4.906 5.785-5.367.378-.301.773-.717 1.118-.97.635-.423.774-.441 1.057.172.653 1.424 1.246 3.504 1.286 5.265a627.89 627.89 0 0 1 -5.881 3.611c-4.61 2.85-9.443 5.417-14.205 8.086z" fill="#b72dc5"/><path d="m28.318 8.027c-.15-.019-.344.093-.662.305-.345.252-.739.668-1.117.969-.54.461-4.166 3.691-5.783 5.367-1.618 1.676-10.842 10.797-10.842 10.797.763-.428 1.53-.851 2.295-1.276 2.621-2.595 7.315-7.245 8.547-8.521 1.617-1.676 5.244-4.906 5.783-5.367.378-.301.772-.717 1.117-.969.635-.424.776-.442 1.059.172.54 1.177 1.02 2.793 1.2 4.316l.085-.052c-.04-1.762-.632-3.84-1.285-5.264-.141-.307-.247-.458-.397-.477z" fill="#f4f4f7" opacity=".2"/></svg>