<svg xmlns="http://www.w3.org/2000/svg" width="32" height="32"><path fill="#5bb1ec" d="M25.033 6.6c-8.591 4.362-13.981 11.073-18.809 18.194 2.247.934 5.16 1.889 8.174 2.723 5.535-2.921 10.979-5.957 13.284-12.853-.807-2.938-1.734-5.796-2.65-8.065z"/><path fill="#2588c6" d="M21.839 2c-3.804.32-20.596 17.251-19.812 20.184.2.742 1.831 1.696 4.197 2.68L25.033 6.668c-1.052-2.606-2.08-4.435-2.868-4.645a.924.924 0 0 0-.326-.022z"/><path fill="#b1daf6" d="M27.682 14.7 14.398 27.553c6.768 1.875 14.003 3.114 15.156 1.955 1.137-1.138-.048-8.146-1.876-14.809z"/><path opacity=".2" d="M2.117 22.3c-.106.33-.144.61-.09.814.2.742 1.83 1.697 4.196 2.68l.013-.014c-.004.01-.007.012-.011.017 2.247.934 5.16 1.888 8.173 2.723 6.768 1.875 14.002 3.114 15.154 1.955.342-.341.454-1.255.422-2.484-.047.716-.18 1.24-.422 1.482-1.152 1.159-8.386-.08-15.154-1.955-3.013-.835-5.926-1.79-8.173-2.723.004-.01.007-.01.011-.017l-.013.014c-2.176-.904-3.716-1.781-4.106-2.494z"/><path fill="#fff" opacity=".2" d="M21.84 2.004c-3.804.32-20.596 17.25-19.813 20.184.016.059.056.12.09.183C3.535 17.96 18.302 3.3 21.84 3.004V3a.92.92 0 0 1 .324.023c.787.21 1.816 2.039 2.867 4.645l-.015.015c.006 0 .011-.01.017-.01.916 2.27 1.842 5.127 2.65 8.065-.002 0-.002.01-.003.01 1.28 4.665 2.223 9.452 2.295 12.32.175-2.642-.859-8.08-2.295-13.318l.002-.008c-.807-2.938-1.733-5.796-2.649-8.064l-.017.01.015-.016c-1.05-2.606-2.08-4.435-2.867-4.645a.922.922 0 0 0-.326-.021l.002-.002z"/></svg>