<svg width="32" height="32" xmlns="http://www.w3.org/2000/svg"><path d="M19 3c-1.108 0-2 .892-2 2v9c0 1.108.892 2 2 2h9c1.108 0 2-.892 2-2V5c0-1.108-.892-2-2-2zm-6.059.002a2 2 0 0 0-1.355.584l-9 9C1.326 13.846 2.219 15.999 4 16h9a2 2 0 0 0 2-2V5a2 2 0 0 0-2.059-1.998zM4 18c-1.108 0-2 .892-2 2v9c0 1.108.892 2 2 2h9c1.108 0 2-.892 2-2v-9c0-1.108-.892-2-2-2zm15 0c-1.108 0-2 .892-2 2v9c0 1.108.892 2 2 2h9c1.108 0 2-.892 2-2v-9c0-1.108-.892-2-2-2z" style="opacity:.2"/><rect x="17" y="2" width="13" height="13" rx="2" ry="2" style="fill:#3bde3b"/><rect x="17" y="17" width="13" height="13" rx="2" ry="2" style="fill:#ff3376"/><rect x="2" y="17" width="13" height="13" rx="2" ry="2" style="fill:#3679ff"/><path d="M12.941 2.002a2 2 0 0 0-1.355.584l-9 9C1.326 12.846 2.219 14.999 4 15h9a2 2 0 0 0 2-2V4a2 2 0 0 0-2.059-1.998z" style="fill:#fcff20"/><path d="M21 4c-1.108 0-2 .892-2 2v5c0 1.108.892 2 2 2h5c1.108 0 2-.892 2-2V6c0-1.108-.892-2-2-2h-5zM10.941 6.002a2 2 0 0 0-1.355.584l-3 3A2 2 0 0 0 8 13h3a2 2 0 0 0 2-2V8a2 2 0 0 0-2.059-1.998zM6 19c-1.108 0-2 .892-2 2v5c0 1.108.892 2 2 2h5c1.108 0 2-.892 2-2v-5c0-1.108-.892-2-2-2H6zm15 0c-1.108 0-2 .892-2 2v5c0 1.108.892 2 2 2h5c1.108 0 2-.892 2-2v-5c0-1.108-.892-2-2-2h-5z" style="fill:#f4f4f7;opacity:.6"/><path d="M19 2c-1.108 0-2 .892-2 2v1c0-1.108.892-2 2-2h9c1.108 0 2 .892 2 2V4c0-1.108-.892-2-2-2h-9zm-6.059.002a2 2 0 0 0-1.355.584l-9 9c-.55.55-.671 1.265-.506 1.902.085-.32.237-.633.506-.902l9-9A2 2 0 0 1 15 5V4a2 2 0 0 0-2.059-1.998zM4 17c-1.108 0-2 .892-2 2v1c0-1.108.892-2 2-2h9c1.108 0 2 .892 2 2v-1c0-1.108-.892-2-2-2H4zm15 0c-1.108 0-2 .892-2 2v1c0-1.108.892-2 2-2h9c1.108 0 2 .892 2 2v-1c0-1.108-.892-2-2-2h-9z" style="fill:#f4f4f7;opacity:.2"/></svg>