<svg xmlns="http://www.w3.org/2000/svg" width="32" height="32" version="1"><path fill="#2b97e9" d="M4.39 7C3.62 7 3 7.613 3 8.375v16.3C3 25.437 3.62 26 4.39 26H13l3 3 3-3h8.611c.77 0 1.388-.563 1.388-1.325v-16.3C29 7.613 28.38 7 27.61 7z"/><path fill="#fff" opacity=".2" d="M4.39 7C3.62 7 3 7.613 3 8.375v1C3 8.613 3.62 8 4.39 8H27.61c.77 0 1.39.613 1.39 1.375v-1C29 7.613 28.38 7 27.61 7z"/><path opacity=".6" d="M24 11.536a6.563 6.563 0 0 1-1.885.517 3.292 3.292 0 0 0 1.443-1.816 6.573 6.573 0 0 1-2.085.796 3.283 3.283 0 0 0-5.594 2.994 9.32 9.32 0 0 1-6.765-3.43 3.281 3.281 0 0 0 1.016 4.383 3.27 3.27 0 0 1-1.487-.41v.04a3.284 3.284 0 0 0 2.633 3.22 3.288 3.288 0 0 1-1.483.056 3.286 3.286 0 0 0 3.067 2.28A6.586 6.586 0 0 1 8 21.525 9.292 9.292 0 0 0 13.033 23c6.038 0 9.34-5.002 9.34-9.34 0-.142-.004-.284-.01-.424a6.672 6.672 0 0 0 1.638-1.7"/><path opacity=".2" d="M3 24.676v1C3 26.438 3.621 27 4.39 27H13l3 3 3-3h8.611c.77 0 1.39-.562 1.39-1.324v-1c0 .762-.62 1.324-1.39 1.324h-8.61l-3 3-3-3H4.39C3.62 26 3 25.438 3 24.676z"/></svg>