<svg xmlns="http://www.w3.org/2000/svg" width="32" height="32"><path style="opacity:.2" d="M16 3A14 14 0 0 0 2 17a14 14 0 0 0 14 14 14 14 0 0 0 14-14A14 14 0 0 0 16 3z"/><path style="fill:#243a85" d="M16 2A14 14 0 0 0 2 16a14 14 0 0 0 14 14 14 14 0 0 0 14-14A14 14 0 0 0 16 2z"/><path style="opacity:.2" d="M15.945 26.077c-2.32-.302-4.54-.985-5.876-2.137-.378-.326-1.135-1.118-1.069-1.14.216.042.669.242 1.11.254.441.012.673-.454.89-.81v-3.731c0-4.115.094-4.045-.197-4.3-.353-.308-1.397-.212-2.101.26-1.074.719-2.354 2.314-3.263 3.973a9.18 9.18 0 0 1-.324.564c-.017.015-.02-.305-.007-.711.036-1.121.244-1.905.814-3.063.52-1.055.782-1.337 1.891-2.546 1.841-2.005 3.658-3.39 5.456-4.16.424-.181 1.74-.53 1.831-.53.015 0-.62.37-.768.478-.89.651-1.199 1.104-1.328 1.896-.096.586.236 1.298.495 1.588.133.15.183.176.369.193.255-.026.87-.133 1.132-.155v9.3c0 .7.299.744.994.744.707 0 1.307-.532 2.006-.986v-7.833l-.248-.897c-.103-.37-.38-.813-.752-1.328.716.013 1.174.87 1.8 1.1 1.825-1.445 3.116-2.618 5.2-3.1-.908 1.438-1.03 2.051-2 3.45v8.37c.099.118.62.268.862.29 1.647-.233 2.044-1.16 3.138-2.11.032.032-.85 1.695-1.221 2.252-1.134 1.7-2.766 2.76-4.276 3.72-.283.18-.286.181-.384.104-.713-.325-1.119-.501-1.949-1.13-.81.771-1.204 1.335-2.05 2.154l-.175-.023z"/><path style="fill:#f4f4f7" d="M15.945 25.077c-2.32-.302-4.54-.985-5.876-2.137-.378-.326-1.135-1.118-1.069-1.14.216.042.669.242 1.11.254.441.012.673-.454.89-.81v-3.731c0-4.115.094-4.045-.197-4.3-.353-.308-1.397-.212-2.101.26-1.074.719-2.354 2.314-3.263 3.973a9.18 9.18 0 0 1-.324.564c-.017.015-.02-.305-.007-.711.036-1.121.244-1.905.814-3.063.52-1.055.782-1.337 1.891-2.546 1.841-2.005 3.658-3.39 5.456-4.16.424-.181 1.74-.53 1.831-.53.015 0-.62.37-.768.478-.89.651-1.199 1.104-1.328 1.896-.096.586.236 1.298.495 1.588.133.15.183.176.369.193.255-.026.87-.133 1.132-.155v9.3c0 .7.299.744.994.744.707 0 1.307-.532 2.006-.986v-7.833l-.248-.897c-.103-.37-.38-.813-.752-1.328.716.013 1.174.87 1.8 1.1C20.625 9.655 21.916 8.482 24 8c-.908 1.438-1.03 2.051-2 3.45v8.37c.099.118.62.268.862.29 1.647-.233 2.044-1.16 3.138-2.11.032.032-.85 1.695-1.221 2.252-1.134 1.7-2.766 2.76-4.276 3.72-.283.18-.286.181-.384.104-.713-.325-1.119-.501-1.949-1.13-.81.771-1.204 1.335-2.05 2.154l-.175-.023z"/><path style="opacity:.1;fill:#f4f4f7" d="M16 2A14 14 0 0 0 2 16a14 14 0 0 0 .021.414A14 14 0 0 1 16 3a14 14 0 0 1 13.979 13.586A14 14 0 0 0 30 16 14 14 0 0 0 16 2z"/></svg>