<svg enable-background="new 0 0 1024 1024" height="64" image-rendering="optimizeSpeed" width="64" xmlns="http://www.w3.org/2000/svg">
    <linearGradient id="c" gradientUnits="userSpaceOnUse" x1="34.708" x2="20.137" y1="47.212" y2="14.019">
        <stop offset="0" stop-color="#fff"/>
        <stop offset="1" stop-color="#cbb0ea"/>
    </linearGradient>
    <filter id="b" color-interpolation-filters="sRGB" height="1.12" width="1.12" x="-.06" y="-.06">
        <feGaussianBlur stdDeviation=".212"/>
    </filter>
    <linearGradient id="a" gradientTransform="matrix(4.74948 0 0 4.70651 -9.363 -9.002)" gradientUnits="userSpaceOnUse" x1="32.241" x2="32.241" y1="59.651" y2="3.759">
        <stop offset="0" stop-color="#7d519e"/>
        <stop offset="1" stop-color="#a987c2"/>
    </linearGradient>
    <g image-rendering="auto">
        <path d="M16.514 2C8.524 2 2 8.74 2 16.998v32.004C2 57.259 8.523 64 16.514 64h30.972C55.476 64 62 57.26 62 49.002V16.998C62 8.741 55.477 2 47.486 2zm.972 1.969h29.03c6.97 0 12.583 5.798 12.583 13.002v29.998c0 7.203-5.612 13.001-12.583 13.001h-29.03c-6.971 0-12.583-5.798-12.583-13.001V16.97c0-7.204 5.612-13.002 12.583-13.002z" opacity=".01"/>
        <path d="M16.474 3C9.04 3 3.004 9.247 3.004 16.938v32.125C3.004 56.753 9.04 63 16.474 63h31.054C54.962 63 61 56.753 61 49.063V16.938C61 9.247 54.962 3 47.528 3zm1.029.969h28.996c6.963 0 12.568 5.798 12.568 13.002v29.997c0 7.204-5.605 13.002-12.568 13.002H17.503c-6.963 0-12.568-5.798-12.568-13.002V16.971c0-7.204 5.606-13.002 12.568-13.002z" opacity=".01"/>
        <path d="M16.289 4C9.237 4 3.532 9.814 3.532 16.998v32.004C3.532 56.186 9.466 62 16.518 62h30.991c7.052 0 12.954-5.814 12.954-12.998V16.998C60.463 9.814 54.756 4 47.705 4h-.366c6.78.327 12.147 5.979 12.147 12.97V46.97c0 7.203-5.692 13.002-12.763 13.002H17.28c-7.071 0-12.763-5.8-12.763-13.002V16.97C4.516 9.979 9.883 4.328 16.663 4z" opacity=".03"/>
        <path d="M4 46.97V49c0 6.648 5.896 12 12.544 12h30.961C54.153 61 60 55.649 60 49v-1.992a12.972 12.972 0 0 1-13 12.963H17.002A12.973 12.973 0 0 1 4 46.97z" opacity=".03"/>
        <path d="M4 45v2.239c0 7.327 5.945 13.226 12.593 13.226h30.842c6.648 0 12.565-5.9 12.565-13.226v-2.196c-.021 7.919-5.81 14.287-13 14.287H17.002C9.8 59.33 4 52.94 4 45z" opacity=".05"/>
    </g>
    <rect fill="url(#a)" height="56" rx="13.002" width="56" x="4" y="4"/>
    <path d="M9.193 4.233a.34.34 0 0 0-.342.329.34.34 0 0 0 .34.333c.809.007 1.473.262 2.01.766.529.499.805 1.19.812 2.092v.001a.34.34 0 0 0 .346.327.34.34 0 0 0 .34-.333 4.008 4.008 0 0 0-.256-1.436 3.1 3.1 0 0 0-.763-1.126c-.662-.624-1.51-.946-2.484-.953h-.003zm-3.47.778a.687.687 0 0 0-.413.07h-.012l-.015.01a3.05 3.05 0 0 0-.736.597l-.018.02v.017c-.16.198-.264.397-.288.597-.008.034-.008.064-.008.097 0 .09.014.183.042.274l.007.025.016.01c.09.31.296.794.746 1.614.3.543.606.997.91 1.38.16.2.342.41.553.62l.021.02.02.022.02.021h.002a.24.24 0 0 1 .014.014l.003.005.004.004c.21.208.419.39.622.55.381.304.835.613 1.378.913.82.453 1.31.657 1.619.746l.01.014.02.007a.812.812 0 0 0 .369.034c.212-.025.421-.126.629-.3l.002-.003.002-.001.004-.004.004-.005c.246-.224.444-.468.593-.73l.01-.016v-.016c.137-.285.083-.576-.14-.762a23.526 23.526 0 0 0-.65-.522 7.732 7.732 0 0 0-.705-.45c-.348-.194-.712-.081-.872.126l-.28.351c-.113.142-.339.129-.345.128-1.902-.489-2.413-2.4-2.417-2.415 0-.005-.013-.232.129-.347l.35-.28c.207-.158.324-.522.128-.87-.102-.18-.3-.5-.45-.705-.08-.108-.21-.27-.32-.406l-.142-.174-.044-.053-.013-.014-.004-.005a.591.591 0 0 0-.356-.208zm3.49.762a.338.338 0 0 0-.36.302.333.333 0 0 0 .312.348c.453.032.758.165.988.408.235.248.341.53.332.917v.002a.333.333 0 0 0 .33.332h.008a.334.334 0 0 0 .337-.319c.012-.53-.16-1.004-.51-1.372-.35-.369-.845-.576-1.436-.618z" filter="url(#b)" opacity=".15" transform="matrix(3.23853 0 0 3.23853 4.581 5.581)"/>
    <path d="M34.354 19.29c-.602 0-1.102.482-1.108 1.065-.003.585.496 1.077 1.103 1.08 2.617.02 4.769.847 6.504 2.478 1.715 1.616 2.609 3.856 2.631 6.777v.003c.007.581.507 1.061 1.11 1.061l.013-.002c.605-.006 1.107-.494 1.102-1.079v-.002c-.014-1.703-.29-3.269-.832-4.647a10.038 10.038 0 0 0-2.469-3.649c-2.146-2.019-4.889-3.062-8.045-3.084h-.01zm-11.242 2.52c-.422-.072-.88.007-1.336.227h-.036l-.051.029c-.847.48-1.64 1.126-2.383 1.935l-.059.063v.059c-.514.64-.854 1.286-.932 1.932-.025.11-.025.209-.025.314 0 .295.044.593.134.887l.025.082.05.03c.294 1.007.96 2.574 2.418 5.228.97 1.76 1.963 3.229 2.948 4.467.519.65 1.107 1.328 1.789 2.01.008.009.037.038.068.066.011.011.026.034.063.071l.069.068h.004l.044.046.012.015.013.012a23.379 23.379 0 0 0 2.013 1.782 31.879 31.879 0 0 0 4.464 2.958c2.657 1.466 4.24 2.128 5.24 2.417l.038.044.06.021c.284.095.58.139.872.134.118.007.223-.002.324-.024.686-.08 1.365-.405 2.037-.969l.008-.01.007-.005c.01-.01.004-.005.01-.012.006-.005.008-.012.015-.017a9.77 9.77 0 0 0 1.92-2.361l.032-.054v-.05c.444-.925.268-1.868-.453-2.469a76.231 76.231 0 0 0-.793-.655c-.44-.357-.962-.778-1.313-1.036a25.038 25.038 0 0 0-2.281-1.456h-.003c-1.126-.631-2.303-.264-2.821.406l-.908 1.137c-.366.461-1.098.417-1.117.416-6.16-1.584-7.815-7.777-7.826-7.82-.001-.02-.046-.753.416-1.125L27 29.697c.672-.515 1.05-1.692.416-2.821-.33-.584-.97-1.62-1.456-2.281h-.002c-.26-.35-.68-.875-1.037-1.314-.179-.22-.341-.422-.46-.565l-.141-.17-.042-.047-.012-.014a1.915 1.915 0 0 0-1.154-.675zM34.42 24.28c-.593-.042-1.127.403-1.17.976-.044.573.419 1.085 1.012 1.127 1.467.103 2.457.535 3.201 1.321v.003c.76.801 1.105 1.716 1.076 2.967v.005c-.012.576.47 1.063 1.066 1.076h.027c.588 0 1.078-.464 1.09-1.032.04-1.72-.519-3.253-1.647-4.443-1.134-1.195-2.74-1.865-4.654-2z" fill="url(#c)"/>
</svg>
