<svg height="32" width="32" xmlns="http://www.w3.org/2000/svg"><path d="m2 7.9v19.711c0 .77.624 1.389 1.4 1.389h25.2c.776 0 1.4-.619 1.4-1.389v-19.711z" opacity=".2"/><path d="m2 6.9v19.711c0 .77.624 1.389 1.4 1.389h25.2c.776 0 1.4-.619 1.4-1.389v-19.711z" fill="#17191e"/><path d="m16 6.9v21.1h12.601a1.39 1.39 0 0 0 1.399-1.389v-19.711z" fill="#4f4f4f"/><path d="m3.4 3c-.776 0-1.4.62-1.4 1.389v2.611h28v-2.611a1.39 1.39 0 0 0 -1.4-1.389z" fill="#c8c8c8"/><path d="m2 7h28v1h-28z" opacity=".2"/><path d="m3.4 3c-.776 0-1.4.62-1.4 1.389v1c0-.77.624-1.389 1.4-1.389h25.2c.776 0 1.4.62 1.4 1.389v-1c0-.77-.624-1.389-1.4-1.389z" fill="#f4f4f7" opacity=".2"/><path d="m17.663 12-3.117 6.883-2.886-5.883h-3.34l4.932 10.061 2.714-.042 4.991-11.019zm3.337 3v2h2v-2zm0 3v5h2v-5z" opacity=".2"/><path d="m17.663 11-3.117 6.883-2.886-5.883h-3.34l4.932 10.06 2.714-.041 4.991-11.019zm3.337 3v2h2v-2zm0 3v5h2v-5z" fill="#1b6cff"/></svg>