<svg xmlns="http://www.w3.org/2000/svg" width="32" height="32" version="1"><path style="opacity:.2" d="M2 7.9v19.711C2 28.381 2.624 29 3.4 29h25.2c.776 0 1.4-.619 1.4-1.389V7.9z"/><path style="fill:#17191e" d="M2 6.9v19.711C2 27.381 2.624 28 3.4 28h25.2c.776 0 1.4-.619 1.4-1.389V6.9z"/><path style="fill:#4f4f4f" d="M16 6.9V28h12.601A1.39 1.39 0 0 0 30 26.611V6.9z"/><path style="fill:#c8c8c8" d="M3.4 3C2.624 3 2 3.62 2 4.389V7h28V4.389A1.39 1.39 0 0 0 28.6 3z"/><path style="opacity:.2" d="M2 7h28v1H2z"/><path style="fill:#f4f4f7;opacity:.2" d="M3.4 3C2.624 3 2 3.62 2 4.389v1C2 4.619 2.624 4 3.4 4h25.2c.776 0 1.4.62 1.4 1.389v-1C30 3.619 29.376 3 28.6 3H3.4z"/><path style="opacity:.2" d="m17.663 12-3.117 6.883L11.66 13h-3.34l4.932 10.061 2.714-.042L20.957 12zM21 15v2h2v-2zm0 3v5h2v-5z"/><path style="fill:#1b6cff" d="m17.663 11-3.117 6.883L11.66 12h-3.34l4.932 10.06 2.714-.041L20.957 11zM21 14v2h2v-2zm0 3v5h2v-5z"/></svg>