<svg height="64" viewBox="0 0 16.933 16.933" width="64" xmlns="http://www.w3.org/2000/svg">
    <linearGradient id="b" gradientUnits="userSpaceOnUse" x1="3.125" x2="13.683" y1="3.22" y2="13.65">
        <stop offset="0" stop-color="#ffeb37"/>
        <stop offset="1" stop-color="#fdc31c"/>
    </linearGradient>
    <linearGradient id="a" gradientUnits="userSpaceOnUse" x1="30.312" x2="30.312" y1="-6.494" y2="-20.058">
        <stop offset="0" stop-color="#333132"/>
        <stop offset="1" stop-color="#212427"/>
    </linearGradient>
    <rect fill="url(#a)" height="14.552" image-rendering="optimizeSpeed" ry="3.439" transform="matrix(1 0 0 -1 -25.969 -4.326)" width="14.552" x="27.16" y="-20.069"/>
    <path d="M4.057 3.175c-.441 0-.882.441-.882.882v3.087c0 .44.44.882.882.882s.882-.441.882-.882V5.82l.882.882v1.323h1.323v-.442c-.014-.292.132-.439.44-.44h.441V5.82H6.702l-.881-.882h1.323c.44 0 .881-.441.881-.882s-.44-.882-.881-.882zm5.732 0c-.44 0-.882.441-.882.882s.441.882.882.882h1.323l-.882.882H8.907v1.323h.441c.293-.014.44.132.441.44v.442h1.323V6.703l.882-.882v1.323c0 .44.441.882.882.882s.882-.441.882-.882V4.057c0-.44-.441-.882-.882-.882zM5.821 8.907v1.323c0 .441.44.882.881.882h1.323V9.79h-.44c-.293.014-.44-.132-.441-.44v-.442zm3.968 0v.442c.014.292-.133.439-.44.44h-.442v1.323h1.323l.882.882H9.79c-.44 0-.882.441-.882.882s.441.882.882.882h3.087c.44 0 .882-.441.882-.882V9.79c0-.44-.441-.882-.882-.882s-.882.442-.882.882v1.323l-.882-.882V8.907z" fill="url(#b)"/>
</svg>
