<svg height="32" width="32" xmlns="http://www.w3.org/2000/svg">
    <rect height="28" opacity=".2" rx="1" width="28" x="2" y="3"/>
    <rect fill="#f4f4f7" height="28" rx="1" width="28" x="2" y="2"/>
    <path d="M3 2c-.554 0-1 .446-1 1v1c0-.554.446-1 1-1h26c.554 0 1 .446 1 1V3c0-.554-.446-1-1-1z" fill="#f4f4f7" opacity=".2"/>
    <path d="M16 9s-2.8 4.6-7 6c0 3.5 2 6 2 6s-.6-1.2-.6-4.7C14.6 14.9 16 13 16 13s1.4 1.9 5.6 3.3c0 3.5-.6 4.7-.6 4.7s2-2.5 2-6c-4.2-1.4-7-6-7-6zm0 5s-2.2 2.1-5 3.5c0 2.8 1.5 4.5 1.5 4.5s-.5-1.9-.5-4c2.8-.7 4-2 4-2s1.2 1.3 4 2c0 2.1-.5 4-.5 4s1.5-1.7 1.5-4.5c-2.8-1.4-5-3.5-5-3.5zm-8.7 2.3S6.8 18 4 18c1.4 1.4 3 4.5 3 4.5l1 .5s-.4-.4-1.8-3.9c1.4-.7 1.8-1.4 1.8-1.4zm17.4 0-.7 1.4s.4.7 1.8 1.4C24.4 22.6 24 23 24 23l1-.5s1.6-3.1 3-4.5c-2.8 0-3.3-1.7-3.3-1.7zM16 17.7s-.2.9-3 2.3c0 1.75 2 3 2 3s-1.3-1.25-1.3-2.65c2.1-.7 2.3-1.25 2.3-1.25s.2.55 2.3 1.25C18.3 21.75 17 23 17 23s2-1.25 2-3c-2.8-1.4-3-2.3-3-2.3zm-7.35 1.4s-.35.312-1.05.35c.7 1.05 1.4 2.8 1.4 2.8l.7.35s-.916-1.841-1.4-2.8H9zm14.7 0-.35.7h.7c-.484.959-1.4 2.8-1.4 2.8l.7-.35s.7-1.75 1.4-2.8c-.7-.038-1.05-.35-1.05-.35z" opacity=".1"/>
    <path d="M16 8s-2.8 4.6-7 6c0 3.5 2 6 2 6s-.6-1.2-.6-4.7C14.6 13.9 16 12 16 12s1.4 1.9 5.6 3.3c0 3.5-.6 4.7-.6 4.7s2-2.5 2-6c-4.2-1.4-7-6-7-6zm0 5s-2.2 2.1-5 3.5c0 2.8 1.5 4.5 1.5 4.5s-.5-1.9-.5-4c2.8-.7 4-2 4-2s1.2 1.3 4 2c0 2.1-.5 4-.5 4s1.5-1.7 1.5-4.5c-2.8-1.4-5-3.5-5-3.5zm-8.7 2.3S6.8 17 4 17c1.4 1.4 3 4.5 3 4.5l1 .5s-.4-.4-1.8-3.9c1.4-.7 1.8-1.4 1.8-1.4zm17.4 0-.7 1.4s.4.7 1.8 1.4C24.4 21.6 24 22 24 22l1-.5s1.6-3.1 3-4.5c-2.8 0-3.3-1.7-3.3-1.7zM16 16.7s-.2.9-3 2.3c0 1.75 2 3 2 3s-1.3-1.25-1.3-2.65c2.1-.7 2.3-1.25 2.3-1.25s.2.55 2.3 1.25C18.3 20.75 17 22 17 22s2-1.25 2-3c-2.8-1.4-3-2.3-3-2.3zm-7.35 1.4s-.35.312-1.05.35c.7 1.05 1.4 2.8 1.4 2.8l.7.35s-.916-1.841-1.4-2.8H9zm14.7 0-.35.7h.7c-.484.959-1.4 2.8-1.4 2.8l.7-.35s.7-1.75 1.4-2.8c-.7-.038-1.05-.35-1.05-.35z" fill="#277390"/>
</svg>
