<svg height="32" width="32" xmlns="http://www.w3.org/2000/svg">
    <circle cx="16" cy="17" opacity=".2" r="14"/>
    <circle cx="16" cy="16" fill="#00aef0" r="14"/>
    <path d="m15 7.404-.596.188L7 9.904v4.453l3.916 2.45L7 18.766v4.418l7.2 3.148.8.352v-4.366l-3.287-1.44L15 19.235v-4.593l-3.25-2.032L15 11.594zm2 0v4.19l3.25 1.015L17 14.641v4.593l3.287 1.645L17 22.319v4.365l.8-.352 7.2-3.148v-4.418l-3.916-1.96L25 14.358V9.904l-7.404-2.312z" opacity=".2"/>
    <g fill="#f4f4f7">
        <path d="m15 6.404-.596.188L7 8.904v4.453l3.916 2.45L7 17.766v4.418l7.2 3.148.8.352v-4.366l-3.287-1.44L15 18.235v-4.593l-3.25-2.032L15 10.594zm2 0v4.19l3.25 1.015L17 13.641v4.593l3.287 1.645L17 21.319v4.365l.8-.352 7.2-3.148v-4.418l-3.916-1.96L25 13.358V8.904l-7.404-2.312z"/>
        <path d="M16 2A14 14 0 0 0 2 16a14 14 0 0 0 .021.586A14 14 0 0 1 16 3a14 14 0 0 1 13.979 13.414A14 14 0 0 0 30 16 14 14 0 0 0 16 2z" opacity=".2"/>
    </g>
</svg>
