<svg height="32" width="32" xmlns="http://www.w3.org/2000/svg"><path d="m16 3a14 14 0 0 0 -14 14 14 14 0 0 0 14 14 14 14 0 0 0 14-14 14 14 0 0 0 -14-14z" opacity=".2"/><path d="m16 2a14 14 0 0 0 -14 14 14 14 0 0 0 14 14 14 14 0 0 0 14-14 14 14 0 0 0 -14-14z" fill="#f3b616"/><path d="m26.174 3c.493 0 .768.388.826 1.165l-.623 3.656h.153l.326-.27h.087v.08c-.45.344-.885 1.283-1.305 2.818a18.352 18.352 0 0 1 -.805 3.656c-.333 1.156-.5 2.221-.5 3.196l-.63 1.923c0 .163.239.325.717.488-.087.379-.217.569-.391.569v.108h.152v.081c0 .199-.247.298-.74.298l.087.108v.38h-.152c.102.379.32.568.653.568v.19h-.653v.108c.218 0 .326.163.326.488l-.913.38.087.108v.08c0 .127-.109.19-.326.19v.109c.275 0 .413.063.413.19-.391.162-.906.965-1.544 2.41-.652 1.282-1.218 1.923-1.696 1.923h-.174c-.363-.289-.66-1.246-.892-2.871-.928-2.474-1.392-3.927-1.392-4.36 0-1.12-.297-2.112-.891-3.376-.16-.56-.269-1.539-.327-2.388h-.391c-.986 1.86-1.5 3.28-1.544 4.328-.276.614-.493 1.354-.653 2.22.595.2.892.389.892.57v.108c-.464-.072-.79-.208-.979-.407-.203.488-.47 1.542-.804 3.763-.261 1.03-.587 1.413-.979 1.413-1.102-.451-2.022-1.06-2.762-2.09-.116 0-.304-.514-.565-1.544-.16 0-.268-.514-.326-1.544-.551-1.462-.928-2.832-1.131-4.71v-2.817h-.087l-.392.108v-.108c0-.127.13-.19.392-.19l-.088-1.625v-1.273l-.63-4.063v-1.533c.275-1.084.754-1.626 1.435-1.626l.261.271-.26-.081c1.058 1.445 1.681 2.464 1.87 3.457h.739v.19h-.565v.216c.217.83.377 1.246.478 1.246h.174l.391-.108.087.108.087-.108.087.108v.081a1.59 1.59 0 0 0 -.587.894h-.065v.19h.152c.203 3.015.58 5.7 1.131 7.253l.326.298h.174c.218 0 .675-1.184 1.37-3.297.45-.957.776-1.658.98-2.38l-.088-.298c.45-.704.913-1.025 1.392-1.025h.152c.305 0 .522.167.653.565.406.596.732 1.35.978 2.542l1.218 2.517c.16.199.24.424.24.677.449 1.066.855 2.356 1.217 2.699h.261c.305 0 .71-1.904 1.218-4.54.087 0 .326-.705.718-2.113v-.109l-.414-.19-.326.11h-.414v-.218l.827-.08h.653c.623-2.33 1.196-4.136 1.718-5.418.174-2.636.413-3.954.718-3.954z" opacity=".2"/><g fill="#f4f4f7"><path d="m26.174 2c.493 0 .768.388.826 1.165l-.623 3.656h.153l.326-.27h.087v.08c-.45.344-.885 1.283-1.305 2.818a18.352 18.352 0 0 1 -.805 3.656c-.333 1.156-.5 2.221-.5 3.196l-.63 1.923c0 .163.239.325.717.488-.087.379-.217.569-.391.569v.108h.152v.081c0 .199-.247.298-.74.298l.087.108v.38h-.152c.102.379.32.568.653.568v.19h-.653v.108c.218 0 .326.163.326.488l-.913.38.087.108v.08c0 .127-.109.19-.326.19v.109c.275 0 .413.063.413.19-.391.162-.906.965-1.544 2.41-.652 1.282-1.218 1.923-1.696 1.923h-.174c-.363-.289-.66-1.246-.892-2.871-.928-2.474-1.392-3.927-1.392-4.36 0-1.12-.297-2.112-.891-3.376-.16-.56-.269-1.539-.327-2.388h-.391c-.986 1.86-1.5 3.28-1.544 4.328-.276.614-.493 1.354-.653 2.22.595.2.892.389.892.57v.108c-.464-.072-.79-.208-.979-.407-.203.488-.47 1.542-.804 3.763-.261 1.03-.587 1.413-.979 1.413-1.102-.451-2.022-1.06-2.762-2.09-.116 0-.304-.514-.565-1.544-.16 0-.268-.514-.326-1.544-.551-1.462-.928-2.832-1.131-4.71v-2.817h-.087l-.392.108v-.108c0-.127.13-.19.392-.19l-.088-1.625v-1.273l-.63-4.063v-1.533c.275-1.084.754-1.626 1.435-1.626l.261.271-.26-.081c1.058 1.445 1.681 2.464 1.87 3.457h.739v.19h-.565v.216c.217.83.377 1.246.478 1.246h.174l.391-.108.087.108.087-.108.087.108v.081a1.59 1.59 0 0 0 -.587.894h-.065v.19h.152c.203 3.015.58 5.7 1.131 7.253l.326.298h.174c.218 0 .675-1.184 1.37-3.297.45-.957.776-1.658.98-2.38l-.088-.298c.45-.704.913-1.025 1.392-1.025h.152c.305 0 .522.167.653.565.406.596.732 1.35.978 2.542l1.218 2.517c.16.199.24.424.24.677.449 1.066.855 2.356 1.217 2.699h.261c.305 0 .71-1.904 1.218-4.54.087 0 .326-.705.718-2.113v-.109l-.414-.19-.326.11h-.414v-.218l.827-.08h.653c.623-2.33 1.196-4.136 1.718-5.418.174-2.636.413-3.954.718-3.954z"/><path d="m16 2a14 14 0 0 0 -14 14 14 14 0 0 0 .021.414 14 14 0 0 1 13.979-13.414 14 14 0 0 1 13.979 13.586 14 14 0 0 0 .021-.586 14 14 0 0 0 -14-14z" opacity=".2"/></g></svg>