<svg height="32" width="32" xmlns="http://www.w3.org/2000/svg"><g transform="translate(0 -1)"><path d="m16 2a14 13 0 0 0 -14 13 14 13 0 0 0 5 9.957v5.043l3.721-2.967a14 13 0 0 0 5.279.967 14 13 0 0 0 14-13 14 13 0 0 0 -14-13z" fill="#50bcff"/><path d="m16 2a14 13 0 0 0 -14 13 14 13 0 0 0 .022.414 14 13 0 0 1 13.976-12.414 14 13 0 0 1 13.98 12.586 14 13 0 0 0 .02-.586 14 13 0 0 0 -13.998-13z" fill="#f4f4f7" opacity=".2"/><path d="m2.022 15.414a14 13 0 0 0 -.022.586 14 13 0 0 0 5 9.957v-1a14 13 0 0 1 -4.979-9.543zm27.957.172a14 13 0 0 1 -13.979 12.414 14 13 0 0 1 -5.278-.967l-3.722 2.967v1l3.72-2.967a14 13 0 0 0 5.28.967 14 13 0 0 0 14-13 14 13 0 0 0 -.022-.414z" opacity=".2"/></g><circle cx="9" cy="12" opacity=".1" r="2"/><circle cx="9" cy="11" fill="#17191e" r="2"/><circle cx="23" cy="12" opacity=".1" r="2"/><circle cx="23" cy="11" fill="#17191e" r="2"/><path d="m22.003 13a10 9.5 0 0 1 .853.04c.206.017.408.044.61.071a10 9.5 0 0 1 .32.046c.288.049.57.11.849.18a10 9.5 0 0 1 .055.015c4.22 1.098 7.31 4.71 7.31 8.998l-.003.093a10 9.5 0 0 1 .003.057 10 9.5 0 0 1 -3.901 7.514v2.986l-2.751-1.56a10 9.5 0 0 1 -3.348.56 10 9.5 0 0 1 -9.975-9.015 8.749 8.749 0 0 1 -.018-.334 10 9.5 0 0 1 -.007-.151 10 9.5 0 0 1 .002-.062l-.002-.088c0-4.842 3.938-8.833 9.002-9.302a10 9.5 0 0 1 .832-.04c.056 0 .111-.008.167-.008z" opacity=".2" transform="translate(0 -1)"/><path d="m22.003 12a10 9.5 0 0 1 .853.04c.206.017.408.044.61.071a10 9.5 0 0 1 .32.046c.288.049.57.11.849.18a10 9.5 0 0 1 .055.015c4.22 1.098 7.31 4.71 7.31 8.998l-.003.093a10 9.5 0 0 1 .003.057 10 9.5 0 0 1 -3.901 7.514v2.986l-2.751-1.56a10 9.5 0 0 1 -3.348.56 10 9.5 0 0 1 -9.975-9.015 8.749 8.749 0 0 1 -.018-.334 10 9.5 0 0 1 -.007-.151 10 9.5 0 0 1 .002-.062l-.002-.088c0-4.842 3.938-8.833 9.002-9.302a10 9.5 0 0 1 .832-.04c.056 0 .111-.008.167-.008z" fill="#f4f4f7" transform="translate(0 -1)"/><path d="m22.002 12c-.056 0-.112.007-.168.008a10 9.5 0 0 0 -.832.039c-5.064.469-9.002 4.46-9.002 9.303l.002.087a10 9.5 0 0 0 -.002.063 10 9.5 0 0 0 .008.152 8.6 8.6 0 0 0 .013.264c.229-4.644 4.07-8.415 8.98-8.87a10 9.5 0 0 1 .833-.038c.056-.001.112-.008.168-.008h.002a10 9.5 0 0 1 .852.041c.206.016.407.043.609.07a10 9.5 0 0 1 .32.045c.288.049.571.111.85.182a10 9.5 0 0 1 .055.014c4.066 1.059 7.074 4.452 7.289 8.533a10 9.5 0 0 0 .021-.385 10 9.5 0 0 0 -.002-.057l.002-.093c0-4.288-3.09-7.9-7.31-8.998a10 9.5 0 0 0 -.055-.014c-.279-.071-.562-.133-.85-.182a10 9.5 0 0 0 -.32-.045 10.626 10.626 0 0 0 -.61-.07 10 9.5 0 0 0 -.851-.041z" fill="#f4f4f7" opacity=".2" transform="translate(0 -1)"/><circle cx="17" cy="20" opacity=".1" r="2"/><circle cx="17" cy="19" fill="#17191e" r="2"/><circle cx="27" cy="20" opacity=".1" r="2"/><circle cx="27" cy="19" fill="#17191e" r="2"/></svg>