<svg height="32" width="32" xmlns="http://www.w3.org/2000/svg"><path d="m16 30c14 0 14-12 14-12s0-14-14-14c-13 0-14 14-14 14s1 12 14 12z" opacity=".2"/><path d="m16 29c14 0 14-12 14-12s0-14-14-14c-13 0-14 14-14 14s1 12 14 12z" fill="#4f4f4f"/><path d="m8 6c-4 0-6 6-6 6s0 8 5 8c6 0 7-7 7-7s0-7-6-7zm17 1c-4 0-4 6-4 6s1 5 5 5c5 0 4-5 4-5s0-6-5-6z" opacity=".2"/><path d="m16 3c-13 0-14 14-14 14s.02.195.06.46c.323-2.471 2.397-13.46 13.94-13.46 12.432 0 13.819 10.988 13.975 13.46.02-.265.025-.46.025-.46s0-14-14-14z" fill="#f4f4f7" opacity=".1"/><path d="m7 19c6 0 7-7 7-7s0-7-6-7c-4 0-6 6-6 6s0 8 5 8z" fill="#efefef"/><circle cx="6.5" cy="11.5" fill="#4f4f4f" r="1.5"/><path d="m26 17c-4 0-5-5-5-5s0-6 4-6c5 0 5 6 5 6s1 5-4 5z" fill="#efefef"/><circle cx="27.5" cy="11.5" fill="#4f4f4f" r="1.5"/><path d="m8 5c-4 0-6 6-6 6l.055.865c.139-.401 2.089-5.865 5.945-5.865 4.868 0 5.774 4.556 5.947 6.295.038-.185.053-.295.053-.295s0-7-6-7zm17 1c-4 0-4 6-4 6s.047.156.055.191c.145-1.591.808-5.191 3.945-5.191 5 0 5 6 5 6s.031.293.055.541c.079-.858-.055-1.541-.055-1.541s0-6-5-6z" fill="#f4f4f7" opacity=".2"/></svg>