<svg height="32" width="32" xmlns="http://www.w3.org/2000/svg">
    <rect height="28" opacity=".2" rx="8.4" width="28" x="2" y="3"/>
    <rect fill="#4f4f4f" height="28" rx="8.4" width="28" x="2" y="2"/>
    <g fill="none" stroke-linecap="round" stroke-linejoin="round" stroke-width="2.667">
        <path d="M11.292 24.307a8.667 8.667 0 0 1-3.607-9.72 8.667 8.667 0 0 1 8.292-6.224 8.667 8.667 0 0 1 8.326 6.18 8.667 8.667 0 0 1-3.557 9.74" opacity=".2" stroke="#000"/>
        <path d="M11.292 23.307a8.667 8.667 0 0 1-3.607-9.72 8.667 8.667 0 0 1 8.292-6.224 8.667 8.667 0 0 1 8.326 6.18 8.667 8.667 0 0 1-3.557 9.74" stroke="#ececec"/>
        <path d="M13.383 20.86a4.667 4.667 0 0 1-1.848-5.223 4.667 4.667 0 0 1 4.445-3.308 4.667 4.667 0 0 1 4.473 3.27 4.667 4.667 0 0 1-1.803 5.239" opacity=".2" stroke="#000"/>
        <path d="M13.383 19.86a4.667 4.667 0 0 1-1.848-5.223 4.667 4.667 0 0 1 4.445-3.308 4.667 4.667 0 0 1 4.473 3.27 4.667 4.667 0 0 1-1.803 5.239" stroke="#ececec"/>
    </g>
    <circle cx="16" cy="17" opacity=".2" r="2"/>
    <g fill="#f4f4f7">
        <circle cx="16" cy="16" r="2"/>
        <path d="M10.4 2A8.382 8.382 0 0 0 2 10.4v1C2 6.747 5.747 3 10.4 3h11.2c4.653 0 8.4 3.747 8.4 8.4v-1C30 5.747 26.253 2 21.6 2z" opacity=".1"/>
    </g>
</svg>
