<svg xmlns="http://www.w3.org/2000/svg" width="32" height="32" version="1"><circle style="opacity:.2" cx="16" cy="15" r="11"/><path style="opacity:.2" d="M16 13A14 14.167 0 0 0 2 27.167a14 14.167 0 0 0 .163 2.07c.233.452.696.763 1.237.763h25.2a1.39 1.39 0 0 0 1.23-.753 14 14.167 0 0 0 .17-2.08A14 14.167 0 0 0 16 13z"/><circle style="fill:#2064cf" cx="16" cy="14" r="11"/><path style="opacity:.2" d="M14.97 3.06a11 11 0 0 0-3.981 1.154c.055.176-.01.375-.212.55-.137.119-.25.303-.25.411 0 .33.299.837.537.91.316.098.21.436-.197.622-.188.086-.42.335-.514.552-.095.218-.235.433-.31.477-.076.045-.138.215-.138.378 0 .229.104.34.447.476.245.099.539.17.653.16.655-.062.7.32.128 1.065-.304.396-.45.496-.658.446-.193-.047-.299.008-.387.2-.092.202-.244.27-.651.299-.401.028-.58.11-.73.329-.11.16-.27.29-.353.29-.085 0-.283.108-.44.238-.322.267-.448.294-.56.12-.15-.231-.47-.115-.949.344-.423.404-.474.513-.41.864.113.625.452 1.18.84 1.374.338.169.344.187.14.404-.119.125-.32.258-.45.297-.372.114-.162.255.502.34.68.087.891.333.574.669-.178.188-.168.223.117.4.555.35.997.136.476-.229-.336-.235-.101-.33.39-.16.393.136.47.128.702-.073.476-.412.993.197.558.657-.277.293-.194.646.165.695.158.022.487.17.732.328.244.158.51.289.59.289.08 0 .307.161.504.358.4.399.621.45.734.168.135-.338.08-.512-.284-.91-.29-.316-.761-1.158-.761-1.36 0-.124.479-.018.747.165.168.115.44.263.604.33.175.071.357.293.44.537.129.381.18.414.638.414h.497l.075.894c.09 1.075.177 1.293.546 1.382.271.065.561.486.561.815 0 .087-.195.302-.434.476-.296.216-.423.4-.403.58.024.225-.027.26-.345.236-.205-.015-.562.057-.79.16a1.435 1.435 0 0 1-.841.112c-.317-.057-.424-.035-.424.089 0 .091-.111.262-.246.38-.335.29-.197.443.317.35.319-.057.443-.031.498.106.117.292-.18.71-.455.641-.175-.044-.259.016-.313.223a.51.51 0 0 1-.095.188 11 11 0 0 0 1.741.514.73.73 0 0 0-.179-.244c-.283-.2-.093-.72.297-.814.397-.095.335-.353-.098-.403-.379-.043-.782-.427-.655-.623.085-.132.447-.112 1.18.062.332.078.558-.08 1.325-.919.8b9cbe-.486.785-.689 1.16-.689.143 0 .653-.131 1.134-.292.907-.304 1.262-.293 1.228.039-.07.69.375.666 1.098-.056.301-.301.577-.519.613-.485.138.133-.11.778-.401 1.04-.368.33-.386.54-.062.705.177.091.252.275.28.69l.038.565h.46c.16 0 .294.022.402.063a11 11 0 0 0 5.33-9.078c-.169-.36-.157-.577 0-.822a11 11 0 0 0-.05-.616c-.1-.005-.202-.01-.32-.005-.555.023-1.03-.195-1.03-.473 0-.06-.196-.302-.436-.539-.273-.268-.413-.506-.372-.629.037-.112-.043-.293-.185-.416-.138-.12-.251-.312-.251-.428 0-.184-.118-.207-.965-.187l-.965.024.017.95c.028 1.666.276 2.099 1.041 1.82.35-.128 1.211-.032 1.456.163.089.07.217.325.285.567.068.242.32.66.56.93.488.545.526.758.246 1.398-.243.559-.506.494-.454-.112l.039-.45-.413.076c-.228.044-.514.212-.642.378-.183.238-.268.272-.405.164a.515.515 0 0 1-.173-.355c0-.119-.118-.25-.261-.294-.144-.044-.34-.26-.436-.481-.155-.355-.15-.463.029-.893.182-.436.184-.508.016-.67-.154-.147-.234-.152-.436-.03-.204.121-.3.113-.542-.05a1.329 1.329 0 0 0-.626-.198c-.371 0-.483-.18-.483-.777 0-.552-.33-.752-1.112-.68-.544.05-.664.014-1.102-.324-.271-.208-.7-.71-.952-1.116-.253-.405-.525-.83-.605-.942-.115-.162-.086-.318.137-.76l.283-.555-.597.081c-1.063.144-1.278.281-.82.526.177.096.185.145.048.303-.09.104-.133.268-.094.366.04.096-.01.325-.11.507-.099.183-.182.439-.185.57-.01.41-.713.736-1.495.693-1.184-.066-1.28-.047-1.701.343-.526.489-.594.716-.349 1.17.237.44.658.615 1.388.578.652-.032.726.026.577.457-.127.366-.553.507-.842.278-.222-.177-.988-.04-1.223.218-.099.108-.245.392-.325.63-.137.41-.177.435-.793.495-.615.06-.675.04-1.117-.368-.493-.454-.577-.802-.34-1.4.106-.265.185-.309.466-.257.558.102.778-.092.778-.687 0-.29-.056-.56-.125-.6-.068-.04-.124-.194-.124-.34 0-.147-.07-.336-.156-.42-.125-.12-.107-.185.092-.326.137-.096.361-.161.499-.145.137.017.516-.043.842-.131.471-.127.61-.224.674-.472.12-.47.416-.848.663-.848.391 0 .4-.92.02-2.258-.056-.197-.211-.322-.484-.39-.22-.055-.461-.206-.534-.335-.072-.13-.204-.236-.294-.236s-.265-.107-.389-.238a.904.904 0 0 0-.58-.239c-.464 0-.472-.32-.01-.488.486-.179 1.244.055 1.427.44.248.522.524.304.612-.484.11-.976.446-1.256 1.507-1.256h.763l-.334-.334a1.33 1.33 0 0 1-.25-.357zm3.954.345c-.021.02-.042.035-.063.057-.255.26-.375.297-.77.237-.688-.105-.6.173.163.507.412.181.677.388.767.597.434 1.007.734 1.55.884 1.604.303.112.484-.112.552-.685.077-.657.3-.796.699-.437.155.14.372.253.481.253.342 0 .594.137.594.323 0 .097.116.332.257.523.208.28.35.347.74.347.477 0 .77.09 1.369.42.009.005.018.006.028.011a11 11 0 0 0-5.701-3.757zM5.011 13.953a11 11 0 0 0-.002.047 11 11 0 0 0 .214 2.113c.399.163.509.098.55-.273.022-.191.122-.409.224-.484.157-.116.129-.176-.194-.396-.208-.142-.414-.39-.456-.552-.041-.156-.18-.326-.336-.455zm3.462 3.636c-.103-.01-.227.044-.364.176-.291.279-.247.838.082 1.06.378.253.524.18.572-.288.059-.577-.065-.924-.29-.948zm1.867 1.663c-.113.004-.236.084-.36.254-.131.179-.167.41-.117.762.062.432.035.525-.191.64-.291.15-.353.591-.115.82.237.226.462.166.543-.144.116-.442.763-.494 1.205-.097.19.17.343.256.343.19 0-.064-.196-.3-.436-.522-.367-.341-.435-.487-.435-.926 0-.619-.19-.985-.437-.977zm-3.066 1.42a11 11 0 0 0 .255.321 1.962 1.962 0 0 0-.255-.32zm3.707 1.689c-.056.019-.08.089-.08.211 0 .125-.078.255-.175.29-.129.048-.159.197-.11.553.01.066.013.12.016.175a11 11 0 0 0 .458.235c-.008-.19.027-.414.126-.695.17-.476.175-.595.038-.68-.129-.077-.217-.109-.273-.09z"/><path style="fill:#00aaf6" d="M16 12A14 14.167 0 0 0 2 26.167a14 14.167 0 0 0 .163 2.07c.233.452.696.763 1.237.763h25.2a1.39 1.39 0 0 0 1.23-.753 14 14.167 0 0 0 .17-2.08A14 14.167 0 0 0 16 12z"/><path style="fill:#f4f4f7" d="M16 12a14 14.167 0 0 0-2 .162v9.639h4v-9.64A14 14.167 0 0 0 16 12z"/><path style="opacity:.2" d="M12.913 20a.913.89 0 0 0-.913.917.913.89 0 0 0 .122.42l1.544 2.607 1.543 2.61a.913.89 0 0 0 1.582 0l1.542-2.61 1.544-2.607a.913.89 0 0 0-.79-1.337H16z"/><path style="fill:#f4f4f7" d="M12.913 19a.913.89 0 0 0-.913.917.913.89 0 0 0 .122.42l1.544 2.607 1.543 2.61a.913.89 0 0 0 1.582 0l1.542-2.61 1.544-2.607a.913.89 0 0 0-.79-1.337H16z"/><path style="fill:#f4f4f7;opacity:.1" d="M16 3A11 11 0 0 0 5 14a11 11 0 0 0 .021.586A11 11 0 0 1 16 4a11 11 0 0 1 10.979 10.414A11 11 0 0 0 27 14 11 11 0 0 0 16 3z"/><path style="fill:#f4f4f7;opacity:.2" d="M16 12A14 14.167 0 0 0 2 26.166a14 14.167 0 0 0 .021.389A14 14.167 0 0 1 16 13a14 14.167 0 0 1 13.98 13.775 14 14.167 0 0 0 .02-.609A14 14.167 0 0 0 16 12z"/></svg>