<svg height="64" width="64" xmlns="http://www.w3.org/2000/svg">
    <filter id="a" color-interpolation-filters="sRGB" height="1.054" width="1.054" x="-.027" y="-.027">
        <feGaussianBlur stdDeviation=".619"/>
    </filter>
    <linearGradient id="b" gradientUnits="userSpaceOnUse" x1="4.5" x2="59.5" y1="59.49" y2="4.49">
        <stop offset="0" stop-color="#dee0e2"/>
        <stop offset="1" stop-color="#f1f3f5" stop-opacity=".996"/>
    </linearGradient>
    <rect fill="#141414" filter="url(#a)" height="55" opacity=".3" ry="15" width="55" x="4.5" y="4.5"/>
    <rect fill="url(#b)" height="55" ry="15" width="55" x="4.5" y="4.5"/>
    <g transform="translate(73.256 2) scale(1.24998)">
        <path d="m-40.665 22.24.705 1.03c-1.32 3.414 2.057 7.248 6.814 8.508 3.485.812 4.537 3.067 4.954 4.142.416 1.075-1.395-8.779-3.285-13.11-1.1-2.519-4.04-3.704-6.367-3.669-1.58.024-3.01 1.198-2.85 1.877.108.459.046.874.03 1.22z" fill="#f4be2d"/>
        <path d="M-41.582 21.466c-5.858 2.296-7.424 2.954-7.424 2.954s6.72-1.648 7.814-1.256c.922.331.901-2.205-.39-1.699z" fill="#f4be2d"/>
        <path d="M-32.727 21.515c-.849 3.728 1.036 6.186 2.917 5.739 1.265-.3 1.974-.661 2.9-.946l-.788-.31 1.146.206c.612-.163 1.344-.291 2.376-.351l-1.55-.704 3.344.615c.613-.06 1.22-.162 1.791-.284l-1.697-.771 2.774.511c1.405-.38 2.404-.799 2.404-.799s1.06.377-3.567-1.437-12.05-1.47-12.05-1.47z" fill="#37b0d0"/>
        <path d="m-41.23 23.09.985.945c-.266 4.068 4.13 7.391 9.1 7.548 3.607-.006 5.29 2.188 6.01 3.255.72 1.068-3.944-9.233-7.05-13.477-1.807-2.47-5-3.01-7.235-2.376-1.519.431-2.555 2.081-2.199 2.781.241.474.304.943.39 1.325z" fill="#34badb"/>
        <path d="M-19.496 12.03c-.923.117-3.262.667-8.222 3.11-7.538 3.712-6.7 9.236-6.7 9.236 2.256 2.151 5.885 1.166 7.245-.873.912-1.368.96-2.415 1.371-3.338l-1.868.411 2.053-.771c.211-.357.506-.698.963-1.036.66-.488.937-.884 1.276-1.433l-1.948.201 2.382-.904c.316-.495.744-1.112 1.44-1.941l-1.715.042 2.241-.648a43.953 43.953 0 0 1 1.99-2.081s-.146-.021-.507.025z" fill="#3ba2c1"/>
        <path d="m-40.26 24.02.015.013c-.238 3.646 3.267 6.692 7.573 7.398-1.327-4.644-4.684-6.613-6.212-7.132a6.16 6.16 0 0 0-1.376-.279z" fill="#8eebf9"/>
        <ellipse cx="-38.691" cy="21.44" fill="#3695b2" rx=".886" ry=".729"/>
        <ellipse cx="-41.582" cy="15.513" fill="#bff9f9" rx=".408" ry=".26" transform="rotate(-8.204) skewX(.165)"/>
    </g>
</svg>
