<svg height="32" width="32" xmlns="http://www.w3.org/2000/svg"><path d="m12.055 30.865c-.047-.076.362-.736.91-1.466 1.403-1.87 2.165-3.04 1.54-3.763-.255-.296-.605-.636-2.691-.636-4.52 0-6.372-.876-7.774-2.393-1.927-2.087-2.568-6.336-1.578-9.878 1.161-4.154 5.605-7.228 12.218-8.449 4.309-.564 9.46-.528 12.677 2.575 2.85 2.845 3.482 8.102 1.475 12.281-1.314 2.735-3.705 5.098-6.687 5.89-1.046.278-1.177.376-2.775 2.052-1.707 1.792-4 2.892-5.596 3.575-.856.366-1.568.454-1.718.213z" opacity=".2"/><path d="m12.055 29.865c-.047-.076.362-.736.91-1.466 1.403-1.87 2.165-3.04 1.54-3.763-.255-.296-.605-.636-2.691-.636-4.52 0-6.372-.876-7.774-2.393-1.927-2.087-2.568-6.336-1.578-9.878 1.161-4.154 5.605-7.228 12.218-8.449 4.309-.564 9.46-.528 12.677 2.575 2.85 2.845 3.482 8.102 1.475 12.281-1.314 2.735-3.705 5.098-6.687 5.89-1.046.278-1.177.376-2.775 2.052-1.707 1.792-4 2.892-5.596 3.575-.856.366-1.568.454-1.718.213z" fill="#ffc933"/><path d="m18.025 3.008c-1.139.027-2.268.13-3.345.271-6.612 1.222-11.057 4.295-12.22 8.451a13.075 13.075 0 0 0 -.44 4.146c.024-1.062.157-2.133.44-3.146 1.164-4.156 5.609-7.23 12.22-8.451 4.308-.564 9.46-.529 12.675 2.575 1.62 1.615 2.52 4.01 2.631 6.542.112-2.892-.8-5.716-2.63-7.542-2.413-2.328-5.913-2.929-9.33-2.846zm-3.421 22.797c-.237.663-.824 1.507-1.64 2.593-.547.73-.957 1.39-.91 1.467.067.107.255.139.505.121.13-.192.241-.369.406-.588 1.302-1.735 2.037-2.861 1.639-3.593z" fill="#f4f4f7" opacity=".2"/></svg>