<svg height="32" width="32" xmlns="http://www.w3.org/2000/svg">
    <rect fill="#1f212a" height="28" rx="2" width="28" x="2" y="2"/>
    <rect fill="#3e4245" height="26" rx="1" width="26" x="3" y="3"/>
    <path d="M6 7h12v1H6z" fill="#fff"/>
    <path d="M3 11h26v1H3zM3 20h26v1H3z" fill="#00000f" fill-rule="evenodd" opacity=".5"/>
    <g fill="#72d406">
        <circle cx="21.5" cy="7.5" opacity=".5" r=".5" stroke="#508e0b" stroke-linecap="round" stroke-linejoin="round"/>
        <circle cx="21.5" cy="7.5" r=".5"/>
        <circle cx="25.5" cy="7.5" opacity=".5" r=".5" stroke="#508e0b" stroke-linecap="round" stroke-linejoin="round"/>
        <circle cx="25.5" cy="7.5" r=".5"/>
    </g>
    <path d="M6 16h12v1H6z" fill="#fff"/>
    <g fill="#72d406">
        <circle cx="21.5" cy="16.5" opacity=".5" r=".5" stroke="#508e0b" stroke-linecap="round" stroke-linejoin="round"/>
        <circle cx="21.5" cy="16.5" r=".5"/>
        <circle cx="25.5" cy="16.5" opacity=".5" r=".5" stroke="#508e0b" stroke-linecap="round" stroke-linejoin="round"/>
        <circle cx="25.5" cy="16.5" r=".5"/>
    </g>
    <path d="M6 25h12v1H6z" fill="#fff"/>
    <g fill="#72d406">
        <circle cx="21.5" cy="25.5" opacity=".5" r=".5" stroke="#508e0b" stroke-linecap="round" stroke-linejoin="round"/>
        <circle cx="21.5" cy="25.5" r=".5"/>
        <circle cx="25.5" cy="25.5" opacity=".5" r=".5" stroke="#508e0b" stroke-linecap="round" stroke-linejoin="round"/>
        <circle cx="25.5" cy="25.5" r=".5"/>
    </g>
    <rect fill="#eff0f1" height="16" rx="2" stroke="#000" stroke-opacity=".25" width="16" x="16" y="14"/>
    <path d="m27 15-2 2-2 1-1 1-5 1v2l1 1v1l1 1v1l1 1h7l1 1 3-3-1-1-1-5-2 2-2 1-1 1-4.654.932-.346-.346v-.766l4.494-.9 1.1-1.1 2-1 1.642-1.642L28 17l-2 2-2 1-1 1-4.654.932-.346-.346v-.766l4.494-.9 1.1-1.1 2-1 1.642-1.642z" fill="#232629"/>
</svg>
