<svg height="32" viewBox="0 0 8.4666665 8.4666669" width="32" xmlns="http://www.w3.org/2000/svg"><g transform="translate(4.7625 -288.004167)"><path d="m-3.96875 288.26875h6.8791664c.2931586 0 .5291669.23601.5291669.52917v6.87916c0 .29316-.2360083.52917-.5291669.52917h-6.8791664c-.2931584 0-.5291667-.23601-.5291667-.52917v-6.87916c0-.29316.2360083-.52917.5291667-.52917z" fill="#a3b7cc"/><path d="m-3.96875 288.53333c-.1465792 0-.2645834.11801-.2645834.26459v6.87916c0 .14657.1180042.26459.2645834.26459h6.8791667c.1465794 0 .2645833-.11802.2645833-.26459v-6.87916c0-.14658-.1180039-.26459-.2645833-.26459zm.396875.26459c.2198687 0 .396875.177.396875.39687s-.1770063.39688-.396875.39688c-.2198688 0-.396875-.17701-.396875-.39688s.1770062-.39687.396875-.39687zm6.0854167 0c.2198687 0 .396875.177.396875.39687s-.1770063.39688-.396875.39688c-.2198688 0-.396875-.17701-.396875-.39688s.1770062-.39687.396875-.39687zm-6.0854167 6.08541c.2198687 0 .396875.17701.396875.39688s-.1770063.39687-.396875.39687c-.2198688 0-.396875-.177-.396875-.39687s.1770062-.39688.396875-.39688zm6.0854167 0c.2198687 0 .396875.17701.396875.39688s-.1770063.39687-.396875.39687c-.2198688 0-.396875-.177-.396875-.39687s.1770062-.39688.396875-.39688z" fill="#e1ebf2"/><path d="m-.52917038 295.67708h.0000074c1.90552708 0 3.43957968-1.53406 3.43957968-3.43958 0-1.90553-1.5340526-3.43958-3.43957968-3.43958h-.0000074c-1.90552722 0-3.43957962 1.53405-3.43957962 3.43958 0 1.90552 1.5340524 3.43958 3.43957962 3.43958z" fill="#36404d"/><path d="m-.52917038 289.0625h.0000074c1.75894788 0 3.17499628 1.41605 3.17499628 3.175 0 1.75894-1.4160484 3.17499-3.17499628 3.17499h-.0000074c-1.75894802 0-3.17499632-1.41605-3.17499632-3.17499 0-1.75895 1.4160483-3.175 3.17499632-3.175z" fill="#4b6477"/><path d="m-.52916668 293.56042c-.73289562 0-1.32291672-.59002-1.32291672-1.32292s.5900211-1.32292 1.32291672-1.32292c.7328956 0 1.3229167.59002 1.3229167 1.32292s-.5900211 1.32292-1.3229167 1.32292zm0-.52917c.4397375 0 .79375-.35401.79375-.79375s-.3540125-.79375-.79375-.79375-.79375002.35401-.79375002.79375.35401252.79375.79375002.79375z" fill="#a3b7cc"/><path d="m-1.5875 290.12083c-.095024-.00007-.1828147.0508-.2299602.13333l-1.0583333 1.85208c-.046462.0813-.046462.18118 0 .26252l1.0583333 1.85208c.047146.0825.1349359.1334.2299602.13333h2.11666672c.095024.00007.1828143-.0508.2299602-.13333l1.05833328-1.85208c.046462-.0813.046462-.18118 0-.26252l-1.05833328-1.85208c-.047146-.0825-.1349357-.1334-.2299602-.13333zm1.05833332 1.05834c.5863167 0 1.0583334.47201 1.0583334 1.05833s-.4720167 1.05833-1.0583334 1.05833c-.58631672 0-1.05833332-.47201-1.05833332-1.05833s.4720166-1.05833 1.05833332-1.05833z" fill="#e1ebf2" fill-rule="evenodd"/></g></svg>