<svg height="32" viewBox="0 0 32 32" width="32" xmlns="http://www.w3.org/2000/svg"><g transform="translate(56 -278.64999)"><path d="m-52 301.64999h24c1.108 0 2 .892 2 2v5c0 1.108-.892 2-2 2h-24c-1.108 0-2-.892-2-2v-5c0-1.108.892-2 2-2z" fill="#36404d"/><path d="m-52 302.64999c-.554 0-1 .446-1 1v5c0 .554.446 1 1 1h1v-2h19v2h4c.554 0 1-.446 1-1v-5c0-.554-.446-1-1-1z" fill="#4b6477"/><path d="m-52 280.64999h24c1.108 0 2 .892 2 2v22c0 1.108-.892 2-2 2h-24c-1.108 0-2-.892-2-2v-22c0-1.108.892-2 2-2z" fill="#a7bbcf"/><path d="m-52 281.64999c-.554 0-1 .446-1 1v22c0 .554.446 1 1 1h24c.554 0 1-.446 1-1v-22c0-.554-.446-1-1-1zm1 1c.554 0 1 .446 1 1s-.446 1-1 1-1-.446-1-1 .446-1 1-1zm22 0c.554 0 1 .446 1 1s-.446 1-1 1-1-.446-1-1 .446-1 1-1zm-22 9c.554 0 1 .446 1 1s-.446 1-1 1-1-.446-1-1 .446-1 1-1zm22 0c.554 0 1 .446 1 1s-.446 1-1 1-1-.446-1-1 .446-1 1-1zm-22 11c.554 0 1 .446 1 1s-.446 1-1 1-1-.446-1-1 .446-1 1-1zm22 0c.554 0 1 .446 1 1s-.446 1-1 1-1-.446-1-1 .446-1 1-1z" fill="#e1ebf2"/><path d="m-50 308.64999v1h2v-1zm3 0v1h2v-1zm3 0v1h2v-1zm3 0v1h2v-1zm3 0v1h2v-1zm3 0v1h2v-1z" fill="#fdd837"/><path d="m-31 307.64999h2v1h-2z" fill="#51cf88"/><g transform="translate(6)"><path d="m-58 295.64999h24c1.108 0 2 .892 2 2v5c0 1.108-.892 2-2 2h-24c-1.108 0-2-.892-2-2v-5c0-1.108.892-2 2-2z" fill="#36404d"/><path d="m-58 296.64999c-.554 0-1 .446-1 1v5c0 .554.446 1 1 1h1v-2h19v2h4c.554 0 1-.446 1-1v-5c0-.554-.446-1-1-1z" fill="#4b6477"/><path d="m-58 278.64999h24c1.108 0 2 .892 2 2v18c0 1.108-.892 2-2 2h-24c-1.108 0-2-.892-2-2v-18c0-1.108.892-2 2-2z" fill="#a7bbcf"/><path d="m-58 279.64999c-.554 0-1 .446-1 1v18c0 .554.446 1 1 1h24c.554 0 1-.446 1-1v-18c0-.554-.446-1-1-1zm1 1c.554 0 1 .446 1 1s-.446 1-1 1-1-.446-1-1 .446-1 1-1zm22 0c.554 0 1 .446 1 1s-.446 1-1 1-1-.446-1-1 .446-1 1-1zm-22 9c.554 0 1 .446 1 1s-.446 1-1 1-1-.446-1-1 .446-1 1-1zm22 0c.554 0 1 .446 1 1s-.446 1-1 1-1-.446-1-1 .446-1 1-1zm-22 7c.554 0 1 .446 1 1s-.446 1-1 1-1-.446-1-1 .446-1 1-1zm22 0c.554 0 1 .446 1 1s-.446 1-1 1-1-.446-1-1 .446-1 1-1z" fill="#e1ebf2"/><path d="m-56 302.64999v1h2v-1zm3 0v1h2v-1zm3 0v1h2v-1zm3 0v1h2v-1zm3 0v1h2v-1zm3 0v1h2v-1z" fill="#fdd837"/><path d="m-54 280.64999h12v5h-12z" fill="#35ab72" opacity=".98"/><path d="m-53 281.64999h10v3h-10z" fill="#51cf88" opacity=".98"/><path d="m-52 282.64999v1h2v-1zm3 0v1h1v-1zm2 0v1h1v-1z" fill="#36404c"/></g><path d="m-31 301.64999h2v1h-2z" fill="#51cf88"/><g transform="translate(-56 -7.000004)"><path d="m8 293.64999h16v10h-16z" fill="#a8bccc" opacity=".99"/><path d="m9 294.64999h14v8h-14z" fill="#e6f2ed" opacity=".99"/><path d="m10 295.64999h6v3h-6z" fill="#fdd835" opacity=".99"/><path d="m18 13v1h4v-1zm-7 1v1h1v-1zm2 0v1h2v-1zm6 1v1h3v-1zm-9 3v1h1v-1zm2 0v1h2v-1zm3 0v1h1v-1zm2 0v1h1v-1zm2 0v1h2v-1z" fill="#38414d" opacity=".99" transform="translate(0 282.64999)"/></g></g></svg>