<svg height="64" width="64" xmlns="http://www.w3.org/2000/svg">
    <filter id="d" color-interpolation-filters="sRGB" height="1.258" width="1.596" x="-.298" y="-.129">
        <feGaussianBlur stdDeviation=".442"/>
    </filter>
    <linearGradient id="c" gradientUnits="userSpaceOnUse" x1="32.186" x2="32.186" y1="47.124" y2="4.625">
        <stop offset="0" stop-color="#d1ecba"/>
        <stop offset="1" stop-color="#d1ecba" stop-opacity="0"/>
    </linearGradient>
    <filter id="a" color-interpolation-filters="sRGB" height="1.054" width="1.054" x="-.027" y="-.027">
        <feGaussianBlur stdDeviation=".619"/>
    </filter>
    <linearGradient id="b" gradientUnits="userSpaceOnUse" x1="4.5" x2="59.5" y1="59.49" y2="4.49">
        <stop offset="0" stop-color="#8cd750"/>
        <stop offset=".48" stop-color="#7dcd32"/>
        <stop offset="1" stop-color="#87d241"/>
    </linearGradient>
    <rect fill="#141414" filter="url(#a)" height="55" opacity=".3" ry="15" width="55" x="4.5" y="4.5"/>
    <rect fill="url(#b)" height="55" ry="15" width="55" x="4.5" y="4.5"/>
    <path d="M19.5 4.5A14.954 14.954 0 0 0 4.734 16.918a63.547 63.547 0 0 0-.156 4.732l27.608 25.473L59.422 21.65c0-1.725-.049-3.269-.149-4.677A14.953 14.953 0 0 0 44.5 4.5z" fill="url(#c)"/>
    <rect fill="#fafafa" height="17.694" ry="1.591" transform="scale(-1 1) rotate(45)" width="3.182" x="8.126" y="38.756"/>
    <path d="M8.096 4.142a.42.42 0 0 0-.42.42v7.38c0 .021.002.042.005.063l.002.016a.416.416 0 0 0 .021.07l.003.008a.42.42 0 0 0 .23.232l.012.003a.414.414 0 0 0 .228.02c.02-.004.039-.01.057-.017.007-.002.015-.003.022-.006a.415.415 0 0 0 .065-.035l.007-.004a.424.424 0 0 0 .066-.054l.003-.002 2.712-2.713a.42.42 0 1 0-.595-.595l-1.997 1.997V4.563a.42.42 0 0 0-.421-.421z" fill="#80d03a" filter="url(#d)" transform="translate(-.082 .53) scale(3.7796)"/>
    <path d="M31.921 16.185c-.881 0-1.59.71-1.59 1.592v27.887c0 .082.012.16.024.24.003.02.002.04.006.06.017.093.047.18.08.266l.01.031c.16.398.475.714.873.875.013.006.027.01.04.014a1.568 1.568 0 0 0 .862.074h.002c.075-.015.146-.04.217-.064.027-.01.056-.013.082-.024a1.57 1.57 0 0 0 .246-.13c.009-.006.019-.01.027-.016.09-.06.173-.128.248-.203l.01-.01L43.31 36.525a1.587 1.587 0 0 0 0-2.25 1.587 1.587 0 0 0-2.25 0l-7.547 7.547V17.777c0-.881-.71-1.592-1.591-1.592z" fill="#fafafa"/>
</svg>
