<svg xmlns="http://www.w3.org/2000/svg" width="32" height="32" version="1"><circle style="opacity:.2" cx="16" cy="17" r="14"/><circle style="fill:#e53935" cx="16" cy="16" r="14"/><path style="opacity:.2" transform="matrix(.69282 0 0 .7 -.787 -.266)" d="m35.778 24.666-8.66 5-8.66 5v-20l8.66 5z"/><path style="fill:#f4f4f7" transform="matrix(.69282 0 0 .7 -.787 -1.266)" d="m35.778 24.666-8.66 5-8.66 5v-20l8.66 5z"/><path style="fill:#f4f4f7;opacity:.2" d="M16 2A14 14 0 0 0 2 16a14 14 0 0 0 .021.586A14 14 0 0 1 16 3a14 14 0 0 1 13.979 13.414A14 14 0 0 0 30 16 14 14 0 0 0 16 2z"/></svg>