<svg width="32" height="32" xmlns="http://www.w3.org/2000/svg"><circle cx="16" cy="17" r="14" style="opacity:.2"/><circle cx="16" cy="16" r="14" style="fill:#a71416"/><path d="M15.8 13.5h6.3s1.4 1.4 1.4 3.85-1.4 3.15-1.4 3.15h-4.6V17" style="fill:none;opacity:.2;stroke-linejoin:round;stroke-width:3;stroke:#000"/><path d="M15.8 12.5h6.3s1.4 1.4 1.4 3.85-1.4 3.15-1.4 3.15h-4.6V16" style="fill:none;stroke-linejoin:round;stroke-width:3;stroke:#9e9e9e"/><path d="M7 13.5h8.5l-7 7H17" style="fill:none;opacity:.2;stroke-linejoin:round;stroke-width:3;stroke:#000"/><path d="M7 12.5h8.5l-7 7H17" style="fill:none;stroke-linejoin:round;stroke-width:3;stroke:#fefefe"/><path d="M16 2A14 14 0 0 0 2 16a14 14 0 0 0 .021.586A14 14 0 0 1 16 3a14 14 0 0 1 13.979 13.414A14 14 0 0 0 30 16 14 14 0 0 0 16 2z" style="fill:#f4f4f7;opacity:.1"/></svg>