<svg xmlns="http://www.w3.org/2000/svg" width="22" height="22"><path style="opacity:.2" d="M4 1.5c-.554 0-1 .446-1 1v18c0 .554.446 1 1 1h14c.554 0 1-.446 1-1v-13L13.5 7 13 1.5z"/><path style="fill:#1273b2" d="M4 1c-.554 0-1 .446-1 1v18c0 .554.446 1 1 1h14c.554 0 1-.446 1-1V7l-5.5-.5L13 1z"/><path style="opacity:.2;fill:#fff" d="M4 1c-.554 0-1 .446-1 1v.5c0-.554.446-1 1-1h9V1z"/><path style="opacity:.2" d="M13 1.5v5a1 1 0 0 0 1 1h5z"/><path style="fill:#4e92be" d="M13 1v5a1 1 0 0 0 1 1h5z"/><path style="opacity:.2" d="M7 1.5v12H4v3H3v1h1v3h3v.5h1v-.5h3v-3h8v-1h-8v-3H8v-12zm-2 13h5v5H5zm2 2v1h1v-1z"/><path style="fill:#fff" d="M7 1v12H4v3H3v1h1v3h3v1h1v-1h3v-3h8v-1h-8v-3H8V1zM5 14h5v5H5zm2 2v1h1v-1z"/></svg>