<svg xmlns="http://www.w3.org/2000/svg" width="22" height="22" version="1"><path style="opacity:.2" d="M4 1.5c-.554 0-1 .446-1 1v18c0 .554.446 1 1 1h14c.554 0 1-.446 1-1v-13L13.5 7 13 1.5z"/><path style="fill:#008cff" d="M4 1c-.554 0-1 .446-1 1v18c0 .554.446 1 1 1h14c.554 0 1-.446 1-1V7l-5.5-.5L13 1z"/><path style="opacity:.2;fill:#fff" d="M4 1c-.554 0-1 .446-1 1v.5c0-.554.446-1 1-1h9L18.5 7h.5l-6-6z"/><path style="opacity:.2" d="M13 1.5v5a1 1 0 0 0 1 1h5z"/><path style="fill:#54b1ff" d="M13 1v5a1 1 0 0 0 1 1h5z"/><path style="opacity:.2;fill-rule:evenodd" d="M9.26 18.202a3.3 3.3 0 0 1-.905-.45c1.347.1 3.09-.224 4.278-1.27 0 0 2.253-1.74.68-4.594 0 0 .226 1.146-.073 2.1 0 0-.34 1.293-1.743 1.663-2.094.562-4.471-.898-5.467-1.55a5.145 5.145 0 0 1 .226-2.146c.34-1.011 1.143-1.876 2.049-2.427-.227 1.54-.048 2.955.226 3.54.34.786.906 1.718 2.128 1.842 1.177.112 1.822-.899 1.822-.899.566-.899.68-2.157.68-2.19-.01-.032-.114-.113-.114-.113-.452 1.584-1.132 2.112-1.132 2.112-1.018 1.011-1.8.337-1.8.337-.791-.786-.226-2.19-.226-2.19.34-.9 1.234-2.27 2.275-2.967.227.042.34.067.566.112.68.225 1.178.562 1.642 1.012-.793.224-1.992.786-1.992.786-1.947.787-2.072 1.989-2.072 1.989-.226 1.236.793.674.793.674 1.018-.45 1.55-2.023 1.55-2.023-.34-.06-.566.036-.566.036-.452 1.012-1.267 1.405-1.267 1.405-.34.225-.453-.113-.453-.113-.057-.224.226-.224.226-.224.453-.225.793-.674.793-.787.066-.224.226-.224.226-.224.679-.225 1.211-.225 1.211-.225.792-.093 1.992.225 1.992.225.226.104.566.224.792.224.453 1.011.566 2.281.074 3.45-.906 2.505-3.814 3.808-6.406 2.887z"/><path style="fill:#fff;fill-rule:evenodd" d="M9.26 17.702a3.3 3.3 0 0 1-.905-.45c1.347.1 3.09-.224 4.278-1.27 0 0 2.253-1.74.68-4.594 0 0 .226 1.146-.073 2.1 0 0-.34 1.293-1.743 1.663-2.094.562-4.471-.898-5.467-1.55a5.145 5.145 0 0 1 .226-2.146c.34-1.011 1.143-1.876 2.049-2.427-.227 1.54-.048 2.955.226 3.54.34.786.906 1.718 2.128 1.842 1.177.112 1.822-.899 1.822-.899.566-.899.68-2.157.68-2.19-.01-.032-.114-.113-.114-.113-.452 1.584-1.132 2.112-1.132 2.112-1.018 1.011-1.8.337-1.8.337-.791-.786-.226-2.19-.226-2.19.34-.9 1.234-2.27 2.275-2.967.227.042.34.067.566.112.68.225 1.178.562 1.642 1.012-.793.224-1.992.786-1.992.786-1.947.787-2.072 1.989-2.072 1.989-.226 1.236.793.674.793.674 1.018-.45 1.55-2.023 1.55-2.023-.34-.06-.566.036-.566.036-.452 1.012-1.267 1.405-1.267 1.405-.34.225-.453-.113-.453-.113-.057-.224.226-.224.226-.224.453-.225.793-.674.793-.787.066-.224.226-.224.226-.224.679-.225 1.211-.225 1.211-.225.792-.093 1.992.225 1.992.225.226.104.566.224.792.224.453 1.011.566 2.281.074 3.45-.906 2.505-3.814 3.808-6.406 2.887z"/></svg>