<svg xmlns="http://www.w3.org/2000/svg" width="22" height="22" version="1"><path style="opacity:.2" d="M4 1.5c-.554 0-1 .446-1 1v18c0 .554.446 1 1 1h14c.554 0 1-.446 1-1v-13L13.5 7 13 1.5z"/><path style="fill:#e4e4e4" d="M4 1c-.554 0-1 .446-1 1v18c0 .554.446 1 1 1h14c.554 0 1-.446 1-1V7l-5.5-.5L13 1z"/><path style="opacity:.2;fill:#fff" d="M4 1c-.554 0-1 .446-1 1v.5c0-.554.446-1 1-1h9L18.5 7h.5l-6-6z"/><path style="opacity:.2" d="M13 1.5v5a1 1 0 0 0 1 1h5z"/><path style="fill:#fafafa" d="M13 1v5a1 1 0 0 0 1 1h5z"/><path style="opacity:.1" d="M9.293 19.49a3.4 3.4 0 0 1-.429-.031c-.008-.009.092-.067.221-.13.52-.253.932-.68 1.299-1.349.056-.102.243-.502.415-.887 1.26-2.82 2.911-6.477 2.937-6.505.028-.03.108-.028.63.007 1.392.096 1.648.135 1.895.29.228.145.437.423.512.682.112.39.227 2.118.227 3.415 0 1.333-.119 3.113-.231 3.466a1.2 1.2 0 0 1-.768.784c-.205.064-1.28.159-2.664.233-.55.03-3.446.047-4.044.025zm-2.487-.133-.318-.036c-.7-.077-1.085-.333-1.253-.829-.151-.448-.27-2.706-.226-4.29.036-1.266.134-2.43.227-2.686.145-.398.467-.69.857-.777.181-.04.982-.11 1.874-.165.508-.03.635-.045.675-.077.028-.02.358-.393.734-.825.376-.433.693-.793.703-.8.088-.055.618-.037.618.022 0 .022-4.2 5.069-4.933 5.927-.019.023-.03.047-.022.054.006.007.115-.01.24-.035.164-.035.316-.048.537-.048 1.049 0 2.187.427 2.833 1.062.437.43.616.834.616 1.39 0 1.114-.673 1.832-1.933 2.06-.25.045-1.013.078-1.229.053zm3.481-2.149c0-.806-.322-1.55-.954-2.203a4.318 4.318 0 0 0-1.137-.843c-.188-.097-.683-.28-.758-.28-.022-.001-.04-.015-.04-.032 0-.022 2.39-2.868 4.464-5.315l.067-.079.159.053c.192.064.473.208.505.26.024.038.085-.037-3.039 3.696a50.21 50.21 0 0 0-.882 1.07c0 .008.09.087.2.174.77.617 1.37 1.597 1.52 2.484.064.38.014 1.099-.083 1.202-.013.014-.021-.059-.022-.187z"/><path style="fill:#ec2f36" d="M9.293 18.976a3.403 3.403 0 0 1-.429-.03c-.008-.009.092-.067.221-.13.52-.253.932-.68 1.299-1.349.056-.103.243-.502.415-.888 1.26-2.82 2.911-6.476 2.937-6.504.028-.03.108-.029.63.007 1.392.095 1.648.135 1.895.29.228.144.437.423.512.682.112.39.227 2.118.227 3.415 0 1.333-.119 3.113-.231 3.465a1.2 1.2 0 0 1-.768.784c-.205.065-1.28.16-2.664.234-.55.03-3.446.047-4.044.025zm-2.487-.132-.318-.036c-.7-.078-1.085-.333-1.253-.829-.151-.448-.27-2.706-.226-4.29.036-1.267.134-2.431.227-2.686.145-.398.467-.69.857-.777.181-.04.982-.111 1.874-.165.508-.03.635-.045.675-.077.028-.021.358-.393.734-.826.376-.433.693-.792.703-.799.088-.055.618-.037.618.022 0 .022-4.2 5.068-4.933 5.927-.019.022-.03.047-.022.053.006.007.115-.009.24-.035.164-.034.316-.047.537-.047 1.049 0 2.187.426 2.833 1.062.437.43.616.834.616 1.39 0 1.114-.673 1.832-1.933 2.06-.25.044-1.013.077-1.229.053zm3.481-2.149c0-.806-.322-1.55-.954-2.203a4.318 4.318 0 0 0-1.137-.843c-.188-.098-.683-.28-.758-.281-.022 0-.04-.014-.04-.03 0-.024 2.39-2.87 4.464-5.317l.067-.078.159.053c.192.063.473.207.505.259.024.039.085-.036-3.039 3.697-.485.58-.881 1.06-.882 1.069 0 .009.09.087.2.175.77.616 1.37 1.597 1.52 2.484.064.38.014 1.099-.083 1.202-.013.014-.021-.06-.022-.187z"/></svg>