<svg xmlns="http://www.w3.org/2000/svg" width="22" height="22"><path style="opacity:.2" d="M4 1.5c-.554 0-1 .446-1 1v18c0 .554.446 1 1 1h14c.554 0 1-.446 1-1v-13l-6-6z"/><path style="fill:#3b9a6a" d="M4 1c-.554 0-1 .446-1 1v18c0 .554.446 1 1 1h14c.554 0 1-.446 1-1V7l-5-1-1-5z"/><path style="opacity:.2" d="m19 7.5-6-6v5c0 .554.446 1 1 1z"/><path style="fill:#61c391" d="m19 7-6-6v5c0 .554.446 1 1 1z"/><path style="opacity:.2;fill:#fff" d="M4 1c-.554 0-1 .446-1 1v.5c0-.554.446-1 1-1h9V1z"/><path style="fill:#fff" d="M10.334 11.91c-.167-.006-.502.309-.502.782a.918.918 0 0 1-.014.153c.115-.013.22-.022.304-.023.52-.007.502.183.502.183-.016.08-.008.123.036.167.22.181.198.558.198.558-.11-.134-.226-.245-.362-.292a.496.496 0 0 1 0 .287c-.145-.16-.31-.277-.522-.305.096.13.066.266.037.402a.615.615 0 0 0-.458-.368c.018.213-.043.327-.164.402.06-.048.003-.33-.022-.442l-.015.007c-.052.042-.086.03-.087.03 0-.001-.08-.075-.156-.203-.058-.086-.108-.178-.096-.23a.852.852 0 0 1-.028-.15c-.056-.37-.48-.933-.688-.237-.315.746-.341.92-.402 1.284a6.795 6.795 0 0 0-.035.226c.01.358.114.603.197.796.057.19.154.399.313.613.54.724.688 1.08.688 1.424.075.185-.368-.713-.663-1.056.196.382.373.764.405 1.142-.331-.643-.586-.91-.798-.97.14.41.256.798.185 1.031-.197-.489-.429-.745-.675-.908-.15.355-.165.74.049 1.178-.21-.106-.436-.312-.694-.694.073.299.141.598.411.903-.195.022-.396-.033-.601-.148.203.544.596 1.07 1.129 1.583a6.03 6.03 0 0 1-1.57-1.141c.069.37.202.7.564.883-.29.03-.581.008-.871-.134.241.491.695.872 1.202 1.226-.485-.14-.968-.302-1.4-.785-.023.284.058.558.222.822a1.955 1.955 0 0 1-.644-.644c.006.63.274 1.193.609 1.738h6.16a6.724 6.724 0 0 0-1.356-1.059c-1.49-.812-.555-2.21-.449-2.705 0 0 1.194.835 2.059-.441.781.201 1.305-.143 1.977.1.408.18 2.125.071 1.487-.888-.095.082.044.171-.048.293-.027.035-.081.147-.26.2-.2.095-.528.173-.91-.234-.277-.204-.478-.027-.633-.041.097-.063.367-.202.805-.202.247 0 .379.215.544.216.111.001.437-.167.502-.232.401-.262.443-.178.643-.576.108-.484-.136-.587-.21-.72-.02-.307-.278-.425-.585-.206-.705-.127-1.397-.067-1.738-.096a3.881 3.881 0 0 1-1.37-.5c.09-.122.047-.383-.537-.401-.32-.106-.659-.306-.906-.309-.25 0-.285-.247-.285-.247-.157-.085-.383-.416-.38-.922 0-.08-.038-.118-.094-.12zm-.201 1.97c.457.17 1.108.166 1.397.11-.025.017.04.002-.112.057-.042.052-.044-.01-.055.155-.096.097-.417.13-.667.052-.276-.124-.265-.195-.286-.265-.027-.016-.239-.087-.277-.109zm4.467 1.045a.873.873 0 0 1 .24.024c.228.066.155.231.101.341.079-.274-.171-.328-.54-.305a.415.415 0 0 1 .199-.06zm.008.113c.165 0 .297.09.297.199 0 .11-.132.198-.297.198.35-.11-.019-.454-.296-.198 0-.11.132-.199.296-.199zm-9.649 4.72c-.021.43.072.842.248 1.242h.663c-.347-.351-.686-.713-.911-1.241zm-.785.442c-.094.295-.074.557.013.8H5c-.162-.163-.321-.392-.472-.787-.08.107-.06.27 0 .454-.17-.06-.292-.21-.355-.467z"/><path style="fill:#fff" d="M12.922 9.056c-.054 0-.132.067-.197.215-.162.293-.368.42-.366.637.073.123-.55.303-.353.688-.14.172-.467.393-.35.657-.06.13-.477.433-.297.72-.393.262-.37.325-.287.565-.21.135-.43.403-.32.623 0 0-.025.73.656.254.352.008.196-.377.196-.377.238-.066.274-.375.18-.557.304.008.256-.46.214-.623.237-.09.27-.374.172-.598.287-.066.295-.402.27-.64.295-.016.254-.532.254-.639.255-.164.197-.385.237-.641.088-.179.06-.285-.01-.284zm-.43.663c-.076.214.055.188.214.186-.073.078-.286.101-.286.022 0-.079.072-.208.072-.208zm-.416.612c-.076.214.17.245.328.242-.072.078-.308.08-.346-.016-.061-.122.018-.226.018-.226zm-.306.63c-.055.222.143.272.301.27-.072.077-.349.063-.349-.016-.05-.122.048-.254.048-.254zm-.3.7c-.055.221.264.216.423.214-.072.077-.298.152-.438.073-.122-.137.015-.288.015-.288zm-.294.558c-.068.133.358.267.517.265-.073.077-.378.137-.519.058-.152-.185.002-.323.002-.323zm-.307.658c-.054.222.488.193.647.191-.072.078-.521.175-.661.096-.123-.137.014-.287.014-.287z"/><path style="opacity:.5;fill:#fff" d="M10.122 12.822c-.236.003-.582.047-1.092.167-.104.072.235.461.235.461s.04.02.101-.04c.025.109.083.398.023.446.121-.075.182-.19.164-.403.207.045.365.16.458.37.03-.137.059-.274-.037-.403.213.028.377.146.522.305a.496.496 0 0 0 0-.287c.136.047.253.158.362.292 0 0 .021-.377-.198-.558-.044-.044-.052-.087-.036-.167 0 0 .017-.19-.502-.183zm-2.125.433c-.256.158-.348.653-1.276.965-.314.105-.722.19-1.265.234-.693.056-1.853.96-2.456 2.05V20c0 .554.446 1 1 1h.187a1.215 1.215 0 0 1-.013-.8c.063.258.185.407.355.467-.06-.184-.08-.347 0-.454.151.395.31.624.472.787h.206a2.729 2.729 0 0 1-.248-1.241c.225.528.564.89.911 1.241h.048c-.335-.545-.603-1.107-.61-1.738.166.27.385.481.645.644-.164-.264-.245-.538-.222-.822.432.483.915.645 1.4.785-.507-.354-.96-.735-1.202-1.226.29.142.58.165.87.134-.36-.182-.494-.513-.564-.883a6.03 6.03 0 0 0 1.57 1.141c-.532-.513-.925-1.04-1.128-1.583.205.115.406.17.601.148-.27-.305-.338-.604-.41-.903.257.382.483.588.693.694-.214-.438-.199-.823-.05-1.178.247.163.479.42.676.908.07-.233-.045-.622-.185-1.031.212.06.467.327.798.97-.032-.378-.21-.76-.405-1.142.295.343.738 1.241.663 1.056 0-.344-.148-.7-.688-1.424a1.99 1.99 0 0 1-.313-.613c-.137-.321-.335-.783-.06-1.682z"/><path style="opacity:.2" d="M12.922 9.556c-.004 0-.01.007-.015.007-.013.16-.038.306-.213.418 0 .064.006.264-.044.425h.056a.203.203 0 0 1-.071.044c-.037.09-.09.165-.195.171a.889.889 0 0 1-.053.451l.017.001c-.006.007-.018.01-.026.015a.305.305 0 0 1-.208.172c.098.224.066.508-.172.598.042.163.09.63-.213.622.094.183.057.492-.18.558 0 0 .078.199-.01.308.056.023.113.043.169.067a.454.454 0 0 0 .021-.433c.303.009.255-.46.213-.622.238-.09.27-.374.172-.598.287-.066.295-.401.27-.639.295-.016.254-.533.254-.64.254-.163.198-.385.238-.641.088-.179.059-.285-.01-.284zm-.216.35h-.07l-.033.053a.232.232 0 0 0 .103-.054zm-.456.654-.075.061c.084.014.185 0 .23-.048a.832.832 0 0 1-.155-.013zm-.345.644-.065.071c.085.011.19 0 .231-.045a.519.519 0 0 1-.166-.026zm-.318.639c-.03.034-.057.072-.093.115.14.05.332-.012.399-.083a.988.988 0 0 1-.306-.032zm-.26.546a.278.278 0 0 0 .031.084c-.052.034-.08.058-.118.087.154.04.39-.009.452-.077-.015 0-.04-.005-.06-.007a.312.312 0 0 1-.177-.029c-.004-.004-.003-.008-.007-.012a.973.973 0 0 1-.122-.046zm-1.205.433c-.06.001-.14.01-.219.017l-.002.003c.074-.006.162-.019.221-.02zm.944.221c-.044.029-.083.069-.124.107.03.018.066.033.112.04.183-.008.411-.068.462-.122h-.04a.582.582 0 0 1-.234-.007 1.012 1.012 0 0 1-.176-.018zm-1.731.386h-.004l-.013.009.017-.01zm.218.024v.001zm.58.426c.038.022.25.093.277.11.021.07.01.14.286.264.25.077.57.045.667-.052.01-.164.013-.103.055-.155.151-.055.087-.04.112-.057-.289.056-.94.06-1.397-.11zm4.475 1.16c-.164 0-.296.088-.296.197.277-.256.645.09.296.199.165 0 .297-.09.297-.199 0-.11-.132-.198-.297-.198zm1.805.437c-.176.334-.236.282-.617.53.11.165.145.303.135.42.244-.139.342-.164.508-.495.05-.22.021-.354-.026-.455zm-.617.53c-.065.066-.39.234-.502.233-.165 0-.297-.216-.544-.216-.438 0-.708.139-.805.202.155.014.356-.163.632.04.383.408.711.33.911.235.179-.053.233-.165.26-.2.092-.122-.047-.211.048-.293zm.061.613a.496.496 0 0 1-.077.084c0 .03-.006.062-.032.097-.027.035-.081.147-.26.2a.664.664 0 0 1-.668-.034c-.215.001-.407-.025-.511-.07-.672-.244-1.196.1-1.977-.101-.865 1.276-2.059.441-2.059.441-.068.319-.478 1.012-.364 1.683.071-.493.313-.944.364-1.183 0 0 1.194.835 2.059-.441.781.201 1.305-.143 1.977.1.391.172 1.98.077 1.548-.776z"/></svg>