<svg height="48" width="48" xmlns="http://www.w3.org/2000/svg">
    <path d="M14 28h24v20H14z" fill="#455a64"/>
    <circle cx="14" cy="38" fill="#455a64" r="10"/>
    <path d="M19 30a3 3 0 0 0-3 3 3 3 0 0 0 .04.473l-4.884 2.441a3 3 0 0 1-.004-.004A3 3 0 0 0 9 35a3 3 0 0 0-3 3 3 3 0 0 0 3 3 3 3 0 0 0 2.152-.918l4.887 2.445A3 3 0 0 0 16 43a3 3 0 0 0 3 3 3 3 0 0 0 3-3 3 3 0 0 0-3-3 3 3 0 0 0-2.152.918l-4.887-2.445A3 3 0 0 0 12 38a3 3 0 0 0-.04-.477l4.884-2.441A3 3 0 0 0 19 36a3 3 0 0 0 3-3 3 3 0 0 0-3-3z" fill="#f4f4f7"/>
    <circle cx="38" cy="38" fill="#14ad7a" r="10"/>
    <path d="M43.5 33 37 39.5l-4-4-2 2 6 6 8.5-8.5z" fill="#f4f4f7"/>
</svg>
