<svg xmlns="http://www.w3.org/2000/svg" width="22" height="22" version="1"><rect style="opacity:.2" width="16" height="16" x="-21.5" y="-19" rx="4" ry="5" transform="matrix(0 -1 -1 0 0 0)"/><rect style="fill:#8e8e8e" width="16" height="16" x="-17" y="-19" rx="1.5" ry="1.5" transform="matrix(0 -1 -1 0 0 0)"/><rect style="fill:#8e8e8e" width="16" height="16" x="-21" y="-19" rx="4" ry="5" transform="matrix(0 -1 -1 0 0 0)"/><rect style="fill:#333" width="12" height="13" x="5" y="3" rx=".5" ry=".5"/><circle style="fill:#4d4d4d" cx="7" cy="18" r="1"/><circle style="fill:#4d4d4d" cx="16" cy="18" r="1"/><path style="fill:#4d4d4d" d="M14 1h1v1h-1z"/><circle style="fill:#4d4d4d" cx="11.5" cy="18.5" r="1.5"/><path style="opacity:.1;fill:#f4f4f7" d="M4.5 1C3.669 1 3 1.669 3 2.5V3c0-.831.669-1.5 1.5-1.5h13c.831 0 1.5.669 1.5 1.5v-.5c0-.831-.669-1.5-1.5-1.5z"/></svg>