<svg height="16" width="16" xmlns="http://www.w3.org/2000/svg">
    <path d="M8 1a1 1 0 0 0-1 1v.01C5.236 2.466 4.002 4.178 4 6c0 0 0 5-1.66 5.621-.016.011-.023.031-.04.043a.726.726 0 0 0-.161.176c-.018.027-.039.048-.053.076A.738.738 0 0 0 2 12.25c0 .416.335.75.75.75h10.5c.416 0 .75-.334.75-.75a.738.738 0 0 0-.086-.334c-.014-.028-.035-.05-.052-.076a.725.725 0 0 0-.162-.176c-.016-.012-.023-.032-.04-.043C12 11.001 12 6 12 6c-.002-1.823-1.235-3.535-3-3.99V2a1 1 0 0 0-1-1zM6.067 14A2 2 0 0 0 8 15.5 2 2 0 0 0 9.936 14z" fill="#d33636"/>
</svg>
