<svg height="16" width="16" xmlns="http://www.w3.org/2000/svg"><g fill="#4285f4"><circle cx="13" cy="2" r="2"/><path d="m5.5 0a1.5 1.5 0 0 0 -1.5 1.5 1.5 1.5 0 0 0 1.5 1.5h1.5v-1.5a1.5 1.5 0 0 0 -1.5-1.5zm4 0a1.5 1.5 0 0 0 -1.5 1.5v4a1.5 1.5 0 0 0 1.5 1.5 1.5 1.5 0 0 0 1.5-1.5v-1.2676a3 3 0 0 1 -1-2.2324 3 3 0 0 1 .484-1.62891 1.5 1.5 0 0 0 -.984-.37109zm-8 4a1.5 1.5 0 0 0 -1.5 1.5 1.5 1.5 0 0 0 1.5 1.5h4a1.5 1.5 0 0 0 1.5-1.5 1.5 1.5 0 0 0 -1.5-1.5zm13.131.5156a3 3 0 0 1 -1.631.4844 3 3 0 0 1 -.859-.127 1.5 1.5 0 0 0 -.141.627v1.5h1.5a1.5 1.5 0 0 0 1.5-1.5 1.5 1.5 0 0 0 -.369-.9844zm-13.131 3.4844a1.5 1.5 0 0 0 -1.5 1.5 1.5 1.5 0 0 0 1.5 1.5 1.5 1.5 0 0 0 1.5-1.5v-1.5zm4 0a1.5 1.5 0 0 0 -1.5 1.5v4a1.5 1.5 0 0 0 1.5 1.5 1.5 1.5 0 0 0 1.5-1.5v-4a1.5 1.5 0 0 0 -1.5-1.5zm4 0a1.5 1.5 0 0 0 -1.5 1.5 1.5 1.5 0 0 0 1.5 1.5h4a1.5 1.5 0 0 0 1.5-1.5 1.5 1.5 0 0 0 -1.5-1.5zm-1.5 4v1.5a1.5 1.5 0 0 0 1.5 1.5 1.5 1.5 0 0 0 1.5-1.5 1.5 1.5 0 0 0 -1.5-1.5z"/></g></svg>