<svg width="16" height="16" xmlns="http://www.w3.org/2000/svg">
    <defs>
        <style id="current-color-scheme" type="text/css">
            .ColorScheme-Text{color:#fff}
        </style>
    </defs>
    <path d="M1181.6 94.668c-2.158.002-3.992 1.331-4.868 3.232l-.061.13-.139.01c-1.994.144-3.572 1.87-3.572 3.968 0 2.193 1.716 3.992 3.838 3.992h9.284c1.592 0 2.878-1.35 2.878-2.988 0-1.192-.707-2.27-1.805-2.735l-.137-.058-.01-.149c-.135-2.993-2.487-5.4-5.404-5.402z" transform="matrix(-.5 0 0 .5 594.48 -45.334)" opacity=".5" style="fill:currentColor" class="ColorScheme-Text"/>
    <path d="M1181.6 94.668c-2.158.002-3.992 1.331-4.868 3.232l-.061.13-.139.01c-1.994.144-3.572 1.87-3.572 3.968 0 2.193 1.716 3.992 3.838 3.992h9.284c1.592 0 2.878-1.35 2.878-2.988 0-1.192-.707-2.27-1.805-2.735l-.137-.058-.01-.149c-.135-2.993-2.487-5.4-5.404-5.402z" transform="matrix(.875 0 0 .875 -1024.3 -79.834)" style="fill:currentColor" class="ColorScheme-Text"/>
</svg>
