<svg height="16" width="16" xmlns="http://www.w3.org/2000/svg">
    <path d="M13.41 3.002a2.492 2.492 0 0 0-1.816.89.5.5 0 1 0 .765.643 1.495 1.495 0 0 1 1.822-.375c.624.313.946 1.007.785 1.686A1.495 1.495 0 0 1 13.507 7h-7a.5.5 0 1 0 0 1h7a.5.5 0 0 0 .1-.008 2.502 2.502 0 0 0 2.334-1.916 2.504 2.504 0 0 0-1.31-2.81 2.496 2.496 0 0 0-1.221-.264zm-4.706.01a1.498 1.498 0 0 0-1.338.523.5.5 0 1 0 .766.643c.15-.18.398-.23.608-.125s.315.334.261.562A.495.495 0 0 1 8.515 5a.5.5 0 0 0-.008 0h-7a.5.5 0 1 0 0 1h7a.5.5 0 0 0 .008 0h.002a.5.5 0 0 0 .162-.027 1.492 1.492 0 0 0 1.295-1.127 1.503 1.503 0 0 0-1.27-1.834zM.507 7a.5.5 0 1 0 0 1h4a.5.5 0 1 0 0-1zm.951 2.002a.5.5 0 0 0 .05 1h11a.5.5 0 0 0 .007 0c.235 0 .432.155.487.383a.496.496 0 0 1-.262.562.495.495 0 0 1-.608-.125.5.5 0 1 0-.765.643 1.499 1.499 0 0 0 1.822.377 1.505 1.505 0 0 0 .785-1.688 1.489 1.489 0 0 0-1.293-1.123.5.5 0 0 0-.174-.03h-11a.5.5 0 0 0-.049 0zM3.508 11a.5.5 0 1 0 0 1l5 .002a.5.5 0 0 0 .007 0c.235 0 .432.155.487.383a.496.496 0 0 1-.262.562.495.495 0 0 1-.608-.125.5.5 0 1 0-.765.643 1.499 1.499 0 0 0 1.822.377c.619-.31.945-1.014.785-1.688a1.489 1.489 0 0 0-1.293-1.123.5.5 0 0 0-.174-.029z" fill="#f4f4f7"/>
</svg>
