<svg xmlns="http://www.w3.org/2000/svg" width="48" height="48">
    <path d="M24 2C11.85 2 2 11.846 2 24s9.85 22 22 22 22-9.846 22-22S36.15 2 24 2zm-4.182 5.601 4.411 2.887 4.498-2.83 2.406 4.707 5.3-.202-.287 5.283 4.67 2.454-2.894 4.446 2.836 4.447-4.727 2.367.172 5.284-5.27-.29-2.493 4.678-4.411-2.887-4.498 2.8-2.377-4.677-5.3.173.287-5.283-4.698-2.454 2.922-4.417-2.836-4.475 4.726-2.397-.2-5.254 5.3.288 2.463-4.648zm13.692 9.614a1.42 1.42 0 0 0-.83.433L22.596 27.782l-5.843-5.89a1.402 1.402 0 0 0-1.404-.433c-.515.127-.905.52-1.031 1.04a1.427 1.427 0 0 0 .43 1.414l6.846 6.9c.554.557 1.45.557 2.005 0L34.685 19.67a1.42 1.42 0 0 0 .286-1.645 1.412 1.412 0 0 0-1.46-.809z" fill="#dbdbdb"/>
</svg>
