<svg xmlns="http://www.w3.org/2000/svg" width="48" height="48">
    <path d="M24 2C11.85 2 2 11.846 2 24s9.85 22 22 22 22-9.846 22-22S36.15 2 24 2zm.23 3.753c9.964 0 18.046 8.18 18.046 18.247s-8.082 18.247-18.047 18.247S6.154 34.067 6.154 24s8.11-18.247 18.075-18.247zm0 2.05C15.365 7.803 8.187 15.037 8.186 24c0 8.963 7.179 16.197 16.042 16.197 8.864 0 16.013-7.234 16.013-16.197S33.092 7.803 24.23 7.803zm-2.75 5.284c.08-.014.174-.008.257 0 .374.025.69.255.83.606.141.35.081.76-.171 1.04-1.333 1.618-1.85 2.233-2.35 2.829h10.056a.955.955 0 0 1 .2 0c.536.076.913.554.86 1.097-.054.542-.52.956-1.06.924h-9.769l1.776 2.425a.977.977 0 0 1 .172 1.01.98.98 0 0 1-.83.607.975.975 0 0 1-.917-.462l-3.151-4.302a.991.991 0 0 1 .057-1.213s-.013.006 3.438-4.186a.96.96 0 0 1 .601-.375zm5.614 11.837a.974.974 0 0 1 .86.375c3.45 4.192 3.437 4.187 3.437 4.187a.991.991 0 0 1 .057 1.212L28.297 35a.975.975 0 0 1-.917.462.98.98 0 0 1-.83-.606.977.977 0 0 1 .171-1.01l1.776-2.426H18.73a1.016 1.016 0 0 1-1.06-.924 1.002 1.002 0 0 1 .86-1.097.955.955 0 0 1 .2 0h10.055c-.5-.596-1.016-1.21-2.35-2.83a1.002 1.002 0 0 1-.171-1.039.954.954 0 0 1 .83-.606z" fill="#dbdbdb"/>
</svg>
