<svg xmlns="http://www.w3.org/2000/svg" width="48" height="48">
    <path d="M24 2C11.85 2 2 11.846 2 24s9.85 22 22 22 22-9.846 22-22S36.15 2 24 2zM9.047 13.635c.04-.003.103-.003.143 0h29.62a.96.96 0 0 1 .83.462.973.973 0 0 1 0 .953L24.803 41.034a.905.905 0 0 1-.802.49.905.905 0 0 1-.802-.49L8.359 15.05a.959.959 0 0 1-.028-.895.931.931 0 0 1 .716-.52zm7.877 4.302a.689.689 0 0 0-.544.693v4.302a.685.685 0 0 0 .688.693h13.578a.681.681 0 0 0 .487-.202.692.692 0 0 0 .2-.491V18.63a.692.692 0 0 0-.2-.49.681.681 0 0 0-.487-.203H17.068a.672.672 0 0 0-.144 0z" fill="#dbdbdb"/>
</svg>
