<svg xmlns="http://www.w3.org/2000/svg" width="48" height="48">
    <path fill="#dbdbdb" d="m20.333 2-.785.337h-5.933a2.172 2.172 0 0 0-2.174 2.174v1.234L3.335 9.153A2.174 2.174 0 0 0 2.17 12l9.271 22.048v5.89c0 1.203.972 2.175 2.174 2.175h1.206l1.08 2.552a2.174 2.174 0 0 0 2.848 1.165l8.836-3.717h12.833a2.16 2.16 0 0 0 2.16-2.174V35.8l.883-.364a2.152 2.152 0 0 0 1.15-2.833l-2.02-4.811.029-14.937L32.059 2.323l-10.912.014L20.333 2zm13.675 7.784a.55.55 0 0 1 .379.056c.182.121.29.505.154.786-1.73 3.552-4.114 7.572-7.49 11.795l.211.14-4.965 7.462-.379-.239a.983.983 0 0 1-.645 1.122l.014.015c-.672.918-.203 1.42-.547 1.935-.604.906-3.144 1.29-4.04 2.342 1.263-2.249 1.707-3.789 3.255-5.175l.028.028a.993.993 0 0 1 .785-1.038l-.35-.238 4.965-7.448.21.14c2.59-4.751 5.397-8.514 8.023-11.472a.665.665 0 0 1 .392-.21zm1.936 26.073c.55 0 .989.178 1.318.547.33.369.491.867.491 1.487 0 .619-.161 1.117-.49 1.487-.33.368-.769.547-1.32.547-.552 0-1-.179-1.332-.547-.33-.368-.49-.866-.49-1.487 0-.62.16-1.118.49-1.487.332-.37.78-.547 1.333-.547zm4.334 0c.235 0 .452.022.659.085.208.061.407.156.589.28v.561a1.85 1.85 0 0 0-.575-.365 1.693 1.693 0 0 0-.645-.126c-.45 0-.786.132-1.024.407-.239.273-.365.673-.365 1.192 0 .517.126.917.365 1.192.238.274.575.407 1.024.407a1.7 1.7 0 0 0 .645-.126 1.85 1.85 0 0 0 .575-.365v.547a2.254 2.254 0 0 1-1.248.379c-.595 0-1.061-.184-1.403-.547-.342-.365-.519-.857-.519-1.487 0-.631.177-1.124.52-1.487.34-.364.807-.547 1.402-.547zm-10.07.07H31.3c.761 0 1.313.16 1.67.477.355.316.532.8.532 1.473 0 .677-.175 1.184-.533 1.5-.357.318-.911.478-1.669.478h-1.094v-3.927zm5.736.351c-.386 0-.698.148-.926.435-.226.288-.337.682-.337 1.178 0 .495.11.89.337 1.178.228.288.54.421.926.421.385 0 .687-.133.911-.42.227-.288.337-.684.337-1.179 0-.496-.11-.89-.337-1.178a1.095 1.095 0 0 0-.911-.435zm-5.204.084v3.058h.631c.542 0 .942-.133 1.193-.379.252-.245.378-.634.378-1.164 0-.526-.126-.906-.378-1.15-.251-.245-.65-.365-1.193-.365h-.63z"/>
</svg>
