<svg width="16" height="16" xmlns="http://www.w3.org/2000/svg"><path d="M8 1 2 3c0 3.99-.017 6.071.709 7.654C3.436 12.238 4.927 13.28 8 15c3.073-1.72 4.564-2.762 5.291-4.346.726-1.583.71-3.665.709-7.654L8 1zm0 1 5 1.715c0 3.419.016 5.204-.59 6.56C11.804 11.633 10.561 12.526 8 14c-2.561-1.474-3.804-2.367-4.41-3.725C2.984 8.92 3 7.135 3 3.715L8 2z" color="#000" fill="#f55" style="isolation:auto;mix-blend-mode:normal"/><path class="warning" d="M5 5h1l2 2 2-2h1v1L9 8l2 2v1h-1L8 9l-2 2H5v-1l2-2-2-2z" fill="#f55"/></svg>