<svg width="16" height="16" xmlns="http://www.w3.org/2000/svg"><path d="M7.25 1a.25.25 0 0 0-.25.25v1.5c0 .139.112.25.25.25h.5A.25.25 0 0 0 8 2.75v-1.5A.25.25 0 0 0 7.75 1h-.5zm-4.7 1.947a.25.25 0 0 0-.177.073l-.353.353a.25.25 0 0 0 0 .354l1.06 1.06a.25.25 0 0 0 .354 0l.353-.353a.25.25 0 0 0 0-.354l-1.06-1.06a.246.246 0 0 0-.176-.073zm9.9 0a.246.246 0 0 0-.177.073l-1.058 1.06a.25.25 0 0 0 0 .354l.351.353a.25.25 0 0 0 .354 0l1.06-1.06a.25.25 0 0 0 0-.354l-.353-.353a.25.25 0 0 0-.178-.073zM7.5 5A3.5 3.5 0 0 0 4 8.5 3.5 3.5 0 0 0 7.5 12 3.5 3.5 0 0 0 11 8.5 3.5 3.5 0 0 0 7.5 5zm.01 1A2.5 2.5 0 0 1 10 8.5 2.5 2.5 0 0 1 7.51 11V6zm-.17.006a2.5 2.5 0 0 0-.072.006 2.5 2.5 0 0 1 .072-.006zm-.395.057a2.5 2.5 0 0 0-.084.021 2.5 2.5 0 0 1 .084-.021zm-.377.119a2.5 2.5 0 0 0-.076.03 2.5 2.5 0 0 1 .076-.03zm-.248.115a2.5 2.5 0 0 0-.074.04 2.5 2.5 0 0 1 .074-.04zm-.222.135a2.5 2.5 0 0 0-.073.05 2.5 2.5 0 0 1 .073-.05zm-.104.072a2.5 2.5 0 0 0-.076.06 2.5 2.5 0 0 1 .076-.06zM.25 8a.25.25 0 0 0-.25.25v.5c0 .139.112.25.25.25h1.5A.25.25 0 0 0 2 8.75v-.5A.25.25 0 0 0 1.75 8H.25zm13 0a.25.25 0 0 0-.25.25v.5c0 .139.112.25.25.25h1.5a.25.25 0 0 0 .25-.25v-.5a.25.25 0 0 0-.25-.25h-1.5zm-8.205.033a2.5 2.5 0 0 0-.022.131 2.5 2.5 0 0 0-.011.104 2.5 2.5 0 0 1 .011-.104 2.5 2.5 0 0 1 .022-.13zm-.04.627a2.5 2.5 0 0 0 .007.072 2.5 2.5 0 0 1-.006-.072zm.058.395a2.5 2.5 0 0 0 .021.084 2.5 2.5 0 0 1-.021-.084zm.119.377a2.5 2.5 0 0 0 .03.076 2.5 2.5 0 0 1-.03-.076zm.115.248a2.5 2.5 0 0 0 .04.074 2.5 2.5 0 0 1-.04-.074zm.135.222a2.5 2.5 0 0 0 .05.073 2.5 2.5 0 0 1-.05-.073zm.072.104a2.5 2.5 0 0 0 .06.076 2.5 2.5 0 0 1-.06-.076zm1.53.95a2.5 2.5 0 0 0 .13.02 2.5 2.5 0 0 0 .104.012 2.5 2.5 0 0 1-.104-.011 2.5 2.5 0 0 1-.13-.022zm-3.776 1.183a.252.252 0 0 0-.178.074l-1.06 1.06a.25.25 0 0 0 0 .354l.353.353a.25.25 0 0 0 .354 0l1.06-1.06a.25.25 0 0 0 0-.354l-.353-.353a.248.248 0 0 0-.176-.074zm8.484 0a.248.248 0 0 0-.176.074l-.353.353a.25.25 0 0 0 0 .354l1.06 1.06a.25.25 0 0 0 .354 0l.353-.353a.25.25 0 0 0 0-.354l-1.058-1.06a.252.252 0 0 0-.18-.074zM7.25 14a.25.25 0 0 0-.25.25v1.5c0 .139.112.25.25.25h.5a.25.25 0 0 0 .25-.25v-1.5a.25.25 0 0 0-.25-.25h-.5z" fill="#666" style="isolation:auto;mix-blend-mode:normal"/></svg>