<svg width="16" height="16" xmlns="http://www.w3.org/2000/svg"><path d="M8.031 2c-.725 0-1.432.067-2.12.184l.538.935C6.944 3.045 7.45 3 7.97 3h.002c2.393 0 4.522.836 6.435 2.031L10.197 9.61l.531.92L16 4.72c-2.257-1.654-4.958-2.72-7.969-2.72zm-3.15.402C3.092 2.86 1.449 3.68 0 4.75L8.03 13.5l1.99-2.193-.533-.926-1.517 1.65-6.377-7.03C2.78 4.262 4.05 3.665 5.412 3.321l-.531-.92z" color="#000" fill="#5d656b" opacity=".35"/><rect transform="rotate(-30)" x="2.026" y="2.49" width="1" height="16" rx="0" ry="0" fill="#5d656b"/></svg>