<svg xmlns="http://www.w3.org/2000/svg" width="24" height="24"><defs><style id="current-color-scheme" type="text/css"></style></defs><path style="fill:currentColor;color:#323a41" d="M12 4c-.905.015-2.285.226-2.643.615-.38.416-.464 1-.357 1.647.203 1.233 1.905 2.744 2.914 4.103l-.021.028c-.508.632-1.568 1.212-2.063 1.703.08-.36.137-1.15.15-1.399.012-.213.006-.378-.06-.513a.304.304 0 0 0-.174-.158.326.326 0 0 0-.238.025c-.197.505-.522 1.184-.787 1.818-.244.405-.416 1.129-.528 1.387a2.54 2.54 0 0 0-.127.35.829.829 0 0 0-.033.255c.14.188.364.16.547.172.08 0 .162-.015.254-.07a6.28 6.28 0 0 0 .76-.576c-.2.664-.235.876-.555 1.619-.004.01-.011.02-.016.031-1.688-.23-3.45-.084-4.642.326-.626.216-1.107.695-1.295 1.225-.188.53-.073 1.203.398 2.037.472.835.993 1.217 1.547 1.336.555.119 1.109-.037 1.621-.451.978-.79 1.86-2.624 2.545-4.168l.035.004c.808.119 1.583 1.206 2.26 1.385-.354.11-.77.226-.994.34-.192.096-.335.184-.42.308a.3.3 0 0 0-.053.229.322.322 0 0 0 .143.191c.133.09.32.14.602.182.28.04.75.065 1.226.072h.008c.476-.007.946-.031 1.226-.072.281-.041.47-.091.602-.182a.322.322 0 0 0 .143-.191.3.3 0 0 0-.053-.229c-.085-.124-.228-.212-.42-.309-.225-.113-.64-.228-.994-.34.677-.178 1.452-1.265 2.26-1.384l.035-.004c.686 1.544 1.567 3.378 2.545 4.168.512.414 1.066.57 1.62.451.555-.119 1.076-.501 1.548-1.336.471-.834.586-1.507.398-2.037-.188-.53-.67-1.01-1.295-1.225-1.192-.41-2.954-.556-4.642-.326-.005-.01-.012-.02-.016-.031-.32-.743-.354-.955-.555-1.62.282.241.545.447.76.577.092.055.175.07.254.07.183-.011.408.016.547-.172a.83.83 0 0 0-.033-.255c-.027-.101-.07-.217-.127-.35-.112-.258-.284-.982-.528-1.387-.265-.634-.59-1.313-.787-1.818a.326.326 0 0 0-.238-.025.303.303 0 0 0-.174.158c-.066.135-.072.3-.06.513.013.25.07 1.04.15 1.399-.495-.491-1.554-1.071-2.063-1.703l-.021-.028c1.009-1.36 2.71-2.87 2.914-4.103.107-.647.024-1.231-.357-1.647-.358-.39-1.738-.6-2.643-.615z"/></svg>