<svg height="24" width="24" xmlns="http://www.w3.org/2000/svg">
    <path d="M9.193 4.002c-1.098 1.384-1.427 2.066-1.03 2.947.358.799 1.286 1.206.82 3.053.766-.9 1.375-2.043.773-2.965-.612-.938-.948-1.507-.563-3.035zm3 0c-1.098 1.384-1.427 2.066-1.03 2.947.358.799 1.286 1.206.82 3.053.766-.9 1.375-2.043.773-2.965-.612-.938-.948-1.507-.563-3.035zm3 0c-1.098 1.384-1.427 2.066-1.03 2.947.358.799 1.286 1.206.82 3.053.766-.9 1.375-2.043.773-2.965-.612-.938-.948-1.507-.563-3.035zm-9.193 7v3c0 3 2 5 5 5h2c3 0 4.76-1.566 4.959-4h.541c1.5 0 1.5-1.5 1.5-1.5v-1c0-1.5-1.5-1.5-1.5-1.5H18zm12.5 1c.5-.033.516.53.516.53v1c0 .47-.516.47-.516.47H18l.01-1.985.49-.015z" fill="#555"/>
</svg>
