<svg height="24" width="24" xmlns="http://www.w3.org/2000/svg">
    <g fill="#bebebe">
        <path d="M7.85 4c-2.923.13-6.61 7.018-.698 12.88 5.998 5.945 13.049 2.099 12.844-.89A8.504 8.501 0 0 1 14.505 18a8.504 8.501 0 0 1-8.504-8.5 8.504 8.501 0 0 1 2.025-5.492c-.059-.003-.117-.01-.176-.007z"/>
        <path d="M8.58 4.13a7.995 7.995 0 0 0 5.925 13.37 7.967 7.967 0 0 0 5.365-2.071 2.126 2.126 0 0 0-.626-.824c-1.202-1-3.422-1.718-5.742-4.019-2.449-2.427-3.146-4.728-4.172-5.914a1.936 1.936 0 0 0-.748-.544z" opacity=".3"/>
    </g>
</svg>
