<svg height="24" viewBox="0 0 24 24" width="24" xmlns="http://www.w3.org/2000/svg"><path d="m112.5 911.36375c-.277 0-.5.223-.5.5v1.65625c.31943-.083.65568-.15625 1-.15625h1v-1.5c0-.277-.223-.5-.5-.5zm3 0c-.277 0-.5.223-.5.5v1.5h2v-1.5c0-.277-.223-.5-.5-.5zm3 0c-.277 0-.5.223-.5.5v1.5h1c.3443 0 .6806.0733 1 .15625v-1.65625c0-.277-.223-.5-.5-.5zm-5.5 3c-1.662 0-3 1.338-3 3v6c0 1.662 1.338 3 3 3h6c1.662 0 3-1.338 3-3v-6c0-1.662-1.338-3-3-3zm-5.5 2c-.277 0-.5.223-.5.5v1c0 .277.223.5.5.5h1.5v-1c0-.34432.0733-.68057.15625-1zm5.5 0h6c.554 0 1 .446 1 1v6c0 .554-.446 1-1 1h-6c-.554 0-1-.446-1-1v-6c0-.554.446-1 1-1zm9.8438 0c.083.31943.1562.65568.1562 1v1h1.5c.277 0 .5-.223.5-.5v-1c0-.277-.223-.5-.5-.5zm-9.8438 1v6h6v-6zm-5.5 2c-.277 0-.5.223-.5.5v1c0 .277.223.5.5.5h1.5v-2zm15.5 0v2h1.5c.277 0 .5-.223.5-.5v-1c0-.277-.223-.5-.5-.5zm-15.5 3c-.277 0-.5.223-.5.5v1c0 .277.223.5.5.5h1.65625c-.083-.31943-.15625-.65568-.15625-1v-1zm15.5 0v1c0 .34432-.073.68057-.1562 1h1.6562c.277 0 .5-.223.5-.5v-1c0-.277-.223-.5-.5-.5zm-11 4.84375v1.65625c0 .27699.223.5.5.5h1c.277 0 .5-.22301.5-.5v-1.5h-1c-.34432 0-.68057-.0733-1-.15625zm8 0c-.3194.083-.6557.15625-1 .15625h-1v1.5c0 .27699.223.5.5.5h1c.277 0 .5-.22301.5-.5zm-5 .15625v1.5c0 .27699.223.5.5.5h1c.277 0 .5-.22301.5-.5v-1.5z" fill="#555" transform="translate(-104 -908.36216)"/></svg>