<svg height="24" width="24" xmlns="http://www.w3.org/2000/svg">
    <g fill="#bebebe">
        <path d="M12 4a8 8 0 0 0-8 8 7.98 7.98 0 0 0 3.184 6.377c.035-.02.072-.036.107-.057a14.25 14.25 0 0 0 1.652-1.164A5.99 5.99 0 0 1 6 12a6 6 0 0 1 6-6c.726 0 1.418.135 2.063.371a9.099 9.099 0 0 0-.118-1.623c.054-.186.075-.28.116-.467v-.004A7.984 7.984 0 0 0 12 4zm2.178.307c.158.723.213 1.456.213 2.191A6 6 0 0 1 12 18c-.968 0-1.88-.235-2.69-.643-.008.008-.016.017-.025.024a9.22 9.22 0 0 1-1.865 1.172A7.956 7.956 0 0 0 12 20a8 8 0 0 0 8-8c0-3.662-2.464-6.744-5.822-7.693z" opacity=".3"/>
        <path d="M14.115 4.002c-.019.11-.032.166-.054.28a5.66 5.66 0 0 1-.116.466c.157.89.16 1.807.075 2.703-.02.204-.048.408-.084.612-.02.046.373.037.373.037a6.78 6.78 0 0 0 .06-.631c.052-1.161.046-2.33-.254-3.467zm-.199 4.107c-.381.339-.767.698-1.053 1.106-.69.986-1.129 2.232-2.02 3.084a7.238 7.238 0 0 1-1.216.91c.228.034.481.056.709.01-.46.29-.974.567-1.35.955-.185.19-.378.384-.558.582.145-.09.316-.192.492-.194.291-.003.85-.326.85-.326s-1.052.677-1.483 1.096c-.245.239-.522.466-.732.738-.19.246-.194.24-.194.24.355-.13.715-.265 1.086-.345-.15.054-.221.08-.373.13-.33.131-.706.23-.988.393-.508.297-1.01 1.057-1.363 1.559-.188.265-.497.49-.65.762-.089.156-.08.32-.06.36.156.286.93.527 1.356.632A8.19 8.19 0 0 0 7.945 20c.313-.065.636-.194.866-.414.312-.298.763-.587.943-.973.103-.218.262-.346.267-.35-.235.39-.493.768-.773 1.126-.134.17-.318.384-.318.384.312-.111.639-.295.945-.345.19-.032.4-.12.545-.254.155-.144.39-.2.527-.348.381-.408.638-1.03 1.002-1.459.046-.054.156-.195.24-.31.068-.094.122-.172.122-.172-.194.438-.387.883-.602 1.308l-.004.012a1.791 1.791 0 0 1-.262.338l-.039.043c-.017.019-.007.019.02.004.389-.205.732-.518 1.103-.764l.032-.02"/>
    </g>
</svg>
