<svg height="24" viewBox="0 0 24 24" width="24" xmlns="http://www.w3.org/2000/svg"><path d="m111.99977 712.36378-5 3 4 2.98438-4.00977 3.00781 5.00977 3.00781 4-3-5-3 5-3 5 3.01562-5 2.98438 1.77734 1.33398c.91425-1.45056 2.50802-2.33148 4.22266-2.33398 1.0745.003 2.11961.35112 2.98047.99414l.0293-.0176-4.00977-2.97654 4-3-5-3-4 2.98438zm10 9c-2.20914 0-4 1.79086-4 4s1.79086 4 4 4 4-1.79086 4-4-1.79086-4-4-4zm-6 1-4 3-1-.59961v.59961l5 3 1.47656-.88477c-.31166-.66173-.47434-1.38378-.47656-2.11523-.00024-.67105.1346-1.3353.39648-1.95312zm6 0a3 3 0 0 1 3 3h-1a2 2 0 0 0 -2-2zm-3 3h1a2 2 0 0 0 2 2v1a3 3 0 0 1 -3-3z" fill="#555" transform="translate(-104 -708.36215)"/></svg>