<svg height="24" width="24" xmlns="http://www.w3.org/2000/svg"><path d="m6 4c-1.108 0-2 .892-2 2v12c0 1.108.892 2 2 2h12c1.108 0 2-.892 2-2v-12c0-1.108-.892-2-2-2zm5.584 1.723h.832c1.844 2.765 5.647 3.28 5.647 3.28l-.125.993s-.834-.124-1.938-.535v4.539h-7.055a5.328 5.328 0 0 1 -.22 1h7.275v3h-8v-1.377l-.066.125c-.52.911-1.043 1.565-1.043 1.565l-.782-.625s.478-.597.957-1.436c.48-.839.934-1.919.934-2.752v-4.04a10.628 10.628 0 0 1 -1.938.536l-.125-.992s3.803-.516 5.647-3.281zm.416.98c-.859 1.07-1.934 1.799-2.934 2.297h2.532l-.875-.584.554-.832 1.5 1-.277.416h2.434c-1-.498-2.075-1.227-2.934-2.297zm-3 3.297v1h5v1h-5v1h6v-3zm0 6v1h6v-1z" fill="#bebebe"/></svg>