<svg height="24" viewBox="0 0 24 24" width="24" xmlns="http://www.w3.org/2000/svg"><path d="m453.9998 404.36184s-2 0-2 2.0625v11.9375c0 2 2 2 2 2h12c2 0 2-2 2-2v-12s0-2-2-2zm.68164 4.32422h4.26172v.87304h-1.60938v5.92969h1.60938v.87305h-4.26172v-.87305h1.60938v-5.92969h-1.60938zm8.14258 1.77929c.37018 0 .68434.0733.9414.22071.25707.14738.46586.3751.62696.68359v-.74609h.94726v5.36914c0 .86375-.20539 1.5173-.61328 1.96289-.40788.44558-1.00705.66797-1.79883.66797-.26049 0-.53191-.0223-.8164-.0703s-.56903-.11841-.85352-.21093v-.93555c.33591.15767.63986.2742.91406.34961.27421.0754.52622.11133.75586.11133.51071 0 .88216-.13839 1.11524-.41602.23307-.27763.34961-.71705.34961-1.32031v-.041-.64258c-.15082.3222-.35669.56109-.61719.71875-.2605.15767-.57756.23633-.95117.23633-.67181 0-1.20639-.26851-1.60742-.80664s-.60157-1.25869-.60157-2.16015c0-.90488.20054-1.62593.60157-2.16407.40103-.53813.93561-.80664 1.60742-.80664zm.21094.80078c-.46273 0-.81524.18646-1.0586.55664-.24336.36676-.36523.90378-.36523 1.61329s.12187 1.25139.36523 1.625c.24679.37018.60416.55468 1.07031.55468.43531 0 .76645-.18498.9961-.55859.23307-.37361.34961-.91501.34961-1.62109 0-.70951-.11654-1.24653-.34961-1.61329-.22965-.37018-.56565-.55664-1.00781-.55664z" fill="#555" transform="translate(-448 -400.36216)"/></svg>