<svg height="24" width="24" xmlns="http://www.w3.org/2000/svg"><g fill="#8b9cbe"><path d="m17.436 4a1 1 0 0 0 -.16.02l-10.3 2.17a.971.971 0 0 0 -.029.01c-1.436.346-2.449 1.43-3.13 2.677-.683 1.246-1.093 2.71-1.362 4.137a27.632 27.632 0 0 0 -.451 5.277c.005.223.034.378.049.535v.01c-.002.025-.004.05-.004.074h.01c.01.08-.007.138.023.254a1 1 0 0 0 .957.746l9.04.09c.073.001.147-.006.22-.021l9.892-2.13a1 1 0 0 0 .79-.93s.147-2.972-.37-6.04c-.258-1.534-.673-3.104-1.433-4.404-.761-1.3-1.996-2.376-3.64-2.467a1 1 0 0 0 -.102 0zm.05 2.02c.843.07 1.423.529 1.965 1.455.557.95.952 2.33 1.188 3.728.408 2.422.315 4.257.297 4.865l-8.66 1.862c-.007-2.503-.308-8.52-3.213-10.137zm-10.513 2.976c2.947 0 3.027 8.996 3.027 8.996h-6s.025-8.996 2.973-8.996zm7.566-.996-2.459.21-.08.09 1.182 4.618.113.082 1.389-.066.039-.141-.9-3.395 1.161-.076.016-.097-.396-1.15z"/><path d="m6.973 8.996c2.947 0 3.027 8.997 3.027 8.997h-6s.025-8.997 2.973-8.997z" opacity=".3"/></g></svg>