<svg height="24" viewBox="0 0 24 24" width="24" xmlns="http://www.w3.org/2000/svg"><path d="m573.9998 404.36184s-2 0-2 2.0625v11.9375c0 2 2 2 2 2h12c2 0 2-2 2-2v-12s0-2-2-2zm1.56641 4.32422h2.99609v5.17187c0 .96658-.1816 1.64976-.54492 2.05078-.3599.40103-.96198.60156-1.8086.60156-.32904 0-.6568-.0359-.98242-.11132-.32562-.0754-.66453-.19195-1.01758-.34961v-1.21485c.31192.27764.63432.48642.9668.62696.33248.1371.67674.20703 1.0332.20703.49015 0 .82954-.12722 1.02149-.38086.19537-.25707.29492-.73389.29492-1.42969v-4.29883h-1.95898zm7.45898 1.77929c.47644 0 .88285.0704 1.21875.21094.33933.14053.61318.3498.82227.63086.13024.17138.2225.38503.27734.63867.0548.25021.082.627.082 1.13086v3.28516h-.95117v-.85352c-.20223.34276-.45714.59719-.76563.76172-.30505.16109-.6765.24023-1.11523.24023-.58612 0-1.05468-.16314-1.4043-.49218-.34961-.33248-.52343-.77676-.52343-1.33203 0-.64096.21413-1.12847.64257-1.46094.43188-.33248 1.06358-.49805 1.89649-.49805h1.26953v-.14844c-.003-.45929-.11993-.79238-.34961-.99804-.22965-.20908-.59575-.31446-1.09961-.31446-.32219 0-.64751.0481-.97656.14063-.32905.0925-.64903.22606-.96094.4043v-.94532c.34961-.13367.68319-.2337 1.00195-.29883.3222-.0686.63392-.10156.93555-.10156zm.25195 3.00196c-.55184 0-.96893.0976-1.25.29296-.27763.19195-.41601.4794-.41601.86329 0 .34618.10537.61664.31445.80859s.49896.28711.86914.28711c.521 0 .93032-.17916 1.22852-.53906.2982-.36332.44774-.86442.45117-1.50196v-.21093h-.88281z" fill="#555" transform="translate(-568 -400.36216)"/></svg>