<svg height="24" width="24" xmlns="http://www.w3.org/2000/svg"><g fill="#bebebe"><path d="m12.033 6c-3.033 0-5.766 1.078-8.031 2.75l8.031 8.75.967-1.064v-1.436h1.014c.02-1.635 1.342-3 2.986-3l.021.002 2.98-3.283c-2.255-1.654-4.956-2.719-7.967-2.719zm-.062 1c2.393 0 4.524.836 6.437 2.031l-6.437 7-6.375-7.031c1.9-1.179 4.005-2 6.375-2z"/><path d="m11.972 10.406c-1.12 0-2.148.258-3.094.719l3.094 3.406 3.093-3.375c-.948-.461-1.973-.75-3.093-.75zm5.028 2.594c-1.108 0-2 .91-2 2.031v.969h-1v4h6v-4h-1v-.969c0-1.12-.892-2.031-2-2.031zm0 1c.554 0 1 .442 1 1v1h-2v-1c0-.558.446-1 1-1z"/></g></svg>