<svg height="24" viewBox="0 0 24 24" width="24" xmlns="http://www.w3.org/2000/svg"><path d="m164.03125 330.35995c-3.03435 0-5.76588 1.07815-8.03125 2.75l8.03125 8.75 7.96875-8.78125c-2.25661-1.65329-4.9577-2.71875-7.96875-2.71875zm-.03125 2.00391c1.10457 0 2 .89543 2 2s-.89543 2-2 2v1h-1v-2h1c.55229 0 1-.44772 1-1s-.44771-1-1-1c-.55228 0-1 .44772-1 1h-1c0-1.10457.89543-2 2-2zm-.5 5.75a.75.75 0 0 1 .75.75.75.75 0 0 1 -.75.75.75.75 0 0 1 -.75-.75.75.75 0 0 1 .75-.75z" fill="#555" transform="translate(-152.0002 -324.36047)"/></svg>