<svg height="24" viewBox="0 0 24 24" width="24" xmlns="http://www.w3.org/2000/svg"><path d="m44 330.36216c-3.03435 0-5.76588 1.07815-8.03125 2.75l8.03125 8.75 1-1.10156v-1.39844h1.013672c.01961-1.63157 1.33745-2.99245 2.976562-2.99805l2.978516-3.2832c-2.25661-1.65329-4.9577-2.71875-7.96875-2.71875zm5 7c-1.108 0-2 .91085-2 2.03125v.96875h-1v1 2 1h1 4 1v-1-2-1h-1v-.96875c0-1.1199-.892-2.03125-2-2.03125zm0 1c.554 0 1 .4424 1 1v1h-2v-1c0-.5576.446-1 1-1z" fill="#555" transform="translate(-32.000202 -324.36047)"/></svg>