<svg xmlns="http://www.w3.org/2000/svg" width="24" height="24"><defs><style id="current-color-scheme" type="text/css"></style></defs><path style="fill:currentColor;color:#8b9cbe" d="M11.466 4.004c-.668.034-1.961.34-2.634 1.431 0 0-.621-.2.103-1.34C8.935 4.096 7 4 5.943 5H4v10.166s2.63 5.814 11.175 4.69c0 0 3.868-.585 3.362-4.21 0 0 1.208-1.374 1.38-3.127.16-1.618.142-2.387-.54-4.485a.145.145 0 0 0-.282.016c-.239 1.157-.705 3.501-2.722 4.684 0 0 1.062-1.374.482-3.753-.018-.076-.124-.068-.133.01-.085.755-.387 1.803-1.418 2.132 0 0-.84-2.409-3.634-3.982 0 0 .241-.753.31-1.29.07-.536-.173-.786-.035-1.037.138-.25.69-.607.69-.607s-.5-.238-1.169-.203zm1.47 7.998a1 1 0 1 1 .13 1.994 1 1 0 0 1-.13-1.994zm3.49 5a.938.938 0 0 1 .41.105c.04.024.183.106.162.203-.02.093-.176.147-.235.166-.179.06-.25.01-.484.057a1.151 1.151 0 0 0-.383.145c-.123.078-.092.11-.205.183-.11.073-.346.178-.514.125-.16-.05-.175-.218-.177-.25-.02-.229.243-.402.353-.474.113-.074.37-.215.75-.25.065-.006.186-.018.322-.01z"/></svg>