<svg xmlns="http://www.w3.org/2000/svg" width="24" height="24"><defs><style id="current-color-scheme" type="text/css"></style></defs><path style="fill:currentColor;color:#8b9cbe" d="M17.262 3a.265.265 0 0 0-.262.266V4H9c-1 0-2.13-.054-3.197.48C4.735 5.014 4 6.278 4 8v9h2V8c0-1.278.265-1.514.697-1.73C7.13 6.054 8 6 9 6h10.736a.265.265 0 0 0 .186-.451l-2.47-2.47a.265.265 0 0 0-.19-.079zM18 7v9c0 1.278-.265 1.514-.697 1.73C16.87 17.946 16 18 15 18H4.264a.265.265 0 0 0-.186.451l2.47 2.47a.265.265 0 0 0 .19.079.265.265 0 0 0 .262-.266V20h8c1 0 2.13.054 3.197-.48C19.265 18.986 20 17.722 20 16V7zm-8 3c-.554 0-1 .446-1 1v1c0 .554.446 1 1 1s1-.446 1-1v-1c0-.554-.446-1-1-1zm4 0c-.554 0-1 .446-1 1v1c0 .554.446 1 1 1s1-.446 1-1v-1c0-.554-.446-1-1-1z"/></svg>