<svg height="24" viewBox="0 0 24 24" width="24" xmlns="http://www.w3.org/2000/svg"><path d="m232.5 912.36184c-2.48528 0-4.5 2.01472-4.5 4.5.002.79285.21369 1.57106.61328 2.25586-.0723.41084-.11019.827-.11328 1.24414 0 4.14214 3.35786 7.5 7.5 7.5.41888-.00019.83701-.0355 1.25-.10547.68384.39586 1.45985.60468 2.25.60547 2.48528 0 4.5-2.01472 4.5-4.5-.002-.79285-.21369-1.57106-.61328-2.25586.0723-.41084.11019-.827.11328-1.24414 0-4.14214-3.35786-7.5-7.5-7.5-.41888.00018-.83701.0355-1.25.10546-.68384-.39585-1.45985-.60468-2.25-.60546zm-.5 7.08984h8v2h-8z" fill="#03a9f4" transform="translate(-224 -908.36216)"/></svg>