<svg xmlns="http://www.w3.org/2000/svg" width="24" height="24"><defs><style id="current-color-scheme" type="text/css">.ColorScheme-Text{color:#8b9cbe}</style></defs><path style="fill:currentColor" class="ColorScheme-Text" d="M10.748 9a.73.79 0 0 0-.748.793v4.416a.73.79 0 0 0 1.096.686l3.539-2.21a.73.79 0 0 0 0-1.369l-3.54-2.21A.73.79 0 0 0 10.749 9z"/><path style="opacity:.3;fill:currentColor" class="ColorScheme-Text" d="M12 4c-4.406 0-8 3.594-8 8 0 4.406 3.594 8 8 8 4.406 0 8-3.594 8-8 0-4.406-3.594-8-8-8zm0 2c3.326 0 6 2.674 6 6s-2.674 6-6 6-6-2.674-6-6 2.674-6 6-6z"/><path style="fill:currentColor" class="ColorScheme-Text" d="M12 4v2a6 6 0 0 1 6 6 6 6 0 0 1-6 6 6 6 0 0 1-1.248-.133l-.416 1.957a8 8 0 0 0 7.969-2.898 8 8 0 0 0 .884-8.434A8 8 0 0 0 12 4z"/></svg>