<svg height="24" viewBox="0 0 24 24" width="24" xmlns="http://www.w3.org/2000/svg"><path d="m92 665.36021c-.553946 0-1 .44605-1 1v5.0039c0 .55395.446054 1 1 1s1-.44605 1-1v-5.0039c0-.55395-.446054-1-1-1zm2.939453 1.99218a1.0001 1.0001 0 0 0 -.542969 1.8086c1.37787 1.03068 1.941047 2.81632 1.404297 4.45117-.53674 1.63485-2.048881 2.73856-3.769531 2.75195-1.72065.0134-3.25036-1.06706-3.8125-2.69336-.56214-1.62629-.0257-3.42064 1.335938-4.47265a1.0001 1.0001 0 1 0 -1.222657-1.58203c-2.03498 1.57224-2.842073 4.27849-2.001953 6.70898.84011 2.43049 3.145277 4.05909 5.716797 4.03906 2.57151-.02 4.852137-1.68562 5.654297-4.1289.80217-2.44329-.0482-5.13542-2.107422-6.67578a1.0001 1.0001 0 0 0 -.654297-.20704z" fill="#f44336" transform="translate(-80.000227 -660.36054)"/></svg>