<svg height="24" width="24" xmlns="http://www.w3.org/2000/svg"><path d="m11 4a7 6.5 0 0 0 -7 6.5 7 6.5 0 0 0 2 4.547v2.953l1.32-1.98a7 6.5 0 0 0 2.262.834 5.081 5.081 0 0 1 -.582-2.354c0-2.44 1.723-4.455 4.049-5.193a1 1 0 0 1 -.049-.307 1 1 0 0 1 1-1 1 1 0 0 1 1 1c1.061 0 2.067.262 2.943.717a7 6.5 0 0 0 -6.943-5.717zm-3 4a1 1 0 0 1 1 1 1 1 0 0 1 -1 1 1 1 0 0 1 -1-1 1 1 0 0 1 1-1zm7 2a5 4.5 0 0 0 -5 4.5 5 4.5 0 0 0 5 4.5 5 4.5 0 0 0 1.01-.096c.052-1.6 1.378-2.904 2.99-2.904.231 0 .455.031.672.082a5 4.5 0 0 0 .328-1.582 5 4.5 0 0 0 -5-4.5zm-2 2a1 1 0 0 1 1 1 1 1 0 0 1 -1 1 1 1 0 0 1 -1-1 1 1 0 0 1 1-1zm4 0a1 1 0 0 1 1 1 1 1 0 0 1 -1 1 1 1 0 0 1 -1-1 1 1 0 0 1 1-1zm2 6a.983.983 0 0 0 -.926.613l.926 1.387z" fill="#bebebe"/><circle cx="19" cy="19" fill="#5294e2" r="2"/></svg>