<svg height="24" width="24" xmlns="http://www.w3.org/2000/svg"><g fill="#bebebe"><path d="m11.998 5s-3.779 0-6.297.19c-.352.043-1.118.047-1.803.79-.54.567-.714 1.852-.714 1.852s-.178 1.511-.18 3.022l-.004 2.286c-.003 1.51.18 3.021.18 3.021s.175 1.285.714 1.852c.685.743 1.584.72 1.985.799 1.44.143 6.119.187 6.119.187s1.211-.015 2.408-.04a4.94 4.94 0 0 1 -.406-1.959c0-2.75 2.25-5 5-5 .71 0 1.385.153 1.998.423l.002-1.57c.003-1.51-.18-3.021-.18-3.021s-.175-1.286-.715-1.852c-.684-.744-1.452-.748-1.804-.791-2.519-.19-6.295-.19-6.295-.19h-.006zm-2.998 3 6 4.014-6 3.986z"/><path d="m19 13a4 4 0 1 0 0 8 4 4 0 0 0 0-8zm0 1a3 3 0 0 1 3 3h-1a2 2 0 0 0 -2-2zm-3 3h1a2 2 0 0 0 2 2v1a3 3 0 0 1 -3-3z"/></g></svg>