<svg xmlns="http://www.w3.org/2000/svg" width="64" height="64" version="1"><rect style="opacity:.2" width="56" height="44" x="-61" y="-54" rx="4" ry="4" transform="matrix(0 -1 -1 0 0 0)"/><rect style="fill:#8e8e8e" width="56" height="44" x="-60" y="-54" rx="4" ry="4" transform="matrix(0 -1 -1 0 0 0)"/><path style="opacity:.2;fill:#fff" d="M14 4c-2.216 0-4 1.784-4 4v1c0-2.216 1.784-4 4-4h36c2.216 0 4 1.784 4 4V8c0-2.216-1.784-4-4-4H14z"/><g style="opacity:.5"><path d="M28 40h8v3h-8zM28 45h8v3h-8zM32 24a7 7 0 0 0-7 7 7 7 0 0 0 7 7 7 7 0 0 0 7-7 7 7 0 0 0-7-7zm0 3a4 4 0 0 1 4 4 4 4 0 0 1-4 4 4 4 0 0 1-4-4 4 4 0 0 1 4-4zM41.189 27.4l-5.657-5.656 5.657-5.657 5.657 5.657zM28.461 21.744 22.804 27.4l-2.121-2.12 5.657-5.658zM24.926 18.208l-5.657 5.657-2.122-2.121 5.657-5.657z"/></g></svg>