<svg height="64" width="64" xmlns="http://www.w3.org/2000/svg">
    <circle cx="32" cy="33" opacity=".2" r="28"/>
    <circle cx="32" cy="32" fill="#f4f4f7" r="28"/>
    <path d="M40.563 14.187 33.386 26.61l3.46 2 7.18-12.422zM26.988 37.676l-7.07 12.234 3.465 2.004 7.07-12.234z" opacity=".1"/>
    <path d="m26.988 36.676-7.07 12.234 3.465 2.004 7.07-12.234z" fill="#7f80a1"/>
    <path d="m40.563 13.188-7.176 12.421 3.46 2 7.18-12.422z" fill="#0d65d7"/>
    <path d="m20.445 25-8.082 14 8.082 14H36.61l8.082-14-8.082-14zm2.309 4H34.3l5.773 10L34.3 49H22.754L16.98 39z" opacity=".1"/>
    <path d="m20.445 24-8.082 14 8.082 14H36.61l8.082-14-8.082-14zm2.309 4H34.3l5.773 10L34.3 48H22.754L16.98 38z" fill="#7f80a1"/>
    <path d="m27.39 13-8.08 14 8.082 14h16.164l8.082-14-8.078-14zm2.31 4h11.55l5.77 10-5.774 10H29.703l-5.777-10z" opacity=".1"/>
    <path d="m27.39 12-8.08 14 8.082 14h16.164l8.082-14-8.078-14zm2.31 4h11.55l5.77 10-5.774 10H29.703l-5.777-10z" fill="#0d65d7"/>
    <path d="M32 4A28 28 0 0 0 4 32a28 28 0 0 0 .018.492A28 28 0 0 1 32 5a28 28 0 0 1 27.975 27.492A28 28 0 0 0 60 32 28 28 0 0 0 32 4z" fill="#f4f4f7" opacity=".2"/>
</svg>
