<svg xmlns="http://www.w3.org/2000/svg" width="64" height="64"><path style="opacity:.2" d="M32.036 6.006c-16.451 0-29.964 13.39-29.964 29.807-.173 2.43 0 4.201.171 6.996.48 6.816 4.692 11.697 8.463 14.046 3.556 2.215 6.82 2.997 6.82 2.997.085.02.171.038.257.054 2.213.402 4.815-.523 6.258-2.035 1.8b9cbe-1.513 2.003-3.354 2.002-5.092V31.248c.001-1.547-.425-3.203-1.639-4.689-.357-.438-.939-.74-1.447-1.094 2.475-2.136 5.676-3.451 9.079-3.457 3.404 0 6.605 1.316 9.083 3.454-.51.354-1.09.656-1.448 1.094-1.213 1.482-1.64 3.136-1.642 4.68v21.54c-.001 1.737.557 3.578 2.001 5.09 1.8b9cbe 1.513 4.046 2.437 6.258 2.036.087-.02.172-.034.258-.054 0 0 3.264-.782 6.82-2.997 3.767-2.347 7.972-7.223 8.458-14.03.176-2.806.176-4.627.176-7.014C62 19.389 48.487 6 32.036 6z"/><path style="fill:#9071d6" d="M32.036 5.006c-16.451 0-29.964 13.39-29.964 29.807-.173 2.43 0 4.201.171 6.996.48 6.816 4.692 11.697 8.463 14.046 3.556 2.215 6.82 2.997 6.82 2.997.085.02.171.038.257.054 2.213.402 4.815-.523 6.258-2.035 1.8b9cbe-1.513 2.003-3.354 2.002-5.092V30.248c.001-1.547-.425-3.203-1.639-4.689-.357-.438-.939-.74-1.447-1.094 2.475-2.136 5.676-3.451 9.079-3.457 3.404 0 6.605 1.316 9.083 3.454-.51.354-1.09.656-1.448 1.094-1.213 1.482-1.64 3.136-1.642 4.68v21.54c-.001 1.737.557 3.578 2.001 5.09 1.8b9cbe 1.513 4.046 2.437 6.258 2.036.087-.02.172-.034.258-.054 0 0 3.264-.782 6.82-2.997 3.767-2.347 7.972-7.223 8.458-14.03.176-2.806.176-4.627.176-7.014C62 18.389 48.487 5 32.036 5z"/><path style="opacity:.2" d="M32 12C18.745 12 8 22.655 8 35.8v5.6h.008c-.001.086-.008.17-.008.26.02 5.123 3.003 8.334 5.813 10.081 2.81 1.748 4.989 2.243 4.989 2.243.683.123 1.199-.455 1.198-1.215V31.232c0-.694-.415-1.25-1.046-1.23-.022-.002-.043-.002-.064 0 0 0-2.203.252-5.042 1.77-.454.244-1.11.741-1.562 1.065C13.761 23.276 22.247 16.01 32 16c9.76 0 18.253 7.278 19.724 16.847-.455-.327-1.114-.828-1.572-1.073-2.84-1.52-5.042-1.772-5.042-1.772h-.064c-.63-.02-1.045.536-1.046 1.228v21.54c0 .759.515 1.337 1.198 1.213 0 0 2.18-.494 4.99-2.242S55.98 46.783 56 41.66c0-.088-.007-.172-.008-.26H56v-5.6C56 22.656 45.255 12 32 12z"/><path style="fill:#f4f4f7" d="M32 11C18.745 11 8 21.655 8 34.8v5.6h.008c-.001.086-.008.17-.008.26.02 5.123 3.003 8.334 5.813 10.081 2.81 1.748 4.989 2.243 4.989 2.243.683.123 1.199-.455 1.198-1.215V30.232c0-.694-.415-1.25-1.046-1.23-.022-.002-.043-.002-.064 0 0 0-2.203.252-5.042 1.77-.454.244-1.11.741-1.562 1.065C13.761 22.276 22.247 15.01 32 15c9.76 0 18.253 7.278 19.724 16.847-.455-.327-1.114-.828-1.572-1.073-2.84-1.52-5.042-1.772-5.042-1.772h-.064c-.63-.02-1.045.536-1.046 1.228v21.54c0 .759.515 1.337 1.198 1.213 0 0 2.18-.494 4.99-2.242 2.81-1.747 5.793-4.958 5.812-10.081 0-.088-.007-.172-.008-.26H56v-5.6C56 21.656 45.255 11 32 11z"/><path style="opacity:.2;fill:#f4f4f7" d="M32.035 5v.006c-16.45 0-29.963 13.39-29.963 29.806-.062.877-.07 1.667-.058 2.452.009-.468.022-.94.058-1.452 0-16.417 13.512-29.806 29.963-29.806V6c16.383 0 29.849 13.28 29.96 29.605 0-.27.005-.514.005-.798C62 18.389 48.486 5 32.035 5zm8.395 19.916c-.288.193-.558.394-.758.639-1.213 1.482-1.641 3.137-1.643 4.681v1c.002-1.544.43-3.199 1.643-4.681.358-.438.938-.74 1.447-1.094-.222-.191-.456-.367-.69-.545zm-16.785.004c-.233.177-.467.354-.688.545.508.354 1.09.656 1.447 1.094 1.214 1.485 1.64 3.142 1.639 4.689v-1c.001-1.547-.425-3.204-1.639-4.69-.2-.244-.472-.445-.76-.638z"/><circle style="opacity:.2" cx="48.5" cy="48.5" r="14.5"/><circle style="fill:#b7b7b7" cx="48.5" cy="47.5" r="14.5"/><circle style="fill:#17191e" cx="48.5" cy="40.5" r="3.5"/><circle style="fill:#17191e" cx="48.5" cy="54.5" r="3.5"/><circle style="fill:#17191e" cx="47.5" cy="-55.5" r="3.5" transform="rotate(90)"/><circle style="fill:#17191e" cx="47.5" cy="-41.5" r="3.5" transform="rotate(90)"/></svg>