<svg height="64" width="64" xmlns="http://www.w3.org/2000/svg"><path d="m32 4a24 17 0 0 0 -24 17 24 17 0 0 0 .383 3h47.219a24 17 0 0 0 .398-3 24 17 0 0 0 -24-17z" fill="#c77100"/><path d="m32 4a24 17 0 0 0 -24 17 24 17 0 0 0 .03.41 24 17 0 0 1 23.97-16.41 24 17 0 0 1 23.967 16.53 24 17 0 0 0 .033-.53 24 17 0 0 0 -24-17z" fill="#f4f4f7" opacity=".1"/><path d="m12 27v18c0 8 8 16 8 16h24s6-8.4 6-14h8l-8-18-18-4z" opacity=".2"/><path d="m12 26v18c0 8 8 16 8 16h24s6-8.4 6-14h8l-8-18-18-4z" fill="#e7c3b9"/><path d="m32 25-20 2v18c0 4.334 2.34 8.622 4.492 11.684 1.768-1.134 7.781-4.366 11.508-13.684 4-4 6-4 10-8v-8z" opacity=".1"/><path d="m32 24-20 2v18c0 4.334 2.34 8.622 4.492 11.684 1.768-1.134 7.781-4.366 11.508-13.684 4-4 6-4 10-8v-8z" fill="#a32501"/><path d="m8 21a4 4 0 1 0 0 8h48a4 4 0 1 0 0-8z" opacity=".2"/><path d="m8 24h48" fill="none" stroke="#fb8e00" stroke-linecap="round" stroke-linejoin="round" stroke-width="8"/><circle cx="44" cy="37" opacity=".1" r="4"/><circle cx="44" cy="36" fill="#4f4f4f" r="4"/><path d="m26.223 32.932a6 6 0 0 0 -5.368 9.156l3.735 6.223c1.218-1.713 2.398-3.782 3.41-6.311 1.81-1.81 3.208-2.798 4.57-3.71l-1.425-2.378a6 6 0 0 0 -4.922-2.98z" opacity=".2"/><path d="m32 48-6-10" fill="none" stroke="#e7c3b9" stroke-linecap="round" stroke-linejoin="round" stroke-width="12"/><path d="m8 20a4 4 0 0 0 -4.021 4.512 4 4 0 0 1 4.021-3.512h48a4 4 0 0 1 4.021 3.488 4 4 0 0 0 -4.021-4.488z" fill="#f4f4f7" opacity=".2"/></svg>