<svg height="64" width="64" xmlns="http://www.w3.org/2000/svg">
    <path d="M4.2 56.2v2C4.2 59.75 5.448 61 7 61h50.4c1.55 0 2.8-1.25 2.8-2.8v-2c0 1.55-1.25 2.8-2.8 2.8H7c-1.55 0-2.8-1.25-2.8-2.8z" opacity=".2"/>
    <rect fill="#417983" height="56" rx="2.8" width="56" x="4.199" y="4"/>
    <path d="M7 4C5.449 4 4.2 5.25 4.2 6.8v1.003A2.795 2.795 0 0 1 7 5.002h50.398c1.55 0 2.801 1.25 2.801 2.8v-1A2.794 2.794 0 0 0 57.4 4z" fill="#f4f4f7" opacity=".1"/>
    <path d="M14.2 39v4s2 4 8 4c8 0 10-4 10-8 0-6-12-6-12-10 0-2.828 2-6 6-6 2 0 6 4 6 4v-6s-4-2-6-2c-8 0-12 2.114-12 10 0 8 12 6 12 10 0 1.886-2 4-4 4-4 0-8-4-8-4z" opacity=".2"/>
    <path d="M14.2 38v4s2 4 8 4c8 0 10-4 10-8 0-6-12-6-12-10 0-2.828 2-6 6-6 2 0 6 4 6 4v-6s-4-2-6-2c-8 0-12 2.114-12 10 0 8 12 6 12 10 0 1.886-2 4-4 4-4 0-8-4-8-4z" fill="#0bc3d4"/>
    <path d="M43.199 25c-3.866 0-7 4.03-7 9s3.134 9 7 9c1.038-.003 2.063-.303 3-.878V47s-1.057 2-2 2c-6 0-8-2-8-2v4s2 2 8 2S50 47 50 47V25h-3.801v.88c-.937-.576-1.962-.876-3-.88zm0 4c1.657 0 3 2.24 3 5s-1.343 5-3 5-3-2.238-3-5 1.343-5 3-5z" opacity=".2"/>
    <path d="M43.199 24c-3.866 0-7 4.03-7 9s3.134 9 7 9c1.038-.003 2.063-.303 3-.878V46s-1.057 2-2 2c-6 0-8-2-8-2v4s2 2 8 2S50 46 50 46V24h-3.801v.88c-.937-.576-1.962-.876-3-.88zm0 4c1.657 0 3 2.24 3 5s-1.343 5-3 5-3-2.238-3-5 1.343-5 3-5z" fill="#0bc3d4"/>
</svg>
