<svg xmlns="http://www.w3.org/2000/svg" width="64" height="64" version="1"><path style="opacity:.2" d="M4 56.2v2C4 59.75 5.25 61 6.8 61h50.4c1.55 0 2.8-1.25 2.8-2.8v-2c0 1.55-1.25 2.8-2.8 2.8H6.8C5.25 59 4 57.75 4 56.2z"/><rect style="fill:#3b478c" width="56" height="56" x="4" y="4" rx="2.8" ry="2.8"/><path style="opacity:.2" d="M14 19.114s4.202-.115 7.661-.115c4.8 0 10.338 1.6 10.338 10s-5.538 10-10.338 9.972c-1.063.046-1.662.057-1.662.057V47h-6zm6 15.874c.61.062.608.032 1.512.02C24.524 34.974 26 31.684 26 28.802c0-2.588-1.148-5.69-4.04-5.8-1.154-.044-1.96 0-1.96 0z"/><path style="fill:#219fd1" d="M14 18.116S18.202 18 21.661 18C26.461 18 32 19.6 32 28s-5.538 10-10.338 9.97c-1.063.047-1.662.058-1.662.058v7.972h-6zm6 15.874c.61.062.608.032 1.512.02C24.524 33.974 26 30.684 26 27.8c0-2.587-1.148-5.69-4.04-5.8-1.154-.043-1.96 0-1.96 0z"/><path d="M162.15 178.93c5.109 3.135 14.876 8.58 23.094 8.58 8.396 0 14.252-4.771 14.252-9.384 0-4.62-1.56-10.288-11.968-13.796-18.439-6.28-25.559-13.795-25.375-24.315 0-16.991 14.238-29.731 36.328-29.731 10.352 0 24.357 8.58 24.357 8.58v17.162c-4.019-2.218-15.777-8.58-23.443-8.58-6.758 0-13.479 4.999-13.479 9.612 0 5.935 6.36 6.464 17.313 10.344 16.976 5.908 24.096 14.584 24.277 27.879 0 16.805-12.954 30.168-38.701 29.357-8.835-.278-19.901-4.857-26.656-8.546l.001-17.162z" transform="matrix(.2142 0 0 .23308 1.268 -.706)" style="opacity:.2"/><path d="M162.15 178.93c5.109 3.135 14.876 8.58 23.094 8.58 8.396 0 14.252-4.771 14.252-9.384 0-4.62-1.56-10.288-11.968-13.796-18.439-6.28-25.559-13.795-25.375-24.315 0-16.991 14.238-29.731 36.328-29.731 10.352 0 24.357 8.58 24.357 8.58v17.162c-4.019-2.218-15.777-8.58-23.443-8.58-6.758 0-13.479 4.999-13.479 9.612 0 5.935 6.36 6.464 17.313 10.344 16.976 5.908 24.096 14.584 24.277 27.879 0 16.805-12.954 30.168-38.701 29.357-8.835-.278-19.901-4.857-26.656-8.546l.001-17.162z" transform="matrix(.2142 0 0 .23308 1.268 -1.705)" style="fill:#219fd1"/><path style="opacity:.1;fill:#f4f4f7" d="M6.8 4C5.25 4 4 5.25 4 6.8v1.003c0-1.551 1.25-2.801 2.8-2.801h50.4c1.55 0 2.8 1.25 2.8 2.8V6.802C60 5.25 58.75 4 57.2 4H6.8z"/></svg>