<svg xmlns="http://www.w3.org/2000/svg" height="64" width="64"><path style="opacity:.2" d="M4 56.2v2C4 59.75 5.25 61 6.8 61h50.4c1.55 0 2.8-1.25 2.8-2.8v-2c0 1.55-1.25 2.8-2.8 2.8H6.8C5.25 59 4 57.75 4 56.2z"/><rect style="fill:#661708" rx="2.8" ry="2.8" height="56" width="56" y="4" x="4"/><path style="opacity:.2" d="m20 19-6 28h6l1.053-8h3.472L26 47h6l-7-28zm23 6c-5 0-7 2-7 2v20h4V29h4c2 0 2 2 2 2v16h4V30c0-2-2-5-7-5zm-20.5 3 1.29 7h-2.212z"/><path style="opacity:.1;fill:#f4f4f7" d="M6.8 4C5.25 4 4 5.25 4 6.8v1.003c0-1.551 1.25-2.801 2.8-2.801h50.4c1.55 0 2.8 1.25 2.8 2.8V6.802C60 5.25 58.75 4 57.2 4z"/><path style="fill:#db5b46" d="m20 18-6 28h6l1.053-8h3.472L26 46h6l-7-28h-5zm23 6c-5 0-7 2-7 2v20h4V28h4c2 0 2 2 2 2v16h4V29c0-2-2-5-7-5zm-20.5 3 1.29 7h-2.212l.922-7z"/></svg>