<svg height="64" width="64" xmlns="http://www.w3.org/2000/svg"><path d="m4 56.2v2c0 1.55 1.25 2.8 2.8 2.8h50.4c1.55 0 2.8-1.25 2.8-2.8v-2c0 1.55-1.25 2.8-2.8 2.8h-50.4c-1.55 0-2.8-1.25-2.8-2.8z" opacity=".2"/><rect fill="#5052c1" height="56" rx="2.8" width="56" x="4" y="4"/><path d="m6.8 4c-1.55 0-2.8 1.25-2.8 2.8v1.003c0-1.551 1.25-2.801 2.8-2.801h50.4c1.55 0 2.8 1.25 2.8 2.8v-1c0-1.552-1.25-2.802-2.8-2.802z" fill="#f4f4f7" opacity=".1"/><path d="m43 25c-5 0-7 2-7 2v20h4v-18h4c2 0 2 2 2 2v16h4v-17c0-2-2-5-7-5z" opacity=".2"/><path d="m43 24c-5 0-7 2-7 2v20h4v-18h4c2 0 2 2 2 2v16h4v-17c0-2-2-5-7-5z" fill="#aabbfd"/><path d="m14 19v28h17l1-4h-12v-8h10v-4h-10v-8h12l-1-4z" opacity=".2"/><path d="m14 18v28h17l1-4h-12v-8h10v-4h-10v-8h12l-1-4z" fill="#aabbfd"/></svg>