<svg height="64" width="64" xmlns="http://www.w3.org/2000/svg">
    <path d="M4 56.2v2C4 59.75 5.25 61 6.8 61h50.4c1.55 0 2.8-1.25 2.8-2.8v-2c0 1.55-1.25 2.8-2.8 2.8H6.8C5.25 59 4 57.75 4 56.2z" opacity=".2"/>
    <rect fill="#3b478c" height="56" rx="2.8" width="56" x="4" y="4"/>
    <path d="M14 19.114s4.202-.115 7.661-.115c4.8 0 10.338 1.6 10.338 10s-5.538 10-10.338 9.972a74.4 74.4 0 0 1-1.662.057V47h-6zm6 15.874c.61.062.608.032 1.512.02C24.524 34.974 26 31.684 26 28.802c0-2.588-1.148-5.69-4.04-5.8-1.154-.044-1.96 0-1.96 0z" opacity=".2"/>
    <path d="M14 18.116S18.202 18 21.661 18C26.461 18 32 19.6 32 28s-5.538 10-10.338 9.97c-1.063.047-1.662.058-1.662.058V46h-6zm6 15.874c.61.062.608.032 1.512.02C24.524 33.974 26 30.684 26 27.8c0-2.587-1.148-5.69-4.04-5.8-1.154-.043-1.96 0-1.96 0z" fill="#219fd1"/>
    <path d="M36 40.999c1.095.73 3.187 2 4.947 2 1.799 0 3.053-1.112 3.053-2.187 0-1.077-.334-2.398-2.564-3.216-3.95-1.464-5.474-3.215-5.435-5.667 0-3.96 3.05-6.93 7.782-6.93 2.217 0 5.217 2 5.217 2v4c-.861-.517-3.38-2-5.022-2-1.447 0-2.887 1.165-2.887 2.24 0 1.384 1.363 1.507 3.709 2.411 3.636 1.377 5.161 3.4 5.2 6.498 0 3.917-2.775 7.032-8.29 6.843-1.892-.065-4.263-1.132-5.71-1.992z" opacity=".2"/>
    <path d="M36 40c1.095.73 3.187 2 4.947 2C42.746 42 44 40.888 44 39.813c0-1.077-.334-2.398-2.564-3.216-3.95-1.464-5.474-3.215-5.435-5.667 0-3.96 3.05-6.93 7.782-6.93C46 24 49 26 49 26v4c-.861-.517-3.38-2-5.022-2-1.447 0-2.887 1.165-2.887 2.24 0 1.384 1.363 1.507 3.709 2.411 3.636 1.377 5.161 3.4 5.2 6.498 0 3.917-2.775 7.032-8.29 6.843C39.818 45.927 37.447 44.86 36 44z" fill="#219fd1"/>
    <path d="M6.8 4C5.25 4 4 5.25 4 6.8v1.003a2.796 2.796 0 0 1 2.8-2.801h50.4c1.55 0 2.8 1.25 2.8 2.8v-1A2.796 2.796 0 0 0 57.2 4z" fill="#f4f4f7" opacity=".1"/>
</svg>
