<svg height="64" width="64" xmlns="http://www.w3.org/2000/svg"><path d="m32.216 61 .002-.006c15.41-.117 27.782-12.554 27.782-27.994 0-15.512-12.488-28-28-28-14.952 0-27.091 11.605-27.948 26.335l-.052.05v24.015c0 3.102 2.498 5.6 5.6 5.6z" opacity=".2"/><path d="m32.216 60 .002-.006c15.41-.117 27.782-12.554 27.782-27.994 0-15.512-12.488-28-28-28-14.952 0-27.091 11.605-27.948 26.335l-.052.05v24.015c0 3.102 2.498 5.6 5.6 5.6z" fill="#3d3b67"/><path d="m17.3 17.101 11.2 18.2-4.898 19.597 7.698-5.598-.7-3.5 11.2-7.699 1.355-4.164 4.242.664-2.635-5.601h-8.212l-5.25-9.102z" opacity=".2"/><path d="m36.488 28h8.274l-2.962 9.1z" fill="#f4f4f7"/><path d="m44.762 28 2.638 5.6-4.325-.675z" fill="#3a88d6"/><path d="m28.5 34.3 13.3 2.8-11.198 7.7z" fill="#f4f4f7"/><path d="m28.5 34.3 2.8 14-7.7 5.6z" fill="#3a88d6"/><path d="m17.3 16.1 14 2.8 10.5 18.2-13.3-2.8z" fill="#0365db"/><path d="m32 4c-14.952 0-27.092 11.605-27.95 26.336l-.05.047v1l.05-.047c.859-14.73 12.999-26.336 27.95-26.336 15.289 0 27.63 12.133 27.982 27.334.007-.111.018-.221.018-.334 0-15.512-12.488-28-28-28z" fill="#f4f4f7" opacity=".1"/></svg>