<svg height="64" width="64" xmlns="http://www.w3.org/2000/svg"><rect height="55.999" opacity=".2" rx="2.8" transform="matrix(0 -1 -1 0 0 0)" width="55.999" x="-61" y="-60"/><rect fill="#454f6c" height="55.999" rx="2.8" transform="matrix(0 -1 -1 0 0 0)" width="55.999" x="-60" y="-60"/><path d="m6.8 4c-1.55 0-2.8 1.25-2.8 2.8v1c0-1.55 1.25-2.8 2.8-2.8h50.4c1.55 0 2.8 1.25 2.8 2.8v-1c0-1.55-1.25-2.8-2.8-2.8z" fill="#f4f4f7" opacity=".1"/><path d="m60 23.02c-9.24 12.024-19.467 24.943-24.165 31.98-4.428-3.673-3.982-8.39-5.006-12.794l21.69-28.211c3.203 1.236 5.297 5.243 7.481 9.026z" opacity=".2"/><path d="m60 22.02c-9.24 12.024-19.467 24.943-24.165 31.98-4.428-3.673-3.982-8.39-5.006-12.794l21.69-28.211c3.203 1.236 5.297 5.243 7.481 9.026z" fill="#008679"/><path d="m17.497 11h-12.111l15.13 41.228c.268.77 1.233 2.72 2.445 2.756l12.874.016-15.413-42.019c-.373-.803-1.556-1.98-2.925-1.98z" opacity=".2"/><path d="m17.497 10h-12.111l15.13 41.228c.268.77 1.233 2.72 2.445 2.756l12.874.016-15.413-42.019c-.373-.803-1.556-1.98-2.925-1.98z" fill="#009e8d"/><path d="m59.994 7.473c.03-1.16-.804-2.463-2.33-2.471l-13.697-.001c3.19 4.234 9.354 10.936 16.033 18.019z" opacity=".2"/><path d="m59.994 6.473c.03-1.16-.804-2.463-2.33-2.471l-13.697-.001c3.19 4.234 9.354 10.936 16.033 18.019z" fill="#009e8d"/><path d="m5.387 10 .367 1h11.742c1.369 0 2.553 1.177 2.926 1.98l15.047 41.02h.367l-15.414-42.02c-.373-.803-1.557-1.98-2.926-1.98h-12.11zm38.582-6c.22.294.527.658.806 1h12.89c1.526.008 2.361 1.311 2.331 2.473v-1c.03-1.162-.805-2.465-2.332-2.473h-13.694z" fill="#f4f4f7" opacity=".2"/></svg>