<svg height="64" width="64" xmlns="http://www.w3.org/2000/svg">
    <rect height="56" opacity=".2" rx="3" width="56" x="4" y="5"/>
    <rect fill="#e65100" height="56" rx="3" width="56" x="4" y="4"/>
    <rect height="44" opacity=".2" rx="3" width="44" x="10" y="11"/>
    <rect fill="#f4f4f7" height="44" rx="3" width="44" x="10" y="10"/>
    <path d="M14 14v36h16v-8h-8V22h8v-8zm20 0v8h8v20h-8v8h16V14z" fill="#424242"/>
    <path d="M7 4C5.338 4 4 5.338 4 7v1c0-1.662 1.338-3 3-3h50c1.662 0 3 1.338 3 3V7c0-1.662-1.338-3-3-3z" fill="#f4f4f7" opacity=".2"/>
</svg>
