<svg height="64" width="64" xmlns="http://www.w3.org/2000/svg"><rect height="58" opacity=".2" rx="2.9" transform="matrix(0 -1 -1 0 0 0)" width="58" x="-62" y="-61"/><rect fill="#175ddc" height="58" rx="2.9" transform="matrix(0 -1 -1 0 0 0)" width="58" x="-61" y="-61"/><path d="m5.898 3a2.891 2.891 0 0 0 -2.898 2.898v1a2.891 2.891 0 0 1 2.898-2.898h52.204a2.891 2.891 0 0 1 2.898 2.898v-1a2.891 2.891 0 0 0 -2.898-2.898z" fill="#f4f4f7" opacity=".1"/><path d="m32 14s-15.79.009-16.191.25c-.852.511-.809-.122-.809 11.785 0 12.083-.015 11.841.914 14.184 1.069 2.695 2.791 4.973 5.617 7.449 2.372 2.077 5.184 3.958 8.321 5.555 1.061.54 1.609.786 2.148.777.539.009 1.087-.237 2.148-.777 3.137-1.597 5.949-3.478 8.321-5.555 2.826-2.476 4.548-4.754 5.617-7.449.929-2.343.914-2.101.914-14.184 0-11.907.043-11.274-.809-11.785-.401-.241-16.191-.25-16.191-.25zm0 6h11v16s-.006.781-.492 2.008c-.683 1.721-1.63 3.08-3.992 5.148-1.793 1.57-4.053 3.024-6.516 4.336z" opacity=".2"/><path d="m32 13s-15.79.009-16.191.25c-.852.511-.809-.122-.809 11.785 0 12.083-.015 11.841.914 14.184 1.069 2.695 2.791 4.973 5.617 7.449 2.372 2.077 5.184 3.958 8.321 5.555 1.061.54 1.609.786 2.148.777.539.009 1.087-.237 2.148-.777 3.137-1.597 5.949-3.478 8.321-5.555 2.826-2.476 4.548-4.754 5.617-7.449.929-2.343.914-2.101.914-14.184 0-11.907.043-11.274-.809-11.785-.401-.241-16.191-.25-16.191-.25zm0 6h11v16s-.006.781-.492 2.008c-.683 1.721-1.63 3.08-3.992 5.148-1.793 1.57-4.053 3.024-6.516 4.336z" fill="#efefef"/></svg>