<svg height="64" width="64" xmlns="http://www.w3.org/2000/svg">
    <rect height="56" opacity=".2" rx="14" width="56" x="4" y="5"/>
    <rect fill="#ea8ab2" height="56" rx="14" width="56" x="4" y="4"/>
    <path d="M18 4C10.244 4 4 10.244 4 18v1c0-7.756 6.244-14 14-14h28c7.756 0 14 6.244 14 14v-1c0-7.756-6.244-14-14-14z" fill="#f4f4f7" opacity=".2"/>
    <path d="M37.6 11C25 11 8 19 8 33c0 7 9 11 9 11s-6-5.4-6-11c0-8.4 14-15 22.4-15 4.2 0 12.6 1.103 12.6-3.2 0-2.8-5.27-3.8-8.4-3.8zM51 23s2 3 2 11.4-15.429 16.022-23.8 13.14c-5.807-2-12.2-2.342-12.2 1.96 0 2.8 4.963 3.862 8 4.621 16.8 4.2 31-5.72 31-19.72C56 27.4 51 23 51 23zm-19 6a6 4 0 0 0-6 4 6 4 0 0 0 6 4 6 4 0 0 0 6-4 6 4 0 0 0-6-4z" opacity=".2"/>
    <path d="M37.6 10C25 10 8 18 8 32c0 7 9 11 9 11s-6-5.4-6-11c0-8.4 14-15 22.4-15 4.2 0 12.6 1.103 12.6-3.2 0-2.8-5.27-3.8-8.4-3.8zM51 22s2 3 2 11.4-15.429 16.022-23.8 13.14c-5.807-2-12.2-2.342-12.2 1.96 0 2.8 4.963 3.862 8 4.621 16.8 4.2 31-5.72 31-19.72C56 26.4 51 22 51 22zm-19 6a6 4 0 0 0-6 4 6 4 0 0 0 6 4 6 4 0 0 0 6-4 6 4 0 0 0-6-4z" fill="#f4f4f7"/>
</svg>
