<svg width="64" height="64" xmlns="http://www.w3.org/2000/svg"><path d="M32 41c16.8 0 28 20 28 20s-14-6-28-6-28 6-28 6 11.2-20 28-20z" style="opacity:.2"/><path d="M32 40c16.8 0 28 20 28 20s-14-6-28-6-28 6-28 6 11.2-20 28-20z" style="fill:#8c8c8c"/><path d="M32 40C15.2 40 4 60 4 60s.623-.24.816-.318C7.57 55.34 17.726 41 32 41s24.43 14.34 27.184 18.682c.193.079.817.318.817.318S48.8 40 32 40z" style="fill:#fff;opacity:.1"/><circle cx="32" cy="27" style="opacity:.2" r="22"/><circle cx="32" cy="26" style="fill:#f4f4f7" r="22"/><circle cx="32" cy="27" style="opacity:.1" r="14"/><circle cx="32" cy="26" style="fill:#a6a6a6" r="14"/><circle cx="32" cy="26" style="fill:#0086cc" r="8"/><path d="M32 4a22 22 0 0 0-22 22 22 22 0 0 0 .021.586A22 22 0 0 1 32.001 5a22 22 0 0 1 21.978 21.414 22 22 0 0 0 .022-.414 22 22 0 0 0-22-22z" style="fill:#fff;opacity:.2"/><path d="M32 12a14 14 0 0 0-14 14 14 14 0 0 0 .021.586A14 14 0 0 1 32.001 13a14 14 0 0 1 13.978 13.414 14 14 0 0 0 .022-.414 14 14 0 0 0-14-14z" style="fill:#fff;opacity:.1"/><path d="M32 18a8 8 0 0 0-8 8 8 8 0 0 0 .021.576A8 8 0 0 1 32 19a8 8 0 0 1 7.978 7.424A8 8 0 0 0 40 26a8 8 0 0 0-8-8z" style="opacity:.1"/></svg>