<svg xmlns="http://www.w3.org/2000/svg" width="64" height="64" version="1"><path style="opacity:.2" d="M32.099 5.943a2.527 2.561 0 0 0-.94.143L9.684 13.769a2.527 2.561 0 0 0-1.675 2.628l2.526 30.73a2.527 2.561 0 0 0 1.217 1.984L30.7 60.635a2.527 2.561 0 0 0 2.6 0L52.248 49.11a2.527 2.561 0 0 0 1.217-1.983l2.526-30.731a2.527 2.561 0 0 0-1.675-2.628L32.84 6.086a2.527 2.561 0 0 0-.742-.143z"/><path style="fill:#f44336" d="M32.099 4.943a2.527 2.561 0 0 0-.94.143L9.684 12.769a2.527 2.561 0 0 0-1.675 2.628l2.526 30.73a2.527 2.561 0 0 0 1.217 1.984L30.7 59.635a2.527 2.561 0 0 0 2.6 0L52.248 48.11a2.527 2.561 0 0 0 1.217-1.983l2.526-30.731a2.527 2.561 0 0 0-1.675-2.628L32.84 5.086a2.527 2.561 0 0 0-.742-.143z"/><path style="fill:#d32f2f" d="M54.525 12.858a2.527 2.561 0 0 1 .16.082 2.527 2.561 0 0 0-.16-.082zm.229.12a2.527 2.561 0 0 1 .124.08 2.527 2.561 0 0 0-.124-.08zm.223.153a2.527 2.561 0 0 1 .094.074 2.527 2.561 0 0 0-.094-.074zm.19.157a2.527 2.561 0 0 1 .108.107 2.527 2.561 0 0 0-.108-.107zm.168.168a2.527 2.561 0 0 1 .114.135 2.527 2.561 0 0 0-.114-.135zm.166.204a2.527 2.561 0 0 1 .085.13 2.527 2.561 0 0 0-.085-.13zm.121.185L32 23.295v36.702a2.527 2.561 0 0 0 1.301-.361L52.247 48.11a2.527 2.561 0 0 0 1.219-1.982l2.526-30.73a2.527 2.561 0 0 0-.37-1.553z"/><path style="fill:#f66156" d="M32.1 4.944a2.527 2.561 0 0 0-.941.14L9.685 12.77a2.527 2.561 0 0 0-1.31 1.076L32 23.295l23.625-9.45a2.527 2.561 0 0 0-1.31-1.076L32.841 5.085a2.527 2.561 0 0 0-.742-.141z"/><path style="opacity:.2;fill:#f4f4f7" d="M32.1 4.943a2.527 2.561 0 0 0-.942.141L9.686 12.77a2.527 2.561 0 0 0-1.311 1.074l.672.27a2.527 2.561 0 0 1 .639-.344l21.472-7.686a2.527 2.561 0 0 1 .942-.14 2.527 2.561 0 0 1 .742.14l21.472 7.686a2.527 2.561 0 0 1 .641.341l.67-.267a2.527 2.561 0 0 0-1.31-1.074L32.841 5.084a2.527 2.561 0 0 0-.742-.14z"/><ellipse style="fill:#d32f2f" cx="32" cy="13.143" rx="10" ry="2.857"/><path style="fill:#d32f2f" d="M22 7h20v6H22z"/><ellipse style="fill:#f66156" cx="32" cy="7" rx="10" ry="3"/><path style="opacity:.1" d="M54.955 14.111 32 23.295 9.047 14.113a2.527 2.561 0 0 0-.672.73L32 24.296l23.625-9.451a2.527 2.561 0 0 0-.67-.733zM41.854 7.488A10 3 0 0 1 32 10a10 3 0 0 1-9.854-2.488A10 3 0 0 0 22 8a10 3 0 0 0 10 3 10 3 0 0 0 10-3 10 3 0 0 0-.146-.512z"/><path style="opacity:.2;fill:#f4f4f7" d="M32 4a10 3 0 0 0-10 3 10 3 0 0 0 .146.512A10 3 0 0 1 32 5a10 3 0 0 1 9.854 2.488A10 3 0 0 0 42 7a10 3 0 0 0-10-3z"/></svg>