<svg height="64" width="64" xmlns="http://www.w3.org/2000/svg"><circle cx="32" cy="33" opacity=".2" r="28"/><circle cx="32" cy="32" fill="#f4f4f7" r="28"/><g fill-rule="evenodd"><path d="m44.29 30c.572 0 .912.672.579 1.152l-15.584 22.541c-.408.576-1.285.288-1.285-.425v-22.541c0-.398.32-.727.707-.727z" opacity=".1"/><path d="m44.29 29c.572 0 .912.672.579 1.152l-15.584 22.541c-.408.576-1.285.288-1.285-.425v-22.541c0-.398.32-.727.707-.727z" fill="#ec0361"/><path d="m34.285 13a.68.686 0 0 0 -.564.309l-15.586 22.539c-.34.48-.001 1.152.57 1.152h15.586c.388 0 .709-.33.709-.729v-22.537a.716.716 0 0 0 -.715-.734zm-2.285 8.074v12.926h-8.94z" opacity=".1"/><path d="m34.285 12a.68.686 0 0 0 -.564.309l-15.586 22.539c-.34.48-.001 1.152.57 1.152h15.586c.388 0 .709-.33.709-.729v-22.537a.716.716 0 0 0 -.715-.734zm-2.285 8.074v12.926h-8.94z" fill="#5802cd"/></g><path d="m32 4a28 28 0 0 0 -28 28 28 28 0 0 0 .021.586 28 28 0 0 1 27.979-27.586 28 28 0 0 1 27.979 27.414 28 28 0 0 0 .021-.414 28 28 0 0 0 -28-28z" fill="#f4f4f7" opacity=".2"/><path d="m32 29v4h-4v3h6.291c.388 0 .709-.33.709-.729v-6.271z" fill="#51004d" fill-rule="evenodd"/></svg>