<svg height="64" width="64" xmlns="http://www.w3.org/2000/svg">
    <path d="M32.15 5v.003a6.341 6.367 0 0 0-3.321.847L10.17 16.668A6.341 6.367 0 0 0 7 22.183v21.634a6.341 6.367 0 0 0 3.171 5.513L28.83 60.147a6.341 6.367 0 0 0 6.342 0L53.83 49.33A6.341 6.367 0 0 0 57 43.817V22.183a6.341 6.367 0 0 0-3.171-5.515L35.17 5.85A6.341 6.367 0 0 0 32.15 5z" opacity=".2"/>
    <path d="M32.15 4v.003a6.341 6.367 0 0 0-3.321.847L10.17 15.668A6.341 6.367 0 0 0 7 21.183v21.634a6.341 6.367 0 0 0 3.171 5.513L28.83 59.147a6.341 6.367 0 0 0 6.342 0L53.83 48.33A6.341 6.367 0 0 0 57 42.817V21.183a6.341 6.367 0 0 0-3.171-5.515L35.17 4.85A6.341 6.367 0 0 0 32.15 4z" fill="#4f4f4f"/>
    <path d="m41 12.805-6 3.461v9.215l-3 1.735-9 5.199v20.781l18-10.39zm-6 19.61v6.922L29 42.8v-6.925z" opacity=".2"/>
    <g fill="#32a5e8">
        <path d="m38 36.607-15 8.66v6.929l18-10.392z"/>
        <path d="m41 11.804-6 3.463v26.537h6z"/>
        <path d="M37.467 23.06 32 26.214l-9 5.198v6.928l12-6.928 4.276-2.47z"/>
        <path d="M23 32.054h6v16.65h-6z"/>
    </g>
    <g fill="#f4f4f7">
        <path d="M32.148 4v.004a6.341 6.367 0 0 0-3.32.848L10.172 15.668A6.341 6.367 0 0 0 7 21.184v1a6.341 6.367 0 0 1 3.172-5.516L28.828 5.852a6.341 6.367 0 0 1 3.32-.848V5a6.341 6.367 0 0 1 3.024.852l18.656 10.816A6.341 6.367 0 0 1 57 22.184v-1a6.341 6.367 0 0 0-3.172-5.516L35.172 4.852A6.341 6.367 0 0 0 32.148 4z" opacity=".1"/>
        <path d="m41 11.805-6 3.46v1l6-3.46zM35 24.48l-3 1.735-9 5.2v1l9-5.2 3-1.735zm0 13.856L29 41.8v1l6-3.465v-1z" opacity=".2"/>
    </g>
</svg>
