<svg height="64" width="64" xmlns="http://www.w3.org/2000/svg"><path d="m10 56v2c0 1.662 1.338 3 3 3h38c1.662 0 3-1.338 3-3v-2c0 1.662-1.338 3-3 3h-38c-1.662 0-3-1.338-3-3z" opacity=".2"/><path d="m54 57v-50c0-1.662-1.338-3-3-3h-38c-1.662 0-3 1.338-3 3v50c0 1.662 1.338 3 3 3h38c1.662 0 3-1.338 3-3z" fill="#395d6d"/><path d="m13 4c-1.662 0-3 1.338-3 3v1c0-1.662 1.338-3 3-3h38c1.662 0 3 1.338 3 3v-1c0-1.662-1.338-3-3-3z" fill="#f4f4f7" opacity=".1"/><path d="m31.885 22-4.358 15.313-3.237-8.313h-6.29v3h4.457l4.36 11h2.033l5.183-18h8.967v-3zm1.56 8 4.762 6.197-5.207 6.803h2.6l3.9-5.11 3.9 5.11h2.6l-5.102-6.676 4.85-6.324h-2.598l-3.552 4.629-3.558-4.629h-2.596z" opacity=".2"/><path d="m31.885 21-4.358 15.313-3.237-8.313h-6.29v3h4.457l4.36 11h2.033l5.183-18h8.967v-3zm1.56 8 4.762 6.197-5.207 6.803h2.6l3.9-5.11 3.9 5.11h2.6l-5.102-6.676 4.85-6.324h-2.598l-3.552 4.629-3.558-4.629h-2.596z" fill="#ff6868"/></svg>