<svg xmlns="http://www.w3.org/2000/svg" width="64" height="64" version="1"><rect style="opacity:.2" width="58" height="58" x="3" y="4" rx="2.9" ry="2.9"/><rect style="fill:#dd2525" width="58" height="58" x="3" y="3" rx="2.9" ry="2.9"/><path style="opacity:.2;fill:#f4f4f7" d="M5.898 3A2.891 2.891 0 0 0 3 5.898v1A2.891 2.891 0 0 1 5.898 4h52.204A2.891 2.891 0 0 1 61 6.898v-1A2.891 2.891 0 0 0 58.102 3H5.898z"/><path style="opacity:.2" d="M45 16v6H35v28h-6V22H19v-6z"/><path style="fill:#f4f4f7" d="M45 15v6H35v28h-6V21H19v-6z"/><path style="opacity:.5;fill:#f4f4f7" d="M6 6v42h4V10h44v44H16v4h42V6zm0 46v6h6v-6z"/></svg>