<svg height="64" width="64" xmlns="http://www.w3.org/2000/svg" xmlns:xlink="http://www.w3.org/1999/xlink"><linearGradient id="a" gradientUnits="userSpaceOnUse" x1="25.794" x2="32.426" y1="36.716" y2="39.632"><stop offset="0"/><stop offset="1" stop-opacity="0"/></linearGradient><path d="m23.386 42-1.078 2h9.692v-2zm1.614-28 7 12 7-12h-1.168l-5.832 10-5.832-10zm-19.898 36-1.102 2h14l-1.234-2zm42.132 0-1.234 2h14l-1.102-2z" opacity=".2"/><path d="m4 51h14l14-26 14 26h14l-21-38h-14z" fill="#4f4f4f"/><path d="m25 13-21 38h.553l20.447-37h14l20.447 37h.553l-21-38z" fill="#f4f4f7" opacity=".2"/><path d="m10.6 39 7.4 12h-14z" fill="#e33e31"/><path d="m53.4 39 6.6 12h-14z" fill="#e4be21"/><path d="m32 25 7-12h-14z" fill="#3c8cf8"/><path d="m28.77 31-6.462 12h9.692v-12z" fill="#4f4f4f"/><path d="m28.77 31-6.462 12h9.692v-12z" fill="url(#a)" opacity=".15"/><path d="m28.77 31-6.461 12h.539l5.922-11h3.23v-1zm-3.77-18 .584 1h12.832l.584-1zm-14.398 26-6.602 12h.55l6.052-11 .015.025.291-.527zm42.796 0-.306.498.29.527.016-.025 6.051 11h.551zm-41.906 1.443-.29.528 6.179 10.029h.619zm41.016 0-6.508 10.557h.617l6.183-10.03-.291-.527z" fill="#f4f4f7" opacity=".2"/></svg>