<svg height="64" width="64" xmlns="http://www.w3.org/2000/svg"><path d="m4 21.9v33.3c0 1.55 1.25 2.8 2.8 2.8h49.4c1.55 0 2.754-1.25 2.8-2.8v-33.3z" opacity=".2"/><path d="m4 20.9v33.3c0 1.55 1.25 2.8 2.8 2.8h49.4c1.55 0 2.8-1.25 2.8-2.8v-33.3z" fill="#f4f4f7"/><path d="m59 22v-11.2c0-1.551-1.248-2.8-2.8-2.8h-49.4a2.794 2.794 0 0 0 -2.8 2.8v11.2z" opacity=".1"/><path d="m59 21v-11.2c0-1.551-1.248-2.8-2.8-2.8h-49.4a2.794 2.794 0 0 0 -2.8 2.8v11.2z" fill="#31b7cf"/><path d="m33 24h8v8h-8zm11 0h8v8h-8zm-22 0h8v8h-8zm-11 0h8v8h-8z" opacity=".2"/><circle cx="14.5" cy="14.5" opacity=".2" r="2.5"/><circle cx="14.5" cy="13.5" fill="#f4f4f7" r="2.5"/><circle cx="48.5" cy="14.5" opacity=".2" r="2.5"/><circle cx="48.5" cy="13.5" fill="#f4f4f7" r="2.5"/><path d="m44 35h8v8h-8zm-22 0h8v8h-8zm-11 0h8v8h-8zm22 11h8v8h-8zm11 0h8v8h-8zm-22 0h8v8h-8zm-11 0h8v8h-8z" opacity=".2"/><path d="m6.8 7c-1.55 0-2.8 1.25-2.8 2.8v1c0-1.55 1.25-2.8 2.8-2.8h49.401a2.794 2.794 0 0 1 2.799 2.8v-1c0-1.55-1.248-2.8-2.799-2.8z" fill="#f4f4f7" opacity=".2"/><path d="m33 35h8v8h-8z" opacity=".2"/></svg>