<svg xmlns="http://www.w3.org/2000/svg" width="64" height="64" version="1"><rect style="opacity:.2" width="56" height="56" x="4" y="5" rx="28" ry="28"/><rect style="fill:#2a4d9b" width="56" height="56" x="4" y="4" rx="28" ry="28"/><path style="opacity:.1" d="M32.145 6.4c-2.16.153-4.272.55-6.332 1.217-.735.029-2.332.975-1.044 1.42.6.64 2.032.844 1.858 1.891.231.92-2.139.879-1.35 1.712l1.678 2.209c1.033-.332 1.374-1.39 1.947-2.204 1.595-.704 3.853-.916 4.907-2.27l.991-2.873L32.145 6.4zm-7.678.246c-.99-.107-1.622.501-2.361.9-.91.111-1.936.45-2.51 1.18 1.02.463 1.663-.03 2.543-.38.817-.418 3.597-.593 2.328-1.7zm-6.385 2.937c-.509.776.357 1.9-.806 2.307-.575.727-1.077 1.92.36 1.488.35-1.078 1.441-2.589 2.683-1.958 1.25.336 2.408 2.438 3.429.773 0-.433-1.588-.686-1.553-1.745-.706-.303-2.217.248-2.164-.854-1.02-.453-1.315 1.805-1.677.543l-.272-.554zm27.71.978c-1.208.242-2.401.518-3.355 1.349.277 1.106-1.15 1.292-1.786 1.906-.46.26.009 2.269.412 1.957.859-1.132 1.303-.156 2.1.403.719.667 1.175-1.238.793-1.775-.224-.866.865-1.506 1.257-2.215 1.198-.769.186.98.147 1.59-.604 1.805 2.682.055.516 1.403-.581.58-.794 1.44-1.687 1.869-.482.589-2.322.313-2.075-.605-.671-1.053-.506 1.267-.734 1.256-1.114-.332-1.445.911-2.143 1.506-.535.614-2.422.233-1.013 1.184 1.027 1.186-.205.967-1.055 1.282-1.2.207-1 1.253-.969 2.198.019.52 1.171 1.293 1.755.93 1.166-.125.872-1.556 1.733-1.993.716-.613 1.219-1.178 2.293-1.192.497.473 1.5 1.185 1.906 1.572-1.122 1.223.516 1.124.673.01.553-.614-1.824-2.058-.256-1.424 1.038.343.799 1.403 1.26 2.119.821 1.387.91.352.986-.721 1.363-.429 1.733 2.374 3.57 1.717 1.378.362.725 1.252-.144 1.827-.795.58-1.979.183-2.85-.132-.863-.443-1.902-.189-2.356.692-1.008-.87-1.722-2.252-3.186-2.328-1.386-.072-2.786.297-4.123.674-1.483 1.74-3.086 3.433-3.777 5.657-.717.881.819 1.409-.349 2.21-.812.76.277 1.697.445 2.547.875 1.038 2.216 4.45 3.566 3.13.76-1.201 1.264.786 2.158-.461.752-.687 1.362.69 2.417.2.938.468 1.02 1.384.524 2.261-.319.891 1.379 1.257.896 2.297-.228 1.017.218 1.88.723 2.73-1.122 1.171-.987 2.907-.707 4.375.55 2.013 1.336 4.032 1.257 6.152.984.258 1.71-.394 2.523-.736 1.552.22 2.397-1.437 3.361-2.387-.724-.974.595-1.394 1.14-2.024-.815-.705-1.356-1.39-.093-1.94.582-.592 1.674-.926 1.865-1.752-.502-1.494-.216-3.083-.29-4.628.619-1.247 1.275-2.467 2.303-3.43.41-1.35 1.394-2.59 1.298-4.04-2.394.716-1.67-.305-.344-1.275.92-.675 2.23-1.305 2.51-2.457.201-1.136-.687-2.9-1.46-1.231-.375-.532-1.697-1.026-1.679-1.86-.283-1.685.456-.673 1.112.122 1.528-1.132 3.521 3.125 2.876.087-.873-6.574-4.206-12.785-9.2-17.148-.456.486-1.218 2.299-1.771 1.253-.783-.83-1.397-1.58.197-1.272 1.563-.424.006-.67-.813-.768-.821-.096-1.583-.396-2.357-.67zm-30.584.041c-1.033.399.515 1.917-1.338 1.43-2.032.921-3.386 3.156-4.798 4.896C5.777 21.584 3.986 27.273 4 32.975c.54 1.116 1.872 1.494 2.868 2.11 1.012.346 2.287.294 2.791 1.412.563.59 1.32 1.382 2.125 1.446 1.237-.397 1.411.725.787 1.555-.068.908-1.08 1.641-.966 2.44.225.896-1.127 1.883-.216 2.702.958 1.713 1.983 3.377 3.28 4.856.805.707.71 1.679.618 2.65-.32 1.027.65 1.62 1.17 2.365-1.268 2.327 2.169 2.792 3.608 3.809.723-.661.78-1.732 1.98-1.762.728-.51.883-1.66 1.383-2.425-.016-.813-.537-1.572.308-2.457.637-.537 1.95-.18 2.187-1.3.865-.892.165-2.126.165-3.207.672-.92 1.83-1.626 1.702-2.898.146-1.896-3.268-1.81-4.471-2.96-1.479-.043-1.18-2.058-2.331-2.325-1.143.057-1.558-.838-1.963-1.747-.63-.43-1.814.443-2.473-.095-.746-.393-1.415-1.86-2.255-.943-1.105.801-2.192 1.615-3.24.274-.68-.613.174-2.352-.789-2.243-2.055.744.652-2.985-1.272-2.49-.456.714-1.33 1.816-2.18.971-.853-.402-.432-1.707-.394-2.49.037-.914 1.194-1.37 1.86-1.787 1.29.577 1.025-1.142 2.103-.568 1.046-.222 1.518 1.456 1.943 1.518.25-.827-.2-2.035.566-2.58.897-.754 2.08-1.29 2.3-2.558.02-1.354 1.662-.213 2.07-1.135.377-1.057 1.474-.99 2.4-1.19.507-.47 1.78-1.919.207-1.494-.573-.078-2.88.23-1.314-.323.772-.584 1.708-.503 2.574-.618.682-.577 1.875-.77 1.928-1.823-.567-.77-1.766-.623-1.257-1.728-.05-1.445-1.322-.517-1.74-.627.679-.945-.883-1.54-1.407-1.554-.357.891-1.359 1.66-1.005 2.684-1.044.17-1.534.926-1.848 1.867-.313.11-.211-1.846-1.41-1.666-.846-.02-1.893-1.283-1.001-1.78 1.222-.774 2.74-1.38 3.514-2.614.8b9cbe-1.106-.375-1.785-1.467-1.628l-.152-.01zm20.56 1.274c-.674.525-2.036.162-2.323.668-.121 1.02 1.463 1.005 2.096.441 1.034-.382.988-.312.227-1.109zm-14.982.523c-1.433.422-.262 1.36.674 1.348 1.116-.09.078-1.34-.674-1.348zm17.093 2.816c-.103.913.774 1.484.412 2.478-.57 1.253.238 1.63 1.213.86 1.301-.797-.976-2.542-1.28-3.338h-.345zm-.43 1.469c-1.17-.288-.8 2.16.005 1.318.865-.151.034-.818-.004-1.318zM22.52 18.89c.172.929.233 2.4.913.82 0-.308-.671-.548-.913-.82zm28.249 9.546c1.375 1.199 1.932 2.935 2.707 4.528 1.153.606.47 1.532.631 2.31 1.606 1.406-1.626.657-1.234-.877-.262-1.781-1.406-2.97-2.34-4.259-.074-.682-.805-1.46.236-1.702z"/><path style="fill:#277f8d" d="M32.145 5.4c-2.16.153-4.272.55-6.332 1.217-.735.03-2.332.976-1.044 1.42.6.64 2.032.845 1.858 1.892.231.92-2.139.878-1.35 1.712l1.678 2.208c1.033-.332 1.374-1.39 1.947-2.204 1.595-.703 3.853-.916 4.907-2.27l.991-2.873L32.145 5.4zm-7.678.246c-.99-.107-1.622.501-2.361.9-.91.111-1.936.45-2.51 1.181 1.02.463 1.663-.03 2.543-.38.817-.419 3.597-.593 2.328-1.7zm-6.385 2.937c-.509.776.357 1.9-.806 2.308-.575.727-1.077 1.92.36 1.487.35-1.077 1.441-2.589 2.683-1.958 1.25.336 2.408 2.438 3.429.773 0-.433-1.588-.686-1.553-1.745-.706-.303-2.217.248-2.164-.854-1.02-.453-1.315 1.805-1.677.543l-.272-.554zm27.71.979c-1.208.241-2.401.517-3.355 1.348.277 1.106-1.15 1.293-1.786 1.907-.46.26.009 2.268.412 1.956.859-1.132 1.303-.155 2.1.404.719.667 1.175-1.239.793-1.776-.224-.866.865-1.506 1.257-2.215 1.198-.768.186.98.147 1.59-.604 1.805 2.682.055.516 1.403-.581.58-.794 1.44-1.687 1.87-.482.588-2.322.312-2.075-.606-.671-1.053-.506 1.268-.734 1.256-1.114-.331-1.445.912-2.143 1.506-.535.614-2.422.233-1.013 1.185 1.027 1.185-.205.966-1.055 1.282-1.2.206-1 1.253-.969 2.197.019.52 1.171 1.293 1.755.93 1.166-.125.872-1.556 1.733-1.993.716-.612 1.219-1.178 2.293-1.192.497.473 1.5 1.185 1.906 1.573-1.122 1.223.516 1.123.673.009.553-.614-1.824-2.058-.256-1.423 1.038.342.799 1.402 1.26 2.118.821 1.387.91.352.986-.721 1.363-.429 1.733 2.374 3.57 1.717 1.378.362.725 1.253-.144 1.828-.795.579-1.979.182-2.85-.133-.863-.442-1.902-.188-2.356.692-1.008-.87-1.722-2.251-3.186-2.328-1.386-.072-2.786.297-4.123.674-1.483 1.74-3.086 3.434-3.777 5.657-.717.881.819 1.41-.349 2.211-.812.759.277 1.696.445 2.547.875 1.037 2.216 4.448 3.566 3.129.76-1.201 1.264.786 2.158-.46.752-.688 1.362.69 2.417.2.938.467 1.02 1.384.524 2.26-.319.891 1.379 1.257.896 2.297-.228 1.017.218 1.88.723 2.73-1.122 1.171-.987 2.907-.707 4.375.55 2.013 1.336 4.032 1.257 6.152.984.258 1.71-.394 2.523-.736 1.552.22 2.397-1.437 3.361-2.387-.724-.973.595-1.394 1.14-2.023-.815-.706-1.356-1.39-.093-1.94.582-.593 1.674-.927 1.865-1.752-.502-1.495-.216-3.083-.29-4.629.619-1.246 1.275-2.466 2.303-3.429.41-1.352 1.394-2.59 1.298-4.041-2.394.716-1.67-.305-.344-1.275.92-.675 2.23-1.305 2.51-2.457.201-1.136-.687-2.9-1.46-1.23-.375-.533-1.697-1.026-1.679-1.862-.283-1.684.456-.672 1.112.123 1.528-1.132 3.521 3.125 2.876.087-.873-6.574-4.206-12.785-9.2-17.148-.456.486-1.218 2.3-1.771 1.253-.783-.83-1.397-1.58.197-1.272 1.563-.424.006-.67-.813-.767-.821-.096-1.583-.397-2.357-.671zm-30.584.04c-1.033.399.515 1.917-1.338 1.43-2.032.922-3.386 3.156-4.798 4.896C5.777 20.584 3.986 26.273 4 31.975c.54 1.116 1.872 1.494 2.868 2.11 1.012.346 2.287.294 2.791 1.412.563.59 1.32 1.382 2.125 1.446 1.237-.397 1.411.725.787 1.555-.068.909-1.08 1.642-.966 2.44.225.896-1.127 1.883-.216 2.702.958 1.713 1.983 3.377 3.28 4.857.805.706.71 1.678.618 2.65-.32 1.026.65 1.62 1.17 2.364-1.268 2.327 2.169 2.792 3.608 3.81.723-.662.78-1.733 1.98-1.762.728-.51.883-1.66 1.383-2.426-.016-.812-.537-1.572.308-2.457.637-.537 1.95-.179 2.187-1.3.865-.891.165-2.126.165-3.206.672-.92 1.83-1.627 1.702-2.898.146-1.897-3.268-1.811-4.471-2.961-1.479-.043-1.18-2.057-2.331-2.325-1.143.057-1.558-.838-1.963-1.747-.63-.43-1.814.443-2.473-.095-.746-.393-1.415-1.859-2.255-.943-1.105.802-2.192 1.616-3.24.274-.68-.613.174-2.352-.789-2.242-2.055.743.652-2.985-1.272-2.49-.456.713-1.33 1.815-2.18.97-.853-.401-.432-1.707-.394-2.489.037-.914 1.194-1.37 1.86-1.788 1.29.577 1.025-1.142 2.103-.567 1.046-.223 1.518 1.455 1.943 1.517.25-.826-.2-2.034.566-2.579.897-.754 2.08-1.291 2.3-2.559.02-1.354 1.662-.213 2.07-1.135.377-1.056 1.474-.99 2.4-1.19.507-.47 1.78-1.918.207-1.494-.573-.077-2.88.23-1.314-.322.772-.585 1.708-.504 2.574-.618.682-.578 1.875-.772 1.928-1.823-.567-.77-1.766-.624-1.257-1.729-.05-1.445-1.322-.517-1.74-.627.679-.945-.883-1.54-1.407-1.553-.357.89-1.359 1.659-1.005 2.684-1.044.17-1.534.925-1.848 1.867-.313.109-.211-1.846-1.41-1.666-.846-.02-1.893-1.284-1.001-1.782 1.222-.773 2.74-1.378 3.514-2.613.8b9cbe-1.106-.375-1.785-1.467-1.628l-.152-.01zm20.56 1.274c-.674.525-2.036.163-2.323.669-.121 1.02 1.463 1.004 2.096.44 1.034-.382.988-.312.227-1.109zm-14.982.523c-1.433.422-.262 1.36.674 1.348 1.116-.09.078-1.34-.674-1.348zm17.093 2.817c-.103.913.774 1.483.412 2.477-.57 1.253.238 1.63 1.213.86 1.301-.797-.976-2.542-1.28-3.337h-.345zm-.43 1.468c-1.17-.288-.8 2.16.005 1.318.865-.151.034-.818-.004-1.318zM22.52 17.891c.172.928.233 2.4.913.819 0-.307-.671-.548-.913-.82zm28.249 9.545c1.375 1.2 1.932 2.935 2.707 4.528 1.153.606.47 1.532.631 2.31 1.606 1.406-1.626.657-1.234-.877-.262-1.781-1.406-2.97-2.34-4.258-.074-.682-.805-1.46.236-1.703z"/><path style="opacity:.2" d="M29 27c-1.662 0-3 1.305-3 2.924V43h-4.979a2.026 1.581 0 0 0-1.751 2.37L30.244 60.21a2.026 1.581 0 0 0 3.506 0L44.73 45.37A2.026 1.581 0 0 0 42.975 43H38V29.924C38 28.304 36.662 27 35 27z"/><rect style="fill:#e74185" width="12" height="19" x="26" y="26" rx="3" ry="2.923"/><path style="fill:#e74185" d="M21.021 42a2.026 1.581 0 0 0-1.75 2.37l10.973 14.84a2.026 1.581 0 0 0 3.507 0L44.73 44.37A2.026 1.581 0 0 0 42.974 42z"/><path style="opacity:.2;fill:#f4f4f7" d="M29 26c-1.662 0-3 1.304-3 2.924v1C26 28.304 27.338 27 29 27h6c1.662 0 3 1.304 3 2.924v-1C38 27.304 36.662 26 35 26h-6zm-7.979 16a2.026 1.581 0 0 0-1.916 2.084A2.026 1.581 0 0 1 21.021 43H26v-1h-4.979zM38 42v1h4.975a2.026 1.581 0 0 1 1.92 1.084A2.026 1.581 0 0 0 42.975 42H38z"/><path style="fill:#f4f4f7;opacity:.1" d="M32 4C16.488 4 4 16.488 4 32c0 .168.01.333.014.5C4.28 17.221 16.656 5 32 5c15.344 0 27.72 12.221 27.986 27.5.003-.167.014-.332.014-.5C60 16.488 47.512 4 32 4z"/></svg>