<svg height="64" width="64" xmlns="http://www.w3.org/2000/svg">
    <rect height="50" opacity=".2" rx="3" width="40" x="12" y="5"/>
    <rect fill="#4f4f4f" height="50" rx="3" width="40" x="12" y="4"/>
    <path d="M15.107 5A3 3 0 0 0 12 7.998v44a3 3 0 0 0 2.3 2.918l25 6a3 3 0 0 0 3.7-2.918v-44a3 3 0 0 0-2.3-2.918l-25-6a3 3 0 0 0-.593-.08z" opacity=".2"/>
    <path d="M15.107 4A3 3 0 0 0 12 6.998v44a3 3 0 0 0 2.3 2.918l25 6a3 3 0 0 0 3.7-2.918v-44a3 3 0 0 0-2.3-2.918l-25-6a3 3 0 0 0-.593-.08z" fill="#1f8ac9"/>
    <circle cx="35" cy="36" opacity=".2" r="3"/>
    <g fill="#f4f4f7">
        <circle cx="35" cy="35" r="3"/>
        <path d="M15.107 4A3 3 0 0 0 12 6.998v1a3 3 0 0 1 3.7-2.918l25 6a3 3 0 0 1 2.3 2.918v-1a3 3 0 0 0-2.3-2.918l-25-6a3 3 0 0 0-.593-.08z" opacity=".2"/>
    </g>
</svg>
