<svg height="64" width="64" xmlns="http://www.w3.org/2000/svg">
    <filter id="a" color-interpolation-filters="sRGB" height="1.096" width="1.096" x="-.048" y="-.048">
        <feGaussianBlur stdDeviation="1.1"/>
    </filter>
    <linearGradient id="b" gradientUnits="userSpaceOnUse" x1="4.5" x2="59.5" y1="59.5" y2="4.5">
        <stop offset="0" stop-color="#ffc841"/>
        <stop offset=".492" stop-color="#ffbe37"/>
        <stop offset="1" stop-color="#ffc841"/>
    </linearGradient>
    <rect filter="url(#a)" height="55" opacity=".3" rx="13.002" width="55" x="4.5" y="4.5"/>
    <rect fill="url(#b)" height="55" rx="13.002" width="55" x="4.5" y="4.5"/>
    <path d="M27.196 15.529v5.49c-.675.028-1.914 0-2.56 0h-4.303v2.746s2.36-.042 2.322 0c1.263-.02 1.665.897 1.796 1.509v13.589c-.049.386-.007 1.345-.89 1.373.04.035-3.228 0-3.228 0v2.745h4.466c.755-.028 1.667 0 2.397 0v5.49l2.745-.05v-5.44h2.703l.085 5.49h2.746l-.086-5.49c8.278 0 8.278-4.118 8.278-6.18 0-2.056-.87-4.798-4.118-4.801 1.875.002 2.746-3.097 2.746-5.49 0-3.098-2.746-5.49-6.863-5.49v-5.491h-2.746v5.49c-.82 0-1.913-.03-2.745 0v-5.49zm2.745 8.236c2.745 0 6.864 0 6.863 3.431 0 3.432-4.118 3.432-6.863 3.432zm0 9.608c5.49 0 8.236 0 8.236 3.431 0 3.432-2.745 3.432-8.236 3.432z" fill="#fff"/>
</svg>
