<svg height="64" width="64" xmlns="http://www.w3.org/2000/svg"><circle cx="32" cy="33" opacity=".2" r="28"/><circle cx="32" cy="32" fill="#17191e" r="28"/><path d="m32 4a28 28 0 0 0 -12 2.723v50.515a28 28 0 0 0 12 2.762 28 28 0 0 0 28-28 28 28 0 0 0 -28-28z" fill="#f4f4f7" opacity=".1"/><path d="m21.609 17a1.572 1.58 0 0 0 -1.609 1.58v28.843a1.572 1.58 0 0 0 2.356 1.367l12.428-7.209 12.43-7.211a1.572 1.58 0 0 0 0-2.737l-12.43-7.209-12.428-7.211a1.572 1.58 0 0 0 -.746-.213z" opacity=".2"/><path d="m21.609 16a1.572 1.58 0 0 0 -1.609 1.58v28.843a1.572 1.58 0 0 0 2.356 1.367l12.428-7.209 12.43-7.211a1.572 1.58 0 0 0 0-2.737l-12.43-7.209-12.428-7.211a1.572 1.58 0 0 0 -.746-.213z" fill="#ffa119"/><g fill="#313131"><rect height="6" rx="1.5" width="6" x="24" y="11"/><rect height="6" rx="1.5" width="6" x="24" y="29"/><rect height="6" rx="1.5" width="6" x="24" y="38"/><rect height="6" rx="1.5" width="6" x="24" y="47"/></g><path d="m21.61 16a1.572 1.58 0 0 0 -1.61 1.578v1a1.572 1.58 0 0 1 1.61-1.578 1.572 1.58 0 0 1 .745.21l12.43 7.212 12.43 7.21a1.572 1.58 0 0 1 .701.866 1.572 1.58 0 0 0 -.701-1.865l-12.43-7.211-12.43-7.211a1.572 1.58 0 0 0 -.745-.211z" fill="#f4f4f7" opacity=".2"/><rect fill="#313131" height="6" rx="1.5" width="6" x="24" y="20"/><path d="m32 4a28 28 0 0 0 -28 28 28 28 0 0 0 .018.492 28 28 0 0 1 27.982-27.492 28 28 0 0 1 27.975 27.492 28 28 0 0 0 .025-.492 28 28 0 0 0 -28-28z" fill="#f4f4f7" opacity=".1"/></svg>