<svg height="64" width="64" xmlns="http://www.w3.org/2000/svg"><circle cx="32" cy="33" opacity=".2" r="28"/><circle cx="32" cy="32" fill="#ffc129" r="28"/><path d="m32 4a28 28 0 0 0 -28 28 28 28 0 0 0 .021.586 28 28 0 0 1 27.979-27.586 28 28 0 0 1 27.979 27.414 28 28 0 0 0 .021-.414 28 28 0 0 0 -28-28z" fill="#f4f4f7" opacity=".2"/><path d="m17 24v3l12 3v-3zm30 0-12 3v3l12-3zm-24 6a6 6 0 0 0 -6 6 6 6 0 0 0 6 6 6 6 0 0 0 6-6 6 6 0 0 0 -6-6zm18 0a6 6 0 0 0 -6 6 6 6 0 0 0 6 6 6 6 0 0 0 6-6 6 6 0 0 0 -6-6z" opacity=".1"/><path d="m17 23v3l12 3v-3zm30 0-12 3v3l12-3zm-24 6a6 6 0 0 0 -6 6 6 6 0 0 0 6 6 6 6 0 0 0 6-6 6 6 0 0 0 -6-6zm18 0a6 6 0 0 0 -6 6 6 6 0 0 0 6 6 6 6 0 0 0 6-6 6 6 0 0 0 -6-6z" fill="#17191e"/><path d="m14.69 11a28 28 0 0 0 -8.432 11h2.742v34h5v-34h43.715" opacity=".2"/><path d="m14.69 10a28 28 0 0 0 -8.432 11h2.742v34h5v-34h43.715" fill="#f13c3c"/><path d="m14.69 10a28 28 0 0 0 -8.432 11h.488a28 28 0 0 1 7.943-10h34.582a28 28 0 0 1 7.956 10h.488" fill="#f4f4f7" opacity=".2"/></svg>