<svg height="64" width="64" xmlns="http://www.w3.org/2000/svg"><path d="m4 56.2v2c0 1.55 1.25 2.8 2.8 2.8h50.4c1.55 0 2.8-1.25 2.8-2.8v-2c0 1.55-1.25 2.8-2.8 2.8h-50.4c-1.55 0-2.8-1.25-2.8-2.8z" opacity=".2"/><rect fill="#1b9bc9" height="56" rx="2.8" width="56" x="4" y="4"/><path d="m32 23a10 10 0 0 0 -10 10 10 10 0 0 0 10 10 10 10 0 0 0 10-10 10 10 0 0 0 -10-10zm0 4a6 6 0 0 1 6 6 6 6 0 0 1 -6 6 6 6 0 0 1 -6-6 6 6 0 0 1 6-6zm-24 4c-1.108 0-2 .892-2 2-.142 5.274.187 10.843 0 16 0 5.523 4.477 10 10 10s10-4.477 10-10-4.477-10-10-10a10 10 0 0 0 -6 2.016v-8.016c0-1.108-.892-2-2-2zm8 12a6 6 0 1 1 0 12 6 6 0 0 1 0-12zm26-34.73c-.511 0-1.022.195-1.414.587a1.995 1.995 0 0 0 0 2.828l4.95 4.949-4.95 4.95a2 2 0 0 0 0 2.831 2 2 0 0 0 2.832 0l4.95-4.95 4.948 4.95a1.995 1.995 0 0 0 2.829 0 2 2 0 0 0 0-2.832l-4.95-4.95 4.95-4.948a1.995 1.995 0 0 0 0-2.828 1.995 1.995 0 0 0 -2.829 0l-4.948 4.949-4.95-4.95a2 2 0 0 0 -1.418-.584z" opacity=".2"/><g fill="#f4f4f7"><path d="m32 22a10 10 0 0 0 -10 10 10 10 0 0 0 10 10 10 10 0 0 0 10-10 10 10 0 0 0 -10-10zm0 4a6 6 0 0 1 6 6 6 6 0 0 1 -6 6 6 6 0 0 1 -6-6 6 6 0 0 1 6-6zm-24 4c-1.108 0-2 .892-2 2-.142 5.274.187 10.843 0 16 0 5.523 4.477 10 10 10s10-4.477 10-10-4.477-10-10-10a10 10 0 0 0 -6 2.016v-8.016c0-1.108-.892-2-2-2zm8 12a6 6 0 1 1 0 12 6 6 0 0 1 0-12zm26-34.73c-.511 0-1.022.195-1.414.587a1.995 1.995 0 0 0 0 2.828l4.95 4.949-4.95 4.95a2 2 0 0 0 0 2.831 2 2 0 0 0 2.832 0l4.95-4.95 4.948 4.95a1.995 1.995 0 0 0 2.829 0 2 2 0 0 0 0-2.832l-4.95-4.949 4.95-4.95a1.995 1.995 0 0 0 0-2.827 1.995 1.995 0 0 0 -2.829 0l-4.948 4.949-4.95-4.95a2 2 0 0 0 -1.418-.584z"/><path d="m6.8 4c-1.55 0-2.8 1.25-2.8 2.8v1.003c0-1.551 1.25-2.801 2.8-2.801h50.4c1.55 0 2.8 1.25 2.8 2.8v-1c0-1.552-1.25-2.802-2.8-2.802z" opacity=".2"/></g></svg>