<svg height="64" width="64" xmlns="http://www.w3.org/2000/svg"><g transform="translate(0 1)"><rect height="50" opacity=".2" rx="2.75" ry="2.778" width="11" x="49" y="8"/><rect height="50" opacity=".2" rx="2.75" ry="2.778" width="11" x="4" y="8"/><path d="m9.5 12c-1.385 0-2.5.991-2.5 2.222v35.556c0 1.23 1.115 2.222 2.5 2.222h41.25c1.385 0 2.5-.991 2.5-2.222v-35.556c0-1.23-1.115-2.222-2.5-2.222zm40 0c-1.385 0-2.5.991-2.5 2.222v35.556c0 1.23 1.115 2.222 2.5 2.222h5c1.385 0 2.5-.991 2.5-2.222v-35.556c0-1.23-1.115-2.222-2.5-2.222z" fill="#5ecff3"/><rect fill="#ff6801" height="50" rx="2.75" ry="2.778" width="11" x="4" y="7"/><rect fill="#ff6801" height="50" rx="2.75" ry="2.778" width="11" x="49" y="7"/><path d="m32 21v21m0-21-17 21h34z" fill="none" stroke="#17191e" stroke-linecap="round" stroke-linejoin="round" stroke-width="6"/><path d="m32 16a6 6 0 0 0 -6 6 6 6 0 0 0 6 6 6 6 0 0 0 6-6 6 6 0 0 0 -6-6zm-17 21a6 6 0 0 0 -6 6 6 6 0 0 0 6 6 6 6 0 0 0 6-6 6 6 0 0 0 -6-6zm17 0a6 6 0 0 0 -6 6 6 6 0 0 0 6 6 6 6 0 0 0 6-6 6 6 0 0 0 -6-6zm17 0a6 6 0 0 0 -6 6 6 6 0 0 0 6 6 6 6 0 0 0 6-6 6 6 0 0 0 -6-6z" opacity=".2"/><g fill="#f4f4f7"><path d="m32 15a6 6 0 0 0 -6 6 6 6 0 0 0 6 6 6 6 0 0 0 6-6 6 6 0 0 0 -6-6zm-17 21a6 6 0 0 0 -6 6 6 6 0 0 0 6 6 6 6 0 0 0 6-6 6 6 0 0 0 -6-6zm17 0a6 6 0 0 0 -6 6 6 6 0 0 0 6 6 6 6 0 0 0 6-6 6 6 0 0 0 -6-6zm17 0a6 6 0 0 0 -6 6 6 6 0 0 0 6 6 6 6 0 0 0 6-6 6 6 0 0 0 -6-6z"/><path d="m6.75 7a2.758 2.758 0 0 0 -2.75 2.777v1a2.758 2.758 0 0 1 2.75-2.777h5.5a2.758 2.758 0 0 1 2.75 2.777v-1a2.758 2.758 0 0 0 -2.75-2.777zm45 0a2.758 2.758 0 0 0 -2.75 2.777v1a2.758 2.758 0 0 1 2.75-2.777h5.5a2.758 2.758 0 0 1 2.75 2.777v-1a2.758 2.758 0 0 0 -2.75-2.777z" opacity=".1"/></g></g></svg>