<svg height="64" width="64" xmlns="http://www.w3.org/2000/svg" xmlns:xlink="http://www.w3.org/1999/xlink">
    <linearGradient id="a" gradientTransform="translate(-21 -3)" gradientUnits="userSpaceOnUse" x1="7" x2="11">
        <stop offset="0" stop-color="#1d1e1e"/>
        <stop offset="1" stop-color="#44484c"/>
    </linearGradient>
    <filter id="b" color-interpolation-filters="sRGB" height="1.054" width="1.054" x="-.027" y="-.027">
        <feGaussianBlur stdDeviation=".619"/>
    </filter>
    <linearGradient id="c" gradientUnits="userSpaceOnUse" x1="4.5" x2="59.5" y1="59.49" y2="4.49">
        <stop offset="0" stop-color="#dee0e2"/>
        <stop offset="1" stop-color="#f1f3f5" stop-opacity=".996"/>
    </linearGradient>
    <linearGradient id="f" gradientTransform="matrix(1.5 0 0 1.5 -27 -8.27)" gradientUnits="userSpaceOnUse" x1="7" x2="11" xlink:href="#a"/>
    <linearGradient id="g" gradientTransform="matrix(1.5 0 0 1.5 -73.5 -15.77)" gradientUnits="userSpaceOnUse" x1="19" x2="25" xlink:href="#a"/>
    <linearGradient id="h" gradientTransform="matrix(1.5 0 0 1.5 -63 5.23)" gradientUnits="userSpaceOnUse" x1="23" x2="28" xlink:href="#a"/>
    <linearGradient id="i" gradientTransform="matrix(1.5 0 0 1.5 -105 .73)" gradientUnits="userSpaceOnUse" x1="34" x2="42" xlink:href="#a"/>
    <linearGradient id="e" gradientTransform="matrix(1.5 0 0 1.5 -3.77 -4.5)" gradientUnits="userSpaceOnUse" x1="8.213" x2="40.551">
        <stop offset="0" stop-color="#1d1e1e"/>
        <stop offset="1" stop-color="#2c2f32"/>
    </linearGradient>
    <linearGradient id="d" gradientTransform="matrix(1.5 0 0 1.5 -3.771 -4.5)" gradientUnits="userSpaceOnUse" x2="0" y1="45" y2="13">
        <stop offset="0" stop-color="#663579"/>
        <stop offset="1" stop-color="#16a085"/>
    </linearGradient>
    <rect fill="#141414" filter="url(#b)" height="55" opacity=".3" ry="15" width="55" x="4.5" y="4.5"/>
    <rect fill="url(#c)" height="55" ry="15" width="55" x="4.5" y="4.5"/>
    <path d="m8.64 13.096-2.699.002A14.974 14.974 0 0 0 4.5 19.5v25c0 8.31 6.69 15 15 15h25c6.45 0 11.908-4.038 14.035-9.729-9.507-.879-27.61-3.414-29.826-8.958-3.068-7.669 8.122-9.313 6.588-16.981-1.92-9.6-20.428-10.661-26.654-10.736z" fill="url(#d)"/>
    <path d="M8.58 13.098c-.01.015-.02.03-.031.043 7.197.216 23.451 1.706 25.248 10.69 1.533 7.668-9.269 9.135-6.201 16.803 2.836 7.09 25.257 10.324 28.635 10.364l.826-2.665C53.681 48.293 32 47.79 29.163 40.7c-3.067-7.668 7.668-9.201 6.135-16.87-1.92-9.6-20.49-10.66-26.716-10.733" fill="url(#e)" fill-rule="evenodd"/>
    <path d="M-10.5 9.73a3 3 0 1 1-6 0 3 3 0 0 1 6 0z" fill="url(#f)" transform="rotate(-90)"/>
    <g stroke-linecap="round" stroke-linejoin="bevel" stroke-width="2">
        <circle cx="9.729" cy="13.5" fill="#fff" r="1.5"/>
        <circle cx="-40.5" cy="29.229" fill="url(#g)" r="4.5" transform="rotate(-90)"/>
        <circle cx="-24.75" cy="34.479" fill="url(#h)" r="3.75" transform="rotate(-90)"/>
        <circle cx="-48" cy="53.229" fill="url(#i)" r="6" transform="rotate(-90)"/>
        <g fill="#fff">
            <circle cx="34.479" cy="24.75" r="2.25"/>
            <circle cx="29.229" cy="40.5" r="3"/>
            <circle cx="53.229" cy="48" r="4.5"/>
        </g>
    </g>
</svg>
