<svg height="64" width="64" xmlns="http://www.w3.org/2000/svg">
    <path d="M32 7v4H20v4h-4v12h-4v16h4v4h4v4h4v4h4v4h8v-4h4v-4h4v-4h4v-4h4V27h-4V15h-4v-4h-4V7z" opacity=".2"/>
    <path d="M32.667 6.667v4h-12v4h-4v12h-4v14.666h4v4h4v4h4v4h4v4h6.666v-4h4v-4h4v-4h4v-4h4V26.667h-4v-12h-4v-4h-4v-4z" fill="#17191e"/>
    <path d="M24 26v4h-8v12h4v-8h4v8h16v4h4v-4h4V30h-4v8h-4v-8h4v-4H28zm16 20h-4v4h4zm-4 4h-8v4h8zm-8 0v-4h-4v4zm-4-4v-4h-4v4zm4-16h4v8h-4v-4z" fill="#e24242"/>
    <path d="M32 14h8v4h-8z" fill="#24a16e"/>
    <path d="M24 18v4h4v-4zm4 4v4h8v-4h-4zm8 0h4v-4h-4zm4 0v4h4v-4zm-16 0h-4v4h4z" fill="#481574"/>
    <path d="M32 6v4h8V6zm8 4v4h4v-4zm4 4v4h-4v4h4v4h4V14zm4 12v16h4V26zm0 16h-4v4h4zm-4 4h-4v4h4zm-4 4h-4v4h4zm-4 4h-8v4h8zm-8 0v-4h-4v4zm-4-4v-4h-4v4zm-4-4v-4h-4v4zm-4-4V26h-4v16zm0-16h4v-4h4v-4h-4v-4h-4zm4-12h8v4h4v-8H20z" fill="#4f4f4f"/>
    <path d="M40 38h4v4h-4z" fill="#890e35"/>
    <path d="M20 26v4h4v-4zm8 4v4h4v-4zm12 0v4h4v-4zm-20 4v4h4v-4z" fill="#fe8b55"/>
    <path d="M24 22v4h4v-4zm12 0v4h4v-4zm-20 4v4h4v-4zm28 0v4h4v-4zm-16 8v4h4v-4zm12 0v4h4v-4zm-20 4v4h4v-4zm4 4v4h4v4h8v-4h4v-4H28z" fill="#890e35"/>
    <path d="M32 10v4h8v-4h-4zm8 4v4h4v-4zm-20 0v4h8v-4h-4zm8 4v4h8v-4h-4z" fill="#7cd042"/>
    <path d="M32 6v1h8V6zm-12 4v1h12v-1zm20 0v1h4v-1zm-24 4v1h4v-1zm28 0v1h4v-1zM12 26v1h4v-1zm36 0v1h4v-1z" fill="#f4f4f7" opacity=".1"/>
    <path d="M32 14v1h8v-1zm-12 4v1h8v-1zm20 0v1h4v-1zm-12 4v1h8v-1zm-8 8v1h4v-1zm8 4v1h4v-1zm12 0v1h4v-1zm-20 4v1h4v-1zm-4 4v1h4v-1zm8 0v1h16v-1zm20 0v1h4v-1zm-24 4v1h4v-1zm20 0v1h4v-1zm-16 4v1h4v-1zm12 0v1h4v-1zm-8 4v1h8v-1z" opacity=".2"/>
</svg>
