<svg xmlns="http://www.w3.org/2000/svg" width="64" height="64" version="1"><rect style="opacity:.2" width="56" height="56" x="4" y="5" rx="16.8" ry="16.8"/><rect style="fill:#00a3e2" width="56" height="56" x="4" y="4" rx="16.8" ry="16.8"/><path style="opacity:.2" d="M23 32.826c.072 4.392.428 9.725 3.552 13.323 2.551 2.844 6.756 3.636 10.45 2.314 3.496-1.346 5.593-4.983 6.901-8.046L49 42.287c-1.837 4.238-5.114 8.309-10.056 9.888-3.981 1.237-8.48 1.037-12.403-.292-4.768-1.7-7.995-5.773-9.291-10.118-1.561-5.27-1.578-10.87-.503-16.217.917-4.493 3.57-9.056 8.39-11.046 4.05-1.697 8.824-1.91 13.112-.873 4.411 1.11 7.721 4.376 9.457 8.079.998 1.008-.235 1.174-1.097 1.468l-3.86 1.34c-1.206-3.594-4.655-7.25-9.045-7.35-3.302-.211-6.268 1.025-7.995 3.66-2.388 3.448-2.647 8.047-2.709 12z"/><path style="fill:#f4f4f7" d="M23 31.826c.072 4.392.428 9.725 3.552 13.323 2.551 2.844 6.756 3.636 10.45 2.314 3.496-1.346 5.593-4.983 6.901-8.046L49 41.287c-1.837 4.238-5.114 8.309-10.056 9.888-3.981 1.237-8.48 1.037-12.403-.292-4.768-1.7-7.995-5.773-9.291-10.118-1.561-5.27-1.578-10.87-.503-16.217.917-4.493 3.57-9.056 8.39-11.046 4.05-1.697 8.824-1.91 13.112-.873 4.411 1.11 7.721 4.376 9.457 8.079.998 1.008-.235 1.174-1.097 1.468l-3.86 1.34c-1.206-3.594-4.655-7.25-9.045-7.35-3.302-.211-6.268 1.025-7.995 3.66-2.388 3.448-2.647 8.047-2.709 12z"/><path style="opacity:.2;fill:#f4f4f7" d="M20.8 4C11.495 4 4 11.494 4 20.8v1C4 12.495 11.494 5 20.8 5h22.4C52.505 5 60 12.494 60 21.8v-1C60 11.495 52.506 4 43.2 4z"/></svg>