<svg xmlns="http://www.w3.org/2000/svg" width="64" height="64" version="1"><path style="opacity:.2" d="M32.156 4.002a6.595 6.594 0 0 0-3.453.88L9.298 16.084A6.595 6.594 0 0 0 6 21.796v22.406a6.595 6.594 0 0 0 3.297 5.711l19.405 11.204a6.595 6.594 0 0 0 6.595 0l19.405-11.204A6.595 6.594 0 0 0 58 44.202V21.795a6.595 6.594 0 0 0-3.298-5.711L35.297 4.88a6.595 6.594 0 0 0-3.141-.88z"/><path style="opacity:.2;fill:#f4f4f7" d="M32.154 3.005a6.595 6.594 0 0 0-3.452.878L9.298 15.086A6.595 6.594 0 0 0 6 20.797v1.45a6.595 6.594 0 0 1 3.298-5.711L28.702 5.333a6.595 6.594 0 0 1 3.453-.878 6.595 6.594 0 0 1 3.143.878l19.404 11.203A6.595 6.594 0 0 1 58 22.247v-1.45a6.595 6.594 0 0 0-3.298-5.711L35.298 3.883a6.595 6.594 0 0 0-3.143-.878z"/><path style="fill:#ee5c37" d="M6.948 17.394A6.596 6.596 0 0 0 6 20.8v22.41a6.596 6.596 0 0 0 .942 3.38l12.893-7.501L32 32.004l-12.165-7.09z"/><path style="fill:#ffbd4b" d="m19.835 39.088-12.893 7.5a6.595 6.595 0 0 0 2.356 2.331l19.404 11.205a6.594 6.594 0 0 0 3.366.875V46.543L32 32.004z"/><path style="fill:#5dc940" d="m57.046 17.397-12.881 7.517L32 32.004l12.165 7.084 12.898 7.503A6.596 6.596 0 0 0 58 43.209V20.8a6.596 6.596 0 0 0-.954-3.402z"/><path style="fill:#d5f389" d="M44.165 39.088 32 32.004l.068 14.539v14.456a6.595 6.595 0 0 0 3.23-.875L54.702 48.92a6.595 6.595 0 0 0 2.361-2.33z"/><path style="fill:#7bb7ff" d="M32.068 3.006a6.594 6.594 0 0 0-3.366.875L9.298 15.086a6.595 6.595 0 0 0-2.364 2.331l12.901 7.503L32 32.004l.068-14.539z"/><path style="fill:#3683f0" d="M32.155 3v.003l-.087.003v14.46L32 32.003l12.165-7.084 12.896-7.5a6.595 6.595 0 0 0-2.359-2.334L35.298 3.88A6.594 6.594 0 0 0 32.155 3z"/><path style="opacity:.1" d="M32 16c-2.639 0-4.822 2.186-4.822 4.825 0 .375.14.709.222 1.062-.858-1.358-2.304-2.319-4.01-2.319-2.638 0-4.824 2.183-4.824 4.822 0 1.706.962 3.152 2.321 4.01-.354-.083-.689-.222-1.065-.222C17.184 28.178 15 30.362 15 33s2.184 4.822 4.822 4.822c.376 0 .711-.14 1.065-.222-1.359.859-2.321 2.306-2.321 4.012 0 2.638 2.182 4.822 4.822 4.822 1.708 0 3.154-.963 4.012-2.324-.083.355-.222.69-.222 1.068C27.178 47.817 29.362 50 32 50s4.822-2.183 4.822-4.822c0-.376-.139-.711-.222-1.065.858 1.359 2.303 2.321 4.01 2.321 2.64 0 4.822-2.184 4.822-4.822 0-1.706-.962-3.154-2.322-4.012.356.084.693.222 1.07.222C46.818 37.822 49 35.64 49 33c0-2.638-2.182-4.822-4.82-4.822-.376 0-.713.139-1.067.222 1.359-.858 2.321-2.304 2.321-4.01 0-2.638-2.184-4.822-4.822-4.822-1.707 0-3.154.963-4.012 2.324.083-.354.222-.69.222-1.067C36.822 18.185 34.638 16 32 16z"/><path style="fill:#17191e" d="M32 15c-2.639 0-4.822 2.186-4.822 4.825 0 .375.14.709.222 1.062-.858-1.358-2.304-2.319-4.01-2.319-2.638 0-4.824 2.183-4.824 4.822 0 1.706.962 3.152 2.321 4.01-.354-.083-.689-.222-1.065-.222C17.184 27.178 15 29.362 15 32s2.184 4.822 4.822 4.822c.376 0 .711-.14 1.065-.222-1.359.859-2.321 2.306-2.321 4.012 0 2.638 2.182 4.822 4.822 4.822 1.708 0 3.154-.963 4.012-2.324-.083.355-.222.69-.222 1.068C27.178 46.817 29.362 49 32 49s4.822-2.183 4.822-4.822c0-.376-.139-.711-.222-1.065.858 1.359 2.303 2.321 4.01 2.321 2.64 0 4.822-2.184 4.822-4.822 0-1.706-.962-3.154-2.322-4.012.356.084.693.222 1.07.222C46.818 36.822 49 34.64 49 32c0-2.638-2.182-4.822-4.82-4.822-.376 0-.713.139-1.067.222 1.359-.858 2.321-2.304 2.321-4.01 0-2.638-2.184-4.822-4.822-4.822-1.707 0-3.154.963-4.012 2.324.083-.354.222-.69.222-1.067C36.822 17.185 34.638 15 32 15z"/><path style="opacity:.2" d="M36.292 34.778h5.298a2.563 2.563 0 1 0 0-3.555h-5.298l3.745-3.747.05.002a2.564 2.564 0 1 0-2.564-2.564l.001.049-3.745 3.746v-5.297a2.565 2.565 0 1 0-3.557 0v5.297l-3.745-3.746v-.05a2.564 2.564 0 1 0-2.565 2.564h.05l3.746 3.746H22.41a2.563 2.563 0 1 0 0 3.555h5.298l-3.747 3.746-.048-.002a2.564 2.564 0 1 0 2.564 2.566l-.002-.05 3.746-3.747v5.298a2.564 2.564 0 1 0 3.557 0v-5.298l3.745 3.747v.05a2.564 2.564 0 1 0 2.563-2.566l-.05.002z"/><path style="fill:#f4f4f7" d="M36.292 33.778h5.298a2.563 2.563 0 1 0 0-3.555h-5.298l3.745-3.747.05.002a2.564 2.564 0 1 0-2.564-2.564l.001.049-3.745 3.746v-5.297a2.565 2.565 0 1 0-3.557 0v5.297l-3.745-3.746v-.05a2.564 2.564 0 1 0-2.565 2.564h.05l3.746 3.746H22.41a2.563 2.563 0 1 0 0 3.555h5.298l-3.747 3.746-.048-.001a2.564 2.564 0 1 0 2.564 2.565l-.002-.05 3.746-3.747v5.298a2.564 2.564 0 1 0 3.557 0v-5.298l3.745 3.747v.05a2.564 2.564 0 1 0 2.563-2.565h-.05z"/><path style="opacity:.2;fill:#f4f4f7" d="M32.156 3.002a6.595 6.594 0 0 0-3.453.883L9.297 15.088A6.595 6.594 0 0 0 6 20.798v1a6.595 6.594 0 0 1 3.297-5.71L28.703 4.885a6.595 6.594 0 0 1 3.453-.883 6.595 6.594 0 0 1 3.14.883l19.407 11.199A6.595 6.594 0 0 1 58 21.799v-1a6.595 6.594 0 0 0-3.297-5.715l-19.406-11.2a6.595 6.594 0 0 0-3.14-.882z"/></svg>