<svg height="64" viewBox="0 0 64 64" width="64" xmlns="http://www.w3.org/2000/svg"><g transform="translate(36 -258.64999)"><path d="m-4 260.64999c-2.0775 0-4.104102.2091-6.060547.60742-.489111.0996-.97508.21106-1.455078.33399-2.879308.73758-5.589089 1.89083-8.0625 3.39062-.412322.25002-.819873.50831-1.21875.77734-7.976795 5.38079-13.203125 14.5037-13.203125 24.89063 0 6.23248 1.880976 12.0084 5.109375 16.79492.000306.00046-.000306.002 0 .002 1.88308 2.7916 4.226658 5.24612 6.919922 7.25781.384812.28743.774951.56691 1.173828.83594 2.393611 1.61462 5.035306 2.89152 7.857422 3.76563.470266.14565.94383.27941 1.423828.40234 2.40054.6149 4.918091.94136 7.515625.94136 10.386906 0 19.509838-5.22633 24.890625-13.20313.000306-.00045-.000306-.002 0-.002 3.228403-4.78647 5.109375-10.56239 5.109375-16.79487 0-10.38693-5.226328-19.50984-13.203125-24.89063-.000454-.0003-.0015.00031-.002 0-2.791633-1.88289-5.920006-3.30742-9.279297-4.16796-.000612-.00016-.0013.00015-.002 0-2.399895-.61464-4.916708-.94141-7.513578-.94141z" fill="#36404d"/><path d="m-4.000019 261.65001h.000032c16.065993 0 28.999988 12.93399 28.999988 28.99998 0 16.06602-12.933995 28.99999-28.999988 28.99999h-.000032c-16.065993 0-28.999981-12.93397-28.999981-28.99999 0-16.06599 12.933988-28.99998 28.999981-28.99998z" fill="#4b6477"/><path d="m-4.000018 264.65001h.000029c14.403993 0 25.999989 11.59598 25.999989 25.99998 0 14.40402-11.595996 25.99999-25.999989 25.99999h-.000029c-14.403993 0-25.999982-11.59597-25.999982-25.99999 0-14.404 11.595989-25.99998 25.999982-25.99998z" fill="#f1f1f1"/><path d="m-4 292.64999c.554 0 1 .446 1 1v12c0 .554-.446 1-1 1s-1-.446-1-1v-12c0-.554.446-1 1-1z" fill="#f78f8f" opacity=".99"/><g fill="#36404d"><path d="m-4 272.64999c-.554 0-1 .446-1 1v13.13867c-1.726297.44369-3 1.99278-3 3.86133 0 2.216 1.784 4 4 4 1.86855 0 3.417636-1.2737 3.861328-3h8.138672c.554 0 1-.446 1-1s-.446-1-1-1h-8.138672c-.361189-1.4053-1.45603-2.50014-2.861328-2.86133v-13.13867c0-.554-.446-1-1-1zm0 16c1.108 0 2 .892 2 2s-.892 2-2 2-2-.892-2-2 .892-2 2-2z" opacity=".99"/><path d="m-4 266.64999c-1.108 0-2 .892-2 2s.892 2 2 2 2-.892 2-2-.892-2-2-2zm-16 8c-1.108 0-2 .892-2 2s.892 2 2 2 2-.892 2-2-.892-2-2-2zm32 0c-1.108 0-2 .892-2 2s.892 2 2 2 2-.892 2-2-.892-2-2-2zm-38 14c-1.108 0-2 .892-2 2s.892 2 2 2 2-.892 2-2-.892-2-2-2zm44 0c-1.108 0-2 .892-2 2s.892 2 2 2 2-.892 2-2-.892-2-2-2zm-38 14c-1.108 0-2 .892-2 2s.892 2 2 2 2-.892 2-2-.892-2-2-2zm32 0c-1.108 0-2 .892-2 2s.892 2 2 2 2-.892 2-2-.892-2-2-2zm-16 8c-1.108 0-2 .892-2 2s.892 2 2 2 2-.892 2-2-.892-2-2-2z" opacity=".99"/></g></g></svg>