<svg height="64" width="64" xmlns="http://www.w3.org/2000/svg">
    <rect height="57" opacity=".2" rx="2.85" width="57" x="4" y="4"/>
    <rect fill="#ca1e1e" height="57" rx="2.85" width="57" x="4" y="3"/>
    <path d="M15.5 10a5.5 5.5 0 0 0-5.5 5.5 5.5 5.5 0 0 0 5.5 5.5 5.5 5.5 0 0 0 5.5-5.5 5.5 5.5 0 0 0-5.5-5.5zm34 0a5.5 5.5 0 0 0-5.5 5.5 5.5 5.5 0 0 0 5.5 5.5 5.5 5.5 0 0 0 5.5-5.5 5.5 5.5 0 0 0-5.5-5.5zm-17 17a5.5 5.5 0 0 0-5.5 5.5 5.5 5.5 0 0 0 5.5 5.5 5.5 5.5 0 0 0 5.5-5.5 5.5 5.5 0 0 0-5.5-5.5zm-17 17a5.5 5.5 0 0 0-5.5 5.5 5.5 5.5 0 0 0 5.5 5.5 5.5 5.5 0 0 0 5.5-5.5 5.5 5.5 0 0 0-5.5-5.5zm34 0a5.5 5.5 0 0 0-5.5 5.5 5.5 5.5 0 0 0 5.5 5.5 5.5 5.5 0 0 0 5.5-5.5 5.5 5.5 0 0 0-5.5-5.5z" opacity=".2"/>
    <g fill="#ffb0b0">
        <circle cx="15.5" cy="14.5" r="5.5"/>
        <circle cx="32.5" cy="31.5" r="5.5"/>
        <circle cx="49.5" cy="14.5" r="5.5"/>
        <circle cx="15.5" cy="48.5" r="5.5"/>
        <circle cx="49.5" cy="48.5" r="5.5"/>
    </g>
    <g fill="#f4f4f7">
        <path d="M6.85 3A2.843 2.843 0 0 0 4 5.85v1C4 5.27 5.27 4 6.85 4h51.3C59.73 4 61 5.27 61 6.85v-1C61 4.27 59.73 3 58.15 3zM15.5 9a5.5 5.5 0 0 0-5.5 5.5 5.5 5.5 0 0 0 .025.514A5.5 5.5 0 0 1 15.5 10a5.5 5.5 0 0 1 5.475 4.986A5.5 5.5 0 0 0 21 14.5 5.5 5.5 0 0 0 15.5 9zm34 0a5.5 5.5 0 0 0-5.5 5.5 5.5 5.5 0 0 0 .025.514A5.5 5.5 0 0 1 49.5 10a5.5 5.5 0 0 1 5.475 4.986A5.5 5.5 0 0 0 55 14.5 5.5 5.5 0 0 0 49.5 9zm-17 17a5.5 5.5 0 0 0-5.5 5.5 5.5 5.5 0 0 0 .025.514A5.5 5.5 0 0 1 32.5 27a5.5 5.5 0 0 1 5.475 4.986A5.5 5.5 0 0 0 38 31.5a5.5 5.5 0 0 0-5.5-5.5zm-17 17a5.5 5.5 0 0 0-5.5 5.5 5.5 5.5 0 0 0 .025.514A5.5 5.5 0 0 1 15.5 44a5.5 5.5 0 0 1 5.475 4.986A5.5 5.5 0 0 0 21 48.5a5.5 5.5 0 0 0-5.5-5.5zm34 0a5.5 5.5 0 0 0-5.5 5.5 5.5 5.5 0 0 0 .025.514A5.5 5.5 0 0 1 49.5 44a5.5 5.5 0 0 1 5.475 4.986A5.5 5.5 0 0 0 55 48.5a5.5 5.5 0 0 0-5.5-5.5z" opacity=".2"/>
    </g>
</svg>
