<svg height="64" width="64" xmlns="http://www.w3.org/2000/svg">
    <path d="M23 5A17 17 0 0 0 6 22a17 17 0 0 0 4.05 10.988A17 17 0 0 0 6 44a17 17 0 0 0 17 17 17 17 0 0 0 16.309-12.246A16 16 0 0 0 42 49a16 16 0 0 0 16-16 16 16 0 0 0-16-16 16 16 0 0 0-2.695.23A17 17 0 0 0 23 5z" opacity=".2"/>
    <circle cx="42" cy="32" fill="#5f81d4" r="16"/>
    <circle cx="23" cy="21" fill="#5f81d4" r="17"/>
    <path d="M23 4A17 17 0 0 0 6 21a17 17 0 0 0 .021.42A17 17 0 0 1 23 5a17 17 0 0 1 16.307 12.229A16 16 0 0 1 42 17a16 16 0 0 1 15.979 15.58A16 16 0 0 0 58 32a16 16 0 0 0-16-16 16 16 0 0 0-2.693.229A17 17 0 0 0 23 4z" fill="#f4f4f7" opacity=".2"/>
    <circle cx="23" cy="43" fill="#5f81d4" r="17"/>
    <path d="M34 13a10 10 0 0 0-10 10 10 10 0 0 0 10 10 10 10 0 0 0 10-10 10 10 0 0 0-10-10zm0 20a10 10 0 0 0-10 10 10 10 0 0 0 10 10 10 10 0 0 0 10-10 10 10 0 0 0-10-10zM16 23A10 10 0 0 0 6 33a10 10 0 0 0 10 10 10 10 0 0 0 10-10 10 10 0 0 0-10-10z" opacity=".2"/>
    <g fill="#f2f2f2">
        <circle cx="16" cy="32" r="10"/>
        <circle cx="34" cy="42" r="10"/>
        <circle cx="34" cy="22" r="10"/>
    </g>
    <path d="M16.653 13.112c.687-.34 1.348.202 1.348.202l15.778 9.198 15.255 8.902s.966.464.966 1.575c0 1.113-.974 1.476-.974 1.476l-15.282 8.902-16.133 9.397s-.47.412-1.077.148c-.693-.304-.513-1.076-.513-1.076V14.348c.001 0-.076-.887.632-1.236z" opacity=".2"/>
    <path d="M16.653 12.112c.687-.34 1.348.202 1.348.202l15.778 9.198 15.255 8.902s.966.464.966 1.575c0 1.113-.974 1.476-.974 1.476l-15.282 8.902-16.133 9.397s-.47.412-1.077.148c-.693-.304-.513-1.076-.513-1.076V13.348c.001 0-.076-.887.632-1.236z" fill="#ffbf00"/>
</svg>
