<svg width="64" height="64" xmlns="http://www.w3.org/2000/svg"><path d="M18 5v3h-7v4H7v7H4v28h3v7h4v4h7v3h28v-3h8v-4h3v-7h3V19h-3v-7h-3V8h-8V5z" style="opacity:.2"/><path d="M18 4v3h-7v4H7v7H4v28h3v7h4v4h7v3h28v-3h8v-4h3v-7h3V18h-3v-7h-3V7h-8V4z" style="fill:#17191e"/><path d="M18 8v4h-7v7H7v28h4v7h7v4h28v-4h8v-7h3V19h-3v-7h-8V8z" style="opacity:.2"/><path d="M18 7v4h-7v7H7v28h4v7h7v4h28v-4h8v-7h3V18h-3v-7h-8V7H18z" style="fill:#f4f4f7"/><path d="M18 12v4h-3v3h-4v28h4v3h3v4h28v-4h3v-3h4V19h-4v-3h-3v-4H22z" style="opacity:.1"/><path style="fill:#73d216" d="M22 11h20v42H22z"/><path d="M18 53h4V11h-4v4h-3v3h-4v28h4v3h3z" style="fill:#3465a4"/><path d="M46 53h-4V11h4v4h3v3h4v28h-4v3h-3z" style="fill:#ef2929"/><path d="M22 16v3h-4v3h-3v22h3v3h4v3h20v-3h4v-3h3V22h-3v-3h-4v-3z" style="opacity:.1"/><path d="M22 15v3h-4v3h-3v22h3v3h4v3h20v-3h4v-3h3V21h-3v-3h-4v-3H22z" style="fill:#17191e"/><path d="M25 23v3h-3v7h3v3h7v-3h3v-7h-3v-3zm14 17v4h4v-4z" style="opacity:.2"/><path d="M25 22v3h-3v7h3v3h7v-3h3v-7h-3v-3h-7zm14 17v4h4v-4h-4z" style="fill:#f4f4f7"/><path d="M18 4v1h28V4H18zm-7 3v1h7V7h-7zm35 0v1h8V7h-8zM7 11v1h4v-1H7zm47 0v1h3v-1h-3zM4 18v1h3v-1H4zm53 0v1h3v-1h-3z" style="fill:#f4f4f7;opacity:.1"/><path d="M18 7v1h28V7H18zm-7 4v1h7v-1h-7zm35 0v1h8v-1h-8zM7 18v1h4v-1H7zm47 0v1h3v-1h-3z" style="fill:#f4f4f7;opacity:.2"/></svg>