<svg height="64" width="64" xmlns="http://www.w3.org/2000/svg">
    <rect height="56" opacity=".2" rx="2.8" width="56" x="4" y="5"/>
    <rect fill="#8340b7" height="56" rx="2.8" width="56" x="4" y="4"/>
    <path d="m35.374 17-18.44 32h4.568l4.388-8h14.578l1.297 8h4.502l-5.981-32zm1.63 4.266L39.757 37h-11.63z" opacity=".2"/>
    <path d="m35.374 16-18.44 32h4.568l4.388-8h14.578l1.297 8h4.502l-5.981-32zm1.63 4.266L39.757 36h-11.63z" fill="#f4f4f7"/>
    <circle cx="11" cy="12" opacity=".2" r="4"/>
    <circle cx="11" cy="11" fill="#ac7ece" r="4"/>
    <circle cx="21" cy="12" opacity=".2" r="4"/>
    <circle cx="21" cy="11" fill="#ac7ece" r="4"/>
    <circle cx="31" cy="12" opacity=".2" r="4"/>
    <circle cx="31" cy="11" fill="#ac7ece" r="4"/>
    <path d="M6.8 4C5.25 4 4 5.25 4 6.8v1C4 6.25 5.25 5 6.8 5h50.4C58.75 5 60 6.25 60 7.8v-1C60 5.25 58.75 4 57.2 4z" fill="#f4f4f7" opacity=".1"/>
</svg>
