<svg height="64" width="64" xmlns="http://www.w3.org/2000/svg">
    <rect height="56" opacity=".2" rx="2.8" width="56" x="4" y="5"/>
    <rect fill="#2ac4c4" height="56" rx="2.8" width="56" x="4" y="4"/>
    <path d="M32 16c-5.54 0-10 3.999-10 8.582V29c-2.77 0-5 1.77-5 4.036V44.91c0 2.265 2.23 4.09 5 4.09h20c2.77 0 5-1.825 5-4.09V33.035C47 30.77 44.77 29 42 29v-4.418C42 20 37.54 16 32 16zm0 4c2.77 0 6 1.874 6 4.155V29H26v-4.845C26 21.874 29.23 20 32 20z" opacity=".2"/>
    <g fill="#f4f4f7">
        <path d="M32 15c-5.54 0-10 3.999-10 8.582V28c-2.77 0-5 1.77-5 4.036V43.91c0 2.265 2.23 4.09 5 4.09h20c2.77 0 5-1.825 5-4.09V32.035C47 29.77 44.77 28 42 28v-4.418C42 19 37.54 15 32 15zm0 4c2.77 0 6 1.874 6 4.155V28H26v-4.845C26 20.874 29.23 19 32 19z"/>
        <path d="M6.8 4C5.25 4 4 5.25 4 6.8v1C4 6.25 5.25 5 6.8 5h50.4C58.75 5 60 6.25 60 7.8v-1C60 5.25 58.75 4 57.2 4z" opacity=".2"/>
    </g>
</svg>
