<svg height="64" width="64" xmlns="http://www.w3.org/2000/svg"><path d="m32 5c-15.512 0-28 12.488-28 28s12.488 28 28 28 28-12.488 28-28-12.488-28-28-28z" opacity=".2"/><path d="m32 4c-15.512 0-28 12.488-28 28s12.488 28 28 28 28-12.488 28-28-12.488-28-28-28z" fill="#17191e"/><path d="m41.5 16a3.5 3.5 0 0 0 -3.5 3.5 3.5 3.5 0 0 0 3.5 3.5 3.5 3.5 0 0 0 3.5-3.5 3.5 3.5 0 0 0 -3.5-3.5zm-15.69 9c-.328.01-.65.137-.874.39l-11.637 12.168c-.15.217-.299.505-.299.795v4.418c0 .724.524 1.23 1.275 1.23h35.448c.676 0 1.277-.579 1.277-1.23v-3.186a1.18 1.18 0 0 0 -.379-.87l-8.484-9.224c-.526-.434-1.278-.506-1.803 0l-3.307 3.865a1.407 1.407 0 0 1 -1.8 0l-8.489-8.037a1.407 1.407 0 0 0 -.927-.318z" opacity=".2"/><g fill="#f4f4f7"><path d="m41.5 15a3.5 3.5 0 0 0 -3.5 3.5 3.5 3.5 0 0 0 3.5 3.5 3.5 3.5 0 0 0 3.5-3.5 3.5 3.5 0 0 0 -3.5-3.5zm-15.69 9c-.328.01-.65.137-.874.39l-11.637 12.168c-.15.217-.299.505-.299.795v4.418c0 .724.524 1.23 1.275 1.23h35.448c.676 0 1.277-.579 1.277-1.23v-3.186a1.18 1.18 0 0 0 -.379-.87l-8.484-9.224c-.526-.434-1.278-.506-1.803 0l-3.307 3.865a1.407 1.407 0 0 1 -1.8 0l-8.489-8.037a1.407 1.407 0 0 0 -.927-.318z"/><path d="m32 4c-15.512 0-28 12.488-28 28 0 .168.01.333.014.5.266-15.279 12.642-27.5 27.986-27.5s27.72 12.221 27.986 27.5c.003-.167.014-.332.014-.5 0-15.512-12.488-28-28-28z" opacity=".1"/></g></svg>