<svg height="64" width="64" xmlns="http://www.w3.org/2000/svg"><path d="m32 4a29 29 0 0 0 -29 29 29 29 0 0 0 29 29 29 29 0 0 0 29-29 29 29 0 0 0 -29-29z" opacity=".2"/><path d="m29.1 11.7v4.432c-2.612.158-4.947.599-7.006 1.722-2.794 1.524-4.594 4.721-4.594 8.346 0 3.867 2.495 6.872 5.316 8.165 2.82 1.292 5.924 1.6 8.824 1.962 2.9.363 5.596.78 7.126 1.481 1.53.702 1.934.959 1.934 2.892 0 1.358-.395 2.051-1.716 2.875-1.321.823-3.718 1.475-6.984 1.475-5.075 0-6.782-1.626-7.737-3.059-.955-1.432-.963-2.741-.963-2.741h-5.8s-.008 3.041 1.937 5.959c1.637 2.454 4.816 4.752 9.663 5.426v4.565h5.8v-4.486c2.753-.274 5.16-.975 7.154-2.217 2.666-1.662 4.446-4.595 4.446-7.797 0-3.867-2.495-6.872-5.316-8.165-2.82-1.292-5.924-1.6-8.824-1.962-2.9-.363-5.596-.78-7.126-1.481-1.53-.702-1.934-.959-1.934-2.892 0-2.175.375-2.603 1.569-3.254s3.7-1.096 7.131-1.096c5.196 0 7.024 1.461 7.884 2.538.861 1.076.816 1.812.816 1.812h5.8s-.045-2.889-2.084-5.438c-1.71-2.136-4.798-3.982-9.516-4.53v-4.532z" opacity=".2"/><path d="m32 3a29 29 0 0 0 -29 29 29 29 0 0 0 29 29 29 29 0 0 0 29-29 29 29 0 0 0 -29-29z" fill="#4f8d28"/><path d="m29 11v5.057c-2.544.113-4.863.448-6.973 1.418-2.911 1.338-5.027 4.555-5.027 8.275 0 3.934 2.628 6.984 5.535 8.271 2.907 1.288 6.106 1.595 9.106 1.958 3 .362 5.8.78 7.394 1.486 1.593.706 1.965.92 1.965 2.785 0 1.238-.29 1.689-1.693 2.438-1.403.747-3.984 1.312-7.307 1.312-5.197 0-7.17-1.433-8.104-2.488s-.902-1.684-.902-1.684l-5.988.344s.233 2.871 2.398 5.316c1.803 2.035 4.918 3.789 9.596 4.326v5.186h6v-5.121c2.686-.228 5.082-.803 7.13-1.897 2.786-1.486 4.87-4.41 4.87-7.732 0-3.934-2.628-6.984-5.535-8.271-2.907-1.288-6.106-1.595-9.106-1.958-3-.362-5.8-.78-7.394-1.486-1.593-.705-1.965-.92-1.965-2.785 0-2.081.26-2.238 1.535-2.824 1.276-.587 3.971-.926 7.465-.926 5.197 0 7.17 1.433 8.104 2.488s.902 1.684.902 1.684l5.988-.344s-.233-2.871-2.398-5.316c-1.803-2.035-4.918-3.789-9.596-4.326v-5.186z" opacity=".2"/><path d="m44 25s-.4-7-12-7c-7.25 0-12 .95-12 6.75 0 11.6 24 2.9 24 14.5 0 4.56-4.75 6.75-12 6.75-11.6 0-12-7-12-7" fill="none" stroke="#f4f4f7" stroke-linejoin="round" stroke-width="6"/><g fill="#f4f4f7"><path d="m29 10h6v6h-6zm0 38h6v6h-6z"/><path d="m32 3a29 29 0 0 0 -29 29 29 29 0 0 0 .021.408 29 29 0 0 1 28.979-28.408 29 29 0 0 1 28.979 28.574 29 29 0 0 0 .021-.574 29 29 0 0 0 -29-29z" opacity=".1"/></g></svg>