<svg height="64" width="64" xmlns="http://www.w3.org/2000/svg">
    <circle cx="32" cy="33" opacity=".2" r="28"/>
    <circle cx="32" cy="32" fill="#b864e6" r="28"/>
    <path d="M18.766 10.826A25 25 0 0 0 7 32h12a13 13 0 0 1 6.113-11.018zM45 32a13 13 0 0 1-6.113 11.018l6.347 10.156A25 25 0 0 0 57 32z" fill="#d69def"/>
    <path d="M32 4A28 28 0 0 0 4 32a28 28 0 0 0 .021.586A28 28 0 0 1 32 5a28 28 0 0 1 27.979 27.414A28 28 0 0 0 60 32 28 28 0 0 0 32 4z" fill="#f4f4f7" opacity=".2"/>
    <circle cx="32" cy="33" opacity=".1" r="10"/>
    <circle cx="32" cy="32" fill="#4f4f4f" r="10"/>
    <circle cx="32" cy="32" fill="#f4f4f7" r="2"/>
</svg>
