<svg xmlns="http://www.w3.org/2000/svg" width="64" height="64"><path style="opacity:.2" d="M12.813 5A2.8 2.8 0 0 0 10 7.8v50.4a2.8 2.8 0 0 0 2.813 2.8h39.375A2.8 2.8 0 0 0 55 58.2V7.8A2.8 2.8 0 0 0 52.187 5h-34.32z"/><path style="fill:#23a5dc" d="M17.867 4v56h34.32A2.8 2.8 0 0 0 55 57.2V6.8A2.8 2.8 0 0 0 52.187 4z"/><path style="fill:#6b3f3f" d="M12.813 4A2.8 2.8 0 0 0 10 6.8v50.4a2.8 2.8 0 0 0 2.813 2.8H18V4h-5.187z"/><path style="opacity:.2" transform="matrix(1.42082 0 0 1.4 -1.834 -3.461)" d="m34.15 26.044-6.928 4-6.928 4v-16l6.928 4z"/><path style="fill:#f4f4f7" transform="matrix(1.42082 0 0 1.4 -1.834 -4.461)" d="m34.15 26.044-6.928 4-6.928 4v-16l6.928 4z"/><path style="fill:#f4f4f7;opacity:.2" d="M12.813 4A2.8 2.8 0 0 0 10 6.8v1A2.8 2.8 0 0 1 12.813 5h39.375A2.8 2.8 0 0 1 55 7.8v-1A2.8 2.8 0 0 0 52.187 4H12.813z"/></svg>