<svg height="64" width="64" xmlns="http://www.w3.org/2000/svg"><path d="m59.935 58.2-13.968-50.4c-.414-1.495-1.246-2.8-2.793-2.8h-22.348c-1.548 0-2.38 1.305-2.794 2.8l-13.968 50.4c-.414 1.495 1.246 2.8 2.794 2.8h50.284c1.548 0 3.208-1.305 2.794-2.8z" opacity=".2"/><path d="m59.935 57.2-13.968-50.4c-.414-1.495-1.246-2.8-2.793-2.8h-22.348c-1.548 0-2.38 1.305-2.794 2.8l-13.968 50.4c-.414 1.495 1.246 2.8 2.794 2.8h50.284c1.548 0 3.208-1.305 2.794-2.8z" fill="#ed333b"/><path d="m22 9h21l11 41h-44z" opacity=".2"/><path d="m22 8h21l11 41h-44z" fill="#f2f2f2"/><path d="m31 14v2h2v-2zm0 3v2h2v-2zm0 6v2h2v-2zm0 3v2h2v-2zm0 6v2h2v-2zm0 3v2h2v-2z" fill="#c0bfbc"/><path d="m30 11v2h4v-2zm0 9v2h4v-2zm0 9v2h4v-2zm0 9v2h4v-2z" fill="#939296"/><path d="m20.826 4c-1.547 0-2.38 1.306-2.795 2.8l-13.967 50.4c-.09.326-.067.64.018.937l13.95-50.337" fill="#f4f4f7" opacity=".2"/><circle cx="32" cy="49" opacity=".2" r="8"/><circle cx="32" cy="48" fill="#f4f4f7" r="8"/><g transform="matrix(.8660254 .5 -.5 .8660254 0 0)"><rect height="41.955" opacity=".2" rx="2.883" ry="3.258" width="5.994" x="49.67" y="-11.63"/><rect fill="#77767b" height="41.955" rx="2.883" ry="3.258" width="5.994" x="48.67" y="-13.37"/></g></svg>