<svg height="64" width="64" xmlns="http://www.w3.org/2000/svg"><path d="m11 4c-3.878 0-7 3.122-7 7v45h4v-6h3v6h4v-6h3v-39c0-3.878-3.122-7-7-7z" fill="#1a5fb4"/><path d="m38.462 4v.027c.178-.013.356-.027.538-.027zm.538 0c3.878 0 7 3.122 7 7v7h14v-7c0-3.878-3.122-7-7-7-.182 0-.36.014-.538.027v-.027z" fill="#3584e4"/><path d="m46 18h14v14h-14z" fill="#99c1f1"/><path d="m46 32h14v14h-14z" fill="#3584e4"/><path d="m24.462 4v.027c.178-.013.356-.027.538-.027zm.538 0c3.878 0 7 3.122 7 7v7h14v-7c0-3.878-3.122-7-7-7-.182 0-.36.014-.538.027v-.027z" fill="#b4d6ff"/><path d="m32 18h14v14h-14z" fill="#1c71d8"/><path d="m10.462 4v.027c.178-.013.356-.027.538-.027zm.538 0c3.878 0 7 3.122 7 7v7h14v-7c0-3.878-3.122-7-7-7-.182 0-.36.014-.538.027v-.027z" fill="#3584e4"/><path d="m18 18h14v14h-14z" fill="#99c1f1"/><path d="m18 32h14v14h-14z" fill="#3584e4"/><path d="m32 32h14v14h-14z" fill="#b4d6ff"/><path d="m46 46v14h4v-7h3v7h4v-7h3v-7z" fill="#99c1f1"/><path d="m32 46v14h4v-7h3v7h4v-7h3v-7z" fill="#1c71d8"/><path d="m18 46v14h4v-7h3v7h4v-7h3v-7z" fill="#99c1f1"/><path d="m10.46 4v.027c.18-.013.358-.027.54-.027zm.54 0c1.322 0 2.551.368 3.604 1h37.856v.027c.18-.013.358-.027.54-.027 3.878 0 7 3.122 7 7v-1c0-3.878-3.122-7-7-7-.182 0-.36.014-.54.027v-.027zm7 14v1h14v-1zm28 0v1h14v-1zm-14 14v1h14v-1zm-14 14v1h14v-1zm28 0v1h14v-1z" fill="#f4f4f7" opacity=".2"/><path d="m32 18v1h14v-1zm-14 14v1h14v-1zm28 0v1h14v-1zm-14 14v1h14v-1zm-24 4v1h3v-1zm7 0v1h3v-1zm7 3v1h3v-1zm7 0v1h3v-1zm7 0v1h3v-1zm7 0v1h3v-1zm7 0v1h3v-1zm7 0v1h3v-1zm-53 3v1h4v-1zm7 0v1h4v-1zm7 4v1h4v-1zm7 0v1h4v-1zm7 0v1h4v-1zm7 0v1h4v-1zm7 0v1h4v-1zm7 0v1h4v-1z" opacity=".2"/></svg>