<svg height="64" width="64" xmlns="http://www.w3.org/2000/svg">
    <path d="M4 11v44h4v-4h4v4h40v-4h4v4h4V11h-4v4h-4v-4H12v4H8v-4zm4 8h4v4H8zm44 0h4v4h-4zM8 27h4v4H8zm44 0h4v4h-4zM8 35h4v4H8zm44 0h4v4h-4zM8 43h4v4H8zm44 0h4v4h-4z" opacity=".2"/>
    <path d="M4 10v44h4v-4h4v4h40v-4h4v4h4V10h-4v4h-4v-4H12v4H8v-4zm4 8h4v4H8zm44 0h4v4h-4zM8 26h4v4H8zm44 0h4v4h-4zM8 34h4v4H8zm44 0h4v4h-4zM8 42h4v4H8zm44 0h4v4h-4z" fill="#ed5b36"/>
    <path d="M32 48.808 20.33 37h23.34z" opacity=".2"/>
    <g fill="#f4f4f7">
        <path d="M32 47.808 20.33 36h23.34z"/>
        <path d="M26 30h12v8.967H26z"/>
        <path d="M26 30h4v-4h-4z" fill-opacity=".68"/>
        <path d="M30 30h4v-4h-4z"/>
        <path d="M34 30h4v-4h-4z" fill-opacity=".88"/>
        <path d="M38 26h-4v-4h4z" fill-opacity=".68"/>
        <path d="M34 26h-4v-4h4z" fill-opacity=".54"/>
        <path d="M30 26h-4v-4h4z" fill-opacity=".88"/>
        <path d="M38 22h-4v-4h4z" fill-opacity=".19"/>
        <path d="M34 22h-4v-4h4z" fill-opacity=".34"/>
        <path d="M30 22h-4v-4h4z" fill-opacity=".06"/>
        <path d="M4 10v1h4v-1zm8 0v1h40v-1zm44 0v1h4v-1zM8 14v1h4v-1zm44 0v1h4v-1zM8 22v1h4v-1zm44 0v1h4v-1zM8 30v1h4v-1zm44 0v1h4v-1zM8 38v1h4v-1zm44 0v1h4v-1zM8 46v1h4v-1zm44 0v1h4v-1z" opacity=".2"/>
    </g>
</svg>
