<svg height="64" width="64" xmlns="http://www.w3.org/2000/svg" xmlns:xlink="http://www.w3.org/1999/xlink"><defs><path id="a" d="m490.72 139.23c4.1 0 7.42 3.32 7.42 7.42v60.83c0 4.1-3.32 7.42-7.42 7.42h-129.07c-4.1 0-7.43-3.32-7.43-7.42v-60.83c0-4.1 3.33-7.42 7.43-7.42z"/><path id="b" d="m297.34 214.9c5.52 0 10 4.48 10 10v55.68c0 5.52-4.48 10-10 10h-173.92c-5.52 0-10-4.48-10-10v-55.68c0-5.52 4.48-10 10-10z"/><path id="c" d="m490.72 290.58c4.1 0 7.42 3.32 7.42 7.42v60.83c0 4.1-3.32 7.43-7.42 7.43h-129.07c-4.1 0-7.43-3.33-7.43-7.43v-60.83c0-4.1 3.33-7.42 7.43-7.42z"/></defs><path d="m26 5a14 14 0 0 0 -13.535 10.494 13 13 0 0 0 -9.465 12.506 13 13 0 0 0 13 13 13 13 0 0 0 1.814-.143 14 14 0 0 0 12.186 7.143 14 14 0 0 0 10.813-5.117 10.5 10.5 0 0 0 4.687 1.117 10.5 10.5 0 0 0 10.5-10.5 10.5 10.5 0 0 0 -.002-.063 10.5 10.5 0 0 0 5.002-8.937 10.5 10.5 0 0 0 -9.748-10.463 8.5 8.5 0 0 0 -7.752-5.037 8.5 8.5 0 0 0 -5.813 2.305 14 14 0 0 0 -11.687-6.305zm14 43a5 5 0 0 0 -5 5 5 5 0 0 0 5 5 5 5 0 0 0 5-5 5 5 0 0 0 -5-5zm-15 5a4 4 0 0 0 -4 4 4 4 0 0 0 4 4 4 4 0 0 0 4-4 4 4 0 0 0 -4-4z" opacity=".2"/><g fill="#f4f4f7"><circle cx="36.614" cy="21.114" r="7.25"/><circle cx="26" cy="18" r="14"/><circle cx="43.5" cy="16.5" r="8.5"/><circle cx="16" cy="27" r="13"/><circle cx="50.5" cy="23.5" r="10.5"/><circle cx="45.5" cy="32.5" r="10.5"/><circle cx="30" cy="33" r="14"/></g><use height="100%" opacity=".1" transform="matrix(.09033 0 0 .10572 3.004 1.28)" width="100%" xlink:href="#a"/><path d="m26.727 25.464 9.228-7.646" fill="none" stroke="#17191e" stroke-width="2.636364"/><use fill="#68b723" height="100%" transform="matrix(.09033 0 0 .10572 3.004 .28)" width="100%" xlink:href="#a"/><path d="m26.727 28.535 9.228 7.645" fill="none" stroke="#17191e" stroke-width="2.636364"/><use height="100%" opacity=".1" transform="matrix(.09798 0 0 .1057 -.113 1.283)" width="100%" xlink:href="#b"/><use fill="#c6262e" height="100%" transform="matrix(.09798 0 0 .1057 -.113 .283)" width="100%" xlink:href="#b"/><use height="100%" opacity=".1" transform="matrix(.09033 0 0 .1057 3.004 1.283)" width="100%" xlink:href="#c"/><use fill="#3689e6" height="100%" transform="matrix(.09033 0 0 .1057 3.004 .283)" width="100%" xlink:href="#c"/><circle cx="40" cy="52" fill="#f4f4f7" r="5"/><circle cx="25" cy="56" fill="#f4f4f7" r="4"/><path d="m26 4a14 14 0 0 0 -13.535 10.494 13 13 0 0 0 -9.465 12.506 13 13 0 0 0 .023.488 13 13 0 0 1 9.442-11.994 14 14 0 0 1 13.535-10.494 14 14 0 0 1 11.688 6.305 8.5 8.5 0 0 1 5.812-2.305 8.5 8.5 0 0 1 7.752 5.037 10.5 10.5 0 0 1 9.725 9.983 10.5 10.5 0 0 0 .023-.52 10.5 10.5 0 0 0 -9.748-10.463 8.5 8.5 0 0 0 -7.752-5.037 8.5 8.5 0 0 0 -5.813 2.305 14 14 0 0 0 -11.687-6.305zm14 43a5 5 0 0 0 -5 5 5 5 0 0 0 .027.516 5 5 0 0 1 4.973-4.516 5 5 0 0 1 4.973 4.484 5 5 0 0 0 .027-.484 5 5 0 0 0 -5-5zm-15 5a4 4 0 0 0 -4 4 4 4 0 0 0 .035.506 4 4 0 0 1 3.965-3.506 4 4 0 0 1 3.965 3.494 4 4 0 0 0 .035-.494 4 4 0 0 0 -4-4z" fill="#f4f4f7" opacity=".2"/></svg>