<svg xmlns="http://www.w3.org/2000/svg" width="64" height="64" version="1"><rect style="opacity:.2" width="56" height="56" x="-61" y="-60" rx="2.8" ry="2.8" transform="matrix(0 -1 -1 0 0 0)"/><rect style="fill:#338505" width="56" height="56" x="-60" y="-60" rx="2.8" ry="2.8" transform="matrix(0 -1 -1 0 0 0)"/><path style="opacity:.2" d="M31.91 10c-6.337 0-8.719 1.824-8.719 1.824l-.699 1.57s-10.284.943-9.27 2.829C7.384 18.108 8.02 32.563 8.02 34.637 8.02 36.71 8.909 46 12.336 46c3.427 0 5.84-13.379 5.84-13.379s5.966-.563 6.664 3.145C25.538 39.474 27.2 56 31.906 56h.188c4.705 0 6.372-16.526 7.07-20.234.698-3.708 6.66-3.145 6.66-3.145S48.237 46 51.664 46s4.316-9.29 4.316-11.363c0-2.074.637-16.53-5.203-18.414 1.016-1.886-9.265-2.828-9.265-2.828l-.7-1.57S38.435 10 32.099 10zm-13.906 6A5.993 5.993 0 0 1 24 21.996a6 6 0 1 1-12 0A6 6 0 0 1 18.004 16zm30.144 1.164c.7 0 1.281.488 1.434 1.14l.04.02a3.3 3.3 0 0 1 1.515 1.578l.015.024a1.475 1.475 0 0 1 1.207 1.453 1.475 1.475 0 0 1-1.336 1.469l-.015.027a3.278 3.278 0 0 1-1.363 1.309l-.024.015a1.478 1.478 0 0 1-1.473 1.399c-.787 0-1.43-.622-1.472-1.399l-.024-.015a3.29 3.29 0 0 1-1.367-1.309l-.012-.027a1.475 1.475 0 0 1-.129-2.918l.012-.028c.31-.681.85-1.238 1.52-1.574l.039-.02a1.473 1.473 0 0 1 1.433-1.14zM17 18v3h-3v2h3v3h2v-3h2.996v-2H19v-3zm29.637.45a3.205 3.205 0 0 0-1.356 1.41c.047-.005.088-.005.13-.005.84 0 1.523.684 1.523 1.524 0 .839-.685 1.522-1.524 1.523.294.49.71.888 1.211 1.16a1.525 1.525 0 0 1 3.047 0 3.192 3.192 0 0 0 1.21-1.16 1.522 1.522 0 0 1-1.515-1.523c0-.84.68-1.524 1.52-1.524.04 0 .083 0 .129.004a3.198 3.198 0 0 0-1.352-1.41c.009.064.008.13.008.192 0 .84-.68 1.523-1.52 1.523s-1.527-.683-1.527-1.523c0-.063.007-.128.016-.192zM32.002 19A2.996 2.996 0 0 1 35 21.996 3.002 3.002 0 0 1 32.002 25 3.006 3.006 0 0 1 29 21.996 2.998 2.998 0 0 1 32.002 19zm0 .574a2.427 2.427 0 1 0 0 4.855 2.429 2.429 0 0 0 0-4.855zM42 22a2 2 0 1 1 0 4 2 2 0 1 1 0-4zm1.996 4c1.105 0 2.004.895 2.004 2s-.9 2-2.004 2A1.996 1.996 0 0 1 42 28c0-1.105.892-2 1.996-2zM32 28c3.314 0 6 2.683 6 5.996A6 6 0 1 1 32 28zm0 3a3 3 0 0 0-3 3 3 3 0 0 0 3 3 3 3 0 0 0 3-3 3 3 0 0 0-3-3z"/><path style="fill:#acf753" d="M31.91 9c-6.337 0-8.719 1.824-8.719 1.824l-.699 1.57s-10.284.943-9.27 2.829C7.384 17.108 8.02 31.563 8.02 33.637 8.02 35.71 8.909 45 12.336 45c3.427 0 5.84-13.379 5.84-13.379s5.966-.563 6.664 3.145C25.538 38.474 27.2 55 31.906 55h.188c4.705 0 6.372-16.526 7.07-20.234.698-3.708 6.66-3.145 6.66-3.145S48.237 45 51.664 45s4.316-9.29 4.316-11.363c0-2.074.637-16.53-5.203-18.414 1.016-1.886-9.265-2.828-9.265-2.828l-.7-1.57S38.435 9 32.099 9zm-13.906 6A5.993 5.993 0 0 1 24 20.996a6 6 0 1 1-12 0A6 6 0 0 1 18.004 15zm30.144 1.164c.7 0 1.281.488 1.434 1.14l.04.02a3.3 3.3 0 0 1 1.515 1.578l.015.024a1.475 1.475 0 0 1 1.207 1.453 1.475 1.475 0 0 1-1.336 1.469l-.015.027a3.278 3.278 0 0 1-1.363 1.309l-.024.015a1.478 1.478 0 0 1-1.473 1.399c-.787 0-1.43-.622-1.472-1.399l-.024-.015a3.29 3.29 0 0 1-1.367-1.309l-.012-.027a1.475 1.475 0 0 1-.129-2.918l.012-.028c.31-.681.85-1.238 1.52-1.574l.039-.02a1.473 1.473 0 0 1 1.433-1.14zM17 17v3h-3v2h3v3h2v-3h2.996v-2H19v-3zm29.637.45a3.205 3.205 0 0 0-1.356 1.41c.047-.005.088-.005.13-.005.84 0 1.523.684 1.523 1.524 0 .839-.685 1.522-1.524 1.523.294.49.71.888 1.211 1.16a1.525 1.525 0 0 1 3.047 0 3.192 3.192 0 0 0 1.21-1.16 1.522 1.522 0 0 1-1.515-1.523c0-.84.68-1.524 1.52-1.524.04 0 .083 0 .129.004a3.198 3.198 0 0 0-1.352-1.41c.009.064.008.13.008.192 0 .84-.68 1.523-1.52 1.523s-1.527-.683-1.527-1.523c0-.063.007-.128.016-.192zM32.002 18A2.996 2.996 0 0 1 35 20.996 3.002 3.002 0 0 1 32.002 24 3.006 3.006 0 0 1 29 20.996 2.998 2.998 0 0 1 32.002 18zm0 .574a2.427 2.427 0 1 0 0 4.855 2.429 2.429 0 0 0 0-4.855zM42 21a2 2 0 1 1 0 4 2 2 0 1 1 0-4zm1.996 4c1.105 0 2.004.895 2.004 2s-.9 2-2.004 2A1.996 1.996 0 0 1 42 27c0-1.105.892-2 1.996-2zM32 27c3.314 0 6 2.683 6 5.996A6 6 0 1 1 32 27zm0 3a3 3 0 0 0-3 3 3 3 0 0 0 3 3 3 3 0 0 0 3-3 3 3 0 0 0-3-3z"/><path style="opacity:.1;fill:#f4f4f7" d="M6.8 4C5.25 4 4 5.25 4 6.8v1C4 6.25 5.25 5 6.8 5h50.4C58.75 5 60 6.25 60 7.8v-1C60 5.25 58.75 4 57.2 4H6.8z"/><path style="opacity:.2;fill:#f4f4f7" d="M31.91 9c-6.337 0-8.719 1.824-8.719 1.824l-.699 1.57s-10.284.943-9.27 2.829c-5.237 1.69-5.266 13.425-5.216 17.336-.01-4.61.365-14.77 5.217-16.336-1.015-1.886 9.27-2.828 9.27-2.828l.698-1.57S25.573 10 31.911 10h.187c6.337 0 8.715 1.824 8.715 1.824l.699 1.57s10.28.943 9.265 2.829c4.852 1.566 5.227 11.725 5.217 16.336.05-3.91.021-15.646-5.217-17.336 1.016-1.886-9.265-2.828-9.265-2.828l-.7-1.57S38.435 9 32.099 9h-.188zM17 17v1h2v-1h-2zm32.55 1.229a1.521 1.521 0 0 1-2.806.007c-.007.026-.023.047-.03.073l-.038.02c-.308.154-.585.36-.828.599.034.01.07.018.103.031.206-.197.433-.373.686-.51a1.53 1.53 0 0 0-.016.192c0 .84.687 1.523 1.527 1.523.84 0 1.52-.683 1.52-1.523 0-.063 0-.128-.008-.192.253.137.478.313.684.51.033-.013.068-.023.103-.033a3.26 3.26 0 0 0-.826-.602l-.039-.02c-.006-.027-.023-.049-.031-.075zM32.003 19c-.857 0-1.627.362-2.174.938-.158.321-.254.68-.254 1.062 0 .172.019.34.053.502a2.427 2.427 0 0 1 2.375-1.928 2.429 2.429 0 0 1 2.371 1.926c.034-.162.053-.328.053-.5a2.4 2.4 0 0 0-.262-1.072A2.985 2.985 0 0 0 32.002 19zM14 20v1h3v-1h-3zm5 0v1h2.996v-1H19zm33.27.875a1.47 1.47 0 0 1-1.247.973l-.015.027a3.267 3.267 0 0 1-.75.889 1.5 1.5 0 0 0 .62.138c-.293.489-.709.888-1.21 1.16a1.506 1.506 0 0 0-.113-.513 1.474 1.474 0 0 1-1.407 1.049 1.475 1.475 0 0 1-1.41-1.059c-.067.163-.11.338-.117.523a3.185 3.185 0 0 1-1.21-1.16c.222 0 .433-.051.624-.138a3.255 3.255 0 0 1-.75-.889l-.012-.027a1.477 1.477 0 0 1-1.25-.971 1.46 1.46 0 0 0-.09.502c0 .769.59 1.399 1.34 1.469l.012.027a3.29 3.29 0 0 0 1.367 1.309l.024.015a1.478 1.478 0 0 0 1.472 1.399c.788 0 1.43-.622 1.473-1.399l.024-.015a3.278 3.278 0 0 0 1.363-1.309l.015-.027a1.475 1.475 0 0 0 1.247-1.973zm-5.428.002a1.524 1.524 0 0 1-1.432 1.025c.188.313.43.585.71.815.48-.257.814-.757.814-1.338 0-.177-.036-.344-.092-.502zm2.613.002a1.508 1.508 0 0 0-.092.5c0 .58.328 1.079.805 1.336.279-.23.522-.5.71-.813a1.514 1.514 0 0 1-1.423-1.023zm-37.43.617a6.032 6.032 0 0 0-.025.5 6 6 0 1 0 12 0c0-.169-.012-.335-.025-.5C23.72 24.576 21.149 27 18.004 27a6.004 6.004 0 0 1-5.979-5.504zm17.026 0c-.028.164-.051.329-.051.5A3.006 3.006 0 0 0 32.002 25 3.002 3.002 0 0 0 35 21.996a2.98 2.98 0 0 0-.05-.5 2.983 2.983 0 0 1-.772 1.555 2.42 2.42 0 0 1-2.176 1.379 2.42 2.42 0 0 1-2.186-1.387 2.982 2.982 0 0 1-.765-1.547zM40.07 23.5c-.042.16-.071.326-.071.5a2 2 0 0 0 2 2c.1 0 .195-.015.291-.03.301-.5.813-.853 1.416-.94.182-.302.293-.652.293-1.03 0-.174-.029-.34-.07-.5A1.995 1.995 0 0 1 42 25a1.995 1.995 0 0 1-1.93-1.5zm2 4c-.042.16-.071.326-.071.5 0 1.105.892 2 1.996 2A2.003 2.003 0 0 0 46 28c0-.174-.03-.34-.072-.5a2 2 0 0 1-1.932 1.5 1.99 1.99 0 0 1-1.926-1.5zM32 30a3 3 0 0 0-3 3 3 3 0 0 0 .043.486A3 3 0 0 1 32 31a3 3 0 0 1 2.957 2.514A3 3 0 0 0 35 33a3 3 0 0 0-3-3zm5.975 3.496C37.72 36.576 35.145 39 32 39a5.998 5.998 0 0 1-5.975-5.5A6.04 6.04 0 0 0 26 34a6 6 0 1 0 12-.004 6.04 6.04 0 0 0-.025-.5z"/></svg>