<svg xmlns="http://www.w3.org/2000/svg" width="64" height="64" version="1"><rect style="opacity:.2" width="56" height="56" x="4" y="5" rx="2.8" ry="2.8"/><rect style="fill:#5aa9f0" width="56" height="56" x="4" y="4" rx="2.8" ry="2.8"/><path style="opacity:.2;fill:#f4f4f7" d="M6.8 4C5.25 4 4 5.25 4 6.8v1C4 6.25 5.25 5 6.8 5h50.4C58.75 5 60 6.25 60 7.8v-1C60 5.25 58.75 4 57.2 4H6.8z"/><path style="opacity:.2" d="m18 37 14 16 14-16-8 .002V31c0 2-2 2-2 2s-2 0-2-2-2-2-2-2-2 0-2 2-2 2-2 2-2 0-2-2.002V37z"/><path style="fill:#f4f4f7" d="m18 36 14 16 14-16-8 .002V30c0 2-2 2-2 2s-2 0-2-2-2-2-2-2-2 0-2 2-2 2-2 2-2 0-2-2.002V36z"/><path style="opacity:.2;fill:#f4f4f7" d="M32 12s-2 0-2 2-2 2-2 2-2 .002-2-2v28h12V14c0 2-2 2-2 2s-2 0-2-2-2-2-2-2z"/><path style="opacity:.5;fill:#f4f4f7" d="M28 20s-2-.002-2 2v12h12V22c0-2-2-2-2-2s-2 0-2 2-2 2-2 2-2 0-2-2-2-2-2-2z"/></svg>