<svg height="64" viewBox="0 0 64 64" width="64" xmlns="http://www.w3.org/2000/svg" xmlns:xlink="http://www.w3.org/1999/xlink"><filter id="a" color-interpolation-filters="sRGB" height="1.054" width="1.054" x="-.027" y="-.027"><feGaussianBlur stdDeviation=".61875"/></filter><linearGradient id="b" gradientUnits="userSpaceOnUse" x1="76.93" x2="131.93" y1="59.945844" y2="4.945844"><stop offset="0" stop-color="#1d2123"/><stop offset="1" stop-color="#33393e" stop-opacity=".99608"/></linearGradient><g transform="translate(-72.44)"><rect fill="#141414" filter="url(#a)" height="55" opacity=".3" ry="15" stroke-linecap="round" stroke-width="2.7444" width="55" x="76.935" y="4.9558"/><rect fill="url(#b)" height="55" ry="15" stroke-linecap="round" stroke-width="2.7444" width="55" x="76.935" y="4.9558"/><circle cx="104.44" cy="32" fill="none" r="30.001" stroke-width="1.5715"/></g><circle cx="32" cy="32.001" fill="#20c8ca" opacity=".15" r="13.612" stroke-width="3.9569"/><path d="m31.518 16c-.89267.03323-1.3833.33291-1.7031.97661-.20518.41304-.37287 1.1011-.37306 1.5293-.000664 1.5708-1.5866 3.004-3.3263 3.004-.85355 0-1.3224-.23496-3.0509-1.5293-.78669-.58913-1.2833-.4359-2.5039.76563-1.1596 1.1417-1.189 1.6884-.16212 3.0509.42434.56316.85427 1.3138.9551 1.6699.24934.88057-.15888 2.4925-.81447 3.2091-.53735.58731-1.8717 1.0449-3.0353 1.0449-1.1064 0-1.5039.62987-1.5039 2.373 0 1.3574.05208 1.5427.51758 1.8516.28446.1889 1.1063.42785 1.8282.53126.72194.10337 1.5553.34765 1.8496.54298.62133.41239 1.3415 1.8884 1.3477 2.7637.0049.63543-.48417 1.759-.98833 2.2695-.54944.55655-.9514 1.5694-.80664 2.0312.18542.59174 1.4414 1.857 2.0918 2.1074.37255.14351.64318.10167 1.0039-.15428 1.0573-.7501 2.8662-1.5645 3.4767-1.5645.92018 0 2.4465.81208 2.7812 1.4805.15759.31484.35406 1.0487.43749 1.6289.2023 1.4071.52208 2.0693 1.0586 2.1836.24391.05171.63641.13943.87108.19336.2347.05537.7631.05537 1.1738 0 1.0713-.14385 1.6424-.94263 1.8223-2.5488.16452-1.4686.29938-1.7049 1.381-2.3965 1.0982-.70225 1.9578-.83937 2.8027-.44728.70055.32516.98368.49365 2.1328 1.2599.84194.56146 1.3666.46867 2.3398-.42188 1.4634-1.3392 1.4929-1.9214.18165-3.4513-1.2481-1.4559-1.2623-3.2472-.03515-4.6228.46992-.52688.89131-.71015 2.2832-.98829 2.1016-.41991 2.4431-.7631 2.4492-2.4688.006-1.7037-.26495-1.982-2.2383-2.291-1.8777-.29402-2.4789-.71824-3.1387-2.2051-.54853-1.2363-.3972-1.9608.77346-3.6583.60031-.87037.89913-1.5056.83008-1.7734-.15428-.59763-2.0995-2.3809-2.5978-2.3809-.23074 0-.8452.33231-1.3652.73438-1.4346 1.1094-2.289 1.3601-3.5157 1.0312-1.4414-.38609-1.9544-.9949-2.3184-2.7539-.41806-2.0202-.68762-2.3838-1.877-2.5195-.39625-.04554-.73763-.06381-1.0352-.05273v-.0039zm.48243 10a6.0001 6.0001 0 0 1 6.0001 6.0001 6.0001 6.0001 0 0 1 -6.0001 6.0001 6.0001 6.0001 0 0 1 -6.0001-6.0001 6.0001 6.0001 0 0 1 6.0001-6.0001z" fill="#20c8ca"/><path d="m33.173 24a8 8 0 0 0 -8 8 8 8 0 0 0 8 8 8 8 0 0 0 5.6543-2.3457l-2.1211-2.1211a5 5 0 0 1 -3.5332 1.4668 5 5 0 0 1 -5-5 5 5 0 0 1 5-5 5 5 0 0 1 3.5332 1.4668l2.1211-2.1211a8 8 0 0 0 -5.6543-2.3457z" fill="#fff"/></svg>