<svg height="64" width="64" xmlns="http://www.w3.org/2000/svg"><rect height="56" opacity=".2" rx="16.8" width="56" x="4" y="5"/><rect fill="#2f9a2f" height="56" rx="16.8" width="56" x="4" y="4"/><path d="m43 44.137c-1.224.615-2.5 1.08-3.828 1.393a18.05 18.05 0 0 1 -4.158.47c-4.307 0-7.72-1.164-10.238-3.491-2.516-2.339-3.776-5.506-3.776-9.5 0-4.007 1.259-7.173 3.776-9.5 2.518-2.341 5.93-3.509 10.238-3.509" opacity=".2"/><g fill="#f4f4f7"><path d="m43 43.137c-1.224.615-2.5 1.08-3.828 1.393a18.05 18.05 0 0 1 -4.158.47c-4.307 0-7.72-1.164-10.238-3.491-2.516-2.339-3.776-5.506-3.776-9.5 0-4.007 1.259-7.173 3.776-9.5 2.518-2.341 5.93-3.509 10.238-3.509"/><path d="m20.8 4c-9.305 0-16.8 7.494-16.8 16.8v1c0-9.305 7.494-16.8 16.8-16.8h22.4c9.305 0 16.8 7.494 16.8 16.8v-1c0-9.305-7.494-16.8-16.8-16.8z" opacity=".2"/></g></svg>