<svg height="64" viewBox="0 0 16.933 16.933" width="64" xmlns="http://www.w3.org/2000/svg">
    <filter id="a" color-interpolation-filters="sRGB" height="1.054" width="1.054" x="-.027" y="-.027">
        <feGaussianBlur stdDeviation=".619"/>
    </filter>
    <linearGradient id="b" gradientUnits="userSpaceOnUse" x1="-1.181" x2="13.371" y1="29.243" y2="14.691">
        <stop offset="0" stop-color="#32d7ff"/>
        <stop offset="1" stop-color="#329bff"/>
    </linearGradient>
    <g transform="translate(2.372 -13.503)">
        <rect fill="#141414" filter="url(#a)" height="55" opacity=".3" ry="15" transform="translate(-2.372 13.503) scale(.26458)" width="55" x="4.5" y="4.5"/>
        <rect fill="url(#b)" height="14.552" ry="3.969" width="14.552" x="-1.181" y="14.694"/>
        <g stroke-width=".081">
            <path d="M10.456 20.373c.032.287-.024.586.008.878.034.317-.01.651-.067.963-.006-.253-.013-.51-.027-.758-.013-.262-.117-.53-.188-.786.076.537.11 1.081.123 1.62.01.416.012.849-.057 1.255-.067.396-.274.794-.403 1.161-.191.544-.13 1.271-.176 1.868 0 0-.045.105-.123-.402-.104-.685.007-1.435.02-2.132v-.017L9.565 24s-.022.064-.025.082a.228.228 0 0 0-.005.03v.002a.574.574 0 0 0-.005.03l-.004.019-.007.04a17.983 17.983 0 0 0-.24 1.42l-.003.023c-.045.276-.13.393-.3.586-.18.205-.396.462-.64.606-.006.005-.017.01-.027.017-.325.221-.627.502-.968.686-.024.014-.032.014-.017-.003.012-.013.024-.025.035-.039.088-.094.172-.198.229-.303l.005-.01c.188-.383.357-.784.527-1.179l-.106.155a6.143 6.143 0 0 1-.212.28c-.318.386-.543.947-.877 1.314-.121.133-.328.183-.464.312a.95.95 0 0 1-.476.229c-.269.045-.554.21-.828.31 0 0 .161-.193.279-.346.245-.322.472-.66.678-1.012a.93.93 0 0 0-.235.314c-.158.348-.552.608-.826.876-.201.198-.485.314-.758.373a6.934 6.934 0 0 1-1.38-.18c-.373-.094-1.052-.31-1.188-.567-.019-.037-.027-.185.05-.326.134-.245.405-.448.57-.686.308-.452.75-1.136 1.194-1.403.247-.148.577-.237.866-.354.133-.046.197-.07.327-.118-.325.072-.639.195-.95.312 0 0 .002.004.168-.218.185-.245.428-.448.643-.663.378-.377 1.298-.988 1.298-.988s-.489.292-.744.295c-.154.002-.305.092-.433.173.158-.178.327-.35.49-.522.329-.35.78-.6 1.183-.861-.2.042-.42.022-.62-.008.379-.239.748-.509 1.065-.82.78-.767 1.165-1.891 1.77-2.779.276-.406.659-.76 1.026-1.093 0 0 .245.037.282.178.091.351.245.7.365 1.05.124.357.137.763.18 1.139z" fill="#fff"/>
            <path d="M9.246 22.016c-.044.017.198.947.275 1.368.037.201.064.411.045.616 0 0-.022.064-.025.082a.228.228 0 0 0-.005.03v.002l-.005.03-.003.019-.007.04a17.983 17.983 0 0 0-.24 1.42l-.004.023c-.045.276-.13.393-.3.586-.18.205-.396.462-.64.606l-.026.017c-.326.221-.628.502-.969.686-.023.014-.032.014-.016-.003.011-.014.023-.025.035-.039.087-.094.171-.198.228-.303l.005-.01c.188-.383.358-.784.527-1.179l.019-.038a.452.452 0 0 0 .036-.111c.098-.509.202-1.1.09-1.608-.101-.451-.108-.34-.108-.34a4.017 4.017 0 0 1-.126.647c-.047.16-.132.299-.144.381-.032.217.055.438.06.452a.813.813 0 0 1-.097-.326c-.019-.206.106-.43.15-.62.075-.306-.073-.75-.007-.973.169-.589.834-1.499 1.104-2.314.14.436.25.911.401 1.317.013.037.019.049.005.032a7.1 7.1 0 0 0-.258-.49z" fill="#00c864"/>
            <g fill="#c8c8c8">
                <path d="M9.899 18.928c.001 0 .335.626.375.963l.081.658s-.107-.66-.208-.973a10.873 10.873 0 0 0-.248-.648zM9.828 19.352s.191.462.237.705c.033.183.095.554.095.554s-.109-.477-.176-.71c-.054-.183-.156-.549-.156-.549zM9.44 20.218c.17.537.351 1.094.408 1.65.04.4-.02 1.218-.02 1.218-.002 0 .017-1.018-.08-1.505a9.757 9.757 0 0 0-.23-.923c-.108-.354-.103-.356-.103-.356zM9.798 23.607s-.005.36-.025.535c-.02.182-.06.365-.084.548-.022.17-.067.354-.054.516.007.083-.013.022-.002-.2.014-.276.09-.558.118-.833.017-.188.047-.566.047-.566zM9.855 20.616s.074.173.132.39c.05.186.084.374.105.567.016.168.057.448.057.448-.019-.252-.037-.509-.076-.757-.008-.059-.033-.141-.054-.212a2.025 2.025 0 0 0-.092-.268 2.97 2.97 0 0 1-.072-.168zM8.987 22.011s.044.178.082.386c.03.17.044.346.07.514.038.235.204.703.204.703l-.15-.643c-.038-.171-.051-.362-.08-.54a1.344 1.344 0 0 0-.067-.257l-.059-.163zM8.693 22.285s.548 2.06.28 2.944c-.165.552-.86 1.536-.86 1.536-.002-.002.794-1.192.84-1.845.053-.712-.06-1.405-.172-2.115l-.088-.52z"/>
                <path d="M8.522 23.285s.057.164.077.368c.02.21.022.428.017.639-.008.329-.14.99-.14.99s.162-.716.174-1.057c.005-.168-.02-.353-.034-.527a1.256 1.256 0 0 0-.045-.252l-.049-.161zM7.374 24.398c.12.759.032 1.558-.25 2.244-.24.587-1.222 1.5-1.222 1.5s.495-.43.697-.683c.21-.263.357-.587.493-.898.227-.515.297-1.173.212-1.725-.084-.547-.022-.346-.022-.346zM7.62 25.411c0 .015.003.03 0 .047 0 .037 0 .128.013.274.006.08.021.186.016.293a1.175 1.175 0 0 1-.055.276c-.064.2-.227.594-.227.594s.2-.415.259-.621c.012-.042.042-.13.05-.24.009-.111-.013-.229-.015-.26a5.29 5.29 0 0 0-.054-.583c.007.09.01.133.014.22z"/>
                <path d="M6.644 26.037c-.075.423-.366 1.267-.366 1.267s.28-.651.351-.98c.044-.208.148-.498.089-.71-.002 0-.049.28-.074.423zM3.41 28.104c-.054.146-.166.289-.269.416 0 0 .229-.263.252-.32.01-.026.09-.219.059-.234.002 0-.025.093-.042.138zM4.333 27.758c-.029.284-.292.846-.292.846s.258-.442.302-.665c.01-.047.059-.433.005-.448.002 0-.005.178-.015.267zM5.553 26.865c-.043.391-.342 1.175-.342 1.175s.295-.611.349-.922c.03-.176.11-.463.03-.634.002 0-.022.252-.037.381zM9.479 18.444c-.193.09-.388.222-.512.398-.12.171-.327.539-.327.539.001 0 .3-.423.47-.586.027-.025.17-.168.19-.18.033-.02.179-.171.179-.171zM9.246 19.363a.347.347 0 0 0-.093-.003 1.155 1.155 0 0 0-.292.077c-.196.08-.376.225-.544.36 0 0 .167-.098.214-.122.037-.018.149-.084.258-.134.035-.017.12-.05.201-.076.175-.053.366-.085.366-.085-.045-.005-.067-.01-.11-.017zM8.932 19.804s-.014.096-.333.059a.53.53 0 0 0-.47.226l-.05.08.092-.086s.116-.096.182-.125a.317.317 0 0 1 .231.007.336.336 0 0 0 .146.015c.083-.003.155-.065.198-.174.002.001.002 0 .004-.002zM8.806 20.314c-.008-.015-.84.524-1.13.868-.32.379-1.034 1.087-1.034 1.087 0 .002.402-.221.57-.359.256-.208.432-.54.686-.752.154-.129.283-.302.441-.431.16-.13.467-.413.467-.413zM8.653 21.675c-.795.44-1.67.82-2.403 1.358-.244.178-.492.349-.74.52a2.858 2.858 0 0 1-.246.155c-.055.031-.083.048-.14.078.203-.063.414-.137.597-.24.144-.08.282-.198.413-.3a4.93 4.93 0 0 1 .552-.368 5.79 5.79 0 0 0 .22-.129c.12-.072.245-.134.373-.183.42-.166.832-.344 1.24-.535.057-.141.084-.212.134-.356zM6.792 23.141c.012-.005.022-.01.033-.013.027-.01.093-.036.192-.091.055-.032.124-.08.2-.107.265-.096.807-.28.807-.28s-.544.165-.81.25c-.08.024-.155.085-.177.095-.045.02-.35.181-.405.218l.16-.072zM7.582 23.501c0-.002-1.032.193-1.436.445-.256.16-.56.246-.814.394a7.325 7.325 0 0 0-.484.334c0 .002.474-.245.722-.332.289-.1.55-.279.836-.376.393-.131 1.176-.465 1.176-.465zM5.192 24.72s-.126-.017-.416.124a4.993 4.993 0 0 0-.539.3c.116-.058.173-.087.286-.149.032-.015.162-.09.283-.146.088-.04.224-.08.314-.107.029-.009.044-.012.072-.022zM6.612 25.02c-.398.005-.834-.012-1.213.094a4.25 4.25 0 0 0-.502.178c.163-.044.243-.066.403-.113a1.75 1.75 0 0 1 .355-.067c.32-.027.638-.057.957-.092zM5.481 25.648a2.016 2.016 0 0 0-.227.003c-.389.027-.807.047-1.173.165-.253.082-.752.315-.752.315s.648-.261.984-.317c.463-.077.938-.14 1.411-.16-.097 0-.146-.003-.243-.006zM4.148 26.128c-.3.052-.622.116-.89.262-.305.166-.246.156-.246.156.11-.045.166-.069.275-.12a3.45 3.45 0 0 1 .51-.189c.143-.042.212-.064.351-.109zM4.644 26.588c-.37.04-.739.082-1.107.12a2.401 2.401 0 0 0-.859.258c.153-.04.307-.084.457-.135.198-.06.399-.09.604-.114.304-.035.604-.077.904-.129zM3.544 27.214c0-.002-.606-.136-.868-.02-.315.137-.352.215-.352.215.12-.057.178-.086.29-.148l.08-.04a.846.846 0 0 1 .362-.052 15 15 0 0 1 .488.045z"/>
            </g>
            <path d="M9.707 15.128c.264.973.269 1.974.223 2.967-.05 1.081-.458 2.216-.81 3.236-.371 1.076-.965 1.986-1.524 2.961-.514.895-1.328 1.65-2.128 2.286a8.27 8.27 0 0 1-2.302 1.282 2.67 2.67 0 0 1-.82.136c-.202.005-.346-.006-.353-.006.594-.125 1.197-.304 1.724-.608 1.462-.844 2.838-1.999 3.696-3.473.545-.934 1.06-1.853 1.42-2.88.33-.95.691-1.945.79-2.949.076-.767.072-1.552-.065-2.314.047-.16.067-.24.102-.4.02-.097.03-.144.047-.238z" fill="#dcdcdc"/>
            <path d="M9.707 15.128c.264.973.269 1.974.223 2.967-.05 1.081-.458 2.216-.81 3.236-.371 1.076-.965 1.986-1.524 2.961-.514.895-1.328 1.65-2.128 2.286a8.27 8.27 0 0 1-2.302 1.282 2.662 2.662 0 0 1-.82.136h-.002c.646-.134 1.323-.33 1.876-.696 1.444-.954 2.832-2.107 3.64-3.67.504-.974.958-1.931 1.297-2.98.313-.97.646-1.994.696-3.016a7.877 7.877 0 0 0-.193-2.27c.02-.095.03-.142.047-.236z" fill="#ebebeb"/>
        </g>
    </g>
</svg>
