<svg height="64" width="64" xmlns="http://www.w3.org/2000/svg"><rect height="56" opacity=".2" rx="2.8" width="56" x="4" y="5"/><rect fill="#71743a" height="56" rx="2.8" width="56" x="4" y="4"/><path d="m6.8 4c-1.55 0-2.8 1.25-2.8 2.8v50.4c0 1.55 1.25 2.8 2.8 2.8h50.4c1.55 0 2.8-1.25 2.8-2.8v-50.4c0-1.55-1.25-2.8-2.8-2.8zm3.2 6h44v44h-44z" opacity=".1"/><path d="m32 13 6.49 13.167 14.51 2.113-10.5 10.248 2.479 14.472-12.979-6.833-12.979 6.833 2.479-14.472-10.5-10.25 14.51-2.11z" opacity=".1"/><path d="m32 12 6.49 13.167 14.51 2.113-10.5 10.248 2.479 14.472-12.979-6.833-12.979 6.833 2.479-14.472-10.5-10.25 14.51-2.11z" fill="#363636"/><path d="m6.8 4c-1.55 0-2.8 1.25-2.8 2.8v1c0-1.55 1.25-2.8 2.8-2.8h50.4c1.55 0 2.8 1.25 2.8 2.8v-1c0-1.55-1.25-2.8-2.8-2.8z" fill="#f4f4f7" opacity=".1"/></svg>