<svg height="64" width="64" xmlns="http://www.w3.org/2000/svg">
    <path d="M32 2a30.353 30.353 0 0 0-7.516.941c-2.879.738-5.589 1.891-8.062 3.391A29.926 29.926 0 0 0 2 32c0 6.232 1.881 12.008 5.11 16.795v.002a30.018 30.018 0 0 0 8.093 8.094 29.827 29.827 0 0 0 9.281 4.168c2.4.615 4.918.941 7.516.941a29.926 29.926 0 0 0 24.89-13.203v-.002C60.12 44.008 62 38.232 62 32A29.926 29.926 0 0 0 48.797 7.11h-.002a29.82 29.82 0 0 0-9.28-4.169h-.001A30.245 30.245 0 0 0 32 2z" fill="#d72f4a"/>
    <path d="M32 3c16.066 0 29 12.934 29 29 0 16.066-12.934 29-29 29C15.934 61 3 48.066 3 32 3 15.934 15.934 3 32 3z" fill="#ff778a"/>
    <path d="M32 18c-3.878 0-7 3.122-7 7v1h3v1h-3v1h3v1h-3v1h3v1h-3c0 3.878 3.122 7 7 7s7-3.122 7-7h-3v-1h3v-1h-3v-1h3v-1h-3v-1h3v-1c0-3.878-3.122-7-7-7zm-18.5 6c-.831 0-1.5.669-1.5 1.5s.669 1.5 1.5 1.5 1.5-.669 1.5-1.5-.669-1.5-1.5-1.5zm37 0c-.831 0-1.5.669-1.5 1.5s.669 1.5 1.5 1.5 1.5-.669 1.5-1.5-.669-1.5-1.5-1.5zM32 26c1.108 0 2 .892 2 2s-.892 2-2 2-2-.892-2-2 .892-2 2-2zM8.5 27c-.831 0-1.5.669-1.5 1.5S7.669 30 8.5 30s1.5-.669 1.5-1.5S9.331 27 8.5 27zm47 0c-.831 0-1.5.669-1.5 1.5s.669 1.5 1.5 1.5 1.5-.669 1.5-1.5-.669-1.5-1.5-1.5zm-42 2c-.831 0-1.5.669-1.5 1.5s.669 1.5 1.5 1.5 1.5-.669 1.5-1.5-.669-1.5-1.5-1.5zm37 0c-.831 0-1.5.669-1.5 1.5s.669 1.5 1.5 1.5 1.5-.669 1.5-1.5-.669-1.5-1.5-1.5zM19 30a13 13 0 0 0 11 12.836V47c0 1.108.892 2 2 2s2-.892 2-2v-4.172A13 13 0 0 0 45 30h-3c0 5.523-4.477 10-10 10s-10-4.477-10-10zM8.5 32c-.831 0-1.5.669-1.5 1.5S7.669 35 8.5 35s1.5-.669 1.5-1.5S9.331 32 8.5 32zm47 0c-.831 0-1.5.669-1.5 1.5s.669 1.5 1.5 1.5 1.5-.669 1.5-1.5-.669-1.5-1.5-1.5zm-42 2c-.831 0-1.5.669-1.5 1.5s.669 1.5 1.5 1.5 1.5-.669 1.5-1.5-.669-1.5-1.5-1.5zm37 0c-.831 0-1.5.669-1.5 1.5s.669 1.5 1.5 1.5 1.5-.669 1.5-1.5-.669-1.5-1.5-1.5zm-42 3c-.831 0-1.5.669-1.5 1.5S7.669 40 8.5 40s1.5-.669 1.5-1.5S9.331 37 8.5 37zm47 0c-.831 0-1.5.669-1.5 1.5s.669 1.5 1.5 1.5 1.5-.669 1.5-1.5-.669-1.5-1.5-1.5zm-42 2c-.831 0-1.5.669-1.5 1.5s.669 1.5 1.5 1.5 1.5-.669 1.5-1.5-.669-1.5-1.5-1.5zm37 0c-.831 0-1.5.669-1.5 1.5s.669 1.5 1.5 1.5 1.5-.669 1.5-1.5-.669-1.5-1.5-1.5z" fill="#ffe8eb"/>
</svg>
