<svg height="64" viewBox="0 0 64 64" width="64" xmlns="http://www.w3.org/2000/svg"><g transform="translate(24 -262.64999)"><path d="m-19 263.64999h54c2.216 0 4 1.784 4 4v54c0 2.216-1.784 4-4 4h-54c-2.216 0-4-1.784-4-4v-54c0-2.216 1.784-4 4-4z" fill="#3f88cb"/><path d="m-19 264.64999h54c1.662 0 3 1.338 3 3v54c0 1.662-1.338 3-3 3h-54c-1.662 0-3-1.338-3-3v-54c0-1.662 1.338-3 3-3z" fill="#7ab9ff"/><path d="m5.8412701 272.49126c-.386925 0-.698413.31148-.698413.69841v2.79365c0 .38692.311488.69842.698413.69842h2.79365c.386925 0 .698413-.3115.698413-.69842v-2.79365c0-.38693-.311488-.69841-.698413-.69841zm33.5238089 0c-.386926 0-.698414.31148-.698414.69841v2.79365c0 .38692.311488.69842.698414.69842h2.79365c.386925 0 .698412-.3115.698412-.69842v-2.79365c0-.38693-.311487-.69841-.698412-.69841zm-33.5183529 6.38529c-.386925 0-.698413.31149-.698413.69842v2.79365c0 .38692.311488.69841.698413.69841h2.79365c.386925 0 .698413-.31149.698413-.69841v-2.79365c0-.38693-.311488-.69842-.698413-.69842zm33.5238089 0c-.386925 0-.698414.31149-.698414.69842v2.79365c0 .38692.311489.69841.698414.69841h2.79365c.386925 0 .698412-.31149.698412-.69841v-2.79365c0-.38693-.311487-.69842-.698412-.69842zm-21.671255 1.99566c-.764276.01-1.378896.63112-1.379092 1.39546v16.76191c.0012 1.114 1.242329 1.77859 2.170263 1.1622l12.572792-8.38095c.828953-.553.828953-1.77141 0-2.32441l-12.572792-8.37958c-.234063-.15598-.509916-.23792-.791171-.23463zm-11.8580099 4.19048c-.386925 0-.698413.31149-.698413.69841v2.79365c0 .38693.311488.69841.698413.69841h2.79365c.386925 0 .698413-.31148.698413-.69841v-2.79365c0-.38692-.311488-.69841-.698413-.69841zm33.5238089 0c-.386926 0-.698414.31149-.698414.69841v2.79365c0 .38693.311488.69841.698414.69841h2.79365c.386925 0 .698412-.31148.698412-.69841v-2.79365c0-.38692-.311487-.69841-.698412-.69841zm-33.5238089 6.28571c-.386925 0-.698413.31149-.698413.69842v2.79365c0 .38692.311488.69841.698413.69841h2.79365c.386925 0 .698413-.31149.698413-.69841v-2.79365c0-.38693-.311488-.69842-.698413-.69842zm33.5238089 0c-.386926 0-.698414.31149-.698414.69842v2.79365c0 .38692.311488.69841.698414.69841h2.79365c.386925 0 .698412-.31149.698412-.69841v-2.79365c0-.38693-.311487-.69842-.698412-.69842zm-33.5238089 6.28572c-.386925 0-.698413.31149-.698413.69841v2.79365c0 .38693.311488.69841.698413.69841h2.79365c.386925 0 .698413-.31148.698413-.69841v-2.79365c0-.38692-.311488-.69841-.698413-.69841zm33.5238089 0c-.386926 0-.698414.31149-.698414.69841v2.79365c0 .38693.311488.69841.698414.69841h2.79365c.386925 0 .698412-.31148.698412-.69841v-2.79365c0-.38692-.311487-.69841-.698412-.69841zm-33.5238089 6.28571c-.386925 0-.698413.31148-.698413.69841v2.79365c0 .38692.311488.69842.698413.69842h2.79365c.386925 0 .698413-.3115.698413-.69842v-2.79365c0-.38693-.311488-.69841-.698413-.69841zm33.5238089 0c-.386926 0-.698414.31148-.698414.69841v2.79365c0 .38692.311488.69842.698414.69842h2.79365c.386925 0 .698412-.3115.698412-.69842v-2.79365c0-.38693-.311487-.69841-.698412-.69841z" fill="#e9f3ff" transform="matrix(1.4318182 0 0 1.4318182 -26.363637 -121.50795)"/></g></svg>