<svg width="64" height="64" xmlns="http://www.w3.org/2000/svg">
    <circle cx="32" cy="33" r="28" style="opacity:.2"/>
    <circle cx="32" cy="32" r="28" style="fill:#4d4d5b"/>
    <path d="M32 4A28 28 0 0 0 4 32a28 28 0 0 0 .021.586A28 28 0 0 1 32 5a28 28 0 0 1 27.979 27.414A28 28 0 0 0 60 32 28 28 0 0 0 32 4z" style="fill:#f4f4f7;opacity:.1"/>
    <path d="M47.4 12c-6.5 0-12.905 2.834-18.505 7.034-6.423 4.817-13.864 14.102-13.864 19.702 0 1.98 1.4 4.2 4.2 4.2 7 0 15.769-8.468 15.769-8.468S27.455 42.912 23.6 47c-2.264 2.401-4.018 2.607-6.818 6.807C15.627 55.541 18.484 56.237 19 56c4.781-2.193 7.355-7.03 9.5-9 1.524-1.4 6.301-4.708 12.586-10.308.359-.32-1.757-.874-2.086-.651-4.2 2.848-4.81 3.96-4.81 3.96s6.15-7.608 11.064-13.6c.988-1.207-.714-1.4-.714-1.4h-1.955s8.916-4.909 8.981-9c.032-1.98-1.366-4-4.166-4zm-.785 2.893c.985.052 1.328.493.785 1.307-2.8 4.2-5.6 5.6-8.4 5.6-.385-.35 0-1.4 0-1.4s-3 1.2-3 2.6c0 1.32 1.6 3 3 3 1.043 0 2.74-1 2.74-1s-7.506 8-18.14 13.6c-2.77 1.459-4.7-.274-4.37-1.264 1.4-4.2 7.8-12.858 13.865-16.902 5.775-3.85 11.353-5.655 13.52-5.54z" style="opacity:.2"/>
    <path d="M47.4 11c-6.5 0-12.905 2.834-18.505 7.034C22.472 22.85 15.03 32.136 15.03 37.736c0 1.98 1.4 4.2 4.2 4.2 7 0 15.769-8.468 15.769-8.468S27.455 41.91 23.6 46c-2.264 2.4-4.018 2.607-6.818 6.807C15.627 54.541 18.484 55.237 19 55c4.781-2.193 7.355-7.03 9.5-9 1.524-1.4 6.301-4.708 12.586-10.308.359-.32-1.757-.875-2.086-.651C34.8 37.889 34.19 39 34.19 39s6.15-7.608 11.064-13.6c.988-1.206-.714-1.4-.714-1.4h-1.955s8.916-4.908 8.981-9c.032-1.98-1.366-4-4.166-4zm-.785 2.893c.985.052 1.328.493.785 1.307-2.8 4.2-5.6 5.6-8.4 5.6-.385-.35 0-1.4 0-1.4s-3 1.2-3 2.6c0 1.32 1.6 3 3 3 1.043 0 2.74-1 2.74-1s-7.506 8-18.14 13.6c-2.77 1.459-4.7-.274-4.37-1.264 1.4-4.2 7.8-12.859 13.865-16.902 5.775-3.85 11.353-5.656 13.52-5.541z" style="fill:#00a4b9"/>
</svg>
