<svg height="64" width="64" xmlns="http://www.w3.org/2000/svg">
    <circle cx="32" cy="33" opacity=".2" r="28"/>
    <circle cx="32" cy="32" fill="#6a6578" r="28"/>
    <path d="M32 4A28 28 0 0 0 4 32a28 28 0 0 0 .021.586A28 28 0 0 1 32 5a28 28 0 0 1 27.979 27.414A28 28 0 0 0 60 32 28 28 0 0 0 32 4z" fill="#f4f4f7" opacity=".1"/>
    <path d="M15.999 14.999c64.998 15 3.527 28.25 3.527 28.25-1.217.194-2.05.832-2.79 1.791-.737.958-.777 2.464-.315 3.572.578 1.386 1.405 1.902 2.578 2.386.828.03 3 0 3 0s30.999-10 30.852-19.446C52.78 26.997 42.998 18 15.999 15z" opacity=".2"/>
    <path d="M15.999 13.999c64.998 15 3.527 28.25 3.527 28.25-1.217.194-2.05.832-2.79 1.791-.737.958-.777 2.464-.315 3.572.578 1.386 1.405 1.902 2.578 2.386.828.03 3 0 3 0s30.999-10 30.852-19.446C52.78 25.997 42.998 17 15.999 14z" fill="#f4f4f7"/>
</svg>
