<svg height="64" viewBox="0 0 16.933 16.933" width="64" xmlns="http://www.w3.org/2000/svg" xmlns:xlink="http://www.w3.org/1999/xlink"><linearGradient id="a" gradientUnits="userSpaceOnUse" x1="7.9002072" x2="7.9002072" y1="16.284618" y2=".409738"><stop offset="0" stop-color="#3889e9"/><stop offset="1" stop-color="#5ea5fb"/></linearGradient><filter id="b" color-interpolation-filters="sRGB" height="1.054" width="1.054" x="-.027" y="-.027"><feGaussianBlur stdDeviation=".61875"/></filter><linearGradient id="c" gradientUnits="userSpaceOnUse" x1="1.19060276" x2="15.74239936" y1="15.7397532" y2="1.1879566"><stop offset="0" stop-color="#32d7ff"/><stop offset="1" stop-color="#329bff"/></linearGradient><rect fill="#141414" filter="url(#b)" height="55" opacity=".3" ry="15" stroke-linecap="round" stroke-width="2.74436" transform="scale(.26457812)" width="55" x="4.5" y="4.5"/><rect fill="url(#c)" height="14.551796" ry="3.968672" stroke-linecap="round" stroke-width=".726098" width="14.551796" x="1.190602" y="1.190602"/><circle cx="-308.78006" cy="-318.95218" fill="#5e4aa6" r="0" stroke-width=".26458"/><circle cx="-17.864065" cy="15.865837" fill="#5e4aa6" fill-rule="evenodd" r="0" stroke-width=".26458"/><circle cx="8.4665" cy="8.334351" fill="none" r="7.9376" stroke-width=".41578"/><circle cx="8.4665" cy="8.334351" fill="url(#a)" r="0" stroke-width=".41578"/><circle cx="8.4665" cy="8.334351" fill="url(#a)" r="0" stroke-width=".41578"/><path d="m9.596 4.233a3.104 3.104 0 0 0 -3.01 2.355 3.104 3.104 0 0 0 -2.353 3.008v3.104h3.105a3.104 3.104 0 0 0 3.01-2.354 3.104 3.104 0 0 0 2.352-3.008v-3.105zm0 .444h2.66v2.66a2.661 2.661 0 0 1 -1.827 2.524 3.104 3.104 0 0 0 .013-.265 3.104 3.104 0 0 0 -3.104-3.106 3.104 3.104 0 0 0 -.268.013 2.661 2.661 0 0 1 2.526-1.827zm-2.258 2.258a2.661 2.661 0 0 1 2.66 2.66 2.661 2.661 0 0 1 -.03.374 2.661 2.661 0 0 1 -.372.03 2.661 2.661 0 0 1 -2.661-2.661 2.661 2.661 0 0 1 .03-.374 2.661 2.661 0 0 1 .373-.03zm-.834.137a3.104 3.104 0 0 0 -.013.266 3.104 3.104 0 0 0 3.105 3.104 3.104 3.104 0 0 0 .267-.013 2.661 2.661 0 0 1 -2.525 1.827h-2.66v-2.66a2.661 2.661 0 0 1 1.826-2.524z" fill="#fff"/><g fill="#5e4aa6"><circle cx="-329.51428" cy="-322.15509" r="0" stroke-width=".26458"/><circle cx="-38.598293" cy="12.662923" fill-rule="evenodd" r="0" stroke-width=".26458"/><circle cx="-339.93466" cy="-344.6301" r="0" stroke-width=".264578"/><g stroke-width=".26458"><circle cx="-308.59447" cy="-355.027947" r="0"/><circle cx="-17.68068" cy="-20.206657" fill-rule="evenodd" r="0"/><circle cx="-287.82448" cy="-373.947957" r="0"/><circle cx="3.08852" cy="-39.116956" fill-rule="evenodd" r="0"/></g></g></svg>