<svg height="64" width="64" xmlns="http://www.w3.org/2000/svg"><path d="m6.8 61c-1.55 0-2.8-1.25-2.8-2.8v-2c0 1.55 1.25 2.8 2.8 2.8h50.4c1.55 0 2.8-1.25 2.8-2.8v2c0 1.55-1.25 2.8-2.8 2.8h-25.2z" opacity=".2"/><path d="m32 4h-25.2a2.794 2.794 0 0 0 -2.8 2.8v25.2h28z" fill="#cf4f8c"/><path d="m32 4h25.2c1.551 0 2.8 1.249 2.8 2.8v25.2h-28z" fill="#c72566"/><path d="m32 60h-25.2a2.794 2.794 0 0 1 -2.8-2.8v-25.2h28z" fill="#6655e4"/><path d="m32 60h25.2c1.551 0 2.8-1.249 2.8-2.8v-25.2h-28z" fill="#cf4f8c"/><path d="m6.8 4c-1.55 0-2.8 1.25-2.8 2.8v1c0-1.55 1.25-2.8 2.8-2.8h50.4c1.55 0 2.8 1.25 2.8 2.8v-1c0-1.55-1.25-2.8-2.8-2.8z" fill="#f4f4f7" opacity=".2"/><path d="m12 12h40v40h-40z" fill="#17191e"/><g fill="none" stroke-linecap="round" stroke-width="4"><path d="m18 47h16" opacity=".2" stroke="#000"/><path d="m18 46h16" stroke="#f4f4f7"/><path d="m18 35s8.088.7 8-8c-.087-8.701-8-8-8-8m-.028 15.987v-16" opacity=".2" stroke="#000" stroke-linejoin="bevel"/><path d="m18 34s8.088.7 8-8c-.087-8.7-8-8-8-8m-.028 15.987v-16" stroke="#f4f4f7" stroke-linejoin="bevel"/><path d="m34 19h8m-4 16v-16" opacity=".2" stroke="#000"/><path d="m34 18h8m-4 16v-16" stroke="#f4f4f7"/></g></svg>