<svg xmlns="http://www.w3.org/2000/svg" width="64" height="64"><path style="opacity:.2" d="M38.818 5c-5.001 0-9.783 2.574-15.145 5.512A24 24 0 0 1 32.001 9a24 24 0 0 1 21.864 14.176l5.984-3.324c-.047-.108-.093.106-.14 0C53.528 11.147 46.385 5 38.817 5zM9.86 42.203l-5.793 3.129C10.042 54.489 16.898 61 24.638 61c4.947 0 10.136-2.481 15.797-5.547A24 24 0 0 1 32 57a24 24 0 0 1-22.14-14.797z"/><path style="fill:#17191e" d="m20.635 11.163 9.672 18.99-26.238 14.18C10.043 53.489 16.896 60 24.637 60c5.976 0 12.262-3.573 19.368-7.49l-10.63-18.957 26.472-14.702c-.047-.107-.092.106-.14 0C53.527 10.146 46.387 4 38.82 4c-5.935 0-11.51 3.595-18.184 7.163z"/><path style="opacity:.1;fill:#f4f4f7" d="M38.818 4c-5.935 0-11.51 3.597-18.183 7.164l.398.783C27.525 8.454 33.006 5 38.818 5c7.375 0 14.343 5.843 20.412 14.195l.62-.343c-.047-.108-.093.106-.141 0C53.529 10.147 46.386 4 38.819 4zm-9.312 26.586L4.068 44.332c.165.252.334.488.502.729l24.936-13.475.4.783.4-.217-.8-1.566zm4.726 4.492-.855.477.428.761.427-.238 9.344 16.668.43-.234-9.774-17.434z"/><circle style="opacity:.2" cx="32.001" cy="33" r="24"/><circle style="fill:#00e6ff" cx="32.001" cy="32" r="24"/><path style="fill:#00a6e2" d="M32.001 8a24 24 0 0 0-9.152 1.837c-.003.537.319 1.055.987 1.01 2.434-.161 2.473-.687 3.325.449.851 1.136.446 3.485-1.095 2.836-1.542-.65-4.097-1.743-4.746-.445-.65 1.298.286 1.623 1.544.852 1.257-.77 2.27-.405 2.513.853.243 1.257.164 3.69-1.216 3.243-1.379-.447-1.827.242-1.016.931.81.69-.081 1.096-1.34.569-1.257-.527-1.217 1.095-2.92 1.013-1.704-.081-1.825 1.784-2.352 2.473-.528.69-.611 2.921-.733 3.448-.122.527-.648.934-.932-.73-.283-1.662.084-2.394-1.418-2.516-1.5-.121-3.003 3.031-2.232 3.706.77.675 1.825-.622 1.743.352-.08.974-.606 5.392.976 5.596 1.581.203 2.637.04 3.934.893 1.298.852 3.731.93 5.476 3.689 1.745 2.758 3.775 3.08 5.722 3.527 1.948.447 1.743 1.543.73 3.003-1.015 1.46-.446 2.96-3.853 4.096-3.408 1.134-3.652 3.975-3.53 4.502.012.057-.071.426-.127.742A24 24 0 0 0 32.001 56a24 24 0 0 0 17.004-7.087c-.548-1.748-1.135-4.152-1.154-5.174-.042-2.148.568-2.31-.202-3.73-.771-1.42-2.355-.042-5.438-.447-3.083-.407-2.596-2.351-4.746-5.028-2.15-2.676 1.99-4.868 3.126-7.626.961-2.334 4.63-1.938 6.407-1.637l3.267-1.69c.16-.132.31-.26.507-.405 2.313-1.704-1.133-1.742-2.066-2.39-.933-.65-.813-.082-1.503.77-.689.852-1.745-.65-2.677-1.137-.934-.486-1.134 1.134-2.23 3-1.094 1.866-1.745 1.014-2.719 0-.974-1.014-.366-1.906.648-2.312 1.014-.405 1.097-.566.366-1.377-.73-.81-1.056-.487-.325-1.136.73-.649 1.178-.568 2.76-1.541 1.582-.974-.244-1.865-1.298-1.155-1.055.71-2.394-1.441-2.678-3.252-.284-1.81.567-1.232 1.541-1.88.137-.092.067-.639-.073-1.172A24 24 0 0 0 32 8zM30.74 9.397c1.475.056 3.165.594 2.669 2.177-.65 2.068-.712 1.458-1.46 1.907-.808.486-1.218.81-1.907 1.785-.689.973-2.27.77-1.4-.285.871-1.055.549-3.893.061-4.664 0 0-.648-.609.812-.852a6.91 6.91 0 0 1 1.225-.067zm-20.107 11.78c-.285.555-.553 1.137-.823 1.715A24 24 0 0 0 8 32a24 24 0 0 0 1.046 6.929l4.026-1.837c.072-.714.468-.908.62-1.06.286-.284-1.905-1.46-1.825-4.299.08-2.838-2.313-2.19-1.866-5.191.383-2.574.878-4.367.63-5.364zM13.78 39.96l-3.595 1.922-.167-.328a24 24 0 0 0 9.615 10.98l.106-.442s-2.19-2.92-2.394-4.907c-.203-1.987-1.666-3.083-3.37-6.774-.073-.16-.132-.303-.195-.451z"/><path style="opacity:.1" d="M32.002 8a24 24 0 0 0-9.152 1.836c-.002.344.145.664.416.85A24 24 0 0 1 32.002 9a24 24 0 0 1 8.516 1.594c.018.068.02.125.035.193.013-.008.025-.012.039-.021.136-.092.065-.639-.074-1.172A24 24 0 0 0 32.002 8zm-3.143 2.662c-.543.28-.156.656-.156.656.223.353.406 1.144.461 1.995.074-.965-.076-2.027-.305-2.65zm4.55.912c-.65 2.068-.713 1.457-1.46 1.906-.808.486-1.219.812-1.908 1.786-.362.512-.964.69-1.334.6-.024.035-.04.082-.066.114-.87 1.055.71 1.26 1.4.286s1.1-1.3 1.908-1.786c.747-.449.81.162 1.46-1.906.123-.396.11-.726 0-1zm5.642 1.072c-.067.212-.076.518 0 1 .283 1.81 1.623 3.963 2.678 3.252.507-.341 1.184-.308 1.584-.078.97-.873-.616-1.574-1.584-.922-1.055.71-2.395-1.441-2.678-3.252zm-16.352.44c-.625-.036-1.135.113-1.379.6-.28.56-.254.929-.045 1.117.018-.041.024-.074.045-.117.348-.695 1.243-.696 2.235-.456.693-.207 1.258-.016 1.58.524.324.128.655.262.931.379 1.193.502 1.696-.79 1.473-1.926-.148.74-.637 1.278-1.473.926-.963-.406-2.324-.987-3.367-1.047zm2.752 4.074c-.096.948-.449 1.747-1.289 1.475-1.357-.44-1.807.22-1.05.898.24-.062.588-.048 1.05.102 1.139.368 1.372-1.2 1.29-2.475zm14.914 2.361c-.034.028-.064.042-.1.073-.73.649-.404.326.327 1.136.055.062.073.098.119.153.503-.272.46-.51-.12-1.153-.089-.099-.15-.14-.226-.209zm-18.976.51c-.858-.043-1.014 1.189-2.504 1.117-1.705-.081-1.825 1.784-2.352 2.473-.527.69-.61 2.922-.732 3.45-.122.526-.648.932-.932-.731-.284-1.663.083-2.396-1.418-2.518-1.408-.114-2.818 2.654-2.351 3.555.28-1.148 1.307-2.64 2.351-2.555 1.501.122 1.134.855 1.418 2.518.284 1.663.81 1.257.932.73.121-.527.205-2.76.732-3.449.527-.689.647-2.554 2.352-2.473 1.703.082 1.664-1.54 2.922-1.013 1.257.527 2.148.12 1.338-.569a1.565 1.565 0 0 1-.19-.197c-.295.022-.696-.045-1.148-.234a1.248 1.248 0 0 0-.418-.104zm22.818.301c-.679.01-.951 1.453-1.91 3.086-1.095 1.866-1.745 1.014-2.719 0a1.927 1.927 0 0 1-.353-.504c-.23.425-.185.943.353 1.504.974 1.014 1.624 1.866 2.719 0 1.096-1.866 1.295-3.486 2.228-3 .933.487 1.989 1.989 2.678 1.137.69-.852.57-1.419 1.504-.77.546.38 1.93.557 2.54.975 1.225-1.296-1.691-1.384-2.54-1.975-.934-.649-.815-.082-1.504.77-.689.852-1.745-.65-2.678-1.137a.667.667 0 0 0-.318-.086zm-33.574.846c-.285.554-.554 1.135-.824 1.713A24 24 0 0 0 8.002 32a24 24 0 0 0 .025.463A24 24 0 0 1 9.81 23.89c.27-.578.539-1.16.824-1.713.013.055.016.122.025.181.04-.46.052-.872-.025-1.181zM9.986 27.7c-.333 2.81 1.962 2.247 1.883 5.031-.054 1.92.898 3.033 1.453 3.67.136-.184.289-.288.371-.37.285-.284-1.904-1.461-1.824-4.3.068-2.395-1.62-2.314-1.883-4.03zm2.918.877c-.054.62-.11 1.415-.078 2.29.027-.865.107-1.644.135-1.987.014-.163-.013-.247-.057-.303zm24.018 4.889c-.149.668-.034 1.349.543 2.066 2.15 2.677 1.663 4.623 4.746 5.03 3.083.405 4.667-.974 5.437.447.185.34.288.605.342.845.084-.6.101-1.03-.342-1.845-.77-1.42-2.354-.042-5.437-.447-3.083-.407-2.596-2.353-4.746-5.03a2.68 2.68 0 0 1-.543-1.066zm-23.143 6.492-3.595 1.924-.166-.33a24 24 0 0 0 .554 1.12l3.207-1.714c.064.148.122.292.196.451 1.703 3.69 3.165 4.787 3.369 6.774.137 1.338 1.149 3.039 1.812 4.046a24 24 0 0 0 .477.303l.105-.441s-2.19-2.92-2.394-4.908c-.204-1.987-1.666-3.083-3.37-6.774-.073-.16-.131-.303-.195-.451zm16.66 3.437c-.123.362-.339.758-.64 1.192-1.014 1.46-.446 2.96-3.854 4.096-3.408 1.134-3.65 3.976-3.529 4.504.013.056-.072.424-.127.74a24 24 0 0 0 .11.043c-.03-.831.448-3.256 3.546-4.287 3.408-1.136 2.84-2.637 3.854-4.096.617-.888.925-1.637.64-2.192zm17.432.514a9.481 9.481 0 0 0-.02.828c.017.878.454 2.762.924 4.389a24 24 0 0 0 .23-.213c-.523-1.673-1.07-3.916-1.134-5.004z"/><path style="opacity:.1;fill-rule:evenodd" d="M53.638 13.446c1.416 1.996.404 4.416 1.227 6.543 1.367 1.129.777 1.475-.516 2.035-11.184 6.018-22.318 12.14-33.55 18.062-2.048.882-.404 2.33.991 1.223l36.45-16.367c-1.29-1.526 1.445-2.315 1.761-3.55.04-2.396-2.2-3.901-3.558-5.595-.868-.862-1.82-1.63-2.805-2.351zm-9.414 10.293c-2.06.369-3.88 1.56-5.824 2.324L6.26 40.493c1.664 2.52-5.402 3.264-.497 6.363 1.316 2.014 3.16 3.662 5.086 5.082-1.4-1.98-.428-4.374-1.207-6.492-1.338-1.145-.732-1.501.55-2.055 11.17-6.01 22.288-12.12 33.505-18.039.522-.218 1.792-1.444.527-1.613z"/><path style="fill:#f4f4f7;fill-rule:evenodd" d="M16.743 35.076 7.09 39.524l1.776 3.114 9.23-4.893zM47.84 28.307l9.653-4.448-1.776-3.113-9.23 4.892z"/><path style="fill:#616161;fill-rule:evenodd" d="M53.636 12.443c1.416 1.996.404 4.417 1.227 6.544 1.367 1.129.778 1.478-.516 2.038-11.183 6.018-22.315 12.138-33.549 18.06-2.047.882-.404 2.332.991 1.225l36.449-16.367c-1.289-1.525 1.447-2.317 1.763-3.553.04-2.394-2.202-3.899-3.56-5.592-.868-.863-1.82-1.633-2.805-2.355zm2.081 8.608 1.339 2.687-8.525 4.006c-1.4-.834-1.396-2.86.31-3.129zm-11.493 1.686c-2.059.369-3.882 1.56-5.826 2.325L6.261 39.493c1.665 2.52-5.402 3.265-.497 6.363 1.316 2.014 3.158 3.661 5.084 5.08-1.401-1.98-.426-4.372-1.205-6.49-1.338-1.145-.733-1.502.55-2.055C21.362 36.38 32.48 30.272 43.698 24.353c.521-.218 1.791-1.447.526-1.616zM15.968 35.696c1.396.836 1.392 2.858-.313 3.129l-6.877 3.563-1.338-2.686z"/></svg>