<svg height="64" width="64" xmlns="http://www.w3.org/2000/svg"><path d="m12 28.8v29.343a2.85 2.85 0 0 0 2.857 2.857h34.286a2.85 2.85 0 0 0 2.857-2.857v-29.343z" opacity=".2"/><path d="m12 27.8v29.343a2.85 2.85 0 0 0 2.857 2.857h34.286a2.85 2.85 0 0 0 2.857-2.857v-29.343z" fill="#599124"/><path d="m6.8 4a2.794 2.794 0 0 0 -2.8 2.8v22.2h56v-22.2c0-1.551-1.249-2.8-2.8-2.8z" fill="#7ec242"/><path d="m4 29h56v1h-56z" opacity=".2"/><path d="m6.8 4c-1.55 0-2.8 1.25-2.8 2.8v1c0-1.55 1.25-2.8 2.8-2.8h50.4c1.55 0 2.8 1.25 2.8 2.8v-1c0-1.55-1.25-2.8-2.8-2.8z" fill="#f4f4f7" opacity=".2"/></svg>