<svg height="64" width="64" xmlns="http://www.w3.org/2000/svg"><path d="m37.071 8.001c-1.815.25-35.071 41.206-35.071 41.206s2.39.681 7.836 1.473c1.768-1.38 26.545-43.32 27.298-42.66-.013-.017-.034-.023-.063-.019z" opacity=".2"/><path d="m37.134 8.02c-.064-.019-27.298 42.66-27.298 42.66-2.376 3.92-4.276 7.072-4.276 7.072s25.55 1.155 45.417-1.518c28.27-3.803-5.811-40.047-13.842-48.214z" opacity=".2"/><path d="m37.134 7.02c-.064-.019-27.298 42.66-27.298 42.66-2.376 3.92-4.276 7.072-4.276 7.072s25.55 1.155 45.417-1.518c28.27-3.803-5.811-40.047-13.842-48.214z" fill="#7f7fff"/><path d="m37.104 8.005c-1.143-.185-27.268 42.675-27.268 42.675s24.69 1.485 34.414 1.32c27.535-.467-.762-35.549-7.116-43.98a.051.051 0 0 0 -.03-.015z" opacity=".1"/><path d="m37.071 7.001c-1.815.25-35.071 41.206-35.071 41.206s2.39.681 7.836 1.473c1.768-1.38 26.545-43.32 27.298-42.66-.013-.017-.034-.023-.063-.019z" fill="#ff7f7f"/><path d="m37.072 7.002c-1.815.25-35.072 41.205-35.072 41.205s.522.118.686.16c2.042-2.513 32.63-40.124 34.386-40.365.012-.002.016.006.026.008.001 0 .004-.004.006-.004a.05.05 0 0 1 .029.014c5.667 5.763 24.307 25.508 24.851 37.968.476-12.376-19.03-33.048-24.851-38.968a.05.05 0 0 0 -.03-.014l-.005.004c-.01-.002-.014-.01-.026-.008zm-27.787 43.59c-1.943 3.208-3.726 6.16-3.726 6.16s.534.017.593.02c.43-.714 1.637-2.716 3.684-6.092-.213-.031-.347-.058-.55-.088z" fill="#f4f4f7" opacity=".2"/><path d="m37.104 7.005c-1.143-.185-27.268 42.675-27.268 42.675s24.69 1.485 34.414 1.32c27.535-.467-.762-35.549-7.116-43.98a.051.051 0 0 0 -.03-.015z" fill="#7f3fbf"/></svg>