<svg xmlns="http://www.w3.org/2000/svg" width="64" height="64" version="1"><rect style="opacity:.2" width="56" height="56" x="4" y="5" rx="2.8" ry="2.8"/><rect style="fill:#3c4164" width="56" height="56" x="4" y="4" rx="2.8" ry="2.8"/><path style="opacity:.2" d="M42.257 17.653C44.932 14.978 45.29 11 45.29 11s-3.978.358-6.653 3.033c-2.675 2.675-1.88 3.5-.88 4.5 1 1 1.825 1.795 4.5-.88z"/><path style="fill:#ff6a5b" transform="scale(1 -1) rotate(-45)" d="M23.95-1.54h11.772v.861H23.95z"/><path style="fill:#5f5f5f" d="m25.102 26.702.851 1.658-.807.808 3.229 3.229 6.487-6.645 2.728-6.02c.447-.792.395-.854-.207-1.456l-.467-.467c-.637-.624-.493-.406-1.208-.201l-3.568 2.057z"/><path style="fill:#797979" d="m15.115 16.596 14.748 14.748 5.871-6.044L19.62 12.093z"/><rect style="opacity:.2" width="3.359" height="10.498" x="23.13" y="-4.34" rx="1.712" ry="1.712" transform="scale(1 -1) rotate(-45)"/><rect style="fill:#959595" width="3.359" height="10.498" x="22.42" y="-3.64" rx="1.712" ry="1.712" transform="scale(1 -1) rotate(-45)"/><path style="fill:#ff5722" d="M42.257 16.653C44.932 13.978 45.29 10 45.29 10s-3.978.358-6.653 3.033c-2.675 2.675-1.88 3.5-.88 4.5 1 1 1.825 1.795 4.5-.88z"/><path style="fill:#ffee58" d="M37.757 17.534c-.556-.555-1.023-1.069-.892-1.864.024-.024.038-.044.063-.069 1.962-1.962 4.88-2.226 4.88-2.226s-.263 2.919-2.225 4.881c-.084.084-.152.137-.23.211-.65-.002-1.103-.44-1.596-.933z"/><rect style="opacity:.2" width="3.359" height="10.498" x="33.53" y="-3.2" rx="1.712" ry="1.712" transform="scale(1 -1) rotate(-45)"/><rect style="fill:#959595" width="3.359" height="10.498" x="32.82" y="-2.5" rx="1.712" ry="1.712" transform="scale(1 -1) rotate(-45)"/><path style="fill:#ff6a5b" transform="rotate(-135)" d="M-66.56-1.54h11.772v.861H-66.56z"/><path style="opacity:.2" d="M47.347 22.743C50.022 20.068 54 19.71 54 19.71s-.358 3.978-3.033 6.653c-2.675 2.675-3.5 1.88-4.5.88-1-1-1.795-1.825.88-4.5z"/><path style="fill:#5f5f5f" d="m37.298 38.898-1.658-.851-.808.807-3.229-3.229 6.645-6.487 6.02-2.728c.792-.447.854-.395 1.456.207l.467.467c.624.637.406.493.201 1.208l-2.057 3.568z"/><rect style="opacity:.2" width="3.359" height="10.498" x="-68.79" y="-4.34" rx="1.712" ry="1.712" transform="rotate(-135)"/><path style="fill:#797979" d="M47.404 48.885 32.656 34.137l6.044-5.871L51.907 44.38z"/><path style="opacity:.2" d="M10.564 54.85c.357.264 1.05.201 1.961-.357l8.616-7.513s3.065-.906 4.13-2.005c1.026-1.057 1.806-4.031 1.806-4.031l4.336-.319 8.173-8.614-.885-2.745 2.718-2.901-1.392-1.392-1.392-1.392-2.9 2.718-2.746-.885-8.614 8.173-.319 4.336s-2.974.78-4.031 1.805c-1.099 1.066-2.005 4.13-2.005 4.13l-7.513 8.617c-.558.91-.62 1.604-.356 1.961.06.08.151.126.243.17.044.092.09.183.17.243z"/><rect style="fill:#959595" width="3.359" height="10.498" x="-68.09" y="-3.64" rx="1.712" ry="1.712" transform="rotate(-135)"/><path style="fill:#959595" d="M10.564 53.85c.357.264 1.05.201 1.961-.357l8.616-7.513s3.065-.906 4.13-2.005c1.026-1.057 1.806-4.031 1.806-4.031l4.336-.319 8.173-8.614-.885-2.745 2.718-2.901-1.392-1.392-1.392-1.392-2.9 2.718-2.746-.885-8.614 8.173-.319 4.336s-2.974.78-4.031 1.805c-1.099 1.066-2.005 4.13-2.005 4.13l-7.513 8.617c-.558.91-.62 1.604-.356 1.961.06.08.151.126.243.17.044.092.09.183.17.243z"/><path style="opacity:.4" d="M21.975 44.737c.467-.19 1.68-1.34 2.082-1.571l-3.223-3.223c-.231.403-1.382 1.615-1.57 2.082-.628 1.49 1.47 3.345 2.71 2.712z"/><path style="fill:#ff5722" d="M47.347 21.743C50.022 19.068 54 18.71 54 18.71s-.358 3.978-3.033 6.653c-2.675 2.675-3.5 1.88-4.5.88-1-1-1.795-1.825.88-4.5z"/><path style="fill:#ffee58" d="M46.466 26.243c.555.556 1.069 1.023 1.864.892.024-.024.044-.038.069-.063 1.962-1.962 2.226-4.88 2.226-4.88s-2.919.263-4.881 2.225c-.084.084-.137.152-.211.23.002.65.44 1.103.933 1.596z"/><rect style="opacity:.2" width="3.359" height="10.498" x="-58.4" y="-3.2" rx="1.712" ry="1.712" transform="rotate(-135)"/><rect style="fill:#959595" width="3.359" height="10.498" x="-57.69" y="-2.5" rx="1.712" ry="1.712" transform="rotate(-135)"/><path style="opacity:.2;fill:#f4f4f7" d="m27.077 39.944-3.02-3.021 11.677-11.624 4.228-1.261-1.26 4.228z"/><path style="opacity:.1;fill:#f4f4f7" d="M6.8 4C5.25 4 4 5.25 4 6.8v1C4 6.25 5.25 5 6.8 5h50.4C58.75 5 60 6.25 60 7.8v-1C60 5.25 58.75 4 57.2 4H6.8z"/></svg>