<svg height="64" width="64" xmlns="http://www.w3.org/2000/svg"><rect height="55" opacity=".2" rx="2.75" transform="matrix(0 -1 -1 0 0 0)" width="55" x="-60" y="-59"/><rect fill="#4f4f4f" height="55" rx="2.75" transform="matrix(0 -1 -1 0 0 0)" width="55" x="-59" y="-59"/><path d="m10 12v41h7v-33h36v-8h-37zm12 13v16h7v-16zm12 0v21h-12v7h19v-28zm12 0v28h7v-28z" opacity=".2"/><path d="m10 11v41h7v-33h36v-8h-37zm12 13v16h7v-16zm12 0v21h-12v7h19v-28zm12 0v28h7v-28z" fill="#3693ee"/><path d="m6.75 4a2.744 2.744 0 0 0 -2.75 2.75v1a2.744 2.744 0 0 1 2.75-2.75h49.5a2.744 2.744 0 0 1 2.75 2.75v-1a2.744 2.744 0 0 0 -2.75-2.75zm3.25 7v1h43v-1zm12 13v1h7v-1zm12 0v1h7v-1zm12 0v1h7v-1zm-24 21v1h12v-1z" fill="#f4f4f7" opacity=".1"/></svg>