<svg height="64" width="64" xmlns="http://www.w3.org/2000/svg"><path d="m4.05 32c-.011.334-.05.662-.05 1 0 15.512 12.488 28 28 28 15.511 0 28-12.488 28-28 0-.337-.04-.665-.052-1-.528 15.042-12.775 27-27.95 27-15.172 0-27.419-11.958-27.948-27z" opacity=".2"/><rect fill="#f18d00" height="56" rx="28" width="56" x="4" y="4"/><path d="m51.997 26.936c-3.747-15.844-18.143-15.712-26.835-11.575-9.147 4.624-15.772 16.471-12.159 26.393 5.584 14.968 26.138 14.744 33.094.824 2.064-5.103 3.58-8.727-2.098-13.577v6l-2-4s-1.775 4.196-3.66 6.11c-2.625 2.661-6.34 1.89-6.34 1.89.7 2.65 6 4 6 4-13.755 6.51-14.158-4.37-14-7 .45-7.57 6.536-13.443 14.553-13.022 2.556.196 7.446 2.022 7.446 2.022-1.84-4.21-4.46-5.212-6-6 6.036-1.996 9.258 4.306 12 7.934z" fill-rule="evenodd" opacity=".2"/><g fill="#f4f4f7"><path d="m51.997 25.937c-3.747-15.845-18.143-15.713-26.835-11.577-9.147 4.624-15.772 16.472-12.159 26.395 5.584 14.967 26.138 14.743 33.094.823 2.064-5.103 3.58-8.727-2.098-13.577v6l-2-4s-1.775 4.196-3.66 6.11c-2.625 2.661-6.34 1.89-6.34 1.89.7 2.65 6 4 6 4-13.755 6.51-14.158-4.37-14-7 .45-7.57 6.536-13.443 14.553-13.022 2.556.196 7.446 2.022 7.446 2.022-1.84-4.21-4.46-5.212-6-6 6.036-1.996 9.258 4.306 12 7.935z" fill-rule="evenodd"/><path d="m32 4c-15.512 0-28 12.488-28 28 0 .114.011.224.018.336.351-15.202 12.692-27.336 27.982-27.336s27.63 12.134 27.982 27.336c.007-.112.018-.222.018-.336 0-15.512-12.488-28-28-28z" opacity=".2"/></g></svg>