<svg height="64" width="64" xmlns="http://www.w3.org/2000/svg">
    <path d="M32 5.002A27.936 27.936 0 0 0 4.003 33C4.002 48.512 16.489 61 32 61s28-12.488 28-28C60 17.49 47.511 5.003 32 5.003z" opacity=".2"/>
    <path d="M32 4.002C16.49 4.002 4.003 16.489 4.003 32S16.49 60 32.002 60a27.94 27.94 0 0 0 28-28C60 16.489 47.511 4 32 4z" fill="#fead38"/>
    <path d="M32.436 4.013A42.005 42.03 0 0 0 5.48 40.96a27.897 27.897 0 0 0 8.359 12.36 42.005 42.03 0 0 1-.039-1.682A42.005 42.03 0 0 1 49.484 10.12a27.884 27.884 0 0 0-17.048-6.108z" fill="#17191e"/>
    <path d="M52.64 13.09A42.005 42.03 0 0 0 18 54.433a42.005 42.03 0 0 0 .096 1.873 27.786 27.786 0 0 0 8.474 3.17 42.005 42.03 0 0 1 31.61-37.362 27.857 27.857 0 0 0-5.542-9.024z" fill="#17191e"/>
    <path d="M32 4.002A27.936 27.936 0 0 0 4.002 32c0 .11.01.216.016.324C4.375 17.128 16.715 5 32 5c15.289 0 27.63 12.135 27.982 27.336.007-.112.018-.223.018-.336A27.938 27.938 0 0 0 32 4.002z" fill="#f4f4f7" opacity=".2"/>
    <circle cx="39.001" cy="36.001" opacity=".2" r="11"/>
    <circle cx="56" cy="29.001" opacity=".2" r="8"/>
    <circle cx="39.001" cy="35.001" fill="#f4f4f7" r="11"/>
    <circle cx="37.001" cy="39.001" fill="#17191e" r="5"/>
    <circle cx="56" cy="28.001" fill="#f4f4f7" r="8"/>
    <circle cx="54" cy="30.001" fill="#17191e" r="4"/>
    <path d="M48 54.334S44.42 57 40 57c-4.417 0-8-5.054-8-8 0 0 4.241 3.09 6.667 4C43.255 54.721 48 54.334 48 54.334z" opacity=".1"/>
    <path d="M48 53.334S44.42 56 40 56c-4.417 0-8-5.054-8-8 0 0 4.241 3.09 6.667 4C43.255 53.721 48 53.334 48 53.334z" fill="#17191e"/>
    <path d="M15.81 40.463c6.16-2.943 11.598-1.305 12.146 3.658.549 4.962-4 11.371-10.16 14.314S.57 52.102.023 47.14c-.548-4.963 9.627-3.733 15.787-6.676z" opacity=".2"/>
    <g fill="#f4f4f7">
        <path d="M15.81 39.463c6.16-2.943 11.598-1.305 12.146 3.658.549 4.963-4 11.371-10.16 14.314S.57 51.102.023 46.14c-.548-4.963 9.627-3.733 15.787-6.676z"/>
        <path d="M21.494 38.002c-1.719.023-3.662.493-5.683 1.459C9.65 42.404-.527 41.178.02 46.14c.004.036.02.076.026.113.728-3.933 10.002-3.04 15.764-5.793 2.31-1.104 4.519-1.56 6.406-1.441 3.145.197 5.4 2 5.742 5.101.011.104.007.212.014.316a7.735 7.735 0 0 0-.014-1.316c-.343-3.102-2.597-4.904-5.742-5.101a9.506 9.506 0 0 0-.723-.018z" opacity=".2"/>
    </g>
</svg>
