<svg xmlns="http://www.w3.org/2000/svg" width="64" height="64"><g transform="matrix(.07871 0 0 .07871 -13.604 26.114)"><path style="opacity:.2" d="M642.869-280.938c-153.462 0-279.503 126.13-279.503 279.703V-1.085c.036 20.228 7.36 39.29 11.712 58.95L267.684 217.73c-12.773 15.693-24.36 35.357-28.982 58.255-5.256 26.04-.825 49.905 4.516 67.94l.05.149.05.198c16.154 53.734 69.435 99.417 120.892 108.415 22.716 4.419 50.755 5.325 75.533-4.023 25.364-9.568 39.99-23.313 52.308-34.069l157.468-137.468C799.779 273.344 922.37 149.984 922.37-1.235c0-153.572-126.04-279.703-279.502-279.703z"/><path style="fill:#f16d00" d="M642.869-293.642c-153.462 0-279.503 126.13-279.503 279.703V-13.79c.036 20.23 7.36 39.29 11.712 58.95L267.684 205.026c-12.773 15.693-24.36 35.357-28.982 58.255-5.256 26.04-.825 49.905 4.516 67.94l.05.148.05.199c16.154 53.734 69.435 99.417 120.892 108.415 22.716 4.418 50.755 5.325 75.533-4.023 25.364-9.569 39.99-23.314 52.308-34.069l157.468-137.468C799.779 260.64 922.37 137.28 922.37-13.939c0-153.572-126.04-279.703-279.502-279.703z"/><path style="fill:#325481" d="M471.48 38.144 329.753 249.056c-18.54 20.68-20.442 36.308-13.411 60.034 10.278 34.164 30.591 50.742 61.405 55.74 30.517 6.25 41.774-1.284 64.216-20.867l197.119-172 4.366 3.121z"/><circle style="opacity:.2" cx="642.879" cy="-1.446" r="203.267"/><circle style="fill:#bfbfbf" cx="642.879" cy="-14.15" r="203.267"/><path style="opacity:.4" d="m468.324-119.06-9.954 20.116c10.034 75.237 34.752 128.2 86.085 174.42 48.788 43.928 116.724 72.547 204.878 83.778l23.251-16.651C680.398 132.99 604.72 104.587 556.977 61.6c-47.742-42.987-79.07-108.808-88.653-180.66z"/><path style="opacity:.2;fill:#f4f4f7" transform="translate(172.823 -331.755) scale(12.7042)" d="M37 3c-12.08 0-22.002 9.93-22.002 22.018v.011c0 .08.017.157.02.237C15.419 13.52 25.172 4 37 4c11.916 0 21.725 9.663 21.988 21.53.004-.172.012-.34.012-.512C59 12.929 49.08 3 37 3zM15.734 29.943 7.467 42.252c-1.006 1.235-1.918 2.783-2.281 4.586a9.629 9.629 0 0 0-.168 2.385c.022-.451.072-.913.168-1.385.363-1.803 1.275-3.35 2.28-4.586l8.454-12.584c-.054-.244-.123-.483-.186-.725z"/><path style="opacity:.2;fill:#f4f4f7" transform="translate(172.823 -331.755) scale(12.7042)" d="M37 9a16 16 0 0 0-16 16 16 16 0 0 0 .021.58A16 16 0 0 1 37 10a16 16 0 0 1 15.979 15.42A16 16 0 0 0 53 25 16 16 0 0 0 37 9z"/></g></svg>