<svg height="64" width="64" xmlns="http://www.w3.org/2000/svg">
    <rect height="34" opacity=".2" ry="4" width="34" x="4" y="6"/>
    <rect fill="#f5e03a" height="34" ry="4" width="34" x="4" y="5"/>
    <rect height="34" opacity=".2" ry="11.333" width="34" x="14" y="14"/>
    <rect fill="#f98413" height="34" ry="11.333" width="34" x="14" y="13"/>
    <circle cx="43" cy="42" opacity=".2" r="17"/>
    <circle cx="43" cy="41" fill="#a821a3" r="17"/>
    <g fill="#f4f4f7">
        <path d="M8 5C5.784 5 4 6.784 4 9v1c0-2.216 1.784-4 4-4h26c2.216 0 4 1.784 4 4V9c0-2.216-1.784-4-4-4zm17.334 8A11.31 11.31 0 0 0 14 24.334v1A11.31 11.31 0 0 1 25.334 14h11.332A11.31 11.31 0 0 1 48 25.334v-1A11.31 11.31 0 0 0 36.666 13z" opacity=".2"/>
        <path d="M43 24a17 17 0 0 0-17 17 17 17 0 0 0 .021.58A17 17 0 0 1 43 25a17 17 0 0 1 16.979 16.42A17 17 0 0 0 60 41a17 17 0 0 0-17-17z" opacity=".2"/>
    </g>
</svg>
