<svg height="64" width="64" xmlns="http://www.w3.org/2000/svg"><path d="m7 4h50c1.662 0 3 1.338 3 3v43.171l-4.804 5.082c-1.141 1.208-4.223.188-5.183 1.545l-2.268 3.202h-40.745c-1.662 0-3-1.338-3-3v-50c0-1.662 1.338-3 3-3z" opacity=".2"/><path d="m60 31v18.735l-4.221 4.518c-1.135 1.215-2.245.677-3.437 1.836l-2.995 2.911h-19.347v-28z" fill="#666"/><path d="m4 29v27c0 1.662 1.338 3 3 3h25v-30z" fill="#8c8c8c"/><path d="m7 3c-1.662 0-3 1.338-3 3v25h30v-28z" fill="#a6a6a6"/><path d="m57 3c1.662 0 3 1.338 3 3v25h-28v-28z" fill="#595959"/><path d="m7 3c-1.662 0-3 1.338-3 3v1c0-1.662 1.338-3 3-3h50c1.662 0 3 1.338 3 3v-1c0-1.662-1.338-3-3-3z" fill="#f4f4f7" opacity=".2"/><circle cx="46" cy="47" opacity=".2" r="16"/><circle cx="46" cy="46" fill="#07ce8e" r="16"/><path d="m18 13v6h-6v2h6v6h2v-6h6v-2h-6v-6zm22 6v2h12v-2zm-27.523 21-1.477 1.479 5.523 5.521-5.523 5.521 1.477 1.479 5.521-5.523 5.523 5.523 1.479-1.479-5.525-5.521 5.525-5.521-1.479-1.479-5.523 5.523z" opacity=".2"/><path d="m18 12v6h-6v2h6v6h2v-6h6v-2h-6v-6zm22 6v2h12v-2zm-27.523 21-1.477 1.479 5.523 5.521-5.523 5.521 1.477 1.479 5.521-5.523 5.523 5.523 1.479-1.479-5.525-5.521 5.525-5.521-1.479-1.479-5.523 5.523zm27.523 3v2h12v-2zm0 6v2h12v-2z" fill="#f4f4f7"/></svg>