<svg height="64" viewBox="0 0 16.933 16.933" width="64" xmlns="http://www.w3.org/2000/svg">
    <filter id="a" color-interpolation-filters="sRGB" height="1.054" width="1.054" x="-.027" y="-.027">
        <feGaussianBlur stdDeviation=".619"/>
    </filter>
    <linearGradient id="b" gradientUnits="userSpaceOnUse" x1="1.191" x2="15.742" y1="15.74" y2="1.188">
        <stop offset="0" stop-color="#02db96"/>
        <stop offset="1" stop-color="#13d39b"/>
    </linearGradient>
    <rect fill="#141414" filter="url(#a)" height="55" opacity=".3" ry="15" transform="matrix(.26458 0 0 .26458 .798 .798)" width="55" x="1.485" y="1.485"/>
    <rect fill="url(#b)" height="14.552" ry="3.969" width="14.552" x="1.191" y="1.191"/>
    <g stroke-width="1.162">
        <path d="M8.466 6.476c.56 0 1.014.454 1.014 1.014v4.593a1.014 1.014 0 0 1-2.027 0V7.49c0-.56.454-1.014 1.013-1.014z" fill="#f0f0f0"/>
        <path d="M8.466 7.245c.24 0 .435.194.435.434v4.097a.435.435 0 0 1-.869 0V7.679c0-.24.195-.434.434-.434z" fill="#fa3232"/>
        <path d="M9.335 3.836v1.395l-.868.58-.87-.58V3.838A2.026 2.026 0 0 0 6.44 5.665a2.027 2.027 0 1 0 2.895-1.829z" fill="#fff"/>
    </g>
</svg>
