<svg height="64" width="64" xmlns="http://www.w3.org/2000/svg">
    <circle cx="32" cy="33" opacity=".2" r="28"/>
    <circle cx="32" cy="32" fill="#143d4d" r="28"/>
    <path d="M32 4A28 28 0 0 0 4 32a28 28 0 0 0 .018.492A28 28 0 0 1 32 5a28 28 0 0 1 27.975 27.492A28 28 0 0 0 60 32 28 28 0 0 0 32 4z" fill="#f4f4f7" opacity=".1"/>
    <g fill="none" stroke-width="1.6">
        <path d="m33.4 32-7.41 8.053-.557 3.994L22 48" stroke="#c97335"/>
        <path d="m30.6 28.8-8.697 6.3h-4.366L14 38" stroke="#d59467"/>
        <path d="M32 30.6 14 46" stroke="#b95026"/>
    </g>
    <circle cx="14" cy="46" fill="#b95026" r="2"/>
    <circle cx="14" cy="38" fill="#d59467" r="2"/>
    <circle cx="22" cy="48" fill="#c97335" r="2"/>
    <path d="M57.535 7a2.487 2.445 0 0 0-.933.17L15.573 23.058a2.487 2.445 0 0 0 .651 4.705c4.285.445 9.498 3.685 13.47 7.952s6.602 9.55 6.683 12.897a2.487 2.445 0 0 0 4.738.981l18.65-39.11A2.487 2.445 0 0 0 57.534 7z" opacity=".2"/>
    <path d="M57.535 6a2.487 2.445 0 0 0-.933.17L15.573 22.058a2.487 2.445 0 0 0 .651 4.705c4.285.445 9.498 3.685 13.47 7.952s6.602 9.55 6.683 12.897a2.487 2.445 0 0 0 4.738.981l18.65-39.11A2.487 2.445 0 0 0 57.534 6z" fill="#37adba"/>
    <path d="M57.535 6a2.487 2.445 0 0 0-.933.168l-41.028 15.89a2.487 2.445 0 0 0-1.521 2.774 2.487 2.445 0 0 1 1.521-1.773L56.602 7.168A2.487 2.445 0 0 1 57.535 7a2.487 2.445 0 0 1 2.41 1.95A2.487 2.445 0 0 0 57.535 6z" fill="#f4f4f7" opacity=".2"/>
</svg>
