<svg xmlns="http://www.w3.org/2000/svg" height="64" width="64">
    <path style="opacity:.2" d="M11 43s5 0 9-3 5-14 5-14-2-3-4-5c-1.581-1.581-6-1-6-1l4-8s1 1 3 2l8 1 13 20s-1 1 0 5 3 6 3 6l-11 2s1-3 1-6c0-4-2-3-2-3s-6.878 1.158-12 5c-4 3-5 8-5 8z"/>
    <path style="fill:#0037d1" d="M11 42s5 0 9-3 5-14 5-14-2-3-4-5c-1.581-1.581-6-1-6-1l4-8s1 1 3 2l8 1 13 20s-1 1 0 5 3 6 3 6l-11 2s1-3 1-6c0-4-2-3-2-3s-6.878 1.158-12 5c-4 3-5 8-5 8z"/>
    <path style="opacity:.1;fill:#f4f4f7" d="m19 11-4 8s.272-.027.523-.049L19 12s1 1 3 2l8 1 12.725 19.576C42.85 34.158 43 34 43 34L30 14l-8-1c-2-1-3-2-3-2zm5.895 14.852C24.657 27.942 23.518 36.362 20 39c-4 3-9 3-9 3l.643.965c1.365-.088 5.119-.536 8.357-2.965 4-3 5-14 5-14l-.105-.148zm17.683 10.636c-.054.77.014 1.882.422 3.512.62 2.479 1.621 4.186 2.295 5.129L46 45s-2-2-3-6c-.256-1.025-.378-1.847-.422-2.512zm-6.596 4.98C35.888 44.305 35 47 35 47l.293-.053C35.589 45.822 36 43.954 36 42c0-.192-.009-.362-.018-.531z"/>
    <path style="opacity:.2" d="M24 28s-1-14 8-14c12 0 13 12 13 12s1 14-9 14c-11 0-12-12-12-12z"/>
    <path style="fill:#0849ff" d="M24 27s-1-14 8-14c12 0 13 12 13 12s1 14-9 14c-11 0-12-12-12-12z"/>
    <path style="opacity:.2;fill:#f4f4f7" d="M32 13c-8.112 0-8.1 11.282-8.02 13.525C24.001 22.998 24.744 14 32 14c12 0 13 12 13 12l.014.326C45.02 25.566 45 25 45 25s-1-12-13-12z"/>
    <path style="opacity:.2" d="M15 6c-7 0-8 8-8 8s0 8 5 8c8 0 8-8 8-8s1-8-5-8zm34 4a10 10 0 0 0-10 10 10 10 0 0 0 10 10 10 10 0 0 0 10-10 10 10 0 0 0-10-10zM11.76 42.18A4.022 4.022 0 0 0 9 43c-4 3-1 9-1 9s4.235 6.685 9 3c3.808-2.945 0-10 0-10s-2.487-2.635-5.24-2.82zM42 44a9 8 0 0 0-9 8 9 8 0 0 0 9 8 9 8 0 0 0 9-8 9 8 0 0 0-9-8z"/>
    <path style="fill:#225cff" d="M15 5c-7 0-8 8-8 8s0 8 5 8c8 0 8-8 8-8s1-8-5-8zm34 4a10 10 0 0 0-10 10 10 10 0 0 0 10 10 10 10 0 0 0 10-10A10 10 0 0 0 49 9zM11.76 41.18A4.022 4.022 0 0 0 9 42c-4 3-1 9-1 9s4.235 6.685 9 3c3.808-2.945 0-10 0-10s-2.487-2.635-5.24-2.82zM42 43a9 8 0 0 0-9 8 9 8 0 0 0 9 8 9 8 0 0 0 9-8 9 8 0 0 0-9-8z"/>
    <path style="opacity:.2;fill:#f4f4f7" d="M15 5c-7 0-8 8-8 8s.03.437.045.725C7.27 12.427 8.7 6 15 6c4.258 0 4.976 3.996 5.043 6.336C20.133 10.467 19.985 5 15 5zm34 4a10 10 0 0 0-10 10 10 10 0 0 0 .021.414A10 10 0 0 1 49 10a10 10 0 0 1 9.979 9.586A10 10 0 0 0 59 19 10 10 0 0 0 49 9zM11.76 41.18A4.022 4.022 0 0 0 9 42c-1.784 1.338-2.172 3.27-2.059 5.004.09-1.443.613-2.92 2.059-4.004a4.022 4.022 0 0 1 2.76-.82C14.513 42.365 17 45 17 45s1.483 2.747 1.672 5.53C18.854 47.446 17 44 17 44s-2.487-2.635-5.24-2.82zM42 43a9 8 0 0 0-9 8 9 8 0 0 0 .023.428A9 8 0 0 1 42 44a9 8 0 0 1 8.977 7.566A9 8 0 0 0 51 51a9 8 0 0 0-9-8z"/>
</svg>
