<svg height="64" width="64" xmlns="http://www.w3.org/2000/svg"><path d="m60 32v-19c0-1.662-1.338-3-3-3h-50c-1.662 0-3 1.338-3 3v38c0 1.662 1.338 3 3 3h31z" fill="#325f78"/><path d="m56 34.322v-20.322h-48v36h32z" opacity=".2"/><path d="m7 10c-1.662 0-3 1.338-3 3v1c0-1.662 1.338-3 3-3h50c1.662 0 3 1.338 3 3v-1c0-1.662-1.338-3-3-3z" fill="#f4f4f7" opacity=".1"/><path d="m60 32h-19.25a2.751 2.751 0 0 0 -2.75 2.75v19.25z" fill="#56839e"/><path d="m40.75 32a2.751 2.751 0 0 0 -2.75 2.75v1a2.751 2.751 0 0 1 2.75-2.75h18.25l1-1z" fill="#f4f4f7" opacity=".1"/><path d="m60 32-22 22h-31c-1.662 0-3-1.338-3-3v1c0 1.662 1.338 3 3 3h31l22-22z" opacity=".2"/></svg>