<svg xmlns="http://www.w3.org/2000/svg" width="64" height="64" version="1"><path style="opacity:.2" d="m19.005 5-.01 4.822L7 20.127l2.447 4.952 5.183-1.913a5.002 5.002 0 0 0 3.934 1.923c2.634-.003 4.311-2.205 4.498-4.863v-.002 4.855c-.003 2.416-.27 5.102-2.594 5.656-2.073.494-3.532-.15-6.023.878-3.786 1.562-5.458 3.615-5.458 7.751L14 47h19.6l5.4-7.529V23.848c0-8.278-7.032-14.795-15.212-14.795-.087.003-.175.007-.263.013.013-.41-.025-.12-.115-.52-.496-2.188-2.187-3.542-4.405-3.546z"/><path style="opacity:.2" d="M13.248 45C11.263 45 9 47.306 9 49h32c0-1.694-2.263-4-4.248-4zM32.717 57C30.98 57 29 59.306 29 61h28c0-1.694-1.98-4-3.717-4z"/><path style="fill:#5e576c" d="m19.005 4-.01 4.822L7 19.127l2.447 4.952 5.183-1.913a5.002 5.002 0 0 0 3.934 1.923c2.634-.003 4.311-2.205 4.498-4.863v-.002 4.855c-.003 2.416-.27 5.102-2.594 5.656-2.073.494-3.532-.15-6.023.878-3.786 1.562-5.458 3.615-5.458 7.751L14 46h19.6l5.4-7.529V22.848c0-8.278-7.032-14.795-15.212-14.795-.087.003-.175.007-.263.013.013-.41-.025-.12-.115-.52-.496-2.188-2.187-3.542-4.405-3.546z"/><path style="fill:#f4f4f7;opacity:.1" d="m19.004 4-.008 4.822L7 19.127l.348.701L18.996 9.822 19.004 5c2.218.004 3.91 1.357 4.406 3.545.09.4.128.111.115.521.088-.005.176-.01.264-.013C31.97 9.053 39 15.57 39 23.848v-1c0-8.278-7.03-14.795-15.21-14.795-.089.003-.177.008-.265.013.013-.41-.025-.12-.115-.521-.495-2.188-2.188-3.54-4.406-3.545zm4.058 20.078c-.003 2.416-.272 5.103-2.595 5.656-2.073.495-3.53-.148-6.022.88-3.785 1.561-5.458 3.615-5.459 7.751l.051.078c.247-3.515 1.922-5.391 5.408-6.83 2.491-1.027 3.949-.384 6.022-.879 2.323-.553 2.592-3.24 2.596-5.656v-1z"/><path style="fill:#756a89" d="M13.248 44C11.263 44 9 46.306 9 48h32c0-1.694-2.263-4-4.248-4z"/><path style="fill:#ccc" d="M43 36.2 31.8 58.6h22.4z"/><path style="fill:#f4f4f7" d="M32.717 56C30.98 56 29 58.306 29 60h28c0-1.694-1.98-4-3.717-4z"/><circle style="opacity:.2" cx="43" cy="33" r="10"/><circle style="fill:#f4f4f7" cx="43" cy="32" r="10"/><path style="opacity:.1;fill:#f4f4f7" d="M13.25 44C11.265 44 9 46.306 9 48h.244c.618-1.479 2.394-3 4.006-3h23.5c1.612 0 3.388 1.521 4.006 3H41c0-1.694-2.265-4-4.25-4h-23.5z"/><path style="opacity:.2;fill:#f4f4f7" d="M32.719 56C30.982 56 29 58.306 29 60h.213c.54-1.479 2.095-3 3.506-3H53.28c1.411 0 2.965 1.521 3.506 3H57c0-1.694-1.982-4-3.719-4H32.72zM43 22a10 10 0 0 0-10 10 10 10 0 0 0 .021.389A10 10 0 0 1 43 23a10 10 0 0 1 9.975 9.498A10 10 0 0 0 53 32a10 10 0 0 0-10-10z"/></svg>