<svg width="64" xmlns="http://www.w3.org/2000/svg" height="64">
    <path style="opacity:.2" d="M31 12C10 12 4 20 4 23c0 4 3 7 3 7l11-5s-1-3-1-5 9.286-2.025 14-2c4.384.024 14 0 14 2s-1 5-1 5l12 5s4-4 4-7-8-11-29-11zm-7.5 8c-.831 0-1.5.669-1.5 1.5V25h-2c0 13-10 12-10 16v9s0 4 5 4h32c5 0 5-4 5-4v-9c0-3-10-3-10-16h-2v-3.5c0-.831-.669-1.5-1.5-1.5s-1.5.669-1.5 1.5V25H25v-3.5c0-.831-.669-1.5-1.5-1.5z"/>
    <path style="fill:#c2352a" d="M31 11C10 11 4 19 4 22c0 4 3 7 3 7l11-5s-1-3-1-5 9.286-2.025 14-2c4.384.024 14 0 14 2s-1 5-1 5l12 5s4-4 4-7-8-11-29-11zm-7.5 8c-.831 0-1.5.669-1.5 1.5V24h-2c0 13-10 12-10 16v9s0 4 5 4h32c5 0 5-4 5-4v-9c0-3-10-3-10-16h-2v-3.5c0-.831-.669-1.5-1.5-1.5s-1.5.669-1.5 1.5V24H25v-3.5c0-.831-.669-1.5-1.5-1.5z"/>
    <path style="opacity:.2" d="M31 30a10 10 0 0 0-10 10 10 10 0 0 0 10 10 10 10 0 0 0 5.139-1.436l-1.541-2.568A7 7 0 0 1 31 47a7 7 0 0 1-7-7 7 7 0 0 1 7-7 7 7 0 0 1 7 7 7 7 0 0 1-1.006 3.598l2.57 1.54A10 10 0 0 0 41 40a10 10 0 0 0-10-10z"/>
    <path style="fill:#f4f4f7" d="M31 29a10 10 0 0 0-10 10 10 10 0 0 0 10 10 10 10 0 0 0 5.139-1.436l-1.541-2.568A7 7 0 0 1 31 46a7 7 0 0 1-7-7 7 7 0 0 1 7-7 7 7 0 0 1 7 7 7 7 0 0 1-1.006 3.598l2.57 1.54A10 10 0 0 0 41 39a10 10 0 0 0-10-10z"/>
    <path style="opacity:.2;fill:#f4f4f7" d="M31 11C10 11 4 19 4 22c0 .245.012.486.033.723C4.368 19.543 10.59 12 31 12c20.215 0 28.361 7.4 28.943 10.63.036-.213.057-.424.057-.63 0-3-8-11-29-11zm-7.5 8c-.831 0-1.5.669-1.5 1.5v1c0-.831.669-1.5 1.5-1.5s1.5.669 1.5 1.5v-1c0-.831-.669-1.5-1.5-1.5zm15 0c-.831 0-1.5.669-1.5 1.5v1c0-.831.669-1.5 1.5-1.5s1.5.669 1.5 1.5v-1c0-.831-.669-1.5-1.5-1.5zm-21.457.785A.625.625 0 0 0 17 20c0 1.348.442 3.087.738 4.12L18 24s-.766-2.3-.957-4.215zm27.914.002C44.766 21.702 44 24 44 24l.264.11C44.56 23.075 45 21.343 45 20a.605.605 0 0 0-.043-.213zM20 24c0 13-10 12-10 16v1c0-4 10-3 10-16h2v-1h-2zm5 0v1h12v-1H25zm15 0v1h2c0 13 10 13 10 16v-1c0-3-10-3-10-16h-2z"/>
</svg>
