<svg height="64" width="64" xmlns="http://www.w3.org/2000/svg">
    <path d="M60 32V13c0-1.662-1.338-3-3-3H7c-1.662 0-3 1.338-3 3v38c0 1.662 1.338 3 3 3h31z" fill="#325f78"/>
    <path d="M56 34.322V14H8v36h32z" opacity=".2"/>
    <path d="M7 10c-1.662 0-3 1.338-3 3v1c0-1.662 1.338-3 3-3h50c1.662 0 3 1.338 3 3v-1c0-1.662-1.338-3-3-3z" fill="#f4f4f7" opacity=".1"/>
    <path d="M60 32H40.75A2.751 2.751 0 0 0 38 34.75V54z" fill="#56839e"/>
    <path d="M40.75 32A2.751 2.751 0 0 0 38 34.75v1A2.751 2.751 0 0 1 40.75 33H59l1-1z" fill="#f4f4f7" opacity=".1"/>
    <path d="M60 32 38 54H7c-1.662 0-3-1.338-3-3v1c0 1.662 1.338 3 3 3h31l22-22z" opacity=".2"/>
</svg>
