<svg enable-background="new" height="64" viewBox="0 0 64 64" width="64" xmlns="http://www.w3.org/2000/svg" xmlns:xlink="http://www.w3.org/1999/xlink"><filter id="a" color-interpolation-filters="sRGB" height="1.054" width="1.054" x="-.027" y="-.027"><feGaussianBlur stdDeviation=".61875"/></filter><linearGradient id="b" gradientUnits="userSpaceOnUse" x1="4.5" x2="59.5" y1="-4.51" y2="-59.51"><stop offset="0" stop-color="#32d7ff"/><stop offset="1" stop-color="#329bff"/></linearGradient><rect fill="#141414" filter="url(#a)" height="55" opacity=".3" ry="15" stroke-linecap="round" stroke-width="2.7444" width="55" x="4.5" y="4.5"/><g fill="#5e4aa6"><circle cx="-1198.1968" cy="-1279.3" r="0"/><circle cx="-1079.7433" cy="-1318.5997" r="0" stroke-width="1.00001"/><circle cx="19.795006" cy="-53.108513" fill-rule="evenodd" r="0" stroke-width="1.00001"/><circle cx="-1001.241" cy="-1390.1099" r="0" stroke-width="1.00001"/><circle cx="98.294319" cy="-124.58192" fill-rule="evenodd" r="0" stroke-width="1.00001"/></g><rect fill="url(#b)" height="55" ry="15" stroke-linecap="round" stroke-width="2.7444" transform="scale(1 -1)" width="55" x="4.5" y="-59.5"/><path d="m32.031092 22.525091c-4.33577 0-7.97784 2.969108-9.090136 6.964286-.971207-2.136601-3.108511-3.650678-5.592153-3.650678-3.380084.000526-6.160715 2.780435-6.160715 6.161301-.000526 3.381843 2.779458 6.161692 6.160324 6.162279 2.484228-.000526 4.620243-1.515798 5.591371-3.652438 1.112039 3.995178 4.754759 6.965068 9.091889 6.965068 4.3129.000526 7.9362-2.936848 9.07156-6.897615.98683 2.097107 3.0915 3.584398 5.54641 3.584789 3.38184 0 6.16267-2.780435 6.16227-6.16267 0-3.381843-2.78004-6.161692-6.16169-6.16091-2.45509.000526-4.56119 1.488035-5.54777 3.58518-1.13564-3.961157-4.75788-6.899179-9.07039-6.898397zm0 3.616658a5.8306832 5.8306832 0 0 1 5.85844 5.85786c0 3.257104-2.60153 5.859229-5.85844 5.858447a5.8306832 5.8306832 0 0 1 -5.85708-5.858447c0-3.257104 2.60154-5.857469 5.85747-5.85786zm-14.68268 3.313217c1.426994 0 2.544252 1.11759 2.544643 2.544252 0 1.426994-1.116906 2.546012-2.544252 2.546012-1.426642 0-2.544252-1.118998-2.543861-2.546012 0-1.426642 1.117571-2.544252 2.544252-2.544252zm29.30201 0c1.42697 0 2.54523 1.116886 2.54523 2.544252s-1.11792 2.546012-2.54523 2.546012c-1.427 0-2.54465-1.118998-2.54425-2.546012 0-1.426642 1.11759-2.544252 2.54425-2.544252z" fill="#fff" stroke-width=".526388"/></svg>