<svg height="64" width="64" xmlns="http://www.w3.org/2000/svg"><path d="m63.958 45.848a16 16 0 0 1 -15.958 15.152 16 16 0 0 1 -15.958-14.848 16 16 0 0 0 -.042.848 16 16 0 0 0 16 16 16 16 0 0 0 16-16 16 16 0 0 0 -.043-1.152z" opacity=".2"/><path d="m2.05 32c-.01.336-.05.662-.05 1 0 16.62 13.38 30 30 30s30-13.38 30-30c0-.338-.04-.664-.05-1-.53 16.148-13.668 29-29.95 29s-29.42-12.852-29.95-29z" opacity=".2"/><path d="m32 17a15 15 0 0 0 -15 15 15 15 0 0 0 15 15 15 15 0 0 0 15-15 15 15 0 0 0 -15-15zm0 9a6 6 0 1 1 0 12 6 6 0 0 1 0-12z" fill="#848484"/><path d="m32 2c-16.62 0-30 13.38-30 30s13.38 30 30 30 30-13.38 30-30-13.38-30-30-30zm0 18a12 12 0 0 1 12 12 12 12 0 0 1 -12 12 12 12 0 0 1 -12-12 12 12 0 0 1 12-12z" fill="#f4f4f7"/><path d="m32 2c-16.603.001-29.97 13.38-29.97 30 0 .184.006.365.011.547.241-16.408 13.508-29.547 29.959-29.547h.002c16.442.001 29.702 13.123 29.959 29.518.005-.173.012-.344.012-.518 0-16.62-13.367-29.999-29.971-30zm-5.92 30.75c-.031.248-.074.493-.074.75 0 .22.012.435.035.648.016-.132.022-.266.04-.398.37 2.956 2.864 5.25 5.919 5.25 3.054 0 5.546-2.294 5.918-5.25.016.13.026.264.041.395.023-.212.035-.427.035-.645 0-.257-.045-.502-.076-.75-.372 2.956-2.864 5.25-5.918 5.25s-5.548-2.294-5.92-5.25z" fill="#f4f4f7" opacity=".4"/><circle cx="48" cy="46" fill="#2eac43" r="16"/><g fill="#f4f4f7"><circle cx="47" cy="53" r="5"/><rect height="16" rx="2" width="4" x="48" y="38"/></g></svg>