<svg xmlns="http://www.w3.org/2000/svg" width="64" height="64"><path style="opacity:.2" d="m12.491 1021.365-7.745 7.743a2.546 2.546 0 0 0-.746 1.8v15.909a2.546 2.546 0 0 0 2.545 2.545h15.91c.674 0 1.322-.267 1.8-.743l7.745-7.746 19.509-19.508 7.745-7.746a2.546 2.546 0 0 0 .746-1.802v-15.91a2.546 2.546 0 0 0-2.545-2.545h-15.91c-.675 0-1.322.269-1.8.746L32 1001.854z" transform="translate(0 -988.362)"/><path style="fill:#005aeb" d="m12.491 1020.365-7.745 7.743a2.546 2.546 0 0 0-.746 1.8v15.909a2.546 2.546 0 0 0 2.545 2.545h15.91c.674 0 1.322-.267 1.8-.743l7.745-7.746 19.509-19.508 7.745-7.746a2.546 2.546 0 0 0 .746-1.802v-15.91a2.546 2.546 0 0 0-2.545-2.545h-15.91c-.675 0-1.322.269-1.8.746L32 1000.854z" transform="translate(0 -988.362)"/><path style="opacity:.1;fill:#f4f4f7" d="M41.545 4c-.675 0-1.322.269-1.799.746L32 12.492l-19.508 19.51-7.746 7.744A2.544 2.544 0 0 0 4 41.545v1c0-.675.269-1.322.746-1.799l7.746-7.744L32 13.492l7.746-7.746A2.544 2.544 0 0 1 41.545 5h15.91A2.545 2.545 0 0 1 60 7.545v-1A2.545 2.545 0 0 0 57.455 4h-15.91z"/><path style="opacity:.2" d="m51.509 1021.365 7.745 7.743c.478.477.746 1.125.746 1.8v15.909a2.546 2.546 0 0 1-2.545 2.545h-15.91a2.546 2.546 0 0 1-1.8-.743L32 1040.873l-19.509-19.508-7.745-7.746a2.546 2.546 0 0 1-.746-1.802v-15.91a2.546 2.546 0 0 1 2.545-2.545h15.91c.675 0 1.322.269 1.8.746l7.745 7.746z" transform="translate(0 -988.362)"/><path style="fill:#00d5e6" d="m51.509 1020.365 7.745 7.743c.478.477.746 1.125.746 1.8v15.909a2.546 2.546 0 0 1-2.545 2.545h-15.91a2.546 2.546 0 0 1-1.8-.743L32 1039.873l-19.509-19.508-7.745-7.746a2.546 2.546 0 0 1-.746-1.802v-15.91a2.546 2.546 0 0 1 2.545-2.545h15.91c.675 0 1.322.269 1.8.746l7.745 7.746z" transform="translate(0 -988.362)"/><path style="opacity:.2;fill-rule:evenodd" d="M44.205 1000.362a.435.435 0 0 0-.295.127l-1.174 1.174a.435.435 0 0 0-.127.307v6.74h-6.74a.435.435 0 0 0-.307.127l-4.343 4.344a.435.435 0 0 0 0 .614l7.205 7.207-1.055 1.055-4.701-4.702a3.982 3.982 0 0 0-5.623 0 3.983 3.983 0 0 0 0 5.624l4.701 4.7-1.853 1.855-3.57-.38c1.133-1.553 1.069-3.72-.333-5.12a3.982 3.982 0 0 0-5.623 0l-7.513 7.513a6.343 6.343 0 0 0 0 8.962 6.344 6.344 0 0 0 8.962 0c1.204-1.204 1.674-2.78 1.705-4.358l1.02 1.02a.435.435 0 0 0 .613 0l.836-.836a.435.435 0 0 0 0-.614l-4.174-4.174a.435.435 0 0 0-.615 0l-2.504 2.504a.435.435 0 0 0 0 .616l.834.834a.435.435 0 0 0 .615 0l1.016-1.016c.61 1.54.455 3.325-.795 4.574a4.282 4.282 0 0 1-6.064 0 4.28 4.28 0 0 1 0-6.062l7.513-7.514a1.92 1.92 0 0 1 2.725 0 1.92 1.92 0 0 1 0 2.724l-1.67 1.67a.435.435 0 0 0 0 .616l4.174 4.174a.435.435 0 0 0 .615 0l.834-.836a.435.435 0 0 0 0-.616l-1.978-1.976 3.935.408a.435.435 0 0 0 .352-.125l3.535-3.535a.435.435 0 0 0 0-.614l-3.031-3.033 2.724-2.723 3.032 3.032a.435.435 0 0 0 .615 0l3.338-3.34a.435.435 0 0 0 0-.616l-3.032-3.031 2.198-2.197a.435.435 0 0 0 0-.616l-.836-.834a.435.435 0 0 0-.614 0l-2.197 2.198-2.724-2.725 2.734-2.735h6.064v7.913a.435.435 0 0 0 .743.309l1.173-1.174a.435.435 0 0 0 .127-.309v-6.739h6.739a.435.435 0 0 0 .308-.126l1.174-1.174a.435.435 0 0 0-.309-.743h-7.912v-7.914a.435.435 0 0 0-.447-.434zm-14.348 17.874c.493 0 .984.19 1.362.569l1.361 1.36-2.725 2.726-1.36-1.362a1.92 1.92 0 0 1 0-2.724 1.924 1.924 0 0 1 1.362-.569z" transform="translate(0 -988.362)"/><path style="fill:#f4f4f7;fill-rule:evenodd" d="M44.205 999.362a.435.435 0 0 0-.295.127l-1.174 1.174a.435.435 0 0 0-.127.307v6.74h-6.74a.435.435 0 0 0-.307.127l-4.343 4.344a.435.435 0 0 0 0 .614l7.205 7.207-1.055 1.055-4.701-4.702a3.982 3.982 0 0 0-5.623 0 3.983 3.983 0 0 0 0 5.624l4.701 4.7-1.853 1.855-3.57-.38c1.133-1.553 1.069-3.72-.333-5.12a3.982 3.982 0 0 0-5.623 0l-7.513 7.513a6.343 6.343 0 0 0 0 8.962 6.344 6.344 0 0 0 8.962 0c1.204-1.204 1.674-2.78 1.705-4.358l1.02 1.02a.435.435 0 0 0 .613 0l.836-.836a.435.435 0 0 0 0-.614l-4.174-4.174a.435.435 0 0 0-.615 0l-2.504 2.504a.435.435 0 0 0 0 .616l.834.834a.435.435 0 0 0 .615 0l1.016-1.016c.61 1.54.455 3.325-.795 4.574a4.282 4.282 0 0 1-6.064 0 4.28 4.28 0 0 1 0-6.062l7.513-7.514a1.92 1.92 0 0 1 2.725 0 1.92 1.92 0 0 1 0 2.724l-1.67 1.67a.435.435 0 0 0 0 .616l4.174 4.174a.435.435 0 0 0 .615 0l.834-.836a.435.435 0 0 0 0-.616l-1.978-1.976 3.935.408a.435.435 0 0 0 .352-.125l3.535-3.535a.435.435 0 0 0 0-.614l-3.031-3.033 2.724-2.723 3.032 3.032a.435.435 0 0 0 .615 0l3.338-3.34a.435.435 0 0 0 0-.616l-3.032-3.031 2.198-2.197a.435.435 0 0 0 0-.616l-.836-.834a.435.435 0 0 0-.614 0l-2.197 2.198-2.724-2.725 2.734-2.735h6.064v7.913a.435.435 0 0 0 .743.309l1.173-1.174a.435.435 0 0 0 .127-.309v-6.739h6.739a.435.435 0 0 0 .308-.126l1.174-1.174a.435.435 0 0 0-.309-.743h-7.912v-7.914a.435.435 0 0 0-.447-.434zm-14.348 17.874c.493 0 .984.19 1.362.569l1.361 1.36-2.725 2.726-1.36-1.362a1.92 1.92 0 0 1 0-2.724 1.924 1.924 0 0 1 1.362-.569z" transform="translate(0 -988.362)"/><path style="opacity:.2;fill-rule:evenodd" d="M41.594 1025.362a5.58 5.58 0 0 0-3.96 1.634 5.613 5.613 0 0 0 0 7.92l.593.594 2.313-2.31-.595-.595a2.318 2.318 0 0 1 0-3.297 2.318 2.318 0 0 1 3.296 0c.38.38.589.845.65 1.334v10.53l2.19 2.19.822-.822 2.015-2.015 5.082-5.082-2.31-2.31-4.54 4.538c-.005-2.427.007-4.856 0-7.297v-.048l-.006-.048a5.582 5.582 0 0 0-1.59-3.28 5.58 5.58 0 0 0-3.96-1.634z" transform="translate(0 -988.362)"/><path style="fill:#f4f4f7;fill-rule:evenodd" d="M41.594 1024.362a5.58 5.58 0 0 0-3.96 1.634 5.613 5.613 0 0 0 0 7.92l.593.594 2.313-2.31-.595-.595a2.318 2.318 0 0 1 0-3.297 2.318 2.318 0 0 1 3.296 0c.38.38.589.845.65 1.334v10.53l2.19 2.19.822-.822 2.015-2.015 5.082-5.082-2.31-2.31-4.54 4.538c-.005-2.427.007-4.856 0-7.297v-.048l-.006-.048a5.582 5.582 0 0 0-1.59-3.28 5.58 5.58 0 0 0-3.96-1.634z" transform="translate(0 -988.362)"/><path style="opacity:.2;fill:#f4f4f7" d="M6.545 4A2.545 2.545 0 0 0 4 6.545v1A2.545 2.545 0 0 1 6.545 5h15.91c.675 0 1.322.269 1.799.746L32 13.492l19.508 19.51 7.746 7.744c.477.477.746 1.124.746 1.799v-1c0-.675-.269-1.322-.746-1.799l-7.746-7.744L32 12.492l-7.746-7.746A2.544 2.544 0 0 0 22.455 4H6.545z"/></svg>