<svg height="64" width="64" xmlns="http://www.w3.org/2000/svg"><path d="m25.805 3.913a6 6 0 0 0 -5.707 5.008l-8 44a6 6 0 1 0 11.804 2.148l8-44a6 6 0 0 0 -6.097-7.156z" fill="#3476cc"/><path d="m45.804 3.913a6 6 0 0 0 -5.706 5.008l-8 44a6 6 0 1 0 11.804 2.148l8-44a6 6 0 0 0 -6.098-7.156z" fill="#7cce44"/><path d="m14 15.995a6 6 0 1 0 0 12h40a6 6 0 1 0 0-12z" fill="#f4f4f7"/><path d="m10 33.995a6 6 0 1 0 0 12h40a6 6 0 1 0 0-12z" fill="#f56666"/><path d="m38.812 15.995-2.183 12h12.195l2.184-12z" fill="#7cce44"/><path d="m15.54 33.995-2.184 12h12.194l2.183-12z" fill="#3476cc"/><path d="m31.99 10.426a6 6 0 0 1 -.088.644l-.896 4.926h.183l.713-3.926a6 6 0 0 0 .088-1.644zm-3.166 17.568-4.922 27.074a6 6 0 0 1 -11.9-.455 6 6 0 0 0 11.9 1.455l5.106-28.074zm23.166-17.568a6 6 0 0 1 -.088.644l-4.168 22.924h.182l3.986-21.924a6 6 0 0 0 .088-1.644zm-6.437 35.568-1.65 9.074a6 6 0 0 1 -11.901-.44 6 6 0 0 0 11.9 1.44l1.832-10.074z" opacity=".2"/><path d="m7.941 22.463a6 6 0 0 0 6.059 6.531h22.447l.182-1h-22.629a6 6 0 0 1 -6.059-5.531zm52.118.064a6 6 0 0 1 -6.059 5.467h-5.176l-.181 1h5.357a6 6 0 0 0 6.059-6.467zm-56.118 17.936a6 6 0 0 0 6.059 6.531h3.176l.181-1h-3.357a6 6 0 0 1 -6.059-5.531zm52.118.064a6 6 0 0 1 -6.059 5.467h-24.447l-.182 1h24.629a6 6 0 0 0 6.059-6.467z" opacity=".2"/><g fill="#f4f4f7"><path d="m25.805 3.914a6 6 0 0 0 -5.707 5.008l-1.287 7.074h.183l1.104-6.074a6 6 0 0 1 5.707-5.008 6 6 0 0 1 6.185 5.512 6 6 0 0 0 -6.185-6.512zm-9.176 24.08-4.531 24.926a6 6 0 0 0 -.096 1.693 6 6 0 0 1 .096-.693l4.714-25.926zm29.176-24.08a6 6 0 0 0 -5.707 5.008l-4.559 25.072h.182l4.377-24.072a6 6 0 0 1 5.707-5.008 6 6 0 0 1 6.185 5.512 6 6 0 0 0 -6.185-6.512zm-12.448 42.08-1.26 6.926a6 6 0 0 0 -.095 1.709 6 6 0 0 1 .096-.71l1.441-7.925z" opacity=".2"/><path d="m14 15.996a6 6 0 0 0 -6.059 6.467 6 6 0 0 1 6.059-5.469h24.63l.18-.998zm37.006 0-.18.998h3.174a6 6 0 0 1 6.059 5.533 6 6 0 0 0 -6.059-6.53h-2.994zm-41.006 17.998a6 6 0 0 0 -6.059 6.469 6 6 0 0 1 6.059-5.469h5.357l.182-1zm17.734 0-.181 1h22.447a6 6 0 0 1 6.059 5.533 6 6 0 0 0 -6.059-6.533z" opacity=".2"/></g></svg>