<svg height="64" width="64" xmlns="http://www.w3.org/2000/svg"><path d="m32 5a28 28 0 0 0 -28 28 28 28 0 0 0 28 28 28 28 0 0 0 28-28 28 28 0 0 0 -28-28z" opacity=".2"/><path d="m32 4a28 28 0 0 0 -28 28 28 28 0 0 0 28 28 28 28 0 0 0 28-28 28 28 0 0 0 -28-28z" fill="#6ea23d"/><path d="m32 4a28 28 0 0 0 -28 28 28 28 0 0 0 .021.406 28 28 0 0 1 27.979-27.406 28 28 0 0 1 27.979 27.578 28 28 0 0 0 .021-.578 28 28 0 0 0 -28-28z" fill="#f4f4f7" opacity=".2"/><path d="m26 15-1.777 8h-7.778l-1.336 6h7.78l-1.778 8h-7.779l-1.332 6h7.777l-1.777 8h6l1.777-8h8l-1.777 8h6l1.777-8h7.825l1.332-6h-7.824l1.778-8h7.822l1.29-5.793v-.207h-7.777l1.777-8h-6l-1.777 8h-8l1.777-8zm2.889 14h8l-1.778 8h-8z" opacity=".2"/><g fill="#f4f4f7"><path d="m26 14h6l-8 36h-6zm14 0h6l-8 36h-6z"/><path d="m16.446 22-1.336 6h35.6l1.29-5.793v-.207zm-3.114 14-1.332 6h35.602l1.332-6z"/></g></svg>