<svg xmlns="http://www.w3.org/2000/svg" width="64" height="64"><rect style="opacity:.2" width="56" height="56" x="4" y="5" rx="2.8" ry="2.8"/><rect style="fill:#4f4f4f" width="56" height="56" x="4" y="4" rx="2.8" ry="2.8"/><path style="opacity:.2" d="M9 12v12h3v-2h-1v-8h1v-2zm6 0v12h3V12zm6 0v12h3V12zm19 0v12h3V12zm6 0v12h3V12zm6 0v2h1v8h-1v2h3V12zM9 27v12h3v-2h-1v-8h1v-2zm6 0v12h3V27zm6 0v12h3V27zm6 0v12h3V27zm7 0v12h3V27zm6 0v12h3V27zm6 0v12h3V27zm6 0v2h1v8h-1v2h3V27zM9 42v12h3v-2h-1v-8h1v-2zm6 0v12h3V42zm6 0v12h3V42zm19 0v12h3V42zm6 0v12h3V42zm6 0v2h1v8h-1v2h3V42z"/><path style="fill:#d4d4d4" d="M55 11v12h-3v-2h1v-8h-1v-2zm0 15v12h-3v-2h1v-8h-1v-2zm0 15v12h-3v-2h1v-8h-1v-2zM9 11v12h3v-2h-1v-8h1v-2zm0 15v12h3v-2h-1v-8h1v-2zm0 15v12h3v-2h-1v-8h1v-2z"/><path style="fill:#8bc34a" d="M15 41v12h3V41zm6 0v12h3V41zm-6-15v12h3V26zm6 0v12h3V26zm-6-15v12h3V11zm6 0v12h3V11z"/><path style="fill:#ff9800" d="M27 26v12h3V26zm7 0v12h3V26z"/><path style="fill:#ff5722" d="M40 41v12h3V41zm6 0v12h3V41zm-6-15v12h3V26zm6 0v12h3V26zm-6-15v12h3V11zm6 0v12h3V11z"/><path style="opacity:.1;fill:#f4f4f7" d="M6.8 4C5.25 4 4 5.25 4 6.8v1C4 6.25 5.25 5 6.8 5H57.2A2.796 2.796 0 0 1 60 7.8v-1C60 5.25 58.75 4 57.199 4H6.801z"/></svg>