<svg height="64" width="64" xmlns="http://www.w3.org/2000/svg">
    <rect height="57" opacity=".2" rx="2.85" transform="matrix(0 -1 -1 0 0 0)" width="57" x="-61" y="-61"/>
    <rect fill="#6a3" height="57" rx="2.85" transform="matrix(0 -1 -1 0 0 0)" width="57" x="-60" y="-61"/>
    <path d="M8 24v17h4v-7.914c.522-.072 1.31-.086 2-.086s1.478.014 2 .086V41h4v-8.7c0-.968-.62-1.964-1.273-2.425s-1.273-.61-1.844-.715C15.739 28.952 14.653 29 14 29c-.475 0-1.21.008-2 .074V24zm30 0v17h4V24zm-15 4.994v8.701c0 .97.622 1.967 1.275 2.428s1.27.611 1.842.715c1.144.208 2.23.156 2.883.156.652 0 1.74.052 2.883-.156.571-.104 1.189-.254 1.842-.715.653-.46 1.275-1.459 1.275-2.428v-8.7h-4v7.915c-.522.073-1.31.084-2 .084s-1.478-.011-2-.084v-7.916zm22 0v8.701c0 .97.622 1.967 1.275 2.428s1.27.611 1.842.715c1.144.208 2.23.156 2.883.156.652 0 1.74.052 2.883-.156.571-.104 1.189-.254 1.842-.715.653-.46 1.275-1.459 1.275-2.428v-8.7h-4v7.915c-.522.073-1.31.084-2 .084s-1.478-.011-2-.084v-7.916z" opacity=".2"/>
    <path d="M38 23h4v17h-4zM8 23v17h4v-7.914c.522-.072 1.31-.086 2-.086s1.478.014 2 .086V40h4v-8.7c0-.968-.62-1.964-1.273-2.425s-1.273-.61-1.844-.715C15.739 27.952 14.653 28 14 28c-.475 0-1.21.008-2 .074V23z" fill="#f4f4f7"/>
    <path d="M25 27.995v8.7c0 1.4 2.6 1.3 4 1.3s4 .1 4-1.3v-8.7m14 0v8.7c0 1.4 2.6 1.3 4 1.3s4 .1 4-1.3v-8.7" fill="none" stroke="#f4f4f7" stroke-width="4"/>
    <path d="M6.85 3A2.843 2.843 0 0 0 4 5.85v1C4 5.27 5.27 4 6.85 4h51.3C59.73 4 61 5.27 61 6.85v-1C61 4.27 59.73 3 58.15 3z" fill="#f4f4f7" opacity=".2"/>
</svg>
