<svg xmlns="http://www.w3.org/2000/svg" width="64" height="64" version="1"><path style="opacity:.2" d="M32.148 5v.004a6.346 6.443 0 0 0-3.32.855L10.156 16.805a6.346 6.443 0 0 0-3.144 5.062c-.002-.022-.007-.044-.008-.066 0 .008-.004.015-.004.023l.008.074v.004a6.346 6.443 0 0 0-.008.07 6.346 6.443 0 0 0 .004.024L7 22.043v21.773a6.367 6.367 0 0 0 3.172 5.512l18.656 10.82A6.396 6.396 0 0 0 32 61c1.095 0 2.19-.283 3.172-.852l18.656-10.82A6.373 6.373 0 0 0 57 43.812V22.023a6.346 6.443 0 0 0-.004-.023l-.004-.098c0 .006-.003.01-.004.016a6.346 6.443 0 0 0-3.144-5.113L35.172 5.859A6.346 6.443 0 0 0 32.148 5z"/><path style="fill:#0f7b9f" d="M32.145 4.7v.003a6.187 6.208 0 0 0-3.24.826L10.701 16.076a6.187 6.208 0 0 0-3.076 4.977 6.187 6.208 0 0 0 .003.027l-.003.024.008.075-.008.138v21.227a6.213 6.213 0 0 0 3.092 5.377l18.191 10.547a6.16 6.16 0 0 0 6.184 0l18.191-10.547a6.213 6.213 0 0 0 3.092-5.377V21.317l-.008-.138a6.187 6.208 0 0 0 .008-.075 6.187 6.208 0 0 0-3.076-5.028L35.094 5.529a6.187 6.208 0 0 0-2.949-.829zm24.132 17.14a6.208 6.208 0 0 1-.037.184 6.187 6.208 0 0 0 .037-.184zm-.182.728c-.014.042-.023.086-.037.128a6.187 6.208 0 0 0 .037-.128zm-.638 1.407c-.03.05-.065.098-.098.147a6.187 6.208 0 0 0 .098-.147zm-.407.579c-.045.057-.093.112-.14.168a6.187 6.208 0 0 0 .14-.168zm-.45.509a6.197 6.197 0 0 1-.188.184 6.187 6.208 0 0 0 .188-.184zm-.531.48c-.066.053-.13.107-.199.157a6.187 6.208 0 0 0 .199-.157zM34.423 36.959l-.074.032a6.187 6.208 0 0 0 .074-.032zm-1.577.434-.082.011a6.187 6.208 0 0 0 .082-.01z"/><path style="fill:#0f9f98" d="M56.992 20.901a6.37 6.37 0 0 1-3.147 5.029L35.174 36.747a6.33 6.33 0 0 1-3.174.848V60c1.095 0 2.19-.284 3.171-.853L53.83 48.33A6.372 6.372 0 0 0 57 42.814v-21.77l-.008-.143zM32 60z"/><path style="fill:#67a1fd" d="M7.003 20.8c0 .008-.003.016-.003.025l.008.076-.008.142v21.771a6.372 6.372 0 0 0 3.171 5.516L28.83 59.147c.975.565 2.083.85 3.171.853V37.595h-.016a6.396 6.396 0 0 1-.513-.025 5.55 5.55 0 0 1-.141-.011 6.3 6.3 0 0 1-.518-.08 5.087 5.087 0 0 1-.095-.016 6.329 6.329 0 0 1-.459-.115 6.339 6.339 0 0 1-.184-.052 6.342 6.342 0 0 1-.35-.128 6.332 6.332 0 0 1-.26-.101 6.339 6.339 0 0 1-.285-.14 6.341 6.341 0 0 1-.353-.18L10.155 25.93a6.344 6.344 0 0 1-.53-.348h-.002l-.024-.019a6.353 6.353 0 0 1-.45-.36 6.367 6.367 0 0 1-.22-.211 6.365 6.365 0 0 1-.23-.227 6.356 6.356 0 0 1-.237-.28 6.37 6.37 0 0 1-.17-.207 6.359 6.359 0 0 1-.218-.312 6.359 6.359 0 0 1-.14-.21 6.375 6.375 0 0 1-.196-.353 6.376 6.376 0 0 1-.109-.202 6.377 6.377 0 0 1-.16-.375 6.362 6.362 0 0 1-.09-.213c-.03-.09-.057-.18-.083-.27-.041-.12-.078-.24-.112-.362a6.351 6.351 0 0 1-.03-.158 6.383 6.383 0 0 1-.092-.46 6.38 6.38 0 0 1-.06-.563z"/><path style="fill:#216bcc" d="M32.15 4v.003a6.346 6.443 0 0 0-3.324.858L10.154 15.806A6.346 6.443 0 0 0 7 20.972a6.346 6.443 0 0 0 3.154 5.219l18.672 10.946a6.346 6.443 0 0 0 6.347 0L53.845 26.19A6.346 6.443 0 0 0 57 21.025a6.346 6.443 0 0 0-3.155-5.219L35.173 4.861A6.346 6.443 0 0 0 32.15 4z"/><path style="opacity:.1" d="M7.055 21.502a6.346 6.443 0 0 0-.055.47 6.346 6.443 0 0 0 3.156 5.22l18.672 10.944a6.346 6.443 0 0 0 6.344 0l18.672-10.945A6.346 6.443 0 0 0 57 22.023a6.346 6.443 0 0 0-.055-.476 6.346 6.443 0 0 1-3.101 4.644L35.172 37.136a6.346 6.443 0 0 1-6.344 0L10.156 26.191a6.346 6.443 0 0 1-3.101-4.69z"/><path style="opacity:.1;fill:#f4f4f7" d="M32.148 4v.004a6.346 6.443 0 0 0-3.32.855L10.156 15.805A6.346 6.443 0 0 0 7 20.973a6.346 6.443 0 0 0 .144 1.02 6.346 6.443 0 0 1 3.012-4.188L28.828 6.859a6.346 6.443 0 0 1 3.32-.855V6a6.346 6.443 0 0 1 3.024.86l18.672 10.945a6.346 6.443 0 0 1 3.011 4.199 6.346 6.443 0 0 0 .145-.98 6.346 6.443 0 0 0-3.156-5.22L35.172 4.86A6.346 6.443 0 0 0 32.148 4z"/><path style="opacity:.2" d="m37.297 14.066-9.631 6.47L21 16.059V29h19.26l-6.668-4.48 9.63-6.471zM17 34.277v7.764l-4.926-3.135 6.74 12.293 6.74-3.234L21 44.828v-7.764zm30 0-4 2.787v7.764l-4.537 3.137 6.74 3.234 6.74-12.293L47 42.041z"/><path style="fill:#f4f4f7" d="m43.222 17.049-9.63 6.471L40.26 28H21V15.058l6.667 4.48 9.63-6.471 5.925 3.982M17 33.277v7.765l-4.925-3.135 6.74 12.293 6.74-3.236L21 43.83v-7.765l-4-2.787M47 33.277v7.765l4.944-3.135-6.74 12.293-6.74-3.236L43 43.83v-7.765l4-2.787"/></svg>