<svg height="64" width="64" xmlns="http://www.w3.org/2000/svg">
    <path d="M24.758 10C23.23 10 22 11.25 22 12.8V21h-7.266A7 7 0 0 0 9 18a7 7 0 0 0-7 7 7 7 0 0 0 7 7 7 7 0 0 0 5.742-3H22v6.2c0 1.55 1.23 2.8 2.758 2.8h34.484C60.77 38 62 36.75 62 35.2V12.8c0-1.55-1.23-2.8-2.758-2.8z" opacity=".2"/>
    <path d="m25.219 33.564-9.346 10.514a2.857 2.857 0 0 0-.8-.092 2.857 2.857 0 0 0-1.964.866l-7.244 7.242a2.857 2.857 0 1 0 4.041 4.04l7.242-7.243a2.857 2.857 0 0 0 .76-2.801l9.446-10.627z" opacity=".2"/>
    <circle cx="9" cy="24" fill="#5b697d" r="7"/>
    <path d="m14.857 46.37 11.429-12.856" fill="none" stroke="#dfdfdf" stroke-width="2.857"/>
    <path d="m7.886 53.114 7.243-7.243" fill="none" stroke="#ee8c00" stroke-linecap="round" stroke-width="5.714"/>
    <rect fill="#5b697d" height="28" rx="2.759" ry="2.8" width="40" x="22" y="9"/>
    <path d="M9.14 20h17.143v8H9.14z" fill="#5b697d"/>
    <path d="M27.346 13c-1.3 0-2.346.98-2.346 2.2V24H12.87A4 4 0 0 0 9 21a4 4 0 0 0-4 4 4 4 0 0 0 4 4 4 4 0 0 0 3.867-3H25v6.8c0 1.22 1.047 2.2 2.346 2.2h29.308c1.3 0 2.346-.98 2.346-2.2V15.2c0-1.22-1.047-2.2-2.346-2.2z" opacity=".2"/>
    <g fill="#9fb9d7">
        <rect height="22" rx="2.345" ry="2.2" width="34" x="25" y="12"/>
        <path d="M9.14 23h20v2h-20z"/>
        <circle cx="9" cy="24" r="4"/>
    </g>
    <path d="M27.346 12c-1.3 0-2.346.98-2.346 2.2v1c0-1.22 1.047-2.2 2.346-2.2h29.308c1.3 0 2.346.98 2.346 2.2v-1c0-1.22-1.047-2.2-2.346-2.2zM9 20a4 4 0 0 0-4 4 4 4 0 0 0 .035.506A4 4 0 0 1 9 21a4 4 0 0 1 3.87 3H25v-1H12.87A4 4 0 0 0 9 20z" fill="#f4f4f7" opacity=".2"/>
    <circle cx="26.5" cy="34.5" opacity=".2" r="11.5"/>
    <circle cx="26.5" cy="33.5" fill="#f4f4f7" r="11.5"/>
    <circle cx="26.5" cy="33.5" fill="#288efe" r="8.5"/>
    <path d="M24.758 9C23.23 9 22 10.25 22 11.8v1c0-1.55 1.23-2.8 2.758-2.8h34.484C60.77 10 62 11.25 62 12.8v-1c0-1.55-1.23-2.8-2.758-2.8zM9 17a7 7 0 0 0-7 7 7 7 0 0 0 .023.459A7 7 0 0 1 9 18a7 7 0 0 1 5.734 3H22v-1h-7.266A7 7 0 0 0 9 17z" fill="#f4f4f7" opacity=".1"/>
</svg>
