<svg height="64" width="64" xmlns="http://www.w3.org/2000/svg">
    <path d="m31.784 5-.002.006C16.372 5.123 4 17.56 4 33c0 15.512 12.488 28 28 28 14.952 0 27.091-11.605 27.948-26.335l.052-.05V10.6C60 7.498 57.502 5 54.4 5z" opacity=".2"/>
    <path d="m31.784 4-.002.006C16.372 4.123 4 16.56 4 32c0 15.512 12.488 28 28 28 14.952 0 27.091-11.605 27.948-26.335l.052-.05V9.6C60 6.498 57.502 4 54.4 4z" fill="#63a4c7"/>
    <path d="m36 17-4.84 32h4.043l4.84-32zm-6.844 0-4.84 32h4.043l4.84-32z" opacity=".2"/>
    <path d="m36 16-4.84 32h4.043l4.84-32zm-6.844 0-4.84 32h4.043l4.84-32z" fill="#f4f4f7"/>
    <path d="m23.332 25-.602 4h19.614l.605-4z" opacity=".2"/>
    <path d="m23.332 24-.602 4h19.614l.605-4z" fill="#f4f4f7"/>
    <path d="m21.82 35-.605 4h19.617l.605-4z" opacity=".2"/>
    <g fill="#f4f4f7">
        <path d="m21.82 34-.605 4h19.617l.605-4z"/>
        <path d="m31.785 4-.004.004A27.934 27.934 0 0 0 4 32c0 .11.01.218.016.326C4.37 17.202 16.597 5.12 31.78 5.004L31.785 5h22.613A5.59 5.59 0 0 1 60 10.602v-1A5.59 5.59 0 0 0 54.398 4z" opacity=".2"/>
    </g>
</svg>
