<svg height="64" viewBox="0 0 16.933 16.933" width="64" xmlns="http://www.w3.org/2000/svg">
    <filter id="a" color-interpolation-filters="sRGB" height="1.054" width="1.054" x="-.027" y="-.027">
        <feGaussianBlur stdDeviation=".619"/>
    </filter>
    <linearGradient id="b" gradientUnits="userSpaceOnUse" x1="1.191" x2="15.742" y1="15.74" y2="1.188">
        <stop offset="0" stop-color="#dee0e2"/>
        <stop offset="1" stop-color="#f1f3f5" stop-opacity=".996"/>
    </linearGradient>
    <rect fill="#141414" filter="url(#a)" height="55" opacity=".3" ry="15" transform="scale(.26458)" width="55" x="4.5" y="4.5"/>
    <rect fill="url(#b)" height="14.552" ry="3.969" width="14.552" x="1.191" y="1.191"/>
    <path d="M8.388 3.65c-.293-.001-.585.106-.795.32L4.095 7.552c-1.183 1.464.804 1.294 1.656 1.716.305.312-1.171.542-.865.854.305.312 1.846.601 2.152.914.305.312-.625.644-.32.956.306.312 1.012.016 1.144.737.094.515 1.275.222 1.851-.2.306-.313-.584-.282-.278-.595.76-.776 1.467-.283 1.727-1.062.128-.384-1.12-.592-.813-.904.879-.513 3.917-.848 2.475-2.29L9.197 3.971a1.172 1.172 0 0 0-.81-.321zm.03.34c.209 0 .418.08.568.232l1.385 1.405c.131.134.13.393.056.468l-.687-.55-.136.816-.574-.303-.92.58-.305-1.224-.494.854h-.754c-.308 0-.345-.39-.065-.67.489-.528 1.049-1.065 1.354-1.376a.79.79 0 0 1 .572-.233zM6.756 9.46c.093.058 1.507.345 1.853.403.12.025.035.149-.13.232-.373.099-2.18-.635-1.723-.635zm5.5.984c-.285.01-.565.155-.643.427 0 .178 1.308.295 1.308-.04-.094-.27-.38-.397-.665-.387zm-6.002.769c-.41-.004-.89.297-.536.603.31.268.788-.068.932-.442-.085-.112-.235-.16-.396-.161zm5.194.024c-.4.358.044.722.438.49.088-.089-.002-.401-.438-.49z" fill="#333"/>
</svg>
