<svg height="64" width="64" xmlns="http://www.w3.org/2000/svg"><path d="m6.8 61c-1.55 0-2.8-1.25-2.8-2.8v-2c0 1.55 1.25 2.8 2.8 2.8h50.4c1.55 0 2.8-1.25 2.8-2.8v2c0 1.55-1.25 2.8-2.8 2.8h-25.2z" opacity=".2"/><path d="m32 4h-25.2a2.794 2.794 0 0 0 -2.8 2.8v25.2h28z" fill="#fe4b71"/><path d="m32 4h25.2c1.551 0 2.8 1.249 2.8 2.8v25.2h-28z" fill="#2086e7"/><path d="m32 60h-25.2a2.794 2.794 0 0 1 -2.8-2.8v-25.2h28z" fill="#ff8c2a"/><path d="m32 60h25.2c1.551 0 2.8-1.249 2.8-2.8v-25.2h-28z" fill="#6655e4"/><path d="m6.8 4c-1.55 0-2.8 1.25-2.8 2.8v1c0-1.55 1.25-2.8 2.8-2.8h50.4c1.55 0 2.8 1.25 2.8 2.8v-1c0-1.55-1.25-2.8-2.8-2.8z" fill="#f4f4f7" opacity=".2"/><path d="m12 12h40v40h-40z" fill="#17191e"/><g fill="none" stroke-linecap="round" stroke-width="4"><path d="m18 47h16" opacity=".2" stroke="#000"/><path d="m18 46h16" stroke="#f4f4f7"/><path d="m18 35h8m-8-16h8m-4 16v-16" opacity=".2" stroke="#000"/><path d="m18 34h8m-8-16h8m-4 16v-16" stroke="#f4f4f7"/><path d="m34 33v2h2c7.832-.23 5.999-13.776 6-16" opacity=".2" stroke="#000" stroke-linejoin="round"/><path d="m34 32v2h2c7.832-.23 5.999-13.776 6-16" stroke="#f4f4f7" stroke-linejoin="round"/></g></svg>