<svg xmlns="http://www.w3.org/2000/svg" width="64" height="64" version="1"><rect style="opacity:.2" width="57" height="57" x="-61" y="-60" rx="28.5" ry="28.5" transform="matrix(0 -1 -1 0 0 0)"/><rect style="fill:#9f63e0" width="57" height="57" x="-60" y="-60" rx="28.5" ry="28.5" transform="matrix(0 -1 -1 0 0 0)"/><path style="fill:#393e47" d="M31 11c-2.77 0-5 2.23-5 5v15.414A11.5 11.5 0 0 0 20 41.5 11.5 11.5 0 0 0 31.5 53 11.5 11.5 0 0 0 43 41.5a11.5 11.5 0 0 0-6-10.098V16c0-2.77-2.23-5-5-5h-1zm.5 5c.831 0 1.5.669 1.5 1.5v17c0 .831-.669 1.5-1.5 1.5s-1.5-.669-1.5-1.5v-17c0-.831.669-1.5 1.5-1.5z"/><rect style="fill:#60b8fe" width="3" height="20" x="30" y="22" rx="1.5" ry="1.5"/><circle style="opacity:.2" cx="31.5" cy="42.5" r="7.5"/><circle style="fill:#60b8fe" cx="31.5" cy="41.5" r="7.5"/><path style="fill:#f4f4f7;opacity:.1" d="M31.5 3A28.438 28.438 0 0 0 3 31.5c0 .168.009.333.012.5C3.278 16.445 15.879 4 31.5 4c15.621 0 28.222 12.445 28.488 28 .003-.167.012-.332.012-.5A28.438 28.438 0 0 0 31.5 3z"/></svg>