<svg xmlns="http://www.w3.org/2000/svg" width="64" height="64" version="1"><path style="opacity:.2" d="M10 56v2c0 1.662 1.338 3 3 3h38c1.662 0 3-1.338 3-3v-2c0 1.662-1.338 3-3 3H13c-1.662 0-3-1.338-3-3z"/><path style="fill:#f4f4f7" d="M54 57V7c0-1.662-1.338-3-3-3H13c-1.662 0-3 1.338-3 3v50c0 1.662 1.338 3 3 3h38c1.662 0 3-1.338 3-3z"/><path style="opacity:.1;fill:#f4f4f7" d="M13 4c-1.662 0-3 1.338-3 3v1c0-1.662 1.338-3 3-3h38c1.662 0 3 1.338 3 3V7c0-1.662-1.338-3-3-3H13z"/><path style="fill:#9daabc" d="M18 16h24v2H18zM18 22h28v2H18zM18 28h24v2H18zM18 34h20v2H18zM18 40h24v2H18zM18 46h20v2H18z"/><path style="fill:#4992ff" d="M38 30h2v10h-2z"/></svg>