<svg height="64" width="64" xmlns="http://www.w3.org/2000/svg"><circle cx="32" cy="33" opacity=".2" r="28"/><circle cx="32" cy="32" fill="#31aae4" r="28"/><path d="m32 4a28 28 0 0 0 -28 28 28 28 0 0 0 .021.586 28 28 0 0 1 27.979-27.586 28 28 0 0 1 27.979 27.414 28 28 0 0 0 .021-.414 28 28 0 0 0 -28-28z" fill="#f4f4f7" opacity=".2"/><path d="m32 11c-12.15 0-22 9.85-22 22s9.85 22 22 22 22-9.85 22-22-9.85-22-22-22zm0 3c10.631 0 19 8.369 19 19-.008 8.838-5.784 16.036-14.362 18.165-.122-.308.027-.637.06-.744.165-.544.282-.777.322-1.53.064-1.194.343-3.087 1.1-3.948.665-.758.792-1.363.805-3.825.011-2.037.034-2.276.296-3.19.446-1.555 1.182-2.653 1.722-3.44.274-.4.711-1.115.972-1.587.261-.473.641-1.11.843-1.416.528-.797 2.206-1.9 2.763-2.162.623-.292 1.11-1.08 1.336-1.764.234-.703.163-1.811-.142-2.218-.18-.24-.094-.282-.555-.282-.421 0-.604-.056-.813-.253-.289-.27-.5-.234-.5.086 0 .251-.932.73-1.044.618-.047-.046 0-.312.107-.59.392-1.022.52-1.672.457-2.332-.103-1.087-.78-2.551-1.15-2.623-.088-.017-.57.312-1.071.734-2.61 2.196-4.594 3.154-5.975 3.988-.66.399-.661.398-1.773.374-1.316-.029-1.087-.02-3.282 1.31-.76.461-1.617 1.44-1.904 1.549-.288.11-1.201-.033-2.044.054-1.73.178-1.794.284-2.441.658-.64.37-.802.645-.666 1.138.133.483.442 1.435 1.294 2.272l.642.832-.494.765c-.273.421-.684 1.2-.913 1.73-.454 1.053-.579 1.25-1.485 2.366-.785.966-2.066 2.356-2.878 3.947-.695 1.362-1.03 1.714-2.305 2.8" opacity=".2"/><path d="m32 10c-12.15 0-22 9.85-22 22s9.85 22 22 22 22-9.85 22-22-9.85-22-22-22zm0 3c10.631 0 19 8.369 19 19-.008 8.838-5.784 16.036-14.362 18.165-.122-.308.027-.637.06-.744.165-.544.282-.777.322-1.53.064-1.194.343-3.087 1.1-3.948.665-.758.792-1.363.805-3.825.011-2.037.034-2.276.296-3.19.446-1.555 1.182-2.653 1.722-3.44.274-.4.711-1.115.972-1.587.261-.473.641-1.11.843-1.416.528-.797 2.206-1.9 2.763-2.162.623-.292 1.11-1.08 1.336-1.764.234-.703.163-1.811-.142-2.218-.18-.24-.094-.282-.555-.282-.421 0-.604-.056-.813-.253-.289-.27-.5-.234-.5.086 0 .251-.932.73-1.044.618-.047-.046 0-.312.107-.59.392-1.022.52-1.672.457-2.332-.103-1.087-.78-2.551-1.15-2.623-.088-.017-.57.312-1.071.734-2.61 2.196-4.594 3.154-5.975 3.988-.66.399-.661.398-1.773.374-1.316-.029-1.087-.02-3.282 1.31-.76.461-1.617 1.44-1.904 1.549-.288.11-1.201-.033-2.044.054-1.73.178-1.794.284-2.441.658-.64.37-.802.645-.666 1.138.133.483.442 1.435 1.294 2.272l.642.832-.494.765c-.273.421-.684 1.2-.913 1.73-.454 1.053-.579 1.25-1.485 2.366-.785.966-2.066 2.356-2.878 3.947-.695 1.362-1.03 1.714-2.305 2.8" fill="#f4f4f7"/></svg>