<svg height="64" width="64" xmlns="http://www.w3.org/2000/svg">
    <rect height="44" opacity=".2" rx="2.8" ry="2.75" transform="scale(-1 1)" width="56" x="-60" y="11"/>
    <rect fill="#ffc543" height="44" rx="2.8" ry="2.75" transform="scale(-1 1)" width="56" x="-60" y="10"/>
    <circle cx="16" cy="39" opacity=".2" r="8"/>
    <circle cx="16" cy="38" fill="#ff5100" r="8"/>
    <path d="M8 14h48v10H8z" fill="#4d4d4d"/>
    <path d="M26 16v8h-6v-8z" fill="#ff5100"/>
    <path d="M37 28a3 3 0 0 0-3 3 3 3 0 0 0 3 3 3 3 0 0 0 3-3 3 3 0 0 0-3-3zm8 0a3 3 0 0 0-3 3 3 3 0 0 0 3 3 3 3 0 0 0 3-3 3 3 0 0 0-3-3zm8 0a3 3 0 0 0-3 3 3 3 0 0 0 3 3 3 3 0 0 0 3-3 3 3 0 0 0-3-3zm-16 8a3 3 0 0 0-3 3 3 3 0 0 0 3 3 3 3 0 0 0 3-3 3 3 0 0 0-3-3zm8 0a3 3 0 0 0-3 3 3 3 0 0 0 3 3 3 3 0 0 0 3-3 3 3 0 0 0-3-3zm8 0a3 3 0 0 0-3 3 3 3 0 0 0 3 3 3 3 0 0 0 3-3 3 3 0 0 0-3-3zm-16 8a3 3 0 0 0-3 3 3 3 0 0 0 3 3 3 3 0 0 0 3-3 3 3 0 0 0-3-3zm8 0a3 3 0 0 0-3 3 3 3 0 0 0 3 3 3 3 0 0 0 3-3 3 3 0 0 0-3-3zm8 0a3 3 0 0 0-3 3 3 3 0 0 0 3 3 3 3 0 0 0 3-3 3 3 0 0 0-3-3z" fill="#4d4d4d"/>
    <path d="M6.8 10C5.25 10 4 11.226 4 12.75v1C4 12.226 5.25 11 6.8 11h50.4c1.55 0 2.8 1.226 2.8 2.75v-1c0-1.524-1.25-2.75-2.8-2.75z" fill="#f4f4f7" opacity=".2"/>
</svg>
