<svg height="64" width="64" xmlns="http://www.w3.org/2000/svg">
    <path d="m7 58 3 3h14v-8h8v-9h14l3-14-3-3H35v-5h17l5-14-3-3H32z" opacity=".2"/>
    <path d="m7 57 3 3h14v-8h8v-9h14l3-14-3-3H35v-5h17l5-14-3-3H32z" fill="#ffc238"/>
    <path d="M7 58h14v-8h8v-9h14l3-14H32v-8h17l5-14H21v8h-8z" opacity=".1"/>
    <path d="M7 57h14v-8h8v-9h14l3-14H32v-8h17l5-14H21v8h-8z" fill="#df3a36"/>
    <path d="M21 4v1h32.643L54 4zm-8 8L7 57h.133L13 13h8v-1zm19 14v1h13.785L46 26z" fill="#f4f4f7" opacity=".2"/>
</svg>
