<svg height="64" viewBox="0 0 16.933 16.933" width="64" xmlns="http://www.w3.org/2000/svg" xmlns:xlink="http://www.w3.org/1999/xlink"><filter id="a" color-interpolation-filters="sRGB" height="1.054" width="1.054" x="-.027" y="-.027"><feGaussianBlur stdDeviation=".16371"/></filter><linearGradient id="b" gradientUnits="userSpaceOnUse" x1="22.944" x2="22.944" y1="9.2068" y2="23.76"><stop offset="0" stop-color="#4d4d4d"/><stop offset="1" stop-color="#1a1a1a"/></linearGradient><filter id="c" color-interpolation-filters="sRGB" height="1.3723" width="1.1521" x="-.076065" y="-.18615"><feGaussianBlur stdDeviation=".52032786"/></filter><linearGradient id="d" gradientUnits="userSpaceOnUse" x1="23.1081" x2="23.1081" y1="14.9103" y2="10.2781"><stop offset="0" stop-color="#a95319"/><stop offset="1" stop-color="#c28e00"/></linearGradient><linearGradient id="e" gradientUnits="userSpaceOnUse" x1="22.9579" x2="22.9579" y1="15.2773" y2="12.0112"><stop offset="0" stop-color="#662800"/><stop offset="1" stop-color="#d65500"/></linearGradient><linearGradient id="f" gradientUnits="userSpaceOnUse" x1="23.0097" x2="23.0097" y1="16.4945" y2="13.6467"><stop offset="0" stop-color="#523e3e"/><stop offset="1" stop-color="#ae7b7b"/></linearGradient><filter id="g" color-interpolation-filters="sRGB" height="1.1167" width="1.0815" x="-.040757" y="-.058373"><feGaussianBlur stdDeviation=".10681541"/></filter><g transform="translate(-14.664 -7.9069)"><rect filter="url(#a)" height="14.552" image-rendering="optimizeSpeed" opacity=".3" ry="3.4395" stroke-opacity=".95294" stroke-width=".083153" width="14.552" x="15.854" y="9.24"/><rect fill="url(#b)" height="14.552" image-rendering="optimizeSpeed" rx="3.44" ry="3.4395" stroke-linecap="round" stroke-width=".52916" width="14.552" x="15.854" y="9.24"/><g fill-rule="evenodd"><path d="m18.386 9.8108c-.1976.00141-.34913.042084-.42581.13229-.32474.36082.23474 1.8583.90225 2.6882-.03433.13732-.05714.27665-.07235.41857-.59234-.4684-1.3341-.75404-2.0624-.75549-.28903-.000582-.57606.04378-.85006.13849 1.097.14197 2.0446.49152 2.9057 1.0728.0097.11822.0264.23482.05219.34933-.69667-.46651-1.547-.74202-2.3678-.72707h-.000517c-.54933.01014-1.084.14823-1.5461.44131 1.1961-.18689 2.3135-.02302 3.3785.38343-.18046.0097-.34762.05662-.4935.13487-.21483-.03767-.43002-.06168-.63922-.06511-.73077-.01199-1.3903.19431-1.7218.68367.68574-.21783 1.3309-.28865 1.9678-.25579-.01947.03048-.03949.06039-.05581.09302h-.05426c-.4871 0-.90174.36132-.90174.81234 0 .63143.64953.97405 1.2449.75756.36082.52318 1.1366.55927 1.4252 0 .43298-.01804 1.1367-.09006 1.2449-.75756.0069-.0433.0047-.08521.0021-.1266h2.2608c-.0902-.18041.03599-.28835.57721-.28835.54123.01804.64937.10795.57721.28835h2.2133c-.0065.0412-.009.08352-.0021.1266.1082.66751.81188.73952 1.2449.75756.2886.55927 1.0644.52318 1.4252 0 .59533.21649 1.2449-.12613 1.2449-.75756 0-.45102-.64917-.81234-.90174-.81234h-.05426c-.01631-.03263-.03634-.06253-.05581-.09302.63686-.03282 1.2822.03801 1.9678.25579-.33149-.48937-.99108-.69566-1.7218-.68367-.20922.0034-.42438.02744-.63922.06511-.14614-.07841-.31363-.12586-.4945-.13539 1.0649-.40634 2.1825-.56978 3.3785-.38291-.46216-.29306-.99728-.43115-1.5466-.44131h-.000516c-.79639-.01447-1.6213.24387-2.3063.68522.02393-.11291.03731-.22709.04547-.34209.84696-.55988 1.7779-.89914 2.8525-1.0382-.274-.09471-.56103-.13907-.85006-.13849-.70814.0014-1.4303.27118-2.0143.71674-.01575-.12847-.03748-.25482-.06873-.37981.63143-.82988 1.1728-2.3454.84799-2.6882-.32474-.34278-1.8042.072207-2.7062.63147-.70359-.36082-1.5514-.57721-2.4535-.57721-.92008 0-1.768.21639-2.4716.57721-.67652-.41945-1.6876-.76799-2.2804-.76376zm3.0561 2.5858c.63143 0 1.1549.52301 1.1549 1.1544 0 .63143-.52353 1.1549-1.1549 1.1549-.63143 0-1.1544-.52353-1.1544-1.1549 0-.63143.52301-1.1544 1.1544-1.1544zm3.392 0c.63143 0 1.1544.52301 1.1544 1.1544 0 .63143-.50497 1.1549-1.1544 1.1549-.63143 0-1.1544-.52353-1.1544-1.1549 0-.63143.52301-1.1544 1.1544-1.1544z" filter="url(#c)" opacity=".15"/><path d="m19.54 12.018h7.1814v2.6458h-7.1814z" fill="#fff"/><g clip-rule="evenodd" stroke-width="0"><path d="m21.441 14.098c.13292 0 .23926-.25257.23926-.57731s-.10634-.57731-.23926-.57731-.23926.25257-.23926.57731.10634.57731.23926.57731z" fill="#c0c81f" stroke="#969c18"/><path d="m28.298 9.7692c-.32474-.34278-1.8041.072163-2.7061.63143-.70359-.36082-1.5515-.57731-2.4536-.57731-.92008 0-1.768.21649-2.4716.57731-.90204-.55927-2.3994-.99225-2.7061-.63143-.32474.36082.23453 1.8582.90204 2.6881-.05412.21649-.0902.43298-.0902.66751 0 .72163.30669 1.3891.82988 1.9304h2.9767c-.0902-.18041.03608-.28865.57731-.28865.54123.01804.64947.10825.57731.28865h2.9767c.52318-.54123.82988-1.2268.82988-1.9304 0-.23453-.03608-.45102-.0902-.66751.63143-.82988 1.1727-2.3453.84792-2.6881zm-6.8555 4.7628c-.63143 0-1.1546-.52318-1.1546-1.1546 0-.63143.52318-1.1546 1.1546-1.1546.63143 0 1.1546.52318 1.1546 1.1546 0 .63143-.52318 1.1546-1.1546 1.1546zm3.3917 0c-.63143 0-1.1546-.52318-1.1546-1.1546 0-.63143.52318-1.1546 1.1546-1.1546.63143 0 1.1546.52318 1.1546 1.1546 0 .63143-.50514 1.1546-1.1546 1.1546z" fill="url(#d)" stroke="#543117"/><path d="m16.728 12.121c-.28903-.000582-.57607.04378-.85007.13849 1.5335.19845 2.7784.7939 3.897 1.8763-.49839-1.1727-1.7944-2.0123-3.0469-2.0148zm12.805 0c-1.2524.0025-2.5484.84218-3.0469 2.0148 1.1185-1.0824 2.3634-1.6779 3.897-1.8763-.274-.09471-.56104-.13907-.85007-.13849zm-13.065.83353c-.54951.01006-1.0844.14815-1.5467.44132 1.7319-.27061 3.3017.18052 4.781 1.0645-.74418-.93024-2.0255-1.528-3.2345-1.5058zm13.324 0c-1.2089-.02214-2.4902.57559-3.2345 1.5058 1.4794-.88401 3.049-1.3351 4.781-1.0645-.4623-.29315-.99715-.43124-1.5467-.44132zm-12.625.89452c-.73077-.01199-1.3903.19431-1.7218.68367 1.5335-.48712 2.868-.27088 4.3476.30644-.62917-.59874-1.6861-.97469-2.6256-.99011zm11.927 0c-.93958.01542-1.9965.39137-2.6256.99011 1.4793-.57731 2.8141-.79355 4.3476-.30644-.33149-.48937-.99106-.69566-1.7218-.68367z" fill="url(#e)" stroke="#461900"/><path d="m18.368 13.774c-.45102 0-.82988.23453-1.0103.59535h-.05412c-.4871 0-.90204.36082-.90204.81184 0 .63143.64947.9742 1.2448.75771.36082.52318 1.1366.55927 1.4252 0 .43298-.01804 1.1366-.0902 1.2448-.75771.07216-.45102-.3969-.81184-.90204-.81184h-.05412c-.14433-.36082-.54122-.59535-.99225-.59535zm9.5256 0c.45102 0 .82988.23453 1.0103.59535h.05412c.25257 0 .90204.36082.90204.81184 0 .63143-.64947.9742-1.2448.75771-.36082.52318-1.1366.55927-1.4252 0-.43298-.01804-1.1366-.0902-1.2448-.75771-.07216-.45102.64947-.81184.90204-.81184h.05412c.14433-.36082.54123-.59535.99225-.59535z" fill="url(#f)" stroke="#3c2c2c"/><path d="m24.794 14.098c.13292 0 .23926-.25257.23926-.57731s-.10634-.57731-.23926-.57731-.23926.25257-.23926.57731.10634.57731.23926.57731z" fill="#c0c81f" stroke="#969c18"/></g></g><path d="m23.396 20.326h2.679c.40385.000519.40385.60604 0 .60656h-2.679c-.40385-.000519-.40385-.60604 0-.60656zm-3.2218-3.2703c-.26612-.28558.14305-.69475.42863-.42863l1.8945 1.8935c.11826.11841.11826.31022 0 .42863l-1.8945 1.8945c-.28558.26608-.69472-.14305-.42863-.42863l1.6802-1.6802z" filter="url(#g)" opacity=".35"/><path d="m23.396 20.142h2.679c.40385.000519.40385.60604 0 .60656h-2.679c-.40385-.000519-.40385-.60604 0-.60656zm-3.2218-3.2703c-.26612-.28558.14305-.69475.42863-.42863l1.8945 1.8935c.11826.11841.11826.31022 0 .42863l-1.8945 1.8945c-.28558.26608-.69472-.14305-.42863-.42863l1.6802-1.6802z" fill="#fff"/><ellipse cx="23.13" cy="15.026" fill="#fff" rx=".72543" ry=".36235"/></g></svg>