<svg height="64" width="64" xmlns="http://www.w3.org/2000/svg"><path d="m4 14.9v40.322a2.781 2.781 0 0 0 2.8 2.778h50.401a2.78 2.78 0 0 0 2.799-2.778v-40.322z" opacity=".2"/><path d="m4 13.9v40.322a2.781 2.781 0 0 0 2.8 2.778h50.401a2.78 2.78 0 0 0 2.799-2.778v-40.322z" fill="#5f5fdf"/><path d="m32 13.944v43.056h25.203a2.78 2.78 0 0 0 2.797-2.778v-40.278z" fill="#f4f4f7" opacity=".2"/><path d="m6.8 7a2.782 2.782 0 0 0 -2.8 2.777v4.223h56v-4.223a2.781 2.781 0 0 0 -2.8-2.777z" fill="#bebed2"/><path d="m25.186 23c.274.007.537.108.742.286l17.684 13.989c.734.637.368 1.82-.605 1.956l-6.858.963 3.214 5.537a2.569 2.569 0 0 1 -.951 3.525l-.69.397a2.597 2.597 0 0 1 -3.542-.947l-3.337-5.75-4.89 3.944c-.753.609-1.893.088-1.894-.866l-.059-21.904c-.002-.635.535-1.146 1.186-1.13z" opacity=".1"/><path d="m25.186 22c.274.007.537.108.742.286l17.684 13.989c.734.637.368 1.82-.605 1.956l-6.858.963 3.214 5.537a2.569 2.569 0 0 1 -.951 3.525l-.69.397a2.597 2.597 0 0 1 -3.542-.947l-3.337-5.75-4.89 3.944c-.753.609-1.893.088-1.894-.866l-.059-21.904c-.002-.635.535-1.146 1.186-1.13z" fill="#33335d"/><path d="m4 14h56v1h-56z" opacity=".2"/><path d="m6.8 7a2.782 2.782 0 0 0 -2.8 2.777v1a2.782 2.782 0 0 1 2.8-2.777h50.4c1.552 0 2.8 1.238 2.8 2.777v-1a2.782 2.782 0 0 0 -2.8-2.777z" fill="#f4f4f7" opacity=".2"/></svg>