<svg height="64" width="64" xmlns="http://www.w3.org/2000/svg" xmlns:xlink="http://www.w3.org/1999/xlink"><linearGradient id="a" gradientTransform="matrix(1.83584 0 0 2 -10.03 -16)" gradientUnits="userSpaceOnUse" x2="0" y1="24" y2="19"><stop offset="0" stop-color="#484848"/><stop offset=".494" stop-color="#505050"/><stop offset="1" stop-color="#484848"/></linearGradient><path d="m4 56v2c0 1.662 1.338 3 3 3h50c1.662 0 3-1.338 3-3v-2c0 1.662-1.338 3-3 3h-50c-1.662 0-3-1.338-3-3z" opacity=".2"/><rect fill="#f4f4f7" height="56" rx="3" width="56" x="4" y="4"/><path d="m7 4c-1.662 0-3 1.338-3 3v1c0-1.662 1.338-3 3-3h50c1.662 0 3 1.338 3 3v-1c0-1.662-1.338-3-3-3z" fill="#f4f4f7" opacity=".1"/><path d="m12.979 22a.988.988 0 0 0 -.979 1v8c0 .554.437 1 .979 1h32.066c1.951 0 3.52-1.544 3.646-3.504a1.377 1.5 0 0 0 1.309-1.496 1.377 1.5 0 0 0 -1.308-1.496c-.125-1.96-1.695-3.504-3.645-3.504z" fill="url(#a)" fill-rule="evenodd"/><path d="m24 32v4h20l8 8v-2l-8-10z" fill="#8d6a3e"/><path d="m28 31a7 7 0 0 0 -7 7 7 7 0 0 0 7 7 7 7 0 0 0 7-7 7 7 0 0 0 -7-7zm1 2.102a5 5 0 0 1 1.775.744l-1.775 1.774v-2.52zm-2 .003v2.516l-1.775-1.775a5 5 0 0 1 1.775-.74zm5.184 2.16a5 5 0 0 1 .718 1.77h-2.488zm-8.366.003 1.768 1.767h-2.49a5 5 0 0 1 .722-1.767zm-.705 3.767h2.473l-1.74 1.74a5 5 0 0 1 -.733-1.74zm7.301 0h2.477a5 5 0 0 1 -.737 1.74zm-3.414 1.415v2.45a5 5 0 0 1 -1.732-.717l1.732-1.734zm2 0 1.734 1.735a5 5 0 0 1 -1.734.71z" fill="#b58a55"/></svg>