<svg xmlns="http://www.w3.org/2000/svg" width="64" height="64" version="1">
    <path style="opacity:.2" d="M7.01 21.723a6.37 6.37 0 0 0-.01.32v21.774a6.372 6.372 0 0 0 3.171 5.513L28.83 60.147a6.319 6.319 0 0 0 6.342 0L53.83 49.33A6.372 6.372 0 0 0 57 43.814v-21.77a6.443 6.443 0 0 0-.014-.242c.014-.002-49.975-.079-49.975-.079z"/>
    <path style="fill:#ffca12" d="M7.01 20.723a6.37 6.37 0 0 0-.01.32v21.774a6.372 6.372 0 0 0 3.171 5.513L28.83 59.147a6.319 6.319 0 0 0 6.342 0L53.83 48.33A6.372 6.372 0 0 0 57 42.814v-21.77a6.443 6.443 0 0 0-.014-.242c.014-.002-49.975-.079-49.975-.079z"/>
    <path style="fill:#ffa81c" d="M32.15 4v.003a6.346 6.443 0 0 0-3.324.858L10.155 15.806A6.346 6.443 0 0 0 7 20.972a6.346 6.443 0 0 0 3.155 5.219l18.671 10.946a6.346 6.443 0 0 0 6.348 0L53.845 26.19A6.346 6.443 0 0 0 57 21.025a6.346 6.443 0 0 0-3.155-5.219L35.174 4.861A6.346 6.443 0 0 0 32.149 4z"/>
    <path style="opacity:.07" d="M32.148 4v.004a6.346 6.443 0 0 0-.148.004v33.976a6.346 6.443 0 0 0 3.172-.847L53.844 26.19A6.346 6.443 0 0 0 57 21.025a6.346 6.443 0 0 0-3.156-5.218L35.172 4.86A6.346 6.443 0 0 0 32.148 4z"/>
    <path style="opacity:.1;fill:#f4f4f7" d="M32.148 4v.004a6.346 6.443 0 0 0-3.32.855L10.156 15.805A6.346 6.443 0 0 0 7 20.973a6.346 6.443 0 0 0 .055.476 6.346 6.443 0 0 1 3.101-4.644L28.828 5.859a6.346 6.443 0 0 1 3.32-.855V5a6.346 6.443 0 0 1 3.024.86l18.672 10.945a6.346 6.443 0 0 1 3.101 4.69 6.346 6.443 0 0 0 .055-.472 6.346 6.443 0 0 0-3.156-5.218L35.172 4.859A6.346 6.443 0 0 0 32.148 4z"/>
    <path style="opacity:.1" d="M7.012 20.723c-.004.07-.006.14-.008.21a6.346 6.443 0 0 1 .021-.21h-.013zm-.01.267L7 21.043v21.773a6.374 6.374 0 0 0 3.172 5.514l18.656 10.816c1.01.586 2.045.871 3.172.854V37.994a6.346 6.443 0 0 1-3.174-.857L10.154 26.19a6.346 6.443 0 0 1-3.152-5.2z"/>
    <path style="opacity:.1" d="M7.055 20.502a6.346 6.443 0 0 0-.055.47 6.346 6.443 0 0 0 3.156 5.22l18.672 10.945a6.346 6.443 0 0 0 6.344 0L53.844 26.19A6.346 6.443 0 0 0 57 21.023a6.346 6.443 0 0 0-.055-.476 6.346 6.443 0 0 1-3.101 4.644L35.172 36.137a6.346 6.443 0 0 1-6.344 0L10.156 25.19a6.346 6.443 0 0 1-3.101-4.689z"/>
</svg>
