<svg height="64" width="64" xmlns="http://www.w3.org/2000/svg">
    <path d="M31.5 5C21 5 9 21.8 9 35.1S16.031 61 31.5 61 54 48.4 54 35.1 42 5 31.5 5z" opacity=".2"/>
    <path d="M31.5 4C21 4 9 20.8 9 34.1S16.031 60 31.5 60 54 47.4 54 34.1 42 4 31.5 4z" fill="#f4f4f7"/>
    <circle cx="31.5" cy="41.5" opacity=".1" r="13.5"/>
    <circle cx="31.5" cy="40.5" fill="#ffb001" r="13.5"/>
    <path d="M31.5 4C21 4 9 20.8 9 34.1c0 .153.014.305.016.459C9.332 21.349 21.14 5 31.5 5c10.359 0 22.168 16.348 22.484 29.559.002-.154.016-.306.016-.46C54 20.8 42 4 31.5 4z" fill="#f4f4f7" opacity=".2"/>
</svg>
