<svg height="64" width="64" xmlns="http://www.w3.org/2000/svg">
    <rect height="56" opacity=".2" rx="2.8" width="56" x="4" y="5"/>
    <rect fill="#3b3f4d" height="56" rx="2.8" width="56" x="4" y="4"/>
    <path d="M18.7 19c-.388 0-.7.308-.7.691V36.31c0 .383.312.691.7.691h2.597A.697.697 0 0 0 22 36.31V23h6.3c.388 0 .7-.355.7-.738v-2.57a.693.693 0 0 0-.7-.692h-6.804zm24.003 10a.697.697 0 0 0-.703.691V43h-6.3c-.388 0-.7.355-.7.738v2.57c0 .384.312.692.7.692h9.6a.694.694 0 0 0 .699-.691V29.69a.693.693 0 0 0-.7-.691z" opacity=".2"/>
    <path d="M18.7 18c-.388 0-.7.309-.7.692v16.616c0 .383.312.692.7.692h2.598a.696.696 0 0 0 .702-.692V22h6.3c.388 0 .7-.355.7-.738v-2.57a.694.694 0 0 0-.7-.692h-6.802z" fill="#f4f4f7"/>
    <path d="M45.3 46c.388 0 .7-.309.7-.692V28.692a.694.694 0 0 0-.7-.692h-2.598a.696.696 0 0 0-.702.692V42h-6.3c-.388 0-.7.355-.7.738v2.57c0 .383.312.692.7.692h6.802z" fill="#ec1a55"/>
    <path d="M6.8 4C5.25 4 4 5.25 4 6.8v1C4 6.25 5.25 5 6.8 5h50.4C58.75 5 60 6.25 60 7.8v-1C60 5.25 58.75 4 57.2 4z" fill="#f4f4f7" opacity=".1"/>
</svg>
