<svg height="64" width="64" xmlns="http://www.w3.org/2000/svg"><path d="m43 60h-29.154c-2.13 0-3.846-1.858-3.846-4.167v-41.666c0-2.309 1.715-4.167 3.846-4.167h42.308c2.13 0 3.846 1.858 3.846 4.167v28.833z" opacity=".2"/><path d="m43 59h-29.154c-2.13 0-3.846-1.858-3.846-4.167v-41.666c0-2.309 1.715-4.167 3.846-4.167h42.308c2.13 0 3.846 1.858 3.846 4.167v28.833z" fill="#f4f4f7"/><path d="m13.846 9c-2.131 0-3.846 1.858-3.846 4.166v1c0-2.308 1.715-4.166 3.846-4.166h42.308c2.131 0 3.846 1.858 3.846 4.166v-1c0-2.308-1.715-4.166-3.846-4.166z" fill="#f4f4f7" opacity=".2"/><path d="m14.5 12a1.5 1.5 0 1 0 0 3 1.5 1.5 0 0 0 0-3zm4.5 0v3h32v-3zm36.5 0a1.5 1.5 0 1 0 0 3 1.5 1.5 0 0 0 0-3zm-41 8a1.5 1.5 0 1 0 0 3 1.5 1.5 0 0 0 0-3zm4.5 0v3h32v-3zm36.5 0a1.5 1.5 0 1 0 0 3 1.5 1.5 0 0 0 0-3zm-41 8a1.5 1.5 0 1 0 0 3 1.5 1.5 0 0 0 0-3zm4.5 0v3h32v-3zm36.5 0a1.5 1.5 0 1 0 0 3 1.5 1.5 0 0 0 0-3zm-41 8a1.5 1.5 0 1 0 0 3 1.5 1.5 0 0 0 0-3zm4.5 0v3h32v-3zm36.5 0a1.5 1.5 0 1 0 0 3 1.5 1.5 0 0 0 0-3zm-41 8a1.5 1.5 0 1 0 0 3 1.5 1.5 0 0 0 0-3zm4.5 0v3h32v-3zm-4.5 8a1.5 1.5 0 1 0 0 3 1.5 1.5 0 0 0 0-3zm4.5 0v3h26v-3z" fill="#b0b0b0"/><path d="m46.924 42c-2.174 0-3.924 1.895-3.924 4.25v12.75l17-17z" fill="#fafafa"/><path d="m21.21 33.81-7 7 1.98 1.979 7-7z" opacity=".1"/><path d="m15.2 40.8 7-7" fill="none" stroke="#6e6e6e" stroke-width="2.8"/><path d="m14.694 39.001a3.212 3.211 0 0 0 -2.206.972l-7.494 7.493a3.212 3.211 0 1 0 4.54 4.541l7.494-7.494a3.212 3.211 0 0 0 -2.334-5.513z" opacity=".1"/><path d="m14.694 38.001a3.212 3.211 0 0 0 -2.206.972l-7.494 7.493a3.212 3.211 0 1 0 4.54 4.541l7.494-7.494a3.212 3.211 0 0 0 -2.334-5.513z" fill="#4f4f4f"/><circle cx="-33" cy="23" fill="#328fff" opacity=".3" r="16.615" transform="scale(-1 1)"/><path d="m33.002 6c-9.929 0-18.002 8.073-18.002 18.002s8.073 17.998 18.002 17.998 17.998-8.07 17.998-17.998c0-9.929-8.07-18.002-17.998-18.002zm-.002 4c7.743 0 14 6.257 14 14s-6.257 14-14 14-14-6.257-14-14 6.257-14 14-14z" opacity=".1"/><path d="m33.002 5c-9.929 0-18.002 8.073-18.002 18.002s8.073 17.998 18.002 17.998 17.998-8.07 17.998-17.998c0-9.929-8.07-18.002-17.998-18.002zm-.002 4c7.743 0 14 6.257 14 14s-6.257 14-14 14-14-6.257-14-14 6.257-14 14-14z" fill="#328fff"/></svg>