<svg height="64" width="64" xmlns="http://www.w3.org/2000/svg">
    <rect height="56" opacity=".2" rx="2.8" width="56" x="4" y="5"/>
    <rect fill="#009688" height="56" rx="2.8" width="56" x="4" y="4"/>
    <path d="M28 17v12h-6l10 11 10-11h-6V17zM14 37v12h36V37h-6v6H20v-6z" opacity=".2"/>
    <g fill="#f4f4f7">
        <path d="M28 16v12h-6l10 11 10-11h-6V16zM14 36v12h36V36h-6v6H20v-6z"/>
        <path d="M6.8 4C5.25 4 4 5.25 4 6.8v1C4 6.25 5.25 5 6.8 5h50.4C58.75 5 60 6.25 60 7.8v-1C60 5.25 58.75 4 57.2 4z" opacity=".2"/>
    </g>
</svg>
