<svg xmlns="http://www.w3.org/2000/svg" width="64" height="64" version="1"><path style="opacity:.2" d="M4 56.2v2C4 59.75 5.25 61 6.8 61h50.4c1.55 0 2.8-1.25 2.8-2.8v-2c0 1.55-1.25 2.8-2.8 2.8H6.8C5.25 59 4 57.75 4 56.2z"/><rect style="fill:#f58411" width="56" height="56" x="4" y="4" rx="2.8" ry="2.8"/><path style="opacity:.2;fill:#f4f4f7" d="M6.8 4C5.25 4 4 5.25 4 6.8v1.003c0-1.551 1.25-2.801 2.8-2.801h50.4c1.55 0 2.8 1.25 2.8 2.8V6.802C60 5.25 58.75 4 57.2 4H6.8z"/><path transform="translate(-2 1) scale(1.99997)" d="M17 8a3 3 0 0 0-3 3c0 .231.044.44.094.656l-3.219 2a3 3 0 1 0 0 4.688l3.219 2c-.05.216-.094.425-.094.656a3 3 0 1 0 1.125-2.344l-3.22-2c.05-.216.095-.425.095-.656 0-.23-.044-.44-.094-.656l3.219-2A3 3 0 1 0 17 8zm7 0a3 3 0 0 0-3 3 3 3 0 0 0 3 3 3 3 0 0 0 3-3 3 3 0 0 0-3-3zm0 10a3 3 0 0 0-3 3 3 3 0 0 0 3 3 3 3 0 0 0 3-3 3 3 0 0 0-3-3z" style="opacity:.2;enable-background:new"/><path transform="translate(-2) scale(1.99997)" d="M17 8a3 3 0 0 0-3 3c0 .231.044.44.094.656l-3.219 2a3 3 0 1 0 0 4.688l3.219 2c-.05.216-.094.425-.094.656a3 3 0 1 0 1.125-2.344l-3.22-2c.05-.216.095-.425.095-.656 0-.23-.044-.44-.094-.656l3.219-2A3 3 0 1 0 17 8zm7 0a3 3 0 0 0-3 3 3 3 0 0 0 3 3 3 3 0 0 0 3-3 3 3 0 0 0-3-3zm0 10a3 3 0 0 0-3 3 3 3 0 0 0 3 3 3 3 0 0 0 3-3 3 3 0 0 0-3-3z" style="fill:#f4f4f7;enable-background:new"/></svg>