<svg xmlns="http://www.w3.org/2000/svg" width="64" height="64"><rect style="opacity:.2" width="56" height="56" x="4" y="5" rx="2.8" ry="2.8"/><rect style="fill:#4f4f4f" width="56" height="56" x="4" y="4" rx="2.8" ry="2.8"/><path style="opacity:.1;fill:#f4f4f7" d="M6.8 4C5.25 4 4 5.25 4 6.8v1C4 6.25 5.25 5 6.8 5h50.4C58.75 5 60 6.25 60 7.8v-1C60 5.25 58.75 4 57.2 4H6.8z"/><path style="opacity:.2" d="M50.867 25.704c.52-.55 1.31-1.026 1.085-1.898-.034-1.138.07-2.29-.054-3.418-2.088 1.117.548-1.614.034-2.496-.007-1.05.462-4.395-1.067-2.37-3.302 3.184-6.62 6.359-9.653 9.802-3.37 2.906-6.328 6.247-9.48 9.374-2.56 2.324-4.918 4.863-7.39 7.28-.416 1.307 1.24 2.3 2.23 3.363.378 1.005 1.812 2.543 2.705 2.766.614-.55 2.557-2.602 2.304-2.104-.395.815-2.322 2.245-1.653 2.647.773-.728-.483.776.632.895 1.576 2.478 3.128-1.51 4.586-2.304 5.54-5.505 11.12-10.97 16.644-16.492.337-1.078.084-2.283.162-3.416.103-.838-.016-1.196-.658-.414-.328.287-1.476 1.237-1.314 1.015 1.12-.789 2.638-2.564 1.745-2.914-.278.238-.62.404-.858.684zm-19.094-9.656c-1.61 1.433-3.057 3.027-4.675 4.452-1.756 1.948-3.754 3.663-5.546 5.583-3.088 3.154-6.295 6.212-9.348 9.385.258 1.01-.566 3.954.98 2.077.559-.39 2.403-2.22 2.288-1.67-.981 1.407-2.657 2.436-3.255 4.035-.078 3.73-.076 7.494.019 11.207 1.516-.482 2.696-2.611 4.082-3.69 2.28-2.34 4.657-4.582 6.83-7.022 2.536-1.835 4.135-4.675 6.687-6.505 3.524-3.45 7.137-6.885 10.468-10.488-1.163-.759-1.854-2.018-2.997-2.97-.74.386-2.24 2.225-1.03.387 1.064-1.238-.017-.23-.598.101 1.273-.922.607-2.032-.717-2.29.048-1.192-1.312-1.623-1.757-1.704.443-1.726-1.329.382-.99-1.049.056-.345-.524-.048-.441.161zM21.14 23.48c-2.96-2.892-5.867-5.84-8.815-8.74-.588.377-.175 1.405-.299 2.067.026 1.22-.052 2.448.04 3.662.555.848.855 1.114.096.509.395.577.514.989-.082.17-.393.832 1.84 2.745.212 1.266-.529-.403-.153 1.22-.266 1.716.037 2.148-.073 4.328.054 6.456.523.355 1.048 1.622 1.532.584 1.96-1.994 4.002-3.932 5.907-5.961-.285-.493-1.446-1.826-.278-.651.644 1.08 1.234-.423 1.846-.809.082-.123.281-.146.053-.27zm29.4 11.066-7.919 7.92c.794 1.033 1.94 1.923 2.853 2.913 1.999 1.95 3.924 4 5.982 5.875.728.122.301-1.338.333-1.845-.594-.573-2.124-2.228-2.013-2.205.723.323 2.462 2.803 2.175.958v-7.486c-.319-.608-2.131-2.386-.65-1.085.984 1.39.563-.592.65-1.247v-2.93c-.448-.122-.943-1.553-1.41-.868z"/><path style="fill:#f4f4f7" d="M50.867 24.704c.52-.55 1.31-1.026 1.085-1.899-.034-1.137.07-2.29-.054-3.417-2.088 1.117.548-1.614.034-2.496-.007-1.05.462-4.395-1.067-2.37-3.302 3.184-6.62 6.359-9.653 9.802-3.37 2.905-6.328 6.247-9.48 9.374-2.56 2.324-4.918 4.863-7.39 7.28-.416 1.307 1.24 2.3 2.23 3.363.378 1.004 1.812 2.543 2.705 2.766.614-.55 2.557-2.602 2.304-2.104-.395.814-2.322 2.245-1.653 2.647.773-.728-.483.776.632.895 1.576 2.478 3.128-1.51 4.586-2.304 5.54-5.505 11.12-10.97 16.644-16.492.337-1.079.084-2.284.162-3.417.103-.838-.016-1.195-.658-.413-.328.287-1.476 1.237-1.314 1.015 1.12-.789 2.638-2.564 1.745-2.914-.278.238-.62.404-.858.684zm-19.094-9.656c-1.61 1.433-3.057 3.027-4.675 4.451-1.756 1.949-3.754 3.664-5.546 5.584-3.088 3.154-6.295 6.211-9.348 9.385.258 1.01-.566 3.953.98 2.077.559-.39 2.403-2.22 2.288-1.671-.981 1.407-2.657 2.437-3.255 4.035-.078 3.73-.076 7.495.019 11.208 1.516-.482 2.696-2.611 4.082-3.69 2.28-2.34 4.657-4.582 6.83-7.023 2.536-1.834 4.135-4.674 6.687-6.504 3.524-3.45 7.137-6.885 10.468-10.488-1.163-.759-1.854-2.018-2.997-2.97-.74.386-2.24 2.225-1.03.387 1.064-1.238-.017-.23-.598.101 1.273-.922.607-2.033-.717-2.29.048-1.193-1.312-1.623-1.757-1.704.443-1.726-1.329.382-.99-1.049.056-.345-.524-.049-.441.16zM21.14 22.48c-2.96-2.892-5.867-5.84-8.815-8.74-.588.377-.175 1.405-.299 2.067.026 1.22-.052 2.448.04 3.662.555.848.855 1.114.096.508.395.578.514.99-.082.17-.393.833 1.84 2.746.212 1.266-.529-.402-.153 1.222-.266 1.717.037 2.148-.073 4.328.054 6.456.523.355 1.048 1.622 1.532.583 1.96-1.993 4.002-3.931 5.907-5.96-.285-.493-1.446-1.826-.278-.651.644 1.08 1.234-.423 1.846-.809.082-.123.281-.146.053-.27zm29.4 11.066-7.919 7.92c.794 1.033 1.94 1.923 2.853 2.913 1.999 1.95 3.924 4 5.982 5.875.728.122.301-1.338.333-1.845-.594-.573-2.124-2.228-2.013-2.205.723.323 2.462 2.802 2.175.958v-7.486c-.319-.608-2.131-2.386-.65-1.085.984 1.39.563-.593.65-1.247v-2.93c-.448-.122-.943-1.553-1.41-.868z"/></svg>