<svg height="64" width="64" xmlns="http://www.w3.org/2000/svg">
    <path d="M32 61c11 0 28-6 28-17 0-12-1-39-17-39-14 0-16 11-22 17-7 7-17 11-17 22s17 17 28 17z" opacity=".2"/>
    <path d="M32 60c11 0 28-6 28-17 0-12-1-39-17-39-14 0-16 11-22 17-7 7-17 11-17 22s17 17 28 17z" fill="#efefef"/>
    <path d="M35 25s.2-3 3-3h11c2.8 0 3 3 3 3 0 5-3 8-9 8-5 0-8-3-8-8z" opacity=".1"/>
    <path d="M35 24s.2-3 3-3h11c2.8 0 3 3 3 3 0 5-3 8-9 8-5 0-8-3-8-8z" fill="#275b7b"/>
    <circle cx="38" cy="16" opacity=".1" r="3"/>
    <circle cx="38" cy="15" fill="#31739b" r="3"/>
    <circle cx="49" cy="16" opacity=".1" r="3"/>
    <circle cx="49" cy="15" fill="#31739b" r="3"/>
    <path d="M43 4C29 4 27 15 21 21 14 28 4 32 4 43c0 .127.013.25.018.375C4.39 32.849 14.135 28.865 21 22c6-6 8-17 22-17 15.7 0 16.947 25.92 16.988 38.232.002-.078.012-.153.012-.232 0-12-1-39-17-39z" fill="#f4f4f7" opacity=".2"/>
</svg>
