<svg height="64" width="64" xmlns="http://www.w3.org/2000/svg"><circle cx="32" cy="33" opacity=".2" r="28"/><circle cx="32" cy="32" fill="#846847" r="28"/><circle cx="32" cy="33" opacity=".2" r="22"/><circle cx="32" cy="32" fill="#a4946c" r="22"/><path d="m32 11-4.57 13.715-7.43-3.715 3.715 7.43-13.715 4.57 13.715 4.57-3.715 7.43 7.43-3.715 4.57 13.715 4.57-13.715 7.43 3.715-3.715-7.43 13.715-4.57-13.715-4.57 3.715-7.43-7.43 3.715z" opacity=".1"/><path d="m20 20 12 12h-6z" fill="#d8cbb8"/><path d="m20 20 12 12v-6z" fill="#5d472e"/><path d="m44 44-12-12h6z" fill="#d8cbb8"/><path d="m44 44-12-12v6z" fill="#5d472e"/><path d="m44 20-12 12v-6z" fill="#d8cbb8"/><path d="m44 20-12 12h6z" fill="#5d472e"/><path d="m20 44 12-12v6z" fill="#d8cbb8"/><path d="m20 44 12-12h-6z" fill="#5d472e"/><path d="m32 10v22l-5.5-5.5z" fill="#d8cbb8"/><path d="m32 10v22l5.5-5.5z" fill="#5d472e"/><path d="m32 54v-22l5.5 5.5z" fill="#d8cbb8"/><path d="m32 54v-22l-5.5 5.5z" fill="#5d472e"/><path d="m54 32h-22l5.5-5.5z" fill="#d8cbb8"/><path d="m54 32h-22l5.5 5.5z" fill="#5d472e"/><path d="m10 32h22l-5.5 5.5z" fill="#d8cbb8"/><path d="m10 32h22l-5.5-5.5z" fill="#5d472e"/><path d="m32 4a28 28 0 0 0 -28 28 28 28 0 0 0 .018.492 28 28 0 0 1 27.982-27.492 28 28 0 0 1 27.975 27.492 28 28 0 0 0 .025-.492 28 28 0 0 0 -28-28z" fill="#f4f4f7" opacity=".1"/></svg>