<svg height="64" width="64" xmlns="http://www.w3.org/2000/svg"><rect height="56" opacity=".2" rx="2.8" width="56" x="4" y="5"/><rect fill="#568156" height="56" rx="2.8" width="56" x="4" y="4"/><g fill-rule="evenodd"><path d="m9 28v6h6v-6z" opacity=".2"/><path d="m9 27v6h6v-6z" fill="#17191e"/><path d="m49 28v6h6v-6z" opacity=".2"/><path d="m49 27v6h6v-6z" fill="#17191e"/><path d="m24 38v3h15v-3zm15 3v3h4v3h-22.9v-3h3.9v-3h-7v6h-3v7h3v-4h26v5h3.2v-14h-3.2z" opacity=".2"/><path d="m24 37v3h15v-3zm15 3v3h4v3h-22.9v-3h3.9v-3h-7v6h-3v7h3v-4h26v5h3.2v-14h-3.2z" fill="#17191e"/><path d="m24 41v3h-4v3h23v-3h-4v-3z" opacity=".2"/><path d="m24 40v3h-4v3h23v-3h-4v-3z" fill="#c03c3c"/><path d="m24 40v1h15v-1zm-4 3v1h4v-1zm19 0v1h4v-1z" fill="#f4f4f7" opacity=".1"/></g><path d="m6.8 4c-1.55 0-2.8 1.25-2.8 2.8v1c0-1.55 1.25-2.8 2.8-2.8h50.4c1.55 0 2.8 1.25 2.8 2.8v-1c0-1.55-1.25-2.8-2.8-2.8z" fill="#f4f4f7" opacity=".2"/></svg>