<svg xmlns="http://www.w3.org/2000/svg" height="64" width="64"><rect style="opacity:.2" ry="4" height="14" width="47" y="32" x="8"/><rect style="fill:#d01818" ry="4" height="14" width="47" y="31" x="8"/><path style="opacity:.1;fill:#f4f4f7" d="M12 31c-2.216 0-4 1.784-4 4v1c0-2.216 1.784-4 4-4h39c2.216 0 4 1.784 4 4v-1c0-2.216-1.784-4-4-4H12z"/><path style="opacity:.2" d="M32 5c-20 0-20 9-20 9v36l20 11 19-11V14s0-9-19-9z"/><path style="fill:#f15555" d="M32 4c-20 0-20 9-20 9v36l20 11 19-11V13s0-9-19-9z"/><path style="opacity:.2" d="M26 15v17H12v14h14v11.7l6 3.3 6-3.475V46h13V32H38V15l-6 7z"/><path style="fill:#f4f4f7" d="M26 14v17H12v14h14v11.7l6 3.3 6-3.475V45h13V31H38V14l-6 7-6-7z"/><path style="fill:#17191e" d="M18.078 33.385A5 5 0 0 0 15 38a5 5 0 0 0 5 5 5 5 0 0 0 5-5l-6.922-4.615zm27.27.207L38 38a5 5 0 0 0 5 5 5 5 0 0 0 5-5 5 5 0 0 0-2.652-4.408z"/><path style="opacity:.2;fill:#f4f4f7" d="M32 4c-20 0-20 9-20 9v1s0-9 20-9c19 0 19 9 19 9v-1s0-9-19-9z"/></svg>