<svg height="64" width="64" xmlns="http://www.w3.org/2000/svg">
    <rect height="58" opacity=".2" rx="2.9" transform="matrix(0 -1 -1 0 0 0)" width="58" x="-62" y="-61"/>
    <rect fill="#ac4cc7" height="58" rx="2.9" transform="matrix(0 -1 -1 0 0 0)" width="58" x="-61" y="-61"/>
    <g stroke-width="2">
        <g opacity=".2">
            <rect height="44" rx="3" ry="2.75" width="6" x="29" y="11"/>
            <rect height="28" rx="3" ry="2.8" width="6" x="19" y="19"/>
            <rect height="40" rx="3" ry="2.858" width="6" x="39" y="13"/>
            <rect height="32" rx="3" ry="2.666" width="6" x="9" y="17"/>
            <rect height="32" rx="3" ry="2.666" width="6" x="49" y="17"/>
        </g>
        <g fill="#a8cce3">
            <rect height="44" rx="3" ry="2.75" width="6" x="29" y="10"/>
            <rect height="28" rx="3" ry="2.8" width="6" x="19" y="18"/>
            <rect height="40" rx="3" ry="2.858" width="6" x="39" y="12"/>
            <rect height="32" rx="3" ry="2.666" width="6" x="9" y="16"/>
            <rect height="32" rx="3" ry="2.666" width="6" x="49" y="16"/>
        </g>
    </g>
    <path d="M5.898 3A2.891 2.891 0 0 0 3 5.898v1A2.891 2.891 0 0 1 5.898 4h52.204A2.891 2.891 0 0 1 61 6.898v-1A2.891 2.891 0 0 0 58.102 3z" fill="#f4f4f7" opacity=".2"/>
</svg>
