<svg xmlns="http://www.w3.org/2000/svg" width="64" height="64"><path style="opacity:.2" d="M32 5A28 28 0 0 0 4 33a28 28 0 0 0 28 28 28 28 0 0 0 28-28A28 28 0 0 0 32 5z"/><path style="fill:#23b7fb" d="M32 4A28 28 0 0 0 4 32a28 28 0 0 0 28 28 28 28 0 0 0 28-28A28 28 0 0 0 32 4z"/><path style="opacity:.2" d="m16 21 16 16 16-16H16zm32 3.039-10.48 10.48L48 45V24.039zm-32 .002V45l10.48-10.48L16 24.04zm11.895 11.893L18.828 45h26.344l-9.067-9.066-1.826 1.826c-1.013 1.012-3.545 1.012-4.558 0l-1.826-1.826z"/><path style="fill:#a7ffe8" d="m16 20 16 16 16-16H16zm32 3.039-10.48 10.48L48 44V23.039zm-32 .002V44l10.48-10.48L16 23.04zm11.895 11.893L18.828 44h26.344l-9.067-9.066-1.826 1.826c-1.013 1.012-3.545 1.012-4.558 0l-1.826-1.826z"/><path style="opacity:.2;fill:#f4f4f7" d="M32 4A28 28 0 0 0 4 32a28 28 0 0 0 .021.406A28 28 0 0 1 32 5a28 28 0 0 1 27.979 27.578A28 28 0 0 0 60 32 28 28 0 0 0 32 4z"/></svg>