<svg xmlns="http://www.w3.org/2000/svg" width="64" height="64" version="1"><rect style="opacity:.2" width="56" height="56" x="4" y="5" rx="2.8" ry="2.8"/><path style="fill:#4f4f4f" d="M6.8 4A2.794 2.794 0 0 0 4 6.8v39.34h56V6.8C60 5.249 58.751 4 57.2 4z"/><path style="opacity:.2" d="M41.292 11c-2.182 0-2.074.116-3.187 1.922C34.9 18.13 32.28 22.16 32.1 22.16c-.117 0-.722-.821-1.343-1.825-.622-1.004-1.228-1.889-1.349-1.966-.12-.078-.307-.389-.415-.69-.109-.302-.518-1.033-.91-1.624a58.57 58.57 0 0 1-.894-1.38c-1.321-2.213-1.802-2.95-2.1-3.222-.312-.283-.861-.331-4.54-.394-3.503-.06-4.186-.03-4.186.184 0 .431 1.884 3.132 2.32 3.324.258.114.45.402.52.782.093.491 2.095 3.77 3.883 6.354.658.952 2.624 3.954 3.212 4.905.31.503.679 1.006.818 1.119.14.113.452.573.694 1.023.241.45.735 1.23 1.097 1.732.362.503.943 1.398 1.29 1.989.347.59.806 1.191 1.021 1.335.215.144.491.504.614.801.122.297.277.54.344.54.066 0 1.719-2.402 3.672-5.339 1.954-2.936 3.916-5.37 4.035-5.41.166-.056.217 1.864.217 8.142 0 4.519.054 8.271.121 8.338.067.067 1.634.122 3.808.122 2.884 0 3.72-.027 3.97-.184V11.869c-.046-.468-.137-.574-.316-.67-.536-.288-.89-.243-1.3.169-.455.458-.583.458-.867 0-.212-.341-.424-.366-3.139-.366L41.292 11zm-24.846 3.843c-.274 0-.445 2.199-.446 5.748 0 2.308.046 2.782.307 3.071.289.321.289.374 0 .866-.441.75-.398 1.572.101 1.924l.41.29-.352.59c-.327.549-.355 1.034-.395 6.99-.031 4.721.014 6.437.17 6.539.117.075 1.973.117 4.125.093l3.645-.046.047-7.819.048-7.82-.665-1.005c-.3-.606-.658-1.126-.957-1.614-.225-.54-1.23-2.123-3.01-4.744-.832-1.224-1.65-1.579-1.658-.72-.003.267-.028.272-.18.035-.097-.15-.177-.58-.179-.953-.003-.676-.534-1.425-1.01-1.425zm25.415 2.99c.229.01.338.234.338.68 0 .563-.224.662-.773.34-.426-.25-.404-.659.049-.902.154-.083.282-.123.386-.118zm-.46 2.705c.086-.008.157.003.193.039.053.052.042.183-.024.29-.148.24-.827.26-.827.025 0-.147.398-.332.658-.354zm4.902 1.805c.044 0 .08.082.08.183 0 .1-.086.183-.192.183-.106 0-.142-.083-.08-.183.062-.1.148-.183.192-.183zm1.54.534a.19.19 0 0 1 .103.061c.059.06.072.258.028.442-.075.32-.085.32-.22.007-.116-.269-.048-.529.088-.51zm-21.101 2.247c.117.008.174.2.174.588 0 .73-.04.773-.357.39-.262-.318-.19-.863.13-.97a.139.139 0 0 1 .053-.007zm-7.123 5.482c.179-.012.346.21.413.59.086.492-.261.549-.547.089-.173-.279-.185-.444-.044-.586a.281.281 0 0 1 .178-.093zm-.832 1.362c.053 0 .115.006.186.02.338.064.41.172.343.523-.066.345-.2.44-.61.44-.288 0-.524.083-.524.184 0 .1-.215.183-.477.183-.417 0-.447-.037-.235-.294.133-.161.43-.365.66-.452.229-.088.416-.274.416-.413 0-.126.082-.19.241-.191zm13.829.325a.203.203 0 1 1-.142.309.205.205 0 0 1 .141-.309zM22.33 33.598c.115-.014.22.041.228.177.005.1-.127.211-.294.246-.19.04-.273-.029-.222-.183a.356.356 0 0 1 .288-.24z"/><path style="fill:#f4f4f7" d="M41.292 10c-2.182 0-2.074.116-3.187 1.922C34.9 17.13 32.28 21.16 32.1 21.16c-.117 0-.722-.821-1.343-1.825-.622-1.004-1.228-1.889-1.349-1.966-.12-.078-.307-.389-.415-.69-.109-.302-.518-1.033-.91-1.624a58.57 58.57 0 0 1-.894-1.38c-1.321-2.213-1.802-2.95-2.1-3.222-.312-.283-.861-.331-4.54-.394-3.503-.06-4.186-.03-4.186.184 0 .431 1.884 3.132 2.32 3.324.258.114.45.402.52.782.093.491 2.095 3.77 3.883 6.354.658.952 2.624 3.954 3.212 4.905.31.503.679 1.006.818 1.119.14.113.452.573.694 1.023.241.45.735 1.23 1.097 1.732.362.503.943 1.398 1.29 1.989.347.59.806 1.191 1.021 1.335.215.144.491.504.614.801.122.297.277.54.344.54.066 0 1.719-2.402 3.672-5.339 1.954-2.936 3.916-5.37 4.035-5.41.166-.056.217 1.864.217 8.142 0 4.519.054 8.271.121 8.338.067.067 1.634.122 3.808.122 2.884 0 3.72-.027 3.97-.184V10.869c-.046-.468-.137-.574-.316-.67-.536-.288-.89-.243-1.3.169-.455.458-.583.458-.867 0-.212-.341-.424-.366-3.139-.366L41.292 10zm-24.846 3.843c-.274 0-.445 2.199-.446 5.748 0 2.308.046 2.782.307 3.071.289.321.289.374 0 .866-.441.75-.398 1.572.101 1.924l.41.29-.352.59c-.327.549-.355 1.034-.395 6.99-.031 4.721.014 6.437.17 6.539.117.075 1.973.117 4.125.093l3.645-.046.047-7.819.048-7.82-.665-1.005c-.3-.606-.658-1.126-.957-1.614-.225-.54-1.23-2.123-3.01-4.744-.832-1.224-1.65-1.579-1.658-.72-.003.267-.028.272-.18.035-.097-.15-.177-.58-.179-.953-.003-.676-.534-1.425-1.01-1.425zm25.415 2.99c.229.01.338.234.338.68 0 .563-.224.662-.773.34-.426-.25-.404-.659.049-.902.154-.083.282-.123.386-.118zm-.46 2.705c.086-.008.157.003.193.039.053.052.042.183-.024.29-.148.24-.827.26-.827.025 0-.147.398-.332.658-.354zm4.902 1.805c.044 0 .08.082.08.183 0 .1-.086.183-.192.183-.106 0-.142-.083-.08-.183.062-.1.148-.183.192-.183zm1.54.534a.19.19 0 0 1 .103.061c.059.06.072.258.028.442-.075.32-.085.32-.22.007-.116-.269-.048-.529.088-.51zm-21.101 2.247c.117.008.174.2.174.588 0 .73-.04.773-.357.39-.262-.318-.19-.863.13-.97a.139.139 0 0 1 .053-.007zm-7.123 5.482c.179-.012.346.21.413.59.086.492-.261.549-.547.089-.173-.279-.185-.444-.044-.586a.281.281 0 0 1 .178-.093zm-.832 1.362c.053 0 .115.006.186.02.338.064.41.172.343.523-.066.345-.2.44-.61.44-.288 0-.524.083-.524.184 0 .1-.215.183-.477.183-.417 0-.447-.037-.235-.294.133-.161.43-.365.66-.452.229-.088.416-.274.416-.413 0-.126.082-.19.241-.191zm13.829.325a.203.203 0 1 1-.142.309.205.205 0 0 1 .141-.309zM22.33 32.598c.115-.014.22.041.228.177.005.1-.127.211-.294.246-.19.04-.273-.029-.222-.183a.356.356 0 0 1 .288-.24z"/><path style="fill:#f4be01" d="M4 46v11.2C4 58.751 5.249 60 6.8 60h50.4c1.551 0 2.8-1.249 2.8-2.8V46z"/><path style="fill:#17191e" d="M15.207 49q1.49 0 2.196.571.717.56.717 1.704 0 .638-.235 1.064-.235.426-.605.683-.358.258-.762.393L18.714 57h-1.176l-1.939-3.305h-1.59V57H13v-8zm-.056.874h-1.143v2.97h1.2q.974 0 1.422-.382.448-.392.448-1.143 0-.784-.47-1.109-.47-.336-1.457-.336zM25.47 57H21v-8h4.47v.885h-3.462v2.499h3.26v.874h-3.26v2.857h3.463zM34.409 52.922q0 2.028-1.11 3.058Q32.203 57 30.23 57H28v-8h2.465q1.199 0 2.084.448.896.448 1.378 1.322.482.874.482 2.152zm-1.064.033q0-1.602-.796-2.342-.784-.75-2.23-.75h-1.31v6.274h1.086q3.25 0 3.25-3.182zM42.077 49v5.105q0 .818-.331 1.48-.332.653-1.017 1.04-.685.375-1.723.375-1.481 0-2.244-.796Q36 55.398 36 54.083V49h.994v5.116q0 .961.509 1.492.52.53 1.558.53 1.072 0 1.547-.563.486-.575.486-1.47V49zM50.287 57H49.16l-2.089-3.425L44.95 57H43.9l2.619-4.11-2.453-3.78h1.105l1.933 3.094 1.945-3.094h1.05l-2.442 3.757z"/><path style="opacity:.2;fill:#f4f4f7" d="M4 46h56v1H4z"/><path style="fill:#f4f4f7;opacity:.1" d="M6.8 4C5.25 4 4 5.25 4 6.8v1C4 6.25 5.25 5 6.8 5h50.4C58.75 5 60 6.25 60 7.8v-1C60 5.25 58.75 4 57.2 4H6.8z"/></svg>