<svg xmlns="http://www.w3.org/2000/svg" width="64" height="64" version="1"><path style="opacity:.2" d="M32 61A27.999 27.999 0 0 1 4 33.001a27.999 27.999 0 0 1 .044-1.172A27.999 27.999 0 0 0 31.999 59a27.999 27.999 0 0 0 27.955-26.827 27.999 27.999 0 0 1 .044.828A27.999 27.999 0 0 1 31.999 61z"/><rect style="fill:#8ac249" width="56" height="56" x="4" y="4" rx="27.999" ry="27.999"/><path style="opacity:.1" d="M51.78 12.22 12.218 51.78a27.91 27.91 0 0 0 39.56 0 27.913 27.913 0 0 0 0-39.561z"/><path style="fill:#f2f2f2" d="m12.22 51.78 17.308-22.253 2.342 2.342 2.603 2.603z"/><path style="fill:#f34235" d="M51.78 12.22 29.525 29.53l4.945 4.945z"/><path style="opacity:.2;fill:#f4f4f7" d="M51.78 12.22 12.218 51.78a27.913 27.913 0 0 1 0-39.561 27.913 27.913 0 0 1 39.56 0z"/><path style="opacity:.2;fill:#f4f4f7" d="M32 4.002a27.999 27.999 0 0 0-28 28 27.999 27.999 0 0 0 .018.492A27.999 27.999 0 0 1 32 5.002a27.999 27.999 0 0 1 27.975 27.49A27.999 27.999 0 0 0 60 32 27.999 27.999 0 0 0 32 4.002z"/></svg>