<svg height="64" width="64" xmlns="http://www.w3.org/2000/svg"><rect height="56" opacity=".2" rx="3" width="56" x="4" y="5"/><rect fill="#7ec242" height="56" rx="3" width="56" x="4" y="4"/><path d="m22 20v20c0 4 3 6 6 6h14c3.324 0 5-1.676 5-5v-13c0-2.499-2.568-4-5-4-1.473 0-2.577.657-3.531 1.635-.953-.978-1.996-1.635-3.469-1.635-2.636 0-5 1.537-5 4v10h3v-9c0-1.243.757-2 2-2s2 .757 2 2v9h3v-9c0-1.243.757-2 2-2s2 .757 2 2v12c0 1.662-.338 2-2 2h-14c-2 0-3-2-3-4v-19z" opacity=".2"/><path d="m22 19v20c0 4 3 6 6 6h14c3.324 0 5-1.676 5-5v-13c0-2.499-2.568-4-5-4-1.473 0-2.577.657-3.531 1.635-.953-.978-1.996-1.635-3.469-1.635-2.636 0-5 1.537-5 4v10h3v-9c0-1.243.757-2 2-2s2 .757 2 2v9h3v-9c0-1.243.757-2 2-2s2 .757 2 2v12c0 1.662-.338 2-2 2h-14c-2 0-3-2-3-4v-19z" fill="#f4f4f7"/><path d="m9 14v12h6v12c0 8 5 15 13 15h26v-25c0-8.226-6.774-13.96-15-14zm3 3h27c6.615 0 12 4.385 12 11v22h-23c-6 0-10-6-10-12v-11c0-2.965-1.152-4-4-4h-2z" opacity=".2"/><g fill="#f4f4f7"><path d="m9 13v12h6v12c0 8 5 15 13 15h26v-25c0-8.226-6.774-13.96-15-14zm3 3h27c6.615 0 12 4.385 12 11v22h-23c-6 0-10-6-10-12v-11c0-2.965-1.152-4-4-4h-2z"/><path d="m7 4c-1.662 0-3 1.338-3 3v1c0-1.662 1.338-3 3-3h50c1.662 0 3 1.338 3 3v-1c0-1.662-1.338-3-3-3z" opacity=".2"/></g></svg>