<svg xmlns="http://www.w3.org/2000/svg" width="64" height="64" version="1"><circle style="opacity:.2" cx="32" cy="33" r="28"/><circle style="fill:#f4f4f7" cx="32" cy="32" r="28"/><g style="opacity:.1"><path d="M24 37.5v-9l8-4.5 8 4.5v9L32 42zM33.085 13.713v7.912l8.266 4.487 6.888-4.133zM30.33 13.713v7.912l-8.266 4.487-6.888-4.133zM49.581 24.01l-6.852 3.955.248 9.402L50 41.266zM14.418 24.01l6.853 3.956-.248 9.401-7.023 3.9zM33.085 52.287v-7.912l8.266-4.487 6.888 4.133zM30.33 52.287v-7.912l-8.266-4.487-6.888 4.133z"/></g><path style="fill:#d6ac12" d="M24 36.5v-9l8-4.5 8 4.5v9L32 41z"/><path style="fill:#8fb635" d="M33.085 12.713v7.912l8.266 4.487 6.888-4.133z"/><path style="fill:#3895bd" d="M30.33 12.713v7.912l-8.266 4.487-6.888-4.133z"/><path style="fill:#d18c3b" d="m49.581 23.01-6.852 3.955.248 9.402L50 40.266z"/><path style="fill:#3941bf" d="m14.418 23.01 6.853 3.956-.248 9.401L14 40.266z"/><path style="fill:#a02c35" d="M33.085 51.287v-7.912l8.266-4.487 6.888 4.133z"/><path style="fill:#bb3a84" d="M30.33 51.287v-7.912l-8.266-4.487-6.888 4.133z"/><path style="opacity:.2;fill:#f4f4f7" d="M32 4A28 28 0 0 0 4 32a28 28 0 0 0 .021.586A28 28 0 0 1 32 5a28 28 0 0 1 27.979 27.414A28 28 0 0 0 60 32 28 28 0 0 0 32 4z"/></svg>