<svg height="64" width="64" xmlns="http://www.w3.org/2000/svg">
    <circle cx="32" cy="33" opacity=".2" r="28"/>
    <circle cx="32" cy="32" fill="#e4accb" r="28"/>
    <path d="M32 4A28 28 0 0 0 4 32a28 28 0 0 0 .021.586A28 28 0 0 1 32 5a28 28 0 0 1 27.979 27.414A28 28 0 0 0 60 32 28 28 0 0 0 32 4z" fill="#f4f4f7" opacity=".2"/>
    <circle cx="32" cy="33" opacity=".2" r="20"/>
    <circle cx="32" cy="32" fill="#f4f4f7" r="20"/>
    <path d="M4 44h11V33l3 3 3-3v11h11l-3-22-8-3-3 3-3-3-8 3z" opacity=".1"/>
    <path d="M4 43h11V32l3 3 3-3v11h11l-3-22-8-3-3 3-3-3-8 3z" fill="#f48b97"/>
    <path d="M35 11v11l5-11zm-6 5 3 6v-6zm14 0-3 6 6-3zm-9 6a13 11 0 0 0-13 11 13 11 0 0 0 13 11 13 11 0 0 0 13-11 13 11 0 0 0-13-11zm-.5 8a4.5 3 0 0 1 4.5 3 4.5 3 0 0 1-4.5 3 4.5 3 0 0 1-4.5-3 4.5 3 0 0 1 4.5-3z" opacity=".1"/>
    <path d="m15 18-8 3-3 22h.137L7 22l8-3 3 3 3-3 8 3 2.863 21H32l-3-22-8-3-3 3z" fill="#f4f4f7" opacity=".2"/>
    <path d="M35 10v11l5-11zm-6 5 3 6v-6zm14 0-3 6 6-3zm-9 6a13 11 0 0 0-13 11 13 11 0 0 0 13 11 13 11 0 0 0 13-11 13 11 0 0 0-13-11zm-.5 8a4.5 3 0 0 1 4.5 3 4.5 3 0 0 1-4.5 3 4.5 3 0 0 1-4.5-3 4.5 3 0 0 1 4.5-3z" fill="#a9cc37"/>
    <path d="m39 47 2-28 19-3v9H49v2h6v7h-6v5h9l2 8z" opacity=".1"/>
    <path d="M35 10v1h4.545L40 10zm-6 5 .5 1H32v-1zm14 0-3 6 .666-.334L43 16l2.334 2.334L46 18zm-9 6a13 11 0 0 0-2 .145V22l-.402-.805A13 11 0 0 0 21 32a13 11 0 0 0 .025.422A13 11 0 0 1 34 22a13 11 0 0 1 12.975 10.578A13 11 0 0 0 47 32a13 11 0 0 0-11.582-10.922L35 22v-.965A13 11 0 0 0 34 21zm3.934 11.49A4.5 3 0 0 1 33.5 35a4.5 3 0 0 1-4.434-2.49A4.5 3 0 0 0 29 33a4.5 3 0 0 0 4.5 3 4.5 3 0 0 0 4.5-3 4.5 3 0 0 0-.066-.51z" fill="#f4f4f7" opacity=".2"/>
    <path d="m39 46 2-28 19-3v9H49v2h6v7h-6v5h9l2 8z" fill="#90ccf2"/>
    <path d="m60 15-19 3-2 28h.072L41 19l19-3zM49 26v1h6v-1zm0 12v1h9l1.75 7H60l-2-8z" fill="#f4f4f7" opacity=".2"/>
</svg>
