<svg height="64" width="64" xmlns="http://www.w3.org/2000/svg"><path d="m4.05 32c-.011.334-.05.662-.05 1 0 15.512 12.488 28 28 28s28-12.488 28-28c0-.338-.04-.666-.05-1-.528 15.042-12.776 27-27.95 27s-27.422-11.958-27.95-27z" opacity=".2"/><rect fill="#469ed7" height="56" rx="28" width="56" x="4" y="4"/><path d="m40 19-16 19 8 7 6-6v8h8v-28z" opacity=".2"/><path d="m40 18-16 19 8 7 6-6v8h8v-28z" fill="#abfaff"/><path d="m34 33-8 7-8 7v-28l8 7z" opacity=".2"/><g fill="#f4f4f7"><path d="m34 32-8 7-8 7v-28l8 7z"/><path d="m32 4c-15.51 0-27.996 12.488-27.996 28 0 .113.011.224.017.336.352-15.202 12.691-27.336 27.979-27.336h.002c15.287 0 27.627 12.134 27.978 27.336.007-.112.018-.223.018-.336 0-15.512-12.486-28-27.996-28z" opacity=".2"/></g></svg>