<svg height="64" width="64" xmlns="http://www.w3.org/2000/svg"><path d="m13.625 53c2.123 4.55 4.749 8 7.375 8 6 0 8-2 12-2s6 2 12 2c2.622 0 5.22-3.463 7.336-8z" opacity=".2"/><path d="m13.625 52c2.123 4.55 4.749 8 7.375 8 6 0 8-2 12-2s6 2 12 2c2.622 0 5.22-3.463 7.336-8z" fill="#009bda"/><path d="m10.734 45c.776 2.745 1.737 5.528 2.891 8h38.71a52.79 52.79 0 0 0 2.579-6.734 12 12 0 0 1 -2.5-1.266z" opacity=".2"/><path d="m10.734 44c.776 2.745 1.737 5.528 2.891 8h38.71a52.79 52.79 0 0 0 2.579-6.734 12 12 0 0 1 -2.5-1.266z" fill="#953c96"/><path d="m9.379 39c.289 1.865.764 3.909 1.355 6h41.68a12 12 0 0 1 -4.715-6z" opacity=".2"/><path d="m9.379 38c.289 1.865.764 3.909 1.355 6h41.68a12 12 0 0 1 -4.715-6z" fill="#de393d"/><path d="m9.496 31a17.295 17.295 0 0 0 -.496 4c0 1.146.15 2.527.379 4h38.32a12 12 0 0 1 -.699-4 12 12 0 0 1 .703-4z" opacity=".2"/><path d="m9.496 30a17.295 17.295 0 0 0 -.496 4c0 1.146.15 2.527.379 4h38.32a12 12 0 0 1 -.699-4 12 12 0 0 1 .703-4z" fill="#f4811e"/><path d="m12.059 25a19.288 19.288 0 0 0 -2.563 6h38.207a12 12 0 0 1 4.68-6z" opacity=".2"/><path d="m12.059 24a19.288 19.288 0 0 0 -2.563 6h38.207a12 12 0 0 1 4.68-6z" fill="#fbb625"/><path d="m43 5s-4 0-8 4-4 10-4 10 6 0 10-6c1.569-2.353 2-8 2-8zm-22 14c-3.32 0-6.638 2.456-8.941 6h40.324a12 12 0 0 1 1.105-.656c-2.274-3.185-5.378-5.344-8.488-5.344-8 0-8 2-12 2s-4-2-12-2z" opacity=".2"/><path d="m43 4s-4 0-8 4-4 10-4 10 6 0 10-6c1.569-2.353 2-8 2-8zm-22 14c-3.32 0-6.638 2.456-8.941 6h40.324a12 12 0 0 1 1.105-.656c-2.274-3.185-5.378-5.344-8.488-5.344-8 0-8 2-12 2s-4-2-12-2z" fill="#60ba45"/><path d="m43 4s-4 0-8 4-4 10-4 10l.063-.002c.187-1.876.937-5.999 3.937-8.998 3.847-3.847 7.605-3.985 7.895-3.99.07-.607.105-1.01.105-1.01zm-22 14c-6 0-12 8-12 16 0 .16.017.349.021.518.235-7.836 6.1-15.518 11.979-15.518 8 0 8 2 12 2s4-2 12-2c2.876 0 5.737 1.858 7.951 4.654a12 12 0 0 1 .537-.31c-2.274-3.185-5.378-5.344-8.488-5.344-8 0-8 2-12 2s-4-2-12-2zm26.023 16.533a12 12 0 0 0 -.023.467 12 12 0 0 0 7.621 11.143c.095-.294.203-.583.293-.877a12 12 0 0 1 -7.89-10.733z" fill="#f4f4f7" opacity=".2"/></svg>