<svg height="64" width="64" xmlns="http://www.w3.org/2000/svg"><rect height="56" opacity=".2" rx="2.8" transform="matrix(0 -1 -1 0 0 0)" width="56" x="-61" y="-60.01"/><rect fill="#f4f4f7" height="56" rx="2.8" width="56" x="4" y="4"/><g fill="none" stroke-linecap="round" stroke-linejoin="round" stroke-width="6"><path d="m4.08 22c21-1.128 22.744 16.46 30.295 23.504 6.105 5.696 20.105 8.496 25.705 8.496" opacity=".2" stroke="#000"/><path d="m4.08 21c21-1.128 22.744 16.46 30.295 23.504 6.105 5.696 20.105 8.496 25.705 8.496" stroke="#4a61cc"/><path d="m37.085 22.478s-3.16 1.861-3.523 3.443c-.545 2.368.723 5.115 2.384 6.888 1.867 1.992 6.625 3.246 7.55 3.178 5.43-.397 7.344-3.06 8.82-6.092 1.024-2.105.426-4.787-.273-7.02-2.006-5.266-7.214-8.226-11.064-8.676-3.449-.354-5.845 3.767-5.828 3.77l-2.119 2.648" opacity=".2" stroke="#000"/><path d="m37.085 21.478s-3.16 1.861-3.523 3.443c-.545 2.368.723 5.115 2.384 6.888 1.867 1.992 6.625 3.246 7.55 3.178 5.43-.397 7.344-3.06 8.82-6.092 1.024-2.105.426-4.787-.273-7.02-2.006-5.266-7.214-8.226-11.064-8.676-3.449-.354-5.845 3.767-5.828 3.77l-2.119 2.648" stroke="#e84343"/></g><path d="m6.807 4c-1.552 0-2.801 1.25-2.801 2.8v1c0-1.55 1.25-2.8 2.8-2.8h50.4c1.55 0 2.8 1.25 2.8 2.8v-1c0-1.55-1.25-2.8-2.8-2.8h-50.4z" fill="#f4f4f7" opacity=".2"/></svg>