<svg xmlns="http://www.w3.org/2000/svg" width="64" height="64" version="1"><path style="opacity:.2" d="m4.643 34.548 25.809 25.809c.857.857 2.239.857 3.096 0l25.809-25.809a2.185 2.185 0 0 0 0-3.096L33.548 5.643a2.185 2.185 0 0 0-3.096 0L4.643 31.452a2.185 2.185 0 0 0 0 3.096zm-.137 5.669 20.277 20.277c.674.675 1.76.675 2.434 0l20.277-20.277a1.717 1.717 0 0 0 0-2.434L27.217 17.506a1.717 1.717 0 0 0-2.434 0L4.506 37.783a1.717 1.717 0 0 0 0 2.434zm12 0 20.277 20.277c.674.675 1.76.675 2.434 0l20.277-20.277a1.717 1.717 0 0 0 0-2.434L39.217 17.506a1.717 1.717 0 0 0-2.434 0L16.506 37.783a1.717 1.717 0 0 0 0 2.434z"/><rect style="fill:#4bae4f" width="32.118" height="32.118" x="29.2" y="-24.54" rx="1.721" ry="1.721" transform="scale(1 -1) rotate(-45)"/><rect style="fill:#4bae4f" width="32.118" height="32.118" x="37.68" y="-16.06" rx="1.721" ry="1.721" transform="scale(1 -1) rotate(-45)"/><rect style="fill:#f58411" width="40.878" height="40.878" x="24.82" y="-20.44" rx="2.19" ry="2.19" transform="scale(1 -1) rotate(-45)"/><path style="opacity:.2;fill:#f4f4f7" d="M32.001 4c-.56 0-1.12.214-1.549.643L4.644 30.45a2.175 2.175 0 0 0-.579 2.047c.09-.383.279-.747.579-1.047L30.452 5.643a2.184 2.184 0 0 1 3.096 0L59.356 31.45c.3.3.488.664.579 1.047a2.175 2.175 0 0 0-.579-2.047L33.548 4.643A2.178 2.178 0 0 0 32 4z"/><path d="M33.538 42.31c1.437-.126 2.215-.688 2.965-1.387.763-.7 1.1-1.34 1.1-2.548 0-1.094-.33-2.335-1.081-3.098-.75-.763-1.535-1.428-2.984-1.822zm-2.033-21.647c-1.31.09-2.518.625-3.243 1.3-.724.66-.822 1.517-.822 2.636 0 1.018.066 1.897.727 2.57.674.675 1.914.946 3.338 1.366zm-8.13 21.648v-4.92h2.032c.051 1.742.63 2.49 1.596 3.38.967.89 2.595 1.502 4.502 1.54v-8.856c-2.925-.814-5.17-2.292-6.352-3.348-1.183-1.068-1.778-2.48-1.778-4.235 0-2.034.704-3.668 2.102-4.902 1.4-1.233 3.536-2.122 6.028-2.275v-4.92h2.033v4.92c1.284.102 2.202.508 3.385.825 1.195.306 2.597.72 3.729 1.24v4.823h-2.033c-.153-1.475-.952-2.464-1.83-3.316-.877-.852-1.75-1.49-3.251-1.604v8.856c3.128.852 5 1.752 6.246 2.858 1.259 1.094 1.884 2.186 1.884 4.03 0 2.11-.733 4.179-2.208 5.45-1.476 1.272-3.24 2.23-5.922 2.422v4.92h-2.033v-4.92c-1.22-.026-2.677-.431-3.987-.762-1.31-.318-2.719-.57-4.143-1.206z" transform="matrix(.98397 0 0 1.0163 0 1)" style="font-size:39.06629181px;line-height:1.25;font-family:'DejaVu Serif';letter-spacing:0;word-spacing:0;opacity:.2"/><g style="font-size:39.06629181px;line-height:1.25;font-family:'DejaVu Serif';letter-spacing:0;word-spacing:0;fill:#f4f4f7"><path style="fill:#f4f4f7" d="M33.538 42.31c1.437-.126 2.215-.688 2.965-1.387.763-.7 1.1-1.34 1.1-2.548 0-1.094-.33-2.335-1.081-3.098-.75-.763-1.535-1.428-2.984-1.822zm-2.033-21.647c-1.31.09-2.518.625-3.243 1.3-.724.66-.822 1.517-.822 2.636 0 1.018.066 1.897.727 2.57.674.675 1.914.946 3.338 1.366zm-8.13 21.648v-4.92h2.032c.051 1.742.63 2.49 1.596 3.38.967.89 2.595 1.502 4.502 1.54v-8.856c-2.925-.814-5.17-2.292-6.352-3.348-1.183-1.068-1.778-2.48-1.778-4.235 0-2.034.704-3.668 2.102-4.902 1.4-1.233 3.536-2.122 6.028-2.275v-4.92h2.033v4.92c1.284.102 2.202.508 3.385.825 1.195.306 2.597.72 3.729 1.24v4.823h-2.033c-.153-1.475-.952-2.464-1.83-3.316-.877-.852-1.75-1.49-3.251-1.604v8.856c3.128.852 5 1.752 6.246 2.858 1.259 1.094 1.884 2.186 1.884 4.03 0 2.11-.733 4.179-2.208 5.45-1.476 1.272-3.24 2.23-5.922 2.422v4.92h-2.033v-4.92c-1.22-.026-2.677-.431-3.987-.762-1.31-.318-2.719-.57-4.143-1.206z" transform="scale(.98397 1.0163)"/></g></svg>