<svg height="64" width="64" xmlns="http://www.w3.org/2000/svg"><circle cx="32" cy="33" opacity=".2" r="28"/><circle cx="32" cy="32" fill="#8e8e8e" r="28"/><path d="m31.951 21.994-4.379 15.117-3.252-8.107h-6.32v2.994h4.48l4.38 10.996h1.94l5.21-17.998h8.99v-3.002zm1.494 8.006 4.762 6.1-5.207 6.9h2.6l3.9-5.232 3.9 5.232h2.6l-5.102-6.777 4.85-6.223h-2.598l-3.552 4.555-3.558-4.555z" opacity=".2"/><g fill="#f4f4f7"><path d="m31.951 20.994-4.379 15.117-3.252-8.107h-6.32v2.994h4.48l4.38 10.996h1.94l5.21-17.998h8.99v-3.002zm1.494 8.006 4.762 6.1-5.207 6.9h2.6l3.9-5.232 3.9 5.232h2.6l-5.102-6.777 4.85-6.223h-2.598l-3.552 4.555-3.558-4.555h-2.596z"/><path d="m32 4a28 28 0 0 0 -28 28 28 28 0 0 0 .021.586 28 28 0 0 1 27.979-27.586 28 28 0 0 1 27.979 27.414 28 28 0 0 0 .021-.414 28 28 0 0 0 -28-28z" opacity=".2"/></g></svg>