<svg height="64" width="64" xmlns="http://www.w3.org/2000/svg">
    <rect height="56" opacity=".2" rx="28" width="56" x="4" y="5"/>
    <rect fill="#3b82ad" height="56" rx="28" width="56" x="4" y="4"/>
    <path d="M55.92 40.214c-4 2.378-9.99 3.73-16.675 3.73-12.043 0-21.806-4.9-21.806-10.944 0-6.045 9.763-10.945 21.806-10.945 6.71 0 12.724 1.378 16.724 3.77-4.366-4.007-12.194-6.824-21.145-6.825C21.115 18.998 10.001 25.264 10 32.996S21.11 46.998 34.82 47c8.915.002 16.723-2.806 21.1-6.786" opacity=".2"/>
    <g fill="#f4f4f7">
        <path d="M55.92 39.214c-4 2.378-9.99 3.73-16.675 3.73-12.043 0-21.806-4.9-21.806-10.944 0-6.045 9.763-10.945 21.806-10.945 6.71 0 12.724 1.378 16.724 3.77-4.366-4.007-12.194-6.824-21.145-6.825C21.115 17.998 10.001 24.264 10 31.996S21.11 45.998 34.82 46c8.915.002 16.723-2.806 21.1-6.786"/>
        <path d="M32 4C16.488 4 4 16.488 4 32c0 .113.011.224.018.336C4.369 17.134 16.71 5 32 5s27.63 12.134 27.982 27.336c.007-.112.018-.223.018-.336C60 16.488 47.512 4 32 4z" opacity=".2"/>
    </g>
</svg>
