<svg height="64" width="64" xmlns="http://www.w3.org/2000/svg">
    <circle cx="32" cy="33" opacity=".2" r="28"/>
    <circle cx="32" cy="32" fill="#2a4986" r="28"/>
    <path d="M18.768 8.35a28 28 0 0 0-6.874 5.206l38.85 23.573L9.105 16.91a28 28 0 0 0-3.866 7.864l46.763 15.8" opacity=".2"/>
    <g fill="#f4f4f7">
        <path d="M18.768 7.35a28 28 0 0 0-6.874 5.206l38.85 23.573L9.105 15.91a28 28 0 0 0-3.866 7.864l46.763 15.8"/>
        <path d="M32 4A28 28 0 0 0 4 32a28 28 0 0 0 .018.492A28 28 0 0 1 32 5a28 28 0 0 1 27.975 27.492A28 28 0 0 0 60 32 28 28 0 0 0 32 4z" opacity=".1"/>
    </g>
</svg>
