<svg xmlns="http://www.w3.org/2000/svg" width="64" height="64" version="1"><path style="opacity:.2" d="M60 33a28 28 0 0 1-28 28A28 28 0 0 1 4 33 28 28 0 0 1 32 5a28 28 0 0 1 28 28z"/><path style="fill:#17191e" d="M60 32a28 28 0 0 1-28 28A28 28 0 0 1 4 32 28 28 0 0 1 32 4a28 28 0 0 1 28 28z"/><path style="opacity:.2" d="M32 5a28 28 0 0 0-6.16.723L32 31.602 38.164 5.71A28 28 0 0 0 32 5zm20.547 9.02L33.21 32.3l25.5-7.605a28 28 0 0 0-6.164-10.675zm-41.09.007a28 28 0 0 0-6.195 10.66l25.527 7.614zM30.789 33.7l-25.5 7.606a28 28 0 0 0 6.16 10.675zm2.422 0 19.332 18.274a28 28 0 0 0 6.195-10.66zM32 34.4l-6.164 25.89A28 28 0 0 0 32 61a28 28 0 0 0 6.16-.723z"/><path style="fill:#ff5454" d="M32 4a28 28 0 0 0-6.16.722L32 30.6l6.163-25.89A28 28 0 0 0 32 4z"/><path style="fill:#fff129" d="M52.549 13.02 33.21 31.3l25.498-7.604a28 28 0 0 0-6.16-10.675z"/><path style="fill:#c552da" d="M11.457 13.026a28 28 0 0 0-6.194 10.662L30.79 31.3z"/><path style="fill:#336eef" d="M30.789 32.7 5.29 40.304a28 28 0 0 0 6.16 10.675z"/><path style="fill:#45cb32" d="m33.211 32.7 19.332 18.274a28 28 0 0 0 6.194-10.661z"/><path style="fill:#00d4ea" d="m32 33.4-6.163 25.89A28 28 0 0 0 32 60a28 28 0 0 0 6.16-.722z"/><path style="opacity:.1;fill:#f4f4f7" d="M32 4A28 28 0 0 0 4 32a28 28 0 0 0 .018.492A28 28 0 0 1 32 5a28 28 0 0 1 27.975 27.492A28 28 0 0 0 60 32 28 28 0 0 0 32 4z"/><path style="opacity:.1;fill:#f4f4f7" d="M32 4a28 28 0 0 0-6.16.723l.226.949A28 28 0 0 1 32 5a28 28 0 0 1 5.936.67l.228-.96A28 28 0 0 0 32 4zm20.549 9.021L33.21 31.301l1.545-.461L52.549 14.02a28 28 0 0 1 5.83 9.772l.33-.098a28 28 0 0 0-6.16-10.674zm-41.092.004a28 28 0 0 0-6.193 10.662l.306.092a28 28 0 0 1 5.887-9.754L29.244 30.84l1.545.46-19.332-18.275zM30.789 32.7 5.291 40.305a28 28 0 0 0 .33.902l23.623-7.047 1.545-1.46zm2.422 0 1.545 1.461 23.674 7.06a28 28 0 0 0 .306-.907l-25.525-7.614zM32 33.4l-6.164 25.89a28 28 0 0 0 .228.04L32 34.4l5.934 24.928a28 28 0 0 0 .226-.05L32 33.4z"/></svg>