<svg xmlns="http://www.w3.org/2000/svg" width="64" height="64"><rect style="opacity:.2" width="56" height="56" x="4" y="5" rx="4.2" ry="4.2"/><rect style="fill:#f4f4f7" width="56" height="56" x="4" y="4" rx="4.2" ry="4.2"/><path style="opacity:.1" d="M43.5 13c-3.618 0-6.5 2.986-6.5 6.5s2.882 6.5 6.5 6.5 6.5-2.986 6.5-6.5-2.882-6.5-6.5-6.5zm-28 .03c-1.934 0-3.5 1.64-3.5 3.663 0 1.054.426 2.006 1.105 2.674h-.002l5.317 5.362 5.474-5.362A3.741 3.741 0 0 0 25 16.693c0-2.023-1.566-3.664-3.5-3.664-1.273 0-2.389.713-3 1.778-.611-1.065-1.727-1.778-3-1.778zm28 3.87c1.401 0 2.6 1.077 2.6 2.6 0 1.523-1.199 2.6-2.6 2.6s-2.6-1.077-2.6-2.6c0-1.523 1.199-2.6 2.6-2.6zM20.01 35.973c-1.76-.037-2.674 2.083-1.44 3.338l2.55 2.664H13.7c-2.267-.124-2.267 4.119 0 3.996h7.42l-2.55 2.664c-1.937 1.89 1.031 4.73 2.834 2.71l7.055-7.372-7.055-7.373a1.962 1.962 0 0 0-1.394-.627zM39.5 38a2.5 2.5 0 1 0 0 5 2.5 2.5 0 0 0 0-5zm8 0a2.5 2.5 0 1 0 0 5 2.5 2.5 0 0 0 0-5zm-8 8a2.5 2.5 0 1 0 0 5 2.5 2.5 0 0 0 0-5zm8 0a2.5 2.5 0 1 0 0 5 2.5 2.5 0 0 0 0-5z"/><path style="fill:#5b5b5b" d="M43.5 12c-3.618 0-6.5 2.986-6.5 6.5s2.882 6.5 6.5 6.5 6.5-2.986 6.5-6.5-2.882-6.5-6.5-6.5zm-28 .03c-1.934 0-3.5 1.64-3.5 3.663 0 1.054.426 2.006 1.105 2.674h-.002l5.317 5.362 5.474-5.362A3.741 3.741 0 0 0 25 15.693c0-2.023-1.566-3.664-3.5-3.664-1.273 0-2.389.713-3 1.778-.611-1.065-1.727-1.778-3-1.778zm28 3.87c1.401 0 2.6 1.077 2.6 2.6 0 1.523-1.199 2.6-2.6 2.6s-2.6-1.077-2.6-2.6c0-1.523 1.199-2.6 2.6-2.6zM20.01 34.973c-1.76-.037-2.674 2.083-1.44 3.338l2.55 2.664H13.7c-2.267-.124-2.267 4.119 0 3.996h7.42l-2.55 2.664c-1.937 1.89 1.031 4.73 2.834 2.71l7.055-7.372-7.055-7.373a1.962 1.962 0 0 0-1.394-.627zM39.5 37a2.5 2.5 0 1 0 0 5 2.5 2.5 0 0 0 0-5zm8 0a2.5 2.5 0 1 0 0 5 2.5 2.5 0 0 0 0-5zm-8 8a2.5 2.5 0 1 0 0 5 2.5 2.5 0 0 0 0-5zm8 0a2.5 2.5 0 1 0 0 5 2.5 2.5 0 0 0 0-5z"/><path style="fill:#f4f4f7;opacity:.2" d="M8.2 4A4.19 4.19 0 0 0 4 8.2v1A4.19 4.19 0 0 1 8.2 5h47.6A4.19 4.19 0 0 1 60 9.2v-1A4.19 4.19 0 0 0 55.8 4H8.2z"/></svg>