<svg height="64" width="64" xmlns="http://www.w3.org/2000/svg">
    <path d="M6.953 11C4.763 11 3 12.784 3 15v36c0 2.216 1.762 4 3.953 4h50.094C59.237 55 61 53.216 61 51V15c0-2.216-1.762-4-3.953-4z" opacity=".2"/>
    <path d="M6.955 10C4.764 10 3 11.785 3 14.001V32h58V14.001C61 11.785 59.236 10 57.045 10z" fill="#8dc5ff"/>
    <path d="M6.955 54C4.764 54 3 52.215 3 49.999V32h58v17.999C61 52.215 59.236 54 57.045 54z" fill="#ffd948"/>
    <path d="M24.028 17.002c-5.074.097-9.466 4.633-6.935 14.465-4.435.857-7.805 5.827-5.158 15.725 5.898-6.006 7.223-2.076 11.905-3.007 1.171 2.373 3.735 4.82 8.184 6.815.645-1.784 3.365-4.465 5.163-7.14 5.136 2.33 7.61-1.386 12.681 5.977 5.232-8.43 3.23-13.92-1.043-16.07 3.937-11.259-7.541-15.778-15.862-11.694-2.144-3.36-5.673-5.134-8.935-5.071zm-.323 11.846c1.318.043 2.527.47 4.084.495 5.756 4.772 8.824 3.39 12.127 4.203a13.067 13.067 0 0 0-4.336 2.656c-1.199-.461-2.78-.833-4.825-1.09-1.605-.202-3.064.052-4.273.63-2.185-3.003-5.39-4.54-8.324-4.405 2.438-2.081 4.068-2.537 5.547-2.489z" fill-rule="evenodd" opacity=".1"/>
    <path d="M24.028 16.002c-5.074.097-9.466 4.633-6.935 14.465-4.435.857-7.805 5.827-5.158 15.725 5.898-6.006 7.223-2.076 11.905-3.007 1.171 2.373 3.735 4.82 8.184 6.815.645-1.784 3.365-4.465 5.163-7.14 5.136 2.33 7.61-1.386 12.681 5.977 5.232-8.43 3.23-13.92-1.043-16.07 3.937-11.259-7.541-15.778-15.862-11.694-2.144-3.36-5.673-5.134-8.935-5.071zm-.323 11.846c1.318.043 2.527.47 4.084.495 5.756 4.772 8.824 3.39 12.127 4.203a13.067 13.067 0 0 0-4.336 2.656c-1.199-.461-2.78-.833-4.825-1.09-1.605-.202-3.064.052-4.273.63-2.185-3.003-5.39-4.54-8.324-4.405 2.438-2.081 4.068-2.537 5.547-2.489z" fill="#777f23" fill-rule="evenodd"/>
    <path d="M39.734 50.884c-1.881 1.236-6.72-7.783-10.107-9.55-3.694.867-8.24 8.183-10.098 6.845-2.126-1.53.484-10.968 1.709-13.031 1.578-2.66-9.083-2.87-8.184-5.12.887-2.22 9.638-4.27 12.394-4.654 1-2.637 3.588-6.79 7.129-6.34 3.54.45 5.515 5.545 6.25 8.158 3.68.622 9.71 3.092 10.161 5.481.446 2.357-12.174 1.949-10.566 4.682 1.174 1.996 2.72 12.214 1.312 13.53z" opacity=".1"/>
    <path d="M39.734 49.884c-1.881 1.236-6.72-7.783-10.107-9.55-3.694.867-8.24 8.183-10.098 6.845-2.126-1.53.484-10.968 1.709-13.031 1.578-2.66-9.083-2.87-8.184-5.12.887-2.22 9.638-4.27 12.394-4.654 1-2.637 3.588-6.79 7.129-6.34 3.54.45 5.515 5.545 6.25 8.158 3.68.622 9.71 3.092 10.161 5.481.446 2.357-12.174 1.949-10.566 4.682 1.174 1.996 2.72 12.214 1.312 13.53z" fill="#ff793f"/>
    <ellipse cx="35.304" cy="27.846" opacity=".2" rx="6.994" ry="5.008" transform="matrix(.99518 .09809 -.14846 .98892 0 0)"/>
    <path d="m32 32.08 2.756-5.766M28 32.08l-2.603-4.394m4.89 1.834.278-7.921" fill="none" stroke="#ffffe0" stroke-linecap="round" stroke-width=".653"/>
    <path d="M6.953 10C4.763 10 3 11.784 3 14v1c0-2.216 1.762-4 3.953-4h50.094C59.237 11 61 12.784 61 15v-1c0-2.216-1.762-4-3.953-4z" fill="#f4f4f7" opacity=".2"/>
</svg>
