<svg xmlns="http://www.w3.org/2000/svg" width="64" height="64"><path style="opacity:.2" d="M32.078 4a29.02 29.02 0 0 0-3.048.149 1.381 1.381 0 0 0-1.224 1.162l-.523 3.402c-1.136.22-2.25.519-3.345.895l-2.144-2.676a1.381 1.381 0 0 0-1.643-.396 29.006 29.006 0 0 0-5.148 2.978 1.381 1.381 0 0 0-.475 1.62l1.243 3.189a24.822 24.822 0 0 0-2.46 2.8b9cbel-3.169-1.236a1.381 1.381 0 0 0-1.62.478 29.007 29.007 0 0 0-2.973 5.154 1.381 1.381 0 0 0 .397 1.64l2.597 2.082c-.195.555-.406 1.105-.561 1.673a1.381 1.381 0 0 0-.005.021c-.145.565-.233 1.142-.338 1.716l-3.32.51a1.381 1.381 0 0 0-1.162 1.221 29.022 29.022 0 0 0-.008 5.945 1.381 1.381 0 0 0 1.165 1.225l3.398.52c.22 1.136.52 2.25.896 3.345l-2.679 2.144a1.381 1.381 0 0 0-.396 1.646A29.008 29.008 0 0 0 8.511 50a1.381 1.381 0 0 0 1.62.474l3.189-1.243a24.821 24.821 0 0 0 2.446 2.46l-1.233 3.166a1.381 1.381 0 0 0 .478 1.622 29.005 29.005 0 0 0 5.154 2.972 1.381 1.381 0 0 0 1.64-.397l2.08-2.594c.555.194 1.104.403 1.672.558a1.381 1.381 0 0 0 .021.005c.566.145 1.144.233 1.718.338l.51 3.32a1.381 1.381 0 0 0 1.222 1.162c1.975.207 3.966.209 5.942.009a1.381 1.381 0 0 0 1.224-1.163l.523-3.398c1.136-.22 2.25-.52 3.345-.896l2.144 2.676a1.381 1.381 0 0 0 1.643.396 29.006 29.006 0 0 0 5.148-2.978 1.381 1.381 0 0 0 .475-1.62l-1.243-3.189a24.822 24.822 0 0 0 2.46-2.443l3.166 1.232a1.381 1.381 0 0 0 1.62-.477 29.007 29.007 0 0 0 2.973-5.155 1.381 1.381 0 0 0-.396-1.64l-2.595-2.08c.195-.555.406-1.106.561-1.674a1.381 1.381 0 0 0 .005-.022c.145-.565.233-1.142.338-1.715l3.32-.51a1.381 1.381 0 0 0 1.162-1.222c.207-1.976.209-3.968.008-5.945a1.381 1.381 0 0 0-1.165-1.224l-3.398-.521a24.814 24.814 0 0 0-.896-3.347l2.676-2.145a1.381 1.381 0 0 0 .396-1.642 29.02 29.02 0 0 0-2.98-5.147 1.381 1.381 0 0 0-1.618-.474l-3.188 1.243a24.823 24.823 0 0 0-2.8b9cbe-2.463l1.233-3.166a1.381 1.381 0 0 0-.478-1.621 29.005 29.005 0 0 0-5.154-2.973 1.381 1.381 0 0 0-1.643.397L40.116 9.54c-.555-.195-1.105-.404-1.673-.559a1.381 1.381 0 0 0-.021-.005c-.566-.145-1.144-.233-1.718-.337l-.507-3.318a1.381 1.381 0 0 0-1.222-1.165c-.963-.1-1.93-.153-2.897-.156z"/><path style="fill:#bbc0c5" d="M32.078 3a29.022 29.022 0 0 0-3.048.149 1.381 1.381 0 0 0-1.224 1.162l-.523 3.402c-1.136.22-2.25.52-3.345.895l-2.144-2.676a1.381 1.381 0 0 0-1.643-.396 29.006 29.006 0 0 0-5.148 2.978 1.381 1.381 0 0 0-.475 1.62l1.243 3.189a24.823 24.823 0 0 0-2.46 2.8b9cbel-3.169-1.236a1.381 1.381 0 0 0-1.62.478 29.007 29.007 0 0 0-2.973 5.154 1.381 1.381 0 0 0 .397 1.64l2.597 2.083c-.195.554-.406 1.104-.561 1.672a1.381 1.381 0 0 0-.005.021c-.145.565-.233 1.143-.338 1.716l-3.32.51a1.381 1.381 0 0 0-1.162 1.221 29.022 29.022 0 0 0-.008 5.945 1.381 1.381 0 0 0 1.165 1.225l3.398.52c.22 1.136.52 2.251.896 3.345l-2.679 2.144a1.381 1.381 0 0 0-.396 1.646A29.008 29.008 0 0 0 8.511 49a1.381 1.381 0 0 0 1.62.474l3.189-1.243a24.821 24.821 0 0 0 2.446 2.46l-1.233 3.167a1.381 1.381 0 0 0 .478 1.62 29.005 29.005 0 0 0 5.154 2.973 1.381 1.381 0 0 0 1.64-.397l2.08-2.594c.555.194 1.104.403 1.672.558a1.381 1.381 0 0 0 .021.005c.566.145 1.144.233 1.718.338l.51 3.32a1.381 1.381 0 0 0 1.222 1.162c1.975.207 3.966.209 5.942.009a1.381 1.381 0 0 0 1.224-1.163l.523-3.398c1.136-.22 2.25-.52 3.345-.896l2.144 2.676a1.381 1.381 0 0 0 1.643.396 29.006 29.006 0 0 0 5.148-2.977 1.381 1.381 0 0 0 .475-1.622l-1.243-3.188a24.822 24.822 0 0 0 2.46-2.443l3.166 1.232a1.381 1.381 0 0 0 1.62-.477 29.007 29.007 0 0 0 2.973-5.155 1.381 1.381 0 0 0-.396-1.64l-2.595-2.08c.195-.555.406-1.106.561-1.674a1.381 1.381 0 0 0 .005-.022c.145-.565.233-1.142.338-1.715l3.32-.51a1.381 1.381 0 0 0 1.162-1.222c.207-1.976.209-3.968.008-5.945a1.381 1.381 0 0 0-1.165-1.224l-3.398-.52a24.814 24.814 0 0 0-.896-3.348l2.676-2.145a1.381 1.381 0 0 0 .396-1.642 29.02 29.02 0 0 0-2.98-5.147 1.381 1.381 0 0 0-1.618-.474l-3.188 1.243a24.823 24.823 0 0 0-2.8b9cbe-2.462l1.233-3.167a1.381 1.381 0 0 0-.478-1.621 29.005 29.005 0 0 0-5.154-2.973 1.381 1.381 0 0 0-1.643.397l-2.076 2.595c-.555-.195-1.105-.404-1.673-.559a1.381 1.381 0 0 0-.021-.005c-.566-.145-1.144-.233-1.718-.337l-.507-3.318a1.381 1.381 0 0 0-1.222-1.165c-.963-.1-1.93-.153-2.897-.156z"/><path style="fill:#17191e" d="M48.85 32.461c0 5.429 2.09 9.915-1.29 13.642A20.946 20.946 0 0 1 32 53c-11.598 0-21-9.402-21-21s9.402-21 21-21c1.5 0 16.85 9.863 16.85 21.461z"/><path style="opacity:.3;fill:#f4f4f7" d="M29 11.239A20.828 20.828 0 0 0 23.098 13H29zm-8 2.898c-.443.273-.876.559-1.297.863H21zM17.32 17a21.064 21.064 0 0 0-1.793 2H25v-2zM27 17v2h2v-2zm-12.863 4a20.917 20.917 0 0 0-1.09 2H17v-2zM19 21v2h10v-2zm-6.781 4c-.231.652-.428 1.32-.594 2H21v-2zm-1.168 6c-.016.334-.05.663-.05 1 0 .338.034.667.05 1H19v-2zM21 31v2h4v-2zm-9.762 4c.098.678.227 1.344.387 2H17v-2zM19 35v2h14v-2zm-6.781 4c.242.684.519 1.35.828 2H15v-2zM17 39v2h8v-2zm14 0v6h2v-6zm8 0v8h6v-8zm2 2h2v4h-2zm-26.863 2c.428.693.887 1.363 1.39 2H23v-2zM25 43v2h2v-2zm-7.68 4A21.07 21.07 0 0 0 19 48.473V47zM21 47v2h8v-2zm10 0v5.95c.333.015.663.05 1 .05.338 0 .666-.039 1-.055V49h2v3.762a20.894 20.894 0 0 0 2-.383V47z"/><path style="fill:#3daee9" d="M53 32a20.93 20.93 0 0 1-5.892 14.586L32 32V11c11.598 0 21 9.402 21 21z"/><path style="fill:#f4f4f7" d="M31 11v21.6l2-1.2V11z"/><path style="opacity:.2" d="m33.707 33.293-1.414 1.414L46.09 48.504c.338-.308.682-.608 1-.937l.02.02c.09-.094.169-.199.257-.294.055-.058.117-.11.172-.168z"/><path style="fill:#ff4949" d="m33.707 32.293-1.414 1.414L46.09 47.504c.338-.308.682-.608 1-.938l.02.02c.09-.093.169-.198.257-.293.055-.058.117-.11.172-.168z"/><circle style="opacity:.2" cx="32" cy="33" r="3"/><circle style="fill:#fcfcfc" cx="32" cy="32" r="3"/><circle style="fill:#17191e" cx="32" cy="32" r="1"/><path style="opacity:.2;fill:#f4f4f7" d="M32.078 3a29.005 29.005 0 0 0-3.047.148 1.381 1.381 0 0 0-1.226 1.164l-.524 3.399c-1.135.22-2.25.522-3.343.898l-2.145-2.675a1.381 1.381 0 0 0-1.64-.399 28.996 28.996 0 0 0-5.15 2.977 1.381 1.381 0 0 0-.476 1.62 1.381 1.381 0 0 1 .477-.62 28.996 28.996 0 0 1 5.148-2.977 1.381 1.381 0 0 1 1.641.399l2.145 2.675a24.813 24.813 0 0 1 3.343-.898l.524-3.399a1.381 1.381 0 0 1 1.226-1.164 29.005 29.005 0 0 1 5.946.008 1.381 1.381 0 0 1 1.218 1.164l.508 3.32c.574.105 1.153.192 1.719.337a1.381 1.381 0 0 1 .023.003c.568.155 1.117.364 1.672.56l2.074-2.595a1.381 1.381 0 0 1 1.645-.394 28.99 28.99 0 0 1 5.152 2.972 1.381 1.381 0 0 1 .477.622 1.381 1.381 0 0 0-.477-1.622 28.99 28.99 0 0 0-5.152-2.972 1.381 1.381 0 0 0-1.645.394L40.117 8.54c-.555-.195-1.104-.404-1.672-.559a1.381 1.381 0 0 0-.023-.003c-.566-.145-1.145-.232-1.719-.336l-.508-3.32a1.381 1.381 0 0 0-1.218-1.165c-.963-.1-1.931-.152-2.899-.156zm16.727 10.844-.57 1.465c.098.085.188.18.285.267l.285-.732c.655.611 1.288 1.25 1.875 1.93l3.187-1.247a1.381 1.381 0 0 1 1.617.477 29.006 29.006 0 0 1 2.98 5.144 1.381 1.381 0 0 1 .026.065 1.381 1.381 0 0 0-.025-1.065 29.006 29.006 0 0 0-2.98-5.144 1.381 1.381 0 0 0-1.618-.477l-3.187 1.246a25.119 25.119 0 0 0-1.875-1.93zm-33.606.011a24.675 24.675 0 0 0-1.886 1.91l-3.172-1.234a1.381 1.381 0 0 0-1.621.477 29.005 29.005 0 0 0-2.97 5.156 1.381 1.381 0 0 0-.025 1.065 1.381 1.381 0 0 1 .026-.065 29.005 29.005 0 0 1 2.969-5.156 1.381 1.381 0 0 1 1.62-.477l3.172 1.235a24.675 24.675 0 0 1 1.887-1.91l.285.732c.097-.086.187-.179.286-.264l-.57-1.469zM8.012 25.461c-.01.033-.023.065-.032.098a1.381 1.381 0 0 0-.003.02c-.145.564-.232 1.14-.336 1.714l-3.32.512a1.381 1.381 0 0 0-1.165 1.222c-.1.96-.119 1.922-.113 2.885.016-.629.048-1.258.113-1.885a1.381 1.381 0 0 1 1.164-1.222l3.32-.512c.105-.573.192-1.15.337-1.715a1.381 1.381 0 0 1 .003-.02l.032-.097.254.203c.09-.26.186-.518.277-.777l-.531-.426zm47.87.082-.491.395c.09.265.163.535.246.802l.246-.197c.155.575.293 1.156.406 1.742l3.398.52a1.381 1.381 0 0 1 1.165 1.222c.062.612.092 1.225.107 1.838a26.286 26.286 0 0 0-.107-2.838 1.381 1.381 0 0 0-1.164-1.222l-3.399-.52a24.833 24.833 0 0 0-.406-1.742zM8.118 40.457l-2.187 1.75a1.381 1.381 0 0 0-.424 1.578 1.381 1.381 0 0 1 .424-.578l2.187-1.75c.073.27.164.535.246.803l.246-.197a25.155 25.155 0 0 1-.492-1.606zm47.867.086c-.151.532-.344 1.052-.527 1.574l.264.211c.09-.261.188-.52.263-.785l2.067 1.656a1.381 1.381 0 0 1 .422.576 1.381 1.381 0 0 0-.422-1.576l-2.067-1.656zm-7.183 11.605c-.192.177-.373.361-.57.532l.285.734c.094-.09.19-.178.285-.266l.672 1.72a1.381 1.381 0 0 0 0-1l-.672-1.72zm-33.606.008-.66 1.703a1.381 1.381 0 0 0 0 .998l.66-1.7c.096.088.191.177.285.267l.286-.733c-.197-.171-.38-.357-.57-.535z"/><path style="opacity:.2" d="M32 11a21 21 0 0 0-21 21 21 21 0 0 0 .018.52A21 21 0 0 1 32 12a21 21 0 0 1 20.975 20.51A21 21 0 0 0 53 32a21 21 0 0 0-21-21z"/><path style="opacity:.2;fill:#f4f4f7" d="M11.018 32.48A21 21 0 0 0 11 33a21 21 0 0 0 21 21 21 21 0 0 0 21-21 21 21 0 0 0-.025-.51A21 21 0 0 1 32 53a21 21 0 0 1-20.982-20.52z"/></svg>