<svg height="64" width="64" xmlns="http://www.w3.org/2000/svg"><path d="m32 5c-15.512 0-28 12.488-28 28s12.488 28 28 28 28-12.488 28-28-12.488-28-28-28z" opacity=".2"/><path d="m32 4c-15.512 0-28 12.488-28 28s12.488 28 28 28 28-12.488 28-28-12.488-28-28-28z" fill="#efbd2f"/><path d="m28 15-4 15h5.2l-4.2 9h4.2l-4.2 14 14-17h-4.9l5.9-9h-7l6-12z" opacity=".2"/><g fill="#f4f4f7"><path d="m28 14-4 15h5.2l-4.2 9h4.2l-4.2 14 14-17h-4.9l5.9-9h-7l6-12z"/><path d="m32 4c-15.512 0-28 12.488-28 28 0 .113.011.224.018.336.351-15.202 12.692-27.336 27.982-27.336s27.63 12.134 27.982 27.336c.007-.112.018-.223.018-.336 0-15.512-12.488-28-28-28z" opacity=".2"/></g></svg>