<svg height="64" width="64" xmlns="http://www.w3.org/2000/svg"><path d="m8.857 13c-2.136 0-3.857 1.794-3.857 4.021v31.959c0 2.226 1.72 4.02 3.857 4.02h46.286c2.136 0 3.857-1.794 3.857-4.021v-31.959c0-2.227-1.72-4.023-3.857-4.021h-23.143z" opacity=".2"/><path d="m8.858 12c-2.138 0-3.858 1.793-3.858 4.02v31.96c0 2.226 1.72 4.02 3.858 4.02h23.277v-40z" fill="#f4f4f7"/><path d="m8.857 12c-2.136 0-3.857 1.794-3.857 4.021v1c0-2.227 1.72-4.021 3.857-4.021h23.278v-1z" fill="#f4f4f7" opacity=".2"/><path d="m32 12v40h23.143c2.137 0 3.857-1.794 3.857-4.022v-31.956c0-2.228-1.72-4.024-3.857-4.022z" fill="#51495d"/><circle cx="48" cy="33" opacity=".2" r="13"/><circle cx="48" cy="32" fill="#f4f4f7" r="13"/><circle cx="48" cy="32" fill="#3ea5e6" r="9"/><path d="m48 23a9 9 0 0 0 -9 9 9 9 0 0 0 .021.576 9 9 0 0 1 8.979-8.576 9 9 0 0 1 8.979 8.424 9 9 0 0 0 .021-.424 9 9 0 0 0 -9-9z" opacity=".2"/><path d="m32 12v1h23.143c2.136-.002 3.857 1.794 3.857 4.021v-1c0-2.227-1.72-4.023-3.857-4.021z" fill="#f4f4f7" opacity=".1"/></svg>