<svg height="64" width="64" xmlns="http://www.w3.org/2000/svg"><path d="m26 14a10.001 10.001 0 0 0 -10 10v6h-2a10.001 10.001 0 0 0 -10 10v2a10.001 10.001 0 0 0 10 10h36a10.001 10.001 0 0 0 10-10v-12a10.001 10.001 0 0 0 -10-10h-.84a10.001 10.001 0 0 0 -9.16-6z" opacity=".2"/><path d="m26 13a10.001 10.001 0 0 0 -10 10v6h-2a10.001 10.001 0 0 0 -10 10v2a10.001 10.001 0 0 0 10 10h36a10.001 10.001 0 0 0 10-10v-12a10.001 10.001 0 0 0 -10-10h-.84a10.001 10.001 0 0 0 -9.16-6z" fill="#f4f4f7"/><path d="m25 22v10h22v6h-34v4h38v-14h-22v-2h12v-4z" fill="#ee8827"/><path d="m26 13a10.001 10.001 0 0 0 -10 10v1a10.001 10.001 0 0 1 10-10h14a10.001 10.001 0 0 1 9.16 6h.84a10.001 10.001 0 0 1 10 10v-1a10.001 10.001 0 0 0 -10-10h-.84a10.001 10.001 0 0 0 -9.16-6zm-12 16a10.001 10.001 0 0 0 -10 10v1a10.001 10.001 0 0 1 10-10h2v-1z" fill="#f4f4f7" opacity=".2"/></svg>