<svg height="64" width="64" xmlns="http://www.w3.org/2000/svg"><path d="m40 49h12v12z" opacity=".2"/><path d="m40 48h12v12z" fill="#ccc"/><rect height="56" opacity=".2" rx="2.8" transform="matrix(0 -1 -1 0 0 0)" width="44" x="-49" y="-60"/><rect fill="#f4f4f7" height="56" rx="2.8" transform="matrix(0 -1 -1 0 0 0)" width="44" x="-48" y="-60"/><path d="m32 15c-6.627 0-12 5.373-12 12s5.373 12 12 12 12-5.373 12-12-5.373-12-12-12z" opacity=".1"/><path d="m32 14c-6.627 0-12 5.373-12 12s5.373 12 12 12 12-5.373 12-12-5.373-12-12-12z" fill="#3f7ed9"/><path d="m26 22v3h3v-3zm9 0v3h3v-3zm5 6.332c-1.884 1.8-4.847 2.668-8.172 2.668-3.176 0-5.938-.782-7.828-2.446.967 2.662 2.913 6.479 8.023 6.446s7.121-3.883 7.977-6.668z" opacity=".2"/><path d="m26 21v3h3v-3zm9 0v3h3v-3zm5 6.332c-1.884 1.8-4.847 2.668-8.172 2.668-3.176 0-5.938-.782-7.828-2.445.967 2.662 2.913 6.478 8.023 6.445s7.121-3.883 7.977-6.668z" fill="#f4f4f7"/><path d="m24.39 18.13h22.4v22.4h-22.4z" fill="none"/><path d="m6.8 4c-1.55 0-2.8 1.25-2.8 2.8v1c0-1.55 1.25-2.8 2.8-2.8h50.4c1.55 0 2.8 1.25 2.8 2.8v-1c0-1.55-1.25-2.8-2.8-2.8z" fill="#f4f4f7" opacity=".2"/></svg>