<svg height="64" width="64" xmlns="http://www.w3.org/2000/svg">
    <circle cx="32" cy="33" opacity=".2" r="28"/>
    <circle cx="32" cy="32" fill="#17191e" r="27.3"/>
    <path d="M4.94 24.94A28 28 0 0 0 4 32a28 28 0 0 0 28 28 28 28 0 0 0 7.077-.927z" fill="#0277bd"/>
    <path d="M12.192 12.236A28 28 0 0 0 4.941 24.94l34.136 34.133a28 28 0 0 0 12.69-7.265z" fill="#558b2f"/>
    <path d="M24.855 4.943a28 28 0 0 0-12.663 7.293l39.575 39.572a28 28 0 0 0 7.276-12.677z" fill="#f9a825"/>
    <path d="M32 4a28 28 0 0 0-7.145.943l34.188 34.188A28 28 0 0 0 60 32 28 28 0 0 0 32 4z" fill="#ef6c00"/>
    <path d="M32 18a16 9 0 0 0-16 9 16 9 0 0 0 .07.777l-.004 4.528c-.016.18-.066-5.056-.066-.817C16 37.182 23.157 47.641 32 48c4.903-.199 9.281-3.504 12.215-7.379C45.25 41.471 46.557 42 48 42a6 6 0 1 0 0-12l-.066.066-.004-2.265A16 9 0 0 0 48 27a16 9 0 0 0-16-9zm16 15a3 3 0 1 1-2.133 5.11c1.006-1.768 1.686-3.532 1.969-5.094.055-.003.108-.016.164-.016z" opacity=".2"/>
    <path d="m16.071 26-.006 5.303c-.016.18-.065-5.053-.065-.814C16 36.182 23.157 46.64 32 47c8.843-.359 16-10.818 16-16.511 0-4.24-.049.994-.065.814L47.929 26H32z" fill="#f4f4f7"/>
    <ellipse cx="32" cy="26" fill="#4a342a" rx="16" ry="9"/>
    <g fill="#f4f4f7">
        <path d="m48 29-6 6a6 6 0 1 0 6-6zm0 3a3 3 0 1 1 0 6 3 3 0 0 1 0-6z"/>
        <path d="M32 4A28 28 0 0 0 4 32a28 28 0 0 0 .018.492A28 28 0 0 1 32 5a28 28 0 0 1 27.975 27.492A28 28 0 0 0 60 32 28 28 0 0 0 32 4z" opacity=".2"/>
    </g>
</svg>
