<svg height="64" width="64" xmlns="http://www.w3.org/2000/svg">
    <path d="M56.129 54.905 60 47.278V7.8C60 6.249 58.751 5 57.2 5H6.8A2.794 2.794 0 0 0 4 7.8v50.4A2.794 2.794 0 0 1 6.8 61h43.118l3.41-3.295c1.116-1.078 2.098-1.417 2.8-2.8z" opacity=".2"/>
    <path d="M57.694 55.635 60 45.466V6.8C60 5.249 58.751 4 57.2 4H6.8A2.794 2.794 0 0 0 4 6.8v50.4A2.794 2.794 0 0 1 6.8 60h42.541l6.047-1.236c1.52-.31 1.962-1.616 2.306-3.13z" fill="#f4f4f7"/>
    <path d="M15 13v10h2.206c.158-.446.35-.929.599-1.487.422-.958.908-1.862 1.46-2.708a14.665 14.665 0 0 1 1.786-2.254c.283-.29.562-.371.835-.551H29v34H22v3H42v-3h-7V16h7.112c.275.18.552.261.836.551a14.518 14.518 0 0 1 1.788 2.254 18.743 18.9 0 0 1 1.459 2.708c.249.557.439 1.041.599 1.487H49V13H16.417z" opacity=".1"/>
    <path d="M15 12v10h2.206c.158-.446.35-.929.599-1.487.422-.958.908-1.862 1.46-2.708a14.665 14.665 0 0 1 1.786-2.254c.283-.29.562-.371.835-.551H29v34H22v3H42v-3h-7V15h7.112c.275.18.552.261.836.551a14.518 14.518 0 0 1 1.788 2.254 18.743 18.9 0 0 1 1.459 2.708c.249.557.439 1.041.599 1.487H49V12H16.417z" fill="#3261c2"/>
    <path d="M6.8 4C5.25 4 4 5.25 4 6.8v1C4 6.25 5.25 5 6.8 5h50.4C58.75 5 60 6.25 60 7.8v-1C60 5.25 58.75 4 57.2 4z" fill="#f4f4f7" opacity=".2"/>
    <circle cx="48" cy="48" opacity=".2" r="16"/>
    <circle cx="48" cy="47" fill="#4f4f4f" r="16"/>
    <path d="M40 50.436V54h3.564l9-9-3.563-3.565zm15.717-8.578a.945.945 0 0 0 0-1.348l-2.227-2.227a.945.945 0 0 0-1.348 0l-1.862 1.874 3.564 3.564z" fill="#ffd000"/>
</svg>
