<svg height="64" width="64" xmlns="http://www.w3.org/2000/svg"><circle cx="33" cy="34" opacity=".2" r="27"/><circle cx="33" cy="33" fill="#2b6beb" r="27"/><path d="m33 6a27 27 0 0 0 -27 27 27 27 0 0 0 .021.582 27 27 0 0 1 26.979-26.582 27 27 0 0 1 26.979 26.418 27 27 0 0 0 .021-.418 27 27 0 0 0 -27-27z" fill="#f4f4f7" opacity=".2"/><path d="m4 10 25-5 14 14-8.2 2.8 11.2 11.2-5 2 19 26-40-22 6-3-16-11 8-3.2z" opacity=".2"/><path d="m4 9 25-5 14 14-8.2 2.8 11.2 11.2-5 2 19 26-40-22 6-3-16-11 8-3.2z" fill="#f4f4f7"/></svg>