<svg height="64" width="64" xmlns="http://www.w3.org/2000/svg"><circle cx="32" cy="33" opacity=".2" r="28"/><circle cx="32" cy="32" fill="#17191e" r="27.3"/><path d="m4.94 24.94a28 28 0 0 0 -.94 7.06 28 28 0 0 0 28 28 28 28 0 0 0 7.077-.927z" fill="#0277bd"/><path d="m12.192 12.236a28 28 0 0 0 -7.251 12.704l34.136 34.133a28 28 0 0 0 12.69-7.265z" fill="#558b2f"/><path d="m24.855 4.943a28 28 0 0 0 -12.663 7.293l39.575 39.572a28 28 0 0 0 7.276-12.677z" fill="#f9a825"/><path d="m32 4a28 28 0 0 0 -7.145.943l34.188 34.188a28 28 0 0 0 .957-7.131 28 28 0 0 0 -28-28z" fill="#ef6c00"/><path d="m32 18a16 9 0 0 0 -16 9 16 9 0 0 0 .07.777l-.004 4.528c-.016.18-.066-5.056-.066-.817 0 5.694 7.157 16.153 16 16.512 4.903-.199 9.281-3.504 12.215-7.379 1.035.85 2.342 1.379 3.785 1.379a6 6 0 1 0 0-12l-.066.066-.004-2.265a16 9 0 0 0 .07-.801 16 9 0 0 0 -16-9zm16 15a3 3 0 1 1 -2.133 5.11c1.006-1.768 1.686-3.532 1.969-5.094.055-.003.108-.016.164-.016z" opacity=".2"/><path d="m16.071 26-.006 5.303c-.016.18-.065-5.053-.065-.814 0 5.693 7.157 16.151 16 16.511 8.843-.359 16-10.818 16-16.511 0-4.24-.049.994-.065.814l-.006-5.303h-15.929z" fill="#f4f4f7"/><ellipse cx="32" cy="26" fill="#4a342a" rx="16" ry="9"/><g fill="#f4f4f7"><path d="m48 29-6 6a6 6 0 1 0 6-6zm0 3a3 3 0 1 1 0 6 3 3 0 0 1 0-6z"/><path d="m32 4a28 28 0 0 0 -28 28 28 28 0 0 0 .018.492 28 28 0 0 1 27.982-27.492 28 28 0 0 1 27.975 27.492 28 28 0 0 0 .025-.492 28 28 0 0 0 -28-28z" opacity=".2"/></g></svg>