<svg height="64" width="64" xmlns="http://www.w3.org/2000/svg">
    <circle cx="32" cy="33" opacity=".2" r="28"/>
    <circle cx="32" cy="32" fill="#caa17d" r="28"/>
    <path d="M26 39v13.333c0 1.478.892 2.667 2 2.667h2c1.108 0 2-1.19 2-2.667V39zm0-28s14 7.743 14 28H26z" opacity=".2"/>
    <path d="M26 38v13.333c0 1.478.892 2.667 2 2.667h2c1.108 0 2-1.19 2-2.667V38z" fill="#855629"/>
    <circle cx="29" cy="50" opacity=".2" r="1"/>
    <circle cx="29" cy="44" opacity=".2" r="1"/>
    <g fill="#f4f4f7">
        <path d="M26 10s14 7.743 14 28H26z"/>
        <circle cx="29" cy="43" r="1"/>
        <circle cx="29" cy="49" r="1"/>
    </g>
    <circle cx="52" cy="51" opacity=".2" r="12"/>
    <circle cx="52" cy="50" fill="#e74c3c" r="12"/>
    <path d="M49.333 38.667v1.649a12 12 0 0 0-8.02 6.255c.9-.158 2.761-.626 5.575-2.161 1.117-.61 2.078-1.15 2.445-1.743-3.19 4 .27 4.587 2 6.667 0 0 4.055-2.667.667-6.667 4 1.948 8 1.334 8 1.334s.022-.392-.005-.933A12 12 0 0 0 52 40.001v-1.334z" fill-rule="evenodd" opacity=".1"/>
    <path d="M49.333 36.667v1.648a12 12 0 0 0-8.02 6.255c.9-.157 2.761-.626 5.575-2.161 1.117-.61 2.078-1.15 2.445-1.742-3.19 4 .27 4.586 2 6.666 0 0 4.055-2.666.667-6.666C56 42.614 60 42 60 42s.022-.392-.005-.932A12 12 0 0 0 52 38v-1.333z" fill="#a6ef4d" fill-rule="evenodd"/>
    <path d="M32 4A28 28.008 0 0 0 4 32.008a28 28.008 0 0 0 .018.492A28 28.008 0 0 1 32 5a28 28.008 0 0 1 27.975 27.5 28 28.008 0 0 0 .025-.492A28 28.008 0 0 0 32 4z" fill="#f4f4f7" opacity=".2"/>
</svg>
