<svg height="64" width="64" xmlns="http://www.w3.org/2000/svg"><rect height="56" opacity=".2" rx="4.2" width="56" x="4" y="5"/><rect fill="#f4f4f7" height="56" rx="4.2" width="56" x="4" y="4"/><path d="m18 18h14v14h-14zm28 0h14v14h-14zm-37.8-14a4.19 4.19 0 0 0 -4.2 4.2v9.8h14v-14zm23.8 0h14v14h-14z" opacity=".1"/><path d="m4-46h14v14h-14zm28 0h14v14h-14zm-14-14h14v14h-14z" opacity=".1" transform="scale(1 -1)"/><path d="m46 60v-14h14v9.8a4.19 4.19 0 0 1 -4.2 4.2z" opacity=".1"/><path d="m53 7a5 5 0 0 0 -5 5 5 5 0 0 0 5 5 5 5 0 0 0 5-5 5 5 0 0 0 -5-5zm-14 14a5 5 0 0 0 -5 5 5 5 0 0 0 5 5 5 5 0 0 0 5-5 5 5 0 0 0 -5-5zm14 0a5 5 0 0 0 -5 5 5 5 0 0 0 5 5 5 5 0 0 0 5-5 5 5 0 0 0 -5-5zm-42 14a5 5 0 0 0 -5 5 5 5 0 0 0 5 5 5 5 0 0 0 5-5 5 5 0 0 0 -5-5zm14 0a5 5 0 0 0 -5 5 5 5 0 0 0 5 5 5 5 0 0 0 5-5 5 5 0 0 0 -5-5zm14 0a5 5 0 0 0 -5 5 5 5 0 0 0 5 5 5 5 0 0 0 5-5 5 5 0 0 0 -5-5zm14 0a5 5 0 0 0 -5 5 5 5 0 0 0 5 5 5 5 0 0 0 5-5 5 5 0 0 0 -5-5zm-42 14a5 5 0 0 0 -5 5 5 5 0 0 0 5 5 5 5 0 0 0 5-5 5 5 0 0 0 -5-5zm14 0a5 5 0 0 0 -5 5 5 5 0 0 0 5 5 5 5 0 0 0 5-5 5 5 0 0 0 -5-5zm14 0a5 5 0 0 0 -5 5 5 5 0 0 0 5 5 5 5 0 0 0 5-5 5 5 0 0 0 -5-5zm14 0a5 5 0 0 0 -5 5 5 5 0 0 0 5 5 5 5 0 0 0 5-5 5 5 0 0 0 -5-5z" opacity=".1"/><circle cx="53" cy="11" fill="#d12c6d" r="5"/><path d="m8.2 4a4.19 4.19 0 0 0 -4.2 4.2v1a4.19 4.19 0 0 1 4.2-4.2h47.6a4.19 4.19 0 0 1 4.2 4.2v-1a4.19 4.19 0 0 0 -4.2-4.2z" fill="#f4f4f7" opacity=".2"/><circle cx="53" cy="25" fill="#24a647" r="5"/><circle cx="53" cy="39" fill="#24a647" r="5"/><circle cx="53" cy="53" fill="#d12c6d" r="5"/><circle cx="39" cy="25" fill="#d12c6d" r="5"/><circle cx="39" cy="39" fill="#24a647" r="5"/><circle cx="39" cy="53" fill="#d12c6d" r="5"/><circle cx="25" cy="39" fill="#d12c6d" r="5"/><circle cx="25" cy="53" fill="#24a647" r="5"/><circle cx="11" cy="39" fill="#24a647" r="5"/><circle cx="11" cy="53" fill="#d12c6d" r="5"/></svg>