<svg height="64" width="64" xmlns="http://www.w3.org/2000/svg"><path d="m32 61a27.999 27.999 0 0 1 -28-27.999 27.999 27.999 0 0 1 .044-1.172 27.999 27.999 0 0 0 27.955 27.171 27.999 27.999 0 0 0 27.955-26.827 27.999 27.999 0 0 1 .044.828 27.999 27.999 0 0 1 -27.999 27.999z" opacity=".2"/><rect fill="#8ac249" height="56" rx="27.999" width="56" x="4" y="4"/><path d="m51.78 12.22-39.562 39.56a27.91 27.91 0 0 0 39.56 0 27.913 27.913 0 0 0 0-39.561z" opacity=".1"/><path d="m12.22 51.78 17.308-22.253 2.342 2.342 2.603 2.603z" fill="#f2f2f2"/><path d="m51.78 12.22-22.255 17.31 4.945 4.945z" fill="#f34235"/><g fill="#f4f4f7"><path d="m51.78 12.22-39.562 39.56a27.913 27.913 0 0 1 0-39.561 27.913 27.913 0 0 1 39.56 0z" opacity=".2"/><path d="m32 4.002a27.999 27.999 0 0 0 -28 28 27.999 27.999 0 0 0 .018.492 27.999 27.999 0 0 1 27.982-27.492 27.999 27.999 0 0 1 27.975 27.49 27.999 27.999 0 0 0 .025-.492 27.999 27.999 0 0 0 -28-27.998z" opacity=".2"/></g></svg>