<svg height="64" width="64" xmlns="http://www.w3.org/2000/svg">
    <circle cx="32" cy="33" opacity=".2" r="28"/>
    <circle cx="32" cy="32" fill="#92d6c1" r="28"/>
    <path d="m19 18 3.553 7H35.31L19 41l3.553 7H46l-3.553-7H29.69L46 25l-3.553-7z" opacity=".1"/>
    <path d="M19 17h23.447L46 24H22.553z" fill="#1b4f2f"/>
    <path d="m19 40 23.447-23L46 24 22.553 47z" fill="#207344"/>
    <path d="M19 40h23.447L46 47H22.553z" fill="#219053"/>
    <path d="M32 4A28 28 0 0 0 4 32a28 28 0 0 0 .021.586A28 28 0 0 1 32 5a28 28 0 0 1 27.979 27.414A28 28 0 0 0 60 32 28 28 0 0 0 32 4z" fill="#f4f4f7" opacity=".2"/>
</svg>
