<svg height="64" width="64" xmlns="http://www.w3.org/2000/svg"><path d="m-54.905-56.129 7.627-3.871h39.478c1.551 0 2.8 1.249 2.8 2.8v50.4c0 1.551-1.249 2.8-2.8 2.8h-50.4a2.794 2.794 0 0 1 -2.8-2.8v-43.118l3.295-3.41c1.078-1.116 1.417-2.098 2.8-2.8z" opacity=".2" transform="matrix(0 -1 -1 0 0 0)"/><path d="m-55.635-57.694 10.169-2.306h38.666c1.551 0 2.8 1.249 2.8 2.8v50.4c0 1.551-1.249 2.8-2.8 2.8h-50.4a2.794 2.794 0 0 1 -2.8-2.8v-42.541l1.236-6.047c.31-1.52 1.616-1.962 3.13-2.306z" fill="#f4f4f7" transform="matrix(0 -1 -1 0 0 0)"/><path d="m12 10v7h1.557c.112-.312.247-.65.423-1.041.298-.67.641-1.303 1.03-1.895.388-.592.808-1.117 1.261-1.578.2-.203.397-.26.59-.386h5.021v23.8h-4.94v2.1h14.116v-2.1h-4.941v-23.8h5.02c.194.126.39.183.59.386.454.46.874.986 1.262 1.578a13.23 13.23 0 0 1 1.03 1.895c.176.39.31.729.423 1.041h1.558v-7h-23z" opacity=".1" transform="matrix(1.41667 0 0 1.42857 -2 -1.286)"/><path d="m12 10v7h1.557c.112-.312.247-.65.423-1.041.298-.67.641-1.303 1.03-1.895.388-.592.808-1.117 1.261-1.578.2-.203.397-.26.59-.386h5.021v23.8h-4.94v2.1h14.116v-2.1h-4.941v-23.8h5.02c.194.126.39.183.59.386.454.46.874.986 1.262 1.578a13.23 13.23 0 0 1 1.03 1.895c.176.39.31.729.423 1.041h1.558v-7h-23z" fill="#3261c2" transform="matrix(1.41667 0 0 1.42857 -2 -2.286)"/><path d="m6.8 4c-1.55 0-2.8 1.25-2.8 2.8v1c0-1.55 1.25-2.8 2.8-2.8h50.4c1.55 0 2.8 1.25 2.8 2.8v-1c0-1.55-1.25-2.8-2.8-2.8z" fill="#f4f4f7" opacity=".2"/><circle cx="48" cy="48" opacity=".2" r="16"/><circle cx="48" cy="47" fill="#4f4f4f" r="16"/><path d="m40 50.436v3.564h3.564l9-9-3.563-3.565zm15.717-8.578a.945.945 0 0 0 0-1.348l-2.227-2.227a.945.945 0 0 0 -1.348 0l-1.862 1.874 3.564 3.564z" fill="#ffd000"/></svg>