<svg height="64" width="64" xmlns="http://www.w3.org/2000/svg">
    <rect height="56" opacity=".2" rx="4.2" width="56" x="4" y="5"/>
    <rect fill="#555e70" height="56" rx="4.2" width="56" x="4" y="4"/>
    <g fill-rule="evenodd">
        <path d="M52.418 18 23.99 40.08l-.004 4.52 1.75-3.955-1.797 3.931z" fill="#f4f4f7" opacity=".6"/>
        <path d="m13.22 36.126 39.2-18.122-28.431 22.092c-3.409-2.218-6.423-4.235-10.769-3.97zm12.572 4.536L52.42 18.007 37.627 44.518c-3.854-1.959-7.358-3.94-11.835-3.856z" fill="#f4f4f7"/>
        <path d="m52.422 19.004-.016.008-.008.004-.726.336L37.629 44.52c-3.2-1.628-6.169-3.254-9.645-3.715l-3.197 2.982-.752 1.701 3.95-3.683c3.475.461 6.443 2.087 9.644 3.715l14.793-26.512-.106.09.059-.055.047-.04zM24.035 45.488l-.05.047v.067zm-.05.047v-.058l-.047.101.046-.043zm0-.058.745-1.637-.695.648-.05.114zm.05-.989.754-1.703-.057.05-.748 1.642v.058zm-8.79-8.299-2.026.936c4.346-.264 7.36 1.755 10.77 3.973v-1c-2.851-1.855-5.437-3.55-8.745-3.909zm10.49 3.456-1.003 2.19.057-.05.945-2.14z" opacity=".2"/>
    </g>
    <path d="M8.2 4A4.19 4.19 0 0 0 4 8.2v1A4.19 4.19 0 0 1 8.2 5h47.6A4.19 4.19 0 0 1 60 9.2v-1A4.19 4.19 0 0 0 55.8 4z" fill="#f4f4f7" opacity=".1"/>
</svg>
