<svg height="64" width="64" xmlns="http://www.w3.org/2000/svg"><rect height="56" opacity=".2" rx="16.8" width="56" x="4" y="5"/><rect fill="#bdc0b9" height="56" rx="16.8" width="56" x="4" y="4"/><path d="m19.4 44.6-10.49 10.49a16.745 16.745 0 0 0 11.89 4.91h22.4c4.654 0 8.852-1.874 11.89-4.91l-10.49-10.49h-12.6z" opacity=".3"/><path d="m55.09 8.91-10.49 10.49v25.2l10.49 10.49a16.745 16.745 0 0 0 4.91-11.89v-22.4c0-4.654-1.874-8.852-4.91-11.89zm-46.18 0a16.745 16.745 0 0 0 -4.91 11.89v22.4c0 4.654 1.874 8.852 4.91 11.89l10.49-10.49v-25.2z" opacity=".15"/><rect height="40" opacity=".2" rx="8.571" width="40" x="12" y="13"/><rect fill="#eceeeb" height="40" rx="8.571" width="40" x="12" y="12"/><g fill="#17191e"><path d="m32 18c-7.732 0-14 6.268-14 14a14 14 0 0 0 5.6 11.184v-4.184h1.556c-1.887-1.84-3.152-4.364-3.156-7 0-5.412 4.588-10 10-10s10 4.588 10 10c0 2.634-1.262 5.157-3.145 7h2.945v2.98a14 14 0 0 0 4.2-9.98c0-7.732-6.268-14-14-14z"/><rect height="14.358" rx="5.096" ry="5.208" transform="matrix(.9613 -.27548 .29553 .95533 0 0)" width="8.608" x="6.14" y="36.66"/><rect height="14.358" rx="5.096" ry="5.208" transform="matrix(-.9613 -.27548 -.29553 .95533 0 0)" width="8.608" x="-55.01" y="19.02"/></g><path d="m20.8 4c-9.305 0-16.8 7.494-16.8 16.8v1c0-9.305 7.494-16.8 16.8-16.8h22.4c9.305 0 16.8 7.494 16.8 16.8v-1c0-9.305-7.494-16.8-16.8-16.8z" fill="#f4f4f7" opacity=".2"/></svg>