<svg xmlns="http://www.w3.org/2000/svg" width="64" height="64" version="1"><path style="opacity:.2" d="M32 5.071a28 28 0 0 0-28 28h8.4a19.6 19.6 0 0 1 19.6-19.6zm19.6 28A19.6 19.6 0 0 1 33.4 52.62V61A28 28 0 0 0 60 33.071z"/><path style="fill:#514694" d="M32 4.036a28 28 0 0 0-28 28h8.4a19.6 19.6 0 0 1 19.6-19.6zm19.6 28a19.6 19.6 0 0 1-18.2 19.548v8.38A28 28 0 0 0 60 32.036z"/><path style="opacity:.2" d="M32 11.036c-12.15 0-22 9.85-22 22s9.85 22 22 22 22-9.85 22-22H32v-13.75z"/><path style="fill:#2d7ad6" d="M32 10c-12.15 0-22 9.85-22 22s9.85 22 22 22 22-9.85 22-22H32V18.25z"/><path style="opacity:.2" d="M32 17.036a16 16 0 0 0-16 16 16 16 0 0 0 16 16 16 16 0 0 0 16-16 16 16 0 0 0-16-16z"/><path style="fill:#07c486" d="M32 16a16 16 0 0 0-16 16 16 16 0 0 0 16 16 16 16 0 0 0 16-16 16 16 0 0 0-16-16z"/><path style="opacity:.2" d="M32 23.036a10 10 0 0 1 10 10 10 10 0 0 1-10 10 10 10 0 0 1-10-10 10 10 0 0 1 10-10z"/><path style="fill:#f4f4f7" d="M32 22a10 10 0 0 1 10 10 10 10 0 0 1-10 10 10 10 0 0 1-10-10 10 10 0 0 1 10-10z"/><path style="opacity:.1;fill:#f4f4f7" d="M32 4.035c-15.464 0-28 12.536-28 28h.025c.528-15 12.846-27 27.975-27v-1z"/><path style="opacity:.1;fill:#f4f4f7" d="M32 10c-12.15 0-22 9.85-22 22 0 .114.012.225.018.338C10.368 20.495 20.072 11 32 11v-1z"/><path style="opacity:.2;fill:#f4f4f7" d="M32 16a16 16 0 0 0-16 16 16 16 0 0 0 .021.416A16 16 0 0 1 32 17a16 16 0 0 1 15.979 15.574A16 16 0 0 0 48 32a16 16 0 0 0-16-16z"/></svg>