<svg xmlns="http://www.w3.org/2000/svg" width="64" height="64" version="1"><rect style="fill:#7de63e" width="56" height="56" x="4" y="4" rx="3" ry="3"/><path style="opacity:.2" d="M17.753 17.74A47.013 47.055 0 0 0 4.73 59.258 47.013 47.055 0 0 0 46.248 46.26 47.013 47.055 0 0 0 59.27 4.742 47.013 47.055 0 0 0 17.752 17.74z"/><path style="opacity:.1;fill:#f4f4f7" d="M7 4C5.338 4 4 5.337 4 6.999V8a2.993 2.993 0 0 1 3-2.999h50c1.662 0 3 1.338 3 2.999V6.999A2.993 2.993 0 0 0 57 4H7z"/><path style="opacity:.2" d="M4 57v1c0 1.662 1.338 3 3 3h50c1.662 0 3-1.338 3-3v-1c0 1.662-1.338 3-3 3H7c-1.662 0-3-1.338-3-3z"/><circle style="opacity:.3" cx="32" cy="32" r="12"/><circle style="fill:#ffc20c" cx="32" cy="32" r="8"/><g transform="matrix(1.99998 0 0 1.99998 0 0)"><circle style="opacity:.3" cx="24" cy="8" r="3"/><circle style="fill:#ffc20c" cx="24" cy="8" r="2"/></g><g transform="matrix(1.99998 0 0 1.99998 -32 32)"><circle style="opacity:.3" cx="24" cy="8" r="3"/><circle style="fill:#ffc20c" cx="24" cy="8" r="2"/></g></svg>