<svg height="64" width="64" xmlns="http://www.w3.org/2000/svg">
    <path d="M57 53.022V9.778A2.772 2.772 0 0 0 54.222 7H9.778A2.772 2.772 0 0 0 7 9.778v43.244A2.772 2.772 0 0 0 9.778 55.8h44.8" fill="#ff766a"/>
    <path d="M7 51v4.2C7 56.751 8.239 58 9.778 58h44.8" opacity=".2"/>
    <path d="M7 50v4.2C7 55.751 8.239 57 9.778 57h44.8" fill="#d22f7a"/>
    <path d="M6.8 22C5.249 22 4 23.226 4 24.748v16.487c0 1.522 1.249 2.748 2.8 2.748h19.368a1.41 1.41 0 0 0 1.397-.612L32 37l4.435 6.37c.3.456.844.695 1.39.613H57.2c1.551 0 2.8-1.226 2.8-2.748V24.748C60 23.226 58.751 22 57.2 22z" opacity=".2"/>
    <path d="M7 50v-1.946s3.838-3.043 4.974-3.326c1.135-.283 1.275-.052 2.653.264 1.378.315 3.435 1.441 4.077 1.468s1.804-.068 3.154-.167c1.35-.098 3.585-.187 4.282-.178.697 0 2.438.117 4.293.255 1.856.138 4.404.369 4.982.434.578.064 1.258.182 2.03.312a74.3 74.3 0 0 0 2.578.376c.472.052 1.568.235 2.838.377s1.705.19 2.293.138c.587-.052 1.818-.58 3.19-1.068 1.371-.487 1.483-.933 2.634-.822 1.15.11 6.022 1.937 6.022 1.937V50z" fill="#17191e"/>
    <path d="M6.8 21C5.249 21 4 22.226 4 23.748v16.487c0 1.522 1.249 2.748 2.8 2.748h19.368a1.41 1.41 0 0 0 1.397-.612L32 36l4.435 6.37c.3.456.844.695 1.39.613H57.2c1.551 0 2.8-1.226 2.8-2.748V23.748C60 22.226 58.751 21 57.2 21z" fill="#f4f4f7"/>
    <rect fill="#e31c1c" height="13" ry="2.8" width="18" x="8" y="26"/>
    <rect fill="#24dbdb" height="13" ry="2.8" width="18" x="38" y="26"/>
    <path d="M12.674 33.605a4.05 4.05 0 0 0-.7.124c-.857.213-2.84 1.7-3.964 2.562A2.79 2.79 0 0 0 10.8 39h12.4c1.55 0 2.8-1.25 2.8-2.8v-1.08c-.778-.003-2.843.08-4.143.173-1.35.1-2.512.193-3.154.166s-2.698-1.152-4.076-1.467c-1.033-.237-1.37-.426-1.953-.387zm38.305 1.512c-1.15-.11-1.264.335-2.635.822-1.372.488-2.602 1.016-3.19 1.069-.587.052-1.022.003-2.293-.139-1.27-.142-2.365-.324-2.838-.377A72.04 72.04 0 0 1 38 36.197v.002A2.796 2.796 0 0 0 40.8 39h12.4a2.788 2.788 0 0 0 2.751-2.322c-1.295-.475-4.056-1.473-4.972-1.56z" opacity=".2"/>
    <path d="M9.777 7A2.771 2.771 0 0 0 7 9.777v1A2.771 2.771 0 0 1 9.777 8h44.446A2.771 2.771 0 0 1 57 10.777v-1A2.771 2.771 0 0 0 54.223 7z" fill="#f4f4f7" opacity=".2"/>
    <path d="M7 50v1h50v-1z" fill="#f4f4f7" opacity=".1"/>
    <path d="M10.8 26C9.25 26 8 27.25 8 28.8v1c0-1.55 1.25-2.8 2.8-2.8h12.4c1.55 0 2.8 1.25 2.8 2.8v-1c0-1.55-1.25-2.8-2.8-2.8zm30 0c-1.55 0-2.8 1.25-2.8 2.8v1c0-1.55 1.25-2.8 2.8-2.8h12.4c1.55 0 2.8 1.25 2.8 2.8v-1c0-1.55-1.25-2.8-2.8-2.8z" opacity=".2"/>
</svg>
