<svg height="64" width="64" xmlns="http://www.w3.org/2000/svg"><path d="m19 4c-.296 0-.574.058-.844.137.274-.067.544-.137.844-.137zm-3 6.9v28.1c0 1.662 1.338 3 3 3h38c1.662 0 3-1.338 3-3v-28.1z" fill="#d3d3d3"/><path d="m16 39v1c0 1.662 1.338 3 3 3h38c1.662 0 3-1.338 3-3v-1c0 1.662-1.338 3-3 3h-38c-1.662 0-3-1.338-3-3z" opacity=".2"/><path d="m4 28.9v28.1c0 1.662 1.338 3 3 3h38c1.662 0 3-1.338 3-3v-28.1z" fill="#f4f4f7"/><path d="m7 22c-1.662 0-3 1.338-3 3v4h44v-4c0-1.662-1.338-3-3-3z" fill="#636e73"/><path d="m19 4c-1.662 0-3 1-3 3v4h44v-4c0-1.662-1.338-3-3-3z" fill="#5a6367"/><path d="m19 4c-1.662 0-3 1.338-3 3v1c0-1.662 1.338-3 3-3h38c1.662 0 3 1.338 3 3v-1c0-1.662-1.338-3-3-3z" fill="#f4f4f7" opacity=".1"/><path d="m4 57v1c0 1.662 1.338 3 3 3h38c1.662 0 3-1.338 3-3v-1c0 1.662-1.338 3-3 3h-38c-1.662 0-3-1.338-3-3z" opacity=".2"/></svg>