<svg height="64" width="64" xmlns="http://www.w3.org/2000/svg">
    <rect height="56" opacity=".2" rx="16.8" width="56" x="4" y="5"/>
    <rect fill="#1e88e5" height="56" rx="16.8" width="56" x="4" y="4"/>
    <path d="M17.955 15A3 2.993 0 0 0 15 18.035v27.93a3 2.993 0 0 0 6 0v-27.93A3 2.993 0 0 0 17.955 15zM43 32v13.965a3 2.993 0 0 0 6 0V32zm-14 5v8.965a3 2.993 0 0 0 6 0V37z" fill="#253951"/>
    <path d="M31.955 15A2.996 2.996 0 0 0 29 18.035V37h6V18.035A2.996 2.996 0 0 0 31.955 15zm14 0A2.996 2.996 0 0 0 43 18.035V32h6V18.035A2.996 2.996 0 0 0 45.955 15z" opacity=".2"/>
    <path d="M18 16a6 6 0 1 0 0 12 6 6 0 0 0 0-12zm28 11a6 6 0 1 0 0 12 6 6 0 0 0 0-12zm-14 5a6 6 0 1 0 0 12 6 6 0 0 0 0-12z" opacity=".2"/>
    <path d="M18 15a6 6 0 1 0 0 12 6 6 0 0 0 0-12zm28 11a6 6 0 1 0 0 12 6 6 0 0 0 0-12zm-14 5a6 6 0 1 0 0 12 6 6 0 0 0 0-12z" fill="#f4f4f7"/>
    <path d="M20.8 4C11.495 4 4 11.494 4 20.8v1C4 12.495 11.494 5 20.8 5h22.4C52.505 5 60 12.494 60 21.8v-1C60 11.495 52.506 4 43.2 4z" fill="#f4f4f7" opacity=".1"/>
    <path d="M31.955 15A2.996 2.996 0 0 0 29 18.035v1A2.996 2.996 0 0 1 31.955 16 2.996 2.996 0 0 1 35 19.035v-1A2.996 2.996 0 0 0 31.955 15zm14 0A2.996 2.996 0 0 0 43 18.035v1A2.996 2.996 0 0 1 45.955 16 2.996 2.996 0 0 1 49 19.035v-1A2.996 2.996 0 0 0 45.955 15z" opacity=".1"/>
</svg>
