<svg height="64" width="64" xmlns="http://www.w3.org/2000/svg"><path d="m35 5h5v52h-5z" fill="#45c034"/><path d="m30 5h5v52h-5z" fill="#e7d324"/><path d="m45 5h5v52h-5z" fill="#c033e3"/><path d="m40 5h5v52h-5z" fill="#3266b4"/><path d="m15 5h5v52h-5z" fill="#8b5a3a"/><path d="m10 5h5v52h-5z" fill="#4f4f4f"/><path d="m25 5h5v52h-5z" fill="#ff7d27"/><path d="m20 5h5v52h-5z" fill="#f24040"/><path d="m50 5h5v52h-5z" fill="#80809d"/><rect height="22" opacity=".2" rx="3.75" ry="4.125" width="55" x="5" y="37"/><rect fill="#9e9c89" height="22" rx="3.75" ry="4.125" width="55" x="5" y="36"/><path d="m12 54.5h5.5v-13h16v13h7v-13h7v13h5.5" fill="none" opacity=".2" stroke="#000" stroke-width="3"/><path d="m12 53.5h5.5v-13h16v13h7v-13h7v13h5.5" fill="none" stroke="#d6d5cd" stroke-width="3"/><g fill="#f9f9f9"><path d="m8.75 36c-2.077 0-3.75 1.84-3.75 4.125v1c0-2.285 1.673-4.125 3.75-4.125h47.5c2.078 0 3.75 1.84 3.75 4.125v-1c0-2.285-1.672-4.125-3.75-4.125z" opacity=".2"/><path d="m10 5h45v1h-45z" opacity=".1"/></g></svg>