<svg height="64" width="64" xmlns="http://www.w3.org/2000/svg"><rect height="56" opacity=".2" rx="3" width="56" x="4" y="5"/><rect fill="#8e8e8e" height="56" rx="3" width="56" x="4" y="4"/><path d="m31 9c-11.046 0-20 8.954-20 20v28h14v-8.918c1.894.595 3.909.918 6 .918 1.828 0 3.591-.267 5.273-.727l8.727 8.727 9-9-7.016-7.016c2.511-3.342 4.016-7.482 4.016-11.984 0-11.046-8.954-20-20-20z" opacity=".2"/><path d="m31 8c-11.046 0-20 8.954-20 20v28h14v-8.918c1.894.595 3.909.918 6 .918 1.828 0 3.591-.267 5.273-.727l8.727 8.727 9-9-7.016-7.016c2.511-3.342 4.016-7.482 4.016-11.984 0-11.046-8.954-20-20-20z" fill="#ddd"/><path d="m31 13a16 16 0 0 0 -16 16v24h6v-11.529a16 16 0 0 0 10 3.529 16 16 0 0 0 16-16 16 16 0 0 0 -16-16z" opacity=".2"/><path d="m31 12a16 16 0 0 0 -16 16v24h6v-11.529a16 16 0 0 0 10 3.529 16 16 0 0 0 16-16 16 16 0 0 0 -16-16z" fill="#333"/><circle cx="31" cy="29" opacity=".2" r="10"/><g fill="#f4f4f7"><circle cx="31" cy="28" r="10"/><path d="m31 12a16 16 0 0 0 -16 16v1a16 16 0 0 1 16-16 16 16 0 0 1 15.979 15.58 16 16 0 0 0 .021-.58 16 16 0 0 0 -16-16z" opacity=".1"/><path d="m7 4c-1.662 0-3 1.338-3 3v1c0-1.662 1.338-3 3-3h50c1.662 0 3 1.338 3 3v-1c0-1.662-1.338-3-3-3z" opacity=".2"/></g></svg>