<svg height="64" width="64" xmlns="http://www.w3.org/2000/svg"><path d="m10 55v2c0 2.216 1.784 4 4 4h36c2.216 0 4-1.784 4-4v-2c0 2.216-1.784 4-4 4h-36c-2.216 0-4-1.784-4-4z" opacity=".2"/><rect fill="#8e8e8e" height="44" rx="4" transform="matrix(0 -1 -1 0 0 0)" width="56" x="-60" y="-54"/><path d="m32 12c-7.732 0-14 6.268-14 14v14h14c7.732 0 14-6.268 14-14s-6.268-14-14-14zm0 6a8 8 0 0 1 8 8 8 8 0 0 1 -8 8 8 8 0 0 1 -8-8 8 8 0 0 1 8-8z" opacity=".5"/><path d="m14 4c-2.216 0-4 1.784-4 4v1c0-2.216 1.784-4 4-4h36c2.216 0 4 1.784 4 4v-1c0-2.216-1.784-4-4-4z" fill="#f4f4f7" opacity=".1"/><path d="m63.958 45.848a16 16 0 0 1 -15.958 15.152 16 16 0 0 1 -15.958-14.848 16 16 0 0 0 -.042.848 16 16 0 0 0 16 16 16 16 0 0 0 16-16 16 16 0 0 0 -.043-1.152z" opacity=".2"/><circle cx="48" cy="46" fill="#86ff7b" r="16"/><path d="m48 36a10 10 0 0 0 -10 10 10 10 0 0 0 10 10 10 10 0 0 0 10-10 10 10 0 0 0 -10-10zm0 6a4 4 0 0 1 4 4 4 4 0 0 1 -4 4 4 4 0 0 1 -4-4 4 4 0 0 1 4-4z" fill="#f4f4f7"/></svg>