<svg height="64" width="64" xmlns="http://www.w3.org/2000/svg"><circle cx="32" cy="33" opacity=".2" r="28"/><circle cx="32" cy="32" fill="#787784" r="28"/><path d="m31.969 13.05c-11.029 0-19.969 8.942-19.969 19.97s8.94 19.968 19.969 19.968a19.969 19.969 0 0 0 13.625-5.406l5.695 5.695a28 28 0 0 0 6.57-9.566l-6.41-6.414c.317-1.405.48-2.838.488-4.277 0-11.029-8.94-19.97-19.968-19.97zm0 9.985c5.514 0 9.984 4.47 9.984 9.985 0 5.514-4.47 9.984-9.984 9.984s-9.985-4.47-9.985-9.984c0-5.515 4.47-9.985 9.985-9.985z" opacity=".2"/><path d="m31.969 12.05c-11.029 0-19.969 8.942-19.969 19.97s8.94 19.968 19.969 19.968a19.969 19.969 0 0 0 13.625-5.406l5.695 5.695a28 28 0 0 0 6.57-9.566l-6.41-6.414c.317-1.405.48-2.838.488-4.277 0-11.029-8.94-19.97-19.968-19.97zm0 9.985c5.514 0 9.984 4.47 9.984 9.985 0 5.514-4.037 7.755-9.55 7.755-5.515 0-10.419-2.241-10.419-7.755 0-5.515 4.47-9.985 9.985-9.985z" fill="#f4f4f7"/><path d="m50.035 11.582-18.055 18.855-5.853-5.68-8.255 7.536 8.023 8.656c1.452 1.568 3.827 2.051 6.128 2.051 2.248 0 4.56-.457 6.004-1.965l19.223-20.07a28 28 0 0 0 -7.215-9.383z" opacity=".1"/><path d="m50.035 10.582-18.055 18.855-5.853-5.68-8.255 7.536 8.023 8.656c1.452 1.568 3.827 2.051 6.128 2.051 2.248 0 4.56-.457 6.004-1.965l19.223-20.07a28 28 0 0 0 -7.215-9.383z" fill="#94c000"/><path d="m32 4a28 28 0 0 0 -28 28 28 28 0 0 0 .018.492 28 28 0 0 1 27.982-27.492 28 28 0 0 1 27.975 27.492 28 28 0 0 0 .025-.492 28 28 0 0 0 -28-28z" fill="#f4f4f7" opacity=".1"/></svg>