<svg height="64" width="64" xmlns="http://www.w3.org/2000/svg"><rect height="56" opacity=".2" rx="2.8" width="56" x="4" y="5"/><rect fill="#c2352a" height="56" rx="2.8" width="56" x="4" y="4"/><path d="m6.8 4c-1.55 0-2.8 1.25-2.8 2.8v1c0-1.55 1.25-2.8 2.8-2.8h50.4c1.55 0 2.8 1.25 2.8 2.8v-1c0-1.55-1.25-2.8-2.8-2.8z" fill="#f4f4f7" opacity=".2"/><path d="m8 8v16h16v-16zm20 0v8h4v-4h4v-4h-4zm4 8v8h4v-8zm0 8h-4v4h4zm0 4v4h4v-4zm4 4v4h8v-8h-4v4zm8 4v4h4v4h4v-8zm8 0h4v-8h-8v4h4zm-8 4h-4v4h4zm-4 4h-4v4h4zm0 4v4h4v-4zm4 4v4h4v-4zm4 0h8v-4h-8zm-12-4h-8v4h4v4h4v-4zm0-4v-8h-8v4h4v4zm-8-8v-8h-4v4h-4v4zm-8-4v-4h-12v8h8v-4zm20-24v16h16v-16zm-28 4h8v8h-8zm32 0h8v8h-8zm-30 2v4h4v-4zm32 0v4h4v-4zm-38 26v16h16v-16zm4 4h8v8h-8zm2 2v4h4v-4z" opacity=".5"/></svg>