<svg xmlns="http://www.w3.org/2000/svg" width="64" height="64" version="1"><rect style="fill:#355871" width="56" height="56" x="4" y="4" rx="28" ry="28"/><path style="opacity:.2" d="M4.018 32.664C4.01 32.776 4 32.886 4 33c0 15.512 12.488 28 28 28s28-12.488 28-28c0-.114-.011-.224-.018-.336C59.631 47.866 47.29 60 32 60 16.71 60 4.37 47.866 4.018 32.664z"/><path style="opacity:.1;fill:#f4f4f7" d="M32 4C16.488 4 4 16.488 4 32c0 .114.011.224.018.336C4.369 17.134 16.71 5 32 5c15.29 0 27.63 12.134 27.982 27.336.007-.112.018-.222.018-.336C60 16.488 47.512 4 32 4z"/><path style="opacity:.2" d="M50 9 34 29l18 4-36 26 14-22-18-4z"/><path style="fill:#3bb8d6" d="M50 8 34 28l18 4-36 26 14-22-18-4z"/></svg>