<svg height="64" width="64" xmlns="http://www.w3.org/2000/svg"><path d="m32 4c-16.066 0-29 12.934-29 29s12.934 29 29 29 29-12.934 29-29-12.934-29-29-29z" opacity=".2"/><path d="m32 3c-16.066 0-29 12.934-29 29s12.934 29 29 29 29-12.934 29-29-12.934-29-29-29z" fill="#d2d2d2"/><circle cx="45.961" cy=".707" opacity=".1" r="21" transform="matrix(.70710678 .70710678 -.70710678 .70710678 0 0)"/><circle cx="45.254" fill="#4d4d4d" r="21" transform="matrix(.70710678 .70710678 -.70710678 .70710678 0 0)"/><path d="m44.728 20.272a18.022 18.022 0 0 0 -5.602-3.8l-7.833 17.235 17.236-7.833a18.022 18.022 0 0 0 -3.801-5.602z" opacity=".2"/><path d="m44.728 19.272a18.022 18.022 0 0 0 -5.602-3.8l-7.833 17.235 17.236-7.833a18.022 18.022 0 0 0 -3.801-5.602z" fill="#57beff"/><circle cx="32" cy="17" opacity=".2" r="3"/><circle cx="32" cy="16" fill="#94ff57" r="3"/><circle cx="32" cy="49" opacity=".2" r="3"/><circle cx="32" cy="48" fill="#94ff57" r="3"/><g transform="rotate(90)"><circle cx="33" cy="-48" opacity=".2" r="3"/><circle cx="32" cy="-48" fill="#94ff57" r="3"/><circle cx="33" cy="-16" opacity=".2" r="3"/><circle cx="32" cy="-16" fill="#94ff57" r="3"/></g><path d="m32 3c-16.066 0-29 12.934-29 29 0 .11.011.219.018.328.356-15.752 13.141-28.328 28.982-28.328 15.84 0 28.626 12.576 28.982 28.328.007-.11.018-.217.018-.328 0-16.066-12.934-29-29-29z" fill="#f4f4f7" opacity=".2"/></svg>