<svg height="64" width="64" xmlns="http://www.w3.org/2000/svg"><circle cx="32" cy="33" opacity=".2" r="28"/><circle cx="32" cy="32" fill="#575757" r="28"/><circle cx="32" cy="33" opacity=".2" r="22"/><circle cx="32" cy="32" fill="#6e6e6e" r="22"/><circle cx="32" cy="33" opacity=".2" r="17"/><circle cx="32" cy="32" fill="#818181" r="17"/><circle cx="32" cy="33" opacity=".2" r="12"/><circle cx="32" cy="32" fill="#a4a4a4" r="12"/><circle cx="32" cy="33" opacity=".2" r="6"/><g fill="#f4f4f7"><circle cx="32" cy="32" r="6"/><path d="m32 4a28 28 0 0 0 -28 28 28 28 0 0 0 .021.586 28 28 0 0 1 27.979-27.586 28 28 0 0 1 27.979 27.414 28 28 0 0 0 .021-.414 28 28 0 0 0 -28-28z" opacity=".1"/><path d="m32 10a22 22 0 0 0 -22 22 22 22 0 0 0 .021.586 22 22 0 0 1 21.979-21.586 22 22 0 0 1 21.979 21.414 22 22 0 0 0 .021-.414 22 22 0 0 0 -22-22z" opacity=".1"/><path d="m32 15a17 17 0 0 0 -17 17 17 17 0 0 0 .021.58 17 17 0 0 1 16.979-16.58 17 17 0 0 1 16.979 16.42 17 17 0 0 0 .021-.42 17 17 0 0 0 -17-17z" opacity=".1"/><path d="m32 20a12 12 0 0 0 -12 12 12 12 0 0 0 .02.594 12 12 0 0 1 11.98-11.594 12 12 0 0 1 11.98 11.406 12 12 0 0 0 .02-.406 12 12 0 0 0 -12-12z" opacity=".1"/></g></svg>