<svg width="64" height="64" xmlns="http://www.w3.org/2000/svg"><path d="M34 5a22 22 0 0 0-22 22 22 22 0 0 0 .03.807H12v2.982l-.914 1.582-3.711 6.43A2.8 2.8 0 0 0 9.801 43H12v6.021A3.97 3.97 0 0 0 15.979 53H22v3.895A4.097 4.097 0 0 0 26.105 61h17.79A4.097 4.097 0 0 0 48 56.895V43.947A22 22 0 0 0 56 27 22 22 0 0 0 34 5z" style="opacity:.2"/><circle cx="34" cy="26" r="22" style="fill:#28b628"/><path d="M15.979 26.8H33.22a3.97 3.97 0 0 1 3.979 3.979V48.02A3.97 3.97 0 0 1 33.221 52H15.98A3.97 3.97 0 0 1 12 48.021V27z" style="fill:#28b628"/><rect x="22" y="34" width="26" height="26" rx="4.105" ry="4.105" style="fill:#28b628"/><path d="M17.074 23.546a2.8 2.8 0 0 0-2.275 1.397l-3.714 6.428-3.71 6.429A2.8 2.8 0 0 0 9.8 42h14.845a2.8 2.8 0 0 0 2.426-4.2l-3.71-6.429-3.714-6.428a2.8 2.8 0 0 0-2.294-1.397 2.8 2.8 0 0 0-.28 0z" style="fill:#28b628"/><path d="M34 4a22 22 0 0 0-22 22 22 22 0 0 0 .018.492A22 22 0 0 1 34 5a22 22 0 0 1 21.977 21.547A22 22 0 0 0 56 26 22 22 0 0 0 34 4zM12 26.807V27a22 22 0 0 1 .006-.193zM12 27v.807h.03A22 22 0 0 1 12 27zm0 2.79-.914 1.581-3.711 6.43a2.8 2.8 0 0 0-.326 1.906 2.8 2.8 0 0 1 .326-.906l3.71-6.43L12 30.79z" style="fill:#f4f4f7;opacity:.2"/><path d="M35 15s-6 3-6 9c0 4 6 6 6 6v31h6V30s6-2 6-6c0-6-6-9-6-9v9h-6z" style="opacity:.2"/><path d="M35 14s-6 3-6 9c0 4 6 6 6 6v31h6V29s6-2 6-6c0-6-6-9-6-9v9h-6v-9z" style="fill:#f4f4f7"/></svg>