<svg height="64" width="64" xmlns="http://www.w3.org/2000/svg"><path d="m4 14v41.222a2.781 2.781 0 0 0 2.8 2.778h50.401a2.78 2.78 0 0 0 2.799-2.778v-41.222z" opacity=".2"/><rect height="5.6" opacity=".2" rx="2.133" ry="2.322" width="44.8" x="9.6" y="42.1"/><path d="m4 13v41.222a2.781 2.781 0 0 0 2.8 2.778h50.401a2.78 2.78 0 0 0 2.799-2.778v-41.222z" fill="#c7c7c7"/><path d="m6.8 7a2.782 2.782 0 0 0 -2.8 2.777v3.223h56v-3.223a2.781 2.781 0 0 0 -2.8-2.777z" fill="#00caff"/><path d="m6.8 7a2.782 2.782 0 0 0 -2.8 2.777v1a2.782 2.782 0 0 1 2.8-2.777h50.4c1.552 0 2.8 1.238 2.8 2.777v-1a2.782 2.782 0 0 0 -2.8-2.777z" fill="#f4f4f7" opacity=".1"/><path d="m16 23h24v30h-24z" opacity=".1"/><path d="m16 22h24v30h-24z" fill="#f4b801"/><path d="m23 20v15c0 10 10 13 10 13h23s-10-3-10-13v-15z" opacity=".2"/><path d="m23 19v15c0 10 10 13 10 13h23s-10-3-10-13v-15z" fill="#fecd38"/><circle cx="47" cy="48" opacity=".2" r="15"/><circle cx="47" cy="47" fill="#333" r="15"/><path d="m47 40s-.945-.02-1.93.498c-.948.498-1.98 1.744-2.056 3.502h2.678c.128-1.185 1.308-1.2 1.308-1.2s1.334 0 1.334 1.4c0 .738-.187 1.152-.543 1.618-.355.467-.923.936-1.59 1.461-.666.525-1.431 1.106-2.076 1.951a5.557 5.557 0 0 0 -1.125 3.37v1.4h8v-3h-4.865c.042-.062.026.043.074-.02.356-.466.924-.934 1.59-1.459.667-.525 1.432-1.107 2.076-1.953a5.557 5.557 0 0 0 1.125-3.368c0-1.866-1.085-3.184-2.07-3.701-.985-.518-1.93-.499-1.93-.499z" fill="#f4f4f7" fill-rule="evenodd"/></svg>