<svg width="64" height="64" xmlns="http://www.w3.org/2000/svg"><path d="M32 4a6.78 6.78 0 0 0-3.454.85L9.142 15.665c-2.04 1.137-3.298 3.24-3.298 5.514v21.634c0 2.274 1.257 4.376 3.298 5.514l19.405 10.816c1.05.586 2.226.87 3.398.853 1.105-.017.869-1.227 1.859-1.779l19.302-10.61c2.041-1.138 3.71-2.212 3.71-4.488V21.59c0-.774.883-1.94.61-2.641a6.43 6.43 0 0 0-2.88-3.285L35.143 4.847A6.774 6.774 0 0 0 32 3.998z" style="fill:#00e600" transform="translate(.156 .002)"/><path d="M6.368 18.713a6.595 6.367 0 0 0-.524 2.467v21.633a6.595 6.367 0 0 0 3.297 5.515l19.407 10.817a6.595 6.367 0 0 0 3.296.847V32.248z" style="fill:#00bc00" transform="translate(.156 .002)"/><path d="M57.327 18.71 31.844 32.247v27.744a6.595 6.367 0 0 0 3.297-.847l19.405-10.817a6.595 6.367 0 0 0 3.298-5.517V21.178a6.595 6.367 0 0 0-.517-2.469z" style="fill:#009200" transform="translate(.156 .002)"/><path d="M32 4a6.595 6.372 0 0 0-3.452.852L9.14 15.676a6.595 6.372 0 0 0-3.297 5.52v1.001a6.595 6.372 0 0 1 3.297-5.521L28.548 5.852A6.595 6.372 0 0 1 32 5a6.595 6.372 0 0 1 3.14.852l19.407 10.824a6.595 6.372 0 0 1 3.296 5.521v-1.001a6.595 6.372 0 0 0-3.296-5.52L35.14 4.852A6.595 6.372 0 0 0 32.001 4z" style="fill:#f4f4f7;opacity:.2" transform="translate(.156 .002)"/><path d="M5.844 41.8a6.595 6.372 0 0 0 .002.073V41.8zm.002 1v1a6.595 6.372 0 0 0 3.297 5.517L28.55 60.145a6.595 6.372 0 0 0 6.594 0l19.405-10.828a6.595 6.372 0 0 0 3.296-5.518v-1a6.595 6.372 0 0 1-3.296 5.518L35.143 59.145a6.595 6.372 0 0 1-6.594 0L9.143 48.317a6.595 6.372 0 0 1-3.297-5.518z" style="opacity:.2" transform="translate(.156 .002)"/><path d="M6.368 18.713a6.595 6.367 0 0 0-.524 2.467v1a6.595 6.367 0 0 1 .524-2.467l25.476 13.535v-1z" style="fill:#f4f4f7;opacity:.2" transform="translate(.156 .002)"/><path d="M57.327 18.71 31.844 32.247v1L57.327 19.71a6.595 6.367 0 0 1 .517 2.469v-1a6.595 6.367 0 0 0-.517-2.469z" style="fill:#f4f4f7;opacity:.1" transform="translate(.156 .002)"/><path d="M28 16 9 17l2 25 6-1 3 10 9-4-5-6 5-1zm5 0 1 34h15l4-10-4-7 3-8-4-9zm-17 7h6v10h-6zm24 0h5v8h-5zm0 13h5v7h-5z" style="opacity:.2"/><path d="M28 15 9 16l2 25 6-1 3 10 9-4-5-6 5-1-1-24zm5 0 1 34h15l4-10-4-7 3-8-4-9H33zm-17 7h6v10h-6V22zm24 0h5v8h-5v-8zm0 13h5v7h-5v-7z" style="fill:#ffbb32"/><path d="m28.738 32.725-17.941 5.74L11 41l6-1 3 10 9-4-5-6 5-1-.262-6.275zm21.508 1.455L45 36.584V42h-5v-3.125l-6.215 2.848L34 49h15l4-10-2.754-4.82z" style="fill:#fd6447"/><path d="M28 15 9 16l.08.996L28 16l.959 23.008L29 39l-1-24zm5 0 .03 1H48l3.797 8.543L52 24l-4-9H33zm7 15v1h5v-1h-5zm-24 2v1h6v-1h-6zm33.227.396L49 33l3.766 6.588L53 39l-3.773-6.604zm-24.512 8.461L24 41l4.393 5.27L29 46l-4.285-5.143zM40 42v1h5v-1h-5z" style="fill:#f4f4f7;opacity:.2"/><path d="m28.738 32.725-17.941 5.74.078.974 17.863-5.714.221 5.283L29 39l-.262-6.275zm21.508 1.455L45 36.584v1l5.246-2.404 2.52 4.408L53 39l-2.754-4.82zM40 38.875l-6.215 2.848.03.986L40 39.875v-1zm-15.285 1.982L24 41l4.393 5.27L29 46l-4.285-5.143zM40 42v1h5v-1h-5z" style="fill:#f4f4f7;opacity:.1"/></svg>