<svg width="64" height="64" xmlns="http://www.w3.org/2000/svg"><path d="M27.8 41c-1.4 0-5.6 5.43-7 8.191h-5.6c-2.8 0-4.125 1.306-5.6 2.762-.947.934-1.322 2.405-1.48 3.293a8 5 0 0 0-.015.063c-.017.103-.044.21-.056.293a8 5 0 0 0-.04.314C8.01 55.928 8 56 8 56l.004.021A8 5 0 0 0 8 56.1a8 5 0 0 0 8 5 8 5 0 0 0 8-5 8 5 0 0 0-.037-.487c.105-.086.23-.18.32-.258C25.68 60.176 32 60 32 60s6.32.176 7.717-4.645c.088.075.208.167.31.25A8 5 0 0 0 40 56a8 5 0 0 0 8 5 8 5 0 0 0 8-5 8 5 0 0 0-.178-1.033c-.187-.902-.567-2.17-1.422-3.014-1.475-1.456-2.8-2.762-5.6-2.762h-5.6C41.8 46.43 37.6 41 36.2 41h-8.4z" style="opacity:.2"/><path d="M29.2 4 26 8l-2 1-1.8 1.905L18 18l-5 14-3 5v4l-2 6v8l11.4-1.286L32 43l12.6 10.714L56 55v-8l-2-6v-4l-3-5-5-14-4.2-7.095L40 9l-2-1-3.2-4z" style="fill:#922292"/><path d="M29.2 4 26 8l-2 1-1.8 1.904L18 18l-5 14-3 5v1l3-5 5-14 4.2-7.096L24 10l2-1 3.2-4h5.6L38 9l2 1 1.8 1.904L46 19l5 14 3 5v-1l-3-5-5-14-4.2-7.096L40 9l-2-1-3.2-4h-5.6zM10 41l-2 6v1l2-6v-1zm44 0v1l2 6v-1l-2-6z" style="fill:#f4f4f7;opacity:.1"/><path d="M27.8 40c-1.4 0-5.6 5.429-7 8.19h-5.6c-2.8 0-4.124 1.307-5.6 2.762C8.2 52.333 8 55 8 55s.2 2.857 8.6 2.857c4.2 0 8.4-4.143 8.4-4.143h14s4.2 4.143 8.4 4.143C55.8 57.857 56 55 56 55s-.2-2.667-1.6-4.048c-1.476-1.455-2.8-2.762-5.6-2.762h-5.6c-1.4-2.761-5.6-8.19-7-8.19z" style="fill:#f46baa"/><path d="M32 44s-8 .048-8 8.334C24 59.239 32 59 32 59s8 .239 8-6.666C40 44.048 32 44 32 44zm16 6a8 5 0 0 0-8 5 8 5 0 0 0 8 5 8 5 0 0 0 8-5 8 5 0 0 0-8-5zm-32 .1a8 5 0 0 0-8 5 8 5 0 0 0 8 5 8 5 0 0 0 8-5 8 5 0 0 0-8-5z" style="fill:#922292"/><path d="m29 6-5 2v2l4-1-1 8h-3v-5h-3s-3 2.858-3 7l12.6-.19L32 17l1.4 1.81L46 19c0-4.142-3-7-3-7h-3v5h-3l-1-8 4 1V8l-5-2 1 11h-1l-1.6-1.933h-2.8L29 17h-1zM18 20.161c-1.52 0-2.793.794-3.74 1.78-.948.987-2.025 2.24-2.24 3.553-.27 1.639.64 2.904 1.364 3.835.724.93 1.73 1.706 1.854 2.228.194.811.13 3.131.064 4.527a41.204 41.204 0 0 1-.194 2.52c-.211 1.83 2.572 2.143 2.784.312 0 0 .138-1.209.208-2.705.069-1.496.204-3.862-.138-5.29-.355-1.483-1.715-2.453-2.355-3.275-.64-.823-.79-1.317-.726-1.71.101-.616.834-1.493 1.413-2.096.578-.602 1.245-.917 1.706-.917h2.8c1.893.027 1.893-2.788 0-2.762zm10-.16-3 9h14l-3-9v7h-8zm15.4.16c-1.893-.027-1.893 2.788 0 2.761H46c.46 0 1.128.315 1.706.918.579.602 1.312 1.48 1.413 2.096.065.393-.186.887-.826 1.71-.64.822-1.9 1.792-2.255 3.274-.342 1.429-.307 3.795-.238 5.291.07 1.496.208 2.705.208 2.705.211 1.831 2.995 1.518 2.784-.312 0 0-.13-1.124-.194-2.52-.065-1.396-.03-3.716.164-4.527.125-.522 1.03-1.298 1.754-2.228.724-.93 1.634-2.196 1.365-3.835-.216-1.313-1.193-2.566-2.14-3.553-.948-.987-2.222-1.78-3.741-1.78zM20 34v8c-1.097 1.75-6 3-6 3s5.2.38 8-1v-7zm24 0-2 3v7c2.8 1.38 8 1 8 1s-4.903-1.25-6-3zm-32 1v5l-2 2v3l4-3v-5zm40 0-2 2 .2 5.285L54 45v-3l-2-2z" style="opacity:.2"/><path d="m29 5-5 2v2l4-1-1 8h-3v-5h-3s-3 2.857-3 7l12.6-.19L32 16l1.4 1.81L46 18c0-4.143-3-7-3-7h-3v5h-3l-1-8 4 1V7l-5-2 1 11h-1l-1.6-1.933h-2.8L29 16h-1zM18 19.161c-1.52 0-2.793.793-3.74 1.78-.948.987-2.025 2.24-2.24 3.552-.27 1.64.64 2.905 1.364 3.835.724.931 1.73 1.707 1.854 2.228.194.812.13 3.132.064 4.528a41.204 41.204 0 0 1-.194 2.52c-.211 1.83 2.572 2.143 2.784.312 0 0 .138-1.209.208-2.705.069-1.497.204-3.862-.138-5.291-.355-1.482-1.715-2.452-2.355-3.275-.64-.822-.79-1.317-.726-1.71.101-.615.834-1.492 1.413-2.095.578-.603 1.245-.917 1.706-.917h2.8c1.893.026 1.893-2.788 0-2.762zM28 19l-3 9h14l-3-9v7h-8zm15.4.16c-1.893-.026-1.893 2.788 0 2.762H46c.46 0 1.128.315 1.706.917.579.603 1.312 1.481 1.413 2.096.065.393-.186.888-.826 1.71-.64.823-1.9 1.793-2.255 3.275-.342 1.429-.307 3.794-.238 5.29.07 1.497.208 2.706.208 2.706.211 1.83 2.995 1.518 2.784-.313 0 0-.13-1.123-.194-2.519-.065-1.396-.03-3.716.164-4.528.125-.521 1.03-1.297 1.754-2.228.724-.93 1.634-2.196 1.365-3.835-.216-1.312-1.193-2.565-2.14-3.552-.948-.987-2.222-1.78-3.741-1.78zM20 33v8c-1.097 1.751-6 3-6 3s5.2.381 8-1v-7zm24 0-2 3v7c2.8 1.381 8 1 8 1s-4.903-1.249-6-3zm-32 1v5l-2 2v3l4-3v-5zm40 0-2 2 .2 5.286L54 44v-3l-2-2z" style="fill:#f46baa"/><path d="M32 49.192c-3.093 0-5.6 1.854-5.6 4.142s2.507 4.143 5.6 4.143 5.6-1.855 5.6-4.143-2.507-4.142-5.6-4.142zM48.5 55c-1.933 0-3.5.896-3.5 2s1.567 2 3.5 2 3.5-.895 3.5-2-1.567-2-3.5-2zm-33 0c-1.933 0-3.5.896-3.5 2s1.567 2 3.5 2 3.5-.895 3.5-2-1.567-2-3.5-2z" style="opacity:.2"/><path d="M32 48.191c-3.093 0-5.6 1.855-5.6 4.143s2.507 4.143 5.6 4.143 5.6-1.855 5.6-4.143-2.507-4.143-5.6-4.143zM48.5 54c-1.933 0-3.5.895-3.5 2s1.567 2 3.5 2 3.5-.895 3.5-2-1.567-2-3.5-2zm-33 0c-1.933 0-3.5.895-3.5 2s1.567 2 3.5 2 3.5-.895 3.5-2-1.567-2-3.5-2z" style="fill:#f46baa"/><path d="M27.8 40c-1.4 0-5.6 5.43-7 8.191h-5.6c-2.8 0-4.125 1.306-5.6 2.762C8.2 52.334 8 55 8 55s.028.133.105.313c.152-.878.527-2.405 1.495-3.36 1.475-1.456 2.8-2.762 5.6-2.762h5.6C22.2 46.43 26.4 41 27.8 41h8.4c1.4 0 5.6 5.43 7 8.191h5.6c2.8 0 4.125 1.306 5.6 2.762.968.955 1.343 2.482 1.495 3.36.077-.18.105-.313.105-.313s-.2-2.666-1.6-4.047c-1.475-1.456-2.8-2.762-5.6-2.762h-5.6C41.8 45.43 37.6 40 36.2 40h-8.4z" style="fill:#f4f4f7;opacity:.2"/><path d="M32 44s-8 .048-8 8.334c0 .161.025.3.033.453C24.391 45.068 32 45 32 45s7.61.068 7.967 7.787c.008-.153.033-.292.033-.453C40 44.048 32 44 32 44zm16 6a8 5 0 0 0-8 5 8 5 0 0 0 .045.521A8 5 0 0 1 48 51a8 5 0 0 1 7.955 4.48A8 5 0 0 0 56 55a8 5 0 0 0-8-5zm-32 .1a8 5 0 0 0-8 5 8 5 0 0 0 .045.521A8 5 0 0 1 16 51.1a8 5 0 0 1 7.955 4.48A8 5 0 0 0 24 55.1a8 5 0 0 0-8-5z" style="fill:#f4f4f7;opacity:.1"/></svg>