<svg height="64" width="64" xmlns="http://www.w3.org/2000/svg"><rect height="16" opacity=".2" rx="4" width="8" x="36" y="45"/><rect height="16" opacity=".2" rx="4" width="8" x="19" y="45"/><rect height="45" opacity=".2" rx="3" width="43" x="10" y="3"/><rect fill="#c9c9c9" height="45" rx="3" width="43" x="10" y="2"/><path d="m13 2c-1.662 0-3 1.338-3 3v1c0-1.662 1.338-3 3-3h37c1.662 0 3 1.338 3 3v-1c0-1.662-1.338-3-3-3z" fill="#f4f4f7" opacity=".1"/><rect fill="#4f4f4f" height="16" rx="4" width="8" x="36" y="44"/><rect fill="#4f4f4f" height="16" rx="4" width="8" x="19" y="44"/><rect height="35" opacity=".2" rx="3" width="33" x="15" y="18"/><rect fill="#f4f4f7" height="35" rx="3" width="33" x="15" y="17"/><rect height="17" opacity=".1" rx="3" width="25" x="19" y="22"/><rect fill="#4f4f4f" height="17" rx="3" width="25" x="19" y="21"/><path d="m18 17c-1.662 0-3 1.338-3 3v1c0-1.662 1.338-3 3-3h27c1.662 0 3 1.338 3 3v-1c0-1.662-1.338-3-3-3z" fill="#f4f4f7" opacity=".2"/></svg>