<svg width="64" height="64" xmlns="http://www.w3.org/2000/svg"><path d="M5.486 4.884A1.5 1.5 0 0 0 4.438 7.46l4.43 4.437A5.98 5.98 0 0 0 8 15v36c0 .537.078 1.054.209 1.548l-3.33 3.33a3 3 0 1 0 4.242 4.243l3.33-3.33A6.025 6.025 0 0 0 14 57h36c.537 0 1.054-.078 1.549-.21l3.33 3.33a3 3 0 1 0 4.242-4.242l-3.33-3.33A6.025 6.025 0 0 0 56 51V15a5.982 5.982 0 0 0-.832-3.047l4.393-4.393a1.5 1.5 0 0 0-1.09-2.574 1.5 1.5 0 0 0-1.032.453l-4.392 4.393A5.982 5.982 0 0 0 50 9H14c-1.09 0-2.109.292-2.988.796L6.562 5.34a1.5 1.5 0 0 0-1.076-.455z" style="opacity:.2"/><rect x="8" y="8" width="48" height="48" rx="0" ry="6" style="fill:#236782"/><path d="M14 8c-3.324 0-6 2.676-6 6v1c0-3.324 2.676-6 6-6h36c3.324 0 6 2.676 6 6v-1c0-3.324-2.676-6-6-6H14z" style="fill:#f4f4f7;opacity:.1"/><path d="M14 15v6l18 8 18-8v-6z" style="opacity:.2"/><path d="M14 14v6l18 8 18-8v-6z" style="fill:#f4f4f7"/><path d="M10.41 9.195a5.982 5.982 0 0 0-1.887 2.358l21.381 21.422-12.097 12.097a3 3 0 0 0-.866-.101 3 3 0 0 0-2.062.908L8.457 52.3a5.98 5.98 0 0 0 4.83 3.654l5.834-5.834a3 3 0 0 0 .805-2.926l12.097-12.097 12.053 12.076a3 3 0 0 0 .803 2.947l5.834 5.834a5.98 5.98 0 0 0 4.83-3.654l-6.422-6.422a3 3 0 0 0-2.152-.91 3 3 0 0 0-.756.1L34.145 32.976l21.363-21.364a5.986 5.986 0 0 0-1.863-2.379L32.027 30.852 10.41 9.195z" style="opacity:.2"/><path d="M58.47 3.986a1.5 1.5 0 0 0-1.03.453l-52 52a1.5 1.5 0 1 0 2.12 2.122l52-52a1.5 1.5 0 0 0-1.09-2.575z" style="fill:#df3131"/><path d="M58.47 3.986a1.5 1.5 0 0 0-1.03.453l-52 52a1.5 1.5 0 0 0-.374 1.58 1.5 1.5 0 0 1 .373-.58l52-52a1.5 1.5 0 0 1 1.032-.453 1.5 1.5 0 0 1 1.455.998 1.5 1.5 0 0 0-1.455-1.998z" style="fill:#f4f4f7;opacity:.2"/><path d="M16.941 43.97a3 3 0 0 0-2.062.909l-10 10A3 3 0 1 0 9.12 59.12l10-10a3 3 0 0 0-2.18-5.15z" style="fill:#4f4f4f"/><path d="M15.98 47.99a1 1 0 0 0-.687.303l-6 6a1 1 0 1 0 1.414 1.414l6-6a1 1 0 0 0-.727-1.717z" style="fill:#df3131"/><path d="m31.527 30.352-2.123 2.123 2.12 2.123 2.122-2.123-2.119-2.123z" style="opacity:.2"/><path d="M5.486 3.885a1.5 1.5 0 0 0-1.048 2.574l52 52.102a1.501 1.501 0 1 0 2.124-2.122l-52-52.1a1.5 1.5 0 0 0-1.076-.454z" style="fill:#2d96d8"/><path d="M5.486 3.885a1.5 1.5 0 0 0-1.414 2.002 1.5 1.5 0 0 1 1.414-1.002 1.5 1.5 0 0 1 1.077.455l52 52.1a1.501 1.501 0 0 1 .351.558 1.501 1.501 0 0 0-.352-1.559l-52-52.1a1.5 1.5 0 0 0-1.076-.454z" style="fill:#f4f4f7;opacity:.2"/><path d="M46.969 43.969a3 3 0 0 0-2.09 5.152l10 10a3 3 0 1 0 4.242-4.242l-10-10a3 3 0 0 0-2.152-.91z" style="fill:#4f4f4f"/><path d="M47.99 47.99a1 1 0 0 0-.697 1.717l6 6a1 1 0 1 0 1.414-1.414l-6-6a1 1 0 0 0-.717-.303z" style="fill:#2d96d8"/><path d="M46.969 43.969a3 3 0 0 0-2.955 3.49 3 3 0 0 1 2.955-2.49 3 3 0 0 1 2.152.91l10 10A3 3 0 0 1 60 57.547a3 3 0 0 0-.879-2.668l-10-10a3 3 0 0 0-2.152-.91zm-30.028.002a3 3 0 0 0-2.062.908l-10 10a3 3 0 0 0-.877 2.662 3 3 0 0 1 .877-1.662l10-10a3 3 0 0 1 2.062-.908 3 3 0 0 1 3.043 2.498 3 3 0 0 0-3.043-3.498z" style="fill:#f4f4f7;opacity:.1"/></svg>