<svg height="64" width="64" xmlns="http://www.w3.org/2000/svg"><rect height="56" opacity=".2" rx="2.8" width="56" x="4" y="5"/><rect fill="#4f4f4f" height="56" rx="2.8" width="56" x="4" y="4"/><g fill-rule="evenodd"><path d="m18.355 15.016a.876.876 0 0 0 -.566.363l-5.629 8.037a.88.88 0 0 0 .215 1.225l11.922 8.265 8.047-5.672a.87.87 0 0 1 .568-.156l.004-.006h2.996l-16.898-11.912a.877.877 0 0 0 -.659-.144zm33.31 17.284.075.078c.253.261.32.637.194.953.13-.32.068-.7-.192-.955l-.078-.076zm.269 1.031a.877.877 0 0 1 -.194.291h.002a.886.886 0 0 0 .192-.291z" opacity=".2"/><path d="m18.356 14.015a.875.875 0 0 0 -.566.363l-5.63 8.038a.88.88 0 0 0 .214 1.225l13.038 9.037 6.93-4.816a.872.872 0 0 1 .57-.156l.005-.005h13.3c.239 0 .456.096.614.25.02.019.2.19.466.478v-.009l4.35 4.294.095-.092a.878.878 0 0 0 0-1.244l-4.236-4.157c-.368-.399-.635-.64-.658-.664a.881.881 0 0 0 -.63-.263h-9.989l-17.214-12.133a.878.878 0 0 0 -.659-.146z" fill="#9adede"/><path d="m32.912 27.078.004-.006h13.302c.238 0 .455.096.613.25.02.019.2.19.466.478v-.009" opacity=".2"/><path d="m32.912 26.078.004-.006h13.302c.238 0 .455.096.613.25.02.019.2.19.466.478v-.009" fill="#00c8c6"/></g><path d="m6.8 4c-1.55 0-2.8 1.25-2.8 2.8v1c0-1.55 1.25-2.8 2.8-2.8h50.4c1.55 0 2.8 1.25 2.8 2.8v-1c0-1.55-1.25-2.8-2.8-2.8z" fill="#f4f4f7" opacity=".1"/></svg>