<svg height="64" width="64" xmlns="http://www.w3.org/2000/svg"><path d="m32 5a28 28 0 0 0 -28 28 28 28 0 0 0 28 28 28 28 0 0 0 28-28 28 28 0 0 0 -28-28z" opacity=".2"/><path d="m32 4a28 28 0 0 0 -28 28 28 28 0 0 0 28 28 28 28 0 0 0 28-28 28 28 0 0 0 -28-28z" fill="#48aeff"/><path d="m23.094 19a1.996 1.485 0 0 0 -.2.004 1.996 1.485 0 0 0 -1.62.738l-7.004 9.028a1.996 1.485 0 0 0 1.726 2.23h4.004v13.11c0 1.6 1.29 2.89 2.89 2.89h.22c1.6 0 2.89-1.29 2.89-2.89v-13.11h4.004a1.996 1.485 0 0 0 1.726-2.23l-7.003-9.028a1.996 1.485 0 0 0 -1.633-.742zm17.797 0c-1.601 0-2.891 1.29-2.891 2.89v13.11h-4.004a1.996 1.485 0 0 0 -1.726 2.23l7.003 9.028a1.996 1.485 0 0 0 1.622.738 1.996 1.485 0 0 0 1.832-.738l7.003-9.028a1.996 1.485 0 0 0 -1.726-2.23h-4.004v-13.11c0-1.6-1.29-2.89-2.89-2.89z" opacity=".2"/><g fill="#f4f4f7"><g transform="scale(2)"><rect height="13" ry="1.8" width="3" x="10" y="10"/><path d="m11.446 9.001a.998.743 0 0 0 -.81.37l-3.502 4.515a.998.743 0 0 0 .864 1.114h7.004a.998.743 0 0 0 .864-1.114l-3.502-4.516a.998.743 0 0 0 -.918-.37z"/></g><g transform="matrix(2 0 0 -2 18 64)"><rect height="13" ry="1.8" width="3" x="10" y="10"/><path d="m11.446 9.001a.998.743 0 0 0 -.81.37l-3.502 4.515a.998.743 0 0 0 .864 1.114h7.004a.998.743 0 0 0 .864-1.114l-3.502-4.516a.998.743 0 0 0 -.918-.37z"/></g><path d="m32 4a28 28 0 0 0 -28 28 28 28 0 0 0 .021.406 28 28 0 0 1 27.979-27.406 28 28 0 0 1 27.979 27.578 28 28 0 0 0 .021-.578 28 28 0 0 0 -28-28z" opacity=".2"/></g></svg>