<svg xmlns="http://www.w3.org/2000/svg" width="64" height="64" version="1"><rect style="opacity:.2" width="58" height="58" x="3" y="4" rx="17.4" ry="17.4"/><rect style="fill:#e91e63" width="58" height="58" x="3" y="3" rx="17.4" ry="17.4"/><path style="opacity:.2" d="M15 13c-1.65 0-3 1.35-3 3v31l6 6h31c1.65 0 3-1.35 3-3V16c0-1.65-1.35-3-3-3zm3 6h28v28h-3V31H21v16h-3zm15 16h6v12h-6z"/><path style="fill:#f4f4f7" d="M15 12c-1.65 0-3 1.35-3 3v31l6 6h31c1.65 0 3-1.35 3-3V15c0-1.65-1.35-3-3-3zm3 6h28v28h-3V30H21v16h-3zm15 16h6v12h-6z"/><path style="opacity:.2;fill:#f4f4f7" d="M20.398 3A17.36 17.36 0 0 0 3 20.398v1A17.36 17.36 0 0 1 20.398 4h23.204A17.36 17.36 0 0 1 61 21.398v-1A17.36 17.36 0 0 0 43.602 3H20.398z"/></svg>