<svg xmlns="http://www.w3.org/2000/svg" width="64" height="64" version="1"><rect style="opacity:.2" width="58" height="58" x="3" y="4" rx="17.4" ry="17.4"/><rect style="fill:#3f51b5" width="58" height="58" x="3" y="3" rx="17.4" ry="17.4"/><path style="opacity:.2" d="M22 13 12 26h7v24.059c-.055 3.92 6.055 3.92 6 0V26h7zm20 0c-1.514 0-3.027.98-3 2.941V40h-7l10 13 10-13h-7V15.941c.027-1.96-1.486-2.941-3-2.941z"/><path style="fill:#f4f4f7" d="M22 12 12 25h7v24.059c-.055 3.92 6.055 3.92 6 0V25h7L22 12zm20 0c-1.514 0-3.027.98-3 2.941V39h-7l10 13 10-13h-7V14.941c.027-1.96-1.486-2.941-3-2.941z"/><path style="opacity:.1;fill:#f4f4f7" d="M20.398 3A17.36 17.36 0 0 0 3 20.398v1A17.36 17.36 0 0 1 20.398 4h23.204A17.36 17.36 0 0 1 61 21.398v-1A17.36 17.36 0 0 0 43.602 3H20.398z"/></svg>