<svg height="64" viewBox="0 0 16.933 16.933" width="64" xmlns="http://www.w3.org/2000/svg" xmlns:xlink="http://www.w3.org/1999/xlink"><filter id="a" color-interpolation-filters="sRGB" height="1.096" width="1.096" x="-.048" y="-.048"><feGaussianBlur stdDeviation="1.1"/></filter><linearGradient id="b" gradientUnits="userSpaceOnUse" x1="15.73455" x2="30.287" y1="12.00091" y2="-2.55154"><stop offset="0" stop-color="#e1e1e1"/><stop offset="1" stop-color="#f5f5f5"/></linearGradient><filter id="c" color-interpolation-filters="sRGB" height="1.168" width="1.168" x="-.084016" y="-.084016"><feGaussianBlur stdDeviation=".30215974"/></filter><linearGradient id="d" gradientUnits="userSpaceOnUse" x1="19.7898" x2="27.669" y1="8.0422" y2="-.066"><stop offset="0" stop-color="#f5f5f5"/><stop offset="1" stop-color="#fff"/></linearGradient><linearGradient id="e" gradientUnits="userSpaceOnUse" x1="20.1262" x2="27.13" y1="8.2818" y2="1.645"><stop offset="0" stop-color="#c8c8c8"/><stop offset="1" stop-color="#fff"/></linearGradient><g transform="translate(-14.543 3.742)"><rect filter="url(#a)" height="55" image-rendering="optimizeSpeed" opacity=".3" rx="13.002" transform="matrix(.26459 0 0 .26459 14.543 -3.742)" width="55" x="4.5" y="4.5"/><rect fill="url(#b)" height="14.552" image-rendering="optimizeSpeed" rx="3.4401" stroke-width=".26458" width="14.552" x="15.733" y="-2.5515"/><g stroke-linecap="round" stroke-linejoin="round" stroke-opacity=".35" stroke-width=".074836"><rect height=".13229" opacity=".1875" rx="0" ry=".066146" width="12.171" x="16.924" y=".49134"/><rect height=".13229" opacity=".1875" rx="0" ry=".066146" width="12.171" x="16.924" y="2.608"/><rect height=".13229" opacity=".1875" rx="0" ry=".066146" width="12.171" x="16.924" y="4.7246"/><rect height=".13229" opacity=".1875" rx="0" ry=".066146" width="12.171" x="16.924" y="6.5768"/><rect height=".13229" opacity=".1875" rx="0" ry=".066146" width="12.171" x="16.924" y="8.6938"/></g><path d="m8.8145-5.537s-.19283-.13005-.19283-.19731c0-.067264.5286-1.9107.58567-2.0122.057077-.10147 6.1025-6.1025 6.1025-6.1025s.27603-.21726.44643-.08272c.17041.13453.74406.74406.74406.74406z" fill="#323232" filter="url(#c)" opacity=".5" transform="matrix(.98857 0 0 .9511 11.424 13.398)"/><path d="m8.8145-5.537s.13005.19283.19731.19283c.067264 0 1.9107-.5286 2.0122-.58567.10147-.057077 6.1025-6.1025 6.1025-6.1025s.21725-.27603.08272-.44643c-.13453-.17041-.74406-.74406-.74406-.74406z" fill="#323232" filter="url(#c)" opacity=".5" transform="matrix(.98857 0 0 .9511 11.424 13.398)"/><path d="m20.019 8.1002s-.19283-.13005-.19283-.19731c0-.067261.52861-1.9107.58568-2.0122.05708-.10147 6.1026-6.1026 6.1026-6.1026s.27604-.21726.44644-.082722c.17041.13453.74407.74407.74407.74407z" fill="url(#d)"/><path d="m20.019 8.1002s.13005.19283.19731.19283 1.9107-.52861 2.0122-.58568c.10147-.057081 6.1026-6.1026 6.1026-6.1026s.21725-.27604.08272-.44644c-.13453-.17041-.74407-.74407-.74407-.74407z" fill="url(#e)"/></g></svg>