<svg height="64" width="64" xmlns="http://www.w3.org/2000/svg"><rect height="56" opacity=".2" rx="2.8" width="56" x="4" y="5"/><path d="m6.8 4 43.833 6.567c1.552 0 2.8 1.248 2.8 2.8l6.567 43.833c0 1.551-1.249 2.8-2.8 2.8h-50.4a2.794 2.794 0 0 1 -2.8-2.8v-50.4c0-1.551 1.249-2.8 2.8-2.8z" fill="#00a1f1"/><path d="m6.8 4c-.776 0-1.476.311-1.982.818l54.364 54.364a2.792 2.792 0 0 0 .818-1.982v-50.4c0-1.551-1.249-2.8-2.8-2.8z" fill="#008aee"/><path d="m10 11v12h12v-12zm4 4h4v4h-4zm14 0v4h26v-4zm-18 12v12h12v-12zm4 4h4v4h-4zm14 0v4h26v-4zm-18 12v12h12v-12zm4 4h4v4h-4zm14 0v4h26v-4z" opacity=".2"/><g fill="#f4f4f7"><path d="m10 10v12h12v-12zm4 4h4v4h-4zm14 0v4h26v-4zm-18 12v12h12v-12zm4 4h4v4h-4zm14 0v4h26v-4zm-18 12v12h12v-12zm4 4h4v4h-4zm14 0v4h26v-4z"/><path d="m6.8 4c-1.55 0-2.8 1.25-2.8 2.8v1c0-1.55 1.25-2.8 2.8-2.8h50.4c1.55 0 2.8 1.25 2.8 2.8v-1c0-1.55-1.25-2.8-2.8-2.8z" opacity=".1"/></g></svg>