<svg xmlns="http://www.w3.org/2000/svg" width="64" height="64"><rect style="opacity:.2" width="56" height="56" x="4" y="5" rx="2.8" ry="2.8"/><path style="fill:#00a1f1" d="m6.8 4 43.833 6.567c1.552 0 2.8 1.248 2.8 2.8L60 57.2c0 1.551-1.249 2.8-2.8 2.8H6.8A2.794 2.794 0 0 1 4 57.2V6.8C4 5.249 5.249 4 6.8 4z"/><path style="fill:#008aee" d="M6.8 4c-.776 0-1.476.311-1.982.818l54.364 54.364A2.792 2.792 0 0 0 60 57.2V6.8C60 5.249 58.751 4 57.2 4z"/><path style="opacity:.2" d="M32 11a22 22 0 0 0-22 22 22 22 0 0 0 22 22 22 22 0 0 0 12.297-3.765l7.133 7.137 5.941-5.941-7.144-7.141A22 22 0 0 0 54 33a22 22 0 0 0-22-22zm0 4a18 18 0 0 1 18 18H38.656l-3.965-5.804-3.93 6.551-7.378-14.75-3.945 10.004h-4.97A18 18 0 0 1 32 15zm-8.184 13.802 6.625 13.254 4.47-7.45 1.632 2.395h12.988A18 18 0 0 1 32 51a18 18 0 0 1-18-18h8.16z"/><path style="fill:#f4f4f7" d="M32 10a22 22 0 0 0-22 22 22 22 0 0 0 22 22 22 22 0 0 0 22-22 22 22 0 0 0-22-22zm0 4a18 18 0 0 1 18 18 18 18 0 0 1-18 18 18 18 0 0 1-18-18 18 18 0 0 1 18-18z"/><path style="fill:none;stroke:#f4f4f7;stroke-width:4" d="M12.4 30h8.4l2.8-7.1 7 14 4.2-7 2.8 4.1h14"/><path style="fill:none;stroke:#f4f4f7;stroke-width:8.39999962" d="m54.4 54.4-7.428-7.428"/><path style="opacity:.1;fill:#f4f4f7" d="M6.8 4C5.25 4 4 5.25 4 6.8v1C4 6.25 5.25 5 6.8 5h50.4C58.75 5 60 6.25 60 7.8v-1C60 5.25 58.75 4 57.2 4H6.8z"/></svg>