<svg xmlns="http://www.w3.org/2000/svg" width="64" height="64" version="1"><circle style="opacity:.2" class="cls-1" cx="32" cy="33" r="29"/><circle style="fill:#e03137" class="cls-1" cx="32" cy="32" r="29"/><path style="opacity:.2" d="M29 12v22h6V12zm8 4.77v6.46A11 11 0 0 1 43 33a11 11 0 0 1-11 11 11 11 0 0 1-11-11 11 11 0 0 1 6-9.785V16.78A17 17 0 0 0 15 33a17 17 0 0 0 17 17 17 17 0 0 0 17-17 17 17 0 0 0-12-16.23z"/><path style="fill:#f4f4f7" d="M37 15.77v6.46A11 11 0 0 1 43 32a11 11 0 0 1-11 11 11 11 0 0 1-11-11 11 11 0 0 1 6-9.785V15.78A17 17 0 0 0 15 32a17 17 0 0 0 17 17 17 17 0 0 0 17-17 17 17 0 0 0-12-16.23z"/><path style="fill:#f4f4f7" d="M29 11h6v22h-6z"/><path style="opacity:.2;fill:#f4f4f7" d="M32 3A29 29 0 0 0 3 32a29 29 0 0 0 .018.488A29 29 0 0 1 32 4a29 29 0 0 1 28.975 28.494A29 29 0 0 0 61 32 29 29 0 0 0 32 3z"/></svg>