<svg height="64" viewBox="0 0 64 64" width="64" xmlns="http://www.w3.org/2000/svg" xmlns:xlink="http://www.w3.org/1999/xlink"><filter id="a" color-interpolation-filters="sRGB" height="1.054" width="1.054" x="-.027" y="-.027"><feGaussianBlur stdDeviation=".61875"/></filter><linearGradient id="b" gradientUnits="userSpaceOnUse" x1="4.5" x2="59.5" y1="59.490003" y2="4.490003"><stop offset="0" stop-color="#df2a2a"/><stop offset="1" stop-color="#f83f3f"/></linearGradient><g fill="#5e4aa6"><circle cx="-1248.7" cy="-1241.6" r="0"/><circle cx="-1140.3" cy="-1301.8" r="0"/><circle cx="-1158.1" cy="-1246" r="0"/></g><circle cx="-1157.3" cy="-1267.7" fill="#5e4aa6" r="0"/><circle cx="-57.756001" cy="-2.1829" fill="#5e4aa6" fill-rule="evenodd" r="0"/><rect fill="#141414" filter="url(#a)" height="55" opacity=".3" ry="15" stroke-linecap="round" stroke-width="2.74436" width="55" x="4.5" y="4.5"/><rect fill="url(#b)" height="54.999996" ry="14.999999" stroke-linecap="round" stroke-width="2.74436" width="54.999996" x="4.500002" y="4.500002"/><g stroke-width="1.2963"><path d="m29.407543 14.5-1.296296 1.296296v2.592593h7.777778v-2.592593l-1.296296-1.296296zm-7.25874 1.815333-7.648667 7.906889.648148.648148h1.296296l1.296297 1.296297 6.481481-6.481482-1.296296-1.296296v-1.296296l-.777272-.777273zm19.702407 0-.777272.777273v1.296296l-1.296296 1.296296 6.481481 6.481482 1.296296-1.296297h1.296297l.648148-.648148-7.648667-7.906889z" fill="#fff"/><path d="m24.222358 18.388889-7.777778 7.777778c-.843668 2.038296-1.318722 4.275444-1.319111 6.481481-.001815 9.307019 7.544834 16.851852 16.851852 16.851852 9.307019 0 16.853148-7.544833 16.851852-16.851852-.000343-2.211481-.426157-4.438907-1.273507-6.481481l-7.777778-7.777778-3.888889-1.296296h-7.777778z" fill="#fff" opacity=".5"/><path d="m21.629766 27.462963h20.74074l1.296297 1.296296v7.777778l-1.296297 1.296296h-20.74074l-1.296297-1.296296v-7.777778z" fill="#fff" opacity=".5"/><path d="m22.277914 28.759259-.648148.648148v6.481482l.648148.648148h3.888889l.648148-.648148v-6.481482l-.648148-.648148zm9.074074 0-.648148.648148v6.481482l.648148.648148h3.888889l.648148-.648148v-6.481482l-.648148-.648148zm6.481481 0-.648148.648148v.648149h3.888889v6.481481h.648148l.648148-.648148v-6.481482l-.648148-.648148zm-14.907407 1.296297h2.592592v5.185185h-2.592592zm9.074074 0h2.592593v5.185185h-2.592593zm-3.888889 1.296296v1.296296h1.296296v-1.296296zm0 2.592593v1.296296h1.296296v-1.296296z" fill="#3e3e3e"/></g></svg>