<svg xmlns="http://www.w3.org/2000/svg" width="64" height="64"><path style="opacity:.2" d="M4.043 29.828A28 26 0 0 0 4 31a28 26 0 0 0 10 19.914v-2a28 26 0 0 1-9.957-19.086zm55.916.344A28 26 0 0 1 31.999 55a28 26 0 0 1-10.556-1.934L14 59v2l7.442-5.934A28 26 0 0 0 32 57a28 26 0 0 0 28-26 28 26 0 0 0-.042-.828z"/><path style="fill:#bad632" d="M32 4A28 26 0 0 0 4 30a28 26 0 0 0 10 19.914V60l7.442-5.934A28 26 0 0 0 32 56a28 26 0 0 0 28-26A28 26 0 0 0 32 4z"/><path style="opacity:.2;fill:#f4f4f7" d="M31.998 4A28 26 0 0 0 4 30a28 26 0 0 0 .021.424A28 26 0 0 1 31.998 5H32a28 26 0 0 1 27.977 25.594 28 26 0 0 0 .021-.594A28 26 0 0 0 32 4h-.002z"/><path style="opacity:.1" d="M32 13a18 18 0 0 0-18 18 18 18 0 0 0 18 18 18 18 0 0 0 2-.133v6.039a28 26 0 0 0 6-1v-6.79a18 18 0 0 0 10-16.118 18 18 0 0 0-18-18z"/><path style="fill:#578418" d="M32 12a18 18 0 0 0-18 18 18 18 0 0 0 18 18 18 18 0 0 0 2-.133v8.04a28 26 0 0 0 6-1v-8.79a18 18 0 0 0 10-16.119 18 18 0 0 0-18-18z"/><path style="opacity:.1" d="M32 21a10 10 0 0 0-10 10v12.949a18 18 0 0 0 6 2.578V40.16a10 10 0 0 0 4 .84 10 10 0 0 0 10-10 10 10 0 0 0-10-10z"/><path style="fill:#252920" d="M32 20a10 10 0 0 0-10 10v14.95a18 18 0 0 0 6 2.577V39.16a10 10 0 0 0 4 .84 10 10 0 0 0 10-10 10 10 0 0 0-10-10z"/></svg>