<svg xmlns="http://www.w3.org/2000/svg" width="64" height="64" version="1"><circle style="opacity:.2" cx="32" cy="33" r="28"/><circle style="fill:#1da1f2" cx="32" cy="32" r="28"/><path d="M-339.325-2801.271c-55.102 0-105.412 50.31-105.412 105.412 0 0 7.187-19.166 23.957-31.145 16.77-11.978 50.79-7.153 60.373-28.715-16.77 0-26.832-3.876-26.832-3.876 19.165 0 47.914-13.726 47.914-41.676z" transform="matrix(.26563 0 0 .26563 136.133 763.088)" style="opacity:.2"/><path style="fill:#f4f4f7" d="M-339.325-2801.271c-55.102 0-105.412 50.31-105.412 105.412 0 0 7.187-19.166 23.957-31.145 16.77-11.978 50.79-7.153 60.373-28.715-16.77 0-26.832-3.876-26.832-3.876 19.165 0 47.914-13.726 47.914-41.676z" transform="matrix(.26563 0 0 .26563 136.133 762.088)"/><path style="opacity:.2;fill:#f4f4f7" d="M31.748 4.002A28 28 0 0 0 4.953 24.754a28 28 0 0 0-.928 7.906 28 28 0 0 1 .928-6.906 28 28 0 0 1 34.293-19.8A28 28 0 0 1 59.975 32.34 28 28 0 0 0 39.246 4.953a28 28 0 0 0-7.498-.951z"/></svg>