<svg height="64" width="64" xmlns="http://www.w3.org/2000/svg"><circle cx="32" cy="33" opacity=".2" r="28"/><circle cx="32" cy="32" fill="#a43b84" r="28"/><path d="m20 35.8s0 11.2 9 11.2h15v-28h-6v21h-7.5c-4.5 0-4.5-5.6-4.5-5.6v-15.4h-6z" opacity=".2"/><path d="m20 34.8s0 11.2 9 11.2h15v-28h-6v21h-7.5c-4.5 0-4.5-5.6-4.5-5.6v-15.4h-6z" fill="#f4f4f7"/><path d="m32 4a28 28 0 0 0 -28 28 28 28 0 0 0 .021.586 28 28 0 0 1 27.979-27.586 28 28 0 0 1 27.979 27.414 28 28 0 0 0 .021-.414 28 28 0 0 0 -28-28z" fill="#f4f4f7" opacity=".1"/><circle cx="48" cy="47" opacity=".2" r="16"/><circle cx="48" cy="46" fill="#42a1cd" r="16"/><path d="m45.929 38-.177 2.107a6.286 6.286 0 0 0 -1.837 1.063l-1.915-.902-2 3.464 1.739 1.207a6.286 6.286 0 0 0 -.096 1.06 6.286 6.286 0 0 0 .091 1.065l-1.734 1.204 2 3.464 1.91-.9a6.286 6.286 0 0 0 1.842 1.056l.178 2.112h4l.176-2.107a6.286 6.286 0 0 0 1.837-1.063l1.915.902 2-3.464-1.738-1.207a6.286 6.286 0 0 0 .096-1.06 6.286 6.286 0 0 0 -.092-1.065l1.735-1.203-2-3.464-1.911.9a6.286 6.286 0 0 0 -1.842-1.057l-.177-2.112zm2 5.714a2.286 2.286 0 0 1 2.286 2.286 2.286 2.286 0 0 1 -2.286 2.286 2.286 2.286 0 0 1 -2.286-2.286 2.286 2.286 0 0 1 2.286-2.286z" fill="#f4f4f7"/></svg>