<svg xmlns="http://www.w3.org/2000/svg" width="64" height="64" version="1"><path style="fill:#b7b7b7" d="M12 6h40v20H12z"/><rect style="fill:#4f4f4f" width="56" height="34" x="4" y="24" rx="2.8" ry="2.834"/><g style="opacity:.4"><path d="M16 32h32v4H16zM20 40h24v4H20zM24 48h16v4H24z"/></g><path style="opacity:.2" d="M4 55.168v1C4 57.738 5.25 59 6.8 59h50.4c1.55 0 2.8-1.262 2.8-2.832v-1C60 56.738 58.75 58 57.2 58H6.8C5.25 58 4 56.738 4 55.168z"/><path style="opacity:.2;fill:#f4f4f7" d="M12 6v1h40V6H12z"/><circle style="opacity:.2" cx="48" cy="47" r="16"/><circle style="fill:#3cd240" cx="48" cy="46" r="16"/><path style="fill:#f4f4f7" d="M41 48.143 48 56l7-8.143h-4V36h-6v12.143z"/><path style="opacity:.5" d="M16 10h10v6H16zM38 10h10v6H38z"/></svg>