<svg height="64" width="64" xmlns="http://www.w3.org/2000/svg"><path d="m4.043 31.828a28 28 0 0 0 -.043 1.172 28 28 0 0 0 28 28 28 28 0 0 0 28-28 28 28 0 0 0 -.042-.828 28 28 0 0 1 -27.958 26.828 28 28 0 0 1 -27.956-27.172z" opacity=".2"/><path d="m32 4a28 28 0 0 0 -28 28 28 28 0 0 0 28 28 28 28 0 0 0 28-28 28 28 0 0 0 -28-28z" fill="#4f4f4f"/><path d="m31.998 4a28 28 0 0 0 -27.998 28 28 28 0 0 0 .021.406 28 28 0 0 1 27.977-27.406h.002a28 28 0 0 1 27.977 27.586 28 28 0 0 0 .021-.586 28 28 0 0 0 -27.998-28z" fill="#f4f4f7" opacity=".1"/><path d="m22.445 18.985c-.45 0-.924.016-1.433.016-2.571-.054-5.144.033-7.715 0-1.783-.014-1.371 2.17-.856 3.09" opacity=".2"/><g fill="#f4f4f7"><path d="m22.445 17.984c-.45 0-.924.016-1.433.016-2.571-.054-5.144.033-7.715 0-1.783-.014-1.371 2.17-.856 3.09"/><path d="m22.445 17.984c-.45 0-.924.016-1.433.016-2.571-.054-5.144.033-7.715 0-1.221-.01-1.403 1.01-1.236 1.951.117-.54.462-.957 1.236-.951 2.57.033 5.144-.054 7.715 0 .509 0 .983-.016 1.433-.016 1.35.003 2.446.145 3.352 1.23 3.784 6.524 7.68 12.982 11.387 19.563.45 1.16 1.503 2.243 1.767 3.477.307-1.675-1.199-3.015-1.767-4.477-3.706-6.581-7.603-13.039-11.387-19.562-.906-1.086-2.002-1.228-3.352-1.23zm18.637.016c-1.206 0-1.172.852-.98 1.486.125-.277.398-.486.98-.486h9.5s.958.016 1.291.63c.527-1.607-1.291-1.63-1.291-1.63z" opacity=".2"/></g></svg>