<svg xmlns="http://www.w3.org/2000/svg" width="64" height="64" version="1"><rect style="opacity:.2" width="56" height="56" x="4" y="5" rx="2.8" ry="2.8"/><rect style="fill:#f4f4f7" width="56" height="56" x="4" y="4" rx="2.8" ry="2.8"/><path style="opacity:.1" d="M22.131 12.8v39.264H22v.736h29.766v-.736H23.655l-.31-.687-.74.68V12.8zm6.448 6.357-.437.835-.935.115.66.672-.18.924.843-.419.824.457-.138-.931.689-.642-.93-.157zm4.792 2.803-.273.45-.526.029.344.399-.135.509.486-.203.442.285-.043-.525.407-.332-.512-.122zm-6.5 1.542-.634.538-.803-.219.315.77-.455.697.829-.062.52.648.199-.808.778-.295-.708-.438zm17.444 1.018-.326.239-.38-.133.126.383-.244.322.404-.002.23.331.123-.384.386-.117-.328-.236zm-13.139 4.02-.243.42-.484.039.324.361-.114.473.444-.197.415.254-.05-.483.369-.316-.475-.101zm11.399.763-.475.453-.643-.134.285.591-.327.57.651-.087.442.487.117-.647.599-.27-.578-.31zM26.53 32.68l-.508 1.01-1.12.153.803.796-.2 1.113 1.004-.518.997.534-.182-1.116.816-.783-1.118-.171zm13.836 2.433.278.95-.278.952.95-.279.952.279-.279-.951.279-.951-.951.278zm-2.446.136-.688.422-.807-.014.423.687-.015.807.688-.422.807.014-.423-.687zm-12.457 2.85-.148.692-.654.27.613.356.055.705.526-.473.688.166-.287-.647.37-.603-.704.073zm14.962 3.008-.892.57-1.046-.316.347.914-.67.768 1.108-.005.633.79.337-.917 1.06-.279-.899-.562zm-6.98.29-.466.463-.646-.121.297.586-.315.577.65-.1.452.477.104-.65.593-.281-.585-.3zm8.96 1.344.158.883-.706.62.968.136.426.805.44-.8.969-.121-.696-.63.173-.88-.87.41zm-9.71 2.1-.416.56-.751.01.466.529-.221.643.704-.234.615.387-.031-.673.6-.403-.723-.182zm5.361 1.52-.378.906-1.021.226.815.613-.083.969.882-.528.97.372-.27-.939.682-.739-1.049-.051zm-7.14.208-.603.845-1.09.015.677.796-.321.969 1.021-.353.892.584-.045-1.014.872-.608-1.05-.274zm12.655.146.158.884-.706.62.968.135.426.805.44-.799.969-.122-.696-.63.173-.88-.87.41z"/><path style="fill:#a2adc7" d="M22.131 12v39.264H22V52h29.766v-.736H23.655l-.31-.687-.74.68V12zm6.448 6.357-.437.835-.935.115.66.672-.18.924.843-.419.824.457-.138-.931.689-.642-.93-.157zm4.792 2.803-.273.45-.526.029.344.399-.135.509.486-.203.442.285-.043-.525.407-.332-.512-.122zm-6.5 1.542-.634.538-.803-.219.315.77-.455.697.829-.062.52.648.199-.808.778-.295-.708-.438zm17.444 1.018-.326.239-.38-.133.126.383-.244.322.404-.002.23.331.123-.384.386-.117-.328-.236zm-13.139 4.02-.243.42-.484.039.324.361-.114.473.444-.197.415.254-.05-.483.369-.316-.475-.101zm11.399.763-.475.453-.643-.134.285.591-.327.57.651-.087.442.487.117-.647.599-.27-.578-.31zM26.53 31.88l-.508 1.01-1.12.153.803.796-.2 1.113 1.004-.518.997.534-.182-1.116.816-.783-1.118-.171zm13.836 2.433.278.95-.278.952.95-.279.952.279-.279-.951.279-.951-.951.278zm-2.446.136-.688.422-.807-.014.423.687-.015.807.688-.422.807.014-.423-.687zm-12.457 2.85-.148.692-.654.27.613.356.055.705.526-.473.688.166-.287-.647.37-.603-.704.073zm14.962 3.008-.892.57-1.046-.316.347.914-.67.768 1.108-.005.633.79.337-.917 1.06-.279-.899-.562zm-6.98.29-.466.463-.646-.121.297.586-.315.577.65-.1.452.477.104-.65.593-.281-.585-.3zm8.96 1.344.158.883-.706.62.968.136.426.805.44-.8.969-.121-.696-.63.173-.88-.87.41zm-9.71 2.1-.416.56-.751.01.466.529-.221.643.704-.234.615.387-.031-.673.6-.403-.723-.182zm5.361 1.52-.378.906-1.021.226.815.613-.083.969.882-.528.97.372-.27-.939.682-.739-1.049-.051zm-7.14.208-.603.845-1.09.015.677.796-.321.969 1.021-.353.892.584-.045-1.014.872-.608-1.05-.274zm12.655.146.158.884-.706.62.968.135.426.805.44-.799.969-.122-.696-.63.173-.88-.87.41z"/><path style="opacity:.1" d="m12 13 2.797 21.035L17.317 53h7.093l13.328-22.398-6.062.91-9.762 16.625L20.06 33.25 17.535 13zm25.738 17.602L48.211 13h-5.668L31.676 31.508z"/><path style="fill:#0ba10b" d="m37.74 29.6-6.064.91-9.762 16.627-1.856-14.889-5.262.787L17.318 52h7.093z"/><path style="fill:#244bb6" d="m12 12 2.797 21.036 5.26-.787L17.534 12zm30.544 0L31.676 30.51l6.063-.908L48.212 12z"/><path style="opacity:.2;fill:#f4f4f7" d="M6.8 4C5.25 4 4 5.25 4 6.8v1C4 6.25 5.25 5 6.8 5h50.4C58.75 5 60 6.25 60 7.8v-1C60 5.25 58.75 4 57.2 4H6.8z"/></svg>