<svg height="64" width="64" xmlns="http://www.w3.org/2000/svg"><rect height="56" opacity=".2" rx="2.8" width="56" x="4" y="5"/><rect fill="#f4f4f7" height="56" rx="2.8" width="56" x="4" y="4"/><path d="m22.131 12.8v39.264h-.131v.736h29.766v-.736h-28.111l-.31-.687-.74.68v-39.257zm6.448 6.357-.437.835-.935.115.66.672-.18.924.843-.419.824.457-.138-.931.689-.642-.93-.157zm4.792 2.803-.273.45-.526.029.344.399-.135.509.486-.203.442.285-.043-.525.407-.332-.512-.122zm-6.5 1.542-.634.538-.803-.219.315.77-.455.697.829-.062.52.648.199-.808.778-.295-.708-.438z" opacity=".1"/><path d="m22.131 12v39.264h-.131v.736h29.766v-.736h-28.111l-.31-.687-.74.68v-39.257zm6.448 6.357-.437.835-.935.115.66.672-.18.924.843-.419.824.457-.138-.931.689-.642-.93-.157zm4.792 2.803-.273.45-.526.029.344.399-.135.509.486-.203.442.285-.043-.525.407-.332-.512-.122zm-6.5 1.542-.634.538-.803-.219.315.77-.455.697.829-.062.52.648.199-.808.778-.295-.708-.438z" fill="#a2adc7"/><path d="m12 13 2.797 21.035 2.52 18.965h7.093l13.328-22.398-6.062.91-9.762 16.625-1.854-14.887-2.525-20.25zm25.738 17.602 10.473-17.602h-5.668l-10.867 18.508z" opacity=".1"/><path d="m37.74 29.6-6.064.91-9.762 16.627-1.856-14.889-5.262.787 2.522 18.965h7.093z" fill="#0ba10b"/><path d="m12 12 2.797 21.036 5.26-.787-2.523-20.249zm30.544 0-10.868 18.51 6.063-.908 10.473-17.602z" fill="#244bb6"/><path d="m6.8 4c-1.55 0-2.8 1.25-2.8 2.8v1c0-1.55 1.25-2.8 2.8-2.8h50.4c1.55 0 2.8 1.25 2.8 2.8v-1c0-1.55-1.25-2.8-2.8-2.8z" fill="#f4f4f7" opacity=".2"/></svg>