<svg height="64" width="64" xmlns="http://www.w3.org/2000/svg"><circle cx="32" cy="33" opacity=".2" r="29"/><path d="m61 32c0 16.016-12.984 29-29 29s-29-12.984-29-29z" fill="#765500"/><path d="m61 32h-58c0-16.016 12.984-29 29-29s29 12.984 29 29z" fill="#624600"/><circle cx="32" cy="33" opacity=".2" r="23"/><circle cx="32" cy="32" fill="#ffbd15" r="23"/><path d="m38 42h7v6h-7zm-.222-24-18.778 30h7.222l18.778-30z" opacity=".1"/><path d="m37.778 17-18.778 30h7.222l18.778-30z" fill="#5c4200"/><path d="m38 41h7v6h-7z" fill="#956b00"/><path d="m26 18-5 2.935 17 27.065 3-6z" opacity=".1"/><path d="m26 17-5 2.935 17 27.065 3-6z" fill="#715100"/><path d="m19 18h7l-3.15 6h-3.85z" opacity=".1"/><path d="m19 17h7l-3.15 6h-3.85z" fill="#956b00"/><g fill="#f4f4f7"><path d="m32 3a29 29 0 0 0 -29 29 29 29 0 0 0 .018.488 29 29 0 0 1 28.982-28.488 29 29 0 0 1 28.975 28.494 29 29 0 0 0 .025-.494 29 29 0 0 0 -29-29z" opacity=".1"/><path d="m32 9a23 23 0 0 0 -23 23 23 23 0 0 0 .018.484 23 23 0 0 1 22.982-22.484 23 23 0 0 1 22.975 22.496 23 23 0 0 0 .025-.496 23 23 0 0 0 -23-23z" opacity=".2"/></g></svg>