<svg height="64" width="64" xmlns="http://www.w3.org/2000/svg"><path d="m9.778 12c-1.54 0-2.778 1.226-2.778 2.75v32.5c0 1.524 1.24 2.75 2.778 2.75h25.222l5 6 5-6h9.224a2.757 2.757 0 0 0 2.776-2.75v-32.5a2.76 2.76 0 0 0 -2.78-2.75z" opacity=".2"/><path d="m9.778 11c-1.54 0-2.778 1.226-2.778 2.75v32.5c0 1.524 1.24 2.75 2.778 2.75h25.222l5 6 5-6h9.224a2.757 2.757 0 0 0 2.776-2.75v-32.5a2.76 2.76 0 0 0 -2.78-2.75z" fill="#4f4f4f"/><path d="m9.777 11a2.758 2.758 0 0 0 -2.777 2.75v1a2.758 2.758 0 0 1 2.777-2.75h44.446a2.757 2.757 0 0 1 2.777 2.75v-1a2.757 2.757 0 0 0 -2.777-2.75z" fill="#f4f4f7" opacity=".1"/><circle cx="16.5" cy="20.5" opacity=".2" r="15.5"/><circle cx="16.5" cy="19.5" fill="#4daaf5" r="15.5"/><path d="m15 10v13h3v-13zm0 15v3h3v-3z" fill="#f4f4f7"/></svg>