<svg height="64" viewBox="0 0 16.933 16.933" width="64" xmlns="http://www.w3.org/2000/svg" xmlns:xlink="http://www.w3.org/1999/xlink"><filter id="a" color-interpolation-filters="sRGB" height="1.096" width="1.096" x="-.048" y="-.048"><feGaussianBlur stdDeviation="1.1"/></filter><linearGradient id="b" gradientUnits="userSpaceOnUse" x1="9.5641" x2="24.116" y1="21.77542" y2="7.22352"><stop offset="0" stop-color="#e1e1e1"/><stop offset="1" stop-color="#f5f5f5"/></linearGradient><filter id="c" color-interpolation-filters="sRGB" height="1.3035" width="1.2451" x="-.12255" y="-.15173"><feGaussianBlur stdDeviation="1.9913168"/></filter><linearGradient id="d" gradientTransform="matrix(.31673 0 0 .31626 9.2524 6.8276)" gradientUnits="userSpaceOnUse" x1="10.973" x2="36.937" y1="24" y2="24"><stop offset="0" stop-color="#2a2c2f"/><stop offset="1" stop-color="#424649"/></linearGradient><linearGradient id="e" gradientTransform="matrix(.027909 0 0 .027499 3.2644 7.7592)" gradientUnits="userSpaceOnUse" x1="319.21" x2="657.65" y1="235.15" y2="269.49"><stop offset="0" stop-color="#e54c18"/><stop offset="1" stop-color="#fec350"/></linearGradient><g fill="#5e4aa6" stroke-width=".26458"><circle cx="-330.38" cy="-328.37" r="0"/><circle cx="-312.55" cy="-328.38" r="0"/><circle cx="-295.13" cy="-341.25" r="0"/></g><g transform="translate(-8.3734 -6.0329)"><rect filter="url(#a)" height="55" opacity=".3" rx="13.002" transform="matrix(.26458 0 0 .26458 8.3734 6.0329)" width="55" x="4.5" y="4.5"/><rect fill="url(#b)" height="14.552" rx="3.44" stroke-width=".26458" width="14.552" x="9.564" y="7.2235"/><path d="m12.934 52.982 14.724-19.274-15.159-21.192 9.7431.0081 12.079 16.663-18.06 23.794h-3.327zm28.819.01368-11.995-16.692 18.211-23.805h3.2447l-14.784 19.364 15.068 21.132z" filter="url(#c)" opacity=".25" stroke-width="1.2563" transform="matrix(.21087 0 0 .21032 10.093 7.8233)"/><path d="m31.996 19.892c-1.1714 0-2.4229.0896-3.5496.19646 2.0072 2.5862 3.6726 4.7762 5.5894 7.2634-1.0758-2.2872-3.2869-4.4805-2.5225-5.6084.75665-1.1166 2.1508-.92862 2.257-.92862 2.2351 0 4.3867.24939 6.3981.71095l.47148-.64149c-2.6828-.68228-5.5967-.99221-8.6439-.99221zm12.106 2.0872-.43426.61289c6.1972 2.3975 10.389 6.9768 10.389 12.225 0 7.7281-9.0876 13.998-20.286 13.998-11.199 0-20.29-6.2703-20.29-13.998.000001-4.2085 2.6961-7.9862 6.9606-10.554l-1.3111-1.9735c-6.6896 2.8022-11.13 7.7207-11.13 13.32 0 8.7123 10.75 15.78 23.996 15.78 13.247 0 24-7.0675 24-15.78 0-5.8096-4.7807-10.89-11.895-13.631z" filter="url(#c)" opacity=".25" stroke-width="1.2563" transform="matrix(.21087 0 0 .21032 10.093 7.8233)"/><g stroke-width=".26457"><path d="m12.82 18.674 3.1049-4.0537-3.1966-4.4571 2.0546.0017 2.5471 3.5045-3.8084 5.0043h-.70158zm6.0772.0029-2.5294-3.5106 3.8402-5.0066h.68422l-3.1176 4.0726 3.1774 4.4444z" fill="url(#d)"/><path d="m16.839 11.714c-.24702 0-.51093.01884-.74852.04132.42327.54392.77446 1.0045 1.1787 1.5276-.22686-.48104-.69312-.94233-.53193-1.1796.15956-.23484.45355-.1953.47594-.1953.47132 0 .92504.05245 1.3492.14952l.09942-.13492c-.56573-.1435-1.1802-.20868-1.8228-.20868zm2.5528.43898-.09157.1289c1.3068.50424 2.1908 1.4674 2.1908 2.5711 0 1.6254-1.9163 2.944-4.2778 2.944-2.3616 0-4.2786-1.3188-4.2786-2.944.000001-.88512.56854-1.6796 1.4678-2.2197l-.27648-.41506c-1.4107.58935-2.347 1.6238-2.347 2.8014 0 1.8324 2.2669 3.3188 5.0601 3.3188 2.7934 0 5.061-1.4864 5.061-3.3188 0-1.2219-1.0081-2.2904-2.5083-2.8668z" fill="url(#e)"/></g></g></svg>