<svg height="64" width="64" xmlns="http://www.w3.org/2000/svg"><rect fill="#d92929" height="56" rx="3" width="56" x="4" y="4"/><path d="m7 4c-1.662 0-3 1.338-3 3v1c0-1.662 1.338-3 3-3h50c1.662 0 3 1.338 3 3v-1c0-1.662-1.338-3-3-3z" fill="#f4f4f7" opacity=".1"/><path d="m4 57v1c0 1.662 1.338 3 3 3h50c1.662 0 3-1.338 3-3v-1c0 1.662-1.338 3-3 3h-50c-1.662 0-3-1.338-3-3z" opacity=".2"/><g fill="none" stroke-linecap="round" stroke-linejoin="round" stroke-width="2"><g opacity=".2" stroke="#000" transform="matrix(1.99862 0 0 1.99906 .007 1.014)"><path d="m6 12.999h7.506l-7.006 9.001 8.005.003" stroke-width="2.001161"/><path d="m25 22s-8.038.315-8-6 8-6 8-6"/></g><path d="m12 26h15l-14 17.994 16 .006m20.973-.006s-16.065.63-15.99-11.994c.076-12.624 15.99-11.994 15.99-11.994" stroke="#ff895e"/></g></svg>