<svg height="24" width="24" xmlns="http://www.w3.org/2000/svg">
    <path d="M7 14h12v10H7z" fill="#455a64"/>
    <circle cx="7" cy="19" fill="#455a64" r="5"/>
    <path d="M9.5 15A1.5 1.5 0 0 0 8 16.5a1.5 1.5 0 0 0 .02.236l-2.442 1.221a1.5 1.5 0 0 1-.002-.002A1.5 1.5 0 0 0 4.5 17.5 1.5 1.5 0 0 0 3 19a1.5 1.5 0 0 0 1.5 1.5 1.5 1.5 0 0 0 1.076-.459" fill="#f4f4f7"/>
    <circle cx="19" cy="19" fill="#f44336" r="5"/>
    <path d="M16.96 16 19 18.04 21.04 16l.96.96L19.96 19 22 21.04l-.96.96L19 19.96 16.96 22l-.96-.96L18.04 19 16 16.96z" fill="#f4f4f7"/>
</svg>
