<svg height="48" width="48" xmlns="http://www.w3.org/2000/svg"><rect height="40" opacity=".2" rx="20" transform="matrix(0 -1 -1 0 0 0)" width="40" x="-45" y="-44"/><rect fill="#f4f4f7" height="40" rx="20" transform="matrix(0 -1 -1 0 0 0)" width="40" x="-44" y="-44"/><circle cx="24" cy="24" fill="#17191e" r="12"/><circle cx="24" cy="-25" opacity=".2" r="9" transform="scale(1 -1)"/><circle cx="24" cy="-24" fill="#ba174e" r="9" transform="scale(1 -1)"/><path d="m24 4c-11.08 0-20 8.92-20 20 0 .168.008.333.012.5a19.952 19.952 0 0 1 19.988-19.5 19.951 19.951 0 0 1 19.988 19.5c.004-.167.012-.332.012-.5 0-11.08-8.92-20-20-20z" fill="#f4f4f7" opacity=".1"/><circle cx="24" cy="25" opacity=".2" r="6"/><circle cx="24" cy="24" fill="#d67495" r="6"/></svg>