<svg xmlns="http://www.w3.org/2000/svg" width="48" height="48" version="1">
    <path fill="#64db2d" fill-rule="evenodd" d="M23.947 4a3.635 3.635 0 0 0-2.519 1.065L5.066 21.427a3.637 3.637 0 0 0 0 5.144l16.362 16.363a3.636 3.636 0 0 0 5.144 0l16.362-16.363a3.637 3.637 0 0 0 0-5.144L26.572 5.065A3.636 3.636 0 0 0 23.947 4z"/>
    <path opacity=".2" d="M26 39h-4v-4h4zm4.14-15.5-1.8 1.84C26.9 26.8 26 28 26 31h-4v-1c0-2.2.9-4.2 2.34-5.66l2.48-2.52A3.91 3.91 0 0 0 28 19c0-2.2-1.8-4-4-4s-4 1.8-4 4h-4c0-4.42 3.58-8 8-8s8 3.58 8 8c0 1.76-.72 3.36-1.86 4.5z"/>
    <path fill="#fff" d="M26 38h-4v-4h4zm4.14-15.5-1.8 1.84C26.9 25.8 26 27 26 30h-4v-1c0-2.2.9-4.2 2.34-5.66l2.48-2.52A3.91 3.91 0 0 0 28 18c0-2.2-1.8-4-4-4s-4 1.8-4 4h-4c0-4.42 3.58-8 8-8s8 3.58 8 8c0 1.76-.72 3.36-1.86 4.5z"/>
    <path fill="none" d="M8 7.99h32v32H8z"/>
    <path fill="#fff" fill-rule="evenodd" opacity=".2" d="M23.947 4a3.635 3.635 0 0 0-2.519 1.065L5.066 21.428a3.619 3.619 0 0 0-1.02 3.072 3.602 3.602 0 0 1 1.02-2.073L21.428 6.064a3.637 3.637 0 0 1 5.144.001l16.362 16.364a3.605 3.605 0 0 1 1.02 2.072 3.619 3.619 0 0 0-1.02-3.072L26.572 5.065a3.638 3.638 0 0 0-2.625-1.064z"/>
    <path fill-rule="evenodd" opacity=".2" d="M4.047 24.5a3.621 3.621 0 0 0 1.02 3.072l16.361 16.362a3.637 3.637 0 0 0 5.145 0l16.362-16.362a3.62 3.62 0 0 0 1.019-3.072 3.61 3.61 0 0 1-1.02 2.073L26.572 42.935a3.637 3.637 0 0 1-5.144 0L5.066 26.573a3.61 3.61 0 0 1-1.02-2.072z"/>
</svg>
