<svg height="48" width="48" xmlns="http://www.w3.org/2000/svg">
    <path d="M6 7c-1.108 0-2 .892-2 2v32c0 1.108.892 2 2 2h22l16-16V9c0-1.108-.892-2-2-2z" opacity=".2"/>
    <path d="M6 6c-1.108 0-2 .892-2 2v32c0 1.108.892 2 2 2h22l16-16V8c0-1.108-.892-2-2-2z" fill="#f4f4f7"/>
    <path d="m16.5 19.688 9.937 11.25 6.376-6.188 5.288 5.289-1.102.961-4 5h-24v-7.5z" opacity=".3"/>
    <path d="M44 26H30a2 2 0 0 0-2 2v14z" fill="#fafafa"/>
    <path d="M30 26a2 2 0 0 0-2 2v1a2 2 0 0 1 2-2h13l1-1zM6 6c-1.108 0-2 .892-2 2v1c0-1.108.892-2 2-2h36c1.108 0 2 .892 2 2V8c0-1.108-.892-2-2-2z" fill="#f4f4f7" opacity=".2"/>
</svg>
