<svg height="48" width="48" xmlns="http://www.w3.org/2000/svg">
    <g fill="#f4f4f7">
        <path d="M29 4v4c6.327 2.114 11 8.657 11 16s-4.673 13.886-11 16v4c8.591-2.229 15-10.286 15-20S37.591 6.229 29 4z" opacity=".2"/>
        <path d="M4 14v20h9.091l10.91 10V4L13.09 14z"/>
        <path d="M34 24c0-3.9-2.011-7.26-5-9v18c2.96-1.74 5-5.1 5-9z" opacity=".2"/>
    </g>
    <path d="M4 34v1h9.092L24 45v-1L13.092 34z" opacity=".2"/>
    <path d="M24 4 13.092 14H4v1h9.092L24 5z" fill="#fff" opacity=".2"/>
</svg>
