<svg xmlns="http://www.w3.org/2000/svg" width="24" height="24"><defs><linearGradient id="b" x1="7" x2="19" y1="12" y2="5" gradientTransform="matrix(0 -1 -1 0 24 24)" gradientUnits="userSpaceOnUse"><stop offset="0" stop-color="#323a41" stop-opacity=".5"/><stop offset="1" stop-color="#323a41" stop-opacity="0"/></linearGradient><linearGradient id="a" x1="7" x2="17" y1="12" y2="12" gradientTransform="matrix(0 1 1 0 0 0)" gradientUnits="userSpaceOnUse"><stop offset="0" stop-color="#323a41"/><stop offset="1" stop-color="#323a41" stop-opacity=".5"/></linearGradient></defs><path style="fill:url(#a)" d="M12 5a7 7 0 1 0 0 14v-2a5 5 0 0 1 0-10c1.3 0 1.3-2 0-2z"/><path style="fill:url(#b)" d="M12 5v2a5 5 0 0 1 5 5c.754 0 1.431.296 1.955.764.028-.251.045-.505.045-.764a7 7 0 0 0-7-7zm1 11.871A4.46 4.46 0 0 1 12 17v2a6.86 6.86 0 0 0 1-.082v-2.047z"/><path fill="#323a41" d="M17 13c-1.108 0-2 .91-2 2.031V16h-1v4h6v-4h-1v-.969c0-1.12-.892-2.03-2-2.03zm0 1c.554 0 1 .442 1 1v1h-2v-1c0-.558.446-1 1-1z"/></svg>