<svg height="22" width="22" xmlns="http://www.w3.org/2000/svg">
    <path d="M11 4a4.567 4.567 0 0 0-4.572 4.56c0 .44.065.873.183 1.278-.576.461-2.81 2.46-1.89 5.053 0 0 .777-.066 1.416-1.245a4.967 4.967 0 0 0 1.048 2.01c-.722.212-1.212.624-1.212 1.096 0 .689 1.044 1.248 2.33 1.248.872 0 1.63-.257 2.029-.637.22.029.441.047.668.047.227 0 .45-.018.668-.047.4.38 1.159.637 2.031.637 1.286 0 2.33-.559 2.33-1.248 0-.472-.49-.884-1.213-1.096a4.965 4.965 0 0 0 1.049-2.01c.639 1.178 1.416 1.245 1.416 1.245.921-2.593-1.315-4.592-1.89-5.053.119-.405.185-.838.185-1.277A4.567 4.567 0 0 0 11 4z" fill="#eeeeec"/>
</svg>
