<svg height="22" width="22" xmlns="http://www.w3.org/2000/svg">
    <g fill="#eeeeec">
        <path d="m7 10-4 3.24L7 17v-2.02h2.063c.977 0 1.841.629 2.103 1.44.313.97-1.03 2.58-1.03 2.58S13 18.12 13 15.78C13 13.531 11.568 12 9.42 12H7zM15 12l4-3.24L15 5v2.02h-2.063c-.977 0-1.841-.629-2.103-1.44-.313-.97 1.03-2.58 1.03-2.58S9 3.88 9 6.22C9 8.469 10.432 10 12.579 10H15zM18.806 14a.362.362 0 0 0-.254.105l-.697.704 1.336 1.336.703-.698a.354.354 0 0 0 0-.505l-.836-.837a.357.357 0 0 0-.252-.105zm-1.481 1.339L14 18.664V20h1.336l3.325-3.325z"/>
    </g>
</svg>
