<svg width="32" height="32" xmlns="http://www.w3.org/2000/svg"><rect x="2" y="3" width="28" height="28" rx="1.4" ry="1.4" style="opacity:.2"/><rect x="2" y="2" width="28" height="28" rx="1.4" ry="1.4" style="fill:#733317"/><path d="M3.4 2C2.625 2 2 2.625 2 3.4v1C2 3.625 2.625 3 3.4 3h25.2c.775 0 1.4.625 1.4 1.4v-1c0-.775-.625-1.4-1.4-1.4z" style="fill:#fff;opacity:.1"/><path d="m9 23 3-8-1 1 1-5 1-1-.5-.5.858-2.626S13.974 5 14.59 5C16.441 5 18 7.504 18 7.504L17 9l1.5-1 1.641 3.289-.616 2.523 1.233-.631s1.16 3.74 1.233 5.677a12.816 12.816 0 0 1-.616 4.415C20.14 27.057 18 29 18 29l1-4-1.028-.941L19 24l-1.028-1.353L19 22l-1-1 1-1-1-1 1-1v-1h-1l1-1h-2l1-1h-1l.674-1.819L16 14l.5-1.941L16 11l-4 13-.5 1v-2l-1.12 2.47.244-1.47-.589.765.345-1.412-.88.706.19-1.412z" style="opacity:.2"/><path d="m9 22 3-8-1 1 1-5 1-1-.5-.5.858-2.626S13.974 4 14.59 4C16.441 4 18 6.504 18 6.504L17 8l1.5-1 1.641 3.289-.616 2.523 1.233-.631s1.16 3.74 1.233 5.677a12.816 12.816 0 0 1-.616 4.415C20.14 26.057 18 28 18 28l1-4-1.028-.941L19 23l-1.028-1.353L19 21l-1-1 1-1-1-1 1-1v-1h-1l1-1h-2l1-1h-1l.674-1.819L16 13l.5-1.941L16 10l-4 13-.5 1v-2l-1.12 2.47.244-1.47-.589.765.345-1.412-.88.706.19-1.412z" style="fill:#fe7a48"/></svg>