<svg xmlns="http://www.w3.org/2000/svg" width="32" height="32"><rect style="opacity:.2" width="22" height="28" x="5" y="3" rx="1.5" ry="1.5"/><rect style="fill:#c2352a" width="22" height="28" x="5" y="2" rx="1.5" ry="1.5"/><path style="opacity:.2" d="M6.5 2C5.669 2 5 2.669 5 3.5v25c0 .831.669 1.5 1.5 1.5H9V2H6.5z"/><path style="opacity:.2;fill:#fff" d="M6.5 2C5.669 2 5 2.669 5 3.5v1C5 3.669 5.669 3 6.5 3h19c.831 0 1.5.669 1.5 1.5v-1c0-.831-.669-1.5-1.5-1.5h-19z"/><rect style="opacity:.2" width="10" height="2" x="18" y="16" rx=".5" ry=".5"/><path style="opacity:.2" d="M18 14c-3 0-3 3-3 3v2h-.25c-.75 0-.75.75-.75.75v4.5c0 .75.75.75.75.75h6.5c.75 0 .75-.75.75-.75v-4.5c0-.75-.75-.75-.75-.75H21v-2s0-3-3-3zm0 1c2 0 2 2 2 2v2h-4v-2s0-2 2-2z"/><path style="fill:#fec006" d="M18 13c-3 0-3 3-3 3v2h-.25c-.75 0-.75.75-.75.75v4.5c0 .75.75.75.75.75h6.5c.75 0 .75-.75.75-.75v-4.5c0-.75-.75-.75-.75-.75H21v-2s0-3-3-3zm0 1c2 0 2 2 2 2v2h-4v-2s0-2 2-2z"/><rect style="fill:#d8d8d8" width="10" height="2" x="18" y="15" rx=".5" ry=".5"/></svg>