<svg xmlns="http://www.w3.org/2000/svg" width="32" height="32" version="1"><rect style="opacity:.2" width="25.797" height="25.797" x=".77" y="6.01" rx="1.935" ry="1.935" transform="rotate(-9.132)"/><rect style="fill:#5390f8" width="25.183" height="25.183" x="1.24" y="5.33" rx="1.889" ry="1.889" transform="rotate(-9.132)"/><path style="fill:#85acf4" d="m4.689 23.294.816 5.078a1.93 1.93 0 0 0 2.218 1.603l21.649-3.48a1.93 1.93 0 0 0 1.603-2.218l-.816-5.078z"/><path style="fill:#bbb" d="M3.628 4.505a1.93 1.93 0 0 0-1.603 2.218l.417 2.594 25.47-4.094-.417-2.595a1.93 1.93 0 0 0-2.218-1.603z"/><path style="fill:none;stroke:#fff;stroke-width:.6824103;stroke-linecap:round" d="m7.632 26.405 4.292-.69"/><path style="fill:#3c6fc7" d="m3.566 16.306 1.123 6.988 25.47-4.095-1.124-6.988z"/><path style="fill:none;stroke:#fff;stroke-width:.6824103;stroke-linecap:round" d="m6.509 19.417 9.889-1.59"/><path style="fill:#5390f8" d="m2.442 9.317 1.124 6.989 25.47-4.095-1.124-6.988z"/><path style="fill:none;stroke:#fff;stroke-width:.6824103;stroke-linecap:round" d="m5.385 12.429 15.282-2.457"/><path style="fill:none;stroke:#4050ae;stroke-width:.6824103;stroke-linecap:round" d="m11.787 25.737 16.552-2.66M16.33 17.838l10.886-1.75M20.667 9.972l5.425-.872"/><path style="opacity:.2" d="M7.865 6.248a.936.936 0 0 0-.094.01.936.936 0 0 0-.773 1.072.936.936 0 0 0 1.072.775.936.936 0 0 0 .776-1.072.936.936 0 0 0-.98-.785zm-2.994.48a.936.936 0 0 0-.094.012.936.936 0 0 0-.775 1.072.936.936 0 0 0 1.072.776.936.936 0 0 0 .776-1.073.936.936 0 0 0-.979-.787zm15.85 2.39a1.857 1.857 0 0 0-.371.024 1.857 1.857 0 0 0-1.54 2.127 1.857 1.857 0 0 0 2.13 1.54 1.857 1.857 0 0 0 1.539-2.128A1.857 1.857 0 0 0 20.72 9.12zm-4.258 7.854a1.857 1.857 0 0 0-.371.022 1.857 1.857 0 0 0-1.54 2.129 1.857 1.857 0 0 0 2.13 1.539 1.857 1.857 0 0 0 1.539-2.129 1.857 1.857 0 0 0-1.758-1.56zm-4.516 7.895a1.857 1.857 0 0 0-.369.021 1.857 1.857 0 0 0-1.539 2.13 1.857 1.857 0 0 0 2.129 1.538 1.857 1.857 0 0 0 1.539-2.128 1.857 1.857 0 0 0-1.76-1.561z"/><circle style="fill:#fff" cx="13.349" cy="20.204" r="1.857" transform="rotate(-9.132)"/><circle style="fill:#4050ae" cx="13.349" cy="20.204" r=".849" transform="rotate(-9.132)"/><circle style="fill:#fff" cx="18.8" cy="13.126" r="1.857" transform="rotate(-9.132)"/><circle style="fill:#4050ae" cx="18.8" cy="13.126" r=".849" transform="rotate(-9.132)"/><circle style="fill:#fff" cx="7.64" cy="27.282" r="1.857" transform="rotate(-9.132)"/><circle style="fill:#4050ae" cx="7.64" cy="27.282" r=".849" transform="rotate(-9.132)"/><circle style="fill:#fff" cx="3.806" cy="7.361" r=".936" transform="rotate(-9.132)"/><circle style="fill:#fff" cx="6.839" cy="7.361" r=".936" transform="rotate(-9.132)"/><path style="opacity:.2;fill:#fff" d="M25.67 1.002a1.962 1.962 0 0 0-.393.023L3.63 4.505a1.93 1.93 0 0 0-1.604 2.218l.036.215a1.93 1.93 0 0 1 1.568-1.432l21.648-3.48a1.93 1.93 0 0 1 2.217 1.603l3.445 21.434c.064-.25.08-.515.036-.786L27.495 2.63a1.93 1.93 0 0 0-1.825-1.627z"/><circle style="opacity:.2" cx="21.288" cy="28.237" r="6.5" transform="rotate(-9.132)"/><circle style="fill:#e9375f" cx="21.447" cy="27.249" r="6.5" transform="rotate(-9.132)"/><path style="fill:#fff" d="M25.5 18.369 22.188 27h1.546l.554-1.444h2.422L27.263 27h1.546zm0 4.031.656 1.711h-1.313z"/></svg>