<svg xmlns="http://www.w3.org/2000/svg" width="32" height="32" version="1"><path style="opacity:.2" d="M16 2c-.786 0-1.572.293-2.16.88L1.88 14.842c-1.175 1.174-1.173 3.14.002 4.315l11.96 11.961c1.175 1.175 3.142 1.177 4.317.002l11.96-11.961c1.175-1.175 1.175-3.143 0-4.317L18.159 2.88A3.045 3.045 0 0 0 16 2z"/><path style="fill:#a42a2a" d="M16 1c-.786 0-1.572.293-2.16.88L1.88 13.842c-1.175 1.174-1.173 3.14.002 4.315l11.96 11.961c1.175 1.175 3.142 1.176 4.317.002l11.96-11.961c1.175-1.175 1.175-3.143 0-4.317L18.159 1.88A3.045 3.045 0 0 0 16 1z"/><path style="opacity:.2;fill:#fff" d="M16 1c-.786 0-1.573.294-2.16.88L1.88 13.843c-.712.713-.986 1.716-.833 2.658a3.002 3.002 0 0 1 .834-1.658L13.84 2.881A3.046 3.046 0 0 1 16 2c.786 0 1.571.293 2.158.88l11.961 11.962c.462.462.736 1.047.834 1.658.152-.942-.121-1.946-.834-2.658L18.158 1.881A3.041 3.041 0 0 0 16 1z"/><path style="opacity:.2" d="M4.5 5C3.669 5 3 5.669 3 6.5 3 7.33 3.669 8 4.5 8H5v17c.001 2.672 3.231 4.01 5.121 2.121l19.418-19.54C29.823 7.31 30 6.927 30 6.5c0-.831-.669-1.5-1.5-1.5h-7c-.831 0-1.5.669-1.5 1.5 0 .612.365 1.135.889 1.369L11 17.758V8h.5c.831 0 1.5-.67 1.5-1.5 0-.831-.669-1.5-1.5-1.5z"/><path style="fill:#e4e4e4" d="M4.5 4C3.669 4 3 4.669 3 5.5S3.669 7 4.5 7H5v17c.001 2.672 3.231 4.01 5.121 2.121L29.539 6.582c.284-.273.461-.655.461-1.082 0-.831-.669-1.5-1.5-1.5h-7c-.831 0-1.5.669-1.5 1.5 0 .612.365 1.136.889 1.37L11 16.757V7h.5c.831 0 1.5-.669 1.5-1.5S12.331 4 11.5 4z"/><path style="opacity:.1;fill:#fff" d="M4.5 4C3.669 4 3 4.669 3 5.5c0 .177.036.343.092.5.205-.583.753-1 1.408-1h7a1.49 1.49 0 0 1 1.408 1A1.48 1.48 0 0 0 13 5.5c0-.831-.669-1.5-1.5-1.5zm17 0c-.831 0-1.5.669-1.5 1.5 0 .176.036.341.092.498A1.49 1.49 0 0 1 21.5 5h7a1.49 1.49 0 0 1 1.408 1A1.48 1.48 0 0 0 30 5.5c0-.831-.669-1.5-1.5-1.5zm-1.166 3.424L11 16.758v1l9.889-9.889a1.492 1.492 0 0 1-.555-.445z"/></svg>