<svg xmlns="http://www.w3.org/2000/svg" width="32" height="32"><path style="opacity:.2" d="M16 3A14 14 0 0 0 2 17a14 14 0 0 0 14 14 14 14 0 0 0 14-14A14 14 0 0 0 16 3z"/><path style="fill:#e3ac33" d="M16 2A14 14 0 0 0 2 16a14 14 0 0 0 14 14 14 14 0 0 0 14-14A14 14 0 0 0 16 2z"/><path style="fill:#383838" d="M16.257 6.013c-.097.286-.186.538-.292.887-.35 1.156-.683 2.578-.68 3.383.004.769.338 2.134.686 3.243.089.285.135.395.21.617.103-.207.15-.32.282-.575.565-1.08 1.271-2.325 2.06-3.122.816-.823 2.1-1.569 3.214-2.165.142-.076.233-.116.368-.186a10 10 0 0 0-5.848-2.082zm-1.53.08a10 10 0 0 0-5.609 2.658c.134.268.248.505.419.823.568 1.061 1.333 2.3 1.92 2.892.581.587 1.864 1.398 2.968 2.005.169.093.285.148.438.229-.088-.256-.15-.41-.255-.747-.365-1.162-.746-2.543-.75-3.665-.006-1.158.374-2.593.74-3.803.047-.154.082-.247.128-.392zm8.52 3.024c-.271.135-.513.25-.837.424-1.065.57-2.305 1.339-2.872 1.911-.541.546-1.27 1.747-1.81 2.778-.137.263-.182.373-.285.583.212-.072.355-.127.604-.205 1.162-.365 2.543-.746 3.665-.75 1.158-.006 2.593.374 3.803.74.154.047.247.082.392.128a10 10 0 0 0-2.66-5.61zm-15.152.778a10 10 0 0 0-2.083 5.847c.283.094.53.18.874.285 1.152.348 2.57.684 3.402.687.827.004 2.308-.331 3.518-.682.129-.037.21-.067.329-.103-.141-.075-.244-.123-.396-.207-1.15-.632-2.471-1.417-3.297-2.25-.822-.829-1.572-2.113-2.167-3.223-.073-.137-.112-.224-.18-.354zm13.622 5.39c-.769.004-2.134.338-3.243.686-.26.081-.401.136-.616.209.202.1.342.162.574.283 1.08.565 2.325 1.271 3.122 2.06.823.816 1.569 2.1 2.165 3.214.076.142.116.233.186.368a10 10 0 0 0 2.082-5.848c-.286-.097-.538-.186-.887-.292-1.156-.35-2.578-.683-3.383-.68zm-7.086 1.985c-.152.046-.259.085-.426.133-1.26.366-2.749.745-3.922.74-1.167-.005-2.607-.384-3.812-.748-.149-.045-.238-.08-.378-.124a10 10 0 0 0 2.658 5.611c.268-.134.505-.248.823-.419 1.061-.568 2.3-1.333 2.892-1.92.587-.581 1.398-1.864 2.005-2.968.065-.118.103-.197.16-.305zm2.68.233c.033.106.06.177.092.292.366 1.26.745 2.749.74 3.922-.005 1.167-.384 2.607-.748 3.812-.045.149-.08.238-.124.378a10 10 0 0 0 5.612-2.66c-.135-.271-.25-.513-.424-.837-.57-1.065-1.339-2.305-1.911-2.872-.546-.541-1.747-1.27-2.778-1.81-.19-.099-.292-.142-.459-.225zm-1.382.362c-.073.138-.123.244-.207.396-.632 1.15-1.417 2.471-2.25 3.297-.829.822-2.113 1.572-3.223 2.167-.137.073-.224.112-.354.18a10 10 0 0 0 5.847 2.082c.094-.282.18-.529.285-.873.348-1.152.684-2.57.687-3.402.004-.827-.331-2.308-.682-3.518-.037-.129-.067-.212-.103-.329z"/><circle style="opacity:.2" cx="16" cy="17" r="4"/><circle style="fill:#e4e4e4" cx="16" cy="16" r="4"/><path style="fill:#fff;opacity:.2" d="M16 2A14 14 0 0 0 2 16a14 14 0 0 0 .021.414A14 14 0 0 1 16 3a14 14 0 0 1 13.979 13.586A14 14 0 0 0 30 16 14 14 0 0 0 16 2z"/></svg>