<svg width="32" height="32" xmlns="http://www.w3.org/2000/svg"><path d="M6.313 27c1.061 2.275 2.374 4 3.687 4 3 0 4-1 6-1s3 1 6 1c1.311 0 2.61-1.731 3.668-4z" style="opacity:.2"/><path d="M6.313 26c1.061 2.275 2.374 4 3.687 4 3 0 4-1 6-1s3 1 6 1c1.311 0 2.61-1.731 3.668-4H6.313z" style="fill:#009bda"/><path d="M4.867 23c.388 1.373.869 2.764 1.446 4h19.355c.488-1.048.93-2.2 1.289-3.367a6 6 0 0 1-1.25-.633z" style="opacity:.2"/><path d="M4.867 22c.388 1.373.869 2.764 1.446 4h19.355c.488-1.048.93-2.2 1.289-3.367a6 6 0 0 1-1.25-.633H4.867z" style="fill:#953c96"/><path d="M4.19 20c.144.932.382 1.954.677 3h20.84a6 6 0 0 1-2.357-3z" style="opacity:.2"/><path d="M4.19 19c.144.932.382 1.954.677 3h20.84a6 6 0 0 1-2.357-3H4.19z" style="fill:#de393d"/><path d="M4.248 16A8.647 8.647 0 0 0 4 18c0 .573.075 1.263.19 2h19.16a6 6 0 0 1-.35-2 6 6 0 0 1 .352-2z" style="opacity:.2"/><path d="M4.248 15A8.647 8.647 0 0 0 4 17c0 .573.075 1.263.19 2h19.16a6 6 0 0 1-.35-2 6 6 0 0 1 .352-2H4.248z" style="fill:#f4811e"/><path d="M5.53 13a9.644 9.644 0 0 0-1.282 3h19.104a6 6 0 0 1 2.34-3z" style="opacity:.2"/><path d="M5.53 12a9.644 9.644 0 0 0-1.282 3h19.104a6 6 0 0 1 2.34-3H5.528z" style="fill:#fbb625"/><path d="M21 3s-2 0-4 2-2 5-2 5 3 0 5-3c.784-1.177 1-4 1-4zm-11 7c-1.66 0-3.319 1.228-4.47 3H25.69a6 6 0 0 1 .553-.328C25.107 11.079 23.555 10 22 10c-4 0-4 1-6 1s-2-1-6-1z" style="opacity:.2"/><path d="M21 2s-2 0-4 2-2 5-2 5 3 0 5-3c.784-1.177 1-4 1-4zM10 9c-1.66 0-3.319 1.228-4.47 3H25.69a6 6 0 0 1 .553-.328C25.107 10.079 23.555 9 22 9c-4 0-4 1-6 1s-2-1-6-1z" style="fill:#60ba45"/><path d="M21 2s-2 0-4 2-2 5-2 5 .085-.01.1-.01c.169-1.052.63-2.72 1.9-3.99 1.815-1.815 3.553-1.973 3.873-1.988C20.953 2.452 21 2 21 2zM10 9c-3 0-6 4-6 8 0 .16.014.342.023.518C4.25 13.685 7.121 10 10 10c4 0 4 1 6 1s2-1 6-1c1.321 0 2.637.783 3.701 1.994a6 6 0 0 1 .543-.322C25.107 10.079 23.555 9 22 9c-4 0-4 1-6 1a4.79 4.79 0 0 1-.594-.04C15.192 9.987 15 10 15 10l.008-.11C13.852 9.637 13.206 9 10 9zm13.025 8.467A6 6 0 0 0 23 18a6 6 0 0 0 3.664 5.51c.1-.292.203-.583.293-.877a6 6 0 0 1-3.932-5.166z" style="fill:#fff;opacity:.2"/></svg>