<svg xmlns="http://www.w3.org/2000/svg" width="32" height="32" version="1"><circle style="opacity:.2" cx="16" cy="17" r="14"/><circle style="fill:#3f3f3f" cx="16" cy="16" r="14"/><path style="opacity:.2" d="M16 5A12 12 0 0 0 4 17a12 12 0 0 0 12 12 12 12 0 0 0 12-12A12 12 0 0 0 16 5zm-9.898 8H26v3.346c0 .636-.006 1.186-.121 1.793-.115.606-.41 1.37-1.024 1.916-1.225 1.09-2.416.924-3.816.92-1.138-.004-1.947.007-2.885-.342-.938-.35-1.691-1.26-2.023-1.94-.047-.096-.07-.127-.092-.162l-.018-.002-.017-.002c-.026.038-.044.057-.094.15-.38.707-.852 1.39-1.758 1.823-.611.292-.878.281-1.275.34-.397.058-.825.098-1.264.125-.877.054-1.61.117-2.543-.082-.857-.184-1.98-.703-2.545-1.697-.563-.994-.549-1.91-.517-2.932v-.004z"/><path style="fill:#f54636" d="M16 4A12 12 0 0 0 4 16a12 12 0 0 0 12 12 12 12 0 0 0 12-12A12 12 0 0 0 16 4zm-9.898 8H26v3.346c0 .636-.006 1.186-.121 1.793-.115.606-.41 1.37-1.024 1.916-1.225 1.09-2.416.924-3.816.92-1.138-.004-1.947.007-2.885-.342-.938-.35-1.691-1.26-2.023-1.94-.047-.096-.07-.127-.092-.162-.012 0-.002 0-.018-.002l-.017-.002c-.026.038-.044.058-.094.15-.38.707-.852 1.39-1.758 1.823-.61.292-.878.281-1.275.34-.397.058-.825.098-1.264.125-.877.054-1.61.117-2.543-.082-.857-.184-1.98-.703-2.545-1.697-.563-.994-.549-1.91-.517-2.932v-.004L6.102 12z"/><path style="opacity:.2" d="M13.29 18.695c.304-.146.594-.471.86-.965.513-.954 1.085-1.285 2.06-1.193.839.08 1.3.424 1.718 1.278.478.978.948 1.153 3.117 1.16 2.676.01 2.955-.239 2.955-2.63V15H8.044l-.038 1.312c-.056 1.806.254 2.352 1.483 2.615.796.171 3.274.02 3.8-.232z"/><path style="fill:#fff" d="M13.29 17.695c.304-.146.594-.471.86-.965.513-.954 1.085-1.285 2.06-1.193.839.08 1.3.424 1.718 1.278.478.978.948 1.153 3.117 1.16 2.676.01 2.955-.239 2.955-2.63V14H8.044l-.038 1.312c-.056 1.806.254 2.352 1.483 2.615.796.171 3.274.02 3.8-.232z"/><path style="fill:#fff;opacity:.1" d="M16 2A14 14 0 0 0 2 16a14 14 0 0 0 .021.586A14 14 0 0 1 16 3a14 14 0 0 1 13.979 13.414A14 14 0 0 0 30 16 14 14 0 0 0 16 2z"/><path style="opacity:.2;fill:#fff" d="M16 4A12 12 0 0 0 4 16a12 12 0 0 0 .02.406A12 12 0 0 1 16 5a12 12 0 0 1 11.98 11.594A12 12 0 0 0 28 16 12 12 0 0 0 16 4zm10 11.346c0 .636-.006 1.186-.121 1.793-.115.606-.41 1.37-1.024 1.916-1.225 1.09-2.416.924-3.816.92-1.138-.004-1.947.007-2.885-.342-.938-.35-1.691-1.26-2.023-1.94-.047-.096-.07-.127-.092-.162-.012 0-.002 0-.018-.002l-.017-.002c-.026.038-.044.058-.094.15-.38.707-.852 1.39-1.758 1.823-.61.292-.878.281-1.275.34-.397.058-.825.098-1.264.125-.877.054-1.61.117-2.543-.082-.857-.184-1.98-.703-2.545-1.697-.383-.677-.49-1.318-.515-1.98l-.002.044v.004c-.032 1.022-.046 1.938.517 2.932.564.994 1.688 1.513 2.545 1.697.932.2 1.666.136 2.543.082.439-.027.867-.067 1.264-.125.397-.059.664-.048 1.275-.34.906-.433 1.378-1.116 1.758-1.822.05-.093.068-.113.094-.15l.017.001.018.002c.022.035.045.066.092.162.332.68 1.085 1.59 2.023 1.94.938.349 1.747.338 2.885.342 1.4.004 2.59.17 3.816-.92.613-.546.91-1.31 1.024-1.916.115-.607.121-1.157.121-1.793v-1z"/></svg>