<svg xmlns="http://www.w3.org/2000/svg" width="32" height="32" version="1"><circle style="opacity:.2" cx="16" cy="17" r="14"/><circle style="fill:#108beb" cx="16" cy="16" r="14"/><path style="fill:#206420" d="M14.678 2.075a14 14 0 0 0-5.067 1.47c.07.224-.012.477-.27.7-.174.151-.316.386-.316.524 0 .42.379 1.064.682 1.158.402.124.267.554-.25.791-.24.11-.535.426-.655.703-.121.277-.299.55-.396.607-.096.057-.175.273-.175.481 0 .29.133.431.57.606.312.125.686.216.83.202.834-.078.892.407.164 1.357-.388.504-.574.63-.838.567-.245-.06-.38.01-.492.254-.117.258-.31.346-.83.381-.51.036-.738.14-.929.419-.14.204-.341.369-.449.369-.107 0-.36.137-.56.304-.41.34-.569.373-.712.151-.19-.294-.599-.145-1.208.438-.538.515-.603.653-.522 1.1.145.796.576 1.503 1.07 1.749.43.215.438.238.177.514-.15.159-.407.329-.572.378-.473.145-.207.325.639.433.865.11 1.134.424.73.851-.225.239-.213.284.15.51.706.444 1.268.173.605-.292-.427-.299-.129-.42.497-.204.5.173.598.163.893-.093.605-.524 1.263.251.71.837-.352.373-.246.822.21.884.202.028.62.215.931.418.311.201.65.367.752.367.102 0 .39.205.641.456.509.507.79.572.934.214.172-.43.103-.652-.361-1.158-.369-.403-.969-1.474-.969-1.73 0-.159.61-.025.951.208.214.147.56.335.77.42.222.091.453.374.558.684.165.485.23.527.812.527h.633l.096 1.138c.115 1.368.225 1.646.694 1.758.346.084.715.62.715 1.038 0 .111-.248.384-.552.606-.377.275-.54.509-.514.738.032.286-.034.33-.439.3-.26-.019-.715.073-1.006.204a1.827 1.827 0 0 1-1.07.143c-.403-.073-.539-.045-.539.113 0 .116-.141.333-.314.483-.425.369-.25.564.404.447.406-.073.564-.041.634.134.15.372-.228.904-.58.816-.222-.056-.328.02-.397.283a.649.649 0 0 1-.12.24 14 14 0 0 0 2.215.654c-.07-.134-.15-.256-.228-.31-.36-.255-.119-.917.377-1.036.507-.122.427-.45-.123-.513-.483-.055-.996-.544-.835-.793.109-.168.57-.143 1.503.078.421.1.71-.1 1.686-1.169.565-.619 1-.876 1.476-.876.182 0 .83-.168 1.443-.372 1.155-.387 1.606-.373 1.563.049-.088.878.477.848 1.398-.072.383-.382.734-.66.78-.616.175.168-.141.99-.51 1.322-.47.421-.492.687-.08.898.225.116.321.35.357.878l.048.72h.585c.205 0 .375.028.512.08a14 14 0 0 0 6.783-11.554c-.214-.458-.199-.734 0-1.046a14 14 0 0 0-.063-.785 4.283 4.283 0 0 0-.407-.005c-.706.03-1.31-.249-1.31-.603 0-.075-.25-.384-.556-.685-.347-.342-.525-.644-.473-.801.047-.143-.055-.373-.236-.53-.175-.152-.32-.397-.32-.544 0-.234-.149-.264-1.227-.238l-1.228.03.02 1.21c.037 2.12.353 2.67 1.327 2.315.446-.163 1.541-.04 1.853.208.112.09.275.414.361.722.087.307.408.84.714 1.182.62.695.669.966.313 1.78-.31.712-.644.63-.578-.142l.05-.574-.526.098c-.29.056-.654.27-.817.482-.233.302-.341.346-.516.208a.656.656 0 0 1-.22-.452c0-.15-.15-.319-.332-.374-.183-.055-.433-.33-.555-.613-.197-.45-.192-.588.037-1.136.232-.555.234-.647.02-.852-.196-.187-.297-.194-.555-.039-.259.155-.381.144-.69-.063a1.691 1.691 0 0 0-.796-.252c-.472 0-.615-.23-.615-.99 0-.702-.419-.957-1.416-.865-.691.064-.844.018-1.402-.411-.345-.266-.89-.904-1.211-1.42a39.039 39.039 0 0 0-.77-1.2c-.146-.206-.11-.404.175-.967l.36-.707-.76.103c-1.353.183-1.627.358-1.045.67.227.121.236.184.061.386-.114.132-.168.34-.119.465.05.123-.013.414-.139.646-.127.232-.232.558-.237.725-.013.522-.906.937-1.901.881-1.508-.083-1.63-.06-2.166.438-.67.621-.755.91-.444 1.487.302.56.838.784 1.766.737.83-.04.924.033.734.581-.161.467-.703.646-1.07.355-.283-.225-1.258-.051-1.557.278-.126.137-.312.498-.413.8-.175.523-.226.555-1.01.63-.783.077-.859.051-1.421-.467-.628-.578-.735-1.02-.432-1.782.134-.338.233-.393.592-.327.71.13.99-.117.99-.875 0-.368-.072-.712-.16-.763-.086-.052-.157-.247-.157-.434s-.09-.427-.199-.533c-.159-.154-.135-.237.118-.416.174-.122.46-.205.634-.184.174.021.657-.055 1.072-.167.6-.162.776-.284.857-.6.154-.6.53-1.08.845-1.08.498 0 .508-1.17.025-2.873-.072-.251-.268-.41-.615-.497-.282-.07-.588-.262-.68-.427-.092-.165-.26-.3-.375-.3-.114 0-.337-.136-.495-.303-.159-.168-.487-.303-.737-.303-.591 0-.601-.408-.014-.622.62-.227 1.584.07 1.817.56.316.664.666.387.779-.616.14-1.242.568-1.599 1.918-1.599h.97l-.425-.425a1.693 1.693 0 0 1-.318-.454zm5.033.44c-.028.025-.054.045-.08.073-.326.331-.478.379-.98.302-.876-.134-.764.22.206.645.525.23.862.493.977.76.553 1.281.934 1.972 1.125 2.042.386.142.617-.144.703-.873.098-.836.381-1.013.89-.556.197.177.473.323.612.323.435 0 .756.174.756.41 0 .124.147.423.327.665.265.357.445.442.94.442.609 0 .982.114 1.743.535.012.006.024.008.036.015a14 14 0 0 0-7.255-4.783zM2.003 15.94A14 14 0 0 0 2 16a14 14 0 0 0 .273 2.69c.508.206.648.124.7-.348.028-.244.155-.52.285-.616.2-.148.164-.224-.246-.504-.266-.18-.528-.497-.581-.702-.052-.2-.228-.416-.428-.58zm4.406 4.628c-.13-.014-.288.056-.463.224-.37.355-.315 1.067.105 1.348.48.323.666.229.727-.366.075-.734-.082-1.176-.369-1.206zm2.376 2.117c-.143.004-.3.107-.458.322-.167.228-.212.523-.149.97.08.55.045.668-.243.816-.37.189-.449.752-.146 1.042.301.288.588.212.692-.182.147-.563.97-.63 1.533-.124.24.216.436.325.436.243 0-.083-.25-.383-.555-.666-.467-.434-.553-.619-.553-1.178 0-.788-.242-1.253-.557-1.243zm-3.902 1.807a14 14 0 0 0 .324.409 2.497 2.497 0 0 0-.324-.41zm4.718 2.149c-.07.024-.1.113-.1.27 0 .158-.101.324-.224.368-.164.06-.202.25-.139.703.012.085.015.153.02.223a14 14 0 0 0 .582.3c-.01-.243.034-.528.161-.885.215-.606.223-.758.048-.864-.164-.1-.276-.14-.348-.115z"/><path style="opacity:.2;fill:none;stroke:#000;stroke-width:2;stroke-linecap:round;stroke-linejoin:bevel" d="M14 14.3s.09.7-2 .7-2-1.911-2-4c0-2.09-.09-4 2-4s2 .8 2 .8"/><path style="fill:none;stroke:#fff;stroke-width:2;stroke-linecap:round;stroke-linejoin:bevel" d="M14 13.3s.09.7-2 .7-2-1.91-2-4-.09-4 2-4 2 .8 2 .8"/><path style="opacity:.2;fill:none;stroke:#000;stroke-width:2;stroke-linecap:round;stroke-linejoin:bevel" d="M18.015 27.003s4.03.48 3.985-4.065c-.046-4.544-3.985-3.935-3.985-3.935M18 26.996v-8"/><path style="fill:none;stroke:#fff;stroke-width:2;stroke-linecap:round;stroke-linejoin:bevel" d="M18.015 26.003s4.03.48 3.985-4.064c-.046-4.545-3.985-3.936-3.985-3.936M18 25.997v-8"/><path style="opacity:.2;fill:none;stroke:#000;stroke-width:2;stroke-linecap:round;stroke-linejoin:round" d="M10.065 19.05H12.3s1.765-.147 1.765 1.75v2.149h-2.3 2.3v2.25c0 1.852-1.765 1.75-1.765 1.75h-2.235"/><path style="fill:none;stroke:#f8f8f8;stroke-width:2;stroke-linecap:round;stroke-linejoin:round" d="M10.065 18.05H12.3s1.765-.147 1.765 1.75v2.15h-2.3 2.3v2.25c0 1.852-1.765 1.75-1.765 1.75h-2.235"/><path style="opacity:.2;fill:none;stroke:#000;stroke-width:2;stroke-linecap:round;stroke-linejoin:bevel" d="M22 14.3s.089.7-2 .7c-2.09 0-2-1.911-2-4 0-2.09-.09-4 2-4 2.089 0 2 .8 2 .8"/><path style="fill:none;stroke:#fff;stroke-width:2;stroke-linecap:round;stroke-linejoin:bevel" d="M22 13.3s.089.7-2 .7c-2.09 0-2-1.91-2-4s-.09-4 2-4c2.089 0 2 .8 2 .8"/><path style="fill:#fff;opacity:.2" d="M16 2A14 14 0 0 0 2 16a14 14 0 0 0 .021.586A14 14 0 0 1 16 3a14 14 0 0 1 13.979 13.414A14 14 0 0 0 30 16 14 14 0 0 0 16 2z"/></svg>