<svg xmlns="http://www.w3.org/2000/svg" width="32" height="32"><path style="fill:#465051" d="M15.5 2.5c-1.797 0-4.44.46-6.877 1.574-.148.068-.298.13-.444.202-.62.308-1.222.66-1.788 1.061l-.048.036c-.087.062-.173.125-.258.19-.048.036-.093.075-.14.112-.097.076-.192.154-.286.233-.041.035-.085.066-.126.101l-.039.033c-.049.044-.094.09-.143.135a10.087 10.087 0 0 0-.796.812c-.04.046-.084.089-.123.136-.036.042-.07.087-.104.13-.017.02-.031.043-.047.064-.064.08-.126.162-.186.245-.042.056-.086.109-.126.166a8.38 8.38 0 0 0-.212.318v.001c-.138.216-.265.44-.382.671-.1.198-.191.402-.276.61l-.044.106a8.076 8.076 0 0 0-.137.376c-.03.089-.056.18-.083.271-.011.039-.025.077-.036.116a8.673 8.673 0 0 0-.311 2.032c-.027.75.045 1.528.196 2.319.767 4.004 3.615 8.352 6.494 11.259 1.167 1.177 3.261 3.032 5.293 3.549.213.054.425.096.635.118.132.014.264.024.394.024 2.32 0 4.957-2.313 6.323-3.691 2.77-2.797 5.512-6.93 6.397-10.806.103-.447.18-.893.23-1.331a9.68 9.68 0 0 0 .062-1.441C28.25 4.879 19.632 2.5 15.5 2.5zm-1.008 4.604zm0 0zm1.495.052zm-2.955.04zm4.131.103zm-5.41.063zm6.707.222zm-7.96.011zm9.116.362zm1 .416zm1.247.673zm1.018.66zM12.825 13.11zm1.203 1.354zm.534.693zm.48.73zm.434.835zm.401 1.131zm.292 1.445c.005.042.01.085.013.127l-.013-.127zm.05 2.05zm-.126 1.44zm-.27 1.636z"/><path style="opacity:.2" d="M15.5 3c-1.863 0-4.604.478-7.132 1.632-.153.07-.309.134-.46.21-.644.319-1.267.684-1.854 1.1l-.05.037c-.09.065-.18.13-.268.197-.05.037-.096.078-.144.116-.101.079-.2.16-.297.242-.043.036-.089.069-.13.105l-.041.035c-.051.044-.098.093-.149.14a10.455 10.455 0 0 0-.825.841c-.042.048-.087.092-.128.141-.037.044-.072.09-.108.135-.017.022-.032.045-.049.066-.066.083-.13.169-.193.254-.043.058-.089.113-.13.173a8.496 8.496 0 0 0-.616 1.027 8.33 8.33 0 0 0-.286.632l-.046.11c-.05.127-.097.258-.141.39-.031.092-.059.187-.086.281-.012.04-.027.08-.038.12a8.994 8.994 0 0 0-.323 2.107 10.77 10.77 0 0 0 .204 2.405c.795 4.153 3.749 8.662 6.734 11.676 1.21 1.221 3.382 3.144 5.489 3.68.221.057.44.1.659.123.137.015.273.025.408.025 2.405 0 5.14-2.398 6.557-3.828 2.873-2.9 5.716-7.186 6.635-11.206.106-.464.187-.926.238-1.38.058-.507.082-1.006.064-1.495C28.721 5.467 19.784 3 15.5 3zm-1.045 4.774zm0 0zm1.55.055zm-3.064.04zm4.284.108zm-5.61.065zm6.955.23zm-8.256.012zm9.455.375zm1.036.432zm1.294.697zm1.056.685zm-10.43 3.529zm1.248 1.404zm.554.719zm.498.757zm.45.866zm.416 1.173zm.303 1.498.014.132-.014-.132zm.053 2.126zm-.132 1.493zm-.28 1.697z"/><path style="fill:#e45e3e" d="M16.693 7.95a13 13 0 0 0-2.453.21h-.001c-1.38.247-2.795.714-4.279 1.4.203.328.413.638.629.933.215.295.436.574.659.844 1.56 1.886 3.238 3.243 4.208 5.359v.001c.484 1.058.791 2.306.817 3.904v.001c.026 1.599-.23 3.547-.87 6.009-.259.994-.579 2.07-.97 3.241.221.057.44.1.659.123.137.015.273.025.408.025 2.406 0 5.14-2.398 6.557-3.828 2.873-2.9 5.716-7.186 6.635-11.206-1.523-1.93-2.72-3.437-4.573-4.77-2.444-1.758-4.976-2.218-7.426-2.246z"/><path style="fill:#519c26" d="M2.33 9.984a8.994 8.994 0 0 0-.324 2.107 10.77 10.77 0 0 0 .203 2.405c2.213-1.705 4.234-3.076 6.13-4.115a15.233 15.233 0 0 1-1.196-2.238s-4.015-.857-4.813 1.84z"/><path style="fill:#2194cd" d="M28.994 12.091C28.721 4.467 19.784 2 15.5 2c-1.977 0-4.943.527-7.592 1.841-.644.32-1.267.686-1.854 1.102-1.72 1.217-3.117 2.866-3.725 5.041a53.338 53.338 0 0 1 4.814-1.842c.62-.2 1.224-.377 1.813-.533 6.385-1.694 10.957-.809 15.163 2.587 1.55 1.251 3.05 2.84 4.573 4.77.106-.464.186-.925.238-1.38.057-.507.082-1.006.064-1.495z"/><path style="fill:#65c32f" d="M8.339 10.38c-1.896 1.04-3.917 2.41-6.13 4.116.795 4.152 3.75 8.661 6.735 11.675 1.21 1.222 3.382 3.145 5.489 3.681.39-1.171.712-2.247.97-3.24v-.001c.024-.376.042-.738.056-1.088.014-.35.023-.688.027-1.015a32.26 32.26 0 0 0 0-.945 25.136 25.136 0 0 0-.082-1.698 19.506 19.506 0 0 0-.079-.759c-.06-.487-.136-.938-.226-1.356-.405-1.883-1.097-3.118-1.938-4.134a10.967 10.967 0 0 0-.286-.33 14.786 14.786 0 0 0-.6-.628c-.412-.407-.844-.8-1.285-1.215-.22-.208-.443-.42-.666-.644a19.526 19.526 0 0 1-.335-.344c-.336-.353-.67-.734-1-1.16a13.67 13.67 0 0 1-.65-.914z"/><path style="fill:#465051" d="M6.054 4.943a11.417 11.417 0 0 0-.89.696l-.04.034c-.395.346-.765.72-1.102 1.123l-.109.135a9.034 9.034 0 0 0-.59.823c-.001 0 0 0 0 0a8.349 8.349 0 0 0-.682 1.33c-.016.036-.033.072-.047.109a8.34 8.34 0 0 0-.141.39c-.03.092-.059.186-.087.281l-.036.12a53.334 53.334 0 0 1 4.813-1.841 21.988 21.988 0 0 1-1.089-3.2z"/><path style="opacity:.2" d="M8.368 3.632c-.153.07-.309.134-.46.21-.644.319-1.267.684-1.854 1.1l-.05.038.05-.036a21.98 21.98 0 0 0 1.09 3.199c.62-.2 1.223-.377 1.811-.533l.117-.03a13.036 13.036 0 0 1-.704-3.948z"/><path style="opacity:.2;fill:#fff" d="M15.5 2c-1.863 0-4.603.478-7.13 1.633-.154.07-.31.134-.462.209a13.85 13.85 0 0 0-1.853 1.1 11.71 11.71 0 0 0-.318.234c-.05.037-.097.079-.145.117-.1.079-.2.158-.297.24-.043.036-.089.07-.13.106l-.042.035c-.051.045-.098.093-.148.138a10.464 10.464 0 0 0-.825.842c-.041.048-.088.094-.129.143-.036.044-.07.09-.107.135-.017.02-.032.043-.049.064a9.17 9.17 0 0 0-.193.256c-.043.058-.09.113-.131.172a8.699 8.699 0 0 0-.219.33H3.32a8.32 8.32 0 0 0-.68 1.33c-.014.037-.032.072-.046.11-.05.127-.097.256-.14.388-.032.093-.059.187-.087.281-.012.04-.028.08-.039.121a9 9 0 0 0-.322 2.108c-.01.253.01.513.021.771.04-.663.137-1.293.301-1.879.011-.04.027-.08.04-.12.027-.095.054-.19.085-.282.044-.132.09-.261.14-.389.015-.037.033-.072.048-.109a8.32 8.32 0 0 1 .68-1.33h.001c.071-.112.143-.222.219-.33.041-.06.088-.114.13-.172a9.17 9.17 0 0 1 .194-.256c.017-.021.032-.043.05-.064.035-.045.07-.091.106-.135.041-.049.088-.095.13-.143a9.683 9.683 0 0 1 .552-.584c.09-.087.18-.174.272-.258.05-.045.097-.093.148-.138l.041-.035c.042-.037.088-.07.13-.106.099-.082.197-.161.298-.24.048-.038.095-.08.144-.117.089-.067.178-.133.268-.197l.05-.038a13.85 13.85 0 0 1 1.854-1.1c.152-.074.308-.138.461-.208C10.897 3.478 13.637 3 15.5 3c4.254 0 13.087 2.434 13.482 9.93a9.36 9.36 0 0 0 .012-.838C28.721 4.468 19.784 2 15.5 2zm.506 4.828zm0 1z"/><path style="opacity:.2" d="M14.455 7.774c-1.685.028-3.504.306-5.5.836-.588.156-1.191.333-1.812.533.376.863.78 1.597 1.196 2.238.214.328.43.631.65.915.33.425.664.807.999 1.16h.001a29.944 29.944 0 0 0 1 .988c.442.415.874.806 1.286 1.214.206.203.405.411.6.627.096.108.192.218.285.331.842 1.015 1.534 2.251 1.939 4.134.09.419.166.87.226 1.357.03.243.057.496.08.758.043.525.07 1.09.08 1.697v.002a32.212 32.212 0 0 1-.027 1.959v.001c-.013.35-.031.712-.055 1.087.173-.665.313-1.285.431-1.879.037-.18.06-.343.09-.518.074-.405.142-.805.19-1.178.024-.183.038-.355.056-.53.034-.331.062-.654.077-.96.015-.323.03-.645.026-.942V21.6c-.006-.369-.03-.714-.065-1.047l-.014-.134a9.917 9.917 0 0 0-.133-.822 8.896 8.896 0 0 0-.175-.702c-.028-.096-.05-.2-.08-.293a8.413 8.413 0 0 0-.33-.855c-.008-.016-.013-.035-.02-.05v-.002a8.743 8.743 0 0 0-.43-.813c-.059-.099-.123-.19-.184-.286-.102-.16-.205-.319-.315-.472-.068-.095-.14-.188-.21-.281a14.851 14.851 0 0 0-.357-.456l-.168-.198c-.34-.4-.7-.791-1.066-1.188-.119-.128-.231-.258-.351-.388a31.918 31.918 0 0 1-1.127-1.276v-.001c-.223-.27-.444-.549-.66-.844a14.798 14.798 0 0 1-.628-.932c.344-.16.682-.302 1.019-.438.087-.035.174-.067.26-.101a18.79 18.79 0 0 1 1.06-.373c.229-.073.457-.139.684-.2.102-.028.206-.058.308-.083.305-.076.608-.144.909-.198l.039-.009h.001a13.42 13.42 0 0 1 1.385-.17c.357-.025.714-.043 1.069-.039 2.45.028 4.981.488 7.425 2.246-2.891-2.334-5.956-3.483-9.664-3.422z"/><path style="fill:#fff" d="M14.455 6.774c-1.685.028-3.504.306-5.5.836-.588.156-1.191.333-1.812.533.376.863.78 1.597 1.196 2.238.214.328.43.63.65.915.33.425.664.806.999 1.159h.001a29.944 29.944 0 0 0 1 .988c.442.415.874.807 1.286 1.214.206.204.405.412.6.628.096.108.192.218.285.33.842 1.016 1.534 2.252 1.939 4.135.09.419.166.87.226 1.356.03.244.057.497.08.76.043.524.07 1.088.08 1.696v.001a32.212 32.212 0 0 1-.027 1.96c-.013.35-.031.713-.055 1.088.173-.665.313-1.286.431-1.879.037-.18.06-.344.09-.518.074-.405.142-.805.19-1.178.024-.183.038-.355.056-.53.034-.332.062-.655.077-.96.015-.323.03-.646.026-.943v-.002c-.006-.37-.03-.714-.065-1.048l-.014-.134a9.917 9.917 0 0 0-.133-.821 8.896 8.896 0 0 0-.175-.702c-.028-.097-.05-.2-.08-.294a8.413 8.413 0 0 0-.33-.854c-.008-.016-.013-.035-.02-.05v-.002a8.743 8.743 0 0 0-.43-.814c-.059-.098-.123-.19-.184-.285-.102-.16-.205-.319-.315-.472-.068-.095-.14-.188-.21-.282a14.851 14.851 0 0 0-.357-.455c-.055-.067-.112-.132-.168-.198-.34-.4-.7-.791-1.066-1.188-.119-.129-.231-.258-.351-.389a31.918 31.918 0 0 1-1.127-1.275v-.002c-.223-.27-.444-.548-.66-.843a14.798 14.798 0 0 1-.628-.933c.344-.158.682-.302 1.019-.437.087-.035.174-.068.26-.101a18.79 18.79 0 0 1 1.06-.373c.229-.073.457-.139.684-.2.102-.028.206-.058.308-.083.305-.076.608-.144.909-.199l.039-.008h.001a13.42 13.42 0 0 1 1.385-.17c.357-.026.714-.043 1.069-.04 2.45.029 4.981.49 7.425 2.247-2.891-2.335-5.956-3.483-9.664-3.422z"/></svg>