<svg xmlns="http://www.w3.org/2000/svg" width="32" height="32"><path style="opacity:.1" d="M10.5 3A2.5 2.5 0 0 0 8 5.5 2.5 2.5 0 0 0 10.5 8 2.5 2.5 0 0 0 13 5.5 2.5 2.5 0 0 0 10.5 3zm0 5H6.1C5.492 8 5 8.515 5 9.12v5.78a1.006 1.006 0 0 0 2 0V10h1v13.886a1.006 1.006 0 0 0 2 0V16h1v7.836a1.006 1.006 0 0 0 2 0V10h1v4.9a1.006 1.006 0 0 0 2 0V9.12C16 8.516 15.508 8 14.9 8z"/><path style="fill:#9ccc65" d="M10.5 2A2.5 2.5 0 0 0 8 4.5 2.5 2.5 0 0 0 10.5 7 2.5 2.5 0 0 0 13 4.5 2.5 2.5 0 0 0 10.5 2zm0 5H6.1C5.492 7 5 7.515 5 8.12v5.78a1.006 1.006 0 0 0 2 0V9h1v13.887a1.006 1.006 0 0 0 2 0V15h1v7.836a1.006 1.006 0 0 0 2 0V9h1v4.9a1.006 1.006 0 0 0 2 0V8.121C16 7.515 15.508 7 14.9 7z"/><path style="opacity:.1;fill:#fff" d="M10.5 2A2.5 2.5 0 0 0 8 4.5a2.5 2.5 0 0 0 .053.504A2.5 2.5 0 0 1 10.5 3a2.5 2.5 0 0 1 2.447 1.99A2.5 2.5 0 0 0 13 4.5 2.5 2.5 0 0 0 10.5 2zM6.1 7C5.492 7 5 7.515 5 8.121v1c0-.606.492-1.12 1.1-1.121h4.4a2.5 2.5 0 0 1-1.996-1H6.1zm4.4 1h4.4c.608 0 1.1.515 1.1 1.121v-1c0-.606-.492-1.12-1.1-1.121h-2.402A2.5 2.5 0 0 1 10.5 8z"/><path style="opacity:.1" d="M16.5 6A2.5 2.5 0 0 0 14 8.5a2.5 2.5 0 0 0 2.5 2.5A2.5 2.5 0 0 0 19 8.5 2.5 2.5 0 0 0 16.5 6zm0 5h-4.4c-.608 0-1.1.514-1.1 1.12v5.78a1.006 1.006 0 0 0 2 0V13h1v13.886a1.006 1.006 0 0 0 2 0V19h1v7.835a1.006 1.006 0 0 0 2 0V13h1v4.9a1.006 1.006 0 0 0 2 0v-5.78c0-.606-.492-1.12-1.1-1.12z"/><path style="fill:#43a047" d="M16.5 5A2.5 2.5 0 0 0 14 7.5a2.5 2.5 0 0 0 2.5 2.5A2.5 2.5 0 0 0 19 7.5 2.5 2.5 0 0 0 16.5 5zm0 5h-4.4c-.608 0-1.1.514-1.1 1.12v5.78a1.006 1.006 0 0 0 2 0V12h1v13.886a1.006 1.006 0 0 0 2 0V18h1v7.836a1.006 1.006 0 0 0 2 0V12h1v4.9a1.006 1.006 0 0 0 2 0v-5.78c0-.606-.492-1.12-1.1-1.12z"/><path style="opacity:.1" d="M22.5 9a2.5 2.5 0 0 0-2.5 2.5 2.5 2.5 0 0 0 2.5 2.5 2.5 2.5 0 0 0 2.5-2.5A2.5 2.5 0 0 0 22.5 9zm0 5h-4.4c-.608 0-1.1.515-1.1 1.12v5.78a1.006 1.006 0 0 0 2 0V16h1v13.886a1.006 1.006 0 0 0 2 0V22h1v7.836a1.006 1.006 0 0 0 2 0V16h1v4.9a1.006 1.006 0 0 0 2 0v-5.78c0-.605-.492-1.12-1.1-1.12z"/><path style="opacity:.1;fill:#fff" d="M16.5 5A2.5 2.5 0 0 0 14 7.5a2.5 2.5 0 0 0 .053.504A2.5 2.5 0 0 1 16.5 6a2.5 2.5 0 0 1 2.447 1.994A2.5 2.5 0 0 0 19 7.5 2.5 2.5 0 0 0 16.5 5zm-4.4 5c-.608 0-1.1.515-1.1 1.121v1c0-.606.492-1.12 1.1-1.121h4.4a2.5 2.5 0 0 1-1.996-1H12.1zm4.4 1h4.4c.608 0 1.1.515 1.1 1.121v-1c0-.606-.492-1.12-1.1-1.121h-2.404a2.5 2.5 0 0 1-1.996 1z"/><path style="fill:#00695c" d="M22.5 8a2.5 2.5 0 0 0-2.5 2.5 2.5 2.5 0 0 0 2.5 2.5 2.5 2.5 0 0 0 2.5-2.5A2.5 2.5 0 0 0 22.5 8zm0 5h-4.4c-.608 0-1.1.515-1.1 1.121v5.78a1.006 1.006 0 0 0 2 0V15h1v13.887a1.006 1.006 0 0 0 2 0V21h1v7.836a1.006 1.006 0 0 0 2 0V15h1v4.9a1.006 1.006 0 0 0 2 0v-5.779c0-.606-.492-1.121-1.1-1.121z"/><path style="fill:#fff;opacity:.1" d="M22.5 8a2.5 2.5 0 0 0-2.5 2.5 2.5 2.5 0 0 0 .053.504A2.5 2.5 0 0 1 22.5 9a2.5 2.5 0 0 1 2.447 1.994A2.5 2.5 0 0 0 25 10.5 2.5 2.5 0 0 0 22.5 8zm-4.4 5c-.608 0-1.1.515-1.1 1.121v1c0-.606.492-1.12 1.1-1.121h4.4a2.5 2.5 0 0 1-1.996-1H18.1zm4.4 1h4.4c.608 0 1.1.515 1.1 1.121v-1c0-.606-.492-1.12-1.1-1.121h-2.402a2.5 2.5 0 0 1-1.998 1z"/></svg>