<svg xmlns="http://www.w3.org/2000/svg" width="32" height="32" version="1"><circle style="opacity:.2" cx="16" cy="17" r="14"/><circle style="fill:#623bb2" cx="16" cy="16" r="14"/><path style="opacity:.2" d="m13.695 3.945-3.821 14.69C8.773 12.533 7.824 9.291 6.53 6.706a14 14 0 0 0-2.856 3.663c.913 2.345 1.792 5.498 2.97 10.474 1.27 5.417 3.325 7.372 8.023 8.299l3.366.801 3.82-14.692c1.136 6.295 2.112 9.546 3.469 12.171a14 14 0 0 0 2.864-3.55c-.962-2.375-1.868-5.61-3.105-10.827-1.269-5.417-3.324-7.372-8.022-8.3zm3.213 3.91c2.382.636 3.29 1.796 4.025 4.168h-1.615l-4.497 14.01c-2.382-.636-3.29-1.796-4.025-4.169h1.615z"/><path style="fill:#fff" d="m13.695 2.945-3.821 14.69C8.773 11.533 7.824 8.291 6.53 5.706A14 14 0 0 0 3.675 9.37c.913 2.345 1.792 5.498 2.97 10.474 1.27 5.417 3.325 7.372 8.023 8.299l3.366.801 3.82-14.692c1.136 6.295 2.112 9.546 3.469 12.171a14 14 0 0 0 2.864-3.55c-.962-2.375-1.868-5.61-3.105-10.827-1.269-5.417-3.324-7.372-8.022-8.3zm3.213 3.91c2.382.636 3.29 1.796 4.025 4.168h-1.615l-4.497 14.01c-2.382-.636-3.29-1.796-4.025-4.169h1.615z"/><path style="opacity:.1;fill:#fff" d="M16 2A14 14 0 0 0 2 16a14 14 0 0 0 .021.586A14 14 0 0 1 16 3a14 14 0 0 1 13.979 13.414A14 14 0 0 0 30 16 14 14 0 0 0 16 2z"/></svg>