<svg xmlns="http://www.w3.org/2000/svg" width="32" height="32" version="1"><rect style="opacity:.2" width="29" height="24" x="2" y="5" rx="1.45" ry="1.2"/><rect style="fill:#167abf" width="29" height="24" x="2" y="4" rx="1.45" ry="1.2"/><path style="fill:#fff;opacity:.1" d="M3.45 4C2.645 4 2 4.534 2 5.2v1C2 5.533 2.646 5 3.45 5h26.1c.804 0 1.45.534 1.45 1.2v-1c0-.666-.646-1.2-1.45-1.2H3.45z"/><path style="opacity:.2" d="M3.45 4C2.647 4 2 4.535 2 5.2v21.6c0 .665.647 1.2 1.45 1.2h7.975V4z"/><path style="opacity:.2" d="M11.479 2.957A1.5 1.5 0 0 0 10 4.48v25c-.029 2.028 3.029 2.028 3 0v-25a1.5 1.5 0 0 0-1.521-1.522zM16.5 7.98c-2.028-.03-2.028 3.028 0 3h6c2.028.028 2.028-3.03 0-3zm2 5c-2.028-.03-2.028 3.028 0 3h7c2.028.028 2.028-3.03 0-3zm0 5c-2.028-.03-2.028 3.028 0 3h7c2.028.028 2.028-3.03 0-3zm-2 5c-2.028-.03-2.028 3.028 0 3h6c2.028.028 2.028-3.03 0-3z"/><path style="fill:none;stroke:#fff;stroke-width:3;stroke-linecap:round" d="M11.5 3.5v25M16.5 8.5h6M18.5 13.5h7M18.5 18.5h7M16.5 23.5h6"/></svg>