<svg xmlns="http://www.w3.org/2000/svg" width="32" height="32" version="1"><rect style="opacity:.2" width="19" height="28" x="6" y="3" rx="2.036" ry="2.1"/><rect style="fill:#868686" width="19" height="28" x="6" y="2" rx="2.036" ry="2.1"/><circle style="fill:#555761" cx="15.5" cy="14.5" r="7.5"/><path style="opacity:.2" d="M13.204 10a3.218 3.218 0 0 0-2.783 1.611l-.347.6-.006.011a.12.12 0 0 0 .04.164l4.052 2.344a3.215 3.215 0 0 0-2.553.284A3.213 3.213 0 0 0 10 17.8c0 1.15.614 2.212 1.61 2.787l.6.347.01.006a.12.12 0 0 0 .165-.04l2.325-4.031a3.21 3.21 0 0 0 5.86 2.52l.347-.6.006-.011a.12.12 0 0 0-.04-.164l-3.919-2.265A3.213 3.213 0 0 0 21 13.243c0-1.15-.614-2.212-1.61-2.787l-.6-.347-.01-.006a.12.12 0 0 0-.165.04l-2.365 4.099a3.223 3.223 0 0 0-.262-2.634A3.21 3.21 0 0 0 13.204 10z"/><path style="fill:#9ab4c0" d="M13.204 9a3.218 3.218 0 0 0-2.783 1.611l-.347.6-.006.011a.12.12 0 0 0 .04.164l4.052 2.344a3.215 3.215 0 0 0-2.553.284A3.213 3.213 0 0 0 10 16.8c0 1.15.614 2.212 1.61 2.787l.6.347.01.006a.12.12 0 0 0 .165-.04l2.325-4.031a3.21 3.21 0 0 0 5.86 2.52l.347-.6.006-.011a.12.12 0 0 0-.04-.164l-3.919-2.265A3.213 3.213 0 0 0 21 12.243c0-1.15-.614-2.212-1.61-2.787l-.6-.347-.01-.006a.12.12 0 0 0-.165.04l-2.365 4.099a3.223 3.223 0 0 0-.262-2.634A3.21 3.21 0 0 0 13.204 9z"/><circle style="opacity:.2" cx="21.174" cy="5.673" r="1.5" transform="rotate(30) skewX(.001)"/><circle style="fill:#fff" cx="20.674" cy="4.807" r="1.5" transform="rotate(30) skewX(.001)"/><circle style="opacity:.2" cx="15.5" cy="5.5" r="1.5"/><circle style="fill:#87d22b" cx="15.5" cy="4.5" r="1.5"/><path style="fill:#555761" d="M8 23v2h3v-2H8zm4 0v3h3v-3h-3zM16 23v1h3v-1z"/><path style="fill:#87d22b" d="M20 23v5h3v-5zM16 24v4h3v-4zM8 25v3h3v-3zM12 26v2h3v-2z"/><path style="opacity:.2" d="M8 28v1h3v-1H8zm4 0v1h3v-1h-3zm4 0v1h3v-1h-3zm4 0v1h3v-1h-3zM8 23v1h3v-1H8zm4 0v1h3v-1h-3zm4 0v1h3v-1h-3z"/><path style="opacity:.2;fill:#fff" d="M20 23v1h3v-1h-3zm-4 1v1h3v-1h-3zm-8 1v1h3v-1H8zm4 1v1h3v-1h-3z"/><path style="fill:#fff;opacity:.2" d="M15.5 3A1.5 1.5 0 0 0 14 4.5a1.5 1.5 0 0 0 .088.5A1.5 1.5 0 0 1 15.5 4a1.5 1.5 0 0 1 1.412 1A1.5 1.5 0 0 0 17 4.5 1.5 1.5 0 0 0 15.5 3z"/><path style="opacity:.2" d="M15.5 7A7.5 7.5 0 0 0 8 14.5a7.5 7.5 0 0 0 .021.553A7.5 7.5 0 0 1 15.5 8a7.5 7.5 0 0 1 7.479 6.947A7.5 7.5 0 0 0 23 14.5 7.5 7.5 0 0 0 15.5 7z"/><path style="fill:#fff;opacity:.2" d="M8.035 2C6.907 2 6 2.936 6 4.1v1C6 3.936 6.907 3 8.035 3h14.93C24.093 3 25 3.936 25 5.1v-1c0-1.164-.907-2.1-2.035-2.1H8.035z"/></svg>