<svg xmlns="http://www.w3.org/2000/svg" width="32" height="32"><path style="opacity:.2" d="M16 3A14 14 0 0 0 2 17a14 14 0 0 0 14 14 14 14 0 0 0 14-14A14 14 0 0 0 16 3z"/><path style="fill:#38738f" d="M16 2A14 14 0 0 0 2 16a14 14 0 0 0 14 14 14 14 0 0 0 14-14A14 14 0 0 0 16 2z"/><path style="opacity:.2" d="M12 7c0 .434.42.795 1 .934V11h-.45v.006c-.567.004-1.012.014-1.536.135-.534.122-1.014.226-1.014.892l.7.332s.365-.275.7-.332c.195-.033.4.01.6.084V16.5L10.5 18l1.5 1.5v5.795L13.5 27l1.5-1.705V12.127c.207-.076.415-.125.6-.094.335.057.7.332.7.332l.7-.332c0-.666-.48-.77-1.014-.892-.664-.153-1.127-.132-1.986-.141V7.934c.58-.139 1-.5 1-.934zm5.66 4c.2.303.34.674.34 1.033a1 1 0 0 1-.307.72c.822.573 1.307 1.609 1.307 2.63 0 1.892-1.055 2.058-3 2.617 1.167 2.854 3.494 5.379 5.795 6.686C23.758 25.872 25.557 26.707 28 27c-2.698-3.293-6.9-4.743-9-8 1.404-.736 3-1.372 3-3.805C22 13.222 20.2 11 18.861 11z"/><path style="fill:#fff" d="M12 11h3v13.295L13.5 26 12 24.295z"/><path style="fill:#fff" d="M12.55 10v.006c-.567.004-1.012.014-1.536.135-.534.122-1.014.226-1.014.893l.7.332s.365-.275.7-.332c.384-.065.813.153 1.15.365v.301H14s.96-.775 1.6-.666c.335.057.7.332.7.332l.7-.332c0-.667-.48-.77-1.014-.893-.664-.153-1.127-.132-1.986-.141h-1z"/><path style="fill:#fff" transform="rotate(90)" d="M6.6-14h4v1h-4z"/><path style="fill:#fff" d="M15 6c0 .552-.672 1-1.5 1S12 6.552 12 6z"/><path style="fill:#fff" transform="rotate(45)" d="M19.45 2.48h2.121v2.121H19.45z"/><path style="fill:#fff" d="M17.66 10c.2.303.34.674.34 1.033a1 1 0 0 1-.307.72c.822.573 1.307 1.609 1.307 2.63 0 1.892-1.055 2.058-3 2.617 1.167 2.854 3.494 5.379 5.795 6.686C23.758 24.872 25.557 25.707 28 26c-2.698-3.293-6.9-4.743-9-8 1.404-.736 3-1.372 3-3.805C22 12.222 20.2 10 18.861 10h-1.2z"/><path style="fill:#fff;opacity:.1" d="M16 2A14 14 0 0 0 2 16a14 14 0 0 0 .021.414A14 14 0 0 1 16 3a14 14 0 0 1 13.979 13.586A14 14 0 0 0 30 16 14 14 0 0 0 16 2z"/></svg>