<svg xmlns="http://www.w3.org/2000/svg" width="32" height="32" version="1"><rect style="opacity:.2" width="29" height="29" x="-31" y="-30" rx="1.45" ry="1.45" transform="matrix(0 -1 -1 0 0 0)"/><rect style="fill:#ff822e" width="29" height="29" x="-30" y="-30" rx="1.45" ry="1.45" transform="matrix(0 -1 -1 0 0 0)"/><path style="opacity:.2" d="M14 10v18h3V10z"/><path style="opacity:.2;fill-rule:evenodd" d="M15.499 5a.929.882 0 0 0-.78.406L9.147 13.64A.929.882 0 0 0 9.928 15h11.144a.929.882 0 0 0 .78-1.36l-5.57-8.234A.929.882 0 0 0 15.498 5z"/><path style="fill:#fff" d="M14 9v18h3V9z"/><path style="fill:#fff;fill-rule:evenodd" d="M15.499 4a.929.882 0 0 0-.78.406L9.147 12.64A.929.882 0 0 0 9.928 14h11.144a.929.882 0 0 0 .78-1.36l-5.57-8.234A.929.882 0 0 0 15.498 4z"/><path style="fill:#fff;opacity:.2" d="M2.45 1C1.645 1 1 1.646 1 2.45v1C1 2.645 1.646 2 2.45 2h26.1c.804 0 1.45.646 1.45 1.45v-1C30 1.645 29.354 1 28.55 1H2.45z"/></svg>