<svg xmlns="http://www.w3.org/2000/svg" width="32" height="32" version="1"><rect style="opacity:.2" width="27" height="27" x="2" y="4" rx="1.35" ry="1.35"/><rect style="fill:#e4e4e4" width="27" height="27" x="2" y="3" rx="1.35" ry="1.35"/><g transform="translate(0 1)"><rect style="fill:#d07517" width="3" height="3" x="14" y="14" ry=".721"/><rect style="fill:#d07517" width="3" height="3" x="14" y="10" ry=".721"/><rect style="fill:#d07517" width="3" height="3" x="14" y="22" ry=".721"/><rect style="fill:#d07517" width="3" height="3" x="14" y="18" ry=".721"/><rect style="fill:#d07517" width="3" height="3" x="14" y="6" ry=".721"/><rect style="fill:#d07517" width="3" height="3" x="10" y="6" ry=".721"/><rect style="fill:#d07517" width="3" height="3" x="6" y="6" ry=".721"/><rect style="fill:#d07517" width="3" height="3" x="22" y="6" ry=".721"/><rect style="fill:#d07517" width="3" height="3" x="18" y="6" ry=".721"/></g><path style="fill:#fff;opacity:.2" d="M3.35 3C2.602 3 2 3.602 2 4.35v1C2 4.602 2.602 4 3.35 4h24.3c.748 0 1.35.602 1.35 1.35v-1C29 3.602 28.398 3 27.65 3H3.35z"/></svg>