<svg width="32" height="32" xmlns="http://www.w3.org/2000/svg"><rect x="2" y="3" width="28" height="28" rx="1.4" ry="1.4" style="opacity:.2"/><rect x="2" y="2" width="28" height="28" rx="1.4" ry="1.4" style="fill:#e4e4e4"/><path d="M13 8 9 26h3l4-18h-3zm7 0-4 18h3l4-18h-3z" style="opacity:.1"/><path d="M13 7h3l-4 18H9zM20 7h3l-4 18h-3z" style="fill:#8e8e8e"/><path d="M3.4 2C2.625 2 2 2.625 2 3.4v1C2 3.625 2.625 3 3.4 3h25.2c.775 0 1.4.625 1.4 1.4v-1c0-.775-.625-1.4-1.4-1.4H3.4z" style="fill:#fff;opacity:.2"/></svg>