<svg xmlns="http://www.w3.org/2000/svg" width="32" height="32" version="1"><rect style="opacity:.2" width="28" height="28" x="2" y="3" rx="1.4" ry="1.4"/><rect style="fill:#e4e4e4" width="28" height="28" x="2" y="2" rx="1.4" ry="1.4"/><path style="opacity:.1" d="M5 6v6h6V6zm0 8v6h6v-6zm8 0v6h6v-6zm8 0v6h6v-6zM5 22v6h6v-6zm8 0v6h6v-6zm8 0v6h6v-6z"/><path style="fill:#ff5dc2" d="M13 13h6v6h-6z"/><path style="fill:#ff6363" d="M5 13h6v6H5z"/><path style="fill:#ff7940" d="M21 13h6v6h-6z"/><path style="fill:#6182de" d="M13 21h6v6h-6z"/><path style="fill:#ffa631" d="M5 21h6v6H5z"/><path style="fill:#2ba540" d="M21 21h6v6h-6z"/><path style="fill:#40b8ff" d="M5 5h6v6H5z"/><path style="fill:#fff;opacity:.2" d="M3.4 2C2.625 2 2 2.625 2 3.4v1C2 3.625 2.625 3 3.4 3h25.2c.775 0 1.4.625 1.4 1.4v-1c0-.775-.625-1.4-1.4-1.4H3.4z"/></svg>