<svg xmlns="http://www.w3.org/2000/svg" width="32" height="32" version="1"><rect style="opacity:.2" width="28" height="28" x="2" y="3" rx="1.4" ry="1.4"/><rect style="fill:#71743a" width="28" height="28" x="2" y="2" rx="1.4" ry="1.4"/><path style="opacity:.1" d="M3.4 2C2.625 2 2 2.625 2 3.4v25.2c0 .775.625 1.4 1.4 1.4h25.2c.775 0 1.4-.625 1.4-1.4V3.4c0-.775-.625-1.4-1.4-1.4H3.4zM5 5h22v22H5V5z"/><path style="opacity:.1" d="m16 7 3.245 6.584 7.255 1.055-5.25 5.125L22.49 27 16 23.584 9.51 27l1.24-7.236-5.25-5.125 7.255-1.055z"/><path style="fill:#363636" d="m16 6 3.245 6.584 7.255 1.055-5.25 5.125L22.49 26 16 22.584 9.51 26l1.24-7.236-5.25-5.125 7.255-1.055z"/><path style="fill:#fff;opacity:.1" d="M3.4 2C2.625 2 2 2.625 2 3.4v1C2 3.625 2.625 3 3.4 3h25.2c.775 0 1.4.625 1.4 1.4v-1c0-.775-.625-1.4-1.4-1.4H3.4z"/></svg>