<svg xmlns="http://www.w3.org/2000/svg" width="32" height="32"><circle style="opacity:.2" cx="16.5" cy="16.5" r="14.5"/><circle style="fill:#f60" cx="16.5" cy="15.5" r="14.5"/><path style="fill:#fff;opacity:.2" d="M16.5 1A14.5 14.5 0 0 0 2 15.5a14.5 14.5 0 0 0 .021.58A14.5 14.5 0 0 1 16.5 2a14.5 14.5 0 0 1 14.479 13.92A14.5 14.5 0 0 0 31 15.5 14.5 14.5 0 0 0 16.5 1z"/><circle style="opacity:.2" cx="16.5" cy="16.5" r="11.5"/><circle style="fill:#fff" cx="16.5" cy="15.5" r="11.5"/><path d="M186.56 45.318c-17.016-14.493-23.388-23.191-41.404-36.481-3.155-1.302-3.714-.146-7.5 2.045-14.607 8.455-17.359 10.006-24.553 10.006-6.123 0-7.871-.458-13.972-3.664-3.836-2.016-7.63-4.603-8.433-5.75-4.845-6.925-5.46-9.247-8.748-15.695-2.014-3.95-3.912-9.126-4.216-11.5-.304-2.374-1.347-5.902-2.318-7.84-.971-1.938-2.966-8.238-4.433-14-2.102-8.257-2.534-13.414-2.039-18.171.795-7.632-2.711-10.55-8.665-16.47-5.565-5.532-21.887-26.92-24.671-33.095-2.39-5.298-.993-8.042 1.782-3.5C46.029-94.657 60.593-77.73 67.71-73.56c4.202 2.463 4.568 1.676 11.215.488 11.744-2.099 31.584.236 37.78 4.446 2.103 1.429 4.406 2.598 5.117 2.598.71 0 3.853.9 6.983 2 3.13 1.1 6.763 2 8.074 2 3.558 0 9.62 2.68 11.35 5.532.841 1.386 3.733 3.971 6.427 5.744 3.964 2.61 5.611 4.653 8.644 10.724 4.248 8.502 4.497 11.312 2.265 18.827-1.2 4.038-2.914 6.67-6.954 10.68-7.012 6.955-8.963 10.67-4.913 16.524 4.72 6.824 15.063 16.37 31.005 30.476 8.24 7.29 15.239 13.927 15.554 14.749 2.384 6.21-2.713 4.012-13.697-5.91z" transform="matrix(.17423 0 0 .17491 -3.991 21.431)" style="opacity:.1"/><path style="fill:#5a860b" d="M186.56 45.318c-17.016-14.493-23.388-23.191-41.404-36.481-3.155-1.302-3.714-.146-7.5 2.045-14.607 8.455-17.359 10.006-24.553 10.006-6.123 0-7.871-.458-13.972-3.664-3.836-2.016-7.63-4.603-8.433-5.75-4.845-6.925-5.46-9.247-8.748-15.695-2.014-3.95-3.912-9.126-4.216-11.5-.304-2.374-1.347-5.902-2.318-7.84-.971-1.938-2.966-8.238-4.433-14-2.102-8.257-2.534-13.414-2.039-18.171.795-7.632-2.711-10.55-8.665-16.47-5.565-5.532-21.887-26.92-24.671-33.095-2.39-5.298-.993-8.042 1.782-3.5C46.029-94.657 60.593-77.73 67.71-73.56c4.202 2.463 4.568 1.676 11.215.488 11.744-2.099 31.584.236 37.78 4.446 2.103 1.429 4.406 2.598 5.117 2.598.71 0 3.853.9 6.983 2 3.13 1.1 6.763 2 8.074 2 3.558 0 9.62 2.68 11.35 5.532.841 1.386 3.733 3.971 6.427 5.744 3.964 2.61 5.611 4.653 8.644 10.724 4.248 8.502 4.497 11.312 2.265 18.827-1.2 4.038-2.914 6.67-6.954 10.68-7.012 6.955-8.963 10.67-4.913 16.524 4.72 6.824 15.063 16.37 31.005 30.476 8.24 7.29 15.239 13.927 15.554 14.749 2.384 6.21-2.713 4.012-13.697-5.91z" transform="matrix(.17423 0 0 .17491 -3.991 20.431)"/></svg>