<svg xmlns="http://www.w3.org/2000/svg" width="32" height="32"><circle style="opacity:.2" cx="16" cy="17" r="14"/><circle style="fill:#447490" cx="16" cy="16" r="14"/><path style="opacity:.2" d="M1.197 5.275a7.488 7.488 0 0 0-.873.049c3.204.058 6.417.32 9.555.994.606.08 1.192.262 1.783.412.286.068.554.195.838.268.475.12.939.28 1.408.418.287.125.598.18.883.31.426.182.844.387 1.258.594.053.036.137.053.152.127.108.45.164.912.295 1.357.246.834.559 1.653 1.002 2.403-.472.225-.88.565-1.236.943-.508.56-.903 1.232-1.073 1.973-.206.757-.162 1.79.016 2.549.194.678.54 1.172 1.01 1.699.943 1.074 2.412 1.698 3.844 1.533 1.724-.139 3.522.138 5.037 1.004.795.46 1.547 1.026 2.115 1.756.772.877 1.352 1.977 1.795 3.055.065.162.123.329.213.48 0-.202-.075-.39-.143-.576-.206-.55-.439-1.163-.73-1.674-.344-.614-.722-1.215-1.198-1.736-.694-.837-1.542-1.551-2.511-2.05.739.096 1.458.31 2.16.556.75.268 1.473.624 2.121 1.091a6.826 6.826 0 0 1 1.62 1.856c.214.345.35.8.538 1.16-.165-.834-.582-1.67-1.105-2.332-.31-.402-.702-.724-1.088-1.047-.89-.702-1.927-1.197-2.998-1.557-1.966-.645-4.046-.893-6.11-.892a4.137 4.137 0 0 1-1.47-.238c-1.083-.39-1.938-1.207-2.203-2.327-.344-1.216.036-2.826.931-3.713.727-.742 1.786-1.165 2.826-1.064 1.076.077 2.098.453 3.102.82.821.321 1.646.638 2.44 1.026.02.229.038.464.122.681.113.222.356.328.57.428.41.184.799.349 1.147.633.258.208.473.463.719.685.083-.132.096-.167.12-.212.012-.013.003.001.02-.018.186-.195.465-.233.702-.352-.616-.153-1.223-.376-1.627-.88-.02-.024-.006-.034.017-.04.06.027.12.056.18.08.02-.046.024-.036.01-.05l-.065-.069c.011-.011.018-.026.006-.052-.039-.104-.075-.163-.129-.254-.223-.33-.45-.66-.65-1.004l-.7-.01c-.292-.345-.617-.66-.915-.998.025.186.06.37.06.559a4.148 4.148 0 0 1-.576-.38c-.195-.175-.375-.368-.566-.548.025.136.052.273.074.41a2.657 2.657 0 0 1-1.04-.72l-.009.24c-.246-.095-.487-.2-.732-.295-.618-.233-1.23-.5-1.883-.617-.72-.037-1.481.06-2.162-.233a2.063 2.063 0 0 1-1.078-1.002c-.41-.766-.353-1.675-.235-2.506a9.16 9.16 0 0 0-1.67-.855c-.272-.097-.526-.24-.81-.301a23.853 23.853 0 0 0-3.133-.795c-.46-.102-.93-.15-1.39-.252-.441-.085-.887-.128-1.333-.181a51.67 51.67 0 0 0-6.375-.317c-.29.002-.582-.004-.873-.002zM16.041 8.61c-3.88-.033-7.775.144-11.61.764-1.004.168-2.015.321-2.997.594 3.286-.462 6.597-.773 9.916-.846 1.616-.01 3.234.04 4.843.201-.053-.237-.108-.473-.152-.713zm.252 1.05c-2.183.206-4.326.725-6.404 1.413a34.127 34.127 0 0 0-4.203 1.748c-.483.243-.972.478-1.43.766.516-.222 1.02-.473 1.543-.68 3.398-1.398 7-2.376 10.681-2.564-.07-.226-.139-.451-.187-.682zm4.328.718c.386.173.793.296 1.176.476 1.17.512 2.291 1.147 3.28 1.96.356.296.69.622.98.986.076.083.2.02.298.035-.11-.203-.31-.333-.466-.496a11.29 11.29 0 0 0-2.674-1.94c-.825-.428-1.688-.802-2.594-1.021z"/><path style="fill:#fff;opacity:.2" d="M16 2A14 14 0 0 0 2 16a14 14 0 0 0 .021.586A14 14 0 0 1 16 3a14 14 0 0 1 13.979 13.414A14 14 0 0 0 30 16 14 14 0 0 0 16 2z"/><path style="fill:#fff" d="M1.197 4.275a7.488 7.488 0 0 0-.873.05c3.204.057 6.417.318 9.555.993.606.08 1.192.262 1.783.412.286.068.554.195.838.268.475.12.939.28 1.408.418.287.125.598.18.883.31.426.182.844.387 1.258.594.053.036.137.054.152.127.108.45.164.912.295 1.358.246.833.559 1.652 1.002 2.402-.472.225-.88.565-1.236.943-.508.56-.903 1.233-1.073 1.973-.206.758-.162 1.79.016 2.549.194.678.54 1.172 1.01 1.7.943 1.074 2.412 1.697 3.844 1.532 1.724-.138 3.522.138 5.037 1.004.795.46 1.547 1.026 2.115 1.756.772.878 1.352 1.977 1.795 3.055.065.162.123.33.213.48 0-.202-.075-.39-.143-.576-.206-.55-.439-1.163-.73-1.674-.344-.613-.722-1.215-1.198-1.736-.694-.836-1.542-1.551-2.511-2.049.739.095 1.458.31 2.16.555.75.268 1.473.625 2.121 1.092a6.826 6.826 0 0 1 1.62 1.855c.214.345.35.8.538 1.16-.165-.833-.582-1.67-1.105-2.332-.31-.402-.702-.723-1.088-1.047-.89-.702-1.927-1.197-2.998-1.556-1.966-.646-4.046-.894-6.11-.893a4.136 4.136 0 0 1-1.47-.238c-1.083-.39-1.938-1.207-2.203-2.326-.344-1.216.036-2.827.931-3.713.727-.742 1.786-1.166 2.826-1.065 1.076.077 2.098.453 3.102.82.821.322 1.646.638 2.44 1.026.02.23.038.465.122.682.113.221.356.327.57.427.41.184.799.35 1.147.633.258.209.473.464.719.686.083-.133.096-.167.12-.213.012-.013.003.001.02-.018.186-.194.465-.233.702-.351-.616-.154-1.223-.377-1.627-.881-.064-.079.203-.009.148-.131-.039-.104-.075-.163-.129-.254-.223-.33-.45-.659-.65-1.004l-.7-.01c-.292-.344-.617-.659-.915-.998.025.186.06.37.06.559a4.148 4.148 0 0 1-.576-.379c-.195-.176-.375-.37-.566-.549.025.137.052.273.074.41a2.657 2.657 0 0 1-1.04-.72l-.009.24c-.246-.094-.487-.2-.732-.295-.618-.232-1.23-.5-1.883-.617-.72-.036-1.481.06-2.162-.233a2.064 2.064 0 0 1-1.078-1.002c-.41-.766-.353-1.674-.235-2.505a9.16 9.16 0 0 0-1.67-.856c-.272-.097-.526-.24-.81-.3a23.853 23.853 0 0 0-3.133-.796c-.46-.102-.93-.15-1.39-.252-.441-.084-.887-.128-1.333-.181a51.67 51.67 0 0 0-6.375-.317c-.29.002-.582-.004-.873-.002zM16.041 7.61c-3.88-.032-7.775.144-11.61.764-1.004.168-2.015.322-2.997.594 3.286-.462 6.597-.772 9.916-.846 1.616-.01 3.234.04 4.843.201-.053-.237-.108-.473-.152-.713zm.252 1.051c-2.183.205-4.326.724-6.404 1.412a34.127 34.127 0 0 0-4.203 1.748c-.483.243-.972.478-1.43.766.516-.222 1.02-.473 1.543-.68 3.398-1.397 7-2.376 10.681-2.564-.07-.225-.139-.451-.187-.682zm4.328.717c.386.173.793.296 1.176.477 1.17.51 2.291 1.146 3.28 1.959.356.296.69.623.98.986.076.083.2.02.298.035-.11-.203-.31-.333-.466-.496a11.29 11.29 0 0 0-2.674-1.94c-.825-.428-1.688-.802-2.594-1.021z"/><path style="fill:#447490" d="M26.598 13.755c.527.549-.015-.02.482.502.014.014.01.004-.01.051-.16-.064-.315-.14-.47-.21a27.967 27.967 0 0 1-.002-.343z"/></svg>