<svg xmlns="http://www.w3.org/2000/svg" width="32" height="32"><path style="opacity:.2" d="M29.556 25H3.408s-1.472 0-1.406-1.444C2.708 15.95 8.931 10 16.503 10c7.549 0 13.756 5.912 14.494 13.484C31.071 25 29.557 25 29.557 25z"/><path style="fill:none;stroke:#2e9551;stroke-width:3;stroke-linecap:round" d="M8.525 13.125 5.5 8.5"/><path style="fill:none;stroke:#2e9551;stroke-width:2.89999986;stroke-linecap:round" d="M24.475 13.125 27.5 8.5"/><path style="opacity:.1;fill:#fff" d="M5.496 6.982a1.5 1.5 0 0 0-1.42 2.002 1.5 1.5 0 0 1 1.42-1.002 1.5 1.5 0 0 1 1.26.698l3.025 4.625a1.5 1.5 0 0 1 .168.336 1.5 1.5 0 0 0-.168-1.336L6.756 7.68a1.5 1.5 0 0 0-1.26-.698zm21.963.051a1.45 1.45 0 0 0-1.172.674l-3.025 4.625a1.45 1.45 0 0 0-.16 1.313 1.45 1.45 0 0 1 .16-.313l3.025-4.625a1.45 1.45 0 0 1 1.172-.674 1.45 1.45 0 0 1 1.41.95 1.45 1.45 0 0 0-1.41-1.95z"/><path style="fill:#30dd81" d="M29.556 24H3.408s-1.472 0-1.406-1.444C2.708 14.95 8.931 9 16.503 9c7.549 0 13.756 5.912 14.494 13.484C31.071 24 29.557 24 29.557 24z"/><path style="opacity:.2" d="M9.5 18A1.5 1.5 0 0 0 8 19.5 1.5 1.5 0 0 0 9.5 21a1.5 1.5 0 0 0 1.5-1.5A1.5 1.5 0 0 0 9.5 18zm14 0a1.5 1.5 0 0 0-1.5 1.5 1.5 1.5 0 0 0 1.5 1.5 1.5 1.5 0 0 0 1.5-1.5 1.5 1.5 0 0 0-1.5-1.5z"/><circle style="fill:#fff" cx="9.5" cy="18.5" r="1.5"/><circle style="fill:#fff" cx="-23.5" cy="18.5" r="1.5" transform="scale(-1 1)"/><path style="opacity:.2;fill:#fff" d="M16.504 9C8.93 9 2.707 14.95 2.002 22.557c-.01.209.019.38.064.533C2.98 15.71 9.088 10 16.504 10c7.4 0 13.496 5.685 14.43 13.041.045-.16.075-.339.064-.557C30.26 14.912 24.052 9 16.504 9z"/></svg>