<svg xmlns="http://www.w3.org/2000/svg" width="32" height="32" version="1"><path fill="#c2352a" d="m18.207 2-4.807.082-.974.734.08.082-3.175.083.244-.327-7.248-.164-.082.49-.082.735.49.898-.244 1.88-.408 1.632.244 1.553.082 1.224.488 1.633-.162.817.08.898.57.654.163 1.061-1.057.408.162 3.268.653.49-.409 2.857-.326.164-.244 5.473.287-.039.692.143s.837.29 1.01.348c.172.057.43-.26.43-.26h.69l.577-.115.318.144.287-.03.72-.056.343-.146.146.347.115-.087.318-.146.66-.057.143.203s.806.086 1.094.086c.288 0 .233-.232.233-.232s.084-.027.228.117c.144.145.348-.058.348-.058l.287-.145.203.203.201.145.547-.116h.89l.206-.058.834 1.184.054-.604h1.354c.115 0 .06.403.06.403l.891-.29.461.462.951-.606.518-.088 1.008-.054h1.439l1.64.113.434-.172.315-.29.865.49.633-.26s.691.264.806.292c.116.03 1.182-.119 1.182-.119l.66-.174-.43-.316.288-.115 1.209.056 1.61.407-.027-10.54v-.665l-.402.06-.52.086v-.318l.288-.262.232-.344.055-1.242-.086-.896-.375-1.098-.342-.461-.058-.434.085-.287.028-.086.375-.146.058-.147-.287-.488.26-.148.406-.246.162-1.47.082-.98v-3.43l-.245-.981.163-1.06.082-.41-.733-.327-2.769-.49-.409.572-.162-.654-5.293-.082-.164.9-1.302.162-.163-.57-1.14-.164.408-.49z"/><path opacity=".2" d="m22 7-4 2 6 4V9l-2-2zM8 8 5 9l17 17h3l2-5L8 8zM6 19l-1 5 2 2h2l3-1-6-6z"/><path fill="#fff" d="m22 6-4 2 6 4V8l-2-2zM8 7 5 8l17 17h3l2-5L8 7zM6 18l-1 5 2 2h2l3-1-6-6z"/><path fill="#fff" opacity=".2" d="m18.207 2-4.807.082-.974.734.08.082-3.176.082.244-.326-7.248-.164-.082.49-.082.735.098.178.066-.403 7.248.164-.244.326 3.176-.082-.08-.082.974-.734L18.207 3l-.408.49 1.14.164.163.57 1.302-.162.164-.9 5.293.082.162.654.409-.572 2.769.49.57.254.081-.517.082-.41-.733-.327-2.769-.49-.409.572-.162-.654-5.293-.082-.164.9-1.302.163-.163-.57-1.14-.165.408-.49zm11.576 2.994-.094.62.245.98v-1l-.151-.6zm-27.236.428-.139 1.07L2 8.125l.096.613.312-1.246.244-1.879-.105-.191zm.148 7.715-.043.215.061.689.102-.506-.12-.398zm26.25.484-.068.027-.027.086-.086.287.058.434.342.461.375 1.098.057.582.03-.686-.087-.896-.375-1.098-.219-.295zm-25.625 2.4-.912.352.05.981 1.007-.389-.145-.944zm26.653 1.909-.395.058-.008.164-.232.344-.287.262v.318l.52-.086.402-.06v-1zm0 1v.666l.025 9.539H30l-.027-10.205zM3.094 21.033l-.279 1.955-.326.164-.244 5.473.045-.006.199-4.467.326-.164.408-2.857-.129-.098z"/><path opacity=".2" d="m2.26 3.893-.016.088-.082.734.385.707.105-.809-.392-.72zm27.51.177-.081.543.094.381.069-.441.082-.41-.163-.073zM2.097 8.738 2 9.125l.244 1.553.082 1.224.37 1.235.119-.602-.489-1.633-.082-1.224-.148-.94zm27.838.285-.082.98-.163 1.47-.406.246-.26.148.288.488-.06.147-.374.146-.027.086-.086.287.058.434.123.166.307-.119.059-.147-.288-.488.26-.148.406-.246.163-1.469.082-.98v-1zM2.713 14.041l-.06.311.08.898.57.654.017.117.145-.056-.162-1.061-.57-.654-.02-.209zm26.883 2.555-.026.556-.232.344-.287.262v.318l.519-.086.008-.002.047-1.078-.03-.314zm-27.14.758-.048.019.162 3.268.524.392.128-.902-.652-.49-.113-2.287zm.075 11.232-.242.033-.045 1.006.287-.039.691.143s.837.289 1.01.347c.173.058.43-.26.43-.26h.691l.576-.115.319.145.287-.03.72-.056.342-.147.147.348.115-.086.318-.146.66-.057.143.203s.806.086 1.094.086c.288 0 .233-.232.233-.232s.084-.028.228.117c.144.144.348-.059.348-.059l.287-.144.203.203.2.144.548-.115h.89l.206-.059L14.05 31l.054-.604h1.354c.115 0 .06.403.06.403l.89-.289.462.461.95-.606.519-.088 1.008-.054h1.439l1.64.113.434-.172.315-.289.865.488.633-.259s.69.264.806.292c.116.029 1.182-.119 1.182-.119l.66-.173-.43-.317.288-.115 1.209.057 1.61.406-.001-1-1.61-.406-1.208-.057-.287.115.429.317-.66.173s-1.066.148-1.182.119c-.115-.028-.806-.292-.806-.292l-.633.259-.865-.488-.315.289-.433.172-1.641-.113h-1.44l-1.007.054-.518.088-.951.606-.461-.461-.89.289s.054-.403-.061-.403h-1.354L14.05 30l-.834-1.184-.205.059h-.891l-.547.115-.201-.144-.203-.203-.287.144s-.204.203-.348.059c-.144-.145-.228-.117-.228-.117s.055.232-.233.232c-.288 0-1.094-.086-1.094-.086l-.143-.203-.66.057-.318.146-.115.086-.147-.348-.342.147-.72.056-.287.03-.319-.145-.576.115h-.691s-.257.318-.43.26c-.173-.058-1.01-.347-1.01-.347l-.691-.143z"/></svg>