<svg xmlns="http://www.w3.org/2000/svg" width="32" height="32"><rect style="opacity:.2" width="28" height="28" x="2" y="3" rx="2.1" ry="2.1"/><rect style="fill:#413d58" width="28" height="28" x="2" y="2" rx="2.1" ry="2.1"/><path style="opacity:.2" d="M18.1 14.2s.132 2.45-1.968 3.85-7.505 2.267-10.15 3.718C4.045 22.83 2.7 24.7 2.7 24.7S5.5 23 6.9 23c1.4 0 3.5 1 3.5 1s1.4-1.5 3.5-1.5 5.6 1.5 5.6 1.5l-.7-8.4z"/><path style="fill:#00d6cc" d="M17.4 11.1s0 4.2-2.1 5.6c-2.1 1.4-6.3 2.1-9.1 3.5s-3.5 3.5-3.5 3.5 2.8-2.138 4.2-2.138c1.4 0 3.5-.662 3.5-.662s1.687-.448 3.787-.448c2.1 0 3.913-.252 3.913-.252l.7-5.6z"/><path style="fill:#365d78" d="M18.1 13.2s.132 2.45-1.968 3.85-7.505 2.267-10.15 3.718C4.045 21.83 2.7 23.7 2.7 23.7S5.5 22 6.9 22c1.4 0 3.5 1 3.5 1s1.4-1.5 3.5-1.5 5.6 1.5 5.6 1.5l-.7-8.4z"/><path style="opacity:.2" d="M15.608 7.014c-.368.08-1.513 1.514-2.107 2.084-.678.65-.733.35-1.52.784-.787.435-1.27 1.149-1.57 1.692-.298.542-1.054.735-1.838 1.52-.785.784-1.571 1.235-1.571 2.673.032.027-.104.215.221.27.326.053.497-.07.687-.369.19-.298 2.067-.976 3.262-1.491 1.194-.516 1.952-.785 2.305-1.3.353-.516.471-.465 1.177-.736.706-.271 2.109.048 3.14 1.594 1.032 1.547 1.233 2.566 1.206 5.659-.027 3.093-1.134 4.953-2.383 7.015-.708 1.17-3.663 3.29-5.702 4.591h8.289c.204-.363.45-.785.577-1.035.31-.613 2.7-7.348 3.285-11.527.104-.74 1.251-.918.914-1.803-.257-.672-2.003-2.162-2.042-2.242-.157-.325.774-.653.45-1.151-.46-.709-1.843-1.538-2.034-1.697-.326-.271.155-.478.481-.804-.398-.805-1.322-1.17-2.378-1.306-.542 0-.144-.851.155-1.177-.539-.553-1.547-.374-2.465-.19-.429-.045.232-1.205-.539-1.054z"/><path style="fill:#167ddd" d="M15.608 6.014c-.368.08-1.513 1.514-2.107 2.084-.678.65-.733.35-1.52.784-.787.435-1.27 1.149-1.57 1.692-.298.542-1.054.735-1.838 1.52-.785.784-1.571 1.235-1.571 2.673.032.027-.104.215.221.27.326.053.497-.07.687-.369.19-.298 2.067-.976 3.262-1.491 1.194-.516 1.952-.785 2.305-1.3.353-.516.471-.465 1.177-.736.706-.271 2.109.048 3.14 1.594 1.032 1.547 1.233 2.566 1.206 5.659-.027 3.093-1.134 4.953-2.383 7.015-.708 1.17-3.663 3.29-5.702 4.591h8.289c.204-.363.45-.785.577-1.035.31-.613 2.7-7.348 3.285-11.527.104-.74 1.251-.918.914-1.803-.257-.672-2.003-2.162-2.042-2.242-.157-.325.774-.653.45-1.151-.46-.709-1.843-1.538-2.034-1.697-.326-.271.155-.478.481-.804-.398-.805-1.322-1.17-2.378-1.306-.542 0-.144-.851.155-1.177-.539-.553-1.547-.374-2.465-.19-.429-.045.232-1.205-.539-1.054z"/><path style="fill:#fff;opacity:.2" d="M15.607 6.014c-.367.079-1.511 1.514-2.105 2.084-.679.65-.734.35-1.522.785-.787.434-1.27 1.149-1.568 1.691-.298.543-1.055.735-1.84 1.52-.785.784-1.57 1.236-1.57 2.674.027.022-.046.148.102.224.232-.857.847-1.277 1.468-1.898.785-.785 1.542-.977 1.84-1.52.299-.542.781-1.257 1.568-1.691.788-.434.843-.134 1.522-.785.594-.57 1.738-2.005 2.105-2.084.771-.151.111 1.01.54 1.054.726-.146 1.504-.282 2.066-.062.06-.262.241-.577.398-.748-.538-.554-1.546-.374-2.465-.19-.428-.045.232-1.205-.539-1.054zm2.875 2.427c-.262.384-.49.995-.025.995.75.096 1.425.318 1.9.722.121-.124.319-.257.479-.418-.394-.798-1.309-1.16-2.354-1.299zm2.262 2.38c-.314.275-.685.478-.39.724.167.14 1.217.79 1.792 1.426.2-.208.432-.438.243-.729-.362-.557-1.17-1.1-1.645-1.422zm1.57 2.933c-.182.237-.472.44-.377.639.036.072 1.452 1.288 1.918 2.02.165-.204.255-.439.125-.778-.204-.537-1.19-1.436-1.666-1.881zm-3.326 4.871c-.08 2.95-1.155 4.775-2.37 6.783-.709 1.17-3.665 3.29-5.704 4.592h1.5c1.772-1.223 3.656-2.688 4.203-3.592 1.249-2.062 2.356-3.92 2.383-7.013.003-.302-.01-.505-.012-.77z"/><path style="opacity:.1" d="M25.8 10.7c-.7 0-.7 2.1-2.8 4.2-2.1 2.1-2.8 2.1-2.8 2.1s2.1 1.4 2.1 4.2c2.1 1.4 2.1 4.2 2.1 4.2l2.8-7.7-.7-5.6z"/><path style="fill:#365d78" d="M25.8 9.7c-.7 0-.7 2.1-2.8 4.2-2.1 2.1-2.8 2.1-2.8 2.1s2.1 1.4 2.1 4.2c2.1 1.4 2.1 4.2 2.1 4.2l2.8-7.7-.7-5.6z"/><path style="fill:#fff" d="M11 10.453c.065-.257.321-.495.734-.63.412-.133.719-.074.761.091.045.173-.233.42-.654.53-.419.11-.74.028-.841.01z"/><path style="fill:#2e3436" d="M11.642 9.858c-.04.016-.068.044-.103.063a.601.601 0 0 0 .024.296c.032.1.067.2.11.258.062-.013.11-.012.176-.03a.781.781 0 0 0-.047-.291.723.723 0 0 0-.16-.296z"/><path style="opacity:.2" d="M25.8 10.7c.7 0 2.66 4.2 1.96 10.5-.7 6.3-4.06 7.7-4.06 7.7s-4.9-.9-6.3-.9c-1.4 0-2.1.9-2.1.9s-2.1-1.4-4.9-1.4C7.6 27.5 4 30 4 30s.8-2.5 5-3.9 11.06-.111 13.3-2.8c7-8.4 2.8-12.6 3.5-12.6"/><path style="fill:#00d6cc" d="M25.8 9.7c.7 0 2.66 4.2 1.96 10.5-.7 6.3-4.06 7.7-4.06 7.7s-4.9-.9-6.3-.9c-1.4 0-2.1.9-2.1.9s-2.1-1.4-4.9-1.4C7.6 26.5 4 29 4 29s.8-2.5 5-3.9 11.06-.111 13.3-2.8c7-8.4 2.8-12.6 3.5-12.6"/><path style="fill:#fff;opacity:.2" d="M25.8 9.7c-.205 0 .011.408.243 1.132.674.6 1.805 3.399 1.846 7.522.18-5.258-1.46-8.655-2.088-8.655zm.6 4.019c-.13 2.065-1.051 4.924-4.1 8.582C20.06 24.989 13.2 23.7 9 25.1 4.8 26.5 4 29 4 29s.552-.35 1.273-.762c.755-.726 1.91-1.532 3.727-2.138 4.2-1.4 11.06-.11 13.3-2.8 3.578-4.292 4.224-7.482 4.1-9.581z"/><path style="fill:#fff;opacity:.1" d="M4.1 2C2.936 2 2 2.936 2 4.1v1C2 3.936 2.936 3 4.1 3h23.8c1.164 0 2.1.936 2.1 2.1v-1c0-1.164-.936-2.1-2.1-2.1H4.1z"/></svg>