<svg xmlns="http://www.w3.org/2000/svg" width="32" height="32"><path style="opacity:.2" d="M3.004 4C2.448 4 2 4.448 2 5.006V17.5c0 1.127.342 2.171.928 3.035 1.292 1.922 3.106 4.275 5.152 6.272a14.234 14.234 0 0 0 3.797 2.986c.147.084.296.154.443.23.88.614 1.949.977 3.108.977h12.564a.986.986 0 0 0 .613-.227c.017-.008.033-.013.05-.023l.001-.002c.007-.006.01-.015.016-.021a.999.999 0 0 0 .172-.227c.02-.035.05-.062.066-.1.05-.11.073-.23.08-.357.001-.017.01-.032.01-.049V17.428c0-.269-.025-.53-.062-.787a5.401 5.401 0 0 0-1.174-2.67l-.006-.006a21.71 21.71 0 0 0-1.793-2.361c-1.132-1.429-2.414-2.883-3.807-4.137-1.36-1.194-2.782-2.198-4.148-2.813-.837-.363-1.677-.602-2.51-.654H7.4z"/><path style="fill:#125072" d="M3.003 3C2.447 3 2 3.448 2 4.006V16.5c0 1.127.342 2.171.928 3.035C5.673 23.617 10.73 29.7 15.5 30h4.369l.626-.136h7.772a.743.743 0 0 0 .388-.114l.002-.002a1 1 0 0 0 .343-.754V16.5a5.385 5.385 0 0 0-.928-3.035c-1.452-2.159-3.553-4.87-5.913-6.998-1.36-1.193-2.783-2.198-4.149-2.813-.836-.364-1.677-.602-2.51-.654H7.4z"/><path style="fill:#fff" d="M7.005 7C6.448 7 6 7.45 6 8.008V21.815c.624 4.076 5.99 7.871 9.47 8.185h3.712l.213-.067h8.6c.557 0 .996-.556 1.005-1.114V16.47c0-1.13-.343-2.176-.93-3.042-2.054-3.236-4.841-6.266-8.54-6.429H11.411z"/><path style="fill:#00cae5" d="M11.009 11c-.56 0-1.009.45-1.009 1.011V17h7v-3.286l9 5.786-9 5.75V22h-7v2.571A5.417 5.417 0 0 0 15.429 30H27.99c.56 0 1.009-.45 1.009-1.011v-12.56A5.417 5.417 0 0 0 23.571 11H15.43z"/><path style="opacity:.2" d="M25.22 19.998 17 25.25v1l9-5.75zM10 22v1h7v-1z"/><path style="opacity:.1;fill:#fff" d="M3.004 3C2.448 3 2 3.448 2 4.006v1C2 4.448 2.448 4 3.004 4H15.5c.833.052 1.673.29 2.51.654 1.366.615 2.788 1.619 4.148 2.813 2.36 2.127 4.463 4.84 5.914 6.998.586.864.928 1.908.928 3.035v-1a5.386 5.386 0 0 0-.928-3.035c-1.451-2.159-3.553-4.871-5.914-6.998-1.36-1.194-2.782-2.198-4.148-2.813-.837-.363-1.677-.602-2.51-.654H3.004z"/></svg>