<svg xmlns="http://www.w3.org/2000/svg" height="32" width="32"><path style="opacity:.2" d="M16 27C2 27 2 20 2 20S2 6 16 6s14 14 14 14 0 7-14 7z" transform="translate(0 -1)"/><path style="fill:#4f4f4f" d="M16 26C2 26 2 19 2 19S2 5 16 5s14 14 14 14 0 7-14 7z" transform="translate(0 -1)"/><path style="opacity:.2" d="M8 14c-4 0-4 6-.41 6H15s-4-6-7-6zm16 0c-3 0-7 6-7 6h7.41C28 20 28 14 24 14z" transform="translate(0 -1)"/><path style="fill:#ff3737" d="M7.59 19H15s-4-6-7-6c-4 0-4 6-.41 6zM24.41 19H17s4-6 7-6c4 0 4 6 .41 6z" transform="translate(0 -1)"/><path style="opacity:.1;fill:#fff" d="M16 5C2 5 2 19 2 19s.004.127.035.334C2.241 16.578 3.821 6 16 6s13.759 10.578 13.965 13.334C29.995 19.127 30 19 30 19S30 5 16 5z" transform="translate(0 -1)"/><path style="opacity:.2;fill:#fff" d="M8 13c-2.287 0-3.261 1.959-3.01 3.639C5.18 15.269 6.162 14 8 14c2.226 0 4.994 3.295 6.28 5H15s-4-6-7-6zm16 0c-3 0-7 6-7 6h.72c1.286-1.705 4.054-5 6.28-5 1.838 0 2.821 1.269 3.01 2.639C27.26 14.959 26.287 13 24 13z" transform="translate(0 -1)"/></svg>