<svg xmlns="http://www.w3.org/2000/svg" width="32" height="32" version="1"><rect style="opacity:.2" width="28" height="28" x="2" y="3" rx="1.4" ry="1.4"/><rect style="fill:#8a4b2c" width="28" height="28" x="2" y="2" rx="1.4" ry="1.4"/><path style="opacity:.2" d="M9.72 28.929c.016-.04.06-.316.1-.612.234-1.78.218-2.921.68-3.682.086-.14.328-.45.54-.688.21-.239.384-.388.384-.417 0-.037-.062-.043-.198-.022-.653.105-1.047-.014-1.226-.32-.093-.158.012.046 0-3.87-.014-4.499.034-4.067.446-4.274.299-.15.67-.383 1-.436.56-.09.94.326 1.217.868.076.148.163.26.193.25.089-.03.105-4.08.017-4.08-.036 0-.102.097-.148.216-.116.302-.39 1-.717 1.145-.341.152-1.429.536-1.655.536-.092 0-.322-.025-.353-.056-.042-.041 0-.752 0-2.92 0-1.575-.02-3.189 0-3.22.175-.273 2.917-.386 3.865-.175.192.043.517.158.722.255.532.254.866.724 1.23 1.411.02.038.066.07.102.07.054 0 .067-.12.078-1.62.007-.99 0-2.15-.014-2.209 0 0-.515.68-.582.816l-.146.121L14.362 6c-.49-.008-2.639 0-4.407-.001-1.769-.002-3.852.027-3.895.044-.156.06 0 .158.4.375.687.374 1.332.673 1.499 1.297.098.365.094 5.541-.004 5.956-.096.401-.416.694-.717 1.017-.142.151-.257.294-.257.317 0 .023.116.155.258.294.286.278.66.615.731.898.068.27.12 8.121.057 8.554-.062.431-.34.616-.698.996-.334.355-.334.354.178.547.418.158 1.202.515 1.361.753.166.248.382.71.559 1.354.08.292.155.546.167.565.034.058.096.04.126-.037z"/><path style="fill:#fbb64a" d="M9.72 27.929c.016-.04.06-.315.1-.612.234-1.78.218-2.92.68-3.681.086-.14.328-.45.54-.689.21-.238.384-.388.384-.417 0-.036-.062-.043-.198-.021-.653.105-1.047-.014-1.226-.32-.093-.159.012.045 0-3.87-.014-4.5.034-4.068.446-4.275.299-.15.67-.383 1-.435.56-.09.94.326 1.217.867.076.148.163.26.193.25.089-.029.105-4.08.017-4.08-.036 0-.102.097-.148.216-.116.303-.39 1-.717 1.145-.341.152-1.429.536-1.655.536-.092 0-.322-.025-.353-.055-.042-.042 0-.753 0-2.92 0-1.576-.02-3.19 0-3.22.175-.274 2.917-.387 3.865-.175.192.042.517.157.722.255.532.253.866.723 1.23 1.41.02.038.066.07.102.07.054 0 .067-.12.078-1.62.007-.99 0-2.15-.014-2.209 0 0-.515.681-.582.816l-.146.122L14.362 5c-.49-.009-2.639 0-4.407-.002-1.769-.002-3.852.028-3.895.044-.156.06 0 .159.4.376.687.373 1.332.673 1.499 1.296.098.365.094 5.542-.004 5.956-.096.402-.416.695-.717 1.017-.142.152-.257.294-.257.317 0 .023.116.155.258.294.286.279.66.616.731.899.068.269.12 8.12.057 8.554-.062.43-.34.616-.698.995-.334.355-.334.354.178.548.418.158 1.202.514 1.361.752.166.248.382.711.559 1.354.08.292.155.547.167.566.034.057.096.039.126-.038z"/><path style="opacity:.2" d="M18.053 7c-.05.03-.06.432-.05 1.727.016 1.882-.048 1.274.339.78.537-.685 1.254-.505 1.556-.538.773-.02.96-.01 1.034.062.075.075.145.941.082 2.666v2.32s-.534.424-.825.71c-.099.108-.18.225-.18.26 0 .033.072.142.159.24.22.391.82.728.82.728l.016 4.006c.014 4.375.011 4.106-.09 4.193 0 0-.718.75-.914.846 1.027.338 1.438.61 1.871 1.549.07.23.09.451.129.451.04 0 .058-.22.129-.451.433-.939.844-1.211 1.871-1.549-.196-.097-.914-.846-.914-.846-.101-.087-.104.182-.09-4.193l.016-4.006s.6-.337.82-.728c.087-.098.158-.207.158-.24 0-.035-.08-.152-.18-.26-.29-.286-.824-.71-.824-.71v-2.32c-.063-1.725.007-2.591.082-2.666.074-.072.26-.081 1.034-.062.302.033 1.019-.147 1.556.539.387.493.323 1.101.338-.781.01-1.295 0-1.697-.049-1.727-.178.276-.572.984-.572.984C25.299 8.023 23.912 8 22 8s-3.3.023-3.375-.016c0 0-.394-.708-.572-.984z"/><path style="fill:#fbb64a" d="M18.053 6c-.05.03-.06.432-.05 1.727.016 1.882-.048 1.274.339.78.537-.685 1.254-.505 1.556-.538.773-.02.96-.01 1.034.062.075.075.145.941.082 2.666v2.32s-.534.424-.825.71c-.099.108-.18.225-.18.26 0 .033.072.142.159.24.22.391.82.728.82.728l.016 4.006c.014 4.375.011 4.106-.09 4.193 0 0-.718.75-.914.846 1.027.338 1.438.61 1.871 1.549.07.23.09.451.129.451.04 0 .058-.22.129-.451.433-.939.844-1.211 1.871-1.549-.196-.097-.914-.846-.914-.846-.101-.087-.104.182-.09-4.193l.016-4.006s.6-.337.82-.728c.087-.098.158-.207.158-.24 0-.035-.08-.152-.18-.26-.29-.286-.824-.71-.824-.71v-2.32c-.063-1.725.007-2.591.082-2.666.074-.072.26-.081 1.034-.062.302.033 1.019-.147 1.556.539.387.493.323 1.101.338-.781.01-1.295 0-1.697-.049-1.727-.178.276-.572.984-.572.984C25.299 7.023 23.912 7 22 7s-3.3.023-3.375-.016c0 0-.394-.708-.572-.984z"/><path style="fill:#fff;opacity:.1" d="M3.4 2C2.625 2 2 2.625 2 3.4v1C2 3.625 2.625 3 3.4 3h25.2c.775 0 1.4.625 1.4 1.4v-1c0-.775-.625-1.4-1.4-1.4H3.4z"/></svg>