<svg xmlns="http://www.w3.org/2000/svg" width="32" height="32"><rect style="opacity:.2" width="29" height="28" x="-31" y="-30" rx="2.175" ry="2.1" transform="matrix(0 -1 -1 0 0 0)"/><rect style="fill:#4b7abb" width="29" height="28" x="-30" y="-30" rx="2.175" ry="2.1" transform="matrix(0 -1 -1 0 0 0)"/><path style="opacity:.2" d="M6.467 4C5.654 4 5 4.625 5 5.4v4.2c0 .775.654 1.4 1.467 1.4h19.066C26.346 11 27 10.375 27 9.6V5.4c0-.775-.654-1.4-1.467-1.4zM6 13c-.554 0-1 .446-1 1v2c0 .554.446 1 1 1h2c.554 0 1-.446 1-1v-2c0-.554-.446-1-1-1zm6 0c-.554 0-1 .446-1 1v2c0 .554.446 1 1 1h2c.554 0 1-.446 1-1v-2c0-.554-.446-1-1-1zm6 0c-.554 0-1 .446-1 1v2c0 .554.446 1 1 1h2c.554 0 1-.446 1-1v-2c0-.554-.446-1-1-1zm6 0c-.554 0-1 .446-1 1v2c0 .554.446 1 1 1h2c.554 0 1-.446 1-1v-2c0-.554-.446-1-1-1zM6 19c-.554 0-1 .446-1 1v2c0 .554.446 1 1 1h2c.554 0 1-.446 1-1v-2c0-.554-.446-1-1-1zm6 0c-.554 0-1 .446-1 1v2c0 .554.446 1 1 1h2c.554 0 1-.446 1-1v-2c0-.554-.446-1-1-1zm6 0c-.554 0-1 .446-1 1v2c0 .554.446 1 1 1h2c.554 0 1-.446 1-1v-2c0-.554-.446-1-1-1zm6 0c-.554 0-1 .446-1 1v8c0 .554.446 1 1 1h2c.554 0 1-.446 1-1v-8c0-.554-.446-1-1-1zM6 25c-.554 0-1 .446-1 1v2c0 .554.446 1 1 1h2c.554 0 1-.446 1-1v-2c0-.554-.446-1-1-1zm6 0c-.554 0-1 .446-1 1v2c0 .554.446 1 1 1h2c.554 0 1-.446 1-1v-2c0-.554-.446-1-1-1zm6 0c-.554 0-1 .446-1 1v2c0 .554.446 1 1 1h2c.554 0 1-.446 1-1v-2c0-.554-.446-1-1-1z"/><path style="fill:#fff" d="M6.467 3C5.654 3 5 3.625 5 4.4v4.2c0 .775.654 1.4 1.467 1.4h19.066C26.346 10 27 9.375 27 8.6V4.4c0-.775-.654-1.4-1.467-1.4H6.467zM6 12c-.554 0-1 .446-1 1v2c0 .554.446 1 1 1h2c.554 0 1-.446 1-1v-2c0-.554-.446-1-1-1H6zm6 0c-.554 0-1 .446-1 1v2c0 .554.446 1 1 1h2c.554 0 1-.446 1-1v-2c0-.554-.446-1-1-1h-2zm6 0c-.554 0-1 .446-1 1v2c0 .554.446 1 1 1h2c.554 0 1-.446 1-1v-2c0-.554-.446-1-1-1h-2zm6 0c-.554 0-1 .446-1 1v2c0 .554.446 1 1 1h2c.554 0 1-.446 1-1v-2c0-.554-.446-1-1-1h-2zM6 18c-.554 0-1 .446-1 1v2c0 .554.446 1 1 1h2c.554 0 1-.446 1-1v-2c0-.554-.446-1-1-1H6zm6 0c-.554 0-1 .446-1 1v2c0 .554.446 1 1 1h2c.554 0 1-.446 1-1v-2c0-.554-.446-1-1-1h-2zm6 0c-.554 0-1 .446-1 1v2c0 .554.446 1 1 1h2c.554 0 1-.446 1-1v-2c0-.554-.446-1-1-1h-2zm6 0c-.554 0-1 .446-1 1v8c0 .554.446 1 1 1h2c.554 0 1-.446 1-1v-8c0-.554-.446-1-1-1h-2zM6 24c-.554 0-1 .446-1 1v2c0 .554.446 1 1 1h2c.554 0 1-.446 1-1v-2c0-.554-.446-1-1-1H6zm6 0c-.554 0-1 .446-1 1v2c0 .554.446 1 1 1h2c.554 0 1-.446 1-1v-2c0-.554-.446-1-1-1h-2zm6 0c-.554 0-1 .446-1 1v2c0 .554.446 1 1 1h2c.554 0 1-.446 1-1v-2c0-.554-.446-1-1-1h-2z"/><path style="fill:#fff;opacity:.1" d="M4.1 1C2.936 1 2 1.97 2 3.176v1C2 2.97 2.936 2 4.1 2h23.8c1.164 0 2.1.97 2.1 2.176v-1C30 1.97 29.064 1 27.9 1H4.1z"/></svg>