<svg xmlns="http://www.w3.org/2000/svg" width="32" height="32" version="1"><path style="opacity:.2" d="M15.4 3C14.07 3 13 4.226 13 5.75v.67a11 11 0 0 0-4.664 2.69l-.578-.333c-1.32-.761-2.917-.448-3.582.703l-.6 1.04c-.665 1.151-.138 2.69 1.182 3.453l.59.34A11 11 0 0 0 5 17a11 11 0 0 0 .344 2.69l-.586.337c-1.32.762-1.847 2.302-1.182 3.453l.6 1.04c.665 1.151 2.262 1.464 3.582.703l.588-.34A10.997 10.997 0 0 0 13 27.573v.677c0 1.524 1.07 2.75 2.4 2.75h1.2c1.33 0 2.4-1.227 2.4-2.75v-.68a10.999 10.999 0 0 0 4.664-2.68l.578.333c1.32.761 2.917.448 3.582-.703l.6-1.04c.665-1.151.138-2.69-1.182-3.453l-.59-.34A11 11 0 0 0 27 17a10.998 10.998 0 0 0-.344-2.69l.586-.337c1.32-.762 1.847-2.302 1.182-3.453l-.6-1.04c-.665-1.151-2.262-1.464-3.582-.703l-.588.34A11 11 0 0 0 19 6.427V5.75C19 4.226 17.93 3 16.6 3z"/><path style="fill:#6f7368" d="M15.4 2C14.07 2 13 3.227 13 4.75v.67a11 11 0 0 0-4.664 2.69l-.578-.333c-1.32-.761-2.917-.448-3.582.703l-.6 1.04c-.665 1.151-.138 2.69 1.182 3.453l.59.34A11 11 0 0 0 5 16a11 11 0 0 0 .344 2.69l-.586.337c-1.32.762-1.847 2.302-1.182 3.453l.6 1.04c.665 1.151 2.262 1.464 3.582.703l.588-.34A11 11 0 0 0 13 26.574v.676c0 1.524 1.07 2.75 2.4 2.75h1.2c1.33 0 2.4-1.227 2.4-2.75v-.69a11 11 0 0 0 4.664-2.67l.578.333c1.32.761 2.917.448 3.582-.703l.6-1.04c.665-1.151.138-2.69-1.182-3.453l-.59-.34A11 11 0 0 0 27 16a11 11 0 0 0-.344-2.69l.586-.337c1.32-.762 1.847-2.302 1.182-3.453l-.6-1.04c-.665-1.151-2.262-1.464-3.582-.703l-.588.34A11 11 0 0 0 19 5.427V4.75C19 3.227 17.93 2 16.6 2z"/><path style="opacity:.1;fill:#fff" d="M15.4 2C14.07 2 13 3.227 13 4.75v.67a11 11 0 0 0-4.664 2.69l-.578-.333c-1.32-.761-2.917-.448-3.582.703l-.6 1.04c-.283.49-.338 1.049-.22 1.59.046-.204.112-.403.22-.59l.6-1.04c.665-1.151 2.262-1.464 3.582-.703l.578.332A11 11 0 0 1 13 6.42V5.75C13 4.226 14.07 3 15.4 3h1.2C17.93 3 19 4.226 19 5.75v.678a11 11 0 0 1 4.654 2.69l.588-.34c1.32-.762 2.917-.449 3.582.702l.6 1.04c.108.187.174.386.22.59.118-.541.063-1.1-.22-1.59l-.6-1.04c-.665-1.151-2.262-1.464-3.582-.703l-.588.34A11 11 0 0 0 19 5.427V4.75C19 3.227 17.93 2 16.6 2zM5.164 14.207A11 11 0 0 0 5 16a11 11 0 0 0 .021.418 11 11 0 0 1 .327-2.105zm21.67.002-.178.102a11 11 0 0 1 .323 2.271A11 11 0 0 0 27 16a11 11 0 0 0-.166-1.791zM5.166 18.791l-.408.236c-1.105.638-1.643 1.82-1.403 2.864.16-.73.645-1.426 1.403-1.864l.586-.338a11 11 0 0 1-.178-.898zm21.67.002a11 11 0 0 1-.184.895l.59.34c.758.437 1.243 1.132 1.403 1.863.24-1.044-.298-2.226-1.403-2.864z"/><path style="opacity:.2" d="M19.7 2c-.7 0-.7.733-.7.733v9.078A5.963 5.963 0 0 0 16 11a6 6 0 1 0 6 6V5s1.41 1.218 1.885 2.479c.243.645.242 1.3-.317 1.812-.453.26-.6.662-.521 1.012.12.531.766.945 1.664.563C26.06 10.162 26.5 8.9 26.5 7.85c0-3.15-4-5.85-6.8-5.85z"/><path style="fill:#5dcd18" d="M19.7 1c-.7 0-.7.733-.7.733v9.077a5.963 5.963 0 0 0-3-.81 6 6 0 1 0 6 6V4s1.41 1.217 1.885 2.479c.243.645.242 1.3-.317 1.812-.453.26-.6.662-.521 1.012.12.531.766.945 1.664.563C26.06 9.162 26.5 7.9 26.5 6.85c0-3.15-4-5.85-6.8-5.85z"/><path style="fill:#fff;opacity:.2" d="M19.7 1c-.7 0-.7.732-.7.732v1S19 2 19.7 2c2.624 0 6.304 2.372 6.755 5.264.015-.139.045-.281.045-.414 0-3.15-4-5.85-6.8-5.85zm4.245 6.7c-.072.209-.18.41-.377.591-.453.26-.6.662-.521 1.012.026.115.09.219.162.316a1.13 1.13 0 0 1 .36-.328c.494-.453.539-1.02.376-1.592zM16 10a6 6 0 0 0-6 6c0 .169.012.335.025.5A5.997 5.997 0 0 1 16 11c1.094 0 2.117.299 3 .81v-1a5.963 5.963 0 0 0-3-.81z"/></svg>