<svg xmlns="http://www.w3.org/2000/svg" width="32" height="32" version="1"><rect opacity=".2" width="23" height="20" x="-25" y="-27" rx="1" ry="1.053" transform="matrix(0 -1 -1 0 0 0)"/><rect fill="#66a02c" width="23" height="20" x="-24" y="-27" rx="1" ry="1.053" transform="matrix(0 -1 -1 0 0 0)"/><rect fill="#7ebc2e" width="23" height="20" x="-29" y="-23" rx="1" ry="1.053" transform="matrix(0 -1 -1 0 0 0)"/><path fill="#fff" stroke="#000" stroke-width=".5" opacity=".2" d="M12.268 12.635c-.277 0-.536.135-.598.359-.233.857.028 2.183.462 3.834l-.131.32c-.333.81-.748 1.617-1.113 2.333-1.508 2.951-2.682 4.543-3.464 4.654l-.003-.032c-.017-.368.662-1.317 1.583-2.072.096-.078.506-.474.506-.474s-.553.292-.677.367c-1.154.689-1.728 1.379-1.822 1.837-.028.136-.01.303.11.372l.295.148c.803.402 1.79-.655 3.104-2.956a28.723 28.723 0 0 1 4.52-1.074c1.358.776 2.916 1.146 3.515.986a.597.597 0 0 0 .295-.202c.048-.076.115-.379.115-.379s-.113.153-.205.199c-.38.179-1.576-.12-2.803-.72 1.061-.113 1.946-.118 2.418.033.6.192.6.388.593.428a1.14 1.14 0 0 0 .031-.22.578.578 0 0 0-.166-.38c-.223-.218-.771-.329-1.519-.338a13.275 13.275 0 0 0-1.972.148c-.336-.193-.69-.405-.972-.668-.712-.666-1.31-1.59-1.68-2.626a11 11 0 0 0 .071-.294c.103-.464.177-1.996.177-1.996s-.293 1.151-.34 1.325c-.029.11-.066.228-.108.35-.225-.79-.34-1.557-.34-2.138 0-.165.015-.484.061-.737.023-.18.088-.274.156-.32.134.033.284.24.441.583.135.298.126.642.126.855 0 0 .145-.528.111-.84-.02-.187-.198-.669-.577-.663h-.031l-.17-.002zm.129 4.787c.392.789.933 1.538 1.642 2.138.158.134.327.261.5.38-1.289.24-2.641.577-3.899 1.104.228-.404.473-.844.725-1.318.488-.922.783-1.634 1.032-2.303z"/><path opacity=".2" d="M3 28v1c0 .554.47 1 1.053 1h17.894C22.53 30 23 29.554 23 29v-1c0 .554-.47 1-1.053 1H4.053C3.469 29 3 28.554 3 28z"/><path fill="#fff" opacity=".2" d="M4.053 6C3.47 6 3 6.446 3 7v1c0-.554.47-1 1.053-1h17.894C22.53 7 23 7.446 23 8V7c0-.554-.47-1-1.053-1H4.053zM8.053 1C7.469 1 7 1.446 7 2v1c0-.554.47-1 1.053-1h17.894C26.53 2 27 2.446 27 3V2c0-.554-.47-1-1.053-1H8.053z"/><path fill="#fff" stroke="#fff" stroke-width=".5" d="M12.268 11.635c-.277 0-.536.135-.598.359-.233.857.028 2.183.462 3.834l-.131.32c-.333.81-.748 1.617-1.113 2.333-1.508 2.951-2.682 4.543-3.464 4.654l-.003-.032c-.017-.368.662-1.317 1.583-2.072.096-.078.506-.474.506-.474s-.553.292-.677.367c-1.154.689-1.728 1.379-1.822 1.837-.028.136-.01.303.11.372l.295.148c.803.402 1.79-.655 3.104-2.956a28.723 28.723 0 0 1 4.52-1.074c1.358.776 2.916 1.146 3.515.986a.597.597 0 0 0 .295-.202c.048-.076.115-.379.115-.379s-.113.153-.205.199c-.38.179-1.576-.12-2.803-.72 1.061-.113 1.946-.118 2.418.033.6.192.6.388.593.428a1.14 1.14 0 0 0 .031-.22.578.578 0 0 0-.166-.38c-.223-.218-.771-.329-1.519-.338a13.275 13.275 0 0 0-1.972.148c-.336-.193-.69-.405-.972-.668-.712-.666-1.31-1.59-1.68-2.626a11 11 0 0 0 .071-.294c.103-.464.177-1.996.177-1.996s-.293 1.151-.34 1.325c-.029.11-.066.228-.108.35-.225-.79-.34-1.557-.34-2.138 0-.165.015-.484.061-.737.023-.18.088-.274.156-.32.134.033.284.24.441.583.135.298.126.642.126.855 0 0 .145-.528.111-.84-.02-.187-.198-.669-.577-.663h-.031l-.17-.002zm.129 4.787c.392.789.933 1.538 1.642 2.138.158.134.327.261.5.38-1.289.24-2.641.577-3.899 1.104.228-.404.473-.844.725-1.318.488-.922.783-1.634 1.032-2.303z"/><circle fill="#ffa93e" cx="21" cy="23" r="8"/><path fill="#fff" d="M17 25.218V27h1.782l4.5-4.5-1.782-1.782zm7.859-4.29a.472.472 0 0 0 0-.673l-1.114-1.114a.472.472 0 0 0-.674 0l-.931.937 1.782 1.782z"/><path fill-rule="evenodd" opacity=".2" d="M28.979 23.424A8 8 0 0 1 21 31a8 8 0 0 1-7.979-7.424A8 8 0 0 0 13 24a8 8 0 0 0 8 8 8 8 0 0 0 8-8 8 8 0 0 0-.021-.576z"/></svg>