<svg xmlns="http://www.w3.org/2000/svg" width="32" height="32" version="1"><rect style="opacity:.2" width="28" height="17" x="2" y="8" rx="1.75" ry="1.518"/><rect style="fill:#8e8e8e" width="28" height="17" x="2" y="7" rx="1.75" ry="1.518"/><path style="opacity:.2" d="M7.441 12h17.118c.79 0 1.556.51 1.427 1.125l-1.427 6.75c-.13.615-.636 1.125-1.426 1.125H8.867c-.79 0-1.296-.51-1.426-1.125l-1.427-6.75C5.884 12.51 6.651 12 7.441 12z"/><rect style="opacity:.2" width="5" height="5" x="1" y="14" rx="1.136" ry="1.073"/><rect style="fill:#b3b3b3" width="5" height="5" x="1" y="13" rx="1.136" ry="1.073"/><circle style="opacity:.5" cx="3.5" cy="15.5" r="1.5"/><path style="fill:#2bd677" d="M7.441 11h17.118c.79 0 1.556.51 1.427 1.125l-1.427 6.75c-.13.615-.636 1.125-1.426 1.125H8.867c-.79 0-1.296-.51-1.426-1.125l-1.427-6.75C5.884 11.51 6.651 11 7.441 11z"/><rect style="opacity:.2" width="5" height="5" x="26" y="14" rx="1.136" ry="1.073"/><rect style="fill:#b3b3b3" width="5" height="5" x="26" y="13" rx="1.136" ry="1.073"/><circle style="opacity:.5" cx="28.5" cy="15.5" r="1.5"/><path style="opacity:.2" d="M10 14a1 1 0 0 0-1 1 1 1 0 0 0 1 1 1 1 0 0 0 1-1 1 1 0 0 0-1-1zm4 0a1 1 0 0 0-1 1 1 1 0 0 0 1 1 1 1 0 0 0 1-1 1 1 0 0 0-1-1zm4 0a1 1 0 0 0-1 1 1 1 0 0 0 1 1 1 1 0 0 0 1-1 1 1 0 0 0-1-1zm4 0a1 1 0 0 0-1 1 1 1 0 0 0 1 1 1 1 0 0 0 1-1 1 1 0 0 0-1-1zm-10 3a1 1 0 0 0-1 1 1 1 0 0 0 1 1 1 1 0 0 0 1-1 1 1 0 0 0-1-1zm4 0a1 1 0 0 0-1 1 1 1 0 0 0 1 1 1 1 0 0 0 1-1 1 1 0 0 0-1-1zm4 0a1 1 0 0 0-1 1 1 1 0 0 0 1 1 1 1 0 0 0 1-1 1 1 0 0 0-1-1z"/><path style="fill:#fff" d="M10 13a1 1 0 0 0-1 1 1 1 0 0 0 1 1 1 1 0 0 0 1-1 1 1 0 0 0-1-1zm4 0a1 1 0 0 0-1 1 1 1 0 0 0 1 1 1 1 0 0 0 1-1 1 1 0 0 0-1-1zm4 0a1 1 0 0 0-1 1 1 1 0 0 0 1 1 1 1 0 0 0 1-1 1 1 0 0 0-1-1zm4 0a1 1 0 0 0-1 1 1 1 0 0 0 1 1 1 1 0 0 0 1-1 1 1 0 0 0-1-1zm-10 3a1 1 0 0 0-1 1 1 1 0 0 0 1 1 1 1 0 0 0 1-1 1 1 0 0 0-1-1zm4 0a1 1 0 0 0-1 1 1 1 0 0 0 1 1 1 1 0 0 0 1-1 1 1 0 0 0-1-1zm4 0a1 1 0 0 0-1 1 1 1 0 0 0 1 1 1 1 0 0 0 1-1 1 1 0 0 0-1-1z"/><path style="fill:#fff;opacity:.1" d="M3.75 7C2.78 7 2 7.677 2 8.518v1C2 8.677 2.78 8 3.75 8h24.5c.97 0 1.75.677 1.75 1.518v-1C30 7.677 29.22 7 28.25 7H3.75z"/><path style="opacity:.1;fill:#fff" d="M2.137 13C1.507 13 1 13.478 1 14.072v1C1 14.478 1.507 14 2.137 14h2.726C5.493 14 6 14.478 6 15.072v-1C6 13.478 5.493 13 4.863 13H2.137zM7.441 11c-.79 0-1.557.51-1.427 1.125l.105.496c.228-.365.765-.621 1.322-.621H24.56c.557 0 1.094.256 1.322.621l.105-.496C26.116 11.51 25.35 11 24.56 11H7.44zM27.137 13c-.63 0-1.137.478-1.137 1.072v1c0-.594.507-1.072 1.137-1.072h2.726c.63 0 1.137.478 1.137 1.072v-1c0-.594-.507-1.072-1.137-1.072h-2.726z"/></svg>