<svg xmlns="http://www.w3.org/2000/svg" width="32" height="32" version="1"><rect style="opacity:.2" width="28" height="28" x="2" y="3" rx="8.4" ry="8.4"/><rect style="fill:#2a5083" width="28" height="28" x="2" y="2" rx="8.4" ry="8.4"/><path opacity=".2" d="M16 8c-4.914 0-9 3.875-9 8.566s4.086 8.433 9 8.433h.002c.689-.001 1.365-.133 2.035-.281 1.382.909 3.069 1.53 4.985 1.185.878-.16 1.229-1.028.617-1.677-.656-.693-1.074-1.124-1.094-2.047 1.497-1.537 2.453-3.496 2.455-5.613 0-4.691-4.086-8.567-9-8.567zm0 2c3.861 0 6.999 3.036 7 6.564-.002 1.516-.685 2.985-1.887 4.219a2 2 0 0 0-.568 1.439c.013.587.24 1.13.467 1.637a5.73 5.73 0 0 1-1.877-.81 2 2 0 0 0-1.53-.284c-.636.14-1.168.233-1.605.234-3.899 0-7-2.905-7-6.433 0-3.529 3.138-6.567 7-6.567z"/><path fill="#fff" d="M16 7.016c-4.914 0-9 3.876-9 8.566s4.086 8.434 9 8.434h.002c.689-.002 1.365-.134 2.035-.282 1.382.909 3.069 1.531 4.984 1.186.879-.16 1.23-1.029.618-1.678-.656-.693-1.074-1.124-1.094-2.047 1.497-1.537 2.453-3.496 2.455-5.613 0-4.69-4.086-8.566-9-8.566zm0 2c3.861 0 6.999 3.036 7 6.564-.002 1.517-.685 2.985-1.887 4.219a2 2 0 0 0-.568 1.439c.013.587.24 1.13.467 1.637a5.699 5.699 0 0 1-1.877-.811 2 2 0 0 0-1.53-.283c-.636.141-1.168.233-1.605.235-3.898 0-7-2.905-7-6.434s3.138-6.566 7-6.566z"/><path fill="none" stroke="#000" stroke-linecap="round" stroke-linejoin="round" stroke-width="2" opacity=".2" d="M13 19s1.6 1 3 1 3-1 3-1"/><path fill="none" stroke="#fff" stroke-linecap="round" stroke-linejoin="round" stroke-width="2" d="M13 18s1.6 1 3 1 3-1 3-1"/><path style="fill:#fff;opacity:.1" d="M10.4 2A8.382 8.382 0 0 0 2 10.4v1C2 6.747 5.747 3 10.4 3h11.2c4.653 0 8.4 3.747 8.4 8.4v-1C30 5.747 26.253 2 21.6 2H10.4z"/></svg>