<svg xmlns="http://www.w3.org/2000/svg" width="32" height="32"><rect style="opacity:.2" width="29" height="29" x="2" y="2" rx="1.45" ry="1.45"/><path style="fill:#2b855b" d="M3.45 1h26.1c.803 0 1.45.647 1.45 1.45v26.1c0 .803-.647 1.45-1.45 1.45H8.013l-3.965-.778c-.788-.154-.57-.319-.792-1.09L2 23.747V2.45C2 1.647 2.647 1 3.45 1z"/><path style="fill:#ffb923" d="M2 23.634v4.916c0 .803.647 1.45 1.45 1.45h4.916z"/><rect style="opacity:.2" width="21" height="21" x="6" y="6" rx="1.05" ry="1.05"/><rect style="fill:#c1c1c1" width="21" height="21" x="6" y="5" rx="1.05" ry="1.05"/><path style="fill:#4e4e4e" d="M15 13h3v10h-3zM15 8h3v3h-3z"/><path style="opacity:.1;fill:#fff" d="M3.45 1C2.645 1 2 1.646 2 2.45v1C2 2.645 2.646 2 3.45 2h26.1c.804 0 1.45.646 1.45 1.45v-1C31 1.645 30.354 1 29.55 1H3.45z"/><path style="opacity:.1" d="M2 23.633v1L7.367 30h1L2 23.633z"/><path style="fill:#fff;opacity:.2" d="M7.05 5C6.47 5 6 5.47 6 6.05v1C6 6.47 6.47 6 7.05 6h18.9c.58 0 1.05.47 1.05 1.05v-1C27 5.47 26.53 5 25.95 5H7.05z"/></svg>