<svg xmlns="http://www.w3.org/2000/svg" width="32" height="32" version="1"><rect style="opacity:.2" width="28" height="28" x="2" y="3" rx="1.5" ry="1.5"/><rect style="fill:#29aae2" width="28" height="28" x="2" y="2" rx="1.5" ry="1.5"/><rect style="opacity:.2" width="22" height="22" x="5" y="6" rx="1.5" ry="1.5"/><rect style="fill:#fff" width="22" height="22" x="5" y="5" rx="1.5" ry="1.5"/><path style="fill:#424242" d="M7 7v18h8v-4h-4V11h4V7H7zm10 0v4h4v10h-4v4h8V7h-8z"/><path style="fill:#fff;opacity:.2" d="M3.5 2C2.669 2 2 2.669 2 3.5v1C2 3.669 2.669 3 3.5 3h25c.831 0 1.5.669 1.5 1.5v-1c0-.831-.669-1.5-1.5-1.5h-25z"/></svg>