<svg xmlns="http://www.w3.org/2000/svg" width="32" height="32" version="1"><rect fill="#826f3d" width="28" height="24" x="-30" y="4" rx="1.4" ry="1.5" transform="scale(-1 1)"/><path opacity=".2" d="M4 7h24v14H4z"/><path fill="#fff" d="M4 6h24v14H4z"/><g fill="#ff6e6e"><path d="M14 12v2H8v-2zM14 8v2H8V8z"/><path d="M8 8h2v10H8z"/></g><circle fill="#01d900" cx="26.5" cy="24.5" r="1.5"/><path opacity=".4" d="M4 21h14v1H4z"/><path fill="#fff" opacity=".2" d="M3.4 4C2.625 4 2 4.669 2 5.5v1C2 5.669 2.625 5 3.4 5h25.2c.775 0 1.4.669 1.4 1.5v-1c0-.831-.625-1.5-1.4-1.5H3.4z"/><path opacity=".2" d="M2 26.5v1c0 .831.625 1.5 1.4 1.5h25.2c.775 0 1.4-.669 1.4-1.5v-1c0 .831-.625 1.5-1.4 1.5H3.4c-.775 0-1.4-.669-1.4-1.5z"/><g fill="#ff6e6e"><path d="M17 18h-2v-6h2zM21 18h-2v-6h2zM25 18h-2v-6h2z"/><path d="M25 12v2H15v-2z"/></g><path opacity=".4" d="M4 23h14v1H4zM4 25h14v1H4z"/></svg>