<svg width="32" height="32" version="1" xmlns="http://www.w3.org/2000/svg"><rect x="2" y="3" width="28" height="28" rx="1.4" ry="1.4" style="opacity:.2"/><rect x="2" y="2" width="28" height="28" rx="1.4" ry="1.4" style="fill:#e4e4e4"/><path d="M3.4 2C2.625 2 2 2.625 2 3.4v1C2 3.625 2.625 3 3.4 3h25.2c.775 0 1.4.625 1.4 1.4v-1c0-.775-.625-1.4-1.4-1.4H3.4z" style="fill:#fff;opacity:.1"/><path d="M19.426 9.972c-.636-.007-1.051.032-1.051.032A1.5 1.5 0 0 0 17 11.5v5.746a1.5 1.5 0 0 0 0 .49V23.5a1.5 1.5 0 1 0 3 0v-4.608c.644-.003.873.083 1.807-.111.886-.185 1.843-.492 2.687-1.16S26 15.803 26 14.5s-.662-2.454-1.506-3.121c-.844-.668-1.8-.976-2.687-1.16a12.626 12.626 0 0 0-2.381-.247zm-5.947.006A1.5 1.5 0 0 0 12 11.5c0 2.75-.027 5.684-.52 7.707-.246 1.011-.606 1.762-.988 2.181-.382.42-.728.612-1.492.612a1.5 1.5 0 1 0-3 0v1.5A1.5 1.5 0 0 0 7.5 25H9c1.486 0 2.827-.621 3.71-1.592.885-.971 1.368-2.19 1.685-3.49.632-2.602.605-5.668.605-8.418a1.5 1.5 0 0 0-1.521-1.522zm7.084 3.1c.168.002.347.018.632.078.613.128 1.155.351 1.436.574.281.223.369.323.369.77 0 .446-.088.546-.37.77-.28.222-.822.446-1.435.573-.57.12-.721.062-1.195.075V13.08c.237.006.394-.005.563-.002z" style="opacity:.1"/><path d="M19.426 8.973c-.636-.008-1.051.03-1.051.03A1.5 1.5 0 0 0 17 10.5v5.746a1.5 1.5 0 0 0 0 .49V22.5a1.5 1.5 0 1 0 3 0v-4.607c.644-.003.873.083 1.807-.112.886-.185 1.843-.492 2.687-1.16S26 14.804 26 13.5s-.662-2.453-1.506-3.121c-.844-.668-1.8-.975-2.687-1.16a12.626 12.626 0 0 0-2.381-.246zm-5.947.006A1.5 1.5 0 0 0 12 10.5c0 2.75-.027 5.684-.52 7.707-.246 1.012-.606 1.762-.988 2.182-.382.42-.728.611-1.492.611a1.5 1.5 0 1 0-3 0v1.5A1.5 1.5 0 0 0 7.5 24H9c1.486 0 2.827-.62 3.71-1.592.885-.97 1.368-2.189 1.685-3.49.632-2.602.605-5.668.605-8.418a1.5 1.5 0 0 0-1.521-1.521zm7.084 3.1c.168.002.347.018.632.077.613.128 1.155.352 1.436.574.281.223.369.324.369.77s-.088.547-.37.77c-.28.222-.822.446-1.435.574-.57.119-.721.062-1.195.074V12.08c.237.006.394-.005.563-.002z" style="fill:#4c4c4c"/></svg>