<svg xmlns="http://www.w3.org/2000/svg" width="32" height="32"><path style="opacity:.2" d="M21.715 1024.362c-1.268.096-2.055.543-2.9 1.188-.777-.211-1.56-.315-2.046-.217-1.111.222-1.902.669-2.621 1.395-.042 0-.086-.038-.127-.039-1.144-.018-1.676.308-1.94.405-.512.181-.934.6-1.312.921-.398-.452-.948-1.097-1.249-1.423-.88-.991-1.67-1.627-2.355-1.872-.98-.342-2.15-.255-3.009.107-.859.361-1.466.9-1.967 1.472-.167.19-.76.602-1.082 1.854-.322 1.253.147 2.42.547 3.108.8 1.38 1.939 2.64 4.356 5.57l.338.41c-.336.192-.687.354-.973.64-.889.89-1.283 2.117-1.312 3.14-.038 1.293.541 2.287 1.111 2.94s1.191 1.077 1.846 1.41c.68.345.775.335 1.393.57.618.234 1.427.532 2.344.86 1.834.657 4.092 1.428 6.098 2.03.93.279 1.678.49 2.61.529.571.024 1.237-.135 1.87-.37.399-.1.773-.281 1.1-.532h.005c.657-.506 2.091-1.712 3.635-3.013 1.545-1.302 2.749-2.292 3.446-2.959.226-.216.522-.48.854-.993.332-.514.599-1.323.621-1.981.044-1.316-.295-1.906-.623-2.856a57.45 57.45 0 0 0-2.723-6.477 32.446 32.446 0 0 0-1.455-2.665c-.48-.774-.778-1.368-1.73-2.117-.938-.74-1.857-1.044-2.75-1.035z" transform="translate(0 -1020.362)"/><path style="fill:#4f4f4f" d="M21.715 1023.362c-1.268.096-2.055.543-2.9 1.188-.777-.211-1.56-.315-2.046-.217-1.111.222-1.902.669-2.621 1.395-.042 0-.086-.038-.127-.039-1.144-.018-1.676.308-1.94.405-.512.181-.934.6-1.312.921-.398-.452-.948-1.097-1.249-1.423-.88-.991-1.67-1.627-2.355-1.872-.98-.342-2.15-.255-3.009.107-.859.361-1.466.9-1.967 1.472-.167.19-.76.602-1.082 1.854-.322 1.253.147 2.42.547 3.108.8 1.38 1.939 2.64 4.356 5.57l.338.41c-.336.192-.687.354-.973.64-.889.89-1.283 2.117-1.312 3.14-.038 1.293.541 2.287 1.111 2.94s1.191 1.077 1.846 1.41c.68.345.775.335 1.393.57.618.234 1.427.532 2.344.86 1.834.657 4.092 1.428 6.098 2.03.93.279 1.678.49 2.61.529.571.024 1.237-.135 1.87-.37.399-.1.773-.281 1.1-.532h.005c.657-.506 2.091-1.712 3.635-3.013 1.545-1.302 2.749-2.292 3.446-2.959.226-.216.522-.48.854-.993.332-.514.599-1.323.621-1.981.044-1.316-.295-1.906-.623-2.856a57.45 57.45 0 0 0-2.723-6.477 32.446 32.446 0 0 0-1.455-2.665c-.48-.774-.778-1.368-1.73-2.117-.938-.74-1.857-1.044-2.75-1.035z" transform="translate(0 -1020.362)"/><path style="opacity:.2" d="M20.606 1046.078c.85-.658 6.293-5.267 6.84-5.792.72-.691.726-.873.091-2.72-1.389-4.041-3.832-9.064-4.932-9.935-.458-.363-1.303-.357-1.896.01-.828.516-.791 1.21.151 2.855.34.593.617 1.318.617 1.367 0 .05-.118.09-.262.09-.184 0-.606-.523-1.425-1.766-1.246-1.893-1.606-2.194-2.425-2.03-.617.125-1.32.602-1.552 1.054-.268.522-.157.786 1.09 2.6.767 1.114.977 1.513.858 1.633-.087.088-.202.158-.255.158-.053 0-.751-.896-1.551-1.992-.512-.7-.91-1.216-1.208-1.558-.512-.697-.997-.48-1.625-.25-.449.221-.903.54-1.127.835-.527.695-.449 1.135.416 2.349a45.995 45.995 0 0 0 1.37 1.821c.593.733.736 1.249.38 1.367-.208.068-.1.187-4.077-4.487-2.462-2.895-3.618-4.154-3.908-4.255-.544-.192-1.137.059-1.72.727-.86.987-.96.812 3.879 6.708 2.375 2.894 4.379 5.341 4.453 5.437.273.358-.467-.067-1.765-.5-1.093-.366-1.49-.436-2.205-.39-1.185.1-1.725.75-1.75 1.652-.019.63.584 1.236 1.322 1.612.422.216 5.495 2.12 9.336 3.277 1.678.506 2.348.534 2.88.122z" transform="translate(0 -1020.362)"/><path style="fill:#fff" d="M20.606 1045.078c.85-.658 6.293-5.267 6.84-5.792.72-.691.726-.873.091-2.72-1.389-4.041-3.832-9.064-4.932-9.935-.458-.363-1.303-.357-1.896.01-.828.516-.791 1.21.151 2.855.34.593.617 1.318.617 1.367 0 .05-.118.09-.262.09-.184 0-.606-.523-1.425-1.766-1.246-1.893-1.606-2.194-2.425-2.03-.617.125-1.32.602-1.552 1.054-.268.522-.157.786 1.09 2.6.767 1.114.977 1.513.858 1.633-.087.088-.202.158-.255.158-.053 0-.751-.896-1.551-1.992-.512-.7-.91-1.216-1.208-1.558-.512-.697-.997-.48-1.625-.25-.449.221-.903.54-1.127.835-.527.695-.449 1.135.416 2.349a45.995 45.995 0 0 0 1.37 1.821c.593.733.736 1.249.38 1.367-.208.068-.1.187-4.077-4.487-2.462-2.895-3.618-4.154-3.908-4.255-.544-.192-1.137.059-1.72.727-.86.987-.96.812 3.879 6.708 2.375 2.894 4.379 5.341 4.453 5.437.273.358-.467-.067-1.765-.5-1.093-.366-1.49-.436-2.205-.39-1.185.1-1.725.75-1.75 1.652-.019.63.584 1.236 1.322 1.612.422.216 5.495 2.12 9.336 3.277 1.678.506 2.348.534 2.88.122z" transform="translate(0 -1020.362)"/><path style="opacity:.1;fill:#fff" d="M21.715 3c-1.269.096-2.056.542-2.9 1.188-.777-.212-1.56-.314-2.045-.217-1.112.223-1.903.668-2.622 1.394-.041 0-.085-.036-.127-.037-1.144-.018-1.675.306-1.939.402-.512.182-.934.602-1.312.922-.398-.452-.95-1.096-1.25-1.422-.881-.99-1.671-1.628-2.356-1.873-.98-.342-2.148-.254-3.008.108-.86.361-1.466.899-1.967 1.47-.167.191-.76.604-1.082 1.856C.99 7.248 1 7.684 1.051 8.1c.016-.103.03-.205.056-.309.322-1.252.915-1.665 1.082-1.855.501-.572 1.108-1.11 1.967-1.471.86-.362 2.028-.45 3.008-.108.685.245 1.475.882 2.356 1.873.3.326.852.97 1.25 1.422.378-.32.8-.74 1.312-.922.264-.096.795-.42 1.94-.402.04.001.085.037.126.037.719-.726 1.51-1.171 2.622-1.394.485-.097 1.268.005 2.044.216.845-.645 1.632-1.091 2.9-1.187.893-.01 1.814.295 2.753 1.035.95.75 1.248 1.344 1.728 2.117.48.774.964 1.673 1.455 2.664a57.436 57.436 0 0 1 2.723 6.477c.257.744.513 1.279.594 2.102.01-.082.026-.166.03-.245.043-1.315-.296-1.907-.624-2.857a57.436 57.436 0 0 0-2.723-6.477 32.414 32.414 0 0 0-1.455-2.664c-.48-.773-.777-1.367-1.728-2.117-.939-.74-1.86-1.045-2.752-1.035zM5.79 16.203a2.287 2.287 0 0 0-.416.315c-.889.89-1.283 2.118-1.313 3.14-.006.228.013.443.042.653.098-.945.48-2 1.271-2.793.285-.286.637-.447.973-.64l-.338-.41-.219-.265z"/></svg>