<svg width="32" height="32" xmlns="http://www.w3.org/2000/svg"><rect x="2" y="3" width="28" height="28" rx="7" ry="7" style="opacity:.2"/><rect x="2" y="2" width="28" height="28" rx="7" ry="7" style="fill:#e4e4e4"/><path d="M18.619 28.207c-.892-.116-1.974-.355-2.348-.52a2.74 2.74 0 0 1-.758-.543c-.303-.327-.955-1.31-1.092-1.647a79.466 79.466 0 0 0-.589-1.282c-.586-1.257-.587-1.341-.02-1.869.33-.309.313-.397-.053-.262-.165.061-.517.36-.782.662l-.481.55H11.33l.584-.598c.492-.503.64-.738.923-1.474l.337-.876-.411-.402-.411-.402-.438.256c-.423.247-.44.275-.502.816-.093.821-.367 1.054-1.354 1.151-.412.041-.762.063-.777.049-.015-.014.184-.186.442-.382.45-.343.695-.756.935-1.582.039-.132.247-.397.464-.59.217-.192.372-.367.346-.388A66.44 66.44 0 0 0 11 18.51l-.42-.323-.633.329c-.624.324-.635.337-.804.921-.11.375-.234.611-.339.644-.299.092-1.507.33-1.535.302-.015-.015.2-.222.479-.46.36-.307.599-.623.83-1.099.32-.662.327-.669.91-.857.557-.18.588-.205.562-.47-.055-.564-.024-.552-1.247-.483-1.114.063-1.128.067-1.403.373-.867.965-1.522 1.587-1.725 1.638-.282.07-.794-.097-.865-.282-.041-.106.042-.137.37-.137.368 0 .448-.04.634-.311.117-.171.562-.667.988-1.101l.776-.79h1.298c.714 0 1.439.04 1.61.09.305.087.311.082.308-.216-.002-.167-.083-.912-.18-1.656-.157-1.195-.217-1.421-.519-1.961-.187-.336-.779-1.795-1.314-3.243L7.81 6.787 7.92 5.64c.1-1.021.14-1.178.36-1.412.194-.205.336-.263.648-.263.332 0 .534.095 1.205.567.444.311.965.723 1.158.915.326.325.355.4.418 1.114.037.42.052.78.033.798-.019.018-.294-.085-.613-.23-.552-.25-.592-.292-.89-.938-.342-.738-.514-.937-.737-.852-.115.044-.145.236-.145.914v.857l.774 1.716.774 1.715 1.313.727c1.149.636 1.427.842 2.223 1.64.5.503.935.914.966.914.1 0 .38-1.01.38-1.372v-.35h.713c.629 0 .72-.023.774-.192.068-.211.126-.23.328-.103.106.068.116.174.045.501l-.09.416-.453-.023-.454-.023v1.19c0 .654.04 1.214.088 1.243.049.03.162-.129.253-.353.092-.226.37-.59.624-.82l.459-.413.401.204c.22.113.462.181.536.153.171-.065.17-.04-.027.37-.143.298-.204.338-.521.338-.198 0-.425.065-.504.145-.2.198-.303.96-.171 1.25.14.308.254.293.398-.055.084-.203.3-.382.74-.616l.622-.328.403.37c.394.363.414.37.81.269.224-.057.436-.074.47-.04.036.036-.14.268-.391.516l-.456.451-.362-.42-.361-.418-.352.227c-.26.168-.353.295-.354.483-.001.292.117.36.527.3.158-.023.477.026.707.109.231.082.704.15 1.05.15h.631l-.305.224-.305.225.236.107c.193.088.35.064.864-.129.346-.13.808-.236 1.026-.236.377 0 .452.054 1.447 1.035l1.049 1.034.33 1.765c.186.993.313 1.942.291 2.17-.05.504-.382.954-.93 1.26l-.411.23.073-.23c.04-.126.095-.511.12-.856.104-1.354-.694-2.006-.898-.734-.075.465-.157.376-.407-.443-.193-.63-.191-1.021.007-1.273.12-.154-.188-1.908-.414-2.354l-.181-.357-.652.692c-1.592 1.691-1.568 1.661-1.403 1.798.232.192.522.817.52 1.116l-.003.267-.262-.301c-.402-.464-.646-.555-.93-.349-.13.095-.238.22-.24.277-.005.198.435.755.624.789.4.071.362.206-.056.204-.478-.002-1.106-.254-1.369-.55l-.174-.195-1.121.293c-.81.211-1.245.381-1.563.61a1.9 1.9 0 0 1-.98.38l-.54.064.31.56.308.56.52.002c.388 0 1.046.175 2.57.682 1.128.374 2.146.76 2.263.856.209.173.194.175-.747.125-.528-.029-1.132-.014-1.343.032-.326.071-.389.125-.416.354-.069.594.86 1.138 2.269 1.329.814.11.824.115.402.18-.451.068-2.334.078-2.831.014z" style="fill:#3f3f3f"/><path d="M9 2C5.122 2 2 5.122 2 9v1c0-3.878 3.122-7 7-7h14c3.878 0 7 3.122 7 7V9c0-3.878-3.122-7-7-7H9z" style="fill:#fff;opacity:.2"/></svg>