<svg xmlns="http://www.w3.org/2000/svg" width="32" height="32"><rect style="opacity:.2" width="22" height="28" x="5" y="3" rx="1.375" ry="1.4"/><rect style="fill:#57a27f" width="22" height="28" x="5" y="2" rx="1.375" ry="1.4"/><path style="opacity:.2" d="M6.375 2C5.613 2 5 2.624 5 3.4v25.2c0 .776.613 1.4 1.375 1.4H9V2zM15 10v4.9l4.333-4.9 3.667.63L16.667 17 23 23.3l-3.667.7L15 19.1v4.2l-3 .7V10.63z"/><path style="fill:#fff" d="M15 9v4.9L19.333 9 23 9.63 16.667 16 23 22.3l-3.667.7L15 18.1v4.2l-3 .7V9.63z"/><path style="fill:#fff;opacity:.2" d="M6.375 2C5.613 2 5 2.625 5 3.4v1C5 3.625 5.613 3 6.375 3h19.25C26.387 3 27 3.625 27 4.4v-1c0-.775-.613-1.4-1.375-1.4H6.375z"/></svg>