<svg xmlns="http://www.w3.org/2000/svg" width="32" height="32"><circle style="opacity:.2" cx="16.5" cy="16.5" r="14.5"/><circle style="fill:#b5b5b5" cx="16.5" cy="15.5" r="14.5"/><path style="opacity:.2" d="M16.5 6A1.5 1.5 0 0 0 15 7.5a1.5 1.5 0 0 0 .848 1.348l-2.036 4.203-4.851 1.113A1.5 1.5 0 0 0 7.5 13 1.5 1.5 0 0 0 6 14.5 1.5 1.5 0 0 0 7.5 16a1.5 1.5 0 0 0 1.2-.602l3.45 2.58-.502 5.03A1.5 1.5 0 0 0 11.5 23a1.5 1.5 0 0 0-1.5 1.5 1.5 1.5 0 0 0 1.5 1.5 1.5 1.5 0 0 0 1.5-1.5 1.5 1.5 0 0 0-.27-.855l3.77-2.62 3.803 2.643a1.45 1.45 0 0 0-.303.883A1.45 1.45 0 0 0 21.45 26a1.45 1.45 0 0 0 1.45-1.45 1.45 1.45 0 0 0-1.45-1.45 1.45 1.45 0 0 0-.089.004l-.511-5.125 3.45-2.58a1.5 1.5 0 0 0 1.2.601 1.5 1.5 0 0 0 1.5-1.5 1.5 1.5 0 0 0-1.5-1.5 1.5 1.5 0 0 0-1.46 1.164l-4.852-1.113-2.036-4.203A1.5 1.5 0 0 0 18 7.5 1.5 1.5 0 0 0 16.5 6z"/><circle style="opacity:.4" cx="16.5" cy="15.5" r="11.5"/><path style="fill:#e5e5e5" transform="matrix(.725 0 0 .69878 -.399 -.994)" d="m23.308 10.725 3.709 7.943 8.705 2.074-6.414 4.979.897 9.332-6.897-4.973-6.896 4.973.896-9.332-6.413-4.98 8.705-2.073z"/><circle style="fill:#e5e5e5" cx="16.5" cy="6.5" r="1.5"/><circle style="fill:#e5e5e5" cx="7.5" cy="13.5" r="1.5"/><circle style="fill:#e5e5e5" cx="25.5" cy="13.5" r="1.5"/><circle style="fill:#e5e5e5" cx="11.5" cy="23.5" r="1.5"/><circle style="fill:#e5e5e5" cx="21.45" cy="23.55" r="1.45"/><path style="fill:#fff;opacity:.2" d="M16.5 1A14.5 14.5 0 0 0 2 15.5a14.5 14.5 0 0 0 .021.58A14.5 14.5 0 0 1 16.5 2a14.5 14.5 0 0 1 14.479 13.92A14.5 14.5 0 0 0 31 15.5 14.5 14.5 0 0 0 16.5 1z"/><path style="opacity:.2" d="M16.5 4A11.5 11.5 0 0 0 5 15.5a11.5 11.5 0 0 0 .021.578A11.5 11.5 0 0 1 16.5 5a11.5 11.5 0 0 1 11.479 10.922A11.5 11.5 0 0 0 28 15.5 11.5 11.5 0 0 0 16.5 4z"/><path style="opacity:.2;fill:#fff" d="M27.979 15.922A11.5 11.5 0 0 1 16.5 27 11.5 11.5 0 0 1 5.021 16.078 11.5 11.5 0 0 0 5 16.5 11.5 11.5 0 0 0 16.5 28 11.5 11.5 0 0 0 28 16.5a11.5 11.5 0 0 0-.021-.578z"/></svg>