<svg width="32" height="32" xmlns="http://www.w3.org/2000/svg"><circle cx="16" cy="17" r="14" style="opacity:.2"/><circle cx="16" cy="16" r="14" style="fill:#f14223"/><circle cx="16" cy="16" r="10" style="fill:#4e59b3"/><path d="M16 7A10 10 0 0 0 6 17a10 10 0 0 0 10 10 10 10 0 0 0 10-10A10 10 0 0 0 16 7zm0 2a8 8 0 0 1 2.469.396l-1.137 2.27L16 14.334l-1.332-2.668L13.533 9.4A8 8 0 0 1 16 9zm-3.633.873.807 2.414.941 2.828-2.828-.941-2.406-.803a8 8 0 0 1 1.545-2.11 8 8 0 0 1 1.941-1.388zm7.262.008a8 8 0 0 1 2.11 1.545 8 8 0 0 1 1.388 1.941l-2.414.807-2.828.941.941-2.828zM8.396 14.53l2.27 1.137L13.334 17l-2.668 1.332L8.4 19.467A8 8 0 0 1 8 17a8 8 0 0 1 .396-2.469zm15.204.002A8 8 0 0 1 24 17a8 8 0 0 1-.396 2.469l-2.27-1.137L18.666 17l2.668-1.332 2.266-1.135zM16 15a.667.667 0 0 1 .668.668.667.667 0 0 1-.668.664.667.667 0 0 1-.668-.664A.667.667 0 0 1 16 15zm-1.332 1.332a.667.667 0 0 1 .664.668.667.667 0 0 1-.664.668A.667.667 0 0 1 14 17a.667.667 0 0 1 .668-.668zm2.664 0A.667.667 0 0 1 18 17a.667.667 0 0 1-.668.668.667.667 0 0 1-.664-.668.667.667 0 0 1 .664-.668zM16 17.668a.667.667 0 0 1 .668.664A.667.667 0 0 1 16 19a.667.667 0 0 1-.668-.668.667.667 0 0 1 .668-.664zm-1.885 1.217-.941 2.828-.803 2.406a8 8 0 0 1-2.11-1.545 8 8 0 0 1-1.388-1.941l2.414-.807zm3.77 0 2.828.941 2.406.803a8 8 0 0 1-1.545 2.11 8 8 0 0 1-1.941 1.388l-.807-2.414zM16 19.666l1.332 2.668 1.135 2.266A8 8 0 0 1 16 25a8 8 0 0 1-2.469-.396l1.137-2.27z" style="opacity:.2"/><path d="M16 6A10 10 0 0 0 6 16a10 10 0 0 0 10 10 10 10 0 0 0 10-10A10 10 0 0 0 16 6zm0 2a8 8 0 0 1 2.469.396l-1.137 2.27L16 13.334l-1.332-2.668L13.533 8.4A8 8 0 0 1 16 8zm-3.633.873.807 2.414.941 2.828-2.828-.941-2.406-.803a8 8 0 0 1 1.545-2.11 8 8 0 0 1 1.941-1.388zm7.262.008a8 8 0 0 1 2.11 1.545 8 8 0 0 1 1.388 1.941l-2.414.807-2.828.941.941-2.828zM8.396 13.53l2.27 1.137L13.334 16l-2.668 1.332L8.4 18.467A8 8 0 0 1 8 16a8 8 0 0 1 .396-2.469zm15.204.002A8 8 0 0 1 24 16a8 8 0 0 1-.396 2.469l-2.27-1.137L18.666 16l2.668-1.332zM16 14a.667.667 0 0 1 .668.668.667.667 0 0 1-.668.664.667.667 0 0 1-.668-.664A.667.667 0 0 1 16 14zm-1.332 1.332a.667.667 0 0 1 .664.668.667.667 0 0 1-.664.668A.667.667 0 0 1 14 16a.667.667 0 0 1 .668-.668zm2.664 0A.667.667 0 0 1 18 16a.667.667 0 0 1-.668.668.667.667 0 0 1-.664-.668.667.667 0 0 1 .664-.668zM16 16.668a.667.667 0 0 1 .668.664A.667.667 0 0 1 16 18a.667.667 0 0 1-.668-.668.667.667 0 0 1 .668-.664zm-1.885 1.217-.941 2.828-.803 2.406a8 8 0 0 1-2.11-1.545 8 8 0 0 1-1.388-1.941l2.414-.807zm3.77 0 2.828.941 2.406.803a8 8 0 0 1-1.545 2.11 8 8 0 0 1-1.941 1.388l-.807-2.414zM16 18.666l1.332 2.668 1.135 2.266A8 8 0 0 1 16 24a8 8 0 0 1-2.469-.396l1.137-2.27z" style="fill:#fff"/><path d="M16 2A14 14 0 0 0 2 16a14 14 0 0 0 .021.586A14 14 0 0 1 16 3a14 14 0 0 1 13.979 13.414A14 14 0 0 0 30 16 14 14 0 0 0 16 2z" style="fill:#fff;opacity:.2"/></svg>