<svg xmlns="http://www.w3.org/2000/svg" width="32" height="32" version="1"><path style="opacity:.2" d="M3.4 2C2.624 2 2 2.624 2 3.4v25.2c0 .776.624 1.4 1.4 1.4H10V10h10V2zM22 2v28h6.6c.776 0 1.4-.624 1.4-1.4V3.4c0-.776-.624-1.4-1.4-1.4zM12 12v18h8V12z"/><path style="fill:#16a085" d="M3.4 1C2.624 1 2 1.624 2 2.4v25.2c0 .776.624 1.4 1.4 1.4H10V9h10V1zM22 1v28h6.6c.776 0 1.4-.624 1.4-1.4V2.4c0-.776-.624-1.4-1.4-1.4zM12 11v18h8V11z"/><path style="opacity:.2;fill:#fff" d="M3.4 1C2.625 1 2 1.625 2 2.4v1C2 2.625 2.625 2 3.4 2H20V1zM22 1v1h6.6c.775 0 1.4.625 1.4 1.4v-1c0-.775-.625-1.4-1.4-1.4zM12 11v1h8v-1z"/><circle style="fill:#8255cc" cx="24" cy="23" r="8"/><path style="fill:#fff" d="m23 19-.088 1.054a3.143 3.143 0 0 0-.919.53l-.957-.45-1 1.732.87.604a3.143 3.143 0 0 0-.049.53 3.143 3.143 0 0 0 .046.532l-.867.602 1 1.732.955-.45a3.143 3.143 0 0 0 .92.528L23 27h2l.088-1.054a3.143 3.143 0 0 0 .919-.53l.957.45 1-1.732-.87-.604a3.143 3.143 0 0 0 .049-.53 3.143 3.143 0 0 0-.046-.532l.867-.602-1-1.732-.955.45a3.143 3.143 0 0 0-.921-.528L25 19h-2zm1 2.857A1.143 1.143 0 0 1 25.143 23 1.143 1.143 0 0 1 24 24.143 1.143 1.143 0 0 1 22.857 23 1.143 1.143 0 0 1 24 21.857z"/><path style="opacity:.2;fill-rule:evenodd" d="M31.979 23.424A8 8 0 0 1 24 31a8 8 0 0 1-7.979-7.424A8 8 0 0 0 16 24a8 8 0 0 0 8 8 8 8 0 0 0 8-8 8 8 0 0 0-.021-.576z"/></svg>