<svg xmlns="http://www.w3.org/2000/svg" width="32" height="32"><path style="opacity:.2" d="M5.282 2h22.436C28.428 2 29 2.57 29 3.28v23.564c0 .71-.572 1.156-1.282 1.156h-14.69l-2.778 3-2.778-3h-2.19C4.572 28 4 27.554 4 26.844V3.28C4 2.57 4.572 2 5.282 2z"/><path style="fill:#e4e4e4" d="M5.282 1h22.436C28.428 1 29 1.57 29 2.28v23.564c0 .71-.572 1.156-1.282 1.156h-14.69l-2.778 3-2.778-3h-2.19C4.572 27 4 26.554 4 25.844V2.28C4 1.57 4.572 1 5.282 1z"/><path style="opacity:.1" d="M7.549 6A.557.557 0 0 0 7 6.549V8.45c0 .297.252.549.549.549H9.45A.557.557 0 0 0 10 8.451V6.55A.557.557 0 0 0 9.451 6zm6.972 0c-2.028-.029-2.028 3.029 0 3H24.5c2.028.029 2.028-3.029 0-3zM7.55 13a.557.557 0 0 0-.549.549v1.902c0 .297.252.549.549.549H9.45a.557.557 0 0 0 .549-.549V13.55A.557.557 0 0 0 9.451 13zm6.972 0c-2.028-.029-2.028 3.029 0 3H24.5c2.028.029 2.028-3.029 0-3zm-7.783 6a.747.747 0 0 0-.738.738v3.526c0 .4.337.736.738.736h3.526a.743.743 0 0 0 .736-.736v-3.526a.745.745 0 0 0-.736-.738zm7.783 1c-2.028-.029-2.028 3.029 0 3H24.5c2.028.029 2.028-3.029 0-3z"/><path style="fill:#188eee" d="M6.737 18a.745.745 0 0 0-.737.737v3.527c0 .402.336.736.737.736h3.526a.744.744 0 0 0 .737-.736v-3.527a.745.745 0 0 0-.737-.737z"/><path style="fill:#898989" d="M7.548 12a.556.556 0 0 0-.548.55v1.902c0 .297.25.548.548.548h1.904c.297 0 .548-.25.548-.548V12.55c0-.297-.25-.549-.548-.549zM7.548 5A.556.556 0 0 0 7 5.55v1.902c0 .297.25.548.548.548h1.904C9.75 8 10 7.75 10 7.452V5.55C10 5.252 9.75 5 9.452 5z"/><path style="fill:none;stroke:#898989;stroke-width:3;stroke-linecap:round" d="M14.521 13.5H24.5M14.521 6.5H24.5"/><path style="fill:none;stroke:#188eee;stroke-width:3;stroke-linecap:round" d="M14.521 20.5H24.5"/><path style="fill:#fff;opacity:.2" d="M5.281 1C4.571 1 4 1.57 4 2.28v1C4 2.57 4.571 2 5.281 2H27.72C28.429 2 29 2.57 29 3.28v-1C29 1.57 28.429 1 27.719 1H5.28z"/></svg>