<svg xmlns="http://www.w3.org/2000/svg" width="32" height="32" version="1"><rect style="opacity:.2" width="27" height="27" x="-30" y="-30" rx="3" ry="3" transform="matrix(0 -1 -1 0 0 0)"/><rect style="fill:#9bca6b" width="3" height="3" x="3" y="8" ry="0"/><rect style="fill:#583c28" width="3" height="3" x="6" y="17" ry="0"/><rect style="fill:#b8845b" width="3" height="3" x="-18" y="17" ry="0" transform="scale(-1 1)"/><rect style="fill:#785439" width="3" height="3" x="-15" y="17" ry="0" transform="scale(-1 1)"/><rect style="fill:#956b49" width="3" height="3" x="-18" y="14" ry="0" transform="scale(-1 1)"/><rect style="fill:#785439" width="3" height="3" x="12" y="14" ry="0"/><rect style="fill:#583c28" width="3" height="3" x="-15" y="11" ry="0" transform="scale(-1 1)"/><rect style="fill:#9bca6b" width="3" height="3" x="27" y="5" ry="0"/><path style="fill:#72b248" d="M6 2v3H3c0-3 3-3 3-3z"/><rect style="fill:#b8845b" width="3" height="3" x="-21" y="-23" ry="0" transform="scale(-1)"/><rect style="fill:#785439" width="3" height="3" x="9" y="17" ry="0"/><rect style="fill:#583c28" width="3" height="3" x="9" y="14" ry="0"/><rect style="fill:#6b6b6b" width="3" height="3" x="-21" y="14" ry="0" transform="scale(-1 1)"/><rect style="fill:#956b49" width="3" height="3" x="18" y="11" ry="0"/><rect style="fill:#60a036" width="3" height="3" x="-12" y="8" ry="0" transform="scale(-1 1)"/><rect style="fill:#956b49" width="3" height="3" x="-24" y="17" ry="0" transform="scale(-1 1)"/><rect style="fill:#9bca6b" width="3" height="3" x="6" y="5" ry="0"/><rect style="fill:#72b248" width="3" height="3" x="15" y="8" ry="0"/><rect style="fill:#56962c" width="3" height="3" x="18" y="8" ry="0"/><rect style="fill:#60a036" width="3" height="3" x="21" y="8" ry="0"/><rect style="fill:#72b248" width="3" height="3" x="-24" y="11" ry="0" transform="scale(-1 1)"/><rect style="fill:#785439" width="3" height="3" x="-9" y="14" ry="0" transform="scale(-1 1)"/><rect style="fill:#56962c" width="3" height="3" x="-15" y="8" ry="0" transform="scale(-1 1)"/><rect style="fill:#60a036" width="3" height="3" x="-6" y="5" ry="0" transform="scale(-1 1)"/><rect style="fill:#785439" width="3" height="3" x="-27" y="26" ry="0" transform="scale(-1 1)"/><rect style="fill:#785439" width="3" height="3" x="12" y="26" ry="0"/><rect style="fill:#956b49" width="3" height="3" x="15" y="26" ry="0"/><rect style="fill:#956b49" width="3" height="3" x="9" y="-29" ry="0" transform="scale(1 -1)"/><rect style="fill:#785439" width="3" height="3" x="-21" y="-29" ry="0" transform="scale(-1)"/><rect style="fill:#583c28" width="3" height="3" x="9" y="23" ry="0"/><rect style="fill:#6b6b6b" width="3" height="3" x="12" y="23" ry="0"/><rect style="fill:#785439" width="3" height="3" x="18" y="23" ry="0"/><rect style="fill:#583c28" width="3" height="3" x="15" y="23" ry="0"/><rect style="fill:#583c28" width="3" height="3" x="24" y="23" ry="0"/><rect style="fill:#6b6b6b" width="3" height="3" x="-9" y="-26" ry="0" transform="scale(-1)"/><rect style="fill:#b8845b" width="3" height="3" x="6" y="-29" ry="0" transform="scale(1 -1)"/><rect style="fill:#b8845b" width="3" height="3" x="-27" y="17" ry="0" transform="scale(-1 1)"/><rect style="fill:#956b49" width="3" height="3" x="-27" y="14" ry="0" transform="scale(-1 1)"/><rect style="fill:#9bca6b" width="3" height="3" x="24" y="2" ry="0"/><rect style="fill:#72b248" width="3" height="3" x="24" y="8" ry="0"/><rect style="fill:#72b248" width="3" height="3" x="-24" y="2" ry="0" transform="scale(-1 1)"/><rect style="fill:#60a036" width="3" height="3" x="18" y="2" ry="0"/><rect style="fill:#72b248" width="3" height="3" x="6" y="2" ry="0"/><rect style="fill:#56962c" width="3" height="3" x="9" y="2" ry="0"/><rect style="fill:#56962c" width="3" height="3" x="15" y="2" ry="0"/><rect style="fill:#72b248" width="3" height="3" x="12" y="2" ry="0"/><rect style="fill:#b8845b" width="3" height="3" x="-6" y="-14" ry="0" transform="scale(-1)"/><rect style="fill:#b8845b" width="3" height="3" x="3" y="-26" ry="0" transform="scale(1 -1)"/><rect style="fill:#956b49" width="3" height="3" x="3" y="17" ry="0"/><rect style="fill:#583c28" width="3" height="3" x="3" y="14" ry="0"/><rect style="fill:#b8845b" width="3" height="3" x="-12" y="11" ry="0" transform="scale(-1 1)"/><rect style="fill:#56962c" width="3" height="3" x="21" y="5" ry="0"/><rect style="fill:#60a036" width="3" height="3" x="24" y="5" ry="0"/><rect style="fill:#56962c" width="3" height="3" x="-18" y="5" ry="0" transform="scale(-1 1)"/><rect style="fill:#72b248" width="3" height="3" x="18" y="5" ry="0"/><path style="fill:#72b248" d="M27 2s3 0 3 3h-3z"/><rect style="fill:#56962c" width="3" height="3" x="-12" y="5" ry="0" transform="scale(-1 1)"/><rect style="fill:#56962c" width="3" height="3" x="27" y="11" ry="0"/><rect style="fill:#9bca6b" width="3" height="3" x="12" y="5" ry="0"/><rect style="fill:#b8845b" width="3" height="3" x="-12" y="20" ry="0" transform="scale(-1 1)"/><rect style="fill:#785439" width="3" height="3" x="6" y="-23" ry="0" transform="scale(1 -1)"/><rect style="fill:#583c28" width="3" height="3" x="12" y="-23" ry="0" transform="scale(1 -1)"/><rect style="fill:#785439" width="3" height="3" x="15" y="-23" ry="0" transform="scale(1 -1)"/><rect style="fill:#785439" width="3" height="3" x="21" y="-17" ry="0" transform="scale(1 -1)"/><rect style="fill:#785439" width="3" height="3" x="27" y="-17" ry="0" transform="scale(1 -1)"/><path style="fill:#583c28" d="M6 29v-3H3s0 3 3 3z"/><rect style="fill:#6b6b6b" width="3" height="3" x="-6" y="20" ry="0" transform="scale(-1 1)"/><rect style="fill:#6b6b6b" width="3" height="3" x="-21" y="14" ry="0" transform="scale(-1 1)"/><rect style="fill:#6b6b6b" width="3" height="3" x="-9" y="11" ry="0" transform="scale(-1 1)"/><rect style="fill:#6b6b6b" width="3" height="3" x="-27" y="-14" ry="0" transform="scale(-1)"/><rect style="fill:#b8845b" width="3" height="3" x="-30" y="8" ry="0" transform="scale(-1 1)"/><rect style="fill:#b8845b" width="3" height="3" x="21" y="26" ry="0"/><rect style="fill:#785439" width="3" height="3" x="-24" y="20" ry="0" transform="scale(-1 1)"/><rect style="fill:#956b49" width="3" height="3" x="-30" y="20" ry="0" transform="scale(-1 1)"/><rect style="fill:#785439" width="3" height="3" x="-9" y="-11" ry="0" transform="scale(-1)"/><rect style="fill:#6b6b6b" width="3" height="3" x="24" y="20" ry="0"/><rect style="fill:#b8845b" width="3" height="3" x="-18" y="11" ry="0" transform="scale(-1 1)"/><rect style="fill:#785439" width="3" height="3" x="27" y="23" ry="0"/><path style="fill:#6b6b6b" d="M27 26h3c0 3-3 3-3 3z"/><rect style="fill:#785439" width="3" height="3" x="18" y="17" ry="0"/><rect style="fill:#583c28" width="3" height="3" x="27" y="-20" ry="0" transform="scale(1 -1)"/><rect style="fill:#785439" width="3" height="3" x="21" y="-26" ry="0" transform="scale(1 -1)"/><path style="opacity:.2;fill:#fff" d="M6 2C4.338 2 3 3.338 3 5v1c0-1.662 1.338-3 3-3h21c1.662 0 3 1.338 3 3V5c0-1.662-1.338-3-3-3z"/></svg>