<svg xmlns="http://www.w3.org/2000/svg" width="32" height="32" version="1"><circle style="opacity:.2" cx="16" cy="17" r="14"/><circle style="fill:#e4e4e4" cx="16" cy="16" r="14"/><path fill="none" stroke="#474747" stroke-width=".715" d="M22.812 12.717a8.59 6.374 59 0 1-10.926 6.566 8.59 6.374 59 0 1 10.926-6.566z"/><path fill="#2a58ae" d="M17 12c-2.762 0-5 2.237-5 5s2.237 5 5 5 5-2.237 5-5-2.237-5-5-5zm-.894 2.642c1.878 0 3.414 1.516 3.414 3.395s-1.536 3.414-3.414 3.414c-1.879 0-3.395-1.536-3.395-3.414a3.39 3.39 0 0 1 3.395-3.395z"/><path fill="#474747" d="M6.86 16.496s-2.008 1.918-1.851 3.116c.216 1.652 2.29 1.916 3.928 1.896 3.97-.045 18.11-4.684 18.063-10.25-.015-1.799-3.25-1.958-3.25-1.851 0 0 2.4.602 2.347 1.761-.195 4.32-12.005 9.17-17.25 9.302-1.1.028-2.633-.21-3.07-1.22-.393-.905 1.083-2.754 1.083-2.754z"/><path fill="#d24646" d="M23 11.5a2.5 2.5 0 0 1-5 0 2.5 2.5 0 1 1 5 0z"/><path fill="#606060" d="M16 19.501a1.5 1.5 0 0 1-3 0 1.5 1.5 0 1 1 3 0z"/><circle style="opacity:.2" cx="24" cy="24" r="8"/><circle style="fill:#009545" cx="24" cy="23" r="8"/><g style="fill:#fff"><path d="M23 22h2v6h-2zM23 18h2v2h-2z"/></g><path style="opacity:.1;fill:#fff" d="M16 2A14 14 0 0 0 2 16a14 14 0 0 0 .021.586A14 14 0 0 1 16 3a14 14 0 0 1 13.979 13.414A14 14 0 0 0 30 16 14 14 0 0 0 16 2z"/></svg>