<svg xmlns="http://www.w3.org/2000/svg" width="32" height="32" version="1"><path style="opacity:.2" d="M17.912 3.001a3 3 0 0 0-2.217 1.078L11.595 9H10a3 3 0 0 0-3 2.999v11.998a3 3 0 0 0 3 3h1v1c.001 2.804 3.508 4.073 5.305 1.92l4.1-4.92H22a3 3 0 0 0 3-3V9.999a3 3 0 0 0-3-3h-1v-1a3 3 0 0 0-3.088-2.997z"/><path style="fill:#4f4f4f" d="M17.912 2.001a3 3 0 0 0-2.217 1.078L11.595 8H10a3 3 0 0 0-3 2.999v11.998a3 3 0 0 0 3 3h1v1c.001 2.804 3.508 4.073 5.305 1.92l4.1-4.92H22a3 3 0 0 0 3-3V8.999a3 3 0 0 0-3-3h-1v-1a3 3 0 0 0-3.088-2.997z"/><path style="opacity:.3" d="m18 5-5 6h-3v12h4v4l5-6h3V9h-4z"/><path opacity=".2" d="M11 13v7h3v-3l4 4h3v-7h-3v3l-4-4z"/><path fill="#fff" d="M11 12v7h3v-3l4 4h3v-7h-3v3l-4-4z"/><path style="opacity:.1;fill:#fff" d="M17.912 2.002a3 3 0 0 0-2.217 1.078l-4.1 4.918H10a3 3 0 0 0-3 3v1a3 3 0 0 1 3-3h1.596l4.1-4.918A3 3 0 0 1 21 5.998v-1a2.999 2.999 0 0 0-3.088-2.996zM21 5.998v1h1a3 3 0 0 1 3 3v-1a3 3 0 0 0-3-3h-1z"/></svg>