<svg xmlns="http://www.w3.org/2000/svg" width="32" height="32"><rect style="opacity:.2" width="25" height="25" x="4" y="6" rx="1.25" ry="1.25"/><rect style="fill:#008383" width="25" height="25" x="4" y="5" rx="1.25" ry="1.25"/><path style="fill:#fff;opacity:.1" d="M5.25 5C4.558 5 4 5.558 4 6.25v1C4 6.558 4.558 6 5.25 6h22.5c.692 0 1.25.558 1.25 1.25v-1C29 5.558 28.442 5 27.75 5H5.25z"/><path style="fill:#d4d5cc" d="M7 8v19h19V8z"/><path style="opacity:.1" d="M23.485 7.351c-1.343 2.811-5.25 8.082-10.664 12.561C8.238 23.702 3.827 25.822.95 26.8c3.373-.932 8.613-2.841 13.958-6.44 5.197-3.495 10.552-7.796 12.931-9.624-1.932-.287-3.847-1.533-4.354-3.385z"/><path style="fill:#d43519" d="M23.485 6.351c-1.343 2.811-5.25 8.082-10.664 12.561C8.238 22.702 3.827 24.822.95 25.8c3.373-.932 8.613-2.841 13.958-6.44 5.197-3.495 10.552-7.796 12.931-9.624-1.932-.287-3.847-1.533-4.354-3.385z"/><path style="fill:#008383" d="M4 22h3v4H4z"/><path style="opacity:.2" d="M31 6.998A4.003 4.003 0 0 1 27 11c-2.21 0-4-1.794-4-4.002C23 4.79 24.79 3 27 3a4 4 0 0 1 4 3.998"/><path style="fill:#f84529" d="M31 5.998A4.003 4.003 0 0 1 27 10c-2.21 0-4-1.794-4-4.002C23 3.79 24.79 2 27 2a4 4 0 0 1 4 3.998"/><path style="fill:#fff;opacity:.2" d="M27 2c-2.21 0-4 1.789-4 3.998 0 .171.03.335.05.5C23.3 4.528 24.962 3 27 3c2.037 0 3.7 1.528 3.95 3.498.02-.165.05-.329.05-.5A3.999 3.999 0 0 0 27 2z"/><path style="opacity:.2" d="M7 27h19v1H7z"/></svg>