<svg xmlns="http://www.w3.org/2000/svg" width="32" height="32" version="1"><rect style="opacity:.2" width="29" height="29" x="-31" y="-30" rx="1.45" ry="1.45" transform="matrix(0 -1 -1 0 0 0)"/><rect style="fill:#df5555" width="29" height="29" x="-30" y="-30" rx="1.45" ry="1.45" transform="matrix(0 -1 -1 0 0 0)"/><rect style="opacity:.1" width="4" height="18" x="19" y="8" rx=".8" ry=".692"/><rect style="opacity:.1" width="4" height="18" x="8" y="8" rx=".8" ry=".692"/><rect style="fill:#3f3f3f" width="4" height="18" x="8" y="7" rx=".8" ry=".692"/><rect style="fill:#3f3f3f" width="4" height="18" x="19" y="7" rx=".8" ry=".692"/><rect style="opacity:.1" width="9" height="10" x="11" y="13" rx=".63" ry=".62"/><rect style="fill:#545454" width="9" height="10" x="11" y="12" rx=".63" ry=".62"/><rect style="fill:#6c6c6c" width="3" height="11" x="14" y="5" rx=".75" ry=".733"/><path style="opacity:.1" d="M15.5 15a2.5 2.667 0 0 0-2.5 2.667 2.5 2.667 0 0 0 .004.11c0 .008-.004.015-.004.022v2.402c0 .443.279.799.625.799h3.75c.346 0 .625-.356.625-.8v-2.4c0-.011-.005-.02-.005-.03a2.5 2.667 0 0 0 .005-.103A2.5 2.667 0 0 0 15.5 15z"/><path style="fill:#868686" d="M15.5 14a2.5 2.667 0 0 0-2.5 2.667 2.5 2.667 0 0 0 .004.11c0 .008-.004.015-.004.022v2.402c0 .443.279.799.625.799h3.75c.346 0 .625-.356.625-.8v-2.4c0-.011-.005-.02-.005-.03a2.5 2.667 0 0 0 .005-.103A2.5 2.667 0 0 0 15.5 14z"/><path style="fill:#fff;opacity:.2" d="M2.45 1C1.645 1 1 1.646 1 2.45v1C1 2.645 1.646 2 2.45 2h26.1c.804 0 1.45.646 1.45 1.45v-1C30 1.645 29.354 1 28.55 1H2.45z"/></svg>