<svg xmlns="http://www.w3.org/2000/svg" width="32" height="32"><rect style="opacity:.2" width="28" height="28" x="2" y="3" rx="2.1" ry="2.1"/><rect style="fill:#607d8b" width="28" height="28" x="2" y="2" rx="2.1" ry="2.1"/><path style="opacity:.6;fill:#fff;fill-rule:evenodd" d="M26.209 9 11.995 20.04l-.002 2.26.875-1.977-.898 1.965z"/><path style="fill:#fff;fill-rule:evenodd" d="m6.61 18.063 19.6-9.061-14.216 11.046c-1.704-1.109-3.21-2.117-5.384-1.985zM12.896 20.331 26.21 9.004l-7.397 13.255c-1.926-.98-3.678-1.97-5.917-1.928z"/><path style="opacity:.2;fill-rule:evenodd" d="m26.21 10.002-.007.004-.004.002-.738.342-6.647 11.91c-1.6-.814-3.084-1.627-4.822-1.858l-1.222 1.141-.752 1.701 1.974-1.842c1.738.231 3.222 1.044 4.822 1.858l7.397-13.256-.053.045.03-.028.023-.019zM12.019 23.244l-.026.024v.033l.026-.057zm-.026.024v-.03l-.023.051.023-.021zm0-.03.772-1.691-.746.697-.026.055V23.238zm.026-.994.85-1.922-.876 1.914v.032l.026-.024zm-3.614-4.012-1.795.83c2.173-.132 3.68.878 5.385 1.987v-1c-1.193-.776-2.294-1.495-3.59-1.817z"/><path style="fill:#fff;opacity:.1" d="M4.1 2C2.936 2 2 2.936 2 4.1v1C2 3.936 2.936 3 4.1 3h23.8c1.164 0 2.1.936 2.1 2.1v-1c0-1.164-.936-2.1-2.1-2.1H4.1z"/></svg>