<svg xmlns="http://www.w3.org/2000/svg" width="32" height="32" version="1"><path style="opacity:.2" d="M9 3v5H2v15h5v5h5v3h12v-5h5V13H19V3z"/><path style="fill:#3a48a8" d="M4 2h5v5H4z"/><path style="fill:#878186" d="M19 2h5v5h-5z"/><path style="fill:#00879d" d="M9 2v5H2v10h5v5h5v8h7v-5h5v-5h5v-8H19V2z"/><path style="fill:#85d33a" d="M19 7h5v5h-5z"/><path style="fill:#ffba52" d="M24 20h5v5h-5z"/><path style="fill:#878186" d="M19 25h5v5h-5z"/><path style="fill:#85d33a" d="M7 22h5v5H7z"/><path style="fill:#cb383c" d="M2 17h5v5H2z"/><path style="fill:#3a48a8" d="M24 7h5v5h-5z"/><path style="opacity:.1;fill:#fff" d="M4 2h20v1H4zM2 7h27v1H2z"/><path style="opacity:.2" d="M19 12h10v1H19z"/><path style="opacity:.2" d="M9.578 5.232c2.247-.418 5.075-.274 7.436.453 1.526.388 2.583 1.195 3.536 2.28 1.535 1.896 2.46 4.339 2.42 6.55.197 2.931-.575 5.973-2.156 7.81-.719.816-2.27 2.084-3.674 3.38 0 0-.372.446-.352.711.03.398.261.648.495.906.132.146.343.279.538.406.539.287.493.978.305 1.294-.421.434-.905.669-1.438.86-.634.234-.884.12-1.267-.351a5.614 5.614 0 0 1-.852-1.324c-.468-.856-.55-1.643-.435-2.537.124-.403.367-.752.741-1.262.571-.716 1.133-1.294 1.669-2.196.368-.583-.03-.712-.282-.94-1.262-1.134-2.598-1.788-3.41-3.076 1.003-1.106 1.142-2.435 1.434-3.725-1.217 2.423-1.965 4.065-4.368 3.322-1.03-.42-1.892-1.164-2.477-1.865-1.594-2.178-1.447-4.214-1.43-5.054.02-1.079.259-2.563.933-3.655.627-1.152 1.54-1.625 2.634-1.987z"/><path style="fill:#6fc0fc" d="M9.578 4.232c2.247-.418 5.075-.274 7.436.453 1.526.388 2.583 1.195 3.536 2.28 1.535 1.896 2.46 4.339 2.42 6.55.197 2.931-.575 5.973-2.156 7.81-.719.816-2.27 2.084-3.674 3.38 0 0-.372.446-.352.711.03.398.261.648.495.906.132.146.343.279.538.406.539.287.493.978.305 1.294-.421.434-.905.669-1.438.86-.634.234-.884.12-1.267-.351a5.614 5.614 0 0 1-.852-1.324c-.468-.856-.55-1.643-.435-2.537.124-.403.367-.752.741-1.262.571-.716 1.133-1.294 1.669-2.196.368-.583-.03-.712-.282-.94-1.262-1.134-2.598-1.788-3.41-3.076 1.003-1.106 1.142-2.435 1.434-3.725-1.217 2.423-1.965 4.065-4.368 3.322-1.03-.42-1.892-1.164-2.477-1.865-1.594-2.178-1.447-4.214-1.43-5.054.02-1.079.259-2.563.933-3.655.627-1.152 1.54-1.625 2.634-1.987z"/><circle style="fill:#3f3f3f" cx="19" cy="13" r="1"/><path style="opacity:.2" d="m18.607 18.29 3.153 2.608c-.43-.012-.996.145-1.622.09-1.362-.12-2.988-.5-3.12-.992-.075-.682.07-1.216.737-1.756.411-.355.455-.298.852.05z"/><path style="fill:#fff" d="m18.607 17.29 3.153 2.608c-.43-.012-.996.145-1.622.09-1.362-.12-2.988-.5-3.12-.992-.075-.682.07-1.216.737-1.756.411-.355.455-.298.852.05z"/><path style="opacity:.2" d="M2 17h5v1H2zM7 22h5v1H7zM19 25h5v1h-5zM24 20h5v1h-5z"/><path style="opacity:.2;fill:#fff" d="M12.295 4c-.95-.002-1.874.076-2.717.232-1.094.362-2.006.835-2.633 1.987-.674 1.092-.914 2.575-.935 3.654-.005.236-.014.574.002.975.024-1.077.263-2.545.933-3.63.627-1.15 1.54-1.624 2.633-1.986 2.247-.418 5.075-.275 7.436.452 1.527.388 2.583 1.195 3.537 2.28 1.534 1.896 2.457 4.34 2.418 6.55.01.142.006.285.011.427.019-.475.02-.952-.011-1.427.04-2.21-.884-4.654-2.418-6.55-.954-1.085-2.01-1.892-3.537-2.28-1.476-.455-3.135-.68-4.72-.684zm1.99 10.47c-.147.294-.277.53-.414.798-.198.679-.483 1.335-1.02 1.927.116.183.243.352.378.512.665-.998.806-2.131 1.056-3.236zm2.137 6.928c-.499.793-1.018 1.347-1.547 2.01-.374.51-.618.858-.742 1.262-.051.398-.053.774-.01 1.144.005-.048.004-.095.01-.144.124-.404.368-.752.742-1.262.571-.716 1.133-1.293 1.668-2.195.296-.468.099-.645-.121-.815zm.55 4.541c-.097.15-.194.333-.183.477.03.397.26.649.494.906.133.146.344.28.54.407a.775.775 0 0 1 .304.29c.187-.316.233-1.004-.305-1.29-.195-.128-.406-.26-.539-.407a3.1 3.1 0 0 1-.31-.383z"/></svg>