<svg width="32" height="32" xmlns="http://www.w3.org/2000/svg"><path d="M3 26v2.4c0 .886.644 1.6 1.444 1.6h23.112c.8 0 1.444-.714 1.444-1.6V26z" style="opacity:.2"/><path d="M29 26.556V4.444C29 3.644 28.356 3 27.556 3H4.444C3.644 3 3 3.644 3 4.444v22.112c0 .8.644 1.444 1.444 1.444h23.112c.8 0 1.444-.644 1.444-1.444z" style="fill:#ff766a"/><path d="M3.4 11.009c-.776 0-1.4.613-1.4 1.374v8.243C2 21.388 2.624 22 3.4 22h9.684a.705.705 0 0 0 .698-.306L16 19l2.218 2.694c.15.228.421.348.694.306H28.6c.776 0 1.4-.612 1.4-1.374v-8.243c0-.761-.624-1.374-1.4-1.374z" style="opacity:.2"/><path d="M3 25v2.4c0 .886.644 1.6 1.444 1.6h23.112c.8 0 1.444-.714 1.444-1.6V25z" style="fill:#d22f7a"/><path d="M3 25v-.973s2.02-1.622 2.587-1.763c.568-.141.637-.026 1.326.132.69.158 1.718.72 2.039.734.32.014.902-.034 1.577-.084a37.823 37.823 0 0 1 2.141-.088c.349 0 2.019.058 2.947.127.927.069 2.201.184 2.49.217.29.032.63.091 1.015.156.386.064 1.053.161 1.29.188.236.026.783.118 1.419.189.635.07.852.095 1.146.069.293-.027.909-.29 1.595-.534.685-.244.742-.467 1.317-.412.575.056 3.111 1.069 3.111 1.069V25H5.8z" style="fill:#3f3f3f"/><path d="M3.4 10.009c-.776 0-1.4.613-1.4 1.374v8.243C2 20.388 2.624 21 3.4 21h9.684a.705.705 0 0 0 .698-.306L16 18l2.218 2.694c.15.228.421.348.694.306H28.6c.776 0 1.4-.612 1.4-1.374v-8.243c0-.761-.624-1.374-1.4-1.374z" style="fill:#fff"/><rect x="4" y="13" width="9" height="6" ry="1.4" style="fill:#e31c1c"/><rect x="19" y="13" width="9" height="6" ry="1.4" style="fill:#24dbdb"/><path d="M5.938 16.176c-.098.006-.21.025-.352.06-.305.076-.982.547-1.586.996v.368c0 .685.488 1.25 1.137 1.373h6.726A1.395 1.395 0 0 0 13 17.6v-.655c-.07-.001-.291-.013-.33-.013a37.71 37.71 0 0 0-2.14.088c-.676.05-1.258.097-1.579.084-.32-.014-1.348-.577-2.037-.735-.517-.118-.685-.213-.976-.193zm19.95.756c-.575-.056-.63.166-1.316.41-.686.244-1.302.509-1.595.535-.294.026-.512.003-1.147-.068-.635-.072-1.182-.164-1.418-.19a35.88 35.88 0 0 1-1.289-.187l-.123-.02v.188c0 .685.488 1.25 1.137 1.373h6.726a1.394 1.394 0 0 0 1.135-1.358c-.794-.302-1.75-.649-2.11-.683z" style="opacity:.2"/><path d="M4.445 3C3.645 3 3 3.645 3 4.445v1C3 4.645 3.645 4 4.445 4h23.11c.8 0 1.445.645 1.445 1.445v-1C29 3.645 28.355 3 27.555 3H4.445z" style="fill:#fff;opacity:.2"/><path d="M3 25v1h26v-1H3z" style="fill:#fff;opacity:.1"/><path d="M5.4 13c-.775 0-1.4.625-1.4 1.4v1c0-.775.625-1.4 1.4-1.4h6.2c.775 0 1.4.625 1.4 1.4v-1c0-.775-.625-1.4-1.4-1.4H5.4zm15 0c-.775 0-1.4.625-1.4 1.4v1c0-.775.625-1.4 1.4-1.4h6.2c.775 0 1.4.625 1.4 1.4v-1c0-.775-.625-1.4-1.4-1.4h-6.2z" style="opacity:.2"/></svg>