<svg width="32" height="32" xmlns="http://www.w3.org/2000/svg"><path d="M9 24h14s7-1 7-4c0-7-9.8-10-9.8-10h-8.4S2 13 2 20c0 3 7 4 7 4z" style="opacity:.2"/><circle cx="16" cy="24" r="7" style="opacity:.2"/><circle cx="16" cy="23" r="7" style="fill:#fecd38"/><path d="M9 23h14s7-1 7-4c0-7-9.8-10-9.8-10h-8.4S2 12 2 19c0 3 7 4 7 4z" style="fill:#3ad74a"/><path d="M11.8 9S2 12 2 19c0 .093.026.178.04.268C2.69 12.79 11.8 10 11.8 10h8.4s9.11 2.791 9.76 9.268c.014-.09.04-.175.04-.268 0-7-9.8-10-9.8-10h-8.4z" style="fill:#fff;opacity:.2"/><path d="M16 3c3 0 7 7 7 20 0 5-7 5.2-7 5.2S9 28 9 23c0-13 4-20 7-20z" style="opacity:.2"/><path d="M16 2c3 0 7 7 7 20 0 5-7 5.2-7 5.2S9 27 9 22C9 9 13 2 16 2z" style="fill:#c2352a"/><ellipse cx="16" cy="19.5" rx="3" ry="4.5" style="opacity:.2"/><ellipse cx="16" cy="18.5" rx="3" ry="4.5" style="fill:#4789d2"/><path d="M16 2c-3 0-7 7-7 20 0 .062.013.115.016.176C9.184 9.715 13.066 3 16 3c2.935 0 6.816 6.715 6.984 19.176.003-.061.016-.114.016-.176 0-13-4-20-7-20z" style="fill:#fff;opacity:.2"/><path d="M16 14a3 4.5 0 0 0-3 4.5 3 4.5 0 0 0 .021.492A3 4.5 0 0 1 16 15a3 4.5 0 0 1 2.979 4.008A3 4.5 0 0 0 19 18.5a3 4.5 0 0 0-3-4.5z" style="fill:#fff;opacity:.2"/></svg>