<svg xmlns="http://www.w3.org/2000/svg" width="32" height="32" version="1"><rect style="opacity:.2" width="28" height="28" x="2" y="3" rx="14" ry="14"/><rect style="fill:#56b366" width="28" height="28" x="2" y="2" rx="14" ry="14"/><path style="opacity:.2;fill:none;stroke:#000;stroke-width:1.29999995" d="M16 24 9 14l12-3z"/><path style="fill:none;stroke:#fff;stroke-width:1.29999995" d="M16 23 9 13l12-3z"/><path style="opacity:.2" d="M21 9a2 2 0 0 0-2 2 2 2 0 0 0 2 2 2 2 0 0 0 2-2 2 2 0 0 0-2-2zM9 12a2 2 0 0 0-2 2 2 2 0 0 0 2 2 2 2 0 0 0 2-2 2 2 0 0 0-2-2zm7 10a2 2 0 0 0-2 2 2 2 0 0 0 2 2 2 2 0 0 0 2-2 2 2 0 0 0-2-2z"/><circle style="fill:#fff" cx="9" cy="13" r="2"/><circle style="fill:#fff" cx="21" cy="10" r="2"/><circle style="fill:#fff" cx="16" cy="23" r="2"/><path style="fill:#fff;opacity:.2" d="M16 2C8.244 2 2 8.244 2 16c0 .169.02.333.025.5C2.29 8.98 8.413 3 16 3s13.71 5.98 13.975 13.5c.005-.167.025-.331.025-.5 0-7.756-6.244-14-14-14z"/></svg>