<svg xmlns="http://www.w3.org/2000/svg" width="32" height="32" version="1"><rect style="opacity:.2" width="28" height="28" x="-31" y="2" rx="14" ry="14" transform="rotate(-90)"/><rect style="fill:#4f4f4f" width="28" height="28" x="-30" y="2" rx="14" ry="14" transform="rotate(-90)"/><path style="opacity:.1;fill:#fff" d="M16 6C10.477 6 6 10.477 6 16a9.999 9.999 0 0 0 .762 3.807l.056.136.004.004.004.01a.714.714 0 0 0 1.356-.312.708.708 0 0 0-.05-.245c0-.006.004-.013 0-.02a.663.663 0 0 1-.005-.013l-.04-.094A8.58 8.58 0 0 1 7.428 16 8.573 8.573 0 0 1 16 7.428a8.567 8.567 0 0 1 3.23.64c.007.003.017 0 .024.002l.006.002a.714.714 0 0 0 1.006-.65.71.71 0 0 0-.389-.629c-.013-.007-.014-.017-.03-.023l-.027-.01-.008-.004-.007-.002A9.997 9.997 0 0 0 16 6zm8.533 5.64a.715.715 0 0 0-.715.715c0 .087.021.168.05.245.001.006-.004.013 0 .02l.005.013.04.094a8.58 8.58 0 0 1 .66 3.273A8.573 8.573 0 0 1 16 24.572a8.567 8.567 0 0 1-3.23-.64c-.007-.003-.017 0-.024-.002l-.006-.002a.714.714 0 0 0-1.006.65c0 .276.16.51.389.629.013.007.014.017.03.023l.027.01.008.004.007.002A9.997 9.997 0 0 0 26 16a9.999 9.999 0 0 0-.762-3.807l-.056-.136-.004-.004-.004-.01a.714.714 0 0 0-.64-.402z"/><circle style="opacity:.2" cx="-16" cy="17" r="6" transform="scale(-1 1)"/><circle style="fill:#e34343" cx="-16" cy="16" r="6" transform="scale(-1 1)"/><path style="opacity:.1;fill:#fff" d="M16 10a6 6 0 0 1 6 6 6 6 0 0 1-.025.498A6 6 0 0 0 16 11a6 6 0 0 0-5.975 5.502A6 6 0 0 1 10 16a6 6 0 0 1 6-6z"/><circle style="fill:#fff" cx="-16" cy="16" r="2" transform="scale(-1 1)"/><path style="opacity:.2" d="M25.146 10a.399.399 0 0 1 .383.285s.318 2.817.643 4.194c.916 3.994 2.543 7.836 3.724 11.72a4.813 4.813 0 1 1-9.521.988 4.813 4.813 0 0 1 1.23-3.205c.002 0 .003-.002.004-.003-1.437-.448-2.833-.85-3.945-1.094-1.493-.327-4.553-.55-4.553-.55a.38.38 0 0 1-.181-.644l5.9-5.728.035.035.03-.096 5.962-5.789a.408.408 0 0 1 .29-.113z"/><path style="fill:#ffae11" d="m25.147 9 .04.001c.164.019.299.131.342.284 0 0 .318 2.817.643 4.193.916 3.995 2.543 7.837 3.725 11.721a4.812 4.812 0 1 1-9.522.988 4.813 4.813 0 0 1 1.234-3.209c-1.437-.448-1.533-1.69-2.645-1.934-1.493-.327-2.707-.831-2.707-.831-.298-.075.892-.097 1.11-.308l1.527-5.002 5.963-5.79a.41.41 0 0 1 .29-.113z"/><path style="fill:#c3831f" d="m18.83 14.963 8.706 8.705.008.02a3.437 3.437 0 0 1 1.081 2.5 3.437 3.437 0 0 1-3.437 3.437 3.437 3.437 0 0 1-3.438-3.437 3.437 3.437 0 0 1 1.245-2.646 7.005 7.005 0 0 0-1.389-.56l.003-.004c-1.437-.448-2.833-.85-3.945-1.093-1.493-.327-4.552-.549-4.552-.549a.38.38 0 0 1-.183-.644zm6.358 9.162a2.062 2.062 0 0 0-2.063 2.063 2.062 2.062 0 0 0 2.063 2.062 2.062 2.062 0 0 0 2.062-2.062 2.062 2.062 0 0 0-2.062-2.063z"/><path style="opacity:.1;fill:#fff" d="M16 2c7.756 0 14 6.244 14 14 0 .169-.02.333-.025.5C29.71 8.98 23.587 3 16 3S2.29 8.98 2.025 16.5C2.02 16.333 2 16.169 2 16 2 8.244 8.244 2 16 2z"/><path style="opacity:.2;fill:#fff" d="M25.146 9a.397.397 0 0 1 .383.285s.318 2.817.643 4.194c.916 3.994 2.543 7.836 3.724 11.72.069.325.104.656.104.988 0 .14-.03.27-.041.407a4.835 4.835 0 0 0-.063-.395c-1.181-3.884-2.808-7.726-3.724-11.72-.325-1.377-.643-4.194-.643-4.194a.397.397 0 0 0-.383-.285.408.408 0 0 0-.289.113l-5.962 5.79-.03.095-.035-.035-5.549 5.389-.17-.016a.38.38 0 0 1-.181-.645l5.9-5.728.035.035.03-.096 5.962-5.789a.408.408 0 0 1 .29-.113zm-4.123 14.805c.2.06.385.11.586.174l-.004.003a4.796 4.796 0 0 0-1.181 2.688c-.016-.16-.049-.317-.049-.483a4.808 4.808 0 0 1 .648-2.382z"/></svg>