<svg xmlns="http://www.w3.org/2000/svg" width="32" height="32"><circle style="opacity:.2" cx="16" cy="17" r="14"/><circle style="fill:#ff5836" cx="16" cy="16" r="14"/><path style="opacity:.2" d="M17.008 8.001a.5.5 0 0 0-.502.428l-.858 5.585a8 5.499 0 0 0-5.248 1.562 2 2 0 0 0-1.4-.574 2 2 0 0 0-2 2 2 2 0 0 0 1.078 1.773A8 5.499 0 0 0 8 19.5 8 5.499 0 0 0 16 25a8 5.499 0 0 0 8-5.499 8 5.499 0 0 0-.08-.724A2 2 0 0 0 25 17.002a2 2 0 0 0-2-2 2 2 0 0 0-1.405.576 8 5.499 0 0 0-4.94-1.556l.759-4.913 2.6.578a1.5 1.5 0 0 0 1.486 1.316 1.5 1.5 0 0 0 1.5-1.5 1.5 1.5 0 0 0-1.5-1.5 1.5 1.5 0 0 0-1.27.703l-3.119-.69A.5.5 0 0 0 17.008 8zm-3.508 9a1.5 1.5 0 0 1 1.5 1.5 1.5 1.5 0 0 1-1.5 1.5 1.5 1.5 0 0 1-1.5-1.5 1.5 1.5 0 0 1 1.5-1.5zm5 0a1.5 1.5 0 0 1 1.5 1.5 1.5 1.5 0 0 1-1.5 1.5 1.5 1.5 0 0 1-1.5-1.5 1.5 1.5 0 0 1 1.5-1.5zm.972 4.982a.502.502 0 0 1 .399.853s-.328.348-.951.635c-.624.287-1.582.554-2.932.531-1.342-.023-2.283-.288-2.9-.56-.617-.272-.946-.592-.946-.592a.5.5 0 0 1 .311-.855.5.5 0 0 1 .049-.002.5.5 0 0 1 .357.156s.143.16.635.377c.492.216 1.297.45 2.518.472 1.212.019 2-.212 2.486-.435.486-.224.629-.399.629-.399a.502.502 0 0 1 .345-.181z"/><path style="fill:#fff" d="M17.008 7a.5.5 0 0 0-.502.428l-.858 5.585a8 5.5 0 0 0-5.248 1.562 2 2 0 0 0-1.4-.574 2 2 0 0 0-2 2 2 2 0 0 0 1.078 1.773 8 5.5 0 0 0-.078.727A8 5.5 0 0 0 16 24a8 5.5 0 0 0 8-5.5 8 5.5 0 0 0-.08-.724A2 2 0 0 0 25 16.001a2 2 0 0 0-2-2 2 2 0 0 0-1.405.576 8 5.5 0 0 0-4.94-1.556l.759-4.914 2.6.578a1.5 1.5 0 0 0 1.486 1.317 1.5 1.5 0 0 0 1.5-1.5 1.5 1.5 0 0 0-1.5-1.5 1.5 1.5 0 0 0-1.27.703l-3.119-.691A.5.5 0 0 0 17.008 7zM13.5 16a1.5 1.5 0 0 1 1.5 1.5 1.5 1.5 0 0 1-1.5 1.5 1.5 1.5 0 0 1-1.5-1.5 1.5 1.5 0 0 1 1.5-1.5zm5 0a1.5 1.5 0 0 1 1.5 1.5 1.5 1.5 0 0 1-1.5 1.5 1.5 1.5 0 0 1-1.5-1.5 1.5 1.5 0 0 1 1.5-1.5zm.972 4.983a.502.502 0 0 1 .399.853s-.328.348-.951.635c-.624.287-1.582.554-2.932.531-1.342-.023-2.283-.288-2.9-.56-.617-.272-.946-.592-.946-.592a.5.5 0 0 1 .311-.856.5.5 0 0 1 .049-.002.5.5 0 0 1 .357.157s.143.16.635.377 1.297.45 2.518.472c1.212.02 2-.212 2.486-.435.486-.224.629-.399.629-.399a.502.502 0 0 1 .345-.181z"/><path style="opacity:.2;fill:#fff" d="M16 2.002a14 14 0 0 0-14 14 14 14 0 0 0 .021.586A14 14 0 0 1 16 3.002a14 14 0 0 1 13.979 13.414 14 14 0 0 0 .021-.414 14 14 0 0 0-14-14z"/></svg>