<svg xmlns="http://www.w3.org/2000/svg" width="32" height="32" version="1"><path style="fill:#e4e4e4" d="m13.432 1.5-2.713 4.748a.5.5 0 0 1-.434.252H4.863L2.291 11l2.715 4.752a.5.5 0 0 1 0 .496L2.29 21l2.572 4.5h5.422a.5.5 0 0 1 .434.252l2.715 4.748h5.132l2.715-4.748a.5.5 0 0 1 .434-.252h5.422l2.572-4.5-2.715-4.752a.5.5 0 0 1 0-.496L29.71 11l-2.572-4.5h-5.422a.5.5 0 0 1-.434-.252L18.566 1.5h-5.134zm-.29 9h5.715a.5.5 0 0 1 .434.252l2.857 5a.5.5 0 0 1 0 .496l-2.857 5a.5.5 0 0 1-.434.252h-5.714a.5.5 0 0 1-.434-.252l-2.857-5a.5.5 0 0 1 0-.496l2.857-5a.5.5 0 0 1 .434-.252z"/><path style="opacity:.2" transform="matrix(.82479 0 0 .83333 14.935 -3)" d="m15.147 12 3.464 6-3.464 6H8.22l-3.464-6 3.464-6z"/><path style="opacity:.2" transform="matrix(.82479 0 0 .83333 6.364 12)" d="m15.147 12 3.464 6-3.464 6H8.22l-3.464-6 3.464-6z"/><path style="fill:#fb8902" transform="matrix(.82479 0 0 .83333 14.935 -4)" d="m15.147 12 3.464 6-3.464 6H8.22l-3.464-6 3.464-6z"/><path style="fill:#e4e4e4" transform="matrix(.82479 0 0 .83333 6.364 11)" d="m15.147 12 3.464 6-3.464 6H8.22l-3.464-6 3.464-6z"/><path style="opacity:.2" transform="matrix(.82479 0 0 .83333 14.935 7)" d="m15.147 12 3.464 6-3.464 6H8.22l-3.464-6 3.464-6z"/><path style="fill:#e4e4e4" transform="matrix(.82479 0 0 .83333 14.935 6)" d="m15.147 12 3.464 6-3.464 6H8.22l-3.464-6 3.464-6z"/><path style="opacity:.2" transform="matrix(.82479 0 0 .83333 -2.208 7)" d="m15.147 12 3.464 6-3.464 6H8.22l-3.464-6 3.464-6z"/><path style="fill:#e4e4e4" transform="matrix(.82479 0 0 .83333 -2.208 6)" d="m15.147 12 3.464 6-3.464 6H8.22l-3.464-6 3.464-6z"/><path style="opacity:.2" transform="matrix(.82479 0 0 .83333 -2.208 -3)" d="m15.147 12 3.464 6-3.464 6H8.22l-3.464-6 3.464-6z"/><path style="fill:#e4e4e4" transform="matrix(.82479 0 0 .83333 -2.208 -4)" d="m15.147 12 3.464 6-3.464 6H8.22l-3.464-6 3.464-6z"/><path style="opacity:.2" transform="matrix(.82479 0 0 .83333 6.364 -8)" d="m15.147 12 3.464 6-3.464 6H8.22l-3.464-6 3.464-6z"/><path style="fill:#e4e4e4" transform="matrix(.82479 0 0 .83333 6.364 -9)" d="m15.147 12 3.464 6-3.464 6H8.22l-3.464-6 3.464-6z"/><path style="opacity:.2;fill:#fff" d="m13.143 1-2.858 5 .285.5L13.143 2h5.714l2.573 4.5.285-.5-2.858-5h-5.714z"/><path style="opacity:.2;fill:#fff" d="m21.715 6-.285.5.285.5h5.713L30 11.5l.285-.5-2.857-5h-5.713zM4.572 6l-2.857 5 .285.5L4.572 7h5.713l.285-.5-.285-.5H4.572zM21.715 16l-2.858 5 .286.5 2.572-4.5h5.713L30 21.5l.285-.5-2.857-5h-5.713z"/><path style="opacity:.2;fill:#fff" d="m13.143 21-.286.5.286.5h5.714l.286-.5-.286-.5h-5.714z"/></svg>