<svg xmlns="http://www.w3.org/2000/svg" width="32" height="32" version="1"><rect style="opacity:.2" width="29" height="29" x="-31" y="-31" rx="14.5" ry="14.5" transform="matrix(0 -1 -1 0 0 0)"/><rect style="fill:#3c5771" width="29" height="29" x="-30" y="-31" rx="14.5" ry="14.5" transform="matrix(0 -1 -1 0 0 0)"/><path style="opacity:.2" d="m25.193 18.83-8.115-.622.776-2.898zM16.5 4A1.5 1.5 0 0 0 15 5.5 1.5 1.5 0 0 0 16.5 7 1.5 1.5 0 0 0 18 5.5 1.5 1.5 0 0 0 16.5 4zm-6.035 2a1.5 1.5 0 0 0-.715.199 1.5 1.5 0 0 0-.549 2.05 1.5 1.5 0 0 0 2.049.55 1.5 1.5 0 0 0 .549-2.05A1.5 1.5 0 0 0 10.465 6zm12.07 0a1.5 1.5 0 0 0-1.334.75 1.5 1.5 0 0 0 .549 2.048 1.5 1.5 0 0 0 2.049-.549 1.5 1.5 0 0 0-.549-2.05 1.5 1.5 0 0 0-.715-.2zM6.537 10A1.5 1.5 0 0 0 6.43 10a1.5 1.5 0 0 0-1.229.748 1.5 1.5 0 0 0 .551 2.05 1.5 1.5 0 0 0 2.049-.55 1.5 1.5 0 0 0-.549-2.048 1.5 1.5 0 0 0-.715-.202zm19.926 0a1.5 1.5 0 0 0-.715.2 1.5 1.5 0 0 0-.549 2.05 1.5 1.5 0 0 0 2.049.548 1.5 1.5 0 0 0 .55-2.049 1.5 1.5 0 0 0-1.228-.748 1.5 1.5 0 0 0-.107-.002zM5.5 16A1.5 1.5 0 0 0 4 17.5 1.5 1.5 0 0 0 5.5 19 1.5 1.5 0 0 0 7 17.5 1.5 1.5 0 0 0 5.5 16zm22 0a1.5 1.5 0 0 0-1.5 1.5 1.5 1.5 0 0 0 1.5 1.5 1.5 1.5 0 0 0 1.5-1.5 1.5 1.5 0 0 0-1.5-1.5zM7.465 21a1.5 1.5 0 0 0-.713.2 1.5 1.5 0 0 0-.55 2.05 1.5 1.5 0 0 0 2.05.548 1.5 1.5 0 0 0 .549-2.049A1.5 1.5 0 0 0 7.465 21zm17.963 0a1.5 1.5 0 0 0-1.229.75 1.5 1.5 0 0 0 .549 2.048 1.5 1.5 0 0 0 2.05-.549 1.5 1.5 0 0 0-.55-2.048 1.5 1.5 0 0 0-.713-.202 1.5 1.5 0 0 0-.107 0z"/><path style="fill:#64dedc" d="M16.5 3A1.5 1.5 0 0 0 15 4.5 1.5 1.5 0 0 0 16.5 6 1.5 1.5 0 0 0 18 4.5 1.5 1.5 0 0 0 16.5 3zm-6.035 2a1.5 1.5 0 0 0-.715.2 1.5 1.5 0 0 0-.549 2.05 1.5 1.5 0 0 0 2.049.549 1.5 1.5 0 0 0 .549-2.049A1.5 1.5 0 0 0 10.465 5zm12.07 0a1.5 1.5 0 0 0-1.334.75 1.5 1.5 0 0 0 .549 2.049 1.5 1.5 0 0 0 2.049-.549 1.5 1.5 0 0 0-.549-2.05 1.5 1.5 0 0 0-.715-.2zM6.537 9a1.5 1.5 0 0 0-.107.002A1.5 1.5 0 0 0 5.2 9.75a1.5 1.5 0 0 0 .551 2.049 1.5 1.5 0 0 0 2.049-.549 1.5 1.5 0 0 0-.549-2.049A1.5 1.5 0 0 0 6.537 9zm19.926 0a1.5 1.5 0 0 0-.715.201 1.5 1.5 0 0 0-.549 2.049 1.5 1.5 0 0 0 2.049.549 1.5 1.5 0 0 0 .55-2.049 1.5 1.5 0 0 0-1.228-.748A1.5 1.5 0 0 0 26.463 9zM5.5 15A1.5 1.5 0 0 0 4 16.5 1.5 1.5 0 0 0 5.5 18 1.5 1.5 0 0 0 7 16.5 1.5 1.5 0 0 0 5.5 15zm22 0a1.5 1.5 0 0 0-1.5 1.5 1.5 1.5 0 0 0 1.5 1.5 1.5 1.5 0 0 0 1.5-1.5 1.5 1.5 0 0 0-1.5-1.5zM7.465 20a1.5 1.5 0 0 0-.713.201 1.5 1.5 0 0 0-.55 2.049 1.5 1.5 0 0 0 2.05.549 1.5 1.5 0 0 0 .549-2.049A1.5 1.5 0 0 0 7.465 20zm17.963 0a1.5 1.5 0 0 0-1.229.75 1.5 1.5 0 0 0 .549 2.049 1.5 1.5 0 0 0 2.05-.549 1.5 1.5 0 0 0-.55-2.049 1.5 1.5 0 0 0-.713-.201 1.5 1.5 0 0 0-.107 0z"/><path style="fill:#f0f2f7" d="m25.193 17.83-8.115-.622.776-2.898z"/><circle style="opacity:.2" cx="11.668" cy="-20.208" r="2.5" transform="rotate(105)"/><circle style="fill:#24303e" cx="10.701" cy="-19.949" r="2.5" transform="rotate(105)"/><path style="fill:#fff;opacity:.1" d="M16.5 1C8.467 1 2 7.467 2 15.5c0 .169.02.333.025.5C2.29 8.202 8.635 2 16.5 2c7.864 0 14.21 6.202 14.475 14 .005-.167.025-.331.025-.5C31 7.467 24.533 1 16.5 1z"/></svg>