<svg xmlns="http://www.w3.org/2000/svg" width="32" height="32"><path style="opacity:.2" d="m3.1 4.93-.107 3.015 1.184.436-1.22.546 1.15.575-1.167.766 1.173.134-1.076.867.018.498c-1.325 1.18-1.797 2.656-2.003 4.278-.632 5.061 4.61 10.267 11.707 11.627 7.098 1.36 13.363-1.64 13.994-6.7.028-.228.043-.458.047-.689 1.51-1.85 3.067-2.967 4.2-5.043-2.244-.256-4.206-.23-6.1-.136 1.056-.952 2.318-2.697 3.373-4.038-1.47.742-2.881 1.117-3.768 1.423.972-1.198 1.858-2.271 2.404-3.469l-4.007 2.096 1.28-2.778c-1.996 1.3-3.357 1.837-4.767 2.434a18.509 18.509 0 0 0-4.37-1.428c-2.019-.387-4.256-.429-6.137-.123C6.154 6.477 4.784 5.906 3.1 4.929z"/><path style="fill:#3f3f3f" d="m3.1 3.93-.107 3.015 1.184.436-1.22.546 1.15.575-1.167.766 1.173.134-1.076.867.018.498c-1.325 1.18-1.797 2.656-2.003 4.278-.632 5.061 4.61 10.267 11.707 11.627 7.098 1.36 13.363-1.64 13.994-6.7.028-.228.043-.458.047-.689 1.51-1.85 3.067-2.967 4.2-5.043-2.244-.256-4.206-.23-6.1-.136 1.056-.952 2.318-2.697 3.373-4.038-1.47.742-2.881 1.117-3.768 1.423.972-1.198 1.858-2.271 2.404-3.469l-4.007 2.096 1.28-2.778c-1.996 1.3-3.357 1.837-4.767 2.434a18.509 18.509 0 0 0-4.37-1.428c-2.019-.387-4.256-.429-6.137-.123C6.154 5.477 4.784 4.906 3.1 3.929z"/><path style="opacity:.2" d="M14.676 9.98a.34.34 0 0 0-.315.295l-.254 1.67a.342.342 0 0 0 .676.102l.252-1.67a.34.34 0 0 0-.36-.397zm1.605 1.797a.34.34 0 0 0-.283.145l-1.103 1.513a.341.341 0 1 0 .55.403l1.104-1.514a.34.34 0 0 0-.268-.547zm-3.66.317a.34.34 0 0 0-.28.494l.852 1.734a.34.34 0 1 0 .612-.3l-.852-1.735a.34.34 0 0 0-.332-.193zm-5.764 8.673a.34.34 0 0 0-.06.674l3.09.756a.34.34 0 1 0 .162-.662l-3.09-.756a.34.34 0 0 0-.102-.012zm4.76.096a.34.34 0 0 0-.314.4c.121.68.23.96.345 1.415-.476.626-.939 1.338-1.441 1.808a.341.341 0 0 0 .467.498c.41-.384.781-.997 1.176-1.476.252.807.494 1.368.716 1.795a.34.34 0 1 0 .604-.315c-.23-.441-.471-1.515-.701-2.258.236-.333.497-.526.724-.91a.34.34 0 0 0-.18-.496l-1.261-.441a.34.34 0 0 0-.135-.02zm.545.885.176.062c-.036.057-.075.086-.111.141-.023-.096-.042-.098-.065-.203zm2.006.764a.34.34 0 0 0-.041.677l4.035.649a.341.341 0 0 0 .11-.674l-4.038-.647a.34.34 0 0 0-.066-.006zm-7.352.418a.341.341 0 0 0 .026.681l2.744.031a.34.34 0 1 0 .008-.681L6.85 22.93a.34.34 0 0 0-.034 0zm7.127.775a.34.34 0 0 0-.13.65l2.533 1.227a.34.34 0 1 0 .297-.613l-2.534-1.227a.34.34 0 0 0-.166-.037zM6.889 12.007C3.459 11.85 2 14.763 2 14.763s.193 3.823 4.705 5.004C11.217 20.947 13 17.265 13 17.265s.056-3.664-4.52-4.985a6.865 6.865 0 0 0-1.591-.273zm12.445 3C15.592 14.85 14 17.763 14 17.763s.21 3.823 5.133 5.004C24.055 23.947 26 20.265 26 20.265s.061-3.664-4.93-4.985a8.11 8.11 0 0 0-1.736-.273z"/><path style="fill:#ffd357" d="M14 16.763s2.079-3.805 7.07-2.484c4.99 1.32 4.93 4.986 4.93 4.986s-1.945 3.682-6.867 2.502C14.211 20.586 14 16.763 14 16.763z"/><path style="fill:#9f3820" d="M22.949 14.999A4.5 4.364 0 0 0 20 19.09a4.5 4.364 0 0 0 1.143 2.898C24.587 21.916 26 19.264 26 19.264s.032-2.662-3.051-4.265z"/><path style="fill:none;stroke:#a3cbcb;stroke-width:.68181813;stroke-linecap:round" d="m9.968 20.866-3.09-.756M9.59 22.302l-2.744-.032M14.181 21.853l4.036.648M13.96 23.048l2.533 1.227"/><path style="fill:none;stroke:#a3cbcb;stroke-width:.68181813;stroke-linecap:round;stroke-linejoin:round" d="M12.869 24.146c-.385-.737-.764-1.332-1.23-3.942l1.261.442a13.726 13.726 0 0 1-2.46 3.09"/><path style="fill:none;stroke:#356373;stroke-width:.68181813;stroke-linecap:round" d="m13.5 13.172-.852-1.734M14.445 10.997l.253-1.672M15.17 12.636l1.104-1.513"/><path style="fill:#ffd357" d="M2 13.763s1.906-3.805 6.48-2.484c4.576 1.32 4.52 4.986 4.52 4.986s-1.783 3.682-6.294 2.502C2.194 17.586 2 13.763 2 13.763z"/><path style="fill:#9f3820" d="M10.203 11.999A4.125 4.364 0 0 0 7.5 16.09a4.125 4.364 0 0 0 1.047 2.898C11.705 18.916 13 16.264 13 16.264s.03-2.662-2.797-4.265z"/><path style="opacity:.2;fill:#fff" d="M6.889 11.006C3.459 10.849 2 13.762 2 13.762s.027.312.146.765c.338-.57 1.759-2.657 4.743-2.521.49.022 1.02.108 1.591.273 3.235.934 4.14 3.02 4.4 4.174.027-.048.12-.19.12-.19s.056-3.663-4.52-4.984a6.865 6.865 0 0 0-1.591-.273zm12.445 3C15.592 13.849 14 16.762 14 16.762s.028.312.158.765c.368-.57 1.92-2.657 5.176-2.521a8.11 8.11 0 0 1 1.736.273c3.53.934 4.516 3.02 4.801 4.174.029-.048.129-.19.129-.19s.061-3.663-4.93-4.984a8.11 8.11 0 0 0-1.736-.273z"/><path style="opacity:.1;fill:#fff" d="m3.1 3.93-.108 3.015.035.014.073-2.03c1.684.977 3.054 1.547 5.808 4.292 1.882-.306 4.118-.264 6.137.123 1.516.294 2.995.777 4.37 1.427 1.247-.527 2.482-1.039 4.126-2.042l.64-1.391c-1.996 1.3-3.357 1.837-4.767 2.433a18.502 18.502 0 0 0-4.37-1.427c-2.018-.387-4.254-.43-6.136-.123C6.154 5.476 4.784 4.906 3.1 3.93zm-.106 3.982-.037.016.035.017.002-.033zm-.002.033 1.02.51.166-.074-1.186-.436zm23.918.075-3.4 1.779-.608 1.316 3.16-1.652c.326-.472.622-.947.848-1.443zM3.24 9.07l-.3.198.904.103-.604-.3zm.793.397-.553.445.625-.41-.072-.035zm24.24.6c-1.002.506-1.909.815-2.709 1.074-.336.442-.68.882-1.058 1.347.64-.22 1.558-.481 2.57-.886.408-.524.823-1.06 1.197-1.536zm-25.236.212.018.489c-1.326 1.18-1.797 2.655-2.004 4.277a6.76 6.76 0 0 0-.018 1.328c.008-.11.004-.219.018-.328.207-1.622.678-3.098 2.004-4.277l-.018-.498 1.076-.868-1.076-.123zm24.781 3.762c-.662-.01-1.3.004-1.931.025a12.12 12.12 0 0 1-.987 1.038c1.721-.086 3.51-.104 5.504.084.208-.298.41-.606.596-.948a31.733 31.733 0 0 0-3.182-.199z"/></svg>