<svg xmlns="http://www.w3.org/2000/svg" height="32" width="32"><rect style="opacity:.2" rx="1" ry="1" height="28" width="28" y="3" x="2"/><rect style="fill:#811623" rx="1" ry="1" height="28" width="28" y="2" x="2"/><path style="opacity:.2" d="M3 3c-.554 0-1 .446-1 1v14.637L11 17l3 3-4.23 11H29a.98.98 0 0 0 .775-.395L19 19l2-5 9-3.273V4c0-.554-.446-1-1-1h-7.8L18 11l-5 1-9.75-9z"/><path style="fill:#581118" d="M3 2c-.554 0-1 .446-1 1v14.637L11 16l3 3-4.23 11H29a.98.98 0 0 0 .775-.395L19 18l2-5 9-3.273V3c0-.554-.446-1-1-1h-7.8L18 10l-5 1-9.75-9H3z"/><path style="opacity:.2" d="m21.43 3-1.2 3 7 6-4 12-12 3-6-8 5-9.764L7.857 7 2.23 19 10 31l16.23-4 4-10v-6.666zm-3.2 8-5 1-2 5 3 3 5-1 2-5zm0 1 2 2-2 4-4 1-2-2 2-4z"/><path style="fill:#d12b43" d="M21.2 2 20 5l7 6-4 12-12 3-6-8 5-9.764L7.627 6 2 18l7.77 12L26 26l4-10V9.334L21.2 2zM18 10l-5 1-2 5 3 3 5-1 2-5-3-3zm0 1 2 2-2 4-4 1-2-2 2-4 4-1z"/><path style="opacity:.1;fill:#fff" d="M3 2c-.554 0-1 .446-1 1v1c0-.554.446-1 1-1h26c.554 0 1 .446 1 1V3c0-.554-.446-1-1-1H3z"/></svg>