<svg xmlns="http://www.w3.org/2000/svg" width="32" height="32" version="1"><rect style="opacity:.2" width="28" height="28" x="2" y="3" rx="1.4" ry="1.4"/><rect style="fill:#4f4f4f" width="28" height="28" x="2" y="2" rx="1.4" ry="1.4"/><path style="opacity:.2;fill-rule:evenodd" d="M9.178 8.008a.438.438 0 0 0-.283.181L6.08 12.21a.441.441 0 0 0 .107.613l5.961 4.131 4.024-2.836a.437.437 0 0 1 .285-.078l.002-.002h1.498l-8.45-5.955a.442.442 0 0 0-.33-.074zm16.693 8.681z"/><path style="fill:#9adede;fill-rule:evenodd" d="M9.178 7.009a.438.438 0 0 0-.283.181L6.08 11.21a.44.44 0 0 0 .107.611l6.519 4.519 3.465-2.408a.436.436 0 0 1 .285-.078l.003-.003h6.65c.119 0 .227.048.307.126.01.009.1.095.233.238v-.004l2.174 2.147.048-.046a.44.44 0 0 0 0-.622l-2.118-2.079c-.184-.2-.317-.32-.329-.332a.44.44 0 0 0-.315-.13h-4.994L9.507 7.08a.439.439 0 0 0-.329-.072z"/><path style="opacity:.2;fill-rule:evenodd" d="m16.456 14.04.002-.003h6.65c.12 0 .228.048.308.125.01.01.1.095.232.239v-.004l2.223 2.293a.443.443 0 0 1 0 .622l-2.102 2.177c-.192.21-.334.337-.346.35a.438.438 0 0 1-.314.132h-4.997l-8.605 5.95a.44.44 0 0 1-.612-.108l-2.815-4.02a.47.47 0 0 1 .107-.637l9.985-7.038a.435.435 0 0 1 .284-.078z"/><path style="fill:#00c8c6;fill-rule:evenodd" d="m16.456 13.04.002-.003h6.65c.12 0 .228.048.308.125.01.01.1.095.232.239v-.004l2.223 2.293a.443.443 0 0 1 0 .622l-2.102 2.177c-.192.21-.334.337-.346.35a.438.438 0 0 1-.314.132h-4.997l-8.605 5.95a.44.44 0 0 1-.612-.108l-2.815-4.02a.47.47 0 0 1 .107-.637l9.985-7.038a.435.435 0 0 1 .284-.078z"/><path style="fill:#fff;opacity:.1" d="M3.4 2C2.625 2 2 2.625 2 3.4v1C2 3.625 2.625 3 3.4 3h25.2c.775 0 1.4.625 1.4 1.4v-1c0-.775-.625-1.4-1.4-1.4H3.4z"/></svg>