<svg xmlns="http://www.w3.org/2000/svg" width="32" height="32"><path style="opacity:.2" d="M16 3A14 14 0 0 0 2 17a14 14 0 0 0 14 14 14 14 0 0 0 14-14A14 14 0 0 0 16 3z"/><path style="fill:#48aeff" d="M16 2A14 14 0 0 0 2 16a14 14 0 0 0 14 14 14 14 0 0 0 14-14A14 14 0 0 0 16 2z"/><path style="opacity:.2" d="M11.547 10a.998.743 0 0 0-.1.002.998.743 0 0 0-.81.37l-3.502 4.513A.998.743 0 0 0 7.998 16H10v6.555c0 .8.645 1.445 1.445 1.445h.11c.8 0 1.445-.645 1.445-1.445V16h2.002a.998.743 0 0 0 .863-1.115l-3.502-4.514a.998.743 0 0 0-.816-.371zm8.898 0c-.8 0-1.445.645-1.445 1.445V18h-2.002a.998.743 0 0 0-.863 1.115l3.502 4.514a.998.743 0 0 0 .81.369.998.743 0 0 0 .916-.37l3.502-4.513A.998.743 0 0 0 24.002 18H22v-6.555c0-.8-.645-1.445-1.445-1.445z"/><rect style="fill:#fff" width="3" height="13" x="10" y="10" ry="1.444"/><path style="fill:#fff" d="M11.446 9.001a.998.743 0 0 0-.81.37l-3.502 4.515A.998.743 0 0 0 7.998 15h7.004a.998.743 0 0 0 .864-1.114L12.364 9.37a.998.743 0 0 0-.918-.37z"/><g transform="matrix(1 0 0 -1 9 32)"><rect style="fill:#fff" width="3" height="13" x="10" y="10" ry="1.444"/><path style="fill:#fff" d="M11.446 9.001a.998.743 0 0 0-.81.37l-3.502 4.515A.998.743 0 0 0 7.998 15h7.004a.998.743 0 0 0 .864-1.114L12.364 9.37a.998.743 0 0 0-.918-.37z"/></g><path style="fill:#fff;opacity:.2" d="M16 2A14 14 0 0 0 2 16a14 14 0 0 0 .021.414A14 14 0 0 1 16 3a14 14 0 0 1 13.979 13.586A14 14 0 0 0 30 16 14 14 0 0 0 16 2z"/></svg>