<svg xmlns="http://www.w3.org/2000/svg" width="32" height="32"><circle style="opacity:.2" cx="16" cy="17" r="14"/><circle style="fill:#4e4540" cx="16" cy="16" r="14"/><path style="opacity:.2" d="m22.324 4.525-5.539 10.51a6.012 6.012 0 0 0-.181.342l-.03.055.002.002a6.01 6.01 0 0 0 .883 6.494 6.007 6.007 0 0 0 6.936 1.572 6.01 6.01 0 0 0 3.57-6.152 6.012 6.012 0 0 0-4.813-5.24.992.992 0 0 0-.197-.02c-1.218-.004-1.384 1.76-.187 1.984a3.993 3.993 0 0 1 3.207 3.493c.19 1.744-.77 3.4-2.38 4.101a3.994 3.994 0 0 1-4.624-1.049 3.993 3.993 0 0 1-.375-4.726c.038-.058.072-.12.097-.184l5.352-10.154a14 14 0 0 0-1.72-1.028zM4 12a1 1 0 0 0-.832 1.555l2 3a1 1 0 1 0 1.664-1.11L5.869 14h6.453L5.631 26.383a14 14 0 0 0 1.494 1.435l7.756-14.343A1 1 0 0 0 14 12zm13.828 14c-.458 0-.828.442-.828.99v.02c0 .548.37.99.828.99h6.828a14 14 0 0 0 2.067-2z"/><path style="fill:#fff" d="m22.324 3.525-5.539 10.51a6.012 6.012 0 0 0-.181.342l-.03.055.002.002a6.01 6.01 0 0 0 .883 6.494 6.007 6.007 0 0 0 6.936 1.572 6.01 6.01 0 0 0 3.57-6.152 6.012 6.012 0 0 0-4.813-5.24.992.992 0 0 0-.197-.02c-1.218-.004-1.384 1.76-.187 1.984a3.993 3.993 0 0 1 3.207 3.492c.19 1.745-.77 3.4-2.38 4.102a3.994 3.994 0 0 1-4.624-1.049 3.993 3.993 0 0 1-.375-4.726c.038-.058.072-.12.097-.184l5.352-10.154a14 14 0 0 0-1.72-1.028zM4 11a1 1 0 0 0-.832 1.555l2 3a1 1 0 1 0 1.664-1.11L5.869 13h6.453L5.631 25.383a14 14 0 0 0 1.494 1.435l7.756-14.343A1 1 0 0 0 14 11H4z"/><path style="fill:#faa41a" d="M17.828 25c-.458 0-.828.442-.828.99v.02c0 .548.37.99.828.99h6.828a14 14 0 0 0 2.067-2h-8.895z"/><path style="opacity:.1;fill:#fff" d="M16 2A14 14 0 0 0 2 16a14 14 0 0 0 .021.586A14 14 0 0 1 16 3a14 14 0 0 1 13.979 13.414A14 14 0 0 0 30 16 14 14 0 0 0 16 2z"/><path style="fill:#fff;opacity:.2" d="M17.828 25c-.458 0-.828.442-.828.99v.02c0 .182.052.344.123.49.143-.294.4-.5.705-.5h7.961a14 14 0 0 0 .934-1h-8.895z"/></svg>