<svg width="32" height="32" xmlns="http://www.w3.org/2000/svg"><circle cx="16" cy="17" r="14" style="opacity:.2"/><circle cx="16" cy="16" r="14" style="fill:#55458f"/><path d="M16 2A14 14 0 0 0 2 16a14 14 0 0 0 .022.586A14 14 0 0 1 16 3a14 14 0 0 1 13.979 13.414A14 14 0 0 0 30 16 14 14 0 0 0 16 2z" style="fill:#fff;opacity:.1"/><path d="M16 7c-3.833 0-6.214 2.01-7.467 3.959-1.252 1.948-1.523 3.9-1.523 3.9A1 1 0 0 0 7 15v7c0 2.333 1.293 3.707 2.293 4.707.736.736 1.73 1.022 2.832 1.16C13.227 28.005 14.5 28 16 28s2.773.005 3.875-.133c1.102-.138 2.096-.424 2.832-1.16 1-1 2.293-2.374 2.293-4.707v-7c0-.047-.003-.094-.01-.14 0 0-.27-1.953-1.523-3.901C22.214 9.011 19.833 7 16 7z" style="opacity:.2"/><path d="M16 6c-3.833 0-6.214 2.01-7.467 3.959-1.252 1.948-1.523 3.9-1.523 3.9A1 1 0 0 0 7 14v7c0 2.333 1.293 3.707 2.293 4.707.736.736 1.73 1.022 2.832 1.16C13.227 27.005 14.5 27 16 27s2.773.005 3.875-.133c1.102-.138 2.096-.424 2.832-1.16 1-1 2.293-2.374 2.293-4.707v-7c0-.047-.003-.094-.01-.14 0 0-.27-1.953-1.523-3.901C22.214 8.011 19.833 6 16 6z" style="fill:#efefef"/><path d="M7 17s0-3 2-3c3 0 3 2 7 2s4-2 7-2c2 0 2 3 2 3v4s-2 3-9 3-9-3-9-3z" style="opacity:.1"/><path d="M7 16s0-3 2-3c3 0 3 2 7 2s4-2 7-2c2 0 2 3 2 3v4s-2 3-9 3-9-3-9-3z" style="fill:#4f4f4f"/><path d="M22 13.086c-1.243.231-1.91.873-3 1.352v8.347c1.21-.18 2.2-.455 3-.77v-8.93z" style="fill:#fff;opacity:.2"/><path d="M16 6c-3.833 0-6.214 2.01-7.467 3.959-1.252 1.948-1.523 3.9-1.523 3.9A1 1 0 0 0 7 14v1a1 1 0 0 1 .01-.14s.27-1.953 1.523-3.901C9.786 9.011 12.167 7 16 7s6.214 2.01 7.467 3.959c1.252 1.948 1.523 3.9 1.523 3.9.007.047.01.094.01.141v-1c0-.047-.003-.094-.01-.14 0 0-.27-1.953-1.523-3.901C22.214 8.011 19.833 6 16 6z" style="fill:#fff;opacity:.2"/></svg>