<svg xmlns="http://www.w3.org/2000/svg" width="32" height="32" version="1"><path style="opacity:.2" d="M10.286 6.086C6.952 7.259 6 7 6 8.086v14.343A8.553 8.553 0 0 0 14.571 31h2.858A8.553 8.553 0 0 0 26 22.429V8.086c0-1.086-.238-.827-3.571-2l-2.429 2v15.771C20 26.224 18.367 28 16 28s-3.882-1.779-4-4.143V8.086z"/><path style="fill:#ff9c00" d="M10.286 5.086C6.952 6.259 6 6 6 7.086v14.343A8.553 8.553 0 0 0 14.571 30h2.858A8.553 8.553 0 0 0 26 21.429V7.086c0-1.086-.238-.827-3.571-2l-2.429 2v15.771C20 25.224 18.367 27 16 27s-3.882-1.779-4-4.143V7.086z"/><path style="opacity:.2" d="M9.036 3a.748.506 0 0 0-.075.001.748.506 0 0 0-.609.252L4.1 8.24a.748.506 0 0 0 .648.76h8.504a.748.506 0 0 0 .648-.76L9.648 3.253A.748.506 0 0 0 9.036 3z"/><path style="fill:#ffe334" d="M9.036 2a.748.506 0 0 0-.075.001.748.506 0 0 0-.609.252L4.1 7.24a.748.506 0 0 0 .648.76h8.504a.748.506 0 0 0 .648-.76L9.648 2.253A.748.506 0 0 0 9.036 2z"/><path style="opacity:.2" d="M23.036 3a.748.506 0 0 0-.075.001.748.506 0 0 0-.609.252L18.1 8.24a.748.506 0 0 0 .648.76h8.504a.748.506 0 0 0 .648-.76l-4.252-4.987A.748.506 0 0 0 23.036 3z"/><path style="fill:#ffe334" d="M23.036 2a.748.506 0 0 0-.075.001.748.506 0 0 0-.609.252L18.1 7.24a.748.506 0 0 0 .648.76h8.504a.748.506 0 0 0 .648-.76l-4.252-4.987A.748.506 0 0 0 23.036 2z"/><path style="opacity:.2;fill:#fff" d="M12 22.857v1C12.118 26.221 13.633 28 16 28s4-1.776 4-4.143v-1C20 25.224 18.367 27 16 27s-3.882-1.779-4-4.143zM9.035 2a.748.506 0 0 0-.074.002.748.506 0 0 0-.61.252L4.1 7.24a.748.506 0 0 0 .265.688l3.987-4.674a.748.506 0 0 1 .609-.252A.748.506 0 0 1 9.035 3a.748.506 0 0 1 .613.254l3.987 4.674a.748.506 0 0 0 .265-.688L9.648 2.254A.748.506 0 0 0 9.035 2zM23.035 2a.748.506 0 0 0-.074.002.748.506 0 0 0-.61.252L18.1 7.24a.748.506 0 0 0 .265.688l3.987-4.674a.748.506 0 0 1 .609-.252.748.506 0 0 1 .074-.002.748.506 0 0 1 .613.254l3.987 4.674a.748.506 0 0 0 .265-.688l-4.252-4.986A.748.506 0 0 0 23.035 2z"/></svg>