<svg xmlns="http://www.w3.org/2000/svg" width="32" height="32" version="1"><rect fill="#407ec2" width="28" height="28" x="2" y="2" rx="1.5" ry="1.5"/><path fill="#fff" opacity=".1" d="M3.5 2C2.669 2 2 2.669 2 3.5v1C2 3.669 2.669 3 3.5 3h25c.831 0 1.5.669 1.5 1.5v-1c0-.831-.669-1.5-1.5-1.5h-25z"/><path opacity=".2" d="M2 28.5v1c0 .831.669 1.5 1.5 1.5h25c.831 0 1.5-.669 1.5-1.5v-1c0 .831-.669 1.5-1.5 1.5h-25c-.831 0-1.5-.669-1.5-1.5zM10 10v1h12v-1h-8z"/><path fill="#f7870d" d="M20.5 26c.831 0 1.5-.669 1.5-1.5v-13c0-.831-.669-1.5-1.5-1.5h-13c-.831 0-1.5.669-1.5 1.5v13c0 .831.669 1.5 1.5 1.5zM18 22h-8v-8h8z"/><path style="fill:#ffe270" d="M24.5 22c.831 0 1.5-.669 1.5-1.5v-13c0-.831-.669-1.5-1.5-1.5h-13c-.831 0-1.5.669-1.5 1.5V10h12v8h-8v-4h-4v6.5c0 .831.669 1.5 1.5 1.5z"/><path opacity=".2" d="M10 14v1h8v-1h-8zM6 24.5v1c0 .831.669 1.5 1.5 1.5h13c.831 0 1.5-.669 1.5-1.5v-1c0 .831-.669 1.5-1.5 1.5h-13c-.831 0-1.5-.669-1.5-1.5zM10 20.5v1c0 .831.669 1.5 1.5 1.5h13c.831 0 1.5-.669 1.5-1.5v-1c0 .831-.669 1.5-1.5 1.5h-13c-.831 0-1.5-.669-1.5-1.5z"/></svg>