<svg xmlns="http://www.w3.org/2000/svg" width="32" height="32" version="1"><path style="opacity:.2;fill:#0d0d08" d="M29 19.053c0 3.744-1.47 7.145-3.863 9.657-2.55 2.676-6.789.004-10.777.004-4.05 0-7.057 2.62-9.614-.128A13.95 13.95 0 0 1 1 19.053c0-7.732 6.268-14 14-14s14 6.268 14 14z"/><path style="fill:#0091cf" d="M29 18.053c0 3.744-1.47 7.145-3.863 9.657-2.55 2.676-6.789.004-10.777.004-4.05 0-7.057 2.62-9.614-.128A13.95 13.95 0 0 1 1 18.053c0-7.732 6.268-14 14-14s14 6.268 14 14z"/><path style="opacity:.1;fill:#fff" d="M15 4.053c-7.732 0-14 6.268-14 14 0 .172.02.34.025.51.26-7.504 6.409-13.51 13.975-13.51 7.565 0 13.712 6.004 13.975 13.506.006-.17.025-.336.025-.506 0-7.732-6.268-14-14-14z"/><path style="opacity:.2;fill:#0d0d08" d="m21 3-3 3h-4v4l-3 3 3 3v4h4l3 3 3-3h4v-4l3-3-3-3V6h-4z"/><path style="fill:#ff8a47" d="m21 2-3 3h-4v4l-3 3 3 3v4h4l3 3 3-3h4v-4l3-3-3-3V5h-4l-3-3z"/><circle style="opacity:.2;fill:#0d0d08" cx="21" cy="13" r="6"/><circle style="fill:#ffcc42" cx="21" cy="12" r="6"/><circle style="opacity:.2" cx="15.286" cy="22.143" r="5.714"/><path style="opacity:.2" d="M15 16a6 6 0 0 0-6 6 6 6 0 0 0 .01.268A4.5 4.5 0 0 0 7.5 22 4.5 4.5 0 0 0 3 26.5 4.5 4.5 0 0 0 7.5 31a4.5 4.5 0 0 0 .5-.033V31h15v-.033a4.5 4.5 0 0 0 4-4.467 4.5 4.5 0 0 0-4.5-4.5 4.5 4.5 0 0 0-1.514.268A6 6 0 0 0 21 22a6 6 0 0 0-6-6z"/><circle style="fill:#fff" cx="7.5" cy="25.5" r="4.5"/><circle style="fill:#fff" cx="15" cy="21" r="6"/><circle style="fill:#fff" cx="22.5" cy="25.5" r="4.5"/><path style="fill:#fff" d="M8 24h15v6H8z"/><path style="opacity:.2;fill:#fff" d="m21 2-3 3h-4v1h4l3-3 3 3h4V5h-4l-3-3zm-7 7-3 3 .5.5L14 10V9zm14 0v1l2.5 2.5.5-.5-3-3zM21 6a6 6 0 0 0-6 6 6 6 0 0 0 .025.498A6 6 0 0 1 21 7a6 6 0 0 1 5.975 5.502A6 6 0 0 0 27 12a6 6 0 0 0-6-6z"/></svg>