<svg xmlns="http://www.w3.org/2000/svg" width="32" height="32" version="1"><rect style="opacity:.2" width="28" height="28" x="2" y="3" rx="14" ry="14"/><rect style="fill:#228cc9" width="28" height="28" x="2" y="2" rx="14" ry="14"/><path style="opacity:.2" d="M24.025 8.98a2 2 0 0 0-1.392.561L16 15.761 9.367 9.54a2 2 0 1 0-2.734 2.918L14 19.367V26a2 2 0 0 0 .008.2 2 2 0 0 0 .138.582 2 2 0 0 0 .305.513 2 2 0 0 0 .445.4 2 2 0 0 0 .172.104 2 2 0 0 0 .37.149 2 2 0 0 0 .392.074 2 2 0 0 0 .598-.04 2 2 0 0 0 .556-.212 2 2 0 0 0 .17-.108 2 2 0 0 0 .157-.123 2 2 0 0 0 .388-.455 2 2 0 0 0 .098-.176 2 2 0 0 0 .078-.183 2 2 0 0 0 .06-.19A2 2 0 0 0 18 26v-6.633l7.367-6.908a2 2 0 0 0-1.342-3.478z"/><path style="fill:none;stroke:#80fe9b;stroke-width:4;stroke-linecap:round;stroke-linejoin:round" d="m24 10-8 7.5V25M8 10l8 7.5V25"/><path style="fill:#fff;opacity:.2" d="M16 2C8.244 2 2 8.244 2 16c0 .169.02.333.025.5C2.29 8.98 8.413 3 16 3s13.71 5.98 13.975 13.5c.005-.167.025-.331.025-.5 0-7.756-6.244-14-14-14z"/><path style="opacity:.2;fill:#fff" d="M7.92 7.963a2 2 0 0 0-1.897 2.502 2 2 0 0 1 3.344-.924L16 15.76l6.633-6.219a2 2 0 0 1 1.392-.56 2 2 0 0 1 1.93 1.498 2 2 0 0 0-1.93-2.499 2 2 0 0 0-1.392.561L16 14.76 9.367 8.54a2 2 0 0 0-1.447-.578z"/></svg>