<svg xmlns="http://www.w3.org/2000/svg" width="18" height="18"><defs><style id="current-color-scheme" type="text/css">.ColorScheme-Text{color:#8b9cbe}</style></defs><path style="fill:currentColor" class="ColorScheme-Text" d="M2 12h12v1H2z" transform="translate(1 1)"/><path style="fill:currentColor" class="ColorScheme-Text" d="M5 8h6v6H5zm11 4.5a1.5 1.5 0 0 1-1.5 1.5 1.5 1.5 0 0 1-1.5-1.5 1.5 1.5 0 0 1 1.5-1.5 1.5 1.5 0 0 1 1.5 1.5zm-13 0A1.5 1.5 0 0 1 1.5 14 1.5 1.5 0 0 1 0 12.5 1.5 1.5 0 0 1 1.5 11 1.5 1.5 0 0 1 3 12.5z" transform="translate(1 1)"/><path style="fill:currentColor" class="ColorScheme-Text" d="M0 2.5v1c0 4.432 3.568 8 8 8s8-3.568 8-8v-1c0-.5-.5-.5-.5-.5s-.5 0-.5.5v1c0 3.878-3.122 7-7 7s-7-3.122-7-7v-1C1 2 .5 2 .5 2S0 2 0 2.5z" transform="translate(1 1)"/></svg>