<svg xmlns="http://www.w3.org/2000/svg" width="18" height="18"><defs><style id="current-color-scheme" type="text/css">.ColorScheme-Text{color:#8b9cbe}</style></defs><path style="fill:currentColor" class="ColorScheme-Text" d="M14 1.5V3c0 5-5 5-5 5H6s-6 0-6 6v1.5s0 .5.5.5.5-.5.5-.5V14c0-5 5-5 5-5h3s6 0 6-6V1.5s0-.5-.5-.5-.5.5-.5.5z" transform="translate(1 1)"/><path style="fill:currentColor" class="ColorScheme-Text" d="m12 11-4 2.5 4 2.5v-2h3v-1h-3zM3 1v2H0v1h3v2l4-2.5zm2 5h5v5H5z" transform="translate(1 1)"/></svg>