<svg xmlns="http://www.w3.org/2000/svg" width="22" height="22" version="1"><circle style="fill:#5294e2" cx="11" cy="11" r="10"/><path style="opacity:.2;fill:#fff" d="M11 1A10 10 0 0 0 1 11a10 10 0 0 0 .01.291A10 10 0 0 1 11 1.5a10 10 0 0 1 9.99 9.709A10 10 0 0 0 21 11 10 10 0 0 0 11 1z"/><path style="opacity:.2" d="M20.99 11.209A10 10 0 0 1 11 21a10 10 0 0 1-9.989-9.709A10 10 0 0 0 1 11.5a10 10 0 0 0 10 10 10 10 0 0 0 10-10 10 10 0 0 0-.01-.291z"/><g style="opacity:.2"><path d="M11 4.5a3 3 0 1 0 0 6 3 3 0 0 0 0-6zM11 11.5c-5 .003-5 3.446-5 3.446v1.4s.923 2.154 5 2.154 5-2.154 5-2.154v-1.4s0-3.448-4.999-3.446z"/></g><path style="fill:#fff" d="M12 5a3 3 0 1 0 0 6 3 3 0 0 0 0-6zM12 12c-5 .003-5 3.446-5 3.446v1.4S7.923 19 12 19s5-2.154 5-2.154v-1.4s0-3.448-4.999-3.446z" transform="translate(-1 -1)"/></svg>