<svg xmlns="http://www.w3.org/2000/svg" height="64" width="64"><circle cx="32" cy="33" r="28" style="opacity:.2"/><circle cx="32" cy="32" r="28" style="fill:#309fb1"/><path d="M32 4A28 28 0 0 0 4 32a28 28 0 0 0 .021.586A28 28 0 0 1 32 5a28 28 0 0 1 27.979 27.414A28 28 0 0 0 60 32 28 28 0 0 0 32 4z" style="opacity:.2;fill:#fff"/><path style="opacity:.2" d="M22 23c-2 0-2 2-2 2v2s0 6-5 6c-2.966 0-4.154-2.103-4.645-3.82A22 22 0 0 0 10 33a22 22 0 0 0 22 22 22 22 0 0 0 22-22 22 22 0 0 0-.586-4.924C52.01 28.426 52 30 52 30v7s0 2-2 2-2-2-2-2v-6s0-2-2-2-2 2-2 2v8s0 3-4 3-4-4-4-4V27s0-4-4-4-4 4-4 4v17s0 2-2 2-2-2-2-2V25s0-2-2-2z"/><path style="fill:#fff" d="M22 22c-2 0-2 2-2 2v2s0 6-5 6c-2.966 0-4.154-2.103-4.645-3.82A22 22 0 0 0 10 32a22 22 0 0 0 22 22 22 22 0 0 0 22-22 22 22 0 0 0-.586-4.924C52.01 27.426 52 29 52 29v7s0 2-2 2-2-2-2-2v-6s0-2-2-2-2 2-2 2v8s0 3-4 3-4-4-4-4V26s0-4-4-4-4 4-4 4v17s0 2-2 2-2-2-2-2V24s0-2-2-2z"/></svg>