<svg xmlns="http://www.w3.org/2000/svg" width="64" height="64" version="1"><path style="opacity:.2" d="M35 12a15 15 0 0 0-13.172 7.855 10 10 0 0 0-8.297 8.504A12.857 12.857 0 0 0 2 41.145 12.857 12.857 0 0 0 14.855 54h34.29A12.857 12.857 0 0 0 62 41.145a12.857 12.857 0 0 0-12.07-12.833A15 15 0 0 0 50 27a15 15 0 0 0-15-15z"/><circle style="fill:#678dfd" cx="-49.143" cy="40.143" r="12.857" transform="scale(-1 1)"/><circle style="fill:#678dfd" cx="-35" cy="26" r="15" transform="scale(-1 1)"/><circle style="fill:#678dfd" cx="-23.429" cy="28.714" r="10" transform="scale(-1 1)"/><circle style="fill:#678dfd" cx="-14.857" cy="40.143" r="12.857" transform="scale(-1 1)"/><path style="fill:#678dfd" transform="scale(-1 1)" d="M-49.14 35.86h34.286v17.143H-49.14z"/><path style="opacity:.2;fill:#fff" d="M35 11a15 15 0 0 0-13.172 7.855 10 10 0 0 0-8.297 8.504A12.857 12.857 0 0 0 2 40.145a12.857 12.857 0 0 0 .02.412A12.857 12.857 0 0 1 13.53 28.359a10 10 0 0 1 8.297-8.504A15 15 0 0 1 35 12a15 15 0 0 1 14.975 14.482A15 15 0 0 0 50 26a15 15 0 0 0-15-15zm14.982 16.318a15 15 0 0 1-.007.172A15 15 0 0 1 50 28a15 15 0 0 1-.018.318A12.857 12.857 0 0 1 61.977 40.67a12.857 12.857 0 0 0 .023-.525 12.857 12.857 0 0 0-12.018-12.827zm-.007 1.172a15 15 0 0 1-.045.823 12.857 12.857 0 0 1 .052.005A15 15 0 0 0 50 29a15 15 0 0 0-.025-.51z"/><path style="opacity:.2" d="m42 20-17 6v12.264A4.5 4.5 0 0 0 23.5 38a4.5 4.5 0 0 0-4.5 4.5 4.5 4.5 0 0 0 4.5 4.5 4.5 4.5 0 0 0 4.5-4.5V30.941l11-3.882v8.205A4.5 4.5 0 0 0 37.5 35a4.5 4.5 0 0 0-4.5 4.5 4.5 4.5 0 0 0 4.5 4.5 4.5 4.5 0 0 0 4.5-4.5V26z"/><path style="fill:#fff" d="m42 19-17 6v12.264A4.5 4.5 0 0 0 23.5 37a4.5 4.5 0 0 0-4.5 4.5 4.5 4.5 0 0 0 4.5 4.5 4.5 4.5 0 0 0 4.5-4.5V29.941l11-3.882v8.205A4.5 4.5 0 0 0 37.5 34a4.5 4.5 0 0 0-4.5 4.5 4.5 4.5 0 0 0 4.5 4.5 4.5 4.5 0 0 0 4.5-4.5V25z"/></svg>