<svg width="64" height="64" xmlns="http://www.w3.org/2000/svg"><rect x="4" y="5" width="56" height="56" ry="3" style="opacity:.2"/><rect x="4" y="4" width="56" height="56" ry="3" style="fill:#4f4f4f"/><path d="m16 9 8 8v8h-8l-8-8v32l8-8h8v8l-8 8h32l-8-8v-8h8l8 8V17l-8 8h-8v-8l8-8z" style="opacity:.2"/><path d="m16 8 8 8v8h-8l-8-8v32l8-8h8v8l-8 8h32l-8-8v-8h8l8 8V16l-8 8h-8v-8l8-8H16z" style="fill:#fae214"/><path d="M7 4C5.338 4 4 5.338 4 7v1c0-1.662 1.338-3 3-3h50c1.662 0 3 1.338 3 3V7c0-1.662-1.338-3-3-3H7z" style="fill:#fff;opacity:.1"/><path d="m16 8 1 1h30l1-1H16zm-8 8v1l8 8h8v-1h-8l-8-8zm48 0-8 8h-8v1h8l8-8v-1zM24 48l-8 8h1l7-7v-1zm16 0v1l7 7h1l-8-8z" style="fill:#fff;opacity:.2"/></svg>