<svg width="64" height="64" version="1" xmlns="http://www.w3.org/2000/svg"><rect x="4" y="5" width="56" height="56" rx="2.8" ry="2.8" style="opacity:.2"/><rect x="4" y="4" width="56" height="56" rx="2.8" ry="2.8" style="fill:#3a6688"/><path d="M6.8 4C5.25 4 4 5.25 4 6.8v1C4 6.25 5.25 5 6.8 5h50.4C58.75 5 60 6.25 60 7.8v-1C60 5.25 58.75 4 57.2 4H6.8z" style="fill:#fff;opacity:.1"/><path d="M44.97 22.97A2 2 0 0 0 43 25v16a2 2 0 0 0 2 2h8c2.705.038 2.705-4.038 0-4h-6V25a2 2 0 0 0-2.03-2.03zm-15.714.003c-.27.004-.424.02-.424.02A2 2 0 0 0 27 24.985v16a2 2 0 0 0 1.832 1.993s2.457.242 5-.922C36.375 40.892 39 37.939 39 32.987c0-4.953-2.625-7.909-5.168-9.073-1.908-.873-3.766-.955-4.576-.941zM17 23.029c-2.667 0-4.55 1.629-5.29 3.106-.738 1.477-.71 2.894-.71 2.894-.02 4.04 0 7.974 0 12-.038 2.705 4.038 2.705 4 0v-4h4v4c-.038 2.705 4.038 2.705 4 0 .02-4.039 0-7.973 0-12 0 0 .028-1.417-.71-2.894-.74-1.477-2.623-3.106-5.29-3.106zm0 4c1.333 0 1.45.372 1.71.895.262.523.29 1.105.29 1.105v4h-4v-4s.028-.582.29-1.105c.26-.523.377-.895 1.71-.895zm14 .217c.392.086.752.115 1.168.305 1.457.667 2.832 1.713 2.832 5.435 0 3.723-1.375 4.767-2.832 5.434-.416.19-.776.22-1.168.307z" style="opacity:.2"/><path d="M44.97 21.97A2 2 0 0 0 43 24v16a2 2 0 0 0 2 2h8c2.705.038 2.705-4.038 0-4h-6V24a2 2 0 0 0-2.03-2.03zm-15.714.003c-.27.004-.424.02-.424.02A2 2 0 0 0 27 23.985v16a2 2 0 0 0 1.832 1.993s2.457.242 5-.922C36.375 39.892 39 36.939 39 31.987c0-4.953-2.625-7.909-5.168-9.073-1.908-.873-3.766-.955-4.576-.941zM17 22.029c-2.667 0-4.55 1.629-5.29 3.106-.738 1.477-.71 2.894-.71 2.894-.02 4.04 0 7.974 0 12-.038 2.705 4.038 2.705 4 0v-4h4v4c-.038 2.705 4.038 2.705 4 0 .02-4.039 0-7.973 0-12 0 0 .028-1.417-.71-2.894-.74-1.477-2.623-3.106-5.29-3.106zm0 4c1.333 0 1.45.372 1.71.895.262.523.29 1.105.29 1.105v4h-4v-4s.028-.582.29-1.105c.26-.523.377-.895 1.71-.895zm14 .217c.392.086.752.115 1.168.305 1.457.667 2.832 1.713 2.832 5.435 0 3.723-1.375 4.767-2.832 5.434-.416.19-.776.22-1.168.307z" style="fill:#a1eae9"/></svg>