<svg xmlns="http://www.w3.org/2000/svg" width="64" height="64"><circle style="opacity:.2" cx="32" cy="33" r="28"/><circle style="fill:#1a73e8" cx="32" cy="32" r="28"/><path style="opacity:.2" d="M15.773 21a1.772 1.563 0 0 0-1.535 2.344L18 29.094v10.258C18 42.48 20.55 45 23.715 45h18.57C45.451 45 48 42.48 48 39.352V26.648C48 23.52 45.45 21 42.285 21h-18.57z"/><rect style="fill:#fff" width="30" height="24" x="18" y="20" rx="5.714" ry="5.647"/><path style="fill:#fff" d="M15.773 20a1.772 1.563 0 0 0-1.536 2.345l4.017 6.136 4.013 6.137a1.772 1.563 0 0 0 3.07 0l4.012-6.137 4.014-6.136A1.772 1.563 0 0 0 31.83 20H23.8z"/><rect style="fill:#8ab4f8" width="22" height="3" x="22" y="24" rx="1.5" ry="1.5"/><rect style="fill:#8ab4f8" width="16" height="3" x="22.2" y="36" rx="1.5" ry="1.5"/><rect style="fill:#8ab4f8" width="22" height="3" x="22" y="30" rx="1.5" ry="1.5"/><path style="opacity:.2;fill:#fff" d="M32 4A28 28 0 0 0 4 32a28 28 0 0 0 .018.492A28 28 0 0 1 32 5a28 28 0 0 1 27.975 27.492A28 28 0 0 0 60 32 28 28 0 0 0 32 4z"/></svg>