<svg xmlns="http://www.w3.org/2000/svg" width="64" height="64"><circle style="opacity:.2" cx="32" cy="33" r="28"/><circle style="fill:#666f7f" cx="32" cy="32" r="28"/><path style="opacity:.2" d="M25.654 13.97c-.022 0-.044.003-.066.005a.637.637 0 0 0-.565.808c2.258 7.98 7.97 23.817 8.256 24.61A8.5 7 0 0 0 30.5 39a8.5 7 0 0 0-8.5 7 8.5 7 0 0 0 8.5 7 8.5 7 0 0 0 8.5-7 8.5 7 0 0 0-.664-2.693c-.433-1.195-3.98-11.02-6.106-18.141 1.6.671 2.996.441 4.575 1.146 2.028.907 3.616 2.041 4.89 6.256.213.69 1.228.552 1.248-.17.002-.08-.03-.117-.029-.197h.002l-.002-.006c.044-4.591-.919-6.891-2.902-8.625-2.02-1.764-4.632-2.571-7.196-3.828-2.378-1.166-4.823-3.078-6.67-5.517a.637.637 0 0 0-.492-.254z"/><path style="fill:#48cc41" d="M25.653 12.971c-.022 0-.043 0-.065.003a.638.638 0 0 0-.564.81c2.315 8.182 8.352 24.88 8.352 24.88.027.08.068.154.123.218l4.023 4.811c.457.522 1.301.044 1.088-.616 0 0-4.122-11.35-6.379-18.91 1.6.67 2.996.44 4.574 1.145 2.029.907 3.616 2.04 4.89 6.256.213.69 1.227.551 1.248-.17.001-.082-.03-.117-.03-.197h.004l-.003-.005c.044-4.592-.92-6.892-2.903-8.626-2.018-1.765-4.63-2.571-7.194-3.828-2.378-1.166-4.824-3.077-6.67-5.516a.638.638 0 0 0-.494-.255z"/><ellipse style="fill:#48cc41" cx="30.5" cy="45" rx="8.5" ry="7"/><path style="opacity:.2;fill:#fff" d="M25.654 12.97a.637.637 0 0 0-.63.813c.036.129.088.295.126.428a.63.63 0 0 1 .438-.236c.022-.002.044-.005.066-.004a.637.637 0 0 1 .492.254c1.847 2.439 4.292 4.351 6.67 5.517 2.564 1.257 5.177 2.064 7.196 3.828 1.89 1.653 2.843 3.845 2.89 8.024a.652.652 0 0 0 .041-.196c.002-.08-.03-.117-.029-.197h.002l-.002-.006c.044-4.591-.919-6.891-2.902-8.625-2.02-1.764-4.632-2.571-7.196-3.828-2.378-1.166-4.823-3.078-6.67-5.517a.637.637 0 0 0-.492-.254zm6.576 12.196c2.126 7.122 5.673 16.946 6.106 18.14a8.5 7 0 0 1 .635 2.24A8.5 7 0 0 0 39 45a8.5 7 0 0 0-.664-2.693c-.411-1.136-3.607-10.016-5.75-17.012-.118-.041-.235-.079-.356-.129zM30.5 38a8.5 7 0 0 0-8.5 7 8.5 7 0 0 0 .027.459A8.5 7 0 0 1 30.5 39a8.5 7 0 0 1 2.78.393l-.391-1.096A8.5 7 0 0 0 30.5 38z"/><path style="fill:#fff;opacity:.1" d="M32 4A28 28 0 0 0 4 32a28 28 0 0 0 .021.586A28 28 0 0 1 32 5a28 28 0 0 1 27.979 27.414A28 28 0 0 0 60 32 28 28 0 0 0 32 4z"/></svg>