<svg xmlns="http://www.w3.org/2000/svg" width="64" height="64"><path style="fill:none;stroke:#cbbb2e;stroke-width:11.99734211" d="M36.992 11.005 20.996 27"/><rect style="fill:#cbbb2e" width="15.996" height="33.992" x="-25" y="23" ry="0" transform="scale(-1 1)"/><path style="fill:#d6c84a" d="M24.995 52.995c2 0 2 2 2 2v3.999H6.999v-4c0-1.999 2-1.999 2-1.999z"/><path style="fill:#4f4f4f" d="M28.994 54.995c2 0 2 2 2 2v3.999H3v-4c0-2 2-2 2-2z"/><path style="fill:none;stroke:#cbbb2e;stroke-width:7.99822807;stroke-linecap:square" d="m36.992 11.005 7.999 7.998"/><rect style="opacity:.2" width="15.996" height="15.996" x="-44.99" y="4" ry="7.998" transform="scale(-1 1)"/><rect style="opacity:.2" width="23.995" height="23.995" x="-28.99" y="20" ry="11.997" transform="scale(-1 1)"/><rect style="fill:#d6c84a" width="23.995" height="23.995" x="-28.99" y="19" ry="11.997" transform="scale(-1 1)"/><rect style="fill:#4f4f4f" width="15.996" height="15.996" x="-25" y="23" ry="7.998" transform="scale(-1 1)"/><rect style="opacity:.1;fill:#fff" width="11.997" height="11.997" x="-23" y="25" ry="5.999" transform="scale(-1 1)"/><rect style="fill:#d6c84a" width="15.996" height="15.996" x="-44.99" y="3.01" ry="7.998" transform="scale(-1 1)"/><path style="fill:none;stroke:#4f4f4f;stroke-width:3.99911404;stroke-linecap:round" d="m48.99 33-4-2v-7.998l4-4h7.998l2 4"/><rect style="fill:#4f4f4f" width="7.998" height="7.998" x="-40.99" y="7.01" ry="3.999" transform="scale(-1 1)"/><path style="opacity:.2;fill:#fff" d="M16.996 19.002A11.97 11.97 0 0 0 5 31c0 .166.016.328.025.492a11.96 11.96 0 0 1 11.971-11.49A11.96 11.96 0 0 1 28.97 31.5c.01-.166.025-.331.025-.5a11.972 11.972 0 0 0-11.998-11.998zM36.992 3.006a7.98 7.98 0 0 0-7.998 7.998c0 .116.023.226.033.34a7.976 7.976 0 0 1 7.965-7.338c4.208 0 7.63 3.22 7.965 7.338.01-.114.033-.224.033-.34a7.98 7.98 0 0 0-7.998-7.998z"/><path style="opacity:.1;fill:#fff" d="M5 54.994s-2 0-2 2V58c0-2 2-2 2-2h23.994c2 0 2 2 2 2v-1.006s0-2-2-2H5z"/></svg>