<svg xmlns="http://www.w3.org/2000/svg" width="64" height="64" version="1"><path style="opacity:.2" d="M4 56.2v2C4 59.75 5.25 61 6.8 61h50.4c1.55 0 2.8-1.25 2.8-2.8v-2c0 1.55-1.25 2.8-2.8 2.8H6.8C5.25 59 4 57.75 4 56.2z"/><rect style="fill:#4f4f4f" width="56" height="56" x="4" y="4" rx="2.8" ry="2.8"/><path style="opacity:.1;fill:#fff" d="M6.8 4C5.25 4 4 5.25 4 6.8v1.003c0-1.551 1.25-2.801 2.8-2.801h50.4c1.55 0 2.8 1.25 2.8 2.8V6.802C60 5.25 58.75 4 57.2 4H6.8z"/><g style="opacity:.2" transform="translate(0 1) scale(1.99997)"><rect width="10" height="6" x="5" y="5" rx="1.25" ry="1.2"/><rect width="10" height="6" x="17" y="5" rx="1.25" ry="1.2"/><rect width="10" height="6" x="11" y="13" rx="1.25" ry="1.2"/><rect width="4" height="6" x="23" y="13" rx=".5" ry=".5"/><rect width="10" height="6" x="5" y="21" rx="1.25" ry="1.2"/><rect width="10" height="6" x="17" y="21" rx="1.25" ry="1.2"/></g><g style="fill:#ff6363" transform="scale(1.99997)"><rect width="10" height="6" x="5" y="5" rx="1.25" ry="1.2"/><rect width="10" height="6" x="17" y="5" rx="1.25" ry="1.2"/><rect width="10" height="6" x="11" y="13" rx="1.25" ry="1.2"/><rect width="4" height="6" x="23" y="13" rx=".5" ry=".5"/><rect width="10" height="6" x="5" y="21" rx="1.25" ry="1.2"/><rect width="10" height="6" x="17" y="21" rx="1.25" ry="1.2"/></g></svg>