<svg xmlns="http://www.w3.org/2000/svg" width="64" height="64" version="1"><rect style="opacity:.2" width="56" height="56" x="4" y="5" rx="2.8" ry="2.8"/><rect style="fill:#4f4f4f" width="56" height="56" x="4" y="4" rx="2.8" ry="2.8"/><path style="opacity:.2" d="M32 12c-7.732 0-14 6.268-14 14v4h-1.715c-.757 0-1.456.21-2.072.55l13.371 13.335c2.189 2.183 3.95 2.056 5.482 1.547 1.533-.51 2.598-1.547 2.598-1.547l13.62-13.582a4.288 4.288 0 0 0-1.57-.303H46v-4c0-7.732-6.268-14-14-14zm0 4c5.57 0 10 4.43 10 10v4H22v-4c0-5.57 4.43-10 10-10zm19.436 16.186L40.322 43.27l9.164 8.341A4.26 4.26 0 0 0 52 47.725v-13.45c0-.764-.215-1.47-.564-2.09zm-39.125.5a4.266 4.266 0 0 0-.311 1.59v13.449c0 1.659.948 3.076 2.326 3.785l8.828-8.006zm25.992 12.6-.62.616s-1.457 1.483-3.712 2.233c-2.256.75-5.546.622-8.408-2.233l-.387-.384-6.9 6.482h27.16z"/><path style="fill:#11a88b" d="M32 11c-7.732 0-14 6.268-14 14v6.285l28-.228V25c0-7.732-6.268-14-14-14zm0 4c5.57 0 10 4.43 10 10v4H22v-4c0-5.57 4.43-10 10-10z"/><path style="fill:#11a88b" d="M16.286 29c-.757 0-1.457.21-2.073.551l13.37 13.334c2.189 2.183 3.95 2.057 5.483 1.547a7.535 7.535 0 0 0 2.598-1.547l13.618-13.582A4.287 4.287 0 0 0 47.714 29zm35.15 2.185L40.323 42.27l9.163 8.34A4.258 4.258 0 0 0 52 46.725v-13.45c0-.764-.214-1.47-.564-2.09zm-39.126.5a4.262 4.262 0 0 0-.31 1.59v13.45c0 1.66.948 3.076 2.327 3.785l8.828-8.007zm25.993 12.6-.62.617s-1.458 1.482-3.713 2.232c-2.256.75-5.545.623-8.407-2.232l-.388-.384L18.276 51h27.16z"/><path style="opacity:.1;fill:#fff" d="M6.8 4C5.25 4 4 5.25 4 6.8v1C4 6.25 5.25 5 6.8 5h50.4C58.75 5 60 6.25 60 7.8v-1C60 5.25 58.75 4 57.2 4H6.8z"/><path style="opacity:.2;fill:#fff" d="M32 11c-7.732 0-14 6.268-14 14v1c0-7.732 6.268-14 14-14s14 6.268 14 14v-1c0-7.732-6.268-14-14-14zM16.285 29c-.757 0-1.456.21-2.072.55l.697.696c.431-.152.89-.246 1.375-.246H18v-1h-1.715zM22 29v1h20v-1H22zm24 0v1h1.715c.271 0 .535.029.79.078l.778-.775A4.288 4.288 0 0 0 47.715 29H46zm5.436 2.186L40.322 42.27l.524.476 10.59-10.56c.349.619.564 1.325.564 2.09v-1c0-.765-.215-1.471-.564-2.09zm-39.125.5a4.266 4.266 0 0 0-.311 1.59v1c0-.564.114-1.099.31-1.59L22.63 42.98l.525-.476-10.843-10.818zm25.992 12.6-.62.616s-1.457 1.483-3.712 2.233c-2.256.75-5.546.622-8.408-2.233l-.387-.384-6.9 6.482h1.064l5.836-5.482.387.384c2.862 2.855 6.152 2.983 8.408 2.233 2.255-.75 3.713-2.233 3.713-2.233l.619-.617L44.373 51h1.063l-7.133-6.715z"/></svg>