<svg xmlns="http://www.w3.org/2000/svg" width="64" height="64"><path style="opacity:.2" d="M32 33A28 14 0 0 0 4 47a28 14 0 0 0 28 14 28 14 0 0 0 28-14 28 14 0 0 0-28-14z"/><path style="fill:#6f8a94" d="M32 32A28 14 0 0 0 4 46a28 14 0 0 0 28 14 28 14 0 0 0 28-14 28 14 0 0 0-28-14z"/><path style="opacity:.2" d="M32 19A28 14 0 0 0 4 33a28 14 0 0 0 28 14 28 14 0 0 0 28-14 28 14 0 0 0-28-14z"/><path style="fill:#9daeb5" d="M32 18A28 14 0 0 0 4 32a28 14 0 0 0 28 14 28 14 0 0 0 28-14 28 14 0 0 0-28-14z"/><path style="opacity:.2" d="M32 5A28 14 0 0 0 4 19a28 14 0 0 0 28 14 28 14 0 0 0 28-14A28 14 0 0 0 32 5z"/><path style="fill:#d1dbe0" d="M32 4A28 14 0 0 0 4 18a28 14 0 0 0 28 14 28 14 0 0 0 28-14A28 14 0 0 0 32 4z"/><path style="opacity:.2;fill:#fff" d="M32 4A28 14 0 0 0 4 18a28 14 0 0 0 .041.41A28 14 0 0 1 32 5a28 14 0 0 1 27.953 13.537A28 14 0 0 0 60 18 28 14 0 0 0 32 4z"/><rect style="fill:#44ad4d" width="32" height="32" x="32" y="30" rx="2.909" ry="2.909"/><path style="fill:#fff" d="M35 35h10v8H35z"/><path style="opacity:.5;fill:#fff" d="M39 40.18h2v10.182h-2z"/><path style="opacity:.5;fill:#fff" transform="rotate(90)" d="M38-53.82h2v10.182h-2z"/><path style="fill:#fff" d="M35 48h10v8H35zM51 35h10v8H51z"/></svg>