<svg xmlns="http://www.w3.org/2000/svg" width="64" height="64" version="1"><rect style="opacity:.2" width="56" height="56" x="4" y="5" rx="2.8" ry="2.8"/><rect style="fill:#71743a" width="56" height="56" x="4" y="4" rx="2.8" ry="2.8"/><path style="opacity:.1" d="M6.8 4C5.25 4 4 5.25 4 6.8v50.4C4 58.75 5.25 60 6.8 60h50.4c1.55 0 2.8-1.25 2.8-2.8V6.8C60 5.25 58.75 4 57.2 4H6.8zm3.2 6h44v44H10V10z"/><path style="opacity:.1" d="m32 13 6.49 13.167L53 28.28 42.5 38.528 44.979 53 32 46.167 19.021 53 21.5 38.528 11 28.278l14.51-2.11z"/><path style="fill:#363636" d="m32 12 6.49 13.167L53 27.28 42.5 37.528 44.979 52 32 45.167 19.021 52 21.5 37.528 11 27.278l14.51-2.11z"/><path style="opacity:.1;fill:#fff" d="M6.8 4C5.25 4 4 5.25 4 6.8v1C4 6.25 5.25 5 6.8 5h50.4C58.75 5 60 6.25 60 7.8v-1C60 5.25 58.75 4 57.2 4H6.8z"/></svg>