<svg xmlns="http://www.w3.org/2000/svg" width="64" height="64"><path style="opacity:.2" d="M46 19v7c0 3.878-3.122 7-7 7H25s-7 0-7 7v12.25C18 57.097 23.463 61 30.25 61h3.5C40.537 61 46 57.097 46 52.25V50H32v-3h19.25C56.097 47 60 41.537 60 34.75v-3.5C60 24.463 56.097 19 51.25 19z"/><path style="fill:#ffa923" d="M46 18v7c0 3.878-3.122 7-7 7H25s-7 0-7 7v12.25C18 56.097 23.463 60 30.25 60h3.5C40.537 60 46 56.097 46 51.25V49H32v-3h19.25C56.097 46 60 40.537 60 33.75v-3.5C60 23.463 56.097 18 51.25 18z"/><path style="opacity:.2" d="M39.5 55a1.5 1.5 0 0 1 1.5 1.5 1.5 1.5 0 0 1-1.5 1.5 1.5 1.5 0 0 1-1.5-1.5 1.5 1.5 0 0 1 1.5-1.5z"/><path style="fill:#fff" d="M39.5 54a1.5 1.5 0 0 1 1.5 1.5 1.5 1.5 0 0 1-1.5 1.5 1.5 1.5 0 0 1-1.5-1.5 1.5 1.5 0 0 1 1.5-1.5z"/><path style="opacity:.2" d="M30.25 5C23.463 5 18 8.902 18 13.75V16h14v3H12.75C7.902 19 4 24.463 4 31.25v3.5C4 41.537 7.902 47 12.75 47H18v-7c0-3.878 3.122-7 7-7h14s7 0 7-7V13.75C46 8.902 40.537 5 33.75 5z"/><path style="fill:#3084e0" d="M30.25 4C23.463 4 18 7.902 18 12.75V15h14v3H12.75C7.902 18 4 23.463 4 30.25v3.5C4 40.537 7.902 46 12.75 46H18v-7c0-3.878 3.122-7 7-7h14s7 0 7-7V12.75C46 7.902 40.537 4 33.75 4z"/><path style="opacity:.2" d="M25.5 8A1.5 1.5 0 0 1 27 9.5a1.5 1.5 0 0 1-1.5 1.5A1.5 1.5 0 0 1 24 9.5 1.5 1.5 0 0 1 25.5 8z"/><path style="fill:#fff" d="M25.5 7A1.5 1.5 0 0 1 27 8.5a1.5 1.5 0 0 1-1.5 1.5A1.5 1.5 0 0 1 24 8.5 1.5 1.5 0 0 1 25.5 7z"/><path style="opacity:.2;fill:#fff" d="M46 18v1h5.25C56.097 19 60 24.463 60 31.25v-1C60 23.463 56.097 18 51.25 18zM32 49v1h14v-1zM30.25 4C23.463 4 18 7.902 18 12.75v1C18 8.902 23.463 5 30.25 5h3.5C40.537 5 46 8.902 46 13.75v-1C46 7.902 40.537 4 33.75 4zm-17.5 14C7.902 18 4 23.463 4 30.25v1C4 24.463 7.902 19 12.75 19H32v-1z"/><path style="opacity:.2;fill-rule:evenodd" d="M63.958 44.848A16 16 0 0 1 48 60a16 16 0 0 1-15.958-14.848A16 16 0 0 0 32 46a16 16 0 0 0 16 16 16 16 0 0 0 16-16 16 16 0 0 0-.042-1.152z"/><circle style="fill:#dc5145" cx="48" cy="45" r="16"/><path style="fill:#fff" d="m46 37-.176 2.107a6.286 6.286 0 0 0-1.837 1.063l-1.916-.902-2 3.464 1.74 1.208a6.286 6.286 0 0 0-.097 1.06 6.286 6.286 0 0 0 .092 1.065l-1.735 1.203 2 3.464 1.91-.9a6.286 6.286 0 0 0 1.842 1.056L46 53h4l.176-2.107a6.286 6.286 0 0 0 1.837-1.063l1.915.902 2-3.464-1.738-1.208a6.286 6.286 0 0 0 .096-1.06 6.286 6.286 0 0 0-.092-1.065l1.735-1.203-2-3.464-1.911.9a6.286 6.286 0 0 0-1.842-1.057L50 37h-4zm2 5.714A2.286 2.286 0 0 1 50.286 45 2.286 2.286 0 0 1 48 47.286 2.286 2.286 0 0 1 45.714 45 2.286 2.286 0 0 1 48 42.714z"/></svg>