<svg xmlns="http://www.w3.org/2000/svg" width="64" height="64" version="1"><path style="opacity:.2" d="M53.918 8.006c-1.373.054-2.763.545-4.088 1.324a.638.638 0 0 0-.234.86l2.092 3.765-9.157 5.55c-.497.302-.68.982-.4 1.491l.81 1.473c.28.51.933.684 1.43.383l9.17-5.559 2.432 4.377a.638.638 0 0 0 .808.28c2.05-.868 3.443-2.394 4.006-4.212.563-1.818.296-3.898-.812-5.87-1.237-2.2-2.888-3.428-4.692-3.766a6.085 6.085 0 0 0-1.365-.096zM9 9c-3.858 0-7 3.142-7 7s3.142 7 7 7 7-3.142 7-7-3.142-7-7-7zm14 4c-1.637 0-3 1.347-3 3s1.363 3 3 3 3-1.347 3-3-1.363-3-3-3zm14 0c-1.637 0-3 1.347-3 3s1.363 3 3 3 3-1.347 3-3-1.363-3-3-3zM9 26c-3.858 0-7 3.142-7 7s3.142 7 7 7 7-3.142 7-7-3.142-7-7-7zm7 7c0 3.858 3.142 7 7 7s7-3.142 7-7-3.142-7-7-7-7 3.142-7 7zm14 0c0 3.858 3.142 7 7 7s7-3.142 7-7-3.142-7-7-7-7 3.142-7 7zm14 0c0 3.858 3.142 7 7 7s7-3.142 7-7-3.142-7-7-7-7 3.142-7 7zM9 43c-3.858 0-7 3.142-7 7s3.142 7 7 7 7-3.142 7-7-3.142-7-7-7zm7 7c0 3.858 3.142 7 7 7s7-3.142 7-7-3.142-7-7-7-7 3.142-7 7zm14 0c0 3.858 3.142 7 7 7s7-3.142 7-7-3.142-7-7-7-7 3.142-7 7zm14 0c0 3.858 3.142 7 7 7s7-3.142 7-7-3.142-7-7-7-7 3.142-7 7z"/><path style="fill:#ab47bc" d="M54.482 12.51c-.28-.51-.93-.685-1.427-.384l-10.524 6.38c-.497.3-.68.981-.4 1.49l.81 1.473c.28.51.933.684 1.43.383l10.524-6.38c.497-.3.677-.98.397-1.49z"/><path style="fill:#ab47bc" d="M55.283 7.102c-1.803-.338-3.687.189-5.454 1.228a.638.638 0 0 0-.234.86l6.378 11.48a.638.638 0 0 0 .808.28c2.049-.868 3.443-2.393 4.006-4.211.563-1.818.296-3.9-.812-5.872-1.237-2.2-2.888-3.427-4.692-3.765z"/><path style="fill:#6d6f69" d="M23 12c-1.637 0-3 1.347-3 3s1.363 3 3 3 3-1.347 3-3-1.363-3-3-3z"/><path style="fill:#3f51b5" d="M9 25c-3.858 0-7 3.142-7 7s3.142 7 7 7 7-3.142 7-7-3.142-7-7-7z"/><path style="fill:#ab47bc" d="M23 25c-3.858 0-7 3.142-7 7s3.142 7 7 7 7-3.142 7-7-3.142-7-7-7z"/><path style="fill:#795548" d="M37 42c-3.858 0-7 3.142-7 7s3.142 7 7 7 7-3.142 7-7-3.142-7-7-7z"/><path style="fill:#ffc107" d="M51 25c-3.858 0-7 3.142-7 7s3.142 7 7 7 7-3.142 7-7-3.142-7-7-7z"/><path style="fill:#795548" d="M9 42c-3.858 0-7 3.142-7 7s3.142 7 7 7 7-3.142 7-7-3.142-7-7-7z"/><path style="fill:#f44336" d="M37 25c-3.858 0-7 3.142-7 7s3.142 7 7 7 7-3.142 7-7-3.142-7-7-7z"/><path style="fill:#4caf50" d="M51 42c-3.858 0-7 3.142-7 7s3.142 7 7 7 7-3.142 7-7-3.142-7-7-7z"/><path style="fill:#3f51b5" d="M23 42c-3.858 0-7 3.142-7 7s3.142 7 7 7 7-3.142 7-7-3.142-7-7-7z"/><path style="fill:#4caf50" d="M9 8c-3.858 0-7 3.142-7 7s3.142 7 7 7 7-3.142 7-7-3.142-7-7-7z"/><path style="fill:#6d6f69" d="M37 12c-1.637 0-3 1.347-3 3s1.363 3 3 3 3-1.347 3-3-1.363-3-3-3z"/><path style="opacity:.1;fill:#fff" d="M53.918 7.006c-1.373.054-2.763.545-4.088 1.324a.638.638 0 0 0-.234.86l.125.222a.638.638 0 0 1 .11-.082c1.324-.78 2.714-1.27 4.087-1.324.458-.018.914.011 1.365.096 1.804.338 3.455 1.565 4.692 3.765.647 1.15.998 2.338 1.074 3.488.116-1.451-.238-3-1.074-4.488-1.237-2.2-2.888-3.427-4.692-3.765a6.085 6.085 0 0 0-1.365-.096zM9 8c-3.858 0-7 3.142-7 7 0 .169.014.334.025.5C2.284 11.875 5.31 9 9 9c3.69 0 6.716 2.875 6.975 6.5.011-.166.025-.331.025-.5 0-3.858-3.142-7-7-7zm14 4c-1.637 0-3 1.347-3 3 0 .171.025.336.053.5.242-1.415 1.48-2.5 2.947-2.5s2.705 1.085 2.947 2.5c.028-.164.053-.329.053-.5 0-1.653-1.363-3-3-3zm14 0c-1.637 0-3 1.347-3 3 0 .171.025.336.053.5.242-1.415 1.48-2.5 2.947-2.5s2.705 1.085 2.947 2.5c.028-.164.053-.329.053-.5 0-1.653-1.363-3-3-3zm14.271 1.207-8.74 5.299c-.494.3-.677.972-.404 1.48a1.08 1.08 0 0 1 .404-.48l9.157-5.55-.417-.749zM9 25c-3.858 0-7 3.142-7 7 0 .169.014.334.025.5C2.284 28.875 5.31 26 9 26c3.69 0 6.716 2.875 6.975 6.5.011-.166.025-.331.025-.5 0-3.858-3.142-7-7-7zm7 7c0 .169.014.334.025.5C16.284 28.875 19.31 26 23 26c3.69 0 6.716 2.875 6.975 6.5.011-.166.025-.331.025-.5 0-3.858-3.142-7-7-7s-7 3.142-7 7zm14 0c0 .169.014.334.025.5C30.284 28.875 33.31 26 37 26c3.69 0 6.716 2.875 6.975 6.5.011-.166.025-.331.025-.5 0-3.858-3.142-7-7-7s-7 3.142-7 7zm14 0c0 .169.014.334.025.5C44.284 28.875 47.31 26 51 26c3.69 0 6.716 2.875 6.975 6.5.011-.166.025-.331.025-.5 0-3.858-3.142-7-7-7s-7 3.142-7 7zM9 42c-3.858 0-7 3.142-7 7 0 .169.014.334.025.5C2.284 45.875 5.31 43 9 43c3.69 0 6.716 2.875 6.975 6.5.011-.166.025-.331.025-.5 0-3.858-3.142-7-7-7zm7 7c0 .169.014.334.025.5C16.284 45.875 19.31 43 23 43c3.69 0 6.716 2.875 6.975 6.5.011-.166.025-.331.025-.5 0-3.858-3.142-7-7-7s-7 3.142-7 7zm14 0c0 .169.014.334.025.5C30.284 45.875 33.31 43 37 43c3.69 0 6.716 2.875 6.975 6.5.011-.166.025-.331.025-.5 0-3.858-3.142-7-7-7s-7 3.142-7 7zm14 0c0 .169.014.334.025.5C44.284 45.875 47.31 43 51 43c3.69 0 6.716 2.875 6.975 6.5.011-.166.025-.331.025-.5 0-3.858-3.142-7-7-7s-7 3.142-7 7z"/></svg>