<svg xmlns="http://www.w3.org/2000/svg" width="64" height="64" version="1"><rect style="opacity:.2" width="56" height="36" x="4" y="26" rx="2.8" ry="2.769"/><rect style="fill:#4f4f4f" width="56" height="36" x="4" y="25" rx="2.8" ry="2.769"/><circle style="opacity:.2" cx="20" cy="44" r="12"/><circle style="opacity:.2" cx="44" cy="44" r="12"/><circle style="fill:#e4e4e4" cx="20" cy="43" r="12"/><circle style="fill:#4f4f4f" cx="20" cy="43" r="5"/><rect style="opacity:.2" width="56" height="22" x="4" y="4" rx="2.8" ry="3.143"/><rect style="fill:#4f4f4f" width="56" height="22" x="4" y="3" rx="2.8" ry="3.143"/><rect style="opacity:.2" width="48" height="14" x="8" y="8" rx="2.987" ry="3.148"/><rect style="fill:#63a535" width="48" height="14" x="8" y="7" rx="2.987" ry="3.148"/><circle style="fill:#4f4f4f" cx="15" cy="14" r="3"/><path style="fill:#983a0e" d="M46 11h6v6h-6z"/><path style="fill:#f7bf32" d="M48 13h2v2h-2z"/><circle style="fill:#4f4f4f" cx="23" cy="14" r="3"/><circle style="fill:#4f4f4f" cx="31" cy="14" r="3"/><circle style="fill:#e4e4e4" cx="44" cy="43" r="12"/><circle style="fill:#4f4f4f" cx="44" cy="43" r="5"/><path style="opacity:.1;fill:#fff" d="M6.8 3C5.25 3 4 4.403 4 6.145v1C4 5.403 5.25 4 6.8 4h50.4C58.75 4 60 5.403 60 7.145v-1C60 4.403 58.75 3 57.2 3H6.8z"/><path style="opacity:.1;fill:#fff" d="M10.988 7C9.333 7 8 8.405 8 10.148v1C8 9.405 9.333 8 10.988 8h42.024C54.667 8 56 9.405 56 11.148v-1C56 8.405 54.667 7 53.012 7H10.988z"/></svg>