<svg xmlns="http://www.w3.org/2000/svg" width="64" height="64"><rect style="opacity:.2" width="44" height="56" x="10" y="4" rx="3" ry="3"/><rect style="fill:#3d65c2" width="44" height="56" x="10" y="3" rx="3" ry="3"/><path style="opacity:.2" d="M13 3c-1.662 0-3 1.338-3 3v50c0 1.662 1.338 3 3 3h5V3h-5zM32 12v10H22v8h10v22h8V30h10v-8H40V12z"/><path style="fill:#ffd972" d="M32 11v10H22v8h10v22h8V29h10v-8H40V11h-8z"/><circle style="opacity:.2" cx="48" cy="47" r="16"/><circle style="fill:#ff982d" cx="48" cy="46" r="16"/><path style="fill:#fff" d="M48 36c-5.523 0-10 4.477-10 10s4.477 10 10 10 10-4.477 10-10-4.477-10-10-10zm0 2a8 8 0 1 1 0 16 8 8 0 0 1 0-16zm-1 2v7h7v-2h-5v-5z"/><path style="opacity:.1;fill:#fff" d="M13 3c-1.662 0-3 1.338-3 3v1c0-1.662 1.338-3 3-3h38c1.662 0 3 1.338 3 3V6c0-1.662-1.338-3-3-3H13z"/></svg>