<svg xmlns="http://www.w3.org/2000/svg" width="64" height="64" version="1"><rect style="opacity:.2" width="56" height="44" x="-60" y="11" rx="2.8" ry="2.75" transform="scale(-1 1)"/><rect style="fill:#ffc543" width="56" height="44" x="-60" y="10" rx="2.8" ry="2.75" transform="scale(-1 1)"/><circle style="opacity:.2" cx="16" cy="39" r="8"/><circle style="fill:#ff5100" cx="16" cy="38" r="8"/><path style="fill:#4d4d4d" d="M8 14h48v10H8z"/><path style="fill:#ff5100" transform="rotate(90)" d="M16-26h8v6h-8z"/><path style="fill:#4d4d4d" d="M37 28a3 3 0 0 0-3 3 3 3 0 0 0 3 3 3 3 0 0 0 3-3 3 3 0 0 0-3-3zm8 0a3 3 0 0 0-3 3 3 3 0 0 0 3 3 3 3 0 0 0 3-3 3 3 0 0 0-3-3zm8 0a3 3 0 0 0-3 3 3 3 0 0 0 3 3 3 3 0 0 0 3-3 3 3 0 0 0-3-3zm-16 8a3 3 0 0 0-3 3 3 3 0 0 0 3 3 3 3 0 0 0 3-3 3 3 0 0 0-3-3zm8 0a3 3 0 0 0-3 3 3 3 0 0 0 3 3 3 3 0 0 0 3-3 3 3 0 0 0-3-3zm8 0a3 3 0 0 0-3 3 3 3 0 0 0 3 3 3 3 0 0 0 3-3 3 3 0 0 0-3-3zm-16 8a3 3 0 0 0-3 3 3 3 0 0 0 3 3 3 3 0 0 0 3-3 3 3 0 0 0-3-3zm8 0a3 3 0 0 0-3 3 3 3 0 0 0 3 3 3 3 0 0 0 3-3 3 3 0 0 0-3-3zm8 0a3 3 0 0 0-3 3 3 3 0 0 0 3 3 3 3 0 0 0 3-3 3 3 0 0 0-3-3z"/><path style="opacity:.2;fill:#fff" d="M6.8 10C5.25 10 4 11.226 4 12.75v1C4 12.226 5.25 11 6.8 11h50.4c1.55 0 2.8 1.226 2.8 2.75v-1c0-1.524-1.25-2.75-2.8-2.75H6.8z"/></svg>