<svg xmlns="http://www.w3.org/2000/svg" width="64" height="64" version="1"><rect width="56" height="56" x="4" y="5" rx="16.8" ry="16.8" style="opacity:.2"/><rect width="56" height="56" x="4" y="4" rx="16.8" ry="16.8" style="fill:#176fd0"/><path d="M32 17v-5h15v5h-3s-.9 0-.9 1.1v26.1c0 2.8-1.3 9.8-12.5 9.8C20.8 54 17 46.237 17 39.3c0-14 15-9.7 15-9.7V37s-1.4-1-4.2-1c-1.683 0-3.8 1.2-3.8 4 0 3.645 3.8 6 6.6 6 4.2 0 5.4-3.2 5.4-4.6V18.1c0-1.1-1-1.1-1-1.1z" style="opacity:.2"/><path d="M32 16v-5h15v5h-3s-.9 0-.9 1.1v26.1c0 2.8-1.3 9.8-12.5 9.8C20.8 53 17 45.237 17 38.3c0-14 15-9.7 15-9.7V36s-1.4-1-4.2-1c-1.683 0-3.8 1.2-3.8 4 0 3.645 3.8 6 6.6 6 4.2 0 5.4-3.2 5.4-4.6V17.1c0-1.1-1-1.1-1-1.1z" style="fill:#fff"/><path style="fill:#fff;opacity:.1" d="M20.801 4A16.765 16.765 0 0 0 4 20.801v1A16.765 16.765 0 0 1 20.801 5h22.398A16.765 16.765 0 0 1 60 21.801v-1A16.765 16.765 0 0 0 43.199 4H20.801z"/></svg>