<svg xmlns="http://www.w3.org/2000/svg" height="64" width="64"><path style="opacity:.2" d="M5 20v25a12.5 3 0 0 0 12.5 3A12.5 3 0 0 0 30 45V20z"/><path style="fill:#24bc0d" d="M5 19v25a12.5 3 0 0 0 12.5 3A12.5 3 0 0 0 30 44V19H5z"/><ellipse style="opacity:.2" rx="12.5" ry="3" cy="20" cx="17.5"/><ellipse style="fill:#61dc3f" rx="12.5" ry="3" cy="19" cx="17.5"/><path style="opacity:.2" d="M41 13 25 46s2 5 17 5 17-5 17-5z"/><path style="fill:#3251e7" d="M41 12 25 45s2 5 17 5 17-5 17-5z"/><path style="opacity:.2;fill:#fff" d="M41 12 25 45s.103.183.277.428L41 13l17.703 32.455C58.892 45.195 59 45 59 45L41 12zM17.5 16A12.5 3 0 0 0 5 19a12.5 3 0 0 0 .184.512A12.5 3 0 0 1 17.5 17a12.5 3 0 0 1 12.316 2.488A12.5 3 0 0 0 30 19a12.5 3 0 0 0-12.5-3z"/></svg>