<svg width="64" height="64" xmlns="http://www.w3.org/2000/svg"><path d="M45 8a7 7 0 0 0-7 7 7 7 0 0 0 .064.89l-10.601 6.817A14 14 0 0 0 18 19 14 14 0 0 0 4 33a14 14 0 0 0 14 14 14 14 0 0 0 10.705-4.979l11.32 5.499A10 10 0 0 0 40 48a10 10 0 0 0 10 10 10 10 0 0 0 10-10 10 10 0 0 0-7.264-9.61L49.18 20.606A7 7 0 0 0 52 15a7 7 0 0 0-7-7zm-3.69 12.938a7 7 0 0 0 1.987.843l3.361 16.805a10 10 0 0 0-4.539 3.28l-10.633-5.167A14 14 0 0 0 32 33a14 14 0 0 0-1.088-5.377l10.399-6.686z" style="opacity:.2"/><path d="M44.92 11.002a3 3 0 0 0-1.543.475l-28 18a3 3 0 0 0 .312 5.222l35 17a3 3 0 0 0 4.252-3.287l-7-35a3 3 0 0 0-3.021-2.41zm-1.998 7.9 4.951 24.758-24.756-12.025z" style="fill:#353535"/><path d="M44.92 11.002a3 3 0 0 0-1.543.475l-28 18a3 3 0 0 0-1.332 3.021 3 3 0 0 1 1.332-2.021l28-18a3 3 0 0 1 1.543-.475 3 3 0 0 1 3.021 2.41l7 35a3 3 0 0 1 .014.078 3 3 0 0 0-.014-1.078l-7-35a3 3 0 0 0-3.021-2.41zM24.004 32.064l-.887.57L47.873 44.66l-.22-1.107-23.65-11.489z" style="fill:#fff;opacity:.1"/><path d="M44.92 11.002a3 3 0 0 0-1.543.475l-5.375 3.455A7 7 0 0 0 38 15a7 7 0 0 0 2.57 5.414l2.352-1.512.586 2.928A7 7 0 0 0 45 22a7 7 0 0 0 4.354-1.527l-1.413-7.06a3 3 0 0 0-3.021-2.411zM26.81 22.127l-11.433 7.35a3 3 0 0 0 .312 5.222l13.573 6.592a14 14 0 0 0 2.44-5.486l-8.585-4.17 7.442-4.783a14 14 0 0 0-3.748-4.725zM50 38a10 10 0 0 0-3.154.52l1.027 5.14-5.154-2.504a10 10 0 0 0-2.606 5.407l10.576 5.136a3 3 0 0 0 4.252-3.287l-1.99-9.955A10 10 0 0 0 50 38z" style="opacity:.2"/><circle cx="18" cy="32" r="14" style="fill:#fe6501"/><circle cx="45" cy="14" r="7" style="fill:#fe6501"/><circle cx="50" cy="47" r="10" style="fill:#fe6501"/><path d="M45 7a7 7 0 0 0-7 7 7 7 0 0 0 .023.459A7 7 0 0 1 45 8a7 7 0 0 1 6.977 6.541A7 7 0 0 0 52 14a7 7 0 0 0-7-7zM18 18A14 14 0 0 0 4 32a14 14 0 0 0 .021.414A14 14 0 0 1 18 19a14 14 0 0 1 13.979 13.586A14 14 0 0 0 32 32a14 14 0 0 0-14-14zm32 19a10 10 0 0 0-10 10 10 10 0 0 0 .021.414A10 10 0 0 1 50 38a10 10 0 0 1 9.979 9.586A10 10 0 0 0 60 47a10 10 0 0 0-10-10z" style="fill:#fff;opacity:.2"/></svg>