<svg xmlns="http://www.w3.org/2000/svg" width="64" height="64" version="1"><path style="opacity:.2" d="M6.8 5A2.794 2.794 0 0 0 4 7.8v50.4C4 59.751 5.249 61 6.8 61H21V22h19V5zM43 5v56h7.392l4.624-3.744c1.205-.977 2.249 1.557 2.332.008L60 7.8c.083-1.549-1.249-2.8-2.8-2.8zM24 25v36h16V25z"/><path style="fill:#16a085" d="M6.8 4A2.794 2.794 0 0 0 4 6.8v50.4C4 58.751 5.249 60 6.8 60H21V21h19V4zM43 4v56h8.328l3.688-3.744c1.088-1.105 1.918 1.503 2.332.008L60 46.683V6.8C60 5.249 58.751 4 57.2 4zM24 24v36h16V24z"/><path style="opacity:.2;fill:#fff" d="M6.8 4C5.25 4 4 5.25 4 6.8v1C4 6.25 5.25 5 6.8 5H40V4H6.8zM43 4v1h14.2C58.75 5 60 6.25 60 7.8v-1C60 5.25 58.75 4 57.2 4H43zM24 24v1h16v-1H24z"/><path style="opacity:.2;fill-rule:evenodd" d="M63.958 46.848A16 16 0 0 1 48 62a16 16 0 0 1-15.958-14.848A16 16 0 0 0 32 48a16 16 0 0 0 16 16 16 16 0 0 0 16-16 16 16 0 0 0-.042-1.152z"/><circle style="fill:#8255cc" cx="48" cy="47" r="16"/><path style="fill:#fff" d="m46 39-.176 2.107a6.286 6.286 0 0 0-1.837 1.063l-1.916-.902-2 3.464 1.74 1.208a6.286 6.286 0 0 0-.097 1.06 6.286 6.286 0 0 0 .092 1.065l-1.735 1.203 2 3.464 1.91-.9a6.286 6.286 0 0 0 1.842 1.056L46 55h4l.176-2.107a6.286 6.286 0 0 0 1.837-1.063l1.915.902 2-3.464-1.738-1.208a6.286 6.286 0 0 0 .096-1.06 6.286 6.286 0 0 0-.092-1.065l1.735-1.203-2-3.464-1.911.9a6.286 6.286 0 0 0-1.842-1.056L50 39h-4zm2 5.715A2.286 2.286 0 0 1 50.286 47 2.286 2.286 0 0 1 48 49.287 2.286 2.286 0 0 1 45.714 47 2.286 2.286 0 0 1 48 44.715z"/></svg>