<svg xmlns="http://www.w3.org/2000/svg" width="64" height="64"><path style="opacity:.2" d="m32 5-.102.019c-12.41.425-16.324 10.047-16.824 18.277-.38 6.254.832 11.703.832 11.703a49.8 49.8 0 0 0 .438 2.188c.133.58.279 1.186.418 1.777l-8.278 7.195c-2.844 2.973-1.314 7.49 2.149 8.676.416.143 1.024-.432 1.492-.394.607.049 1.088.675 1.766.515.977-3.677 2.765-5.728 4.816-7.242.6 3.147.981 6.123.824 8.598 0 0 1.339 1.127 1.492 1.914.079.4-.086.984-.273 1.476 0 0-.56 1.294.781 1.278h6.762c.959.039 1.117.122 1.262-.88l.82-3.644c.178-.729.186-.968.719-.98v.031l.906-.125.906.125v-.031c.533.012.541.251.719.98l.82 3.645c.145 1 .303.918 1.262.879h6.762c1.341.016.781-1.278.781-1.278-.187-.492-.352-1.076-.273-1.476.153-.787 1.492-1.914 1.492-1.914-.156-2.468.224-5.447.824-8.598 2.05 1.514 3.839 3.565 4.816 7.242.678.16 1.159-.466 1.766-.515.468-.038 1.076.537 1.492.394 3.463-1.187 4.993-5.703 2.149-8.676l-8.278-7.195c.14-.59.285-1.197.418-1.777.16-.737.316-1.474.438-2.188 0 0 1.212-5.449.832-11.703-.5-8.23-4.414-17.852-16.824-18.277zm-.016 2.816a2.632 2.8 0 0 0 .012 0 2.632 2.8 0 0 0 .02 0c5.575.19 8.758 2.272 10.898 5.152 2.14 2.88 3.161 6.791 3.387 10.508.35 5.767-.766 10.879-.766 10.879a2.632 2.8 0 0 0-.03.148c-.087.508-.216 1.046-.33 1.574L32 30.191l-13.176 5.886c-.113-.528-.242-1.066-.328-1.574a2.632 2.8 0 0 0-.031-.148s-1.116-5.112-.766-10.88c.226-3.716 1.246-7.628 3.387-10.507 2.14-2.88 5.323-4.962 10.898-5.152z"/><path style="fill:#e4e4e4" d="M16.344 36.188c1.511 6.593 3.517 13.946 3.189 19.126 0 0 1.335 1.126 1.489 1.913.078.4-.085.984-.271 1.476 0 0-.56 1.293.78 1.277h6.763c.96.04 1.114.12 1.26-.88l.821-3.641c.178-.729.186-.969.719-.981v.03l.906-.126.906.126v-.03c.533.012.54.252.719.98l.822 3.642c.145 1 .3.92 1.259.88h6.762c1.342.016.781-1.277.781-1.277-.186-.492-.349-1.076-.27-1.476.153-.787 1.488-1.913 1.488-1.913-.327-5.164 1.674-12.549 3.19-19.126L32 29.191z"/><path style="fill:#e4e4e4" d="m8.486 45.16 8.481-7.374 3.575 7.708c-2.793 1.66-5.39 3.716-6.651 8.462-.678.16-1.159-.465-1.766-.514-.467-.038-1.077.538-1.493.395-3.464-1.187-4.99-5.705-2.146-8.678z"/><path style="fill:#bac61d" d="M32 12c-7.18 0-13 5.629-13 12.572v10.812c8.553 1.082 17.243.637 26-.547V24.572C45 17.629 39.18 12 32 12z"/><circle style="opacity:.2" cx="32" cy="24" r="7"/><circle style="fill:#fff" cx="32" cy="23" r="7"/><circle style="fill:#4d4d4d" cx="32" cy="23" r="5"/><circle style="fill:#fff" cx="29.834" cy="19.704" r="2.296"/><ellipse style="fill:#bac61d" cx="32" cy="8.5" rx="3" ry="1.5"/><path style="fill:#bac61d" d="M31.314 8.859h1.439l.67 4.126h-2.869z"/><path style="fill:none;stroke:#5e742c;stroke-width:1.39418197;stroke-linecap:round;stroke-linejoin:round" d="M25.75 31.729c4.817 2.494 8.564 1.72 12.5 0"/><path style="opacity:.4" d="m14.76 39.706-.66.571c-.035 1.383.472 2.52 1.251 3.47.918 1.118 2.195 2.01 3.42 2.905l.047-.033.095-.134.228-.317-.356-.257c-1.115-.813-2.203-1.621-2.967-2.553-.825-1.006-1.28-2.133-1.058-3.652zm-2.558 2.222-.5.435c.496 1.691 1.27 2.894 2.203 3.786.94.896 2.027 1.485 3.125 2.003.152-.157.306-.31.464-.456-1.15-.535-2.253-1.11-3.174-1.99-.909-.868-1.657-2.03-2.118-3.778zm-2.42 2.108-.472.407c1.865 3.687 4.109 4.759 6.29 5.516.115-.179.233-.352.353-.52-2.226-.757-4.325-1.643-6.171-5.403zM19.478 52.463l.027.374c.007.102.02.207.025.307 3.484 1.408 7.1 2.264 10.948 1.97.103-.39.205-.613.586-.631l-.003-.03c-4.07.446-7.876-.457-11.583-1.99zm.063 2.665c-.003.06-.005.119-.009.178v.005s.306.278.614.596c.036.038.036.028.073.068l.008.009c3.189.935 6.45 1.387 9.823.918l.143-.637c-3.647.553-7.171-.02-10.652-1.137zm10.338 2.531c-2.954.744-5.916.73-8.898.287a4.95 4.95 0 0 1-.173.59c2.968.449 5.944.489 8.919-.21z"/><path style="opacity:.4;fill:none;stroke:#000;stroke-width:.53582323" d="M23.913 44.21c6.216.936 10.68.59 14.468-.252m-12.888-2.663-1.58 2.914 1.414 7.107c4.45.762 8.52.634 12.305-.168l.749-7.19-.998-2.663z"/><path style="fill:#e4e4e4" d="m55.514 45.16-8.481-7.374-3.575 7.708c2.793 1.66 5.39 3.716 6.651 8.462.678.16 1.159-.465 1.766-.514.467-.038 1.077.538 1.493.395 3.464-1.187 4.99-5.705 2.146-8.678z"/><path style="opacity:.4" d="m49.24 39.706.66.571c.035 1.383-.472 2.52-1.251 3.47-.918 1.118-2.195 2.01-3.42 2.905l-.047-.033-.095-.134-.228-.317.356-.257c1.115-.813 2.203-1.621 2.967-2.553.825-1.006 1.28-2.133 1.058-3.652zm2.558 2.222.5.435c-.496 1.691-1.27 2.894-2.203 3.786-.94.896-2.027 1.485-3.125 2.003-.152-.157-.306-.31-.464-.456 1.15-.535 2.253-1.11 3.174-1.99.909-.868 1.657-2.03 2.118-3.778zm2.42 2.108.472.407c-1.865 3.687-4.109 4.759-6.29 5.516a11.614 11.614 0 0 0-.353-.52c2.226-.757 4.325-1.643 6.171-5.403zM44.522 52.463l-.027.374c-.007.102-.02.207-.025.307-3.484 1.408-7.1 2.264-10.948 1.97-.103-.39-.205-.613-.586-.631l.003-.03c4.07.446 7.876-.457 11.583-1.99zm-.063 2.665.008.178v.005s-.305.278-.613.596c-.036.038-.036.028-.073.068l-.008.009c-3.189.935-6.45 1.387-9.823.918l-.143-.637c3.647.553 7.171-.02 10.652-1.137zM34.121 57.66c2.954.744 5.916.73 8.898.287.042.197.105.397.173.59-2.968.449-5.944.489-8.919-.21z"/><path style="fill:#e4e4e4" d="m32 4-.1.02c-12.41.424-16.326 10.047-16.826 18.277-.38 6.254.833 11.705.833 11.705.12.714.277 1.45.437 2.186h2.709a44.959 44.959 0 0 1-.555-2.684 2.632 2.8 0 0 0-.031-.147s-1.117-5.112-.766-10.88c.225-3.716 1.244-7.63 3.385-10.51 2.14-2.879 5.323-4.96 10.899-5.152a2.632 2.8 0 0 0 .01 0 2.632 2.8 0 0 0 .02 0c5.576.191 8.758 2.273 10.899 5.153 2.14 2.88 3.16 6.793 3.385 10.51.35 5.767-.766 10.879-.766 10.879a2.632 2.8 0 0 0-.03.147c-.148.866-.34 1.767-.556 2.684h2.71c.16-.736.315-1.472.436-2.186 0 0 1.213-5.45.833-11.705-.5-8.23-4.415-17.853-16.826-18.278z"/><path style="opacity:.2;fill:#fff" d="m32 4-.1.02c-12.41.424-16.326 10.046-16.826 18.277a40.998 40.998 0 0 0-.062 2.918c.008-.63.023-1.266.062-1.918.5-8.23 4.416-17.853 16.826-18.277L32 5l.1.02c12.41.424 16.326 10.046 16.826 18.277.04.652.054 1.288.062 1.918.01-.944-.001-1.913-.062-2.918-.5-8.23-4.416-17.853-16.826-18.277zM16.566 38.135l-8.08 7.023c-1.156 1.208-1.58 2.67-1.455 4.063.115-1.073.574-2.142 1.455-3.063l8.274-7.191-.194-.832zm30.868 0-.196.83 8.276 7.193c.88.92 1.34 1.99 1.455 3.063.124-1.392-.3-2.855-1.455-4.063zm-27.89 16.1c0 .361.011.736-.01 1.08l.01.01c.004-.361.016-.713 0-1.09zm24.911.003c-.015.377-.003.727 0 1.086l.012-.01c-.022-.342-.01-.715-.012-1.076zm-23.502 3.793a5.652 5.652 0 0 1-.203.672s-.245.591.01.969c.182-.486.338-1.054.262-1.445-.013-.063-.043-.13-.069-.196zm22.094 0c-.026.066-.056.133-.068.196-.077.391.08.959.261 1.445.255-.378.01-.969.01-.969a5.65 5.65 0 0 1-.203-.672z"/></svg>