<svg width="64" height="64" xmlns="http://www.w3.org/2000/svg"><rect x="4" y="5" width="56" height="56" rx="5" ry="5" style="opacity:.2"/><rect x="4" y="4" width="56" height="56" rx="5" ry="5" style="fill:#292d96"/><path d="M9 4C6.23 4 4 6.23 4 9v46c0 1.385.557 2.635 1.46 3.54L58.54 5.46A4.985 4.985 0 0 0 55 4z" style="fill:#0072c0"/><path d="M8 55.4c0 .887.713 1.6 1.6 1.6h4.8c.887 0 1.6-.713 1.6-1.6v-4.8c0-.887-.713-1.6-1.6-1.6H9.6c-.887 0-1.6.713-1.6 1.6zm0-10c0 .887.713 1.6 1.6 1.6h4.8c.887 0 1.6-.713 1.6-1.6v-4.8c0-.887-.713-1.6-1.6-1.6H9.6c-.887 0-1.6.713-1.6 1.6zm0-10c0 .887.713 1.6 1.6 1.6h4.8c.887 0 1.6-.713 1.6-1.6v-4.8c0-.887-.713-1.6-1.6-1.6H9.6c-.887 0-1.6.713-1.6 1.6zm0-10c0 .887.713 1.6 1.6 1.6h4.8c.887 0 1.6-.713 1.6-1.6v-4.8c0-.887-.713-1.6-1.6-1.6H9.6c-.887 0-1.6.713-1.6 1.6zm0-10c0 .887.713 1.6 1.6 1.6h4.8c.887 0 1.6-.713 1.6-1.6v-4.8c0-.887-.713-1.6-1.6-1.6H9.6C8.713 9 8 9.713 8 10.6z" style="opacity:.2"/><path d="M8 54.4c0 .887.713 1.6 1.6 1.6h4.8c.887 0 1.6-.713 1.6-1.6v-4.8c0-.887-.713-1.6-1.6-1.6H9.6c-.887 0-1.6.713-1.6 1.6zm0-10c0 .887.713 1.6 1.6 1.6h4.8c.887 0 1.6-.713 1.6-1.6v-4.8c0-.887-.713-1.6-1.6-1.6H9.6c-.887 0-1.6.713-1.6 1.6zm0-10c0 .887.713 1.6 1.6 1.6h4.8c.887 0 1.6-.713 1.6-1.6v-4.8c0-.887-.713-1.6-1.6-1.6H9.6c-.887 0-1.6.713-1.6 1.6zm0-10c0 .887.713 1.6 1.6 1.6h4.8c.887 0 1.6-.713 1.6-1.6v-4.8c0-.887-.713-1.6-1.6-1.6H9.6c-.887 0-1.6.713-1.6 1.6zm0-10c0 .887.713 1.6 1.6 1.6h4.8c.887 0 1.6-.713 1.6-1.6V9.6c0-.887-.713-1.6-1.6-1.6H9.6C8.713 8 8 8.713 8 9.6z" style="fill:#fff;font-variant-east_asian:normal"/><path d="M9 4C6.23 4 4 6.23 4 9v1c0-2.77 2.23-5 5-5h46c2.77 0 5 2.23 5 5V9c0-2.77-2.23-5-5-5z" style="fill:#fff;opacity:.2"/><path d="M37 9v2h19V9zm0 4v2h11.875v-2zm0 4v2h19v-2zm0 4v2h16.625v-2zm0 4v2h19v-2zm0 4v2h7.125v-2zm0 4v2h19v-2zm0 4v2h16.625v-2zm0 4v2h19v-2zm0 4v2h14.25v-2z" style="opacity:.2"/><path d="M37 8v2h19V8zm0 4v2h11.875v-2zm0 4v2h19v-2zm0 4v2h16.625v-2zm0 4v2h19v-2zm0 4v2h7.125v-2zm0 4v2h19v-2zm0 4v2h16.625v-2zm0 4v2h19v-2zm0 4v2h14.25v-2z" style="fill:#ffbb1f"/></svg>