<svg width="64" height="64" xmlns="http://www.w3.org/2000/svg"><path d="M24 5a9 9 0 0 0-9 9 9 9 0 0 0 9 9 9 9 0 0 0 9-9 9 9 0 0 0-9-9zM11 24c-3.878 0-7 3.122-7 7v21c0 1.108.892 2 2 2h35c1.108 0 2-.892 2-2V31c0-3.878-3.122-7-7-7z" style="opacity:.2"/><path d="M24 4a9 9 0 0 0-9 9 9 9 0 0 0 9 9 9 9 0 0 0 9-9 9 9 0 0 0-9-9zM11 23c-3.878 0-7 3.122-7 7v21c0 1.108.892 2 2 2h35c1.108 0 2-.892 2-2V30c0-3.878-3.122-7-7-7z" style="fill:#008ecc"/><path d="M24 4a9 9 0 0 0-9 9 9 9 0 0 0 .021.424A9 9 0 0 1 24 5a9 9 0 0 1 8.979 8.576A9 9 0 0 0 33 13a9 9 0 0 0-9-9zM11 23c-3.878 0-7 3.122-7 7v1c0-3.878 3.122-7 7-7h25c3.878 0 7 3.122 7 7v-1c0-3.878-3.122-7-7-7H11z" style="fill:#fff;opacity:.2"/><path d="M41 12a9 9 0 0 0-9 9 9 9 0 0 0 9 9 9 9 0 0 0 9-9 9 9 0 0 0-9-9zM28 31c-3.878 0-7 3.122-7 7v21c0 1.108.892 2 2 2h35c1.108 0 2-.892 2-2V38c0-3.878-3.122-7-7-7z" style="opacity:.2"/><path d="M41 11a9 9 0 0 0-9 9 9 9 0 0 0 9 9 9 9 0 0 0 9-9 9 9 0 0 0-9-9zM28 30c-3.878 0-7 3.122-7 7v21c0 1.108.892 2 2 2h35c1.108 0 2-.892 2-2V37c0-3.878-3.122-7-7-7H28z" style="fill:#00ac7d"/><path d="m35.889 37.111-2 2 6.531 8.164-1.226 1.471-2.305-2.635-8 10h24l-5-6L47 51l-3.845-4.807 6.734-8.082-1-1-6.633 7.959zm5.428 11.285L45 53l-1.111 1.111-3.756-4.293z" style="opacity:.2"/><path d="m36 36-2 2 6.531 8.164-1.226 1.471L37 45l-8 10h24l-5-6-.889.889-3.845-4.807L50 37l-1-1-6.633 7.959zm5.428 11.285 3.683 4.604L44 53l-3.756-4.293z" style="fill:#fff"/><path d="M41 11a9 9 0 0 0-9 9 9 9 0 0 0 .021.424A9 9 0 0 1 41 12a9 9 0 0 1 8.979 8.576A9 9 0 0 0 50 20a9 9 0 0 0-9-9zM28 30c-3.878 0-7 3.122-7 7v1c0-3.878 3.122-7 7-7h25c3.878 0 7 3.122 7 7v-1c0-3.878-3.122-7-7-7H28z" style="fill:#fff;opacity:.2"/></svg>