<svg xmlns="http://www.w3.org/2000/svg" width="64" height="64" version="1"><path style="opacity:.2" d="M4 56v2c0 1.662 1.338 3 3 3h50c1.662 0 3-1.338 3-3v-2c0 1.662-1.338 3-3 3H7c-1.662 0-3-1.338-3-3z"/><rect style="fill:#dcdcbe" width="56" height="56" x="4" y="4" rx="3" ry="3"/><path style="opacity:.5;fill:#2a2a2a;fill-rule:evenodd" d="M10 18v2h44v-2H10zm0 6v2h44v-2H10zm0 6v2h44v-2H10zm0 6v2h44v-2H10zm0 6v2h44v-2H10z"/><path style="opacity:.1;fill:#fff" d="M7 4C5.338 4 4 5.338 4 7v1c0-1.662 1.338-3 3-3h50c1.662 0 3 1.338 3 3V7c0-1.662-1.338-3-3-3H7z"/><path d="M16.681 13.4c-.7-.8-1.7-1.3-2.9-1.2-.1-.2-.5-2.2-.5-2.2s1.4-2.1 1.7-2.5c1.5-2.4 1.6-4.3.7-6.2-.3-.7-1.1-1.3-1.9-1.3-.6 0-1.1.5-1.4 1.1-1 1.7-1 4.9-.5 7.1 0 0-.5.5-1 1.1-1 1.1-2.1 2.3-2.5 3.9-.5 1.8-.1 3.5 1 4.8 1.2 1.5 3 2.2 5.2 2 .4 1.9.7 3.1.1 4.2-.2.4-.6.8-1.3.8-.2 0-.3 0-.5-.1.6-.3 1.1-.9 1.1-1.6 0-1-.8-1.8-1.8-1.8-1.7.1-1.8 1.8-1.8 1.8 0 .6.2 1.2.6 1.6.5.5 1.3.9 2.2.9 1.1 0 2.2-.4 2.6-2 .4-1.3-.3-3.4-.4-4.1 1.1-.5 2.1-2 2.2-3 .2-1.1-.2-2.4-.9-3.3zm-3.2-11.1c.1-.2.3-.3.5-.3.1 0 .3.1.4.2.4.2.5.6.5 1.2-.1 1.5-1.4 3.3-2.1 3.9-.3-1.4-.1-4 .7-5zm-2.9 15.7c-.7-.7-1-1.7-.9-2.7.2-1.6 1.3-2.9 2.2-3.9.2-.2.4-.4.5-.6.1.5.4 1.3.5 1.7-1.2.5-1.9 2.1-1.8 3.4 0 .6.2 1 .5 1.4.1.1.2.2.3.2.1 0 .3-.1.3-.2.1-.1.1-.3 0-.4-.1-.1-.1-.2-.1-.4-.1-.9.5-1.6 1.2-1.9.1.6.8 3.7.9 4.4-1.3.4-2.7 0-3.6-1zm4.5.6c-.2-.7-.3-1.5-.5-2.4-.1-.6-.2-1.3-.4-1.9 1.3 0 1.7 1.1 1.8 1.5.3 1.1 0 2.2-.9 2.8z" transform="matrix(1.69056 0 0 1.55038 .191 10)" style="fill:#2a2a2a"/></svg>