<svg xmlns="http://www.w3.org/2000/svg" width="64" height="64" version="1"><path style="opacity:.2" d="M32 5a28 28 0 0 0-14.363 4h-3.989A5.637 5.637 0 0 0 8 14.648v3.993A28 28 0 0 0 4 33a28 28 0 0 0 4 14.363v3.989A5.637 5.637 0 0 0 13.648 57h3.993A28 28 0 0 0 32 61a28 28 0 0 0 14.363-4h3.989A5.637 5.637 0 0 0 56 51.352v-3.993A28 28 0 0 0 60 33a28 28 0 0 0-4-14.363v-3.989A5.637 5.637 0 0 0 50.352 9h-3.993A28 28 0 0 0 32 5z"/><circle style="fill:#b2d1e9" cx="32" cy="32" r="28"/><rect style="fill:#b2d1e9" width="48" height="48" x="8" y="8" rx="5.647" ry="5.647"/><circle style="fill:#4f4f4f" cx="32" cy="32" r="24"/><circle style="opacity:.2" cx="32" cy="33" r="20"/><circle style="fill:#ffcf24" cx="32" cy="32" r="20"/><circle style="fill:#4f4f4f" cx="32" cy="32" r="7"/><circle style="fill:#4f4f4f" cx="51" cy="51" r="2"/><circle style="fill:#4f4f4f" cx="13" cy="51" r="2"/><path style="opacity:.2;fill:#fff" d="M32 12a20 20 0 0 0-20 20 20 20 0 0 0 .018.494A20 20 0 0 1 32 13a20 20 0 0 1 19.975 19.49A20 20 0 0 0 52 32a20 20 0 0 0-20-20z"/><circle style="fill:#4f4f4f" cx="51" cy="13" r="2"/><circle style="fill:#4f4f4f" cx="13" cy="13" r="2"/><path style="opacity:.2;fill:#fff" d="M32 4a28 28 0 0 0-14.363 4h-3.99A5.634 5.634 0 0 0 8 13.646v1A5.634 5.634 0 0 1 13.646 9h3.99A28 28 0 0 1 32 5a28 28 0 0 1 14.357 4h3.997A5.634 5.634 0 0 1 56 14.646v-1A5.634 5.634 0 0 0 50.354 8h-3.997A28 28 0 0 0 32 4zm24 13.637v1a28 28 0 0 1 3.984 14.072A28 28 0 0 0 60 32a28 28 0 0 0-4-14.363zm-48 .006A28 28 0 0 0 4 32a28 28 0 0 0 .016.291A28 28 0 0 1 8 18.643v-1z"/></svg>