<svg width="64" height="64" xmlns="http://www.w3.org/2000/svg"><circle cx="32" cy="33" r="28" style="opacity:.2"/><circle cx="32" cy="32" r="28" style="fill:#29d682"/><path d="M32 4A28 28 0 0 0 4 32a28 28 0 0 0 .021.586A28 28 0 0 1 32 5a28 28 0 0 1 27.979 27.414A28 28 0 0 0 60 32 28 28 0 0 0 32 4z" style="fill:#fff;opacity:.2"/><path d="M23 16v8h-8v4h8v3h-8v4h8v3h-8v4h8v8h4v-8h3v8h4v-8h3v8h4v-8h8v-4h-8v-3h8v-4h-8v-3h8v-4h-8v-8h-4v8h-3v-8h-4v8h-3v-8z" style="opacity:.2"/><path d="M23 15v8h-8v4h8v3h-8v4h8v3h-8v4h8v8h4v-8h3v8h4v-8h3v8h4v-8h8v-4h-8v-3h8v-4h-8v-3h8v-4h-8v-8h-4v8h-3v-8h-4v8h-3v-8z" style="fill:#e4e4e4"/><rect x="21" y="22" width="22" height="22" rx="3" ry="3" style="opacity:.1"/><rect x="21" y="21" width="22" height="22" rx="3" ry="3" style="fill:#3f3f3f"/><circle cx="26" cy="26" r="3" style="fill:#fff"/></svg>