<svg xmlns="http://www.w3.org/2000/svg" width="64" height="64" version="1"><path style="opacity:.2" d="M8.2 5A4.19 4.19 0 0 0 4 9.2v47.6A4.19 4.19 0 0 0 8.2 61h19.6a4.19 4.19 0 0 0 4.2-4.2 4.19 4.19 0 0 0 4.2 4.2h19.6a4.19 4.19 0 0 0 4.2-4.2V9.2A4.19 4.19 0 0 0 55.8 5H36.2A4.19 4.19 0 0 0 32 9.2 4.19 4.19 0 0 0 27.8 5z"/><rect style="fill:#ffe658" width="28" height="56" x="32" y="4" rx="4.2" ry="4.2"/><rect style="fill:#fff689" width="28" height="56" x="4" y="4" rx="4.2" ry="4.2"/><path style="opacity:.1" d="m18.143 21.66-1.221 1.092.027 3.295-8.75-.252L9.49 27.14h7.47l.02 2.924h-4.232l-1.67-.797.07 8.217 1.83-.943v-1.492h4.043l.022 3.994-8.666-.069 2.26 2.291.967-1.236h5.449l.013 2.328c0 .693.647 1.381.647 1.381l1.79-1.31s-.858-.54-.858-1.163l-.022-1.236h8.898l-2.529-2.164-1.217 1.234-5.191-.043-.072-4.007h2.476l.764 1.601 1.728-1.35-.539-.617v-4.11l1.182-.724-3.23-1.529.015 1.744h-2.543l-.056-2.924h7.67l-2.526-2.562-1.22 1.637-3.965-.127zm26.998.316c0 2.73-.054 5.694-.432 8.086l-8.51-.039.928 1.035h7.314c-.917 4.093-3.028 7.64-7.918 10.565l.325 1.992c5.211-2.474 8.54-6.333 9.597-12.557h9.262l-3.268-3.267-1.435 2.3-4.363-.019c.113-1.023.168-2.504.168-3.648l1.625-.37zm4.263 2.366-.924.46c.966.892 2.272 1.615 2.317 2.967l1.853-1.39c-.745-1.1-2.024-1.534-3.246-2.037zM12.98 30.976h4.005l.012 1.155H12.98zm5.412 0h2.529l.014 1.155H18.43zm28.511.916c0 6.323 7.09 11.77 7.09 11.77l1.809-2.873s-7.88-3.798-7.88-8.666zM12.98 33.037h4.025l.008 1.101h-4.033zm5.474 0h2.488l.014 1.101h-2.469z"/><path style="fill:#c58c00" d="m18.142 20.66-1.22 1.091.028 3.296-8.75-.251 1.29 1.344h7.47l.02 2.925h-4.232l-1.67-.798.07 8.216 1.83-.943v-1.49h4.043l.022 3.993-8.665-.068 2.258 2.291.968-1.237h5.45l.013 2.328c0 .693.646 1.381.646 1.381l1.79-1.31s-.858-.54-.858-1.162l-.022-1.237h8.898l-2.53-2.164-1.216 1.235-5.19-.043-.074-4.008h2.477l.763 1.6 1.729-1.348-.539-.618v-4.11l1.182-.724-3.23-1.528.016 1.744h-2.543l-.057-2.925h7.67l-2.527-2.562-1.22 1.636-3.964-.126zm-5.164 9.316h4.007l.011 1.154h-4.018zm5.413 0h2.53l.013 1.154h-2.505zm-5.413 2.062h4.026l.009 1.1h-4.035zm5.476 0h2.488l.014 1.1h-2.47zM45.141 20.976c0 2.73-.054 5.694-.432 8.086l-8.509-.038.927 1.035h7.314c-.917 4.093-3.029 7.638-7.918 10.563l.325 1.994c5.212-2.474 8.54-6.333 9.598-12.557h9.261l-3.268-3.267-1.435 2.3-4.364-.019c.113-1.023.17-2.504.17-3.649l1.624-.369zm4.263 2.365-.924.462c.966.891 2.272 1.615 2.316 2.967l1.854-1.392c-.745-1.1-2.024-1.534-3.246-2.037zm-2.502 7.552c0 6.323 7.09 11.769 7.09 11.769l1.808-2.874s-7.878-3.797-7.878-8.665z"/><path style="opacity:.2;fill:#fff" d="M8.2 4A4.19 4.19 0 0 0 4 8.2v1A4.19 4.19 0 0 1 8.2 5h19.6A4.19 4.19 0 0 1 32 9.2 4.19 4.19 0 0 1 36.2 5h19.6A4.19 4.19 0 0 1 60 9.2v-1A4.19 4.19 0 0 0 55.8 4H36.2A4.19 4.19 0 0 0 32 8.2 4.19 4.19 0 0 0 27.8 4H8.2z"/></svg>