<svg xmlns="http://www.w3.org/2000/svg" width="64" height="64"><path style="opacity:.2" d="M60 33.157a28 28 0 1 0-56 0 28 28 0 0 0 56 0"/><path style="fill:#4f4f4f" d="M60 32.157a28 28 0 1 0-56 0 28 28 0 0 0 56 0"/><path style="opacity:.2" d="M11 33c0 11.58 9.42 21 21 21s21-9.42 21-21-9.42-21-21-21-21 9.42-21 21z"/><path style="fill:#fff" d="M11 32c0 11.58 9.42 21 21 21s21-9.42 21-21-9.42-21-21-21-21 9.42-21 21z"/><path style="fill:#366adb" d="M32 17.467v15.261A12.363 12.363 0 0 0 27.8 32c-5.412 0-9.8 3.134-9.8 7s4.388 7 9.8 7c5.412 0 10.2-3.134 10.2-7V22s2.818 2.433 3.769 4.956c.486 1.29.484 2.602-.632 3.626-.907.52-1.204 1.324-1.045 2.023.242 1.063 1.535 1.888 3.33 1.124C46.123 32.322 47 29.8 47 27.7 46.999 21.4 38.999 16 33.4 16 32 16 32 17.467 32 17.467z"/><path style="opacity:.1;fill:#fff" d="M31.34 4.008A28 28 0 0 0 4 32.156a28 28 0 0 0 .016.262A28 28 0 0 1 31.34 5.008a28 28 0 0 1 28.64 27.705 28 28 0 0 0 .02-.557A28 28 0 0 0 31.34 4.008z"/></svg>