<svg xmlns="http://www.w3.org/2000/svg" width="64" height="64" version="1"><rect style="opacity:.2" width="56" height="56" x="4" y="5" rx="2.8" ry="2.8"/><rect style="fill:#e4e4e4" width="56" height="56" x="4" y="4" rx="2.8" ry="2.8"/><path style="opacity:.1" d="M31.031 13a4.11 4.11 0 0 0-1.031.117c-.806.275-1.229.987-2.875 4.836-1.062 2.483-2.6 6.324-3.414 8.535-1.431 3.883-1.489 4.183-1.64 8.852-.145 4.432-.106 4.873.484 5.293.353.251 1.187.41 1.847.355 1.148-.094 1.28-.249 3.024-3.511l1.828-3.473 3.023-.008c7.064-.01 14.428-3.958 16.98-9.183 2.316-4.785-1.002-9.492-6.823-11.118-2.79-.717-6.87-.709-8.297.016-.613.31-.907.444-1.223.371-.078-.655-.89-1.062-1.883-1.082zm7.735 4c4.067.008 3.91 2.865 2.52 7.086-1.1 2.318-3.94 5.308-5.919 6.234-1.164.546-2.13.68-4.933.68-1.919 0-3.58-.141-3.692-.316-.485-.76 4.754-10.08 6.59-11.727C34.96 17.497 36.337 17 38.766 17zM20.828 41.508l-1.074 1.015c-1.713 1.612-2.079 2.8-1.613 5.301.361 1.945.34 2.206-.301 3.07-.385.52-1.2 1.108-1.805 1.31-.605.2-.98.493-.832.644.368.376 3.021.028 5.113-.668 3.85-1.281 5.449-3.188 5.649-6.73l.086-2.833c-1.565.502-3.725.624-5.223-1.11z"/><path style="fill:#296694" d="M31.031 12a4.11 4.11 0 0 0-1.031.117c-.806.275-1.229.987-2.875 4.836-1.062 2.483-2.6 6.324-3.414 8.535-1.431 3.883-1.489 4.183-1.64 8.852-.145 4.432-.106 4.873.484 5.293.353.251 1.187.41 1.847.355 1.148-.094 1.28-.249 3.024-3.511l1.828-3.473 3.023-.008c7.064-.01 14.428-3.958 16.98-9.183 2.316-4.785-1.002-9.492-6.823-11.118-2.79-.717-6.87-.709-8.297.016-.613.31-.907.444-1.223.371-.078-.655-.89-1.062-1.883-1.082zm7.735 4c4.067.008 3.91 2.865 2.52 7.086-1.1 2.318-3.94 5.308-5.919 6.234-1.164.546-2.13.68-4.933.68-1.919 0-3.58-.141-3.692-.316-.485-.76 4.754-10.08 6.59-11.727C34.96 16.497 36.337 16 38.766 16zM20.828 40.508l-1.074 1.015c-1.713 1.612-2.079 2.8-1.613 5.301.361 1.945.34 2.206-.301 3.07-.385.52-1.2 1.108-1.805 1.31-.605.2-.98.493-.832.644.368.376 3.021.028 5.113-.668 3.85-1.281 5.449-3.188 5.649-6.73l.086-2.833c-1.565.502-3.725.624-5.223-1.11z"/><path style="opacity:.2;fill:#fff" d="M6.8 4C5.25 4 4 5.25 4 6.8v1C4 6.25 5.25 5 6.8 5h50.4C58.75 5 60 6.25 60 7.8v-1C60 5.25 58.75 4 57.2 4H6.8z"/></svg>