<svg width="64" height="64" xmlns="http://www.w3.org/2000/svg"><path d="M12 58c0 3 6 3 6 3h25s3 0 3-3-3-3-3-3-11 0-11-8c0-11 14-11 14-11s6-1 6-12c0-14-6-16-6-16s-7-3-28-3c-2.8 0-6 0-6 3s3.2 3 6 3c3 0 3 5 3 5v35c0 4-3 4-3 4s-6 0-6 3z" style="opacity:.2"/><path d="M12 57c0 3 6 3 6 3h25s3 0 3-3-3-3-3-3-11 0-11-8c0-11 14-11 14-11s6-1 6-12c0-14-6-16-6-16s-7-3-28-3c-2.8 0-6 0-6 3s3.2 3 6 3c3 0 3 5 3 5v35c0 4-3 4-3 4s-6 0-6 3z" style="fill:#ec4040"/><path d="M30 33s16-.2 16-10-16-10-16-10 2 7 2 10-2 10-2 10z" style="opacity:.1"/><path d="M30 32s16-.2 16-10-16-10-16-10 2 7 2 10-2 10-2 10z" style="fill:#4f4f4f"/><path d="M18 4c-2.8 0-6 0-6 3 0 .178.013.343.035.5C12.38 5.002 15.365 5 18 5c21 0 28 3 28 3s5.82 1.968 5.984 15.44c.003-.152.016-.285.016-.44 0-14-6-16-6-16s-7-3-28-3zm14.021 42.488c-.007.17-.021.336-.021.512 0 8 11 8 11 8s2.654.002 2.969 2.5c.02-.157.031-.322.031-.5 0-3-3-3-3-3s-10.536-.005-10.979-7.512zM21 50c0 4-3 4-3 4s-6 0-6 3c0 .178.023.343.063.5C12.691 55.002 18 55 18 55s3 0 3-4z" style="fill:#fff;opacity:.2"/><circle cx="47" cy="47.999" r="15" style="opacity:.2"/><circle cx="47" cy="46.999" r="15" style="fill:#42a1cd"/><path d="M47 40s-.945-.02-1.93.497c-.948.498-1.98 1.744-2.056 3.502h2.678C45.82 42.814 47 42.8 47 42.8s1.334-.002 1.334 1.398c0 .74-.187 1.153-.543 1.62-.355.466-.923.935-1.59 1.46-.666.525-1.431 1.106-2.076 1.952A5.557 5.557 0 0 0 43 52.599v1.4h8v-3h-4.865c.042-.061.026.044.074-.02.356-.466.924-.933 1.59-1.458.667-.525 1.432-1.108 2.076-1.953A5.557 5.557 0 0 0 51 44.198c0-1.866-1.085-3.184-2.07-3.7-.985-.518-1.93-.499-1.93-.499z" style="fill-rule:evenodd;fill:#fff"/></svg>