<svg xmlns="http://www.w3.org/2000/svg" width="64" height="64"><path style="opacity:.2" d="m20 5-9.61 8 .004.004v.002L8 15v36l12 10V26.725L44 61l9.61-8-.004-.004v-.002L55.999 51V15l-12-10v34.275z"/><path style="fill:#6ba63f" d="M56 14 44 4v56l12-10z"/><path style="fill:#42afe6" d="M8 14 20 4v56L8 50z"/><path style="fill:#96ca6b" d="m20 4 33.61 48L44 60 10.39 12z"/><path style="fill:#569e41" d="M44 38.277V60l9.605-8.004z"/><path style="fill:#70be63" d="m20 4-9.605 8.004L20 25.723z"/><path style="opacity:.2;fill:#fff" d="m20 4-9.609 8 .004.004v.002L8 14v1l2.395-1.994v-.002L10.391 13 20 5l24 34.275v-1L20 4zm24 0v1l12 10v-1L44 4z"/></svg>