<svg xmlns="http://www.w3.org/2000/svg" width="64" height="64" version="1"><path style="opacity:.2" d="M32.065 5a2.905 2.905 0 0 0-1.487.371L5.425 13.316A2.768 2.768 0 0 0 4 15.723v28.332c0 .993.543 1.91 1.425 2.407l25.153 14.166c.881.496 1.966.496 2.847 0l25.15-14.166A2.768 2.768 0 0 0 60 44.055V15.723c0-.993-.543-1.91-1.425-2.407l-25.15-7.945a2.903 2.903 0 0 0-1.36-.37z"/><path style="fill:#4a4034" d="M32.065 4a2.905 2.905 0 0 0-1.487.371L5.425 12.316A2.768 2.768 0 0 0 4 14.723v28.332c0 .993.543 1.91 1.425 2.407l25.153 14.166c.881.496 1.966.496 2.847 0l25.15-14.166A2.768 2.768 0 0 0 60 43.055V14.723c0-.993-.543-1.91-1.425-2.407l-25.15-7.945a2.903 2.903 0 0 0-1.36-.37z"/><path style="opacity:.06000001;fill:#fff" d="M32.067 4a2.905 2.905 0 0 0-1.489.371L5.425 12.317a2.786 2.786 0 0 0-1.352 1.795 2.786 2.786 0 0 0 1.352 1.796l25.153 14.167c.881.495 1.966.495 2.847 0l25.15-14.167a2.786 2.786 0 0 0 1.352-1.796 2.786 2.786 0 0 0-1.352-1.795L33.425 4.37a2.903 2.903 0 0 0-1.358-.37z"/><path style="opacity:.07999998" d="M4.416 13.28zm-.343.832c-.047.2-.072.405-.073.61v28.334c0 .993.544 1.91 1.425 2.407l25.153 14.166c.433.242.923.369 1.422.368V30.445c-.5 0-.99-.128-1.422-.37L5.425 15.908a2.786 2.786 0 0 1-1.352-1.796z"/><path style="fill:#564c3d" d="m32 15.1 17 6.272v19.164L32 49.1l-17-8.564V21.372z"/><path style="opacity:.05;fill:#fff" d="m32 15.1-17 6.271v19.165l17-7.02z"/><path style="opacity:.12999998;fill:#fff" d="m32 15.1 17 6.271v19.165l-17-7.02z"/><path style="opacity:.1" d="M32.026 25a1.12.849 0 0 0-.585.113L21.56 29.44a1.12.849 0 0 0-.56.735v8.652a1.12.849 0 0 0 .56.735l9.881 4.326a1.12.849 0 0 0 1.119 0l9.88-4.326a1.12.849 0 0 0 .56-.735v-8.652a1.12.849 0 0 0-.56-.735l-9.88-4.326a1.12.849 0 0 0-.534-.113z"/><path style="fill:#ff2a2a" d="M32.026 24a1.12.849 0 0 0-.585.113L21.56 28.44a1.12.849 0 0 0-.56.735v8.652a1.12.849 0 0 0 .56.735l9.881 4.326a1.12.849 0 0 0 1.119 0l9.88-4.326a1.12.849 0 0 0 .56-.735v-8.652a1.12.849 0 0 0-.56-.735l-9.88-4.326a1.12.849 0 0 0-.534-.113z"/><path style="fill:#ffbd30" d="M32.026 24a1.12.849 0 0 0-.585.115l-9.882 4.323a1.12.849 0 0 0-.409.312 1.12.849 0 0 0 .409.31l9.882 4.326a1.12.849 0 0 0 1.118 0l9.882-4.327a1.12.849 0 0 0 .409-.309 1.12.849 0 0 0-.409-.312l-9.882-4.323a1.12.849 0 0 0-.533-.115z"/><path style="fill:#ff6f2a" d="M21.15 28.75a.699.699 0 0 0-.15.424v8.652c0 .303.214.582.559.733l9.882 4.327c.17.074.363.114.559.114v-9.5c-.196 0-.389-.04-.559-.114l-9.882-4.327a1.03 1.03 0 0 1-.409-.309z"/><path style="opacity:.1;fill:#fff" d="M32.066 4a2.904 2.904 0 0 0-1.488.371L5.426 12.316a2.787 2.787 0 0 0-1.354 1.795c.04.174.102.34.174.5.241-.539.65-.995 1.18-1.295l25.152-7.945a2.904 2.904 0 0 1 2.848 0l25.148 7.945c.53.3.939.756 1.18 1.295a2.73 2.73 0 0 0 .174-.5 2.787 2.787 0 0 0-1.354-1.795L33.426 4.371A2.909 2.909 0 0 0 32.066 4z"/></svg>