<svg xmlns="http://www.w3.org/2000/svg" width="64" height="64"><rect style="opacity:.2" width="45" height="56" x="10" y="5" rx="2.813" ry="2.8"/><rect style="fill:#23a8ff" width="45" height="56" x="10" y="4" rx="2.813" ry="2.8"/><path style="opacity:.2" d="M37.715 40.207a.87.87 60 0 0-.383 1.061l.87 2.328-2.189-1.17a.87.87 60 0 0-1.046 1.359l1.71 1.84-2.5-.245a.87.87 60 0 0-.443 1.658l2.262 1.03-2.379.721a.87.87 60 0 0 .222 1.703l2.509.09-1.94 1.594a.87.87 60 0 0 .86 1.488l2.328-.871-1.17 2.189a.87.87 60 0 0 1.36 1.048l1.836-1.71-.242 2.498a.87.87 60 0 0 1.659.446L42.067 55l.722 2.377a.87.87 60 0 0 1.704-.22l.088-2.51 1.596 1.94a.87.87 60 0 0 1.486-.857l-.872-2.33 2.19 1.17a.87.87 60 0 0 1.046-1.357l-1.71-1.84 2.5.244a.87.87 60 0 0 .443-1.659l-2.261-1.029 2.378-.72a.87.87 60 0 0-.223-1.705l-2.508-.09 1.939-1.594a.87.87 60 0 0-.86-1.488l-2.326.873 1.168-2.19a.87.87 60 0 0-1.358-1.047l-1.836 1.71.24-2.5a.87.87 60 0 0-1.657-.444l-1.029 2.261-.723-2.378a.87.87 60 0 0-1.702.223l-.09 2.508-1.594-1.939a.87.87 60 0 0-1.103-.203zm.864 4.698 1.158 2.004a3.192 3.192 0 0 0-.426 1.59l-2 1.154a5.32 5.32 0 0 1 1.268-4.748zm2.767-1.59a5.32 5.32 0 0 1 4.749 1.267L44.09 45.74a3.192 3.192 0 0 0-1.59-.426zm.089 3.344a2.128 2.128 0 0 1 2.906.778 2.128 2.128 0 0 1-.779 2.907 2.128 2.128 0 0 1-2.906-.779 2.128 2.128 0 0 1 .779-2.906zm-2.533 5.761 2.005-1.157a3.192 3.192 0 0 0 1.59.426l1.153 1.999a5.32 5.32 0 0 1-4.748-1.268zm6.784-3.917 2-1.154a5.32 5.32 0 0 1-1.269 4.749l-1.157-2.005a3.192 3.192 0 0 0 .426-1.59z"/><path style="opacity:.1" d="M42 5v23.1l3.5-2.1 3.5 2.1V5z"/><path style="fill:#f14d4d" d="M42 4v23.1l3.5-2.1 3.5 2.1V4z"/><path style="opacity:.2" d="M12.813 4A2.8 2.8 0 0 0 10 6.8v50.4a2.8 2.8 0 0 0 2.813 2.8H18V4z"/><path style="fill:#f8d084" d="M37.715 39.207a.87.87 60 0 0-.383 1.061l.87 2.328-2.189-1.17a.87.87 60 0 0-1.046 1.359l1.71 1.84-2.5-.245a.87.87 60 0 0-.443 1.658l2.262 1.03-2.379.721a.87.87 60 0 0 .222 1.703l2.509.09-1.94 1.594a.87.87 60 0 0 .86 1.488l2.328-.871-1.17 2.189a.87.87 60 0 0 1.36 1.048l1.836-1.71-.242 2.498a.87.87 60 0 0 1.659.446L42.067 54l.722 2.377a.87.87 60 0 0 1.704-.22l.088-2.51 1.596 1.94a.87.87 60 0 0 1.486-.857l-.872-2.33 2.19 1.17a.87.87 60 0 0 1.046-1.357l-1.71-1.84 2.5.244a.87.87 60 0 0 .443-1.659l-2.261-1.029 2.378-.72a.87.87 60 0 0-.223-1.705l-2.508-.09 1.939-1.594a.87.87 60 0 0-.86-1.488l-2.326.873 1.168-2.19a.87.87 60 0 0-1.358-1.047l-1.836 1.71.24-2.5a.87.87 60 0 0-1.657-.444l-1.029 2.261-.723-2.378a.87.87 60 0 0-1.702.223l-.09 2.508-1.594-1.939a.87.87 60 0 0-1.103-.203zm.864 4.698 1.158 2.004a3.192 3.192 0 0 0-.426 1.59l-2 1.154a5.32 5.32 0 0 1 1.268-4.748zm2.767-1.59a5.32 5.32 0 0 1 4.749 1.267L44.09 44.74a3.192 3.192 0 0 0-1.59-.426zm.089 3.344a2.128 2.128 0 0 1 2.906.778 2.128 2.128 0 0 1-.779 2.907 2.128 2.128 0 0 1-2.906-.779 2.128 2.128 0 0 1 .779-2.906zm-2.533 5.761 2.005-1.157a3.192 3.192 0 0 0 1.59.426l1.153 1.999a5.32 5.32 0 0 1-4.748-1.268zm6.784-3.917 2-1.154a5.32 5.32 0 0 1-1.269 4.749l-1.157-2.005a3.192 3.192 0 0 0 .426-1.59z"/><path style="opacity:.2" d="M19.204 26.588a1.145 1.145 60 0 0-.505 1.396l1.147 3.064-2.882-1.541a1.145 1.145 60 0 0-1.375 1.789l2.25 2.42-3.29-.32a1.145 1.145 60 0 0-.584 2.18l2.977 1.356-3.13.949a1.145 1.145 60 0 0 .293 2.24l3.3.118-2.551 2.098a1.145 1.145 60 0 0 1.13 1.958l3.063-1.147-1.538 2.88a1.145 1.145 60 0 0 1.788 1.38l2.416-2.25-.318 3.287a1.145 1.145 60 0 0 2.182.586l1.353-2.978.95 3.13a1.145 1.145 60 0 0 2.242-.29l.116-3.304 2.1 2.554a1.145 1.145 60 0 0 1.956-1.13l-1.148-3.065 2.881 1.541a1.145 1.145 60 0 0 1.377-1.787l-2.25-2.42 3.29.321a1.145 1.145 60 0 0 .582-2.183l-2.975-1.354 3.13-.948a1.145 1.145 60 0 0-.294-2.243l-3.3-.118 2.551-2.098a1.145 1.145 60 0 0-1.13-1.958l-3.062 1.149 1.537-2.882a1.145 1.145 60 0 0-1.787-1.378l-2.416 2.25.317-3.289a1.145 1.145 60 0 0-2.181-.584l-1.354 2.976-.95-3.13a1.145 1.145 60 0 0-2.24.293l-.119 3.301-2.098-2.552a1.145 1.145 60 0 0-1.451-.267zm1.137 6.181 1.523 2.638a4.2 4.2 0 0 0-.56 2.092l-2.63 1.518a6.999 6.999 0 0 1 1.667-6.248zm3.641-2.092a6.999 6.999 0 0 1 6.248 1.668l-2.638 1.523a4.2 4.2 0 0 0-2.091-.56zm.116 4.4a2.8 2.8 0 0 1 3.824 1.025 2.8 2.8 0 0 1-1.024 3.824 2.8 2.8 0 0 1-3.825-1.025 2.8 2.8 0 0 1 1.025-3.824zm-3.332 7.581 2.637-1.523a4.2 4.2 0 0 0 2.092.56l1.519 2.631a6.999 6.999 0 0 1-6.248-1.668zm8.926-5.153 2.63-1.52a6.999 6.999 0 0 1-1.668 6.249l-1.522-2.638a4.2 4.2 0 0 0 .56-2.091z"/><path style="fill:#f8d084" d="M19.204 25.588a1.145 1.145 60 0 0-.505 1.396l1.147 3.064-2.882-1.541a1.145 1.145 60 0 0-1.375 1.789l2.25 2.42-3.29-.32a1.145 1.145 60 0 0-.584 2.18l2.977 1.356-3.13.949a1.145 1.145 60 0 0 .293 2.24l3.3.118-2.551 2.098a1.145 1.145 60 0 0 1.13 1.958l3.063-1.147-1.538 2.88a1.145 1.145 60 0 0 1.788 1.38l2.416-2.25-.318 3.287a1.145 1.145 60 0 0 2.182.586l1.353-2.978.95 3.13a1.145 1.145 60 0 0 2.242-.29l.116-3.304 2.1 2.554a1.145 1.145 60 0 0 1.956-1.13l-1.148-3.065 2.881 1.541a1.145 1.145 60 0 0 1.377-1.787l-2.25-2.42 3.29.321a1.145 1.145 60 0 0 .582-2.183l-2.975-1.354 3.13-.948a1.145 1.145 60 0 0-.294-2.243l-3.3-.118 2.551-2.098a1.145 1.145 60 0 0-1.13-1.958l-3.062 1.149 1.537-2.882a1.145 1.145 60 0 0-1.787-1.378l-2.416 2.25.317-3.289a1.145 1.145 60 0 0-2.181-.584l-1.354 2.976-.95-3.13a1.145 1.145 60 0 0-2.24.293l-.119 3.301-2.098-2.552a1.145 1.145 60 0 0-1.451-.267zm1.137 6.181 1.523 2.638a4.2 4.2 0 0 0-.56 2.092l-2.63 1.518a6.999 6.999 0 0 1 1.667-6.248zm3.641-2.092a6.999 6.999 0 0 1 6.248 1.668l-2.638 1.523a4.2 4.2 0 0 0-2.091-.56zm.116 4.4a2.8 2.8 0 0 1 3.824 1.025 2.8 2.8 0 0 1-1.024 3.824 2.8 2.8 0 0 1-3.825-1.025 2.8 2.8 0 0 1 1.025-3.824zm-3.332 7.581 2.637-1.523a4.2 4.2 0 0 0 2.092.56l1.519 2.631a6.999 6.999 0 0 1-6.248-1.668zm8.926-5.153 2.63-1.52a6.999 6.999 0 0 1-1.668 6.249l-1.522-2.638a4.2 4.2 0 0 0 .56-2.091z"/><path style="fill:#fff;opacity:.2" d="M12.813 4A2.8 2.8 0 0 0 10 6.8v1A2.8 2.8 0 0 1 12.813 5h39.374A2.8 2.8 0 0 1 55 7.8v-1A2.8 2.8 0 0 0 52.187 4H12.813z"/></svg>