<svg xmlns="http://www.w3.org/2000/svg" width="64" height="64" version="1"><path style="opacity:.2" d="M4 56v2c0 1.662 1.338 3 3 3h50c1.662 0 3-1.338 3-3v-2c0 1.662-1.338 3-3 3H7c-1.662 0-3-1.338-3-3z"/><rect style="fill:#4f4f4f" width="56" height="56" x="4" y="4" rx="3" ry="3"/><path style="opacity:.1;fill:#fff" d="M7 4C5.338 4 4 5.338 4 7v1c0-1.662 1.338-3 3-3h50c1.662 0 3 1.338 3 3V7c0-1.662-1.338-3-3-3H7z"/><path style="opacity:.2;fill:none;stroke:#000;stroke-width:6;stroke-linecap:round;stroke-linejoin:round" d="M43 22v-4H21v7l22 16v7H21v-4"/><path style="fill:none;stroke:#ff5151;stroke-width:6;stroke-linecap:round;stroke-linejoin:round" d="M43 21v-4H21v7l22 16v7H21v-4"/></svg>