<svg xmlns="http://www.w3.org/2000/svg" width="64" height="64" version="1"><path style="opacity:.2" d="M4.05 32c-.011.334-.05.662-.05 1 0 15.512 12.488 28 28 28 15.511 0 28-12.488 28-28 0-.338-.04-.666-.05-1C59.42 47.042 47.172 59 32 59 16.825 59 4.578 47.042 4.05 32z"/><rect style="fill:#5450e3" width="56" height="56" x="4" y="4" rx="28" ry="28"/><g style="opacity:.2"><path d="m16 39 16 6 16-6v4l-16 6-16-6z"/><path d="m16 31 16 6 16-6v4l-16 6-16-6z"/><path d="m32 17-16 6v4l16 6 16-6v-4z"/></g><path style="opacity:.2;fill:#fff" d="M32 4C16.488 4 4 16.488 4 32c0 .114.011.224.018.336C4.369 17.134 16.71 5 32 5c15.29 0 27.63 12.134 27.982 27.336.007-.112.018-.222.018-.336C60 16.488 47.512 4 32 4z"/><path style="fill:#b49eff" d="m16 38 16 6 16-6v4l-16 6-16-6z"/><path style="fill:#b49eff" d="m16 30 16 6 16-6v4l-16 6-16-6z"/><path style="fill:#b49eff" d="m32 16-16 6v4l16 6 16-6v-4z"/></svg>