<svg xmlns="http://www.w3.org/2000/svg" width="64" height="64" version="1"><rect style="opacity:.2" width="49" height="60" x="-57" y="-62" rx="3.063" ry="3.068" transform="matrix(0 -1 -1 0 0 0)"/><rect style="fill:#4f4f4f" width="49" height="60" x="-56" y="-62" rx="3.063" ry="3.068" transform="matrix(0 -1 -1 0 0 0)"/><path style="opacity:.3" d="M8 13v37h48V13z"/><path style="opacity:.2" d="M44.768 30 40 30.416l.125 18.418h3.266v-.984c.475.277.99.541 1.552.777.564.25 1.153.373 1.791.373a6.1 6.1 0 0 0 4.406-1.842c.576-.596 1.039-1.345 1.39-2.232.648-1.685.572-3.38.099-4.549a7.583 7.583 0 0 0-1.188-2.203 6.282 6.282 0 0 0-1.79-1.567 4.447 4.447 0 0 0-2.28-.597c-.638 0-1.15.099-1.55.28-.401.18-.813.402-1.239.665zm-27.354.016a8.403 8.403 0 0 0-2.633.527 6.515 6.515 0 0 0-2.16 1.314 6.121 6.121 0 0 0-1.46 2.086c-.363.813-.524 1.734-.499 2.778.013.61.124 1.15.336 1.625.212.474.488.88.813 1.232a5.06 5.06 0 0 0 1.06.924c.387.257.787.472 1.174.648.387.177.737.327 1.074.422.337.109.597.19.809.244.312.136.589.27.826.405a.675.675 0 0 1 .348.584c.012.393-.149.663-.498.826-.35.162-.776.258-1.288.285-.35.014-.699-.015-1.048-.11-.362-.094-.699-.19-1.036-.312a7.525 7.525 0 0 1-.921-.392 7.291 7.291 0 0 0-.75-.34L10 47.547c.412.203.86.408 1.322.584.462.19.948.35 1.448.486.486.136.986.23 1.498.297a9.18 9.18 0 0 0 1.472.082 10.24 10.24 0 0 0 2.936-.53c.911-.31 1.685-.743 2.334-1.298a5.69 5.69 0 0 0 1.51-2.047c.362-.813.512-1.748.474-2.805-.025-.745-.163-1.395-.4-1.937a4.979 4.979 0 0 0-.897-1.397 5.54 5.54 0 0 0-1.224-.988c-.45-.27-.885-.515-1.309-.719a6.4 6.4 0 0 0-1.113-.379l-.338-.095c-.225-.054-.534-.12-.934-.215-.1-.014-.227-.041-.377-.055a2.28 2.28 0 0 1-.435-.095 1.261 1.261 0 0 1-.377-.163c-.1-.067-.149-.147-.149-.27.013-.257.112-.473.325-.622.212-.15.449-.259.736-.326.275-.068.564-.096.852-.096.3 0 .535.016.722.043.6.095 1.122.214 1.584.39.45.177.949.38 1.498.637l1.225-5.16a9.699 9.699 0 0 0-2.385-.719 12.72 12.72 0 0 0-2.584-.134zM30.133 36 25 36.387v8.918c0 1.197.386 2.113 1.143 2.744.756.63 1.737.951 2.968.951.935 0 1.75-.168 2.448-.49.697-.322 1.2-.875 1.527-1.66h.047v1.957l4.496-.168L38 36l-5.035.387.148 7.879c.015.347-.088.579-.281.72-.208.142-1.064.22-1.39.22-.401 0-1.013-.077-1.206-.231-.193-.142-.268-.386-.254-.721zm17.049 4.002c.287.026.561.102.798.219.238.116.451.273.614.467.162.193.273.426.336.671a1.806 1.806 0 0 1-.227 1.498c-.15.22-.335.425-.572.606-.237.18-.515.322-.852.412a2.391 2.391 0 0 1-.935.117 2.05 2.05 0 0 1-.824-.205 1.78 1.78 0 0 1-.6-.453 1.637 1.637 0 0 1-.35-.672 1.807 1.807 0 0 1-.05-.773c.037-.246.139-.492.289-.725.137-.22.335-.425.572-.62.237-.18.527-.32.851-.411.338-.104.65-.144.95-.131z"/><path style="fill:#ff9121" d="M44.768 29 40 29.416l.125 18.418h3.266v-.984c.475.277.99.541 1.552.777.564.25 1.153.373 1.791.373a6.1 6.1 0 0 0 4.406-1.842c.576-.596 1.039-1.345 1.39-2.232.648-1.685.572-3.38.099-4.549a7.583 7.583 0 0 0-1.188-2.203 6.282 6.282 0 0 0-1.79-1.567 4.447 4.447 0 0 0-2.28-.597c-.638 0-1.15.099-1.55.28-.401.18-.813.402-1.239.665zm-27.354.016a8.403 8.403 0 0 0-2.633.527 6.515 6.515 0 0 0-2.16 1.314 6.121 6.121 0 0 0-1.46 2.086c-.363.813-.524 1.734-.499 2.778.013.61.124 1.15.336 1.625.212.474.488.88.813 1.232a5.06 5.06 0 0 0 1.06.924c.387.257.787.472 1.174.648.387.177.737.327 1.074.422.337.109.597.19.809.244.312.136.589.27.826.405a.675.675 0 0 1 .348.584c.012.393-.149.663-.498.826-.35.162-.776.258-1.288.285-.35.014-.699-.015-1.048-.11-.362-.094-.699-.19-1.036-.312a7.525 7.525 0 0 1-.921-.392 7.291 7.291 0 0 0-.75-.34L10 46.547c.412.203.86.408 1.322.584.462.19.948.35 1.448.486.486.136.986.23 1.498.297a9.18 9.18 0 0 0 1.472.082 10.24 10.24 0 0 0 2.936-.53c.911-.31 1.685-.743 2.334-1.298a5.69 5.69 0 0 0 1.51-2.047c.362-.813.512-1.748.474-2.805-.025-.745-.163-1.395-.4-1.937a4.979 4.979 0 0 0-.897-1.397 5.54 5.54 0 0 0-1.224-.988c-.45-.27-.885-.515-1.309-.719a6.4 6.4 0 0 0-1.113-.379l-.338-.095c-.225-.054-.534-.12-.934-.215-.1-.014-.227-.041-.377-.055a2.28 2.28 0 0 1-.435-.095 1.261 1.261 0 0 1-.377-.163c-.1-.067-.149-.147-.149-.27.013-.257.112-.473.325-.622.212-.15.449-.259.736-.326.275-.068.564-.096.852-.096.3 0 .535.016.722.043.6.095 1.122.214 1.584.39.45.177.949.38 1.498.637l1.225-5.16a9.699 9.699 0 0 0-2.385-.719 12.72 12.72 0 0 0-2.584-.134zM30.133 35 25 35.387v8.918c0 1.197.386 2.113 1.143 2.744.756.63 1.737.951 2.968.951.935 0 1.75-.168 2.448-.49.697-.322 1.2-.875 1.527-1.66h.047v1.957l4.496-.168L38 35l-5.035.387.148 7.879c.015.347-.088.579-.281.72-.208.142-1.064.22-1.39.22-.401 0-1.013-.077-1.206-.231-.193-.142-.268-.386-.254-.721zm17.049 4.002c.287.026.561.102.798.219.238.116.451.273.614.467.162.193.273.426.336.671a1.806 1.806 0 0 1-.227 1.498c-.15.22-.335.425-.572.606-.237.18-.515.322-.852.412a2.391 2.391 0 0 1-.935.117 2.05 2.05 0 0 1-.824-.205 1.78 1.78 0 0 1-.6-.453 1.637 1.637 0 0 1-.35-.672 1.807 1.807 0 0 1-.05-.773c.037-.246.139-.492.289-.725.137-.22.335-.425.572-.62.237-.18.527-.32.851-.411.338-.104.65-.144.95-.131z"/><path style="fill:#fff;opacity:.1" d="M5.068 7A3.059 3.059 0 0 0 2 10.063v1A3.059 3.059 0 0 1 5.068 8h53.864C60.632 8 62 9.366 62 11.063v-1A3.059 3.059 0 0 0 58.932 7H5.068z"/><path style="fill:#fff;opacity:.2" d="M44.768 29 40 29.416l.006 1 4.734-.414.028-1.002zm-27.354.016a8.403 8.403 0 0 0-2.633.527 6.515 6.515 0 0 0-2.16 1.314 6.121 6.121 0 0 0-1.46 2.086c-.363.813-.524 1.734-.499 2.778.002.069.018.128.022.195.055-.72.21-1.376.476-1.973a6.121 6.121 0 0 1 1.461-2.086 6.515 6.515 0 0 1 2.16-1.314 8.403 8.403 0 0 1 2.633-.527c.861-.041 1.723-.001 2.584.134a9.867 9.867 0 0 1 2.166.637l.219-.918a9.699 9.699 0 0 0-2.385-.719 12.72 12.72 0 0 0-2.584-.134zM30.133 35 25 35.387v1l5.115-.385.018-1.002zM38 35l-5.035.387.02.998 4.986-.383L38 35zm9.371.01c-.638 0-1.15.099-1.55.28-.393.175-.796.396-1.212.651l-.027 1.014c.426-.263.838-.486 1.238-.666.4-.18.913-.28 1.551-.28.826 0 1.591.197 2.28.598a6.282 6.282 0 0 1 1.79 1.567c.514.651.9 1.385 1.188 2.203.18.446.303.969.35 1.537.069-.956-.068-1.84-.35-2.537a7.583 7.583 0 0 0-1.188-2.203 6.282 6.282 0 0 0-1.79-1.567 4.447 4.447 0 0 0-2.28-.597zm-31.574.353c-.01.007-.022.011-.031.018-.213.149-.312.365-.325.623 0 .122.049.202.149.27.1.067.227.12.377.162.137.04.286.082.435.095.15.014.277.041.377.055.4.095.71.16.934.215l.338.095a6.4 6.4 0 0 1 1.113.38c.424.203.86.447 1.309.718.449.271.862.596 1.224.988.362.393.66.855.897 1.397.22.504.345 1.11.383 1.79.019-.275.028-.558.017-.853-.025-.745-.163-1.395-.4-1.937a4.979 4.979 0 0 0-.897-1.397 5.54 5.54 0 0 0-1.224-.988c-.45-.27-.885-.515-1.309-.719a6.4 6.4 0 0 0-1.113-.379l-.338-.095c-.225-.054-.534-.12-.934-.215-.1-.014-.227-.041-.377-.055a2.28 2.28 0 0 1-.435-.095c-.068-.019-.112-.049-.17-.073zm33.127 5.98c-.052.181-.122.356-.22.514-.15.22-.336.425-.573.606-.237.18-.515.322-.852.412a2.391 2.391 0 0 1-.935.117 2.05 2.05 0 0 1-.824-.205 1.78 1.78 0 0 1-.6-.453 1.643 1.643 0 0 1-.342-.654c-.02.07-.048.139-.058.209-.038.258-.025.515.05.773.063.258.188.478.35.672.162.194.362.337.6.453.237.116.512.192.824.205.3.026.61-.014.935-.117.337-.09.615-.231.852-.412.237-.18.422-.386.572-.606a1.806 1.806 0 0 0 .227-1.498l-.006-.015zm-37.363.419L10 46.547c.089.044.193.081.285.125l1.276-3.91c.212.081.462.19.75.34.287.149.584.27.921.392.337.122.674.218 1.036.313.35.094.699.123 1.048.109.512-.027.938-.123 1.288-.285.349-.163.51-.433.498-.826a.672.672 0 0 0-.18-.422.877.877 0 0 1-.318.248c-.35.162-.776.258-1.288.285-.35.014-.699-.015-1.048-.11-.362-.094-.699-.19-1.036-.312a7.525 7.525 0 0 1-.921-.392 7.291 7.291 0 0 0-.75-.34zm21.535 1.62c-.014.275-.097.482-.264.604-.208.142-1.064.22-1.39.22-.401 0-1.013-.077-1.206-.231-.162-.12-.225-.326-.238-.582l-.016.86c-.014.336.061.58.254.722.193.154.805.23 1.205.23.327 0 1.183-.077 1.391-.219.193-.141.296-.373.281-.72l-.017-.883z"/><path style="opacity:.1" d="M8 13h48v1H8z"/><path style="opacity:.1;fill:#fff" d="M8 50h48v1H8z"/></svg>