<svg xmlns="http://www.w3.org/2000/svg" width="64" height="64"><path style="opacity:.2" d="M34 18a22 22 0 0 0-22 22 22 22 0 0 0 22 22 22 22 0 0 0 22-22 22 22 0 0 0-22-22z"/><path style="fill:#ba122b" d="M34 17a22 22 0 0 0-22 22 22 22 0 0 0 22 22 22 22 0 0 0 22-22 22 22 0 0 0-22-22z"/><path style="opacity:.2" d="M34 4a18 18 0 0 0-18 18 18 18 0 0 0 18 18 18 18 0 0 0 18-18A18 18 0 0 0 34 4z"/><path style="fill:#e9314e" d="M34 3a18 18 0 0 0-18 18 18 18 0 0 0 18 18 18 18 0 0 0 18-18A18 18 0 0 0 34 3z"/><path style="opacity:.2;fill:#fff" d="M34 3a18 18 0 0 0-18 18 18 18 0 0 0 .021.41A18 18 0 0 1 34 4a18 18 0 0 1 17.979 17.572A18 18 0 0 0 52 21 18 18 0 0 0 34 3z"/><path style="opacity:.2" d="M22 14A14 14 0 0 0 8 28a14 14 0 0 0 14 14 14 14 0 0 0 14-14 14 14 0 0 0-14-14z"/><path style="fill:#ef6e82" d="M22 13A14 14 0 0 0 8 27a14 14 0 0 0 14 14 14 14 0 0 0 14-14 14 14 0 0 0-14-14z"/><path style="opacity:.2;fill:#fff" d="M22 13A14 14 0 0 0 8 27a14 14 0 0 0 .021.41A14 14 0 0 1 22 14a14 14 0 0 1 13.977 13.537A14 14 0 0 0 36 27a14 14 0 0 0-14-14z"/><g style="opacity:.2"><path d="M34 22a18 18 0 0 0-18 18 18 18 0 0 0 18 18 18 18 0 0 0 18-18 18 18 0 0 0-18-18zm0 3a15 15 0 0 1 15 15 15 15 0 0 1-15 15 15 15 0 0 1-15-15 15 15 0 0 1 15-15z"/><path d="M22 18a10 10 0 0 0-10 10 10 10 0 0 0 10 10 10 10 0 0 0 10-10 10 10 0 0 0-10-10zm0 3a7 7 0 0 1 7 7 7 7 0 0 1-7 7 7 7 0 0 1-7-7 7 7 0 0 1 7-7z"/><path d="M34 8a14 14 0 0 0-14 14 14 14 0 0 0 14 14 14 14 0 0 0 14-14A14 14 0 0 0 34 8zm0 3a11 11 0 0 1 11 11 11 11 0 0 1-11 11 11 11 0 0 1-11-11 11 11 0 0 1 11-11z"/></g><path style="fill:#fff" d="M34 21a18 18 0 0 0-18 18 18 18 0 0 0 18 18 18 18 0 0 0 18-18 18 18 0 0 0-18-18zm0 3a15 15 0 0 1 15 15 15 15 0 0 1-15 15 15 15 0 0 1-15-15 15 15 0 0 1 15-15z"/><path style="fill:#fff" d="M22 17a10 10 0 0 0-10 10 10 10 0 0 0 10 10 10 10 0 0 0 10-10 10 10 0 0 0-10-10zm0 3a7 7 0 0 1 7 7 7 7 0 0 1-7 7 7 7 0 0 1-7-7 7 7 0 0 1 7-7z"/><path style="fill:#fff" d="M34 7a14 14 0 0 0-14 14 14 14 0 0 0 14 14 14 14 0 0 0 14-14A14 14 0 0 0 34 7zm0 3a11 11 0 0 1 11 11 11 11 0 0 1-11 11 11 11 0 0 1-11-11 11 11 0 0 1 11-11z"/></svg>