<svg xmlns="http://www.w3.org/2000/svg" width="64" height="64" version="1"><path style="opacity:.2" d="M32.805 5.307c-1.402-.813-3.401.044-4.481 1.92l-8.447 14.676L11.43 36.58l-1.949 3.387c-2.88 5.003-1.434 11.212 3.243 13.92l10.128 5.866c4.676 2.708 10.76.86 13.639-4.143l1.95-3.387 8.446-14.676 8.447-14.677c1.08-1.876.82-4.04-.583-4.853z"/><path style="fill:#3f3f3f" d="M32.805 4.307c-1.402-.813-3.401.044-4.481 1.92l-8.447 14.676L11.43 35.58l-1.949 3.387c-2.88 5.003-1.434 11.212 3.243 13.92l10.128 5.866c4.676 2.708 10.76.86 13.639-4.143l1.95-3.387 8.446-14.676 8.447-14.677c1.08-1.876.82-4.04-.583-4.853z"/><path style="opacity:.2" d="M31.58 8.063a1.69 1.69 0 0 0-.656.662L23.07 22.369l21.881 12.528 7.783-13.522c.226-.391.257-.748.246-.916zm-9.87 16.761L20.3 27.25l3.639 2.082 1.412-2.424zm6.065 3.473-1.41 2.426 3.639 2.082 1.412-2.424zm-8.888 1.377L17.475 32.1l3.64 2.084 1.41-2.426zm14.955 2.096-1.412 2.426 3.64 2.084 1.412-2.426zm-8.889 1.377-1.412 2.425 3.639 2.084 1.412-2.425zm-8.89 1.377-1.41 2.425 3.638 2.084 1.412-2.425zm23.845.718-1.412 2.426 3.64 2.084 1.41-2.426zM31.02 36.62l-1.413 2.426 3.64 2.084 1.411-2.426zm-8.891 1.377-1.412 2.426 3.64 2.084 1.413-2.426zm-8.889 1.377L11.828 41.8l3.639 2.084 1.412-2.426zm23.844.719-1.41 2.426 3.639 2.084 1.412-2.426zm-8.889 1.377-1.412 2.426 3.64 2.084 1.413-2.426zm-8.888 1.377-1.412 2.426 3.638 2.084 1.412-2.426zm14.955 2.096-1.412 2.425 3.64 2.084 1.41-2.425zm-8.89 1.379-1.411 2.423 3.639 2.084 1.412-2.425zm6.065 3.472-1.412 2.424 3.641 2.084 1.412-2.426z"/><path style="fill:#d7dcd7" d="M31.58 7.063a1.683 1.683 0 0 0-.656.66L23.07 21.37l21.881 12.527 7.782-13.522c.226-.391.257-.747.247-.915z"/><path style="fill:#6771f2" transform="matrix(.86784 .49684 -.50312 .86422 0 0)" d="M30.75 9.89h4.194v2.806H30.75zM37.74 9.89h4.194v2.806H37.74zM44.73 9.89h4.194v2.806H44.73zM51.72 9.89h4.194v2.806H51.72z"/><path style="fill:#ffb845" transform="matrix(.86784 .49684 -.50312 .86422 0 0)" d="M30.75 15.5h4.194v2.806H30.75z"/><path style="fill:#ff45ea" transform="matrix(.86784 .49684 -.50312 .86422 0 0)" d="M37.74 15.5h4.194v2.806H37.74z"/><path style="fill:#6771f2" transform="matrix(.86784 .49684 -.50312 .86422 0 0)" d="M44.73 15.5h4.194v2.806H44.73zM51.72 15.5h4.194v2.806H51.72z"/><path style="opacity:.4;fill:#fff" transform="matrix(.86784 .49684 -.50312 .86422 0 0)" d="M30.75 21.11h4.194v2.806H30.75zM37.74 21.11h4.194v2.806H37.74zM44.73 21.11h4.194v2.806H44.73zM51.72 21.11h4.194v2.806H51.72zM30.75 26.73h4.194v2.806H30.75zM37.74 26.73h4.194v2.806H37.74zM44.73 26.73h4.194v2.806H44.73zM51.72 26.73h4.194v2.806H51.72z"/><path style="fill:#fff;opacity:.1" d="M31.666 4c-1.205-.014-2.532.82-3.342 2.227l-8.447 14.677L11.43 35.58l-1.95 3.387a10.911 10.911 0 0 0-1.464 5.97 10.983 10.983 0 0 1 1.464-4.97l1.95-3.387 8.447-14.676 8.447-14.677c1.08-1.877 3.078-2.733 4.48-1.92l21.946 12.71c.683.396 1.09 1.114 1.209 1.962.145-1.265-.27-2.417-1.209-2.961L32.805 4.307A2.301 2.301 0 0 0 31.666 4z"/></svg>