<svg xmlns="http://www.w3.org/2000/svg" width="64" height="64" version="1"><rect style="opacity:.2" width="39" height="39" x="-61" y="-51" rx="4.179" ry="4.179" transform="matrix(0 -1 -1 0 0 0)"/><rect style="fill:#cecece" width="39" height="39" x="-60" y="-51" rx="4.179" ry="4.179" transform="matrix(0 -1 -1 0 0 0)"/><path style="opacity:.2;fill:#fff" d="M16.178 21A4.168 4.168 0 0 0 12 25.178v1A4.168 4.168 0 0 1 16.178 22h30.644A4.168 4.168 0 0 1 51 26.178v-1A4.168 4.168 0 0 0 46.822 21H16.178z"/><path style="fill:#4f4f4f" d="M31.5 26 20 34h6v12h-6l11.5 8L43 46h-6V34h6z"/><path style="fill:#7e7e7e" transform="scale(1 -1)" d="M26-40h11v33H26z"/><rect style="opacity:.2" width="11" height="33" x="-16" y="-48" rx="5.5" ry="5.5" transform="matrix(0 -1 -1 0 0 0)"/><rect style="fill:#db4539" width="11" height="33" x="-15" y="-48" rx="5.5" ry="5.5" transform="matrix(0 -1 -1 0 0 0)"/><path style="opacity:.2;fill:#fff" d="M20.5 4a5.488 5.488 0 0 0-5.477 6c.252-2.81 2.599-5 5.477-5h22a5.486 5.486 0 0 1 5.477 5A5.488 5.488 0 0 0 42.5 4h-22z"/><path style="opacity:.1" d="M26 40h11v1H26zM21.438 33 20 34h6v-1h-4.563zM37 33v1h6l-1.438-1H37zM20 46l11.5 8L43 46h-1.438L31.5 53l-10.063-7H20z"/></svg>