<svg xmlns="http://www.w3.org/2000/svg" width="64" height="64" version="1"><path style="fill:#ff766a" d="M7 8c-1.662 0-3 1.338-3 3v33h56V11c0-1.662-1.338-3-3-3H7zm52.188 47a2.837 2.837 0 0 1-2 .812L7 56h50c.88 0 1.64-.4 2.188-1z"/><path style="opacity:.2;fill:#fff" d="M7 8c-1.662 0-3 1.338-3 3v1c0-1.662 1.338-3 3-3h50c1.662 0 3 1.338 3 3v-1c0-1.662-1.338-3-3-3H7z"/><path style="opacity:.2;fill-rule:evenodd" d="M44 19a8 8 0 1 1 0 16 8 8 0 0 1 0-16z"/><path style="fill:#fffee4;fill-rule:evenodd" d="M44 18a8 8 0 1 1 0 16 8 8 0 0 1 0-16z"/><path style="fill:#d22f7a" d="M4 44v9s0 3.012 3 3l50.2-.2A2.798 2.798 0 0 0 60 53v-9z"/><path d="M4 44v-1.6s4.039-2.667 5.174-2.9c1.135-.232 2.476-.043 3.854.218 1.378.259 3.435.61 4.077.631.642.023 1.804-.056 3.154-.137 1.35-.08 3.586-.154 4.283-.146.697 0 2.438.096 4.293.21 1.855.113 4.403.303 4.981.356.579.053 1.258.15 2.03.257.771.105 2.106.265 2.578.309.473.043 1.568.193 2.838.31 1.271.117 3.304.157 3.892.114.587-.043 1.818-.478 3.19-.879 1.371-.4 2.884-.767 4.034-.677C53.528 40.157 60 42.4 60 42.4V44H10.8z"/><path style="opacity:.2" d="M4 53v1s0 3.012 3 3l50.201-.2A2.798 2.798 0 0 0 60 54v-.998a2.796 2.796 0 0 1-2.799 2.799L7 56h.518l49.67-.187a2.846 2.846 0 0 0 2-.813c-.548.6-1.308 1-2.188 1H7.518L7 56.002V56c-3 .012-3-3-3-3zm3 4h50c.88 0 1.64-.4 2.188-1a2.846 2.846 0 0 1-2 .813L7 57z"/><circle style="opacity:.2" cx="49" cy="48" r="15"/><circle style="fill:#7bbe4d" cx="49" cy="47" r="15"/><rect style="fill:#fff" width="6" height="14" x="46" y="42" rx=".888" ry=".906"/><path style="fill:#fff" d="m49 38 3.5 5 3.5 5H42l3.5-5z"/></svg>