<svg xmlns="http://www.w3.org/2000/svg" width="16" height="16"><path style="fill:#37a0f2" d="M2.8 0c-.443 0-.8.357-.8.8v14.4c0 .443.357.8.8.8H14c.443 0 .8-.357.8-.8L15 5l-4.2-1-.8-4z"/><path style="fill:#73bcf7" d="m15 5-5-5v4.167c0 .461.372.833.833.833z"/><path style="fill:#f4f4f7;fill-rule:evenodd" d="M9.125 6.202C8.103 7.923 7.293 9.46 6.77 11.182c-.277.923-.527 1.877-.77 2.804.396.033.32-.003.625 0 .225-.501.673-.978.985-1.326.774-.802 1.512-1.161 2.452-1.476.014-.945-.055-1.882.33-2.71.157-.345.404-.714.608-1.027 0-.934-.938-1.868-1.875-1.245z"/></svg>