<svg xmlns="http://www.w3.org/2000/svg" width="16" height="16"><path style="fill:#b2bfd9" d="M2.868 0A.86.86 0 0 0 2 .854v14.292a.86.86 0 0 0 .868.854h11.264a.86.86 0 0 0 .868-.854V5l-5-5z"/><path style="fill:#f8f8f0" d="m15 5-5-5v4.2a.8.8 0 0 0 .801.8z"/><path style="fill:#d6342a" d="M7.935 6C6.285 6 5 7.531 5 9.331s1.16 3.145 2.81 3.145c2.082-.148 2.496-3.446.68-3.06-.021.079.51.305.547.716.075.807-.505 1.294-1.229 1.14-.529-.112-1.167-.604-1.291-1.095-.115-.454-.058-.998.064-1.36C7.156 7.112 9.185 6.66 9.9 6.68 9.34 6.216 8.725 6 7.935 6zM9.19 7.524c-2.081.148-2.495 3.446-.68 3.06.022-.079-.508-.305-.546-.716-.075-.807.505-1.294 1.229-1.14.529.112 1.167.604 1.291 1.095.115.454.058.998-.064 1.36-.575 1.706-2.604 2.158-3.319 2.137.56.464 1.175.68 1.965.68C10.715 14 12 12.469 12 10.669s-1.16-3.145-2.81-3.145z"/></svg>