<svg xmlns="http://www.w3.org/2000/svg" width="16" height="16"><path style="fill:#b2bfd9" d="M2.8 1a.8.8 0 0 0-.8.8V15.2a.8.8 0 0 0 .8.801H13.2a.8.8 0 0 0 .801-.801V6l-4-1-1-4z"/><path style="fill:#f8f8f0" d="M14 6 9 1v4.2a.8.8 0 0 0 .801.8z"/><path style="fill:#0c49a0" d="M8.835 7.894s-.527.915-.9 1.28a2.748 2.748 0 0 1-.798.536c-.616.276-1.964.5-1.964.5l.346.473-.384.85s1.209.152 1.791.323c.294.086.596.38.85.552.436.295 1.105 1.13 1.105 1.13l.266-.531.94-.06s-.347-1.168-.425-1.77c-.04-.303-.076-.618-.021-.92.094-.518.589-1.467.589-1.467l-.907-.044zm-.28 1.597a.33.33 0 0 1 .093.022 1.246 1.246 0 0 0 .354.189c.095.1.269.387.287 1.142.018.76-.18 1.052-.289 1.156a1.26 1.26 0 0 0-.31.225c-.103.04-.397-.014-1.017-.387-.671-.405-.77-.843-.785-.944.01-.123.003-.046-.016-.166l.004.008s-.055-.329.713-.864c.516-.36.82-.396.965-.38z"/><circle style="fill:#246dd4" cx="5.5" cy="10.5" r="1.5"/><circle style="fill:#246dd4" cx="9.5" cy="8.5" r="1.5"/><circle style="fill:#246dd4" cx="9.5" cy="13.5" r="1.5"/></svg>