<svg xmlns="http://www.w3.org/2000/svg" width="16" height="16"><path style="fill:#b2bfd9" d="M2.813 0A.805.805 0 0 0 2 .8v14.4c0 .443.362.8.813.8h11.374c.45 0 .813-.357.813-.8V5l-4.063-1L10 0z"/><path style="fill:#fafafa" d="m15 5-5-5v4.167c0 .461.372.833.833.833z"/><path style="fill:#17191e" d="M8.5 6a4.5 4.5 0 1 0 0 9 4.5 4.5 0 0 0 0-9zm0 .45a4.048 4.048 0 0 1 1.01 7.968c-.021-.005-.036-.005-.063-.012a2.264 2.264 0 0 1-1.463-1.176 2.224 2.224 0 0 1 .098-2.182c.095-.157.134-.207.33-.42.258-.284.39-.47.503-.705A2.294 2.294 0 0 0 7.26 6.705c-.03-.006-.084-.006-.124-.01A4.027 4.027 0 0 1 8.5 6.45zm.841 1.35c.259.335.562.975.617 1.166.076.262.08.573.012.893-.065.301-.305.955-.516 1.404a20.45 20.45 0 0 1-.54 1.037h.754c.108-.18.294-.506.422-.758.146-.288.276-.574.366-.803l.11-.282c.024-.06.049-.108.057-.108.024 0 .133.244.28.623.112.289.34.926.399 1.117l.066.211h.7c-.017-.059-.028-.098-.064-.21-.229-.719-.525-1.502-.771-2.044-.3-.66-.542-1.14-.746-1.486-.121-.205-.331-.625-.406-.76zm-4.6.9h.706c.018.053.028.075.052.154.045.147.117.372.16.5.172.513.489 1.34.525 1.368.023.019.038.006.048-.038.005-.021.033-.101.063-.178.176-.456.611-1.32.905-1.798l.005-.008h.765c-.017.034-.02.044-.046.09-.136.237-.448.84-.563 1.087a9.253 9.253 0 0 0-.353.873c-.155.452-.194.633-.194.91 0 .335.079.592.278.901a8.082 8.082 0 0 0 .42.62c.009.011.002.01.009.019h-.752c-.02-.02-.042-.046-.22-.318-.326-.503-.604-1.044-.955-1.85A20.022 20.022 0 0 1 4.742 8.7z"/></svg>