<svg xmlns="http://www.w3.org/2000/svg" width="16" height="16"><path fill="#e64a3a" d="M2.75 1a.746.746 0 0 0-.75.75v13.5c0 .417.333.75.75.75h10.5c.418 0 .75-.332.75-.75V6l-4.125-.875L9 1z"/><path fill="#f5857a" d="M9 1v4.167c0 .458.375.833.833.833H14z"/><path fill="#fff" d="M10.51 7s-.702-.004-1.455.465c-.753.468-1.587 1.411-2.035 3.154-.319 1.239-.77 1.825-1.098 2.109-.164.141-.3.21-.387.244-.086.033-.082.027-.082.027L5 13.042V15l.504-.004s.654-.015 1.367-.455c.646-.398 1.345-1.225 1.836-2.544H10V9.998h-.68c.055-.098.039-.104.11-.208.297-.436.687-.782 1.08-.79H11V7.01z"/></svg>