<svg height="32" width="32" xmlns="http://www.w3.org/2000/svg">
    <linearGradient id="b" gradientUnits="userSpaceOnUse" x1="16" x2="16" y1="1" y2="31">
        <stop offset="0" stop-color="#ff5355"/>
        <stop offset="1" stop-color="#ff9349"/>
    </linearGradient>
    <filter id="a" color-interpolation-filters="sRGB" height="1.072" width="1.072" x="-.036" y="-.036">
        <feGaussianBlur stdDeviation=".45"/>
    </filter>
    <filter id="c" color-interpolation-filters="sRGB" height="1.043" width="1.216" x="-.108" y="-.022">
        <feGaussianBlur stdDeviation=".18"/>
    </filter>
    <path d="M16 1C7.723 1 1 7.723 1 16s6.723 15 15 15 15-6.723 15-15S24.277 1 16 1z" filter="url(#a)" opacity=".25"/>
    <path d="M16 1C7.723 1 1 7.723 1 16s6.723 15 15 15 15-6.723 15-15S24.277 1 16 1z" fill="url(#b)"/>
    <path d="M16 6a2 2 0 0 0-2 2c0 2 .667 6.667 1.333 12h1.334C17.333 14.667 18 10 18 8a2 2 0 0 0-2-2zm0 16a2 2 0 1 0 0 4 2 2 0 0 0 0-4z" filter="url(#c)" opacity=".25"/>
    <path d="M16 6a2 2 0 0 0-2 2c0 2 .667 6.667 1.333 12h1.334C17.333 14.667 18 10 18 8a2 2 0 0 0-2-2zm0 16a2 2 0 1 0 0 4 2 2 0 0 0 0-4z" fill="#fff"/>
</svg>
