<svg height="32" width="32" xmlns="http://www.w3.org/2000/svg">
    <filter id="a" color-interpolation-filters="sRGB" height="1.072" width="1.072" x="-.036" y="-.036">
        <feGaussianBlur stdDeviation=".45"/>
    </filter>
    <linearGradient id="b" gradientUnits="userSpaceOnUse" x1="16" x2="16" y1="1" y2="31">
        <stop offset="0" stop-color="#eef0f0"/>
        <stop offset="1" stop-color="#fff"/>
    </linearGradient>
    <radialGradient id="c" cx="16" cy="16" gradientUnits="userSpaceOnUse" r="8">
        <stop offset="0" stop-color="#b3b3b3"/>
        <stop offset="1" stop-color="#313131"/>
    </radialGradient>
    <path d="M16 1C7.723 1 1 7.723 1 16s6.723 15 15 15 15-6.723 15-15S24.277 1 16 1z" filter="url(#a)" opacity=".25"/>
    <path d="M16 1C7.723 1 1 7.723 1 16s6.723 15 15 15 15-6.723 15-15S24.277 1 16 1z" fill="url(#b)"/>
    <path d="M0 0h32v32H0z" fill="none"/>
    <g fill-rule="evenodd">
        <path d="M16.437 11.666h-.666l-.667 4.667L18.438 19v-.667l-2-2.667z" fill="#4e4e4e" opacity=".5"/>
        <path d="M16 8c-4.416 0-8 3.584-8 8s3.584 8 8 8 8-3.584 8-8-3.584-8-8-8zm0 2c3.312 0 6 2.688 6 6s-2.688 6-6 6-6-2.688-6-6 2.688-6 6-6z" fill="url(#c)" opacity=".5"/>
    </g>
</svg>
