<svg height="32" width="32" xmlns="http://www.w3.org/2000/svg">
    <path d="M15.969 2.962A33.986 30.683 0 0 0 4 4.942v7.881c.056 3.717.296 6.796 2.02 9.07 2.077 2.726 5.528 5.13 9.978 7.07 4.441-1.934 7.918-4.344 9.991-7.07 1.722-2.274 1.953-5.353 2.011-9.072V4.988a33.986 30.683 0 0 0-12.03-2.026z" fill="#67d388" stroke="#33a956" stroke-width="1.9994084"/>
    <path d="M15.969 2.962A33.986 30.683 0 0 0 4 4.942v7.881c.056 3.717.296 6.796 2.02 9.07 2.077 2.726 5.528 5.13 9.978 7.07 4.441-1.934 7.918-4.344 9.991-7.07 1.722-2.274 1.953-5.353 2.011-9.072V4.988a33.986 30.683 0 0 0-12.03-2.026z" fill="#67d388"/>
    <path d="M16 2.981v26c4.441-1.935 7.915-4.345 9.99-7.072 1.723-2.273 1.952-5.352 2.01-9.07V5.002A33.986 30.683 0 0 0 16 2.98z" opacity=".1"/>
    <path d="M20.975 11.1a.998 1 0 0 0-.686.3l-6.282 6.288-2.288-2.291a.998 1 0 1 0-1.412 1.413l2.995 2.997a.998 1 0 0 0 1.411 0l6.987-6.994a.998 1 0 0 0-.725-1.713z" fill="#fff"/>
</svg>
