<svg xmlns="http://www.w3.org/2000/svg" width="32" height="32"><rect style="opacity:.2" width="16" height="21" x="8" y="8" rx="1.25" ry="1.25"/><rect style="fill:#8e8e8e" width="16" height="21" x="8" y="7" rx="1.25" ry="1.25"/><rect style="opacity:.2" width="26" height="20" x="3" y="6" rx="1.25" ry="1.25"/><rect style="fill:#4f4f4f" width="26" height="20" x="3" y="5" rx="1.25" ry="1.25"/><rect style="fill:#4eafe8" width="22" height="16" x="5" y="7" rx="0" ry="0"/><path style="opacity:.1;fill:#f4f4f7" d="M5 23h22v1H5z"/><path style="fill:#f4f4f7;opacity:.1" d="M4.25 5C3.558 5 3 5.558 3 6.25v1C3 6.558 3.558 6 4.25 6h23.5c.692 0 1.25.558 1.25 1.25v-1C29 5.558 28.442 5 27.75 5H4.25z"/><path style="opacity:.2" d="M12 11v10l10-5z"/><path style="fill:#b5e8ff" d="M12 10v10l10-5z"/></svg>