<svg height="32" width="32" xmlns="http://www.w3.org/2000/svg"><path d="m16.002 1.496c-8.002 0-14.502 6.5-14.502 14.502s6.5 14.502 14.502 14.502c8.001 0 14.502-6.5 14.502-14.502 0-8.001-6.5-14.502-14.502-14.502z" fill="#4da2f3" fill-opacity=".992" opacity=".99"/><path d="m16.002 1.498c-8 0-14.5 6.5-14.5 14.5s6.5 14.5 14.5 14.5 14.5-6.5 14.5-14.5-6.5-14.5-14.5-14.5z" fill="none" opacity=".5" stroke="#002e99" stroke-linecap="round" stroke-linejoin="round"/><path d="m16 6.5v2.429a7.286 7.286 0 1 0 7.286 7.285h-2.429a4.857 4.857 0 1 1 -4.857-4.857v2.429l6.071-3.643z" fill="#fff"/></svg>