<svg height="32" width="32" xmlns="http://www.w3.org/2000/svg">
    <path d="M6.75 4.75h19.5c.831 0 1.5.689 1.5 1.544 0 0 2.25 6.706 2.25 11.956S28.5 31 26.25 31H6.75C4.5 31 3 23.5 3 18.25S5.25 6.294 5.25 6.294c.158-.84.669-1.544 1.5-1.544z" opacity=".2"/>
    <path d="M12 1h9v3h-9z" fill="#9f9f9f"/>
    <path d="M6.75 3.75h19.5c.831 0 1.5.689 1.5 1.544 0 0 2.25 6.706 2.25 11.956S28.5 30 26.25 30H6.75C4.5 30 3 22.5 3 17.25S5.25 5.294 5.25 5.294c.158-.84.669-1.544 1.5-1.544z" fill="#8e8e8e"/>
    <path d="M10.5 12.5s-1 3.25-1 6.25 1 5.75 1 5.75" fill="none" opacity=".3" stroke="#000" stroke-linecap="round" stroke-width="3"/>
    <rect height="6" opacity=".2" rx="1.5" width="27" x="3" y="3"/>
    <rect fill="#9f9f9f" height="6" rx="1.5" width="27" x="3" y="2"/>
    <path d="M16.5 12.5v12m6-12s1 3.25 1 6.25-1 5.75-1 5.75" fill="none" opacity=".3" stroke="#000" stroke-linecap="round" stroke-width="3"/>
    <path d="M4.5 2C3.669 2 3 2.669 3 3.5v1C3 3.669 3.669 3 4.5 3h24c.831 0 1.5.669 1.5 1.5v-1c0-.831-.669-1.5-1.5-1.5z" fill="#f4f4f7" opacity=".2"/>
</svg>
