<svg height="32" width="32" xmlns="http://www.w3.org/2000/svg">
    <g transform="translate(0 -1020.4)">
        <path d="M8 1036.4a10 10 0 0 1 10-10 10 10 0 0 1 10 10 10 10 0 0 1-10 10 10 10 0 0 1-10-10z" fill="#ffca28"/>
        <path d="M9 1036.4a9 9 0 0 1 9-9 9 9 0 0 1 9 9 9 9 0 0 1-9 9 9 9 0 0 1-9-9z" fill="#ffe082"/>
        <path d="M18 1029.4a7 7 0 0 1 7 7h1a8 8 0 0 0-8-8zm0-7c-.554 0-1 .446-1 1v1c0 .554.446 1 1 1s1-.446 1-1v-1c0-.554-.446-1-1-1zm-9.191 3.807a1 1 0 0 0-.71 1.709l.71.707a1 1 0 1 0 1.414-1.416l-.707-.707a.996.996 0 0 0-.707-.293zm18.385 0a1 1 0 0 0-.71.293l-.706.707a1 1 0 1 0 1.416 1.416l.707-.707a1 1 0 0 0-.707-1.71zM5 1035.4c-.554 0-1 .446-1 1s.446 1 1 1h1c.554 0 1-.446 1-1s-.446-1-1-1zm25 0c-.554 0-1 .446-1 1s.446 1 1 1h1c.554 0 1-.446 1-1s-.446-1-1-1zm-20.484 8.484a.996.996 0 0 0-.707.293l-.71.707a1 1 0 1 0 1.416 1.416l.708-.709a.998.998 0 0 0-.707-1.707zm16.969 0a.998.998 0 0 0-.707 1.707l.707.71a1 1 0 1 0 1.416-1.417l-.707-.707a1 1 0 0 0-.71-.293zM18 1047.4c-.554 0-1 .446-1 1v1c0 .554.446 1 1 1s1-.446 1-1v-1c0-.554-.446-1-1-1z" fill="#ffca28"/>
        <g fill="#2196f3">
            <rect height="4" ry="1" width="2" x="5" y="1045.4"/>
            <rect height="3" ry="1" width="2" x="9" y="1047.4"/>
            <rect height="4" ry="1" width="2" x="13" y="1045.4"/>
        </g>
        <path d="M8 1034.4v12h6a6 6 0 0 0 6-6 6 6 0 0 0-6-6z" fill="#bdbdbd"/>
        <circle cx="8" cy="1038.4" fill="#bdbdbd" r="8"/>
        <path d="M8 1035.4v10h6a5 5 0 0 0 0-10z" fill="#f5f5f5"/>
        <circle cx="8" cy="1038.4" fill="#f5f5f5" r="7"/>
        <path d="m15.148 1034.8-.889.445a7 7 0 0 1 .74 3.13 7 7 0 0 1-2.052 4.946l.707.708a8 8 0 0 0 2.346-5.655 8 8 0 0 0-.852-3.574z" fill="#bdbdbd"/>
    </g>
</svg>
