<svg xmlns="http://www.w3.org/2000/svg" height="16" viewBox="0 0 16 16" width="16"><title>Template icons dark</title><g color="#000"><path d="M0 5v11h12V5zm3 1h6v4H3zM1 6h1v1H1zm9 0h1v1h-1zM1 9h1v1H1zm9 .045h1v1.01h-1zM3 11h6v4H3zm-2 1h1v1H1zm9 0h1v1.025h-1zm-9 2h1v1H1zm9 0h1v1h-1z" style="isolation:auto;mix-blend-mode:normal;marker:none" display="block" overflow="visible" fill="#fff" stroke-width=".114" stroke-linecap="round" stroke-linejoin="round" stroke-opacity=".964"/><path style="isolation:auto;mix-blend-mode:normal;marker:none" d="M4 0v4h3V1h6v10h3V0zm1 1h1v1H5zm9 0h1v1h-1zm0 3.045h1v1.01h-1zM14 7h1v1.025h-1zm0 2h1v1h-1z" display="block" overflow="visible" fill="#fff" fill-opacity=".822" stroke-width=".114" stroke-linecap="round" stroke-linejoin="round" stroke-opacity=".964"/><path style="isolation:auto;mix-blend-mode:normal;marker:none" d="M4 7h4v2H4zM4 12h4v2H4z" display="block" overflow="visible" opacity=".2" fill="#eae5fe" stroke-width=".273" stroke-opacity=".344" paint-order="fill markers stroke"/></g></svg>