<svg height="64" viewBox="0 0 16.933 16.933" width="64" xmlns="http://www.w3.org/2000/svg">
    <linearGradient id="a" gradientTransform="matrix(1.0714 0 0 1 -.605 -280.07)" gradientUnits="userSpaceOnUse" x1="13.229" x2="2.117" y1="297" y2="280.07">
        <stop offset="0" stop-color="#66bcff"/>
        <stop offset="1" stop-color="#b29aff"/>
    </linearGradient>
    <rect fill="url(#a)" height="12.171" ry=".265" width="15.875" x=".529" y="2.381"/>
    <rect height=".529" opacity=".35" ry=".265" width="1.058" x="1.587" y="2.645"/>
    <rect height=".529" opacity=".35" ry=".265" width="2.646" x="7.144" y="2.645"/>
    <rect height=".529" opacity=".35" ry=".265" width=".529" x="15.081" y="2.645"/>
    <rect height=".529" opacity=".35" ry=".265" width=".794" x="14.023" y="2.645"/>
    <rect height=".529" opacity=".35" ry=".265" width=".529" x="13.229" y="2.645"/>
    <path d="M3.97 13.493a.528.528 0 0 0-.53.53v.529h10.054v-.53a.528.528 0 0 0-.53-.529z" fill="#f4f4f7" opacity=".35"/>
    <g fill="#ccdfff">
        <rect height="1.323" ry=".132" width="1.323" x="4.498" y="12.7"/>
        <rect height="1.323" ry=".132" width="1.323" x="6.703" y="12.7"/>
        <rect height="1.323" ry=".132" width="1.323" x="8.908" y="12.7"/>
        <rect height="1.323" ry=".132" width="1.323" x="11.113" y="12.7"/>
    </g>
    <path d="M.794 2.381a.264.264 0 0 0-.265.265v.793h15.875v-.793a.264.264 0 0 0-.264-.265z" opacity=".35"/>
</svg>
