<svg width="24" height="24" xmlns="http://www.w3.org/2000/svg"><defs><style id="current-color-scheme" type="text/css">.ColorScheme-Text{color:#8b9cbe}</style></defs><path class="ColorScheme-Text" d="M9.024 5a1 1 0 0 0-.918.553l-4 8a1 1 0 0 0 0 .894l2 4a1 1 0 0 0 1.453.381 1 1 0 0 0 .558.172H17a1 1 0 0 0 .832-.445l2-3a1 1 0 0 0 .033-1.055 1 1 0 0 0-.017-1.03l-5-8A1 1 0 0 0 14 5h-4a1 1 0 0 0-.5.135A1 1 0 0 0 9.024 5zM9 6l2.16 3.736L7 18l-2-4zm1 0h4l5 8h-4zm1.78 4.732L13.823 14h-3.688zM9.617 15H19l-2 3H8.117z" fill="currentColor"/><path class="ColorScheme-Text" d="m9 6-4 8 2 4 4.161-8.263zm1 0 5 8h4l-5-8zm-.383 9-1.5 3H17l2-3z" fill="currentColor" opacity=".25"/></svg>