<svg height="32" viewBox="0 0 8.4666665 8.4666669" width="32" xmlns="http://www.w3.org/2000/svg"><g transform="translate(4.233333 -288.268747)"><path d="m-3.7041667 288.53333c-.2885755 0-.5291666.24059-.5291666.52917v6.87916c0 .28858.240588.52917.5291666.52917h7.4083334c.2885787 0 .5291667-.24059.5291667-.52917v-5.82083c0-.28858-.2405913-.52917-.5291667-.52917h-3.70416675c-.044097 0-.058041-.007-.1111043-.0703-.053063-.0637-.1152385-.18034-.1813843-.31264-.066146-.13229-.1362626-.2802-.2485636-.41496-.1123011-.13474-.2967951-.26043-.51728105-.26043z" fill="#36404d"/><path d="m-3.7041667 288.79792c-.1465817 0-.2645833.11799-.2645833.26458v6.87917c0 .14658.1180016.26458.2645833.26458h7.4083337c.1465815 0 .2645831-.118.2645831-.26458v-5.82084c0-.14658-.1180018-.26458-.2645831-.26458h-3.70416705c-.5291666 0-.5291666-1.05834-1.05833325-1.05834z" fill="#4b6477" stroke-width=".529167"/><path d="m-.00000005 289.59166c-.220486 0-.4112389.14535-.5012613.28939-.090023.14404-.1300009.2881-.1762167.41135-.046216.12324-.095339.22076-.1462442.27388-.0509059.0531-.0949698.0837-.23461105.0837h-2.6458334c-.2885755 0-.5291666.24058-.5291666.52916v4.7625c0 .28858.240588.52917.5291666.52917h7.4083334c.2885787 0 .5291667-.24059.5291667-.52917v-5.82083c0-.28858-.2405913-.52917-.5291667-.52917z" fill="#36404d"/><path d="m-3.7041667 290.91458c-.1465818 0-.2645833.118-.2645833.26458v4.7625c0 .14658.1180015.26458.2645833.26458h7.4083337c.1465815 0 .2645831-.118.2645831-.26458v-5.82083c0-.14658-.1180018-.26458-.2645831-.26458l-3.70416705-.00001c-.5291666 0-.2645833 1.05834-1.05833325 1.05834z" fill="#4b6477"/><path d="m-.00000005 291.70833c-.5863166 0-1.05833325.47202-1.05833325 1.05833v.26459c-.1465792 0-.2645833.118-.2645833.26458v1.5875c0 .14658.1180041.26458.2645833.26458h1.58749995v-.26458h.2645834v-.26458h-.2645834v-.26459h.2645834v-.26458h.26458335v-.26458h.2645833v-.52917c0-.14658-.1180041-.26458-.2645833-.26458v-.26459c0-.58631-.47201675-1.05833-1.05833345-1.05833zm1.05833345 2.38125v.26458h.2645833v-.26458zm0 .26458h-.26458335v.26459h.26458335zm0 .26459v.26458h.2645833v-.26458zm0 .26458h-.26458335v.26458h.26458335zm-1.05833345-2.64583c.2931584 0 .5291667.23601.5291667.52916v.26459h-1.0583333v-.26459c0-.29315.2360083-.52916.5291666-.52916zm0 1.05833c.2931584 0 .5291667.23601.5291667.52917 0 .19607-.1069448.36487-.2645833.4563v.60203h-.5291667v-.60203c-.1576385-.0914-.2645833-.26023-.2645833-.4563 0-.29316.2360083-.52917.5291666-.52917z" fill="#dbdfe4"/></g></svg>