<svg xmlns="http://www.w3.org/2000/svg" width="24" height="24" version="1"><rect style="opacity:.2" width="20" height="12" x="2" y="9.5" rx="1" ry="1"/><path style="fill:#bea389" d="M2 17c0 .554.446 1 1 1h18c.554 0 1-.446 1-1V6c0-.554-.446-1-1-1h-9c-1.5 0-2-2-3.5-2H3c-.554 0-1 .446-1 1"/><rect style="opacity:.2" width="20" height="12" x="2" y="8.5" rx="1" ry="1"/><rect style="fill:#f4f4f7" width="16" height="8" x="4" y="7" rx="1" ry="1"/><rect style="fill:#d1bfae" width="20" height="12" x="2" y="9" rx="1" ry="1"/><path style="opacity:.1;fill:#f4f4f7" d="M3 3c-.554 0-1 .446-1 1v.5c0-.554.446-1 1-1h5.5c1.5 0 2 2 3.5 2h9c.554 0 1 .446 1 1V6c0-.554-.446-1-1-1h-9c-1.5 0-2-2-3.5-2z"/><path style="fill:#a38d7b" d="M9.5 11c-.277 0-.5.223-.5.5v5h.5V16h.5v-4h2.5v2H14v4.5h.5V18h.5v-5l-2-2zm5 7.5v.5h.5v-.5zm-.5 0h-.5v.5h.5zm-.5 0V18H13v.5zm-.5 0h-.5v.5h.5zm-.5 0V18H12v.5zm-.5 0h-.5v.5h.5zm-.5 0V18H11v.5zm-.5 0h-.5v.5h.5zm-.5 0V18H10v.5zm-.5 0h-.5v.5h.5zm-.5 0V18H9v.5zm0-.5h.5v-.5h-.5zm0-.5V17H9v.5zm0-.5h.5v-.5h-.5z"/></svg>