<svg height="64" viewBox="0 0 16.933 16.933" width="64" xmlns="http://www.w3.org/2000/svg">
    <linearGradient id="a" gradientTransform="rotate(-45 -338.07 -140.03)" gradientUnits="userSpaceOnUse" x1="-197.1" x2="-196.91" y1="217.68" y2="219.37">
        <stop offset="0"/>
        <stop offset="1" stop-opacity="0"/>
    </linearGradient>
    <path d="M3.44 2.378c-.294 0-.395.269-.53.53h-.793a.528.528 0 0 0-.53.528v5.292c0 .293.237.53.53.53h12.7a.529.529 0 0 0 .529-.53V3.436a.528.528 0 0 0-.53-.529H7.674c-.155-.249-.236-.53-.53-.53z" fill="#ef5350"/>
    <path d="M3.44 2.378c-.294 0-.395.269-.53.53h-.793a.528.528 0 0 0-.53.528v5.292c0 .293.237.53.53.53h12.7a.529.529 0 0 0 .529-.53V3.436a.528.528 0 0 0-.53-.529H7.674c-.155-.249-.236-.53-.53-.53z" opacity=".18"/>
    <path d="M8.467 3.436 6.085 5.817h1.323v2.382c0 .146.118.264.265.264H9.26a.264.264 0 0 0 .265-.264V5.817h1.323l-2.381-2.38z" fill="#f4f4f7" stroke="#000" stroke-opacity=".039" stroke-width=".265"/>
    <g fill="#ef5350" transform="translate(0 -280.07)">
        <rect height="7.408" ry=".529" width="15.875" x=".529" y="287.48"/>
        <path d="M8.467 286.681h7.408c.293 0 .53.236.53.53v3.968a.53.53 0 0 1-.53.53H6.152c-.294 0-.677-.277-.53-.53l2.316-3.969c.147-.253.236-.529.529-.529z"/>
    </g>
    <path d="m16.404 11.641-3.174 3.175h2.645a.527.527 0 0 0 .529-.529z" fill="url(#a)" opacity=".1"/>
</svg>
