<svg xmlns="http://www.w3.org/2000/svg" width="24" height="24"><defs><style id="current-color-scheme" type="text/css"></style></defs><circle style="fill:currentColor;color:#4285f4" cx="20" cy="4" r="2"/><path style="fill:currentColor;color:#323a41" d="M12 4c-4.432 0-8 3.568-8 8s3.568 8 8 8 8-3.568 8-8-3.568-8-8-8zm0 2a6 6 0 1 1 0 12 6 6 0 0 1 0-12zm-.602 1.146c-.175.018-.35.032-.521.067-.342.07-.666.16-.98.293a5.257 5.257 0 0 0-3.04 3.562c.01.012.022.02.034.034.281.3 1.019.716 1.566.914.3.108.88.278 1.275.359.396.081.66.16.622.164-.04.003-.217.135-.393.293-.336.302-.507.57-.652 1.047-.08.261-.073.349.03.49.063.085.344.285.622.457.278.172.605.41.72.522.433.418.717 1.169.717 1.896 0 .186.02.284.034.326.035.004.062-.003.097 0 .08-.03.202-.066.393-.162 1.597-.8 2.326-1.833 2.254-3.203-.058-1.092-.57-1.49-2.647-1.93-1.53-.324-2.351-.873-2.351-1.566 0-.183.062-.29.261-.49.215-.215.258-.229.424-.196.106.022.378.16.588.327.472.374.703.521.947.521.104 0 .198-.016.198-.031 0-.016-.079-.136-.164-.262-.472-.695-.442-1.996.066-3.105.08-.175.14-.293.13-.327-.07.005-.16-.007-.23 0zm4.903 2.452c-.095-.059-.87.754-1.047 1.111-.352.708-.22 1.171.621 2.059.291.307.642.72.752.914.11.194.205.356.23.328.026-.028.102-.254.163-.492.158-.628.17-1.72 0-2.352-.133-.49-.596-1.492-.72-1.568z"/></svg>