<svg xmlns="http://www.w3.org/2000/svg" width="24" height="24"><defs><style id="current-color-scheme" type="text/css">.ColorScheme-Text{color:#323a41}</style></defs><g style="fill:currentColor" class="ColorScheme-Text"><path style="fill:currentColor" class="ColorScheme-Text" d="M11 3c-4.418 0-8 3.579-8 8 0 4.418 3.579 8 8 8 .326 0 .647-.025.963-.063A5 5 0 0 1 11 16a5 5 0 0 1 2-3.992V11.5L12 13h-2l-1-1.5V14H7V8h2l2 3 2-3h2v3.105A5 5 0 0 1 16 11a5 5 0 0 1 2.938.96c.037-.315.062-.634.062-.96 0-4.418-3.579-8-8-8z" transform="translate(1 1)"/></g><path class="ColorScheme-Text" d="M20.465 15a4 4 0 1 0-6.928 4 4 4 0 0 0 6.928-4zm-.866.5a3 3 0 0 1-1.098 4.097l-.5-.866A2 2 0 0 0 18.733 16l.866-.5zM15.5 14.4l.5.866A2 2 0 0 0 15.269 18l-.866.5a3 3 0 0 1 1.098-4.098z" style="fill:currentColor"/></svg>