<svg xmlns="http://www.w3.org/2000/svg" width="24" height="24"><defs><style id="current-color-scheme" type="text/css">.ColorScheme-NeutralText{color:#ff9800}</style></defs><path opacity=".35" style="fill:currentColor" class="ColorScheme-NeutralText" d="M109.5 772.36c-.277 0-.5.223-.5.5v.5l-2-.002v14.502c0 .277.223.5.5.5h6c.277 0 .5-.223.5-.5v-14.501l-.5.002H112v-.5c0-.277-.223-.5-.5-.5z" transform="translate(-104 -768.36)"/><path style="fill:currentColor" class="ColorScheme-NeutralText" d="M107 782.36v5.502c0 .277.223.5.5.5h6c.277 0 .5-.223.5-.5v-5.502zM121 772.36c-2.77 0-5 2.676-5 6h5zm1 0v6h5c0-3.324-2.23-6-5-6zm-6 7v3c0 3.324 2.23 6 5 6h1c2.77 0 5-2.676 5-6v-3h-5z" transform="translate(-104 -768.36)"/></svg>