<svg xmlns="http://www.w3.org/2000/svg" width="24" height="24" version="1"><path style="opacity:.1" d="M5.729 2.491a.75.75 0 0 0-.596 1.186l2.13 3.08a.75.75 0 1 0 1.235-.854l-2.13-3.08a.75.75 0 0 0-.64-.332zm12.52 0a.75.75 0 0 0-.616.332l-2.131 3.08a.75.75 0 1 0 1.234.854l2.131-3.08a.75.75 0 0 0-.618-1.186z"/><path style="opacity:.2" d="M21 12.5V21c0 .831-.669 1.5-1.5 1.5h-15c-.831 0-1.5-.669-1.5-1.5v-8.5z"/><path style="fill:none;stroke:#1ebb68;stroke-width:1.5;stroke-linecap:round" d="m5.75 2.75 2.13 3.08M18.25 2.75l-2.13 3.08"/><path style="fill:#1ebb68" d="M21 12v8.5c0 .831-.669 1.5-1.5 1.5h-15c-.831 0-1.5-.669-1.5-1.5V12z"/><path style="fill:#30dd81" d="M12 3a9 9 0 0 0-9 9h18a9 9 0 0 0-9-9z"/><path style="opacity:.2" d="M8.5 7.5A1.5 1.5 0 0 0 7 9a1.5 1.5 0 0 0 1.5 1.5A1.5 1.5 0 0 0 10 9a1.5 1.5 0 0 0-1.5-1.5zm7 0A1.5 1.5 0 0 0 14 9a1.5 1.5 0 0 0 1.5 1.5A1.5 1.5 0 0 0 17 9a1.5 1.5 0 0 0-1.5-1.5z"/><circle style="fill:#fff" cx="8.5" cy="8.5" r="1.5"/><circle style="fill:#fff" cx="15.5" cy="8.5" r="1.5"/><path style="opacity:.2" d="M9 14.885v4.23s0 .385.429.385h5.142s.429 0 .429-.385v-3.16c0-.385-.429-.455-.429-.455H12.43l-.858-1H9.43S9 14.5 9 14.885z"/><path style="fill:#ffe963" d="M9 14.385v4.23S9 19 9.429 19h5.142S15 19 15 18.615v-3.16c0-.385-.429-.455-.429-.455H12.43l-.858-1H9.43S9 14 9 14.385z"/><path style="opacity:.2;fill:#fff" d="M12 3a9 9 0 0 0-9 9h.018A9 9 0 0 1 12 3.5a9 9 0 0 1 8.975 8.5H21a9 9 0 0 0-9-9z"/><path style="opacity:.2" d="M3 12h18v.5H3z"/><path style="fill:#fff;opacity:.2" d="M9.428 14S9 14 9 14.385v.5c0-.385.428-.385.428-.385h2.144l.856 1h2.144s.428.07.428.455v-.5c0-.385-.428-.455-.428-.455h-2.144l-.856-1H9.428z"/></svg>