<svg xmlns="http://www.w3.org/2000/svg" width="24" height="24" version="1"><path style="fill:#cddff0" d="M20 11.5a8.5 8.5 0 0 1-8.5 8.5A8.5 8.5 0 0 1 3 11.5 8.5 8.5 0 0 1 11.5 3a8.5 8.5 0 0 1 8.5 8.5z"/><path style="opacity:.2;fill:#fff" d="M11.5 3A8.5 8.5 0 0 0 3 11.5a8.5 8.5 0 0 0 .01.29A8.5 8.5 0 0 1 11.5 3.5a8.5 8.5 0 0 1 8.49 8.21 8.5 8.5 0 0 0 .01-.21A8.5 8.5 0 0 0 11.5 3z"/><path style="fill:#62b4e7" d="M16.752 19.226c-4.544 2.623-10.354 1.066-12.978-3.478C1.151 11.204 2.708 5.394 7.252 2.771c5.354-.025 8.753 11.544 9.5 16.454z"/><path style="fill:#357dc5" d="M21 11.5c0 5.246-4.254 9.5-9.5 9.5C6.253 21 2 16.746 2 11.5c2.656-4.649 14.374-1.808 19 0z"/><path style="opacity:.2" d="M2.023 11.965 2 12c0 5.246 4.253 9.5 9.5 9.5 5.246 0 9.5-4.254 9.5-9.5l-.024-.009C20.718 17.008 16.581 21 11.5 21c-5.09 0-9.232-4.006-9.476-9.035z"/></svg>