<svg xmlns="http://www.w3.org/2000/svg" width="24" height="24"><path style="opacity:.2" d="M9 11.5h6v8l-3 3-3-3z"/><path style="fill:#afafb1" d="M9 11h6v8l-3 3-3-3z"/><path style="fill:#e4e4e4" d="M9 11h3v11l-3-3z"/><rect style="opacity:.2" width="4" height="14" x="7.5" y="-19" rx="1.999" ry="2" transform="rotate(90)"/><rect style="fill:#ec8a2b" width="4" height="14" x="7" y="-19" rx="1.999" ry="2" transform="rotate(90)"/><path style="fill:#d13808" d="M10 2h4v5h-4z"/><rect style="opacity:.2" width="6" height="2" x="9" y="2.5" rx=".999" ry="1"/><rect style="fill:#ec8a2b" width="6" height="2" x="9" y="2" rx=".999" ry="1"/><path style="opacity:.2;fill:#fff" d="M7 7c-1.108 0-2 .891-2 1.999v.002c0 .085.014.166.024.249A1.989 1.989 0 0 1 7 7.5h10c1.022 0 1.852.762 1.976 1.75.01-.083.024-.164.024-.249v-.002A1.995 1.995 0 0 0 17 7zM9.999 2A.997.997 0 0 0 9 3c0 .087.015.17.035.25A.994.994 0 0 1 10 2.5h4.002c.467 0 .853.319.964.75A.998.998 0 0 0 15 3c0-.554-.445-1-.999-1z"/></svg>