<svg xmlns="http://www.w3.org/2000/svg" width="24" height="24" version="1"><path style="opacity:.2" d="M19 9.5c0 7-4 13-7 13s-7-6-7-13a7 7 0 0 1 14 0z"/><path style="fill:#356db6" d="M19 9c0 7-4 13-7 13S5 16 5 9a7 7 0 0 1 14 0z"/><path style="opacity:.2" d="M13.006 16.43c-.08-.208.64-2.02 1.07-2.692.805-1.255 1.904-1.99 3.28-2.191.657-.097.674-.085.63.438-.098 1.13-.441 1.935-1.195 2.8-.81.929-2.09 1.572-3.378 1.698-.316.03-.377.023-.407-.053z"/><path style="fill:#fff" d="M13.006 15.93c-.08-.208.64-2.02 1.07-2.692.805-1.255 1.904-1.99 3.28-2.191.657-.097.674-.085.63.438-.098 1.13-.441 1.935-1.195 2.8-.81.929-2.09 1.572-3.378 1.698-.316.03-.377.023-.407-.053z"/><path style="opacity:.1;fill:#fff" d="M12 2a7 7 0 0 0-7 7c0 .099.01.195.01.294C5.12 5.524 8.205 2.5 12 2.5c3.796 0 6.88 3.024 6.99 6.794 0-.099.01-.195.01-.294a7 7 0 0 0-7-7z"/><path style="opacity:.2" d="M10.994 16.43c.08-.208-.64-2.02-1.07-2.692-.805-1.255-1.904-1.99-3.28-2.191-.657-.097-.674-.085-.63.438.098 1.13.441 1.935 1.195 2.8.81.929 2.09 1.572 3.378 1.698.316.03.377.023.407-.053z"/><path style="fill:#fff" d="M10.994 15.93c.08-.208-.64-2.02-1.07-2.692-.805-1.255-1.904-1.99-3.28-2.191-.657-.097-.674-.085-.63.438.098 1.13.441 1.935 1.195 2.8.81.929 2.09 1.572 3.378 1.698.316.03.377.023.407-.053z"/></svg>