<svg xmlns="http://www.w3.org/2000/svg" width="24" height="24" version="1"><rect style="opacity:.2" width="20" height="20" x="2" y="2.5" rx="1" ry="1"/><rect style="fill:#4949b1" width="20" height="20" x="2" y="2" rx="1" ry="1"/><path style="opacity:.1;fill:#fff" d="M3 2c-.554 0-1 .446-1 1v.5c0-.554.446-1 1-1h18c.554 0 1 .446 1 1V3c0-.554-.446-1-1-1z"/><path style="opacity:.2" d="M12.631 4.5a.632.632 0 0 0-.446 1.078l6.737 6.737A.632.632 0 0 0 20 11.87V5.132a.632.632 0 0 0-.632-.632z"/><path style="fill:#fff" d="M12.631 4a.632.632 0 0 0-.446 1.078l6.737 6.737A.632.632 0 0 0 20 11.37V4.632A.632.632 0 0 0 19.368 4z"/></svg>