<svg xmlns="http://www.w3.org/2000/svg" width="24" height="24"><circle style="opacity:.2" cx="12" cy="12.5" r="10"/><circle style="fill:#1b627c" cx="12" cy="12" r="10"/><path style="opacity:.2" d="M12 5.5 5.75 16l5.468-3.085.782-.44zm0 0L18.25 16l-5.468-3.085-.782-.44z"/><path style="opacity:.2" d="M12 4.5a8 8 0 0 0-8 8 8 8 0 0 0 8 8 8 8 0 0 0 8-8 8 8 0 0 0-8-8zm0 1a7 7 0 0 1 7 7 7 7 0 0 1-7 7 7 7 0 0 1-7-7 7 7 0 0 1 7-7z"/><path style="fill:#fff" d="M12 4a8 8 0 0 0-8 8 8 8 0 0 0 8 8 8 8 0 0 0 8-8 8 8 0 0 0-8-8zm0 1a7 7 0 0 1 7 7 7 7 0 0 1-7 7 7 7 0 0 1-7-7 7 7 0 0 1 7-7z"/><path style="fill:#fff" d="M12 5 5.75 15.5l5.468-3.085.782-.44zm0 0 6.25 10.5-5.468-3.085-.782-.44z"/><path style="opacity:.1;fill:#fff" d="M12 2A10 10 0 0 0 2 12a10 10 0 0 0 .01.291A10 10 0 0 1 12 2.501a10 10 0 0 1 9.99 9.708A10 10 0 0 0 22 12 10 10 0 0 0 12 2z"/></svg>