<svg xmlns="http://www.w3.org/2000/svg" width="24" height="24" version="1"><path style="opacity:.2" d="M8 5.5a3 3 0 0 0-2.23 1H5a3 3 0 0 0-3 3v5a3 3 0 0 0 3 3h.768A3 3 0 0 0 8 18.5h.176a3 3 0 0 0 2.824 2h2a3 3 0 0 0 2.826-2H16a3 3 0 0 0 2.23-1H19a3 3 0 0 0 3-3v-5a3 3 0 0 0-3-3h-.768A3 3 0 0 0 16 5.5h-2a3 3 0 0 0-2 .768 3 3 0 0 0-2-.768z"/><path style="fill:#f85b79" d="M8 5a3 3 0 0 0-2.23 1H5a3 3 0 0 0-3 3v5a3 3 0 0 0 3 3h.768A3 3 0 0 0 8 18h.176A3 3 0 0 0 11 20h2a3 3 0 0 0 2.826-2H16a3 3 0 0 0 2.23-1H19a3 3 0 0 0 3-3V9a3 3 0 0 0-3-3h-.768A3 3 0 0 0 16 5h-2a3 3 0 0 0-2 .768A3 3 0 0 0 10 5z"/><g style="opacity:.2"><path d="M5 9.5v1h2v-1H5zM5 11.5v1h2v-1H5zM5 13.5v1h2v-1H5zM8 8.5v1h2v-1H8zM8 10.5v1h2v-1H8zM8 12.5v1h2v-1H8zM8 14.5v1h2v-1H8zM11 10.5v1h2v-1h-2zM11 12.5v1h2v-1h-2zM11 14.5v1h2v-1h-2zM11 16.5v1h2v-1h-2zM19 9.5v1h-2v-1h2zM19 11.5v1h-2v-1h2zM19 13.5v1h-2v-1h2zM16 8.5v1h-2v-1h2zM16 10.5v1h-2v-1h2zM16 12.5v1h-2v-1h2zM16 14.5v1h-2v-1h2z"/></g><path style="fill:#fff" d="M8 8v1h2V8H8zm6 0v1h2V8h-2zM5 9v1h2V9H5zm12 0v1h2V9h-2zm-9 1v1h2v-1H8zm3 0v1h2v-1h-2zm3 0v1h2v-1h-2zm-9 1v1h2v-1H5zm12 0v1h2v-1h-2zm-9 1v1h2v-1H8zm3 0v1h2v-1h-2zm3 0v1h2v-1h-2zm-9 1v1h2v-1H5zm12 0v1h2v-1h-2zm-9 1v1h2v-1H8zm3 0v1h2v-1h-2zm3 0v1h2v-1h-2zm-3 2v1h2v-1h-2z"/><path style="opacity:.2;fill:#fff" d="M8 5a3 3 0 0 0-2.23 1H5a3 3 0 0 0-3 3v.5a3 3 0 0 1 3-3h.77A3 3 0 0 1 8 5.5h2a3 3 0 0 1 2 .768 3 3 0 0 1 2-.768h2a3 3 0 0 1 2.232 1H19a3 3 0 0 1 3 3V9a3 3 0 0 0-3-3h-.768A3 3 0 0 0 16 5h-2a3 3 0 0 0-2 .768A3 3 0 0 0 10 5H8z"/></svg>