<svg xmlns="http://www.w3.org/2000/svg" width="24" height="24" version="1"><circle style="opacity:.2" cx="-12" cy="12.5" r="10" transform="scale(-1 1)"/><circle style="fill:#aa3131" cx="-12" cy="12" r="10" transform="scale(-1 1)"/><path style="opacity:.2" d="M13.66 4.676a7.988 7.988 0 0 0-2.589-.123A8.025 8.025 0 0 0 5.05 8.537a7.94 7.94 0 0 0-.882 2.338 7.959 7.959 0 0 0 .663 5.17l.065.116 6.784-9.666a2.64 2.64 0 0 1 .666-.715c.058-.04.199-.122.262-.15.291-.13.598-.168.943-.116.225.034.369.08.522.14.325.127.573.314.759.572.04.056.123.197.152.261.124.268.194.575.219.951l1.096 11.795.068-.035a7.854 7.854 0 0 0 3.1-3.828c.149-.391.288-.904.362-1.238a7.952 7.952 0 0 0-.381-4.55 8.075 8.075 0 0 0-.909-1.69 7.964 7.964 0 0 0-4.879-3.216zm-.219 2.13c-.605-.063-.992.364-1.323.814L6.222 18.022l.103.113a7.965 7.965 0 0 0 3.44 2.041c.357.103.815.21 1.32.269a7.825 7.825 0 0 0 3.01-.228l.073-.023.093-11.1c-.054-.987-.006-2.015-.82-2.288z"/><path style="fill:#f7b400" d="M13.66 4.176a7.988 7.988 0 0 0-2.589-.123A8.025 8.025 0 0 0 5.05 8.037a7.94 7.94 0 0 0-.882 2.338 7.959 7.959 0 0 0 .663 5.17l.065.116 6.784-9.666a2.64 2.64 0 0 1 .666-.715c.058-.04.199-.122.262-.15.291-.13.598-.168.943-.116.225.034.369.08.522.14.325.127.573.314.759.572.04.056.123.197.152.26.124.27.194.576.219.952l1.096 11.795.068-.035a7.854 7.854 0 0 0 3.1-3.828c.149-.391.288-.904.362-1.238a7.952 7.952 0 0 0-.381-4.55 8.075 8.075 0 0 0-.909-1.69 7.964 7.964 0 0 0-4.879-3.216zm-.219 2.13c-.605-.063-.992.364-1.323.814L6.222 17.522l.103.113a7.965 7.965 0 0 0 3.44 2.041c.357.103.815.21 1.32.269a7.825 7.825 0 0 0 3.01-.228l.073-.023.093-11.1c-.054-.987-.006-2.015-.82-2.288z"/><path style="opacity:.1;fill:#fff" d="M12 2a10 10 0 0 1 10 10 10 10 0 0 1-.01.293A10 10 0 0 0 12 2.5a10 10 0 0 0-9.99 9.707A10 10 0 0 1 2 12 10 10 0 0 1 12 2z"/><path style="opacity:.2;fill:#fff" d="M11.721 4.004a7.985 7.985 0 0 1 2.779.398 7.963 7.963 0 0 1 4.039 2.99c.367.522.676 1.098.908 1.69a7.94 7.94 0 0 1 .533 3.436 7.943 7.943 0 0 0-.533-2.936 8.073 8.073 0 0 0-.908-1.69 7.963 7.963 0 0 0-4.879-3.216 7.995 7.995 0 0 0-2.59-.123 8.024 8.024 0 0 0-6.019 3.984 7.934 7.934 0 0 0-.883 2.338c-.09.433-.142.869-.16 1.305a7.973 7.973 0 0 1 .445-2.832 7.976 7.976 0 0 1 3.104-4 8.021 8.021 0 0 1 4.164-1.344zm1.72 2.303c.814.273.766 1.3.819 2.287l-.004.426c-.048-.964-.021-1.947-.815-2.213-.605-.063-.993.364-1.324.814L6.402 17.705c-.025-.025-.053-.045-.078-.07l-.101-.114 5.894-10.4c.331-.45.719-.877 1.324-.814z"/></svg>