<svg xmlns="http://www.w3.org/2000/svg" width="24" height="24" version="1"><rect fill="#4ba357" width="20" height="20" x="2" y="2" rx="1" ry="1"/><path fill="#fff" opacity=".2" d="M3 2c-.554 0-1 .446-1 1v.5c0-.554.446-1 1-1h18c.554 0 1 .446 1 1V3c0-.554-.446-1-1-1H3z"/><path opacity=".2" d="M3 22.5c-.554 0-1-.446-1-1V21c0 .554.446 1 1 1h18c.554 0 1-.446 1-1v.5c0 .554-.446 1-1 1H3z"/><path opacity=".1" d="M12 8.5c-1.678 0-3.111.518-3.705 1.25a1.495 1.495 0 0 0-.223.375 4 2 0 0 0-.015.059c-.014.043-.03.085-.037.129a4 2 0 0 0-.02.186c0 .065.007.13.02.194a4 2 0 0 0 .054.187 4 2 0 0 0 .094.188 4 2 0 0 0 .127.182A4 2 0 0 0 12 12.5a4 2 0 0 0 3.705-1.25 4 2 0 0 0 .002-.002 4 2 0 0 0 .108-.154l.02-.032a4 2 0 0 0 .065-.132c.01-.021.022-.042.03-.063a4 2 0 0 0 .033-.111 1.05 1.05 0 0 0 .02-.088 4 2 0 0 0 .018-.17 4 2 0 0 0-.021-.198 1.271 1.271 0 0 0-.274-.551c-.594-.733-2.027-1.25-3.705-1.25zm-3.705 4.25A4 2 0 0 0 8 13.5a4 2 0 0 0 4 2 4 2 0 0 0 4-2 4 2 0 0 0-.295-.75A4 2 0 0 1 12 14a4 2 0 0 1-3.705-1.25zm0 3A4 2 0 0 0 8 16.5a4 2 0 0 0 4 2 4 2 0 0 0 4-2 4 2 0 0 0-.295-.75A4 2 0 0 1 12 17a4 2 0 0 1-3.705-1.25z"/><path fill="#fff" d="M12 8c-1.678 0-3.111.518-3.705 1.25a1.495 1.495 0 0 0-.223.375 4 2 0 0 0-.015.059c-.014.043-.03.085-.038.129A4 2 0 0 0 8 10c0 .065.007.129.02.193a4 2 0 0 0 .054.188 4 2 0 0 0 .094.187 4 2 0 0 0 .127.182A4 2 0 0 0 12 12a4 2 0 0 0 3.705-1.25 4 2 0 0 0 .002-.002 4 2 0 0 0 .108-.154l.02-.031a4 2 0 0 0 .066-.133l.029-.062a4 2 0 0 0 .033-.112 1.05 1.05 0 0 0 .02-.088A4 2 0 0 0 16 10a4 2 0 0 0-.021-.199 1.273 1.273 0 0 0-.274-.55C15.112 8.516 13.679 8 12 8zm-3.705 4.25A4 2 0 0 0 8 13a4 2 0 0 0 4 2 4 2 0 0 0 4-2 4 2 0 0 0-.295-.75A4 2 0 0 1 12 13.5a4 2 0 0 1-3.705-1.25zm0 3A4 2 0 0 0 8 16a4 2 0 0 0 4 2 4 2 0 0 0 4-2 4 2 0 0 0-.295-.75A4 2 0 0 1 12 16.5a4 2 0 0 1-3.705-1.25z"/></svg>