<svg xmlns="http://www.w3.org/2000/svg" width="24" height="24"><path style="opacity:.2" d="M8.913 3.503a1.499 1.499 0 0 0-1.361 1.888l.583 2.18c-.506.3-.975.646-1.411 1.02L5.063 6.93a1.497 1.497 0 0 0-2.122 0 1.498 1.498 0 0 0 0 2.122l1.678 1.68c-.742.831-1.422 1.61-2.097 2.12-.696.511-.696 1.79 0 2.301C5.5 17.006 7.5 21.513 11.999 21.5h.002c4.5.013 6.499-4.494 9.477-6.348.696-.511.696-1.79 0-2.301-.674-.51-1.354-1.288-2.095-2.12l1.678-1.68a1.498 1.498 0 0 0 0-2.122 1.496 1.496 0 0 0-2.12 0l-1.664 1.664a10.217 10.217 0 0 0-1.401-1.017l.585-2.185a1.499 1.499 0 0 0-1.06-1.84 1.497 1.497 0 0 0-1.838 1.063l-.521 1.949A7.638 7.638 0 0 0 12 6.49h-.001c-.357 0-.698.027-1.028.072l-.522-1.948a1.497 1.497 0 0 0-1.536-1.111z"/><path style="fill:#ef9202" d="M8.913 3.003a1.499 1.499 0 0 0-1.361 1.888l.583 2.18c-.506.3-.975.646-1.411 1.02L5.063 6.43a1.497 1.497 0 0 0-2.122 0 1.498 1.498 0 0 0 0 2.122l1.678 1.68c-.742.831-1.422 1.61-2.097 2.12-.696.511-.696 1.79 0 2.301C5.5 16.506 7.5 21.013 11.999 21h.002c4.5.013 6.499-4.494 9.477-6.348.696-.511.696-1.79 0-2.301-.674-.51-1.354-1.288-2.095-2.12l1.678-1.68a1.498 1.498 0 0 0 0-2.122 1.496 1.496 0 0 0-2.12 0l-1.664 1.664a10.217 10.217 0 0 0-1.401-1.017l.585-2.185a1.499 1.499 0 0 0-1.06-1.84 1.497 1.497 0 0 0-1.838 1.063l-.521 1.949A7.638 7.638 0 0 0 12 5.99h-.001c-.357 0-.698.027-1.028.072l-.522-1.948a1.497 1.497 0 0 0-1.536-1.111z"/><circle style="opacity:.2" cx="12" cy="14" r="5.5"/><circle style="fill:#fff" cx="12" cy="13.5" r="5.5"/><circle style="fill:#ff5a2e" cx="12" cy="13.5" r="3.5"/><path style="opacity:.2;fill:#fff" d="M8.913 3.003a1.492 1.492 0 0 0-1.386 1.735 1.494 1.494 0 0 1 1.386-1.235 1.497 1.497 0 0 1 1.536 1.111l.522 1.948c.33-.045.67-.072 1.028-.072H12c.362 0 .708.027 1.042.072l.521-1.948a1.497 1.497 0 0 1 2.922.124A1.492 1.492 0 0 0 15.4 3.052a1.497 1.497 0 0 0-1.837 1.062l-.521 1.948A7.639 7.639 0 0 0 12 5.99h-.001c-.357 0-.699.027-1.028.072l-.522-1.948a1.497 1.497 0 0 0-1.536-1.111zM4.002 5.988c-.384 0-.768.147-1.062.44-.358.359-.495.85-.417 1.312a1.497 1.497 0 0 1 2.54-.812l1.66 1.663a10.2 10.2 0 0 1 1.412-1.02l-.114-.425c-.46.284-.895.6-1.297.945L5.062 6.429a1.494 1.494 0 0 0-1.06-.44zm15.999 0c-.383 0-.767.147-1.06.44l-1.664 1.665c-.4-.343-.83-.658-1.288-.942l-.113.425c.502.3.967.645 1.401 1.017l1.663-1.664a1.496 1.496 0 0 1 2.539.811 1.495 1.495 0 0 0-.417-1.311A1.494 1.494 0 0 0 20 5.989zM4.38 10.492c-.648.727-1.259 1.405-1.859 1.859-.413.303-.574.877-.497 1.401.053-.358.215-.694.497-.901.675-.51 1.356-1.289 2.097-2.12l-.238-.239zm15.241.001-.238.238c.741.832 1.421 1.61 2.096 2.12.282.207.444.543.497.901.077-.524-.084-1.098-.497-1.401-.6-.454-1.21-1.132-1.858-1.858z"/></svg>