<svg xmlns="http://www.w3.org/2000/svg" width="24" height="24" version="1"><rect style="opacity:.2" width="21" height="21" x="-22.5" y="-22" rx="10.5" ry="10.5" transform="matrix(0 -1 -1 0 0 0)"/><rect style="fill:#3f3f3f" width="21" height="21" x="-22" y="-22" rx="10.5" ry="10.5" transform="matrix(0 -1 -1 0 0 0)"/><path style="opacity:.2" d="M5 9.8h1.5v3.27l.5.264V16.3l-2-1.157z"/><path style="fill:#137fb0" d="M5 9.3h1.5v3.27l.5.264V15.8l-2-1.157z"/><path style="opacity:.2" d="m15 13.8-5.492 3.17 1.992 1.151L15 16.1zM5 7.427l8.7 5.024-2.207 1.273L5 9.975z"/><path style="opacity:.2" d="M8 13.8v2.3l3.5 2.02 1.992-1.15z"/><path style="fill:#0ea3e7" d="m5 6.927 8.7 5.023-2.207 1.274L5 9.474z"/><path style="opacity:.2" d="M18 9.8h-1.5v3.27l-.5.264V16.3l2-1.157z"/><path style="fill:#0ea3e7" d="m15 13.3-5.492 3.17 1.992 1.151L15 15.6z"/><path style="fill:#35cfee" d="M8 13.3v2.3l3.5 2.02 1.992-1.15z"/><path style="fill:#229eb5" d="M18 9.3h-1.5v3.27l-.5.264V15.8l2-1.157z"/><path style="opacity:.2" d="m18 7.427-8.7 5.024 2.207 1.273L18 9.975z"/><path style="fill:#35cfee" d="M18 6.927 9.3 11.95l2.207 1.274L18 9.474z"/><path style="opacity:.1;fill:#fff" d="M11.5 1C5.683 1 1 5.683 1 11.5c0 .084.012.166.014.25A10.47 10.47 0 0 1 11.5 1.5a10.47 10.47 0 0 1 10.486 10.25c.002-.084.014-.166.014-.25C22 5.683 17.317 1 11.5 1z"/></svg>