<svg xmlns="http://www.w3.org/2000/svg" width="24" height="24"><path style="opacity:.2" d="M12 2.5V12H2.025a10 10 0 0 0-.025.5 10 10 0 0 0 10 10 10 10 0 0 0 10-10 10 10 0 0 0-10-10z"/><path style="fill:#4c91d9" d="M11.5 2a1.5 1.5 0 0 0 0 3c.216 0 .342-.01.5-.014V12H4.986c.005-.158.014-.284.014-.5a1.5 1.5 0 0 0-3 0c0 .216.01.342.014.5H2a10 10 0 0 0 10 10 10 10 0 0 0 10-10A10 10 0 0 0 12 2v.014c-.158-.005-.284-.014-.5-.014z"/><circle style="opacity:.2" cx="12" cy="12.5" r="7"/><circle style="fill:#fff" cx="12" cy="12" r="7"/><path style="opacity:.2;fill:#fff" d="M11.5 2A1.5 1.5 0 0 0 10 3.5c0 .086.012.168.025.25.12-.709.732-1.25 1.475-1.25.216 0 .342.01.5.014V2.5a10 10 0 0 1 9.99 9.793A10 10 0 0 0 22 12c0-5.523-4.477-10-10-10v.014c-.158-.005-.284-.014-.5-.014zm-8 8A1.5 1.5 0 0 0 2 11.5c0 .17.007.276.012.395A1.494 1.494 0 0 1 3.5 10.5c.792 0 1.433.616 1.488 1.395.005-.119.012-.224.012-.395A1.5 1.5 0 0 0 3.5 10zM5 12c0 .216-.01.342-.014.5z"/></svg>