<svg xmlns="http://www.w3.org/2000/svg" width="24" height="24" version="1"><rect style="fill:#e4e4e4" width="20" height="20" x="2" y="2" rx="1" ry="1"/><path style="opacity:.2;fill:#fff" d="M3 2c-.554 0-1 .446-1 1v.5c0-.554.446-1 1-1h18c.554 0 1 .446 1 1V3c0-.554-.446-1-1-1z"/><path style="opacity:.2" d="M3 22.5c-.554 0-1-.446-1-1V21c0 .554.446 1 1 1h18c.554 0 1-.446 1-1v.5c0 .554-.446 1-1 1zM20 4.5v6h-6v-6zm-8 0v1h-1v-1zm0 1h1v2h-1v1h-1v-2h1zm0 3h1v2h-1zm0 2v1h-1v-1zm-1 1v2H9v-1h1v-1zm-2 1H7v-1h2zm-2 0v1H4v-2h2v1zm4 1h2v2h-1v-1h-1zm2 2h1v1h-1zm0 1v2h-1v-1h-1v-1zm-1 2v2h-1v-2zm1 0h2v2h-2zm2 0v-1h1v1zm1 0h1v2h-1zm0-1v-1h2v1zm2 0h1v1h1v1h-1v1h-1zm-3 0h-1v-1h1zm-1-2v-1h1v1zm1-1v-1h2v2h-1v-1zm0-1h-2v-1h1v-1h1zm-2-1h-1v-1h1zm-3-8v6H4v-6zm9 1h-4v4h4zm-10 0H5v4h4zm9 1v2h-2v-2zm-10 0v2H6v-2zm11 5v1h1v1h-2v-1h-2v-1h2zm1 3v2h-1v-1h-1v-1h1zm-10 0v6H4v-6zm-1 1H5v4h4zm-1 1v2H6v-2z"/><path style="fill:#3f3f3f" d="M20 4v6h-6V4zm-8 0v1h-1V4zm0 1h1v2h-1v1h-1V6h1zm0 3h1v2h-1zm0 2v1h-1v-1zm-1 1v2H9v-1h1v-1zm-2 1H7v-1h2zm-2 0v1H4v-2h2v1zm4 1h2v2h-1v-1h-1zm2 2h1v1h-1zm0 1v2h-1v-1h-1v-1zm-1 2v2h-1v-2zm1 0h2v2h-2zm2 0v-1h1v1zm1 0h1v2h-1zm0-1v-1h2v1zm2 0h1v1h1v1h-1v1h-1zm-3 0h-1v-1h1zm-1-2v-1h1v1zm1-1v-1h2v2h-1v-1zm0-1h-2v-1h1v-1h1zm-2-1h-1v-1h1zm-3-8v6H4V4zm9 1h-4v4h4zM9 5H5v4h4zm9 1v2h-2V6zM8 6v2H6V6zm11 5v1h1v1h-2v-1h-2v-1h2zm1 3v2h-1v-1h-1v-1h1zm-10 0v6H4v-6zm-1 1H5v4h4zm-1 1v2H6v-2z"/></svg>