<svg xmlns="http://www.w3.org/2000/svg" width="24" height="24" version="1"><rect style="opacity:.2" width="20" height="20" x="2" y="2.5" rx="1" ry="1"/><rect style="fill:#c93e5f" width="20" height="20" x="2" y="2" rx="1" ry="1"/><path style="fill:#fff;opacity:.2" d="M3 2c-.554 0-1 .446-1 1v.5c0-.554.446-1 1-1h18c.554 0 1 .446 1 1V3c0-.554-.446-1-1-1H3z"/><path style="fill:#fff" d="M5 11.002h.67c4.05 0 7.33 3.278 7.33 7.328v.672h-.67a.672.672 0 0 1-.66-.672c0-3.314-2.68-6-6-6a.666.666 0 0 1-.67-.656z"/><path style="fill:#fff" d="M5 13.674h.67a4.65 4.65 0 0 1 4.66 4.656v.672h-.66A.68.68 0 0 1 9 18.33a3.327 3.327 0 0 0-3.33-3.328.68.68 0 0 1-.67-.672z"/><path style="fill:#fff" d="M6.33 16.33c.74 0 1.34.607 1.34 1.344 0 .736-.61 1.328-1.34 1.328-.74 0-1.33-.592-1.33-1.328 0-.737.6-1.344 1.33-1.344z"/></svg>