<svg xmlns="http://www.w3.org/2000/svg" width="24" height="24" version="1"><rect style="opacity:.2" width="20" height="16" x="2" y="-20.5" rx="1" ry="1" transform="scale(1 -1)"/><rect style="fill:#e4e4e4" width="20" height="16" x="2" y="-20" rx="1" ry="1" transform="scale(1 -1)"/><rect style="opacity:.4" width="4" height="1" x="10" y="-21" rx=".4" ry=".5" transform="rotate(90)"/><rect style="fill:#333" width="12" height="15" x="6" y="-19" rx=".923" ry="1" transform="rotate(90)"/><rect style="opacity:.2;fill:#fff" width="6" height="4" x="5" y="13" rx="1" ry="1"/><rect style="opacity:.2;fill:#fff" width="6" height="4" x="12" y="13" rx="1" ry="1"/><path style="opacity:.2" d="M5 16v.5c0 .554.446 1 1 1h4c.554 0 1-.446 1-1V16c0 .554-.446 1-1 1H6c-.554 0-1-.446-1-1zm7 0v.5c0 .554.446 1 1 1h4c.554 0 1-.446 1-1V16c0 .554-.446 1-1 1h-4c-.554 0-1-.446-1-1z"/><path style="opacity:.1;fill:#fff" d="M6 13c-.554 0-1 .446-1 1v.5c0-.554.446-1 1-1h4c.554 0 1 .446 1 1V14c0-.554-.446-1-1-1zm7 0c-.554 0-1 .446-1 1v.5c0-.554.446-1 1-1h4c.554 0 1 .446 1 1V14c0-.554-.446-1-1-1z"/><path style="opacity:.2;fill:#fff" d="M3 4c-.554 0-1 .446-1 1v.5c0-.554.446-1 1-1h18c.554 0 1 .446 1 1V5c0-.554-.446-1-1-1z"/></svg>