<svg xmlns="http://www.w3.org/2000/svg" width="24" height="24"><path style="fill:#009688" d="M4 2h16c.554 0 1 .446 1 1v18c0 .554-.446 1-1 1H4c-.554 0-1-.446-1-1V3c0-.554.446-1 1-1z"/><path style="opacity:.2" d="M4 2c-.554 0-1 .446-1 1v18c0 .963 1 1 1 1h2V2z"/><path style="opacity:.2;fill:#fff" d="M4 2c-.554 0-1 .446-1 1v.5c0-.554.446-1 1-1h16c.554 0 1 .446 1 1V3c0-.554-.446-1-1-1z"/><path style="opacity:.2" d="M3 21v.5c0 .554.446 1 1 1h16c.554 0 1-.446 1-1V21c0 .554-.446 1-1 1H4c-.554 0-1-.446-1-1z"/><path style="opacity:.2" d="M17.001 12.499a3.501 3.501 0 0 1-2 3.158V22.5h-3v-6.844A3.5 3.5 0 0 1 10 12.5a3.5 3.5 0 0 1 2-3.158v3.158h3v-3.16a3.5 3.5 0 0 1 2.001 3.16z"/><path style="fill:#fff" d="M17.001 11.999a3.501 3.501 0 0 1-2 3.158V22h-3v-6.844A3.5 3.5 0 0 1 10 12a3.5 3.5 0 0 1 2-3.158v3.158h3v-3.16A3.5 3.5 0 0 1 17.002 12z"/></svg>