<svg xmlns="http://www.w3.org/2000/svg" width="24" height="24"><rect style="opacity:.2" width="20" height="20" x="2" y="2.5" rx="1" ry="1"/><rect style="fill:#ffd017" width="20" height="20" x="2" y="2" rx="1" ry="1"/><path style="opacity:.1" d="M11.76 18.535c-.244.049-.66.245-.93.367-.048.025-.048.098 0 .098a.39.39 0 0 1 .172.098c.123.146.27.269.27.464 0 .22-.123.294-.099.49.074.39.391.932.391 1.348-.024.317-.317.317-.488.538a.412.412 0 0 0-.074.244c0 .098-.024.269.074.269.122.024.146-.22.269-.22.17.024.146.269.293.269h6.43c-.024-.074-.073-.171-.122-.196-.318-.293-1.125-.684-1.271-1.149-.245-.71.073-1.613.171-2.396.342-2.274.22-3.521-.196-5.404-.22-1.076-.391-2.029-.709-3.08-.049-.196-.317-.465-.416-.636a1.666 1.666 0 0 1-.17-.49c-.172-.806-.098-1.588-.685-2.273-.22-.245-.636-.27-.905-.44-.513-.27-1.027-.538-1.54-.856-.074-.049-.294-.122-.416-.049.587.416.978.905 1.15 1.638.073.343.17.611-.172.807-.098.05-.734.164-1.027.873-.073.147-.489 1.1-.978 2.005-.587-.318-1.174-.342-1.59-.342-.44 0-1.022.049-1.389.317-.782.587-1.124 1.345-1.369 2.201a9.565 9.565 0 0 0-.367 2.03c-.049.929.05 2.256.147 3.185.074.612.147 1.199.196 1.81.122.66.098 1.174.073 1.296-.22.684-.562.929-1.222 1.051-.098 0-.147.049-.123.098h3.884c.195 0 .244-.098.44-.269.269-.269-.098-.734 0-1.345.22-1.516.88-3.186 1.198-4.653.049-.171.073-.391.098-.636.122.587.293.95.464 1.512.171.587.342 1.255.612 1.402-.025 0-.05 0-.074.024z"/><path style="opacity:.2;fill:#fff" d="M3 2c-.554 0-1 .446-1 1v.5c0-.554.446-1 1-1h18c.554 0 1 .446 1 1V3c0-.554-.446-1-1-1z"/><path style="fill:#3f3f3f" d="M11.76 18.035c-.244.049-.66.245-.93.367-.048.025-.048.098 0 .098a.39.39 0 0 1 .172.098c.123.146.27.269.27.464 0 .22-.123.294-.099.49.074.39.391.932.391 1.348-.024.317-.317.317-.488.538a.412.412 0 0 0-.074.244c0 .098-.024.269.074.269.122.024.146-.22.269-.22.17.024.146.269.293.269h6.43c-.024-.074-.073-.171-.122-.196-.318-.293-1.125-.684-1.271-1.149-.245-.71.073-1.613.171-2.396.342-2.274.22-3.521-.196-5.404-.22-1.076-.391-2.029-.709-3.08-.049-.196-.317-.465-.416-.636a1.666 1.666 0 0 1-.17-.49c-.172-.806-.098-1.588-.685-2.273-.22-.245-.636-.27-.905-.44-.513-.27-1.027-.538-1.54-.856-.074-.049-.294-.122-.416-.049.587.416.978.905 1.15 1.638.073.343.17.611-.172.807-.098.05-.734.164-1.027.873-.073.147-.489 1.1-.978 2.005-.587-.318-1.174-.342-1.59-.342-.44 0-1.022.049-1.389.317-.782.587-1.124 1.345-1.369 2.201a9.565 9.565 0 0 0-.367 2.03c-.049.929.05 2.256.147 3.185.074.612.147 1.199.196 1.81.122.66.098 1.174.073 1.296-.22.684-.562.929-1.222 1.051-.098 0-.147.049-.123.098h3.884c.195 0 .244-.098.44-.269.269-.269-.098-.734 0-1.345.22-1.516.88-3.186 1.198-4.653.049-.171.073-.391.098-.636.122.587.293.95.464 1.512.171.587.342 1.255.612 1.402-.025 0-.05 0-.074.024z"/><path style="fill:#fff" d="M11.774 18.252a.645.645 0 0 0-.185.027c-.146.025-.196.22-.098.319 0 0 .074.048.098.073v.049c-.066.066-.295.057-.428.066.062.08.11.167.11.277 0 .22-.122.292-.098.488.073.391.392.933.392 1.348-.001.016-.007.027-.01.041.09.083.29.122.327.18.073.097-.048.269.024.366.025.074.124.098.172.074.123-.025.171-.171.269-.171.171-.025.392-.025.514.097.049.025.073 0 .073-.024.024-.098-.367-.196-.416-.587-.05-.318-.024-.664-.244-1.006-.05-.049-.122-.049-.147-.122 0-.098.073-.22.073-.343 0-.049-.024-.146-.073-.17-.073-.025-.172.024-.27.024-.146 0-.317 0-.414-.049-.025-.025-.025-.049.024-.073.098-.025.342.098.488-.05.171-.146.294-.39.221-.586-.055-.165-.22-.248-.402-.248z"/><path style="fill:#ff5811" d="M12.102 5.153c.416.22.93 1.003 1.199 1.418.122.172.293.025.22-.122-.416-.587-.905-1.075-1.419-1.296m-2.151 6.13c.317.073.606.192.704.485.098.294.422.465.3 1.32 0 0-.025.098 0 0 .024-.22-.025.098 0 0 .024-.146.269.199.317.272-.097-.293-.123-.98.244-.956.195.024.17.171.489.244.097.025.318-.048.367-.22.122-.366 0-.684-.294-.929-.171-.147-.391-.22-.611-.073a.54.54 0 0 0-.122.269c.048.318-.123.22-.245 0-.171-.27-.807-.46-1.15-.412m2.104 4.446c.146-.465-.025-1.149-.123-1.663-.049-.17.171-.22.22-.048.147.684.122 1.198-.097 1.711m.806-8.302c-.049.025-.244.172-.366.245.269.049.635.244.807.562.122.27.22.66.268.93 0-.172-.024-.93.05-1.028.122-.146.366-.024.537.05.122.048.196.195.318.268.123.05.245.073.367.025a.422.422 0 0 0 .293-.245c.074-.22-.146-1.1-.635-.904-.196.073-.22.366-.392.513a.37.37 0 0 1-.317.073c-.123 0-.27-.073-.392-.17-.17-.123-.342-.27-.538-.319z"/><path style="fill:#231f20" d="M11.81 18.552c.072 0 .17.098.146.123-.05.048-.074-.025-.171-.025-.074 0-.147.025-.147-.024 0-.05.073-.074.171-.074z"/><path style="fill:#fff" d="M12.568 7.554c-.218.149-.57.218-.808.795-.073.147-.489 1.1-.978 2.005.123.074.318.22.416.294.562.44.831.488 1.173.855.147.22.416 1.003.489 1.125.122.342.171.684.098 1.027-.073.366-.318.684-.44 1.027-.074.195-.122.538-.195.758-.074.22-.074.366-.196.562-.098.098-.22.025-.147-.098.074-.146.098-.538 0-.807a11.49 11.49 0 0 0-.391-.978 8.422 8.422 0 0 1-.416-.977c-.244-.636-.097-1.86-1.222-1.86-.416.05-.88.123-1.174.417-.367.318-.513.66-.685 1.174-.146.44-.073.733-.122 1.002-.073.66.074.88 0 1.54-.073.685-.196.779-.342 1.292-.098.293-.196 1.087-.391 1.332-.073.098-.293.171-.342.049-.22-.465-.099-1.694-.148-2.11-.049-.098-.097-.074-.097 0-.049.244 0 1.523.024 1.84.074.465.294.906.391 1.37.123.538.685 2.005.465 2.47-.063.104-.162.266-.266.342h1.758a.38.38 0 0 0 .123-.018l.003-.002a.97.97 0 0 0 .175-.123c.027-.026.057-.05.091-.083.031-.031.062-.064.092-.098.179-.275-.136-.718-.044-1.29.22-1.516.88-3.186 1.198-4.653.049-.171.073-.391.098-.636.122.587.293.95.464 1.512.15.572.31 1.193.612 1.402.876-.011.57 1.258.733 1.813.122.342.415.611.513.953.147.44.074.734-.048 1.15h.88c.807-.074 1.638-1.175 1.736-1.859.049-.244-.024-1.222-.147-1.442-.22-.367-.538-.612-.684-.856-.465-.66-.294-1.736-.098-2.47.171-.684.586-1.589.61-1.589.05-.073-.072-.147-.121-.05-.196.221-.44.906-.538 1.199-.122.367-.22.783-.269 1.15-.073.562.098 1.173-.025 1.735-.024.123-.22.245-.318.171-.806-.635-.977-1.93-.953-2.885.025-.978.44-1.882.587-2.86.048-.22-.171-.416-.196-.636-.048-.293-.024-.391-.048-.66 0-.172.122-.563.122-.734.024-.416-.025-.855 0-1.295-.095-.805-.35-.91-1.002-1.292z"/></svg>