<svg xmlns="http://www.w3.org/2000/svg" width="24" height="24" xml:space="preserve"><circle style="opacity:.2" cx="12" cy="12.5" r="10"/><path style="fill:#3e5ba9" d="M12 2a10 10 0 0 0-3.383.6c5.724 3.722 8.743 9.354 11.176 15.652A10 10 0 0 0 22 12 10 10 0 0 0 12 2z"/><path style="fill:#d82b2f" d="M5.57 4.355A10 10 0 0 0 2 12a10 10 0 0 0 2.473 6.572l.261-.615 3.014.197a23.853 23.853 0 0 1-.521 2.621A10 10 0 0 0 12 22a10 10 0 0 0 4.918-1.307c-.863-5.899-5.08-12.92-11.348-16.338z"/><path style="opacity:.2" d="M8.732 3.061A10 10 0 0 0 5.44 4.97c1.822.886 3.59 2.254 5.127 3.91-2.169 2.18-4.747 6.118-6.112 10.165a10 10 0 0 0 2.82 2.264c.793-3.748 2.984-7.844 5.135-10.162 2.01 2.82 3.603 6.321 4.43 10.091a10 10 0 0 0 3.037-2.595C18 12.237 12.753 5.24 8.732 3.062z"/><path style="fill:#fff" d="M8.732 2.562A10 10 0 0 0 5.44 4.469c1.822.886 3.59 2.254 5.127 3.91-2.169 2.18-4.747 6.118-6.112 10.165a10 10 0 0 0 2.82 2.265c.793-3.749 2.984-7.845 5.135-10.163 2.01 2.82 3.603 6.322 4.43 10.091a10 10 0 0 0 3.037-2.595C18 11.737 12.753 4.74 8.732 2.562z"/><path style="opacity:.1;fill:#fff" d="M12 2A10 10 0 0 0 2 12a10 10 0 0 0 .01.291A10 10 0 0 1 12 2.5a10 10 0 0 1 9.99 9.709A10 10 0 0 0 22 12 10 10 0 0 0 12 2z"/></svg>