<svg xmlns="http://www.w3.org/2000/svg" width="24" height="24"><path style="opacity:.2" class="cls-9" d="M2 5v10.008c2.307.88 6.193 3.25 7.424 4.992l2.076-4.348-3-4.539s-.809-.87.399-1.443A22.81 22.884 0 0 0 2 5zM21 5v10.008c-2.307.88-6.193 3.25-7.424 4.992L11.5 15.652l3-4.539s.809-.87-.399-1.443A22.81 22.884 0 0 1 21 5z"/><path style="fill:#502e02" class="cls-1" d="M16.5 7.991a5 5.006 0 0 0-7.186-4.487 5.036 5.042 0 0 1 .572-.036 4.973 4.979 0 0 1 2.305.568A5 5.006 0 1 0 16.5 8.992c0-.168 0-.337-.027-.505-.028-.168.027-.328.027-.496z"/><circle style="fill:#d9af4f" class="cls-4" cx="11.5" cy="10.5" r="3.5"/><path style="opacity:.1;fill:#fff" d="M11.339 3.003a5 5.006 0 0 0-2.026.5 5.036 5.042 0 0 1 .574-.035 4.973 4.979 0 0 1 .9.086 5 5.006 0 0 1 5.696 4.616c.008-.06.017-.118.017-.179a5 5.006 0 0 0-5.161-4.988zm-.593 1.045a5 5.006 0 0 0-4.233 5.197 5 5.006 0 0 1 5.677-4.709 4.973 4.979 0 0 0-1.444-.488zm5.74 4.584c-.014.118-.033.235-.013.355.012.075.017.149.021.223a5 5.006 0 0 0 .006-.218c0-.12-.004-.24-.014-.36z"/><path style="fill:#385ca9" class="cls-9" d="M21 4.5v10.008c-2.307.88-6.193 3.25-7.424 4.992L11.5 15.152l3-4.539S14 10 14.1 9.17A22.805 22.805 0 0 1 21 4.5zM2 4.5v10.008c2.307.88 6.193 3.25 7.424 4.992l2.076-4.348-3-4.539S9 10 9 9C7.005 7.032 4.566 5.62 2 4.5z"/><path style="opacity:.2" class="cls-9" d="M11.5 12C9.071 12 8 10.5 8 10.5l1.314 9.824s.328 1.176 2.1 1.176c1.774 0 2.102-1.172 2.102-1.172L15 10.5S13.929 12 11.5 12z"/><path style="fill:#2a457e" class="cls-9" d="M11.5 11.5c-2.429 0-3.5-1-3.5-1l1.314 9.324S9.642 21 11.414 21c1.774 0 2.102-1.172 2.102-1.172L15 10.5s-1.071 1-3.5 1z"/><path style="opacity:.2" d="M5.349 4.5c-.822-.035-1.668.204-2.522.895 2.194 1.06 4.204 2.966 5.955 4.664-.486.257-.782.584-.782.941 0 .828 1.567 1.5 3.5 1.5S15 11.828 15 11c0-.356-.292-.682-.775-.94 1.73-1.673 3.713-3.56 5.876-4.612-.82-.674-1.635-.95-2.427-.948-2.401.007-4.594 3.17-6.115 5.878l-.064.112-.045.08-.116-.206C9.844 7.706 7.701 4.602 5.349 4.5z"/><path style="fill:#e4e4e4" d="M5.349 4c-.822-.035-1.668.204-2.522.895 2.194 1.06 4.204 2.965 5.955 4.663-.486.258-.782.584-.782.942 0 .828 1.567 1.5 3.5 1.5s3.5-.672 3.5-1.5c0-.356-.292-.683-.775-.94C15.955 7.887 17.938 6 20.1 4.947c-.82-.673-1.635-.95-2.427-.947-2.401.006-4.594 3.17-6.115 5.878l-.064.112-.045.08-.116-.206C9.844 7.205 7.701 4.101 5.349 4z"/><path style="opacity:.2" class="cls-14" d="M22 9.977C22 12.31 21.106 13 20.51 13c-1.49 0-2.388-1.839.298-1.97-2.363-.201-2.458-1.95 0-2.015C18.35 8.83 18.822 7 20.51 7c.686-.01 1.49.645 1.49 2.977z"/><path style="fill:#d9af4f" class="cls-14" d="M22 9.477c0 2.333-.894 3.023-1.49 3.023-1.49 0-2.388-1.839.298-1.97-2.363-.201-2.458-1.95 0-2.015C18.35 8.33 18.822 6.5 20.51 6.5c.686-.01 1.49.645 1.49 2.977z"/><path style="opacity:.2" class="cls-14" d="M1 9.977C1 12.31 1.894 13 2.49 13c1.49 0 2.388-1.839-.298-1.97 2.363-.201 2.458-1.95 0-2.015C4.65 8.83 4.178 7 2.49 7 1.804 6.99 1 7.645 1 9.977z"/><path style="fill:#d9af4f" class="cls-14" d="M1 9.477c0 2.333.894 3.023 1.49 3.023 1.49 0 2.388-1.839-.298-1.97 2.363-.201 2.458-1.95 0-2.015C4.65 8.33 4.178 6.5 2.49 6.5 1.804 6.49 1 7.145 1 9.477z"/><path style="opacity:.2;fill:#fff" d="M20.51 6.5c-1.006 0-1.574.65-1.353 1.214.152-.39.643-.714 1.354-.714.657-.01 1.415.61 1.477 2.715.003-.082.012-.151.012-.237 0-2.333-.804-2.988-1.49-2.978zm-.849 2.224c-.573.233-.764.625-.596.987.177-.365.747-.669 1.744-.695-.502-.038-.876-.147-1.148-.292zm.017 2.029c-.548.236-.676.618-.54.965.154-.346.657-.638 1.67-.688-.467-.04-.842-.141-1.13-.277zM2.49 6.5C1.803 6.49 1 7.145 1 9.478c0 .086.01.155.012.237.062-2.106.82-2.725 1.477-2.715.71 0 1.202.325 1.354.714.22-.565-.347-1.214-1.354-1.214zm.849 2.224c-.272.145-.646.254-1.148.292.997.026 1.567.33 1.744.695.168-.362-.023-.754-.596-.987zm-.017 2.029c-.288.136-.663.237-1.13.277 1.013.05 1.516.342 1.67.688.136-.347.008-.729-.54-.965z"/></svg>