<svg width="24" height="24" xmlns="http://www.w3.org/2000/svg"><path d="M12.5 22.5c4.5 0 6.5-3.551 6.5-6.5 0-4-4.231-6.081-5-9.5-.293-1.3 0-4 0-4s-9 6-9 13c0 3.3 3 7 7.5 7z" style="opacity:.2"/><path d="M12.5 22c4.5 0 6.5-3.551 6.5-6.5 0-4-4.231-6.081-5-9.5-.293-1.3 0-4 0-4S5 8 5 15c0 3.3 3 7 7.5 7z" style="fill:#4f4f4f"/><path d="M13 5.5s-6 4-6 10c0 2.713 2.5 5 5.5 5s4.5-3 4.5-4.5c0-1-.5-3.5-3-3.5s-3 1-3 1 1.06-.236 1.5 0c.53.284 1 1.255 1 2 0 1-1 1.5-2 1.5-.707 0-1.5-.793-1.5-1.5 0-5 3.5-5 3.5-5s1 0 1.5.5c-3-3.5-2-5.5-2-5.5z" style="opacity:.2"/><path d="M13 5S7 9 7 15c0 2.713 2.5 5 5.5 5s4.5-3 4.5-4.5c0-1-.5-3.5-3-3.5s-3 1-3 1 1.06-.236 1.5 0c.53.284 1 1.255 1 2 0 1-1 1.5-2 1.5-.707 0-1.5-.793-1.5-1.5 0-5 3.5-5 3.5-5s1 0 1.5.5C12 7 13 5 13 5z" style="fill:#fff"/><path d="M14 2S5 8 5 15c0 .068.01.137.012.205.244-6.784 8.73-12.531 8.949-12.678C13.974 2.385 14 2 14 2zm-.12 2.898c.001.59.023 1.171.12 1.602.75 3.336 4.788 5.404 4.982 9.219.003-.073.018-.147.018-.219 0-4-4.231-6.081-5-9.5a6.368 6.368 0 0 1-.12-1.102z" style="fill:#fff;opacity:.1"/></svg>