<svg xmlns="http://www.w3.org/2000/svg" width="24" height="24"><g transform="translate(0 -1028.362)"><path style="opacity:.2;fill-rule:evenodd" d="M10.794 1030.862s-.945 1.442.555 2.169c2.519 1.22 2.425 1.831 2.425 1.831s.747-1.786-.476-2.828c-1.223-1.042-2.504-1.172-2.504-1.172z"/><path style="opacity:.2;fill-rule:evenodd" d="M3.74 1045.644c-3.628-5.11-.457-8.665-.457-8.665s-.172 1.259.416 1.38c.59.12.51-.658.473-1.97-.038-1.312.779-1.958.779-1.958s.176 2.653 2.08 1.784c1.904-.87.352-3.353.352-3.353s1.872.063 3.427 2.2c1.237 1.7 4.01 2.626 3.733.772-.277-1.855 1.3-1.871 1.3-1.871s-.567 1.15 2.398 3.081c2.35 1.531 3.6 4.806 2.12 8.474l-.544 1.344"/><path style="fill:#ff8a3c;fill-rule:evenodd" d="M3.74 1045.144c-3.628-5.11-.457-8.665-.457-8.665s-.172 1.26.416 1.38c.59.12.51-.658.473-1.97-.038-1.312.779-1.958.779-1.958s.176 2.653 2.08 1.784c1.904-.87.352-3.353.352-3.353s1.872.063 3.427 2.2c1.237 1.7 4.01 2.626 3.733.772-.277-1.855 1.3-1.87 1.3-1.87s-.567 1.148 2.398 3.08c2.35 1.531 3.6 4.806 2.12 8.474l-.544 1.344"/><path style="opacity:.2;fill:#fff;fill-rule:evenodd" d="M7.383 1032.362s.13.22.268.536c.549.092 1.934.481 3.16 2.164 1.237 1.7 4.008 2.626 3.732.772l-.006-.062c-.226 1.23-2.604.333-3.726-1.21-1.556-2.136-3.428-2.2-3.428-2.2zm8.46 1.1s-1.476.022-1.316 1.71c.143-1.177 1.272-1.207 1.304-1.207-.069-.325.012-.502.012-.502zm-10.892.47s-.816.645-.78 1.957l.01.319c.04-1.185.77-1.776.77-1.776s.176 2.652 2.08 1.783c.84-.384 1.007-1.08.932-1.74-.056.49-.304.953-.932 1.24-1.904.87-2.08-1.783-2.08-1.783zm10.885.05c-.041.1-.426 1.218 2.404 3.062 1.585 1.033 2.666 2.86 2.75 5.063.073-2.426-1.047-4.453-2.75-5.563-1.796-1.17-2.289-2.047-2.404-2.562zm-12.553 2.498s-1.347 1.527-1.27 4.01c.097-2.138 1.207-3.437 1.257-3.493-.01-.274.013-.517.013-.517zm-.012.644c-.026.31-.053 1.136.428 1.234.464.096.512-.382.493-1.226-.02.53-.128.801-.493.727-.294-.06-.398-.405-.428-.735z"/><circle style="opacity:.2" cx="8" cy="1043.862" r="5"/><circle style="fill:#fff" cx="8" cy="1043.362" r="5"/><circle style="opacity:.2" cx="16" cy="1044.862" r="6"/><circle style="fill:#4f4f4f" cx="16" cy="1044.362" r="6"/><path style="fill:#ff8a3c;fill-rule:evenodd" d="M10.794 1030.362s-.945 1.442.555 2.169c2.519 1.22 2.425 1.831 2.425 1.831s.747-1.786-.476-2.828c-1.223-1.042-2.504-1.172-2.504-1.172z"/><ellipse style="opacity:.2" cx="-493.918" cy="924.414" rx="2.124" ry="2.608" transform="matrix(.8769 -.48067 .48395 .8751 0 0)"/><ellipse style="fill:#fff" cx="-493.676" cy="923.976" rx="2.124" ry="2.608" transform="matrix(.8769 -.48067 .48395 .8751 0 0)"/><path style="opacity:.2;fill:#fff;fill-rule:evenodd" d="M10.794 1030.362s-.39.6-.267 1.222c.068-.406.267-.722.267-.722s1.28.13 2.504 1.172c.466.397.644.901.688 1.374.049-.59-.05-1.33-.688-1.874-1.223-1.042-2.504-1.172-2.504-1.172z"/></g></svg>