<svg xmlns="http://www.w3.org/2000/svg" width="24" height="24" version="1"><circle style="fill:#4f4f4f" cx="12" cy="12" r="10"/><path style="opacity:.2" d="M12 4.5a8 8 0 1 0 0 16 8 8 0 0 0 7.927-7h2.023a10 10 0 0 0 .05-1 10.01 10.01 0 0 0-.06-1H16v2h1.91a6 6 0 0 1-5.91 5 6 6 0 1 1 0-12h5.276A8 8 0 0 0 12 4.5z"/><path style="fill:#d08e3b" d="M12 4a8 8 0 1 0 0 16 8 8 0 0 0 7.927-7h2.023a10 10 0 0 0 .05-1 10.01 10.01 0 0 0-.06-1H16v2h1.91A6 6 0 0 1 12 18a6 6 0 1 1 0-12h5.276A8 8 0 0 0 12 4z"/><path style="opacity:.1;fill:#fff" d="M12 2C6.46 2 2 6.46 2 12v.25A9.98 9.98 0 0 1 12 2.5a9.98 9.98 0 0 1 10 9.75V12c0-5.54-4.46-10-10-10z"/><path style="opacity:.2" d="M2.006 12.25c-.002.084-.006.166-.006.25 0 5.54 4.46 10 10 10s10-4.46 10-10c0-.084-.004-.166-.006-.25A9.976 9.976 0 0 1 12 22a9.976 9.976 0 0 1-9.994-9.75z"/><path style="opacity:.2" d="M12 8.5a4 4 0 0 0-4 4 4 4 0 0 0 4 4 4 4 0 0 0 2-.54v.54h2v-8h-2v.542a4 4 0 0 0-2-.542zm0 2a2 2 0 0 1 2 2 2 2 0 0 1-2 2 2 2 0 0 1-2-2 2 2 0 0 1 2-2z"/><path style="fill:#fff" d="M12 8a4 4 0 0 0-4 4 4 4 0 0 0 4 4 4 4 0 0 0 2-.54V16h2V8h-2v.542A4 4 0 0 0 12 8zm0 2a2 2 0 0 1 2 2 2 2 0 0 1-2 2 2 2 0 0 1-2-2 2 2 0 0 1 2-2z"/><path style="opacity:.2;fill:#fff" d="M12 4a8 8 0 0 0-8 8c0 .084.01.166.013.25C4.146 7.948 7.666 4.5 12 4.5A7.998 7.998 0 0 1 16.644 6h.632A8 8 0 0 0 12 4zm4 7v.5H21.94c.029.263.044.526.052.79.003-.097.008-.193.008-.29a9.98 9.98 0 0 0-.06-1h-4.025zm-9.987 1.25c-.004.084-.013.166-.013.25a6 6 0 0 0 6 6 6 6 0 0 0 5.91-5h-.108A6 6 0 0 1 12 18a5.995 5.995 0 0 1-5.987-5.75z"/></svg>