<svg xmlns="http://www.w3.org/2000/svg" width="24" height="24"><path style="opacity:.2;fill-rule:evenodd" d="M21.303 2.507c-.174-.028-.33.07-.424.182-.094.111-.16.25-.216.424-.098.302-.458 1.423-1.758 2.53-1.299 1.108-3.54 2.757-7.423 2.857-2.36.028-3.99-1.187-4.931-3.05-.235-.465-.577-1.332-.577-.78v.852l-.012 4.412.024.058s.211.47-.012 1.103c-.224.633-1.105 1.557-3.075 2.149l-.241.071.046.254c.109.614.544 1.244 1.187 1.888.643.645 1.504 1.297 2.507 1.887 2.005 1.18 4.573 2.11 7.068 2.154 2.495.044 4.936-.828 6.55-3.245 1.616-2.416 2.404-7.028 1.759-13.035h-.001a1.23 1.23 0 0 0-.123-.429c-.065-.123-.174-.25-.348-.278z"/><path style="fill-rule:evenodd;fill:#645b44" d="M21.303 2.007c-.174-.028-.33.07-.424.182-.094.111-.16.25-.216.424-.098.302-.458 1.423-1.758 2.53C17.606 6.251 15.365 7.9 11.482 8c-2.36.028-3.99-1.187-4.931-3.05-.235-.465-.577-1.332-.577-.78v.852l-.012 4.412.024.058s.211.47-.012 1.103c-.224.633-1.105 1.557-3.075 2.149l-.241.071.046.254c.109.614.544 1.244 1.187 1.888.643.645 1.504 1.297 2.507 1.887 2.005 1.18 4.573 2.11 7.068 2.154 2.495.044 4.936-.828 6.55-3.245 1.616-2.416 2.404-7.028 1.759-13.035h-.001a1.23 1.23 0 0 0-.123-.429c-.065-.123-.174-.25-.348-.278z"/><path style="opacity:.1;fill-rule:evenodd;fill:#fff" d="M21.303 2.007c-.174-.028-.33.07-.424.181-.094.112-.16.25-.216.425-.098.302-.458 1.423-1.758 2.53C17.606 6.252 15.365 7.9 11.482 8c-2.36.028-3.99-1.187-4.931-3.05-.235-.465-.577-1.331-.577-.78v.5c0-.551.342.315.577.78.941 1.863 2.57 3.078 4.931 3.05 3.884-.1 6.124-1.749 7.423-2.856 1.3-1.108 1.66-2.229 1.758-2.53.057-.175.122-.314.216-.426.094-.111.25-.209.424-.181v.004c.174.027.283.155.348.278.066.123.102.265.122.43h.001c.148 1.369.217 2.661.222 3.876a37.224 37.224 0 0 0-.222-4.376 1.233 1.233 0 0 0-.123-.43c-.065-.123-.174-.25-.348-.278v-.004zM5.973 5.022l-.011 4.413v.002l.012-3.915v-.5zm.08 5.24a1.758 1.758 0 0 1-.08.334c-.223.633-1.105 1.557-3.075 2.148l-.24.071.046.253c.013.073.031.145.053.218l.141-.042c1.97-.591 2.852-1.515 3.076-2.148.122-.348.112-.636.08-.834z"/><path style="opacity:.3;fill-rule:evenodd" d="M7.472 15.104c1.01 0 1.932.053 2.767 0 1.389-.091 2.609-.251 3.226-.754a2.044 2.044 0 0 1-.334-.746s.785.34 1.193.895c.406.554-.143.896-.25 1.604-.237-.622-.385-.856-.445-1.103-.43.628-1.172 1.079-2.17 1.103-1.06.026-2.412-.412-3.987-.998z"/><path style="opacity:.2;fill-rule:evenodd" d="M8 7.5c-.743 0-1.489.245-2.056.75C5.376 8.755 5 9.524 5 10.5c0 .977.376 1.745.944 2.25.567.505 1.313.75 2.055.75.743 0 1.489-.245 2.056-.75S11 11.477 11 10.5c0-.976-.377-1.745-.945-2.25C9.488 7.745 8.742 7.5 8 7.5z"/><path style="opacity:.2;fill-rule:evenodd" d="M13 7.5c-.743 0-1.489.245-2.056.75-.568.505-.944 1.274-.944 2.25 0 .977.376 1.745.944 2.25.567.505 1.313.75 2.055.75.743 0 1.489-.245 2.056-.75S16 11.477 16 10.5c0-.976-.377-1.745-.945-2.25-.567-.505-1.313-.75-2.056-.75z"/><path style="fill-rule:evenodd;fill:#fff" d="M8 7c-.743 0-1.489.245-2.056.75C5.376 8.255 5 9.024 5 10c0 .977.376 1.745.944 2.25.567.505 1.313.75 2.055.75.743 0 1.489-.245 2.056-.75S11 10.977 11 10c0-.976-.377-1.745-.945-2.25C9.488 7.245 8.742 7 8 7z"/><path style="fill-rule:evenodd;fill:#3f3f3f" d="M8.5 9c-.368 0-.74.121-1.025.376C7.188 9.63 7 10.022 7 10.5c0 .478.188.87.475 1.124A1.54 1.54 0 0 0 8.5 12c.368 0 .74-.122 1.025-.376.287-.254.475-.646.475-1.124 0-.478-.188-.87-.475-1.124A1.54 1.54 0 0 0 8.5 9z"/><path style="opacity:.1;fill-rule:evenodd" d="M3.237 9.5a2.07 2.07 0 0 0-1.312.432c-1.08.831-1.365 2.715-.03 4.688 1.334 1.972 3.1 2.279 4.18 1.447 1.08-.83 1.366-2.715.031-4.687C5.23 10.085 4.17 9.509 3.237 9.5z"/><path style="fill-rule:evenodd;fill:#3f3f3f" d="M3.237 9a2.07 2.07 0 0 0-1.312.432c-1.08.831-1.365 2.715-.03 4.688 1.334 1.972 3.1 2.279 4.18 1.447 1.08-.83 1.366-2.715.031-4.687C5.23 9.585 4.17 9.009 3.237 9z"/><path style="fill-rule:evenodd;fill:#fff" d="M13 7c-.743 0-1.489.245-2.056.75C10.376 8.255 10 9.024 10 10c0 .977.376 1.745.944 2.25.567.505 1.313.75 2.055.75.743 0 1.489-.245 2.056-.75S16 10.977 16 10c0-.976-.377-1.745-.945-2.25C14.488 7.245 13.742 7 13 7z"/><path style="fill-rule:evenodd;fill:#3f3f3f" d="M13.5 9c-.368 0-.74.121-1.025.376-.287.254-.475.646-.475 1.124 0 .478.188.87.475 1.124A1.54 1.54 0 0 0 13.5 12c.368 0 .74-.122 1.025-.376.287-.254.475-.646.475-1.124 0-.478-.188-.87-.475-1.124A1.54 1.54 0 0 0 13.5 9z"/><path style="opacity:.1;fill-rule:evenodd;fill:#fff" d="M3.236 9c-.133 0-.263.01-.39.031a2.067 2.067 0 0 0-.922.4c-.62.478-.962 1.307-.903 2.296.067-.765.39-1.401.903-1.795.27-.208.583-.344.922-.4.127-.022.257-.032.39-.032.932.009 1.994.584 2.87 1.879.568.84.829 1.66.873 2.394.074-.848-.172-1.857-.874-2.894C5.23 9.584 4.168 9.009 3.236 9z"/><path style="opacity:.2" d="m13.508 15.738-.508.278s2.121 1.873 4.025 2.797c-.024.14-.038.278-.025.447l.35-.06s.923.275 1.656.491c-.035.612.321 1.287 1.111 1.577A33.334 33.334 0 0 1 23 22.5c-.713-2.315-.966-4.154-2.828-3.99-.208.018-.382.079-.535.162L18 17.834V17.5l-.242.158c-.043.023-.076.063-.115.092-1.762-1.066-4.135-2.012-4.135-2.012z"/><path style="fill:#ff9a0c" d="m17.984 18.7.463-.922c-1.723-1.26-4.94-2.54-4.94-2.54l-.507.279s2.92 2.59 4.984 3.183z"/><path style="fill:#8a8a8a" d="m18 17-.242.159c-.223.122-.405.33-.552.571-.168.396-.235.643-.206 1.03l.35-.06s1.827.524 2.693.8l.1-.195.357-.69-2.5-1.28z"/><path style="fill:#3f3f3f" d="M23 22c-.713-2.315-.965-4.153-2.827-3.99-1.501.132-1.606 2.19-.055 2.758A33.364 33.364 0 0 1 23 22z"/></svg>