<svg xmlns="http://www.w3.org/2000/svg" width="24" height="24" version="1"><path style="opacity:.2" d="M11.5 1.5c-.55 0-1.1.205-1.512.616L1.616 10.49a2.158 2.158 0 0 0 .001 3.02l8.372 8.374a2.16 2.16 0 0 0 3.022 0l8.372-8.372a2.16 2.16 0 0 0 0-3.022l-8.372-8.373A2.131 2.131 0 0 0 11.5 1.5z"/><path style="fill:#c2352a" d="M11.5 1c-.55 0-1.1.205-1.512.616L1.616 9.99a2.158 2.158 0 0 0 .001 3.02l8.372 8.374a2.16 2.16 0 0 0 3.022 0l8.372-8.372a2.16 2.16 0 0 0 0-3.022l-8.372-8.373A2.131 2.131 0 0 0 11.5 1z"/><path style="fill:#3f3f3f;fill-rule:evenodd" d="m6.656 4.95-.707.706L9 8.707V16h1V9.707l3.646 3.647.708-.708L6.656 4.95z"/><path style="opacity:.2" d="M9.5 7.5A1.5 1.5 0 0 0 8 9a1.5 1.5 0 0 0 1.5 1.5A1.5 1.5 0 0 0 11 9a1.5 1.5 0 0 0-1.5-1.5zm4 4A1.5 1.5 0 0 0 12 13a1.5 1.5 0 0 0 1.5 1.5A1.5 1.5 0 0 0 15 13a1.5 1.5 0 0 0-1.5-1.5zm-4 3A1.5 1.5 0 0 0 8 16a1.5 1.5 0 0 0 1.5 1.5A1.5 1.5 0 0 0 11 16a1.5 1.5 0 0 0-1.5-1.5z"/><path style="fill:#fff" d="M9.5 7A1.5 1.5 0 0 0 8 8.5 1.5 1.5 0 0 0 9.5 10 1.5 1.5 0 0 0 11 8.5 1.5 1.5 0 0 0 9.5 7zm4 4a1.5 1.5 0 0 0-1.5 1.5 1.5 1.5 0 0 0 1.5 1.5 1.5 1.5 0 0 0 1.5-1.5 1.5 1.5 0 0 0-1.5-1.5zm-4 3A1.5 1.5 0 0 0 8 15.5 1.5 1.5 0 0 0 9.5 17a1.5 1.5 0 0 0 1.5-1.5A1.5 1.5 0 0 0 9.5 14z"/><path style="opacity:.2;fill:#fff" d="M11.5 1c-.55 0-1.1.205-1.512.616L1.616 9.99a2.131 2.131 0 0 0-.593 1.757c.054-.462.246-.91.593-1.257l8.372-8.373A2.132 2.132 0 0 1 11.5 1.5c.55 0 1.1.205 1.512.616l8.37 8.373c.35.349.541.798.595 1.261a2.135 2.135 0 0 0-.594-1.76l-8.371-8.374A2.132 2.132 0 0 0 11.5 1z"/></svg>