<svg xmlns="http://www.w3.org/2000/svg" width="24" height="24" version="1"><path style="opacity:.2" d="M12.5 1.5c-.55 0-1.1.205-1.512.616L2.616 10.49a2.158 2.158 0 0 0 .001 3.02l8.372 8.374a2.16 2.16 0 0 0 3.022 0l8.372-8.372a2.16 2.16 0 0 0 0-3.022l-8.372-8.373A2.131 2.131 0 0 0 12.5 1.5z"/><path style="fill:#e3b56f" d="M12.5 1c-.55 0-1.1.205-1.512.616L2.616 9.99a2.158 2.158 0 0 0 .001 3.02l8.372 8.374a2.16 2.16 0 0 0 3.022 0l8.372-8.372a2.16 2.16 0 0 0 0-3.022l-8.372-8.373A2.131 2.131 0 0 0 12.5 1z"/><path style="opacity:.5;fill:#fff" d="M9.51 3.096 8.096 4.51 11 7.414V14.5h2V9.414l2.293 2.293 1.414-1.414z"/><path style="opacity:.2" d="M12 5.5a2 2 0 1 0 0 4 2 2 0 0 0 0-4zm4 4a2 2 0 1 0 0 4 2 2 0 0 0 0-4zm-4 3a2 2 0 1 0 0 4 2 2 0 0 0 0-4z"/><path style="fill:#fff" d="M12 5a2 2 0 0 0-2 2 2 2 0 0 0 2 2 2 2 0 0 0 2-2 2 2 0 0 0-2-2zM16 9a2 2 0 0 0-2 2 2 2 0 0 0 2 2 2 2 0 0 0 2-2 2 2 0 0 0-2-2zM12 12a2 2 0 0 0-2 2 2 2 0 0 0 2 2 2 2 0 0 0 2-2 2 2 0 0 0-2-2z"/><path style="opacity:.2;fill:#fff" d="M12.5 1c-.55 0-1.1.205-1.512.616L2.616 9.99a2.131 2.131 0 0 0-.593 1.757c.054-.462.246-.91.593-1.257l8.372-8.373A2.132 2.132 0 0 1 12.5 1.5c.55 0 1.1.205 1.512.616l8.37 8.373c.35.349.541.798.595 1.261a2.135 2.135 0 0 0-.594-1.76l-8.371-8.374A2.132 2.132 0 0 0 12.5 1z"/></svg>