<svg xmlns="http://www.w3.org/2000/svg" width="24" height="24" version="1"><rect style="opacity:.2" width="8.995" height="8.986" x="-16.99" y="-16.48" rx="4.498" ry="4.493" transform="matrix(0 -1 -1 0 0 0)"/><path style="fill:#109f5b" d="M5.505 17.093c1.75 3.037 2.75 3.585 5.991 3.77 3.456-1.907 5.218-3.194 4.324-6.487a4.463 4.463 0 0 1-1.578 1.543c-1.07.618-2.062-.032-3.165-.322-1.12-.293-2.347-.238-2.973-1.325L3.64 6.536a9.985 9.985 0 0 0-1.58 6.578C2.209 14.45 3.283 14.757 4 16z"/><path style="opacity:.2;fill:#fff" d="M11.985 2A9.968 9.968 0 0 0 2 11.995c0 .084.004.166.006.25A9.965 9.965 0 0 1 11.985 2.5a9.965 9.965 0 0 1 9.978 9.745c.002-.084.006-.166.006-.25A9.968 9.968 0 0 0 11.984 2z"/><path style="opacity:.2" d="M2.006 12.255c-.002.083-.006.166-.006.25 0 5.537 4.453 9.995 9.985 9.995s9.985-4.458 9.985-9.995c0-.084-.004-.167-.006-.25-.132 5.42-4.532 9.745-9.98 9.745s-9.846-4.325-9.978-9.745z"/><path style="fill:#dd4d3e" d="M12.127 2.01a9.95 9.95 0 0 0-.62.01c-1.73.086-3.437.667-4.92 1.574l-.003.002-.002.002a10 10 0 0 0-.637.453c-.233.179-.46.368-.675.566a10 10 0 0 0-.127.113 9.994 9.994 0 0 0-2.004 2.66l4.57 7.178c-.372-.621-.18-1.605-.213-2.382-.056-1.33 1.113-1.945 1.99-2.805.765-.75 2.564-1.778 2.24-2.381h8.919a10 10 0 0 0-.702-1.063l-.101-.125a9.954 9.954 0 0 0-.92-1.013l-.016-.016-.02-.017a10.08 10.08 0 0 0-.562-.495c-.058-.05-.118-.096-.178-.144a10 10 0 0 0-.269-.205 9.995 9.995 0 0 0-.688-.455 10 10 0 0 0-.23-.143c-.111-.06-.223-.12-.336-.176a9.89 9.89 0 0 0-1.033-.47c-.055-.02-.11-.041-.166-.06a9.905 9.905 0 0 0-.82-.26l-.012-.004c-.145-.04-.291-.078-.438-.112a10 10 0 0 0-.52-.096 10 10 0 0 0-.46-.068 10.013 10.013 0 0 0-.49-.043 10 10 0 0 0-.381-.02c-.059-.001-.117-.005-.176-.005z"/><path style="fill:#ffce41" d="m20.645 6.998-8.51.004c.724.02 1.451.71 2.125 1.1 1.152.665 1.044 1.98 1.299 3.183.222 1.048 1.503 1.764.923 2.768l-4.986 6.81.172.008c.379.015.757.016 1.133-.012.087-.009.173-.02.26-.031a9.98 9.98 0 0 0 .939-.139 9.982 9.982 0 0 0 1.176-.314c.146-.045.291-.093.435-.145a9.964 9.964 0 0 0 1.014-.45c.139-.076.275-.155.41-.237a9.9 9.9 0 0 0 1.03-.676c.252-.191.496-.394.732-.611.07-.06.139-.12.207-.182l.012-.01.037-.039a10 10 0 0 0 .556-.6 10 10 0 0 0 .8-1.064 10 10 0 0 0 .325-.53c.646-1.136.999-1.303 1.17-2.608.055-.424.087-.851.094-1.278v-.004c.004-.225-.016-.447-.025-.672a10 10 0 0 0-1.328-4.271z"/><rect style="opacity:.2" width="10" height="10" x="-17.5" y="-17" rx="5" ry="5" transform="matrix(0 -1 -1 0 0 0)"/><rect style="fill:#fff" width="10" height="10" x="-17" y="-17" rx="5" ry="5" transform="matrix(0 -1 -1 0 0 0)"/><rect style="fill:#4587f3" width="8" height="8" x="-16" y="-16" rx="4" ry="4" transform="matrix(0 -1 -1 0 0 0)"/><path style="opacity:.2;fill:#fff" d="M12 2A10 10 0 0 0 2 12a10 10 0 0 0 .01.293A10 10 0 0 1 12 2.5a10 10 0 0 1 9.99 9.707A10 10 0 0 0 22 12 10 10 0 0 0 12 2z"/><path style="fill:#4f4f4f" d="M2.06 13A10 10 0 0 0 12 22a10 10 0 0 0 9.95-9H2.06z"/><path style="opacity:.2" d="M7 15.002V19.5h1.997c.553 0 .998-.696.998-1.25a1.47 1.47 0 0 0-.438-.999 1.47 1.47 0 0 0 .438-1c0-.553-.445-1.249-.998-1.249H7.499zm.5.5h1.497c.285 0 .5.464.5.75 0 .285-.215.75-.5.75H7.499zm5.99.25c0 .324.004.483.004.75h-.503v.5h.506c.006.865.025 1.518.128 1.879.074.26.236.465.446.546.21.082.418.073.667.073V19c-.25 0-.416-.01-.486-.038-.07-.028-.096-.042-.147-.219-.07-.243-.092-.88-.103-1.742h.487v-.5h-.492c-.001-.267-.008-.425-.008-.75zm-1.703.75c-.258 0-.486.06-.682.183a1.237 1.237 0 0 0-.452.523 1.916 1.916 0 0 0-.158.814c0 .324.058.595.174.814.12.22.286.385.497.497.21.111.455.167.735.167.2 0 .372-.017.517-.05a2.16 2.16 0 0 0 .442-.139v-.415a2.978 2.978 0 0 1-.446.15 2.226 2.226 0 0 1-.492.05c-.29 0-.517-.085-.68-.254-.16-.173-.244-.523-.251-.85h.003V18h1.997v-.195c0-.262-.05-.49-.147-.685a1.04 1.04 0 0 0-.415-.458 1.235 1.235 0 0 0-.642-.162zm4.29 0c-.199 0-.371.016-.517.048a2.16 2.16 0 0 0-.442.14v.416c.153-.065.302-.116.447-.152.142-.032.306-.049.491-.049.291 0 .518.085.681.254a.88.88 0 0 1 .176.347l-.312.01c-.549.016-.954.112-1.217.288a.831.831 0 0 0-.396.74c0 .328.1.571.301.727.201.153.454.229.76.229.28 0 .501-.042.665-.126.093-.048.183-.116.27-.194v.32h.5V18h-.002l.002-.02c0-.324-.058-.596-.175-.815a1.196 1.196 0 0 0-.496-.497 1.549 1.549 0 0 0-.735-.167zm-4.296.388c.243 0 .421.077.534.231a.896.896 0 0 1 .144.38h-1.41a.917.917 0 0 1 .187-.39c.134-.148.316-.221.545-.221zm-4.282.61h1.498c.285 0 .5.465.5.75 0 .286-.215.75-.5.75H7.499zm9.477.37c.004.044.01.087.01.13h-.001v.74a.703.703 0 0 1-.107.11 1.101 1.101 0 0 1-.703.223.745.745 0 0 1-.446-.127c-.113-.084-.17-.216-.17-.396 0-.204.08-.363.238-.475.163-.113.454-.177.873-.193z"/><path style="fill:#fff" d="M7 14.503V19h1.997c.553 0 .998-.696.998-1.25a1.47 1.47 0 0 0-.438-.999 1.47 1.47 0 0 0 .438-1c0-.553-.445-1.248-.998-1.248H7.499zm.5.5h1.497c.285 0 .5.463.5.749 0 .285-.215.75-.5.75H7.499zm5.99.25c0 .323.004.482.004.749h-.503v.5h.506c.006.865.025 1.518.128 1.88.074.26.236.464.446.546.21.082.418.072.667.072v-.5c-.25 0-.416-.01-.486-.038-.07-.027-.096-.042-.147-.218-.07-.244-.092-.88-.103-1.743h.487v-.5h-.492c-.001-.267-.008-.424-.008-.749zm-1.703.749c-.258 0-.486.06-.682.183a1.237 1.237 0 0 0-.452.523 1.916 1.916 0 0 0-.158.814c0 .324.058.595.174.814.12.22.286.386.497.497.21.111.455.167.735.167.2 0 .372-.017.517-.049a2.16 2.16 0 0 0 .442-.14v-.415a2.978 2.978 0 0 1-.446.151 2.226 2.226 0 0 1-.492.049c-.29 0-.517-.085-.68-.254-.16-.172-.244-.523-.251-.85h.003v.009h1.997v-.194c0-.263-.05-.491-.147-.686a1.04 1.04 0 0 0-.415-.457 1.235 1.235 0 0 0-.642-.162zm4.29 0c-.199 0-.371.016-.517.048a2.16 2.16 0 0 0-.442.14v.416c.153-.065.302-.116.447-.151.142-.033.306-.05.491-.05.291 0 .518.086.681.254a.88.88 0 0 1 .176.347l-.312.01c-.549.016-.954.112-1.217.289a.831.831 0 0 0-.396.738c0 .33.1.572.301.729.201.152.454.228.76.228.28 0 .501-.042.665-.126.093-.048.183-.116.27-.194V19h.5v-1.5h-.002l.002-.02c0-.324-.058-.595-.175-.815a1.196 1.196 0 0 0-.496-.496 1.549 1.549 0 0 0-.735-.167zm-4.296.388c.243 0 .421.077.534.231a.896.896 0 0 1 .144.38h-1.41a.917.917 0 0 1 .187-.39c.134-.148.316-.22.545-.22zm-4.282.611h1.498c.285 0 .5.464.5.75 0 .285-.215.75-.5.75H7.499zm9.477.37c.004.043.01.087.01.13h-.001v.739a.703.703 0 0 1-.107.11 1.101 1.101 0 0 1-.703.223.745.745 0 0 1-.446-.126c-.113-.085-.17-.216-.17-.397 0-.204.08-.363.238-.475.163-.112.454-.176.873-.192z"/></svg>