<svg xmlns="http://www.w3.org/2000/svg" width="24" height="24"><circle style="opacity:.2" cx="12" cy="12.5" r="10"/><path style="fill:#255fdb" d="M8.896 14.083C5.487 9.573 1.987 13 2.901 16.153a10.009 10.009 0 0 0 17.501 1.279c-2.636 2.467-7.421 2.054-11.506-3.349z"/><path style="fill:#4285f4" d="M11.944 10.977C7.256 3.866 2 7.656 2 12.002c0 1.491.325 2.898.908 4.168-.623-2.944 2.76-5.214 5.91-.988 4.574 6.136 9.063 5.057 11.574 2.265.678-1.012 1.34-2.563 1.525-4.105l-.004.02c-1.075 3.343-5.834 3.887-9.969-2.385z"/><path style="fill:#91bfff" d="M15.158 7.795C11.676 2.051 7.26 2.568 4.276 5.647A9.97 9.97 0 0 0 2 12c.312-4.21 5.398-7.13 10 0 4.096 6.347 9.187 4.693 9.912 1.377l.005-.032c.073-.455.08-.89.08-1.359 0-.15.006-.3 0-.45-1.776 1.26-4.105.77-6.84-3.74z"/><path style="fill:#c4e1ff" d="M15.182 8.818c3.188 5.126 5.937 3.815 6.814 2.718a9.896 9.896 0 0 0-.365-2.262c-1.487.03-1.833-.217-3.29-2.444-2.241-3.427-5.057-5.737-9.973-4.15a10.05 10.05 0 0 0-4.095 2.971C7.653 2.54 11.8 3.384 15.182 8.818z"/><path style="fill:#f5f5f5" d="M18.117 7.27c1.457 2.227 2.344 2.345 3.514 2.004A10.004 10.004 0 0 0 11.996 2c-1.28 0-2.506.244-3.631.682 4.394-1.387 7.511 1.161 9.752 4.587z"/><path style="opacity:.1" d="M2.008 12.299c-.003.068-.008.135-.008.203 0 1.49.325 2.898.908 4.169a3.357 3.357 0 0 1-.067-.658 9.94 9.94 0 0 1-.833-3.714zm3.391.562c-1.565-.099-2.678 1.224-2.55 2.865.19-2.421 3.169-3.801 5.97-.044 4.573 6.136 9.062 5.056 11.573 2.264.676-1.007 1.333-2.548 1.522-4.084-.05.154-.11.301-.175.443-.288 1.203-.81 2.341-1.347 3.141-2.511 2.792-7 3.872-11.574-2.264-1.181-1.585-2.396-2.256-3.419-2.32z"/><path style="opacity:.1" d="M6.122 7.68c-2.15-.007-3.779 1.766-4.084 3.977-.023.278-.038.559-.038.843.312-4.21 5.398-7.13 10 0 4.096 6.347 9.187 4.693 9.912 1.377l.005-.031c.073-.456.08-.891.08-1.36 0-.15.007-.301 0-.45 0 .45-.01.87-.08 1.31l-.005.031C21.187 16.693 16.096 18.347 12 12 9.986 8.88 7.88 7.685 6.122 7.68z"/><path style="opacity:.1" d="M8.318 3.854a5.266 5.266 0 0 0-2.06.463 10.077 10.077 0 0 0-1.986 1.834c3.381-3.111 7.529-2.267 10.91 3.167 3.188 5.127 5.938 3.815 6.815 2.718a9.743 9.743 0 0 0-.034-.462c-.91 1.088-3.63 2.312-6.782-2.756-2.112-3.396-4.525-5-6.863-4.964z"/><path style="opacity:.1" d="M11.997 2.5c-1.28 0-2.507.244-3.632.682 4.394-1.387 7.511 1.161 9.752 4.588 1.457 2.227 2.344 2.344 3.514 2.003-.045-.157-.1-.309-.153-.462-1.094.283-1.97.086-3.361-2.041-1.482-2.266-3.35-4.14-5.713-4.753-.136-.006-.27-.017-.407-.017z"/><path style="opacity:.2;fill:#fff" d="M12 2A10 10 0 0 0 2 12a10 10 0 0 0 .01.291A10 10 0 0 1 12 2.5a10 10 0 0 1 9.989 9.709 10 10 0 0 0 .01-.209A10 10 0 0 0 12 2z"/></svg>