<svg xmlns="http://www.w3.org/2000/svg" width="24" height="24"><circle style="opacity:.2" cx="12" cy="12.5" r="10"/><circle style="fill:#01a59b" cx="12" cy="12" r="10"/><path style="opacity:.2;fill:#fff" d="M12 2A10 10 0 0 0 2 12a10 10 0 0 0 .01.291A10 10 0 0 1 12 2.5a10 10 0 0 1 9.99 9.709A10 10 0 0 0 22 12 10 10 0 0 0 12 2z"/><path style="opacity:.2" d="M8.326 6 5.5 8.826l2.507 2.507 3.99-1.664zM15 9.5l-8 3.336 3.606 1.025.997 3.639zm-.184 2.99-1.684 3.968L15.672 19l2.828-2.827z"/><path style="fill:#fff" d="M8.326 5.5 5.5 8.326l2.507 2.507 3.99-1.664zM15 9l-8 3.336 3.606 1.025.997 3.639zm-.184 2.99-1.684 3.968 2.54 2.542 2.828-2.827z"/></svg>