<svg xmlns="http://www.w3.org/2000/svg" width="24" height="24" version="1"><rect style="opacity:.2" width="20" height="20" x="2" y="2.5" rx="6" ry="6"/><rect style="fill:#4f4f4f" width="20" height="20" x="2" y="2" rx="6" ry="6"/><path style="opacity:.2" d="m16.25 4.75-.53.969-.97.531.97.531.53.969.53-.969.97-.531-.97-.531zM12 5.5c-3.86 0-7 3.14-7 7s3.14 7 7 7 7-3.14 7-7h-.6c0 3.53-2.87 6.4-6.4 6.4-3.53 0-6.4-2.87-6.4-6.4 0-3.53 2.87-6.4 6.4-6.4zm1.75.25-.178.322-.322.178.322.178.178.322.178-.322.322-.178-.322-.178zM12 7.5a5 5 0 0 0 0 10l.107-.002A5 5 0 0 0 12 7.5zm5.75.25-.354.646-.646.354.646.354.354.646.354-.646.646-.354-.646-.354zm.75 2.5-.266.484-.484.266.484.266.266.484.266-.484.484-.266-.484-.266zm-3.666 3.516zm-6.379.027a.376.376 0 0 0 .027.002v.002l-.027-.004zm0 0-.027.004v-.002l.027-.002z"/><path style="opacity:.1;fill:#fff" d="M8 2C4.676 2 2 4.676 2 8v.5c0-3.324 2.676-6 6-6h8c3.324 0 6 2.676 6 6V8c0-3.324-2.676-6-6-6z"/><path style="fill:#fff" d="m16.25 4.25-.53.969-.97.531.97.531.53.969.53-.969.97-.531-.97-.531-.53-.969zM12 5c-3.86 0-7 3.14-7 7s3.14 7 7 7 7-3.14 7-7h-.6c0 3.53-2.87 6.4-6.4 6.4-3.53 0-6.4-2.87-6.4-6.4 0-3.53 2.87-6.4 6.4-6.4V5zm1.75.25-.178.322-.322.178.322.178.178.322.178-.322.322-.178-.322-.178-.178-.322zm4 2-.354.646-.646.354.646.354.354.646.354-.646.646-.354-.646-.354-.354-.646zm.75 2.5-.266.484-.484.266.484.266.266.484.266-.484.484-.266-.484-.266-.266-.484z"/><path style="fill:#0092ee" d="M11.968 11.966s-.712-.131-1.34-.225c-.627-.093-1.313.068-1.489.272-.175.204.232.59.323.744.092.155.043.176-.119.324-.135.123-.683.19-.86.21v.005l-.028-.003-.028.003v-.006c-.177-.019-.724-.086-.86-.21-.16-.147-.21-.168-.119-.323.092-.154.499-.54.323-.744-.107-.125-.405-.233-.764-.277A5 5 0 0 0 12 17l.108-.003c.148-.553.341-1.503.002-1.738-.487-.337-1.04.028-1.04.028s-.393.215-.59-.01c-.197-.224-.234-.58-.216-.824.02-.243.225-.908.6-.74.375.17 1.122.299 1.283.094.412-.524-.18-1.841-.18-1.841"/><path style="fill:#bee34a" d="M11.968 11.966s2.624-.781 2.773-.032c.15.75-.786.787-.224 1.161.445.297.82.288.955.272v-.01l.028.006.028-.005v.009c.136.016.51.025.956-.272.562-.374-.375-.412-.225-1.161.048-.241.345-.324.724-.326a5 5 0 0 0-5.222-4.602c-.11.432-.203 1.044.048 1.363.16.205.908.075 1.283-.093.374-.169.58.496.6.74.018.243-.02.6-.216.824-.197.225-.59.01-.59.01s-.553-.366-1.04-.029c-.487.337.122 2.145.122 2.145"/><path style="fill:#f15976" d="M7.448 12.757c-.091.155-.042.176.12.324.135.123.682.19.86.21v.005l.027-.003.028.003v-.006c.177-.019.725-.086.86-.21.162-.147.21-.168.12-.323-.092-.154-.5-.54-.324-.744.176-.204.862-.366 1.49-.272.627.094 1.339.225 1.339.225s-.609-1.808-.122-2.145c.487-.337 1.04.028 1.04.028s.393.216.59-.01c.197-.224.234-.58.215-.823-.018-.244-.225-.909-.6-.74-.374.168-1.121.298-1.282.093-.25-.319-.159-.931-.048-1.363a5 5 0 0 0-4.754 4.73c.359.044.657.152.764.277.176.203-.231.59-.323.744"/><path style="fill:#10e7c4" d="M17 12c0-.132-.007-.262-.017-.392-.38.002-.676.085-.724.326-.15.75.787.787.225 1.161-.446.297-.82.288-.956.272v-.01l-.028.006-.028-.005v.009c-.136.016-.51.025-.955-.272-.562-.374.374-.412.225-1.161-.15-.75-2.774.032-2.774.032s.591 1.317.18 1.841c-.162.205-.91.075-1.284-.094-.375-.168-.58.497-.6.74-.018.244.02.6.216.825.197.224.59.009.59.009s.553-.365 1.04-.028c.34.235.146 1.185-.002 1.738A4.999 4.999 0 0 0 17 12"/></svg>