<svg xmlns="http://www.w3.org/2000/svg" width="24" height="24"><circle style="opacity:.3" cx="6.5" cy="18" r="4.5"/><circle style="fill:#c2352a" cx="6.5" cy="17.5" r="4.5"/><circle style="opacity:.2" cx="6.5" cy="18" r="2.5"/><circle style="fill:#e67a73" cx="6.5" cy="17.5" r="2.5"/><path style="opacity:.1;fill:#fff" d="M6.5 13A4.5 4.5 0 0 0 2 17.5a4.5 4.5 0 0 0 .01.288A4.5 4.5 0 0 1 6.5 13.5a4.5 4.5 0 0 1 4.49 4.212A4.5 4.5 0 0 0 11 17.5 4.5 4.5 0 0 0 6.5 13z"/><ellipse style="opacity:.3" cx="12.5" cy="6.925" rx="4.5" ry="4.575"/><circle style="fill:#46a249" cx="12.5" cy="6.5" r="4.5"/><circle style="opacity:.2" cx="12.5" cy="7" r="2.5"/><circle style="fill:#7bde7f" cx="12.5" cy="6.5" r="2.5"/><path style="opacity:.1;fill:#fff" d="M12.5 2A4.5 4.5 0 0 0 8 6.5a4.5 4.5 0 0 0 .01.288A4.5 4.5 0 0 1 12.5 2.5a4.5 4.5 0 0 1 4.49 4.212A4.5 4.5 0 0 0 17 6.5 4.5 4.5 0 0 0 12.5 2z"/><circle style="opacity:.3" cx="17.5" cy="18" r="4.5"/><circle style="fill:#8e53ab" cx="17.5" cy="17.5" r="4.5"/><circle style="opacity:.2" cx="17.5" cy="18" r="2.5"/><circle style="fill:#ba96cc" cx="17.5" cy="17.5" r="2.5"/><path style="opacity:.1;fill:#fff" d="M17.5 13a4.5 4.5 0 0 0-4.5 4.5 4.5 4.5 0 0 0 .01.288A4.5 4.5 0 0 1 17.5 13.5a4.5 4.5 0 0 1 4.49 4.212A4.5 4.5 0 0 0 22 17.5a4.5 4.5 0 0 0-4.5-4.5z"/><path style="fill:#fff;opacity:.1" d="M6.5 15A2.5 2.5 0 0 0 4 17.5a2.5 2.5 0 0 0 .014.238A2.5 2.5 0 0 1 6.5 15.5a2.5 2.5 0 0 1 2.486 2.262A2.5 2.5 0 0 0 9 17.5 2.5 2.5 0 0 0 6.5 15zM12.5 4A2.5 2.5 0 0 0 10 6.5a2.5 2.5 0 0 0 .014.238A2.5 2.5 0 0 1 12.5 4.5a2.5 2.5 0 0 1 2.486 2.262A2.5 2.5 0 0 0 15 6.5 2.5 2.5 0 0 0 12.5 4zM17.5 15a2.5 2.5 0 0 0-2.5 2.5 2.5 2.5 0 0 0 .014.238A2.5 2.5 0 0 1 17.5 15.5a2.5 2.5 0 0 1 2.486 2.262A2.5 2.5 0 0 0 20 17.5a2.5 2.5 0 0 0-2.5-2.5z"/></svg>