<svg width="24" height="24" xmlns="http://www.w3.org/2000/svg"><circle cx="12" cy="12.5" r="10" style="opacity:.2"/><circle cx="12" cy="12" r="10" style="fill:#4f4f4f"/><path d="M12 2A10 10 0 0 0 2 12a10 10 0 0 0 .01.293A10 10 0 0 1 12 2.5a10 10 0 0 1 9.99 9.707A10 10 0 0 0 22 12 10 10 0 0 0 12 2z" style="fill:#fff;opacity:.1"/><path d="M6.625 13.5c-.292 0-.524.216-.594.504-.01 0-.02-.004-.031-.004h-.5c-.277 0-.5.167-.5.375v.75c0 .208.223.375.5.375H6v1.332c0 .37.279.668.625.668h3.75c.346 0 .625-.298.625-.668v-1.441c.268-.095.62-.192 1-.192s.732.097 1 .192v1.441c0 .37.279.668.625.668h3.75c.346 0 .625-.298.625-.668V15.5h.5c.277 0 .5-.167.5-.375v-.75c0-.208-.223-.375-.5-.375H18c-.011 0-.02.003-.031.004-.07-.288-.302-.504-.594-.504h-3.75c-.346 0-.625.298-.625.668v.523c-.268-.094-.62-.191-1-.191s-.732.097-1 .191v-.523c0-.37-.279-.668-.625-.668z" style="opacity:.2"/><path d="M6.625 13c-.292 0-.524.216-.594.504-.01 0-.02-.004-.031-.004h-.5c-.277 0-.5.167-.5.375v.75c0 .208.223.375.5.375H6v1.332c0 .37.279.668.625.668h3.75c.346 0 .625-.298.625-.668v-1.441c.268-.095.62-.192 1-.192s.732.097 1 .192v1.441c0 .37.279.668.625.668h3.75c.346 0 .625-.298.625-.668V15h.5c.277 0 .5-.167.5-.375v-.75c0-.208-.223-.375-.5-.375H18c-.011 0-.02.003-.031.004-.07-.288-.302-.504-.594-.504h-3.75c-.346 0-.625.298-.625.668v.523c-.268-.094-.62-.191-1-.191s-.732.097-1 .191v-.523c0-.37-.279-.668-.625-.668z" style="fill:#fff"/><path style="opacity:.2" d="M4 11.5h16v1H4z"/><path style="fill:#fff" d="M4 11h16v1H4z"/><path d="m7 10.5 1-3 3 2 5-2 1 3z" style="opacity:.2"/><path d="m7 10 1-3 3 2 5-2 1 3z" style="fill:#fff"/></svg>