<svg xmlns="http://www.w3.org/2000/svg" width="24" height="24" version="1"><path fill="#e4e4e4" d="M20 21V3c0-.554-.446-1-1-1H5c-.554 0-1 .446-1 1v18c0 .554.446 1 1 1h14c.554 0 1-.446 1-1z"/><path fill="#fff" opacity=".1" d="M5 2c-.554 0-1 .446-1 1v.5c0-.554.446-1 1-1h14c.554 0 1 .446 1 1V3c0-.554-.446-1-1-1z"/><g fill="#4c4c4c"><path d="M6 5h12v1H6zM6 8h12v1H6zM6 11h12v1H6z"/></g><path opacity=".5" d="M19 22c.554 0 1-.446 1-1v-8.5H4V21c0 .554.446 1 1 1z"/><path opacity=".2" d="M4 21v.5c0 .554.446 1 1 1h14c.554 0 1-.446 1-1V21c0 .554-.446 1-1 1H5c-.554 0-1-.446-1-1z"/><g fill="#e4e4e4"><path d="M6 13h12v1H6zM6 16h12v1H6zM6 19h12v1H6z"/></g><path opacity=".2" d="M4 21v.5c0 .554.446 1 1 1h14c.554 0 1-.446 1-1V21c0 .554-.446 1-1 1H5c-.554 0-1-.446-1-1z"/></svg>