<svg xmlns="http://www.w3.org/2000/svg" width="24" height="24" version="1.0"><path style="opacity:.2;fill-rule:evenodd" d="M11.837 2.5c-.348.006-.693.03-1.032.07a.698.698 0 0 0-.575.458l-.56 1.568a8.224 8.224 0 0 0-1.589.656l-1.5-.717a.698.698 0 0 0-.73.08 10.068 10.068 0 0 0-1.716 1.71.698.698 0 0 0-.083.731l.711 1.503c-.273.5-.493 1.031-.66 1.587l-1.568.555a.698.698 0 0 0-.46.573 10.084 10.084 0 0 0-.004 2.422.698.698 0 0 0 .458.574l1.567.56c.165.557.385 1.087.657 1.588l-.717 1.502a.698.698 0 0 0 .08.73 10.062 10.062 0 0 0 1.71 1.715.698.698 0 0 0 .73.083l1.503-.712c.5.273 1.03.494 1.586.66l.555 1.569a.698.698 0 0 0 .574.46 10.08 10.08 0 0 0 2.421.004.698.698 0 0 0 .575-.458l.56-1.567a8.224 8.224 0 0 0 1.588-.657l1.502.717a.698.698 0 0 0 .73-.08 10.068 10.068 0 0 0 1.715-1.71.698.698 0 0 0 .083-.73l-.712-1.503c.273-.5.494-1.03.661-1.587l1.568-.555a.698.698 0 0 0 .46-.573 10.083 10.083 0 0 0 .004-2.422.698.698 0 0 0-.458-.574l-1.567-.56a8.223 8.223 0 0 0-.656-1.588l.717-1.501a.698.698 0 0 0-.08-.73 10.062 10.062 0 0 0-1.71-1.716.698.698 0 0 0-.73-.082l-1.503.712a8.223 8.223 0 0 0-1.59-.663l-.554-1.568a.698.698 0 0 0-.573-.46C12.823 2.527 12.414 2.5 12 2.5h-.163z"/><path style="fill:#a835c6;fill-rule:evenodd" d="M11.837 2c-.348.006-.693.03-1.032.07a.698.698 0 0 0-.575.458l-.56 1.568a8.224 8.224 0 0 0-1.589.656l-1.5-.717a.698.698 0 0 0-.73.08 10.068 10.068 0 0 0-1.716 1.71.698.698 0 0 0-.083.731l.711 1.503c-.273.5-.493 1.031-.66 1.587l-1.568.555a.698.698 0 0 0-.46.573 10.084 10.084 0 0 0-.004 2.422.698.698 0 0 0 .458.574l1.567.56c.165.557.385 1.087.657 1.588l-.717 1.502a.698.698 0 0 0 .08.73 10.062 10.062 0 0 0 1.71 1.715.698.698 0 0 0 .73.083l1.503-.712c.5.273 1.03.494 1.586.66l.555 1.569a.698.698 0 0 0 .574.46 10.08 10.08 0 0 0 2.421.004.698.698 0 0 0 .575-.458l.56-1.567a8.224 8.224 0 0 0 1.588-.657l1.502.717a.698.698 0 0 0 .73-.08 10.068 10.068 0 0 0 1.715-1.71.698.698 0 0 0 .083-.73l-.712-1.503c.273-.5.494-1.03.661-1.587l1.568-.555a.698.698 0 0 0 .46-.573 10.083 10.083 0 0 0 .004-2.422.698.698 0 0 0-.458-.574l-1.567-.56a8.223 8.223 0 0 0-.656-1.588l.717-1.501a.698.698 0 0 0-.08-.73 10.062 10.062 0 0 0-1.71-1.716.698.698 0 0 0-.73-.082l-1.503.712a8.223 8.223 0 0 0-1.59-.663l-.554-1.568a.698.698 0 0 0-.573-.46C12.823 2.027 12.414 2 12 2h-.163z"/><path style="opacity:.1;fill:#fff;fill-rule:evenodd" d="M11.837 2c-.349.006-.693.03-1.032.07a.698.698 0 0 0-.575.458l-.56 1.568a8.225 8.225 0 0 0-1.589.656l-1.5-.717a.698.698 0 0 0-.73.08 10.063 10.063 0 0 0-1.716 1.71.698.698 0 0 0-.103.68.698.698 0 0 1 .103-.18c.5-.637 1.077-1.21 1.716-1.71a.698.698 0 0 1 .73-.08l1.5.717a8.225 8.225 0 0 1 1.589-.656l.56-1.568a.698.698 0 0 1 .575-.458 10.063 10.063 0 0 1 1.066-.07H12c.414 0 .823.026 1.226.075a.698.698 0 0 1 .572.46l.555 1.568a8.223 8.223 0 0 1 1.588.662l1.504-.711a.698.698 0 0 1 .73.08c.637.502 1.21 1.078 1.71 1.717a.698.698 0 0 1 .101.18.698.698 0 0 0-.101-.68 10.058 10.058 0 0 0-1.71-1.716.698.698 0 0 0-.73-.081l-1.504.71a8.223 8.223 0 0 0-1.588-.661l-.555-1.569a.698.698 0 0 0-.572-.459C12.823 2.025 12.414 2 12 2h-.163zM4.645 8.308a8.243 8.243 0 0 0-.542 1.338l-1.568.555a.698.698 0 0 0-.46.572C2.024 11.175 2 11.585 2 12c0 .085.006.17.008.254.008-.33.027-.659.066-.98a.698.698 0 0 1 .461-.573l1.568-.555a8.226 8.226 0 0 1 .66-1.586zm14.722.024-.119.25c.272.501.492 1.031.656 1.588l1.568.56a.698.698 0 0 1 .457.574c.037.31.055.625.063.942.002-.082.008-.163.008-.246 0-.404-.024-.804-.071-1.196a.698.698 0 0 0-.457-.575l-1.568-.56a8.212 8.212 0 0 0-.537-1.337zM4.634 16.168l-.598 1.252a.698.698 0 0 0-.021.55.698.698 0 0 1 .021-.05l.717-1.502c-.044-.081-.078-.168-.12-.25zm14.72.024c-.04.082-.075.168-.119.248l.713 1.504a.698.698 0 0 1 .02.048.698.698 0 0 0-.02-.548z"/><circle style="opacity:.2" cx="12" cy="12.5" r="6"/><circle style="fill:#ffbc2e" cx="12" cy="12" r="6"/><path style="fill:#fff;opacity:.2" d="M12 6a6 6 0 0 0-6 6 6 6 0 0 0 .01.285A6 6 0 0 1 12 6.5a6 6 0 0 1 5.99 5.715A6 6 0 0 0 18 12a6 6 0 0 0-6-6z"/><path style="opacity:.1" d="m5.25 3.5 5.386 13h2.728l5.386-13h-3.178L12 13 8.428 3.5z"/><path style="fill:#ff4c0e" d="m5.25 3 5.386 13h2.728L18.75 3h-3.178L12 12.5 8.428 3z"/><path style="opacity:.2;fill:#fff" d="m5.25 3 .207.5h2.97L12 13l3.572-9.5h2.971l.207-.5h-3.178L12 12.5 8.428 3z"/></svg>