<svg xmlns="http://www.w3.org/2000/svg" width="24" height="24"><path style="opacity:.2" d="M2.898 2.5c-.497 0-.87.403-.898.9v16.2c0 .498.401.9.898.9h7.127c1.535 0 2.98-.386 4.244-1.068.463-.25-.263-1.741.097-2.091 1.24-1.208 3.055-1.755 3.595-3.527C18.216 12.98 19 12.418 19 11.5c0-4.97-4.018-9-8.975-9zM8 8.5h2.105c1.647 0 2.895 1.28 2.895 3s-1.248 3-2.895 3H8v-3z"/><path style="fill:#e4e4e4" d="M2.898 2c-.497 0-.87.403-.898.9v16.2c0 .498.401.9.898.9h7.127c2.012 0 3.223-1.365 4.72-2.486 1.55-1.162 1.797-2.328 2.344-4.242C17.316 12.482 19 11.863 19 11c0-4.97-4.018-9-8.975-9zM8 8h2.105C11.752 8 13 9.28 13 11s-1.248 3-2.895 3H8v-3z"/><path style="opacity:.2;fill:#fff" d="M2.898 2c-.497 0-.87.403-.898.9v.5c.028-.497.401-.9.898-.9h7.127c4.873 0 8.828 3.896 8.961 8.75.003-.084.014-.166.014-.25 0-4.97-4.018-9-8.975-9zm10.079 9.25C12.86 12.84 11.669 14 10.105 14H8v.5h2.105c1.647 0 2.895-1.28 2.895-3 0-.086-.017-.166-.023-.25z"/><path style="opacity:.2" d="m18 11.5-6 6v3h6v2h3v-2h1v-3h-1v-6zm0 4v2h-1.76z"/><path style="fill:#fe5400" d="m18 11-6 6v3h6v2h3v-2h1v-3h-1v-6zm0 4v2h-1.76z"/><path style="opacity:.1;fill:#fff" d="m18 11-6 6v.5l6-6h3V11zm-1.32 6-.44.5H18V17zM21 17v.5h1V17z"/></svg>