<svg xmlns="http://www.w3.org/2000/svg" width="24" height="24" version="1"><path style="opacity:.2" d="M2 20v.5c0 .554.446 1 1 1h18c.554 0 1-.446 1-1V20c0 .554-.446 1-1 1H3c-.554 0-1-.446-1-1z"/><rect style="fill:#4f4f4f" width="20" height="18" x="2" y="3" rx="1" ry="1"/><path style="opacity:.2" d="M5 5.5v1H3.5v1H5v3H3.5v1H5v1h1v-1h2v1h1v-1h1.5v-1H9v-3h1.5v-1H9v-1H8v1H6v-1zm1 2h2v3H6zm6 4v1h6v-1z"/><path style="fill:#fff" d="M5 5v1H3.5v1H5v3H3.5v1H5v1h1v-1h2v1h1v-1h1.5v-1H9V7h1.5V6H9V5H8v1H6V5zm1 2h2v3H6zm6 4v1h6v-1z"/><path style="opacity:.1;fill:#fff" d="M3 3c-.554 0-1 .446-1 1v.5c0-.554.446-1 1-1h18c.554 0 1 .446 1 1V4c0-.554-.446-1-1-1H3z"/><circle style="fill:#16a086" cx="18" cy="17" r="6"/><path style="fill:#fff" d="M19 14v3.016h2L18 21l-3-4.016h2V14h2.297z"/></svg>