<svg xmlns="http://www.w3.org/2000/svg" width="24" height="24"><path style="fill:#ff7c40" d="M12 2A10 10 0 0 0 2 12a10 10 0 0 0 10 10 10 10 0 0 0 10-10A10 10 0 0 0 12 2z"/><path style="opacity:.2" d="M14.525 6.502a4.5 1.5 0 0 0-4.5 1.5 4.5 1.5 0 0 0 4.5 1.5 4.5 1.5 0 0 0 4.5-1.5 4.5 1.5 0 0 0-4.5-1.5zm4.237 3a4.5 1.5 0 0 1-4.237 1 4.5 1.5 0 0 1-4.236-.998 4.5 1.5 0 0 0-.264.498 4.5 1.5 0 0 0 4.5 1.5 4.5 1.5 0 0 0 4.5-1.5 4.5 1.5 0 0 0-.263-.5zm0 2a4.5 1.5 0 0 1-4.237 1 4.5 1.5 0 0 1-.822-.025c.183.163.297.338.297.523v.49a4.5 1.5 0 0 0 .525.012 4.5 1.5 0 0 0 4.5-1.5 4.5 1.5 0 0 0-.263-.5zm-8.473.002a4.5 1.5 0 0 0-.021.023h.048a4.5 1.5 0 0 1-.027-.023zm8.473 1.996a4.5 1.5 0 0 1-4.237 1 4.5 1.5 0 0 1-.525-.012v1a4.5 1.5 0 0 0 .525.012 4.5 1.5 0 0 0 4.5-1.5 4.5 1.5 0 0 0-.263-.5zm0 2a4.5 1.5 0 0 1-4.237 1 4.5 1.5 0 0 1-.525-.012V17c0 .168-.101.328-.254.479a4.5 1.5 0 0 0 .78.021 4.5 1.5 0 0 0 4.5-1.5 4.5 1.5 0 0 0-.264-.5z"/><path style="opacity:.2" d="M2.01 12.209A10 10 0 0 0 2 12.5a10 10 0 0 0 10 10 10 10 0 0 0 10-10 10 10 0 0 0-.01-.209A10 10 0 0 1 12 22a10 10 0 0 1-9.989-9.791z"/><path style="opacity:.2;fill:#fff" d="M12 2A10 10 0 0 0 2 12a10 10 0 0 0 .01.209A10 10 0 0 1 12 2.5a10 10 0 0 1 9.99 9.791A10 10 0 0 0 22 12 10 10 0 0 0 12 2z"/><path style="fill:#ffd8c6" d="M14.525 6.002a4.5 1.5 0 0 0-4.5 1.5 4.5 1.5 0 0 0 4.5 1.5 4.5 1.5 0 0 0 4.5-1.5 4.5 1.5 0 0 0-4.5-1.5zm4.237 3a4.5 1.5 0 0 1-4.237 1 4.5 1.5 0 0 1-4.236-.998 4.5 1.5 0 0 0-.264.498 4.5 1.5 0 0 0 4.5 1.5 4.5 1.5 0 0 0 4.5-1.5 4.5 1.5 0 0 0-.263-.5zm0 2a4.5 1.5 0 0 1-4.237 1 4.5 1.5 0 0 1-.822-.025c.183.163.297.338.297.523v.49a4.5 1.5 0 0 0 .525.012 4.5 1.5 0 0 0 4.5-1.5 4.5 1.5 0 0 0-.263-.5zm-8.473.002a4.5 1.5 0 0 0-.021.023h.048a4.5 1.5 0 0 1-.027-.023zM18.762 13a4.5 1.5 0 0 1-4.237 1 4.5 1.5 0 0 1-.525-.012v1a4.5 1.5 0 0 0 .525.012 4.5 1.5 0 0 0 4.5-1.5 4.5 1.5 0 0 0-.263-.5zm0 2a4.5 1.5 0 0 1-4.237 1 4.5 1.5 0 0 1-.525-.012v.512c0 .168-.101.328-.254.479a4.5 1.5 0 0 0 .78.021 4.5 1.5 0 0 0 4.5-1.5 4.5 1.5 0 0 0-.264-.5z"/><path style="opacity:.2" d="M9.5 11.5A4.5 1.5 0 0 0 5 13a4.5 1.5 0 0 0 4.5 1.5A4.5 1.5 0 0 0 14 13a4.5 1.5 0 0 0-4.5-1.5zm4.238 3a4.5 1.5 0 0 1-4.238 1 4.5 1.5 0 0 1-4.236-.998A4.5 1.5 0 0 0 5 15a4.5 1.5 0 0 0 4.5 1.5A4.5 1.5 0 0 0 14 15a4.5 1.5 0 0 0-.262-.5zm0 2a4.5 1.5 0 0 1-4.238 1 4.5 1.5 0 0 1-4.236-.998A4.5 1.5 0 0 0 5 17a4.5 1.5 0 0 0 4.5 1.5A4.5 1.5 0 0 0 14 17a4.5 1.5 0 0 0-.262-.5z"/><path style="fill:#fff" d="M9.5 11A4.5 1.5 0 0 0 5 12.5 4.5 1.5 0 0 0 9.5 14a4.5 1.5 0 0 0 4.5-1.5A4.5 1.5 0 0 0 9.5 11zm4.238 3A4.5 1.5 0 0 1 9.5 15a4.5 1.5 0 0 1-4.236-.998A4.5 1.5 0 0 0 5 14.5 4.5 1.5 0 0 0 9.5 16a4.5 1.5 0 0 0 4.5-1.5 4.5 1.5 0 0 0-.262-.5zm0 2A4.5 1.5 0 0 1 9.5 17a4.5 1.5 0 0 1-4.236-.998A4.5 1.5 0 0 0 5 16.5 4.5 1.5 0 0 0 9.5 18a4.5 1.5 0 0 0 4.5-1.5 4.5 1.5 0 0 0-.262-.5z"/></svg>