<svg xmlns="http://www.w3.org/2000/svg" width="24" height="24" version="1"><rect style="fill:#714f36" width="20" height="20" x="2" y="2" rx="1" ry="1"/><path style="opacity:.2" d="M3 2.5c-.554 0-1 .446-1 1v3h2v-.999h2V6.5h2v2h2v-4h2v2h2v-.999h2V8.5h2v-2h2v-.999h2V6.5v-.999h-.001L22 5.5V3.5c0-.554-.446-1-1-1z"/><path style="fill:#629431" d="M3 2c-.554 0-1 .446-1 1v3h2v-.999h2V6h2v2h2V4h2v2h2v-.999h2V8h2V6h2v-.999h2V6v-.999h-.001L22 5V3c0-.554-.446-1-1-1z"/><path style="opacity:.2;fill:#fff" d="M2 3.5V3c0-.554.446-1 1-1h18c.554 0 1 .446 1 1v.5c0-.554-.446-1-1-1H3c-.554 0-1 .446-1 1z"/><path style="opacity:.2" d="M2 21v.5c0 .554.446 1 1 1h18c.554 0 1-.446 1-1V21c0 .554-.446 1-1 1H3c-.554 0-1-.446-1-1z"/><path style="fill:none;stroke:#78c629;stroke-width:2;stroke-linecap:round" d="M7 11c3.5 0 6.55 6 10.05 6 1.537 0 3-1.586 3-3s-1.463-3-3-3c-4 0-6.55 6-10.05 6"/><path style="fill:none;stroke:#78c629;stroke-width:2;stroke-linecap:round" d="M17 11c-3.898 0-6.5 6-10 6-1.537 0-3-1.586-3-3s1.463-3 3-3"/><path style="opacity:.2;fill:#fff" d="m17 10-.014.002c-.301-.003-.614.003-.847.074-2.03.35-3.585 1.874-4.977 3.2C9.58 14.782 8.18 16 7 16c-.424 0-.953-.25-1.36-.668a2.361 2.361 0 0 1-.605-1.082c-.02.088-.035.175-.035.25 0 .362.234.915.64 1.332.407.417.936.668 1.36.668 1.179 0 2.58-1.217 4.162-2.725C12.745 12.268 14.538 10.5 17 10.5c.01 0 .02-.004.031-.004.01 0 .022.004.032.004 1.112 0 2.083.542 2.792 1.271.652.67 1.106 1.529 1.178 2.479.007-.084.03-.164.03-.25 0-1.052-.498-2-1.208-2.729-.526-.54-1.196-.975-1.96-1.166-.2-.093-.5-.105-.819-.103L17.063 10H17z"/><path style="opacity:.2" d="M17 12c-.391 0-.785.096-1.182.26l-.002-.004v.006c-1.056.436-2.136 1.378-3.275 2.463C10.973 16.217 9.321 18 7 18c-1.112 0-2.083-.542-2.793-1.271-.652-.67-1.105-1.529-1.178-2.479-.006.084-.029.164-.029.25 0 1.052.497 2 1.207 2.729.71.729 1.68 1.271 2.793 1.271 2.321 0 3.973-1.783 5.541-3.275 1.344-1.28 2.606-2.363 3.844-2.647.197-.034.41-.071.63-.076.137.003.256.024.366.047.343.092.712.31 1.014.619.322.331.53.743.605 1.082.02-.088.035-.175.035-.25 0-.362-.234-.915-.64-1.332a2.446 2.446 0 0 0-.512-.393c-.002-.006.001-.005 0-.011l-.004.007c-.286-.168-.584-.271-.844-.271-.004 0-.01.004-.014.004-.007 0-.013-.004-.021-.004z"/></svg>