<svg xmlns="http://www.w3.org/2000/svg" width="24" height="24"><circle style="opacity:.2" cx="12" cy="12.5" r="10"/><circle style="fill:#5d105d" cx="12" cy="12" r="10"/><path style="opacity:.1;fill:#fff" d="M12 2A10 10 0 0 0 2 12a10 10 0 0 0 .01.291A10 10 0 0 1 12 2.5a10 10 0 0 1 9.99 9.709A10 10 0 0 0 22 12 10 10 0 0 0 12 2z"/><path style="opacity:.2" d="M12 5.5a7 7 0 0 0-5.01 2.12l.32.32 1.801 1.8A4 4 0 0 1 12 8.5a4 4 0 0 1 4 4h-2.05l3.5 3.5 3.5-3.5H19a7 7 0 0 0-7-7zM6.55 9l-3.5 3.5H5a7 7 0 0 0 7 7 7 7 0 0 0 5.01-2.12l-.32-.32-1.801-1.8A4 4 0 0 1 12 16.5a4 4 0 0 1-4-4h2.05z"/><path style="fill:#fff" d="M12 5a7 7 0 0 0-5.01 2.12l.32.32 1.801 1.8A4 4 0 0 1 12 8a4 4 0 0 1 4 4 4 4 0 0 1-.045.568l2.842 1.077A7 7 0 0 0 19 12a7 7 0 0 0-7-7zm-6.875 5.695A7 7 0 0 0 5 12a7 7 0 0 0 7 7 7 7 0 0 0 5.01-2.12l-.32-.32-1.801-1.8A4 4 0 0 1 12 16a4 4 0 0 1-4-4 4 4 0 0 1 .01-.22l-2.666-.866-.219-.219z"/><path style="fill:#fff" d="m6.55 8.5 3.5 3.5h-7zM17.45 15.5l3.5-3.5h-7z"/></svg>