<svg xmlns="http://www.w3.org/2000/svg" width="24" height="24" version="1"><circle style="opacity:.2" cx="12" cy="12.5" r="10"/><circle style="fill:#7bb034" cx="12" cy="12" r="10"/><path style="opacity:.2;fill:#fff" d="M12 2A10 10 0 0 0 2 12a10 10 0 0 0 .01.291A10 10 0 0 1 12 2.5a10 10 0 0 1 9.99 9.709A10 10 0 0 0 22 12 10 10 0 0 0 12 2z"/><path style="opacity:.2" d="M16.275 5.5a.723.723 0 0 0-.722.677l-2.077.642a.817.817 0 0 0-1.452.36.82.82 0 0 0 .387.843l-1.706 9.838a.818.818 0 0 0-.614.335l-2.29-1.24a.653.653 0 0 0-.305-.721l.32-1.825a.654.654 0 0 0 .269-.116l2.766 1.55.084-.48-1.265-.71.19-1.066a.538.538 0 0 0-.067-1.07.536.536 0 0 0-.528.45l-.006.06a.161.161 0 0 0-.002.027v.019l.001.007-1.006.328a.653.653 0 0 0-.557-.306.658.658 0 0 0-.333 1.228l-.32 1.823a.652.652 0 0 0-.531.533.656.656 0 0 0 1.03.653l2.393 1.295a.815.815 0 0 0 .819.866.818.818 0 0 0 .816-.75l2.145-.819a.72.72 0 0 0 .536.237.723.723 0 0 0 .593-1.141.73.73 0 0 0-.146-.154l1.753-9.945a.726.726 0 0 0-.048-1.417H16.4a.756.756 0 0 0-.126-.011zm0 .461a.266.266 0 0 1 .17.064.263.263 0 0 1-.215.46.265.265 0 0 1-.217-.289l.004-.019a.263.263 0 0 1 .258-.216zm-.52.765c.036.037.075.07.118.099l-1.746 9.905a.72.72 0 0 0-.6.645l-2.124.81a.813.813 0 0 0-.136-.142l1.72-9.919a.819.819 0 0 0 .663-.745zm-2.924.236a.356.356 0 0 1 .28.138c.063.08.09.177.076.275l-.003.017a.358.358 0 0 1-.268.277.355.355 0 0 1-.284-.05.359.359 0 0 1 .198-.658zM9.793 12.91a.145.145 0 1 1 0 .289.145.145 0 0 1 0-.29zm-.403.495a.67.67 0 0 0 .128.108l-.172.958-1.007-.565.006-.03a.627.627 0 0 0 .008-.133zm-1.696.158a.196.196 0 0 1 .163.085c.03.041.042.092.035.14l-.006.02a.19.19 0 0 1-.098.125l-.046.018a.176.176 0 0 1-.158-.025.198.198 0 0 1-.084-.199.197.197 0 0 1 .195-.164zm-.535 3.04a.212.212 0 0 1 .113.035.196.196 0 0 1 .085.19.2.2 0 0 0-.01.027.194.194 0 0 1-.109.126.194.194 0 0 1-.241-.066.196.196 0 0 1-.033-.149c.013-.075.07-.134.157-.156a.179.179 0 0 1 .038-.008zm7.094.572a.269.269 0 1 1 0 .538.269.269 0 0 1 0-.538zm-.004.004a.258.258 0 0 1 0 0zm-.055.007zm-.027.508zm-3.416.626a.353.353 0 0 1 .27.125l.017.019a.354.354 0 0 1 .072.25l-.006.007v.028a.36.36 0 1 1-.353-.43z"/><path style="fill:#fff" d="M16.275 5a.723.723 0 0 0-.722.677l-2.077.642a.817.817 0 0 0-1.452.36.82.82 0 0 0 .387.843l-1.706 9.838a.818.818 0 0 0-.614.335l-2.29-1.24a.653.653 0 0 0-.305-.721l.32-1.825a.654.654 0 0 0 .269-.116l2.766 1.55.084-.48-1.265-.71.19-1.066a.538.538 0 0 0-.067-1.07.536.536 0 0 0-.528.45l-.006.06a.161.161 0 0 0-.002.027v.019l.001.007-1.006.328a.653.653 0 0 0-.557-.306.658.658 0 0 0-.333 1.228l-.32 1.823a.652.652 0 0 0-.531.533.656.656 0 0 0 1.03.653l2.393 1.295a.815.815 0 0 0 .819.866.818.818 0 0 0 .816-.75l2.145-.819a.72.72 0 0 0 .536.237.723.723 0 0 0 .593-1.141.73.73 0 0 0-.146-.154l1.753-9.945a.726.726 0 0 0-.048-1.417H16.4a.756.756 0 0 0-.126-.01zm0 .461a.266.266 0 0 1 .17.064.263.263 0 0 1-.215.46.265.265 0 0 1-.217-.289l.004-.019a.263.263 0 0 1 .258-.216zm-.52.765c.036.037.075.07.118.099l-1.746 9.905a.72.72 0 0 0-.6.645l-2.124.81a.813.813 0 0 0-.136-.142l1.72-9.919a.819.819 0 0 0 .663-.745zm-2.924.236a.356.356 0 0 1 .28.138c.063.08.09.177.076.275l-.003.017a.358.358 0 0 1-.268.277.355.355 0 0 1-.284-.05.359.359 0 0 1 .198-.658zM9.793 12.41a.145.145 0 1 1 0 .289.145.145 0 0 1 0-.29zm-.403.495a.67.67 0 0 0 .128.108l-.172.958-1.007-.565.006-.03a.627.627 0 0 0 .008-.133zm-1.696.158a.196.196 0 0 1 .163.085c.03.041.042.092.035.14l-.006.02a.19.19 0 0 1-.098.125l-.046.018a.177.177 0 0 1-.158-.025.198.198 0 0 1-.084-.198v-.001a.197.197 0 0 1 .195-.164zm-.535 3.04a.212.212 0 0 1 .113.035.196.196 0 0 1 .085.19.2.2 0 0 0-.01.027.194.194 0 0 1-.109.126.194.194 0 0 1-.241-.066.196.196 0 0 1-.033-.149c.013-.075.07-.134.157-.156a.179.179 0 0 1 .038-.008zm7.094.572a.269.269 0 1 1 0 .538.269.269 0 0 1 0-.538zm-.004.004a.258.258 0 0 1 0 0zm-.055.007zm-.027.508zm-3.416.626a.36.36 0 0 1 .27.124l.017.02a.354.354 0 0 1 .072.25l-.006.007v.028a.36.36 0 1 1-.353-.43z"/></svg>