<svg xmlns="http://www.w3.org/2000/svg" width="24" height="24" version="1"><g transform="translate(1 1)"><rect fill="#4f4f4f" width="20" height="20" x="-21" y="-21" rx="1" ry="1" transform="matrix(0 -1 -1 0 0 0)"/><path fill="#fff" opacity=".1" d="M2 1c-.554 0-1 .446-1 1v.5c0-.554.446-1 1-1h18c.554 0 1 .446 1 1V2c0-.554-.446-1-1-1H2z"/><path opacity=".2" d="M2 21.5c-.554 0-1-.446-1-1V20c0 .554.446 1 1 1h18c.554 0 1-.446 1-1v.5c0 .554-.446 1-1 1H2z"/><g style="enable-background:new" transform="translate(-13 -265)"><path fill="none" stroke="#c4c4c4" stroke-linecap="round" d="M17.5 269.5h13v13h-13z"/><path fill="none" stroke="#c4c4c4" stroke-linecap="round" d="M20.5 272.5h7v7h-7z"/><path fill="none" stroke="#c4c4c4" d="m16.5 268.5 4 4M27.5 272.5l4-4M27.5 279.5l4 4M20.5 279.5l-4 4"/><circle fill="#e8e8e8" cx="17.5" cy="269.5" r="1.5"/><circle fill="#e8e8e8" cx="30.5" cy="269.5" r="1.5"/><circle fill="#e8e8e8" cx="20.5" cy="272.5" r="1.5"/><circle fill="#e8e8e8" cx="27.5" cy="272.5" r="1.5"/><circle fill="#e8e8e8" cx="27.5" cy="279.5" r="1.5"/><circle fill="#e8e8e8" cx="20.5" cy="279.5" r="1.5"/><circle fill="#e8e8e8" cx="17.5" cy="282.5" r="1.5"/><circle fill="#e8e8e8" cx="30.5" cy="282.5" r="1.5"/></g></g></svg>