<svg xmlns="http://www.w3.org/2000/svg" width="24" height="24" version="1"><rect fill="#4f4f4f" width="20" height="19.998" x="-22" y="-22" rx="10" ry="9.999" transform="matrix(0 -1 -1 0 0 0)"/><path fill="#fff" opacity=".1" d="M12 2a9.978 9.978 0 0 0-9.999 10c0 .084-.002.167 0 .25C2.133 6.827 6.544 2.5 12 2.5s9.867 4.327 9.999 9.75c.002-.083 0-.166 0-.25 0-5.54-4.459-10-9.999-10z"/><path opacity=".2" d="M2.006 12.25c-.002.084-.006.166-.006.25 0 5.54 4.46 10 10 10s10-4.46 10-10c0-.084-.004-.167-.006-.25C21.862 17.673 17.456 22 12 22s-9.862-4.327-9.994-9.75z"/><path opacity=".2" d="M15.611 7.504c-.331.018-.7.1-1.113.227L14 7.51l-7 4.496c1.043-.422 2.216-.795 2.751-.841L8 13.005l1.357-.521c-.561 1.653-1.222 3.203-2.739 3.91A8.086 8.086 0 0 0 11 18.503l1.001 1.998.999-1.998a8.076 8.076 0 0 0 4.56-2.285c-2.16.02-4.016-.351-4.224-2.842-.056-.316-.017-2.365 3.164-3.367-.321-.218-1.355-.214-2.114-.216-.033-.297.16-1.64 2.614-1.783-.385-.392-.836-.536-1.389-.505zm-2.05.877c.156.067.177.169.205.278-.274.056-.66.187-.768.038-.05-.05.287-.24.565-.311l-.003-.005z"/><path fill="#ee5454" d="M15.611 7.004c-.331.018-.7.1-1.113.227L14 7.01l-7 4.496c1.043-.422 2.216-.794 2.751-.841L8 12.506l1.357-.522c-.561 1.653-1.222 3.203-2.739 3.911A8.086 8.086 0 0 0 11 18.002L12.001 20 13 18.002a8.076 8.076 0 0 0 4.56-2.284c-2.16.019-4.016-.352-4.224-2.843-.056-.316-.017-2.365 3.164-3.368-.321-.218-1.355-.213-2.114-.215-.033-.297.16-1.64 2.614-1.783-.385-.392-.836-.536-1.39-.506zm-2.05.877c.156.067.177.169.205.278-.274.056-.66.187-.768.038-.05-.05.287-.24.565-.31l-.003-.006z"/><path opacity=".2" d="M8.213 4.503C5.136 5.917 3 9 3 12.584c0 4.924 4.03 8.916 9.001 8.916C16.97 21.5 21 17.508 21 12.584c0-3.539-2.084-6.593-5.1-8.025l-.094.092c2.382 1.324 3.997 3.35 3.997 6.249 0 3.892-3.026 7.061-6.802 7.6l-1 2-1.001-2c-3.777-.538-6.8-3.708-6.8-7.6 0-2.929 1.647-4.976 4.068-6.288-.016-.035-.04-.074-.056-.112"/><path fill="#7abfe8" d="M8.213 4.003C5.136 5.417 3 8.5 3 12.084 3 17.008 7.03 21 12.001 21 16.97 21 21 17.008 21 12.084c0-3.539-2.084-6.593-5.1-8.025l-.094.092c2.382 1.324 3.997 3.35 3.997 6.249 0 3.892-3.026 7.061-6.802 7.6l-1 2L11 18c-3.777-.538-6.8-3.708-6.8-7.6 0-2.929 1.647-4.976 4.069-6.288-.017-.035-.04-.074-.057-.112"/></svg>