<svg xmlns="http://www.w3.org/2000/svg" width="24" height="24" version="1"><path style="opacity:.2" d="m2.23 13.053 9.217 9.217a.78.78 0 0 0 1.106 0l9.217-9.217a.78.78 0 0 0 0-1.106L12.553 2.73a.78.78 0 0 0-1.106 0L2.23 11.947a.78.78 0 0 0 0 1.106zm4.236 2.024 7.242 7.242c.241.241.629.241.87 0l7.241-7.242a.613.613 0 0 0 0-.869l-7.242-7.242a.613.613 0 0 0-.869 0l-7.242 7.242a.613.613 0 0 0 0 .87zm-4.285 0 7.242 7.242c.24.241.628.241.869 0l7.242-7.242a.613.613 0 0 0 0-.869l-7.242-7.242a.613.613 0 0 0-.87 0l-7.241 7.242a.613.613 0 0 0 0 .87z"/><rect style="fill:#4bae4f" width="11.471" height="11.471" x="11.23" y="-8.77" rx=".615" ry=".615" transform="scale(1 -1) rotate(-45)"/><rect style="fill:#4bae4f" width="11.471" height="11.471" x="14.27" y="-5.74" rx=".615" ry=".615" transform="scale(1 -1) rotate(-45)"/><rect style="fill:#f58411" width="14.599" height="14.599" x="9.67" y="-7.3" rx=".782" ry=".782" transform="scale(1 -1) rotate(-45)"/><path style="opacity:.2;fill:#fff" d="M12 2c-.2 0-.4.076-.553.23L2.23 11.445a.778.778 0 0 0-.186.803.778.778 0 0 1 .186-.303l9.217-9.217a.78.78 0 0 1 1.106 0l9.217 9.217a.778.778 0 0 1 .186.303.778.778 0 0 0-.186-.803L12.553 2.23A.78.78 0 0 0 12 2z"/><path d="M33.498 44.733c1.437-.127 2.215-.688 2.966-1.387.763-.7 1.1-1.34 1.1-2.549 0-1.093-.331-2.335-1.081-3.098-.75-.763-1.535-1.427-2.985-1.821zm-2.032-21.647c-1.31.089-2.518.625-3.243 1.299-.725.66-.822 1.518-.822 2.637 0 1.017.065 1.896.727 2.57.674.674 1.913.946 3.338 1.366zm-8.13 21.647v-4.92h2.032c.05 1.743.63 2.49 1.596 3.38.967.89 2.594 1.502 4.502 1.54v-8.855c-2.925-.814-5.17-2.293-6.352-3.348-1.183-1.068-1.779-2.48-1.779-4.235 0-2.035.704-3.669 2.103-4.902 1.399-1.234 3.535-2.122 6.028-2.275v-4.92h2.032v4.92c1.285.102 2.203.507 3.385.825 1.196.305 2.598.719 3.73 1.24v4.823H38.58c-.153-1.475-.953-2.464-1.83-3.316-.878-.852-1.751-1.49-3.252-1.604v8.856c3.129.852 5 1.751 6.247 2.858 1.259 1.093 1.884 2.185 1.884 4.03 0 2.11-.734 4.179-2.209 5.45-1.475 1.272-3.238 2.23-5.922 2.421v4.92h-2.032v-4.92c-1.221-.025-2.677-.43-3.987-.761-1.31-.318-2.72-.57-4.144-1.207z" transform="matrix(.32799 0 0 .33876 1.346 1.013)" style="font-size:39.06629181px;line-height:1.25;font-family:'DejaVu Serif';letter-spacing:0;word-spacing:0;opacity:.2"/><g style="font-size:39.06629181px;line-height:1.25;font-family:'DejaVu Serif';letter-spacing:0;word-spacing:0;fill:#fff"><path style="fill:#fff" d="M33.498 44.733c1.437-.127 2.215-.688 2.966-1.387.763-.7 1.1-1.34 1.1-2.549 0-1.093-.331-2.335-1.081-3.098-.75-.763-1.535-1.427-2.985-1.821zm-2.032-21.647c-1.31.089-2.518.625-3.243 1.299-.725.66-.822 1.518-.822 2.637 0 1.017.065 1.896.727 2.57.674.674 1.913.946 3.338 1.366zm-8.13 21.647v-4.92h2.032c.05 1.743.63 2.49 1.596 3.38.967.89 2.594 1.502 4.502 1.54v-8.855c-2.925-.814-5.17-2.293-6.352-3.348-1.183-1.068-1.779-2.48-1.779-4.235 0-2.035.704-3.669 2.103-4.902 1.399-1.234 3.535-2.122 6.028-2.275v-4.92h2.032v4.92c1.285.102 2.203.507 3.385.825 1.196.305 2.598.719 3.73 1.24v4.823H38.58c-.153-1.475-.953-2.464-1.83-3.316-.878-.852-1.751-1.49-3.252-1.604v8.856c3.129.852 5 1.751 6.247 2.858 1.259 1.093 1.884 2.185 1.884 4.03 0 2.11-.734 4.179-2.209 5.45-1.475 1.272-3.238 2.23-5.922 2.421v4.92h-2.032v-4.92c-1.221-.025-2.677-.43-3.987-.761-1.31-.318-2.72-.57-4.144-1.207z" transform="matrix(.32799 0 0 .33876 1.346 .513)"/></g></svg>