<svg xmlns="http://www.w3.org/2000/svg" width="24" height="24" version="1"><path style="opacity:.2" d="M21.99 12.209A10 10 0 0 1 12 22a10 10 0 0 1-9.989-9.709A10 10 0 0 0 2 12.5a10 10 0 0 0 10 10 10 10 0 0 0 10-10 10 10 0 0 0-.01-.291z"/><circle style="fill:#cba606" cx="12" cy="12" r="10"/><circle style="opacity:.2" cx="12" cy="12.5" r="8"/><path style="opacity:.2;fill:#fff" d="M12 2a9.978 9.978 0 0 0-9.999 10c0 .084-.002.167 0 .25A9.98 9.98 0 0 1 12 2.5a9.98 9.98 0 0 1 9.999 9.75c.002-.083 0-.166 0-.25 0-5.54-4.46-10-9.999-10z"/><circle style="fill:#e4d487" cx="12" cy="12" r="8"/><path style="opacity:.4" d="M11.244 4.043a8 8 0 0 0-2.895.84c.04.128-.007.272-.154.4-.1.086-.181.22-.181.299 0 .24.217.608.39.662.23.071.153.316-.143.452a.896.896 0 0 0-.374.402c-.07.158-.171.314-.226.346-.055.033-.1.157-.1.276 0 .166.076.246.325.346.178.071.392.123.475.115.476-.045.51.233.093.775-.221.288-.328.36-.478.324-.14-.033-.218.006-.282.146-.067.147-.177.197-.474.218-.291.02-.422.08-.53.239-.08.116-.196.21-.257.21-.062 0-.206.079-.32.174-.234.194-.326.214-.408.087-.108-.168-.342-.083-.69.25-.307.294-.344.373-.298.629.083.455.33.858.611.999.246.123.25.136.102.294a.914.914 0 0 1-.327.216c-.27.082-.118.186.365.247.495.063.648.242.417.487-.129.136-.121.162.085.291.404.254.726.099.346-.167-.243-.17-.073-.24.285-.116.285.098.341.093.51-.054.346-.3.722.144.405.478-.2.214-.14.47.12.506.116.016.355.123.533.238.177.116.371.21.43.21.058 0 .223.118.366.26.29.29.451.328.533.123.099-.245.06-.372-.206-.661-.21-.23-.554-.843-.554-.99 0-.09.349-.013.544.12.122.084.32.191.44.24.126.052.258.214.319.39.094.278.131.302.464.302h.361l.055.65c.066.782.129.94.397 1.005.198.047.408.353.408.593 0 .063-.142.22-.315.346-.215.157-.308.29-.294.422.018.163-.019.189-.25.172a1.423 1.423 0 0 0-.575.116c-.198.089-.411.117-.612.081-.23-.041-.308-.025-.308.065 0 .066-.08.19-.18.276-.242.21-.142.322.232.255.232-.041.322-.023.362.077.085.212-.13.516-.331.466-.127-.032-.188.012-.228.162a.37.37 0 0 1-.069.137 8 8 0 0 0 1.266.374.53.53 0 0 0-.13-.177c-.206-.146-.068-.524.216-.592.29-.07.244-.258-.07-.294-.276-.03-.57-.31-.478-.453.062-.095.326-.081.86.045.24.057.404-.058.962-.668.323-.354.572-.5.844-.5.104 0 .475-.096.824-.213.66-.221.918-.213.894.028-.05.501.272.485.798-.041.22-.219.42-.377.446-.352.1.096-.08.565-.292.755-.267.241-.28.393-.045.513.129.067.184.2.204.502l.027.411h.335c.117 0 .214.016.293.046a8 8 0 0 0 3.876-6.602c-.123-.262-.114-.42 0-.598a8 8 0 0 0-.036-.448 2.447 2.447 0 0 0-.233-.003c-.403.016-.749-.142-.749-.345 0-.043-.143-.219-.318-.391-.198-.196-.3-.368-.27-.458.027-.082-.031-.213-.134-.302-.1-.088-.183-.228-.183-.312 0-.134-.085-.15-.702-.136l-.701.018.012.691c.02 1.211.2 1.526.757 1.323.255-.093.881-.023 1.059.118.064.052.158.237.207.413.05.176.233.48.408.676.354.397.382.551.179 1.017-.178.406-.369.36-.33-.081l.027-.328-.3.056a.88.88 0 0 0-.467.275c-.133.172-.195.198-.294.119a.375.375 0 0 1-.126-.258c0-.087-.086-.183-.19-.214-.104-.032-.247-.189-.317-.35-.113-.258-.11-.337.021-.65.132-.317.134-.369.012-.486-.112-.107-.17-.111-.318-.023-.148.089-.218.082-.394-.036a.967.967 0 0 0-.455-.144c-.27 0-.351-.13-.351-.565 0-.401-.24-.547-.81-.495-.394.037-.482.01-.8-.235-.198-.151-.509-.516-.693-.811a22.308 22.308 0 0 0-.44-.686c-.083-.118-.063-.23.1-.552l.206-.404-.435.059c-.772.104-.929.204-.596.383.13.069.135.104.035.22-.066.075-.097.195-.068.266.028.07-.008.236-.08.369a1.15 1.15 0 0 0-.135.414c-.008.298-.518.535-1.087.504-.861-.048-.931-.034-1.237.25-.383.355-.432.52-.254.85.172.32.479.447 1.01.421.474-.024.527.018.419.332-.093.266-.402.369-.612.202-.162-.128-.719-.029-.89.16-.071.078-.178.284-.236.457-.1.298-.129.317-.577.36-.447.043-.49.029-.812-.267-.359-.33-.42-.584-.247-1.019.077-.193.134-.224.339-.187.405.074.565-.066.565-.5 0-.21-.04-.406-.09-.436-.05-.03-.091-.14-.091-.247a.487.487 0 0 0-.113-.305c-.091-.088-.078-.135.067-.238.1-.07.262-.117.362-.105.1.012.376-.031.613-.095.343-.093.443-.163.49-.343.088-.343.303-.617.483-.617.284 0 .29-.67.014-1.642-.041-.144-.154-.235-.352-.284-.16-.04-.336-.15-.388-.244-.053-.094-.15-.171-.214-.171-.066 0-.193-.078-.283-.173a.657.657 0 0 0-.421-.174c-.338 0-.344-.233-.009-.355.354-.13.905.04 1.039.32.18.38.38.221.445-.352.08-.71.324-.914 1.096-.914h.555l-.244-.243a.967.967 0 0 1-.182-.259zm2.876.252-.046.04c-.185.19-.272.217-.56.174-.5-.077-.436.125.119.368.3.132.492.282.558.434.316.733.533 1.127.643 1.167.22.081.352-.082.401-.498.057-.478.218-.58.509-.318.112.101.27.184.35.184.248 0 .432.1.432.234 0 .071.084.242.186.38.152.204.255.253.538.253.348 0 .56.065.996.306l.02.008a8 8 0 0 0-4.146-2.732zm-10.118 7.67A8 8 0 0 0 4 12a8 8 0 0 0 .156 1.537c.29.118.37.071.4-.198.016-.14.089-.298.163-.353.114-.084.094-.127-.14-.287-.153-.104-.302-.285-.333-.402-.03-.114-.13-.238-.244-.331zM6.52 14.61c-.075-.007-.165.033-.265.129-.212.202-.18.609.06.77.275.184.38.13.415-.21.043-.419-.046-.672-.21-.689zm1.357 1.21c-.081.002-.171.06-.261.184-.096.13-.122.299-.086.555.046.314.026.381-.138.466-.212.108-.257.43-.084.595.172.165.336.121.395-.104.084-.322.555-.36.877-.07.137.123.249.185.249.138 0-.047-.143-.22-.317-.38-.267-.249-.317-.354-.317-.673 0-.45-.138-.717-.318-.711zm-2.23 1.033a8 8 0 0 0 .186.233 1.427 1.427 0 0 0-.185-.233zm2.697 1.228c-.04.014-.058.064-.058.154s-.058.185-.128.21c-.094.035-.115.143-.08.402.008.048.01.087.012.128a8 8 0 0 0 .333.17c-.006-.138.02-.3.092-.505.123-.346.127-.433.027-.494-.094-.057-.158-.08-.198-.065z"/><path style="opacity:.2" d="M2.042 11.657A10 10 0 0 0 2 12.5a10 10 0 0 0 .117 1.462c1.82.91 5.65 2.538 9.883 2.538 4.23 0 8.058-1.625 9.88-2.536A10 10 0 0 0 22 12.5a10 10 0 0 0-.042-.843C21.88 11.703 17.094 14.5 12 14.5s-9.88-2.797-9.958-2.843z"/><path style="fill:#cba606" d="M2.042 11.157A10 10 0 0 0 2 12a10 10 0 0 0 .117 1.462C3.937 14.372 7.767 16 12 16c4.23 0 8.058-1.625 9.88-2.536A10 10 0 0 0 22 12a10 10 0 0 0-.042-.843C21.88 11.203 17.094 14 12 14s-9.88-2.797-9.958-2.843z"/></svg>