<svg xmlns="http://www.w3.org/2000/svg" width="24" height="24"><path style="opacity:.2" d="M3.538 21.5h16.924c.852 0 1.538-.714 1.538-1.6V16H2v3.9c0 .886.686 1.6 1.538 1.6z"/><path style="fill:#e4e4e4" d="M3.538 21h16.924c.852 0 1.538-.714 1.538-1.6V16H2v3.4c0 .886.686 1.6 1.538 1.6z"/><path style="fill:#3f3f3f" d="M3.538 2h16.924C21.314 2 22 2.714 22 3.6V16H2V3.6C2 2.714 2.686 2 3.538 2z"/><path style="fill:#7e7e7e" d="M10 18h10v1H10z"/><path style="fill:#f04113" d="M4 18h6v1H4z"/><path style="opacity:.2;fill:#fff" d="M9 18h2v1H9z"/><path style="opacity:.2" d="M12 4.5c-2.76 0-5 2.24-5 5s2.24 5 5 5 5-2.24 5-5-2.24-5-5-5zm0 .5c2.487 0 4.5 2.013 4.5 4.5S14.487 14 12 14a4.498 4.498 0 0 1-4.5-4.5C7.5 7.013 9.513 5 12 5zm-.996 2.25L11 11.75l3.6-2.246z"/><path style="fill:#fff" d="M14.6 9.003 11 11.25l.003-4.5z"/><path style="fill:#fff" d="M12 4C9.24 4 7 6.24 7 9s2.24 5 5 5 5-2.24 5-5-2.24-5-5-5zm0 .5c2.487 0 4.5 2.013 4.5 4.5s-2.013 4.5-4.5 4.5A4.498 4.498 0 0 1 7.5 9c0-2.487 2.013-4.5 4.5-4.5z"/><path style="opacity:.1" d="M4 19h16v.5H4z"/><path style="opacity:.1;fill:#fff" d="M3.538 2C2.686 2 2 2.714 2 3.6v.5c0-.886.686-1.6 1.538-1.6h16.924c.852 0 1.538.714 1.538 1.6v-.5c0-.886-.686-1.6-1.538-1.6z"/><path style="opacity:.2;fill:#fff" d="M2 16h20v.5H2z"/></svg>