<svg xmlns="http://www.w3.org/2000/svg" width="24" height="24" version="1"><rect style="fill:#0090ef" width="20" height="19.998" x="-22" y="-22" rx="10" ry="9.999" transform="matrix(0 -1 -1 0 0 0)"/><path style="opacity:.2" d="M13 7.5a4 4 0 0 0-4 4 4 4 0 0 0 .559 2.027l-2.266 2.265a1 1 0 1 0 1.414 1.415l2.266-2.266A4 4 0 0 0 13 15.5a4 4 0 0 0 4-4 4 4 0 0 0-4-4zm0 2c1.113 0 2 .888 2 2 0 1.111-.887 2-2 2s-2-.889-2-2c0-1.112.887-2 2-2z"/><path style="fill:#fff" d="M13 7a4 4 0 0 0-4 4 4 4 0 0 0 .559 2.027l-2.266 2.266a1 1 0 1 0 1.414 1.414l2.266-2.266A4 4 0 0 0 13 15a4 4 0 0 0 4-4 4 4 0 0 0-4-4zm0 2c1.113 0 2 .889 2 2s-.887 2-2 2-2-.889-2-2 .887-2 2-2z"/><path style="opacity:.2;fill:#fff" d="M12 2a9.978 9.978 0 0 0-9.999 10c0 .084-.002.167 0 .25A9.98 9.98 0 0 1 12 2.5a9.98 9.98 0 0 1 9.999 9.75c.002-.083 0-.166 0-.25 0-5.54-4.459-10-9.999-10z"/><path style="opacity:.2" d="M2.006 12.25c-.002.084-.006.166-.006.25 0 5.54 4.46 10 10 10s10-4.46 10-10c0-.084-.004-.167-.006-.25A9.976 9.976 0 0 1 12 22a9.976 9.976 0 0 1-9.994-9.75z"/></svg>