<svg xmlns="http://www.w3.org/2000/svg" width="24" height="24" version="1"><rect style="opacity:.2" width="20" height="20" x="2" y="2.5" rx="1" ry="1"/><rect style="fill:#950000" width="20" height="20" x="2" y="2" rx="1" ry="1"/><path style="opacity:.2;fill:#fff" d="M3 2c-.554 0-1 .446-1 1v.5c0-.554.446-1 1-1h18c.554 0 1 .446 1 1V3c0-.554-.446-1-1-1z"/><path style="opacity:.2" d="m10.107 5.5-6.261.174 6.261.174zm.677 0v.342c.414 0 .735.103.963.31.218.207.445.59.694 1.17l2.37 5.395-2.661 5.26c-.207.446-.425.745-.632.921-.207.176-.455.27-.734.27v.332h2.868v-.332c-.621 0-.931-.207-.931-.631 0-.218.103-.508.3-.86l2.132-4.173 1.864 4.173c.187.456.29.767.29.943 0 .186-.072.331-.217.414-.145.093-.383.134-.725.134v.332h3.79v-.332a1.02 1.02 0 0 1-.735-.32c-.207-.218-.446-.612-.715-1.17l-2.65-5.976 2.101-4.09c.415-.807.715-1.304.932-1.49.217-.187.528-.28.963-.28V5.5h-3.179v.342c.352 0 .602.052.747.156.134.093.206.258.206.475 0 .135-.062.394-.196.756l-1.916 3.707-1.626-3.707a1.79 1.79 0 0 1-.186-.736c0-.434.32-.651.952-.651V5.5zm-.677.861-6.261.163 7.42.206v-.01l-.021-.01-.01-.01-.021-.011-.02-.01-.021-.01-.02-.01-.031-.011-.031-.01-.03-.01-.041-.01h-.041l-.041-.011h-.092l-.739-.01zm1.466.81-7.727.215 7.942.215-.02-.031-.041-.092-.041-.092-.041-.082-.041-.082zm.38.84-8.107.225 8.311.226zm.368.85-8.475.226 8.68.236zm.37.84-8.845.247 9.06.246zm.368.841-9.213.256 9.439.257zm.369.851-9.582.257 9.818.266zm.369.84-9.951.267 10.135.277.031-.072zm.03.841-9.981.276 9.705.267zm-.44.87-9.541.258 9.285.256zm-.44.862-9.101.246 8.854.246zm-.432.871-8.67.236 8.425.226zm-.44.86-8.23.227 8.015.215zm-.43.872-7.8.205 7.585.215.03-.05.031-.073.041-.072zm-.523.861-7.276.206 6.261.163v-.204l.708-.011h.04l.02-.01h.032l.02-.01h.01l.02-.01.012-.011.02-.01h.02l.01-.01.02-.01.01-.021.022-.01.02-.021.02-.01zm-1.015.882-6.261.174 6.261.174z"/><path style="fill:#fff" d="m10.107 5-6.261.174 6.261.174zm.677 0v.342c.414 0 .735.103.963.31.218.207.445.59.694 1.17l2.37 5.395-2.661 5.26c-.207.446-.425.745-.632.921-.207.176-.455.27-.734.27V19h2.868v-.332c-.621 0-.931-.207-.931-.631 0-.218.103-.508.3-.86l2.132-4.173 1.864 4.173c.187.456.29.767.29.943 0 .186-.072.331-.217.414-.145.093-.383.134-.725.134V19h3.79v-.332a1.02 1.02 0 0 1-.735-.32c-.207-.218-.446-.612-.715-1.17l-2.65-5.976 2.101-4.09c.415-.807.715-1.304.932-1.49.217-.187.528-.28.963-.28V5h-3.179v.342c.352 0 .602.052.747.156.134.093.206.258.206.475 0 .135-.062.394-.196.756l-1.916 3.707-1.626-3.707a1.79 1.79 0 0 1-.186-.736c0-.434.32-.651.952-.651V5zm-.677.861-6.261.163 7.42.206v-.01l-.021-.01-.01-.01-.021-.011-.02-.01-.021-.01-.02-.01-.031-.011-.031-.01-.03-.01-.041-.01h-.041l-.041-.011h-.092l-.739-.01zm1.466.81-7.727.215 7.942.215-.02-.031-.041-.092-.041-.092-.041-.082-.041-.082zm.38.84-8.107.225 8.311.226zm.368.85-8.475.226 8.68.236zm.37.84-8.845.247 9.06.246zm.368.841-9.213.256 9.439.257zm.369.851-9.582.257 9.818.266zm.369.84L3.846 12l10.135.277.031-.072zm.03.841-9.981.276 9.705.267zm-.44.87-9.541.258 9.285.256zm-.44.862-9.101.246 8.854.246zm-.432.871-8.67.236 8.425.226zm-.44.86-8.23.227 8.015.215zm-.43.872-7.8.205 7.585.215.03-.05.031-.073.041-.072zm-.523.861-7.276.206 6.261.163v-.204l.708-.011h.04l.02-.01h.032l.02-.01h.01l.02-.01.012-.011.02-.01h.02l.01-.01.02-.01.01-.021.022-.01.02-.021.02-.01zm-1.015.882-6.261.174 6.261.174z"/></svg>