<svg xmlns="http://www.w3.org/2000/svg" width="24" height="24" version="1"><path fill="#e4e4e4" d="M20 21V3c0-.554-.446-1-1-1H5c-.554 0-1 .446-1 1v18c0 .554.446 1 1 1h14c.554 0 1-.446 1-1z"/><path fill="#fff" opacity=".2" d="M5 2c-.554 0-1 .446-1 1v.5c0-.554.446-1 1-1h14c.554 0 1 .446 1 1V3c0-.554-.446-1-1-1z"/><path opacity=".2" d="M4 21v.5c0 .554.446 1 1 1h14c.554 0 1-.446 1-1V21c0 .554-.446 1-1 1H5c-.554 0-1-.446-1-1z"/><circle fill="#309dc0" cx="17" cy="17" r="6"/><path fill="#fff" fill-rule="evenodd" d="M17 15c-.775.008-1.556.185-2.231.568a6.35 6.35 0 0 0-.836.63A4.353 4.353 0 0 0 13 17.5c.607 1.34 1.943 2.322 3.412 2.467.964.109 1.972-.058 2.82-.534a6.35 6.35 0 0 0 .835-.63c.384-.376.712-.814.933-1.303-.607-1.34-1.943-2.323-3.412-2.468A5.076 5.076 0 0 0 17 15zm0 1c.803-.018 1.515.701 1.5 1.5.026.884-.855 1.646-1.725 1.481-.878-.103-1.496-1.089-1.207-1.924A1.51 1.51 0 0 1 17 16zm0 1a.5.5 0 0 0-.5.5.5.5 0 0 0 .5.5.5.5 0 0 0 .5-.5.5.5 0 0 0-.5-.5z"/></svg>