<svg xmlns="http://www.w3.org/2000/svg" width="24" height="24" version="1"><path fill="#e74c3c" d="M11.5 2A6.5 6.5 0 0 0 5 8.5c-.013 1.946 1.71 3.648 2.5 5.5.353.826 1 2.5 1 2.5h6s.648-1.675 1-2.5c.791-1.852 2.466-3.575 2.5-5.5A6.5 6.5 0 0 0 11.5 2z"/><path fill="#4f4f4f" d="m14.5 16.5-1 4.5c-.12.54-.446 1-1 1h-2c-.554 0-.884-.458-1-1l-1-4.5z"/><path fill="#fff" opacity=".2" d="m8.5 16.5.223 1h5.555l.222-1h-6zm.445 2 .222 1h4.666l.223-1H8.945zm.444 2 .111.5c.04.181.104.351.192.5h3.615c.087-.148.153-.319.193-.5l.112-.5H9.389zM11.5 2A6.5 6.5 0 0 0 5 8.5c0 .086.007.17.013.254A6.495 6.495 0 0 1 11.5 2.5a6.495 6.495 0 0 1 6.486 6.207c.005-.069.013-.138.014-.207A6.5 6.5 0 0 0 11.5 2z"/><path opacity=".2" d="M17.986 8.707c-.144 1.842-1.723 3.508-2.486 5.293-.352.826-1 2.5-1 2.5h-6s-.647-1.675-1-2.5c-.755-1.771-2.359-3.405-2.487-5.246-.003.082-.012.163-.012.246-.014 1.946 1.709 3.648 2.5 5.5.352.826 1 2.5 1 2.5h6s.647-1.675 1-2.5c.79-1.852 2.465-3.575 2.5-5.5 0-.099-.011-.195-.015-.293zM8.5 17l1 4.5c.116.541.446 1 1 1h2c.554 0 .88-.459 1-1l1-4.5h-.111l-.889 4c-.12.541-.446 1-1 1h-2c-.554 0-.884-.458-1-1l-.888-4H8.5z"/></svg>