<svg xmlns="http://www.w3.org/2000/svg" width="24" height="24" version="1"><rect fill="#e4e4e4" width="8" height="20" x="8" y="2" rx="1" ry="1"/><rect fill="#e4e4e4" width="8" height="20" x="8" y="-22" rx="1" ry="1" transform="rotate(90)"/><rect opacity=".2" width="2" height="8" x="11.5" y="-20" rx="1" ry="1" transform="rotate(90)"/><rect fill="#3e3e3e" width="2" height="8" x="11" y="4" rx="1" ry="1"/><rect fill="#3e3e3e" width="2" height="8" x="11" y="-20" rx="1" ry="1" transform="rotate(90)"/><circle opacity=".2" cx="12" cy="12.5" r="3"/><circle fill="#df574d" cx="12" cy="12" r="3"/><path opacity=".2" d="M2 15v.5c0 .554.446 1 1 1h5V16H3c-.554 0-1-.446-1-1zm20 0c0 .554-.446 1-1 1h-5v.5h5c.554 0 1-.446 1-1V15zM8 21v.5c0 .554.446 1 1 1h6c.554 0 1-.446 1-1V21c0 .554-.446 1-1 1H9c-.554 0-1-.446-1-1z"/><path fill="#fff" opacity=".2" d="M9 2c-.554 0-1 .446-1 1v.5c0-.554.446-1 1-1h6c.554 0 1 .446 1 1V3c0-.554-.446-1-1-1H9zM3 8c-.554 0-1 .446-1 1v.5c0-.554.446-1 1-1h5V8H3zm13 0v.5h5c.554 0 1 .446 1 1V9c0-.554-.446-1-1-1h-5z"/></svg>