<svg xmlns="http://www.w3.org/2000/svg" width="24" height="24" version="1"><rect style="opacity:.2" width="20" height="20" x="2" y="2.5" rx="10" ry="10"/><path style="fill:#4f4f4f" transform="matrix(0 -1 -1 0 0 0)" d="M-12-22c.537 0 1.063.042 1.577.123 2.271.356 3.027 2.73 4.514 4.34 1.647 1.78 3.18 3.185 3.33 4.632.041.389.557 1.683.513 2.062A9.976 9.976 0 0 1-12-2a9.974 9.974 0 0 1-8.265-4.355c-1.095-1.604-.452-3.421-.452-5.52 0-2.277 2.514-4.17 3.787-5.848.83-1.093-1.165-2.336.04-3.01A9.986 9.986 0 0 1-12-22z"/><path style="opacity:.1;fill:#fff" d="M12 2C6.46 2 2 6.46 2 12c0 .084.004.166.006.25A9.976 9.976 0 0 1 12 2.5a9.976 9.976 0 0 1 9.994 9.75c.002-.084.006-.166.006-.25 0-5.54-4.46-10-10-10z"/><path style="opacity:.2" d="M11.848 2.508a10.191 10.191 0 0 0-1.59.152c-.01.01-.02.02-.02.03 0 .039.09.072.198.072 1.615.203 3.258.773 4.548 1.668.985.694 1.803 2.022 2.34 3.078.298.585.588 1.287-.65.846-.954-.34-2.083-.987-2.157-.905-.031.034-.112.233-.18.444-.13.4-.414.62-.47.563-.019-.019.015-.47.077-.763.135-.635.142-1.17.034-1.677-.118-.55-.19-.586-.823-.397-1.602.238-3.395 1.064-4.569 1.781-.522.314-.635.329-.57.069.083-.332-.149-.226-.748.343-.566.537-.739.637-.739.422 0-.25-.15-.087-.441.479-.167.326-.401.852-.52 1.168-.174.464-.329.702-.816 1.246-.945 1.056-.981 1.28-.209 1.28.574 0 .59.146.03.267l-.378.08.006.463c.01.632.205 1.019.614 1.209.194.09.37.246.457.408.14.261.52.633.648.633.037 0 .046-.167.022-.371-.05-.413.119-.88.363-1.01.112-.06.178-.025.34.187.2.262.558.546.617.487.017-.017-.053-.252-.158-.52-.288-.735-.264-.846.132-1.191.45-.392.928-.595 1.248-.535.493.092 1.382.884 1.489 1.31.064.256-.091.607-.373.844-.292.246-.725.568-.914.568-.08 0-.307-.14-.504-.314s-.376-.298-.399-.276c-.022.023-.003.173.041.334.045.162.082.338.082.391.001.169-.427.103-.879-.135a5.104 5.104 0 0 0-.466-.228c-.14 0 .38 1.786.623 2.11.18.24.362.37.593.386.307.02.7-.163 1.288-.557.974-.653 1.174-1.243 2.15-1.402.535-.087.81.02 1.2.47.534.62 1.755 3.585 1.63 3.91-1.33.857-2.793 1.062-4.262 1.075-1.538.044-2.685-.296-4.021-.682.423.338.872.642 1.347.909l.014.007h.002c.17.095.346.179.521.264.095.046.187.094.284.137.166.074.337.14.507.205.113.043.226.086.34.125a9.926 9.926 0 0 0 .973.273c.118.027.236.055.355.078.206.04.415.07.625.096.105.013.209.031.315.041.314.03.633.047.955.047a10.179 10.179 0 0 0 1.18-.074c.145-.017.288-.043.431-.067.331-.053.656-.122.975-.207.086-.023.174-.04.26-.066.4-.118.79-.257 1.166-.422.052-.023.1-.05.152-.074.325-.149.639-.315.943-.496.08-.048.16-.095.239-.145a9.994 9.994 0 0 0 1.912-1.568c.037-.04.07-.082.107-.121.254-.277.494-.567.715-.871.032-.044.065-.087.096-.131.246-.35.473-.713.674-1.094-.986-.509-2.696-1.286-3.746-1.66-.348-.124-.57-.242-.53-.281.143-.143 2.946.34 4.246.732.097.03.325.102.5.162.005-.01.008-.022.012-.033.065-.167.128-.334.184-.506a63.128 63.128 0 0 1-.6-.318c-1.04-.562-2.603-1.129-4.096-1.487-1.33-.318-1.273-.3-1.127-.382.272-.153 3.692.172 5.432.515.08.016.457.086.744.139l.026-.166c.03-.305.057-.79.074-1.016a16.06 16.06 0 0 0-1.272-.511c-1.425-.516-3.466-.804-5.297-.909-.78-.044-1.07-.2-.879-.28 1.226-.228 1.479-.563 3.807-.563 1.253.072 2.425.33 3.574.564a9.97 9.97 0 0 0-6.894-8.207l-.028-.01-.015-.004a9.98 9.98 0 0 0-.908-.23l-.063-.014a10.07 10.07 0 0 0-.728-.111c-.444-.05-.945-.075-1.418-.08z"/><path style="fill:#11a0ee" d="M11.848 2.008a10.191 10.191 0 0 0-1.59.152c-.01.01-.02.02-.02.03 0 .039.09.072.198.072 1.615.203 3.258.773 4.548 1.668.985.694 1.803 2.022 2.34 3.078.298.585.588 1.287-.65.846-.954-.34-2.083-.987-2.157-.905-.031.034-.112.233-.18.444-.13.4-.414.62-.47.563-.019-.019.015-.47.077-.763.135-.635.142-1.17.034-1.677-.118-.55-.19-.586-.823-.397-1.602.238-3.395 1.064-4.569 1.781-.522.314-.635.329-.57.069.083-.332-.149-.226-.748.343-.566.537-.739.637-.739.422 0-.25-.15-.087-.441.479-.167.326-.401.852-.52 1.168-.174.464-.329.702-.816 1.246-.945 1.056-.981 1.28-.209 1.28.574 0 .59.146.03.267l-.378.08.006.463c.01.632.205 1.019.614 1.209.194.09.37.246.457.408.14.261.52.633.648.633.037 0 .046-.167.022-.371-.05-.413.119-.88.363-1.01.112-.06.178-.025.34.187.2.262.558.546.617.487.017-.017-.053-.252-.158-.52-.288-.735-.264-.846.132-1.191.45-.392.928-.595 1.248-.535.493.092 1.382.884 1.489 1.31.064.256-.091.607-.373.844-.292.246-.725.568-.914.568-.08 0-.307-.14-.504-.314s-.376-.298-.399-.276c-.022.023-.003.173.041.334.045.162.082.338.082.391.001.169-.427.103-.879-.135a5.104 5.104 0 0 0-.466-.228c-.14 0 .38 1.786.623 2.11.18.24.362.37.593.386.307.02.7-.163 1.288-.557.974-.653 1.174-1.243 2.15-1.402.535-.087.81.02 1.2.47.534.62 1.755 3.585 1.63 3.91-1.33.857-2.793 1.062-4.262 1.075-1.538.044-2.685-.296-4.021-.682.423.338.872.642 1.347.909l.014.007h.002c.17.095.346.179.521.264.095.046.187.094.284.137.166.074.337.14.507.205.113.043.226.086.34.125a9.926 9.926 0 0 0 .973.273c.118.027.236.055.355.078.206.04.415.07.625.096.105.013.209.031.315.041.314.03.633.047.955.047a10.179 10.179 0 0 0 1.18-.074c.145-.017.288-.043.431-.067.331-.053.656-.122.975-.207.086-.023.174-.04.26-.066.4-.118.79-.257 1.166-.422.052-.023.1-.05.152-.074.325-.149.639-.315.943-.496.08-.048.16-.095.239-.145a9.994 9.994 0 0 0 1.912-1.568c.037-.04.07-.082.107-.121.254-.277.494-.567.715-.871.032-.044.065-.087.096-.131.246-.35.473-.713.674-1.094-.986-.509-2.696-1.286-3.746-1.66-.348-.124-.57-.242-.53-.281.143-.143 2.946.34 4.246.732.097.03.325.102.5.162.005-.01.008-.022.012-.033.065-.167.128-.334.184-.506a63.128 63.128 0 0 1-.6-.318c-1.04-.562-2.603-1.129-4.096-1.487-1.33-.318-1.273-.3-1.127-.382.272-.153 3.692.172 5.432.515.08.016.457.086.744.139l.026-.166c.03-.305.057-.79.074-1.016a16.06 16.06 0 0 0-1.272-.511c-1.425-.516-3.466-.804-5.297-.909-.78-.044-1.07-.2-.879-.28 1.226-.228 1.479-.563 3.807-.563 1.253.072 2.425.33 3.574.564a9.97 9.97 0 0 0-6.894-8.207l-.028-.01-.015-.004a9.98 9.98 0 0 0-.908-.23l-.063-.014a10.07 10.07 0 0 0-.728-.111c-.444-.05-.945-.075-1.418-.08z"/><path style="opacity:.2" d="M7.382 9.5c.038.002.068.01.085.026.173.16-.38.79-.782.894-.7.18-.861.058-.494-.372.212-.249.923-.56 1.19-.548z"/><path style="fill:#fff" d="M7.382 9c.038.002.068.01.085.026.173.16-.38.79-.782.894-.7.18-.861.058-.494-.372.212-.249.923-.56 1.19-.548z"/><path style="fill:#fff;opacity:.2" d="M11.848 2.008a10.191 10.191 0 0 0-1.59.152c-.01.01-.02.02-.02.03 0 .039.09.072.198.072.438.055.877.143 1.312.252.033-.001.066-.006.1-.006.473.005.974.03 1.418.08.245.03.489.063.728.111l.063.014c.307.064.611.139.908.23l.015.004.028.01a9.966 9.966 0 0 1 6.806 7.69l.088.017a9.97 9.97 0 0 0-6.894-8.207l-.028-.01-.015-.004a9.98 9.98 0 0 0-.908-.23l-.063-.014a10.07 10.07 0 0 0-.728-.111c-.444-.05-.945-.075-1.418-.08zm1.687 3.015a3.03 3.03 0 0 0-.38.096c-1.603.238-3.395 1.064-4.57 1.781-.521.314-.635.329-.57.069.084-.332-.148-.226-.747.343-.566.537-.739.637-.739.422 0-.25-.15-.087-.441.479-.168.326-.401.852-.52 1.168-.174.464-.33.702-.816 1.246-.735.82-.905 1.134-.588 1.234.122-.185.297-.41.588-.734.487-.544.642-.782.816-1.246.119-.316.352-.842.52-1.168.29-.566.441-.729.441-.479 0 .215.173.115.739-.421.6-.57.83-.676.748-.344-.066.26.048.245.57-.069 1.174-.717 2.966-1.543 4.568-1.78.634-.19.705-.155.823.396.035.163.038.338.048.51.026-.356.02-.694-.048-1.01-.089-.413-.15-.537-.442-.493zm.98 1.926c-.03.034-.11.233-.18.444-.108.333-.316.53-.417.556-.027.221-.065.494-.053.506.057.057.341-.163.47-.562.07-.21.15-.41.18-.444.075-.082 1.204.564 2.159.905.947.337.997.005.836-.432-.11.1-.356.103-.836-.068-.955-.34-2.084-.987-2.158-.905zm.917 3.996c-.27.075-.55.15-.91.217-.193.08.098.237.878.281 1.83.105 3.872.393 5.297.909.461.166.878.333 1.237.498.011-.18.027-.379.035-.487a16.06 16.06 0 0 0-1.272-.511c-1.417-.513-3.443-.8-5.265-.907zm-11.235 1.42.004.352c0 .013.004.022.004.035l.367-.078c.56-.12.545-.268-.029-.268-.157 0-.256-.017-.346-.04zm11.737.99a.689.689 0 0 0-.24.036c-.147.082-.204.064 1.126.382 1.493.358 3.057.925 4.096 1.487l.447.238c.054-.139.107-.277.153-.42a63.128 63.128 0 0 1-.6-.318c-.906-.49-2.211-.975-3.52-1.33-.609-.05-1.172-.086-1.462-.075zm-8.963.008c-.09.18-.054.39.115.828.082.056.154.09.176.069.017-.017-.054-.252-.158-.52-.061-.155-.1-.27-.133-.377zm2.95.371c-.064.156-.174.31-.321.434-.292.246-.725.568-.914.568-.08 0-.307-.14-.504-.314-.198-.174-.377-.298-.399-.276-.022.023-.004.173.041.334.026.094.032.15.047.227.066.03.157.08.31.215.198.173.425.314.505.314.19 0 .622-.322.914-.568.282-.237.437-.588.373-.844-.007-.026-.04-.061-.051-.09zm-3.36.774c-.049 0-.005.24.066.533.059.024.195.087.4.195.452.238.88.304.88.135-.001-.053-.038-.229-.083-.39-.003-.013 0-.014-.004-.026-.145.036-.46-.044-.793-.219a5.104 5.104 0 0 0-.466-.228zm-.612.25c-.006.045-.004.09-.006.135a.699.699 0 0 0 .006-.135zm10.795.44c-.093-.001-.152.007-.17.025-.04.04.182.157.53.28.982.351 2.503 1.042 3.507 1.548.078-.13.168-.252.239-.387-.774-.4-1.935-.92-2.932-1.326-.495-.078-.951-.14-1.174-.14zm-2.771 4.269c-1.312.818-2.747 1.02-4.19 1.033-1.538.044-2.685-.296-4.021-.682.387.31.798.587 1.228.836.872.221 1.74.376 2.793.346 1.47-.013 2.931-.218 4.262-1.074.024-.062-.013-.24-.072-.46z"/></svg>