<svg xmlns="http://www.w3.org/2000/svg" width="24" height="24" version="1"><rect style="opacity:.2" width="20" height="20" x="2" y="2.5" rx="6" ry="6"/><rect style="fill:#f4b400" width="20" height="20" x="2" y="2" rx="6" ry="6"/><path style="opacity:.1" d="M12 5.5a7 7 0 0 0-6.695 5H3l1.75 2 1.75 2 1.75-2 1.75-2H8.547A4 4 0 0 1 12 8.5a4 4 0 0 1 3.842 2.894L17.5 9.5l1.342 1.533A7 7 0 0 0 12 5.5zm5.5 5-1.75 2-1.75 2h1.453a4 4 0 0 1-3.453 2 4 4 0 0 1-3.842-2.895L6.5 15.5l-1.342-1.533A7 7 0 0 0 12 19.5a7 7 0 0 0 6.695-5H21l-1.75-2-1.75-2z"/><path style="fill:#3f3f3f" d="M12 5a7 7 0 0 0-6.695 5H3l1.75 2 1.75 2 1.75-2L10 10H8.547A4 4 0 0 1 12 8a4 4 0 0 1 3.842 2.895L17.5 9l1.342 1.533A7 7 0 0 0 12 5zm5.5 5-1.75 2L14 14h1.453A4 4 0 0 1 12 16a4 4 0 0 1-3.842-2.895L6.5 15l-1.342-1.533A7 7 0 0 0 12 19a7 7 0 0 0 6.695-5H21l-1.75-2-1.75-2z"/><path style="fill:#fff;opacity:.2" d="M8 2C4.676 2 2 4.676 2 8v.5c0-3.324 2.676-6 6-6h8c3.324 0 6 2.676 6 6V8c0-3.324-2.676-6-6-6H8z"/></svg>