<svg xmlns="http://www.w3.org/2000/svg" width="24" height="24" version="1"><path fill="#e4e4e4" d="M12 2C6.46 2 2 6.46 2 12s4.46 10 10 10 10-4.46 10-10S17.54 2 12 2z"/><path fill="#fff" opacity=".2" d="M12 2c5.535 0 9.99 4.46 9.99 10 0 .084-.003.167-.005.25A9.97 9.97 0 0 0 12 2.5a9.97 9.97 0 0 0-9.985 9.75c-.002-.083-.006-.166-.006-.25C2.01 6.46 6.465 2 12 2z"/><path opacity=".2" d="M2.006 12.25c-.002.084-.006.166-.006.25 0 5.54 4.46 10 10 10s10-4.46 10-10c0-.084-.004-.167-.006-.25A9.975 9.975 0 0 1 12 22a9.975 9.975 0 0 1-9.994-9.75z"/><g opacity=".2"><path d="M8.5 6.485c-2.181 1.243-3.496 3.489-3.5 6 .005 3.458 2.58 6.483 6 7 .245.026.32.014.5 0a3 3 0 0 0 3-3 3 3 0 0 0-1.617-2.659s-1.077-.494-1.554-.75c-.69-.345-1.45-.65-2.173-1.093-.362-.22-.728-.479-1.056-.878-.328-.398-.6-.996-.6-1.62 0-1.213.438-2.137 1-3z"/><path d="M15.5 18.485c2.181-1.244 3.497-3.49 3.5-6-.005-3.459-2.58-6.483-6-7-.245-.026-.32-.015-.5 0a3 3 0 0 0-3 3 3 3 0 0 0 1.617 2.658s1.077.494 1.554.75c.69.345 1.45.65 2.174 1.093.362.22.727.479 1.055.878.328.398.6.996.6 1.62 0 1.213-.438 2.137-1 3z"/></g><g fill="#2b8ae2"><path d="M8.5 6C6.32 7.244 5.004 9.49 5 12c.005 3.459 2.58 6.483 6 7 .245.026.32.015.5 0a3 3 0 0 0 3-3 3 3 0 0 0-1.617-2.659s-1.077-.493-1.554-.75c-.69-.345-1.45-.65-2.173-1.092-.362-.221-.728-.48-1.056-.878-.328-.399-.6-.996-.6-1.621 0-1.213.438-2.137 1-3z"/><path d="M15.5 18c2.181-1.244 3.497-3.489 3.5-6-.005-3.458-2.58-6.483-6-7-.245-.026-.32-.014-.5 0a3 3 0 0 0-3 3 3 3 0 0 0 1.617 2.659s1.077.493 1.554.75c.69.344 1.45.65 2.174 1.092.362.221.727.48 1.055.878.328.398.6.996.6 1.621 0 1.212-.438 2.136-1 3z"/></g></svg>