<svg xmlns="http://www.w3.org/2000/svg" width="24" height="24" version="1"><path style="fill:#00679a" d="M20 21V3c0-.554-.446-1-1-1H5c-.554 0-1 .446-1 1v18c0 .554.446 1 1 1h14c.554 0 1-.446 1-1z"/><path style="opacity:.2;fill:#fff" d="M5 2c-.554 0-1 .446-1 1v.5c0-.554.446-1 1-1h14c.554 0 1 .446 1 1V3c0-.554-.446-1-1-1z"/><path style="opacity:.2" d="M4 21v.5c0 .554.446 1 1 1h14c.554 0 1-.446 1-1V21c0 .554-.446 1-1 1H5c-.554 0-1-.446-1-1z"/><path style="opacity:.2;fill:none;stroke:#000;stroke-linecap:round;stroke-linejoin:round" d="M17.5 6c0 1.447-4 6.5-4 6.5s4.013 5.188 4 6.5"/><path style="opacity:.2;fill:none;stroke:#000;stroke-linecap:round;stroke-linejoin:round" d="M15.5 4.5c0 1.5-5 10.5-8 10.5-1.5 0-2-1.5-2-2.5S6 10 7.5 10c3.02-.01 8 9 8 10.5"/><path style="fill:none;stroke:#fff;stroke-linecap:round;stroke-linejoin:round" d="M15.5 4c0 1.5-5 10.5-8 10.5-1.5 0-2-1.5-2-2.5s.5-2.5 2-2.5c3.02-.01 8 9 8 10.5"/><path style="fill:none;stroke:#fff;stroke-linecap:round;stroke-linejoin:round" d="M17.5 5.5c0 1.447-4 6.5-4 6.5s4.013 5.188 4 6.5"/><path style="opacity:.2;fill:none;stroke:#000;stroke-linecap:round;stroke-linejoin:round" d="M18.5 9c-.5 1.5-2 3.5-2 3.5s1.5 2 2 3.5"/><path style="fill:none;stroke:#fff;stroke-linecap:round;stroke-linejoin:round" d="M18.5 8.5c-.5 1.5-2 3.5-2 3.5s1.5 2 2 3.5"/></svg>