<svg xmlns="http://www.w3.org/2000/svg" height="24" width="24"><path d="M7 1.5a1 1 0 0 0-.87.504l-4 7a1 1 0 0 0-.07.838l4 11A1 1 0 0 0 7 21.5h8a1 1 0 0 0 .94-.658l4-11a1 1 0 0 0-.07-.838l-4-7A1 1 0 0 0 15 1.5z" style="opacity:.2" transform="translate(1 1)"/><path d="M7 1a1 1 0 0 0-.87.504l-4 7a1 1 0 0 0-.07.838l4 11A1 1 0 0 0 7 21h8a1 1 0 0 0 .94-.658l4-11a1 1 0 0 0-.07-.838l-4-7A1 1 0 0 0 15 1z" style="fill:#4140e1" transform="translate(1 1)"/><path style="fill:#f91c49" d="M11 1v20h4a1 1 0 0 0 .94-.658l4-11a1 1 0 0 0-.07-.838l-4-7A1 1 0 0 0 15 1z" transform="translate(1 1)"/><path style="opacity:.2" d="M7 5.5a3 3 0 0 0-3 3 3 3 0 0 0 3 3 3 3 0 0 0 3-3 3 3 0 0 0-3-3zm8 0a3 3 0 0 0-3 3 3 3 0 0 0 3 3 3 3 0 0 0 3-3 3 3 0 0 0-3-3z" transform="translate(1 1)"/><path style="fill:#fff" d="M7 5a3 3 0 0 0-3 3 3 3 0 0 0 3 3 3 3 0 0 0 3-3 3 3 0 0 0-3-3zm8 0a3 3 0 0 0-3 3 3 3 0 0 0 3 3 3 3 0 0 0 3-3 3 3 0 0 0-3-3z" transform="translate(1 1)"/><path style="fill:#fff;opacity:.2" d="M7 1a1 1 0 0 0-.87.504l-4 7a.992.992 0 0 0-.08.762c.023-.09.035-.181.08-.262l4-7A1 1 0 0 1 7 1.5h8a1 1 0 0 1 .87.504l4 7c.045.081.057.173.08.262a.992.992 0 0 0-.08-.762l-4-7A1 1 0 0 0 15 1z" transform="translate(1 1)"/><path style="fill:#4f4f4f" d="M7 6a2 2 0 0 0-.26.02A2 2 0 0 1 7 7a2 2 0 0 1-1.74 1.98A2 2 0 0 0 7 10a2 2 0 0 0 2-2 2 2 0 0 0-2-2zM15 6a2 2 0 0 0-.26.02A2 2 0 0 1 15 7a2 2 0 0 1-1.74 1.98A2 2 0 0 0 15 10a2 2 0 0 0 2-2 2 2 0 0 0-2-2z" transform="translate(1 1)"/></svg>