<svg xmlns="http://www.w3.org/2000/svg" width="24" height="24" version="1"><path style="fill:#8e8e8e" transform="rotate(90)" d="M15-21h1v19h-1zM13-21h1v19h-1zM11-21h1v19h-1zM9-21h1v19H9zM17-21h1v19h-1zM19-21h1v19h-1zM7-21h1v19H7zM5-21h1v19H5z"/><path style="fill:#8e8e8e" d="M11 3h1v19h-1zM9 3h1v19H9zM7 3h1v19H7zM5 3h1v19H5zM13 3h1v19h-1zM15 3h1v19h-1zM17 3h1v19h-1zM3 3h1v19H3zM19 3h1v19h-1z"/><rect style="opacity:.2" width="17" height="17" x="-21.5" y="-20" rx=".85" ry="1.063" transform="matrix(0 -1 -1 0 0 0)"/><rect style="fill:#b7b7b7" width="17" height="17" x="-21" y="-20" rx=".85" ry="1.063" transform="matrix(0 -1 -1 0 0 0)"/><path style="opacity:.2;fill:#fff" d="M4.063 4C3.473 4 3 4.379 3 4.85v.5c0-.471.474-.85 1.063-.85h14.875c.588 0 1.062.379 1.062.85v-.5c0-.471-.474-.85-1.063-.85z"/><path style="fill-rule:evenodd;opacity:.5" d="M11 5.5c-1.108 0-2 .892-2 2v5c0 .013.004.025.004.039A4 4 0 0 0 7 16a4 4 0 0 0 4 4 4 4 0 0 0 4-4 4 4 0 0 0-2.004-3.463c0-.013.004-.025.004-.037v-5c0-1.108-.892-2-2-2zm0 1c.554 0 1 .446 1 1v5.676A3 3 0 0 1 14 16a3 3 0 0 1-3 3 3 3 0 0 1-3-3 3 3 0 0 1 2-2.825V7.5c0-.554.446-1 1-1z"/><path style="opacity:.2" d="M10 11v2.675A3 3 0 0 0 8 16.5a3 3 0 0 0 6 0 3 3 0 0 0-2-2.824V11z"/><path style="fill:#f75f5f" d="M10 10.5v2.675A3 3 0 0 0 8 16a3 3 0 0 0 6 0 3 3 0 0 0-2-2.824V10.5z"/></svg>