<svg xmlns="http://www.w3.org/2000/svg" width="24" height="24" version="1"><circle style="opacity:.2" cx="12" cy="12.5" r="10"/><circle style="fill:#06f1ba" cx="12" cy="12" r="10"/><path style="opacity:.1" d="M12 4.5c-4.41 0-8 3.59-8 8s3.59 8 8 8 8-3.59 8-8-3.59-8-8-8zm0 1.412a6.577 6.577 0 0 1 6.588 6.588A6.577 6.577 0 0 1 12 19.088 6.577 6.577 0 0 1 5.412 12.5 6.577 6.577 0 0 1 12 5.912zM12 7.5a5.01 5.01 0 0 0-5 5c0 2.753 2.247 5 5 5s5-2.247 5-5-2.247-5-5-5zm0 1.363a3.627 3.627 0 0 1 3.637 3.637A3.627 3.627 0 0 1 12 16.137 3.627 3.627 0 0 1 8.363 12.5 3.627 3.627 0 0 1 12 8.863zm0 1.637a2 2 0 0 0-2 2 2 2 0 0 0 2 2 2 2 0 0 0 2-2 2 2 0 0 0-2-2z"/><circle style="fill:none;stroke:#3f3f3f;stroke-width:1.41176474;stroke-linecap:round;stroke-linejoin:round" cx="12" cy="12" r="7.294"/><circle style="fill:none;stroke:#3f3f3f;stroke-width:1.36363637;stroke-linecap:round;stroke-linejoin:round" cx="12" cy="12" r="4.318"/><circle style="fill:#3f3f3f" cx="12" cy="12" r="2"/><path style="fill:#06f1ba" d="M12 21.5c-5.523 0-9.5-3.977-9.5-9.5S6.477 2.5 12 2.5z"/><path style="opacity:.2;fill:#fff" d="M12 2A10 10 0 0 0 2 12a10 10 0 0 0 .01.291A10 10 0 0 1 12 2.5a10 10 0 0 1 9.99 9.709A10 10 0 0 0 22 12 10 10 0 0 0 12 2z"/></svg>