<svg xmlns="http://www.w3.org/2000/svg" width="24" height="24"><path style="opacity:.2" d="M4.147 1030.862c-.134 0-.192 1.396-.108 2.632.115 1.688.423 3.387.971 3.857.276.237 1.183.543 1.57.543.686.105-.133 1.64-.39 2.575-.19.656-.248.795-.19 1.163.095.596.642 1.495 1.051 1.962.055.063.108.107.16.151a6.5 6.5 0 0 1 2.644-3.761l.154-.742c.184-.883.375-1.33.425-1.38.062-.06.827.033 2.45 0 2.07-.076 3.112-.703 4.116-2.282.001-.198-.011-.202-.643-.253-3.959-.316-7.659-1.576-11.018-3.753-.604-.391-1.14-.712-1.192-.712z" transform="translate(0 -1028.362)"/><path style="opacity:.2;fill-rule:evenodd" d="M13.5 1039.862a5.5 5.5 0 0 0-5.5 5.5 5.5 5.5 0 0 0 5.5 5.5 5.5 5.5 0 0 0 5.5-5.5 5.5 5.5 0 0 0-5.5-5.5z" transform="translate(0 -1028.362)"/><path style="fill:#4f4f4f;fill-rule:evenodd" d="M13.5 1039.362a5.5 5.5 0 0 0-5.5 5.5 5.5 5.5 0 0 0 5.5 5.5 5.5 5.5 0 0 0 5.5-5.5 5.5 5.5 0 0 0-5.5-5.5z" transform="translate(0 -1028.362)"/><path style="opacity:.2;fill-rule:evenodd" d="M13.5 1042.862a2.5 2.5 0 0 1 2.5 2.5 2.5 2.5 0 0 1-2.5 2.5 2.5 2.5 0 0 1-2.5-2.5 2.5 2.5 0 0 1 2.5-2.5z" transform="translate(0 -1028.362)"/><path style="fill:#fff;fill-rule:evenodd" d="M13.5 1042.362a2.5 2.5 0 0 1 2.5 2.5 2.5 2.5 0 0 1-2.5 2.5 2.5 2.5 0 0 1-2.5-2.5 2.5 2.5 0 0 1 2.5-2.5z" transform="translate(0 -1028.362)"/><path style="fill:#d24343" d="M4.147 1030.362c-.134 0-.192 1.396-.108 2.632.115 1.688.423 3.387.971 3.857.276.237 1.183.543 1.57.543.686.105-.133 1.64-.39 2.575-.19.655-.248.795-.19 1.163.095.596.642 1.495 1.051 1.962.055.063.108.107.16.151a6.5 6.5 0 0 1 2.644-3.762l.154-.74c.184-.884.375-1.332.425-1.38.062-.06.827.031 2.45 0 2.07-.078 3.112-.704 4.116-2.283.001-.198-.011-.202-.643-.253-3.959-.316-7.659-1.576-11.018-3.753-.604-.391-1.14-.712-1.192-.712z" transform="translate(0 -1028.362)"/><path style="fill:#d24343;fill-rule:evenodd" d="M13.473 1043.362a1.5 1.5 0 0 0-1.473 1.223l1.315.352c.1.027.16.13.133.23l-.31 1.155a1.5 1.5 0 0 0 .335.04 1.5 1.5 0 0 0 1.5-1.5 1.5 1.5 0 0 0-1.5-1.5z" transform="translate(0 -1028.362)"/><path style="opacity:.1;fill:#fff;fill-rule:evenodd" d="M13.5 11A5.5 5.5 0 0 0 8 16.5a5.5 5.5 0 0 0 .01.207A5.5 5.5 0 0 1 13.5 11.5a5.5 5.5 0 0 1 5.49 5.293A5.5 5.5 0 0 0 19 16.5a5.5 5.5 0 0 0-5.5-5.5z"/><path style="fill:#fff;opacity:.2" d="M4.146 2c-.083 0-.12.575-.128 1.275.022-.452.066-.775.128-.775.053 0 .59.321 1.194.713 3.359 2.177 7.059 3.436 11.017 3.752.245.02.338.037.432.056.07-.1.142-.193.211-.302 0-.198-.01-.204-.643-.254C12.4 6.149 8.7 4.888 5.34 2.71 4.736 2.32 4.199 2 4.146 2zm2.659 7.732c-.116.554-.463 1.317-.616 1.873-.19.656-.247.797-.189 1.165 0 .004.005.01.006.015.031-.161.09-.355.183-.678.21-.764.784-1.918.616-2.375z"/></svg>