<svg xmlns="http://www.w3.org/2000/svg" width="24" height="24" version="1"><path style="opacity:.2" d="M18.58 3.5a.423.423 0 0 0-.21.05c-3.345 1.798-6.855 4.137-9.036 6.773.174-1.954.624-3.216.693-5.372a.422.422 0 0 0-.744-.286c-3.285 3.841-6.09 8.349-8.256 14.077a.42.42 0 0 0 .09.44l1.139 1.188c.21.218.574.152.693-.125.619-1.441 1.325-2.138 2.092-2.442.767-.304 1.664-.228 2.7.073 2.073.602 4.123 2.152 6.791 2.576.427.067.668-.472.332-.743-1.634-1.318-2.818-2.685-4.451-4.002 3.757-.114 5.798-.002 10.005 1.727.437.18.794-.382.446-.7-1.6-1.457-2.85-2.165-4.45-3.622 2.241-1.013 4.066-1.852 6.33-2.826.43-.184.284-.824-.182-.807-5.003.187-8.055.667-10.737 1.712 2.496-2.398 5.355-4.78 7.079-7.014a.42.42 0 0 0-.324-.677z"/><path style="fill:#23a0ff" d="M18.58 3a.423.423 0 0 0-.21.05c-3.345 1.798-6.855 4.137-9.036 6.773.174-1.954.624-3.216.693-5.372a.422.422 0 0 0-.744-.286c-3.285 3.841-6.09 8.349-8.256 14.077a.42.42 0 0 0 .09.44l1.139 1.188c.21.218.574.152.693-.125.619-1.441 1.325-2.138 2.092-2.442.767-.304 1.664-.228 2.7.073 2.073.602 4.123 2.152 6.791 2.576.427.067.668-.472.332-.743-1.634-1.318-2.818-2.685-4.451-4.002 3.757-.114 5.798-.002 10.005 1.727.437.18.794-.382.446-.7-1.6-1.457-2.85-2.165-4.45-3.622 2.241-1.013 4.066-1.852 6.33-2.826.43-.184.284-.824-.182-.807-5.003.187-8.055.667-10.737 1.712 2.496-2.398 5.355-4.78 7.079-7.014A.42.42 0 0 0 18.58 3z"/><path style="fill:#0064be" d="M11.826 10.738c-4.378 1.658-7.523 3.105-10.42 8.244l.62.647c3.057-5.045 5.298-6.035 9.8-8.89z"/><path style="opacity:.3;fill:#fff" d="M2.04 17.991C3.525 13.993 6.792 7.703 8.977 5.327a26.632 26.632 0 0 0-2.915 5.94c-1.537 2.144-2.78 4.306-4.022 6.724zM20.5 9.9c-2.132.796-4.87 1.612-5.72 2.316-.71.588 1.855 1.552 2.757 2.538-1.612-1.06-5.357-1.366-8.4-.2 2.937-.636 7.02.01 9.8 1.028-1.156-1.072-2.686-2-3.494-2.668-.43-.32-.167-.727.217-.833.96-.394 4.044-1.778 4.84-2.181z"/><path style="opacity:.2;fill:#fff" d="M18.58 3a.422.422 0 0 0-.21.05c-3.31 1.78-6.777 4.089-8.962 6.69-.024.196-.055.373-.074.582 2.18-2.635 5.69-4.974 9.035-6.771a.405.405 0 0 1 .531.13l.004-.003A.421.421 0 0 0 18.58 3zM9.51 4.025a.414.414 0 0 0-.227.14c-3.285 3.84-6.09 8.349-8.256 14.077a.41.41 0 0 0 .053.37C3.24 12.946 6.024 8.474 9.283 4.663c.233-.272.638-.133.713.184.008-.138.027-.252.031-.397a.425.425 0 0 0-.517-.426zM22.563 8.98c-4.473.166-7.384.572-9.868 1.402-.29.272-.587.538-.87.81 2.681-1.044 5.735-1.526 10.738-1.712.162-.006.265.079.34.185.21-.253.052-.7-.34-.685zm-5.768 3.959-.383.173c1.6 1.458 2.851 2.166 4.451 3.623.02.018.03.04.045.059.12-.159.14-.39-.045-.559-1.466-1.335-2.65-2.066-4.068-3.297zm-5.809 2.765c-.2.005-.363-.002-.574.004 1.634 1.317 2.818 2.685 4.451 4.002.025.02.04.046.059.068.123-.167.14-.408-.059-.568-1.43-1.154-2.532-2.343-3.877-3.506z"/></svg>