<svg xmlns="http://www.w3.org/2000/svg" width="24" height="24"><circle style="opacity:.2" cx="12" cy="12.5" r="10"/><circle style="fill:#3f3f3f" cx="12" cy="12" r="10"/><path style="opacity:.1;fill:#fff" d="M12 2A10 10 0 0 0 2 12a10 10 0 0 0 .01.293A10 10 0 0 1 12 2.5a10 10 0 0 1 9.99 9.707A10 10 0 0 0 22 12 10 10 0 0 0 12 2z"/><path style="opacity:.2" d="M7.596 6.026c-.544.01-1.007.226-1.412.591-.336.297-.395.515.08.752.8.405 1.57.88 2.37 1.295.84.435 1.63.325 2.372-.248.474-.365.495-.631-.098-.918-.73-.346-1.433-.77-2.144-1.166-.366-.207-.753-.326-1.168-.306zm9.047.521c-.429-.032-.884.075-1.338.332-1.265.711-2.265 1.3-3.51 2.041-.237.138-.643.188-.652.504-.01.385.395.533.652.73.711.376 1.422.357 2.094-.039 1.383-.79 2.503-1.467 3.896-2.248.524-.286.395-.514.04-.82a2.055 2.055 0 0 0-1.182-.5zM5.324 9.266c-.172.032-.241.23-.29.52-.159.908.237 1.737 1.146 2.261 1.254.721 2.538 1.414 3.812 2.106.247.138.495.462.772.304.326-.188.247-.611.287-.937-.04-.81-.416-1.404-1.098-1.79C8.56 10.94 7.15 10.2 5.766 9.4c-.197-.114-.338-.154-.442-.134zm14.334.324c-.098-.01-.226.037-.396.145-.761.484-1.562.898-2.332 1.373-.8.484-1.107 1.223-.998 2.152.069.593.286.752.84.387.681-.455 1.392-.841 2.103-1.246.366-.208.662-.475.86-.83.266-.485.317-.988.218-1.522-.05-.278-.13-.444-.295-.459zm-5.06 2.91c-.229.005-.454.186-.66.283-.633.439-.947 1.067-.938 1.854.01 1.604.064 3.218.055 4.832 0 .608.249.597.652.437.798-.328 1.284-1.074 1.293-2.12 0-1.465-.028-2.929-.064-4.393-.01-.28.136-.669-.112-.828a.4.4 0 0 0-.226-.065zm-5.235 2.504c-.273-.032-.39.142-.357.613.054.77.043 1.55.043 2.319 0 .403.082.768.289 1.105.26.45.637.724 1.103.893.386.14.584.082.557-.424-.045-.854-.028-1.715-.055-2.568-.027-.9-.475-1.503-1.256-1.84a1.216 1.216 0 0 0-.324-.098z"/><path style="fill:#fff" d="M7.596 5.525c-.544.01-1.007.227-1.412.592-.336.297-.395.515.08.752.8.405 1.57.88 2.37 1.295.84.435 1.63.325 2.372-.248.474-.366.495-.631-.098-.918-.73-.346-1.433-.77-2.144-1.166-.366-.207-.753-.326-1.168-.307zm9.047.522c-.429-.032-.884.075-1.338.332-1.265.711-2.265 1.3-3.51 2.04-.237.14-.643.189-.652.505-.01.385.395.533.652.73.711.376 1.422.356 2.094-.039 1.383-.79 2.503-1.467 3.896-2.248.524-.286.395-.514.04-.82a2.055 2.055 0 0 0-1.182-.5zM5.324 8.766c-.172.032-.241.229-.29.52-.159.908.237 1.737 1.146 2.26 1.254.722 2.538 1.415 3.812 2.106.247.139.495.463.772.305.326-.188.247-.611.287-.937-.04-.81-.416-1.404-1.098-1.79C8.56 10.44 7.15 9.7 5.766 8.9c-.197-.114-.338-.154-.442-.134zm14.334.324c-.098-.01-.226.037-.396.144-.761.485-1.562.9-2.332 1.373-.8.485-1.107 1.224-.998 2.153.069.593.286.752.84.386.681-.454 1.392-.84 2.103-1.246.366-.207.662-.474.86-.83.266-.484.317-.988.218-1.521-.05-.278-.13-.444-.295-.46zM14.598 12c-.229.005-.454.186-.66.283-.633.439-.947 1.067-.938 1.854.01 1.604.064 3.218.055 4.832 0 .608.249.597.652.437.798-.329 1.284-1.075 1.293-2.12 0-1.466-.028-2.929-.064-4.393-.01-.28.136-.67-.112-.829a.4.4 0 0 0-.226-.064zm-5.235 2.504c-.273-.033-.39.142-.357.613.054.77.043 1.55.043 2.319 0 .403.082.767.289 1.105.26.45.637.724 1.103.893.386.14.584.082.557-.424-.045-.854-.028-1.715-.055-2.569-.027-.9-.475-1.502-1.255-1.84a1.216 1.216 0 0 0-.325-.097z"/></svg>