<svg xmlns="http://www.w3.org/2000/svg" width="24" height="24" version="1"><path style="fill:#ccc" d="M22 21V3c0-.554-.446-1-1-1H6.83L4.84 4.014c-.39.394-1.18.23-1.482.694L2 6.793V21c0 .554.446 1 1 1h18c.554 0 1-.446 1-1z"/><path style="fill:#e4e4e4" d="M4.97 4.67c-.306.462-1.665-.192-1.92.3L2 7h20V3c0-.554-.446-1-1-1H6.743z"/><path style="fill:#e4e4e4" d="M4.839 3.62c-.443.332-1.286.524-1.57 1L2 6.75V21c0 .554.446 1 1 1h4V2zM19 7v15h2c.554 0 1-.446 1-1V7z"/><path style="fill:#d32626" d="M3 2c-.554 0-1 .446-1 1v4h5V2z"/><path style="opacity:.2;fill:#fff" d="M2 3.5V3c0-.554.446-1 1-1h18c.554 0 1 .446 1 1v.5c0-.554-.446-1-1-1H3c-.554 0-1 .446-1 1z"/><path style="opacity:.2" d="M2 21v.5c0 .554.446 1 1 1h18c.554 0 1-.446 1-1V21c0 .554-.446 1-1 1H3c-.554 0-1-.446-1-1z"/><path style="fill:#ffd000" d="M7 18h8v4H7z"/><path style="fill:#0fa925" d="M15 18h4v4h-4z"/><path style="fill:#1268c9" d="M19 7h3v3h-3z"/><path style="opacity:.2" d="M7 18h12v.5H7z"/><path style="opacity:.2;fill:#fff" d="M19 10h3v.5h-3z"/><path style="opacity:.2" d="M2 7h20v.5H2z"/></svg>