<svg xmlns="http://www.w3.org/2000/svg" width="24" height="24" version="1"><rect style="fill:#4f4f4f" width="20" height="20" x="2" y="2" rx="1" ry="1"/><path style="opacity:.1;fill:#fff" d="M3 2c-.554 0-1 .446-1 1v.5c0-.554.446-1 1-1h18c.554 0 1 .446 1 1V3c0-.554-.446-1-1-1z"/><path style="opacity:.2" d="M3 22.5c-.554 0-1-.446-1-1V21c0 .554.446 1 1 1h18c.554 0 1-.446 1-1v.5c0 .554-.446 1-1 1zM18.783 5.5l-.131.005a9.217 9.217 0 0 1-.142.008.295.295 0 0 0-.06.07.462.462 0 0 1-.062.077 1.908 1.908 0 0 1-.104.041c-.084.03-.093.033-.122.025-.04-.01-.1-.006-.609.034l-.236.018-.117.111a5.474 5.474 0 0 0-.126.122.34.34 0 0 1-.08.034.855.855 0 0 0-.345.199.506.506 0 0 0-.125.204c-.02.047-.038.087-.04.089a.321.321 0 0 1-.065-.037 1.006 1.006 0 0 0-.567-.175c-.285 0-.54.077-.731.22-.186.14-.339.314-.425.485a1.2 1.2 0 0 0-.084.329c-.017.134-.012.355.01.46.04.177.187.504.352.777.196.324.356.528.744.95.15.162.182.196.494.516.244.25.323.343.425.499.222.337.337.66.303.845a.442.442 0 0 1-.173.262c-.06.046-.197.114-.277.14a.52.52 0 0 1-.157.03.665.665 0 0 1 .022-.113c.05-.194.068-.369.057-.537-.018-.29-.134-.582-.304-.766a1.61 1.61 0 0 0-.553-.37.625.625 0 0 0-.278-.04.623.623 0 0 0-.289.066c-.118.058-.175.138-.175.243 0 .047.004.062.022.096.028.05.077.1.118.118a.464.464 0 0 0 .106.022c.101.01.179.032.266.073.085.04.144.083.221.159a.59.59 0 0 1 .174.31.885.885 0 0 1 0 .294.731.731 0 0 1-.073.187l-.016.02-.142-.14a15.092 15.092 0 0 0-.52-.486c-.26-.217-.526-.37-.74-.425a.316.316 0 0 1-.07-.025.22.22 0 0 1-.018-.067 2.11 2.11 0 0 0-.308-.8 2.187 2.187 0 0 0-.312-.367 2.43 2.43 0 0 0-.647-.48l-.111-.055-.022-.076a2.099 2.099 0 0 0-.33-.666 2.164 2.164 0 0 0-.297-.307 1.6 1.6 0 0 0-.79-.333 2.82 2.82 0 0 0-.522-.014 1.28 1.28 0 0 0-.646.224 2.314 2.314 0 0 0-.754 1.072c-.106.326-.468 1.792-.654 2.65a.579.579 0 0 1-.119.26.708.708 0 0 1-.188.196c-.038.023-.047.025-.095.025-.064 0-.126-.026-.151-.061-.045-.062-.065-.178-.058-.34.004-.113.013-.174.061-.418.052-.264.005-.457-.148-.615a.704.704 0 0 0-.302-.176.686.686 0 0 0-.284.003.801.801 0 0 0-.54.466c-.029.069-.03.069-.078-.005a.893.893 0 0 0-.096-.116c-.052-.052-.052-.052-.153-.084a1.432 1.432 0 0 1-.156-.06.621.621 0 0 0-.214-.067 9.83 9.83 0 0 1-.239-.037c-.167-.027-.178-.03-.254-.065-.087-.04-.079-.033-.169-.172-.056-.089-.098-.126-.158-.14-.112-.027-.252.079-.263.2-.004.04-.006.046-.025.056a.254.254 0 0 0-.1.103c-.048.102 0 .242.098.285.025.011.219.043.26.043.005 0 .042.025.082.054.072.053.074.056.136.157.035.057.08.124.101.148a.514.514 0 0 1 .054.075c.026.051.102.146.146.181a.52.52 0 0 1 .073.077c.09.121.195.173.397.195l.085.009.06.043c.084.06.195.114.283.136.1.026.21.023.318-.01a.293.293 0 0 1 .075-.017.963.963 0 0 1 .012.093c.03.316.16.574.394.777.206.178.364.25.642.295.098.016.292.017.378.003.158-.025.353-.113.509-.23.183-.138.358-.376.542-.741.193-.383.295-.69.43-1.296.069-.306.135-.649.175-.907.014-.092.036-.208.049-.259.065-.265.182-.507.344-.714.06-.077.184-.194.231-.22a.46.46 0 0 1 .396.006c.051.024.305.21.303.223a.376.376 0 0 1-.094.047c-.22.088-.403.205-.545.35-.16.162-.286.363-.353.563a.845.845 0 0 0-.046.326c0 .18.022.314.074.449a.698.698 0 0 0 .404.402c.105.036.178.025.242-.037a.226.226 0 0 0 .072-.195.384.384 0 0 0-.043-.098.784.784 0 0 1-.115-.355.904.904 0 0 1 .075-.382.655.655 0 0 1 .181-.204.814.814 0 0 1 .34-.145l.043-.005-.006.07c-.005.07-.009.093-.066.412a7.706 7.706 0 0 0-.045.274c-.048.374-.026.742.06.963.002.006-.018.025-.047.045-.272.19-.515.475-.663.775-.171.347-.275.751-.275 1.068v.093l-.058.048c-.08.066-.195.182-.264.268-.274.338-.41.726-.396 1.13.007.184.03.307.097.502.121.359.304.633.536.807.069.052.295.163.418.205.26.088.528.129.789.12.122-.005.137-.008 1.002-.172a12110.52 12110.52 0 0 1 1.926-.367c.184-.04.395.005.514.11.06.052.093.137.08.205-.01.054-.105.136-.222.189a1.708 1.708 0 0 1-.417.118.773.773 0 0 0-.27.082.669.669 0 0 0-.336.388.794.794 0 0 0-.005.302.714.714 0 0 0 .415.463c.114.05.275.079.38.069.027-.003.05-.002.053.002a.216.216 0 0 1-.032.067c-.02.033-.047.086-.06.117-.03.067-.03.081-.017.308.01.158.022.23.054.312.008.02.018.067.023.103a.904.904 0 0 0 .046.223l.019.046-.01.117-.008.117-.06.095c-.066.103-.084.144-.084.19 0 .053.015.087.059.131.07.07.154.099.23.08.034-.007.04-.007.064.008.015.01.04.021.058.026a.21.21 0 0 0 .165-.014.248.248 0 0 0 .127-.121c.027-.058.022-.12-.02-.227l-.032-.081.021-.137c.021-.134.022-.137.048-.166a.374.374 0 0 0 .081-.128.633.633 0 0 1 .07-.114.877.877 0 0 0 .132-.252c.009-.029.034-.1.057-.159l.04-.106-.003-.071a.513.513 0 0 0-.032-.155l-.028-.084.012-.104a.935.935 0 0 0 .005-.264.604.604 0 0 0-.136-.328.316.316 0 0 1-.049-.07c0-.006.029-.027.067-.048.136-.075.286-.203.383-.326.147-.187.245-.544.219-.8a1.275 1.275 0 0 0-.189-.57 1.269 1.269 0 0 0-.491-.422c-.165-.081-.328-.121-.632-.154a6.615 6.615 0 0 0-.716 0c-.412.04-.928.142-1.474.293a6.865 6.865 0 0 1-.272.07 10.89 10.89 0 0 1-.806.104c-.05 0-.209-.024-.28-.042-.15-.038-.277-.095-.332-.152a.606.606 0 0 1-.113-.213.798.798 0 0 1-.016-.098c-.005-.053-.003-.067.038-.23.024-.096.047-.174.05-.174.004 0 .036.027.07.06.288.265.651.384.951.41.404.012.925-.17 1.096-.485.109-.21.11-.42.004-.52-.042-.039-.092-.056-.164-.056a.208.208 0 0 0-.19.102.63.63 0 0 1-.113.147.809.809 0 0 1-.353.187.654.654 0 0 1-.286.004.955.955 0 0 1-.233-.11c-.077-.055-.198-.195-.2-.232-.002-.014.205-.078.48-.15.28-.073.462-.139.667-.24.196-.098.317-.18.445-.304a.664.664 0 0 1 .086-.076c.005 0 .03.01.056.021.127.057.348.122.503.148.207.035.372.037.572.008.37-.054.68-.153.937-.302a.426.426 0 0 1 .076-.038c.006 0 .06.017.12.037.197.065.364.094.57.101.297.01.565-.045.812-.167.18-.09.291-.17.43-.313.25-.256.429-.55.5-.82a.885.885 0 0 0 .03-.338 2.269 2.269 0 0 0-.47-1.212c-.237-.311-.784-.94-1.438-1.655-.236-.257-.23-.25-.32-.359a.699.699 0 0 1-.179-.412c-.016-.138.029-.238.124-.275.11-.043.336.092.534.319.154.177.225.237.341.294.205.1.405.096.603-.015a.615.615 0 0 0 .224-.228.733.733 0 0 0 .073-.314.834.834 0 0 0-.125-.485c-.013-.024-.023-.044-.02-.046.002-.003.07-.008.152-.012.142-.008.15-.01.192-.031a.843.843 0 0 0 .086-.051l.11-.076a.961.961 0 0 0 .215-.198.283.283 0 0 1 .092-.081.32.32 0 0 0 .136-.135l.022-.045.078-.027a.38.38 0 0 1 .175-.028c.149 0 .213-.018.267-.071.047-.047.059-.08.059-.158 0-.08-.013-.115-.062-.171a.11.11 0 0 1-.034-.076c-.009-.077-.06-.16-.105-.171a.1.1 0 0 0-.016 0zm-6.219 3.864c.006 0 .018.007.044.026.13.1.261.234.365.372.214.286.326.612.312.913a.53.53 0 0 1-.12.344.214.214 0 0 1-.225.073c-.174-.039-.3-.172-.361-.381-.06-.203-.076-.623-.039-.989.007-.063.012-.166.012-.229s.003-.119.007-.125l.005-.004zm1.344 2.028c.1.001.21.03.326.084a4.3 4.3 0 0 1 .612.426c.188.152.35.29.347.297-.006.017-.18.061-.326.083-.073.01-.367.02-.433.013a2.423 2.423 0 0 1-.306-.055c-.194-.054-.415-.192-.51-.318a.523.523 0 0 1-.108-.267c0-.036.03-.093.071-.134a.442.442 0 0 1 .327-.129zm-1.356.349h.028c.106.01.191.04.233.083.04.044.055.154.032.243-.075.29-.44.564-1.069.803a2.038 2.038 0 0 1-.315.094c-.007 0-.008-.007-.005-.026.02-.105.086-.28.161-.423.18-.348.434-.605.713-.722a.57.57 0 0 1 .222-.052z"/><path style="fill:#3ffe3f" d="m18.783 5-.131.005a9.217 9.217 0 0 1-.142.008.295.295 0 0 0-.06.07.462.462 0 0 1-.062.077 1.908 1.908 0 0 1-.104.04c-.084.032-.093.034-.122.026-.04-.01-.1-.006-.609.034l-.236.018-.117.111a5.474 5.474 0 0 0-.126.122.34.34 0 0 1-.08.034.855.855 0 0 0-.345.199.506.506 0 0 0-.125.204c-.02.047-.038.087-.04.089A.321.321 0 0 1 16.42 6a1.006 1.006 0 0 0-.567-.175c-.285 0-.54.077-.731.22-.186.14-.339.314-.425.485a1.2 1.2 0 0 0-.084.329c-.017.133-.012.355.01.46.04.177.187.504.352.777.196.324.356.528.744.949.15.163.182.197.494.517.244.25.323.343.425.498.222.338.337.66.303.846a.442.442 0 0 1-.173.262c-.06.046-.197.114-.277.14a.52.52 0 0 1-.157.03.665.665 0 0 1 .022-.113c.05-.194.068-.369.057-.537-.018-.29-.134-.582-.304-.766a1.61 1.61 0 0 0-.553-.37.625.625 0 0 0-.278-.04.623.623 0 0 0-.289.066c-.118.058-.175.138-.175.243 0 .047.004.062.022.096.028.05.077.1.118.118a.464.464 0 0 0 .106.022c.101.01.179.032.266.073.085.04.144.083.221.159a.59.59 0 0 1 .174.31.885.885 0 0 1 0 .294.731.731 0 0 1-.073.187l-.016.02-.142-.14a15.092 15.092 0 0 0-.52-.486c-.26-.217-.526-.37-.74-.425a.316.316 0 0 1-.07-.025.22.22 0 0 1-.018-.067 2.11 2.11 0 0 0-.308-.8 2.187 2.187 0 0 0-.312-.367 2.43 2.43 0 0 0-.647-.48l-.111-.055-.022-.076a2.099 2.099 0 0 0-.33-.666 2.164 2.164 0 0 0-.297-.307 1.6 1.6 0 0 0-.79-.333 2.82 2.82 0 0 0-.522-.014 1.28 1.28 0 0 0-.646.224 2.314 2.314 0 0 0-.754 1.072c-.106.326-.468 1.792-.654 2.65a.579.579 0 0 1-.119.26.708.708 0 0 1-.188.196c-.038.022-.047.025-.095.025-.064-.001-.126-.026-.151-.061-.045-.063-.065-.178-.058-.34.004-.113.013-.174.061-.418.052-.264.005-.457-.148-.616a.704.704 0 0 0-.302-.175.686.686 0 0 0-.284.003.801.801 0 0 0-.54.466c-.029.069-.03.069-.078-.005a.893.893 0 0 0-.096-.116c-.052-.052-.052-.052-.153-.085a1.432 1.432 0 0 1-.156-.06.621.621 0 0 0-.214-.066 9.83 9.83 0 0 1-.239-.037c-.167-.027-.178-.03-.254-.065-.087-.041-.079-.033-.169-.172-.056-.089-.098-.126-.158-.14-.112-.027-.252.079-.263.2-.004.04-.006.046-.025.056a.254.254 0 0 0-.1.103c-.048.102 0 .242.098.285.025.011.219.043.26.043.005 0 .042.025.082.054.072.053.074.056.136.157.035.057.08.123.101.148a.514.514 0 0 1 .054.075c.026.051.102.146.146.181a.52.52 0 0 1 .073.077c.09.121.195.173.397.195l.085.009.06.043c.084.06.195.114.283.136.1.026.21.023.318-.01a.293.293 0 0 1 .075-.017.963.963 0 0 1 .012.093c.03.316.16.574.394.777.206.178.364.25.642.295.098.016.292.017.378.003.158-.025.353-.113.509-.23.183-.138.358-.377.542-.741.193-.383.295-.69.43-1.297.069-.305.135-.648.175-.906.014-.092.036-.208.049-.259.065-.266.182-.507.344-.714.06-.077.184-.194.231-.22a.46.46 0 0 1 .396.006c.051.024.305.21.303.223a.376.376 0 0 1-.094.047c-.22.088-.403.205-.545.35-.16.162-.286.363-.353.563a.845.845 0 0 0-.046.325c0 .18.022.315.074.45a.698.698 0 0 0 .404.402c.105.036.178.025.242-.037a.226.226 0 0 0 .072-.195.384.384 0 0 0-.043-.098.784.784 0 0 1-.115-.355.904.904 0 0 1 .075-.382.655.655 0 0 1 .181-.204.814.814 0 0 1 .34-.145l.043-.005-.006.07c-.005.07-.009.093-.066.412a7.706 7.706 0 0 0-.045.274c-.048.374-.026.742.06.963.002.006-.018.025-.047.045-.272.19-.515.475-.663.775-.171.347-.275.751-.275 1.068v.093l-.058.047c-.08.067-.195.183-.264.269-.274.338-.41.726-.396 1.13.007.184.03.307.097.502.121.359.304.633.536.807.069.052.295.163.418.205.26.088.528.129.789.12.122-.005.137-.008 1.002-.172a12110.52 12110.52 0 0 1 1.926-.367c.184-.04.395.005.514.11.06.051.093.136.08.205-.01.054-.105.136-.222.189a1.708 1.708 0 0 1-.417.118.773.773 0 0 0-.27.082.669.669 0 0 0-.336.388.794.794 0 0 0-.005.302.714.714 0 0 0 .415.462c.114.05.275.08.38.07.027-.003.05-.002.053.002a.216.216 0 0 1-.032.067c-.02.033-.047.086-.06.117-.03.067-.03.081-.017.308.01.157.022.23.054.312.008.02.018.067.023.103a.904.904 0 0 0 .046.223l.019.045-.01.117-.008.117-.06.096c-.066.103-.084.144-.084.19 0 .053.015.087.059.13.07.07.154.1.23.082.034-.008.04-.008.064.007.015.01.04.021.058.026a.21.21 0 0 0 .165-.014.248.248 0 0 0 .127-.121c.027-.058.022-.12-.02-.227l-.032-.081.021-.137c.021-.134.022-.137.048-.166a.374.374 0 0 0 .081-.128.633.633 0 0 1 .07-.114.877.877 0 0 0 .132-.252c.009-.029.034-.1.057-.159l.04-.106-.003-.071a.513.513 0 0 0-.032-.155l-.028-.084.012-.104a.935.935 0 0 0 .005-.264.604.604 0 0 0-.136-.328.316.316 0 0 1-.049-.07c0-.006.029-.027.067-.048.136-.075.286-.203.383-.326.147-.187.245-.544.219-.8a1.275 1.275 0 0 0-.189-.57 1.269 1.269 0 0 0-.491-.422c-.165-.082-.328-.122-.632-.154a6.615 6.615 0 0 0-.716 0c-.412.04-.928.142-1.474.293a6.865 6.865 0 0 1-.272.07 10.89 10.89 0 0 1-.806.104c-.05 0-.209-.024-.28-.042-.15-.038-.277-.095-.332-.152a.606.606 0 0 1-.113-.213.798.798 0 0 1-.016-.098c-.005-.054-.003-.067.038-.23.024-.096.047-.174.05-.174.004 0 .036.027.07.06.288.265.651.384.951.41.404.012.925-.17 1.096-.485.109-.21.11-.42.004-.52-.042-.039-.092-.056-.164-.056a.208.208 0 0 0-.19.102.63.63 0 0 1-.113.147.809.809 0 0 1-.353.187.654.654 0 0 1-.286.004.955.955 0 0 1-.233-.11c-.077-.055-.198-.195-.2-.232-.002-.014.205-.078.48-.15.28-.073.462-.139.667-.24.196-.098.317-.18.445-.304a.664.664 0 0 1 .086-.076c.005 0 .03.01.056.021.127.057.348.122.503.148.207.035.372.037.572.008.37-.054.68-.153.937-.302a.426.426 0 0 1 .076-.038c.006 0 .06.017.12.037.197.065.364.094.57.101.297.01.565-.045.812-.167.18-.09.291-.17.43-.313.25-.256.429-.55.5-.82a.885.885 0 0 0 .03-.338 2.269 2.269 0 0 0-.47-1.212c-.237-.311-.784-.941-1.438-1.655-.236-.257-.23-.25-.32-.359a.699.699 0 0 1-.179-.412c-.016-.138.029-.238.124-.275.11-.043.336.092.534.319.154.176.225.237.341.294.205.1.405.096.603-.015a.615.615 0 0 0 .224-.228.733.733 0 0 0 .073-.314.834.834 0 0 0-.125-.485c-.013-.024-.023-.044-.02-.046.002-.003.07-.008.152-.013.142-.007.15-.008.192-.03a.843.843 0 0 0 .086-.051l.11-.076a.961.961 0 0 0 .215-.198.283.283 0 0 1 .092-.081.32.32 0 0 0 .136-.135l.022-.045.078-.027a.38.38 0 0 1 .175-.028c.149 0 .213-.018.267-.071.047-.047.059-.08.059-.158 0-.08-.013-.115-.062-.171a.11.11 0 0 1-.034-.076c-.009-.077-.06-.16-.105-.171a.1.1 0 0 0-.016 0zm-6.219 3.864c.006 0 .018.007.044.026.13.1.261.234.365.372.214.286.326.612.312.913a.53.53 0 0 1-.12.344.214.214 0 0 1-.225.073c-.174-.039-.3-.172-.361-.381-.06-.203-.076-.623-.039-.989.007-.063.012-.166.012-.229s.003-.119.007-.125l.005-.004zm1.344 2.028c.1.001.21.03.326.084a4.3 4.3 0 0 1 .612.426c.188.152.35.29.347.297-.006.017-.18.061-.326.083-.073.01-.367.02-.433.013a2.423 2.423 0 0 1-.306-.055c-.194-.054-.415-.192-.51-.318a.523.523 0 0 1-.108-.267c0-.036.03-.093.071-.134a.442.442 0 0 1 .327-.129zm-1.356.349h.028c.106.01.191.04.233.083.04.044.055.154.032.243-.075.29-.44.564-1.069.803a2.038 2.038 0 0 1-.315.094c-.007 0-.008-.007-.005-.027.02-.104.086-.278.161-.422.18-.348.434-.605.713-.722a.57.57 0 0 1 .222-.053z"/></svg>