<svg xmlns="http://www.w3.org/2000/svg" width="24" height="24"><path style="opacity:.2" d="M9.54 21.405c-.035-.054.258-.518.649-1.032 1.002-1.315 1.19-1.92.744-2.429-.183-.209-.433-.444-1.924-.444-3.228 0-4.551-.62-5.552-1.688-1.377-1.468-1.835-4.677-1.128-7.17.83-2.923 4.005-5.086 8.728-5.946 3.077-.396 6.757-.371 9.054 1.813 2.036 2.001 2.488 5.701 1.054 8.642-.938 1.924-2.646 3.505-4.776 4.063-.747.196-.841.264-1.983 1.444-1.219 1.26-2.5 2.117-3.64 2.597-.611.257-1.12.32-1.227.15z"/><path style="fill:#ffc933" d="M9.54 20.905c-.035-.054.258-.518.649-1.032 1.002-1.315 1.19-1.92.744-2.429C10.75 17.235 10.5 17 9.009 17c-3.228 0-4.551-.62-5.552-1.688-1.377-1.468-1.835-4.677-1.128-7.17.83-2.923 4.005-5.086 8.728-5.946 3.077-.396 6.757-.371 9.054 1.813C22.147 6.01 22.6 9.71 21.165 12.65c-.938 1.924-2.646 3.505-4.776 4.063-.747.196-.841.264-1.983 1.444-1.219 1.26-2.5 2.117-3.64 2.597-.611.257-1.12.32-1.227.15z"/><path style="opacity:.2;fill:#fff" d="M13.447 2.006a23.06 23.06 0 0 0-2.39.191C6.334 3.057 3.16 5.22 2.33 8.143c-.22.777-.315 1.623-.316 2.464.035-.674.14-1.341.316-1.964.83-2.924 4.004-5.086 8.727-5.946 3.077-.397 6.757-.373 9.054 1.81 1.203 1.183 1.837 2.962 1.871 4.823.083-2.04-.56-4.034-1.87-5.322-1.724-1.638-4.224-2.06-6.665-2.002zM11.12 18.279c-.097.392-.393.89-.93 1.594-.39.514-.684.977-.65 1.031.033.053.115.077.217.086.115-.177.258-.387.433-.617.796-1.044 1.07-1.638.93-2.094z"/></svg>