<svg xmlns="http://www.w3.org/2000/svg" width="24" height="24" version="1"><path style="opacity:.2" d="M2.006 12.25c-.002.083-.006.165-.006.25 0 5.54 4.46 10 10 10s10-4.46 10-10c0-.084-.004-.167-.006-.25A9.976 9.976 0 0 1 12 22a9.976 9.976 0 0 1-9.994-9.75z"/><rect style="fill:#e4e4e4" width="20" height="20" x="2" y="2" rx="10" ry="10"/><path style="opacity:.2;fill:#fff" d="M12 2C6.46 2 2 6.46 2 12c0 .083.004.166.006.25A9.976 9.976 0 0 1 12 2.5a9.976 9.976 0 0 1 9.994 9.75c.002-.084.006-.167.006-.25 0-5.54-4.46-10-10-10z"/><path style="opacity:.2;fill:none;stroke:#000;stroke-width:4;stroke-linecap:round;stroke-linejoin:round" d="M12 21.5V13M4 6.5l8 6.5 8-6.5"/><path style="fill:none;stroke:#e34241;stroke-width:4;stroke-linecap:round;stroke-linejoin:round" d="M12 21v-8.5M4 6l8 6.5L20 6"/></svg>