<svg xmlns="http://www.w3.org/2000/svg" width="24" height="24"><path style="opacity:.2;fill-rule:evenodd" d="M5 14.245V7.38c0-.98.254-1.006 1.025-1.46l5.328-3.14c.688-.362.67-.37 1.242-.035L19 6.49l-1.692 3.674-5.305-3.32L9 8.996v2.914zM18.995 10.644v6.93c.005 1.016-.202 1.012-.98 1.47l-5.491 3.236c-.544.305-.577.282-1.066-.003l-6.453-3.773 2.117-3.216 4.874 2.858L15 15.991V13.03z"/><path style="fill:#b66af5;fill-rule:evenodd" d="M5 13.745V6.88c0-.98.254-1.006 1.025-1.46l5.328-3.14c.688-.362.67-.37 1.242-.035L19 5.99l-1.692 3.674-5.305-3.32L9 8.496v2.914z"/><path style="fill:#8a49ff;fill-rule:evenodd" d="M18.995 10.144v6.93c.005 1.016-.202 1.012-.98 1.47l-5.491 3.236c-.544.305-.577.283-1.066-.003l-6.453-3.773 2.117-3.216 4.874 2.858L15 15.491V12.53z"/><path style="opacity:.2;fill:#fff;fill-rule:evenodd" d="M12.018 2c-.153.006-.322.098-.665.28L6.024 5.418C5.254 5.873 5 5.898 5 6.88v.5c0-.981.253-1.007 1.024-1.46l5.329-3.14c.687-.362.67-.369 1.242-.035l6.202 3.626.203-.38-6.405-3.746c-.286-.167-.424-.25-.577-.244z"/><path style="opacity:.2;fill-rule:evenodd" d="m5 18.5 14-8.344V6.5L5 14.742z"/><path style="fill:#a551ff;fill-rule:evenodd" d="m5 18 14-8.344V6L5 14.242z"/></svg>