<svg height="64" viewBox="0 0 16.933 16.933" width="64" xmlns="http://www.w3.org/2000/svg"><g transform="translate(0 -280.067)"><path d="m.53 284.83v9.524c0 .147.117.265.264.265h15.346a.264.264 0 0 0 .264-.265v-9.525z" fill="#fff"/><path d="m.53 284.83v9.524c0 .147.117.265.264.265h15.346a.264.264 0 0 0 .264-.265v-9.525h-.264v9.272c0 .14-.115.253-.256.253h-14.834a.254.254 0 0 1 -.256-.253v-9.272z" opacity=".15"/><path d="m.794 282.448a.264.264 0 0 0 -.265.265v2.116h15.875v-2.116a.264.264 0 0 0 -.264-.265z" fill="#666"/><rect height=".794" opacity=".35" ry=".397" width=".794" x="14.817" y="283.242"/><rect height=".794" opacity=".35" ry=".397" width=".794" x="13.229" y="283.242"/><rect height=".794" opacity=".35" ry=".397" width=".794" x="11.642" y="283.242"/><rect height=".529" opacity=".35" ry=".265" width="8.467" x="4.233" y="286.946"/><circle cx="10.054" cy="287.21" fill="#308fcf" r="1.058"/><rect height=".529" opacity=".35" ry=".265" width="8.467" x="4.233" y="291.179"/><circle cx="6.615" cy="291.444" opacity=".15" r="1.587"/><circle cx="6.615" cy="291.444" fill="#308fcf" r="1.058"/></g></svg>