<svg height="64" viewBox="0 0 16.933 16.933" width="64" xmlns="http://www.w3.org/2000/svg" xmlns:xlink="http://www.w3.org/1999/xlink"><linearGradient id="a" gradientUnits="userSpaceOnUse" x1="39.759971" x2="39.759971" y1="32.172" y2="22.64712"><stop offset="0"/><stop offset="1" stop-opacity="0"/></linearGradient><filter id="b" color-interpolation-filters="sRGB" height="1.188" width="1.1518" x="-.075915" y="-.094012"><feGaussianBlur stdDeviation=".49298235"/></filter><filter id="c" color-interpolation-filters="sRGB" height="1.054" width="1.054" x="-.027" y="-.027"><feGaussianBlur stdDeviation=".61875"/></filter><linearGradient id="d" gradientUnits="userSpaceOnUse" x1="1.190602" x2="15.742398" y1="15.739753" y2="1.187957"><stop offset="0" stop-color="#a53cff"/><stop offset="1" stop-color="#b496ff"/></linearGradient><g fill="#5e4aa6" stroke-width=".264578"><circle cx="-330.378698" cy="-328.500194" r="0"/><circle cx="-301.69843" cy="-344.427797" r="0"/><circle cx="-306.407921" cy="-329.664338" r="0"/><circle cx="-306.19626" cy="-335.40567" r="0"/><circle cx="-15.280974" cy="-.577548" fill-rule="evenodd" r="0"/></g><rect fill="#141414" filter="url(#c)" height="55" opacity=".3" ry="15" stroke-linecap="round" stroke-width="2.74436" transform="scale(.26457812)" width="55" x="4.5" y="4.5"/><rect fill="url(#d)" height="14.551796" ry="3.968672" stroke-linecap="round" stroke-width=".726098" width="14.551796" x="1.190602" y="1.190602"/><g fill-rule="evenodd"><g fill="#9150dc" filter="url(#b)" transform="matrix(.72112 0 0 .72112 -17.706142 -11.29893)"><path d="m41.805 33.428c-.054.2-.27.316-.48.26l-12.524-3.356c-.212-.057-.34-.267-.287-.465l2.272-8.476c.053-.2.27-.316.48-.26l12.523 3.357c.211.057.34.267.286.465z"/><path d="m43.175 31.797c0 .207-.18.375-.397.375h-12.965c-.219 0-.397-.17-.397-.375v-8.774c0-.207.18-.375.397-.375h12.966c.22 0 .397.17.397.375z"/><path d="m39.206 28.865v-3.308a.397.397 0 0 0 -.394-.396h-4.633v-1.059c0-.132-.132-.397-.397-.397-.264 0-.397.265-.397.397v1.059h-1.058c-.132 0-.397.132-.397.397 0 .264.265.396.397.396h1.058v3.308c0 .22.18.397.395.397h4.632v1.058c0 .132.133.397.397.397.265 0 .397-.265.397-.397v-1.058h1.058c.133 0 .397-.133.397-.397 0-.265-.264-.397-.397-.397zm-5.027 0v-2.91h4.233v2.91z"/><path d="m41.279 22.647a15.346 14.023 0 0 1 -4.9339 9.5249h6.4325c.21801 0 .39687-.16774.39687-.37464v-8.7756c0-.20478-.17753-.37464-.39687-.37464z" opacity=".15" stroke-width=".26458"/></g><g transform="matrix(.72112 0 0 .72112 -17.70631 -11.299039)"><path d="m41.805 33.428c-.054.2-.27.316-.48.26l-12.524-3.356c-.212-.057-.34-.267-.287-.465l2.272-8.476c.053-.2.27-.316.48-.26l12.523 3.357c.211.057.34.267.286.465z" fill="#ffc771"/><path d="m43.175 31.797c0 .207-.18.375-.397.375h-12.965c-.219 0-.397-.17-.397-.375v-8.774c0-.207.18-.375.397-.375h12.966c.22 0 .397.17.397.375z" fill="#a75dfa"/><path d="m39.206 28.865v-3.308a.397.397 0 0 0 -.394-.396h-4.633v-1.059c0-.132-.132-.397-.397-.397-.264 0-.397.265-.397.397v1.059h-1.058c-.132 0-.397.132-.397.397 0 .264.265.396.397.396h1.058v3.308c0 .22.18.397.395.397h4.632v1.058c0 .132.133.397.397.397.265 0 .397-.265.397-.397v-1.058h1.058c.133 0 .397-.133.397-.397 0-.265-.264-.397-.397-.397zm-5.027 0v-2.91h4.233v2.91z" fill="#fff9f9"/><path d="m41.279 22.647a15.346 14.023 0 0 1 -4.9339 9.5249h6.4325c.21801 0 .39687-.16774.39687-.37464v-8.7756c0-.20478-.17753-.37464-.39687-.37464z" fill="url(#a)" opacity=".15" stroke-width=".26458"/></g></g></svg>