<svg xmlns="http://www.w3.org/2000/svg" width="48" height="48">
    <path d="M24 7.531s-2.51 13.876-2.844 19.782a17.225 17.225 0 0 0 .125 3.28 52.847 52.847 0 0 0-1.25-1.905c-1.67-2.422-9.781-11.625-9.781-11.625s1.755 9.767 4.094 15.562C9.452 30.608 2.5 29.031 2.5 29.031s8.884 9.219 14.156 10c2.956.438 5.335.422 6.938.313.679.04 1.275.066 1.781.062.35.076 1.852.3 6.406-.375 5.272-.781 14.157-10 14.157-10s-6.206 1.504-11.376 3.532c.705-1.802 1.3-3.811 3.563-7.094 1.398-2.028 6.25-6.907 6.25-6.907s-5.122.748-8.125 2.625c-2.489 1.556-5.137 4.075-6.906 6.282C29.364 18.973 24 7.53 24 7.53z" fill="#dbdbdb"/>
</svg>
