<svg height="64" width="64" xmlns="http://www.w3.org/2000/svg"><rect fill="#413e4d" height="55.001" ry="13" stroke-width="2.124" width="55.001" x="4.4996" y="4.4996"/><path d="m36.463 49.07c0-.04469.30586-.18735.67969-.3171.44006-.15272.71917-.32652.79167-.49298.0616-.14137.46054-.45997.88655-.70794.426-.24797 1.1648-.71342 1.6417-1.0344.7478-.50315.85776-.62132.79874-.85838-.0455-.1824-.008-.29786.1081-.34315.2138-.08268.23501-.31424.0288-.31353-.0813.000229-.38712.16401-.67969.36385-.73593.5027-1.5704.92207-1.7243.86656-.0707-.02556-.41646.08868-.76833.25381-.35188.1651-.77936.30072-.94998.30136-.17061.000599-.53635.08154-.81276.17988-.27639.09825-.55832.17873-.62649.17873-.21438 0 .40437-.57882 1.1801-1.1039.77738-.52622.96212-.76005.44348-.56129-.40071.15358-.99706.1485-.99706-.0086 0-.06855.16446-.21603.36546-.32766.82695-.45927 1.4308-.87472 1.3661-.93989-.0378-.03813-.43896.15224-.89131.42313-.45236.27089-.87965.49251-.94955.49251-.31141 0-.0652-.27794.70176-.79195.85955-.57614 1.0566-.86883.26999-.40099-.63197.37586-1.5717.73434-1.5717.59957 0-.06226.45685-.41656 1.0152-.78721.55837-.37066 1.1101-.83125 1.2262-1.0235.11602-.1923.56121-.64087.98932-.99682.42812-.35594.82878-.74168.89034-.85719.0616-.11552.43745-.61215.83528-1.1036.87164-1.0769 1.9396-3.1743 2.2447-4.4086.13118-.53084.25548-1.6192.3061-2.6809.0756-1.5874.056-1.9328-.17623-3.0884-.68245-3.3963-1.8769-5.645-3.7847-7.1254-1.9332-1.5001-3.5333-2.0421-6.0285-2.0421-1.87 0-3.0142.27045-4.9794 1.1768-1.8793.86678-2.426 1.2462-3.736 2.5928-1.1112 1.1423-1.1241 1.1632-2.1554 3.482l-.37093.83406.07605-.59576c.09664-.75694.70534-2.0926 1.3645-2.9941 1.0152-1.3885 2.8728-2.9216 3.9498-3.2598.26005-.08168.97318-.42373 1.5847-.76012l1.1119-.61161-.52088-.0327c-.28648-.01799-.64048-.09396-.78667-.16897-.19385-.09938-.37782-.10167-.67968-.0086-.63761.19726-.49494-.05041.23765-.41265.65686-.32472.73112-.453.3884-.67091-.23532-.14962-1.332.31077-2.5358 1.0646-1.3418.8402-2.7166 2.1909-1.6801 1.6506l.37021-.19298-.0816.32755c-.0526.21146-.0295.35997.0652.419.10545.06569.0158.24686-.3182.64318-.68307.81046-1.4836 1.875-1.8533 2.4644-.17843.2845-.52635.77143-.77315 1.0821-.46218.58174-1.0892 2.2372-1.0892 2.8757 0 .18062-.05222.42675-.11604.54696-.08429.15876-.0722.2355.04417.28053.23892.09239.335.78834.36484 2.6428.03181 1.9766.1965 2.5268 1.1975 4.0001.35046.51582.6372.9672.6372 1.0031 0 .03584-.14628.03213-.32506-.0086-.27646-.06255-.19528.05683.5428.79835.47733.47955.81808.88865.75722.90909-.0608.02042-.35171-.06697-.64636-.19429-.48403-.20914-.7719-.48829-1.6121-1.5633-.28504-.36468-.46238-.23653-.26795.19362.24041.53187.06468.44302-.40827-.20642-.24823-.34086-.47082-.56083-.49463-.48882-.05717.1729.08865.43525.83026 1.4937.34064.48617.7105 1.0526.82191 1.2587.13349.24696.32238.3989.55392.44558.19324.03899.38037.14704.41582.24019.0821.21554 1.5952.90574 1.8065.82401.0873-.0337.42551.04455.75158.17416.32607.12952.87015.23559 1.2091.23565 1.6784.000242 3.7445 1.8424 3.7475 3.3414.001.73442-.58188 1.7155-1.3136 2.2092-.92365.62309-2.9363.84596-4.2064.46578-1.5695-.46981-6.0056-4.4099-7.7799-6.9101-1.0527-1.4834-1.6171-2.718-2.1244-4.6469-.68816-3.0825.20634-7.3388 1.0158-9.7546.67155-1.9891.87337-2.4146 1.1841-2.4965.28971-.0764.34425.01428.2152.35601-.20977.55614-.15062.67304.30306.59883.52407-.08568.52397-.06097-.0064 1.5374-.41761 1.2582-.5029 1.8961-.10696.80002.63831-1.767 1.1187-2.501.9529-1.4558-.1084.68335.13923.56401.53643-.25854.17159-.35534.48248-.80694.69086-1.0035l.37887-.35745-.3297.68178c-.18134.37499-.29186.71994-.24562.76654.1308.1318.27241-.07169.66464-.95502.27212-.61288.31672-.79949.17826-.74594-.11058.04284-.02797-.14902.20598-.47818.21484-.30228.45426-.57444.53202-.6048.07776-.03041.38294-.38568.67817-.7896.95709-1.3095 2.19-2.1243 4.9839-3.2938.6439-.26955 1.5242-.70483 1.9563-.96729 1.0988-.6675 1.4829-.75648 3.1972-.74074 1.8434.01699 2.8643.18067 4.4599.71525 2.2362.74921 4.201 1.8991 5.9753 3.4969.51838.46681.96222.78915.9863.71629.13785-.4169-1.948-2.5647-3.1948-3.2896-.87756-.51022-1.1276-.76724-.74636-.76724.0959 0 .67216.26809 1.2805.59576 1.1978.64509 1.3448.68875 1.4029.41633.0673-.31609 1.0244.27225 1.9333 1.1884 2.3874 2.4065 4.0832 6.3203 4.5447 10.489.26508 2.3944.15199 3.6061-.66167 7.0895-.36184 1.5491-1.5118 3.9687-2.4634 5.1831-.35946.45874-.8716 1.12-1.1381 1.4695-.54627.71639-3.0268 2.6328-4.2452 3.2797-1.2092.64205-3.9008 1.5285-3.9008 1.2847zm3.0781-1.3299c.25746-.13238.4681-.26512.4681-.29494 0-.08268-.58241.15861-.86552.3585-.35674.25187-.15243.2192.39742-.06355zm.94679-27.097c-.28164-.34208-1.4768-1.0656-2.3036-1.3945-1.3006-.51743-1.3037-.39272-.007.2923.65013.34352 1.4468.79426 1.7703 1.0016.59758.38302.80487.42159.54056.10053zm-4.1808-2.0456c-.43425-.23727-1.9455-.5537-2.1213-.44418-.14796.09211.11971.1875 1.2725.45333.99357.22909 1.2792.22601.84879-.0086zm3.4657 21.696c0-.05883 1.1009-1.5309 1.3347-1.7847.14981-.16262-.35819.84848-.7034 1.4-.1538.24574-.35878.44682-.45548.44682-.0968 0-.17582-.02799-.17582-.06212zm1.961-3.2443c.33434-.88965.6069-1.9064.83423-3.112.0293-.15518.0762-.25892.10441-.23055.0857.08639-.26334 2.0229-.47903 2.6574-.20255.59588-.73354 1.7277-.81057 1.7277-.0225 0 .13543-.46915.35096-1.0426zm.90575-4.498c.001-.26214.0255-.35534.0538-.20713s.0272.36268-.003.4766c-.0296.11396-.0527-.0071-.0514-.26948zm-.13756-1.9964c-.0918-.57374-.13515-1.0751-.0965-1.1142.13132-.13237.33458.91343.29884 1.5372-.0349.60888-.0385.6012-.20243-.423zm-21.666-9.4637c.5724-.81788 2.9818-2.8762 2.7963-2.3888-.0528.13866-1.4801 1.4413-2.7064 2.4699l-.35512.29786zm6.6439-.15716c0-.06555.0829-.1191.18428-.1191s.15141.05354.11124.1191c-.0402.06555-.12311.11909-.18429.11909-.0612 0-.11122-.05369-.11122-.11909zm-7.2106-.58712c0-.12638.14628-.34589.32507-.48797.27007-.21461.3313-.22735.36194-.07525.04865.24153-.31524.79292-.52329.79292-.09004 0-.16371-.10339-.16371-.22966zm11.466-4.3108c0-.11495.46661-.22205.9752-.22391.24381-.000957.44327.05198.44327.11752 0 .12809-.0127.13038-.85699.1632-.3088.01143-.56148-.01428-.56148-.05683zm-.2364-.57158c0-.3511 1.7688-.7454 2.2293-.49696.37142.20038.32221.48554-.0839.48554-.18523 0-.74375.0347-1.2412.07711-.66622.05683-.90437.03941-.90437-.06569z" fill="#b648b6"/></svg>