<svg height="512" width="512" xmlns="http://www.w3.org/2000/svg">
    <path d="M261.03 30.992A223.57 223.57 0 0 0 32.43 256a223.57 223.57 0 0 0 447.13 0A223.57 223.57 0 0 0 261.03 30.992zm-68.993 93.004c17.783 0 32.332 25.867 32.332 58.2 0 32.332-14.549 58.199-32.332 58.199s-32.334-25.867-32.334-58.2c0-32.332 14.551-58.199 32.334-58.199zm120.16 0c17.783 0 32.334 25.867 32.334 58.2 0 32.332-14.55 58.199-32.334 58.199-17.783 0-32.332-25.867-32.332-58.2 0-32.332 14.55-58.199 32.332-58.199zM86.766 269.434c77.34 44.652 167.572 41.76 169.257 41.76 12.31 0 105.799-2.829 169.266-39.473l.008.002C386.279 339.297 340.66 387.99 259.453 387.99c-78.894 0-136.636-56.13-172.687-118.556z" fill="#f4f4f7"/>
</svg>
