<svg xmlns="http://www.w3.org/2000/svg" width="512" height="512">
    <text x="729.64" y="231.36" font-family="Gentium Book Basic" word-spacing="0" letter-spacing="0" font-size="129.23">
    
  </text>
    <text x="1310.91" y="151.36" font-family="Gentium Book Basic" word-spacing="0" letter-spacing="0" font-size="129.23">
    
  </text>
    <text x="239.33" y="-29.901" font-family="Gentium Book Basic" word-spacing="0" letter-spacing="0" font-size="129.23">
    
  </text>
    <text x="1337.38" y="-246.37" font-family="Gentium Book Basic" word-spacing="0" letter-spacing="0" font-size="129.23">
    
  </text>
    <text x="1918.65" y="-326.38" font-family="Gentium Book Basic" word-spacing="0" letter-spacing="0" font-size="129.23">
    
  </text>
    <text x="1529.53" y="-798.78" font-family="Gentium Book Basic" word-spacing="0" letter-spacing="0" font-size="129.23">
    
  </text>
    <text x="2110.79" y="-878.78" font-family="Gentium Book Basic" word-spacing="0" letter-spacing="0" font-size="129.23">
    
  </text>
    <text x="277.99" y="535.94" font-family="Gentium Book Basic" word-spacing="0" letter-spacing="0" font-size="208.33">
    
  </text>
    <path d="M96.193 79.257c-6.568 0-11.824 5.22-11.824 11.73V421.16c0 6.52 5.256 11.741 11.824 11.741h66.908c6.616 0 11.872-5.22 11.872-11.74V90.985c0-6.52-5.256-11.73-11.872-11.73zm11.17 33.15h44.604v132.61h-44.605zm22.302 198.922c12.29 0 22.302 9.918 22.302 22.112 0 12.206-10 22.124-22.302 22.124-12.337 0-22.303-9.918-22.303-22.124 0-12.194 9.966-22.112 22.303-22.112m78.041-232.072c-6.568 0-11.825 5.22-11.825 11.73V421.16c0 6.52 5.257 11.741 11.825 11.741h44.605c6.616 0 11.884-5.22 11.884-11.74V90.985c0-6.52-5.268-11.73-11.884-11.73zm0 33.15h44.605v132.61h-44.605zm22.302 198.922c12.338 0 22.303 9.918 22.303 22.112 0 12.206-9.965 22.124-22.303 22.124-12.29 0-22.302-9.918-22.302-22.124 0-12.194 10.013-22.112 22.302-22.112M283.375 90.89c-6.33 1.73-10.06 8.107-8.38 14.388l86.23 318.959c1.728 6.281 8.2 9.953 14.53 8.284l43.068-11.408c6.377-1.728 10.108-8.105 8.38-14.387l-86.23-318.958c-1.681-6.294-8.154-9.965-14.483-8.297Zm8.654 32.042 43.127-11.407 34.592 128.093-43.068 11.455zm73.523 186.442c11.884-3.17 24.126 3.863 27.285 15.64 3.218 11.777-3.862 23.959-15.735 27.058-11.92 3.16-24.114-3.826-27.332-15.603-3.16-11.777 3.862-23.96 15.782-27.095" style="fill:#dbdbdb"/>
</svg>
