<svg height="512" width="512" xmlns="http://www.w3.org/2000/svg">
    <path d="M213.849 64.253c-20.441 47.67-4.926 76.619.575 96.78l32.32-4.293c-6.834-25.044-18.601-53.852-2.036-92.487H213.85m246.744 80.133c-53.459 0-104.883 10.272-170.677 34.931l22.624 20.587c32.897-16.44 86.369-34.931 148.052-34.931v-20.586M51.417 162.89v26.741c20.561 6.165 65.794 12.31 106.923 12.31l4.117-22.625c-40.981-1.597-71.973-6.152-111.032-16.426m240.765 71.59-26.918 25.014c71.963 34.934 129.549 84.24 162.446 150.007l24.66-32.898c-32.575-48.836-82.243-98.649-160.18-142.115m-109.572 13.149c-1.102-.01-2.201.018-3.32.043-4.132.09-8.328.7-12.794 1.196-12.63 1.4-22.161 4.048-32.756 7.97-7.187 2.657-12.632 5.36-20.764 10.404S96.61 279.647 96.61 279.647l24.794 24.75s11.68-8.704 18.374-12.353c6.692-3.648 15.74-5.24 22.358-6.022 17.072-2.016 33.668 1.413 41.573 8.014 8.431 7.04 11.94 11.961 12.353 30.77-7.601-.308-15.4.17-23.952.399-7.643.205-23.188.558-29.575 1.593-17.015 2.762-35.39 5.626-53.129 17.186-9.45 6.156-17.143 15.425-21.207 25.945-4.583 11.841-5.628 25.82-1.992 37.988 3.784 12.666 12.35 25.021 23.597 31.966 21.616 8.557 49.8 10.718 70.307 3.586 11.434-4.127 20.44-7.58 30.771-19.57 1.675-1.944 3.087-5.372 5.18-8.81v29.176h43.167V326.807c-.479-25.587-10.65-48.397-28.778-63.534-16.562-11.175-31.297-15.476-47.816-15.627m23.774 109.134c1.796-.02 3.548-.011 5.27 0 .82.006 1.59-.01 2.39 0-.012.26.014.52 0 .798 0 0 2.064 33.546-16.381 45.115-18.446 11.57-26.443 11.918-39.939 9.607-9.41-1.61-20.192-6.827-23.997-15.584-3.053-7.029-.724-16.348 4.03-22.358 7.425-9.39 21.086-11.757 32.77-14.389 9.364-2.112 23.295-3.047 35.862-3.188" fill="#f4f4f7"/>
</svg>
