<svg xmlns="http://www.w3.org/2000/svg" width="48" height="48">
    <path d="M13.2 1.603a1.678 1.678 0 0 0-.985.52L7.18 7.157a1.678 1.678 0 1 0 2.381 2.354l2.189-2.19v16.883a1.678 1.678 0 0 0 0 .137 1.678 1.678 0 0 0 .11.657c.365 3.76 3.628 6.813 7.442 6.813 4.042 0 7.525-3.4 7.525-7.47 0-2.035-.938-3.87-2.299-5.254-1.36-1.382-3.178-2.353-5.226-2.353-1.591 0-3 .678-4.214 1.587V3.271a1.678 1.678 0 0 0-1.696-1.668 1.678 1.678 0 0 0-.192 0zM19.275 11.7c-.331-.002-.68 0-1.013.027a1.678 1.678 0 0 0-.137 0 1.695 1.695 0 1 0 .41 3.365c3.7-.294 7.644 2.034 9.167 5.418l.11.164c1.462 3.482.387 8.084-2.463 10.562-2.85 2.478-7.536 2.917-10.78.985-3.245-1.931-5.116-6.273-4.297-9.96a1.678 1.678 0 1 0-3.256-.711c-1.158 5.206 1.246 10.817 5.828 13.544l.11.055c4.567 2.64 10.598 2.07 14.584-1.395 4.025-3.5 5.43-9.449 3.366-14.366-1.936-4.61-6.666-7.672-11.63-7.688zm.027 8.372c.943 0 2.017.499 2.846 1.341.828.843 1.313 1.971 1.313 2.928 0 1.913-2.219 4.104-4.159 4.104s-4.214-2.191-4.214-4.104c0-.957.512-2.086 1.341-2.928.829-.842 1.93-1.34 2.873-1.34z" fill="#dbdbdb"/>
</svg>
