<svg height="512" width="512" xmlns="http://www.w3.org/2000/svg">
    <path d="M133.482 154.702v72h73.78v-72zm84.72 0v72h73.75v-72zm84.34 0v72h73.75v-72zm39.844 10.344c8.63 0 15.14 2.678 20.03 7.875l-5.625 5.344c-3.3-4.083-7.68-6.375-14.406-6.375-12.817 0-18.16 8.453-18.16 19.09 0 10.393 5.118 18.531 18.13 18.531 6.726 0 11.11-2.23 14.47-6.375l5.53 5.281c-4.886 5.258-11.434 7.938-20 7.938-17.13 0-25.969-10.28-25.969-25.375 0-15.16 9.185-25.938 26-25.938m-189.69.625h20.06c9.09 0 13.47 6.451 13.47 13.812 0 4.392-1.356 7.555-4.439 9.906v.156c4.076 1.794 6.281 6.182 6.281 11.688 0 8.97-5.292 14.562-14.906 14.562h-20.469v-50.12m84.72.001h20.03c9.09 0 13.5 6.451 13.5 13.812 0 4.392-1.355 7.555-4.438 9.906v.156c4.076 1.794 6.281 6.182 6.281 11.688 0 8.97-5.292 14.562-14.906 14.562h-20.469v-50.12m-79.09 6.844.625.75v12.562l-.625.72h13.906c5.696 0 7.563-3.167 7.563-7.126 0-4.578-2.389-6.906-7.563-6.906zm84.72 0 .656.75v12.562l-.656.72h13.875c5.696 0 7.594-3.167 7.594-7.126 0-4.578-2.42-6.906-7.594-6.906zm-84.72 20.906.625.72v14l-.625.75h14.844c6.27 0 8.47-2.77 8.47-7.657 0-4.764-2.46-7.813-8.47-7.813zm84.72 0 .656.72v14l-.656.75h14.844c6.27 0 8.47-2.77 8.47-7.657 0-4.764-2.46-7.813-8.47-7.813zm155.66 68.875c-8.887 0-16.239 2.108-21.844 6.406-5.574 4.31-8.438 10.304-8.438 17.562 0 6.683 1.898 12.311 5.72 16.656 3.824 4.308 10.02 7.898 18.53 10.938 5.873 2.092 10.232 3.943 13 5.531v.031c2.818 1.594 4.734 3.252 5.813 4.906 1.072 1.645 1.656 3.82 1.656 6.594 0 4.12-1.485 7.103-4.625 9.438-3.1 2.306-7.915 3.594-14.53 3.594-3.868 0-8.08-.458-12.595-1.375-4.473-.916-8.586-2.167-12.344-3.75l-1.813-.78v13.5l.75.344c6.15 2.928 14.638 4.313 25.5 4.313 10.361 0 18.623-2.25 24.625-6.938 5.994-4.68 9.06-11.256 9.06-19.312 0-4.297-.842-8.07-2.53-11.25-1.684-3.21-4.27-6.01-7.72-8.375-3.472-2.424-8.576-4.798-15.375-7.25-5.582-2.01-9.649-3.815-12.156-5.313-2.473-1.5-4.222-3.076-5.28-4.75-.006-.008.004-.024 0-.03-1-1.695-1.532-3.864-1.532-6.595 0-3.77 1.283-6.458 4-8.5 2.766-2.05 6.684-3.156 11.875-3.156 6.492 0 13.567 1.546 21.22 4.656l1.22.5.468-1.25 3.563-9.625.406-1.156-1.125-.469c-7.78-3.397-16.286-5.094-25.5-5.094zm-310.84 1.281v91.41h13.155v-50.937c0-5.467-.252-11.888-.75-19.28l-.063-.876 46.44 70.53.375.563h14.03v-1.28h1.313v-90.12h-13.28v51.41c0 2.713.127 7.06.375 13.06.153 3.673.222 4.65.313 6.437l-13.719-20.938-29.78-45.06v-.03l-2.782-4.282-.375-.594h-15.25m96.5 0v91.41h51.968v-1.28h1.313v-11.157h-39.25v-29.09h36.968v-12.344h-36.968v-25.09h39.25v-12.437h-53.28m59.5 0 .47 1.625 24 88.84.25.938h13.5l.28-.906 17.13-57.844a154.845 154.845 0 0 0 3.156-11.969c.79 3.093 1.844 6.811 3.281 11.594l17.656 58.22.281.906h12.5v-1.28l1.281.343 24.09-88.84.47-1.625h-14.626l-.25.97-14.03 54.13a195.983 195.983 0 0 0-3.219 14.28c-1.01-4.866-2.166-9.714-3.625-14.469l-16.688-54-.28-.906h-13.72l-.28.906-16 53.594c-1.522 5.19-2.643 10.02-3.564 14.688-.862-4.648-1.838-9.288-3.094-13.969l-14.09-54.25-.25-.969h-14.625" fill="#dbdbdb"/>
</svg>
