<svg height="64" viewBox="0 0 16.933 16.933" width="64" xmlns="http://www.w3.org/2000/svg"><path d="m1.852 5.82a.264.264 0 0 0 -.265.265v6.88c0 .146.119.264.265.264h2.118v1.58c0 .194.074.304.264.264l2.075-1.844h6.657a.264.264 0 0 0 .264-.264v-6.88a.264.264 0 0 0 -.264-.264h-11.114z" fill="#5ca4ed" stroke="#2f87e1" stroke-width=".529"/><path d="m1.852 5.82a.264.264 0 0 0 -.265.265v6.88c0 .146.119.264.265.264h2.118v1.58c0 .194.074.304.264.264l2.075-1.844h6.657a.264.264 0 0 0 .264-.264v-6.88a.264.264 0 0 0 -.264-.264h-11.114z" fill="#5ca4ed"/><g fill="#a0ecff" opacity=".9"><path d="m6.085 1.852a.264.264 0 0 0 -.264.265v5.291c0 .147.118.265.264.265h4.077l1.48 1.315c.19.04.264-.07.264-.264v-1.051h3.175a.264.264 0 0 0 .265-.265v-5.291a.264.264 0 0 0 -.265-.265z" stroke="#4ec2de" stroke-width=".529"/><path d="m6.085 1.852a.264.264 0 0 0 -.264.265v5.291c0 .147.118.265.264.265h4.077l1.48 1.315c.19.04.264-.07.264-.264v-1.051h3.175a.264.264 0 0 0 .265-.265v-5.291a.264.264 0 0 0 -.265-.265z"/></g></svg>