<svg height="512" width="512" xmlns="http://www.w3.org/2000/svg">
    <path d="M210.886 69.8c-93.249 0-168.8 77.498-168.8 173.091 0 95.595 75.576 173.092 168.837 173.092h216.92a267.234 267.234 0 0 0 24.688-32.476H210.925c-75.758 0-137.2-62.95-137.2-140.614 0-77.665 61.43-140.651 137.2-140.651V69.804h-.038zm.038 43.263c-69.937 0-126.6 58.133-126.6 129.821 0 71.692 56.657 129.785 126.6 129.785h248.218a265.022 265.022 0 0 0 15.99-32.438H210.92c-52.458 0-94.999-43.576-94.999-97.344 0-53.77 42.533-97.382 95-97.382 12.744 0 24.868 2.628 35.969 7.293l12.002-30.082a123.699 123.699 0 0 0-47.972-9.648zm0 43.262c-46.624 0-84.4 38.77-84.4 86.564 0 47.791 37.763 86.527 84.4 86.527h268.394a263.859 263.859 0 0 0 9.382-32.475H210.935c-29.14 0-52.714-24.18-52.714-54.05 0-29.873 23.58-54.088 52.726-54.088 14.57 0 27.755 6.09 37.3 15.874l22.41-22.98c-15.837-16.228-37.315-25.372-59.703-25.372z" fill="#f4f4f7"/>
</svg>
