<svg height="512" width="512" xmlns="http://www.w3.org/2000/svg">
    <path d="m206.265 291.765 38.61-33.056 60.864-52.116-44.208-40.961v180.755l39.662-39.008-91.026-80.629" fill="none" stroke="#dbdbdb" stroke-linecap="round" stroke-linejoin="round" stroke-width="15.927"/>
    <g fill="#dbdbdb">
        <path d="M148.9 148.68c-59.088 59.208-59.267 155.512-.258 214.638l28.1-28.147c-43.832-43.917-43.63-114.353.257-158.33L148.9 148.693m186.113 27.895c43.832 43.917 44.147 114.875.258 158.852l28.099 28.148c59.088-59.207 58.75-156.034-.258-215.16l-28.099 28.148"/>
        <path d="m412.107 99.213-30.182 30.219c30.42 32.03 49.128 75.344 49.128 123.002 0 49.386-20.035 94.09-52.432 126.416l33.826 33.94c86.114-86.29 85.658-227.405-.341-313.574m-312.214.38c-86.114 86.29-86.338 226.653-.341 312.821l30.105-30.219c-34.408-32.56-55.883-78.65-55.883-129.757 0-49.386 20.034-94.125 52.433-126.452L99.897 99.604"/>
    </g>
</svg>
