<svg height="64" width="64" xmlns="http://www.w3.org/2000/svg" xmlns:xlink="http://www.w3.org/1999/xlink"><filter id="a" color-interpolation-filters="sRGB" height="1.054" width="1.054" x="-.027" y="-.027"><feGaussianBlur stdDeviation=".61875"/></filter><linearGradient id="b" gradientUnits="userSpaceOnUse" x1="4.5" x2="59.5" y1="59.49" y2="4.49"><stop offset="0" stop-color="#32d7ff"/><stop offset="1" stop-color="#329bff"/></linearGradient><rect fill="#141414" filter="url(#a)" height="55" opacity=".3" ry="15" stroke-linecap="round" stroke-width="2.7444" width="55" x="4.5" y="4.5"/><rect fill="url(#b)" height="55" ry="15" stroke-linecap="round" stroke-width="2.7444" width="55" x="4.5" y="4.5"/><g fill="#5e4aa6" stroke-width="1.000007"><circle cx="-1313.93956" cy="-1241.14522" r="0"/><circle cx="-214.401006" cy="24.340452" fill-rule="evenodd" r="0"/><circle cx="-1248.693081" cy="-1241.120653" r="0"/><circle cx="-1179.753177" cy="-1233.070105" r="0"/><circle cx="-1156.735413" cy="-1258.846977" r="0"/><circle cx="-1167.393885" cy="-1232.163001" r="0"/></g><path d="m428.57 503.8c0-.0562-.6399.38104-1.4225.97118-7.3615 5.5516-16.563 10.407-21.715 11.458l-.97136.19856-.36828.96714c-1.2831 3.3731-4.9305 5.7652-10.649 6.9833-.90345.19249-1.8727.46695-2.1536.60977-.86789.44125-1.8763 1.4508-2.3322 2.3354-.36832.71434-.4253 1.0224-.36966 1.9908.0468.81502.15926 1.2467.38952 1.4968.30965.33644 1.0815.51291.88648.20258-.15336-.24405.5733-1.022 1.2918-1.3824 1.1633-.58348 2.9706-.85926 4.8616-.83384.33764.006.74383.0207 1.024.0424 1.4161.1002 2.8238.36707 3.9923.80359.6283.23474 1.1604.51628 1.5922.8332 1.6123.82581 2.9686 1.9003 4.1079 3.141.00097-.0412.005-.0804.005-.12243.007-.81564.0356-1.483.0615-1.4834.026-.00032.12875.20861.22794.46506.24052.62104.36584 1.2748.3895 1.9322 2.1626 2.6856 3.4414 5.9942 4.1922 9.1881 1.0007-1.7048 1.9488-3.9594 1.953-4.8801.006-1.3629.9667 1.3124 1.2698 3.5374l.20949 1.5406.37992-.93281c.63507-1.5598.93332-3.1907.9351-5.1116.00096-.99294-.0494-1.9657-.11297-2.1618-.0632-.1961-.0461-.3567.0386-.3567.20796 0 1.862 1.6571 2.2857 2.2896.39983.59683.43017.33618.10195-.87561-.86789-3.2047-3.3572-6.224-6.9091-8.3805l-1.3725-.83319.68317-.02c.37544-.0109.91544-.0718 1.2-.13525l.51748-.11512-.69-.23085-.69-.23153 1.1055-.22208c.60819-.12215 1.6565-.47825 2.3288-.79148l1.2219-.56939-1.5519.0605-1.5525.0605 1.2075-.40048c1.68-.55746 4.9031-2.2213 4.6967-2.4242-.0291-.029-.63253.0958-1.3403.27662-2.0809.53127-2.3006.4149-.67427-.35737 1.5832-.7518 3.8113-2.1663 4.9061-3.1148l.69003-.59764-1.2931.57341c-1.0985.48707-3.6058 1.2875-4.0334 1.2875-.0721 0 .36979-.25649.98163-.57003 1.7518-.89773 3.3349-2.0866 5.2929-3.9735l1.8113-1.7458-1.4656.76119c-1.3862.71948-4.312 2.0118-4.312 1.9047 0-.0272.36884-.30606.81941-.61919 1.7484-1.215 4.8436-4.4253 6.6756-6.9234l.66542-.90659-1.6313 1.2532c-1.7416 1.3385-5.2987 3.6071-5.4394 3.4688-.0463-.0456.12677-.21943.38473-.38566.7616-.49062 4.114-4.2137 5.9569-6.6151.94006-1.225 1.7093-2.2732 1.7093-2.3294z" fill="#fff" transform="translate(-376.57 -491.8)"/><g fill="#5e4aa6"><circle cx="-1201.7543" cy="-1291.278" r="0"/><g stroke-width="1.00001"><circle cx="-1083.3002" cy="-1330.5769" r="0"/><circle cx="16.237535" cy="-65.08638" fill-rule="evenodd" r="0"/><circle cx="-1004.798" cy="-1402.087" r="0"/><circle cx="94.736801" cy="-136.55975" fill-rule="evenodd" r="0"/></g></g></svg>