<svg width="512" height="512" xmlns="http://www.w3.org/2000/svg">
    <path d="M247.72 411.72V173.6h-52.916v238.12m-13.229-251.35L62.515 94.225v224.89l119.06 79.374m198.43-79.374V94.225l-119.06 66.145v238.12m92.603-304.27c-52.916 0-79.374 6.88-132.29 52.916-52.916-44.912-79.374-52.916-132.29-52.916l105.83 66.145h52.916M419.72 348.52l-1.958-80.37c-12.931-5.324-22.2-17.722-22.561-32.547-.362-14.825 8.335-27.966 20.917-33.886l.774 30.741c.32 15.232 29.361 14.525 28.99-.706l-.774-30.741c4.106 1.728 7.796 4.102 10.914 6.973 7.017 6.534 11.553 15.467 11.828 25.696.335 14.8-8.414 27.89-21.021 33.787l1.958 80.37c-2.367 15.45-26.396 15.426-28.99.706" fill="#dbdbdb"/>
</svg>
