<svg height="64" viewBox="0 0 16.933 16.933" width="64" xmlns="http://www.w3.org/2000/svg" xmlns:xlink="http://www.w3.org/1999/xlink"><filter id="a" color-interpolation-filters="sRGB" height="1.054" width="1.054" x="-.027" y="-.027"><feGaussianBlur stdDeviation=".61875"/></filter><linearGradient id="b" gradientUnits="userSpaceOnUse" x1="6.82107" x2="21.37352" y1="26.6504" y2="12.09795"><stop offset="0" stop-color="#dee0e2"/><stop offset="1" stop-color="#f1f3f5" stop-opacity=".99608"/></linearGradient><linearGradient id="c" gradientUnits="userSpaceOnUse" x1="6.82234" x2="21.37424" y1="16.10284746" y2="12.0979"><stop offset="0" stop-color="#ffc63f"/><stop offset="1" stop-color="#ffc63f"/></linearGradient><linearGradient id="d" gradientUnits="userSpaceOnUse" x1="9.271504345" x2="12.6740095" y1="20.57832488" y2="17.1550271"><stop offset="0" stop-color="#ffc841"/><stop offset=".5167" stop-color="#ffbe37"/><stop offset="1" stop-color="#ffc841"/></linearGradient><filter id="e" color-interpolation-filters="sRGB" height="1.168" width="1.168" x="-.084016" y="-.084016"><feGaussianBlur stdDeviation=".30215974"/></filter><linearGradient id="f" gradientUnits="userSpaceOnUse" x1="12.1483" x2="20.0275" y1="24.8462" y2="16.738"><stop offset="0" stop-color="#f5f5f5"/><stop offset="1" stop-color="#fff"/></linearGradient><linearGradient id="g" gradientUnits="userSpaceOnUse" x1="12.4847" x2="19.4885" y1="25.0858" y2="18.449"><stop offset="0" stop-color="#ffdc96"/><stop offset="1" stop-color="#fff"/></linearGradient><g transform="translate(-5.6318 -10.91)"><g stroke-linecap="round"><rect fill="#141414" filter="url(#a)" height="55" opacity=".3" ry="15" stroke-width="2.7444" transform="matrix(.26458 0 0 .26458 5.6318 10.91)" width="55" x="4.5" y="4.5"/><rect fill="url(#b)" height="14.552" image-rendering="optimizeSpeed" ry="3.9688" stroke-width=".72612" width="14.552" x="6.8223" y="12.101"/><path d="m10.791 12.101c-2.1987 0-3.9687 1.7701-3.9687 3.9688v.03359h14.552v-.03359c0-2.1987-1.7701-3.9688-3.9688-3.9688z" fill="url(#c)" stroke-width=".72611"/></g><g fill="#f08705"><path d="m9.4273 21.421c-.0061.03965-.00987.081-.015719.12163h9.3737c-.0055-.04063-.0096-.08201-.01633-.12163z" opacity=".6" stroke-width=".71515"/><path d="m9.4273 23.345c-.0061.03965-.00987.081-.015719.12163h9.3737c-.0055-.04063-.0096-.08201-.01633-.12163z" opacity=".6" stroke-width=".71515"/><path d="m9.4216 25.269c-.00387.03965-.00625.081-.00997.12163h5.943c-.0035-.04063-.0061-.08201-.01036-.12163z" opacity=".6" stroke-width=".56944"/></g><path d="m16.074 17.126c1.0468 0 1.1964.15988 1.1964 1.2804v.89734c0 1.1205-.1496 1.2804-1.1964 1.2804h-5.6395c-1.0468 0-1.1964-.15988-1.1964-1.2804v-.89734c0-1.1205.1496-1.2804 1.1964-1.2804z" fill="url(#d)" stroke-width=".23764"/><path d="m11.27 17.399c-.29316 0-.52917.23601-.52917.52917v1.8521c0 .29316.23601.52917.52917.52917h3.9688c.29316 0 .52917-.23601.52917-.52917v-1.8521c0-.29316-.23601-.52917-.52917-.52917zm0 .26458h3.9688c.14658 0 .26458.118.26458.26458v1.8521c0 .14658-.118.26458-.26458.26458h-3.9688c-.14658 0-.26458-.118-.26458-.26458v-1.8521c0-.14658.118-.26458.26458-.26458zm0 .26458v1.8521h.52917v-1.1038l.52917.52917.52917-.52917v1.1038h.52917v-1.8521h-.52917l-.52917.52917-.52917-.52917zm2.9104 0v1.0583h-.52917l.79375.79375.79375-.79375h-.52917v-1.0583z" fill="#fff" stroke-width=".26458"/><path d="m8.8145-5.537s-.19283-.13005-.19283-.19731c0-.067264.5286-1.9107.58567-2.0122.057077-.10147 6.1025-6.1025 6.1025-6.1025s.27603-.21726.44643-.08272c.17041.13453.74406.74406.74406.74406z" fill="#f08705" filter="url(#e)" opacity=".5" transform="matrix(.98857 0 0 .9511 3.7825 30.202)"/><path d="m8.8145-5.537s.13005.19283.19731.19283c.067264 0 1.9107-.5286 2.0122-.58567.10147-.057077 6.1025-6.1025 6.1025-6.1025s.21725-.27603.08272-.44643c-.13453-.17041-.74406-.74406-.74406-.74406z" fill="#f08705" filter="url(#e)" opacity=".5" transform="matrix(.98857 0 0 .9511 3.7825 30.202)"/><path d="m12.377 24.904s-.19283-.13005-.19283-.19731c0-.06727.52861-1.9107.58568-2.0122.05708-.10147 6.1026-6.1026 6.1026-6.1026s.27604-.21726.44644-.08272c.17041.13453.74407.74408.74407.74408z" fill="url(#f)"/><path d="m12.377 24.904s.13005.19283.19731.19283c.06727 0 1.9107-.52861 2.0122-.58568.10147-.05708 6.1026-6.1026 6.1026-6.1026s.21725-.27604.08272-.44644c-.13453-.17041-.74407-.74408-.74407-.74408z" fill="url(#g)"/></g></svg>