<svg xmlns="http://www.w3.org/2000/svg" width="48" height="48">
    <path d="M6.13 2a.625.625 0 0 0-.63.635v42.73c0 .357.276.635.63.635h35.74c.354 0 .63-.278.63-.635V2.635A.625.625 0 0 0 41.87 2H6.13zm3.364 3.385h29.012c.354 0 .63.278.63.634v8.885c-5.82-5.064-10.21-1.848-13.77 4.654 3.668-2.118 8.037-2.666 13.77-2.715v10.154c-13.168 5.305-23.838 2.034-30.272 1.622v-9.837c3.954-.87 8.616-.823 12.999.317-4.066-5.687-8.35-7.254-13-3.102V6.019c0-.356.277-.634.631-.634zm29.642 28.522v8.074a.625.625 0 0 1-.63.634H9.494a.625.625 0 0 1-.63-.634v-6.805c11.854 9.376 22.304 5.273 30.272-1.269z" fill="#dbdbdb"/>
</svg>
