<svg width="64" height="64" xmlns="http://www.w3.org/2000/svg"><rect x="6" y="6" width="52" height="52" rx="3" ry="3" fill="#388e3c" stroke="#27652b" stroke-width="2"/><rect x="6" y="6" width="52" height="52" rx="3" ry="3" fill="#388e3c"/><path d="M16 37 6 45v3l6-4v2l-6 4h4v8h6V47l6-5h3l-6 5v11h36c1.662 0 3-1.338 3-3v-7.092L51 39h-2l-2-2H16z" fill="#43a047" fill-rule="evenodd"/><g transform="translate(-5 3)"><circle cx="58.5" cy="50.5" r="1.5" fill="#fbc02d"/><circle cx="58.5" cy="50.5" r=".5" fill="#263238"/></g><g transform="translate(-5 -1)"><circle cx="58.5" cy="11.5" r="1.5" fill="#fbc02d"/><circle cx="58.5" cy="11.5" r=".5" fill="#263238"/></g><g transform="translate(5 3)"><circle cx="5.5" cy="50.5" r="1.5" fill="#fbc02d"/><circle cx="5.5" cy="50.5" r=".5" fill="#263238"/></g><path d="M9 6c-.353 0-.686.07-1 .182V18l-2 2v2l3 3h38l7-8h4v-1h-4v-4l-8 9h-3l8-9V6z" fill="#43a047" fill-rule="evenodd"/><path d="M21 22h2v20h-2zm4 0h2v20h-2zm4 0h2v20h-2zm4 0h2v20h-2zm4 0h2v20h-2zm4 0h2v20h-2z" fill="#fbc02d" fill-rule="evenodd" style="paint-order:fill markers stroke"/><rect x="18" y="24" width="28" height="16" ry="1" fill="#263238"/><rect x="10" y="13" width="17" height="6" ry="1" fill="#263238"/><rect x="37" y="44" width="17" height="6" ry="1" fill="#eceff1"/><rect x="38" y="45" width="9" height="1" ry="0" fill="#37474f"/><path d="M38 47h5v1h-5z" fill="#37474f"/><path d="m49 49 2-3 2 3z" fill="#37474f" fill-rule="evenodd"/><g transform="translate(.318 .049)"><circle cx="10.182" cy="10.451" r="1.5" fill="#fbc02d"/><circle cx="10.182" cy="10.451" r=".5" fill="#263238"/></g><path fill="#fff" opacity=".5" style="paint-order:stroke fill markers" d="M11 14h4v1h-4zM11 16h8v1h-8zM22 16h3v2h-3z"/><path d="m37.593 26-4.34 5.84L37.819 38h-2.325L32 33.286 28.507 38h-2.325l4.66-6.279L26.58 26h2.325l3.182 4.275L35.268 26z" fill="#fff" opacity=".75" aria-label="x"/></svg>