<svg xmlns="http://www.w3.org/2000/svg" height="512" width="512">
    <clipPath id="a"/>
    <g clip-path="url(#a)" style="fill:#dbdbdb;fill-opacity:1" transform="matrix(12.61801 0 0 10.7752 -44.663 -24.184)">
        <path d="M8 13.996h2c.551 0 1 .449 1 1v2a1 1 0 0 1-1 1H8a1 1 0 0 1-1-1v-2c0-.551.449-1 1-1m6 0h2c.551 0 1 .449 1 1v2a1 1 0 0 1-1 1h-2a1 1 0 0 1-1-1v-2c0-.551.449-1 1-1m6 0h2c.551 0 1 .449 1 1v2a1 1 0 0 1-1 1h-2a1 1 0 0 1-1-1v-2c0-.551.449-1 1-1m6 0h2c.551 0 1 .449 1 1v2a1 1 0 0 1-1 1h-2a1 1 0 0 1-1-1v-2c0-.551.449-1 1-1m6 0h2c.551 0 1 .449 1 1v2a1 1 0 0 1-1 1h-2a1 1 0 0 1-1-1v-2c0-.551.449-1 1-1m6 0h2c.551 0 1 .449 1 1v2a1 1 0 0 1-1 1h-2a1 1 0 0 1-1-1v-2c0-.551.449-1 1-1m-30 6h2c.551 0 1 .449 1 1v2a1 1 0 0 1-1 1H8a1 1 0 0 1-1-1v-2c0-.551.449-1 1-1m6 0h2c.551 0 1 .449 1 1v2a1 1 0 0 1-1 1h-2a1 1 0 0 1-1-1v-2c0-.551.449-1 1-1m6 0h2c.551 0 1 .449 1 1v2a1 1 0 0 1-1 1h-2a1 1 0 0 1-1-1v-2c0-.551.449-1 1-1m6 0h2c.551 0 1 .449 1 1v2a1 1 0 0 1-1 1h-2a1 1 0 0 1-1-1v-2c0-.551.449-1 1-1m6 0h2c.551 0 1 .449 1 1v2a1 1 0 0 1-1 1h-2a1 1 0 0 1-1-1v-2c0-.551.449-1 1-1m6 0h2c.551 0 1 .449 1 1v2a1 1 0 0 1-1 1h-2a1 1 0 0 1-1-1v-2c0-.551.449-1 1-1m-30 6h2c.551 0 1 .449 1 1v2a1 1 0 0 1-1 1H8a1 1 0 0 1-1-1v-2c0-.551.449-1 1-1m6 0h2c.551 0 1 .449 1 1v2a1 1 0 0 1-1 1h-2a1 1 0 0 1-1-1v-2c0-.551.449-1 1-1m6 0h2c.551 0 1 .449 1 1v2a1 1 0 0 1-1 1h-2a1 1 0 0 1-1-1v-2c0-.551.449-1 1-1m6 0h2c.551 0 1 .449 1 1v2a1 1 0 0 1-1 1h-2a1 1 0 0 1-1-1v-2c0-.551.449-1 1-1m6 0h2c.551 0 1 .449 1 1v2a1 1 0 0 1-1 1h-2a1 1 0 0 1-1-1v-2c0-.551.449-1 1-1m6 0h2c.551 0 1 .449 1 1v2a1 1 0 0 1-1 1h-2a1 1 0 0 1-1-1v-2c0-.551.449-1 1-1m-24 6h20c.551 0 1 .449 1 1v2a1 1 0 0 1-1 1H14a1 1 0 0 1-1-1v-2c0-.551.449-1 1-1m0 0" style="fill:#dbdbdb;fill-opacity:1"/>
    </g>
</svg>
