<svg height="64" viewBox="0 0 64 64" width="64" xmlns="http://www.w3.org/2000/svg" xmlns:xlink="http://www.w3.org/1999/xlink"><filter id="a" color-interpolation-filters="sRGB" height="1.054" width="1.054" x="-.027" y="-.027"><feGaussianBlur stdDeviation=".61875"/></filter><linearGradient id="b" gradientUnits="userSpaceOnUse" x1="4.5" x2="59.5" y1="59.4899" y2="4.4899"><stop offset="0" stop-color="#323741"/><stop offset="1" stop-color="#465064"/></linearGradient><linearGradient id="c" gradientUnits="userSpaceOnUse" x1="-60.565" x2="-60.565" y1="29.506249" y2="20.777499"><stop offset="0" stop-color="#5894db"/><stop offset="1" stop-color="#669fe7"/></linearGradient><linearGradient id="d" gradientUnits="userSpaceOnUse" x1="-84.103232" x2="-83.665984" y1="35.692864" y2="17.793024"><stop offset="0" stop-color="#5894db"/><stop offset="1" stop-color="#80b3ff"/></linearGradient><linearGradient id="e" gradientUnits="userSpaceOnUse" x1="-83.597664" x2="-83.597664" y1="59.2496" y2="1.10928"><stop offset="0" stop-color="#3889e9"/><stop offset="1" stop-color="#5ea5fb"/></linearGradient><circle cx="-81.515" cy="30.183" fill="url(#e)" r="0" stroke-width="1.3664"/><rect fill="#141414" filter="url(#a)" height="55" opacity=".3" ry="15" stroke-linecap="round" stroke-width="2.7444" transform="translate(-.000228 -.000228)" width="55" x="4.5" y="4.5"/><rect fill="url(#b)" height="55.001" ry="15" stroke-linecap="round" stroke-width="2.7444" width="55.001" x="4.4975" y="4.4998"/><g transform="matrix(.91864 0 0 .91864 107.06 3.4876)"><path d="m-61.85 29.285c0-1.512.19332-1.5415 1.126-2.118 1.0662-.65895 1.0761-.9114-.17055-1.3389-.74262-.2547-1.0889-.47508-1.6122-2.2877l.65674 5.7446z" fill="url(#c)" stroke-width="1.25"/><path d="m-74.889 15.098c-2.1999-.0764-4.7161.28388-6.1987.97661-6.0815 2.5344-9.1452 13.221-15.574 12.595-2.2368-.26492-3.9719-1.434-5.3003-3.5718-2.088.66961-1.7981 5.7922-.50293 8.4546 5.2101 10.71 14.881 15.336 25.806 12.72 8.4454-2.5258 14.079-8.926 14.81-16.987.33834-2.5892.2832-3.1423-.65674-5.7446-2.8712-5.773-7.7652-8.2548-12.383-8.4424zm3.1812 5.8496c1.0355 0 1.875.83947 1.875 1.875 0 1.0355-.83947 1.875-1.875 1.875s-1.875-.83947-1.875-1.875c0-1.0355.83947-1.875 1.875-1.875zm.63721.74707c-.34518 0-.625.27982-.625.625s.27982.625.625.625.625-.27982.625-.625-.27982-.625-.625-.625z" fill="#fff" stroke-width="1.25"/><path d="m-87.611 36.22c-1.418-.13445-4.6764-.81122-5.6009-1.1633l-.80638-.30708 2.2311-1.0857c1.865-.90754 2.4373-1.3536 3.4874-2.7183 1.3883-1.8041 2.6307-2.4073 4.3099-2.0923 1.3083.24543 2.69 1.7397 2.8494 3.0816.15546 1.3088-.74235 3.0047-1.9502 3.6838-.86206.48466-2.8963.75524-4.5204.60126z" fill="url(#d)" stroke-width="1.3664"/></g></svg>