<svg height="512" width="512" xmlns="http://www.w3.org/2000/svg">
    <path d="M246.23 97.823a2.58 2.58 0 0 0-.46.07l-28.443 6.925a2.7 2.7 0 0 0-2.05 2.615l12.537 57.87.496.283a95.4 95.4 0 0 1 30.382-4.946c48 0 87.76 35.328 94.68 81.396l58.503-12.825a2.653 2.653 0 0 0 1.448-3.038l-6.925-28.444a2.701 2.701 0 0 0-2.614-2.05l-46.701-.034a103.698 103.698 0 0 0-14.556-20.808l15.227-42.853a2.674 2.674 0 0 0-1.13-3.18l-25.052-15.192a2.627 2.627 0 0 0-3.25.39l-31.478 31.406c-9.332-2.98-18.9-4.632-28.443-4.911l-19.445-41.16a2.7 2.7 0 0 0-2.155-1.519 2.306 2.306 0 0 0-.459 0m-92.362 41.901a2.688 2.688 0 0 0-1.625.778l-20.703 20.702a2.681 2.681 0 0 0-.389 3.286l24.27 39.918a103.561 103.561 0 0 0-10.208 23.246l-44.519 9.257a2.66 2.66 0 0 0-2.12 2.615v29.286c0 1.238.821 2.326 2.014 2.615l43.208 10.528c2.302 9.523 5.88 18.554 10.598 26.85L129.5 346.954a2.664 2.664 0 0 0 .353 3.357l20.703 20.702a2.687 2.687 0 0 0 3.285.39l39.997-44.226v-.636c-18.893-17.487-30.772-42.426-30.772-70.193 0-30.806 14.6-58.13 37.2-75.637l-44.507-40.557a2.723 2.723 0 0 0-1.767-.424m198.165 137.243c-9.44 42.942-47.696 75.11-93.481 75.11a95.344 95.344 0 0 1-34.198-6.324l-.282.177-15.297 57.87a2.649 2.649 0 0 0 1.978 2.72l28.263 7.596c1.191.317 2.479-.188 3.074-1.272l22.468-40.947a103.54 103.54 0 0 0 25.225-2.756l30.241 33.949c.841.945 2.255 1.164 3.357.53L348.87 389a2.686 2.686 0 0 0 1.236-3.074l-12.435-42.676c7.1-6.75 13.149-14.345 17.982-22.575l45.502 2.614a2.688 2.688 0 0 0 2.755-1.978l7.596-28.262c.318-1.189-.189-2.473-1.272-3.074l-58.073-13.001" fill="#f4f4f7" fill-rule="evenodd"/>
</svg>
