<svg xmlns="http://www.w3.org/2000/svg" width="48" height="48">
    <path d="M5.033 5.78C3.4 5.78 2 6.943 2 8.475v30.694c0 1.532 1.4 2.695 3.033 2.695h37.922c1.633 0 3.045-1.163 3.045-2.695V8.475c0-1.532-1.412-2.695-3.045-2.695H5.033zm6.01 2.898H36.98c.824 0 1.477.664 1.477 1.488v16.88c0 .825-.653 1.49-1.477 1.49H11.044a1.486 1.486 0 0 1-1.489-1.49v-16.88c0-.824.664-1.488 1.489-1.488zm.748.714c-.824 0-1.489.665-1.489 1.49v1.393h27.419V10.88c0-.824-.665-1.489-1.49-1.489h-24.44zm4.022 5.68v3.213a2.497 2.497 0 0 0-.88-.609 2.832 2.832 0 0 0-1.093-.203c-.824 0-1.504.299-2.04.891-.534.592-.802 1.443-.802 2.56 0 .998.24 1.85.722 2.548.486.698 1.191 1.049 2.109 1.049.456 0 .868-.099 1.24-.293.28-.148.598-.434.936-.857v.992h2.413v-9.292h-2.605zm4.206 0v9.291h2.414v-.992c.334.418.64.704.924.857.377.194.788.293 1.24.293a2.64 2.64 0 0 0 1.444-.417c.436-.28.78-.694 1.026-1.252.245-.562.361-1.215.361-1.95 0-1.104-.264-1.95-.8-2.538-.538-.592-1.221-.89-2.042-.89-.397 0-.764.067-1.093.202-.326.135-.61.338-.869.61V15.07H20.02zm8.187 0 2.92 4.453-3.213 4.838h3.214l1.838-2.988 1.838 2.988h3.225l-3.169-4.792 2.898-4.5h-3.135l-1.601 2.853-1.646-2.853h-3.169zm-13.565 4.33c.342 0 .633.132.857.394.224.258.327.656.327 1.184 0 .584-.107 1.005-.327 1.263-.22.258-.494.383-.823.383-.31 0-.567-.13-.779-.383-.207-.258-.315-.657-.315-1.207 0-.587.101-1.002.304-1.251.203-.25.455-.384.756-.384zm9.156 0c.292 0 .541.133.744.383.207.25.305.64.305 1.173 0 .604-.105 1.027-.316 1.285a.971.971 0 0 1-.778.383c-.334 0-.603-.125-.823-.383-.216-.262-.327-.684-.327-1.263 0-.528.107-.926.327-1.184.224-.262.517-.395.868-.395zm-20.68 16.71h41.755v3.057c0 .834-.8 1.578-1.917 1.578H5.033c-1.116 0-1.917-.744-1.917-1.578v-3.056zm3.461.283v4.014h10.104v-4.014H6.578zm12.393.067v4.015h10.092v-4.015H18.971zm12.246 0v4.015H41.32v-4.015H31.217z" fill="#f4f4f7"/>
</svg>
