<svg xmlns="http://www.w3.org/2000/svg" width="48" height="48">
    <path d="m32.469 3.625-8.844 7.438L15.094 4 2.469 11.938l8.25 6.906-8.375 7.375 8.531 5.406-.125 4.563 13.469 7.718 12.625-8.125-.094-3.531 8.906-5.906-8.593-7.313 8.593-7.531L32.47 3.625zM27 16.188c4.726 1.596 7.284 6.773 5.688 11.5a8.967 8.967 0 0 1-2.532 3.812l.938 1.406-6.375.469 2.812-5.75.907 1.375a6.045 6.045 0 0 0-2.407-9.969L27 16.188zm-3.688.093-2.53 5.875-1.095-1.5c-.576.61-1.055 1.333-1.343 2.188a6.047 6.047 0 0 0 3.812 7.687l-.968 2.844c-4.727-1.597-7.285-6.774-5.688-11.5.488-1.444 1.336-2.672 2.375-3.656l-.938-1.188 3.125-.375 3.25-.375z" fill="#dbdbdb"/>
</svg>
