<svg xmlns="http://www.w3.org/2000/svg" width="48" height="48">
    <path d="M.376.376c5.803 6.112 3.285 10.022 6.469 17.22 2.954 6.681 9.386 1.68 13.79 6.404-4.404 4.723-10.857-.3-13.812 6.381-3.184 7.2-.644 11.13-6.447 17.243 6.112-5.803 10.044-3.263 17.243-6.447 6.68-2.955 1.68-9.386 6.403-13.79 4.69 4.404-.291 10.86 6.381 13.812 7.2 3.185 11.108.62 17.221 6.425-5.804-6.113-3.24-10.02-6.425-17.22-2.951-6.673-9.386-1.715-13.79-6.404 4.404-4.69 10.839.27 13.79-6.403 3.185-7.2.62-11.108 6.425-17.221-6.113 5.804-10.02 3.24-17.22 6.425-6.673 2.951-1.693 9.408-6.382 13.812-4.723-4.404.277-10.835-6.403-13.79C10.419 3.639 6.489 6.179.376.376z" fill="#f4f4f7"/>
</svg>
