<svg height="512" width="512" xmlns="http://www.w3.org/2000/svg">
    <path d="M263.59 101.06c-84.453 0-152.88 65.078-152.88 145.34 0 30.957 10.174 59.644 27.531 83.219l-33.719 65.656-.875 1.688 1.719-.907 63.688-35.469c26.02 19.483 58.836 31.156 94.53 31.156 84.454 0 152.94-65.078 152.94-145.34 0-80.266-68.484-145.34-152.94-145.34zm117.75 99.812c.596.065-.417 1.292-2.344 3.5-9.284 10.651-93.99 99.906-94.812 99.906-.467 0-11.327-10.685-24.125-23.75l-23.28-23.75-30.25 16.969c-16.652 9.327-36.897 20.52-44.97 24.906l-14.688 7.969 7.5-8.063c33.762-36.34 91.198-97.03 91.812-97.03.419 0 11.274 10.71 24.125 23.811l23.375 23.812 30.938-17.375c17.03-9.563 37.275-20.832 44.97-25.03 7.554-4.12 10.983-5.96 11.75-5.876z" fill="#dbdbdb"/>
</svg>
