<svg height="512" width="512" xmlns="http://www.w3.org/2000/svg">
    <path d="M363.59 63.923c-31.547.781-63.102 1.233-94.651 1.908-47.411 122.145-95.873 243.924-142.192 366.485-1.142 8.863 9.78 11.37 16.518 11.327 48.187 2.876 96.569 2.552 144.743 4.429 6.843-1.85 5.272-11.12.573-14.498-12.131-15.702-30.606-27.478-36.93-46.926-1.008-14.663 13.052-23.904 21.67-33.688 10.45-10.694 24.55-18.555 32.429-31.514 5.25-13.997-5.562-27.151-11.446-38.952-7.125-12.361-18.567-25.857-14.796-41.089 6.62-15.595 23.257-22.995 34.764-34.525 45.129-26.324 11.563-49.31.335-84.58.737-14.736 16.088-22.272 26.956-29.508 17.557-9.98 36.61-17.712 53.742-28.447-10.564-.366-21.134-.667-31.704-.42" fill="#f4f4f7"/>
</svg>
