<svg width="512" height="512" xmlns="http://www.w3.org/2000/svg">
    <g fill="#f4f4f7" stroke-width="7.923">
        <path d="M164.66 350.95a31.691 31.691 0 0 0-31.691 31.691 31.691 31.691 0 0 0 31.691 31.691 31.691 31.691 0 0 0 31.691-31.691 31.691 31.691 0 0 0-31.691-31.691zm0 15.845a15.845 15.845 0 0 1 15.845 15.845 15.845 15.845 0 0 1-15.845 15.845 15.845 15.845 0 0 1-15.845-15.845 15.845 15.845 0 0 1 15.845-15.845zm0-158.455a31.691 31.691 0 0 0-31.691 31.691 31.691 31.691 0 0 0 31.691 31.691 31.691 31.691 0 0 0 31.691-31.691 31.691 31.691 0 0 0-31.691-31.691zm0 15.845a15.845 15.845 0 0 1 15.845 15.845 15.845 15.845 0 0 1-15.845 15.845 15.845 15.845 0 0 1-15.845-15.845 15.845 15.845 0 0 1 15.845-15.845z" style="paint-order:normal" transform="translate(-138.9 -304.78) scale(1.7956)"/>
        <path d="M148.82 263.8v95.073h31.691v-47.536c5.01 6.122 11.549 11.823 17.641 15.799 16.167 10.554 34.213 15.892 53.664 15.892v-31.691c-14.086 0-24.753-3.17-36.349-10.739-10.671-6.966-22.079-18.354-34.956-34.492V263.8z" style="paint-order:normal" transform="translate(-138.9 -304.78) scale(1.7956)"/>
        <path d="M275.58 295.49a31.691 31.691 0 0 0-31.691 31.691 31.691 31.691 0 0 0 31.691 31.691 31.691 31.691 0 0 0 31.691-31.691 31.691 31.691 0 0 0-31.691-31.691zm0 15.845a15.845 15.845 0 0 1 15.845 15.845 15.845 15.845 0 0 1-15.845 15.845 15.845 15.845 0 0 1-15.845-15.845 15.845 15.845 0 0 1 15.845-15.845z" style="paint-order:normal" transform="translate(-138.9 -304.78) scale(1.7956)"/>
    </g>
</svg>
