<svg xmlns="http://www.w3.org/2000/svg" width="48" height="48">
    id=&quot;defs1874&quot;&gt;
    <path d="M34.5 2.5C28.707 2.5 24 7.207 24 13s4.707 10.5 10.5 10.5S45 18.793 45 13 40.293 2.5 34.5 2.5zm-22 .031C6.707 2.531 2 7.238 2 13.031c0 5.794 4.707 10.5 10.5 10.5S23 18.825 23 13.031c0-5.793-4.707-10.5-10.5-10.5zm0 1c5.253 0 9.5 4.247 9.5 9.5s-4.247 9.5-9.5 9.5a9.492 9.492 0 0 1-9.5-9.5c0-5.253 4.247-9.5 9.5-9.5zm0 20.969C6.707 24.5 2 29.207 2 35s4.707 10.5 10.5 10.5S23 40.793 23 35s-4.707-10.5-10.5-10.5zm22 0C28.707 24.5 24 29.207 24 35s4.707 10.5 10.5 10.5S45 40.793 45 35s-4.707-10.5-10.5-10.5z" fill="#f4f4f7"/>
</svg>
