<svg xmlns="http://www.w3.org/2000/svg" width="48" height="48">
    id=&quot;defs5492&quot;&gt;
    <path fill="#f4f4f7" d="M10.875 3C9.824 3 9 3.907 9 4.969v35c0 1.001.754 1.81 1.719 1.906l.278.012.003 3.05c0 .249.142.465.281.594.139.13.3.215.469.282.34.133.74.187 1.188.187h22.124c.449 0 .849-.054 1.188-.188.17-.066.33-.151.469-.28.139-.13.281-.346.281-.594v-3.05l.281-.013A1.908 1.908 0 0 0 39 39.969v-35C39 3.907 38.176 3 37.125 3h-26.25zm3.063 4h20.124c.52 0 .938.418.938.938v25.125a.935.935 0 0 1-.938.937H13.939a.936.936 0 0 1-.938-.938V7.939c0-.52.418-.938.938-.938zm.562 30c.833 0 1.5.667 1.5 1.5s-.667 1.5-1.5 1.5-1.5-.667-1.5-1.5.667-1.5 1.5-1.5zm6 0c.833 0 1.5.667 1.5 1.5s-.667 1.5-1.5 1.5-1.5-.667-1.5-1.5.667-1.5 1.5-1.5zm7 0c.833 0 1.5.667 1.5 1.5s-.667 1.5-1.5 1.5-1.5-.667-1.5-1.5.667-1.5 1.5-1.5zm6 0c.833 0 1.5.667 1.5 1.5s-.667 1.5-1.5 1.5-1.5-.667-1.5-1.5.667-1.5 1.5-1.5z"/>
</svg>
