<svg xmlns="http://www.w3.org/2000/svg" width="48" height="48">
    id=&quot;defs3&quot; /&gt;
    <path d="M25.063 3.313c-1 .03-2 .882-2 2.218v4.75A14.422 14.422 0 0 0 16.78 13l-3.437-3.438c-1.084-1.083-2.427-1.12-3.156-.374-.73.745-.69 2.092.374 3.156L14 15.78a14.312 14.312 0 0 0-2.719 6.25h-4.75c-.777 0-1.41.22-1.843.594a1.747 1.747 0 0 0-.625 1.406C4.11 25.07 5.09 26 6.53 26h4.625c.258 2.461 1.102 4.747 2.438 6.688l-3.031 3.03c-.522.523-.817 1.1-.844 1.657-.027.558.221 1.057.594 1.406.706.664 1.908.686 2.874-.156l-.968 5c-.056.29-.083.654.156.969.239.314.631.406 1.156.406h30.532c.525 0 .948-.092 1.187-.406.239-.315.212-.68.156-.969L43.03 31.281c-.038-.199.005-.467-.187-.781-.096-.157-.277-.273-.469-.344-.192-.07-.394-.093-.656-.093h-2.844c.5-1.27.79-2.652.938-4.063h3.718c1.263 0 2.08-.981 2.125-1.969a1.833 1.833 0 0 0-.5-1.375c-.37-.386-.94-.625-1.625-.625h-3.81a14.404 14.404 0 0 0-3.125-6.781l2.906-2.906h.031c.927-1.03.844-2.327.125-3-.719-.674-1.987-.71-2.937.187v.031l-3.032 3.032c-1.932-1.33-4.206-2.176-6.656-2.438V5.531c0-.7-.217-1.267-.593-1.656a1.828 1.828 0 0 0-1.375-.563zm0 1a.869.869 0 0 1 .656.25c.172.177.312.474.312.968v5.5l.469.031a13.298 13.298 0 0 1 6.938 2.563l.374.25.282-.313 3.312-3.312c.641-.605 1.235-.464 1.563-.156.328.307.476.825-.188 1.562l-3.156 3.188-.344.312.313.375a13.36 13.36 0 0 1 3.25 7.063l.062.437h4.625c.468 0 .743.142.907.313.163.17.23.408.218.656-.022.497-.353 1-1.125 1h-4.563l-.03.469c-.114 1.606-.568 3.105-1.188 4.5h-.5a13.322 13.322 0 0 0 1.063-5.188c0-7.283-5.778-13.218-12.907-13.218-7.129 0-12.937 5.934-12.937 13.218 0 2.55.741 4.918 1.969 6.938l-.063.25c-1.281-1.9-2.14-4.077-2.313-6.5l-.03-.469h-5.5c-1.037 0-1.45-.553-1.47-1a.755.755 0 0 1 .282-.625c.211-.183.592-.344 1.187-.344h5.563l.062-.437a13.376 13.376 0 0 1 2.875-6.563l.281-.343-.343-.313-3.719-3.719c-.796-.796-.65-1.437-.344-1.75.306-.312.929-.478 1.75.344l3.719 3.719.313.344.343-.282a13.487 13.487 0 0 1 6.594-2.875l.438-.062V5.53c0-.874.515-1.204 1-1.218zm.343 12.312c4.388 0 7.938 3.652 7.938 8.156 0 1.316-.33 2.527-.875 3.625L21.812 17.531a7.765 7.765 0 0 1 3.594-.906zm-7.093 4.5 8.656 8.844h-7.657c-1.159-1.414-1.875-3.2-1.875-5.188 0-1.316.33-2.553.875-3.656zm20.218 9.75h3.188c.203 0 .323.043.375.063.051.019.028-.005.031 0 .005.008.049.197.094.437a.208.208 0 0 0-.094-.031H15.594a.208.208 0 0 0-.063.031.208.208 0 0 0-.031.031c.042-.24.073-.423.063-.406.034-.013.147-.031.343-.031H38.47l.062-.094zm-22.75.906h26.157l2.156 11.594H13.562l2.22-11.594zm.656.688L15 39.844h.031l-.156.875-.031.156h16.969l-.032-.156-.343-2.532-.032-.124-.031-.126h.375l.469 2.907v.093H37.5l-.031-.156-.157-.875h.032l-1.375-7.437H16.437zm24.813.125-3.844.125.094.656h-.25l.031.125 1.094 7v.125h.125l3.969.125h.156l-.031-.156-.125-.75-1.094-6.5v-.125h-.031l-.094-.625zm-27.219 1.031-.656 3.469-.719.718c-.692.693-1.32.565-1.656.25a.828.828 0 0 1-.25-.656c.013-.267.116-.615.5-1l2.781-2.781zm5.844 3.313h12.031l.094.75h-.656l-.032-.25-11.53.124.093-.624zm18.656 2.78 3.657.126.124.656-3.687-.125-.094-.656zm-23.218.126h4.062l-.125.781h-4.094l.156-.781zm17.03.062h4.688l.157.782h-4.72l-.124-.782zM19.688 40h11.72l.093.625H19.594l.093-.625zm24.844 3.625.063.156c.04.21.007.303 0 .313-.007.01-.125.093-.532.093h-30.53c-.408 0-.494-.084-.5-.093-.008-.01-.041-.102 0-.313l.062-.125c.009.012.02.022.031.032.028.046.073.08.125.093h31.063c.02.003.041.003.062 0h.031a.208.208 0 0 0 .063-.062.208.208 0 0 0 .031-.032.208.208 0 0 0 .031-.062z" fill="#f4f4f7"/>
</svg>
