<svg height="64" width="64" xmlns="http://www.w3.org/2000/svg" xmlns:xlink="http://www.w3.org/1999/xlink"><radialGradient id="a" cx="44" cy="42.5" gradientTransform="matrix(0 2.66667 -2 0 128 980.186)" gradientUnits="userSpaceOnUse" r="1.5" xlink:href="#c"/><radialGradient id="b" cx="4" cy="42.5" gradientTransform="matrix(-2 0 0 -2.66667 29 1210.853)" gradientUnits="userSpaceOnUse" r="1.5" xlink:href="#c"/><linearGradient id="c"><stop offset="0"/><stop offset="1" stop-opacity="0"/></linearGradient><linearGradient id="d" gradientUnits="userSpaceOnUse" x1="33" x2="33" xlink:href="#c" y1="1097.52" y2="1101.52"/><g transform="translate(0 -1061.52)"><path d="m27 1113.52v3c0 .554.446 1 1 1h24c.554 0 1-.446 1-1v-3h-25zm-16 0v3c0 .554.446 1 1 1h11c.554 0 1-.446 1-1v-3h-12z" fill="#fbc02d"/><rect fill="#2e7d32" height="44" ry="2.046" width="58" x="3" y="1070.52"/><rect fill="#388e3c" height="42" ry="1.024" width="56" x="4" y="1071.52"/><path d="m27 1114.52h26v2h-26z" fill="#fdd835"/><path d="m11 1114.52h13v2h-13z" fill="#fdd835"/><path d="m18 1098.52-10 8v3l6-4v2l-6 4h4l1 2h5v-5l6-5h3l-6 5v5h38c.554 0 1-.446 1-1v-3.092l-7-8.908h-2l-2-2z" fill="#43a047" fill-rule="evenodd"/><circle cx="58.5" cy="1112.02" fill="#fbc02d" r="1.5"/><circle cx="58.5" cy="1112.02" fill="#263238" r=".5"/><circle cx="58.5" cy="1073.02" fill="#fbc02d" r="1.5"/><circle cx="58.5" cy="1073.02" fill="#263238" r=".5"/><circle cx="5.5" cy="1112.02" fill="#fbc02d" r="1.5"/><circle cx="5.5" cy="1112.02" fill="#263238" r=".5"/><circle cx="5.5" cy="1073.02" fill="#fbc02d" r="1.5"/><circle cx="5.5" cy="1073.02" fill="#263238" r=".5"/><path d="m10 1071.52v8l-2 2v2l3 3h38l7-8h4v-1h-4v-4l-8 9h-3l8-9-2-2z" fill="#43a047" fill-rule="evenodd"/><path d="m11 1114.52h13v1h-13zm16 0h26v1h-26z" fill="#ffeb3b"/><path d="m43 1097.52v4h1c1.108 0 2-.892 2-2v-2z" fill="url(#a)" opacity=".7"/><path d="m21 1097.52v4h22v-4z" fill="url(#d)" opacity=".7"/><path d="m18 1097.52v2c0 1.108.892 2 2 2h1v-4z" fill="url(#b)" opacity=".7"/><rect fill="#263238" height="16" ry="1" width="28" x="18" y="1084.52"/><path d="m19 1085.52h26v14h-26z" fill="#37474f"/><rect fill="#263238" height="6" ry="1" width="14" x="10" y="1074.52"/><path d="m11 1075.52h9v1h-9z" fill="#90a4ae"/><path d="m11 1077.52h5v1h-5zm6 0h2v1h-2z" fill="#90a4ae"/><rect fill="#eceff1" height="6" ry="1" width="17" x="37" y="1104.519"/><g fill="#37474f"><path d="m38 1105.519h9v1h-9z"/><path d="m38 1107.519h5v1h-5z"/><path d="m49 1109.52 2-3 2 3z" fill-rule="evenodd"/></g><path d="m21 1077.52h2v2h-2z" fill="#90a4ae"/><path d="m21 1087.52h2v10h-2zm4 0h2v10h-2zm4 0h2v10h-2zm4 0h2v10h-2zm4 0h2v10h-2zm4 0h2v10h-2z" fill="#dfdfdf" fill-rule="evenodd" opacity=".15"/></g></svg>