<svg xmlns="http://www.w3.org/2000/svg" width="48" height="48">
    <path d="M14.497 33.503c5.68 5.68 11.753 9.672 16.47 11.198 1.555.812 3.45 1.299 5.505 1.299C41.728 46 46 42.875 46 39.021c0-3.853-4.272-6.978-9.528-6.978-1.699 0-3.287.33-4.664.903-1.179.49-.909 2.243-1.56 3.366-.547.944-2.374.82-3.29.297-3.069-1.753-5.684-3.902-8.675-6.892-2.99-2.99-5.139-5.606-6.892-8.674-.524-.917-.647-2.744.297-3.292 1.123-.65 2.876-.38 3.366-1.559.573-1.377.903-2.965.903-4.664C15.957 6.272 12.832 2 8.98 2 5.125 2 2 6.272 2 11.528c0 2.055.487 3.95 1.3 5.506 1.525 4.716 5.518 10.79 11.197 16.469z" fill="#dbdbdb"/>
</svg>
