<svg height="64" viewBox="0 0 64 64" width="64" xmlns="http://www.w3.org/2000/svg" xmlns:xlink="http://www.w3.org/1999/xlink"><filter id="a" color-interpolation-filters="sRGB" height="1.054" width="1.054" x="-.027" y="-.027"><feGaussianBlur stdDeviation=".61875"/></filter><linearGradient id="b" gradientUnits="userSpaceOnUse" x1="57.57" x2="112.57" y1="94.862" y2="39.862"><stop offset="0" stop-color="#32d7ff"/><stop offset="1" stop-color="#329bff"/></linearGradient><linearGradient id="c" gradientTransform="matrix(3.6508 .97823 -.97823 3.6508 62.568 28.291)" gradientUnits="userSpaceOnUse" x1="2.0208" x2="14.938" y1="12.86" y2="4.0527"><stop offset="0" stop-color="#fff"/><stop offset="1" stop-color="#fff"/></linearGradient><linearGradient id="d" gradientTransform="matrix(.091859 -.012702 .012702 .091859 65.708 39.518)" gradientUnits="userSpaceOnUse" x1="12.902" x2="51.847" xlink:href="#e" y1="30.471" y2="30.471"/><linearGradient id="e" gradientTransform="matrix(.88217 -.12198 .12198 .88217 32.107 -4.6962)" gradientUnits="userSpaceOnUse" x1="12.902" x2="51.847" y1="30.471" y2="30.471"><stop offset="0" stop-color="#00c8ff"/><stop offset="1" stop-color="#14b4ff"/></linearGradient><linearGradient id="f" gradientTransform="matrix(.88216 -.12198 .12198 .88216 84.799 32.204)" gradientUnits="userSpaceOnUse" x1="12.902" x2="51.847" xlink:href="#e" y1="30.471" y2="30.471"/><linearGradient id="g" gradientTransform="matrix(.88216 -.12198 .12198 .88216 84.799 31.869)" gradientUnits="userSpaceOnUse" x1="12.902" x2="51.847" xlink:href="#e" y1="30.471" y2="30.471"/><g transform="translate(-53.065 -35.372)"><rect height="55" ry="15" style="fill:#141414;image-rendering:optimizeSpeed;opacity:.3;stroke-linecap:round;stroke-width:2.7444;filter:url(#a)" transform="translate(53.065 35.372)" width="55" x="4.5" y="4.5"/><rect fill="url(#b)" height="55.001" image-rendering="optimizeSpeed" ry="15" stroke-linecap="round" stroke-width="2.7444" width="55.001" x="57.567" y="39.872"/><path d="m105.75 78.754-41.379.000136c-1.1103-.000012-2.0105-1.0358-2.0105-2.3136l.000242-18.141c.000015-1.2778.90022-2.3136 2.0105-2.3136l41.379-.000136c1.1104.000016 2.0105 1.0359 2.0105 2.3136l-.00024 18.141c-.00002 1.2778-.90023 2.3136-2.0105 2.3136z" fill="url(#c)" stroke="#fafafa" stroke-width=".5"/><g fill="url(#d)" stroke-width=".10413"><path d="m104.07 67.888-2.2438.000008c-.25584 0-.46315.20731-.46315.46319l.00001 2.7876c0 .25584.20731.46315.46319.46315l2.2438-.000008c.25585 0 .46319-.20742.46316-.46319l-.00001-2.7876c0-.25573-.20731-.46315-.46319-.46315z"/><path d="m104.54 66.694-.00001-3.152c0-.25584-.20743-.46319-.46319-.46315l-2.2438.000008c-.25584 0-.46319.20742-.46315.46319v3.152c.00001.25584.20732.46315.46319.46315l2.2438-.000008c.25584 0 .46319-.20731.46319-.46319z"/><path d="m98.031 71.599 2.1453-.000007c.25584 0 .46319-.20742.46315-.46319l-.00001-2.7876c0-.25584-.20742-.46315-.46319-.46315l-2.1453.000008c-.25584 0-.46315.20731-.46315.46319l.000008 2.7876c.000004.25573.20731.46315.46319.46315z"/><path d="m98.031 76.407 2.1453-.000008c.25584 0 .46319-.20742.46319-.46319l-.00001-3.152c0-.25584-.20743-.46319-.46319-.46315l-2.1453.000004c-.25584.000003-.46315.20731-.46315.46319l.000008 3.152c.000004.25584.20731.46315.46319.46315z"/><path d="m98.031 67.158 2.1453-.000008c.25584-.000004.46319-.20742.46319-.46319l-.00001-3.152c0-.25584-.20743-.46315-.46319-.46315l-2.1453.000007c-.25584 0-.46319.20742-.46315.46319l.000008 3.152c.000004.25584.20731.46319.46319.46319z"/><path d="m101.37 72.794.00001 3.152c0 .25584.20732.46315.4632.46315l2.2438-.000008c.25584 0 .46316-.20742.46316-.46319l-.00002-3.152c0-.25584-.20742-.46319-.46319-.46315l-2.2438.000007c-.25585 0-.46316.20731-.46316.46319z"/></g><g fill="url(#f)"><g stroke-width=".10413"><path d="m74.711 75.965-.000012-3.1885c0-.24575-.19922-.44493-.44493-.44493l-3.223.000011c-.24575 0-.44494.19918-.44494.44494l.000011 3.1885c0 .24575.19918.44494.44497.44494l3.223-.000012c.24575 0 .44493-.19918.44493-.44494z"/><path d="m76.922 67.888-3.223.000011c-.24575 0-.44494.19918-.44494.44494l.000008 2.824c0 .24575.19918.44494.44494.44494l3.223-.000011c.24575 0 .44494-.19918.44494-.44494l-.000007-2.824c.000102-.24575-.19918-.44494-.44497-.44494z"/><path d="m83.952 72.329-8.0649.000027c-.24575 0-.44494.19918-.44494.44494l.000011 3.1885c0 .24575.19918.44493.44494.44493l8.0649-.000026c.24575-.000004.44494-.19918.44494-.44497l-.000012-3.1885c.000106-.24575-.19918-.44493-.44493-.44493z"/><path d="m68.724 68.33.000008 2.824c0 .24575.19918.44493.44493.44493l2.9106-.000011c.24575 0 .44494-.19918.44494-.44494l-.000008-2.824c0-.24575-.19918-.44494-.44493-.44494l-2.9105.000008c-.24575-.000102-.44505.19911-.44505.44497z"/><path d="m78.098 68.33.000011 2.824c0 .24575.19918.44493.44494.44493l3.2228-.000011c.24575 0 .44494-.19922.44494-.44494l-.000012-2.824c0-.24575-.19922-.44494-.44493-.44494l-3.2228.000012c-.24575-.000102-.44494.19911-.44494.44493z"/><path d="m85.57 76.407 3.223-.000011c.24575 0 .44494-.19918.44494-.44494l-.000012-3.1885c0-.24575-.19918-.44494-.44493-.44494l-3.223.000011c-.24575 0-.44494.19922-.44494.44494l.000011 3.1885c0 .24575.19918.44494.44494.44494z"/><path d="m74.711 66.712-.000012-3.1885c0-.24575-.19918-.44494-.44493-.44494l-3.223.000011c-.24575 0-.44494.19922-.44494.44494l.000011 3.1885c0 .24575.19918.44494.44494.44494l3.223-.000012c.24575 0 .44494-.19918.44494-.44493z"/><path d="m66.037 71.603 1.5124-.000008c.24575 0 .44494-.19918.44494-.44494l-.000012-2.824c0-.24575-.19918-.44494-.44494-.44494l-1.5124.000004c-.24575 0-.44494.19922-.44494.44494l.000008 2.824c-.000103.24564.19911.44494.44497.44494z"/><path d="m66.037 76.407 3.3866-.000011c.24575 0 .44494-.19918.44494-.44494l-.000012-3.1885c0-.24575-.19918-.44494-.44493-.44494l-3.3866.000011c-.24575 0-.44494.19918-.44494.44494l.000008 3.1885c-.000103.24575.19911.44494.44497.44494z"/><path d="m66.037 67.158 3.3866-.000012c.24575-.000003.44494-.19918.44494-.44497l-.000012-3.1885c0-.24575-.19918-.44494-.44493-.44494l-3.3866.000011c-.24575 0-.44494.19918-.44494.44494l.000008 3.1885c-.000103.24575.19911.44494.44497.44494z"/><path d="m79.553 66.712-.000012-3.1885c0-.24575-.19918-.44494-.44497-.44494l-3.223.000011c-.24575 0-.44494.19918-.44494.44494l.000012 3.1885c0 .24575.19918.44494.44493.44494l3.223-.000012c.24564 0 .44494-.19922.44494-.44493z"/><path d="m86.605 67.888-3.223.000011c-.24575 0-.44493.19922-.44493.44494l.000007 2.824c.000004.24575.19918.44494.44497.44494l3.223-.000008c.24575-.000003.44493-.19918.44493-.44497l-.000011-2.824c.000102-.24575-.19918-.44494-.44494-.44494z"/><path d="m84.394 66.712-.000008-3.1885c-.000003-.24575-.19918-.44494-.44497-.44494l-3.2228.000008c-.24575.000003-.44494.19918-.44494.44497l.000012 3.1885c0 .24575.19918.44494.44493.44494l3.2228-.000011c.24564-.000004.44494-.19919.44494-.44497z"/></g><path d="m93.609 67.888-5.3685.000015c-.25399.000004-.45986.19922-.45986.44497l.000011 2.824c0 .24575.20588.44494.45986.44494l5.3685-.000019c.25399 0 .45986-.19922.45986-.44494l-.000011-2.824c0-.24575-.20588-.44494-.45986-.44494z" stroke-width=".10586"/><g stroke-width=".10413"><path d="m89.236 66.712-.000011-3.1885c0-.24575-.19918-.44494-.44494-.44494l-3.223.000011c-.24575 0-.44494.19918-.44494.44494l.000012 3.1885c0 .24575.19918.44494.44494.44494l3.223-.000012c.24564 0 .44494-.19918.44494-.44493z"/><path d="m74.711 61.969-.000012-3.1885c0-.24575-.19918-.44494-.44493-.44494l-3.223.000012c-.24575 0-.44494.19918-.44494.44494l.000011 3.1885c0 .24575.19918.44493.44494.44493l3.223-.000011c.24575 0 .44494-.19918.44494-.44494z"/><path d="m66.037 62.411 3.3866-.000012c.24575 0 .44494-.19922.44494-.44493l-.000012-3.1885c0-.24575-.19918-.44494-.44493-.44494l-3.3866.000011c-.24575 0-.44494.19918-.44494.44494l.000011 3.1885c-.000102.24575.19911.44494.44494.44494z"/><path d="m79.553 61.969-.000008-3.1885c-.000004-.24575-.19918-.44494-.44497-.44494l-3.223.000012c-.24575 0-.44494.19918-.44494.44494l.000008 3.1885c.000003.24575.19918.44493.44497.44493l3.223-.000011c.24564 0 .44494-.19918.44494-.44494z"/><path d="m84.394 61.969-.000011-3.1885c0-.24575-.19922-.44494-.44494-.44494l-3.2228.000012c-.24575 0-.44494.19918-.44494.44494l.000012 3.1885c0 .24575.19918.44493.44493.44493l3.2228-.000011c.24564 0 .44494-.19918.44494-.44494z"/><path d="m89.236 61.969-.000011-3.1885c0-.24575-.19918-.44494-.44497-.44494l-3.223.000008c-.24575.000004-.44493.19922-.44493.44497l.000011 3.1885c0 .24575.19918.44493.44494.44493l3.223-.000011c.24564-.000004.44493-.19918.44493-.44494z"/><path d="m94.081 61.969-.000011-3.1885c0-.24575-.19918-.44494-.44497-.44494l-3.223.000012c-.24575.000004-.44494.19918-.44494.44497l.000008 3.1885c.000004.24575.19918.44494.44497.44494l3.223-.000007c.24564-.000004.44494-.19918.44494-.44497z"/><path d="m94.081 66.712-.000011-3.1885c0-.24575-.19918-.44494-.44494-.44494l-3.223.000011c-.24575 0-.44494.19922-.44494.44494l.000012 3.1885c0 .24575.19918.44494.44493.44494l3.223-.000012c.24564 0 .44494-.19918.44494-.44493z"/><path d="m94.081 75.965-.000011-3.1885c0-.24575-.19922-.44493-.44494-.44493l-3.223.000011c-.24575 0-.44494.19918-.44494.44494l.000012 3.1885c0 .24575.19918.44494.44493.44494l3.223-.000012c.24564 0 .44494-.19918.44494-.44494z"/></g></g><g fill="url(#g)"><path d="m98.957 60.367a.69511.69511 0 0 1 -.66755.69458.69511.69511 0 0 1 -.7205-.63951.69511.69511 0 0 1 .6104-.7453.69511.69511 0 0 1 .76892.5804"/><path d="m101.75 60.367a.69511.69511 0 0 1 -.66755.69458.69511.69511 0 0 1 -.72051-.63951.69511.69511 0 0 1 .61041-.7453.69511.69511 0 0 1 .76892.5804"/><path d="m104.54 60.367a.69511.69511 0 0 1 -.66755.69458.69511.69511 0 0 1 -.72051-.63951.69511.69511 0 0 1 .61041-.7453.69511.69511 0 0 1 .76892.5804"/></g></g></svg>