<svg xmlns="http://www.w3.org/2000/svg" height="512" width="512">
    id=&quot;defs22&quot; /&gt;
    <path d="m139.003 70.188 39.183 217.764c2.598 14.43 12.136 43.553 47.922 43.553v58.07h-29.035a14.486 14.486 0 0 0-14.518 14.518c-20.106 0-29.035 23.446-29.035 43.553h203.247c0-20.107-8.929-43.553-29.036-43.553a14.486 14.486 0 0 0-14.517-14.517h-29.035v-58.07c35.786 0 45.324-29.181 47.922-43.554l39.183-217.764M281.29 99.224c14.517 0 23.504 9.378 60.96 0 0 8.434-19.237 31.329-33.71 32.926-8.74.958-19.31-3.891-32.607 2.889l21.442 94.132c5.226 18.858-5.894 40.097-26.93 51.348-25.144 13.458-55.631 8.16-68.073-11.802-12.442-19.948-2.163-47.023 22.996-60.452 16.26-8.681 35.582-9.785 50.666-2.947l-20.876-91.591c5.328-6.722 11.629-14.518 26.146-14.518z" style="opacity:1;fill:#dbdbdb;fill-opacity:1"/>
</svg>
