<svg height="64" width="64" xmlns="http://www.w3.org/2000/svg"><g stroke-width=".769" transform="matrix(1.3 0 0 1.3 .8 .8)"><rect fill="#33393e" height="38.462" rx="1.241" ry="1.166" stroke="#232323" stroke-width="1.538" width="38.462" x="4.769" y="4.769"/><rect fill="#33393e" height="38.462" rx="1.241" ry="1.166" width="38.462" x="4.769" y="4.769"/><g stroke="#000" stroke-opacity=".294" transform="rotate(-90)"><rect fill="#d64239" height="12" rx="1" width="12" x="-16" y="18"/><rect fill="#ffb345" height="12" rx="1" width="12" x="-16" y="32"/><rect fill="#467fab" height="12" rx="1" width="12" x="-16" y="4"/><rect fill="#d64239" height="12" rx="1" width="12" x="-30" y="32"/><rect fill="#467fab" height="12" rx="1" width="12" x="-30" y="4"/><rect fill="#d64239" height="12" rx="1" width="12" x="-44" y="4"/><rect fill="#ffb345" height="12" rx="1" width="12" x="-44" y="32"/><rect fill="#467fab" height="12" rx="1" width="12" x="-44" y="18"/><rect fill="#ffb345" height="12" rx="1" width="12" x="-30" y="18"/></g></g></svg>