<svg height="512" width="512" xmlns="http://www.w3.org/2000/svg">
    <path d="M115.095 348.594V163.402h49.527v84.12l58.054-84.12h58.305l-67.835 90.316 73.725 94.876H224.43l-59.807-83.105v83.105h-49.529m197.719 0c-3.33 0-6.167-1.066-8.51-3.197-2.343-2.169-3.515-4.765-3.515-7.797 0-3.14 1.152-5.758 3.453-7.852 2.302-2.13 5.16-3.197 8.57-3.197s6.307 1.084 8.697 3.253c2.383 2.131 3.577 4.734 3.577 7.796 0 2.991-1.213 5.571-3.639 7.74-2.425 2.169-5.303 3.253-8.632 3.253m81.698-1.01h-62.276v-20.022h62.276zm0-35.895h-95.576v-20.022h95.576zm-39.154-74.149c-3.536.375-6.372 1.608-8.51 3.702-2.137 2.056-3.206 4.6-3.206 7.628 0 3.253.986 5.852 2.96 7.796 1.931 1.907 4.85 3.177 8.755 3.815v-22.937m12.394-19.689v43.075c4.81-.038 8.53-1.16 11.16-3.366 2.59-2.205 3.885-5.328 3.885-9.366 0-3.029-.617-5.571-1.85-7.628-1.275-2.094-.255-3.683-2.722-4.765l3.77-15.034c4.765 1.795 8.447 4.973 11.04 9.538 2.59 4.56 3.884 10.152 3.884 16.77 0 9.87-3 17.797-9.003 23.777-6.042 5.945-13.997 8.918-23.862 8.918-9.702 0-17.758-2.973-24.172-8.918-6.412-5.982-9.619-13.535-9.619-22.659 0-9.385 3.248-16.788 9.743-22.213 6.495-5.422 15.394-8.133 26.699-8.133h1.048" fill="#dbdbdb"/>
</svg>
