<svg width="64" height="64" viewBox="0 0 16.933 16.933" xmlns="http://www.w3.org/2000/svg"><g stroke-width=".265"><rect x="1.455" y="1.455" width="14.023" height="14.023" rx=".765" ry=".765" color="#000" fill="#f9c542" overflow="visible" style="isolation:auto;mix-blend-mode:normal"/><path d="M14.684 10.319a.132.132 0 0 0 .132-.132V2.249a.132.132 0 0 0-.132-.132H2.249a.132.132 0 0 0-.132.132v7.938c0 .073.059.132.132.132z" color="#000" fill="#e4ba39" overflow="visible" style="isolation:auto;mix-blend-mode:normal"/><path d="M4.233 10.335v.777h.794v1.083h6.879v-1.083h.794v-.777H5.027z" color="#000" fill="#b3b3b3" overflow="visible"/><path d="M5.03 11.509h6.873" fill="none" opacity=".2" stroke="#000"/><path d="M5.109 12.011h6.716" fill="none" opacity=".17" stroke="#000"/><rect x="2.646" y="3.175" width="11.641" height="7.408" rx=".714" ry=".72" fill="#8f8f8f" fill-rule="evenodd" overflow="visible"/><rect x="2.646" y="3.175" width="11.641" height="7.144" rx=".417" ry=".409" fill="#f2f2f2" fill-rule="evenodd" overflow="visible"/></g><g fill="none" stroke-width=".265"><path d="m6.614 6.751-3.307 2.82zm3.705.024 3.342 2.738z" overflow="visible" stroke="#bebebe"/><rect x="2.514" y="2.514" width="11.906" height="7.673" rx=".397" ry=".397" opacity=".1" overflow="visible" stroke="#000"/><path d="m2.774 3.626 5.693 4.41 5.778-4.44" overflow="visible" stroke="#bebebe"/><path d="M5.03 10.98h6.873" opacity=".2" stroke="#000"/><path d="M2.629 2.519c-.118 0-.111.01-.111.098v7.424c0 .161-.02.216.189.216h1.708c.44 0 .745.35.745.842v.964h6.608v-1.086c0-.363.344-.72.7-.72h1.825c.13 0 .126-.003.126-.134v-7.51c0-.126-.005-.094-.115-.094z" color="#000" opacity=".3" overflow="visible" stroke="#b67926"/></g><g stroke-width=".265"><path d="M2.117 1.587c-.265 0-.53.265-.53.53v8.334a.66.66 0 0 0 .662.661h2.778v-.132a.66.66 0 0 0-.661-.661H2.91c-.264 0-.529-.265-.529-.53V2.91c0-.264.265-.529.53-.529h11.111c.265 0 .53.265.53.53v6.878c0 .265-.265.53-.53.53h-1.455a.66.66 0 0 0-.661.661v.132h2.79a.66.66 0 0 0 .66-.661l-.01-8.334c-.001-.265-.265-.53-.53-.53zm2.91 9.922v.794a.66.66 0 0 0 .661.661h5.557a.66.66 0 0 0 .661-.661v-.794a.66.66 0 0 1-.661.662H5.688a.66.66 0 0 1-.661-.662z" color="#000" fill="#ffe37d" overflow="visible"/><rect x="1.455" y="1.455" width="14.023" height="14.023" rx=".715" ry=".733" color="#000" fill="none" opacity=".5" overflow="visible" stroke="#956500" style="isolation:auto;mix-blend-mode:normal"/><rect x="2.514" y="3.043" width="11.906" height="7.144" rx=".536" ry=".521" fill="none" opacity=".1" overflow="visible" stroke="#000"/></g><path d="M10.467 5.02c.31.31.31.811 0 1.122L8.041 8.568a1.056 1.056 0 0 1-1.496 0 1.056 1.056 0 0 1 0-1.497L8.97 4.646l.187.187-2.425 2.425a.792.792 0 0 0 0 1.123c.31.31.811.31 1.122 0l2.426-2.426a.528.528 0 1 0-.748-.748L7.106 7.633a.264.264 0 0 0 0 .374c.104.104.27.104.374 0L9.72 5.768l.187.187-2.239 2.239a.528.528 0 1 1-.748-.748L9.345 5.02a.792.792 0 0 1 1.122 0" fill="gray"/></svg>