<svg height="64" viewBox="0 0 16.933333 16.933334" width="64" xmlns="http://www.w3.org/2000/svg" xmlns:xlink="http://www.w3.org/1999/xlink"><filter id="a" color-interpolation-filters="sRGB" height="1.054" width="1.054" x="-.027" y="-.027"><feGaussianBlur stdDeviation=".61875"/></filter><linearGradient id="b" gradientTransform="matrix(.0850556 0 -.01305613 .12587817 3.613642 .966462)" gradientUnits="userSpaceOnUse" x1="86.345001" x2="97.987999" y1="58.764999" y2="56.894001"><stop offset="0"/><stop offset=".8249" stop-opacity=".054902"/><stop offset=".90864" stop-opacity=".027451"/><stop offset=".92884" stop-opacity=".019608"/><stop offset=".95191" stop-opacity=".011765"/><stop offset="1" stop-opacity="0"/></linearGradient><linearGradient id="c" gradientUnits="userSpaceOnUse" x1="1.190625" x2="10.445357" y1="15.743224" y2="1.191141"><stop offset="0" stop-color="#00783c"/><stop offset="1" stop-color="#009632"/></linearGradient><g fill="#5e4aa6"><circle cx="-297.60333" cy="-338.48148" r="0" stroke-width=".264583"/><g stroke-width=".264586"><circle cx="-266.26236" cy="-348.8793" r="0"/><circle cx="24.656998" cy="-14.051625" fill-rule="evenodd" r="0"/><circle cx="-245.49197" cy="-367.79971" r="0"/><circle cx="45.426594" cy="-32.962288" fill-rule="evenodd" r="0"/></g></g><rect fill="#141414" filter="url(#a)" height="55" opacity=".3" ry="15" stroke-linecap="round" stroke-width="2.7444" transform="scale(.26458333)" width="55" x="4.5" y="4.5"/><path d="m5.159375 1.190625h6.614583c2.198687 0 3.96875 1.7700625 3.96875 3.96875v6.614583c0 2.198687-1.770063 3.96875-3.96875 3.96875h-6.614583c-2.1986875 0-3.96875-1.770063-3.96875-3.96875v-6.614583c0-2.1986875 1.7700625-3.96875 3.96875-3.96875z" fill="#008237"/><path d="m5.4600379 1.8520832h6.0132571c1.998807 0 3.607955 1.6091478 3.607955 3.6079547v6.0132571c0 1.998807-1.609148 3.607955-3.607955 3.607955h-6.0132571c-1.9988069 0-3.6079547-1.609148-3.6079547-3.607955v-6.0132571c0-1.9988069 1.6091478-3.6079547 3.6079547-3.6079547z" fill="#ebf0f5"/><path d="m8.479366 3.2212888-.000952.6986323 5.005387.00766.0013-.6986587zm-.0025 1.6310504-.000953.6986323 5.005388.00766.0013-.6986587zm-.0022 1.6310239-.0013.6986323 5.005917.00764.000953-.6986323zm-.0026 1.6307064-.0013.6986323 5.005917.00764.000952-.6986323zm-.0025 1.6310504-.000953.6986321 5.005388.0077.000952-.6986056zm-.0025 1.6310501-.000952.698633 5.005387.0077.000953-.698633zm-.0026 1.630707-.000953.698632 5.005388.0077.0013-.698659z" fill="#008237" stroke-width=".033015"/><path d="m10.660295 1.8510825.0061 13.2287865 1.000278.02951c.292417.02986.580575-.298265.646086-.735595l1.705226-11.3791929c.065537-.4373562-.148988-1.0707458-.441408-1.1006172z" fill="url(#b)"/><path d="m6.224943 1.1911409c-.667417 0-1.23854.018907-1.7435632.061495-1.6017412.274071-2.8704257 1.4977148-3.2039388 3.0778482-.0000502.0004763.0000503.00156 0 .00206-.063533.6088451-.085908 1.334876-.086816 2.1941848v3.8798661c.0008996.859956.023151 1.587079.086816 2.196248.3329451 1.57943 1.5999412 2.803019 3.2003214 3.078365.5058496.04285 1.0782076.0615 1.7471806.0615h4.220414c.007-.01576.01809-.02904.0248-.04496.102803-.243867.182586-.500177.236678-.765845.05409-.265694.08268-.54108.08268-.823205v-11.2830317c0-.2821248-.02859-.5575373-.08268-.8232054-.05409-.2656946-.133875-.5219783-.236678-.7658448-.0068-.016054-.01784-.029526-.0248-.045475z" fill="url(#c)" stroke-linecap="round" stroke-width=".132292"/><text style="fill:#fff;font-family:TeX Gyre Heros Cn;font-size:8.05471;font-stretch:condensed;font-weight:bold;letter-spacing:0;stroke-width:.083907;word-spacing:0" transform="matrix(.99999761 .0021848 -.0021848 .99999761 0 0)" x="3.809534" y="11.345742"><tspan stroke-width=".083907" x="3.809534" y="11.345742">X</tspan></text></svg>