<svg height="64" width="64" xmlns="http://www.w3.org/2000/svg"><rect fill="#e6e6e6" height="52" rx="6" stroke="#adadad" stroke-linecap="round" stroke-linejoin="round" stroke-width="2" width="52" x="6" y="6"/><rect fill="#e6e6e6" height="52" rx="6" width="52" x="6" y="6"/><circle cx="32.0000394" cy="31.99963868" fill="none" r="26.99999997" stroke-width="1.41385287"/><path d="m28.087 23c-.723 0-1.304.582-1.304 1.304 0 0 0 9.13-2.609 9.13-.723 0-1.304.582-1.304 1.305v2.609h18.26v-2.609c0-.723-.581-1.304-1.304-1.304-2.608 0-2.608-9.13-2.608-9.13 0-.723-.582-1.305-1.305-1.305z" fill="#3e3e3e"/><path d="m28 13.739 8 3.969v5.292h-8zm-5.625 23.261h19.25c.762 0 1.375.613 1.375 1.375v9.625h-22v-9.625c0-.762.613-1.375 1.375-1.375z" fill="#2dc58d"/></svg>