<svg xmlns="http://www.w3.org/2000/svg" width="48" height="48">
    &gt;
    <path d="M22.477 2.62c-.308.045-.573.21-.818.45-.49.483-1.014 1.296-1.862 2.652-.691 1.107-1.362 2.42-2.002 3.864C8.962 10.79 2 18.481 2 27.61c0 9.945 8.248 18.193 18.192 18.193 9.945 0 18.193-8.248 18.193-18.193 0-.554-.035-1.093-.085-1.636.574-.09 1.16-.182 1.692-.254a55.844 55.844 0 0 1 3.92-.394c.484-.03.85-.033 1.1-.029h.029l.338.057a.426.426 0 0 0 .395-.141.463.463 0 0 0 .113-.423c-.076-.266-.238-.312-.31-.339-.012-.004-.018.004-.028 0l-.141-.028c-.017-.002-.04.002-.057 0l-7.502-1.241c-.163-.637-.392-1.252-.62-1.862l8.32-1.382a.457.457 0 0 0 .451-.45.457.457 0 0 0-.451-.452l-10.436-1.749a18.534 18.534 0 0 0-.677-.902l11.113-1.862a.457.457 0 0 0 .451-.451.457.457 0 0 0-.451-.452L32.01 11.363l13.454-2.256c.018 0 .028.01.085 0 .014-.003.029-.02.056-.029.028-.008.113-.056.113-.056l.197-.338-.14-.339a.451.451 0 0 0-.34-.14c-.002 0-.005-.01-.056 0-.054-.004-.145-.02-.253-.03-.242-.019-.583-.035-1.044-.084-.922-.098-2.252-.26-3.808-.48-3.11-.44-7.175-1.12-10.943-2.086-1.861-.478-3.125-1.053-4.034-1.552-.908-.498-1.45-.928-1.974-1.184-.262-.129-.538-.215-.846-.17zm-6.318 11.282a41.016 41.016 0 0 0-.79 2.764c-.999 4.11-1.313 8.232-.113 11.112.59 1.415 1.368 2.356 2.313 2.85.946.492 2.017.514 3.187.31 2.34-.41 5.142-1.771 8.603-2.906 1.618-.53 3.355-.955 5.077-1.325.018.302.056.595.056.902 0 7.991-6.308 14.3-14.3 14.3-7.99 0-14.3-6.309-14.3-14.3 0-6.583 4.29-11.996 10.267-13.707zm17.205 8.066c.066.156.109.32.17.48l-1.524-.254 1.354-.226z" fill="#f4f4f7"/>
</svg>
