<svg xmlns="http://www.w3.org/2000/svg" height="512" width="512">
    id=&quot;defs23&quot; /&gt;
    <path d="M252.532 63.335C71.26 64.878 72.839 215.393 72.839 215.393c17.34 13.89 62.986-62.53 83.477-59.443 25.121 3.784 6.19 92.713 21.954 95.8 10.552 2.066 32.46-33.066 52.85-55.463v158.162C78.15 358.8 72.84 422.915 72.84 422.915l357.758-2.389s-1.553-56.88-146.627-65.281V205.044c16.548 22.313 34.866 49.668 40.112 44.317 18.916-19.292 2.397-87.216 18.16-101.107 15.762-13.89 77.652 84.065 85.103 69.528 7.45-14.537 6.457-155.99-174.814-154.447z" fill="#f4f4f7" style="fill:#f4f4f7"/>
</svg>
