<svg viewBox="0 0 512 512" xmlns="http://www.w3.org/2000/svg">
    <path d="M167.95 120.65c-12.08 0-21.822 9.707-21.822 21.784v227.1c0 12.08 9.745 21.822 21.822 21.822h.342c12.08 0 21.784-9.745 21.784-21.822v-227.1a21.723 21.723 0 0 0-21.784-21.784zm175.79 0c-12.08 0-21.822 9.707-21.822 21.784v227.1c0 12.08 9.745 21.822 21.822 21.822h.342c12.08 0 21.784-9.745 21.784-21.822v-227.1a21.723 21.723 0 0 0-21.784-21.784zM256 215.56a21.926 21.926 0 0 0-21.973 21.973v131.84A21.926 21.926 0 0 0 256 391.346a21.926 21.926 0 0 0 21.973-21.973v-131.84A21.926 21.926 0 0 0 256 215.56" fill="#f4f4f7"/>
</svg>
