<svg height="512" width="512" xmlns="http://www.w3.org/2000/svg">
    <path d="M229.6 42.345c-5.053 0-12.473 8.072-22.229 24.216-14.611-8.74-37.052-17.1-56.518-17.009 1.684 13.731 2.518 23.017 2.518 27.827 0 5.841-.166 10.302-.5 13.397-17.009 61.146-51.8 95.118-63.088 156.112-1.032 5.569 4.567 9.271 6.585 12.351 6.053 9.27 16.295 15.81 30.755 19.588a5811.69 5811.69 0 0 1 10.105 2.58c4.37 0 8.254-2.231 11.622-6.692 0 10.651 4.218 15.977 12.624 15.977 3.368 0 5.872-1.365 7.556-4.112 17.297-27.098 32.166-52.148 66.623-66.471-8.694 43.803-52.846 71.266-54.789 125.706h-22.91a7.57 7.57 0 0 0-7.587 7.586v7.586l-30.345 75.864h333.8l-30.346-75.864v-7.586a7.57 7.57 0 0 0-7.586-7.586h-22.608c0-121.382-30.33-242.764-134.9-261.73-5.083-15.75-10.302-31.741-28.768-41.725m23.2 64.393c76.47 3.566 114.599 107.56 115.57 183.894v19.057c-.668 8.936-3.687 13.397-9.073 13.397-6.388 0-9.605-7.556-9.605-22.668-.333-77.957-21.5-156.901-95.952-179.554-7.04-1.502-7.495-7.131-7.495-8.512 0-3.778 2.17-5.66 6.554-5.66zm-71.145 20.62c8.071 0 12.123 2.23 12.123 6.691 0 3.778-2.534 8.239-7.587 13.398-9.422 9.953-18.344 14.93-26.764 14.93-4.37 0-6.555-3.096-6.555-9.271.106-10.818 11.258-24.367 28.767-25.748zM120.522 230.41l-.09.015c2.61 8.148-4.234 19.178-15.553 20.954-2.351-9.27 1.032-18.208 15.644-21.106z" fill="#dbdbdb"/>
</svg>
