<svg xmlns="http://www.w3.org/2000/svg" width="48" height="48">
    id=&quot;defs4291&quot;&gt;
    <path fill="#f4f4f7" d="M27.844 5.406a2.026 2.026 0 0 0-1.782 2.25c.126 1.116 1.134 1.939 2.25 1.813a2.026 2.026 0 0 0 1.782-2.25c-.126-1.116-1.134-1.939-2.25-1.813zM21.812 6.75c-.797 0-1.437.64-1.437 1.438 0 .797.64 1.437 1.438 1.437.797 0 1.468-.64 1.468-1.438 0-.797-.67-1.437-1.468-1.437zm13.25 1.281a2.856 2.856 0 0 0-2.53 3.156 2.885 2.885 0 0 0 3.187 2.532 2.856 2.856 0 0 0 2.531-3.156 2.885 2.885 0 0 0-3.188-2.532zm-18.812.844c-4.568 0-7.844 2.75-7.844 7.219V20H7.125c-1.305 0-1.969.66-1.969 1.969v11.125c0 .642.664 1.968 1.969 1.968h19.156C27.336 35.056 28 33.736 28 33.094V21.969c0-1.31-.663-1.969-1.969-1.969H24.72v-3.906c0-4.583-3.244-7.219-7.813-7.219h-.656zm0 3.281h.656c4.569 0 4.563 3.91 4.563 5.219V20h-9.782v-2.625c0-1.31-.005-5.219 4.563-5.219zM40 15.094c-1.932.218-3.312 1.974-3.094 3.906a3.496 3.496 0 0 0 3.875 3.094c1.933-.218 3.343-1.943 3.125-3.875-.218-1.933-1.974-3.343-3.906-3.125zm-.563 9.969c-2.339.263-4.045 2.379-3.78 4.718a4.262 4.262 0 0 0 4.718 3.75 4.262 4.262 0 0 0 3.75-4.718 4.232 4.232 0 0 0-4.688-3.75z"/>
</svg>
