<svg height="512" width="512" xmlns="http://www.w3.org/2000/svg">
    <path d="M185.971 50.15c-37.374 19.723-68.65 56.602-69.55 100.502-.716 22.784 4.039 46.805 15.177 66.437 39.08.664 79.32 22.979 93.024 60.991 20.074 50.244-3.557 116.941-56.38 135.452-27.096 9.758-57.227 5.407-83.41-5.106 35.797 22.536 83.462 31.16 121.93 9.9 20.14-10.669 37.869-26.809 49.945-45.932-19.006-34.26-19.762-80.22 6.279-111.158 33.374-42.545 102.911-55.65 145.405-19.188 22.002 18.563 33.283 46.831 37.27 74.748 1.602-42.233-14.695-87.775-52.238-110.48-19.306-12.31-42.103-19.059-64.73-20.622-20.179 33.596-59.598 57.253-99.42 50.205-53.502-7.555-99.682-61.134-89.351-116.147 5.054-28.346 23.93-52.237 46.088-69.615z" fill="#dbdbdb" fill-rule="evenodd"/>
</svg>
