<svg height="512" width="512" xmlns="http://www.w3.org/2000/svg">
    <g fill="#dbdbdb">
        <path d="M230.47 108.158h52.06c77.93 0 76.37 77.245 76.37 77.245v66.165c0 25.185-45.453 77.245-45.453 77.245v33.082l102.304 55.164v44.146H97.537V417.06l102.367-55.164v-33.082s-45.643-52.06-45.404-77.245v-66.165s-1.672-77.245 76.369-77.245m-.366 0"/>
        <path d="M170.276 157.67h15.73c6.973 0 12.624 6.161 12.624 13.803v105.663c0 7.594-5.651 13.802-12.624 13.802h-15.73c-6.973 0-12.688-6.224-12.688-13.802V171.473c0-7.642 5.715-13.803 12.688-13.803m0 0"/>
        <path d="M181.102 224.249c0 30.041-10.316 54.351-23.005 54.351-12.688 0-22.94-24.31-22.94-54.351 0-30.042 10.268-54.352 22.94-54.352 12.689 0 23.005 24.31 23.005 54.352m0 0"/>
        <path d="M141.11 221.351c0 5.604-4.664 10.141-10.38 10.141-5.715 0-10.38-4.537-10.38-10.141s4.665-10.141 10.38-10.141c5.716 0 10.38 4.537 10.38 10.141m0 0"/>
        <path d="M256.405 47.088c-76.115 0-137.806 67.295-137.806 150.303 0 8.326.685 16.541 1.863 24.501h20.84c-1.37-7.896-2.181-16.111-2.181-24.5 0-70.655 52.489-128 117.284-128 64.732 0 117.22 57.281 117.22 128 0 8.389-.748 16.604-2.18 24.5h20.84c1.241-7.96 1.862-16.175 1.862-24.5 0-83.025-61.691-150.304-137.742-150.304m0 0"/>
        <path d="M392.412 220.284c0 5.604-4.538 10.142-10.269 10.142-5.652 0-10.269-4.538-10.269-10.142 0-5.604 4.601-10.14 10.269-10.14 5.715 0 10.269 4.536 10.269 10.14m-49.879-62.614h-15.729c-7.02 0-12.688 6.161-12.688 13.803v105.663c0 7.594 5.652 13.802 12.688 13.802h15.73c6.973 0 12.624-6.224 12.624-13.802V171.473c0-7.642-5.651-13.803-12.625-13.803m0 0"/>
        <path d="M331.724 224.249c0 30.041 10.268 54.351 22.94 54.351 12.69 0 22.942-24.31 22.942-54.351 0-30.042-10.269-54.352-22.941-54.352-12.689 0-22.941 24.31-22.941 54.352m0 0"/>
    </g>
</svg>
