<svg height="64" width="64" xmlns="http://www.w3.org/2000/svg"><rect fill="#5d6c82" height="45" rx="1.932" ry="1.915" width="57" x="3.5" y="9.5"/><rect fill="none" height="45" opacity=".5" rx="1.932" ry="1.915" stroke="#0a161e" stroke-linecap="round" stroke-linejoin="round" width="57" x="3.5" y="9.5"/><path d="m13.016 21v4h6v-4zm8 0v4h6v-4zm8 0v4h6v-4zm8 0v4h6v-4zm8 0v4h5.968v-4zm-32 6v4h6v-4zm8 0v4h6v-4zm8 0v4h6v-4zm8 0v4h6v-4zm8 0v4h5.968v-4zm-32 6v4h6v-4zm8 0v4h6v-4zm8 0v4h6v-4zm8 0v4h6v-4zm8 0v4h5.968v-4zm-24 6v4h22v-4z" fill="#fff"/></svg>