<svg xmlns="http://www.w3.org/2000/svg" height="512" width="512">
    <clipPath id="a"/>
    <g clip-path="url(#a)" transform="matrix(15.20581 0 0 20.77295 -110.1 -217.59)" style="fill:#dbdbdb">
        <path d="M36.18 16a8.54 8.54 0 0 0-4.379 1.133 8.577 8.577 0 0 0-8.179-.114.15.15 0 0 0-.059.117c0 .082.066.141.145.141h.027c.004 0 .008-.004.008-.004a8.772 8.772 0 0 1 2.359-.102c2.258.211 4.23.906 5.613 2.461.07.074.133.066.203-.004 1.742-1.996 4.406-2.789 7.27-2.52.16.016.32.031.477.059.055.008.141.02.191.023.094.012.145-.063.145-.141 0-.063-.023-.105-.078-.129-.055-.027-.109-.063-.164-.082a8.735 8.735 0 0 0-3.582-.852m-5.239 6.854a14.82 14.82 0 0 0-8.555 2.711 14.8 14.8 0 0 0-6.03-1.277 14.75 14.75 0 0 0-8.242 2.5l-.02.016a.197.197 0 0 0-.082.168c0 .121.098.219.215.219.016 0 .031-.004.043-.004.012 0 .02-.004.023-.008a14.821 14.821 0 0 1 4.27-.621c3.934 0 7.449.926 10.09 3.391.008.004.016.012.023.016.039.035.086.047.145.047.066 0 .125-.02.164-.07 0 0 .086-.113.129-.18 2.691-3.641 7.121-5.438 12.04-5.438.352 0 .703.008 1.051.035.098.004.313.023.316.023a.218.218 0 0 0 .215-.219.203.203 0 0 0-.125-.188 14.87 14.87 0 0 0-5.656-1.125m-.008.004"/>
    </g>
    <path d="m388.118 275.754 71.334 59.829-46.022 72.1-99.714 60.596-30.682 5.37L56.76 318.708z" fill="none"/>
</svg>
