<svg xmlns="http://www.w3.org/2000/svg" width="48" height="48">
    <path d="M2.469 2.469V45.53H45.53V2.47H2.47zm31.593.906h3.688v5.094h-3.688V3.375zm6.094 0h3.688v5.094h-3.688V3.375zm-18.281.063h3.688V8.53h-3.688V3.437zm6.156 0h3.688V8.53H28.03V3.437zM4.125 3.5h3.688v5.063H4.124V3.5zm5.906 0h3.688v5.063H10.03V3.5zm5.75 0h3.688v5.063H15.78V3.5zM3.344 9.344h41.312v29.625H3.344V9.344zm20.125 2.781c-6.354 0-11.5 5.177-11.5 11.531 0 6.354 5.146 11.5 11.5 11.5s11.5-5.146 11.5-11.5-5.146-11.531-11.5-11.531zm-3.25 6.719c.018-.011.061.001.093 0 1.004-.044 8.407 4.24 8.407 4.906 0 .687-7.906 5.25-8.5 4.906-.595-.343-.595-9.469 0-9.812zM34.03 39.687h3.688v5.063H34.03v-5.063zm6.094 0h3.688v5.063h-3.688v-5.063zm-18.281.063h3.687v5.063h-3.687V39.75zm6.156 0h3.688v5.063H28V39.75zm-23.906.063H7.78v5.062H4.094v-5.063zm5.937 0h3.656v5.062H10.03v-5.063zm5.719 0h3.688v5.062H15.75v-5.063z" fill="#dbdbdb"/>
</svg>
