<svg xmlns="http://www.w3.org/2000/svg" width="48" height="48">
    <path d="M8.719 4A4.709 4.709 0 0 0 4 8.719V39.28A4.709 4.709 0 0 0 8.719 44H39.28A4.709 4.709 0 0 0 44 39.281V8.72A4.709 4.709 0 0 0 39.281 4H8.72zm15.719 3c.666.006 1.308.075 1.968.156l.844 4.969c1.008.259 1.934.694 2.844 1.188l4.125-2.907c1.32.952 2.422 2.145 3.437 3.406l-.25.844-2.687 3.25c.527.892.898 1.854 1.187 2.844l5 .844c.266 1.6-.131 4.021-.312 5.625l-4.688.031c-.26 1.002-.69 1.94-1.187 2.844l2.937 4.062-.25.813c-.909 1.153-2.039 1.71-3.187 2.625l-4.125-2.938c-.897.524-1.848.899-2.844 1.188l-.844 4.968c-.903.14-1.806.188-2.718.188-.711-.007-1.42-.102-2.125-.188l-.844-4.968c-1.008-.26-1.934-.694-2.844-1.188l-4.125 2.938c-1.173-.846-2.236-1.519-3.156-2.625l-.281-.813 2.937-4.062c-.527-.892-.897-1.854-1.188-2.844l-4.687-.031c-.265-1.6-.494-4.022-.313-5.625l5-.844c.261-1.002.692-1.939 1.188-2.844l-2.656-3.25-.281-.844c.957-1.313 2.168-2.397 3.437-3.406l4.125 2.906c.897-.524 1.848-.899 2.844-1.187l.843-4.969c.947-.154 1.919-.158 2.875-.156zM24 16.75a7.43 7.43 0 0 0-5.156 2.156c-5.443 5.413.405 14.524 7.625 11.875C34.067 27.994 32.036 16.955 24 16.75z" fill="#f4f4f7"/>
</svg>
