<svg xmlns="http://www.w3.org/2000/svg" width="48" height="48">
    <path d="M10.8 2C5.923 2 2 5.901 2 10.713c0 2.457 1.03 4.653 2.687 6.235A19.975 19.975 0 0 0 3.387 24c0 2.479.472 4.85 1.3 7.052C3.03 32.634 2 34.83 2 37.287 2 42.1 5.923 46 10.8 46a8.887 8.887 0 0 0 6.438-2.768 20.754 20.754 0 0 0 6.821 1.165c2.356 0 4.622-.413 6.733-1.136C32.399 44.93 34.65 46 37.17 46c4.877 0 8.83-3.901 8.83-8.713 0-2.405-1.002-4.573-2.599-6.148a20.02 20.02 0 0 0 1.3-7.139c0-2.51-.451-4.914-1.3-7.14C44.998 15.287 46 13.119 46 10.714 46 5.9 42.047 2 37.17 2a8.855 8.855 0 0 0-6.408 2.74 20.693 20.693 0 0 0-6.703-1.137c-2.39 0-4.683.422-6.821 1.165A8.887 8.887 0 0 0 10.8 2zm-.118 3.672c1.023 0 2 .318 2.805.845-2.884 1.708-5.335 4.074-7.087 6.906a4.92 4.92 0 0 1-.827-2.71c0-2.75 2.322-5.041 5.109-5.041zm26.488 0c2.903 0 5.11 2.291 5.11 5.04a4.89 4.89 0 0 1-.71 2.507 20.745 20.745 0 0 0-7.087-6.79 5.16 5.16 0 0 1 2.687-.757zM23.94 6.925c2.483 0 4.834.518 6.97 1.456l-3.75 7.955a8.57 8.57 0 0 0-3.1-.582 8.57 8.57 0 0 0-3.072.582L16.44 8.644a17.185 17.185 0 0 1 7.5-1.72zm15.593 9.79c1.063 2.213 1.683 4.682 1.683 7.285 0 2.326-.45 4.56-1.3 6.585l-8.031-3.671c.34-.902.531-1.89.531-2.914a8.254 8.254 0 0 0-.561-2.943l7.678-4.342zm-31.39.554 8.15 3.613a8.201 8.201 0 0 0-.62 3.118c0 1.067.19 2.098.56 3.03l-7.795 4.284A16.76 16.76 0 0 1 6.754 24c0-2.381.498-4.667 1.388-6.731zm15.916 1.224c3.019 0 5.552 2.414 5.552 5.507 0 3.093-2.417 5.507-5.552 5.507-3.019 0-5.581-2.414-5.581-5.507 0-2.979 2.446-5.507 5.581-5.507zm-3.1 13.17a8.58 8.58 0 0 0 3.1.583 8.602 8.602 0 0 0 3.071-.553l4.46 7.634a17.156 17.156 0 0 1-7.53 1.748c-2.46 0-4.817-.505-6.94-1.427l3.838-7.984zM6.4 34.549a20.752 20.752 0 0 0 7.087 6.935 5.153 5.153 0 0 1-2.805.845c-2.787 0-5.109-2.291-5.109-5.04 0-1.025.318-1.96.827-2.74zm35.2.204a5.01 5.01 0 0 1 .68 2.535c0 2.75-2.323 5.041-5.11 5.041-.97 0-1.878-.28-2.657-.757a20.754 20.754 0 0 0 7.087-6.819z" fill="#f4f4f7"/>
</svg>
