<svg height="1814.17" viewBox="0 0 512 512" width="1814.17" xmlns="http://www.w3.org/2000/svg">
    <path d="M251.602 68.022c-25.465-.92-51.355 4.537-75.778 16.67-19.599 9.738-36.802 23.47-50.77 40.163l51.528 89.417c4.35-25.192 22.423-47.118 48.497-55.318 6.536-2.053 13.231-3.316 20.082-3.41h142.46c-26.705-53.712-79.998-85.486-136.02-87.524zm-136.4 69.336c-48.596 72.467-28.92 170.795 43.572 219.375 18.11 12.136 38.52 20.004 59.864 23.87l51.529-89.417c-22.797 8.432-49.235 4.833-69.336-11.746-10.208-8.418-17.788-19.656-21.976-32.205zm131.095 30.31c-31.948 0-57.97 26.033-57.97 57.97 0 31.938 26.022 57.97 57.97 57.97s57.97-26.032 57.97-57.97c0-31.937-26.022-57.97-57.97-57.97zm39.783 1.517c17.794 12.878 29.283 33.578 29.175 57.212-.086 15.757-5.383 31.209-15.156 43.572l-66.305 112.908c87.024 6.575 163.161-58.877 169.74-145.871 1.754-23.204-1.992-46.183-10.23-67.82z" fill="#dbdbdb"/>
</svg>
