<svg xmlns="http://www.w3.org/2000/svg" height="512" width="512">
    id=&quot;defs22&quot; /&gt;
    <path d="M322.542 72.986 272.63 106.26v91.507l49.913-29.116zm-133.1 16.637c-22.878 0-53.192 7.254-81.243 27.652-28.034 20.398-51.86 56.369-51.86 105.45 0 74.87 41.595 116.463 83.19 116.463 24.806 0 46.718-6.705 66.882-17.935 20.149-11.23 39.265-26.32 64.571-45.304 25.655-19.234 43.974-33.26 58.914-41.595 14.94-8.335 25.772-11.63 42.576-11.63 8.319 0 33.275 8.32 33.275 66.551 0 34.108-13.61 52.21-31.329 65.087-17.719 12.877-41.46 18.102-51.86 18.102V256l-49.912 33.275v133.102h49.913c22.877 0 53.19-7.254 81.242-27.652 28.034-20.398 51.86-56.369 51.86-105.45 0-74.87-41.595-116.463-83.19-116.463-24.806 0-46.718 6.705-66.882 17.935-20.149 11.23-39.265 26.32-64.571 45.304-25.655 19.234-43.974 33.26-58.914 41.595-14.94 8.335-25.772 11.63-42.576 11.63-8.319 0-33.275-8.32-33.275-66.551 0-34.107 13.61-52.21 31.329-65.087 17.719-12.877 41.46-18.102 51.86-18.102V260.16l49.912-37.434V89.623Zm49.912 224.609-49.913 33.275v91.507l49.913-33.275z" style="opacity:1;fill:#dbdbdb;fill-opacity:1"/>
</svg>
