<svg height="64" viewBox="0 0 16.933 16.933" width="64" xmlns="http://www.w3.org/2000/svg"><rect fill="#4d4d4d" height="13.758" rx=".825" stroke="#2a2a2a" stroke-linecap="round" stroke-linejoin="round" stroke-width=".529" width="13.758" x="1.588" y="1.587"/><rect fill="#4d4d4d" height="13.758" rx=".825" width="13.758" x="1.588" y="1.587"/><rect fill="#999" height="2.646" rx=".265" width="2.646" x="2.381" y="2.381"/><rect fill="#fff" height="2.646" rx=".265" width="2.646" x="5.556" y="2.381"/><rect fill="#ff5757" height="2.646" rx=".265" width="2.646" x="8.731" y="2.381"/><rect fill="#fff" height="2.646" rx=".265" width="2.646" x="11.906" y="2.381"/><rect fill="#fff" height="2.646" rx=".265" width="2.646" x="2.381" y="5.556"/><rect fill="#fff" height="2.646" rx=".265" width="2.646" x="5.556" y="5.556"/><rect fill="#ff5757" height="2.646" rx=".265" width="2.646" x="8.731" y="5.556"/><rect fill="#fff" height="2.646" rx=".265" width="2.646" x="11.906" y="5.556"/><rect fill="#fff" height="2.646" rx=".265" width="2.646" x="2.381" y="8.731"/><rect fill="#999" height="2.646" rx=".265" width="2.646" x="5.556" y="8.731"/><rect fill="#fff" height="2.646" rx=".265" width="2.646" x="8.731" y="8.731"/><rect fill="#4ac73e" height="2.646" rx=".265" width="2.646" x="11.906" y="8.731"/><g fill="#fff"><rect height="2.646" rx=".265" width="2.646" x="2.381" y="11.906"/><rect height="2.646" rx=".265" width="2.646" x="5.556" y="11.906"/><rect height="2.646" rx=".265" width="2.646" x="8.731" y="11.906"/><rect height="2.646" rx=".265" width="2.646" x="11.906" y="11.906"/></g></svg>