<svg height="64" viewBox="0 0 16.933 16.933" width="64" xmlns="http://www.w3.org/2000/svg" xmlns:xlink="http://www.w3.org/1999/xlink"><radialGradient id="a" cx="13.240424" cy="53.613787" gradientUnits="userSpaceOnUse" r="36.124612"><stop offset="0" stop-color="#ca564d" stop-opacity=".019"/><stop offset="1" stop-color="#fd5c4f"/></radialGradient><radialGradient id="b" cx="61.240424" cy="60.313787" gradientUnits="userSpaceOnUse" r="36.124612"><stop offset="0" stop-color="#ca564d" stop-opacity=".019"/><stop offset="1" stop-color="#f35e4d"/></radialGradient><g transform="translate(0 -280.07)"><path d="m1.323 282.72h14.287v11.642h-14.287z" fill="#fff" opacity=".15" stroke="#000" stroke-width=".529"/><path d="m1.323 282.72h14.287v11.636h-14.287z" fill="#fff"/><path d="m2.381 283.771h12.171v9.525h-12.171z" fill="#ef746d"/><path d="m12.678 26.002a36.125 36.125 0 0 0 -3.678.228v23.77h37.668a36.125 36.125 0 0 0 -33.99-23.998z" fill="url(#a)" transform="matrix(.26458 0 0 .26458 0 280.07)"/><path d="m55 33.22a36.125 36.125 0 0 0 -25.068 16.78h25.068z" fill="url(#b)" transform="matrix(.26458 0 0 .26458 0 280.07)"/><circle cx="12.171" cy="286.15" fill="#ffdb8a" r="1.323"/></g></svg>