<svg height="512" width="512" xmlns="http://www.w3.org/2000/svg">
    <path d="M164.563 438.887c-3.5-2.085-88.222-86.635-90.825-90.635-2.432-3.742-2.782-8.18-.936-11.87 1.5-3 258.049-259.87 262.309-262.652 3.54-2.302 8.483-2.8 11.447-1.153 3.055 1.698 91.854 90.836 92.86 93.227 1.212 2.863 1.277 7.018.143 9.145-1.34 2.511-260.285 262.013-263.256 263.824-3.47 2.114-8.319 2.163-11.748.117M291.96 291.594l121.226-121.226-35.75-35.75-35.75-35.75-13.588 13.588-13.588 13.587 11.7 11.834c12.578 12.725 13.937 14.9 12.87 20.592-.672 3.586-4.995 7.995-8.474 8.648-6.024 1.13-7.194.406-20.32-12.574l-12.203-12.072-7.047 7.047-7.047 7.047 21.884 21.965c23.492 23.579 24.019 24.275 22.72 30.04-1.752 7.772-10.648 11.699-16.89 7.455-1.279-.87-11.715-10.922-23.192-22.338l-20.865-20.758-6.879 6.85-6.879 6.849 11.83 12.015c12.174 12.364 12.807 13.306 12.807 19.052 0 4.185-3.81 8.9-8.132 10.065-5.697 1.533-7.727.292-20.921-12.8l-11.994-11.905-7.042 7.043-7.043 7.042 11.814 12.002c12.557 12.758 13.697 14.527 12.789 19.854-1.414 8.295-10.583 12.002-17.576 7.112-1.69-1.181-7.64-6.747-13.224-12.365l-10.152-10.218-7.095 7.067-7.094 7.068 21.748 21.787c11.964 11.983 22.09 22.709 22.508 23.833 1.84 4.948.388 9.971-3.776 13.065-2.966 2.202-5.207 2.756-8.893 2.197-2.642-.4-4.927-2.45-25.237-22.65l-22.333-22.21-7.05 7.051-7.051 7.05 11.708 11.81c12.66 12.769 14.034 14.948 12.974 20.595-.691 3.683-4.987 7.979-8.67 8.67-5.607 1.052-7.814-.339-20.597-12.975l-11.825-11.69-7.05 7.051-7.051 7.051 11.754 11.798c6.465 6.489 12.098 12.718 12.516 13.842 3.155 8.47-3.62 16.662-12.62 15.257-2.615-.407-4.328-1.818-14.974-12.329-6.613-6.527-12.335-11.87-12.716-11.87-.381 0-4.441 3.76-9.022 8.355l-8.331 8.355 35.56 35.56c19.558 19.562 35.727 35.562 35.928 35.562.201 0 54.921-54.554 121.593-121.226" fill="#dbdbdb"/>
</svg>
