<svg height="24" width="24" xmlns="http://www.w3.org/2000/svg">
    <path d="M257.795 88.924c-26.18 0-50.625 9.185-67.847 26.403-17.222 17.224-26.403 41.667-26.403 67.847h53.857c0-14.213 4.282-23.43 10.624-29.768 6.342-6.34 15.557-10.625 29.77-10.625 14.212 0 23.427 4.309 29.768 10.625 6.341 6.339 10.624 15.555 10.624 29.768 0 12.344-2.434 17.647-5.68 22.3-3.248 4.632-8.593 8.97-16.515 14.517-7.922 5.541-18.366 11.91-28.086 23.247-9.72 11.342-17.04 28.58-17.04 47.65v13.465h53.857V290.89c0-7.853 1.093-9.235 3.996-12.623 2.903-3.393 9.289-7.859 18.198-14.095 8.909-6.237 20.393-14.538 29.769-27.98 9.375-13.438 15.357-31.7 15.357-53.017 0-26.18-9.18-50.623-26.402-67.847-17.222-17.218-41.667-26.403-67.848-26.403zM230.867 358.21v53.858h53.857V358.21z" fill="#f4f4f7"/>
</svg>
