<svg height="64" viewBox="0 0 16.933 16.933" width="64" xmlns="http://www.w3.org/2000/svg" xmlns:xlink="http://www.w3.org/1999/xlink"><linearGradient id="a" gradientTransform="matrix(.2399 0 0 .25621 -81.085 -126.64)" gradientUnits="userSpaceOnUse" x1="352.61" x2="394.95" y1="507.72" y2="546.21"><stop offset="0" stop-color="#fafdfc"/><stop offset="1" stop-color="#c6efff"/></linearGradient><linearGradient id="b" gradientTransform="matrix(.93636 0 0 1 .53883 0)" gradientUnits="userSpaceOnUse" x1="2.5804" x2="14.354" y1="8.326" y2="8.326"><stop offset="0" stop-color="#1478f0"/><stop offset="1" stop-color="#145af0"/></linearGradient><filter id="c" color-interpolation-filters="sRGB" height="1.054" width="1.054" x="-.027" y="-.027"><feGaussianBlur stdDeviation=".61875"/></filter><linearGradient id="d" gradientUnits="userSpaceOnUse" x1="1.190604" x2="15.7424" y1="15.739752" y2="1.187956"><stop offset="0" stop-color="#3250e6"/><stop offset="1" stop-color="#0a82f0" stop-opacity=".996078"/></linearGradient><rect fill="#141414" filter="url(#c)" height="55" opacity=".3" ry="15" stroke-linecap="round" stroke-width="2.74436" transform="scale(.26457812)" width="55" x="4.5" y="4.5"/><rect fill="url(#d)" height="14.551796" ry="3.968672" stroke-linecap="round" stroke-width=".726098" width="14.551796" x="1.190602" y="1.190602"/><path d="m12.135 4.7435c-.98108-.85268-2.2837-1.3223-3.6681-1.3223-1.3843 0-2.687.4696-3.6681 1.3223-.9896.86009-1.5346 2.0064-1.5346 3.2276 0 1.1657.4968 2.2628 1.4024 3.108-.016331.03922-.02929.08049-.037562.12388l-.29756 1.5632c-.035382.18578.012169.29657.058239.35681.05327.0696.13222.10795.22234.10795.068042 0 .14117-.02144.21737-.06374l1.7308-.96029c.59924.20599 1.2435.314 1.9065.314 1.3843 0 2.687-.4696 3.6681-1.3223.98958-.86006 1.5346-2.0063 1.5346-3.2276 0-1.2214-.54498-2.3676-1.5346-3.2279z" fill="url(#a)" stroke="url(#b)" stroke-width=".64005"/><g fill="#5e4aa6"><circle cx="-311.36722" cy="-328.5" r="0" stroke-width=".26458"/><circle cx="-20.449221" cy="6.3115" fill-rule="evenodd" r="0" stroke-width=".26458"/><g stroke-width=".264578"><circle cx="-334.41132" cy="-342.26688" r="0"/><circle cx="-43.494461" cy="-7.455177" fill-rule="evenodd" r="0"/></g></g></svg>