<svg width="512" height="512" xmlns="http://www.w3.org/2000/svg">
    <path d="M471.95 253.05c0 120.9-98.01 218.9-218.9 218.9-120.9 0-218.9-98.01-218.9-218.9 0-120.9 98.01-218.9 218.9-218.9 120.9 0 218.9 98.01 218.9 218.9" fill="#84a3d0" fill-rule="evenodd"/>
    <path d="m314.928 116.282-40.299 14.941c-79.164 23.324-135.316 73.995-113.082 151.814l33.351-44.468c-22.145-56.63 33.351-77.819 79.731-94.494-15.541 69.78-38.298 161.896-55.24 220.56H155.81l-18.366 18.41h31.272c60.054 1.046 124.678-.433 160.152-21.889-24.88 2.646-35.563 3.035-74.695 3.48 6.726-29.838 14.986-65.88 20.844-87.891 29.36-1.779 53.806-8.95 80.943-23.624 83.555-47.947 54.974-125.589-23.968-126.456-4.47 0-9.594.223-19.8.7m-7.415 28.327s74.225-10.64 80.232 32.962c6.006 43.603-98.333 63.413-101.698 54.44" fill="#f9f9f9"/>
</svg>
