<svg height="64" viewBox="0 0 64 64" width="64" xmlns="http://www.w3.org/2000/svg" xmlns:xlink="http://www.w3.org/1999/xlink"><filter id="a" color-interpolation-filters="sRGB" height="1.054" width="1.054" x="-.027" y="-.027"><feGaussianBlur stdDeviation=".61875"/></filter><linearGradient id="b" gradientUnits="userSpaceOnUse" x1="4.5" x2="59.5" y1="59.49" y2="4.49"><stop offset="0" stop-color="#02db96"/><stop offset="1" stop-color="#13d39b"/></linearGradient><rect fill="#141414" filter="url(#a)" height="55" opacity=".3" ry="15" stroke-linecap="round" stroke-width="2.7444" width="55" x="4.5" y="4.5"/><rect fill="url(#b)" height="55" ry="15" stroke-linecap="round" stroke-width="2.7444" width="55" x="4.5" y="4.5"/><g fill="#5e4aa6"><circle cx="-1330.8" cy="-1261.2" r="0"/><circle cx="-1336.4259" cy="-1272.89" r="0"/><circle cx="-236.87599" cy="-7.435" fill-rule="evenodd" r="0"/><circle cx="-1336.4259" cy="-1272.89" r="0"/><circle cx="-236.87599" cy="-7.435" fill-rule="evenodd" r="0"/><circle cx="-1238.626" cy="-1287.89" r="0"/><circle cx="-139.05299" cy="-22.4156" fill-rule="evenodd" r="0"/><g stroke-width="1.000007"><circle cx="-1168.559703" cy="-1267.800481" r="0"/><circle cx="-1099.619723" cy="-1259.749933" r="0"/><circle cx="-1076.601959" cy="-1285.526842" r="0"/><circle cx="-1087.260469" cy="-1258.842866" r="0"/><circle cx="-1168.559703" cy="-1267.800481" r="0"/><circle cx="-1099.619723" cy="-1259.749933" r="0"/><circle cx="-1076.601959" cy="-1285.526842" r="0"/><circle cx="-1087.260469" cy="-1258.842866" r="0"/><circle cx="-1168.559136" cy="-1267.80067" r="0"/><circle cx="-1099.619156" cy="-1259.750122" r="0"/><circle cx="-1076.601392" cy="-1285.527031" r="0"/><circle cx="-1087.259902" cy="-1258.843055" r="0"/></g></g><path d="m24 9c-8.285 0-15 6.715-15 15s6.715 15 15 15 15-6.715 15-15-6.715-15-15-15m9 5 3 3-16 17-8-8 3-3 5 5m13-14" fill="#f9f9f9" transform="scale(1.3333333)"/></svg>