<svg enable-background="new" height="16.000019" width="16.000044" xmlns="http://www.w3.org/2000/svg" xmlns:xlink="http://www.w3.org/1999/xlink"><filter id="a" color-interpolation-filters="sRGB"><feBlend in2="BackgroundImage" mode="darken"/></filter><g filter="url(#a)" transform="translate(-1125.0002 655.00002)"/><g fill="#4c5263" transform="translate(-883.99997 -71.99998)"><path d="m892 72-7 1v10.75l7 4.25 7-4.25v-10.75zm0 2 5 .75v8l-5 3-5-3v-8z"/><path d="m892 75a2 2 0 0 0 -2 2 2 2 0 0 0 2 2 2 2 0 0 0 2-2 2 2 0 0 0 -2-2z"/><path d="m892 80c-3.99969-.002-4 2-4 2v1h8v-1s-.00031-2.002-4-2z"/></g></svg>