<svg xmlns="http://www.w3.org/2000/svg" width="48" height="48">
    <path d="M24 2C11.85 2 2 11.849 2 24c0 12.152 9.85 22 22 22s22-9.848 22-22c0-12.151-9.85-22-22-22zm-.265 3.278c10.114 0 18.335 8.41 18.335 18.757 0 10.348-8.221 18.758-18.335 18.758S5.4 34.383 5.4 24.035c0-10.347 8.22-18.757 18.335-18.757zm0 1.131c-9.516 0-17.229 7.892-17.229 17.626 0 9.735 7.713 17.626 17.229 17.626 9.515 0 17.229-7.89 17.229-17.626 0-9.734-7.714-17.626-17.23-17.626zm.472 3.372c1.833 0 3.32 1.522 3.32 3.396 0 1.874-1.487 3.395-3.32 3.395-1.832 0-3.319-1.52-3.319-3.395 0-1.874 1.487-3.396 3.32-3.396zM11.29 17.433h24.89c-.17 1.078-.689 1.654-1.452 1.945l-7.133 1.957v6.603l1.601 9.903c.253.786-1.801 1.144-2.178 0l-3.077-9.396-2.961 9.396c-.298 1.053-2.36.957-2.178 0l1.244-10.21v-6.567l-7.249-1.957a2.59 2.59 0 0 1-1.51-1.674z" fill="#dbdbdb"/>
</svg>
