<svg height="512" width="512" xmlns="http://www.w3.org/2000/svg">
    <g fill="#dbdbdb">
        <path d="M381.138 111.292c-3.944 0-7.119 3.102-7.119 6.956v16.469a63.34 63.34 0 0 0-16.819 6.815l-11.914-11.642c-2.79-2.725-7.278-2.725-10.062 0l-11.696 11.429c-2.79 2.725-2.79 7.111 0 9.831l11.914 11.642a60.351 60.351 0 0 0-6.974 16.433h-16.855c-3.944 0-7.12 3.103-7.12 6.956v16.186c0 3.853 3.176 6.956 7.12 6.956h16.855a60.33 60.33 0 0 0 6.974 16.433l-11.914 11.642c-2.79 2.725-2.79 7.111 0 9.831l11.696 11.429c2.79 2.725 7.279 2.725 10.062 0l11.914-11.642a63.362 63.362 0 0 0 16.819 6.815v16.47c0 3.853 3.175 6.955 7.12 6.955h16.564c3.944 0 7.119-3.102 7.119-6.956v-16.469a63.34 63.34 0 0 0 16.819-6.815l11.914 11.642c2.79 2.725 7.278 2.725 10.062 0l11.696-11.429c2.79-2.725 2.79-7.111 0-9.831l-11.914-11.642a60.351 60.351 0 0 0 6.974-16.433h16.855c3.944 0 7.12-3.103 7.12-6.956V186.18c0-3.853-3.176-6.956-7.12-6.956h-16.855a60.33 60.33 0 0 0-6.974-16.433l11.914-11.642c2.79-2.726 2.79-7.111 0-9.831l-11.696-11.429c-2.79-2.725-7.279-2.725-10.062 0l-11.914 11.642a63.363 63.363 0 0 0-16.82-6.815v-16.47c0-3.853-3.174-6.955-7.118-6.955zm8.282 54.621c16.037 0 29.03 12.69 29.03 28.365 0 15.669-12.987 28.364-29.03 28.364-16.036 0-29.029-12.69-29.029-28.364 0-15.67 12.987-28.365 29.03-28.365z"/>
        <path d="M207.092 57.843c-49.51 0-89.78 39.79-89.78 89.303 0 49.51 40.27 89.779 89.78 89.779s89.78-40.269 89.78-89.78c0-49.51-40.27-89.302-89.78-89.302m-75.791 201.772C86.3 263.9 47.8 326.177 61.308 398.15l10.133 55.513h271.272l10.62-55.513c18.003-95.97-57.155-174.762-115.848-121.648-29.043 26.286-31.775 26.286-60.824 0-14.673-13.28-30.374-18.324-45.379-16.895" fill-rule="evenodd"/>
    </g>
</svg>
