<svg height="512" width="512" xmlns="http://www.w3.org/2000/svg">
    <g fill="#f4f4f7">
        <path d="M152.514 216.23v43.28c55.252 0 100.126 44.99 100.126 100.386h43.396c0-79.347-64.38-143.661-143.52-143.661"/>
        <path d="M152.6 121.525v47.836c104.906 0 190.086 85.343 190.086 190.454h47.977c0-131.571-106.74-238.29-238.062-238.29"/>
        <path d="M201.849 390.326c-2.82 2.037-27.266-16.265-30.744-16.275-3.48-.01-28.03 18.153-30.838 16.101-2.808-2.053 7.043-30.957 5.978-34.269-1.066-3.312-25.925-21.048-24.84-24.352 1.084-3.305 31.618-2.868 34.438-4.904 2.82-2.037 12.005-31.162 15.483-31.152 3.478.01 12.498 29.185 15.306 31.237 2.808 2.053 33.346 1.789 34.411 5.1 1.066 3.312-23.895 20.905-24.978 24.212-1.084 3.306 8.604 32.266 5.784 34.304" fill-rule="evenodd"/>
    </g>
</svg>
