<svg height="512" width="512" xmlns="http://www.w3.org/2000/svg">
    <g fill="#f4f4f7">
        <path d="M188.593 113.575c-33.503 33.004-33.604 86.689-.147 119.648l15.93-15.693c-24.85-24.48-24.737-63.747.147-88.262l-15.926-15.688m105.522 15.55c24.85 24.48 25.034 64.031.146 88.555l15.931 15.693c33.503-33.004 33.311-86.972-.146-119.941z"/>
        <path d="M138.558 64.288c-61.104 60.193-61.288 158.105-.27 218.222l29.054-28.623c-45.323-44.646-45.118-116.267.266-160.978l-29.055-28.622M331.014 92.65c45.323 44.646 45.655 116.787.267 161.498l29.055 28.622c61.104-60.193 60.757-158.636-.267-218.742L331.014 92.65"/>
    </g>
    <path d="m255.703 173.128.13 292.368" fill="none" stroke="#f4f4f7" stroke-linecap="round" stroke-width="23.174"/>
</svg>
