<svg height="64" viewBox="0 0 16.933 16.933" width="64" xmlns="http://www.w3.org/2000/svg"><g transform="translate(0 -280.067)"><rect height="13.758" rx=".794" style="opacity:.3;fill:#e6e6e6;stroke:#000;stroke-width:.529;stroke-linecap:round;stroke-linejoin:round" width="13.758" x="1.588" y="281.654"/><rect fill="#fafafa" height="13.758" rx=".794" width="13.758" x="1.588" y="281.654"/><path d="m6.482 286.549a1.98 1.98 0 0 0 -1.984 1.984c0 1.1.885 1.985 1.984 1.985h3.969a1.98 1.98 0 0 0 1.984-1.985 1.98 1.98 0 0 0 -1.984-1.984z" fill="#ee756b" opacity=".75" stroke="#156eaf" stroke-width=".529"/><path d="m3.175 282.978a.265.265 0 0 1 -.53 0 .265.265 0 1 1 .53 0z" fill-rule="evenodd" opacity=".3"/><path d="m6.482 286.549a1.98 1.98 0 0 0 -1.984 1.984c0 1.1.885 1.985 1.984 1.985h3.969a1.98 1.98 0 0 0 1.984-1.985 1.98 1.98 0 0 0 -1.984-1.984z" fill="#45a4e9"/><path d="m10.451 286.814a1.721 1.721 0 0 1 0 3.44 1.72 1.72 0 0 1 0-3.44z" fill="#fff" stroke="#000" stroke-opacity=".255" stroke-width=".265"/><path d="m14.287 282.978a.265.265 0 0 1 -.529 0 .265.265 0 1 1 .53 0zm-11.112 11.112a.265.265 0 0 1 -.53 0 .265.265 0 1 1 .53 0zm11.112 0a.265.265 0 0 1 -.529 0 .265.265 0 1 1 .53 0z" fill-rule="evenodd" opacity=".3"/><path d="m10.451 286.814a1.721 1.721 0 0 1 0 3.44 1.72 1.72 0 0 1 0-3.44z" fill="#fff"/></g></svg>