<svg width="64" height="64" xmlns="http://www.w3.org/2000/svg"><g transform="translate(0 -1058.5)"><rect x="8" y="1062.5" width="48" height="56" ry="3.17" fill="#26a69a"/><rect x="9" y="1063.5" width="46" height="54" ry="2.118" fill="#4db6ac"/><path fill="#e0f2f1" d="M15.989 1109.5h26.943v2H15.989z"/><rect x="15" y="1097.5" width="45" height="10" rx="2" ry="2" fill="#ffa726"/><rect x="15.989" y="1098.5" width="43.011" height="8" rx="1" ry="1" fill="#ffb74d"/><g fill="#e0f2f1"><rect x="15.989" y="1070.5" width="8.981" height="2" ry="0"/><path d="M15.989 1077.5h30.934v2H15.989zM15.989 1081.5h26.943v2H15.989zM15.989 1085.5h29.936v2H15.989zM15.989 1089.5H38.94v2H15.989zM15.989 1093.5h27.94v2h-27.94z"/></g><path d="M17.985 1103.4v3h.998v-3h-.998zm5.987 0v3h.998v-3h-.998zm5.987 0v3h.998v-3h-.998zm5.988 0v3h.997v-3h-.997zm5.987 0v3h.998v-3h-.998zm5.987 0v3h.998v-3h-.998zm5.987 0v3h.998v-3h-.998zm-32.93 1v2h.998v-2h-.998zm5.987 0v2h.998v-2h-.998zm5.988 0v2h.997v-2h-.997zm5.987 0v2h.998v-2h-.998zm5.987 0v2h.998v-2h-.998zm5.987 0v2h.998v-2h-.998z" fill="#f57c00"/><path d="M46.923 1112.5v-8h-1.996l2.994-4 2.994 4h-1.996v8z" fill="#37474f" fill-rule="evenodd"/><path d="M47.921 1115.5a1.996 2 0 0 1-1.996-2 1.996 2 0 0 1 1.996-2 1.996 2 0 0 1 1.996 2 1.996 2 0 0 1-1.996 2zm0-1a.998 1 0 0 0 .998-1 .998 1 0 0 0-.998-1 .998 1 0 0 0-.998 1 .998 1 0 0 0 .998 1z" fill="#37474f"/></g></svg>