<svg xmlns="http://www.w3.org/2000/svg" width="48" height="48">
    <path d="M36.971 3.188a7.814 7.814 0 0 0-.75.025c-1.955.163-3.177.811-4.562 2.767-1.385 1.955-6.52 8.635-7.66 10.427-1.1 1.728-.409 3.03-.357 3.123-.048.038-8.442 6.657-9.58 7.55-1.14.897-1.484 1.03-2.49 2.56C10.479 31.304 7.597 34.255 2 42.648c0 0 3.584-2.531 6.517-3.59 2.933-1.06 7.335-2.445 9.616-1.956 2.281.49 2.358.492 2.52-.811.164-1.304 1.23-4.152 2.534-6.026 1.303-1.873 5.533-5.3 5.533-5.3s-2.2-.972-3.258-1.869c-1.052-.89-1.786-3.543-1.795-3.578.052-.126.539-1.233 1.389-1.635.729-.345 2.503-.226 3.664.811 1.203 1.075 1.965 2.07 1.919 3.493-.035 1.056-1.151 2.239-1.845 2.754.515.196 2.26.017 2.62-.221 1.072-.714 12.457-8.802 14.005-10.268 1.548-1.466-.24-5.37-2.52-8.14-1.997-2.424-4.119-3.101-5.928-3.124z" fill="#dbdbdb"/>
</svg>
