<svg height="512" width="512" xmlns="http://www.w3.org/2000/svg">
    <g fill="#dbdbdb" fill-rule="evenodd">
        <path d="M255.36 396.16c-25.05 0-45.356-20.306-45.356-45.355 0-17.464 9.87-32.648 48".338-40.202l21.017-126.101 21.017 126.1c14.467 7.58 24.339 22.739 24.339 40.203 0 25.05-20.307 45.356-45.356 45.356zm181.42-120.946c0-100.197-81.225-181.422-181.422-181.422-100.196 0-181.422 81.225-181.422 181.422 0 26.384 5.632 51.452 15.76 74.068-9.89 4.068-18.995 8.495-27.21 13.235C50.42 335.9 43.7 306.34 43.7 275.213c0-116.896 94.763-211.659 211.66-211.659 116.895 0 211.658 94.763 211.658 211.659 0 31.127-6.72 60.686-18.787 87.303-8.214-4.74-17.32-9.167-27.21-13.235 10.128-22.616 15.76-47.684 15.76-74.068zm0 0"/>
        <path d="m92.239 238.407 57.514 18.688 9.344-28.757-57.514-18.688zm52.963-88.793 35.545 48.925 24.463-17.773-35.546-48.925zm95.038-40.704v60.473h30.238V108.91zm100.814 22.931-35.545 48.925 24.462 17.773 35.546-48.925zm68.082 77.809-57.515 18.688 9.344 28.757 57.514-18.688zm9.344 102.966-57.515-18.687-9.344 28.757 57.515 18.687zm-316.897 28.757 57.514-18.687-9.344-28.757-57.514 18.687zm0 0"/>
    </g>
</svg>
