<svg width="512" height="512" xmlns="http://www.w3.org/2000/svg">
    <path d="M148.8 409.266c-32.47-3.962-44.342-17.515-41.74-47.73 1.253-14.18 5.575-23.652 15.994-34.444 4.589-4.736 8.337-9.272 8.337-10.005 0-.68-3.028-5.99-6.723-11.78-18.81-29.228-27.827-69.674-23.238-103.691 11.565-85.456 88.11-145.913 174.487-137.83 66.967 6.257 122.568 52.787 140.177 117.193 3.601 13.34 4.175 19.076 4.322 39.966.053 21.518-.467 26.32-4.322 40.02-5.577 20.064-10.632 31.056-22.038 48.304l-9.325 14.02 9.698 8.498c16.369 14.327 22.665 30.175 18.65 46.797-2.548 10.939-6.617 16.408-15.795 21.73-14.594 8.392-22.558 9.486-70.342 9.539-24.185.053-51.385-.213-60.443-.52-9.178-.307-37.099-.214-62.165.267-25.066.466-50.078.306-55.547-.36m98.489-16.369c18.396-3.068 27.614-10.992 27.36-23.452-.213-8.284-6.363-19.703-14.18-26.053-24.44-20.316-82.495-28.4-111.616-15.848-16.728 7.244-27.307 22.665-27.307 39.754-.053 21.37 7.657 25.693 48.878 27.2 31.576 1.2 63.471.413 76.865-1.774m106.253 1.827c23.612-1.667 33.924-4.589 40.754-11.619 4.175-4.322 4.789-6.15 4.789-14.487 0-7.977-.787-10.685-5.056-16.568-4.843-6.724-20.89-19.277-24.706-19.277-.987 0-7.71 4.376-15.007 9.792-15.008 11.045-34.965 21.157-49.759 25.172-17.982 4.896-20.743 5.937-20.743 8.031 0 1.094-1.508 4.79-3.282 8.391-5.523 10.632-5.883 10.312 21.104 10.885 13.5.307 25.946.734 27.774.88 1.827.161 12.606-.36 24.025-1.146m-48.197-36.112c23.345-7.083 44.088-20.116 62.631-39.393 36.578-37.832 48.824-93.22 31.79-143.872-6.724-19.903-16.569-36.111-31.376-51.692-27.307-28.815-60.55-44.236-98.796-46.223-42.675-2.135-79.467 11.205-109.175 39.446-23.038 21.984-37.672 48.358-43.355 78.16-3.122 16.154-2.134 47.263 1.974 62.737 4.016 15.114 17.61 41.794 25.947 51.066l7.19 7.924 9.791-1.828c14.848-2.655 39.714-2.08 56.589 1.307 28.134 5.737 52.32 20.317 60.71 36.792 6.203 11.94 5.27 11.833 26 5.47m-69.768-143.139c-8.391-4.695-13.607-28.04-9.645-43.355 7.764-30.535 31.736-20.53 31.736 13.234 0 22.09-10.686 36.631-22.091 30.121m58.722-1.934c-5.883-6.203-8.858-15.314-8.858-28.08 0-28.815 17.77-42.475 28.508-21.892 12.766 24.6-3.695 66.594-19.65 49.919" fill="none" stroke="#dbdbdb" stroke-width="22.304"/>
</svg>
