<svg height="64" width="64" xmlns="http://www.w3.org/2000/svg"><rect fill="#4992fd" height="54" rx="15" stroke="#2f6bc6" stroke-linecap="round" stroke-linejoin="round" stroke-width="2" width="54" x="5" y="5"/><rect fill="#4992fd" height="54" rx="15" width="54" x="5" y="5"/><path d="m17.166 22a2.15 2.15 0 0 0 -2.166 2.143v12.143c0 3.164 2.576 5.714 5.777 5.714h18.057a2.15 2.15 0 0 0 2.166-2.142v-12.143c0-3.166-2.576-5.715-5.777-5.715h-14.445zm31.564.004c-.425-.032-.908.176-1.37.635-1.62 1.614-3.519 2.976-4.847 4.906-.547.794-.51 1.846-.513 2.836-.003.543.002 1.083 0 1.619.002.536-.003 1.076 0 1.619.004.99-.034 2.041.513 2.836 1.328 1.93 3.228 3.292 4.848 4.906.46.46.944.666 1.369.635.708-.053 1.252-.771 1.252-2.104 0-2.608.038-5.248 0-7.892.038-2.645 0-5.284 0-7.893 0-1.332-.544-2.051-1.252-2.103z" fill="#fff"/></svg>