<svg enable-background="new" height="16" width="16.0002" xmlns="http://www.w3.org/2000/svg" xmlns:xlink="http://www.w3.org/1999/xlink"><filter id="a" color-interpolation-filters="sRGB"><feBlend in2="BackgroundImage" mode="darken"/></filter><g filter="url(#a)" transform="translate(-1105.0315 675)"/><g fill="#4c5263" transform="translate(-864.03125 -52.000002)"><path d="m866.03125 53c-1.108 0-2 .892-2 2v10c0 1.108.892 2 2 2h12c1.108 0 2-.892 2-2v-10c0-1.108-.892-2-2-2zm-.03125 2h12v10h-12z"/><path d="m869 55.999998h1v1c.65424 0 1.2022.41808 1.4082 1h-1.4082v1c.831 0 1.5.669 1.5 1.5s-.669 1.5-1.5 1.5v1h-1v-1c-.65424 0-1.20221-.41808-1.4082-1h1.4082v-1c-.831 0-1.5-.669-1.5-1.5s.669-1.5 1.5-1.5zm0 2c-.277 0-.5.223-.5.5s.223.5.5.5zm1 2v1c.277 0 .5-.223.5-.5s-.223-.5-.5-.5zm3 2h4v1h-4z"/></g></svg>