<svg xmlns="http://www.w3.org/2000/svg" width="48" height="48">
    <path d="M5.671 3.5A3.668 3.668 0 0 0 2 7.184v33.632A3.668 3.668 0 0 0 5.671 44.5h36.617a3.679 3.679 0 0 0 3.684-3.684V7.184A3.679 3.679 0 0 0 42.288 3.5H5.67zm2.027 2.898h14.366v6.741H5.414V8.67a2.273 2.273 0 0 1 2.284-2.271zm17.51 0h15.066a2.273 2.273 0 0 1 2.284 2.272v4.47h-17.35V6.397zM5.414 16.295h16.65v6.041H5.414v-6.041zm19.794 0h17.35v6.041h-17.35v-6.041zM5.414 25.492h16.65v16.11H7.698a2.273 2.273 0 0 1-2.284-2.272V25.492zm19.794 0h17.35v6.041h-17.35v-6.041zm0 9.197h17.35v4.641a2.273 2.273 0 0 1-2.284 2.272H25.208V34.69z" fill="#f4f4f7"/>
</svg>
