<svg height="64" viewBox="0 0 16.933 16.933" width="64" xmlns="http://www.w3.org/2000/svg" xmlns:xlink="http://www.w3.org/1999/xlink"><filter id="a" color-interpolation-filters="sRGB" height="1.054" width="1.054" x="-.027" y="-.027"><feGaussianBlur stdDeviation=".61875"/></filter><linearGradient id="b" gradientUnits="userSpaceOnUse" x1="5.33934" x2="19.89124" y1="19.9746" y2="5.4227"><stop offset="0" stop-color="#dee0e2"/><stop offset="1" stop-color="#f1f3f5" stop-opacity=".99608"/></linearGradient><filter id="c" color-interpolation-filters="sRGB" height="1.3703" width="1.1525" x="-.076235" y="-.18514"><feGaussianBlur stdDeviation="1.62"/></filter><linearGradient id="d" gradientTransform="matrix(1.1339 0 0 1.1112 -477.22 -574.48)" gradientUnits="userSpaceOnUse" x1="428.37" x2="428.37" y1="530.8" y2="525.8"><stop offset="0" stop-color="#da4453"/><stop offset="1" stop-color="#fa4e5f"/></linearGradient><linearGradient id="e" gradientUnits="userSpaceOnUse" x1="14.46773" x2="14.46773" y1="9.79099" y2="15.34717"><stop offset="0" stop-color="#31363b"/><stop offset="1" stop-color="#4d4d4d"/></linearGradient><linearGradient id="f" gradientUnits="userSpaceOnUse" x1="13.27712" x2="13.27712" y1="9.79099" y2="15.34717"><stop offset="0" stop-color="#7f8c8d"/><stop offset="1" stop-color="#afb0b3"/></linearGradient><linearGradient id="g" gradientUnits="userSpaceOnUse" x1="15.65834" x2="15.65834" y1="15.34717" y2="9.79099"><stop offset="0" stop-color="#afb0b3"/><stop offset="1" stop-color="#bdc3c7"/></linearGradient><linearGradient id="h" gradientUnits="userSpaceOnUse" x1="16.45208" x2="16.45208" y1="15.34717" y2="9.79099"><stop offset="0" stop-color="#4d4d4d"/><stop offset="1" stop-color="#585858"/></linearGradient><g fill="#5e4aa6" stroke-width=".26458"><circle cx="-330.38" cy="-328.37" r="0"/><circle cx="-312.55" cy="-328.38" r="0"/><circle cx="-295.13" cy="-341.25" r="0"/></g><g transform="translate(-4.1491 -4.2348)"><rect fill="#141414" filter="url(#a)" height="55" opacity=".3" ry="15" stroke-linecap="round" stroke-width="2.7444" transform="matrix(.26458 0 0 .26458 4.1493 4.2348)" width="55" x="4.5" y="4.5"/><rect fill="url(#b)" height="14.552" ry="3.9687" stroke-linecap="round" stroke-width=".7261" width="14.552" x="5.3399" y="5.4254"/><path d="m6.4992 22.103 7.5 21h13.5l3-8.4004 3 8.4004h9l3-8.4004 3 8.4004h9l-7.5-21h-9l-3 8.4004-3-8.4004h-13.5l-5.25 15-5.25-15z" filter="url(#c)" opacity=".25" stroke-width="1.5" transform="matrix(.26458 0 0 .26458 4.1493 4.2348)"/><g stroke-width=".39687"><path d="m5.7366 9.7909h1.1906l1.389 3.9687 1.389-3.9687h1.1906l-1.9843 5.5561-1.1906-.000026z" fill="url(#d)"/><path d="m10.102 15.347 1.9843-5.5561h1.1906l-1.9843 5.5561zm3.9687 0 1.9843-5.5561h1.1906l-1.9843 5.5561z" fill="url(#e)"/><path d="m8.9115 15.347 1.9843-5.5561h1.1906l-1.9843 5.5561zm3.9687 0 1.9843-5.5561h1.1906l-1.9843 5.5561z" fill="url(#f)"/><path d="m14.071 15.347h-1.1906l-1.9843-5.5561h1.1906zm3.9687 0h-1.1906l-1.9843-5.5561h1.1906z" fill="url(#g)"/><path d="m12.086 9.7909 1.9843 5.5561h1.1906l-1.9843-5.5561zm3.9687 0 1.9843 5.5561h1.1906l-1.9843-5.5561z" fill="url(#h)"/></g></g></svg>