<svg height="512" width="512" xmlns="http://www.w3.org/2000/svg">
    <path d="m-531.61-198.194-120.72 22.625 26.625 27.13-.063.063-.031.03c-32.04 34.19-38.36 82.6-27.687 124.47 10.681 41.859 38.47 77.64 75.62 86.06.01.003.021-.001.031 0l5.188 1.189 1.375.313-.875-1.125-3.313-4.25c-42.19-54.09-46.915-124.61-8.469-164.28l28.28 28.813 24.03-121.03m78.875 0 .875 1.125 3.313 4.219c42.19 54.09 46.915 124.61 8.469 164.28l-28.28-28.813-24.03 121.06 120.72-22.656-26.625-27.12.063-.063h.031c32.04-34.19 38.36-82.6 27.688-124.47-10.681-41.858-38.47-77.64-75.62-86.06-.01-.002-.022.002-.031 0l-5.188-1.188-1.375-.313M353.077 27.37c-29.433 1.64-58.99 10.572-83.454 27.101-18.112 15.414-23.01 40.546-31.204 61.939-6.594 19.42-11.714 42.58-31.692 52.475-11.934 8.018-26.887 12.455-36.771 23.049-5 7.856-2.702 17.915 2.686 24.758-3.007 6.392-7.188 14.48-12.843 18.02-8.774-3.211-18.203-14.99-28.079-7.619-13.854 12.914-22.297 31.115-30.227 48.149-3.665 14.49-21.07 19.492-25.393 33.255 2.075 19.67 22.08 30.661 40.043 32.229 8.646.985 18.053 3.512 22.023 12.11 12.03 13.262 25.29 25.72 34.134 41.654 15.218 21.88 36.385 40.456 62.83 46.791 29.849 7.1 58.77 16.94 87.34 28.143 6.27 1.548 15.13 6.677 20.596 1.05.216-8.404-11.607-8.336-16.896-11.77-6.5-3.192-18.88-5.893-18.165-15.088 1.835-8.592 12.69-5.09 18.663-8.165 24.066-6.538 50.788-9.338 71.384-24.162 4.35-4.966-2.904-10.087-7.57-6.74-11.27 3.033-22.704 10.275-34.524 8.205.449-15.477-11.318-27.11-22.853-35.794-16.222-13.297-39.587-14.997-54.058-30.52-2.67-4.28 5.873-5.993 7.96-8.497 30.134-21.615 42.108-58.763 55.962-91.61.913-3.612 4.174-6.233 6.885-2.246 14.47 14.44 26.604 32.8 32.278 52.446-7.633 6.652-19.511 5.499-29.104 6.641-5.8.903-16.046-3.954-18.36 3.418 2.34 6.417 12.36 3.819 17.97 5.274 29.288 1.161 58.756 8.407 87.849 1.074 21.864-5.74 44.301-9.24 66.168-14.845 7.642-2.105 3.083-12.908-3.76-11.768-20.675 4.532-40.907 14.777-62.652 12.99-4.65-5.696-.205-15.555 3.916-20.784 8.173-12.711 22.169-21.503 28.313-35.374 1.414-9.824-14.608-13.488-18.947-4.737-6.501 9.839-6.898 22.583-15.119 31.728-5.55 8.814-16.122 20.945-27.56 14.37-18.693-12.925-28.026-36.83-32.272-58.719-1.99-12.379-3.96-24.774-7.38-36.846 15.22-21.584 28.03-46.089 27.74-73.15-.331-23.47 3.01-49.888-12.26-69.635-7.514-10.925-19.504-20.547-33.597-18.8z" fill="#f4f4f7"/>
</svg>
