<svg height="512" width="512" xmlns="http://www.w3.org/2000/svg">
    <path d="M264.366 60.014c-2.686.09-5.684.77-8.943 2.06-25.674 9.556-4.693 66.463-3.033 73.828 1.532 6.78-11.44 6.087-13.88 3.11-5.447-6.65-23.423-66.04-44.634-55.443-29.748 16.402-1.726 67.62-7.659 69.285-11.022 6.16-10.372 21.213-19.207 33.475-10.308 14.773-67.695 3.77-112.982-4.704-5.145 19.57-11.633 39.78-11.633 60.964 0 60.835 16.348 118.854 53.598 161.205 55.141-.387 108.79-10.314 110.208-10.852-.227-.5 89.193 42.02 96.967 36.937 19.603-21.225-37.184-51.147-27.721-63.102 4.149-6.259 69.15 23.478 72.36 15.357 4.658-14.059-30.183-43.545-35.42-52.291-4.556-8.064-5.504-21.09 6.182-29.238 11.69-8.148 131.221-53.885 126.207-89.268-8.665-64.288-151.612-68.466-153.927-73.866-1-2.343 5.218-78.506-26.476-77.449zm148.839 42.65c-2.38 1.026-11.952 50.464-7.31 52.727 4.113 3.078 11.297-49.903 7.54-52.64-.061-.071-.157-.111-.234-.079zm35.341 6.765c-5.396-.1-34.233 45.87-27.608 50.778 4.114 3.078 29.795-48.883 28.032-50.622a.65.65 0 0 0-.428-.156z" fill="#f4f4f7" fill-rule="evenodd"/>
</svg>
