<svg height="64" width="64" xmlns="http://www.w3.org/2000/svg"><g fill-rule="evenodd"><circle cx="32" cy="32" fill="#8cc64c" r="27" stroke="#598329" stroke-width="2"/><circle cx="32" cy="32" fill="#8cc64c" r="27"/><path d="m6.574 41a27 27 0 0 0 25.426 18 27 27 0 0 0 25.422-18z" fill="#fff" opacity=".5"/></g><path d="m32 45c-1.662 0-3 1.338-3 3s1.338 3 3 3a2.993 2.993 0 0 0 2.813-2h8.375a2.99 2.99 0 0 0 5.812-1c0-1.662-1.338-3-3-3a2.993 2.993 0 0 0 -2.813 2h-8.375a2.99 2.99 0 0 0 -2.812-2" fill="#232629" opacity=".2"/><path d="m34.81 49h8.375a2.99 2.99 0 0 0 5.813-1c0-1.662-1.338-3-3-3a2.993 2.993 0 0 0 -2.813 2h-8.375c.188 1 .188 1 0 2" opacity=".5"/><path d="m18 45c-1.662 0-3 1.338-3 3s1.338 3 3 3a2.993 2.993 0 0 0 2.813-2h8.375a2.99 2.99 0 0 0 5.812-1c0-1.662-1.338-3-3-3a2.993 2.993 0 0 0 -2.813 2h-8.375a2.99 2.99 0 0 0 -2.812-2" fill="#8cc64c"/><path d="m30.286 14v17.143l-7.714-7.714-2.572 2.571 12 12 12-12-2.571-2.571-7.714 7.714v-17.143z" fill="#fcfcfc"/></svg>