<svg height="64" width="64" xmlns="http://www.w3.org/2000/svg"><rect height="52" rx="3.001" style="fill:none;opacity:.75;stroke:#2454d8;stroke-linecap:round;stroke-linejoin:round;stroke-width:1.999" width="52" x="6.002" y="5.998"/><g stroke-width="3.78"><rect fill="#90a9ff" height="52" rx="3.001" width="52" x="6.002" y="5.998"/><path d="m9 5.998a2.993 2.993 0 0 0 -2.999 3.002v.998h52v-.998a2.993 2.993 0 0 0 -3.001-3z" opacity=".35"/><rect height="1.999" opacity=".35" ry="1.002" width="10.001" x="26.911" y="7"/></g><path d="m10 15h14v2h-14zm0 34h6v2h-6zm8 0h24v2h-24zm-8-4h6v2h-6zm8 0h28v2h-28zm-8-4h6v2h-6zm8 0h24v2h-24zm-8-4h6v2h-6zm8 0h28v2h-28zm-8-4h6v2h-6zm8 0h20v2h-20zm-8-4h6v2h-6zm8 0h32v2h-32zm-8-4h6v2h-6zm8 0h36v2h-36zm-8-4h6v2h-6zm8 0h24v2h-24z" fill="#fff" opacity=".5"/></svg>