<svg enable-background="new" height="24" width="24" xmlns="http://www.w3.org/2000/svg"><g fill="#fff" transform="translate(2 4)"><path d="m8.834 4-3.334 5h3l-.75 3h.41602l3.334-5h-3l.75-3z"/><g fill-rule="evenodd"><path d="m2 3c-1.108 0-2 .892-2 2v6c0 1.108.892 2 2 2h13c1.108 0 2-.892 2-2v-6c0-1.108-.892-2-2-2zm0 1h13c.554 0 1 .446 1 1v6c0 .554-.446 1-1 1h-13c-.554 0-1-.446-1-1v-6c0-.554.446-1 1-1z"/><path d="m2.5508 5c-.30514 0-.55078.24564-.55078.55078v4.8984c0 .30514.24564.55078.55078.55078h4.418l.25-1h-1.7188c-.79859-.0001712-1.2749-.89013-.83203-1.5547l2.2969-3.4453h-4.4141zm7.4805 0-.25 1h1.7188c.1877.0000403.35566.052848.5.13672v-.58594c0-.30514-.24564-.55078-.55078-.55078h-1.418zm1.9688 3.0527-1.9648 2.9473h1.4141c.30514 0 .55078-.24564.55078-.55078v-2.3965z"/><path d="m18 6v4a2 2 0 0 0 2-2 2 2 0 0 0 -2-2z"/></g></g></svg>