<svg height="24" width="24" xmlns="http://www.w3.org/2000/svg"><path d="m6.3515625 4.7363281-.9394531.9414063 4.0625 4.0625h-1.3632813a.753.753 0 0 0 .2011719.2910156l2.25 1.96875-2.25 1.96875a.753.753 0 0 0 -.0625 1.0625c.273.313.71825.36675 1.03125.09375l1.720703-1.5v4.875c0 .277.222.5.5.5.282 0 .436297-.0195.654297-.1875l3.53125-3.15625a.78.78 0 0 0 .21875-.375.745.745 0 0 0 .03125-.28125.723.723 0 0 0 -.03125-.15625.78.78 0 0 0 -.21875-.375l-2.8125-2.470703 2.8125-2.466797a.78.78 0 0 0 .21875-.375.71.71 0 0 0 0-.4375.78.78 0 0 0 -.21875-.375l-3.53125-3.15625c-.199-.16-.42725-.1875-.65625-.1875-.277 0-.5.223-.5.5v4.875l-1.1523438-1.0078125.5683598-.5683594zm5.6484375 2.3261719 2.09375 1.875-2.09375 1.8125zm0 6.1875 2.09375 1.8125-2.09375 1.875z" fill="#fff"/></svg>