<svg height="24" width="24" xmlns="http://www.w3.org/2000/svg"><path d="m6.3515625 4.7363281-.9394531.9414063 10.8339846 10.8339846.939453-.941407-3.917969-3.917968 2.419922-2.121094c.106935-.1017801.18279-.2318176.21875-.375.04605-.1421978.04605-.2953022 0-.4375-.03596-.1431824-.111815-.2732199-.21875-.375l-3.53125-3.15625c-.199-.16-.42725-.1875-.65625-.1875-.277 0-.5.223-.5.5v3.8847656zm5.6484375 2.3261719 2.09375 1.875-1.898438 1.642578-.195312-.195312zm-1.505859 4.998047-2.181641 1.908203c-.310445.276247-.3384165.751761-.0625 1.0625.273.313.71825.36675 1.03125.09375l1.720703-1.5v4.875c0 .277.222.5.5.5.282 0 .436297-.0195.654297-.1875l2.6875-2.402344-1.064453-1.064453-1.779297 1.591797v-3.371094z" fill="#fff"/></svg>