<svg height="24" width="24" xmlns="http://www.w3.org/2000/svg">
    <g fill="#f4f4f7" stroke-width="1.5">
        <path d="m4.115 12.38 2.999 3.453c.19.22.5.221.693.003a.618.618 0 0 0 .002-.792l-2.653-3.055L7.83 8.956a.619.619 0 0 0 .002-.792.448.448 0 0 0-.693-.003l-3.02 3.428a.601.601 0 0 0-.145.395c0 .143.047.287.142.397zM19.885 11.62l-2.999-3.453a.448.448 0 0 0-.693-.003.618.618 0 0 0-.002.792l2.653 3.055-2.673 3.033a.619.619 0 0 0-.002.792c.19.22.5.22.693.003l3.02-3.428a.601.601 0 0 0 .145-.395.602.602 0 0 0-.142-.397z"/>
    </g>
    <g fill="#ef2929" fill-rule="evenodd" transform="translate(4 -4)">
        <rect height="4" ry="1" width="6" x="5" y="15"/>
        <path d="M8 13c-1.108 0-2 .892-2 2v2c0 1.108.892 2 2 2-.554 0-1-.446-1-1v-3c0-.554.446-1 1-1s1 .446 1 1v3c0 .554-.446 1-1 1 1.108 0 2-.892 2-2v-2c0-1.108-.892-2-2-2z"/>
    </g>
</svg>
