<svg height="24" width="24" xmlns="http://www.w3.org/2000/svg">
    <g fill="#f4f4f7">
        <path d="M9 11a1 1 0 1 0 0 2 1 1 0 0 0 0-2zm3 0a1 1 0 1 0 0 2 1 1 0 0 0 0-2zm3 0a1 1 0 1 0 0 2 1 1 0 0 0 0-2z"/>
        <path d="M6.002 7a1 1 0 0 0-.854.475l-2.894 3.86a1 1 0 0 0-.254.663 1 1 0 0 0 .205.607 1 1 0 0 0 .03.038l2.937 3.918a1 1 0 0 0 .826.439A1 1 0 0 0 7 16.002a1 1 0 0 0-.197-.596l.002-.002-2.551-3.402L6.804 8.6l-.003-.002A1 1 0 0 0 7 8.002 1 1 0 0 0 6.002 7zm11.996 0A1 1 0 0 0 17 8.002a1 1 0 0 0 .2.596l-.005.002 2.551 3.402-2.55 3.402.001.002a1 1 0 0 0-.197.596 1 1 0 0 0 1.002.998 1 1 0 0 0 .826-.44l2.938-3.917a1 1 0 0 0 .029-.038 1 1 0 0 0 .205-.607 1 1 0 0 0-.254-.662l-2.894-3.861A1 1 0 0 0 17.998 7z" opacity=".35"/>
    </g>
</svg>
