<svg height="24" width="24" xmlns="http://www.w3.org/2000/svg"><path d="m11.25 3c-.138071 0-.25.1119288-.25.25v1.5c0 .139.112.25.25.25h.5c.138071 0 .25-.1119288.25-.25v-1.5c0-.1380712-.111929-.25-.25-.25zm-5.8964844 2.2363281-.9414062.9414063 6.7499996 6.7499996h-.623047c.648108 1.082877 1.81991 1.816169 3.173829 1.816407.664239-.0019 1.315806-.181961 1.886718-.521485-1.356612 3.269239-5.7993766 3.725334-7.7929684.800782-.9802002-1.437873-.9795342-3.125345-.3085937-4.480469l-.7695313-.7695315c-.4611117.8044005-.7285156 1.7340025-.7285156 2.7265625 0 3.034712 2.465286 5.5 5.5 5.5 3.034708 0 5.500006-2.465288 5.5-5.5 0-3.0347106-2.465292-5.5-5.5-5.5-1.232714 0-2.3661775.4125603-3.2832031 1.0996094zm12.5078124.2949219c-.0085.0002193-.01696.0008743-.02539.0019531-.05623.00658-.108569.0320627-.148438.0722657l-1.060547.75816722c-.09829.40066758-.09758.55831458 0 .65589518l.353516.3535157c.09763.097605.255888.097605.353515 0l1.060547-1.0605469c.09761-.097627.09761-.2558889 0-.3535156l-.353515-.3535156c-.04743-.0479694-.112232-.0747353-.179688-.0742188zm-6.460937 2.53125h.001953c.02799-.0002639.055994-.0002639.083984 0h.00586c-.662257.494743-1.120779 1.1946563-1.339844 1.972656l-1.1875002-1.1874998c.6780975-.4710932 1.5021352-.7672486 2.4355472-.7851562zm-9.150391 3.9375c-.1380712 0-.25.111929-.25.25v.5c0 .139.112.25.25.25h1.5c.1380712 0 .25-.111929.25-.25v-.5c0-.138071-.1119288-.25-.25-.25zm17 0c-.138071 0-.25.111929-.25.25v.5c0 .139.112.25.25.25h1.5c.138071 0 .25-.111929.25-.25v-.5c0-.138071-.111929-.25-.25-.25zm-13.4101562 5.552734c-.0654231.001-.1278305.027679-.47620778.074219l-.75816722 1.060547c-.0982881.09829-.097581.255935 0 .353516l.3535156.353515c.097627.09761.2558889.09761.3535156 0l1.0605469-1.060547c.097605-.09763.097605-.255888 0-.353515l-.3535157-.353516c-.047429-.04797-.1122313-.074739-.1796874-.074219zm11.3125002 0c-.06474.0015-.126359.028149-.171875.074219l-.353516.353516c-.09829.09829-.09758.255934 0 .353515l1.060547 1.060547c.09763.09761.255889.09761.353516 0l.353515-.353515c.09761-.09763.09761-.255889 0-.353516l-1.060547-1.060547c-.0479-.04846-.113509-.075269-.18164-.074219zm-5.902344 2.447266c-.138071 0-.25.111929-.25.25v1.5c0 .139.112.25.25.25h.5c.138071 0 .25-.111929.25-.25v-1.5c0-.138071-.111929-.25-.25-.25z" fill="#fff"/></svg>