<svg height="24" width="24" xmlns="http://www.w3.org/2000/svg">
    <path d="M11.545 5.742A4.228 4.228 0 0 0 8.773 8.17s-1.914 4.62-3.685 4.559c-.02.004-.033.018-.053.023a.731.731 0 0 0-.217.102c-.027.018-.054.028-.078.048a.736.736 0 0 0-.207.276.75.75 0 0 0 .406.98l9.702 4.018c.384.159.819-.02.978-.405a.74.74 0 0 0 .049-.341c-.002-.032-.014-.06-.02-.09a.724.724 0 0 0-.082-.225c-.01-.017-.008-.038-.02-.054-.771-.72-.403-2.643.02-4.086A5 5 0 0 1 11 8a5 5 0 0 1 .545-2.258zm-1.139 11.762a1.997 1.997 0 0 0 1.772 1.828 1.99 1.99 0 0 0 1.511-.469z" fill="#f4f4f7"/>
    <path d="M20 8a4 4 0 0 1-8 0 4 4 0 1 1 8 0z" fill="#d33636"/>
</svg>
