<svg height="24" width="24" xmlns="http://www.w3.org/2000/svg"><path d="m13.490234 5.0097656c-.38969.0029021-.759456.2345045-.917968.6171875l-.003907.0078125c-1.80425-.2537657-3.5997277.8565194-4.2988278 2.5390625 0 0-1.9123137 4.6201199-3.6835937 4.5585939-.019.004-.0343875.018857-.0546875.023437-.0771.02152-.1488637.056212-.2148438.101563-.027.01806-.054525.028318-.078125.048828-.0898.07425-.1606712.170381-.2070312.277344-.15919.384334.02285.819702.40625.978515l9.699219 4.019532c.38434.159197.821268-.021913.980469-.40625.042799-.41175406.059828-.225763.048828-.341797-.002-.03123-.013732-.059324-.019532-.089844-.0148-.07891-.042331-.154807-.082031-.224609-.0102-.01721-.009984-.038028-.021484-.054688-1.29638-1.20806.61914-5.828125.61914-5.828125.69578-1.6849972.210427-3.7401359-1.246093-4.8359374l.003906-.0078125c.21135-.5102446-.030816-1.0952922-.541016-1.3066406-.12756-.0528371-.258775-.0771392-.388672-.0761719zm-6.3710934 11.3457034c-.12839.90213.3696375 1.776898 1.2109375 2.126953.84287.347774 1.8142679.08102 2.3613279-.648438z" fill="#fff"/></svg>