<svg height="24" width="24" xmlns="http://www.w3.org/2000/svg">
    <path d="M12.63 5.008a1 1 0 0 0-1.12.861l-.002.01C9.699 6.1 8.253 7.637 8.014 9.443c0 0-.652 4.959-2.38 5.358-.017.009-.028.027-.046.037a.717.717 0 0 0-.182.152c-.021.025-.045.043-.062.069a.74.74 0 0 0-.13.32.748.748 0 0 0 .645.842l10.41 1.37a.749.749 0 0 0 .842-.646.737.737 0 0 0-.04-.341c-.01-.03-.028-.055-.042-.083a.727.727 0 0 0-.138-.195c-.015-.014-.018-.036-.034-.049-1.564-.831-.912-5.789-.912-5.789.236-1.807-.762-3.666-2.453-4.347v-.01a1.001 1.001 0 0 0-.861-1.123zm-2.269 12.795c.155.969.99 1.682 1.971 1.683a1.999 1.999 0 0 0 1.822-1.183z" fill="#f4f4f7"/>
</svg>
