<svg height="24" width="24" xmlns="http://www.w3.org/2000/svg">
    <path d="M13.992 5.004c-.39.003-.76.236-.918.619l-.004.008c-1.804-.254-3.597.856-4.297 2.539 0 0-1.914 4.62-3.685 4.559-.02.004-.033.018-.053.023a.731.731 0 0 0-.217.102c-.027.018-.054.028-.078.048a.736.736 0 0 0-.207.276.75.75 0 0 0 .406.98l9.702 4.018c.384.159.819-.02.978-.405a.74.74 0 0 0 .049-.341c-.002-.032-.014-.06-.02-.09a.724.724 0 0 0-.082-.225c-.01-.017-.008-.038-.02-.054-1.18-1.1.244-4.87.518-5.565A3.5 3.5 0 0 1 12.5 8a3.5 3.5 0 0 1 1.645-2.965c-.052-.007-.102-.031-.153-.031zM9.615 17.178a1.993 1.993 0 0 0 1.617 2.013 1.99 1.99 0 0 0 1.819-.591z" fill="#f4f4f7"/>
    <path d="M18.5 8a2.5 2.5 0 0 1-5 0 2.5 2.5 0 1 1 5 0z" fill="#d33636"/>
</svg>
