<svg xmlns="http://www.w3.org/2000/svg" width="64" height="64"><path style="opacity:.2" d="M12.75 5C11.226 5 10 6.249 10 7.8v50.4c0 1.55 1.226 2.8 2.75 2.8h38.5c1.522 0 2.75-1.25 2.75-2.8V23l-14-4-4-14z"/><path style="fill:#293e91" d="M12.75 4C11.226 4 10 5.249 10 6.8v50.4c0 1.55 1.226 2.8 2.75 2.8h38.5c1.522 0 2.75-1.25 2.75-2.8V22l-14-4-4-14z"/><path style="opacity:.2" d="M54 23 36 5v15.188A2.806 2.806 0 0 0 38.813 23z"/><path style="fill:#3554b9" d="M54 22 36 4v15.188A2.806 2.806 0 0 0 38.813 22z"/><path style="opacity:.1;fill:#f4f4f7" d="M12.75 4C11.226 4 10 5.25 10 6.8v1C10 6.25 11.226 5 12.75 5H36V4H12.75z"/><path style="opacity:.2" d="M32.336 50.004c-.163.01-.326.038-.484.08a2.53 2.53 0 0 0-1.518 1.167 2.532 2.532 0 0 0-.25 1.898 2.53 2.53 0 0 0 1.166 1.518c.567.327 1.266.42 1.898.25a2.53 2.53 0 0 0 1.518-1.166c.327-.568.42-1.266.25-1.899a2.53 2.53 0 0 0-1.166-1.518 2.533 2.533 0 0 0-1.414-.33zm7.033-10.002c-.717.02-1.43.249-2.01.67-.673.488-1.15 1.191-1.676 1.836a6.163 6.163 0 0 1-.863.896c-.322.263-.69.479-1.092.586a2.961 2.961 0 0 1-1.238.037 6.183 6.183 0 0 1-1.197-.345c-.777-.296-1.541-.667-2.369-.754a3.622 3.622 0 0 0-3.076 1.224 3.609 3.609 0 0 0-.73 3.225 3.61 3.61 0 0 0 2.246 2.426c1.082.382 2.348.2 3.277-.475.673-.488 1.15-1.191 1.675-1.836.263-.322.542-.633.864-.896.322-.263.69-.479 1.091-.586a2.961 2.961 0 0 1 1.239-.037c.41.067.808.197 1.197.345.777.296 1.541.667 2.369.754a3.622 3.622 0 0 0 3.076-1.224 3.609 3.609 0 0 0 .73-3.225 3.61 3.61 0 0 0-2.246-2.426 3.52 3.52 0 0 0-1.267-.195zm-.211-10a4.892 4.892 0 0 0-2.68.87c-.897.636-1.532 1.552-2.232 2.39-.35.419-.723.822-1.152 1.164-.43.342-.92.62-1.455.76-.536.14-1.103.137-1.65.05-.548-.087-1.08-.256-1.598-.449-1.037-.385-2.057-.867-3.16-.98-1.522-.157-3.107.459-4.101 1.591-.995 1.133-1.371 2.753-.975 4.192.396 1.44 1.555 2.657 2.998 3.154 1.443.498 3.13.26 4.369-.617.897-.635 1.532-1.55 2.232-2.389.35-.418.723-.822 1.152-1.164.43-.342.92-.62 1.455-.76.536-.14 1.103-.137 1.65-.05.548.087 1.08.257 1.598.449 1.037.385 2.057.867 3.16.98 1.522.157 3.107-.459 4.101-1.591.995-1.133 1.371-2.753.975-4.192-.396-1.44-1.555-2.657-2.998-3.154a4.8 4.8 0 0 0-1.69-.254z"/><path style="fill:#fed909" d="M32.336 49.004c-.163.01-.326.038-.484.08a2.53 2.53 0 0 0-1.518 1.167 2.532 2.532 0 0 0-.25 1.898 2.53 2.53 0 0 0 1.166 1.518c.567.327 1.266.42 1.898.25a2.53 2.53 0 0 0 1.518-1.166c.327-.568.42-1.266.25-1.899a2.53 2.53 0 0 0-1.166-1.518 2.533 2.533 0 0 0-1.414-.33zm7.033-10.002c-.717.02-1.43.249-2.01.67-.673.488-1.15 1.191-1.676 1.836a6.163 6.163 0 0 1-.863.896c-.322.263-.69.479-1.092.586a2.961 2.961 0 0 1-1.238.037 6.183 6.183 0 0 1-1.197-.345c-.777-.296-1.541-.667-2.369-.754a3.622 3.622 0 0 0-3.076 1.224 3.609 3.609 0 0 0-.73 3.225 3.61 3.61 0 0 0 2.246 2.426c1.082.382 2.348.2 3.277-.475.673-.488 1.15-1.191 1.675-1.836.263-.322.542-.633.864-.896.322-.263.69-.479 1.091-.586a2.961 2.961 0 0 1 1.239-.037c.41.067.808.197 1.197.345.777.296 1.541.667 2.369.754a3.622 3.622 0 0 0 3.076-1.224 3.609 3.609 0 0 0 .73-3.225 3.61 3.61 0 0 0-2.246-2.426 3.52 3.52 0 0 0-1.267-.195zm-.211-10a4.892 4.892 0 0 0-2.68.87c-.897.636-1.532 1.552-2.232 2.39-.35.419-.723.822-1.152 1.164-.43.342-.92.62-1.455.76-.536.14-1.103.137-1.65.05-.548-.087-1.08-.256-1.598-.449-1.037-.385-2.057-.867-3.16-.98-1.522-.157-3.107.459-4.101 1.591-.995 1.133-1.371 2.753-.975 4.192.396 1.44 1.555 2.657 2.998 3.154 1.443.498 3.13.26 4.369-.617.897-.635 1.532-1.55 2.232-2.389.35-.418.723-.822 1.152-1.164.43-.342.92-.62 1.455-.76.536-.14 1.103-.137 1.65-.05.548.087 1.08.257 1.598.449 1.037.385 2.057.867 3.16.98 1.522.157 3.107-.459 4.101-1.591.995-1.133 1.371-2.753.975-4.192-.396-1.44-1.555-2.657-2.998-3.154a4.8 4.8 0 0 0-1.69-.254z"/></svg>