<svg height="64" viewBox="0 0 64 64" width="64" xmlns="http://www.w3.org/2000/svg"><g transform="translate(38 -256.64999)"><path d="m-29 257.64999h46c2.216 0 4 1.784 4 4v54c0 2.216-1.784 4-4 4h-46c-2.216 0-4-1.784-4-4v-54c0-2.216 1.784-4 4-4z" fill="#a3b7cc"/><path d="m-29 258.64999h46c1.662 0 3 1.338 3 3v54c0 1.662-1.338 3-3 3h-46c-1.662 0-3-1.338-3-3v-54c0-1.662 1.338-3 3-3z" fill="#f1f1f1"/></g><g transform="translate(40 -274.64999)"><path d="m-22 293.64999v5 3h3v-1c0-1.108.892-2 2-2h2 4v14 2c0 1.108-.892 2-2 2h-2v4h14v-4h-2c-1.108 0-2-.892-2-2v-2-14h6c1.108 0 2 .892 2 2v1h3v-4-4z" fill="#36404d"/><path d="m-21 294.64999v3 3h1c0-.831.334703-1.5808.876953-2.12305s1.292047-.87695 2.123047-.87695h7v17c0 .831-.334703 1.5808-.876953 2.12305s-1.292047.87695-2.123047.87695h-1v1 1h12v-1-1h-1c-.831 0-1.580797-.3347-2.123047-.87695s-.876953-1.29205-.876953-2.12305v-17h7c.831 0 1.580797.3347 2.123047.87695s.876953 1.29205.876953 2.12305h1v-4-2z" fill="#4b6477"/></g></svg>