<svg xmlns="http://www.w3.org/2000/svg" width="64" height="64"><path style="opacity:.2" d="M12.75 5C11.226 5 10 6.249 10 7.8v50.4c0 1.55 1.226 2.8 2.75 2.8h38.5c1.522 0 2.75-1.25 2.75-2.8V23l-14-4-4-14z"/><path style="fill:#4f4f4f" d="M12.75 4C11.226 4 10 5.249 10 6.8v50.4c0 1.55 1.226 2.8 2.75 2.8h38.5c1.522 0 2.75-1.25 2.75-2.8V22l-14-4-4-14z"/><path style="opacity:.2" d="M54 23 36 5v15.188A2.806 2.806 0 0 0 38.813 23z"/><path style="fill:#696969" d="M54 22 36 4v15.188A2.806 2.806 0 0 0 38.813 22z"/><path style="opacity:.1;fill:#f4f4f7" d="M12.75 4C11.226 4 10 5.25 10 6.8v1C10 6.25 11.226 5 12.75 5H36V4H12.75z"/><path style="opacity:.2" d="M22.667 30A2.66 2.66 0 0 0 20 32.667v8.666L33.333 30zm16 0L28.01 39.133l15.18 14.114c.5-.484.81-1.16.81-1.914V32.667A2.66 2.66 0 0 0 41.333 30zM25.34 41.422 20 46v5.333A2.66 2.66 0 0 0 22.667 54h16z"/><path style="fill:#f4f4f7" d="M22.667 29A2.66 2.66 0 0 0 20 31.667v8.666L33.333 29zm16 0L28.01 38.133l15.18 14.114c.5-.484.81-1.16.81-1.914V31.667A2.66 2.66 0 0 0 41.333 29zM25.34 40.422 20 45v5.333A2.66 2.66 0 0 0 22.667 53h16z"/></svg>