<svg xmlns="http://www.w3.org/2000/svg" width="64" height="64" version="1"><path style="opacity:.2" d="M12.813 5A2.8 2.8 0 0 0 10 7.8v50.4a2.8 2.8 0 0 0 2.813 2.8h39.374A2.8 2.8 0 0 0 55 58.2V22l-15-2-2-15z"/><path style="fill:#ff7111" d="M12.813 4A2.8 2.8 0 0 0 10 6.8v50.4a2.8 2.8 0 0 0 2.813 2.8h39.374A2.8 2.8 0 0 0 55 57.2V21l-15-2-2-15z"/><path style="opacity:.2" d="M38 5v14.167A2.833 2.833 0 0 0 40.833 22H55z"/><path style="fill:#ff8d40" d="M38 4v14.167A2.833 2.833 0 0 0 40.833 21H55z"/><path style="opacity:.2" d="M22.918 28C21.001 28 21 29.855 21 29.855v22.29S21.001 54 22.918 54h19.164S44 54.002 44 52.145v-22.29S43.999 28 42.082 28zm9.582 4c4.144 0 7.5 3.356 7.5 7.5S36.644 47 32.5 47H25v-7.5c0-4.144 3.356-7.5 7.5-7.5zm0 4a3.51 3.51 0 0 0-3.5 3.5 3.51 3.51 0 0 0 3.5 3.5 3.51 3.51 0 0 0 3.5-3.5 3.51 3.51 0 0 0-3.5-3.5z"/><path style="fill:#f4f4f7" d="M22.918 27C21.001 27 21 28.855 21 28.855v22.29S21.001 53 22.918 53h19.164S44 53.002 44 51.145v-22.29S43.999 27 42.082 27H22.918zm9.582 4c4.144 0 7.5 3.356 7.5 7.5S36.644 46 32.5 46H25v-7.5c0-4.144 3.356-7.5 7.5-7.5zm0 4a3.51 3.51 0 0 0-3.5 3.5 3.51 3.51 0 0 0 3.5 3.5 3.51 3.51 0 0 0 3.5-3.5 3.51 3.51 0 0 0-3.5-3.5z"/><path style="opacity:.1;fill:#f4f4f7" d="M12.813 4A2.8 2.8 0 0 0 10 6.8v1A2.8 2.8 0 0 1 12.813 5H38V4z"/></svg>