<svg xmlns="http://www.w3.org/2000/svg" width="64" height="64"><path style="opacity:.2" d="M12.75 5C11.226 5 10 6.249 10 7.8v50.4c0 1.551 1.226 2.8 2.75 2.8h38.5c1.523 0 2.75-1.249 2.75-2.8V21l-14-2-2-14z"/><path style="fill:#37a0f2" d="M12.75 4C11.226 4 10 5.249 10 6.8v50.4c0 1.551 1.226 2.8 2.75 2.8h38.5c1.523 0 2.75-1.249 2.75-2.8V20l-14-2-2-14z"/><path style="opacity:.2" d="M54 21 38 5v13.333A2.66 2.66 0 0 0 40.667 21z"/><path style="fill:#73bcf7" d="M54 20 38 4v13.333A2.66 2.66 0 0 0 40.667 20z"/><path style="opacity:.2;fill-rule:evenodd" d="M34.25 27.706c-3.678 6.026-6.594 11.404-8.478 17.433-.998 3.227-1.898 6.57-2.772 9.811 1.424.117 1.15-.01 2.25 0 .809-1.753 2.424-3.421 3.547-4.639 2.787-2.808 5.442-4.066 8.828-5.169.05-3.306-.2-6.585 1.185-9.485.567-1.205 1.456-2.498 2.19-3.592 0-3.27-3.375-6.539-6.75-4.36z"/><path style="fill:#f4f4f7;fill-rule:evenodd" d="M34.25 26.706c-3.678 6.026-6.594 11.404-8.478 17.433-.998 3.227-1.898 6.57-2.772 9.811 1.424.117 1.15-.01 2.25 0 .809-1.753 2.424-3.421 3.547-4.639 2.787-2.808 5.442-4.066 8.828-5.169.05-3.306-.2-6.585 1.185-9.485.567-1.205 1.456-2.498 2.19-3.592 0-3.27-3.375-6.539-6.75-4.36z"/><path style="opacity:.2;fill:#f4f4f7" d="M12.75 4C11.226 4 10 5.25 10 6.8v1C10 6.25 11.226 5 12.75 5H38V4H12.75z"/></svg>