<svg height="64" width="64" xmlns="http://www.w3.org/2000/svg"><path d="m12.75 5c-1.524 0-2.75 1.249-2.75 2.8v50.4c0 1.55 1.226 2.8 2.75 2.8h38.5c1.522 0 2.75-1.25 2.75-2.8v-35.2l-14-4-4-14z" opacity=".2"/><path d="m12.75 4c-1.524 0-2.75 1.249-2.75 2.8v50.4c0 1.55 1.226 2.8 2.75 2.8h38.5c1.522 0 2.75-1.25 2.75-2.8v-35.2l-14-4-4-14z" fill="#13a553"/><path d="m54 23-18-18v15.188a2.806 2.806 0 0 0 2.813 2.812z" opacity=".2"/><path d="m54 22-18-18v15.188a2.806 2.806 0 0 0 2.813 2.812z" fill="#70c896"/><path d="m12.75 4c-1.524 0-2.75 1.25-2.75 2.8v1c0-1.55 1.226-2.8 2.75-2.8h23.25v-1z" fill="#f4f4f7" opacity=".2"/><path d="m54 27.23-21.992 21.992-9.63-9.764-12.378 12.49v3.905l12.372-12.485 9.62 9.76 22.008-22.01z" opacity=".2"/><path d="m54 26.23-21.992 21.992-9.63-9.764-12.378 12.49v3.905l12.372-12.485 9.62 9.76 22.008-22.01z" fill="#f4f4f7"/></svg>