<svg xmlns="http://www.w3.org/2000/svg" width="64" height="64"><path style="opacity:.2" d="M12.75 5C11.226 5 10 6.249 10 7.8v50.4c0 1.55 1.226 2.8 2.75 2.8h38.5c1.522 0 2.75-1.25 2.75-2.8V23l-14-4-4-14z"/><path style="fill:#9052ff" d="M12.75 4C11.226 4 10 5.249 10 6.8v50.4c0 1.55 1.226 2.8 2.75 2.8h38.5c1.522 0 2.75-1.25 2.75-2.8V22l-14-4-4-14z"/><path style="opacity:.2" d="M54 23 36 5v15.188A2.806 2.806 0 0 0 38.813 23z"/><path style="fill:#ac7cf5" d="M54 22 36 4v15.188A2.806 2.806 0 0 0 38.813 22z"/><path style="opacity:.2;fill:#f4f4f7" d="M12.75 4C11.226 4 10 5.25 10 6.8v1C10 6.25 11.226 5 12.75 5H36V4H12.75z"/><path style="opacity:.2" d="M30.625 26 23.75 47.75 19.518 34H10v4h6.96l6.79 19.375 6.875-22 4.125 13.75L40.25 34l4.125 14H54v-4h-6.875L40.25 27.124l-5.5 11z"/><path style="fill:#f4f4f7" d="M30.625 25 23.75 46.75 19.518 33H10v4h6.96l6.79 19.375 6.875-22 4.125 13.75L40.25 33l4.125 14H54v-4h-6.875L40.25 26.124l-5.5 11z"/></svg>