<svg height="64" viewBox="0 0 64 64" width="64" xmlns="http://www.w3.org/2000/svg"><g transform="translate(38 -256.64999)"><path d="m-29 257.64999h46c2.216 0 4 1.784 4 4v54c0 2.216-1.784 4-4 4h-46c-2.216 0-4-1.784-4-4v-54c0-2.216 1.784-4 4-4z" fill="#6e7cd4"/><path d="m-29 258.64999h46c1.662 0 3 1.338 3 3v54c0 1.662-1.338 3-3 3h-46c-1.662 0-3-1.338-3-3v-54c0-1.662 1.338-3 3-3z" fill="#93a0e6"/></g><path d="m-198.97093 260.24098c-7.13983-.10543-14.01829 2.68375-19.0683 7.7321-7.55533 7.5569-9.81436 18.921-5.72367 28.79297 4.08885 9.872 13.72167 16.30903 24.40695 16.30967h56.90331v-4.06452h-56.90331c-.74496.00015-1.48946-.0369-2.23072-.11114-.74206-.0742-1.47994-.18547-2.21088-.33342-.72989-.14907-1.45187-.33453-2.16324-.55569-.71225-.22019-1.41304-.47586-2.09974-.76607-.68652-.2891-1.35816-.61233-2.01241-.96849-.65422-.35828-1.29009-.74908-1.90524-1.17093-.61485-.41996-1.20833-.87037-1.77823-1.34955-.57019-.48048-1.11598-.98918-1.63533-1.5242-.51989-.53468-1.01269-1.09505-1.47657-1.67899-.46267-.58397-.89586-1.1907-1.29794-1.81792-.4025-.62674-.77343-1.27321-1.11139-1.93699-.26405-.51951-.50768-1.04916-.73034-1.58771-.28496-.6883-.53533-1.39041-.75019-2.1037-.21594-.71296-.3961-1.43626-.53982-2.16721-.14275-.73252-.24873-1.47173-.31754-2.21485-.0689-.74152-.10071-1.48602-.0953-2.23072.005-.74523.0475-1.48973.12701-2.23072.0809-.74106.19878-1.47762.35326-2.2069.15299-.7301.34243-1.45209.56761-2.16325.22564-.70985.48661-1.40799.78194-2.09179.29453-.68414.62306-1.35314.98438-2.00448.36238-.65177.75715-1.28499 1.18283-1.8973.42533-.6125.88105-1.20334 1.36543-1.77029.37882-.44131.77472-.86767 1.1868-1.2781.52638-.5274 1.07879-1.02815 1.65518-1.50038.57689-.4716 1.177-.91406 1.79808-1.32573.62099-.4115 1.26217-.79169 1.92112-1.13917.6599-.34855 1.33684-.66384 2.02828-.94468.68989-.27971 1.39333-.52479 2.10768-.73432.71592-.20951 1.44188-.38305 2.17515-.51997.73279-.13742 1.472-.2381 2.21485-.30166.74179-.0636 1.48629-.0901 2.23072-.0794.74549.0104 1.48999.0581 2.23072.1429.73994.0849 1.47517.20682 2.20294.36517.72905.15834 1.44971.35308 2.15928.58348.5528.18108 1.09833.38366 1.63533.60729.68898.28497 1.36328.60423 2.02036.95659.65659.35288 1.29511.73838 1.91318 1.15506.61864.41575 1.2161.86219 1.79014 1.33763.57261.4764 1.12105.98113 1.64327 1.51229.52364.53053 1.02042 1.08692 1.48847 1.66709.46787.58103.90635 1.18511 1.31382 1.80998.40632.62391.78122 1.26773 1.1233 1.92905.34329.66151.65328 1.33978.92881 2.03226.27593.69272.51703 1.39881.7224 2.11562.20416.7162.3724 1.44216.5041 2.17515.13223.73437.22762 1.4749.28579 2.21881.0452.57973.0677 1.16101.0675 1.7425h4.06452c-.00065-10.68528-6.43768-20.31809-16.30968-24.40694-3.08548-1.27812-6.38532-1.95964-9.72469-2.00844zm-.0873 6.09677c-5.49197-.0801-10.78251 2.06616-14.6664 5.94991-5.81117 5.81157-7.55001 14.55114-4.40588 22.18" fill="#ebecf4" transform="matrix(.49206349 0 0 .49206349 128.09574 -100.05313)"/></svg>