<svg height="64" width="64" xmlns="http://www.w3.org/2000/svg"><path d="m12.75 5c-1.524 0-2.75 1.249-2.75 2.8v50.4c0 1.55 1.226 2.8 2.75 2.8h38.5c1.522 0 2.75-1.25 2.75-2.8v-35.2l-14-4-4-14z" opacity=".2"/><path d="m12.75 4c-1.524 0-2.75 1.249-2.75 2.8v50.4c0 1.55 1.226 2.8 2.75 2.8h38.5c1.522 0 2.75-1.25 2.75-2.8v-35.2l-14-4-4-14z" fill="#4f4f4f"/><path d="m54 23-18-18v15.188a2.806 2.806 0 0 0 2.813 2.812z" opacity=".2"/><path d="m54 22-18-18v15.188a2.806 2.806 0 0 0 2.813 2.812z" fill="#696969"/><path d="m12.75 4c-1.524 0-2.75 1.25-2.75 2.8v1c0-1.55 1.226-2.8 2.75-2.8h23.25v-1z" fill="#f4f4f7" opacity=".1"/><path d="m32.127 30s-1.227 1.072-2.477 2.037c-1.286-.04-3.807.248-5.173.746-1.26-.8-2.366-1.783-2.366-1.783s-.944 1.732-1.539 2.69c-.881.47-1.768.999-2.556 1.699-.918-.366-1.981-.911-2.016-.926 1.215 2.458 2.032 4.919 4.254 6.399 1.766-2.798 6.748-3.918 11.744-3.862 5.01.057 10.036 1.298 11.844 3.83 2.333-1.22 3.24-3.848 4.158-6.273-.1.033-1.349.553-2.158.863-.483-.528-1.622-1.339-2.27-1.73-.614-1.128-1.508-2.752-1.508-2.752s-1.06.89-2.287 1.752c-1.657-.307-3.663-.68-5.35-.588a37.46 37.46 0 0 1 -2.3-2.102zm14.838 9.647c-1.448 2.15-3.805 3.635-5.256 4.435-1.031.567-3.408.908-3.408.908l-6.246-2.99-6.282 2.926s-2.347-.379-3.41-.877c-2.144-1.148-3.586-2.504-5.107-4.361l2.918 7.088c5.068 6.707 18.012 7.174 23.654.13 1.335-3.018 3.137-7.26 3.137-7.26z" opacity=".2"/><path d="m32.127 29s-1.226 1.072-2.476 2.038c-1.286-.041-3.808.248-5.175.746-1.259-.8-2.365-1.784-2.365-1.784s-.945 1.732-1.54 2.69c-.881.47-1.766.999-2.555 1.698-.918-.365-1.981-.911-2.016-.926 1.215 2.459 2.032 4.92 4.254 6.4 1.766-2.798 6.748-3.918 11.744-3.862 5.01.057 10.035 1.298 11.843 3.83 2.334-1.22 3.241-3.847 4.159-6.272-.1.033-1.35.553-2.159.862-.483-.528-1.622-1.339-2.27-1.73-.614-1.129-1.508-2.753-1.508-2.753s-1.058.89-2.285 1.752c-1.658-.307-3.663-.68-5.35-.588-1.146-.946-2.3-2.101-2.3-2.101z" fill="#ffa700"/><path d="m17.256 38.687 2.919 7.09c5.068 6.706 18.01 7.173 23.653.129 1.335-3.018 3.136-7.26 3.136-7.26-1.447 2.151-3.803 3.636-5.254 4.436-1.031.566-3.41.909-3.41.909l-6.245-2.991-6.281 2.926s-2.347-.379-3.41-.877c-2.145-1.148-3.587-2.505-5.108-4.362z" fill="#ffc504"/></svg>