<svg height="64" viewBox="0 0 64 64" width="64" xmlns="http://www.w3.org/2000/svg"><g transform="translate(0 -250.64999)"><g transform="translate(38 -6)"><path d="m-29 257.64999h46c2.216 0 4 1.784 4 4v54c0 2.216-1.784 4-4 4h-46c-2.216 0-4-1.784-4-4v-54c0-2.216 1.784-4 4-4z" fill="#a5b8cd"/><path d="m-29 258.64999h46c1.662 0 3 1.338 3 3v54c0 1.662-1.338 3-3 3h-46c-1.662 0-3-1.338-3-3v-54c0-1.662 1.338-3 3-3z" fill="#f1f1f1"/></g><path d="m12 261.64999v2h8v-2zm10 0v2h3v-2zm5 0v2h4v-2zm6 0v2h5 4v-2h-4zm11 0v2h8v-2zm-32 4v2h4v-2zm6 0v2h8v-2zm10 0v2h1 4 2 2 9v-2h-9-2-2-4zm20 0v2h4v-2zm-36 4v2h3v-2zm5 0v2h4v-2zm6 0v2h8v-2zm10 0v2h2 3 1v-2h-1-3zm8 0v2h11v-2zm-29 4v2h11v-2zm13 0v2h2 2 2 5 2 8v-2h-8-2-5-2-2zm23 0v2h4v-2zm-36 4v2h4v-2zm6 0v2h8 2 5 2 2 2v-2h-2-2-2-5-2zm23 0v2h11v-2zm-29 4v2h11v-2zm13 0v2h1 3 2v-2h-2-3zm8 0v2h8v-2zm10 0v2h4v-2zm6 0v2h3v-2zm-37 4v2h4v-2zm6 0v2h9 2 2 4 1v-2h-1-4-2-2zm20 0v2h8v-2zm10 0v2h4v-2zm-36 4v2h8v-2zm10 0v2h4 5v-2h-5zm11 0v2h4v-2zm6 0v2h3v-2zm5 0v2h8v-2zm-32 4v2h11v-2zm13 0v2h1 3 2v-2h-2-3zm8 0v2h8v-2zm10 0v2h4v-2zm6 0v2h3v-2zm-37 4v2h4v-2zm6 0v2h9 2 2 4 1v-2h-1-4-2-2zm20 0v2h8v-2zm10 0v2h4v-2zm-36 4v2h8v-2zm10 0v2h4 5v-2h-5zm11 0v2h4v-2zm6 0v2h3v-2zm5 0v2h8v-2z" fill="#a5b8cd"/></g></svg>