<svg xmlns="http://www.w3.org/2000/svg" width="32" height="32" version="1"><rect style="opacity:.2" width="28" height="18" x="2" y="11" rx="1.4" ry="1.4"/><path style="fill:#bea389" d="M2 22.6c0 .776.624 1.4 1.4 1.4h25.2c.776 0 1.4-.624 1.4-1.4V7.4c0-.776-.624-1.4-1.4-1.4H16c-2.1 0-2.8-3-4.9-3H3.4C2.624 3 2 3.624 2 4.4"/><rect style="opacity:.2" width="28" height="18" x="2" y="9" rx="1.4" ry="1.4"/><rect style="fill:#e4e4e4" width="24" height="11" x="4" y="8" rx="1.4" ry="1.4"/><rect style="fill:#d1bfae" width="28" height="18" x="2" y="10" rx="1.4" ry="1.4"/><path style="opacity:.1;fill:#fff" d="M3.4 3C2.625 3 2 3.625 2 4.4v1C2 4.625 2.625 4 3.4 4h7.7c2.1 0 2.8 3 4.9 3h12.6c.775 0 1.4.625 1.4 1.4v-1c0-.775-.625-1.4-1.4-1.4H16c-2.1 0-2.8-3-4.9-3z"/><path style="fill:#a38d7b" d="M17.2 15a3.196 3.196 0 0 0-2.848 1.748 1.998 1.998 0 0 0-2.731 1.584A2.402 2.402 0 0 0 10 20.6a2.4 2.4 0 0 0 2.4 2.4h7.2a2.398 2.398 0 0 0 .795-4.662c.003-.046.004-.093.005-.139A3.2 3.2 0 0 0 17.2 15zm-.001 2a1.17 1.17 0 0 1 1.199 1.195v.006a2.001 2.001 0 0 0 1.334 2.024.386.386 0 0 1 .268.375c0 .244-.156.4-.4.4h-7.2c-.244 0-.399-.155-.4-.398V20.6a.384.384 0 0 1 .27-.375 2.002 2.002 0 0 0 1.332-1.623 2 2 0 0 0 2.533-.946A1.186 1.186 0 0 1 17.199 17z"/></svg>