<svg xmlns="http://www.w3.org/2000/svg" width="48" height="48" version="1"><path style="opacity:.2" d="M24 5C12.92 5 4 13.92 4 25s8.92 20 20 20 20-8.92 20-20S35.08 5 24 5z"/><path style="fill:#ffa50c" d="M24 4C12.92 4 4 12.92 4 24s8.92 20 20 20 20-8.92 20-20S35.08 4 24 4z"/><path style="opacity:.1" d="M14.48 21.06c-1.262-1.254.222-2.04 1.485-3.293 1.263-1.253 1.825-2.5 3.088-1.246a3.193 3.193 0 0 1 0 4.539 3.25 3.25 0 0 1-4.573 0z"/><path style="fill:#3f3f3f" d="M14.48 20.06c-1.262-1.254.222-2.04 1.485-3.293 1.263-1.253 1.825-2.5 3.088-1.246a3.193 3.193 0 0 1 0 4.539 3.25 3.25 0 0 1-4.573 0z"/><path style="opacity:.1;fill:none;stroke:#000;stroke-width:2;stroke-linecap:round;stroke-linejoin:round" d="M15 34.989s3-4 9-4 9 4 9 4v0"/><path style="fill:none;stroke:#3f3f3f;stroke-width:2;stroke-linecap:round;stroke-linejoin:round" d="M15 33.989s3-4 9-4 9 4 9 4v0"/><path style="opacity:.2;fill:#f4f4f7" d="M24 4C12.92 4 4 12.92 4 24c0 .168.008.333.012.5A19.952 19.952 0 0 1 24 5a19.952 19.952 0 0 1 19.988 19.5c.004-.167.012-.332.012-.5 0-11.08-8.92-20-20-20z"/><path style="opacity:.1" d="M33.52 21.06c1.262-1.254-.222-2.04-1.485-3.293-1.263-1.253-1.825-2.5-3.088-1.246a3.193 3.193 0 0 0 0 4.539 3.25 3.25 0 0 0 4.573 0z"/><path style="fill:#3f3f3f" d="M33.52 20.06c1.262-1.254-.222-2.04-1.485-3.293-1.263-1.253-1.825-2.5-3.088-1.246a3.193 3.193 0 0 0 0 4.539 3.25 3.25 0 0 0 4.573 0z"/><path style="opacity:.1" d="M34 32c-1.69 0-3-1.505-3-2.8 0-.9.438-1.932 1.043-3.364.087-.208.18-.423.273-.647.476-1.145 1.169-2.378 1.648-3.189.423.798 1.055 2.005 1.648 3.216C36.688 27.418 37 28.31 37 29.199 37 30.495 35.69 32 34 32z"/><path style="fill:#2e84d7" d="M34 31c-1.69 0-3-1.505-3-2.8 0-.9.438-1.932 1.043-3.364.087-.208.18-.423.273-.647.476-1.145 1.169-2.378 1.648-3.189.423.798 1.055 2.005 1.648 3.216C36.688 26.418 37 27.31 37 28.199 37 29.495 35.69 31 34 31z"/></svg>