<svg xmlns="http://www.w3.org/2000/svg" width="48" height="48" version="1"><path style="opacity:.2" d="M24 5C12.92 5 4 13.92 4 25s8.92 20 20 20 20-8.92 20-20S35.08 5 24 5z"/><path style="fill:#ffa50c" d="M24 4C12.92 4 4 12.92 4 24s8.92 20 20 20 20-8.92 20-20S35.08 4 24 4z"/><rect style="opacity:.1" width="16" height="2" x="16" y="32" rx="1" ry="1"/><path style="opacity:.2;fill:#f4f4f7" d="M24 4A19.955 19.955 0 0 0 4.002 24c0 .168-.004.333 0 .5C4.266 13.654 13.089 5 24 5c10.911 0 19.734 8.654 19.998 19.5.004-.167 0-.332 0-.5C43.998 12.92 35.08 4 24 4z"/><rect style="fill:#3f3f3f" width="16" height="2" x="16" y="31" rx="1" ry="1"/><circle style="opacity:.1" cx="17" cy="19" r="3"/><circle style="opacity:.1" cx="31" cy="19" r="3"/><circle style="fill:#3f3f3f" cx="17" cy="18" r="3"/><circle style="fill:#3f3f3f" cx="31" cy="18" r="3"/></svg>