<svg xmlns="http://www.w3.org/2000/svg" width="22" height="22"><defs><linearGradient id="b" x1="7" x2="19" y1="12" y2="5" gradientTransform="scale(1 -1) rotate(-64.2 -6.832 1.297)" gradientUnits="userSpaceOnUse"><stop offset="0" stop-color="#323a41" stop-opacity=".5"/><stop offset="1" stop-color="#323a41" stop-opacity="0"/></linearGradient><linearGradient id="a" x1="7" x2="17" y1="12" y2="12" gradientTransform="scale(-1 1) rotate(-64.2 -.297 29.833)" gradientUnits="userSpaceOnUse"><stop offset="0" stop-color="#323a41"/><stop offset="1" stop-color="#323a41" stop-opacity=".5"/></linearGradient></defs><path style="fill:url(#a)" d="M11.326 4.006a6.973 6.973 0 0 0-3.373.691l.871 1.801a5 5 0 0 1 6.678 2.326c.34.704.482 1.446.477 2.178L16 11c.743 0 1.411.288 1.932.744.138-1.259-.038-2.566-.629-3.79a6.998 6.998 0 0 0-5.977-3.948z"/><path style="fill:url(#b)" d="M7.953 4.697a7.001 7.001 0 0 0-3.256 9.35C6.06 16.864 9.06 18.345 12 17.918v-2.045c-2.19.45-4.485-.593-5.502-2.697a5 5 0 0 1 2.326-6.678l-.87-1.8z"/><path fill="#323a41" d="M16 12c-1.108 0-2 .91-2 2.031V15h-1v4h6v-4h-1v-.969c0-1.12-.892-2.03-2-2.03zm0 1c.554 0 1 .442 1 1v1h-2v-1c0-.558.446-1 1-1z"/></svg>