<svg height="32" viewBox="0 0 32 32" width="32" xmlns="http://www.w3.org/2000/svg"><g transform="translate(10 -288.64999)"><path d="m6 289.64999c8.31 0 15 6.69 15 15s-6.69 15-15 15-15-6.69-15-15 6.69-15 15-15z" fill="#a3b7cc"/><path d="m6 290.64999c7.756 0 14 6.244 14 14s-6.244 14-14 14-14-6.244-14-14 6.244-14 14-14z" fill="#fff"/></g><g clip-rule="evenodd" fill-rule="evenodd" stroke-linecap="round" stroke-linejoin="round" stroke-width="31.742565" transform="matrix(.03143768 0 0 .03156933 8.274278 6.269017)"><path d="m25.824 200.612c.166-.273.342-.542.518-.806 28.447-43.799 73.32-69.434 115.518-69.434 42.969 0 69.98 23.555 105.498 23.555 34.463 0 55.454-23.589 105.132-23.589 37.534 0 77.329 20.439 105.674 55.781-7.837 4.292-14.907 9.165-21.226 14.521z" fill="#26c186" stroke="#008c52"/><path d="m314.808 90.875c18.032-23.159 31.748-55.859 26.777-89.292-29.482 2.021-63.965 20.791-84.106 45.225-18.276 22.197-33.364 55.117-27.49 87.095 32.187 1.001 65.483-18.218 84.819-43.028z" fill="#26c186" stroke="#008c52"/><path d="m24.356544 199.96661c-12.250626 19.19288-20.7271125 46.70181-22.976544 70.8304l397.43701-.0102c4.29717-26.39752 18.58564-51.61732 41.233-70.79103l-415.693466-.0292h.02346z" fill="#ffc802" stroke="#ff9a0a"/><path d="m4.989 340.998c-3.862-24.644-4.487-48.403-2.061-70.2l394.341-.01c-3.857 23.638-.62 48.237 9.136 70.225z" fill="#ff8b60" stroke="#dd4d25"/><path d="m24.261 411.193c-9.312-23.584-15.688-47.271-19.272-70.195l401.416.015c12.427 28.018 35.425 51.821 67.808 64.053-.962 2.139-1.89 4.185-2.783 6.157z" fill="#f9304d" stroke="#bc0722"/><path d="m471.429 411.222c-11.118 24.443-17.563 37.129-32.949 60.547-2.07 3.145-4.209 6.362-6.436 9.609l-370.527.034c-1.187-1.768-2.363-3.535-3.521-5.288-13.853-21.099-25.068-42.974-33.735-64.932z" fill="#af75b3" stroke="#8631a6"/><path d="m432.044 481.378c-22.666 33.203-53.096 69.741-90.02 70.088-36.03.327-45.273-23.447-94.155-23.179-48.882.273-59.087 23.594-95.117 23.257-38.521-.356-68.433-36.24-91.235-70.132z" fill="#2aa9f6" stroke="#1a6cb2"/></g></svg>