<svg width="128" height="128" viewBox="0 0 33.866 33.866" xmlns="http://www.w3.org/2000/svg"><defs><linearGradient id="a" x1="-197.1" x2="-196.91" y1="217.68" y2="219.37" gradientTransform="rotate(-45 -2514.008 -1042.793) scale(7.4372)" gradientUnits="userSpaceOnUse"><stop offset="0"/><stop stop-opacity="0" offset="1"/></linearGradient></defs><path d="M7.144 4.498c-.794 0-1.059.536-1.059 1.058H3.96c-.402 0-.52.15-.52.518v10.879c0 .575.465 1.04 1.04 1.04h24.91c.574 0 1.039-.466 1.038-1.04V6.073c0-.389-.135-.519-.52-.519H15.346c0-.52-.265-1.056-1.058-1.056z" fill="#fff" fill-opacity=".976" stroke="#000" stroke-opacity=".268" stroke-width=".529" style="paint-order:markers stroke fill"/><path d="M7.144 4.498c-.794 0-1.059.536-1.059 1.058H3.96c-.402 0-.52.15-.52.518v10.879c0 .575.465 1.04 1.04 1.04h24.91c.574 0 1.039-.466 1.038-1.04V6.073c0-.389-.135-.519-.52-.519H15.346c0-.52-.265-1.056-1.058-1.056z" fill="#fff" fill-opacity=".976" style="paint-order:markers stroke fill"/><path d="M16.934 8.202c-.577 0-.768.558-1.06 1.058l-.589 1.059H1.836c-.521 0-.521.52-.521.52v17.745c0 .52.521.52.521.52h30.197c.52 0 .52-.52.52-.52V8.723c0-.522-.52-.522-.52-.522z" fill="#6ba4e7" stroke="#003579" stroke-opacity=".561" stroke-width=".529" style="paint-order:markers stroke fill"/><path d="M16.934 8.202c-.577 0-.768.558-1.06 1.058l-.589 1.059H1.836c-.521 0-.521.52-.521.52v17.745c0 .52.521.52.521.52h30.197c.52 0 .52-.52.52-.52V8.723c0-.522-.52-.522-.52-.522z" fill="#6ba4e7" style="paint-order:markers stroke fill"/><path transform="scale(.26458)" d="M123.03 86.385 99.417 110h21.648c1.963 0 1.965-1.963 1.965-1.963V86.385z" fill="url(#a)" opacity=".1" style="paint-order:stroke markers fill"/><rect x="7.673" y="5.556" width="6.35" height="1.058" rx=".529" ry=".53" fill-opacity=".267" style="paint-order:markers stroke fill"/><g stroke-width="0"><path d="m12.885 14.287-.53 1.588h-1.507v7.937h12.17v-7.937H21.51l-.529-1.588zm4.048 2.646c1.323 0 2.381 1.058 2.381 2.381s-1.058 2.382-2.38 2.382-2.382-1.059-2.382-2.382 1.058-2.38 2.381-2.38z" opacity=".15"/><path d="M10.848 15.61a.264.264 0 0 0-.265.265v7.937c0 .147.118.265.265.265h12.17a.264.264 0 0 0 .265-.265v-7.937a.264.264 0 0 0-.265-.265h-1.322l-.53-1.587H12.7l-.53 1.587zm0 .265h1.508l.529-1.588h8.096l.53 1.588h1.507v7.937h-12.17z" opacity=".3"/><path d="M16.933 16.669a2.646 2.646 0 0 0-2.646 2.645 2.646 2.646 0 0 0 2.646 2.646 2.646 2.646 0 0 0 2.646-2.646 2.646 2.646 0 0 0-2.646-2.645zm0 .264a2.381 2.381 0 0 1 2.381 2.381 2.381 2.381 0 0 1-2.38 2.382 2.381 2.381 0 0 1-2.382-2.382 2.381 2.381 0 0 1 2.381-2.38z" opacity=".2"/></g></svg>