<svg width="128" height="128" viewBox="0 0 33.866 33.866" xmlns="http://www.w3.org/2000/svg"><defs><linearGradient id="a" x1="-197.1" x2="-196.91" y1="217.68" y2="219.37" gradientTransform="rotate(-45 -2514.008 -1042.793) scale(7.4372)" gradientUnits="userSpaceOnUse"><stop offset="0"/><stop stop-opacity="0" offset="1"/></linearGradient></defs><path d="M7.144 4.498c-.794 0-1.059.536-1.059 1.058H3.96c-.402 0-.52.15-.52.518v10.879c0 .575.465 1.04 1.04 1.04h24.91c.574 0 1.039-.466 1.038-1.04V6.073c0-.389-.135-.519-.52-.519H15.346c0-.52-.265-1.056-1.058-1.056z" fill="#fff" fill-opacity=".976" stroke="#000" stroke-opacity=".268" stroke-width=".529" style="paint-order:markers stroke fill"/><path d="M7.144 4.498c-.794 0-1.059.536-1.059 1.058H3.96c-.402 0-.52.15-.52.518v10.879c0 .575.465 1.04 1.04 1.04h24.91c.574 0 1.039-.466 1.038-1.04V6.073c0-.389-.135-.519-.52-.519H15.346c0-.52-.265-1.056-1.058-1.056z" fill="#fff" fill-opacity=".976" style="paint-order:markers stroke fill"/><path d="M16.934 8.202c-.577 0-.768.558-1.06 1.058l-.589 1.059H1.836c-.521 0-.521.52-.521.52v17.745c0 .52.521.52.521.52h30.197c.52 0 .52-.52.52-.52V8.723c0-.522-.52-.522-.52-.522z" fill="#6ba4e7" stroke="#003579" stroke-opacity=".561" stroke-width=".529" style="paint-order:markers stroke fill"/><path d="M16.934 8.202c-.577 0-.768.558-1.06 1.058l-.589 1.059H1.836c-.521 0-.521.52-.521.52v17.745c0 .52.521.52.521.52h30.197c.52 0 .52-.52.52-.52V8.723c0-.522-.52-.522-.52-.522z" fill="#6ba4e7" style="paint-order:markers stroke fill"/><path transform="scale(.26458)" d="M123.03 86.385 99.417 110h21.648c1.963 0 1.965-1.963 1.965-1.963V86.385z" fill="url(#a)" opacity=".1" style="paint-order:stroke markers fill"/><rect x="7.673" y="5.556" width="6.35" height="1.058" rx=".529" ry=".53" fill-opacity=".267" style="paint-order:markers stroke fill"/><g stroke-width="0"><path d="M12.7 14.023V25.4h8.466V14.023zm.264.264h.265v.265h-.265zm.53 0h6.879v5.292h-6.88zm7.143 0h.265v.265h-.265zm-7.673.53h.265v.264h-.265zm7.673 0h.265v.264h-.265zm-7.673.529h.265v.264h-.265zm7.673 0h.265v.264h-.265zm-7.673.529h.265v.264h-.265zm7.673 0h.265v.264h-.265zm-7.673.529h.265v.265h-.265zm7.673 0h.265v.265h-.265zm-7.673.53h.265v.264h-.265zm7.673 0h.265v.264h-.265zm-7.673.528h.265v.265h-.265zm7.673 0h.265v.265h-.265zm-7.673.53h.265v.264h-.265zm7.673 0h.265v.264h-.265zm-7.673.529h.265v.264h-.265zm7.673 0h.265v.264h-.265zm-7.673.529h.265v.264h-.265zm7.673 0h.265v.264h-.265zm-7.673.529h.265v.264h-.265zm7.673 0h.265v.264h-.265zm-7.143.264h6.879v5.292h-6.88zm-.53.265h.265v.265h-.265zm7.673 0h.265v.265h-.265zm-7.673.53h.265v.264h-.265zm7.673 0h.265v.264h-.265zm-7.673.528h.265v.265h-.265zm7.673 0h.265v.265h-.265zm-7.673.53h.265v.264h-.265zm7.673 0h.265v.264h-.265zm-7.673.529h.265v.264h-.265zm7.673 0h.265v.264h-.265zm-7.673.529h.265v.264h-.265zm7.673 0h.265v.264h-.265zm-7.673.529h.265v.265h-.265zm7.673 0h.265v.265h-.265zm-7.673.53h.265v.264h-.265zm7.673 0h.265v.264h-.265zm-7.673.528h.265v.265h-.265zm7.673 0h.265v.265h-.265zm-7.673.53h.265v.264h-.265zm7.673 0h.265v.264h-.265z" opacity=".3"/><path d="M13.494 14.287v5.292h6.879v-5.292zm0 5.556v5.292h6.879v-5.292z" opacity=".15"/></g></svg>