<svg width="16" height="16" xmlns="http://www.w3.org/2000/svg"><path d="M3 1c-1.108 0-2 .892-2 2v10c0 1.108.892 2 2 2h10c1.108 0 2-.892 2-2V3c0-1.108-.892-2-2-2H3zm0 1h5.176C5.25 4.317 3.203 5.229 2 5.559V3c0-.554.446-1 1-1zm6.719 0h.449c-.553 1.921-.74 6.348-.771 12H8.289C7.04 11.904 3.847 9.333 2 8.469v-1.46c.85-.21 2.004-.595 3.236-1.368C7.118 4.46 8.926 2.76 9.72 2zm3.492.043c.449.099.79.478.79.957v8.5c-.386-1.37-.702-2.843-.958-4.236-.278-2.115-.055-4.016.168-5.221zM2 9.961c1.628.504 3.592 2.082 4.904 4.04H3c-.554 0-1-.447-1-1V9.96z" fill="#5d656b"/></svg>