<svg width="16" height="16" xmlns="http://www.w3.org/2000/svg"><g fill="#5d656b"><g stroke-width="1.11"><path d="M3 .021C1.892.021 1 .904 1 2v12.041c0 1.096.892 1.978 2 1.978h10c1.108 0 2-.882 2-1.978V2a1.985 1.985 0 0 0-2-1.979H3zM3 1h10c.554 0 1 .446 1 1v12.041c0 .554-.446 1-1 1H3c-.554 0-1-.446-1-1V2c0-.554.446-1 1-1z" style="paint-order:stroke markers fill"/><path d="M3 .021C1.892.021 1 .904 1 2v4.762a10.207 11.199 0 0 0 9.332 6.697A10.207 11.199 0 0 0 15 12.217V2A1.985 1.985 0 0 0 13 .02H3z" opacity=".1" style="paint-order:stroke markers fill"/><path d="M3 .021C1.892.021 1 .904 1 2v12.041a1.98 1.98 0 0 0 2 1.978L6 16c3.027-1.08 7.619-4.853 9-8V2a1.985 1.985 0 0 0-2-1.979z" opacity=".1" style="paint-order:stroke markers fill"/></g><path d="M3.125 3.022A4.98 4.98 0 0 0 8 7a4.98 4.98 0 0 0 4.871-3.978h-1.004a4 4 0 0 1-3.867 3 4 4 0 0 1-3.87-3z" style="paint-order:stroke fill markers"/></g></svg>