<svg xmlns="http://www.w3.org/2000/svg" width="16" height="16"><defs><style id="current-color-scheme" type="text/css">.ColorScheme-Text{color:#323a41}</style></defs><path style="opacity:.3;fill:currentColor" class="ColorScheme-Text" d="M2.5 1c-.277 0-.5.78-.5.5V2H0v12.5c0 .28.223.5.5.5h6c.277 0 .5-.22.5-.5V2H5v-.5c0-.27-.223-.5-.5-.5z"/><path style="fill:currentColor" class="ColorScheme-Text" d="M0 5v9.5c0 .28.223.5.5.5h6c.277 0 .5-.22.5-.5V5z"/><path style="fill:currentColor;fill-rule:evenodd" class="ColorScheme-Text" d="M10 2a1 1 0 0 0-1 1v11a1 1 0 0 0 1 1h5a1 1 0 0 0 1-1V3a1 1 0 0 0-1-1zm0 2h1v1h-1zm2 0h1v1h-1zm2 1h1v7h-1zm-4 1h1v1h-1zm2 0h1v1h-1zm-2 2h1v1h-1zm2 0h1v1h-1zm-2 2h1v1h-1zm2 0h1v1h-1zm-2 2h1v1h-1zm2 0h1v1h-1z"/></svg>