<svg xmlns="http://www.w3.org/2000/svg" width="16" height="16"><defs><style id="current-color-scheme" type="text/css">.ColorScheme-Text{color:#323a41}</style></defs><path style="opacity:.3;fill:currentColor" class="ColorScheme-Text" d="M3.463 0a2.499 2.499 0 0 1 2.484 2.006H7.68c2.093 0 3.79 1.395 3.79 3.488 0 .94-.347 1.733-.915 2.326a2.5 2.5 0 0 1 .193.246l.797 1.14A5.425 5.425 0 0 0 13 5.511C13 2.488 10.538.035 7.5.035H3.904A2.511 2.511 0 0 0 3.463 0zm-2.46 2.52L1 2.523v.036c0-.013.004-.026.004-.04zM1 2.559v9.916c-.048 3.366 5.048 3.366 5 0v-1.489h.68l-.05-.07c-.023-.034-.037-.073-.06-.107a2.5 2.5 0 0 1-.066-.116 2.49 2.49 0 0 1-.299-1.709H3.793v3.688c.008.54-.806.54-.799 0v-7.73A2.486 2.486 0 0 1 1 2.558zm4.97.244c-.005.043-.001.087-.01.13a2.464 2.464 0 0 1-2.168 2.04l.001 3.213h2.711c.011-.02.047-.035.064-.053A2.5 2.5 0 0 1 8.615 6.97a2.5 2.5 0 0 1 1.33.347c.452-.454.727-1.073.727-1.824 0-1.662-1.33-2.691-2.992-2.691H5.97zM6 4.018h1.5c.876 0 1.5.622 1.5 1.494 0 .727-.44 1.306-1.092 1.47-.014-.007-.035-.007-.045-.021L6 7.004V4.018z"/><path style="fill:currentColor" class="ColorScheme-Text" d="M3.455 0a2.484 2.484 0 0 0-1.389.451A2.481 2.481 0 0 0 1.04 2.064a2.502 2.502 0 0 0 3.895 2.482A2.487 2.487 0 0 0 5.96 2.933 2.5 2.5 0 0 0 3.455 0zm5.16 6.97a2.5 2.5 0 0 0-1.963 3.964l2.1 3a2.5 2.5 0 1 0 4.096-2.868l-2.1-3a2.5 2.5 0 0 0-2.133-1.095z"/></svg>