<svg xmlns="http://www.w3.org/2000/svg" width="16" height="16"><defs><style id="current-color-scheme" type="text/css"></style></defs><path style="fill:currentColor;color:#f44336" d="M8 1c-.554 0-1 .446-1 1v5.004c0 .554.446 1 1 1s1-.446 1-1V2c0-.554-.446-1-1-1zm3.037 1.988a1 1 0 0 0-.193.012 1 1 0 0 0-.438 1.813 3.98 3.98 0 0 1 .813 5.593c-1.331 1.779-3.847 2.112-5.625.782-1.779-1.331-2.112-3.816-.782-5.594.217-.29.464-.53.75-.75A1.003 1.003 0 0 0 4.345 3.25c-.43.332-.832.722-1.157 1.156-1.977 2.644-1.425 6.429 1.22 8.407 2.643 1.977 6.428 1.425 8.406-1.219 1.977-2.644 1.425-6.429-1.219-8.406a1 1 0 0 0-.557-.2z"/></svg>