<svg xmlns="http://www.w3.org/2000/svg" width="16" height="16"><defs><style id="current-color-scheme" type="text/css">.ColorScheme-Text{color:#323a41}</style></defs><path style="fill:currentColor" class="ColorScheme-Text" d="M1 3v2.715C1 6.427 1.573 7 2.285 7h3.43C6.427 7 7 6.427 7 5.715V3H1zm8 0v2.715C9 6.427 9.573 7 10.285 7h3.43C14.427 7 15 6.427 15 5.715V3H9zm-8 8v2.715C1 14.427 1.573 15 2.285 15h3.43C6.427 15 7 14.427 7 13.715V11H1zm8 0v2.715C9 14.427 9.573 15 10.285 15h3.43c.712 0 1.285-.573 1.285-1.285V11H9z"/><path style="opacity:.3;fill:currentColor" class="ColorScheme-Text" d="M2.285 1C1.573 1 1 1.573 1 2.285V3h6v-.715C7 1.573 6.427 1 5.715 1h-3.43zm8 0C9.573 1 9 1.573 9 2.285V3h6v-.715C15 1.573 14.427 1 13.715 1h-3.43zm-8 8C1.573 9 1 9.573 1 10.285V11h6v-.715C7 9.573 6.427 9 5.715 9h-3.43zm8 0C9.573 9 9 9.573 9 10.285V11h6v-.715C15 9.573 14.427 9 13.715 9h-3.43z"/></svg>