<svg xmlns="http://www.w3.org/2000/svg" width="32" height="32" version="1"><rect style="opacity:.2" width="20" height="12" x="1" y="9" rx="1" ry="1"/><path style="fill:#124b85" d="M1 16c0 .554.446 1 1 1h18c.554 0 1-.446 1-1V5c0-.554-.446-1-1-1H10V3c0-.554-.446-1-1-1H2c-.554 0-1 .446-1 1"/><rect style="opacity:.2" width="20" height="12" x="1" y="7" rx="1" ry="1"/><rect style="fill:#f4f4f7" width="16" height="8" x="3" y="6" rx="1" ry="1"/><rect style="fill:#165ba0" width="20" height="12" x="1" y="8" rx="1" ry="1"/><path style="opacity:.1;fill:#f4f4f7" d="M2 2c-.554 0-1 .446-1 1v1c0-.554.446-1 1-1h7c.554 0 1 .446 1 1V3c0-.554-.446-1-1-1zm8 2v1h10c.554 0 1 .446 1 1V5c0-.554-.446-1-1-1z"/><rect style="opacity:.2" width="20" height="12" x="10" y="19" rx="1" ry="1"/><path style="fill:#12806a" d="M10 26c0 .554.446 1 1 1h18c.554 0 1-.446 1-1V15c0-.554-.446-1-1-1H19v-1c0-.554-.446-1-1-1h-7c-.554 0-1 .446-1 1"/><rect style="opacity:.2" width="20" height="12" x="10" y="17" rx="1" ry="1"/><rect style="fill:#f4f4f7" width="16" height="8" x="12" y="16" rx="1" ry="1"/><rect style="fill:#16a085" width="20" height="12" x="10" y="18" rx="1" ry="1"/><path style="opacity:.1;fill:#f4f4f7" d="M11 12c-.554 0-1 .446-1 1v1c0-.554.446-1 1-1h7c.554 0 1 .446 1 1v-1c0-.554-.446-1-1-1zm8 2v1h10c.554 0 1 .446 1 1v-1c0-.554-.446-1-1-1z"/><path style="opacity:.2" d="M6 12a3 3 0 0 0-3 3 3 3 0 0 0 3 3 3 3 0 0 0 2-.768V18h1v-6H8v.77A3 3 0 0 0 6 12zm0 1a2 2 0 0 1 2 2 2 2 0 0 1-2 2 2 2 0 0 1-2-2 2 2 0 0 1 2-2z"/><path style="fill:#f4f4f7" d="M6 11a3 3 0 0 0-3 3 3 3 0 0 0 3 3 3 3 0 0 0 2-.768V17h1v-6H8v.77A3 3 0 0 0 6 11zm0 1a2 2 0 0 1 2 2 2 2 0 0 1-2 2 2 2 0 0 1-2-2 2 2 0 0 1 2-2z"/><path style="opacity:.2" d="M12 21v7h1v-.502a2.5 2.5 0 0 0 1.5.502 2.5 2.5 0 0 0 2.5-2.5 2.5 2.5 0 0 0-2.5-2.5 2.5 2.5 0 0 0-1.5.504V21zm2.5 3a1.5 1.5 0 0 1 1.5 1.5 1.5 1.5 0 0 1-1.5 1.5 1.5 1.5 0 0 1-1.5-1.5 1.5 1.5 0 0 1 1.5-1.5z"/><path style="fill:#f4f4f7" d="M12 20v7h1v-.502a2.5 2.5 0 0 0 1.5.502 2.5 2.5 0 0 0 2.5-2.5 2.5 2.5 0 0 0-2.5-2.5 2.5 2.5 0 0 0-1.5.504V20zm2.5 3a1.5 1.5 0 0 1 1.5 1.5 1.5 1.5 0 0 1-1.5 1.5 1.5 1.5 0 0 1-1.5-1.5 1.5 1.5 0 0 1 1.5-1.5z"/></svg>