<svg viewBox="0 0 32 32" xmlns="http://www.w3.org/2000/svg" xmlns:xlink="http://www.w3.org/1999/xlink"><linearGradient id="a"><stop offset="0" stop-color="#fcfcfc"/><stop offset="1" stop-color="#eff0f1"/></linearGradient><linearGradient id="b" gradientTransform="matrix(.25 0 0 .88235 2.75 12)" gradientUnits="userSpaceOnUse" x1="5" x2="29" xlink:href="#a" y1="17" y2="17"/><linearGradient id="c" gradientUnits="userSpaceOnUse" x1="20" x2="15" y1="10"><stop offset="0"/><stop offset="1" stop-opacity=".471"/></linearGradient><linearGradient id="d" gradientUnits="userSpaceOnUse" x1="28" x2="4" y1="12" y2="27"><stop offset="0"/><stop offset="1" stop-opacity=".502"/></linearGradient><linearGradient id="e" gradientTransform="matrix(.25 0 0 .88235 20.75 12)" gradientUnits="userSpaceOnUse" x1="5" x2="29" xlink:href="#a" y1="17" y2="17"/><linearGradient id="f" gradientUnits="userSpaceOnUse" x1="23" x2="18" y1="10" y2="5"><stop offset="0" stop-color="#292c2f" stop-opacity=".149"/><stop offset="1" stop-color="#292c2f" stop-opacity=".1"/></linearGradient><path d="m3 28h-1v2h28v-2h-1v-1h-26z" fill="#f6f6f7"/><path d="m2 29h28v1h-28z" opacity=".4" stroke-width=".764"/><path d="m3 27h26v1h-26z" opacity=".255" stroke-width=".736"/><path d="m22 12v15h6v-15z" fill="url(#e)"/><path d="m10 12v15h12v-15z" fill="#f6f6f7"/><path d="m4 12v15h6v-15z" fill="url(#b)"/><path d="m4 12v15h6v-15zm18 0v15h6v-15z" fill="#e6e7e7"/><path d="m4 12v15h1v-15zm5 0v15h1v-15zm13 0v15h1v-15zm5 0v15h1v-15z" fill="url(#d)" opacity=".255"/><path d="m13 19h6v8h-6z" opacity=".6"/><path d="m16 1.732-14 7.674v2.594h28v-2.594z" fill="#fafafa"/><path d="m16 1.732-14 7.674v2.594h28v-2.594zm0 1.141 13 7.127v1h-26v-1z" fill="url(#c)" opacity=".235"/><path d="m2 11h28v1h-28z" opacity=".2" stroke-width=".764"/><path d="m27 8.902v1.098h-24v1h26v-1z" fill="url(#f)" fill-rule="evenodd" stroke-width=".538"/></svg>