<svg xmlns="http://www.w3.org/2000/svg" width="32" height="32" version="1"><rect style="opacity:.2" width="24" height="24" x="-31" y="-28" rx="1.286" ry="1.286" transform="matrix(0 -1 -1 0 0 0)"/><rect style="fill:#fabd7f" width="24" height="24" x="-30" y="-28" rx="1.286" ry="1.286" transform="matrix(0 -1 -1 0 0 0)"/><path style="fill:#f4f4f7;opacity:.2" d="M5.285 6C4.573 6 4 6.573 4 7.285v1C4 7.573 4.573 7 5.285 7h21.43C27.427 7 28 7.573 28 8.285v-1C28 6.573 27.427 6 26.715 6H5.285z"/><path style="opacity:.1" d="M14.572 23c-.396 0-.572-.343-.572-.77V10h-3l5-7 5 7h-3v12.23c0 .426-.178.77-.573.77z"/><path style="fill:#f4f4f7" d="M14.572 22c-.396 0-.572-.343-.572-.77V9h-3l5-7 5 7h-3v12.23c0 .426-.178.77-.573.77z"/></svg>