<svg xmlns="http://www.w3.org/2000/svg" width="16" height="16"><path style="fill:#323a41" d="M1 1v14h6v-1H6v-1h1v-1H6v-1h1v-1H6V9h1V8H6V7h1V6H6V5h1V4H6V3h1V2H6V1H1zm6 1h1V1H7v1zm1 0v1h1V2H8zm1 0h1V1H9v1zm1 0v1h1V2h-1zm0 1H9v1h1V3zm0 1v1h1V4h-1zm0 1H9v1h1V5zm0 1v1h1V6h-1zm0 1H9v1h1V7zm0 1v1h1V8h-1zm0 1H9v1h1V9zm0 1v1h1v-1h-1zm0 1H9v1h1v-1zm0 1v1h1v-1h-1zm0 1H9v1h1v-1zm0 1v1h1v-1h-1zm-1 0H8v1h1v-1zm-1 0v-1H7v1h1zm0-1h1v-1H8v1zm0-1v-1H7v1h1zm0-1h1v-1H8v1zm0-1V9H7v1h1zm0-1h1V8H8v1zm0-1V7H7v1h1zm0-1h1V6H8v1zm0-1V5H7v1h1zm0-1h1V4H8v1zm0-1V3H7v1h1z"/><path style="opacity:.3;fill:#323a41" d="M11 1h4v14h-4z"/></svg>