<svg xmlns="http://www.w3.org/2000/svg" height="24" width="24">
    <g transform="translate(-.623 24.544) scale(.04893)">
        <path style="opacity:1;fill:#aaa;fill-opacity:1;fill-rule:nonzero;stroke:none" d="M277.945-386.693c-1.572.13-3.263.655-4.834 1.119-12.622 3.68-19.683 16.765-16.004 29.399l10.05 34.233h-.37l-68.466 20.1-10.05-34.234c-3.679-12.621-16.765-20.051-29.398-16.372-12.622 3.68-20.052 16.765-16.373 29.399l10.05 34.602-34.233 10.05c-12.622 3.68-19.683 16.765-16.003 29.399 3.679 12.621 16.765 19.682 29.398 16.003l34.234-10.05 20.1 68.836-34.234 10.05c-12.622 3.679-20.052 16.765-16.373 29.399 3.68 12.621 16.766 20.051 29.4 16.372l34.602-10.05 10.05 34.234c3.679 12.621 16.765 19.682 29.398 16.003 12.622-3.68 19.683-16.766 16.004-29.4l-10.05-34.232 68.836-20.1 10.05 34.234c3.679 12.621 16.765 20.051 29.398 16.372 12.622-3.68 20.052-16.765 16.373-29.399l-10.05-34.602 34.233-10.05c12.622-3.68 19.683-16.765 16.003-29.399-3.679-12.622-16.765-19.683-29.398-16.003l-34.234 10.05-20.1-68.836 34.234-10.05c12.622-3.68 20.052-16.765 16.373-29.399-3.68-12.621-16.766-20.052-29.4-16.372l-34.602 10.05-10.05-34.234c-3.214-11.05-13.514-18.027-24.564-17.122zm2.239 110.51h.369l19.718 68.467v.37l-68.466 19.718h-.37l-19.718-68.467v-.37l68.467-19.717z"/>
        <circle r="37.367" cy="-413.411" cx="351.687" style="fill:#0ff;fill-opacity:1"/>
    </g>
</svg>
