<svg enable-background="new" height="16" width="16.000017" xmlns="http://www.w3.org/2000/svg" xmlns:xlink="http://www.w3.org/1999/xlink"><filter id="a" color-interpolation-filters="sRGB"><feBlend in2="BackgroundImage" mode="darken"/></filter><g transform="translate(-685.0004 335.00336)"><g fill="#4c5263"><path d="m693.00042-334.00336c-3.86599 0-7 3.13401-7 7s3.13401 7 7 7c.70161 0 1.39221-.0892 2.03125-.28125.0537-.41966.21363-.83863.53125-1.15625l.0625-.0625-.0625-.0625c-.25599-.25599-.41871-.57407-.5-.90625-.63262.28931-1.32139.46875-2.0625.46875-2.76143 0-5-2.23858-5-5s2.23857-5 5-5c2.76142 0 5 2.23858 5 5 0 .74111-.17944 1.42988-.46875 2.0625.33218.0813.65026.24401.90625.5l.0625.0625.0625-.0625c.31762-.31762.73659-.47756 1.15625-.53125.19209-.63904.28125-1.32964.28125-2.03125 0-3.86599-3.13401-7-7-7zm2.40625 4.1875c-.0964.0256-.18476.0808-.25.15625l-2.15625 2.15625-1.65625-1.65625c-.15718-.25698-.56824-.30673-.78125-.0937-.21301.21301-.16326.62407.0937.78125l2 2c.1835.1737.504.1737.6875 0l2.5-2.5c.29287-.29845-.0248-.91114-.4375-.84375z" opacity=".35"/><path d="m696.00042-324.00336v1c0 .27614.10029.53779.28125.71875l.78125.78125-.78125.78125c-.18096.18096-.28125.44261-.28125.71875v1h1c.27614 0 .53779-.10029.71875-.28125l.78125-.78125.78125.78125c.18096.18096.44261.28125.71875.28125h1v-1c0-.27614-.10029-.53779-.28125-.71875l-.78125-.78125.78125-.78125c.18096-.18096.28125-.44261.28125-.71875v-1h-1c-.27614 0-.53779.10029-.71875.28125l-.78125.78125-.78125-.78125c-.18096-.18096-.44261-.28125-.71875-.28125z"/></g><g filter="url(#a)"/></g></svg>