<svg enable-background="new" height="16" width="16" xmlns="http://www.w3.org/2000/svg" xmlns:xlink="http://www.w3.org/1999/xlink"><filter id="a" color-interpolation-filters="sRGB"><feBlend in2="BackgroundImage" mode="darken"/></filter><g transform="translate(-665.0004 635.00336)"><g fill="#4c5263"><path d="m669.0002-632.00391c-1.6447 0-3 1.3553-3 3v4c0 1.6447 1.3553 3 3 3h1 .65625 3.34375 3c1.64338 0 2.99782-1.35318 3-2.99609v-.004-4c0-1.64338-1.35318-2.99782-2.99609-3-.002 0-.004.002-.004.004-.554 0-1 .446-1 1 0 .54708.43611.98514.98047.9961h.0196c.5713 0 1 .4287 1 1v3.99999c0 .5713-.4287 1-1 1h-3-3.34375-.65625-1c-.5713 0-1-.4287-1-1v-3.99999c0-.5713.4287-1 1-1h3v-2z"/><path d="m675.00065-631.00336-4-3v6z"/></g><g filter="url(#a)"/></g></svg>