<svg enable-background="new" height="16" width="16" xmlns="http://www.w3.org/2000/svg" xmlns:xlink="http://www.w3.org/1999/xlink"><filter id="a" color-interpolation-filters="sRGB"><feBlend in2="BackgroundImage" mode="darken"/></filter><g transform="translate(-325.00353 594.99813)"><path d="m340.00411-593.99414-14 14 11.99414-.006a2 2 0 0 0 2-2zm-3 6c1.10457 0 2 .89543 2 2s-.89543 2-2 2v1h-1v-2h1c.55229 0 1-.44772 1-1s-.44771-1-1-1c-.55228 0-1 .44772-1 1h-1c0-1.10457.89543-2 2-2zm-.5 5.75a.75.75 0 0 1 .75.75.75.75 0 0 1 -.75.75.75.75 0 0 1 -.75-.75.75.75 0 0 1 .75-.75z" fill="#4c5263"/><g filter="url(#a)"/></g></svg>