<svg enable-background="new" height="16" width="16.000198" xmlns="http://www.w3.org/2000/svg" xmlns:xlink="http://www.w3.org/1999/xlink"><filter id="a" color-interpolation-filters="sRGB"><feBlend in2="BackgroundImage" mode="darken"/></filter><g transform="translate(-525.0002 595.00336)"><path d="m527.0002-594.00338s-1.99991 0-2 2.0625v9.9375c-.00008 2 2 2 2 2h12c2 0 2-2 2-2v-10s0-2-2-2zm.0002 2.00002h2v4h1v-4h2v4 2 4h-2v-4h-1c-2 0-2-2-2-2zm8 0h2c2 0 2 2 2 2v1h-2v-1h-2v6h2v-2h-1v-1.96875l2-.0312 1 .0312v1 2.9375c0 .00005 0 2.03125-2 2.03125h-2s-2 0-2-2v-6c0-2 2-2 2-2z" fill="#4c5263"/><g filter="url(#a)"/></g></svg>