<svg enable-background="new" height="16" width="16" xmlns="http://www.w3.org/2000/svg" xmlns:xlink="http://www.w3.org/1999/xlink"><filter id="a" color-interpolation-filters="sRGB"><feBlend in2="BackgroundImage" mode="darken"/></filter><g transform="translate(-305.0004 475.00336)"><g><path d="m309.0002-474v2h8v-2zm-2 3c-.5 0-1 .5-1 1v4c0 .5.5 1 1 1h1v-2h7v-2h4v4c.5 0 1-.5 1-1v-4c0-.5-.5-1-1-1zm2 5v5h6v-5z" fill="#4c5263"/><path d="m316.00039-468.00339v4.01565l.25001 1.98438h1.5l.25-2-.00001-4.00003zm0 7v2h2v-2z" fill="#f44336"/></g><g filter="url(#a)"/></g></svg>