<svg xmlns="http://www.w3.org/2000/svg" width="22" height="22" version="1"><path style="opacity:.2" d="M1.145.5c-.093.402-.141.809-.145 1.217.004 1.331.5 4.783 1 4.783l3-2C3.529 3.411 1.499 2.027 1.145.5zM18.855.5c-.354 1.527-2.384 2.911-3.855 4l3 2c.5 0 .996-3.452 1-4.783A5.636 5.636 0 0 0 18.855.5zM9.954 12.202l-1.909.596s.65 2.094 1.908 4.213c.629 1.06 1.411 2.14 2.4 2.996.989.855 2.225 1.493 3.646 1.493 2.547 0 4.04-1.311 4.604-2.6.564-1.288.389-2.524.389-2.524l-1.985.248s.075.764-.236 1.476c-.311.711-.818 1.4-2.772 1.4-.828 0-1.592-.362-2.337-1.007-.746-.645-1.432-1.563-1.99-2.504-1.117-1.88-1.718-3.787-1.718-3.787z"/><path style="fill:#892b26" d="M18.855 0c.093.402.141.81.145 1.217C18.996 2.55 18.5 6 18 6l-3-2c1.471-1.089 3.501-2.473 3.855-4zM1.145 0C1.052.402 1.004.81 1 1.217 1.004 2.55 1.5 6 2 6l3-2C3.529 2.911 1.499 1.527 1.145 0z"/><path style="fill:none;stroke:#892b26;stroke-width:1.99998522" d="M9 12s2.5 8 7 8 4-4 4-4"/><path style="opacity:.1;fill:#fff" d="M1.145 0C1.052.402 1.004.809 1 1.217c0 .087.008.204.013.307.015-.343.053-.685.132-1.024.327 1.411 2.074 2.69 3.5 3.736L5 4C3.529 2.911 1.499 1.527 1.145 0zM18.855 0C18.501 1.527 16.471 2.911 15 4l.354.236C16.781 3.19 18.528 1.911 18.855.5c.079.339.117.681.132 1.024.005-.103.013-.22.013-.307A5.636 5.636 0 0 0 18.855 0zM9.954 11.702l-1.909.596s.06.18.156.451l1.753-.547s.6 1.907 1.717 3.787c.559.94 1.245 1.86 1.99 2.504.746.645 1.51 1.007 2.338 1.007 1.954 0 2.46-.689 2.772-1.4.311-.712.236-1.476.236-1.476l1.985-.248s.009.08.016.194a5.096 5.096 0 0 0-.016-.694l-1.985.248s.075.764-.236 1.476c-.311.711-.818 1.4-2.772 1.4-.828 0-1.592-.362-2.337-1.007-.746-.645-1.432-1.563-1.99-2.504-1.117-1.88-1.718-3.787-1.718-3.787z"/><path style="opacity:.2" d="M10 1.5c-5.54 0-10 4.46-10 10s4.46 10 10 10 10-4.46 10-10-4.46-10-10-10z"/><path style="fill:#d4453a" d="M10 1C4.46 1 0 5.46 0 11s4.46 10 10 10 10-4.46 10-10S15.54 1 10 1z"/><path style="opacity:.1" d="M5.893 7.505c-.125.02-.262.099-.42.255a1.596 1.596 0 0 0 0 2.27 1.625 1.625 0 0 0 2.287 0c.631-.627-.111-1.02-.742-1.647-.474-.47-.75-.938-1.125-.878zM14.107 7.505c-.375-.06-.651.408-1.125.878-.631.627-1.373 1.02-.742 1.647a1.625 1.625 0 0 0 2.286 0 1.596 1.596 0 0 0 0-2.27c-.158-.156-.294-.236-.419-.255zM14.518 14.494a.5.5 0 0 0-.418.206s-1.322 1.8-4.1 1.8c-2.778 0-4.1-1.8-4.1-1.8a.5.5 0 1 0-.8.6s1.678 2.2 4.9 2.2c3.222 0 4.9-2.2 4.9-2.2a.5.5 0 0 0-.382-.806z"/><path style="fill:#3f3f3f" d="M7.76 9.53c.631-.627-.111-1.02-.743-1.647-.63-.626-.912-1.25-1.544-.623a1.597 1.597 0 0 0 0 2.27 1.625 1.625 0 0 0 2.287 0z"/><path style="fill:none;stroke:#3f3f3f;stroke-width:.99999261;stroke-linecap:round;stroke-linejoin:round" d="M5.5 14.5s1.5 2 4.5 2 4.5-2 4.5-2v0"/><path style="fill:#3f3f3f" d="M12.24 9.53c-.631-.627.111-1.02.742-1.647.632-.626.913-1.25 1.544-.623a1.597 1.597 0 0 1 0 2.27 1.625 1.625 0 0 1-2.286 0z"/><path style="opacity:.2" d="M20.264 14.5a.384.375 0 0 0-.312.187l-.665 1.125-.666 1.125a.384.375 0 0 0 .333.563h2.66a.384.375 0 0 0 .334-.563l-.666-1.125-.665-1.125a.384.375 0 0 0-.353-.187z"/><path style="fill:#d4453a" d="M20.264 14a.384.375 0 0 0-.312.187l-.665 1.125-.666 1.125a.384.375 0 0 0 .333.563h2.66a.384.375 0 0 0 .334-.563l-.666-1.125-.665-1.125a.384.375 0 0 0-.353-.187z"/><path style="opacity:.1;fill:#fff" d="M10 1C4.46 1 0 5.46 0 11c0 .084.004.167.006.25A9.976 9.976 0 0 1 10 1.5a9.976 9.976 0 0 1 9.994 9.75c.002-.083.006-.166.006-.25 0-5.54-4.46-10-10-10zM20.264 14a.384.375 0 0 0-.313.188l-.664 1.124-.666 1.126a.384.375 0 0 0 .041.431l.625-1.056.664-1.126a.384.375 0 0 1 .313-.187.384.375 0 0 1 .353.188l.664 1.124.625 1.057a.384.375 0 0 0 .041-.431l-.666-1.125-.664-1.126a.384.375 0 0 0-.353-.187z"/></svg>