<svg height="48" viewBox="0 0 12.7 12.7" width="48" xmlns="http://www.w3.org/2000/svg"><g transform="translate(5.67097 -286.15221)"><path d="m-4.8772207 286.68086c-.4351619 0-.79375.35859-.79375.79375v10.31875c0 .43516.3585881.79375.79375.79375h11.1125c.435162 0 .79375-.35859.79375-.79375v-8.73125c0-.43516-.358588-.79375-.79375-.79375h-5.82031659c-.1338741 0-.204828-.0441-.3054077-.15813-.1005801-.11401-.2026518-.29867-.3162597-.50074-.1136084-.20207-.2406949-.42267-.4335653-.60669-.1928706-.18401-.46663791-.32194-.79736741-.32194z" fill="#d16040"/><path d="m-4.8772203 286.94596h3.4395824c1.05833331 0 .99128611 1.5875 1.85208331 1.5875h5.82083289c.293159 0 .529167.23601.529167.52917v8.73125c0 .29316-.236008.52917-.529167.52917h-11.1124986c-.2931585 0-.5291665-.23601-.5291665-.52917v-10.31875c0-.29316.236008-.52917.5291665-.52917z" fill="#ff8f64"/><path d="m-4.8772198 290.12096h3.4395824c1.05833341 0 .99128611-1.5875 1.85208341-1.5875h5.82083329c.293158 0 .529167.23601.529167.52917v8.73125c0 .29315-.236009.52917-.529167.52917h-11.1124991c-.2931585 0-.5291665-.23602-.5291665-.52917v-7.14375c0-.29316.236008-.52917.5291665-.52917z" fill="#ff8f64"/><path d="m-.63613529 291.97291c-.113007-.003-.2155754.0657-.2552817.17157l-.79375001 2.11667c-.03868.1031-.00945.2194.073381.29197l2.11666671 1.85208c.099733.0872.2485657.0872.3482991 0l2.11666659-1.85208c.082834-.0726.1120609-.18886.073381-.29198l-.79375-2.11666c-.077817-.20708-.3602831-.23293-.4743899-.0434l-.7167521 1.19476h-.75861059l-.7167521-1.19477c-.046442-.0772-.1290113-.12555-.219108-.12816z" fill="#fff3ee" fill-rule="evenodd"/></g></svg>