<svg height="48" viewBox="0 0 12.7 12.7" width="48" xmlns="http://www.w3.org/2000/svg"><g transform="translate(2.050521 -285.093743)"><path d="m-1.2567708 285.62291c-.4351619 0-.79375.35859-.79375.79375v10.31875c0 .43516.3585881.79375.79375.79375h11.1125c.4351618 0 .7937498-.35859.7937498-.79375v-8.73125c0-.43516-.358588-.79375-.7937498-.79375h-5.8203166c-.1338741 0-.204828-.0441-.3054077-.15813-.1005801-.11401-.2026518-.29867-.3162597-.50074-.1136084-.20207-.2406949-.42267-.4335653-.60669-.1928706-.18401-.4666379-.32194-.7973674-.32194z" fill="#66798f"/><path d="m-1.2567705 285.88801h3.4395825c1.0583333 0 .9912861 1.5875 1.8520833 1.5875h5.8208329c.2931588 0 .5291668.23601.5291668.52917v8.73125c0 .29316-.236008.52917-.5291668.52917h-11.1124987c-.2931584 0-.5291665-.23601-.5291665-.52917v-10.31875c0-.29316.2360081-.52917.5291665-.52917z" fill="#b0c1d4"/><path d="m4.0348959 287.21041c-.2965244 0-.5402617.1538-.7022828.33745-.162021.18365-.2708169.39637-.3803385.59118-.1095214.1948-.2183329.37004-.3374472.48369-.1191141.11364-.2335774.17518-.4320149.17518h-3.4395833c-.4351626 0-.79375.35859-.79375.79375v7.14375c0 .43516.3585874.79375.79375.79375h11.1125c.4351628 0 .7937498-.35859.7937498-.79375v-8.73125c0-.43516-.358587-.79375-.7937498-.79375z" fill="#66798f"/><path d="m-1.25677 289.06301h3.4395825c1.0583334 0 .9912861-1.5875 1.8520834-1.5875h5.8208333c.2931578 0 .5291668.23601.5291668.52917v8.73125c0 .29315-.236009.52917-.5291668.52917h-11.1124992c-.2931584 0-.5291664-.23602-.5291664-.52917v-7.14375c0-.29316.236008-.52917.5291664-.52917z" fill="#b0c1d4"/></g></svg>