<svg height="48" viewBox="0 0 12.7 12.7" width="48" xmlns="http://www.w3.org/2000/svg"><g transform="translate(5.291667 -283.770823)"><path d="m-4.4979167 284.29999c-.4351619 0-.79375.35859-.79375.79375v10.31875c0 .43516.3585881.79375.79375.79375h11.1125c.435162 0 .79375-.35859.79375-.79375v-8.73125c0-.43516-.358588-.79375-.79375-.79375h-5.82031657c-.1338741 0-.204828-.0441-.3054077-.15813-.1005801-.11401-.2026518-.29867-.3162597-.50074-.1136084-.20207-.2406949-.42267-.4335653-.60669-.1928706-.18401-.4666379-.32194-.79736743-.32194z" fill="#4f92db"/><path d="m-4.4979163 284.56509h3.4395824c1.05833333 0 .99128613 1.5875 1.85208333 1.5875h5.82083287c.293159 0 .529167.23601.529167.52917v8.73125c0 .29316-.236008.52917-.529167.52917h-11.1124986c-.2931585 0-.5291665-.23601-.5291665-.52917v-10.31875c0-.29316.236008-.52917.5291665-.52917z" fill="#5abfff"/><path d="m.79375003 285.88749c-.2965244 0-.5402617.1538-.7022828.33745-.162021.18365-.2708169.39637-.3803385.59117-.1095214.19481-.2183329.37005-.3374472.4837-.1191141.11364-.2335774.17518-.43201493.17518h-3.4395833c-.4351626 0-.79375.35859-.79375.79375v7.14375c0 .43516.3585874.79375.79375.79375h11.1125c.435163 0 .79375-.35859.79375-.79375v-8.73125c0-.43516-.358587-.79375-.79375-.79375z" fill="#4f92db"/><path d="m-4.4979158 287.74009h3.4395824c1.05833343 0 .99128613-1.5875 1.85208343-1.5875h5.82083327c.293158 0 .529167.23601.529167.52917v8.73125c0 .29315-.236009.52917-.529167.52917h-11.1124991c-.2931584 0-.5291665-.23602-.5291665-.52917v-7.14375c0-.29316.2360081-.52917.5291665-.52917z" fill="#5abfff"/><path d="m-2.1166667 290.12082c-.7328955 0-1.3229167.59002-1.3229167 1.32292s.5900212 1.32292 1.3229167 1.32292c.7328956 0 1.32291673-.59002 1.32291673-1.32292s-.59002113-1.32292-1.32291673-1.32292zm3.175 0c-.73289557 0-1.32291667.59002-1.32291667 1.32292s.5900211 1.32292 1.32291667 1.32292c.7328956 0 1.3229167-.59002 1.3229167-1.32292s-.5900211-1.32292-1.3229167-1.32292zm3.175 0c-.7328956 0-1.3229167.59002-1.3229167 1.32292s.5900211 1.32292 1.3229167 1.32292c.732896 0 1.322917-.59002 1.322917-1.32292s-.590021-1.32292-1.322917-1.32292z" fill="#ddf3ff" opacity=".99"/></g></svg>