<svg height="48" viewBox="0 0 12.7 12.7" width="48" xmlns="http://www.w3.org/2000/svg"><g transform="translate(2.910417 -282.977033)"><path d="m-2.1166665 283.5062c-.4351619 0-.79375.35859-.79375.79375v10.31875c0 .43516.3585881.79375.79375.79375h11.1124998c.435162 0 .79375-.35859.79375-.79375v-8.73125c0-.43516-.358588-.79375-.79375-.79375h-5.8203161c-.1338744 0-.204828-.0441-.305408-.15813-.10058-.11401-.2026518-.29867-.3162596-.50074-.1136084-.20207-.2406949-.42267-.4335653-.60669-.1928707-.18401-.466638-.32194-.7973674-.32194z" fill="#c74343"/><path d="m-2.1166665 283.7713h3.4395823c1.0583336 0 .9912861 1.5875 1.8520836 1.5875h5.8208329c.293159 0 .529167.23601.529167.52917v8.73125c0 .29316-.236008.52917-.529167.52917h-11.1124988c-.2931585 0-.5291665-.23601-.5291665-.52917v-10.31875c0-.29316.236008-.52917.5291665-.52917z" fill="#f78f8f"/><path d="m3.1750002 285.0937c-.2965246 0-.5402617.1538-.702283.33745-.162021.18365-.2708169.39637-.3803385.59117-.1095214.19481-.2183329.37005-.3374472.4837-.1191141.11364-.2335774.17518-.4320149.17518h-3.4395833c-.4351624 0-.79375.35859-.79375.79375v7.14375c0 .43516.3585876.79375.79375.79375h11.1125c.435163 0 .79375-.35859.79375-.79375v-8.73125c0-.43516-.358587-.79375-.79375-.79375z" fill="#c74343"/><path d="m-2.1166658 286.9463h3.4395824c1.0583336 0 .9912861-1.5875 1.8520836-1.5875h5.8208331c.293158 0 .529167.23601.529167.52917v8.73125c0 .29315-.236009.52917-.529167.52917h-11.1124991c-.2931584 0-.5291665-.23602-.5291665-.52917v-7.14375c0-.29316.2360081-.52917.5291665-.52917z" fill="#f78f8f"/><path d="m3.424597 288.26922a.26460979.26460979 0 0 0 -.1829345.0884l-2.1166669 2.38125a.26460979.26460979 0 0 0 .1979208.44029h.2645833v1.85208c0 .14658.1180042.26458.2645833.26458h3.175c.1465792 0 .2645834-.118.2645834-.26458v-1.85208h.2645833a.26460979.26460979 0 0 0 .1979208-.44029l-.4625041-.52038v-.89142c0-.14658-.1180042-.26458-.2645834-.26458-.1465791 0-.2645833.118-.2645833.26458v.29611l-1.1249959-1.26556a.26460979.26460979 0 0 0 -.2129068-.0884z" fill="#c74343"/></g></svg>