<svg height="32" viewBox="0 0 8.467 8.467" width="32" xmlns="http://www.w3.org/2000/svg">
    <path d="M.53.265c-.29 0-.53.24-.53.529v6.879c0 .288.24.53.53.53h7.408c.288 0 .529-.242.529-.53v-5.82c0-.29-.24-.53-.53-.53H4.234c-.044 0-.058-.007-.11-.07A1.854 1.854 0 0 1 3.94.94C3.875.808 3.805.66 3.692.525a.692.692 0 0 0-.517-.26z" fill="#4f92db"/>
    <path d="M.53.53a.264.264 0 0 0-.265.264v6.879c0 .147.118.265.264.265h7.409a.264.264 0 0 0 .264-.265v-5.82a.264.264 0 0 0-.264-.265H4.233c-.529 0-.529-1.059-1.058-1.059z" fill="#5ac0ff"/>
    <path d="M4.233 1.323a.622.622 0 0 0-.5.29c-.091.143-.13.287-.177.41a.854.854 0 0 1-.146.275c-.051.053-.095.083-.235.083H.529c-.288 0-.529.24-.529.53v4.762c0 .288.24.53.53.53h7.408c.288 0 .529-.242.529-.53v-5.82c0-.29-.24-.53-.53-.53z" fill="#4f92db"/>
    <path d="M.53 2.646a.264.264 0 0 0-.265.264v4.763c0 .147.118.265.264.265h7.409a.264.264 0 0 0 .264-.265v-5.82a.264.264 0 0 0-.264-.265H4.233c-.529 0-.264 1.058-1.058 1.058z" fill="#5ac0ff"/>
    <path d="M4.233 3.44a1.848 1.848 0 0 0-1.852 1.852c0 1.026.826 1.852 1.852 1.852a1.848 1.848 0 0 0 1.852-1.852A1.848 1.848 0 0 0 4.233 3.44zm0 .793c.147 0 .265.118.265.265v.794h.53a.264.264 0 1 1 0 .529h-.795a.264.264 0 0 1-.264-.265V4.498c0-.147.118-.265.264-.265z" fill="#e6f9ff"/>
</svg>
