<svg height="128" viewBox="0 0 33.866665 33.866665" width="128" xmlns="http://www.w3.org/2000/svg"><g transform="translate(20.775332 -267.738908)"><path d="m-16.277415 268.00349h24.8708322c1.172633 0 2.1166658.94403 2.1166658 2.11667v29.10416c0 1.17264-.9440328 2.11667-2.1166658 2.11667h-24.8708322c-1.172634 0-2.116667-.94403-2.116667-2.11667v-29.10416c0-1.17264.944033-2.11667 2.116667-2.11667z" fill="#8ca4bd"/><path d="m17 2c-3.878 0-7 3.1219778-7 7v110c0 3.87802 3.122 7 7 7h94c3.878 0 7-3.12198 7-7v-110c0-3.8780222-3.122-7-7-7zm3 2h8v8h8v-8h8v8h8v-8h8v8h8v-8h8v8h8v-8h8v8h8v-8h8v8h8v8h-8v-8h-8v8h-8v-8h-8v8h-8v-8h-8v8h-8v-8h-8v8h-8v-8h-8v8h-8v-8h-8v8h-8v-8h8zm-8 104h8v8h8v-8h8v8h8v-8h8v8h8v-8h8v8h8v-8h8v8h8v-8h8v8h8v-8h8v8h-8v8h-8v-8h-8v8h-8v-8h-8v8h-8v-8h-8v8h-8v-8h-8v8h-8v-8h-8v8h-8v-8h-8z" fill="#e1ebf2" transform="matrix(.26458332 0 0 .26458332 -20.775332 267.73891)"/><path d="m64 52c-7.756002 0-14 6.243998-14 14v4h-2c-1.108 0-2 .892-2 2v26c0 1.108.892 2 2 2h20 2 1 1 8c1.108 0 2-.892 2-2v-2-4-4-4-12c0-1.108-.892-2-2-2h-2v-4c0-7.756002-6.243998-14-14-14zm0 6c4.432001 0 8 3.567999 8 8v4h-16v-4c0-4.432001 3.567999-8 8-8zm-.207031 20h.414062c2.102233 0 3.792969 1.690748 3.792969 3.792969v.414062c0 1.447461-.813976 2.684019-2 3.324219v6.46875c0 1.108-.892 2-2 2s-2-.892-2-2v-6.46875c-1.186024-.6402-2-1.876758-2-3.324219v-.414062c0-2.102221 1.690736-3.792969 3.792969-3.792969z" fill="#8ca4bd" transform="matrix(.26458332 0 0 .26458332 -20.775332 264.563909)"/></g></svg>