<svg height="128" viewBox="0 0 33.866665 33.866665" width="128" xmlns="http://www.w3.org/2000/svg"><g transform="translate(13.592464 -273.585427)"><path d="m-9.094547 273.85001h24.870832c1.172633 0 2.116666.94403 2.116666 2.11667v29.10416c0 1.17264-.944033 2.11667-2.116666 2.11667h-24.870832c-1.172633 0-2.116667-.94403-2.116667-2.11667v-29.10416c0-1.17264.944034-2.11667 2.116667-2.11667z" fill="#2fa76c"/><path d="m-9.094547 274.11459h24.870832c1.026054 0 1.852083.82603 1.852083 1.85209v29.10416c0 1.02606-.826029 1.85209-1.852083 1.85209h-24.870832c-1.026054 0-1.852083-.82603-1.852083-1.85209v-29.10416c0-1.02606.826029-1.85209 1.852083-1.85209z" fill="#90dfb3"/><path d="m-35 44.419963 6-1-.0455-13.045459 10.0455-2.954541v20h-16l17 4 9-2v-23l-9-5-17 6z" fill="#2fa76c" transform="matrix(.52916663 0 0 .52916663 14.982536 271.246524)"/></g></svg>