<svg height="128" viewBox="0 0 33.866665 33.866665" width="128" xmlns="http://www.w3.org/2000/svg"><g transform="translate(21.276462 -268.106398)"><path d="m-16.778546 268.37098h24.8708329c1.172633 0 2.1166661.94403 2.1166661 2.11667v29.10416c0 1.17264-.9440331 2.11667-2.1166661 2.11667h-24.8708329c-1.172633 0-2.116666-.94403-2.116666-2.11667v-29.10416c0-1.17264.944033-2.11667 2.116666-2.11667z" fill="#c74848"/><path d="m-16.778546 268.63556h24.8708329c1.026054 0 1.852083.82603 1.852083 1.85209v29.10416c0 1.02606-.826029 1.85209-1.852083 1.85209h-24.8708329c-1.026054 0-1.852083-.82603-1.852083-1.85209v-29.10416c0-1.02606.826029-1.85209 1.852083-1.85209z" fill="#f68d8d"/><path d="m-8.5769691 280.27748v4.7625h4.762499c0-2.63026-2.132245-4.7625-4.762499-4.7625zm-.5291663.52916c-1.9262616.00018-3.6627486 1.16068-4.3997286 2.9404-.736764 1.77942-.329284 3.82744 1.032494 5.18934 1.361894 1.36178 3.4099172 1.76926 5.1893449 1.0325 1.779704-.73698 2.940219-2.47348 2.940388-4.39974h-4.7624983zm6.8791643 1.5875v1.5875l7.408834-.00026v-1.5875zm2.11666597 2.64584v1.5875l5.29216803-.00026v-1.5875zm-3.70416497 2.64584v1.5875l8.996333-.00026v-1.5875z" fill="#c74848"/></g></svg>