<svg height="128" viewBox="0 0 33.866665 33.866665" width="128" xmlns="http://www.w3.org/2000/svg"><g transform="translate(20.30761 -268.039588)"><path d="m-15.809694 268.30417h24.8708329c1.1726331 0 2.1166661.94403 2.1166661 2.11667v29.10416c0 1.17264-.944033 2.11667-2.1166661 2.11667h-24.8708329c-1.172633 0-2.116666-.94403-2.116666-2.11667v-29.10416c0-1.17264.944033-2.11667 2.116666-2.11667z" fill="#36404d"/><path d="m-15.809694 268.56875h24.8708329c1.0260541 0 1.8520831.82603 1.8520831 1.85209v29.10416c0 1.02606-.826029 1.85209-1.8520831 1.85209h-24.8708329c-1.026054 0-1.852083-.82603-1.852083-1.85209v-29.10416c0-1.02606.826029-1.85209 1.852083-1.85209z" fill="#4b6477"/><path d="m-10.253444 271.74371h13.7583322c.879475 0 1.5875.70803 1.5875 1.5875v23.28336c0 .87947-.708025 1.5875-1.5875 1.5875h-13.7583322c-.879475 0-1.5875-.70803-1.5875-1.5875v-23.28336c0-.87947.708025-1.5875 1.5875-1.5875z" fill="#a3b7cc"/><path d="m-15.015944 272.27292c-.29316 0-.529166.236-.529166.52916v2.64584c0 .29316.236006.52916.529166.52916h1.058334c.293162 0 .529166-.236.529166-.52916v-2.64584c0-.29316-.236004-.52916-.529166-.52916zm22.2249989 0c-.29316 0-.529166.236-.529166.52916v2.64584c0 .29316.236006.52916.529166.52916h1.058334c.293161 0 .529166-.236.529166-.52916v-2.64584c0-.29316-.236005-.52916-.529166-.52916zm-22.2249989 5.29166c-.29316 0-.529166.236-.529166.52916v2.64584c0 .29316.236006.52916.529166.52916h1.058334c.293162 0 .529166-.236.529166-.52916v-2.64584c0-.29316-.236004-.52916-.529166-.52916zm22.2249989 0c-.29316 0-.529166.236-.529166.52916v2.64584c0 .29316.236006.52916.529166.52916h1.058334c.293161 0 .529166-.236.529166-.52916v-2.64584c0-.29316-.236005-.52916-.529166-.52916zm-22.2249989 5.29166c-.29316 0-.529166.23602-.529166.52918v2.64582c0 .29318.236006.52918.529166.52918h1.058334c.293162 0 .529166-.236.529166-.52918v-2.64582c0-.29316-.236004-.52918-.529166-.52918zm22.2249989 0c-.29316 0-.529166.23602-.529166.52918v2.64582c0 .29318.236006.52918.529166.52918h1.058334c.293161 0 .529166-.236.529166-.52918v-2.64582c0-.29316-.236005-.52918-.529166-.52918zm-22.2249989 5.29168c-.29316 0-.529166.236-.529166.52916v2.64584c0 .29316.236006.52916.529166.52916h1.058334c.293162 0 .529166-.236.529166-.52916v-2.64584c0-.29316-.236004-.52916-.529166-.52916zm22.2249989 0c-.29316 0-.529166.236-.529166.52916v2.64584c0 .29316.236006.52916.529166.52916h1.058334c.293161 0 .529166-.236.529166-.52916v-2.64584c0-.29316-.236005-.52916-.529166-.52916zm-22.2249989 5.29166c-.29316 0-.529166.236-.529166.52916v2.64584c0 .29316.236006.52916.529166.52916h1.058334c.293162 0 .529166-.236.529166-.52916v-2.64584c0-.29316-.236004-.52916-.529166-.52916zm22.2249989 0c-.29316 0-.529166.236-.529166.52916v2.64584c0 .29316.236006.52916.529166.52916h1.058334c.293161 0 .529166-.236.529166-.52916v-2.64584c0-.29316-.236005-.52916-.529166-.52916z" fill="#e1ebf2"/><path d="m49.962891 42.005859c-1.087593.022678-1.95921.90444-1.962891 1.992188v40.009765c.013228 1.584832 1.776023 2.526159 3.099609 1.654297l30-19.990234c1.195726-.790828 1.195726-2.547062 0-3.337891l-30-19.988281c-.335886-.22526-.732177-.344379-1.136718-.339844zm22.037109 47.994141v8h8v-8zm10 0v8h8v-8zm-10 10v8h8v-8zm10 0v8h8v-8z" fill="#f7f9fb" transform="matrix(.26458332 0 0 .26458332 -20.30761 268.03959)"/></g></svg>