<svg xmlns="http://www.w3.org/2000/svg" width="32" height="32"><path style="opacity:.2" d="M6.375 3C5.613 3 5 3.624 5 4.4v25.2c0 .775.613 1.4 1.375 1.4h19.25c.761 0 1.375-.625 1.375-1.4V12l-7-2-2-7z"/><path style="fill:#8b9cbe" d="M6.375 2C5.613 2 5 2.624 5 3.4v25.2c0 .775.613 1.4 1.375 1.4h19.25c.761 0 1.375-.625 1.375-1.4V11l-7-2-2-7z"/><path style="opacity:.2" d="m27 12-9-9v7.594c0 .78.628 1.406 1.406 1.406z"/><path style="fill:#696969" d="m27 11-9-9v7.594c0 .78.628 1.406 1.406 1.406z"/><path style="opacity:.1;fill:#f4f4f7" d="M6.375 2C5.613 2 5 2.625 5 3.4v1C5 3.625 5.613 3 6.375 3H18V2z"/><path style="opacity:.2" d="M12.492 16a.5.5 0 0 0-.492.508V19H9.506a.5.5 0 1 0 0 1H12v3H9.506a.5.5 0 1 0 0 1H12v2.495a.5.5 0 1 0 1 0V24h3v2.495a.5.5 0 1 0 1 0V24h2.492a.5.5 0 0 0 .508-.507.5.5 0 0 0-.508-.493H17v-3h2.492a.5.5 0 0 0 .508-.507.5.5 0 0 0-.508-.493H17v-2.492a.5.5 0 0 0-.508-.508.5.5 0 0 0-.492.508V19h-3v-2.492a.5.5 0 0 0-.508-.508zm10 0a.5.5 0 0 0-.492.508v6.987c-.01.675 1.01.675 1 0v-6.987a.5.5 0 0 0-.508-.508zM13 20h3v3h-3zm9.5 6a.5.5 0 0 0-.5.5.5.5 0 0 0 .5.5.5.5 0 0 0 .5-.5.5.5 0 0 0-.5-.5z"/><path style="fill:#f4f4f7" d="M12.492 15a.5.5 0 0 0-.492.508V18H9.506a.5.5 0 1 0 0 1H12v3H9.506a.5.5 0 1 0 0 1H12v2.494a.5.5 0 1 0 1 0V23h3v2.494a.5.5 0 1 0 1 0V23h2.492a.5.5 0 0 0 .508-.508.5.5 0 0 0-.508-.492H17v-3h2.492a.5.5 0 0 0 .508-.508.5.5 0 0 0-.508-.492H17v-2.492a.5.5 0 0 0-.508-.508.5.5 0 0 0-.492.508V18h-3v-2.492a.5.5 0 0 0-.508-.508zm10 0a.5.5 0 0 0-.492.508v6.986c-.01.675 1.01.675 1 0v-6.986a.5.5 0 0 0-.508-.508zM13 19h3v3h-3v-3zm9.5 6a.5.5 0 0 0-.5.5.5.5 0 0 0 .5.5.5.5 0 0 0 .5-.5.5.5 0 0 0-.5-.5z"/></svg>