<svg xmlns="http://www.w3.org/2000/svg" width="32" height="32"><path style="opacity:.2" d="M6.375 3C5.613 3 5 3.624 5 4.4v25.2c0 .775.613 1.4 1.375 1.4h19.25c.761 0 1.375-.625 1.375-1.4V12l-7-2-2-7z"/><path style="fill:#8b9cbe" d="M6.375 2C5.613 2 5 2.624 5 3.4v25.2c0 .775.613 1.4 1.375 1.4h19.25c.761 0 1.375-.625 1.375-1.4V11l-7-2-2-7z"/><path style="opacity:.1;fill:#f4f4f7" d="M6.375 2C5.613 2 5 2.625 5 3.4v1C5 3.625 5.613 3 6.375 3H18V2z"/><path style="opacity:.5;fill:#f4f4f7" d="M8.5 6c-.277 0-.5.223-.5.5v3c0 .277.223.5.5.5h2c.277 0 .5-.223.5-.5v-3c0-.277-.223-.5-.5-.5zm4.75 0a.25.25 0 0 0-.25.25v3.5c0 .139.111.25.25.25h.5a.25.25 0 0 0 .25-.25v-3.5a.25.25 0 0 0-.25-.25zm2 0a.25.25 0 0 0-.25.25v3.5c0 .139.111.25.25.25h.5a.25.25 0 0 0 .25-.25v-3.5a.25.25 0 0 0-.25-.25zm2.25 0c-.277 0-.5.223-.5.5v3c0 .277.223.5.5.5h2c.277 0 .5-.223.5-.5v-3c0-.277-.223-.5-.5-.5zM9 7h1v2H9zm9 0h1v2h-1zm-8.75 5a.25.25 0 0 0-.25.25v3.5c0 .139.111.25.25.25h.5a.25.25 0 0 0 .25-.25v-3.5a.25.25 0 0 0-.25-.25zm3.25 0c-.277 0-.5.223-.5.5v3c0 .277.223.5.5.5h2c.277 0 .5-.223.5-.5v-3c0-.277-.223-.5-.5-.5zm4.75 0a.249.249 0 0 0-.25.25v3.5c0 .139.111.25.25.25h.5c.139 0 .25-.111.25-.25v-3.5a.249.249 0 0 0-.25-.25zm2 0a.249.249 0 0 0-.25.25v3.5c0 .139.111.25.25.25h.5c.139 0 .25-.111.25-.25v-3.5a.249.249 0 0 0-.25-.25zm2.25 0c-.277 0-.5.223-.5.5v3c0 .277.223.5.5.5h2c.277 0 .5-.223.5-.5v-3c0-.277-.223-.5-.5-.5zM13 13h1v2h-1zm9 0h1v2h-1zM8.5 17c-.277 0-.5.223-.5.5v3c0 .277.223.5.5.5h2c.277 0 .5-.223.5-.5v-3c0-.277-.223-.5-.5-.5zm4 0c-.277 0-.5.223-.5.5v3c0 .277.223.5.5.5h2c.277 0 .5-.223.5-.5v-3c0-.277-.223-.5-.5-.5zm4.75 0a.249.249 0 0 0-.25.25v3.5c0 .139.111.25.25.25h.5c.139 0 .25-.111.25-.25v-3.5a.249.249 0 0 0-.25-.25zm2 0a.249.249 0 0 0-.25.25v3.5c0 .139.111.25.25.25h.5c.139 0 .25-.111.25-.25v-3.5a.249.249 0 0 0-.25-.25zm2.25 0c-.277 0-.5.223-.5.5v3c0 .277.223.5.5.5h2c.277 0 .5-.223.5-.5v-3c0-.277-.223-.5-.5-.5zM9 18h1v2H9zm4 0h1v2h-1zm9 0h1v2h-1zM8.5 23c-.277 0-.5.223-.5.5v3c0 .277.223.5.5.5h2c.277 0 .5-.223.5-.5v-3c0-.277-.223-.5-.5-.5zm4.75 0a.249.249 0 0 0-.25.25v3.5c0 .138.111.25.25.25h.5c.139 0 .25-.111.25-.25v-3.5a.25.25 0 0 0-.25-.25zm2 0a.249.249 0 0 0-.25.25v3.5c0 .138.111.25.25.25h.5c.139 0 .25-.111.25-.25v-3.5a.25.25 0 0 0-.25-.25zm2.25 0c-.277 0-.5.223-.5.5v3c0 .277.223.5.5.5h2c.277 0 .5-.223.5-.5v-3c0-.277-.223-.5-.5-.5zm4.75 0a.25.25 0 0 0-.25.25v3.5c0 .138.111.25.25.25h.5a.25.25 0 0 0 .25-.25v-3.5a.25.25 0 0 0-.25-.25zM9 24h1v2H9zm9 0h1v2h-1z"/><path style="opacity:.2" d="m27 12-9-9v7.594c0 .78.628 1.406 1.406 1.406z"/><path style="fill:#696969" d="m27 11-9-9v7.594c0 .78.628 1.406 1.406 1.406z"/></svg>