<svg height="32" width="32" xmlns="http://www.w3.org/2000/svg">
    <path d="M3.4 29c-.776 0-1.4-.62-1.4-1.389V26h28v1.611c0 .77-.625 1.389-1.4 1.389z" fill="#253951"/>
    <path d="M3.4 4C2.625 4 2 4.62 2 5.389V26h28V5.39C30 4.62 29.375 4 28.6 4z" fill="#1e88e5"/>
    <path d="M3.4 4C2.625 4 2 4.62 2 5.389v1C2 5.619 2.625 5 3.4 5h25.2c.775 0 1.4.62 1.4 1.389v-1C30 4.619 29.375 4 28.6 4z" fill="#fff" opacity=".1"/>
    <rect height="8" opacity=".2" rx=".75" ry=".667" width="12" x="10" y="13"/>
    <path d="M10 14v5.334c0 .369.334.666.75.666h10.5c.416 0 .75-.297.75-.666V14z" fill="#fff"/>
    <path d="M10.75 12h10.5c.416 0 .75.297.75.667V14H10v-1.333c0-.37.335-.667.75-.667z" fill="#253951"/>
    <rect height="3" opacity=".2" rx=".375" width="3" x="3" y="18"/>
    <rect height="3" opacity=".2" rx=".375" width="3" x="3" y="6"/>
    <rect fill="#fff" height="3" rx=".375" width="3" x="3" y="5"/>
    <rect height="3" opacity=".2" rx=".375" width="3" x="3" y="10"/>
    <rect fill="#fff" height="3" rx=".375" width="3" x="3" y="9"/>
    <rect height="3" opacity=".2" rx=".375" width="3" x="3" y="14"/>
    <rect fill="#fff" height="3" rx=".375" width="3" x="3" y="13"/>
    <rect fill="#fff" height="3" rx=".375" width="3" x="3" y="17"/>
    <path d="M2 27.611v1C2 29.381 2.625 30 3.4 30h25.2c.775 0 1.4-.619 1.4-1.389v-1c0 .77-.625 1.389-1.4 1.389H3.4c-.775 0-1.4-.619-1.4-1.389z" opacity=".2"/>
</svg>
