<svg xmlns="http://www.w3.org/2000/svg" width="32" height="32"><rect fill="#e9e5dc" width="28" height="28" x="-30.05" y="-30" rx="1.5" ry="1.5" transform="matrix(0 -1 -1 0 0 0)"/><path fill="#fff" opacity=".1" d="M3.5 2.05c-.831 0-1.5.669-1.5 1.5v1c0-.831.669-1.5 1.5-1.5h25c.831 0 1.5.669 1.5 1.5v-1c0-.831-.669-1.5-1.5-1.5h-25z"/><path fill="#2095f2" fill-rule="evenodd" d="M3.4 30.05 16 17.45l12.6 12.6z"/><path fill="#1ea362" fill-rule="evenodd" d="m30 28.65-12.6-12.6L30 3.45z"/><path fill="#feea3a" fill-rule="evenodd" d="m17.238 14.75-2.477 2.477 12.764 12.762h.975c.831 0 1.5-.67 1.5-1.5v-.975L17.238 14.75z"/><path fill="#fff" fill-rule="evenodd" d="M27.525 2.05 2 27.55v.975c0 .83.669 1.5 1.5 1.5h.975L30 4.425V3.45c0-.831-.67-1.5-1.5-1.5h-.975z"/><path opacity=".2" d="M2 28.5v1c0 .831.669 1.5 1.5 1.5h25c.831 0 1.5-.669 1.5-1.5v-1c0 .831-.669 1.5-1.5 1.5h-25c-.831 0-1.5-.669-1.5-1.5zM24 1c-4.418 0-8 3.517-8 7.855 0 .271.023.522.05.786.022.263.057.528.1.785C17.066 15.948 20.8 19.858 24 23c3.2-3.142 6.934-7.052 7.85-12.574.043-.257.078-.522.1-.785.027-.264.05-.515.05-.786C32 4.517 28.418 1 24 1z"/><path fill="#f34235" d="M24 0c-4.418 0-8 3.517-8 7.855 0 .271.023.522.05.786.022.263.057.528.1.785C17.066 14.948 20.8 18.858 24 22c3.2-3.142 6.934-7.052 7.85-12.574.043-.257.078-.522.1-.785.027-.264.05-.515.05-.786C32 3.517 28.418 0 24 0z"/><path opacity=".2" d="M24 5a3 3 0 1 1 0 6 3 3 0 0 1 0-6z"/><path fill="#fff" d="M24 4a3 3 0 1 1 0 6 3 3 0 0 1 0-6z"/></svg>