<svg height="32" viewBox="0 0 32 32" width="32" xmlns="http://www.w3.org/2000/svg"><g transform="translate(18 -297.024985)"><path d="m-13 298.02501h21.999999c1.108 0 2 .89202 2 2.00001v26.00001c0 1.10797-.892 1.99998-2 1.99998h-21.999999c-1.108 0-2-.89201-2-1.99998v-26c0-1.108.892-2.00001 2-2.00002z" fill="#c74343"/><path d="m-13 299.02503h21.999999c.554 0 1 .44599 1 1v26c0 .55401-.446 1-1 1h-21.999999c-.554 0-1-.44599-1-1v-26c0-.554.446-1 1-1z" fill="#f78f8f"/><path d="m-5 298.02496v5 1 13.00008c0 1.66202 1.338 3 3 3s3-1.33798 3-3v-13.00008-1-5h-1-2-2z" fill="#36404d"/><path d="m-4 299.02493v2.99997 15.00008c0 1.108.892 2.00002 2 2.00002s2-.89202 2-2.00002v-15.00008-2.99997h-2z" fill="#4b6477"/><path d="m-2 299.02501v1h1v-1zm0 1h-1v1h1zm0 1v1h1v-1zm0 1h-1v1h1zm0 1v1h1v-1zm0 1h-1v1h1zm0 1v1h1v-1zm0 1h-1v1h1zm0 1v1h1v-1zm0 1h-1v1h1zm0 1v1h1v-1zm0 1h-1v1h1zm0 1v1h1v-1zm0 1h-1v1h1zm0 1v1h1v-1zm0 1h-1v1h1zm0 1v1h1v-1zm0 1h-1v1h1zm0 1v1h1v-1z" fill="#eff0f3"/></g></svg>