<svg height="32" width="32" xmlns="http://www.w3.org/2000/svg"><path d="m6.375 3c-.762 0-1.375.624-1.375 1.4v25.2c0 .775.613 1.4 1.375 1.4h19.25c.761 0 1.375-.625 1.375-1.4v-17.6l-7-2-2-7z" opacity=".2"/><path d="m6.375 2c-.762 0-1.375.624-1.375 1.4v25.2c0 .775.613 1.4 1.375 1.4h19.25c.761 0 1.375-.625 1.375-1.4v-17.6l-7-2-2-7z" fill="#369eda"/><path d="m27 12-9-9v7.594c0 .78.628 1.406 1.406 1.406z" opacity=".2"/><path d="m27 11-9-9v7.594c0 .78.628 1.406 1.406 1.406z" fill="#81c2e8"/><path d="m6.375 2c-.762 0-1.375.625-1.375 1.4v1c0-.775.613-1.4 1.375-1.4h11.625v-1z" fill="#f4f4f7" opacity=".2"/><path d="m14.6 15c-2.152 0-4.6.9-4.6 3.7s2.5 4.9 3.55 5.6c-3.85 0-5.45-3.5-5.45-3.5s3 7.2 9.3 7.2c2.8 0 4.6-1.6 4.6-4.4 0-2.1-1.1-4.2-3.2-5.25 4.2.35 5.1 3.15 5.1 3.15s-2.3-6.5-9.3-6.5zm.723 2.997c1.056.032 2.27.46 3.268 1.309 1.507 1.28 2.04 3.115 1.632 4.345.032-.65-.256-1.342-.777-1.864-.906-.906-2.237-1.044-2.973-.308s-.598 2.067.308 2.973c.202.202.433.372.68.501a6.164 6.164 0 0 1 -3.177-1.394c-1.824-1.551-2.02-3.716-1.045-4.834.366-.42.955-.661 1.643-.717.143-.012.29-.015.441-.01z" opacity=".2"/><path d="m14.6 14c-2.152 0-4.6.9-4.6 3.7s2.5 4.9 3.55 5.6c-3.85 0-5.45-3.5-5.45-3.5s3 7.2 9.3 7.2c2.8 0 4.6-1.6 4.6-4.4 0-2.1-1.1-4.2-3.2-5.25 4.2.35 5.1 3.15 5.1 3.15s-2.3-6.5-9.3-6.5zm.723 2.997c1.056.032 2.27.46 3.268 1.309 1.507 1.28 2.04 3.115 1.632 4.345.032-.65-.256-1.342-.777-1.864-.906-.906-2.237-1.044-2.973-.308s-.598 2.067.308 2.973c.202.202.433.372.68.501a6.164 6.164 0 0 1 -3.177-1.394c-1.824-1.551-2.02-3.716-1.045-4.834.366-.42.955-.661 1.643-.717.143-.012.29-.015.441-.01z" fill="#f4f4f7"/></svg>