<svg xmlns="http://www.w3.org/2000/svg" width="32" height="32" version="1"><rect style="opacity:.2" width="28" height="28" x="2" y="3" rx="1.4" ry="1.4"/><rect style="fill:#8b9cbe" width="28" height="28" x="2" y="2" rx="1.4" ry="1.4"/><path style="opacity:.2" d="M13.697 7h3.307l.277 1h.948L26.5 22.255 24.719 26h-7.24l.734 1.4h-.32l-.734-1.4H8.173l-.46-1h-.569L5.5 21.636l2.107-3.655 1.953-1.126 3.23-5.591-.65-1.126zm1.949 5.389L9.932 22H15.4l-.63-1.003 5.958.006z"/><path style="fill:#f4f4f7" d="M13.697 6h3.307l.277 1h.948L26.5 21.255 24.719 25h-7.24l.734 1.4h-.32l-.734-1.4H8.173l-.46-1h-.569L5.5 20.636l2.107-3.655 1.953-1.126 3.23-5.591-.65-1.126zm1.949 5.389L9.932 21H15.4l-.63-1.003 5.958.006z"/><path style="fill:#f4f4f7;opacity:.1" d="M3.4 2C2.625 2 2 2.625 2 3.4v1C2 3.625 2.625 3 3.4 3h25.2c.775 0 1.4.625 1.4 1.4v-1c0-.775-.625-1.4-1.4-1.4H3.4z"/></svg>