<svg height="32" width="32" xmlns="http://www.w3.org/2000/svg"><path d="m6.375 3c-.762 0-1.375.624-1.375 1.4v25.2c0 .775.613 1.4 1.375 1.4h19.25c.761 0 1.375-.625 1.375-1.4v-17.6l-7-2-2-7z" opacity=".2"/><path d="m6.375 2c-.762 0-1.375.624-1.375 1.4v25.2c0 .775.613 1.4 1.375 1.4h19.25c.761 0 1.375-.625 1.375-1.4v-17.6l-7-2-2-7z" fill="#4f4f4f"/><path d="m27 12-9-9v7.594c0 .78.628 1.406 1.406 1.406z" opacity=".2"/><path d="m27 11-9-9v7.594c0 .78.628 1.406 1.406 1.406z" fill="#696969"/><path d="m6.375 2c-.762 0-1.375.625-1.375 1.4v1c0-.775.613-1.4 1.375-1.4h11.625v-1z" fill="#f4f4f7" opacity=".1"/><circle cx="16" cy="21" opacity=".2" r="7"/><g transform="matrix(.35009 0 0 .35015 22.27 12.06)"><circle cx="-17.917" cy="22.688" fill="#f4f4f7" r="19.5"/><path d="m-.596 12.688a20 20 0 0 0 -27.32-7.32 20 20 0 0 0 -7.345 7.408l17.344 9.912z" fill="#e040fb"/><path d="m-.596 12.688-17.32 10-.09 19.979a20 20 0 0 0 10.09-2.658 20 20 0 0 0 7.32-27.32z" fill="#fdfd4b"/><path d="m-17.917 22.688-17.344-9.912a20 20 0 0 0 .024 19.912 20 20 0 0 0 17.231 9.979z" fill="#18ffff"/></g></svg>