<svg height="32" viewBox="0 0 32 32" width="32" xmlns="http://www.w3.org/2000/svg"><g transform="translate(-106.53658 -357.33985)"><path d="m134.53658 359.33985c-.554 0-1 .446-1 1v5c0 .554.446 1 1 1h2v14h-2c-.554 0-1 .446-1 1v5c0 .554.446 1 1 1h2c.554 0 1-.446 1-1v-4-1-16-2-3c0-.554-.446-1-1-1z" fill="#adbec6" opacity=".98"/><path d="m134.53658 360.33985v3 2 16 3 2h2v-2-3-16-2-3z" fill="#f1f6f6" opacity=".98"/><path d="m135.53658 362.33985v2h-6v-2zm-7 0v2h-3v-2zm-4 0v2h-4v-2zm-5 0v2h-2v-2zm16 4v2h-3v-2zm-4 0v2h-8v-2zm-9 0v2h-2v-2zm-3 0v2h-2v-2zm16 4v2h-5v-2zm-6 0v2h-2v-2zm-3 0v2h-4v-2zm-5 0v2h-4v-2zm14 4v2h-2v-2zm-3 0v2h-2v-2zm-3 0v2h-5v-2zm-6 0v2h-4v-2zm12 4v2h-6v-2zm-7 0v2h-2v-2zm-3 0v2h-3v-2zm-4 0v2h-3v-2zm14 4v2h-3v-2zm-4 0v2h-7v-2zm-8 0v2h-2v-2zm-3 0v2h-2v-2z" fill="#adbec6" fill-opacity=".980392"/><path d="m110.53658 358.33985h22c1.108 0 2 .892 2 2v26c0 1.108-.892 2-2 2h-22c-1.108 0-2-.892-2-2v-26c0-1.108.892-2 2-2z" fill="#007042"/><path d="m110.53658 359.33985c-.554 0-1 .446-1 1v26c0 .554.446 1 1 1h2v-28zm2 28h1zm1 0h19c.554 0 1-.446 1-1v-26c0-.554-.446-1-1-1h-19z" fill="#24b17a"/><path d="m126.53658 361.33985c-.554 0-1 .44599-1 1v5 2 4l3-3 3 3v-4-2-5c0-.55401-.446-1-1-1z" fill="#dcf1e9"/></g></svg>