<svg height="32" width="32" xmlns="http://www.w3.org/2000/svg">
    <path d="M6.375 3C5.613 3 5 3.624 5 4.4v25.2c0 .776.613 1.4 1.375 1.4h19.25c.762 0 1.375-.624 1.375-1.4V11l-7-1-1-7z" opacity=".2"/>
    <path d="M6.375 2C5.613 2 5 2.624 5 3.4v25.2c0 .776.613 1.4 1.375 1.4h19.25c.762 0 1.375-.624 1.375-1.4V10l-7-1-1-7z" fill="#005e8b"/>
    <path d="M19 3v6.667c0 .736.597 1.333 1.333 1.333H27z" opacity=".2"/>
    <path d="M19 2v6.667c0 .736.597 1.333 1.333 1.333H27z" fill="#2a80a9"/>
    <path d="M18.091 21.995c.137.768.23 1.34.28 2.117a2.21 2.21 0 0 1-.426 1.36c-.068.231-.273 0-.419 0-.36 0-.493-.37-.688-.598s-.055-.435.075-.617c.14-.095.194-.308.396-.308.2 0 .175-.262.146-.401.133-.194.052-.277.182-.49.233-.098.165-.443.246-.638.065-.138 0-.404.185-.462 0 0 .023 0 .02.03m-.225-7.917c-.305-.034-.535.163-.792.274a6.09 6.09 0 0 1-.649.167c-.159.308-.526.49-.724.78a3.09 3.09 0 0 1-1.084 1.455c-.72.355-1.084 1.125-1.321 1.85-.082.163-.069.404-.156.543-.286.077-.133-.278-.166-.448-.042-.252.192-.416.208-.662.097-.176.137-.174.117-.37-.033-.442.107-.978-.221-1.339-.195-.108-.133-.336-.205-.512a2.324 2.324 0 0 0-.723-.616c-.234-.022-.448-.309-.689-.176-.149.166-.425.163-.513.385-.055.278-.383.204-.597.272-.273.101-.623 0-.847.206-.224.207-.591.509-.48.857.256.478.918.238 1.278.528-.113.32-.044.435-.192.743a5.29 5.29 0 0 0-.026 1.261c.068.42-.046.959.325 1.255.21.074.198.308.279.48.08.174.237-.06.302.106.188.098.019.308.123.431a.912.912 0 0 1 .458.232c.2.132.385.281.555.447.13.253.295-.247.438-.059.073.171.087.244.258.154.264-.042.513-.145.727-.299.14.472.032.984.094 1.47.086.357.14.719.162 1.083.098.36.154.727.17 1.098a3.744 3.744 0 0 1-.397 2.247.557.557 0 0 1-.451.432c-.163.071-.5.197-.387.42.377.308.974.274 1.406.117.286-.133.04-.463.185-.663.192-.703.098-1.456.325-2.159a1.98 1.98 0 0 0 .191-1.137c.046-.238-.058-.524.104-.719a.962.962 0 0 1 .263-.647 7.75 7.75 0 0 0 .081-1.095c.229-.068.47-.09.708-.068 0 .204-.152.438-.107.666.048.257-.004.317-.146.54-.1.4-.169.893.094 1.232.435.454 1.003.774 1.415 1.258.14.108.15.308.02.426a.84.84 0 0 1-.552.558c-.172.065-.448.308-.247.478.405.087.828.06 1.217-.077.267-.093.17-.398.273-.59.143.186.276.378.396.577.166.235.451.04.65-.033a1.86 1.86 0 0 0-.212-.993" opacity=".2"/>
    <g fill="#f4f4f7">
        <path d="M18.091 20.995c.137.768.23 1.34.28 2.117a2.21 2.21 0 0 1-.426 1.36c-.068.231-.273 0-.419 0-.36 0-.493-.37-.688-.598s-.055-.435.075-.617c.14-.095.194-.308.396-.308.2 0 .175-.262.146-.401.133-.194.052-.277.182-.49.233-.098.165-.443.246-.638.065-.138 0-.404.185-.462 0 0 .023 0 .02.03m-.225-7.917c-.305-.034-.535.163-.792.274a6.09 6.09 0 0 1-.649.167c-.159.308-.526.49-.724.78a3.09 3.09 0 0 1-1.084 1.455c-.72.355-1.084 1.125-1.321 1.85-.082.163-.069.404-.156.543-.286.077-.133-.278-.166-.448-.042-.252.192-.416.208-.662.097-.176.137-.174.117-.37-.033-.442.107-.978-.221-1.339-.195-.108-.133-.336-.205-.512a2.324 2.324 0 0 0-.723-.616c-.234-.022-.448-.309-.689-.176-.149.166-.425.163-.513.385-.055.278-.383.204-.597.272-.273.101-.623 0-.847.206-.224.207-.591.509-.48.857.256.478.918.238 1.278.528-.113.32-.044.435-.192.743a5.29 5.29 0 0 0-.026 1.261c.068.42-.046.959.325 1.255.21.074.198.308.279.48.08.174.237-.06.302.106.188.098.019.308.123.431a.912.912 0 0 1 .458.232c.2.132.385.281.555.447.13.253.295-.247.438-.059.073.171.087.244.258.154.264-.042.513-.145.727-.299.14.472.032.984.094 1.47.086.357.14.719.162 1.083.098.36.154.727.17 1.098a3.744 3.744 0 0 1-.397 2.247.557.557 0 0 1-.451.432c-.163.071-.5.197-.387.42.377.308.974.274 1.406.117.286-.133.04-.463.185-.663.192-.703.098-1.456.325-2.159a1.98 1.98 0 0 0 .191-1.137c.046-.238-.058-.524.104-.719a.962.962 0 0 1 .263-.647 7.75 7.75 0 0 0 .081-1.095c.229-.068.47-.09.708-.068 0 .204-.152.438-.107.666.048.257-.004.317-.146.54-.1.4-.169.893.094 1.232.435.454 1.003.774 1.415 1.258.14.108.15.308.02.426a.84.84 0 0 1-.552.558c-.172.065-.448.308-.247.478.405.087.828.06 1.217-.077.267-.093.17-.398.273-.59.143.186.276.378.396.577.166.235.451.04.65-.033a1.86 1.86 0 0 0-.212-.993"/>
        <path d="M6.375 2C5.613 2 5 2.625 5 3.4v1C5 3.625 5.613 3 6.375 3H19V2z" opacity=".1"/>
    </g>
</svg>
