<svg height="32" width="32" xmlns="http://www.w3.org/2000/svg">
    <path d="M7.313 3C6.585 3 6 3.602 6 4.35v24.3c0 .748.585 1.35 1.313 1.35h18.375c.727 0 1.312-.602 1.312-1.35V11l-7-1-1-7z" opacity=".2"/>
    <path d="M7.313 2C6.585 2 6 2.602 6 3.35v24.3c0 .748.585 1.35 1.313 1.35h18.375c.727 0 1.312-.602 1.312-1.35V10l-7-1-1-7z" fill="#767676"/>
    <path d="m27 11-8-8v6.667A1.33 1.33 0 0 0 20.333 11z" opacity=".2"/>
    <path d="m27 10-8-8v6.667A1.33 1.33 0 0 0 20.333 10z" fill="#939393"/>
    <path d="M7.313 2C6.585 2 6 2.602 6 3.35v1C6 3.602 6.585 3 7.313 3H19V2z" fill="#f4f4f7" opacity=".2"/>
    <path d="M13 14v2h1v-2zm3 0v2h1v-2zm3 0v2h1v-2zm-9 3v1h2v-1zm4.75 0c-.97 0-1.75.78-1.75 1.75v3.5c0 .97.78 1.75 1.75 1.75h3.5c.97 0 1.75-.78 1.75-1.75v-3.5c0-.97-.78-1.75-1.75-1.75zM21 17v1h2v-1zm-11 3v1h2v-1zm11 0v1h2v-1zm-11 3v1h2v-1zm11 0v1h2v-1zm-8 2v2h1v-2zm3 0v2h1v-2zm3 0v2h1v-2z" opacity=".2"/>
    <path d="M13 13v2h1v-2zm3 0v2h1v-2zm3 0v2h1v-2zm-9 3v1h2v-1zm4.75 0c-.97 0-1.75.78-1.75 1.75v3.5c0 .97.78 1.75 1.75 1.75h3.5c.97 0 1.75-.78 1.75-1.75v-3.5c0-.97-.78-1.75-1.75-1.75zM21 16v1h2v-1zm-11 3v1h2v-1zm11 0v1h2v-1zm-11 3v1h2v-1zm11 0v1h2v-1zm-8 2v2h1v-2zm3 0v2h1v-2zm3 0v2h1v-2z" fill="#f4f4f7"/>
</svg>
