<svg xmlns="http://www.w3.org/2000/svg" width="32" height="32" version="1"><path style="opacity:.2" d="M6.375 3C5.613 3 5 3.624 5 4.4v25.2c0 .776.613 1.4 1.375 1.4h19.25c.762 0 1.375-.624 1.375-1.4V11l-7-1-1-7z"/><path style="fill:#6966b2" d="M6.375 2C5.613 2 5 2.624 5 3.4v25.2c0 .776.613 1.4 1.375 1.4h19.25c.762 0 1.375-.624 1.375-1.4V10l-7-1-1-7z"/><path style="opacity:.2" d="M19 3v6.667c0 .736.597 1.333 1.333 1.333H27z"/><path style="fill:#9592ca" d="M19 2v6.667c0 .736.597 1.333 1.333 1.333H27z"/><path style="opacity:.2" d="M12.205 27.372s.844.242 1.967.38c.454.057 1.824.253 3.15.248 0 0 2.016.002 2.908-.124.933-.13 1.462-.298 1.756-.632.008-.08.142-.34-.22-.59-.928-.64-2.166-.815-4.495-1.362-2.575-.64-3.344-1.254-3.729-1.698-.364-.445.069-.958 2.144-1.411 1.05-.253 4.963-.3 4.963-.3-1.525-1.287-3.609-3.082-5.002-4.146-.088-.393.537-.582.869-.604 1.066-.073 2.812-.16 4.106.096.651.128.766.109.766.109.926.043 1.647-.437 1.61-1.449-.007-1.026-1.044-1.849-2.192-1.885-1.08-.034-3.744.153-3.744.153 3.104.633 3.612.795 3.774 1.165-.725 1.478-6.263-.954-7.778.508-.36.466.051 1.034.213 1.369.721 1.244 2.256 1.888 3.048 2.49.297.226 1.206.728 1.206.728-2.825-.765-5.076-.335-6.504.407-1.64.961-1.36 2.582 1.244 4.098 1.537.895 2.303 1.325 4.82 1.631 1.472.232 1.691.327 1.68.448-.016.171-1.742.236-2.216.268-1.207.082-4.328.103-4.344.103z"/><path style="fill:#f4f4f7" d="M12.205 26.372s.844.242 1.967.38c.454.057 1.824.253 3.15.248 0 0 2.016.002 2.908-.124.933-.13 1.462-.298 1.756-.632.008-.08.142-.34-.22-.59-.928-.64-2.166-.815-4.495-1.362-2.575-.64-3.344-1.254-3.729-1.698-.364-.445.069-.958 2.144-1.411 1.05-.253 4.963-.3 4.963-.3-1.525-1.287-3.609-3.082-5.002-4.146-.088-.393.537-.582.869-.604 1.066-.073 2.812-.16 4.106.096.651.128.766.109.766.109.926.043 1.647-.437 1.61-1.449-.007-1.026-1.044-1.849-2.192-1.885-1.08-.034-3.744.153-3.744.153 3.104.633 3.612.795 3.774 1.165-.725 1.478-6.263-.954-7.778.508-.36.466.051 1.034.213 1.369.721 1.244 2.256 1.888 3.048 2.49.297.226 1.206.728 1.206.728-2.825-.765-5.076-.335-6.504.407-1.64.961-1.36 2.582 1.244 4.098 1.537.895 2.303 1.325 4.82 1.631 1.472.232 1.691.327 1.68.448-.016.171-1.742.236-2.216.268-1.207.082-4.328.103-4.344.103z"/><path style="opacity:.1;fill:#f4f4f7" d="M6.375 2C5.613 2 5 2.625 5 3.4v1C5 3.625 5.613 3 6.375 3H19V2z"/></svg>