<svg height="32" width="32" xmlns="http://www.w3.org/2000/svg"><path d="m6.375 3c-.762 0-1.375.624-1.375 1.4v25.2c0 .775.613 1.4 1.375 1.4h19.25c.761 0 1.375-.625 1.375-1.4v-17.6l-7-2-2-7z" opacity=".2"/><path d="m6.375 2c-.762 0-1.375.624-1.375 1.4v25.2c0 .775.613 1.4 1.375 1.4h19.25c.761 0 1.375-.625 1.375-1.4v-17.6l-7-2-2-7z" fill="#455a64"/><path d="m27 12-9-9v7.594c0 .78.628 1.406 1.406 1.406z" opacity=".2"/><path d="m27 11-9-9v7.594c0 .78.628 1.406 1.406 1.406z" fill="#546e7a"/><path d="m6.375 2c-.762 0-1.375.625-1.375 1.4v1c0-.775.613-1.4 1.375-1.4h11.625v-1z" fill="#f4f4f7" opacity=".1"/><path d="m10 16v1h12v-1z" fill="#2196f3"/><path d="m10 19v1h12v-1z" fill="#8bc34a"/><path d="m10 22v1h12v-1z" fill="#ffc107"/><path d="m10 25v1h8v-1z" fill="#ff5722"/><path d="m10 17v1h12v-1zm0 3v1h12v-1zm0 3v1h12v-1zm0 3v1h8v-1z" opacity=".2"/></svg>