<svg xmlns="http://www.w3.org/2000/svg" width="16" height="16"><defs><style id="current-color-scheme" type="text/css"></style></defs><path style="fill:currentColor;color:#323a41" d="M11.45 15.478c-1.381.59-2.743.683-3.883.263-.573-.21-5.649-2.348-6.028-2.623-.32-.232-.462-.465-.507-.826-.106-.846.651-1.461 1.496-1.214.818.3 2.553.676 2.553.676L3.034 8.08C1.151 4.699.988 4.386 1.001 4.163a.978.978 0 0 1 .95-.946c.507-.024.581.072 1.99 2.572 1.185 2.102 1.284 2.258 1.45 2.295.228.05.299.005.346-.22.035-.164-.125-.472-1.564-3.027C2.63 2.1 2.57 1.982 2.576 1.7c.02-.801.95-1.19 1.581-.661.112.093.727 1.127 1.756 2.953 1.526 2.708 1.59 2.81 1.745 2.805.196-.006.323-.152.316-.363-.003-.093-.582-1.182-1.436-2.699C5.445 1.792 5.107 1.145 5.104.992c-.005-.32.2-.658.508-.84C6.04-.047 6.5-.072 6.675.2l1.612 2.86C9.33 4.91 9.95 5.955 10.038 6.012c.154.097.41-.019.46-.208.023-.091-.262-.646-1.07-2.078C8.206 1.554 8.086 1.34 8.329.884 8.877.236 9.592.2 9.94.686l2.419 4.336c.715 1.658 2.196 3.197 2.542 4.97.305 1.556-.093 2.872-1.205 3.985-.478.478-1.585 1.219-2.246 1.501z"/></svg>