<svg enable-background="new" height="16" width="16" xmlns="http://www.w3.org/2000/svg" xmlns:xlink="http://www.w3.org/1999/xlink"><filter id="a" color-interpolation-filters="sRGB"><feBlend in2="BackgroundImage" mode="darken"/></filter><g filter="url(#a)" transform="translate(-405.00061 195.0033)"><path d="m413.0002-193c-3.324 0-6 2.676-6 6v2.5 1.5s0 2 2 2h.5c.831 0 1.5-.669 1.5-1.5v-2c0-.831-.669-1.5-1.5-1.5h-.5v-1c0-.277.027-.54773.0801-.80859.37174-1.82602 1.9809-3.19141 3.9199-3.19141 2.216 0 4 1.784 4 4v1h-.5c-.831 0-1.5.669-1.5 1.5v2c0 .831.669 1.5 1.5 1.5h.5s2 0 2-2v-1-.5-2.5c0-3.324-2.676-6-6-6z" fill="#4c5263"/></g></svg>