<svg xmlns="http://www.w3.org/2000/svg" height="512" width="512">
    <text style="font-size:208.33000183px;line-height:125%;font-family:'Gentium Book Basic';letter-spacing:0;word-spacing:0" letter-spacing="0" word-spacing="0" x="-1160.48" y="549.52" font-size="208.33">
    
  </text>
    <text style="font-size:129.22999573px;line-height:125%;font-family:'Gentium Book Basic';letter-spacing:0;word-spacing:0" letter-spacing="0" word-spacing="0" x="729.64" y="231.36" font-size="129.23">
    
  </text>
    <text style="font-size:129.22999573px;line-height:125%;font-family:'Gentium Book Basic';letter-spacing:0;word-spacing:0" letter-spacing="0" word-spacing="0" x="1310.91" y="151.36" font-size="129.23">
    
  </text>
    <text style="font-size:129.22999573px;line-height:125%;font-family:'Gentium Book Basic';letter-spacing:0;word-spacing:0" letter-spacing="0" word-spacing="0" x="239.33" y="-29.9" font-size="129.23">
    
  </text>
    <text style="font-size:129.22999573px;line-height:125%;font-family:'Gentium Book Basic';letter-spacing:0;word-spacing:0" letter-spacing="0" word-spacing="0" x="1337.38" y="-246.37" font-size="129.23">
    
  </text>
    <text style="font-size:129.22999573px;line-height:125%;font-family:'Gentium Book Basic';letter-spacing:0;word-spacing:0" letter-spacing="0" word-spacing="0" x="1918.65" y="-326.37" font-size="129.23">
    
  </text>
    <text style="font-size:129.22999573px;line-height:125%;font-family:'Gentium Book Basic';letter-spacing:0;word-spacing:0" letter-spacing="0" word-spacing="0" x="1529.53" y="-798.77" font-size="129.23">
    
  </text>
    <text style="font-size:129.22999573px;line-height:125%;font-family:'Gentium Book Basic';letter-spacing:0;word-spacing:0" letter-spacing="0" word-spacing="0" x="2110.79" y="-878.78" font-size="129.23">
    
  </text>
    <text style="font-size:208.33000183px;line-height:125%;font-family:'Gentium Book Basic';letter-spacing:0;word-spacing:0" letter-spacing="0" word-spacing="0" x="277.99" y="535.94" font-size="208.33">
    
  </text>
    <g style="fill:#bfbfbf;fill-rule:evenodd">
        <path d="M111.64 55.533c-24.623 0-44.61 19.988-44.61 44.612 0 24.286 19.496 44.074 43.659 44.61-24.179 31.563-38.854 70.817-38.854 113.694 0 41.065 13.156 78.998 35.507 109.854-22.49 2.288-40.297 21.047-40.297 44.136 0 24.624 19.987 44.611 44.611 44.611 23.81 0 42.861-18.729 44.136-42.216 29.382 19.373 64.767 30.703 102.67 30.703 32.898 0 63.8-8.582 90.665-23.504 4.33 20.096 22.275 35.017 43.66 35.017 24.624 0 44.611-19.987 44.611-44.611 0-19.389-12.45-35.585-29.75-41.74 23.594-31.318 37.902-70.05 37.902-112.266 0-43.705-15.167-83.757-40.298-115.611 18.545-5.42 32.146-22.414 32.146-42.693 0-24.623-19.987-44.611-44.611-44.611-22.69 0-41.326 16.933-44.135 38.854-26.727-14.722-57.522-23.027-90.19-23.027-37.75 0-72.873 11.468-102.18 30.703.031-.63 0-1.274 0-1.919 0-24.623-19.987-44.611-44.61-44.611m0 26.865c9.64 0 17.746 8.12 17.746 17.746 0 9.64-8.121 17.27-17.747 17.27-9.64 0-17.27-7.63-17.27-17.27s7.63-17.746 17.27-17.746m281.131 0c9.641 0 17.747 8.12 17.747 17.746 0 9.64-8.121 17.27-17.747 17.27-9.64 0-17.27-7.63-17.27-17.27s7.63-17.746 17.27-17.746M258.477 100.62c87.258 0 158.32 70.586 158.32 157.829 0 87.257-71.062 157.828-158.32 157.828-87.257 0-157.828-70.586-157.828-157.828 0-87.258 70.586-157.829 157.828-157.829M111.671 394.754c9.641 0 17.747 8.12 17.747 17.746 0 9.64-8.121 17.27-17.747 17.27-9.64 0-17.27-7.63-17.27-17.27s7.63-17.746 17.27-17.746m281.131 0c9.641 0 17.747 8.12 17.747 17.746 0 9.64-8.121 17.27-17.747 17.27-9.64 0-17.27-7.63-17.27-17.27s7.63-17.746 17.27-17.746"/>
        <path d="M307.172 258.591c0 26.765-21.697 48.463-48.462 48.463-26.765 0-48.462-21.698-48.462-48.463 0-26.764 21.697-48.462 48.462-48.462 26.765 0 48.462 21.698 48.462 48.462"/>
        <path d="M258.4 126.61c-72.796 0-131.454 59.134-131.454 131.93 0 72.797 58.643 131.93 131.455 131.93 72.796 0 131.93-59.133 131.93-131.93 0-72.796-59.134-131.93-131.93-131.93m0 58.535c40.68 0 73.886 32.714 73.886 73.396 0 40.681-33.205 73.886-73.886 73.886-40.682 0-73.396-33.205-73.396-73.886 0-40.682 32.714-73.396 73.396-73.396"/>
    </g>
</svg>
