<svg height="64" width="64" xmlns="http://www.w3.org/2000/svg"><g fill="#939aad"><path d="m24 58h-2v-52h2zm-6 0h-2v-52h2zm24 0h-2v-52h2zm-6 0h-2v-52h2zm-6 0h-2v-52h2zm18 0h-2v-52h2z"/><path d="m12 24v-2h40v2zm0-6v-2h40v2zm0-6v-2h40v2zm0 30v-2h40v2zm0-6v-2h40v2zm0-6v-2h40v2zm0 18v-2h40v2zm0 6v-2h40v2z"/></g><rect fill="#4c5263" height="36" rx="2.5" stroke="#25252f" stroke-opacity=".784" transform="matrix(0 -1 -1 0 0 0)" width="48" x="-56" y="-50"/><g fill="#52955f"><path d="m41 14v12h-2v-12zm0 14v6h-2v-6zm0 8v14h-2v-14zm-8-22v16h-2v-16zm0 18v16h-2v-16zm-8-18v6h-2v-6zm0 8v6h-2v-6zm0 8v12h-2v-12z" stroke="#333741" stroke-width="2"/><path d="m41 14v12h-2v-12zm0 14v6h-2v-6zm0 8v14h-2v-14zm-8-22v16h-2v-16zm0 18v16h-2v-16zm-8-18v6h-2v-6zm0 8v6h-2v-6zm0 8v12h-2v-12z"/></g></svg>