<svg height="64" width="64" xmlns="http://www.w3.org/2000/svg"><g transform="translate(-376.57 -491.8)"><g fill="#dbe1e3"><path d="m399.57 536.8v7h18v-7h-6v7h-6v-7z" opacity=".35" stroke="#34393c" stroke-linecap="round" stroke-linejoin="round" stroke-width="2"/><path d="m411.57 536.8v8h6v-8zm-12 0v8h6v-8z"/></g><rect fill="#34393c" fill-opacity=".349" height="3" rx="1" width="30" x="393.57" y="542.8"/><g stroke-opacity=".55"><path d="m394.57 543.8h28v1h-28z" fill="#c6cfd2"/><rect fill="#2b2e39" height="35" rx="3" width="64" x="376.57" y="502.8"/><rect fill="#414757" height="33" rx="2" width="62" x="377.57" y="503.8"/><rect fill="#5294e2" height="31" rx="1" width="60" x="378.57" y="504.8"/></g><path d="m408.57 511.8c-4.986 0-9 4.014-9 9s4.014 9 9 9 9-4.014 9-9h-1a8 8 0 0 1 -8 8 8 8 0 0 1 -8-8 8 8 0 0 1 8-8z" fill="#fff" opacity=".85"/><path d="m408.57 511.8v1a8 8 0 0 1 8 8h1c0-4.986-4.014-9-9-9z" fill="#fff" opacity=".35"/><g transform="translate(0 -3)"><rect height="6" opacity=".8" rx="2.954" ry="3" width="5.909" x="405.62" y="520.8"/><path d="m410.34 523.8-2.773-1.8v3.6z" fill="#fff" fill-rule="evenodd"/></g></g></svg>