<svg height="64" viewBox="0 0 16.933 16.933" width="64" xmlns="http://www.w3.org/2000/svg" xmlns:xlink="http://www.w3.org/1999/xlink"><clipPath id="a"><rect height="9.525" ry=".529" transform="matrix(.70710678 .70710678 -.70710678 .70710678 0 0)" width="15.875" x=".529" y="285.358"/></clipPath><linearGradient id="b" gradientUnits="userSpaceOnUse" x1="-197.102" x2="-196.914" y1="217.681" y2="219.365"><stop offset="0"/><stop offset="1" stop-opacity="0"/></linearGradient><g transform="translate(0 -280.067)"><path d="m3.44 282.448c-.294 0-.395.269-.53.53h-1.058c-.265 0-.265.264-.265.264v5.556c0 .293.237.53.53.53h12.7a.529.529 0 0 0 .529-.53v-5.556c0-.265-.265-.265-.265-.265h-7.408c-.155-.249-.236-.53-.53-.53z" fill="#6ba4e7"/><path d="m3.44 282.448c-.294 0-.395.269-.53.53h-1.058c-.265 0-.265.264-.265.264v5.556c0 .293.237.53.53.53h12.7a.529.529 0 0 0 .529-.53v-5.556c0-.265-.265-.265-.265-.265h-7.408c-.155-.249-.236-.53-.53-.53z" opacity=".18"/><rect fill="none" height="7.408" rx=".265" stroke="#000" stroke-opacity=".267" stroke-width=".529" width="12.171" x="2.381" y="281.39"/><rect fill="#fff" height="7.408" rx=".265" width="12.171" x="2.381" y="281.39"/><rect fill="#bbb" height=".529" ry=".265" width="8.467" x="4.233" y="285.623"/><rect fill="#bbb" height=".529" ry=".265" width="8.467" x="4.233" y="284.565"/><path d="m8.467 285.094c-.293 0-.382.276-.53.529l-.463.794h-6.68c-.265 0-.265.264-.265.264v7.938s0 .264.265.264h15.346s.264 0 .264-.264v-9.261c0-.264-.264-.264-.264-.264z" fill="none" stroke="#003579" stroke-opacity=".561" stroke-width=".529"/><rect fill="#bbb" height=".529" ry=".265" width="8.467" x="4.233" y="282.448"/><rect fill="#bbb" height=".529" ry=".265" width="8.467" x="4.233" y="283.506"/><path d="m8.467 285.094c-.293 0-.382.276-.53.529l-.463.794h-6.68c-.265 0-.265.264-.265.264v7.938s0 .264.265.264h15.346s.264 0 .264-.264v-9.261c0-.264-.264-.264-.264-.264z" fill="#6ba4e7"/><rect clip-path="url(#a)" fill="url(#b)" height="4.762" opacity=".1" ry=".132" transform="matrix(.70710678 -.70710678 .70710678 .70710678 0 0)" width="5.292" x="-199.587" y="217.868"/></g></svg>