<svg height="64" viewBox="0 0 16.933 16.933" width="64" xmlns="http://www.w3.org/2000/svg" xmlns:xlink="http://www.w3.org/1999/xlink"><linearGradient id="a" gradientUnits="userSpaceOnUse" x1="-197.102" x2="-196.914" y1="217.681" y2="219.365"><stop offset="0"/><stop offset="1" stop-opacity="0"/></linearGradient><clipPath id="b"><rect height="9.525" ry=".529" transform="matrix(.70710678 .70710678 -.70710678 .70710678 0 0)" width="15.875" x=".529" y="285.358"/></clipPath><g transform="translate(0 -280.067)"><path d="m3.175 282.448c-.293 0-.265.264-.265.53h-1.058c-.265 0-.265 0-.265.264v5.556c0 .293.237.53.53.53h12.7a.529.529 0 0 0 .529-.53v-5.556c0-.265 0-.265-.265-.265h-7.408c0-.265.028-.53-.265-.53z" fill="#fff" fill-opacity=".976" stroke="#000" stroke-opacity=".268" stroke-width=".529"/><path d="m3.175 282.448c-.293 0-.265.264-.265.53h-1.058c-.265 0-.265 0-.265.264v5.556c0 .293.237.53.53.53h12.7a.529.529 0 0 0 .529-.53v-5.556c0-.265 0-.265-.265-.265h-7.408c0-.265.028-.53-.265-.53z" fill="#fff" fill-opacity=".976"/><path d="m8.467 284.3c-.293 0-.382.276-.53.53l-.308.528h-6.835c-.265 0-.265.265-.265.265v8.996c0 .264.265.264.265.264h15.346c.264 0 .264-.264.264-.264v-10.054c0-.265-.264-.265-.264-.265z" fill="none" stroke="#003779" stroke-opacity=".561" stroke-width=".529"/><path d="m8.467 284.3c-.293 0-.382.276-.53.53l-.308.528h-6.835c-.265 0-.265.265-.265.265v8.996c0 .264.265.264.265.264h15.346c.264 0 .264-.264.264-.264v-10.054c0-.265-.264-.265-.264-.265z" fill="#6ba4e7"/><rect clip-path="url(#b)" fill="url(#a)" height="4.762" opacity=".1" ry=".132" transform="matrix(.70710678 -.70710678 .70710678 .70710678 0 0)" width="5.292" x="-199.587" y="217.868"/><rect fill-opacity=".267" height=".529" rx=".265" width="3.704" x="3.44" y="282.977"/></g><path d="m6.35 7.534v4.901h4.895zm.53 1.33 3.042 3.042h-3.043z" opacity=".15"/><path d="m6.085 6.88v5.82h5.821zm.265.66 4.895 4.895h-4.895z" opacity=".3"/><path d="m6.88 8.864v3.042h3.042zm.264.661 2.116 2.117h-2.116z" opacity=".3"/></svg>