<svg height="64" width="64" xmlns="http://www.w3.org/2000/svg" xmlns:xlink="http://www.w3.org/1999/xlink"><filter id="a" color-interpolation-filters="sRGB" height="1.054" width="1.054" x="-.027" y="-.027"><feGaussianBlur stdDeviation=".61875"/></filter><linearGradient id="b" gradientUnits="userSpaceOnUse" x1="4.5" x2="59.5" y1="59.490001" y2="4.490001"><stop offset="0" stop-color="#32d7ff"/><stop offset="1" stop-color="#329bff"/></linearGradient><rect fill="#141414" filter="url(#a)" height="55" opacity=".3" ry="15" stroke-linecap="round" stroke-width="2.7444" width="55" x="4.5" y="4.5"/><rect fill="url(#b)" height="55" ry="15" stroke-linecap="round" stroke-width="2.7444" width="55" x="4.5" y="4.5"/><circle cx="-1124.8" cy="-1279.3" fill="#5e4aa6" r="0"/><g fill="#5e4aa6" stroke-width="1.000007"><circle cx="-1006.345934" cy="-1318.599037" r="0"/><circle cx="93.191826" cy="-53.10849" fill-rule="evenodd" r="0"/><circle cx="-927.84368" cy="-1390.109107" r="0"/><circle cx="171.691095" cy="-124.581856" fill-rule="evenodd" r="0"/></g><path d="m34.769345 15.263692c-1.736274.649634-3.266914 1.870034-5.084034 2.400204-1.491714.403065-4.090515.955658-2.630529 2.995103.640928 1.495757 2.321645 1.878928 3.528138 2.724946.680407 1.412486-1.145202 2.686156-2.219625 3.332028-1.316435.867899-3.788265.684652-3.112871-1.450965.314075-1.669642-.280996-3.555954-1.920312-4.287014-1.82211.59517-3.274063 2.107797-5.060817 2.877166-1.208454.7733-2.72132 1.129053-3.769295 2.09057.269888 1.53507 2.03698 2.484834 2.866755 3.826341 1.375694 1.87079 3.252838 3.680912 3.457319 6.116709.0474 2.230399-2.5249 2.347331-4.144571 2.054169-1.702905.251737-1.769951 2.390781-1.152162 3.629886.49335 1.439194 1.859365 3.091966 3.548415 2.684598 1.689012-.692723 1.763475-3.428643 3.802499-3.496644 1.866316.157122 2.78646 2.187926 3.564141 3.653466.775285 1.395058 1.312416 2.91925 2.156854 4.271834 1.420908.359674 2.619885-1.313206 3.943071-1.800993 1.484549-1.046976 3.411714-1.328637 4.887571-2.274824.195837-2.044619-1.962705-3.100811-3.545802-3.81726-2.174339-1.03073.172422-3.441233 1.588673-3.944103 1.584449-1.04853 3.95413-.229779 3.267725 1.919529-.148425 1.676081.936351 4.289729 2.79799 4.178033 1.521453-1.773159 3.183106-3.478065 5.223025-4.670891 1.432709-.489715 1.639773-1.808148.321089-2.637346-1.50987-1.882548-3.281236-3.862763-3.582812-6.350739.02992-1.653043 1.820395-2.99118 3.437963-2.655187 1.872529.532442 3.05819-1.436309 2.35962-3.05464-.484095-1.399378-1.418491-2.851237-2.846971-3.396993-2.180153-.608919-2.018012 2.345055-3.543341 3.041624-1.731092 1.175516-3.60833-.290863-4.592648-1.718386-1.40864-1.829291-2.107316-4.060858-3.202515-6.064898l-.159186-.126062-.183448-.04928z" fill="#fff" stroke-width=".079261"/><g fill="#5e4aa6"><g stroke-width="1.00001"><circle cx="-1144.248" cy="-1378.5312" r="0"/><circle cx="-44.710342" cy="-113.04071" fill-rule="evenodd" r="0"/><circle cx="-1065.7458" cy="-1450.0414" r="0"/><circle cx="33.788929" cy="-184.51408" fill-rule="evenodd" r="0"/></g><circle cx="-1331.28" cy="-1241.6" r="0"/><circle cx="-231.7301" cy="23.855" fill-rule="evenodd" r="0"/><circle cx="-1252.78" cy="-1313.1" r="0"/><circle cx="-45.295914" cy="-47.617001" fill-rule="evenodd" r="0"/><g image-rendering="optimizeSpeed" stroke-width="1.000007"><circle cx="-1514.210272" cy="-1283.450031" r="0"/><circle cx="-414.671687" cy="-17.964359" fill-rule="evenodd" r="0"/><circle cx="-1448.963793" cy="-1283.425464" r="0"/><circle cx="-1380.023813" cy="-1275.374916" r="0"/><circle cx="-1357.006049" cy="-1301.151825" r="0"/><circle cx="-1367.664559" cy="-1274.467849" r="0"/></g><circle cx="-1262.7021" cy="-1339.2323" r="0"/></g></svg>