<svg height="64" viewBox="0 0 16.933 16.933" width="64" xmlns="http://www.w3.org/2000/svg" xmlns:xlink="http://www.w3.org/1999/xlink"><linearGradient id="a" gradientUnits="userSpaceOnUse" x1="23.652948542" x2="23.652948542" y1="21.935406816" y2="14.201775561"><stop offset="0" stop-color="#dcdcdc"/><stop offset="1" stop-color="#f0f0f0"/></linearGradient><filter id="b" color-interpolation-filters="sRGB" height="1.1575" width="1.0962" x="-.04812" y="-.078735"><feGaussianBlur stdDeviation=".90213586"/></filter><filter id="c" color-interpolation-filters="sRGB" height="1.1582" width="1.0967" x="-.048336" y="-.079084"><feGaussianBlur stdDeviation=".90618094"/></filter><linearGradient id="d" gradientTransform="matrix(1.6292 0 0 1.4131 10.142 81.879)" gradientUnits="userSpaceOnUse" x1="12.654" x2="9.2894" y1="-42.659" y2="-39.589"><stop offset="0" stop-color="#c81446"/><stop offset="1" stop-color="#be0f46"/></linearGradient><linearGradient id="e" gradientTransform="matrix(1.6292 0 0 1.4131 10.142 81.879)" gradientUnits="userSpaceOnUse" x1="9.13" x2="11.57" y1="-46.409" y2="-43.045"><stop offset="0" stop-color="#f0417d"/><stop offset="1" stop-color="#e64678"/></linearGradient><filter id="f" color-interpolation-filters="sRGB" height="1.154" width="1.1848" x="-.0924" y="-.077"><feGaussianBlur stdDeviation=".25465645"/></filter><g transform="translate(-19.31 -13.001)"><rect fill="url(#a)" height="14.552" ry="3.4395" stroke-opacity=".95294" stroke-width=".083152" width="14.552" x="20.5" y="14.191"/><path d="m61.984 32h-44.994v24.363a3.9366 3.0998 0 0 0 6.4551 2.418l37.162-24.426a3.9366 3.0998 0 0 0 1.377-2.3555z" filter="url(#b)" opacity=".5" stroke-width=".039026" transform="matrix(.19042 0 0 .19788 21.155 14.954)"/><path d="m20.904 4.5a3.9366 3.0998 0 0 0 -3.9141 3.1367v24.363h44.994a3.9366 3.0998 0 0 0 -.9043-1.9844l-.47266-.37109-37.162-24.426a3.9366 3.0998 0 0 0 -2.541-.71875z" filter="url(#c)" opacity=".5" stroke-width=".039026" transform="matrix(.18467 0 0 .18467 21.227 15.35)"/><path d="m33.099 21.259h-8.6198v4.6674a.75416.59385 0 0 0 1.2366.46323l7.1193-4.6794a.75416.59385 0 0 0 .2638-.45126z" fill="url(#d)" stroke-width=".007476"/><path d="m25.229 15.991a.75416.59385 0 0 0 -.74985.60092v4.6674h8.6198a.75416.59385 0 0 0 -.17324-.38016l-.09055-.07109-7.1193-4.6794a.75416.59385 0 0 0 -.4868-.1377z" fill="url(#e)" stroke-width=".007476"/><path d="m8.0964 8.1265-5.4624-3.525a.57864.44734 0 0 0 -.94896.34893v7.0322a.57864.44734 0 0 0 .94896.34893l5.4624-3.525a.57864.44734 0 0 0 .069422-.62628z" filter="url(#f)" opacity=".35" stroke-width=".005684" transform="matrix(.67801 0 0 .67801 21.454 15.71)"/><path d="m27.288 21.013-3.9552-2.5524a.41898.32391 0 0 0 -.68712.25265v5.0918a.41898.32391 0 0 0 .68712.25265l3.9552-2.5524a.41898.32391 0 0 0 .05027-.45347z" fill="#911941" stroke-width=".004116"/></g></svg>