<svg height="64" viewBox="0 0 64 64" width="64" xmlns="http://www.w3.org/2000/svg" xmlns:xlink="http://www.w3.org/1999/xlink"><filter id="a" color-interpolation-filters="sRGB" height="1.054" width="1.054" x="-.027" y="-.027"><feGaussianBlur stdDeviation=".61875"/></filter><linearGradient id="b" gradientUnits="userSpaceOnUse" x1="4.5" x2="59.5" y1="59.49" y2="4.49"><stop offset="0" stop-color="#2b93c9"/><stop offset="1" stop-color="#6cb8e0"/></linearGradient><circle cx="-1124.8" cy="-1279.3" fill="#5e4aa6" r="0"/><g fill="#5e4aa6" stroke-width="1.000007"><circle cx="-1006.345992" cy="-1318.599092" r="0"/><circle cx="93.191806" cy="-53.108507" fill-rule="evenodd" r="0"/><circle cx="-927.8437" cy="-1390.109124" r="0"/><circle cx="171.691075" cy="-124.581876" fill-rule="evenodd" r="0"/></g><rect fill="#141414" filter="url(#a)" height="55" opacity=".3" ry="15" stroke-linecap="round" stroke-width="2.7444" width="55" x="4.5" y="4.5"/><rect fill="url(#b)" height="55" ry="15" stroke-linecap="round" stroke-width="2.7444" width="55" x="4.5" y="4.5"/><path d="m45.01 15.967c-12.551.18996-19.576 7.3465-23.281 14.314-3.3896 6.3778-3.9003 11.651-4 12.672h-13.229v1.5469c0 .38805.029934.76797.058594 1.1484h14.221c.38396 0 .75978-.17323 1.0117-.46289.14146-.1684.24776-.37159.29492-.58984.0057-.05793.005699-.11738 0-.16992 0 0 .63116-6.3833 4.041-12.799 3.1835-5.9831 8.8445-11.767 18.943-12.672-6.01 12.031.29883 25.936.29883 25.936.04717.05793.10664.11543.16992.16797.23172.3422.63193.56829 1.0469.58984h14.855c.02866-.38047.058594-.76039.058594-1.1484v-1.5469h-13.904c-.51599-1.1519-6.3258-14.441.63672-24.924.17918-.31525.22664-.70319.12695-1.0508-.04717-.21556-.15211-.42339-.29492-.5918-.26809-.28427-.66339-.44013-1.0527-.41992h-.001953z" fill="#19536f" stroke-width="1.3472"/></svg>