<svg height="64" viewBox="0 0 16.933 16.933" width="64" xmlns="http://www.w3.org/2000/svg" xmlns:xlink="http://www.w3.org/1999/xlink"><filter id="a" color-interpolation-filters="sRGB" height="1.054" width="1.054" x="-.027" y="-.027"><feGaussianBlur stdDeviation=".61875"/></filter><linearGradient id="b" gradientUnits="userSpaceOnUse" x1="1.19134" x2="15.74324" y1="15.73986" y2="1.18796"><stop offset="0" stop-color="#32d7ff"/><stop offset="1" stop-color="#329bff"/></linearGradient><rect fill="#141414" filter="url(#a)" height="55" opacity=".3" ry="15" stroke-linecap="round" stroke-width="2.7444" transform="scale(.26458)" width="55" x="4.5" y="4.5"/><rect fill="url(#b)" height="14.552" ry="3.9688" stroke-linecap="round" stroke-width=".72612" width="14.552" x="1.1906" y="1.1906"/><g stroke-width=".01743" transform="translate(3.2604 -1.3515)"><path d="m12.009 11.285h-6.9853c-.26594 0-.47871.21277-.47871.47871v4.8521c0 .26594.21277.47871.47871.47871h6.9799c.26594 0 .47871-.21277.47871-.47871v-4.8521c.0059-.26594-.21277-.47871-.47281-.47871z" fill="#f1f3f7"/><path d="m5.0234 12.461h6.9853v4.1311h-6.9853z" fill="#fcfcfd"/><circle cx="11.856" cy="11.905" fill="#f0582f" r=".15366"/><circle cx="11.318" cy="11.905" fill="#fbd303" r=".15366"/><circle cx="10.78" cy="11.905" fill="#6eb1e1" r=".15366"/></g></svg>