<svg height="64" width="64" xmlns="http://www.w3.org/2000/svg"><path d="m0 0h64v64h-64z" fill="none" opacity=".75"/><path d="m8.991 1.009 46.01.004v57.985h-46.009v-57.99z" fill="#eb7867"/><path d="m8.5.5 47 .003v58.997h-47z" fill="none" opacity=".85" stroke="#d3221d" stroke-linejoin="round"/><path d="m8.991 1.009 8.009.004v57.985h-8.009v-57.99z" fill="#3f3f3f" stroke="#2c2c2c" stroke-linejoin="round" stroke-width="2"/><path d="m8.991 1.009 8.009.004v57.985h-8.009v-57.99z" fill="#3f3f3f"/><path d="m36.711 16.003-3.022 4.86-5.408-2.282.608 6.03-5.467.992 4 4.119-4.681 4.43 6.207.992-.978 6.282 5.541-2.904 2.889 5.481 2.889-5.407 5.17 2.756-.118-5.897 5.6-.681-3.941-4.682 3.822-4.489-5.422-1.051.489-5.778-5.467 2.148z" fill="#fff" fill-rule="evenodd"/></svg>