<svg xmlns="http://www.w3.org/2000/svg" xmlns:xlink="http://www.w3.org/1999/xlink" width="64" height="64">
    <defs>
        <linearGradient id="b" x1="7.937" x2="7.937" y1="15.346" y2="16.933" gradientUnits="userSpaceOnUse" xlink:href="#a"/>
        <linearGradient id="a">
            <stop offset="0"/>
            <stop stop-opacity="0" offset="1"/>
        </linearGradient>
        <linearGradient id="d" x1="43" x2="46.748" y1="12" y2="8.252" gradientUnits="userSpaceOnUse" xlink:href="#a"/>
        <linearGradient id="f" x1="5.821" x2="5.821" y1="1.058" gradientUnits="userSpaceOnUse" xlink:href="#a"/>
        <linearGradient id="h" x1="13.758" x2="15.081" y1="10.583" y2="10.583" gradientUnits="userSpaceOnUse" xlink:href="#a"/>
        <linearGradient id="i" x1="3.175" x2="1.852" y1="8.466" y2="8.466" gradientUnits="userSpaceOnUse" xlink:href="#a"/>
        <linearGradient id="l" x1="7.937" x2="7.937" y1="15.346" y2="16.668" gradientUnits="userSpaceOnUse" xlink:href="#a"/>
        <linearGradient id="n" x1="43" x2="46.004" y1="12" y2="8.996" gradientUnits="userSpaceOnUse" xlink:href="#a"/>
        <linearGradient id="p" x1="5.821" x2="5.821" y1="1.058" y2=".265" gradientUnits="userSpaceOnUse" xlink:href="#a"/>
        <linearGradient id="r" x1="13.758" x2="14.816" y1="10.583" y2="10.583" gradientUnits="userSpaceOnUse" xlink:href="#a"/>
        <linearGradient id="s" x1="3.175" x2="2.117" y1="8.466" y2="8.466" gradientUnits="userSpaceOnUse" xlink:href="#a"/>
        <linearGradient id="v" x1="21.039" x2="21.039" y1="2" y2="62" gradientTransform="translate(0 -.265) scale(.26458)" gradientUnits="userSpaceOnUse">
            <stop stop-color="#ff5b59" offset="0"/>
            <stop stop-color="#ff983d" offset="1"/>
        </linearGradient>
        <radialGradient id="c" cx="35" cy="4" r="3.728" gradientTransform="matrix(1.696 0 0 1.0731 -24.361 -.292)" gradientUnits="userSpaceOnUse" xlink:href="#a"/>
        <radialGradient id="e" cx="52" cy="22" r="5.206" gradientTransform="matrix(.96042 0 0 1.3331 2.058 -7.328)" gradientUnits="userSpaceOnUse" xlink:href="#a"/>
        <radialGradient id="g" cx="3.175" cy="1.323" r=".794" gradientTransform="matrix(0 -1.3333 1.6667 0 .97 5.292)" gradientUnits="userSpaceOnUse" xlink:href="#a"/>
        <radialGradient id="j" cx="13.758" cy="15.346" r=".794" gradientTransform="matrix(0 2 -1.6667 0 39.334 -12.171)" gradientUnits="userSpaceOnUse" xlink:href="#a"/>
        <radialGradient id="k" cx="3.175" cy="15.346" r=".794" gradientTransform="matrix(-1.6667 0 0 -2 8.466 46.037)" gradientUnits="userSpaceOnUse" xlink:href="#a"/>
        <radialGradient id="m" cx="35" cy="4" r="3.728" gradientTransform="matrix(1.6115 0 0 .80482 -21.403 .78)" gradientUnits="userSpaceOnUse" xlink:href="#a"/>
        <radialGradient id="o" cx="52" cy="22" r="5.206" gradientTransform="matrix(.76834 0 0 1.2272 12.047 -4.999)" gradientUnits="userSpaceOnUse" xlink:href="#a"/>
        <radialGradient id="q" cx="3.175" cy="1.323" r=".794" gradientTransform="matrix(0 -1 1.3333 0 1.411 4.233)" gradientUnits="userSpaceOnUse" xlink:href="#a"/>
        <radialGradient id="t" cx="13.758" cy="15.346" r=".794" gradientTransform="matrix(0 1.6667 -1.3333 0 34.219 -7.585)" gradientUnits="userSpaceOnUse" xlink:href="#a"/>
        <radialGradient id="u" cx="3.175" cy="15.346" r=".794" gradientTransform="matrix(-1.3333 0 0 -1.6667 7.408 40.921)" gradientUnits="userSpaceOnUse" xlink:href="#a"/>
    </defs>
    <g opacity=".1">
        <path fill="url(#b)" opacity="1" d="M3.175 15.346h10.583v1.587H3.175z" transform="translate(-.021 1.024) scale(3.7796)"/>
        <path transform="translate(-.021 1.024)" d="M35 0v7l7-7z" fill="url(#c)" opacity="1"/>
        <path transform="translate(-.021 1.024)" d="m42 0-7 7 14 15 9-9V3.545L54.455 0z" fill="url(#d)" opacity="1"/>
        <path transform="translate(-.021 1.024)" d="m58 13-9 9h9z" fill="url(#e)" opacity="1"/>
        <path fill="url(#f)" opacity="1" d="M3.175 0H9.26v1.058H3.175z" transform="translate(-.021 1.024) scale(3.7796)"/>
        <path fill="url(#g)" opacity="1" d="M1.587 0h1.587v1.058H1.587z" transform="translate(-.021 1.024) scale(3.7796)"/>
        <path fill="url(#h)" opacity="1" d="M13.758 5.821h1.587v9.525h-1.587z" transform="translate(-.021 1.024) scale(3.7796)"/>
        <path fill="url(#i)" opacity="1" d="M1.587 1.058h1.587v14.287H1.587z" transform="translate(-.021 1.024) scale(3.7796)"/>
        <path fill="url(#j)" opacity="1" d="M13.758 15.346h1.587v1.587h-1.587z" transform="translate(-.021 1.024) scale(3.7796)"/>
        <path fill="url(#k)" opacity="1" d="M1.587 15.346h1.587v1.587H1.587z" transform="translate(-.021 1.024) scale(3.7796)"/>
    </g>
    <g opacity=".2" transform="translate(-.021 1.024) scale(3.7796)">
        <path fill="url(#l)" opacity="1" d="M3.175 15.346h10.583v1.587H3.175z"/>
        <path transform="scale(.26458)" d="M35 0v7l7-7z" fill="url(#m)" opacity="1"/>
        <path transform="scale(.26458)" d="m42 0-7 7 14 15 9-9V3.545L54.455 0z" fill="url(#n)" opacity="1"/>
        <path transform="scale(.26458)" d="m58 13-9 9h9z" fill="url(#o)" opacity="1"/>
        <path fill="url(#p)" opacity="1" d="M3.175 0H9.26v1.058H3.175z"/>
        <rect x="1.587" width="1.587" height="1.058" ry="0" fill="url(#q)" opacity="1"/>
        <path fill="url(#r)" opacity="1" d="M13.758 5.821h1.587v9.525h-1.587z"/>
        <path fill="url(#s)" opacity="1" d="M1.587 1.058h1.587v14.287H1.587z"/>
        <path fill="url(#t)" opacity="1" d="M13.758 15.346h1.587v1.587h-1.587z"/>
        <path fill="url(#u)" opacity="1" d="M1.587 15.346h1.587v1.587H1.587z"/>
    </g>
    <path d="M2.91.265a.528.528 0 0 0-.529.529V15.61c0 .293.236.529.53.529h11.111c.294 0 .53-.236.53-.53V5.292c0-.265-.162-.69-.53-1.059l-3.44-3.44A1.325 1.325 0 0 0 9.526.265z" fill="url(#v)" style="fill:#23252e" transform="translate(-.021 1.024) scale(3.7796)"/>
    <path fill="none" d="M32.94-1.024h25.082v25.078H32.941z"/>
    <path d="M3.665 1.22a.462.462 0 0 0-.457.468v13.127c0 .26.204.469.457.469h9.597c.253 0 .457-.21.457-.469V5.673c0-.235-.14-.612-.457-.938l-2.97-3.047a1.133 1.133 0 0 0-.915-.47Z" fill="url(#v)" style="fill:#555e70" transform="translate(-.021 1.024) scale(3.7796)"/>
    <g style="font-weight:700;font-size:3.48435px;line-height:1.25;font-family:sans-serif;-inkscape-font-specification:'sans-serif Bold';fill:#f4f4f7;stroke-width:.0871083">
        <path d="M4.243 15.408q.205 0 .294-.077.09-.076.09-.251 0-.174-.09-.249-.089-.075-.294-.075h-.276v.652zm-.276.452v.962h-.655v-2.54h1q.502 0 .735.168.235.168.235.533 0 .251-.122.413-.121.162-.366.238.134.03.24.14.107.107.216.326l.355.722h-.697l-.31-.631q-.093-.191-.19-.26-.096-.07-.256-.07Zm3.569.499H6.512l-.161.463h-.659l.941-2.54h.78l.942 2.54h-.659Zm-.86-.471h.695l-.347-1.01Zm1.643-1.606h.628l.439 1.846.435-1.846h.631l.436 1.846.439-1.846h.623l-.6 2.54h-.755l-.46-1.931-.457 1.93h-.755Z" style="fill:#f4f4f7;stroke-width:.0871083" transform="matrix(3.8772 0 0 3.20742 2.194 1.024)" aria-label="RAW"/>
    </g>
    <path fill="#f4f4f7fff" d="M8.439 10.181c-1.547 0-2.8-1.163-2.8-2.597 0-1.435 1.253-2.598 2.8-2.598 1.546 0 2.8 1.163 2.8 2.598 0 1.434-1.254 2.597-2.8 2.597zm0-4.617c-1.203 0-2.178.904-2.178 2.02 0 .08.07.144.156.144s.155-.064.155-.144c0-.957.836-1.732 1.867-1.732.086 0 .155-.064.155-.144 0-.08-.07-.144-.155-.144zm0 3.174c.687 0 1.244-.517 1.244-1.154 0-.638-.557-1.155-1.244-1.155-.687 0-1.245.517-1.245 1.155 0 .637.558 1.154 1.245 1.154zm0-.288c-.516 0-.933-.388-.933-.866s.417-.866.933-.866c.515 0 .933.388.933.866s-.418.866-.933.866zm0-.289c.343 0 .622-.258.622-.577 0-.319-.279-.577-.622-.577-.344 0-.622.258-.622.577 0 .319.278.577.622.577z" style="fill:#f4f4f7;stroke-width:.0280916" transform="translate(-.021 1.024) scale(3.7796)"/>
</svg>
