<svg height="64" width="64" xmlns="http://www.w3.org/2000/svg"><path d="m0-.012h64v64h-64z" fill="none" opacity=".75"/><path d="m9 1.002h46v59h-45.997v-59z" fill="#515151"/><path d="m8.5.499 47 .004v59.997h-46.998v-60.001z" fill="none" stroke="#3a3a3a" stroke-linecap="round" stroke-linejoin="round" stroke-width="1.002"/><g fill="none"><path d="m21 30.514c7.043 0 8.346 8.962 11.453 8.99 3.107.025 4.507-9.011 11.547-9.011" stroke="#1d99f3"/><path d="m21 29.546c7.043 0 8.475-6.1 11.485-6.094 2.99.006 4.475 7.042 11.515 7.042" stroke="#da4453"/><path d="m21 29.546c7.043 0 7.47-10.014 11.47-10.014s4.49 10.961 11.53 10.961" stroke="#d6d6d6"/></g><g fill="#d6d6d6"><path d="m20 19.001h1v23h-1z"/><path d="m20 30.001h24v1h-24z"/><path d="m26 29.001h1v3h-1zm6 0h1v3h-1zm6 0h1v3h-1z"/></g></svg>