<svg height="64" width="64" xmlns="http://www.w3.org/2000/svg"><g transform="translate(0 -988.362)"><path d="m8.991 989.371 46.01.004v57.985h-46.009v-57.989z" fill="#fafafa"/><g fill="none"><path d="m6.5.5 35 .003v44.003h-35z" stroke="#4f6698" stroke-linejoin="round" stroke-opacity=".267" stroke-width=".745" transform="matrix(1.34284 0 0 1.34075 -.228 988.192)"/><path d="m0 988.362h64v64h-64z" opacity=".75"/></g></g><path d="m40.985 17c-.554 0-1 .446-1 1v19.053c-1.224-.514-2.756-.335-4.067.476-2.137 1.322-3.062 3.896-2.065 5.746.995 1.851 3.533 2.28 5.668.957 1.545-.957 2.512-2.62 2.46-4.228 0-.007.003-.012.003-.02v-16.238c.24-.132.614.154.812.29 2.245 1.358 4.206 3.612 4.345 6.39.12 1.606-.216 3.204-.68 4.73 2.065-3.395 1.954-8.12-.597-11.222-1.645-1.717-3.196-3.718-3.88-6.043-.05-.22-.351-.89-1-.89zm-21.986 1.999c-.553 0-.999.445-.999.999s.446 1 1 1h13.99c.554 0 1-.446 1-1s-.446-1-1-1h-13.99zm0 5.996c-.553 0-.999.445-.999.999s.446 1 1 1h13.99c.554 0 1-.446 1-1s-.446-1-1-1h-13.99zm0 5.996c-.553 0-.999.445-.999.999s.446 1 1 1h13.99c.554 0 1-.446 1-1s-.446-1-1-1h-13.99zm0 5.996c-.553 0-.999.445-.999.999s.446 1 1 1h7.994c.554 0 1-.446 1-1s-.446-1-1-1h-7.995z" fill="#ffa84c"/></svg>