<svg height="64" viewBox="0 0 16.933 16.933" width="64" xmlns="http://www.w3.org/2000/svg"><g transform="matrix(.26458 0 0 .26458 0 -261.504)"><path d="m8.991 989.371 46.01.004v57.985h-46.009v-57.989z" fill="#fafafa"/><g fill="none"><path d="m6.5.5 35 .003v44.003h-35z" stroke="#4f6698" stroke-linejoin="round" stroke-opacity=".267" stroke-width=".745" transform="matrix(1.34284 0 0 1.34075 -.228 988.192)"/><path d="m0 988.362h64v64h-64z" opacity=".75"/></g></g><g fill="#bec4ca"><path d="m8.467 4.762a3.175 3.175 0 0 0 -3.175 3.175 3.175 3.175 0 0 0 3.175 3.175 3.175 3.175 0 0 0 3.175-3.175 3.175 3.175 0 0 0 -3.175-3.175zm0 .265a2.91 2.91 0 0 1 2.91 2.91 2.91 2.91 0 0 1 -2.91 2.91 2.91 2.91 0 0 1 -2.91-2.91 2.91 2.91 0 0 1 2.91-2.91z"/><path d="m8.467 5.82a2.117 2.117 0 0 0 -2.117 2.118 2.117 2.117 0 0 0 2.117 2.117 2.117 2.117 0 0 0 1.496-.62l-.187-.188a1.852 1.852 0 0 1 -1.31.544 1.852 1.852 0 0 1 -1.851-1.853 1.852 1.852 0 0 1 1.852-1.852 1.852 1.852 0 0 1 1.309.544l.187-.188a2.117 2.117 0 0 0 -1.496-.62z"/></g></svg>