<svg enable-background="new" height="16" width="16" xmlns="http://www.w3.org/2000/svg" xmlns:xlink="http://www.w3.org/1999/xlink"><filter id="a" color-interpolation-filters="sRGB"><feBlend in2="BackgroundImage" mode="darken"/></filter><g transform="translate(-745.0002 575.00674)"><g filter="url(#a)"/><g fill="#4c5263"><path d="m749-574c-1.6447 0-3 1.3553-3 3v8c0 1.6447 1.3553 3 3 3h8c1.6447 0 3-1.3553 3-3v-8c0-1.6447-1.3553-3-3-3zm0 2h8c.5713 0 1 .4287 1 1v8c0 .5713-.4287 1-1 1h-8c-.5713 0-1-.4287-1-1v-8c0-.5713.4287-1 1-1z"/><path d="m749.0002-571v6l1.5-1.5 1.5 1.5 2.5-2.5 2.5 2.5v-6z" opacity=".5"/><path d="m753.0002-567 4 4h-8z"/></g></g></svg>