<svg height="64" viewBox="0 0 16.933 16.933" width="64" xmlns="http://www.w3.org/2000/svg" xmlns:xlink="http://www.w3.org/1999/xlink"><linearGradient id="a" gradientTransform="matrix(1.641 0 0 .5 2374.5 -746.82)" gradientUnits="userSpaceOnUse" x1="815.13" x2="815.13" y1="-1491.6" y2="-1543.6"><stop offset="0" stop-color="#727272"/><stop offset="1" stop-color="#b3b3b3"/></linearGradient><linearGradient id="b" gradientUnits="userSpaceOnUse" x1="3793.2" x2="3793.2" y1="-1603.6" y2="-1561.4"><stop offset="0" stop-color="#ccc"/><stop offset="1" stop-color="#b3b3b3"/></linearGradient><linearGradient id="c" gradientTransform="matrix(1.9062 0 0 1.8571 -3264 477.83)" gradientUnits="userSpaceOnUse" x1="3658.2" x2="3658.2" y1="-1076.6" y2="-1117.8"><stop offset="0" stop-color="#fff6dd"/><stop offset="1" stop-color="#fef8f4"/></linearGradient><linearGradient id="d" gradientTransform="matrix(1.0167 0 0 1.1 -62.174 148.47)" gradientUnits="userSpaceOnUse" x1="3682" x2="3682" y1="-1515" y2="-1494.8"><stop offset="0" stop-color="#fff"/><stop offset="1" stop-color="#f2f2f2"/></linearGradient><linearGradient id="e" gradientUnits="userSpaceOnUse" x1="3669.5" x2="3669.5" y1="-1068.8" y2="-1073.6"><stop offset="0"/><stop offset="1" stop-color="#4d4d4d"/></linearGradient><linearGradient id="f" gradientTransform="matrix(12.038 0 0 12.033 -41007 -9931.9)" gradientUnits="userSpaceOnUse" x1="3715.9" x2="3715.9" xlink:href="#g" y1="693.04" y2="695.85"/><linearGradient id="g"><stop offset="0" stop-color="#666"/><stop offset="1" stop-color="#808080"/></linearGradient><linearGradient id="h" gradientTransform="matrix(12.038 0 0 12.033 -41007 -9931.9)" gradientUnits="userSpaceOnUse" x1="3715.9" x2="3715.9" xlink:href="#g" y1="694.66" y2="696.5"/><linearGradient id="i" gradientTransform="matrix(.74534 0 0 1 3682.7 -329)" gradientUnits="userSpaceOnUse" x1="-17" x2="144" xlink:href="#j" y1="-1194.6" y2="-1194.6"/><linearGradient id="j"><stop offset="0" stop-color="#e9b913" stop-opacity="0"/><stop offset=".493" stop-color="#fc5c00"/><stop offset="1" stop-color="#e9b913" stop-opacity="0"/></linearGradient><linearGradient id="k"><stop offset="0" stop-opacity="0"/><stop offset=".493"/><stop offset="1" stop-opacity="0"/></linearGradient><linearGradient id="l" gradientTransform="matrix(2.5 0 0 6.3333 2347.5 8412.1)" gradientUnits="userSpaceOnUse" x1="529.25" x2="535" y1="-1568.6" y2="-1574.6"><stop offset="0" stop-color="#fc5c00"/><stop offset="1" stop-color="#ccc" stop-opacity="0"/></linearGradient><linearGradient id="m" gradientTransform="matrix(.45963 0 0 1 -1589.8 -2476.4)" gradientUnits="userSpaceOnUse" x1="-17" x2="144" xlink:href="#j" y1="-1194.6" y2="-1194.6"/><linearGradient id="n" gradientTransform="matrix(.48292 0 0 1 -1591.2 -2474.4)" gradientUnits="userSpaceOnUse" x1="-17" x2="144" xlink:href="#k" y1="-1194.6" y2="-1194.6"/><linearGradient id="o" gradientUnits="userSpaceOnUse" x1="3789.9728" x2="3780.675332" y1="-1496.67514" y2="-1505.99212"><stop offset="0"/><stop offset=".455" stop-opacity=".361"/><stop offset="1" stop-opacity="0"/></linearGradient><linearGradient id="p" gradientUnits="userSpaceOnUse" x1="3665.87" x2="3690.1" y1="-1492.78" y2="-1517.02"><stop offset="0"/><stop offset="1" stop-opacity="0"/></linearGradient><linearGradient id="q" gradientTransform="matrix(.13665 0 0 .99998 -1515.3 -2474.4)" gradientUnits="userSpaceOnUse" x1="-17" x2="144" xlink:href="#k" y1="-1194.6" y2="-1194.6"/><path d="m3.44 1.323h-1.06v14.287h12.171v-11.112l-2.91-3.175z" fill="#f9f9f9" fill-rule="evenodd"/><path d="m3.44 1.058h-1.324v14.816h12.7v-11.64l-3.174-3.176zm0 .53h7.982l2.865 2.864v10.893h-11.641v-13.758h.793z" fill="#5b5b5b"/><path d="m12.171 1.058 2.646 2.646v-2.646z" fill="#5b5b5b" fill-rule="evenodd"/><g transform="matrix(.06614 0 0 .06614 -238.25 110.77)"><path d="m3666-1518.6h128v28h-128z" opacity=".15"/><path d="m3666-1520.6h128v28h-128z" fill="url(#a)"/><path d="m3666-1602.6h128v84h-128z" fill="url(#b)"/><rect fill="url(#c)" height="78" rx="1" width="122" x="3669" y="-1599.6"/><rect id="r" fill="url(#l)" height="76" opacity=".25" rx="2" width="30" x="3670" y="-1598.6"/><path d="m3669-1517.6h122v22h-122z" fill="url(#d)"/><path d="m3702.597-1511.67v1.54a5.997 5.997 0 0 0 -1.362-.59 5 5 0 0 0 -1.395-.198c-.714 0-1.247.118-1.601.351-.348.228-.522.58-.522 1.053 0 .428.132.748.394.959s.915.416 1.96.616l.634.12c.781.148 1.372.445 1.772.89.405.445.607 1.025.607 1.738 0 .947-.336 1.69-1.01 2.226-.673.53-1.61.796-2.808.796-.474 0-.97-.052-1.49-.154a13.262 13.262 0 0 1 -1.686-.445v-1.627c.588.303 1.15.53 1.687.685a5.737 5.737 0 0 0 1.523.222c.697 0 1.236-.14 1.619-.419.382-.285.573-.682.573-1.19 0-.73-.7-1.235-2.097-1.515l-.068-.02-.591-.12c-.908-.178-1.57-.474-1.986-.89-.417-.423-.625-.996-.625-1.72 0-.92.31-1.627.933-2.124.622-.502 1.51-.753 2.663-.753.513 0 1.007.048 1.48.146.474.092.94.231 1.396.42m5 4.603c0 1.221.192 2.143.574 2.765.388.622.962.933 1.72.933s1.333-.311 1.722-.933c.393-.628.59-1.55.59-2.765 0-1.216-.196-2.134-.59-2.756-.389-.628-.962-.942-1.721-.942s-1.333.311-1.721.933c-.382.622-.574 1.544-.574 2.765m4.606 3.56a2.76 2.76 0 0 1 -1.044 1.096c-.434.252-.94.377-1.516.377-1.147 0-2.054-.442-2.722-1.327-.662-.89-.993-2.114-.993-3.672 0-1.586.33-2.827.993-3.723s1.57-1.344 2.722-1.344c.571 0 1.073.126 1.507.376a2.7 2.7 0 0 1 1.053 1.079v-1.224h1.584v13.233h-1.584v-4.87m12.797-6.161a3.565 3.565 0 0 0 -1.027-.574 3.5 3.5 0 0 0 -1.148-.18c-.981 0-1.732.308-2.251.925-.52.616-.78 1.506-.78 2.67v4.768h-1.583v-9.587h1.584v1.875c.262-.68.665-1.199 1.207-1.558.548-.365 1.196-.548 1.943-.548.388 0 .75.048 1.088.146.336.098.659.248.967.454v1.61m6.801-4.801v2.722h3.579v1.224h-3.579v5.205c0 .707.134 1.2.402 1.48s.737.42 1.404.42h1.773v1.258h-1.927c-1.181 0-2.014-.237-2.5-.71-.485-.474-.727-1.29-.727-2.448v-5.205h-2.56v-1.224h2.56v-2.722zm14.602 13.2v1.233h-.548c-1.42 0-2.374-.211-2.86-.634-.479-.422-.718-1.264-.718-2.525v-2.046c0-.861-.154-1.458-.463-1.789-.302-.33-.853-.496-1.652-.496h-.53v-1.224h.53c.805 0 1.358-.162 1.66-.488.303-.326.455-.916.455-1.772v-2.055c0-1.26.24-2.1.719-2.516.485-.422 1.438-.634 2.86-.634h.547v1.224h-.6c-.798 0-1.32.126-1.566.377-.24.246-.36.773-.36 1.584v2.123c0 .896-.131 1.546-.393 1.951-.257.405-.7.68-1.327.822.633.154 1.078.434 1.335.839s.386 1.053.386 1.943v2.123c0 .816.12 1.347.36 1.592.244.245.767.368 1.566.368h.6m10.601-10.6-3.433 4.588 3.767 4.999h-1.824l-2.808-3.843-2.8 3.843h-1.823l3.767-4.999-3.433-4.588h1.746l2.543 3.467 2.525-3.467zm2.8 10.6h.582c.805 0 1.33-.126 1.576-.377.245-.25.368-.779.368-1.583v-2.123c0-.89.128-1.538.385-1.943s.702-.685 1.336-.839c-.628-.142-1.074-.417-1.336-.822-.257-.405-.385-1.055-.385-1.951v-2.123c0-.805-.122-1.333-.368-1.584s-.77-.376-1.576-.377h-.582v-1.224h.531c1.421 0 2.371.212 2.85.634.48.416.72 1.255.72 2.516v2.055c0 .856.152 1.446.454 1.772.308.325.864.488 1.67.488h.547v1.224h-.548c-.805 0-1.361.166-1.67.496-.302.331-.453.928-.453 1.79v2.045c0 1.261-.24 2.103-.72 2.525-.479.423-1.429.634-2.85.634h-.53v-1.233" fill="#fff"/><path d="m3702.597-1508.67v1.54a5.997 5.997 0 0 0 -1.362-.59 5 5 0 0 0 -1.395-.198c-.714 0-1.247.118-1.601.351-.348.228-.522.58-.522 1.053 0 .428.132.748.394.959s.915.416 1.96.616l.634.12c.781.148 1.372.445 1.772.89.405.445.607 1.025.607 1.738 0 .947-.336 1.69-1.01 2.226-.673.53-1.61.796-2.808.796-.474 0-.97-.052-1.49-.154a13.262 13.262 0 0 1 -1.686-.445v-1.627c.588.303 1.15.53 1.687.685a5.737 5.737 0 0 0 1.523.222c.697 0 1.236-.14 1.619-.419.382-.285.573-.682.573-1.19 0-.73-.7-1.235-2.097-1.515l-.068-.02-.591-.12c-.908-.178-1.57-.474-1.986-.89-.417-.423-.625-.996-.625-1.72 0-.92.31-1.627.933-2.124.622-.502 1.51-.753 2.663-.753.513 0 1.007.048 1.48.146.474.092.94.231 1.396.42m5 4.603c0 1.221.192 2.143.574 2.765.388.622.962.933 1.72.933s1.333-.311 1.722-.933c.393-.628.59-1.55.59-2.765 0-1.216-.196-2.134-.59-2.756-.389-.628-.962-.942-1.721-.942s-1.333.311-1.721.933c-.382.622-.574 1.544-.574 2.765m4.606 3.56a2.76 2.76 0 0 1 -1.044 1.096c-.434.252-.94.377-1.516.377-1.147 0-2.054-.442-2.722-1.327-.662-.89-.993-2.114-.993-3.672 0-1.586.33-2.827.993-3.723s1.57-1.344 2.722-1.344c.571 0 1.073.126 1.507.376a2.7 2.7 0 0 1 1.053 1.079v-1.224h1.584v13.233h-1.584v-4.87m12.797-6.161a3.565 3.565 0 0 0 -1.027-.574 3.5 3.5 0 0 0 -1.148-.18c-.981 0-1.732.308-2.251.925-.52.616-.78 1.506-.78 2.67v4.768h-1.583v-9.587h1.584v1.875c.262-.68.665-1.199 1.207-1.558.548-.365 1.196-.548 1.943-.548.388 0 .75.048 1.088.146.336.098.659.248.967.454v1.61m6.801-4.801v2.722h3.579v1.224h-3.579v5.205c0 .707.134 1.2.402 1.48s.737.42 1.404.42h1.773v1.258h-1.927c-1.181 0-2.014-.237-2.5-.71-.485-.474-.727-1.29-.727-2.448v-5.205h-2.56v-1.224h2.56v-2.722zm14.602 13.2v1.233h-.548c-1.42 0-2.374-.211-2.86-.634-.479-.422-.718-1.264-.718-2.525v-2.046c0-.861-.154-1.458-.463-1.789-.302-.33-.853-.496-1.652-.496h-.53v-1.224h.53c.805 0 1.358-.162 1.66-.488.303-.326.455-.916.455-1.772v-2.055c0-1.26.24-2.1.719-2.516.485-.422 1.438-.634 2.86-.634h.547v1.224h-.6c-.798 0-1.32.126-1.566.377-.24.246-.36.773-.36 1.584v2.123c0 .896-.131 1.546-.393 1.951-.257.405-.7.68-1.327.822.633.154 1.078.434 1.335.839s.386 1.053.386 1.943v2.123c0 .816.12 1.347.36 1.592.244.245.767.368 1.566.368h.6m10.601-10.6-3.433 4.588 3.767 4.999h-1.824l-2.808-3.843-2.8 3.843h-1.823l3.767-4.999-3.433-4.588h1.746l2.543 3.467 2.525-3.467zm2.8 10.6h.582c.805 0 1.33-.126 1.576-.377.245-.25.368-.779.368-1.583v-2.123c0-.89.128-1.538.385-1.943s.702-.685 1.336-.839c-.628-.142-1.074-.417-1.336-.822-.257-.405-.385-1.055-.385-1.951v-2.123c0-.805-.122-1.333-.368-1.584s-.77-.376-1.576-.377h-.582v-1.224h.531c1.421 0 2.371.212 2.85.634.48.416.72 1.255.72 2.516v2.055c0 .856.152 1.446.454 1.772.308.325.864.488 1.67.488h.547v1.224h-.548c-.805 0-1.361.166-1.67.496-.302.331-.453.928-.453 1.79v2.045c0 1.261-.24 2.103-.72 2.525-.479.423-1.429.634-2.85.634h-.53v-1.233" opacity=".15"/><path d="m3655.3-1071.4v.77a2.998 2.998 0 0 0 -.68-.295 2.5 2.5 0 0 0 -.698-.099c-.357 0-.624.06-.8.176-.175.114-.262.29-.262.526 0 .214.066.374.197.48.132.105.458.208.98.308l.317.06c.391.074.686.222.886.445.203.222.304.512.304.868 0 .474-.168.845-.505 1.113-.337.266-.805.398-1.404.398-.237 0-.485-.026-.745-.077a6.629 6.629 0 0 1 -.843-.222v-.813c.294.15.575.265.843.342.269.074.522.111.762.111.348 0 .618-.07.81-.21a.7.7 0 0 0 .286-.594c0-.366-.35-.618-1.049-.758l-.034-.01-.295-.06c-.454-.089-.785-.237-.993-.445-.208-.211-.312-.498-.312-.86 0-.46.155-.814.466-1.062.311-.25.755-.377 1.331-.377.257 0 .504.024.74.073.237.046.47.116.698.21m2.5 2.302c0 .61.096 1.071.287 1.382.194.311.48.467.86.467s.666-.156.86-.467c.197-.313.296-.774.296-1.382s-.098-1.067-.296-1.378c-.194-.314-.48-.471-.86-.471s-.666.155-.86.467c-.191.31-.287.771-.287 1.382m2.303 1.78a1.38 1.38 0 0 1 -.523.548c-.216.126-.469.189-.757.189-.574 0-1.027-.222-1.361-.664-.331-.445-.497-1.057-.497-1.836 0-.793.166-1.414.497-1.862s.785-.672 1.36-.672c.286 0 .537.063.754.189.22.122.395.302.527.539v-.612h.791v6.617h-.791zm6.397-3.08a1.782 1.782 0 0 0 -.514-.287 1.75 1.75 0 0 0 -.573-.09c-.49 0-.866.154-1.126.462-.26.309-.39.754-.39 1.336v2.384h-.791v-4.794h.792v.937c.131-.34.332-.599.603-.779a1.71 1.71 0 0 1 .972-.273c.194 0 .375.024.543.073.169.049.33.124.484.227zm3.4-2.4v1.361h1.789v.612h-1.789v2.602c0 .354.067.6.201.74s.368.21.702.21h.886v.63h-.963c-.59 0-1.007-.119-1.25-.356-.242-.236-.364-.644-.364-1.224v-2.602h-1.28v-.612h1.28v-1.361zm7.3 6.6v.616h-.274c-.71 0-1.187-.105-1.43-.316-.24-.212-.359-.632-.359-1.263v-1.023c0-.43-.077-.729-.231-.894-.151-.166-.427-.249-.826-.249h-.266v-.612h.266c.402 0 .679-.08.83-.244.151-.162.227-.458.227-.886v-1.027c0-.63.12-1.05.36-1.258.242-.211.719-.317 1.43-.317h.273v.612h-.3c-.4 0-.66.063-.783.189-.12.122-.18.386-.18.791v1.062c0 .448-.066.773-.196.976-.129.202-.35.34-.664.41.317.077.54.217.668.42s.192.526.192.971v1.062c0 .408.06.673.18.796.123.123.384.184.783.184zm5.3-5.3-1.716 2.294 1.883 2.5h-.912l-1.404-1.922-1.4 1.921h-.91l1.882-2.499-1.716-2.294h.873l1.271 1.733 1.263-1.733zm1.4 5.3h.291c.402 0 .665-.063.788-.188.122-.126.184-.39.184-.792v-1.061c0-.446.064-.77.192-.972.129-.203.351-.343.668-.42-.314-.07-.537-.208-.668-.41-.128-.203-.192-.528-.192-.976v-1.062c0-.402-.061-.666-.184-.791-.123-.126-.386-.189-.788-.189h-.291v-.612h.265c.71 0 1.186.106 1.426.317.24.208.36.628.36 1.258v1.027c0 .428.075.724.226.886.154.163.432.244.835.244h.274v.612h-.274c-.403 0-.681.083-.835.249-.151.165-.227.463-.227.894v1.023c0 .63-.12 1.051-.36 1.263-.24.21-.714.316-1.425.316h-.265z" fill="url(#e)" opacity=".9" transform="matrix(2.0003 0 0 2 -3609.1 632.13)"/><use height="1085" transform="matrix(-1 0 0 1 7460 0)" width="5033" xlink:href="#r"/><path d="m3672.5-1527.1h115.01m-115.01-45h115.01m-115.01-20h115.01" fill="none" opacity=".75" stroke="#fff" stroke-linecap="square"/><path d="m3781.5-1597.1v72.999m-103-72.999v72.999m51-72.999v72.999m-57.004-4h115.01m-115.01-45h115.01m-115.01-20h115.01" fill="none" opacity=".25" stroke="#f87019" stroke-dasharray="1 1" stroke-linecap="square"/><path d="m3722-1592.6h60.032v12h-6.003v-4h-48.286l-24.365 58h-5.1l-14.813-31.545-5.874 3.293-2.2-7.565.672-1.555 12.075-3.638 12.594 24.58 21.262-49.57" fill="#fff"/><path d="m3781.5-1597.1v72.999m-103-72.999v72.999m51-72.999v72.999m-57.004-4h115.01m-115.01-45h115.01m-115.01-20h115.01" fill="none" opacity=".7" stroke="#f87019" stroke-dasharray="1 3" stroke-linecap="square"/><path d="m3722-1593.6h60.032v12h-6.003v-4h-49.02l-24.458 58h-3.553l-14.98-31.966-5.833 3.057-2.152-7.495 12.106-4.606 12.594 24.58 21.262-49.57" fill="url(#f)" opacity=".8"/><path d="m3778.9-1572.6h-10.459l-12.19 15.997h-.31l-11.777-15.997h-11.275l16.872 22.43v.285l-16.96 23.285h10.624l12.31-16.709h.31l12.397 16.709h11.362l-17.364-23.665v-.285z" fill="#fff"/><path d="m3778.4-1573.6h-9.917l-12.19 15.997h-.31l-11.777-15.997h-10.744l16.872 22.43v.285l-17.492 23.285h9.917l13.016-17.328h.31l13.017 17.328h10.744l-17.905-23.665v-.285l16.46-22.05" fill="url(#h)" opacity=".8"/><path d="m3722-1593.6-21.281 49.562-12.594-24.562-12.094 4.594.313 1.125 11.187-4.375 13.189 25.875 22.094-51.22h58.219v11h1v-12zm54.031 8v4h1.094v-3.125l-1.063-.875h-.03z" opacity=".25"/><path d="m3733.4-1573.6.75 1h9.469l11.78 16h1.407l12.188-16h8.594l.75-1h-9.906l-12.188 16h-.313l-11.78-16zm28.5 22.062-.469 1.281 17.156 22.656h1.219l-17.906-23.656zm-11.625.5v.156l-17.469 23.281h1.313l16.718-22.28z" opacity=".25"/><path d="m3670-1523.6h120v1h-120z" fill="url(#i)" opacity=".35"/><path id="s" d="m-1597.6-3671h74v1h-74z" fill="url(#m)" opacity=".35" transform="rotate(90)"/><use height="1085" transform="translate(119)" width="5033" xlink:href="#s"/><path id="t" d="m-1599.4-3669h77.75v1h-77.75z" fill="url(#n)" opacity=".25" transform="rotate(90)"/><use height="1085" transform="translate(123)" width="5033" xlink:href="#t"/><use id="u" height="1085" transform="matrix(0 1 -1.5691 0 1280.8 -5189.6)" width="5033" xlink:href="#t"/><use id="v" height="1085" transform="translate(0 26)" width="5033" xlink:href="#u"/><use height="1085" opacity=".5" transform="translate(0 -23)" width="5033" xlink:href="#v"/><path id="w" d="m3770-1516.6h20v20h-20z" fill="url(#o)" opacity=".15"/><use height="1085" transform="matrix(-1 0 0 1 7460 0)" width="5033" xlink:href="#w"/><use height="1085" opacity=".5" transform="matrix(0 1 -1.5691 0 1280.8 -5188.6)" width="5033" xlink:href="#t"/><use height="1085" opacity=".5" transform="matrix(0 1 -1.5691 0 1280.8 -5268.6)" width="5033" xlink:href="#t"/><path id="x" d="m3666-1542.6v50h50v-1h-49v-49z" fill="url(#p)" opacity=".5"/><use height="1085" transform="matrix(-1 0 0 1 7460 0)" width="5033" xlink:href="#x"/><use height="1085" opacity=".25" transform="matrix(-1 0 0 -1 7460 -3095.2)" width="5033" xlink:href="#x"/><use height="1085" opacity=".25" transform="matrix(1 0 0 -1 0 -3095.3)" width="5033" xlink:href="#x"/><path id="y" d="m-1517.6-3669h22v1h-22z" fill="url(#q)" opacity=".5" transform="rotate(90)"/><use height="1085" transform="matrix(1.0454 0 0 1.0454 -43.666 67.959)" width="5033" xlink:href="#y"/></g></svg>