<svg height="64" width="64" xmlns="http://www.w3.org/2000/svg"><path d="m0-.012h64v64h-64z" fill="none" opacity=".75"/><path d="m9 1.002h46v59h-45.997v-59z" fill="#f6265b"/><path d="m8.5.499 47 .004v59.997h-46.998v-60.001z" fill="none" stroke="#b81c44" stroke-linecap="round" stroke-linejoin="round" stroke-width="1.002"/><path d="m18 19.503v22h5.5l.5-1h-5v-.586l9.707-9.707.293.293.471-.943-9.06-9.06h13.586l.5-1zm22.5 0-.5 1h3.586l-7.17 7.17-1.414 2.828.291-.291 9.707 9.707v.586h-15l-.5 1h16.5v-22zm-21.5 1 9 9-9 9zm26 0v18l-9-9z" fill="#fffcf9"/></svg>