<svg height="64" viewBox="0 0 16.933 16.933" width="64" xmlns="http://www.w3.org/2000/svg"><g transform="matrix(.26458 0 0 .26458 0 -261.5)"><path d="m8.991 989.37 46.01.004v57.985h-46.009v-57.989z" fill="#fafafa"/><g fill="none"><path d="m6.5.5 35 .003v44.003h-35z" stroke="#4f6698" stroke-linejoin="round" stroke-opacity=".267" stroke-width=".745" transform="matrix(1.3428 0 0 1.3408 -.228 988.19)"/><path d="m0 988.36h64v64h-64z" opacity=".75"/></g></g><path d="m4.853 7.939 2.136.878-.157.464-2.599-1.101v-.482l2.6-1.1.156.463zm2.885 2.911h-.572l2.04-5.823h.56zm2.206-3.79.156-.463 2.6 1.101v.482l-2.6 1.1-.156-.463 2.136-.878z" fill="#d85eca"/></svg>