<svg enable-background="new" height="16" width="16" xmlns="http://www.w3.org/2000/svg" xmlns:xlink="http://www.w3.org/1999/xlink"><filter id="a" color-interpolation-filters="sRGB"><feBlend in2="BackgroundImage" mode="darken"/></filter><g transform="translate(-905.0002 575)"><g filter="url(#a)"/><g fill="#4c5263"><path d="m908.0002-574c-1.108 0-2 .892-2 2v10c0 1.108.892 2 2 2h10c1.108 0 2-.892 2-2v-10c0-1.108-.892-2-2-2zm0 4h10v8h-10z"/><path d="m914.00018-567h2v2h-2z" opacity=".5"/><rect height="9.75" ry=".5" width="1" x="910.00018" y="-571"/><rect height="9.25" ry=".5" width="1" x="913.00018" y="-570.5"/><rect height="10" ry=".5" width="1" x="916.00018" y="-570.5"/><rect height="1" ry=".5" width="12" x="907.00018" y="-568"/><rect height="1" ry=".5" width="12.25" x="907.00018" y="-565"/></g></g></svg>