<svg enable-background="new" height="16" width="16" xmlns="http://www.w3.org/2000/svg" xmlns:xlink="http://www.w3.org/1999/xlink"><filter id="a" color-interpolation-filters="sRGB"><feBlend in2="BackgroundImage" mode="darken"/></filter><g transform="translate(-765.00018 575.00336)"><g filter="url(#a)"/><path d="m768.0002-574.00391c-2 .004-2 2.00391-2 2.00391.0185 3.39797-.014 6.96863 0 10 0 2 2 2 2 2h10s2 0 2-2v-10c0-2-2-2-2-2l-10-.004zm2.5 3.00391a1.5 1.5 0 0 1 1.5 1.5 1.5 1.5 0 0 1 -1.5 1.5 1.5 1.5 0 0 1 -1.5-1.5 1.5 1.5 0 0 1 1.5-1.5zm3 5c.44583 0 .83239.21293 1.07227.47461.23987.26168.375.55273.5.80273s.23987.45895.34375.57227c.10387.11329.15481.15039.33398.15039h.75.5v1h-.5-.75c-.44583 0-.83239-.21293-1.07227-.47461-.23987-.26168-.375-.55273-.5-.80273s-.23987-.45895-.34375-.57227c-.10387-.11329-.15481-.15039-.33398-.15039s-.23011.0371-.33398.15039c-.10388.11332-.21875.32227-.34375.57227s-.26013.54105-.5.80273c-.23988.26168-.62644.47461-1.07227.47461h-1.75-.5v-1h.5 1.75c.17917 0 .23011-.0371.33398-.15039.10388-.11332.21875-.32227.34375-.57227s.26013-.54105.5-.80273c.23988-.26168.62644-.47461 1.07227-.47461z" fill="#4c5263" visibility="hidden"/></g></svg>