<svg enable-background="new" height="16" width="16" xmlns="http://www.w3.org/2000/svg" xmlns:xlink="http://www.w3.org/1999/xlink"><filter id="a" color-interpolation-filters="sRGB"><feBlend in2="BackgroundImage" mode="darken"/></filter><g transform="translate(-865.00018 595.01007)"><g filter="url(#a)"/><path d="m868.0002-594c-1.108 0-2 .892-2 2v10c0 1.108.892 2 2 2h10c1.108 0 2-.892 2-2v-10c0-1.108-.892-2-2-2zm5 2.99023c2.20914 0 4 1.79086 4 4v.5c0 .82843-.67157 1.5-1.5 1.5-.44291.00022-.86327-.19627-1.14844-.53515-.35639.32873-.82848.53515-1.35156.53515-1.10457 0-2-.89543-2-2s.89543-2 2-2 2 .89543 2 2v.5c0 .27614.22386.5.5.5s.5-.22386.5-.5v-.5c0-1.65686-1.34314-3-3-3s-3 1.34314-3 3c0 1.65685 1.34314 3 3 3h2.5s.5 0 .5.5c-.0312.5-.5.5-.5.5h-2.5c-2.20914 0-4-1.79086-4-4s1.79086-4 4-4zm0 3c-.55229 0-1 .44772-1 1s.44771 1 1 1 1-.44772 1-1-.44771-1-1-1z" fill="#4c5263"/></g></svg>