<svg xmlns="http://www.w3.org/2000/svg" style="fill-rule:evenodd;clip-rule:evenodd;stroke-linejoin:round;stroke-miterlimit:2" viewBox="0 0 16 16" xml:space="preserve">
    <defs>
        <style id="current-color-scheme" type="text/css">
            .ColorScheme-Text{color:#dfdfdf}
        </style>
    </defs>
    <path style="fill:currentColor;fill-opacity:.5" class="ColorScheme-Text" d="M9.284 15.34a.253.253 0 1 0 .496-.105l-.261-1.228a.254.254 0 0 0-.496.106l.261 1.227Zm-3.064-.105a.253.253 0 1 0 .496.105l.261-1.227a.254.254 0 0 0-.496-.106l-.261 1.228Zm5.906-1.045a.253.253 0 0 0 .354.057.255.255 0 0 0 .057-.355l-.738-1.015a.254.254 0 1 0-.411.298l.738 1.015Zm-8.663-.298a.255.255 0 0 0 .057.355.253.253 0 0 0 .354-.057l.738-1.015a.254.254 0 1 0-.411-.298l-.738 1.015Zm10.791-1.908a.254.254 0 1 0 .254-.44l-1.087-.627a.253.253 0 0 0-.346.093.253.253 0 0 0 .092.347l1.087.627Zm-12.762-.44a.254.254 0 1 0 .254.44l1.087-.627a.253.253 0 0 0 .092-.347.253.253 0 0 0-.346-.093l-1.087.627Zm13.81-2.441a.254.254 0 0 0 .053-.505l-1.248-.132a.255.255 0 0 0-.28.226.255.255 0 0 0 .226.28l1.249.131ZM.645 8.598a.254.254 0 0 0 .053.505l1.249-.131a.255.255 0 0 0 .226-.28.255.255 0 0 0-.28-.226l-1.248.132Zm14.441-2.553a.254.254 0 0 0-.157-.484l-1.193.388a.254.254 0 0 0 .157.483l1.193-.387ZM1.071 5.561a.254.254 0 0 0-.157.484l1.193.387a.254.254 0 0 0 .157-.483l-1.193-.388Zm12.575-2.223a.254.254 0 0 0-.34-.377l-.933.84a.253.253 0 0 0-.018.358.253.253 0 0 0 .358.019l.933-.84ZM2.694 2.961a.254.254 0 1 0-.34.377l.933.84a.253.253 0 0 0 .358-.019.253.253 0 0 0-.018-.358l-.933-.84Zm2.541-1.716a.253.253 0 0 0-.464.207l.51 1.146a.253.253 0 1 0 .464-.206l-.51-1.147Zm5.994.207a.254.254 0 0 0-.464-.207l-.51 1.147a.253.253 0 1 0 .464.206l.51-1.146ZM8.254.712a.254.254 0 1 0-.508 0v1.254a.254.254 0 1 0 .508 0V.712Z"/>
    <path style="fill:currentColor" class="ColorScheme-Text" d="M8 2.597a5.486 5.486 0 0 1 5.483 5.483A5.486 5.486 0 0 1 8 13.563 5.486 5.486 0 0 1 2.517 8.08 5.486 5.486 0 0 1 8 2.597Zm0 .473a5.012 5.012 0 0 0-5.01 5.01A5.012 5.012 0 0 0 8 13.09a5.012 5.012 0 0 0 5.01-5.01A5.012 5.012 0 0 0 8 3.07Zm0 .77a4.24 4.24 0 1 0 0 8.48V3.84Z"/>
</svg>
