<svg xmlns="http://www.w3.org/2000/svg" style="fill-rule:evenodd;clip-rule:evenodd;stroke-linejoin:round;stroke-miterlimit:2" viewBox="0 0 16 16" xml:space="preserve">
    <defs>
        <style id="current-color-scheme" type="text/css">
            .ColorScheme-Highlight{color:#4285f4}.ColorScheme-NeutralText{color:#ff9800}.ColorScheme-PositiveText{color:#4caf50}.ColorScheme-NegativeText{color:#f44336}
        </style>
    </defs>
    <path style="fill:currentColor;color:#dfdfdf" d="M11.274.74v.895H3.162c-.843 0-1.527.684-1.527 1.527v9.676c0 .843.684 1.527 1.527 1.527h9.676c.843 0 1.527-.684 1.527-1.527V4.539l.895-.617v8.996a2.343 2.343 0 0 1-2.342 2.342H3.082A2.343 2.343 0 0 1 .74 12.918V3.082A2.343 2.343 0 0 1 3.082.74h8.192ZM6.434 6v.592c-.711 0-.721.239-.721 1.105-.007.081-.002.199-.026.303-.053.376-.224.801-.697 1.004.599.256.723.875.723 1.291.013.191.017.589.051.705.063.29.22.408.67.408V12c-.958 0-1.413-.288-1.497-1-.004-.108-.022-.303-.017-.477 0-.557-.021-1.201-.61-1.201h-.304v-.644h.305c.402 0 .532-.309.578-.678l.031-.746C4.92 6.352 5.368 6 6.434 6Zm3.142 0v.592c.71 0 .719.239.719 1.105.007.081.002.199.025.303.054.376.225.801.698 1.004-.599.256-.723.876-.723 1.291-.014.191-.017.589-.051.705-.063.29-.218.408-.668.408V12c.957 0 1.411-.288 1.494-1 .004-.108.023-.303.018-.477 0-.556.021-1.201.609-1.201h.305v-.644h-.305c-.402 0-.532-.309-.578-.678l-.031-.746c0-.902-.446-1.254-1.512-1.254ZM12 1v4l3-2-3-2Z"/>
</svg>
