<svg xmlns="http://www.w3.org/2000/svg" style="fill-rule:evenodd;clip-rule:evenodd;stroke-linejoin:round;stroke-miterlimit:2" viewBox="0 0 16 16" xml:space="preserve">
    <defs>
        <style id="current-color-scheme" type="text/css">
            .ColorScheme-Highlight{color:#4285f4}.ColorScheme-NeutralText{color:#ff9800}.ColorScheme-PositiveText{color:#4caf50}.ColorScheme-NegativeText{color:#f44336}
        </style>
    </defs>
    <path style="fill:currentColor;color:#dfdfdf" d="m10.014.74.551.895H3.162c-.843 0-1.527.684-1.527 1.527v9.676c0 .843.684 1.527 1.527 1.527h9.676c.843 0 1.527-.684 1.527-1.527V3.521l.895-1.348v10.745a2.343 2.343 0 0 1-2.342 2.342H3.082A2.343 2.343 0 0 1 .74 12.918V3.082A2.343 2.343 0 0 1 3.082.74h6.932ZM6.428 6c-1.066 0-1.504.352-1.504 1.254L4.893 8c-.047.369-.176.678-.578.678H4v.644h.315c.588 0 .609.644.609 1.201-.005.174.013.369.017.477.084.712.53 1 1.487 1v-.592c-.45 0-.599-.118-.662-.408-.034-.116-.038-.514-.051-.705 0-.416-.122-1.035-.721-1.291.473-.203.642-.628.696-1.004.023-.104.018-.222.025-.303 0-.866.003-1.105.713-1.105V6Zm3.144 0v.592c.711 0 .727.239.727 1.105.007.081.002.199.025.303.053.376.224.801.697 1.004-.598.256-.722.875-.722 1.291-.014.191-.017.589-.051.705-.063.29-.226.408-.676.408V12c.958 0 1.419-.288 1.502-1 .004-.108.023-.303.018-.477 0-.557.019-1.201.607-1.201H12v-.644h-.301c-.403 0-.53-.309-.576-.678l-.031-.746c0-.902-.454-1.254-1.52-1.254ZM11 1l2 3 2-3h-4Z"/>
</svg>
