<svg xmlns="http://www.w3.org/2000/svg" style="fill-rule:evenodd;clip-rule:evenodd;stroke-linejoin:round;stroke-miterlimit:2" viewBox="0 0 16 16" xml:space="preserve">
    <defs>
        <style id="current-color-scheme" type="text/css">
            .ColorScheme-Highlight{color:#4285f4}.ColorScheme-NeutralText{color:#ff9800}.ColorScheme-PositiveText{color:#4caf50}.ColorScheme-NegativeText{color:#f44336}
        </style>
    </defs>
    <path style="fill:currentColor;color:#dfdfdf" d="M10.188 14.299h3.429c.945 0 1.711-.767 1.711-1.712V9.165c0-.945-.766-1.712-1.711-1.712h-3.429v-.757c0-.245-.224-.443-.5-.443s-.5.198-.5.443v8.36c0 .245.224.443.5.443s.5-.198.5-.443v-.757Zm0-5.846h3.429c.393 0 .711.319.711.712v3.422a.711.711 0 0 1-.711.712h-3.429V8.453Zm-7.702 5.846h3.43c.944 0 1.711-.767 1.711-1.712V9.165c0-.945-.767-1.712-1.711-1.712h-3.43v-.757c0-.245-.224-.443-.5-.443-.275 0-.5.198-.5.443v8.36c0 .245.225.443.5.443.276 0 .5-.198.5-.443v-.757Zm0-5.846h3.43c.392 0 .711.319.711.712v3.422a.712.712 0 0 1-.711.712h-3.43V8.453Zm-1-5.352L5.624.547v5.108L1.486 3.101Z"/>
</svg>
