<svg xmlns="http://www.w3.org/2000/svg" style="fill-rule:evenodd;clip-rule:evenodd;stroke-linejoin:round;stroke-miterlimit:2" viewBox="0 0 16 16" xml:space="preserve">
    <defs>
        <style id="current-color-scheme" type="text/css">
            .ColorScheme-Highlight{color:#4285f4}.ColorScheme-NeutralText{color:#ff9800}.ColorScheme-PositiveText{color:#4caf50}.ColorScheme-NegativeText{color:#f44336}
        </style>
    </defs>
    <path style="fill:currentColor;color:#dfdfdf" d="M8 2C4.709 2 2 4.708 2 8s2.709 6 6 6 6-2.708 6-6-2.709-6-6-6Zm0 1c2.743 0 5 2.257 5 5s-2.257 5-5 5-5-2.257-5-5 2.257-5 5-5Zm0 1a4.002 4.002 0 0 0-2.559.928l.641.769A3.001 3.001 0 0 1 8 5c1.646 0 3 1.354 3 3h1c0-2.194-1.806-4-4-4Zm1 2L7.398 9.203c-.25.189-.397.484-.398.797 0 .549.451 1 1 1 .549 0 1-.451 1-1a.999.999 0 0 0-.252-.66L9 6Zm-4.469.018A4.005 4.005 0 0 0 4 8h1a3.001 3.001 0 0 1 .398-1.486l-.867-.496Z"/>
</svg>
