<svg xmlns="http://www.w3.org/2000/svg" style="fill-rule:evenodd;clip-rule:evenodd;stroke-linejoin:round;stroke-miterlimit:2" viewBox="0 0 16 16" xml:space="preserve">
    <defs>
        <style id="current-color-scheme" type="text/css">
            .ColorScheme-Text{color:#dfdfdf}
        </style>
    </defs>
    <path style="fill:currentColor" class="ColorScheme-Text" d="M12.809 9.082a1.848 1.848 0 0 0-1.852 1.852v.926h-.463a.462.462 0 0 0-.462.463v2.778c0 .256.206.463.462.463h4.63a.463.463 0 0 0 .463-.463v-2.778a.463.463 0 0 0-.463-.463h-.463v-.926a1.848 1.848 0 0 0-1.852-1.852Zm0 .926c.513 0 .926.413.926.926v.926h-1.852v-.926c0-.513.413-.926.926-.926Z"/>
    <path style="fill:currentColor" class="ColorScheme-Text" d="M9.532 13.2H1.786C.8 13.2 0 12.4 0 11.414V4.586C0 3.6.8 2.8 1.786 2.8h12.428C15.2 2.8 16 3.6 16 4.586v6.828c0 .143-.017.282-.049.415a.96.96 0 0 0-.751-.466V3.88L11.08 8l.775.783a2.318 2.318 0 0 0-.356.196L10.8 8.28 9.64 9.44c-.44.44-1 .68-1.64.68-.6 0-1.2-.24-1.64-.68L5.2 8.28 1.08 12.4h8.452v.8ZM4.92 8 .8 12.12V3.88L4.92 8Zm4.44 1.16 5.52-5.56H1.08l5.56 5.56c.36.36.84.56 1.36.56.52 0 1-.2 1.36-.56Z"/>
    <path style="fill:currentColor;fill-opacity:.3" class="ColorScheme-Text" d="M9.532 12.57H.8V3.6l5.938 5.889 1.242.483 1.342-.541L15.2 3.6v7.763l-.039-.002v-.427a2.347 2.347 0 0 0-2.352-2.352 2.347 2.347 0 0 0-2.352 2.352v.427a.96.96 0 0 0-.925.962v.247Zm3.703-1.21v-.426a.425.425 0 1 0-.852 0v.426h.852Z"/>
</svg>
