<svg xmlns="http://www.w3.org/2000/svg" style="fill-rule:evenodd;clip-rule:evenodd;stroke-linejoin:round;stroke-miterlimit:2" viewBox="0 0 16 16" xml:space="preserve">
    <defs>
        <style id="current-color-scheme" type="text/css">
            .ColorScheme-Highlight{color:#4285f4}.ColorScheme-NeutralText{color:#ff9800}.ColorScheme-PositiveText{color:#4caf50}.ColorScheme-NegativeText{color:#f44336}
        </style>
    </defs>
    <path style="fill:currentColor;color:#dfdfdf" d="M8 1a7 7 0 1 0 0 14A7 7 0 0 0 8 1Zm-.632.796c.577-.075-.112.632-.103.947-.334 1.065-.431 2.349.276 3.289.032.352-.737.004-.92-.189-.408-.246-.891-.881-1.402-.584-.445.277-.621.872-.283 1.304.568.756 1.547 1.008 2.42 1.23.95.232 1.998.369 2.774 1.015.604.585.57 1.523.425 2.289-.311 1.389-1.56 2.31-2.791 2.864-.667.347-.27-.737-.49-1.09-.161-.756-.606-1.448-1.282-1.839-.37-.284-.856-.459-1.114-.862-.07-.541.251-1.091.598-1.491.141-.281 1.043-.598.317-.649-1.338-.282-2.743-.663-3.765-1.623.591-2.454 2.796-4.442 5.34-4.611Zm5.764 2.882c.141.089.688 1.269.845 1.844.2.743.186 2.029 0 2.766-.072.282-.163.544-.192.577-.031.033-.14-.156-.27-.384-.129-.229-.541-.715-.884-1.076-.988-1.043-1.143-1.588-.729-2.421.206-.419 1.117-1.375 1.23-1.306Z"/>
</svg>
