<svg xmlns="http://www.w3.org/2000/svg" width="16" height="16">
    <defs>
        <style id="current-color-scheme" type="text/css">
            .ColorScheme-Highlight{color:#4285f4}.ColorScheme-NeutralText{color:#ff9800}.ColorScheme-PositiveText{color:#4caf50}.ColorScheme-NegativeText{color:#f44336}
        </style>
    </defs>
    <path style="fill:currentColor;color:#dfdfdf" d="M8 2a6 6 0 1 0 0 12A6 6 0 0 0 8 2Zm0 1a4.999 4.999 0 0 1 2.865.906L9.146 6.363a2 2 0 0 1 .844 1.471L13 7.563V8a5 5 0 0 1-5 5v-3a2 2 0 0 1-1.414-.586l-2.12 2.119A5 5 0 0 1 3 8a5 5 0 0 1 1.17-3.213l2.299 1.928A2 2 0 0 1 8 6Z"/>
</svg>
