<svg xmlns="http://www.w3.org/2000/svg" style="fill-rule:evenodd;clip-rule:evenodd;stroke-linejoin:round;stroke-miterlimit:2" viewBox="0 0 16 16" xml:space="preserve">
    <defs>
        <style id="current-color-scheme" type="text/css">
            .ColorScheme-Text{color:#dfdfdf}
        </style>
    </defs>
    <path style="fill:currentColor" class="ColorScheme-Text" d="M13.857 12.072 11 14.928V16h1.072l2.856-2.857-1.071-1.071Zm1.123-1.068a.251.251 0 0 0-.13.076l-.635.635 1.07 1.07.635-.635c.179-.178 0-.357 0-.357l-.713-.713s-.101-.101-.227-.076Z"/>
    <path style="fill:currentColor;fill-opacity:.5" class="ColorScheme-Text" d="M4 1S2 1 2 3v5l7 7 7-7-7-7H4Z"/>
    <path style="fill:currentColor" class="ColorScheme-Text" d="M4 1S2 1 2 3v5l7 7 7-7-7-7H4Zm4.586 1H4S3 2 3 3v4.586l6 6L14.586 8l-6-6Z"/>
</svg>
