<svg xmlns="http://www.w3.org/2000/svg" width="22" height="22"><g transform="translate(-1 -1)"><rect style="opacity:.2" width="6" height="20" x="-21.5" y="-22" rx="1" ry="1" transform="matrix(0 -1 -1 0 0 0)"/><rect style="fill:#8e8e8e" width="6" height="20" x="-21" y="-22" rx="1" ry="1" transform="matrix(0 -1 -1 0 0 0)"/><path style="opacity:.5;stroke:#000;stroke-linecap:round" d="m8.5 16.5-1 3M6.5 16.5l-1 3M4.5 16.5l-1 3M10.5 16.5l-1 3"/><circle style="opacity:.2" cx="15" cy="17.5" r="1"/><circle style="opacity:.2" cx="17.5" cy="17.5" r="1"/><circle style="opacity:.2" cx="20" cy="17.5" r="1"/><circle style="fill:#76ff03" cx="15" cy="17" r="1"/><circle style="fill:#ff0" cx="17.5" cy="17" r="1"/><circle style="fill:#ffcd40" cx="20" cy="17" r="1"/></g><g transform="translate(-1 -1)"><rect style="opacity:.2" width="6" height="20" x="-15.5" y="-22" rx="1" ry="1" transform="matrix(0 -1 -1 0 0 0)"/><rect style="fill:#8e8e8e" width="6" height="20" x="-15" y="-22" rx="1" ry="1" transform="matrix(0 -1 -1 0 0 0)"/><path style="opacity:.5;stroke:#000;stroke-linecap:round" d="m8.5 10.5-1 3M6.5 10.5l-1 3M4.5 10.5l-1 3M10.5 10.5l-1 3"/><circle style="opacity:.2" cx="15" cy="11.5" r="1"/><circle style="opacity:.2" cx="17.5" cy="11.5" r="1"/><circle style="opacity:.2" cx="20" cy="11.5" r="1"/><circle style="fill:#76ff03" cx="15" cy="11" r="1"/><circle style="fill:#ff0" cx="17.5" cy="11" r="1"/><circle style="fill:#ffcd40" cx="20" cy="11" r="1"/></g><g transform="translate(-1 -1)"><rect style="opacity:.2" width="6" height="20" x="-9.5" y="-22" rx="1" ry="1" transform="matrix(0 -1 -1 0 0 0)"/><rect style="fill:#8e8e8e" width="6" height="20" x="-9" y="-22" rx="1" ry="1" transform="matrix(0 -1 -1 0 0 0)"/><path style="opacity:.5;stroke:#000;stroke-linecap:round" d="m8.5 4.5-1 3M6.5 4.5l-1 3M4.5 4.5l-1 3M10.5 4.5l-1 3"/><circle style="opacity:.2" cx="15" cy="5.5" r="1"/><circle style="opacity:.2" cx="17.5" cy="5.5" r="1"/><circle style="opacity:.2" cx="20" cy="5.5" r="1"/><circle style="fill:#76ff03" cx="15" cy="5" r="1"/><circle style="fill:#ff0" cx="17.5" cy="5" r="1"/><circle style="fill:#ffcd40" cx="20" cy="5" r="1"/><path style="opacity:.2;fill:#fff" d="M3 3c-.554 0-1 .446-1 1v.5c0-.554.446-1 1-1h18c.554 0 1 .446 1 1V4c0-.554-.446-1-1-1z"/></g></svg>