<svg height="32" width="32" xmlns="http://www.w3.org/2000/svg">
    <rect height="16" opacity=".2" rx="1.3" width="26" x="3" y="9"/>
    <rect fill="#419d45" height="16" rx="1.3" width="26" x="3" y="8"/>
    <path d="M5 23h2v3H5zm3 0h2v3H8zm3 0h2v3h-2zm5 0h2v3h-2zm3 0h2v3h-2zm3 0h2v3h-2zm3 0h2v3h-2z" opacity=".2"/>
    <path d="M5 22h2v3H5zm3 0h2v3H8zm3 0h2v3h-2zm5 0h2v3h-2zm3 0h2v3h-2zm3 0h2v3h-2zm3 0h2v3h-2z" fill="#f8c44e"/>
    <g opacity=".2">
        <rect height="8" rx=".75" width="5" x="4" y="12"/>
        <rect height="8" rx=".75" width="5" x="10" y="12"/>
        <rect height="8" rx=".75" width="5" x="17" y="12"/>
        <rect height="8" rx=".75" width="5" x="23" y="12"/>
    </g>
    <g fill="#37474f">
        <rect height="8" rx=".75" width="5" x="4" y="11"/>
        <rect height="8" rx=".75" width="5" x="10" y="11"/>
        <rect height="8" rx=".75" width="5" x="17" y="11"/>
        <rect height="8" rx=".75" width="5" x="23" y="11"/>
    </g>
    <g fill="#f4f4f7">
        <path d="M4.3 8C3.58 8 3 8.58 3 9.3v1.001C3 9.581 3.58 9 4.3 9h23.4c.72 0 1.301.58 1.301 1.301v-1A1.3 1.3 0 0 0 27.699 8H4.301zM4.75 11a.749.749 0 0 0-.75.75v1c0-.415.335-.75.75-.75h3.5c.415 0 .75.335.75.75v-1a.749.749 0 0 0-.75-.75zm6 0a.749.749 0 0 0-.75.75v1c0-.415.335-.75.75-.75h3.5c.416 0 .75.335.75.75v-1a.748.748 0 0 0-.75-.75zm7 0a.749.749 0 0 0-.75.75v1c0-.415.335-.75.75-.75h3.5c.416 0 .75.335.75.75v-1a.748.748 0 0 0-.75-.75zm6 0a.749.749 0 0 0-.75.75v1c0-.415.335-.75.75-.75h3.5c.416 0 .75.335.75.75v-1a.748.748 0 0 0-.75-.75z" opacity=".1"/>
    </g>
</svg>
