<svg height="32" width="32" xmlns="http://www.w3.org/2000/svg">
    <rect height="28" opacity=".2" rx="1.4" transform="matrix(0 -1 -1 0 0 0)" width="28" x="-31" y="-30"/>
    <rect fill="#419d45" height="28" rx="1.4" transform="matrix(0 -1 -1 0 0 0)" width="28" x="-30" y="-30"/>
    <rect height="10" opacity=".2" rx="2.4" width="10" x="11" y="12"/>
    <rect fill="#37474f" height="10" rx="2.4" width="10" x="11" y="11"/>
    <g opacity=".2">
        <circle cx="8" cy="9" r="1"/>
        <circle cx="11" cy="9" r="1"/>
        <circle cx="14" cy="9" r="1"/>
        <circle cx="18" cy="9" r="1"/>
        <circle cx="21" cy="9" r="1"/>
        <circle cx="24" cy="9" r="1"/>
        <circle cx="24" cy="12" r="1"/>
        <circle cx="24" cy="15" r="1"/>
        <circle cx="24" cy="19" r="1"/>
        <circle cx="24" cy="22" r="1"/>
        <circle cx="24" cy="25" r="1"/>
        <circle cx="21" cy="25" r="1"/>
        <circle cx="18" cy="25" r="1"/>
        <circle cx="14" cy="25" r="1"/>
        <circle cx="11" cy="25" r="1"/>
        <circle cx="8" cy="25" r="1"/>
        <circle cx="8" cy="22" r="1"/>
        <circle cx="8" cy="19" r="1"/>
        <circle cx="8" cy="15" r="1"/>
        <circle cx="8" cy="12" r="1"/>
        <circle cx="11" cy="6" r="1"/>
        <circle cx="14" cy="6" r="1"/>
        <circle cx="18" cy="6" r="1"/>
        <circle cx="21" cy="6" r="1"/>
        <circle cx="27" cy="12" r="1"/>
        <circle cx="27" cy="15" r="1"/>
        <circle cx="27" cy="19" r="1"/>
        <circle cx="27" cy="22" r="1"/>
        <circle cx="21" cy="28" r="1"/>
        <circle cx="18" cy="28" r="1"/>
        <circle cx="14" cy="28" r="1"/>
        <circle cx="11" cy="28" r="1"/>
        <circle cx="5" cy="22" r="1"/>
        <circle cx="5" cy="19" r="1"/>
        <circle cx="5" cy="15" r="1"/>
        <circle cx="5" cy="12" r="1"/>
        <circle cx="27" cy="9" r="1"/>
        <circle cx="27" cy="6" r="1"/>
        <circle cx="24" cy="6" r="1"/>
        <circle cx="24" cy="28" r="1"/>
        <circle cx="27" cy="28" r="1"/>
        <circle cx="27" cy="25" r="1"/>
        <circle cx="5" cy="25" r="1"/>
        <circle cx="5" cy="28" r="1"/>
        <circle cx="5" cy="9" r="1"/>
    </g>
    <g fill="#ffdc65">
        <circle cx="8" cy="8" r="1"/>
        <circle cx="11" cy="8" r="1"/>
        <circle cx="14" cy="8" r="1"/>
        <circle cx="18" cy="8" r="1"/>
        <circle cx="21" cy="8" r="1"/>
        <circle cx="24" cy="8" r="1"/>
        <circle cx="24" cy="11" r="1"/>
        <circle cx="24" cy="14" r="1"/>
        <circle cx="24" cy="18" r="1"/>
        <circle cx="24" cy="21" r="1"/>
        <circle cx="24" cy="24" r="1"/>
        <circle cx="21" cy="24" r="1"/>
        <circle cx="18" cy="24" r="1"/>
        <circle cx="14" cy="24" r="1"/>
        <circle cx="11" cy="24" r="1"/>
        <circle cx="8" cy="24" r="1"/>
        <circle cx="8" cy="21" r="1"/>
        <circle cx="8" cy="18" r="1"/>
        <circle cx="8" cy="14" r="1"/>
        <circle cx="8" cy="11" r="1"/>
        <circle cx="11" cy="5" r="1"/>
        <circle cx="14" cy="5" r="1"/>
        <circle cx="18" cy="5" r="1"/>
        <circle cx="21" cy="5" r="1"/>
        <circle cx="27" cy="11" r="1"/>
        <circle cx="27" cy="14" r="1"/>
        <circle cx="27" cy="18" r="1"/>
        <circle cx="27" cy="21" r="1"/>
        <circle cx="21" cy="27" r="1"/>
        <circle cx="18" cy="27" r="1"/>
        <circle cx="14" cy="27" r="1"/>
        <circle cx="5" cy="24" r="1"/>
        <circle cx="5" cy="21" r="1"/>
        <circle cx="5" cy="18" r="1"/>
        <circle cx="5" cy="14" r="1"/>
        <circle cx="5" cy="11" r="1"/>
        <circle cx="27" cy="24" r="1"/>
        <circle cx="27" cy="27" r="1"/>
        <circle cx="24" cy="27" r="1"/>
        <circle cx="27" cy="8" r="1"/>
        <circle cx="27" cy="5" r="1"/>
        <circle cx="24" cy="5" r="1"/>
        <circle cx="5" cy="27" r="1"/>
        <circle cx="11" cy="27" r="1"/>
        <circle cx="5" cy="8" r="1"/>
    </g>
    <path d="M3.4 2C2.625 2 2 2.625 2 3.4v1C2 3.625 2.625 3 3.4 3h25.2c.775 0 1.4.625 1.4 1.4v-1c0-.775-.625-1.4-1.4-1.4zm10 9a2.396 2.396 0 0 0-2.4 2.4v1c0-1.329 1.071-2.4 2.4-2.4h5.2c1.329 0 2.4 1.071 2.4 2.4v-1c0-1.329-1.071-2.4-2.4-2.4z" fill="#f4f4f7" opacity=".1"/>
</svg>
