<svg height="32" width="32" xmlns="http://www.w3.org/2000/svg">
    <rect height="28" opacity=".2" rx="1.25" transform="matrix(0 -1 -1 0 0 0)" width="9" x="-30" y="-30"/>
    <rect fill="#8e8e8e" height="28" rx="1.25" transform="matrix(0 -1 -1 0 0 0)" width="9" x="-29" y="-30"/>
    <path d="m12 23-2 3m-1-3-2 3m-1-3-2 3m11-3-2 3" fill="none" opacity=".5" stroke="#000" stroke-linecap="round" stroke-width="1.999"/>
    <circle cx="19.5" cy="23.5" opacity=".2" r="1.5"/>
    <circle cx="23.5" cy="23.5" opacity=".2" r="1.5"/>
    <circle cx="27.5" cy="23.5" opacity=".2" r="1.5"/>
    <circle cx="19.5" cy="22.5" fill="#76ff03" r="1.5"/>
    <circle cx="23.5" cy="22.5" fill="#ff0" r="1.5"/>
    <circle cx="27.5" cy="22.5" fill="#ffcd40" r="1.5"/>
    <rect height="28" opacity=".2" rx="1.412" ry="1.4" transform="matrix(0 -1 -1 0 0 0)" width="12" x="-21" y="-30"/>
    <path d="M6.375 2C5.613 2 5 2.637 5 3.429V12h22V3.429C27 2.637 26.387 2 25.625 2z" fill="#f4f4f7"/>
    <rect fill="#4f4f4f" height="28" rx="1.412" ry="1.4" transform="matrix(0 -1 -1 0 0 0)" width="12" x="-20" y="-30"/>
    <path d="M4 15h24v2H4z" opacity=".2"/>
    <rect height="3" opacity=".2" rx="1.125" width="3" x="4" y="11"/>
    <rect fill="#76ff03" height="3" rx="1.125" width="3" x="4" y="10"/>
    <g fill="#f4f4f7">
        <path d="M5.125 10C4.502 10 4 10.502 4 11.125v.75c0 .044.02.082.025.125.065-.561.521-1 1.1-1h.75a1.11 1.11 0 0 1 1.1 1c.005-.043.025-.08.025-.125v-.75C7 10.502 6.498 10 5.875 10z" opacity=".2"/>
        <path d="M3.4 8C2.625 8 2 8.63 2 9.412v1C2 9.63 2.625 9 3.4 9h25.2c.775 0 1.4.63 1.4 1.412v-1C30 8.63 29.375 8 28.6 8z" opacity=".1"/>
        <path d="M6.375 2C5.613 2 5 2.636 5 3.428v1C5 3.636 5.613 3 6.375 3h19.25C26.387 3 27 3.636 27 4.428v-1C27 2.636 26.387 2 25.625 2z" opacity=".2"/>
    </g>
</svg>
