<svg height="32" width="32" xmlns="http://www.w3.org/2000/svg"><rect height="28" opacity=".2" rx="1.5" width="22" x="5" y="3"/><rect fill="#4f4f4f" height="28" rx="1.5" width="22" x="5" y="2"/><g opacity=".2"><rect height="4" rx=".5" width="4" x="14" y="12"/><rect height="4" rx=".5" width="4" x="8" y="12"/><rect height="4" rx=".5" width="4" x="20" y="12"/><rect height="4" rx=".5" width="4" x="14" y="6"/><rect height="4" rx=".5" width="4" x="8" y="6"/><rect height="4" rx=".5" width="4" x="20" y="6"/><rect height="4" rx=".5" width="4" x="14" y="18"/><rect height="4" rx=".5" width="4" x="8" y="18"/><rect height="4" rx=".5" width="4" x="20" y="18"/><rect height="4" rx=".5" width="4" x="14" y="24"/><rect height="4" rx=".5" width="4" x="20" y="24"/><rect height="4" rx=".5" width="4" x="8" y="24"/></g><g fill="#f4f4f7"><rect height="4" rx=".5" width="4" x="14" y="11"/><rect height="4" rx=".5" width="4" x="8" y="11"/><rect height="4" rx=".5" width="4" x="20" y="11"/><rect height="4" rx=".5" width="4" x="14" y="5"/><rect height="4" rx=".5" width="4" x="8" y="5"/><rect height="4" rx=".5" width="4" x="20" y="5"/><rect height="4" rx=".5" width="4" x="14" y="17"/><rect height="4" rx=".5" width="4" x="8" y="17"/><rect height="4" rx=".5" width="4" x="20" y="17"/><rect height="4" rx=".5" width="4" x="14" y="23"/></g><rect fill="#ff5a5a" height="4" rx=".5" width="4" x="20" y="23"/><rect fill="#64c90e" height="4" rx=".5" width="4" x="8" y="23"/><g fill="#f4f4f7"><path d="m8.5 5c-.277 0-.5.223-.5.5v1c0-.277.223-.5.5-.5h3c.277 0 .5.223.5.5v-1c0-.277-.223-.5-.5-.5zm6 0c-.277 0-.5.223-.5.5v1c0-.277.223-.5.5-.5h3c.277 0 .5.223.5.5v-1c0-.277-.223-.5-.5-.5zm6 0c-.277 0-.5.223-.5.5v1c0-.277.223-.5.5-.5h3c.277 0 .5.223.5.5v-1c0-.277-.223-.5-.5-.5zm-12 6c-.277 0-.5.223-.5.5v1c0-.277.223-.5.5-.5h3c.277 0 .5.223.5.5v-1c0-.277-.223-.5-.5-.5zm6 0c-.277 0-.5.223-.5.5v1c0-.277.223-.5.5-.5h3c.277 0 .5.223.5.5v-1c0-.277-.223-.5-.5-.5zm6 0c-.277 0-.5.223-.5.5v1c0-.277.223-.5.5-.5h3c.277 0 .5.223.5.5v-1c0-.277-.223-.5-.5-.5zm-12 6c-.277 0-.5.223-.5.5v1c0-.277.223-.5.5-.5h3c.277 0 .5.223.5.5v-1c0-.277-.223-.5-.5-.5zm6 0c-.277 0-.5.223-.5.5v1c0-.277.223-.5.5-.5h3c.277 0 .5.223.5.5v-1c0-.277-.223-.5-.5-.5zm6 0c-.277 0-.5.223-.5.5v1c0-.277.223-.5.5-.5h3c.277 0 .5.223.5.5v-1c0-.277-.223-.5-.5-.5zm-12 6c-.277 0-.5.223-.5.5v1c0-.277.223-.5.5-.5h3c.277 0 .5.223.5.5v-1c0-.277-.223-.5-.5-.5zm6 0c-.277 0-.5.223-.5.5v1c0-.277.223-.5.5-.5h3c.277 0 .5.223.5.5v-1c0-.277-.223-.5-.5-.5zm6 0c-.277 0-.5.223-.5.5v1c0-.277.223-.5.5-.5h3c.277 0 .5.223.5.5v-1c0-.277-.223-.5-.5-.5z" opacity=".2"/><path d="m6.5 2c-.831 0-1.5.669-1.5 1.5v1c0-.831.669-1.5 1.5-1.5h19c.831 0 1.5.669 1.5 1.5v-1c0-.831-.669-1.5-1.5-1.5z" opacity=".1"/></g></svg>