<svg height="32" width="32" xmlns="http://www.w3.org/2000/svg">
    <rect height="22" opacity=".2" rx="2" transform="matrix(0 -1 -1 0 0 0)" width="28" x="-31" y="-27"/>
    <rect fill="#8e8e8e" height="22" rx="2" transform="matrix(0 -1 -1 0 0 0)" width="28" x="-30" y="-27"/>
    <path d="M23 2v15c0 3.878-3.122 7-7 7s-7-3.122-7-7V2z" opacity=".5"/>
    <circle cx="16" cy="18" opacity=".2" r="3"/>
    <circle cx="16" cy="17" fill="#8e8e8e" r="3"/>
    <circle cx="16" cy="12" opacity=".2" r="1"/>
    <circle cx="16" cy="11" fill="#ff6e40" r="1"/>
    <circle cx="16" cy="8" opacity=".2" r="1"/>
    <circle cx="16" cy="7" fill="#76ff03" r="1"/>
    <path d="M8 28h16v2H8zm17.5-12a.499.499 0 1 0 0 1H27v-1zm0 2a.499.499 0 1 0 0 1H27v-1zm0 2a.499.499 0 1 0 0 1H27v-1zm-19-4a.499.499 0 1 1 0 1H5v-1zm0 2a.499.499 0 1 1 0 1H5v-1zm0 2a.499.499 0 1 1 0 1H5v-1z" opacity=".5"/>
    <path d="M7 2c-1.108 0-2 .892-2 2v1c0-1.108.892-2 2-2h18c1.108 0 2 .892 2 2V4c0-1.108-.892-2-2-2z" fill="#f4f4f7" opacity=".2"/>
</svg>
