<svg height="32" width="32" xmlns="http://www.w3.org/2000/svg"><rect fill="#f4f4f7" height="13" rx="1.4" ry="1.3" transform="rotate(90)" width="28" x="2" y="-22"/><g fill="#4f4f4f"><path d="m19 7.8c0-.388-.312-.7-.7-.7h-1.4v-1.4c0-.388-.312-.7-.7-.7h-1.4c-.388 0-.7.312-.7.7v1.4h-1.4c-.388 0-.7.312-.7.7v1.4c0 .388.312.7.7.7h1.4v1.4c0 .388.312.7.7.7h1.4c.388 0 .7-.312.7-.7l-.001-1.4h1.4c.387 0 .7-.312.7-.7v-1.4z"/><circle cx="25.5" cy="-17.5" r="1.5" transform="rotate(90)"/><circle cx="21.5" cy="-17.5" r="1.5" transform="rotate(90)"/><circle cx="25.5" cy="-13.5" r="1.5" transform="rotate(90)"/><circle cx="21.5" cy="-13.5" r="1.5" transform="rotate(90)"/></g><path d="m10.301 2c-.72 0-1.301.625-1.301 1.4v1c0-.775.58-1.4 1.301-1.4h10.398c.72 0 1.301.625 1.301 1.4v-1c0-.775-.581-1.4-1.301-1.4z" fill="#fff" opacity=".2"/><path d="m9 28.6v1c0 .775.58 1.4 1.301 1.4h10.398c.72 0 1.301-.625 1.301-1.4v-1c0 .775-.581 1.4-1.301 1.4h-10.398c-.72 0-1.301-.625-1.301-1.4z" opacity=".2"/></svg>