<svg height="32" viewBox="0 0 8.4666665 8.4666669" width="32" xmlns="http://www.w3.org/2000/svg"><g transform="translate(2.910417 -288.797907)"><path d="m-2.38125 289.06249c-.2885755 0-.5291667.24059-.5291667.52917v6.87916c0 .28858.240588.52917.5291667.52917h7.4083333c.2885787 0 .5291667-.24059.5291667-.52917v-5.82083c0-.28858-.2405912-.52917-.5291667-.52917h-3.7041667c-.044097 0-.058041-.007-.1111043-.0703-.053063-.0637-.1152385-.18034-.1813843-.31264-.066146-.13229-.13626258-.2802-.24856358-.41496-.1123011-.13474-.2967951-.26043-.5172811-.26043z" fill="#c74343"/><path d="m-2.38125 289.32707c-.1465817 0-.2645833.118-.2645833.26458v6.87917c0 .14658.1180016.26458.2645833.26458h7.4083336c.1465815 0 .2645831-.118.2645831-.26458v-5.82083c0-.14658-.1180018-.26458-.2645831-.26458l-3.704167-.00001c-.52916658 0-.52916658-1.05833-1.05833328-1.05833z" fill="#f78f8f" stroke-width=".529167"/><path d="m1.3229166 290.12082c-.220486 0-.41123888.14535-.50126128.28939-.090023.14404-.1300009.2881-.1762167.41135-.046216.12324-.095339.22076-.1462442.27388-.0509059.0531-.0949698.0837-.2346111.0837h-2.64583332c-.2885755 0-.5291667.24058-.5291667.52916v4.7625c0 .28858.240588.52917.5291667.52917h7.4083333c.2885787 0 .5291667-.24059.5291667-.52917v-5.82083c0-.28858-.2405912-.52917-.5291667-.52917z" fill="#c74343"/><path d="m-2.38125 291.44374c-.1465818 0-.2645833.118-.2645833.26458v4.7625c0 .14658.1180015.26458.2645833.26458h7.4083336c.1465815 0 .2645831-.118.2645831-.26458v-5.82083c0-.14658-.1180018-.26458-.2645831-.26458l-3.704167-.00001c-.52916658 0-.2645833 1.05834-1.05833328 1.05834z" fill="#f78f8f"/><path d="m1.3229174 292.23749c-1.02605408 0-1.85208318.82603-1.85208318 1.85208s.8260291 1.85209 1.85208318 1.85209c1.0260542 0 1.8520834-.82604 1.8520834-1.85209s-.8260292-1.85208-1.8520834-1.85208zm-1.05833328 1.05833h.5291669l.52916638.52917.529167-.52917h.5291666v1.5875h-.5291666l-.0000019-.76436-.2645815.23519h-.2645836-.264583l-.26458488-.23519.0000015.76436h-.5291669z" fill="#fdf1f4"/></g></svg>