<svg height="16" width="16" xmlns="http://www.w3.org/2000/svg">
    <g fill="#aaa">
        <path d="M7.057 1.92v4.618l-2.539-1.93-.86.684 3.158 2.421-3.207 2.421 1.005.756 2.443-1.964v4.58l4.548-3.372L8.59 7.75l2.917-2.35-4.451-3.482m1.245 2.236 1.486 1.284-1.486 1.137v-2.42zm-.048 4.809 1.582 1.132-1.486 1.023-.096-2.155z" fill-rule="evenodd"/>
        <path d="M11.76 10.685a.943.943 0 0 0-.936.95v.454a.467.467 0 0 0-.468.468v1.405c0 .26.208.468.468.468h1.873a.467.467 0 0 0 .468-.468v-1.405a.467.467 0 0 0-.468-.468v-.453a.943.943 0 0 0-.937-.951zm0 .468c.26 0 .469.207.469.468v.468h-.937v-.468c0-.262.208-.468.468-.468z"/>
    </g>
</svg>
