<svg height="24" width="24" xmlns="http://www.w3.org/2000/svg"><path d="m12 2.5c-5.54 0-10 4.46-10 10s4.46 10 10 10 10-4.46 10-10-4.46-10-10-10z" opacity=".2"/><path d="m12 2c-5.54 0-10 4.46-10 10s4.46 10 10 10 10-4.46 10-10-4.46-10-10-10z" fill="#ffa50c"/><path d="m7.24 11.03c-.631-.627.111-1.02.743-1.646.63-.627.912-1.25 1.543-.624a1.597 1.597 0 0 1 0 2.27 1.625 1.625 0 0 1 -2.286 0z" opacity=".1"/><path d="m7.24 10.53c-.631-.627.111-1.02.743-1.646.63-.627.912-1.25 1.543-.624a1.597 1.597 0 0 1 0 2.27 1.625 1.625 0 0 1 -2.286 0z" fill="#17191e"/><path d="m7.5 17.994s1.5-2 4.5-2 4.5 2 4.5 2" fill="none" opacity=".1" stroke="#000" stroke-linecap="round" stroke-linejoin="round"/><path d="m7.5 17.494s1.5-2 4.5-2 4.5 2 4.5 2" fill="none" stroke="#17191e" stroke-linecap="round" stroke-linejoin="round"/><path d="m12 2c-5.54 0-10 4.46-10 10 0 .084.004.167.006.25a9.976 9.976 0 0 1 9.994-9.75 9.976 9.976 0 0 1 9.994 9.75c.002-.083.006-.166.006-.25 0-5.54-4.46-10-10-10z" fill="#f4f4f7" opacity=".2"/><path d="m16.76 11.03c.631-.627-.111-1.02-.743-1.646-.63-.627-.912-1.25-1.543-.624a1.597 1.597 0 0 0 0 2.27 1.625 1.625 0 0 0 2.286 0z" opacity=".1"/><path d="m16.76 10.53c.631-.627-.111-1.02-.743-1.646-.63-.627-.912-1.25-1.543-.624a1.597 1.597 0 0 0 0 2.27 1.625 1.625 0 0 0 2.286 0z" fill="#17191e"/></svg>