<svg height="24" width="24" xmlns="http://www.w3.org/2000/svg">
    <path d="M12 2.5c-5.54 0-10 4.46-10 10s4.46 10 10 10 10-4.46 10-10-4.46-10-10-10z" opacity=".2"/>
    <path d="M12 2C6.46 2 2 6.46 2 12s4.46 10 10 10 10-4.46 10-10S17.54 2 12 2z" fill="#70af3b"/>
    <path d="M12 2C6.46 2 2 6.46 2 12v.25A9.98 9.98 0 0 1 12 2.5a9.98 9.98 0 0 1 10 9.75V12c0-5.54-4.46-10-10-10z" fill="#f4f4f7" opacity=".2"/>
    <path d="M16.523 18.5a.5.5 0 0 1-.42-.206s-1.32-1.8-4.099-1.8c-2.777 0-4.1 1.8-4.1 1.8a.5.5 0 1 1-.8-.6s1.678-2.2 4.9-2.2c3.223 0 4.9 2.2 4.9 2.2a.5.5 0 0 1-.381.806z" opacity=".1"/>
    <path d="M7.504 17.494s1.5-2 4.5-2 4.5 2 4.5 2" fill="none" stroke="#17191e" stroke-linecap="round" stroke-linejoin="round"/>
    <path d="M8.5 8.512a1.5 1.5 0 0 0-1.5 1.5c0 .828.672 0 1.5 0s1.5.828 1.5 0a1.5 1.5 0 0 0-1.5-1.5zm7 0a1.5 1.5 0 0 0-1.5 1.5c0 .828.672 0 1.5 0s1.5.828 1.5 0a1.5 1.5 0 0 0-1.5-1.5z" opacity=".1"/>
    <path d="M10 9.512c0 .828-.672 0-1.5 0s-1.5.828-1.5 0a1.5 1.5 0 0 1 3 0zm7 0c0 .828-.672 0-1.5 0s-1.5.828-1.5 0a1.5 1.5 0 0 1 3 0z" fill="#17191e"/>
</svg>
