<svg height="24" width="24" xmlns="http://www.w3.org/2000/svg"><path d="m12 2.5c-5.54 0-10 4.46-10 10s4.46 10 10 10 10-4.46 10-10-4.46-10-10-10z" opacity=".2"/><path d="m12 2c-5.54 0-10 4.46-10 10s4.46 10 10 10 10-4.46 10-10-4.46-10-10-10z" fill="#ffa50c"/><circle cx="8.5" cy="10" opacity=".1" r="1.5"/><path d="m12 2c-5.54 0-10 4.46-10 10v.25a9.98 9.98 0 0 1 10-9.75 9.98 9.98 0 0 1 10 9.75v-.25c0-5.54-4.46-10-10-10z" fill="#f4f4f7" opacity=".2"/><circle cx="8.5" cy="9.5" fill="#17191e" r="1.5"/><path d="m33.037 29.988a1 1 0 0 0 -.838.412s-2.643 3.6-8.199 3.6-8.2-3.6-8.2-3.6a1 1 0 1 0 -1.6 1.2s3.355 4.4 9.8 4.4" opacity=".1" transform="matrix(.5 0 0 .5 .004 .5)"/><path d="m15 30s3 4 9 4 9-4 9-4" fill="none" stroke="#17191e" stroke-linecap="round" stroke-linejoin="round" stroke-width="2" transform="matrix(.5 0 0 .5 .004 .5)"/><path d="m15.5 9.5a1.5 1.5 0 0 0 -1.5 1.5c0 .828.672 0 1.5 0s1.5.828 1.5 0a1.5 1.5 0 0 0 -1.5-1.5z" opacity=".1"/><path d="m17 10.5c0 .828-.672 0-1.5 0s-1.5.828-1.5 0a1.5 1.5 0 0 1 3 0z" fill="#17191e"/></svg>