<svg xmlns="http://www.w3.org/2000/svg" width="24" height="24" version="1"><path style="opacity:.2" d="M12 2.5c-5.54 0-10 4.46-10 10s4.46 10 10 10 10-4.46 10-10-4.46-10-10-10z"/><path style="fill:#ffa50c" d="M12 2C6.46 2 2 6.46 2 12s4.46 10 10 10 10-4.46 10-10S17.54 2 12 2z"/><circle style="opacity:.1" cx="8.5" cy="10" r="1.5"/><path style="opacity:.2;fill:#f4f4f7" d="M12 2C6.46 2 2 6.46 2 12v.25A9.98 9.98 0 0 1 12 2.5a9.98 9.98 0 0 1 10 9.75V12c0-5.54-4.46-10-10-10z"/><circle style="fill:#17191e" cx="8.5" cy="9.5" r="1.5"/><path style="opacity:.1" d="M33.037 29.988a1 1 0 0 0-.838.412S29.556 34 24 34s-8.2-3.6-8.2-3.6a1 1 0 1 0-1.6 1.2S17.555 36 24 36c6.444 0 9.8-4.4 9.8-4.4a1 1 0 0 0-.763-1.612z" transform="matrix(.5 0 0 .5 .004 .5)"/><path style="fill:none;stroke:#17191e;stroke-width:2;stroke-linecap:round;stroke-linejoin:round" d="M15 30s3 4 9 4 9-4 9-4v0" transform="matrix(.5 0 0 .5 .004 .5)"/><path style="opacity:.1" d="M15.5 9.5A1.5 1.5 0 0 0 14 11c0 .828.672 0 1.5 0s1.5.828 1.5 0a1.5 1.5 0 0 0-1.5-1.5z"/><path style="fill:#17191e" d="M17 10.5c0 .828-.672 0-1.5 0s-1.5.828-1.5 0a1.5 1.5 0 0 1 3 0z"/></svg>