<svg height="24" width="24" xmlns="http://www.w3.org/2000/svg"><path d="m12 2.5c-5.54 0-10 4.46-10 10s4.46 10 10 10 10-4.46 10-10-4.46-10-10-10z" opacity=".2"/><path d="m12 2c-5.54 0-10 4.46-10 10s4.46 10 10 10 10-4.46 10-10-4.46-10-10-10z" fill="#ffa50c"/><rect height="1" opacity=".1" rx=".5" width="8" x="8" y="16.5"/><path d="m12 2c-5.54 0-10 4.46-10 10v.25a9.98 9.98 0 0 1 10-9.75 9.98 9.98 0 0 1 10 9.75v-.25c0-5.54-4.46-10-10-10z" fill="#f4f4f7" opacity=".2"/><rect fill="#17191e" height="1" rx=".5" width="8" x="8" y="16"/><circle cx="8.5" cy="10" opacity=".1" r="1.5"/><circle cx="15.5" cy="10" opacity=".1" r="1.5"/><g fill="#17191e"><circle cx="8.5" cy="9.5" r="1.5"/><circle cx="15.5" cy="9.5" r="1.5"/></g></svg>