<svg xmlns="http://www.w3.org/2000/svg" width="16" height="16"><rect style="fill:#70c74d" width="16" height="16" rx="1.2" ry="1.2"/><path style="fill:#f4f4f7" d="M9.5 9C8.677 9 8 9 8 10.5c0 .384.259.733.5 1-.241.267-.5.616-.5 1C8 14 8.677 14 9.5 14s1.5 0 1.5-1.5c0-.384-.259-.733-.5-1 .241-.267.5-.616.5-1C11 9 10.323 9 9.5 9zm0 1c.282 0 .5.218.5.5 0 .282-.218.5-.5.5a.493.493 0 0 1-.5-.5c0-.282.218-.5.5-.5zm0 2c.282 0 .5.218.5.5 0 .282-.218.5-.5.5a.493.493 0 0 1-.5-.5c0-.282.218-.5.5-.5z"/><path style="fill:#f4f4f7;fill-rule:evenodd" d="M5 9v2h1V9h1v2h.5v1H7v2H6v-2H4V9h1M5.5 3s-.354-.007-.724.178C4.407 3.362 4 3.833 4 4.5h1c0-.5.5-.5.5-.5s.5 0 .5.5a.82.82 0 0 1-.203.578c-.133.167-.347.334-.597.522-.25.187-.536.395-.778.697A1.924 1.924 0 0 0 4 7.5V8h3V7H5.176c.015-.022.01-.056.027-.078.133-.167.347-.334.597-.522.25-.187.536-.395.778-.697C6.82 5.401 7 4.986 7 4.5c0-.667-.407-1.138-.776-1.322C5.854 2.993 5.5 3 5.5 3z"/><path style="fill:#f4f4f7" d="M9.75 3C8.79 3 8 3.79 8 4.75v1.5C8 7.21 8.79 8 9.75 8s1.75-.79 1.75-1.75v-1.5c0-.96-.79-1.75-1.75-1.75zm0 1c.424 0 .75.326.75.75v1.5c0 .424-.326.75-.75.75A.738.738 0 0 1 9 6.25v-1.5c0-.424.326-.75.75-.75z"/></svg>