<svg xmlns="http://www.w3.org/2000/svg" width="16" height="16" version="1"><path style="fill:#3d3b67" d="M8.062 16v-.002A7.981 7.981 0 0 0 16 8c0-4.432-3.568-8-8-8A7.98 7.98 0 0 0 .015 7.524L0 7.538V14.4c0 .886.714 1.6 1.6 1.6h6.462z"/><path style="fill:#f4f4f7" d="M9.282 7h2.364L10.8 9.6z"/><path style="fill:#3a88d6" d="m11.646 7 .754 1.6-1.236-.193z"/><path style="fill:#f4f4f7" d="m7 8.8 3.8.8-3.2 2.2z"/><path style="fill:#3a88d6" d="m7 8.8.8 4-2.2 1.6z"/><path style="fill:#0365db" d="m3.8 3.6 4 .8 3 5.2L7 8.8z"/></svg>