<svg xmlns="http://www.w3.org/2000/svg" width="16" height="16" version="1"><rect style="fill:#32a980" width="16" height="16" rx=".8" ry=".8"/><path style="fill:#f4f4f7" d="M7.964 14c.208-.409.54-.489.826-.911.257-.379.118-.725-.346-.973-.165-.129-.417-.044-.62-.078-1.028-.033-2.167.018-3-.637-.843-.686-.92-2.09-.751-3.048.357-1.646 1.62-3.268 2.972-4.329.19-.158.801-1.059.212-1.01C6.364 2.975 4 2.986 4 2.986V2h7v.987C9.472 3.879 7.612 5.33 6.777 6.84c-.398.716-.573 1.785-.215 2.542.238.445.926.632 1.438.616.614.063 1.27-.045 1.852.176.805.32 1.225 1.168 1.136 1.946-.034.724-.44 1.334-.94 1.879z"/></svg>