<svg xmlns="http://www.w3.org/2000/svg" width="16" height="16" version="1"><circle style="fill:#388ebb" cx="8" cy="8" r="8"/><path style="fill:#f4f4f7" d="M3.877 5c-.284 0-.502.086-.652.257-.15.167-.226.403-.226.709v1.176c0 .185-.032.326-.097.425-.065.1-.233.172-.343.217-.105.04-.225.063-.359.067v.284c.134.009.254.034.36.074.11.04.277.113.342.217.065.1.097.24.097.425v1.176c0 .298.076.534.226.71.15.175.368.263.652.263H4.2v-.29h-.183c-.179 0-.307-.061-.384-.183-.077-.122-.116-.298-.116-.527V8.83a.878.878 0 0 0-.165-.547c-.11-.149-.28-.246-.511-.29v-.007c.223-.04.391-.133.505-.277a.885.885 0 0 0 .171-.555V6c0-.234.039-.41.116-.527.077-.122.205-.183.384-.183H4.2V5zM11.8 5v.29h.183c.179 0 .307.061.384.183.077.117.116.293.116.527v1.155c0 .221.057.406.17.555.115.144.283.236.506.277v.006c-.231.045-.402.142-.511.29a.878.878 0 0 0-.165.548V10c0 .23-.039.405-.116.527-.077.122-.205.183-.384.183H11.8V11h.323c.284 0 .502-.088.652-.264.15-.175.226-.411.226-.709V8.851c0-.184.032-.326.097-.425.065-.104.233-.176.343-.217a1.23 1.23 0 0 1 .359-.074V7.85a1.102 1.102 0 0 1-.36-.067c-.11-.045-.277-.118-.342-.217s-.097-.24-.097-.425V5.966c0-.306-.076-.542-.226-.709-.15-.171-.368-.257-.652-.257zM8.234 5.6c-.577 0-1.062.102-1.453.307a2.06 2.06 0 0 0-.887.844c-.196.357-.294.772-.294 1.243 0 .484.093.907.278 1.268.19.358.477.637.858.837.386.2.87.301 1.452.301.326 0 .622-.024.888-.072.266-.052.673-.129.924-.229V8.762c.017-.35.211-.474.4-.47v-.276H8.8l.015.275c.29.013.385.347.385.445v1.212c-.105.027-.335.047-.47.06a4.38 4.38 0 0 1-.421.02c-.688 0-1.172-.175-1.453-.524-.28-.353-.456-.856-.456-1.51s.17-1.158.441-1.511c.271-.358.725-.536 1.362-.536.246 0 .441.043.587.13.145.083.248.19.308.32a.845.845 0 0 1 .098.393l.004-.001V6.8h.4V5.6h-.4v.107a3.693 3.693 0 0 0-.966-.107z"/></svg>