<svg xmlns="http://www.w3.org/2000/svg" width="16" height="16"><path style="fill:#fad83b" d="M7.986 0c-.416 0-.83.112-1.198.337l-1.202.722-1.307.776-2.077 1.247A2.51 2.51 0 0 0 1 5.25v5.503c0 .886.453 1.718 1.202 2.166l4.596 2.746a2.314 2.314 0 0 0 2.404 0l4.596-2.746A2.51 2.51 0 0 0 15 10.752V5.249a2.566 2.566 0 0 0-1.212-2.167L9.19.337A2.342 2.342 0 0 0 7.986 0z"/><path style="fill:#17191e" d="m6 .809-.414.25-1.307.777L4 2.004V8.452c0 .966.488 1.85 1.295 2.333l1.41.85c.398.247.852.365 1.295.365.443 0 .897-.13 1.295-.365l1.408-.85C11.51 10.302 12 9.406 12 8.451v-.685c0-.967-.49-1.853-1.297-2.336l-1.408-.85A2.454 2.454 0 0 0 8 4.215V6a2 2 0 0 1 2 2 2 2 0 0 1-2 2 2 2 0 0 1-2-2 2 2 0 0 1 .018-.256C6.012 7.696 6 7.658 6 7.602V.808zm1.4 3.47c-.129.036-.27.07-.4.13V6.27a2 2 0 0 1 .4-.177V4.279zm-.69.498c-.128.036-.27.172-.4.23v1.927a2 2 0 0 1 .4-.461V4.777z"/></svg>