<svg xmlns="http://www.w3.org/2000/svg" width="16" height="16" version="1">
    <path style="fill:#aee5ff" d="M13.443 6.557a5.389 5.389 0 0 1-.648 1.94l-.533.944a2 2 0 0 1 .496.57 2 2 0 0 1-.733 2.733 2 2 0 0 1-2.662-.623l-.008-.004-.06-.105-1.084-1.877-1.705.023-.895 1.477 1.034 1.783c1.41 2.443 4.49 3.304 6.88 1.924 2.391-1.38 3.188-4.481 1.778-6.924a5.145 5.145 0 0 0-1.86-1.861z"/>
    <path style="fill:#64cefe" d="M8.559 1.021A5.123 5.123 0 0 0 3.64 3.59a4.885 4.885 0 0 0-.63 2.314 5.666 5.666 0 0 1 2.096-.402h.987c.036-.212.109-.316.215-.505.53-.936 1.738-1.278 2.7-.764.92.492 1.288 1.492.845 2.415v.01l-.057.104-1.04 1.84.9 1.398 1.716-.002.986-1.748c1.351-2.393.496-5.376-1.912-6.662A4.964 4.964 0 0 0 8.56 1.02z"/>
    <path style="fill:#2279ca" d="m7.168 6-2.06.002C2.286 6.002 0 8.239 0 11c0 2.76 2.287 5 5.107 5 .93 0 1.794-.255 2.545-.68a5.67 5.67 0 0 1-1.441-1.652l-.47-.813A2 2 0 0 1 5 13a2 2 0 0 1-2-2 2 2 0 0 1 1.871-1.994L4.88 9h2.289L8 7.512 7.168 6z"/>
</svg>
