<svg height="16" width="16" xmlns="http://www.w3.org/2000/svg">
    <path d="M8.042 0a1.776 1.82 0 0 0-.93.243l-5.224 3.09A1.776 1.82 0 0 0 1 4.91v6.182a1.776 1.82 0 0 0 .888 1.575l5.224 3.09a1.776 1.82 0 0 0 1.776 0l5.224-3.09A1.776 1.82 0 0 0 15 11.09V4.909a1.776 1.82 0 0 0-.888-1.575L8.888.243A1.776 1.82 0 0 0 8.042 0z" fill="#4f4f4f"/>
    <g fill="#32a5e8">
        <path d="m10 3.512-1.333.77v5.897H10z"/>
        <path d="M9.215 6.013 8 6.715 6 7.869v1.54l2.667-1.54.95-.548zm.118 3.011L6 10.948v1.54l4-2.31z"/>
        <path d="M6 8.012h1.333v3.7H6z"/>
    </g>
</svg>
