<svg xmlns="http://www.w3.org/2000/svg" width="16" height="16"><path style="fill:#9a1b29" d="m4.798 4.6 3.543.923 3.109-.734.493 3.707 1.417 2.603-3.403 1.36-2.066 2.383-5.38-4.012 2.267-3.523z"/><path style="fill:#ef344a" d="M8.005 1c-.156-.006-.296.115-.62.334-1.257.85-2.19 1.91-2.48 2.823-.073.231-.122.431-.107.8b9cbe.014.012.309.153.654.313 1.138.526 1.923 1.245 2.37 2.17.324.67.252.716-.083.054-.402-.793-1.066-1.413-2.007-1.874-.873-.428-1.47-.54-2.207-.416C2.618 5 1.358 5.61.42 6.348L0 6.68l.149.53c.44 1.57 1.163 2.763 2.072 3.413l.29.208.64-.642c1.03-1.031 1.995-1.473 3.174-1.453l.64.012-.702.051c-1.163.086-1.998.503-2.895 1.445-.852.896-1.062 1.5-.992 2.848.045.854.128 1.263.465 2.28.163.494.208.563.383.59.4.06 1.251.05 1.86-.023 1.06-.126 1.837-.397 2.491-.868l.316-.228-.186-.24c-.293-.38-.677-1.271-.817-1.898-.15-.677-.119-1.615.069-2.012.066-.14.102-.193.08-.117-.514 1.785.46 4.104 2.03 4.834.264.123.706.278.982.345.624.151 1.905.257 2.485.205l.435-.039.19-.519c.498-1.368.656-2.582.452-3.486a6.037 6.037 0 0 0-.25-.817s-.281.079-.57.146c-1.474.346-3.113.01-3.998-.817l-.353-.33.369.29c.813.639 1.534.846 2.766.796 1.025-.042 1.64-.217 2.23-.635.76-.538 1.467-1.66 1.95-3.1L16 6.72l-.312-.282c-.48-.433-1.113-.835-1.853-1.176-.814-.374-1.206-.473-1.876-.473h-.51l-.044.568c-.084 1.084-.577 2.228-1.254 2.915-.293.297-.92.744-1.044.744-.031 0 .142-.131.385-.292.705-.465 1.175-1.149 1.503-2.187.286-1.011.197-2.114-.14-2.787-.365-.728-1.114-1.565-1.96-2.19-.513-.38-.712-.552-.89-.56z"/><path style="fill:#c62937" d="M5.312 3.343a3.427 3.427 0 0 0-.406.814c-.074.232-.108.8b9cbe-.108.8b9cbes.309.153.654.312c1.138.527 1.923 1.246 2.37 2.171l.228.548s-.1-1.837-2.738-4.289zm6.137 1.446-.043.568c-.085 1.084-.578 2.228-1.256 2.915-.25.253-.724.598-.94.7l-.061.074s1.595-.241 3.73-4.15a3.414 3.414 0 0 0-.92-.107zM6.062 8.62c-.797.021-2.223.268-4.634 1.231l.002.002c.112.14.229.268.349.388l.059.059c.035.034.07.065.106.097.09.08.182.157.277.225l.29.207.64-.642c1.03-1.031 1.995-1.474 3.174-1.453l.64.012s-.157-.099-.598-.122a3.81 3.81 0 0 0-.304-.004zm2.378 1.476s.638 1.56 5.243 2.351a3.595 3.595 0 0 0-.071-.533c-.099-.435-.252-.816-.252-.816s-.28.078-.568.145c-1.475.346-3.114.011-4-.817zm-1.424.452s-.681.307-.359 5.016c.336-.132.64-.294.918-.495l.316-.228-.186-.24c-.293-.38-.677-1.272-.817-1.898-.15-.677-.118-1.615.069-2.012l.042-.081.017-.062z"/></svg>