<svg xmlns="http://www.w3.org/2000/svg" height="16" width="16"><circle cx="8" cy="8" r="8" style="fill:#f4f4f7"/><path style="fill:#17191e" d="M5.979 3a.5.5 0 0 0-.438.299l-3.5 8A.5.5 0 0 0 2.5 12h11a.5.5 0 0 0 .46-.691l-2.5-6A.5.5 0 0 0 10.989 5a.5.5 0 0 0-.445.297L8.926 8.936 6.459 3.299A.5.5 0 0 0 5.979 3zM6 4.75 6.984 7H6L5 8l-.293-.293L6 4.75zm4.986 2.014.662 1.588L11 9l-.697-.697.683-1.54zM6 8h1.422l1.312 3H3.266l1.136-2.598L5 9l1-1zm4 .982V9l1 1 .941-.941L12.75 11H9.828l-.36-.822L10 8.982z"/></svg>