<svg height="16" width="16" xmlns="http://www.w3.org/2000/svg"><path d="m2.57 2a.535.535 0 0 0 -.386.164l-2.037 2.122a.529.529 0 0 0 -.147.366l1.568 4.038c.192.496-.822 3.963-.517 4.115.305.151 1.616-.68 1.616-.68l9.904.375c.146 0 .662-.27.762-.375l2.52-.411a.529.529 0 0 0 .147-.366v-8.11c0-.53-.346-.942-.65-1.094-.306-.151-.594-.144-.594-.144z" fill="#4cdb5d"/><path d="m.04 4.504a.527.527 0 0 0 -.024.149v8.109c0 .53.345.942.65 1.094s.594.144.594.144h12.186c.146 0 .285-.06.386-.165l2.037-2.122a.526.526 0 0 0 .115-.192z" fill="#31ae3e"/><path d="m7.222 5-1.722 7h1.077l.382-2h2.082l.382 2h1.077l-1.722-7zm.778 1.042.753 2.958h-1.506z" fill="#f4f4f7"/></svg>