<svg height="16" width="16" xmlns="http://www.w3.org/2000/svg">
    <rect fill="#7c30b0" height="16" rx="8" width="16"/>
    <path d="m8.2 1.4-.124.264-.275.041L8 1.91l-.047.29.246-.138.248.137L8.4 1.91l.2-.205-.276-.04zM6.233 3.5a.898.898 0 0 0-.289.031c-.345.119-.561.374-.681.8-.104.37-.1 1.037.007 1.618l.043.207c.006.021-.032.035-.195.073-.798.182-1.38.453-1.73.806a1.048 1.048 0 0 0-.295.469c-.036.12-.036.358 0 .476.098.327.373.633.808.905.303.187.395.209.493.111.045-.046.056-.068.056-.123 0-.107-.033-.15-.176-.232-.892-.503-1.049-1.006-.453-1.454.303-.226.724-.407 1.293-.546.25-.061.307-.068.307-.036 0 .045.184.632.28.885l.097.266-.13.248c-.515.996-.846 2.013-.886 2.756-.032.572.07.98.322 1.234.276.276.665.336 1.165.176.188-.06.56-.25.779-.399.157-.105.192-.136.213-.19.02-.056.02-.074 0-.132a.187.187 0 0 0-.186-.133c-.058 0-.098.017-.246.118-.337.228-.652.371-.914.416-.363.062-.596-.097-.703-.477-.046-.165-.043-.694.008-.967a6.75 6.75 0 0 1 .404-1.36c.114-.28.332-.751.361-.782.015-.017.035.01.084.123.25.56.63 1.244 1.002 1.797.889 1.318 1.86 2.175 2.61 2.298l-.008.002c.329.054.607-.029.822-.244.175-.178.29-.427.356-.775.04-.218.04-.83 0-1.127-.122-.888-.445-1.906-.93-2.92-.076-.159-.119-.197-.217-.197a.19.19 0 0 0-.197.19c0 .036.037.137.1.269.597 1.273.917 2.505.884 3.396-.02.531-.154.85-.404.973-.132.065-.298.065-.518-.006-1.007-.34-2.37-2.048-3.25-4.064l-.088-.202.13-.216c.143-.248.506-.8.673-1.028l.113-.152h.297c1.802 0 3.586.409 4.532 1.033.192.128.424.36.494.496.05.095.056.12.056.246 0 .124-.005.153-.047.229-.115.222-.421.454-.814.619-.182.077-.23.127-.23.232 0 .09.057.163.144.19.057.016.077.012.178-.028.635-.25 1.07-.64 1.158-1.035a1.128 1.128 0 0 0-.002-.41c-.047-.203-.216-.464-.41-.639-.866-.777-2.703-1.278-4.883-1.33l-.156-.005.181-.204c.098-.114.273-.304.393-.425.62-.63 1.197-1.043 1.7-1.215a.789.789 0 0 1 .357-.063c.154 0 .193.005.26.04.09.042.192.148.244.247.102.203.136.558.088.938-.017.13-.032.282-.032.334 0 .088.004.101.055.144.041.04.07.05.123.05.086 0 .166-.048.19-.11.07-.184.108-.833.062-1.108-.071-.42-.253-.706-.541-.843-.509-.246-1.246-.008-2.107.683-.451.362-1.044.977-1.454 1.502l-.04.047-.24.014c-.204.012-.535.044-.919.09l-.084.01-.035-.204a3.614 3.614 0 0 1-.076-.851c0-.34.004-.405.037-.541.08-.344.24-.56.45-.604.287-.06.645.083 1.146.455.16.12.354.018.33-.172-.01-.082-.087-.153-.342-.324a2.52 2.52 0 0 0-.649-.32 1.326 1.326 0 0 0-.328-.049zM3.8 3.8l-.125.263-.276.042.2.206-.047.289.248-.137.246.137L4 4.31l.2-.205-.276-.043-.123-.261zM13 5l-.123.264-.277.04.2.208-.046.289.246-.137.246.137-.047-.29.201-.206-.277-.041zM6.615 6.42c0 .008-.067.112-.152.236a10.6 10.6 0 0 0-.268.407v.001c-.06.1-.119.19-.13.204-.017.017-.041-.031-.114-.262-.103-.319-.148-.491-.135-.506.022-.022.8-.102.8-.08zm1.58 1.143a.57.57 0 1 0-.002 1.142.57.57 0 0 0 .002-1.143zM2.7 10l-.154.328-.346.055.25.256-.058.361.308-.172.31.172-.06-.361.25-.256-.344-.055zm10.3.2-.246.527-.555.084.4.41-.093.58.494-.274.494.274-.094-.58.4-.41-.554-.084-.246-.528zM7.8 13l-.124.264-.276.04.2.208-.047.289.248-.137.246.137L8 13.51l.2-.206-.276-.041z" fill="#f4f4f7"/>
</svg>
