<svg xmlns="http://www.w3.org/2000/svg" width="16" height="16">
    <path style="fill:#fff55d" d="M16 8a8 8 0 0 1-13.78 5.532C.846 12.095 1.066 10.666 1.066 8.52c0-4.418 2.467-7.282 6.885-7.282C12.37 1.238 16 3.582 16 8z"/>
    <path style="fill:#4098fe" d="M16 8H8V0a8 8 0 0 1 8 8z"/>
    <path style="fill:#24db65" d="M8 0a8 8 0 0 0-8 8 8 8 0 0 0 2.347 5.653L8 8z"/>
    <path style="fill:#25a068" d="m8 6.8-5.653 5.653A8 8 0 0 1 .029 7.365 8 8 0 0 0 0 8a8 8 0 0 0 2.347 5.653L8 8z"/>
    <path style="fill:#2379e0" d="M8 6v2h8c0-.692-.097-1.36-.262-2H8z"/>
</svg>
