<svg xmlns="http://www.w3.org/2000/svg" width="16" height="16" version="1">
    <rect style="fill:#5838cf" width="16" height="16" rx=".8" ry=".8"/>
    <path style="fill:#1f8ce5" d="M14.4 8c-1.6 0-2 2-3.2 2-1.2 0-2.4-1-3.6-1-1.2 0-2 1.4-3.2 1.4-1.2 0-1.6-2-2.8-2-.468 0-1.055.182-1.6.405V13h16V8.451C15.51 8.198 14.958 8 14.4 8z"/>
    <path style="fill:#61aeec" d="M14.4 10c-1.6 0-2 2-3.2 2-1.2 0-2.4-1-3.6-1-1.2 0-2 1.4-3.2 1.4-1.2 0-1.6-2-2.8-2-.468 0-1.055.182-1.6.405V15h16v-4.549c-.49-.253-1.042-.451-1.6-.451z"/>
    <path style="fill:#d54b3e" d="M5 11h9.6c0 .4-2.414 3.2-3.6 3.2H7.51C5 14.2 5 12.2 5 11z"/>
    <path style="fill:#d54b3e" d="M11.6 5h.4v6.2h-.4z"/>
    <path style="fill:#d54b3e" transform="rotate(90)" d="M9.6-11.6h.4V-8h-.4z"/>
    <path style="fill:#fed7ea" d="M10.317 2s1.752 2.74 1.68 8H8.4c1.127-2.398 1.736-5.172 1.917-8z"/>
    <path style="fill:#a8d0f1" d="M14.4 12c-1.6 0-2 2-3.2 2-1.2 0-2.4-1-3.6-1-1.2 0-2 1.4-3.2 1.4-1.2 0-1.6-2-2.8-2-.468 0-1.055.183-1.6.405V15.2c0 .443.357.8.8.8h14.4c.443 0 .8-.357.8-.8v-2.748c-.49-.253-1.043-.452-1.6-.452z"/>
    <circle style="fill:#f4f4f7" cx="4" cy="4" r="2"/>
</svg>
