<svg width="16" height="16" xmlns="http://www.w3.org/2000/svg">
    <path style="fill:#4d4d4d" d="M4.4 3.2h7.2v4H4.4z"/>
    <path style="fill:#25257e" d="M5 7h6v8H5z"/>
    <path style="fill:#3455b3" d="M4 3h1v12H4z"/>
    <rect x="7.2" width="1.6" height="2.4" ry=".8" style="fill:#f6e036"/>
    <path style="fill:#3455b3" d="M11 3h1v12h-1zM4 3V1.4s.4 0 .4-.4h7.2c0 .4.4.4.4.4V3z"/>
    <rect x="3" y="2" width="10" height="2" ry=".4" style="fill:#01a7f1"/>
    <rect x="3" y="14" width="10" height="2" ry=".4" style="fill:#01a7f1"/>
    <path d="M6 5h4v1H6z" style="fill:#f6e036"/>
    <path d="M6 8h1v1H6z" style="fill:#f4f4f7"/>
    <path d="M9 8v1h1V8H9zm-3 2v1h1v-1H6zm3 0v1h1v-1H9zm-3 2v1h1v-1H6zm3 0v1h1v-1H9z" style="fill:#01a7f1"/>
</svg>
