<svg height="16" width="16" xmlns="http://www.w3.org/2000/svg"><circle cx="8" cy="8" fill="#3fafff" r="7"/><path d="m.5 7c-.527.001-.694.711-.223.947l3.723 2.053h-1.5a.5.5 0 0 0 -.277.916l4.5 3a.5.5 0 0 0 .277.084h2a.5.5 0 0 0 .277-.084l4.5-3a.5.5 0 0 0 -.277-.916h-1.5l3.723-2.053c.471-.236.304-.946-.223-.947z" fill="#6fbfff"/><path d="m6 3v2l-1 2h6l-1-4s0-1-2-1-2 1-2 1z" fill="#f0f0f0"/><path d="m6 3-2 1 .475 1 .525-.593 2 .593z" fill="#f2d12d"/><circle cx="7.5" cy="3.5" fill="#4f4f4f"/><path d="m5 7h-1l1 1h-2l4 6h2l4-6h-2l1-1h-1z" fill="#4f4f4f"/><path d="m6 7h4l-1 7h-2z" fill="#f4f4f7"/><g fill="#4f4f4f"><path d="m7 10 1 1 1-1-1-3z"/><circle cx="7.5" cy="3.5"/><path d="m8 3.5a.5.5 0 0 1 -.5.5.5.5 0 0 1 -.5-.5.5.5 0 0 1 .5-.5.5.5 0 0 1 .5.5z"/></g></svg>