<svg xmlns="http://www.w3.org/2000/svg" width="16" height="16">
    <circle style="fill:#17191e" cx="8" cy="8" r="8"/>
    <path style="opacity:.1;fill:#f4f4f7" d="M8 0a8 8 0 0 0-3 .59v14.812A8 8 0 0 0 8 16a8 8 0 0 0 8-8 8 8 0 0 0-8-8z"/>
    <path style="fill:#ffa119" d="M5.46 3a.45.494 0 0 0-.46.493v9.014a.45.494 0 0 0 .673.427l3.55-2.253 3.552-2.253a.45.494 0 0 0 0-.855L9.224 5.32l-3.55-2.254A.45.494 0 0 0 5.46 3z"/>
    <rect style="fill:#313131" width="1" height="1" x="6" y="5" rx=".25" ry=".25"/>
    <rect style="fill:#313131" width="1" height="1" x="6" y="8" rx=".25" ry=".25"/>
    <rect style="fill:#313131" width="1" height="1" x="6" y="11" rx=".25" ry=".25"/>
    <rect style="fill:#313131" width="1" height="1" x="6" y="2" rx=".25" ry=".25"/>
    <rect style="fill:#313131" width="1" height="1" x="6" y="13.58" rx=".25" ry=".25"/>
</svg>
