<svg xmlns="http://www.w3.org/2000/svg" width="16" height="16"><path style="fill:#fed909" d="M8.305.006A8 8 0 0 0 5.93.273 8 8 0 0 0 .273 10.07a8 8 0 0 0 9.797 5.657 8 8 0 0 0 5.657-9.797A8 8 0 0 0 8.305.006z"/><circle style="fill:#273f57" cx="5.657" cy="9.798" r="7" transform="rotate(-15)"/><path style="fill:#fed909" d="M7.741 11.033c-.253.068-.477.24-.608.467a1.013 1.013 0 0 0-.1.759c.068.253.24.477.467.608.227.13.506.167.759.1.253-.068.477-.24.608-.467.13-.227.167-.506.1-.759a1.013 1.013 0 0 0-.467-.608 1.013 1.013 0 0 0-.759-.1zM10.474 9.829c.8b9cbe.048.906-.141 1.196-.49.29-.348.4-.847.285-1.29a1.43 1.43 0 0 0-.874-.97 1.377 1.377 0 0 0-1.275.19c-.261.195-.447.477-.651.734-.102.13-.21.254-.336.359a1.14 1.14 0 0 1-.424.234 1.12 1.12 0 0 1-.482.015 2.353 2.353 0 0 1-.465-.138c-.303-.118-.6-.267-.922-.302a1.389 1.389 0 0 0-1.196.49c-.29.348-.4.847-.285 1.29.116.442.453.817.874.97.421.153.914.08 1.275-.19.261-.195.447-.477.651-.734.102-.13.21-.254.336-.359a1.14 1.14 0 0 1 .424-.234 1.12 1.12 0 0 1 .482-.015c.16.026.314.079.465.138.303.118.6.267.922.302zM10.038 6.536a1.81 1.81 0 0 0 1.538-.612 1.804 1.804 0 0 0 .366-1.612 1.807 1.807 0 0 0-1.124-1.214 1.812 1.812 0 0 0-1.639.238c-.336.244-.575.596-.837.918-.131.161-.27.317-.432.449a1.479 1.479 0 0 1-.546.292 1.48 1.48 0 0 1-.619.02 3.09 3.09 0 0 1-.598-.174c-.389-.148-.772-.333-1.185-.377a1.81 1.81 0 0 0-1.538.612 1.804 1.804 0 0 0-.366 1.612 1.807 1.807 0 0 0 1.124 1.214c.541.19 1.174.099 1.639-.238.336-.244.575-.596.837-.918.131-.161.27-.317.432-.449.16-.131.345-.238.546-.292.2-.053.413-.053.619-.02.205.034.404.1.598.174.389.148.772.333 1.185.377z"/></svg>