<svg xmlns="http://www.w3.org/2000/svg" width="16" height="16" version="1">
    <path style="fill:#546e7a" d="M8 0c-.307 0-.613.118-.848.353L5.689 2.016H3.26c-.684 0-1.207.552-1.235 1.236v2.43L.363 7.145c-.499.44-.47 1.227 0 1.697l1.663 1.465v2.429c0 .685.551 1.208 1.235 1.236h2.428l1.463 1.663c.439.5 1.226.47 1.696 0l1.463-1.663h2.428c.684 0 1.235-.551 1.235-1.236v-2.43l1.663-1.464c.499-.44.47-1.227 0-1.697L13.974 5.68V3.252c0-.684-.55-1.236-1.235-1.236h-2.428L8.848.353C8.628.103 8.307 0 8 0z"/>
    <path style="fill:#f4f4f7" d="M8 4a4 4 0 0 0-4 4 4 4 0 0 0 4 4z"/>
</svg>
