<svg xmlns="http://www.w3.org/2000/svg" width="16" height="16" version="1">
    <path style="fill:#f63" d="M8 0v15a.74.74 0 0 0 .132-.013l7.278-1.38a.718.718 0 0 0 .59-.701v-10.8a.718.718 0 0 0-.588-.702L8.134.014A.74.74 0 0 0 8 0z"/>
    <path style="fill:none;stroke:#fdfdfd" d="M12.5 2v1.947L10.02 6.5h2.48v2h1.8l-1.8 2.553V13"/>
    <path style="fill:#404041" d="M7.988 0a.727.714 0 0 0-.133.013L.588 1.403A.727.714 0 0 0 0 2.107v10.8a.727.714 0 0 0 .59.702l7.266 1.379A.727.714 0 0 0 8 15V0a.727.714 0 0 0-.012 0z"/>
</svg>
