<svg width="16" height="16" xmlns="http://www.w3.org/2000/svg">
    <path transform="rotate(90)" style="fill:#c29875" d="M11-14h2v12h-2z"/>
    <path transform="rotate(90)" style="fill:#885e3d" d="M9-14h2v12H9zm-4 0h2v12H5z"/>
    <path transform="rotate(90)" style="fill:#c29875" d="M3-14h2v12H3zm4 0h2v12H7z"/>
    <path style="fill:#c5c5c5" d="M12 2h2v12h-2zM2 2h2v12H2z"/>
    <path d="M1 0a1 1 0 1 0 0 2 1 1 0 1 0 1 1h12a1 1 0 1 0 1-1 1 1 0 1 0-1-1H2a1 1 0 0 0-1-1zm0 12a1 1 0 1 0 0 2 1 1 0 1 0 1 1h12a1 1 0 1 0 1-1 1 1 0 1 0-1-1H2a1 1 0 0 0-1-1z" style="fill:#f4f4f7"/>
</svg>
