<svg height="16" width="16" xmlns="http://www.w3.org/2000/svg"><path d="m1 0h14c.554 0 1 .446 1 1v9l-5 1-1 5h-9c-.554 0-1-.446-1-1v-14c0-.554.446-1 1-1z" fill="#4384f1"/><path d="m4.277 5.017c-.34.01-.62.04-.777.04v1c.488 0 1.175-.09 1.7.02.261.053.456.149.581.28.125.132.219.315.219.7 0 .406-.087.522-.18.646-.092.125-.209.193-.394.24-.255.066-.627.028-.977.01-.136-.005-.321-.036-.42-.031-.059.003-.111.007-.16.014a.877.877 0 0 0 -.076.013c-.03.007-.051-.004-.164.06a1.288 1.288 0 0 0 -.049.032l-.064.057-.078.107-.06.18.02.215.082.156.086.086s.048.032.067.043c.15.084.164.06.197.064.066.009.109.008.17.008.077 0 .295-.02.41-.012.15.007.267 0 .447.034.315.058.631.173.832.33.201.156.311.311.311.648 0 .363-.097.525-.262.668-.164.143-.439.252-.773.31-.669.117-1.477.022-1.965.022v1c.313 0 1.256.116 2.137-.037.44-.077.89-.22 1.258-.54.366-.318.605-.826.605-1.423a1.82 1.82 0 0 0 -.697-1.44c-.003-.002-.007-.001-.01-.003.108-.083.243-.096.33-.213.25-.337.377-.69.377-1.244 0-.576-.18-1.06-.492-1.39-.313-.329-.718-.489-1.106-.57a4.9 4.9 0 0 0 -1.125-.08zm5.717-.017-1.494.5v1l1.5-.5.006 5h-1.006v1h3v-1h-1v-6z" fill="#f4f4f7"/><circle cx="3" cy="2" opacity=".4" r="1"/><circle cx="13" cy="2" opacity=".4" r="1"/><path d="m11 10h5l-6 6v-5c0-.554.446-1 1-1z" fill="#9bcdff"/></svg>