<svg xmlns="http://www.w3.org/2000/svg" width="16" height="16" version="1"><path style="fill:#696853" d="M7.5 0c-.393 0-.786.146-1.08.44L.44 6.42a1.541 1.541 0 0 0 .001 2.158l5.98 5.981a1.542 1.542 0 0 0 2.158 0l5.98-5.98a1.542 1.542 0 0 0 0-2.158L8.58.44A1.522 1.522 0 0 0 7.5 0z"/><path style="fill:#3fa7e2" d="M7.5 2a.507.507 0 0 0-.36.147L5.147 4.14a.514.514 0 0 0 0 .72L7.14 6.852a.514.514 0 0 0 .72 0L9.853 4.86a.514.514 0 0 0 0-.72L7.86 2.147A.507.507 0 0 0 7.5 2z"/><path style="fill:#17191e" d="M7.5 8a.507.507 0 0 0-.36.147L5.147 10.14a.514.514 0 0 0 0 .72l1.993 1.993a.514.514 0 0 0 .72 0l1.993-1.993a.514.514 0 0 0 0-.72L7.86 8.147A.507.507 0 0 0 7.5 8z"/><path style="fill:#f1ca42" d="M13 7.5a.507.507 0 0 0-.147-.36L10.86 5.147a.514.514 0 0 0-.72 0L8.148 7.14a.514.514 0 0 0 0 .72l1.993 1.993a.514.514 0 0 0 .72 0l1.993-1.993A.507.507 0 0 0 13 7.5z"/><path style="fill:#ea72bb" d="M7 7.5a.507.507 0 0 0-.147-.36L4.86 5.147a.514.514 0 0 0-.72 0L2.148 7.14a.514.514 0 0 0 0 .72L4.14 9.853a.514.514 0 0 0 .72 0L6.853 7.86A.507.507 0 0 0 7 7.5z"/></svg>