<svg height="16" width="16" xmlns="http://www.w3.org/2000/svg"><ellipse cx="7.5" cy="13.75" fill="#4f4f4f" rx="6.5" ry="2.25"/><ellipse cx="7.5" cy="12.7" fill="#17191e" rx="4.5" ry="1.3"/><path d="m1.5 2.5 5.841-.968 6.159.968-2.093 2.113.593 1.387-1 2-1.25 5h-4.5l-1.25-5-1.324-2 1.01-1.36-1.686-1.052z" fill="#008bad"/><path d="m11.5 8.376c0 .62-1.929 1.125-4 1.125s-4-.504-4-1.125c0-.622 1.929-.826 4-.826s4 .204 4 .826zm1-2.326c0 .828-2.1 1.5-5 1.5s-5-.672-5-1.5 2.1-1.5 5-1.5 5 .672 5 1.5zm1-3c0 .828-2.272 1.5-6 1.5s-6-.672-6-1.5 2.272-1.5 6-1.5 6 .672 6 1.5z" fill="none" stroke="#61fff7" stroke-linecap="square" stroke-linejoin="bevel"/></svg>