<svg height="16" width="16" xmlns="http://www.w3.org/2000/svg"><path d="m2.845 0s-.784.054-1.2.471l-1.12 1.12c-.529.403-.525 1.21-.525 1.254v10.31c0 .045-.003.85.524 1.254l1.12 1.12c.417.417 1.2.471 1.2.471h10.311s.784-.054 1.2-.471l1.12-1.12c.528-.403.525-1.21.525-1.254v-10.31c0-.045.003-.85-.524-1.254l-1.12-1.12c-.417-.417-1.2-.471-1.2-.471h-5.156z" fill="#17191e"/><path d="m0 4.2v7.8h6v4h7.156s.783-.054 1.2-.47l1.12-1.122" fill="#e53935"/><path d="m.164 2.098c-.15.357-.164.716-.164.746v2.355l.998.6 2.002 1.201v2h2.666l3.334 2v2h2.666l3.262 1.957.549-.549c.527-.403.523-1.207.523-1.252v-.756l-2.334-1.4h-2.666v-2l-3.334-2h-2.666v-2l-3.334-2-.969-.582z" fill="#f4f4f7"/><path d="m11 9-2 2v2l2-2z" fill="#c6c8cb"/><path d="m11.667 13 2-2h-2.667l-2 2z" fill="#b3b6bb"/><path d="m7.666 7-.312.314-1.374 1.372-.314.314 3.334 2 2-2z" fill="#dadbdd"/><path d="m5 5-2 2v2l2-2z" fill="#c6c8cb"/><path d="m5.667 9 2-2h-2.667l-2 2z" fill="#b3b6bb"/><path d="m13.666 11-.312.314-1.374 1.372-.314.314 3.262 1.957.549-.549c.527-.403.523-1.207.523-1.252v-.756zm-13.502-8.902c-.15.357-.164.716-.164.746v2.355l.998.6 2.002 1.201 2-2-3.334-2-.969-.582z" fill="#dadbdd"/></svg>