<svg xmlns="http://www.w3.org/2000/svg" width="16" height="16" version="1">
    <rect style="fill:#f4f4f7" width="16" height="16" rx=".8" ry=".8"/>
    <path style="fill:#7d7d7d" d="M5.05 5C3.358 5 2 6.326 2 7.988 2 9.682 3.372 11 5.152 11c.87 0 1.625-.306 2.198-.895.533-.556.83-1.278.83-2.023V8H4.5v1h2.293c-.314.643-.942.965-1.703.965-1.137 0-2.008-.855-2.008-1.961 0-.502.212-1.051.541-1.397.337-.368.847-.572 1.404-.572.61 0 1.121.22 1.48.631h1.317C7.396 5.695 6.257 5 5.051 5zM9 5v6h1V8.719c0-.447.124-.698.238-.9.155-.277.44-.432.8-.432.635 0 .996.375.962 1.316V11h1V8.459c0-.658-.08-1.023-.3-1.355-.302-.463-.824-.77-1.468-.77-.464 0-.906.184-1.232.477V5H9z"/>
</svg>
