<svg height="16" width="16" xmlns="http://www.w3.org/2000/svg">
    <rect fill="#dd2d2d" height="16" rx=".75" ry=".8" transform="matrix(0 -1 -1 0 0 0)" width="12" x="-14" y="-16"/>
    <rect height="2" opacity=".4" rx=".45" ry=".436" width="2" x="13" y="4"/>
    <path d="M6.215 5c-.194-.004-.228.259-.211.448.001 1.775-.003 3.55.001 5.324.017.212.234.297.358.165 1.319-.908 3.237-1.81 4.554-2.723.144-.125.089-.418-.072-.479C9.526 6.83 7.613 5.921 6.293 5.02A.174.174 0 0 0 6.215 5z" fill="#17191e"/>
    <rect height="2" opacity=".4" rx=".45" ry=".436" width="2" x="13" y="7"/>
    <rect height="2" opacity=".4" rx=".45" ry=".436" width="2" x="13" y="10"/>
    <rect height="2" opacity=".4" rx=".45" ry=".436" width="2" x="1" y="4"/>
    <rect height="2" opacity=".4" rx=".45" ry=".436" width="2" x="1" y="7"/>
    <rect height="2" opacity=".4" rx=".45" ry=".436" width="2" x="1" y="10"/>
</svg>
