<svg xmlns="http://www.w3.org/2000/svg" width="16" height="16"><circle style="fill:#ee873f" cx="8" cy="8" r="7"/><path style="fill:#d3201d;fill-rule:evenodd" d="M8.516 2.992a.5.5 0 0 0-.053.002.5.5 0 0 0-.416.295L5.85 8h2.804l-1.058 2.95-.766-.276.467 2.582.19-.158L9.3 11.562l-.764-.275L10.077 7H7.42l1.533-3.29a.5.5 0 0 0-.437-.718z"/><path style="fill:#4f4f4f;fill-rule:evenodd" d="M2.308 4.727A.317.317 0 0 0 2 5.055V6H.323C.145 6 0 6.192 0 6.372V9.69c0 .18.145.31.323.31H2v.945c0 .291.338.437.542.231L4.9 8.231a.33.33 0 0 0 0-.463L2.542 4.823a.321.321 0 0 0-.234-.096z"/><path style="fill:#f4f4f7;fill-rule:evenodd" d="M13.692 4.727a.317.317 0 0 1 .308.328V6h1.677c.178 0 .323.192.323.372V9.69c0 .18-.145.31-.323.31H14v.945a.316.316 0 0 1-.542.231L11.1 8.231a.33.33 0 0 1 0-.463l2.358-2.945a.321.321 0 0 1 .234-.096z"/></svg>