<svg height="16" width="16" xmlns="http://www.w3.org/2000/svg">
    <rect fill="#876e5b" height="16" rx=".8" width="16"/>
    <path d="M8 4.63v1.86m1.536 2.96 1.563 2.579M6.428 9.45l-1.527 2.58M2.8 12s.36-3.645 1.171-5.24C4.527 5.668 6.4 4 6.4 4m6.8 8s-.36-3.645-1.171-5.24C11.473 5.668 9.6 4 9.6 4" fill="none" opacity=".6" stroke="#f4f4f7" stroke-width=".8"/>
    <path d="M8 1c-1.102 0-2 .898-2 2s.898 2 2 2 2-.898 2-2-.898-2-2-2zm1.342 10a.342.41 0 0 0-.342.41v3.18a.342.41 0 0 0 .342.41h5.316a.342.41 0 0 0 .342-.41v-3.18a.342.41 0 0 0-.342-.41zm-8 0a.342.41 0 0 0-.342.41v3.18a.342.41 0 0 0 .342.41h5.316A.342.41 0 0 0 7 14.59v-3.18a.342.41 0 0 0-.342-.41zm4.06-5a.342.41 0 0 0-.342.41v3.18a.342.41 0 0 0 .342.41h5.317a.342.41 0 0 0 .341-.41V6.41a.342.41 0 0 0-.34-.41z" fill="#f4f4f7"/>
</svg>
