<svg height="16" width="16" xmlns="http://www.w3.org/2000/svg">
    <circle cx="8" cy="8" fill="#2876d8" r="8"/>
    <path d="M9.023 3c-.596-.018-1.243.162-2.024.51.828 0 1.25-.08 1.984.666.375.38.328.952-.031 1.317l-.003.008-4.801 5.458c-.188.19-.203.508-.015.683l.218.222c.188.19.485.175.672-.016L9.84 6.373a.91.91 0 0 0 .425.167c.297.032.359.153.578.375a.17.172 0 0 1 0 .238.15.153 0 0 0 0 .222l.515.54a.3.3 0 0 0 .438 0l1.11-1.127a.31.31 0 0 0 0-.444l-.548-.556a.15.153 0 0 0-.218 0 .15.153 0 0 1-.219 0c-.203-.222-.125-.486-.172-.787a.966.981 0 0 0-.266-.524l-.562-.571c-.313-.317-.47-.476-.86-.65-.34-.161-.68-.244-1.038-.255z" fill="#f4f4f7"/>
</svg>
