<svg height="16" width="16" xmlns="http://www.w3.org/2000/svg"><path d="m7.704 4h7.25c.581 0 1.046.462 1.046 1.037v7.926c0 .575-.466 1.037-1.045 1.037h-5.77c-.296 0-.49-.088-.667-.294z" fill="#f4f4f7"/><path d="m10.739 6.896-.482-.027c.005.145-.006.274-.028.447-.01.091-.032.21-.053.35h-.093c-.33 0-.742-.039-1.029-.087l.006.421c.314.027.655.054 1.029.054h.005c-.135.608-.352 1.492-.628 2.03l.4.145c.055-.097.104-.172.168-.253.363-.425.96-.836 1.603-.836a.93.93 0 0 1 .964.9c0 .889-1.213 1.098-2.469.926l.113.43c1.647.172 2.8-.241 2.8-1.366 0-.624-.503-1.256-1.364-1.256-.563 0-1.05.325-1.522.653.114-.307.238-.932.336-1.384a17.16 17.16 0 0 0 2.15-.226l-.006-.409c-.666.145-1.43.22-2.063.247.027-.118.043-.226.06-.306.032-.145.059-.312.102-.452zm2.23-.189-.287.124c.147.2.33.527.439.748l.293-.129a6.717 6.717 0 0 0 -.445-.743zm.601-.215-.287.124c.152.199.33.506.45.742l.293-.134a7.684 7.684 0 0 0 -.456-.732z" fill="#6b6a6e"/><path d="m10.644 11.498c.104.257.079.532-.296.736l-1.311.883c-.22.107-.593.589 0 .875-.504-.065-.611-.422-.74-.728l-2.372-6.329 3.83 2.355z" fill="#7d45a8"/><path d="m1.045 1h5.614c.579 0 .836.551 1.045 1.089.345.998 2.925 9.414 2.925 9.414-.12-.254-.407-.503-.703-.503h-8.88c-.581 0-1.046-.403-1.046-.98v-7.931c0-.577.466-1.09 1.045-1.09z" fill="#cd50dc"/><path d="m2.313 0h11.327c8.266 0 14.766-6.14 14.766-13.875 0-7.86-6.5-14.047-14.765-14.047h-11.329zm11.171-22.338c4.391 0 8.399 3.995 8.399 8.463 0 4.375-4.047 8.912-8.398 8.29h-4.65v-16.753z" fill="#e8b3e9" transform="matrix(.1533 0 0 .14326 2.646 8)"/></svg>