<svg height="16" width="16" xmlns="http://www.w3.org/2000/svg"><path d="m8 0h-7.2c-.443 0-.8.357-.8.8v7.2h8z" fill="#21d789"/><path d="m8 0h7.2c.443 0 .8.357.8.8v7.2h-8z" fill="#cf4f8c"/><path d="m8 16h-7.2a.798.798 0 0 1 -.8-.8v-7.2h8z" fill="#2086e7"/><path d="m8 16h7.2c.443 0 .8-.357.8-.8v-7.2h-8z" fill="#21d789"/><path d="m2 2h12v12h-12z" fill="#17191e"/><g fill="none" stroke="#f4f4f7" stroke-linecap="round"><path d="m3.507 11.5h4"/><path d="m5.507 7s0 .5-1 .5-1-1-1-2 0-2 1-2 1 .5 1 .5" stroke-linejoin="bevel"/><path d="m7.507 3.5v4h2" stroke-linejoin="round"/></g></svg>