<svg xmlns="http://www.w3.org/2000/svg" width="16" height="16" version="1">
    <path style="fill:#fffee4;fill-rule:evenodd" d="M10.5 5a1.5 1.5 0 1 1 0 3 1.5 1.5 0 0 1 0-3z"/>
    <path style="fill:#d22f7a" d="M2 10v2.8"/>
    <path style="fill:#17191e" d="M2 10v-.348s.865-.579 1.109-.63c.243-.05.53-.009.826.048.295.056.736.324.873.329.138.005.387-.012.676-.03.29-.017.768-.033.918-.032.15 0 .522.021.92.046.397.025.943.066 1.067.077.124.012.27.033.435.056.165.023.451.058.553.067.1.01.336.042.608.068a7.5 7.5 0 0 0 .834.024c.125-.01.39-.103.683-.19.294-.088.618-.167.865-.147.246.02 1.633.314 1.633.314V10H3.457z"/>
    <path style="fill:none;stroke:#f4f4f7;stroke-width:2;stroke-linecap:round;stroke-linejoin:round" d="m1.01 2 4 4m-4-1V2h3v0m10.98 12-4-4m4 1v3h-3v0"/>
</svg>
