<svg height="16" width="16" xmlns="http://www.w3.org/2000/svg">
    <rect fill="#20baba" height="11" ry="1.1" width="8" y="3"/>
    <rect fill="#20baba" height="11" ry="1.1" width="8" x="8" y="3"/>
    <path d="M8.889 2C8.396 2 8 2.425 8 2.952V12h5.111c.493 0 .889-.425.889-.952V2.952c0-.527-.396-.952-.889-.952z" fill="#f4f4f7"/>
    <path d="M8.889 2C8.396 2 8 2.425 8 2.952V12h5.111c.493 0 .889-.425.889-.952V2.952c0-.527-.396-.952-.889-.952z" opacity=".05"/>
    <path d="M9 3h2v1H9z" fill="#0cc"/>
    <path d="M9 5h4v1H9zM3.43 4.71h4.571v.762H3.43zM3.43 6.24h4.571v.762H3.43z" opacity=".2"/>
    <path d="M7.111 2c.493 0 .889.425.889.952V12H2.889C2.396 12 2 11.575 2 11.048V2.952C2 2.425 2.396 2 2.889 2z" fill="#f4f4f7"/>
    <path d="M3 7h4v1H3zM3 9h4v1H3z" opacity=".2"/>
    <path d="M4.097 1S2.997 3.627 3 5.009c.002 1.027.148 2.187.83 2.977.525.608 2.222 1.024 2.222 1.024l.554 1.985.516-.133-.553-1.985S7.824 7.7 7.962 6.922c.18-1.013-.298-2.087-.83-2.978-.716-1.198-3.035-2.942-3.035-2.942z" fill="#0cc"/>
    <path d="m6.598 11 .516-.132-.968-3.475.945-1.574-.328-.181-.756 1.259-.277-.994.757-1.258-.328-.182-.566.944-.208-.744.567-.944-.328-.182-.377.63-.493-1.732-.517.133L4.73 4.3l-.655-.364-.189.315.982.545.208.744-.982-.545-.189.315 1.309.727.277.993-1.31-.728-.189.315 1.637.909zM9 7h4v1H9zM9 9h2v1H9z" opacity=".2"/>
</svg>
