<svg height="16" width="16" xmlns="http://www.w3.org/2000/svg"><path d="m3 7a1 1 0 0 0 -1 1 1 1 0 0 0 .006.111c.064 2.435 2.193 4.426 4.994 4.815v1.074h-3a1 1 0 0 0 -1 1 1 1 0 0 0 1 1h8a1 1 0 0 0 1-1 1 1 0 0 0 -1-1h-3v-1.074c2.805-.39 4.936-2.387 4.994-4.826a1 1 0 0 0 .006-.1 1 1 0 0 0 -1-1 1 1 0 0 0 -1 1h-.016c-.083 2.068-1.41 3-3.984 3s-3.9-.932-3.984-3h-.016a1 1 0 0 0 -1-1z" fill="#ca42ca"/><rect fill="#8e8e8e" height="8" rx="4.167" ry="4" transform="matrix(0 -1 -1 0 0 0)" width="10" x="-10" y="-12"/></svg>