<svg height="16" width="16" xmlns="http://www.w3.org/2000/svg"><path d="m6.534 11.497 3.304-5.757-1.728-1.003-2.544 4.43c-.221.386-2.832 4.795-1.043 5.833z" fill="#b3b3b7"/><path d="m8.488 11.497-3.305-5.757 1.729-1.003 2.543 4.43c.222.386 2.832 4.795 1.044 5.833z" fill="#d8d9dd"/><circle cx="7.5" cy="7.5" fill="#808083" r=".5"/><path d="m221.62 233.66 6.18 6.22-6.18 6.22 3.54 3.53 6.17-6.2 6.17 6.2 3.54-3.53-6.18-6.22 6.18-6.22-3.54-3.52-6.17 6.2-6.17-6.2z" opacity=".3" transform="matrix(.02574 0 0 .02565 1.545 1.347)"/><path d="m10.522 0a2.5 2.5 0 0 1 .271.018 2.4 2.4 0 0 1 1.014.31c.636.37 1.035.991 1.162 1.666a2.5 2.5 0 0 1 .013.08c.014.089.028.176.032.266a2.5 2.5 0 0 1 .008.16 2.5 2.5 0 0 1 -2.5 2.5 2.5 2.5 0 0 1 -.25-.016l-.436.758-1.729-1.004.422-.734a2.5 2.5 0 0 1 -.507-1.504 2.5 2.5 0 0 1 2.5-2.5z" fill="#85a433"/><path d="m4.5 0a2.5 2.5 0 0 0 -.271.018 2.4 2.4 0 0 0 -1.014.31 2.431 2.431 0 0 0 -1.162 1.666 2.5 2.5 0 0 0 -.014.08c-.014.089-.027.176-.031.266a2.5 2.5 0 0 0 -.008.16 2.5 2.5 0 0 0 2.5 2.5 2.5 2.5 0 0 0 .25-.016l.436.758 1.728-1.004-.422-.734a2.5 2.5 0 0 0 .508-1.504 2.5 2.5 0 0 0 -2.5-2.5z" fill="#9fd022"/><path d="m4.243 3.466a1 1 0 1 1 .514-1.932 1 1 0 0 1 -.514 1.932zm6 0a1 1 0 1 1 .514-1.932 1 1 0 0 1 -.514 1.932z" fill="#f4f4f7"/></svg>