<svg height="16" width="16" xmlns="http://www.w3.org/2000/svg"><circle cx="8" cy="8" fill="#ff395d" r="8"/><g fill="#f4f4f7"><path d="m10.703 4.18-2.68 1.886-.023.016-2.728-1.886a.856.856 0 0 0 -.497-.154c-.398 0-.774.258-.774.638v1.43l-.001 4.252c0 .38.377.638.775.638a.856.856 0 0 0 .496-.154l2.729-1.903c1.358.961 2.702 1.903 2.702 1.903.15.106.326.154.497.154.398 0 .801-.258.801-.638v-5.712c0-.38-.403-.626-.8-.626a.856.856 0 0 0 -.497.154z" fill-opacity=".7"/><path d="m15.95 9.99-5.3-4.07-5.33 4.07 5.33 4.05z" fill-opacity=".6" transform="matrix(.3756 0 0 .35247 4 3.995)"/><path d="m0 5.99v8l5.32-4zm15.95 4 5.35 4.05v-8.12z" fill-opacity=".6" transform="matrix(.3756 0 0 .35247 4 3.995)"/><path d="m10.667 4.204-2.667 1.878 1.99 1.433 2.01-1.433v-1.43c0-.545-.762-.895-1.333-.448zm-5.393-.019c-.5-.354-1.272-.06-1.272.483v1.437l1.996 1.41 2.002-1.433z"/></g></svg>