<svg height="16" width="16" xmlns="http://www.w3.org/2000/svg">
    <rect fill="#eab33e" height="16" rx=".8" width="16"/>
    <path d="M9.813 1.992c-.21-.003-.346.01-.346.01a.5.5 0 1 0 .08.996s.439-.03.844.057c.202.043.382.116.48.193s.132.12.137.268c.015.477.005 1.078 0 1.484h-.5a.5.5 0 0 0-.354.854l1 1a.5.5 0 0 0 .707 0l1-1A.5.5 0 0 0 12.508 5h-.5c.005-.406.016-.993 0-1.516-.014-.43-.24-.804-.52-1.023s-.597-.323-.89-.385a4.145 4.145 0 0 0-.786-.084zM4.12 2 2 8h1.484l.364-1.092h2.308L6.516 8H8L5.88 2H4.122zm.881 1.406.781 2.389H4.217l.785-2.389zm6.701 4.574c-.285 0-1.08.032-1.38.096-.302.061-.612.252-.932.377v.817c.266-.148.543-.357.832-.43.288-.074 1.084-.111 1.388-.111.48 0 .85.112 1.114.335.266.221.3.735.3 1.141v.086h-1.129c-.792-.07-1.894.154-2.296.461-.4.307-.6.964-.6 1.568 0 .518.16.933.48 1.242.324.308 1.258.461 1.803.461.431 0 .796-.076 1.094-.23.298-.157.449-.398.648-.725V14H14v-3.182c0-.819-.19-1.83-.57-2.234-.38-.403-.956-.604-1.727-.604zm-7.21 1.012a.5.5 0 0 0-.347.147l-1 1a.5.5 0 0 0 .354.853H4c-.005.406-.016.994 0 1.516.013.431.24.804.52 1.023.28.22.597.323.89.385.586.124 1.131.074 1.131.074a.5.5 0 1 0-.082-.996s-.437.03-.842-.056c-.202-.043-.382-.117-.48-.194s-.132-.119-.137-.267c-.015-.478-.005-1.078 0-1.485h.5a.5.5 0 0 0 .354-.853l-1-1a.5.5 0 0 0-.362-.147zm7.76 1.99h.772v.198c0 .62-.048 1.237-.343 1.586-.292.345-.68.52-1.164.52-.352 0-1.132-.092-1.338-.274-.203-.186-.305-.437-.305-.75 0-.394.137-.872.41-1.035.273-.164 1.262-.245 1.969-.245z" fill="#f4f4f7"/>
</svg>
