<svg height="16" width="16" xmlns="http://www.w3.org/2000/svg"><rect fill="#73cbfc" height="16" rx=".8" width="16"/><path d="m5.741 5.004c-1.98-.009-3.289 1.05-3.66 2.96-.304 1.57.248 2.601 1.585 2.958.486.13 1.99.067 2.63-.11 1.12-.31 1.072-.259 1.27-1.328.24-1.303.068-1.31-.284-1.31-.033-.01-.315 0-.352 0h-1.057a.351.351 0 1 0 0 .704h.45c-.009.13-.046.327-.108.635-.156.786-.166.804-.524.945-1.332.523-2.158-.118-2.093-1.625.092-2.143.976-3.447 2.337-3.447 1.198 0 1.639.542 2.045 2.51.67 3.251.565 3.077 1.068 3.095.537.019.289.228 2.197-3.01.815-1.383 1.175-1.994 1.376-2.273h.296a.351.351 0 1 0 0-.704h-1.057a.351.351 0 1 0 0 .704h.187c-.382.722-1.934 3.378-2.08 3.54-.13.144-.168.016-.545-1.788-.217-1.036-.32-1.518-.325-1.752h.298a.351.351 0 1 0 0-.704h-1.761c-.034 0-1.861-.009-1.893 0-.493-.01.72.003 0 0z" fill="#0066bd"/></svg>