<svg height="16" width="16" xmlns="http://www.w3.org/2000/svg"><circle cx="-11.314" cy="-2.121" fill="#33b67a" r="6.5" transform="matrix(-.70710678 -.70710678 .70710678 -.70710678 0 0)"/><path d="m2.363 14.506a6.5 6.5 0 0 0 2.145 1.18c.05-.096.16-.152.319-.14.107.007.23-.024.276-.069.138-.137.225-.474.156-.604-.091-.173.094-.27.342-.177a.728.728 0 0 0 .446-.016c.13-.052.278-.083.329-.07.05.013.147-.032.215-.1.096-.096.098-.186.012-.386-.061-.144-.154-.296-.206-.34-.3-.247-.16-.426.392-.498.292-.038.395-.019.46.089.062.1.129.12.246.078.123-.046.215-.012.397.147.18.156.288.197.443.168.113-.021.233-.01.268.026.035.035.163.073.284.084.246.023.31.064.284.184-.035.159.148.244.54.253.346.007.412-.017.532-.19.214-.309.304-.682.223-.925-.07-.212-.065-.222.11-.227a.743.743 0 0 1 .313.063c.203.108.174-.038-.068-.351-.248-.32-.233-.512.04-.52.152-.004.163-.023.119-.216-.087-.378-.36-.473-.295-.103.042.238-.096.18-.23-.096-.108-.221-.143-.25-.324-.263-.371-.026-.333-.497.041-.507.238-.007.351-.19.222-.36-.058-.075-.133-.274-.169-.443-.036-.168-.093-.334-.126-.367-.034-.034-.061-.196-.061-.36 0-.334-.072-.448-.236-.377-.198.084-.248.18-.262.498-.011.254-.166.803-.25.887-.052.052-.208-.193-.244-.381a2.311 2.311 0 0 0 -.114-.39c-.043-.103-.026-.272.04-.408.106-.214.098-.249-.093-.44l-.208-.208.342-.405c.412-.487.467-.614.35-.805-.086-.141-.032-.438.106-.575.036-.037.207-.045.38-.018.214.033.344.01.41-.074.085-.104.12-.097.244.046.08.092.258.21.397.263a.848.848 0 0 1 .398.305c.108.156.162.191.214.14.038-.039.156-.063.262-.056.26.019.267-.103.014-.28-.157-.109-.199-.171-.164-.252.073-.17.371-.221.458-.077.055.091.115.101.223.038a.301.301 0 0 1 .119-.04 6.5 6.5 0 0 0 -.513-.942.43.43 0 0 0 -.027.177c.035.202-.262.34-.464.216-.206-.126-.288.008-.128.21.14.175.149.504.014.534-.09.019-.234-.14-.468-.52-.106-.17-.266-.2-.937-.17-.389.018-.616-.04-.772-.196-.06-.06-.328-.218-.596-.352-.506-.252-.65-.405-.497-.53.317-.258.122-.434-.483-.435-.251 0-.457-.024-.458-.053-.002-.113.371-.279.602-.267.292.016.387-.064.32-.269-.035-.112.01-.22.171-.405l.221-.252-.192-.192a.668.668 0 0 1 -.142-.195 6.5 6.5 0 0 0 -6.02 1.567c-.08.22-.176.306-.343.343a6.5 6.5 0 0 0 -.237.278c.04.044.08.089.132.136.241.222.348.512.232.628-.025.024-.044.208-.043.408.002.226-.039.383-.107.418-.063.031-.105.14-.097.25.008.109-.025.236-.073.285-.077.077-.038.135.325.48l.413.394.39-.404c.684-.708.76-.992.325-1.195-.2-.093-.52-.493-.54-.677-.008-.066.045-.226.118-.356.072-.13.142-.41.154-.622.024-.432.097-.537.481-.687.336-.132.418.005.143.236l-.204.172.204.14a.715.715 0 0 0 .427.11c.175-.022.225 0 .237.102a.304.304 0 0 1 -.076.22c-.05.05-.055.154-.014.232.042.078.034.25-.018.384-.084.212-.13.256-.386.36-.258.107-.289.136-.286.273.003.126.034.162.17.196.135.034.172.078.205.247a.785.785 0 0 0 .179.344c.155.155.127.277-.123.527-.23.23-.177.451.18.748.249.207.284.272.326.596.026.2-.005.589-.069.864s-.127.566-.14.646c-.02.116-.097.17-.375.26l-.35.114.283.216c.504.384.651.417.563.123-.035-.114-.018-.138.106-.147.08-.005.167-.056.192-.113.024-.057.14-.132.257-.167a.935.935 0 0 0 .316-.16c.176-.167.605-.01.914.335.468.522.516.555.855.567.423.016.547-.05.634-.342.084-.283-.018-.532-.338-.822-.286-.259-.293-.314-.05-.432.206-.1.442.02.467.235.02.167.397.43.603.42.086-.004.266-.061.398-.127.23-.114.256-.108.539.125.282.232.298.265.313.62" opacity=".2"/><path d="m14.348 0a3.212 3.212 0 0 0 -.287.008c-1.622.108-3.891 1.372-5.905 3.212.16.042.318.09.475.144a14.335 14.335 0 0 1 2.683-1.545c.428-.185 1.305-.526 1.95-.566.823-.051 1.366.29 1.174 1.01-.248.895-1.036 2.304-2.315 3.72-1.279 1.417-3.021 2.91-4.32 3.598l.773 1.412c1.52-.965 3.192-2.445 4.627-4.035 2.78-3.079 3.624-6.132 1.885-6.82a2.148 2.148 0 0 0 -.74-.139z" fill="#a91f1f"/><circle cx="8" cy="10" fill="#e13c3c" r="3"/><circle cx="8" cy="10" fill="#ffa833" r="2"/><circle cx="8" cy="10" fill="#f4f4f7" r="1"/></svg>