<svg height="16" width="16" xmlns="http://www.w3.org/2000/svg"><circle cx="8" cy="8" fill="#f4f4f7" r="8"/><circle cx="8" cy="8" fill="#ff3636" r="5"/><path d="m8 8-2.57 4.283a5 5 0 0 0 2.57.717 5 5 0 0 0 2.57-.717z" fill="#ffdb4c"/><path d="m8 8 2.57 4.283a5 5 0 0 0 2.43-4.283z" fill="#8bdb4c"/><path d="m10.57 3.717-2.57 4.283h5a5 5 0 0 0 -2.43-4.283z" fill="#476bd7"/><path d="m3 8a5 5 0 0 0 2.43 4.283l2.57-4.283z" fill="#f1502f"/><path d="m8 3a5 5 0 0 0 -2.57.717l2.57 4.283 2.57-4.283a5 5 0 0 0 -2.57-.717z" fill="#924ab4"/><circle cx="8" cy="8" fill="#4f4f4f" r="3"/><circle cx="7" cy="7" fill="#f4f4f7" r="1"/></svg>