<svg xmlns="http://www.w3.org/2000/svg" width="16" height="16">
    <path style="fill:#c8c8c8" d="M8 0C4.778 0 3 2.699 3 5.333h10C13 2.7 10.993 0 8 0z"/>
    <path style="fill:#585e62" d="M8 1.974c-1.933 0-3 1.615-3 3.191L8 5.5l3-.335c0-1.576-1.204-3.191-3-3.191z"/>
    <path style="fill:#f4f4f7" d="M13.793 8.437a1.637 1.565 0 0 1-.011-.853c.288-.995.099-2.093.099-2.093-3.623-1.081-5.876-.009-5.876-.009s-2.247-1.079-5.873-.008c0 0-.193 1.097.092 2.093a1.638 1.567 0 0 1-.013.854c-.1.328-.21.833-.211 1.475C1.993 14.557 7.99 16 7.99 16s6.003-1.426 6.01-6.087c0-.642-.107-1.146-.207-1.476z"/>
    <path style="fill:#49b04a" d="M5.76 7.053c-.463.029-1.08.145-1.614.2.123.586.152 1.193-.027 1.765l.004-.012c-.052.17-.122.476-.123.892-.002 1.473.875 2.36 2.059 3.106.955.602 1.596.748 1.937.848.343-.1.98-.244 1.936-.842 1.185-.742 2.065-1.626 2.068-3.098 0-.41-.066-.71-.117-.883-.178-.572-.148-1.18-.024-1.765-.71-.076-1.569-.258-2.015-.2-.768.1-.979.223-.979.223l-.863.412-.863-.414s-.21-.124-.977-.226a2.127 2.127 0 0 0-.402-.006z"/>
    <path style="fill:#35393b" d="m8 9.106-1 2.91 1 .484 1-.485z"/>
    <circle style="fill:#35393b" cx="8" cy="9" r="1"/>
</svg>
