<svg height="16" width="16" xmlns="http://www.w3.org/2000/svg">
    <rect fill="#2ba798" height="16" rx="8" width="16"/>
    <path d="M9.273 11.933c-1.565-.314-2.7-.854-3.21-2.296-.131-.372-.177-.98-.099-1.31.283-1.188 1.719-1.616 3.54-1.054.677.209 1.668.706 1.668.837 0 .067-.125.13-.496.248l-.269.085-.372-.171c-1.438-.665-2.727-.491-3.016.406-.173 1.787 1.517 2.498 2.92 2.443.326-.014.398-.032.726-.182.464-.211.924-.618 1.122-.992.517-.978.22-2.053-.856-3.096C9.679 5.638 7.79 4.834 6.195 4.837c-.767 0-1.21.142-1.61.512-.394.363-.546.809-.503 1.473.095 1.45.997 2.97 2.489 4.197.282.231.512.445.512.475 0 .1-.152.054-.52-.159-1.272-.734-2.281-1.755-2.948-2.984-.527-.97-.724-1.911-.557-2.665.127-.575.432-1.012.91-1.307 1.048-.611 2.774-.358 3.708-.105 1.992.556 3.771 1.698 4.706 3 .967 1.276.72 2.953-.192 3.837-.456.42-.756.605-1.221.755-.463.15-1.152.177-1.696.067z" fill="#17191e"/>
</svg>
