<svg height="16" width="16" xmlns="http://www.w3.org/2000/svg">
    <circle cx="8" cy="8" fill="#00d8d1" r="8"/>
    <path d="M12.172 4.847a2.918 2.918 0 0 1 0 4.073L8.38 12.782a.583.583 0 0 1-.836 0l-3.58-3.647 4.209-4.288a2.79 2.79 0 0 1 3.998 0z" fill="#4f4f4f" fill-rule="evenodd"/>
    <path d="m7.9 4.856 3.712 3.783a.61.61 0 0 1 0 .85L8.39 12.774a.583.583 0 0 1-.836 0L3.841 8.991a2.963 2.963 0 0 1 0-4.135 2.833 2.833 0 0 1 4.059 0z" fill="#f4f4f7" fill-rule="evenodd"/>
    <path d="m8.729 7.564 2.398 2.443-.299.304L8.43 7.868z" fill="#606060"/>
    <path d="M11.74-.72h3.006v.298H11.74z" fill="none" stroke="#4f4f4f" stroke-width=".418" transform="scale(.9907 1.00921) rotate(45)"/>
    <path d="m7.839 8.485 2.398 2.443-.299.304-2.397-2.443z" fill="#606060"/>
    <path d="M11.74.56h3.006v.298H11.74z" fill="none" stroke="#4f4f4f" stroke-width=".418" transform="scale(.9907 1.00921) rotate(45)"/>
    <g fill="#4f4f4f" fill-rule="evenodd">
        <path d="M6.246 8.207a.908.908 0 0 1 0 1.267l-.96.978-1.244-1.267.96-.978c.344-.35.9-.35 1.244 0z"/>
        <path d="M7.164 9.15a.865.865 0 0 1 0 1.207l-.99 1.008-1.184-1.207.99-1.008a.827.827 0 0 1 1.184 0z"/>
        <path d="M8.053 10.062a.865.865 0 0 1 0 1.207l-.99 1.008L5.88 11.07l.99-1.008a.827.827 0 0 1 1.184 0z"/>
        <path d="M8.97 11.004a.908.908 0 0 1 0 1.268l-.541.552a.583.583 0 0 1-.836 0l-.826-.842.96-.978c.343-.35.9-.35 1.244 0zm.243-5.114L8.06 7.063c-.618.63-1.583.667-2.156.084l2.271-2.313"/>
    </g>
</svg>
