<svg xmlns="http://www.w3.org/2000/svg" width="16" height="16"><g transform="translate(0 -1036.362)"><rect style="fill:#0fbbaf;stroke:#4285f4;stroke-width:0;stroke-linecap:round;stroke-linejoin:round" width="16" height="14" y="1037.36" rx=".974" ry=".925"/><path style="fill:#f4f4f7" d="M10.913 1040.168c-.102 0-.2.048-.278.127a290.01 290.01 0 0 1-2.578 2.579l2.13 2.124-2.546 2.586h-.005v-.01c-1.042-.989-2.07-1.998-3.11-2.999l-.01-.01-.011-.01c-.515-.43-.813-1.127-.706-1.775v-.01l.002-.01c.112-.855.967-1.605 1.829-1.586.167 0 .335.035.463.06.407.089.785.455 1.135.81h-.002l.19.188.497.494 1-1c.153-.154.238-.448 0-.684a.46.46 0 0 0-.379-.147.511.511 0 0 0-.307.147l-.465.465c-.36-.358-.918-.9-1.501-1.028a2.638 2.638 0 0 0-.638-.08H5.614c-1.292-.028-2.412.989-2.581 2.248-.156.953.26 1.9.974 2.495l-.02-.019c1.044 1.004 2.168 2.085 3.223 3.086.149.13.27.151.426.151.12 0 .258-.04.398-.174l2.357-2.362s1.578-1.573 2.357-2.347c.166-.166.178-.399.012-.565-.167-.166-.404-.16-.57.01l-1.684 1.684c-.044.01-.137-.088-.133-.142l2.488-2.489c.166-.166.178-.403.012-.57-.167-.166-.388-.143-.555.024l-1.97 1.971c-.051.01-.163-.089-.149-.154l2.332-2.333c.133-.142.213-.397.042-.576a.408.408 0 0 0-.588.012l-2.405 2.407c-.058 0-.146-.081-.145-.141l1.761-1.759c.166-.166.196-.398.015-.57a.407.407 0 0 0-.298-.12z"/></g></svg>