<svg width="16" height="16" xmlns="http://www.w3.org/2000/svg">
    <path d="M8 0C3.568 0 0 3.568 0 8s3.568 8 8 8 8-3.568 8-8-3.568-8-8-8z" style="fill:#8a0112" transform="matrix(1 0 0 -1 0 16)"/>
    <path d="M7.957 2.09c-1.78 0-2.843 1.111-2.843 1.111l1.634 3.106A2.182 2.182 0 0 1 8 5.908a2.182 2.182 0 0 1 1.191.357l1.614-3.064s-1.067-1.11-2.847-1.11zM8 7a1.091 1.091 0 1 0 0 2.182A1.091 1.091 0 0 0 8 7zm2.212 1.026c-.005.16-.032.32-.07.48a2.182 2.182 0 0 1-.017.07l-.008.033a2.182 2.182 0 0 1-1.09 1.404l2.002 2.942s1.536-.332 2.426-1.813c.89-1.481.42-2.92.42-2.92V8.22l-3.664-.195zm-4.425.044-3.664.196" style="fill:#efc008" transform="matrix(1 0 0 -1 0 16)"/>
</svg>
