<svg height="16" width="16" xmlns="http://www.w3.org/2000/svg"><path d="m6.519 15.872c-3.63-.654-6.276-3.618-6.504-7.282-.298-4.81 3.765-8.874 8.57-8.574 1.883.117 3.611.854 4.944 2.109 1.615 1.52 2.466 3.457 2.471 5.622.002 1.038-.136 1.681-.616 2.872a16.49 16.49 0 0 0 -.477 1.318c-.248.905-.095 1.839.487 2.99.189.371.324.695.301.718s-.401-.094-.84-.26c-1.64-.623-2.274-.627-3.747-.027-1.516.618-3.055.79-4.59.514z" fill="#465c66"/><path d="m7.822 2c-.486.004-.854.041-1.151.115-.995.249-1.504.716-1.49 1.364.013.563.29.83 1.585 1.775.642.469 1.153.891 1.136.94-.016.047-.31.156-.651.24-1.352.336-2.474 1.125-2.952 2.074-.402.94-.393 1.834-.003 2.615.637 1.265 2.042 1.974 3.695 1.866.345-.022.87-.113 1.166-.203.66-.2 1.33-.62 1.85-1.131.977-.94 1.25-2.51.744-3.592-.41-.826-1.238-1.544-2.842-2.467-2.263-1.3-2.55-1.407-2.827-1.716-.146-.162-.265-.384-.265-.491 0-.74 1.243-1.155 2.252-.69.236.109.68.396.988.639.901.714 1.331.81 1.782.398.513-.467.048-1.17-.992-1.499-.501-.159-1.216-.244-2.025-.237zm.613 4.7c.193 0 .296.094.694.46.919.845 1.36 1.866 1.256 2.906-.142 1.18-.957 2.104-2.336 2.134-1.434.012-2.44-1.322-2.449-2.536-.005-1.04.165-1.522.732-2.074.435-.423 1.183-.77 1.866-.866.099-.014.173-.024.237-.024z" fill="#f4f4f7"/></svg>