<svg height="16" width="16" xmlns="http://www.w3.org/2000/svg">
    <circle cx="8" cy="8" fill="#f60" r="8"/>
    <circle cx="8" cy="8" fill="#f4f4f7" r="6"/>
    <path d="M14.629 15.093c-1.636-1.398-2.248-2.238-3.98-3.52-.303-.126-.357.041-.721.253-1.404.815-1.669 1.165-2.36 1.165-.589 0-.757-.044-1.344-.353-.368-.195-.733-.444-.81-.555-.466-.668-.635-.948-.951-1.57-.194-.381-.577-1.08-.606-1.31-.03-.23-.13-.57-.223-.757s-.285-.795-.426-1.35c-.202-.797-.243-1.295-.196-1.754.077-.737.05-1.018-.522-1.59C1.955 3.22.386 1.156.118.56-.112.048.023-.217.289.22c.83 1.365 2.23 2.998 2.915 3.4.404.238.44.162 1.078.048 1.129-.203 3.036.022 3.632.429.202.137.423.25.492.25.068 0 .37.087.671.193s.65.193.776.193c.342 0 1.18.259 1.347.534.08.134.359.383.617.554.382.252.54.45.832 1.035.408.82.432 1.092.217 1.817-.115.39-.28.644-.668 1.03-.674.672-1.117 1.03-.728 1.595.454.659 1.448 1.58 2.98 2.941.793.704 1.465 1.344 1.496 1.424.229.599-.261.387-1.317-.57z" fill="#5a860b"/>
</svg>
