<svg height="64" width="64" xmlns="http://www.w3.org/2000/svg">
    <filter id="a" color-interpolation-filters="sRGB" height="1.054" width="1.054" x="-.027" y="-.027">
        <feGaussianBlur stdDeviation=".619"/>
    </filter>
    <linearGradient id="b" gradientUnits="userSpaceOnUse" x1="4.5" x2="59.5" y1="59.49" y2="4.49">
        <stop offset="0" stop-color="#ff7832"/>
        <stop offset="1" stop-color="#ffdc32"/>
    </linearGradient>
    <rect fill="#141414" filter="url(#a)" height="55" opacity=".3" ry="15" width="55" x="4.5" y="4.5"/>
    <rect fill="url(#b)" height="55" ry="15" width="55" x="4.5" y="4.5"/>
    <g fill="#f4f4f7" fill-opacity=".85">
        <path d="M49.1 15.36c1.854 1.855-3.289 10.006-4.158 10.876-.87.868-3.078.07-4.933-1.785s-2.654-4.064-1.785-4.933c.87-.87 9.02-6.013 10.875-4.158zM23.08 17.322c-2.832-1.607-6.862-3.395-8.144-2.113-1.3 1.299.554 5.42 2.178 8.258a17.421 17.421 0 0 1 5.966-6.145z"/>
        <path d="M46.27 25.597c.261.885.214 1.616-.208 2.038-.99.988-3.658-.064-6.063-2.354a12.47 12.47 0 0 1-.499-.47c-.87-.87-1.547-1.797-1.98-2.65-.842-1.512-1.053-2.847-.416-3.484.347-.347.903-.441 1.58-.32.441-.278.963-.59 1.535-.908a16.759 16.759 0 0 0-7.774-1.898c-9.3 0-16.841 7.539-16.841 16.841 0 9.3 7.54 16.841 16.841 16.841s16.842-7.54 16.842-16.841c0-3.004-.788-5.82-2.165-8.263-.298.544-.587 1.041-.852 1.468z"/>
    </g>
</svg>
