<svg height="16" width="16" xmlns="http://www.w3.org/2000/svg">
    <circle cx="8" cy="7" fill="#a3cc41" r="7"/>
    <rect fill="#ffe546" height="2" ry="1" width="4" x="6" y="3"/>
    <path d="M7.2 7.6 8 16l.8-8.4L9 5s-.6-.6-1-3c-.4 2.4-1 3-1 3z" fill="#c52f2f"/>
    <path d="M7 5h2v2c0 .777-.6 2-1 2S7 7.777 7 7z" fill="#e04848"/>
    <path d="M15.595 1.988c-.633.017-1.145.467-2.795 1.292C11.143 4.108 8 6 8 6S4.857 4.108 3.2 3.28C1.55 2.455 1.078 2.006.445 1.99.157 1.981 0 2.062 0 2.24c0 2.8 3.22 3.916 5.2 4.16l1.56.144L3.2 7.8c-1.6.4-3.2 0-3.2.8C0 9.793.8 10 2.4 10 4.382 10 8 7 8 7s3.618 3 5.6 3c1.6 0 2.4-.207 2.4-1.4 0-.8-1.6-.4-3.2-.8L9.24 6.496 10.8 6.4c1.98-.283 5.2-1.36 5.2-4.16 0-.177-.117-.26-.405-.252z" fill="#f5f5f5"/>
</svg>
