<svg xmlns="http://www.w3.org/2000/svg" width="16" height="16"><path style="fill:#b3e8ff" d="M16 8c-.4.4-4.366 1.072-8.784 1.072C2.797 9.072.4 8.4 0 8a8 8 0 1 1 16 0z"/><path style="fill:#29b6f6" d="M7.055 6.002c-1.81.025-4.064.762-6.597 1.39a9.87 9.87 0 0 1-.433.103A8 8 0 0 0 0 8a8 8 0 0 0 7.967 7.999h.046A8 8 0 0 0 16 8a8.004 8.004 0 0 0-.056-.865c-.776.368-1.476.887-2.256.881C11.621 8 9.625 6.114 7.804 6.01c-.24-.009-.49-.012-.749-.008z"/><circle style="fill:#b3e8ff" cx="4.5" cy="8.5" r=".5"/><circle style="fill:#b3e8ff" cx="11.5" cy="10.5" r="1.5"/><circle style="fill:#b3e8ff" cx="7.75" cy="14.25" r=".75"/></svg>