<svg height="16" width="16" xmlns="http://www.w3.org/2000/svg">
    <rect fill="#a52727" height="16" rx=".8" width="16"/>
    <g fill="#f4f4f7">
        <path d="m5.318 3-.16.127L5 3.256v3.699L6.116 8.25 7 7.539l-.002-2.14-.002-2.143-.154-.13L6.684 3H6.25zm.776.756c.047-.004.055-.003.121.03l.069.034.002 1.69c0 .744-.005 1.69-.01 1.69l-.56-.798v-1.14l-.002-1.8"/>
        <path d="M4.483 8 2 10.273l.207.454h.82v.455l.414.454h2.283l.828.355h.827L7.793 13h.414l.414-1.009h.827l.828-.355h2.283l.414-.454v-.455h.82l.207-.454L11.517 8h-.414l1.656 2.018h-1.656l-.827-.654H9.034L8 8.454l-1.034.91H5.724l-.827.654H3.24L4.897 8z"/>
    </g>
</svg>
