<svg height="16" width="16" xmlns="http://www.w3.org/2000/svg">
    <path d="M12.985 11.58C12.77 14.01 10.754 16 8.001 16s-4.75-1.99-4.985-4.42C2.78 9.136 5.172.036 8.001 0c2.847-.037 5.209 9.048 4.984 11.58z" fill="#f2ad32"/>
    <path d="M9.54 1.203c-.017.002.012.087.147.504.35 1.082.656 2.308.824 3.314.127.753.182 1.545.203 2.902.012.719.034 1.307.049 1.307.033 0 .081-.231.154-.737.274-1.894.059-3.83-.638-5.752-.169-.464-.643-1.48-.71-1.522-.014-.008-.024-.017-.03-.016zM6.623 1.6c-.02-.005-.064.12-.13.372-.143.55-.202 1.026-.224 1.816-.024.857.01 1.318.185 2.546.261 1.835.407 3.12.407 3.59 0 .13.011.291.024.357l.024.119.03-.106c.015-.058.046-.48.07-.937.062-1.258.012-1.994-.33-4.88-.08-.678-.107-1.94-.054-2.562.017-.206.017-.31-.002-.315zM4.875 4.927c-.04-.011-.49 1.116-.591 1.48-.022.077-.06.392-.085.7-.026.31-.084.807-.13 1.106a4.14 4.14 0 0 0-.062.982c.023.408.045.54.153.887.03.097.061.13.112.123.059-.01.071-.063.078-.345.013-.496.071-.816.374-2.068L5 6.652l-.006-.684c-.005-.699-.042-1.02-.12-1.041zm6.849.126a4.3 4.3 0 0 1 .07.319c.073.393.127.991.127 1.394 0 .506.077.413.124-.15a3.33 3.33 0 0 1 .048-.405 26.597 26.597 0 0 0-.37-1.158zM9.73 7.125c-.02 0-.027.036-.016.08.088.349.144 1.023.143 1.72 0 .42.012.74.028.711.093-.165.132-1.18.065-1.684-.046-.348-.174-.827-.22-.827zm2.826 3.222c-.004-.001-.01.002-.016.008a5.053 5.053 0 0 0-.09.46c-.242 1.434-.784 2.878-1.483 3.956-.217.335-.332.495-.463.604.545-.3 1.02-.695 1.403-1.16.02-.049.042-.102.068-.16.41-.882.624-1.914.625-3.01 0-.515-.01-.694-.044-.698zm-7.93 1.72c-.016.005-.035.05-.055.141-.048.222.01 1.126.088 1.374.028.088.1.226.159.306.06.08.122.146.14.146.04 0 .04.008-.005-.14-.158-.516-.28-1.18-.28-1.523-.001-.204-.02-.311-.047-.304z" fill="#c67427"/>
    <path d="M7.797 13.98c-.334-.076-.627-.3-.746-.568-.08-.18-.066-.295.041-.361.129-.08.221-.027.354.203.132.23.313.341.554.341.253 0 .428-.113.56-.36.12-.224.209-.27.347-.185.109.068.122.181.04.364-.172.393-.723.664-1.15.566zm3.191-1.856c.05-.139-.063-.553-.205-.75a.96.96 0 0 0-1.672.149c-.125.261-.151.677-.042.677.035 0 .064-.016.064-.037 0-.02.062-.104.138-.187a.96.96 0 0 1 1.214-.184c.121.073.262.195.313.27.104.156.15.171.19.062zm-4 0c.05-.139-.063-.553-.205-.75a.96.96 0 0 0-1.672.149c-.125.261-.151.677-.042.677.035 0 .064-.016.064-.037 0-.02.062-.104.138-.187a.96.96 0 0 1 1.214-.184c.121.073.262.195.313.27.104.156.15.171.19.062z" fill="#453f3d"/>
</svg>
