<svg height="16" width="16" xmlns="http://www.w3.org/2000/svg"><path d="m7 13c0-.554-.446-1-1-1s-1 .446-1 1v2c0 .554.446 1 1 1s1-.446 1-1zm-.5-5-2.5 1.6v2.4h1v-1.5l1.5-.588z" fill="#be3c3c"/><path d="m4.75 14c-.415 0-.75.446-.75 1s.335 1 .75 1h1.5c.415 0 .75-.446.75-1s-.335-1-.75-1z" fill="#09dbed"/><path d="m10 13c0-.554.446-1 1-1s1 .446 1 1v2c0 .554-.446 1-1 1s-1-.446-1-1zm.5-5 2.5 1.6v2.4h-1v-1.5l-1.5-.588z" fill="#be3c3c"/><path d="m12.25 14c.415 0 .75.446.75 1s-.335 1-.75 1h-1.5c-.415 0-.75-.446-.75-1s.335-1 .75-1z" fill="#09dbed"/><rect fill="#3ce63c" height="6" rx=".388" ry=".309" width="5" x="6" y="7"/><ellipse cx="8.5" cy="5.5" fill="#9f9f9f" rx="5.5" ry="3.5"/><path d="m5 5h1v1h-1zm6 0h1v1h-1zm-5.03 2h5.027v1h-5.027z" fill="#17191e"/><path d="m1.79 0c-.754 0-1.078.97-.48 1.435l1.77 3.565s.91-1.674 1.637-1.9c1.213-.378 2.498.9 3.783.9s2.57-1.278 3.783-.9c.727.226 1.637 1.9 1.637 1.9l1.77-3.565c.597-.465.273-1.434-.48-1.435h-6.71z" fill="#ffc901"/><path d="m8 9h1v1h-1zm0 2h1v1h-1z" fill="#17191e"/></svg>