<svg height="16" width="16" xmlns="http://www.w3.org/2000/svg">
    <path d="M1.813 0A.805.805 0 0 0 1 .8v14.4c0 .443.362.8.813.8h11.374c.45 0 .813-.357.813-.8V5L9.937 4 9 0z" fill="#f14223"/>
    <path d="M3 2v12h9V4h-2l-.908-2z" fill="#f4f4f7"/>
    <path d="M14 5 9 0v4.167c0 .461.372.833.833.833z" fill="#f46b53"/>
    <g fill="#17191e">
        <path d="M5.667 6.7 11 12.3l-.666.7L5 7.4z"/>
        <path d="M8 6.35 7.667 6c-.584.453-.974.622-1.775.433L4.667 7.75 4 8.45 5 9.5z"/>
    </g>
    <path d="m7.169 11.373.216.935-.693.692h-.769l.77-.77-.231-.692-.693-.23-.769.769v-.77l.692-.692.77.154.248.055 2.176-2.093-.27-1.039L9.307 7h.769l-.77.77.231.692.693.23.769-.769v.77l-.692.692-.963-.188z" fill="#696a6a"/>
</svg>
