<svg height="16" width="16" xmlns="http://www.w3.org/2000/svg">
    <g fill-rule="evenodd">
        <path d="M13.583 2c-.27.004-.529.114-.72.307l-6.37 6.42-3.356-3.421a1.036 1.036 0 0 0-1.473 0L.305 6.676a1.056 1.056 0 0 0 0 1.484l4.091 4.162.953.96.436.08c.406.41.93.302 1.336-.107l1.467-.933 7.107-7.16a1.056 1.056 0 0 0 0-1.485l-1.36-1.37A1.04 1.04 0 0 0 13.583 2z" fill="#5cbb6a"/>
        <path d="M9.2 5.998 6.491 8.727 4.648 6.846 1.672 9.55l.814.828 8.4-.373.003-.002L14.863 6z" fill="#3e8749"/>
        <path d="m8.076 7.13-.792.799 3.582 2.099 1.397-1.409zm.644 5.06-3.4 1.064.435.439a1.042 1.05 0 0 0 1.474 0l1.36-1.37.13-.133z" fill="#2d6235"/>
    </g>
</svg>
