<svg xmlns="http://www.w3.org/2000/svg" width="16" height="16"><path style="fill:#afba0d" d="M7.5 1A7.5 7.5 0 0 0 0 8.5 7.5 7.5 0 0 0 7.5 16 7.5 7.5 0 0 0 15 8.5 7.5 7.5 0 0 0 7.5 1z"/><path style="fill:#17191e" d="M7 8v7.943a5 9.412 0 0 0 .5.057 5 9.412 0 0 0 .5-.047V8z"/><circle style="fill:#17191e" cx="7.5" cy="8.5" r="1.5"/><path style="fill:#17191e" d="M5.244 3.488A5.5 5.5 0 0 0 2 8.5a5.5 5.5 0 0 0 3.246 5.01l.445-.893A4.5 4.5 0 0 1 3 8.5a4.5 4.5 0 0 1 2.693-4.115l-.449-.897zm4.51.002-.445.893A4.5 4.5 0 0 1 12 8.5a4.5 4.5 0 0 1-2.693 4.115l.449.897A5.5 5.5 0 0 0 13 8.5a5.5 5.5 0 0 0-3.246-5.01zM6.137 5.275A3.5 3.5 0 0 0 4 8.5a3.5 3.5 0 0 0 2.14 3.22l.448-.896A2.5 2.5 0 0 1 5 8.5a2.5 2.5 0 0 1 1.586-2.326l-.45-.899zm2.722.004-.447.897A2.5 2.5 0 0 1 10 8.5a2.5 2.5 0 0 1-1.586 2.326l.45.899A3.5 3.5 0 0 0 11 8.5a3.5 3.5 0 0 0-2.14-3.22z"/></svg>