<svg xmlns="http://www.w3.org/2000/svg" width="16" height="16" version="1">
    <circle style="fill:#8b9cbe" cx="8.5" cy="8.5" r="7.5"/>
    <path style="fill:#d08e3b" d="M8.5 3A5.5 5.5 0 0 0 3 8.5 5.5 5.5 0 0 0 8.5 14a5.5 5.5 0 0 0 5.473-5h2.002A7.5 7.5 0 0 0 16 8.5a7.5 7.5 0 0 0-.018-.5H11v1h1.969A4.5 4.5 0 0 1 8.5 13 4.5 4.5 0 0 1 4 8.5 4.5 4.5 0 0 1 8.5 4h3.148A5.5 5.5 0 0 0 8.5 3z"/>
    <path style="fill:#f4f4f7" d="M8.5 6A2.5 2.5 0 0 0 6 8.5 2.5 2.5 0 0 0 8.5 11a2.5 2.5 0 0 0 1.5-.504V11h1V6h-1v.502A2.5 2.5 0 0 0 8.5 6zm0 1A1.5 1.5 0 0 1 10 8.5 1.5 1.5 0 0 1 8.5 10 1.5 1.5 0 0 1 7 8.5 1.5 1.5 0 0 1 8.5 7z"/>
</svg>
