<svg height="16" width="16" xmlns="http://www.w3.org/2000/svg">
    <rect fill="#f4f4f7" height="8" ry="1.6" width="4" x="6"/>
    <path d="M8.13 5.602a2.765 2.235 0 0 0-2.524 1.115L3.488 9.682 1.37 12.647A2.765 2.235 0 0 0 3.765 16h8.47a2.765 2.235 0 0 0 2.395-3.353l-2.118-2.965-2.117-2.965A2.765 2.235 0 0 0 8.13 5.602z" fill="#f4f4f7"/>
    <path d="M8.5 3a.5.5 0 0 0-.5.5.5.5 0 0 0 .5.5.5.5 0 0 0 .5-.5.5.5 0 0 0-.5-.5zm-1 2a.5.5 0 0 0-.5.5.5.5 0 0 0 .5.5.5.5 0 0 0 .5-.5.5.5 0 0 0-.5-.5zm1 2a.5.5 0 0 0-.5.5.5.5 0 0 0 .5.5.5.5 0 0 0 .5-.5.5.5 0 0 0-.5-.5zm-2 2a.5.5 0 0 0-.5.5.5.5 0 0 0 .5.5.5.5 0 0 0 .5-.5.5.5 0 0 0-.5-.5zm-1.534 2-.754 1.066A1.58 1.29 0 0 0 5.58 14h4.84a1.58 1.29 0 0 0 1.368-1.934L11.034 11z" fill="#b343ff"/>
</svg>
