<svg height="16" width="16" xmlns="http://www.w3.org/2000/svg"><path d="m3 9v4h-2v1h15v-1h-2v-4z" fill="#cf2619"/><path d="m6 5v2h1v6h3v-6h1v-2h-1v1h-1v-1h-1v1h-1v-1z" fill="#f44336"/><path d="m0 2v2h1v8h3v-8h1v-2h-1v1h-1v-1h-1v1h-1v-1z" fill="#f44336" transform="translate(1 1)"/><path d="m2 5h1v2h-1zm0 4h1v2h-1z" fill="#f4f4f7" transform="translate(1 1)"/><path d="m8 10h1v2h-1z" fill="#f4f4f7"/><path d="m11 3v2h1v8h3v-8h1v-2h-1v1h-1v-1h-1v1h-1v-1z" fill="#f44336"/><path d="m13 6h1v2h-1zm0 4h1v2h-1z" fill="#f4f4f7"/></svg>