<svg height="16" width="16" xmlns="http://www.w3.org/2000/svg">
    <linearGradient id="a" gradientUnits="userSpaceOnUse" x1="17.5" x2="10.5" y1="5.5" y2="18.5">
        <stop offset="0"/>
        <stop offset="1" stop-opacity="0"/>
    </linearGradient>
    <g transform="matrix(-1 0 0 1 15 -1036.4)">
        <path d="M10.5 1045.9s-1.767-1.821-2-3c-.33-1.667 1-5 1-5" fill="none" stroke="#1f711f" stroke-linecap="round" stroke-linejoin="round"/>
        <path d="M4.5 1046.9s.198-3.501 1-5c.89-1.663 4-4 4-4" fill="none" stroke="#248424" stroke-linecap="round" stroke-linejoin="round"/>
        <circle cx="10.5" cy="1046.9" fill="#c72828" r="3.5"/>
        <circle cx="4.5" cy="1047.9" fill="#ff3737" r="3.5"/>
    </g>
    <path d="m5.2 1-.12.045s-.883.337-1.901.93C2.16 2.565.997 3.41.433 4.466-.134 5.529-.05 6.868.16 7.942c.21 1.074.558 1.892.558 1.892l.07.166.154-.1s.88-.573 1.897-1.4c1.016-.827 2.17-1.904 2.73-2.953 1.125-2.108-.301-4.439-.301-4.439z" fill="#32b632" fill-rule="evenodd"/>
    <path d="M17.1 5 10 18" fill="none" opacity=".2" stroke="url(#a)" stroke-linecap="round" stroke-linejoin="round" transform="matrix(.375 0 0 .375 -1.125 -.5)"/>
</svg>
