<svg xmlns="http://www.w3.org/2000/svg" width="16" height="16">
    <path style="fill:#2b5fa9" d="M11.586 10a1.588 1.587 0 0 0-1.106 2.725l2.778 2.778a1.588 1.587 0 1 0 2.245-2.245l-2.778-2.777A1.588 1.587 0 0 0 11.586 10z"/>
    <path style="fill:#2b5fa9" d="m9.545 8.838-.707.707 1.998 1.998.707-.707z"/>
    <path style="fill:#4c8fe8" d="M1.765 0C.805 0 0 .791 0 1.754V3h1v1H0v4.246C0 9.209.805 10 1.765 10h6.47C9.195 10 10 9.209 10 8.246V1.754C10 .791 9.195 0 8.235 0z"/>
    <path style="fill:#f4f4f7" d="M2.412 1C1.644 1 1 1.633 1 2.403v5.194C1 8.367 1.644 9 2.412 9h5.176C8.356 9 9 8.367 9 7.597V2.403C9 1.633 8.356 1 7.588 1z"/>
    <path style="fill:none;stroke:#feae12" d="M6.333 6.733 3.667 3.5M1 3.5h5.333"/>
    <circle style="fill:#feae12" cx="7" cy="3.5" r="1"/>
    <circle style="fill:#feae12" cx="6" cy="6.5" r="1"/>
    <circle style="fill:#feae12" cx="4" cy="3.5" r="1"/>
</svg>
