<svg height="16" width="16" xmlns="http://www.w3.org/2000/svg"><path d="m2.154 2h12.692c.637 0 1.154.501 1.154 1.12v11.76c0 .619-.517 1.12-1.154 1.12h-12.692c-.637 0-1.154-.501-1.154-1.12v-11.76c0-.619.517-1.12 1.154-1.12zm0 0" fill="#f4f4f7"/><g fill="none"><path d="m8.5 3.429v12.571" stroke="#e9a119" stroke-linejoin="round"/><path d="m8.5 16v-3.221c0-.71.612-1.279 1.321-1.279h1.458c.71 0 1.221-.619 1.221-1.329v-3.028" stroke="#e22e28"/><path d="m8.471 16c0-.71-.54-1.45-1.25-1.45h-1.542c-.71 0-1.179-.612-1.179-1.322v-5.514c0-.71.469-1.214 1.179-1.214h1.541c.71 0 1.279-.647 1.279-1.357v-.857" stroke="#1a5fb4" stroke-linejoin="round"/></g><path d="m11 6.5c0-.824.676-1.5 1.5-1.5s1.5.676 1.5 1.5-.676 1.5-1.5 1.5-1.5-.676-1.5-1.5zm0 0" fill="#f65d5a"/><path d="m3 10.5c0 .824.676 1.5 1.5 1.5s1.5-.676 1.5-1.5-.676-1.5-1.5-1.5-1.5.676-1.5 1.5zm0 0" fill="#5292de"/><path d="m7 4.5c0 .824.676 1.5 1.5 1.5s1.5-.676 1.5-1.5-.676-1.5-1.5-1.5-1.5.676-1.5 1.5zm0 0" fill="#ffc425"/><path d="m9 4.5a.5.5 0 1 1 -1 0 .5.5 0 0 1 1 0zm-4 6a.5.5 0 1 1 -1 0 .5.5 0 0 1 1 0zm8-4a.5.5 0 1 1 -1 0 .5.5 0 0 1 1 0zm0 0" fill="#f4f4f7"/></svg>