<svg height="16" width="16" xmlns="http://www.w3.org/2000/svg"><rect fill="#2769bc" height="13" rx="1" width="16" y="1"/><g fill="#f4f4f7"><path d="m8 3a3 3 0 0 0 -3 3 3 3 0 0 0 3 3 3 3 0 0 0 3-3 3 3 0 0 0 -3-3zm-1 1.5h.293c.051 0 .102.011.146.037l2.05 1.201c.09.052.136.157.136.262s-.046.21-.137.262l-2.049 1.2a.287.287 0 0 1 -.146.038h-.293z"/><rect height="1" opacity=".5" rx=".5" width="10" x="3" y="11"/><rect height="3" rx="1.5" width="3" x="4" y="10"/></g><path d="m1 1v1h1v-1zm13 0v1h1v-1zm-13 2v1h1v-1zm13 0v1h1v-1zm-13 2v1h1v-1zm13 0v1h1v-1zm-13 2v1h1v-1zm13 0v1h1v-1zm-13 2v1h1v-1zm13 0v1h1v-1zm-13 2v1h1v-1zm13 0v1h1v-1zm-13 2v1h1v-1zm13 0v1h1v-1z" opacity=".3"/></svg>