<svg height="16" width="16" xmlns="http://www.w3.org/2000/svg">
    <path d="M14.329 2.47a.273.273 0 0 0-.381-.103l-2.806 1.701a.303.303 0 0 0-.107.398l.216.392a.274.274 0 0 0 .381.103l2.807-1.702a.303.303 0 0 0 .106-.397z" fill="#ab47bc"/>
    <path d="M14.276 1.03c-.515-.098-1.053.053-1.558.35a.182.182 0 0 0-.067.246l1.822 3.28a.182.182 0 0 0 .23.08c.586-.248.985-.684 1.146-1.203.16-.52.084-1.115-.233-1.678-.353-.629-.825-.98-1.34-1.076z" fill="#ab47bc"/>
    <path d="M6 2c-.546 0-1 .449-1 1s.454 1 1 1 1-.449 1-1-.454-1-1-1z" fill="#6d6f69"/>
    <path d="M2 6C.898 6 0 6.898 0 8s.898 2 2 2 2-.898 2-2-.898-2-2-2z" fill="#3f51b5"/>
    <path d="M6 6c-1.102 0-2 .898-2 2s.898 2 2 2 2-.898 2-2-.898-2-2-2z" fill="#ab47bc"/>
    <path d="M10 11c-1.102 0-2 .898-2 2s.898 2 2 2 2-.898 2-2-.898-2-2-2z" fill="#795548"/>
    <path d="M14 6c-1.102 0-2 .898-2 2s.898 2 2 2 2-.898 2-2-.898-2-2-2z" fill="#ffc107"/>
    <path d="M2 11c-1.102 0-2 .898-2 2s.898 2 2 2 2-.898 2-2-.898-2-2-2z" fill="#795548"/>
    <path d="M10 6c-1.102 0-2 .898-2 2s.898 2 2 2 2-.898 2-2-.898-2-2-2z" fill="#f44336"/>
    <path d="M14 11c-1.102 0-2 .898-2 2s.898 2 2 2 2-.898 2-2-.898-2-2-2z" fill="#4caf50"/>
    <path d="M6 11c-1.102 0-2 .898-2 2s.898 2 2 2 2-.898 2-2-.898-2-2-2z" fill="#3f51b5"/>
    <path d="M2 1C.898 1 0 1.898 0 3s.898 2 2 2 2-.898 2-2-.898-2-2-2z" fill="#4caf50"/>
    <path d="M10 2c-.546 0-1 .449-1 1s.454 1 1 1 1-.449 1-1-.454-1-1-1z" fill="#6d6f69"/>
</svg>
