<svg height="64" width="64" xmlns="http://www.w3.org/2000/svg" xmlns:xlink="http://www.w3.org/1999/xlink"><filter id="a" color-interpolation-filters="sRGB" height="1.054" width="1.054" x="-.027" y="-.027"><feGaussianBlur stdDeviation=".61875"/></filter><linearGradient id="b" gradientUnits="userSpaceOnUse" x1="4.5" x2="59.5" y1="59.490002" y2="4.490002"><stop offset="0" stop-color="#263a61"/><stop offset="1" stop-color="#6285cc"/></linearGradient><rect fill="#141414" filter="url(#a)" height="55" opacity=".3" ry="15" stroke-linecap="round" stroke-width="2.74436" width="55" x="4.5" y="4.5"/><rect fill="url(#b)" height="54.999996" ry="14.999999" stroke-linecap="round" stroke-width="2.74436" width="54.999996" x="4.500002" y="4.500002"/><g fill="#5e4aa6"><g><circle cx="-1323.064365" cy="-1241.6" r="0"/><circle cx="-1214.664365" cy="-1301.8" r="0"/><circle cx="-1232.464365" cy="-1246" r="0"/></g><circle cx="-1231.6643" cy="-1267.7" r="0"/><circle cx="-132.12036" cy="-2.1829" fill-rule="evenodd" r="0"/></g><g transform="matrix(1.9551617 0 0 1.9551617 .755636 -.371612)"><g><path d="m10.961 15.052c-3.589 0-6.5313 2.9423-6.5313 6.5312 0 3.589 2.9423 6.5312 6.5313 6.5312 3.5891 0 6.5312-2.9423 6.5312-6.5312v-6.5312zm0 3h3.5312v3.5312c0 1.9658-1.5654 3.5312-3.5312 3.5312s-3.5313-1.5653-3.5313-3.5312c0-1.9658 1.5655-3.5312 3.5313-3.5312z" opacity=".35"/><path d="m21 5c-3.5891 0-6.5332 2.9423-6.5332 6.5312v6.5312h6.5332c3.589 0 6.5312-2.9423 6.5312-6.5312 0-3.589-2.9423-6.5312-6.5312-6.5312zm0 3c1.9658 0 3.5312 1.5653 3.5312 3.5312 0 1.9658-1.5655 3.5312-3.5312 3.5312h-3.5332v-3.5312c0-1.9658 1.5673-3.5312 3.5332-3.5312z" opacity=".35"/><path d="m17.531 15.02v6.5564c0 3.6286-2.942 6.5706-6.5706 6.5706-.55053 0-.94195-.06205-1.4516-.19529-.74309-.19455-1.3503-.80376-1.3505-1.5124 0-.85666.62173-1.4797 1.5512-1.4797.44232 0 .6029.08487 1.2509.08487 1.913 0 3.4648-1.5496 3.4683-3.4626v-3.0138a.48943.48943 0 0 0 -.49006-.4888l-2.2784-.000424c-.84888 0-1.5348-.67715-1.5348-1.5283-.000421-.85645.69303-1.5308 1.5511-1.5308" fill="#fff" stroke-width=".10516"/></g><path d="m14.429 18.094v-6.5564c0-3.6286 2.942-6.5706 6.5706-6.5706.55053 0 .94195.06205 1.4516.19529.74309.19455 1.3503.80376 1.3505 1.5124 0 .85666-.62173 1.4797-1.5512 1.4797-.44232 0-.6029-.08487-1.2509-.08487-1.913 0-3.4648 1.5496-3.4683 3.4626v3.0138a-.48943-.48943 0 0 0 .49006.4888l2.2784.000424c.84888 0 1.5348.67715 1.5348 1.5283.000421.85645-.69303 1.5308-1.5511 1.5308" fill="#fff" stroke-width=".10516"/></g></svg>