<svg height="16" width="16" xmlns="http://www.w3.org/2000/svg"><path d="m14.89 5.538a6.58 6.58 0 0 0 -1.772-3.402 6.785 6.785 0 0 0 -1.324-1.066 7.104 7.104 0 0 0 -2.971-1.027c-.13-.015-.263-.013-.392-.043h-.926c-.01.022-.032.014-.049.016-.238.02-.475.046-.71.089-1.721.313-3.133 1.125-4.226 2.437a6.42 6.42 0 0 0 -1.5 3.696c-.052.669-.002 1.632.15 2.286.114.486.283.956.51 1.405l.06.114a6.778 6.778 0 0 0 1.455 1.882c.317.286.656.545 1.022.77.97.592 2.02 1.176 3.144 1.292l.247.026c.082 0 .393.02.392.1-.004.686-.002 1.115-.002 1.8 0 .027.002.054.004.087 0 0 .275-.124.508-.234a14.544 14.544 0 0 0 3.21-2.115c.218-.19.427-.39.627-.598l.258-.268c.133-.137.248-.29.373-.434a7.15 7.15 0 0 0 .403-.52 8.59 8.59 0 0 0 .75-1.237c.108-.219.21-.44.3-.665.004-.004.008-.008.01-.013a7.814 7.814 0 0 0 .49-1.914c.03-.229.049-.459.06-.689.026-.495-.007-1.288-.1-1.775z" fill="#119184"/><g fill="#f4f4f7"><rect height="6" rx="1.125" ry="1.286" width="6" x="4" y="4"/><path d="m34.862 23.167-3.613-2.086-3.614-2.086 3.614-2.086 3.613-2.087v4.173z" transform="matrix(.55347 0 0 .66762 -6.295 -5.681)"/></g></svg>