<svg height="16" width="16" xmlns="http://www.w3.org/2000/svg"><path d="m8.042 0a1.775 1.82 0 0 0 -.93.243l-5.224 3.09a1.775 1.82 0 0 0 -.888 1.577v6.181a1.775 1.82 0 0 0 .888 1.576l5.224 3.09a1.775 1.82 0 0 0 1.776 0l5.224-3.09a1.775 1.82 0 0 0 .888-1.577v-6.18a1.775 1.82 0 0 0 -.888-1.576l-5.224-3.091a1.775 1.82 0 0 0 -.846-.243z" fill="#3476cc"/><path d="m1.18 4.114a1.775 1.82 0 0 0 -.18.795v6.181a1.775 1.82 0 0 0 .888 1.575l5.224 3.091a1.775 1.82 0 0 0 .888.243v-7.985z" fill="#f56666"/><path d="m14.825 4.129-6.825 3.901v7.969a1.775 1.82 0 0 0 .887-.243l5.225-3.09a1.775 1.82 0 0 0 .888-1.576v-6.18a1.775 1.82 0 0 0 -.175-.781z" fill="#7cce44"/></svg>