<svg height="16" width="16" xmlns="http://www.w3.org/2000/svg"><rect fill="#17191e" height="15" rx=".75" width="15" x="1" y="1"/><path d="m3 1v2h-2v1h2v2h-2v1h2v2h-2v1h2v2h-2v1h2v3h1v-3h2v3h1v-3h2v3h1v-3h2v3h1v-3h3v-1h-3v-2h3v-1h-3v-2h3v-1h-3v-2h3v-1h-3v-2h-1v2h-2v-2h-1v2h-2v-2h-1v2h-2v-2zm1 3h2v2h-2zm3 0h2v2h-2zm3 0h2v2h-2zm-6 3h2v2h-2zm3 0h2v2h-2zm3 0h2v2h-2zm-6 3h2v2h-2zm3 0h2v2h-2zm3 0h2v2h-2z" fill="#57c400" opacity=".2"/><path d="m14.5 13.5h-1.796l-2.473-10h-1.923m-5.808 10h1.796l2.473-10h1.923" fill="none" stroke="#85fc0e" stroke-linecap="round" stroke-linejoin="round"/></svg>