<svg xmlns="http://www.w3.org/2000/svg" width="16" height="16" version="1">
    <path style="fill:#f9f9f9" d="M.507 8.714s4.909 2.76 9.042 1.249c4.133-1.513 5.925-6.725 5.925-6.725s-4.638-2.068-8.77-.556C2.57 4.195.506 8.714.506 8.714z"/>
    <path style="fill:#395162" d="M4.018 6.848a3.504 3.504 0 0 0 3.83 3.134 3.504 3.504 0 0 0 3.134-3.83 3.504 3.504 0 0 0-3.83-3.134 3.504 3.504 0 0 0-3.134 3.83z"/>
    <path style="fill:#276e7a" d="M5.013 6.749a2.503 2.503 0 0 0 2.736 2.238 2.503 2.503 0 0 0 2.238-2.736 2.503 2.503 0 0 0-2.736-2.238 2.503 2.503 0 0 0-2.238 2.736z"/>
    <path style="fill:#323232" d="M7.504 5a1.501 1.501 0 1 0 .146 2.992 1.501 1.501 0 0 0 1.342-1.641A1.502 1.502 0 0 0 7.504 5z"/>
    <path style="fill:#ef46c4" d="M8.69 1.002c-.845.014-1.71.14-2.551.434C1.65 3 .029 8.37.029 8.37a.667.624 0 0 0 .29.711s5.054 3.034 9.542 1.469c4.488-1.566 6.11-6.936 6.11-6.936a.667.624 0 0 0-.29-.71S12.348.94 8.69 1.001zM10.136 3c2.67-.03 4.863.81 4.863.81s-1.788 4.397-5.654 5.75C5.48 10.915 1 8.714 1 8.714S3.02 4.89 6.887 3.537c1.087-.38 2.205-.525 3.25-.537z"/>
    <path style="fill:#ef46c4" d="m.113 8.586.247.15c.108 0-.416.135-.324.347C.61 10.398 2.902 15 6.973 15c4.535 0 7.052-3.316 7.052-3.316s-3.226 1.683-6.473 1.474C3.422 12.89.144 8.626.113 8.586z"/>
</svg>
