<svg xmlns="http://www.w3.org/2000/svg" width="16" height="16" version="1"><rect fill="#5584bb" width="16" height="16" rx="8" ry="8"/><path fill="#fff" d="M6 4.536a4 4 0 0 0-1.684 5.013l6.867-3.964A4 4 0 0 0 6 4.535zm-1.183 5.879A4 4 0 0 0 10 11.464a4 4 0 0 0 1.684-5.013l-6.867 3.964z"/><g fill="#fff"><path d="M7 2h2v1H7zM7 13h2v1H7zM14 7v2h-1V7zM3 7v2H2V7zM11.536 3.051l1.415 1.414-.707.707-1.415-1.414zM3.758 10.83l1.414 1.414-.707.707-1.414-1.415zM12.95 11.536l-1.414 1.415-.707-.707 1.415-1.415zM5.172 3.758 3.758 5.172l-.707-.707 1.414-1.414z"/></g></svg>