<svg height="16" width="16" xmlns="http://www.w3.org/2000/svg">
    <path d="M7.938 0v.002A7.981 7.981 0 0 0 0 8c0 4.432 3.568 8 8 8a7.98 7.98 0 0 0 7.985-7.524L16 8.462V1.6c0-.886-.714-1.6-1.6-1.6z" fill="#c9c9c9"/>
    <path d="M14 2c-4.976.172-8.02-.215-10.294 2.059a5.823 5.823 0 1 0 8.235 8.235C14.215 10.02 13.828 6.976 14 2z" fill="#2669ee"/>
    <path d="M8 4a3.999 3.999 0 1 0-.002 8A3.999 3.999 0 0 0 8 4zm.03 2a2 2 0 0 1 1.384.586 2 2 0 0 1 0 2.828 2 2 0 0 1-2.828 0 2 2 0 0 1 0-2.828A2 2 0 0 1 8.029 6z" fill="#f4f4f7"/>
</svg>
