<svg xmlns="http://www.w3.org/2000/svg" width="16" height="16" version="1">
    <path style="fill:#69787e" d="m4.403 4.403-.805.9 6.547 6.305c.548 1.672 1.641 2.867 2.785 4.017.414.448.429.52.87.08l.952-.953.952-.953c.44-.44.369-.455-.079-.869-1.15-1.144-2.346-2.236-4.018-2.784L5.304 3.598z"/>
    <path style="fill:#394f63" d="m4.403 4.403.9-.805 6.304 6.547c1.672.548 2.868 1.641 4.018 2.786.448.414.52.428.08.868l-.954.953z"/>
    <rect style="fill:#f2654f" width="10.323" height="3.441" x="-5.16" y="4.64" rx=".886" ry=".886" transform="rotate(-45)"/>
    <path style="fill:#69787e" d="M7.715.417.417 7.715l.868.868 7.298-7.298z"/>
    <path style="fill:#4b565a" d="M4.566 2 2 4.566V7h2.434L7 4.434V2H4.566z"/>
    <path style="fill:#40c900" d="m6.21 2.52-.28.28.28.28.281-.28zm-.56.56-.28.281.28.28.28-.28zm-.561.561-.28.28.28.281.28-.28zm-.561.561-.28.28.28.281.28-.28zm-.561.561-.281.28.28.282.281-.281zm-.562.562-.28.28.28.28.28-.28zm-.56.56-.281.281.28.28.28-.28z"/>
</svg>
