<svg height="16" width="16" xmlns="http://www.w3.org/2000/svg"><rect fill="#00695c" height="16" rx=".8" width="16"/><path d="m12 3c-.554 0-1 .446-1 1v8c0 .554.446 1 1 1s1-.446 1-1v-8c0-.554-.446-1-1-1z" opacity=".2"/><path d="m11 7v5c0 .554.446 1 1 1s1-.446 1-1v-5z" fill="#7cb342"/><path d="m4 3c-.554 0-1 .446-1 1v8c0 .554.446 1 1 1s1-.446 1-1v-8c0-.554-.446-1-1-1z" opacity=".2"/><path d="m3 7v5c0 .554.446 1 1 1s1-.446 1-1v-5z" fill="#7cb342"/><rect fill="#b5b5b5" height="3" rx="1" width="4" x="2" y="5"/><rect fill="#b5b5b5" height="3" rx="1" width="4" x="10" y="5"/><path d="m8 3c-.554 0-1 .446-1 1v8c0 .554.446 1 1 1s1-.446 1-1v-8c0-.554-.446-1-1-1z" opacity=".2"/><path d="m7 10v2c0 .554.446 1 1 1s1-.446 1-1v-2z" fill="#7cb342"/><rect fill="#b5b5b5" height="3" rx="1" width="4" x="6" y="8"/></svg>