<svg xmlns="http://www.w3.org/2000/svg" width="16" height="16" version="1">
    <rect fill="#fecd38" width="16" height="16" rx="8" ry="8"/>
    <circle fill="#31b03b" cx="8" cy="8" r="6"/>
    <path fill="#fff" d="M3 5h1v5H3zm2 0h1v4H5zm3 0a2 2 0 0 0-2 2 2 2 0 0 0 2 2 2 2 0 0 0 2-2 2 2 0 0 0-2-2zm0 1a1 1 0 0 1 1 1 1 1 0 0 1-1 1 1 1 0 0 1-1-1 1 1 0 0 1 1-1z"/>
    <path fill="#fff" d="M3 6h3v1H3z"/>
    <g fill="#fff">
        <path d="M13 5h-1v5h1zm-2 0h-1v4h1z"/>
        <path d="m11 5 1.358 2.294.05.542-.177.273.167 1.241-.084-.222-.55-.952-1.564-2.71z"/>
    </g>
    <path fill="#fff" d="M6 10h4v1H6z"/>
</svg>
