<svg height="16" width="16" xmlns="http://www.w3.org/2000/svg"><path d="m16 8a8 8 0 0 1 -8 8 8 8 0 0 1 -8-8 8 8 0 0 1 8-8 8 8 0 0 1 8 8z" fill="#17191e"/><path d="m8 0a8 8 0 0 0 -1.76.206l1.76 7.394 1.76-7.397a8 8 0 0 0 -1.76-.203z" fill="#ff5454"/><path d="m13.871 2.577-5.525 5.223 7.285-2.173a8 8 0 0 0 -1.76-3.05z" fill="#fff129"/><path d="m2.13 2.579a8 8 0 0 0 -1.77 3.046l7.295 2.175z" fill="#c552da"/><path d="m7.654 8.2-7.285 2.173a8 8 0 0 0 1.76 3.05z" fill="#336eef"/><path d="m8.346 8.2 5.524 5.221a8 8 0 0 0 1.77-3.046z" fill="#45cb32"/><path d="m8 8.4-1.76 7.397a8 8 0 0 0 1.76.203 8 8 0 0 0 1.76-.206z" fill="#00d4ea"/></svg>