<svg xmlns="http://www.w3.org/2000/svg" width="16" height="16" version="1">
    <path style="opacity:.2;fill:#f4f4f7" d="M106.538-42.516c-1.108 0-2 .892-2 2v1c0-1.108.892-2 2-2h36c1.108 0 2 .892 2 2v-1c0-1.108-.892-2-2-2z"/>
    <path style="fill:#17191e" d="M4.59 0a2.116 2.116 0 0 0-.49.05 2.455 2.455 0 0 0-1.75 1.464 2.554 2.554 0 0 0-.174.95c-.222.094-.44.2-.615.355A2.35 2.35 0 0 0 .79 5.09c.017.085.02.035.034.092-.24.208-.44.44-.54.635C-.248 6.845.068 7.72.411 8.53c.343.81.871 1.706 1.624 2.85.695 1.056 1.244 1.752 1.917 2.395 1.909 1.825 4.26 2.625 6.565 2.034 1.854-.475 3.445-1.666 4.368-3.32.893-1.602 1.225-3.658 1.082-5.668-.072-1.01-.153-1.747-.469-2.487a2.6 2.6 0 0 0-.809-1.077 2.39 2.39 0 0 0-1.381-.456c-.664.001-1.512.395-1.963.953C10.344 2.18 9.588 1.107 8.533.495c-.67-.389-1.644-.593-2.516.004A2.532 2.532 0 0 0 4.59 0z"/>
    <path style="fill:#ffca34" d="M9.983 13.846c1.355-.346 2.51-1.217 3.165-2.387.616-1.101.944-2.865.83-4.464-.126-1.76-.402-2.37-1-2.37-.555 0-.891.392-1.176 1.517-.059.231-.14.471-.18.534-.097.15-.328.15-.5 0-.073-.063-.423-.576-.778-1.142C9.125 3.591 8.35 2.62 7.74 2.266c-.33-.192-.674-.203-.86-.028-.241.226-.168.625.241 1.312 1.85 3.11 1.842 3.094 1.54 3.13-.164.019-.031.194-1.758-2.315-.755-1.098-1.45-2.068-1.543-2.157-.396-.373-1.081-.22-1.292.288-.156.377-.117.452 1.438 2.787"/>
</svg>
