<svg xmlns="http://www.w3.org/2000/svg" width="16" height="16">
    <path style="fill:#24be65" d="M3.149 14.127c-2.143-1.08-2.233-1.146-2.116-1.557.116-.408 1.867-2.26 2.725-2.66l.669-.31.61.425c.767.536 1.472.76 2.415.767.946.007 1.608-.096 2.434-.74l.708-.452.67.31c.369.169 1.15 1.119 1.735 1.621 1.47 1.261 1.466 1.27-.991 2.514a44.53 44.53 0 0 1-1.716.83c-.437.241-.49.072-.737-.182C9.189 14.377 8.513 14 7.5 14c-1.105 0-1.77.456-2.084.776-.225.343-.36.22-.667.103-.39-.164-.981-.44-1.6-.752zM.098 9.908C.044 9.854 0 8.868 0 7.718V5.626l.69-.299c1.177-.51 1.494-1.335 1.323-2.557-.041-.295-.032-.605.02-.687C2.155 1.888 5.703 0 5.929 0a.44.44 0 0 1 .297.16"/>
    <circle style="fill:#f4f4f7" cx="7.5" cy="7.5" r="3.5"/>
</svg>
