<svg height="16" width="16" xmlns="http://www.w3.org/2000/svg"><path d="m3.45 5.621c-1.937 0-3.45.84-3.45 2.78.017.173 0 .344 0 .497.013 2.063.907 3.835 3.026 6 .592.607 1.157 1.102 1.257 1.102s.478-.281.84-.624l.66-.624c-.735-.974-1.335-1.92-1.728-3.059 1.705-.269 2.26-2.035 2.26-3.763 0-1.94-.926-2.309-2.864-2.309z" fill="#8b3391"/><circle cx="3.5" cy="8.5" fill="#bb3ecc" r="3.5"/><path d="m11.55 11.379c1.937 0 3.45-.84 3.45-2.78-.017-.173 0-.344 0-.497-.013-2.063-.907-3.835-3.026-6-.592-.607-1.157-1.102-1.257-1.102s-.478.281-.84.624l-.66.624c.735.974 1.335 1.92 1.728 3.059-1.705.269-2.26 2.035-2.26 3.763 0 1.94.926 2.309 2.864 2.309z" fill="#8b3391"/><circle cx="-11.5" cy="-8.5" fill="#bb3ecc" r="3.5" transform="scale(-1)"/></svg>