<svg height="16" width="16" xmlns="http://www.w3.org/2000/svg">
    <rect fill="#9f63e0" height="15" rx="7.5" width="15" x="1" y="1"/>
    <path d="M8.5 3C7.669 3 7 3.669 7 4.5v3.875l.003.03A3 3 0 0 0 5.5 11a3 3 0 1 0 4.497-2.597c0-.01.003-.019.003-.028V4.5C10 3.669 9.331 3 8.5 3zm0 1.125c.208 0 .375.167.375.375v4.625a.374.374 0 1 1-.75 0V4.5c0-.208.167-.375.375-.375z" fill="#393e47"/>
    <g fill="#60b8fe">
        <rect height="5.35" rx=".375" ry=".382" width=".75" x="8.13" y="6.03"/>
        <circle cx="8.5" cy="11" r="1.875"/>
    </g>
</svg>
