<svg xmlns="http://www.w3.org/2000/svg" width="16" height="16" version="1"><path fill="#4f4f4f" d="M4 1C1.784 1 0 2.784 0 5l.008 1.91C.007 6.94 0 6.97 0 7c0 .026.007.05.008.076l.021 6.067c-.251 1.482 1.187 2.419 2.395.798L4.553 11h6.894l2.129 2.941c1.208 1.621 2.646.684 2.395-.798l.021-6.067C15.993 7.05 16 7.026 16 7c0-.024-.007-.046-.008-.07L16 5c0-2.216-1.784-4-4-4H4z"/><g fill="#f4f4f7"><rect width="2" height="4" x="3" y="3" ry="0"/><rect width="2" height="4" x="4" y="2" ry="0" transform="matrix(0 1 1 0 0 0)"/></g><path fill="#ee5353" d="M12.023 2.805a.75.75 0 0 0-.75.75.75.75 0 0 0 .75.75.75.75 0 0 0 .75-.75.75.75 0 0 0-.75-.75z"/><path fill="#ffca58" d="M13.46 4.211a.75.75 0 0 0-.75.75.75.75 0 0 0 .75.75.75.75 0 0 0 .75-.75.75.75 0 0 0-.75-.75z"/><path fill="#ee5353" d="M10.5 4.243a.75.75 0 0 0-.75.75.75.75 0 0 0 .75.75.75.75 0 0 0 .75-.75.75.75 0 0 0-.75-.75z"/><path fill="#ffca58" d="M12.024 5.72a.75.75 0 0 0-.75.75.75.75 0 0 0 .75.75.75.75 0 0 0 .75-.75.75.75 0 0 0-.75-.75z"/></svg>