<svg height="16" width="16" xmlns="http://www.w3.org/2000/svg">
    <path d="M2 11h11v3h-2v2H4v-2H2z" fill="#994c1f"/>
    <path d="M2 3h11v9h-2v2H4v-2H2z" fill="#b06332"/>
    <path d="M2 2v3h7V2zm7 2v3h4V4z" fill="#4f4f4f"/>
    <path d="M2 0v3h7v2h5V0z" fill="#ae1919"/>
    <path d="M2 7h11v2H2z" fill="#93481e"/>
    <path d="M9 7h2v2H9zM4 7h2v2H4z" fill="#17191e"/>
    <path d="M6 9h3v1H6z" fill="#c77947"/>
    <path d="M5 12h5v1H5z" fill="#703717"/>
    <path d="M9 0h5v5H9z" fill="#862014"/>
</svg>
