<svg height="16" width="16" xmlns="http://www.w3.org/2000/svg">
    <path d="M8.545 0a1.902 1.82 0 0 0-.996.243L1.95 3.333A1.902 1.82 0 0 0 1 4.91v6.182a1.902 1.82 0 0 0 .951 1.575l5.598 3.09a1.902 1.82 0 0 0 1.902 0l5.598-3.09A1.902 1.82 0 0 0 16 11.09V4.909a1.902 1.82 0 0 0-.951-1.575L9.45.243A1.902 1.82 0 0 0 8.545 0z" fill="#e43e54"/>
    <path d="M8.5 2 3 5.038v5.922L8.5 14l5.5-3.04V5.038z" fill="#343b45"/>
    <path d="M7.019 5c-1.116 0-2.02 1.03-2.02 2.3 0 1.979 3.112 3.534 3.5 4.7" fill="#e43e54"/>
</svg>
