<svg xmlns="http://www.w3.org/2000/svg" height="16" width="16"><path style="fill:#00969b" d="M8 0S1 0 1 5c0 1.7 1 4 1 5s-1 2-1 3 1 2 1 2v-2c0 2 1 3 1 3s-.347-1 0-3c0 2 2 3 2 3s0-1 1-2c.377 1 0 2 0 2l2-3 2 3s-.346-1 0-2c1 1 1 2 1 2s1.542-1 2-3c.449 1 0 3 0 3s1-1 1-3v2s1-1 1-2-1-2-1-3 1-3.3 1-5c0-5-7-5-7-5z"/><path style="fill:#fbcaa6" d="M3 6c0 6 3 9 5 9s5-3 5-9c0-1.944-1-3-5-3S3 4 3 6z"/><path style="fill:#4135e2" d="M9 8v1l1 1 .828 3.316a7.72 7.72 0 0 0 .733-1.076L11 10l-1-1V8H9zm2 0v1l1 1 .207.832c.143-.387.268-.807.377-1.248L12 9V8h-1z"/><path style="fill:#008918" d="M2 6c0 4 1 4 1 4 3 0 3-1 5-1s2 1 5 1c0 0 1 0 1-4 0-1-3-2-6-2S2 5 2 6z"/><path style="fill:#41dbe0" d="M8 0C2 0 1 2 1 4v2c0 1 1 2 1 2V5c0 2 1 3 1 3l2-4c-.484 2-1 3-1 3s1.637-1 2-2c0 1-.373 2-.373 2S7.61 5 8 4c.433 1 2 2 2 2s-.412-1 0-2c.536 2 2 4 2 4s-1-2-1-4l2 4s1-1 1-3v3s1-1 1-2V4c0-2-1-4-7-4z"/><path style="stroke-linejoin:round;stroke:#17191e;stroke-linecap:round;stroke-width:1px;fill:none" d="M6.5 11.5s.5 1 1.5 1 1.5-1 1.5-1"/><path style="fill:#f4f4f7" d="M1.488 0a1 1 0 0 0-.695.293l-.5.5a1 1 0 0 0-.125 1.262l1 1.5A1 1 0 0 0 2 4h1a1 1 0 0 0 1-1V2a1 1 0 0 0-.445-.832l-1.5-1A1 1 0 0 0 1.488 0zM14.484 0a1 1 0 0 0-.539.168l-1.5 1A1 1 0 0 0 12 2v1a1 1 0 0 0 1 1h1a1 1 0 0 0 .832-.445l1-1.5a1 1 0 0 0-.125-1.262l-.5-.5A1 1 0 0 0 14.484 0z"/><circle style="fill:#35b046" cx="2.5" cy="2.5"/><circle style="fill:#35b046" cx="13.5" cy="2.5"/><path style="fill:none" d="M5 11h6l-3 2z"/></svg>