<svg height="16" width="16" xmlns="http://www.w3.org/2000/svg"><path d="m6.46 4.8c-3.07 0-5.46.897-5.46 2v7.2c0 1.105 2.39 2 5.46 2 3.072 0 5.54-.895 5.54-2v-1h.42c1.535 0 2.58-1.053 2.58-2.6 0-1.546-1.045-2.4-2.58-2.4h-.42v-1.2c0-1.104-2.468-2-5.54-2zm5.54 4.2h.465c.97 0 1.535.365 1.535 1.385s-.565 1.615-1.535 1.615h-.465z" fill="#ecd09e"/><ellipse cx="6.5" cy="6.85" fill="#f4f4f7" opacity=".2" rx="5.5" ry="2.15"/><ellipse cx="6.487" cy="6.75" fill="#c64e27" rx="4.5" ry="1.25"/><path d="m7.002 0c.813.679 1.807 1.383 1.99 2.383.162.896-1.948 1.179-2.257 2.268-.136.479.902 1.654.771 2.349h-2.045c-.952-.716-1.51-2.05-1.458-3.02.077-1.384 2.767-1.38 3.613-2.367.33-.385-.614-1.613-.614-1.613z" fill="#989898"/></svg>