<svg height="16" width="16" xmlns="http://www.w3.org/2000/svg"><path d="m4.616 0c-2.549 0-4.616 2.352-4.616 5.253 0 .78.12 1.53.333 2.246 0 0 .192.646.362 1.002 1.946 4.549 7.305 7.499 7.305 7.499s5.359-2.95 7.305-7.5c.17-.355.362-1 .362-1a7.891 7.891 0 0 0 .333-2.248c0-2.9-2.067-5.252-4.616-5.252-1.337 0-2.54.566-3.384 1.6a4.291 4.291 0 0 0 -3.384-1.6z" fill="#ffbd4a"/><path d="m13.983 6.001a.8.8 0 0 1 .375.071c.587.264.73 1.077.595 1.553-.28.902-1.084 2.406-2.161 3.469-.475.451-1.097 1.018-1.77.887-.532-.158-.829-.28-.975-.577-.235-.77.47-1.085.88-1.488.897-.895 1.834-2.253 2.286-3.16.25-.464.295-.643.77-.755z" fill="#ee6d51"/><path d="m10.969 6.012c-.224.029-.443.155-.625.426-.118.172-.22.38-.293.609-.092.389-.084.548.234.896.143.14.285.278.426.412.807.775 2.074 1.901 3.033 2.733.438-.564.843-1.166 1.184-1.807-.573-.495-1.262-1.088-1.559-1.365" fill="#ff7d5f"/></svg>