<svg xmlns="http://www.w3.org/2000/svg" width="16" height="16"><circle style="fill:#f4f4f7" cx="8" cy="8" r="8"/><path style="fill:#3aaaff" d="M6.421 5.339c-.456-1.514-3.033-1.247-3.464-1.28.484-.24.918-.051 1.915-.773 1.92-1.391 3.267-1.41 4.285-.857-2.783.105-1.564 1.657-1.154 2.456-.522.151-1.345.38-1.582.454z"/><path style="fill:#008bff" d="M13.292 3.255c-1.003 1.324-2.669 3.113-4.493 3.348-1.824.236-3.734-.025-4.136 1.333-.371 1.251 1.105 2.42 2.458 2.138 1.445-.301 1.133-1.94.342-3.055.6-.034.247.175 1.266.124l.661 2.062c.38.953 1.434 3.117 1.61 4.795-.845-1.215-1.409-1.661-2.719-2.538-1.678-1.122-3.209-1.16-3.995-2.814-.785-1.65.425-2.84 2.284-3.354 2.657-.736 4.947-1.433 6.722-2.039z"/><path style="fill:#3aaaff" d="M7.463 7.019c.6-.034.489-.026 1.507-.077 1.518 1.294 2.021 1.241 4.673 3.129-2.665-.19-4.682-.555-6.18-3.052z"/><path style="fill:#0cf" d="M2.957 4.059c.484-.24.92-.338 1.917-1.06 1.92-1.391 3.954-1.088 4.972-.535-2.784.106-2.425.66-2.435 1.095-1.85-.39-2.39.04-4.454.5z"/><path style="fill:#008bff" d="M9.846 2.464c-2.784.106-2.253 1.622-1.843 2.421-.325.094-.463.202-.897.317-1.752-3.122 1.31-3.528 2.74-2.738z"/><path style="fill:#0cf" d="M4.787 9.426c-1.362-1.754-.94-3.362 1.728-4.197 2.632-.824 5.002-1.368 6.777-1.974C8.502 5.08 2.332 6.3 4.787 9.425z"/></svg>