<svg xmlns="http://www.w3.org/2000/svg" width="16" height="16"><path style="fill:#00acc1" d="M8 0a8 8 0 0 0-8 8v7.2c0 .443.357.8.8.8H8a8 8 0 0 0 8-8V.8c0-.443-.357-.8-.8-.8z"/><path style="fill:#f4f4f7" d="M9.006 1 7 1.399v8.513L8.994 9.6V6l2.806 4 2.189-1L11 5.6 14.011 2 11.8 1 8.994 5.2V1z"/><path style="fill:#f4f4f7" d="M4.281 4.201c-.024.003-.051.009-.07.028l-.854.847a.107.107 0 0 0-.013.133l.908 1.488a4.367 4.367 0 0 0-.49 1.125l-1.674.346A.114.114 0 0 0 2 8.279v1.198c0 .05.039.093.088.105l1.623.39c.102.452.275.877.504 1.264l-.945 1.43a.11.11 0 0 0 .013.139l.854.847a.11.11 0 0 0 .134.014l1.477-.89c.365.217.763.384 1.186.49l.345 1.646c.011.05.053.088.106.088h1.207c.05 0 .093-.033.105-.082l.41-1.658c.427-.11.824-.289 1.19-.514l1.482.965a.112.112 0 0 0 .139-.014l.85-.845a.11.11 0 0 0 .017-.135l-.58-.947-.19.058a.068.068 0 0 1-.074-.027l-.322-.438c-.06-.09-.55-.687-.89-1.12A3 3 0 0 1 8 12a3 3 0 0 1-3-3 3 3 0 0 1 1.4-2.535v-1.59c-.223.083-.37.184-.574.3L4.35 4.218A.1.1 0 0 0 4.28 4.2z"/></svg>