<svg height="16" width="16" xmlns="http://www.w3.org/2000/svg">
    <rect fill="#4f4f4f" height="16" rx=".8" width="16"/>
    <path d="M4.115 0A.772.772 0 0 0 4 .4v4.8c0 .443.372.8.834.8h8.332c.462 0 .834-.357.834-.8V.4a.774.774 0 0 0-.115-.4zm6.315 1h2.14c.238 0 .43.197.43.443v3.114a.436.436 0 0 1-.43.443h-2.14a.436.436 0 0 1-.43-.443V1.443c0-.246.192-.443.43-.443z" fill="#b7b7b7"/>
    <path d="M2.75 8a.762.762 0 0 0-.75.777V13h12V8.777A.762.762 0 0 0 13.25 8zM2 14.111v.112c0 .431.335.777.75.777-.415 0-.75-.397-.75-.889zm12 0c0 .492-.335.889-.75.889.416 0 .75-.346.75-.777z" fill="#f4f4f7"/>
    <path d="M14 13v1.111c0 .492-.335.89-.75.89H2.75c-.415 0-.75-.398-.75-.89v-1.11z" fill="#ffae3f"/>
</svg>
