<svg xmlns="http://www.w3.org/2000/svg" width="16" height="16" version="1"><path style="fill:#17191e" d="M16 8a8 8 0 0 1-8 8 8 8 0 0 1-8-8 8 8 0 0 1 8-8 8 8 0 0 1 8 8z"/><path style="fill:#ffd737" d="M8 4a4 4 0 0 0-2.246.691c.191.288.437.533.723.729A3 3 0 0 1 8 5a3 3 0 0 1 1.525.422c.284-.195.53-.44.721-.727A4 4 0 0 0 8 4zM4.008 7.752a4 4 0 0 0 2.059 3.744c.14-.315.219-.663.228-1.03a3 3 0 0 1-1.291-2.359c-.303-.185-.64-.3-.996-.355zm7.98 0a2.663 2.663 0 0 0-.994.361 3 3 0 0 1-1.289 2.35c.009.37.089.72.23 1.037A4 4 0 0 0 12 8a3.934 3.934 0 0 0-.012-.248z"/><path style="fill:#ff950a" d="M7.77.009a8 8 0 0 0-2.341.426A4.4 4.4 0 0 0 3.6 4a4.4 4.4 0 0 0 .316 1.632A4.4 4.4 0 0 0 .09 9.144a8 8 0 0 0 .311 1.33A3.2 3.2 0 0 1 .4 10.4a3.2 3.2 0 0 1 3.2-3.2 3.2 3.2 0 0 1 2.728 1.532l.547-.316A1.2 1.2 0 0 1 6.8 8a1.2 1.2 0 0 1 1-1.184V6.39a3.2 3.2 0 0 1-3-3.19A3.2 3.2 0 0 1 7.77.009zm.553.007A3.2 3.2 0 0 1 11.2 3.2a3.2 3.2 0 0 1-3 3.193v.426A1.2 1.2 0 0 1 9.2 8a1.2 1.2 0 0 1-.052.35l.561.324A3.2 3.2 0 0 1 12.4 7.2a3.2 3.2 0 0 1 3.2 3.2 3.2 3.2 0 0 1-.005.095 8 8 0 0 0 .316-1.372 4.4 4.4 0 0 0-3.827-3.494A4.4 4.4 0 0 0 12.4 4 4.4 4.4 0 0 0 10.56.429 8 8 0 0 0 8.324.016zm.644 8.692A1.2 1.2 0 0 1 8 9.2a1.2 1.2 0 0 1-.925-.437l-.56.325A3.2 3.2 0 0 1 6.8 10.4a3.2 3.2 0 0 1-3.2 3.2 3.2 3.2 0 0 1-1.805-.557 8 8 0 0 0 1.044 1.069A4.4 4.4 0 0 0 4.4 14.4a4.4 4.4 0 0 0 3.602-1.877A4.4 4.4 0 0 0 11.6 14.4a4.4 4.4 0 0 0 1.548-.287 8 8 0 0 0 1.06-1.076 3.2 3.2 0 0 1-1.808.563 3.2 3.2 0 0 1-3.2-3.2 3.2 3.2 0 0 1 .315-1.376z"/></svg>