<svg xmlns="http://www.w3.org/2000/svg" width="16" height="16" version="1"><defs><linearGradient id="a" x2="0" y1="24" y2="19" gradientTransform="matrix(.48311 0 0 .6 -2.797 -6.4)" gradientUnits="userSpaceOnUse"><stop offset="0" stop-color="#484848"/><stop offset=".494" stop-color="#505050"/><stop offset="1" stop-color="#484848"/></linearGradient></defs><rect fill="#f4f4f7" width="16" height="16" rx=".857" ry=".857"/><path fill="url(#a)" fill-rule="evenodd" d="M3.257 5C3.115 5 3 5.134 3 5.3v2.4c0 .166.115.3.258.3h8.438c.514 0 .927-.463.96-1.051A.362.45 0 0 0 13 6.5a.362.45 0 0 0-.344-.449C12.623 5.463 12.21 5 11.696 5H3.258z"/><path fill="#8d6a3e" d="M6 8v1h5l2 2v-.5L11 8z"/><path fill="#b58a55" d="M6.5 8A1.5 1.5 0 0 0 5 9.5 1.5 1.5 0 0 0 6.5 11 1.5 1.5 0 0 0 8 9.5 1.5 1.5 0 0 0 6.5 8zm.15.31a1.2 1.2 0 0 1 .585.243l-.585.585V8.31m-.3.001v.827l-.585-.585a1.2 1.2 0 0 1 .585-.242m1.098.454a1.2 1.2 0 0 1 .241.585h-.827l.586-.585zm-1.895 0 .585.585h-.827a1.2 1.2 0 0 1 .242-.585m-.242.885h.827l-.585.585a1.2 1.2 0 0 1-.242-.584m1.551 0h.828a1.2 1.2 0 0 1-.243.584l-.585-.584m-.512.212v.827a1.2 1.2 0 0 1-.585-.242l.585-.585m.3 0 .585.585a1.2 1.2 0 0 1-.585.241v-.827z"/></svg>