<svg xmlns="http://www.w3.org/2000/svg" width="16" height="16"><path style="fill:#769edc" d="M8 0a8 8 0 0 0-8 8 8 8 0 0 0 8 8 8 8 0 0 0 8-8 8 8 0 0 0-8-8z"/><path style="fill:#313131" d="M8.068 3c-.067 0-.054.25.017.307.08.064.196.288.23.442l.027.12-.219.045c-.52.105-.622.447-.286.965.118.181.12.186.097.58-.018.296-.009.447.034.589.068.22.255.422.452.486.217.07.808.037 1.027-.059.24-.104.552-.415.64-.636.102-.26.063-.62-.1-.934-.158-.302-.568-.712-.853-.852-.15-.074-.222-.137-.272-.243C8.79 3.659 8.144 3 8.068 3zm-2.84.714a.032.032 0 0 0-.025.01c-.078.075-.142.466-.134.83.006.347-.003.418-.075.533-.239.383-.28 1.085-.086 1.483.172.352.456.566.888.67.302.07.507.061.79-.038.783-.272.919-.804.357-1.403-.228-.243-.334-.44-.334-.62a.833.833 0 0 0-.225-.577c-.128-.13-.135-.132-.379-.111a3.348 3.348 0 0 0-.357.046c-.1.024-.116.012-.187-.14a.966.966 0 0 1-.08-.342c0-.15-.09-.335-.153-.34zm6.922 1.43c-.084-.018-.11.2-.043.357a.696.696 0 0 1 .046.275l-.01.142-.18.003a.41.41 0 0 0-.305.11c-.114.097-.288.425-.289.545 0 .026-.107.284-.236.572-.13.288-.248.58-.261.65-.074.374.13.655.617.85.206.082.42.088.654.019.379-.112.622-.325.77-.672.077-.184.088-.258.087-.59-.002-.432-.076-.705-.274-1.016a1.596 1.596 0 0 1-.17-.419c-.062-.273-.325-.808-.406-.826zm-9.104 2.5c-.01-.002-.017 0-.022.005-.075.08.038.858.15 1.043.029.046.068.2.09.345.096.652.55 1.261 1.067 1.43.177.058.56.038.807-.044.204-.067.274-.113.428-.287.32-.36.378-.716.163-1.005a1.793 1.793 0 0 0-.386-.318 17.558 17.558 0 0 1-.6-.4c-.511-.36-.565-.395-.706-.437-.179-.053-.362.004-.51.159l-.117.121-.073-.129a.56.56 0 0 1-.074-.208c0-.078-.152-.26-.217-.275zm6.206.713a3.194 3.194 0 0 0-.757.112c-.817.207-1.203.454-1.379.88-.076.185-.082.248-.061.602.02.359.015.412-.065.591-.082.182-.175.284-.606.666-.137.12-.15.149-.165.371-.014.207 0 .276.098.498.212.473.595.79 1.073.888.227.046.376.047.765.001 1.512-.177 3.251-.75 3.748-1.235.26-.254.362-.488.38-.86.033-.709-.27-1.134-.813-1.137-.424-.002-.85-.261-1.026-.623-.13-.269-.393-.536-.638-.65a1.291 1.291 0 0 0-.554-.104z"/></svg>