<svg height="16" width="16" xmlns="http://www.w3.org/2000/svg"><path d="m-12-14h9v13h-9z" fill="#bc494d" transform="matrix(0 -1 -1 0 0 0)"/><path d="m2 5v5h1v-2h2v-1h-2v-1h2v-1h-2zm4 0v1h1v4h1v-4h1v-1h-2zm4 0v5h1v-2h2v-3h-2zm1 1h1v1h-1z" fill="#f4f4f7"/><g fill="#3f92f7"><rect height="2" rx=".667" ry="1" width="12" x="1" y="2"/><path d="m12.585 1a.571.515 0 0 0 -.585.515v2.97a.571.515 0 0 0 .857.446l1.429-.743 1.428-.742a.571.515 0 0 0 0-.892l-1.428-.742-1.429-.743a.571.515 0 0 0 -.272-.069z"/><rect height="2" rx=".667" ry="1" transform="scale(-1 1)" width="12" x="-14" y="11"/><path d="m3.415 10a.571.515 0 0 1 .585.515v2.97a.571.515 0 0 1 -.857.446l-1.429-.743-1.428-.742a.571.515 0 0 1 0-.892l1.428-.742 1.429-.743a.571.515 0 0 1 .272-.069z"/></g></svg>