<svg height="64" viewBox="0 0 16.933 16.933" width="64" xmlns="http://www.w3.org/2000/svg">
    <filter id="a" color-interpolation-filters="sRGB" height="1.054" width="1.054" x="-.027" y="-.027">
        <feGaussianBlur stdDeviation=".619"/>
    </filter>
    <linearGradient id="b" gradientTransform="matrix(.08506 0 -.01306 .12588 3.614 .966)" gradientUnits="userSpaceOnUse" x1="86.345" x2="97.988" y1="58.765" y2="56.894">
        <stop offset="0"/>
        <stop offset=".825" stop-opacity=".055"/>
        <stop offset=".909" stop-opacity=".027"/>
        <stop offset=".929" stop-opacity=".02"/>
        <stop offset=".952" stop-opacity=".012"/>
        <stop offset="1" stop-opacity="0"/>
    </linearGradient>
    <linearGradient id="c" gradientUnits="userSpaceOnUse" x1="1.191" x2="10.445" y1="15.743" y2="1.191">
        <stop offset="0" stop-color="#0073c8"/>
        <stop offset="1" stop-color="#00a0e1"/>
    </linearGradient>
    <rect fill="#141414" filter="url(#a)" height="55" opacity=".3" ry="15" transform="scale(.26458)" width="55" x="4.5" y="4.5"/>
    <path d="M5.16 1.19h6.614a3.96 3.96 0 0 1 3.969 3.97v6.614a3.96 3.96 0 0 1-3.969 3.969H5.159a3.96 3.96 0 0 1-3.968-3.969V5.159a3.96 3.96 0 0 1 3.968-3.968z" fill="#007dcd"/>
    <path d="M5.46 1.852h6.013a3.6 3.6 0 0 1 3.608 3.608v6.013a3.6 3.6 0 0 1-3.608 3.608H5.46a3.6 3.6 0 0 1-3.608-3.608V5.46A3.6 3.6 0 0 1 5.46 1.852z" fill="#ebf0f5"/>
    <path d="m11.06 4.357-.001 1.52-1.52-.003-.002.919 1.52.002-.002 1.52.918.001.003-1.52 1.52.003V5.88l-1.52-.002.003-1.52zm-1.53 7.296-.002.918 3.958.006.001-.918z" fill="#007dcd"/>
    <path d="m10.66 1.851.006 13.229 1 .03c.293.03.581-.299.647-.736l1.705-11.38c.066-.437-.149-1.07-.441-1.1z" fill="url(#b)"/>
    <path d="M6.225 1.191c-.667 0-1.239.019-1.744.062A3.955 3.955 0 0 0 1.277 4.33v.003c-.063.608-.085 1.334-.086 2.194v3.88c0 .86.023 1.587.086 2.196a3.955 3.955 0 0 0 3.2 3.078c.507.043 1.079.062 1.748.062h4.22c.007-.016.018-.03.025-.045a4.053 4.053 0 0 0 .32-1.59V2.827a4.124 4.124 0 0 0-.32-1.59c-.007-.015-.018-.029-.025-.045z" fill="url(#c)"/>
    <path d="M8.102 5.802H6.79l-.783 4.23-.805-4.228-1.328.001.005 5.327h.845L4.72 6.613l.812 4.518h.898l.827-4.52.004 4.519.846-.001z" fill="#f4f4f7"/>
</svg>
