<svg width="16" height="16" version="1" xmlns="http://www.w3.org/2000/svg">
    <rect width="16" height="16" rx=".8" ry=".8" style="fill:#8b9cbe"/>
    <path d="M9.048 1c-1.014.613-2.056 1.184-3.047 1.832a401.827 401.827 0 0 0-1.057 5.221c.382.486.802.941 1.198 1.415-.387-.123-.873-.401-1.3-.574.336 1.242.688 2.48 1.054 3.712.49-.042.977-.12 1.467-.165-.352.363-.732.697-1.086 1.057.619-.257 1.227-.538 1.844-.8.118.193-.233.888-.28 1.265.27-.437.527-.883.784-1.329l.237-.111s-.07-.07 0 0c.537.085 1.073.187 1.61.268-.483-.237-.974-.458-1.457-.695.483-.2.998-.352 1.492-.54-.486-.004-.971.01-1.457.004.078-.173.665-.479.918-.715-.354-.412-.754-.783-1.111-1.193.618-2.023 1.266-4.037 1.9-6.055C10.19 2.731 9.633 1.856 9.048 1z" style="fill:#ffc107"/>
    <path d="M8.556 2.746C7.7 5.042 7.162 7.818 7.03 10.384c-.031.357-.023.285.21.565C8.4 12.343 9.555 13.817 10.719 15v-.082c-1.113-1.525-2.225-2.812-3.338-4.169-.098-.116-.124-.118-.116-.26.148-2.571.726-5.419 1.292-7.743z" style="fill:#f4f4f7"/>
</svg>
