<svg height="16" width="16" xmlns="http://www.w3.org/2000/svg"><path d="m.8 1c-.442 0-.8.346-.8.777v11.223h16v-11.224a.788.788 0 0 0 -.801-.776h-14.398z" fill="#1e88e5"/><path d="m.8 15a.787.787 0 0 1 -.8-.778v-1.222h16v1.222a.788.788 0 0 1 -.8.778z" fill="#253951"/><path d="m5 5v4.5c0 .277.223.5.5.5h7c.277 0 .5-.223.5-.5v-4.5z" fill="#fff"/><path d="m5.5 4h7c.277 0 .5.223.5.5v.5h-8v-.5c0-.277.223-.5.5-.5z" fill="#253951"/><g fill="#fff"><rect height="1" rx=".125" width="1" x="1" y="2"/><rect height="1" rx=".125" width="1" x="1" y="4"/><rect height="1" rx=".125" width="1" x="1" y="6"/><rect height="1" rx=".125" width="1" x="1" y="8"/></g></svg>