<svg width="16" height="16" xmlns="http://www.w3.org/2000/svg"><circle cx="8" cy="8" r="8" style="fill:#55458f"/><path d="M8 2C5.667 2 4.225 3.314 3.605 4.553 2.986 5.79 3 7 3 7v4s.009.315.113.629c.105.314.312.71.68 1.078C4.529 13.443 5.833 14 8 14s3.471-.557 4.207-1.293c.368-.368.575-.764.68-1.078C12.99 11.315 13 11 13 11V7s.014-1.209-.605-2.447C11.775 3.314 10.333 2 8 2z" style="fill:#efefef"/><path d="M3 8s0-2 1-2c2 0 1 1 4 1s2-1 4-1c1 0 1 2 1 2v2s-1 2-5 2-5-2-5-2z" style="fill:#8b9cbe"/><path d="M11 6.145c-.613.227-.708.658-2 .804v4.989c.813-.079 1.471-.24 2-.446V6.145z" style="fill:#f4f4f7;opacity:.2"/></svg>