<svg height="16" width="16" xmlns="http://www.w3.org/2000/svg">
    <circle cx="8" cy="8" fill="#846847" r="8"/>
    <circle cx="8" cy="8" fill="#a4946c" r="6"/>
    <path d="M4.625 4.625 8 8H6.312z" fill="#d8cbb8"/>
    <path d="M4.625 4.625 8 8V6.312z" fill="#5d472e"/>
    <path d="M11.375 11.375 8 8h1.688z" fill="#d8cbb8"/>
    <path d="M11.375 11.375 8 8v1.688z" fill="#5d472e"/>
    <path d="M11.375 4.625 8 8V6.312z" fill="#d8cbb8"/>
    <path d="M11.375 4.625 8 8h1.688z" fill="#5d472e"/>
    <path d="M4.625 11.375 8 8v1.688z" fill="#d8cbb8"/>
    <path d="M4.625 11.375 8 8H6.312z" fill="#5d472e"/>
    <path d="M8 2v6L6.5 6.5z" fill="#d8cbb8"/>
    <path d="M8 2v6l1.5-1.5z" fill="#5d472e"/>
    <path d="M8 14V8l1.5 1.5z" fill="#d8cbb8"/>
    <path d="M8 14V8L6.5 9.5z" fill="#5d472e"/>
    <path d="M14 8H8l1.5-1.5z" fill="#d8cbb8"/>
    <path d="M14 8H8l1.5 1.5z" fill="#5d472e"/>
    <path d="M2 8h6L6.5 9.5z" fill="#d8cbb8"/>
    <path d="M2 8h6L6.5 6.5z" fill="#5d472e"/>
</svg>
