<svg height="16" width="16" xmlns="http://www.w3.org/2000/svg"><path d="m10.303 1.004c-2.433.039-7.69.415-8.651 1.968-.168.447-.468 2.02-.615 3.223-.034.277-.066.63-.1.957a3.273 3.316 0 0 0 -.937 2.322 3.273 3.316 0 0 0 .59 1.898c-.005.095-.034.496-.034.496-.044 1.539-.009 1.593 1.439 2.202 1.157.487 2.41.74 4.312.872 1.627.112 3.274.06 4.529-.143 2.206-.357 4.121-1.086 4.333-1.65.059-.155.147-.788.196-1.407.01-.125.016-.23.024-.346a3.273 3.316 0 0 0 .61-1.922 3.273 3.316 0 0 0 -.847-2.222c-.096-.627-.212-1.34-.366-2.271-.273-1.445-.598-2.829-.722-3.075-.364-.72-.81-.859-2.912-.901a20.42 20.42 0 0 0 -.849-.002z" fill="#7a6143"/><path d="m8.49 13.75c.46-.275.657-.653.387-.744-.09-.031-.328.065-.528.212-.446.33-1.064.354-1.608.062-.684-.367-1.013-.165-.467.286.604.499 1.557.578 2.216.184z" fill="#372c1e"/><circle cx="4" cy="9" fill="#37a643" r="3"/><circle cx="2.5" cy="9.5" fill="#372c1e"/><circle cx="12" cy="9" fill="#37a643" r="3"/><g fill="#372c1e"><circle cx="12.5" cy="9.5"/><path d="m13.303 2.65c.024.056-1.57.711-2.922 1.32-1.351.607-1.95.936-1.974.88-.014-.031.819-.566 1.382-.841 1.09-.475 2.186-.984 3.514-1.359z"/><path d="m12.158 5.474c-.058.015-.723-.628-1.357-1.485s-.997-1.604-.94-1.62c.058-.015.464.668 1.098 1.525.635.857 1.257 1.564 1.199 1.58z"/></g></svg>