<svg height="16" width="16" xmlns="http://www.w3.org/2000/svg">
    <path d="M8 0C3.59 0 0 3.591 0 8s3.591 8 8 8 8-3.591 8-8-3.591-8-8-8z" fill="#172f52"/>
    <path d="M8 2a6 6 0 0 0-6 6 6 6 0 0 0 6 6 6 6 0 0 0 6-6 6 6 0 0 0-6-6zM5.593 3.767h2.3l2.639 6.713 1.16-.378.388 1.3-2.504.723-1.684-4.269-2.469 3.891H3.875l3.448-5.569-.386-1.1H5.593V3.766z" fill="#6fa2cd"/>
    <circle cx="11.5" cy="11.5" fill="#4253cd" r="4.5"/>
    <path d="M11.5 9s-.354-.007-.724.178c-.369.184-.776.655-.776 1.322h1c0-.5.5-.5.5-.5s.5 0 .5.5a.82.82 0 0 1-.203.578c-.133.167-.347.334-.597.522s-.536.395-.778.697A1.924 1.924 0 0 0 10 13.5v.5h3v-1h-1.824c.015-.022.01-.056.027-.078.133-.167.347-.334.597-.522s.536-.395.778-.697S13 10.986 13 10.5c0-.667-.407-1.138-.776-1.322C11.854 8.993 11.5 9 11.5 9z" fill="#f4f4f7" fill-rule="evenodd"/>
</svg>
