<svg height="16" width="16" xmlns="http://www.w3.org/2000/svg">
    <rect fill="#f4f4f7" height="16" rx=".8" width="16"/>
    <path d="M8.773 13.963c-.308-.217-.674-.293-.593-.788-.392-.403-.17-1.001-.25-1.535a39.063 39.063 0 0 1-.5-2.107c-.417-.354.29-1.236-.213-1.342.038-.233-.115-.347.011-.638-.16-.224.14-.292-.15-.467-.07-.375-.685.082-.775-.149-.235.11-.472-.025-.726.127-.302-.089-.597.05-.937.05-.223.04-.423.41-.536.272-.283.366-.548.163-.907.112-.53-.322.169-.754.253-1.087.563-.4 1.298-.285 1.94-.178.475.095 1.108.309 1.516.211-.278-.128-.755-.2-1.072-.424-.218-.058-.342-.113-.37-.292-.248.105-.743.19-.352-.192.051-.255-.38.35-.559.37-.155.249-.15-.384-.338.086-.338.174.43-.559-.108-.434-.22.16-.197-.172-.405-.05-.246-.57.596-.754.807-.822.162-.34.86-.081 1.206-.124.288-.13.027-.538.393-.264.183-.114-.707-1.089-.133-.602.05.137.47.697.336.396-.329-.199.292-.386-.228-.483-.143-.2-.566-.552-.036-.478.49-.038 1.066.054 1.479.348.22.174.443.349.62.23-.216.147-.496.642-.029.387.212-.092.425-.284.528-.206.135-.122.314.397.602.098.257-.092.937-.208.992-.052-.346-.038-.48.327-.146.163.284-.089.677-.03.467.183.326-.093.612-.187.895.02-.013.245.892.55.219.51-.506-.16-.927 0-1.38.236-.194.168-.077.856.374.573.447-.173 1.133-.072 1.249.32.589-.17.62 1.326.118.528.155.268.066.506-.192.21-.312-.17-.777-.058-1.129-.261-.183.155-.381.005-.515.065-.129-.114.119.47-.155.027-.205.23-.437.264-.64.153-.147.183-.66.167-.764.027-.164.116-.737-.076-.554.343.493.527-.431.879-.272 1.516.007.385.41.763.066 1.035.058.285.207.597-.129.534-.073.323.11.204.224.24.13.04.178.062-.113.144-.157.4.449-.172.359.353.135.24.633.588.687-.07-.158-.593.075-1.165.095-1.745-.246.115-.52.14-.231-.179.096-.136.154-.256.27-.391.052-.06.148-.056.211-.113.056-.05.104-.235.152-.291.466-.254.473 1.456.641 1.987.094.334-.074.529-.144.104-.013-.229-.13-.927-.273-.865-.078.506.374 1.05.091 1.5.197.558-.034 1.122-.087 1.674-.144.328-.606.87-.583 1.23-.272-.065.061.442-.277.267zm.718-2.277c.172-.201-.045-1.012-.189-1.035-.057.254-.29.617-.333.81-.021.098.174.214.313.384.063-.035.131-.126.21-.16zm-1.415-.964c-.073-.11-.064.107 0 0zM9.615 5.8c.263-.022.786-.163.32-.232-.23-.38-1.016.503-.32.232zm-3.432-.997c.23.201.12-.406-.086 0-.016.188-.018.322.086 0zm1.09-.324c-.15-.147.022.239 0 0zm3.292-.066c.268-.248-.585.26 0 0zM6.353 4.37c-.17-.107.097.138 0 0zm.77-.224c-.03-.227-.33-.52-.09-.135.04.112.216.434.09.135zm2.648-.056c-.149-.144-.109.33 0 0zm3.058.351c.137-.277-.874-.514-.181-.482.125.074.262.142.375.197.052.009.125-.044.175-.035.155.028.283.07.302.186-.279-.063-.352.068-.417.197-.087-.01-.184.004-.254-.063zM4.37 3.466c-.773-.474.621.176 0 0zm-.388-.018c-.143-.149-.414-.12-.032-.188.252-.099.373.221.032.188zm1.176-.592c.015-.241-.77-.519-.197-.34.273.328 1.113-.526.583.013-.159.109-.112.443-.386.327zm3.533-.38c-.17-.026-.354-.043-.497-.064-.073-.011.045-.013-.033-.13-.015-.021-.071-.048-.102-.074-.091-.05-.183-.154-.179-.201-.074-.04.248.106.583.242.27.11.596.19.698.248-.14.01-.333.015-.47-.022zm-3.308.176c.128-.21.833-.644.348-.22-.112.071-.22.19-.348.22z" fill="#ca1010"/>
</svg>
