<svg width="16" height="16" xmlns="http://www.w3.org/2000/svg">
    <path d="M8.078 4.002a1.656 1.669 0 0 0-1.513.832l-2.171 3.79-2.172 3.788a1.656 1.669 0 0 0 .506 2.216S4.815 16 8 16s5.272-1.372 5.272-1.372a1.656 1.669 0 0 0 .506-2.216l-2.172-3.789-2.171-3.789a1.656 1.669 0 0 0-1.357-.832z" style="fill:#1d4d85"/>
    <path d="M8.065 3.002a1.38 1.39 0 0 0-1.26.693l-1.81 3.158-1.81 3.157a1.38 1.39 0 0 0 .422 1.847S5.346 13 8 13s4.393-1.143 4.393-1.143a1.38 1.39 0 0 0 .422-1.847l-1.81-3.157-1.81-3.158a1.38 1.39 0 0 0-1.13-.693z" style="fill:#2a83c0"/>
    <path d="M8.052 2.001a1.104 1.112 0 0 0-1.008.555L5.596 5.082 4.148 7.608a1.104 1.112 0 0 0 .337 1.477S5.876 10 8 10s3.515-.915 3.515-.915a1.104 1.112 0 0 0 .337-1.477l-1.448-2.526-1.448-2.526a1.104 1.112 0 0 0-.904-.555z" style="fill:#5bb9db"/>
    <path d="M8 0c-.27.004-.463.173-.554.452L7.45.439l-.424 1.573H5.582a.576.576 0 0 0-.434.226c-.235.28-.185.507.113.715l1.127.853-.437 1.407-.002.005a.61.61 0 0 0 .165.621c0 .002.002.003.003.004a.565.565 0 0 0 .727.047L8 5.025l1.156.865a.565.565 0 0 0 .727-.047l.003-.004a.61.61 0 0 0 .165-.621l-.002-.005-.437-1.407 1.127-.853c.298-.208.348-.436.113-.715" style="fill:#f4f4f7"/>
</svg>
