<svg height="16" width="16" xmlns="http://www.w3.org/2000/svg">
    <path d="M4.8 0A4.79 4.79 0 0 0 0 4.8v10.4c0 .443.357.8.8.8h10.4c2.66 0 4.8-2.14 4.8-4.8V.8c0-.443-.357-.8-.8-.8H8z" fill="#e23a3d"/>
    <path d="M4.633 11s1.125-2.812 1.225-3.085c.034-.092-.873-2.414-1.21-3.101-.238-.485-.438-.573-.628-.277L1.389 11zm9.978 0s-.9-2.307-.983-2.412c-.031-.04-.156-.104-.277-.14-.19-.06-.283-.047-.714.09-1.025.327-1.926.692-1.926.78 0 .098.646 1.682.646 1.682zm-4.105-1.957c1.76-.634 2.52-.882 2.705-.882.174 0 .258-.025.258-.076 0-.1-1.733-2.201-1.976-2.375-.288-.206-.588-.174-1.572.169-.476.166-.83.344-.88.396-.096.1-1.47 3.368-1.47 3.495 0 .147.142.222.355.187.116-.018 1.234-.43 2.58-.914zm-3.162.572c.187-.297 1.433-3.197 1.431-3.333 0-.08-.175-.55-.389-1.042-.39-.901-.562-1.148-.854-1.221-.069-.017-.794-.024-1.613-.015l-1.488.017.152.184c.191.232.394.677 1.147 2.517 1.112 2.716 1.263 3.025 1.472 3.025.032 0 .096-.06.142-.132z" fill="#f4f4f7"/>
</svg>
