<svg xmlns="http://www.w3.org/2000/svg" width="16" height="16" version="1"><rect style="fill:#b83229" width="4" height="12" x="6" y="4" rx="1.5" ry="1.2"/><path style="fill:#d54c41" d="M7.013 7.993c-1.983-.036-2.788-.068-3.28-.13-.361-.045-.539-.089-.739-.183a1.29 1.29 0 0 1-.684-.722c-.135-.32-.19-.573-.24-1.11-.058-.606-.062-.716-.068-1.66-.007-1.11.007-1.474.085-2.21.041-.387.1-.644.213-.916.103-.248.196-.385.366-.536.214-.19.448-.304.745-.365C3.853.07 5.85 0 8 0s4.148.07 4.59.16c.32.066.555.188.784.406.179.17.271.325.381.64.113.324.157.611.221 1.46.03.404.03 2.26 0 2.664-.036.471-.08.891-.109 1.042-.075.386-.222.748-.388.953-.114.141-.34.31-.528.394-.19.086-.372.128-.665.156-.907.085-3.678.147-5.274.118z"/></svg>