<svg xmlns="http://www.w3.org/2000/svg" width="16" height="16"><path style="fill:#d6342a" d="M8.518 0a.45.457 0 0 0-.407.227L6.765 2.57 4.324 1.479a.45.457 0 0 0-.628.465l.266 2.7-2.607.58a.45.457 0 0 0-.24.75l1.775 2.027-1.775 2.027a.45.457 0 0 0 .24.75l2.607.578-.265 2.701a.45.457 0 0 0 .628.464l2.443-1.091 1.346 2.344a.45.457 0 0 0 .776-.001l1.346-2.344 2.442 1.091a.45.457 0 0 0 .628-.464l-.265-2.701 2.606-.578a.45.457 0 0 0 .24-.751l-1.775-2.027 1.775-2.027a.45.457 0 0 0-.24-.75l-2.607-.578.265-2.702a.45.457 0 0 0-.628-.464L10.233 2.57 8.887.226A.45.457 0 0 0 8.517 0z"/><path style="fill:#f4f4f7" d="M4.965 4s.767 2.058.38 3.377C4.96 8.697 3 10.182 3 10.182s2.562.141 3.535.769C7.508 11.579 8.498 14 8.498 14s1.314-2.667 1.863-3.049c.55-.382 3.639-.771 3.639-.771s-2.257-2.147-2.449-2.746c-.192-.6.484-3.432.484-3.432S9.869 5 8.441 5C7.014 5 4.965 4 4.965 4zm5.74 1.527c-.06.34-.12.689-.154 1.014-.041.394-.123.666.047 1.197.169.527.384.702.648 1.018.202.242.441.495.674.742-.339.062-.684.124-.996.201-.405.1-.701.132-1.133.432-.432.3-.563.567-.787.906-.175.266-.345.565-.512.858-.352-.638-.702-1.324-1.414-1.784-.633-.408-1.34-.5-2.016-.613.483-.518 1.013-1.048 1.245-1.84.224-.767.088-1.463-.022-2.12.66.22 1.375.462 2.156.462.806 0 1.569-.246 2.264-.473z"/></svg>