<svg xmlns="http://www.w3.org/2000/svg" width="16" height="16" version="1.0"><path style="fill:#3584e4" d="M6 0C2.676 0 0 2.676 0 6v4c0 3.324 2.676 6 6 6h4c3.324 0 6-2.676 6-6V6c0-3.324-2.676-6-6-6z"/><path style="fill:#ff9632" d="M1.244 0C.554 0 0 .547 0 1.227v6.087c.376.951.917 1.84 1.65 2.617.855.91 2.126 1.67 3.441 1.952 1.316.282 2.676.085 3.71-.917.354-.344.653-.853.758-1.374.106-.521.018-1.054-.4-1.449a1.078 1.078 0 0 0-.527-.267C8.434 7.84 8.144 7.844 8 8c.16.144.287.376.25.573a1.065 1.065 0 0 1-.272.525c-.402.415-.946.581-1.476.477a2.822 2.822 0 0 1-1.396-.75c-.763-.768-1.105-1.796-1.088-2.771.006-.325.046-.653.118-.978.286-1.3 1.097-2.916 2.02-3.761A8.2 8.2 0 0 1 8.088 0zM8 8c-.16-.144-.287-.376-.25-.573.035-.198.144-.393.272-.525.402-.415.946-.581 1.476-.477.53.104 1.047.4 1.396.75.763.768 1.105 1.796 1.088 2.771a4.964 4.964 0 0 1-.118.978c-.286 1.3-1.097 2.916-2.02 3.761A8.2 8.2 0 0 1 7.912 16h6.845c.69 0 1.244-.547 1.244-1.227V8.686a8.177 8.177 0 0 0-1.65-2.617c-.855-.91-2.126-1.67-3.441-1.952-1.316-.282-2.676-.085-3.71.917a2.757 2.757 0 0 0-.758 1.374c-.106.521-.018 1.054.4 1.449.132.125.328.232.527.267.198.035.488.032.632-.124z"/></svg>