<svg xmlns="http://www.w3.org/2000/svg" width="16" height="16" version="1">
    <circle style="fill:#f4f4f7" cx="8" cy="8" r="8"/>
    <path fill="#2a58ae" d="M7 5c-2.762 0-5 2.237-5 5s2.237 5 5 5 5-2.237 5-5-2.237-5-5-5zm-.894 2.642c1.878 0 3.414 1.516 3.414 3.395S7.984 14.45 6.106 14.45c-1.879 0-3.395-1.536-3.395-3.414a3.39 3.39 0 0 1 3.395-3.395z"/>
    <path fill="#d24646" d="M13 4.5a2.5 2.5 0 0 1-5 0 2.5 2.5 0 1 1 5 0z"/>
    <path fill="#606060" d="M6 12.501a1.5 1.5 0 0 1-3 0 1.5 1.5 0 1 1 3 0z"/>
</svg>
