<svg height="16" width="16" xmlns="http://www.w3.org/2000/svg"><path d="m8.5 1a7.5 7.5 0 0 0 -7.5 7.5 7.5 7.5 0 0 0 7.5 7.5 7.5 7.5 0 0 0 7.5-7.5 7.5 7.5 0 0 0 -7.5-7.5zm-1.486 1.693a1.5 1.5 0 0 0 1.486 1.307 1.5 1.5 0 0 0 1.485-1.305 6 6 0 0 1 3.554 2.55 1.5 1.5 0 0 0 -.914 1.38 1.5 1.5 0 0 0 1.5 1.5 1.5 1.5 0 0 0 .36-.045 6 6 0 0 1 .015.42 6 6 0 0 1 -1.466 3.924 1.5 1.5 0 0 0 -1.159-.549 1.5 1.5 0 0 0 -1.5 1.5 1.5 1.5 0 0 0 .202.75 6 6 0 0 1 -2.077.375 6 6 0 0 1 -2.076-.379 1.5 1.5 0 0 0 .201-.746 1.5 1.5 0 0 0 -1.5-1.5 1.5 1.5 0 0 0 -1.156.546 6 6 0 0 1 -1.469-3.921 6 6 0 0 1 .021-.419 1.5 1.5 0 0 0 .354.044 1.5 1.5 0 0 0 1.5-1.5 1.5 1.5 0 0 0 -.91-1.378 6 6 0 0 1 3.549-2.554z" fill="#7d7d7d"/><g fill="#454545"><circle cx="8.5" cy="2.5" r=".5"/><circle cx="3" cy="6.5" r=".5"/><circle cx="14" cy="6.5" r=".5"/><circle cx="12" cy="13.5" r=".5"/><circle cx="5" cy="13.5" r=".5"/></g><path d="m5.5 6.625 3-1.162 3 1.162m-9.5-3.125h1.25l2.25 3.125 3 9.113 3-9.113 2.25-3.125h1.25" fill="none" stroke="#0bad50" stroke-linejoin="bevel"/></svg>