<svg xmlns="http://www.w3.org/2000/svg" width="16" height="16" version="1"><path style="fill:#7d7d7d" d="M8.5 1A7.5 7.5 0 0 0 1 8.5 7.5 7.5 0 0 0 8.5 16 7.5 7.5 0 0 0 16 8.5 7.5 7.5 0 0 0 8.5 1zM7.014 2.693A1.5 1.5 0 0 0 8.5 4a1.5 1.5 0 0 0 1.485-1.305 6 6 0 0 1 3.554 2.55 1.5 1.5 0 0 0-.914 1.38 1.5 1.5 0 0 0 1.5 1.5 1.5 1.5 0 0 0 .36-.045 6 6 0 0 1 .015.42 6 6 0 0 1-1.466 3.924 1.5 1.5 0 0 0-1.159-.549 1.5 1.5 0 0 0-1.5 1.5 1.5 1.5 0 0 0 .202.75A6 6 0 0 1 8.5 14.5a6 6 0 0 1-2.076-.379 1.5 1.5 0 0 0 .201-.746 1.5 1.5 0 0 0-1.5-1.5 1.5 1.5 0 0 0-1.156.546A6 6 0 0 1 2.5 8.5a6 6 0 0 1 .021-.419 1.5 1.5 0 0 0 .354.044 1.5 1.5 0 0 0 1.5-1.5 1.5 1.5 0 0 0-.91-1.378 6 6 0 0 1 3.549-2.554z"/><circle style="fill:#454545" cx="8.5" cy="2.5" r=".5"/><circle style="fill:#454545" cx="3" cy="6.5" r=".5"/><circle style="fill:#454545" cx="14" cy="6.5" r=".5"/><circle style="fill:#454545" cx="12" cy="13.5" r=".5"/><circle style="fill:#454545" cx="5" cy="13.5" r=".5"/><path style="fill:none;stroke:#0bad50;stroke-linejoin:bevel" d="m5.5 6.625 3-1.162 3 1.162M2 3.5h1.25L5.5 6.625l3 9.113 3-9.113L13.75 3.5H15"/></svg>