<svg height="16" width="16" xmlns="http://www.w3.org/2000/svg"><circle cx="8" cy="8" fill="#056ab6" r="5"/><path d="m12.5 6a4.44 4.44 0 0 0 -1.33.264v.002l-3.815 1.591-6.933 2.895a3.987 3.987 0 0 0 3.215 2.23v.018h8.863a3.5 3.5 0 0 0 0-7z" fill="#138fe6"/><path d="m4 5a4 4 0 0 0 -3.512 2.094l-.006.002a4.001 4.001 0 0 0 3.154 5.887v.017h8.864a3.484 3.484 0 0 0 3.033-1.785l-5.531-3.297-4.031-2.402-.012.002a4 4 0 0 0 -1.959-.518z" fill="#1581d9"/><path d="m8.852 7.232c-.5.21-1.037.434-1.497.625l-6.933 2.895.002.004a4.066 4.066 0 0 0 .97 1.258 4 4 0 0 0 .303.244c.105.074.216.14.328.205.042.024.08.053.123.076.069.036.142.063.213.096a3.957 3.957 0 0 0 1.276.347v.018h8.863a3.493 3.493 0 0 0 .797-.1 3.48 3.48 0 0 0 1.305-.617c.047-.036.09-.075.136-.113.317-.27.589-.59.795-.955l-5.531-3.297z" fill="#38afec"/></svg>