<svg xmlns="http://www.w3.org/2000/svg" width="16" height="16" version="1">
    <rect style="fill:#2c6de3" width="8" height="4" x="-12" y="10" rx=".762" ry=".667" transform="scale(-1 1)"/>
    <rect style="fill:#53990f" width="8" height="4" x="4" y="3" rx=".762" ry=".667"/>
    <path style="fill:#3ba4fa" d="M10.707 8a.687.819 0 0 1 .324.11l2.312 1.59 2.313 1.59a.687.819 0 0 1 0 1.419l-2.313 1.59-2.312 1.591A.687.819 0 0 1 10 15.181V8.82a.687.819 0 0 1 .707-.82z"/>
    <path style="fill:#88d216" d="M5.293 1a.687.819 0 0 0-.324.11L2.657 2.7.344 4.29a.687.819 0 0 0 0 1.419l2.313 1.59L4.969 8.89A.687.819 0 0 0 6 8.181V1.82A.687.819 0 0 0 5.293 1z"/>
</svg>
