<svg xmlns="http://www.w3.org/2000/svg" width="16" height="16" version="1">
    <path style="fill:#add439" d="M8.042 0c-.026 0-.051.003-.077.004l.017 3.828L8 8l3.518-2.068 3.249-1.909a1.787 1.787 0 0 0-.655-.69L8.888.243A1.744 1.744 0 0 0 8.042 0z"/>
    <path style="fill:#ac1248" d="M1.264 3.958A1.85 1.85 0 0 0 1 4.91v6.181c0 .343.097.67.267.95L4.5 10.1 8 8 4.5 5.9z"/>
    <path style="fill:#3471b9" d="M14.733 3.96 11.5 5.9 8 8l3.5 2.1 3.237 1.942a1.776 1.82 0 0 0 .263-.951V4.909a1.776 1.82 0 0 0-.014-.216l-.01-.069a1.776 1.82 0 0 0-.027-.137 1.815 1.815 0 0 0-.023-.092 1.776 1.82 0 0 0-.034-.1c-.012-.036-.023-.071-.038-.105a1.776 1.82 0 0 0-.006-.014 1.857 1.857 0 0 0-.115-.217z"/>
    <path style="fill:#86b02f" d="M8.035 0a1.741 1.741 0 0 0-.923.243l-5.224 3.09a1.796 1.796 0 0 0-.66.687l3.254 1.912L8 8l.018-4.168z"/>
    <path style="fill:#2e90e8" d="m8 8-.018 4.168L7.965 16a1.776 1.82 0 0 0 .923-.243l5.224-3.091a1.776 1.82 0 0 0 .66-.686l-3.254-1.912z"/>
    <path style="fill:#eb2f6a" d="m8 8-3.518 2.068-3.249 1.909c.062.112.132.22.217.318a1.776 1.82 0 0 0 .033.04l.091.091a1.776 1.82 0 0 0 .061.055c.029.025.058.05.088.072a1.776 1.82 0 0 0 .165.113l5.224 3.09a1.776 1.82 0 0 0 .923.241l-.017-3.829z"/>
    <path style="fill:#f4f4f7" d="M8 2.947 12.278 5.5v5L8 13.051l-4.278-2.553V5.5z" transform="matrix(.93506 0 0 .94018 .52 .479)"/>
    <path style="fill:#cedbe6" d="m8 2.947 4.278 2.468v5.084L8 13.052z" transform="matrix(.93506 0 0 .94018 .52 .479)"/>
    <path style="fill:#dee5c0" d="M8 2.947 3.722 5.5 8 8.032 12.278 5.5z" transform="matrix(.93506 0 0 .94018 .52 .479)"/>
</svg>
