<svg height="16" width="16" xmlns="http://www.w3.org/2000/svg"><path d="m15.975 3.862a.668.678 1.412 0 0 -.977-.771l-12.124 6.874c-.393-.345-.771-.71-1.189-1.024-.505.119-.14.78-.127 1.141l.114.564-1.32.748a.668.678 1.412 1 0 .65 1.183l1.329-.753c.24.347.332.81.095 1.187-.243.48-.808.527-1.272.508-.42.35.325.876.613 1.088 1.287.832 3.102.265 3.93-.973.538-.754.702-1.854.178-2.657-.454-.344-.479.547-.863.661-.51.376-1.276.096-1.484-.493l12.122-6.871a.668.678 1.412 0 0 .325-.412z" fill="#005a5a"/><path d="m.025 3.862a.678.668 88.588 0 1 .977-.771l12.124 6.874c.393-.345.771-.71 1.189-1.024.505.119.14.78.127 1.141l-.114.564 1.32.748a.678.668 88.588 1 1 -.65 1.183l-1.329-.753c-.24.347-.332.81-.095 1.187.243.48.808.527 1.272.508.42.35-.325.876-.613 1.088-1.287.832-3.102.265-3.93-.973-.538-.754-.702-1.854-.178-2.657.454-.344.479.547.863.661.51.376 1.276.096 1.484-.493l-12.122-6.871a.678.668 88.588 0 1 -.325-.412z" fill="#008080"/><path d="m2.425 1a.442.394 0 0 0 -.425.395v8.015c0 .269.12.452.268.68.15.229.35.481.59.755a23.661 23.661 0 0 0 1.769 1.777c.657.6 1.335 1.172 1.908 1.6.286.215.544.393.77.526s.363.252.695.252.469-.119.695-.252.484-.31.77-.525c.573-.43 1.251-1 1.908-1.601s1.29-1.23 1.77-1.777c.239-.274.44-.526.589-.755.149-.228.268-.411.268-.68v-8.015a.442.394 0 0 0 -.777-.258l-.976 1.01-1.244-1.04a.442.394 0 0 0 -.302-.107h-5.401a.442.394 0 0 0 -.303.107l-1.244 1.04-.976-1.01a.442.394 0 0 0 -.352-.137z" fill="#f4f4f7"/><path d="m4 4v4.77c.008.009.003-.004.044.059.084.128.229.315.418.531.377.431.915.967 1.473 1.478.558.51 1.138.997 1.597 1.341.192.144.34.24.468.321.128-.08.276-.177.468-.32a22.687 22.687 0 0 0 1.597-1.342 20.05 20.05 0 0 0 1.473-1.478c.19-.216.334-.403.418-.531.04-.063.036-.05.044-.059v-4.77z" fill="#008080"/><path d="m8 4v8.5c.128-.08.276-.177.468-.32a22.687 22.687 0 0 0 1.597-1.342 20.051 20.051 0 0 0 1.473-1.478c.19-.216.334-.403.418-.531.04-.063.036-.05.044-.059v-4.77z" opacity=".3"/></svg>