<svg height="16" width="16" xmlns="http://www.w3.org/2000/svg">
    <rect fill="#f3ad1d" height="16" rx="4.8" width="16"/>
    <path d="M7.667 3.005c-.418.02-1.226.206-1.647.863 0 0-.388-.121.065-.808 0 0-1.245-.009-1.87.94H3v6.087s1.644 3.504 6.985 2.826c0 0 2.417-.352 2.101-2.536 0 0 .755-.83.862-1.886.1-.975.089-1.62-.338-2.883a.091.091 0 0 0-.176.01c-.15.697-.59 2.29-1.85 3.003 0 0 .663-1.19.3-2.623-.01-.046-.077-.042-.083.005-.053.455-.242 1.45-.886 1.648 0 0-.374-1.807-2.121-2.756 0 0 .15-.453.194-.776.043-.324-.108-.474-.022-.625.087-.151.431-.366.431-.366s-.312-.144-.73-.123zm.834 4.997a.536.536 0 1 1 .07 1.068.536.536 0 0 1-.07-1.068zm2.305 3.057a.408.408 0 0 1 .22.075c.022.017.098.076.087.146-.011.066-.095.103-.126.117-.096.042-.134.007-.26.04a.528.528 0 0 0-.204.104c-.066.056-.05.078-.11.13s-.186.128-.275.09c-.086-.036-.093-.156-.095-.179-.01-.163.13-.286.189-.337a.758.758 0 0 1 .401-.179.845.845 0 0 1 .173-.007z" fill="#f4f4f7"/>
</svg>
