<svg height="16" width="16" xmlns="http://www.w3.org/2000/svg">
    <g transform="translate(0 -316.3)">
        <rect fill="#17191e" height="12" rx=".387" ry=".364" width="12" x="2" y="318.3"/>
        <path d="M1.333 317.3a.333.333 0 0 0-.333.333v3.334c0 .184.149.333.333.333h3.334a.333.333 0 0 0 .333-.333v-3.334a.333.333 0 0 0-.333-.333z" fill="#b7e267"/>
        <path d="M6.333 317.3a.333.333 0 0 0-.333.333v3.334c0 .184.149.333.333.333h3.334a.333.333 0 0 0 .333-.333v-3.334a.333.333 0 0 0-.333-.333zm5 0a.333.333 0 0 0-.333.333v3.334c0 .184.149.333.333.333h3.334a.333.333 0 0 0 .333-.333v-3.334a.333.333 0 0 0-.333-.333z" fill="#3bd3e0"/>
        <path d="M1.333 322.3a.333.333 0 0 0-.333.333v3.334c0 .184.149.333.333.333h3.334a.333.333 0 0 0 .333-.333v-3.334a.333.333 0 0 0-.333-.333z" fill="#b7e267"/>
        <path d="M6.333 322.3a.333.333 0 0 0-.333.333v3.334c0 .184.149.333.333.333h3.334a.333.333 0 0 0 .333-.333v-3.334a.333.333 0 0 0-.333-.333z" fill="#509b1e"/>
        <path d="M11.333 322.3a.333.333 0 0 0-.333.333v3.334c0 .184.149.333.333.333h3.334a.333.333 0 0 0 .333-.333v-3.334a.333.333 0 0 0-.333-.333z" fill="#3bd3e0"/>
        <path d="M1.333 327.3a.333.333 0 0 0-.333.333v3.334c0 .184.149.333.333.333h3.334a.333.333 0 0 0 .333-.333v-3.334a.333.333 0 0 0-.333-.333z" fill="#509b1e"/>
        <path d="M6.333 327.3a.333.333 0 0 0-.333.333v3.334c0 .184.149.333.333.333h3.334a.333.333 0 0 0 .333-.333v-3.334a.333.333 0 0 0-.333-.333zm5 0a.333.333 0 0 0-.333.333v3.334c0 .184.149.333.333.333h3.334a.333.333 0 0 0 .333-.333v-3.334a.333.333 0 0 0-.333-.333z" fill="#007aa0"/>
    </g>
</svg>
