<svg height="16" width="16" xmlns="http://www.w3.org/2000/svg"><rect fill="#008383" height="14" rx=".7" width="14" x="1" y="2"/><path d="m3 4v10h10v-10z" fill="#d4d5cc"/><path d="m11.697 2.662c-.746 1.562-2.617 4.69-5.625 7.178-2.3 1.901-4.486 3.017-6.072 3.62v.042a26.77 26.77 0 0 0 7.232-3.412c2.888-1.942 5.284-4.31 6.606-5.326-1.074-.16-1.86-1.073-2.14-2.102z" fill="#d43519"/><path d="m1 11.5h2v2h-2z" fill="#008383"/><path d="m16 2.499a2.5 2.5 0 1 1 -4.998 0 2.5 2.5 0 0 1 4.998.001" fill="#f84529"/></svg>