<svg height="16" width="16" xmlns="http://www.w3.org/2000/svg"><path d="m8 1a1 1 0 0 0 -1 1 1 1 0 0 0 1 1 1 1 0 0 0 1-1 1 1 0 0 0 -1-1z" fill="#989898"/><rect fill="#c48f61" height="13" rx="1.189" ry="1.157" width="12" x="2" y="3"/><path d="m3 3.5h10v11.5h-10z" fill="#f4f4f7"/><path d="m5.5 2c-.277 0-.5.255-.5.571v1.429h6v-1.429c0-.316-.223-.571-.5-.571h-1.75a.75.8 0 0 1 -.75.8.75.8 0 0 1 -.75-.8z" fill="#989898"/><g fill="none" stroke-linecap="round"><path d="m4.506 9.137.79.665 1.204-1.316" stroke="#5f5f5f"/><path d="m8.5 6.5h3.025" stroke="#c8c8c8"/><path d="m4.506 5.762.79.665 1.204-1.316m-1.994 7.401.79.665 1.204-1.316" stroke="#5f5f5f"/><path d="m8.5 9.5h3.025m-3.025 3h3.025" stroke="#c8c8c8"/></g></svg>