<svg xmlns="http://www.w3.org/2000/svg" width="16" height="16" version="1">
    <circle style="fill:#26a269" cx="8.5" cy="8.5" r="7.5"/>
    <path style="fill:#b7b7b7" d="M7.347 6.895c.024 1.013-.304 1.894-1.225 2.553l1.373.66c-.085-1.125.397-1.935 1.226-2.553zm0 0"/>
    <path style="fill:#b7b7b7" d="M9.634 6.975c-.023 1.013.304 1.893 1.226 2.553l-1.374.659c.086-1.124-.396-1.934-1.225-2.553zm0 0"/>
    <path style="fill:#b7b7b7" d="M9.857 9.868c-.868.46-1.767.544-2.722-.001v1.523c.938-.563 1.841-.478 2.721.002zm0 0"/>
    <circle style="fill:#f4f4f7" cx="8.5" cy="6.5" r="1.5"/>
    <circle style="fill:#f4f4f7" cx="6.5" cy="10.5" r="1.5"/>
    <circle style="fill:#f4f4f7" cx="10.5" cy="10.5" r="1.5"/>
</svg>
