<svg xmlns="http://www.w3.org/2000/svg" width="16" height="16">
    <rect style="fill:#a448ba" width="16" height="16" rx="1.2" ry="1.2"/>
    <path style="opacity:.3" d="M1.2 0C.535 0 0 .535 0 1.2v13.6c0 .665.535 1.2 1.2 1.2h2V0z"/>
    <g style="font-weight:700;font-size:322.10223389px;line-height:1.25;font-family:Montserrat;letter-spacing:0;word-spacing:0;fill:#f4f4f7">
        <path style="fill:#f4f4f7" d="M812.203 1309.793c-27.701 0-55.724 7.408-74.728 20.937l18.038 35.109c12.562-9.985 31.566-16.105 49.925-16.105 27.057 0 42.192 20.57 42.192 42.15l-50.01-.235c-52.824-.25-74.402 20.47-74.402 51.07 0 29.956 22.046 51.659 62.631 51.659 25.446 0 52.44-7.53 61.781-23.313l.003 21.343 53.33-.01-.005-104.013c-.003-52.503-35.93-78.592-88.755-78.592zm-11.68 151.609c-17.716 0-28.345-8.375-28.345-20.937 0-11.596 7.405-16.967 30.918-16.816l44.534.235.003 9.997c.003 16.814-30.361 27.52-47.11 27.52z" transform="matrix(.05063 0 0 .04876 -31.62 -60.863)"/>
    </g>
</svg>
