<svg xmlns="http://www.w3.org/2000/svg" width="16" height="16" version="1"><path fill="#ffc947" d="M8.121 0C7.385 0 6.675.11 6 .3c3.327.936 5.758 4.016 5.758 7.7S9.327 14.764 6 15.701c.675.19 1.385.299 2.121.299C12.486 16 16 12.432 16 8s-3.514-8-7.879-8z"/><path fill="#478aff" d="m6.75 7.5.85 1.646 1.9.264-1.375 1.281.324 1.81-1.699-.855-1.7.854.325-1.809L4 9.411l1.9-.265z"/><path fill="#6fa4ff" d="m9.25 4.5.695 1.317 1.555.211-1.125 1.025.265 1.447-1.39-.683-1.39.683.265-1.447L7 6.028l1.555-.21z"/><path fill="#90b9ff" d="m7.5 2.5.464.823L9 3.455l-.75.64.177.905-.927-.427L6.573 5l.177-.904-.75-.64 1.036-.133z"/></svg>