<svg xmlns="http://www.w3.org/2000/svg" width="16" height="16" version="1"><rect style="fill:#f4f4f7" width="15" height="15" x="1" y="1" rx=".75" ry=".75"/><path style="fill:#4191ef" d="M3.018 2.5v2.77s.011.541-.57.832l.128.687C3.534 6.31 3.5 5 3.5 5h2.034v.061s.017.625-.068.83c-.086.204-.128.34-.455.34H4.82L4.076 7h.577c.635 0 1.041-.441 1.197-.814.155-.372.15-.724.15-.724V2.5zM3.5 3h2.034v.5H3.5zm0 1h2.034v.5H3.5z"/><path style="fill:#26a269" d="M12.75 10.5a.25.25 0 1 0 0 .5.25.25 0 0 0 0-.5zm-.5 1a.25.25 0 1 0 0 .5.25.25 0 0 0 0-.5zm1 0a.25.25 0 1 0 0 .5.25.25 0 0 0 0-.5zm.75.732-.5.33v.938H13v-.937l-.5.33v.607H12v-.662l-.547.443v.71a.385.385 0 0 1-.385.384c-.439-.052-.264-.412-.384-.65l-.655.437c.085.565.568.837 1.139.838.634 0 .827-.366.832-1h2v-1.768z"/><path style="fill:#a347ba" d="M4.339 12.337q0-.216-.071-.374-.071-.162-.187-.272-.046-.045-.097-.084-.078-.058-.11-.09-.129-.123-.193-.284-.065-.161-.065-.342 0-.187.068-.345.068-.159.19-.281.103-.104.29-.194.149-.071.333-.071.184 0 .338.071.175.077.29.194.123.122.191.28.068.159.068.346 0 .197-.068.352-.068.151-.19.274-.032.032-.116.09-.026.02-.09.084-.133.13-.197.288-.062.155-.062.358.22 0 .38-.074.165-.078.272-.184.042-.042.08-.094.059-.08.09-.113.127-.126.288-.19.161-.068.342-.068.187 0 .345.068.158.068.28.19.117.116.194.29.068.152.068.336 0 .184-.068.336-.077.174-.193.29-.123.123-.28.191-.159.068-.346.068-.18 0-.342-.065-.161-.068-.287-.193-.032-.033-.09-.113-.04-.052-.081-.094-.132-.126-.29-.19-.155-.068-.362-.068 0 .22.074.384.078.161.184.268.042.042.094.08.08.059.113.09.126.127.19.288.068.162.068.342 0 .188-.068.346-.068.158-.19.28-.116.117-.29.194Q4.683 15 4.5 15q-.184 0-.335-.068-.175-.077-.29-.193-.123-.123-.191-.281-.068-.158-.068-.346 0-.18.065-.342.067-.161.193-.287.032-.032.113-.09.052-.04.094-.081.125-.133.19-.287.068-.159.068-.365-.204 0-.365.068-.158.064-.284.19-.045.045-.084.097-.058.077-.09.11-.122.129-.284.193-.161.065-.342.065-.187 0-.345-.068-.158-.068-.28-.19-.107-.104-.194-.29Q2 12.684 2 12.501q0-.184.071-.34.077-.174.194-.29.122-.122.28-.19.158-.068.345-.068.197 0 .349.068.155.068.277.19.032.032.09.116.02.026.084.09.13.13.287.194.158.065.362.065z"/><rect style="fill:#ffb820" width="5" height="5" x="10" y="2" rx="2.334" ry="2.334"/><path style="fill:#c01c27" d="M11.75 5.5h1.5s0 .5-.75.5-.75-.5-.75-.5z"/><path style="fill:#f4f4f7" d="M11.75 5h1.5v.5h-1.5z"/><path style="opacity:.1" d="M8 1v7H1v1h7v7h1V9h7V8H9V1H8z"/><path style="fill:#b45600" d="M11 3.5h.5v1H11zM13.5 3.5h.5v1h-.5z"/></svg>