<svg xmlns="http://www.w3.org/2000/svg" width="16" height="16" version="1">
    <rect style="fill:#00362d" width="4" height="4" y="12" rx=".8" ry=".8"/>
    <rect style="fill:#004d40" width="4" height="4" x="4" y="12" rx=".8" ry=".8"/>
    <rect style="fill:#00362d" width="4" height="4" x="8" y="12" rx=".8" ry=".8"/>
    <rect style="fill:#004d40" width="4" height="4" x="12" y="12" rx=".8" ry=".8"/>
    <rect style="fill:#5e9fdf" width="4" height="4" y="8" rx=".8" ry=".8"/>
    <rect style="fill:#1976d2" width="4" height="4" x="4" y="8" rx=".8" ry=".8"/>
    <rect style="fill:#5e9fdf" width="4" height="4" x="8" y="8" rx=".8" ry=".8"/>
    <rect style="fill:#1976d2" width="4" height="4" x="12" y="8" rx=".8" ry=".8"/>
    <rect style="fill:#1976d2" width="4" height="4" y="4" rx=".8" ry=".8"/>
    <rect style="fill:#5e9fdf" width="4" height="4" x="4" y="4" rx=".8" ry=".8"/>
    <rect style="fill:#1976d2" width="4" height="4" x="12" y="4" rx=".8" ry=".8"/>
    <rect style="fill:#5e9fdf" width="4" height="4" rx=".8" ry=".8"/>
    <path style="fill:#7bbc7e" d="M.8 8c-.443 0-.8.357-.8.8v2.4c0 .443.357.8.8.8h2.4c.443 0 .8-.357.8-.8V9.243l-1.05-.864L1.805 8z"/>
    <path style="fill:#43a047" d="M4 9.243V11.2c0 .443.357.8.8.8h2.4c.443 0 .8-.357.8-.8v-1.129l-.174.59-1.58.431z"/>
    <path style="fill:#7bbc7e" d="m11.44 8.04-.605.614-2.531.386L8 10.07v1.13c0 .443.357.8.8.8h2.4c.443 0 .8-.357.8-.8V8.8a.796.796 0 0 0-.56-.76z"/>
    <path style="fill:#004d40" d="M16 10.525v.675c0 .443-.357.8-.8.8h-1.879l-.067-1.884z"/>
    <path style="fill:#43a047" d="M12.8 8c-.443 0-.8.357-.8.8v2.4c0 .443.357.8.8.8h.853l.142-.941L16 10.704V8.986l-1.621-.266-.825-.72zm-.362-.974-.4.406c.1.328.4.568.762.568h.754zM.095 7.435l-.018.102A.797.797 0 0 0 .8 8h1.004z"/>
    <path style="fill:#2f7032" d="M.8 12c-.443 0-.8.357-.8.8v1.362l.498.084 1.789-1.019.783 1.34.93-.285V12.8c0-.443-.357-.8-.8-.8z"/>
    <path style="fill:#43a047" d="M4.8 12c-.443 0-.8.357-.8.8v1.482l1.412-.433.937-1.601 1.62.343A.796.796 0 0 0 7.2 12z"/>
    <path style="fill:#2f7032" d="M8.8 12a.796.796 0 0 0-.773.604l.2.042.567 1.102 2.57.365.636-.174V12.8c0-.443-.357-.8-.8-.8z"/>
    <path style="fill:#43a047" d="M12.8 12c-.443 0-.8.357-.8.8v1.14l1.42-.39.233-1.55z"/>
</svg>
