<svg xmlns="http://www.w3.org/2000/svg" height="16" width="16">
    <path style="fill:#17191e" d="M8.004 0a1 1 0 0 0-.399.08l-7 3A1 1 0 0 0 0 4v8a1 1 0 0 0 .605.92l7 3a1 1 0 0 0 .79 0l7-3A1 1 0 0 0 16 12V4a1 1 0 0 0-.605-.92l-7-3A1 1 0 0 0 8.004 0z"/>
    <path style="fill:#5891d9" d="M8.49 3a.5.5 0 0 0-.49.5v5a.5.5 0 0 0 .314.465l5 2A.5.5 0 0 0 14 10.5v-5a.5.5 0 0 0-.314-.465l-5-2A.5.5 0 0 0 8.49 3z"/>
    <path style="fill:#8ed599" d="M5.49 4a.5.5 0 0 0-.49.5v5a.5.5 0 0 0 .314.465l5 2A.5.5 0 0 0 11 11.5v-5a.5.5 0 0 0-.314-.465l-5-2A.5.5 0 0 0 5.49 4z"/>
    <path style="fill:#f4f4f7" d="m10 9-4.713.943c.01.006.016.017.027.022l5 2A.5.5 0 0 0 11 11.5V10l-1-1z"/>
    <path style="fill:#d75a86" d="M2.49 6a.5.5 0 0 0-.49.5v5a.5.5 0 0 0 .314.465l5 2A.5.5 0 0 0 8 13.5v-5a.5.5 0 0 0-.314-.465l-5-2A.5.5 0 0 0 2.49 6z"/>
    <path style="fill:#f4f4f7" d="m4 10-2 .5v1a.5.5 0 0 0 .314.465l4.514 1.805L4 10zm8-5s-.357.472 0 1c.35.517 1 .458 1 .458S12.636 7 12 7c-.471 0-1-.475-1-1 0-.712 1-1 1-1z"/>
</svg>
