<svg height="16" width="16" xmlns="http://www.w3.org/2000/svg">
    <rect fill="#55b65a" height="5" ry=".417" width="6" x="8" y="2"/>
    <rect fill="#fec006" height="5" ry=".417" width="6" x="9" y="6"/>
    <rect fill="#fe6c06" height="5" ry=".417" width="6" x="10" y="10"/>
    <path d="M1.75 0C1.335 0 1 .357 1 .8v14.4c0 .443.335.8.75.8h10.5c.416 0 .75-.357.75-.8V.8c0-.443-.334-.8-.75-.8H3.242z" fill="#3f89db"/>
    <path d="M7 4a4 4 0 1 0 0 8h2.5s.469 0 .5-.5c0-.5-.5-.5-.5-.5H7a3 3 0 1 1 3-3v.5a.5.5 0 0 1-1 0V8a2 2 0 1 0-2 2c.523 0 .995-.205 1.351-.534A1.502 1.502 0 0 0 11 8.5V8a4 4 0 0 0-4-4zm0 3a1 1 0 1 1 0 2 1 1 0 0 1 0-2z" fill="#f4f4f7"/>
</svg>
