<svg xmlns="http://www.w3.org/2000/svg" width="16" height="16" version="1">
    <circle fill="#2f67ba" cx="8" cy="8" r="8"/>
    <path fill="#64d4f9" d="M4.5 6A2.5 2.5 0 0 0 2 8.5 2.5 2.5 0 0 0 4.5 11a2.5 2.5 0 0 0 1.5-.504V15h1V6H6v.502A2.5 2.5 0 0 0 4.5 6zm0 1A1.5 1.5 0 0 1 6 8.5 1.5 1.5 0 0 1 4.5 10 1.5 1.5 0 0 1 3 8.5 1.5 1.5 0 0 1 4.5 7z"/>
    <path fill="#f4f4f7" d="M11.5 11A2.5 2.5 0 0 0 14 8.5 2.5 2.5 0 0 0 11.5 6a2.5 2.5 0 0 0-1.5.504V2H9v9h1v-.502a2.5 2.5 0 0 0 1.5.502zm0-1A1.5 1.5 0 0 1 10 8.5 1.5 1.5 0 0 1 11.5 7 1.5 1.5 0 0 1 13 8.5a1.5 1.5 0 0 1-1.5 1.5z"/>
</svg>
