<svg height="16" width="16" xmlns="http://www.w3.org/2000/svg">
    <circle cx="8.5" cy="8.5" fill="#d79f87" r="7"/>
    <path d="M8.5 1C4.36 1 1 4.361 1 8.5A7.502 7.502 0 0 0 8.5 16c4.14 0 7.5-3.361 7.5-7.5A7.502 7.502 0 0 0 8.5 1zm0 2C11.536 3 14 5.464 14 8.5c0 3.035-2.464 5.5-5.5 5.5A5.502 5.502 0 0 1 3 8.5C3 5.465 5.464 3 8.5 3z" fill="#1b65cf"/>
    <path d="M6.83 7.001c1.503.014 2.593.17 3.468.575 1.167.54 1.906 1.516 2.684 3.087a.19.182 0 0 1-.054.22c-.897.675-1.736 1.025-2.522 1.101-.785.076-1.511-.127-2.163-.527-1.303-.801-2.336-2.37-3.225-4.167a.19.182 0 0 1 .164-.259c.6-.023 1.147-.035 1.648-.03z" fill="#aef766"/>
    <path d="M9.947 8c.135 1.494.078 2.152-.947 3 .071-1.38.108-2.048.947-3z" fill="#263742"/>
</svg>
