<svg height="16" width="16" xmlns="http://www.w3.org/2000/svg">
    <circle cx="8.5" cy="8.5" fill="#26a269" r="7.5"/>
    <g fill="#b7b7b7">
        <path d="M7.347 6.895c.024 1.013-.304 1.894-1.225 2.553l1.373.66c-.085-1.125.397-1.935 1.226-2.553zm0 0"/>
        <path d="M9.634 6.975c-.023 1.013.304 1.893 1.226 2.553l-1.374.659c.086-1.124-.396-1.934-1.225-2.553zm0 0"/>
        <path d="M9.857 9.868c-.868.46-1.767.544-2.722-.001v1.523c.938-.563 1.841-.478 2.721.002zm0 0"/>
    </g>
    <g fill="#f4f4f7">
        <circle cx="8.5" cy="6.5" r="1.5"/>
        <circle cx="6.5" cy="10.5" r="1.5"/>
        <circle cx="10.5" cy="10.5" r="1.5"/>
    </g>
</svg>
