<svg height="16" width="16" xmlns="http://www.w3.org/2000/svg">
    <path d="M7.993 1C3.759 1.008.323 4.528.323 8.87H1.4C1.4 5.034 4.234 2.03 7.974 2h.052c3.76 0 6.574 3.013 6.574 6.87h1.076c0-4.348-3.43-7.87-7.669-7.87z" fill="#3d3846"/>
    <path d="M2.337.8s-1.33 2.956 1.29 6.177l2.817-1.325C2.63 4.024 2.337.8 2.337.8zm11.328 0s1.33 2.956-1.29 6.177L9.557 5.652C13.372 4.024 13.665.8 13.665.8z" fill="#c01c28"/>
    <circle cx="9.987" cy="8.017" fill="#e8303a" r="6" transform="rotate(12.584)"/>
    <circle cx="7.5" cy="11.5" opacity=".4" r=".5"/>
    <circle cx="10.5" cy="8.5" fill="#f6f5f4" r="1.5"/>
    <circle cx="10.5" cy="8.25" fill="#241f31" r=".75"/>
    <circle cx="5.5" cy="8.5" fill="#f6f5f4" r="1.5"/>
    <circle cx="5.5" cy="8.25" fill="#241f31" r=".75"/>
    <path d="M2 6.114v7.37s-.247-.13-.31-.147c-.307-.082-.656-.037-.937-.182a.957.957 0 0 1-.375-.364 1.621 1.621 0 0 1-.21-.642A14.264 14.264 0 0 1 0 9.924v-.248c.003-.929.068-1.557.167-2.225a1.62 1.62 0 0 1 .21-.642.957.957 0 0 1 .376-.364c.28-.145.63-.1.937-.182.063-.017.31-.15.31-.15z" fill="#3d3846"/>
    <path d="M2.434 6c.183 0 .288.062.379.212.09.15.19.33.187.88v5.417c.003.55-.096.73-.187.88-.09.15-.196.211-.379.211-.109 0-.308-.064-.434-.116v-7.37c.126-.051.326-.114.434-.114z" fill="#9a9996"/>
    <path d="M6.31 11.751c-1.564.023-1.183.699-1.477 1.234-.144.261.208-.03.603-.395.622.962 1.763 1.871 3.764 1.15-1.784-.127-2.871-.754-3.524-1.377.328-.311.633-.612.633-.612z" opacity=".4"/>
    <circle cx="9.5" cy="11.5" opacity=".4" r=".5"/>
    <path d="M14 6.114v7.37s.247-.13.31-.147c.307-.082.656-.037.937-.182a.957.957 0 0 0 .375-.364c.127-.218.174-.396.21-.642.1-.668.165-1.296.168-2.225v-.248a14.294 14.294 0 0 0-.167-2.225 1.62 1.62 0 0 0-.21-.642.957.957 0 0 0-.376-.364c-.28-.145-.63-.1-.937-.182a3.168 3.168 0 0 1-.31-.15z" fill="#3d3846"/>
    <path d="M13.566 6c-.183 0-.288.062-.379.212-.09.15-.19.33-.187.88v5.417c-.003.55.096.73.187.88.09.15.196.211.379.211.109 0 .308-.064.434-.116v-7.37c-.126-.051-.326-.114-.434-.114z" fill="#9a9996"/>
</svg>
