<svg xmlns="http://www.w3.org/2000/svg" width="16" height="16" version="1">
    <path fill="#4987d7" d="M.8 0a.798.798 0 0 0-.566.234L8 8 15.766.234A.798.798 0 0 0 15.2 0H.8z"/>
    <path fill="#a45390" d="M.8 16a.798.798 0 0 1-.566-.234L8 8l7.766 7.766A.797.797 0 0 1 15.2 16H.8z"/>
    <path fill="#6db832" d="M16 .8a.798.798 0 0 0-.234-.566L8.001 8l7.765 7.766A.794.794 0 0 0 16 15.2V.8z"/>
    <path fill="#c2352a" d="M0 .8C0 .58.09.378.234.234L8 8 .234 15.766A.795.795 0 0 1 0 15.2V.8z"/>
</svg>
