<svg height="64" viewBox="0 0 16.933 16.933" width="64" xmlns="http://www.w3.org/2000/svg">
    <radialGradient id="d" cx="259.52" cy="558.97" gradientTransform="translate(-25.866 -65.48) scale(.1323)" gradientUnits="userSpaceOnUse" r="34">
        <stop offset="0" stop-color="#65257e"/>
        <stop offset=".724" stop-color="#672680"/>
        <stop offset=".801" stop-color="#a558c5"/>
        <stop offset=".941" stop-color="#b363d5"/>
        <stop offset="1" stop-color="#66267f"/>
    </radialGradient>
    <linearGradient id="e" gradientUnits="userSpaceOnUse" x1="8.467" x2="8.467" y1="12.704" y2="4.236">
        <stop offset="0" stop-color="#4e1d61"/>
        <stop offset="1" stop-color="#c68ede"/>
    </linearGradient>
    <linearGradient id="f" gradientUnits="userSpaceOnUse" x1="8.467" x2="8.467" y1="11.645" y2="5.647">
        <stop offset="0" stop-color="#e5e5e5"/>
        <stop offset="1" stop-color="#f1f1f1"/>
    </linearGradient>
    <linearGradient id="g" gradientUnits="userSpaceOnUse" x1="-9.439" x2="-9.439" y1="56.746" y2="55.022">
        <stop offset="0" stop-color="#f4f4f7"/>
        <stop offset="1" stop-color="#f4f4f7" stop-opacity="0"/>
    </linearGradient>
    <linearGradient id="h" gradientUnits="userSpaceOnUse" x1="-9.396" x2="-9.396" y1="56.691" y2="55.169">
        <stop offset="0" stop-color="#d6d6d6"/>
        <stop offset="1" stop-color="#d0d0d0"/>
    </linearGradient>
    <linearGradient id="i" gradientUnits="userSpaceOnUse" x1="8.416" x2="8.416" y1="7.126" y2="9.79">
        <stop offset="0"/>
        <stop offset="1" stop-opacity=".5"/>
    </linearGradient>
    <linearGradient id="j" gradientTransform="matrix(.06694 0 0 .06643 -12.391 -11.497)" gradientUnits="userSpaceOnUse" x1="299.74" x2="323.46" y1="304.59" y2="304.59">
        <stop offset="0" stop-color="#1a1d1e"/>
        <stop offset=".167" stop-color="#282d30"/>
        <stop offset=".506" stop-color="#34393d"/>
        <stop offset=".833" stop-color="#2a2e32"/>
        <stop offset="1" stop-color="#1b1d1f"/>
    </linearGradient>
    <linearGradient id="c" gradientUnits="userSpaceOnUse" x1="8.379" x2="8.379" y1="13.822" y2="3.406">
        <stop offset="0" stop-color="#e0e0e0"/>
        <stop offset="1" stop-color="#f4f4f7"/>
    </linearGradient>
    <linearGradient id="k" gradientUnits="userSpaceOnUse" x1="65.777" x2="65.777" y1="16.429" y2=".554">
        <stop offset="0" stop-color="#3889e9"/>
        <stop offset="1" stop-color="#5ea5fb"/>
    </linearGradient>
    <filter id="a" color-interpolation-filters="sRGB" height="1.054" width="1.054" x="-.027" y="-.027">
        <feGaussianBlur stdDeviation=".619"/>
    </filter>
    <linearGradient id="b" gradientUnits="userSpaceOnUse" x1="76.93" x2="131.93" y1="59.946" y2="4.946">
        <stop offset="0" stop-color="#1d2123"/>
        <stop offset="1" stop-color="#33393e" stop-opacity=".996"/>
    </linearGradient>
    <g transform="matrix(.26458 0 0 .26458 -19.166 0)">
        <rect fill="#141414" filter="url(#a)" height="55" opacity=".3" ry="15" width="55" x="76.935" y="4.956"/>
        <rect fill="url(#b)" height="55" ry="15" width="55" x="76.935" y="4.956"/>
        <circle cx="104.44" cy="32" fill="none" r="30.001"/>
    </g>
    <g stroke-width=".359">
        <rect height="11.642" opacity=".037" rx="5.821" width="11.642" x="2.646" y="3.144"/>
        <rect height="11.642" opacity=".063" rx="5.821" width="11.642" x="2.646" y="2.91"/>
        <rect height="8.996" opacity=".25" rx="4.498" width="8.996" x="3.969" y="4.232"/>
        <rect height="8.89" opacity=".25" rx="4.445" width="8.89" x="4.022" y="4.284"/>
        <rect height="8.89" opacity=".087" rx="4.445" width="8.89" x="4.022" y="4.284"/>
        <rect height="6.879" opacity=".25" rx="3.44" width="6.879" x="5.027" y="5.291"/>
        <rect height="3.647" opacity=".25" rx="1.823" width="3.647" x="6.643" y="6.905"/>
        <rect height="3.366" opacity=".25" rx="1.683" width="3.366" x="6.784" y="7.046"/>
        <rect height="3.704" opacity=".25" rx="1.852" width="3.704" x="6.615" y="6.88"/>
    </g>
    <path d="M8.467 6.878c-1.026 0-1.852.826-1.852 1.852s.826 1.852 1.852 1.852 1.852-.826 1.852-1.852-.826-1.852-1.852-1.852zm0 .057c.994 0 1.795.8 1.795 1.795 0 .994-.8 1.795-1.795 1.795-.995 0-1.795-.8-1.795-1.795 0-.995.8-1.795 1.795-1.795z" opacity=".087"/>
    <path d="M7.808 6.084a.134.134 0 0 0-.135.134v1.457l.526.512-.526.512v2.543c0 .074.06.134.135.134h1.318c.075 0 .135-.06.135-.134V9.774l-.53-.515.53-.515V6.218a.134.134 0 0 0-.135-.134z" opacity=".25"/>
    <g stroke-width=".359">
        <rect height="11.642" opacity=".175" rx="5.821" width="11.642" x="2.646" y="2.77"/>
        <rect height="8.996" opacity=".35" rx="4.498" width="8.996" x="3.969" y="4.092"/>
        <rect height="8.89" opacity=".35" rx="4.445" width="8.89" x="4.022" y="4.144"/>
        <rect height="8.89" opacity=".122" rx="4.445" width="8.89" x="4.022" y="4.144"/>
        <rect height="6.879" opacity=".35" rx="3.44" width="6.879" x="5.027" y="5.151"/>
        <rect height="3.647" opacity=".35" rx="1.823" width="3.647" x="6.643" y="6.765"/>
        <rect height="3.366" opacity=".35" rx="1.683" width="3.366" x="6.784" y="6.906"/>
        <rect height="3.704" opacity=".35" rx="1.852" width="3.704" x="6.615" y="6.739"/>
    </g>
    <path d="M8.467 6.738c-1.026 0-1.852.826-1.852 1.852s.826 1.852 1.852 1.852 1.852-.826 1.852-1.852-.826-1.852-1.852-1.852zm0 .056c.994 0 1.795.801 1.795 1.796 0 .994-.8 1.795-1.795 1.795-.995 0-1.795-.8-1.795-1.795 0-.995.8-1.796 1.795-1.796z" opacity=".122"/>
    <path d="M7.808 5.944a.134.134 0 0 0-.135.134v1.456l.526.513-.526.512v2.542c0 .075.06.135.135.135h1.318c.075 0 .135-.06.135-.135V9.634l-.53-.515.53-.515V6.078a.134.134 0 0 0-.135-.134z" opacity=".35"/>
    <g stroke-width=".37">
        <rect fill="url(#c)" height="11.642" rx="5.821" width="11.642" x="2.646" y="2.651"/>
        <rect fill="url(#d)" height="8.89" rx="4.445" width="8.89" x="4.022" y="4.025"/>
        <rect fill="url(#e)" height="8.89" opacity=".35" rx="4.445" width="8.89" x="4.022" y="4.025"/>
        <rect fill="url(#f)" height="6.879" rx="3.44" width="6.879" x="5.027" y="5.032"/>
        <rect fill="url(#g)" height="3.647" rx="1.823" width="3.647" x="6.643" y="6.646"/>
        <rect fill="url(#h)" height="3.366" rx="1.683" width="3.366" x="6.784" y="6.787"/>
        <rect fill="#dfdfdf" height="3.704" rx="1.852" width="3.704" x="6.615" y="6.62"/>
    </g>
    <path d="M8.467 6.619c-1.026 0-1.852.826-1.852 1.852s.826 1.852 1.852 1.852 1.852-.826 1.852-1.852-.826-1.852-1.852-1.852zm0 .056c.994 0 1.795.801 1.795 1.796 0 .994-.8 1.795-1.795 1.795-.995 0-1.795-.8-1.795-1.795 0-.995.8-1.796 1.795-1.796z" fill="url(#i)" opacity=".35"/>
    <path d="M7.808 5.825a.134.134 0 0 0-.135.134v1.456l.526.512-.526.513v2.542c0 .075.06.135.135.135h1.318c.075 0 .135-.06.135-.135V9.515L8.73 9l.53-.515V5.959a.134.134 0 0 0-.135-.134H7.808z" fill="url(#j)"/>
</svg>
