<svg xmlns="http://www.w3.org/2000/svg" width="16" height="16" version="1"><rect style="fill:#4bae4f" width="9.177" height="9.177" x="6.72" y="-7.01" rx=".492" ry=".492" transform="scale(1 -1) rotate(-45)"/><rect style="fill:#4bae4f" width="9.177" height="9.177" x="9.15" y="-4.59" rx=".492" ry=".492" transform="scale(1 -1) rotate(-45)"/><rect style="fill:#f58411" width="11.68" height="11.68" x="5.47" y="-5.84" rx=".626" ry=".626" transform="scale(1 -1) rotate(-45)"/><g style="font-size:11.88749409px;line-height:1.25;font-family:'DejaVu Serif';letter-spacing:0;word-spacing:0;fill:#f4f4f7"><path style="fill:#f4f4f7" d="M7.634 11.87q.656-.057.998-.377.348-.319.348-.87 0-.5-.342-.848t-1.004-.528zm-.58-6.495q-.598.041-.93.349-.33.302-.33.812 0 .465.302.772.307.308.957.5zM4.65 11.847v-1.602h.627q.023.796.465 1.202.44.406 1.311.424V9.056q-1.335-.372-1.874-.854-.54-.487-.54-1.288 0-.929.638-1.492.639-.563 1.776-.633V3.234h.58v1.555q.587.047 1.127.192.545.14 1.062.377v1.52H9.19q-.07-.672-.47-1.061-.4-.39-1.085-.442V8q1.428.389 1.997.894.574.5.574 1.34 0 .964-.673 1.545-.673.58-1.898.667v1.567h-.58v-1.567q-.558-.011-1.156-.162-.598-.145-1.248-.436z" transform="scale(1.07788 .92774)"/></g></svg>