<svg height="16" width="16" xmlns="http://www.w3.org/2000/svg"><rect fill="#f63db6" height="16" rx=".8" width="16"/><path d="m6.3 12.875a381.162 381.162 0 0 1 -3.145-1.137c-.007-.007-.008-.016-.004-.02.005-.006 1.425.16 3.155.368 2.385.286 2.683.372 2.694.355.02-.03.02-8.415 0-8.446-.021-.032-3.941.93-3.976.976-.019.025-.024.63-.024 2.879 0 2.256-.005 2.851-.024 2.866-.036.027-1.928.953-1.956.953-.019 0-.022-.735-.019-3.643l.005-3.642 2.463-.908 3.236-1.192.773-.284 1.737.555c.956.305 1.748.561 1.761.57.02.011.024 1.015.024 4.914 0 4.647-.002 4.9-.033 4.917-.058.03-3.45 1.045-3.492 1.044-.023 0-1.45-.507-3.174-1.125z" fill="#f4f4f7"/></svg>