<svg height="16" width="16" xmlns="http://www.w3.org/2000/svg"><path d="m2.829 3a.583.68 0 0 0 -.564.502l-2.245 9.638a.583.68 0 0 0 .563.86h2.589a.583.68 0 0 0 .563-.502l2.245-9.64a.583.68 0 0 0 -.563-.858z" fill="#dd2f38"/><path d="m12.829 3a.583.68 0 0 0 -.564.502l-2.245 9.638a.583.68 0 0 0 .563.859h2.589a.583.68 0 0 0 .563-.502l2.245-9.64a.583.68 0 0 0 -.563-.857z" fill="#0766b5"/><path d="m7.829 3a.583.68 0 0 0 -.564.502l-2.245 9.638a.583.68 0 0 0 .563.859h2.589a.583.68 0 0 0 .563-.502l2.245-9.64a.583.68 0 0 0 -.563-.857z" fill="#27a74e"/></svg>