<svg xmlns="http://www.w3.org/2000/svg" width="16" height="16" version="1">
    <path style="fill:#ffc129" d="M.8 0C.357 0 0 .357 0 .8v4.8h9.6V0H.8z"/>
    <path style="fill:#5fb319" d="M9.6 0v5.6H16V.8c0-.443-.357-.8-.8-.8H9.6z"/>
    <path style="fill:#e74b4b" d="M6.4 5.6V16h8.8c.443 0 .8-.357.8-.8V5.6z"/>
    <path style="fill:#35abe4" d="M0 5.6v9.6c0 .443.357.8.8.8h5.7V5.6z"/>
    <path style="fill:#f4f4f7" transform="rotate(90)" d="M5-7h11v1H5z"/>
    <path style="fill:#f4f4f7" d="M0 5h16v1H0z"/>
    <path style="fill:#f4f4f7" transform="rotate(90)" d="M0-10h6v1H0z"/>
</svg>
