<svg xmlns="http://www.w3.org/2000/svg" width="16" height="16" version="1"><path fill="#ff766a" d="M1 1C0 1 0 2 0 2v9h16V2s0-1-1-1z"/><path fill="#d22f7a" d="M0 11v3c0 1 1 1 1 1h14c1 0 1-1 1-1v-3z"/><path fill="#fef8e2" fill-rule="evenodd" d="M11 4a2 2 0 1 1 0 4 2 2 0 0 1 0-4z"/><path style="fill:#17191e" d="M0 11v-.521s1.154-.869 1.478-.945c.325-.076.708.186 1.101.27.394.085.982.2 1.165.207.184.006.516-.019.901-.045.386-.026 1.025-.05 1.224-.048.2 0 .697.032 1.227.069.53.036 1.258.098 1.423.116.165.017.36.049.58.083.22.035.602.087.737.101.135.014.447.063.81.101.364.038.944.051 1.112.037.168-.014.52-.356.912-.486s.824-.25 1.152-.22c.33.029 2.178.76 2.178.76V11H1.942z"/></svg>