<svg xmlns="http://www.w3.org/2000/svg" width="16" height="16">
    <circle style="fill:#17191e" cx="8" cy="8" r="8"/>
    <path style="fill:#f4f4f7" d="M8.439 4c-.222 0-.46.003-.714.01-1.937.046-2.76.288-3.76.973-.716.49-1.184 1.31-.861 1.512.273.17 1.059-.21 1.295-.626.298-.525.638-.753 1.276-.753.383 0 .422.101.326.845a19.967 19.967 0 0 1-1.276 4.852c-.173.42-.315.842-.315.94 0 .294.266.327.75.091.5-.242.704-.516 1.1-1.479.198-.48.36-.898.36-.93 0-.153.292-.27.863-.344 1.963-.258 3.651-1.253 4.272-2.517.43-.873.292-1.577-.397-2.032C10.766 4.15 9.991 3.999 8.44 4zm-.418 1.094a2.34 2.34 0 0 1 .394.014c.935.093 1.642.356 1.933.72.197.247.203.837.013 1.193-.367.688-.975.937-2.782 1.14-.324.037-.42.026-.45-.048-.022-.052.056-.54.173-1.084a24.09 24.09 0 0 0 .262-1.375c.05-.386.144-.536.457-.56z"/>
</svg>
