<svg height="16" width="16" xmlns="http://www.w3.org/2000/svg">
    <path d="M4.716 0A.727.727 0 0 0 4 .727V3H1.682c-.508 0-.86.537-.682 1.012l1.439 2.38L.18 8.976a.727.727 0 0 0 .278 1.154L2 10.673v1.605c0 .402.344.722.745.722H4v1.307c0 .574.67.922 1.154.614l3.278-1.74 6.557 2.76a.727.727 0 0 0 .957-.94l-1.948-5.15 1.923-3.872c.242-.484-.11-.979-.65-.979h-2.273V3.272a.72.72 0 0 0-.138-.436l-1.916-1.488a.727.727 0 0 0-1.078-.096L7.653 3.025 5.241.213A.727.727 0 0 0 4.716 0z" fill="#932b2d"/>
    <g fill="#e9af00">
        <rect height="6" rx=".6" ry=".692" width="2" x="7" y="5"/>
        <rect height="6" rx=".6" ry=".692" transform="rotate(90)" width="2" x="7" y="-11"/>
    </g>
</svg>
