<svg xmlns="http://www.w3.org/2000/svg" width="16" height="16" version="1">
    <rect fill="#fecd38" width="16" height="16" rx=".8" ry=".8"/>
    <path fill="#333" d="M5.018 1c-.554 0-1 .446-1 1v1c0 .554.446 1 1 1h1c.554 0 1-.446 1-1V2c0-.554-.446-1-1-1zm-.472 4-.528.383-1.947 3.894c-.335.61.61 1.08.894.446l1.053-2.106.38-1.125L4.017 10v5h1v-4h1v4h1v-5L6.49 6.488l.527 1.13L8.07 9.723a.5.5 0 0 0 .225.224l1.722.862V15h2v-3.293l.647.647c.471.49 1.197-.236.707-.707l-1.354-1.354V10h-1.383L8.89 9.127 7.017 5.383 6.326 5zm5.472 2v2h2V7z"/>
</svg>
