<svg xmlns="http://www.w3.org/2000/svg" width="16" height="16" version="1">
    <g transform="translate(-13 -15)">
        <circle fill="#309dc0" cx="21" cy="23" r="8"/>
        <path fill="#fff" d="M21 19.75c-.97.01-1.945.23-2.79.71-.336.219-.74.502-1.044.787A5.439 5.439 0 0 0 16 22.876c.76 1.675 2.429 2.903 4.265 3.084 1.205.136 2.465-.072 3.524-.668a7.94 7.94 0 0 0 1.045-.787A5.464 5.464 0 0 0 26 22.875c-.759-1.674-2.429-2.902-4.265-3.083A6.233 6.233 0 0 0 21 19.75zM21 21c1.004-.022 1.894.877 1.875 1.876.032 1.104-1.068 2.057-2.156 1.85-1.098-.128-1.87-1.36-1.509-2.405a1.889 1.889 0 0 1 1.79-1.32zm0 1.25a.625.625 0 0 0-.625.627.625.625 0 0 0 .625.625.625.625 0 0 0 .625-.625.625.625 0 0 0-.625-.623z"/>
    </g>
</svg>
