<svg height="16" width="16" xmlns="http://www.w3.org/2000/svg"><rect fill="#426ea7" height="16" rx=".8" width="16"/><g fill="#fff"><path d="m12 6.645c-.993 2.46-7.525 2.837-7.86 1.847-.582-1.903.706-3.86 2.877-4.37 2.17-.51 4.401.62 4.983 2.523z"/><path d="m10 9s-4.238 1.899-7.6.65c-.584-.472.525-1.26.523-1.441-1.286.526-2.053.902-1.923 1.791 1.357 2.231 6.794.162 9-1z"/><path d="m7 11s4.089-1.262 6.518-3.9c.394-.774-1.04-.886-1.12-1.047 1.385-.115 2.503-.01 2.527.723-.198 2.604-5.432 4.258-7.925 4.224z"/></g></svg>