<svg xmlns="http://www.w3.org/2000/svg" width="16" height="16"><path style="fill:#4f4f4f" d="M5.514.233c-1.01.485-1.321.957-1.623 1.754a5.294 5.294 0 0 0-.484-.018c-.568.006-1.14.094-1.722.383-.582.29-1.2.863-1.457 1.646-.317.966-.284.92-.022 1.813.314 1.07 1.322 1.871 2.29 2.084.077.017.086-.011.153.002l-.02.09c-.06.296-.197.896-.285 1.268-.288 1.217-.39 1.87-.387 2.565.004.87.461 2.127 1.073 2.732.234.231.72.575 1.02.723a6.116 6.116 0 0 0 1.573.498c.666.122 1.415.173 2.16.198.744.025 1.25.083 2.071-.096a5.404 5.404 0 0 0 1.213-.414c.96-.474 1.85-1.489 2.153-2.534.183-.628.23-.853.171-1.584l-.037-.465a70.54 70.54 0 0 0-.114-1.245c-.05-.498-.055-.82-.086-1.2.255-.018.476.081.749.01.593-.158 1.367-.505 1.823-1.367.455-.863.268-1.853-.018-2.442-.526-1.086-1.675-1.695-2.674-1.873-.046-.008-.077 0-.12-.006C12.704 1.415 11.646.07 9.81.07c-.655.017-.926.33-1.331.776-.175-.21-.352-.432-.538-.542C7.102-.174 6.355 0 5.514.233z"/><path style="fill:#f4f4f7" d="M6.559 2.002a.718.718 0 0 0-.248.068c-.278.133-.625.547-.739.881-.119.351-.128.768-.027 1.158.048.187.158.457.185.457.008 0 .067-.039.131-.087.13-.098.333-.204.524-.272.182-.065.186-.068.158-.203a2.433 2.433 0 0 1-.025-.363c-.001-.31.07-.534.265-.848.191-.306.24-.412.24-.508 0-.19-.218-.304-.464-.283zm3.3.098c-.041.002-.07.013-.078.035-.008.021.015.199.053.394.139.718.053 1.18-.32 1.729-.077.112-.108.18-.092.195.04.04.762.403.807.406.022.002.078-.038.125-.09.2-.218.423-.57.533-.845.286-.715.125-1.292-.451-1.631-.208-.122-.452-.2-.577-.193zM3.352 4c-.69.007-1.18.245-1.315.652-.047.144-.05.464-.004.62.105.355.395.604.809.695.197.043.679.044.949.002a5.093 5.093 0 0 0 1.082-.326 5.04 5.04 0 0 0 .28-.133c.027-.018.18-.349.181-.393 0-.009-.055.009-.123.04-.155.07-.838.247-1.14.296-.32.052-.724.05-.876-.002-.153-.053-.225-.142-.224-.281 0-.154.068-.283.209-.397.182-.147.294-.177.736-.189.4-.01.69.019 1.117.11.25.052.379.117.4.2l.016.055.04-.05c.037-.05.036-.061-.022-.192a.797.797 0 0 0-.115-.191c-.065-.063-.546-.277-.77-.342a4.921 4.921 0 0 0-.924-.162A3.353 3.353 0 0 0 3.352 4zM12 4.729c-.241.009-.487.037-.686.083-.315.075-.616.184-.761.276l-.086.055.137.125c.074.069.154.132.177.14.024.009.136-.03.256-.09.33-.163.636-.235 1.072-.252.327-.012.386-.007.541.041.268.084.412.268.373.479-.038.21-.194.336-.474.38-.17.028-.649-.01-1.084-.089a.96.96 0 0 0-.219-.025c-.01.006.006.06.037.117.263.482 1.315.767 2.086.564.587-.154.77-.497.527-.994-.2-.41-.61-.668-1.24-.78A3.256 3.256 0 0 0 12 4.73zm-8.184.148c-.491.012-.664.07-.587.2.088.148.46.162 1.128.042.413-.074.52-.103.485-.135a1.982 1.982 0 0 0-.336-.068 3.23 3.23 0 0 0-.69-.039zm8.372.521c-.37-.012-.814.054-.758.112.006.007.135.029.287.05l.338.051c.034.006.203.012.373.014.278.003.308-.002.3-.041-.004-.024-.064-.073-.132-.11-.108-.056-.166-.068-.409-.076zm-1.213.256c-.048 0-.065.017-.077.069a.73.73 0 0 1-.195.388c-.236.228-.594.215-1.092-.043l-.242-.125-.162.172c-.34.364-.802.487-1.158.307-.12-.06-.217-.213-.252-.397a2.303 2.303 0 0 1-.024-.14c0-.032-.072.003-.136.064-.215.205-.59.356-.885.356-.29 0-.438-.093-.541-.342-.025-.061-.053-.111-.063-.111-.01 0-.07.034-.132.076-.31.206-.733.23-.895.05-.095-.105-.14-.057-.14.153-.001.214-.043.448-.198 1.08-.081.333-.205.878-.275 1.21-.07.334-.205.929-.299 1.323-.283 1.188-.337 1.522-.334 2.088.003.656.11.948.48 1.313.187.183.253.23.502.351.325.159.592.241 1.059.326.945.172 2.91.237 3.47.116.31-.068.527-.139.762-.254.609-.299.948-.69 1.125-1.297a3.15 3.15 0 0 0 .098-.864l-.037-.468c-.015-.19-.064-.73-.111-1.2a48.259 48.259 0 0 1-.237-3.275c-.012-.299-.027-.586-.037-.639-.013-.075-.007-.107.035-.164.07-.092.066-.123-.01-.123zM8.568 6.928c.27-.002.466.145.586.44.04.098.052.183.053.386.001.245-.002.27-.08.426-.095.19-.278.366-.47.455-.142.065-.24.071-.352.023-.111-.048-.23-.193-.278-.342a1.907 1.907 0 0 1-.023-.81c.023-.088.055-.204.068-.258.048-.196.238-.319.496-.32zm-.109.308a.246.246 0 0 0-.15.032c-.085.06-.153.514-.092.609.02.03.034.027.094-.027.1-.093.174-.126.293-.127.137-.002.246.057.304.164.05.092.088.096.088.01 0-.213-.18-.526-.351-.612a.483.483 0 0 0-.186-.049zm-2.014.147a.418.418 0 0 1 .16 0c.14.026.386.278.46.47.122.323.025.719-.243 1.002-.177.188-.317.235-.47.157-.124-.064-.205-.154-.278-.315-.109-.239-.098-.573.033-.99a.454.454 0 0 1 .338-.324zm-.058.308c-.084 0-.119.082-.14.338-.022.252-.013.264.132.192a.565.565 0 0 1 .197-.059c.043 0 .122.022.176.049.054.027.103.045.11.039.026-.027-.03-.19-.102-.299-.09-.133-.271-.26-.373-.26zm.02 3.405c.027-.005.049 0 .081.013.04.017.1.072.133.121.132.197.093.486-.092.678-.095.1-.11.106-.246.115-.143.01-.147.01-.24-.082-.089-.087-.094-.101-.094-.23a.57.57 0 0 1 .059-.26c.083-.177.138-.237.281-.308a.459.459 0 0 1 .117-.047zm1.97.18.182.011c.392.024.542.218.423.55-.113.318-.464.598-.7.561-.163-.025-.27-.297-.235-.587.022-.18.055-.243.209-.407l.121-.129zm-2.104.107c-.016.005-.05.046-.076.092-.039.07-.041.094-.017.146a.23.23 0 0 0 .105.094c.096.04.12.04.156.006.059-.058.033-.18-.054-.266-.046-.045-.097-.077-.114-.072zm2.04.256-.01.091a.602.602 0 0 0 .021.194c.05.166.195.177.356.025.164-.154.055-.31-.22-.31h-.148z"/></svg>