<svg height="16" width="16" xmlns="http://www.w3.org/2000/svg">
    <path d="M7.619 8c0 4.418-3.411 8-7.619 8C2.286 13.2 1.905 2.8 0 0c4.208 0 7.619 3.582 7.619 8z" fill="#c1272d"/>
    <ellipse cx="8" cy="8" fill="#c1272d" rx="8" ry="6"/>
    <path d="M8 3c-2.006 0-3.804.617-5.057 1.557C1.692 5.495 1.001 6.702 1 7.998c.002.945.38 1.884 1.154 2.725a1 1 0 0 1 .258.787c-.127 1.147-.34 2.182-.646 3.117 1.089-.326 2.104-.828 2.892-1.654a1 1 0 0 1 .977-.278A9.442 9.442 0 0 0 8.002 13c2.006 0 3.803-.618 5.055-1.557S15 9.297 15 8s-.691-2.504-1.943-3.443C11.804 3.617 10.007 3 8 3z" fill="#f4f4f7"/>
    <g fill="#c1272d">
        <circle cx="8" cy="8" r="1"/>
        <circle cx="11" cy="8" r="1"/>
        <circle cx="5" cy="8" r="1"/>
    </g>
</svg>
