<svg height="16" width="16" xmlns="http://www.w3.org/2000/svg"><path d="m8.019 0a.83.83 0 0 0 -.425.106l-7.187 2.27a.79.79 0 0 0 -.407.688v8.095a.79.79 0 0 0 .407.687l7.187 4.048a.832.832 0 0 0 .813 0l7.186-4.048a.79.79 0 0 0 .407-.686v-8.096a.79.79 0 0 0 -.407-.688l-7.186-2.27a.83.83 0 0 0 -.388-.106z" fill="#4a4034"/><path d="m8.02 0a.83.83 0 0 0 -.426.106l-7.187 2.27a.796.796 0 0 0 -.386.513c.05.216.19.402.386.513l7.187 4.048a.832.832 0 0 0 .813 0l7.186-4.048a.796.796 0 0 0 .386-.513.796.796 0 0 0 -.386-.513l-7.186-2.27a.83.83 0 0 0 -.387-.106z" fill="#f4f4f7" opacity=".06"/><path d="m.02 2.89a.776.776 0 0 0 -.02.174v8.095a.79.79 0 0 0 .407.687l7.187 4.048a.83.83 0 0 0 .406.105v-8.443a.83.83 0 0 1 -.406-.106l-7.187-4.048a.796.796 0 0 1 -.386-.513z" opacity=".08"/><path d="m8 3 5 1.845v5.636l-5 2.519-5-2.519v-5.636z" fill="#564c3d"/><path d="m8 3-5 1.845v5.636l5-2.064z" fill="#f4f4f7" opacity=".05"/><path d="m8 3 5 1.845v5.636l-5-2.064z" fill="#f4f4f7" opacity=".13"/><path d="m8.007 5.783a.305.235 0 0 0 -.16.031l-2.693 1.196a.305.235 0 0 0 -.154.203v2.39a.305.235 0 0 0 .153.203l2.695 1.196a.305.235 0 0 0 .305 0l2.694-1.196a.305.235 0 0 0 .153-.203v-2.39a.305.235 0 0 0 -.153-.203l-2.694-1.196a.305.235 0 0 0 -.146-.03z" fill="#ff2a2a"/><path d="m8.007 5.783a.305.235 0 0 0 -.16.032l-2.694 1.194a.305.235 0 0 0 -.111.087.305.235 0 0 0 .111.085l2.696 1.195a.305.235 0 0 0 .304 0l2.696-1.195a.305.235 0 0 0 .111-.085.305.235 0 0 0 -.111-.087l-2.697-1.194a.305.235 0 0 0 -.145-.032z" fill="#ffbd30"/><path d="m5.041 7.096a.195.195 0 0 0 -.041.117v2.39c0 .084.058.161.152.203l2.696 1.195c.046.021.098.032.152.032v-2.625a.378.378 0 0 1 -.152-.032l-2.696-1.195a.281.281 0 0 1 -.111-.085z" fill="#ff6f2a"/></svg>