<svg height="16" width="16" xmlns="http://www.w3.org/2000/svg">
    <rect fill="#af903d" height="15" rx=".75" transform="matrix(0 -1 -1 0 0 0)" width="15" x="-15" y="-15"/>
    <path d="M.75 0A.748.748 0 0 0 0 .75V3h3V0zM3 3v3h3V3zm3 0h3V0H6zm3 0v3h3V3zm3 0h3V.75a.748.748 0 0 0-.75-.75H12zm0 3v3h3V6zm0 3H9v3h3zm0 3v3h2.25c.415 0 .75-.335.75-.75V12zm-3 0H6v3h3zm-3 0V9H3v3zm-3 0H0v2.25c0 .415.335.75.75.75H3zm0-3V6H0v3zm3 0h3V6H6z" fill="#fece43"/>
    <path d="M10.507 4.5h-6v3h6v3h-6" fill="none" stroke="#434176" stroke-linecap="round" stroke-linejoin="round"/>
</svg>
