<svg height="16" width="16" xmlns="http://www.w3.org/2000/svg">
    <path d="M8 2c-.41.002-.804.04-1.206.115-2.968.537-5.062 2.305-4.349 5.186.351 1.418.884 2.328 1.212 3.232.868 2.399.775 3.629 2.44 4.161.669.213 1.21.314 1.903.305.693.01 1.233-.092 1.902-.305 1.665-.532 1.572-1.763 2.44-4.16.328-.905.662-1.815 1.011-3.233.714-2.88-1.18-4.65-4.147-5.187A6.262 5.815 0 0 0 8 2z" fill="#d7cec7"/>
    <path d="m9.19 2.112.015.003c2.782.502 5.078 2.089 4.767 4.659a4.278 4.278 0 0 1-.099.525l-.01.04c-.352 1.376-1.172 2.275-1.506 3.16-2.179-.656-3.358-2.72-3.358-5.333-.004-1-.28-2.145.19-3.053zm-2.38 0-.016.003c-2.782.502-5.077 2.089-4.767 4.659.021.171.054.346.1.525l.01.04c.351 1.376 1.171 2.275 1.505 3.16C5.821 9.843 7 7.779 7 5.166c.004-1 .28-2.145-.19-3.053z" fill="#de8c4a"/>
    <path d="M7.633 10.952c-.35 0-.633.338-.633.756 0 .422.651 1.244 1 1.244s1-.822 1-1.244c0-.418-.283-.756-.633-.756z" fill="#17191e"/>
    <circle cx="5" cy="8" fill="#17191e" r="1"/>
    <circle cx="4.75" cy="7.75" fill="#f4f4f7" r=".25"/>
    <path d="M9 14a1 1 0 0 1-2 0c0-.119.02-.033.059-.139.139-.385.487-.17.92-.17s.822-.216.962.17c.038.105.059.02.059.139z" fill="#d86f6f"/>
    <path d="M6.095 13.25s.51.373.953.49c.274.073.952-.24.952-.24s.678.313.952.24c.443-.117.953-.49.953-.49" fill="none" stroke="#79431b" stroke-linecap="round" stroke-linejoin="round" stroke-width=".5"/>
    <path d="M5.246 3.238s1.408-1.56.376-2.003c-1.155-.497-4.24-.183-5.317.723-.411.337-.316.63-.23 1.028.295 1.38 1.061 4.9 1.212 5.011.187.138 3.959-4.76 3.959-4.76zm5.508 0s-1.408-1.56-.376-2.003c1.155-.497 4.24-.183 5.317.723.411.337.316.63.23 1.028-.295 1.38-1.061 4.9-1.212 5.011-.187.138-3.959-4.76-3.959-4.76z" fill="#86522b"/>
    <circle cx="11" cy="8" fill="#17191e" r="1"/>
    <circle cx="10.75" cy="7.75" fill="#f4f4f7" r=".25"/>
</svg>
