<svg height="16" width="16" xmlns="http://www.w3.org/2000/svg"><path d="m8 0h-7.2c-.443 0-.8.357-.8.8v7.2h8z" fill="#8e8e8e"/><path d="m8 0h7.2c.443 0 .8.357.8.8v7.2h-8z" fill="#f4f4f7"/><path d="m8 16h-7.2a.798.798 0 0 1 -.8-.8v-7.2h8z" fill="#45792a"/><path d="m8 16h7.2c.443 0 .8-.357.8-.8v-7.2h-8z" fill="#8e8e8e"/><circle cx="4" cy="4" fill="#f4f4f7" r="2"/><path d="m14.07 26.76 4.02 6.96 4.018 6.96h-16.075l4.019-6.96z" fill="#ffdd4c" transform="matrix(.31103 0 0 .35915 -.376 -.61)"/><path d="m14 9.4-1 1.04v4.56h1z" fill="#17191e"/><path d="m14.07 26.76 4.02 6.96 4.018 6.96h-16.075l4.019-6.96z" fill="#e33939" transform="matrix(0 .24883 .28732 0 2.312 7.499)"/><path d="m12 2v2h-2v1h2v2h1v-2h2v-1h-2v-2z" fill="#17191e"/></svg>