<svg xmlns="http://www.w3.org/2000/svg" width="16" height="16" version="1">
    <path fill="#8b9cbe" d="M14 8a6 6 0 0 1-6 6 6 6 0 0 1-6-6 6 6 0 0 1 6-6 6 6 0 0 1 6 6z"/>
    <path fill="#f4f4f7" d="M8 0C3.568 0 0 3.568 0 8s3.568 8 8 8 8-3.568 8-8-3.568-8-8-8zm0 1a2 2 0 0 1 2 2 2 2 0 0 1-2 2 2 2 0 0 1-2-2 2 2 0 0 1 2-2zM3 6a2 2 0 0 1 2 2 2 2 0 0 1-2 2 2 2 0 0 1-2-2 2 2 0 0 1 2-2zm10 0a2 2 0 0 1 2 2 2 2 0 0 1-2 2 2 2 0 0 1-2-2 2 2 0 0 1 2-2zm-5 5a2 2 0 0 1 2 2 2 2 0 0 1-2 2 2 2 0 0 1-2-2 2 2 0 0 1 2-2z"/>
    <g fill="#8b9cbe" transform="rotate(-30 9.866 7.5)">
        <circle cx="8" cy="8"/>
        <circle cx="8" cy="6"/>
        <circle cx="7" cy="-7" transform="rotate(90)"/>
        <circle cx="7" cy="-9" transform="rotate(90)"/>
    </g>
</svg>
