<svg xmlns="http://www.w3.org/2000/svg" width="16" height="16" version="1"><path style="fill:#61b12f" d="M.857 0C.382 0 0 .446 0 1v14s0 1.004.857 1l14.343-.066c.443-.003.8-.417.8-.934V1c0-.554-.382-1-.857-1H.857zm0 16h14.286c.251 0 .469-.133.625-.333a.758.758 0 0 1-.571.27L.857 16z"/><path style="fill:#f4f4f7" d="m6.964 4-.088 1.053a3.143 3.143 0 0 0-.918.532L5 5.134 4 6.866l.87.604A3.143 3.143 0 0 0 4.82 8a3.143 3.143 0 0 0 .046.532L4 9.134l1 1.732.955-.45a3.143 3.143 0 0 0 .921.528L6.964 12h2l.089-1.053a3.143 3.143 0 0 0 .918-.532l.958.451 1-1.732-.87-.604a3.143 3.143 0 0 0 .048-.53 3.143 3.143 0 0 0-.045-.532l.867-.602-1-1.732-.956.45a3.143 3.143 0 0 0-.92-.528L8.965 4h-2zm1 2.857A1.143 1.143 0 0 1 9.107 8a1.143 1.143 0 0 1-1.143 1.143A1.143 1.143 0 0 1 6.822 8a1.143 1.143 0 0 1 1.142-1.143z"/></svg>