<svg xmlns="http://www.w3.org/2000/svg" width="16" height="16">
    <circle style="fill:#0068c8" cx="8" cy="8" r="8"/>
    <path style="fill:#f4f4f7" d="M9.799 2.65c-.223-.01-1.445.35-1.803.81C6.917 3.53 2.566 6.5.01 8.3c.009.19.024.38.047.57 1.162-.44 2.515-.91 3.062-.91.108 0 .187.02.223.06.21.25-.685 1.45-1.61 2.81-.239.35-.481.71-.712 1.06.073.14.151.27.232.4 1.271-1.59 2.868-3.58 3.31-3.65.022 0 .047 0 .063.01.079.1-1.381 2.42-2.686 4.56.147.17.301.34.461.49.634-.87 1.321-1.83 1.987-2.74 1.388-1.92 2.617-3.72 3.217-3.73h.054c1.845.01 3.649 4.64 4.598 7.54.135-.09.267-.18.396-.27-.455-3.25-1.525-8.59-3.75-10.08.239-.16.26-.97.26-.97z"/>
</svg>
