<svg height="16" width="16" xmlns="http://www.w3.org/2000/svg">
    <path d="M8.042 0a1.742 1.742 0 0 0-.93.243l-5.224 3.09C1.338 3.66 1 4.26 1 4.91v6.181c0 .65.338 1.25.888 1.576l5.224 3.09c.306.181.652.262.993.24.271-.016.394-.423.637-.567l4.97-3.127c.55-.325.634-.453.634-1.103l.4-6.217c0-.227.212-.52.135-.726a1.808 1.808 0 0 0-.77-.923L8.889.243A1.743 1.743 0 0 0 8.042 0z" fill="#00e600"/>
    <path d="M1.18 4.114a1.775 1.82 0 0 0-.18.795v6.181a1.775 1.82 0 0 0 .888 1.575l5.224 3.091a1.775 1.82 0 0 0 .888.243V8.014z" fill="#00bc00"/>
    <path d="M14.825 4.129 8 8.03v7.969a1.775 1.82 0 0 0 .887-.243l5.225-3.09A1.775 1.82 0 0 0 15 11.09V4.91a1.775 1.82 0 0 0-.175-.781z" fill="#009200"/>
    <path d="m1 3 1 8h2l1 2 2-1-1-2h1V3zm7 0 1 10h4l1-3-1-2 1-2-1-3zM3.406 5H5v3H3.406zM10 5h2v2h-2zm0 4h2v2h-2z" fill="#ffbb32"/>
    <path d="m7 8-5.102 2.186L2 11h2l1 2 2-1-1-2h1zm6.6 1.2L12 10v1h-2l-1.143.572L9 13h4l1-3z" fill="#fd6447"/>
</svg>
