<svg width="16" height="16" xmlns="http://www.w3.org/2000/svg"><rect width="16" height="16" rx=".8" ry=".8" style="fill:#4f4f4f"/><path d="M8 1v2c.884 0 1.816-.028 2.547.358l1.048-1.357A6.957 6.957 0 0 0 8 1zM5.706 4.286a4.363 4.363 0 0 0-1.37 1.326l.601.2s-.52.477-.763 1.84c-.146.815.348 1.905.348 1.905l-.46.193h-.07a4.375 4.375 0 0 0 6.423 1.897l.21-.585h-.634l-.274-.53a3.063 3.063 0 0 1-1.717.53v.438c.004 0-.488.08-.875 0-.574-.12-.875-.438-.875-.438l.259-.388a3.063 3.063 0 0 1-.217-5.216zm8.55.587-.974-.015c.158.258.843 1.595.843 3.142 0 1.313-.875 2.187-.875 2.187h-.482a5.278 5.278 0 0 1-2.07 2.311l.9 1.498A6.988 6.988 0 0 0 15 8a6.961 6.961 0 0 0-.743-3.127z" style="fill:#d8554a"/><path d="M8 1a6.997 6.997 0 0 0-6.17 3.696l.482.242S2.75 4.063 4.5 2.75l.588.882C5.92 3.075 6.922 3 8 3zm3.595 1.001-1.048 1.357c.85.449 1.395.82 1.889 1.642l1.846-.073a7.018 7.018 0 0 0-2.687-2.926zM8 3.625v1.313a3.063 3.063 0 0 1 2.512 4.812h.703s-.153.727-1.224 1.313l.424.584A4.37 4.37 0 0 0 12.375 8c-.001-.768-.204-1.322-.59-1.987h-.722s-.165-.49-.438-.805c-.235-.27-.645-.456-.645-.456l.377-.437A4.375 4.375 0 0 0 8 3.625zM1 8a7 7 0 0 0 .661 2.95l.651-.325S2.68 12.037 4.5 13.25C5.812 14.125 8 14 8 14v1a7 7 0 0 0 3.891-1.185l-1.077-1.384A5.25 5.25 0 0 1 2.75 8z" style="fill:#2298e2"/></svg>