<svg height="16" width="16" xmlns="http://www.w3.org/2000/svg"><rect fill="#3bbd53" height="12" rx=".8" ry=".75" transform="matrix(0 -1 -1 0 0 0)" width="16" x="-16" y="-14"/><path d="m8.95 10c-1.795 0-3.25.895-3.25 2s1.455 2 3.25 2 3.25-.895 3.25-2-1.455-2-3.25-2zm0 .8c1.246 0 2.257.537 2.257 1.2s-1.01 1.2-2.257 1.2c-1.246 0-2.257-.537-2.257-1.2s1.01-1.2 2.257-1.2z" fill="#f4f4f7"/><path d="m11.5 2.5s-2.202-.257-3 .4c-.533.439-.581 1.179-1.173 1.52-.56.325-2.327-.42-2.327-.42s1 3.1 2.75 3c.625-.036.936-.713 1.5-1 .465-.236 1.75 0 1.75 0z" fill="#e33f32"/><path d="m5 12-2-2 2-.5-1-3.5 3 2 2-1v2l-.481-1-1.519 1-2-1.5 1 2.5-2 .5zm6.504-10.008a.5.5 0 0 0 -.492.399l-2 9a.5.5 0 1 0 .976.218l2-9a.5.5 0 0 0 -.484-.617z" fill="#f4f4f7"/></svg>