<svg height="16" width="16" xmlns="http://www.w3.org/2000/svg"><path d="m8 0a8 8 0 0 0 -8 8 8 8 0 0 0 8 8 8 8 0 0 0 8-8 8 8 0 0 0 -8-8z" fill="#f4b400"/><path d="m4.857 7.832-.706-1.432-1.58-.23 1.143-1.114-.27-1.573 1.413.743 1.413-.743-.27 1.574 1.143 1.114-1.58.23zm5.429-1.372-.707-1.432-1.579-.23 1.143-1.113-.27-1.573 1.413.743 1.412-.743-.27 1.573 1.143 1.114-1.579.23zm-4.857 7.086-.707-1.431-1.58-.23 1.144-1.113-.27-1.573 1.413.742 1.411-.741-.27 1.573 1.143 1.114-1.58.229zm6.285-1.714-.706-1.431-1.58-.23 1.143-1.114-.27-1.573 1.413.743 1.413-.743-.27 1.573 1.143 1.114-1.58.23z" fill="#f4f4f7"/><g fill="none" stroke="#c2352a" stroke-linecap="round" stroke-width="4.554676" transform="matrix(.27232 0 0 .29526 -.341 -1.723)"><path d="m57.721 39.516-5.693 18.218-5.694-18.218" stroke-linejoin="round"/><path d="m40.64 39.5-11.387 18.219m0-18.219 11.387 18.219"/></g></svg>