<svg height="16" width="16" xmlns="http://www.w3.org/2000/svg">
    <circle cx="-8" cy="8" fill="#aa3131" r="8" transform="scale(-1 1)"/>
    <path d="M9.245 2.132a5.987 5.987 0 0 0-4.577.88 6.088 6.088 0 0 0-1.881 2.016c-.321.556-.509 1.03-.661 1.753a5.969 5.969 0 0 0 .498 3.878c.043.087.044.089.048.087s.023-.03.301-.422A1056.68 1056.68 0 0 0 7.09 4.458c.505-.724.645-.924.67-.962.158-.235.318-.408.5-.536.043-.03.15-.091.196-.113.218-.097.449-.126.707-.087.142.022.292.066.392.105a1.23 1.23 0 0 1 .683.625c.093.201.146.431.164.714l.822 8.846.052-.027a5.892 5.892 0 0 0 2.324-2.87c.131-.343.208-.642.272-.93a5.968 5.968 0 0 0-.968-4.679 5.972 5.972 0 0 0-3.66-2.412zM9.08 3.729c-.454-.047-.744.274-.992.611l-4.422 7.802.076.084a5.977 5.977 0 0 0 2.581 1.531c.316.09.556.149.99.202.758.09 1.518.032 2.257-.171l.055-.018.07-8.325c-.04-.74-.005-1.51-.615-1.716z" fill="#f7b400"/>
</svg>
