<svg xmlns="http://www.w3.org/2000/svg" width="16" height="16" version="1"><path style="fill:#4f4f4f" d="M6.776 15.846c.126-.403.743-1.409 1.076-1.752.204-.21.371-.402.371-.426 0-.166-.506-.533-2.758-1.995-1.205-.782-1.859-1.342-2.461-2.105l-.51-.646-.211-.982c-.16-.74-.196-1.035-.148-1.204.048-.167.04-.243-.035-.303-.137-.11-.132-.602.007-.653.076-.028.105-.13.098-.357-.012-.425.056-.57.686-1.449.369-.514.633-.81.832-.93.161-.096.477-.343.702-.549.37-.338.431-.37.643-.331.169.03.281.008.404-.082.272-.2.7-.424.807-.424.117 0 .786-.369.99-.545C7.503.91 8.41.483 8.552.508c.072.013.141.093.154.177.012.084.044.153.07.153.026 0 .27-.104.543-.232.273-.127.85-.328 1.284-.445.848-.229 1.072-.218 1.225.06.07.124.145.14.715.14.657 0 .997.095 1.079.303.023.057.25.199.504.315.377.172.462.24.462.372 0 .101.08.216.216.31.315.216.257.393-.216.66-.214.121-.436.249-.495.283-.086.051-.07.079.089.15.107.048.194.132.194.187 0 .15-.606.94-.849 1.107-.255.176-.259.251-.045.859.091.26.238.78.326 1.156.087.376.219.883.293 1.127.074.244.185.736.248 1.093.198 1.13.031 1.854-.607 2.624-.428.518-1.449 1.47-2.044 1.907l-.451.331.041.341c.033.263.1.403.298.614.308.33.881 1.439.881 1.707V16H6.729l.048-.153z"/><path style="fill:#f4f4f7" d="M10.755 8.257c.135-.137.245-.367.245-.51 0-.145-.11-.375-.245-.511-.692-.701-1.706.312-1.036 1.035.288.31.722.304 1.036-.014zM13.99 6.914c.071-.354-.247-.827-.602-.903-.337-.072-.804.214-.876.55-.079.363.251.856.617.93.339.067.793-.24.861-.577z"/></svg>