<svg xmlns="http://www.w3.org/2000/svg" width="16" height="16"><circle style="fill:#03e9f8" cx="8" cy="8" r="8"/><path style="fill:#f4f4f7" d="M7.562 1.555c-.04.003-.112.014-.246.035-1.672.266-2.882 1.42-3.242 3.09-.07.322-.096.93-.054 1.263.035.279.123.67.155.69.011.007.123.03.246.05.545.092 1.15.287 1.465.473.083.05.238.175.343.278.594.584.84 1.147.814 1.855-.013.347-.071.692-.235.856-.182.182-.251.272-.608.306l-.177.018-.022.11c-.03.156-.002.608.045.867.057.31.173.645.3.862.524 1.048 1.291 1.388 2.28 1.677.225.031.838.01 1.055-.035 1.309-.277 2.159-1.253 2.303-2.645.016-.156.02-.394.011-.557-.077-1.287-.596-2.206-1.666-2.952-.637-.444-1.008-.718-1.154-.852-.271-.25-.412-.518-.473-.904a1.39 1.39 0 0 0-.036-.179.767.767 0 0 0-.154.078c-.358.21-.926.215-1.272.012-.388-.226-.747-.76-.907-1.353a2.909 2.909 0 0 1-.036-1.067c.115-.55.492-1.155 1.055-1.69.14-.135.256-.255.256-.266 0-.015-.006-.022-.046-.02zm1.443 7.113c.019-.016.034.06.08.376.09.622.231 1.197.345 1.394.13.229.456.378 1.067.49.14.026.26.051.267.057.017.016-.028.026-.33.07-.457.068-.776.176-.947.32-.202.172-.354.609-.455 1.31-.05.348-.077.463-.095.416a6.923 6.923 0 0 1-.069-.458c-.089-.682-.19-1.059-.328-1.225-.112-.133-.586-.31-1.1-.41-.246-.047-.286-.071-.152-.091.651-.097 1.1-.245 1.27-.42.14-.143.26-.594.372-1.38.034-.24.068-.442.075-.449z"/><path style="fill:#f4f4f7" d="M10.907 6.963c-.315-.109-.591-.37-.758-.718-.136-.282-.161-.422-.144-.778.015-.322.074-.607.17-.829.064-.144.174-.305.21-.305.009 0 .023.11.03.245.031.558.214.844.623.973.298.095.355.123.482.245.153.146.24.313.255.496a.652.652 0 0 1-.868.67z"/></svg>