<svg height="16" width="16" xmlns="http://www.w3.org/2000/svg"><circle cx="8" cy="8" fill="#2f6663" r="8"/><g transform="matrix(.9375 0 0 .9375 .5 .5)"><path d="m4.797 2.468a6.4 6.4 0 0 0 -3.197 5.532h6.4z" fill="#73d216"/><path d="m1.6 8a6.4 6.4 0 0 0 3.197 5.534l3.203-5.534z" fill="#ffe721"/><path d="m8 8-3.203 5.534a6.4 6.4 0 0 0 3.203.866 6.4 6.4 0 0 0 3.203-.868z" fill="#f57900"/><path d="m8 8 3.203 5.532a6.4 6.4 0 0 0 3.197-5.532z" fill="#ef298c"/><path d="m11.203 2.466-3.203 5.534h6.4a6.4 6.4 0 0 0 -3.197-5.534z" fill="#8c398d"/><path d="m8 1.6a6.4 6.4 0 0 0 -3.202.868l3.202 5.532 3.204-5.534a6.4 6.4 0 0 0 -3.204-.866z" fill="#0874ff"/></g><path d="m7.986 3.969c-.753 0-1.592.262-2.254.885-.813.764-1.208 1.726-1.101 2.591.107.866.565 1.508.994 2.065s.864 1.052 1.115 1.467c.232.383.268.603.223.847-.065.118-.276.34-.72.51a4.619 4.619 0 0 1 -1.522.271c-.15-.001-.822-.155-1.27-.334l-.703 1.758a8 8 0 0 0 .232.194c.533.2 1.105.376 1.721.382a6.251 6.251 0 0 0 2.254-.404c.766-.292 1.576-.773 1.93-1.703a1 1 0 0 0 .035-.107c.238-.93-.075-1.801-.469-2.452-.393-.65-.877-1.178-1.24-1.65s-.568-.866-.596-1.09c-.027-.224-.027-.406.487-.888.285-.27.536-.342.886-.342s.788.116 1.203.3c.832.37 1.508.95 1.508.95l1.317-1.506s-.847-.754-2.012-1.272c-.583-.259-1.264-.473-2.018-.472z" fill="#2f6663"/></svg>