<svg xmlns="http://www.w3.org/2000/svg" height="16" width="16" version="1.1" id="svg6">
    <defs id="defs2">
        <style type="text/css" id="current-color-scheme">
            .ColorScheme-Text{color:#122036}
        </style>
    </defs>
    <path style="opacity:1;vector-effect:none;fill:#5e9c76;fill-opacity:1;stroke:none;stroke-width:1.98768997;stroke-linecap:round;stroke-linejoin:round;stroke-miterlimit:4;stroke-dasharray:none;stroke-dashoffset:0;stroke-opacity:1" d="M8 0c4.432 0 8 3.568 8 8s-3.568 8-8 8-8-3.568-8-8 3.568-8 8-8Z" id="rect843"/>
    <path style="opacity:1;vector-effect:none;fill:#bae0bd;fill-opacity:1;stroke:none;stroke-width:1.73922873;stroke-linecap:round;stroke-linejoin:round;stroke-miterlimit:4;stroke-dasharray:none;stroke-dashoffset:0;stroke-opacity:1" d="M8 1c3.878 0 7 3.122 7 7s-3.122 7-7 7-7-3.122-7-7 3.122-7 7-7Z" id="rect843-6"/>
    <path style="opacity:1;vector-effect:none;fill:#5e9c76;fill-opacity:1;stroke:none;stroke-width:2;stroke-linecap:round;stroke-linejoin:round;stroke-miterlimit:4;stroke-dasharray:none;stroke-dashoffset:0;stroke-opacity:1" d="M8 3C6.338 3 5 4.338 5 6v1c-.554 0-1 .446-1 1v4c0 .554.446 1 1 1h6c.554 0 1-.446 1-1V8c0-.554-.446-1-1-1V6c0-1.662-1.338-3-3-3Zm0 2c.554 0 1 .446 1 1v1H7V6c0-.554.446-1 1-1Z" id="rect859"/>
</svg>
