<svg xmlns="http://www.w3.org/2000/svg" height="16" width="16" version="1.1" id="svg6">
    <defs id="defs2">
        <style type="text/css" id="current-color-scheme">
            .ColorScheme-Text{color:#122036}
        </style>
    </defs>
    <path style="opacity:1;vector-effect:none;fill:#3079cf;fill-opacity:.98039216;stroke:none;stroke-width:1.98768997;stroke-linecap:round;stroke-linejoin:round;stroke-miterlimit:4;stroke-dasharray:none;stroke-dashoffset:0;stroke-opacity:1" d="M8 0c4.432 0 8 3.568 8 8s-3.568 8-8 8-8-3.568-8-8 3.568-8 8-8Z" id="rect843"/>
    <path style="opacity:1;vector-effect:none;fill:#6bb1ff;fill-opacity:1;stroke:none;stroke-width:1.73922873;stroke-linecap:round;stroke-linejoin:round;stroke-miterlimit:4;stroke-dasharray:none;stroke-dashoffset:0;stroke-opacity:1" d="M8 1c3.878 0 7 3.122 7 7s-3.122 7-7 7-7-3.122-7-7 3.122-7 7-7Z" id="rect843-6"/>
    <path style="color:#000;font-style:normal;font-variant:normal;font-weight:400;font-stretch:normal;font-size:medium;line-height:normal;font-family:sans-serif;font-variant-ligatures:normal;font-variant-position:normal;font-variant-caps:normal;font-variant-numeric:normal;font-variant-alternates:normal;font-feature-settings:normal;text-indent:0;text-align:start;text-decoration:none;text-decoration-line:none;text-decoration-style:solid;text-decoration-color:#000;letter-spacing:normal;word-spacing:normal;text-transform:none;writing-mode:lr-tb;direction:ltr;text-orientation:mixed;dominant-baseline:auto;baseline-shift:baseline;text-anchor:start;white-space:normal;shape-padding:0;clip-rule:nonzero;display:inline;overflow:visible;visibility:visible;opacity:1;isolation:auto;mix-blend-mode:normal;color-interpolation:sRGB;color-interpolation-filters:linearRGB;solid-color:#000;solid-opacity:1;vector-effect:none;fill:#e9f3ff;fill-opacity:1;fill-rule:nonzero;stroke:none;stroke-width:2;stroke-linecap:round;stroke-linejoin:round;stroke-miterlimit:4;stroke-dasharray:none;stroke-dashoffset:0;stroke-opacity:1;color-rendering:auto;image-rendering:auto;shape-rendering:auto;text-rendering:auto;enable-background:accumulate" d="M7.97 2a1 1 0 0 0-.525.168l-3 2a1 1 0 0 0 0 1.664l3 2A1 1 0 0 0 9 7v-.824a3 3 0 0 1 1.771 1.676 3 3 0 0 1-.65 3.27 3 3 0 0 1-3.27.65A3 3 0 0 1 5 9c0-.554-.446-1-1-1s-1 .446-1 1a5 5 0 0 0 3.086 4.62 5 5 0 0 0 5.45-1.085 5 5 0 0 0 1.083-5.45A5 5 0 0 0 9 4.106V3a1 1 0 0 0-1.03-1z" id="path956"/>
</svg>
