<svg xmlns="http://www.w3.org/2000/svg" width="16" height="16"><rect style="fill:#0a384e" width="16" height="16" rx=".8" ry=".8"/><path style="fill:#004465" d="m5.11 0 2.453 6.552a2.4 2.4 0 0 0-.724.428L.114.393A.793.793 0 0 0 0 .8v2.456l6.252 4.48A2.4 2.4 0 0 0 6 8.8a2.4 2.4 0 0 0 .02.286L0 10.286v2.793l6.352-3.032a2.4 2.4 0 0 0 .343.44L.95 16h3.855L7.6 11.06a2.4 2.4 0 0 0 .799.14 2.4 2.4 0 0 0 .156-.005L9.078 16h2.66l-2.24-5.066a2.4 2.4 0 0 0 .42-.277L14.803 16h.398c.443 0 .8-.357.8-.8v-2.512l-5.39-2.955a2.4 2.4 0 0 0 .181-.761L16 8.545V5.81l-5.37 2.107a2.4 2.4 0 0 0-.375-.636L16 1.18V.8c0-.443-.357-.8-.8-.8h-3.791L9.16 6.526a2.4 2.4 0 0 0-.296-.08L9.585 0z"/><path style="fill:#26aaff" d="M8.997 0 8.99.16c-.007.181-.141 3.455-.249 6.045-.04.946-.067 1.724-.062 1.729.004.005.012.005.015.002.004-.004.447-1.281.985-2.84A1090.14 1090.14 0 0 1 11.412.09l.035-.09zM6.36 3.34S4.653 4.763 4.639 4.8c-.006.016.28.308.834.856l1.79 1.769c.521.514.953.935.96.935.006 0 .012-.006.012-.013 0-.007-.352-.956-.781-2.11-.43-1.153-.847-2.275-.927-2.493a6.667 6.667 0 0 0-.166-.405zm6.623 1.048c-.019-.006-3.862 4.072-3.87 4.106-.004.018.005.018.04.006.024-.009 1.156-.45 2.516-.982 1.359-.531 2.475-.973 2.478-.982.006-.02-1.143-2.14-1.164-2.148zM5.239 7.02c-.017-.006-.027.002-.033.028-.013.056-.275 2.146-.275 2.193 0 .032.009.043.032.043.016 0 .61-.12 1.318-.267a38.778 38.778 0 0 0 1.303-.282c.008-.008.011-.017.007-.02A285.927 285.927 0 0 0 5.24 7.02zm8.152 1.732c-.017-.015-3.882.332-3.899.35-.007.008-.006.017.004.02l1.73.952c.943.52 1.728.944 1.745.942.028-.002.047-.096.232-1.128.11-.619.195-1.13.188-1.136zm-5.503.561c-.02.008-1.28.608-2.8 1.333l-3.472 1.656c-.39.185-.708.346-.708.357 0 .011.275.417.612.902.798 1.148.782 1.124.796 1.124.006 0 1.268-1.204 2.804-2.676v-.001A478.314 478.314 0 0 0 7.92 9.315c.004-.01-.007-.011-.032-.002zm1.05.286c-.008-.003-.015.002-.015.01 0 .009.148.35.328.757l1.387 3.145c.583 1.322 1.062 2.424 1.073 2.446l.02.043h.032l.057-.031c.004-.006.425-.274.935-.595.51-.321.928-.589.928-.595 0-.014-4.726-5.173-4.746-5.18zm-.558.11c-.005-.005-.01-.002-.017.005-.031.036-1.882 3.343-1.882 3.363 0 .017.053.03.216.05l1.13.149c.504.066.926.116.937.112.014-.005.017-.026.011-.07-.008-.06-.283-2.685-.347-3.31-.02-.203-.032-.284-.048-.299z"/></svg>