<svg xmlns="http://www.w3.org/2000/svg" width="16" height="16" version="1">
    <g transform="translate(-1.143 -1.143) scale(.57143)">
        <rect fill="#8b9cbe" width="28" height="28" x="-30" y="-30" rx="1.4" ry="1.4" transform="matrix(0 -1 -1 0 0 0)"/>
        <path fill="#ff893c" d="m5.493 2.001-.123.287c-.174.407-.647 1.945-.917 2.98-.17.652-.396 1.264-.88 2.388-.64 1.49-1.178 2.843-1.178 2.964 0 .03-.19.746-.395 1.501V28.6c0 .362.14.687.364.935l.065-.202c.459-1.402.813-2.658.874-3.098.035-.256.175-.772.31-1.147s.268-.874.296-1.108c.027-.234.16-.808.295-1.275.135-.468.246-.91.246-.983s-.057-.212-.129-.308"/>
    </g>
</svg>
