<svg height="16" width="16" xmlns="http://www.w3.org/2000/svg"><path d="m9.385 0-2.43 3.31a6.809 6.53 0 0 0 -1.968 1.039c-2.42-.556-4.987 1.309-4.987 1.309l2.491 4.938a6.809 6.53 0 0 0 6.7 5.404 6.809 6.53 0 0 0 6.809-6.53 6.809 6.53 0 0 0 -2.73-5.22c-.413-2.727-3.884-4.25-3.884-4.25z" fill="#21a8e3"/><path d="m5.416 8.455a1.5 1.505 0 0 0 -.326 1.555 1.5 1.505 0 0 0 1.923.9 1.5 1.505 0 0 0 .897-1.93 1.5 1.505 0 0 0 -1.246-.98l-.004.101-.075 1.63-1.1-1.2zm5-2a1.5 1.505 0 0 0 -.326 1.555 1.5 1.505 0 0 0 1.923.9 1.5 1.505 0 0 0 .897-1.93 1.5 1.505 0 0 0 -1.246-.98l-.004.101-.075 1.63-1.1-1.2zm2.179 5.045a.374.416 76.671 0 0 -.041.003.374.416 76.671 0 0 -.279.14c-.17.178-.512.231-.877.201a3.044 3.044 0 0 1 -.631-.118.374.416 76.671 0 0 -.194-.039.374.416 76.671 0 0 -.434.42c-.02.09-.067.285-.185.531-.149.313-.367.567-.617.62a.374.416 76.671 0 0 .15.732c.665-.14 1.025-.664 1.224-1.081.064-.135.11-.26.149-.376.127.025.266.048.423.06.487.04 1.153 0 1.606-.474a.374.416 76.671 0 0 -.294-.619z" fill="#f4f4f7"/></svg>