<svg xmlns="http://www.w3.org/2000/svg" width="16" height="16"><rect style="fill:#2d48a6" width="15" height="15" x="1" y="1" rx="4.5" ry="4.5"/><path style="fill:#f4f4f7" d="M8.5 3.063 6.664 6H8v4H5.5c-.377 0-.392-.093-.447-.21-.055-.119-.055-.257-.055-.257A.5.5 0 0 0 5 9.5v-.588A1.5 1.5 0 0 0 6 7.5 1.5 1.5 0 0 0 4.5 6 1.5 1.5 0 0 0 3 7.5a1.5 1.5 0 0 0 1 1.412V9.5l.002-.033s-.034.362.144.744c.179.382.664.789 1.354.789H8v1.088A1.5 1.5 0 0 0 7 13.5 1.5 1.5 0 0 0 8.5 15a1.5 1.5 0 0 0 1.5-1.5 1.5 1.5 0 0 0-1-1.412V11h2.494c.671.009 1.148-.4 1.332-.773.184-.373.174-.73.174-.73V9c.554 0 1-.446 1-1V7c0-.554-.446-1-1-1h-1c-.554 0-1 .446-1 1v1c0 .554.446 1 1 1v.5a.5.5 0 0 0 0 .004s-.006.148-.07.28c-.065.13-.089.22-.424.216a.5.5 0 0 0-.006 0H9V6h1.336L8.5 3.062z"/></svg>