<svg height="16" width="16" xmlns="http://www.w3.org/2000/svg"><path d="m4.238 1.818-1.329.35s.759 1.383 1.047 2.619c.448 1.918.437 3.484.437 3.484l1.407-.671s-.84-.98-1.315-2.951c-.275-1.146-.247-2.831-.247-2.831zm6.119 3.348s-.55 1.435-1.204 2.035c-.637.586-2.075 1.212-2.075 1.212l1.106 1.02s.39-.985 1.19-1.659c.76-.64 2.337-1.216 2.337-1.216zm-3.823.403s.18.416.04.894c-.132.446-.674 1.037-.674 1.037l1.15.191s-.108-.587.03-1.027c.153-.484.58-.78.58-.78zm.481 7.222-1.411.14s.65.405.718.804c.052.313.082.702.082.702l.668-.165s-.198-.357-.31-.622c-.168-.399.253-.859.253-.859z" fill="#bc3219"/><g fill="#fa572c"><circle cx="5.5" cy="10.5" r="3.5"/><circle cx="12" cy="5" r="2"/><circle cx="3.5" cy="1.5" r="1.5"/><circle cx="7.5" cy="4.5" r="1.5"/><circle cx="7" cy="15" r="1"/><circle cx="11" cy="13" r="1"/><circle cx="10.5" cy="10.5" r=".5"/></g></svg>