<svg xmlns="http://www.w3.org/2000/svg" width="16" height="16" version="1">
    <rect style="fill:#ffb943" width="11" height="16" x="-14" y="-16" rx=".917" ry="1" transform="matrix(0 -1 -1 0 0 0)"/>
    <path style="fill:none;stroke:#17191e;stroke-width:1.60000002;stroke-linecap:round;stroke-linejoin:round" d="m3.806.805 2.4 4"/>
    <path style="fill:#8b9cbe" d="M4.256 4.864a.51.504 0 0 0 0 .873l1.488.848 1.49.848A.51.504 0 0 0 8 6.996V3.604a.51.504 0 0 0-.767-.436l-1.488.848z"/>
    <path style="fill:none;stroke:#17191e;stroke-width:1.60000002;stroke-linecap:round;stroke-linejoin:round" d="m9.106 9.805 2.4 4"/>
    <path style="fill:#8b9cbe" d="M9.256 13.369a.51.504 0 0 0 0 .873l1.488.848 1.49.847a.51.504 0 0 0 .766-.436V12.11a.51.504 0 0 0-.767-.436l-1.488.848z"/>
</svg>
