<svg xmlns="http://www.w3.org/2000/svg" width="16" height="16" version="1">
    <rect fill="#4f4f4f" width="16" height="16" rx="8" ry="8"/>
    <path fill="#6084ff" d="M9 4a4 4 0 0 0-4 4c0 .026 0 .052.002.078 0 .024-.006.048-.006.072 0 .064.002.127.006.19v.783l-.006.277-.912 1.442c-.21.4-.011.648.44.654l.478.006v1.125c0 .471.44.865.912.865L7 13.508v2.424c.328.04.66.068 1 .068a7.99 7.99 0 0 0 3.506-.812v-3.887c0-.065-.003-.121-.004-.182A4 4 0 0 0 9 4z"/>
    <path fill="#f4f4f7" d="M9.5 5A2.5 2.5 0 0 0 7 7.5 2.5 2.5 0 0 0 9.5 10 2.5 2.5 0 0 0 12 7.5 2.5 2.5 0 0 0 9.5 5zm0 1A1.5 1.5 0 0 1 11 7.5 1.5 1.5 0 0 1 9.5 9 1.5 1.5 0 0 1 8 7.5 1.5 1.5 0 0 1 9.5 6z"/>
    <circle fill="#f4f4f7" cx="9.5" cy="7.5"/>
</svg>
