<svg height="16" width="16" xmlns="http://www.w3.org/2000/svg">
    <rect fill="#4f4f4f" height="16" rx=".857" width="16"/>
    <path d="M2.357 2h4.286C6.84 2 7 2.16 7 2.357v4.286C7 6.84 6.84 7 6.643 7H2.357A.356.356 0 0 1 2 6.643V2.357C2 2.16 2.16 2 2.357 2z" fill="#e54333"/>
    <path d="M9.357 2h4.286c.197 0 .357.16.357.357v4.286c0 .197-.16.357-.357.357H9.357A.356.356 0 0 1 9 6.643V2.357C9 2.16 9.16 2 9.357 2z" fill="#0a9554"/>
    <path d="M2.357 9h4.286C6.84 9 7 9.16 7 9.357v4.286c0 .197-.16.357-.357.357H2.357A.357.357 0 0 1 2 13.643V9.357C2 9.16 2.16 9 2.357 9z" fill="#38739d"/>
    <path d="M9.357 9h4.286c.197 0 .357.16.357.357v4.286c0 .197-.16.357-.357.357H9.357A.357.357 0 0 1 9 13.643V9.357C9 9.16 9.16 9 9.357 9z" fill="#ff8f1e"/>
</svg>
