<svg xmlns="http://www.w3.org/2000/svg" width="16" height="16" version="1"><rect fill="#8b9cbe" width="16" height="16" rx=".857" ry=".857"/><path fill="#48aeff" d="M2.357 2h4.286c.198 0 .357.16.357.357v4.286C7 6.841 6.84 7 6.643 7H2.357A.356.356 0 0 1 2 6.643V2.357C2 2.16 2.16 2 2.357 2zM9.357 2h4.286c.197 0 .357.16.357.357v4.286c0 .198-.16.357-.357.357H9.357A.356.356 0 0 1 9 6.643V2.357C9 2.16 9.16 2 9.357 2zM2.357 9h4.286c.198 0 .357.16.357.357v4.286c0 .197-.16.357-.357.357H2.357A.357.357 0 0 1 2 13.643V9.357C2 9.16 2.16 9 2.357 9zM9.357 9h4.286c.197 0 .357.16.357.357v4.286c0 .197-.16.357-.357.357H9.357A.357.357 0 0 1 9 13.643V9.357C9 9.16 9.16 9 9.357 9z"/></svg>