<svg height="16" width="16" xmlns="http://www.w3.org/2000/svg">
    <path d="M16 15.2V.8c0-.443-.357-.8-.8-.8H3.864L2.271 1.611c-.311.315-.943.184-1.185.555L0 3.835V15.2c0 .443.357.8.8.8h14.4c.443 0 .8-.357.8-.8z" fill="#ccc"/>
    <path d="M2.376 2.137c-.245.369-1.332-.154-1.535.24L0 4h16V.8c0-.443-.357-.8-.8-.8H3.794z" fill="#f4f4f7"/>
    <path d="M2.271 1.296c-.355.266-1.028.42-1.255.8L0 3.8v11.4c0 .443.357.8.8.8H4V0zM14 4v12h1.2c.443 0 .8-.357.8-.8V4z" fill="#f4f4f7"/>
    <path d="M.8 0C.357 0 0 .357 0 .8V4h4V0z" fill="#d32626"/>
    <path d="M4 13h7v3H4z" fill="#ffd000"/>
    <path d="M11 13h3v3h-3z" fill="#0fa925"/>
    <path d="M14 4h2v2h-2z" fill="#1268c9"/>
</svg>
