<svg width="16" height="16" xmlns="http://www.w3.org/2000/svg">
    <path d="M2.8 2h4.4l1.6 2.5 2-2.5H16l-5.2 6 3.2 6H9.2l-1.6-2.4-2 2.4H0l5.6-6.4z" style="fill:#a64599"/>
    <circle cx="11.5" cy="11.5" r="4.5" style="fill:#465096"/>
    <path d="M11.5 9s-.354-.007-.724.178c-.369.184-.776.655-.776 1.322h1c0-.5.5-.5.5-.5s.5 0 .5.5a.82.82 0 0 1-.203.578c-.133.167-.347.334-.597.522s-.536.395-.778.697A1.924 1.924 0 0 0 10 13.5v.5h3v-1h-1.824c.015-.022.01-.056.027-.078.133-.167.347-.334.597-.522s.536-.395.778-.697c.242-.302.422-.717.422-1.203 0-.667-.407-1.138-.776-1.322C11.854 8.993 11.5 9 11.5 9z" style="fill-rule:evenodd;fill:#f4f4f7"/>
</svg>
