<svg height="64" viewBox="0 0 16.933 16.933" width="64" xmlns="http://www.w3.org/2000/svg">
    <filter id="a" color-interpolation-filters="sRGB" height="1.054" width="1.054" x="-.027" y="-.027">
        <feGaussianBlur stdDeviation=".619"/>
    </filter>
    <linearGradient id="b" gradientUnits="userSpaceOnUse" x1="18.183" x2="32.735" y1="26.511" y2="11.959">
        <stop offset="0" stop-color="#8cd750"/>
        <stop offset=".496" stop-color="#7dcd32" stop-opacity=".996"/>
        <stop offset="1" stop-color="#87d241" stop-opacity=".996"/>
    </linearGradient>
    <linearGradient id="c" gradientUnits="userSpaceOnUse" x1="25.51" x2="25.51" y1="23.431" y2="11.861">
        <stop offset="0" stop-color="#d1ecba"/>
        <stop offset="1" stop-color="#d1ecba" stop-opacity="0"/>
    </linearGradient>
    <filter id="d" color-interpolation-filters="sRGB" height="1.258" width="1.596" x="-.298" y="-.129">
        <feGaussianBlur stdDeviation=".442"/>
    </filter>
    <g transform="translate(-16.993 -10.771)">
        <rect fill="#141414" filter="url(#a)" height="55" opacity=".3" ry="15" transform="translate(16.993 10.771) scale(.26458)" width="55" x="4.5" y="4.5"/>
        <rect fill="url(#b)" height="14.552" ry="3.969" width="14.552" x="18.184" y="11.962"/>
        <path d="M22.152 11.962a3.96 3.96 0 0 0-3.969 3.969v.74l7.327 6.76 7.225-6.758v-.742a3.96 3.96 0 0 0-3.969-3.969z" fill="url(#c)"/>
        <rect fill="#fafafa" height="4.681" ry=".421" transform="scale(-1 1) rotate(45)" width=".842" x="-2.114" y="30.022"/>
        <path d="M25.067 15.245a.42.42 0 0 0-.42.421v7.378c0 .022.002.043.006.064l.001.016a.42.42 0 0 0 .021.07l.003.009a.42.42 0 0 0 .23.231l.012.004a.414.414 0 0 0 .228.02c.02-.005.039-.011.058-.018l.021-.006a.415.415 0 0 0 .065-.035l.008-.004a.424.424 0 0 0 .065-.053l2.715-2.715a.42.42 0 1 0-.595-.596l-1.997 1.997v-6.362a.42.42 0 0 0-.42-.421z" fill="#80d03a" filter="url(#d)"/>
        <path d="M25.439 15.245a.42.42 0 0 0-.42.421v7.378c0 .022.002.043.006.064l.001.016a.42.42 0 0 0 .021.07l.003.009a.42.42 0 0 0 .23.231l.012.004a.414.414 0 0 0 .228.02c.02-.005.039-.011.058-.018l.021-.006a.415.415 0 0 0 .065-.035l.008-.004a.424.424 0 0 0 .065-.053l2.715-2.715a.42.42 0 1 0-.595-.596l-1.997 1.997v-6.362a.42.42 0 0 0-.42-.421z" fill="#fafafa"/>
    </g>
</svg>
