<svg height="16" width="16" xmlns="http://www.w3.org/2000/svg">
    <path d="M6.195 7.399a.18.175 0 0 0-.1.035L3.07 9.684a.18.175 0 0 0-.07.14v2.995a.18.175 0 0 0 .29.14l3.025-2.245a.18.175 0 0 0 .07-.14v-3a.18.175 0 0 0-.185-.175zm4.6 0a.18.175 0 0 0-.18.18v2.995a.18.175 0 0 0 .07.14l3.025 2.25a.18.175 0 0 0 .29-.145V9.824a.18.175 0 0 0-.075-.14L10.9 7.434a.18.175 0 0 0-.1-.035z" fill="#e6461d"/>
    <path d="M6.511 12c-.148 2.604 1.236 2.844 1.989 4 .753-1.156 2.138-1.396 1.99-4H6.65z" fill="#ff7c19"/>
    <path d="M6.36 2.999a17.4 17.4 0 0 0-.855 4.4 5.95 5.95 0 0 0 1 3.6h3.99c.79-1.18 1.045-2.375 1-3.6a16.49 16.49 0 0 0-.855-4.4z" fill="#f4f4f7"/>
    <path d="M6.995 5.499a1.5 1.5 0 0 0 1.5 1.5 1.5 1.5 0 0 0 1.5-1.5 1.5 1.5 0 0 0-1.495-1.5 1.5 1.5 0 0 0-1.5 1.5" fill="#007ede"/>
    <path d="M7.008 12c-.112 1.657.927 1.81 1.492 2.546.564-.736 1.603-.889 1.491-2.546H7.113z" fill="#ffe113"/>
    <path d="M8.495 7.999a.5.385 0 0 0-.5.39v4.225a.5.385 0 1 0 1 0V8.389a.5.385 0 0 0-.5-.39zm0-8 2.145 3H6.36z" fill="#e6461d"/>
</svg>
