<svg height="64" viewBox="0 0 16.933 16.933" width="64" xmlns="http://www.w3.org/2000/svg">
    <filter id="a" color-interpolation-filters="sRGB" height="1.054" width="1.054" x="-.027" y="-.027">
        <feGaussianBlur stdDeviation=".619"/>
    </filter>
    <linearGradient id="b" gradientUnits="userSpaceOnUse" x1="15.614" x2="30.166" y1="26.682" y2="12.13">
        <stop offset="0" stop-color="#dee0e2"/>
        <stop offset="1" stop-color="#f1f3f5" stop-opacity=".996"/>
    </linearGradient>
    <linearGradient id="c" gradientTransform="matrix(.26458 0 0 -.26458 19.03 18.723)" gradientUnits="userSpaceOnUse" x1="11.144" x2="11.144" y1="15.929" y2="19.758">
        <stop offset="0" stop-color="#ff5032"/>
        <stop offset="1" stop-color="#e63214"/>
    </linearGradient>
    <linearGradient id="d" gradientUnits="userSpaceOnUse" x1="18.919" x2="18.919" y1="13.496" y2="14.509">
        <stop offset="0" stop-color="#ff8214"/>
        <stop offset="1" stop-color="#ffbe14"/>
    </linearGradient>
    <linearGradient id="e" gradientTransform="matrix(.26458 0 0 -.26458 17.5 18.723)" gradientUnits="userSpaceOnUse" x1="11.144" x2="11.144" y1="15.929" y2="19.758">
        <stop offset="0" stop-color="#3cd23c"/>
        <stop offset="1" stop-color="#1eaa1e"/>
    </linearGradient>
    <linearGradient id="f" gradientUnits="userSpaceOnUse" x1="16.448" x2="29.473" y1="25.913" y2="15.523">
        <stop offset="0" stop-color="#ff7d50"/>
        <stop offset=".482" stop-color="#ff4b5a"/>
        <stop offset="1" stop-color="#ff509b"/>
    </linearGradient>
    <path d="M19.5 4.5h25c8.31 0 15 6.69 15 15v25c0 8.31-6.69 15-15 15h-25c-8.31 0-15-6.69-15-15v-25c0-8.31 6.69-15 15-15z" fill="#141414" filter="url(#a)" opacity=".3" transform="scale(.26458)"/>
    <path d="M19.584 12.133h6.614a3.96 3.96 0 0 1 3.97 3.969v6.614a3.96 3.96 0 0 1-3.97 3.969h-6.614a3.96 3.96 0 0 1-3.969-3.969v-6.614a3.96 3.96 0 0 1 3.969-3.969z" fill="url(#b)" transform="translate(-14.424 -10.942)"/>
    <path d="M22.499 14.002a.53.53 0 1 0-1.058 0 .53.53 0 0 0 1.058 0z" fill="url(#c)" transform="translate(-14.424 -10.942)"/>
    <path d="M19.44 14.002a.53.53 0 1 1-1.058 0 .53.53 0 0 1 1.058 0z" fill="url(#d)" transform="translate(-14.424 -10.942)"/>
    <path d="M20.969 14.002a.53.53 0 1 0-1.058 0 .53.53 0 0 0 1.058 0z" fill="url(#e)" transform="translate(-14.424 -10.942)"/>
    <path d="M19.597 15.414a3.313 3.313 0 0 0-3.32 3.32v3.942a3.314 3.314 0 0 0 3.32 3.321h6.588c1.84 0 3.32-1.481 3.32-3.321v-3.941c0-1.84-1.48-3.321-3.32-3.321z" fill="url(#f)" transform="translate(-14.424 -10.942)"/>
    <path d="M4.532 7.534c-.02-.004-.023.002-.015.015-.066.002.063.092.108.124.027.036 1.04.533 1.456.79.441.266 1.038.807 1.085.899-.459.786-.256 1.475-.31 1.548-.039.062-.396.455-.28.511.116.058.298-.029.326-.046.06-.037.117-.085.094.015-.047.206-.274.694.031.589.038-.02.53-.556.59-.573.98.25 2.073.141 2.277.046.104.008.402.192.573.28.17.086.633.303.495-.094-.04-.126-.345-.445-.295-.464.11-.041.379.11.481.139.31.085.35-.033.155-.294-.196-.262-.219-.222-.279-.342-.046-.097-.003-.207.031-.232.064-.049.993-.55 1.208-.744.326-.288.002-.646-.073-.697-.672-.472-1.355-.373-1.363-.449-.006-.087-.006-.333-.016-.418-.065-.579-.335-.434-.371-.434-.273.042-.178.453-.062.838.008.098-.094.055-.156-.048-.207-.551-.298-.542-.356-.557-.054-.014-.252.102-.248.325.002.064.076.372.076.466-.128.11-.127.357-.262.448-.393.081-1.34-.19-1.457-.2-.41-.076-.586.226-.652.154-.529-.596-1.337-1.038-1.687-1.115a4.274 4.274 0 0 1-.757-.325 1.395 1.395 0 0 0-.343-.155zm7.527.635c-.126.133-.105.64-.077.634.129-.025.116-.675.077-.634zm.372.076c-.014-.04-.354.42-.294.59.027.073.34-.462.294-.59zm-1.737.79.002.001v.001c.04.127.083.246.34.277.03.004-.143.107-.262.047-.121-.075-.114-.358-.079-.324v-.002zm.715.635c.064.016-.455.285-.496.248-.027-.027.366-.277.496-.248zm.077.17c.053.005-.302.363-.343.326-.027-.027.23-.335.343-.325z" fill="#f4f4f7"/>
</svg>
