<svg height="16" width="16" xmlns="http://www.w3.org/2000/svg">
    <g transform="matrix(0 -1 -1 0 0 0)">
        <rect fill="#8e8e8e" height="10" rx=".75" ry=".833" width="12" x="-15" y="-13"/>
        <rect fill="#4f4f4f" height="16" rx=".75" ry=".8" width="12" x="-13" y="-16"/>
        <path d="M-11-14h8v12h-8z" fill="#333"/>
    </g>
    <path d="M8 4C6.523 4 6 4 6 5.322V6h-.334C5.297 6 5 6.484 5 6.8v2.63c0 .316.298.57.668.57h4.666c.369 0 .666-.254.666-.57V6.8c0-.316-.262-.8-.666-.8H10v-.678C10 4 9.477 4 8 4zm0 1c.739 0 1 .038 1 .49V6H7v-.51C7 5.038 7.261 5 8 5z" fill="#bcbcbc"/>
</svg>
