<svg height="16" width="16" xmlns="http://www.w3.org/2000/svg"><rect fill="#7843b1" height="16" rx="4.8" width="16"/><path d="m11.198 5.8c.446.54.717 1.232.717 1.987 0 1.728-1.4 3.128-3.128 3.128-.755 0-1.446-.27-1.987-.717a3.64 3.64 0 0 0 3.551 2.802 3.649 3.649 0 0 0 3.649-3.649 3.64 3.64 0 0 0 -2.802-3.551zm-7.698 1.7-.497-1.503-1.503-.497 1.503-.497.497-1.503.497 1.503 1.503.497-1.503.497zm4-1.76-.298-.902-.902-.298.902-.298.298-.902.298.902.902.298-.902.298zm3-.54-.149-.451-.451-.149.451-.149.149-.451.149.451.451.149-.451.149z" fill="#f4f4f7"/></svg>