<svg width="16" height="16" xmlns="http://www.w3.org/2000/svg"><rect width="16" height="16" rx="3" ry="3" style="fill:#32b9f6"/><path d="M10 2 9 4l1 1V4l2 1s-1 1-1 5l-1 1c-4 0-5 1-5 1l-1-2h1L4 9l-2 1 2 4s2-1 7-1l2-2c0-5 1-7 1-7z" style="fill:#f4f4f7"/><path d="M5.5 2A3.5 3.5 0 0 0 2 5.5 3.5 3.5 0 0 0 5.5 9a3.5 3.5 0 0 0 1.922-.578L9 10l1-1-1.578-1.578A3.5 3.5 0 0 0 9 5.5 3.5 3.5 0 0 0 5.5 2zm0 1A2.5 2.5 0 0 1 8 5.5 2.5 2.5 0 0 1 5.5 8 2.5 2.5 0 0 1 3 5.5 2.5 2.5 0 0 1 5.5 3z" style="fill:#f4f4f7"/></svg>