<svg height="16" width="16" xmlns="http://www.w3.org/2000/svg"><rect fill="#c929de" height="16" rx="4.8" width="16"/><path d="m4.58 2c-.32 0-.58.237-.58.53v7.966c0 .293.26.5.58.504h1.42v2h-1.42c-.32 0-.58.191-.58.484v.087c0 .293.26.429.58.429h6.84c.32 0 .58-.136.58-.429v-.087c0-.293-.26-.477-.58-.484h-1.42v-2h1.42c.32 0 .58-.211.58-.504v-7.966c0-.292-.26-.529-.58-.529zm3.42 2a2 2 0 1 1 0 4 2 2 0 0 1 0-4zm0 .666a1.334 1.334 0 1 0 0 2.669 1.334 1.334 0 0 0 0-2.669zm0 .668a.666.666 0 1 1 .001 1.331.666.666 0 0 1 -.001-1.331zm2.5 3.666a.5.5 0 1 1 0 1 .5.5 0 0 1 0-1z" fill="#f4f4f7"/></svg>