<svg height="64" width="64" xmlns="http://www.w3.org/2000/svg">
    <filter id="a" color-interpolation-filters="sRGB" height="1.054" width="1.054" x="-.027" y="-.027">
        <feGaussianBlur stdDeviation=".619"/>
    </filter>
    <linearGradient id="b" gradientUnits="userSpaceOnUse" x1="4.5" x2="59.5" y1="59.49" y2="4.49">
        <stop offset="0" stop-color="#02db96"/>
        <stop offset="1" stop-color="#13d39b"/>
    </linearGradient>
    <rect fill="#141414" filter="url(#a)" height="55" opacity=".3" ry="15" width="55" x="4.5" y="4.5"/>
    <rect fill="url(#b)" height="55" ry="15" width="55" x="4.5" y="4.5"/>
    <path d="M32 48.156c3.025 0 6.59-.38 8.199-2.122 1.197-1.297 1.513-3.68 1.484-5.278-.648-.907-3.62-3.355-9.683-3.355s-9.035 2.448-9.683 3.355c-.028 1.598.287 3.98 1.484 5.278 1.61 1.741 5.174 2.122 8.199 2.122zm-4.647-6.407c0 1.551.146 2.942.924 2.942.777 0 .924-1.353.924-2.905s-.033-2.904-.877-2.904c-.843 0-.971 1.315-.971 2.866zm9.294 0c0 1.551-.147 2.942-.924 2.942s-.924-1.353-.924-2.905.033-2.904.877-2.904c.843 0 .971 1.315.971 2.866zm-20.875-8.956c0 1.083.116 2.023.321 2.847 2.586-2.044 4.056-7.84 2.597-12.128-1.974 3.199-2.918 6.805-2.918 9.281zM21.43 42.94c-3.008-1.11-6.987-3.674-6.987-10.145 0-6.47 5.35-18.296 17.558-18.296 12.209 0 17.559 11.826 17.559 18.296s-3.98 9.035-6.987 10.145C42.168 47.694 38.499 49.5 32 49.5s-10.167-1.806-10.571-6.56zM45.31 23.512c-1.46 4.288.011 10.084 2.597 12.128.205-.823.32-1.763.32-2.846 0-2.476-.943-6.082-2.917-9.281zM32 17.092c-4.571 0-8.277 3.592-8.277 8.023S27.43 33.14 32 33.14s8.277-3.592 8.277-8.024c0-4.431-3.706-8.023-8.277-8.023z" fill="#f4f4f7"/>
</svg>
