<svg height="16" width="16" xmlns="http://www.w3.org/2000/svg"><rect fill="#f67400" height="16" rx="2" width="16"/><path d="m2 0c-1.108 0-2 .892-2 2v12c0 1.108.892 2 2 2h12c1.108 0 2-.892 2-2v-12c0-1.108-.892-2-2-2zm0 1h12c.554 0 1 .446 1 1v12c0 .554-.446 1-1 1h-12c-.554 0-1-.446-1-1v-12c0-.554.446-1 1-1z" fill="#232629" fill-opacity=".6"/><path d="m12.586 2-1.848 1.848a4 4 0 0 0 -4.816.574 4 4 0 0 0 -.043.043l5.656 5.656a4 4 0 0 0 .617-4.86l1.848-1.846v-.415c0-.554-.446-1-1-1zm-8.121 3.879a4 4 0 0 0 -.043.043 4 4 0 0 0 -.574 4.816l-1.848 1.848v.414c0 .554.446 1 1 1h.414l1.848-1.848a4 4 0 0 0 4.86-.617l-5.658-5.655z" fill="#fff"/></svg>