<svg xmlns="http://www.w3.org/2000/svg" width="16" height="16">
    <path style="fill:#455a64" d="M3.5 9h9v7h-9z"/>
    <circle style="fill:#455a64" cx="3.5" cy="12.5" r="3.5"/>
    <path style="fill:#f4f4f7" d="M5 10a1 1 0 0 0-1 1 1 1 0 0 0 .023.209l-1.27.635A1 1 0 0 0 2 11.5a1 1 0 0 0-1 1 1 1 0 0 0 1 1 1 1 0 0 0 .754-.344l1.267.633A1 1 0 0 0 4 14a1 1 0 0 0 1 1 1 1 0 0 0 1-1 1 1 0 0 0-1-1 1 1 0 0 0-.756.344l-1.267-.633A1 1 0 0 0 3 12.5a1 1 0 0 0-.023-.21l1.27-.636A1 1 0 0 0 5 12a1 1 0 0 0 1-1 1 1 0 0 0-1-1z"/>
    <circle style="fill:#ea8500" cx="12.5" cy="12.5" r="3.5"/>
    <path style="fill:#f4f4f7" d="M12 10h1v3h-1zm0 4h1v1h-1z"/>
</svg>
