<svg xmlns="http://www.w3.org/2000/svg" style="fill-rule:evenodd;clip-rule:evenodd;stroke-linejoin:round;stroke-miterlimit:2" viewBox="0 0 16 16" xml:space="preserve">
    <defs>
        <style id="current-color-scheme" type="text/css">
            .ColorScheme-Highlight{color:#4285f4}.ColorScheme-NeutralText{color:#ff9800}.ColorScheme-PositiveText{color:#4caf50}.ColorScheme-NegativeText{color:#f44336}
        </style>
    </defs>
    <path style="fill:currentColor;color:#dfdfdf" d="M15.26 12.918a2.343 2.343 0 0 1-2.342 2.342H3.082A2.343 2.343 0 0 1 .74 12.918V3.082A2.343 2.343 0 0 1 3.082.74h9.836a2.343 2.343 0 0 1 2.342 2.342v9.836Zm-.895-.08c0 .843-.684 1.527-1.527 1.527H3.162a1.527 1.527 0 0 1-1.527-1.527V3.162c0-.843.684-1.527 1.527-1.527h9.676c.843 0 1.527.684 1.527 1.527v9.676Zm-3.101-3.919H4.736v1.643h6.528V8.919Zm2.495-6.295H2.58V5.08h11.179V2.624Z"/>
</svg>
