<svg xmlns="http://www.w3.org/2000/svg" style="fill-rule:evenodd;clip-rule:evenodd;stroke-linejoin:round;stroke-miterlimit:2" viewBox="0 0 16 16" xml:space="preserve">
    <defs>
        <style id="current-color-scheme" type="text/css">
            .ColorScheme-Text{color:#dfdfdf}
        </style>
    </defs>
    <circle style="fill:currentColor;fill-opacity:.3" class="ColorScheme-Text" cx="7.455" cy="8.532" r="4.718"/>
    <path style="fill:currentColor" class="ColorScheme-Text" d="M15 1c-.989.204-1.907.782-2.449 1.617A1.207 1.207 0 0 0 12 2.5c-.156 0-.304.03-.445.074a7.84 7.84 0 0 0-.756.332A6.501 6.501 0 0 0 7.5 2C3.934 2 1 4.934 1 8.5S3.934 15 7.5 15 14 12.066 14 8.5a6.508 6.508 0 0 0-.793-3.1c.088-.288.164-.599.219-.955.044-.141.074-.289.074-.445 0-.336-.01-.471-.195-.721.401-.654.937-1.082 1.695-1.279V1ZM7.455 3.814a4.72 4.72 0 0 1 4.718 4.718 4.72 4.72 0 0 1-4.718 4.718 4.72 4.72 0 0 1-4.718-4.718 4.72 4.72 0 0 1 4.718-4.718Z"/>
</svg>
