<svg xmlns="http://www.w3.org/2000/svg" style="fill-rule:evenodd;clip-rule:evenodd;stroke-linejoin:round;stroke-miterlimit:2" viewBox="0 0 16 16" xml:space="preserve">
    <defs>
        <style id="current-color-scheme" type="text/css">
            .ColorScheme-Highlight{color:#4285f4}.ColorScheme-NeutralText{color:#ff9800}.ColorScheme-PositiveText{color:#4caf50}.ColorScheme-NegativeText{color:#f44336}
        </style>
    </defs>
    <path style="fill:currentColor;color:#dfdfdf" d="M11.95 3.265h-.922v1.64h-.041c-.8-1.189-2.194-1.845-3.649-1.845-2.849 0-4.633 2.111-4.633 4.879 0 2.767 1.804 5.001 4.674 5.001 1.394 0 2.911-.697 3.608-1.906h.041v1.701h.922v-9.47Zm-4.653.656c-2.173 0-3.669 1.968-3.669 4.018 0 2.172 1.435 4.14 3.73 4.14 2.419 0 3.731-1.968 3.731-4.243 0-2.193-1.496-3.915-3.792-3.915Zm6.798 2.131a1.237 1.237 0 1 1 0 2.474 1.237 1.237 0 0 1 0-2.474Zm0-3.026a1.237 1.237 0 1 1 0 2.474 1.237 1.237 0 0 1 0-2.474Zm0-3.026a1.237 1.237 0 1 1 0 2.474 1.237 1.237 0 0 1 0-2.474Z"/>
</svg>
