<svg xmlns="http://www.w3.org/2000/svg" width="16" height="16">
    <defs>
        <style id="current-color-scheme" type="text/css">
            .ColorScheme-Highlight{color:#5294e2}
        </style>
    </defs>
    <path style="fill:currentColor;color:#dfdfdf" d="M12.222 1.632c.695 0 1.361.276 1.853.767.49.492.766 1.158.766 1.852v7.691c0 .694-.276 1.36-.766 1.852a2.629 2.629 0 0 1-1.853.767H3.777a2.622 2.622 0 0 1-2.619-2.619V4.251a2.622 2.622 0 0 1 2.619-2.619Zm1.818 10.317-.02-7.655a1.868 1.868 0 0 0-1.86-1.862l-8.339-.025A1.864 1.864 0 0 0 1.95 4.268l-.014 6.251 3.049-5.181 3.739 6.636 2.882-3.208z"/>
</svg>
