<svg xmlns="http://www.w3.org/2000/svg" width="16" height="16">
    <defs>
        <style id="current-color-scheme" type="text/css">
            .ColorScheme-Highlight{color:#4285f4}.ColorScheme-NeutralText{color:#ff9800}.ColorScheme-PositiveText{color:#4caf50}.ColorScheme-NegativeText{color:#f44336}
        </style>
    </defs>
    <path style="fill:currentColor;color:#dfdfdf" d="M13.5 2A1.5 1.5 0 0 0 12 3.5 1.5 1.5 0 0 0 13.5 5 1.5 1.5 0 0 0 15 3.5 1.5 1.5 0 0 0 13.5 2zm-7 1A1.5 1.5 0 0 0 5 4.5 1.5 1.5 0 0 0 6.5 6 1.5 1.5 0 0 0 8 4.5 1.5 1.5 0 0 0 6.5 3zm-5 4A1.5 1.5 0 0 0 0 8.5 1.5 1.5 0 0 0 1.5 10a1.5 1.5 0 0 0 1.412-1H16V8H2.912A1.5 1.5 0 0 0 1.5 7zm13 3a1.5 1.5 0 0 0-1.5 1.5 1.5 1.5 0 0 0 1.5 1.5 1.5 1.5 0 0 0 1.5-1.5 1.5 1.5 0 0 0-1.5-1.5zm-6 1A1.5 1.5 0 0 0 7 12.5 1.5 1.5 0 0 0 8.5 14a1.5 1.5 0 0 0 1.5-1.5A1.5 1.5 0 0 0 8.5 11z"/>
</svg>
