<svg xmlns="http://www.w3.org/2000/svg" style="fill-rule:evenodd;clip-rule:evenodd;stroke-linejoin:round;stroke-miterlimit:2" viewBox="0 0 16 16" xml:space="preserve">
    <defs>
        <style id="current-color-scheme" type="text/css">
            .ColorScheme-Highlight{color:#4285f4}.ColorScheme-NeutralText{color:#ff9800}.ColorScheme-PositiveText{color:#4caf50}.ColorScheme-NegativeText{color:#f44336}
        </style>
    </defs>
    <path style="fill:currentColor;color:#dfdfdf" d="M0 10.815c4 0 3 3 8 3s4-3 8-3V9.656c-5 0-3 3-8 3s-3-3-8-3v1.159Zm3.93-5.901c-.729.726-1.508 1.43-3.93 1.43V5.185c4 0 3-3 8-3s4 3 8 3v1.159c-2.422 0-3.201-.704-3.93-1.43l-.14-.14c-.729-.726-1.508-1.43-3.93-1.43s-3.201.704-3.93 1.43l-.14.14Z"/>
</svg>
