<svg xmlns="http://www.w3.org/2000/svg" width="16" height="16">
    <defs>
        <style id="current-color-scheme" type="text/css">
            .ColorScheme-Highlight{color:#4285f4}.ColorScheme-NeutralText{color:#ff9800}.ColorScheme-PositiveText{color:#4caf50}.ColorScheme-NegativeText{color:#f44336}
        </style>
    </defs>
    <path style="fill:currentColor;color:#dfdfdf" d="M3 2.03v1h1v-1H3zm0 2v1h1v-1H3zm0 2v1h1v-1H3zm0 2v1h1v-1H3zm0 2v1h1v-1H3zm-2 2v1h1v-1H1zm2 0v1h1v-1H3zm2 0v1h1v-1H5zm2 0v1h1v-1H7zm2 0v1h1v-1H9zm2 0v1h1v-1h-1zm2 0v1h1v-1h-1zm-10 2v1h1v-1H3z"/>
</svg>
