<svg xmlns="http://www.w3.org/2000/svg" style="fill-rule:evenodd;clip-rule:evenodd;stroke-linejoin:round;stroke-miterlimit:2" viewBox="0 0 16 16" xml:space="preserve">
    <defs>
        <style id="current-color-scheme" type="text/css">
            .ColorScheme-Text{color:#dfdfdf}
        </style>
    </defs>
    <path style="fill:currentColor;fill-opacity:.3" class="ColorScheme-Text" d="M8 0C3.611 0 0 3.611 0 8c0 4.389 3.611 8 8 8 4.389 0 8-3.611 8-8 0-4.389-3.611-8-8-8Z"/>
    <path style="fill:currentColor" class="ColorScheme-Text" d="M8 0C3.611 0 0 3.611 0 8c0 4.389 3.611 8 8 8 4.389 0 8-3.611 8-8 0-4.389-3.611-8-8-8Zm0 1c3.84 0 7 3.16 7 7s-3.16 7-7 7-7-3.16-7-7 3.16-7 7-7Z"/>
    <path style="fill:currentColor" class="ColorScheme-Text" d="M9.453 2.569c-.561 5.037 3.058 4.088 2.266 8.052-.309 1.545-1.761 2.623-3.933 2.623h-.02c1.075-.006 1.696-.569 1.95-1.31.448-1.307-2.687-1.677-1.716-4.718-1.938.86-2.413 2.285-2.217 4.062.103.934.658 1.721 1.538 1.916-1.949-.233-3.223-1.885-3.467-3.883-.337-2.751 1.919-5.636 5.599-6.742Z"/>
</svg>
