<svg xmlns="http://www.w3.org/2000/svg" style="fill-rule:evenodd;clip-rule:evenodd;stroke-linejoin:round;stroke-miterlimit:2" viewBox="0 0 16 16" xml:space="preserve">
    <defs>
        <style id="current-color-scheme" type="text/css">
            .ColorScheme-Highlight{color:#4285f4}.ColorScheme-NeutralText{color:#ff9800}.ColorScheme-PositiveText{color:#4caf50}.ColorScheme-NegativeText{color:#f44336}
        </style>
    </defs>
    <path style="fill:currentColor;color:#dfdfdf" d="M4.5 2c-.274 0-.5.226-.5.5s.226.5.5.5.5-.226.5-.5-.226-.5-.5-.5Zm3 0c-.274 0-.5.226-.5.5s.226.5.5.5.5-.226.5-.5-.226-.5-.5-.5Zm3 0c-.274 0-.5.226-.5.5s.226.5.5.5.5-.226.5-.5-.226-.5-.5-.5ZM4 4v2h-.405C2.714 6 2 6.714 2 7.595v4.81C2 13.286 2.714 14 3.595 14h8.81c.881 0 1.595-.714 1.595-1.595v-4.81A1.596 1.596 0 0 0 12.405 6H11V4h-1v2H8V4H7v2H5V4H4ZM3 7.607A.606.606 0 0 1 3.607 7h8.786a.606.606 0 0 1 .607.607V10c-1.097 0-2-.451-2-1V8h-1v1c0 .549-.903 1-2 1s-2-.451-2-1V8H5v1c0 .549-.903 1-2 1V7.607Zm2.5 2.497c.555.558 1.495.896 2.5.896s1.945-.338 2.5-.896c.555.558 1.495.896 2.5.896v1.393a.607.607 0 0 1-.607.607H3.607A.607.607 0 0 1 3 12.393V11c1.005 0 1.945-.338 2.5-.896Z"/>
</svg>
