<svg height="24" width="24" xmlns="http://www.w3.org/2000/svg">
    <path d="M18 11h2v1h-2zM4 11h2v1H4z" fill="#4f4f4f"/>
    <rect height="20" opacity=".2" rx="1.5" transform="matrix(0 -1 -1 0 0 0)" width="7" x="-11.5" y="-22"/>
    <rect fill="#8e8e8e" height="20" rx="1.5" transform="matrix(0 -1 -1 0 0 0)" width="7" x="-11" y="-22"/>
    <circle cx="18" cy="8" opacity=".2" r="1"/>
    <circle cx="18" cy="7.5" fill="#76ff03" r="1"/>
    <path d="M3.5 4C2.669 4 2 4.669 2 5.5V6c0-.831.669-1.5 1.5-1.5h17c.831 0 1.5.669 1.5 1.5v-.5c0-.831-.669-1.5-1.5-1.5z" fill="#f4f4f7" opacity=".1"/>
    <path d="M18 19h2v1h-2zM4 19h2v1H4z" fill="#4f4f4f"/>
    <rect height="20" opacity=".2" rx="1.5" transform="matrix(0 -1 -1 0 0 0)" width="7" x="-19.5" y="-22"/>
    <rect fill="#8e8e8e" height="20" rx="1.5" transform="matrix(0 -1 -1 0 0 0)" width="7" x="-19" y="-22"/>
    <circle cx="18" cy="16" opacity=".2" r="1"/>
    <circle cx="18" cy="15.5" fill="#76ff03" r="1"/>
    <path d="M3.5 12c-.831 0-1.5.669-1.5 1.5v.5c0-.831.669-1.5 1.5-1.5h17c.831 0 1.5.669 1.5 1.5v-.5c0-.831-.669-1.5-1.5-1.5z" fill="#f4f4f7" opacity=".1"/>
</svg>
