<svg height="24" width="24" xmlns="http://www.w3.org/2000/svg">
    <g fill="#8e8e8e">
        <path d="M21 14v1H4v-1zm0-2v1H4v-1zm0-2v1H4v-1zm0-2v1H4V8zm0 8v1H4v-1zm0 2v1H4v-1zm0 2v1H4v-1zm0-14v1H4V6zm0-2v1H4V4z"/>
        <path d="M12 2h1v20h-1zm-2 0h1v20h-1zM8 2h1v20H8zM6 2h1v20H6zm8 0h1v20h-1zm2 0h1v20h-1zm2 0h1v20h-1z"/>
    </g>
    <rect height="18" opacity=".2" rx="1" width="15" x="5" y="3.5"/>
    <rect fill="#4f4f4f" height="18" rx="1" width="15" x="5" y="3"/>
    <g fill="#f4f4f7">
        <path d="M6 3c-.554 0-1 .446-1 1v.5c0-.554.446-1 1-1h13c.554 0 1 .446 1 1V4c0-.554-.446-1-1-1z" opacity=".1"/>
        <path d="M9 6h1v2H9zm0 3h1v2H9zm0 3h1v4H9zm3-6h1v5h-1zm0 6h1v5h-1zm3-6h1v4h-1zm0 5h1v2h-1zm0 3h1v5h-1z" opacity=".4"/>
    </g>
</svg>
