<svg xmlns="http://www.w3.org/2000/svg" width="24" height="24"><g transform="translate(0 -1098.52)"><path style="opacity:.2" d="M7.91 1109.02c-1.058 0-1.91.89-1.91 1.997v.01c0 1.106.852 1.997 1.91 1.997h8.18c1.058 0 1.91-.891 1.91-1.997v-.01c0-1.107-.852-1.997-1.91-1.997zm.09.5a1.5 1.5 0 1 1 0 3 1.5 1.5 0 0 1 0-3zm8 0a1.5 1.5 0 1 1 0 3 1.5 1.5 0 0 1 0-3zM2 1116.855v.5c0 .922.696 1.665 1.56 1.665h16.88c.864 0 1.56-.743 1.56-1.665v-.5c0 .922-.696 1.665-1.56 1.665H3.56c-.864 0-1.56-.743-1.56-1.665z"/><path style="fill:#17191e" transform="translate(0 1098.52)" d="M3.56 4C2.697 4 2 4.742 2 5.664v12.672C2 19.258 2.696 20 3.56 20h16.88c.864 0 1.56-.742 1.56-1.664V5.664C22 4.742 21.304 4 20.44 4H3.56zm3.94 6.25a1.75 1.75 0 0 1 1.057.357A1.5 1.5 0 0 1 9.5 12a1.5 1.5 0 0 1-.938 1.389 1.75 1.75 0 0 1-1.062.361A1.75 1.75 0 0 1 5.75 12a1.75 1.75 0 0 1 1.75-1.75zm9 0A1.75 1.75 0 0 1 18.25 12a1.75 1.75 0 0 1-1.75 1.75 1.75 1.75 0 0 1-1.057-.357A1.5 1.5 0 0 1 14.5 12a1.5 1.5 0 0 1 .938-1.389 1.75 1.75 0 0 1 1.062-.361z"/><path style="fill:#0071e2" transform="translate(0 1098.52)" d="M4.803 6C4.358 6 4 6.43 4 6.967V10h16V6.967C20 6.43 19.642 6 19.197 6H4.803z"/><path style="opacity:.2" transform="translate(0 1098.52)" d="M4 15.09v.5c0 .504.358.91.803.91h14.394c.445 0 .803-.406.803-.91v-.5c0 .504-.358.91-.803.91H4.803C4.358 16 4 15.594 4 15.09z"/><path style="fill:#1eb29b" transform="translate(0 1098.52)" d="M4 10v5.09c0 .504.358.91.803.91h14.394c.445 0 .803-.406.803-.91V10H4zm4 .5A1.5 1.5 0 0 1 9.5 12 1.5 1.5 0 0 1 8 13.5 1.5 1.5 0 0 1 6.5 12 1.5 1.5 0 0 1 8 10.5zm8 0a1.5 1.5 0 0 1 1.5 1.5 1.5 1.5 0 0 1-1.5 1.5 1.5 1.5 0 0 1-1.5-1.5 1.5 1.5 0 0 1 1.5-1.5z"/><path style="fill:#8b9cbe" d="m3.5 1118.52 2-3.5h13l2 3.5z"/><circle style="opacity:.4" cx="7" cy="1116.52" r="1"/><circle style="opacity:.4" cx="17" cy="1116.52" r="1"/><path style="fill:#17191e" d="M7.91 1108.52c-1.058 0-1.91.89-1.91 1.997v.01c0 1.106.852 1.997 1.91 1.997h8.18c1.058 0 1.91-.89 1.91-1.997v-.01c0-1.107-.852-1.997-1.91-1.997zm.09.5a1.5 1.5 0 1 1 0 3 1.5 1.5 0 0 1 0-3zm8 0a1.5 1.5 0 1 1 0 3 1.5 1.5 0 0 1 0-3z"/><path style="fill:#ccc" d="M10 1109.52h4v2h-4z"/><path style="fill:#874f29" d="M10 1109.52v2h1.826a3 3 0 0 0 .174-1 3 3 0 0 0-.174-1z"/><path style="opacity:.1;fill:#f4f4f7" d="M3.56 1102.52c-.864 0-1.56.743-1.56 1.665v.5c0-.922.696-1.665 1.56-1.665h16.88c.864 0 1.56.743 1.56 1.665v-.5c0-.922-.696-1.665-1.56-1.665z"/><path style="fill:#f4f4f7;opacity:.1" transform="translate(0 1098.52)" d="m5.5 16.5-2 3.5h.285L5.5 17h13l1.715 3h.285l-2-3.5h-13z"/><path style="opacity:.2" d="M10 1109.52h4v.5h-4z"/></g></svg>