<svg width="24" height="24" xmlns="http://www.w3.org/2000/svg"><defs><style id="current-color-scheme" type="text/css">.ColorScheme-Text{color:#8b9cbe}</style></defs><g style="fill:currentColor" class="ColorScheme-Text"><path style="fill:currentColor" class="ColorScheme-Text" d="M9 5c-1.108 0-2 .892-2 2v10c0 1.108.892 2 2 2h6c1.108 0 2-.892 2-2V7c0-1.108-.892-2-2-2zm0 1h6c.554 0 1 .446 1 1v10c0 .554-.446 1-1 1H9c-.554 0-1-.446-1-1V7c0-.554.446-1 1-1z"/><rect style="fill:currentColor" class="ColorScheme-Text" x="10" y="5" width="4" height="2" rx="1" ry="1"/><path style="fill:currentColor" class="ColorScheme-Text" d="M10.638 16h2.725c.353 0 .638.223.638.5s-.285.5-.638.5h-2.725c-.353 0-.637-.223-.637-.5s.284-.5.637-.5z" opacity=".5"/></g></svg>