<svg height="48" width="48" xmlns="http://www.w3.org/2000/svg">
    <path d="M24 5C12.92 5 4 13.92 4 25s8.92 20 20 20 20-8.92 20-20S35.08 5 24 5z" opacity=".2"/>
    <path d="M24 4C12.92 4 4 12.92 4 24s8.92 20 20 20 20-8.92 20-20S35.08 4 24 4z" fill="#ffa50c"/>
    <circle cx="17" cy="19" opacity=".1" r="3"/>
    <path d="M24 4A19.955 19.955 0 0 0 4.002 24c0 .168-.004.333 0 .5C4.266 13.654 13.089 5 24 5s19.734 8.654 19.998 19.5c.004-.167 0-.332 0-.5C43.998 12.92 35.08 4 24 4z" fill="#f4f4f7" opacity=".2"/>
    <circle cx="31" cy="19" opacity=".1" r="3"/>
    <circle cx="17" cy="18" fill="#17191e" r="3"/>
    <circle cx="31" cy="18" fill="#17191e" r="3"/>
    <path d="M33.046 29.988a1 1 0 0 0-.838.412S29.565 34 24.009 34s-8.2-3.6-8.2-3.6a1 1 0 1 0-1.6 1.2s3.355 4.4 9.8 4.4" opacity=".1"/>
    <path d="M15.009 30s3 4 9 4 9-4 9-4" fill="none" stroke="#17191e" stroke-linecap="round" stroke-linejoin="round" stroke-width="2"/>
</svg>
