<svg xmlns="http://www.w3.org/2000/svg" width="48" height="48" version="1"><path style="opacity:.2" d="M24 5C12.92 5 4 13.92 4 25s8.92 20 20 20 20-8.92 20-20S35.08 5 24 5z"/><path style="fill:#ffa50c" d="M24 4C12.92 4 4 12.92 4 24s8.92 20 20 20 20-8.92 20-20S35.08 4 24 4z"/><circle style="opacity:.1" cx="17" cy="19" r="3"/><path style="opacity:.2;fill:#f4f4f7" d="M24 4A19.955 19.955 0 0 0 4.002 24c0 .168-.004.333 0 .5C4.266 13.654 13.089 5 24 5c10.911 0 19.734 8.654 19.998 19.5.004-.167 0-.332 0-.5C43.998 12.92 35.08 4 24 4z"/><circle style="fill:#17191e" cx="17" cy="18" r="3"/><path style="opacity:.1" d="M33.037 29.988a1 1 0 0 0-.838.412S29.556 34 24 34s-8.2-3.6-8.2-3.6a1 1 0 1 0-1.6 1.2S17.555 36 24 36c6.8b9cbe 0 9.8-4.4 9.8-4.4a1 1 0 0 0-.763-1.612z" transform="translate(.009)"/><path style="fill:none;stroke:#17191e;stroke-width:2;stroke-linecap:round;stroke-linejoin:round" d="M15 30s3 4 9 4 9-4 9-4v0" transform="translate(.009)"/><path style="opacity:.1" d="M31 18a3 3 0 0 0-3 3c0 1.656 1.343 0 3 0s3 1.656 3 0a3 3 0 0 0-3-3z"/><path style="fill:#17191e" d="M34 20c0 1.656-1.343 0-3 0s-3 1.656-3 0a3 3 0 0 1 6 0z"/></svg>