<svg xmlns="http://www.w3.org/2000/svg" width="24" height="24"><circle style="fill:#455a64" cx="12" cy="12" r="10"/><path style="fill:#fff" d="M11.969 6a6.862 6.862 0 0 0-1.785.229C7.47 6.914 5.45 9.354 5.492 12H4l2.287 3 2.188-3H7.043c-.005-1.108.436-2.136 1.219-2.963 1.472-1.667 4.23-2.058 6.187-.943.65.801 2.093-.079 1.336-.9C14.708 6.403 13.33 6.002 11.97 6zm5.744 3-2.188 3h1.432c.005 1.108-.436 2.136-1.219 2.963-1.472 1.667-4.23 2.058-6.187.943-.65-.801-2.093.079-1.336.9 1.077.79 2.456 1.191 3.816 1.194a6.862 6.862 0 0 0 1.785-.229c2.713-.685 4.733-3.125 4.692-5.771H20l-2.287-3z"/></svg>