<svg viewBox="0 0 16 16" xmlns="http://www.w3.org/2000/svg"><path d="m8 2a1.5 1.5 0 0 0 -1.5 1.5 1.5 1.5 0 0 0 .168.686 5 5 0 0 0 -3.668 4.814 5 5 0 0 0 5 5 5 5 0 0 0 5-5 5 5 0 0 0 -1.133-3.162l.944-.945a.5.5 0 0 0 .017-.018l.004-.002a.5.5 0 0 0 .168-.373.5.5 0 0 0 -.5-.5.5.5 0 0 0 -.373.168l-.002-.002-.965.965a5 5 0 0 0 -1.824-.95 1.5 1.5 0 0 0 0-.001 1.5 1.5 0 0 0 .164-.68 1.5 1.5 0 0 0 -1.5-1.5zm0 1a.5.5 0 0 1 .5.5.5.5 0 0 1 -.5.5.5.5 0 0 1 -.5-.5.5.5 0 0 1 .5-.5zm0 2a4 4 0 0 1 4 4 4 4 0 0 1 -4 4 4 4 0 0 1 -4-4 4 4 0 0 1 4-4zm0 1v2a1 1 0 0 1 1 1h2a3 3 0 0 0 -3-3z" fill="#8b9cbe"/></svg>