<svg enable-background="new" height="16" width="16.000166" xmlns="http://www.w3.org/2000/svg" xmlns:xlink="http://www.w3.org/1999/xlink"><filter id="a" color-interpolation-filters="sRGB"><feBlend in2="BackgroundImage" mode="darken"/></filter><g transform="translate(-525.0002 -4.996643)"><g filter="url(#a)"/><path d="m533.0002 8c-1.55084.0151-3.11206.36936-4.46289 1.13477-.5384.35062-1.18475.80348-1.67188 1.25976-.76649.75042-1.42254 1.62599-1.86523 2.60547 1.21494 2.67956 3.88589 4.64353 6.82422 4.93359 1.92741.21811 3.94441-.11491 5.63867-1.06836.5384-.35062 1.18475-.80348 1.67188-1.25976.76649-.75042 1.42254-1.62599 1.86523-2.60547-1.21502-2.67941-3.88582-4.64381-6.82422-4.93359-.38988-.04547-.78329-.06642-1.17578-.06641zm0 2c1.607-.0356 3.0303 1.40182 3 3 .0515 1.76642-1.70897 3.29088-3.44922 2.96094-1.75762-.20634-2.99214-2.17777-2.41406-3.84766.36916-1.22935 1.57581-2.12858 2.86328-2.11328zm0 2a1 1 0 0 0 -1 1 1 1 0 0 0 1 1 1 1 0 0 0 1-1 1 1 0 0 0 -1-1z" fill="#4c5263" fill-rule="evenodd"/></g></svg>