<svg xmlns="http://www.w3.org/2000/svg" viewBox="0 0 16 16"><defs id="defs3051"><style type="text/css" id="current-color-scheme">.ColorScheme-Text{color:#5d656b}</style></defs><path style="fill:currentColor;fill-opacity:1;stroke:none;color:#fcfcfc" d="M423.714 545.79h6v-1h-5v-5h5v-1h-5v-5h5v-1h-6v13zm7 0h5v-1h-5v1zm0-6h5v-1h-5v1zm0-6h5v-1h-5v1z" transform="translate(-421.714 -531.79)"/><path style="fill:currentColor;fill-opacity:1;stroke:none" d="M435.714 545.79v-13h1v13z" class="ColorScheme-Text" transform="translate(-421.714 -531.79)"/><path style="fill:currentColor;fill-opacity:.5;stroke:none" d="M424.714 533.79h5v5h-5v-5zm0 6h5v5h-5v-5zm6-6h5v5h-5v-5zm0 6h5v5h-5v-5z" class="ColorScheme-Text" transform="translate(-421.714 -531.79)"/></svg>