<svg enable-background="new" height="16.003361" width="16.000223" xmlns="http://www.w3.org/2000/svg" xmlns:xlink="http://www.w3.org/1999/xlink"><filter id="a" color-interpolation-filters="sRGB"><feBlend in2="BackgroundImage" mode="darken"/></filter><g transform="translate(-625.0002 75.00336)"><g filter="url(#a)"/><path d="m629.0002-75a1 1 0 0 0 -1 1v1h1 1v-1a1 1 0 0 0 -1-1zm-3 3a1 1 0 0 0 -1 1 1 1 0 0 0 1 1h10v10a1 1 0 0 0 1 1 1 1 0 0 0 1-1v-10.00391-.99609s0-1-1-1zm3 3a1 1 0 0 0 -1 1v5c0 1 1 1 1 1h1.5 3.5a1 1 0 0 0 1-1 1 1 0 0 0 -1-1l-4-.004v-3.996a1 1 0 0 0 -1-1zm10 4.99609v1.00391 1h1a1 1 0 0 0 1-1 1 1 0 0 0 -1-1z" fill="#4c5263"/></g></svg>