<svg height="18" width="18" xmlns="http://www.w3.org/2000/svg">
    <path d="M6 3c-.58 0-1.094.313-1.357.764s-.345.992-.362 1.597c-.033 1.212.225 2.721.475 4.221s.492 2.991.463 4.029c-.015.52-.105.916-.225 1.121-.12.206-.2.268-.494.268-.115 0-.199-.033-.32-.146-.122-.114-.26-.312-.383-.579-.246-.532-.432-1.313-.553-2.101C3.002 10.598 3 9 3 9H2s-.002 1.652.256 3.326c.129.837.318 1.681.635 2.367.158.343.348.653.609.895s.615.412 1 .412c.58 0 1.094-.313 1.357-.764s.345-.992.362-1.597c.033-1.212-.225-2.721-.475-4.221s-.492-2.99-.463-4.03c.015-.519.105-.915.225-1.12.12-.206.2-.268.494-.268.342 0 .527.084.676.217s.272.35.357.664c.17.63.154 1.598.092 2.588s-.163 1.997-.076 2.834c.043.418.129.804.357 1.136A1.35 1.35 0 0 0 8.5 12c.792 0 1.38-.502 1.625-1.09.245-.588.28-1.251.313-1.885s.056-1.24.16-1.607c.052-.183.118-.294.17-.344.051-.05.086-.074.232-.074.375 0 .6.12.803.322.202.203.363.509.472.836.219.655.225 1.342.225 1.342a.5.5 0 0 0 .5.5h3V9h-2.584c-.016-.293.005-.568-.191-1.158-.141-.423-.355-.867-.715-1.227A2.122 2.122 0 0 0 11 6c-.354 0-.694.132-.926.355s-.356.504-.437.79c-.162.57-.169 1.213-.2 1.83s-.088 1.203-.234 1.552c-.145.35-.245.473-.703.473-.18 0-.197-.021-.27-.127-.072-.105-.15-.344-.185-.676-.07-.663.017-1.655.08-2.666.063-1.01.109-2.041-.127-2.912-.118-.435-.315-.844-.654-1.148C7.004 3.166 6.533 3 6 3z" fill="#f4f4f7"/>
</svg>
