<svg viewBox="0 0 16 16" xmlns="http://www.w3.org/2000/svg"><path d="m4 4h2v2h-2z" fill="#f47750"/><path d="m2 8h2v2h-2z" fill="#2ecc71"/><path d="m10 4h2v2h-2z" fill="#fdbc4b"/><path d="m2 4h2v2h-2z" fill="#1d99f3"/><path d="m8 4h2v2h-2z" fill="#da4453"/><path d="m6 4h2v2h-2z" fill="#2ecc71"/><path d="m6 6h2v2h-2z" fill="#fdbc4b"/><path d="m4 6h2v2h-2z" fill="#1d99f3"/><path d="m2 6h2v2h-2z" fill="#da4453"/><path d="m10 6h2v2h-2z" fill="#2ecc71"/><path d="m8 6h2v2h-2z" fill="#f47750"/><path d="m10 8h2v2h-2z" fill="#fdbc4b"/><path d="m8 8h2v2h-2z" fill="#1d99f3"/><path d="m6 8h2v2h-2z" fill="#da4453"/><path d="m4 8h2v2h-2z" fill="#f47750"/><path d="m8 10h2v2h-2z" fill="#fdbc4b"/><path d="m6 10h2v2h-2z" fill="#1d99f3"/><path d="m4 10h2v2h-2z" fill="#da4453"/><path d="m10 10h2v2h-2z" fill="#2ecc71"/><path d="m4 12h2v2h-2z" fill="#fdbc4b"/><path d="m2 12h2v2h-2z" fill="#1d99f3"/><path d="m12 6h2v2h-2z" fill="#da4453"/><path d="m12 8h2v2h-2z" fill="#1d99f3"/><path d="m2 10h2v2h-2z" fill="#f47750"/><path d="m12 4h2v2h-2z" fill="#2ecc71"/><path d="m2 2h2v2h-2z" fill="#fdbc4b"/><path d="m6 2h2v2h-2z" fill="#1d99f3"/><path d="m4 2h2v2h-2z" fill="#da4453"/><path d="m10 2h2v2h-2z" fill="#2ecc71"/><path d="m12 2h2v2h-2z" fill="#f47750"/><path d="m8 2h2v2h-2z" fill="#fdbc4b"/><path d="m12 10h2v2h-2z" fill="#da4453"/><path d="m10 12h2v2h-2z" fill="#fdbc4b"/><path d="m8 12h2v2h-2z" fill="#da4453"/><path d="m6 12h2v2h-2zm6 0h2v2h-2z" fill="#2ecc71"/></svg>