<svg enable-background="new" height="16" width="16" xmlns="http://www.w3.org/2000/svg">
    <filter id="a" color-interpolation-filters="sRGB">
        <feBlend in2="BackgroundImage" mode="darken"/>
    </filter>
    <g filter="url(#a)" transform="translate(-346 -5.003)"/>
    <path d="M7.998 2v9.023H11c.939 0 1.769-.373 2.299-.959s.766-1.337.756-2.066a3.077 3.077 0 0 0-.79-2.043C12.74 5.377 11.922 5 11 5H9.998V2zM2.004 3l-.008 2 2.922.011h.002c-.055 0 .084.16.084.082v.924H4C2.284 6.017.97 7.143.945 8.501c-.012.68.306 1.363.862 1.823s1.315.699 2.193.699h3.004v-5.93c0-1.17-.887-2.082-2.084-2.082L2.004 3zm7.994 4H11c.422 0 .626.125.787.302.162.177.264.447.268.723.004.276-.089.53-.24.697-.152.168-.356.301-.815.301H9.998zM4 8.017h1.004v1.006H4c-.52 0-.794-.136-.92-.24-.126-.104-.136-.174-.135-.246.003-.144.085-.52 1.055-.52zm-1 3.276L.646 13.646a.5.5 0 1 0 .708.707L3 12.707l2 2 2-2 2 2 2-2 2 2 2.354-2.354a.5.5 0 1 0-.708-.707L13 13.293l-2-2-2 2-2-2-2 2z" fill="#f4f4f7"/>
</svg>
