<svg enable-background="new" height="16" width="16.000263" xmlns="http://www.w3.org/2000/svg" xmlns:xlink="http://www.w3.org/1999/xlink"><filter id="a" color-interpolation-filters="sRGB"><feBlend in2="BackgroundImage" mode="darken"/></filter><g transform="translate(-585.00015 -44.99664)"><g filter="url(#a)"/><path d="m586.0002 46a1 1 0 0 0 -.99805.97656l-.002.002v.02144 11.97852l.002.002a1 1 0 0 0 -.00195.01948 1 1 0 0 0 1 1h14a1 1 0 0 0 1-1v-12a1 1 0 0 0 -1-1zm6 1.99609c-.00007 3.33445.00007 6.66946 0 10.00391l-5 .004v-10.004zm2 .004h5c-.00007 3.33445.00007 6.66946 0 10.00391h-5c.00007-3.33445-.00007-6.66946 0-10.00391z" fill="#4c5263"/></g></svg>