<svg height="64" width="64" xmlns="http://www.w3.org/2000/svg"><rect height="42" opacity=".2" rx="2.5" width="32" x="16" y="14"/><rect fill="#8e8e8e" height="42" rx="2.5" width="32" x="16" y="13"/><rect height="40" opacity=".2" rx="2.5" width="52" x="6" y="10"/><rect fill="#4f4f4f" height="40" rx="2.5" width="52" x="6" y="9"/><path d="m10 13h44v32h-44z" fill="#333"/><g fill="#f4f4f7"><path d="m10 45h44v1h-44z" opacity=".1"/><path d="m8.5 9a2.495 2.495 0 0 0 -2.5 2.5v1c0-1.385 1.115-2.5 2.5-2.5h47c1.385 0 2.5 1.115 2.5 2.5v-1c0-1.385-1.115-2.5-2.5-2.5z" opacity=".1"/></g></svg>