<svg height="64" width="64" xmlns="http://www.w3.org/2000/svg"><rect height="44" opacity=".2" rx="4" transform="matrix(0 -1 -1 0 0 0)" width="56" x="-61" y="-54"/><rect fill="#8e8e8e" height="44" rx="4" transform="matrix(0 -1 -1 0 0 0)" width="56" x="-60" y="-54"/><path d="m14 4c-2.216 0-4 1.784-4 4v1c0-2.216 1.784-4 4-4h36c2.216 0 4 1.784 4 4v-1c0-2.216-1.784-4-4-4z" fill="#f4f4f7" opacity=".2"/><path d="m28 40h8v3h-8zm0 5h8v3h-8zm4-21a7 7 0 0 0 -7 7 7 7 0 0 0 7 7 7 7 0 0 0 7-7 7 7 0 0 0 -7-7zm0 3a4 4 0 0 1 4 4 4 4 0 0 1 -4 4 4 4 0 0 1 -4-4 4 4 0 0 1 4-4zm9.189.4-5.657-5.656 5.657-5.657 5.657 5.657zm-12.728-5.656-5.657 5.656-2.121-2.12 5.657-5.658zm-3.535-3.536-5.657 5.657-2.122-2.121 5.657-5.657z" opacity=".5"/></svg>