<svg height="48" width="48" xmlns="http://www.w3.org/2000/svg"><rect height="32" opacity=".2" rx="2" width="40" x="4" y="9"/><rect fill="#4f4f4f" height="32" rx="2" width="40" x="4" y="8"/><circle cx="36" cy="37" opacity=".2" r="11"/><circle cx="36" cy="36" fill="#1ea362" r="11"/><g fill="#f4f4f7"><path d="m6 8c-1.108 0-2 .892-2 2v28c0 1.108.892 2 2 2h5v-32z" opacity=".1"/><path d="m6 8c-1.108 0-2 .892-2 2v1c0-1.108.892-2 2-2h36c1.108 0 2 .892 2 2v-1c0-1.108-.892-2-2-2z" opacity=".1"/><path d="m30 39.327v2.673h2.673l6.751-6.751-2.673-2.673zm11.788-6.434a.708.708 0 0 0 0-1.011l-1.67-1.67a.708.708 0 0 0 -1.011 0l-1.397 1.405 2.673 2.673z"/></g></svg>