<svg xmlns="http://www.w3.org/2000/svg" width="48" height="48" version="1"><rect style="opacity:.2" width="32" height="40" x="10" y="5" rx="6" ry="6"/><rect style="opacity:.2" width="4" height="26" x="6" y="12" rx="1" ry="1"/><rect style="fill:#4f4f4f" width="32" height="40" x="10" y="4" rx="6" ry="6"/><circle style="opacity:.2" cx="-10" cy="-37" r="2" transform="matrix(0 -1 -1 0 0 0)"/><circle style="fill:#ff4d4d" cx="-9" cy="-37" r="2" transform="matrix(0 -1 -1 0 0 0)"/><circle style="opacity:.4" cx="-23" cy="-26" r="8" transform="matrix(0 -1 -1 0 0 0)"/><circle style="opacity:.2" cx="-24" cy="26" r="6" transform="rotate(-90)"/><circle style="fill:#007095" cx="-23" cy="26" r="6" transform="rotate(-90)"/><circle style="opacity:.2" cx="-24" cy="-26" r="3" transform="matrix(0 -1 -1 0 0 0)"/><circle style="fill:#49acdc" cx="-23" cy="-26" r="3" transform="matrix(0 -1 -1 0 0 0)"/><rect style="fill:#17191e" width="4" height="26" x="6" y="11" rx="1" ry="1"/><circle style="opacity:.5" cx="14" cy="37" r="1"/><circle style="opacity:.5" cx="18" cy="37" r="1"/><circle style="opacity:.5" cx="22" cy="37" r="1"/><circle style="opacity:.5" cx="26" cy="37" r="1"/><circle style="opacity:.5" cx="16" cy="40" r="1"/><circle style="opacity:.5" cx="20" cy="40" r="1"/><circle style="opacity:.5" cx="24" cy="40" r="1"/><path style="fill:#f4f4f7;opacity:.1" d="M16 4c-3.324 0-6 2.676-6 6v1c0-3.324 2.676-6 6-6h20c3.324 0 6 2.676 6 6v-1c0-3.324-2.676-6-6-6H16z"/><path style="fill:#f4f4f7;opacity:.2" d="M37 7a2 2 0 0 0-2 2 2 2 0 0 0 .064.496A2 2 0 0 1 37 8a2 2 0 0 1 1.936 1.504A2 2 0 0 0 39 9a2 2 0 0 0-2-2z"/><path style="fill:#f4f4f7;opacity:.1" d="M26 17a6 6 0 0 0-6 6 6 6 0 0 0 .025.498A6 6 0 0 1 26 18a6 6 0 0 1 5.975 5.502A6 6 0 0 0 32 23a6 6 0 0 0-6-6z"/><path style="fill:#f4f4f7;opacity:.2" d="M26 20a3 3 0 0 0-3 3 3 3 0 0 0 .043.486A3 3 0 0 1 26 21a3 3 0 0 1 2.957 2.514A3 3 0 0 0 29 23a3 3 0 0 0-3-3z"/><path style="opacity:.1;fill:#f4f4f7" d="M7 11c-.554 0-1 .446-1 1v1c0-.554.446-1 1-1h2c.554 0 1 .446 1 1v-1c0-.554-.446-1-1-1H7z"/></svg>