<svg xmlns="http://www.w3.org/2000/svg" width="48" height="48" version="1"><rect style="opacity:.2" width="4" height="44" x="-41" y="-46" rx="2" ry="2" transform="matrix(0 -1 -1 0 0 0)"/><rect fill="#8e8e8e" width="4" height="44" x="-40" y="-46" rx="2" ry="2" transform="matrix(0 -1 -1 0 0 0)"/><rect style="opacity:.2" width="40" height="28" x="4" y="9" rx="2" ry="2"/><rect style="fill:#4f4f4f" width="40" height="28" x="4" y="8" rx="2" ry="2"/><path style="fill:#333" d="M7 11h34v22H7z"/><path style="opacity:.1;fill:#f4f4f7" d="M6 8c-1.108 0-2 .892-2 2v1c0-1.108.892-2 2-2h36c1.108 0 2 .892 2 2v-1c0-1.108-.892-2-2-2H6zM7 33h34v1H7z"/></svg>