<svg xmlns="http://www.w3.org/2000/svg" style="fill-rule:evenodd;clip-rule:evenodd;stroke-linejoin:round;stroke-miterlimit:2" viewBox="0 0 16 16" xml:space="preserve">
    <defs>
        <style id="current-color-scheme" type="text/css">
            .ColorScheme-Text{color:#dfdfdf}
        </style>
    </defs>
    <path style="fill:currentColor" class="ColorScheme-Text" d="M8 1a7 7 0 1 0 0 14A7 7 0 0 0 8 1Zm0 1.066a5.934 5.934 0 1 1 0 11.869A5.934 5.934 0 0 1 8 2.066Z"/>
    <path style="fill:currentColor" class="ColorScheme-Text" d="m6.284 6.506.867.735A1.099 1.099 0 0 0 6.834 8c0 .611.555 1.166 1.166 1.166.347 0 .675-.179.882-.455l.867.735c-.417.54-1.066.888-1.749.888l-4.051 1.717L5.666 8c0-.558.232-1.093.618-1.494Z"/>
    <path style="fill:currentColor;fill-opacity:.3" class="ColorScheme-Text" d="M6.284 6.506c.421-.512 1.052-.84 1.716-.84l4.051-1.717L10.334 8c0 .538-.216 1.056-.585 1.446l-.867-.735c.18-.193.284-.447.284-.711 0-.611-.555-1.166-1.166-1.166a1.13 1.13 0 0 0-.849.407l-.867-.735Z"/>
</svg>
