<svg xmlns="http://www.w3.org/2000/svg" style="fill-rule:evenodd;clip-rule:evenodd;stroke-linejoin:round;stroke-miterlimit:2" viewBox="0 0 16 16" xml:space="preserve">
    <defs>
        <style id="current-color-scheme" type="text/css">
            .ColorScheme-Highlight{color:#4285f4}.ColorScheme-NeutralText{color:#ff9800}.ColorScheme-PositiveText{color:#4caf50}.ColorScheme-NegativeText{color:#f44336}
        </style>
    </defs>
    <path style="fill:currentColor;color:#dfdfdf" d="M2.525 11.152a1.92 1.92 0 0 1 3.705 0h7.934a.5.5 0 0 1 0 1H6.23a1.92 1.92 0 0 1-3.705 0h-.838a.5.5 0 0 1 0-1h.838Zm1.853-.36a.86.86 0 1 1-.001 1.72.86.86 0 0 1 .001-1.72ZM9.65 3.848a1.921 1.921 0 0 1 3.706 0h.957a.5.5 0 0 1 0 1h-.957a1.92 1.92 0 0 1-3.706 0H1.836a.5.5 0 0 1 0-1H9.65Z"/>
</svg>
