<svg xmlns="http://www.w3.org/2000/svg" style="fill-rule:evenodd;clip-rule:evenodd;stroke-linejoin:round;stroke-miterlimit:2" viewBox="0 0 16 16" xml:space="preserve">
    <defs>
        <style id="current-color-scheme" type="text/css">
            .ColorScheme-Text{color:#dfdfdf}
        </style>
    </defs>
    <path style="fill:currentColor;fill-opacity:.3" class="ColorScheme-Text" d="M7.899 13.458c-1.262-.143-2.75-.81-3.653-1.637A6.057 6.057 0 0 1 2.79 9.723c-.221-.557-.24-.694-.242-1.739-.001-1.046.017-1.182.238-1.748.818-2.097 2.858-3.526 5.39-3.778l.513-.051v5.568c0 4.408-.023 5.565-.108 5.558a83.587 83.587 0 0 1-.682-.075Z"/>
    <path style="fill:currentColor" class="ColorScheme-Text" d="M9 13.992H8c-3.314 0-6-2.684-6-5.996A5.998 5.998 0 0 1 8 2c.069-.019 1 0 1 0v11.992Zm-1-.999V3C5.239 3 3 5.237 3 7.997a4.999 4.999 0 0 0 5 4.997"/>
</svg>
