<svg xmlns="http://www.w3.org/2000/svg" style="fill-rule:evenodd;clip-rule:evenodd;stroke-linejoin:round;stroke-miterlimit:2" viewBox="0 0 16 16" xml:space="preserve">
    <defs>
        <style id="current-color-scheme" type="text/css">
            .ColorScheme-Text{color:#dfdfdf}
        </style>
    </defs>
    <path style="fill:currentColor;fill-opacity:.2" class="ColorScheme-Text" d="M8.275 13.953c.008 0 1.149-.754 2.536-1.675l2.52-1.675v-2.6c0-1.43-.007-2.601-.017-2.601-.009 0-1.15.755-2.536 1.677L8.259 8.757v2.598c0 1.43.007 2.598.016 2.598Z"/>
    <path style="fill:currentColor;fill-opacity:.4" class="ColorScheme-Text" d="M7.941 8.355c.075-.003 5.048-3.359 5.019-3.387-.014-.014-1.131-.765-2.482-1.668-1.351-.903-2.464-1.638-2.473-1.631-.42.272-4.995 3.367-5 3.383-.01.032 4.881 3.303 4.936 3.303Z"/>
    <path style="fill:currentColor;fill-opacity:.3" class="ColorScheme-Text" d="M7.719 13.994c.008 0 .016-1.151.015-2.556l-.001-2.556-2.518-1.685a734.998 734.998 0 0 0-2.524-1.686c-.005-.001-.008 1.152-.008 2.562v2.563l2.51 1.679c1.381.924 2.518 1.679 2.526 1.679Z"/>
    <path style="fill:currentColor" class="ColorScheme-Text" d="M8 15c5.77-3.758 4.078-2.721 6-4V5c-1.293-.856-3.969-2.658-6-4-3 2-3.643 2.386-6 4v6l6 4Zm.508-1.588L8.496 9C10.411 7.652 11.772 6.834 13 6v4.594l-4.492 2.818Zm-.992-.012L3 10.57V6l4.528 3-.012 4.4ZM8 8 3.449 5 8 2l4.478 3C10.956 6.087 9.537 6.935 8 8Z"/>
</svg>
