<svg xmlns="http://www.w3.org/2000/svg" style="fill-rule:evenodd;clip-rule:evenodd;stroke-linejoin:round;stroke-miterlimit:2" viewBox="0 0 16 16" xml:space="preserve">
    <defs>
        <style id="current-color-scheme" type="text/css">
            .ColorScheme-Highlight{color:#4285f4}.ColorScheme-NeutralText{color:#ff9800}.ColorScheme-PositiveText{color:#4caf50}
        </style>
    </defs>
    <path style="fill:currentColor;color:#dfdfdf" d="M3.348 2C2.604 2 2 2.604 2 3.348V5h1V3.49A.489.489 0 0 1 3.49 3H5V2H3.348ZM11 2v1h1.51a.489.489 0 0 1 .49.49V5h1V3.348C14 2.604 13.396 2 12.652 2H11ZM4 4v3h3V4H4Zm5 0v3h3V4H9ZM5 5h1v1H5V5Zm5 0h1v1h-1V5ZM4 9v3h3V9H4Zm1 1h1v1H5v-1Zm-3 1v1.652C2 13.396 2.604 14 3.348 14H5v-1H3.49a.489.489 0 0 1-.49-.49V11H2Z"/>
    <path style="fill:currentColor;color:#f44336" d="m9 9.83 1.667 1.667L9 13.164l.833.833L11.5 12.33l1.667 1.667.833-.833-1.667-1.667L14 9.83l-.833-.833-1.667 1.667-1.667-1.667L9 9.83Z"/>
</svg>
