<svg xmlns="http://www.w3.org/2000/svg" width="16" height="16">
    <defs>
        <style id="current-color-scheme" type="text/css">
            .ColorScheme-Highlight{color:#4285f4}.ColorScheme-NeutralText{color:#ff9800}.ColorScheme-PositiveText{color:#4caf50}.ColorScheme-NegativeText{color:#f44336}
        </style>
    </defs>
    <path style="fill:currentColor;fill-rule:evenodd;color:#dfdfdf" d="M8.006 0C5.159 0 3 2.317 3 5.174v2.832h-.994L2 7.994v3.777c.883-1.19 2.237-2.176 4.47-2.337 1.686-.13 4.434-.094 6.53-1.403V5.174C13 2.317 10.853 0 8.006 0zM8 2c1.657 0 3 1.424 3 3.18V8H5V5.18C5 3.424 6.343 2 8 2zm6.006 6.697c-1.385 1.47-3.546 2.893-6.385 2.899 1.876.249 3.58-.092 4.559-.57.978-.478 2.487-1.625 1.433-.239-1.054 1.386-2.909 2.934-7.677 2.87 1.514.399 3.778.367 4.949.07 1.17-.298 2.297-1.106 1.263-.047-1.033 1.058-3.134 1.857-5.037 1.797-1.397-.045-2.241-.108-3.373.523h10.268V8.697z"/>
</svg>
