<svg xmlns="http://www.w3.org/2000/svg" style="fill-rule:evenodd;clip-rule:evenodd;stroke-linejoin:round;stroke-miterlimit:2" viewBox="0 0 16 16" xml:space="preserve">
    <defs>
        <style id="current-color-scheme" type="text/css">
            .ColorScheme-Text{color:#dfdfdf}
        </style>
    </defs>
    <path style="fill:currentColor;fill-opacity:.3" class="ColorScheme-Text" d="M12.5 9C10.58 9 9 10.58 9 12.5s1.58 3.5 3.5 3.5 3.5-1.58 3.5-3.5S14.42 9 12.5 9Zm-4.525 1.451s.735-1.586.873-1.952c.81.043 1.51.159 2.108.314-1.438.61-2.457 2.039-2.457 3.687 0 .481.087.944.246 1.373-2.094.007-4.317.007-5.622.007a.94.94 0 0 1-.885-1.255c.359-1.209.96-2.947 1.789-3.38.73-.381 1.718-.631 3.001-.724l.947 1.93Z"/>
    <path style="fill:currentColor" class="ColorScheme-Text" d="m14.455 10.465.34.33-2.739 3.495-1.953-2.495.335-.414L12 12.5l2.455-2.035ZM8.003 2.12c1.339.001 2.595 1.248 2.419 2.764-.176 1.52-1.08 2.764-2.419 2.764-1.338 0-2.194-1.188-2.418-2.764-.216-1.51 1.08-2.763 2.418-2.763Z"/>
</svg>
