<svg xmlns="http://www.w3.org/2000/svg" style="fill-rule:evenodd;clip-rule:evenodd;stroke-linejoin:round;stroke-miterlimit:2" viewBox="0 0 16 16" xml:space="preserve">
    <defs>
        <style id="current-color-scheme" type="text/css">
            .ColorScheme-Text{color:#dfdfdf}
        </style>
    </defs>
    <path style="fill:currentColor" class="ColorScheme-Text" d="M9 4v6h1v-.77a3.004 3.004 0 0 0 2 .77c1.646 0 3-1.354 3-3s-1.354-3-3-3a2.997 2.997 0 0 0-2 .768V4H9Zm3 1c1.097 0 2 .903 2 2s-.903 2-2 2-2-.903-2-2 .903-2 2-2ZM4.004 8c-1.646 0-3 1.354-3 3s1.354 3 3 3a2.997 2.997 0 0 0 2-.768v.77h1v-6h-1v.769a3.003 3.003 0 0 0-2-.769V8Zm0 1.002c1.097 0 2 .903 2 2s-.903 2-2 2-2-.903-2-2 .903-2 2-2Z"/>
    <path style="fill:currentColor;fill-opacity:.3" class="ColorScheme-Text" d="M7.5 2v12h1v-2H15v-1H8.5V2h-1Z"/>
</svg>
