<svg xmlns="http://www.w3.org/2000/svg" style="fill-rule:evenodd;clip-rule:evenodd;stroke-linejoin:round;stroke-miterlimit:2" viewBox="0 0 16 16" xml:space="preserve">
    <defs>
        <style id="current-color-scheme" type="text/css">
            .ColorScheme-Text{color:#dfdfdf}
        </style>
    </defs>
    <path style="fill:currentColor;fill-opacity:.3" class="ColorScheme-Text" d="M4 11.5c0 .823-.677 1.5-1.5 1.5S1 12.323 1 11.5 1.677 10 2.5 10s1.5.677 1.5 1.5Zm0-4C4 8.323 3.323 9 2.5 9S1 8.323 1 7.5 1.677 6 2.5 6 4 6.677 4 7.5Zm0-4C4 4.323 3.323 5 2.5 5S1 4.323 1 3.5 1.677 2 2.5 2 4 2.677 4 3.5Z"/>
    <path style="fill:currentColor" class="ColorScheme-Text" d="M11.229 2.694v8.03l2.963-2.964a.699.699 0 0 1 .99 0 .697.697 0 0 1 0 .993l-4.134 4.14a.708.708 0 0 1-.513.204.693.693 0 0 1-.509-.204l-4.138-4.14a.704.704 0 0 1 .994-.993l2.959 2.964v-8.03a.693.693 0 1 1 1.388 0Z"/>
</svg>
