<svg xmlns="http://www.w3.org/2000/svg" width="24" height="24"><path style="opacity:.2" d="M5 2.5c-.554 0-1 .446-1 1v18c0 .554.446 1 1 1h14c.554 0 1-.446 1-1v-13L14.5 8 14 2.5z"/><path style="fill:#1ab5bc" d="M5 2c-.554 0-1 .446-1 1v13.4c0 .554.504 1.248 1 1l14-7c.496-.248 1-.446 1-1V8l-5.5-.5L14 2z"/><path style="fill:#df5b6f" d="m15.84 7.622-8.142 6.033L18.961 22H19c.554 0 1-.446 1-1V8z"/><path style="fill:#445c5c" d="M7.714 13.61 4 16.362V21c0 .554.446 1 1 1h14c.02 0 .04-.005.06-.006z"/><path style="fill:#9f327b" d="m15.84 7.622-8.142 6.033L20 8.993V8z"/><path style="opacity:.2;fill:#fff" d="M5 2c-.554 0-1 .446-1 1v.5c0-.554.446-1 1-1h9L19.5 8h.5l-6-6z"/><path style="opacity:.2" d="M9.25 10.5a.748.748 0 0 0-.75.75c0 .416.334.75.75.75s.75-.334.75-.75a.748.748 0 0 0-.75-.75zm4.179 0L12 11.9l2.143 2.1L12 16.1l1.429 1.4 2.142-2.1L17 14l-1.429-1.4zM8 14.5c-.554 0-1 .446-1 1s.446 1 1 1 1-.446 1-1-.446-1-1-1zm2.75 3.5c-.693 0-1.25.557-1.25 1.25s.557 1.25 1.25 1.25S12 19.942 12 19.25 11.443 18 10.75 18z"/><path style="fill:#fff" d="M9.25 10a.748.748 0 0 0-.75.75c0 .416.334.75.75.75s.75-.334.75-.75a.748.748 0 0 0-.75-.75zm4.179 0L12 11.4l2.143 2.1L12 15.6l1.429 1.4 2.142-2.1L17 13.5l-1.429-1.4zM8 14c-.554 0-1 .446-1 1s.446 1 1 1 1-.446 1-1-.446-1-1-1zm2.75 3.5c-.693 0-1.25.558-1.25 1.25S10.057 20 10.75 20 12 19.442 12 18.75s-.557-1.25-1.25-1.25z"/><path style="opacity:.2" d="M14 2.5v5a1 1 0 0 0 1 1h5z"/><path style="fill:#64d6db" d="M14 2v5a1 1 0 0 0 1 1h5z"/></svg>