<svg xmlns="http://www.w3.org/2000/svg" width="24" height="24"><path style="opacity:.2" d="M5 2.5c-.554 0-1 .446-1 1v18c0 .554.446 1 1 1h14c.554 0 1-.446 1-1v-13l-6-6z"/><path style="fill:#f4b43f" d="M5 2c-.554 0-1 .446-1 1v18c0 .554.446 1 1 1h14c.554 0 1-.446 1-1V8l-6-6z"/><path style="opacity:.2" d="m20 8.5-6-6v5c0 .554.446 1 1 1z"/><path style="fill:#ffdea2" d="m20 8-6-6v5c0 .554.446 1 1 1z"/><path style="opacity:.2;fill:#fff" d="M5 2c-.554 0-1 .446-1 1v.5c0-.554.446-1 1-1h9V2H5z"/><path style="opacity:.2" d="M10.889 10.086a.997.997 0 0 0-.67.371.997.997 0 0 0 .158 1.404l.8.639H8c-.554 0-1 .446-1 1s.446 1 1 1h1.433l-3.02 2.19a.998.998 0 0 0-.222 1.396.998.998 0 0 0 1.397.223l1.482-1.075A4 4 0 0 0 13 20.5a4 4 0 0 0 4-4 4 4 0 0 0-1.715-3.28 4 4 0 0 0-.027-.02l-3.633-2.901a.999.999 0 0 0-.736-.213zm2.11 4.414a2 2 0 0 1 2 2 2 2 0 0 1-2 2 2 2 0 0 1-2-2 2 2 0 0 1 2-2zm0 1a1 1 0 0 0-1 1 1 1 0 0 0 1 1 1 1 0 0 0 1-1 1 1 0 0 0-1-1z"/><path style="fill:#fff" d="M10.889 9.586a.997.997 0 0 0-.67.371.997.997 0 0 0 .158 1.404l.8.639H8c-.554 0-1 .446-1 1s.446 1 1 1h1.433l-3.02 2.19a.998.998 0 0 0-.222 1.396.998.998 0 0 0 1.397.223l1.482-1.075A4 4 0 0 0 13 20a4 4 0 0 0 4-4 4 4 0 0 0-1.715-3.28 4 4 0 0 0-.027-.02l-3.633-2.901a.999.999 0 0 0-.736-.213zM12.999 14a2 2 0 0 1 2 2 2 2 0 0 1-2 2 2 2 0 0 1-2-2 2 2 0 0 1 2-2zm0 1a1 1 0 0 0-1 1 1 1 0 0 0 1 1 1 1 0 0 0 1-1 1 1 0 0 0-1-1z"/></svg>