<svg height="22" width="22" xmlns="http://www.w3.org/2000/svg"><g fill="#eeeeec"><g opacity=".3"><rect height="2" rx=".5" width="7" x="3" y="15"/><rect height="2" rx=".5" width="7" x="3" y="11"/><rect height="2" rx=".5" width="7" x="3" y="7"/><rect height="2" rx=".5" width="7" x="3" y="3"/><rect height="2" rx=".5" width="7" x="12" y="17"/><rect height="2" rx=".5" width="7" x="12" y="13"/></g><rect height="2" rx=".5" width="7" x="3" y="17"/><rect height="2" rx=".5" width="7" x="3" y="13"/><rect height="2" rx=".5" width="7" x="3" y="9"/><rect height="2" rx=".5" width="7" x="3" y="5"/><rect height="2" rx=".5" width="7" x="12" y="15"/><rect height="2" rx=".5" width="7" x="12" y="11"/><path d="m17.806 3c-.091 0-.183.0348-.254.1055l-.697.7031 1.336 1.3359.703-.6972c.141-.1414.141-.364 0-.5054l-.836-.8364c-.071-.0707-.161-.1055-.252-.1055zm-1.481 1.3389-3.325 3.3252v1.3359h1.336l3.325-3.3252z"/></g></svg>