<svg height="22" width="22" xmlns="http://www.w3.org/2000/svg"><path d="m8 2c-3.3137 0-6 2.6863-6 6 0 3.314 2.6863 6 6 6 3.314 0 6-2.686 6-6 0-3.3137-2.686-6-6-6zm0 1c1.0253.0012 2.026.3175 2.865.9062l-1.7185 2.4571c.4854.3409.7945.8796.8437 1.4707l3.0098-.2714v.4374c0 2.761-2.239 5-5 5v-3c-.5304-.0001-1.0391-.2108-1.4141-.5859l-2.1191 2.1189c-.9379-.937-1.4655-2.2075-1.4668-3.533.0003-1.1752.4145-2.3127 1.1699-3.2129l2.2989 1.9277c.3796-.4528.9403-.7144 1.5312-.7148z" fill="#eeeeec" transform="translate(3 3)"/></svg>