<svg xmlns="http://www.w3.org/2000/svg" width="32" height="32"><path style="opacity:.2" d="M6.375 3C5.613 3 5 3.624 5 4.4v25.2c0 .775.613 1.4 1.375 1.4h19.25c.761 0 1.375-.625 1.375-1.4V12l-7-2-2-7z"/><path style="fill:#8561c1" d="M6.375 2C5.613 2 5 2.624 5 3.4v25.2c0 .775.613 1.4 1.375 1.4h19.25c.761 0 1.375-.625 1.375-1.4V11l-7-2-2-7z"/><path style="opacity:.2" d="m27 12-9-9v7.594c0 .78.628 1.406 1.406 1.406z"/><path style="fill:#ad81f2" d="m27 11-9-9v7.594c0 .78.628 1.406 1.406 1.406z"/><path style="opacity:.2;fill:#fff" d="M6.375 2C5.613 2 5 2.625 5 3.4v1C5 3.625 5.613 3 6.375 3H18V2z"/><path style="opacity:.2" d="m15 17-5 4.5 5 4.5v-2l-2.5-2.5L15 19zm2.666 0c-.368 0-.666.478-.666.846v1.332c-.013.9 1.513.9 1.5 0V18.5h1v2.32l-1.65 1.137c-.18.119-.343.318-.35.533v.834c-.013.902 1.513.902 1.5 0v-.476l1.703-1.137a.667.667 0 0 0 .297-.533v-3.332c0-.368-.298-.846-.666-.846zm.584 7.5a.75.75 0 0 0-.75.75.75.75 0 0 0 .75.75.75.75 0 0 0 .75-.75.75.75 0 0 0-.75-.75z"/><path style="fill:#fff" d="m15 16-5 4.5 5 4.5v-2l-2.5-2.5L15 18zm2.666 0c-.368 0-.666.478-.666.846v1.332c-.013.9 1.513.9 1.5 0V17.5h1v2.32l-1.65 1.137c-.18.119-.343.318-.35.533v.834c-.013.902 1.513.902 1.5 0v-.476l1.703-1.137a.667.667 0 0 0 .297-.533v-3.332c0-.368-.298-.846-.666-.846zm.584 7.5a.75.75 0 0 0-.75.75.75.75 0 0 0 .75.75.75.75 0 0 0 .75-.75.75.75 0 0 0-.75-.75z"/></svg>