<svg xmlns="http://www.w3.org/2000/svg" width="32" height="32"><path style="opacity:.2" d="M6.375 3C5.613 3 5 3.624 5 4.4v25.2c0 .775.613 1.4 1.375 1.4h19.25c.761 0 1.375-.625 1.375-1.4V12l-7-2-2-7z"/><path style="fill:#b1b527" d="M6.375 2C5.613 2 5 2.624 5 3.4v25.2c0 .775.613 1.4 1.375 1.4h19.25c.761 0 1.375-.625 1.375-1.4V11l-7-2-2-7z"/><path style="opacity:.2" d="m27 12-9-9v7.594c0 .78.628 1.406 1.406 1.406z"/><path style="fill:#c8cb7c" d="m27 11-9-9v7.594c0 .78.628 1.406 1.406 1.406z"/><path style="opacity:.2;fill:#fff" d="M6.375 2C5.613 2 5 2.625 5 3.4v1C5 3.625 5.613 3 6.375 3H18V2z"/><path style="opacity:.2" d="M13 15v7h-.5a2.5 2.5 0 1 0 2.498 2.546l.002-.004V18h5v4h-.5a2.5 2.5 0 0 0 0 5 2.5 2.5 0 0 0 2.494-2.375l.006-.012V15h-9z"/><path style="fill:#fff" d="M13 14v7h-.5a2.5 2.5 0 1 0 2.498 2.546l.002-.004V17h5v4h-.5a2.5 2.5 0 0 0 0 5 2.5 2.5 0 0 0 2.494-2.375l.006-.012V14h-9z"/></svg>