<svg xmlns="http://www.w3.org/2000/svg" width="32" height="32"><path style="opacity:.2" d="M6.438 2A1.44 1.44 0 0 0 5 3.45v26.1c0 .803.641 1.45 1.438 1.45h20.125A1.44 1.44 0 0 0 28 29.55V11l-7.188-1.75L19 2z"/><path style="fill:#794ec6" d="M6.438 1A1.44 1.44 0 0 0 5 2.45v26.1c0 .803.641 1.45 1.438 1.45h20.125A1.44 1.44 0 0 0 28 28.55V10l-7.188-1.75L19 1z"/><path style="opacity:.2" d="M16.5 12a2.5 2.5 0 1 0 0 5 2.5 2.5 0 0 0 0-5zM11 13v1H8v1h3v1l2-1.5zm9 1v1h3v1h-1l1.5 2 1.5-2h-1v-2h-1zm3.5 5a2.5 2.5 0 1 0 0 5 2.5 2.5 0 0 0 0-5zm-7 5a2.5 2.5 0 1 0 0 5 2.5 2.5 0 0 0 0-5zm6.5 1v2h-2v-1l-2 1.5 2 1.5v-1h3v-3zm-13 1-2 1.5 2 1.5v-1h3v-1h-3zM28 11l-9-9v7.5c0 .831.669 1.5 1.5 1.5z"/><path style="fill:#926fd2" d="m28 10-9-9v7.5c0 .831.669 1.5 1.5 1.5z"/><path style="fill:#fff" d="M16.5 11a2.5 2.5 0 1 0 0 5 2.5 2.5 0 0 0 0-5zM11 12v1H8v1h3v1l2-1.5-2-1.5zm9 1v1h3v1h-1l1.5 2 1.5-2h-1v-2h-4zm3.5 5a2.5 2.5 0 1 0 0 5 2.5 2.5 0 0 0 0-5zm-7 5a2.5 2.5 0 1 0 0 5 2.5 2.5 0 0 0 0-5zm6.5 1v2h-2v-1l-2 1.5 2 1.5v-1h3v-3h-1zm-13 1-2 1.5 2 1.5v-1h3v-1h-3v-1z"/><path style="fill:#fff;opacity:.2" d="M6.438 1A1.44 1.44 0 0 0 5 2.45v1C5 2.645 5.641 2 6.438 2H19V1z"/></svg>