<svg xmlns="http://www.w3.org/2000/svg" width="32" height="32"><path style="opacity:.2" d="M6.375 3C5.613 3 5 3.624 5 4.4v25.2c0 .775.613 1.4 1.375 1.4h19.25c.761 0 1.375-.625 1.375-1.4V12l-7-2-2-7z"/><path style="fill:#2095f2" d="M6.375 2C5.613 2 5 2.624 5 3.4v25.2c0 .775.613 1.4 1.375 1.4h19.25c.761 0 1.375-.625 1.375-1.4V11l-7-2-2-7z"/><path style="opacity:.2" d="m27 12-9-9v7.594c0 .78.628 1.406 1.406 1.406z"/><path style="fill:#7cc0f5" d="m27 11-9-9v7.594c0 .78.628 1.406 1.406 1.406z"/><path style="opacity:.2;fill:#fff" d="M6.375 2C5.613 2 5 2.625 5 3.4v1C5 3.625 5.613 3 6.375 3H18V2z"/><path style="opacity:.2" d="M16 14a7 7 0 1 0 0 14 7 7 0 0 0 0-14zm-.701 1.338c.081-.009.185.005.267 0 .01.039-.059.177-.152.38-.593 1.296-.626 2.813-.076 3.624.1.147.19.286.19.304 0 .019-.108.038-.23.038-.284 0-.554-.174-1.105-.61-.244-.194-.562-.356-.685-.38-.194-.04-.246-.023-.496.228-.233.233-.305.359-.305.572 0 .809.96 1.45 2.744 1.828 2.424.514 3.021.976 3.088 2.25.084 1.598-.767 2.804-2.63 3.737-.223.111-.365.153-.458.189-.041-.004-.072.004-.113 0a1.337 1.337 0 0 1-.04-.38c0-.85-.333-1.723-.837-2.212-.135-.13-.515-.408-.84-.61-.324-.2-.652-.433-.725-.532-.12-.166-.13-.267-.037-.573.17-.557.37-.868.762-1.22.205-.185.412-.338.457-.342.046-.004-.26-.097-.723-.192a13.022 13.022 0 0 1-1.488-.42c-.639-.23-1.5-.715-1.828-1.066L10 19.912a6.13 6.13 0 0 1 3.545-4.154 5.99 5.99 0 0 1 1.144-.344c.2-.04.405-.055.61-.076zm5.719 2.86c.143.088.683 1.258.837 1.83.2.736.185 2.011 0 2.743-.07.28-.159.54-.189.573-.03.032-.14-.154-.268-.381s-.537-.71-.877-1.068c-.98-1.036-1.135-1.575-.724-2.4.207-.417 1.11-1.366 1.22-1.298z"/><path style="fill:#fff" d="M16 13a7 7 0 1 0 0 14 7 7 0 0 0 0-14zm-.701 1.338c.081-.009.185.005.267 0 .01.039-.059.177-.152.38-.593 1.296-.626 2.813-.076 3.624.1.147.19.286.19.304 0 .019-.108.038-.23.038-.284 0-.554-.174-1.105-.61-.244-.194-.562-.356-.685-.38-.194-.04-.246-.023-.496.228-.233.233-.305.359-.305.572 0 .809.96 1.45 2.744 1.828 2.424.514 3.021.976 3.088 2.25.084 1.598-.767 2.804-2.63 3.737-.223.111-.365.153-.458.189-.041-.004-.072.004-.113 0a1.337 1.337 0 0 1-.04-.38c0-.85-.333-1.723-.837-2.212-.135-.13-.515-.408-.84-.61-.324-.2-.652-.433-.725-.532-.12-.166-.13-.267-.037-.573.17-.557.37-.868.762-1.22.205-.185.412-.338.457-.342.046-.004-.26-.097-.723-.192a13.022 13.022 0 0 1-1.488-.42c-.639-.23-1.5-.715-1.828-1.066L10 18.912a6.13 6.13 0 0 1 3.545-4.154 5.99 5.99 0 0 1 1.144-.344c.2-.04.405-.055.61-.076zm5.719 2.86c.143.088.683 1.258.837 1.83.2.736.185 2.011 0 2.743-.07.28-.159.54-.189.573-.03.032-.14-.154-.268-.381s-.537-.71-.877-1.068c-.98-1.036-1.135-1.575-.724-2.4.207-.417 1.11-1.366 1.22-1.298z"/></svg>