<svg xmlns="http://www.w3.org/2000/svg" width="32" height="32"><path style="opacity:.2" d="M6.375 3C5.613 3 5 3.624 5 4.4v25.2c0 .775.613 1.4 1.375 1.4h19.25c.761 0 1.375-.625 1.375-1.4V12l-7-2-2-7z"/><path style="fill:#e4e4e4" d="M6.375 2C5.613 2 5 2.624 5 3.4v25.2c0 .775.613 1.4 1.375 1.4h19.25c.761 0 1.375-.625 1.375-1.4V11l-7-2-2-7z"/><path style="opacity:.2" d="m27 12-9-9v7.594c0 .78.628 1.406 1.406 1.406z"/><path style="fill:#fafafa" d="m27 11-9-9v7.594c0 .78.628 1.406 1.406 1.406z"/><path style="opacity:.2;fill:#fff" d="M6.375 2C5.613 2 5 2.625 5 3.4v1C5 3.625 5.613 3 6.375 3H18V2z"/><path style="fill:#3084e0" d="M16.176 14c-1.778 0-3.116 1.023-3.176 2.291V17h-1.709C10.021 17 9 18.498 9 20.275v1.516C9 23.569 10.022 25 11.291 25H13v-1.834C13 22.15 13.783 21 14.799 21h3.367S20 21.035 20 19.201v-2.91C20 15.021 18.569 14 16.791 14h-.615zM14.5 16a.5.5 0 1 1 0 1 .5.5 0 0 1 0-1z"/><path style="fill:#ffa923" d="M16.824 28c1.778 0 3.116-1.023 3.176-2.291V25h1.709C22.979 25 24 23.502 24 21.725v-1.516C24 18.431 22.978 17 21.709 17H20v1.834C20 19.85 19.217 21 18.201 21h-3.367S13 20.965 13 22.799v2.91C13 26.979 14.431 28 16.209 28zm1.676-2a.5.5 0 1 1 0-1 .5.5 0 0 1 0 1z"/></svg>