<svg height="16" width="16" xmlns="http://www.w3.org/2000/svg"><g fill="#bebebe"><path d="m3.834 6.025c-.46 0-.834.391-.834.875 0 .032.003.065.006.097.052 2.079 1.744 3.878 3.994 4.276v.727h-2c-.554 0-1 .446-1 1s.446 1 1 1h6c.554 0 1-.446 1-1s-.446-1-1-1h-2v-.727c2.253-.399 3.949-2.203 3.996-4.285a.92.92 0 0 0 .004-.088c0-.484-.374-.875-.834-.875s-.832.391-.832.875h-.014c-.07 1.809-1.175 2.725-3.32 2.725s-3.25-.916-3.32-2.725h-.014c0-.484-.372-.875-.832-.875z"/><path d="m8 1c-1.662 0-3 1.487-3 3.334v1.332c0 1.847 1.338 3.334 3 3.334s3-1.487 3-3.334v-1.332c0-1.847-1.338-3.334-3-3.334zm-2 2.5h1v3h-1zm3 0h1v3h-1z" opacity=".3"/></g></svg>