<svg height="16" width="16" xmlns="http://www.w3.org/2000/svg">
    <g fill="#bebebe">
        <path d="M8 1a7 7 0 0 0-7 7 7 7 0 0 0 7 7 7 7 0 0 0 7-7 7 7 0 0 0-7-7zm0 2a5 5 0 0 1 5 5 5 5 0 0 1-5 5 5 5 0 0 1-5-5 5 5 0 0 1 5-5z" opacity=".3"/>
        <path d="M10.004 1c-.017.096-.029.145-.05.244a5.071 5.071 0 0 1-.103.409c.141.779.144 1.581.067 2.365a6.646 6.646 0 0 1-.076.535c-.017.04.336.033.336.033a5.51 5.51 0 0 0 .054-.552c.047-1.016.042-2.039-.228-3.034zm-.18 3.594c-.343.297-.69.61-.947.968-.62.863-1.016 1.953-1.817 2.699a6.503 6.503 0 0 1-1.095.796c.205.03.432.05.638.009-.414.254-.877.496-1.215.836-.167.166-.34.336-.503.509.131-.078.285-.168.443-.17.262-.003.765-.285.765-.285s-.946.592-1.334.96c-.221.208-.47.407-.66.645-.17.215.026.21.026.21.32-.114.443-.232.778-.302-.135.047-.2.07-.336.114-.296.115-.436.2-.69.344-.456.26-.91.925-1.226 1.364-.17.231-.448.428-.586.666-.079.137-.071.28-.052.317.14.25.837.46 1.22.552.46.107.944.156 1.418.174.281-.057.572-.17.779-.362.28-.261.687-.514.849-.852a.926.926 0 0 1 .24-.305"/>
    </g>
</svg>
