<svg height="16" width="16" xmlns="http://www.w3.org/2000/svg"><path d="m.8 1c-.442 0-.8.362-.8.813v10.374c0 .451.397.63.8.813h2.2v1.187c0 .451.372.813.834.813h8.332a.822.822 0 0 0 .834-.813v-1.187h2.199a.805.805 0 0 0 .801-.813v-10.374a.806.806 0 0 0 -.801-.813zm.2 1h14v10h-14zm6 1a1 1 0 1 0 0 2 1 1 0 0 0 0-2zm5 0a2 2 0 1 0 0 4 2 2 0 0 0 0-4zm-8.5 3a1.5 1.5 0 1 0 0 3 1.5 1.5 0 0 0 0-3zm8.965 2.4a.5.5 0 1 0 .07.998.5.5 0 0 0 -.07-.998zm-3.465.6a1 1 0 1 0 0 2 1 1 0 0 0 0-2z" fill="#bebebe"/></svg>