<svg xmlns="http://www.w3.org/2000/svg" width="16" height="16"><defs><style id="current-color-scheme" type="text/css"></style></defs><path style="fill:currentColor;color:#323a41" d="M1.975 3C1.436 3 1 3.405 1 3.904v7.192c0 .499.436.904.975.904h13.05c.539 0 .975-.405.975-.904V3.904c0-.499-.436-.904-.975-.904zm1.261 2a.264.264 0 0 1 .028 0 .26.26 0 0 1 .117.033l3.992 2.252a.246.246 0 0 1 0 .43L3.381 9.967C3.21 10.06 3 9.942 3 9.752V5.248c0-.13.103-.239.236-.248zm6.237 0h2.055a.49.49 0 0 1 .472.5.49.49 0 0 1-.472.5H9.473A.49.49 0 0 1 9 5.5c0-.133.05-.26.139-.354A.454.454 0 0 1 9.473 5zm-.075 2h4.204c.355-.002.534.538.283.854a.364.364 0 0 1-.283.146H9.398c-.22-.001-.397-.224-.398-.5 0-.276.179-.499.398-.5zm.036 2h4.203c.353 0 .532.536.283.852a.364.364 0 0 1-.283.148H9.434c-.22-.001-.398-.224-.399-.5.001-.276.179-.499.399-.5z"/></svg>