<svg height="16" width="16" xmlns="http://www.w3.org/2000/svg"><path d="m5 1a2 2 0 0 0 -2 2 2 2 0 0 0 2 2 2 2 0 0 0 2-2 2 2 0 0 0 -2-2zm2.23 0a3 3 0 0 1 .77 2 3 3 0 0 1 -3 3 3 3 0 0 1 -2-.768v7.768c0 1.108.892 2 2 2s2-.892 2-2v-.875l-1.244-2.156c-.797-1.38-.18-3.13 1.197-3.926a3.146 3.146 0 0 1 1.66-.42c.941.027 1.84.483 2.338 1.346l.621 1.074a3.969 3.969 0 0 0 1.428-3.043c0-2.216-1.784-4-4-4zm1.346 5.617a2.153 2.153 0 0 0 -1.123.293c-.96.554-1.33 1.697-.832 2.56l2.701 4.676c.499.864 1.672 1.113 2.631.56.96-.555 1.33-1.696.832-2.56l-2.7-4.675c-.31-.54-.887-.84-1.509-.854z" fill="#bebebe"/></svg>