<svg xmlns="http://www.w3.org/2000/svg" width="16" height="16"><defs><style id="current-color-scheme" type="text/css"></style></defs><path style="fill:currentColor;color:#323a41" d="M12.262 0A.265.265 0 0 0 12 .264V1H4s-.709-.014-1.447.355C1.814 1.725 1 2.667 1 4v8h2V4c0-.667.186-.725.447-.855C3.71 3.014 4 3 4 3h10.736a.265.265 0 0 0 .186-.451l-2.47-2.47a.265.265 0 0 0-.19-.079zM13 4v8c0 .667-.186.725-.447.855C12.29 12.986 12 13 12 13H1.264a.265.265 0 0 0-.186.451l2.47 2.47a.265.265 0 0 0 .19.079.265.265 0 0 0 .262-.266V15h8s.709.014 1.447-.355C14.186 14.275 15 13.333 15 12V4zM6 6c-.554 0-1 .446-1 1v1c0 .554.446 1 1 1s1-.446 1-1V7c0-.554-.446-1-1-1zm4 0c-.554 0-1 .446-1 1v1c0 .554.446 1 1 1s1-.446 1-1V7c0-.554-.446-1-1-1z"/></svg>