<svg height="16" width="16" xmlns="http://www.w3.org/2000/svg"><path d="m11.5 1.938a7 7 0 0 0 -9.562 2.562 7 7 0 0 0 2.562 9.562 7 7 0 0 0 9.562-2.562 7 7 0 0 0 -2.562-9.562zm-1 1.732a5 5 0 0 1 2.222 5.967 1.5 1.5 0 0 1 .224 1.796 1.5 1.5 0 0 1 -1.98.585 5 5 0 0 1 -3.528.948 1.5 1.5 0 0 1 -2.005.48 1.5 1.5 0 0 1 -.703-1.669 5 5 0 0 1 -1.06-6.277 5 5 0 0 1 .045-.073 1.5 1.5 0 0 1 -.161-1.727 1.5 1.5 0 0 1 2.049-.55 1.5 1.5 0 0 1 .358.291 5 5 0 0 1 4.539.228zm-.5.866a4 4 0 0 0 -3.65-.175 1.5 1.5 0 0 1 -.198.84 1.5 1.5 0 0 1 -.034.05l1.583 2.013a1.5 1.5 0 0 1 1.232.12 1.5 1.5 0 0 1 .723 1.572l1.018.588a1.5 1.5 0 0 1 1.138-.35 4 4 0 0 0 -1.812-4.657zm-4.667 1.333a1.5 1.5 0 0 1 -.749.055 4 4 0 0 0 -.048.076 4 4 0 0 0 .758 4.941 1.5 1.5 0 0 1 1.162-.267l.588-1.018a1.5 1.5 0 0 1 -.16-1.723 1.5 1.5 0 0 1 .034-.05zm3.823 3.953a1.5 1.5 0 0 1 -1.246.334l-.588 1.018a1.5 1.5 0 0 1 .348.808 4 4 0 0 0 2.604-.698 1.5 1.5 0 0 1 -.1-.874z" fill="#bebebe"/></svg>