<svg height="16" width="16" xmlns="http://www.w3.org/2000/svg">
    <path d="M5.615 2c-.867 0-1.235.013-1.517.5L.012 7.775A2.975 2.975 0 0 1 2 7h12c.763 0 1.456.299 1.988.775L11.902 2.5c-.282-.487-.65-.5-1.517-.5zM2 8c-1.108 0-2 .892-2 2v2c0 1.108.892 2 2 2h12c1.108 0 2-.892 2-2v-2c0-1.108-.892-2-2-2zm8 1a2 2 0 0 1 1.5.68 2 2 0 1 1 0 2.64A2 2 0 1 1 10 9zm0 1a1 1 0 0 0-1 1 1 1 0 0 0 1 1 1 1 0 0 0 1-1 1 1 0 0 0-1-1zm3 0a1 1 0 0 0-1 1 1 1 0 0 0 1 1 1 1 0 0 0 1-1 1 1 0 0 0-1-1z" fill="#f4f4f7"/>
</svg>
