<svg height="16" width="16" xmlns="http://www.w3.org/2000/svg"><path d="m8 .004c-2.071 0-3.835 1.268-4.594 3.063a3.981 3.981 0 0 0 -3.406 3.936 3.982 3.982 0 0 0 3.188 3.906c.764-.778 1.52-1.561 2.312-2.312a71.041 71.041 0 0 1 1.688 1.656c.242-.069.382-.846.718-1.094.855-.868 1.709-1.725 2.594-2.562.666.624 1.291 1.261 1.938 1.906.597.571 1.227 1.204 1.437 2.031.016.051.018.105.031.156a3.468 3.468 0 0 0 2.094-3.186 3.49 3.49 0 0 0 -3.094-3.469 5.01 5.01 0 0 0 -4.906-4.031zm2.5 7.996-.344.344-1.406 1.406c-.453.453-.75 1.063-.75 1.75 0 1.375 1.125 2.5 2.5 2.5s2.5-1.125 2.5-2.5c0-.687-.297-1.297-.75-1.75l-1.406-1.406zm-5 2-.344.344-1.406 1.406c-.453.453-.75 1.063-.75 1.75 0 1.375 1.125 2.5 2.5 2.5s2.5-1.125 2.5-2.5c0-.687-.297-1.297-.75-1.75l-1.406-1.406z" fill="#8b9cbe"/></svg>