<svg height="16" width="16" xmlns="http://www.w3.org/2000/svg"><path d="m8 0c-2.071 0-3.835 1.268-4.594 3.063a3.981 3.981 0 0 0 -3.406 3.937 4 4 0 0 0 4 4h1.186c.416-1.158 1.52-2 2.814-2s2.398.842 2.814 2h1.686a3.5 3.5 0 0 0 3.5-3.5 3.49 3.49 0 0 0 -3.094-3.469 5.01 5.01 0 0 0 -4.906-4.031zm0 10a2 2 0 0 0 -2 2 2 2 0 0 0 2 2 2 2 0 0 0 2-2 2 2 0 0 0 -2-2zm-5 2a2 2 0 0 0 -2 2 2 2 0 0 0 2 2 2 2 0 0 0 2-2 2 2 0 0 0 -2-2zm10 0a2 2 0 0 0 -2 2 2 2 0 0 0 2 2 2 2 0 0 0 2-2 2 2 0 0 0 -2-2z" fill="#8b9cbe"/></svg>