<svg height="16" width="16" xmlns="http://www.w3.org/2000/svg">
    <g fill="#f4f4f7">
        <path d="M7.693 1.002c-1.867.03-3.341.719-4.709 2.076C1.506 4.545.974 5.892.98 8.148c.003.9.093 1.606.264 2.215l.73-1.412a1 1 0 0 0 .003-.002A1.74 1.74 0 0 1 3.56 8a1 1 0 0 1 .023.002c.63.032 1.17.422 1.441.95l1.381 2.677 1.385 2.68a1 1 0 0 0 0 .002c.11.214.16.442.182.671.148 0 .249.014.44.006 1.979-.082 3.32-.638 4.585-1.898 1.275-1.27 1.912-2.797 2.035-4.88.222-3.726-1.77-6.35-5.33-7.02a9.978 9.978 0 0 0-2.01-.188zM6.535 3c.266 0 .742.567 1.098 1.307.388.806.384 1.05-.018 1.314-.531.35-.969.823-.969 1.047 0 .116.336.562.747.992.67.703.78.89 1.086 1.86.19.605.431 1.135.548 1.209.165.103.371.042.983-.295l.246-.137c.485-.268.538-.365.871.137.19.234.484.72.654 1.08.369.78.305.958-.449 1.26-1.681.672-2.635-.05-4.627-3.499-1.67-2.89-1.993-3.987-1.484-5.021C5.487 3.714 6.235 3 6.535 3z" opacity=".3"/>
        <path d="M3.534 9a.735.822 0 0 0-.073.002.735.822 0 0 0-.597.408l-1.385 2.678-1.381 2.68A.735.822 0 0 0 .735 16h5.531a.735.822 0 0 0 .637-1.232l-1.385-2.68L4.137 9.41A.735.822 0 0 0 3.534 9zM3 10h1v3H3zm0 4h1v1H3z"/>
    </g>
</svg>
