<svg xmlns="http://www.w3.org/2000/svg" width="22" height="22"><defs><linearGradient id="b" x1="1" x2="8" y1="8" y2="1" gradientUnits="userSpaceOnUse"><stop offset="0" stop-color="#e81877"/><stop offset=".313" stop-color="#dd1d8c"/><stop offset=".563" stop-color="#6d57b1"/><stop offset=".75" stop-color="#2a78c1"/><stop offset="1" stop-color="#018dcb"/></linearGradient><linearGradient id="d" x1="1" x2="8" y1="8" y2="15" gradientUnits="userSpaceOnUse"><stop offset="0" stop-color="#e51561"/><stop offset=".313" stop-color="#e4156c"/><stop offset=".563" stop-color="#e71e2c"/><stop offset=".75" stop-color="#e8301e"/><stop offset="1" stop-color="#e6320e"/></linearGradient><linearGradient id="a" x1="15" x2="8" y1="8" y2="1" gradientUnits="userSpaceOnUse"><stop offset="0" stop-color="#bec900"/><stop offset=".313" stop-color="#9ec80a"/><stop offset=".563" stop-color="#71b93d"/><stop offset=".75" stop-color="#35a48f"/><stop offset="1" stop-color="#018fca"/></linearGradient><linearGradient id="c" x1="15" x2="8" y1="8" y2="15" gradientUnits="userSpaceOnUse"><stop offset="0" stop-color="#c1cc00"/><stop offset=".313" stop-color="#dfcd00"/><stop offset=".563" stop-color="#f0cc00"/><stop offset=".75" stop-color="#fd8c08"/><stop offset="1" stop-color="#f25c13"/></linearGradient></defs><path style="fill:url(#a)" d="M8 1v7h7a7 7 0 0 0-7-7z" transform="rotate(15 -1.894 20.894)"/><path style="fill:url(#b)" d="M8 1a7 7 0 0 0-7 7h7z" transform="rotate(15 -1.894 20.894)"/><path style="fill:url(#c)" d="M8 8v7a7 7 0 0 0 7-7z" transform="rotate(15 -1.894 20.894)"/><path style="fill:url(#d)" d="M1 8a7 7 0 0 0 7 7V8z" transform="rotate(15 -1.894 20.894)"/><g style="opacity:.7"><path style="fill:url(#a)" d="M8 1v7h7a7 7 0 0 0-7-7z" transform="translate(3 3)"/><path style="fill:url(#b)" d="M8 1a7 7 0 0 0-7 7h7z" transform="translate(3 3)"/><path style="fill:url(#c)" d="M8 8v7a7 7 0 0 0 7-7z" transform="translate(3 3)"/><path style="fill:url(#d)" d="M1 8a7 7 0 0 0 7 7V8z" transform="translate(3 3)"/></g><g style="opacity:.35"><path style="fill:url(#a)" d="M8 1v7h7a7 7 0 0 0-7-7z" transform="rotate(45 5.879 13.121)"/><path style="fill:url(#b)" d="M8 1a7 7 0 0 0-7 7h7z" transform="rotate(45 5.879 13.121)"/><path style="fill:url(#c)" d="M8 8v7a7 7 0 0 0 7-7z" transform="rotate(45 5.879 13.121)"/><path style="fill:url(#d)" d="M1 8a7 7 0 0 0 7 7V8z" transform="rotate(45 5.879 13.121)"/></g><g style="opacity:.3"><path style="fill:url(#a)" d="M8 1v7h7a7 7 0 0 0-7-7z" transform="rotate(60 6.902 12.098)"/><path style="fill:url(#b)" d="M8 1a7 7 0 0 0-7 7h7z" transform="rotate(60 6.902 12.098)"/><path style="fill:url(#c)" d="M8 8v7a7 7 0 0 0 7-7z" transform="rotate(60 6.902 12.098)"/><path style="fill:url(#d)" d="M1 8a7 7 0 0 0 7 7V8z" transform="rotate(60 6.902 12.098)"/></g></svg>