<svg xmlns="http://www.w3.org/2000/svg" width="22" height="22"><defs><style id="current-color-scheme" type="text/css"></style></defs><path style="fill:currentColor;color:#323a41" transform="translate(3 3)" d="M1 2v13h13v-2h-1V8H9v5H8V7H7v6H5V7H4v6H3V2zm3 0v1h1v3h1V2H5zm4.5 0C7.669 2 7 2.669 7 3.5v1C7 5.331 7.669 6 8.5 6S10 5.331 10 4.5v-1C10 2.669 9.331 2 8.5 2zm4 0c-.831 0-1.5.669-1.5 1.5v1c0 .831.669 1.5 1.5 1.5S14 5.331 14 4.5v-1c0-.831-.669-1.5-1.5-1.5zm-4 1c.277 0 .5.223.5.5v1a.499.499 0 1 1-1 0v-1c0-.277.223-.5.5-.5zm4 0c.277 0 .5.223.5.5v1a.499.499 0 1 1-1 0v-1c0-.277.223-.5.5-.5zM10 9h2v4h-2z"/></svg>