<svg xmlns="http://www.w3.org/2000/svg" width="22" height="22"><defs><style id="current-color-scheme" type="text/css">.ColorScheme-Text{color:#323a41}</style></defs><path style="fill:currentColor" class="ColorScheme-Text" d="M14 2C8.5 2 2 7.5 2 14v1h1v-1C3 8 9 3 14 3h1V2zM6.373 6.32l-.707.706c1.451 1.451 2.262 3.142 2.486 4.378.225 1.236-.089 2.285-.986 3.182l.707.707c1.103-1.103 1.539-2.552 1.264-4.066-.276-1.514-1.215-3.358-2.764-4.908zm1-1.234-.707.707c1.55 1.55 3.125 2.488 4.639 2.764 1.514.275 2.965-.16 4.068-1.264l-.707-.707c-.897.897-1.946 1.211-3.182.986-1.236-.224-2.66-1.035-4.111-2.486z" transform="translate(3 3)"/><path style="fill:currentColor" class="ColorScheme-Text" d="M4 14.5A1.5 1.5 0 0 1 2.5 16 1.5 1.5 0 0 1 1 14.5 1.5 1.5 0 0 1 2.5 13 1.5 1.5 0 0 1 4 14.5zm12-12A1.5 1.5 0 0 1 14.5 4 1.5 1.5 0 0 1 13 2.5 1.5 1.5 0 0 1 14.5 1 1.5 1.5 0 0 1 16 2.5z" transform="translate(3 3)"/></svg>