<svg xmlns="http://www.w3.org/2000/svg" width="22" height="22"><defs><style id="current-color-scheme" type="text/css"></style></defs><path style="fill:currentColor;color:#323a41" d="M7 1v1.086a6 6 0 0 0-2.47 1.03l-.772-.772-1.414 1.414.77.77A6 6 0 0 0 2.09 7H1v2h1.086a6 6 0 0 0 1.03 2.47l-.772.772 1.414 1.414.77-.77A6 6 0 0 0 7 13.91V15h2v-1.086a6 6 0 0 0 2.47-1.03l.772.772 1.414-1.414-.77-.77A6 6 0 0 0 13.91 9H15V7h-1.086a6 6 0 0 0-1.03-2.47l.772-.772-1.414-1.414-.77.77A6 6 0 0 0 9 2.09V1H7zM6 6l4 2-4 2V6z" transform="translate(3 3)"/></svg>