<svg xmlns="http://www.w3.org/2000/svg" width="22" height="22"><defs><style id="current-color-scheme" type="text/css">.ColorScheme-Text{color:#323a41}</style></defs><path style="fill:currentColor" class="ColorScheme-Text" d="m7 10-4 3.24L7 17v-2.02h2.063c.977 0 1.84.629 2.103 1.44.313.97-1.03 2.58-1.03 2.58S13 18.12 13 15.78C13 13.531 11.568 12 9.42 12H7zM15 12l4-3.24L15 5v2.02h-2.063c-.977 0-1.84-.629-2.103-1.44-.313-.97 1.03-2.58 1.03-2.58S9 3.88 9 6.22C9 8.469 10.432 10 12.58 10H15zM16.5 14a2.5 2.5 0 0 0-2.5 2.5 2.5 2.5 0 0 0 2.5 2.5 2.5 2.5 0 0 0 1.377-.416L19.293 20H20v-.707l-1.416-1.416A2.5 2.5 0 0 0 19 16.5a2.5 2.5 0 0 0-2.5-2.5zm0 1a1.5 1.5 0 0 1 1.5 1.5 1.5 1.5 0 0 1-1.5 1.5 1.5 1.5 0 0 1-1.5-1.5 1.5 1.5 0 0 1 1.5-1.5z"/></svg>