<svg viewBox="0 0 22 22" xmlns="http://www.w3.org/2000/svg"><style></style><path d="M5 3c-.554 0-1 .446-1 1v14c0 .554.446 1 1 1h8v-5c0-.247.073-.46.174-.646A4 4 0 0 1 11 14H7v-4a4 4 0 0 1 4-4 4 4 0 0 1 3.09 6.533c.151-.073.307-.134.472-.19C15.25 12.116 16.082 12 17 12c.352 0 .677.033 1 .066V4c0-.554-.446-1-1-1H5zm6 5a2 2 0 0 0 0 4 2 2 0 0 0 0-4z" color="#d3dae3" fill="currentColor"/><path d="M17 13a3 1 0 0 0-3 1v5a3 1 0 0 0 3 1 3 1 0 0 0 3-1v-5a3 1 0 0 0-3-1zm0 1a3 1 0 0 1 2 .258v.486A3 1 0 0 1 17 15a3 1 0 0 1-2-.258v-.486A3 1 0 0 1 17 14zm-2 1.744A3 1 0 0 0 17 16a3 1 0 0 0 2-.256v1A3 1 0 0 1 17 17a3 1 0 0 1-2-.258zm0 2A3 1 0 0 0 17 18a3 1 0 0 0 2-.256v1A3 1 0 0 1 17 19a3 1 0 0 1-2-.258z" color="#232629" fill="#d3dae3"/></svg>