<svg xmlns="http://www.w3.org/2000/svg" width="22" height="22"><defs><style id="current-color-scheme" type="text/css"></style></defs><g style="fill:currentColor;color:#d3dae3"><path d="M13.5 6c-.277 0-.5.222-.5.5v11a.5.5 0 0 0 .5.5h1a.5.5 0 0 0 .5-.5v-11c0-.278-.223-.5-.5-.5h-1zm-3 3c-.277 0-.5.222-.5.5v8a.5.5 0 0 0 .5.5h1a.5.5 0 0 0 .5-.5v-8c0-.278-.223-.5-.5-.5h-1zm-3 3c-.277 0-.5.222-.5.5v5a.5.5 0 0 0 .5.5h1a.5.5 0 0 0 .5-.5v-5c0-.278-.223-.5-.5-.5h-1zm-3 3c-.277 0-.5.222-.5.5v2a.5.5 0 0 0 .5.5h1a.5.5 0 0 0 .5-.5v-2c0-.278-.223-.5-.5-.5h-1z"/><path d="M16.5 3h1c.277 0 .5.223.5.5v14c0 .277-.223.5-.5.5h-1a.499.499 0 0 1-.5-.5v-14c0-.277.223-.5.5-.5z" opacity=".35"/></g></svg>