<svg xmlns="http://www.w3.org/2000/svg" width="22" height="22"><defs><style id="current-color-scheme" type="text/css"></style></defs><path style="fill:currentColor;color:#d3dae3" d="M4 3c-.554 0-1 .446-1 1v14c0 .554.446 1 1 1h14c.554 0 1-.446 1-1V4c0-.554-.446-1-1-1h-2v3.2c0 .442-.372.8-.834.8H6.834C6.372 7 6 6.642 6 6.2V3zm3 1v1h3V4zm5 0v1h3V4zM7 15h3c.554 0 1 .446 1 1v2h-1v-2H9v2H8v-2H7v2H6v-2c0-.554.446-1 1-1zm8 0h2c.554 0 1 .446 1 1v1c0 .554-.446 1-1 1h-2c-.554 0-1-.446-1-1v-1c0-.554.446-1 1-1zm-2.5 1a.499.499 0 1 1 0 1 .499.499 0 1 1 0-1zm2.5 0v1h2v-1z"/></svg>