<svg xmlns="http://www.w3.org/2000/svg" width="22" height="22"><defs><style id="current-color-scheme" type="text/css"></style></defs><path style="fill:currentColor;color:#8b9cbe" d="M11.091 3a8.008 8.008 0 0 0-6.19 2.821 8.008 8.008 0 0 0-.325 9.95 8.011 8.011 0 0 0 9.62 2.564 8.006 8.006 0 0 0 4.669-8.791 1 1 0 1 0-1.965.363 5.991 5.991 0 0 1-3.504 6.594 5.99 5.99 0 0 1-7.214-1.922 5.991 5.991 0 0 1 .244-7.463 5.992 5.992 0 0 1 7.326-1.447 1 1 0 1 0 .917-1.778 7.974 7.974 0 0 0-3.578-.89zm6.918 1a.998 1 0 0 0-.763.352l-6.41 7.332-2.264-1.511a.998 1 0 1 0-1.107 1.662l2.994 1.998a.998 1 0 0 0 1.304-.174l6.982-7.992A.998 1 0 0 0 18.01 4z"/></svg>