<svg xmlns="http://www.w3.org/2000/svg" width="22" height="22"><defs><style id="current-color-scheme" type="text/css"></style></defs><path style="fill:currentColor;color:#d3dae3" d="M10.545 3a1.902 1.82 0 0 0-.996.243L3.95 6.334A1.902 1.82 0 0 0 3 7.911v6.18a1.902 1.82 0 0 0 .951 1.576l5.598 3.09a1.902 1.82 0 0 0 1.902 0l5.598-3.09A1.902 1.82 0 0 0 18 14.09V7.91a1.902 1.82 0 0 0-.951-1.576L11.45 3.243A1.902 1.82 0 0 0 10.545 3zM10.5 5 16 8.04v5.92L10.5 17 5 13.96V8.04zM9.02 8C7.904 8 7 9.03 7 10.3c0 1.979 3.111 3.534 3.5 4.7.389-1.166 3.5-2.721 3.5-4.7 0-1.27-.904-2.3-2.02-2.3-.584 0-1.111.357-1.48.81-.369-.453-.896-.81-1.48-.81z"/></svg>