<svg xmlns="http://www.w3.org/2000/svg" width="22" height="22"><defs><style id="current-color-scheme" type="text/css"></style></defs><path style="fill:currentColor;color:#d3dae3" d="M9.305 4c-.231.005-.413.075-.477.074-1.477.205-.534 1.754.092 3.674.053.492-1.462.286-1.799-.228C5.986 4.773 5.684 5.08 5.367 5c-.303-.062-1.355.467-1.332 1.578.004.32.206 2.123.21 2.59-1.331 2.26-1.873 4.496-.206 6.809 1.195 1.565 4.067 2.055 5.951 2.021 4.01.002 5.959-2.177 8.256-3.955 1.755-1.435-.045-3.242-.469-3.494-3.635-2.351-6.69-1.862-6.74-2.235-.026-.43-.01-1.629-.072-2.054-.247-1.98-1.153-2.272-1.66-2.26zM16.9 4c-.744.116-1.11 4.333-.777 4.97 1.142-.717.923-3.902.777-4.97zm2.938.979c-2.358 3.1-1.8 2.52-2.389 5.007.225.308 3.276-4.64 2.389-5.007zM11 10a1 1 0 0 1 1 1 1 1 0 0 1-1 1 1 1 0 0 1-1-1 1 1 0 0 1 1-1z"/></svg>