<svg xmlns="http://www.w3.org/2000/svg" width="32" height="32" version="1"><path style="opacity:.2" d="M16 3C8.244 3 2 9.244 2 17s6.244 14 14 14 14-6.244 14-14S23.756 3 16 3z"/><path style="fill:#ffa50c" d="M16 2C8.244 2 2 8.244 2 16s6.244 14 14 14 14-6.244 14-14S23.756 2 16 2z"/><rect style="opacity:.1" width="12" height="1.5" x="10" y="22" rx=".75" ry=".75"/><rect style="fill:#3f3f3f" width="12" height="1.5" x="10" y="21" rx=".75" ry=".75"/><circle style="opacity:.1" cx="11" cy="13" r="2"/><circle style="fill:#3f3f3f" cx="11" cy="12" r="2"/><circle style="opacity:.1" cx="21" cy="13" r="2"/><circle style="fill:#3f3f3f" cx="21" cy="12" r="2"/><path style="fill:#fff;opacity:.2" d="M16 2C8.244 2 2 8.244 2 16c0 .169.02.333.025.5C2.29 8.98 8.413 3 16 3s13.71 5.98 13.975 13.5c.005-.167.025-.331.025-.5 0-7.756-6.244-14-14-14z"/></svg>