<svg height="16" width="16" xmlns="http://www.w3.org/2000/svg">
    <path d="M8 1C4.122 1 1 4.122 1 8s3.122 7 7 7 7-3.122 7-7-3.122-7-7-7z" fill="#ffa50c"/>
    <ellipse cx="12.5" cy="-9.25" fill="#ff6843" rx="1.5" ry="1.75" transform="scale(1 -1)"/>
    <path d="M7 6.012c0 .552-.448 0-1 0s-1 .552-1 0a1 1 0 0 1 2 0zm4 0c0 .552-.448 0-1 0s-1 .552-1 0a1 1 0 0 1 2 0z" fill="#17191e"/>
    <ellipse cx="3.5" cy="-9.25" fill="#ff6843" rx="1.5" ry="1.75" transform="scale(1 -1)"/>
    <path d="M6.5 11.5h3" fill="none" stroke="#17191e" stroke-linecap="round"/>
</svg>
