<svg xmlns="http://www.w3.org/2000/svg" width="16" height="16" version="1"><path style="fill:#ffa50c" d="M8 1C4.122 1 1 4.122 1 8s3.122 7 7 7 7-3.122 7-7-3.122-7-7-7z"/><path style="fill:#17191e" d="M5.16 6.687c-.42-.418.074-.68.495-1.098.42-.418.608-.833 1.03-.415.42.417.42 1.095 0 1.513a1.083 1.083 0 0 1-1.525 0z"/><path style="fill:none;stroke:#17191e;stroke-linecap:round;stroke-linejoin:round" d="M4.85 11.896s1.05-1.4 3.15-1.4c2.1 0 3.15 1.4 3.15 1.4v0"/><path style="fill:#17191e" d="M10.84 6.687c.42-.418-.074-.68-.495-1.098-.42-.418-.608-.833-1.03-.415a1.064 1.064 0 0 0 0 1.513c.422.417 1.104.417 1.525 0z"/></svg>