<svg xmlns="http://www.w3.org/2000/svg" width="48" height="48" version="1"><path style="opacity:.2" d="M2 12.452c30.107-8.58 34.764-6.538 44 22.082-23.701 9.386-33.818 8.487-39.545-2.263C4.58 28.75 4.26 23.982 3.325 18.07 2.982 15.898 2.244 14.985 2 12.452z"/><path style="fill:#fa8900" d="M2 11.452c30.107-8.58 34.764-6.538 44 22.082-23.701 9.386-33.818 8.487-39.545-2.263C4.58 27.75 4.26 22.982 3.325 17.07 2.982 14.898 2.244 13.985 2 11.452z"/><path style="opacity:.2" d="M7.008 13a1.972 1.972 0 0 0-1.344.545c-.001 0 0 .003-.002.004a2.15 2.15 0 0 0-.594 1.049c0 .003-.003.006-.004.01-.211.89.107 1.912 1.1 2.404l8.002 4.146.111-.23L31.283 29.5l5.438 2.23.013-.03 2.229 1.3L43 32.746c-1.557-1.118-2.935-2.36-5.48-2.783l.015-.033-4.75-3.31-16.924-8.99.135-.28-7.998-4.114a2.01 2.01 0 0 0-.99-.236z"/><path style="fill:#ffeb0e" d="M9.582 13.294 32.786 25.62l-1.503 2.88L8.171 16.85c-.979-.424-.977-.414-.552-1.373l.748-1.689c.367-.985.368-.945 1.215-.494zM36.641 28.845c3.135.254 4.63 1.66 6.359 2.9L38.962 32l-3.147-1.837z"/><path style="fill:#ffc30e" d="M7.009 12c-2.157.05-2.788 3.05-.845 4.012l8.002 4.145 1.83-3.807-7.998-4.114a2.005 2.005 0 0 0-.99-.235z"/><path style="opacity:.1" d="M5.664 13.546c-.3.286-.504.659-.6 1.061l8.418 4.44c.697.378 1.493-.509.508-1.11z"/><path style="fill:#ffeb0e" d="M5.664 12.546c-.3.286-.504.659-.6 1.061l8.418 4.44c.697.378 1.493-.509.508-1.11z"/><path style="opacity:.2;fill:#f4f4f7" d="M23.686 7.008C18.33 7.128 11.408 8.77 2 11.45c.034.352.078.668.129.965 29.656-8.442 34.55-6.458 43.576 21.232.102-.04.193-.072.295-.113C39.65 13.86 35.465 6.745 23.686 7.008z"/><path style="fill:#f4f4f7;opacity:.2" d="M7.008 12c-1.469.034-2.228 1.436-1.95 2.63.196-.861.886-1.605 1.95-1.63a2.01 2.01 0 0 1 .99.236l7.998 4.114-.135.28 16.516 8.772.408-.783-16.924-8.988.135-.281-7.998-4.114a2.01 2.01 0 0 0-.99-.236zM36.64 28.846l-.827 1.316.46.268.367-.584c2.368.191 3.801 1.04 5.105 1.978L43 31.746c-1.729-1.241-3.224-2.647-6.36-2.9z"/><path style="fill:#3f3f3f" d="m32.786 25.62 4.75 3.31-.815 1.8-5.438-2.23z"/></svg>