<svg xmlns="http://www.w3.org/2000/svg" width="48" height="48"><circle style="opacity:.2" cx="24" cy="25" r="20"/><circle style="fill:#b2bfd9" cx="24" cy="24" r="20"/><path style="fill:#f4f4f7;opacity:.2" d="M24 4A20 20 0 0 0 4 24a20 20 0 0 0 .021.582A20 20 0 0 1 24 5a20 20 0 0 1 19.979 19.418A20 20 0 0 0 44 24 20 20 0 0 0 24 4z"/><path style="opacity:.1" transform="rotate(30)" d="M31.82-4.65h2.919v8.369H31.82z"/><path style="opacity:.1" transform="scale(1 -1) rotate(-30)" d="M31.83-23.95h2.919v8.369H31.83z"/><path style="fill:#0d65d7" transform="rotate(30)" d="M31.32-5.51h2.919v8.369H31.32z"/><path style="opacity:.1" d="M15.925 19 10.15 29l5.774 10h11.547l5.773-10-5.773-10zm1.73 3h8.084l4.041 7-4.04 7h-8.083l-4.043-7z"/><path style="fill:#7f80a1" d="M15.925 18 10.15 28l5.774 10h11.547l5.773-10-5.773-10zm1.73 3h8.084l4.041 7-4.04 7h-8.083l-4.043-7z"/><path style="fill:#7f80a1" transform="scale(1 -1) rotate(-30)" d="M31.33-23.08h2.919v8.369H31.33z"/><path style="opacity:.1" d="m20.528 11-5.773 10 5.775 10h11.545l5.774-10-5.772-10zm1.733 3h8.082l4.043 7-4.041 7H22.26l-4.041-7z"/><path style="fill:#0d65d7" d="m20.528 10-5.773 10 5.775 10h11.545l5.774-10-5.772-10zm1.733 3h8.082l4.043 7-4.041 7H22.26l-4.041-7z"/></svg>