<svg xmlns="http://www.w3.org/2000/svg" width="48" height="48"><circle style="opacity:.2" cx="24" cy="25" r="20"/><circle style="fill:#b2bfd9" cx="24" cy="24" r="20"/><path style="opacity:.2;fill:#f4f4f7" d="M24 4A20 20 0 0 0 4 24a20 20 0 0 0 .021.582A20 20 0 0 1 24 5a20 20 0 0 1 19.979 19.418A20 20 0 0 0 44 24 20 20 0 0 0 24 4z"/><path style="opacity:.1" d="M27 16c6.627 0 12 5.373 12 12s-5.373 12-12 12h-2V16zm1 3.066V36.94A9 9 0 0 0 36 28a9 9 0 0 0-8-8.934z"/><path style="fill:#ff3c28" d="M27 15c6.627 0 12 5.373 12 12s-5.373 12-12 12h-2V15zm1 3.066V35.94A9 9 0 0 0 36 27a9 9 0 0 0-8-8.934z"/><path style="opacity:.1" d="M21 10c-6.627 0-12 5.373-12 12s5.373 12 12 12h2V10zm-1 3.066V30.94A9 9 0 0 1 12 22a9 9 0 0 1 8-8.934z"/><path style="fill:#0ab9e6" d="M21 9C14.373 9 9 14.373 9 21s5.373 12 12 12h2V9zm-1 3.066V29.94A9 9 0 0 1 12 21a9 9 0 0 1 8-8.934z"/></svg>