<svg xmlns="http://www.w3.org/2000/svg" width="48" height="48"><path style="opacity:.2" d="M27.5 5a11.493 11.493 0 0 0-10.89 7.854A5.5 5.5 0 0 0 12.5 11 5.5 5.5 0 0 0 7 16.5a5.5 5.5 0 0 0 1.639 3.91A4.5 4.5 0 0 0 6 24.5a4.5 4.5 0 0 0 .086.857l.027.12a4.5 4.5 0 0 0 .225.722c.018.045.039.087.058.131a4.5 4.5 0 0 0 .354.654c.018.028.04.053.059.08a4.5 4.5 0 0 0 .498.604l.045.041a4.5 4.5 0 0 0 .623.516l.039.023a4.5 4.5 0 0 0 .703.38l.066.028a4.5 4.5 0 0 0 .791.246c.007.002.013.005.02.006A4.5 4.5 0 0 0 10.5 29a4.5 4.5 0 0 0 1.5-.264v5.182c0 1.154.857 2.082 1.922 2.082h18.156C33.143 36 34 35.072 34 33.918V29.24a4.5 4.5 0 0 0 7-3.74 4.5 4.5 0 0 0-3.04-4.25A11.5 11.5 0 0 0 39 16.5C39 10.149 33.851 5 27.5 5z"/><path style="opacity:.2" d="M12 28c-1.662 0-3 1.338-3 3v11.875C9 44.052 9.836 45 10.875 45h26.25C38.164 45 39 44.052 39 42.875V31c0-1.662-1.338-3-3-3s-3 1.338-3 3v2c0-1.662-1.338-3-3-3s-3 1.338-3 3v1c0-1.662-1.338-3-3-3s-3 1.338-3 3v-1c0-1.662-1.338-3-3-3s-3 1.338-3 3v-2c0-1.662-1.338-3-3-3z"/><path style="fill:#e6c59a" d="M27.5 4a11.493 11.493 0 0 0-10.89 7.854A5.5 5.5 0 0 0 12.5 10 5.5 5.5 0 0 0 7 15.5a5.5 5.5 0 0 0 1.639 3.91A4.5 4.5 0 0 0 6 23.5a4.5 4.5 0 0 0 .086.857l.027.12a4.5 4.5 0 0 0 .225.722c.018.045.039.087.058.131a4.5 4.5 0 0 0 .354.654c.018.028.04.053.059.08a4.5 4.5 0 0 0 .498.604l.045.041a4.5 4.5 0 0 0 .623.516l.039.023a4.5 4.5 0 0 0 .703.38l.066.028a4.5 4.5 0 0 0 .791.246c.007.002.013.005.02.006A4.5 4.5 0 0 0 10.5 28a4.5 4.5 0 0 0 1.5-.264v5.182c0 1.154.857 2.082 1.922 2.082h18.156C33.143 35 34 34.072 34 32.918V28.24a4.5 4.5 0 0 0 7-3.74 4.5 4.5 0 0 0-3.04-4.25A11.5 11.5 0 0 0 39 15.5C39 9.149 33.851 4 27.5 4z"/><circle style="fill:#3f3f3f" cx="16" cy="20" r="3"/><circle style="fill:#3f3f3f" cx="32" cy="20" r="3"/><path style="fill:#a81a1a" d="M28 23a4 4 0 1 1-8 0z"/><circle style="fill:#f4f4f7" cx="17" cy="19" r="1"/><circle style="fill:#f4f4f7" cx="33" cy="19" r="1"/><path style="fill:#e54b3f" d="M36 27c-1.662 0-3 1.338-3 3v14h4.125C38.164 44 39 43.052 39 41.875V30c0-1.662-1.338-3-3-3zM12 27c-1.662 0-3 1.338-3 3v11.875C9 43.052 9.836 44 10.875 44H15V30c0-1.662-1.338-3-3-3z"/><path style="fill:#f4f4f7" d="M18 29c-1.662 0-3 1.338-3 3v12h6V32c0-1.662-1.338-3-3-3z"/><path style="fill:#e54b3f" d="M24 30c-1.662 0-3 1.338-3 3v11h6V33c0-1.662-1.338-3-3-3z"/><path style="fill:#f4f4f7" d="M30 29c-1.662 0-3 1.338-3 3v12h6V32c0-1.662-1.338-3-3-3z"/><path style="opacity:.2;fill:#f4f4f7" d="M27.5 4a11.493 11.493 0 0 0-10.89 7.854A5.5 5.5 0 0 0 12.5 10 5.5 5.5 0 0 0 7 15.5a5.5 5.5 0 0 0 .025.514A5.5 5.5 0 0 1 12.5 11a5.5 5.5 0 0 1 4.11 1.854A11.493 11.493 0 0 1 27.5 5c6.173 0 11.196 4.867 11.475 10.97.006-.156.025-.312.025-.47C39 9.149 33.851 4 27.5 4zM8.062 19.73A4.5 4.5 0 0 0 6 23.5a4.5 4.5 0 0 0 .033.508A4.5 4.5 0 0 1 8.64 20.41a5.5 5.5 0 0 1-.576-.68zm30.235.666c-.104.288-.209.575-.336.854a4.492 4.492 0 0 1 2.994 3.691c.015-.147.045-.29.045-.441a4.49 4.49 0 0 0-2.703-4.104z"/></svg>