<svg width="48" height="48" xmlns="http://www.w3.org/2000/svg"><g transform="matrix(2 0 0 2 2 2)"><circle cx="11" cy="11.5" r="10" style="opacity:.2"/><circle cx="11" cy="11" r="10" style="fill:#2e1118"/><path d="m4.164 8.407 1.78-2.33 3.135-1.61 2.516-.15 3.67 1.318 2.338 2.667.84 3.198-1.25 3.75-.849-.387.51.615-.42 1.288L12.81 19l-1.124-.182-.33-.839v.69l-4.913-.919-2.052-2.5.304-.761L4 14l.694-3.75 1.25-.24-1.25-.465 2.5-2.187 2.5-.39.388.782v-.961l.862-.015 3.228 1.947 1.244 3.49-2.817 3.506-2.726.015L7.97 13.32l1.124-2.052 1.85-.824.786.54-.03.748-.756.285.741.15.09.764-2.081.434-.75-1.063.105.704 1.303 1.378 2.801-1.634-.24-1.872-2.186-1.468-3.533 2.352.342 3.056 1.513 1.484 2.352.599 2.876-1.184 1.667-2.696L15.416 9l-2.787-2.5-4.185-.386z" style="opacity:.2"/><path d="m4.164 7.907 1.78-2.33 3.135-1.61 2.516-.15 3.67 1.318 2.338 2.667.84 3.198-1.25 3.75-.849-.387.51.615-.42 1.288L12.81 18.5l-1.124-.182-.33-.839v.69l-4.913-.919-2.052-2.5.304-.761L4 13.5l.694-3.75 1.25-.24-1.25-.465 2.5-2.187 2.5-.39.388.782v-.961l.862-.015 3.228 1.947 1.244 3.49-2.817 3.506-2.726.015L7.97 12.82l1.124-2.052 1.85-.824.786.54-.03.748-.756.285.741.15.09.764-2.081.434-.75-1.063.105.704 1.303 1.378 2.801-1.634-.24-1.872-2.186-1.468-3.533 2.352.342 3.056 1.513 1.484 2.352.599 2.876-1.184 1.667-2.696-.528-4.021L12.629 6l-4.185-.386z" style="fill:#ae32b0"/><path d="M11 1A10 10 0 0 0 1 11a10 10 0 0 0 .01.293A10 10 0 0 1 11 1.5a10 10 0 0 1 9.99 9.707A10 10 0 0 0 21 11 10 10 0 0 0 11 1z" style="fill:#f4f4f7;opacity:.1"/><path d="m11.596 3.816-2.516.15-3.137 1.61-1.779 2.33.647-.345 1.132-1.485 3.137-1.61 2.516-.15 3.67 1.319L17.604 8.3l.765 2.92.074-.221-.84-3.2-2.337-2.665zm-1.303 2.47-.211.003v.5l.861-.016 3.229 1.948 1.121 3.144.123-.154-1.244-3.49-3.088-1.864zm-.6.183-2.5.388-2.5 2.188.4.148 2.1-1.836 2.5-.388.389.781v-.5zm-4.636 3.21-.364.071L4 13.5l.082.057.611-3.307 1.25-.24zm5.886.264-1.85.825-1.122 2.052.162.205.96-1.757 1.85-.825.768.526.02-.487zm-3.697 1.784-.053.035.342 3.056 1.514 1.483 2.351.6 2.877-1.184 1.666-2.696-.054-.412-1.612 2.608L11.4 16.4l-2.351-.6-1.514-1.482zm4.447.007-.75.284.743.148.033.277.056-.011zm1.4.551-2.741 1.6-.518-.55-.14.03-.49-.697-.155-.162-.01-.07-.096-.135.106.705 1.303 1.379 2.802-1.635zM4.538 14.38l-.148.371.134.164.17-.426zm11.807.484.392.475.084-.258z" style="fill:#f4f4f7;opacity:.2"/></g></svg>