<svg xmlns="http://www.w3.org/2000/svg" width="48" height="48"><path style="opacity:.2" d="M17.826 7.006a2.997 2.997 0 0 0-2.723 3.776l1.167 4.358a20.407 20.407 0 0 0-2.822 2.042l-3.322-3.324a2.994 2.994 0 0 0-4.244 0 2.996 2.996 0 0 0 0 4.245l3.355 3.358c-1.483 1.663-2.844 3.22-4.193 4.24-1.392 1.023-1.392 3.58 0 4.603C11 34.013 15 43.026 23.998 43h.004C33 43.026 37 34.013 42.956 30.304c1.392-1.022 1.392-3.58 0-4.602-1.349-1.02-2.709-2.577-4.191-4.24l3.357-3.359a2.996 2.996 0 0 0 0-4.245 2.991 2.991 0 0 0-4.242 0l-3.326 3.328a20.433 20.433 0 0 0-2.802-2.034l1.17-4.37A2.997 2.997 0 0 0 30.8 7.104a2.994 2.994 0 0 0-3.673 2.124l-1.043 3.897A15.275 15.275 0 0 0 24 12.981h-.002c-.714 0-1.397.053-2.057.142L20.9 9.228a2.993 2.993 0 0 0-3.073-2.222z"/><path style="fill:#ef9202" d="M17.826 6.006a2.997 2.997 0 0 0-2.723 3.776l1.167 4.358a20.407 20.407 0 0 0-2.822 2.042l-3.322-3.324a2.994 2.994 0 0 0-4.244 0 2.996 2.996 0 0 0 0 4.245l3.355 3.358c-1.483 1.663-2.844 3.22-4.193 4.24-1.392 1.023-1.392 3.58 0 4.603C11 33.013 15 42.026 23.998 42h.004C33 42.026 37 33.013 42.956 29.304c1.392-1.022 1.392-3.58 0-4.602-1.349-1.02-2.709-2.577-4.191-4.24l3.357-3.359a2.996 2.996 0 0 0 0-4.245 2.991 2.991 0 0 0-4.242 0l-3.326 3.328a20.433 20.433 0 0 0-2.802-2.034l1.17-4.37A2.997 2.997 0 0 0 30.8 6.104a2.994 2.994 0 0 0-3.673 2.124l-1.043 3.897A15.275 15.275 0 0 0 24 11.981h-.002c-.714 0-1.397.053-2.057.142L20.9 8.228a2.993 2.993 0 0 0-3.073-2.222z"/><circle style="opacity:.2" cx="24" cy="28" r="11"/><circle style="fill:#f4f4f7" cx="24" cy="27" r="11"/><circle style="fill:#ff5a2e" cx="24" cy="27" r="7"/><path style="opacity:.2;fill:#f4f4f7" d="M17.826 6.006a2.985 2.985 0 0 0-2.771 3.47 2.988 2.988 0 0 1 2.771-2.47 2.994 2.994 0 0 1 3.072 2.223l1.043 3.894a15.25 15.25 0 0 1 2.057-.143H24c.724 0 1.417.053 2.084.145l1.043-3.896a2.994 2.994 0 0 1 5.844.248 2.985 2.985 0 0 0-2.17-3.373 2.994 2.994 0 0 0-3.674 2.125l-1.043 3.896A15.277 15.277 0 0 0 24 11.98h-.002c-.714 0-1.397.054-2.057.143l-1.043-3.894a2.994 2.994 0 0 0-3.072-2.223zm-9.822 5.97c-.767 0-1.536.293-2.123.881a2.99 2.99 0 0 0-.834 2.623 2.994 2.994 0 0 1 5.078-1.623l3.322 3.325a20.4 20.4 0 0 1 2.823-2.041l-.227-.85a20.628 20.628 0 0 0-2.596 1.89l-3.322-3.324a2.987 2.987 0 0 0-2.121-.88zm31.998 0c-.767 0-1.534.293-2.121.881l-3.326 3.329c-.8-.686-1.66-1.317-2.576-1.883l-.227.85c1.005.6 1.935 1.29 2.803 2.033l3.326-3.329a2.992 2.992 0 0 1 4.242 0c.46.46.734 1.03.834 1.623a2.99 2.99 0 0 0-.834-2.623 2.988 2.988 0 0 0-2.121-.88zM8.76 20.985c-1.296 1.454-2.517 2.81-3.717 3.717-.827.608-1.15 1.756-.994 2.803.106-.716.429-1.387.994-1.803 1.35-1.02 2.71-2.577 4.193-4.24l-.476-.477zm30.482.002-.476.477c1.482 1.663 2.842 3.218 4.191 4.238.565.416.888 1.087.994 1.803.156-1.047-.167-2.195-.994-2.803-1.2-.907-2.42-2.262-3.715-3.715z"/></svg>