<svg xmlns="http://www.w3.org/2000/svg" width="48" height="48" version="1"><path style="fill:#704774" d="M44 40V8c0-1.108-.892-2-2-2H6c-1.108 0-2 .892-2 2v32c0 1.108.892 2 2 2h36c1.108 0 2-.892 2-2z"/><rect style="opacity:.2" width="24" height="20" x="12" y="15" rx=".857" ry=".909"/><path fill="#fff" style="opacity:.1" d="M6 6c-1.108 0-2 .892-2 2v1c0-1.108.892-2 2-2h36c1.108 0 2 .892 2 2V8c0-1.108-.892-2-2-2z"/><path opacity=".2" d="M4 40v1c0 1.108.892 2 2 2h36c1.108 0 2-.892 2-2v-1c0 1.108-.892 2-2 2H6c-1.108 0-2-.892-2-2z"/><rect style="fill:#ce6ef0" width="24" height="20" x="12" y="14" rx=".857" ry=".909"/><path style="fill:#ffb94b;fill-rule:evenodd" d="M14.209 28.006c-.751 0-1.487.066-2.205.187v4.92c.011.493.386.887.853.887h12.518c-2.417-3.674-6.519-5.994-11.166-5.994z"/><path style="opacity:.6" d="M24.777 14a.584.584 0 0 0 .02.191c.062.136.247.156.484.05.212-.096.414-.108.451-.026.038.082-.035.195-.162.252-.302.136-.268.189.455.697.56.394.668.406 1.262.14.513-.229.652-.234.662-.027.008.152.102.227.225.178.117-.046.085.045-.07.203-.183.186-.214.355-.088.477.164.159.015.268-.989.719-1.286.578-2.962 1.504-3.73 2.421-.478.571-1.376 2.493-1.272 2.723.03.064.298.007.596-.127.446-.2.54-.329.533-.73l-.007-.489.224.328.227.33.185-.603c.173-.562.19-.577.264-.225.05.234.178.37.334.36.188-.013.243.072.223.336-.026.32.03.325.625.058.525-.236 1.085-.401 1.214-.855l.159-.565.214.442c.203.42.217.422.307.05.082-.34.11-.357.209-.138.083.182.247.192.596.035.449-.202.426-.133-.326 1.016-.443.677-1.27 1.944-1.593 2.816-.562 1.518-1.16 4.08-.928 3.975.32-.144 1.67-1.355 1.623-1.457-.03-.066-.063-.342-.074-.614-.02-.489-.018-.492.264-.22.398.383.72.178.707-.451-.013-.56.19-.803.36-.432.081.18.153.157.405-.123.23-.255.257-.455.104-.791-.188-.414-.18-.438.125-.272.345.189.855-.045.702-.38-.058-.128.058-.23.336-.297.233-.057.42-.05.414.013-.094 1.061-.112 3.616-.03 4.567.1 1.145.662 3.22.85 3.134.046-.02.289-.713.54-1.539.29-.955.389-1.583.269-1.728-.139-.169-.098-.272.162-.389.409-.183.611-1.01.316-1.295-.143-.138-.118-.197.092-.21.364-.025.32-.126-.266-.579-.461-.357-.463-.36-.048-.238.23.068.466.104.523.078.163-.073-.137-.621-.353-.646-.108-.013-.23-.093-.27-.18-.046-.1.042-.127.24-.076.552.142.763-.263.393-.756-.18-.24-.422-.482-.54-.54-.148-.072-.084-.133.208-.204.254-.062.384-.17.336-.276-.044-.096.007-.166.111-.154.104.012.239-.285.3-.66.063-.375.156-.701.206-.725 1.41 1.46 2.436 8.388 2.678 12.457H36v-9.84c-.715-1.526-1.47-2.839-2.152-3.539-.854-.876-.894-1.004-.244-.806.363.11.387.09.367-.301-.022-.4-.008-.396.322.057.27.369.576.511 1.418.658.109.019.187.028.289.045V15.69l-.053-.002-.75.006.56-.256c.088-.04.169-.086.243-.134v-.397a.95.95 0 0 0-.064-.344c-.003-.006-.006-.012-.008-.02a.856.856 0 0 0-.785-.544h-1.268l-1.617.805-.094-.51c-.012-.064-.034-.218-.053-.295h-2.506v.006l-.02-.006zm4.229 4.674c.168.022.194.441.004.681-.125.158-.27.307-.323.33-.134.06.102-.928.239-.996a.136.136 0 0 1 .08-.015z"/><path style="fill:#f4f4f7;opacity:.1" d="M12.857 14c-.474 0-.857.405-.857.908v1c0-.503.383-.908.857-.908h22.286c.474 0 .857.405.857.908v-1c0-.503-.383-.908-.857-.908H12.857z"/></svg>