<svg xmlns="http://www.w3.org/2000/svg" width="48" height="48" version="1"><rect style="opacity:.2" width="36" height="36" x="-45" y="-44" rx="1.8" ry="1.8" transform="matrix(0 -1 -1 0 0 0)"/><rect style="fill:#4f4f4f" width="36" height="36" x="-44" y="-44" rx="1.8" ry="1.8" transform="matrix(0 -1 -1 0 0 0)"/><rect style="opacity:.2" width="36" height="36" x="-41" y="-40" rx="1.8" ry="1.8" transform="matrix(0 -1 -1 0 0 0)"/><rect style="fill:#2d50e6" width="36" height="36" x="-40" y="-40" rx="1.8" ry="1.8" transform="matrix(0 -1 -1 0 0 0)"/><path style="opacity:.1" d="M38.87 5.13 4.524 39.476A1.797 1.797 0 0 1 4 38.199v1c0 .499.2.95.525 1.276l34.95-34.95a1.788 1.788 0 0 0-.606-.394z"/><path style="opacity:.1;fill:#f4f4f7" d="M5.8 4C4.805 4 4 4.804 4 5.8v32.4c0 .498.2.95.525 1.275l34.95-34.95A1.797 1.797 0 0 0 38.199 4H5.801z"/><path style="opacity:.2" d="M7 12v22h13v-3h2v-3h3V18h-3v-3h-2v-3h-7zm22 0v3h6v-3zm-16 3h4v3h2v10h-2v3h-4zm16 4v12h2v3h7v-3h-3V19z"/><path style="fill:#f4f4f7" d="M7 11h6v22H7zM13 11h7v3h-7zM17 14h5v3h-5zM13 30h7v3h-7zM17 27h5v3h-5zM19 17h6v10h-6zM29 18h6v12h-6zM31 30h7v3h-7zM29 11h6v3h-6z"/><path style="fill:#f4f4f7;opacity:.1" d="M5.8 4C4.805 4 4 4.804 4 5.8v1C4 5.805 4.804 5 5.8 5h32.4c.996 0 1.8.804 1.8 1.8v-1c0-.996-.804-1.8-1.8-1.8H5.8z"/></svg>