<svg xmlns="http://www.w3.org/2000/svg" width="48" height="48" version="1"><path style="opacity:.2" d="M11 12c-1.108 0-2 .892-2 2v22c0 1.108.892 2 2 2h3v-4h10v4h19c1.108 0 2-.892 2-2V14c0-1.108-.892-2-2-2z"/><path fill="#419d45" d="M11 11c-1.108 0-2 .892-2 2v22c0 1.108.892 2 2 2h3v-4h10v4h19c1.108 0 2-.892 2-2V13c0-1.108-.892-2-2-2z"/><path fill="#fff" opacity=".2" d="M11 11c-1.108 0-2 .892-2 2v1c0-1.108.892-2 2-2h32c1.108 0 2 .892 2 2v-1c0-1.108-.892-2-2-2H11z"/><g style="opacity:.2"><path d="M25 34h4v6h-4zM30 34h4v6h-4zM35 34h4v6h-4z"/></g><path fill="#f8c44e" d="M25 33h4v6h-4zM30 33h4v6h-4zM35 33h4v6h-4z"/><path style="opacity:.2" d="M40 34h4v6h-4z"/><path fill="#f8c44e" d="M40 33h4v6h-4z"/><path style="fill:none;stroke:#000;stroke-width:4;stroke-linecap:round;stroke-linejoin:round;opacity:.2" d="M4 8h4v33"/><path style="fill:none;stroke:#b7b7b7;stroke-width:4;stroke-linecap:round;stroke-linejoin:round" d="M4 7h4v33"/><rect fill="#4e4e4e" width="10" height="10" x="22" y="17" rx="2" ry="2"/><g style="fill:#b7b7b7"><path d="M24 15h2v3h-2zM28 15h2v3h-2zM24 26h2v3h-2zM28 26h2v3h-2zM34 19v2h-3v-2zM34 23v2h-3v-2zM23 19v2h-3v-2zM23 23v2h-3v-2z"/></g><path fill="#fff" style="opacity:.2" d="M4 5a2 2 0 0 0-1.967 2.488A2 2 0 0 1 4 5.971h4a2 2 0 0 1 2 2V7a2 2 0 0 0-2-2H4z"/></svg>