<svg xmlns="http://www.w3.org/2000/svg" width="48" height="48"><path style="opacity:.2" d="M14.114 34h20L37 39h2c1.79 0 3 2 3 3-2.114 1-5.256 2-5.256 2h-7.16l-5.37-4-5.37 4h-7.16S7.8 43 6 42c0-1 1.324-3 3.114-3h2.315z"/><path style="fill:#f77d00" d="M14 33h20l3 5h2c1.79 0 3 2 3 3-2.114 1-5.256 2-5.256 2H30l-6-4-6 4h-6.316S7.8 42 6 41c0-1 1.21-3 3-3h2z"/><path style="opacity:.2;fill:#f4f4f7" d="m14 33-3 5H9c-1.79 0-3 2-3 3 .065.036.149.072.219.107C6.644 40.124 7.659 39 9 39h2l3-5h20l3 5h2c1.336 0 2.348 1.115 2.775 2.096.072-.033.156-.063.225-.096 0-1-1.21-3-3-3h-2l-3-5z"/><path style="opacity:.2" d="M27.25 45H37c0-4.07-3.803-5.801-6.5-6.105-2.413-.273-6.5 2.424-6.5 2.424s-5.268-3.159-8.125-2.424C13.624 39.473 11 40.93 11 45h9.75c2.068 0 3.25-2.454 3.25-2.454S25.182 45 27.25 45z"/><path style="fill:#eab108" d="M27.25 44H37c0-4.07-3.803-5.801-6.5-6.105-2.413-.273-6.5 2.424-6.5 2.424s-5.268-3.159-8.125-2.424C13.624 38.473 11 39.93 11 44h9.75c2.068 0 3.25-2.454 3.25-2.454S25.182 44 27.25 44z"/><path style="opacity:.2" d="M13 23h22s1-5.001 7-9c0-1 0-2-4-1-3 2-13 8-13 8h-2s-10-6-13-8c-4-1-4 0-4 1 6 4 7 9 7 9z"/><path style="fill:#4f4f4f" d="M13 22h22s1-5.001 7-9c0-1 0-2-4-1-3 2-13 8-13 8h-2s-10-6-13-8c-4-1-4 0-4 1 6 4 7 9 7 9z"/><path style="opacity:.1;fill:#f4f4f7" d="M7.688 11.594C6 11.5 6 12.25 6 13c.052.035.097.071.148.105.283-.535 1.144-.782 3.852-.105 3 2 13 8 13 8h2s10-6 13-8c2.708-.677 3.569-.43 3.852.105.051-.034.096-.07.148-.105 0-1 0-2-4-1-3 2-13 8-13 8h-2s-10-6-13-8c-1-.25-1.75-.375-2.313-.406z"/><path style="opacity:.2;fill:#f4f4f7" d="M17.045 37.787a4.084 4.084 0 0 0-1.17.108C13.624 38.473 11 39.93 11 44h.064c.398-3.31 2.756-4.577 4.811-5.105C18.732 38.16 24 41.318 24 41.318s4.087-2.696 6.5-2.423c2.464.278 5.84 1.752 6.408 5.105H37c0-4.07-3.803-5.801-6.5-6.105-2.413-.273-6.5 2.423-6.5 2.423s-4.033-2.418-6.955-2.531z"/><path style="opacity:.2" d="M24 5c-3.878 0-7 3.567-7 8 0 3.603-.782 6.031-1.779 8H9c-2 0-5 1-5 2 2.9.322 5.983 1.072 8.863 1.923C11.825 26.634 11 28.404 11 31c0 7.732 5.82 14 13 14s13-6.268 13-14c0-2.637-.852-4.423-1.914-6.159 2.652-.816 6.421-1.53 8.914-1.841 0-1-3-2-5-2h-6.221C31.782 19.031 31 16.603 31 13c0-4.433-3.122-8-7-8z"/><path style="fill:#cbcbcb" d="M24 4c-3.878 0-7 3.567-7 8 0 3.603-.782 6.031-1.779 8H9c-2 0-5 1-5 2 2.9.322 5.983 1.072 8.863 1.923C11.825 25.634 11 27.404 11 30c0 7.732 5.82 14 13 14s13-6.268 13-14c0-2.637-.852-4.423-1.914-6.159 2.652-.816 6.421-1.53 8.914-1.841 0-1-3-2-5-2h-6.221C31.782 18.031 31 15.603 31 12c0-4.433-3.122-8-7-8z"/><path style="opacity:.1" d="M24 17c-2.386 0-4 2.34-4 5 0 6-4 6.4-4 10.6 0 4.639 3.582 8.4 8 8.4s8-3.761 8-8.4c0-4.2-4-4.6-4-10.6 0-2.66-1.613-5-4-5z"/><path style="fill:#f4f4f7" d="M24 16c-2.386 0-4 2.34-4 5 0 6-4 6.4-4 10.6 0 4.639 3.582 8.4 8 8.4s8-3.761 8-8.4c0-4.2-4-4.6-4-10.6 0-2.66-1.613-5-4-5z"/><circle style="opacity:.1" cx="21" cy="13" r="3"/><circle style="fill:#f4f4f7" cx="21" cy="12" r="3"/><circle style="fill:#323232" cx="21" cy="12" r="1"/><circle style="opacity:.1" cx="27" cy="13" r="3"/><circle style="fill:#f4f4f7" cx="27" cy="12" r="3"/><path style="opacity:.1" d="M28 16c0 2.761-1.791 5-4 5s-4-2.239-4-5z"/><path style="fill:#f77d00" d="M28 15c0 2.761-1.791 5-4 5s-4-2.239-4-5z"/><circle style="fill:#323232" cx="27" cy="12" r="1"/><path style="fill:#eab108" d="M28 15.5c0 .5-1.791 3.5-4 3.5s-4-3-4-3.5c0-1.381 1.791-2.5 4-2.5s4 1.119 4 2.5z"/><path style="opacity:.2;fill:#f4f4f7" d="M24 4c-3.878 0-7 3.567-7 8 0 3.603-.782 6.031-1.779 8H9c-2 0-5 1-5 2 .25.028.506.076.758.109C5.774 21.483 7.616 21 9 21h6.221C16.218 19.031 17 16.603 17 13c0-4.433 3.122-8 7-8s7 3.567 7 8c0 3.603.782 6.031 1.779 8H39c1.386 0 3.231.484 4.246 1.111.246-.034.527-.083.754-.111 0-1-3-2-5-2h-6.221C31.782 18.031 31 15.603 31 12c0-4.433-3.122-8-7-8zm11.576 20.707c-.157.046-.34.088-.49.135.988 1.615 1.785 3.281 1.893 5.627.004-.157.021-.311.021-.469 0-2.205-.607-3.809-1.424-5.293zm-23.195.082C11.588 26.25 11 27.834 11 30c0 .156.017.307.021.461.108-2.302.879-3.949 1.842-5.537-.158-.047-.323-.089-.482-.135z"/></svg>