<svg xmlns="http://www.w3.org/2000/svg" width="48" height="48" version="1"><rect style="opacity:.2" width="17" height="40" x="-33" y="-44" rx="2" ry="2" transform="matrix(0 -1 -1 0 0 0)"/><path style="opacity:.2" d="M8 28v15c0 1.108.892 2 2 2h28c1.108 0 2-.892 2-2V28H8z"/><path style="fill:#b2bfd9" d="M10 4c-1.108 0-2 .892-2 2v12h32V6c0-1.108-.892-2-2-2H10z"/><rect fill="#4f4f4f" width="17" height="40" x="-32" y="-44" rx="2" ry="2" transform="matrix(0 -1 -1 0 0 0)"/><path fill="#fff" opacity=".1" d="M6 15.004c-1.108 0-2 .892-2 2v1c0-1.108.892-2 2-2h36c1.108 0 2 .892 2 2v-1c0-1.108-.892-2-2-2H6z"/><path style="opacity:.2" d="M6 25h36v4H6z"/><rect style="opacity:.2" width="4" height="4" x="6" y="18" rx="1.5" ry="1.5"/><rect style="fill:#76ff03" width="4" height="4" x="6" y="17" rx="1.5" ry="1.5"/><path style="fill:#b2bfd9" d="M8 27v15c0 1.108.892 2 2 2h28c1.108 0 2-.892 2-2V27H8z"/><path style="fill:#f4f4f7;opacity:.2" d="M10 4c-1.108 0-2 .892-2 2v1c0-1.108.892-2 2-2h28c1.108 0 2 .892 2 2V6c0-1.108-.892-2-2-2H10z"/><path style="opacity:.5" d="M12 38h21v2H12zM12 34h17v2H12zM12 30h24v2H12z"/><path style="fill:#f4f4f7;opacity:.2" d="M7.5 17c-.831 0-1.5.669-1.5 1.5v1c0-.831.669-1.5 1.5-1.5h1c.831 0 1.5.669 1.5 1.5v-1c0-.831-.669-1.5-1.5-1.5h-1z"/><circle style="opacity:.2" cx="36" cy="36" r="11"/><circle style="fill:#c03630" cx="36" cy="35" r="11"/><path style="fill:#f4f4f7;fill-rule:evenodd" d="M36 30c-1.55.015-3.112.37-4.463 1.135-.538.35-1.185.804-1.672 1.26-.766.75-1.422 1.626-1.865 2.606 1.215 2.68 3.886 4.645 6.824 4.935 1.928.218 3.945-.115 5.639-1.069.538-.35 1.185-.804 1.672-1.26.766-.751 1.422-1.626 1.865-2.606-1.215-2.68-3.886-4.645-6.824-4.935-.39-.045-.783-.066-1.176-.066zm0 2c1.607-.035 3.03 1.402 3 3.001.051 1.767-1.709 3.292-3.45 2.962-1.757-.207-2.991-2.179-2.413-3.849.369-1.23 1.576-2.129 2.863-2.114zm0 2a1 1 0 0 0-1 1.001 1 1 0 0 0 1 1 1 1 0 0 0 1-1 1 1 0 0 0-1-.999z"/></svg>