<svg xmlns="http://www.w3.org/2000/svg" width="48" height="48" version="1"><rect style="opacity:.2" width="40" height="40" x="-45" y="-44" rx="2" ry="2" transform="matrix(0 -1 -1 0 0 0)"/><rect style="fill:#b2bfd9" width="40" height="40" x="-44" y="-44" rx="2" ry="2" transform="matrix(0 -1 -1 0 0 0)"/><path style="fill:#f4f4f7;opacity:.2" d="M6 4c-1.108 0-2 .892-2 2v1c0-1.108.892-2 2-2h36c1.108 0 2 .892 2 2V6c0-1.108-.892-2-2-2H6z"/><path style="fill:#3f3f3f" d="M15.572 14c.336.003.44.028.522.17.064.104.351.725.646 1.635.295.91.566 1.677.614 1.709.04.024.12.006.175-.034.056-.04.64-.318 1.293-.613 4.093-1.835 5.32-2.401 5.975-2.728.143-.074.212-.09.316-.139h-9.54zm11.21 0c-.309.166-.764.384-1.577.752a81.58 81.58 0 0 0-1.756.799c-.263.127-1.324.605-2.353 1.076-2.76 1.253-3.51 1.62-3.51 1.7 0 .079.837 2.648.957 2.927.032.088.12.36.191.6.208.686.208.685.655.517.215-.08.86-.375 1.443-.654a39.816 39.816 0 0 1 1.094-.502c.016 0 .509-.23 1.1-.502.582-.28 1.365-.647 1.74-.815 2.01-.893 4.163-1.883 5.312-2.433.95-.455.959-.472 1.063-.815.207-.726.582-1.562.757-2.056.168-.495.192-.52.456-.543.14-.008.311-.034.42-.051H26.78zm3.823 4.096c-.031-.032-.4.103-.814.295-.415.2-1.005.47-1.316.605-.304.136-.806.36-1.118.504-.303.144-.789.366-1.076.502-.287.128-.982.455-1.556.719-.567.271-2.026.932-3.23 1.482-1.206.55-2.204 1.03-2.22 1.078-.024.08 1.247 3.998 1.334 4.102.032.032.255-.04.495-.153.638-.31 2.352-1.101 3.62-1.668.615-.27 1.39-.621 1.717-.773.328-.152.869-.4 1.196-.55 1.053-.471 1.39-.678 1.445-.878.12-.407.71-2.306.95-3.064.143-.439.286-.91.318-1.037.04-.136.127-.439.191-.678.064-.24.096-.462.064-.486zm-1.984 6.549c-.105-.005-.35.07-.625.209-.335.16-2.169.997-3.732 1.699-.216.095-.75.35-1.198.558-.446.216-1.085.501-1.412.645-.877.375-.861.335-.566 1.205.143.415.374 1.133.533 1.603.152.471.312.879.352.903.071.048.71-.232 3.03-1.317.767-.359 1.597-.741 1.837-.853.24-.112.447-.207.455-.215.024-.016.916-2.928 1.1-3.559.055-.199.145-.462.193-.582a1.74 1.74 0 0 0 .086-.263c0-.02-.018-.032-.053-.033zm-1.767 5.46c-.074 0-.19.042-.35.125-.16.088-.893.431-1.635.766-2.01.91-2.656 1.222-2.656 1.277 0 .072.814 2.537.846 2.577.024.024.166-.009.326-.073.271-.095 2.138-.95 2.418-1.109.064-.032.214-.342.326-.693.263-.782.806-2.585.822-2.737.008-.087-.024-.132-.097-.133zM25.6 34.64c-.084-.055-.431.078-1.233.449-.55.247-1.005.512-1.021.576-.024.16.892 2.888.988 2.92.04.016.128-.144.184-.352.063-.215.16-.542.216-.742.16-.55.806-2.577.87-2.736.023-.058.024-.097-.004-.115z"/><path style="fill:#3f3f3f" d="M15 9h18v5H15z"/><path style="opacity:.1" d="M15 14h18v1H15z"/></svg>