<svg xmlns="http://www.w3.org/2000/svg" width="48" height="48" version="1"><rect style="opacity:.2" width="40" height="30" x="4" y="10" rx="3" ry="3"/><rect style="fill:#dc4a3d" width="40" height="30" x="4" y="9" rx="3" ry="3"/><path style="opacity:.1;fill:#f4f4f7" d="M7 9c-1.662 0-3 1.338-3 3v1c0-1.662 1.338-3 3-3h34c1.662 0 3 1.338 3 3v-1c0-1.662-1.338-3-3-3z"/><path style="fill:#b2bfd9" d="M24 9v30h14c1.662 0 3-1.338 3-3V12c0-1.662-1.338-3-3-3H26z"/><path style="opacity:.2" d="M26 13v2h13v-2zm0 4v2h13v-2zm0 4v2h13v-2zm0 4v2h13v-2zm0 4v2h13v-2zm0 4v2h13v-2z"/><path style="opacity:.1" d="M24 8h6v16l-3-1.5-3 1.5z"/><path style="fill:#dc4a3d" d="M24 8s0-1 3-1 3 1 3 1v15l-3-1.5-3 1.5z"/><path style="fill:#f4f4f7" d="M24 9v30H10c-1.662 0-3-1.338-3-3V12c0-1.662 1.338-3 3-3h12z"/><path style="opacity:.2" d="M9 13v2h13v-2zm0 4v2h13v-2zm0 4v2h13v-2zm0 4v2h13v-2zm0 4v2h13v-2zm0 4v2h13v-2z"/><path style="opacity:.1;fill:#f4f4f7" d="M27 7c-3 0-3 1-3 1v1s0-1 3-1 3 1 3 1V8s0-1-3-1z"/></svg>