<svg width="48" height="48" version="1" xmlns="http://www.w3.org/2000/svg"><path d="M17.757 12.008c-3.986.138-8.206 2.117-11.838 7.51-.696 1.034-1.927 2.898-1.92 4.542.008 1.608 1.224 3.39 1.92 4.425 8.94 13.275 21.444 5.858 25.258 1.233.79-.959 2.207-1.36 3.236-.816l8.403 4.432c1.029.543 1.47-.005.989-1.223l-3.778-8.05 3.778-8.169c.482-1.218.04-1.766-.99-1.223L34.414 19.1c-1.029.543-2.446.143-3.236-.816-2.265-2.746-7.594-6.477-13.42-6.276z" style="fill:#37c944"/><circle cx="12" cy="21" r="2" opacity=".2"/><circle cx="12" cy="20" r="2" fill="#fff"/><path d="M17.758 12.008c-3.986.137-8.206 2.117-11.838 7.51-.696 1.034-1.928 2.897-1.92 4.541 0 .154.022.31.043.466.212-1.499 1.256-3.084 1.877-4.007 3.632-5.393 7.852-7.373 11.838-7.51 5.826-.2 11.155 3.531 13.42 6.277.79.96 2.207 1.358 3.236.815l8.403-4.432c.528-.278.897-.266 1.07-.027.323-1.035-.117-1.475-1.07-.973L34.414 19.1c-1.029.543-2.446.144-3.236-.815-2.265-2.746-7.594-6.478-13.42-6.277zm22.503 12.547-.233.504 3.778 8.05c.035.09.056.17.082.253.165-.226.153-.657-.082-1.252l-3.545-7.555z" opacity=".2" fill="#fff"/><path d="M43.888 15.64c-.026.083-.047.16-.082.25l-3.778 8.169.233.496 3.545-7.664c.235-.594.246-1.024.082-1.25zM4.043 24.526c-.025.18-.044.358-.043.534.008 1.607 1.224 3.39 1.92 4.425 8.94 13.275 21.443 5.857 25.258 1.233.79-.96 2.207-1.36 3.236-.817l8.403 4.434c.953.502 1.392.061 1.07-.973-.173.238-.543.251-1.07-.027L34.414 28.9c-1.029-.543-2.446-.142-3.236.817C27.363 34.34 14.86 41.759 5.92 28.484c-.63-.935-1.675-2.482-1.877-3.96z" opacity=".2"/><circle cx="36" cy="37" r="11" style="opacity:.2"/><circle cx="36" cy="36" r="11" style="fill:#4f4f4f"/><path d="M30 39.327V42h2.673l6.75-6.75-2.672-2.674zm11.788-6.434a.708.708 0 0 0 0-1.01l-1.67-1.671a.708.708 0 0 0-1.011 0l-1.397 1.405 2.673 2.673z" style="fill:#f4f4f7"/></svg>