<svg xmlns="http://www.w3.org/2000/svg" width="48" height="48" version="1"><path fill="#f2ae37" d="M24 4H6c-1.108 0-2 .892-2 2v18h20z"/><path fill="#4785e2" d="M24 4h18c1.108 0 2 .892 2 2v18H24zM24 44H6c-1.108 0-2-.892-2-2V24h20z"/><path fill="#77e247" d="M24 44h18c1.108 0 2-.892 2-2V24H24z"/><path fill="#fff" opacity=".2" d="M6 4c-1.108 0-2 .892-2 2v1c0-1.108.892-2 2-2h36c1.108 0 2 .892 2 2V6c0-1.108-.892-2-2-2H6z"/><path opacity=".2" d="M6 45c-1.108 0-2-.892-2-2v-1c0 1.108.892 2 2 2h36c1.108 0 2-.892 2-2v1c0 1.108-.892 2-2 2H6z"/><path fill="#3f3f3f" d="m14 7 2.163 4.608 4.837.74-3.5 3.587.826 5.065L14 18.608 9.674 21l.826-5.065L7 12.347l4.837-.739z"/><circle fill="#3f3f3f" cx="34" cy="14" r="7"/><circle fill="#3f3f3f" cx="14" cy="34" r="7"/><path fill="#3f3f3f" d="M27 27h14v14H27z"/></svg>