<svg xmlns="http://www.w3.org/2000/svg" width="48" height="48" version="1"><path opacity=".2" d="M10.002 5C8.892 5 8 5.892 8 7v36c0 1.108.893 2 2.002 2h13.996V5H10.002zM24 5v40h14c1.108 0 2-.892 2-2V7c0-1.108-.892-2-2-2H24z"/><path fill="#b2bfd9" d="M10.002 3.98c-1.11 0-2.002.893-2.002 2v36c0 1.109.892 2 2.002 2h13.996v-40l-13.996.001zM24 3.98v40h14c1.108 0 2-.891 2-2v-36c0-1.107-.892-1.999-2-1.999H24z"/><path opacity=".5" d="M10 10v2h12v-2H10zm0 4v2h6v-2h-6zm0 4v2h8v-2h-8zm0 4v2h2v-2h-2zm0 4v2h8v-2h-8z"/><path fill="#fff" opacity=".2" d="M10.002 3.98c-1.11 0-2.002.893-2.002 2V7c0-1.108.892-2 2.002-2h13.996V3.98H10.002zM24 3.98V5h14c1.108 0 2 .892 2 2V5.98c0-1.108-.892-2-2-2H24z"/></svg>