<svg xmlns="http://www.w3.org/2000/svg" width="48" height="48"><path style="opacity:.2" d="M20.715 21.841c-2.457-.611-4.106-1.862-4.535-4.664-.11-.713-.275-1.295-.367-1.295-.093 0-.767.302-1.497.67-.753.381-1.509.544-2.226.504-1.322-.075-2.515-.841-3.32-2.22-.325-.556-.591-1.408-.592-1.892-.001-.873-.016-1.28-1.495-1.075-1.338.185-1.574.122-2.273-.608-.43-.448-.585-1.855-.585-2.16 0-.304-.631-.43-1.164-1.003-.663-.714-.999-1.013-.174-1.015 3.416.248 6.6.9 10.043.917 4.525-.037 7.657-.529 12.112-.993.424.147 1.997.75 2.17 3.986C26.95 13.618 25.697 16.558 25 20c-.486 2.083-2.513 2.183-4.285 1.841z"/><path style="fill:#f48e06" d="M20.715 20.841c-2.457-.611-4.106-1.862-4.535-4.665-.11-.712-.275-1.294-.367-1.294-.093 0-.767.301-1.497.67-.753.38-1.509.544-2.226.504-1.322-.075-2.515-.842-3.32-2.22-.325-.556-.591-1.408-.592-1.892-.001-.873-.016-1.28-1.495-1.075-1.338.185-1.574.122-2.273-.608-.43-.448-.585-1.855-.585-2.16 0-.304-.631-.43-1.164-1.003-.663-.714-.999-1.013-.174-1.015 3.416.248 6.6.899 10.043.917 4.525-.037 7.657-.529 12.112-.993.424.147 1.997.75 2.17 3.986C26.95 12.617 25.697 15.557 25 19c-.486 2.083-2.513 2.182-4.285 1.841z"/><path style="opacity:.2" d="M24.634 7s.438 1.21.59 4.06c.14 2.63-.173 6.03-.876 9.482 0 0-.276 1.072-1.342 7.474-.429 2.568-.852 6.396-.94 8.14-.14 2.743-.082 3.324.429 4.284.755 1.42 2.797 2.525 4.42 2.532l1.252.005-.145-2.35c-.256-4.132 1.427-8.867 4.287-10.87 2.57-1.8 3.125-.564 2.172 4.838-.853 4.828-.738 6.298.585 7.527 1.129 1.048 2.767 1.154 5.198.338 2.51-.842 6.17-4.685 5.694-5.977-.252-.681-.55-.59-2.05.62-1.76 1.42-2.74 1.671-3.427.882-.5-.574-.484-.78.304-4.063.572-2.38 1.235-4.317 1.245-6.208.013-2.998-.528-4.232-3.37-4.664-2.172-.307-5.393.311-7.98 2.16-.794.568-1.51.962-1.592.877-.082-.085.34-2.733.937-5.883.598-3.15 1.087-6.114 1.087-6.586 0-.872-1.205-2.259-4.746-5.46-.71-.642-1.095-1.011-1.732-1.158z"/><path style="fill:#9b9c9c" d="M24.634 6s.438 1.21.59 4.06c.14 2.63-.173 6.03-.876 9.482 0 0-.276 1.072-1.342 7.474-.429 2.568-.852 6.396-.94 8.14-.14 2.743-.082 3.324.429 4.283.755 1.421 2.797 2.526 4.42 2.533l1.252.005-.145-2.35c-.256-4.132 1.427-8.867 4.287-10.87 2.57-1.8 3.125-.564 2.172 4.838-.853 4.828-.738 6.298.585 7.527 1.129 1.048 2.767 1.154 5.198.338 2.51-.842 6.17-4.685 5.694-5.977-.252-.681-.55-.59-2.05.62-1.76 1.42-2.74 1.671-3.427.882-.5-.574-.484-.78.304-4.063.572-2.38 1.235-4.317 1.245-6.208.013-2.998-.528-4.232-3.37-4.664-2.172-.307-5.393.311-7.98 2.16-.794.568-1.51.962-1.592.877-.082-.085.34-2.733.937-5.883.598-3.15 1.087-6.114 1.087-6.586 0-.872-1.205-2.259-4.746-5.46-.71-.642-1.095-1.011-1.732-1.158z"/><path style="fill:#f4f4f7;opacity:.2" d="M24.643 6.008c-4.456.464-7.588.955-12.112.992-3.444-.018-6.628-.67-10.045-.918-.824.002-.489.302.174 1.016l.002.002c3.35.257 6.485.882 9.87.9 4.523-.037 7.655-.528 12.11-.992.424.147.555.898.727 4.133.02.374.01.762.012 1.144.025-.731.025-1.446-.012-2.144-.172-3.235-.303-3.986-.726-4.133z"/><path style="fill:#f4f4f7;opacity:.2" d="M24.635 6s.119.358.256 1.088c.492.182.868.522 1.474 1.07 3.04 2.749 4.352 4.155 4.664 5.051.016-.14.082-.53.082-.592 0-.872-1.205-2.258-4.746-5.459-.71-.642-1.094-1.011-1.73-1.158zm.603 6.307c-.07 2.196-.374 4.698-.89 7.234 0 0-.276 1.073-1.342 7.475-.429 2.567-.853 6.395-.942 8.14a27.946 27.946 0 0 0-.044 2.233c.01-.372.019-.733.044-1.233.09-1.745.513-5.573.942-8.14 1.066-6.402 1.342-7.475 1.342-7.475.598-2.94.897-5.812.89-8.234zm12.56 9.672c-2.106-.062-4.855.614-7.118 2.232-.679.485-1.275.823-1.492.863-.08.563-.129.982-.1 1.012.082.085.798-.308 1.592-.875 2.587-1.85 5.808-2.467 7.98-2.16 2.613.396 3.273 1.489 3.354 3.988.004-.108.015-.218.015-.326.014-2.998-.527-4.23-3.369-4.662a7.823 7.823 0 0 0-.861-.072zm-2.905 8.443c-.048.832-.184 1.877-.413 3.174-.414 2.348-.596 3.893-.525 5.011.047-1.009.221-2.289.525-4.011.335-1.898.472-3.256.413-4.174zm10.7 4.639c-.28-.034-.747.284-1.685 1.04-1.76 1.42-2.74 1.673-3.428.883a1.374 1.374 0 0 1-.265-.4c-.114.78-.028 1.064.265 1.4.688.79 1.668.538 3.428-.882 1.343-1.084 1.722-1.264 1.967-.803.12-.322.16-.606.082-.817-.094-.255-.195-.401-.363-.421zM28.02 39.02c-.03.541-.031 1.078.001 1.606l.083 1.35h.062l-.145-2.35c-.012-.2.002-.404-.001-.606z"/></svg>