<svg xmlns="http://www.w3.org/2000/svg" width="48" height="48" version="1"><rect fill="#b2bfd9" width="40" height="40" x="4" y="4" rx="2" ry="2"/><path fill="#fff" opacity=".2" d="M6 4c-1.108 0-2 .892-2 2v1c0-1.108.892-2 2-2h36c1.108 0 2 .892 2 2V6c0-1.108-.892-2-2-2H6z"/><path opacity=".2" d="M6 45c-1.108 0-2-.892-2-2v-1c0 1.108.892 2 2 2h36c1.108 0 2-.892 2-2v1c0 1.108-.892 2-2 2H6z"/><rect fill="#49a2d6" width="13.111" height="13.111" x="-27.77" y="-6.56" rx=".656" ry=".656" transform="scale(-1 1) rotate(-45)"/><rect fill="#caa52a" width="13.111" height="13.111" x="-40.5" y="-19.28" rx=".656" ry=".656" transform="scale(-1 1) rotate(-45)"/><rect fill="#e94a63" width="13.111" height="13.111" x="-40.5" y="6.17" rx=".656" ry=".656" transform="scale(-1 1) rotate(-45)"/><rect fill="#6eaa53" width="13.111" height="13.111" x="-53.23" y="-6.56" rx=".656" ry=".656" transform="scale(-1 1) rotate(-45)"/></svg>