<svg xmlns="http://www.w3.org/2000/svg" width="48" height="48" version="1"><rect style="fill:#f3990f" width="40" height="40" x="4" y="4" rx="2" ry="2"/><path style="opacity:.2;fill:#f4f4f7" d="M4 7V6c0-1.108.892-2 2-2h36c1.108 0 2 .892 2 2v1c0-1.108-.892-2-2-2H6c-1.108 0-2 .892-2 2z"/><path style="opacity:.2" d="M4 42v1c0 1.108.892 2 2 2h36c1.108 0 2-.892 2-2v-1c0 1.108-.892 2-2 2H6c-1.108 0-2-.892-2-2z"/><circle style="opacity:.2" cx="11" cy="36" r="4"/><circle style="fill:#3f3f3f" cx="11" cy="35" r="4"/><circle style="opacity:.2" cx="37" cy="36" r="4"/><circle style="fill:#3f3f3f" cx="37" cy="35" r="4"/><path style="opacity:.2" d="M29 37c0 2.21-2.239 4-5 4s-5-1.79-5-4z"/><path style="fill:#3f3f3f" d="M29 36c0 2.21-2.239 4-5 4s-5-1.79-5-4z"/></svg>