<svg xmlns="http://www.w3.org/2000/svg" width="48" height="48"><g transform="matrix(2 0 0 2 2 2)"><rect style="opacity:.2" width="20" height="20" x="1" y="1.5" rx="1" ry="1"/><path style="fill:#4f4f4f" d="M2 1h9.068l8.01.884c.55.06.432.264.538.808L21 9.779v2.422l-.538 6.723c-.044.552-.063 1.422-.616 1.461L11.068 21H2c-.554 0-1-.446-1-1V2c0-.554.446-1 1-1z"/><path style="fill:#f4f4f7;opacity:.1" d="M2 1c-.554 0-1 .446-1 1v.5c0-.554.446-1 1-1h18c.554 0 1 .446 1 1V2c0-.554-.446-1-1-1z"/><path style="opacity:.2" d="M2 2.5v8h3v-5h2v5h3v-6c0-2-2-2-2-2zm0 10v8h6s2 0 2-2v-6H7v5H5v-5z"/><path style="fill:#edd20c" d="M2 2v8h3V5h2v5h3V4c0-2-2-2-2-2zm0 10v8h6s2 0 2-2v-6H7v5H5v-5z"/><path style="opacity:.2" d="M11 1.5v9h2.111l.889-8h4l.889 8H21v-8c0-.554-.446-1-1-1zm5 5-.285 4h.57zm-5 6V20h1.055l.834-7.5zm4.57 0-.142 2h1.144l-.142-2zm3.541 0 .834 7.5H21v-7.5zm-3.896 5-.18 2.5h1.93l-.18-2.5z"/><path style="fill:#b2bfd9" d="M11 1v9h2.111L14 2h4l.889 8H21V2c0-.554-.446-1-1-1zm5 5-.285 4h.57zm-5 6v9h9c.554 0 1-.446 1-1v-8h-1.889L20 20h-3l-.215-3h-1.57L15 20h-3l.889-8zm4.57 0-.142 2h1.144l-.142-2z"/><path style="fill:#f4f4f7;opacity:.2" d="M11 1v.5h9c.554 0 1 .446 1 1V2c0-.554-.446-1-1-1zm5 5-.285 4h.035L16 6.5l.25 3.5h.035zm-5 6v.5h1.834l.055-.5zm4.57 0-.142 2h.035l.107-1.5h.86l.107 1.5h.035l-.142-2zm3.541 0 .055.5H21V12zm-3.896 5L15 20h-2.945l-.055.5h3l.215-3h1.57l.215 3h3l-.055-.5H17l-.215-3zM2 2v.5h6s2 0 2 2V4c0-2-2-2-2-2zm0 10v.5h3V12zm5 0v.5h3V12zm-2 5v.5h2V17z"/></g></svg>