<svg xmlns="http://www.w3.org/2000/svg" width="48" height="48" version="1"><path fill="#b2bfd9" d="M40 42V6c0-1.108-.892-2-2-2H10c-1.108 0-2 .892-2 2v36c0 1.108.892 2 2 2h28c1.108 0 2-.892 2-2z"/><path fill="#fff" opacity=".2" d="M10 4c-1.108 0-2 .892-2 2v1c0-1.108.892-2 2-2h28c1.108 0 2 .892 2 2V6c0-1.108-.892-2-2-2z"/><path style="opacity:.1" d="M15.105 31.382 11 21.466l3.305-1.617.082-.11 2.665 6.742 3.2-1.699 1.438 3.203m-6.584 3.397"/><path style="fill:#4587cf" d="M15.105 30.382 11 20.466l3.305-1.617.082-.11 2.665 6.742 3.2-1.699 1.438 3.203m-6.584 3.397"/><path style="opacity:.1" d="m27.068 18 3.61.724.777 2.44 1.586-1.882 3.958.87-3.544 4.13 2 6.146-4.258-.434-.758-3.335-1.927 2.742-3.316-1.074 3.328-4.914M27.054 18"/><path style="fill:#de5328" d="m27.068 17.001 3.61.723.777 2.44 1.586-1.882 3.958.87-3.544 4.13 2 6.147-4.258-.434-.758-3.336-1.927 2.742-3.316-1.074 3.328-4.914M27.054 17"/><path opacity=".2" d="M8 42v1c0 1.108.892 2 2 2h28c1.108 0 2-.892 2-2v-1c0 1.108-.892 2-2 2H10c-1.108 0-2-.892-2-2z"/><path style="opacity:.1" d="m17.953 21.384 4.134.581 1.227 2.676 1.543-2.313 4.161.555-3.813 5.684L24.27 34l-3.863-.64.664-4.875m-3.118-7.101"/><path style="fill:#dfa722" d="m17.953 20.384 4.134.582 1.227 2.675 1.543-2.312 4.161.554-3.813 5.684L24.27 33l-3.863-.64.664-4.875m-3.118-7.101"/></svg>