<svg xmlns="http://www.w3.org/2000/svg" width="48" height="48" version="1"><path style="opacity:.2" d="M24.996 10c-2.554.002-4.956.894-6.973 2.352-.67-.142-1.325-.351-2.017-.352H16c-5.263 0-9.566 4.24-9.883 9.432C4.187 23.449 3.001 26.124 3 29c0 6.016 4.984 11 11 11 1.706 0 3.357-.42 4.854-1.158 1.619.706 3.34 1.155 5.136 1.158h.02c1.583-.003 3.11-.376 4.572-.934 1.403.563 2.877.931 4.408.934H33c6.568 0 12-5.432 12-12 0-5.643-4.087-10.223-9.38-11.465-2.015-3.883-6.047-6.53-10.614-6.535h-.004z"/><path style="fill:#1da6e8" d="M24.996 9c-2.554.002-4.956.894-6.973 2.352-.67-.142-1.325-.351-2.017-.352H16c-5.263 0-9.566 4.24-9.883 9.432C4.187 22.449 3.001 25.124 3 28c0 6.016 4.984 11 11 11 1.706 0 3.357-.42 4.854-1.158 1.619.706 3.34 1.155 5.136 1.158h.02c1.583-.003 3.11-.376 4.572-.934 1.403.563 2.877.931 4.408.934H33c6.568 0 12-5.432 12-12 0-5.643-4.087-10.223-9.38-11.465-2.015-3.883-6.047-6.53-10.614-6.535h-.004z"/><circle style="opacity:.2" cx="14" cy="29" r="6"/><circle style="fill:#ffe174" cx="14" cy="28" r="6"/><circle style="opacity:.2" cx="16" cy="22" r="5"/><circle style="fill:#ffd338" cx="16" cy="21" r="5"/><circle style="opacity:.2" cx="25" cy="22" r="7"/><circle style="fill:#ffb822" cx="25" cy="21" r="7"/><circle style="opacity:.2" cx="33" cy="28" r="7"/><circle style="fill:#ff7c2d" cx="33" cy="27" r="7"/><circle style="opacity:.2" cx="24" cy="27" r="8"/><circle style="fill:#ff972d" cx="24" cy="26" r="8"/><path style="opacity:.2;fill:#f4f4f7" d="M24.996 9c-2.554.002-4.956.894-6.973 2.352-.67-.142-1.325-.351-2.017-.352H16c-5.263 0-9.566 4.24-9.883 9.432C4.187 22.449 3.001 25.124 3 28c0 .17.018.334.025.502.13-2.685 1.274-5.17 3.092-7.07C6.434 16.239 10.737 12 16 12h.006c.692 0 1.348.21 2.017.352 2.017-1.458 4.419-2.35 6.973-2.352h.01c4.567.005 8.6 2.652 10.613 6.535 5.126 1.202 9.108 5.537 9.358 10.932.006-.156.023-.31.023-.467 0-5.643-4.087-10.223-9.38-11.465-2.015-3.883-6.047-6.53-10.614-6.535h-.01z"/></svg>