<svg xmlns="http://www.w3.org/2000/svg" width="48" height="48" version="1"><path fill="#b2bfd9" d="M44 40V9c0-1.108-.892-2-2-2H6c-1.108 0-2 .892-2 2v31c0 1.108.892 2 2 2h36c1.108 0 2-.892 2-2z"/><path fill="#636e73" d="M44 12V8c0-1.108-.892-2-2-2H6c-1.108 0-2 .892-2 2v4z"/><path opacity=".15" d="M44 40V12H24v30h18c1.108 0 2-.892 2-2z"/><path fill="#fff" opacity=".1" d="M6 6c-1.108 0-2 .892-2 2v1c0-1.108.892-2 2-2h36c1.108 0 2 .892 2 2V8c0-1.108-.892-2-2-2H6z"/><path opacity=".2" d="M4 40v1c0 1.108.892 2 2 2h36c1.108 0 2-.892 2-2v-1c0 1.108-.892 2-2 2H6c-1.108 0-2-.892-2-2z"/><g fill="#636e73"><path d="M9 17v1h1v2H6v-3h3zM9 23v1h1v2H6v-3h3zM9 29v1h1v2H6v-3h3z"/></g><g fill="#636e73" opacity=".8"><path d="M29 17v1h1v2h-4v-3h3zM29 23v1h1v2h-4v-3h3zM29 29v1h1v2h-4v-3h3z"/></g></svg>