<svg xmlns="http://www.w3.org/2000/svg" width="48" height="48"><circle style="opacity:.2" cx="24" cy="25" r="20"/><circle style="fill:#4f4f4f" cx="24" cy="24" r="20"/><circle style="opacity:.2" cx="24" cy="25" r="17"/><circle style="fill:#ff0" cx="24" cy="24" r="17"/><circle style="fill:#4f4f4f" cx="24" cy="24" r="15"/><path style="opacity:.2" d="M25.365 28.728c2.835-2.23 2.941-2.23 5.695 0C35.263 32.13 36 31.575 36 25s-.737-7.131-4.94-3.728c-2.754 2.23-2.86 2.23-5.695 0C23.776 20.022 21.199 19 19.638 19 16.787 19 12 22.76 12 25s4.787 6 7.638 6c1.561 0 4.138-1.023 5.727-2.272z"/><path style="fill:#ff0" d="M25.365 27.728c2.835-2.23 2.941-2.23 5.695 0C35.263 31.13 36 30.575 36 24s-.737-7.131-4.94-3.728c-2.754 2.23-2.86 2.23-5.695 0C23.776 19.022 21.199 18 19.638 18 16.787 18 12 21.76 12 24s4.787 6 7.638 6c1.561 0 4.138-1.023 5.727-2.272z"/><path style="fill:#4f4f4f" d="M15.676 25.5c-1.866-1.96.355-4.5 3.936-4.5 1.38 0 3.51.675 4.735 1.5 2.204 1.485 2.204 1.515 0 3-1.225.825-3.355 1.5-4.735 1.5-1.38 0-3.15-.675-3.936-1.5z"/><path style="opacity:.2" d="M19 23.729c0-.7-.45-.938-1-.53-.55.409-1 .98-1 1.272 0 .29.45.529 1 .529s1-.572 1-1.271z"/><path style="fill:#ff0" d="M19 22.729c0-.7-.45-.938-1-.53-.55.409-1 .98-1 1.272 0 .29.45.529 1 .529s1-.572 1-1.271z"/><path style="fill:#4f4f4f" d="M31.792 25.495c-1.149-1.37-1.078-1.967.409-3.438C33.879 20.397 34 20.51 34 23.715c0 3.9-.256 4.106-2.208 1.78z"/><path style="opacity:.1;fill:#f4f4f7" d="M24 4A20 20 0 0 0 4 24a20 20 0 0 0 .021.582A20 20 0 0 1 24 5a20 20 0 0 1 19.979 19.418A20 20 0 0 0 44 24 20 20 0 0 0 24 4z"/></svg>