<svg xmlns="http://www.w3.org/2000/svg" width="48" height="48" version="1"><path style="opacity:.2" d="M44 25a20 20 0 0 1-20 20A20 20 0 0 1 4 25 20 20 0 0 1 24 5a20 20 0 0 1 20 20z"/><path style="fill:#4f4f4f" d="M44 24a20 20 0 0 1-20 20A20 20 0 0 1 4 24 20 20 0 0 1 24 4a20 20 0 0 1 20 20z"/><path style="opacity:.2" d="m11.9 17-3.6 5h7.876L10.4 33H22.7l5.775-11h4.1L26.8 33h4.1l8.4-16H18.8z"/><path style="fill:#f4f4f7" d="M27 16h4.1l-8.4 16h-4.1zM35.2 16h4.1l-8.4 16h-4.1z"/><path style="fill:#f4f4f7" d="m11.9 16-3.6 5h7.876l2.625-5h-6.9zM27 16l-2.625 5h11.926l3-5H27z"/><path style="fill:#4485e8" d="M22.9 16H27l-8.4 16h-4.1z"/><path style="fill:#69b0ec" d="M18.8 16h4.1l-8.4 16h-4.1z"/><path style="fill:#f4f4f7;opacity:.1" d="M24 4A20 20 0 0 0 4 24a20 20 0 0 0 .021.582A20 20 0 0 1 24 5a20 20 0 0 1 19.979 19.418A20 20 0 0 0 44 24 20 20 0 0 0 24 4z"/></svg>