<svg xmlns="http://www.w3.org/2000/svg" width="48" height="48"><path style="opacity:.2" d="M6.75 23C5.231 23 4 24.359 4 26.034V41.966C4 43.64 5.231 45 6.75 45h16.5c1.519 0 2.75-1.359 2.75-3.034V26.034C26 24.36 24.769 23 23.25 23z"/><path style="fill:#ffeb3b" d="M6.75 22C5.231 22 4 23.359 4 25.034V40.966C4 42.64 5.231 44 6.75 44h16.5c1.519 0 2.75-1.359 2.75-3.034V25.034C26 23.36 24.769 22 23.25 22z"/><path style="fill:#f4f4f7;opacity:.2" d="M6.75 22C5.231 22 4 23.36 4 25.035v1C4 24.36 5.231 23 6.75 23h16.5c1.519 0 2.75 1.36 2.75 3.035v-1C26 23.36 24.769 22 23.25 22H6.75z"/><path style="opacity:.1" d="M11.842 13C10.272 13 9 14.343 9 16v21c0 1.657 1.273 3 2.842 3h21.316C34.728 40 36 38.657 36 37V16c0-1.657-1.273-3-2.842-3z"/><path style="fill:#ff9800" d="M11.842 12C10.272 12 9 13.343 9 15v21c0 1.657 1.273 3 2.842 3h21.316C34.728 39 36 37.657 36 36V15c0-1.657-1.273-3-2.842-3z"/><path style="fill:#f4f4f7;opacity:.2" d="M11.842 12C10.272 12 9 13.343 9 15v1c0-1.657 1.272-3 2.842-3h21.316C34.728 13 36 14.343 36 16v-1c0-1.657-1.272-3-2.842-3H11.842z"/><path style="opacity:.1" d="M16.857 5A2.857 2.857 0 0 0 14 7.857v24.286A2.857 2.857 0 0 0 16.857 35h24.286A2.857 2.857 0 0 0 44 32.143V7.857A2.857 2.857 0 0 0 41.143 5z"/><path style="fill:#d546e6" d="M16.857 4A2.857 2.857 0 0 0 14 6.857v24.286A2.857 2.857 0 0 0 16.857 34h24.286A2.857 2.857 0 0 0 44 31.143V6.857A2.857 2.857 0 0 0 41.143 4z"/><path style="opacity:.2" d="M30.201 11.01c.29.018.58.05.866.096a9.327 9.327 0 0 1 6.105 3.512c3.048 3.961 2.19 9.632-1.872 12.602-4.065 2.97-9.885 2.132-12.932-1.828a1.48 1.48 0 0 1-.29-.889v-1.499h1.539c.49.002.954.227 1.251.608 2.05 2.664 5.871 3.17 8.604 1.171 2.734-1.997 3.252-5.72 1.203-8.384-2.054-2.664-5.875-3.17-8.61-1.172A5.854 5.854 0 0 0 24.48 17h2.012c.85 0 1.491.679 1.508 1.507v1.5h-9V11h1.538c.85 0 1.462.682 1.462 1.511v2.53c1.783-2.651 4.952-4.184 8.201-4.03z"/><path style="fill:#ffc9ff" d="M30.201 10.01c.29.018.58.05.866.096a9.327 9.327 0 0 1 6.105 3.512c3.048 3.961 2.19 9.632-1.872 12.602-4.065 2.97-9.885 2.132-12.932-1.828a1.48 1.48 0 0 1-.29-.889v-1.499h1.539c.49.002.954.227 1.251.608 2.05 2.664 5.871 3.17 8.604 1.171 2.734-1.997 3.252-5.72 1.203-8.384-2.054-2.664-5.875-3.17-8.61-1.172A5.854 5.854 0 0 0 24.48 16h2.012c.85 0 1.491.679 1.508 1.507v1.5h-9V10h1.538c.85 0 1.462.682 1.462 1.511v2.53c1.783-2.651 4.952-4.184 8.201-4.03z"/><path style="fill:#f4f4f7;opacity:.2" d="M16.857 4A2.858 2.858 0 0 0 14 6.857v1A2.858 2.858 0 0 1 16.857 5h24.286A2.858 2.858 0 0 1 44 7.857v-1A2.858 2.858 0 0 0 41.143 4H16.857zM19 10v1h1.54c.85 0 1.46.683 1.46 1.512v-1c0-.829-.61-1.512-1.46-1.512H19zm11.201.01c-3.25-.154-6.418 1.38-8.201 4.031v1c1.783-2.651 4.952-4.185 8.201-4.031.29.017.58.05.865.095a9.327 9.327 0 0 1 6.106 3.512 8.748 8.748 0 0 1 1.81 4.867 8.756 8.756 0 0 0-1.81-5.867 9.327 9.327 0 0 0-6.106-3.512 8.98 8.98 0 0 0-.865-.095zM25.215 16a6.126 6.126 0 0 0-.735 1h2.012c.85 0 1.491.68 1.508 1.508v-1c-.017-.829-.658-1.508-1.508-1.508h-1.277zm10.681 3.518a5.876 5.876 0 0 1-2.423 4.265c-2.733 1.998-6.557 1.493-8.606-1.172a1.592 1.592 0 0 0-1.25-.607h-1.539v1h1.54c.49.001.952.227 1.25.607 2.048 2.665 5.872 3.17 8.605 1.172 1.762-1.287 2.596-3.29 2.423-5.265z"/></svg>