<svg xmlns="http://www.w3.org/2000/svg" height="48" width="48"><path style="opacity:.2" d="M24.08 5.001a2 2 0 0 0-.932.188l-17 8A2 2 0 0 0 5 14.999v20a2 2 0 0 0 1.148 1.81l17 8a2 2 0 0 0 1.704 0l17-8A2 2 0 0 0 43 35V15a2 2 0 0 0-1.148-1.81l-17-8A2 2 0 0 0 24.08 5z"/><path style="fill:#3f3f3f" d="M24.08 4.001a2 2 0 0 0-.932.188l-17 8A2 2 0 0 0 5 13.999v20a2 2 0 0 0 1.148 1.81l17 8a2 2 0 0 0 1.704 0l17-8A2 2 0 0 0 43 34V14a2 2 0 0 0-1.148-1.81l-17-8A2 2 0 0 0 24.08 4z"/><path style="fill:#f4f4f7;opacity:.1" d="M24.08 4.002a2 2 0 0 0-.932.187l-17 8A2 2 0 0 0 5 14v1a2 2 0 0 1 1.148-1.81l17-8a2 2 0 0 1 1.704 0l17 8A2 2 0 0 1 43 15v-1a2 2 0 0 0-1.148-1.81l-17-8a2 2 0 0 0-.772-.188z"/><path style="opacity:.2" d="M24.998 11.998a2 2 0 0 0-1.998 2v10a2 2 0 0 0 1.043 1.755l11 6c1.333.726 2.957-.238 2.957-1.755v-10a2 2 0 0 0-1.043-1.756l-11-6a2 2 0 0 0-.959-.244z"/><path style="fill:#5891d9" d="M24.998 10.998a2 2 0 0 0-1.998 2v10a2 2 0 0 0 1.043 1.755l11 6c1.333.726 2.957-.238 2.957-1.755v-10a2 2 0 0 0-1.043-1.756l-11-6a2 2 0 0 0-.959-.244z"/><path style="opacity:.2" d="M18.998 14.998a2 2 0 0 0-1.998 2v10a2 2 0 0 0 1.043 1.755l11 6c1.333.726 2.957-.238 2.957-1.755v-10a2 2 0 0 0-1.043-1.756l-11-6a2 2 0 0 0-.959-.244z"/><path style="fill:#8ed599" d="M18.998 13.998a2 2 0 0 0-1.998 2v10a2 2 0 0 0 1.043 1.755l11 6c1.333.726 2.957-.238 2.957-1.755v-10a2 2 0 0 0-1.043-1.756l-11-6a2 2 0 0 0-.959-.244z"/><path style="fill:#f4f4f7" d="M17 24.422V26a2 2 0 0 0 1.043 1.756l11 6C30.376 34.482 32 33.518 32 32v-3l-4-4-11-.578z"/><path style="opacity:.2" d="M11.998 17.998a2 2 0 0 0-1.998 2v10a2 2 0 0 0 1.043 1.755l11 6c1.333.726 2.957-.238 2.957-1.755v-10a2 2 0 0 0-1.043-1.756l-11-6a2 2 0 0 0-.959-.244z"/><path style="fill:#d75a86" d="M11.998 16.998a2 2 0 0 0-1.998 2v10a2 2 0 0 0 1.043 1.755l11 6c1.333.726 2.957-.238 2.957-1.755v-10a2 2 0 0 0-1.043-1.756l-11-6a2 2 0 0 0-.959-.244z"/><path style="fill:#f4f4f7" d="M34 20c.396 1 1 1 1 1s-.57 1-1 1c-.494 0-1-1-1-2s1-2 1-2-.368 1.07 0 2zM10 25v4a2 2 0 0 0 1.043 1.756l11 6c.043.023.087.03.13.05L14 25h-4z"/><path style="fill:#f4f4f7;opacity:.2" d="M24.998 10.998a2 2 0 0 0-1.998 2v1a2 2 0 0 1 2.957-1.756l11 6A2 2 0 0 1 38 19.998v-1a2 2 0 0 0-1.043-1.756l-11-6a2 2 0 0 0-.959-.244zM18.998 13.998a2 2 0 0 0-1.998 2v1a2 2 0 0 1 2.957-1.756l11 6A2 2 0 0 1 32 22.998v-1a2 2 0 0 0-1.043-1.756l-11-6a2 2 0 0 0-.959-.244zM11.998 16.998a2 2 0 0 0-1.998 2v1a2 2 0 0 1 2.957-1.756l11 6A2 2 0 0 1 25 25.998v-1a2 2 0 0 0-1.043-1.756l-11-6a2 2 0 0 0-.959-.244z"/></svg>