<svg xmlns="http://www.w3.org/2000/svg" width="48" height="48"><g style="opacity:.2"><path d="M9 45h30V31H9z"/><path style="opacity:.5" d="M12 9h6v4h-6zM30 9h6v4h-6z" transform="matrix(1 0 0 -1 0 51)"/></g><path style="fill:#b7b7b7" d="M9 6h30v14H9z" transform="matrix(1 0 0 -1 0 50)"/><path style="opacity:.5" d="M12 9h6v4h-6zM30 9h6v4h-6z" transform="matrix(1 0 0 -1 0 50)"/><path style="opacity:.2" d="M24 5A20 20 0 0 0 4 25a20 20 0 0 0 2.143 9h35.693A20 20 0 0 0 44 25 20 20 0 0 0 24 5z"/><path style="fill:#5161a2" d="M24 4A20 20 0 0 0 4 24a20 20 0 0 0 2.143 9h35.693A20 20 0 0 0 44 24 20 20 0 0 0 24 4z"/><path style="opacity:.2;fill:#f4f4f7" d="M28.5 7a6.5 6.5 0 0 0-6.5 6.5V17h-4.5a6.5 6.5 0 1 0 6.5 6.5V20h4.5a6.5 6.5 0 1 0 0-13zm0 3a3.5 3.5 0 1 1 0 7h-2.576S25 17 25 15.96V13.5a3.5 3.5 0 0 1 3.5-3.5zm-11 10h2.576S21 20 21 21.039v2.46a3.5 3.5 0 1 1-3.5-3.5z"/><path style="fill:#f4f4f7" d="M28.5 7a6.5 6.5 0 0 0-6.5 6.5V17h-3.527c-.82.06-1.463.72-1.463 1.553 0 .662.406 1.217.982 1.447h2.084S21 20 21 21.039v2.46a3.5 3.5 0 0 1-3.5 3.5c-.5 0-.69-.044-1-.099a1.5 1.5 0 0 0-1.5 1.5 1.5 1.5 0 0 0 1.404 1.494c.017.005.03.017.047.02A6.5 6.5 0 0 0 24 23.5V20h3.982a1.554 1.554 0 0 0-.439-3h-1.62S25 17 25 15.96V13.5a3.5 3.5 0 0 1 4.209-3.428h.002a1.5 1.5 0 0 0 .719-2.908h-.004a1.5 1.5 0 0 0-.346-.06A6.301 6.301 0 0 0 28.5 7z"/><path style="opacity:.1;fill:#f4f4f7" d="M24 4A20 20 0 0 0 4 24a20 20 0 0 0 .021.418A20 20 0 0 1 24 5a20 20 0 0 1 19.979 19.578A20 20 0 0 0 44 24 20 20 0 0 0 24 4z"/></svg>