<svg xmlns="http://www.w3.org/2000/svg" width="48" height="48" version="1"><path style="opacity:.2" d="M30 22H18v15l12 8z"/><path style="opacity:.2" transform="matrix(1 0 0 .66851 0 4.04)" d="M5 4.427h38l-9.5 16.455L24 37.336l-9.5-16.454z"/><path style="fill:#e53935" transform="matrix(1 0 0 .66851 0 3.04)" d="M5 4.427h38l-9.5 16.455L24 37.336l-9.5-16.454z"/><rect style="opacity:.2" width="40" height="4" x="4" y="5" rx="2" ry="2"/><rect style="fill:#ec6b68" width="40" height="4" x="4" y="4" rx="2" ry="2"/><path style="fill:#b4231f" d="M30 21H18v15l12 8z"/><path style="opacity:.2;fill:#f4f4f7" d="M6 4c-1.108 0-2 .892-2 2 0 .174.029.34.07.5A1.99 1.99 0 0 1 6 5h36a1.99 1.99 0 0 1 1.93 1.5c.041-.16.07-.326.07-.5 0-1.108-.892-2-2-2H6z"/></svg>