<svg xmlns="http://www.w3.org/2000/svg" width="48" height="48" version="1"><path style="opacity:.2" d="M17 13A10 10 0 0 0 7 23a10 10 0 0 0 .05.92A9 9 0 0 0 2 32a9 9 0 0 0 9 9h22a8 8 0 0 0 8-8 8 8 0 0 0-6.492-7.852A5 5 0 0 0 35 23a5 5 0 0 0-5-5 5 5 0 0 0-3.62 1.559A10 10 0 0 0 17 13z"/><path style="fill:#27adeb" d="M33.5 6a8.5 8.5 0 0 0-7.861 5.281A4.5 4.5 0 0 0 22.5 10a4.5 4.5 0 0 0-4.5 4.5 4.5 4.5 0 0 0 4.5 4.5 4.5 4.5 0 0 0 3.14-1.28 8.5 8.5 0 0 0 5.364 4.905A7.5 7.5 0 0 0 38.5 30a7.5 7.5 0 0 0 7.5-7.5 7.5 7.5 0 0 0-4.113-6.684A8.5 8.5 0 0 0 42 14.5 8.5 8.5 0 0 0 33.5 6z"/><path style="opacity:.2;fill:#f4f4f7" d="M33.5 6a8.5 8.5 0 0 0-7.86 5.281A4.5 4.5 0 0 0 22.5 10a4.5 4.5 0 0 0-4.5 4.5 4.5 4.5 0 0 0 .031.512A4.5 4.5 0 0 1 22.5 11a4.5 4.5 0 0 1 3.14 1.281A8.5 8.5 0 0 1 33.5 7a8.5 8.5 0 0 1 8.477 8.04A8.5 8.5 0 0 0 42 14.5 8.5 8.5 0 0 0 33.5 6zm8.488 9.875a8.5 8.5 0 0 1-.101.941 7.5 7.5 0 0 1 4.09 6.243A7.5 7.5 0 0 0 46 22.5a7.5 7.5 0 0 0-4.012-6.625z"/><path style="fill:#1f83b3" d="M17 12A10 10 0 0 0 7 22a10 10 0 0 0 .05.92A9 9 0 0 0 2 31a9 9 0 0 0 9 9h22a8 8 0 0 0 8-8 8 8 0 0 0-7.115-7.947A5 5 0 0 0 34 23a5 5 0 0 0-5-5 5 5 0 0 0-2.566.717A10 10 0 0 0 17 12z"/><rect style="fill:#58e1f1" width="14" height="4" x="32" y="28" rx="1" ry="1"/><circle style="fill:#3f3f3f" cx="44" cy="30" r="1"/><rect style="fill:#58e1f1" width="14" height="4" x="32" y="32" rx="1" ry="1"/><circle style="fill:#3f3f3f" cx="44" cy="34" r="1"/><rect style="fill:#58e1f1" width="14" height="4" x="32" y="36" rx="1" ry="1"/><circle style="fill:#3f3f3f" cx="44" cy="38" r="1"/><path style="opacity:.2" d="M11 25v8h2v-3h2v-2h-2v-1h2v-2zm6 0v2h2v6h2v-6h2v-2zm8 0v8h2v-2s4 0 4-3-4-3-4-3zM7.09 27c-.631 0-1.14.134-1.52.402-.38.269-.57.67-.57 1.207 0 .325.05.598.152.817.103.212.264.399.477.554.212.149.48.302.809.458.34.155.592.28.753.378.161.1.264.188.309.266a.475.475 0 0 1 .082.266.428.428 0 0 1-.184.359c-.116.092-.318.137-.601.137-.251 0-.539-.045-.867-.137a5.213 5.213 0 0 1-.922-.348v1.301c.264.12.533.208.797.258.264.057.578.082.945.082.747 0 1.306-.154 1.68-.465.38-.318.57-.773.57-1.36 0-.346-.061-.623-.184-.835a1.448 1.448 0 0 0-.504-.543 5.026 5.026 0 0 0-.78-.422c-.31-.141-.543-.255-.704-.34a1.13 1.13 0 0 1-.32-.234.45.45 0 0 1-.078-.254c0-.255.211-.379.636-.379.239 0 .476.04.707.125.232.078.477.177.735.297l.433-1.137a4.07 4.07 0 0 0-.918-.348A3.997 3.997 0 0 0 7.09 27zM27 27h.73c.847 0 1.27.326 1.27.98 0 .359-.134.622-.402.786-.261.157-.615.234-1.067.234H27z"/><path style="fill:#f4f4f7" d="M11 24v8h2v-3h2v-2h-2v-1h2v-2zm6 0v2h2v6h2v-6h2v-2zm8 0v8h2v-2s4 0 4-3-4-3-4-3zM7.09 26c-.631 0-1.14.134-1.52.402-.38.269-.57.67-.57 1.207 0 .325.05.598.152.817.103.212.264.399.477.554.212.149.48.302.809.458.34.155.592.28.753.378.161.1.264.188.309.266a.475.475 0 0 1 .082.266.428.428 0 0 1-.184.359c-.116.092-.318.137-.601.137-.251 0-.539-.045-.867-.137a5.213 5.213 0 0 1-.922-.348v1.301c.264.12.533.208.797.258.264.057.578.082.945.082.747 0 1.306-.154 1.68-.465.38-.318.57-.773.57-1.36 0-.346-.061-.623-.184-.835a1.448 1.448 0 0 0-.504-.543 5.026 5.026 0 0 0-.78-.422c-.31-.141-.543-.255-.704-.34a1.13 1.13 0 0 1-.32-.234.45.45 0 0 1-.078-.254c0-.255.211-.379.636-.379.239 0 .476.04.707.125.232.078.477.177.735.297l.433-1.137a4.07 4.07 0 0 0-.918-.348A3.997 3.997 0 0 0 7.09 26zM27 26h.73c.847 0 1.27.326 1.27.98 0 .359-.134.622-.402.786-.261.157-.615.234-1.067.234H27z"/><path style="opacity:.2" d="M32 31v1c0 .554.446 1 1 1h12c.554 0 1-.446 1-1v-1c0 .554-.446 1-1 1H33c-.554 0-1-.446-1-1zm0 4v1c0 .554.446 1 1 1h12c.554 0 1-.446 1-1v-1c0 .554-.446 1-1 1H33c-.554 0-1-.446-1-1zm0 4v1c0 .554.446 1 1 1h12c.554 0 1-.446 1-1v-1c0 .554-.446 1-1 1H33c-.554 0-1-.446-1-1z"/><path style="opacity:.2;fill:#f4f4f7" d="M33 28c-.554 0-1 .446-1 1v1c0-.554.446-1 1-1h12c.554 0 1 .446 1 1v-1c0-.554-.446-1-1-1z"/></svg>