<svg xmlns="http://www.w3.org/2000/svg" height="48" width="48"><rect style="opacity:.2" rx="7" ry="7" height="40" width="40" y="5" x="4"/><rect style="fill:#b2bfd9" rx="7" ry="7" height="40" width="40" y="4" x="4"/><path style="opacity:.2" d="M33.982 15a1.5 1.5 0 0 0-1.076.475l-7.5 8a1.5 1.5 0 1 0 2.188 2.05l6.326-6.746 5.416 6.666a1.5 1.5 0 1 0 2.328-1.89l-6.5-8A1.5 1.5 0 0 0 33.982 15zm-20.125.002a1.5 1.5 0 0 0-1.2.527l-6.8 8a1.5 1.5 0 1 0 2.286 1.942l5.689-6.694 6.053 6.727a1.5 1.5 0 1 0 2.23-2.008l-7.2-8a1.5 1.5 0 0 0-1.058-.494zm-3.37 15.984a1.5 1.5 0 0 0-.819 2.762s.823.55 1.912 1.094C12.67 35.387 14 36 15.5 36c3.167 0 5.472-.53 7.012-1.09.979-.356 1.152-.54 1.543-.787C25 34.59 28.088 36 33.5 36c1.5 0 2.704-.667 3.582-1.252a10.636 10.636 0 0 0 1.479-1.187 1.5 1.5 0 0 0-1.09-2.575 1.5 1.5 0 0 0-1.032.453s-.399.398-1.021.813C34.796 32.667 34 33 33.5 33c-5.667 0-8.756-1.803-8.756-1.803a1.5 1.5 0 0 0-1.682.131s-.363.322-1.574.762c-1.21.44-3.155.91-5.988.91-.5 0-1.67-.387-2.58-.842s-1.588-.906-1.588-.906a1.5 1.5 0 0 0-.846-.266z"/><path d="m7 23.5 6.8-8 7.2 8M40.5 23.5l-6.5-8-7.5 8M10.5 31.5s3 2 5 2c6 0 8.5-2 8.5-2s3.5 2 9.5 2c2 0 4-2 4-2" style="stroke-linejoin:round;stroke:#32b7ff;stroke-linecap:round;stroke-width:3;fill:none"/><path style="opacity:.2;fill:#f4f4f7" d="M11 4c-3.878 0-7 3.122-7 7v1c0-3.878 3.122-7 7-7h26c3.878 0 7 3.122 7 7v-1c0-3.878-3.122-7-7-7H11z"/></svg>