<svg xmlns="http://www.w3.org/2000/svg" width="48" height="48" version="1"><rect style="opacity:.2" width="44" height="30" x="2" y="10" rx="2" ry="2.143"/><rect style="fill:#b2bfd9" width="44" height="30" x="2" y="9" rx="2" ry="2.143"/><path style="fill:#4f4f4f" d="M6 13h36v22H6z"/><path style="opacity:.2" d="M9.5 18 12 32h24l2.5-14h-6l-1.428 8H27v-8h-6v8h-4.072L15.5 18z"/><path style="fill:#b2bfd9" d="M9.5 17 12 31h24l2.5-14h-6l-1.428 8H27v-8h-6v8h-4.072L15.5 17h-6z"/><path style="fill:#f4f4f7;opacity:.2" d="M4 9c-1.108 0-2 .955-2 2.143v1C2 10.955 2.892 10 4 10h40c1.108 0 2 .955 2 2.143v-1C46 9.955 45.108 9 44 9H4z"/><path style="opacity:.2;fill:#f4f4f7" d="m9.5 17 .178 1H15.5l1.428 8H21v-1h-4.072L15.5 17h-6zM21 17v1h6v-1h-6zm11.5 0-1.428 8H27v1h4.072l1.428-8h5.822l.178-1h-6z"/><path style="opacity:.2" d="M6 13h36v1H6z"/><path style="opacity:.2;fill:#f4f4f7" d="M6 35h36v1H6z"/></svg>