<svg xmlns="http://www.w3.org/2000/svg" width="24" height="24"><defs><style id="current-color-scheme" type="text/css"></style></defs><path style="fill:currentColor;color:#323a41" d="m10 2 2.5 3L15 2h-5zM9 3v11h1v-.77a3 3 0 0 0 2 .77 3 3 0 0 0 3-3 3 3 0 0 0-3-3 3 3 0 0 0-2 .768V3H9zM4 8a3 3 0 0 0-3 3 3 3 0 0 0 3 3 3 3 0 0 0 2-.768V14h1V8H6v.77A3 3 0 0 0 4 8zm0 1a2 2 0 0 1 2 2 2 2 0 0 1-2 2 2 2 0 0 1-2-2 2 2 0 0 1 2-2zm8 0a2 2 0 0 1 2 2 2 2 0 0 1-2 2 2 2 0 0 1-2-2 2 2 0 0 1 2-2z" transform="translate(4 4)"/></svg>