<svg xmlns="http://www.w3.org/2000/svg" width="24" height="24"><defs><style id="current-color-scheme" type="text/css"></style></defs><path style="fill:currentColor;color:#323a41" d="M8 13V9H5l5-7 5 7h-3v4zm-4-1.5A1.5 1.5 0 0 1 2.5 13 1.5 1.5 0 0 1 1 11.5 1.5 1.5 0 0 1 2.5 10 1.5 1.5 0 0 1 4 11.5zm0-4A1.5 1.5 0 0 1 2.5 9 1.5 1.5 0 0 1 1 7.5 1.5 1.5 0 0 1 2.5 6 1.5 1.5 0 0 1 4 7.5zm0-4A1.5 1.5 0 0 1 2.5 5 1.5 1.5 0 0 1 1 3.5 1.5 1.5 0 0 1 2.5 2 1.5 1.5 0 0 1 4 3.5z" transform="translate(4 4)"/></svg>