<svg xmlns="http://www.w3.org/2000/svg" width="24" height="24"><defs><style id="current-color-scheme" type="text/css">.ColorScheme-Text{color:#323a41}</style></defs><path style="fill:currentColor" class="ColorScheme-Text" d="M5 6v13h13v-3.133l-.041-.039L15.131 13l-.004.004-.006-.004-2.123 2.123L9.875 12H7V6zm8 0-4.002 4.002H7.002v1h2.41l3.59-3.59 2.123 2.123.006-.004.004.004 2.828-2.828c.003.005-.707-.707-.707-.707L15.13 8.125 13.004 6l-.002.002zm-6 7h2.46l3.536 3.535.002-.002.002.002 2.127-2.125 2.125 2.125.482.465H7v-3z"/><path style="opacity:.5;fill:currentColor" class="ColorScheme-Text" d="m17.46 6.22-2.451 2.779-2-3-4 4h-2v7h11V6.741z"/></svg>