<svg xmlns="http://www.w3.org/2000/svg" width="24" height="24"><defs><style id="current-color-scheme" type="text/css">.ColorScheme-Text{color:#323a41}</style></defs><path style="fill:currentColor" class="ColorScheme-Text" d="M21 19v2h-3v1h3v2l3-2.5zM3 0 0 2.5 3 5V3h3V2H3z" transform="rotate(90 12 12)"/><path style="fill:currentColor" class="ColorScheme-Text" d="M4.5 5c-.5 0-.5.5-.5.5v13c0 .5.5.5.5.5h15c.5 0 .5-.5.5-.5v-13c0-.5-.5-.5-.5-.5zM5 6h14v12H5z" transform="matrix(0 1 -1 .60159 24 -7.219)"/><path style="opacity:.3;fill:currentColor" class="ColorScheme-Text" d="M5 6h14v12H5z" transform="matrix(0 1 -1 .60159 24 -7.219)"/></svg>